<?xml version="1.0" encoding="utf-8" standalone="no"?>
<!DOCTYPE svg PUBLIC "-//W3C//DTD SVG 1.1//EN"
  "http://www.w3.org/Graphics/SVG/1.1/DTD/svg11.dtd">
<!-- Created with matplotlib (https://matplotlib.org/) -->
<svg height="345.6pt" version="1.1" viewBox="0 0 460.8 345.6" width="460.8pt" xmlns="http://www.w3.org/2000/svg" xmlns:xlink="http://www.w3.org/1999/xlink">
 <metadata>
  <rdf:RDF xmlns:cc="http://creativecommons.org/ns#" xmlns:dc="http://purl.org/dc/elements/1.1/" xmlns:rdf="http://www.w3.org/1999/02/22-rdf-syntax-ns#">
   <cc:Work>
    <dc:type rdf:resource="http://purl.org/dc/dcmitype/StillImage"/>
    <dc:date>2020-08-18T14:15:45.691352</dc:date>
    <dc:format>image/svg+xml</dc:format>
    <dc:creator>
     <cc:Agent>
      <dc:title>Matplotlib v3.3.0, https://matplotlib.org/</dc:title>
     </cc:Agent>
    </dc:creator>
   </cc:Work>
  </rdf:RDF>
 </metadata>
 <defs>
  <style type="text/css">*{stroke-linecap:butt;stroke-linejoin:round;}</style>
 </defs>
 <g id="figure_1">
  <g id="patch_1">
   <path d="M 0 345.6 
L 460.8 345.6 
L 460.8 0 
L 0 0 
z
" style="fill:#ffffff;"/>
  </g>
  <g id="axes_1">
   <g id="patch_2">
    <path d="M 57.6 307.584 
L 414.72 307.584 
L 414.72 41.472 
L 57.6 41.472 
z
" style="fill:#ffffff;"/>
   </g>
   <g id="matplotlib.axis_1">
    <g id="xtick_1">
     <g id="line2d_1">
      <path clip-path="url(#p7e2d177d3e)" d="M 61.612584 307.584 
L 61.612584 41.472 
" style="fill:none;stroke:#b0b0b0;stroke-dasharray:5.12,1.28,0.8,1.28;stroke-dashoffset:0;stroke-width:0.8;"/>
     </g>
     <g id="line2d_2">
      <defs>
       <path d="M 0 0 
L 0 3.5 
" id="m128a6da841" style="stroke:#000000;stroke-width:0.8;"/>
      </defs>
      <g>
       <use style="stroke:#000000;stroke-width:0.8;" x="61.612584" xlink:href="#m128a6da841" y="307.584"/>
      </g>
     </g>
     <g id="text_1">
      <!-- 1 -->
      <g transform="translate(58.431334 322.182437)scale(0.1 -0.1)">
       <defs>
        <path d="M 12.40625 8.296875 
L 28.515625 8.296875 
L 28.515625 63.921875 
L 10.984375 60.40625 
L 10.984375 69.390625 
L 28.421875 72.90625 
L 38.28125 72.90625 
L 38.28125 8.296875 
L 54.390625 8.296875 
L 54.390625 0 
L 12.40625 0 
z
" id="DejaVuSans-49"/>
       </defs>
       <use xlink:href="#DejaVuSans-49"/>
      </g>
     </g>
    </g>
    <g id="xtick_2">
     <g id="line2d_3">
      <path clip-path="url(#p7e2d177d3e)" d="M 73.650337 307.584 
L 73.650337 41.472 
" style="fill:none;stroke:#b0b0b0;stroke-dasharray:5.12,1.28,0.8,1.28;stroke-dashoffset:0;stroke-width:0.8;"/>
     </g>
     <g id="line2d_4">
      <g>
       <use style="stroke:#000000;stroke-width:0.8;" x="73.650337" xlink:href="#m128a6da841" y="307.584"/>
      </g>
     </g>
     <g id="text_2">
      <!-- 4 -->
      <g transform="translate(70.469087 322.182437)scale(0.1 -0.1)">
       <defs>
        <path d="M 37.796875 64.3125 
L 12.890625 25.390625 
L 37.796875 25.390625 
z
M 35.203125 72.90625 
L 47.609375 72.90625 
L 47.609375 25.390625 
L 58.015625 25.390625 
L 58.015625 17.1875 
L 47.609375 17.1875 
L 47.609375 0 
L 37.796875 0 
L 37.796875 17.1875 
L 4.890625 17.1875 
L 4.890625 26.703125 
z
" id="DejaVuSans-52"/>
       </defs>
       <use xlink:href="#DejaVuSans-52"/>
      </g>
     </g>
    </g>
    <g id="xtick_3">
     <g id="line2d_5">
      <path clip-path="url(#p7e2d177d3e)" d="M 89.700674 307.584 
L 89.700674 41.472 
" style="fill:none;stroke:#b0b0b0;stroke-dasharray:5.12,1.28,0.8,1.28;stroke-dashoffset:0;stroke-width:0.8;"/>
     </g>
     <g id="line2d_6">
      <g>
       <use style="stroke:#000000;stroke-width:0.8;" x="89.700674" xlink:href="#m128a6da841" y="307.584"/>
      </g>
     </g>
     <g id="text_3">
      <!-- 8 -->
      <g transform="translate(86.519424 322.182437)scale(0.1 -0.1)">
       <defs>
        <path d="M 31.78125 34.625 
Q 24.75 34.625 20.71875 30.859375 
Q 16.703125 27.09375 16.703125 20.515625 
Q 16.703125 13.921875 20.71875 10.15625 
Q 24.75 6.390625 31.78125 6.390625 
Q 38.8125 6.390625 42.859375 10.171875 
Q 46.921875 13.96875 46.921875 20.515625 
Q 46.921875 27.09375 42.890625 30.859375 
Q 38.875 34.625 31.78125 34.625 
z
M 21.921875 38.8125 
Q 15.578125 40.375 12.03125 44.71875 
Q 8.5 49.078125 8.5 55.328125 
Q 8.5 64.0625 14.71875 69.140625 
Q 20.953125 74.21875 31.78125 74.21875 
Q 42.671875 74.21875 48.875 69.140625 
Q 55.078125 64.0625 55.078125 55.328125 
Q 55.078125 49.078125 51.53125 44.71875 
Q 48 40.375 41.703125 38.8125 
Q 48.828125 37.15625 52.796875 32.3125 
Q 56.78125 27.484375 56.78125 20.515625 
Q 56.78125 9.90625 50.3125 4.234375 
Q 43.84375 -1.421875 31.78125 -1.421875 
Q 19.734375 -1.421875 13.25 4.234375 
Q 6.78125 9.90625 6.78125 20.515625 
Q 6.78125 27.484375 10.78125 32.3125 
Q 14.796875 37.15625 21.921875 38.8125 
z
M 18.3125 54.390625 
Q 18.3125 48.734375 21.84375 45.5625 
Q 25.390625 42.390625 31.78125 42.390625 
Q 38.140625 42.390625 41.71875 45.5625 
Q 45.3125 48.734375 45.3125 54.390625 
Q 45.3125 60.0625 41.71875 63.234375 
Q 38.140625 66.40625 31.78125 66.40625 
Q 25.390625 66.40625 21.84375 63.234375 
Q 18.3125 60.0625 18.3125 54.390625 
z
" id="DejaVuSans-56"/>
       </defs>
       <use xlink:href="#DejaVuSans-56"/>
      </g>
     </g>
    </g>
    <g id="xtick_4">
     <g id="line2d_7">
      <path clip-path="url(#p7e2d177d3e)" d="M 105.751011 307.584 
L 105.751011 41.472 
" style="fill:none;stroke:#b0b0b0;stroke-dasharray:5.12,1.28,0.8,1.28;stroke-dashoffset:0;stroke-width:0.8;"/>
     </g>
     <g id="line2d_8">
      <g>
       <use style="stroke:#000000;stroke-width:0.8;" x="105.751011" xlink:href="#m128a6da841" y="307.584"/>
      </g>
     </g>
     <g id="text_4">
      <!-- 12 -->
      <g transform="translate(99.388511 322.182437)scale(0.1 -0.1)">
       <defs>
        <path d="M 19.1875 8.296875 
L 53.609375 8.296875 
L 53.609375 0 
L 7.328125 0 
L 7.328125 8.296875 
Q 12.9375 14.109375 22.625 23.890625 
Q 32.328125 33.6875 34.8125 36.53125 
Q 39.546875 41.84375 41.421875 45.53125 
Q 43.3125 49.21875 43.3125 52.78125 
Q 43.3125 58.59375 39.234375 62.25 
Q 35.15625 65.921875 28.609375 65.921875 
Q 23.96875 65.921875 18.8125 64.3125 
Q 13.671875 62.703125 7.8125 59.421875 
L 7.8125 69.390625 
Q 13.765625 71.78125 18.9375 73 
Q 24.125 74.21875 28.421875 74.21875 
Q 39.75 74.21875 46.484375 68.546875 
Q 53.21875 62.890625 53.21875 53.421875 
Q 53.21875 48.921875 51.53125 44.890625 
Q 49.859375 40.875 45.40625 35.40625 
Q 44.1875 33.984375 37.640625 27.21875 
Q 31.109375 20.453125 19.1875 8.296875 
z
" id="DejaVuSans-50"/>
       </defs>
       <use xlink:href="#DejaVuSans-49"/>
       <use x="63.623047" xlink:href="#DejaVuSans-50"/>
      </g>
     </g>
    </g>
    <g id="xtick_5">
     <g id="line2d_9">
      <path clip-path="url(#p7e2d177d3e)" d="M 121.801348 307.584 
L 121.801348 41.472 
" style="fill:none;stroke:#b0b0b0;stroke-dasharray:5.12,1.28,0.8,1.28;stroke-dashoffset:0;stroke-width:0.8;"/>
     </g>
     <g id="line2d_10">
      <g>
       <use style="stroke:#000000;stroke-width:0.8;" x="121.801348" xlink:href="#m128a6da841" y="307.584"/>
      </g>
     </g>
     <g id="text_5">
      <!-- 16 -->
      <g transform="translate(115.438848 322.182437)scale(0.1 -0.1)">
       <defs>
        <path d="M 33.015625 40.375 
Q 26.375 40.375 22.484375 35.828125 
Q 18.609375 31.296875 18.609375 23.390625 
Q 18.609375 15.53125 22.484375 10.953125 
Q 26.375 6.390625 33.015625 6.390625 
Q 39.65625 6.390625 43.53125 10.953125 
Q 47.40625 15.53125 47.40625 23.390625 
Q 47.40625 31.296875 43.53125 35.828125 
Q 39.65625 40.375 33.015625 40.375 
z
M 52.59375 71.296875 
L 52.59375 62.3125 
Q 48.875 64.0625 45.09375 64.984375 
Q 41.3125 65.921875 37.59375 65.921875 
Q 27.828125 65.921875 22.671875 59.328125 
Q 17.53125 52.734375 16.796875 39.40625 
Q 19.671875 43.65625 24.015625 45.921875 
Q 28.375 48.1875 33.59375 48.1875 
Q 44.578125 48.1875 50.953125 41.515625 
Q 57.328125 34.859375 57.328125 23.390625 
Q 57.328125 12.15625 50.6875 5.359375 
Q 44.046875 -1.421875 33.015625 -1.421875 
Q 20.359375 -1.421875 13.671875 8.265625 
Q 6.984375 17.96875 6.984375 36.375 
Q 6.984375 53.65625 15.1875 63.9375 
Q 23.390625 74.21875 37.203125 74.21875 
Q 40.921875 74.21875 44.703125 73.484375 
Q 48.484375 72.75 52.59375 71.296875 
z
" id="DejaVuSans-54"/>
       </defs>
       <use xlink:href="#DejaVuSans-49"/>
       <use x="63.623047" xlink:href="#DejaVuSans-54"/>
      </g>
     </g>
    </g>
    <g id="xtick_6">
     <g id="line2d_11">
      <path clip-path="url(#p7e2d177d3e)" d="M 137.851685 307.584 
L 137.851685 41.472 
" style="fill:none;stroke:#b0b0b0;stroke-dasharray:5.12,1.28,0.8,1.28;stroke-dashoffset:0;stroke-width:0.8;"/>
     </g>
     <g id="line2d_12">
      <g>
       <use style="stroke:#000000;stroke-width:0.8;" x="137.851685" xlink:href="#m128a6da841" y="307.584"/>
      </g>
     </g>
     <g id="text_6">
      <!-- 20 -->
      <g transform="translate(131.489185 322.182437)scale(0.1 -0.1)">
       <defs>
        <path d="M 31.78125 66.40625 
Q 24.171875 66.40625 20.328125 58.90625 
Q 16.5 51.421875 16.5 36.375 
Q 16.5 21.390625 20.328125 13.890625 
Q 24.171875 6.390625 31.78125 6.390625 
Q 39.453125 6.390625 43.28125 13.890625 
Q 47.125 21.390625 47.125 36.375 
Q 47.125 51.421875 43.28125 58.90625 
Q 39.453125 66.40625 31.78125 66.40625 
z
M 31.78125 74.21875 
Q 44.046875 74.21875 50.515625 64.515625 
Q 56.984375 54.828125 56.984375 36.375 
Q 56.984375 17.96875 50.515625 8.265625 
Q 44.046875 -1.421875 31.78125 -1.421875 
Q 19.53125 -1.421875 13.0625 8.265625 
Q 6.59375 17.96875 6.59375 36.375 
Q 6.59375 54.828125 13.0625 64.515625 
Q 19.53125 74.21875 31.78125 74.21875 
z
" id="DejaVuSans-48"/>
       </defs>
       <use xlink:href="#DejaVuSans-50"/>
       <use x="63.623047" xlink:href="#DejaVuSans-48"/>
      </g>
     </g>
    </g>
    <g id="xtick_7">
     <g id="line2d_13">
      <path clip-path="url(#p7e2d177d3e)" d="M 153.902022 307.584 
L 153.902022 41.472 
" style="fill:none;stroke:#b0b0b0;stroke-dasharray:5.12,1.28,0.8,1.28;stroke-dashoffset:0;stroke-width:0.8;"/>
     </g>
     <g id="line2d_14">
      <g>
       <use style="stroke:#000000;stroke-width:0.8;" x="153.902022" xlink:href="#m128a6da841" y="307.584"/>
      </g>
     </g>
     <g id="text_7">
      <!-- 24 -->
      <g transform="translate(147.539522 322.182437)scale(0.1 -0.1)">
       <use xlink:href="#DejaVuSans-50"/>
       <use x="63.623047" xlink:href="#DejaVuSans-52"/>
      </g>
     </g>
    </g>
    <g id="xtick_8">
     <g id="line2d_15">
      <path clip-path="url(#p7e2d177d3e)" d="M 169.95236 307.584 
L 169.95236 41.472 
" style="fill:none;stroke:#b0b0b0;stroke-dasharray:5.12,1.28,0.8,1.28;stroke-dashoffset:0;stroke-width:0.8;"/>
     </g>
     <g id="line2d_16">
      <g>
       <use style="stroke:#000000;stroke-width:0.8;" x="169.95236" xlink:href="#m128a6da841" y="307.584"/>
      </g>
     </g>
     <g id="text_8">
      <!-- 28 -->
      <g transform="translate(163.58986 322.182437)scale(0.1 -0.1)">
       <use xlink:href="#DejaVuSans-50"/>
       <use x="63.623047" xlink:href="#DejaVuSans-56"/>
      </g>
     </g>
    </g>
    <g id="xtick_9">
     <g id="line2d_17">
      <path clip-path="url(#p7e2d177d3e)" d="M 186.002697 307.584 
L 186.002697 41.472 
" style="fill:none;stroke:#b0b0b0;stroke-dasharray:5.12,1.28,0.8,1.28;stroke-dashoffset:0;stroke-width:0.8;"/>
     </g>
     <g id="line2d_18">
      <g>
       <use style="stroke:#000000;stroke-width:0.8;" x="186.002697" xlink:href="#m128a6da841" y="307.584"/>
      </g>
     </g>
     <g id="text_9">
      <!-- 32 -->
      <g transform="translate(179.640197 322.182437)scale(0.1 -0.1)">
       <defs>
        <path d="M 40.578125 39.3125 
Q 47.65625 37.796875 51.625 33 
Q 55.609375 28.21875 55.609375 21.1875 
Q 55.609375 10.40625 48.1875 4.484375 
Q 40.765625 -1.421875 27.09375 -1.421875 
Q 22.515625 -1.421875 17.65625 -0.515625 
Q 12.796875 0.390625 7.625 2.203125 
L 7.625 11.71875 
Q 11.71875 9.328125 16.59375 8.109375 
Q 21.484375 6.890625 26.8125 6.890625 
Q 36.078125 6.890625 40.9375 10.546875 
Q 45.796875 14.203125 45.796875 21.1875 
Q 45.796875 27.640625 41.28125 31.265625 
Q 36.765625 34.90625 28.71875 34.90625 
L 20.21875 34.90625 
L 20.21875 43.015625 
L 29.109375 43.015625 
Q 36.375 43.015625 40.234375 45.921875 
Q 44.09375 48.828125 44.09375 54.296875 
Q 44.09375 59.90625 40.109375 62.90625 
Q 36.140625 65.921875 28.71875 65.921875 
Q 24.65625 65.921875 20.015625 65.03125 
Q 15.375 64.15625 9.8125 62.3125 
L 9.8125 71.09375 
Q 15.4375 72.65625 20.34375 73.4375 
Q 25.25 74.21875 29.59375 74.21875 
Q 40.828125 74.21875 47.359375 69.109375 
Q 53.90625 64.015625 53.90625 55.328125 
Q 53.90625 49.265625 50.4375 45.09375 
Q 46.96875 40.921875 40.578125 39.3125 
z
" id="DejaVuSans-51"/>
       </defs>
       <use xlink:href="#DejaVuSans-51"/>
       <use x="63.623047" xlink:href="#DejaVuSans-50"/>
      </g>
     </g>
    </g>
    <g id="xtick_10">
     <g id="line2d_19">
      <path clip-path="url(#p7e2d177d3e)" d="M 202.053034 307.584 
L 202.053034 41.472 
" style="fill:none;stroke:#b0b0b0;stroke-dasharray:5.12,1.28,0.8,1.28;stroke-dashoffset:0;stroke-width:0.8;"/>
     </g>
     <g id="line2d_20">
      <g>
       <use style="stroke:#000000;stroke-width:0.8;" x="202.053034" xlink:href="#m128a6da841" y="307.584"/>
      </g>
     </g>
     <g id="text_10">
      <!-- 36 -->
      <g transform="translate(195.690534 322.182437)scale(0.1 -0.1)">
       <use xlink:href="#DejaVuSans-51"/>
       <use x="63.623047" xlink:href="#DejaVuSans-54"/>
      </g>
     </g>
    </g>
    <g id="xtick_11">
     <g id="line2d_21">
      <path clip-path="url(#p7e2d177d3e)" d="M 218.103371 307.584 
L 218.103371 41.472 
" style="fill:none;stroke:#b0b0b0;stroke-dasharray:5.12,1.28,0.8,1.28;stroke-dashoffset:0;stroke-width:0.8;"/>
     </g>
     <g id="line2d_22">
      <g>
       <use style="stroke:#000000;stroke-width:0.8;" x="218.103371" xlink:href="#m128a6da841" y="307.584"/>
      </g>
     </g>
     <g id="text_11">
      <!-- 40 -->
      <g transform="translate(211.740871 322.182437)scale(0.1 -0.1)">
       <use xlink:href="#DejaVuSans-52"/>
       <use x="63.623047" xlink:href="#DejaVuSans-48"/>
      </g>
     </g>
    </g>
    <g id="xtick_12">
     <g id="line2d_23">
      <path clip-path="url(#p7e2d177d3e)" d="M 234.153708 307.584 
L 234.153708 41.472 
" style="fill:none;stroke:#b0b0b0;stroke-dasharray:5.12,1.28,0.8,1.28;stroke-dashoffset:0;stroke-width:0.8;"/>
     </g>
     <g id="line2d_24">
      <g>
       <use style="stroke:#000000;stroke-width:0.8;" x="234.153708" xlink:href="#m128a6da841" y="307.584"/>
      </g>
     </g>
     <g id="text_12">
      <!-- 44 -->
      <g transform="translate(227.791208 322.182437)scale(0.1 -0.1)">
       <use xlink:href="#DejaVuSans-52"/>
       <use x="63.623047" xlink:href="#DejaVuSans-52"/>
      </g>
     </g>
    </g>
    <g id="xtick_13">
     <g id="line2d_25">
      <path clip-path="url(#p7e2d177d3e)" d="M 250.204045 307.584 
L 250.204045 41.472 
" style="fill:none;stroke:#b0b0b0;stroke-dasharray:5.12,1.28,0.8,1.28;stroke-dashoffset:0;stroke-width:0.8;"/>
     </g>
     <g id="line2d_26">
      <g>
       <use style="stroke:#000000;stroke-width:0.8;" x="250.204045" xlink:href="#m128a6da841" y="307.584"/>
      </g>
     </g>
     <g id="text_13">
      <!-- 48 -->
      <g transform="translate(243.841545 322.182437)scale(0.1 -0.1)">
       <use xlink:href="#DejaVuSans-52"/>
       <use x="63.623047" xlink:href="#DejaVuSans-56"/>
      </g>
     </g>
    </g>
    <g id="xtick_14">
     <g id="line2d_27">
      <path clip-path="url(#p7e2d177d3e)" d="M 266.254382 307.584 
L 266.254382 41.472 
" style="fill:none;stroke:#b0b0b0;stroke-dasharray:5.12,1.28,0.8,1.28;stroke-dashoffset:0;stroke-width:0.8;"/>
     </g>
     <g id="line2d_28">
      <g>
       <use style="stroke:#000000;stroke-width:0.8;" x="266.254382" xlink:href="#m128a6da841" y="307.584"/>
      </g>
     </g>
     <g id="text_14">
      <!-- 52 -->
      <g transform="translate(259.891882 322.182437)scale(0.1 -0.1)">
       <defs>
        <path d="M 10.796875 72.90625 
L 49.515625 72.90625 
L 49.515625 64.59375 
L 19.828125 64.59375 
L 19.828125 46.734375 
Q 21.96875 47.46875 24.109375 47.828125 
Q 26.265625 48.1875 28.421875 48.1875 
Q 40.625 48.1875 47.75 41.5 
Q 54.890625 34.8125 54.890625 23.390625 
Q 54.890625 11.625 47.5625 5.09375 
Q 40.234375 -1.421875 26.90625 -1.421875 
Q 22.3125 -1.421875 17.546875 -0.640625 
Q 12.796875 0.140625 7.71875 1.703125 
L 7.71875 11.625 
Q 12.109375 9.234375 16.796875 8.0625 
Q 21.484375 6.890625 26.703125 6.890625 
Q 35.15625 6.890625 40.078125 11.328125 
Q 45.015625 15.765625 45.015625 23.390625 
Q 45.015625 31 40.078125 35.4375 
Q 35.15625 39.890625 26.703125 39.890625 
Q 22.75 39.890625 18.8125 39.015625 
Q 14.890625 38.140625 10.796875 36.28125 
z
" id="DejaVuSans-53"/>
       </defs>
       <use xlink:href="#DejaVuSans-53"/>
       <use x="63.623047" xlink:href="#DejaVuSans-50"/>
      </g>
     </g>
    </g>
    <g id="xtick_15">
     <g id="line2d_29">
      <path clip-path="url(#p7e2d177d3e)" d="M 282.304719 307.584 
L 282.304719 41.472 
" style="fill:none;stroke:#b0b0b0;stroke-dasharray:5.12,1.28,0.8,1.28;stroke-dashoffset:0;stroke-width:0.8;"/>
     </g>
     <g id="line2d_30">
      <g>
       <use style="stroke:#000000;stroke-width:0.8;" x="282.304719" xlink:href="#m128a6da841" y="307.584"/>
      </g>
     </g>
     <g id="text_15">
      <!-- 56 -->
      <g transform="translate(275.942219 322.182437)scale(0.1 -0.1)">
       <use xlink:href="#DejaVuSans-53"/>
       <use x="63.623047" xlink:href="#DejaVuSans-54"/>
      </g>
     </g>
    </g>
    <g id="xtick_16">
     <g id="line2d_31">
      <path clip-path="url(#p7e2d177d3e)" d="M 298.355056 307.584 
L 298.355056 41.472 
" style="fill:none;stroke:#b0b0b0;stroke-dasharray:5.12,1.28,0.8,1.28;stroke-dashoffset:0;stroke-width:0.8;"/>
     </g>
     <g id="line2d_32">
      <g>
       <use style="stroke:#000000;stroke-width:0.8;" x="298.355056" xlink:href="#m128a6da841" y="307.584"/>
      </g>
     </g>
     <g id="text_16">
      <!-- 60 -->
      <g transform="translate(291.992556 322.182437)scale(0.1 -0.1)">
       <use xlink:href="#DejaVuSans-54"/>
       <use x="63.623047" xlink:href="#DejaVuSans-48"/>
      </g>
     </g>
    </g>
    <g id="xtick_17">
     <g id="line2d_33">
      <path clip-path="url(#p7e2d177d3e)" d="M 314.405393 307.584 
L 314.405393 41.472 
" style="fill:none;stroke:#b0b0b0;stroke-dasharray:5.12,1.28,0.8,1.28;stroke-dashoffset:0;stroke-width:0.8;"/>
     </g>
     <g id="line2d_34">
      <g>
       <use style="stroke:#000000;stroke-width:0.8;" x="314.405393" xlink:href="#m128a6da841" y="307.584"/>
      </g>
     </g>
     <g id="text_17">
      <!-- 64 -->
      <g transform="translate(308.042893 322.182437)scale(0.1 -0.1)">
       <use xlink:href="#DejaVuSans-54"/>
       <use x="63.623047" xlink:href="#DejaVuSans-52"/>
      </g>
     </g>
    </g>
    <g id="xtick_18">
     <g id="line2d_35">
      <path clip-path="url(#p7e2d177d3e)" d="M 330.45573 307.584 
L 330.45573 41.472 
" style="fill:none;stroke:#b0b0b0;stroke-dasharray:5.12,1.28,0.8,1.28;stroke-dashoffset:0;stroke-width:0.8;"/>
     </g>
     <g id="line2d_36">
      <g>
       <use style="stroke:#000000;stroke-width:0.8;" x="330.45573" xlink:href="#m128a6da841" y="307.584"/>
      </g>
     </g>
     <g id="text_18">
      <!-- 68 -->
      <g transform="translate(324.09323 322.182437)scale(0.1 -0.1)">
       <use xlink:href="#DejaVuSans-54"/>
       <use x="63.623047" xlink:href="#DejaVuSans-56"/>
      </g>
     </g>
    </g>
    <g id="xtick_19">
     <g id="line2d_37">
      <path clip-path="url(#p7e2d177d3e)" d="M 346.506067 307.584 
L 346.506067 41.472 
" style="fill:none;stroke:#b0b0b0;stroke-dasharray:5.12,1.28,0.8,1.28;stroke-dashoffset:0;stroke-width:0.8;"/>
     </g>
     <g id="line2d_38">
      <g>
       <use style="stroke:#000000;stroke-width:0.8;" x="346.506067" xlink:href="#m128a6da841" y="307.584"/>
      </g>
     </g>
     <g id="text_19">
      <!-- 72 -->
      <g transform="translate(340.143567 322.182437)scale(0.1 -0.1)">
       <defs>
        <path d="M 8.203125 72.90625 
L 55.078125 72.90625 
L 55.078125 68.703125 
L 28.609375 0 
L 18.3125 0 
L 43.21875 64.59375 
L 8.203125 64.59375 
z
" id="DejaVuSans-55"/>
       </defs>
       <use xlink:href="#DejaVuSans-55"/>
       <use x="63.623047" xlink:href="#DejaVuSans-50"/>
      </g>
     </g>
    </g>
    <g id="xtick_20">
     <g id="line2d_39">
      <path clip-path="url(#p7e2d177d3e)" d="M 362.556404 307.584 
L 362.556404 41.472 
" style="fill:none;stroke:#b0b0b0;stroke-dasharray:5.12,1.28,0.8,1.28;stroke-dashoffset:0;stroke-width:0.8;"/>
     </g>
     <g id="line2d_40">
      <g>
       <use style="stroke:#000000;stroke-width:0.8;" x="362.556404" xlink:href="#m128a6da841" y="307.584"/>
      </g>
     </g>
     <g id="text_20">
      <!-- 76 -->
      <g transform="translate(356.193904 322.182437)scale(0.1 -0.1)">
       <use xlink:href="#DejaVuSans-55"/>
       <use x="63.623047" xlink:href="#DejaVuSans-54"/>
      </g>
     </g>
    </g>
    <g id="xtick_21">
     <g id="line2d_41">
      <path clip-path="url(#p7e2d177d3e)" d="M 378.606742 307.584 
L 378.606742 41.472 
" style="fill:none;stroke:#b0b0b0;stroke-dasharray:5.12,1.28,0.8,1.28;stroke-dashoffset:0;stroke-width:0.8;"/>
     </g>
     <g id="line2d_42">
      <g>
       <use style="stroke:#000000;stroke-width:0.8;" x="378.606742" xlink:href="#m128a6da841" y="307.584"/>
      </g>
     </g>
     <g id="text_21">
      <!-- 80 -->
      <g transform="translate(372.244242 322.182437)scale(0.1 -0.1)">
       <use xlink:href="#DejaVuSans-56"/>
       <use x="63.623047" xlink:href="#DejaVuSans-48"/>
      </g>
     </g>
    </g>
    <g id="xtick_22">
     <g id="line2d_43">
      <path clip-path="url(#p7e2d177d3e)" d="M 394.657079 307.584 
L 394.657079 41.472 
" style="fill:none;stroke:#b0b0b0;stroke-dasharray:5.12,1.28,0.8,1.28;stroke-dashoffset:0;stroke-width:0.8;"/>
     </g>
     <g id="line2d_44">
      <g>
       <use style="stroke:#000000;stroke-width:0.8;" x="394.657079" xlink:href="#m128a6da841" y="307.584"/>
      </g>
     </g>
     <g id="text_22">
      <!-- 84 -->
      <g transform="translate(388.294579 322.182437)scale(0.1 -0.1)">
       <use xlink:href="#DejaVuSans-56"/>
       <use x="63.623047" xlink:href="#DejaVuSans-52"/>
      </g>
     </g>
    </g>
    <g id="xtick_23">
     <g id="line2d_45">
      <path clip-path="url(#p7e2d177d3e)" d="M 410.707416 307.584 
L 410.707416 41.472 
" style="fill:none;stroke:#b0b0b0;stroke-dasharray:5.12,1.28,0.8,1.28;stroke-dashoffset:0;stroke-width:0.8;"/>
     </g>
     <g id="line2d_46">
      <g>
       <use style="stroke:#000000;stroke-width:0.8;" x="410.707416" xlink:href="#m128a6da841" y="307.584"/>
      </g>
     </g>
     <g id="text_23">
      <!-- 88 -->
      <g transform="translate(404.344916 322.182437)scale(0.1 -0.1)">
       <use xlink:href="#DejaVuSans-56"/>
       <use x="63.623047" xlink:href="#DejaVuSans-56"/>
      </g>
     </g>
    </g>
    <g id="text_24">
     <!-- threads -->
     <g transform="translate(217.168594 335.860562)scale(0.1 -0.1)">
      <defs>
       <path d="M 18.3125 70.21875 
L 18.3125 54.6875 
L 36.8125 54.6875 
L 36.8125 47.703125 
L 18.3125 47.703125 
L 18.3125 18.015625 
Q 18.3125 11.328125 20.140625 9.421875 
Q 21.96875 7.515625 27.59375 7.515625 
L 36.8125 7.515625 
L 36.8125 0 
L 27.59375 0 
Q 17.1875 0 13.234375 3.875 
Q 9.28125 7.765625 9.28125 18.015625 
L 9.28125 47.703125 
L 2.6875 47.703125 
L 2.6875 54.6875 
L 9.28125 54.6875 
L 9.28125 70.21875 
z
" id="DejaVuSans-116"/>
       <path d="M 54.890625 33.015625 
L 54.890625 0 
L 45.90625 0 
L 45.90625 32.71875 
Q 45.90625 40.484375 42.875 44.328125 
Q 39.84375 48.1875 33.796875 48.1875 
Q 26.515625 48.1875 22.3125 43.546875 
Q 18.109375 38.921875 18.109375 30.90625 
L 18.109375 0 
L 9.078125 0 
L 9.078125 75.984375 
L 18.109375 75.984375 
L 18.109375 46.1875 
Q 21.34375 51.125 25.703125 53.5625 
Q 30.078125 56 35.796875 56 
Q 45.21875 56 50.046875 50.171875 
Q 54.890625 44.34375 54.890625 33.015625 
z
" id="DejaVuSans-104"/>
       <path d="M 41.109375 46.296875 
Q 39.59375 47.171875 37.8125 47.578125 
Q 36.03125 48 33.890625 48 
Q 26.265625 48 22.1875 43.046875 
Q 18.109375 38.09375 18.109375 28.8125 
L 18.109375 0 
L 9.078125 0 
L 9.078125 54.6875 
L 18.109375 54.6875 
L 18.109375 46.1875 
Q 20.953125 51.171875 25.484375 53.578125 
Q 30.03125 56 36.53125 56 
Q 37.453125 56 38.578125 55.875 
Q 39.703125 55.765625 41.0625 55.515625 
z
" id="DejaVuSans-114"/>
       <path d="M 56.203125 29.59375 
L 56.203125 25.203125 
L 14.890625 25.203125 
Q 15.484375 15.921875 20.484375 11.0625 
Q 25.484375 6.203125 34.421875 6.203125 
Q 39.59375 6.203125 44.453125 7.46875 
Q 49.3125 8.734375 54.109375 11.28125 
L 54.109375 2.78125 
Q 49.265625 0.734375 44.1875 -0.34375 
Q 39.109375 -1.421875 33.890625 -1.421875 
Q 20.796875 -1.421875 13.15625 6.1875 
Q 5.515625 13.8125 5.515625 26.8125 
Q 5.515625 40.234375 12.765625 48.109375 
Q 20.015625 56 32.328125 56 
Q 43.359375 56 49.78125 48.890625 
Q 56.203125 41.796875 56.203125 29.59375 
z
M 47.21875 32.234375 
Q 47.125 39.59375 43.09375 43.984375 
Q 39.0625 48.390625 32.421875 48.390625 
Q 24.90625 48.390625 20.390625 44.140625 
Q 15.875 39.890625 15.1875 32.171875 
z
" id="DejaVuSans-101"/>
       <path d="M 34.28125 27.484375 
Q 23.390625 27.484375 19.1875 25 
Q 14.984375 22.515625 14.984375 16.5 
Q 14.984375 11.71875 18.140625 8.90625 
Q 21.296875 6.109375 26.703125 6.109375 
Q 34.1875 6.109375 38.703125 11.40625 
Q 43.21875 16.703125 43.21875 25.484375 
L 43.21875 27.484375 
z
M 52.203125 31.203125 
L 52.203125 0 
L 43.21875 0 
L 43.21875 8.296875 
Q 40.140625 3.328125 35.546875 0.953125 
Q 30.953125 -1.421875 24.3125 -1.421875 
Q 15.921875 -1.421875 10.953125 3.296875 
Q 6 8.015625 6 15.921875 
Q 6 25.140625 12.171875 29.828125 
Q 18.359375 34.515625 30.609375 34.515625 
L 43.21875 34.515625 
L 43.21875 35.40625 
Q 43.21875 41.609375 39.140625 45 
Q 35.0625 48.390625 27.6875 48.390625 
Q 23 48.390625 18.546875 47.265625 
Q 14.109375 46.140625 10.015625 43.890625 
L 10.015625 52.203125 
Q 14.9375 54.109375 19.578125 55.046875 
Q 24.21875 56 28.609375 56 
Q 40.484375 56 46.34375 49.84375 
Q 52.203125 43.703125 52.203125 31.203125 
z
" id="DejaVuSans-97"/>
       <path d="M 45.40625 46.390625 
L 45.40625 75.984375 
L 54.390625 75.984375 
L 54.390625 0 
L 45.40625 0 
L 45.40625 8.203125 
Q 42.578125 3.328125 38.25 0.953125 
Q 33.9375 -1.421875 27.875 -1.421875 
Q 17.96875 -1.421875 11.734375 6.484375 
Q 5.515625 14.40625 5.515625 27.296875 
Q 5.515625 40.1875 11.734375 48.09375 
Q 17.96875 56 27.875 56 
Q 33.9375 56 38.25 53.625 
Q 42.578125 51.265625 45.40625 46.390625 
z
M 14.796875 27.296875 
Q 14.796875 17.390625 18.875 11.75 
Q 22.953125 6.109375 30.078125 6.109375 
Q 37.203125 6.109375 41.296875 11.75 
Q 45.40625 17.390625 45.40625 27.296875 
Q 45.40625 37.203125 41.296875 42.84375 
Q 37.203125 48.484375 30.078125 48.484375 
Q 22.953125 48.484375 18.875 42.84375 
Q 14.796875 37.203125 14.796875 27.296875 
z
" id="DejaVuSans-100"/>
       <path d="M 44.28125 53.078125 
L 44.28125 44.578125 
Q 40.484375 46.53125 36.375 47.5 
Q 32.28125 48.484375 27.875 48.484375 
Q 21.1875 48.484375 17.84375 46.4375 
Q 14.5 44.390625 14.5 40.28125 
Q 14.5 37.15625 16.890625 35.375 
Q 19.28125 33.59375 26.515625 31.984375 
L 29.59375 31.296875 
Q 39.15625 29.25 43.1875 25.515625 
Q 47.21875 21.78125 47.21875 15.09375 
Q 47.21875 7.46875 41.1875 3.015625 
Q 35.15625 -1.421875 24.609375 -1.421875 
Q 20.21875 -1.421875 15.453125 -0.5625 
Q 10.6875 0.296875 5.421875 2 
L 5.421875 11.28125 
Q 10.40625 8.6875 15.234375 7.390625 
Q 20.0625 6.109375 24.8125 6.109375 
Q 31.15625 6.109375 34.5625 8.28125 
Q 37.984375 10.453125 37.984375 14.40625 
Q 37.984375 18.0625 35.515625 20.015625 
Q 33.0625 21.96875 24.703125 23.78125 
L 21.578125 24.515625 
Q 13.234375 26.265625 9.515625 29.90625 
Q 5.8125 33.546875 5.8125 39.890625 
Q 5.8125 47.609375 11.28125 51.796875 
Q 16.75 56 26.8125 56 
Q 31.78125 56 36.171875 55.265625 
Q 40.578125 54.546875 44.28125 53.078125 
z
" id="DejaVuSans-115"/>
      </defs>
      <use xlink:href="#DejaVuSans-116"/>
      <use x="39.208984" xlink:href="#DejaVuSans-104"/>
      <use x="102.587891" xlink:href="#DejaVuSans-114"/>
      <use x="141.451172" xlink:href="#DejaVuSans-101"/>
      <use x="202.974609" xlink:href="#DejaVuSans-97"/>
      <use x="264.253906" xlink:href="#DejaVuSans-100"/>
      <use x="327.730469" xlink:href="#DejaVuSans-115"/>
     </g>
    </g>
   </g>
   <g id="matplotlib.axis_2">
    <g id="ytick_1">
     <g id="line2d_47">
      <path clip-path="url(#p7e2d177d3e)" d="M 57.6 278.635463 
L 414.72 278.635463 
" style="fill:none;stroke:#b0b0b0;stroke-dasharray:5.12,1.28,0.8,1.28;stroke-dashoffset:0;stroke-width:0.8;"/>
     </g>
     <g id="line2d_48">
      <defs>
       <path d="M 0 0 
L -3.5 0 
" id="mbe7627f6f0" style="stroke:#000000;stroke-width:0.8;"/>
      </defs>
      <g>
       <use style="stroke:#000000;stroke-width:0.8;" x="57.6" xlink:href="#mbe7627f6f0" y="278.635463"/>
      </g>
     </g>
     <g id="text_25">
      <!-- 0.1 -->
      <g transform="translate(34.696875 282.434682)scale(0.1 -0.1)">
       <defs>
        <path d="M 10.6875 12.40625 
L 21 12.40625 
L 21 0 
L 10.6875 0 
z
" id="DejaVuSans-46"/>
       </defs>
       <use xlink:href="#DejaVuSans-48"/>
       <use x="63.623047" xlink:href="#DejaVuSans-46"/>
       <use x="95.410156" xlink:href="#DejaVuSans-49"/>
      </g>
     </g>
    </g>
    <g id="ytick_2">
     <g id="line2d_49">
      <path clip-path="url(#p7e2d177d3e)" d="M 57.6 244.806884 
L 414.72 244.806884 
" style="fill:none;stroke:#b0b0b0;stroke-dasharray:5.12,1.28,0.8,1.28;stroke-dashoffset:0;stroke-width:0.8;"/>
     </g>
     <g id="line2d_50">
      <g>
       <use style="stroke:#000000;stroke-width:0.8;" x="57.6" xlink:href="#mbe7627f6f0" y="244.806884"/>
      </g>
     </g>
     <g id="text_26">
      <!-- 0.2 -->
      <g transform="translate(34.696875 248.606102)scale(0.1 -0.1)">
       <use xlink:href="#DejaVuSans-48"/>
       <use x="63.623047" xlink:href="#DejaVuSans-46"/>
       <use x="95.410156" xlink:href="#DejaVuSans-50"/>
      </g>
     </g>
    </g>
    <g id="ytick_3">
     <g id="line2d_51">
      <path clip-path="url(#p7e2d177d3e)" d="M 57.6 210.978304 
L 414.72 210.978304 
" style="fill:none;stroke:#b0b0b0;stroke-dasharray:5.12,1.28,0.8,1.28;stroke-dashoffset:0;stroke-width:0.8;"/>
     </g>
     <g id="line2d_52">
      <g>
       <use style="stroke:#000000;stroke-width:0.8;" x="57.6" xlink:href="#mbe7627f6f0" y="210.978304"/>
      </g>
     </g>
     <g id="text_27">
      <!-- 0.3 -->
      <g transform="translate(34.696875 214.777523)scale(0.1 -0.1)">
       <use xlink:href="#DejaVuSans-48"/>
       <use x="63.623047" xlink:href="#DejaVuSans-46"/>
       <use x="95.410156" xlink:href="#DejaVuSans-51"/>
      </g>
     </g>
    </g>
    <g id="ytick_4">
     <g id="line2d_53">
      <path clip-path="url(#p7e2d177d3e)" d="M 57.6 177.149724 
L 414.72 177.149724 
" style="fill:none;stroke:#b0b0b0;stroke-dasharray:5.12,1.28,0.8,1.28;stroke-dashoffset:0;stroke-width:0.8;"/>
     </g>
     <g id="line2d_54">
      <g>
       <use style="stroke:#000000;stroke-width:0.8;" x="57.6" xlink:href="#mbe7627f6f0" y="177.149724"/>
      </g>
     </g>
     <g id="text_28">
      <!-- 0.4 -->
      <g transform="translate(34.696875 180.948943)scale(0.1 -0.1)">
       <use xlink:href="#DejaVuSans-48"/>
       <use x="63.623047" xlink:href="#DejaVuSans-46"/>
       <use x="95.410156" xlink:href="#DejaVuSans-52"/>
      </g>
     </g>
    </g>
    <g id="ytick_5">
     <g id="line2d_55">
      <path clip-path="url(#p7e2d177d3e)" d="M 57.6 143.321145 
L 414.72 143.321145 
" style="fill:none;stroke:#b0b0b0;stroke-dasharray:5.12,1.28,0.8,1.28;stroke-dashoffset:0;stroke-width:0.8;"/>
     </g>
     <g id="line2d_56">
      <g>
       <use style="stroke:#000000;stroke-width:0.8;" x="57.6" xlink:href="#mbe7627f6f0" y="143.321145"/>
      </g>
     </g>
     <g id="text_29">
      <!-- 0.5 -->
      <g transform="translate(34.696875 147.120363)scale(0.1 -0.1)">
       <use xlink:href="#DejaVuSans-48"/>
       <use x="63.623047" xlink:href="#DejaVuSans-46"/>
       <use x="95.410156" xlink:href="#DejaVuSans-53"/>
      </g>
     </g>
    </g>
    <g id="ytick_6">
     <g id="line2d_57">
      <path clip-path="url(#p7e2d177d3e)" d="M 57.6 109.492565 
L 414.72 109.492565 
" style="fill:none;stroke:#b0b0b0;stroke-dasharray:5.12,1.28,0.8,1.28;stroke-dashoffset:0;stroke-width:0.8;"/>
     </g>
     <g id="line2d_58">
      <g>
       <use style="stroke:#000000;stroke-width:0.8;" x="57.6" xlink:href="#mbe7627f6f0" y="109.492565"/>
      </g>
     </g>
     <g id="text_30">
      <!-- 0.6 -->
      <g transform="translate(34.696875 113.291784)scale(0.1 -0.1)">
       <use xlink:href="#DejaVuSans-48"/>
       <use x="63.623047" xlink:href="#DejaVuSans-46"/>
       <use x="95.410156" xlink:href="#DejaVuSans-54"/>
      </g>
     </g>
    </g>
    <g id="ytick_7">
     <g id="line2d_59">
      <path clip-path="url(#p7e2d177d3e)" d="M 57.6 75.663985 
L 414.72 75.663985 
" style="fill:none;stroke:#b0b0b0;stroke-dasharray:5.12,1.28,0.8,1.28;stroke-dashoffset:0;stroke-width:0.8;"/>
     </g>
     <g id="line2d_60">
      <g>
       <use style="stroke:#000000;stroke-width:0.8;" x="57.6" xlink:href="#mbe7627f6f0" y="75.663985"/>
      </g>
     </g>
     <g id="text_31">
      <!-- 0.7 -->
      <g transform="translate(34.696875 79.463204)scale(0.1 -0.1)">
       <use xlink:href="#DejaVuSans-48"/>
       <use x="63.623047" xlink:href="#DejaVuSans-46"/>
       <use x="95.410156" xlink:href="#DejaVuSans-55"/>
      </g>
     </g>
    </g>
    <g id="ytick_8">
     <g id="line2d_61">
      <path clip-path="url(#p7e2d177d3e)" d="M 57.6 41.835406 
L 414.72 41.835406 
" style="fill:none;stroke:#b0b0b0;stroke-dasharray:5.12,1.28,0.8,1.28;stroke-dashoffset:0;stroke-width:0.8;"/>
     </g>
     <g id="line2d_62">
      <g>
       <use style="stroke:#000000;stroke-width:0.8;" x="57.6" xlink:href="#mbe7627f6f0" y="41.835406"/>
      </g>
     </g>
     <g id="text_32">
      <!-- 0.8 -->
      <g transform="translate(34.696875 45.634624)scale(0.1 -0.1)">
       <use xlink:href="#DejaVuSans-48"/>
       <use x="63.623047" xlink:href="#DejaVuSans-46"/>
       <use x="95.410156" xlink:href="#DejaVuSans-56"/>
      </g>
     </g>
    </g>
    <g id="text_33">
     <!-- duration (s) -->
     <g transform="translate(28.617187 203.663156)rotate(-90)scale(0.1 -0.1)">
      <defs>
       <path d="M 8.5 21.578125 
L 8.5 54.6875 
L 17.484375 54.6875 
L 17.484375 21.921875 
Q 17.484375 14.15625 20.5 10.265625 
Q 23.53125 6.390625 29.59375 6.390625 
Q 36.859375 6.390625 41.078125 11.03125 
Q 45.3125 15.671875 45.3125 23.6875 
L 45.3125 54.6875 
L 54.296875 54.6875 
L 54.296875 0 
L 45.3125 0 
L 45.3125 8.40625 
Q 42.046875 3.421875 37.71875 1 
Q 33.40625 -1.421875 27.6875 -1.421875 
Q 18.265625 -1.421875 13.375 4.4375 
Q 8.5 10.296875 8.5 21.578125 
z
M 31.109375 56 
z
" id="DejaVuSans-117"/>
       <path d="M 9.421875 54.6875 
L 18.40625 54.6875 
L 18.40625 0 
L 9.421875 0 
z
M 9.421875 75.984375 
L 18.40625 75.984375 
L 18.40625 64.59375 
L 9.421875 64.59375 
z
" id="DejaVuSans-105"/>
       <path d="M 30.609375 48.390625 
Q 23.390625 48.390625 19.1875 42.75 
Q 14.984375 37.109375 14.984375 27.296875 
Q 14.984375 17.484375 19.15625 11.84375 
Q 23.34375 6.203125 30.609375 6.203125 
Q 37.796875 6.203125 41.984375 11.859375 
Q 46.1875 17.53125 46.1875 27.296875 
Q 46.1875 37.015625 41.984375 42.703125 
Q 37.796875 48.390625 30.609375 48.390625 
z
M 30.609375 56 
Q 42.328125 56 49.015625 48.375 
Q 55.71875 40.765625 55.71875 27.296875 
Q 55.71875 13.875 49.015625 6.21875 
Q 42.328125 -1.421875 30.609375 -1.421875 
Q 18.84375 -1.421875 12.171875 6.21875 
Q 5.515625 13.875 5.515625 27.296875 
Q 5.515625 40.765625 12.171875 48.375 
Q 18.84375 56 30.609375 56 
z
" id="DejaVuSans-111"/>
       <path d="M 54.890625 33.015625 
L 54.890625 0 
L 45.90625 0 
L 45.90625 32.71875 
Q 45.90625 40.484375 42.875 44.328125 
Q 39.84375 48.1875 33.796875 48.1875 
Q 26.515625 48.1875 22.3125 43.546875 
Q 18.109375 38.921875 18.109375 30.90625 
L 18.109375 0 
L 9.078125 0 
L 9.078125 54.6875 
L 18.109375 54.6875 
L 18.109375 46.1875 
Q 21.34375 51.125 25.703125 53.5625 
Q 30.078125 56 35.796875 56 
Q 45.21875 56 50.046875 50.171875 
Q 54.890625 44.34375 54.890625 33.015625 
z
" id="DejaVuSans-110"/>
       <path id="DejaVuSans-32"/>
       <path d="M 31 75.875 
Q 24.46875 64.65625 21.28125 53.65625 
Q 18.109375 42.671875 18.109375 31.390625 
Q 18.109375 20.125 21.3125 9.0625 
Q 24.515625 -2 31 -13.1875 
L 23.1875 -13.1875 
Q 15.875 -1.703125 12.234375 9.375 
Q 8.59375 20.453125 8.59375 31.390625 
Q 8.59375 42.28125 12.203125 53.3125 
Q 15.828125 64.359375 23.1875 75.875 
z
" id="DejaVuSans-40"/>
       <path d="M 8.015625 75.875 
L 15.828125 75.875 
Q 23.140625 64.359375 26.78125 53.3125 
Q 30.421875 42.28125 30.421875 31.390625 
Q 30.421875 20.453125 26.78125 9.375 
Q 23.140625 -1.703125 15.828125 -13.1875 
L 8.015625 -13.1875 
Q 14.5 -2 17.703125 9.0625 
Q 20.90625 20.125 20.90625 31.390625 
Q 20.90625 42.671875 17.703125 53.65625 
Q 14.5 64.65625 8.015625 75.875 
z
" id="DejaVuSans-41"/>
      </defs>
      <use xlink:href="#DejaVuSans-100"/>
      <use x="63.476562" xlink:href="#DejaVuSans-117"/>
      <use x="126.855469" xlink:href="#DejaVuSans-114"/>
      <use x="167.96875" xlink:href="#DejaVuSans-97"/>
      <use x="229.248047" xlink:href="#DejaVuSans-116"/>
      <use x="268.457031" xlink:href="#DejaVuSans-105"/>
      <use x="296.240234" xlink:href="#DejaVuSans-111"/>
      <use x="357.421875" xlink:href="#DejaVuSans-110"/>
      <use x="420.800781" xlink:href="#DejaVuSans-32"/>
      <use x="452.587891" xlink:href="#DejaVuSans-40"/>
      <use x="491.601562" xlink:href="#DejaVuSans-115"/>
      <use x="543.701172" xlink:href="#DejaVuSans-41"/>
     </g>
    </g>
   </g>
   <g id="line2d_63">
    <path clip-path="url(#p7e2d177d3e)" d="M 61.612584 108.058714 
L 65.625169 209.657087 
L 69.637753 240.868747 
L 73.650337 255.842829 
L 77.662921 267.711723 
L 81.675506 273.479425 
L 85.68809 277.893597 
L 89.700674 281.455734 
L 93.713258 283.952124 
L 97.725843 286.772443 
L 101.738427 287.735643 
L 105.751011 288.503212 
L 109.763596 289.080151 
L 113.77618 289.228081 
L 117.788764 290.202469 
L 121.801348 291.29392 
L 125.813933 292.648002 
L 129.826517 293.070246 
L 133.839101 293.238236 
L 137.851685 293.105642 
L 141.86427 292.215871 
L 145.876854 291.961789 
L 149.889438 292.573466 
L 153.902022 293.589264 
L 157.914607 294.317555 
L 161.927191 293.866355 
L 165.939775 293.920566 
L 169.95236 291.560653 
L 173.964944 292.419326 
L 177.977528 293.120586 
L 181.990112 293.669468 
L 186.002697 293.814668 
L 190.015281 294.122811 
L 194.027865 294.041731 
L 198.040449 294.226808 
L 202.053034 294.390247 
L 206.065618 294.705971 
L 210.078202 294.819439 
L 214.090787 295.00591 
L 218.103371 295.234379 
L 222.115955 295.146236 
L 226.128539 295.178832 
L 230.141124 295.043817 
L 234.153708 294.963878 
L 238.166292 295.222097 
L 242.178876 294.727033 
L 246.191461 295.216094 
L 250.204045 295.368299 
L 254.216629 295.140821 
L 258.229213 295.175375 
L 262.241798 295.096542 
L 266.254382 295.488 
L 270.266966 295.218271 
L 274.279551 294.621976 
L 278.292135 294.451428 
L 282.304719 294.499913 
L 286.317303 293.159634 
L 290.329888 293.233075 
L 294.342472 294.30011 
L 298.355056 294.245082 
L 302.36764 294.390696 
L 306.380225 294.452799 
L 310.392809 294.305526 
L 314.405393 294.321968 
L 318.417978 294.380833 
L 322.430562 293.950016 
L 326.443146 293.973498 
L 330.45573 294.07087 
L 334.468315 294.133411 
L 338.480899 294.579529 
L 342.493483 294.431392 
L 346.506067 294.327706 
L 350.518652 294.478885 
L 354.531236 294.251373 
L 358.54382 294.381501 
L 362.556404 294.744731 
L 366.568989 294.300894 
L 370.581573 294.55024 
L 374.594157 293.985561 
L 378.606742 294.502275 
L 382.619326 294.507344 
L 386.63191 294.209087 
L 390.644494 294.163691 
L 394.657079 293.945108 
L 398.669663 293.495545 
L 402.682247 294.174452 
L 406.694831 294.159958 
L 410.707416 293.020345 
" style="fill:none;stroke:#0000ff;stroke-dasharray:1.5,2.475;stroke-dashoffset:0;stroke-width:1.5;"/>
    <defs>
     <path d="M 0 1.5 
C 0.397805 1.5 0.77937 1.341951 1.06066 1.06066 
C 1.341951 0.77937 1.5 0.397805 1.5 0 
C 1.5 -0.397805 1.341951 -0.77937 1.06066 -1.06066 
C 0.77937 -1.341951 0.397805 -1.5 0 -1.5 
C -0.397805 -1.5 -0.77937 -1.341951 -1.06066 -1.06066 
C -1.341951 -0.77937 -1.5 -0.397805 -1.5 0 
C -1.5 0.397805 -1.341951 0.77937 -1.06066 1.06066 
C -0.77937 1.341951 -0.397805 1.5 0 1.5 
z
" id="m83f3ac0b42" style="stroke:#0000ff;"/>
    </defs>
    <g clip-path="url(#p7e2d177d3e)">
     <use style="fill:#0000ff;stroke:#0000ff;" x="61.612584" xlink:href="#m83f3ac0b42" y="108.058714"/>
     <use style="fill:#0000ff;stroke:#0000ff;" x="65.625169" xlink:href="#m83f3ac0b42" y="209.657087"/>
     <use style="fill:#0000ff;stroke:#0000ff;" x="69.637753" xlink:href="#m83f3ac0b42" y="240.868747"/>
     <use style="fill:#0000ff;stroke:#0000ff;" x="73.650337" xlink:href="#m83f3ac0b42" y="255.842829"/>
     <use style="fill:#0000ff;stroke:#0000ff;" x="77.662921" xlink:href="#m83f3ac0b42" y="267.711723"/>
     <use style="fill:#0000ff;stroke:#0000ff;" x="81.675506" xlink:href="#m83f3ac0b42" y="273.479425"/>
     <use style="fill:#0000ff;stroke:#0000ff;" x="85.68809" xlink:href="#m83f3ac0b42" y="277.893597"/>
     <use style="fill:#0000ff;stroke:#0000ff;" x="89.700674" xlink:href="#m83f3ac0b42" y="281.455734"/>
     <use style="fill:#0000ff;stroke:#0000ff;" x="93.713258" xlink:href="#m83f3ac0b42" y="283.952124"/>
     <use style="fill:#0000ff;stroke:#0000ff;" x="97.725843" xlink:href="#m83f3ac0b42" y="286.772443"/>
     <use style="fill:#0000ff;stroke:#0000ff;" x="101.738427" xlink:href="#m83f3ac0b42" y="287.735643"/>
     <use style="fill:#0000ff;stroke:#0000ff;" x="105.751011" xlink:href="#m83f3ac0b42" y="288.503212"/>
     <use style="fill:#0000ff;stroke:#0000ff;" x="109.763596" xlink:href="#m83f3ac0b42" y="289.080151"/>
     <use style="fill:#0000ff;stroke:#0000ff;" x="113.77618" xlink:href="#m83f3ac0b42" y="289.228081"/>
     <use style="fill:#0000ff;stroke:#0000ff;" x="117.788764" xlink:href="#m83f3ac0b42" y="290.202469"/>
     <use style="fill:#0000ff;stroke:#0000ff;" x="121.801348" xlink:href="#m83f3ac0b42" y="291.29392"/>
     <use style="fill:#0000ff;stroke:#0000ff;" x="125.813933" xlink:href="#m83f3ac0b42" y="292.648002"/>
     <use style="fill:#0000ff;stroke:#0000ff;" x="129.826517" xlink:href="#m83f3ac0b42" y="293.070246"/>
     <use style="fill:#0000ff;stroke:#0000ff;" x="133.839101" xlink:href="#m83f3ac0b42" y="293.238236"/>
     <use style="fill:#0000ff;stroke:#0000ff;" x="137.851685" xlink:href="#m83f3ac0b42" y="293.105642"/>
     <use style="fill:#0000ff;stroke:#0000ff;" x="141.86427" xlink:href="#m83f3ac0b42" y="292.215871"/>
     <use style="fill:#0000ff;stroke:#0000ff;" x="145.876854" xlink:href="#m83f3ac0b42" y="291.961789"/>
     <use style="fill:#0000ff;stroke:#0000ff;" x="149.889438" xlink:href="#m83f3ac0b42" y="292.573466"/>
     <use style="fill:#0000ff;stroke:#0000ff;" x="153.902022" xlink:href="#m83f3ac0b42" y="293.589264"/>
     <use style="fill:#0000ff;stroke:#0000ff;" x="157.914607" xlink:href="#m83f3ac0b42" y="294.317555"/>
     <use style="fill:#0000ff;stroke:#0000ff;" x="161.927191" xlink:href="#m83f3ac0b42" y="293.866355"/>
     <use style="fill:#0000ff;stroke:#0000ff;" x="165.939775" xlink:href="#m83f3ac0b42" y="293.920566"/>
     <use style="fill:#0000ff;stroke:#0000ff;" x="169.95236" xlink:href="#m83f3ac0b42" y="291.560653"/>
     <use style="fill:#0000ff;stroke:#0000ff;" x="173.964944" xlink:href="#m83f3ac0b42" y="292.419326"/>
     <use style="fill:#0000ff;stroke:#0000ff;" x="177.977528" xlink:href="#m83f3ac0b42" y="293.120586"/>
     <use style="fill:#0000ff;stroke:#0000ff;" x="181.990112" xlink:href="#m83f3ac0b42" y="293.669468"/>
     <use style="fill:#0000ff;stroke:#0000ff;" x="186.002697" xlink:href="#m83f3ac0b42" y="293.814668"/>
     <use style="fill:#0000ff;stroke:#0000ff;" x="190.015281" xlink:href="#m83f3ac0b42" y="294.122811"/>
     <use style="fill:#0000ff;stroke:#0000ff;" x="194.027865" xlink:href="#m83f3ac0b42" y="294.041731"/>
     <use style="fill:#0000ff;stroke:#0000ff;" x="198.040449" xlink:href="#m83f3ac0b42" y="294.226808"/>
     <use style="fill:#0000ff;stroke:#0000ff;" x="202.053034" xlink:href="#m83f3ac0b42" y="294.390247"/>
     <use style="fill:#0000ff;stroke:#0000ff;" x="206.065618" xlink:href="#m83f3ac0b42" y="294.705971"/>
     <use style="fill:#0000ff;stroke:#0000ff;" x="210.078202" xlink:href="#m83f3ac0b42" y="294.819439"/>
     <use style="fill:#0000ff;stroke:#0000ff;" x="214.090787" xlink:href="#m83f3ac0b42" y="295.00591"/>
     <use style="fill:#0000ff;stroke:#0000ff;" x="218.103371" xlink:href="#m83f3ac0b42" y="295.234379"/>
     <use style="fill:#0000ff;stroke:#0000ff;" x="222.115955" xlink:href="#m83f3ac0b42" y="295.146236"/>
     <use style="fill:#0000ff;stroke:#0000ff;" x="226.128539" xlink:href="#m83f3ac0b42" y="295.178832"/>
     <use style="fill:#0000ff;stroke:#0000ff;" x="230.141124" xlink:href="#m83f3ac0b42" y="295.043817"/>
     <use style="fill:#0000ff;stroke:#0000ff;" x="234.153708" xlink:href="#m83f3ac0b42" y="294.963878"/>
     <use style="fill:#0000ff;stroke:#0000ff;" x="238.166292" xlink:href="#m83f3ac0b42" y="295.222097"/>
     <use style="fill:#0000ff;stroke:#0000ff;" x="242.178876" xlink:href="#m83f3ac0b42" y="294.727033"/>
     <use style="fill:#0000ff;stroke:#0000ff;" x="246.191461" xlink:href="#m83f3ac0b42" y="295.216094"/>
     <use style="fill:#0000ff;stroke:#0000ff;" x="250.204045" xlink:href="#m83f3ac0b42" y="295.368299"/>
     <use style="fill:#0000ff;stroke:#0000ff;" x="254.216629" xlink:href="#m83f3ac0b42" y="295.140821"/>
     <use style="fill:#0000ff;stroke:#0000ff;" x="258.229213" xlink:href="#m83f3ac0b42" y="295.175375"/>
     <use style="fill:#0000ff;stroke:#0000ff;" x="262.241798" xlink:href="#m83f3ac0b42" y="295.096542"/>
     <use style="fill:#0000ff;stroke:#0000ff;" x="266.254382" xlink:href="#m83f3ac0b42" y="295.488"/>
     <use style="fill:#0000ff;stroke:#0000ff;" x="270.266966" xlink:href="#m83f3ac0b42" y="295.218271"/>
     <use style="fill:#0000ff;stroke:#0000ff;" x="274.279551" xlink:href="#m83f3ac0b42" y="294.621976"/>
     <use style="fill:#0000ff;stroke:#0000ff;" x="278.292135" xlink:href="#m83f3ac0b42" y="294.451428"/>
     <use style="fill:#0000ff;stroke:#0000ff;" x="282.304719" xlink:href="#m83f3ac0b42" y="294.499913"/>
     <use style="fill:#0000ff;stroke:#0000ff;" x="286.317303" xlink:href="#m83f3ac0b42" y="293.159634"/>
     <use style="fill:#0000ff;stroke:#0000ff;" x="290.329888" xlink:href="#m83f3ac0b42" y="293.233075"/>
     <use style="fill:#0000ff;stroke:#0000ff;" x="294.342472" xlink:href="#m83f3ac0b42" y="294.30011"/>
     <use style="fill:#0000ff;stroke:#0000ff;" x="298.355056" xlink:href="#m83f3ac0b42" y="294.245082"/>
     <use style="fill:#0000ff;stroke:#0000ff;" x="302.36764" xlink:href="#m83f3ac0b42" y="294.390696"/>
     <use style="fill:#0000ff;stroke:#0000ff;" x="306.380225" xlink:href="#m83f3ac0b42" y="294.452799"/>
     <use style="fill:#0000ff;stroke:#0000ff;" x="310.392809" xlink:href="#m83f3ac0b42" y="294.305526"/>
     <use style="fill:#0000ff;stroke:#0000ff;" x="314.405393" xlink:href="#m83f3ac0b42" y="294.321968"/>
     <use style="fill:#0000ff;stroke:#0000ff;" x="318.417978" xlink:href="#m83f3ac0b42" y="294.380833"/>
     <use style="fill:#0000ff;stroke:#0000ff;" x="322.430562" xlink:href="#m83f3ac0b42" y="293.950016"/>
     <use style="fill:#0000ff;stroke:#0000ff;" x="326.443146" xlink:href="#m83f3ac0b42" y="293.973498"/>
     <use style="fill:#0000ff;stroke:#0000ff;" x="330.45573" xlink:href="#m83f3ac0b42" y="294.07087"/>
     <use style="fill:#0000ff;stroke:#0000ff;" x="334.468315" xlink:href="#m83f3ac0b42" y="294.133411"/>
     <use style="fill:#0000ff;stroke:#0000ff;" x="338.480899" xlink:href="#m83f3ac0b42" y="294.579529"/>
     <use style="fill:#0000ff;stroke:#0000ff;" x="342.493483" xlink:href="#m83f3ac0b42" y="294.431392"/>
     <use style="fill:#0000ff;stroke:#0000ff;" x="346.506067" xlink:href="#m83f3ac0b42" y="294.327706"/>
     <use style="fill:#0000ff;stroke:#0000ff;" x="350.518652" xlink:href="#m83f3ac0b42" y="294.478885"/>
     <use style="fill:#0000ff;stroke:#0000ff;" x="354.531236" xlink:href="#m83f3ac0b42" y="294.251373"/>
     <use style="fill:#0000ff;stroke:#0000ff;" x="358.54382" xlink:href="#m83f3ac0b42" y="294.381501"/>
     <use style="fill:#0000ff;stroke:#0000ff;" x="362.556404" xlink:href="#m83f3ac0b42" y="294.744731"/>
     <use style="fill:#0000ff;stroke:#0000ff;" x="366.568989" xlink:href="#m83f3ac0b42" y="294.300894"/>
     <use style="fill:#0000ff;stroke:#0000ff;" x="370.581573" xlink:href="#m83f3ac0b42" y="294.55024"/>
     <use style="fill:#0000ff;stroke:#0000ff;" x="374.594157" xlink:href="#m83f3ac0b42" y="293.985561"/>
     <use style="fill:#0000ff;stroke:#0000ff;" x="378.606742" xlink:href="#m83f3ac0b42" y="294.502275"/>
     <use style="fill:#0000ff;stroke:#0000ff;" x="382.619326" xlink:href="#m83f3ac0b42" y="294.507344"/>
     <use style="fill:#0000ff;stroke:#0000ff;" x="386.63191" xlink:href="#m83f3ac0b42" y="294.209087"/>
     <use style="fill:#0000ff;stroke:#0000ff;" x="390.644494" xlink:href="#m83f3ac0b42" y="294.163691"/>
     <use style="fill:#0000ff;stroke:#0000ff;" x="394.657079" xlink:href="#m83f3ac0b42" y="293.945108"/>
     <use style="fill:#0000ff;stroke:#0000ff;" x="398.669663" xlink:href="#m83f3ac0b42" y="293.495545"/>
     <use style="fill:#0000ff;stroke:#0000ff;" x="402.682247" xlink:href="#m83f3ac0b42" y="294.174452"/>
     <use style="fill:#0000ff;stroke:#0000ff;" x="406.694831" xlink:href="#m83f3ac0b42" y="294.159958"/>
     <use style="fill:#0000ff;stroke:#0000ff;" x="410.707416" xlink:href="#m83f3ac0b42" y="293.020345"/>
    </g>
   </g>
   <g id="line2d_64">
    <path clip-path="url(#p7e2d177d3e)" d="M 61.612584 53.568 
L 65.625169 177.849201 
L 69.637753 221.948376 
L 73.650337 242.9786 
L 77.662921 255.569286 
L 81.675506 261.956615 
L 85.68809 267.947912 
L 89.700674 274.789297 
L 93.713258 277.349255 
L 97.725843 281.881032 
L 101.738427 279.738791 
L 105.751011 281.542171 
L 109.763596 280.867239 
L 113.77618 280.246482 
L 117.788764 282.408403 
L 121.801348 281.635418 
L 125.813933 282.644856 
L 129.826517 282.228418 
L 133.839101 282.40081 
L 137.851685 282.737792 
L 141.86427 283.409395 
L 145.876854 281.096779 
L 149.889438 282.532759 
L 153.902022 283.657554 
L 157.914607 283.211021 
L 161.927191 283.747379 
L 165.939775 282.380185 
L 169.95236 279.300312 
L 173.964944 281.040275 
L 177.977528 280.658542 
L 181.990112 280.995778 
L 186.002697 278.813636 
L 190.015281 281.2027 
L 194.027865 279.181785 
L 198.040449 278.476804 
L 202.053034 278.863549 
L 206.065618 282.060451 
L 210.078202 282.831085 
L 214.090787 282.011356 
L 218.103371 278.801895 
L 222.115955 278.963687 
L 226.128539 281.625187 
L 230.141124 279.465836 
L 234.153708 281.176223 
L 238.166292 278.222964 
L 242.178876 280.827465 
L 246.191461 278.212018 
L 250.204045 280.670202 
L 254.216629 281.767103 
L 258.229213 282.779421 
L 262.241798 280.819953 
L 266.254382 279.172418 
L 270.266966 281.55715 
L 274.279551 279.739102 
L 278.292135 279.262831 
L 282.304719 278.666801 
L 286.317303 275.641967 
L 290.329888 278.123875 
L 294.342472 279.484605 
L 298.355056 277.987824 
L 302.36764 277.821251 
L 306.380225 279.936496 
L 310.392809 277.099482 
L 314.405393 278.441765 
L 318.417978 276.714534 
L 322.430562 278.369903 
L 326.443146 274.839118 
L 330.45573 277.058176 
L 334.468315 277.856163 
L 338.480899 277.435531 
L 342.493483 276.220772 
L 346.506067 277.754758 
L 350.518652 274.65373 
L 354.531236 277.414388 
L 358.54382 276.326705 
L 362.556404 276.146294 
L 366.568989 276.369474 
L 370.581573 274.138526 
L 374.594157 276.470868 
L 378.606742 275.391411 
L 382.619326 276.425932 
L 386.63191 275.598276 
L 390.644494 275.577018 
L 394.657079 275.408947 
L 398.669663 276.892617 
L 402.682247 275.134552 
L 406.694831 270.455859 
L 410.707416 271.497247 
" style="fill:none;stroke:#ff0000;stroke-dasharray:1.5,2.475;stroke-dashoffset:0;stroke-width:1.5;"/>
    <defs>
     <path d="M 0 1.5 
C 0.397805 1.5 0.77937 1.341951 1.06066 1.06066 
C 1.341951 0.77937 1.5 0.397805 1.5 0 
C 1.5 -0.397805 1.341951 -0.77937 1.06066 -1.06066 
C 0.77937 -1.341951 0.397805 -1.5 0 -1.5 
C -0.397805 -1.5 -0.77937 -1.341951 -1.06066 -1.06066 
C -1.341951 -0.77937 -1.5 -0.397805 -1.5 0 
C -1.5 0.397805 -1.341951 0.77937 -1.06066 1.06066 
C -0.77937 1.341951 -0.397805 1.5 0 1.5 
z
" id="me73d1dfdfa" style="stroke:#ff0000;"/>
    </defs>
    <g clip-path="url(#p7e2d177d3e)">
     <use style="fill:#ff0000;stroke:#ff0000;" x="61.612584" xlink:href="#me73d1dfdfa" y="53.568"/>
     <use style="fill:#ff0000;stroke:#ff0000;" x="65.625169" xlink:href="#me73d1dfdfa" y="177.849201"/>
     <use style="fill:#ff0000;stroke:#ff0000;" x="69.637753" xlink:href="#me73d1dfdfa" y="221.948376"/>
     <use style="fill:#ff0000;stroke:#ff0000;" x="73.650337" xlink:href="#me73d1dfdfa" y="242.9786"/>
     <use style="fill:#ff0000;stroke:#ff0000;" x="77.662921" xlink:href="#me73d1dfdfa" y="255.569286"/>
     <use style="fill:#ff0000;stroke:#ff0000;" x="81.675506" xlink:href="#me73d1dfdfa" y="261.956615"/>
     <use style="fill:#ff0000;stroke:#ff0000;" x="85.68809" xlink:href="#me73d1dfdfa" y="267.947912"/>
     <use style="fill:#ff0000;stroke:#ff0000;" x="89.700674" xlink:href="#me73d1dfdfa" y="274.789297"/>
     <use style="fill:#ff0000;stroke:#ff0000;" x="93.713258" xlink:href="#me73d1dfdfa" y="277.349255"/>
     <use style="fill:#ff0000;stroke:#ff0000;" x="97.725843" xlink:href="#me73d1dfdfa" y="281.881032"/>
     <use style="fill:#ff0000;stroke:#ff0000;" x="101.738427" xlink:href="#me73d1dfdfa" y="279.738791"/>
     <use style="fill:#ff0000;stroke:#ff0000;" x="105.751011" xlink:href="#me73d1dfdfa" y="281.542171"/>
     <use style="fill:#ff0000;stroke:#ff0000;" x="109.763596" xlink:href="#me73d1dfdfa" y="280.867239"/>
     <use style="fill:#ff0000;stroke:#ff0000;" x="113.77618" xlink:href="#me73d1dfdfa" y="280.246482"/>
     <use style="fill:#ff0000;stroke:#ff0000;" x="117.788764" xlink:href="#me73d1dfdfa" y="282.408403"/>
     <use style="fill:#ff0000;stroke:#ff0000;" x="121.801348" xlink:href="#me73d1dfdfa" y="281.635418"/>
     <use style="fill:#ff0000;stroke:#ff0000;" x="125.813933" xlink:href="#me73d1dfdfa" y="282.644856"/>
     <use style="fill:#ff0000;stroke:#ff0000;" x="129.826517" xlink:href="#me73d1dfdfa" y="282.228418"/>
     <use style="fill:#ff0000;stroke:#ff0000;" x="133.839101" xlink:href="#me73d1dfdfa" y="282.40081"/>
     <use style="fill:#ff0000;stroke:#ff0000;" x="137.851685" xlink:href="#me73d1dfdfa" y="282.737792"/>
     <use style="fill:#ff0000;stroke:#ff0000;" x="141.86427" xlink:href="#me73d1dfdfa" y="283.409395"/>
     <use style="fill:#ff0000;stroke:#ff0000;" x="145.876854" xlink:href="#me73d1dfdfa" y="281.096779"/>
     <use style="fill:#ff0000;stroke:#ff0000;" x="149.889438" xlink:href="#me73d1dfdfa" y="282.532759"/>
     <use style="fill:#ff0000;stroke:#ff0000;" x="153.902022" xlink:href="#me73d1dfdfa" y="283.657554"/>
     <use style="fill:#ff0000;stroke:#ff0000;" x="157.914607" xlink:href="#me73d1dfdfa" y="283.211021"/>
     <use style="fill:#ff0000;stroke:#ff0000;" x="161.927191" xlink:href="#me73d1dfdfa" y="283.747379"/>
     <use style="fill:#ff0000;stroke:#ff0000;" x="165.939775" xlink:href="#me73d1dfdfa" y="282.380185"/>
     <use style="fill:#ff0000;stroke:#ff0000;" x="169.95236" xlink:href="#me73d1dfdfa" y="279.300312"/>
     <use style="fill:#ff0000;stroke:#ff0000;" x="173.964944" xlink:href="#me73d1dfdfa" y="281.040275"/>
     <use style="fill:#ff0000;stroke:#ff0000;" x="177.977528" xlink:href="#me73d1dfdfa" y="280.658542"/>
     <use style="fill:#ff0000;stroke:#ff0000;" x="181.990112" xlink:href="#me73d1dfdfa" y="280.995778"/>
     <use style="fill:#ff0000;stroke:#ff0000;" x="186.002697" xlink:href="#me73d1dfdfa" y="278.813636"/>
     <use style="fill:#ff0000;stroke:#ff0000;" x="190.015281" xlink:href="#me73d1dfdfa" y="281.2027"/>
     <use style="fill:#ff0000;stroke:#ff0000;" x="194.027865" xlink:href="#me73d1dfdfa" y="279.181785"/>
     <use style="fill:#ff0000;stroke:#ff0000;" x="198.040449" xlink:href="#me73d1dfdfa" y="278.476804"/>
     <use style="fill:#ff0000;stroke:#ff0000;" x="202.053034" xlink:href="#me73d1dfdfa" y="278.863549"/>
     <use style="fill:#ff0000;stroke:#ff0000;" x="206.065618" xlink:href="#me73d1dfdfa" y="282.060451"/>
     <use style="fill:#ff0000;stroke:#ff0000;" x="210.078202" xlink:href="#me73d1dfdfa" y="282.831085"/>
     <use style="fill:#ff0000;stroke:#ff0000;" x="214.090787" xlink:href="#me73d1dfdfa" y="282.011356"/>
     <use style="fill:#ff0000;stroke:#ff0000;" x="218.103371" xlink:href="#me73d1dfdfa" y="278.801895"/>
     <use style="fill:#ff0000;stroke:#ff0000;" x="222.115955" xlink:href="#me73d1dfdfa" y="278.963687"/>
     <use style="fill:#ff0000;stroke:#ff0000;" x="226.128539" xlink:href="#me73d1dfdfa" y="281.625187"/>
     <use style="fill:#ff0000;stroke:#ff0000;" x="230.141124" xlink:href="#me73d1dfdfa" y="279.465836"/>
     <use style="fill:#ff0000;stroke:#ff0000;" x="234.153708" xlink:href="#me73d1dfdfa" y="281.176223"/>
     <use style="fill:#ff0000;stroke:#ff0000;" x="238.166292" xlink:href="#me73d1dfdfa" y="278.222964"/>
     <use style="fill:#ff0000;stroke:#ff0000;" x="242.178876" xlink:href="#me73d1dfdfa" y="280.827465"/>
     <use style="fill:#ff0000;stroke:#ff0000;" x="246.191461" xlink:href="#me73d1dfdfa" y="278.212018"/>
     <use style="fill:#ff0000;stroke:#ff0000;" x="250.204045" xlink:href="#me73d1dfdfa" y="280.670202"/>
     <use style="fill:#ff0000;stroke:#ff0000;" x="254.216629" xlink:href="#me73d1dfdfa" y="281.767103"/>
     <use style="fill:#ff0000;stroke:#ff0000;" x="258.229213" xlink:href="#me73d1dfdfa" y="282.779421"/>
     <use style="fill:#ff0000;stroke:#ff0000;" x="262.241798" xlink:href="#me73d1dfdfa" y="280.819953"/>
     <use style="fill:#ff0000;stroke:#ff0000;" x="266.254382" xlink:href="#me73d1dfdfa" y="279.172418"/>
     <use style="fill:#ff0000;stroke:#ff0000;" x="270.266966" xlink:href="#me73d1dfdfa" y="281.55715"/>
     <use style="fill:#ff0000;stroke:#ff0000;" x="274.279551" xlink:href="#me73d1dfdfa" y="279.739102"/>
     <use style="fill:#ff0000;stroke:#ff0000;" x="278.292135" xlink:href="#me73d1dfdfa" y="279.262831"/>
     <use style="fill:#ff0000;stroke:#ff0000;" x="282.304719" xlink:href="#me73d1dfdfa" y="278.666801"/>
     <use style="fill:#ff0000;stroke:#ff0000;" x="286.317303" xlink:href="#me73d1dfdfa" y="275.641967"/>
     <use style="fill:#ff0000;stroke:#ff0000;" x="290.329888" xlink:href="#me73d1dfdfa" y="278.123875"/>
     <use style="fill:#ff0000;stroke:#ff0000;" x="294.342472" xlink:href="#me73d1dfdfa" y="279.484605"/>
     <use style="fill:#ff0000;stroke:#ff0000;" x="298.355056" xlink:href="#me73d1dfdfa" y="277.987824"/>
     <use style="fill:#ff0000;stroke:#ff0000;" x="302.36764" xlink:href="#me73d1dfdfa" y="277.821251"/>
     <use style="fill:#ff0000;stroke:#ff0000;" x="306.380225" xlink:href="#me73d1dfdfa" y="279.936496"/>
     <use style="fill:#ff0000;stroke:#ff0000;" x="310.392809" xlink:href="#me73d1dfdfa" y="277.099482"/>
     <use style="fill:#ff0000;stroke:#ff0000;" x="314.405393" xlink:href="#me73d1dfdfa" y="278.441765"/>
     <use style="fill:#ff0000;stroke:#ff0000;" x="318.417978" xlink:href="#me73d1dfdfa" y="276.714534"/>
     <use style="fill:#ff0000;stroke:#ff0000;" x="322.430562" xlink:href="#me73d1dfdfa" y="278.369903"/>
     <use style="fill:#ff0000;stroke:#ff0000;" x="326.443146" xlink:href="#me73d1dfdfa" y="274.839118"/>
     <use style="fill:#ff0000;stroke:#ff0000;" x="330.45573" xlink:href="#me73d1dfdfa" y="277.058176"/>
     <use style="fill:#ff0000;stroke:#ff0000;" x="334.468315" xlink:href="#me73d1dfdfa" y="277.856163"/>
     <use style="fill:#ff0000;stroke:#ff0000;" x="338.480899" xlink:href="#me73d1dfdfa" y="277.435531"/>
     <use style="fill:#ff0000;stroke:#ff0000;" x="342.493483" xlink:href="#me73d1dfdfa" y="276.220772"/>
     <use style="fill:#ff0000;stroke:#ff0000;" x="346.506067" xlink:href="#me73d1dfdfa" y="277.754758"/>
     <use style="fill:#ff0000;stroke:#ff0000;" x="350.518652" xlink:href="#me73d1dfdfa" y="274.65373"/>
     <use style="fill:#ff0000;stroke:#ff0000;" x="354.531236" xlink:href="#me73d1dfdfa" y="277.414388"/>
     <use style="fill:#ff0000;stroke:#ff0000;" x="358.54382" xlink:href="#me73d1dfdfa" y="276.326705"/>
     <use style="fill:#ff0000;stroke:#ff0000;" x="362.556404" xlink:href="#me73d1dfdfa" y="276.146294"/>
     <use style="fill:#ff0000;stroke:#ff0000;" x="366.568989" xlink:href="#me73d1dfdfa" y="276.369474"/>
     <use style="fill:#ff0000;stroke:#ff0000;" x="370.581573" xlink:href="#me73d1dfdfa" y="274.138526"/>
     <use style="fill:#ff0000;stroke:#ff0000;" x="374.594157" xlink:href="#me73d1dfdfa" y="276.470868"/>
     <use style="fill:#ff0000;stroke:#ff0000;" x="378.606742" xlink:href="#me73d1dfdfa" y="275.391411"/>
     <use style="fill:#ff0000;stroke:#ff0000;" x="382.619326" xlink:href="#me73d1dfdfa" y="276.425932"/>
     <use style="fill:#ff0000;stroke:#ff0000;" x="386.63191" xlink:href="#me73d1dfdfa" y="275.598276"/>
     <use style="fill:#ff0000;stroke:#ff0000;" x="390.644494" xlink:href="#me73d1dfdfa" y="275.577018"/>
     <use style="fill:#ff0000;stroke:#ff0000;" x="394.657079" xlink:href="#me73d1dfdfa" y="275.408947"/>
     <use style="fill:#ff0000;stroke:#ff0000;" x="398.669663" xlink:href="#me73d1dfdfa" y="276.892617"/>
     <use style="fill:#ff0000;stroke:#ff0000;" x="402.682247" xlink:href="#me73d1dfdfa" y="275.134552"/>
     <use style="fill:#ff0000;stroke:#ff0000;" x="406.694831" xlink:href="#me73d1dfdfa" y="270.455859"/>
     <use style="fill:#ff0000;stroke:#ff0000;" x="410.707416" xlink:href="#me73d1dfdfa" y="271.497247"/>
    </g>
   </g>
   <g id="line2d_65">
    <path clip-path="url(#p7e2d177d3e)" d="M 61.612584 80.813357 
L 65.625169 193.753144 
L 69.637753 231.408561 
L 73.650337 249.410714 
L 77.662921 261.640505 
L 81.675506 267.71802 
L 85.68809 272.920754 
L 89.700674 278.122515 
L 93.713258 280.650689 
L 97.725843 284.326737 
L 101.738427 283.737217 
L 105.751011 285.022692 
L 109.763596 284.973695 
L 113.77618 284.737282 
L 117.788764 286.305436 
L 121.801348 286.464669 
L 125.813933 287.646429 
L 129.826517 287.649332 
L 133.839101 287.819523 
L 137.851685 287.921717 
L 141.86427 287.812633 
L 145.876854 286.529284 
L 149.889438 287.553113 
L 153.902022 288.623409 
L 157.914607 288.764288 
L 161.927191 288.806867 
L 165.939775 288.150376 
L 169.95236 285.430482 
L 173.964944 286.7298 
L 177.977528 286.889564 
L 181.990112 287.332623 
L 186.002697 286.314152 
L 190.015281 287.662755 
L 194.027865 286.611758 
L 198.040449 286.351806 
L 202.053034 286.626898 
L 206.065618 288.383211 
L 210.078202 288.825262 
L 214.090787 288.508633 
L 218.103371 287.018137 
L 222.115955 287.054961 
L 226.128539 288.402009 
L 230.141124 287.254827 
L 234.153708 288.07005 
L 238.166292 286.72253 
L 242.178876 287.777249 
L 246.191461 286.714056 
L 250.204045 288.01925 
L 254.216629 288.453962 
L 258.229213 288.977398 
L 262.241798 287.958247 
L 266.254382 287.330209 
L 270.266966 288.387711 
L 274.279551 287.180539 
L 278.292135 286.857129 
L 282.304719 286.583357 
L 286.317303 284.4008 
L 290.329888 285.678475 
L 294.342472 286.892358 
L 298.355056 286.116453 
L 302.36764 286.105974 
L 306.380225 287.194648 
L 310.392809 285.702504 
L 314.405393 286.381867 
L 318.417978 285.547683 
L 322.430562 286.15996 
L 326.443146 284.406308 
L 330.45573 285.564523 
L 334.468315 285.994787 
L 338.480899 286.00753 
L 342.493483 285.326082 
L 346.506067 286.041232 
L 350.518652 284.566307 
L 354.531236 285.83288 
L 358.54382 285.354103 
L 362.556404 285.445513 
L 366.568989 285.335184 
L 370.581573 284.344383 
L 374.594157 285.228214 
L 378.606742 284.946843 
L 382.619326 285.466638 
L 386.63191 284.903682 
L 390.644494 284.870354 
L 394.657079 284.677028 
L 398.669663 285.194081 
L 402.682247 284.654502 
L 406.694831 282.307908 
L 410.707416 282.258796 
" style="fill:none;stroke:#008000;stroke-dasharray:1.5,2.475;stroke-dashoffset:0;stroke-width:1.5;"/>
    <defs>
     <path d="M 0 1.5 
C 0.397805 1.5 0.77937 1.341951 1.06066 1.06066 
C 1.341951 0.77937 1.5 0.397805 1.5 0 
C 1.5 -0.397805 1.341951 -0.77937 1.06066 -1.06066 
C 0.77937 -1.341951 0.397805 -1.5 0 -1.5 
C -0.397805 -1.5 -0.77937 -1.341951 -1.06066 -1.06066 
C -1.341951 -0.77937 -1.5 -0.397805 -1.5 0 
C -1.5 0.397805 -1.341951 0.77937 -1.06066 1.06066 
C -0.77937 1.341951 -0.397805 1.5 0 1.5 
z
" id="mb031ceed13" style="stroke:#008000;"/>
    </defs>
    <g clip-path="url(#p7e2d177d3e)">
     <use style="fill:#008000;stroke:#008000;" x="61.612584" xlink:href="#mb031ceed13" y="80.813357"/>
     <use style="fill:#008000;stroke:#008000;" x="65.625169" xlink:href="#mb031ceed13" y="193.753144"/>
     <use style="fill:#008000;stroke:#008000;" x="69.637753" xlink:href="#mb031ceed13" y="231.408561"/>
     <use style="fill:#008000;stroke:#008000;" x="73.650337" xlink:href="#mb031ceed13" y="249.410714"/>
     <use style="fill:#008000;stroke:#008000;" x="77.662921" xlink:href="#mb031ceed13" y="261.640505"/>
     <use style="fill:#008000;stroke:#008000;" x="81.675506" xlink:href="#mb031ceed13" y="267.71802"/>
     <use style="fill:#008000;stroke:#008000;" x="85.68809" xlink:href="#mb031ceed13" y="272.920754"/>
     <use style="fill:#008000;stroke:#008000;" x="89.700674" xlink:href="#mb031ceed13" y="278.122515"/>
     <use style="fill:#008000;stroke:#008000;" x="93.713258" xlink:href="#mb031ceed13" y="280.650689"/>
     <use style="fill:#008000;stroke:#008000;" x="97.725843" xlink:href="#mb031ceed13" y="284.326737"/>
     <use style="fill:#008000;stroke:#008000;" x="101.738427" xlink:href="#mb031ceed13" y="283.737217"/>
     <use style="fill:#008000;stroke:#008000;" x="105.751011" xlink:href="#mb031ceed13" y="285.022692"/>
     <use style="fill:#008000;stroke:#008000;" x="109.763596" xlink:href="#mb031ceed13" y="284.973695"/>
     <use style="fill:#008000;stroke:#008000;" x="113.77618" xlink:href="#mb031ceed13" y="284.737282"/>
     <use style="fill:#008000;stroke:#008000;" x="117.788764" xlink:href="#mb031ceed13" y="286.305436"/>
     <use style="fill:#008000;stroke:#008000;" x="121.801348" xlink:href="#mb031ceed13" y="286.464669"/>
     <use style="fill:#008000;stroke:#008000;" x="125.813933" xlink:href="#mb031ceed13" y="287.646429"/>
     <use style="fill:#008000;stroke:#008000;" x="129.826517" xlink:href="#mb031ceed13" y="287.649332"/>
     <use style="fill:#008000;stroke:#008000;" x="133.839101" xlink:href="#mb031ceed13" y="287.819523"/>
     <use style="fill:#008000;stroke:#008000;" x="137.851685" xlink:href="#mb031ceed13" y="287.921717"/>
     <use style="fill:#008000;stroke:#008000;" x="141.86427" xlink:href="#mb031ceed13" y="287.812633"/>
     <use style="fill:#008000;stroke:#008000;" x="145.876854" xlink:href="#mb031ceed13" y="286.529284"/>
     <use style="fill:#008000;stroke:#008000;" x="149.889438" xlink:href="#mb031ceed13" y="287.553113"/>
     <use style="fill:#008000;stroke:#008000;" x="153.902022" xlink:href="#mb031ceed13" y="288.623409"/>
     <use style="fill:#008000;stroke:#008000;" x="157.914607" xlink:href="#mb031ceed13" y="288.764288"/>
     <use style="fill:#008000;stroke:#008000;" x="161.927191" xlink:href="#mb031ceed13" y="288.806867"/>
     <use style="fill:#008000;stroke:#008000;" x="165.939775" xlink:href="#mb031ceed13" y="288.150376"/>
     <use style="fill:#008000;stroke:#008000;" x="169.95236" xlink:href="#mb031ceed13" y="285.430482"/>
     <use style="fill:#008000;stroke:#008000;" x="173.964944" xlink:href="#mb031ceed13" y="286.7298"/>
     <use style="fill:#008000;stroke:#008000;" x="177.977528" xlink:href="#mb031ceed13" y="286.889564"/>
     <use style="fill:#008000;stroke:#008000;" x="181.990112" xlink:href="#mb031ceed13" y="287.332623"/>
     <use style="fill:#008000;stroke:#008000;" x="186.002697" xlink:href="#mb031ceed13" y="286.314152"/>
     <use style="fill:#008000;stroke:#008000;" x="190.015281" xlink:href="#mb031ceed13" y="287.662755"/>
     <use style="fill:#008000;stroke:#008000;" x="194.027865" xlink:href="#mb031ceed13" y="286.611758"/>
     <use style="fill:#008000;stroke:#008000;" x="198.040449" xlink:href="#mb031ceed13" y="286.351806"/>
     <use style="fill:#008000;stroke:#008000;" x="202.053034" xlink:href="#mb031ceed13" y="286.626898"/>
     <use style="fill:#008000;stroke:#008000;" x="206.065618" xlink:href="#mb031ceed13" y="288.383211"/>
     <use style="fill:#008000;stroke:#008000;" x="210.078202" xlink:href="#mb031ceed13" y="288.825262"/>
     <use style="fill:#008000;stroke:#008000;" x="214.090787" xlink:href="#mb031ceed13" y="288.508633"/>
     <use style="fill:#008000;stroke:#008000;" x="218.103371" xlink:href="#mb031ceed13" y="287.018137"/>
     <use style="fill:#008000;stroke:#008000;" x="222.115955" xlink:href="#mb031ceed13" y="287.054961"/>
     <use style="fill:#008000;stroke:#008000;" x="226.128539" xlink:href="#mb031ceed13" y="288.402009"/>
     <use style="fill:#008000;stroke:#008000;" x="230.141124" xlink:href="#mb031ceed13" y="287.254827"/>
     <use style="fill:#008000;stroke:#008000;" x="234.153708" xlink:href="#mb031ceed13" y="288.07005"/>
     <use style="fill:#008000;stroke:#008000;" x="238.166292" xlink:href="#mb031ceed13" y="286.72253"/>
     <use style="fill:#008000;stroke:#008000;" x="242.178876" xlink:href="#mb031ceed13" y="287.777249"/>
     <use style="fill:#008000;stroke:#008000;" x="246.191461" xlink:href="#mb031ceed13" y="286.714056"/>
     <use style="fill:#008000;stroke:#008000;" x="250.204045" xlink:href="#mb031ceed13" y="288.01925"/>
     <use style="fill:#008000;stroke:#008000;" x="254.216629" xlink:href="#mb031ceed13" y="288.453962"/>
     <use style="fill:#008000;stroke:#008000;" x="258.229213" xlink:href="#mb031ceed13" y="288.977398"/>
     <use style="fill:#008000;stroke:#008000;" x="262.241798" xlink:href="#mb031ceed13" y="287.958247"/>
     <use style="fill:#008000;stroke:#008000;" x="266.254382" xlink:href="#mb031ceed13" y="287.330209"/>
     <use style="fill:#008000;stroke:#008000;" x="270.266966" xlink:href="#mb031ceed13" y="288.387711"/>
     <use style="fill:#008000;stroke:#008000;" x="274.279551" xlink:href="#mb031ceed13" y="287.180539"/>
     <use style="fill:#008000;stroke:#008000;" x="278.292135" xlink:href="#mb031ceed13" y="286.857129"/>
     <use style="fill:#008000;stroke:#008000;" x="282.304719" xlink:href="#mb031ceed13" y="286.583357"/>
     <use style="fill:#008000;stroke:#008000;" x="286.317303" xlink:href="#mb031ceed13" y="284.4008"/>
     <use style="fill:#008000;stroke:#008000;" x="290.329888" xlink:href="#mb031ceed13" y="285.678475"/>
     <use style="fill:#008000;stroke:#008000;" x="294.342472" xlink:href="#mb031ceed13" y="286.892358"/>
     <use style="fill:#008000;stroke:#008000;" x="298.355056" xlink:href="#mb031ceed13" y="286.116453"/>
     <use style="fill:#008000;stroke:#008000;" x="302.36764" xlink:href="#mb031ceed13" y="286.105974"/>
     <use style="fill:#008000;stroke:#008000;" x="306.380225" xlink:href="#mb031ceed13" y="287.194648"/>
     <use style="fill:#008000;stroke:#008000;" x="310.392809" xlink:href="#mb031ceed13" y="285.702504"/>
     <use style="fill:#008000;stroke:#008000;" x="314.405393" xlink:href="#mb031ceed13" y="286.381867"/>
     <use style="fill:#008000;stroke:#008000;" x="318.417978" xlink:href="#mb031ceed13" y="285.547683"/>
     <use style="fill:#008000;stroke:#008000;" x="322.430562" xlink:href="#mb031ceed13" y="286.15996"/>
     <use style="fill:#008000;stroke:#008000;" x="326.443146" xlink:href="#mb031ceed13" y="284.406308"/>
     <use style="fill:#008000;stroke:#008000;" x="330.45573" xlink:href="#mb031ceed13" y="285.564523"/>
     <use style="fill:#008000;stroke:#008000;" x="334.468315" xlink:href="#mb031ceed13" y="285.994787"/>
     <use style="fill:#008000;stroke:#008000;" x="338.480899" xlink:href="#mb031ceed13" y="286.00753"/>
     <use style="fill:#008000;stroke:#008000;" x="342.493483" xlink:href="#mb031ceed13" y="285.326082"/>
     <use style="fill:#008000;stroke:#008000;" x="346.506067" xlink:href="#mb031ceed13" y="286.041232"/>
     <use style="fill:#008000;stroke:#008000;" x="350.518652" xlink:href="#mb031ceed13" y="284.566307"/>
     <use style="fill:#008000;stroke:#008000;" x="354.531236" xlink:href="#mb031ceed13" y="285.83288"/>
     <use style="fill:#008000;stroke:#008000;" x="358.54382" xlink:href="#mb031ceed13" y="285.354103"/>
     <use style="fill:#008000;stroke:#008000;" x="362.556404" xlink:href="#mb031ceed13" y="285.445513"/>
     <use style="fill:#008000;stroke:#008000;" x="366.568989" xlink:href="#mb031ceed13" y="285.335184"/>
     <use style="fill:#008000;stroke:#008000;" x="370.581573" xlink:href="#mb031ceed13" y="284.344383"/>
     <use style="fill:#008000;stroke:#008000;" x="374.594157" xlink:href="#mb031ceed13" y="285.228214"/>
     <use style="fill:#008000;stroke:#008000;" x="378.606742" xlink:href="#mb031ceed13" y="284.946843"/>
     <use style="fill:#008000;stroke:#008000;" x="382.619326" xlink:href="#mb031ceed13" y="285.466638"/>
     <use style="fill:#008000;stroke:#008000;" x="386.63191" xlink:href="#mb031ceed13" y="284.903682"/>
     <use style="fill:#008000;stroke:#008000;" x="390.644494" xlink:href="#mb031ceed13" y="284.870354"/>
     <use style="fill:#008000;stroke:#008000;" x="394.657079" xlink:href="#mb031ceed13" y="284.677028"/>
     <use style="fill:#008000;stroke:#008000;" x="398.669663" xlink:href="#mb031ceed13" y="285.194081"/>
     <use style="fill:#008000;stroke:#008000;" x="402.682247" xlink:href="#mb031ceed13" y="284.654502"/>
     <use style="fill:#008000;stroke:#008000;" x="406.694831" xlink:href="#mb031ceed13" y="282.307908"/>
     <use style="fill:#008000;stroke:#008000;" x="410.707416" xlink:href="#mb031ceed13" y="282.258796"/>
    </g>
   </g>
   <g id="patch_3">
    <path d="M 57.6 307.584 
L 57.6 41.472 
" style="fill:none;stroke:#000000;stroke-linecap:square;stroke-linejoin:miter;stroke-width:0.8;"/>
   </g>
   <g id="patch_4">
    <path d="M 414.72 307.584 
L 414.72 41.472 
" style="fill:none;stroke:#000000;stroke-linecap:square;stroke-linejoin:miter;stroke-width:0.8;"/>
   </g>
   <g id="patch_5">
    <path d="M 57.6 307.584 
L 414.72 307.584 
" style="fill:none;stroke:#000000;stroke-linecap:square;stroke-linejoin:miter;stroke-width:0.8;"/>
   </g>
   <g id="patch_6">
    <path d="M 57.6 41.472 
L 414.72 41.472 
" style="fill:none;stroke:#000000;stroke-linecap:square;stroke-linejoin:miter;stroke-width:0.8;"/>
   </g>
   <g id="text_34">
    <!-- radix sort 6 on pre_transpose41 -->
    <g transform="translate(140.265938 35.472)scale(0.12 -0.12)">
     <defs>
      <path d="M 54.890625 54.6875 
L 35.109375 28.078125 
L 55.90625 0 
L 45.3125 0 
L 29.390625 21.484375 
L 13.484375 0 
L 2.875 0 
L 24.125 28.609375 
L 4.6875 54.6875 
L 15.28125 54.6875 
L 29.78125 35.203125 
L 44.28125 54.6875 
z
" id="DejaVuSans-120"/>
      <path d="M 18.109375 8.203125 
L 18.109375 -20.796875 
L 9.078125 -20.796875 
L 9.078125 54.6875 
L 18.109375 54.6875 
L 18.109375 46.390625 
Q 20.953125 51.265625 25.265625 53.625 
Q 29.59375 56 35.59375 56 
Q 45.5625 56 51.78125 48.09375 
Q 58.015625 40.1875 58.015625 27.296875 
Q 58.015625 14.40625 51.78125 6.484375 
Q 45.5625 -1.421875 35.59375 -1.421875 
Q 29.59375 -1.421875 25.265625 0.953125 
Q 20.953125 3.328125 18.109375 8.203125 
z
M 48.6875 27.296875 
Q 48.6875 37.203125 44.609375 42.84375 
Q 40.53125 48.484375 33.40625 48.484375 
Q 26.265625 48.484375 22.1875 42.84375 
Q 18.109375 37.203125 18.109375 27.296875 
Q 18.109375 17.390625 22.1875 11.75 
Q 26.265625 6.109375 33.40625 6.109375 
Q 40.53125 6.109375 44.609375 11.75 
Q 48.6875 17.390625 48.6875 27.296875 
z
" id="DejaVuSans-112"/>
      <path d="M 50.984375 -16.609375 
L 50.984375 -23.578125 
L -0.984375 -23.578125 
L -0.984375 -16.609375 
z
" id="DejaVuSans-95"/>
     </defs>
     <use xlink:href="#DejaVuSans-114"/>
     <use x="41.113281" xlink:href="#DejaVuSans-97"/>
     <use x="102.392578" xlink:href="#DejaVuSans-100"/>
     <use x="165.869141" xlink:href="#DejaVuSans-105"/>
     <use x="193.652344" xlink:href="#DejaVuSans-120"/>
     <use x="252.832031" xlink:href="#DejaVuSans-32"/>
     <use x="284.619141" xlink:href="#DejaVuSans-115"/>
     <use x="336.71875" xlink:href="#DejaVuSans-111"/>
     <use x="397.900391" xlink:href="#DejaVuSans-114"/>
     <use x="439.013672" xlink:href="#DejaVuSans-116"/>
     <use x="478.222656" xlink:href="#DejaVuSans-32"/>
     <use x="510.009766" xlink:href="#DejaVuSans-54"/>
     <use x="573.632812" xlink:href="#DejaVuSans-32"/>
     <use x="605.419922" xlink:href="#DejaVuSans-111"/>
     <use x="666.601562" xlink:href="#DejaVuSans-110"/>
     <use x="729.980469" xlink:href="#DejaVuSans-32"/>
     <use x="761.767578" xlink:href="#DejaVuSans-112"/>
     <use x="825.244141" xlink:href="#DejaVuSans-114"/>
     <use x="864.107422" xlink:href="#DejaVuSans-101"/>
     <use x="925.630859" xlink:href="#DejaVuSans-95"/>
     <use x="975.630859" xlink:href="#DejaVuSans-116"/>
     <use x="1014.839844" xlink:href="#DejaVuSans-114"/>
     <use x="1055.953125" xlink:href="#DejaVuSans-97"/>
     <use x="1117.232422" xlink:href="#DejaVuSans-110"/>
     <use x="1180.611328" xlink:href="#DejaVuSans-115"/>
     <use x="1232.710938" xlink:href="#DejaVuSans-112"/>
     <use x="1296.1875" xlink:href="#DejaVuSans-111"/>
     <use x="1357.369141" xlink:href="#DejaVuSans-115"/>
     <use x="1409.46875" xlink:href="#DejaVuSans-101"/>
     <use x="1470.992188" xlink:href="#DejaVuSans-52"/>
     <use x="1534.615234" xlink:href="#DejaVuSans-49"/>
    </g>
   </g>
   <g id="legend_1">
    <g id="patch_7">
     <path d="M 313.152813 93.7845 
L 407.72 93.7845 
Q 409.72 93.7845 409.72 91.7845 
L 409.72 48.472 
Q 409.72 46.472 407.72 46.472 
L 313.152813 46.472 
Q 311.152813 46.472 311.152813 48.472 
L 311.152813 91.7845 
Q 311.152813 93.7845 313.152813 93.7845 
z
" style="fill:#ffffff;opacity:0.8;stroke:#cccccc;stroke-linejoin:miter;"/>
    </g>
    <g id="line2d_66">
     <path d="M 315.152813 54.570438 
L 335.152813 54.570438 
" style="fill:none;stroke:#0000ff;stroke-dasharray:1.5,2.475;stroke-dashoffset:0;stroke-width:1.5;"/>
    </g>
    <g id="line2d_67">
     <g>
      <use style="fill:#0000ff;stroke:#0000ff;" x="325.152813" xlink:href="#m83f3ac0b42" y="54.570438"/>
     </g>
    </g>
    <g id="text_35">
     <!-- transpose -->
     <g transform="translate(343.152813 58.070438)scale(0.1 -0.1)">
      <use xlink:href="#DejaVuSans-116"/>
      <use x="39.208984" xlink:href="#DejaVuSans-114"/>
      <use x="80.322266" xlink:href="#DejaVuSans-97"/>
      <use x="141.601562" xlink:href="#DejaVuSans-110"/>
      <use x="204.980469" xlink:href="#DejaVuSans-115"/>
      <use x="257.080078" xlink:href="#DejaVuSans-112"/>
      <use x="320.556641" xlink:href="#DejaVuSans-111"/>
      <use x="381.738281" xlink:href="#DejaVuSans-115"/>
      <use x="433.837891" xlink:href="#DejaVuSans-101"/>
     </g>
    </g>
    <g id="line2d_68">
     <path d="M 315.152813 69.248563 
L 335.152813 69.248563 
" style="fill:none;stroke:#ff0000;stroke-dasharray:1.5,2.475;stroke-dashoffset:0;stroke-width:1.5;"/>
    </g>
    <g id="line2d_69">
     <g>
      <use style="fill:#ff0000;stroke:#ff0000;" x="325.152813" xlink:href="#me73d1dfdfa" y="69.248563"/>
     </g>
    </g>
    <g id="text_36">
     <!-- transpose_tr -->
     <g transform="translate(343.152813 72.748563)scale(0.1 -0.1)">
      <use xlink:href="#DejaVuSans-116"/>
      <use x="39.208984" xlink:href="#DejaVuSans-114"/>
      <use x="80.322266" xlink:href="#DejaVuSans-97"/>
      <use x="141.601562" xlink:href="#DejaVuSans-110"/>
      <use x="204.980469" xlink:href="#DejaVuSans-115"/>
      <use x="257.080078" xlink:href="#DejaVuSans-112"/>
      <use x="320.556641" xlink:href="#DejaVuSans-111"/>
      <use x="381.738281" xlink:href="#DejaVuSans-115"/>
      <use x="433.837891" xlink:href="#DejaVuSans-101"/>
      <use x="495.361328" xlink:href="#DejaVuSans-95"/>
      <use x="545.361328" xlink:href="#DejaVuSans-116"/>
      <use x="584.570312" xlink:href="#DejaVuSans-114"/>
     </g>
    </g>
    <g id="line2d_70">
     <path d="M 315.152813 84.204813 
L 335.152813 84.204813 
" style="fill:none;stroke:#008000;stroke-dasharray:1.5,2.475;stroke-dashoffset:0;stroke-width:1.5;"/>
    </g>
    <g id="line2d_71">
     <g>
      <use style="fill:#008000;stroke:#008000;" x="325.152813" xlink:href="#mb031ceed13" y="84.204813"/>
     </g>
    </g>
    <g id="text_37">
     <!-- mean -->
     <g transform="translate(343.152813 87.704813)scale(0.1 -0.1)">
      <defs>
       <path d="M 52 44.1875 
Q 55.375 50.25 60.0625 53.125 
Q 64.75 56 71.09375 56 
Q 79.640625 56 84.28125 50.015625 
Q 88.921875 44.046875 88.921875 33.015625 
L 88.921875 0 
L 79.890625 0 
L 79.890625 32.71875 
Q 79.890625 40.578125 77.09375 44.375 
Q 74.3125 48.1875 68.609375 48.1875 
Q 61.625 48.1875 57.5625 43.546875 
Q 53.515625 38.921875 53.515625 30.90625 
L 53.515625 0 
L 44.484375 0 
L 44.484375 32.71875 
Q 44.484375 40.625 41.703125 44.40625 
Q 38.921875 48.1875 33.109375 48.1875 
Q 26.21875 48.1875 22.15625 43.53125 
Q 18.109375 38.875 18.109375 30.90625 
L 18.109375 0 
L 9.078125 0 
L 9.078125 54.6875 
L 18.109375 54.6875 
L 18.109375 46.1875 
Q 21.1875 51.21875 25.484375 53.609375 
Q 29.78125 56 35.6875 56 
Q 41.65625 56 45.828125 52.96875 
Q 50 49.953125 52 44.1875 
z
" id="DejaVuSans-109"/>
      </defs>
      <use xlink:href="#DejaVuSans-109"/>
      <use x="97.412109" xlink:href="#DejaVuSans-101"/>
      <use x="158.935547" xlink:href="#DejaVuSans-97"/>
      <use x="220.214844" xlink:href="#DejaVuSans-110"/>
     </g>
    </g>
   </g>
  </g>
 </g>
 <defs>
  <clipPath id="p7e2d177d3e">
   <rect height="266.112" width="357.12" x="57.6" y="41.472"/>
  </clipPath>
 </defs>
</svg>
