<?xml version="1.0" encoding="utf-8" standalone="no"?>
<!DOCTYPE svg PUBLIC "-//W3C//DTD SVG 1.1//EN"
  "http://www.w3.org/Graphics/SVG/1.1/DTD/svg11.dtd">
<!-- Created with matplotlib (https://matplotlib.org/) -->
<svg height="345.6pt" version="1.1" viewBox="0 0 460.8 345.6" width="460.8pt" xmlns="http://www.w3.org/2000/svg" xmlns:xlink="http://www.w3.org/1999/xlink">
 <defs>
  <style type="text/css">
*{stroke-linecap:butt;stroke-linejoin:round;}
  </style>
 </defs>
 <g id="figure_1">
  <g id="patch_1">
   <path d="M 0 345.6 
L 460.8 345.6 
L 460.8 0 
L 0 0 
z
" style="fill:#ffffff;"/>
  </g>
  <g id="axes_1">
   <g id="patch_2">
    <path d="M 57.6 307.584 
L 414.72 307.584 
L 414.72 41.472 
L 57.6 41.472 
z
" style="fill:#ffffff;"/>
   </g>
   <g id="matplotlib.axis_1">
    <g id="xtick_1">
     <g id="line2d_1">
      <path clip-path="url(#pb6704b001e)" d="M 61.612584 307.584 
L 61.612584 41.472 
" style="fill:none;stroke:#b0b0b0;stroke-dasharray:5.12,1.28,0.8,1.28;stroke-dashoffset:0;stroke-width:0.8;"/>
     </g>
     <g id="line2d_2">
      <defs>
       <path d="M 0 0 
L 0 3.5 
" id="mc1a45bf1a3" style="stroke:#000000;stroke-width:0.8;"/>
      </defs>
      <g>
       <use style="stroke:#000000;stroke-width:0.8;" x="61.612584" xlink:href="#mc1a45bf1a3" y="307.584"/>
      </g>
     </g>
     <g id="text_1">
      <!-- 1 -->
      <defs>
       <path d="M 12.40625 8.296875 
L 28.515625 8.296875 
L 28.515625 63.921875 
L 10.984375 60.40625 
L 10.984375 69.390625 
L 28.421875 72.90625 
L 38.28125 72.90625 
L 38.28125 8.296875 
L 54.390625 8.296875 
L 54.390625 0 
L 12.40625 0 
z
" id="DejaVuSans-49"/>
      </defs>
      <g transform="translate(58.431334 322.182437)scale(0.1 -0.1)">
       <use xlink:href="#DejaVuSans-49"/>
      </g>
     </g>
    </g>
    <g id="xtick_2">
     <g id="line2d_3">
      <path clip-path="url(#pb6704b001e)" d="M 73.650337 307.584 
L 73.650337 41.472 
" style="fill:none;stroke:#b0b0b0;stroke-dasharray:5.12,1.28,0.8,1.28;stroke-dashoffset:0;stroke-width:0.8;"/>
     </g>
     <g id="line2d_4">
      <g>
       <use style="stroke:#000000;stroke-width:0.8;" x="73.650337" xlink:href="#mc1a45bf1a3" y="307.584"/>
      </g>
     </g>
     <g id="text_2">
      <!-- 4 -->
      <defs>
       <path d="M 37.796875 64.3125 
L 12.890625 25.390625 
L 37.796875 25.390625 
z
M 35.203125 72.90625 
L 47.609375 72.90625 
L 47.609375 25.390625 
L 58.015625 25.390625 
L 58.015625 17.1875 
L 47.609375 17.1875 
L 47.609375 0 
L 37.796875 0 
L 37.796875 17.1875 
L 4.890625 17.1875 
L 4.890625 26.703125 
z
" id="DejaVuSans-52"/>
      </defs>
      <g transform="translate(70.469087 322.182437)scale(0.1 -0.1)">
       <use xlink:href="#DejaVuSans-52"/>
      </g>
     </g>
    </g>
    <g id="xtick_3">
     <g id="line2d_5">
      <path clip-path="url(#pb6704b001e)" d="M 89.700674 307.584 
L 89.700674 41.472 
" style="fill:none;stroke:#b0b0b0;stroke-dasharray:5.12,1.28,0.8,1.28;stroke-dashoffset:0;stroke-width:0.8;"/>
     </g>
     <g id="line2d_6">
      <g>
       <use style="stroke:#000000;stroke-width:0.8;" x="89.700674" xlink:href="#mc1a45bf1a3" y="307.584"/>
      </g>
     </g>
     <g id="text_3">
      <!-- 8 -->
      <defs>
       <path d="M 31.78125 34.625 
Q 24.75 34.625 20.71875 30.859375 
Q 16.703125 27.09375 16.703125 20.515625 
Q 16.703125 13.921875 20.71875 10.15625 
Q 24.75 6.390625 31.78125 6.390625 
Q 38.8125 6.390625 42.859375 10.171875 
Q 46.921875 13.96875 46.921875 20.515625 
Q 46.921875 27.09375 42.890625 30.859375 
Q 38.875 34.625 31.78125 34.625 
z
M 21.921875 38.8125 
Q 15.578125 40.375 12.03125 44.71875 
Q 8.5 49.078125 8.5 55.328125 
Q 8.5 64.0625 14.71875 69.140625 
Q 20.953125 74.21875 31.78125 74.21875 
Q 42.671875 74.21875 48.875 69.140625 
Q 55.078125 64.0625 55.078125 55.328125 
Q 55.078125 49.078125 51.53125 44.71875 
Q 48 40.375 41.703125 38.8125 
Q 48.828125 37.15625 52.796875 32.3125 
Q 56.78125 27.484375 56.78125 20.515625 
Q 56.78125 9.90625 50.3125 4.234375 
Q 43.84375 -1.421875 31.78125 -1.421875 
Q 19.734375 -1.421875 13.25 4.234375 
Q 6.78125 9.90625 6.78125 20.515625 
Q 6.78125 27.484375 10.78125 32.3125 
Q 14.796875 37.15625 21.921875 38.8125 
z
M 18.3125 54.390625 
Q 18.3125 48.734375 21.84375 45.5625 
Q 25.390625 42.390625 31.78125 42.390625 
Q 38.140625 42.390625 41.71875 45.5625 
Q 45.3125 48.734375 45.3125 54.390625 
Q 45.3125 60.0625 41.71875 63.234375 
Q 38.140625 66.40625 31.78125 66.40625 
Q 25.390625 66.40625 21.84375 63.234375 
Q 18.3125 60.0625 18.3125 54.390625 
z
" id="DejaVuSans-56"/>
      </defs>
      <g transform="translate(86.519424 322.182437)scale(0.1 -0.1)">
       <use xlink:href="#DejaVuSans-56"/>
      </g>
     </g>
    </g>
    <g id="xtick_4">
     <g id="line2d_7">
      <path clip-path="url(#pb6704b001e)" d="M 105.751011 307.584 
L 105.751011 41.472 
" style="fill:none;stroke:#b0b0b0;stroke-dasharray:5.12,1.28,0.8,1.28;stroke-dashoffset:0;stroke-width:0.8;"/>
     </g>
     <g id="line2d_8">
      <g>
       <use style="stroke:#000000;stroke-width:0.8;" x="105.751011" xlink:href="#mc1a45bf1a3" y="307.584"/>
      </g>
     </g>
     <g id="text_4">
      <!-- 12 -->
      <defs>
       <path d="M 19.1875 8.296875 
L 53.609375 8.296875 
L 53.609375 0 
L 7.328125 0 
L 7.328125 8.296875 
Q 12.9375 14.109375 22.625 23.890625 
Q 32.328125 33.6875 34.8125 36.53125 
Q 39.546875 41.84375 41.421875 45.53125 
Q 43.3125 49.21875 43.3125 52.78125 
Q 43.3125 58.59375 39.234375 62.25 
Q 35.15625 65.921875 28.609375 65.921875 
Q 23.96875 65.921875 18.8125 64.3125 
Q 13.671875 62.703125 7.8125 59.421875 
L 7.8125 69.390625 
Q 13.765625 71.78125 18.9375 73 
Q 24.125 74.21875 28.421875 74.21875 
Q 39.75 74.21875 46.484375 68.546875 
Q 53.21875 62.890625 53.21875 53.421875 
Q 53.21875 48.921875 51.53125 44.890625 
Q 49.859375 40.875 45.40625 35.40625 
Q 44.1875 33.984375 37.640625 27.21875 
Q 31.109375 20.453125 19.1875 8.296875 
z
" id="DejaVuSans-50"/>
      </defs>
      <g transform="translate(99.388511 322.182437)scale(0.1 -0.1)">
       <use xlink:href="#DejaVuSans-49"/>
       <use x="63.623047" xlink:href="#DejaVuSans-50"/>
      </g>
     </g>
    </g>
    <g id="xtick_5">
     <g id="line2d_9">
      <path clip-path="url(#pb6704b001e)" d="M 121.801348 307.584 
L 121.801348 41.472 
" style="fill:none;stroke:#b0b0b0;stroke-dasharray:5.12,1.28,0.8,1.28;stroke-dashoffset:0;stroke-width:0.8;"/>
     </g>
     <g id="line2d_10">
      <g>
       <use style="stroke:#000000;stroke-width:0.8;" x="121.801348" xlink:href="#mc1a45bf1a3" y="307.584"/>
      </g>
     </g>
     <g id="text_5">
      <!-- 16 -->
      <defs>
       <path d="M 33.015625 40.375 
Q 26.375 40.375 22.484375 35.828125 
Q 18.609375 31.296875 18.609375 23.390625 
Q 18.609375 15.53125 22.484375 10.953125 
Q 26.375 6.390625 33.015625 6.390625 
Q 39.65625 6.390625 43.53125 10.953125 
Q 47.40625 15.53125 47.40625 23.390625 
Q 47.40625 31.296875 43.53125 35.828125 
Q 39.65625 40.375 33.015625 40.375 
z
M 52.59375 71.296875 
L 52.59375 62.3125 
Q 48.875 64.0625 45.09375 64.984375 
Q 41.3125 65.921875 37.59375 65.921875 
Q 27.828125 65.921875 22.671875 59.328125 
Q 17.53125 52.734375 16.796875 39.40625 
Q 19.671875 43.65625 24.015625 45.921875 
Q 28.375 48.1875 33.59375 48.1875 
Q 44.578125 48.1875 50.953125 41.515625 
Q 57.328125 34.859375 57.328125 23.390625 
Q 57.328125 12.15625 50.6875 5.359375 
Q 44.046875 -1.421875 33.015625 -1.421875 
Q 20.359375 -1.421875 13.671875 8.265625 
Q 6.984375 17.96875 6.984375 36.375 
Q 6.984375 53.65625 15.1875 63.9375 
Q 23.390625 74.21875 37.203125 74.21875 
Q 40.921875 74.21875 44.703125 73.484375 
Q 48.484375 72.75 52.59375 71.296875 
z
" id="DejaVuSans-54"/>
      </defs>
      <g transform="translate(115.438848 322.182437)scale(0.1 -0.1)">
       <use xlink:href="#DejaVuSans-49"/>
       <use x="63.623047" xlink:href="#DejaVuSans-54"/>
      </g>
     </g>
    </g>
    <g id="xtick_6">
     <g id="line2d_11">
      <path clip-path="url(#pb6704b001e)" d="M 137.851685 307.584 
L 137.851685 41.472 
" style="fill:none;stroke:#b0b0b0;stroke-dasharray:5.12,1.28,0.8,1.28;stroke-dashoffset:0;stroke-width:0.8;"/>
     </g>
     <g id="line2d_12">
      <g>
       <use style="stroke:#000000;stroke-width:0.8;" x="137.851685" xlink:href="#mc1a45bf1a3" y="307.584"/>
      </g>
     </g>
     <g id="text_6">
      <!-- 20 -->
      <defs>
       <path d="M 31.78125 66.40625 
Q 24.171875 66.40625 20.328125 58.90625 
Q 16.5 51.421875 16.5 36.375 
Q 16.5 21.390625 20.328125 13.890625 
Q 24.171875 6.390625 31.78125 6.390625 
Q 39.453125 6.390625 43.28125 13.890625 
Q 47.125 21.390625 47.125 36.375 
Q 47.125 51.421875 43.28125 58.90625 
Q 39.453125 66.40625 31.78125 66.40625 
z
M 31.78125 74.21875 
Q 44.046875 74.21875 50.515625 64.515625 
Q 56.984375 54.828125 56.984375 36.375 
Q 56.984375 17.96875 50.515625 8.265625 
Q 44.046875 -1.421875 31.78125 -1.421875 
Q 19.53125 -1.421875 13.0625 8.265625 
Q 6.59375 17.96875 6.59375 36.375 
Q 6.59375 54.828125 13.0625 64.515625 
Q 19.53125 74.21875 31.78125 74.21875 
z
" id="DejaVuSans-48"/>
      </defs>
      <g transform="translate(131.489185 322.182437)scale(0.1 -0.1)">
       <use xlink:href="#DejaVuSans-50"/>
       <use x="63.623047" xlink:href="#DejaVuSans-48"/>
      </g>
     </g>
    </g>
    <g id="xtick_7">
     <g id="line2d_13">
      <path clip-path="url(#pb6704b001e)" d="M 153.902022 307.584 
L 153.902022 41.472 
" style="fill:none;stroke:#b0b0b0;stroke-dasharray:5.12,1.28,0.8,1.28;stroke-dashoffset:0;stroke-width:0.8;"/>
     </g>
     <g id="line2d_14">
      <g>
       <use style="stroke:#000000;stroke-width:0.8;" x="153.902022" xlink:href="#mc1a45bf1a3" y="307.584"/>
      </g>
     </g>
     <g id="text_7">
      <!-- 24 -->
      <g transform="translate(147.539522 322.182437)scale(0.1 -0.1)">
       <use xlink:href="#DejaVuSans-50"/>
       <use x="63.623047" xlink:href="#DejaVuSans-52"/>
      </g>
     </g>
    </g>
    <g id="xtick_8">
     <g id="line2d_15">
      <path clip-path="url(#pb6704b001e)" d="M 169.95236 307.584 
L 169.95236 41.472 
" style="fill:none;stroke:#b0b0b0;stroke-dasharray:5.12,1.28,0.8,1.28;stroke-dashoffset:0;stroke-width:0.8;"/>
     </g>
     <g id="line2d_16">
      <g>
       <use style="stroke:#000000;stroke-width:0.8;" x="169.95236" xlink:href="#mc1a45bf1a3" y="307.584"/>
      </g>
     </g>
     <g id="text_8">
      <!-- 28 -->
      <g transform="translate(163.58986 322.182437)scale(0.1 -0.1)">
       <use xlink:href="#DejaVuSans-50"/>
       <use x="63.623047" xlink:href="#DejaVuSans-56"/>
      </g>
     </g>
    </g>
    <g id="xtick_9">
     <g id="line2d_17">
      <path clip-path="url(#pb6704b001e)" d="M 186.002697 307.584 
L 186.002697 41.472 
" style="fill:none;stroke:#b0b0b0;stroke-dasharray:5.12,1.28,0.8,1.28;stroke-dashoffset:0;stroke-width:0.8;"/>
     </g>
     <g id="line2d_18">
      <g>
       <use style="stroke:#000000;stroke-width:0.8;" x="186.002697" xlink:href="#mc1a45bf1a3" y="307.584"/>
      </g>
     </g>
     <g id="text_9">
      <!-- 32 -->
      <defs>
       <path d="M 40.578125 39.3125 
Q 47.65625 37.796875 51.625 33 
Q 55.609375 28.21875 55.609375 21.1875 
Q 55.609375 10.40625 48.1875 4.484375 
Q 40.765625 -1.421875 27.09375 -1.421875 
Q 22.515625 -1.421875 17.65625 -0.515625 
Q 12.796875 0.390625 7.625 2.203125 
L 7.625 11.71875 
Q 11.71875 9.328125 16.59375 8.109375 
Q 21.484375 6.890625 26.8125 6.890625 
Q 36.078125 6.890625 40.9375 10.546875 
Q 45.796875 14.203125 45.796875 21.1875 
Q 45.796875 27.640625 41.28125 31.265625 
Q 36.765625 34.90625 28.71875 34.90625 
L 20.21875 34.90625 
L 20.21875 43.015625 
L 29.109375 43.015625 
Q 36.375 43.015625 40.234375 45.921875 
Q 44.09375 48.828125 44.09375 54.296875 
Q 44.09375 59.90625 40.109375 62.90625 
Q 36.140625 65.921875 28.71875 65.921875 
Q 24.65625 65.921875 20.015625 65.03125 
Q 15.375 64.15625 9.8125 62.3125 
L 9.8125 71.09375 
Q 15.4375 72.65625 20.34375 73.4375 
Q 25.25 74.21875 29.59375 74.21875 
Q 40.828125 74.21875 47.359375 69.109375 
Q 53.90625 64.015625 53.90625 55.328125 
Q 53.90625 49.265625 50.4375 45.09375 
Q 46.96875 40.921875 40.578125 39.3125 
z
" id="DejaVuSans-51"/>
      </defs>
      <g transform="translate(179.640197 322.182437)scale(0.1 -0.1)">
       <use xlink:href="#DejaVuSans-51"/>
       <use x="63.623047" xlink:href="#DejaVuSans-50"/>
      </g>
     </g>
    </g>
    <g id="xtick_10">
     <g id="line2d_19">
      <path clip-path="url(#pb6704b001e)" d="M 202.053034 307.584 
L 202.053034 41.472 
" style="fill:none;stroke:#b0b0b0;stroke-dasharray:5.12,1.28,0.8,1.28;stroke-dashoffset:0;stroke-width:0.8;"/>
     </g>
     <g id="line2d_20">
      <g>
       <use style="stroke:#000000;stroke-width:0.8;" x="202.053034" xlink:href="#mc1a45bf1a3" y="307.584"/>
      </g>
     </g>
     <g id="text_10">
      <!-- 36 -->
      <g transform="translate(195.690534 322.182437)scale(0.1 -0.1)">
       <use xlink:href="#DejaVuSans-51"/>
       <use x="63.623047" xlink:href="#DejaVuSans-54"/>
      </g>
     </g>
    </g>
    <g id="xtick_11">
     <g id="line2d_21">
      <path clip-path="url(#pb6704b001e)" d="M 218.103371 307.584 
L 218.103371 41.472 
" style="fill:none;stroke:#b0b0b0;stroke-dasharray:5.12,1.28,0.8,1.28;stroke-dashoffset:0;stroke-width:0.8;"/>
     </g>
     <g id="line2d_22">
      <g>
       <use style="stroke:#000000;stroke-width:0.8;" x="218.103371" xlink:href="#mc1a45bf1a3" y="307.584"/>
      </g>
     </g>
     <g id="text_11">
      <!-- 40 -->
      <g transform="translate(211.740871 322.182437)scale(0.1 -0.1)">
       <use xlink:href="#DejaVuSans-52"/>
       <use x="63.623047" xlink:href="#DejaVuSans-48"/>
      </g>
     </g>
    </g>
    <g id="xtick_12">
     <g id="line2d_23">
      <path clip-path="url(#pb6704b001e)" d="M 234.153708 307.584 
L 234.153708 41.472 
" style="fill:none;stroke:#b0b0b0;stroke-dasharray:5.12,1.28,0.8,1.28;stroke-dashoffset:0;stroke-width:0.8;"/>
     </g>
     <g id="line2d_24">
      <g>
       <use style="stroke:#000000;stroke-width:0.8;" x="234.153708" xlink:href="#mc1a45bf1a3" y="307.584"/>
      </g>
     </g>
     <g id="text_12">
      <!-- 44 -->
      <g transform="translate(227.791208 322.182437)scale(0.1 -0.1)">
       <use xlink:href="#DejaVuSans-52"/>
       <use x="63.623047" xlink:href="#DejaVuSans-52"/>
      </g>
     </g>
    </g>
    <g id="xtick_13">
     <g id="line2d_25">
      <path clip-path="url(#pb6704b001e)" d="M 250.204045 307.584 
L 250.204045 41.472 
" style="fill:none;stroke:#b0b0b0;stroke-dasharray:5.12,1.28,0.8,1.28;stroke-dashoffset:0;stroke-width:0.8;"/>
     </g>
     <g id="line2d_26">
      <g>
       <use style="stroke:#000000;stroke-width:0.8;" x="250.204045" xlink:href="#mc1a45bf1a3" y="307.584"/>
      </g>
     </g>
     <g id="text_13">
      <!-- 48 -->
      <g transform="translate(243.841545 322.182437)scale(0.1 -0.1)">
       <use xlink:href="#DejaVuSans-52"/>
       <use x="63.623047" xlink:href="#DejaVuSans-56"/>
      </g>
     </g>
    </g>
    <g id="xtick_14">
     <g id="line2d_27">
      <path clip-path="url(#pb6704b001e)" d="M 266.254382 307.584 
L 266.254382 41.472 
" style="fill:none;stroke:#b0b0b0;stroke-dasharray:5.12,1.28,0.8,1.28;stroke-dashoffset:0;stroke-width:0.8;"/>
     </g>
     <g id="line2d_28">
      <g>
       <use style="stroke:#000000;stroke-width:0.8;" x="266.254382" xlink:href="#mc1a45bf1a3" y="307.584"/>
      </g>
     </g>
     <g id="text_14">
      <!-- 52 -->
      <defs>
       <path d="M 10.796875 72.90625 
L 49.515625 72.90625 
L 49.515625 64.59375 
L 19.828125 64.59375 
L 19.828125 46.734375 
Q 21.96875 47.46875 24.109375 47.828125 
Q 26.265625 48.1875 28.421875 48.1875 
Q 40.625 48.1875 47.75 41.5 
Q 54.890625 34.8125 54.890625 23.390625 
Q 54.890625 11.625 47.5625 5.09375 
Q 40.234375 -1.421875 26.90625 -1.421875 
Q 22.3125 -1.421875 17.546875 -0.640625 
Q 12.796875 0.140625 7.71875 1.703125 
L 7.71875 11.625 
Q 12.109375 9.234375 16.796875 8.0625 
Q 21.484375 6.890625 26.703125 6.890625 
Q 35.15625 6.890625 40.078125 11.328125 
Q 45.015625 15.765625 45.015625 23.390625 
Q 45.015625 31 40.078125 35.4375 
Q 35.15625 39.890625 26.703125 39.890625 
Q 22.75 39.890625 18.8125 39.015625 
Q 14.890625 38.140625 10.796875 36.28125 
z
" id="DejaVuSans-53"/>
      </defs>
      <g transform="translate(259.891882 322.182437)scale(0.1 -0.1)">
       <use xlink:href="#DejaVuSans-53"/>
       <use x="63.623047" xlink:href="#DejaVuSans-50"/>
      </g>
     </g>
    </g>
    <g id="xtick_15">
     <g id="line2d_29">
      <path clip-path="url(#pb6704b001e)" d="M 282.304719 307.584 
L 282.304719 41.472 
" style="fill:none;stroke:#b0b0b0;stroke-dasharray:5.12,1.28,0.8,1.28;stroke-dashoffset:0;stroke-width:0.8;"/>
     </g>
     <g id="line2d_30">
      <g>
       <use style="stroke:#000000;stroke-width:0.8;" x="282.304719" xlink:href="#mc1a45bf1a3" y="307.584"/>
      </g>
     </g>
     <g id="text_15">
      <!-- 56 -->
      <g transform="translate(275.942219 322.182437)scale(0.1 -0.1)">
       <use xlink:href="#DejaVuSans-53"/>
       <use x="63.623047" xlink:href="#DejaVuSans-54"/>
      </g>
     </g>
    </g>
    <g id="xtick_16">
     <g id="line2d_31">
      <path clip-path="url(#pb6704b001e)" d="M 298.355056 307.584 
L 298.355056 41.472 
" style="fill:none;stroke:#b0b0b0;stroke-dasharray:5.12,1.28,0.8,1.28;stroke-dashoffset:0;stroke-width:0.8;"/>
     </g>
     <g id="line2d_32">
      <g>
       <use style="stroke:#000000;stroke-width:0.8;" x="298.355056" xlink:href="#mc1a45bf1a3" y="307.584"/>
      </g>
     </g>
     <g id="text_16">
      <!-- 60 -->
      <g transform="translate(291.992556 322.182437)scale(0.1 -0.1)">
       <use xlink:href="#DejaVuSans-54"/>
       <use x="63.623047" xlink:href="#DejaVuSans-48"/>
      </g>
     </g>
    </g>
    <g id="xtick_17">
     <g id="line2d_33">
      <path clip-path="url(#pb6704b001e)" d="M 314.405393 307.584 
L 314.405393 41.472 
" style="fill:none;stroke:#b0b0b0;stroke-dasharray:5.12,1.28,0.8,1.28;stroke-dashoffset:0;stroke-width:0.8;"/>
     </g>
     <g id="line2d_34">
      <g>
       <use style="stroke:#000000;stroke-width:0.8;" x="314.405393" xlink:href="#mc1a45bf1a3" y="307.584"/>
      </g>
     </g>
     <g id="text_17">
      <!-- 64 -->
      <g transform="translate(308.042893 322.182437)scale(0.1 -0.1)">
       <use xlink:href="#DejaVuSans-54"/>
       <use x="63.623047" xlink:href="#DejaVuSans-52"/>
      </g>
     </g>
    </g>
    <g id="xtick_18">
     <g id="line2d_35">
      <path clip-path="url(#pb6704b001e)" d="M 330.45573 307.584 
L 330.45573 41.472 
" style="fill:none;stroke:#b0b0b0;stroke-dasharray:5.12,1.28,0.8,1.28;stroke-dashoffset:0;stroke-width:0.8;"/>
     </g>
     <g id="line2d_36">
      <g>
       <use style="stroke:#000000;stroke-width:0.8;" x="330.45573" xlink:href="#mc1a45bf1a3" y="307.584"/>
      </g>
     </g>
     <g id="text_18">
      <!-- 68 -->
      <g transform="translate(324.09323 322.182437)scale(0.1 -0.1)">
       <use xlink:href="#DejaVuSans-54"/>
       <use x="63.623047" xlink:href="#DejaVuSans-56"/>
      </g>
     </g>
    </g>
    <g id="xtick_19">
     <g id="line2d_37">
      <path clip-path="url(#pb6704b001e)" d="M 346.506067 307.584 
L 346.506067 41.472 
" style="fill:none;stroke:#b0b0b0;stroke-dasharray:5.12,1.28,0.8,1.28;stroke-dashoffset:0;stroke-width:0.8;"/>
     </g>
     <g id="line2d_38">
      <g>
       <use style="stroke:#000000;stroke-width:0.8;" x="346.506067" xlink:href="#mc1a45bf1a3" y="307.584"/>
      </g>
     </g>
     <g id="text_19">
      <!-- 72 -->
      <defs>
       <path d="M 8.203125 72.90625 
L 55.078125 72.90625 
L 55.078125 68.703125 
L 28.609375 0 
L 18.3125 0 
L 43.21875 64.59375 
L 8.203125 64.59375 
z
" id="DejaVuSans-55"/>
      </defs>
      <g transform="translate(340.143567 322.182437)scale(0.1 -0.1)">
       <use xlink:href="#DejaVuSans-55"/>
       <use x="63.623047" xlink:href="#DejaVuSans-50"/>
      </g>
     </g>
    </g>
    <g id="xtick_20">
     <g id="line2d_39">
      <path clip-path="url(#pb6704b001e)" d="M 362.556404 307.584 
L 362.556404 41.472 
" style="fill:none;stroke:#b0b0b0;stroke-dasharray:5.12,1.28,0.8,1.28;stroke-dashoffset:0;stroke-width:0.8;"/>
     </g>
     <g id="line2d_40">
      <g>
       <use style="stroke:#000000;stroke-width:0.8;" x="362.556404" xlink:href="#mc1a45bf1a3" y="307.584"/>
      </g>
     </g>
     <g id="text_20">
      <!-- 76 -->
      <g transform="translate(356.193904 322.182437)scale(0.1 -0.1)">
       <use xlink:href="#DejaVuSans-55"/>
       <use x="63.623047" xlink:href="#DejaVuSans-54"/>
      </g>
     </g>
    </g>
    <g id="xtick_21">
     <g id="line2d_41">
      <path clip-path="url(#pb6704b001e)" d="M 378.606742 307.584 
L 378.606742 41.472 
" style="fill:none;stroke:#b0b0b0;stroke-dasharray:5.12,1.28,0.8,1.28;stroke-dashoffset:0;stroke-width:0.8;"/>
     </g>
     <g id="line2d_42">
      <g>
       <use style="stroke:#000000;stroke-width:0.8;" x="378.606742" xlink:href="#mc1a45bf1a3" y="307.584"/>
      </g>
     </g>
     <g id="text_21">
      <!-- 80 -->
      <g transform="translate(372.244242 322.182437)scale(0.1 -0.1)">
       <use xlink:href="#DejaVuSans-56"/>
       <use x="63.623047" xlink:href="#DejaVuSans-48"/>
      </g>
     </g>
    </g>
    <g id="xtick_22">
     <g id="line2d_43">
      <path clip-path="url(#pb6704b001e)" d="M 394.657079 307.584 
L 394.657079 41.472 
" style="fill:none;stroke:#b0b0b0;stroke-dasharray:5.12,1.28,0.8,1.28;stroke-dashoffset:0;stroke-width:0.8;"/>
     </g>
     <g id="line2d_44">
      <g>
       <use style="stroke:#000000;stroke-width:0.8;" x="394.657079" xlink:href="#mc1a45bf1a3" y="307.584"/>
      </g>
     </g>
     <g id="text_22">
      <!-- 84 -->
      <g transform="translate(388.294579 322.182437)scale(0.1 -0.1)">
       <use xlink:href="#DejaVuSans-56"/>
       <use x="63.623047" xlink:href="#DejaVuSans-52"/>
      </g>
     </g>
    </g>
    <g id="xtick_23">
     <g id="line2d_45">
      <path clip-path="url(#pb6704b001e)" d="M 410.707416 307.584 
L 410.707416 41.472 
" style="fill:none;stroke:#b0b0b0;stroke-dasharray:5.12,1.28,0.8,1.28;stroke-dashoffset:0;stroke-width:0.8;"/>
     </g>
     <g id="line2d_46">
      <g>
       <use style="stroke:#000000;stroke-width:0.8;" x="410.707416" xlink:href="#mc1a45bf1a3" y="307.584"/>
      </g>
     </g>
     <g id="text_23">
      <!-- 88 -->
      <g transform="translate(404.344916 322.182437)scale(0.1 -0.1)">
       <use xlink:href="#DejaVuSans-56"/>
       <use x="63.623047" xlink:href="#DejaVuSans-56"/>
      </g>
     </g>
    </g>
    <g id="text_24">
     <!-- threads -->
     <defs>
      <path d="M 18.3125 70.21875 
L 18.3125 54.6875 
L 36.8125 54.6875 
L 36.8125 47.703125 
L 18.3125 47.703125 
L 18.3125 18.015625 
Q 18.3125 11.328125 20.140625 9.421875 
Q 21.96875 7.515625 27.59375 7.515625 
L 36.8125 7.515625 
L 36.8125 0 
L 27.59375 0 
Q 17.1875 0 13.234375 3.875 
Q 9.28125 7.765625 9.28125 18.015625 
L 9.28125 47.703125 
L 2.6875 47.703125 
L 2.6875 54.6875 
L 9.28125 54.6875 
L 9.28125 70.21875 
z
" id="DejaVuSans-116"/>
      <path d="M 54.890625 33.015625 
L 54.890625 0 
L 45.90625 0 
L 45.90625 32.71875 
Q 45.90625 40.484375 42.875 44.328125 
Q 39.84375 48.1875 33.796875 48.1875 
Q 26.515625 48.1875 22.3125 43.546875 
Q 18.109375 38.921875 18.109375 30.90625 
L 18.109375 0 
L 9.078125 0 
L 9.078125 75.984375 
L 18.109375 75.984375 
L 18.109375 46.1875 
Q 21.34375 51.125 25.703125 53.5625 
Q 30.078125 56 35.796875 56 
Q 45.21875 56 50.046875 50.171875 
Q 54.890625 44.34375 54.890625 33.015625 
z
" id="DejaVuSans-104"/>
      <path d="M 41.109375 46.296875 
Q 39.59375 47.171875 37.8125 47.578125 
Q 36.03125 48 33.890625 48 
Q 26.265625 48 22.1875 43.046875 
Q 18.109375 38.09375 18.109375 28.8125 
L 18.109375 0 
L 9.078125 0 
L 9.078125 54.6875 
L 18.109375 54.6875 
L 18.109375 46.1875 
Q 20.953125 51.171875 25.484375 53.578125 
Q 30.03125 56 36.53125 56 
Q 37.453125 56 38.578125 55.875 
Q 39.703125 55.765625 41.0625 55.515625 
z
" id="DejaVuSans-114"/>
      <path d="M 56.203125 29.59375 
L 56.203125 25.203125 
L 14.890625 25.203125 
Q 15.484375 15.921875 20.484375 11.0625 
Q 25.484375 6.203125 34.421875 6.203125 
Q 39.59375 6.203125 44.453125 7.46875 
Q 49.3125 8.734375 54.109375 11.28125 
L 54.109375 2.78125 
Q 49.265625 0.734375 44.1875 -0.34375 
Q 39.109375 -1.421875 33.890625 -1.421875 
Q 20.796875 -1.421875 13.15625 6.1875 
Q 5.515625 13.8125 5.515625 26.8125 
Q 5.515625 40.234375 12.765625 48.109375 
Q 20.015625 56 32.328125 56 
Q 43.359375 56 49.78125 48.890625 
Q 56.203125 41.796875 56.203125 29.59375 
z
M 47.21875 32.234375 
Q 47.125 39.59375 43.09375 43.984375 
Q 39.0625 48.390625 32.421875 48.390625 
Q 24.90625 48.390625 20.390625 44.140625 
Q 15.875 39.890625 15.1875 32.171875 
z
" id="DejaVuSans-101"/>
      <path d="M 34.28125 27.484375 
Q 23.390625 27.484375 19.1875 25 
Q 14.984375 22.515625 14.984375 16.5 
Q 14.984375 11.71875 18.140625 8.90625 
Q 21.296875 6.109375 26.703125 6.109375 
Q 34.1875 6.109375 38.703125 11.40625 
Q 43.21875 16.703125 43.21875 25.484375 
L 43.21875 27.484375 
z
M 52.203125 31.203125 
L 52.203125 0 
L 43.21875 0 
L 43.21875 8.296875 
Q 40.140625 3.328125 35.546875 0.953125 
Q 30.953125 -1.421875 24.3125 -1.421875 
Q 15.921875 -1.421875 10.953125 3.296875 
Q 6 8.015625 6 15.921875 
Q 6 25.140625 12.171875 29.828125 
Q 18.359375 34.515625 30.609375 34.515625 
L 43.21875 34.515625 
L 43.21875 35.40625 
Q 43.21875 41.609375 39.140625 45 
Q 35.0625 48.390625 27.6875 48.390625 
Q 23 48.390625 18.546875 47.265625 
Q 14.109375 46.140625 10.015625 43.890625 
L 10.015625 52.203125 
Q 14.9375 54.109375 19.578125 55.046875 
Q 24.21875 56 28.609375 56 
Q 40.484375 56 46.34375 49.84375 
Q 52.203125 43.703125 52.203125 31.203125 
z
" id="DejaVuSans-97"/>
      <path d="M 45.40625 46.390625 
L 45.40625 75.984375 
L 54.390625 75.984375 
L 54.390625 0 
L 45.40625 0 
L 45.40625 8.203125 
Q 42.578125 3.328125 38.25 0.953125 
Q 33.9375 -1.421875 27.875 -1.421875 
Q 17.96875 -1.421875 11.734375 6.484375 
Q 5.515625 14.40625 5.515625 27.296875 
Q 5.515625 40.1875 11.734375 48.09375 
Q 17.96875 56 27.875 56 
Q 33.9375 56 38.25 53.625 
Q 42.578125 51.265625 45.40625 46.390625 
z
M 14.796875 27.296875 
Q 14.796875 17.390625 18.875 11.75 
Q 22.953125 6.109375 30.078125 6.109375 
Q 37.203125 6.109375 41.296875 11.75 
Q 45.40625 17.390625 45.40625 27.296875 
Q 45.40625 37.203125 41.296875 42.84375 
Q 37.203125 48.484375 30.078125 48.484375 
Q 22.953125 48.484375 18.875 42.84375 
Q 14.796875 37.203125 14.796875 27.296875 
z
" id="DejaVuSans-100"/>
      <path d="M 44.28125 53.078125 
L 44.28125 44.578125 
Q 40.484375 46.53125 36.375 47.5 
Q 32.28125 48.484375 27.875 48.484375 
Q 21.1875 48.484375 17.84375 46.4375 
Q 14.5 44.390625 14.5 40.28125 
Q 14.5 37.15625 16.890625 35.375 
Q 19.28125 33.59375 26.515625 31.984375 
L 29.59375 31.296875 
Q 39.15625 29.25 43.1875 25.515625 
Q 47.21875 21.78125 47.21875 15.09375 
Q 47.21875 7.46875 41.1875 3.015625 
Q 35.15625 -1.421875 24.609375 -1.421875 
Q 20.21875 -1.421875 15.453125 -0.5625 
Q 10.6875 0.296875 5.421875 2 
L 5.421875 11.28125 
Q 10.40625 8.6875 15.234375 7.390625 
Q 20.0625 6.109375 24.8125 6.109375 
Q 31.15625 6.109375 34.5625 8.28125 
Q 37.984375 10.453125 37.984375 14.40625 
Q 37.984375 18.0625 35.515625 20.015625 
Q 33.0625 21.96875 24.703125 23.78125 
L 21.578125 24.515625 
Q 13.234375 26.265625 9.515625 29.90625 
Q 5.8125 33.546875 5.8125 39.890625 
Q 5.8125 47.609375 11.28125 51.796875 
Q 16.75 56 26.8125 56 
Q 31.78125 56 36.171875 55.265625 
Q 40.578125 54.546875 44.28125 53.078125 
z
" id="DejaVuSans-115"/>
     </defs>
     <g transform="translate(217.168594 335.860562)scale(0.1 -0.1)">
      <use xlink:href="#DejaVuSans-116"/>
      <use x="39.208984" xlink:href="#DejaVuSans-104"/>
      <use x="102.587891" xlink:href="#DejaVuSans-114"/>
      <use x="141.451172" xlink:href="#DejaVuSans-101"/>
      <use x="202.974609" xlink:href="#DejaVuSans-97"/>
      <use x="264.253906" xlink:href="#DejaVuSans-100"/>
      <use x="327.730469" xlink:href="#DejaVuSans-115"/>
     </g>
    </g>
   </g>
   <g id="matplotlib.axis_2">
    <g id="ytick_1">
     <g id="line2d_47">
      <path clip-path="url(#pb6704b001e)" d="M 57.6 303.340567 
L 414.72 303.340567 
" style="fill:none;stroke:#b0b0b0;stroke-dasharray:5.12,1.28,0.8,1.28;stroke-dashoffset:0;stroke-width:0.8;"/>
     </g>
     <g id="line2d_48">
      <defs>
       <path d="M 0 0 
L -3.5 0 
" id="m7e9bae2d2b" style="stroke:#000000;stroke-width:0.8;"/>
      </defs>
      <g>
       <use style="stroke:#000000;stroke-width:0.8;" x="57.6" xlink:href="#m7e9bae2d2b" y="303.340567"/>
      </g>
     </g>
     <g id="text_25">
      <!-- 0.5 -->
      <defs>
       <path d="M 10.6875 12.40625 
L 21 12.40625 
L 21 0 
L 10.6875 0 
z
" id="DejaVuSans-46"/>
      </defs>
      <g transform="translate(34.696875 307.139786)scale(0.1 -0.1)">
       <use xlink:href="#DejaVuSans-48"/>
       <use x="63.623047" xlink:href="#DejaVuSans-46"/>
       <use x="95.410156" xlink:href="#DejaVuSans-53"/>
      </g>
     </g>
    </g>
    <g id="ytick_2">
     <g id="line2d_49">
      <path clip-path="url(#pb6704b001e)" d="M 57.6 261.847899 
L 414.72 261.847899 
" style="fill:none;stroke:#b0b0b0;stroke-dasharray:5.12,1.28,0.8,1.28;stroke-dashoffset:0;stroke-width:0.8;"/>
     </g>
     <g id="line2d_50">
      <g>
       <use style="stroke:#000000;stroke-width:0.8;" x="57.6" xlink:href="#m7e9bae2d2b" y="261.847899"/>
      </g>
     </g>
     <g id="text_26">
      <!-- 1.0 -->
      <g transform="translate(34.696875 265.647117)scale(0.1 -0.1)">
       <use xlink:href="#DejaVuSans-49"/>
       <use x="63.623047" xlink:href="#DejaVuSans-46"/>
       <use x="95.410156" xlink:href="#DejaVuSans-48"/>
      </g>
     </g>
    </g>
    <g id="ytick_3">
     <g id="line2d_51">
      <path clip-path="url(#pb6704b001e)" d="M 57.6 220.35523 
L 414.72 220.35523 
" style="fill:none;stroke:#b0b0b0;stroke-dasharray:5.12,1.28,0.8,1.28;stroke-dashoffset:0;stroke-width:0.8;"/>
     </g>
     <g id="line2d_52">
      <g>
       <use style="stroke:#000000;stroke-width:0.8;" x="57.6" xlink:href="#m7e9bae2d2b" y="220.35523"/>
      </g>
     </g>
     <g id="text_27">
      <!-- 1.5 -->
      <g transform="translate(34.696875 224.154449)scale(0.1 -0.1)">
       <use xlink:href="#DejaVuSans-49"/>
       <use x="63.623047" xlink:href="#DejaVuSans-46"/>
       <use x="95.410156" xlink:href="#DejaVuSans-53"/>
      </g>
     </g>
    </g>
    <g id="ytick_4">
     <g id="line2d_53">
      <path clip-path="url(#pb6704b001e)" d="M 57.6 178.862562 
L 414.72 178.862562 
" style="fill:none;stroke:#b0b0b0;stroke-dasharray:5.12,1.28,0.8,1.28;stroke-dashoffset:0;stroke-width:0.8;"/>
     </g>
     <g id="line2d_54">
      <g>
       <use style="stroke:#000000;stroke-width:0.8;" x="57.6" xlink:href="#m7e9bae2d2b" y="178.862562"/>
      </g>
     </g>
     <g id="text_28">
      <!-- 2.0 -->
      <g transform="translate(34.696875 182.661781)scale(0.1 -0.1)">
       <use xlink:href="#DejaVuSans-50"/>
       <use x="63.623047" xlink:href="#DejaVuSans-46"/>
       <use x="95.410156" xlink:href="#DejaVuSans-48"/>
      </g>
     </g>
    </g>
    <g id="ytick_5">
     <g id="line2d_55">
      <path clip-path="url(#pb6704b001e)" d="M 57.6 137.369893 
L 414.72 137.369893 
" style="fill:none;stroke:#b0b0b0;stroke-dasharray:5.12,1.28,0.8,1.28;stroke-dashoffset:0;stroke-width:0.8;"/>
     </g>
     <g id="line2d_56">
      <g>
       <use style="stroke:#000000;stroke-width:0.8;" x="57.6" xlink:href="#m7e9bae2d2b" y="137.369893"/>
      </g>
     </g>
     <g id="text_29">
      <!-- 2.5 -->
      <g transform="translate(34.696875 141.169112)scale(0.1 -0.1)">
       <use xlink:href="#DejaVuSans-50"/>
       <use x="63.623047" xlink:href="#DejaVuSans-46"/>
       <use x="95.410156" xlink:href="#DejaVuSans-53"/>
      </g>
     </g>
    </g>
    <g id="ytick_6">
     <g id="line2d_57">
      <path clip-path="url(#pb6704b001e)" d="M 57.6 95.877225 
L 414.72 95.877225 
" style="fill:none;stroke:#b0b0b0;stroke-dasharray:5.12,1.28,0.8,1.28;stroke-dashoffset:0;stroke-width:0.8;"/>
     </g>
     <g id="line2d_58">
      <g>
       <use style="stroke:#000000;stroke-width:0.8;" x="57.6" xlink:href="#m7e9bae2d2b" y="95.877225"/>
      </g>
     </g>
     <g id="text_30">
      <!-- 3.0 -->
      <g transform="translate(34.696875 99.676444)scale(0.1 -0.1)">
       <use xlink:href="#DejaVuSans-51"/>
       <use x="63.623047" xlink:href="#DejaVuSans-46"/>
       <use x="95.410156" xlink:href="#DejaVuSans-48"/>
      </g>
     </g>
    </g>
    <g id="ytick_7">
     <g id="line2d_59">
      <path clip-path="url(#pb6704b001e)" d="M 57.6 54.384557 
L 414.72 54.384557 
" style="fill:none;stroke:#b0b0b0;stroke-dasharray:5.12,1.28,0.8,1.28;stroke-dashoffset:0;stroke-width:0.8;"/>
     </g>
     <g id="line2d_60">
      <g>
       <use style="stroke:#000000;stroke-width:0.8;" x="57.6" xlink:href="#m7e9bae2d2b" y="54.384557"/>
      </g>
     </g>
     <g id="text_31">
      <!-- 3.5 -->
      <g transform="translate(34.696875 58.183775)scale(0.1 -0.1)">
       <use xlink:href="#DejaVuSans-51"/>
       <use x="63.623047" xlink:href="#DejaVuSans-46"/>
       <use x="95.410156" xlink:href="#DejaVuSans-53"/>
      </g>
     </g>
    </g>
    <g id="text_32">
     <!-- speed up -->
     <defs>
      <path d="M 18.109375 8.203125 
L 18.109375 -20.796875 
L 9.078125 -20.796875 
L 9.078125 54.6875 
L 18.109375 54.6875 
L 18.109375 46.390625 
Q 20.953125 51.265625 25.265625 53.625 
Q 29.59375 56 35.59375 56 
Q 45.5625 56 51.78125 48.09375 
Q 58.015625 40.1875 58.015625 27.296875 
Q 58.015625 14.40625 51.78125 6.484375 
Q 45.5625 -1.421875 35.59375 -1.421875 
Q 29.59375 -1.421875 25.265625 0.953125 
Q 20.953125 3.328125 18.109375 8.203125 
z
M 48.6875 27.296875 
Q 48.6875 37.203125 44.609375 42.84375 
Q 40.53125 48.484375 33.40625 48.484375 
Q 26.265625 48.484375 22.1875 42.84375 
Q 18.109375 37.203125 18.109375 27.296875 
Q 18.109375 17.390625 22.1875 11.75 
Q 26.265625 6.109375 33.40625 6.109375 
Q 40.53125 6.109375 44.609375 11.75 
Q 48.6875 17.390625 48.6875 27.296875 
z
" id="DejaVuSans-112"/>
      <path id="DejaVuSans-32"/>
      <path d="M 8.5 21.578125 
L 8.5 54.6875 
L 17.484375 54.6875 
L 17.484375 21.921875 
Q 17.484375 14.15625 20.5 10.265625 
Q 23.53125 6.390625 29.59375 6.390625 
Q 36.859375 6.390625 41.078125 11.03125 
Q 45.3125 15.671875 45.3125 23.6875 
L 45.3125 54.6875 
L 54.296875 54.6875 
L 54.296875 0 
L 45.3125 0 
L 45.3125 8.40625 
Q 42.046875 3.421875 37.71875 1 
Q 33.40625 -1.421875 27.6875 -1.421875 
Q 18.265625 -1.421875 13.375 4.4375 
Q 8.5 10.296875 8.5 21.578125 
z
M 31.109375 56 
z
" id="DejaVuSans-117"/>
     </defs>
     <g transform="translate(28.617187 197.566281)rotate(-90)scale(0.1 -0.1)">
      <use xlink:href="#DejaVuSans-115"/>
      <use x="52.099609" xlink:href="#DejaVuSans-112"/>
      <use x="115.576172" xlink:href="#DejaVuSans-101"/>
      <use x="177.099609" xlink:href="#DejaVuSans-101"/>
      <use x="238.623047" xlink:href="#DejaVuSans-100"/>
      <use x="302.099609" xlink:href="#DejaVuSans-32"/>
      <use x="333.886719" xlink:href="#DejaVuSans-117"/>
      <use x="397.265625" xlink:href="#DejaVuSans-112"/>
     </g>
    </g>
   </g>
   <g id="line2d_61">
    <path clip-path="url(#pb6704b001e)" d="M 61.612584 295.488 
L 65.625169 258.947369 
L 69.637753 232.313655 
L 73.650337 210.508161 
L 77.662921 194.312759 
L 81.675506 178.69101 
L 85.68809 165.369761 
L 89.700674 149.61335 
L 93.713258 139.769391 
L 97.725843 130.253171 
L 101.738427 120.295275 
L 105.751011 110.570434 
L 109.763596 103.038217 
L 113.77618 99.343999 
L 117.788764 92.920416 
L 121.801348 90.764112 
L 125.813933 89.848327 
L 129.826517 84.615954 
L 133.839101 81.624168 
L 137.851685 79.814476 
L 141.86427 79.467145 
L 145.876854 78.22601 
L 149.889438 71.270637 
L 153.902022 68.118798 
L 157.914607 64.710552 
L 161.927191 66.427588 
L 165.939775 71.039487 
L 169.95236 71.204278 
L 173.964944 65.832475 
L 177.977528 60.266188 
L 181.990112 63.070295 
L 186.002697 58.580118 
L 190.015281 56.742355 
L 194.027865 59.219571 
L 198.040449 58.667275 
L 202.053034 56.251815 
L 206.065618 62.687858 
L 210.078202 54.372877 
L 214.090787 53.568 
L 218.103371 54.306036 
L 222.115955 65.667227 
L 226.128539 54.081847 
L 230.141124 55.684093 
L 234.153708 57.99004 
L 238.166292 53.921076 
L 242.178876 56.732034 
L 246.191461 56.708869 
L 250.204045 54.178138 
L 254.216629 56.416963 
L 258.229213 57.548143 
L 262.241798 56.4556 
L 266.254382 55.772458 
L 270.266966 57.726928 
L 274.279551 62.676615 
L 278.292135 61.912943 
L 282.304719 60.151343 
L 286.317303 61.607722 
L 290.329888 60.236248 
L 294.342472 59.739489 
L 298.355056 61.281305 
L 302.36764 64.555595 
L 306.380225 63.787158 
L 310.392809 61.390363 
L 314.405393 64.905245 
L 318.417978 63.755889 
L 322.430562 65.994021 
L 326.443146 65.111246 
L 330.45573 64.177713 
L 334.468315 63.194668 
L 338.480899 68.190211 
L 342.493483 67.561044 
L 346.506067 66.834271 
L 350.518652 67.48081 
L 354.531236 69.054587 
L 358.54382 69.729364 
L 362.556404 66.575587 
L 366.568989 69.541933 
L 370.581573 71.433038 
L 374.594157 68.34269 
L 378.606742 70.747856 
L 382.619326 70.039242 
L 386.63191 69.716858 
L 390.644494 72.958012 
L 394.657079 71.006714 
L 398.669663 70.751972 
L 402.682247 72.257663 
L 406.694831 74.406276 
L 410.707416 72.091568 
" style="fill:none;stroke:#0000ff;stroke-dasharray:1.5,2.475;stroke-dashoffset:0;stroke-width:1.5;"/>
    <defs>
     <path d="M 0 1.5 
C 0.397805 1.5 0.77937 1.341951 1.06066 1.06066 
C 1.341951 0.77937 1.5 0.397805 1.5 0 
C 1.5 -0.397805 1.341951 -0.77937 1.06066 -1.06066 
C 0.77937 -1.341951 0.397805 -1.5 0 -1.5 
C -0.397805 -1.5 -0.77937 -1.341951 -1.06066 -1.06066 
C -1.341951 -0.77937 -1.5 -0.397805 -1.5 0 
C -1.5 0.397805 -1.341951 0.77937 -1.06066 1.06066 
C -0.77937 1.341951 -0.397805 1.5 0 1.5 
z
" id="m4ee0e96d06" style="stroke:#0000ff;"/>
    </defs>
    <g clip-path="url(#pb6704b001e)">
     <use style="fill:#0000ff;stroke:#0000ff;" x="61.612584" xlink:href="#m4ee0e96d06" y="295.488"/>
     <use style="fill:#0000ff;stroke:#0000ff;" x="65.625169" xlink:href="#m4ee0e96d06" y="258.947369"/>
     <use style="fill:#0000ff;stroke:#0000ff;" x="69.637753" xlink:href="#m4ee0e96d06" y="232.313655"/>
     <use style="fill:#0000ff;stroke:#0000ff;" x="73.650337" xlink:href="#m4ee0e96d06" y="210.508161"/>
     <use style="fill:#0000ff;stroke:#0000ff;" x="77.662921" xlink:href="#m4ee0e96d06" y="194.312759"/>
     <use style="fill:#0000ff;stroke:#0000ff;" x="81.675506" xlink:href="#m4ee0e96d06" y="178.69101"/>
     <use style="fill:#0000ff;stroke:#0000ff;" x="85.68809" xlink:href="#m4ee0e96d06" y="165.369761"/>
     <use style="fill:#0000ff;stroke:#0000ff;" x="89.700674" xlink:href="#m4ee0e96d06" y="149.61335"/>
     <use style="fill:#0000ff;stroke:#0000ff;" x="93.713258" xlink:href="#m4ee0e96d06" y="139.769391"/>
     <use style="fill:#0000ff;stroke:#0000ff;" x="97.725843" xlink:href="#m4ee0e96d06" y="130.253171"/>
     <use style="fill:#0000ff;stroke:#0000ff;" x="101.738427" xlink:href="#m4ee0e96d06" y="120.295275"/>
     <use style="fill:#0000ff;stroke:#0000ff;" x="105.751011" xlink:href="#m4ee0e96d06" y="110.570434"/>
     <use style="fill:#0000ff;stroke:#0000ff;" x="109.763596" xlink:href="#m4ee0e96d06" y="103.038217"/>
     <use style="fill:#0000ff;stroke:#0000ff;" x="113.77618" xlink:href="#m4ee0e96d06" y="99.343999"/>
     <use style="fill:#0000ff;stroke:#0000ff;" x="117.788764" xlink:href="#m4ee0e96d06" y="92.920416"/>
     <use style="fill:#0000ff;stroke:#0000ff;" x="121.801348" xlink:href="#m4ee0e96d06" y="90.764112"/>
     <use style="fill:#0000ff;stroke:#0000ff;" x="125.813933" xlink:href="#m4ee0e96d06" y="89.848327"/>
     <use style="fill:#0000ff;stroke:#0000ff;" x="129.826517" xlink:href="#m4ee0e96d06" y="84.615954"/>
     <use style="fill:#0000ff;stroke:#0000ff;" x="133.839101" xlink:href="#m4ee0e96d06" y="81.624168"/>
     <use style="fill:#0000ff;stroke:#0000ff;" x="137.851685" xlink:href="#m4ee0e96d06" y="79.814476"/>
     <use style="fill:#0000ff;stroke:#0000ff;" x="141.86427" xlink:href="#m4ee0e96d06" y="79.467145"/>
     <use style="fill:#0000ff;stroke:#0000ff;" x="145.876854" xlink:href="#m4ee0e96d06" y="78.22601"/>
     <use style="fill:#0000ff;stroke:#0000ff;" x="149.889438" xlink:href="#m4ee0e96d06" y="71.270637"/>
     <use style="fill:#0000ff;stroke:#0000ff;" x="153.902022" xlink:href="#m4ee0e96d06" y="68.118798"/>
     <use style="fill:#0000ff;stroke:#0000ff;" x="157.914607" xlink:href="#m4ee0e96d06" y="64.710552"/>
     <use style="fill:#0000ff;stroke:#0000ff;" x="161.927191" xlink:href="#m4ee0e96d06" y="66.427588"/>
     <use style="fill:#0000ff;stroke:#0000ff;" x="165.939775" xlink:href="#m4ee0e96d06" y="71.039487"/>
     <use style="fill:#0000ff;stroke:#0000ff;" x="169.95236" xlink:href="#m4ee0e96d06" y="71.204278"/>
     <use style="fill:#0000ff;stroke:#0000ff;" x="173.964944" xlink:href="#m4ee0e96d06" y="65.832475"/>
     <use style="fill:#0000ff;stroke:#0000ff;" x="177.977528" xlink:href="#m4ee0e96d06" y="60.266188"/>
     <use style="fill:#0000ff;stroke:#0000ff;" x="181.990112" xlink:href="#m4ee0e96d06" y="63.070295"/>
     <use style="fill:#0000ff;stroke:#0000ff;" x="186.002697" xlink:href="#m4ee0e96d06" y="58.580118"/>
     <use style="fill:#0000ff;stroke:#0000ff;" x="190.015281" xlink:href="#m4ee0e96d06" y="56.742355"/>
     <use style="fill:#0000ff;stroke:#0000ff;" x="194.027865" xlink:href="#m4ee0e96d06" y="59.219571"/>
     <use style="fill:#0000ff;stroke:#0000ff;" x="198.040449" xlink:href="#m4ee0e96d06" y="58.667275"/>
     <use style="fill:#0000ff;stroke:#0000ff;" x="202.053034" xlink:href="#m4ee0e96d06" y="56.251815"/>
     <use style="fill:#0000ff;stroke:#0000ff;" x="206.065618" xlink:href="#m4ee0e96d06" y="62.687858"/>
     <use style="fill:#0000ff;stroke:#0000ff;" x="210.078202" xlink:href="#m4ee0e96d06" y="54.372877"/>
     <use style="fill:#0000ff;stroke:#0000ff;" x="214.090787" xlink:href="#m4ee0e96d06" y="53.568"/>
     <use style="fill:#0000ff;stroke:#0000ff;" x="218.103371" xlink:href="#m4ee0e96d06" y="54.306036"/>
     <use style="fill:#0000ff;stroke:#0000ff;" x="222.115955" xlink:href="#m4ee0e96d06" y="65.667227"/>
     <use style="fill:#0000ff;stroke:#0000ff;" x="226.128539" xlink:href="#m4ee0e96d06" y="54.081847"/>
     <use style="fill:#0000ff;stroke:#0000ff;" x="230.141124" xlink:href="#m4ee0e96d06" y="55.684093"/>
     <use style="fill:#0000ff;stroke:#0000ff;" x="234.153708" xlink:href="#m4ee0e96d06" y="57.99004"/>
     <use style="fill:#0000ff;stroke:#0000ff;" x="238.166292" xlink:href="#m4ee0e96d06" y="53.921076"/>
     <use style="fill:#0000ff;stroke:#0000ff;" x="242.178876" xlink:href="#m4ee0e96d06" y="56.732034"/>
     <use style="fill:#0000ff;stroke:#0000ff;" x="246.191461" xlink:href="#m4ee0e96d06" y="56.708869"/>
     <use style="fill:#0000ff;stroke:#0000ff;" x="250.204045" xlink:href="#m4ee0e96d06" y="54.178138"/>
     <use style="fill:#0000ff;stroke:#0000ff;" x="254.216629" xlink:href="#m4ee0e96d06" y="56.416963"/>
     <use style="fill:#0000ff;stroke:#0000ff;" x="258.229213" xlink:href="#m4ee0e96d06" y="57.548143"/>
     <use style="fill:#0000ff;stroke:#0000ff;" x="262.241798" xlink:href="#m4ee0e96d06" y="56.4556"/>
     <use style="fill:#0000ff;stroke:#0000ff;" x="266.254382" xlink:href="#m4ee0e96d06" y="55.772458"/>
     <use style="fill:#0000ff;stroke:#0000ff;" x="270.266966" xlink:href="#m4ee0e96d06" y="57.726928"/>
     <use style="fill:#0000ff;stroke:#0000ff;" x="274.279551" xlink:href="#m4ee0e96d06" y="62.676615"/>
     <use style="fill:#0000ff;stroke:#0000ff;" x="278.292135" xlink:href="#m4ee0e96d06" y="61.912943"/>
     <use style="fill:#0000ff;stroke:#0000ff;" x="282.304719" xlink:href="#m4ee0e96d06" y="60.151343"/>
     <use style="fill:#0000ff;stroke:#0000ff;" x="286.317303" xlink:href="#m4ee0e96d06" y="61.607722"/>
     <use style="fill:#0000ff;stroke:#0000ff;" x="290.329888" xlink:href="#m4ee0e96d06" y="60.236248"/>
     <use style="fill:#0000ff;stroke:#0000ff;" x="294.342472" xlink:href="#m4ee0e96d06" y="59.739489"/>
     <use style="fill:#0000ff;stroke:#0000ff;" x="298.355056" xlink:href="#m4ee0e96d06" y="61.281305"/>
     <use style="fill:#0000ff;stroke:#0000ff;" x="302.36764" xlink:href="#m4ee0e96d06" y="64.555595"/>
     <use style="fill:#0000ff;stroke:#0000ff;" x="306.380225" xlink:href="#m4ee0e96d06" y="63.787158"/>
     <use style="fill:#0000ff;stroke:#0000ff;" x="310.392809" xlink:href="#m4ee0e96d06" y="61.390363"/>
     <use style="fill:#0000ff;stroke:#0000ff;" x="314.405393" xlink:href="#m4ee0e96d06" y="64.905245"/>
     <use style="fill:#0000ff;stroke:#0000ff;" x="318.417978" xlink:href="#m4ee0e96d06" y="63.755889"/>
     <use style="fill:#0000ff;stroke:#0000ff;" x="322.430562" xlink:href="#m4ee0e96d06" y="65.994021"/>
     <use style="fill:#0000ff;stroke:#0000ff;" x="326.443146" xlink:href="#m4ee0e96d06" y="65.111246"/>
     <use style="fill:#0000ff;stroke:#0000ff;" x="330.45573" xlink:href="#m4ee0e96d06" y="64.177713"/>
     <use style="fill:#0000ff;stroke:#0000ff;" x="334.468315" xlink:href="#m4ee0e96d06" y="63.194668"/>
     <use style="fill:#0000ff;stroke:#0000ff;" x="338.480899" xlink:href="#m4ee0e96d06" y="68.190211"/>
     <use style="fill:#0000ff;stroke:#0000ff;" x="342.493483" xlink:href="#m4ee0e96d06" y="67.561044"/>
     <use style="fill:#0000ff;stroke:#0000ff;" x="346.506067" xlink:href="#m4ee0e96d06" y="66.834271"/>
     <use style="fill:#0000ff;stroke:#0000ff;" x="350.518652" xlink:href="#m4ee0e96d06" y="67.48081"/>
     <use style="fill:#0000ff;stroke:#0000ff;" x="354.531236" xlink:href="#m4ee0e96d06" y="69.054587"/>
     <use style="fill:#0000ff;stroke:#0000ff;" x="358.54382" xlink:href="#m4ee0e96d06" y="69.729364"/>
     <use style="fill:#0000ff;stroke:#0000ff;" x="362.556404" xlink:href="#m4ee0e96d06" y="66.575587"/>
     <use style="fill:#0000ff;stroke:#0000ff;" x="366.568989" xlink:href="#m4ee0e96d06" y="69.541933"/>
     <use style="fill:#0000ff;stroke:#0000ff;" x="370.581573" xlink:href="#m4ee0e96d06" y="71.433038"/>
     <use style="fill:#0000ff;stroke:#0000ff;" x="374.594157" xlink:href="#m4ee0e96d06" y="68.34269"/>
     <use style="fill:#0000ff;stroke:#0000ff;" x="378.606742" xlink:href="#m4ee0e96d06" y="70.747856"/>
     <use style="fill:#0000ff;stroke:#0000ff;" x="382.619326" xlink:href="#m4ee0e96d06" y="70.039242"/>
     <use style="fill:#0000ff;stroke:#0000ff;" x="386.63191" xlink:href="#m4ee0e96d06" y="69.716858"/>
     <use style="fill:#0000ff;stroke:#0000ff;" x="390.644494" xlink:href="#m4ee0e96d06" y="72.958012"/>
     <use style="fill:#0000ff;stroke:#0000ff;" x="394.657079" xlink:href="#m4ee0e96d06" y="71.006714"/>
     <use style="fill:#0000ff;stroke:#0000ff;" x="398.669663" xlink:href="#m4ee0e96d06" y="70.751972"/>
     <use style="fill:#0000ff;stroke:#0000ff;" x="402.682247" xlink:href="#m4ee0e96d06" y="72.257663"/>
     <use style="fill:#0000ff;stroke:#0000ff;" x="406.694831" xlink:href="#m4ee0e96d06" y="74.406276"/>
     <use style="fill:#0000ff;stroke:#0000ff;" x="410.707416" xlink:href="#m4ee0e96d06" y="72.091568"/>
    </g>
   </g>
   <g id="line2d_62">
    <path clip-path="url(#pb6704b001e)" d="M 61.612584 292.835246 
L 65.625169 253.579284 
L 69.637753 224.987341 
L 73.650337 206.745783 
L 77.662921 190.783389 
L 81.675506 175.64798 
L 85.68809 160.862711 
L 89.700674 148.422011 
L 93.713258 139.305001 
L 97.725843 129.404925 
L 101.738427 127.633718 
L 105.751011 119.867923 
L 109.763596 115.120454 
L 113.77618 114.320824 
L 117.788764 107.328144 
L 121.801348 106.524962 
L 125.813933 106.677493 
L 129.826517 106.171385 
L 133.839101 100.449665 
L 137.851685 100.19835 
L 141.86427 103.940249 
L 145.876854 102.259523 
L 149.889438 97.084536 
L 153.902022 94.839948 
L 157.914607 97.961218 
L 161.927191 102.946301 
L 165.939775 110.646196 
L 169.95236 106.904222 
L 173.964944 103.366542 
L 177.977528 97.027838 
L 181.990112 102.607338 
L 186.002697 95.922229 
L 190.015281 100.882557 
L 194.027865 99.394197 
L 198.040449 100.256216 
L 202.053034 102.364897 
L 206.065618 102.142251 
L 210.078202 97.539693 
L 214.090787 92.562716 
L 218.103371 96.606276 
L 222.115955 105.330045 
L 226.128539 95.547804 
L 230.141124 101.637549 
L 234.153708 100.770035 
L 238.166292 103.423253 
L 242.178876 105.654345 
L 246.191461 104.894043 
L 250.204045 104.173171 
L 254.216629 99.784827 
L 258.229213 104.620029 
L 262.241798 108.07859 
L 266.254382 102.785635 
L 270.266966 104.268543 
L 274.279551 101.794047 
L 278.292135 107.715264 
L 282.304719 109.371874 
L 286.317303 103.206479 
L 290.329888 114.276155 
L 294.342472 107.464387 
L 298.355056 105.667323 
L 302.36764 109.844763 
L 306.380225 112.286577 
L 310.392809 118.520114 
L 314.405393 109.265265 
L 318.417978 117.222254 
L 322.430562 115.430779 
L 326.443146 108.091091 
L 330.45573 114.0381 
L 334.468315 105.155039 
L 338.480899 116.218621 
L 342.493483 111.431804 
L 346.506067 119.006181 
L 350.518652 118.263353 
L 354.531236 118.547288 
L 358.54382 122.509517 
L 362.556404 121.209415 
L 366.568989 118.056644 
L 370.581573 114.193154 
L 374.594157 122.467227 
L 378.606742 115.274583 
L 382.619326 121.536408 
L 386.63191 110.778221 
L 390.644494 121.456854 
L 394.657079 118.240845 
L 398.669663 122.043841 
L 402.682247 121.003372 
L 406.694831 122.614321 
L 410.707416 117.052015 
" style="fill:none;stroke:#ff0000;stroke-dasharray:1.5,2.475;stroke-dashoffset:0;stroke-width:1.5;"/>
    <defs>
     <path d="M 0 1.5 
C 0.397805 1.5 0.77937 1.341951 1.06066 1.06066 
C 1.341951 0.77937 1.5 0.397805 1.5 0 
C 1.5 -0.397805 1.341951 -0.77937 1.06066 -1.06066 
C 0.77937 -1.341951 0.397805 -1.5 0 -1.5 
C -0.397805 -1.5 -0.77937 -1.341951 -1.06066 -1.06066 
C -1.341951 -0.77937 -1.5 -0.397805 -1.5 0 
C -1.5 0.397805 -1.341951 0.77937 -1.06066 1.06066 
C -0.77937 1.341951 -0.397805 1.5 0 1.5 
z
" id="m4f73261066" style="stroke:#ff0000;"/>
    </defs>
    <g clip-path="url(#pb6704b001e)">
     <use style="fill:#ff0000;stroke:#ff0000;" x="61.612584" xlink:href="#m4f73261066" y="292.835246"/>
     <use style="fill:#ff0000;stroke:#ff0000;" x="65.625169" xlink:href="#m4f73261066" y="253.579284"/>
     <use style="fill:#ff0000;stroke:#ff0000;" x="69.637753" xlink:href="#m4f73261066" y="224.987341"/>
     <use style="fill:#ff0000;stroke:#ff0000;" x="73.650337" xlink:href="#m4f73261066" y="206.745783"/>
     <use style="fill:#ff0000;stroke:#ff0000;" x="77.662921" xlink:href="#m4f73261066" y="190.783389"/>
     <use style="fill:#ff0000;stroke:#ff0000;" x="81.675506" xlink:href="#m4f73261066" y="175.64798"/>
     <use style="fill:#ff0000;stroke:#ff0000;" x="85.68809" xlink:href="#m4f73261066" y="160.862711"/>
     <use style="fill:#ff0000;stroke:#ff0000;" x="89.700674" xlink:href="#m4f73261066" y="148.422011"/>
     <use style="fill:#ff0000;stroke:#ff0000;" x="93.713258" xlink:href="#m4f73261066" y="139.305001"/>
     <use style="fill:#ff0000;stroke:#ff0000;" x="97.725843" xlink:href="#m4f73261066" y="129.404925"/>
     <use style="fill:#ff0000;stroke:#ff0000;" x="101.738427" xlink:href="#m4f73261066" y="127.633718"/>
     <use style="fill:#ff0000;stroke:#ff0000;" x="105.751011" xlink:href="#m4f73261066" y="119.867923"/>
     <use style="fill:#ff0000;stroke:#ff0000;" x="109.763596" xlink:href="#m4f73261066" y="115.120454"/>
     <use style="fill:#ff0000;stroke:#ff0000;" x="113.77618" xlink:href="#m4f73261066" y="114.320824"/>
     <use style="fill:#ff0000;stroke:#ff0000;" x="117.788764" xlink:href="#m4f73261066" y="107.328144"/>
     <use style="fill:#ff0000;stroke:#ff0000;" x="121.801348" xlink:href="#m4f73261066" y="106.524962"/>
     <use style="fill:#ff0000;stroke:#ff0000;" x="125.813933" xlink:href="#m4f73261066" y="106.677493"/>
     <use style="fill:#ff0000;stroke:#ff0000;" x="129.826517" xlink:href="#m4f73261066" y="106.171385"/>
     <use style="fill:#ff0000;stroke:#ff0000;" x="133.839101" xlink:href="#m4f73261066" y="100.449665"/>
     <use style="fill:#ff0000;stroke:#ff0000;" x="137.851685" xlink:href="#m4f73261066" y="100.19835"/>
     <use style="fill:#ff0000;stroke:#ff0000;" x="141.86427" xlink:href="#m4f73261066" y="103.940249"/>
     <use style="fill:#ff0000;stroke:#ff0000;" x="145.876854" xlink:href="#m4f73261066" y="102.259523"/>
     <use style="fill:#ff0000;stroke:#ff0000;" x="149.889438" xlink:href="#m4f73261066" y="97.084536"/>
     <use style="fill:#ff0000;stroke:#ff0000;" x="153.902022" xlink:href="#m4f73261066" y="94.839948"/>
     <use style="fill:#ff0000;stroke:#ff0000;" x="157.914607" xlink:href="#m4f73261066" y="97.961218"/>
     <use style="fill:#ff0000;stroke:#ff0000;" x="161.927191" xlink:href="#m4f73261066" y="102.946301"/>
     <use style="fill:#ff0000;stroke:#ff0000;" x="165.939775" xlink:href="#m4f73261066" y="110.646196"/>
     <use style="fill:#ff0000;stroke:#ff0000;" x="169.95236" xlink:href="#m4f73261066" y="106.904222"/>
     <use style="fill:#ff0000;stroke:#ff0000;" x="173.964944" xlink:href="#m4f73261066" y="103.366542"/>
     <use style="fill:#ff0000;stroke:#ff0000;" x="177.977528" xlink:href="#m4f73261066" y="97.027838"/>
     <use style="fill:#ff0000;stroke:#ff0000;" x="181.990112" xlink:href="#m4f73261066" y="102.607338"/>
     <use style="fill:#ff0000;stroke:#ff0000;" x="186.002697" xlink:href="#m4f73261066" y="95.922229"/>
     <use style="fill:#ff0000;stroke:#ff0000;" x="190.015281" xlink:href="#m4f73261066" y="100.882557"/>
     <use style="fill:#ff0000;stroke:#ff0000;" x="194.027865" xlink:href="#m4f73261066" y="99.394197"/>
     <use style="fill:#ff0000;stroke:#ff0000;" x="198.040449" xlink:href="#m4f73261066" y="100.256216"/>
     <use style="fill:#ff0000;stroke:#ff0000;" x="202.053034" xlink:href="#m4f73261066" y="102.364897"/>
     <use style="fill:#ff0000;stroke:#ff0000;" x="206.065618" xlink:href="#m4f73261066" y="102.142251"/>
     <use style="fill:#ff0000;stroke:#ff0000;" x="210.078202" xlink:href="#m4f73261066" y="97.539693"/>
     <use style="fill:#ff0000;stroke:#ff0000;" x="214.090787" xlink:href="#m4f73261066" y="92.562716"/>
     <use style="fill:#ff0000;stroke:#ff0000;" x="218.103371" xlink:href="#m4f73261066" y="96.606276"/>
     <use style="fill:#ff0000;stroke:#ff0000;" x="222.115955" xlink:href="#m4f73261066" y="105.330045"/>
     <use style="fill:#ff0000;stroke:#ff0000;" x="226.128539" xlink:href="#m4f73261066" y="95.547804"/>
     <use style="fill:#ff0000;stroke:#ff0000;" x="230.141124" xlink:href="#m4f73261066" y="101.637549"/>
     <use style="fill:#ff0000;stroke:#ff0000;" x="234.153708" xlink:href="#m4f73261066" y="100.770035"/>
     <use style="fill:#ff0000;stroke:#ff0000;" x="238.166292" xlink:href="#m4f73261066" y="103.423253"/>
     <use style="fill:#ff0000;stroke:#ff0000;" x="242.178876" xlink:href="#m4f73261066" y="105.654345"/>
     <use style="fill:#ff0000;stroke:#ff0000;" x="246.191461" xlink:href="#m4f73261066" y="104.894043"/>
     <use style="fill:#ff0000;stroke:#ff0000;" x="250.204045" xlink:href="#m4f73261066" y="104.173171"/>
     <use style="fill:#ff0000;stroke:#ff0000;" x="254.216629" xlink:href="#m4f73261066" y="99.784827"/>
     <use style="fill:#ff0000;stroke:#ff0000;" x="258.229213" xlink:href="#m4f73261066" y="104.620029"/>
     <use style="fill:#ff0000;stroke:#ff0000;" x="262.241798" xlink:href="#m4f73261066" y="108.07859"/>
     <use style="fill:#ff0000;stroke:#ff0000;" x="266.254382" xlink:href="#m4f73261066" y="102.785635"/>
     <use style="fill:#ff0000;stroke:#ff0000;" x="270.266966" xlink:href="#m4f73261066" y="104.268543"/>
     <use style="fill:#ff0000;stroke:#ff0000;" x="274.279551" xlink:href="#m4f73261066" y="101.794047"/>
     <use style="fill:#ff0000;stroke:#ff0000;" x="278.292135" xlink:href="#m4f73261066" y="107.715264"/>
     <use style="fill:#ff0000;stroke:#ff0000;" x="282.304719" xlink:href="#m4f73261066" y="109.371874"/>
     <use style="fill:#ff0000;stroke:#ff0000;" x="286.317303" xlink:href="#m4f73261066" y="103.206479"/>
     <use style="fill:#ff0000;stroke:#ff0000;" x="290.329888" xlink:href="#m4f73261066" y="114.276155"/>
     <use style="fill:#ff0000;stroke:#ff0000;" x="294.342472" xlink:href="#m4f73261066" y="107.464387"/>
     <use style="fill:#ff0000;stroke:#ff0000;" x="298.355056" xlink:href="#m4f73261066" y="105.667323"/>
     <use style="fill:#ff0000;stroke:#ff0000;" x="302.36764" xlink:href="#m4f73261066" y="109.844763"/>
     <use style="fill:#ff0000;stroke:#ff0000;" x="306.380225" xlink:href="#m4f73261066" y="112.286577"/>
     <use style="fill:#ff0000;stroke:#ff0000;" x="310.392809" xlink:href="#m4f73261066" y="118.520114"/>
     <use style="fill:#ff0000;stroke:#ff0000;" x="314.405393" xlink:href="#m4f73261066" y="109.265265"/>
     <use style="fill:#ff0000;stroke:#ff0000;" x="318.417978" xlink:href="#m4f73261066" y="117.222254"/>
     <use style="fill:#ff0000;stroke:#ff0000;" x="322.430562" xlink:href="#m4f73261066" y="115.430779"/>
     <use style="fill:#ff0000;stroke:#ff0000;" x="326.443146" xlink:href="#m4f73261066" y="108.091091"/>
     <use style="fill:#ff0000;stroke:#ff0000;" x="330.45573" xlink:href="#m4f73261066" y="114.0381"/>
     <use style="fill:#ff0000;stroke:#ff0000;" x="334.468315" xlink:href="#m4f73261066" y="105.155039"/>
     <use style="fill:#ff0000;stroke:#ff0000;" x="338.480899" xlink:href="#m4f73261066" y="116.218621"/>
     <use style="fill:#ff0000;stroke:#ff0000;" x="342.493483" xlink:href="#m4f73261066" y="111.431804"/>
     <use style="fill:#ff0000;stroke:#ff0000;" x="346.506067" xlink:href="#m4f73261066" y="119.006181"/>
     <use style="fill:#ff0000;stroke:#ff0000;" x="350.518652" xlink:href="#m4f73261066" y="118.263353"/>
     <use style="fill:#ff0000;stroke:#ff0000;" x="354.531236" xlink:href="#m4f73261066" y="118.547288"/>
     <use style="fill:#ff0000;stroke:#ff0000;" x="358.54382" xlink:href="#m4f73261066" y="122.509517"/>
     <use style="fill:#ff0000;stroke:#ff0000;" x="362.556404" xlink:href="#m4f73261066" y="121.209415"/>
     <use style="fill:#ff0000;stroke:#ff0000;" x="366.568989" xlink:href="#m4f73261066" y="118.056644"/>
     <use style="fill:#ff0000;stroke:#ff0000;" x="370.581573" xlink:href="#m4f73261066" y="114.193154"/>
     <use style="fill:#ff0000;stroke:#ff0000;" x="374.594157" xlink:href="#m4f73261066" y="122.467227"/>
     <use style="fill:#ff0000;stroke:#ff0000;" x="378.606742" xlink:href="#m4f73261066" y="115.274583"/>
     <use style="fill:#ff0000;stroke:#ff0000;" x="382.619326" xlink:href="#m4f73261066" y="121.536408"/>
     <use style="fill:#ff0000;stroke:#ff0000;" x="386.63191" xlink:href="#m4f73261066" y="110.778221"/>
     <use style="fill:#ff0000;stroke:#ff0000;" x="390.644494" xlink:href="#m4f73261066" y="121.456854"/>
     <use style="fill:#ff0000;stroke:#ff0000;" x="394.657079" xlink:href="#m4f73261066" y="118.240845"/>
     <use style="fill:#ff0000;stroke:#ff0000;" x="398.669663" xlink:href="#m4f73261066" y="122.043841"/>
     <use style="fill:#ff0000;stroke:#ff0000;" x="402.682247" xlink:href="#m4f73261066" y="121.003372"/>
     <use style="fill:#ff0000;stroke:#ff0000;" x="406.694831" xlink:href="#m4f73261066" y="122.614321"/>
     <use style="fill:#ff0000;stroke:#ff0000;" x="410.707416" xlink:href="#m4f73261066" y="117.052015"/>
    </g>
   </g>
   <g id="line2d_63">
    <path clip-path="url(#pb6704b001e)" d="M 61.612584 294.161623 
L 65.625169 256.263326 
L 69.637753 228.650498 
L 73.650337 208.626972 
L 77.662921 192.548074 
L 81.675506 177.169495 
L 85.68809 163.116236 
L 89.700674 149.017681 
L 93.713258 139.537196 
L 97.725843 129.829048 
L 101.738427 123.964496 
L 105.751011 115.219178 
L 109.763596 109.079336 
L 113.77618 106.832412 
L 117.788764 100.12428 
L 121.801348 98.644537 
L 125.813933 98.26291 
L 129.826517 95.393669 
L 133.839101 91.036917 
L 137.851685 90.006413 
L 141.86427 91.703697 
L 145.876854 90.242766 
L 149.889438 84.177587 
L 153.902022 81.479373 
L 157.914607 81.335885 
L 161.927191 84.686945 
L 165.939775 90.842842 
L 169.95236 89.05425 
L 173.964944 84.599509 
L 177.977528 78.647013 
L 181.990112 82.838816 
L 186.002697 77.251174 
L 190.015281 78.812456 
L 194.027865 79.306884 
L 198.040449 79.461745 
L 202.053034 79.308356 
L 206.065618 82.415054 
L 210.078202 75.956285 
L 214.090787 73.065358 
L 218.103371 75.456156 
L 222.115955 85.498636 
L 226.128539 74.814825 
L 230.141124 78.660821 
L 234.153708 79.380037 
L 238.166292 78.672165 
L 242.178876 81.193189 
L 246.191461 80.801456 
L 250.204045 79.175655 
L 254.216629 78.100895 
L 258.229213 81.084086 
L 262.241798 82.267095 
L 266.254382 79.279047 
L 270.266966 80.997735 
L 274.279551 82.235331 
L 278.292135 84.814104 
L 282.304719 84.761609 
L 286.317303 82.4071 
L 290.329888 87.256201 
L 294.342472 83.601938 
L 298.355056 83.474314 
L 302.36764 87.200179 
L 306.380225 88.036868 
L 310.392809 89.955239 
L 314.405393 87.085255 
L 318.417978 90.489072 
L 322.430562 90.7124 
L 326.443146 86.601168 
L 330.45573 89.107906 
L 334.468315 84.174854 
L 338.480899 92.204416 
L 342.493483 89.496424 
L 346.506067 92.920226 
L 350.518652 92.872082 
L 354.531236 93.800937 
L 358.54382 96.119441 
L 362.556404 93.892501 
L 366.568989 93.799288 
L 370.581573 92.813096 
L 374.594157 95.404958 
L 378.606742 93.011219 
L 382.619326 95.787825 
L 386.63191 90.247539 
L 390.644494 97.207433 
L 394.657079 94.62378 
L 398.669663 96.397907 
L 402.682247 96.630518 
L 406.694831 98.510298 
L 410.707416 94.571792 
" style="fill:none;stroke:#008000;stroke-dasharray:1.5,2.475;stroke-dashoffset:0;stroke-width:1.5;"/>
    <defs>
     <path d="M 0 1.5 
C 0.397805 1.5 0.77937 1.341951 1.06066 1.06066 
C 1.341951 0.77937 1.5 0.397805 1.5 0 
C 1.5 -0.397805 1.341951 -0.77937 1.06066 -1.06066 
C 0.77937 -1.341951 0.397805 -1.5 0 -1.5 
C -0.397805 -1.5 -0.77937 -1.341951 -1.06066 -1.06066 
C -1.341951 -0.77937 -1.5 -0.397805 -1.5 0 
C -1.5 0.397805 -1.341951 0.77937 -1.06066 1.06066 
C -0.77937 1.341951 -0.397805 1.5 0 1.5 
z
" id="m29e0c0f993" style="stroke:#008000;"/>
    </defs>
    <g clip-path="url(#pb6704b001e)">
     <use style="fill:#008000;stroke:#008000;" x="61.612584" xlink:href="#m29e0c0f993" y="294.161623"/>
     <use style="fill:#008000;stroke:#008000;" x="65.625169" xlink:href="#m29e0c0f993" y="256.263326"/>
     <use style="fill:#008000;stroke:#008000;" x="69.637753" xlink:href="#m29e0c0f993" y="228.650498"/>
     <use style="fill:#008000;stroke:#008000;" x="73.650337" xlink:href="#m29e0c0f993" y="208.626972"/>
     <use style="fill:#008000;stroke:#008000;" x="77.662921" xlink:href="#m29e0c0f993" y="192.548074"/>
     <use style="fill:#008000;stroke:#008000;" x="81.675506" xlink:href="#m29e0c0f993" y="177.169495"/>
     <use style="fill:#008000;stroke:#008000;" x="85.68809" xlink:href="#m29e0c0f993" y="163.116236"/>
     <use style="fill:#008000;stroke:#008000;" x="89.700674" xlink:href="#m29e0c0f993" y="149.017681"/>
     <use style="fill:#008000;stroke:#008000;" x="93.713258" xlink:href="#m29e0c0f993" y="139.537196"/>
     <use style="fill:#008000;stroke:#008000;" x="97.725843" xlink:href="#m29e0c0f993" y="129.829048"/>
     <use style="fill:#008000;stroke:#008000;" x="101.738427" xlink:href="#m29e0c0f993" y="123.964496"/>
     <use style="fill:#008000;stroke:#008000;" x="105.751011" xlink:href="#m29e0c0f993" y="115.219178"/>
     <use style="fill:#008000;stroke:#008000;" x="109.763596" xlink:href="#m29e0c0f993" y="109.079336"/>
     <use style="fill:#008000;stroke:#008000;" x="113.77618" xlink:href="#m29e0c0f993" y="106.832412"/>
     <use style="fill:#008000;stroke:#008000;" x="117.788764" xlink:href="#m29e0c0f993" y="100.12428"/>
     <use style="fill:#008000;stroke:#008000;" x="121.801348" xlink:href="#m29e0c0f993" y="98.644537"/>
     <use style="fill:#008000;stroke:#008000;" x="125.813933" xlink:href="#m29e0c0f993" y="98.26291"/>
     <use style="fill:#008000;stroke:#008000;" x="129.826517" xlink:href="#m29e0c0f993" y="95.393669"/>
     <use style="fill:#008000;stroke:#008000;" x="133.839101" xlink:href="#m29e0c0f993" y="91.036917"/>
     <use style="fill:#008000;stroke:#008000;" x="137.851685" xlink:href="#m29e0c0f993" y="90.006413"/>
     <use style="fill:#008000;stroke:#008000;" x="141.86427" xlink:href="#m29e0c0f993" y="91.703697"/>
     <use style="fill:#008000;stroke:#008000;" x="145.876854" xlink:href="#m29e0c0f993" y="90.242766"/>
     <use style="fill:#008000;stroke:#008000;" x="149.889438" xlink:href="#m29e0c0f993" y="84.177587"/>
     <use style="fill:#008000;stroke:#008000;" x="153.902022" xlink:href="#m29e0c0f993" y="81.479373"/>
     <use style="fill:#008000;stroke:#008000;" x="157.914607" xlink:href="#m29e0c0f993" y="81.335885"/>
     <use style="fill:#008000;stroke:#008000;" x="161.927191" xlink:href="#m29e0c0f993" y="84.686945"/>
     <use style="fill:#008000;stroke:#008000;" x="165.939775" xlink:href="#m29e0c0f993" y="90.842842"/>
     <use style="fill:#008000;stroke:#008000;" x="169.95236" xlink:href="#m29e0c0f993" y="89.05425"/>
     <use style="fill:#008000;stroke:#008000;" x="173.964944" xlink:href="#m29e0c0f993" y="84.599509"/>
     <use style="fill:#008000;stroke:#008000;" x="177.977528" xlink:href="#m29e0c0f993" y="78.647013"/>
     <use style="fill:#008000;stroke:#008000;" x="181.990112" xlink:href="#m29e0c0f993" y="82.838816"/>
     <use style="fill:#008000;stroke:#008000;" x="186.002697" xlink:href="#m29e0c0f993" y="77.251174"/>
     <use style="fill:#008000;stroke:#008000;" x="190.015281" xlink:href="#m29e0c0f993" y="78.812456"/>
     <use style="fill:#008000;stroke:#008000;" x="194.027865" xlink:href="#m29e0c0f993" y="79.306884"/>
     <use style="fill:#008000;stroke:#008000;" x="198.040449" xlink:href="#m29e0c0f993" y="79.461745"/>
     <use style="fill:#008000;stroke:#008000;" x="202.053034" xlink:href="#m29e0c0f993" y="79.308356"/>
     <use style="fill:#008000;stroke:#008000;" x="206.065618" xlink:href="#m29e0c0f993" y="82.415054"/>
     <use style="fill:#008000;stroke:#008000;" x="210.078202" xlink:href="#m29e0c0f993" y="75.956285"/>
     <use style="fill:#008000;stroke:#008000;" x="214.090787" xlink:href="#m29e0c0f993" y="73.065358"/>
     <use style="fill:#008000;stroke:#008000;" x="218.103371" xlink:href="#m29e0c0f993" y="75.456156"/>
     <use style="fill:#008000;stroke:#008000;" x="222.115955" xlink:href="#m29e0c0f993" y="85.498636"/>
     <use style="fill:#008000;stroke:#008000;" x="226.128539" xlink:href="#m29e0c0f993" y="74.814825"/>
     <use style="fill:#008000;stroke:#008000;" x="230.141124" xlink:href="#m29e0c0f993" y="78.660821"/>
     <use style="fill:#008000;stroke:#008000;" x="234.153708" xlink:href="#m29e0c0f993" y="79.380037"/>
     <use style="fill:#008000;stroke:#008000;" x="238.166292" xlink:href="#m29e0c0f993" y="78.672165"/>
     <use style="fill:#008000;stroke:#008000;" x="242.178876" xlink:href="#m29e0c0f993" y="81.193189"/>
     <use style="fill:#008000;stroke:#008000;" x="246.191461" xlink:href="#m29e0c0f993" y="80.801456"/>
     <use style="fill:#008000;stroke:#008000;" x="250.204045" xlink:href="#m29e0c0f993" y="79.175655"/>
     <use style="fill:#008000;stroke:#008000;" x="254.216629" xlink:href="#m29e0c0f993" y="78.100895"/>
     <use style="fill:#008000;stroke:#008000;" x="258.229213" xlink:href="#m29e0c0f993" y="81.084086"/>
     <use style="fill:#008000;stroke:#008000;" x="262.241798" xlink:href="#m29e0c0f993" y="82.267095"/>
     <use style="fill:#008000;stroke:#008000;" x="266.254382" xlink:href="#m29e0c0f993" y="79.279047"/>
     <use style="fill:#008000;stroke:#008000;" x="270.266966" xlink:href="#m29e0c0f993" y="80.997735"/>
     <use style="fill:#008000;stroke:#008000;" x="274.279551" xlink:href="#m29e0c0f993" y="82.235331"/>
     <use style="fill:#008000;stroke:#008000;" x="278.292135" xlink:href="#m29e0c0f993" y="84.814104"/>
     <use style="fill:#008000;stroke:#008000;" x="282.304719" xlink:href="#m29e0c0f993" y="84.761609"/>
     <use style="fill:#008000;stroke:#008000;" x="286.317303" xlink:href="#m29e0c0f993" y="82.4071"/>
     <use style="fill:#008000;stroke:#008000;" x="290.329888" xlink:href="#m29e0c0f993" y="87.256201"/>
     <use style="fill:#008000;stroke:#008000;" x="294.342472" xlink:href="#m29e0c0f993" y="83.601938"/>
     <use style="fill:#008000;stroke:#008000;" x="298.355056" xlink:href="#m29e0c0f993" y="83.474314"/>
     <use style="fill:#008000;stroke:#008000;" x="302.36764" xlink:href="#m29e0c0f993" y="87.200179"/>
     <use style="fill:#008000;stroke:#008000;" x="306.380225" xlink:href="#m29e0c0f993" y="88.036868"/>
     <use style="fill:#008000;stroke:#008000;" x="310.392809" xlink:href="#m29e0c0f993" y="89.955239"/>
     <use style="fill:#008000;stroke:#008000;" x="314.405393" xlink:href="#m29e0c0f993" y="87.085255"/>
     <use style="fill:#008000;stroke:#008000;" x="318.417978" xlink:href="#m29e0c0f993" y="90.489072"/>
     <use style="fill:#008000;stroke:#008000;" x="322.430562" xlink:href="#m29e0c0f993" y="90.7124"/>
     <use style="fill:#008000;stroke:#008000;" x="326.443146" xlink:href="#m29e0c0f993" y="86.601168"/>
     <use style="fill:#008000;stroke:#008000;" x="330.45573" xlink:href="#m29e0c0f993" y="89.107906"/>
     <use style="fill:#008000;stroke:#008000;" x="334.468315" xlink:href="#m29e0c0f993" y="84.174854"/>
     <use style="fill:#008000;stroke:#008000;" x="338.480899" xlink:href="#m29e0c0f993" y="92.204416"/>
     <use style="fill:#008000;stroke:#008000;" x="342.493483" xlink:href="#m29e0c0f993" y="89.496424"/>
     <use style="fill:#008000;stroke:#008000;" x="346.506067" xlink:href="#m29e0c0f993" y="92.920226"/>
     <use style="fill:#008000;stroke:#008000;" x="350.518652" xlink:href="#m29e0c0f993" y="92.872082"/>
     <use style="fill:#008000;stroke:#008000;" x="354.531236" xlink:href="#m29e0c0f993" y="93.800937"/>
     <use style="fill:#008000;stroke:#008000;" x="358.54382" xlink:href="#m29e0c0f993" y="96.119441"/>
     <use style="fill:#008000;stroke:#008000;" x="362.556404" xlink:href="#m29e0c0f993" y="93.892501"/>
     <use style="fill:#008000;stroke:#008000;" x="366.568989" xlink:href="#m29e0c0f993" y="93.799288"/>
     <use style="fill:#008000;stroke:#008000;" x="370.581573" xlink:href="#m29e0c0f993" y="92.813096"/>
     <use style="fill:#008000;stroke:#008000;" x="374.594157" xlink:href="#m29e0c0f993" y="95.404958"/>
     <use style="fill:#008000;stroke:#008000;" x="378.606742" xlink:href="#m29e0c0f993" y="93.011219"/>
     <use style="fill:#008000;stroke:#008000;" x="382.619326" xlink:href="#m29e0c0f993" y="95.787825"/>
     <use style="fill:#008000;stroke:#008000;" x="386.63191" xlink:href="#m29e0c0f993" y="90.247539"/>
     <use style="fill:#008000;stroke:#008000;" x="390.644494" xlink:href="#m29e0c0f993" y="97.207433"/>
     <use style="fill:#008000;stroke:#008000;" x="394.657079" xlink:href="#m29e0c0f993" y="94.62378"/>
     <use style="fill:#008000;stroke:#008000;" x="398.669663" xlink:href="#m29e0c0f993" y="96.397907"/>
     <use style="fill:#008000;stroke:#008000;" x="402.682247" xlink:href="#m29e0c0f993" y="96.630518"/>
     <use style="fill:#008000;stroke:#008000;" x="406.694831" xlink:href="#m29e0c0f993" y="98.510298"/>
     <use style="fill:#008000;stroke:#008000;" x="410.707416" xlink:href="#m29e0c0f993" y="94.571792"/>
    </g>
   </g>
   <g id="patch_3">
    <path d="M 57.6 307.584 
L 57.6 41.472 
" style="fill:none;stroke:#000000;stroke-linecap:square;stroke-linejoin:miter;stroke-width:0.8;"/>
   </g>
   <g id="patch_4">
    <path d="M 414.72 307.584 
L 414.72 41.472 
" style="fill:none;stroke:#000000;stroke-linecap:square;stroke-linejoin:miter;stroke-width:0.8;"/>
   </g>
   <g id="patch_5">
    <path d="M 57.6 307.584 
L 414.72 307.584 
" style="fill:none;stroke:#000000;stroke-linecap:square;stroke-linejoin:miter;stroke-width:0.8;"/>
   </g>
   <g id="patch_6">
    <path d="M 57.6 41.472 
L 414.72 41.472 
" style="fill:none;stroke:#000000;stroke-linecap:square;stroke-linejoin:miter;stroke-width:0.8;"/>
   </g>
   <g id="text_33">
    <!-- tbb::parallel_sort O2 OMP AVX2 on pre_transpose29 -->
    <defs>
     <path d="M 48.6875 27.296875 
Q 48.6875 37.203125 44.609375 42.84375 
Q 40.53125 48.484375 33.40625 48.484375 
Q 26.265625 48.484375 22.1875 42.84375 
Q 18.109375 37.203125 18.109375 27.296875 
Q 18.109375 17.390625 22.1875 11.75 
Q 26.265625 6.109375 33.40625 6.109375 
Q 40.53125 6.109375 44.609375 11.75 
Q 48.6875 17.390625 48.6875 27.296875 
z
M 18.109375 46.390625 
Q 20.953125 51.265625 25.265625 53.625 
Q 29.59375 56 35.59375 56 
Q 45.5625 56 51.78125 48.09375 
Q 58.015625 40.1875 58.015625 27.296875 
Q 58.015625 14.40625 51.78125 6.484375 
Q 45.5625 -1.421875 35.59375 -1.421875 
Q 29.59375 -1.421875 25.265625 0.953125 
Q 20.953125 3.328125 18.109375 8.203125 
L 18.109375 0 
L 9.078125 0 
L 9.078125 75.984375 
L 18.109375 75.984375 
z
" id="DejaVuSans-98"/>
     <path d="M 11.71875 12.40625 
L 22.015625 12.40625 
L 22.015625 0 
L 11.71875 0 
z
M 11.71875 51.703125 
L 22.015625 51.703125 
L 22.015625 39.3125 
L 11.71875 39.3125 
z
" id="DejaVuSans-58"/>
     <path d="M 9.421875 75.984375 
L 18.40625 75.984375 
L 18.40625 0 
L 9.421875 0 
z
" id="DejaVuSans-108"/>
     <path d="M 50.984375 -16.609375 
L 50.984375 -23.578125 
L -0.984375 -23.578125 
L -0.984375 -16.609375 
z
" id="DejaVuSans-95"/>
     <path d="M 30.609375 48.390625 
Q 23.390625 48.390625 19.1875 42.75 
Q 14.984375 37.109375 14.984375 27.296875 
Q 14.984375 17.484375 19.15625 11.84375 
Q 23.34375 6.203125 30.609375 6.203125 
Q 37.796875 6.203125 41.984375 11.859375 
Q 46.1875 17.53125 46.1875 27.296875 
Q 46.1875 37.015625 41.984375 42.703125 
Q 37.796875 48.390625 30.609375 48.390625 
z
M 30.609375 56 
Q 42.328125 56 49.015625 48.375 
Q 55.71875 40.765625 55.71875 27.296875 
Q 55.71875 13.875 49.015625 6.21875 
Q 42.328125 -1.421875 30.609375 -1.421875 
Q 18.84375 -1.421875 12.171875 6.21875 
Q 5.515625 13.875 5.515625 27.296875 
Q 5.515625 40.765625 12.171875 48.375 
Q 18.84375 56 30.609375 56 
z
" id="DejaVuSans-111"/>
     <path d="M 39.40625 66.21875 
Q 28.65625 66.21875 22.328125 58.203125 
Q 16.015625 50.203125 16.015625 36.375 
Q 16.015625 22.609375 22.328125 14.59375 
Q 28.65625 6.59375 39.40625 6.59375 
Q 50.140625 6.59375 56.421875 14.59375 
Q 62.703125 22.609375 62.703125 36.375 
Q 62.703125 50.203125 56.421875 58.203125 
Q 50.140625 66.21875 39.40625 66.21875 
z
M 39.40625 74.21875 
Q 54.734375 74.21875 63.90625 63.9375 
Q 73.09375 53.65625 73.09375 36.375 
Q 73.09375 19.140625 63.90625 8.859375 
Q 54.734375 -1.421875 39.40625 -1.421875 
Q 24.03125 -1.421875 14.8125 8.828125 
Q 5.609375 19.09375 5.609375 36.375 
Q 5.609375 53.65625 14.8125 63.9375 
Q 24.03125 74.21875 39.40625 74.21875 
z
" id="DejaVuSans-79"/>
     <path d="M 9.8125 72.90625 
L 24.515625 72.90625 
L 43.109375 23.296875 
L 61.8125 72.90625 
L 76.515625 72.90625 
L 76.515625 0 
L 66.890625 0 
L 66.890625 64.015625 
L 48.09375 14.015625 
L 38.1875 14.015625 
L 19.390625 64.015625 
L 19.390625 0 
L 9.8125 0 
z
" id="DejaVuSans-77"/>
     <path d="M 19.671875 64.796875 
L 19.671875 37.40625 
L 32.078125 37.40625 
Q 38.96875 37.40625 42.71875 40.96875 
Q 46.484375 44.53125 46.484375 51.125 
Q 46.484375 57.671875 42.71875 61.234375 
Q 38.96875 64.796875 32.078125 64.796875 
z
M 9.8125 72.90625 
L 32.078125 72.90625 
Q 44.34375 72.90625 50.609375 67.359375 
Q 56.890625 61.8125 56.890625 51.125 
Q 56.890625 40.328125 50.609375 34.8125 
Q 44.34375 29.296875 32.078125 29.296875 
L 19.671875 29.296875 
L 19.671875 0 
L 9.8125 0 
z
" id="DejaVuSans-80"/>
     <path d="M 34.1875 63.1875 
L 20.796875 26.90625 
L 47.609375 26.90625 
z
M 28.609375 72.90625 
L 39.796875 72.90625 
L 67.578125 0 
L 57.328125 0 
L 50.6875 18.703125 
L 17.828125 18.703125 
L 11.1875 0 
L 0.78125 0 
z
" id="DejaVuSans-65"/>
     <path d="M 28.609375 0 
L 0.78125 72.90625 
L 11.078125 72.90625 
L 34.1875 11.53125 
L 57.328125 72.90625 
L 67.578125 72.90625 
L 39.796875 0 
z
" id="DejaVuSans-86"/>
     <path d="M 6.296875 72.90625 
L 16.890625 72.90625 
L 35.015625 45.796875 
L 53.21875 72.90625 
L 63.8125 72.90625 
L 40.375 37.890625 
L 65.375 0 
L 54.78125 0 
L 34.28125 31 
L 13.625 0 
L 2.984375 0 
L 29 38.921875 
z
" id="DejaVuSans-88"/>
     <path d="M 54.890625 33.015625 
L 54.890625 0 
L 45.90625 0 
L 45.90625 32.71875 
Q 45.90625 40.484375 42.875 44.328125 
Q 39.84375 48.1875 33.796875 48.1875 
Q 26.515625 48.1875 22.3125 43.546875 
Q 18.109375 38.921875 18.109375 30.90625 
L 18.109375 0 
L 9.078125 0 
L 9.078125 54.6875 
L 18.109375 54.6875 
L 18.109375 46.1875 
Q 21.34375 51.125 25.703125 53.5625 
Q 30.078125 56 35.796875 56 
Q 45.21875 56 50.046875 50.171875 
Q 54.890625 44.34375 54.890625 33.015625 
z
" id="DejaVuSans-110"/>
     <path d="M 10.984375 1.515625 
L 10.984375 10.5 
Q 14.703125 8.734375 18.5 7.8125 
Q 22.3125 6.890625 25.984375 6.890625 
Q 35.75 6.890625 40.890625 13.453125 
Q 46.046875 20.015625 46.78125 33.40625 
Q 43.953125 29.203125 39.59375 26.953125 
Q 35.25 24.703125 29.984375 24.703125 
Q 19.046875 24.703125 12.671875 31.3125 
Q 6.296875 37.9375 6.296875 49.421875 
Q 6.296875 60.640625 12.9375 67.421875 
Q 19.578125 74.21875 30.609375 74.21875 
Q 43.265625 74.21875 49.921875 64.515625 
Q 56.59375 54.828125 56.59375 36.375 
Q 56.59375 19.140625 48.40625 8.859375 
Q 40.234375 -1.421875 26.421875 -1.421875 
Q 22.703125 -1.421875 18.890625 -0.6875 
Q 15.09375 0.046875 10.984375 1.515625 
z
M 30.609375 32.421875 
Q 37.25 32.421875 41.125 36.953125 
Q 45.015625 41.5 45.015625 49.421875 
Q 45.015625 57.28125 41.125 61.84375 
Q 37.25 66.40625 30.609375 66.40625 
Q 23.96875 66.40625 20.09375 61.84375 
Q 16.21875 57.28125 16.21875 49.421875 
Q 16.21875 41.5 20.09375 36.953125 
Q 23.96875 32.421875 30.609375 32.421875 
z
" id="DejaVuSans-57"/>
    </defs>
    <g transform="translate(80.200312 35.472)scale(0.12 -0.12)">
     <use xlink:href="#DejaVuSans-116"/>
     <use x="39.208984" xlink:href="#DejaVuSans-98"/>
     <use x="102.685547" xlink:href="#DejaVuSans-98"/>
     <use x="166.162109" xlink:href="#DejaVuSans-58"/>
     <use x="199.853516" xlink:href="#DejaVuSans-58"/>
     <use x="233.544922" xlink:href="#DejaVuSans-112"/>
     <use x="297.021484" xlink:href="#DejaVuSans-97"/>
     <use x="358.300781" xlink:href="#DejaVuSans-114"/>
     <use x="399.414062" xlink:href="#DejaVuSans-97"/>
     <use x="460.693359" xlink:href="#DejaVuSans-108"/>
     <use x="488.476562" xlink:href="#DejaVuSans-108"/>
     <use x="516.259766" xlink:href="#DejaVuSans-101"/>
     <use x="577.783203" xlink:href="#DejaVuSans-108"/>
     <use x="605.566406" xlink:href="#DejaVuSans-95"/>
     <use x="655.566406" xlink:href="#DejaVuSans-115"/>
     <use x="707.666016" xlink:href="#DejaVuSans-111"/>
     <use x="768.847656" xlink:href="#DejaVuSans-114"/>
     <use x="809.960938" xlink:href="#DejaVuSans-116"/>
     <use x="849.169922" xlink:href="#DejaVuSans-32"/>
     <use x="880.957031" xlink:href="#DejaVuSans-79"/>
     <use x="959.667969" xlink:href="#DejaVuSans-50"/>
     <use x="1023.291016" xlink:href="#DejaVuSans-32"/>
     <use x="1055.078125" xlink:href="#DejaVuSans-79"/>
     <use x="1133.789062" xlink:href="#DejaVuSans-77"/>
     <use x="1220.068359" xlink:href="#DejaVuSans-80"/>
     <use x="1280.371094" xlink:href="#DejaVuSans-32"/>
     <use x="1312.158203" xlink:href="#DejaVuSans-65"/>
     <use x="1374.191406" xlink:href="#DejaVuSans-86"/>
     <use x="1442.599609" xlink:href="#DejaVuSans-88"/>
     <use x="1511.105469" xlink:href="#DejaVuSans-50"/>
     <use x="1574.728516" xlink:href="#DejaVuSans-32"/>
     <use x="1606.515625" xlink:href="#DejaVuSans-111"/>
     <use x="1667.697266" xlink:href="#DejaVuSans-110"/>
     <use x="1731.076172" xlink:href="#DejaVuSans-32"/>
     <use x="1762.863281" xlink:href="#DejaVuSans-112"/>
     <use x="1826.339844" xlink:href="#DejaVuSans-114"/>
     <use x="1865.203125" xlink:href="#DejaVuSans-101"/>
     <use x="1926.726562" xlink:href="#DejaVuSans-95"/>
     <use x="1976.726562" xlink:href="#DejaVuSans-116"/>
     <use x="2015.935547" xlink:href="#DejaVuSans-114"/>
     <use x="2057.048828" xlink:href="#DejaVuSans-97"/>
     <use x="2118.328125" xlink:href="#DejaVuSans-110"/>
     <use x="2181.707031" xlink:href="#DejaVuSans-115"/>
     <use x="2233.806641" xlink:href="#DejaVuSans-112"/>
     <use x="2297.283203" xlink:href="#DejaVuSans-111"/>
     <use x="2358.464844" xlink:href="#DejaVuSans-115"/>
     <use x="2410.564453" xlink:href="#DejaVuSans-101"/>
     <use x="2472.087891" xlink:href="#DejaVuSans-50"/>
     <use x="2535.710938" xlink:href="#DejaVuSans-57"/>
    </g>
   </g>
   <g id="legend_1">
    <g id="patch_7">
     <path d="M 313.152813 302.584 
L 407.72 302.584 
Q 409.72 302.584 409.72 300.584 
L 409.72 257.2715 
Q 409.72 255.2715 407.72 255.2715 
L 313.152813 255.2715 
Q 311.152813 255.2715 311.152813 257.2715 
L 311.152813 300.584 
Q 311.152813 302.584 313.152813 302.584 
z
" style="fill:#ffffff;opacity:0.8;stroke:#cccccc;stroke-linejoin:miter;"/>
    </g>
    <g id="line2d_64">
     <path d="M 315.152813 263.369937 
L 335.152813 263.369937 
" style="fill:none;stroke:#0000ff;stroke-dasharray:1.5,2.475;stroke-dashoffset:0;stroke-width:1.5;"/>
    </g>
    <g id="line2d_65">
     <g>
      <use style="fill:#0000ff;stroke:#0000ff;" x="325.152813" xlink:href="#m4ee0e96d06" y="263.369937"/>
     </g>
    </g>
    <g id="text_34">
     <!-- transpose -->
     <g transform="translate(343.152813 266.869937)scale(0.1 -0.1)">
      <use xlink:href="#DejaVuSans-116"/>
      <use x="39.208984" xlink:href="#DejaVuSans-114"/>
      <use x="80.322266" xlink:href="#DejaVuSans-97"/>
      <use x="141.601562" xlink:href="#DejaVuSans-110"/>
      <use x="204.980469" xlink:href="#DejaVuSans-115"/>
      <use x="257.080078" xlink:href="#DejaVuSans-112"/>
      <use x="320.556641" xlink:href="#DejaVuSans-111"/>
      <use x="381.738281" xlink:href="#DejaVuSans-115"/>
      <use x="433.837891" xlink:href="#DejaVuSans-101"/>
     </g>
    </g>
    <g id="line2d_66">
     <path d="M 315.152813 278.048063 
L 335.152813 278.048063 
" style="fill:none;stroke:#ff0000;stroke-dasharray:1.5,2.475;stroke-dashoffset:0;stroke-width:1.5;"/>
    </g>
    <g id="line2d_67">
     <g>
      <use style="fill:#ff0000;stroke:#ff0000;" x="325.152813" xlink:href="#m4f73261066" y="278.048063"/>
     </g>
    </g>
    <g id="text_35">
     <!-- transpose_tr -->
     <g transform="translate(343.152813 281.548063)scale(0.1 -0.1)">
      <use xlink:href="#DejaVuSans-116"/>
      <use x="39.208984" xlink:href="#DejaVuSans-114"/>
      <use x="80.322266" xlink:href="#DejaVuSans-97"/>
      <use x="141.601562" xlink:href="#DejaVuSans-110"/>
      <use x="204.980469" xlink:href="#DejaVuSans-115"/>
      <use x="257.080078" xlink:href="#DejaVuSans-112"/>
      <use x="320.556641" xlink:href="#DejaVuSans-111"/>
      <use x="381.738281" xlink:href="#DejaVuSans-115"/>
      <use x="433.837891" xlink:href="#DejaVuSans-101"/>
      <use x="495.361328" xlink:href="#DejaVuSans-95"/>
      <use x="545.361328" xlink:href="#DejaVuSans-116"/>
      <use x="584.570312" xlink:href="#DejaVuSans-114"/>
     </g>
    </g>
    <g id="line2d_68">
     <path d="M 315.152813 293.004312 
L 335.152813 293.004312 
" style="fill:none;stroke:#008000;stroke-dasharray:1.5,2.475;stroke-dashoffset:0;stroke-width:1.5;"/>
    </g>
    <g id="line2d_69">
     <g>
      <use style="fill:#008000;stroke:#008000;" x="325.152813" xlink:href="#m29e0c0f993" y="293.004312"/>
     </g>
    </g>
    <g id="text_36">
     <!-- mean -->
     <defs>
      <path d="M 52 44.1875 
Q 55.375 50.25 60.0625 53.125 
Q 64.75 56 71.09375 56 
Q 79.640625 56 84.28125 50.015625 
Q 88.921875 44.046875 88.921875 33.015625 
L 88.921875 0 
L 79.890625 0 
L 79.890625 32.71875 
Q 79.890625 40.578125 77.09375 44.375 
Q 74.3125 48.1875 68.609375 48.1875 
Q 61.625 48.1875 57.5625 43.546875 
Q 53.515625 38.921875 53.515625 30.90625 
L 53.515625 0 
L 44.484375 0 
L 44.484375 32.71875 
Q 44.484375 40.625 41.703125 44.40625 
Q 38.921875 48.1875 33.109375 48.1875 
Q 26.21875 48.1875 22.15625 43.53125 
Q 18.109375 38.875 18.109375 30.90625 
L 18.109375 0 
L 9.078125 0 
L 9.078125 54.6875 
L 18.109375 54.6875 
L 18.109375 46.1875 
Q 21.1875 51.21875 25.484375 53.609375 
Q 29.78125 56 35.6875 56 
Q 41.65625 56 45.828125 52.96875 
Q 50 49.953125 52 44.1875 
z
" id="DejaVuSans-109"/>
     </defs>
     <g transform="translate(343.152813 296.504312)scale(0.1 -0.1)">
      <use xlink:href="#DejaVuSans-109"/>
      <use x="97.412109" xlink:href="#DejaVuSans-101"/>
      <use x="158.935547" xlink:href="#DejaVuSans-97"/>
      <use x="220.214844" xlink:href="#DejaVuSans-110"/>
     </g>
    </g>
   </g>
  </g>
 </g>
 <defs>
  <clipPath id="pb6704b001e">
   <rect height="266.112" width="357.12" x="57.6" y="41.472"/>
  </clipPath>
 </defs>
</svg>
