<?xml version="1.0" encoding="utf-8" standalone="no"?>
<!DOCTYPE svg PUBLIC "-//W3C//DTD SVG 1.1//EN"
  "http://www.w3.org/Graphics/SVG/1.1/DTD/svg11.dtd">
<!-- Created with matplotlib (https://matplotlib.org/) -->
<svg height="345.6pt" version="1.1" viewBox="0 0 460.8 345.6" width="460.8pt" xmlns="http://www.w3.org/2000/svg" xmlns:xlink="http://www.w3.org/1999/xlink">
 <defs>
  <style type="text/css">
*{stroke-linecap:butt;stroke-linejoin:round;}
  </style>
 </defs>
 <g id="figure_1">
  <g id="patch_1">
   <path d="M 0 345.6 
L 460.8 345.6 
L 460.8 0 
L 0 0 
z
" style="fill:#ffffff;"/>
  </g>
  <g id="axes_1">
   <g id="patch_2">
    <path d="M 57.6 307.584 
L 414.72 307.584 
L 414.72 41.472 
L 57.6 41.472 
z
" style="fill:#ffffff;"/>
   </g>
   <g id="matplotlib.axis_1">
    <g id="xtick_1">
     <g id="line2d_1">
      <path clip-path="url(#p6c9a476b34)" d="M 61.612584 307.584 
L 61.612584 41.472 
" style="fill:none;stroke:#b0b0b0;stroke-dasharray:5.12,1.28,0.8,1.28;stroke-dashoffset:0;stroke-width:0.8;"/>
     </g>
     <g id="line2d_2">
      <defs>
       <path d="M 0 0 
L 0 3.5 
" id="med1e26a096" style="stroke:#000000;stroke-width:0.8;"/>
      </defs>
      <g>
       <use style="stroke:#000000;stroke-width:0.8;" x="61.612584" xlink:href="#med1e26a096" y="307.584"/>
      </g>
     </g>
     <g id="text_1">
      <!-- 1 -->
      <defs>
       <path d="M 12.40625 8.296875 
L 28.515625 8.296875 
L 28.515625 63.921875 
L 10.984375 60.40625 
L 10.984375 69.390625 
L 28.421875 72.90625 
L 38.28125 72.90625 
L 38.28125 8.296875 
L 54.390625 8.296875 
L 54.390625 0 
L 12.40625 0 
z
" id="DejaVuSans-49"/>
      </defs>
      <g transform="translate(58.431334 322.182437)scale(0.1 -0.1)">
       <use xlink:href="#DejaVuSans-49"/>
      </g>
     </g>
    </g>
    <g id="xtick_2">
     <g id="line2d_3">
      <path clip-path="url(#p6c9a476b34)" d="M 73.650337 307.584 
L 73.650337 41.472 
" style="fill:none;stroke:#b0b0b0;stroke-dasharray:5.12,1.28,0.8,1.28;stroke-dashoffset:0;stroke-width:0.8;"/>
     </g>
     <g id="line2d_4">
      <g>
       <use style="stroke:#000000;stroke-width:0.8;" x="73.650337" xlink:href="#med1e26a096" y="307.584"/>
      </g>
     </g>
     <g id="text_2">
      <!-- 4 -->
      <defs>
       <path d="M 37.796875 64.3125 
L 12.890625 25.390625 
L 37.796875 25.390625 
z
M 35.203125 72.90625 
L 47.609375 72.90625 
L 47.609375 25.390625 
L 58.015625 25.390625 
L 58.015625 17.1875 
L 47.609375 17.1875 
L 47.609375 0 
L 37.796875 0 
L 37.796875 17.1875 
L 4.890625 17.1875 
L 4.890625 26.703125 
z
" id="DejaVuSans-52"/>
      </defs>
      <g transform="translate(70.469087 322.182437)scale(0.1 -0.1)">
       <use xlink:href="#DejaVuSans-52"/>
      </g>
     </g>
    </g>
    <g id="xtick_3">
     <g id="line2d_5">
      <path clip-path="url(#p6c9a476b34)" d="M 89.700674 307.584 
L 89.700674 41.472 
" style="fill:none;stroke:#b0b0b0;stroke-dasharray:5.12,1.28,0.8,1.28;stroke-dashoffset:0;stroke-width:0.8;"/>
     </g>
     <g id="line2d_6">
      <g>
       <use style="stroke:#000000;stroke-width:0.8;" x="89.700674" xlink:href="#med1e26a096" y="307.584"/>
      </g>
     </g>
     <g id="text_3">
      <!-- 8 -->
      <defs>
       <path d="M 31.78125 34.625 
Q 24.75 34.625 20.71875 30.859375 
Q 16.703125 27.09375 16.703125 20.515625 
Q 16.703125 13.921875 20.71875 10.15625 
Q 24.75 6.390625 31.78125 6.390625 
Q 38.8125 6.390625 42.859375 10.171875 
Q 46.921875 13.96875 46.921875 20.515625 
Q 46.921875 27.09375 42.890625 30.859375 
Q 38.875 34.625 31.78125 34.625 
z
M 21.921875 38.8125 
Q 15.578125 40.375 12.03125 44.71875 
Q 8.5 49.078125 8.5 55.328125 
Q 8.5 64.0625 14.71875 69.140625 
Q 20.953125 74.21875 31.78125 74.21875 
Q 42.671875 74.21875 48.875 69.140625 
Q 55.078125 64.0625 55.078125 55.328125 
Q 55.078125 49.078125 51.53125 44.71875 
Q 48 40.375 41.703125 38.8125 
Q 48.828125 37.15625 52.796875 32.3125 
Q 56.78125 27.484375 56.78125 20.515625 
Q 56.78125 9.90625 50.3125 4.234375 
Q 43.84375 -1.421875 31.78125 -1.421875 
Q 19.734375 -1.421875 13.25 4.234375 
Q 6.78125 9.90625 6.78125 20.515625 
Q 6.78125 27.484375 10.78125 32.3125 
Q 14.796875 37.15625 21.921875 38.8125 
z
M 18.3125 54.390625 
Q 18.3125 48.734375 21.84375 45.5625 
Q 25.390625 42.390625 31.78125 42.390625 
Q 38.140625 42.390625 41.71875 45.5625 
Q 45.3125 48.734375 45.3125 54.390625 
Q 45.3125 60.0625 41.71875 63.234375 
Q 38.140625 66.40625 31.78125 66.40625 
Q 25.390625 66.40625 21.84375 63.234375 
Q 18.3125 60.0625 18.3125 54.390625 
z
" id="DejaVuSans-56"/>
      </defs>
      <g transform="translate(86.519424 322.182437)scale(0.1 -0.1)">
       <use xlink:href="#DejaVuSans-56"/>
      </g>
     </g>
    </g>
    <g id="xtick_4">
     <g id="line2d_7">
      <path clip-path="url(#p6c9a476b34)" d="M 105.751011 307.584 
L 105.751011 41.472 
" style="fill:none;stroke:#b0b0b0;stroke-dasharray:5.12,1.28,0.8,1.28;stroke-dashoffset:0;stroke-width:0.8;"/>
     </g>
     <g id="line2d_8">
      <g>
       <use style="stroke:#000000;stroke-width:0.8;" x="105.751011" xlink:href="#med1e26a096" y="307.584"/>
      </g>
     </g>
     <g id="text_4">
      <!-- 12 -->
      <defs>
       <path d="M 19.1875 8.296875 
L 53.609375 8.296875 
L 53.609375 0 
L 7.328125 0 
L 7.328125 8.296875 
Q 12.9375 14.109375 22.625 23.890625 
Q 32.328125 33.6875 34.8125 36.53125 
Q 39.546875 41.84375 41.421875 45.53125 
Q 43.3125 49.21875 43.3125 52.78125 
Q 43.3125 58.59375 39.234375 62.25 
Q 35.15625 65.921875 28.609375 65.921875 
Q 23.96875 65.921875 18.8125 64.3125 
Q 13.671875 62.703125 7.8125 59.421875 
L 7.8125 69.390625 
Q 13.765625 71.78125 18.9375 73 
Q 24.125 74.21875 28.421875 74.21875 
Q 39.75 74.21875 46.484375 68.546875 
Q 53.21875 62.890625 53.21875 53.421875 
Q 53.21875 48.921875 51.53125 44.890625 
Q 49.859375 40.875 45.40625 35.40625 
Q 44.1875 33.984375 37.640625 27.21875 
Q 31.109375 20.453125 19.1875 8.296875 
z
" id="DejaVuSans-50"/>
      </defs>
      <g transform="translate(99.388511 322.182437)scale(0.1 -0.1)">
       <use xlink:href="#DejaVuSans-49"/>
       <use x="63.623047" xlink:href="#DejaVuSans-50"/>
      </g>
     </g>
    </g>
    <g id="xtick_5">
     <g id="line2d_9">
      <path clip-path="url(#p6c9a476b34)" d="M 121.801348 307.584 
L 121.801348 41.472 
" style="fill:none;stroke:#b0b0b0;stroke-dasharray:5.12,1.28,0.8,1.28;stroke-dashoffset:0;stroke-width:0.8;"/>
     </g>
     <g id="line2d_10">
      <g>
       <use style="stroke:#000000;stroke-width:0.8;" x="121.801348" xlink:href="#med1e26a096" y="307.584"/>
      </g>
     </g>
     <g id="text_5">
      <!-- 16 -->
      <defs>
       <path d="M 33.015625 40.375 
Q 26.375 40.375 22.484375 35.828125 
Q 18.609375 31.296875 18.609375 23.390625 
Q 18.609375 15.53125 22.484375 10.953125 
Q 26.375 6.390625 33.015625 6.390625 
Q 39.65625 6.390625 43.53125 10.953125 
Q 47.40625 15.53125 47.40625 23.390625 
Q 47.40625 31.296875 43.53125 35.828125 
Q 39.65625 40.375 33.015625 40.375 
z
M 52.59375 71.296875 
L 52.59375 62.3125 
Q 48.875 64.0625 45.09375 64.984375 
Q 41.3125 65.921875 37.59375 65.921875 
Q 27.828125 65.921875 22.671875 59.328125 
Q 17.53125 52.734375 16.796875 39.40625 
Q 19.671875 43.65625 24.015625 45.921875 
Q 28.375 48.1875 33.59375 48.1875 
Q 44.578125 48.1875 50.953125 41.515625 
Q 57.328125 34.859375 57.328125 23.390625 
Q 57.328125 12.15625 50.6875 5.359375 
Q 44.046875 -1.421875 33.015625 -1.421875 
Q 20.359375 -1.421875 13.671875 8.265625 
Q 6.984375 17.96875 6.984375 36.375 
Q 6.984375 53.65625 15.1875 63.9375 
Q 23.390625 74.21875 37.203125 74.21875 
Q 40.921875 74.21875 44.703125 73.484375 
Q 48.484375 72.75 52.59375 71.296875 
z
" id="DejaVuSans-54"/>
      </defs>
      <g transform="translate(115.438848 322.182437)scale(0.1 -0.1)">
       <use xlink:href="#DejaVuSans-49"/>
       <use x="63.623047" xlink:href="#DejaVuSans-54"/>
      </g>
     </g>
    </g>
    <g id="xtick_6">
     <g id="line2d_11">
      <path clip-path="url(#p6c9a476b34)" d="M 137.851685 307.584 
L 137.851685 41.472 
" style="fill:none;stroke:#b0b0b0;stroke-dasharray:5.12,1.28,0.8,1.28;stroke-dashoffset:0;stroke-width:0.8;"/>
     </g>
     <g id="line2d_12">
      <g>
       <use style="stroke:#000000;stroke-width:0.8;" x="137.851685" xlink:href="#med1e26a096" y="307.584"/>
      </g>
     </g>
     <g id="text_6">
      <!-- 20 -->
      <defs>
       <path d="M 31.78125 66.40625 
Q 24.171875 66.40625 20.328125 58.90625 
Q 16.5 51.421875 16.5 36.375 
Q 16.5 21.390625 20.328125 13.890625 
Q 24.171875 6.390625 31.78125 6.390625 
Q 39.453125 6.390625 43.28125 13.890625 
Q 47.125 21.390625 47.125 36.375 
Q 47.125 51.421875 43.28125 58.90625 
Q 39.453125 66.40625 31.78125 66.40625 
z
M 31.78125 74.21875 
Q 44.046875 74.21875 50.515625 64.515625 
Q 56.984375 54.828125 56.984375 36.375 
Q 56.984375 17.96875 50.515625 8.265625 
Q 44.046875 -1.421875 31.78125 -1.421875 
Q 19.53125 -1.421875 13.0625 8.265625 
Q 6.59375 17.96875 6.59375 36.375 
Q 6.59375 54.828125 13.0625 64.515625 
Q 19.53125 74.21875 31.78125 74.21875 
z
" id="DejaVuSans-48"/>
      </defs>
      <g transform="translate(131.489185 322.182437)scale(0.1 -0.1)">
       <use xlink:href="#DejaVuSans-50"/>
       <use x="63.623047" xlink:href="#DejaVuSans-48"/>
      </g>
     </g>
    </g>
    <g id="xtick_7">
     <g id="line2d_13">
      <path clip-path="url(#p6c9a476b34)" d="M 153.902022 307.584 
L 153.902022 41.472 
" style="fill:none;stroke:#b0b0b0;stroke-dasharray:5.12,1.28,0.8,1.28;stroke-dashoffset:0;stroke-width:0.8;"/>
     </g>
     <g id="line2d_14">
      <g>
       <use style="stroke:#000000;stroke-width:0.8;" x="153.902022" xlink:href="#med1e26a096" y="307.584"/>
      </g>
     </g>
     <g id="text_7">
      <!-- 24 -->
      <g transform="translate(147.539522 322.182437)scale(0.1 -0.1)">
       <use xlink:href="#DejaVuSans-50"/>
       <use x="63.623047" xlink:href="#DejaVuSans-52"/>
      </g>
     </g>
    </g>
    <g id="xtick_8">
     <g id="line2d_15">
      <path clip-path="url(#p6c9a476b34)" d="M 169.95236 307.584 
L 169.95236 41.472 
" style="fill:none;stroke:#b0b0b0;stroke-dasharray:5.12,1.28,0.8,1.28;stroke-dashoffset:0;stroke-width:0.8;"/>
     </g>
     <g id="line2d_16">
      <g>
       <use style="stroke:#000000;stroke-width:0.8;" x="169.95236" xlink:href="#med1e26a096" y="307.584"/>
      </g>
     </g>
     <g id="text_8">
      <!-- 28 -->
      <g transform="translate(163.58986 322.182437)scale(0.1 -0.1)">
       <use xlink:href="#DejaVuSans-50"/>
       <use x="63.623047" xlink:href="#DejaVuSans-56"/>
      </g>
     </g>
    </g>
    <g id="xtick_9">
     <g id="line2d_17">
      <path clip-path="url(#p6c9a476b34)" d="M 186.002697 307.584 
L 186.002697 41.472 
" style="fill:none;stroke:#b0b0b0;stroke-dasharray:5.12,1.28,0.8,1.28;stroke-dashoffset:0;stroke-width:0.8;"/>
     </g>
     <g id="line2d_18">
      <g>
       <use style="stroke:#000000;stroke-width:0.8;" x="186.002697" xlink:href="#med1e26a096" y="307.584"/>
      </g>
     </g>
     <g id="text_9">
      <!-- 32 -->
      <defs>
       <path d="M 40.578125 39.3125 
Q 47.65625 37.796875 51.625 33 
Q 55.609375 28.21875 55.609375 21.1875 
Q 55.609375 10.40625 48.1875 4.484375 
Q 40.765625 -1.421875 27.09375 -1.421875 
Q 22.515625 -1.421875 17.65625 -0.515625 
Q 12.796875 0.390625 7.625 2.203125 
L 7.625 11.71875 
Q 11.71875 9.328125 16.59375 8.109375 
Q 21.484375 6.890625 26.8125 6.890625 
Q 36.078125 6.890625 40.9375 10.546875 
Q 45.796875 14.203125 45.796875 21.1875 
Q 45.796875 27.640625 41.28125 31.265625 
Q 36.765625 34.90625 28.71875 34.90625 
L 20.21875 34.90625 
L 20.21875 43.015625 
L 29.109375 43.015625 
Q 36.375 43.015625 40.234375 45.921875 
Q 44.09375 48.828125 44.09375 54.296875 
Q 44.09375 59.90625 40.109375 62.90625 
Q 36.140625 65.921875 28.71875 65.921875 
Q 24.65625 65.921875 20.015625 65.03125 
Q 15.375 64.15625 9.8125 62.3125 
L 9.8125 71.09375 
Q 15.4375 72.65625 20.34375 73.4375 
Q 25.25 74.21875 29.59375 74.21875 
Q 40.828125 74.21875 47.359375 69.109375 
Q 53.90625 64.015625 53.90625 55.328125 
Q 53.90625 49.265625 50.4375 45.09375 
Q 46.96875 40.921875 40.578125 39.3125 
z
" id="DejaVuSans-51"/>
      </defs>
      <g transform="translate(179.640197 322.182437)scale(0.1 -0.1)">
       <use xlink:href="#DejaVuSans-51"/>
       <use x="63.623047" xlink:href="#DejaVuSans-50"/>
      </g>
     </g>
    </g>
    <g id="xtick_10">
     <g id="line2d_19">
      <path clip-path="url(#p6c9a476b34)" d="M 202.053034 307.584 
L 202.053034 41.472 
" style="fill:none;stroke:#b0b0b0;stroke-dasharray:5.12,1.28,0.8,1.28;stroke-dashoffset:0;stroke-width:0.8;"/>
     </g>
     <g id="line2d_20">
      <g>
       <use style="stroke:#000000;stroke-width:0.8;" x="202.053034" xlink:href="#med1e26a096" y="307.584"/>
      </g>
     </g>
     <g id="text_10">
      <!-- 36 -->
      <g transform="translate(195.690534 322.182437)scale(0.1 -0.1)">
       <use xlink:href="#DejaVuSans-51"/>
       <use x="63.623047" xlink:href="#DejaVuSans-54"/>
      </g>
     </g>
    </g>
    <g id="xtick_11">
     <g id="line2d_21">
      <path clip-path="url(#p6c9a476b34)" d="M 218.103371 307.584 
L 218.103371 41.472 
" style="fill:none;stroke:#b0b0b0;stroke-dasharray:5.12,1.28,0.8,1.28;stroke-dashoffset:0;stroke-width:0.8;"/>
     </g>
     <g id="line2d_22">
      <g>
       <use style="stroke:#000000;stroke-width:0.8;" x="218.103371" xlink:href="#med1e26a096" y="307.584"/>
      </g>
     </g>
     <g id="text_11">
      <!-- 40 -->
      <g transform="translate(211.740871 322.182437)scale(0.1 -0.1)">
       <use xlink:href="#DejaVuSans-52"/>
       <use x="63.623047" xlink:href="#DejaVuSans-48"/>
      </g>
     </g>
    </g>
    <g id="xtick_12">
     <g id="line2d_23">
      <path clip-path="url(#p6c9a476b34)" d="M 234.153708 307.584 
L 234.153708 41.472 
" style="fill:none;stroke:#b0b0b0;stroke-dasharray:5.12,1.28,0.8,1.28;stroke-dashoffset:0;stroke-width:0.8;"/>
     </g>
     <g id="line2d_24">
      <g>
       <use style="stroke:#000000;stroke-width:0.8;" x="234.153708" xlink:href="#med1e26a096" y="307.584"/>
      </g>
     </g>
     <g id="text_12">
      <!-- 44 -->
      <g transform="translate(227.791208 322.182437)scale(0.1 -0.1)">
       <use xlink:href="#DejaVuSans-52"/>
       <use x="63.623047" xlink:href="#DejaVuSans-52"/>
      </g>
     </g>
    </g>
    <g id="xtick_13">
     <g id="line2d_25">
      <path clip-path="url(#p6c9a476b34)" d="M 250.204045 307.584 
L 250.204045 41.472 
" style="fill:none;stroke:#b0b0b0;stroke-dasharray:5.12,1.28,0.8,1.28;stroke-dashoffset:0;stroke-width:0.8;"/>
     </g>
     <g id="line2d_26">
      <g>
       <use style="stroke:#000000;stroke-width:0.8;" x="250.204045" xlink:href="#med1e26a096" y="307.584"/>
      </g>
     </g>
     <g id="text_13">
      <!-- 48 -->
      <g transform="translate(243.841545 322.182437)scale(0.1 -0.1)">
       <use xlink:href="#DejaVuSans-52"/>
       <use x="63.623047" xlink:href="#DejaVuSans-56"/>
      </g>
     </g>
    </g>
    <g id="xtick_14">
     <g id="line2d_27">
      <path clip-path="url(#p6c9a476b34)" d="M 266.254382 307.584 
L 266.254382 41.472 
" style="fill:none;stroke:#b0b0b0;stroke-dasharray:5.12,1.28,0.8,1.28;stroke-dashoffset:0;stroke-width:0.8;"/>
     </g>
     <g id="line2d_28">
      <g>
       <use style="stroke:#000000;stroke-width:0.8;" x="266.254382" xlink:href="#med1e26a096" y="307.584"/>
      </g>
     </g>
     <g id="text_14">
      <!-- 52 -->
      <defs>
       <path d="M 10.796875 72.90625 
L 49.515625 72.90625 
L 49.515625 64.59375 
L 19.828125 64.59375 
L 19.828125 46.734375 
Q 21.96875 47.46875 24.109375 47.828125 
Q 26.265625 48.1875 28.421875 48.1875 
Q 40.625 48.1875 47.75 41.5 
Q 54.890625 34.8125 54.890625 23.390625 
Q 54.890625 11.625 47.5625 5.09375 
Q 40.234375 -1.421875 26.90625 -1.421875 
Q 22.3125 -1.421875 17.546875 -0.640625 
Q 12.796875 0.140625 7.71875 1.703125 
L 7.71875 11.625 
Q 12.109375 9.234375 16.796875 8.0625 
Q 21.484375 6.890625 26.703125 6.890625 
Q 35.15625 6.890625 40.078125 11.328125 
Q 45.015625 15.765625 45.015625 23.390625 
Q 45.015625 31 40.078125 35.4375 
Q 35.15625 39.890625 26.703125 39.890625 
Q 22.75 39.890625 18.8125 39.015625 
Q 14.890625 38.140625 10.796875 36.28125 
z
" id="DejaVuSans-53"/>
      </defs>
      <g transform="translate(259.891882 322.182437)scale(0.1 -0.1)">
       <use xlink:href="#DejaVuSans-53"/>
       <use x="63.623047" xlink:href="#DejaVuSans-50"/>
      </g>
     </g>
    </g>
    <g id="xtick_15">
     <g id="line2d_29">
      <path clip-path="url(#p6c9a476b34)" d="M 282.304719 307.584 
L 282.304719 41.472 
" style="fill:none;stroke:#b0b0b0;stroke-dasharray:5.12,1.28,0.8,1.28;stroke-dashoffset:0;stroke-width:0.8;"/>
     </g>
     <g id="line2d_30">
      <g>
       <use style="stroke:#000000;stroke-width:0.8;" x="282.304719" xlink:href="#med1e26a096" y="307.584"/>
      </g>
     </g>
     <g id="text_15">
      <!-- 56 -->
      <g transform="translate(275.942219 322.182437)scale(0.1 -0.1)">
       <use xlink:href="#DejaVuSans-53"/>
       <use x="63.623047" xlink:href="#DejaVuSans-54"/>
      </g>
     </g>
    </g>
    <g id="xtick_16">
     <g id="line2d_31">
      <path clip-path="url(#p6c9a476b34)" d="M 298.355056 307.584 
L 298.355056 41.472 
" style="fill:none;stroke:#b0b0b0;stroke-dasharray:5.12,1.28,0.8,1.28;stroke-dashoffset:0;stroke-width:0.8;"/>
     </g>
     <g id="line2d_32">
      <g>
       <use style="stroke:#000000;stroke-width:0.8;" x="298.355056" xlink:href="#med1e26a096" y="307.584"/>
      </g>
     </g>
     <g id="text_16">
      <!-- 60 -->
      <g transform="translate(291.992556 322.182437)scale(0.1 -0.1)">
       <use xlink:href="#DejaVuSans-54"/>
       <use x="63.623047" xlink:href="#DejaVuSans-48"/>
      </g>
     </g>
    </g>
    <g id="xtick_17">
     <g id="line2d_33">
      <path clip-path="url(#p6c9a476b34)" d="M 314.405393 307.584 
L 314.405393 41.472 
" style="fill:none;stroke:#b0b0b0;stroke-dasharray:5.12,1.28,0.8,1.28;stroke-dashoffset:0;stroke-width:0.8;"/>
     </g>
     <g id="line2d_34">
      <g>
       <use style="stroke:#000000;stroke-width:0.8;" x="314.405393" xlink:href="#med1e26a096" y="307.584"/>
      </g>
     </g>
     <g id="text_17">
      <!-- 64 -->
      <g transform="translate(308.042893 322.182437)scale(0.1 -0.1)">
       <use xlink:href="#DejaVuSans-54"/>
       <use x="63.623047" xlink:href="#DejaVuSans-52"/>
      </g>
     </g>
    </g>
    <g id="xtick_18">
     <g id="line2d_35">
      <path clip-path="url(#p6c9a476b34)" d="M 330.45573 307.584 
L 330.45573 41.472 
" style="fill:none;stroke:#b0b0b0;stroke-dasharray:5.12,1.28,0.8,1.28;stroke-dashoffset:0;stroke-width:0.8;"/>
     </g>
     <g id="line2d_36">
      <g>
       <use style="stroke:#000000;stroke-width:0.8;" x="330.45573" xlink:href="#med1e26a096" y="307.584"/>
      </g>
     </g>
     <g id="text_18">
      <!-- 68 -->
      <g transform="translate(324.09323 322.182437)scale(0.1 -0.1)">
       <use xlink:href="#DejaVuSans-54"/>
       <use x="63.623047" xlink:href="#DejaVuSans-56"/>
      </g>
     </g>
    </g>
    <g id="xtick_19">
     <g id="line2d_37">
      <path clip-path="url(#p6c9a476b34)" d="M 346.506067 307.584 
L 346.506067 41.472 
" style="fill:none;stroke:#b0b0b0;stroke-dasharray:5.12,1.28,0.8,1.28;stroke-dashoffset:0;stroke-width:0.8;"/>
     </g>
     <g id="line2d_38">
      <g>
       <use style="stroke:#000000;stroke-width:0.8;" x="346.506067" xlink:href="#med1e26a096" y="307.584"/>
      </g>
     </g>
     <g id="text_19">
      <!-- 72 -->
      <defs>
       <path d="M 8.203125 72.90625 
L 55.078125 72.90625 
L 55.078125 68.703125 
L 28.609375 0 
L 18.3125 0 
L 43.21875 64.59375 
L 8.203125 64.59375 
z
" id="DejaVuSans-55"/>
      </defs>
      <g transform="translate(340.143567 322.182437)scale(0.1 -0.1)">
       <use xlink:href="#DejaVuSans-55"/>
       <use x="63.623047" xlink:href="#DejaVuSans-50"/>
      </g>
     </g>
    </g>
    <g id="xtick_20">
     <g id="line2d_39">
      <path clip-path="url(#p6c9a476b34)" d="M 362.556404 307.584 
L 362.556404 41.472 
" style="fill:none;stroke:#b0b0b0;stroke-dasharray:5.12,1.28,0.8,1.28;stroke-dashoffset:0;stroke-width:0.8;"/>
     </g>
     <g id="line2d_40">
      <g>
       <use style="stroke:#000000;stroke-width:0.8;" x="362.556404" xlink:href="#med1e26a096" y="307.584"/>
      </g>
     </g>
     <g id="text_20">
      <!-- 76 -->
      <g transform="translate(356.193904 322.182437)scale(0.1 -0.1)">
       <use xlink:href="#DejaVuSans-55"/>
       <use x="63.623047" xlink:href="#DejaVuSans-54"/>
      </g>
     </g>
    </g>
    <g id="xtick_21">
     <g id="line2d_41">
      <path clip-path="url(#p6c9a476b34)" d="M 378.606742 307.584 
L 378.606742 41.472 
" style="fill:none;stroke:#b0b0b0;stroke-dasharray:5.12,1.28,0.8,1.28;stroke-dashoffset:0;stroke-width:0.8;"/>
     </g>
     <g id="line2d_42">
      <g>
       <use style="stroke:#000000;stroke-width:0.8;" x="378.606742" xlink:href="#med1e26a096" y="307.584"/>
      </g>
     </g>
     <g id="text_21">
      <!-- 80 -->
      <g transform="translate(372.244242 322.182437)scale(0.1 -0.1)">
       <use xlink:href="#DejaVuSans-56"/>
       <use x="63.623047" xlink:href="#DejaVuSans-48"/>
      </g>
     </g>
    </g>
    <g id="xtick_22">
     <g id="line2d_43">
      <path clip-path="url(#p6c9a476b34)" d="M 394.657079 307.584 
L 394.657079 41.472 
" style="fill:none;stroke:#b0b0b0;stroke-dasharray:5.12,1.28,0.8,1.28;stroke-dashoffset:0;stroke-width:0.8;"/>
     </g>
     <g id="line2d_44">
      <g>
       <use style="stroke:#000000;stroke-width:0.8;" x="394.657079" xlink:href="#med1e26a096" y="307.584"/>
      </g>
     </g>
     <g id="text_22">
      <!-- 84 -->
      <g transform="translate(388.294579 322.182437)scale(0.1 -0.1)">
       <use xlink:href="#DejaVuSans-56"/>
       <use x="63.623047" xlink:href="#DejaVuSans-52"/>
      </g>
     </g>
    </g>
    <g id="xtick_23">
     <g id="line2d_45">
      <path clip-path="url(#p6c9a476b34)" d="M 410.707416 307.584 
L 410.707416 41.472 
" style="fill:none;stroke:#b0b0b0;stroke-dasharray:5.12,1.28,0.8,1.28;stroke-dashoffset:0;stroke-width:0.8;"/>
     </g>
     <g id="line2d_46">
      <g>
       <use style="stroke:#000000;stroke-width:0.8;" x="410.707416" xlink:href="#med1e26a096" y="307.584"/>
      </g>
     </g>
     <g id="text_23">
      <!-- 88 -->
      <g transform="translate(404.344916 322.182437)scale(0.1 -0.1)">
       <use xlink:href="#DejaVuSans-56"/>
       <use x="63.623047" xlink:href="#DejaVuSans-56"/>
      </g>
     </g>
    </g>
    <g id="text_24">
     <!-- threads -->
     <defs>
      <path d="M 18.3125 70.21875 
L 18.3125 54.6875 
L 36.8125 54.6875 
L 36.8125 47.703125 
L 18.3125 47.703125 
L 18.3125 18.015625 
Q 18.3125 11.328125 20.140625 9.421875 
Q 21.96875 7.515625 27.59375 7.515625 
L 36.8125 7.515625 
L 36.8125 0 
L 27.59375 0 
Q 17.1875 0 13.234375 3.875 
Q 9.28125 7.765625 9.28125 18.015625 
L 9.28125 47.703125 
L 2.6875 47.703125 
L 2.6875 54.6875 
L 9.28125 54.6875 
L 9.28125 70.21875 
z
" id="DejaVuSans-116"/>
      <path d="M 54.890625 33.015625 
L 54.890625 0 
L 45.90625 0 
L 45.90625 32.71875 
Q 45.90625 40.484375 42.875 44.328125 
Q 39.84375 48.1875 33.796875 48.1875 
Q 26.515625 48.1875 22.3125 43.546875 
Q 18.109375 38.921875 18.109375 30.90625 
L 18.109375 0 
L 9.078125 0 
L 9.078125 75.984375 
L 18.109375 75.984375 
L 18.109375 46.1875 
Q 21.34375 51.125 25.703125 53.5625 
Q 30.078125 56 35.796875 56 
Q 45.21875 56 50.046875 50.171875 
Q 54.890625 44.34375 54.890625 33.015625 
z
" id="DejaVuSans-104"/>
      <path d="M 41.109375 46.296875 
Q 39.59375 47.171875 37.8125 47.578125 
Q 36.03125 48 33.890625 48 
Q 26.265625 48 22.1875 43.046875 
Q 18.109375 38.09375 18.109375 28.8125 
L 18.109375 0 
L 9.078125 0 
L 9.078125 54.6875 
L 18.109375 54.6875 
L 18.109375 46.1875 
Q 20.953125 51.171875 25.484375 53.578125 
Q 30.03125 56 36.53125 56 
Q 37.453125 56 38.578125 55.875 
Q 39.703125 55.765625 41.0625 55.515625 
z
" id="DejaVuSans-114"/>
      <path d="M 56.203125 29.59375 
L 56.203125 25.203125 
L 14.890625 25.203125 
Q 15.484375 15.921875 20.484375 11.0625 
Q 25.484375 6.203125 34.421875 6.203125 
Q 39.59375 6.203125 44.453125 7.46875 
Q 49.3125 8.734375 54.109375 11.28125 
L 54.109375 2.78125 
Q 49.265625 0.734375 44.1875 -0.34375 
Q 39.109375 -1.421875 33.890625 -1.421875 
Q 20.796875 -1.421875 13.15625 6.1875 
Q 5.515625 13.8125 5.515625 26.8125 
Q 5.515625 40.234375 12.765625 48.109375 
Q 20.015625 56 32.328125 56 
Q 43.359375 56 49.78125 48.890625 
Q 56.203125 41.796875 56.203125 29.59375 
z
M 47.21875 32.234375 
Q 47.125 39.59375 43.09375 43.984375 
Q 39.0625 48.390625 32.421875 48.390625 
Q 24.90625 48.390625 20.390625 44.140625 
Q 15.875 39.890625 15.1875 32.171875 
z
" id="DejaVuSans-101"/>
      <path d="M 34.28125 27.484375 
Q 23.390625 27.484375 19.1875 25 
Q 14.984375 22.515625 14.984375 16.5 
Q 14.984375 11.71875 18.140625 8.90625 
Q 21.296875 6.109375 26.703125 6.109375 
Q 34.1875 6.109375 38.703125 11.40625 
Q 43.21875 16.703125 43.21875 25.484375 
L 43.21875 27.484375 
z
M 52.203125 31.203125 
L 52.203125 0 
L 43.21875 0 
L 43.21875 8.296875 
Q 40.140625 3.328125 35.546875 0.953125 
Q 30.953125 -1.421875 24.3125 -1.421875 
Q 15.921875 -1.421875 10.953125 3.296875 
Q 6 8.015625 6 15.921875 
Q 6 25.140625 12.171875 29.828125 
Q 18.359375 34.515625 30.609375 34.515625 
L 43.21875 34.515625 
L 43.21875 35.40625 
Q 43.21875 41.609375 39.140625 45 
Q 35.0625 48.390625 27.6875 48.390625 
Q 23 48.390625 18.546875 47.265625 
Q 14.109375 46.140625 10.015625 43.890625 
L 10.015625 52.203125 
Q 14.9375 54.109375 19.578125 55.046875 
Q 24.21875 56 28.609375 56 
Q 40.484375 56 46.34375 49.84375 
Q 52.203125 43.703125 52.203125 31.203125 
z
" id="DejaVuSans-97"/>
      <path d="M 45.40625 46.390625 
L 45.40625 75.984375 
L 54.390625 75.984375 
L 54.390625 0 
L 45.40625 0 
L 45.40625 8.203125 
Q 42.578125 3.328125 38.25 0.953125 
Q 33.9375 -1.421875 27.875 -1.421875 
Q 17.96875 -1.421875 11.734375 6.484375 
Q 5.515625 14.40625 5.515625 27.296875 
Q 5.515625 40.1875 11.734375 48.09375 
Q 17.96875 56 27.875 56 
Q 33.9375 56 38.25 53.625 
Q 42.578125 51.265625 45.40625 46.390625 
z
M 14.796875 27.296875 
Q 14.796875 17.390625 18.875 11.75 
Q 22.953125 6.109375 30.078125 6.109375 
Q 37.203125 6.109375 41.296875 11.75 
Q 45.40625 17.390625 45.40625 27.296875 
Q 45.40625 37.203125 41.296875 42.84375 
Q 37.203125 48.484375 30.078125 48.484375 
Q 22.953125 48.484375 18.875 42.84375 
Q 14.796875 37.203125 14.796875 27.296875 
z
" id="DejaVuSans-100"/>
      <path d="M 44.28125 53.078125 
L 44.28125 44.578125 
Q 40.484375 46.53125 36.375 47.5 
Q 32.28125 48.484375 27.875 48.484375 
Q 21.1875 48.484375 17.84375 46.4375 
Q 14.5 44.390625 14.5 40.28125 
Q 14.5 37.15625 16.890625 35.375 
Q 19.28125 33.59375 26.515625 31.984375 
L 29.59375 31.296875 
Q 39.15625 29.25 43.1875 25.515625 
Q 47.21875 21.78125 47.21875 15.09375 
Q 47.21875 7.46875 41.1875 3.015625 
Q 35.15625 -1.421875 24.609375 -1.421875 
Q 20.21875 -1.421875 15.453125 -0.5625 
Q 10.6875 0.296875 5.421875 2 
L 5.421875 11.28125 
Q 10.40625 8.6875 15.234375 7.390625 
Q 20.0625 6.109375 24.8125 6.109375 
Q 31.15625 6.109375 34.5625 8.28125 
Q 37.984375 10.453125 37.984375 14.40625 
Q 37.984375 18.0625 35.515625 20.015625 
Q 33.0625 21.96875 24.703125 23.78125 
L 21.578125 24.515625 
Q 13.234375 26.265625 9.515625 29.90625 
Q 5.8125 33.546875 5.8125 39.890625 
Q 5.8125 47.609375 11.28125 51.796875 
Q 16.75 56 26.8125 56 
Q 31.78125 56 36.171875 55.265625 
Q 40.578125 54.546875 44.28125 53.078125 
z
" id="DejaVuSans-115"/>
     </defs>
     <g transform="translate(217.168594 335.860562)scale(0.1 -0.1)">
      <use xlink:href="#DejaVuSans-116"/>
      <use x="39.208984" xlink:href="#DejaVuSans-104"/>
      <use x="102.587891" xlink:href="#DejaVuSans-114"/>
      <use x="141.451172" xlink:href="#DejaVuSans-101"/>
      <use x="202.974609" xlink:href="#DejaVuSans-97"/>
      <use x="264.253906" xlink:href="#DejaVuSans-100"/>
      <use x="327.730469" xlink:href="#DejaVuSans-115"/>
     </g>
    </g>
   </g>
   <g id="matplotlib.axis_2">
    <g id="ytick_1">
     <g id="line2d_47">
      <path clip-path="url(#p6c9a476b34)" d="M 57.6 284.842404 
L 414.72 284.842404 
" style="fill:none;stroke:#b0b0b0;stroke-dasharray:5.12,1.28,0.8,1.28;stroke-dashoffset:0;stroke-width:0.8;"/>
     </g>
     <g id="line2d_48">
      <defs>
       <path d="M 0 0 
L -3.5 0 
" id="mf00d58d3f3" style="stroke:#000000;stroke-width:0.8;"/>
      </defs>
      <g>
       <use style="stroke:#000000;stroke-width:0.8;" x="57.6" xlink:href="#mf00d58d3f3" y="284.842404"/>
      </g>
     </g>
     <g id="text_25">
      <!-- 0.5 -->
      <defs>
       <path d="M 10.6875 12.40625 
L 21 12.40625 
L 21 0 
L 10.6875 0 
z
" id="DejaVuSans-46"/>
      </defs>
      <g transform="translate(34.696875 288.641623)scale(0.1 -0.1)">
       <use xlink:href="#DejaVuSans-48"/>
       <use x="63.623047" xlink:href="#DejaVuSans-46"/>
       <use x="95.410156" xlink:href="#DejaVuSans-53"/>
      </g>
     </g>
    </g>
    <g id="ytick_2">
     <g id="line2d_49">
      <path clip-path="url(#p6c9a476b34)" d="M 57.6 230.174159 
L 414.72 230.174159 
" style="fill:none;stroke:#b0b0b0;stroke-dasharray:5.12,1.28,0.8,1.28;stroke-dashoffset:0;stroke-width:0.8;"/>
     </g>
     <g id="line2d_50">
      <g>
       <use style="stroke:#000000;stroke-width:0.8;" x="57.6" xlink:href="#mf00d58d3f3" y="230.174159"/>
      </g>
     </g>
     <g id="text_26">
      <!-- 1.0 -->
      <g transform="translate(34.696875 233.973378)scale(0.1 -0.1)">
       <use xlink:href="#DejaVuSans-49"/>
       <use x="63.623047" xlink:href="#DejaVuSans-46"/>
       <use x="95.410156" xlink:href="#DejaVuSans-48"/>
      </g>
     </g>
    </g>
    <g id="ytick_3">
     <g id="line2d_51">
      <path clip-path="url(#p6c9a476b34)" d="M 57.6 175.505915 
L 414.72 175.505915 
" style="fill:none;stroke:#b0b0b0;stroke-dasharray:5.12,1.28,0.8,1.28;stroke-dashoffset:0;stroke-width:0.8;"/>
     </g>
     <g id="line2d_52">
      <g>
       <use style="stroke:#000000;stroke-width:0.8;" x="57.6" xlink:href="#mf00d58d3f3" y="175.505915"/>
      </g>
     </g>
     <g id="text_27">
      <!-- 1.5 -->
      <g transform="translate(34.696875 179.305134)scale(0.1 -0.1)">
       <use xlink:href="#DejaVuSans-49"/>
       <use x="63.623047" xlink:href="#DejaVuSans-46"/>
       <use x="95.410156" xlink:href="#DejaVuSans-53"/>
      </g>
     </g>
    </g>
    <g id="ytick_4">
     <g id="line2d_53">
      <path clip-path="url(#p6c9a476b34)" d="M 57.6 120.83767 
L 414.72 120.83767 
" style="fill:none;stroke:#b0b0b0;stroke-dasharray:5.12,1.28,0.8,1.28;stroke-dashoffset:0;stroke-width:0.8;"/>
     </g>
     <g id="line2d_54">
      <g>
       <use style="stroke:#000000;stroke-width:0.8;" x="57.6" xlink:href="#mf00d58d3f3" y="120.83767"/>
      </g>
     </g>
     <g id="text_28">
      <!-- 2.0 -->
      <g transform="translate(34.696875 124.636889)scale(0.1 -0.1)">
       <use xlink:href="#DejaVuSans-50"/>
       <use x="63.623047" xlink:href="#DejaVuSans-46"/>
       <use x="95.410156" xlink:href="#DejaVuSans-48"/>
      </g>
     </g>
    </g>
    <g id="ytick_5">
     <g id="line2d_55">
      <path clip-path="url(#p6c9a476b34)" d="M 57.6 66.169426 
L 414.72 66.169426 
" style="fill:none;stroke:#b0b0b0;stroke-dasharray:5.12,1.28,0.8,1.28;stroke-dashoffset:0;stroke-width:0.8;"/>
     </g>
     <g id="line2d_56">
      <g>
       <use style="stroke:#000000;stroke-width:0.8;" x="57.6" xlink:href="#mf00d58d3f3" y="66.169426"/>
      </g>
     </g>
     <g id="text_29">
      <!-- 2.5 -->
      <g transform="translate(34.696875 69.968645)scale(0.1 -0.1)">
       <use xlink:href="#DejaVuSans-50"/>
       <use x="63.623047" xlink:href="#DejaVuSans-46"/>
       <use x="95.410156" xlink:href="#DejaVuSans-53"/>
      </g>
     </g>
    </g>
    <g id="text_30">
     <!-- duration (s) -->
     <defs>
      <path d="M 8.5 21.578125 
L 8.5 54.6875 
L 17.484375 54.6875 
L 17.484375 21.921875 
Q 17.484375 14.15625 20.5 10.265625 
Q 23.53125 6.390625 29.59375 6.390625 
Q 36.859375 6.390625 41.078125 11.03125 
Q 45.3125 15.671875 45.3125 23.6875 
L 45.3125 54.6875 
L 54.296875 54.6875 
L 54.296875 0 
L 45.3125 0 
L 45.3125 8.40625 
Q 42.046875 3.421875 37.71875 1 
Q 33.40625 -1.421875 27.6875 -1.421875 
Q 18.265625 -1.421875 13.375 4.4375 
Q 8.5 10.296875 8.5 21.578125 
z
M 31.109375 56 
z
" id="DejaVuSans-117"/>
      <path d="M 9.421875 54.6875 
L 18.40625 54.6875 
L 18.40625 0 
L 9.421875 0 
z
M 9.421875 75.984375 
L 18.40625 75.984375 
L 18.40625 64.59375 
L 9.421875 64.59375 
z
" id="DejaVuSans-105"/>
      <path d="M 30.609375 48.390625 
Q 23.390625 48.390625 19.1875 42.75 
Q 14.984375 37.109375 14.984375 27.296875 
Q 14.984375 17.484375 19.15625 11.84375 
Q 23.34375 6.203125 30.609375 6.203125 
Q 37.796875 6.203125 41.984375 11.859375 
Q 46.1875 17.53125 46.1875 27.296875 
Q 46.1875 37.015625 41.984375 42.703125 
Q 37.796875 48.390625 30.609375 48.390625 
z
M 30.609375 56 
Q 42.328125 56 49.015625 48.375 
Q 55.71875 40.765625 55.71875 27.296875 
Q 55.71875 13.875 49.015625 6.21875 
Q 42.328125 -1.421875 30.609375 -1.421875 
Q 18.84375 -1.421875 12.171875 6.21875 
Q 5.515625 13.875 5.515625 27.296875 
Q 5.515625 40.765625 12.171875 48.375 
Q 18.84375 56 30.609375 56 
z
" id="DejaVuSans-111"/>
      <path d="M 54.890625 33.015625 
L 54.890625 0 
L 45.90625 0 
L 45.90625 32.71875 
Q 45.90625 40.484375 42.875 44.328125 
Q 39.84375 48.1875 33.796875 48.1875 
Q 26.515625 48.1875 22.3125 43.546875 
Q 18.109375 38.921875 18.109375 30.90625 
L 18.109375 0 
L 9.078125 0 
L 9.078125 54.6875 
L 18.109375 54.6875 
L 18.109375 46.1875 
Q 21.34375 51.125 25.703125 53.5625 
Q 30.078125 56 35.796875 56 
Q 45.21875 56 50.046875 50.171875 
Q 54.890625 44.34375 54.890625 33.015625 
z
" id="DejaVuSans-110"/>
      <path id="DejaVuSans-32"/>
      <path d="M 31 75.875 
Q 24.46875 64.65625 21.28125 53.65625 
Q 18.109375 42.671875 18.109375 31.390625 
Q 18.109375 20.125 21.3125 9.0625 
Q 24.515625 -2 31 -13.1875 
L 23.1875 -13.1875 
Q 15.875 -1.703125 12.234375 9.375 
Q 8.59375 20.453125 8.59375 31.390625 
Q 8.59375 42.28125 12.203125 53.3125 
Q 15.828125 64.359375 23.1875 75.875 
z
" id="DejaVuSans-40"/>
      <path d="M 8.015625 75.875 
L 15.828125 75.875 
Q 23.140625 64.359375 26.78125 53.3125 
Q 30.421875 42.28125 30.421875 31.390625 
Q 30.421875 20.453125 26.78125 9.375 
Q 23.140625 -1.703125 15.828125 -13.1875 
L 8.015625 -13.1875 
Q 14.5 -2 17.703125 9.0625 
Q 20.90625 20.125 20.90625 31.390625 
Q 20.90625 42.671875 17.703125 53.65625 
Q 14.5 64.65625 8.015625 75.875 
z
" id="DejaVuSans-41"/>
     </defs>
     <g transform="translate(28.617187 203.663156)rotate(-90)scale(0.1 -0.1)">
      <use xlink:href="#DejaVuSans-100"/>
      <use x="63.476562" xlink:href="#DejaVuSans-117"/>
      <use x="126.855469" xlink:href="#DejaVuSans-114"/>
      <use x="167.96875" xlink:href="#DejaVuSans-97"/>
      <use x="229.248047" xlink:href="#DejaVuSans-116"/>
      <use x="268.457031" xlink:href="#DejaVuSans-105"/>
      <use x="296.240234" xlink:href="#DejaVuSans-111"/>
      <use x="357.421875" xlink:href="#DejaVuSans-110"/>
      <use x="420.800781" xlink:href="#DejaVuSans-32"/>
      <use x="452.587891" xlink:href="#DejaVuSans-40"/>
      <use x="491.601562" xlink:href="#DejaVuSans-115"/>
      <use x="543.701172" xlink:href="#DejaVuSans-41"/>
     </g>
    </g>
   </g>
   <g id="line2d_57">
    <path clip-path="url(#p6c9a476b34)" d="M 61.612584 70.738588 
L 65.625169 187.235643 
L 69.637753 222.492642 
L 73.650337 242.730857 
L 77.662921 254.780315 
L 81.675506 262.161248 
L 85.68809 269.569455 
L 89.700674 273.36629 
L 93.713258 279.452347 
L 97.725843 281.556924 
L 101.738427 284.70617 
L 105.751011 285.713971 
L 109.763596 286.603797 
L 113.77618 287.741231 
L 117.788764 288.729645 
L 121.801348 290.313669 
L 125.813933 290.092119 
L 129.826517 289.849811 
L 133.839101 291.171346 
L 137.851685 292.196509 
L 141.86427 292.195988 
L 145.876854 292.170836 
L 149.889438 292.168933 
L 153.902022 293.532498 
L 157.914607 293.537361 
L 161.927191 293.011286 
L 165.939775 294.050261 
L 169.95236 294.315598 
L 173.964944 294.356841 
L 177.977528 293.839879 
L 181.990112 294.163757 
L 186.002697 294.485732 
L 190.015281 293.296975 
L 194.027865 295.02073 
L 198.040449 293.458368 
L 202.053034 295.094431 
L 206.065618 295.185144 
L 210.078202 295.17049 
L 214.090787 295.239048 
L 218.103371 295.281561 
L 222.115955 295.181558 
L 226.128539 295.488 
L 230.141124 295.015252 
L 234.153708 293.752857 
L 238.166292 291.546597 
L 242.178876 294.568777 
L 246.191461 295.347658 
L 250.204045 295.021709 
L 254.216629 295.036687 
L 258.229213 294.764144 
L 262.241798 294.608649 
L 266.254382 294.854097 
L 270.266966 294.436363 
L 274.279551 294.633295 
L 278.292135 294.574862 
L 282.304719 294.496282 
L 286.317303 294.804788 
L 290.329888 294.296308 
L 294.342472 294.551077 
L 298.355056 293.869991 
L 302.36764 294.029042 
L 306.380225 293.384347 
L 310.392809 294.004609 
L 314.405393 294.294651 
L 318.417978 293.754879 
L 322.430562 293.501943 
L 326.443146 293.569581 
L 330.45573 293.57748 
L 334.468315 293.659478 
L 338.480899 293.362346 
L 342.493483 293.19979 
L 346.506067 293.366505 
L 350.518652 293.113945 
L 354.531236 293.107462 
L 358.54382 293.073625 
L 362.556404 293.195522 
L 366.568989 292.710039 
L 370.581573 292.899682 
L 374.594157 292.530007 
L 378.606742 292.49305 
L 382.619326 292.933209 
L 386.63191 292.715386 
L 390.644494 292.544456 
L 394.657079 292.360115 
L 398.669663 292.644951 
L 402.682247 292.2199 
L 406.694831 292.349624 
L 410.707416 291.956566 
" style="fill:none;stroke:#0000ff;stroke-dasharray:1.5,2.475;stroke-dashoffset:0;stroke-width:1.5;"/>
    <defs>
     <path d="M 0 1.5 
C 0.397805 1.5 0.77937 1.341951 1.06066 1.06066 
C 1.341951 0.77937 1.5 0.397805 1.5 0 
C 1.5 -0.397805 1.341951 -0.77937 1.06066 -1.06066 
C 0.77937 -1.341951 0.397805 -1.5 0 -1.5 
C -0.397805 -1.5 -0.77937 -1.341951 -1.06066 -1.06066 
C -1.341951 -0.77937 -1.5 -0.397805 -1.5 0 
C -1.5 0.397805 -1.341951 0.77937 -1.06066 1.06066 
C -0.77937 1.341951 -0.397805 1.5 0 1.5 
z
" id="m618d48ca01" style="stroke:#0000ff;"/>
    </defs>
    <g clip-path="url(#p6c9a476b34)">
     <use style="fill:#0000ff;stroke:#0000ff;" x="61.612584" xlink:href="#m618d48ca01" y="70.738588"/>
     <use style="fill:#0000ff;stroke:#0000ff;" x="65.625169" xlink:href="#m618d48ca01" y="187.235643"/>
     <use style="fill:#0000ff;stroke:#0000ff;" x="69.637753" xlink:href="#m618d48ca01" y="222.492642"/>
     <use style="fill:#0000ff;stroke:#0000ff;" x="73.650337" xlink:href="#m618d48ca01" y="242.730857"/>
     <use style="fill:#0000ff;stroke:#0000ff;" x="77.662921" xlink:href="#m618d48ca01" y="254.780315"/>
     <use style="fill:#0000ff;stroke:#0000ff;" x="81.675506" xlink:href="#m618d48ca01" y="262.161248"/>
     <use style="fill:#0000ff;stroke:#0000ff;" x="85.68809" xlink:href="#m618d48ca01" y="269.569455"/>
     <use style="fill:#0000ff;stroke:#0000ff;" x="89.700674" xlink:href="#m618d48ca01" y="273.36629"/>
     <use style="fill:#0000ff;stroke:#0000ff;" x="93.713258" xlink:href="#m618d48ca01" y="279.452347"/>
     <use style="fill:#0000ff;stroke:#0000ff;" x="97.725843" xlink:href="#m618d48ca01" y="281.556924"/>
     <use style="fill:#0000ff;stroke:#0000ff;" x="101.738427" xlink:href="#m618d48ca01" y="284.70617"/>
     <use style="fill:#0000ff;stroke:#0000ff;" x="105.751011" xlink:href="#m618d48ca01" y="285.713971"/>
     <use style="fill:#0000ff;stroke:#0000ff;" x="109.763596" xlink:href="#m618d48ca01" y="286.603797"/>
     <use style="fill:#0000ff;stroke:#0000ff;" x="113.77618" xlink:href="#m618d48ca01" y="287.741231"/>
     <use style="fill:#0000ff;stroke:#0000ff;" x="117.788764" xlink:href="#m618d48ca01" y="288.729645"/>
     <use style="fill:#0000ff;stroke:#0000ff;" x="121.801348" xlink:href="#m618d48ca01" y="290.313669"/>
     <use style="fill:#0000ff;stroke:#0000ff;" x="125.813933" xlink:href="#m618d48ca01" y="290.092119"/>
     <use style="fill:#0000ff;stroke:#0000ff;" x="129.826517" xlink:href="#m618d48ca01" y="289.849811"/>
     <use style="fill:#0000ff;stroke:#0000ff;" x="133.839101" xlink:href="#m618d48ca01" y="291.171346"/>
     <use style="fill:#0000ff;stroke:#0000ff;" x="137.851685" xlink:href="#m618d48ca01" y="292.196509"/>
     <use style="fill:#0000ff;stroke:#0000ff;" x="141.86427" xlink:href="#m618d48ca01" y="292.195988"/>
     <use style="fill:#0000ff;stroke:#0000ff;" x="145.876854" xlink:href="#m618d48ca01" y="292.170836"/>
     <use style="fill:#0000ff;stroke:#0000ff;" x="149.889438" xlink:href="#m618d48ca01" y="292.168933"/>
     <use style="fill:#0000ff;stroke:#0000ff;" x="153.902022" xlink:href="#m618d48ca01" y="293.532498"/>
     <use style="fill:#0000ff;stroke:#0000ff;" x="157.914607" xlink:href="#m618d48ca01" y="293.537361"/>
     <use style="fill:#0000ff;stroke:#0000ff;" x="161.927191" xlink:href="#m618d48ca01" y="293.011286"/>
     <use style="fill:#0000ff;stroke:#0000ff;" x="165.939775" xlink:href="#m618d48ca01" y="294.050261"/>
     <use style="fill:#0000ff;stroke:#0000ff;" x="169.95236" xlink:href="#m618d48ca01" y="294.315598"/>
     <use style="fill:#0000ff;stroke:#0000ff;" x="173.964944" xlink:href="#m618d48ca01" y="294.356841"/>
     <use style="fill:#0000ff;stroke:#0000ff;" x="177.977528" xlink:href="#m618d48ca01" y="293.839879"/>
     <use style="fill:#0000ff;stroke:#0000ff;" x="181.990112" xlink:href="#m618d48ca01" y="294.163757"/>
     <use style="fill:#0000ff;stroke:#0000ff;" x="186.002697" xlink:href="#m618d48ca01" y="294.485732"/>
     <use style="fill:#0000ff;stroke:#0000ff;" x="190.015281" xlink:href="#m618d48ca01" y="293.296975"/>
     <use style="fill:#0000ff;stroke:#0000ff;" x="194.027865" xlink:href="#m618d48ca01" y="295.02073"/>
     <use style="fill:#0000ff;stroke:#0000ff;" x="198.040449" xlink:href="#m618d48ca01" y="293.458368"/>
     <use style="fill:#0000ff;stroke:#0000ff;" x="202.053034" xlink:href="#m618d48ca01" y="295.094431"/>
     <use style="fill:#0000ff;stroke:#0000ff;" x="206.065618" xlink:href="#m618d48ca01" y="295.185144"/>
     <use style="fill:#0000ff;stroke:#0000ff;" x="210.078202" xlink:href="#m618d48ca01" y="295.17049"/>
     <use style="fill:#0000ff;stroke:#0000ff;" x="214.090787" xlink:href="#m618d48ca01" y="295.239048"/>
     <use style="fill:#0000ff;stroke:#0000ff;" x="218.103371" xlink:href="#m618d48ca01" y="295.281561"/>
     <use style="fill:#0000ff;stroke:#0000ff;" x="222.115955" xlink:href="#m618d48ca01" y="295.181558"/>
     <use style="fill:#0000ff;stroke:#0000ff;" x="226.128539" xlink:href="#m618d48ca01" y="295.488"/>
     <use style="fill:#0000ff;stroke:#0000ff;" x="230.141124" xlink:href="#m618d48ca01" y="295.015252"/>
     <use style="fill:#0000ff;stroke:#0000ff;" x="234.153708" xlink:href="#m618d48ca01" y="293.752857"/>
     <use style="fill:#0000ff;stroke:#0000ff;" x="238.166292" xlink:href="#m618d48ca01" y="291.546597"/>
     <use style="fill:#0000ff;stroke:#0000ff;" x="242.178876" xlink:href="#m618d48ca01" y="294.568777"/>
     <use style="fill:#0000ff;stroke:#0000ff;" x="246.191461" xlink:href="#m618d48ca01" y="295.347658"/>
     <use style="fill:#0000ff;stroke:#0000ff;" x="250.204045" xlink:href="#m618d48ca01" y="295.021709"/>
     <use style="fill:#0000ff;stroke:#0000ff;" x="254.216629" xlink:href="#m618d48ca01" y="295.036687"/>
     <use style="fill:#0000ff;stroke:#0000ff;" x="258.229213" xlink:href="#m618d48ca01" y="294.764144"/>
     <use style="fill:#0000ff;stroke:#0000ff;" x="262.241798" xlink:href="#m618d48ca01" y="294.608649"/>
     <use style="fill:#0000ff;stroke:#0000ff;" x="266.254382" xlink:href="#m618d48ca01" y="294.854097"/>
     <use style="fill:#0000ff;stroke:#0000ff;" x="270.266966" xlink:href="#m618d48ca01" y="294.436363"/>
     <use style="fill:#0000ff;stroke:#0000ff;" x="274.279551" xlink:href="#m618d48ca01" y="294.633295"/>
     <use style="fill:#0000ff;stroke:#0000ff;" x="278.292135" xlink:href="#m618d48ca01" y="294.574862"/>
     <use style="fill:#0000ff;stroke:#0000ff;" x="282.304719" xlink:href="#m618d48ca01" y="294.496282"/>
     <use style="fill:#0000ff;stroke:#0000ff;" x="286.317303" xlink:href="#m618d48ca01" y="294.804788"/>
     <use style="fill:#0000ff;stroke:#0000ff;" x="290.329888" xlink:href="#m618d48ca01" y="294.296308"/>
     <use style="fill:#0000ff;stroke:#0000ff;" x="294.342472" xlink:href="#m618d48ca01" y="294.551077"/>
     <use style="fill:#0000ff;stroke:#0000ff;" x="298.355056" xlink:href="#m618d48ca01" y="293.869991"/>
     <use style="fill:#0000ff;stroke:#0000ff;" x="302.36764" xlink:href="#m618d48ca01" y="294.029042"/>
     <use style="fill:#0000ff;stroke:#0000ff;" x="306.380225" xlink:href="#m618d48ca01" y="293.384347"/>
     <use style="fill:#0000ff;stroke:#0000ff;" x="310.392809" xlink:href="#m618d48ca01" y="294.004609"/>
     <use style="fill:#0000ff;stroke:#0000ff;" x="314.405393" xlink:href="#m618d48ca01" y="294.294651"/>
     <use style="fill:#0000ff;stroke:#0000ff;" x="318.417978" xlink:href="#m618d48ca01" y="293.754879"/>
     <use style="fill:#0000ff;stroke:#0000ff;" x="322.430562" xlink:href="#m618d48ca01" y="293.501943"/>
     <use style="fill:#0000ff;stroke:#0000ff;" x="326.443146" xlink:href="#m618d48ca01" y="293.569581"/>
     <use style="fill:#0000ff;stroke:#0000ff;" x="330.45573" xlink:href="#m618d48ca01" y="293.57748"/>
     <use style="fill:#0000ff;stroke:#0000ff;" x="334.468315" xlink:href="#m618d48ca01" y="293.659478"/>
     <use style="fill:#0000ff;stroke:#0000ff;" x="338.480899" xlink:href="#m618d48ca01" y="293.362346"/>
     <use style="fill:#0000ff;stroke:#0000ff;" x="342.493483" xlink:href="#m618d48ca01" y="293.19979"/>
     <use style="fill:#0000ff;stroke:#0000ff;" x="346.506067" xlink:href="#m618d48ca01" y="293.366505"/>
     <use style="fill:#0000ff;stroke:#0000ff;" x="350.518652" xlink:href="#m618d48ca01" y="293.113945"/>
     <use style="fill:#0000ff;stroke:#0000ff;" x="354.531236" xlink:href="#m618d48ca01" y="293.107462"/>
     <use style="fill:#0000ff;stroke:#0000ff;" x="358.54382" xlink:href="#m618d48ca01" y="293.073625"/>
     <use style="fill:#0000ff;stroke:#0000ff;" x="362.556404" xlink:href="#m618d48ca01" y="293.195522"/>
     <use style="fill:#0000ff;stroke:#0000ff;" x="366.568989" xlink:href="#m618d48ca01" y="292.710039"/>
     <use style="fill:#0000ff;stroke:#0000ff;" x="370.581573" xlink:href="#m618d48ca01" y="292.899682"/>
     <use style="fill:#0000ff;stroke:#0000ff;" x="374.594157" xlink:href="#m618d48ca01" y="292.530007"/>
     <use style="fill:#0000ff;stroke:#0000ff;" x="378.606742" xlink:href="#m618d48ca01" y="292.49305"/>
     <use style="fill:#0000ff;stroke:#0000ff;" x="382.619326" xlink:href="#m618d48ca01" y="292.933209"/>
     <use style="fill:#0000ff;stroke:#0000ff;" x="386.63191" xlink:href="#m618d48ca01" y="292.715386"/>
     <use style="fill:#0000ff;stroke:#0000ff;" x="390.644494" xlink:href="#m618d48ca01" y="292.544456"/>
     <use style="fill:#0000ff;stroke:#0000ff;" x="394.657079" xlink:href="#m618d48ca01" y="292.360115"/>
     <use style="fill:#0000ff;stroke:#0000ff;" x="398.669663" xlink:href="#m618d48ca01" y="292.644951"/>
     <use style="fill:#0000ff;stroke:#0000ff;" x="402.682247" xlink:href="#m618d48ca01" y="292.2199"/>
     <use style="fill:#0000ff;stroke:#0000ff;" x="406.694831" xlink:href="#m618d48ca01" y="292.349624"/>
     <use style="fill:#0000ff;stroke:#0000ff;" x="410.707416" xlink:href="#m618d48ca01" y="291.956566"/>
    </g>
   </g>
   <g id="line2d_58">
    <path clip-path="url(#p6c9a476b34)" d="M 61.612584 53.568 
L 65.625169 179.368813 
L 69.637753 217.684229 
L 73.650337 236.892589 
L 77.662921 249.502372 
L 81.675506 257.488846 
L 85.68809 263.479912 
L 89.700674 265.025665 
L 93.713258 270.566804 
L 97.725843 273.031884 
L 101.738427 274.506717 
L 105.751011 276.094815 
L 109.763596 276.965239 
L 113.77618 279.082899 
L 117.788764 278.855401 
L 121.801348 281.064729 
L 125.813933 281.321356 
L 129.826517 280.179606 
L 133.839101 281.632174 
L 137.851685 280.309056 
L 141.86427 281.423013 
L 145.876854 280.819833 
L 149.889438 283.339298 
L 153.902022 280.608896 
L 157.914607 283.955077 
L 161.927191 280.842032 
L 165.939775 283.78825 
L 169.95236 282.706695 
L 173.964944 283.428715 
L 177.977528 283.95358 
L 181.990112 282.792536 
L 186.002697 283.321553 
L 190.015281 281.944702 
L 194.027865 284.465198 
L 198.040449 281.161657 
L 202.053034 282.922529 
L 206.065618 283.858395 
L 210.078202 283.085598 
L 214.090787 283.35857 
L 218.103371 283.07716 
L 222.115955 283.693091 
L 226.128539 283.314128 
L 230.141124 284.709275 
L 234.153708 282.916299 
L 238.166292 281.200528 
L 242.178876 284.095854 
L 246.191461 284.273979 
L 250.204045 283.241752 
L 254.216629 283.533675 
L 258.229213 284.663724 
L 262.241798 284.293653 
L 266.254382 284.633384 
L 270.266966 283.69353 
L 274.279551 284.066617 
L 278.292135 285.078195 
L 282.304719 283.39178 
L 286.317303 284.515498 
L 290.329888 284.093947 
L 294.342472 283.408687 
L 298.355056 284.248381 
L 302.36764 283.777592 
L 306.380225 282.905663 
L 310.392809 283.502583 
L 314.405393 283.976065 
L 318.417978 284.170263 
L 322.430562 283.962595 
L 326.443146 283.384947 
L 330.45573 282.630938 
L 334.468315 283.687579 
L 338.480899 284.29864 
L 342.493483 283.180333 
L 346.506067 283.894033 
L 350.518652 283.294201 
L 354.531236 282.401999 
L 358.54382 282.455326 
L 362.556404 282.910977 
L 366.568989 282.502192 
L 370.581573 282.686365 
L 374.594157 282.302468 
L 378.606742 282.872907 
L 382.619326 282.876817 
L 386.63191 282.172974 
L 390.644494 283.072196 
L 394.657079 283.142065 
L 398.669663 282.461437 
L 402.682247 281.786797 
L 406.694831 282.811823 
L 410.707416 281.914418 
" style="fill:none;stroke:#ff0000;stroke-dasharray:1.5,2.475;stroke-dashoffset:0;stroke-width:1.5;"/>
    <defs>
     <path d="M 0 1.5 
C 0.397805 1.5 0.77937 1.341951 1.06066 1.06066 
C 1.341951 0.77937 1.5 0.397805 1.5 0 
C 1.5 -0.397805 1.341951 -0.77937 1.06066 -1.06066 
C 0.77937 -1.341951 0.397805 -1.5 0 -1.5 
C -0.397805 -1.5 -0.77937 -1.341951 -1.06066 -1.06066 
C -1.341951 -0.77937 -1.5 -0.397805 -1.5 0 
C -1.5 0.397805 -1.341951 0.77937 -1.06066 1.06066 
C -0.77937 1.341951 -0.397805 1.5 0 1.5 
z
" id="ma6b1ec56fa" style="stroke:#ff0000;"/>
    </defs>
    <g clip-path="url(#p6c9a476b34)">
     <use style="fill:#ff0000;stroke:#ff0000;" x="61.612584" xlink:href="#ma6b1ec56fa" y="53.568"/>
     <use style="fill:#ff0000;stroke:#ff0000;" x="65.625169" xlink:href="#ma6b1ec56fa" y="179.368813"/>
     <use style="fill:#ff0000;stroke:#ff0000;" x="69.637753" xlink:href="#ma6b1ec56fa" y="217.684229"/>
     <use style="fill:#ff0000;stroke:#ff0000;" x="73.650337" xlink:href="#ma6b1ec56fa" y="236.892589"/>
     <use style="fill:#ff0000;stroke:#ff0000;" x="77.662921" xlink:href="#ma6b1ec56fa" y="249.502372"/>
     <use style="fill:#ff0000;stroke:#ff0000;" x="81.675506" xlink:href="#ma6b1ec56fa" y="257.488846"/>
     <use style="fill:#ff0000;stroke:#ff0000;" x="85.68809" xlink:href="#ma6b1ec56fa" y="263.479912"/>
     <use style="fill:#ff0000;stroke:#ff0000;" x="89.700674" xlink:href="#ma6b1ec56fa" y="265.025665"/>
     <use style="fill:#ff0000;stroke:#ff0000;" x="93.713258" xlink:href="#ma6b1ec56fa" y="270.566804"/>
     <use style="fill:#ff0000;stroke:#ff0000;" x="97.725843" xlink:href="#ma6b1ec56fa" y="273.031884"/>
     <use style="fill:#ff0000;stroke:#ff0000;" x="101.738427" xlink:href="#ma6b1ec56fa" y="274.506717"/>
     <use style="fill:#ff0000;stroke:#ff0000;" x="105.751011" xlink:href="#ma6b1ec56fa" y="276.094815"/>
     <use style="fill:#ff0000;stroke:#ff0000;" x="109.763596" xlink:href="#ma6b1ec56fa" y="276.965239"/>
     <use style="fill:#ff0000;stroke:#ff0000;" x="113.77618" xlink:href="#ma6b1ec56fa" y="279.082899"/>
     <use style="fill:#ff0000;stroke:#ff0000;" x="117.788764" xlink:href="#ma6b1ec56fa" y="278.855401"/>
     <use style="fill:#ff0000;stroke:#ff0000;" x="121.801348" xlink:href="#ma6b1ec56fa" y="281.064729"/>
     <use style="fill:#ff0000;stroke:#ff0000;" x="125.813933" xlink:href="#ma6b1ec56fa" y="281.321356"/>
     <use style="fill:#ff0000;stroke:#ff0000;" x="129.826517" xlink:href="#ma6b1ec56fa" y="280.179606"/>
     <use style="fill:#ff0000;stroke:#ff0000;" x="133.839101" xlink:href="#ma6b1ec56fa" y="281.632174"/>
     <use style="fill:#ff0000;stroke:#ff0000;" x="137.851685" xlink:href="#ma6b1ec56fa" y="280.309056"/>
     <use style="fill:#ff0000;stroke:#ff0000;" x="141.86427" xlink:href="#ma6b1ec56fa" y="281.423013"/>
     <use style="fill:#ff0000;stroke:#ff0000;" x="145.876854" xlink:href="#ma6b1ec56fa" y="280.819833"/>
     <use style="fill:#ff0000;stroke:#ff0000;" x="149.889438" xlink:href="#ma6b1ec56fa" y="283.339298"/>
     <use style="fill:#ff0000;stroke:#ff0000;" x="153.902022" xlink:href="#ma6b1ec56fa" y="280.608896"/>
     <use style="fill:#ff0000;stroke:#ff0000;" x="157.914607" xlink:href="#ma6b1ec56fa" y="283.955077"/>
     <use style="fill:#ff0000;stroke:#ff0000;" x="161.927191" xlink:href="#ma6b1ec56fa" y="280.842032"/>
     <use style="fill:#ff0000;stroke:#ff0000;" x="165.939775" xlink:href="#ma6b1ec56fa" y="283.78825"/>
     <use style="fill:#ff0000;stroke:#ff0000;" x="169.95236" xlink:href="#ma6b1ec56fa" y="282.706695"/>
     <use style="fill:#ff0000;stroke:#ff0000;" x="173.964944" xlink:href="#ma6b1ec56fa" y="283.428715"/>
     <use style="fill:#ff0000;stroke:#ff0000;" x="177.977528" xlink:href="#ma6b1ec56fa" y="283.95358"/>
     <use style="fill:#ff0000;stroke:#ff0000;" x="181.990112" xlink:href="#ma6b1ec56fa" y="282.792536"/>
     <use style="fill:#ff0000;stroke:#ff0000;" x="186.002697" xlink:href="#ma6b1ec56fa" y="283.321553"/>
     <use style="fill:#ff0000;stroke:#ff0000;" x="190.015281" xlink:href="#ma6b1ec56fa" y="281.944702"/>
     <use style="fill:#ff0000;stroke:#ff0000;" x="194.027865" xlink:href="#ma6b1ec56fa" y="284.465198"/>
     <use style="fill:#ff0000;stroke:#ff0000;" x="198.040449" xlink:href="#ma6b1ec56fa" y="281.161657"/>
     <use style="fill:#ff0000;stroke:#ff0000;" x="202.053034" xlink:href="#ma6b1ec56fa" y="282.922529"/>
     <use style="fill:#ff0000;stroke:#ff0000;" x="206.065618" xlink:href="#ma6b1ec56fa" y="283.858395"/>
     <use style="fill:#ff0000;stroke:#ff0000;" x="210.078202" xlink:href="#ma6b1ec56fa" y="283.085598"/>
     <use style="fill:#ff0000;stroke:#ff0000;" x="214.090787" xlink:href="#ma6b1ec56fa" y="283.35857"/>
     <use style="fill:#ff0000;stroke:#ff0000;" x="218.103371" xlink:href="#ma6b1ec56fa" y="283.07716"/>
     <use style="fill:#ff0000;stroke:#ff0000;" x="222.115955" xlink:href="#ma6b1ec56fa" y="283.693091"/>
     <use style="fill:#ff0000;stroke:#ff0000;" x="226.128539" xlink:href="#ma6b1ec56fa" y="283.314128"/>
     <use style="fill:#ff0000;stroke:#ff0000;" x="230.141124" xlink:href="#ma6b1ec56fa" y="284.709275"/>
     <use style="fill:#ff0000;stroke:#ff0000;" x="234.153708" xlink:href="#ma6b1ec56fa" y="282.916299"/>
     <use style="fill:#ff0000;stroke:#ff0000;" x="238.166292" xlink:href="#ma6b1ec56fa" y="281.200528"/>
     <use style="fill:#ff0000;stroke:#ff0000;" x="242.178876" xlink:href="#ma6b1ec56fa" y="284.095854"/>
     <use style="fill:#ff0000;stroke:#ff0000;" x="246.191461" xlink:href="#ma6b1ec56fa" y="284.273979"/>
     <use style="fill:#ff0000;stroke:#ff0000;" x="250.204045" xlink:href="#ma6b1ec56fa" y="283.241752"/>
     <use style="fill:#ff0000;stroke:#ff0000;" x="254.216629" xlink:href="#ma6b1ec56fa" y="283.533675"/>
     <use style="fill:#ff0000;stroke:#ff0000;" x="258.229213" xlink:href="#ma6b1ec56fa" y="284.663724"/>
     <use style="fill:#ff0000;stroke:#ff0000;" x="262.241798" xlink:href="#ma6b1ec56fa" y="284.293653"/>
     <use style="fill:#ff0000;stroke:#ff0000;" x="266.254382" xlink:href="#ma6b1ec56fa" y="284.633384"/>
     <use style="fill:#ff0000;stroke:#ff0000;" x="270.266966" xlink:href="#ma6b1ec56fa" y="283.69353"/>
     <use style="fill:#ff0000;stroke:#ff0000;" x="274.279551" xlink:href="#ma6b1ec56fa" y="284.066617"/>
     <use style="fill:#ff0000;stroke:#ff0000;" x="278.292135" xlink:href="#ma6b1ec56fa" y="285.078195"/>
     <use style="fill:#ff0000;stroke:#ff0000;" x="282.304719" xlink:href="#ma6b1ec56fa" y="283.39178"/>
     <use style="fill:#ff0000;stroke:#ff0000;" x="286.317303" xlink:href="#ma6b1ec56fa" y="284.515498"/>
     <use style="fill:#ff0000;stroke:#ff0000;" x="290.329888" xlink:href="#ma6b1ec56fa" y="284.093947"/>
     <use style="fill:#ff0000;stroke:#ff0000;" x="294.342472" xlink:href="#ma6b1ec56fa" y="283.408687"/>
     <use style="fill:#ff0000;stroke:#ff0000;" x="298.355056" xlink:href="#ma6b1ec56fa" y="284.248381"/>
     <use style="fill:#ff0000;stroke:#ff0000;" x="302.36764" xlink:href="#ma6b1ec56fa" y="283.777592"/>
     <use style="fill:#ff0000;stroke:#ff0000;" x="306.380225" xlink:href="#ma6b1ec56fa" y="282.905663"/>
     <use style="fill:#ff0000;stroke:#ff0000;" x="310.392809" xlink:href="#ma6b1ec56fa" y="283.502583"/>
     <use style="fill:#ff0000;stroke:#ff0000;" x="314.405393" xlink:href="#ma6b1ec56fa" y="283.976065"/>
     <use style="fill:#ff0000;stroke:#ff0000;" x="318.417978" xlink:href="#ma6b1ec56fa" y="284.170263"/>
     <use style="fill:#ff0000;stroke:#ff0000;" x="322.430562" xlink:href="#ma6b1ec56fa" y="283.962595"/>
     <use style="fill:#ff0000;stroke:#ff0000;" x="326.443146" xlink:href="#ma6b1ec56fa" y="283.384947"/>
     <use style="fill:#ff0000;stroke:#ff0000;" x="330.45573" xlink:href="#ma6b1ec56fa" y="282.630938"/>
     <use style="fill:#ff0000;stroke:#ff0000;" x="334.468315" xlink:href="#ma6b1ec56fa" y="283.687579"/>
     <use style="fill:#ff0000;stroke:#ff0000;" x="338.480899" xlink:href="#ma6b1ec56fa" y="284.29864"/>
     <use style="fill:#ff0000;stroke:#ff0000;" x="342.493483" xlink:href="#ma6b1ec56fa" y="283.180333"/>
     <use style="fill:#ff0000;stroke:#ff0000;" x="346.506067" xlink:href="#ma6b1ec56fa" y="283.894033"/>
     <use style="fill:#ff0000;stroke:#ff0000;" x="350.518652" xlink:href="#ma6b1ec56fa" y="283.294201"/>
     <use style="fill:#ff0000;stroke:#ff0000;" x="354.531236" xlink:href="#ma6b1ec56fa" y="282.401999"/>
     <use style="fill:#ff0000;stroke:#ff0000;" x="358.54382" xlink:href="#ma6b1ec56fa" y="282.455326"/>
     <use style="fill:#ff0000;stroke:#ff0000;" x="362.556404" xlink:href="#ma6b1ec56fa" y="282.910977"/>
     <use style="fill:#ff0000;stroke:#ff0000;" x="366.568989" xlink:href="#ma6b1ec56fa" y="282.502192"/>
     <use style="fill:#ff0000;stroke:#ff0000;" x="370.581573" xlink:href="#ma6b1ec56fa" y="282.686365"/>
     <use style="fill:#ff0000;stroke:#ff0000;" x="374.594157" xlink:href="#ma6b1ec56fa" y="282.302468"/>
     <use style="fill:#ff0000;stroke:#ff0000;" x="378.606742" xlink:href="#ma6b1ec56fa" y="282.872907"/>
     <use style="fill:#ff0000;stroke:#ff0000;" x="382.619326" xlink:href="#ma6b1ec56fa" y="282.876817"/>
     <use style="fill:#ff0000;stroke:#ff0000;" x="386.63191" xlink:href="#ma6b1ec56fa" y="282.172974"/>
     <use style="fill:#ff0000;stroke:#ff0000;" x="390.644494" xlink:href="#ma6b1ec56fa" y="283.072196"/>
     <use style="fill:#ff0000;stroke:#ff0000;" x="394.657079" xlink:href="#ma6b1ec56fa" y="283.142065"/>
     <use style="fill:#ff0000;stroke:#ff0000;" x="398.669663" xlink:href="#ma6b1ec56fa" y="282.461437"/>
     <use style="fill:#ff0000;stroke:#ff0000;" x="402.682247" xlink:href="#ma6b1ec56fa" y="281.786797"/>
     <use style="fill:#ff0000;stroke:#ff0000;" x="406.694831" xlink:href="#ma6b1ec56fa" y="282.811823"/>
     <use style="fill:#ff0000;stroke:#ff0000;" x="410.707416" xlink:href="#ma6b1ec56fa" y="281.914418"/>
    </g>
   </g>
   <g id="line2d_59">
    <path clip-path="url(#p6c9a476b34)" d="M 61.612584 62.153294 
L 65.625169 183.302228 
L 69.637753 220.088435 
L 73.650337 239.811723 
L 77.662921 252.141343 
L 81.675506 259.825047 
L 85.68809 266.524684 
L 89.700674 269.195977 
L 93.713258 275.009575 
L 97.725843 277.294404 
L 101.738427 279.606443 
L 105.751011 280.904393 
L 109.763596 281.784518 
L 113.77618 283.412065 
L 117.788764 283.792523 
L 121.801348 285.689199 
L 125.813933 285.706737 
L 129.826517 285.014709 
L 133.839101 286.40176 
L 137.851685 286.252783 
L 141.86427 286.809501 
L 145.876854 286.495335 
L 149.889438 287.754116 
L 153.902022 287.070697 
L 157.914607 288.746219 
L 161.927191 286.926659 
L 165.939775 288.919255 
L 169.95236 288.511147 
L 173.964944 288.892778 
L 177.977528 288.896729 
L 181.990112 288.478147 
L 186.002697 288.903643 
L 190.015281 287.620838 
L 194.027865 289.742964 
L 198.040449 287.310013 
L 202.053034 289.00848 
L 206.065618 289.521769 
L 210.078202 289.128044 
L 214.090787 289.298809 
L 218.103371 289.179361 
L 222.115955 289.437324 
L 226.128539 289.401064 
L 230.141124 289.862264 
L 234.153708 288.334578 
L 238.166292 286.373562 
L 242.178876 289.332315 
L 246.191461 289.810819 
L 250.204045 289.131731 
L 254.216629 289.285181 
L 258.229213 289.713934 
L 262.241798 289.451151 
L 266.254382 289.743741 
L 270.266966 289.064947 
L 274.279551 289.349956 
L 278.292135 289.826528 
L 282.304719 288.944031 
L 286.317303 289.660143 
L 290.329888 289.195128 
L 294.342472 288.979882 
L 298.355056 289.059186 
L 302.36764 288.903317 
L 306.380225 288.145005 
L 310.392809 288.753596 
L 314.405393 289.135358 
L 318.417978 288.962571 
L 322.430562 288.732269 
L 326.443146 288.477264 
L 330.45573 288.104209 
L 334.468315 288.673529 
L 338.480899 288.830493 
L 342.493483 288.190061 
L 346.506067 288.630269 
L 350.518652 288.204073 
L 354.531236 287.75473 
L 358.54382 287.764476 
L 362.556404 288.05325 
L 366.568989 287.606115 
L 370.581573 287.793024 
L 374.594157 287.416237 
L 378.606742 287.682978 
L 382.619326 287.905013 
L 386.63191 287.44418 
L 390.644494 287.808326 
L 394.657079 287.75109 
L 398.669663 287.553194 
L 402.682247 287.003349 
L 406.694831 287.580724 
L 410.707416 286.935492 
" style="fill:none;stroke:#008000;stroke-dasharray:1.5,2.475;stroke-dashoffset:0;stroke-width:1.5;"/>
    <defs>
     <path d="M 0 1.5 
C 0.397805 1.5 0.77937 1.341951 1.06066 1.06066 
C 1.341951 0.77937 1.5 0.397805 1.5 0 
C 1.5 -0.397805 1.341951 -0.77937 1.06066 -1.06066 
C 0.77937 -1.341951 0.397805 -1.5 0 -1.5 
C -0.397805 -1.5 -0.77937 -1.341951 -1.06066 -1.06066 
C -1.341951 -0.77937 -1.5 -0.397805 -1.5 0 
C -1.5 0.397805 -1.341951 0.77937 -1.06066 1.06066 
C -0.77937 1.341951 -0.397805 1.5 0 1.5 
z
" id="m2b59768966" style="stroke:#008000;"/>
    </defs>
    <g clip-path="url(#p6c9a476b34)">
     <use style="fill:#008000;stroke:#008000;" x="61.612584" xlink:href="#m2b59768966" y="62.153294"/>
     <use style="fill:#008000;stroke:#008000;" x="65.625169" xlink:href="#m2b59768966" y="183.302228"/>
     <use style="fill:#008000;stroke:#008000;" x="69.637753" xlink:href="#m2b59768966" y="220.088435"/>
     <use style="fill:#008000;stroke:#008000;" x="73.650337" xlink:href="#m2b59768966" y="239.811723"/>
     <use style="fill:#008000;stroke:#008000;" x="77.662921" xlink:href="#m2b59768966" y="252.141343"/>
     <use style="fill:#008000;stroke:#008000;" x="81.675506" xlink:href="#m2b59768966" y="259.825047"/>
     <use style="fill:#008000;stroke:#008000;" x="85.68809" xlink:href="#m2b59768966" y="266.524684"/>
     <use style="fill:#008000;stroke:#008000;" x="89.700674" xlink:href="#m2b59768966" y="269.195977"/>
     <use style="fill:#008000;stroke:#008000;" x="93.713258" xlink:href="#m2b59768966" y="275.009575"/>
     <use style="fill:#008000;stroke:#008000;" x="97.725843" xlink:href="#m2b59768966" y="277.294404"/>
     <use style="fill:#008000;stroke:#008000;" x="101.738427" xlink:href="#m2b59768966" y="279.606443"/>
     <use style="fill:#008000;stroke:#008000;" x="105.751011" xlink:href="#m2b59768966" y="280.904393"/>
     <use style="fill:#008000;stroke:#008000;" x="109.763596" xlink:href="#m2b59768966" y="281.784518"/>
     <use style="fill:#008000;stroke:#008000;" x="113.77618" xlink:href="#m2b59768966" y="283.412065"/>
     <use style="fill:#008000;stroke:#008000;" x="117.788764" xlink:href="#m2b59768966" y="283.792523"/>
     <use style="fill:#008000;stroke:#008000;" x="121.801348" xlink:href="#m2b59768966" y="285.689199"/>
     <use style="fill:#008000;stroke:#008000;" x="125.813933" xlink:href="#m2b59768966" y="285.706737"/>
     <use style="fill:#008000;stroke:#008000;" x="129.826517" xlink:href="#m2b59768966" y="285.014709"/>
     <use style="fill:#008000;stroke:#008000;" x="133.839101" xlink:href="#m2b59768966" y="286.40176"/>
     <use style="fill:#008000;stroke:#008000;" x="137.851685" xlink:href="#m2b59768966" y="286.252783"/>
     <use style="fill:#008000;stroke:#008000;" x="141.86427" xlink:href="#m2b59768966" y="286.809501"/>
     <use style="fill:#008000;stroke:#008000;" x="145.876854" xlink:href="#m2b59768966" y="286.495335"/>
     <use style="fill:#008000;stroke:#008000;" x="149.889438" xlink:href="#m2b59768966" y="287.754116"/>
     <use style="fill:#008000;stroke:#008000;" x="153.902022" xlink:href="#m2b59768966" y="287.070697"/>
     <use style="fill:#008000;stroke:#008000;" x="157.914607" xlink:href="#m2b59768966" y="288.746219"/>
     <use style="fill:#008000;stroke:#008000;" x="161.927191" xlink:href="#m2b59768966" y="286.926659"/>
     <use style="fill:#008000;stroke:#008000;" x="165.939775" xlink:href="#m2b59768966" y="288.919255"/>
     <use style="fill:#008000;stroke:#008000;" x="169.95236" xlink:href="#m2b59768966" y="288.511147"/>
     <use style="fill:#008000;stroke:#008000;" x="173.964944" xlink:href="#m2b59768966" y="288.892778"/>
     <use style="fill:#008000;stroke:#008000;" x="177.977528" xlink:href="#m2b59768966" y="288.896729"/>
     <use style="fill:#008000;stroke:#008000;" x="181.990112" xlink:href="#m2b59768966" y="288.478147"/>
     <use style="fill:#008000;stroke:#008000;" x="186.002697" xlink:href="#m2b59768966" y="288.903643"/>
     <use style="fill:#008000;stroke:#008000;" x="190.015281" xlink:href="#m2b59768966" y="287.620838"/>
     <use style="fill:#008000;stroke:#008000;" x="194.027865" xlink:href="#m2b59768966" y="289.742964"/>
     <use style="fill:#008000;stroke:#008000;" x="198.040449" xlink:href="#m2b59768966" y="287.310013"/>
     <use style="fill:#008000;stroke:#008000;" x="202.053034" xlink:href="#m2b59768966" y="289.00848"/>
     <use style="fill:#008000;stroke:#008000;" x="206.065618" xlink:href="#m2b59768966" y="289.521769"/>
     <use style="fill:#008000;stroke:#008000;" x="210.078202" xlink:href="#m2b59768966" y="289.128044"/>
     <use style="fill:#008000;stroke:#008000;" x="214.090787" xlink:href="#m2b59768966" y="289.298809"/>
     <use style="fill:#008000;stroke:#008000;" x="218.103371" xlink:href="#m2b59768966" y="289.179361"/>
     <use style="fill:#008000;stroke:#008000;" x="222.115955" xlink:href="#m2b59768966" y="289.437324"/>
     <use style="fill:#008000;stroke:#008000;" x="226.128539" xlink:href="#m2b59768966" y="289.401064"/>
     <use style="fill:#008000;stroke:#008000;" x="230.141124" xlink:href="#m2b59768966" y="289.862264"/>
     <use style="fill:#008000;stroke:#008000;" x="234.153708" xlink:href="#m2b59768966" y="288.334578"/>
     <use style="fill:#008000;stroke:#008000;" x="238.166292" xlink:href="#m2b59768966" y="286.373562"/>
     <use style="fill:#008000;stroke:#008000;" x="242.178876" xlink:href="#m2b59768966" y="289.332315"/>
     <use style="fill:#008000;stroke:#008000;" x="246.191461" xlink:href="#m2b59768966" y="289.810819"/>
     <use style="fill:#008000;stroke:#008000;" x="250.204045" xlink:href="#m2b59768966" y="289.131731"/>
     <use style="fill:#008000;stroke:#008000;" x="254.216629" xlink:href="#m2b59768966" y="289.285181"/>
     <use style="fill:#008000;stroke:#008000;" x="258.229213" xlink:href="#m2b59768966" y="289.713934"/>
     <use style="fill:#008000;stroke:#008000;" x="262.241798" xlink:href="#m2b59768966" y="289.451151"/>
     <use style="fill:#008000;stroke:#008000;" x="266.254382" xlink:href="#m2b59768966" y="289.743741"/>
     <use style="fill:#008000;stroke:#008000;" x="270.266966" xlink:href="#m2b59768966" y="289.064947"/>
     <use style="fill:#008000;stroke:#008000;" x="274.279551" xlink:href="#m2b59768966" y="289.349956"/>
     <use style="fill:#008000;stroke:#008000;" x="278.292135" xlink:href="#m2b59768966" y="289.826528"/>
     <use style="fill:#008000;stroke:#008000;" x="282.304719" xlink:href="#m2b59768966" y="288.944031"/>
     <use style="fill:#008000;stroke:#008000;" x="286.317303" xlink:href="#m2b59768966" y="289.660143"/>
     <use style="fill:#008000;stroke:#008000;" x="290.329888" xlink:href="#m2b59768966" y="289.195128"/>
     <use style="fill:#008000;stroke:#008000;" x="294.342472" xlink:href="#m2b59768966" y="288.979882"/>
     <use style="fill:#008000;stroke:#008000;" x="298.355056" xlink:href="#m2b59768966" y="289.059186"/>
     <use style="fill:#008000;stroke:#008000;" x="302.36764" xlink:href="#m2b59768966" y="288.903317"/>
     <use style="fill:#008000;stroke:#008000;" x="306.380225" xlink:href="#m2b59768966" y="288.145005"/>
     <use style="fill:#008000;stroke:#008000;" x="310.392809" xlink:href="#m2b59768966" y="288.753596"/>
     <use style="fill:#008000;stroke:#008000;" x="314.405393" xlink:href="#m2b59768966" y="289.135358"/>
     <use style="fill:#008000;stroke:#008000;" x="318.417978" xlink:href="#m2b59768966" y="288.962571"/>
     <use style="fill:#008000;stroke:#008000;" x="322.430562" xlink:href="#m2b59768966" y="288.732269"/>
     <use style="fill:#008000;stroke:#008000;" x="326.443146" xlink:href="#m2b59768966" y="288.477264"/>
     <use style="fill:#008000;stroke:#008000;" x="330.45573" xlink:href="#m2b59768966" y="288.104209"/>
     <use style="fill:#008000;stroke:#008000;" x="334.468315" xlink:href="#m2b59768966" y="288.673529"/>
     <use style="fill:#008000;stroke:#008000;" x="338.480899" xlink:href="#m2b59768966" y="288.830493"/>
     <use style="fill:#008000;stroke:#008000;" x="342.493483" xlink:href="#m2b59768966" y="288.190061"/>
     <use style="fill:#008000;stroke:#008000;" x="346.506067" xlink:href="#m2b59768966" y="288.630269"/>
     <use style="fill:#008000;stroke:#008000;" x="350.518652" xlink:href="#m2b59768966" y="288.204073"/>
     <use style="fill:#008000;stroke:#008000;" x="354.531236" xlink:href="#m2b59768966" y="287.75473"/>
     <use style="fill:#008000;stroke:#008000;" x="358.54382" xlink:href="#m2b59768966" y="287.764476"/>
     <use style="fill:#008000;stroke:#008000;" x="362.556404" xlink:href="#m2b59768966" y="288.05325"/>
     <use style="fill:#008000;stroke:#008000;" x="366.568989" xlink:href="#m2b59768966" y="287.606115"/>
     <use style="fill:#008000;stroke:#008000;" x="370.581573" xlink:href="#m2b59768966" y="287.793024"/>
     <use style="fill:#008000;stroke:#008000;" x="374.594157" xlink:href="#m2b59768966" y="287.416237"/>
     <use style="fill:#008000;stroke:#008000;" x="378.606742" xlink:href="#m2b59768966" y="287.682978"/>
     <use style="fill:#008000;stroke:#008000;" x="382.619326" xlink:href="#m2b59768966" y="287.905013"/>
     <use style="fill:#008000;stroke:#008000;" x="386.63191" xlink:href="#m2b59768966" y="287.44418"/>
     <use style="fill:#008000;stroke:#008000;" x="390.644494" xlink:href="#m2b59768966" y="287.808326"/>
     <use style="fill:#008000;stroke:#008000;" x="394.657079" xlink:href="#m2b59768966" y="287.75109"/>
     <use style="fill:#008000;stroke:#008000;" x="398.669663" xlink:href="#m2b59768966" y="287.553194"/>
     <use style="fill:#008000;stroke:#008000;" x="402.682247" xlink:href="#m2b59768966" y="287.003349"/>
     <use style="fill:#008000;stroke:#008000;" x="406.694831" xlink:href="#m2b59768966" y="287.580724"/>
     <use style="fill:#008000;stroke:#008000;" x="410.707416" xlink:href="#m2b59768966" y="286.935492"/>
    </g>
   </g>
   <g id="patch_3">
    <path d="M 57.6 307.584 
L 57.6 41.472 
" style="fill:none;stroke:#000000;stroke-linecap:square;stroke-linejoin:miter;stroke-width:0.8;"/>
   </g>
   <g id="patch_4">
    <path d="M 414.72 307.584 
L 414.72 41.472 
" style="fill:none;stroke:#000000;stroke-linecap:square;stroke-linejoin:miter;stroke-width:0.8;"/>
   </g>
   <g id="patch_5">
    <path d="M 57.6 307.584 
L 414.72 307.584 
" style="fill:none;stroke:#000000;stroke-linecap:square;stroke-linejoin:miter;stroke-width:0.8;"/>
   </g>
   <g id="patch_6">
    <path d="M 57.6 41.472 
L 414.72 41.472 
" style="fill:none;stroke:#000000;stroke-linecap:square;stroke-linejoin:miter;stroke-width:0.8;"/>
   </g>
   <g id="text_31">
    <!-- tbb::parallel_sort O2 OMP AVX2 on pre_transpose38 -->
    <defs>
     <path d="M 48.6875 27.296875 
Q 48.6875 37.203125 44.609375 42.84375 
Q 40.53125 48.484375 33.40625 48.484375 
Q 26.265625 48.484375 22.1875 42.84375 
Q 18.109375 37.203125 18.109375 27.296875 
Q 18.109375 17.390625 22.1875 11.75 
Q 26.265625 6.109375 33.40625 6.109375 
Q 40.53125 6.109375 44.609375 11.75 
Q 48.6875 17.390625 48.6875 27.296875 
z
M 18.109375 46.390625 
Q 20.953125 51.265625 25.265625 53.625 
Q 29.59375 56 35.59375 56 
Q 45.5625 56 51.78125 48.09375 
Q 58.015625 40.1875 58.015625 27.296875 
Q 58.015625 14.40625 51.78125 6.484375 
Q 45.5625 -1.421875 35.59375 -1.421875 
Q 29.59375 -1.421875 25.265625 0.953125 
Q 20.953125 3.328125 18.109375 8.203125 
L 18.109375 0 
L 9.078125 0 
L 9.078125 75.984375 
L 18.109375 75.984375 
z
" id="DejaVuSans-98"/>
     <path d="M 11.71875 12.40625 
L 22.015625 12.40625 
L 22.015625 0 
L 11.71875 0 
z
M 11.71875 51.703125 
L 22.015625 51.703125 
L 22.015625 39.3125 
L 11.71875 39.3125 
z
" id="DejaVuSans-58"/>
     <path d="M 18.109375 8.203125 
L 18.109375 -20.796875 
L 9.078125 -20.796875 
L 9.078125 54.6875 
L 18.109375 54.6875 
L 18.109375 46.390625 
Q 20.953125 51.265625 25.265625 53.625 
Q 29.59375 56 35.59375 56 
Q 45.5625 56 51.78125 48.09375 
Q 58.015625 40.1875 58.015625 27.296875 
Q 58.015625 14.40625 51.78125 6.484375 
Q 45.5625 -1.421875 35.59375 -1.421875 
Q 29.59375 -1.421875 25.265625 0.953125 
Q 20.953125 3.328125 18.109375 8.203125 
z
M 48.6875 27.296875 
Q 48.6875 37.203125 44.609375 42.84375 
Q 40.53125 48.484375 33.40625 48.484375 
Q 26.265625 48.484375 22.1875 42.84375 
Q 18.109375 37.203125 18.109375 27.296875 
Q 18.109375 17.390625 22.1875 11.75 
Q 26.265625 6.109375 33.40625 6.109375 
Q 40.53125 6.109375 44.609375 11.75 
Q 48.6875 17.390625 48.6875 27.296875 
z
" id="DejaVuSans-112"/>
     <path d="M 9.421875 75.984375 
L 18.40625 75.984375 
L 18.40625 0 
L 9.421875 0 
z
" id="DejaVuSans-108"/>
     <path d="M 50.984375 -16.609375 
L 50.984375 -23.578125 
L -0.984375 -23.578125 
L -0.984375 -16.609375 
z
" id="DejaVuSans-95"/>
     <path d="M 39.40625 66.21875 
Q 28.65625 66.21875 22.328125 58.203125 
Q 16.015625 50.203125 16.015625 36.375 
Q 16.015625 22.609375 22.328125 14.59375 
Q 28.65625 6.59375 39.40625 6.59375 
Q 50.140625 6.59375 56.421875 14.59375 
Q 62.703125 22.609375 62.703125 36.375 
Q 62.703125 50.203125 56.421875 58.203125 
Q 50.140625 66.21875 39.40625 66.21875 
z
M 39.40625 74.21875 
Q 54.734375 74.21875 63.90625 63.9375 
Q 73.09375 53.65625 73.09375 36.375 
Q 73.09375 19.140625 63.90625 8.859375 
Q 54.734375 -1.421875 39.40625 -1.421875 
Q 24.03125 -1.421875 14.8125 8.828125 
Q 5.609375 19.09375 5.609375 36.375 
Q 5.609375 53.65625 14.8125 63.9375 
Q 24.03125 74.21875 39.40625 74.21875 
z
" id="DejaVuSans-79"/>
     <path d="M 9.8125 72.90625 
L 24.515625 72.90625 
L 43.109375 23.296875 
L 61.8125 72.90625 
L 76.515625 72.90625 
L 76.515625 0 
L 66.890625 0 
L 66.890625 64.015625 
L 48.09375 14.015625 
L 38.1875 14.015625 
L 19.390625 64.015625 
L 19.390625 0 
L 9.8125 0 
z
" id="DejaVuSans-77"/>
     <path d="M 19.671875 64.796875 
L 19.671875 37.40625 
L 32.078125 37.40625 
Q 38.96875 37.40625 42.71875 40.96875 
Q 46.484375 44.53125 46.484375 51.125 
Q 46.484375 57.671875 42.71875 61.234375 
Q 38.96875 64.796875 32.078125 64.796875 
z
M 9.8125 72.90625 
L 32.078125 72.90625 
Q 44.34375 72.90625 50.609375 67.359375 
Q 56.890625 61.8125 56.890625 51.125 
Q 56.890625 40.328125 50.609375 34.8125 
Q 44.34375 29.296875 32.078125 29.296875 
L 19.671875 29.296875 
L 19.671875 0 
L 9.8125 0 
z
" id="DejaVuSans-80"/>
     <path d="M 34.1875 63.1875 
L 20.796875 26.90625 
L 47.609375 26.90625 
z
M 28.609375 72.90625 
L 39.796875 72.90625 
L 67.578125 0 
L 57.328125 0 
L 50.6875 18.703125 
L 17.828125 18.703125 
L 11.1875 0 
L 0.78125 0 
z
" id="DejaVuSans-65"/>
     <path d="M 28.609375 0 
L 0.78125 72.90625 
L 11.078125 72.90625 
L 34.1875 11.53125 
L 57.328125 72.90625 
L 67.578125 72.90625 
L 39.796875 0 
z
" id="DejaVuSans-86"/>
     <path d="M 6.296875 72.90625 
L 16.890625 72.90625 
L 35.015625 45.796875 
L 53.21875 72.90625 
L 63.8125 72.90625 
L 40.375 37.890625 
L 65.375 0 
L 54.78125 0 
L 34.28125 31 
L 13.625 0 
L 2.984375 0 
L 29 38.921875 
z
" id="DejaVuSans-88"/>
    </defs>
    <g transform="translate(80.200312 35.472)scale(0.12 -0.12)">
     <use xlink:href="#DejaVuSans-116"/>
     <use x="39.208984" xlink:href="#DejaVuSans-98"/>
     <use x="102.685547" xlink:href="#DejaVuSans-98"/>
     <use x="166.162109" xlink:href="#DejaVuSans-58"/>
     <use x="199.853516" xlink:href="#DejaVuSans-58"/>
     <use x="233.544922" xlink:href="#DejaVuSans-112"/>
     <use x="297.021484" xlink:href="#DejaVuSans-97"/>
     <use x="358.300781" xlink:href="#DejaVuSans-114"/>
     <use x="399.414062" xlink:href="#DejaVuSans-97"/>
     <use x="460.693359" xlink:href="#DejaVuSans-108"/>
     <use x="488.476562" xlink:href="#DejaVuSans-108"/>
     <use x="516.259766" xlink:href="#DejaVuSans-101"/>
     <use x="577.783203" xlink:href="#DejaVuSans-108"/>
     <use x="605.566406" xlink:href="#DejaVuSans-95"/>
     <use x="655.566406" xlink:href="#DejaVuSans-115"/>
     <use x="707.666016" xlink:href="#DejaVuSans-111"/>
     <use x="768.847656" xlink:href="#DejaVuSans-114"/>
     <use x="809.960938" xlink:href="#DejaVuSans-116"/>
     <use x="849.169922" xlink:href="#DejaVuSans-32"/>
     <use x="880.957031" xlink:href="#DejaVuSans-79"/>
     <use x="959.667969" xlink:href="#DejaVuSans-50"/>
     <use x="1023.291016" xlink:href="#DejaVuSans-32"/>
     <use x="1055.078125" xlink:href="#DejaVuSans-79"/>
     <use x="1133.789062" xlink:href="#DejaVuSans-77"/>
     <use x="1220.068359" xlink:href="#DejaVuSans-80"/>
     <use x="1280.371094" xlink:href="#DejaVuSans-32"/>
     <use x="1312.158203" xlink:href="#DejaVuSans-65"/>
     <use x="1374.191406" xlink:href="#DejaVuSans-86"/>
     <use x="1442.599609" xlink:href="#DejaVuSans-88"/>
     <use x="1511.105469" xlink:href="#DejaVuSans-50"/>
     <use x="1574.728516" xlink:href="#DejaVuSans-32"/>
     <use x="1606.515625" xlink:href="#DejaVuSans-111"/>
     <use x="1667.697266" xlink:href="#DejaVuSans-110"/>
     <use x="1731.076172" xlink:href="#DejaVuSans-32"/>
     <use x="1762.863281" xlink:href="#DejaVuSans-112"/>
     <use x="1826.339844" xlink:href="#DejaVuSans-114"/>
     <use x="1865.203125" xlink:href="#DejaVuSans-101"/>
     <use x="1926.726562" xlink:href="#DejaVuSans-95"/>
     <use x="1976.726562" xlink:href="#DejaVuSans-116"/>
     <use x="2015.935547" xlink:href="#DejaVuSans-114"/>
     <use x="2057.048828" xlink:href="#DejaVuSans-97"/>
     <use x="2118.328125" xlink:href="#DejaVuSans-110"/>
     <use x="2181.707031" xlink:href="#DejaVuSans-115"/>
     <use x="2233.806641" xlink:href="#DejaVuSans-112"/>
     <use x="2297.283203" xlink:href="#DejaVuSans-111"/>
     <use x="2358.464844" xlink:href="#DejaVuSans-115"/>
     <use x="2410.564453" xlink:href="#DejaVuSans-101"/>
     <use x="2472.087891" xlink:href="#DejaVuSans-51"/>
     <use x="2535.710938" xlink:href="#DejaVuSans-56"/>
    </g>
   </g>
   <g id="legend_1">
    <g id="patch_7">
     <path d="M 313.152813 93.7845 
L 407.72 93.7845 
Q 409.72 93.7845 409.72 91.7845 
L 409.72 48.472 
Q 409.72 46.472 407.72 46.472 
L 313.152813 46.472 
Q 311.152813 46.472 311.152813 48.472 
L 311.152813 91.7845 
Q 311.152813 93.7845 313.152813 93.7845 
z
" style="fill:#ffffff;opacity:0.8;stroke:#cccccc;stroke-linejoin:miter;"/>
    </g>
    <g id="line2d_60">
     <path d="M 315.152813 54.570438 
L 335.152813 54.570438 
" style="fill:none;stroke:#0000ff;stroke-dasharray:1.5,2.475;stroke-dashoffset:0;stroke-width:1.5;"/>
    </g>
    <g id="line2d_61">
     <g>
      <use style="fill:#0000ff;stroke:#0000ff;" x="325.152813" xlink:href="#m618d48ca01" y="54.570438"/>
     </g>
    </g>
    <g id="text_32">
     <!-- transpose -->
     <g transform="translate(343.152813 58.070438)scale(0.1 -0.1)">
      <use xlink:href="#DejaVuSans-116"/>
      <use x="39.208984" xlink:href="#DejaVuSans-114"/>
      <use x="80.322266" xlink:href="#DejaVuSans-97"/>
      <use x="141.601562" xlink:href="#DejaVuSans-110"/>
      <use x="204.980469" xlink:href="#DejaVuSans-115"/>
      <use x="257.080078" xlink:href="#DejaVuSans-112"/>
      <use x="320.556641" xlink:href="#DejaVuSans-111"/>
      <use x="381.738281" xlink:href="#DejaVuSans-115"/>
      <use x="433.837891" xlink:href="#DejaVuSans-101"/>
     </g>
    </g>
    <g id="line2d_62">
     <path d="M 315.152813 69.248563 
L 335.152813 69.248563 
" style="fill:none;stroke:#ff0000;stroke-dasharray:1.5,2.475;stroke-dashoffset:0;stroke-width:1.5;"/>
    </g>
    <g id="line2d_63">
     <g>
      <use style="fill:#ff0000;stroke:#ff0000;" x="325.152813" xlink:href="#ma6b1ec56fa" y="69.248563"/>
     </g>
    </g>
    <g id="text_33">
     <!-- transpose_tr -->
     <g transform="translate(343.152813 72.748563)scale(0.1 -0.1)">
      <use xlink:href="#DejaVuSans-116"/>
      <use x="39.208984" xlink:href="#DejaVuSans-114"/>
      <use x="80.322266" xlink:href="#DejaVuSans-97"/>
      <use x="141.601562" xlink:href="#DejaVuSans-110"/>
      <use x="204.980469" xlink:href="#DejaVuSans-115"/>
      <use x="257.080078" xlink:href="#DejaVuSans-112"/>
      <use x="320.556641" xlink:href="#DejaVuSans-111"/>
      <use x="381.738281" xlink:href="#DejaVuSans-115"/>
      <use x="433.837891" xlink:href="#DejaVuSans-101"/>
      <use x="495.361328" xlink:href="#DejaVuSans-95"/>
      <use x="545.361328" xlink:href="#DejaVuSans-116"/>
      <use x="584.570312" xlink:href="#DejaVuSans-114"/>
     </g>
    </g>
    <g id="line2d_64">
     <path d="M 315.152813 84.204813 
L 335.152813 84.204813 
" style="fill:none;stroke:#008000;stroke-dasharray:1.5,2.475;stroke-dashoffset:0;stroke-width:1.5;"/>
    </g>
    <g id="line2d_65">
     <g>
      <use style="fill:#008000;stroke:#008000;" x="325.152813" xlink:href="#m2b59768966" y="84.204813"/>
     </g>
    </g>
    <g id="text_34">
     <!-- mean -->
     <defs>
      <path d="M 52 44.1875 
Q 55.375 50.25 60.0625 53.125 
Q 64.75 56 71.09375 56 
Q 79.640625 56 84.28125 50.015625 
Q 88.921875 44.046875 88.921875 33.015625 
L 88.921875 0 
L 79.890625 0 
L 79.890625 32.71875 
Q 79.890625 40.578125 77.09375 44.375 
Q 74.3125 48.1875 68.609375 48.1875 
Q 61.625 48.1875 57.5625 43.546875 
Q 53.515625 38.921875 53.515625 30.90625 
L 53.515625 0 
L 44.484375 0 
L 44.484375 32.71875 
Q 44.484375 40.625 41.703125 44.40625 
Q 38.921875 48.1875 33.109375 48.1875 
Q 26.21875 48.1875 22.15625 43.53125 
Q 18.109375 38.875 18.109375 30.90625 
L 18.109375 0 
L 9.078125 0 
L 9.078125 54.6875 
L 18.109375 54.6875 
L 18.109375 46.1875 
Q 21.1875 51.21875 25.484375 53.609375 
Q 29.78125 56 35.6875 56 
Q 41.65625 56 45.828125 52.96875 
Q 50 49.953125 52 44.1875 
z
" id="DejaVuSans-109"/>
     </defs>
     <g transform="translate(343.152813 87.704813)scale(0.1 -0.1)">
      <use xlink:href="#DejaVuSans-109"/>
      <use x="97.412109" xlink:href="#DejaVuSans-101"/>
      <use x="158.935547" xlink:href="#DejaVuSans-97"/>
      <use x="220.214844" xlink:href="#DejaVuSans-110"/>
     </g>
    </g>
   </g>
  </g>
 </g>
 <defs>
  <clipPath id="p6c9a476b34">
   <rect height="266.112" width="357.12" x="57.6" y="41.472"/>
  </clipPath>
 </defs>
</svg>
