<?xml version="1.0" encoding="utf-8" standalone="no"?>
<!DOCTYPE svg PUBLIC "-//W3C//DTD SVG 1.1//EN"
  "http://www.w3.org/Graphics/SVG/1.1/DTD/svg11.dtd">
<!-- Created with matplotlib (https://matplotlib.org/) -->
<svg height="345.6pt" version="1.1" viewBox="0 0 460.8 345.6" width="460.8pt" xmlns="http://www.w3.org/2000/svg" xmlns:xlink="http://www.w3.org/1999/xlink">
 <defs>
  <style type="text/css">
*{stroke-linecap:butt;stroke-linejoin:round;}
  </style>
 </defs>
 <g id="figure_1">
  <g id="patch_1">
   <path d="M 0 345.6 
L 460.8 345.6 
L 460.8 0 
L 0 0 
z
" style="fill:#ffffff;"/>
  </g>
  <g id="axes_1">
   <g id="patch_2">
    <path d="M 57.6 307.584 
L 414.72 307.584 
L 414.72 41.472 
L 57.6 41.472 
z
" style="fill:#ffffff;"/>
   </g>
   <g id="matplotlib.axis_1">
    <g id="xtick_1">
     <g id="line2d_1">
      <path clip-path="url(#pd7816d9315)" d="M 61.612584 307.584 
L 61.612584 41.472 
" style="fill:none;stroke:#b0b0b0;stroke-dasharray:5.12,1.28,0.8,1.28;stroke-dashoffset:0;stroke-width:0.8;"/>
     </g>
     <g id="line2d_2">
      <defs>
       <path d="M 0 0 
L 0 3.5 
" id="mcef89b9294" style="stroke:#000000;stroke-width:0.8;"/>
      </defs>
      <g>
       <use style="stroke:#000000;stroke-width:0.8;" x="61.612584" xlink:href="#mcef89b9294" y="307.584"/>
      </g>
     </g>
     <g id="text_1">
      <!-- 1 -->
      <defs>
       <path d="M 12.40625 8.296875 
L 28.515625 8.296875 
L 28.515625 63.921875 
L 10.984375 60.40625 
L 10.984375 69.390625 
L 28.421875 72.90625 
L 38.28125 72.90625 
L 38.28125 8.296875 
L 54.390625 8.296875 
L 54.390625 0 
L 12.40625 0 
z
" id="DejaVuSans-49"/>
      </defs>
      <g transform="translate(58.431334 322.182437)scale(0.1 -0.1)">
       <use xlink:href="#DejaVuSans-49"/>
      </g>
     </g>
    </g>
    <g id="xtick_2">
     <g id="line2d_3">
      <path clip-path="url(#pd7816d9315)" d="M 73.650337 307.584 
L 73.650337 41.472 
" style="fill:none;stroke:#b0b0b0;stroke-dasharray:5.12,1.28,0.8,1.28;stroke-dashoffset:0;stroke-width:0.8;"/>
     </g>
     <g id="line2d_4">
      <g>
       <use style="stroke:#000000;stroke-width:0.8;" x="73.650337" xlink:href="#mcef89b9294" y="307.584"/>
      </g>
     </g>
     <g id="text_2">
      <!-- 4 -->
      <defs>
       <path d="M 37.796875 64.3125 
L 12.890625 25.390625 
L 37.796875 25.390625 
z
M 35.203125 72.90625 
L 47.609375 72.90625 
L 47.609375 25.390625 
L 58.015625 25.390625 
L 58.015625 17.1875 
L 47.609375 17.1875 
L 47.609375 0 
L 37.796875 0 
L 37.796875 17.1875 
L 4.890625 17.1875 
L 4.890625 26.703125 
z
" id="DejaVuSans-52"/>
      </defs>
      <g transform="translate(70.469087 322.182437)scale(0.1 -0.1)">
       <use xlink:href="#DejaVuSans-52"/>
      </g>
     </g>
    </g>
    <g id="xtick_3">
     <g id="line2d_5">
      <path clip-path="url(#pd7816d9315)" d="M 89.700674 307.584 
L 89.700674 41.472 
" style="fill:none;stroke:#b0b0b0;stroke-dasharray:5.12,1.28,0.8,1.28;stroke-dashoffset:0;stroke-width:0.8;"/>
     </g>
     <g id="line2d_6">
      <g>
       <use style="stroke:#000000;stroke-width:0.8;" x="89.700674" xlink:href="#mcef89b9294" y="307.584"/>
      </g>
     </g>
     <g id="text_3">
      <!-- 8 -->
      <defs>
       <path d="M 31.78125 34.625 
Q 24.75 34.625 20.71875 30.859375 
Q 16.703125 27.09375 16.703125 20.515625 
Q 16.703125 13.921875 20.71875 10.15625 
Q 24.75 6.390625 31.78125 6.390625 
Q 38.8125 6.390625 42.859375 10.171875 
Q 46.921875 13.96875 46.921875 20.515625 
Q 46.921875 27.09375 42.890625 30.859375 
Q 38.875 34.625 31.78125 34.625 
z
M 21.921875 38.8125 
Q 15.578125 40.375 12.03125 44.71875 
Q 8.5 49.078125 8.5 55.328125 
Q 8.5 64.0625 14.71875 69.140625 
Q 20.953125 74.21875 31.78125 74.21875 
Q 42.671875 74.21875 48.875 69.140625 
Q 55.078125 64.0625 55.078125 55.328125 
Q 55.078125 49.078125 51.53125 44.71875 
Q 48 40.375 41.703125 38.8125 
Q 48.828125 37.15625 52.796875 32.3125 
Q 56.78125 27.484375 56.78125 20.515625 
Q 56.78125 9.90625 50.3125 4.234375 
Q 43.84375 -1.421875 31.78125 -1.421875 
Q 19.734375 -1.421875 13.25 4.234375 
Q 6.78125 9.90625 6.78125 20.515625 
Q 6.78125 27.484375 10.78125 32.3125 
Q 14.796875 37.15625 21.921875 38.8125 
z
M 18.3125 54.390625 
Q 18.3125 48.734375 21.84375 45.5625 
Q 25.390625 42.390625 31.78125 42.390625 
Q 38.140625 42.390625 41.71875 45.5625 
Q 45.3125 48.734375 45.3125 54.390625 
Q 45.3125 60.0625 41.71875 63.234375 
Q 38.140625 66.40625 31.78125 66.40625 
Q 25.390625 66.40625 21.84375 63.234375 
Q 18.3125 60.0625 18.3125 54.390625 
z
" id="DejaVuSans-56"/>
      </defs>
      <g transform="translate(86.519424 322.182437)scale(0.1 -0.1)">
       <use xlink:href="#DejaVuSans-56"/>
      </g>
     </g>
    </g>
    <g id="xtick_4">
     <g id="line2d_7">
      <path clip-path="url(#pd7816d9315)" d="M 105.751011 307.584 
L 105.751011 41.472 
" style="fill:none;stroke:#b0b0b0;stroke-dasharray:5.12,1.28,0.8,1.28;stroke-dashoffset:0;stroke-width:0.8;"/>
     </g>
     <g id="line2d_8">
      <g>
       <use style="stroke:#000000;stroke-width:0.8;" x="105.751011" xlink:href="#mcef89b9294" y="307.584"/>
      </g>
     </g>
     <g id="text_4">
      <!-- 12 -->
      <defs>
       <path d="M 19.1875 8.296875 
L 53.609375 8.296875 
L 53.609375 0 
L 7.328125 0 
L 7.328125 8.296875 
Q 12.9375 14.109375 22.625 23.890625 
Q 32.328125 33.6875 34.8125 36.53125 
Q 39.546875 41.84375 41.421875 45.53125 
Q 43.3125 49.21875 43.3125 52.78125 
Q 43.3125 58.59375 39.234375 62.25 
Q 35.15625 65.921875 28.609375 65.921875 
Q 23.96875 65.921875 18.8125 64.3125 
Q 13.671875 62.703125 7.8125 59.421875 
L 7.8125 69.390625 
Q 13.765625 71.78125 18.9375 73 
Q 24.125 74.21875 28.421875 74.21875 
Q 39.75 74.21875 46.484375 68.546875 
Q 53.21875 62.890625 53.21875 53.421875 
Q 53.21875 48.921875 51.53125 44.890625 
Q 49.859375 40.875 45.40625 35.40625 
Q 44.1875 33.984375 37.640625 27.21875 
Q 31.109375 20.453125 19.1875 8.296875 
z
" id="DejaVuSans-50"/>
      </defs>
      <g transform="translate(99.388511 322.182437)scale(0.1 -0.1)">
       <use xlink:href="#DejaVuSans-49"/>
       <use x="63.623047" xlink:href="#DejaVuSans-50"/>
      </g>
     </g>
    </g>
    <g id="xtick_5">
     <g id="line2d_9">
      <path clip-path="url(#pd7816d9315)" d="M 121.801348 307.584 
L 121.801348 41.472 
" style="fill:none;stroke:#b0b0b0;stroke-dasharray:5.12,1.28,0.8,1.28;stroke-dashoffset:0;stroke-width:0.8;"/>
     </g>
     <g id="line2d_10">
      <g>
       <use style="stroke:#000000;stroke-width:0.8;" x="121.801348" xlink:href="#mcef89b9294" y="307.584"/>
      </g>
     </g>
     <g id="text_5">
      <!-- 16 -->
      <defs>
       <path d="M 33.015625 40.375 
Q 26.375 40.375 22.484375 35.828125 
Q 18.609375 31.296875 18.609375 23.390625 
Q 18.609375 15.53125 22.484375 10.953125 
Q 26.375 6.390625 33.015625 6.390625 
Q 39.65625 6.390625 43.53125 10.953125 
Q 47.40625 15.53125 47.40625 23.390625 
Q 47.40625 31.296875 43.53125 35.828125 
Q 39.65625 40.375 33.015625 40.375 
z
M 52.59375 71.296875 
L 52.59375 62.3125 
Q 48.875 64.0625 45.09375 64.984375 
Q 41.3125 65.921875 37.59375 65.921875 
Q 27.828125 65.921875 22.671875 59.328125 
Q 17.53125 52.734375 16.796875 39.40625 
Q 19.671875 43.65625 24.015625 45.921875 
Q 28.375 48.1875 33.59375 48.1875 
Q 44.578125 48.1875 50.953125 41.515625 
Q 57.328125 34.859375 57.328125 23.390625 
Q 57.328125 12.15625 50.6875 5.359375 
Q 44.046875 -1.421875 33.015625 -1.421875 
Q 20.359375 -1.421875 13.671875 8.265625 
Q 6.984375 17.96875 6.984375 36.375 
Q 6.984375 53.65625 15.1875 63.9375 
Q 23.390625 74.21875 37.203125 74.21875 
Q 40.921875 74.21875 44.703125 73.484375 
Q 48.484375 72.75 52.59375 71.296875 
z
" id="DejaVuSans-54"/>
      </defs>
      <g transform="translate(115.438848 322.182437)scale(0.1 -0.1)">
       <use xlink:href="#DejaVuSans-49"/>
       <use x="63.623047" xlink:href="#DejaVuSans-54"/>
      </g>
     </g>
    </g>
    <g id="xtick_6">
     <g id="line2d_11">
      <path clip-path="url(#pd7816d9315)" d="M 137.851685 307.584 
L 137.851685 41.472 
" style="fill:none;stroke:#b0b0b0;stroke-dasharray:5.12,1.28,0.8,1.28;stroke-dashoffset:0;stroke-width:0.8;"/>
     </g>
     <g id="line2d_12">
      <g>
       <use style="stroke:#000000;stroke-width:0.8;" x="137.851685" xlink:href="#mcef89b9294" y="307.584"/>
      </g>
     </g>
     <g id="text_6">
      <!-- 20 -->
      <defs>
       <path d="M 31.78125 66.40625 
Q 24.171875 66.40625 20.328125 58.90625 
Q 16.5 51.421875 16.5 36.375 
Q 16.5 21.390625 20.328125 13.890625 
Q 24.171875 6.390625 31.78125 6.390625 
Q 39.453125 6.390625 43.28125 13.890625 
Q 47.125 21.390625 47.125 36.375 
Q 47.125 51.421875 43.28125 58.90625 
Q 39.453125 66.40625 31.78125 66.40625 
z
M 31.78125 74.21875 
Q 44.046875 74.21875 50.515625 64.515625 
Q 56.984375 54.828125 56.984375 36.375 
Q 56.984375 17.96875 50.515625 8.265625 
Q 44.046875 -1.421875 31.78125 -1.421875 
Q 19.53125 -1.421875 13.0625 8.265625 
Q 6.59375 17.96875 6.59375 36.375 
Q 6.59375 54.828125 13.0625 64.515625 
Q 19.53125 74.21875 31.78125 74.21875 
z
" id="DejaVuSans-48"/>
      </defs>
      <g transform="translate(131.489185 322.182437)scale(0.1 -0.1)">
       <use xlink:href="#DejaVuSans-50"/>
       <use x="63.623047" xlink:href="#DejaVuSans-48"/>
      </g>
     </g>
    </g>
    <g id="xtick_7">
     <g id="line2d_13">
      <path clip-path="url(#pd7816d9315)" d="M 153.902022 307.584 
L 153.902022 41.472 
" style="fill:none;stroke:#b0b0b0;stroke-dasharray:5.12,1.28,0.8,1.28;stroke-dashoffset:0;stroke-width:0.8;"/>
     </g>
     <g id="line2d_14">
      <g>
       <use style="stroke:#000000;stroke-width:0.8;" x="153.902022" xlink:href="#mcef89b9294" y="307.584"/>
      </g>
     </g>
     <g id="text_7">
      <!-- 24 -->
      <g transform="translate(147.539522 322.182437)scale(0.1 -0.1)">
       <use xlink:href="#DejaVuSans-50"/>
       <use x="63.623047" xlink:href="#DejaVuSans-52"/>
      </g>
     </g>
    </g>
    <g id="xtick_8">
     <g id="line2d_15">
      <path clip-path="url(#pd7816d9315)" d="M 169.95236 307.584 
L 169.95236 41.472 
" style="fill:none;stroke:#b0b0b0;stroke-dasharray:5.12,1.28,0.8,1.28;stroke-dashoffset:0;stroke-width:0.8;"/>
     </g>
     <g id="line2d_16">
      <g>
       <use style="stroke:#000000;stroke-width:0.8;" x="169.95236" xlink:href="#mcef89b9294" y="307.584"/>
      </g>
     </g>
     <g id="text_8">
      <!-- 28 -->
      <g transform="translate(163.58986 322.182437)scale(0.1 -0.1)">
       <use xlink:href="#DejaVuSans-50"/>
       <use x="63.623047" xlink:href="#DejaVuSans-56"/>
      </g>
     </g>
    </g>
    <g id="xtick_9">
     <g id="line2d_17">
      <path clip-path="url(#pd7816d9315)" d="M 186.002697 307.584 
L 186.002697 41.472 
" style="fill:none;stroke:#b0b0b0;stroke-dasharray:5.12,1.28,0.8,1.28;stroke-dashoffset:0;stroke-width:0.8;"/>
     </g>
     <g id="line2d_18">
      <g>
       <use style="stroke:#000000;stroke-width:0.8;" x="186.002697" xlink:href="#mcef89b9294" y="307.584"/>
      </g>
     </g>
     <g id="text_9">
      <!-- 32 -->
      <defs>
       <path d="M 40.578125 39.3125 
Q 47.65625 37.796875 51.625 33 
Q 55.609375 28.21875 55.609375 21.1875 
Q 55.609375 10.40625 48.1875 4.484375 
Q 40.765625 -1.421875 27.09375 -1.421875 
Q 22.515625 -1.421875 17.65625 -0.515625 
Q 12.796875 0.390625 7.625 2.203125 
L 7.625 11.71875 
Q 11.71875 9.328125 16.59375 8.109375 
Q 21.484375 6.890625 26.8125 6.890625 
Q 36.078125 6.890625 40.9375 10.546875 
Q 45.796875 14.203125 45.796875 21.1875 
Q 45.796875 27.640625 41.28125 31.265625 
Q 36.765625 34.90625 28.71875 34.90625 
L 20.21875 34.90625 
L 20.21875 43.015625 
L 29.109375 43.015625 
Q 36.375 43.015625 40.234375 45.921875 
Q 44.09375 48.828125 44.09375 54.296875 
Q 44.09375 59.90625 40.109375 62.90625 
Q 36.140625 65.921875 28.71875 65.921875 
Q 24.65625 65.921875 20.015625 65.03125 
Q 15.375 64.15625 9.8125 62.3125 
L 9.8125 71.09375 
Q 15.4375 72.65625 20.34375 73.4375 
Q 25.25 74.21875 29.59375 74.21875 
Q 40.828125 74.21875 47.359375 69.109375 
Q 53.90625 64.015625 53.90625 55.328125 
Q 53.90625 49.265625 50.4375 45.09375 
Q 46.96875 40.921875 40.578125 39.3125 
z
" id="DejaVuSans-51"/>
      </defs>
      <g transform="translate(179.640197 322.182437)scale(0.1 -0.1)">
       <use xlink:href="#DejaVuSans-51"/>
       <use x="63.623047" xlink:href="#DejaVuSans-50"/>
      </g>
     </g>
    </g>
    <g id="xtick_10">
     <g id="line2d_19">
      <path clip-path="url(#pd7816d9315)" d="M 202.053034 307.584 
L 202.053034 41.472 
" style="fill:none;stroke:#b0b0b0;stroke-dasharray:5.12,1.28,0.8,1.28;stroke-dashoffset:0;stroke-width:0.8;"/>
     </g>
     <g id="line2d_20">
      <g>
       <use style="stroke:#000000;stroke-width:0.8;" x="202.053034" xlink:href="#mcef89b9294" y="307.584"/>
      </g>
     </g>
     <g id="text_10">
      <!-- 36 -->
      <g transform="translate(195.690534 322.182437)scale(0.1 -0.1)">
       <use xlink:href="#DejaVuSans-51"/>
       <use x="63.623047" xlink:href="#DejaVuSans-54"/>
      </g>
     </g>
    </g>
    <g id="xtick_11">
     <g id="line2d_21">
      <path clip-path="url(#pd7816d9315)" d="M 218.103371 307.584 
L 218.103371 41.472 
" style="fill:none;stroke:#b0b0b0;stroke-dasharray:5.12,1.28,0.8,1.28;stroke-dashoffset:0;stroke-width:0.8;"/>
     </g>
     <g id="line2d_22">
      <g>
       <use style="stroke:#000000;stroke-width:0.8;" x="218.103371" xlink:href="#mcef89b9294" y="307.584"/>
      </g>
     </g>
     <g id="text_11">
      <!-- 40 -->
      <g transform="translate(211.740871 322.182437)scale(0.1 -0.1)">
       <use xlink:href="#DejaVuSans-52"/>
       <use x="63.623047" xlink:href="#DejaVuSans-48"/>
      </g>
     </g>
    </g>
    <g id="xtick_12">
     <g id="line2d_23">
      <path clip-path="url(#pd7816d9315)" d="M 234.153708 307.584 
L 234.153708 41.472 
" style="fill:none;stroke:#b0b0b0;stroke-dasharray:5.12,1.28,0.8,1.28;stroke-dashoffset:0;stroke-width:0.8;"/>
     </g>
     <g id="line2d_24">
      <g>
       <use style="stroke:#000000;stroke-width:0.8;" x="234.153708" xlink:href="#mcef89b9294" y="307.584"/>
      </g>
     </g>
     <g id="text_12">
      <!-- 44 -->
      <g transform="translate(227.791208 322.182437)scale(0.1 -0.1)">
       <use xlink:href="#DejaVuSans-52"/>
       <use x="63.623047" xlink:href="#DejaVuSans-52"/>
      </g>
     </g>
    </g>
    <g id="xtick_13">
     <g id="line2d_25">
      <path clip-path="url(#pd7816d9315)" d="M 250.204045 307.584 
L 250.204045 41.472 
" style="fill:none;stroke:#b0b0b0;stroke-dasharray:5.12,1.28,0.8,1.28;stroke-dashoffset:0;stroke-width:0.8;"/>
     </g>
     <g id="line2d_26">
      <g>
       <use style="stroke:#000000;stroke-width:0.8;" x="250.204045" xlink:href="#mcef89b9294" y="307.584"/>
      </g>
     </g>
     <g id="text_13">
      <!-- 48 -->
      <g transform="translate(243.841545 322.182437)scale(0.1 -0.1)">
       <use xlink:href="#DejaVuSans-52"/>
       <use x="63.623047" xlink:href="#DejaVuSans-56"/>
      </g>
     </g>
    </g>
    <g id="xtick_14">
     <g id="line2d_27">
      <path clip-path="url(#pd7816d9315)" d="M 266.254382 307.584 
L 266.254382 41.472 
" style="fill:none;stroke:#b0b0b0;stroke-dasharray:5.12,1.28,0.8,1.28;stroke-dashoffset:0;stroke-width:0.8;"/>
     </g>
     <g id="line2d_28">
      <g>
       <use style="stroke:#000000;stroke-width:0.8;" x="266.254382" xlink:href="#mcef89b9294" y="307.584"/>
      </g>
     </g>
     <g id="text_14">
      <!-- 52 -->
      <defs>
       <path d="M 10.796875 72.90625 
L 49.515625 72.90625 
L 49.515625 64.59375 
L 19.828125 64.59375 
L 19.828125 46.734375 
Q 21.96875 47.46875 24.109375 47.828125 
Q 26.265625 48.1875 28.421875 48.1875 
Q 40.625 48.1875 47.75 41.5 
Q 54.890625 34.8125 54.890625 23.390625 
Q 54.890625 11.625 47.5625 5.09375 
Q 40.234375 -1.421875 26.90625 -1.421875 
Q 22.3125 -1.421875 17.546875 -0.640625 
Q 12.796875 0.140625 7.71875 1.703125 
L 7.71875 11.625 
Q 12.109375 9.234375 16.796875 8.0625 
Q 21.484375 6.890625 26.703125 6.890625 
Q 35.15625 6.890625 40.078125 11.328125 
Q 45.015625 15.765625 45.015625 23.390625 
Q 45.015625 31 40.078125 35.4375 
Q 35.15625 39.890625 26.703125 39.890625 
Q 22.75 39.890625 18.8125 39.015625 
Q 14.890625 38.140625 10.796875 36.28125 
z
" id="DejaVuSans-53"/>
      </defs>
      <g transform="translate(259.891882 322.182437)scale(0.1 -0.1)">
       <use xlink:href="#DejaVuSans-53"/>
       <use x="63.623047" xlink:href="#DejaVuSans-50"/>
      </g>
     </g>
    </g>
    <g id="xtick_15">
     <g id="line2d_29">
      <path clip-path="url(#pd7816d9315)" d="M 282.304719 307.584 
L 282.304719 41.472 
" style="fill:none;stroke:#b0b0b0;stroke-dasharray:5.12,1.28,0.8,1.28;stroke-dashoffset:0;stroke-width:0.8;"/>
     </g>
     <g id="line2d_30">
      <g>
       <use style="stroke:#000000;stroke-width:0.8;" x="282.304719" xlink:href="#mcef89b9294" y="307.584"/>
      </g>
     </g>
     <g id="text_15">
      <!-- 56 -->
      <g transform="translate(275.942219 322.182437)scale(0.1 -0.1)">
       <use xlink:href="#DejaVuSans-53"/>
       <use x="63.623047" xlink:href="#DejaVuSans-54"/>
      </g>
     </g>
    </g>
    <g id="xtick_16">
     <g id="line2d_31">
      <path clip-path="url(#pd7816d9315)" d="M 298.355056 307.584 
L 298.355056 41.472 
" style="fill:none;stroke:#b0b0b0;stroke-dasharray:5.12,1.28,0.8,1.28;stroke-dashoffset:0;stroke-width:0.8;"/>
     </g>
     <g id="line2d_32">
      <g>
       <use style="stroke:#000000;stroke-width:0.8;" x="298.355056" xlink:href="#mcef89b9294" y="307.584"/>
      </g>
     </g>
     <g id="text_16">
      <!-- 60 -->
      <g transform="translate(291.992556 322.182437)scale(0.1 -0.1)">
       <use xlink:href="#DejaVuSans-54"/>
       <use x="63.623047" xlink:href="#DejaVuSans-48"/>
      </g>
     </g>
    </g>
    <g id="xtick_17">
     <g id="line2d_33">
      <path clip-path="url(#pd7816d9315)" d="M 314.405393 307.584 
L 314.405393 41.472 
" style="fill:none;stroke:#b0b0b0;stroke-dasharray:5.12,1.28,0.8,1.28;stroke-dashoffset:0;stroke-width:0.8;"/>
     </g>
     <g id="line2d_34">
      <g>
       <use style="stroke:#000000;stroke-width:0.8;" x="314.405393" xlink:href="#mcef89b9294" y="307.584"/>
      </g>
     </g>
     <g id="text_17">
      <!-- 64 -->
      <g transform="translate(308.042893 322.182437)scale(0.1 -0.1)">
       <use xlink:href="#DejaVuSans-54"/>
       <use x="63.623047" xlink:href="#DejaVuSans-52"/>
      </g>
     </g>
    </g>
    <g id="xtick_18">
     <g id="line2d_35">
      <path clip-path="url(#pd7816d9315)" d="M 330.45573 307.584 
L 330.45573 41.472 
" style="fill:none;stroke:#b0b0b0;stroke-dasharray:5.12,1.28,0.8,1.28;stroke-dashoffset:0;stroke-width:0.8;"/>
     </g>
     <g id="line2d_36">
      <g>
       <use style="stroke:#000000;stroke-width:0.8;" x="330.45573" xlink:href="#mcef89b9294" y="307.584"/>
      </g>
     </g>
     <g id="text_18">
      <!-- 68 -->
      <g transform="translate(324.09323 322.182437)scale(0.1 -0.1)">
       <use xlink:href="#DejaVuSans-54"/>
       <use x="63.623047" xlink:href="#DejaVuSans-56"/>
      </g>
     </g>
    </g>
    <g id="xtick_19">
     <g id="line2d_37">
      <path clip-path="url(#pd7816d9315)" d="M 346.506067 307.584 
L 346.506067 41.472 
" style="fill:none;stroke:#b0b0b0;stroke-dasharray:5.12,1.28,0.8,1.28;stroke-dashoffset:0;stroke-width:0.8;"/>
     </g>
     <g id="line2d_38">
      <g>
       <use style="stroke:#000000;stroke-width:0.8;" x="346.506067" xlink:href="#mcef89b9294" y="307.584"/>
      </g>
     </g>
     <g id="text_19">
      <!-- 72 -->
      <defs>
       <path d="M 8.203125 72.90625 
L 55.078125 72.90625 
L 55.078125 68.703125 
L 28.609375 0 
L 18.3125 0 
L 43.21875 64.59375 
L 8.203125 64.59375 
z
" id="DejaVuSans-55"/>
      </defs>
      <g transform="translate(340.143567 322.182437)scale(0.1 -0.1)">
       <use xlink:href="#DejaVuSans-55"/>
       <use x="63.623047" xlink:href="#DejaVuSans-50"/>
      </g>
     </g>
    </g>
    <g id="xtick_20">
     <g id="line2d_39">
      <path clip-path="url(#pd7816d9315)" d="M 362.556404 307.584 
L 362.556404 41.472 
" style="fill:none;stroke:#b0b0b0;stroke-dasharray:5.12,1.28,0.8,1.28;stroke-dashoffset:0;stroke-width:0.8;"/>
     </g>
     <g id="line2d_40">
      <g>
       <use style="stroke:#000000;stroke-width:0.8;" x="362.556404" xlink:href="#mcef89b9294" y="307.584"/>
      </g>
     </g>
     <g id="text_20">
      <!-- 76 -->
      <g transform="translate(356.193904 322.182437)scale(0.1 -0.1)">
       <use xlink:href="#DejaVuSans-55"/>
       <use x="63.623047" xlink:href="#DejaVuSans-54"/>
      </g>
     </g>
    </g>
    <g id="xtick_21">
     <g id="line2d_41">
      <path clip-path="url(#pd7816d9315)" d="M 378.606742 307.584 
L 378.606742 41.472 
" style="fill:none;stroke:#b0b0b0;stroke-dasharray:5.12,1.28,0.8,1.28;stroke-dashoffset:0;stroke-width:0.8;"/>
     </g>
     <g id="line2d_42">
      <g>
       <use style="stroke:#000000;stroke-width:0.8;" x="378.606742" xlink:href="#mcef89b9294" y="307.584"/>
      </g>
     </g>
     <g id="text_21">
      <!-- 80 -->
      <g transform="translate(372.244242 322.182437)scale(0.1 -0.1)">
       <use xlink:href="#DejaVuSans-56"/>
       <use x="63.623047" xlink:href="#DejaVuSans-48"/>
      </g>
     </g>
    </g>
    <g id="xtick_22">
     <g id="line2d_43">
      <path clip-path="url(#pd7816d9315)" d="M 394.657079 307.584 
L 394.657079 41.472 
" style="fill:none;stroke:#b0b0b0;stroke-dasharray:5.12,1.28,0.8,1.28;stroke-dashoffset:0;stroke-width:0.8;"/>
     </g>
     <g id="line2d_44">
      <g>
       <use style="stroke:#000000;stroke-width:0.8;" x="394.657079" xlink:href="#mcef89b9294" y="307.584"/>
      </g>
     </g>
     <g id="text_22">
      <!-- 84 -->
      <g transform="translate(388.294579 322.182437)scale(0.1 -0.1)">
       <use xlink:href="#DejaVuSans-56"/>
       <use x="63.623047" xlink:href="#DejaVuSans-52"/>
      </g>
     </g>
    </g>
    <g id="xtick_23">
     <g id="line2d_45">
      <path clip-path="url(#pd7816d9315)" d="M 410.707416 307.584 
L 410.707416 41.472 
" style="fill:none;stroke:#b0b0b0;stroke-dasharray:5.12,1.28,0.8,1.28;stroke-dashoffset:0;stroke-width:0.8;"/>
     </g>
     <g id="line2d_46">
      <g>
       <use style="stroke:#000000;stroke-width:0.8;" x="410.707416" xlink:href="#mcef89b9294" y="307.584"/>
      </g>
     </g>
     <g id="text_23">
      <!-- 88 -->
      <g transform="translate(404.344916 322.182437)scale(0.1 -0.1)">
       <use xlink:href="#DejaVuSans-56"/>
       <use x="63.623047" xlink:href="#DejaVuSans-56"/>
      </g>
     </g>
    </g>
    <g id="text_24">
     <!-- threads -->
     <defs>
      <path d="M 18.3125 70.21875 
L 18.3125 54.6875 
L 36.8125 54.6875 
L 36.8125 47.703125 
L 18.3125 47.703125 
L 18.3125 18.015625 
Q 18.3125 11.328125 20.140625 9.421875 
Q 21.96875 7.515625 27.59375 7.515625 
L 36.8125 7.515625 
L 36.8125 0 
L 27.59375 0 
Q 17.1875 0 13.234375 3.875 
Q 9.28125 7.765625 9.28125 18.015625 
L 9.28125 47.703125 
L 2.6875 47.703125 
L 2.6875 54.6875 
L 9.28125 54.6875 
L 9.28125 70.21875 
z
" id="DejaVuSans-116"/>
      <path d="M 54.890625 33.015625 
L 54.890625 0 
L 45.90625 0 
L 45.90625 32.71875 
Q 45.90625 40.484375 42.875 44.328125 
Q 39.84375 48.1875 33.796875 48.1875 
Q 26.515625 48.1875 22.3125 43.546875 
Q 18.109375 38.921875 18.109375 30.90625 
L 18.109375 0 
L 9.078125 0 
L 9.078125 75.984375 
L 18.109375 75.984375 
L 18.109375 46.1875 
Q 21.34375 51.125 25.703125 53.5625 
Q 30.078125 56 35.796875 56 
Q 45.21875 56 50.046875 50.171875 
Q 54.890625 44.34375 54.890625 33.015625 
z
" id="DejaVuSans-104"/>
      <path d="M 41.109375 46.296875 
Q 39.59375 47.171875 37.8125 47.578125 
Q 36.03125 48 33.890625 48 
Q 26.265625 48 22.1875 43.046875 
Q 18.109375 38.09375 18.109375 28.8125 
L 18.109375 0 
L 9.078125 0 
L 9.078125 54.6875 
L 18.109375 54.6875 
L 18.109375 46.1875 
Q 20.953125 51.171875 25.484375 53.578125 
Q 30.03125 56 36.53125 56 
Q 37.453125 56 38.578125 55.875 
Q 39.703125 55.765625 41.0625 55.515625 
z
" id="DejaVuSans-114"/>
      <path d="M 56.203125 29.59375 
L 56.203125 25.203125 
L 14.890625 25.203125 
Q 15.484375 15.921875 20.484375 11.0625 
Q 25.484375 6.203125 34.421875 6.203125 
Q 39.59375 6.203125 44.453125 7.46875 
Q 49.3125 8.734375 54.109375 11.28125 
L 54.109375 2.78125 
Q 49.265625 0.734375 44.1875 -0.34375 
Q 39.109375 -1.421875 33.890625 -1.421875 
Q 20.796875 -1.421875 13.15625 6.1875 
Q 5.515625 13.8125 5.515625 26.8125 
Q 5.515625 40.234375 12.765625 48.109375 
Q 20.015625 56 32.328125 56 
Q 43.359375 56 49.78125 48.890625 
Q 56.203125 41.796875 56.203125 29.59375 
z
M 47.21875 32.234375 
Q 47.125 39.59375 43.09375 43.984375 
Q 39.0625 48.390625 32.421875 48.390625 
Q 24.90625 48.390625 20.390625 44.140625 
Q 15.875 39.890625 15.1875 32.171875 
z
" id="DejaVuSans-101"/>
      <path d="M 34.28125 27.484375 
Q 23.390625 27.484375 19.1875 25 
Q 14.984375 22.515625 14.984375 16.5 
Q 14.984375 11.71875 18.140625 8.90625 
Q 21.296875 6.109375 26.703125 6.109375 
Q 34.1875 6.109375 38.703125 11.40625 
Q 43.21875 16.703125 43.21875 25.484375 
L 43.21875 27.484375 
z
M 52.203125 31.203125 
L 52.203125 0 
L 43.21875 0 
L 43.21875 8.296875 
Q 40.140625 3.328125 35.546875 0.953125 
Q 30.953125 -1.421875 24.3125 -1.421875 
Q 15.921875 -1.421875 10.953125 3.296875 
Q 6 8.015625 6 15.921875 
Q 6 25.140625 12.171875 29.828125 
Q 18.359375 34.515625 30.609375 34.515625 
L 43.21875 34.515625 
L 43.21875 35.40625 
Q 43.21875 41.609375 39.140625 45 
Q 35.0625 48.390625 27.6875 48.390625 
Q 23 48.390625 18.546875 47.265625 
Q 14.109375 46.140625 10.015625 43.890625 
L 10.015625 52.203125 
Q 14.9375 54.109375 19.578125 55.046875 
Q 24.21875 56 28.609375 56 
Q 40.484375 56 46.34375 49.84375 
Q 52.203125 43.703125 52.203125 31.203125 
z
" id="DejaVuSans-97"/>
      <path d="M 45.40625 46.390625 
L 45.40625 75.984375 
L 54.390625 75.984375 
L 54.390625 0 
L 45.40625 0 
L 45.40625 8.203125 
Q 42.578125 3.328125 38.25 0.953125 
Q 33.9375 -1.421875 27.875 -1.421875 
Q 17.96875 -1.421875 11.734375 6.484375 
Q 5.515625 14.40625 5.515625 27.296875 
Q 5.515625 40.1875 11.734375 48.09375 
Q 17.96875 56 27.875 56 
Q 33.9375 56 38.25 53.625 
Q 42.578125 51.265625 45.40625 46.390625 
z
M 14.796875 27.296875 
Q 14.796875 17.390625 18.875 11.75 
Q 22.953125 6.109375 30.078125 6.109375 
Q 37.203125 6.109375 41.296875 11.75 
Q 45.40625 17.390625 45.40625 27.296875 
Q 45.40625 37.203125 41.296875 42.84375 
Q 37.203125 48.484375 30.078125 48.484375 
Q 22.953125 48.484375 18.875 42.84375 
Q 14.796875 37.203125 14.796875 27.296875 
z
" id="DejaVuSans-100"/>
      <path d="M 44.28125 53.078125 
L 44.28125 44.578125 
Q 40.484375 46.53125 36.375 47.5 
Q 32.28125 48.484375 27.875 48.484375 
Q 21.1875 48.484375 17.84375 46.4375 
Q 14.5 44.390625 14.5 40.28125 
Q 14.5 37.15625 16.890625 35.375 
Q 19.28125 33.59375 26.515625 31.984375 
L 29.59375 31.296875 
Q 39.15625 29.25 43.1875 25.515625 
Q 47.21875 21.78125 47.21875 15.09375 
Q 47.21875 7.46875 41.1875 3.015625 
Q 35.15625 -1.421875 24.609375 -1.421875 
Q 20.21875 -1.421875 15.453125 -0.5625 
Q 10.6875 0.296875 5.421875 2 
L 5.421875 11.28125 
Q 10.40625 8.6875 15.234375 7.390625 
Q 20.0625 6.109375 24.8125 6.109375 
Q 31.15625 6.109375 34.5625 8.28125 
Q 37.984375 10.453125 37.984375 14.40625 
Q 37.984375 18.0625 35.515625 20.015625 
Q 33.0625 21.96875 24.703125 23.78125 
L 21.578125 24.515625 
Q 13.234375 26.265625 9.515625 29.90625 
Q 5.8125 33.546875 5.8125 39.890625 
Q 5.8125 47.609375 11.28125 51.796875 
Q 16.75 56 26.8125 56 
Q 31.78125 56 36.171875 55.265625 
Q 40.578125 54.546875 44.28125 53.078125 
z
" id="DejaVuSans-115"/>
     </defs>
     <g transform="translate(217.168594 335.860562)scale(0.1 -0.1)">
      <use xlink:href="#DejaVuSans-116"/>
      <use x="39.208984" xlink:href="#DejaVuSans-104"/>
      <use x="102.587891" xlink:href="#DejaVuSans-114"/>
      <use x="141.451172" xlink:href="#DejaVuSans-101"/>
      <use x="202.974609" xlink:href="#DejaVuSans-97"/>
      <use x="264.253906" xlink:href="#DejaVuSans-100"/>
      <use x="327.730469" xlink:href="#DejaVuSans-115"/>
     </g>
    </g>
   </g>
   <g id="matplotlib.axis_2">
    <g id="ytick_1">
     <g id="line2d_47">
      <path clip-path="url(#pd7816d9315)" d="M 57.6 266.362132 
L 414.72 266.362132 
" style="fill:none;stroke:#b0b0b0;stroke-dasharray:5.12,1.28,0.8,1.28;stroke-dashoffset:0;stroke-width:0.8;"/>
     </g>
     <g id="line2d_48">
      <defs>
       <path d="M 0 0 
L -3.5 0 
" id="md62bffc138" style="stroke:#000000;stroke-width:0.8;"/>
      </defs>
      <g>
       <use style="stroke:#000000;stroke-width:0.8;" x="57.6" xlink:href="#md62bffc138" y="266.362132"/>
      </g>
     </g>
     <g id="text_25">
      <!-- 0.4 -->
      <defs>
       <path d="M 10.6875 12.40625 
L 21 12.40625 
L 21 0 
L 10.6875 0 
z
" id="DejaVuSans-46"/>
      </defs>
      <g transform="translate(34.696875 270.161351)scale(0.1 -0.1)">
       <use xlink:href="#DejaVuSans-48"/>
       <use x="63.623047" xlink:href="#DejaVuSans-46"/>
       <use x="95.410156" xlink:href="#DejaVuSans-52"/>
      </g>
     </g>
    </g>
    <g id="ytick_2">
     <g id="line2d_49">
      <path clip-path="url(#pd7816d9315)" d="M 57.6 222.691598 
L 414.72 222.691598 
" style="fill:none;stroke:#b0b0b0;stroke-dasharray:5.12,1.28,0.8,1.28;stroke-dashoffset:0;stroke-width:0.8;"/>
     </g>
     <g id="line2d_50">
      <g>
       <use style="stroke:#000000;stroke-width:0.8;" x="57.6" xlink:href="#md62bffc138" y="222.691598"/>
      </g>
     </g>
     <g id="text_26">
      <!-- 0.6 -->
      <g transform="translate(34.696875 226.490817)scale(0.1 -0.1)">
       <use xlink:href="#DejaVuSans-48"/>
       <use x="63.623047" xlink:href="#DejaVuSans-46"/>
       <use x="95.410156" xlink:href="#DejaVuSans-54"/>
      </g>
     </g>
    </g>
    <g id="ytick_3">
     <g id="line2d_51">
      <path clip-path="url(#pd7816d9315)" d="M 57.6 179.021063 
L 414.72 179.021063 
" style="fill:none;stroke:#b0b0b0;stroke-dasharray:5.12,1.28,0.8,1.28;stroke-dashoffset:0;stroke-width:0.8;"/>
     </g>
     <g id="line2d_52">
      <g>
       <use style="stroke:#000000;stroke-width:0.8;" x="57.6" xlink:href="#md62bffc138" y="179.021063"/>
      </g>
     </g>
     <g id="text_27">
      <!-- 0.8 -->
      <g transform="translate(34.696875 182.820282)scale(0.1 -0.1)">
       <use xlink:href="#DejaVuSans-48"/>
       <use x="63.623047" xlink:href="#DejaVuSans-46"/>
       <use x="95.410156" xlink:href="#DejaVuSans-56"/>
      </g>
     </g>
    </g>
    <g id="ytick_4">
     <g id="line2d_53">
      <path clip-path="url(#pd7816d9315)" d="M 57.6 135.350529 
L 414.72 135.350529 
" style="fill:none;stroke:#b0b0b0;stroke-dasharray:5.12,1.28,0.8,1.28;stroke-dashoffset:0;stroke-width:0.8;"/>
     </g>
     <g id="line2d_54">
      <g>
       <use style="stroke:#000000;stroke-width:0.8;" x="57.6" xlink:href="#md62bffc138" y="135.350529"/>
      </g>
     </g>
     <g id="text_28">
      <!-- 1.0 -->
      <g transform="translate(34.696875 139.149748)scale(0.1 -0.1)">
       <use xlink:href="#DejaVuSans-49"/>
       <use x="63.623047" xlink:href="#DejaVuSans-46"/>
       <use x="95.410156" xlink:href="#DejaVuSans-48"/>
      </g>
     </g>
    </g>
    <g id="ytick_5">
     <g id="line2d_55">
      <path clip-path="url(#pd7816d9315)" d="M 57.6 91.679994 
L 414.72 91.679994 
" style="fill:none;stroke:#b0b0b0;stroke-dasharray:5.12,1.28,0.8,1.28;stroke-dashoffset:0;stroke-width:0.8;"/>
     </g>
     <g id="line2d_56">
      <g>
       <use style="stroke:#000000;stroke-width:0.8;" x="57.6" xlink:href="#md62bffc138" y="91.679994"/>
      </g>
     </g>
     <g id="text_29">
      <!-- 1.2 -->
      <g transform="translate(34.696875 95.479213)scale(0.1 -0.1)">
       <use xlink:href="#DejaVuSans-49"/>
       <use x="63.623047" xlink:href="#DejaVuSans-46"/>
       <use x="95.410156" xlink:href="#DejaVuSans-50"/>
      </g>
     </g>
    </g>
    <g id="ytick_6">
     <g id="line2d_57">
      <path clip-path="url(#pd7816d9315)" d="M 57.6 48.00946 
L 414.72 48.00946 
" style="fill:none;stroke:#b0b0b0;stroke-dasharray:5.12,1.28,0.8,1.28;stroke-dashoffset:0;stroke-width:0.8;"/>
     </g>
     <g id="line2d_58">
      <g>
       <use style="stroke:#000000;stroke-width:0.8;" x="57.6" xlink:href="#md62bffc138" y="48.00946"/>
      </g>
     </g>
     <g id="text_30">
      <!-- 1.4 -->
      <g transform="translate(34.696875 51.808679)scale(0.1 -0.1)">
       <use xlink:href="#DejaVuSans-49"/>
       <use x="63.623047" xlink:href="#DejaVuSans-46"/>
       <use x="95.410156" xlink:href="#DejaVuSans-52"/>
      </g>
     </g>
    </g>
    <g id="text_31">
     <!-- duration (s) -->
     <defs>
      <path d="M 8.5 21.578125 
L 8.5 54.6875 
L 17.484375 54.6875 
L 17.484375 21.921875 
Q 17.484375 14.15625 20.5 10.265625 
Q 23.53125 6.390625 29.59375 6.390625 
Q 36.859375 6.390625 41.078125 11.03125 
Q 45.3125 15.671875 45.3125 23.6875 
L 45.3125 54.6875 
L 54.296875 54.6875 
L 54.296875 0 
L 45.3125 0 
L 45.3125 8.40625 
Q 42.046875 3.421875 37.71875 1 
Q 33.40625 -1.421875 27.6875 -1.421875 
Q 18.265625 -1.421875 13.375 4.4375 
Q 8.5 10.296875 8.5 21.578125 
z
M 31.109375 56 
z
" id="DejaVuSans-117"/>
      <path d="M 9.421875 54.6875 
L 18.40625 54.6875 
L 18.40625 0 
L 9.421875 0 
z
M 9.421875 75.984375 
L 18.40625 75.984375 
L 18.40625 64.59375 
L 9.421875 64.59375 
z
" id="DejaVuSans-105"/>
      <path d="M 30.609375 48.390625 
Q 23.390625 48.390625 19.1875 42.75 
Q 14.984375 37.109375 14.984375 27.296875 
Q 14.984375 17.484375 19.15625 11.84375 
Q 23.34375 6.203125 30.609375 6.203125 
Q 37.796875 6.203125 41.984375 11.859375 
Q 46.1875 17.53125 46.1875 27.296875 
Q 46.1875 37.015625 41.984375 42.703125 
Q 37.796875 48.390625 30.609375 48.390625 
z
M 30.609375 56 
Q 42.328125 56 49.015625 48.375 
Q 55.71875 40.765625 55.71875 27.296875 
Q 55.71875 13.875 49.015625 6.21875 
Q 42.328125 -1.421875 30.609375 -1.421875 
Q 18.84375 -1.421875 12.171875 6.21875 
Q 5.515625 13.875 5.515625 27.296875 
Q 5.515625 40.765625 12.171875 48.375 
Q 18.84375 56 30.609375 56 
z
" id="DejaVuSans-111"/>
      <path d="M 54.890625 33.015625 
L 54.890625 0 
L 45.90625 0 
L 45.90625 32.71875 
Q 45.90625 40.484375 42.875 44.328125 
Q 39.84375 48.1875 33.796875 48.1875 
Q 26.515625 48.1875 22.3125 43.546875 
Q 18.109375 38.921875 18.109375 30.90625 
L 18.109375 0 
L 9.078125 0 
L 9.078125 54.6875 
L 18.109375 54.6875 
L 18.109375 46.1875 
Q 21.34375 51.125 25.703125 53.5625 
Q 30.078125 56 35.796875 56 
Q 45.21875 56 50.046875 50.171875 
Q 54.890625 44.34375 54.890625 33.015625 
z
" id="DejaVuSans-110"/>
      <path id="DejaVuSans-32"/>
      <path d="M 31 75.875 
Q 24.46875 64.65625 21.28125 53.65625 
Q 18.109375 42.671875 18.109375 31.390625 
Q 18.109375 20.125 21.3125 9.0625 
Q 24.515625 -2 31 -13.1875 
L 23.1875 -13.1875 
Q 15.875 -1.703125 12.234375 9.375 
Q 8.59375 20.453125 8.59375 31.390625 
Q 8.59375 42.28125 12.203125 53.3125 
Q 15.828125 64.359375 23.1875 75.875 
z
" id="DejaVuSans-40"/>
      <path d="M 8.015625 75.875 
L 15.828125 75.875 
Q 23.140625 64.359375 26.78125 53.3125 
Q 30.421875 42.28125 30.421875 31.390625 
Q 30.421875 20.453125 26.78125 9.375 
Q 23.140625 -1.703125 15.828125 -13.1875 
L 8.015625 -13.1875 
Q 14.5 -2 17.703125 9.0625 
Q 20.90625 20.125 20.90625 31.390625 
Q 20.90625 42.671875 17.703125 53.65625 
Q 14.5 64.65625 8.015625 75.875 
z
" id="DejaVuSans-41"/>
     </defs>
     <g transform="translate(28.617187 203.663156)rotate(-90)scale(0.1 -0.1)">
      <use xlink:href="#DejaVuSans-100"/>
      <use x="63.476562" xlink:href="#DejaVuSans-117"/>
      <use x="126.855469" xlink:href="#DejaVuSans-114"/>
      <use x="167.96875" xlink:href="#DejaVuSans-97"/>
      <use x="229.248047" xlink:href="#DejaVuSans-116"/>
      <use x="268.457031" xlink:href="#DejaVuSans-105"/>
      <use x="296.240234" xlink:href="#DejaVuSans-111"/>
      <use x="357.421875" xlink:href="#DejaVuSans-110"/>
      <use x="420.800781" xlink:href="#DejaVuSans-32"/>
      <use x="452.587891" xlink:href="#DejaVuSans-40"/>
      <use x="491.601562" xlink:href="#DejaVuSans-115"/>
      <use x="543.701172" xlink:href="#DejaVuSans-41"/>
     </g>
    </g>
   </g>
   <g id="line2d_59">
    <path clip-path="url(#pd7816d9315)" d="M 61.612584 55.597845 
L 65.625169 191.312134 
L 69.637753 230.563206 
L 73.650337 251.798602 
L 77.662921 262.725105 
L 81.675506 270.625942 
L 85.68809 276.933466 
L 89.700674 281.597841 
L 93.713258 286.552819 
L 97.725843 289.27248 
L 101.738427 291.465331 
L 105.751011 292.413621 
L 109.763596 293.320487 
L 113.77618 293.058964 
L 117.788764 293.692845 
L 121.801348 293.604159 
L 125.813933 293.908319 
L 129.826517 294.260843 
L 133.839101 294.618133 
L 137.851685 294.464276 
L 141.86427 294.361875 
L 145.876854 292.381419 
L 149.889438 295.295232 
L 153.902022 295.271939 
L 157.914607 294.817572 
L 161.927191 295.233802 
L 165.939775 294.072142 
L 169.95236 294.668058 
L 173.964944 294.874875 
L 177.977528 295.388879 
L 181.990112 295.488 
L 186.002697 295.184628 
L 190.015281 295.184925 
L 194.027865 295.0057 
L 198.040449 295.268443 
L 202.053034 294.844145 
L 206.065618 294.549236 
L 210.078202 295.174506 
L 214.090787 294.866226 
L 218.103371 295.057514 
L 222.115955 294.948152 
L 226.128539 294.906259 
L 230.141124 294.892255 
L 234.153708 294.099392 
L 238.166292 294.321759 
L 242.178876 293.803635 
L 246.191461 293.91525 
L 250.204045 293.791498 
L 254.216629 293.831056 
L 258.229213 293.690042 
L 262.241798 293.849827 
L 266.254382 293.349098 
L 270.266966 293.681028 
L 274.279551 293.227963 
L 278.292135 293.123249 
L 282.304719 293.077876 
L 286.317303 292.310045 
L 290.329888 293.145107 
L 294.342472 292.848287 
L 298.355056 292.327976 
L 302.36764 291.559127 
L 306.380225 291.380266 
L 310.392809 292.541315 
L 314.405393 292.559015 
L 318.417978 291.781844 
L 322.430562 292.224006 
L 326.443146 292.174037 
L 330.45573 291.60839 
L 334.468315 291.279918 
L 338.480899 291.833569 
L 342.493483 290.95744 
L 346.506067 290.59063 
L 350.518652 290.941413 
L 354.531236 292.109267 
L 358.54382 291.604879 
L 362.556404 290.783941 
L 366.568989 290.612755 
L 370.581573 290.880489 
L 374.594157 290.9958 
L 378.606742 291.387442 
L 382.619326 290.985849 
L 386.63191 289.902762 
L 390.644494 290.348844 
L 394.657079 290.428041 
L 398.669663 291.077466 
L 402.682247 289.118012 
L 406.694831 290.377335 
L 410.707416 290.440104 
" style="fill:none;stroke:#0000ff;stroke-dasharray:1.5,2.475;stroke-dashoffset:0;stroke-width:1.5;"/>
    <defs>
     <path d="M 0 1.5 
C 0.397805 1.5 0.77937 1.341951 1.06066 1.06066 
C 1.341951 0.77937 1.5 0.397805 1.5 0 
C 1.5 -0.397805 1.341951 -0.77937 1.06066 -1.06066 
C 0.77937 -1.341951 0.397805 -1.5 0 -1.5 
C -0.397805 -1.5 -0.77937 -1.341951 -1.06066 -1.06066 
C -1.341951 -0.77937 -1.5 -0.397805 -1.5 0 
C -1.5 0.397805 -1.341951 0.77937 -1.06066 1.06066 
C -0.77937 1.341951 -0.397805 1.5 0 1.5 
z
" id="mfcb08854ef" style="stroke:#0000ff;"/>
    </defs>
    <g clip-path="url(#pd7816d9315)">
     <use style="fill:#0000ff;stroke:#0000ff;" x="61.612584" xlink:href="#mfcb08854ef" y="55.597845"/>
     <use style="fill:#0000ff;stroke:#0000ff;" x="65.625169" xlink:href="#mfcb08854ef" y="191.312134"/>
     <use style="fill:#0000ff;stroke:#0000ff;" x="69.637753" xlink:href="#mfcb08854ef" y="230.563206"/>
     <use style="fill:#0000ff;stroke:#0000ff;" x="73.650337" xlink:href="#mfcb08854ef" y="251.798602"/>
     <use style="fill:#0000ff;stroke:#0000ff;" x="77.662921" xlink:href="#mfcb08854ef" y="262.725105"/>
     <use style="fill:#0000ff;stroke:#0000ff;" x="81.675506" xlink:href="#mfcb08854ef" y="270.625942"/>
     <use style="fill:#0000ff;stroke:#0000ff;" x="85.68809" xlink:href="#mfcb08854ef" y="276.933466"/>
     <use style="fill:#0000ff;stroke:#0000ff;" x="89.700674" xlink:href="#mfcb08854ef" y="281.597841"/>
     <use style="fill:#0000ff;stroke:#0000ff;" x="93.713258" xlink:href="#mfcb08854ef" y="286.552819"/>
     <use style="fill:#0000ff;stroke:#0000ff;" x="97.725843" xlink:href="#mfcb08854ef" y="289.27248"/>
     <use style="fill:#0000ff;stroke:#0000ff;" x="101.738427" xlink:href="#mfcb08854ef" y="291.465331"/>
     <use style="fill:#0000ff;stroke:#0000ff;" x="105.751011" xlink:href="#mfcb08854ef" y="292.413621"/>
     <use style="fill:#0000ff;stroke:#0000ff;" x="109.763596" xlink:href="#mfcb08854ef" y="293.320487"/>
     <use style="fill:#0000ff;stroke:#0000ff;" x="113.77618" xlink:href="#mfcb08854ef" y="293.058964"/>
     <use style="fill:#0000ff;stroke:#0000ff;" x="117.788764" xlink:href="#mfcb08854ef" y="293.692845"/>
     <use style="fill:#0000ff;stroke:#0000ff;" x="121.801348" xlink:href="#mfcb08854ef" y="293.604159"/>
     <use style="fill:#0000ff;stroke:#0000ff;" x="125.813933" xlink:href="#mfcb08854ef" y="293.908319"/>
     <use style="fill:#0000ff;stroke:#0000ff;" x="129.826517" xlink:href="#mfcb08854ef" y="294.260843"/>
     <use style="fill:#0000ff;stroke:#0000ff;" x="133.839101" xlink:href="#mfcb08854ef" y="294.618133"/>
     <use style="fill:#0000ff;stroke:#0000ff;" x="137.851685" xlink:href="#mfcb08854ef" y="294.464276"/>
     <use style="fill:#0000ff;stroke:#0000ff;" x="141.86427" xlink:href="#mfcb08854ef" y="294.361875"/>
     <use style="fill:#0000ff;stroke:#0000ff;" x="145.876854" xlink:href="#mfcb08854ef" y="292.381419"/>
     <use style="fill:#0000ff;stroke:#0000ff;" x="149.889438" xlink:href="#mfcb08854ef" y="295.295232"/>
     <use style="fill:#0000ff;stroke:#0000ff;" x="153.902022" xlink:href="#mfcb08854ef" y="295.271939"/>
     <use style="fill:#0000ff;stroke:#0000ff;" x="157.914607" xlink:href="#mfcb08854ef" y="294.817572"/>
     <use style="fill:#0000ff;stroke:#0000ff;" x="161.927191" xlink:href="#mfcb08854ef" y="295.233802"/>
     <use style="fill:#0000ff;stroke:#0000ff;" x="165.939775" xlink:href="#mfcb08854ef" y="294.072142"/>
     <use style="fill:#0000ff;stroke:#0000ff;" x="169.95236" xlink:href="#mfcb08854ef" y="294.668058"/>
     <use style="fill:#0000ff;stroke:#0000ff;" x="173.964944" xlink:href="#mfcb08854ef" y="294.874875"/>
     <use style="fill:#0000ff;stroke:#0000ff;" x="177.977528" xlink:href="#mfcb08854ef" y="295.388879"/>
     <use style="fill:#0000ff;stroke:#0000ff;" x="181.990112" xlink:href="#mfcb08854ef" y="295.488"/>
     <use style="fill:#0000ff;stroke:#0000ff;" x="186.002697" xlink:href="#mfcb08854ef" y="295.184628"/>
     <use style="fill:#0000ff;stroke:#0000ff;" x="190.015281" xlink:href="#mfcb08854ef" y="295.184925"/>
     <use style="fill:#0000ff;stroke:#0000ff;" x="194.027865" xlink:href="#mfcb08854ef" y="295.0057"/>
     <use style="fill:#0000ff;stroke:#0000ff;" x="198.040449" xlink:href="#mfcb08854ef" y="295.268443"/>
     <use style="fill:#0000ff;stroke:#0000ff;" x="202.053034" xlink:href="#mfcb08854ef" y="294.844145"/>
     <use style="fill:#0000ff;stroke:#0000ff;" x="206.065618" xlink:href="#mfcb08854ef" y="294.549236"/>
     <use style="fill:#0000ff;stroke:#0000ff;" x="210.078202" xlink:href="#mfcb08854ef" y="295.174506"/>
     <use style="fill:#0000ff;stroke:#0000ff;" x="214.090787" xlink:href="#mfcb08854ef" y="294.866226"/>
     <use style="fill:#0000ff;stroke:#0000ff;" x="218.103371" xlink:href="#mfcb08854ef" y="295.057514"/>
     <use style="fill:#0000ff;stroke:#0000ff;" x="222.115955" xlink:href="#mfcb08854ef" y="294.948152"/>
     <use style="fill:#0000ff;stroke:#0000ff;" x="226.128539" xlink:href="#mfcb08854ef" y="294.906259"/>
     <use style="fill:#0000ff;stroke:#0000ff;" x="230.141124" xlink:href="#mfcb08854ef" y="294.892255"/>
     <use style="fill:#0000ff;stroke:#0000ff;" x="234.153708" xlink:href="#mfcb08854ef" y="294.099392"/>
     <use style="fill:#0000ff;stroke:#0000ff;" x="238.166292" xlink:href="#mfcb08854ef" y="294.321759"/>
     <use style="fill:#0000ff;stroke:#0000ff;" x="242.178876" xlink:href="#mfcb08854ef" y="293.803635"/>
     <use style="fill:#0000ff;stroke:#0000ff;" x="246.191461" xlink:href="#mfcb08854ef" y="293.91525"/>
     <use style="fill:#0000ff;stroke:#0000ff;" x="250.204045" xlink:href="#mfcb08854ef" y="293.791498"/>
     <use style="fill:#0000ff;stroke:#0000ff;" x="254.216629" xlink:href="#mfcb08854ef" y="293.831056"/>
     <use style="fill:#0000ff;stroke:#0000ff;" x="258.229213" xlink:href="#mfcb08854ef" y="293.690042"/>
     <use style="fill:#0000ff;stroke:#0000ff;" x="262.241798" xlink:href="#mfcb08854ef" y="293.849827"/>
     <use style="fill:#0000ff;stroke:#0000ff;" x="266.254382" xlink:href="#mfcb08854ef" y="293.349098"/>
     <use style="fill:#0000ff;stroke:#0000ff;" x="270.266966" xlink:href="#mfcb08854ef" y="293.681028"/>
     <use style="fill:#0000ff;stroke:#0000ff;" x="274.279551" xlink:href="#mfcb08854ef" y="293.227963"/>
     <use style="fill:#0000ff;stroke:#0000ff;" x="278.292135" xlink:href="#mfcb08854ef" y="293.123249"/>
     <use style="fill:#0000ff;stroke:#0000ff;" x="282.304719" xlink:href="#mfcb08854ef" y="293.077876"/>
     <use style="fill:#0000ff;stroke:#0000ff;" x="286.317303" xlink:href="#mfcb08854ef" y="292.310045"/>
     <use style="fill:#0000ff;stroke:#0000ff;" x="290.329888" xlink:href="#mfcb08854ef" y="293.145107"/>
     <use style="fill:#0000ff;stroke:#0000ff;" x="294.342472" xlink:href="#mfcb08854ef" y="292.848287"/>
     <use style="fill:#0000ff;stroke:#0000ff;" x="298.355056" xlink:href="#mfcb08854ef" y="292.327976"/>
     <use style="fill:#0000ff;stroke:#0000ff;" x="302.36764" xlink:href="#mfcb08854ef" y="291.559127"/>
     <use style="fill:#0000ff;stroke:#0000ff;" x="306.380225" xlink:href="#mfcb08854ef" y="291.380266"/>
     <use style="fill:#0000ff;stroke:#0000ff;" x="310.392809" xlink:href="#mfcb08854ef" y="292.541315"/>
     <use style="fill:#0000ff;stroke:#0000ff;" x="314.405393" xlink:href="#mfcb08854ef" y="292.559015"/>
     <use style="fill:#0000ff;stroke:#0000ff;" x="318.417978" xlink:href="#mfcb08854ef" y="291.781844"/>
     <use style="fill:#0000ff;stroke:#0000ff;" x="322.430562" xlink:href="#mfcb08854ef" y="292.224006"/>
     <use style="fill:#0000ff;stroke:#0000ff;" x="326.443146" xlink:href="#mfcb08854ef" y="292.174037"/>
     <use style="fill:#0000ff;stroke:#0000ff;" x="330.45573" xlink:href="#mfcb08854ef" y="291.60839"/>
     <use style="fill:#0000ff;stroke:#0000ff;" x="334.468315" xlink:href="#mfcb08854ef" y="291.279918"/>
     <use style="fill:#0000ff;stroke:#0000ff;" x="338.480899" xlink:href="#mfcb08854ef" y="291.833569"/>
     <use style="fill:#0000ff;stroke:#0000ff;" x="342.493483" xlink:href="#mfcb08854ef" y="290.95744"/>
     <use style="fill:#0000ff;stroke:#0000ff;" x="346.506067" xlink:href="#mfcb08854ef" y="290.59063"/>
     <use style="fill:#0000ff;stroke:#0000ff;" x="350.518652" xlink:href="#mfcb08854ef" y="290.941413"/>
     <use style="fill:#0000ff;stroke:#0000ff;" x="354.531236" xlink:href="#mfcb08854ef" y="292.109267"/>
     <use style="fill:#0000ff;stroke:#0000ff;" x="358.54382" xlink:href="#mfcb08854ef" y="291.604879"/>
     <use style="fill:#0000ff;stroke:#0000ff;" x="362.556404" xlink:href="#mfcb08854ef" y="290.783941"/>
     <use style="fill:#0000ff;stroke:#0000ff;" x="366.568989" xlink:href="#mfcb08854ef" y="290.612755"/>
     <use style="fill:#0000ff;stroke:#0000ff;" x="370.581573" xlink:href="#mfcb08854ef" y="290.880489"/>
     <use style="fill:#0000ff;stroke:#0000ff;" x="374.594157" xlink:href="#mfcb08854ef" y="290.9958"/>
     <use style="fill:#0000ff;stroke:#0000ff;" x="378.606742" xlink:href="#mfcb08854ef" y="291.387442"/>
     <use style="fill:#0000ff;stroke:#0000ff;" x="382.619326" xlink:href="#mfcb08854ef" y="290.985849"/>
     <use style="fill:#0000ff;stroke:#0000ff;" x="386.63191" xlink:href="#mfcb08854ef" y="289.902762"/>
     <use style="fill:#0000ff;stroke:#0000ff;" x="390.644494" xlink:href="#mfcb08854ef" y="290.348844"/>
     <use style="fill:#0000ff;stroke:#0000ff;" x="394.657079" xlink:href="#mfcb08854ef" y="290.428041"/>
     <use style="fill:#0000ff;stroke:#0000ff;" x="398.669663" xlink:href="#mfcb08854ef" y="291.077466"/>
     <use style="fill:#0000ff;stroke:#0000ff;" x="402.682247" xlink:href="#mfcb08854ef" y="289.118012"/>
     <use style="fill:#0000ff;stroke:#0000ff;" x="406.694831" xlink:href="#mfcb08854ef" y="290.377335"/>
     <use style="fill:#0000ff;stroke:#0000ff;" x="410.707416" xlink:href="#mfcb08854ef" y="290.440104"/>
    </g>
   </g>
   <g id="line2d_60">
    <path clip-path="url(#pd7816d9315)" d="M 61.612584 53.568 
L 65.625169 181.443506 
L 69.637753 218.193737 
L 73.650337 239.374129 
L 77.662921 250.831615 
L 81.675506 257.490554 
L 85.68809 263.523547 
L 89.700674 269.480265 
L 93.713258 274.169606 
L 97.725843 276.272521 
L 101.738427 279.643355 
L 105.751011 279.888398 
L 109.763596 281.911022 
L 113.77618 280.145207 
L 117.788764 281.043439 
L 121.801348 281.676882 
L 125.813933 281.8906 
L 129.826517 282.566271 
L 133.839101 282.682891 
L 137.851685 283.094829 
L 141.86427 282.639474 
L 145.876854 282.711673 
L 149.889438 284.483497 
L 153.902022 283.539788 
L 157.914607 285.056113 
L 161.927191 283.809544 
L 165.939775 283.917649 
L 169.95236 284.840914 
L 173.964944 284.965529 
L 177.977528 285.009914 
L 181.990112 284.77906 
L 186.002697 284.396915 
L 190.015281 285.603241 
L 194.027865 285.566897 
L 198.040449 285.935573 
L 202.053034 285.413872 
L 206.065618 285.265086 
L 210.078202 285.491336 
L 214.090787 285.524364 
L 218.103371 285.997992 
L 222.115955 285.197008 
L 226.128539 285.824047 
L 230.141124 285.874292 
L 234.153708 286.014622 
L 238.166292 285.845429 
L 242.178876 285.697424 
L 246.191461 285.530053 
L 250.204045 285.829491 
L 254.216629 286.127419 
L 258.229213 285.802666 
L 262.241798 285.818626 
L 266.254382 285.628289 
L 270.266966 286.388906 
L 274.279551 285.528075 
L 278.292135 285.796292 
L 282.304719 286.4478 
L 286.317303 286.264692 
L 290.329888 286.530902 
L 294.342472 285.868372 
L 298.355056 284.174979 
L 302.36764 284.041067 
L 306.380225 285.599002 
L 310.392809 286.013008 
L 314.405393 285.990184 
L 318.417978 285.29569 
L 322.430562 285.644048 
L 326.443146 285.281686 
L 330.45573 285.659756 
L 334.468315 285.581942 
L 338.480899 285.0733 
L 342.493483 283.189823 
L 346.506067 284.812847 
L 350.518652 285.215637 
L 354.531236 285.333604 
L 358.54382 283.903229 
L 362.556404 284.916341 
L 366.568989 285.441322 
L 370.581573 285.1356 
L 374.594157 284.326717 
L 378.606742 284.495575 
L 382.619326 285.394692 
L 386.63191 284.872767 
L 390.644494 285.09538 
L 394.657079 284.586032 
L 398.669663 284.926619 
L 402.682247 283.498631 
L 406.694831 285.485513 
L 410.707416 284.988309 
" style="fill:none;stroke:#ff0000;stroke-dasharray:1.5,2.475;stroke-dashoffset:0;stroke-width:1.5;"/>
    <defs>
     <path d="M 0 1.5 
C 0.397805 1.5 0.77937 1.341951 1.06066 1.06066 
C 1.341951 0.77937 1.5 0.397805 1.5 0 
C 1.5 -0.397805 1.341951 -0.77937 1.06066 -1.06066 
C 0.77937 -1.341951 0.397805 -1.5 0 -1.5 
C -0.397805 -1.5 -0.77937 -1.341951 -1.06066 -1.06066 
C -1.341951 -0.77937 -1.5 -0.397805 -1.5 0 
C -1.5 0.397805 -1.341951 0.77937 -1.06066 1.06066 
C -0.77937 1.341951 -0.397805 1.5 0 1.5 
z
" id="mbbd3e9caeb" style="stroke:#ff0000;"/>
    </defs>
    <g clip-path="url(#pd7816d9315)">
     <use style="fill:#ff0000;stroke:#ff0000;" x="61.612584" xlink:href="#mbbd3e9caeb" y="53.568"/>
     <use style="fill:#ff0000;stroke:#ff0000;" x="65.625169" xlink:href="#mbbd3e9caeb" y="181.443506"/>
     <use style="fill:#ff0000;stroke:#ff0000;" x="69.637753" xlink:href="#mbbd3e9caeb" y="218.193737"/>
     <use style="fill:#ff0000;stroke:#ff0000;" x="73.650337" xlink:href="#mbbd3e9caeb" y="239.374129"/>
     <use style="fill:#ff0000;stroke:#ff0000;" x="77.662921" xlink:href="#mbbd3e9caeb" y="250.831615"/>
     <use style="fill:#ff0000;stroke:#ff0000;" x="81.675506" xlink:href="#mbbd3e9caeb" y="257.490554"/>
     <use style="fill:#ff0000;stroke:#ff0000;" x="85.68809" xlink:href="#mbbd3e9caeb" y="263.523547"/>
     <use style="fill:#ff0000;stroke:#ff0000;" x="89.700674" xlink:href="#mbbd3e9caeb" y="269.480265"/>
     <use style="fill:#ff0000;stroke:#ff0000;" x="93.713258" xlink:href="#mbbd3e9caeb" y="274.169606"/>
     <use style="fill:#ff0000;stroke:#ff0000;" x="97.725843" xlink:href="#mbbd3e9caeb" y="276.272521"/>
     <use style="fill:#ff0000;stroke:#ff0000;" x="101.738427" xlink:href="#mbbd3e9caeb" y="279.643355"/>
     <use style="fill:#ff0000;stroke:#ff0000;" x="105.751011" xlink:href="#mbbd3e9caeb" y="279.888398"/>
     <use style="fill:#ff0000;stroke:#ff0000;" x="109.763596" xlink:href="#mbbd3e9caeb" y="281.911022"/>
     <use style="fill:#ff0000;stroke:#ff0000;" x="113.77618" xlink:href="#mbbd3e9caeb" y="280.145207"/>
     <use style="fill:#ff0000;stroke:#ff0000;" x="117.788764" xlink:href="#mbbd3e9caeb" y="281.043439"/>
     <use style="fill:#ff0000;stroke:#ff0000;" x="121.801348" xlink:href="#mbbd3e9caeb" y="281.676882"/>
     <use style="fill:#ff0000;stroke:#ff0000;" x="125.813933" xlink:href="#mbbd3e9caeb" y="281.8906"/>
     <use style="fill:#ff0000;stroke:#ff0000;" x="129.826517" xlink:href="#mbbd3e9caeb" y="282.566271"/>
     <use style="fill:#ff0000;stroke:#ff0000;" x="133.839101" xlink:href="#mbbd3e9caeb" y="282.682891"/>
     <use style="fill:#ff0000;stroke:#ff0000;" x="137.851685" xlink:href="#mbbd3e9caeb" y="283.094829"/>
     <use style="fill:#ff0000;stroke:#ff0000;" x="141.86427" xlink:href="#mbbd3e9caeb" y="282.639474"/>
     <use style="fill:#ff0000;stroke:#ff0000;" x="145.876854" xlink:href="#mbbd3e9caeb" y="282.711673"/>
     <use style="fill:#ff0000;stroke:#ff0000;" x="149.889438" xlink:href="#mbbd3e9caeb" y="284.483497"/>
     <use style="fill:#ff0000;stroke:#ff0000;" x="153.902022" xlink:href="#mbbd3e9caeb" y="283.539788"/>
     <use style="fill:#ff0000;stroke:#ff0000;" x="157.914607" xlink:href="#mbbd3e9caeb" y="285.056113"/>
     <use style="fill:#ff0000;stroke:#ff0000;" x="161.927191" xlink:href="#mbbd3e9caeb" y="283.809544"/>
     <use style="fill:#ff0000;stroke:#ff0000;" x="165.939775" xlink:href="#mbbd3e9caeb" y="283.917649"/>
     <use style="fill:#ff0000;stroke:#ff0000;" x="169.95236" xlink:href="#mbbd3e9caeb" y="284.840914"/>
     <use style="fill:#ff0000;stroke:#ff0000;" x="173.964944" xlink:href="#mbbd3e9caeb" y="284.965529"/>
     <use style="fill:#ff0000;stroke:#ff0000;" x="177.977528" xlink:href="#mbbd3e9caeb" y="285.009914"/>
     <use style="fill:#ff0000;stroke:#ff0000;" x="181.990112" xlink:href="#mbbd3e9caeb" y="284.77906"/>
     <use style="fill:#ff0000;stroke:#ff0000;" x="186.002697" xlink:href="#mbbd3e9caeb" y="284.396915"/>
     <use style="fill:#ff0000;stroke:#ff0000;" x="190.015281" xlink:href="#mbbd3e9caeb" y="285.603241"/>
     <use style="fill:#ff0000;stroke:#ff0000;" x="194.027865" xlink:href="#mbbd3e9caeb" y="285.566897"/>
     <use style="fill:#ff0000;stroke:#ff0000;" x="198.040449" xlink:href="#mbbd3e9caeb" y="285.935573"/>
     <use style="fill:#ff0000;stroke:#ff0000;" x="202.053034" xlink:href="#mbbd3e9caeb" y="285.413872"/>
     <use style="fill:#ff0000;stroke:#ff0000;" x="206.065618" xlink:href="#mbbd3e9caeb" y="285.265086"/>
     <use style="fill:#ff0000;stroke:#ff0000;" x="210.078202" xlink:href="#mbbd3e9caeb" y="285.491336"/>
     <use style="fill:#ff0000;stroke:#ff0000;" x="214.090787" xlink:href="#mbbd3e9caeb" y="285.524364"/>
     <use style="fill:#ff0000;stroke:#ff0000;" x="218.103371" xlink:href="#mbbd3e9caeb" y="285.997992"/>
     <use style="fill:#ff0000;stroke:#ff0000;" x="222.115955" xlink:href="#mbbd3e9caeb" y="285.197008"/>
     <use style="fill:#ff0000;stroke:#ff0000;" x="226.128539" xlink:href="#mbbd3e9caeb" y="285.824047"/>
     <use style="fill:#ff0000;stroke:#ff0000;" x="230.141124" xlink:href="#mbbd3e9caeb" y="285.874292"/>
     <use style="fill:#ff0000;stroke:#ff0000;" x="234.153708" xlink:href="#mbbd3e9caeb" y="286.014622"/>
     <use style="fill:#ff0000;stroke:#ff0000;" x="238.166292" xlink:href="#mbbd3e9caeb" y="285.845429"/>
     <use style="fill:#ff0000;stroke:#ff0000;" x="242.178876" xlink:href="#mbbd3e9caeb" y="285.697424"/>
     <use style="fill:#ff0000;stroke:#ff0000;" x="246.191461" xlink:href="#mbbd3e9caeb" y="285.530053"/>
     <use style="fill:#ff0000;stroke:#ff0000;" x="250.204045" xlink:href="#mbbd3e9caeb" y="285.829491"/>
     <use style="fill:#ff0000;stroke:#ff0000;" x="254.216629" xlink:href="#mbbd3e9caeb" y="286.127419"/>
     <use style="fill:#ff0000;stroke:#ff0000;" x="258.229213" xlink:href="#mbbd3e9caeb" y="285.802666"/>
     <use style="fill:#ff0000;stroke:#ff0000;" x="262.241798" xlink:href="#mbbd3e9caeb" y="285.818626"/>
     <use style="fill:#ff0000;stroke:#ff0000;" x="266.254382" xlink:href="#mbbd3e9caeb" y="285.628289"/>
     <use style="fill:#ff0000;stroke:#ff0000;" x="270.266966" xlink:href="#mbbd3e9caeb" y="286.388906"/>
     <use style="fill:#ff0000;stroke:#ff0000;" x="274.279551" xlink:href="#mbbd3e9caeb" y="285.528075"/>
     <use style="fill:#ff0000;stroke:#ff0000;" x="278.292135" xlink:href="#mbbd3e9caeb" y="285.796292"/>
     <use style="fill:#ff0000;stroke:#ff0000;" x="282.304719" xlink:href="#mbbd3e9caeb" y="286.4478"/>
     <use style="fill:#ff0000;stroke:#ff0000;" x="286.317303" xlink:href="#mbbd3e9caeb" y="286.264692"/>
     <use style="fill:#ff0000;stroke:#ff0000;" x="290.329888" xlink:href="#mbbd3e9caeb" y="286.530902"/>
     <use style="fill:#ff0000;stroke:#ff0000;" x="294.342472" xlink:href="#mbbd3e9caeb" y="285.868372"/>
     <use style="fill:#ff0000;stroke:#ff0000;" x="298.355056" xlink:href="#mbbd3e9caeb" y="284.174979"/>
     <use style="fill:#ff0000;stroke:#ff0000;" x="302.36764" xlink:href="#mbbd3e9caeb" y="284.041067"/>
     <use style="fill:#ff0000;stroke:#ff0000;" x="306.380225" xlink:href="#mbbd3e9caeb" y="285.599002"/>
     <use style="fill:#ff0000;stroke:#ff0000;" x="310.392809" xlink:href="#mbbd3e9caeb" y="286.013008"/>
     <use style="fill:#ff0000;stroke:#ff0000;" x="314.405393" xlink:href="#mbbd3e9caeb" y="285.990184"/>
     <use style="fill:#ff0000;stroke:#ff0000;" x="318.417978" xlink:href="#mbbd3e9caeb" y="285.29569"/>
     <use style="fill:#ff0000;stroke:#ff0000;" x="322.430562" xlink:href="#mbbd3e9caeb" y="285.644048"/>
     <use style="fill:#ff0000;stroke:#ff0000;" x="326.443146" xlink:href="#mbbd3e9caeb" y="285.281686"/>
     <use style="fill:#ff0000;stroke:#ff0000;" x="330.45573" xlink:href="#mbbd3e9caeb" y="285.659756"/>
     <use style="fill:#ff0000;stroke:#ff0000;" x="334.468315" xlink:href="#mbbd3e9caeb" y="285.581942"/>
     <use style="fill:#ff0000;stroke:#ff0000;" x="338.480899" xlink:href="#mbbd3e9caeb" y="285.0733"/>
     <use style="fill:#ff0000;stroke:#ff0000;" x="342.493483" xlink:href="#mbbd3e9caeb" y="283.189823"/>
     <use style="fill:#ff0000;stroke:#ff0000;" x="346.506067" xlink:href="#mbbd3e9caeb" y="284.812847"/>
     <use style="fill:#ff0000;stroke:#ff0000;" x="350.518652" xlink:href="#mbbd3e9caeb" y="285.215637"/>
     <use style="fill:#ff0000;stroke:#ff0000;" x="354.531236" xlink:href="#mbbd3e9caeb" y="285.333604"/>
     <use style="fill:#ff0000;stroke:#ff0000;" x="358.54382" xlink:href="#mbbd3e9caeb" y="283.903229"/>
     <use style="fill:#ff0000;stroke:#ff0000;" x="362.556404" xlink:href="#mbbd3e9caeb" y="284.916341"/>
     <use style="fill:#ff0000;stroke:#ff0000;" x="366.568989" xlink:href="#mbbd3e9caeb" y="285.441322"/>
     <use style="fill:#ff0000;stroke:#ff0000;" x="370.581573" xlink:href="#mbbd3e9caeb" y="285.1356"/>
     <use style="fill:#ff0000;stroke:#ff0000;" x="374.594157" xlink:href="#mbbd3e9caeb" y="284.326717"/>
     <use style="fill:#ff0000;stroke:#ff0000;" x="378.606742" xlink:href="#mbbd3e9caeb" y="284.495575"/>
     <use style="fill:#ff0000;stroke:#ff0000;" x="382.619326" xlink:href="#mbbd3e9caeb" y="285.394692"/>
     <use style="fill:#ff0000;stroke:#ff0000;" x="386.63191" xlink:href="#mbbd3e9caeb" y="284.872767"/>
     <use style="fill:#ff0000;stroke:#ff0000;" x="390.644494" xlink:href="#mbbd3e9caeb" y="285.09538"/>
     <use style="fill:#ff0000;stroke:#ff0000;" x="394.657079" xlink:href="#mbbd3e9caeb" y="284.586032"/>
     <use style="fill:#ff0000;stroke:#ff0000;" x="398.669663" xlink:href="#mbbd3e9caeb" y="284.926619"/>
     <use style="fill:#ff0000;stroke:#ff0000;" x="402.682247" xlink:href="#mbbd3e9caeb" y="283.498631"/>
     <use style="fill:#ff0000;stroke:#ff0000;" x="406.694831" xlink:href="#mbbd3e9caeb" y="285.485513"/>
     <use style="fill:#ff0000;stroke:#ff0000;" x="410.707416" xlink:href="#mbbd3e9caeb" y="284.988309"/>
    </g>
   </g>
   <g id="line2d_61">
    <path clip-path="url(#pd7816d9315)" d="M 61.612584 54.582923 
L 65.625169 186.37782 
L 69.637753 224.378471 
L 73.650337 245.586366 
L 77.662921 256.77836 
L 81.675506 264.058248 
L 85.68809 270.228506 
L 89.700674 275.539053 
L 93.713258 280.361212 
L 97.725843 282.7725 
L 101.738427 285.554343 
L 105.751011 286.15101 
L 109.763596 287.615755 
L 113.77618 286.602085 
L 117.788764 287.368142 
L 121.801348 287.64052 
L 125.813933 287.89946 
L 129.826517 288.413557 
L 133.839101 288.650512 
L 137.851685 288.779552 
L 141.86427 288.500674 
L 145.876854 287.546546 
L 149.889438 289.889364 
L 153.902022 289.405863 
L 157.914607 289.936843 
L 161.927191 289.521673 
L 165.939775 288.994896 
L 169.95236 289.754486 
L 173.964944 289.920202 
L 177.977528 290.199396 
L 181.990112 290.13353 
L 186.002697 289.790772 
L 190.015281 290.394083 
L 194.027865 290.286298 
L 198.040449 290.602008 
L 202.053034 290.129008 
L 206.065618 289.907161 
L 210.078202 290.332921 
L 214.090787 290.195295 
L 218.103371 290.527753 
L 222.115955 290.07258 
L 226.128539 290.365153 
L 230.141124 290.383274 
L 234.153708 290.057007 
L 238.166292 290.083594 
L 242.178876 289.75053 
L 246.191461 289.722652 
L 250.204045 289.810495 
L 254.216629 289.979237 
L 258.229213 289.746354 
L 262.241798 289.834226 
L 266.254382 289.488694 
L 270.266966 290.034967 
L 274.279551 289.378019 
L 278.292135 289.459771 
L 282.304719 289.762838 
L 286.317303 289.287369 
L 290.329888 289.838004 
L 294.342472 289.35833 
L 298.355056 288.251477 
L 302.36764 287.800097 
L 306.380225 288.489634 
L 310.392809 289.277162 
L 314.405393 289.2746 
L 318.417978 288.538767 
L 322.430562 288.934027 
L 326.443146 288.727861 
L 330.45573 288.634073 
L 334.468315 288.43093 
L 338.480899 288.453434 
L 342.493483 287.073631 
L 346.506067 287.701738 
L 350.518652 288.078525 
L 354.531236 288.721436 
L 358.54382 287.754054 
L 362.556404 287.850141 
L 366.568989 288.027038 
L 370.581573 288.008044 
L 374.594157 287.661258 
L 378.606742 287.941509 
L 382.619326 288.190271 
L 386.63191 287.387765 
L 390.644494 287.722112 
L 394.657079 287.507036 
L 398.669663 288.002043 
L 402.682247 286.308322 
L 406.694831 287.931424 
L 410.707416 287.714206 
" style="fill:none;stroke:#008000;stroke-dasharray:1.5,2.475;stroke-dashoffset:0;stroke-width:1.5;"/>
    <defs>
     <path d="M 0 1.5 
C 0.397805 1.5 0.77937 1.341951 1.06066 1.06066 
C 1.341951 0.77937 1.5 0.397805 1.5 0 
C 1.5 -0.397805 1.341951 -0.77937 1.06066 -1.06066 
C 0.77937 -1.341951 0.397805 -1.5 0 -1.5 
C -0.397805 -1.5 -0.77937 -1.341951 -1.06066 -1.06066 
C -1.341951 -0.77937 -1.5 -0.397805 -1.5 0 
C -1.5 0.397805 -1.341951 0.77937 -1.06066 1.06066 
C -0.77937 1.341951 -0.397805 1.5 0 1.5 
z
" id="m7152bc5e6c" style="stroke:#008000;"/>
    </defs>
    <g clip-path="url(#pd7816d9315)">
     <use style="fill:#008000;stroke:#008000;" x="61.612584" xlink:href="#m7152bc5e6c" y="54.582923"/>
     <use style="fill:#008000;stroke:#008000;" x="65.625169" xlink:href="#m7152bc5e6c" y="186.37782"/>
     <use style="fill:#008000;stroke:#008000;" x="69.637753" xlink:href="#m7152bc5e6c" y="224.378471"/>
     <use style="fill:#008000;stroke:#008000;" x="73.650337" xlink:href="#m7152bc5e6c" y="245.586366"/>
     <use style="fill:#008000;stroke:#008000;" x="77.662921" xlink:href="#m7152bc5e6c" y="256.77836"/>
     <use style="fill:#008000;stroke:#008000;" x="81.675506" xlink:href="#m7152bc5e6c" y="264.058248"/>
     <use style="fill:#008000;stroke:#008000;" x="85.68809" xlink:href="#m7152bc5e6c" y="270.228506"/>
     <use style="fill:#008000;stroke:#008000;" x="89.700674" xlink:href="#m7152bc5e6c" y="275.539053"/>
     <use style="fill:#008000;stroke:#008000;" x="93.713258" xlink:href="#m7152bc5e6c" y="280.361212"/>
     <use style="fill:#008000;stroke:#008000;" x="97.725843" xlink:href="#m7152bc5e6c" y="282.7725"/>
     <use style="fill:#008000;stroke:#008000;" x="101.738427" xlink:href="#m7152bc5e6c" y="285.554343"/>
     <use style="fill:#008000;stroke:#008000;" x="105.751011" xlink:href="#m7152bc5e6c" y="286.15101"/>
     <use style="fill:#008000;stroke:#008000;" x="109.763596" xlink:href="#m7152bc5e6c" y="287.615755"/>
     <use style="fill:#008000;stroke:#008000;" x="113.77618" xlink:href="#m7152bc5e6c" y="286.602085"/>
     <use style="fill:#008000;stroke:#008000;" x="117.788764" xlink:href="#m7152bc5e6c" y="287.368142"/>
     <use style="fill:#008000;stroke:#008000;" x="121.801348" xlink:href="#m7152bc5e6c" y="287.64052"/>
     <use style="fill:#008000;stroke:#008000;" x="125.813933" xlink:href="#m7152bc5e6c" y="287.89946"/>
     <use style="fill:#008000;stroke:#008000;" x="129.826517" xlink:href="#m7152bc5e6c" y="288.413557"/>
     <use style="fill:#008000;stroke:#008000;" x="133.839101" xlink:href="#m7152bc5e6c" y="288.650512"/>
     <use style="fill:#008000;stroke:#008000;" x="137.851685" xlink:href="#m7152bc5e6c" y="288.779552"/>
     <use style="fill:#008000;stroke:#008000;" x="141.86427" xlink:href="#m7152bc5e6c" y="288.500674"/>
     <use style="fill:#008000;stroke:#008000;" x="145.876854" xlink:href="#m7152bc5e6c" y="287.546546"/>
     <use style="fill:#008000;stroke:#008000;" x="149.889438" xlink:href="#m7152bc5e6c" y="289.889364"/>
     <use style="fill:#008000;stroke:#008000;" x="153.902022" xlink:href="#m7152bc5e6c" y="289.405863"/>
     <use style="fill:#008000;stroke:#008000;" x="157.914607" xlink:href="#m7152bc5e6c" y="289.936843"/>
     <use style="fill:#008000;stroke:#008000;" x="161.927191" xlink:href="#m7152bc5e6c" y="289.521673"/>
     <use style="fill:#008000;stroke:#008000;" x="165.939775" xlink:href="#m7152bc5e6c" y="288.994896"/>
     <use style="fill:#008000;stroke:#008000;" x="169.95236" xlink:href="#m7152bc5e6c" y="289.754486"/>
     <use style="fill:#008000;stroke:#008000;" x="173.964944" xlink:href="#m7152bc5e6c" y="289.920202"/>
     <use style="fill:#008000;stroke:#008000;" x="177.977528" xlink:href="#m7152bc5e6c" y="290.199396"/>
     <use style="fill:#008000;stroke:#008000;" x="181.990112" xlink:href="#m7152bc5e6c" y="290.13353"/>
     <use style="fill:#008000;stroke:#008000;" x="186.002697" xlink:href="#m7152bc5e6c" y="289.790772"/>
     <use style="fill:#008000;stroke:#008000;" x="190.015281" xlink:href="#m7152bc5e6c" y="290.394083"/>
     <use style="fill:#008000;stroke:#008000;" x="194.027865" xlink:href="#m7152bc5e6c" y="290.286298"/>
     <use style="fill:#008000;stroke:#008000;" x="198.040449" xlink:href="#m7152bc5e6c" y="290.602008"/>
     <use style="fill:#008000;stroke:#008000;" x="202.053034" xlink:href="#m7152bc5e6c" y="290.129008"/>
     <use style="fill:#008000;stroke:#008000;" x="206.065618" xlink:href="#m7152bc5e6c" y="289.907161"/>
     <use style="fill:#008000;stroke:#008000;" x="210.078202" xlink:href="#m7152bc5e6c" y="290.332921"/>
     <use style="fill:#008000;stroke:#008000;" x="214.090787" xlink:href="#m7152bc5e6c" y="290.195295"/>
     <use style="fill:#008000;stroke:#008000;" x="218.103371" xlink:href="#m7152bc5e6c" y="290.527753"/>
     <use style="fill:#008000;stroke:#008000;" x="222.115955" xlink:href="#m7152bc5e6c" y="290.07258"/>
     <use style="fill:#008000;stroke:#008000;" x="226.128539" xlink:href="#m7152bc5e6c" y="290.365153"/>
     <use style="fill:#008000;stroke:#008000;" x="230.141124" xlink:href="#m7152bc5e6c" y="290.383274"/>
     <use style="fill:#008000;stroke:#008000;" x="234.153708" xlink:href="#m7152bc5e6c" y="290.057007"/>
     <use style="fill:#008000;stroke:#008000;" x="238.166292" xlink:href="#m7152bc5e6c" y="290.083594"/>
     <use style="fill:#008000;stroke:#008000;" x="242.178876" xlink:href="#m7152bc5e6c" y="289.75053"/>
     <use style="fill:#008000;stroke:#008000;" x="246.191461" xlink:href="#m7152bc5e6c" y="289.722652"/>
     <use style="fill:#008000;stroke:#008000;" x="250.204045" xlink:href="#m7152bc5e6c" y="289.810495"/>
     <use style="fill:#008000;stroke:#008000;" x="254.216629" xlink:href="#m7152bc5e6c" y="289.979237"/>
     <use style="fill:#008000;stroke:#008000;" x="258.229213" xlink:href="#m7152bc5e6c" y="289.746354"/>
     <use style="fill:#008000;stroke:#008000;" x="262.241798" xlink:href="#m7152bc5e6c" y="289.834226"/>
     <use style="fill:#008000;stroke:#008000;" x="266.254382" xlink:href="#m7152bc5e6c" y="289.488694"/>
     <use style="fill:#008000;stroke:#008000;" x="270.266966" xlink:href="#m7152bc5e6c" y="290.034967"/>
     <use style="fill:#008000;stroke:#008000;" x="274.279551" xlink:href="#m7152bc5e6c" y="289.378019"/>
     <use style="fill:#008000;stroke:#008000;" x="278.292135" xlink:href="#m7152bc5e6c" y="289.459771"/>
     <use style="fill:#008000;stroke:#008000;" x="282.304719" xlink:href="#m7152bc5e6c" y="289.762838"/>
     <use style="fill:#008000;stroke:#008000;" x="286.317303" xlink:href="#m7152bc5e6c" y="289.287369"/>
     <use style="fill:#008000;stroke:#008000;" x="290.329888" xlink:href="#m7152bc5e6c" y="289.838004"/>
     <use style="fill:#008000;stroke:#008000;" x="294.342472" xlink:href="#m7152bc5e6c" y="289.35833"/>
     <use style="fill:#008000;stroke:#008000;" x="298.355056" xlink:href="#m7152bc5e6c" y="288.251477"/>
     <use style="fill:#008000;stroke:#008000;" x="302.36764" xlink:href="#m7152bc5e6c" y="287.800097"/>
     <use style="fill:#008000;stroke:#008000;" x="306.380225" xlink:href="#m7152bc5e6c" y="288.489634"/>
     <use style="fill:#008000;stroke:#008000;" x="310.392809" xlink:href="#m7152bc5e6c" y="289.277162"/>
     <use style="fill:#008000;stroke:#008000;" x="314.405393" xlink:href="#m7152bc5e6c" y="289.2746"/>
     <use style="fill:#008000;stroke:#008000;" x="318.417978" xlink:href="#m7152bc5e6c" y="288.538767"/>
     <use style="fill:#008000;stroke:#008000;" x="322.430562" xlink:href="#m7152bc5e6c" y="288.934027"/>
     <use style="fill:#008000;stroke:#008000;" x="326.443146" xlink:href="#m7152bc5e6c" y="288.727861"/>
     <use style="fill:#008000;stroke:#008000;" x="330.45573" xlink:href="#m7152bc5e6c" y="288.634073"/>
     <use style="fill:#008000;stroke:#008000;" x="334.468315" xlink:href="#m7152bc5e6c" y="288.43093"/>
     <use style="fill:#008000;stroke:#008000;" x="338.480899" xlink:href="#m7152bc5e6c" y="288.453434"/>
     <use style="fill:#008000;stroke:#008000;" x="342.493483" xlink:href="#m7152bc5e6c" y="287.073631"/>
     <use style="fill:#008000;stroke:#008000;" x="346.506067" xlink:href="#m7152bc5e6c" y="287.701738"/>
     <use style="fill:#008000;stroke:#008000;" x="350.518652" xlink:href="#m7152bc5e6c" y="288.078525"/>
     <use style="fill:#008000;stroke:#008000;" x="354.531236" xlink:href="#m7152bc5e6c" y="288.721436"/>
     <use style="fill:#008000;stroke:#008000;" x="358.54382" xlink:href="#m7152bc5e6c" y="287.754054"/>
     <use style="fill:#008000;stroke:#008000;" x="362.556404" xlink:href="#m7152bc5e6c" y="287.850141"/>
     <use style="fill:#008000;stroke:#008000;" x="366.568989" xlink:href="#m7152bc5e6c" y="288.027038"/>
     <use style="fill:#008000;stroke:#008000;" x="370.581573" xlink:href="#m7152bc5e6c" y="288.008044"/>
     <use style="fill:#008000;stroke:#008000;" x="374.594157" xlink:href="#m7152bc5e6c" y="287.661258"/>
     <use style="fill:#008000;stroke:#008000;" x="378.606742" xlink:href="#m7152bc5e6c" y="287.941509"/>
     <use style="fill:#008000;stroke:#008000;" x="382.619326" xlink:href="#m7152bc5e6c" y="288.190271"/>
     <use style="fill:#008000;stroke:#008000;" x="386.63191" xlink:href="#m7152bc5e6c" y="287.387765"/>
     <use style="fill:#008000;stroke:#008000;" x="390.644494" xlink:href="#m7152bc5e6c" y="287.722112"/>
     <use style="fill:#008000;stroke:#008000;" x="394.657079" xlink:href="#m7152bc5e6c" y="287.507036"/>
     <use style="fill:#008000;stroke:#008000;" x="398.669663" xlink:href="#m7152bc5e6c" y="288.002043"/>
     <use style="fill:#008000;stroke:#008000;" x="402.682247" xlink:href="#m7152bc5e6c" y="286.308322"/>
     <use style="fill:#008000;stroke:#008000;" x="406.694831" xlink:href="#m7152bc5e6c" y="287.931424"/>
     <use style="fill:#008000;stroke:#008000;" x="410.707416" xlink:href="#m7152bc5e6c" y="287.714206"/>
    </g>
   </g>
   <g id="patch_3">
    <path d="M 57.6 307.584 
L 57.6 41.472 
" style="fill:none;stroke:#000000;stroke-linecap:square;stroke-linejoin:miter;stroke-width:0.8;"/>
   </g>
   <g id="patch_4">
    <path d="M 414.72 307.584 
L 414.72 41.472 
" style="fill:none;stroke:#000000;stroke-linecap:square;stroke-linejoin:miter;stroke-width:0.8;"/>
   </g>
   <g id="patch_5">
    <path d="M 57.6 307.584 
L 414.72 307.584 
" style="fill:none;stroke:#000000;stroke-linecap:square;stroke-linejoin:miter;stroke-width:0.8;"/>
   </g>
   <g id="patch_6">
    <path d="M 57.6 41.472 
L 414.72 41.472 
" style="fill:none;stroke:#000000;stroke-linecap:square;stroke-linejoin:miter;stroke-width:0.8;"/>
   </g>
   <g id="text_32">
    <!-- tbb::parallel_sort O2 OMP AVX2 on pre_transpose1 -->
    <defs>
     <path d="M 48.6875 27.296875 
Q 48.6875 37.203125 44.609375 42.84375 
Q 40.53125 48.484375 33.40625 48.484375 
Q 26.265625 48.484375 22.1875 42.84375 
Q 18.109375 37.203125 18.109375 27.296875 
Q 18.109375 17.390625 22.1875 11.75 
Q 26.265625 6.109375 33.40625 6.109375 
Q 40.53125 6.109375 44.609375 11.75 
Q 48.6875 17.390625 48.6875 27.296875 
z
M 18.109375 46.390625 
Q 20.953125 51.265625 25.265625 53.625 
Q 29.59375 56 35.59375 56 
Q 45.5625 56 51.78125 48.09375 
Q 58.015625 40.1875 58.015625 27.296875 
Q 58.015625 14.40625 51.78125 6.484375 
Q 45.5625 -1.421875 35.59375 -1.421875 
Q 29.59375 -1.421875 25.265625 0.953125 
Q 20.953125 3.328125 18.109375 8.203125 
L 18.109375 0 
L 9.078125 0 
L 9.078125 75.984375 
L 18.109375 75.984375 
z
" id="DejaVuSans-98"/>
     <path d="M 11.71875 12.40625 
L 22.015625 12.40625 
L 22.015625 0 
L 11.71875 0 
z
M 11.71875 51.703125 
L 22.015625 51.703125 
L 22.015625 39.3125 
L 11.71875 39.3125 
z
" id="DejaVuSans-58"/>
     <path d="M 18.109375 8.203125 
L 18.109375 -20.796875 
L 9.078125 -20.796875 
L 9.078125 54.6875 
L 18.109375 54.6875 
L 18.109375 46.390625 
Q 20.953125 51.265625 25.265625 53.625 
Q 29.59375 56 35.59375 56 
Q 45.5625 56 51.78125 48.09375 
Q 58.015625 40.1875 58.015625 27.296875 
Q 58.015625 14.40625 51.78125 6.484375 
Q 45.5625 -1.421875 35.59375 -1.421875 
Q 29.59375 -1.421875 25.265625 0.953125 
Q 20.953125 3.328125 18.109375 8.203125 
z
M 48.6875 27.296875 
Q 48.6875 37.203125 44.609375 42.84375 
Q 40.53125 48.484375 33.40625 48.484375 
Q 26.265625 48.484375 22.1875 42.84375 
Q 18.109375 37.203125 18.109375 27.296875 
Q 18.109375 17.390625 22.1875 11.75 
Q 26.265625 6.109375 33.40625 6.109375 
Q 40.53125 6.109375 44.609375 11.75 
Q 48.6875 17.390625 48.6875 27.296875 
z
" id="DejaVuSans-112"/>
     <path d="M 9.421875 75.984375 
L 18.40625 75.984375 
L 18.40625 0 
L 9.421875 0 
z
" id="DejaVuSans-108"/>
     <path d="M 50.984375 -16.609375 
L 50.984375 -23.578125 
L -0.984375 -23.578125 
L -0.984375 -16.609375 
z
" id="DejaVuSans-95"/>
     <path d="M 39.40625 66.21875 
Q 28.65625 66.21875 22.328125 58.203125 
Q 16.015625 50.203125 16.015625 36.375 
Q 16.015625 22.609375 22.328125 14.59375 
Q 28.65625 6.59375 39.40625 6.59375 
Q 50.140625 6.59375 56.421875 14.59375 
Q 62.703125 22.609375 62.703125 36.375 
Q 62.703125 50.203125 56.421875 58.203125 
Q 50.140625 66.21875 39.40625 66.21875 
z
M 39.40625 74.21875 
Q 54.734375 74.21875 63.90625 63.9375 
Q 73.09375 53.65625 73.09375 36.375 
Q 73.09375 19.140625 63.90625 8.859375 
Q 54.734375 -1.421875 39.40625 -1.421875 
Q 24.03125 -1.421875 14.8125 8.828125 
Q 5.609375 19.09375 5.609375 36.375 
Q 5.609375 53.65625 14.8125 63.9375 
Q 24.03125 74.21875 39.40625 74.21875 
z
" id="DejaVuSans-79"/>
     <path d="M 9.8125 72.90625 
L 24.515625 72.90625 
L 43.109375 23.296875 
L 61.8125 72.90625 
L 76.515625 72.90625 
L 76.515625 0 
L 66.890625 0 
L 66.890625 64.015625 
L 48.09375 14.015625 
L 38.1875 14.015625 
L 19.390625 64.015625 
L 19.390625 0 
L 9.8125 0 
z
" id="DejaVuSans-77"/>
     <path d="M 19.671875 64.796875 
L 19.671875 37.40625 
L 32.078125 37.40625 
Q 38.96875 37.40625 42.71875 40.96875 
Q 46.484375 44.53125 46.484375 51.125 
Q 46.484375 57.671875 42.71875 61.234375 
Q 38.96875 64.796875 32.078125 64.796875 
z
M 9.8125 72.90625 
L 32.078125 72.90625 
Q 44.34375 72.90625 50.609375 67.359375 
Q 56.890625 61.8125 56.890625 51.125 
Q 56.890625 40.328125 50.609375 34.8125 
Q 44.34375 29.296875 32.078125 29.296875 
L 19.671875 29.296875 
L 19.671875 0 
L 9.8125 0 
z
" id="DejaVuSans-80"/>
     <path d="M 34.1875 63.1875 
L 20.796875 26.90625 
L 47.609375 26.90625 
z
M 28.609375 72.90625 
L 39.796875 72.90625 
L 67.578125 0 
L 57.328125 0 
L 50.6875 18.703125 
L 17.828125 18.703125 
L 11.1875 0 
L 0.78125 0 
z
" id="DejaVuSans-65"/>
     <path d="M 28.609375 0 
L 0.78125 72.90625 
L 11.078125 72.90625 
L 34.1875 11.53125 
L 57.328125 72.90625 
L 67.578125 72.90625 
L 39.796875 0 
z
" id="DejaVuSans-86"/>
     <path d="M 6.296875 72.90625 
L 16.890625 72.90625 
L 35.015625 45.796875 
L 53.21875 72.90625 
L 63.8125 72.90625 
L 40.375 37.890625 
L 65.375 0 
L 54.78125 0 
L 34.28125 31 
L 13.625 0 
L 2.984375 0 
L 29 38.921875 
z
" id="DejaVuSans-88"/>
    </defs>
    <g transform="translate(84.017812 35.472)scale(0.12 -0.12)">
     <use xlink:href="#DejaVuSans-116"/>
     <use x="39.208984" xlink:href="#DejaVuSans-98"/>
     <use x="102.685547" xlink:href="#DejaVuSans-98"/>
     <use x="166.162109" xlink:href="#DejaVuSans-58"/>
     <use x="199.853516" xlink:href="#DejaVuSans-58"/>
     <use x="233.544922" xlink:href="#DejaVuSans-112"/>
     <use x="297.021484" xlink:href="#DejaVuSans-97"/>
     <use x="358.300781" xlink:href="#DejaVuSans-114"/>
     <use x="399.414062" xlink:href="#DejaVuSans-97"/>
     <use x="460.693359" xlink:href="#DejaVuSans-108"/>
     <use x="488.476562" xlink:href="#DejaVuSans-108"/>
     <use x="516.259766" xlink:href="#DejaVuSans-101"/>
     <use x="577.783203" xlink:href="#DejaVuSans-108"/>
     <use x="605.566406" xlink:href="#DejaVuSans-95"/>
     <use x="655.566406" xlink:href="#DejaVuSans-115"/>
     <use x="707.666016" xlink:href="#DejaVuSans-111"/>
     <use x="768.847656" xlink:href="#DejaVuSans-114"/>
     <use x="809.960938" xlink:href="#DejaVuSans-116"/>
     <use x="849.169922" xlink:href="#DejaVuSans-32"/>
     <use x="880.957031" xlink:href="#DejaVuSans-79"/>
     <use x="959.667969" xlink:href="#DejaVuSans-50"/>
     <use x="1023.291016" xlink:href="#DejaVuSans-32"/>
     <use x="1055.078125" xlink:href="#DejaVuSans-79"/>
     <use x="1133.789062" xlink:href="#DejaVuSans-77"/>
     <use x="1220.068359" xlink:href="#DejaVuSans-80"/>
     <use x="1280.371094" xlink:href="#DejaVuSans-32"/>
     <use x="1312.158203" xlink:href="#DejaVuSans-65"/>
     <use x="1374.191406" xlink:href="#DejaVuSans-86"/>
     <use x="1442.599609" xlink:href="#DejaVuSans-88"/>
     <use x="1511.105469" xlink:href="#DejaVuSans-50"/>
     <use x="1574.728516" xlink:href="#DejaVuSans-32"/>
     <use x="1606.515625" xlink:href="#DejaVuSans-111"/>
     <use x="1667.697266" xlink:href="#DejaVuSans-110"/>
     <use x="1731.076172" xlink:href="#DejaVuSans-32"/>
     <use x="1762.863281" xlink:href="#DejaVuSans-112"/>
     <use x="1826.339844" xlink:href="#DejaVuSans-114"/>
     <use x="1865.203125" xlink:href="#DejaVuSans-101"/>
     <use x="1926.726562" xlink:href="#DejaVuSans-95"/>
     <use x="1976.726562" xlink:href="#DejaVuSans-116"/>
     <use x="2015.935547" xlink:href="#DejaVuSans-114"/>
     <use x="2057.048828" xlink:href="#DejaVuSans-97"/>
     <use x="2118.328125" xlink:href="#DejaVuSans-110"/>
     <use x="2181.707031" xlink:href="#DejaVuSans-115"/>
     <use x="2233.806641" xlink:href="#DejaVuSans-112"/>
     <use x="2297.283203" xlink:href="#DejaVuSans-111"/>
     <use x="2358.464844" xlink:href="#DejaVuSans-115"/>
     <use x="2410.564453" xlink:href="#DejaVuSans-101"/>
     <use x="2472.087891" xlink:href="#DejaVuSans-49"/>
    </g>
   </g>
   <g id="legend_1">
    <g id="patch_7">
     <path d="M 313.152813 93.7845 
L 407.72 93.7845 
Q 409.72 93.7845 409.72 91.7845 
L 409.72 48.472 
Q 409.72 46.472 407.72 46.472 
L 313.152813 46.472 
Q 311.152813 46.472 311.152813 48.472 
L 311.152813 91.7845 
Q 311.152813 93.7845 313.152813 93.7845 
z
" style="fill:#ffffff;opacity:0.8;stroke:#cccccc;stroke-linejoin:miter;"/>
    </g>
    <g id="line2d_62">
     <path d="M 315.152813 54.570438 
L 335.152813 54.570438 
" style="fill:none;stroke:#0000ff;stroke-dasharray:1.5,2.475;stroke-dashoffset:0;stroke-width:1.5;"/>
    </g>
    <g id="line2d_63">
     <g>
      <use style="fill:#0000ff;stroke:#0000ff;" x="325.152813" xlink:href="#mfcb08854ef" y="54.570438"/>
     </g>
    </g>
    <g id="text_33">
     <!-- transpose -->
     <g transform="translate(343.152813 58.070438)scale(0.1 -0.1)">
      <use xlink:href="#DejaVuSans-116"/>
      <use x="39.208984" xlink:href="#DejaVuSans-114"/>
      <use x="80.322266" xlink:href="#DejaVuSans-97"/>
      <use x="141.601562" xlink:href="#DejaVuSans-110"/>
      <use x="204.980469" xlink:href="#DejaVuSans-115"/>
      <use x="257.080078" xlink:href="#DejaVuSans-112"/>
      <use x="320.556641" xlink:href="#DejaVuSans-111"/>
      <use x="381.738281" xlink:href="#DejaVuSans-115"/>
      <use x="433.837891" xlink:href="#DejaVuSans-101"/>
     </g>
    </g>
    <g id="line2d_64">
     <path d="M 315.152813 69.248563 
L 335.152813 69.248563 
" style="fill:none;stroke:#ff0000;stroke-dasharray:1.5,2.475;stroke-dashoffset:0;stroke-width:1.5;"/>
    </g>
    <g id="line2d_65">
     <g>
      <use style="fill:#ff0000;stroke:#ff0000;" x="325.152813" xlink:href="#mbbd3e9caeb" y="69.248563"/>
     </g>
    </g>
    <g id="text_34">
     <!-- transpose_tr -->
     <g transform="translate(343.152813 72.748563)scale(0.1 -0.1)">
      <use xlink:href="#DejaVuSans-116"/>
      <use x="39.208984" xlink:href="#DejaVuSans-114"/>
      <use x="80.322266" xlink:href="#DejaVuSans-97"/>
      <use x="141.601562" xlink:href="#DejaVuSans-110"/>
      <use x="204.980469" xlink:href="#DejaVuSans-115"/>
      <use x="257.080078" xlink:href="#DejaVuSans-112"/>
      <use x="320.556641" xlink:href="#DejaVuSans-111"/>
      <use x="381.738281" xlink:href="#DejaVuSans-115"/>
      <use x="433.837891" xlink:href="#DejaVuSans-101"/>
      <use x="495.361328" xlink:href="#DejaVuSans-95"/>
      <use x="545.361328" xlink:href="#DejaVuSans-116"/>
      <use x="584.570312" xlink:href="#DejaVuSans-114"/>
     </g>
    </g>
    <g id="line2d_66">
     <path d="M 315.152813 84.204813 
L 335.152813 84.204813 
" style="fill:none;stroke:#008000;stroke-dasharray:1.5,2.475;stroke-dashoffset:0;stroke-width:1.5;"/>
    </g>
    <g id="line2d_67">
     <g>
      <use style="fill:#008000;stroke:#008000;" x="325.152813" xlink:href="#m7152bc5e6c" y="84.204813"/>
     </g>
    </g>
    <g id="text_35">
     <!-- mean -->
     <defs>
      <path d="M 52 44.1875 
Q 55.375 50.25 60.0625 53.125 
Q 64.75 56 71.09375 56 
Q 79.640625 56 84.28125 50.015625 
Q 88.921875 44.046875 88.921875 33.015625 
L 88.921875 0 
L 79.890625 0 
L 79.890625 32.71875 
Q 79.890625 40.578125 77.09375 44.375 
Q 74.3125 48.1875 68.609375 48.1875 
Q 61.625 48.1875 57.5625 43.546875 
Q 53.515625 38.921875 53.515625 30.90625 
L 53.515625 0 
L 44.484375 0 
L 44.484375 32.71875 
Q 44.484375 40.625 41.703125 44.40625 
Q 38.921875 48.1875 33.109375 48.1875 
Q 26.21875 48.1875 22.15625 43.53125 
Q 18.109375 38.875 18.109375 30.90625 
L 18.109375 0 
L 9.078125 0 
L 9.078125 54.6875 
L 18.109375 54.6875 
L 18.109375 46.1875 
Q 21.1875 51.21875 25.484375 53.609375 
Q 29.78125 56 35.6875 56 
Q 41.65625 56 45.828125 52.96875 
Q 50 49.953125 52 44.1875 
z
" id="DejaVuSans-109"/>
     </defs>
     <g transform="translate(343.152813 87.704813)scale(0.1 -0.1)">
      <use xlink:href="#DejaVuSans-109"/>
      <use x="97.412109" xlink:href="#DejaVuSans-101"/>
      <use x="158.935547" xlink:href="#DejaVuSans-97"/>
      <use x="220.214844" xlink:href="#DejaVuSans-110"/>
     </g>
    </g>
   </g>
  </g>
 </g>
 <defs>
  <clipPath id="pd7816d9315">
   <rect height="266.112" width="357.12" x="57.6" y="41.472"/>
  </clipPath>
 </defs>
</svg>
