<?xml version="1.0" encoding="utf-8" standalone="no"?>
<!DOCTYPE svg PUBLIC "-//W3C//DTD SVG 1.1//EN"
  "http://www.w3.org/Graphics/SVG/1.1/DTD/svg11.dtd">
<!-- Created with matplotlib (https://matplotlib.org/) -->
<svg height="345.6pt" version="1.1" viewBox="0 0 460.8 345.6" width="460.8pt" xmlns="http://www.w3.org/2000/svg" xmlns:xlink="http://www.w3.org/1999/xlink">
 <defs>
  <style type="text/css">
*{stroke-linecap:butt;stroke-linejoin:round;}
  </style>
 </defs>
 <g id="figure_1">
  <g id="patch_1">
   <path d="M 0 345.6 
L 460.8 345.6 
L 460.8 0 
L 0 0 
z
" style="fill:#ffffff;"/>
  </g>
  <g id="axes_1">
   <g id="patch_2">
    <path d="M 57.6 307.584 
L 414.72 307.584 
L 414.72 41.472 
L 57.6 41.472 
z
" style="fill:#ffffff;"/>
   </g>
   <g id="matplotlib.axis_1">
    <g id="xtick_1">
     <g id="line2d_1">
      <path clip-path="url(#p48857ede9d)" d="M 61.612584 307.584 
L 61.612584 41.472 
" style="fill:none;stroke:#b0b0b0;stroke-dasharray:5.12,1.28,0.8,1.28;stroke-dashoffset:0;stroke-width:0.8;"/>
     </g>
     <g id="line2d_2">
      <defs>
       <path d="M 0 0 
L 0 3.5 
" id="m465c2d95fc" style="stroke:#000000;stroke-width:0.8;"/>
      </defs>
      <g>
       <use style="stroke:#000000;stroke-width:0.8;" x="61.612584" xlink:href="#m465c2d95fc" y="307.584"/>
      </g>
     </g>
     <g id="text_1">
      <!-- 1 -->
      <defs>
       <path d="M 12.40625 8.296875 
L 28.515625 8.296875 
L 28.515625 63.921875 
L 10.984375 60.40625 
L 10.984375 69.390625 
L 28.421875 72.90625 
L 38.28125 72.90625 
L 38.28125 8.296875 
L 54.390625 8.296875 
L 54.390625 0 
L 12.40625 0 
z
" id="DejaVuSans-49"/>
      </defs>
      <g transform="translate(58.431334 322.182437)scale(0.1 -0.1)">
       <use xlink:href="#DejaVuSans-49"/>
      </g>
     </g>
    </g>
    <g id="xtick_2">
     <g id="line2d_3">
      <path clip-path="url(#p48857ede9d)" d="M 73.650337 307.584 
L 73.650337 41.472 
" style="fill:none;stroke:#b0b0b0;stroke-dasharray:5.12,1.28,0.8,1.28;stroke-dashoffset:0;stroke-width:0.8;"/>
     </g>
     <g id="line2d_4">
      <g>
       <use style="stroke:#000000;stroke-width:0.8;" x="73.650337" xlink:href="#m465c2d95fc" y="307.584"/>
      </g>
     </g>
     <g id="text_2">
      <!-- 4 -->
      <defs>
       <path d="M 37.796875 64.3125 
L 12.890625 25.390625 
L 37.796875 25.390625 
z
M 35.203125 72.90625 
L 47.609375 72.90625 
L 47.609375 25.390625 
L 58.015625 25.390625 
L 58.015625 17.1875 
L 47.609375 17.1875 
L 47.609375 0 
L 37.796875 0 
L 37.796875 17.1875 
L 4.890625 17.1875 
L 4.890625 26.703125 
z
" id="DejaVuSans-52"/>
      </defs>
      <g transform="translate(70.469087 322.182437)scale(0.1 -0.1)">
       <use xlink:href="#DejaVuSans-52"/>
      </g>
     </g>
    </g>
    <g id="xtick_3">
     <g id="line2d_5">
      <path clip-path="url(#p48857ede9d)" d="M 89.700674 307.584 
L 89.700674 41.472 
" style="fill:none;stroke:#b0b0b0;stroke-dasharray:5.12,1.28,0.8,1.28;stroke-dashoffset:0;stroke-width:0.8;"/>
     </g>
     <g id="line2d_6">
      <g>
       <use style="stroke:#000000;stroke-width:0.8;" x="89.700674" xlink:href="#m465c2d95fc" y="307.584"/>
      </g>
     </g>
     <g id="text_3">
      <!-- 8 -->
      <defs>
       <path d="M 31.78125 34.625 
Q 24.75 34.625 20.71875 30.859375 
Q 16.703125 27.09375 16.703125 20.515625 
Q 16.703125 13.921875 20.71875 10.15625 
Q 24.75 6.390625 31.78125 6.390625 
Q 38.8125 6.390625 42.859375 10.171875 
Q 46.921875 13.96875 46.921875 20.515625 
Q 46.921875 27.09375 42.890625 30.859375 
Q 38.875 34.625 31.78125 34.625 
z
M 21.921875 38.8125 
Q 15.578125 40.375 12.03125 44.71875 
Q 8.5 49.078125 8.5 55.328125 
Q 8.5 64.0625 14.71875 69.140625 
Q 20.953125 74.21875 31.78125 74.21875 
Q 42.671875 74.21875 48.875 69.140625 
Q 55.078125 64.0625 55.078125 55.328125 
Q 55.078125 49.078125 51.53125 44.71875 
Q 48 40.375 41.703125 38.8125 
Q 48.828125 37.15625 52.796875 32.3125 
Q 56.78125 27.484375 56.78125 20.515625 
Q 56.78125 9.90625 50.3125 4.234375 
Q 43.84375 -1.421875 31.78125 -1.421875 
Q 19.734375 -1.421875 13.25 4.234375 
Q 6.78125 9.90625 6.78125 20.515625 
Q 6.78125 27.484375 10.78125 32.3125 
Q 14.796875 37.15625 21.921875 38.8125 
z
M 18.3125 54.390625 
Q 18.3125 48.734375 21.84375 45.5625 
Q 25.390625 42.390625 31.78125 42.390625 
Q 38.140625 42.390625 41.71875 45.5625 
Q 45.3125 48.734375 45.3125 54.390625 
Q 45.3125 60.0625 41.71875 63.234375 
Q 38.140625 66.40625 31.78125 66.40625 
Q 25.390625 66.40625 21.84375 63.234375 
Q 18.3125 60.0625 18.3125 54.390625 
z
" id="DejaVuSans-56"/>
      </defs>
      <g transform="translate(86.519424 322.182437)scale(0.1 -0.1)">
       <use xlink:href="#DejaVuSans-56"/>
      </g>
     </g>
    </g>
    <g id="xtick_4">
     <g id="line2d_7">
      <path clip-path="url(#p48857ede9d)" d="M 105.751011 307.584 
L 105.751011 41.472 
" style="fill:none;stroke:#b0b0b0;stroke-dasharray:5.12,1.28,0.8,1.28;stroke-dashoffset:0;stroke-width:0.8;"/>
     </g>
     <g id="line2d_8">
      <g>
       <use style="stroke:#000000;stroke-width:0.8;" x="105.751011" xlink:href="#m465c2d95fc" y="307.584"/>
      </g>
     </g>
     <g id="text_4">
      <!-- 12 -->
      <defs>
       <path d="M 19.1875 8.296875 
L 53.609375 8.296875 
L 53.609375 0 
L 7.328125 0 
L 7.328125 8.296875 
Q 12.9375 14.109375 22.625 23.890625 
Q 32.328125 33.6875 34.8125 36.53125 
Q 39.546875 41.84375 41.421875 45.53125 
Q 43.3125 49.21875 43.3125 52.78125 
Q 43.3125 58.59375 39.234375 62.25 
Q 35.15625 65.921875 28.609375 65.921875 
Q 23.96875 65.921875 18.8125 64.3125 
Q 13.671875 62.703125 7.8125 59.421875 
L 7.8125 69.390625 
Q 13.765625 71.78125 18.9375 73 
Q 24.125 74.21875 28.421875 74.21875 
Q 39.75 74.21875 46.484375 68.546875 
Q 53.21875 62.890625 53.21875 53.421875 
Q 53.21875 48.921875 51.53125 44.890625 
Q 49.859375 40.875 45.40625 35.40625 
Q 44.1875 33.984375 37.640625 27.21875 
Q 31.109375 20.453125 19.1875 8.296875 
z
" id="DejaVuSans-50"/>
      </defs>
      <g transform="translate(99.388511 322.182437)scale(0.1 -0.1)">
       <use xlink:href="#DejaVuSans-49"/>
       <use x="63.623047" xlink:href="#DejaVuSans-50"/>
      </g>
     </g>
    </g>
    <g id="xtick_5">
     <g id="line2d_9">
      <path clip-path="url(#p48857ede9d)" d="M 121.801348 307.584 
L 121.801348 41.472 
" style="fill:none;stroke:#b0b0b0;stroke-dasharray:5.12,1.28,0.8,1.28;stroke-dashoffset:0;stroke-width:0.8;"/>
     </g>
     <g id="line2d_10">
      <g>
       <use style="stroke:#000000;stroke-width:0.8;" x="121.801348" xlink:href="#m465c2d95fc" y="307.584"/>
      </g>
     </g>
     <g id="text_5">
      <!-- 16 -->
      <defs>
       <path d="M 33.015625 40.375 
Q 26.375 40.375 22.484375 35.828125 
Q 18.609375 31.296875 18.609375 23.390625 
Q 18.609375 15.53125 22.484375 10.953125 
Q 26.375 6.390625 33.015625 6.390625 
Q 39.65625 6.390625 43.53125 10.953125 
Q 47.40625 15.53125 47.40625 23.390625 
Q 47.40625 31.296875 43.53125 35.828125 
Q 39.65625 40.375 33.015625 40.375 
z
M 52.59375 71.296875 
L 52.59375 62.3125 
Q 48.875 64.0625 45.09375 64.984375 
Q 41.3125 65.921875 37.59375 65.921875 
Q 27.828125 65.921875 22.671875 59.328125 
Q 17.53125 52.734375 16.796875 39.40625 
Q 19.671875 43.65625 24.015625 45.921875 
Q 28.375 48.1875 33.59375 48.1875 
Q 44.578125 48.1875 50.953125 41.515625 
Q 57.328125 34.859375 57.328125 23.390625 
Q 57.328125 12.15625 50.6875 5.359375 
Q 44.046875 -1.421875 33.015625 -1.421875 
Q 20.359375 -1.421875 13.671875 8.265625 
Q 6.984375 17.96875 6.984375 36.375 
Q 6.984375 53.65625 15.1875 63.9375 
Q 23.390625 74.21875 37.203125 74.21875 
Q 40.921875 74.21875 44.703125 73.484375 
Q 48.484375 72.75 52.59375 71.296875 
z
" id="DejaVuSans-54"/>
      </defs>
      <g transform="translate(115.438848 322.182437)scale(0.1 -0.1)">
       <use xlink:href="#DejaVuSans-49"/>
       <use x="63.623047" xlink:href="#DejaVuSans-54"/>
      </g>
     </g>
    </g>
    <g id="xtick_6">
     <g id="line2d_11">
      <path clip-path="url(#p48857ede9d)" d="M 137.851685 307.584 
L 137.851685 41.472 
" style="fill:none;stroke:#b0b0b0;stroke-dasharray:5.12,1.28,0.8,1.28;stroke-dashoffset:0;stroke-width:0.8;"/>
     </g>
     <g id="line2d_12">
      <g>
       <use style="stroke:#000000;stroke-width:0.8;" x="137.851685" xlink:href="#m465c2d95fc" y="307.584"/>
      </g>
     </g>
     <g id="text_6">
      <!-- 20 -->
      <defs>
       <path d="M 31.78125 66.40625 
Q 24.171875 66.40625 20.328125 58.90625 
Q 16.5 51.421875 16.5 36.375 
Q 16.5 21.390625 20.328125 13.890625 
Q 24.171875 6.390625 31.78125 6.390625 
Q 39.453125 6.390625 43.28125 13.890625 
Q 47.125 21.390625 47.125 36.375 
Q 47.125 51.421875 43.28125 58.90625 
Q 39.453125 66.40625 31.78125 66.40625 
z
M 31.78125 74.21875 
Q 44.046875 74.21875 50.515625 64.515625 
Q 56.984375 54.828125 56.984375 36.375 
Q 56.984375 17.96875 50.515625 8.265625 
Q 44.046875 -1.421875 31.78125 -1.421875 
Q 19.53125 -1.421875 13.0625 8.265625 
Q 6.59375 17.96875 6.59375 36.375 
Q 6.59375 54.828125 13.0625 64.515625 
Q 19.53125 74.21875 31.78125 74.21875 
z
" id="DejaVuSans-48"/>
      </defs>
      <g transform="translate(131.489185 322.182437)scale(0.1 -0.1)">
       <use xlink:href="#DejaVuSans-50"/>
       <use x="63.623047" xlink:href="#DejaVuSans-48"/>
      </g>
     </g>
    </g>
    <g id="xtick_7">
     <g id="line2d_13">
      <path clip-path="url(#p48857ede9d)" d="M 153.902022 307.584 
L 153.902022 41.472 
" style="fill:none;stroke:#b0b0b0;stroke-dasharray:5.12,1.28,0.8,1.28;stroke-dashoffset:0;stroke-width:0.8;"/>
     </g>
     <g id="line2d_14">
      <g>
       <use style="stroke:#000000;stroke-width:0.8;" x="153.902022" xlink:href="#m465c2d95fc" y="307.584"/>
      </g>
     </g>
     <g id="text_7">
      <!-- 24 -->
      <g transform="translate(147.539522 322.182437)scale(0.1 -0.1)">
       <use xlink:href="#DejaVuSans-50"/>
       <use x="63.623047" xlink:href="#DejaVuSans-52"/>
      </g>
     </g>
    </g>
    <g id="xtick_8">
     <g id="line2d_15">
      <path clip-path="url(#p48857ede9d)" d="M 169.95236 307.584 
L 169.95236 41.472 
" style="fill:none;stroke:#b0b0b0;stroke-dasharray:5.12,1.28,0.8,1.28;stroke-dashoffset:0;stroke-width:0.8;"/>
     </g>
     <g id="line2d_16">
      <g>
       <use style="stroke:#000000;stroke-width:0.8;" x="169.95236" xlink:href="#m465c2d95fc" y="307.584"/>
      </g>
     </g>
     <g id="text_8">
      <!-- 28 -->
      <g transform="translate(163.58986 322.182437)scale(0.1 -0.1)">
       <use xlink:href="#DejaVuSans-50"/>
       <use x="63.623047" xlink:href="#DejaVuSans-56"/>
      </g>
     </g>
    </g>
    <g id="xtick_9">
     <g id="line2d_17">
      <path clip-path="url(#p48857ede9d)" d="M 186.002697 307.584 
L 186.002697 41.472 
" style="fill:none;stroke:#b0b0b0;stroke-dasharray:5.12,1.28,0.8,1.28;stroke-dashoffset:0;stroke-width:0.8;"/>
     </g>
     <g id="line2d_18">
      <g>
       <use style="stroke:#000000;stroke-width:0.8;" x="186.002697" xlink:href="#m465c2d95fc" y="307.584"/>
      </g>
     </g>
     <g id="text_9">
      <!-- 32 -->
      <defs>
       <path d="M 40.578125 39.3125 
Q 47.65625 37.796875 51.625 33 
Q 55.609375 28.21875 55.609375 21.1875 
Q 55.609375 10.40625 48.1875 4.484375 
Q 40.765625 -1.421875 27.09375 -1.421875 
Q 22.515625 -1.421875 17.65625 -0.515625 
Q 12.796875 0.390625 7.625 2.203125 
L 7.625 11.71875 
Q 11.71875 9.328125 16.59375 8.109375 
Q 21.484375 6.890625 26.8125 6.890625 
Q 36.078125 6.890625 40.9375 10.546875 
Q 45.796875 14.203125 45.796875 21.1875 
Q 45.796875 27.640625 41.28125 31.265625 
Q 36.765625 34.90625 28.71875 34.90625 
L 20.21875 34.90625 
L 20.21875 43.015625 
L 29.109375 43.015625 
Q 36.375 43.015625 40.234375 45.921875 
Q 44.09375 48.828125 44.09375 54.296875 
Q 44.09375 59.90625 40.109375 62.90625 
Q 36.140625 65.921875 28.71875 65.921875 
Q 24.65625 65.921875 20.015625 65.03125 
Q 15.375 64.15625 9.8125 62.3125 
L 9.8125 71.09375 
Q 15.4375 72.65625 20.34375 73.4375 
Q 25.25 74.21875 29.59375 74.21875 
Q 40.828125 74.21875 47.359375 69.109375 
Q 53.90625 64.015625 53.90625 55.328125 
Q 53.90625 49.265625 50.4375 45.09375 
Q 46.96875 40.921875 40.578125 39.3125 
z
" id="DejaVuSans-51"/>
      </defs>
      <g transform="translate(179.640197 322.182437)scale(0.1 -0.1)">
       <use xlink:href="#DejaVuSans-51"/>
       <use x="63.623047" xlink:href="#DejaVuSans-50"/>
      </g>
     </g>
    </g>
    <g id="xtick_10">
     <g id="line2d_19">
      <path clip-path="url(#p48857ede9d)" d="M 202.053034 307.584 
L 202.053034 41.472 
" style="fill:none;stroke:#b0b0b0;stroke-dasharray:5.12,1.28,0.8,1.28;stroke-dashoffset:0;stroke-width:0.8;"/>
     </g>
     <g id="line2d_20">
      <g>
       <use style="stroke:#000000;stroke-width:0.8;" x="202.053034" xlink:href="#m465c2d95fc" y="307.584"/>
      </g>
     </g>
     <g id="text_10">
      <!-- 36 -->
      <g transform="translate(195.690534 322.182437)scale(0.1 -0.1)">
       <use xlink:href="#DejaVuSans-51"/>
       <use x="63.623047" xlink:href="#DejaVuSans-54"/>
      </g>
     </g>
    </g>
    <g id="xtick_11">
     <g id="line2d_21">
      <path clip-path="url(#p48857ede9d)" d="M 218.103371 307.584 
L 218.103371 41.472 
" style="fill:none;stroke:#b0b0b0;stroke-dasharray:5.12,1.28,0.8,1.28;stroke-dashoffset:0;stroke-width:0.8;"/>
     </g>
     <g id="line2d_22">
      <g>
       <use style="stroke:#000000;stroke-width:0.8;" x="218.103371" xlink:href="#m465c2d95fc" y="307.584"/>
      </g>
     </g>
     <g id="text_11">
      <!-- 40 -->
      <g transform="translate(211.740871 322.182437)scale(0.1 -0.1)">
       <use xlink:href="#DejaVuSans-52"/>
       <use x="63.623047" xlink:href="#DejaVuSans-48"/>
      </g>
     </g>
    </g>
    <g id="xtick_12">
     <g id="line2d_23">
      <path clip-path="url(#p48857ede9d)" d="M 234.153708 307.584 
L 234.153708 41.472 
" style="fill:none;stroke:#b0b0b0;stroke-dasharray:5.12,1.28,0.8,1.28;stroke-dashoffset:0;stroke-width:0.8;"/>
     </g>
     <g id="line2d_24">
      <g>
       <use style="stroke:#000000;stroke-width:0.8;" x="234.153708" xlink:href="#m465c2d95fc" y="307.584"/>
      </g>
     </g>
     <g id="text_12">
      <!-- 44 -->
      <g transform="translate(227.791208 322.182437)scale(0.1 -0.1)">
       <use xlink:href="#DejaVuSans-52"/>
       <use x="63.623047" xlink:href="#DejaVuSans-52"/>
      </g>
     </g>
    </g>
    <g id="xtick_13">
     <g id="line2d_25">
      <path clip-path="url(#p48857ede9d)" d="M 250.204045 307.584 
L 250.204045 41.472 
" style="fill:none;stroke:#b0b0b0;stroke-dasharray:5.12,1.28,0.8,1.28;stroke-dashoffset:0;stroke-width:0.8;"/>
     </g>
     <g id="line2d_26">
      <g>
       <use style="stroke:#000000;stroke-width:0.8;" x="250.204045" xlink:href="#m465c2d95fc" y="307.584"/>
      </g>
     </g>
     <g id="text_13">
      <!-- 48 -->
      <g transform="translate(243.841545 322.182437)scale(0.1 -0.1)">
       <use xlink:href="#DejaVuSans-52"/>
       <use x="63.623047" xlink:href="#DejaVuSans-56"/>
      </g>
     </g>
    </g>
    <g id="xtick_14">
     <g id="line2d_27">
      <path clip-path="url(#p48857ede9d)" d="M 266.254382 307.584 
L 266.254382 41.472 
" style="fill:none;stroke:#b0b0b0;stroke-dasharray:5.12,1.28,0.8,1.28;stroke-dashoffset:0;stroke-width:0.8;"/>
     </g>
     <g id="line2d_28">
      <g>
       <use style="stroke:#000000;stroke-width:0.8;" x="266.254382" xlink:href="#m465c2d95fc" y="307.584"/>
      </g>
     </g>
     <g id="text_14">
      <!-- 52 -->
      <defs>
       <path d="M 10.796875 72.90625 
L 49.515625 72.90625 
L 49.515625 64.59375 
L 19.828125 64.59375 
L 19.828125 46.734375 
Q 21.96875 47.46875 24.109375 47.828125 
Q 26.265625 48.1875 28.421875 48.1875 
Q 40.625 48.1875 47.75 41.5 
Q 54.890625 34.8125 54.890625 23.390625 
Q 54.890625 11.625 47.5625 5.09375 
Q 40.234375 -1.421875 26.90625 -1.421875 
Q 22.3125 -1.421875 17.546875 -0.640625 
Q 12.796875 0.140625 7.71875 1.703125 
L 7.71875 11.625 
Q 12.109375 9.234375 16.796875 8.0625 
Q 21.484375 6.890625 26.703125 6.890625 
Q 35.15625 6.890625 40.078125 11.328125 
Q 45.015625 15.765625 45.015625 23.390625 
Q 45.015625 31 40.078125 35.4375 
Q 35.15625 39.890625 26.703125 39.890625 
Q 22.75 39.890625 18.8125 39.015625 
Q 14.890625 38.140625 10.796875 36.28125 
z
" id="DejaVuSans-53"/>
      </defs>
      <g transform="translate(259.891882 322.182437)scale(0.1 -0.1)">
       <use xlink:href="#DejaVuSans-53"/>
       <use x="63.623047" xlink:href="#DejaVuSans-50"/>
      </g>
     </g>
    </g>
    <g id="xtick_15">
     <g id="line2d_29">
      <path clip-path="url(#p48857ede9d)" d="M 282.304719 307.584 
L 282.304719 41.472 
" style="fill:none;stroke:#b0b0b0;stroke-dasharray:5.12,1.28,0.8,1.28;stroke-dashoffset:0;stroke-width:0.8;"/>
     </g>
     <g id="line2d_30">
      <g>
       <use style="stroke:#000000;stroke-width:0.8;" x="282.304719" xlink:href="#m465c2d95fc" y="307.584"/>
      </g>
     </g>
     <g id="text_15">
      <!-- 56 -->
      <g transform="translate(275.942219 322.182437)scale(0.1 -0.1)">
       <use xlink:href="#DejaVuSans-53"/>
       <use x="63.623047" xlink:href="#DejaVuSans-54"/>
      </g>
     </g>
    </g>
    <g id="xtick_16">
     <g id="line2d_31">
      <path clip-path="url(#p48857ede9d)" d="M 298.355056 307.584 
L 298.355056 41.472 
" style="fill:none;stroke:#b0b0b0;stroke-dasharray:5.12,1.28,0.8,1.28;stroke-dashoffset:0;stroke-width:0.8;"/>
     </g>
     <g id="line2d_32">
      <g>
       <use style="stroke:#000000;stroke-width:0.8;" x="298.355056" xlink:href="#m465c2d95fc" y="307.584"/>
      </g>
     </g>
     <g id="text_16">
      <!-- 60 -->
      <g transform="translate(291.992556 322.182437)scale(0.1 -0.1)">
       <use xlink:href="#DejaVuSans-54"/>
       <use x="63.623047" xlink:href="#DejaVuSans-48"/>
      </g>
     </g>
    </g>
    <g id="xtick_17">
     <g id="line2d_33">
      <path clip-path="url(#p48857ede9d)" d="M 314.405393 307.584 
L 314.405393 41.472 
" style="fill:none;stroke:#b0b0b0;stroke-dasharray:5.12,1.28,0.8,1.28;stroke-dashoffset:0;stroke-width:0.8;"/>
     </g>
     <g id="line2d_34">
      <g>
       <use style="stroke:#000000;stroke-width:0.8;" x="314.405393" xlink:href="#m465c2d95fc" y="307.584"/>
      </g>
     </g>
     <g id="text_17">
      <!-- 64 -->
      <g transform="translate(308.042893 322.182437)scale(0.1 -0.1)">
       <use xlink:href="#DejaVuSans-54"/>
       <use x="63.623047" xlink:href="#DejaVuSans-52"/>
      </g>
     </g>
    </g>
    <g id="xtick_18">
     <g id="line2d_35">
      <path clip-path="url(#p48857ede9d)" d="M 330.45573 307.584 
L 330.45573 41.472 
" style="fill:none;stroke:#b0b0b0;stroke-dasharray:5.12,1.28,0.8,1.28;stroke-dashoffset:0;stroke-width:0.8;"/>
     </g>
     <g id="line2d_36">
      <g>
       <use style="stroke:#000000;stroke-width:0.8;" x="330.45573" xlink:href="#m465c2d95fc" y="307.584"/>
      </g>
     </g>
     <g id="text_18">
      <!-- 68 -->
      <g transform="translate(324.09323 322.182437)scale(0.1 -0.1)">
       <use xlink:href="#DejaVuSans-54"/>
       <use x="63.623047" xlink:href="#DejaVuSans-56"/>
      </g>
     </g>
    </g>
    <g id="xtick_19">
     <g id="line2d_37">
      <path clip-path="url(#p48857ede9d)" d="M 346.506067 307.584 
L 346.506067 41.472 
" style="fill:none;stroke:#b0b0b0;stroke-dasharray:5.12,1.28,0.8,1.28;stroke-dashoffset:0;stroke-width:0.8;"/>
     </g>
     <g id="line2d_38">
      <g>
       <use style="stroke:#000000;stroke-width:0.8;" x="346.506067" xlink:href="#m465c2d95fc" y="307.584"/>
      </g>
     </g>
     <g id="text_19">
      <!-- 72 -->
      <defs>
       <path d="M 8.203125 72.90625 
L 55.078125 72.90625 
L 55.078125 68.703125 
L 28.609375 0 
L 18.3125 0 
L 43.21875 64.59375 
L 8.203125 64.59375 
z
" id="DejaVuSans-55"/>
      </defs>
      <g transform="translate(340.143567 322.182437)scale(0.1 -0.1)">
       <use xlink:href="#DejaVuSans-55"/>
       <use x="63.623047" xlink:href="#DejaVuSans-50"/>
      </g>
     </g>
    </g>
    <g id="xtick_20">
     <g id="line2d_39">
      <path clip-path="url(#p48857ede9d)" d="M 362.556404 307.584 
L 362.556404 41.472 
" style="fill:none;stroke:#b0b0b0;stroke-dasharray:5.12,1.28,0.8,1.28;stroke-dashoffset:0;stroke-width:0.8;"/>
     </g>
     <g id="line2d_40">
      <g>
       <use style="stroke:#000000;stroke-width:0.8;" x="362.556404" xlink:href="#m465c2d95fc" y="307.584"/>
      </g>
     </g>
     <g id="text_20">
      <!-- 76 -->
      <g transform="translate(356.193904 322.182437)scale(0.1 -0.1)">
       <use xlink:href="#DejaVuSans-55"/>
       <use x="63.623047" xlink:href="#DejaVuSans-54"/>
      </g>
     </g>
    </g>
    <g id="xtick_21">
     <g id="line2d_41">
      <path clip-path="url(#p48857ede9d)" d="M 378.606742 307.584 
L 378.606742 41.472 
" style="fill:none;stroke:#b0b0b0;stroke-dasharray:5.12,1.28,0.8,1.28;stroke-dashoffset:0;stroke-width:0.8;"/>
     </g>
     <g id="line2d_42">
      <g>
       <use style="stroke:#000000;stroke-width:0.8;" x="378.606742" xlink:href="#m465c2d95fc" y="307.584"/>
      </g>
     </g>
     <g id="text_21">
      <!-- 80 -->
      <g transform="translate(372.244242 322.182437)scale(0.1 -0.1)">
       <use xlink:href="#DejaVuSans-56"/>
       <use x="63.623047" xlink:href="#DejaVuSans-48"/>
      </g>
     </g>
    </g>
    <g id="xtick_22">
     <g id="line2d_43">
      <path clip-path="url(#p48857ede9d)" d="M 394.657079 307.584 
L 394.657079 41.472 
" style="fill:none;stroke:#b0b0b0;stroke-dasharray:5.12,1.28,0.8,1.28;stroke-dashoffset:0;stroke-width:0.8;"/>
     </g>
     <g id="line2d_44">
      <g>
       <use style="stroke:#000000;stroke-width:0.8;" x="394.657079" xlink:href="#m465c2d95fc" y="307.584"/>
      </g>
     </g>
     <g id="text_22">
      <!-- 84 -->
      <g transform="translate(388.294579 322.182437)scale(0.1 -0.1)">
       <use xlink:href="#DejaVuSans-56"/>
       <use x="63.623047" xlink:href="#DejaVuSans-52"/>
      </g>
     </g>
    </g>
    <g id="xtick_23">
     <g id="line2d_45">
      <path clip-path="url(#p48857ede9d)" d="M 410.707416 307.584 
L 410.707416 41.472 
" style="fill:none;stroke:#b0b0b0;stroke-dasharray:5.12,1.28,0.8,1.28;stroke-dashoffset:0;stroke-width:0.8;"/>
     </g>
     <g id="line2d_46">
      <g>
       <use style="stroke:#000000;stroke-width:0.8;" x="410.707416" xlink:href="#m465c2d95fc" y="307.584"/>
      </g>
     </g>
     <g id="text_23">
      <!-- 88 -->
      <g transform="translate(404.344916 322.182437)scale(0.1 -0.1)">
       <use xlink:href="#DejaVuSans-56"/>
       <use x="63.623047" xlink:href="#DejaVuSans-56"/>
      </g>
     </g>
    </g>
    <g id="text_24">
     <!-- threads -->
     <defs>
      <path d="M 18.3125 70.21875 
L 18.3125 54.6875 
L 36.8125 54.6875 
L 36.8125 47.703125 
L 18.3125 47.703125 
L 18.3125 18.015625 
Q 18.3125 11.328125 20.140625 9.421875 
Q 21.96875 7.515625 27.59375 7.515625 
L 36.8125 7.515625 
L 36.8125 0 
L 27.59375 0 
Q 17.1875 0 13.234375 3.875 
Q 9.28125 7.765625 9.28125 18.015625 
L 9.28125 47.703125 
L 2.6875 47.703125 
L 2.6875 54.6875 
L 9.28125 54.6875 
L 9.28125 70.21875 
z
" id="DejaVuSans-116"/>
      <path d="M 54.890625 33.015625 
L 54.890625 0 
L 45.90625 0 
L 45.90625 32.71875 
Q 45.90625 40.484375 42.875 44.328125 
Q 39.84375 48.1875 33.796875 48.1875 
Q 26.515625 48.1875 22.3125 43.546875 
Q 18.109375 38.921875 18.109375 30.90625 
L 18.109375 0 
L 9.078125 0 
L 9.078125 75.984375 
L 18.109375 75.984375 
L 18.109375 46.1875 
Q 21.34375 51.125 25.703125 53.5625 
Q 30.078125 56 35.796875 56 
Q 45.21875 56 50.046875 50.171875 
Q 54.890625 44.34375 54.890625 33.015625 
z
" id="DejaVuSans-104"/>
      <path d="M 41.109375 46.296875 
Q 39.59375 47.171875 37.8125 47.578125 
Q 36.03125 48 33.890625 48 
Q 26.265625 48 22.1875 43.046875 
Q 18.109375 38.09375 18.109375 28.8125 
L 18.109375 0 
L 9.078125 0 
L 9.078125 54.6875 
L 18.109375 54.6875 
L 18.109375 46.1875 
Q 20.953125 51.171875 25.484375 53.578125 
Q 30.03125 56 36.53125 56 
Q 37.453125 56 38.578125 55.875 
Q 39.703125 55.765625 41.0625 55.515625 
z
" id="DejaVuSans-114"/>
      <path d="M 56.203125 29.59375 
L 56.203125 25.203125 
L 14.890625 25.203125 
Q 15.484375 15.921875 20.484375 11.0625 
Q 25.484375 6.203125 34.421875 6.203125 
Q 39.59375 6.203125 44.453125 7.46875 
Q 49.3125 8.734375 54.109375 11.28125 
L 54.109375 2.78125 
Q 49.265625 0.734375 44.1875 -0.34375 
Q 39.109375 -1.421875 33.890625 -1.421875 
Q 20.796875 -1.421875 13.15625 6.1875 
Q 5.515625 13.8125 5.515625 26.8125 
Q 5.515625 40.234375 12.765625 48.109375 
Q 20.015625 56 32.328125 56 
Q 43.359375 56 49.78125 48.890625 
Q 56.203125 41.796875 56.203125 29.59375 
z
M 47.21875 32.234375 
Q 47.125 39.59375 43.09375 43.984375 
Q 39.0625 48.390625 32.421875 48.390625 
Q 24.90625 48.390625 20.390625 44.140625 
Q 15.875 39.890625 15.1875 32.171875 
z
" id="DejaVuSans-101"/>
      <path d="M 34.28125 27.484375 
Q 23.390625 27.484375 19.1875 25 
Q 14.984375 22.515625 14.984375 16.5 
Q 14.984375 11.71875 18.140625 8.90625 
Q 21.296875 6.109375 26.703125 6.109375 
Q 34.1875 6.109375 38.703125 11.40625 
Q 43.21875 16.703125 43.21875 25.484375 
L 43.21875 27.484375 
z
M 52.203125 31.203125 
L 52.203125 0 
L 43.21875 0 
L 43.21875 8.296875 
Q 40.140625 3.328125 35.546875 0.953125 
Q 30.953125 -1.421875 24.3125 -1.421875 
Q 15.921875 -1.421875 10.953125 3.296875 
Q 6 8.015625 6 15.921875 
Q 6 25.140625 12.171875 29.828125 
Q 18.359375 34.515625 30.609375 34.515625 
L 43.21875 34.515625 
L 43.21875 35.40625 
Q 43.21875 41.609375 39.140625 45 
Q 35.0625 48.390625 27.6875 48.390625 
Q 23 48.390625 18.546875 47.265625 
Q 14.109375 46.140625 10.015625 43.890625 
L 10.015625 52.203125 
Q 14.9375 54.109375 19.578125 55.046875 
Q 24.21875 56 28.609375 56 
Q 40.484375 56 46.34375 49.84375 
Q 52.203125 43.703125 52.203125 31.203125 
z
" id="DejaVuSans-97"/>
      <path d="M 45.40625 46.390625 
L 45.40625 75.984375 
L 54.390625 75.984375 
L 54.390625 0 
L 45.40625 0 
L 45.40625 8.203125 
Q 42.578125 3.328125 38.25 0.953125 
Q 33.9375 -1.421875 27.875 -1.421875 
Q 17.96875 -1.421875 11.734375 6.484375 
Q 5.515625 14.40625 5.515625 27.296875 
Q 5.515625 40.1875 11.734375 48.09375 
Q 17.96875 56 27.875 56 
Q 33.9375 56 38.25 53.625 
Q 42.578125 51.265625 45.40625 46.390625 
z
M 14.796875 27.296875 
Q 14.796875 17.390625 18.875 11.75 
Q 22.953125 6.109375 30.078125 6.109375 
Q 37.203125 6.109375 41.296875 11.75 
Q 45.40625 17.390625 45.40625 27.296875 
Q 45.40625 37.203125 41.296875 42.84375 
Q 37.203125 48.484375 30.078125 48.484375 
Q 22.953125 48.484375 18.875 42.84375 
Q 14.796875 37.203125 14.796875 27.296875 
z
" id="DejaVuSans-100"/>
      <path d="M 44.28125 53.078125 
L 44.28125 44.578125 
Q 40.484375 46.53125 36.375 47.5 
Q 32.28125 48.484375 27.875 48.484375 
Q 21.1875 48.484375 17.84375 46.4375 
Q 14.5 44.390625 14.5 40.28125 
Q 14.5 37.15625 16.890625 35.375 
Q 19.28125 33.59375 26.515625 31.984375 
L 29.59375 31.296875 
Q 39.15625 29.25 43.1875 25.515625 
Q 47.21875 21.78125 47.21875 15.09375 
Q 47.21875 7.46875 41.1875 3.015625 
Q 35.15625 -1.421875 24.609375 -1.421875 
Q 20.21875 -1.421875 15.453125 -0.5625 
Q 10.6875 0.296875 5.421875 2 
L 5.421875 11.28125 
Q 10.40625 8.6875 15.234375 7.390625 
Q 20.0625 6.109375 24.8125 6.109375 
Q 31.15625 6.109375 34.5625 8.28125 
Q 37.984375 10.453125 37.984375 14.40625 
Q 37.984375 18.0625 35.515625 20.015625 
Q 33.0625 21.96875 24.703125 23.78125 
L 21.578125 24.515625 
Q 13.234375 26.265625 9.515625 29.90625 
Q 5.8125 33.546875 5.8125 39.890625 
Q 5.8125 47.609375 11.28125 51.796875 
Q 16.75 56 26.8125 56 
Q 31.78125 56 36.171875 55.265625 
Q 40.578125 54.546875 44.28125 53.078125 
z
" id="DejaVuSans-115"/>
     </defs>
     <g transform="translate(217.168594 335.860562)scale(0.1 -0.1)">
      <use xlink:href="#DejaVuSans-116"/>
      <use x="39.208984" xlink:href="#DejaVuSans-104"/>
      <use x="102.587891" xlink:href="#DejaVuSans-114"/>
      <use x="141.451172" xlink:href="#DejaVuSans-101"/>
      <use x="202.974609" xlink:href="#DejaVuSans-97"/>
      <use x="264.253906" xlink:href="#DejaVuSans-100"/>
      <use x="327.730469" xlink:href="#DejaVuSans-115"/>
     </g>
    </g>
   </g>
   <g id="matplotlib.axis_2">
    <g id="ytick_1">
     <g id="line2d_47">
      <path clip-path="url(#p48857ede9d)" d="M 57.6 284.109926 
L 414.72 284.109926 
" style="fill:none;stroke:#b0b0b0;stroke-dasharray:5.12,1.28,0.8,1.28;stroke-dashoffset:0;stroke-width:0.8;"/>
     </g>
     <g id="line2d_48">
      <defs>
       <path d="M 0 0 
L -3.5 0 
" id="m50aa3a58fb" style="stroke:#000000;stroke-width:0.8;"/>
      </defs>
      <g>
       <use style="stroke:#000000;stroke-width:0.8;" x="57.6" xlink:href="#m50aa3a58fb" y="284.109926"/>
      </g>
     </g>
     <g id="text_25">
      <!-- 0.002 -->
      <defs>
       <path d="M 10.6875 12.40625 
L 21 12.40625 
L 21 0 
L 10.6875 0 
z
" id="DejaVuSans-46"/>
      </defs>
      <g transform="translate(21.971875 287.909144)scale(0.1 -0.1)">
       <use xlink:href="#DejaVuSans-48"/>
       <use x="63.623047" xlink:href="#DejaVuSans-46"/>
       <use x="95.410156" xlink:href="#DejaVuSans-48"/>
       <use x="159.033203" xlink:href="#DejaVuSans-48"/>
       <use x="222.65625" xlink:href="#DejaVuSans-50"/>
      </g>
     </g>
    </g>
    <g id="ytick_2">
     <g id="line2d_49">
      <path clip-path="url(#p48857ede9d)" d="M 57.6 244.901393 
L 414.72 244.901393 
" style="fill:none;stroke:#b0b0b0;stroke-dasharray:5.12,1.28,0.8,1.28;stroke-dashoffset:0;stroke-width:0.8;"/>
     </g>
     <g id="line2d_50">
      <g>
       <use style="stroke:#000000;stroke-width:0.8;" x="57.6" xlink:href="#m50aa3a58fb" y="244.901393"/>
      </g>
     </g>
     <g id="text_26">
      <!-- 0.004 -->
      <g transform="translate(21.971875 248.700612)scale(0.1 -0.1)">
       <use xlink:href="#DejaVuSans-48"/>
       <use x="63.623047" xlink:href="#DejaVuSans-46"/>
       <use x="95.410156" xlink:href="#DejaVuSans-48"/>
       <use x="159.033203" xlink:href="#DejaVuSans-48"/>
       <use x="222.65625" xlink:href="#DejaVuSans-52"/>
      </g>
     </g>
    </g>
    <g id="ytick_3">
     <g id="line2d_51">
      <path clip-path="url(#p48857ede9d)" d="M 57.6 205.69286 
L 414.72 205.69286 
" style="fill:none;stroke:#b0b0b0;stroke-dasharray:5.12,1.28,0.8,1.28;stroke-dashoffset:0;stroke-width:0.8;"/>
     </g>
     <g id="line2d_52">
      <g>
       <use style="stroke:#000000;stroke-width:0.8;" x="57.6" xlink:href="#m50aa3a58fb" y="205.69286"/>
      </g>
     </g>
     <g id="text_27">
      <!-- 0.006 -->
      <g transform="translate(21.971875 209.492079)scale(0.1 -0.1)">
       <use xlink:href="#DejaVuSans-48"/>
       <use x="63.623047" xlink:href="#DejaVuSans-46"/>
       <use x="95.410156" xlink:href="#DejaVuSans-48"/>
       <use x="159.033203" xlink:href="#DejaVuSans-48"/>
       <use x="222.65625" xlink:href="#DejaVuSans-54"/>
      </g>
     </g>
    </g>
    <g id="ytick_4">
     <g id="line2d_53">
      <path clip-path="url(#p48857ede9d)" d="M 57.6 166.484327 
L 414.72 166.484327 
" style="fill:none;stroke:#b0b0b0;stroke-dasharray:5.12,1.28,0.8,1.28;stroke-dashoffset:0;stroke-width:0.8;"/>
     </g>
     <g id="line2d_54">
      <g>
       <use style="stroke:#000000;stroke-width:0.8;" x="57.6" xlink:href="#m50aa3a58fb" y="166.484327"/>
      </g>
     </g>
     <g id="text_28">
      <!-- 0.008 -->
      <g transform="translate(21.971875 170.283546)scale(0.1 -0.1)">
       <use xlink:href="#DejaVuSans-48"/>
       <use x="63.623047" xlink:href="#DejaVuSans-46"/>
       <use x="95.410156" xlink:href="#DejaVuSans-48"/>
       <use x="159.033203" xlink:href="#DejaVuSans-48"/>
       <use x="222.65625" xlink:href="#DejaVuSans-56"/>
      </g>
     </g>
    </g>
    <g id="ytick_5">
     <g id="line2d_55">
      <path clip-path="url(#p48857ede9d)" d="M 57.6 127.275794 
L 414.72 127.275794 
" style="fill:none;stroke:#b0b0b0;stroke-dasharray:5.12,1.28,0.8,1.28;stroke-dashoffset:0;stroke-width:0.8;"/>
     </g>
     <g id="line2d_56">
      <g>
       <use style="stroke:#000000;stroke-width:0.8;" x="57.6" xlink:href="#m50aa3a58fb" y="127.275794"/>
      </g>
     </g>
     <g id="text_29">
      <!-- 0.010 -->
      <g transform="translate(21.971875 131.075013)scale(0.1 -0.1)">
       <use xlink:href="#DejaVuSans-48"/>
       <use x="63.623047" xlink:href="#DejaVuSans-46"/>
       <use x="95.410156" xlink:href="#DejaVuSans-48"/>
       <use x="159.033203" xlink:href="#DejaVuSans-49"/>
       <use x="222.65625" xlink:href="#DejaVuSans-48"/>
      </g>
     </g>
    </g>
    <g id="ytick_6">
     <g id="line2d_57">
      <path clip-path="url(#p48857ede9d)" d="M 57.6 88.067261 
L 414.72 88.067261 
" style="fill:none;stroke:#b0b0b0;stroke-dasharray:5.12,1.28,0.8,1.28;stroke-dashoffset:0;stroke-width:0.8;"/>
     </g>
     <g id="line2d_58">
      <g>
       <use style="stroke:#000000;stroke-width:0.8;" x="57.6" xlink:href="#m50aa3a58fb" y="88.067261"/>
      </g>
     </g>
     <g id="text_30">
      <!-- 0.012 -->
      <g transform="translate(21.971875 91.86648)scale(0.1 -0.1)">
       <use xlink:href="#DejaVuSans-48"/>
       <use x="63.623047" xlink:href="#DejaVuSans-46"/>
       <use x="95.410156" xlink:href="#DejaVuSans-48"/>
       <use x="159.033203" xlink:href="#DejaVuSans-49"/>
       <use x="222.65625" xlink:href="#DejaVuSans-50"/>
      </g>
     </g>
    </g>
    <g id="ytick_7">
     <g id="line2d_59">
      <path clip-path="url(#p48857ede9d)" d="M 57.6 48.858729 
L 414.72 48.858729 
" style="fill:none;stroke:#b0b0b0;stroke-dasharray:5.12,1.28,0.8,1.28;stroke-dashoffset:0;stroke-width:0.8;"/>
     </g>
     <g id="line2d_60">
      <g>
       <use style="stroke:#000000;stroke-width:0.8;" x="57.6" xlink:href="#m50aa3a58fb" y="48.858729"/>
      </g>
     </g>
     <g id="text_31">
      <!-- 0.014 -->
      <g transform="translate(21.971875 52.657947)scale(0.1 -0.1)">
       <use xlink:href="#DejaVuSans-48"/>
       <use x="63.623047" xlink:href="#DejaVuSans-46"/>
       <use x="95.410156" xlink:href="#DejaVuSans-48"/>
       <use x="159.033203" xlink:href="#DejaVuSans-49"/>
       <use x="222.65625" xlink:href="#DejaVuSans-52"/>
      </g>
     </g>
    </g>
    <g id="text_32">
     <!-- duration (s) -->
     <defs>
      <path d="M 8.5 21.578125 
L 8.5 54.6875 
L 17.484375 54.6875 
L 17.484375 21.921875 
Q 17.484375 14.15625 20.5 10.265625 
Q 23.53125 6.390625 29.59375 6.390625 
Q 36.859375 6.390625 41.078125 11.03125 
Q 45.3125 15.671875 45.3125 23.6875 
L 45.3125 54.6875 
L 54.296875 54.6875 
L 54.296875 0 
L 45.3125 0 
L 45.3125 8.40625 
Q 42.046875 3.421875 37.71875 1 
Q 33.40625 -1.421875 27.6875 -1.421875 
Q 18.265625 -1.421875 13.375 4.4375 
Q 8.5 10.296875 8.5 21.578125 
z
M 31.109375 56 
z
" id="DejaVuSans-117"/>
      <path d="M 9.421875 54.6875 
L 18.40625 54.6875 
L 18.40625 0 
L 9.421875 0 
z
M 9.421875 75.984375 
L 18.40625 75.984375 
L 18.40625 64.59375 
L 9.421875 64.59375 
z
" id="DejaVuSans-105"/>
      <path d="M 30.609375 48.390625 
Q 23.390625 48.390625 19.1875 42.75 
Q 14.984375 37.109375 14.984375 27.296875 
Q 14.984375 17.484375 19.15625 11.84375 
Q 23.34375 6.203125 30.609375 6.203125 
Q 37.796875 6.203125 41.984375 11.859375 
Q 46.1875 17.53125 46.1875 27.296875 
Q 46.1875 37.015625 41.984375 42.703125 
Q 37.796875 48.390625 30.609375 48.390625 
z
M 30.609375 56 
Q 42.328125 56 49.015625 48.375 
Q 55.71875 40.765625 55.71875 27.296875 
Q 55.71875 13.875 49.015625 6.21875 
Q 42.328125 -1.421875 30.609375 -1.421875 
Q 18.84375 -1.421875 12.171875 6.21875 
Q 5.515625 13.875 5.515625 27.296875 
Q 5.515625 40.765625 12.171875 48.375 
Q 18.84375 56 30.609375 56 
z
" id="DejaVuSans-111"/>
      <path d="M 54.890625 33.015625 
L 54.890625 0 
L 45.90625 0 
L 45.90625 32.71875 
Q 45.90625 40.484375 42.875 44.328125 
Q 39.84375 48.1875 33.796875 48.1875 
Q 26.515625 48.1875 22.3125 43.546875 
Q 18.109375 38.921875 18.109375 30.90625 
L 18.109375 0 
L 9.078125 0 
L 9.078125 54.6875 
L 18.109375 54.6875 
L 18.109375 46.1875 
Q 21.34375 51.125 25.703125 53.5625 
Q 30.078125 56 35.796875 56 
Q 45.21875 56 50.046875 50.171875 
Q 54.890625 44.34375 54.890625 33.015625 
z
" id="DejaVuSans-110"/>
      <path id="DejaVuSans-32"/>
      <path d="M 31 75.875 
Q 24.46875 64.65625 21.28125 53.65625 
Q 18.109375 42.671875 18.109375 31.390625 
Q 18.109375 20.125 21.3125 9.0625 
Q 24.515625 -2 31 -13.1875 
L 23.1875 -13.1875 
Q 15.875 -1.703125 12.234375 9.375 
Q 8.59375 20.453125 8.59375 31.390625 
Q 8.59375 42.28125 12.203125 53.3125 
Q 15.828125 64.359375 23.1875 75.875 
z
" id="DejaVuSans-40"/>
      <path d="M 8.015625 75.875 
L 15.828125 75.875 
Q 23.140625 64.359375 26.78125 53.3125 
Q 30.421875 42.28125 30.421875 31.390625 
Q 30.421875 20.453125 26.78125 9.375 
Q 23.140625 -1.703125 15.828125 -13.1875 
L 8.015625 -13.1875 
Q 14.5 -2 17.703125 9.0625 
Q 20.90625 20.125 20.90625 31.390625 
Q 20.90625 42.671875 17.703125 53.65625 
Q 14.5 64.65625 8.015625 75.875 
z
" id="DejaVuSans-41"/>
     </defs>
     <g transform="translate(15.892187 203.663156)rotate(-90)scale(0.1 -0.1)">
      <use xlink:href="#DejaVuSans-100"/>
      <use x="63.476562" xlink:href="#DejaVuSans-117"/>
      <use x="126.855469" xlink:href="#DejaVuSans-114"/>
      <use x="167.96875" xlink:href="#DejaVuSans-97"/>
      <use x="229.248047" xlink:href="#DejaVuSans-116"/>
      <use x="268.457031" xlink:href="#DejaVuSans-105"/>
      <use x="296.240234" xlink:href="#DejaVuSans-111"/>
      <use x="357.421875" xlink:href="#DejaVuSans-110"/>
      <use x="420.800781" xlink:href="#DejaVuSans-32"/>
      <use x="452.587891" xlink:href="#DejaVuSans-40"/>
      <use x="491.601562" xlink:href="#DejaVuSans-115"/>
      <use x="543.701172" xlink:href="#DejaVuSans-41"/>
     </g>
    </g>
   </g>
   <g id="line2d_61">
    <path clip-path="url(#p48857ede9d)" d="M 61.612584 53.568 
L 65.625169 163.708642 
L 69.637753 210.671873 
L 73.650337 236.680131 
L 77.662921 250.780986 
L 81.675506 260.285274 
L 85.68809 266.609893 
L 89.700674 273.042682 
L 93.713258 277.714032 
L 97.725843 280.017657 
L 101.738427 284.360491 
L 105.751011 285.902918 
L 109.763596 287.986196 
L 113.77618 287.14821 
L 117.788764 288.517031 
L 121.801348 289.562676 
L 125.813933 290.621676 
L 129.826517 290.397991 
L 133.839101 289.612087 
L 137.851685 291.335466 
L 141.86427 292.82314 
L 145.876854 292.996747 
L 149.889438 293.902839 
L 153.902022 293.730568 
L 157.914607 294.203312 
L 161.927191 292.648866 
L 165.939775 295.032617 
L 169.95236 293.985636 
L 173.964944 295.133442 
L 177.977528 293.269843 
L 181.990112 295.186192 
L 186.002697 294.18328 
L 190.015281 295.009914 
L 194.027865 293.840074 
L 198.040449 295.031949 
L 202.053034 293.854096 
L 206.065618 294.59593 
L 210.078202 295.488 
L 214.090787 294.858343 
L 218.103371 294.360225 
L 222.115955 294.105825 
L 226.128539 294.219337 
L 230.141124 294.231356 
L 234.153708 293.355311 
L 238.166292 293.385358 
L 242.178876 293.325931 
L 246.191461 292.542699 
L 250.204045 293.199065 
L 254.216629 293.341289 
L 258.229213 292.904602 
L 262.241798 292.79109 
L 266.254382 292.968702 
L 270.266966 293.249144 
L 274.279551 293.477503 
L 278.292135 291.931737 
L 282.304719 294.880377 
L 286.317303 294.210657 
L 290.329888 293.97562 
L 294.342472 294.187954 
L 298.355056 294.163917 
L 302.36764 294.39094 
L 306.380225 294.382928 
L 310.392809 294.043727 
L 314.405393 294.188622 
L 318.417978 293.801346 
L 322.430562 293.643765 
L 326.443146 293.820042 
L 330.45573 294.007671 
L 334.468315 294.08112 
L 338.480899 294.071772 
L 342.493483 293.65378 
L 346.506067 293.417409 
L 350.518652 293.265837 
L 354.531236 293.086888 
L 358.54382 293.088892 
L 362.556404 293.339953 
L 366.568989 293.457472 
L 370.581573 293.474832 
L 374.594157 294.264742 
L 378.606742 293.764622 
L 382.619326 293.724559 
L 386.63191 293.356646 
L 390.644494 293.198397 
L 394.657079 252.179854 
L 398.669663 292.815128 
L 402.682247 292.39914 
L 406.694831 290.072812 
L 410.707416 292.046585 
" style="fill:none;stroke:#0000ff;stroke-dasharray:1.5,2.475;stroke-dashoffset:0;stroke-width:1.5;"/>
    <defs>
     <path d="M 0 1.5 
C 0.397805 1.5 0.77937 1.341951 1.06066 1.06066 
C 1.341951 0.77937 1.5 0.397805 1.5 0 
C 1.5 -0.397805 1.341951 -0.77937 1.06066 -1.06066 
C 0.77937 -1.341951 0.397805 -1.5 0 -1.5 
C -0.397805 -1.5 -0.77937 -1.341951 -1.06066 -1.06066 
C -1.341951 -0.77937 -1.5 -0.397805 -1.5 0 
C -1.5 0.397805 -1.341951 0.77937 -1.06066 1.06066 
C -0.77937 1.341951 -0.397805 1.5 0 1.5 
z
" id="m70bff54e14" style="stroke:#0000ff;"/>
    </defs>
    <g clip-path="url(#p48857ede9d)">
     <use style="fill:#0000ff;stroke:#0000ff;" x="61.612584" xlink:href="#m70bff54e14" y="53.568"/>
     <use style="fill:#0000ff;stroke:#0000ff;" x="65.625169" xlink:href="#m70bff54e14" y="163.708642"/>
     <use style="fill:#0000ff;stroke:#0000ff;" x="69.637753" xlink:href="#m70bff54e14" y="210.671873"/>
     <use style="fill:#0000ff;stroke:#0000ff;" x="73.650337" xlink:href="#m70bff54e14" y="236.680131"/>
     <use style="fill:#0000ff;stroke:#0000ff;" x="77.662921" xlink:href="#m70bff54e14" y="250.780986"/>
     <use style="fill:#0000ff;stroke:#0000ff;" x="81.675506" xlink:href="#m70bff54e14" y="260.285274"/>
     <use style="fill:#0000ff;stroke:#0000ff;" x="85.68809" xlink:href="#m70bff54e14" y="266.609893"/>
     <use style="fill:#0000ff;stroke:#0000ff;" x="89.700674" xlink:href="#m70bff54e14" y="273.042682"/>
     <use style="fill:#0000ff;stroke:#0000ff;" x="93.713258" xlink:href="#m70bff54e14" y="277.714032"/>
     <use style="fill:#0000ff;stroke:#0000ff;" x="97.725843" xlink:href="#m70bff54e14" y="280.017657"/>
     <use style="fill:#0000ff;stroke:#0000ff;" x="101.738427" xlink:href="#m70bff54e14" y="284.360491"/>
     <use style="fill:#0000ff;stroke:#0000ff;" x="105.751011" xlink:href="#m70bff54e14" y="285.902918"/>
     <use style="fill:#0000ff;stroke:#0000ff;" x="109.763596" xlink:href="#m70bff54e14" y="287.986196"/>
     <use style="fill:#0000ff;stroke:#0000ff;" x="113.77618" xlink:href="#m70bff54e14" y="287.14821"/>
     <use style="fill:#0000ff;stroke:#0000ff;" x="117.788764" xlink:href="#m70bff54e14" y="288.517031"/>
     <use style="fill:#0000ff;stroke:#0000ff;" x="121.801348" xlink:href="#m70bff54e14" y="289.562676"/>
     <use style="fill:#0000ff;stroke:#0000ff;" x="125.813933" xlink:href="#m70bff54e14" y="290.621676"/>
     <use style="fill:#0000ff;stroke:#0000ff;" x="129.826517" xlink:href="#m70bff54e14" y="290.397991"/>
     <use style="fill:#0000ff;stroke:#0000ff;" x="133.839101" xlink:href="#m70bff54e14" y="289.612087"/>
     <use style="fill:#0000ff;stroke:#0000ff;" x="137.851685" xlink:href="#m70bff54e14" y="291.335466"/>
     <use style="fill:#0000ff;stroke:#0000ff;" x="141.86427" xlink:href="#m70bff54e14" y="292.82314"/>
     <use style="fill:#0000ff;stroke:#0000ff;" x="145.876854" xlink:href="#m70bff54e14" y="292.996747"/>
     <use style="fill:#0000ff;stroke:#0000ff;" x="149.889438" xlink:href="#m70bff54e14" y="293.902839"/>
     <use style="fill:#0000ff;stroke:#0000ff;" x="153.902022" xlink:href="#m70bff54e14" y="293.730568"/>
     <use style="fill:#0000ff;stroke:#0000ff;" x="157.914607" xlink:href="#m70bff54e14" y="294.203312"/>
     <use style="fill:#0000ff;stroke:#0000ff;" x="161.927191" xlink:href="#m70bff54e14" y="292.648866"/>
     <use style="fill:#0000ff;stroke:#0000ff;" x="165.939775" xlink:href="#m70bff54e14" y="295.032617"/>
     <use style="fill:#0000ff;stroke:#0000ff;" x="169.95236" xlink:href="#m70bff54e14" y="293.985636"/>
     <use style="fill:#0000ff;stroke:#0000ff;" x="173.964944" xlink:href="#m70bff54e14" y="295.133442"/>
     <use style="fill:#0000ff;stroke:#0000ff;" x="177.977528" xlink:href="#m70bff54e14" y="293.269843"/>
     <use style="fill:#0000ff;stroke:#0000ff;" x="181.990112" xlink:href="#m70bff54e14" y="295.186192"/>
     <use style="fill:#0000ff;stroke:#0000ff;" x="186.002697" xlink:href="#m70bff54e14" y="294.18328"/>
     <use style="fill:#0000ff;stroke:#0000ff;" x="190.015281" xlink:href="#m70bff54e14" y="295.009914"/>
     <use style="fill:#0000ff;stroke:#0000ff;" x="194.027865" xlink:href="#m70bff54e14" y="293.840074"/>
     <use style="fill:#0000ff;stroke:#0000ff;" x="198.040449" xlink:href="#m70bff54e14" y="295.031949"/>
     <use style="fill:#0000ff;stroke:#0000ff;" x="202.053034" xlink:href="#m70bff54e14" y="293.854096"/>
     <use style="fill:#0000ff;stroke:#0000ff;" x="206.065618" xlink:href="#m70bff54e14" y="294.59593"/>
     <use style="fill:#0000ff;stroke:#0000ff;" x="210.078202" xlink:href="#m70bff54e14" y="295.488"/>
     <use style="fill:#0000ff;stroke:#0000ff;" x="214.090787" xlink:href="#m70bff54e14" y="294.858343"/>
     <use style="fill:#0000ff;stroke:#0000ff;" x="218.103371" xlink:href="#m70bff54e14" y="294.360225"/>
     <use style="fill:#0000ff;stroke:#0000ff;" x="222.115955" xlink:href="#m70bff54e14" y="294.105825"/>
     <use style="fill:#0000ff;stroke:#0000ff;" x="226.128539" xlink:href="#m70bff54e14" y="294.219337"/>
     <use style="fill:#0000ff;stroke:#0000ff;" x="230.141124" xlink:href="#m70bff54e14" y="294.231356"/>
     <use style="fill:#0000ff;stroke:#0000ff;" x="234.153708" xlink:href="#m70bff54e14" y="293.355311"/>
     <use style="fill:#0000ff;stroke:#0000ff;" x="238.166292" xlink:href="#m70bff54e14" y="293.385358"/>
     <use style="fill:#0000ff;stroke:#0000ff;" x="242.178876" xlink:href="#m70bff54e14" y="293.325931"/>
     <use style="fill:#0000ff;stroke:#0000ff;" x="246.191461" xlink:href="#m70bff54e14" y="292.542699"/>
     <use style="fill:#0000ff;stroke:#0000ff;" x="250.204045" xlink:href="#m70bff54e14" y="293.199065"/>
     <use style="fill:#0000ff;stroke:#0000ff;" x="254.216629" xlink:href="#m70bff54e14" y="293.341289"/>
     <use style="fill:#0000ff;stroke:#0000ff;" x="258.229213" xlink:href="#m70bff54e14" y="292.904602"/>
     <use style="fill:#0000ff;stroke:#0000ff;" x="262.241798" xlink:href="#m70bff54e14" y="292.79109"/>
     <use style="fill:#0000ff;stroke:#0000ff;" x="266.254382" xlink:href="#m70bff54e14" y="292.968702"/>
     <use style="fill:#0000ff;stroke:#0000ff;" x="270.266966" xlink:href="#m70bff54e14" y="293.249144"/>
     <use style="fill:#0000ff;stroke:#0000ff;" x="274.279551" xlink:href="#m70bff54e14" y="293.477503"/>
     <use style="fill:#0000ff;stroke:#0000ff;" x="278.292135" xlink:href="#m70bff54e14" y="291.931737"/>
     <use style="fill:#0000ff;stroke:#0000ff;" x="282.304719" xlink:href="#m70bff54e14" y="294.880377"/>
     <use style="fill:#0000ff;stroke:#0000ff;" x="286.317303" xlink:href="#m70bff54e14" y="294.210657"/>
     <use style="fill:#0000ff;stroke:#0000ff;" x="290.329888" xlink:href="#m70bff54e14" y="293.97562"/>
     <use style="fill:#0000ff;stroke:#0000ff;" x="294.342472" xlink:href="#m70bff54e14" y="294.187954"/>
     <use style="fill:#0000ff;stroke:#0000ff;" x="298.355056" xlink:href="#m70bff54e14" y="294.163917"/>
     <use style="fill:#0000ff;stroke:#0000ff;" x="302.36764" xlink:href="#m70bff54e14" y="294.39094"/>
     <use style="fill:#0000ff;stroke:#0000ff;" x="306.380225" xlink:href="#m70bff54e14" y="294.382928"/>
     <use style="fill:#0000ff;stroke:#0000ff;" x="310.392809" xlink:href="#m70bff54e14" y="294.043727"/>
     <use style="fill:#0000ff;stroke:#0000ff;" x="314.405393" xlink:href="#m70bff54e14" y="294.188622"/>
     <use style="fill:#0000ff;stroke:#0000ff;" x="318.417978" xlink:href="#m70bff54e14" y="293.801346"/>
     <use style="fill:#0000ff;stroke:#0000ff;" x="322.430562" xlink:href="#m70bff54e14" y="293.643765"/>
     <use style="fill:#0000ff;stroke:#0000ff;" x="326.443146" xlink:href="#m70bff54e14" y="293.820042"/>
     <use style="fill:#0000ff;stroke:#0000ff;" x="330.45573" xlink:href="#m70bff54e14" y="294.007671"/>
     <use style="fill:#0000ff;stroke:#0000ff;" x="334.468315" xlink:href="#m70bff54e14" y="294.08112"/>
     <use style="fill:#0000ff;stroke:#0000ff;" x="338.480899" xlink:href="#m70bff54e14" y="294.071772"/>
     <use style="fill:#0000ff;stroke:#0000ff;" x="342.493483" xlink:href="#m70bff54e14" y="293.65378"/>
     <use style="fill:#0000ff;stroke:#0000ff;" x="346.506067" xlink:href="#m70bff54e14" y="293.417409"/>
     <use style="fill:#0000ff;stroke:#0000ff;" x="350.518652" xlink:href="#m70bff54e14" y="293.265837"/>
     <use style="fill:#0000ff;stroke:#0000ff;" x="354.531236" xlink:href="#m70bff54e14" y="293.086888"/>
     <use style="fill:#0000ff;stroke:#0000ff;" x="358.54382" xlink:href="#m70bff54e14" y="293.088892"/>
     <use style="fill:#0000ff;stroke:#0000ff;" x="362.556404" xlink:href="#m70bff54e14" y="293.339953"/>
     <use style="fill:#0000ff;stroke:#0000ff;" x="366.568989" xlink:href="#m70bff54e14" y="293.457472"/>
     <use style="fill:#0000ff;stroke:#0000ff;" x="370.581573" xlink:href="#m70bff54e14" y="293.474832"/>
     <use style="fill:#0000ff;stroke:#0000ff;" x="374.594157" xlink:href="#m70bff54e14" y="294.264742"/>
     <use style="fill:#0000ff;stroke:#0000ff;" x="378.606742" xlink:href="#m70bff54e14" y="293.764622"/>
     <use style="fill:#0000ff;stroke:#0000ff;" x="382.619326" xlink:href="#m70bff54e14" y="293.724559"/>
     <use style="fill:#0000ff;stroke:#0000ff;" x="386.63191" xlink:href="#m70bff54e14" y="293.356646"/>
     <use style="fill:#0000ff;stroke:#0000ff;" x="390.644494" xlink:href="#m70bff54e14" y="293.198397"/>
     <use style="fill:#0000ff;stroke:#0000ff;" x="394.657079" xlink:href="#m70bff54e14" y="252.179854"/>
     <use style="fill:#0000ff;stroke:#0000ff;" x="398.669663" xlink:href="#m70bff54e14" y="292.815128"/>
     <use style="fill:#0000ff;stroke:#0000ff;" x="402.682247" xlink:href="#m70bff54e14" y="292.39914"/>
     <use style="fill:#0000ff;stroke:#0000ff;" x="406.694831" xlink:href="#m70bff54e14" y="290.072812"/>
     <use style="fill:#0000ff;stroke:#0000ff;" x="410.707416" xlink:href="#m70bff54e14" y="292.046585"/>
    </g>
   </g>
   <g id="line2d_62">
    <path clip-path="url(#p48857ede9d)" d="M 61.612584 103.212784 
L 65.625169 102.9477 
L 69.637753 100.705505 
L 73.650337 101.534142 
L 77.662921 101.728448 
L 81.675506 101.357865 
L 85.68809 100.232094 
L 89.700674 101.298438 
L 93.713258 101.741135 
L 97.725843 101.389916 
L 101.738427 101.040032 
L 105.751011 101.084101 
L 109.763596 100.814343 
L 113.77618 100.992624 
L 117.788764 100.855742 
L 121.801348 101.196945 
L 125.813933 100.291521 
L 129.826517 100.742897 
L 133.839101 99.277926 
L 137.851685 99.790733 
L 141.86427 99.236527 
L 145.876854 97.370925 
L 149.889438 97.636009 
L 153.902022 97.353564 
L 157.914607 97.171945 
L 161.927191 97.021041 
L 165.939775 96.283213 
L 169.95236 99.169088 
L 173.964944 99.101648 
L 177.977528 99.789397 
L 181.990112 99.321995 
L 186.002697 99.440849 
L 190.015281 97.263422 
L 194.027865 97.583927 
L 198.040449 98.146145 
L 202.053034 97.857691 
L 206.065618 97.459064 
L 210.078202 95.928655 
L 214.090787 95.561411 
L 218.103371 96.138986 
L 222.115955 95.408504 
L 226.128539 94.925744 
L 230.141124 94.747463 
L 234.153708 95.262941 
L 238.166292 94.942437 
L 242.178876 94.760818 
L 246.191461 95.024566 
L 250.204045 95.367773 
L 254.216629 94.892358 
L 258.229213 96.062199 
L 262.241798 96.205758 
L 266.254382 95.491301 
L 270.266966 96.197078 
L 274.279551 96.432114 
L 278.292135 81.200814 
L 282.304719 96.430111 
L 286.317303 96.355327 
L 290.329888 95.656227 
L 294.342472 95.911963 
L 298.355056 95.56475 
L 302.36764 96.002104 
L 306.380225 95.61149 
L 310.392809 95.413845 
L 314.405393 95.419855 
L 318.417978 94.223305 
L 322.430562 94.89169 
L 326.443146 94.647306 
L 330.45573 94.523778 
L 334.468315 94.06973 
L 338.480899 94.147853 
L 342.493483 94.269378 
L 346.506067 93.497497 
L 350.518652 93.982259 
L 354.531236 93.818001 
L 358.54382 93.97625 
L 362.556404 93.595651 
L 366.568989 93.882102 
L 370.581573 93.820004 
L 374.594157 94.3682 
L 378.606742 92.734963 
L 382.619326 92.144701 
L 386.63191 92.680878 
L 390.644494 92.740973 
L 394.657079 92.328991 
L 398.669663 91.921016 
L 402.682247 91.342105 
L 406.694831 91.16516 
L 410.707416 90.946149 
" style="fill:none;stroke:#ff0000;stroke-dasharray:1.5,2.475;stroke-dashoffset:0;stroke-width:1.5;"/>
    <defs>
     <path d="M 0 1.5 
C 0.397805 1.5 0.77937 1.341951 1.06066 1.06066 
C 1.341951 0.77937 1.5 0.397805 1.5 0 
C 1.5 -0.397805 1.341951 -0.77937 1.06066 -1.06066 
C 0.77937 -1.341951 0.397805 -1.5 0 -1.5 
C -0.397805 -1.5 -0.77937 -1.341951 -1.06066 -1.06066 
C -1.341951 -0.77937 -1.5 -0.397805 -1.5 0 
C -1.5 0.397805 -1.341951 0.77937 -1.06066 1.06066 
C -0.77937 1.341951 -0.397805 1.5 0 1.5 
z
" id="m9234c4c30e" style="stroke:#ff0000;"/>
    </defs>
    <g clip-path="url(#p48857ede9d)">
     <use style="fill:#ff0000;stroke:#ff0000;" x="61.612584" xlink:href="#m9234c4c30e" y="103.212784"/>
     <use style="fill:#ff0000;stroke:#ff0000;" x="65.625169" xlink:href="#m9234c4c30e" y="102.9477"/>
     <use style="fill:#ff0000;stroke:#ff0000;" x="69.637753" xlink:href="#m9234c4c30e" y="100.705505"/>
     <use style="fill:#ff0000;stroke:#ff0000;" x="73.650337" xlink:href="#m9234c4c30e" y="101.534142"/>
     <use style="fill:#ff0000;stroke:#ff0000;" x="77.662921" xlink:href="#m9234c4c30e" y="101.728448"/>
     <use style="fill:#ff0000;stroke:#ff0000;" x="81.675506" xlink:href="#m9234c4c30e" y="101.357865"/>
     <use style="fill:#ff0000;stroke:#ff0000;" x="85.68809" xlink:href="#m9234c4c30e" y="100.232094"/>
     <use style="fill:#ff0000;stroke:#ff0000;" x="89.700674" xlink:href="#m9234c4c30e" y="101.298438"/>
     <use style="fill:#ff0000;stroke:#ff0000;" x="93.713258" xlink:href="#m9234c4c30e" y="101.741135"/>
     <use style="fill:#ff0000;stroke:#ff0000;" x="97.725843" xlink:href="#m9234c4c30e" y="101.389916"/>
     <use style="fill:#ff0000;stroke:#ff0000;" x="101.738427" xlink:href="#m9234c4c30e" y="101.040032"/>
     <use style="fill:#ff0000;stroke:#ff0000;" x="105.751011" xlink:href="#m9234c4c30e" y="101.084101"/>
     <use style="fill:#ff0000;stroke:#ff0000;" x="109.763596" xlink:href="#m9234c4c30e" y="100.814343"/>
     <use style="fill:#ff0000;stroke:#ff0000;" x="113.77618" xlink:href="#m9234c4c30e" y="100.992624"/>
     <use style="fill:#ff0000;stroke:#ff0000;" x="117.788764" xlink:href="#m9234c4c30e" y="100.855742"/>
     <use style="fill:#ff0000;stroke:#ff0000;" x="121.801348" xlink:href="#m9234c4c30e" y="101.196945"/>
     <use style="fill:#ff0000;stroke:#ff0000;" x="125.813933" xlink:href="#m9234c4c30e" y="100.291521"/>
     <use style="fill:#ff0000;stroke:#ff0000;" x="129.826517" xlink:href="#m9234c4c30e" y="100.742897"/>
     <use style="fill:#ff0000;stroke:#ff0000;" x="133.839101" xlink:href="#m9234c4c30e" y="99.277926"/>
     <use style="fill:#ff0000;stroke:#ff0000;" x="137.851685" xlink:href="#m9234c4c30e" y="99.790733"/>
     <use style="fill:#ff0000;stroke:#ff0000;" x="141.86427" xlink:href="#m9234c4c30e" y="99.236527"/>
     <use style="fill:#ff0000;stroke:#ff0000;" x="145.876854" xlink:href="#m9234c4c30e" y="97.370925"/>
     <use style="fill:#ff0000;stroke:#ff0000;" x="149.889438" xlink:href="#m9234c4c30e" y="97.636009"/>
     <use style="fill:#ff0000;stroke:#ff0000;" x="153.902022" xlink:href="#m9234c4c30e" y="97.353564"/>
     <use style="fill:#ff0000;stroke:#ff0000;" x="157.914607" xlink:href="#m9234c4c30e" y="97.171945"/>
     <use style="fill:#ff0000;stroke:#ff0000;" x="161.927191" xlink:href="#m9234c4c30e" y="97.021041"/>
     <use style="fill:#ff0000;stroke:#ff0000;" x="165.939775" xlink:href="#m9234c4c30e" y="96.283213"/>
     <use style="fill:#ff0000;stroke:#ff0000;" x="169.95236" xlink:href="#m9234c4c30e" y="99.169088"/>
     <use style="fill:#ff0000;stroke:#ff0000;" x="173.964944" xlink:href="#m9234c4c30e" y="99.101648"/>
     <use style="fill:#ff0000;stroke:#ff0000;" x="177.977528" xlink:href="#m9234c4c30e" y="99.789397"/>
     <use style="fill:#ff0000;stroke:#ff0000;" x="181.990112" xlink:href="#m9234c4c30e" y="99.321995"/>
     <use style="fill:#ff0000;stroke:#ff0000;" x="186.002697" xlink:href="#m9234c4c30e" y="99.440849"/>
     <use style="fill:#ff0000;stroke:#ff0000;" x="190.015281" xlink:href="#m9234c4c30e" y="97.263422"/>
     <use style="fill:#ff0000;stroke:#ff0000;" x="194.027865" xlink:href="#m9234c4c30e" y="97.583927"/>
     <use style="fill:#ff0000;stroke:#ff0000;" x="198.040449" xlink:href="#m9234c4c30e" y="98.146145"/>
     <use style="fill:#ff0000;stroke:#ff0000;" x="202.053034" xlink:href="#m9234c4c30e" y="97.857691"/>
     <use style="fill:#ff0000;stroke:#ff0000;" x="206.065618" xlink:href="#m9234c4c30e" y="97.459064"/>
     <use style="fill:#ff0000;stroke:#ff0000;" x="210.078202" xlink:href="#m9234c4c30e" y="95.928655"/>
     <use style="fill:#ff0000;stroke:#ff0000;" x="214.090787" xlink:href="#m9234c4c30e" y="95.561411"/>
     <use style="fill:#ff0000;stroke:#ff0000;" x="218.103371" xlink:href="#m9234c4c30e" y="96.138986"/>
     <use style="fill:#ff0000;stroke:#ff0000;" x="222.115955" xlink:href="#m9234c4c30e" y="95.408504"/>
     <use style="fill:#ff0000;stroke:#ff0000;" x="226.128539" xlink:href="#m9234c4c30e" y="94.925744"/>
     <use style="fill:#ff0000;stroke:#ff0000;" x="230.141124" xlink:href="#m9234c4c30e" y="94.747463"/>
     <use style="fill:#ff0000;stroke:#ff0000;" x="234.153708" xlink:href="#m9234c4c30e" y="95.262941"/>
     <use style="fill:#ff0000;stroke:#ff0000;" x="238.166292" xlink:href="#m9234c4c30e" y="94.942437"/>
     <use style="fill:#ff0000;stroke:#ff0000;" x="242.178876" xlink:href="#m9234c4c30e" y="94.760818"/>
     <use style="fill:#ff0000;stroke:#ff0000;" x="246.191461" xlink:href="#m9234c4c30e" y="95.024566"/>
     <use style="fill:#ff0000;stroke:#ff0000;" x="250.204045" xlink:href="#m9234c4c30e" y="95.367773"/>
     <use style="fill:#ff0000;stroke:#ff0000;" x="254.216629" xlink:href="#m9234c4c30e" y="94.892358"/>
     <use style="fill:#ff0000;stroke:#ff0000;" x="258.229213" xlink:href="#m9234c4c30e" y="96.062199"/>
     <use style="fill:#ff0000;stroke:#ff0000;" x="262.241798" xlink:href="#m9234c4c30e" y="96.205758"/>
     <use style="fill:#ff0000;stroke:#ff0000;" x="266.254382" xlink:href="#m9234c4c30e" y="95.491301"/>
     <use style="fill:#ff0000;stroke:#ff0000;" x="270.266966" xlink:href="#m9234c4c30e" y="96.197078"/>
     <use style="fill:#ff0000;stroke:#ff0000;" x="274.279551" xlink:href="#m9234c4c30e" y="96.432114"/>
     <use style="fill:#ff0000;stroke:#ff0000;" x="278.292135" xlink:href="#m9234c4c30e" y="81.200814"/>
     <use style="fill:#ff0000;stroke:#ff0000;" x="282.304719" xlink:href="#m9234c4c30e" y="96.430111"/>
     <use style="fill:#ff0000;stroke:#ff0000;" x="286.317303" xlink:href="#m9234c4c30e" y="96.355327"/>
     <use style="fill:#ff0000;stroke:#ff0000;" x="290.329888" xlink:href="#m9234c4c30e" y="95.656227"/>
     <use style="fill:#ff0000;stroke:#ff0000;" x="294.342472" xlink:href="#m9234c4c30e" y="95.911963"/>
     <use style="fill:#ff0000;stroke:#ff0000;" x="298.355056" xlink:href="#m9234c4c30e" y="95.56475"/>
     <use style="fill:#ff0000;stroke:#ff0000;" x="302.36764" xlink:href="#m9234c4c30e" y="96.002104"/>
     <use style="fill:#ff0000;stroke:#ff0000;" x="306.380225" xlink:href="#m9234c4c30e" y="95.61149"/>
     <use style="fill:#ff0000;stroke:#ff0000;" x="310.392809" xlink:href="#m9234c4c30e" y="95.413845"/>
     <use style="fill:#ff0000;stroke:#ff0000;" x="314.405393" xlink:href="#m9234c4c30e" y="95.419855"/>
     <use style="fill:#ff0000;stroke:#ff0000;" x="318.417978" xlink:href="#m9234c4c30e" y="94.223305"/>
     <use style="fill:#ff0000;stroke:#ff0000;" x="322.430562" xlink:href="#m9234c4c30e" y="94.89169"/>
     <use style="fill:#ff0000;stroke:#ff0000;" x="326.443146" xlink:href="#m9234c4c30e" y="94.647306"/>
     <use style="fill:#ff0000;stroke:#ff0000;" x="330.45573" xlink:href="#m9234c4c30e" y="94.523778"/>
     <use style="fill:#ff0000;stroke:#ff0000;" x="334.468315" xlink:href="#m9234c4c30e" y="94.06973"/>
     <use style="fill:#ff0000;stroke:#ff0000;" x="338.480899" xlink:href="#m9234c4c30e" y="94.147853"/>
     <use style="fill:#ff0000;stroke:#ff0000;" x="342.493483" xlink:href="#m9234c4c30e" y="94.269378"/>
     <use style="fill:#ff0000;stroke:#ff0000;" x="346.506067" xlink:href="#m9234c4c30e" y="93.497497"/>
     <use style="fill:#ff0000;stroke:#ff0000;" x="350.518652" xlink:href="#m9234c4c30e" y="93.982259"/>
     <use style="fill:#ff0000;stroke:#ff0000;" x="354.531236" xlink:href="#m9234c4c30e" y="93.818001"/>
     <use style="fill:#ff0000;stroke:#ff0000;" x="358.54382" xlink:href="#m9234c4c30e" y="93.97625"/>
     <use style="fill:#ff0000;stroke:#ff0000;" x="362.556404" xlink:href="#m9234c4c30e" y="93.595651"/>
     <use style="fill:#ff0000;stroke:#ff0000;" x="366.568989" xlink:href="#m9234c4c30e" y="93.882102"/>
     <use style="fill:#ff0000;stroke:#ff0000;" x="370.581573" xlink:href="#m9234c4c30e" y="93.820004"/>
     <use style="fill:#ff0000;stroke:#ff0000;" x="374.594157" xlink:href="#m9234c4c30e" y="94.3682"/>
     <use style="fill:#ff0000;stroke:#ff0000;" x="378.606742" xlink:href="#m9234c4c30e" y="92.734963"/>
     <use style="fill:#ff0000;stroke:#ff0000;" x="382.619326" xlink:href="#m9234c4c30e" y="92.144701"/>
     <use style="fill:#ff0000;stroke:#ff0000;" x="386.63191" xlink:href="#m9234c4c30e" y="92.680878"/>
     <use style="fill:#ff0000;stroke:#ff0000;" x="390.644494" xlink:href="#m9234c4c30e" y="92.740973"/>
     <use style="fill:#ff0000;stroke:#ff0000;" x="394.657079" xlink:href="#m9234c4c30e" y="92.328991"/>
     <use style="fill:#ff0000;stroke:#ff0000;" x="398.669663" xlink:href="#m9234c4c30e" y="91.921016"/>
     <use style="fill:#ff0000;stroke:#ff0000;" x="402.682247" xlink:href="#m9234c4c30e" y="91.342105"/>
     <use style="fill:#ff0000;stroke:#ff0000;" x="406.694831" xlink:href="#m9234c4c30e" y="91.16516"/>
     <use style="fill:#ff0000;stroke:#ff0000;" x="410.707416" xlink:href="#m9234c4c30e" y="90.946149"/>
    </g>
   </g>
   <g id="line2d_63">
    <path clip-path="url(#p48857ede9d)" d="M 61.612584 78.390392 
L 65.625169 133.328171 
L 69.637753 155.688689 
L 73.650337 169.107137 
L 77.662921 176.254717 
L 81.675506 180.82157 
L 85.68809 183.420993 
L 89.700674 187.17056 
L 93.713258 189.727584 
L 97.725843 190.703786 
L 101.738427 192.700261 
L 105.751011 193.493509 
L 109.763596 194.400269 
L 113.77618 194.070417 
L 117.788764 194.686386 
L 121.801348 195.379811 
L 125.813933 195.456598 
L 129.826517 195.570444 
L 133.839101 194.445007 
L 137.851685 195.563099 
L 141.86427 196.029834 
L 145.876854 195.183836 
L 149.889438 195.769424 
L 153.902022 195.542066 
L 157.914607 195.687628 
L 161.927191 194.834953 
L 165.939775 195.657915 
L 169.95236 196.577362 
L 173.964944 197.117545 
L 177.977528 196.52962 
L 181.990112 197.254093 
L 186.002697 196.812064 
L 190.015281 196.136668 
L 194.027865 195.712 
L 198.040449 196.589047 
L 202.053034 195.855893 
L 206.065618 196.027497 
L 210.078202 195.708328 
L 214.090787 195.209877 
L 218.103371 195.249606 
L 222.115955 194.757164 
L 226.128539 194.572541 
L 230.141124 194.48941 
L 234.153708 194.309126 
L 238.166292 194.163898 
L 242.178876 194.043375 
L 246.191461 193.783633 
L 250.204045 194.283419 
L 254.216629 194.116823 
L 258.229213 194.4834 
L 262.241798 194.498424 
L 266.254382 194.230002 
L 270.266966 194.723111 
L 274.279551 194.954809 
L 278.292135 186.566276 
L 282.304719 195.655244 
L 286.317303 195.282992 
L 290.329888 194.815924 
L 294.342472 195.049958 
L 298.355056 194.864333 
L 302.36764 195.196522 
L 306.380225 194.997209 
L 310.392809 194.728786 
L 314.405393 194.804238 
L 318.417978 194.012326 
L 322.430562 194.267728 
L 326.443146 194.233674 
L 330.45573 194.265724 
L 334.468315 194.075425 
L 338.480899 194.109812 
L 342.493483 193.961579 
L 346.506067 193.457453 
L 350.518652 193.624048 
L 354.531236 193.452445 
L 358.54382 193.532571 
L 362.556404 193.467802 
L 366.568989 193.669787 
L 370.581573 193.647418 
L 374.594157 194.316471 
L 378.606742 193.249793 
L 382.619326 192.93463 
L 386.63191 193.018762 
L 390.644494 192.969685 
L 394.657079 172.254422 
L 398.669663 192.368072 
L 402.682247 191.870622 
L 406.694831 190.618986 
L 410.707416 191.496367 
" style="fill:none;stroke:#008000;stroke-dasharray:1.5,2.475;stroke-dashoffset:0;stroke-width:1.5;"/>
    <defs>
     <path d="M 0 1.5 
C 0.397805 1.5 0.77937 1.341951 1.06066 1.06066 
C 1.341951 0.77937 1.5 0.397805 1.5 0 
C 1.5 -0.397805 1.341951 -0.77937 1.06066 -1.06066 
C 0.77937 -1.341951 0.397805 -1.5 0 -1.5 
C -0.397805 -1.5 -0.77937 -1.341951 -1.06066 -1.06066 
C -1.341951 -0.77937 -1.5 -0.397805 -1.5 0 
C -1.5 0.397805 -1.341951 0.77937 -1.06066 1.06066 
C -0.77937 1.341951 -0.397805 1.5 0 1.5 
z
" id="m7dc7068028" style="stroke:#008000;"/>
    </defs>
    <g clip-path="url(#p48857ede9d)">
     <use style="fill:#008000;stroke:#008000;" x="61.612584" xlink:href="#m7dc7068028" y="78.390392"/>
     <use style="fill:#008000;stroke:#008000;" x="65.625169" xlink:href="#m7dc7068028" y="133.328171"/>
     <use style="fill:#008000;stroke:#008000;" x="69.637753" xlink:href="#m7dc7068028" y="155.688689"/>
     <use style="fill:#008000;stroke:#008000;" x="73.650337" xlink:href="#m7dc7068028" y="169.107137"/>
     <use style="fill:#008000;stroke:#008000;" x="77.662921" xlink:href="#m7dc7068028" y="176.254717"/>
     <use style="fill:#008000;stroke:#008000;" x="81.675506" xlink:href="#m7dc7068028" y="180.82157"/>
     <use style="fill:#008000;stroke:#008000;" x="85.68809" xlink:href="#m7dc7068028" y="183.420993"/>
     <use style="fill:#008000;stroke:#008000;" x="89.700674" xlink:href="#m7dc7068028" y="187.17056"/>
     <use style="fill:#008000;stroke:#008000;" x="93.713258" xlink:href="#m7dc7068028" y="189.727584"/>
     <use style="fill:#008000;stroke:#008000;" x="97.725843" xlink:href="#m7dc7068028" y="190.703786"/>
     <use style="fill:#008000;stroke:#008000;" x="101.738427" xlink:href="#m7dc7068028" y="192.700261"/>
     <use style="fill:#008000;stroke:#008000;" x="105.751011" xlink:href="#m7dc7068028" y="193.493509"/>
     <use style="fill:#008000;stroke:#008000;" x="109.763596" xlink:href="#m7dc7068028" y="194.400269"/>
     <use style="fill:#008000;stroke:#008000;" x="113.77618" xlink:href="#m7dc7068028" y="194.070417"/>
     <use style="fill:#008000;stroke:#008000;" x="117.788764" xlink:href="#m7dc7068028" y="194.686386"/>
     <use style="fill:#008000;stroke:#008000;" x="121.801348" xlink:href="#m7dc7068028" y="195.379811"/>
     <use style="fill:#008000;stroke:#008000;" x="125.813933" xlink:href="#m7dc7068028" y="195.456598"/>
     <use style="fill:#008000;stroke:#008000;" x="129.826517" xlink:href="#m7dc7068028" y="195.570444"/>
     <use style="fill:#008000;stroke:#008000;" x="133.839101" xlink:href="#m7dc7068028" y="194.445007"/>
     <use style="fill:#008000;stroke:#008000;" x="137.851685" xlink:href="#m7dc7068028" y="195.563099"/>
     <use style="fill:#008000;stroke:#008000;" x="141.86427" xlink:href="#m7dc7068028" y="196.029834"/>
     <use style="fill:#008000;stroke:#008000;" x="145.876854" xlink:href="#m7dc7068028" y="195.183836"/>
     <use style="fill:#008000;stroke:#008000;" x="149.889438" xlink:href="#m7dc7068028" y="195.769424"/>
     <use style="fill:#008000;stroke:#008000;" x="153.902022" xlink:href="#m7dc7068028" y="195.542066"/>
     <use style="fill:#008000;stroke:#008000;" x="157.914607" xlink:href="#m7dc7068028" y="195.687628"/>
     <use style="fill:#008000;stroke:#008000;" x="161.927191" xlink:href="#m7dc7068028" y="194.834953"/>
     <use style="fill:#008000;stroke:#008000;" x="165.939775" xlink:href="#m7dc7068028" y="195.657915"/>
     <use style="fill:#008000;stroke:#008000;" x="169.95236" xlink:href="#m7dc7068028" y="196.577362"/>
     <use style="fill:#008000;stroke:#008000;" x="173.964944" xlink:href="#m7dc7068028" y="197.117545"/>
     <use style="fill:#008000;stroke:#008000;" x="177.977528" xlink:href="#m7dc7068028" y="196.52962"/>
     <use style="fill:#008000;stroke:#008000;" x="181.990112" xlink:href="#m7dc7068028" y="197.254093"/>
     <use style="fill:#008000;stroke:#008000;" x="186.002697" xlink:href="#m7dc7068028" y="196.812064"/>
     <use style="fill:#008000;stroke:#008000;" x="190.015281" xlink:href="#m7dc7068028" y="196.136668"/>
     <use style="fill:#008000;stroke:#008000;" x="194.027865" xlink:href="#m7dc7068028" y="195.712"/>
     <use style="fill:#008000;stroke:#008000;" x="198.040449" xlink:href="#m7dc7068028" y="196.589047"/>
     <use style="fill:#008000;stroke:#008000;" x="202.053034" xlink:href="#m7dc7068028" y="195.855893"/>
     <use style="fill:#008000;stroke:#008000;" x="206.065618" xlink:href="#m7dc7068028" y="196.027497"/>
     <use style="fill:#008000;stroke:#008000;" x="210.078202" xlink:href="#m7dc7068028" y="195.708328"/>
     <use style="fill:#008000;stroke:#008000;" x="214.090787" xlink:href="#m7dc7068028" y="195.209877"/>
     <use style="fill:#008000;stroke:#008000;" x="218.103371" xlink:href="#m7dc7068028" y="195.249606"/>
     <use style="fill:#008000;stroke:#008000;" x="222.115955" xlink:href="#m7dc7068028" y="194.757164"/>
     <use style="fill:#008000;stroke:#008000;" x="226.128539" xlink:href="#m7dc7068028" y="194.572541"/>
     <use style="fill:#008000;stroke:#008000;" x="230.141124" xlink:href="#m7dc7068028" y="194.48941"/>
     <use style="fill:#008000;stroke:#008000;" x="234.153708" xlink:href="#m7dc7068028" y="194.309126"/>
     <use style="fill:#008000;stroke:#008000;" x="238.166292" xlink:href="#m7dc7068028" y="194.163898"/>
     <use style="fill:#008000;stroke:#008000;" x="242.178876" xlink:href="#m7dc7068028" y="194.043375"/>
     <use style="fill:#008000;stroke:#008000;" x="246.191461" xlink:href="#m7dc7068028" y="193.783633"/>
     <use style="fill:#008000;stroke:#008000;" x="250.204045" xlink:href="#m7dc7068028" y="194.283419"/>
     <use style="fill:#008000;stroke:#008000;" x="254.216629" xlink:href="#m7dc7068028" y="194.116823"/>
     <use style="fill:#008000;stroke:#008000;" x="258.229213" xlink:href="#m7dc7068028" y="194.4834"/>
     <use style="fill:#008000;stroke:#008000;" x="262.241798" xlink:href="#m7dc7068028" y="194.498424"/>
     <use style="fill:#008000;stroke:#008000;" x="266.254382" xlink:href="#m7dc7068028" y="194.230002"/>
     <use style="fill:#008000;stroke:#008000;" x="270.266966" xlink:href="#m7dc7068028" y="194.723111"/>
     <use style="fill:#008000;stroke:#008000;" x="274.279551" xlink:href="#m7dc7068028" y="194.954809"/>
     <use style="fill:#008000;stroke:#008000;" x="278.292135" xlink:href="#m7dc7068028" y="186.566276"/>
     <use style="fill:#008000;stroke:#008000;" x="282.304719" xlink:href="#m7dc7068028" y="195.655244"/>
     <use style="fill:#008000;stroke:#008000;" x="286.317303" xlink:href="#m7dc7068028" y="195.282992"/>
     <use style="fill:#008000;stroke:#008000;" x="290.329888" xlink:href="#m7dc7068028" y="194.815924"/>
     <use style="fill:#008000;stroke:#008000;" x="294.342472" xlink:href="#m7dc7068028" y="195.049958"/>
     <use style="fill:#008000;stroke:#008000;" x="298.355056" xlink:href="#m7dc7068028" y="194.864333"/>
     <use style="fill:#008000;stroke:#008000;" x="302.36764" xlink:href="#m7dc7068028" y="195.196522"/>
     <use style="fill:#008000;stroke:#008000;" x="306.380225" xlink:href="#m7dc7068028" y="194.997209"/>
     <use style="fill:#008000;stroke:#008000;" x="310.392809" xlink:href="#m7dc7068028" y="194.728786"/>
     <use style="fill:#008000;stroke:#008000;" x="314.405393" xlink:href="#m7dc7068028" y="194.804238"/>
     <use style="fill:#008000;stroke:#008000;" x="318.417978" xlink:href="#m7dc7068028" y="194.012326"/>
     <use style="fill:#008000;stroke:#008000;" x="322.430562" xlink:href="#m7dc7068028" y="194.267728"/>
     <use style="fill:#008000;stroke:#008000;" x="326.443146" xlink:href="#m7dc7068028" y="194.233674"/>
     <use style="fill:#008000;stroke:#008000;" x="330.45573" xlink:href="#m7dc7068028" y="194.265724"/>
     <use style="fill:#008000;stroke:#008000;" x="334.468315" xlink:href="#m7dc7068028" y="194.075425"/>
     <use style="fill:#008000;stroke:#008000;" x="338.480899" xlink:href="#m7dc7068028" y="194.109812"/>
     <use style="fill:#008000;stroke:#008000;" x="342.493483" xlink:href="#m7dc7068028" y="193.961579"/>
     <use style="fill:#008000;stroke:#008000;" x="346.506067" xlink:href="#m7dc7068028" y="193.457453"/>
     <use style="fill:#008000;stroke:#008000;" x="350.518652" xlink:href="#m7dc7068028" y="193.624048"/>
     <use style="fill:#008000;stroke:#008000;" x="354.531236" xlink:href="#m7dc7068028" y="193.452445"/>
     <use style="fill:#008000;stroke:#008000;" x="358.54382" xlink:href="#m7dc7068028" y="193.532571"/>
     <use style="fill:#008000;stroke:#008000;" x="362.556404" xlink:href="#m7dc7068028" y="193.467802"/>
     <use style="fill:#008000;stroke:#008000;" x="366.568989" xlink:href="#m7dc7068028" y="193.669787"/>
     <use style="fill:#008000;stroke:#008000;" x="370.581573" xlink:href="#m7dc7068028" y="193.647418"/>
     <use style="fill:#008000;stroke:#008000;" x="374.594157" xlink:href="#m7dc7068028" y="194.316471"/>
     <use style="fill:#008000;stroke:#008000;" x="378.606742" xlink:href="#m7dc7068028" y="193.249793"/>
     <use style="fill:#008000;stroke:#008000;" x="382.619326" xlink:href="#m7dc7068028" y="192.93463"/>
     <use style="fill:#008000;stroke:#008000;" x="386.63191" xlink:href="#m7dc7068028" y="193.018762"/>
     <use style="fill:#008000;stroke:#008000;" x="390.644494" xlink:href="#m7dc7068028" y="192.969685"/>
     <use style="fill:#008000;stroke:#008000;" x="394.657079" xlink:href="#m7dc7068028" y="172.254422"/>
     <use style="fill:#008000;stroke:#008000;" x="398.669663" xlink:href="#m7dc7068028" y="192.368072"/>
     <use style="fill:#008000;stroke:#008000;" x="402.682247" xlink:href="#m7dc7068028" y="191.870622"/>
     <use style="fill:#008000;stroke:#008000;" x="406.694831" xlink:href="#m7dc7068028" y="190.618986"/>
     <use style="fill:#008000;stroke:#008000;" x="410.707416" xlink:href="#m7dc7068028" y="191.496367"/>
    </g>
   </g>
   <g id="patch_3">
    <path d="M 57.6 307.584 
L 57.6 41.472 
" style="fill:none;stroke:#000000;stroke-linecap:square;stroke-linejoin:miter;stroke-width:0.8;"/>
   </g>
   <g id="patch_4">
    <path d="M 414.72 307.584 
L 414.72 41.472 
" style="fill:none;stroke:#000000;stroke-linecap:square;stroke-linejoin:miter;stroke-width:0.8;"/>
   </g>
   <g id="patch_5">
    <path d="M 57.6 307.584 
L 414.72 307.584 
" style="fill:none;stroke:#000000;stroke-linecap:square;stroke-linejoin:miter;stroke-width:0.8;"/>
   </g>
   <g id="patch_6">
    <path d="M 57.6 41.472 
L 414.72 41.472 
" style="fill:none;stroke:#000000;stroke-linecap:square;stroke-linejoin:miter;stroke-width:0.8;"/>
   </g>
   <g id="text_33">
    <!-- tbb::parallel_sort O3 OMP AVX2 on pre_transpose10 -->
    <defs>
     <path d="M 48.6875 27.296875 
Q 48.6875 37.203125 44.609375 42.84375 
Q 40.53125 48.484375 33.40625 48.484375 
Q 26.265625 48.484375 22.1875 42.84375 
Q 18.109375 37.203125 18.109375 27.296875 
Q 18.109375 17.390625 22.1875 11.75 
Q 26.265625 6.109375 33.40625 6.109375 
Q 40.53125 6.109375 44.609375 11.75 
Q 48.6875 17.390625 48.6875 27.296875 
z
M 18.109375 46.390625 
Q 20.953125 51.265625 25.265625 53.625 
Q 29.59375 56 35.59375 56 
Q 45.5625 56 51.78125 48.09375 
Q 58.015625 40.1875 58.015625 27.296875 
Q 58.015625 14.40625 51.78125 6.484375 
Q 45.5625 -1.421875 35.59375 -1.421875 
Q 29.59375 -1.421875 25.265625 0.953125 
Q 20.953125 3.328125 18.109375 8.203125 
L 18.109375 0 
L 9.078125 0 
L 9.078125 75.984375 
L 18.109375 75.984375 
z
" id="DejaVuSans-98"/>
     <path d="M 11.71875 12.40625 
L 22.015625 12.40625 
L 22.015625 0 
L 11.71875 0 
z
M 11.71875 51.703125 
L 22.015625 51.703125 
L 22.015625 39.3125 
L 11.71875 39.3125 
z
" id="DejaVuSans-58"/>
     <path d="M 18.109375 8.203125 
L 18.109375 -20.796875 
L 9.078125 -20.796875 
L 9.078125 54.6875 
L 18.109375 54.6875 
L 18.109375 46.390625 
Q 20.953125 51.265625 25.265625 53.625 
Q 29.59375 56 35.59375 56 
Q 45.5625 56 51.78125 48.09375 
Q 58.015625 40.1875 58.015625 27.296875 
Q 58.015625 14.40625 51.78125 6.484375 
Q 45.5625 -1.421875 35.59375 -1.421875 
Q 29.59375 -1.421875 25.265625 0.953125 
Q 20.953125 3.328125 18.109375 8.203125 
z
M 48.6875 27.296875 
Q 48.6875 37.203125 44.609375 42.84375 
Q 40.53125 48.484375 33.40625 48.484375 
Q 26.265625 48.484375 22.1875 42.84375 
Q 18.109375 37.203125 18.109375 27.296875 
Q 18.109375 17.390625 22.1875 11.75 
Q 26.265625 6.109375 33.40625 6.109375 
Q 40.53125 6.109375 44.609375 11.75 
Q 48.6875 17.390625 48.6875 27.296875 
z
" id="DejaVuSans-112"/>
     <path d="M 9.421875 75.984375 
L 18.40625 75.984375 
L 18.40625 0 
L 9.421875 0 
z
" id="DejaVuSans-108"/>
     <path d="M 50.984375 -16.609375 
L 50.984375 -23.578125 
L -0.984375 -23.578125 
L -0.984375 -16.609375 
z
" id="DejaVuSans-95"/>
     <path d="M 39.40625 66.21875 
Q 28.65625 66.21875 22.328125 58.203125 
Q 16.015625 50.203125 16.015625 36.375 
Q 16.015625 22.609375 22.328125 14.59375 
Q 28.65625 6.59375 39.40625 6.59375 
Q 50.140625 6.59375 56.421875 14.59375 
Q 62.703125 22.609375 62.703125 36.375 
Q 62.703125 50.203125 56.421875 58.203125 
Q 50.140625 66.21875 39.40625 66.21875 
z
M 39.40625 74.21875 
Q 54.734375 74.21875 63.90625 63.9375 
Q 73.09375 53.65625 73.09375 36.375 
Q 73.09375 19.140625 63.90625 8.859375 
Q 54.734375 -1.421875 39.40625 -1.421875 
Q 24.03125 -1.421875 14.8125 8.828125 
Q 5.609375 19.09375 5.609375 36.375 
Q 5.609375 53.65625 14.8125 63.9375 
Q 24.03125 74.21875 39.40625 74.21875 
z
" id="DejaVuSans-79"/>
     <path d="M 9.8125 72.90625 
L 24.515625 72.90625 
L 43.109375 23.296875 
L 61.8125 72.90625 
L 76.515625 72.90625 
L 76.515625 0 
L 66.890625 0 
L 66.890625 64.015625 
L 48.09375 14.015625 
L 38.1875 14.015625 
L 19.390625 64.015625 
L 19.390625 0 
L 9.8125 0 
z
" id="DejaVuSans-77"/>
     <path d="M 19.671875 64.796875 
L 19.671875 37.40625 
L 32.078125 37.40625 
Q 38.96875 37.40625 42.71875 40.96875 
Q 46.484375 44.53125 46.484375 51.125 
Q 46.484375 57.671875 42.71875 61.234375 
Q 38.96875 64.796875 32.078125 64.796875 
z
M 9.8125 72.90625 
L 32.078125 72.90625 
Q 44.34375 72.90625 50.609375 67.359375 
Q 56.890625 61.8125 56.890625 51.125 
Q 56.890625 40.328125 50.609375 34.8125 
Q 44.34375 29.296875 32.078125 29.296875 
L 19.671875 29.296875 
L 19.671875 0 
L 9.8125 0 
z
" id="DejaVuSans-80"/>
     <path d="M 34.1875 63.1875 
L 20.796875 26.90625 
L 47.609375 26.90625 
z
M 28.609375 72.90625 
L 39.796875 72.90625 
L 67.578125 0 
L 57.328125 0 
L 50.6875 18.703125 
L 17.828125 18.703125 
L 11.1875 0 
L 0.78125 0 
z
" id="DejaVuSans-65"/>
     <path d="M 28.609375 0 
L 0.78125 72.90625 
L 11.078125 72.90625 
L 34.1875 11.53125 
L 57.328125 72.90625 
L 67.578125 72.90625 
L 39.796875 0 
z
" id="DejaVuSans-86"/>
     <path d="M 6.296875 72.90625 
L 16.890625 72.90625 
L 35.015625 45.796875 
L 53.21875 72.90625 
L 63.8125 72.90625 
L 40.375 37.890625 
L 65.375 0 
L 54.78125 0 
L 34.28125 31 
L 13.625 0 
L 2.984375 0 
L 29 38.921875 
z
" id="DejaVuSans-88"/>
    </defs>
    <g transform="translate(80.200312 35.472)scale(0.12 -0.12)">
     <use xlink:href="#DejaVuSans-116"/>
     <use x="39.208984" xlink:href="#DejaVuSans-98"/>
     <use x="102.685547" xlink:href="#DejaVuSans-98"/>
     <use x="166.162109" xlink:href="#DejaVuSans-58"/>
     <use x="199.853516" xlink:href="#DejaVuSans-58"/>
     <use x="233.544922" xlink:href="#DejaVuSans-112"/>
     <use x="297.021484" xlink:href="#DejaVuSans-97"/>
     <use x="358.300781" xlink:href="#DejaVuSans-114"/>
     <use x="399.414062" xlink:href="#DejaVuSans-97"/>
     <use x="460.693359" xlink:href="#DejaVuSans-108"/>
     <use x="488.476562" xlink:href="#DejaVuSans-108"/>
     <use x="516.259766" xlink:href="#DejaVuSans-101"/>
     <use x="577.783203" xlink:href="#DejaVuSans-108"/>
     <use x="605.566406" xlink:href="#DejaVuSans-95"/>
     <use x="655.566406" xlink:href="#DejaVuSans-115"/>
     <use x="707.666016" xlink:href="#DejaVuSans-111"/>
     <use x="768.847656" xlink:href="#DejaVuSans-114"/>
     <use x="809.960938" xlink:href="#DejaVuSans-116"/>
     <use x="849.169922" xlink:href="#DejaVuSans-32"/>
     <use x="880.957031" xlink:href="#DejaVuSans-79"/>
     <use x="959.667969" xlink:href="#DejaVuSans-51"/>
     <use x="1023.291016" xlink:href="#DejaVuSans-32"/>
     <use x="1055.078125" xlink:href="#DejaVuSans-79"/>
     <use x="1133.789062" xlink:href="#DejaVuSans-77"/>
     <use x="1220.068359" xlink:href="#DejaVuSans-80"/>
     <use x="1280.371094" xlink:href="#DejaVuSans-32"/>
     <use x="1312.158203" xlink:href="#DejaVuSans-65"/>
     <use x="1374.191406" xlink:href="#DejaVuSans-86"/>
     <use x="1442.599609" xlink:href="#DejaVuSans-88"/>
     <use x="1511.105469" xlink:href="#DejaVuSans-50"/>
     <use x="1574.728516" xlink:href="#DejaVuSans-32"/>
     <use x="1606.515625" xlink:href="#DejaVuSans-111"/>
     <use x="1667.697266" xlink:href="#DejaVuSans-110"/>
     <use x="1731.076172" xlink:href="#DejaVuSans-32"/>
     <use x="1762.863281" xlink:href="#DejaVuSans-112"/>
     <use x="1826.339844" xlink:href="#DejaVuSans-114"/>
     <use x="1865.203125" xlink:href="#DejaVuSans-101"/>
     <use x="1926.726562" xlink:href="#DejaVuSans-95"/>
     <use x="1976.726562" xlink:href="#DejaVuSans-116"/>
     <use x="2015.935547" xlink:href="#DejaVuSans-114"/>
     <use x="2057.048828" xlink:href="#DejaVuSans-97"/>
     <use x="2118.328125" xlink:href="#DejaVuSans-110"/>
     <use x="2181.707031" xlink:href="#DejaVuSans-115"/>
     <use x="2233.806641" xlink:href="#DejaVuSans-112"/>
     <use x="2297.283203" xlink:href="#DejaVuSans-111"/>
     <use x="2358.464844" xlink:href="#DejaVuSans-115"/>
     <use x="2410.564453" xlink:href="#DejaVuSans-101"/>
     <use x="2472.087891" xlink:href="#DejaVuSans-49"/>
     <use x="2535.710938" xlink:href="#DejaVuSans-48"/>
    </g>
   </g>
   <g id="legend_1">
    <g id="patch_7">
     <path d="M 64.6 93.7845 
L 159.167188 93.7845 
Q 161.167188 93.7845 161.167188 91.7845 
L 161.167188 48.472 
Q 161.167188 46.472 159.167188 46.472 
L 64.6 46.472 
Q 62.6 46.472 62.6 48.472 
L 62.6 91.7845 
Q 62.6 93.7845 64.6 93.7845 
z
" style="fill:#ffffff;opacity:0.8;stroke:#cccccc;stroke-linejoin:miter;"/>
    </g>
    <g id="line2d_64">
     <path d="M 66.6 54.570438 
L 86.6 54.570438 
" style="fill:none;stroke:#0000ff;stroke-dasharray:1.5,2.475;stroke-dashoffset:0;stroke-width:1.5;"/>
    </g>
    <g id="line2d_65">
     <g>
      <use style="fill:#0000ff;stroke:#0000ff;" x="76.6" xlink:href="#m70bff54e14" y="54.570438"/>
     </g>
    </g>
    <g id="text_34">
     <!-- transpose -->
     <g transform="translate(94.6 58.070438)scale(0.1 -0.1)">
      <use xlink:href="#DejaVuSans-116"/>
      <use x="39.208984" xlink:href="#DejaVuSans-114"/>
      <use x="80.322266" xlink:href="#DejaVuSans-97"/>
      <use x="141.601562" xlink:href="#DejaVuSans-110"/>
      <use x="204.980469" xlink:href="#DejaVuSans-115"/>
      <use x="257.080078" xlink:href="#DejaVuSans-112"/>
      <use x="320.556641" xlink:href="#DejaVuSans-111"/>
      <use x="381.738281" xlink:href="#DejaVuSans-115"/>
      <use x="433.837891" xlink:href="#DejaVuSans-101"/>
     </g>
    </g>
    <g id="line2d_66">
     <path d="M 66.6 69.248563 
L 86.6 69.248563 
" style="fill:none;stroke:#ff0000;stroke-dasharray:1.5,2.475;stroke-dashoffset:0;stroke-width:1.5;"/>
    </g>
    <g id="line2d_67">
     <g>
      <use style="fill:#ff0000;stroke:#ff0000;" x="76.6" xlink:href="#m9234c4c30e" y="69.248563"/>
     </g>
    </g>
    <g id="text_35">
     <!-- transpose_tr -->
     <g transform="translate(94.6 72.748563)scale(0.1 -0.1)">
      <use xlink:href="#DejaVuSans-116"/>
      <use x="39.208984" xlink:href="#DejaVuSans-114"/>
      <use x="80.322266" xlink:href="#DejaVuSans-97"/>
      <use x="141.601562" xlink:href="#DejaVuSans-110"/>
      <use x="204.980469" xlink:href="#DejaVuSans-115"/>
      <use x="257.080078" xlink:href="#DejaVuSans-112"/>
      <use x="320.556641" xlink:href="#DejaVuSans-111"/>
      <use x="381.738281" xlink:href="#DejaVuSans-115"/>
      <use x="433.837891" xlink:href="#DejaVuSans-101"/>
      <use x="495.361328" xlink:href="#DejaVuSans-95"/>
      <use x="545.361328" xlink:href="#DejaVuSans-116"/>
      <use x="584.570312" xlink:href="#DejaVuSans-114"/>
     </g>
    </g>
    <g id="line2d_68">
     <path d="M 66.6 84.204813 
L 86.6 84.204813 
" style="fill:none;stroke:#008000;stroke-dasharray:1.5,2.475;stroke-dashoffset:0;stroke-width:1.5;"/>
    </g>
    <g id="line2d_69">
     <g>
      <use style="fill:#008000;stroke:#008000;" x="76.6" xlink:href="#m7dc7068028" y="84.204813"/>
     </g>
    </g>
    <g id="text_36">
     <!-- mean -->
     <defs>
      <path d="M 52 44.1875 
Q 55.375 50.25 60.0625 53.125 
Q 64.75 56 71.09375 56 
Q 79.640625 56 84.28125 50.015625 
Q 88.921875 44.046875 88.921875 33.015625 
L 88.921875 0 
L 79.890625 0 
L 79.890625 32.71875 
Q 79.890625 40.578125 77.09375 44.375 
Q 74.3125 48.1875 68.609375 48.1875 
Q 61.625 48.1875 57.5625 43.546875 
Q 53.515625 38.921875 53.515625 30.90625 
L 53.515625 0 
L 44.484375 0 
L 44.484375 32.71875 
Q 44.484375 40.625 41.703125 44.40625 
Q 38.921875 48.1875 33.109375 48.1875 
Q 26.21875 48.1875 22.15625 43.53125 
Q 18.109375 38.875 18.109375 30.90625 
L 18.109375 0 
L 9.078125 0 
L 9.078125 54.6875 
L 18.109375 54.6875 
L 18.109375 46.1875 
Q 21.1875 51.21875 25.484375 53.609375 
Q 29.78125 56 35.6875 56 
Q 41.65625 56 45.828125 52.96875 
Q 50 49.953125 52 44.1875 
z
" id="DejaVuSans-109"/>
     </defs>
     <g transform="translate(94.6 87.704813)scale(0.1 -0.1)">
      <use xlink:href="#DejaVuSans-109"/>
      <use x="97.412109" xlink:href="#DejaVuSans-101"/>
      <use x="158.935547" xlink:href="#DejaVuSans-97"/>
      <use x="220.214844" xlink:href="#DejaVuSans-110"/>
     </g>
    </g>
   </g>
  </g>
 </g>
 <defs>
  <clipPath id="p48857ede9d">
   <rect height="266.112" width="357.12" x="57.6" y="41.472"/>
  </clipPath>
 </defs>
</svg>
