<?xml version="1.0" encoding="utf-8" standalone="no"?>
<!DOCTYPE svg PUBLIC "-//W3C//DTD SVG 1.1//EN"
  "http://www.w3.org/Graphics/SVG/1.1/DTD/svg11.dtd">
<!-- Created with matplotlib (https://matplotlib.org/) -->
<svg height="345.6pt" version="1.1" viewBox="0 0 460.8 345.6" width="460.8pt" xmlns="http://www.w3.org/2000/svg" xmlns:xlink="http://www.w3.org/1999/xlink">
 <metadata>
  <rdf:RDF xmlns:cc="http://creativecommons.org/ns#" xmlns:dc="http://purl.org/dc/elements/1.1/" xmlns:rdf="http://www.w3.org/1999/02/22-rdf-syntax-ns#">
   <cc:Work>
    <dc:type rdf:resource="http://purl.org/dc/dcmitype/StillImage"/>
    <dc:date>2020-08-24T19:59:17.233408</dc:date>
    <dc:format>image/svg+xml</dc:format>
    <dc:creator>
     <cc:Agent>
      <dc:title>Matplotlib v3.3.1, https://matplotlib.org/</dc:title>
     </cc:Agent>
    </dc:creator>
   </cc:Work>
  </rdf:RDF>
 </metadata>
 <defs>
  <style type="text/css">*{stroke-linecap:butt;stroke-linejoin:round;}</style>
 </defs>
 <g id="figure_1">
  <g id="patch_1">
   <path d="M 0 345.6 
L 460.8 345.6 
L 460.8 0 
L 0 0 
z
" style="fill:#ffffff;"/>
  </g>
  <g id="axes_1">
   <g id="patch_2">
    <path d="M 57.6 307.584 
L 414.72 307.584 
L 414.72 41.472 
L 57.6 41.472 
z
" style="fill:#ffffff;"/>
   </g>
   <g id="matplotlib.axis_1">
    <g id="xtick_1">
     <g id="line2d_1">
      <path clip-path="url(#pa7b6a8e5f1)" d="M 61.612584 307.584 
L 61.612584 41.472 
" style="fill:none;stroke:#b0b0b0;stroke-dasharray:5.12,1.28,0.8,1.28;stroke-dashoffset:0;stroke-width:0.8;"/>
     </g>
     <g id="line2d_2">
      <defs>
       <path d="M 0 0 
L 0 3.5 
" id="mb1c26bc5e1" style="stroke:#000000;stroke-width:0.8;"/>
      </defs>
      <g>
       <use style="stroke:#000000;stroke-width:0.8;" x="61.612584" xlink:href="#mb1c26bc5e1" y="307.584"/>
      </g>
     </g>
     <g id="text_1">
      <!-- 1 -->
      <g transform="translate(58.431334 322.182437)scale(0.1 -0.1)">
       <defs>
        <path d="M 12.40625 8.296875 
L 28.515625 8.296875 
L 28.515625 63.921875 
L 10.984375 60.40625 
L 10.984375 69.390625 
L 28.421875 72.90625 
L 38.28125 72.90625 
L 38.28125 8.296875 
L 54.390625 8.296875 
L 54.390625 0 
L 12.40625 0 
z
" id="DejaVuSans-49"/>
       </defs>
       <use xlink:href="#DejaVuSans-49"/>
      </g>
     </g>
    </g>
    <g id="xtick_2">
     <g id="line2d_3">
      <path clip-path="url(#pa7b6a8e5f1)" d="M 73.650337 307.584 
L 73.650337 41.472 
" style="fill:none;stroke:#b0b0b0;stroke-dasharray:5.12,1.28,0.8,1.28;stroke-dashoffset:0;stroke-width:0.8;"/>
     </g>
     <g id="line2d_4">
      <g>
       <use style="stroke:#000000;stroke-width:0.8;" x="73.650337" xlink:href="#mb1c26bc5e1" y="307.584"/>
      </g>
     </g>
     <g id="text_2">
      <!-- 4 -->
      <g transform="translate(70.469087 322.182437)scale(0.1 -0.1)">
       <defs>
        <path d="M 37.796875 64.3125 
L 12.890625 25.390625 
L 37.796875 25.390625 
z
M 35.203125 72.90625 
L 47.609375 72.90625 
L 47.609375 25.390625 
L 58.015625 25.390625 
L 58.015625 17.1875 
L 47.609375 17.1875 
L 47.609375 0 
L 37.796875 0 
L 37.796875 17.1875 
L 4.890625 17.1875 
L 4.890625 26.703125 
z
" id="DejaVuSans-52"/>
       </defs>
       <use xlink:href="#DejaVuSans-52"/>
      </g>
     </g>
    </g>
    <g id="xtick_3">
     <g id="line2d_5">
      <path clip-path="url(#pa7b6a8e5f1)" d="M 89.700674 307.584 
L 89.700674 41.472 
" style="fill:none;stroke:#b0b0b0;stroke-dasharray:5.12,1.28,0.8,1.28;stroke-dashoffset:0;stroke-width:0.8;"/>
     </g>
     <g id="line2d_6">
      <g>
       <use style="stroke:#000000;stroke-width:0.8;" x="89.700674" xlink:href="#mb1c26bc5e1" y="307.584"/>
      </g>
     </g>
     <g id="text_3">
      <!-- 8 -->
      <g transform="translate(86.519424 322.182437)scale(0.1 -0.1)">
       <defs>
        <path d="M 31.78125 34.625 
Q 24.75 34.625 20.71875 30.859375 
Q 16.703125 27.09375 16.703125 20.515625 
Q 16.703125 13.921875 20.71875 10.15625 
Q 24.75 6.390625 31.78125 6.390625 
Q 38.8125 6.390625 42.859375 10.171875 
Q 46.921875 13.96875 46.921875 20.515625 
Q 46.921875 27.09375 42.890625 30.859375 
Q 38.875 34.625 31.78125 34.625 
z
M 21.921875 38.8125 
Q 15.578125 40.375 12.03125 44.71875 
Q 8.5 49.078125 8.5 55.328125 
Q 8.5 64.0625 14.71875 69.140625 
Q 20.953125 74.21875 31.78125 74.21875 
Q 42.671875 74.21875 48.875 69.140625 
Q 55.078125 64.0625 55.078125 55.328125 
Q 55.078125 49.078125 51.53125 44.71875 
Q 48 40.375 41.703125 38.8125 
Q 48.828125 37.15625 52.796875 32.3125 
Q 56.78125 27.484375 56.78125 20.515625 
Q 56.78125 9.90625 50.3125 4.234375 
Q 43.84375 -1.421875 31.78125 -1.421875 
Q 19.734375 -1.421875 13.25 4.234375 
Q 6.78125 9.90625 6.78125 20.515625 
Q 6.78125 27.484375 10.78125 32.3125 
Q 14.796875 37.15625 21.921875 38.8125 
z
M 18.3125 54.390625 
Q 18.3125 48.734375 21.84375 45.5625 
Q 25.390625 42.390625 31.78125 42.390625 
Q 38.140625 42.390625 41.71875 45.5625 
Q 45.3125 48.734375 45.3125 54.390625 
Q 45.3125 60.0625 41.71875 63.234375 
Q 38.140625 66.40625 31.78125 66.40625 
Q 25.390625 66.40625 21.84375 63.234375 
Q 18.3125 60.0625 18.3125 54.390625 
z
" id="DejaVuSans-56"/>
       </defs>
       <use xlink:href="#DejaVuSans-56"/>
      </g>
     </g>
    </g>
    <g id="xtick_4">
     <g id="line2d_7">
      <path clip-path="url(#pa7b6a8e5f1)" d="M 105.751011 307.584 
L 105.751011 41.472 
" style="fill:none;stroke:#b0b0b0;stroke-dasharray:5.12,1.28,0.8,1.28;stroke-dashoffset:0;stroke-width:0.8;"/>
     </g>
     <g id="line2d_8">
      <g>
       <use style="stroke:#000000;stroke-width:0.8;" x="105.751011" xlink:href="#mb1c26bc5e1" y="307.584"/>
      </g>
     </g>
     <g id="text_4">
      <!-- 12 -->
      <g transform="translate(99.388511 322.182437)scale(0.1 -0.1)">
       <defs>
        <path d="M 19.1875 8.296875 
L 53.609375 8.296875 
L 53.609375 0 
L 7.328125 0 
L 7.328125 8.296875 
Q 12.9375 14.109375 22.625 23.890625 
Q 32.328125 33.6875 34.8125 36.53125 
Q 39.546875 41.84375 41.421875 45.53125 
Q 43.3125 49.21875 43.3125 52.78125 
Q 43.3125 58.59375 39.234375 62.25 
Q 35.15625 65.921875 28.609375 65.921875 
Q 23.96875 65.921875 18.8125 64.3125 
Q 13.671875 62.703125 7.8125 59.421875 
L 7.8125 69.390625 
Q 13.765625 71.78125 18.9375 73 
Q 24.125 74.21875 28.421875 74.21875 
Q 39.75 74.21875 46.484375 68.546875 
Q 53.21875 62.890625 53.21875 53.421875 
Q 53.21875 48.921875 51.53125 44.890625 
Q 49.859375 40.875 45.40625 35.40625 
Q 44.1875 33.984375 37.640625 27.21875 
Q 31.109375 20.453125 19.1875 8.296875 
z
" id="DejaVuSans-50"/>
       </defs>
       <use xlink:href="#DejaVuSans-49"/>
       <use x="63.623047" xlink:href="#DejaVuSans-50"/>
      </g>
     </g>
    </g>
    <g id="xtick_5">
     <g id="line2d_9">
      <path clip-path="url(#pa7b6a8e5f1)" d="M 121.801348 307.584 
L 121.801348 41.472 
" style="fill:none;stroke:#b0b0b0;stroke-dasharray:5.12,1.28,0.8,1.28;stroke-dashoffset:0;stroke-width:0.8;"/>
     </g>
     <g id="line2d_10">
      <g>
       <use style="stroke:#000000;stroke-width:0.8;" x="121.801348" xlink:href="#mb1c26bc5e1" y="307.584"/>
      </g>
     </g>
     <g id="text_5">
      <!-- 16 -->
      <g transform="translate(115.438848 322.182437)scale(0.1 -0.1)">
       <defs>
        <path d="M 33.015625 40.375 
Q 26.375 40.375 22.484375 35.828125 
Q 18.609375 31.296875 18.609375 23.390625 
Q 18.609375 15.53125 22.484375 10.953125 
Q 26.375 6.390625 33.015625 6.390625 
Q 39.65625 6.390625 43.53125 10.953125 
Q 47.40625 15.53125 47.40625 23.390625 
Q 47.40625 31.296875 43.53125 35.828125 
Q 39.65625 40.375 33.015625 40.375 
z
M 52.59375 71.296875 
L 52.59375 62.3125 
Q 48.875 64.0625 45.09375 64.984375 
Q 41.3125 65.921875 37.59375 65.921875 
Q 27.828125 65.921875 22.671875 59.328125 
Q 17.53125 52.734375 16.796875 39.40625 
Q 19.671875 43.65625 24.015625 45.921875 
Q 28.375 48.1875 33.59375 48.1875 
Q 44.578125 48.1875 50.953125 41.515625 
Q 57.328125 34.859375 57.328125 23.390625 
Q 57.328125 12.15625 50.6875 5.359375 
Q 44.046875 -1.421875 33.015625 -1.421875 
Q 20.359375 -1.421875 13.671875 8.265625 
Q 6.984375 17.96875 6.984375 36.375 
Q 6.984375 53.65625 15.1875 63.9375 
Q 23.390625 74.21875 37.203125 74.21875 
Q 40.921875 74.21875 44.703125 73.484375 
Q 48.484375 72.75 52.59375 71.296875 
z
" id="DejaVuSans-54"/>
       </defs>
       <use xlink:href="#DejaVuSans-49"/>
       <use x="63.623047" xlink:href="#DejaVuSans-54"/>
      </g>
     </g>
    </g>
    <g id="xtick_6">
     <g id="line2d_11">
      <path clip-path="url(#pa7b6a8e5f1)" d="M 137.851685 307.584 
L 137.851685 41.472 
" style="fill:none;stroke:#b0b0b0;stroke-dasharray:5.12,1.28,0.8,1.28;stroke-dashoffset:0;stroke-width:0.8;"/>
     </g>
     <g id="line2d_12">
      <g>
       <use style="stroke:#000000;stroke-width:0.8;" x="137.851685" xlink:href="#mb1c26bc5e1" y="307.584"/>
      </g>
     </g>
     <g id="text_6">
      <!-- 20 -->
      <g transform="translate(131.489185 322.182437)scale(0.1 -0.1)">
       <defs>
        <path d="M 31.78125 66.40625 
Q 24.171875 66.40625 20.328125 58.90625 
Q 16.5 51.421875 16.5 36.375 
Q 16.5 21.390625 20.328125 13.890625 
Q 24.171875 6.390625 31.78125 6.390625 
Q 39.453125 6.390625 43.28125 13.890625 
Q 47.125 21.390625 47.125 36.375 
Q 47.125 51.421875 43.28125 58.90625 
Q 39.453125 66.40625 31.78125 66.40625 
z
M 31.78125 74.21875 
Q 44.046875 74.21875 50.515625 64.515625 
Q 56.984375 54.828125 56.984375 36.375 
Q 56.984375 17.96875 50.515625 8.265625 
Q 44.046875 -1.421875 31.78125 -1.421875 
Q 19.53125 -1.421875 13.0625 8.265625 
Q 6.59375 17.96875 6.59375 36.375 
Q 6.59375 54.828125 13.0625 64.515625 
Q 19.53125 74.21875 31.78125 74.21875 
z
" id="DejaVuSans-48"/>
       </defs>
       <use xlink:href="#DejaVuSans-50"/>
       <use x="63.623047" xlink:href="#DejaVuSans-48"/>
      </g>
     </g>
    </g>
    <g id="xtick_7">
     <g id="line2d_13">
      <path clip-path="url(#pa7b6a8e5f1)" d="M 153.902022 307.584 
L 153.902022 41.472 
" style="fill:none;stroke:#b0b0b0;stroke-dasharray:5.12,1.28,0.8,1.28;stroke-dashoffset:0;stroke-width:0.8;"/>
     </g>
     <g id="line2d_14">
      <g>
       <use style="stroke:#000000;stroke-width:0.8;" x="153.902022" xlink:href="#mb1c26bc5e1" y="307.584"/>
      </g>
     </g>
     <g id="text_7">
      <!-- 24 -->
      <g transform="translate(147.539522 322.182437)scale(0.1 -0.1)">
       <use xlink:href="#DejaVuSans-50"/>
       <use x="63.623047" xlink:href="#DejaVuSans-52"/>
      </g>
     </g>
    </g>
    <g id="xtick_8">
     <g id="line2d_15">
      <path clip-path="url(#pa7b6a8e5f1)" d="M 169.95236 307.584 
L 169.95236 41.472 
" style="fill:none;stroke:#b0b0b0;stroke-dasharray:5.12,1.28,0.8,1.28;stroke-dashoffset:0;stroke-width:0.8;"/>
     </g>
     <g id="line2d_16">
      <g>
       <use style="stroke:#000000;stroke-width:0.8;" x="169.95236" xlink:href="#mb1c26bc5e1" y="307.584"/>
      </g>
     </g>
     <g id="text_8">
      <!-- 28 -->
      <g transform="translate(163.58986 322.182437)scale(0.1 -0.1)">
       <use xlink:href="#DejaVuSans-50"/>
       <use x="63.623047" xlink:href="#DejaVuSans-56"/>
      </g>
     </g>
    </g>
    <g id="xtick_9">
     <g id="line2d_17">
      <path clip-path="url(#pa7b6a8e5f1)" d="M 186.002697 307.584 
L 186.002697 41.472 
" style="fill:none;stroke:#b0b0b0;stroke-dasharray:5.12,1.28,0.8,1.28;stroke-dashoffset:0;stroke-width:0.8;"/>
     </g>
     <g id="line2d_18">
      <g>
       <use style="stroke:#000000;stroke-width:0.8;" x="186.002697" xlink:href="#mb1c26bc5e1" y="307.584"/>
      </g>
     </g>
     <g id="text_9">
      <!-- 32 -->
      <g transform="translate(179.640197 322.182437)scale(0.1 -0.1)">
       <defs>
        <path d="M 40.578125 39.3125 
Q 47.65625 37.796875 51.625 33 
Q 55.609375 28.21875 55.609375 21.1875 
Q 55.609375 10.40625 48.1875 4.484375 
Q 40.765625 -1.421875 27.09375 -1.421875 
Q 22.515625 -1.421875 17.65625 -0.515625 
Q 12.796875 0.390625 7.625 2.203125 
L 7.625 11.71875 
Q 11.71875 9.328125 16.59375 8.109375 
Q 21.484375 6.890625 26.8125 6.890625 
Q 36.078125 6.890625 40.9375 10.546875 
Q 45.796875 14.203125 45.796875 21.1875 
Q 45.796875 27.640625 41.28125 31.265625 
Q 36.765625 34.90625 28.71875 34.90625 
L 20.21875 34.90625 
L 20.21875 43.015625 
L 29.109375 43.015625 
Q 36.375 43.015625 40.234375 45.921875 
Q 44.09375 48.828125 44.09375 54.296875 
Q 44.09375 59.90625 40.109375 62.90625 
Q 36.140625 65.921875 28.71875 65.921875 
Q 24.65625 65.921875 20.015625 65.03125 
Q 15.375 64.15625 9.8125 62.3125 
L 9.8125 71.09375 
Q 15.4375 72.65625 20.34375 73.4375 
Q 25.25 74.21875 29.59375 74.21875 
Q 40.828125 74.21875 47.359375 69.109375 
Q 53.90625 64.015625 53.90625 55.328125 
Q 53.90625 49.265625 50.4375 45.09375 
Q 46.96875 40.921875 40.578125 39.3125 
z
" id="DejaVuSans-51"/>
       </defs>
       <use xlink:href="#DejaVuSans-51"/>
       <use x="63.623047" xlink:href="#DejaVuSans-50"/>
      </g>
     </g>
    </g>
    <g id="xtick_10">
     <g id="line2d_19">
      <path clip-path="url(#pa7b6a8e5f1)" d="M 202.053034 307.584 
L 202.053034 41.472 
" style="fill:none;stroke:#b0b0b0;stroke-dasharray:5.12,1.28,0.8,1.28;stroke-dashoffset:0;stroke-width:0.8;"/>
     </g>
     <g id="line2d_20">
      <g>
       <use style="stroke:#000000;stroke-width:0.8;" x="202.053034" xlink:href="#mb1c26bc5e1" y="307.584"/>
      </g>
     </g>
     <g id="text_10">
      <!-- 36 -->
      <g transform="translate(195.690534 322.182437)scale(0.1 -0.1)">
       <use xlink:href="#DejaVuSans-51"/>
       <use x="63.623047" xlink:href="#DejaVuSans-54"/>
      </g>
     </g>
    </g>
    <g id="xtick_11">
     <g id="line2d_21">
      <path clip-path="url(#pa7b6a8e5f1)" d="M 218.103371 307.584 
L 218.103371 41.472 
" style="fill:none;stroke:#b0b0b0;stroke-dasharray:5.12,1.28,0.8,1.28;stroke-dashoffset:0;stroke-width:0.8;"/>
     </g>
     <g id="line2d_22">
      <g>
       <use style="stroke:#000000;stroke-width:0.8;" x="218.103371" xlink:href="#mb1c26bc5e1" y="307.584"/>
      </g>
     </g>
     <g id="text_11">
      <!-- 40 -->
      <g transform="translate(211.740871 322.182437)scale(0.1 -0.1)">
       <use xlink:href="#DejaVuSans-52"/>
       <use x="63.623047" xlink:href="#DejaVuSans-48"/>
      </g>
     </g>
    </g>
    <g id="xtick_12">
     <g id="line2d_23">
      <path clip-path="url(#pa7b6a8e5f1)" d="M 234.153708 307.584 
L 234.153708 41.472 
" style="fill:none;stroke:#b0b0b0;stroke-dasharray:5.12,1.28,0.8,1.28;stroke-dashoffset:0;stroke-width:0.8;"/>
     </g>
     <g id="line2d_24">
      <g>
       <use style="stroke:#000000;stroke-width:0.8;" x="234.153708" xlink:href="#mb1c26bc5e1" y="307.584"/>
      </g>
     </g>
     <g id="text_12">
      <!-- 44 -->
      <g transform="translate(227.791208 322.182437)scale(0.1 -0.1)">
       <use xlink:href="#DejaVuSans-52"/>
       <use x="63.623047" xlink:href="#DejaVuSans-52"/>
      </g>
     </g>
    </g>
    <g id="xtick_13">
     <g id="line2d_25">
      <path clip-path="url(#pa7b6a8e5f1)" d="M 250.204045 307.584 
L 250.204045 41.472 
" style="fill:none;stroke:#b0b0b0;stroke-dasharray:5.12,1.28,0.8,1.28;stroke-dashoffset:0;stroke-width:0.8;"/>
     </g>
     <g id="line2d_26">
      <g>
       <use style="stroke:#000000;stroke-width:0.8;" x="250.204045" xlink:href="#mb1c26bc5e1" y="307.584"/>
      </g>
     </g>
     <g id="text_13">
      <!-- 48 -->
      <g transform="translate(243.841545 322.182437)scale(0.1 -0.1)">
       <use xlink:href="#DejaVuSans-52"/>
       <use x="63.623047" xlink:href="#DejaVuSans-56"/>
      </g>
     </g>
    </g>
    <g id="xtick_14">
     <g id="line2d_27">
      <path clip-path="url(#pa7b6a8e5f1)" d="M 266.254382 307.584 
L 266.254382 41.472 
" style="fill:none;stroke:#b0b0b0;stroke-dasharray:5.12,1.28,0.8,1.28;stroke-dashoffset:0;stroke-width:0.8;"/>
     </g>
     <g id="line2d_28">
      <g>
       <use style="stroke:#000000;stroke-width:0.8;" x="266.254382" xlink:href="#mb1c26bc5e1" y="307.584"/>
      </g>
     </g>
     <g id="text_14">
      <!-- 52 -->
      <g transform="translate(259.891882 322.182437)scale(0.1 -0.1)">
       <defs>
        <path d="M 10.796875 72.90625 
L 49.515625 72.90625 
L 49.515625 64.59375 
L 19.828125 64.59375 
L 19.828125 46.734375 
Q 21.96875 47.46875 24.109375 47.828125 
Q 26.265625 48.1875 28.421875 48.1875 
Q 40.625 48.1875 47.75 41.5 
Q 54.890625 34.8125 54.890625 23.390625 
Q 54.890625 11.625 47.5625 5.09375 
Q 40.234375 -1.421875 26.90625 -1.421875 
Q 22.3125 -1.421875 17.546875 -0.640625 
Q 12.796875 0.140625 7.71875 1.703125 
L 7.71875 11.625 
Q 12.109375 9.234375 16.796875 8.0625 
Q 21.484375 6.890625 26.703125 6.890625 
Q 35.15625 6.890625 40.078125 11.328125 
Q 45.015625 15.765625 45.015625 23.390625 
Q 45.015625 31 40.078125 35.4375 
Q 35.15625 39.890625 26.703125 39.890625 
Q 22.75 39.890625 18.8125 39.015625 
Q 14.890625 38.140625 10.796875 36.28125 
z
" id="DejaVuSans-53"/>
       </defs>
       <use xlink:href="#DejaVuSans-53"/>
       <use x="63.623047" xlink:href="#DejaVuSans-50"/>
      </g>
     </g>
    </g>
    <g id="xtick_15">
     <g id="line2d_29">
      <path clip-path="url(#pa7b6a8e5f1)" d="M 282.304719 307.584 
L 282.304719 41.472 
" style="fill:none;stroke:#b0b0b0;stroke-dasharray:5.12,1.28,0.8,1.28;stroke-dashoffset:0;stroke-width:0.8;"/>
     </g>
     <g id="line2d_30">
      <g>
       <use style="stroke:#000000;stroke-width:0.8;" x="282.304719" xlink:href="#mb1c26bc5e1" y="307.584"/>
      </g>
     </g>
     <g id="text_15">
      <!-- 56 -->
      <g transform="translate(275.942219 322.182437)scale(0.1 -0.1)">
       <use xlink:href="#DejaVuSans-53"/>
       <use x="63.623047" xlink:href="#DejaVuSans-54"/>
      </g>
     </g>
    </g>
    <g id="xtick_16">
     <g id="line2d_31">
      <path clip-path="url(#pa7b6a8e5f1)" d="M 298.355056 307.584 
L 298.355056 41.472 
" style="fill:none;stroke:#b0b0b0;stroke-dasharray:5.12,1.28,0.8,1.28;stroke-dashoffset:0;stroke-width:0.8;"/>
     </g>
     <g id="line2d_32">
      <g>
       <use style="stroke:#000000;stroke-width:0.8;" x="298.355056" xlink:href="#mb1c26bc5e1" y="307.584"/>
      </g>
     </g>
     <g id="text_16">
      <!-- 60 -->
      <g transform="translate(291.992556 322.182437)scale(0.1 -0.1)">
       <use xlink:href="#DejaVuSans-54"/>
       <use x="63.623047" xlink:href="#DejaVuSans-48"/>
      </g>
     </g>
    </g>
    <g id="xtick_17">
     <g id="line2d_33">
      <path clip-path="url(#pa7b6a8e5f1)" d="M 314.405393 307.584 
L 314.405393 41.472 
" style="fill:none;stroke:#b0b0b0;stroke-dasharray:5.12,1.28,0.8,1.28;stroke-dashoffset:0;stroke-width:0.8;"/>
     </g>
     <g id="line2d_34">
      <g>
       <use style="stroke:#000000;stroke-width:0.8;" x="314.405393" xlink:href="#mb1c26bc5e1" y="307.584"/>
      </g>
     </g>
     <g id="text_17">
      <!-- 64 -->
      <g transform="translate(308.042893 322.182437)scale(0.1 -0.1)">
       <use xlink:href="#DejaVuSans-54"/>
       <use x="63.623047" xlink:href="#DejaVuSans-52"/>
      </g>
     </g>
    </g>
    <g id="xtick_18">
     <g id="line2d_35">
      <path clip-path="url(#pa7b6a8e5f1)" d="M 330.45573 307.584 
L 330.45573 41.472 
" style="fill:none;stroke:#b0b0b0;stroke-dasharray:5.12,1.28,0.8,1.28;stroke-dashoffset:0;stroke-width:0.8;"/>
     </g>
     <g id="line2d_36">
      <g>
       <use style="stroke:#000000;stroke-width:0.8;" x="330.45573" xlink:href="#mb1c26bc5e1" y="307.584"/>
      </g>
     </g>
     <g id="text_18">
      <!-- 68 -->
      <g transform="translate(324.09323 322.182437)scale(0.1 -0.1)">
       <use xlink:href="#DejaVuSans-54"/>
       <use x="63.623047" xlink:href="#DejaVuSans-56"/>
      </g>
     </g>
    </g>
    <g id="xtick_19">
     <g id="line2d_37">
      <path clip-path="url(#pa7b6a8e5f1)" d="M 346.506067 307.584 
L 346.506067 41.472 
" style="fill:none;stroke:#b0b0b0;stroke-dasharray:5.12,1.28,0.8,1.28;stroke-dashoffset:0;stroke-width:0.8;"/>
     </g>
     <g id="line2d_38">
      <g>
       <use style="stroke:#000000;stroke-width:0.8;" x="346.506067" xlink:href="#mb1c26bc5e1" y="307.584"/>
      </g>
     </g>
     <g id="text_19">
      <!-- 72 -->
      <g transform="translate(340.143567 322.182437)scale(0.1 -0.1)">
       <defs>
        <path d="M 8.203125 72.90625 
L 55.078125 72.90625 
L 55.078125 68.703125 
L 28.609375 0 
L 18.3125 0 
L 43.21875 64.59375 
L 8.203125 64.59375 
z
" id="DejaVuSans-55"/>
       </defs>
       <use xlink:href="#DejaVuSans-55"/>
       <use x="63.623047" xlink:href="#DejaVuSans-50"/>
      </g>
     </g>
    </g>
    <g id="xtick_20">
     <g id="line2d_39">
      <path clip-path="url(#pa7b6a8e5f1)" d="M 362.556404 307.584 
L 362.556404 41.472 
" style="fill:none;stroke:#b0b0b0;stroke-dasharray:5.12,1.28,0.8,1.28;stroke-dashoffset:0;stroke-width:0.8;"/>
     </g>
     <g id="line2d_40">
      <g>
       <use style="stroke:#000000;stroke-width:0.8;" x="362.556404" xlink:href="#mb1c26bc5e1" y="307.584"/>
      </g>
     </g>
     <g id="text_20">
      <!-- 76 -->
      <g transform="translate(356.193904 322.182437)scale(0.1 -0.1)">
       <use xlink:href="#DejaVuSans-55"/>
       <use x="63.623047" xlink:href="#DejaVuSans-54"/>
      </g>
     </g>
    </g>
    <g id="xtick_21">
     <g id="line2d_41">
      <path clip-path="url(#pa7b6a8e5f1)" d="M 378.606742 307.584 
L 378.606742 41.472 
" style="fill:none;stroke:#b0b0b0;stroke-dasharray:5.12,1.28,0.8,1.28;stroke-dashoffset:0;stroke-width:0.8;"/>
     </g>
     <g id="line2d_42">
      <g>
       <use style="stroke:#000000;stroke-width:0.8;" x="378.606742" xlink:href="#mb1c26bc5e1" y="307.584"/>
      </g>
     </g>
     <g id="text_21">
      <!-- 80 -->
      <g transform="translate(372.244242 322.182437)scale(0.1 -0.1)">
       <use xlink:href="#DejaVuSans-56"/>
       <use x="63.623047" xlink:href="#DejaVuSans-48"/>
      </g>
     </g>
    </g>
    <g id="xtick_22">
     <g id="line2d_43">
      <path clip-path="url(#pa7b6a8e5f1)" d="M 394.657079 307.584 
L 394.657079 41.472 
" style="fill:none;stroke:#b0b0b0;stroke-dasharray:5.12,1.28,0.8,1.28;stroke-dashoffset:0;stroke-width:0.8;"/>
     </g>
     <g id="line2d_44">
      <g>
       <use style="stroke:#000000;stroke-width:0.8;" x="394.657079" xlink:href="#mb1c26bc5e1" y="307.584"/>
      </g>
     </g>
     <g id="text_22">
      <!-- 84 -->
      <g transform="translate(388.294579 322.182437)scale(0.1 -0.1)">
       <use xlink:href="#DejaVuSans-56"/>
       <use x="63.623047" xlink:href="#DejaVuSans-52"/>
      </g>
     </g>
    </g>
    <g id="xtick_23">
     <g id="line2d_45">
      <path clip-path="url(#pa7b6a8e5f1)" d="M 410.707416 307.584 
L 410.707416 41.472 
" style="fill:none;stroke:#b0b0b0;stroke-dasharray:5.12,1.28,0.8,1.28;stroke-dashoffset:0;stroke-width:0.8;"/>
     </g>
     <g id="line2d_46">
      <g>
       <use style="stroke:#000000;stroke-width:0.8;" x="410.707416" xlink:href="#mb1c26bc5e1" y="307.584"/>
      </g>
     </g>
     <g id="text_23">
      <!-- 88 -->
      <g transform="translate(404.344916 322.182437)scale(0.1 -0.1)">
       <use xlink:href="#DejaVuSans-56"/>
       <use x="63.623047" xlink:href="#DejaVuSans-56"/>
      </g>
     </g>
    </g>
    <g id="text_24">
     <!-- threads -->
     <g transform="translate(217.168594 335.860562)scale(0.1 -0.1)">
      <defs>
       <path d="M 18.3125 70.21875 
L 18.3125 54.6875 
L 36.8125 54.6875 
L 36.8125 47.703125 
L 18.3125 47.703125 
L 18.3125 18.015625 
Q 18.3125 11.328125 20.140625 9.421875 
Q 21.96875 7.515625 27.59375 7.515625 
L 36.8125 7.515625 
L 36.8125 0 
L 27.59375 0 
Q 17.1875 0 13.234375 3.875 
Q 9.28125 7.765625 9.28125 18.015625 
L 9.28125 47.703125 
L 2.6875 47.703125 
L 2.6875 54.6875 
L 9.28125 54.6875 
L 9.28125 70.21875 
z
" id="DejaVuSans-116"/>
       <path d="M 54.890625 33.015625 
L 54.890625 0 
L 45.90625 0 
L 45.90625 32.71875 
Q 45.90625 40.484375 42.875 44.328125 
Q 39.84375 48.1875 33.796875 48.1875 
Q 26.515625 48.1875 22.3125 43.546875 
Q 18.109375 38.921875 18.109375 30.90625 
L 18.109375 0 
L 9.078125 0 
L 9.078125 75.984375 
L 18.109375 75.984375 
L 18.109375 46.1875 
Q 21.34375 51.125 25.703125 53.5625 
Q 30.078125 56 35.796875 56 
Q 45.21875 56 50.046875 50.171875 
Q 54.890625 44.34375 54.890625 33.015625 
z
" id="DejaVuSans-104"/>
       <path d="M 41.109375 46.296875 
Q 39.59375 47.171875 37.8125 47.578125 
Q 36.03125 48 33.890625 48 
Q 26.265625 48 22.1875 43.046875 
Q 18.109375 38.09375 18.109375 28.8125 
L 18.109375 0 
L 9.078125 0 
L 9.078125 54.6875 
L 18.109375 54.6875 
L 18.109375 46.1875 
Q 20.953125 51.171875 25.484375 53.578125 
Q 30.03125 56 36.53125 56 
Q 37.453125 56 38.578125 55.875 
Q 39.703125 55.765625 41.0625 55.515625 
z
" id="DejaVuSans-114"/>
       <path d="M 56.203125 29.59375 
L 56.203125 25.203125 
L 14.890625 25.203125 
Q 15.484375 15.921875 20.484375 11.0625 
Q 25.484375 6.203125 34.421875 6.203125 
Q 39.59375 6.203125 44.453125 7.46875 
Q 49.3125 8.734375 54.109375 11.28125 
L 54.109375 2.78125 
Q 49.265625 0.734375 44.1875 -0.34375 
Q 39.109375 -1.421875 33.890625 -1.421875 
Q 20.796875 -1.421875 13.15625 6.1875 
Q 5.515625 13.8125 5.515625 26.8125 
Q 5.515625 40.234375 12.765625 48.109375 
Q 20.015625 56 32.328125 56 
Q 43.359375 56 49.78125 48.890625 
Q 56.203125 41.796875 56.203125 29.59375 
z
M 47.21875 32.234375 
Q 47.125 39.59375 43.09375 43.984375 
Q 39.0625 48.390625 32.421875 48.390625 
Q 24.90625 48.390625 20.390625 44.140625 
Q 15.875 39.890625 15.1875 32.171875 
z
" id="DejaVuSans-101"/>
       <path d="M 34.28125 27.484375 
Q 23.390625 27.484375 19.1875 25 
Q 14.984375 22.515625 14.984375 16.5 
Q 14.984375 11.71875 18.140625 8.90625 
Q 21.296875 6.109375 26.703125 6.109375 
Q 34.1875 6.109375 38.703125 11.40625 
Q 43.21875 16.703125 43.21875 25.484375 
L 43.21875 27.484375 
z
M 52.203125 31.203125 
L 52.203125 0 
L 43.21875 0 
L 43.21875 8.296875 
Q 40.140625 3.328125 35.546875 0.953125 
Q 30.953125 -1.421875 24.3125 -1.421875 
Q 15.921875 -1.421875 10.953125 3.296875 
Q 6 8.015625 6 15.921875 
Q 6 25.140625 12.171875 29.828125 
Q 18.359375 34.515625 30.609375 34.515625 
L 43.21875 34.515625 
L 43.21875 35.40625 
Q 43.21875 41.609375 39.140625 45 
Q 35.0625 48.390625 27.6875 48.390625 
Q 23 48.390625 18.546875 47.265625 
Q 14.109375 46.140625 10.015625 43.890625 
L 10.015625 52.203125 
Q 14.9375 54.109375 19.578125 55.046875 
Q 24.21875 56 28.609375 56 
Q 40.484375 56 46.34375 49.84375 
Q 52.203125 43.703125 52.203125 31.203125 
z
" id="DejaVuSans-97"/>
       <path d="M 45.40625 46.390625 
L 45.40625 75.984375 
L 54.390625 75.984375 
L 54.390625 0 
L 45.40625 0 
L 45.40625 8.203125 
Q 42.578125 3.328125 38.25 0.953125 
Q 33.9375 -1.421875 27.875 -1.421875 
Q 17.96875 -1.421875 11.734375 6.484375 
Q 5.515625 14.40625 5.515625 27.296875 
Q 5.515625 40.1875 11.734375 48.09375 
Q 17.96875 56 27.875 56 
Q 33.9375 56 38.25 53.625 
Q 42.578125 51.265625 45.40625 46.390625 
z
M 14.796875 27.296875 
Q 14.796875 17.390625 18.875 11.75 
Q 22.953125 6.109375 30.078125 6.109375 
Q 37.203125 6.109375 41.296875 11.75 
Q 45.40625 17.390625 45.40625 27.296875 
Q 45.40625 37.203125 41.296875 42.84375 
Q 37.203125 48.484375 30.078125 48.484375 
Q 22.953125 48.484375 18.875 42.84375 
Q 14.796875 37.203125 14.796875 27.296875 
z
" id="DejaVuSans-100"/>
       <path d="M 44.28125 53.078125 
L 44.28125 44.578125 
Q 40.484375 46.53125 36.375 47.5 
Q 32.28125 48.484375 27.875 48.484375 
Q 21.1875 48.484375 17.84375 46.4375 
Q 14.5 44.390625 14.5 40.28125 
Q 14.5 37.15625 16.890625 35.375 
Q 19.28125 33.59375 26.515625 31.984375 
L 29.59375 31.296875 
Q 39.15625 29.25 43.1875 25.515625 
Q 47.21875 21.78125 47.21875 15.09375 
Q 47.21875 7.46875 41.1875 3.015625 
Q 35.15625 -1.421875 24.609375 -1.421875 
Q 20.21875 -1.421875 15.453125 -0.5625 
Q 10.6875 0.296875 5.421875 2 
L 5.421875 11.28125 
Q 10.40625 8.6875 15.234375 7.390625 
Q 20.0625 6.109375 24.8125 6.109375 
Q 31.15625 6.109375 34.5625 8.28125 
Q 37.984375 10.453125 37.984375 14.40625 
Q 37.984375 18.0625 35.515625 20.015625 
Q 33.0625 21.96875 24.703125 23.78125 
L 21.578125 24.515625 
Q 13.234375 26.265625 9.515625 29.90625 
Q 5.8125 33.546875 5.8125 39.890625 
Q 5.8125 47.609375 11.28125 51.796875 
Q 16.75 56 26.8125 56 
Q 31.78125 56 36.171875 55.265625 
Q 40.578125 54.546875 44.28125 53.078125 
z
" id="DejaVuSans-115"/>
      </defs>
      <use xlink:href="#DejaVuSans-116"/>
      <use x="39.208984" xlink:href="#DejaVuSans-104"/>
      <use x="102.587891" xlink:href="#DejaVuSans-114"/>
      <use x="141.451172" xlink:href="#DejaVuSans-101"/>
      <use x="202.974609" xlink:href="#DejaVuSans-97"/>
      <use x="264.253906" xlink:href="#DejaVuSans-100"/>
      <use x="327.730469" xlink:href="#DejaVuSans-115"/>
     </g>
    </g>
   </g>
   <g id="matplotlib.axis_2">
    <g id="ytick_1">
     <g id="line2d_47">
      <path clip-path="url(#pa7b6a8e5f1)" d="M 57.6 275.024658 
L 414.72 275.024658 
" style="fill:none;stroke:#b0b0b0;stroke-dasharray:5.12,1.28,0.8,1.28;stroke-dashoffset:0;stroke-width:0.8;"/>
     </g>
     <g id="line2d_48">
      <defs>
       <path d="M 0 0 
L -3.5 0 
" id="m3757c0f19c" style="stroke:#000000;stroke-width:0.8;"/>
      </defs>
      <g>
       <use style="stroke:#000000;stroke-width:0.8;" x="57.6" xlink:href="#m3757c0f19c" y="275.024658"/>
      </g>
     </g>
     <g id="text_25">
      <!-- 0.1 -->
      <g transform="translate(34.696875 278.823877)scale(0.1 -0.1)">
       <defs>
        <path d="M 10.6875 12.40625 
L 21 12.40625 
L 21 0 
L 10.6875 0 
z
" id="DejaVuSans-46"/>
       </defs>
       <use xlink:href="#DejaVuSans-48"/>
       <use x="63.623047" xlink:href="#DejaVuSans-46"/>
       <use x="95.410156" xlink:href="#DejaVuSans-49"/>
      </g>
     </g>
    </g>
    <g id="ytick_2">
     <g id="line2d_49">
      <path clip-path="url(#pa7b6a8e5f1)" d="M 57.6 234.679173 
L 414.72 234.679173 
" style="fill:none;stroke:#b0b0b0;stroke-dasharray:5.12,1.28,0.8,1.28;stroke-dashoffset:0;stroke-width:0.8;"/>
     </g>
     <g id="line2d_50">
      <g>
       <use style="stroke:#000000;stroke-width:0.8;" x="57.6" xlink:href="#m3757c0f19c" y="234.679173"/>
      </g>
     </g>
     <g id="text_26">
      <!-- 0.2 -->
      <g transform="translate(34.696875 238.478391)scale(0.1 -0.1)">
       <use xlink:href="#DejaVuSans-48"/>
       <use x="63.623047" xlink:href="#DejaVuSans-46"/>
       <use x="95.410156" xlink:href="#DejaVuSans-50"/>
      </g>
     </g>
    </g>
    <g id="ytick_3">
     <g id="line2d_51">
      <path clip-path="url(#pa7b6a8e5f1)" d="M 57.6 194.333687 
L 414.72 194.333687 
" style="fill:none;stroke:#b0b0b0;stroke-dasharray:5.12,1.28,0.8,1.28;stroke-dashoffset:0;stroke-width:0.8;"/>
     </g>
     <g id="line2d_52">
      <g>
       <use style="stroke:#000000;stroke-width:0.8;" x="57.6" xlink:href="#m3757c0f19c" y="194.333687"/>
      </g>
     </g>
     <g id="text_27">
      <!-- 0.3 -->
      <g transform="translate(34.696875 198.132906)scale(0.1 -0.1)">
       <use xlink:href="#DejaVuSans-48"/>
       <use x="63.623047" xlink:href="#DejaVuSans-46"/>
       <use x="95.410156" xlink:href="#DejaVuSans-51"/>
      </g>
     </g>
    </g>
    <g id="ytick_4">
     <g id="line2d_53">
      <path clip-path="url(#pa7b6a8e5f1)" d="M 57.6 153.988201 
L 414.72 153.988201 
" style="fill:none;stroke:#b0b0b0;stroke-dasharray:5.12,1.28,0.8,1.28;stroke-dashoffset:0;stroke-width:0.8;"/>
     </g>
     <g id="line2d_54">
      <g>
       <use style="stroke:#000000;stroke-width:0.8;" x="57.6" xlink:href="#m3757c0f19c" y="153.988201"/>
      </g>
     </g>
     <g id="text_28">
      <!-- 0.4 -->
      <g transform="translate(34.696875 157.78742)scale(0.1 -0.1)">
       <use xlink:href="#DejaVuSans-48"/>
       <use x="63.623047" xlink:href="#DejaVuSans-46"/>
       <use x="95.410156" xlink:href="#DejaVuSans-52"/>
      </g>
     </g>
    </g>
    <g id="ytick_5">
     <g id="line2d_55">
      <path clip-path="url(#pa7b6a8e5f1)" d="M 57.6 113.642716 
L 414.72 113.642716 
" style="fill:none;stroke:#b0b0b0;stroke-dasharray:5.12,1.28,0.8,1.28;stroke-dashoffset:0;stroke-width:0.8;"/>
     </g>
     <g id="line2d_56">
      <g>
       <use style="stroke:#000000;stroke-width:0.8;" x="57.6" xlink:href="#m3757c0f19c" y="113.642716"/>
      </g>
     </g>
     <g id="text_29">
      <!-- 0.5 -->
      <g transform="translate(34.696875 117.441935)scale(0.1 -0.1)">
       <use xlink:href="#DejaVuSans-48"/>
       <use x="63.623047" xlink:href="#DejaVuSans-46"/>
       <use x="95.410156" xlink:href="#DejaVuSans-53"/>
      </g>
     </g>
    </g>
    <g id="ytick_6">
     <g id="line2d_57">
      <path clip-path="url(#pa7b6a8e5f1)" d="M 57.6 73.29723 
L 414.72 73.29723 
" style="fill:none;stroke:#b0b0b0;stroke-dasharray:5.12,1.28,0.8,1.28;stroke-dashoffset:0;stroke-width:0.8;"/>
     </g>
     <g id="line2d_58">
      <g>
       <use style="stroke:#000000;stroke-width:0.8;" x="57.6" xlink:href="#m3757c0f19c" y="73.29723"/>
      </g>
     </g>
     <g id="text_30">
      <!-- 0.6 -->
      <g transform="translate(34.696875 77.096449)scale(0.1 -0.1)">
       <use xlink:href="#DejaVuSans-48"/>
       <use x="63.623047" xlink:href="#DejaVuSans-46"/>
       <use x="95.410156" xlink:href="#DejaVuSans-54"/>
      </g>
     </g>
    </g>
    <g id="text_31">
     <!-- duration (s) -->
     <g transform="translate(28.617187 203.663156)rotate(-90)scale(0.1 -0.1)">
      <defs>
       <path d="M 8.5 21.578125 
L 8.5 54.6875 
L 17.484375 54.6875 
L 17.484375 21.921875 
Q 17.484375 14.15625 20.5 10.265625 
Q 23.53125 6.390625 29.59375 6.390625 
Q 36.859375 6.390625 41.078125 11.03125 
Q 45.3125 15.671875 45.3125 23.6875 
L 45.3125 54.6875 
L 54.296875 54.6875 
L 54.296875 0 
L 45.3125 0 
L 45.3125 8.40625 
Q 42.046875 3.421875 37.71875 1 
Q 33.40625 -1.421875 27.6875 -1.421875 
Q 18.265625 -1.421875 13.375 4.4375 
Q 8.5 10.296875 8.5 21.578125 
z
M 31.109375 56 
z
" id="DejaVuSans-117"/>
       <path d="M 9.421875 54.6875 
L 18.40625 54.6875 
L 18.40625 0 
L 9.421875 0 
z
M 9.421875 75.984375 
L 18.40625 75.984375 
L 18.40625 64.59375 
L 9.421875 64.59375 
z
" id="DejaVuSans-105"/>
       <path d="M 30.609375 48.390625 
Q 23.390625 48.390625 19.1875 42.75 
Q 14.984375 37.109375 14.984375 27.296875 
Q 14.984375 17.484375 19.15625 11.84375 
Q 23.34375 6.203125 30.609375 6.203125 
Q 37.796875 6.203125 41.984375 11.859375 
Q 46.1875 17.53125 46.1875 27.296875 
Q 46.1875 37.015625 41.984375 42.703125 
Q 37.796875 48.390625 30.609375 48.390625 
z
M 30.609375 56 
Q 42.328125 56 49.015625 48.375 
Q 55.71875 40.765625 55.71875 27.296875 
Q 55.71875 13.875 49.015625 6.21875 
Q 42.328125 -1.421875 30.609375 -1.421875 
Q 18.84375 -1.421875 12.171875 6.21875 
Q 5.515625 13.875 5.515625 27.296875 
Q 5.515625 40.765625 12.171875 48.375 
Q 18.84375 56 30.609375 56 
z
" id="DejaVuSans-111"/>
       <path d="M 54.890625 33.015625 
L 54.890625 0 
L 45.90625 0 
L 45.90625 32.71875 
Q 45.90625 40.484375 42.875 44.328125 
Q 39.84375 48.1875 33.796875 48.1875 
Q 26.515625 48.1875 22.3125 43.546875 
Q 18.109375 38.921875 18.109375 30.90625 
L 18.109375 0 
L 9.078125 0 
L 9.078125 54.6875 
L 18.109375 54.6875 
L 18.109375 46.1875 
Q 21.34375 51.125 25.703125 53.5625 
Q 30.078125 56 35.796875 56 
Q 45.21875 56 50.046875 50.171875 
Q 54.890625 44.34375 54.890625 33.015625 
z
" id="DejaVuSans-110"/>
       <path id="DejaVuSans-32"/>
       <path d="M 31 75.875 
Q 24.46875 64.65625 21.28125 53.65625 
Q 18.109375 42.671875 18.109375 31.390625 
Q 18.109375 20.125 21.3125 9.0625 
Q 24.515625 -2 31 -13.1875 
L 23.1875 -13.1875 
Q 15.875 -1.703125 12.234375 9.375 
Q 8.59375 20.453125 8.59375 31.390625 
Q 8.59375 42.28125 12.203125 53.3125 
Q 15.828125 64.359375 23.1875 75.875 
z
" id="DejaVuSans-40"/>
       <path d="M 8.015625 75.875 
L 15.828125 75.875 
Q 23.140625 64.359375 26.78125 53.3125 
Q 30.421875 42.28125 30.421875 31.390625 
Q 30.421875 20.453125 26.78125 9.375 
Q 23.140625 -1.703125 15.828125 -13.1875 
L 8.015625 -13.1875 
Q 14.5 -2 17.703125 9.0625 
Q 20.90625 20.125 20.90625 31.390625 
Q 20.90625 42.671875 17.703125 53.65625 
Q 14.5 64.65625 8.015625 75.875 
z
" id="DejaVuSans-41"/>
      </defs>
      <use xlink:href="#DejaVuSans-100"/>
      <use x="63.476562" xlink:href="#DejaVuSans-117"/>
      <use x="126.855469" xlink:href="#DejaVuSans-114"/>
      <use x="167.96875" xlink:href="#DejaVuSans-97"/>
      <use x="229.248047" xlink:href="#DejaVuSans-116"/>
      <use x="268.457031" xlink:href="#DejaVuSans-105"/>
      <use x="296.240234" xlink:href="#DejaVuSans-111"/>
      <use x="357.421875" xlink:href="#DejaVuSans-110"/>
      <use x="420.800781" xlink:href="#DejaVuSans-32"/>
      <use x="452.587891" xlink:href="#DejaVuSans-40"/>
      <use x="491.601562" xlink:href="#DejaVuSans-115"/>
      <use x="543.701172" xlink:href="#DejaVuSans-41"/>
     </g>
    </g>
   </g>
   <g id="line2d_59">
    <path clip-path="url(#pa7b6a8e5f1)" d="M 61.612584 80.759475 
L 65.625169 192.38049 
L 69.637753 231.26004 
L 73.650337 251.740286 
L 77.662921 263.510165 
L 81.675506 271.162046 
L 85.68809 274.617753 
L 89.700674 278.054608 
L 93.713258 283.583688 
L 97.725843 286.377477 
L 101.738427 287.311809 
L 105.751011 289.123747 
L 109.763596 289.696648 
L 113.77618 289.228128 
L 117.788764 290.341074 
L 121.801348 290.990968 
L 125.813933 292.412673 
L 129.826517 292.661465 
L 133.839101 292.520133 
L 137.851685 293.725806 
L 141.86427 294.463537 
L 145.876854 294.692912 
L 149.889438 295.024166 
L 153.902022 294.363814 
L 157.914607 294.921338 
L 161.927191 295.148129 
L 165.939775 294.362839 
L 169.95236 294.40541 
L 173.964944 295.206847 
L 177.977528 293.219057 
L 181.990112 293.293207 
L 186.002697 293.69093 
L 190.015281 294.289678 
L 194.027865 294.495445 
L 198.040449 294.590317 
L 202.053034 294.958853 
L 206.065618 294.559769 
L 210.078202 295.388346 
L 214.090787 295.019288 
L 218.103371 294.079308 
L 222.115955 294.510355 
L 226.128539 294.684832 
L 230.141124 294.623393 
L 234.153708 294.687937 
L 238.166292 294.42506 
L 242.178876 293.863703 
L 246.191461 294.51111 
L 250.204045 295.285078 
L 254.216629 294.727719 
L 258.229213 295.488 
L 262.241798 295.381008 
L 266.254382 295.472156 
L 270.266966 295.13682 
L 274.279551 295.354803 
L 278.292135 295.481335 
L 282.304719 295.086636 
L 286.317303 294.692403 
L 290.329888 294.400655 
L 294.342472 293.646792 
L 298.355056 293.918793 
L 302.36764 294.089161 
L 306.380225 293.646173 
L 310.392809 293.66603 
L 314.405393 294.003194 
L 318.417978 290.276763 
L 322.430562 291.423966 
L 326.443146 292.876837 
L 330.45573 292.760102 
L 334.468315 292.727493 
L 338.480899 293.057415 
L 342.493483 290.270401 
L 346.506067 290.02668 
L 350.518652 292.162343 
L 354.531236 291.78761 
L 358.54382 293.839463 
L 362.556404 293.81268 
L 366.568989 293.54553 
L 370.581573 294.079487 
L 374.594157 293.637063 
L 378.606742 293.748521 
L 382.619326 294.574638 
L 386.63191 293.91658 
L 390.644494 292.427391 
L 394.657079 293.982004 
L 398.669663 291.530614 
L 402.682247 292.212637 
L 406.694831 290.364228 
L 410.707416 293.571749 
" style="fill:none;stroke:#0000ff;stroke-dasharray:1.5,2.475;stroke-dashoffset:0;stroke-width:1.5;"/>
    <defs>
     <path d="M 0 1.5 
C 0.397805 1.5 0.77937 1.341951 1.06066 1.06066 
C 1.341951 0.77937 1.5 0.397805 1.5 0 
C 1.5 -0.397805 1.341951 -0.77937 1.06066 -1.06066 
C 0.77937 -1.341951 0.397805 -1.5 0 -1.5 
C -0.397805 -1.5 -0.77937 -1.341951 -1.06066 -1.06066 
C -1.341951 -0.77937 -1.5 -0.397805 -1.5 0 
C -1.5 0.397805 -1.341951 0.77937 -1.06066 1.06066 
C -0.77937 1.341951 -0.397805 1.5 0 1.5 
z
" id="m313e52a62d" style="stroke:#0000ff;"/>
    </defs>
    <g clip-path="url(#pa7b6a8e5f1)">
     <use style="fill:#0000ff;stroke:#0000ff;" x="61.612584" xlink:href="#m313e52a62d" y="80.759475"/>
     <use style="fill:#0000ff;stroke:#0000ff;" x="65.625169" xlink:href="#m313e52a62d" y="192.38049"/>
     <use style="fill:#0000ff;stroke:#0000ff;" x="69.637753" xlink:href="#m313e52a62d" y="231.26004"/>
     <use style="fill:#0000ff;stroke:#0000ff;" x="73.650337" xlink:href="#m313e52a62d" y="251.740286"/>
     <use style="fill:#0000ff;stroke:#0000ff;" x="77.662921" xlink:href="#m313e52a62d" y="263.510165"/>
     <use style="fill:#0000ff;stroke:#0000ff;" x="81.675506" xlink:href="#m313e52a62d" y="271.162046"/>
     <use style="fill:#0000ff;stroke:#0000ff;" x="85.68809" xlink:href="#m313e52a62d" y="274.617753"/>
     <use style="fill:#0000ff;stroke:#0000ff;" x="89.700674" xlink:href="#m313e52a62d" y="278.054608"/>
     <use style="fill:#0000ff;stroke:#0000ff;" x="93.713258" xlink:href="#m313e52a62d" y="283.583688"/>
     <use style="fill:#0000ff;stroke:#0000ff;" x="97.725843" xlink:href="#m313e52a62d" y="286.377477"/>
     <use style="fill:#0000ff;stroke:#0000ff;" x="101.738427" xlink:href="#m313e52a62d" y="287.311809"/>
     <use style="fill:#0000ff;stroke:#0000ff;" x="105.751011" xlink:href="#m313e52a62d" y="289.123747"/>
     <use style="fill:#0000ff;stroke:#0000ff;" x="109.763596" xlink:href="#m313e52a62d" y="289.696648"/>
     <use style="fill:#0000ff;stroke:#0000ff;" x="113.77618" xlink:href="#m313e52a62d" y="289.228128"/>
     <use style="fill:#0000ff;stroke:#0000ff;" x="117.788764" xlink:href="#m313e52a62d" y="290.341074"/>
     <use style="fill:#0000ff;stroke:#0000ff;" x="121.801348" xlink:href="#m313e52a62d" y="290.990968"/>
     <use style="fill:#0000ff;stroke:#0000ff;" x="125.813933" xlink:href="#m313e52a62d" y="292.412673"/>
     <use style="fill:#0000ff;stroke:#0000ff;" x="129.826517" xlink:href="#m313e52a62d" y="292.661465"/>
     <use style="fill:#0000ff;stroke:#0000ff;" x="133.839101" xlink:href="#m313e52a62d" y="292.520133"/>
     <use style="fill:#0000ff;stroke:#0000ff;" x="137.851685" xlink:href="#m313e52a62d" y="293.725806"/>
     <use style="fill:#0000ff;stroke:#0000ff;" x="141.86427" xlink:href="#m313e52a62d" y="294.463537"/>
     <use style="fill:#0000ff;stroke:#0000ff;" x="145.876854" xlink:href="#m313e52a62d" y="294.692912"/>
     <use style="fill:#0000ff;stroke:#0000ff;" x="149.889438" xlink:href="#m313e52a62d" y="295.024166"/>
     <use style="fill:#0000ff;stroke:#0000ff;" x="153.902022" xlink:href="#m313e52a62d" y="294.363814"/>
     <use style="fill:#0000ff;stroke:#0000ff;" x="157.914607" xlink:href="#m313e52a62d" y="294.921338"/>
     <use style="fill:#0000ff;stroke:#0000ff;" x="161.927191" xlink:href="#m313e52a62d" y="295.148129"/>
     <use style="fill:#0000ff;stroke:#0000ff;" x="165.939775" xlink:href="#m313e52a62d" y="294.362839"/>
     <use style="fill:#0000ff;stroke:#0000ff;" x="169.95236" xlink:href="#m313e52a62d" y="294.40541"/>
     <use style="fill:#0000ff;stroke:#0000ff;" x="173.964944" xlink:href="#m313e52a62d" y="295.206847"/>
     <use style="fill:#0000ff;stroke:#0000ff;" x="177.977528" xlink:href="#m313e52a62d" y="293.219057"/>
     <use style="fill:#0000ff;stroke:#0000ff;" x="181.990112" xlink:href="#m313e52a62d" y="293.293207"/>
     <use style="fill:#0000ff;stroke:#0000ff;" x="186.002697" xlink:href="#m313e52a62d" y="293.69093"/>
     <use style="fill:#0000ff;stroke:#0000ff;" x="190.015281" xlink:href="#m313e52a62d" y="294.289678"/>
     <use style="fill:#0000ff;stroke:#0000ff;" x="194.027865" xlink:href="#m313e52a62d" y="294.495445"/>
     <use style="fill:#0000ff;stroke:#0000ff;" x="198.040449" xlink:href="#m313e52a62d" y="294.590317"/>
     <use style="fill:#0000ff;stroke:#0000ff;" x="202.053034" xlink:href="#m313e52a62d" y="294.958853"/>
     <use style="fill:#0000ff;stroke:#0000ff;" x="206.065618" xlink:href="#m313e52a62d" y="294.559769"/>
     <use style="fill:#0000ff;stroke:#0000ff;" x="210.078202" xlink:href="#m313e52a62d" y="295.388346"/>
     <use style="fill:#0000ff;stroke:#0000ff;" x="214.090787" xlink:href="#m313e52a62d" y="295.019288"/>
     <use style="fill:#0000ff;stroke:#0000ff;" x="218.103371" xlink:href="#m313e52a62d" y="294.079308"/>
     <use style="fill:#0000ff;stroke:#0000ff;" x="222.115955" xlink:href="#m313e52a62d" y="294.510355"/>
     <use style="fill:#0000ff;stroke:#0000ff;" x="226.128539" xlink:href="#m313e52a62d" y="294.684832"/>
     <use style="fill:#0000ff;stroke:#0000ff;" x="230.141124" xlink:href="#m313e52a62d" y="294.623393"/>
     <use style="fill:#0000ff;stroke:#0000ff;" x="234.153708" xlink:href="#m313e52a62d" y="294.687937"/>
     <use style="fill:#0000ff;stroke:#0000ff;" x="238.166292" xlink:href="#m313e52a62d" y="294.42506"/>
     <use style="fill:#0000ff;stroke:#0000ff;" x="242.178876" xlink:href="#m313e52a62d" y="293.863703"/>
     <use style="fill:#0000ff;stroke:#0000ff;" x="246.191461" xlink:href="#m313e52a62d" y="294.51111"/>
     <use style="fill:#0000ff;stroke:#0000ff;" x="250.204045" xlink:href="#m313e52a62d" y="295.285078"/>
     <use style="fill:#0000ff;stroke:#0000ff;" x="254.216629" xlink:href="#m313e52a62d" y="294.727719"/>
     <use style="fill:#0000ff;stroke:#0000ff;" x="258.229213" xlink:href="#m313e52a62d" y="295.488"/>
     <use style="fill:#0000ff;stroke:#0000ff;" x="262.241798" xlink:href="#m313e52a62d" y="295.381008"/>
     <use style="fill:#0000ff;stroke:#0000ff;" x="266.254382" xlink:href="#m313e52a62d" y="295.472156"/>
     <use style="fill:#0000ff;stroke:#0000ff;" x="270.266966" xlink:href="#m313e52a62d" y="295.13682"/>
     <use style="fill:#0000ff;stroke:#0000ff;" x="274.279551" xlink:href="#m313e52a62d" y="295.354803"/>
     <use style="fill:#0000ff;stroke:#0000ff;" x="278.292135" xlink:href="#m313e52a62d" y="295.481335"/>
     <use style="fill:#0000ff;stroke:#0000ff;" x="282.304719" xlink:href="#m313e52a62d" y="295.086636"/>
     <use style="fill:#0000ff;stroke:#0000ff;" x="286.317303" xlink:href="#m313e52a62d" y="294.692403"/>
     <use style="fill:#0000ff;stroke:#0000ff;" x="290.329888" xlink:href="#m313e52a62d" y="294.400655"/>
     <use style="fill:#0000ff;stroke:#0000ff;" x="294.342472" xlink:href="#m313e52a62d" y="293.646792"/>
     <use style="fill:#0000ff;stroke:#0000ff;" x="298.355056" xlink:href="#m313e52a62d" y="293.918793"/>
     <use style="fill:#0000ff;stroke:#0000ff;" x="302.36764" xlink:href="#m313e52a62d" y="294.089161"/>
     <use style="fill:#0000ff;stroke:#0000ff;" x="306.380225" xlink:href="#m313e52a62d" y="293.646173"/>
     <use style="fill:#0000ff;stroke:#0000ff;" x="310.392809" xlink:href="#m313e52a62d" y="293.66603"/>
     <use style="fill:#0000ff;stroke:#0000ff;" x="314.405393" xlink:href="#m313e52a62d" y="294.003194"/>
     <use style="fill:#0000ff;stroke:#0000ff;" x="318.417978" xlink:href="#m313e52a62d" y="290.276763"/>
     <use style="fill:#0000ff;stroke:#0000ff;" x="322.430562" xlink:href="#m313e52a62d" y="291.423966"/>
     <use style="fill:#0000ff;stroke:#0000ff;" x="326.443146" xlink:href="#m313e52a62d" y="292.876837"/>
     <use style="fill:#0000ff;stroke:#0000ff;" x="330.45573" xlink:href="#m313e52a62d" y="292.760102"/>
     <use style="fill:#0000ff;stroke:#0000ff;" x="334.468315" xlink:href="#m313e52a62d" y="292.727493"/>
     <use style="fill:#0000ff;stroke:#0000ff;" x="338.480899" xlink:href="#m313e52a62d" y="293.057415"/>
     <use style="fill:#0000ff;stroke:#0000ff;" x="342.493483" xlink:href="#m313e52a62d" y="290.270401"/>
     <use style="fill:#0000ff;stroke:#0000ff;" x="346.506067" xlink:href="#m313e52a62d" y="290.02668"/>
     <use style="fill:#0000ff;stroke:#0000ff;" x="350.518652" xlink:href="#m313e52a62d" y="292.162343"/>
     <use style="fill:#0000ff;stroke:#0000ff;" x="354.531236" xlink:href="#m313e52a62d" y="291.78761"/>
     <use style="fill:#0000ff;stroke:#0000ff;" x="358.54382" xlink:href="#m313e52a62d" y="293.839463"/>
     <use style="fill:#0000ff;stroke:#0000ff;" x="362.556404" xlink:href="#m313e52a62d" y="293.81268"/>
     <use style="fill:#0000ff;stroke:#0000ff;" x="366.568989" xlink:href="#m313e52a62d" y="293.54553"/>
     <use style="fill:#0000ff;stroke:#0000ff;" x="370.581573" xlink:href="#m313e52a62d" y="294.079487"/>
     <use style="fill:#0000ff;stroke:#0000ff;" x="374.594157" xlink:href="#m313e52a62d" y="293.637063"/>
     <use style="fill:#0000ff;stroke:#0000ff;" x="378.606742" xlink:href="#m313e52a62d" y="293.748521"/>
     <use style="fill:#0000ff;stroke:#0000ff;" x="382.619326" xlink:href="#m313e52a62d" y="294.574638"/>
     <use style="fill:#0000ff;stroke:#0000ff;" x="386.63191" xlink:href="#m313e52a62d" y="293.91658"/>
     <use style="fill:#0000ff;stroke:#0000ff;" x="390.644494" xlink:href="#m313e52a62d" y="292.427391"/>
     <use style="fill:#0000ff;stroke:#0000ff;" x="394.657079" xlink:href="#m313e52a62d" y="293.982004"/>
     <use style="fill:#0000ff;stroke:#0000ff;" x="398.669663" xlink:href="#m313e52a62d" y="291.530614"/>
     <use style="fill:#0000ff;stroke:#0000ff;" x="402.682247" xlink:href="#m313e52a62d" y="292.212637"/>
     <use style="fill:#0000ff;stroke:#0000ff;" x="406.694831" xlink:href="#m313e52a62d" y="290.364228"/>
     <use style="fill:#0000ff;stroke:#0000ff;" x="410.707416" xlink:href="#m313e52a62d" y="293.571749"/>
    </g>
   </g>
   <g id="line2d_60">
    <path clip-path="url(#pa7b6a8e5f1)" d="M 61.612584 53.568 
L 65.625169 181.367169 
L 69.637753 221.86736 
L 73.650337 243.99679 
L 77.662921 257.497779 
L 81.675506 266.513183 
L 85.68809 271.346815 
L 89.700674 275.363743 
L 93.713258 280.7094 
L 97.725843 284.503605 
L 101.738427 285.19122 
L 105.751011 287.033088 
L 109.763596 286.895067 
L 113.77618 285.629412 
L 117.788764 285.888029 
L 121.801348 286.112182 
L 125.813933 286.890615 
L 129.826517 286.693602 
L 133.839101 285.814168 
L 137.851685 286.643981 
L 141.86427 287.5873 
L 145.876854 287.215425 
L 149.889438 287.869058 
L 153.902022 287.116403 
L 157.914607 287.468518 
L 161.927191 287.645688 
L 165.939775 286.207095 
L 169.95236 286.524402 
L 173.964944 286.428128 
L 177.977528 283.396307 
L 181.990112 284.324304 
L 186.002697 283.214575 
L 190.015281 285.225739 
L 194.027865 286.442419 
L 198.040449 286.651292 
L 202.053034 286.782757 
L 206.065618 286.465299 
L 210.078202 287.278691 
L 214.090787 283.480804 
L 218.103371 281.306541 
L 222.115955 282.033609 
L 226.128539 281.982408 
L 230.141124 283.728414 
L 234.153708 280.440876 
L 238.166292 279.906259 
L 242.178876 280.775759 
L 246.191461 285.498125 
L 250.204045 284.145677 
L 254.216629 283.457856 
L 258.229213 283.484858 
L 262.241798 284.104302 
L 266.254382 284.038191 
L 270.266966 283.523678 
L 274.279551 283.817144 
L 278.292135 283.344804 
L 282.304719 283.630011 
L 286.317303 283.753685 
L 290.329888 283.941422 
L 294.342472 281.243151 
L 298.355056 279.477082 
L 302.36764 283.006266 
L 306.380225 285.892357 
L 310.392809 285.140376 
L 314.405393 282.814901 
L 318.417978 281.93739 
L 322.430562 283.296461 
L 326.443146 282.496989 
L 330.45573 284.817765 
L 334.468315 281.543872 
L 338.480899 283.145386 
L 342.493483 281.996177 
L 346.506067 280.296576 
L 350.518652 280.953369 
L 354.531236 282.160746 
L 358.54382 281.308946 
L 362.556404 281.102465 
L 366.568989 280.482774 
L 370.581573 282.912535 
L 374.594157 281.517639 
L 378.606742 281.370921 
L 382.619326 282.647913 
L 386.63191 280.414877 
L 390.644494 281.841749 
L 394.657079 282.284654 
L 398.669663 281.010891 
L 402.682247 281.539983 
L 406.694831 280.874767 
L 410.707416 280.580106 
" style="fill:none;stroke:#ff0000;stroke-dasharray:1.5,2.475;stroke-dashoffset:0;stroke-width:1.5;"/>
    <defs>
     <path d="M 0 1.5 
C 0.397805 1.5 0.77937 1.341951 1.06066 1.06066 
C 1.341951 0.77937 1.5 0.397805 1.5 0 
C 1.5 -0.397805 1.341951 -0.77937 1.06066 -1.06066 
C 0.77937 -1.341951 0.397805 -1.5 0 -1.5 
C -0.397805 -1.5 -0.77937 -1.341951 -1.06066 -1.06066 
C -1.341951 -0.77937 -1.5 -0.397805 -1.5 0 
C -1.5 0.397805 -1.341951 0.77937 -1.06066 1.06066 
C -0.77937 1.341951 -0.397805 1.5 0 1.5 
z
" id="mccb9480616" style="stroke:#ff0000;"/>
    </defs>
    <g clip-path="url(#pa7b6a8e5f1)">
     <use style="fill:#ff0000;stroke:#ff0000;" x="61.612584" xlink:href="#mccb9480616" y="53.568"/>
     <use style="fill:#ff0000;stroke:#ff0000;" x="65.625169" xlink:href="#mccb9480616" y="181.367169"/>
     <use style="fill:#ff0000;stroke:#ff0000;" x="69.637753" xlink:href="#mccb9480616" y="221.86736"/>
     <use style="fill:#ff0000;stroke:#ff0000;" x="73.650337" xlink:href="#mccb9480616" y="243.99679"/>
     <use style="fill:#ff0000;stroke:#ff0000;" x="77.662921" xlink:href="#mccb9480616" y="257.497779"/>
     <use style="fill:#ff0000;stroke:#ff0000;" x="81.675506" xlink:href="#mccb9480616" y="266.513183"/>
     <use style="fill:#ff0000;stroke:#ff0000;" x="85.68809" xlink:href="#mccb9480616" y="271.346815"/>
     <use style="fill:#ff0000;stroke:#ff0000;" x="89.700674" xlink:href="#mccb9480616" y="275.363743"/>
     <use style="fill:#ff0000;stroke:#ff0000;" x="93.713258" xlink:href="#mccb9480616" y="280.7094"/>
     <use style="fill:#ff0000;stroke:#ff0000;" x="97.725843" xlink:href="#mccb9480616" y="284.503605"/>
     <use style="fill:#ff0000;stroke:#ff0000;" x="101.738427" xlink:href="#mccb9480616" y="285.19122"/>
     <use style="fill:#ff0000;stroke:#ff0000;" x="105.751011" xlink:href="#mccb9480616" y="287.033088"/>
     <use style="fill:#ff0000;stroke:#ff0000;" x="109.763596" xlink:href="#mccb9480616" y="286.895067"/>
     <use style="fill:#ff0000;stroke:#ff0000;" x="113.77618" xlink:href="#mccb9480616" y="285.629412"/>
     <use style="fill:#ff0000;stroke:#ff0000;" x="117.788764" xlink:href="#mccb9480616" y="285.888029"/>
     <use style="fill:#ff0000;stroke:#ff0000;" x="121.801348" xlink:href="#mccb9480616" y="286.112182"/>
     <use style="fill:#ff0000;stroke:#ff0000;" x="125.813933" xlink:href="#mccb9480616" y="286.890615"/>
     <use style="fill:#ff0000;stroke:#ff0000;" x="129.826517" xlink:href="#mccb9480616" y="286.693602"/>
     <use style="fill:#ff0000;stroke:#ff0000;" x="133.839101" xlink:href="#mccb9480616" y="285.814168"/>
     <use style="fill:#ff0000;stroke:#ff0000;" x="137.851685" xlink:href="#mccb9480616" y="286.643981"/>
     <use style="fill:#ff0000;stroke:#ff0000;" x="141.86427" xlink:href="#mccb9480616" y="287.5873"/>
     <use style="fill:#ff0000;stroke:#ff0000;" x="145.876854" xlink:href="#mccb9480616" y="287.215425"/>
     <use style="fill:#ff0000;stroke:#ff0000;" x="149.889438" xlink:href="#mccb9480616" y="287.869058"/>
     <use style="fill:#ff0000;stroke:#ff0000;" x="153.902022" xlink:href="#mccb9480616" y="287.116403"/>
     <use style="fill:#ff0000;stroke:#ff0000;" x="157.914607" xlink:href="#mccb9480616" y="287.468518"/>
     <use style="fill:#ff0000;stroke:#ff0000;" x="161.927191" xlink:href="#mccb9480616" y="287.645688"/>
     <use style="fill:#ff0000;stroke:#ff0000;" x="165.939775" xlink:href="#mccb9480616" y="286.207095"/>
     <use style="fill:#ff0000;stroke:#ff0000;" x="169.95236" xlink:href="#mccb9480616" y="286.524402"/>
     <use style="fill:#ff0000;stroke:#ff0000;" x="173.964944" xlink:href="#mccb9480616" y="286.428128"/>
     <use style="fill:#ff0000;stroke:#ff0000;" x="177.977528" xlink:href="#mccb9480616" y="283.396307"/>
     <use style="fill:#ff0000;stroke:#ff0000;" x="181.990112" xlink:href="#mccb9480616" y="284.324304"/>
     <use style="fill:#ff0000;stroke:#ff0000;" x="186.002697" xlink:href="#mccb9480616" y="283.214575"/>
     <use style="fill:#ff0000;stroke:#ff0000;" x="190.015281" xlink:href="#mccb9480616" y="285.225739"/>
     <use style="fill:#ff0000;stroke:#ff0000;" x="194.027865" xlink:href="#mccb9480616" y="286.442419"/>
     <use style="fill:#ff0000;stroke:#ff0000;" x="198.040449" xlink:href="#mccb9480616" y="286.651292"/>
     <use style="fill:#ff0000;stroke:#ff0000;" x="202.053034" xlink:href="#mccb9480616" y="286.782757"/>
     <use style="fill:#ff0000;stroke:#ff0000;" x="206.065618" xlink:href="#mccb9480616" y="286.465299"/>
     <use style="fill:#ff0000;stroke:#ff0000;" x="210.078202" xlink:href="#mccb9480616" y="287.278691"/>
     <use style="fill:#ff0000;stroke:#ff0000;" x="214.090787" xlink:href="#mccb9480616" y="283.480804"/>
     <use style="fill:#ff0000;stroke:#ff0000;" x="218.103371" xlink:href="#mccb9480616" y="281.306541"/>
     <use style="fill:#ff0000;stroke:#ff0000;" x="222.115955" xlink:href="#mccb9480616" y="282.033609"/>
     <use style="fill:#ff0000;stroke:#ff0000;" x="226.128539" xlink:href="#mccb9480616" y="281.982408"/>
     <use style="fill:#ff0000;stroke:#ff0000;" x="230.141124" xlink:href="#mccb9480616" y="283.728414"/>
     <use style="fill:#ff0000;stroke:#ff0000;" x="234.153708" xlink:href="#mccb9480616" y="280.440876"/>
     <use style="fill:#ff0000;stroke:#ff0000;" x="238.166292" xlink:href="#mccb9480616" y="279.906259"/>
     <use style="fill:#ff0000;stroke:#ff0000;" x="242.178876" xlink:href="#mccb9480616" y="280.775759"/>
     <use style="fill:#ff0000;stroke:#ff0000;" x="246.191461" xlink:href="#mccb9480616" y="285.498125"/>
     <use style="fill:#ff0000;stroke:#ff0000;" x="250.204045" xlink:href="#mccb9480616" y="284.145677"/>
     <use style="fill:#ff0000;stroke:#ff0000;" x="254.216629" xlink:href="#mccb9480616" y="283.457856"/>
     <use style="fill:#ff0000;stroke:#ff0000;" x="258.229213" xlink:href="#mccb9480616" y="283.484858"/>
     <use style="fill:#ff0000;stroke:#ff0000;" x="262.241798" xlink:href="#mccb9480616" y="284.104302"/>
     <use style="fill:#ff0000;stroke:#ff0000;" x="266.254382" xlink:href="#mccb9480616" y="284.038191"/>
     <use style="fill:#ff0000;stroke:#ff0000;" x="270.266966" xlink:href="#mccb9480616" y="283.523678"/>
     <use style="fill:#ff0000;stroke:#ff0000;" x="274.279551" xlink:href="#mccb9480616" y="283.817144"/>
     <use style="fill:#ff0000;stroke:#ff0000;" x="278.292135" xlink:href="#mccb9480616" y="283.344804"/>
     <use style="fill:#ff0000;stroke:#ff0000;" x="282.304719" xlink:href="#mccb9480616" y="283.630011"/>
     <use style="fill:#ff0000;stroke:#ff0000;" x="286.317303" xlink:href="#mccb9480616" y="283.753685"/>
     <use style="fill:#ff0000;stroke:#ff0000;" x="290.329888" xlink:href="#mccb9480616" y="283.941422"/>
     <use style="fill:#ff0000;stroke:#ff0000;" x="294.342472" xlink:href="#mccb9480616" y="281.243151"/>
     <use style="fill:#ff0000;stroke:#ff0000;" x="298.355056" xlink:href="#mccb9480616" y="279.477082"/>
     <use style="fill:#ff0000;stroke:#ff0000;" x="302.36764" xlink:href="#mccb9480616" y="283.006266"/>
     <use style="fill:#ff0000;stroke:#ff0000;" x="306.380225" xlink:href="#mccb9480616" y="285.892357"/>
     <use style="fill:#ff0000;stroke:#ff0000;" x="310.392809" xlink:href="#mccb9480616" y="285.140376"/>
     <use style="fill:#ff0000;stroke:#ff0000;" x="314.405393" xlink:href="#mccb9480616" y="282.814901"/>
     <use style="fill:#ff0000;stroke:#ff0000;" x="318.417978" xlink:href="#mccb9480616" y="281.93739"/>
     <use style="fill:#ff0000;stroke:#ff0000;" x="322.430562" xlink:href="#mccb9480616" y="283.296461"/>
     <use style="fill:#ff0000;stroke:#ff0000;" x="326.443146" xlink:href="#mccb9480616" y="282.496989"/>
     <use style="fill:#ff0000;stroke:#ff0000;" x="330.45573" xlink:href="#mccb9480616" y="284.817765"/>
     <use style="fill:#ff0000;stroke:#ff0000;" x="334.468315" xlink:href="#mccb9480616" y="281.543872"/>
     <use style="fill:#ff0000;stroke:#ff0000;" x="338.480899" xlink:href="#mccb9480616" y="283.145386"/>
     <use style="fill:#ff0000;stroke:#ff0000;" x="342.493483" xlink:href="#mccb9480616" y="281.996177"/>
     <use style="fill:#ff0000;stroke:#ff0000;" x="346.506067" xlink:href="#mccb9480616" y="280.296576"/>
     <use style="fill:#ff0000;stroke:#ff0000;" x="350.518652" xlink:href="#mccb9480616" y="280.953369"/>
     <use style="fill:#ff0000;stroke:#ff0000;" x="354.531236" xlink:href="#mccb9480616" y="282.160746"/>
     <use style="fill:#ff0000;stroke:#ff0000;" x="358.54382" xlink:href="#mccb9480616" y="281.308946"/>
     <use style="fill:#ff0000;stroke:#ff0000;" x="362.556404" xlink:href="#mccb9480616" y="281.102465"/>
     <use style="fill:#ff0000;stroke:#ff0000;" x="366.568989" xlink:href="#mccb9480616" y="280.482774"/>
     <use style="fill:#ff0000;stroke:#ff0000;" x="370.581573" xlink:href="#mccb9480616" y="282.912535"/>
     <use style="fill:#ff0000;stroke:#ff0000;" x="374.594157" xlink:href="#mccb9480616" y="281.517639"/>
     <use style="fill:#ff0000;stroke:#ff0000;" x="378.606742" xlink:href="#mccb9480616" y="281.370921"/>
     <use style="fill:#ff0000;stroke:#ff0000;" x="382.619326" xlink:href="#mccb9480616" y="282.647913"/>
     <use style="fill:#ff0000;stroke:#ff0000;" x="386.63191" xlink:href="#mccb9480616" y="280.414877"/>
     <use style="fill:#ff0000;stroke:#ff0000;" x="390.644494" xlink:href="#mccb9480616" y="281.841749"/>
     <use style="fill:#ff0000;stroke:#ff0000;" x="394.657079" xlink:href="#mccb9480616" y="282.284654"/>
     <use style="fill:#ff0000;stroke:#ff0000;" x="398.669663" xlink:href="#mccb9480616" y="281.010891"/>
     <use style="fill:#ff0000;stroke:#ff0000;" x="402.682247" xlink:href="#mccb9480616" y="281.539983"/>
     <use style="fill:#ff0000;stroke:#ff0000;" x="406.694831" xlink:href="#mccb9480616" y="280.874767"/>
     <use style="fill:#ff0000;stroke:#ff0000;" x="410.707416" xlink:href="#mccb9480616" y="280.580106"/>
    </g>
   </g>
   <g id="line2d_61">
    <path clip-path="url(#pa7b6a8e5f1)" d="M 61.612584 67.163737 
L 65.625169 186.87383 
L 69.637753 226.5637 
L 73.650337 247.868538 
L 77.662921 260.503972 
L 81.675506 268.837614 
L 85.68809 272.982284 
L 89.700674 276.709175 
L 93.713258 282.146544 
L 97.725843 285.440541 
L 101.738427 286.251514 
L 105.751011 288.078418 
L 109.763596 288.295858 
L 113.77618 287.42877 
L 117.788764 288.114551 
L 121.801348 288.551575 
L 125.813933 289.651644 
L 129.826517 289.677533 
L 133.839101 289.16715 
L 137.851685 290.184893 
L 141.86427 291.025418 
L 145.876854 290.954168 
L 149.889438 291.446612 
L 153.902022 290.740109 
L 157.914607 291.194928 
L 161.927191 291.396909 
L 165.939775 290.284967 
L 169.95236 290.464906 
L 173.964944 290.817488 
L 177.977528 288.307682 
L 181.990112 288.808756 
L 186.002697 288.452752 
L 190.015281 289.757709 
L 194.027865 290.468932 
L 198.040449 290.620804 
L 202.053034 290.870805 
L 206.065618 290.512534 
L 210.078202 291.333519 
L 214.090787 289.250046 
L 218.103371 287.692925 
L 222.115955 288.271982 
L 226.128539 288.33362 
L 230.141124 289.175903 
L 234.153708 287.564407 
L 238.166292 287.16566 
L 242.178876 287.319731 
L 246.191461 290.004618 
L 250.204045 289.715378 
L 254.216629 289.092787 
L 258.229213 289.486429 
L 262.241798 289.742655 
L 266.254382 289.755173 
L 270.266966 289.330249 
L 274.279551 289.585973 
L 278.292135 289.41307 
L 282.304719 289.358323 
L 286.317303 289.223044 
L 290.329888 289.171039 
L 294.342472 287.444971 
L 298.355056 286.697937 
L 302.36764 288.547714 
L 306.380225 289.769265 
L 310.392809 289.403203 
L 314.405393 288.409047 
L 318.417978 286.107077 
L 322.430562 287.360213 
L 326.443146 287.686913 
L 330.45573 288.788933 
L 334.468315 287.135683 
L 338.480899 288.1014 
L 342.493483 286.133289 
L 346.506067 285.161628 
L 350.518652 286.557856 
L 354.531236 286.974178 
L 358.54382 287.574204 
L 362.556404 287.457573 
L 366.568989 287.014152 
L 370.581573 288.496011 
L 374.594157 287.577351 
L 378.606742 287.559721 
L 382.619326 288.611275 
L 386.63191 287.165729 
L 390.644494 287.13457 
L 394.657079 288.133329 
L 398.669663 286.270753 
L 402.682247 286.87631 
L 406.694831 285.619497 
L 410.707416 287.075927 
" style="fill:none;stroke:#008000;stroke-dasharray:1.5,2.475;stroke-dashoffset:0;stroke-width:1.5;"/>
    <defs>
     <path d="M 0 1.5 
C 0.397805 1.5 0.77937 1.341951 1.06066 1.06066 
C 1.341951 0.77937 1.5 0.397805 1.5 0 
C 1.5 -0.397805 1.341951 -0.77937 1.06066 -1.06066 
C 0.77937 -1.341951 0.397805 -1.5 0 -1.5 
C -0.397805 -1.5 -0.77937 -1.341951 -1.06066 -1.06066 
C -1.341951 -0.77937 -1.5 -0.397805 -1.5 0 
C -1.5 0.397805 -1.341951 0.77937 -1.06066 1.06066 
C -0.77937 1.341951 -0.397805 1.5 0 1.5 
z
" id="mf1fb90f955" style="stroke:#008000;"/>
    </defs>
    <g clip-path="url(#pa7b6a8e5f1)">
     <use style="fill:#008000;stroke:#008000;" x="61.612584" xlink:href="#mf1fb90f955" y="67.163737"/>
     <use style="fill:#008000;stroke:#008000;" x="65.625169" xlink:href="#mf1fb90f955" y="186.87383"/>
     <use style="fill:#008000;stroke:#008000;" x="69.637753" xlink:href="#mf1fb90f955" y="226.5637"/>
     <use style="fill:#008000;stroke:#008000;" x="73.650337" xlink:href="#mf1fb90f955" y="247.868538"/>
     <use style="fill:#008000;stroke:#008000;" x="77.662921" xlink:href="#mf1fb90f955" y="260.503972"/>
     <use style="fill:#008000;stroke:#008000;" x="81.675506" xlink:href="#mf1fb90f955" y="268.837614"/>
     <use style="fill:#008000;stroke:#008000;" x="85.68809" xlink:href="#mf1fb90f955" y="272.982284"/>
     <use style="fill:#008000;stroke:#008000;" x="89.700674" xlink:href="#mf1fb90f955" y="276.709175"/>
     <use style="fill:#008000;stroke:#008000;" x="93.713258" xlink:href="#mf1fb90f955" y="282.146544"/>
     <use style="fill:#008000;stroke:#008000;" x="97.725843" xlink:href="#mf1fb90f955" y="285.440541"/>
     <use style="fill:#008000;stroke:#008000;" x="101.738427" xlink:href="#mf1fb90f955" y="286.251514"/>
     <use style="fill:#008000;stroke:#008000;" x="105.751011" xlink:href="#mf1fb90f955" y="288.078418"/>
     <use style="fill:#008000;stroke:#008000;" x="109.763596" xlink:href="#mf1fb90f955" y="288.295858"/>
     <use style="fill:#008000;stroke:#008000;" x="113.77618" xlink:href="#mf1fb90f955" y="287.42877"/>
     <use style="fill:#008000;stroke:#008000;" x="117.788764" xlink:href="#mf1fb90f955" y="288.114551"/>
     <use style="fill:#008000;stroke:#008000;" x="121.801348" xlink:href="#mf1fb90f955" y="288.551575"/>
     <use style="fill:#008000;stroke:#008000;" x="125.813933" xlink:href="#mf1fb90f955" y="289.651644"/>
     <use style="fill:#008000;stroke:#008000;" x="129.826517" xlink:href="#mf1fb90f955" y="289.677533"/>
     <use style="fill:#008000;stroke:#008000;" x="133.839101" xlink:href="#mf1fb90f955" y="289.16715"/>
     <use style="fill:#008000;stroke:#008000;" x="137.851685" xlink:href="#mf1fb90f955" y="290.184893"/>
     <use style="fill:#008000;stroke:#008000;" x="141.86427" xlink:href="#mf1fb90f955" y="291.025418"/>
     <use style="fill:#008000;stroke:#008000;" x="145.876854" xlink:href="#mf1fb90f955" y="290.954168"/>
     <use style="fill:#008000;stroke:#008000;" x="149.889438" xlink:href="#mf1fb90f955" y="291.446612"/>
     <use style="fill:#008000;stroke:#008000;" x="153.902022" xlink:href="#mf1fb90f955" y="290.740109"/>
     <use style="fill:#008000;stroke:#008000;" x="157.914607" xlink:href="#mf1fb90f955" y="291.194928"/>
     <use style="fill:#008000;stroke:#008000;" x="161.927191" xlink:href="#mf1fb90f955" y="291.396909"/>
     <use style="fill:#008000;stroke:#008000;" x="165.939775" xlink:href="#mf1fb90f955" y="290.284967"/>
     <use style="fill:#008000;stroke:#008000;" x="169.95236" xlink:href="#mf1fb90f955" y="290.464906"/>
     <use style="fill:#008000;stroke:#008000;" x="173.964944" xlink:href="#mf1fb90f955" y="290.817488"/>
     <use style="fill:#008000;stroke:#008000;" x="177.977528" xlink:href="#mf1fb90f955" y="288.307682"/>
     <use style="fill:#008000;stroke:#008000;" x="181.990112" xlink:href="#mf1fb90f955" y="288.808756"/>
     <use style="fill:#008000;stroke:#008000;" x="186.002697" xlink:href="#mf1fb90f955" y="288.452752"/>
     <use style="fill:#008000;stroke:#008000;" x="190.015281" xlink:href="#mf1fb90f955" y="289.757709"/>
     <use style="fill:#008000;stroke:#008000;" x="194.027865" xlink:href="#mf1fb90f955" y="290.468932"/>
     <use style="fill:#008000;stroke:#008000;" x="198.040449" xlink:href="#mf1fb90f955" y="290.620804"/>
     <use style="fill:#008000;stroke:#008000;" x="202.053034" xlink:href="#mf1fb90f955" y="290.870805"/>
     <use style="fill:#008000;stroke:#008000;" x="206.065618" xlink:href="#mf1fb90f955" y="290.512534"/>
     <use style="fill:#008000;stroke:#008000;" x="210.078202" xlink:href="#mf1fb90f955" y="291.333519"/>
     <use style="fill:#008000;stroke:#008000;" x="214.090787" xlink:href="#mf1fb90f955" y="289.250046"/>
     <use style="fill:#008000;stroke:#008000;" x="218.103371" xlink:href="#mf1fb90f955" y="287.692925"/>
     <use style="fill:#008000;stroke:#008000;" x="222.115955" xlink:href="#mf1fb90f955" y="288.271982"/>
     <use style="fill:#008000;stroke:#008000;" x="226.128539" xlink:href="#mf1fb90f955" y="288.33362"/>
     <use style="fill:#008000;stroke:#008000;" x="230.141124" xlink:href="#mf1fb90f955" y="289.175903"/>
     <use style="fill:#008000;stroke:#008000;" x="234.153708" xlink:href="#mf1fb90f955" y="287.564407"/>
     <use style="fill:#008000;stroke:#008000;" x="238.166292" xlink:href="#mf1fb90f955" y="287.16566"/>
     <use style="fill:#008000;stroke:#008000;" x="242.178876" xlink:href="#mf1fb90f955" y="287.319731"/>
     <use style="fill:#008000;stroke:#008000;" x="246.191461" xlink:href="#mf1fb90f955" y="290.004618"/>
     <use style="fill:#008000;stroke:#008000;" x="250.204045" xlink:href="#mf1fb90f955" y="289.715378"/>
     <use style="fill:#008000;stroke:#008000;" x="254.216629" xlink:href="#mf1fb90f955" y="289.092787"/>
     <use style="fill:#008000;stroke:#008000;" x="258.229213" xlink:href="#mf1fb90f955" y="289.486429"/>
     <use style="fill:#008000;stroke:#008000;" x="262.241798" xlink:href="#mf1fb90f955" y="289.742655"/>
     <use style="fill:#008000;stroke:#008000;" x="266.254382" xlink:href="#mf1fb90f955" y="289.755173"/>
     <use style="fill:#008000;stroke:#008000;" x="270.266966" xlink:href="#mf1fb90f955" y="289.330249"/>
     <use style="fill:#008000;stroke:#008000;" x="274.279551" xlink:href="#mf1fb90f955" y="289.585973"/>
     <use style="fill:#008000;stroke:#008000;" x="278.292135" xlink:href="#mf1fb90f955" y="289.41307"/>
     <use style="fill:#008000;stroke:#008000;" x="282.304719" xlink:href="#mf1fb90f955" y="289.358323"/>
     <use style="fill:#008000;stroke:#008000;" x="286.317303" xlink:href="#mf1fb90f955" y="289.223044"/>
     <use style="fill:#008000;stroke:#008000;" x="290.329888" xlink:href="#mf1fb90f955" y="289.171039"/>
     <use style="fill:#008000;stroke:#008000;" x="294.342472" xlink:href="#mf1fb90f955" y="287.444971"/>
     <use style="fill:#008000;stroke:#008000;" x="298.355056" xlink:href="#mf1fb90f955" y="286.697937"/>
     <use style="fill:#008000;stroke:#008000;" x="302.36764" xlink:href="#mf1fb90f955" y="288.547714"/>
     <use style="fill:#008000;stroke:#008000;" x="306.380225" xlink:href="#mf1fb90f955" y="289.769265"/>
     <use style="fill:#008000;stroke:#008000;" x="310.392809" xlink:href="#mf1fb90f955" y="289.403203"/>
     <use style="fill:#008000;stroke:#008000;" x="314.405393" xlink:href="#mf1fb90f955" y="288.409047"/>
     <use style="fill:#008000;stroke:#008000;" x="318.417978" xlink:href="#mf1fb90f955" y="286.107077"/>
     <use style="fill:#008000;stroke:#008000;" x="322.430562" xlink:href="#mf1fb90f955" y="287.360213"/>
     <use style="fill:#008000;stroke:#008000;" x="326.443146" xlink:href="#mf1fb90f955" y="287.686913"/>
     <use style="fill:#008000;stroke:#008000;" x="330.45573" xlink:href="#mf1fb90f955" y="288.788933"/>
     <use style="fill:#008000;stroke:#008000;" x="334.468315" xlink:href="#mf1fb90f955" y="287.135683"/>
     <use style="fill:#008000;stroke:#008000;" x="338.480899" xlink:href="#mf1fb90f955" y="288.1014"/>
     <use style="fill:#008000;stroke:#008000;" x="342.493483" xlink:href="#mf1fb90f955" y="286.133289"/>
     <use style="fill:#008000;stroke:#008000;" x="346.506067" xlink:href="#mf1fb90f955" y="285.161628"/>
     <use style="fill:#008000;stroke:#008000;" x="350.518652" xlink:href="#mf1fb90f955" y="286.557856"/>
     <use style="fill:#008000;stroke:#008000;" x="354.531236" xlink:href="#mf1fb90f955" y="286.974178"/>
     <use style="fill:#008000;stroke:#008000;" x="358.54382" xlink:href="#mf1fb90f955" y="287.574204"/>
     <use style="fill:#008000;stroke:#008000;" x="362.556404" xlink:href="#mf1fb90f955" y="287.457573"/>
     <use style="fill:#008000;stroke:#008000;" x="366.568989" xlink:href="#mf1fb90f955" y="287.014152"/>
     <use style="fill:#008000;stroke:#008000;" x="370.581573" xlink:href="#mf1fb90f955" y="288.496011"/>
     <use style="fill:#008000;stroke:#008000;" x="374.594157" xlink:href="#mf1fb90f955" y="287.577351"/>
     <use style="fill:#008000;stroke:#008000;" x="378.606742" xlink:href="#mf1fb90f955" y="287.559721"/>
     <use style="fill:#008000;stroke:#008000;" x="382.619326" xlink:href="#mf1fb90f955" y="288.611275"/>
     <use style="fill:#008000;stroke:#008000;" x="386.63191" xlink:href="#mf1fb90f955" y="287.165729"/>
     <use style="fill:#008000;stroke:#008000;" x="390.644494" xlink:href="#mf1fb90f955" y="287.13457"/>
     <use style="fill:#008000;stroke:#008000;" x="394.657079" xlink:href="#mf1fb90f955" y="288.133329"/>
     <use style="fill:#008000;stroke:#008000;" x="398.669663" xlink:href="#mf1fb90f955" y="286.270753"/>
     <use style="fill:#008000;stroke:#008000;" x="402.682247" xlink:href="#mf1fb90f955" y="286.87631"/>
     <use style="fill:#008000;stroke:#008000;" x="406.694831" xlink:href="#mf1fb90f955" y="285.619497"/>
     <use style="fill:#008000;stroke:#008000;" x="410.707416" xlink:href="#mf1fb90f955" y="287.075927"/>
    </g>
   </g>
   <g id="patch_3">
    <path d="M 57.6 307.584 
L 57.6 41.472 
" style="fill:none;stroke:#000000;stroke-linecap:square;stroke-linejoin:miter;stroke-width:0.8;"/>
   </g>
   <g id="patch_4">
    <path d="M 414.72 307.584 
L 414.72 41.472 
" style="fill:none;stroke:#000000;stroke-linecap:square;stroke-linejoin:miter;stroke-width:0.8;"/>
   </g>
   <g id="patch_5">
    <path d="M 57.6 307.584 
L 414.72 307.584 
" style="fill:none;stroke:#000000;stroke-linecap:square;stroke-linejoin:miter;stroke-width:0.8;"/>
   </g>
   <g id="patch_6">
    <path d="M 57.6 41.472 
L 414.72 41.472 
" style="fill:none;stroke:#000000;stroke-linecap:square;stroke-linejoin:miter;stroke-width:0.8;"/>
   </g>
   <g id="text_32">
    <!-- radix sort 10 on pre_transpose41 -->
    <g transform="translate(136.448438 35.472)scale(0.12 -0.12)">
     <defs>
      <path d="M 54.890625 54.6875 
L 35.109375 28.078125 
L 55.90625 0 
L 45.3125 0 
L 29.390625 21.484375 
L 13.484375 0 
L 2.875 0 
L 24.125 28.609375 
L 4.6875 54.6875 
L 15.28125 54.6875 
L 29.78125 35.203125 
L 44.28125 54.6875 
z
" id="DejaVuSans-120"/>
      <path d="M 18.109375 8.203125 
L 18.109375 -20.796875 
L 9.078125 -20.796875 
L 9.078125 54.6875 
L 18.109375 54.6875 
L 18.109375 46.390625 
Q 20.953125 51.265625 25.265625 53.625 
Q 29.59375 56 35.59375 56 
Q 45.5625 56 51.78125 48.09375 
Q 58.015625 40.1875 58.015625 27.296875 
Q 58.015625 14.40625 51.78125 6.484375 
Q 45.5625 -1.421875 35.59375 -1.421875 
Q 29.59375 -1.421875 25.265625 0.953125 
Q 20.953125 3.328125 18.109375 8.203125 
z
M 48.6875 27.296875 
Q 48.6875 37.203125 44.609375 42.84375 
Q 40.53125 48.484375 33.40625 48.484375 
Q 26.265625 48.484375 22.1875 42.84375 
Q 18.109375 37.203125 18.109375 27.296875 
Q 18.109375 17.390625 22.1875 11.75 
Q 26.265625 6.109375 33.40625 6.109375 
Q 40.53125 6.109375 44.609375 11.75 
Q 48.6875 17.390625 48.6875 27.296875 
z
" id="DejaVuSans-112"/>
      <path d="M 50.984375 -16.609375 
L 50.984375 -23.578125 
L -0.984375 -23.578125 
L -0.984375 -16.609375 
z
" id="DejaVuSans-95"/>
     </defs>
     <use xlink:href="#DejaVuSans-114"/>
     <use x="41.113281" xlink:href="#DejaVuSans-97"/>
     <use x="102.392578" xlink:href="#DejaVuSans-100"/>
     <use x="165.869141" xlink:href="#DejaVuSans-105"/>
     <use x="193.652344" xlink:href="#DejaVuSans-120"/>
     <use x="252.832031" xlink:href="#DejaVuSans-32"/>
     <use x="284.619141" xlink:href="#DejaVuSans-115"/>
     <use x="336.71875" xlink:href="#DejaVuSans-111"/>
     <use x="397.900391" xlink:href="#DejaVuSans-114"/>
     <use x="439.013672" xlink:href="#DejaVuSans-116"/>
     <use x="478.222656" xlink:href="#DejaVuSans-32"/>
     <use x="510.009766" xlink:href="#DejaVuSans-49"/>
     <use x="573.632812" xlink:href="#DejaVuSans-48"/>
     <use x="637.255859" xlink:href="#DejaVuSans-32"/>
     <use x="669.042969" xlink:href="#DejaVuSans-111"/>
     <use x="730.224609" xlink:href="#DejaVuSans-110"/>
     <use x="793.603516" xlink:href="#DejaVuSans-32"/>
     <use x="825.390625" xlink:href="#DejaVuSans-112"/>
     <use x="888.867188" xlink:href="#DejaVuSans-114"/>
     <use x="927.730469" xlink:href="#DejaVuSans-101"/>
     <use x="989.253906" xlink:href="#DejaVuSans-95"/>
     <use x="1039.253906" xlink:href="#DejaVuSans-116"/>
     <use x="1078.462891" xlink:href="#DejaVuSans-114"/>
     <use x="1119.576172" xlink:href="#DejaVuSans-97"/>
     <use x="1180.855469" xlink:href="#DejaVuSans-110"/>
     <use x="1244.234375" xlink:href="#DejaVuSans-115"/>
     <use x="1296.333984" xlink:href="#DejaVuSans-112"/>
     <use x="1359.810547" xlink:href="#DejaVuSans-111"/>
     <use x="1420.992188" xlink:href="#DejaVuSans-115"/>
     <use x="1473.091797" xlink:href="#DejaVuSans-101"/>
     <use x="1534.615234" xlink:href="#DejaVuSans-52"/>
     <use x="1598.238281" xlink:href="#DejaVuSans-49"/>
    </g>
   </g>
   <g id="legend_1">
    <g id="patch_7">
     <path d="M 313.152813 93.7845 
L 407.72 93.7845 
Q 409.72 93.7845 409.72 91.7845 
L 409.72 48.472 
Q 409.72 46.472 407.72 46.472 
L 313.152813 46.472 
Q 311.152813 46.472 311.152813 48.472 
L 311.152813 91.7845 
Q 311.152813 93.7845 313.152813 93.7845 
z
" style="fill:#ffffff;opacity:0.8;stroke:#cccccc;stroke-linejoin:miter;"/>
    </g>
    <g id="line2d_62">
     <path d="M 315.152813 54.570438 
L 335.152813 54.570438 
" style="fill:none;stroke:#0000ff;stroke-dasharray:1.5,2.475;stroke-dashoffset:0;stroke-width:1.5;"/>
    </g>
    <g id="line2d_63">
     <g>
      <use style="fill:#0000ff;stroke:#0000ff;" x="325.152813" xlink:href="#m313e52a62d" y="54.570438"/>
     </g>
    </g>
    <g id="text_33">
     <!-- transpose -->
     <g transform="translate(343.152813 58.070438)scale(0.1 -0.1)">
      <use xlink:href="#DejaVuSans-116"/>
      <use x="39.208984" xlink:href="#DejaVuSans-114"/>
      <use x="80.322266" xlink:href="#DejaVuSans-97"/>
      <use x="141.601562" xlink:href="#DejaVuSans-110"/>
      <use x="204.980469" xlink:href="#DejaVuSans-115"/>
      <use x="257.080078" xlink:href="#DejaVuSans-112"/>
      <use x="320.556641" xlink:href="#DejaVuSans-111"/>
      <use x="381.738281" xlink:href="#DejaVuSans-115"/>
      <use x="433.837891" xlink:href="#DejaVuSans-101"/>
     </g>
    </g>
    <g id="line2d_64">
     <path d="M 315.152813 69.248563 
L 335.152813 69.248563 
" style="fill:none;stroke:#ff0000;stroke-dasharray:1.5,2.475;stroke-dashoffset:0;stroke-width:1.5;"/>
    </g>
    <g id="line2d_65">
     <g>
      <use style="fill:#ff0000;stroke:#ff0000;" x="325.152813" xlink:href="#mccb9480616" y="69.248563"/>
     </g>
    </g>
    <g id="text_34">
     <!-- transpose_tr -->
     <g transform="translate(343.152813 72.748563)scale(0.1 -0.1)">
      <use xlink:href="#DejaVuSans-116"/>
      <use x="39.208984" xlink:href="#DejaVuSans-114"/>
      <use x="80.322266" xlink:href="#DejaVuSans-97"/>
      <use x="141.601562" xlink:href="#DejaVuSans-110"/>
      <use x="204.980469" xlink:href="#DejaVuSans-115"/>
      <use x="257.080078" xlink:href="#DejaVuSans-112"/>
      <use x="320.556641" xlink:href="#DejaVuSans-111"/>
      <use x="381.738281" xlink:href="#DejaVuSans-115"/>
      <use x="433.837891" xlink:href="#DejaVuSans-101"/>
      <use x="495.361328" xlink:href="#DejaVuSans-95"/>
      <use x="545.361328" xlink:href="#DejaVuSans-116"/>
      <use x="584.570312" xlink:href="#DejaVuSans-114"/>
     </g>
    </g>
    <g id="line2d_66">
     <path d="M 315.152813 84.204813 
L 335.152813 84.204813 
" style="fill:none;stroke:#008000;stroke-dasharray:1.5,2.475;stroke-dashoffset:0;stroke-width:1.5;"/>
    </g>
    <g id="line2d_67">
     <g>
      <use style="fill:#008000;stroke:#008000;" x="325.152813" xlink:href="#mf1fb90f955" y="84.204813"/>
     </g>
    </g>
    <g id="text_35">
     <!-- mean -->
     <g transform="translate(343.152813 87.704813)scale(0.1 -0.1)">
      <defs>
       <path d="M 52 44.1875 
Q 55.375 50.25 60.0625 53.125 
Q 64.75 56 71.09375 56 
Q 79.640625 56 84.28125 50.015625 
Q 88.921875 44.046875 88.921875 33.015625 
L 88.921875 0 
L 79.890625 0 
L 79.890625 32.71875 
Q 79.890625 40.578125 77.09375 44.375 
Q 74.3125 48.1875 68.609375 48.1875 
Q 61.625 48.1875 57.5625 43.546875 
Q 53.515625 38.921875 53.515625 30.90625 
L 53.515625 0 
L 44.484375 0 
L 44.484375 32.71875 
Q 44.484375 40.625 41.703125 44.40625 
Q 38.921875 48.1875 33.109375 48.1875 
Q 26.21875 48.1875 22.15625 43.53125 
Q 18.109375 38.875 18.109375 30.90625 
L 18.109375 0 
L 9.078125 0 
L 9.078125 54.6875 
L 18.109375 54.6875 
L 18.109375 46.1875 
Q 21.1875 51.21875 25.484375 53.609375 
Q 29.78125 56 35.6875 56 
Q 41.65625 56 45.828125 52.96875 
Q 50 49.953125 52 44.1875 
z
" id="DejaVuSans-109"/>
      </defs>
      <use xlink:href="#DejaVuSans-109"/>
      <use x="97.412109" xlink:href="#DejaVuSans-101"/>
      <use x="158.935547" xlink:href="#DejaVuSans-97"/>
      <use x="220.214844" xlink:href="#DejaVuSans-110"/>
     </g>
    </g>
   </g>
  </g>
 </g>
 <defs>
  <clipPath id="pa7b6a8e5f1">
   <rect height="266.112" width="357.12" x="57.6" y="41.472"/>
  </clipPath>
 </defs>
</svg>
