<?xml version="1.0" encoding="utf-8" standalone="no"?>
<!DOCTYPE svg PUBLIC "-//W3C//DTD SVG 1.1//EN"
  "http://www.w3.org/Graphics/SVG/1.1/DTD/svg11.dtd">
<!-- Created with matplotlib (https://matplotlib.org/) -->
<svg height="345.6pt" version="1.1" viewBox="0 0 460.8 345.6" width="460.8pt" xmlns="http://www.w3.org/2000/svg" xmlns:xlink="http://www.w3.org/1999/xlink">
 <metadata>
  <rdf:RDF xmlns:cc="http://creativecommons.org/ns#" xmlns:dc="http://purl.org/dc/elements/1.1/" xmlns:rdf="http://www.w3.org/1999/02/22-rdf-syntax-ns#">
   <cc:Work>
    <dc:type rdf:resource="http://purl.org/dc/dcmitype/StillImage"/>
    <dc:date>2020-08-24T15:24:12.700184</dc:date>
    <dc:format>image/svg+xml</dc:format>
    <dc:creator>
     <cc:Agent>
      <dc:title>Matplotlib v3.3.1, https://matplotlib.org/</dc:title>
     </cc:Agent>
    </dc:creator>
   </cc:Work>
  </rdf:RDF>
 </metadata>
 <defs>
  <style type="text/css">*{stroke-linecap:butt;stroke-linejoin:round;}</style>
 </defs>
 <g id="figure_1">
  <g id="patch_1">
   <path d="M 0 345.6 
L 460.8 345.6 
L 460.8 0 
L 0 0 
z
" style="fill:#ffffff;"/>
  </g>
  <g id="axes_1">
   <g id="patch_2">
    <path d="M 57.6 307.584 
L 414.72 307.584 
L 414.72 41.472 
L 57.6 41.472 
z
" style="fill:#ffffff;"/>
   </g>
   <g id="matplotlib.axis_1">
    <g id="xtick_1">
     <g id="line2d_1">
      <path clip-path="url(#p21055689ba)" d="M 61.612584 307.584 
L 61.612584 41.472 
" style="fill:none;stroke:#b0b0b0;stroke-dasharray:5.12,1.28,0.8,1.28;stroke-dashoffset:0;stroke-width:0.8;"/>
     </g>
     <g id="line2d_2">
      <defs>
       <path d="M 0 0 
L 0 3.5 
" id="m40e6bd106f" style="stroke:#000000;stroke-width:0.8;"/>
      </defs>
      <g>
       <use style="stroke:#000000;stroke-width:0.8;" x="61.612584" xlink:href="#m40e6bd106f" y="307.584"/>
      </g>
     </g>
     <g id="text_1">
      <!-- 1 -->
      <g transform="translate(58.431334 322.182437)scale(0.1 -0.1)">
       <defs>
        <path d="M 12.40625 8.296875 
L 28.515625 8.296875 
L 28.515625 63.921875 
L 10.984375 60.40625 
L 10.984375 69.390625 
L 28.421875 72.90625 
L 38.28125 72.90625 
L 38.28125 8.296875 
L 54.390625 8.296875 
L 54.390625 0 
L 12.40625 0 
z
" id="DejaVuSans-49"/>
       </defs>
       <use xlink:href="#DejaVuSans-49"/>
      </g>
     </g>
    </g>
    <g id="xtick_2">
     <g id="line2d_3">
      <path clip-path="url(#p21055689ba)" d="M 73.650337 307.584 
L 73.650337 41.472 
" style="fill:none;stroke:#b0b0b0;stroke-dasharray:5.12,1.28,0.8,1.28;stroke-dashoffset:0;stroke-width:0.8;"/>
     </g>
     <g id="line2d_4">
      <g>
       <use style="stroke:#000000;stroke-width:0.8;" x="73.650337" xlink:href="#m40e6bd106f" y="307.584"/>
      </g>
     </g>
     <g id="text_2">
      <!-- 4 -->
      <g transform="translate(70.469087 322.182437)scale(0.1 -0.1)">
       <defs>
        <path d="M 37.796875 64.3125 
L 12.890625 25.390625 
L 37.796875 25.390625 
z
M 35.203125 72.90625 
L 47.609375 72.90625 
L 47.609375 25.390625 
L 58.015625 25.390625 
L 58.015625 17.1875 
L 47.609375 17.1875 
L 47.609375 0 
L 37.796875 0 
L 37.796875 17.1875 
L 4.890625 17.1875 
L 4.890625 26.703125 
z
" id="DejaVuSans-52"/>
       </defs>
       <use xlink:href="#DejaVuSans-52"/>
      </g>
     </g>
    </g>
    <g id="xtick_3">
     <g id="line2d_5">
      <path clip-path="url(#p21055689ba)" d="M 89.700674 307.584 
L 89.700674 41.472 
" style="fill:none;stroke:#b0b0b0;stroke-dasharray:5.12,1.28,0.8,1.28;stroke-dashoffset:0;stroke-width:0.8;"/>
     </g>
     <g id="line2d_6">
      <g>
       <use style="stroke:#000000;stroke-width:0.8;" x="89.700674" xlink:href="#m40e6bd106f" y="307.584"/>
      </g>
     </g>
     <g id="text_3">
      <!-- 8 -->
      <g transform="translate(86.519424 322.182437)scale(0.1 -0.1)">
       <defs>
        <path d="M 31.78125 34.625 
Q 24.75 34.625 20.71875 30.859375 
Q 16.703125 27.09375 16.703125 20.515625 
Q 16.703125 13.921875 20.71875 10.15625 
Q 24.75 6.390625 31.78125 6.390625 
Q 38.8125 6.390625 42.859375 10.171875 
Q 46.921875 13.96875 46.921875 20.515625 
Q 46.921875 27.09375 42.890625 30.859375 
Q 38.875 34.625 31.78125 34.625 
z
M 21.921875 38.8125 
Q 15.578125 40.375 12.03125 44.71875 
Q 8.5 49.078125 8.5 55.328125 
Q 8.5 64.0625 14.71875 69.140625 
Q 20.953125 74.21875 31.78125 74.21875 
Q 42.671875 74.21875 48.875 69.140625 
Q 55.078125 64.0625 55.078125 55.328125 
Q 55.078125 49.078125 51.53125 44.71875 
Q 48 40.375 41.703125 38.8125 
Q 48.828125 37.15625 52.796875 32.3125 
Q 56.78125 27.484375 56.78125 20.515625 
Q 56.78125 9.90625 50.3125 4.234375 
Q 43.84375 -1.421875 31.78125 -1.421875 
Q 19.734375 -1.421875 13.25 4.234375 
Q 6.78125 9.90625 6.78125 20.515625 
Q 6.78125 27.484375 10.78125 32.3125 
Q 14.796875 37.15625 21.921875 38.8125 
z
M 18.3125 54.390625 
Q 18.3125 48.734375 21.84375 45.5625 
Q 25.390625 42.390625 31.78125 42.390625 
Q 38.140625 42.390625 41.71875 45.5625 
Q 45.3125 48.734375 45.3125 54.390625 
Q 45.3125 60.0625 41.71875 63.234375 
Q 38.140625 66.40625 31.78125 66.40625 
Q 25.390625 66.40625 21.84375 63.234375 
Q 18.3125 60.0625 18.3125 54.390625 
z
" id="DejaVuSans-56"/>
       </defs>
       <use xlink:href="#DejaVuSans-56"/>
      </g>
     </g>
    </g>
    <g id="xtick_4">
     <g id="line2d_7">
      <path clip-path="url(#p21055689ba)" d="M 105.751011 307.584 
L 105.751011 41.472 
" style="fill:none;stroke:#b0b0b0;stroke-dasharray:5.12,1.28,0.8,1.28;stroke-dashoffset:0;stroke-width:0.8;"/>
     </g>
     <g id="line2d_8">
      <g>
       <use style="stroke:#000000;stroke-width:0.8;" x="105.751011" xlink:href="#m40e6bd106f" y="307.584"/>
      </g>
     </g>
     <g id="text_4">
      <!-- 12 -->
      <g transform="translate(99.388511 322.182437)scale(0.1 -0.1)">
       <defs>
        <path d="M 19.1875 8.296875 
L 53.609375 8.296875 
L 53.609375 0 
L 7.328125 0 
L 7.328125 8.296875 
Q 12.9375 14.109375 22.625 23.890625 
Q 32.328125 33.6875 34.8125 36.53125 
Q 39.546875 41.84375 41.421875 45.53125 
Q 43.3125 49.21875 43.3125 52.78125 
Q 43.3125 58.59375 39.234375 62.25 
Q 35.15625 65.921875 28.609375 65.921875 
Q 23.96875 65.921875 18.8125 64.3125 
Q 13.671875 62.703125 7.8125 59.421875 
L 7.8125 69.390625 
Q 13.765625 71.78125 18.9375 73 
Q 24.125 74.21875 28.421875 74.21875 
Q 39.75 74.21875 46.484375 68.546875 
Q 53.21875 62.890625 53.21875 53.421875 
Q 53.21875 48.921875 51.53125 44.890625 
Q 49.859375 40.875 45.40625 35.40625 
Q 44.1875 33.984375 37.640625 27.21875 
Q 31.109375 20.453125 19.1875 8.296875 
z
" id="DejaVuSans-50"/>
       </defs>
       <use xlink:href="#DejaVuSans-49"/>
       <use x="63.623047" xlink:href="#DejaVuSans-50"/>
      </g>
     </g>
    </g>
    <g id="xtick_5">
     <g id="line2d_9">
      <path clip-path="url(#p21055689ba)" d="M 121.801348 307.584 
L 121.801348 41.472 
" style="fill:none;stroke:#b0b0b0;stroke-dasharray:5.12,1.28,0.8,1.28;stroke-dashoffset:0;stroke-width:0.8;"/>
     </g>
     <g id="line2d_10">
      <g>
       <use style="stroke:#000000;stroke-width:0.8;" x="121.801348" xlink:href="#m40e6bd106f" y="307.584"/>
      </g>
     </g>
     <g id="text_5">
      <!-- 16 -->
      <g transform="translate(115.438848 322.182437)scale(0.1 -0.1)">
       <defs>
        <path d="M 33.015625 40.375 
Q 26.375 40.375 22.484375 35.828125 
Q 18.609375 31.296875 18.609375 23.390625 
Q 18.609375 15.53125 22.484375 10.953125 
Q 26.375 6.390625 33.015625 6.390625 
Q 39.65625 6.390625 43.53125 10.953125 
Q 47.40625 15.53125 47.40625 23.390625 
Q 47.40625 31.296875 43.53125 35.828125 
Q 39.65625 40.375 33.015625 40.375 
z
M 52.59375 71.296875 
L 52.59375 62.3125 
Q 48.875 64.0625 45.09375 64.984375 
Q 41.3125 65.921875 37.59375 65.921875 
Q 27.828125 65.921875 22.671875 59.328125 
Q 17.53125 52.734375 16.796875 39.40625 
Q 19.671875 43.65625 24.015625 45.921875 
Q 28.375 48.1875 33.59375 48.1875 
Q 44.578125 48.1875 50.953125 41.515625 
Q 57.328125 34.859375 57.328125 23.390625 
Q 57.328125 12.15625 50.6875 5.359375 
Q 44.046875 -1.421875 33.015625 -1.421875 
Q 20.359375 -1.421875 13.671875 8.265625 
Q 6.984375 17.96875 6.984375 36.375 
Q 6.984375 53.65625 15.1875 63.9375 
Q 23.390625 74.21875 37.203125 74.21875 
Q 40.921875 74.21875 44.703125 73.484375 
Q 48.484375 72.75 52.59375 71.296875 
z
" id="DejaVuSans-54"/>
       </defs>
       <use xlink:href="#DejaVuSans-49"/>
       <use x="63.623047" xlink:href="#DejaVuSans-54"/>
      </g>
     </g>
    </g>
    <g id="xtick_6">
     <g id="line2d_11">
      <path clip-path="url(#p21055689ba)" d="M 137.851685 307.584 
L 137.851685 41.472 
" style="fill:none;stroke:#b0b0b0;stroke-dasharray:5.12,1.28,0.8,1.28;stroke-dashoffset:0;stroke-width:0.8;"/>
     </g>
     <g id="line2d_12">
      <g>
       <use style="stroke:#000000;stroke-width:0.8;" x="137.851685" xlink:href="#m40e6bd106f" y="307.584"/>
      </g>
     </g>
     <g id="text_6">
      <!-- 20 -->
      <g transform="translate(131.489185 322.182437)scale(0.1 -0.1)">
       <defs>
        <path d="M 31.78125 66.40625 
Q 24.171875 66.40625 20.328125 58.90625 
Q 16.5 51.421875 16.5 36.375 
Q 16.5 21.390625 20.328125 13.890625 
Q 24.171875 6.390625 31.78125 6.390625 
Q 39.453125 6.390625 43.28125 13.890625 
Q 47.125 21.390625 47.125 36.375 
Q 47.125 51.421875 43.28125 58.90625 
Q 39.453125 66.40625 31.78125 66.40625 
z
M 31.78125 74.21875 
Q 44.046875 74.21875 50.515625 64.515625 
Q 56.984375 54.828125 56.984375 36.375 
Q 56.984375 17.96875 50.515625 8.265625 
Q 44.046875 -1.421875 31.78125 -1.421875 
Q 19.53125 -1.421875 13.0625 8.265625 
Q 6.59375 17.96875 6.59375 36.375 
Q 6.59375 54.828125 13.0625 64.515625 
Q 19.53125 74.21875 31.78125 74.21875 
z
" id="DejaVuSans-48"/>
       </defs>
       <use xlink:href="#DejaVuSans-50"/>
       <use x="63.623047" xlink:href="#DejaVuSans-48"/>
      </g>
     </g>
    </g>
    <g id="xtick_7">
     <g id="line2d_13">
      <path clip-path="url(#p21055689ba)" d="M 153.902022 307.584 
L 153.902022 41.472 
" style="fill:none;stroke:#b0b0b0;stroke-dasharray:5.12,1.28,0.8,1.28;stroke-dashoffset:0;stroke-width:0.8;"/>
     </g>
     <g id="line2d_14">
      <g>
       <use style="stroke:#000000;stroke-width:0.8;" x="153.902022" xlink:href="#m40e6bd106f" y="307.584"/>
      </g>
     </g>
     <g id="text_7">
      <!-- 24 -->
      <g transform="translate(147.539522 322.182437)scale(0.1 -0.1)">
       <use xlink:href="#DejaVuSans-50"/>
       <use x="63.623047" xlink:href="#DejaVuSans-52"/>
      </g>
     </g>
    </g>
    <g id="xtick_8">
     <g id="line2d_15">
      <path clip-path="url(#p21055689ba)" d="M 169.95236 307.584 
L 169.95236 41.472 
" style="fill:none;stroke:#b0b0b0;stroke-dasharray:5.12,1.28,0.8,1.28;stroke-dashoffset:0;stroke-width:0.8;"/>
     </g>
     <g id="line2d_16">
      <g>
       <use style="stroke:#000000;stroke-width:0.8;" x="169.95236" xlink:href="#m40e6bd106f" y="307.584"/>
      </g>
     </g>
     <g id="text_8">
      <!-- 28 -->
      <g transform="translate(163.58986 322.182437)scale(0.1 -0.1)">
       <use xlink:href="#DejaVuSans-50"/>
       <use x="63.623047" xlink:href="#DejaVuSans-56"/>
      </g>
     </g>
    </g>
    <g id="xtick_9">
     <g id="line2d_17">
      <path clip-path="url(#p21055689ba)" d="M 186.002697 307.584 
L 186.002697 41.472 
" style="fill:none;stroke:#b0b0b0;stroke-dasharray:5.12,1.28,0.8,1.28;stroke-dashoffset:0;stroke-width:0.8;"/>
     </g>
     <g id="line2d_18">
      <g>
       <use style="stroke:#000000;stroke-width:0.8;" x="186.002697" xlink:href="#m40e6bd106f" y="307.584"/>
      </g>
     </g>
     <g id="text_9">
      <!-- 32 -->
      <g transform="translate(179.640197 322.182437)scale(0.1 -0.1)">
       <defs>
        <path d="M 40.578125 39.3125 
Q 47.65625 37.796875 51.625 33 
Q 55.609375 28.21875 55.609375 21.1875 
Q 55.609375 10.40625 48.1875 4.484375 
Q 40.765625 -1.421875 27.09375 -1.421875 
Q 22.515625 -1.421875 17.65625 -0.515625 
Q 12.796875 0.390625 7.625 2.203125 
L 7.625 11.71875 
Q 11.71875 9.328125 16.59375 8.109375 
Q 21.484375 6.890625 26.8125 6.890625 
Q 36.078125 6.890625 40.9375 10.546875 
Q 45.796875 14.203125 45.796875 21.1875 
Q 45.796875 27.640625 41.28125 31.265625 
Q 36.765625 34.90625 28.71875 34.90625 
L 20.21875 34.90625 
L 20.21875 43.015625 
L 29.109375 43.015625 
Q 36.375 43.015625 40.234375 45.921875 
Q 44.09375 48.828125 44.09375 54.296875 
Q 44.09375 59.90625 40.109375 62.90625 
Q 36.140625 65.921875 28.71875 65.921875 
Q 24.65625 65.921875 20.015625 65.03125 
Q 15.375 64.15625 9.8125 62.3125 
L 9.8125 71.09375 
Q 15.4375 72.65625 20.34375 73.4375 
Q 25.25 74.21875 29.59375 74.21875 
Q 40.828125 74.21875 47.359375 69.109375 
Q 53.90625 64.015625 53.90625 55.328125 
Q 53.90625 49.265625 50.4375 45.09375 
Q 46.96875 40.921875 40.578125 39.3125 
z
" id="DejaVuSans-51"/>
       </defs>
       <use xlink:href="#DejaVuSans-51"/>
       <use x="63.623047" xlink:href="#DejaVuSans-50"/>
      </g>
     </g>
    </g>
    <g id="xtick_10">
     <g id="line2d_19">
      <path clip-path="url(#p21055689ba)" d="M 202.053034 307.584 
L 202.053034 41.472 
" style="fill:none;stroke:#b0b0b0;stroke-dasharray:5.12,1.28,0.8,1.28;stroke-dashoffset:0;stroke-width:0.8;"/>
     </g>
     <g id="line2d_20">
      <g>
       <use style="stroke:#000000;stroke-width:0.8;" x="202.053034" xlink:href="#m40e6bd106f" y="307.584"/>
      </g>
     </g>
     <g id="text_10">
      <!-- 36 -->
      <g transform="translate(195.690534 322.182437)scale(0.1 -0.1)">
       <use xlink:href="#DejaVuSans-51"/>
       <use x="63.623047" xlink:href="#DejaVuSans-54"/>
      </g>
     </g>
    </g>
    <g id="xtick_11">
     <g id="line2d_21">
      <path clip-path="url(#p21055689ba)" d="M 218.103371 307.584 
L 218.103371 41.472 
" style="fill:none;stroke:#b0b0b0;stroke-dasharray:5.12,1.28,0.8,1.28;stroke-dashoffset:0;stroke-width:0.8;"/>
     </g>
     <g id="line2d_22">
      <g>
       <use style="stroke:#000000;stroke-width:0.8;" x="218.103371" xlink:href="#m40e6bd106f" y="307.584"/>
      </g>
     </g>
     <g id="text_11">
      <!-- 40 -->
      <g transform="translate(211.740871 322.182437)scale(0.1 -0.1)">
       <use xlink:href="#DejaVuSans-52"/>
       <use x="63.623047" xlink:href="#DejaVuSans-48"/>
      </g>
     </g>
    </g>
    <g id="xtick_12">
     <g id="line2d_23">
      <path clip-path="url(#p21055689ba)" d="M 234.153708 307.584 
L 234.153708 41.472 
" style="fill:none;stroke:#b0b0b0;stroke-dasharray:5.12,1.28,0.8,1.28;stroke-dashoffset:0;stroke-width:0.8;"/>
     </g>
     <g id="line2d_24">
      <g>
       <use style="stroke:#000000;stroke-width:0.8;" x="234.153708" xlink:href="#m40e6bd106f" y="307.584"/>
      </g>
     </g>
     <g id="text_12">
      <!-- 44 -->
      <g transform="translate(227.791208 322.182437)scale(0.1 -0.1)">
       <use xlink:href="#DejaVuSans-52"/>
       <use x="63.623047" xlink:href="#DejaVuSans-52"/>
      </g>
     </g>
    </g>
    <g id="xtick_13">
     <g id="line2d_25">
      <path clip-path="url(#p21055689ba)" d="M 250.204045 307.584 
L 250.204045 41.472 
" style="fill:none;stroke:#b0b0b0;stroke-dasharray:5.12,1.28,0.8,1.28;stroke-dashoffset:0;stroke-width:0.8;"/>
     </g>
     <g id="line2d_26">
      <g>
       <use style="stroke:#000000;stroke-width:0.8;" x="250.204045" xlink:href="#m40e6bd106f" y="307.584"/>
      </g>
     </g>
     <g id="text_13">
      <!-- 48 -->
      <g transform="translate(243.841545 322.182437)scale(0.1 -0.1)">
       <use xlink:href="#DejaVuSans-52"/>
       <use x="63.623047" xlink:href="#DejaVuSans-56"/>
      </g>
     </g>
    </g>
    <g id="xtick_14">
     <g id="line2d_27">
      <path clip-path="url(#p21055689ba)" d="M 266.254382 307.584 
L 266.254382 41.472 
" style="fill:none;stroke:#b0b0b0;stroke-dasharray:5.12,1.28,0.8,1.28;stroke-dashoffset:0;stroke-width:0.8;"/>
     </g>
     <g id="line2d_28">
      <g>
       <use style="stroke:#000000;stroke-width:0.8;" x="266.254382" xlink:href="#m40e6bd106f" y="307.584"/>
      </g>
     </g>
     <g id="text_14">
      <!-- 52 -->
      <g transform="translate(259.891882 322.182437)scale(0.1 -0.1)">
       <defs>
        <path d="M 10.796875 72.90625 
L 49.515625 72.90625 
L 49.515625 64.59375 
L 19.828125 64.59375 
L 19.828125 46.734375 
Q 21.96875 47.46875 24.109375 47.828125 
Q 26.265625 48.1875 28.421875 48.1875 
Q 40.625 48.1875 47.75 41.5 
Q 54.890625 34.8125 54.890625 23.390625 
Q 54.890625 11.625 47.5625 5.09375 
Q 40.234375 -1.421875 26.90625 -1.421875 
Q 22.3125 -1.421875 17.546875 -0.640625 
Q 12.796875 0.140625 7.71875 1.703125 
L 7.71875 11.625 
Q 12.109375 9.234375 16.796875 8.0625 
Q 21.484375 6.890625 26.703125 6.890625 
Q 35.15625 6.890625 40.078125 11.328125 
Q 45.015625 15.765625 45.015625 23.390625 
Q 45.015625 31 40.078125 35.4375 
Q 35.15625 39.890625 26.703125 39.890625 
Q 22.75 39.890625 18.8125 39.015625 
Q 14.890625 38.140625 10.796875 36.28125 
z
" id="DejaVuSans-53"/>
       </defs>
       <use xlink:href="#DejaVuSans-53"/>
       <use x="63.623047" xlink:href="#DejaVuSans-50"/>
      </g>
     </g>
    </g>
    <g id="xtick_15">
     <g id="line2d_29">
      <path clip-path="url(#p21055689ba)" d="M 282.304719 307.584 
L 282.304719 41.472 
" style="fill:none;stroke:#b0b0b0;stroke-dasharray:5.12,1.28,0.8,1.28;stroke-dashoffset:0;stroke-width:0.8;"/>
     </g>
     <g id="line2d_30">
      <g>
       <use style="stroke:#000000;stroke-width:0.8;" x="282.304719" xlink:href="#m40e6bd106f" y="307.584"/>
      </g>
     </g>
     <g id="text_15">
      <!-- 56 -->
      <g transform="translate(275.942219 322.182437)scale(0.1 -0.1)">
       <use xlink:href="#DejaVuSans-53"/>
       <use x="63.623047" xlink:href="#DejaVuSans-54"/>
      </g>
     </g>
    </g>
    <g id="xtick_16">
     <g id="line2d_31">
      <path clip-path="url(#p21055689ba)" d="M 298.355056 307.584 
L 298.355056 41.472 
" style="fill:none;stroke:#b0b0b0;stroke-dasharray:5.12,1.28,0.8,1.28;stroke-dashoffset:0;stroke-width:0.8;"/>
     </g>
     <g id="line2d_32">
      <g>
       <use style="stroke:#000000;stroke-width:0.8;" x="298.355056" xlink:href="#m40e6bd106f" y="307.584"/>
      </g>
     </g>
     <g id="text_16">
      <!-- 60 -->
      <g transform="translate(291.992556 322.182437)scale(0.1 -0.1)">
       <use xlink:href="#DejaVuSans-54"/>
       <use x="63.623047" xlink:href="#DejaVuSans-48"/>
      </g>
     </g>
    </g>
    <g id="xtick_17">
     <g id="line2d_33">
      <path clip-path="url(#p21055689ba)" d="M 314.405393 307.584 
L 314.405393 41.472 
" style="fill:none;stroke:#b0b0b0;stroke-dasharray:5.12,1.28,0.8,1.28;stroke-dashoffset:0;stroke-width:0.8;"/>
     </g>
     <g id="line2d_34">
      <g>
       <use style="stroke:#000000;stroke-width:0.8;" x="314.405393" xlink:href="#m40e6bd106f" y="307.584"/>
      </g>
     </g>
     <g id="text_17">
      <!-- 64 -->
      <g transform="translate(308.042893 322.182437)scale(0.1 -0.1)">
       <use xlink:href="#DejaVuSans-54"/>
       <use x="63.623047" xlink:href="#DejaVuSans-52"/>
      </g>
     </g>
    </g>
    <g id="xtick_18">
     <g id="line2d_35">
      <path clip-path="url(#p21055689ba)" d="M 330.45573 307.584 
L 330.45573 41.472 
" style="fill:none;stroke:#b0b0b0;stroke-dasharray:5.12,1.28,0.8,1.28;stroke-dashoffset:0;stroke-width:0.8;"/>
     </g>
     <g id="line2d_36">
      <g>
       <use style="stroke:#000000;stroke-width:0.8;" x="330.45573" xlink:href="#m40e6bd106f" y="307.584"/>
      </g>
     </g>
     <g id="text_18">
      <!-- 68 -->
      <g transform="translate(324.09323 322.182437)scale(0.1 -0.1)">
       <use xlink:href="#DejaVuSans-54"/>
       <use x="63.623047" xlink:href="#DejaVuSans-56"/>
      </g>
     </g>
    </g>
    <g id="xtick_19">
     <g id="line2d_37">
      <path clip-path="url(#p21055689ba)" d="M 346.506067 307.584 
L 346.506067 41.472 
" style="fill:none;stroke:#b0b0b0;stroke-dasharray:5.12,1.28,0.8,1.28;stroke-dashoffset:0;stroke-width:0.8;"/>
     </g>
     <g id="line2d_38">
      <g>
       <use style="stroke:#000000;stroke-width:0.8;" x="346.506067" xlink:href="#m40e6bd106f" y="307.584"/>
      </g>
     </g>
     <g id="text_19">
      <!-- 72 -->
      <g transform="translate(340.143567 322.182437)scale(0.1 -0.1)">
       <defs>
        <path d="M 8.203125 72.90625 
L 55.078125 72.90625 
L 55.078125 68.703125 
L 28.609375 0 
L 18.3125 0 
L 43.21875 64.59375 
L 8.203125 64.59375 
z
" id="DejaVuSans-55"/>
       </defs>
       <use xlink:href="#DejaVuSans-55"/>
       <use x="63.623047" xlink:href="#DejaVuSans-50"/>
      </g>
     </g>
    </g>
    <g id="xtick_20">
     <g id="line2d_39">
      <path clip-path="url(#p21055689ba)" d="M 362.556404 307.584 
L 362.556404 41.472 
" style="fill:none;stroke:#b0b0b0;stroke-dasharray:5.12,1.28,0.8,1.28;stroke-dashoffset:0;stroke-width:0.8;"/>
     </g>
     <g id="line2d_40">
      <g>
       <use style="stroke:#000000;stroke-width:0.8;" x="362.556404" xlink:href="#m40e6bd106f" y="307.584"/>
      </g>
     </g>
     <g id="text_20">
      <!-- 76 -->
      <g transform="translate(356.193904 322.182437)scale(0.1 -0.1)">
       <use xlink:href="#DejaVuSans-55"/>
       <use x="63.623047" xlink:href="#DejaVuSans-54"/>
      </g>
     </g>
    </g>
    <g id="xtick_21">
     <g id="line2d_41">
      <path clip-path="url(#p21055689ba)" d="M 378.606742 307.584 
L 378.606742 41.472 
" style="fill:none;stroke:#b0b0b0;stroke-dasharray:5.12,1.28,0.8,1.28;stroke-dashoffset:0;stroke-width:0.8;"/>
     </g>
     <g id="line2d_42">
      <g>
       <use style="stroke:#000000;stroke-width:0.8;" x="378.606742" xlink:href="#m40e6bd106f" y="307.584"/>
      </g>
     </g>
     <g id="text_21">
      <!-- 80 -->
      <g transform="translate(372.244242 322.182437)scale(0.1 -0.1)">
       <use xlink:href="#DejaVuSans-56"/>
       <use x="63.623047" xlink:href="#DejaVuSans-48"/>
      </g>
     </g>
    </g>
    <g id="xtick_22">
     <g id="line2d_43">
      <path clip-path="url(#p21055689ba)" d="M 394.657079 307.584 
L 394.657079 41.472 
" style="fill:none;stroke:#b0b0b0;stroke-dasharray:5.12,1.28,0.8,1.28;stroke-dashoffset:0;stroke-width:0.8;"/>
     </g>
     <g id="line2d_44">
      <g>
       <use style="stroke:#000000;stroke-width:0.8;" x="394.657079" xlink:href="#m40e6bd106f" y="307.584"/>
      </g>
     </g>
     <g id="text_22">
      <!-- 84 -->
      <g transform="translate(388.294579 322.182437)scale(0.1 -0.1)">
       <use xlink:href="#DejaVuSans-56"/>
       <use x="63.623047" xlink:href="#DejaVuSans-52"/>
      </g>
     </g>
    </g>
    <g id="xtick_23">
     <g id="line2d_45">
      <path clip-path="url(#p21055689ba)" d="M 410.707416 307.584 
L 410.707416 41.472 
" style="fill:none;stroke:#b0b0b0;stroke-dasharray:5.12,1.28,0.8,1.28;stroke-dashoffset:0;stroke-width:0.8;"/>
     </g>
     <g id="line2d_46">
      <g>
       <use style="stroke:#000000;stroke-width:0.8;" x="410.707416" xlink:href="#m40e6bd106f" y="307.584"/>
      </g>
     </g>
     <g id="text_23">
      <!-- 88 -->
      <g transform="translate(404.344916 322.182437)scale(0.1 -0.1)">
       <use xlink:href="#DejaVuSans-56"/>
       <use x="63.623047" xlink:href="#DejaVuSans-56"/>
      </g>
     </g>
    </g>
    <g id="text_24">
     <!-- threads -->
     <g transform="translate(217.168594 335.860562)scale(0.1 -0.1)">
      <defs>
       <path d="M 18.3125 70.21875 
L 18.3125 54.6875 
L 36.8125 54.6875 
L 36.8125 47.703125 
L 18.3125 47.703125 
L 18.3125 18.015625 
Q 18.3125 11.328125 20.140625 9.421875 
Q 21.96875 7.515625 27.59375 7.515625 
L 36.8125 7.515625 
L 36.8125 0 
L 27.59375 0 
Q 17.1875 0 13.234375 3.875 
Q 9.28125 7.765625 9.28125 18.015625 
L 9.28125 47.703125 
L 2.6875 47.703125 
L 2.6875 54.6875 
L 9.28125 54.6875 
L 9.28125 70.21875 
z
" id="DejaVuSans-116"/>
       <path d="M 54.890625 33.015625 
L 54.890625 0 
L 45.90625 0 
L 45.90625 32.71875 
Q 45.90625 40.484375 42.875 44.328125 
Q 39.84375 48.1875 33.796875 48.1875 
Q 26.515625 48.1875 22.3125 43.546875 
Q 18.109375 38.921875 18.109375 30.90625 
L 18.109375 0 
L 9.078125 0 
L 9.078125 75.984375 
L 18.109375 75.984375 
L 18.109375 46.1875 
Q 21.34375 51.125 25.703125 53.5625 
Q 30.078125 56 35.796875 56 
Q 45.21875 56 50.046875 50.171875 
Q 54.890625 44.34375 54.890625 33.015625 
z
" id="DejaVuSans-104"/>
       <path d="M 41.109375 46.296875 
Q 39.59375 47.171875 37.8125 47.578125 
Q 36.03125 48 33.890625 48 
Q 26.265625 48 22.1875 43.046875 
Q 18.109375 38.09375 18.109375 28.8125 
L 18.109375 0 
L 9.078125 0 
L 9.078125 54.6875 
L 18.109375 54.6875 
L 18.109375 46.1875 
Q 20.953125 51.171875 25.484375 53.578125 
Q 30.03125 56 36.53125 56 
Q 37.453125 56 38.578125 55.875 
Q 39.703125 55.765625 41.0625 55.515625 
z
" id="DejaVuSans-114"/>
       <path d="M 56.203125 29.59375 
L 56.203125 25.203125 
L 14.890625 25.203125 
Q 15.484375 15.921875 20.484375 11.0625 
Q 25.484375 6.203125 34.421875 6.203125 
Q 39.59375 6.203125 44.453125 7.46875 
Q 49.3125 8.734375 54.109375 11.28125 
L 54.109375 2.78125 
Q 49.265625 0.734375 44.1875 -0.34375 
Q 39.109375 -1.421875 33.890625 -1.421875 
Q 20.796875 -1.421875 13.15625 6.1875 
Q 5.515625 13.8125 5.515625 26.8125 
Q 5.515625 40.234375 12.765625 48.109375 
Q 20.015625 56 32.328125 56 
Q 43.359375 56 49.78125 48.890625 
Q 56.203125 41.796875 56.203125 29.59375 
z
M 47.21875 32.234375 
Q 47.125 39.59375 43.09375 43.984375 
Q 39.0625 48.390625 32.421875 48.390625 
Q 24.90625 48.390625 20.390625 44.140625 
Q 15.875 39.890625 15.1875 32.171875 
z
" id="DejaVuSans-101"/>
       <path d="M 34.28125 27.484375 
Q 23.390625 27.484375 19.1875 25 
Q 14.984375 22.515625 14.984375 16.5 
Q 14.984375 11.71875 18.140625 8.90625 
Q 21.296875 6.109375 26.703125 6.109375 
Q 34.1875 6.109375 38.703125 11.40625 
Q 43.21875 16.703125 43.21875 25.484375 
L 43.21875 27.484375 
z
M 52.203125 31.203125 
L 52.203125 0 
L 43.21875 0 
L 43.21875 8.296875 
Q 40.140625 3.328125 35.546875 0.953125 
Q 30.953125 -1.421875 24.3125 -1.421875 
Q 15.921875 -1.421875 10.953125 3.296875 
Q 6 8.015625 6 15.921875 
Q 6 25.140625 12.171875 29.828125 
Q 18.359375 34.515625 30.609375 34.515625 
L 43.21875 34.515625 
L 43.21875 35.40625 
Q 43.21875 41.609375 39.140625 45 
Q 35.0625 48.390625 27.6875 48.390625 
Q 23 48.390625 18.546875 47.265625 
Q 14.109375 46.140625 10.015625 43.890625 
L 10.015625 52.203125 
Q 14.9375 54.109375 19.578125 55.046875 
Q 24.21875 56 28.609375 56 
Q 40.484375 56 46.34375 49.84375 
Q 52.203125 43.703125 52.203125 31.203125 
z
" id="DejaVuSans-97"/>
       <path d="M 45.40625 46.390625 
L 45.40625 75.984375 
L 54.390625 75.984375 
L 54.390625 0 
L 45.40625 0 
L 45.40625 8.203125 
Q 42.578125 3.328125 38.25 0.953125 
Q 33.9375 -1.421875 27.875 -1.421875 
Q 17.96875 -1.421875 11.734375 6.484375 
Q 5.515625 14.40625 5.515625 27.296875 
Q 5.515625 40.1875 11.734375 48.09375 
Q 17.96875 56 27.875 56 
Q 33.9375 56 38.25 53.625 
Q 42.578125 51.265625 45.40625 46.390625 
z
M 14.796875 27.296875 
Q 14.796875 17.390625 18.875 11.75 
Q 22.953125 6.109375 30.078125 6.109375 
Q 37.203125 6.109375 41.296875 11.75 
Q 45.40625 17.390625 45.40625 27.296875 
Q 45.40625 37.203125 41.296875 42.84375 
Q 37.203125 48.484375 30.078125 48.484375 
Q 22.953125 48.484375 18.875 42.84375 
Q 14.796875 37.203125 14.796875 27.296875 
z
" id="DejaVuSans-100"/>
       <path d="M 44.28125 53.078125 
L 44.28125 44.578125 
Q 40.484375 46.53125 36.375 47.5 
Q 32.28125 48.484375 27.875 48.484375 
Q 21.1875 48.484375 17.84375 46.4375 
Q 14.5 44.390625 14.5 40.28125 
Q 14.5 37.15625 16.890625 35.375 
Q 19.28125 33.59375 26.515625 31.984375 
L 29.59375 31.296875 
Q 39.15625 29.25 43.1875 25.515625 
Q 47.21875 21.78125 47.21875 15.09375 
Q 47.21875 7.46875 41.1875 3.015625 
Q 35.15625 -1.421875 24.609375 -1.421875 
Q 20.21875 -1.421875 15.453125 -0.5625 
Q 10.6875 0.296875 5.421875 2 
L 5.421875 11.28125 
Q 10.40625 8.6875 15.234375 7.390625 
Q 20.0625 6.109375 24.8125 6.109375 
Q 31.15625 6.109375 34.5625 8.28125 
Q 37.984375 10.453125 37.984375 14.40625 
Q 37.984375 18.0625 35.515625 20.015625 
Q 33.0625 21.96875 24.703125 23.78125 
L 21.578125 24.515625 
Q 13.234375 26.265625 9.515625 29.90625 
Q 5.8125 33.546875 5.8125 39.890625 
Q 5.8125 47.609375 11.28125 51.796875 
Q 16.75 56 26.8125 56 
Q 31.78125 56 36.171875 55.265625 
Q 40.578125 54.546875 44.28125 53.078125 
z
" id="DejaVuSans-115"/>
      </defs>
      <use xlink:href="#DejaVuSans-116"/>
      <use x="39.208984" xlink:href="#DejaVuSans-104"/>
      <use x="102.587891" xlink:href="#DejaVuSans-114"/>
      <use x="141.451172" xlink:href="#DejaVuSans-101"/>
      <use x="202.974609" xlink:href="#DejaVuSans-97"/>
      <use x="264.253906" xlink:href="#DejaVuSans-100"/>
      <use x="327.730469" xlink:href="#DejaVuSans-115"/>
     </g>
    </g>
   </g>
   <g id="matplotlib.axis_2">
    <g id="ytick_1">
     <g id="line2d_47">
      <path clip-path="url(#p21055689ba)" d="M 57.6 273.671047 
L 414.72 273.671047 
" style="fill:none;stroke:#b0b0b0;stroke-dasharray:5.12,1.28,0.8,1.28;stroke-dashoffset:0;stroke-width:0.8;"/>
     </g>
     <g id="line2d_48">
      <defs>
       <path d="M 0 0 
L -3.5 0 
" id="maf05f4a900" style="stroke:#000000;stroke-width:0.8;"/>
      </defs>
      <g>
       <use style="stroke:#000000;stroke-width:0.8;" x="57.6" xlink:href="#maf05f4a900" y="273.671047"/>
      </g>
     </g>
     <g id="text_25">
      <!-- 0.005 -->
      <g transform="translate(21.971875 277.470265)scale(0.1 -0.1)">
       <defs>
        <path d="M 10.6875 12.40625 
L 21 12.40625 
L 21 0 
L 10.6875 0 
z
" id="DejaVuSans-46"/>
       </defs>
       <use xlink:href="#DejaVuSans-48"/>
       <use x="63.623047" xlink:href="#DejaVuSans-46"/>
       <use x="95.410156" xlink:href="#DejaVuSans-48"/>
       <use x="159.033203" xlink:href="#DejaVuSans-48"/>
       <use x="222.65625" xlink:href="#DejaVuSans-53"/>
      </g>
     </g>
    </g>
    <g id="ytick_2">
     <g id="line2d_49">
      <path clip-path="url(#p21055689ba)" d="M 57.6 231.923354 
L 414.72 231.923354 
" style="fill:none;stroke:#b0b0b0;stroke-dasharray:5.12,1.28,0.8,1.28;stroke-dashoffset:0;stroke-width:0.8;"/>
     </g>
     <g id="line2d_50">
      <g>
       <use style="stroke:#000000;stroke-width:0.8;" x="57.6" xlink:href="#maf05f4a900" y="231.923354"/>
      </g>
     </g>
     <g id="text_26">
      <!-- 0.010 -->
      <g transform="translate(21.971875 235.722573)scale(0.1 -0.1)">
       <use xlink:href="#DejaVuSans-48"/>
       <use x="63.623047" xlink:href="#DejaVuSans-46"/>
       <use x="95.410156" xlink:href="#DejaVuSans-48"/>
       <use x="159.033203" xlink:href="#DejaVuSans-49"/>
       <use x="222.65625" xlink:href="#DejaVuSans-48"/>
      </g>
     </g>
    </g>
    <g id="ytick_3">
     <g id="line2d_51">
      <path clip-path="url(#p21055689ba)" d="M 57.6 190.175661 
L 414.72 190.175661 
" style="fill:none;stroke:#b0b0b0;stroke-dasharray:5.12,1.28,0.8,1.28;stroke-dashoffset:0;stroke-width:0.8;"/>
     </g>
     <g id="line2d_52">
      <g>
       <use style="stroke:#000000;stroke-width:0.8;" x="57.6" xlink:href="#maf05f4a900" y="190.175661"/>
      </g>
     </g>
     <g id="text_27">
      <!-- 0.015 -->
      <g transform="translate(21.971875 193.97488)scale(0.1 -0.1)">
       <use xlink:href="#DejaVuSans-48"/>
       <use x="63.623047" xlink:href="#DejaVuSans-46"/>
       <use x="95.410156" xlink:href="#DejaVuSans-48"/>
       <use x="159.033203" xlink:href="#DejaVuSans-49"/>
       <use x="222.65625" xlink:href="#DejaVuSans-53"/>
      </g>
     </g>
    </g>
    <g id="ytick_4">
     <g id="line2d_53">
      <path clip-path="url(#p21055689ba)" d="M 57.6 148.427968 
L 414.72 148.427968 
" style="fill:none;stroke:#b0b0b0;stroke-dasharray:5.12,1.28,0.8,1.28;stroke-dashoffset:0;stroke-width:0.8;"/>
     </g>
     <g id="line2d_54">
      <g>
       <use style="stroke:#000000;stroke-width:0.8;" x="57.6" xlink:href="#maf05f4a900" y="148.427968"/>
      </g>
     </g>
     <g id="text_28">
      <!-- 0.020 -->
      <g transform="translate(21.971875 152.227187)scale(0.1 -0.1)">
       <use xlink:href="#DejaVuSans-48"/>
       <use x="63.623047" xlink:href="#DejaVuSans-46"/>
       <use x="95.410156" xlink:href="#DejaVuSans-48"/>
       <use x="159.033203" xlink:href="#DejaVuSans-50"/>
       <use x="222.65625" xlink:href="#DejaVuSans-48"/>
      </g>
     </g>
    </g>
    <g id="ytick_5">
     <g id="line2d_55">
      <path clip-path="url(#p21055689ba)" d="M 57.6 106.680275 
L 414.72 106.680275 
" style="fill:none;stroke:#b0b0b0;stroke-dasharray:5.12,1.28,0.8,1.28;stroke-dashoffset:0;stroke-width:0.8;"/>
     </g>
     <g id="line2d_56">
      <g>
       <use style="stroke:#000000;stroke-width:0.8;" x="57.6" xlink:href="#maf05f4a900" y="106.680275"/>
      </g>
     </g>
     <g id="text_29">
      <!-- 0.025 -->
      <g transform="translate(21.971875 110.479494)scale(0.1 -0.1)">
       <use xlink:href="#DejaVuSans-48"/>
       <use x="63.623047" xlink:href="#DejaVuSans-46"/>
       <use x="95.410156" xlink:href="#DejaVuSans-48"/>
       <use x="159.033203" xlink:href="#DejaVuSans-50"/>
       <use x="222.65625" xlink:href="#DejaVuSans-53"/>
      </g>
     </g>
    </g>
    <g id="ytick_6">
     <g id="line2d_57">
      <path clip-path="url(#p21055689ba)" d="M 57.6 64.932582 
L 414.72 64.932582 
" style="fill:none;stroke:#b0b0b0;stroke-dasharray:5.12,1.28,0.8,1.28;stroke-dashoffset:0;stroke-width:0.8;"/>
     </g>
     <g id="line2d_58">
      <g>
       <use style="stroke:#000000;stroke-width:0.8;" x="57.6" xlink:href="#maf05f4a900" y="64.932582"/>
      </g>
     </g>
     <g id="text_30">
      <!-- 0.030 -->
      <g transform="translate(21.971875 68.731801)scale(0.1 -0.1)">
       <use xlink:href="#DejaVuSans-48"/>
       <use x="63.623047" xlink:href="#DejaVuSans-46"/>
       <use x="95.410156" xlink:href="#DejaVuSans-48"/>
       <use x="159.033203" xlink:href="#DejaVuSans-51"/>
       <use x="222.65625" xlink:href="#DejaVuSans-48"/>
      </g>
     </g>
    </g>
    <g id="text_31">
     <!-- duration (s) -->
     <g transform="translate(15.892187 203.663156)rotate(-90)scale(0.1 -0.1)">
      <defs>
       <path d="M 8.5 21.578125 
L 8.5 54.6875 
L 17.484375 54.6875 
L 17.484375 21.921875 
Q 17.484375 14.15625 20.5 10.265625 
Q 23.53125 6.390625 29.59375 6.390625 
Q 36.859375 6.390625 41.078125 11.03125 
Q 45.3125 15.671875 45.3125 23.6875 
L 45.3125 54.6875 
L 54.296875 54.6875 
L 54.296875 0 
L 45.3125 0 
L 45.3125 8.40625 
Q 42.046875 3.421875 37.71875 1 
Q 33.40625 -1.421875 27.6875 -1.421875 
Q 18.265625 -1.421875 13.375 4.4375 
Q 8.5 10.296875 8.5 21.578125 
z
M 31.109375 56 
z
" id="DejaVuSans-117"/>
       <path d="M 9.421875 54.6875 
L 18.40625 54.6875 
L 18.40625 0 
L 9.421875 0 
z
M 9.421875 75.984375 
L 18.40625 75.984375 
L 18.40625 64.59375 
L 9.421875 64.59375 
z
" id="DejaVuSans-105"/>
       <path d="M 30.609375 48.390625 
Q 23.390625 48.390625 19.1875 42.75 
Q 14.984375 37.109375 14.984375 27.296875 
Q 14.984375 17.484375 19.15625 11.84375 
Q 23.34375 6.203125 30.609375 6.203125 
Q 37.796875 6.203125 41.984375 11.859375 
Q 46.1875 17.53125 46.1875 27.296875 
Q 46.1875 37.015625 41.984375 42.703125 
Q 37.796875 48.390625 30.609375 48.390625 
z
M 30.609375 56 
Q 42.328125 56 49.015625 48.375 
Q 55.71875 40.765625 55.71875 27.296875 
Q 55.71875 13.875 49.015625 6.21875 
Q 42.328125 -1.421875 30.609375 -1.421875 
Q 18.84375 -1.421875 12.171875 6.21875 
Q 5.515625 13.875 5.515625 27.296875 
Q 5.515625 40.765625 12.171875 48.375 
Q 18.84375 56 30.609375 56 
z
" id="DejaVuSans-111"/>
       <path d="M 54.890625 33.015625 
L 54.890625 0 
L 45.90625 0 
L 45.90625 32.71875 
Q 45.90625 40.484375 42.875 44.328125 
Q 39.84375 48.1875 33.796875 48.1875 
Q 26.515625 48.1875 22.3125 43.546875 
Q 18.109375 38.921875 18.109375 30.90625 
L 18.109375 0 
L 9.078125 0 
L 9.078125 54.6875 
L 18.109375 54.6875 
L 18.109375 46.1875 
Q 21.34375 51.125 25.703125 53.5625 
Q 30.078125 56 35.796875 56 
Q 45.21875 56 50.046875 50.171875 
Q 54.890625 44.34375 54.890625 33.015625 
z
" id="DejaVuSans-110"/>
       <path id="DejaVuSans-32"/>
       <path d="M 31 75.875 
Q 24.46875 64.65625 21.28125 53.65625 
Q 18.109375 42.671875 18.109375 31.390625 
Q 18.109375 20.125 21.3125 9.0625 
Q 24.515625 -2 31 -13.1875 
L 23.1875 -13.1875 
Q 15.875 -1.703125 12.234375 9.375 
Q 8.59375 20.453125 8.59375 31.390625 
Q 8.59375 42.28125 12.203125 53.3125 
Q 15.828125 64.359375 23.1875 75.875 
z
" id="DejaVuSans-40"/>
       <path d="M 8.015625 75.875 
L 15.828125 75.875 
Q 23.140625 64.359375 26.78125 53.3125 
Q 30.421875 42.28125 30.421875 31.390625 
Q 30.421875 20.453125 26.78125 9.375 
Q 23.140625 -1.703125 15.828125 -13.1875 
L 8.015625 -13.1875 
Q 14.5 -2 17.703125 9.0625 
Q 20.90625 20.125 20.90625 31.390625 
Q 20.90625 42.671875 17.703125 53.65625 
Q 14.5 64.65625 8.015625 75.875 
z
" id="DejaVuSans-41"/>
      </defs>
      <use xlink:href="#DejaVuSans-100"/>
      <use x="63.476562" xlink:href="#DejaVuSans-117"/>
      <use x="126.855469" xlink:href="#DejaVuSans-114"/>
      <use x="167.96875" xlink:href="#DejaVuSans-97"/>
      <use x="229.248047" xlink:href="#DejaVuSans-116"/>
      <use x="268.457031" xlink:href="#DejaVuSans-105"/>
      <use x="296.240234" xlink:href="#DejaVuSans-111"/>
      <use x="357.421875" xlink:href="#DejaVuSans-110"/>
      <use x="420.800781" xlink:href="#DejaVuSans-32"/>
      <use x="452.587891" xlink:href="#DejaVuSans-40"/>
      <use x="491.601562" xlink:href="#DejaVuSans-115"/>
      <use x="543.701172" xlink:href="#DejaVuSans-41"/>
     </g>
    </g>
   </g>
   <g id="line2d_59">
    <path clip-path="url(#p21055689ba)" d="M 61.612584 53.568 
L 65.625169 172.883694 
L 69.637753 239.987699 
L 73.650337 231.039569 
L 77.662921 247.235783 
L 81.675506 253.807035 
L 85.68809 258.475192 
L 89.700674 267.451191 
L 93.713258 267.367582 
L 97.725843 271.157846 
L 101.738427 275.32435 
L 105.751011 274.647517 
L 109.763596 278.288481 
L 113.77618 277.094069 
L 117.788764 277.637527 
L 121.801348 273.504864 
L 125.813933 278.555232 
L 129.826517 275.248704 
L 133.839101 276.275898 
L 137.851685 279.357478 
L 141.86427 280.299073 
L 145.876854 279.090727 
L 149.889438 279.875057 
L 153.902022 278.429819 
L 157.914607 279.516733 
L 161.927191 280.95998 
L 165.939775 282.238 
L 169.95236 290.111159 
L 173.964944 277.243371 
L 177.977528 282.013052 
L 181.990112 289.300951 
L 186.002697 274.615667 
L 190.015281 277.846548 
L 194.027865 286.354737 
L 198.040449 276.142522 
L 202.053034 275.200928 
L 206.065618 284.190862 
L 210.078202 278.380052 
L 214.090787 282.261888 
L 218.103371 278.881705 
L 222.115955 287.387902 
L 226.128539 276.142522 
L 230.141124 285.460919 
L 234.153708 277.70521 
L 238.166292 285.460919 
L 242.178876 274.398682 
L 246.191461 284.159011 
L 250.204045 278.238713 
L 254.216629 285.962572 
L 258.229213 278.696571 
L 262.241798 282.922796 
L 266.254382 272.977333 
L 270.266966 286.512001 
L 274.279551 274.757005 
L 278.292135 281.961295 
L 282.304719 273.544678 
L 286.317303 282.857103 
L 290.329888 270.948825 
L 294.342472 281.378024 
L 298.355056 272.535401 
L 302.36764 295.095835 
L 306.380225 295.488 
L 310.392809 288.958553 
L 314.405393 284.483493 
L 318.417978 276.267935 
L 322.430562 258.933049 
L 326.443146 264.578632 
L 330.45573 272.059627 
L 334.468315 266.690749 
L 338.480899 267.835393 
L 342.493483 268.293251 
L 346.506067 291.454872 
L 350.518652 292.340727 
L 354.531236 288.71768 
L 358.54382 291.01294 
L 362.556404 282.371376 
L 366.568989 283.406532 
L 370.581573 267.283973 
L 374.594157 267.084905 
L 378.606742 264.777701 
L 382.619326 259.092304 
L 386.63191 267.090877 
L 390.644494 261.58066 
L 394.657079 262.223652 
L 398.669663 291.470797 
L 402.682247 258.399546 
L 406.694831 240.841703 
L 410.707416 234.788029 
" style="fill:none;stroke:#0000ff;stroke-dasharray:1.5,2.475;stroke-dashoffset:0;stroke-width:1.5;"/>
    <defs>
     <path d="M 0 1.5 
C 0.397805 1.5 0.77937 1.341951 1.06066 1.06066 
C 1.341951 0.77937 1.5 0.397805 1.5 0 
C 1.5 -0.397805 1.341951 -0.77937 1.06066 -1.06066 
C 0.77937 -1.341951 0.397805 -1.5 0 -1.5 
C -0.397805 -1.5 -0.77937 -1.341951 -1.06066 -1.06066 
C -1.341951 -0.77937 -1.5 -0.397805 -1.5 0 
C -1.5 0.397805 -1.341951 0.77937 -1.06066 1.06066 
C -0.77937 1.341951 -0.397805 1.5 0 1.5 
z
" id="m8635ed91fc" style="stroke:#0000ff;"/>
    </defs>
    <g clip-path="url(#p21055689ba)">
     <use style="fill:#0000ff;stroke:#0000ff;" x="61.612584" xlink:href="#m8635ed91fc" y="53.568"/>
     <use style="fill:#0000ff;stroke:#0000ff;" x="65.625169" xlink:href="#m8635ed91fc" y="172.883694"/>
     <use style="fill:#0000ff;stroke:#0000ff;" x="69.637753" xlink:href="#m8635ed91fc" y="239.987699"/>
     <use style="fill:#0000ff;stroke:#0000ff;" x="73.650337" xlink:href="#m8635ed91fc" y="231.039569"/>
     <use style="fill:#0000ff;stroke:#0000ff;" x="77.662921" xlink:href="#m8635ed91fc" y="247.235783"/>
     <use style="fill:#0000ff;stroke:#0000ff;" x="81.675506" xlink:href="#m8635ed91fc" y="253.807035"/>
     <use style="fill:#0000ff;stroke:#0000ff;" x="85.68809" xlink:href="#m8635ed91fc" y="258.475192"/>
     <use style="fill:#0000ff;stroke:#0000ff;" x="89.700674" xlink:href="#m8635ed91fc" y="267.451191"/>
     <use style="fill:#0000ff;stroke:#0000ff;" x="93.713258" xlink:href="#m8635ed91fc" y="267.367582"/>
     <use style="fill:#0000ff;stroke:#0000ff;" x="97.725843" xlink:href="#m8635ed91fc" y="271.157846"/>
     <use style="fill:#0000ff;stroke:#0000ff;" x="101.738427" xlink:href="#m8635ed91fc" y="275.32435"/>
     <use style="fill:#0000ff;stroke:#0000ff;" x="105.751011" xlink:href="#m8635ed91fc" y="274.647517"/>
     <use style="fill:#0000ff;stroke:#0000ff;" x="109.763596" xlink:href="#m8635ed91fc" y="278.288481"/>
     <use style="fill:#0000ff;stroke:#0000ff;" x="113.77618" xlink:href="#m8635ed91fc" y="277.094069"/>
     <use style="fill:#0000ff;stroke:#0000ff;" x="117.788764" xlink:href="#m8635ed91fc" y="277.637527"/>
     <use style="fill:#0000ff;stroke:#0000ff;" x="121.801348" xlink:href="#m8635ed91fc" y="273.504864"/>
     <use style="fill:#0000ff;stroke:#0000ff;" x="125.813933" xlink:href="#m8635ed91fc" y="278.555232"/>
     <use style="fill:#0000ff;stroke:#0000ff;" x="129.826517" xlink:href="#m8635ed91fc" y="275.248704"/>
     <use style="fill:#0000ff;stroke:#0000ff;" x="133.839101" xlink:href="#m8635ed91fc" y="276.275898"/>
     <use style="fill:#0000ff;stroke:#0000ff;" x="137.851685" xlink:href="#m8635ed91fc" y="279.357478"/>
     <use style="fill:#0000ff;stroke:#0000ff;" x="141.86427" xlink:href="#m8635ed91fc" y="280.299073"/>
     <use style="fill:#0000ff;stroke:#0000ff;" x="145.876854" xlink:href="#m8635ed91fc" y="279.090727"/>
     <use style="fill:#0000ff;stroke:#0000ff;" x="149.889438" xlink:href="#m8635ed91fc" y="279.875057"/>
     <use style="fill:#0000ff;stroke:#0000ff;" x="153.902022" xlink:href="#m8635ed91fc" y="278.429819"/>
     <use style="fill:#0000ff;stroke:#0000ff;" x="157.914607" xlink:href="#m8635ed91fc" y="279.516733"/>
     <use style="fill:#0000ff;stroke:#0000ff;" x="161.927191" xlink:href="#m8635ed91fc" y="280.95998"/>
     <use style="fill:#0000ff;stroke:#0000ff;" x="165.939775" xlink:href="#m8635ed91fc" y="282.238"/>
     <use style="fill:#0000ff;stroke:#0000ff;" x="169.95236" xlink:href="#m8635ed91fc" y="290.111159"/>
     <use style="fill:#0000ff;stroke:#0000ff;" x="173.964944" xlink:href="#m8635ed91fc" y="277.243371"/>
     <use style="fill:#0000ff;stroke:#0000ff;" x="177.977528" xlink:href="#m8635ed91fc" y="282.013052"/>
     <use style="fill:#0000ff;stroke:#0000ff;" x="181.990112" xlink:href="#m8635ed91fc" y="289.300951"/>
     <use style="fill:#0000ff;stroke:#0000ff;" x="186.002697" xlink:href="#m8635ed91fc" y="274.615667"/>
     <use style="fill:#0000ff;stroke:#0000ff;" x="190.015281" xlink:href="#m8635ed91fc" y="277.846548"/>
     <use style="fill:#0000ff;stroke:#0000ff;" x="194.027865" xlink:href="#m8635ed91fc" y="286.354737"/>
     <use style="fill:#0000ff;stroke:#0000ff;" x="198.040449" xlink:href="#m8635ed91fc" y="276.142522"/>
     <use style="fill:#0000ff;stroke:#0000ff;" x="202.053034" xlink:href="#m8635ed91fc" y="275.200928"/>
     <use style="fill:#0000ff;stroke:#0000ff;" x="206.065618" xlink:href="#m8635ed91fc" y="284.190862"/>
     <use style="fill:#0000ff;stroke:#0000ff;" x="210.078202" xlink:href="#m8635ed91fc" y="278.380052"/>
     <use style="fill:#0000ff;stroke:#0000ff;" x="214.090787" xlink:href="#m8635ed91fc" y="282.261888"/>
     <use style="fill:#0000ff;stroke:#0000ff;" x="218.103371" xlink:href="#m8635ed91fc" y="278.881705"/>
     <use style="fill:#0000ff;stroke:#0000ff;" x="222.115955" xlink:href="#m8635ed91fc" y="287.387902"/>
     <use style="fill:#0000ff;stroke:#0000ff;" x="226.128539" xlink:href="#m8635ed91fc" y="276.142522"/>
     <use style="fill:#0000ff;stroke:#0000ff;" x="230.141124" xlink:href="#m8635ed91fc" y="285.460919"/>
     <use style="fill:#0000ff;stroke:#0000ff;" x="234.153708" xlink:href="#m8635ed91fc" y="277.70521"/>
     <use style="fill:#0000ff;stroke:#0000ff;" x="238.166292" xlink:href="#m8635ed91fc" y="285.460919"/>
     <use style="fill:#0000ff;stroke:#0000ff;" x="242.178876" xlink:href="#m8635ed91fc" y="274.398682"/>
     <use style="fill:#0000ff;stroke:#0000ff;" x="246.191461" xlink:href="#m8635ed91fc" y="284.159011"/>
     <use style="fill:#0000ff;stroke:#0000ff;" x="250.204045" xlink:href="#m8635ed91fc" y="278.238713"/>
     <use style="fill:#0000ff;stroke:#0000ff;" x="254.216629" xlink:href="#m8635ed91fc" y="285.962572"/>
     <use style="fill:#0000ff;stroke:#0000ff;" x="258.229213" xlink:href="#m8635ed91fc" y="278.696571"/>
     <use style="fill:#0000ff;stroke:#0000ff;" x="262.241798" xlink:href="#m8635ed91fc" y="282.922796"/>
     <use style="fill:#0000ff;stroke:#0000ff;" x="266.254382" xlink:href="#m8635ed91fc" y="272.977333"/>
     <use style="fill:#0000ff;stroke:#0000ff;" x="270.266966" xlink:href="#m8635ed91fc" y="286.512001"/>
     <use style="fill:#0000ff;stroke:#0000ff;" x="274.279551" xlink:href="#m8635ed91fc" y="274.757005"/>
     <use style="fill:#0000ff;stroke:#0000ff;" x="278.292135" xlink:href="#m8635ed91fc" y="281.961295"/>
     <use style="fill:#0000ff;stroke:#0000ff;" x="282.304719" xlink:href="#m8635ed91fc" y="273.544678"/>
     <use style="fill:#0000ff;stroke:#0000ff;" x="286.317303" xlink:href="#m8635ed91fc" y="282.857103"/>
     <use style="fill:#0000ff;stroke:#0000ff;" x="290.329888" xlink:href="#m8635ed91fc" y="270.948825"/>
     <use style="fill:#0000ff;stroke:#0000ff;" x="294.342472" xlink:href="#m8635ed91fc" y="281.378024"/>
     <use style="fill:#0000ff;stroke:#0000ff;" x="298.355056" xlink:href="#m8635ed91fc" y="272.535401"/>
     <use style="fill:#0000ff;stroke:#0000ff;" x="302.36764" xlink:href="#m8635ed91fc" y="295.095835"/>
     <use style="fill:#0000ff;stroke:#0000ff;" x="306.380225" xlink:href="#m8635ed91fc" y="295.488"/>
     <use style="fill:#0000ff;stroke:#0000ff;" x="310.392809" xlink:href="#m8635ed91fc" y="288.958553"/>
     <use style="fill:#0000ff;stroke:#0000ff;" x="314.405393" xlink:href="#m8635ed91fc" y="284.483493"/>
     <use style="fill:#0000ff;stroke:#0000ff;" x="318.417978" xlink:href="#m8635ed91fc" y="276.267935"/>
     <use style="fill:#0000ff;stroke:#0000ff;" x="322.430562" xlink:href="#m8635ed91fc" y="258.933049"/>
     <use style="fill:#0000ff;stroke:#0000ff;" x="326.443146" xlink:href="#m8635ed91fc" y="264.578632"/>
     <use style="fill:#0000ff;stroke:#0000ff;" x="330.45573" xlink:href="#m8635ed91fc" y="272.059627"/>
     <use style="fill:#0000ff;stroke:#0000ff;" x="334.468315" xlink:href="#m8635ed91fc" y="266.690749"/>
     <use style="fill:#0000ff;stroke:#0000ff;" x="338.480899" xlink:href="#m8635ed91fc" y="267.835393"/>
     <use style="fill:#0000ff;stroke:#0000ff;" x="342.493483" xlink:href="#m8635ed91fc" y="268.293251"/>
     <use style="fill:#0000ff;stroke:#0000ff;" x="346.506067" xlink:href="#m8635ed91fc" y="291.454872"/>
     <use style="fill:#0000ff;stroke:#0000ff;" x="350.518652" xlink:href="#m8635ed91fc" y="292.340727"/>
     <use style="fill:#0000ff;stroke:#0000ff;" x="354.531236" xlink:href="#m8635ed91fc" y="288.71768"/>
     <use style="fill:#0000ff;stroke:#0000ff;" x="358.54382" xlink:href="#m8635ed91fc" y="291.01294"/>
     <use style="fill:#0000ff;stroke:#0000ff;" x="362.556404" xlink:href="#m8635ed91fc" y="282.371376"/>
     <use style="fill:#0000ff;stroke:#0000ff;" x="366.568989" xlink:href="#m8635ed91fc" y="283.406532"/>
     <use style="fill:#0000ff;stroke:#0000ff;" x="370.581573" xlink:href="#m8635ed91fc" y="267.283973"/>
     <use style="fill:#0000ff;stroke:#0000ff;" x="374.594157" xlink:href="#m8635ed91fc" y="267.084905"/>
     <use style="fill:#0000ff;stroke:#0000ff;" x="378.606742" xlink:href="#m8635ed91fc" y="264.777701"/>
     <use style="fill:#0000ff;stroke:#0000ff;" x="382.619326" xlink:href="#m8635ed91fc" y="259.092304"/>
     <use style="fill:#0000ff;stroke:#0000ff;" x="386.63191" xlink:href="#m8635ed91fc" y="267.090877"/>
     <use style="fill:#0000ff;stroke:#0000ff;" x="390.644494" xlink:href="#m8635ed91fc" y="261.58066"/>
     <use style="fill:#0000ff;stroke:#0000ff;" x="394.657079" xlink:href="#m8635ed91fc" y="262.223652"/>
     <use style="fill:#0000ff;stroke:#0000ff;" x="398.669663" xlink:href="#m8635ed91fc" y="291.470797"/>
     <use style="fill:#0000ff;stroke:#0000ff;" x="402.682247" xlink:href="#m8635ed91fc" y="258.399546"/>
     <use style="fill:#0000ff;stroke:#0000ff;" x="406.694831" xlink:href="#m8635ed91fc" y="240.841703"/>
     <use style="fill:#0000ff;stroke:#0000ff;" x="410.707416" xlink:href="#m8635ed91fc" y="234.788029"/>
    </g>
   </g>
   <g id="line2d_60">
    <path clip-path="url(#p21055689ba)" d="M 61.612584 78.543136 
L 65.625169 192.322734 
L 69.637753 228.316312 
L 73.650337 253.231727 
L 77.662921 264.620437 
L 81.675506 268.619723 
L 85.68809 274.516132 
L 89.700674 276.116643 
L 93.713258 278.153114 
L 97.725843 283.641433 
L 101.738427 285.042875 
L 105.751011 285.576379 
L 109.763596 285.369348 
L 113.77618 284.901537 
L 117.788764 285.178242 
L 121.801348 267.475079 
L 125.813933 284.658673 
L 129.826517 283.892259 
L 133.839101 287.481464 
L 137.851685 286.754864 
L 141.86427 286.812594 
L 145.876854 287.071383 
L 149.889438 290.863638 
L 153.902022 282.839187 
L 157.914607 281.778152 
L 161.927191 290.009635 
L 165.939775 276.960694 
L 169.95236 281.145114 
L 173.964944 284.324238 
L 177.977528 276.267935 
L 181.990112 280.066162 
L 186.002697 280.277175 
L 190.015281 276.676026 
L 194.027865 281.485521 
L 198.040449 279.04096 
L 202.053034 276.116643 
L 206.065618 282.855112 
L 210.078202 274.30512 
L 214.090787 280.133846 
L 218.103371 270.672119 
L 222.115955 282.078745 
L 226.128539 272.033748 
L 230.141124 281.236685 
L 234.153708 273.220196 
L 238.166292 277.914232 
L 242.178876 273.847262 
L 246.191461 280.410551 
L 250.204045 275.43981 
L 254.216629 281.519363 
L 258.229213 275.891696 
L 262.241798 279.68196 
L 266.254382 271.892409 
L 270.266966 279.775522 
L 274.279551 264.729924 
L 278.292135 280.725079 
L 282.304719 270.666147 
L 286.317303 275.708553 
L 290.329888 271.374831 
L 294.342472 272.867845 
L 298.355056 273.246075 
L 302.36764 290.569017 
L 306.380225 287.706412 
L 310.392809 271.960093 
L 314.405393 277.697247 
L 318.417978 266.98338 
L 322.430562 279.958665 
L 326.443146 272.810115 
L 330.45573 276.809402 
L 334.468315 283.874343 
L 338.480899 269.087534 
L 342.493483 266.155255 
L 346.506067 284.083365 
L 350.518652 284.174936 
L 354.531236 290.017597 
L 358.54382 286.504038 
L 362.556404 260.654992 
L 366.568989 290.119122 
L 370.581573 283.900222 
L 374.594157 275.742394 
L 378.606742 281.796068 
L 382.619326 276.644175 
L 386.63191 276.819355 
L 390.644494 276.670054 
L 394.657079 266.330435 
L 398.669663 284.935378 
L 402.682247 284.107253 
L 406.694831 290.487399 
L 410.707416 284.483493 
" style="fill:none;stroke:#ff0000;stroke-dasharray:1.5,2.475;stroke-dashoffset:0;stroke-width:1.5;"/>
    <defs>
     <path d="M 0 1.5 
C 0.397805 1.5 0.77937 1.341951 1.06066 1.06066 
C 1.341951 0.77937 1.5 0.397805 1.5 0 
C 1.5 -0.397805 1.341951 -0.77937 1.06066 -1.06066 
C 0.77937 -1.341951 0.397805 -1.5 0 -1.5 
C -0.397805 -1.5 -0.77937 -1.341951 -1.06066 -1.06066 
C -1.341951 -0.77937 -1.5 -0.397805 -1.5 0 
C -1.5 0.397805 -1.341951 0.77937 -1.06066 1.06066 
C -0.77937 1.341951 -0.397805 1.5 0 1.5 
z
" id="m497599464d" style="stroke:#ff0000;"/>
    </defs>
    <g clip-path="url(#p21055689ba)">
     <use style="fill:#ff0000;stroke:#ff0000;" x="61.612584" xlink:href="#m497599464d" y="78.543136"/>
     <use style="fill:#ff0000;stroke:#ff0000;" x="65.625169" xlink:href="#m497599464d" y="192.322734"/>
     <use style="fill:#ff0000;stroke:#ff0000;" x="69.637753" xlink:href="#m497599464d" y="228.316312"/>
     <use style="fill:#ff0000;stroke:#ff0000;" x="73.650337" xlink:href="#m497599464d" y="253.231727"/>
     <use style="fill:#ff0000;stroke:#ff0000;" x="77.662921" xlink:href="#m497599464d" y="264.620437"/>
     <use style="fill:#ff0000;stroke:#ff0000;" x="81.675506" xlink:href="#m497599464d" y="268.619723"/>
     <use style="fill:#ff0000;stroke:#ff0000;" x="85.68809" xlink:href="#m497599464d" y="274.516132"/>
     <use style="fill:#ff0000;stroke:#ff0000;" x="89.700674" xlink:href="#m497599464d" y="276.116643"/>
     <use style="fill:#ff0000;stroke:#ff0000;" x="93.713258" xlink:href="#m497599464d" y="278.153114"/>
     <use style="fill:#ff0000;stroke:#ff0000;" x="97.725843" xlink:href="#m497599464d" y="283.641433"/>
     <use style="fill:#ff0000;stroke:#ff0000;" x="101.738427" xlink:href="#m497599464d" y="285.042875"/>
     <use style="fill:#ff0000;stroke:#ff0000;" x="105.751011" xlink:href="#m497599464d" y="285.576379"/>
     <use style="fill:#ff0000;stroke:#ff0000;" x="109.763596" xlink:href="#m497599464d" y="285.369348"/>
     <use style="fill:#ff0000;stroke:#ff0000;" x="113.77618" xlink:href="#m497599464d" y="284.901537"/>
     <use style="fill:#ff0000;stroke:#ff0000;" x="117.788764" xlink:href="#m497599464d" y="285.178242"/>
     <use style="fill:#ff0000;stroke:#ff0000;" x="121.801348" xlink:href="#m497599464d" y="267.475079"/>
     <use style="fill:#ff0000;stroke:#ff0000;" x="125.813933" xlink:href="#m497599464d" y="284.658673"/>
     <use style="fill:#ff0000;stroke:#ff0000;" x="129.826517" xlink:href="#m497599464d" y="283.892259"/>
     <use style="fill:#ff0000;stroke:#ff0000;" x="133.839101" xlink:href="#m497599464d" y="287.481464"/>
     <use style="fill:#ff0000;stroke:#ff0000;" x="137.851685" xlink:href="#m497599464d" y="286.754864"/>
     <use style="fill:#ff0000;stroke:#ff0000;" x="141.86427" xlink:href="#m497599464d" y="286.812594"/>
     <use style="fill:#ff0000;stroke:#ff0000;" x="145.876854" xlink:href="#m497599464d" y="287.071383"/>
     <use style="fill:#ff0000;stroke:#ff0000;" x="149.889438" xlink:href="#m497599464d" y="290.863638"/>
     <use style="fill:#ff0000;stroke:#ff0000;" x="153.902022" xlink:href="#m497599464d" y="282.839187"/>
     <use style="fill:#ff0000;stroke:#ff0000;" x="157.914607" xlink:href="#m497599464d" y="281.778152"/>
     <use style="fill:#ff0000;stroke:#ff0000;" x="161.927191" xlink:href="#m497599464d" y="290.009635"/>
     <use style="fill:#ff0000;stroke:#ff0000;" x="165.939775" xlink:href="#m497599464d" y="276.960694"/>
     <use style="fill:#ff0000;stroke:#ff0000;" x="169.95236" xlink:href="#m497599464d" y="281.145114"/>
     <use style="fill:#ff0000;stroke:#ff0000;" x="173.964944" xlink:href="#m497599464d" y="284.324238"/>
     <use style="fill:#ff0000;stroke:#ff0000;" x="177.977528" xlink:href="#m497599464d" y="276.267935"/>
     <use style="fill:#ff0000;stroke:#ff0000;" x="181.990112" xlink:href="#m497599464d" y="280.066162"/>
     <use style="fill:#ff0000;stroke:#ff0000;" x="186.002697" xlink:href="#m497599464d" y="280.277175"/>
     <use style="fill:#ff0000;stroke:#ff0000;" x="190.015281" xlink:href="#m497599464d" y="276.676026"/>
     <use style="fill:#ff0000;stroke:#ff0000;" x="194.027865" xlink:href="#m497599464d" y="281.485521"/>
     <use style="fill:#ff0000;stroke:#ff0000;" x="198.040449" xlink:href="#m497599464d" y="279.04096"/>
     <use style="fill:#ff0000;stroke:#ff0000;" x="202.053034" xlink:href="#m497599464d" y="276.116643"/>
     <use style="fill:#ff0000;stroke:#ff0000;" x="206.065618" xlink:href="#m497599464d" y="282.855112"/>
     <use style="fill:#ff0000;stroke:#ff0000;" x="210.078202" xlink:href="#m497599464d" y="274.30512"/>
     <use style="fill:#ff0000;stroke:#ff0000;" x="214.090787" xlink:href="#m497599464d" y="280.133846"/>
     <use style="fill:#ff0000;stroke:#ff0000;" x="218.103371" xlink:href="#m497599464d" y="270.672119"/>
     <use style="fill:#ff0000;stroke:#ff0000;" x="222.115955" xlink:href="#m497599464d" y="282.078745"/>
     <use style="fill:#ff0000;stroke:#ff0000;" x="226.128539" xlink:href="#m497599464d" y="272.033748"/>
     <use style="fill:#ff0000;stroke:#ff0000;" x="230.141124" xlink:href="#m497599464d" y="281.236685"/>
     <use style="fill:#ff0000;stroke:#ff0000;" x="234.153708" xlink:href="#m497599464d" y="273.220196"/>
     <use style="fill:#ff0000;stroke:#ff0000;" x="238.166292" xlink:href="#m497599464d" y="277.914232"/>
     <use style="fill:#ff0000;stroke:#ff0000;" x="242.178876" xlink:href="#m497599464d" y="273.847262"/>
     <use style="fill:#ff0000;stroke:#ff0000;" x="246.191461" xlink:href="#m497599464d" y="280.410551"/>
     <use style="fill:#ff0000;stroke:#ff0000;" x="250.204045" xlink:href="#m497599464d" y="275.43981"/>
     <use style="fill:#ff0000;stroke:#ff0000;" x="254.216629" xlink:href="#m497599464d" y="281.519363"/>
     <use style="fill:#ff0000;stroke:#ff0000;" x="258.229213" xlink:href="#m497599464d" y="275.891696"/>
     <use style="fill:#ff0000;stroke:#ff0000;" x="262.241798" xlink:href="#m497599464d" y="279.68196"/>
     <use style="fill:#ff0000;stroke:#ff0000;" x="266.254382" xlink:href="#m497599464d" y="271.892409"/>
     <use style="fill:#ff0000;stroke:#ff0000;" x="270.266966" xlink:href="#m497599464d" y="279.775522"/>
     <use style="fill:#ff0000;stroke:#ff0000;" x="274.279551" xlink:href="#m497599464d" y="264.729924"/>
     <use style="fill:#ff0000;stroke:#ff0000;" x="278.292135" xlink:href="#m497599464d" y="280.725079"/>
     <use style="fill:#ff0000;stroke:#ff0000;" x="282.304719" xlink:href="#m497599464d" y="270.666147"/>
     <use style="fill:#ff0000;stroke:#ff0000;" x="286.317303" xlink:href="#m497599464d" y="275.708553"/>
     <use style="fill:#ff0000;stroke:#ff0000;" x="290.329888" xlink:href="#m497599464d" y="271.374831"/>
     <use style="fill:#ff0000;stroke:#ff0000;" x="294.342472" xlink:href="#m497599464d" y="272.867845"/>
     <use style="fill:#ff0000;stroke:#ff0000;" x="298.355056" xlink:href="#m497599464d" y="273.246075"/>
     <use style="fill:#ff0000;stroke:#ff0000;" x="302.36764" xlink:href="#m497599464d" y="290.569017"/>
     <use style="fill:#ff0000;stroke:#ff0000;" x="306.380225" xlink:href="#m497599464d" y="287.706412"/>
     <use style="fill:#ff0000;stroke:#ff0000;" x="310.392809" xlink:href="#m497599464d" y="271.960093"/>
     <use style="fill:#ff0000;stroke:#ff0000;" x="314.405393" xlink:href="#m497599464d" y="277.697247"/>
     <use style="fill:#ff0000;stroke:#ff0000;" x="318.417978" xlink:href="#m497599464d" y="266.98338"/>
     <use style="fill:#ff0000;stroke:#ff0000;" x="322.430562" xlink:href="#m497599464d" y="279.958665"/>
     <use style="fill:#ff0000;stroke:#ff0000;" x="326.443146" xlink:href="#m497599464d" y="272.810115"/>
     <use style="fill:#ff0000;stroke:#ff0000;" x="330.45573" xlink:href="#m497599464d" y="276.809402"/>
     <use style="fill:#ff0000;stroke:#ff0000;" x="334.468315" xlink:href="#m497599464d" y="283.874343"/>
     <use style="fill:#ff0000;stroke:#ff0000;" x="338.480899" xlink:href="#m497599464d" y="269.087534"/>
     <use style="fill:#ff0000;stroke:#ff0000;" x="342.493483" xlink:href="#m497599464d" y="266.155255"/>
     <use style="fill:#ff0000;stroke:#ff0000;" x="346.506067" xlink:href="#m497599464d" y="284.083365"/>
     <use style="fill:#ff0000;stroke:#ff0000;" x="350.518652" xlink:href="#m497599464d" y="284.174936"/>
     <use style="fill:#ff0000;stroke:#ff0000;" x="354.531236" xlink:href="#m497599464d" y="290.017597"/>
     <use style="fill:#ff0000;stroke:#ff0000;" x="358.54382" xlink:href="#m497599464d" y="286.504038"/>
     <use style="fill:#ff0000;stroke:#ff0000;" x="362.556404" xlink:href="#m497599464d" y="260.654992"/>
     <use style="fill:#ff0000;stroke:#ff0000;" x="366.568989" xlink:href="#m497599464d" y="290.119122"/>
     <use style="fill:#ff0000;stroke:#ff0000;" x="370.581573" xlink:href="#m497599464d" y="283.900222"/>
     <use style="fill:#ff0000;stroke:#ff0000;" x="374.594157" xlink:href="#m497599464d" y="275.742394"/>
     <use style="fill:#ff0000;stroke:#ff0000;" x="378.606742" xlink:href="#m497599464d" y="281.796068"/>
     <use style="fill:#ff0000;stroke:#ff0000;" x="382.619326" xlink:href="#m497599464d" y="276.644175"/>
     <use style="fill:#ff0000;stroke:#ff0000;" x="386.63191" xlink:href="#m497599464d" y="276.819355"/>
     <use style="fill:#ff0000;stroke:#ff0000;" x="390.644494" xlink:href="#m497599464d" y="276.670054"/>
     <use style="fill:#ff0000;stroke:#ff0000;" x="394.657079" xlink:href="#m497599464d" y="266.330435"/>
     <use style="fill:#ff0000;stroke:#ff0000;" x="398.669663" xlink:href="#m497599464d" y="284.935378"/>
     <use style="fill:#ff0000;stroke:#ff0000;" x="402.682247" xlink:href="#m497599464d" y="284.107253"/>
     <use style="fill:#ff0000;stroke:#ff0000;" x="406.694831" xlink:href="#m497599464d" y="290.487399"/>
     <use style="fill:#ff0000;stroke:#ff0000;" x="410.707416" xlink:href="#m497599464d" y="284.483493"/>
    </g>
   </g>
   <g id="line2d_61">
    <path clip-path="url(#p21055689ba)" d="M 61.612584 66.055568 
L 65.625169 182.603214 
L 69.637753 234.152005 
L 73.650337 242.135648 
L 77.662921 255.92811 
L 81.675506 261.213379 
L 85.68809 266.495662 
L 89.700674 271.783917 
L 93.713258 272.760348 
L 97.725843 277.39964 
L 101.738427 280.183613 
L 105.751011 280.111948 
L 109.763596 281.828914 
L 113.77618 280.997803 
L 117.788764 281.407884 
L 121.801348 270.489972 
L 125.813933 281.606953 
L 129.826517 279.570482 
L 133.839101 281.878681 
L 137.851685 283.056171 
L 141.86427 283.555833 
L 145.876854 283.081055 
L 149.889438 285.369348 
L 153.902022 280.634503 
L 157.914607 280.647442 
L 161.927191 285.484807 
L 165.939775 279.599347 
L 169.95236 285.628137 
L 173.964944 280.783804 
L 177.977528 279.140494 
L 181.990112 284.683557 
L 186.002697 277.446421 
L 190.015281 277.261287 
L 194.027865 283.920129 
L 198.040449 277.591741 
L 202.053034 275.658786 
L 206.065618 283.522987 
L 210.078202 276.342586 
L 214.090787 281.197867 
L 218.103371 274.776912 
L 222.115955 284.733324 
L 226.128539 274.088135 
L 230.141124 283.348802 
L 234.153708 275.462703 
L 238.166292 281.687575 
L 242.178876 274.122972 
L 246.191461 282.284781 
L 250.204045 276.839262 
L 254.216629 283.740967 
L 258.229213 277.294133 
L 262.241798 281.302378 
L 266.254382 272.434871 
L 270.266966 283.143762 
L 274.279551 269.743465 
L 278.292135 281.343187 
L 282.304719 272.105413 
L 286.317303 279.282828 
L 290.329888 271.161828 
L 294.342472 277.122934 
L 298.355056 272.890738 
L 302.36764 292.832426 
L 306.380225 291.597206 
L 310.392809 280.459323 
L 314.405393 281.09037 
L 318.417978 271.625657 
L 322.430562 269.445857 
L 326.443146 268.694374 
L 330.45573 274.434514 
L 334.468315 275.282546 
L 338.480899 268.461463 
L 342.493483 267.224253 
L 346.506067 287.769118 
L 350.518652 288.257832 
L 354.531236 289.367639 
L 358.54382 288.758489 
L 362.556404 271.513184 
L 366.568989 286.762827 
L 370.581573 275.592098 
L 374.594157 271.413649 
L 378.606742 273.286884 
L 382.619326 267.868239 
L 386.63191 271.955116 
L 390.644494 269.125357 
L 394.657079 264.277043 
L 398.669663 288.203088 
L 402.682247 271.253399 
L 406.694831 265.664551 
L 410.707416 259.635761 
" style="fill:none;stroke:#008000;stroke-dasharray:1.5,2.475;stroke-dashoffset:0;stroke-width:1.5;"/>
    <defs>
     <path d="M 0 1.5 
C 0.397805 1.5 0.77937 1.341951 1.06066 1.06066 
C 1.341951 0.77937 1.5 0.397805 1.5 0 
C 1.5 -0.397805 1.341951 -0.77937 1.06066 -1.06066 
C 0.77937 -1.341951 0.397805 -1.5 0 -1.5 
C -0.397805 -1.5 -0.77937 -1.341951 -1.06066 -1.06066 
C -1.341951 -0.77937 -1.5 -0.397805 -1.5 0 
C -1.5 0.397805 -1.341951 0.77937 -1.06066 1.06066 
C -0.77937 1.341951 -0.397805 1.5 0 1.5 
z
" id="m77325dd211" style="stroke:#008000;"/>
    </defs>
    <g clip-path="url(#p21055689ba)">
     <use style="fill:#008000;stroke:#008000;" x="61.612584" xlink:href="#m77325dd211" y="66.055568"/>
     <use style="fill:#008000;stroke:#008000;" x="65.625169" xlink:href="#m77325dd211" y="182.603214"/>
     <use style="fill:#008000;stroke:#008000;" x="69.637753" xlink:href="#m77325dd211" y="234.152005"/>
     <use style="fill:#008000;stroke:#008000;" x="73.650337" xlink:href="#m77325dd211" y="242.135648"/>
     <use style="fill:#008000;stroke:#008000;" x="77.662921" xlink:href="#m77325dd211" y="255.92811"/>
     <use style="fill:#008000;stroke:#008000;" x="81.675506" xlink:href="#m77325dd211" y="261.213379"/>
     <use style="fill:#008000;stroke:#008000;" x="85.68809" xlink:href="#m77325dd211" y="266.495662"/>
     <use style="fill:#008000;stroke:#008000;" x="89.700674" xlink:href="#m77325dd211" y="271.783917"/>
     <use style="fill:#008000;stroke:#008000;" x="93.713258" xlink:href="#m77325dd211" y="272.760348"/>
     <use style="fill:#008000;stroke:#008000;" x="97.725843" xlink:href="#m77325dd211" y="277.39964"/>
     <use style="fill:#008000;stroke:#008000;" x="101.738427" xlink:href="#m77325dd211" y="280.183613"/>
     <use style="fill:#008000;stroke:#008000;" x="105.751011" xlink:href="#m77325dd211" y="280.111948"/>
     <use style="fill:#008000;stroke:#008000;" x="109.763596" xlink:href="#m77325dd211" y="281.828914"/>
     <use style="fill:#008000;stroke:#008000;" x="113.77618" xlink:href="#m77325dd211" y="280.997803"/>
     <use style="fill:#008000;stroke:#008000;" x="117.788764" xlink:href="#m77325dd211" y="281.407884"/>
     <use style="fill:#008000;stroke:#008000;" x="121.801348" xlink:href="#m77325dd211" y="270.489972"/>
     <use style="fill:#008000;stroke:#008000;" x="125.813933" xlink:href="#m77325dd211" y="281.606953"/>
     <use style="fill:#008000;stroke:#008000;" x="129.826517" xlink:href="#m77325dd211" y="279.570482"/>
     <use style="fill:#008000;stroke:#008000;" x="133.839101" xlink:href="#m77325dd211" y="281.878681"/>
     <use style="fill:#008000;stroke:#008000;" x="137.851685" xlink:href="#m77325dd211" y="283.056171"/>
     <use style="fill:#008000;stroke:#008000;" x="141.86427" xlink:href="#m77325dd211" y="283.555833"/>
     <use style="fill:#008000;stroke:#008000;" x="145.876854" xlink:href="#m77325dd211" y="283.081055"/>
     <use style="fill:#008000;stroke:#008000;" x="149.889438" xlink:href="#m77325dd211" y="285.369348"/>
     <use style="fill:#008000;stroke:#008000;" x="153.902022" xlink:href="#m77325dd211" y="280.634503"/>
     <use style="fill:#008000;stroke:#008000;" x="157.914607" xlink:href="#m77325dd211" y="280.647442"/>
     <use style="fill:#008000;stroke:#008000;" x="161.927191" xlink:href="#m77325dd211" y="285.484807"/>
     <use style="fill:#008000;stroke:#008000;" x="165.939775" xlink:href="#m77325dd211" y="279.599347"/>
     <use style="fill:#008000;stroke:#008000;" x="169.95236" xlink:href="#m77325dd211" y="285.628137"/>
     <use style="fill:#008000;stroke:#008000;" x="173.964944" xlink:href="#m77325dd211" y="280.783804"/>
     <use style="fill:#008000;stroke:#008000;" x="177.977528" xlink:href="#m77325dd211" y="279.140494"/>
     <use style="fill:#008000;stroke:#008000;" x="181.990112" xlink:href="#m77325dd211" y="284.683557"/>
     <use style="fill:#008000;stroke:#008000;" x="186.002697" xlink:href="#m77325dd211" y="277.446421"/>
     <use style="fill:#008000;stroke:#008000;" x="190.015281" xlink:href="#m77325dd211" y="277.261287"/>
     <use style="fill:#008000;stroke:#008000;" x="194.027865" xlink:href="#m77325dd211" y="283.920129"/>
     <use style="fill:#008000;stroke:#008000;" x="198.040449" xlink:href="#m77325dd211" y="277.591741"/>
     <use style="fill:#008000;stroke:#008000;" x="202.053034" xlink:href="#m77325dd211" y="275.658786"/>
     <use style="fill:#008000;stroke:#008000;" x="206.065618" xlink:href="#m77325dd211" y="283.522987"/>
     <use style="fill:#008000;stroke:#008000;" x="210.078202" xlink:href="#m77325dd211" y="276.342586"/>
     <use style="fill:#008000;stroke:#008000;" x="214.090787" xlink:href="#m77325dd211" y="281.197867"/>
     <use style="fill:#008000;stroke:#008000;" x="218.103371" xlink:href="#m77325dd211" y="274.776912"/>
     <use style="fill:#008000;stroke:#008000;" x="222.115955" xlink:href="#m77325dd211" y="284.733324"/>
     <use style="fill:#008000;stroke:#008000;" x="226.128539" xlink:href="#m77325dd211" y="274.088135"/>
     <use style="fill:#008000;stroke:#008000;" x="230.141124" xlink:href="#m77325dd211" y="283.348802"/>
     <use style="fill:#008000;stroke:#008000;" x="234.153708" xlink:href="#m77325dd211" y="275.462703"/>
     <use style="fill:#008000;stroke:#008000;" x="238.166292" xlink:href="#m77325dd211" y="281.687575"/>
     <use style="fill:#008000;stroke:#008000;" x="242.178876" xlink:href="#m77325dd211" y="274.122972"/>
     <use style="fill:#008000;stroke:#008000;" x="246.191461" xlink:href="#m77325dd211" y="282.284781"/>
     <use style="fill:#008000;stroke:#008000;" x="250.204045" xlink:href="#m77325dd211" y="276.839262"/>
     <use style="fill:#008000;stroke:#008000;" x="254.216629" xlink:href="#m77325dd211" y="283.740967"/>
     <use style="fill:#008000;stroke:#008000;" x="258.229213" xlink:href="#m77325dd211" y="277.294133"/>
     <use style="fill:#008000;stroke:#008000;" x="262.241798" xlink:href="#m77325dd211" y="281.302378"/>
     <use style="fill:#008000;stroke:#008000;" x="266.254382" xlink:href="#m77325dd211" y="272.434871"/>
     <use style="fill:#008000;stroke:#008000;" x="270.266966" xlink:href="#m77325dd211" y="283.143762"/>
     <use style="fill:#008000;stroke:#008000;" x="274.279551" xlink:href="#m77325dd211" y="269.743465"/>
     <use style="fill:#008000;stroke:#008000;" x="278.292135" xlink:href="#m77325dd211" y="281.343187"/>
     <use style="fill:#008000;stroke:#008000;" x="282.304719" xlink:href="#m77325dd211" y="272.105413"/>
     <use style="fill:#008000;stroke:#008000;" x="286.317303" xlink:href="#m77325dd211" y="279.282828"/>
     <use style="fill:#008000;stroke:#008000;" x="290.329888" xlink:href="#m77325dd211" y="271.161828"/>
     <use style="fill:#008000;stroke:#008000;" x="294.342472" xlink:href="#m77325dd211" y="277.122934"/>
     <use style="fill:#008000;stroke:#008000;" x="298.355056" xlink:href="#m77325dd211" y="272.890738"/>
     <use style="fill:#008000;stroke:#008000;" x="302.36764" xlink:href="#m77325dd211" y="292.832426"/>
     <use style="fill:#008000;stroke:#008000;" x="306.380225" xlink:href="#m77325dd211" y="291.597206"/>
     <use style="fill:#008000;stroke:#008000;" x="310.392809" xlink:href="#m77325dd211" y="280.459323"/>
     <use style="fill:#008000;stroke:#008000;" x="314.405393" xlink:href="#m77325dd211" y="281.09037"/>
     <use style="fill:#008000;stroke:#008000;" x="318.417978" xlink:href="#m77325dd211" y="271.625657"/>
     <use style="fill:#008000;stroke:#008000;" x="322.430562" xlink:href="#m77325dd211" y="269.445857"/>
     <use style="fill:#008000;stroke:#008000;" x="326.443146" xlink:href="#m77325dd211" y="268.694374"/>
     <use style="fill:#008000;stroke:#008000;" x="330.45573" xlink:href="#m77325dd211" y="274.434514"/>
     <use style="fill:#008000;stroke:#008000;" x="334.468315" xlink:href="#m77325dd211" y="275.282546"/>
     <use style="fill:#008000;stroke:#008000;" x="338.480899" xlink:href="#m77325dd211" y="268.461463"/>
     <use style="fill:#008000;stroke:#008000;" x="342.493483" xlink:href="#m77325dd211" y="267.224253"/>
     <use style="fill:#008000;stroke:#008000;" x="346.506067" xlink:href="#m77325dd211" y="287.769118"/>
     <use style="fill:#008000;stroke:#008000;" x="350.518652" xlink:href="#m77325dd211" y="288.257832"/>
     <use style="fill:#008000;stroke:#008000;" x="354.531236" xlink:href="#m77325dd211" y="289.367639"/>
     <use style="fill:#008000;stroke:#008000;" x="358.54382" xlink:href="#m77325dd211" y="288.758489"/>
     <use style="fill:#008000;stroke:#008000;" x="362.556404" xlink:href="#m77325dd211" y="271.513184"/>
     <use style="fill:#008000;stroke:#008000;" x="366.568989" xlink:href="#m77325dd211" y="286.762827"/>
     <use style="fill:#008000;stroke:#008000;" x="370.581573" xlink:href="#m77325dd211" y="275.592098"/>
     <use style="fill:#008000;stroke:#008000;" x="374.594157" xlink:href="#m77325dd211" y="271.413649"/>
     <use style="fill:#008000;stroke:#008000;" x="378.606742" xlink:href="#m77325dd211" y="273.286884"/>
     <use style="fill:#008000;stroke:#008000;" x="382.619326" xlink:href="#m77325dd211" y="267.868239"/>
     <use style="fill:#008000;stroke:#008000;" x="386.63191" xlink:href="#m77325dd211" y="271.955116"/>
     <use style="fill:#008000;stroke:#008000;" x="390.644494" xlink:href="#m77325dd211" y="269.125357"/>
     <use style="fill:#008000;stroke:#008000;" x="394.657079" xlink:href="#m77325dd211" y="264.277043"/>
     <use style="fill:#008000;stroke:#008000;" x="398.669663" xlink:href="#m77325dd211" y="288.203088"/>
     <use style="fill:#008000;stroke:#008000;" x="402.682247" xlink:href="#m77325dd211" y="271.253399"/>
     <use style="fill:#008000;stroke:#008000;" x="406.694831" xlink:href="#m77325dd211" y="265.664551"/>
     <use style="fill:#008000;stroke:#008000;" x="410.707416" xlink:href="#m77325dd211" y="259.635761"/>
    </g>
   </g>
   <g id="patch_3">
    <path d="M 57.6 307.584 
L 57.6 41.472 
" style="fill:none;stroke:#000000;stroke-linecap:square;stroke-linejoin:miter;stroke-width:0.8;"/>
   </g>
   <g id="patch_4">
    <path d="M 414.72 307.584 
L 414.72 41.472 
" style="fill:none;stroke:#000000;stroke-linecap:square;stroke-linejoin:miter;stroke-width:0.8;"/>
   </g>
   <g id="patch_5">
    <path d="M 57.6 307.584 
L 414.72 307.584 
" style="fill:none;stroke:#000000;stroke-linecap:square;stroke-linejoin:miter;stroke-width:0.8;"/>
   </g>
   <g id="patch_6">
    <path d="M 57.6 41.472 
L 414.72 41.472 
" style="fill:none;stroke:#000000;stroke-linecap:square;stroke-linejoin:miter;stroke-width:0.8;"/>
   </g>
   <g id="text_32">
    <!-- radix sort 10 on language -->
    <g transform="translate(158.701875 35.472)scale(0.12 -0.12)">
     <defs>
      <path d="M 54.890625 54.6875 
L 35.109375 28.078125 
L 55.90625 0 
L 45.3125 0 
L 29.390625 21.484375 
L 13.484375 0 
L 2.875 0 
L 24.125 28.609375 
L 4.6875 54.6875 
L 15.28125 54.6875 
L 29.78125 35.203125 
L 44.28125 54.6875 
z
" id="DejaVuSans-120"/>
      <path d="M 9.421875 75.984375 
L 18.40625 75.984375 
L 18.40625 0 
L 9.421875 0 
z
" id="DejaVuSans-108"/>
      <path d="M 45.40625 27.984375 
Q 45.40625 37.75 41.375 43.109375 
Q 37.359375 48.484375 30.078125 48.484375 
Q 22.859375 48.484375 18.828125 43.109375 
Q 14.796875 37.75 14.796875 27.984375 
Q 14.796875 18.265625 18.828125 12.890625 
Q 22.859375 7.515625 30.078125 7.515625 
Q 37.359375 7.515625 41.375 12.890625 
Q 45.40625 18.265625 45.40625 27.984375 
z
M 54.390625 6.78125 
Q 54.390625 -7.171875 48.1875 -13.984375 
Q 42 -20.796875 29.203125 -20.796875 
Q 24.46875 -20.796875 20.265625 -20.09375 
Q 16.0625 -19.390625 12.109375 -17.921875 
L 12.109375 -9.1875 
Q 16.0625 -11.328125 19.921875 -12.34375 
Q 23.78125 -13.375 27.78125 -13.375 
Q 36.625 -13.375 41.015625 -8.765625 
Q 45.40625 -4.15625 45.40625 5.171875 
L 45.40625 9.625 
Q 42.625 4.78125 38.28125 2.390625 
Q 33.9375 0 27.875 0 
Q 17.828125 0 11.671875 7.65625 
Q 5.515625 15.328125 5.515625 27.984375 
Q 5.515625 40.671875 11.671875 48.328125 
Q 17.828125 56 27.875 56 
Q 33.9375 56 38.28125 53.609375 
Q 42.625 51.21875 45.40625 46.390625 
L 45.40625 54.6875 
L 54.390625 54.6875 
z
" id="DejaVuSans-103"/>
     </defs>
     <use xlink:href="#DejaVuSans-114"/>
     <use x="41.113281" xlink:href="#DejaVuSans-97"/>
     <use x="102.392578" xlink:href="#DejaVuSans-100"/>
     <use x="165.869141" xlink:href="#DejaVuSans-105"/>
     <use x="193.652344" xlink:href="#DejaVuSans-120"/>
     <use x="252.832031" xlink:href="#DejaVuSans-32"/>
     <use x="284.619141" xlink:href="#DejaVuSans-115"/>
     <use x="336.71875" xlink:href="#DejaVuSans-111"/>
     <use x="397.900391" xlink:href="#DejaVuSans-114"/>
     <use x="439.013672" xlink:href="#DejaVuSans-116"/>
     <use x="478.222656" xlink:href="#DejaVuSans-32"/>
     <use x="510.009766" xlink:href="#DejaVuSans-49"/>
     <use x="573.632812" xlink:href="#DejaVuSans-48"/>
     <use x="637.255859" xlink:href="#DejaVuSans-32"/>
     <use x="669.042969" xlink:href="#DejaVuSans-111"/>
     <use x="730.224609" xlink:href="#DejaVuSans-110"/>
     <use x="793.603516" xlink:href="#DejaVuSans-32"/>
     <use x="825.390625" xlink:href="#DejaVuSans-108"/>
     <use x="853.173828" xlink:href="#DejaVuSans-97"/>
     <use x="914.453125" xlink:href="#DejaVuSans-110"/>
     <use x="977.832031" xlink:href="#DejaVuSans-103"/>
     <use x="1041.308594" xlink:href="#DejaVuSans-117"/>
     <use x="1104.6875" xlink:href="#DejaVuSans-97"/>
     <use x="1165.966797" xlink:href="#DejaVuSans-103"/>
     <use x="1229.443359" xlink:href="#DejaVuSans-101"/>
    </g>
   </g>
   <g id="legend_1">
    <g id="patch_7">
     <path d="M 313.152813 93.7845 
L 407.72 93.7845 
Q 409.72 93.7845 409.72 91.7845 
L 409.72 48.472 
Q 409.72 46.472 407.72 46.472 
L 313.152813 46.472 
Q 311.152813 46.472 311.152813 48.472 
L 311.152813 91.7845 
Q 311.152813 93.7845 313.152813 93.7845 
z
" style="fill:#ffffff;opacity:0.8;stroke:#cccccc;stroke-linejoin:miter;"/>
    </g>
    <g id="line2d_62">
     <path d="M 315.152813 54.570438 
L 335.152813 54.570438 
" style="fill:none;stroke:#0000ff;stroke-dasharray:1.5,2.475;stroke-dashoffset:0;stroke-width:1.5;"/>
    </g>
    <g id="line2d_63">
     <g>
      <use style="fill:#0000ff;stroke:#0000ff;" x="325.152813" xlink:href="#m8635ed91fc" y="54.570438"/>
     </g>
    </g>
    <g id="text_33">
     <!-- transpose -->
     <g transform="translate(343.152813 58.070438)scale(0.1 -0.1)">
      <defs>
       <path d="M 18.109375 8.203125 
L 18.109375 -20.796875 
L 9.078125 -20.796875 
L 9.078125 54.6875 
L 18.109375 54.6875 
L 18.109375 46.390625 
Q 20.953125 51.265625 25.265625 53.625 
Q 29.59375 56 35.59375 56 
Q 45.5625 56 51.78125 48.09375 
Q 58.015625 40.1875 58.015625 27.296875 
Q 58.015625 14.40625 51.78125 6.484375 
Q 45.5625 -1.421875 35.59375 -1.421875 
Q 29.59375 -1.421875 25.265625 0.953125 
Q 20.953125 3.328125 18.109375 8.203125 
z
M 48.6875 27.296875 
Q 48.6875 37.203125 44.609375 42.84375 
Q 40.53125 48.484375 33.40625 48.484375 
Q 26.265625 48.484375 22.1875 42.84375 
Q 18.109375 37.203125 18.109375 27.296875 
Q 18.109375 17.390625 22.1875 11.75 
Q 26.265625 6.109375 33.40625 6.109375 
Q 40.53125 6.109375 44.609375 11.75 
Q 48.6875 17.390625 48.6875 27.296875 
z
" id="DejaVuSans-112"/>
      </defs>
      <use xlink:href="#DejaVuSans-116"/>
      <use x="39.208984" xlink:href="#DejaVuSans-114"/>
      <use x="80.322266" xlink:href="#DejaVuSans-97"/>
      <use x="141.601562" xlink:href="#DejaVuSans-110"/>
      <use x="204.980469" xlink:href="#DejaVuSans-115"/>
      <use x="257.080078" xlink:href="#DejaVuSans-112"/>
      <use x="320.556641" xlink:href="#DejaVuSans-111"/>
      <use x="381.738281" xlink:href="#DejaVuSans-115"/>
      <use x="433.837891" xlink:href="#DejaVuSans-101"/>
     </g>
    </g>
    <g id="line2d_64">
     <path d="M 315.152813 69.248563 
L 335.152813 69.248563 
" style="fill:none;stroke:#ff0000;stroke-dasharray:1.5,2.475;stroke-dashoffset:0;stroke-width:1.5;"/>
    </g>
    <g id="line2d_65">
     <g>
      <use style="fill:#ff0000;stroke:#ff0000;" x="325.152813" xlink:href="#m497599464d" y="69.248563"/>
     </g>
    </g>
    <g id="text_34">
     <!-- transpose_tr -->
     <g transform="translate(343.152813 72.748563)scale(0.1 -0.1)">
      <defs>
       <path d="M 50.984375 -16.609375 
L 50.984375 -23.578125 
L -0.984375 -23.578125 
L -0.984375 -16.609375 
z
" id="DejaVuSans-95"/>
      </defs>
      <use xlink:href="#DejaVuSans-116"/>
      <use x="39.208984" xlink:href="#DejaVuSans-114"/>
      <use x="80.322266" xlink:href="#DejaVuSans-97"/>
      <use x="141.601562" xlink:href="#DejaVuSans-110"/>
      <use x="204.980469" xlink:href="#DejaVuSans-115"/>
      <use x="257.080078" xlink:href="#DejaVuSans-112"/>
      <use x="320.556641" xlink:href="#DejaVuSans-111"/>
      <use x="381.738281" xlink:href="#DejaVuSans-115"/>
      <use x="433.837891" xlink:href="#DejaVuSans-101"/>
      <use x="495.361328" xlink:href="#DejaVuSans-95"/>
      <use x="545.361328" xlink:href="#DejaVuSans-116"/>
      <use x="584.570312" xlink:href="#DejaVuSans-114"/>
     </g>
    </g>
    <g id="line2d_66">
     <path d="M 315.152813 84.204813 
L 335.152813 84.204813 
" style="fill:none;stroke:#008000;stroke-dasharray:1.5,2.475;stroke-dashoffset:0;stroke-width:1.5;"/>
    </g>
    <g id="line2d_67">
     <g>
      <use style="fill:#008000;stroke:#008000;" x="325.152813" xlink:href="#m77325dd211" y="84.204813"/>
     </g>
    </g>
    <g id="text_35">
     <!-- mean -->
     <g transform="translate(343.152813 87.704813)scale(0.1 -0.1)">
      <defs>
       <path d="M 52 44.1875 
Q 55.375 50.25 60.0625 53.125 
Q 64.75 56 71.09375 56 
Q 79.640625 56 84.28125 50.015625 
Q 88.921875 44.046875 88.921875 33.015625 
L 88.921875 0 
L 79.890625 0 
L 79.890625 32.71875 
Q 79.890625 40.578125 77.09375 44.375 
Q 74.3125 48.1875 68.609375 48.1875 
Q 61.625 48.1875 57.5625 43.546875 
Q 53.515625 38.921875 53.515625 30.90625 
L 53.515625 0 
L 44.484375 0 
L 44.484375 32.71875 
Q 44.484375 40.625 41.703125 44.40625 
Q 38.921875 48.1875 33.109375 48.1875 
Q 26.21875 48.1875 22.15625 43.53125 
Q 18.109375 38.875 18.109375 30.90625 
L 18.109375 0 
L 9.078125 0 
L 9.078125 54.6875 
L 18.109375 54.6875 
L 18.109375 46.1875 
Q 21.1875 51.21875 25.484375 53.609375 
Q 29.78125 56 35.6875 56 
Q 41.65625 56 45.828125 52.96875 
Q 50 49.953125 52 44.1875 
z
" id="DejaVuSans-109"/>
      </defs>
      <use xlink:href="#DejaVuSans-109"/>
      <use x="97.412109" xlink:href="#DejaVuSans-101"/>
      <use x="158.935547" xlink:href="#DejaVuSans-97"/>
      <use x="220.214844" xlink:href="#DejaVuSans-110"/>
     </g>
    </g>
   </g>
  </g>
 </g>
 <defs>
  <clipPath id="p21055689ba">
   <rect height="266.112" width="357.12" x="57.6" y="41.472"/>
  </clipPath>
 </defs>
</svg>
