<?xml version="1.0" encoding="utf-8" standalone="no"?>
<!DOCTYPE svg PUBLIC "-//W3C//DTD SVG 1.1//EN"
  "http://www.w3.org/Graphics/SVG/1.1/DTD/svg11.dtd">
<!-- Created with matplotlib (https://matplotlib.org/) -->
<svg height="345.6pt" version="1.1" viewBox="0 0 460.8 345.6" width="460.8pt" xmlns="http://www.w3.org/2000/svg" xmlns:xlink="http://www.w3.org/1999/xlink">
 <metadata>
  <rdf:RDF xmlns:cc="http://creativecommons.org/ns#" xmlns:dc="http://purl.org/dc/elements/1.1/" xmlns:rdf="http://www.w3.org/1999/02/22-rdf-syntax-ns#">
   <cc:Work>
    <dc:type rdf:resource="http://purl.org/dc/dcmitype/StillImage"/>
    <dc:date>2020-08-24T15:24:20.093608</dc:date>
    <dc:format>image/svg+xml</dc:format>
    <dc:creator>
     <cc:Agent>
      <dc:title>Matplotlib v3.3.1, https://matplotlib.org/</dc:title>
     </cc:Agent>
    </dc:creator>
   </cc:Work>
  </rdf:RDF>
 </metadata>
 <defs>
  <style type="text/css">*{stroke-linecap:butt;stroke-linejoin:round;}</style>
 </defs>
 <g id="figure_1">
  <g id="patch_1">
   <path d="M 0 345.6 
L 460.8 345.6 
L 460.8 0 
L 0 0 
z
" style="fill:#ffffff;"/>
  </g>
  <g id="axes_1">
   <g id="patch_2">
    <path d="M 57.6 307.584 
L 414.72 307.584 
L 414.72 41.472 
L 57.6 41.472 
z
" style="fill:#ffffff;"/>
   </g>
   <g id="matplotlib.axis_1">
    <g id="xtick_1">
     <g id="line2d_1">
      <path clip-path="url(#pa2bd482399)" d="M 61.612584 307.584 
L 61.612584 41.472 
" style="fill:none;stroke:#b0b0b0;stroke-dasharray:5.12,1.28,0.8,1.28;stroke-dashoffset:0;stroke-width:0.8;"/>
     </g>
     <g id="line2d_2">
      <defs>
       <path d="M 0 0 
L 0 3.5 
" id="mcff236de78" style="stroke:#000000;stroke-width:0.8;"/>
      </defs>
      <g>
       <use style="stroke:#000000;stroke-width:0.8;" x="61.612584" xlink:href="#mcff236de78" y="307.584"/>
      </g>
     </g>
     <g id="text_1">
      <!-- 1 -->
      <g transform="translate(58.431334 322.182437)scale(0.1 -0.1)">
       <defs>
        <path d="M 12.40625 8.296875 
L 28.515625 8.296875 
L 28.515625 63.921875 
L 10.984375 60.40625 
L 10.984375 69.390625 
L 28.421875 72.90625 
L 38.28125 72.90625 
L 38.28125 8.296875 
L 54.390625 8.296875 
L 54.390625 0 
L 12.40625 0 
z
" id="DejaVuSans-49"/>
       </defs>
       <use xlink:href="#DejaVuSans-49"/>
      </g>
     </g>
    </g>
    <g id="xtick_2">
     <g id="line2d_3">
      <path clip-path="url(#pa2bd482399)" d="M 73.650337 307.584 
L 73.650337 41.472 
" style="fill:none;stroke:#b0b0b0;stroke-dasharray:5.12,1.28,0.8,1.28;stroke-dashoffset:0;stroke-width:0.8;"/>
     </g>
     <g id="line2d_4">
      <g>
       <use style="stroke:#000000;stroke-width:0.8;" x="73.650337" xlink:href="#mcff236de78" y="307.584"/>
      </g>
     </g>
     <g id="text_2">
      <!-- 4 -->
      <g transform="translate(70.469087 322.182437)scale(0.1 -0.1)">
       <defs>
        <path d="M 37.796875 64.3125 
L 12.890625 25.390625 
L 37.796875 25.390625 
z
M 35.203125 72.90625 
L 47.609375 72.90625 
L 47.609375 25.390625 
L 58.015625 25.390625 
L 58.015625 17.1875 
L 47.609375 17.1875 
L 47.609375 0 
L 37.796875 0 
L 37.796875 17.1875 
L 4.890625 17.1875 
L 4.890625 26.703125 
z
" id="DejaVuSans-52"/>
       </defs>
       <use xlink:href="#DejaVuSans-52"/>
      </g>
     </g>
    </g>
    <g id="xtick_3">
     <g id="line2d_5">
      <path clip-path="url(#pa2bd482399)" d="M 89.700674 307.584 
L 89.700674 41.472 
" style="fill:none;stroke:#b0b0b0;stroke-dasharray:5.12,1.28,0.8,1.28;stroke-dashoffset:0;stroke-width:0.8;"/>
     </g>
     <g id="line2d_6">
      <g>
       <use style="stroke:#000000;stroke-width:0.8;" x="89.700674" xlink:href="#mcff236de78" y="307.584"/>
      </g>
     </g>
     <g id="text_3">
      <!-- 8 -->
      <g transform="translate(86.519424 322.182437)scale(0.1 -0.1)">
       <defs>
        <path d="M 31.78125 34.625 
Q 24.75 34.625 20.71875 30.859375 
Q 16.703125 27.09375 16.703125 20.515625 
Q 16.703125 13.921875 20.71875 10.15625 
Q 24.75 6.390625 31.78125 6.390625 
Q 38.8125 6.390625 42.859375 10.171875 
Q 46.921875 13.96875 46.921875 20.515625 
Q 46.921875 27.09375 42.890625 30.859375 
Q 38.875 34.625 31.78125 34.625 
z
M 21.921875 38.8125 
Q 15.578125 40.375 12.03125 44.71875 
Q 8.5 49.078125 8.5 55.328125 
Q 8.5 64.0625 14.71875 69.140625 
Q 20.953125 74.21875 31.78125 74.21875 
Q 42.671875 74.21875 48.875 69.140625 
Q 55.078125 64.0625 55.078125 55.328125 
Q 55.078125 49.078125 51.53125 44.71875 
Q 48 40.375 41.703125 38.8125 
Q 48.828125 37.15625 52.796875 32.3125 
Q 56.78125 27.484375 56.78125 20.515625 
Q 56.78125 9.90625 50.3125 4.234375 
Q 43.84375 -1.421875 31.78125 -1.421875 
Q 19.734375 -1.421875 13.25 4.234375 
Q 6.78125 9.90625 6.78125 20.515625 
Q 6.78125 27.484375 10.78125 32.3125 
Q 14.796875 37.15625 21.921875 38.8125 
z
M 18.3125 54.390625 
Q 18.3125 48.734375 21.84375 45.5625 
Q 25.390625 42.390625 31.78125 42.390625 
Q 38.140625 42.390625 41.71875 45.5625 
Q 45.3125 48.734375 45.3125 54.390625 
Q 45.3125 60.0625 41.71875 63.234375 
Q 38.140625 66.40625 31.78125 66.40625 
Q 25.390625 66.40625 21.84375 63.234375 
Q 18.3125 60.0625 18.3125 54.390625 
z
" id="DejaVuSans-56"/>
       </defs>
       <use xlink:href="#DejaVuSans-56"/>
      </g>
     </g>
    </g>
    <g id="xtick_4">
     <g id="line2d_7">
      <path clip-path="url(#pa2bd482399)" d="M 105.751011 307.584 
L 105.751011 41.472 
" style="fill:none;stroke:#b0b0b0;stroke-dasharray:5.12,1.28,0.8,1.28;stroke-dashoffset:0;stroke-width:0.8;"/>
     </g>
     <g id="line2d_8">
      <g>
       <use style="stroke:#000000;stroke-width:0.8;" x="105.751011" xlink:href="#mcff236de78" y="307.584"/>
      </g>
     </g>
     <g id="text_4">
      <!-- 12 -->
      <g transform="translate(99.388511 322.182437)scale(0.1 -0.1)">
       <defs>
        <path d="M 19.1875 8.296875 
L 53.609375 8.296875 
L 53.609375 0 
L 7.328125 0 
L 7.328125 8.296875 
Q 12.9375 14.109375 22.625 23.890625 
Q 32.328125 33.6875 34.8125 36.53125 
Q 39.546875 41.84375 41.421875 45.53125 
Q 43.3125 49.21875 43.3125 52.78125 
Q 43.3125 58.59375 39.234375 62.25 
Q 35.15625 65.921875 28.609375 65.921875 
Q 23.96875 65.921875 18.8125 64.3125 
Q 13.671875 62.703125 7.8125 59.421875 
L 7.8125 69.390625 
Q 13.765625 71.78125 18.9375 73 
Q 24.125 74.21875 28.421875 74.21875 
Q 39.75 74.21875 46.484375 68.546875 
Q 53.21875 62.890625 53.21875 53.421875 
Q 53.21875 48.921875 51.53125 44.890625 
Q 49.859375 40.875 45.40625 35.40625 
Q 44.1875 33.984375 37.640625 27.21875 
Q 31.109375 20.453125 19.1875 8.296875 
z
" id="DejaVuSans-50"/>
       </defs>
       <use xlink:href="#DejaVuSans-49"/>
       <use x="63.623047" xlink:href="#DejaVuSans-50"/>
      </g>
     </g>
    </g>
    <g id="xtick_5">
     <g id="line2d_9">
      <path clip-path="url(#pa2bd482399)" d="M 121.801348 307.584 
L 121.801348 41.472 
" style="fill:none;stroke:#b0b0b0;stroke-dasharray:5.12,1.28,0.8,1.28;stroke-dashoffset:0;stroke-width:0.8;"/>
     </g>
     <g id="line2d_10">
      <g>
       <use style="stroke:#000000;stroke-width:0.8;" x="121.801348" xlink:href="#mcff236de78" y="307.584"/>
      </g>
     </g>
     <g id="text_5">
      <!-- 16 -->
      <g transform="translate(115.438848 322.182437)scale(0.1 -0.1)">
       <defs>
        <path d="M 33.015625 40.375 
Q 26.375 40.375 22.484375 35.828125 
Q 18.609375 31.296875 18.609375 23.390625 
Q 18.609375 15.53125 22.484375 10.953125 
Q 26.375 6.390625 33.015625 6.390625 
Q 39.65625 6.390625 43.53125 10.953125 
Q 47.40625 15.53125 47.40625 23.390625 
Q 47.40625 31.296875 43.53125 35.828125 
Q 39.65625 40.375 33.015625 40.375 
z
M 52.59375 71.296875 
L 52.59375 62.3125 
Q 48.875 64.0625 45.09375 64.984375 
Q 41.3125 65.921875 37.59375 65.921875 
Q 27.828125 65.921875 22.671875 59.328125 
Q 17.53125 52.734375 16.796875 39.40625 
Q 19.671875 43.65625 24.015625 45.921875 
Q 28.375 48.1875 33.59375 48.1875 
Q 44.578125 48.1875 50.953125 41.515625 
Q 57.328125 34.859375 57.328125 23.390625 
Q 57.328125 12.15625 50.6875 5.359375 
Q 44.046875 -1.421875 33.015625 -1.421875 
Q 20.359375 -1.421875 13.671875 8.265625 
Q 6.984375 17.96875 6.984375 36.375 
Q 6.984375 53.65625 15.1875 63.9375 
Q 23.390625 74.21875 37.203125 74.21875 
Q 40.921875 74.21875 44.703125 73.484375 
Q 48.484375 72.75 52.59375 71.296875 
z
" id="DejaVuSans-54"/>
       </defs>
       <use xlink:href="#DejaVuSans-49"/>
       <use x="63.623047" xlink:href="#DejaVuSans-54"/>
      </g>
     </g>
    </g>
    <g id="xtick_6">
     <g id="line2d_11">
      <path clip-path="url(#pa2bd482399)" d="M 137.851685 307.584 
L 137.851685 41.472 
" style="fill:none;stroke:#b0b0b0;stroke-dasharray:5.12,1.28,0.8,1.28;stroke-dashoffset:0;stroke-width:0.8;"/>
     </g>
     <g id="line2d_12">
      <g>
       <use style="stroke:#000000;stroke-width:0.8;" x="137.851685" xlink:href="#mcff236de78" y="307.584"/>
      </g>
     </g>
     <g id="text_6">
      <!-- 20 -->
      <g transform="translate(131.489185 322.182437)scale(0.1 -0.1)">
       <defs>
        <path d="M 31.78125 66.40625 
Q 24.171875 66.40625 20.328125 58.90625 
Q 16.5 51.421875 16.5 36.375 
Q 16.5 21.390625 20.328125 13.890625 
Q 24.171875 6.390625 31.78125 6.390625 
Q 39.453125 6.390625 43.28125 13.890625 
Q 47.125 21.390625 47.125 36.375 
Q 47.125 51.421875 43.28125 58.90625 
Q 39.453125 66.40625 31.78125 66.40625 
z
M 31.78125 74.21875 
Q 44.046875 74.21875 50.515625 64.515625 
Q 56.984375 54.828125 56.984375 36.375 
Q 56.984375 17.96875 50.515625 8.265625 
Q 44.046875 -1.421875 31.78125 -1.421875 
Q 19.53125 -1.421875 13.0625 8.265625 
Q 6.59375 17.96875 6.59375 36.375 
Q 6.59375 54.828125 13.0625 64.515625 
Q 19.53125 74.21875 31.78125 74.21875 
z
" id="DejaVuSans-48"/>
       </defs>
       <use xlink:href="#DejaVuSans-50"/>
       <use x="63.623047" xlink:href="#DejaVuSans-48"/>
      </g>
     </g>
    </g>
    <g id="xtick_7">
     <g id="line2d_13">
      <path clip-path="url(#pa2bd482399)" d="M 153.902022 307.584 
L 153.902022 41.472 
" style="fill:none;stroke:#b0b0b0;stroke-dasharray:5.12,1.28,0.8,1.28;stroke-dashoffset:0;stroke-width:0.8;"/>
     </g>
     <g id="line2d_14">
      <g>
       <use style="stroke:#000000;stroke-width:0.8;" x="153.902022" xlink:href="#mcff236de78" y="307.584"/>
      </g>
     </g>
     <g id="text_7">
      <!-- 24 -->
      <g transform="translate(147.539522 322.182437)scale(0.1 -0.1)">
       <use xlink:href="#DejaVuSans-50"/>
       <use x="63.623047" xlink:href="#DejaVuSans-52"/>
      </g>
     </g>
    </g>
    <g id="xtick_8">
     <g id="line2d_15">
      <path clip-path="url(#pa2bd482399)" d="M 169.95236 307.584 
L 169.95236 41.472 
" style="fill:none;stroke:#b0b0b0;stroke-dasharray:5.12,1.28,0.8,1.28;stroke-dashoffset:0;stroke-width:0.8;"/>
     </g>
     <g id="line2d_16">
      <g>
       <use style="stroke:#000000;stroke-width:0.8;" x="169.95236" xlink:href="#mcff236de78" y="307.584"/>
      </g>
     </g>
     <g id="text_8">
      <!-- 28 -->
      <g transform="translate(163.58986 322.182437)scale(0.1 -0.1)">
       <use xlink:href="#DejaVuSans-50"/>
       <use x="63.623047" xlink:href="#DejaVuSans-56"/>
      </g>
     </g>
    </g>
    <g id="xtick_9">
     <g id="line2d_17">
      <path clip-path="url(#pa2bd482399)" d="M 186.002697 307.584 
L 186.002697 41.472 
" style="fill:none;stroke:#b0b0b0;stroke-dasharray:5.12,1.28,0.8,1.28;stroke-dashoffset:0;stroke-width:0.8;"/>
     </g>
     <g id="line2d_18">
      <g>
       <use style="stroke:#000000;stroke-width:0.8;" x="186.002697" xlink:href="#mcff236de78" y="307.584"/>
      </g>
     </g>
     <g id="text_9">
      <!-- 32 -->
      <g transform="translate(179.640197 322.182437)scale(0.1 -0.1)">
       <defs>
        <path d="M 40.578125 39.3125 
Q 47.65625 37.796875 51.625 33 
Q 55.609375 28.21875 55.609375 21.1875 
Q 55.609375 10.40625 48.1875 4.484375 
Q 40.765625 -1.421875 27.09375 -1.421875 
Q 22.515625 -1.421875 17.65625 -0.515625 
Q 12.796875 0.390625 7.625 2.203125 
L 7.625 11.71875 
Q 11.71875 9.328125 16.59375 8.109375 
Q 21.484375 6.890625 26.8125 6.890625 
Q 36.078125 6.890625 40.9375 10.546875 
Q 45.796875 14.203125 45.796875 21.1875 
Q 45.796875 27.640625 41.28125 31.265625 
Q 36.765625 34.90625 28.71875 34.90625 
L 20.21875 34.90625 
L 20.21875 43.015625 
L 29.109375 43.015625 
Q 36.375 43.015625 40.234375 45.921875 
Q 44.09375 48.828125 44.09375 54.296875 
Q 44.09375 59.90625 40.109375 62.90625 
Q 36.140625 65.921875 28.71875 65.921875 
Q 24.65625 65.921875 20.015625 65.03125 
Q 15.375 64.15625 9.8125 62.3125 
L 9.8125 71.09375 
Q 15.4375 72.65625 20.34375 73.4375 
Q 25.25 74.21875 29.59375 74.21875 
Q 40.828125 74.21875 47.359375 69.109375 
Q 53.90625 64.015625 53.90625 55.328125 
Q 53.90625 49.265625 50.4375 45.09375 
Q 46.96875 40.921875 40.578125 39.3125 
z
" id="DejaVuSans-51"/>
       </defs>
       <use xlink:href="#DejaVuSans-51"/>
       <use x="63.623047" xlink:href="#DejaVuSans-50"/>
      </g>
     </g>
    </g>
    <g id="xtick_10">
     <g id="line2d_19">
      <path clip-path="url(#pa2bd482399)" d="M 202.053034 307.584 
L 202.053034 41.472 
" style="fill:none;stroke:#b0b0b0;stroke-dasharray:5.12,1.28,0.8,1.28;stroke-dashoffset:0;stroke-width:0.8;"/>
     </g>
     <g id="line2d_20">
      <g>
       <use style="stroke:#000000;stroke-width:0.8;" x="202.053034" xlink:href="#mcff236de78" y="307.584"/>
      </g>
     </g>
     <g id="text_10">
      <!-- 36 -->
      <g transform="translate(195.690534 322.182437)scale(0.1 -0.1)">
       <use xlink:href="#DejaVuSans-51"/>
       <use x="63.623047" xlink:href="#DejaVuSans-54"/>
      </g>
     </g>
    </g>
    <g id="xtick_11">
     <g id="line2d_21">
      <path clip-path="url(#pa2bd482399)" d="M 218.103371 307.584 
L 218.103371 41.472 
" style="fill:none;stroke:#b0b0b0;stroke-dasharray:5.12,1.28,0.8,1.28;stroke-dashoffset:0;stroke-width:0.8;"/>
     </g>
     <g id="line2d_22">
      <g>
       <use style="stroke:#000000;stroke-width:0.8;" x="218.103371" xlink:href="#mcff236de78" y="307.584"/>
      </g>
     </g>
     <g id="text_11">
      <!-- 40 -->
      <g transform="translate(211.740871 322.182437)scale(0.1 -0.1)">
       <use xlink:href="#DejaVuSans-52"/>
       <use x="63.623047" xlink:href="#DejaVuSans-48"/>
      </g>
     </g>
    </g>
    <g id="xtick_12">
     <g id="line2d_23">
      <path clip-path="url(#pa2bd482399)" d="M 234.153708 307.584 
L 234.153708 41.472 
" style="fill:none;stroke:#b0b0b0;stroke-dasharray:5.12,1.28,0.8,1.28;stroke-dashoffset:0;stroke-width:0.8;"/>
     </g>
     <g id="line2d_24">
      <g>
       <use style="stroke:#000000;stroke-width:0.8;" x="234.153708" xlink:href="#mcff236de78" y="307.584"/>
      </g>
     </g>
     <g id="text_12">
      <!-- 44 -->
      <g transform="translate(227.791208 322.182437)scale(0.1 -0.1)">
       <use xlink:href="#DejaVuSans-52"/>
       <use x="63.623047" xlink:href="#DejaVuSans-52"/>
      </g>
     </g>
    </g>
    <g id="xtick_13">
     <g id="line2d_25">
      <path clip-path="url(#pa2bd482399)" d="M 250.204045 307.584 
L 250.204045 41.472 
" style="fill:none;stroke:#b0b0b0;stroke-dasharray:5.12,1.28,0.8,1.28;stroke-dashoffset:0;stroke-width:0.8;"/>
     </g>
     <g id="line2d_26">
      <g>
       <use style="stroke:#000000;stroke-width:0.8;" x="250.204045" xlink:href="#mcff236de78" y="307.584"/>
      </g>
     </g>
     <g id="text_13">
      <!-- 48 -->
      <g transform="translate(243.841545 322.182437)scale(0.1 -0.1)">
       <use xlink:href="#DejaVuSans-52"/>
       <use x="63.623047" xlink:href="#DejaVuSans-56"/>
      </g>
     </g>
    </g>
    <g id="xtick_14">
     <g id="line2d_27">
      <path clip-path="url(#pa2bd482399)" d="M 266.254382 307.584 
L 266.254382 41.472 
" style="fill:none;stroke:#b0b0b0;stroke-dasharray:5.12,1.28,0.8,1.28;stroke-dashoffset:0;stroke-width:0.8;"/>
     </g>
     <g id="line2d_28">
      <g>
       <use style="stroke:#000000;stroke-width:0.8;" x="266.254382" xlink:href="#mcff236de78" y="307.584"/>
      </g>
     </g>
     <g id="text_14">
      <!-- 52 -->
      <g transform="translate(259.891882 322.182437)scale(0.1 -0.1)">
       <defs>
        <path d="M 10.796875 72.90625 
L 49.515625 72.90625 
L 49.515625 64.59375 
L 19.828125 64.59375 
L 19.828125 46.734375 
Q 21.96875 47.46875 24.109375 47.828125 
Q 26.265625 48.1875 28.421875 48.1875 
Q 40.625 48.1875 47.75 41.5 
Q 54.890625 34.8125 54.890625 23.390625 
Q 54.890625 11.625 47.5625 5.09375 
Q 40.234375 -1.421875 26.90625 -1.421875 
Q 22.3125 -1.421875 17.546875 -0.640625 
Q 12.796875 0.140625 7.71875 1.703125 
L 7.71875 11.625 
Q 12.109375 9.234375 16.796875 8.0625 
Q 21.484375 6.890625 26.703125 6.890625 
Q 35.15625 6.890625 40.078125 11.328125 
Q 45.015625 15.765625 45.015625 23.390625 
Q 45.015625 31 40.078125 35.4375 
Q 35.15625 39.890625 26.703125 39.890625 
Q 22.75 39.890625 18.8125 39.015625 
Q 14.890625 38.140625 10.796875 36.28125 
z
" id="DejaVuSans-53"/>
       </defs>
       <use xlink:href="#DejaVuSans-53"/>
       <use x="63.623047" xlink:href="#DejaVuSans-50"/>
      </g>
     </g>
    </g>
    <g id="xtick_15">
     <g id="line2d_29">
      <path clip-path="url(#pa2bd482399)" d="M 282.304719 307.584 
L 282.304719 41.472 
" style="fill:none;stroke:#b0b0b0;stroke-dasharray:5.12,1.28,0.8,1.28;stroke-dashoffset:0;stroke-width:0.8;"/>
     </g>
     <g id="line2d_30">
      <g>
       <use style="stroke:#000000;stroke-width:0.8;" x="282.304719" xlink:href="#mcff236de78" y="307.584"/>
      </g>
     </g>
     <g id="text_15">
      <!-- 56 -->
      <g transform="translate(275.942219 322.182437)scale(0.1 -0.1)">
       <use xlink:href="#DejaVuSans-53"/>
       <use x="63.623047" xlink:href="#DejaVuSans-54"/>
      </g>
     </g>
    </g>
    <g id="xtick_16">
     <g id="line2d_31">
      <path clip-path="url(#pa2bd482399)" d="M 298.355056 307.584 
L 298.355056 41.472 
" style="fill:none;stroke:#b0b0b0;stroke-dasharray:5.12,1.28,0.8,1.28;stroke-dashoffset:0;stroke-width:0.8;"/>
     </g>
     <g id="line2d_32">
      <g>
       <use style="stroke:#000000;stroke-width:0.8;" x="298.355056" xlink:href="#mcff236de78" y="307.584"/>
      </g>
     </g>
     <g id="text_16">
      <!-- 60 -->
      <g transform="translate(291.992556 322.182437)scale(0.1 -0.1)">
       <use xlink:href="#DejaVuSans-54"/>
       <use x="63.623047" xlink:href="#DejaVuSans-48"/>
      </g>
     </g>
    </g>
    <g id="xtick_17">
     <g id="line2d_33">
      <path clip-path="url(#pa2bd482399)" d="M 314.405393 307.584 
L 314.405393 41.472 
" style="fill:none;stroke:#b0b0b0;stroke-dasharray:5.12,1.28,0.8,1.28;stroke-dashoffset:0;stroke-width:0.8;"/>
     </g>
     <g id="line2d_34">
      <g>
       <use style="stroke:#000000;stroke-width:0.8;" x="314.405393" xlink:href="#mcff236de78" y="307.584"/>
      </g>
     </g>
     <g id="text_17">
      <!-- 64 -->
      <g transform="translate(308.042893 322.182437)scale(0.1 -0.1)">
       <use xlink:href="#DejaVuSans-54"/>
       <use x="63.623047" xlink:href="#DejaVuSans-52"/>
      </g>
     </g>
    </g>
    <g id="xtick_18">
     <g id="line2d_35">
      <path clip-path="url(#pa2bd482399)" d="M 330.45573 307.584 
L 330.45573 41.472 
" style="fill:none;stroke:#b0b0b0;stroke-dasharray:5.12,1.28,0.8,1.28;stroke-dashoffset:0;stroke-width:0.8;"/>
     </g>
     <g id="line2d_36">
      <g>
       <use style="stroke:#000000;stroke-width:0.8;" x="330.45573" xlink:href="#mcff236de78" y="307.584"/>
      </g>
     </g>
     <g id="text_18">
      <!-- 68 -->
      <g transform="translate(324.09323 322.182437)scale(0.1 -0.1)">
       <use xlink:href="#DejaVuSans-54"/>
       <use x="63.623047" xlink:href="#DejaVuSans-56"/>
      </g>
     </g>
    </g>
    <g id="xtick_19">
     <g id="line2d_37">
      <path clip-path="url(#pa2bd482399)" d="M 346.506067 307.584 
L 346.506067 41.472 
" style="fill:none;stroke:#b0b0b0;stroke-dasharray:5.12,1.28,0.8,1.28;stroke-dashoffset:0;stroke-width:0.8;"/>
     </g>
     <g id="line2d_38">
      <g>
       <use style="stroke:#000000;stroke-width:0.8;" x="346.506067" xlink:href="#mcff236de78" y="307.584"/>
      </g>
     </g>
     <g id="text_19">
      <!-- 72 -->
      <g transform="translate(340.143567 322.182437)scale(0.1 -0.1)">
       <defs>
        <path d="M 8.203125 72.90625 
L 55.078125 72.90625 
L 55.078125 68.703125 
L 28.609375 0 
L 18.3125 0 
L 43.21875 64.59375 
L 8.203125 64.59375 
z
" id="DejaVuSans-55"/>
       </defs>
       <use xlink:href="#DejaVuSans-55"/>
       <use x="63.623047" xlink:href="#DejaVuSans-50"/>
      </g>
     </g>
    </g>
    <g id="xtick_20">
     <g id="line2d_39">
      <path clip-path="url(#pa2bd482399)" d="M 362.556404 307.584 
L 362.556404 41.472 
" style="fill:none;stroke:#b0b0b0;stroke-dasharray:5.12,1.28,0.8,1.28;stroke-dashoffset:0;stroke-width:0.8;"/>
     </g>
     <g id="line2d_40">
      <g>
       <use style="stroke:#000000;stroke-width:0.8;" x="362.556404" xlink:href="#mcff236de78" y="307.584"/>
      </g>
     </g>
     <g id="text_20">
      <!-- 76 -->
      <g transform="translate(356.193904 322.182437)scale(0.1 -0.1)">
       <use xlink:href="#DejaVuSans-55"/>
       <use x="63.623047" xlink:href="#DejaVuSans-54"/>
      </g>
     </g>
    </g>
    <g id="xtick_21">
     <g id="line2d_41">
      <path clip-path="url(#pa2bd482399)" d="M 378.606742 307.584 
L 378.606742 41.472 
" style="fill:none;stroke:#b0b0b0;stroke-dasharray:5.12,1.28,0.8,1.28;stroke-dashoffset:0;stroke-width:0.8;"/>
     </g>
     <g id="line2d_42">
      <g>
       <use style="stroke:#000000;stroke-width:0.8;" x="378.606742" xlink:href="#mcff236de78" y="307.584"/>
      </g>
     </g>
     <g id="text_21">
      <!-- 80 -->
      <g transform="translate(372.244242 322.182437)scale(0.1 -0.1)">
       <use xlink:href="#DejaVuSans-56"/>
       <use x="63.623047" xlink:href="#DejaVuSans-48"/>
      </g>
     </g>
    </g>
    <g id="xtick_22">
     <g id="line2d_43">
      <path clip-path="url(#pa2bd482399)" d="M 394.657079 307.584 
L 394.657079 41.472 
" style="fill:none;stroke:#b0b0b0;stroke-dasharray:5.12,1.28,0.8,1.28;stroke-dashoffset:0;stroke-width:0.8;"/>
     </g>
     <g id="line2d_44">
      <g>
       <use style="stroke:#000000;stroke-width:0.8;" x="394.657079" xlink:href="#mcff236de78" y="307.584"/>
      </g>
     </g>
     <g id="text_22">
      <!-- 84 -->
      <g transform="translate(388.294579 322.182437)scale(0.1 -0.1)">
       <use xlink:href="#DejaVuSans-56"/>
       <use x="63.623047" xlink:href="#DejaVuSans-52"/>
      </g>
     </g>
    </g>
    <g id="xtick_23">
     <g id="line2d_45">
      <path clip-path="url(#pa2bd482399)" d="M 410.707416 307.584 
L 410.707416 41.472 
" style="fill:none;stroke:#b0b0b0;stroke-dasharray:5.12,1.28,0.8,1.28;stroke-dashoffset:0;stroke-width:0.8;"/>
     </g>
     <g id="line2d_46">
      <g>
       <use style="stroke:#000000;stroke-width:0.8;" x="410.707416" xlink:href="#mcff236de78" y="307.584"/>
      </g>
     </g>
     <g id="text_23">
      <!-- 88 -->
      <g transform="translate(404.344916 322.182437)scale(0.1 -0.1)">
       <use xlink:href="#DejaVuSans-56"/>
       <use x="63.623047" xlink:href="#DejaVuSans-56"/>
      </g>
     </g>
    </g>
    <g id="text_24">
     <!-- threads -->
     <g transform="translate(217.168594 335.860562)scale(0.1 -0.1)">
      <defs>
       <path d="M 18.3125 70.21875 
L 18.3125 54.6875 
L 36.8125 54.6875 
L 36.8125 47.703125 
L 18.3125 47.703125 
L 18.3125 18.015625 
Q 18.3125 11.328125 20.140625 9.421875 
Q 21.96875 7.515625 27.59375 7.515625 
L 36.8125 7.515625 
L 36.8125 0 
L 27.59375 0 
Q 17.1875 0 13.234375 3.875 
Q 9.28125 7.765625 9.28125 18.015625 
L 9.28125 47.703125 
L 2.6875 47.703125 
L 2.6875 54.6875 
L 9.28125 54.6875 
L 9.28125 70.21875 
z
" id="DejaVuSans-116"/>
       <path d="M 54.890625 33.015625 
L 54.890625 0 
L 45.90625 0 
L 45.90625 32.71875 
Q 45.90625 40.484375 42.875 44.328125 
Q 39.84375 48.1875 33.796875 48.1875 
Q 26.515625 48.1875 22.3125 43.546875 
Q 18.109375 38.921875 18.109375 30.90625 
L 18.109375 0 
L 9.078125 0 
L 9.078125 75.984375 
L 18.109375 75.984375 
L 18.109375 46.1875 
Q 21.34375 51.125 25.703125 53.5625 
Q 30.078125 56 35.796875 56 
Q 45.21875 56 50.046875 50.171875 
Q 54.890625 44.34375 54.890625 33.015625 
z
" id="DejaVuSans-104"/>
       <path d="M 41.109375 46.296875 
Q 39.59375 47.171875 37.8125 47.578125 
Q 36.03125 48 33.890625 48 
Q 26.265625 48 22.1875 43.046875 
Q 18.109375 38.09375 18.109375 28.8125 
L 18.109375 0 
L 9.078125 0 
L 9.078125 54.6875 
L 18.109375 54.6875 
L 18.109375 46.1875 
Q 20.953125 51.171875 25.484375 53.578125 
Q 30.03125 56 36.53125 56 
Q 37.453125 56 38.578125 55.875 
Q 39.703125 55.765625 41.0625 55.515625 
z
" id="DejaVuSans-114"/>
       <path d="M 56.203125 29.59375 
L 56.203125 25.203125 
L 14.890625 25.203125 
Q 15.484375 15.921875 20.484375 11.0625 
Q 25.484375 6.203125 34.421875 6.203125 
Q 39.59375 6.203125 44.453125 7.46875 
Q 49.3125 8.734375 54.109375 11.28125 
L 54.109375 2.78125 
Q 49.265625 0.734375 44.1875 -0.34375 
Q 39.109375 -1.421875 33.890625 -1.421875 
Q 20.796875 -1.421875 13.15625 6.1875 
Q 5.515625 13.8125 5.515625 26.8125 
Q 5.515625 40.234375 12.765625 48.109375 
Q 20.015625 56 32.328125 56 
Q 43.359375 56 49.78125 48.890625 
Q 56.203125 41.796875 56.203125 29.59375 
z
M 47.21875 32.234375 
Q 47.125 39.59375 43.09375 43.984375 
Q 39.0625 48.390625 32.421875 48.390625 
Q 24.90625 48.390625 20.390625 44.140625 
Q 15.875 39.890625 15.1875 32.171875 
z
" id="DejaVuSans-101"/>
       <path d="M 34.28125 27.484375 
Q 23.390625 27.484375 19.1875 25 
Q 14.984375 22.515625 14.984375 16.5 
Q 14.984375 11.71875 18.140625 8.90625 
Q 21.296875 6.109375 26.703125 6.109375 
Q 34.1875 6.109375 38.703125 11.40625 
Q 43.21875 16.703125 43.21875 25.484375 
L 43.21875 27.484375 
z
M 52.203125 31.203125 
L 52.203125 0 
L 43.21875 0 
L 43.21875 8.296875 
Q 40.140625 3.328125 35.546875 0.953125 
Q 30.953125 -1.421875 24.3125 -1.421875 
Q 15.921875 -1.421875 10.953125 3.296875 
Q 6 8.015625 6 15.921875 
Q 6 25.140625 12.171875 29.828125 
Q 18.359375 34.515625 30.609375 34.515625 
L 43.21875 34.515625 
L 43.21875 35.40625 
Q 43.21875 41.609375 39.140625 45 
Q 35.0625 48.390625 27.6875 48.390625 
Q 23 48.390625 18.546875 47.265625 
Q 14.109375 46.140625 10.015625 43.890625 
L 10.015625 52.203125 
Q 14.9375 54.109375 19.578125 55.046875 
Q 24.21875 56 28.609375 56 
Q 40.484375 56 46.34375 49.84375 
Q 52.203125 43.703125 52.203125 31.203125 
z
" id="DejaVuSans-97"/>
       <path d="M 45.40625 46.390625 
L 45.40625 75.984375 
L 54.390625 75.984375 
L 54.390625 0 
L 45.40625 0 
L 45.40625 8.203125 
Q 42.578125 3.328125 38.25 0.953125 
Q 33.9375 -1.421875 27.875 -1.421875 
Q 17.96875 -1.421875 11.734375 6.484375 
Q 5.515625 14.40625 5.515625 27.296875 
Q 5.515625 40.1875 11.734375 48.09375 
Q 17.96875 56 27.875 56 
Q 33.9375 56 38.25 53.625 
Q 42.578125 51.265625 45.40625 46.390625 
z
M 14.796875 27.296875 
Q 14.796875 17.390625 18.875 11.75 
Q 22.953125 6.109375 30.078125 6.109375 
Q 37.203125 6.109375 41.296875 11.75 
Q 45.40625 17.390625 45.40625 27.296875 
Q 45.40625 37.203125 41.296875 42.84375 
Q 37.203125 48.484375 30.078125 48.484375 
Q 22.953125 48.484375 18.875 42.84375 
Q 14.796875 37.203125 14.796875 27.296875 
z
" id="DejaVuSans-100"/>
       <path d="M 44.28125 53.078125 
L 44.28125 44.578125 
Q 40.484375 46.53125 36.375 47.5 
Q 32.28125 48.484375 27.875 48.484375 
Q 21.1875 48.484375 17.84375 46.4375 
Q 14.5 44.390625 14.5 40.28125 
Q 14.5 37.15625 16.890625 35.375 
Q 19.28125 33.59375 26.515625 31.984375 
L 29.59375 31.296875 
Q 39.15625 29.25 43.1875 25.515625 
Q 47.21875 21.78125 47.21875 15.09375 
Q 47.21875 7.46875 41.1875 3.015625 
Q 35.15625 -1.421875 24.609375 -1.421875 
Q 20.21875 -1.421875 15.453125 -0.5625 
Q 10.6875 0.296875 5.421875 2 
L 5.421875 11.28125 
Q 10.40625 8.6875 15.234375 7.390625 
Q 20.0625 6.109375 24.8125 6.109375 
Q 31.15625 6.109375 34.5625 8.28125 
Q 37.984375 10.453125 37.984375 14.40625 
Q 37.984375 18.0625 35.515625 20.015625 
Q 33.0625 21.96875 24.703125 23.78125 
L 21.578125 24.515625 
Q 13.234375 26.265625 9.515625 29.90625 
Q 5.8125 33.546875 5.8125 39.890625 
Q 5.8125 47.609375 11.28125 51.796875 
Q 16.75 56 26.8125 56 
Q 31.78125 56 36.171875 55.265625 
Q 40.578125 54.546875 44.28125 53.078125 
z
" id="DejaVuSans-115"/>
      </defs>
      <use xlink:href="#DejaVuSans-116"/>
      <use x="39.208984" xlink:href="#DejaVuSans-104"/>
      <use x="102.587891" xlink:href="#DejaVuSans-114"/>
      <use x="141.451172" xlink:href="#DejaVuSans-101"/>
      <use x="202.974609" xlink:href="#DejaVuSans-97"/>
      <use x="264.253906" xlink:href="#DejaVuSans-100"/>
      <use x="327.730469" xlink:href="#DejaVuSans-115"/>
     </g>
    </g>
   </g>
   <g id="matplotlib.axis_2">
    <g id="ytick_1">
     <g id="line2d_47">
      <path clip-path="url(#pa2bd482399)" d="M 57.6 253.741387 
L 414.72 253.741387 
" style="fill:none;stroke:#b0b0b0;stroke-dasharray:5.12,1.28,0.8,1.28;stroke-dashoffset:0;stroke-width:0.8;"/>
     </g>
     <g id="line2d_48">
      <defs>
       <path d="M 0 0 
L -3.5 0 
" id="m8ad4e71152" style="stroke:#000000;stroke-width:0.8;"/>
      </defs>
      <g>
       <use style="stroke:#000000;stroke-width:0.8;" x="57.6" xlink:href="#m8ad4e71152" y="253.741387"/>
      </g>
     </g>
     <g id="text_25">
      <!-- 5 -->
      <g transform="translate(44.2375 257.540606)scale(0.1 -0.1)">
       <use xlink:href="#DejaVuSans-53"/>
      </g>
     </g>
    </g>
    <g id="ytick_2">
     <g id="line2d_49">
      <path clip-path="url(#pa2bd482399)" d="M 57.6 196.015911 
L 414.72 196.015911 
" style="fill:none;stroke:#b0b0b0;stroke-dasharray:5.12,1.28,0.8,1.28;stroke-dashoffset:0;stroke-width:0.8;"/>
     </g>
     <g id="line2d_50">
      <g>
       <use style="stroke:#000000;stroke-width:0.8;" x="57.6" xlink:href="#m8ad4e71152" y="196.015911"/>
      </g>
     </g>
     <g id="text_26">
      <!-- 10 -->
      <g transform="translate(37.875 199.815129)scale(0.1 -0.1)">
       <use xlink:href="#DejaVuSans-49"/>
       <use x="63.623047" xlink:href="#DejaVuSans-48"/>
      </g>
     </g>
    </g>
    <g id="ytick_3">
     <g id="line2d_51">
      <path clip-path="url(#pa2bd482399)" d="M 57.6 138.290434 
L 414.72 138.290434 
" style="fill:none;stroke:#b0b0b0;stroke-dasharray:5.12,1.28,0.8,1.28;stroke-dashoffset:0;stroke-width:0.8;"/>
     </g>
     <g id="line2d_52">
      <g>
       <use style="stroke:#000000;stroke-width:0.8;" x="57.6" xlink:href="#m8ad4e71152" y="138.290434"/>
      </g>
     </g>
     <g id="text_27">
      <!-- 15 -->
      <g transform="translate(37.875 142.089653)scale(0.1 -0.1)">
       <use xlink:href="#DejaVuSans-49"/>
       <use x="63.623047" xlink:href="#DejaVuSans-53"/>
      </g>
     </g>
    </g>
    <g id="ytick_4">
     <g id="line2d_53">
      <path clip-path="url(#pa2bd482399)" d="M 57.6 80.564958 
L 414.72 80.564958 
" style="fill:none;stroke:#b0b0b0;stroke-dasharray:5.12,1.28,0.8,1.28;stroke-dashoffset:0;stroke-width:0.8;"/>
     </g>
     <g id="line2d_54">
      <g>
       <use style="stroke:#000000;stroke-width:0.8;" x="57.6" xlink:href="#m8ad4e71152" y="80.564958"/>
      </g>
     </g>
     <g id="text_28">
      <!-- 20 -->
      <g transform="translate(37.875 84.364177)scale(0.1 -0.1)">
       <use xlink:href="#DejaVuSans-50"/>
       <use x="63.623047" xlink:href="#DejaVuSans-48"/>
      </g>
     </g>
    </g>
    <g id="text_29">
     <!-- speed up -->
     <g transform="translate(31.795312 197.566281)rotate(-90)scale(0.1 -0.1)">
      <defs>
       <path d="M 18.109375 8.203125 
L 18.109375 -20.796875 
L 9.078125 -20.796875 
L 9.078125 54.6875 
L 18.109375 54.6875 
L 18.109375 46.390625 
Q 20.953125 51.265625 25.265625 53.625 
Q 29.59375 56 35.59375 56 
Q 45.5625 56 51.78125 48.09375 
Q 58.015625 40.1875 58.015625 27.296875 
Q 58.015625 14.40625 51.78125 6.484375 
Q 45.5625 -1.421875 35.59375 -1.421875 
Q 29.59375 -1.421875 25.265625 0.953125 
Q 20.953125 3.328125 18.109375 8.203125 
z
M 48.6875 27.296875 
Q 48.6875 37.203125 44.609375 42.84375 
Q 40.53125 48.484375 33.40625 48.484375 
Q 26.265625 48.484375 22.1875 42.84375 
Q 18.109375 37.203125 18.109375 27.296875 
Q 18.109375 17.390625 22.1875 11.75 
Q 26.265625 6.109375 33.40625 6.109375 
Q 40.53125 6.109375 44.609375 11.75 
Q 48.6875 17.390625 48.6875 27.296875 
z
" id="DejaVuSans-112"/>
       <path id="DejaVuSans-32"/>
       <path d="M 8.5 21.578125 
L 8.5 54.6875 
L 17.484375 54.6875 
L 17.484375 21.921875 
Q 17.484375 14.15625 20.5 10.265625 
Q 23.53125 6.390625 29.59375 6.390625 
Q 36.859375 6.390625 41.078125 11.03125 
Q 45.3125 15.671875 45.3125 23.6875 
L 45.3125 54.6875 
L 54.296875 54.6875 
L 54.296875 0 
L 45.3125 0 
L 45.3125 8.40625 
Q 42.046875 3.421875 37.71875 1 
Q 33.40625 -1.421875 27.6875 -1.421875 
Q 18.265625 -1.421875 13.375 4.4375 
Q 8.5 10.296875 8.5 21.578125 
z
M 31.109375 56 
z
" id="DejaVuSans-117"/>
      </defs>
      <use xlink:href="#DejaVuSans-115"/>
      <use x="52.099609" xlink:href="#DejaVuSans-112"/>
      <use x="115.576172" xlink:href="#DejaVuSans-101"/>
      <use x="177.099609" xlink:href="#DejaVuSans-101"/>
      <use x="238.623047" xlink:href="#DejaVuSans-100"/>
      <use x="302.099609" xlink:href="#DejaVuSans-32"/>
      <use x="333.886719" xlink:href="#DejaVuSans-117"/>
      <use x="397.265625" xlink:href="#DejaVuSans-112"/>
     </g>
    </g>
   </g>
   <g id="line2d_55">
    <path clip-path="url(#pa2bd482399)" d="M 61.612584 288.336847 
L 65.625169 273.173523 
L 69.637753 251.355705 
L 73.650337 237.504251 
L 77.662921 223.91168 
L 81.675506 210.818952 
L 85.68809 201.740215 
L 89.700674 192.761533 
L 93.713258 183.972886 
L 97.725843 171.809219 
L 101.738427 167.462436 
L 105.751011 155.298303 
L 109.763596 154.135097 
L 113.77618 146.750944 
L 117.788764 149.303671 
L 121.801348 139.474664 
L 125.813933 139.415747 
L 129.826517 138.533737 
L 133.839101 138.923197 
L 137.851685 148.396915 
L 141.86427 138.613092 
L 145.876854 137.220507 
L 149.889438 141.505253 
L 153.902022 142.224324 
L 157.914607 143.288465 
L 161.927191 140.398933 
L 165.939775 155.524579 
L 169.95236 156.439119 
L 173.964944 156.730993 
L 177.977528 152.037562 
L 181.990112 159.911208 
L 186.002697 164.618089 
L 190.015281 165.155195 
L 194.027865 151.84615 
L 198.040449 166.236374 
L 202.053034 168.76264 
L 206.065618 172.726524 
L 210.078202 170.844714 
L 214.090787 163.226317 
L 218.103371 168.834685 
L 222.115955 171.722869 
L 226.128539 167.563292 
L 230.141124 171.753104 
L 234.153708 168.378674 
L 238.166292 169.122142 
L 242.178876 175.734377 
L 246.191461 179.247986 
L 250.204045 170.752787 
L 254.216629 171.917006 
L 258.229213 171.541187 
L 262.241798 181.62172 
L 266.254382 187.43616 
L 270.266966 182.086275 
L 274.279551 179.955779 
L 278.292135 184.869121 
L 282.304719 179.460352 
L 286.317303 187.687489 
L 290.329888 179.460352 
L 294.342472 186.9613 
L 298.355056 177.488412 
L 302.36764 180.84881 
L 306.380225 181.071116 
L 310.392809 183.547148 
L 314.405393 192.536665 
L 318.417978 190.061148 
L 322.430562 266.135131 
L 326.443146 198.532796 
L 330.45573 206.842422 
L 334.468315 205.723928 
L 338.480899 201.974106 
L 342.493483 205.096876 
L 346.506067 203.240297 
L 350.518652 204.272029 
L 354.531236 203.359361 
L 358.54382 206.743043 
L 362.556404 206.394945 
L 366.568989 205.756076 
L 370.581573 204.571151 
L 374.594157 204.614107 
L 378.606742 210.384572 
L 382.619326 210.158027 
L 386.63191 218.559826 
L 390.644494 212.963944 
L 394.657079 209.313214 
L 398.669663 239.025013 
L 402.682247 206.813355 
L 406.694831 213.365839 
L 410.707416 264.844214 
" style="fill:none;stroke:#0000ff;stroke-dasharray:1.5,2.475;stroke-dashoffset:0;stroke-width:1.5;"/>
    <defs>
     <path d="M 0 1.5 
C 0.397805 1.5 0.77937 1.341951 1.06066 1.06066 
C 1.341951 0.77937 1.5 0.397805 1.5 0 
C 1.5 -0.397805 1.341951 -0.77937 1.06066 -1.06066 
C 0.77937 -1.341951 0.397805 -1.5 0 -1.5 
C -0.397805 -1.5 -0.77937 -1.341951 -1.06066 -1.06066 
C -1.341951 -0.77937 -1.5 -0.397805 -1.5 0 
C -1.5 0.397805 -1.341951 0.77937 -1.06066 1.06066 
C -0.77937 1.341951 -0.397805 1.5 0 1.5 
z
" id="mc195526a8c" style="stroke:#0000ff;"/>
    </defs>
    <g clip-path="url(#pa2bd482399)">
     <use style="fill:#0000ff;stroke:#0000ff;" x="61.612584" xlink:href="#mc195526a8c" y="288.336847"/>
     <use style="fill:#0000ff;stroke:#0000ff;" x="65.625169" xlink:href="#mc195526a8c" y="273.173523"/>
     <use style="fill:#0000ff;stroke:#0000ff;" x="69.637753" xlink:href="#mc195526a8c" y="251.355705"/>
     <use style="fill:#0000ff;stroke:#0000ff;" x="73.650337" xlink:href="#mc195526a8c" y="237.504251"/>
     <use style="fill:#0000ff;stroke:#0000ff;" x="77.662921" xlink:href="#mc195526a8c" y="223.91168"/>
     <use style="fill:#0000ff;stroke:#0000ff;" x="81.675506" xlink:href="#mc195526a8c" y="210.818952"/>
     <use style="fill:#0000ff;stroke:#0000ff;" x="85.68809" xlink:href="#mc195526a8c" y="201.740215"/>
     <use style="fill:#0000ff;stroke:#0000ff;" x="89.700674" xlink:href="#mc195526a8c" y="192.761533"/>
     <use style="fill:#0000ff;stroke:#0000ff;" x="93.713258" xlink:href="#mc195526a8c" y="183.972886"/>
     <use style="fill:#0000ff;stroke:#0000ff;" x="97.725843" xlink:href="#mc195526a8c" y="171.809219"/>
     <use style="fill:#0000ff;stroke:#0000ff;" x="101.738427" xlink:href="#mc195526a8c" y="167.462436"/>
     <use style="fill:#0000ff;stroke:#0000ff;" x="105.751011" xlink:href="#mc195526a8c" y="155.298303"/>
     <use style="fill:#0000ff;stroke:#0000ff;" x="109.763596" xlink:href="#mc195526a8c" y="154.135097"/>
     <use style="fill:#0000ff;stroke:#0000ff;" x="113.77618" xlink:href="#mc195526a8c" y="146.750944"/>
     <use style="fill:#0000ff;stroke:#0000ff;" x="117.788764" xlink:href="#mc195526a8c" y="149.303671"/>
     <use style="fill:#0000ff;stroke:#0000ff;" x="121.801348" xlink:href="#mc195526a8c" y="139.474664"/>
     <use style="fill:#0000ff;stroke:#0000ff;" x="125.813933" xlink:href="#mc195526a8c" y="139.415747"/>
     <use style="fill:#0000ff;stroke:#0000ff;" x="129.826517" xlink:href="#mc195526a8c" y="138.533737"/>
     <use style="fill:#0000ff;stroke:#0000ff;" x="133.839101" xlink:href="#mc195526a8c" y="138.923197"/>
     <use style="fill:#0000ff;stroke:#0000ff;" x="137.851685" xlink:href="#mc195526a8c" y="148.396915"/>
     <use style="fill:#0000ff;stroke:#0000ff;" x="141.86427" xlink:href="#mc195526a8c" y="138.613092"/>
     <use style="fill:#0000ff;stroke:#0000ff;" x="145.876854" xlink:href="#mc195526a8c" y="137.220507"/>
     <use style="fill:#0000ff;stroke:#0000ff;" x="149.889438" xlink:href="#mc195526a8c" y="141.505253"/>
     <use style="fill:#0000ff;stroke:#0000ff;" x="153.902022" xlink:href="#mc195526a8c" y="142.224324"/>
     <use style="fill:#0000ff;stroke:#0000ff;" x="157.914607" xlink:href="#mc195526a8c" y="143.288465"/>
     <use style="fill:#0000ff;stroke:#0000ff;" x="161.927191" xlink:href="#mc195526a8c" y="140.398933"/>
     <use style="fill:#0000ff;stroke:#0000ff;" x="165.939775" xlink:href="#mc195526a8c" y="155.524579"/>
     <use style="fill:#0000ff;stroke:#0000ff;" x="169.95236" xlink:href="#mc195526a8c" y="156.439119"/>
     <use style="fill:#0000ff;stroke:#0000ff;" x="173.964944" xlink:href="#mc195526a8c" y="156.730993"/>
     <use style="fill:#0000ff;stroke:#0000ff;" x="177.977528" xlink:href="#mc195526a8c" y="152.037562"/>
     <use style="fill:#0000ff;stroke:#0000ff;" x="181.990112" xlink:href="#mc195526a8c" y="159.911208"/>
     <use style="fill:#0000ff;stroke:#0000ff;" x="186.002697" xlink:href="#mc195526a8c" y="164.618089"/>
     <use style="fill:#0000ff;stroke:#0000ff;" x="190.015281" xlink:href="#mc195526a8c" y="165.155195"/>
     <use style="fill:#0000ff;stroke:#0000ff;" x="194.027865" xlink:href="#mc195526a8c" y="151.84615"/>
     <use style="fill:#0000ff;stroke:#0000ff;" x="198.040449" xlink:href="#mc195526a8c" y="166.236374"/>
     <use style="fill:#0000ff;stroke:#0000ff;" x="202.053034" xlink:href="#mc195526a8c" y="168.76264"/>
     <use style="fill:#0000ff;stroke:#0000ff;" x="206.065618" xlink:href="#mc195526a8c" y="172.726524"/>
     <use style="fill:#0000ff;stroke:#0000ff;" x="210.078202" xlink:href="#mc195526a8c" y="170.844714"/>
     <use style="fill:#0000ff;stroke:#0000ff;" x="214.090787" xlink:href="#mc195526a8c" y="163.226317"/>
     <use style="fill:#0000ff;stroke:#0000ff;" x="218.103371" xlink:href="#mc195526a8c" y="168.834685"/>
     <use style="fill:#0000ff;stroke:#0000ff;" x="222.115955" xlink:href="#mc195526a8c" y="171.722869"/>
     <use style="fill:#0000ff;stroke:#0000ff;" x="226.128539" xlink:href="#mc195526a8c" y="167.563292"/>
     <use style="fill:#0000ff;stroke:#0000ff;" x="230.141124" xlink:href="#mc195526a8c" y="171.753104"/>
     <use style="fill:#0000ff;stroke:#0000ff;" x="234.153708" xlink:href="#mc195526a8c" y="168.378674"/>
     <use style="fill:#0000ff;stroke:#0000ff;" x="238.166292" xlink:href="#mc195526a8c" y="169.122142"/>
     <use style="fill:#0000ff;stroke:#0000ff;" x="242.178876" xlink:href="#mc195526a8c" y="175.734377"/>
     <use style="fill:#0000ff;stroke:#0000ff;" x="246.191461" xlink:href="#mc195526a8c" y="179.247986"/>
     <use style="fill:#0000ff;stroke:#0000ff;" x="250.204045" xlink:href="#mc195526a8c" y="170.752787"/>
     <use style="fill:#0000ff;stroke:#0000ff;" x="254.216629" xlink:href="#mc195526a8c" y="171.917006"/>
     <use style="fill:#0000ff;stroke:#0000ff;" x="258.229213" xlink:href="#mc195526a8c" y="171.541187"/>
     <use style="fill:#0000ff;stroke:#0000ff;" x="262.241798" xlink:href="#mc195526a8c" y="181.62172"/>
     <use style="fill:#0000ff;stroke:#0000ff;" x="266.254382" xlink:href="#mc195526a8c" y="187.43616"/>
     <use style="fill:#0000ff;stroke:#0000ff;" x="270.266966" xlink:href="#mc195526a8c" y="182.086275"/>
     <use style="fill:#0000ff;stroke:#0000ff;" x="274.279551" xlink:href="#mc195526a8c" y="179.955779"/>
     <use style="fill:#0000ff;stroke:#0000ff;" x="278.292135" xlink:href="#mc195526a8c" y="184.869121"/>
     <use style="fill:#0000ff;stroke:#0000ff;" x="282.304719" xlink:href="#mc195526a8c" y="179.460352"/>
     <use style="fill:#0000ff;stroke:#0000ff;" x="286.317303" xlink:href="#mc195526a8c" y="187.687489"/>
     <use style="fill:#0000ff;stroke:#0000ff;" x="290.329888" xlink:href="#mc195526a8c" y="179.460352"/>
     <use style="fill:#0000ff;stroke:#0000ff;" x="294.342472" xlink:href="#mc195526a8c" y="186.9613"/>
     <use style="fill:#0000ff;stroke:#0000ff;" x="298.355056" xlink:href="#mc195526a8c" y="177.488412"/>
     <use style="fill:#0000ff;stroke:#0000ff;" x="302.36764" xlink:href="#mc195526a8c" y="180.84881"/>
     <use style="fill:#0000ff;stroke:#0000ff;" x="306.380225" xlink:href="#mc195526a8c" y="181.071116"/>
     <use style="fill:#0000ff;stroke:#0000ff;" x="310.392809" xlink:href="#mc195526a8c" y="183.547148"/>
     <use style="fill:#0000ff;stroke:#0000ff;" x="314.405393" xlink:href="#mc195526a8c" y="192.536665"/>
     <use style="fill:#0000ff;stroke:#0000ff;" x="318.417978" xlink:href="#mc195526a8c" y="190.061148"/>
     <use style="fill:#0000ff;stroke:#0000ff;" x="322.430562" xlink:href="#mc195526a8c" y="266.135131"/>
     <use style="fill:#0000ff;stroke:#0000ff;" x="326.443146" xlink:href="#mc195526a8c" y="198.532796"/>
     <use style="fill:#0000ff;stroke:#0000ff;" x="330.45573" xlink:href="#mc195526a8c" y="206.842422"/>
     <use style="fill:#0000ff;stroke:#0000ff;" x="334.468315" xlink:href="#mc195526a8c" y="205.723928"/>
     <use style="fill:#0000ff;stroke:#0000ff;" x="338.480899" xlink:href="#mc195526a8c" y="201.974106"/>
     <use style="fill:#0000ff;stroke:#0000ff;" x="342.493483" xlink:href="#mc195526a8c" y="205.096876"/>
     <use style="fill:#0000ff;stroke:#0000ff;" x="346.506067" xlink:href="#mc195526a8c" y="203.240297"/>
     <use style="fill:#0000ff;stroke:#0000ff;" x="350.518652" xlink:href="#mc195526a8c" y="204.272029"/>
     <use style="fill:#0000ff;stroke:#0000ff;" x="354.531236" xlink:href="#mc195526a8c" y="203.359361"/>
     <use style="fill:#0000ff;stroke:#0000ff;" x="358.54382" xlink:href="#mc195526a8c" y="206.743043"/>
     <use style="fill:#0000ff;stroke:#0000ff;" x="362.556404" xlink:href="#mc195526a8c" y="206.394945"/>
     <use style="fill:#0000ff;stroke:#0000ff;" x="366.568989" xlink:href="#mc195526a8c" y="205.756076"/>
     <use style="fill:#0000ff;stroke:#0000ff;" x="370.581573" xlink:href="#mc195526a8c" y="204.571151"/>
     <use style="fill:#0000ff;stroke:#0000ff;" x="374.594157" xlink:href="#mc195526a8c" y="204.614107"/>
     <use style="fill:#0000ff;stroke:#0000ff;" x="378.606742" xlink:href="#mc195526a8c" y="210.384572"/>
     <use style="fill:#0000ff;stroke:#0000ff;" x="382.619326" xlink:href="#mc195526a8c" y="210.158027"/>
     <use style="fill:#0000ff;stroke:#0000ff;" x="386.63191" xlink:href="#mc195526a8c" y="218.559826"/>
     <use style="fill:#0000ff;stroke:#0000ff;" x="390.644494" xlink:href="#mc195526a8c" y="212.963944"/>
     <use style="fill:#0000ff;stroke:#0000ff;" x="394.657079" xlink:href="#mc195526a8c" y="209.313214"/>
     <use style="fill:#0000ff;stroke:#0000ff;" x="398.669663" xlink:href="#mc195526a8c" y="239.025013"/>
     <use style="fill:#0000ff;stroke:#0000ff;" x="402.682247" xlink:href="#mc195526a8c" y="206.813355"/>
     <use style="fill:#0000ff;stroke:#0000ff;" x="406.694831" xlink:href="#mc195526a8c" y="213.365839"/>
     <use style="fill:#0000ff;stroke:#0000ff;" x="410.707416" xlink:href="#mc195526a8c" y="264.844214"/>
    </g>
   </g>
   <g id="line2d_56">
    <path clip-path="url(#pa2bd482399)" d="M 61.612584 295.488 
L 65.625169 281.77868 
L 69.637753 269.334006 
L 73.650337 256.404085 
L 77.662921 245.850225 
L 81.675506 231.519286 
L 85.68809 221.524635 
L 89.700674 213.552905 
L 93.713258 200.737949 
L 97.725843 196.767547 
L 101.738427 182.74811 
L 105.751011 178.852306 
L 109.763596 170.796413 
L 113.77618 158.655749 
L 117.788764 147.724808 
L 121.801348 137.993602 
L 125.813933 132.857419 
L 129.826517 128.898877 
L 133.839101 125.389157 
L 137.851685 121.621228 
L 141.86427 111.849109 
L 145.876854 96.92636 
L 149.889438 102.166941 
L 153.902022 98.593437 
L 157.914607 102.657242 
L 161.927191 111.092296 
L 165.939775 102.196277 
L 169.95236 102.562289 
L 173.964944 110.755589 
L 177.977528 92.914423 
L 181.990112 96.733512 
L 186.002697 109.41104 
L 190.015281 107.150614 
L 194.027865 94.809364 
L 198.040449 84.12041 
L 202.053034 75.729752 
L 206.065618 77.695228 
L 210.078202 84.595416 
L 214.090787 75.328949 
L 218.103371 79.375927 
L 222.115955 53.568 
L 226.128539 58.237387 
L 230.141124 72.72355 
L 234.153708 68.399546 
L 238.166292 77.887233 
L 242.178876 83.504272 
L 246.191461 96.416488 
L 250.204045 118.317964 
L 254.216629 125.464497 
L 258.229213 87.20235 
L 262.241798 104.085657 
L 266.254382 101.799542 
L 270.266966 101.453009 
L 274.279551 112.580358 
L 278.292135 124.609006 
L 282.304719 118.086558 
L 286.317303 125.238294 
L 290.329888 109.068653 
L 294.342472 129.643689 
L 298.355056 110.64085 
L 302.36764 117.615786 
L 306.380225 124.585617 
L 310.392809 131.912311 
L 314.405393 118.791551 
L 318.417978 106.975715 
L 322.430562 131.044399 
L 326.443146 150.50077 
L 330.45573 111.708895 
L 334.468315 130.79332 
L 338.480899 147.518035 
L 342.493483 274.910353 
L 346.506067 127.07252 
L 350.518652 154.791173 
L 354.531236 152.285564 
L 358.54382 153.956472 
L 362.556404 148.795222 
L 366.568989 136.217025 
L 370.581573 145.125221 
L 374.594157 140.285827 
L 378.606742 139.62581 
L 382.619326 142.302916 
L 386.63191 149.720419 
L 390.644494 133.017526 
L 394.657079 140.716521 
L 398.669663 132.407589 
L 402.682247 135.680557 
L 406.694831 145.628699 
L 410.707416 143.478228 
" style="fill:none;stroke:#ff0000;stroke-dasharray:1.5,2.475;stroke-dashoffset:0;stroke-width:1.5;"/>
    <defs>
     <path d="M 0 1.5 
C 0.397805 1.5 0.77937 1.341951 1.06066 1.06066 
C 1.341951 0.77937 1.5 0.397805 1.5 0 
C 1.5 -0.397805 1.341951 -0.77937 1.06066 -1.06066 
C 0.77937 -1.341951 0.397805 -1.5 0 -1.5 
C -0.397805 -1.5 -0.77937 -1.341951 -1.06066 -1.06066 
C -1.341951 -0.77937 -1.5 -0.397805 -1.5 0 
C -1.5 0.397805 -1.341951 0.77937 -1.06066 1.06066 
C -0.77937 1.341951 -0.397805 1.5 0 1.5 
z
" id="m2d3caf253c" style="stroke:#ff0000;"/>
    </defs>
    <g clip-path="url(#pa2bd482399)">
     <use style="fill:#ff0000;stroke:#ff0000;" x="61.612584" xlink:href="#m2d3caf253c" y="295.488"/>
     <use style="fill:#ff0000;stroke:#ff0000;" x="65.625169" xlink:href="#m2d3caf253c" y="281.77868"/>
     <use style="fill:#ff0000;stroke:#ff0000;" x="69.637753" xlink:href="#m2d3caf253c" y="269.334006"/>
     <use style="fill:#ff0000;stroke:#ff0000;" x="73.650337" xlink:href="#m2d3caf253c" y="256.404085"/>
     <use style="fill:#ff0000;stroke:#ff0000;" x="77.662921" xlink:href="#m2d3caf253c" y="245.850225"/>
     <use style="fill:#ff0000;stroke:#ff0000;" x="81.675506" xlink:href="#m2d3caf253c" y="231.519286"/>
     <use style="fill:#ff0000;stroke:#ff0000;" x="85.68809" xlink:href="#m2d3caf253c" y="221.524635"/>
     <use style="fill:#ff0000;stroke:#ff0000;" x="89.700674" xlink:href="#m2d3caf253c" y="213.552905"/>
     <use style="fill:#ff0000;stroke:#ff0000;" x="93.713258" xlink:href="#m2d3caf253c" y="200.737949"/>
     <use style="fill:#ff0000;stroke:#ff0000;" x="97.725843" xlink:href="#m2d3caf253c" y="196.767547"/>
     <use style="fill:#ff0000;stroke:#ff0000;" x="101.738427" xlink:href="#m2d3caf253c" y="182.74811"/>
     <use style="fill:#ff0000;stroke:#ff0000;" x="105.751011" xlink:href="#m2d3caf253c" y="178.852306"/>
     <use style="fill:#ff0000;stroke:#ff0000;" x="109.763596" xlink:href="#m2d3caf253c" y="170.796413"/>
     <use style="fill:#ff0000;stroke:#ff0000;" x="113.77618" xlink:href="#m2d3caf253c" y="158.655749"/>
     <use style="fill:#ff0000;stroke:#ff0000;" x="117.788764" xlink:href="#m2d3caf253c" y="147.724808"/>
     <use style="fill:#ff0000;stroke:#ff0000;" x="121.801348" xlink:href="#m2d3caf253c" y="137.993602"/>
     <use style="fill:#ff0000;stroke:#ff0000;" x="125.813933" xlink:href="#m2d3caf253c" y="132.857419"/>
     <use style="fill:#ff0000;stroke:#ff0000;" x="129.826517" xlink:href="#m2d3caf253c" y="128.898877"/>
     <use style="fill:#ff0000;stroke:#ff0000;" x="133.839101" xlink:href="#m2d3caf253c" y="125.389157"/>
     <use style="fill:#ff0000;stroke:#ff0000;" x="137.851685" xlink:href="#m2d3caf253c" y="121.621228"/>
     <use style="fill:#ff0000;stroke:#ff0000;" x="141.86427" xlink:href="#m2d3caf253c" y="111.849109"/>
     <use style="fill:#ff0000;stroke:#ff0000;" x="145.876854" xlink:href="#m2d3caf253c" y="96.92636"/>
     <use style="fill:#ff0000;stroke:#ff0000;" x="149.889438" xlink:href="#m2d3caf253c" y="102.166941"/>
     <use style="fill:#ff0000;stroke:#ff0000;" x="153.902022" xlink:href="#m2d3caf253c" y="98.593437"/>
     <use style="fill:#ff0000;stroke:#ff0000;" x="157.914607" xlink:href="#m2d3caf253c" y="102.657242"/>
     <use style="fill:#ff0000;stroke:#ff0000;" x="161.927191" xlink:href="#m2d3caf253c" y="111.092296"/>
     <use style="fill:#ff0000;stroke:#ff0000;" x="165.939775" xlink:href="#m2d3caf253c" y="102.196277"/>
     <use style="fill:#ff0000;stroke:#ff0000;" x="169.95236" xlink:href="#m2d3caf253c" y="102.562289"/>
     <use style="fill:#ff0000;stroke:#ff0000;" x="173.964944" xlink:href="#m2d3caf253c" y="110.755589"/>
     <use style="fill:#ff0000;stroke:#ff0000;" x="177.977528" xlink:href="#m2d3caf253c" y="92.914423"/>
     <use style="fill:#ff0000;stroke:#ff0000;" x="181.990112" xlink:href="#m2d3caf253c" y="96.733512"/>
     <use style="fill:#ff0000;stroke:#ff0000;" x="186.002697" xlink:href="#m2d3caf253c" y="109.41104"/>
     <use style="fill:#ff0000;stroke:#ff0000;" x="190.015281" xlink:href="#m2d3caf253c" y="107.150614"/>
     <use style="fill:#ff0000;stroke:#ff0000;" x="194.027865" xlink:href="#m2d3caf253c" y="94.809364"/>
     <use style="fill:#ff0000;stroke:#ff0000;" x="198.040449" xlink:href="#m2d3caf253c" y="84.12041"/>
     <use style="fill:#ff0000;stroke:#ff0000;" x="202.053034" xlink:href="#m2d3caf253c" y="75.729752"/>
     <use style="fill:#ff0000;stroke:#ff0000;" x="206.065618" xlink:href="#m2d3caf253c" y="77.695228"/>
     <use style="fill:#ff0000;stroke:#ff0000;" x="210.078202" xlink:href="#m2d3caf253c" y="84.595416"/>
     <use style="fill:#ff0000;stroke:#ff0000;" x="214.090787" xlink:href="#m2d3caf253c" y="75.328949"/>
     <use style="fill:#ff0000;stroke:#ff0000;" x="218.103371" xlink:href="#m2d3caf253c" y="79.375927"/>
     <use style="fill:#ff0000;stroke:#ff0000;" x="222.115955" xlink:href="#m2d3caf253c" y="53.568"/>
     <use style="fill:#ff0000;stroke:#ff0000;" x="226.128539" xlink:href="#m2d3caf253c" y="58.237387"/>
     <use style="fill:#ff0000;stroke:#ff0000;" x="230.141124" xlink:href="#m2d3caf253c" y="72.72355"/>
     <use style="fill:#ff0000;stroke:#ff0000;" x="234.153708" xlink:href="#m2d3caf253c" y="68.399546"/>
     <use style="fill:#ff0000;stroke:#ff0000;" x="238.166292" xlink:href="#m2d3caf253c" y="77.887233"/>
     <use style="fill:#ff0000;stroke:#ff0000;" x="242.178876" xlink:href="#m2d3caf253c" y="83.504272"/>
     <use style="fill:#ff0000;stroke:#ff0000;" x="246.191461" xlink:href="#m2d3caf253c" y="96.416488"/>
     <use style="fill:#ff0000;stroke:#ff0000;" x="250.204045" xlink:href="#m2d3caf253c" y="118.317964"/>
     <use style="fill:#ff0000;stroke:#ff0000;" x="254.216629" xlink:href="#m2d3caf253c" y="125.464497"/>
     <use style="fill:#ff0000;stroke:#ff0000;" x="258.229213" xlink:href="#m2d3caf253c" y="87.20235"/>
     <use style="fill:#ff0000;stroke:#ff0000;" x="262.241798" xlink:href="#m2d3caf253c" y="104.085657"/>
     <use style="fill:#ff0000;stroke:#ff0000;" x="266.254382" xlink:href="#m2d3caf253c" y="101.799542"/>
     <use style="fill:#ff0000;stroke:#ff0000;" x="270.266966" xlink:href="#m2d3caf253c" y="101.453009"/>
     <use style="fill:#ff0000;stroke:#ff0000;" x="274.279551" xlink:href="#m2d3caf253c" y="112.580358"/>
     <use style="fill:#ff0000;stroke:#ff0000;" x="278.292135" xlink:href="#m2d3caf253c" y="124.609006"/>
     <use style="fill:#ff0000;stroke:#ff0000;" x="282.304719" xlink:href="#m2d3caf253c" y="118.086558"/>
     <use style="fill:#ff0000;stroke:#ff0000;" x="286.317303" xlink:href="#m2d3caf253c" y="125.238294"/>
     <use style="fill:#ff0000;stroke:#ff0000;" x="290.329888" xlink:href="#m2d3caf253c" y="109.068653"/>
     <use style="fill:#ff0000;stroke:#ff0000;" x="294.342472" xlink:href="#m2d3caf253c" y="129.643689"/>
     <use style="fill:#ff0000;stroke:#ff0000;" x="298.355056" xlink:href="#m2d3caf253c" y="110.64085"/>
     <use style="fill:#ff0000;stroke:#ff0000;" x="302.36764" xlink:href="#m2d3caf253c" y="117.615786"/>
     <use style="fill:#ff0000;stroke:#ff0000;" x="306.380225" xlink:href="#m2d3caf253c" y="124.585617"/>
     <use style="fill:#ff0000;stroke:#ff0000;" x="310.392809" xlink:href="#m2d3caf253c" y="131.912311"/>
     <use style="fill:#ff0000;stroke:#ff0000;" x="314.405393" xlink:href="#m2d3caf253c" y="118.791551"/>
     <use style="fill:#ff0000;stroke:#ff0000;" x="318.417978" xlink:href="#m2d3caf253c" y="106.975715"/>
     <use style="fill:#ff0000;stroke:#ff0000;" x="322.430562" xlink:href="#m2d3caf253c" y="131.044399"/>
     <use style="fill:#ff0000;stroke:#ff0000;" x="326.443146" xlink:href="#m2d3caf253c" y="150.50077"/>
     <use style="fill:#ff0000;stroke:#ff0000;" x="330.45573" xlink:href="#m2d3caf253c" y="111.708895"/>
     <use style="fill:#ff0000;stroke:#ff0000;" x="334.468315" xlink:href="#m2d3caf253c" y="130.79332"/>
     <use style="fill:#ff0000;stroke:#ff0000;" x="338.480899" xlink:href="#m2d3caf253c" y="147.518035"/>
     <use style="fill:#ff0000;stroke:#ff0000;" x="342.493483" xlink:href="#m2d3caf253c" y="274.910353"/>
     <use style="fill:#ff0000;stroke:#ff0000;" x="346.506067" xlink:href="#m2d3caf253c" y="127.07252"/>
     <use style="fill:#ff0000;stroke:#ff0000;" x="350.518652" xlink:href="#m2d3caf253c" y="154.791173"/>
     <use style="fill:#ff0000;stroke:#ff0000;" x="354.531236" xlink:href="#m2d3caf253c" y="152.285564"/>
     <use style="fill:#ff0000;stroke:#ff0000;" x="358.54382" xlink:href="#m2d3caf253c" y="153.956472"/>
     <use style="fill:#ff0000;stroke:#ff0000;" x="362.556404" xlink:href="#m2d3caf253c" y="148.795222"/>
     <use style="fill:#ff0000;stroke:#ff0000;" x="366.568989" xlink:href="#m2d3caf253c" y="136.217025"/>
     <use style="fill:#ff0000;stroke:#ff0000;" x="370.581573" xlink:href="#m2d3caf253c" y="145.125221"/>
     <use style="fill:#ff0000;stroke:#ff0000;" x="374.594157" xlink:href="#m2d3caf253c" y="140.285827"/>
     <use style="fill:#ff0000;stroke:#ff0000;" x="378.606742" xlink:href="#m2d3caf253c" y="139.62581"/>
     <use style="fill:#ff0000;stroke:#ff0000;" x="382.619326" xlink:href="#m2d3caf253c" y="142.302916"/>
     <use style="fill:#ff0000;stroke:#ff0000;" x="386.63191" xlink:href="#m2d3caf253c" y="149.720419"/>
     <use style="fill:#ff0000;stroke:#ff0000;" x="390.644494" xlink:href="#m2d3caf253c" y="133.017526"/>
     <use style="fill:#ff0000;stroke:#ff0000;" x="394.657079" xlink:href="#m2d3caf253c" y="140.716521"/>
     <use style="fill:#ff0000;stroke:#ff0000;" x="398.669663" xlink:href="#m2d3caf253c" y="132.407589"/>
     <use style="fill:#ff0000;stroke:#ff0000;" x="402.682247" xlink:href="#m2d3caf253c" y="135.680557"/>
     <use style="fill:#ff0000;stroke:#ff0000;" x="406.694831" xlink:href="#m2d3caf253c" y="145.628699"/>
     <use style="fill:#ff0000;stroke:#ff0000;" x="410.707416" xlink:href="#m2d3caf253c" y="143.478228"/>
    </g>
   </g>
   <g id="line2d_57">
    <path clip-path="url(#pa2bd482399)" d="M 61.612584 291.912424 
L 65.625169 277.476102 
L 69.637753 260.344855 
L 73.650337 246.954168 
L 77.662921 234.880952 
L 81.675506 221.169119 
L 85.68809 211.632425 
L 89.700674 203.157219 
L 93.713258 192.355417 
L 97.725843 184.288383 
L 101.738427 175.105273 
L 105.751011 167.075304 
L 109.763596 162.465755 
L 113.77618 152.703346 
L 117.788764 148.51424 
L 121.801348 138.734133 
L 125.813933 136.136583 
L 129.826517 133.716307 
L 133.839101 132.156177 
L 137.851685 135.009072 
L 141.86427 125.2311 
L 145.876854 117.073434 
L 149.889438 121.836097 
L 153.902022 120.40888 
L 157.914607 122.972854 
L 161.927191 125.745615 
L 165.939775 128.860428 
L 169.95236 129.500704 
L 173.964944 133.743291 
L 177.977528 122.475993 
L 181.990112 128.32236 
L 186.002697 137.014564 
L 190.015281 136.152904 
L 194.027865 123.327757 
L 198.040449 125.178392 
L 202.053034 122.246196 
L 206.065618 125.210876 
L 210.078202 127.720065 
L 214.090787 119.277633 
L 218.103371 124.105306 
L 222.115955 112.645435 
L 226.128539 112.900339 
L 230.141124 122.238327 
L 234.153708 118.38911 
L 238.166292 123.504687 
L 242.178876 129.619324 
L 246.191461 137.832237 
L 250.204045 144.535375 
L 254.216629 148.690751 
L 258.229213 129.371769 
L 262.241798 142.853688 
L 266.254382 144.617851 
L 270.266966 141.769642 
L 274.279551 146.268069 
L 278.292135 154.739064 
L 282.304719 148.773455 
L 286.317303 156.462891 
L 290.329888 144.264502 
L 294.342472 158.302495 
L 298.355056 144.064631 
L 302.36764 149.232298 
L 306.380225 152.828367 
L 310.392809 157.729729 
L 314.405393 155.664108 
L 318.417978 148.518432 
L 322.430562 198.589765 
L 326.443146 174.516783 
L 330.45573 159.275659 
L 334.468315 168.258624 
L 338.480899 174.74607 
L 342.493483 240.003614 
L 346.506067 165.156409 
L 350.518652 179.531601 
L 354.531236 177.822463 
L 358.54382 180.349758 
L 362.556404 177.595083 
L 366.568989 170.986551 
L 370.581573 174.848186 
L 374.594157 172.449967 
L 378.606742 175.005191 
L 382.619326 176.230472 
L 386.63191 184.140122 
L 390.644494 172.990735 
L 394.657079 175.014867 
L 398.669663 185.716301 
L 402.682247 171.246956 
L 406.694831 179.497269 
L 410.707416 204.161221 
" style="fill:none;stroke:#008000;stroke-dasharray:1.5,2.475;stroke-dashoffset:0;stroke-width:1.5;"/>
    <defs>
     <path d="M 0 1.5 
C 0.397805 1.5 0.77937 1.341951 1.06066 1.06066 
C 1.341951 0.77937 1.5 0.397805 1.5 0 
C 1.5 -0.397805 1.341951 -0.77937 1.06066 -1.06066 
C 0.77937 -1.341951 0.397805 -1.5 0 -1.5 
C -0.397805 -1.5 -0.77937 -1.341951 -1.06066 -1.06066 
C -1.341951 -0.77937 -1.5 -0.397805 -1.5 0 
C -1.5 0.397805 -1.341951 0.77937 -1.06066 1.06066 
C -0.77937 1.341951 -0.397805 1.5 0 1.5 
z
" id="m8ed7e0e605" style="stroke:#008000;"/>
    </defs>
    <g clip-path="url(#pa2bd482399)">
     <use style="fill:#008000;stroke:#008000;" x="61.612584" xlink:href="#m8ed7e0e605" y="291.912424"/>
     <use style="fill:#008000;stroke:#008000;" x="65.625169" xlink:href="#m8ed7e0e605" y="277.476102"/>
     <use style="fill:#008000;stroke:#008000;" x="69.637753" xlink:href="#m8ed7e0e605" y="260.344855"/>
     <use style="fill:#008000;stroke:#008000;" x="73.650337" xlink:href="#m8ed7e0e605" y="246.954168"/>
     <use style="fill:#008000;stroke:#008000;" x="77.662921" xlink:href="#m8ed7e0e605" y="234.880952"/>
     <use style="fill:#008000;stroke:#008000;" x="81.675506" xlink:href="#m8ed7e0e605" y="221.169119"/>
     <use style="fill:#008000;stroke:#008000;" x="85.68809" xlink:href="#m8ed7e0e605" y="211.632425"/>
     <use style="fill:#008000;stroke:#008000;" x="89.700674" xlink:href="#m8ed7e0e605" y="203.157219"/>
     <use style="fill:#008000;stroke:#008000;" x="93.713258" xlink:href="#m8ed7e0e605" y="192.355417"/>
     <use style="fill:#008000;stroke:#008000;" x="97.725843" xlink:href="#m8ed7e0e605" y="184.288383"/>
     <use style="fill:#008000;stroke:#008000;" x="101.738427" xlink:href="#m8ed7e0e605" y="175.105273"/>
     <use style="fill:#008000;stroke:#008000;" x="105.751011" xlink:href="#m8ed7e0e605" y="167.075304"/>
     <use style="fill:#008000;stroke:#008000;" x="109.763596" xlink:href="#m8ed7e0e605" y="162.465755"/>
     <use style="fill:#008000;stroke:#008000;" x="113.77618" xlink:href="#m8ed7e0e605" y="152.703346"/>
     <use style="fill:#008000;stroke:#008000;" x="117.788764" xlink:href="#m8ed7e0e605" y="148.51424"/>
     <use style="fill:#008000;stroke:#008000;" x="121.801348" xlink:href="#m8ed7e0e605" y="138.734133"/>
     <use style="fill:#008000;stroke:#008000;" x="125.813933" xlink:href="#m8ed7e0e605" y="136.136583"/>
     <use style="fill:#008000;stroke:#008000;" x="129.826517" xlink:href="#m8ed7e0e605" y="133.716307"/>
     <use style="fill:#008000;stroke:#008000;" x="133.839101" xlink:href="#m8ed7e0e605" y="132.156177"/>
     <use style="fill:#008000;stroke:#008000;" x="137.851685" xlink:href="#m8ed7e0e605" y="135.009072"/>
     <use style="fill:#008000;stroke:#008000;" x="141.86427" xlink:href="#m8ed7e0e605" y="125.2311"/>
     <use style="fill:#008000;stroke:#008000;" x="145.876854" xlink:href="#m8ed7e0e605" y="117.073434"/>
     <use style="fill:#008000;stroke:#008000;" x="149.889438" xlink:href="#m8ed7e0e605" y="121.836097"/>
     <use style="fill:#008000;stroke:#008000;" x="153.902022" xlink:href="#m8ed7e0e605" y="120.40888"/>
     <use style="fill:#008000;stroke:#008000;" x="157.914607" xlink:href="#m8ed7e0e605" y="122.972854"/>
     <use style="fill:#008000;stroke:#008000;" x="161.927191" xlink:href="#m8ed7e0e605" y="125.745615"/>
     <use style="fill:#008000;stroke:#008000;" x="165.939775" xlink:href="#m8ed7e0e605" y="128.860428"/>
     <use style="fill:#008000;stroke:#008000;" x="169.95236" xlink:href="#m8ed7e0e605" y="129.500704"/>
     <use style="fill:#008000;stroke:#008000;" x="173.964944" xlink:href="#m8ed7e0e605" y="133.743291"/>
     <use style="fill:#008000;stroke:#008000;" x="177.977528" xlink:href="#m8ed7e0e605" y="122.475993"/>
     <use style="fill:#008000;stroke:#008000;" x="181.990112" xlink:href="#m8ed7e0e605" y="128.32236"/>
     <use style="fill:#008000;stroke:#008000;" x="186.002697" xlink:href="#m8ed7e0e605" y="137.014564"/>
     <use style="fill:#008000;stroke:#008000;" x="190.015281" xlink:href="#m8ed7e0e605" y="136.152904"/>
     <use style="fill:#008000;stroke:#008000;" x="194.027865" xlink:href="#m8ed7e0e605" y="123.327757"/>
     <use style="fill:#008000;stroke:#008000;" x="198.040449" xlink:href="#m8ed7e0e605" y="125.178392"/>
     <use style="fill:#008000;stroke:#008000;" x="202.053034" xlink:href="#m8ed7e0e605" y="122.246196"/>
     <use style="fill:#008000;stroke:#008000;" x="206.065618" xlink:href="#m8ed7e0e605" y="125.210876"/>
     <use style="fill:#008000;stroke:#008000;" x="210.078202" xlink:href="#m8ed7e0e605" y="127.720065"/>
     <use style="fill:#008000;stroke:#008000;" x="214.090787" xlink:href="#m8ed7e0e605" y="119.277633"/>
     <use style="fill:#008000;stroke:#008000;" x="218.103371" xlink:href="#m8ed7e0e605" y="124.105306"/>
     <use style="fill:#008000;stroke:#008000;" x="222.115955" xlink:href="#m8ed7e0e605" y="112.645435"/>
     <use style="fill:#008000;stroke:#008000;" x="226.128539" xlink:href="#m8ed7e0e605" y="112.900339"/>
     <use style="fill:#008000;stroke:#008000;" x="230.141124" xlink:href="#m8ed7e0e605" y="122.238327"/>
     <use style="fill:#008000;stroke:#008000;" x="234.153708" xlink:href="#m8ed7e0e605" y="118.38911"/>
     <use style="fill:#008000;stroke:#008000;" x="238.166292" xlink:href="#m8ed7e0e605" y="123.504687"/>
     <use style="fill:#008000;stroke:#008000;" x="242.178876" xlink:href="#m8ed7e0e605" y="129.619324"/>
     <use style="fill:#008000;stroke:#008000;" x="246.191461" xlink:href="#m8ed7e0e605" y="137.832237"/>
     <use style="fill:#008000;stroke:#008000;" x="250.204045" xlink:href="#m8ed7e0e605" y="144.535375"/>
     <use style="fill:#008000;stroke:#008000;" x="254.216629" xlink:href="#m8ed7e0e605" y="148.690751"/>
     <use style="fill:#008000;stroke:#008000;" x="258.229213" xlink:href="#m8ed7e0e605" y="129.371769"/>
     <use style="fill:#008000;stroke:#008000;" x="262.241798" xlink:href="#m8ed7e0e605" y="142.853688"/>
     <use style="fill:#008000;stroke:#008000;" x="266.254382" xlink:href="#m8ed7e0e605" y="144.617851"/>
     <use style="fill:#008000;stroke:#008000;" x="270.266966" xlink:href="#m8ed7e0e605" y="141.769642"/>
     <use style="fill:#008000;stroke:#008000;" x="274.279551" xlink:href="#m8ed7e0e605" y="146.268069"/>
     <use style="fill:#008000;stroke:#008000;" x="278.292135" xlink:href="#m8ed7e0e605" y="154.739064"/>
     <use style="fill:#008000;stroke:#008000;" x="282.304719" xlink:href="#m8ed7e0e605" y="148.773455"/>
     <use style="fill:#008000;stroke:#008000;" x="286.317303" xlink:href="#m8ed7e0e605" y="156.462891"/>
     <use style="fill:#008000;stroke:#008000;" x="290.329888" xlink:href="#m8ed7e0e605" y="144.264502"/>
     <use style="fill:#008000;stroke:#008000;" x="294.342472" xlink:href="#m8ed7e0e605" y="158.302495"/>
     <use style="fill:#008000;stroke:#008000;" x="298.355056" xlink:href="#m8ed7e0e605" y="144.064631"/>
     <use style="fill:#008000;stroke:#008000;" x="302.36764" xlink:href="#m8ed7e0e605" y="149.232298"/>
     <use style="fill:#008000;stroke:#008000;" x="306.380225" xlink:href="#m8ed7e0e605" y="152.828367"/>
     <use style="fill:#008000;stroke:#008000;" x="310.392809" xlink:href="#m8ed7e0e605" y="157.729729"/>
     <use style="fill:#008000;stroke:#008000;" x="314.405393" xlink:href="#m8ed7e0e605" y="155.664108"/>
     <use style="fill:#008000;stroke:#008000;" x="318.417978" xlink:href="#m8ed7e0e605" y="148.518432"/>
     <use style="fill:#008000;stroke:#008000;" x="322.430562" xlink:href="#m8ed7e0e605" y="198.589765"/>
     <use style="fill:#008000;stroke:#008000;" x="326.443146" xlink:href="#m8ed7e0e605" y="174.516783"/>
     <use style="fill:#008000;stroke:#008000;" x="330.45573" xlink:href="#m8ed7e0e605" y="159.275659"/>
     <use style="fill:#008000;stroke:#008000;" x="334.468315" xlink:href="#m8ed7e0e605" y="168.258624"/>
     <use style="fill:#008000;stroke:#008000;" x="338.480899" xlink:href="#m8ed7e0e605" y="174.74607"/>
     <use style="fill:#008000;stroke:#008000;" x="342.493483" xlink:href="#m8ed7e0e605" y="240.003614"/>
     <use style="fill:#008000;stroke:#008000;" x="346.506067" xlink:href="#m8ed7e0e605" y="165.156409"/>
     <use style="fill:#008000;stroke:#008000;" x="350.518652" xlink:href="#m8ed7e0e605" y="179.531601"/>
     <use style="fill:#008000;stroke:#008000;" x="354.531236" xlink:href="#m8ed7e0e605" y="177.822463"/>
     <use style="fill:#008000;stroke:#008000;" x="358.54382" xlink:href="#m8ed7e0e605" y="180.349758"/>
     <use style="fill:#008000;stroke:#008000;" x="362.556404" xlink:href="#m8ed7e0e605" y="177.595083"/>
     <use style="fill:#008000;stroke:#008000;" x="366.568989" xlink:href="#m8ed7e0e605" y="170.986551"/>
     <use style="fill:#008000;stroke:#008000;" x="370.581573" xlink:href="#m8ed7e0e605" y="174.848186"/>
     <use style="fill:#008000;stroke:#008000;" x="374.594157" xlink:href="#m8ed7e0e605" y="172.449967"/>
     <use style="fill:#008000;stroke:#008000;" x="378.606742" xlink:href="#m8ed7e0e605" y="175.005191"/>
     <use style="fill:#008000;stroke:#008000;" x="382.619326" xlink:href="#m8ed7e0e605" y="176.230472"/>
     <use style="fill:#008000;stroke:#008000;" x="386.63191" xlink:href="#m8ed7e0e605" y="184.140122"/>
     <use style="fill:#008000;stroke:#008000;" x="390.644494" xlink:href="#m8ed7e0e605" y="172.990735"/>
     <use style="fill:#008000;stroke:#008000;" x="394.657079" xlink:href="#m8ed7e0e605" y="175.014867"/>
     <use style="fill:#008000;stroke:#008000;" x="398.669663" xlink:href="#m8ed7e0e605" y="185.716301"/>
     <use style="fill:#008000;stroke:#008000;" x="402.682247" xlink:href="#m8ed7e0e605" y="171.246956"/>
     <use style="fill:#008000;stroke:#008000;" x="406.694831" xlink:href="#m8ed7e0e605" y="179.497269"/>
     <use style="fill:#008000;stroke:#008000;" x="410.707416" xlink:href="#m8ed7e0e605" y="204.161221"/>
    </g>
   </g>
   <g id="patch_3">
    <path d="M 57.6 307.584 
L 57.6 41.472 
" style="fill:none;stroke:#000000;stroke-linecap:square;stroke-linejoin:miter;stroke-width:0.8;"/>
   </g>
   <g id="patch_4">
    <path d="M 414.72 307.584 
L 414.72 41.472 
" style="fill:none;stroke:#000000;stroke-linecap:square;stroke-linejoin:miter;stroke-width:0.8;"/>
   </g>
   <g id="patch_5">
    <path d="M 57.6 307.584 
L 414.72 307.584 
" style="fill:none;stroke:#000000;stroke-linecap:square;stroke-linejoin:miter;stroke-width:0.8;"/>
   </g>
   <g id="patch_6">
    <path d="M 57.6 41.472 
L 414.72 41.472 
" style="fill:none;stroke:#000000;stroke-linecap:square;stroke-linejoin:miter;stroke-width:0.8;"/>
   </g>
   <g id="text_30">
    <!-- radix sort 10 on pre_transpose3 -->
    <g transform="translate(140.265938 35.472)scale(0.12 -0.12)">
     <defs>
      <path d="M 9.421875 54.6875 
L 18.40625 54.6875 
L 18.40625 0 
L 9.421875 0 
z
M 9.421875 75.984375 
L 18.40625 75.984375 
L 18.40625 64.59375 
L 9.421875 64.59375 
z
" id="DejaVuSans-105"/>
      <path d="M 54.890625 54.6875 
L 35.109375 28.078125 
L 55.90625 0 
L 45.3125 0 
L 29.390625 21.484375 
L 13.484375 0 
L 2.875 0 
L 24.125 28.609375 
L 4.6875 54.6875 
L 15.28125 54.6875 
L 29.78125 35.203125 
L 44.28125 54.6875 
z
" id="DejaVuSans-120"/>
      <path d="M 30.609375 48.390625 
Q 23.390625 48.390625 19.1875 42.75 
Q 14.984375 37.109375 14.984375 27.296875 
Q 14.984375 17.484375 19.15625 11.84375 
Q 23.34375 6.203125 30.609375 6.203125 
Q 37.796875 6.203125 41.984375 11.859375 
Q 46.1875 17.53125 46.1875 27.296875 
Q 46.1875 37.015625 41.984375 42.703125 
Q 37.796875 48.390625 30.609375 48.390625 
z
M 30.609375 56 
Q 42.328125 56 49.015625 48.375 
Q 55.71875 40.765625 55.71875 27.296875 
Q 55.71875 13.875 49.015625 6.21875 
Q 42.328125 -1.421875 30.609375 -1.421875 
Q 18.84375 -1.421875 12.171875 6.21875 
Q 5.515625 13.875 5.515625 27.296875 
Q 5.515625 40.765625 12.171875 48.375 
Q 18.84375 56 30.609375 56 
z
" id="DejaVuSans-111"/>
      <path d="M 54.890625 33.015625 
L 54.890625 0 
L 45.90625 0 
L 45.90625 32.71875 
Q 45.90625 40.484375 42.875 44.328125 
Q 39.84375 48.1875 33.796875 48.1875 
Q 26.515625 48.1875 22.3125 43.546875 
Q 18.109375 38.921875 18.109375 30.90625 
L 18.109375 0 
L 9.078125 0 
L 9.078125 54.6875 
L 18.109375 54.6875 
L 18.109375 46.1875 
Q 21.34375 51.125 25.703125 53.5625 
Q 30.078125 56 35.796875 56 
Q 45.21875 56 50.046875 50.171875 
Q 54.890625 44.34375 54.890625 33.015625 
z
" id="DejaVuSans-110"/>
      <path d="M 50.984375 -16.609375 
L 50.984375 -23.578125 
L -0.984375 -23.578125 
L -0.984375 -16.609375 
z
" id="DejaVuSans-95"/>
     </defs>
     <use xlink:href="#DejaVuSans-114"/>
     <use x="41.113281" xlink:href="#DejaVuSans-97"/>
     <use x="102.392578" xlink:href="#DejaVuSans-100"/>
     <use x="165.869141" xlink:href="#DejaVuSans-105"/>
     <use x="193.652344" xlink:href="#DejaVuSans-120"/>
     <use x="252.832031" xlink:href="#DejaVuSans-32"/>
     <use x="284.619141" xlink:href="#DejaVuSans-115"/>
     <use x="336.71875" xlink:href="#DejaVuSans-111"/>
     <use x="397.900391" xlink:href="#DejaVuSans-114"/>
     <use x="439.013672" xlink:href="#DejaVuSans-116"/>
     <use x="478.222656" xlink:href="#DejaVuSans-32"/>
     <use x="510.009766" xlink:href="#DejaVuSans-49"/>
     <use x="573.632812" xlink:href="#DejaVuSans-48"/>
     <use x="637.255859" xlink:href="#DejaVuSans-32"/>
     <use x="669.042969" xlink:href="#DejaVuSans-111"/>
     <use x="730.224609" xlink:href="#DejaVuSans-110"/>
     <use x="793.603516" xlink:href="#DejaVuSans-32"/>
     <use x="825.390625" xlink:href="#DejaVuSans-112"/>
     <use x="888.867188" xlink:href="#DejaVuSans-114"/>
     <use x="927.730469" xlink:href="#DejaVuSans-101"/>
     <use x="989.253906" xlink:href="#DejaVuSans-95"/>
     <use x="1039.253906" xlink:href="#DejaVuSans-116"/>
     <use x="1078.462891" xlink:href="#DejaVuSans-114"/>
     <use x="1119.576172" xlink:href="#DejaVuSans-97"/>
     <use x="1180.855469" xlink:href="#DejaVuSans-110"/>
     <use x="1244.234375" xlink:href="#DejaVuSans-115"/>
     <use x="1296.333984" xlink:href="#DejaVuSans-112"/>
     <use x="1359.810547" xlink:href="#DejaVuSans-111"/>
     <use x="1420.992188" xlink:href="#DejaVuSans-115"/>
     <use x="1473.091797" xlink:href="#DejaVuSans-101"/>
     <use x="1534.615234" xlink:href="#DejaVuSans-51"/>
    </g>
   </g>
   <g id="legend_1">
    <g id="patch_7">
     <path d="M 313.152813 93.7845 
L 407.72 93.7845 
Q 409.72 93.7845 409.72 91.7845 
L 409.72 48.472 
Q 409.72 46.472 407.72 46.472 
L 313.152813 46.472 
Q 311.152813 46.472 311.152813 48.472 
L 311.152813 91.7845 
Q 311.152813 93.7845 313.152813 93.7845 
z
" style="fill:#ffffff;opacity:0.8;stroke:#cccccc;stroke-linejoin:miter;"/>
    </g>
    <g id="line2d_58">
     <path d="M 315.152813 54.570438 
L 335.152813 54.570438 
" style="fill:none;stroke:#0000ff;stroke-dasharray:1.5,2.475;stroke-dashoffset:0;stroke-width:1.5;"/>
    </g>
    <g id="line2d_59">
     <g>
      <use style="fill:#0000ff;stroke:#0000ff;" x="325.152813" xlink:href="#mc195526a8c" y="54.570438"/>
     </g>
    </g>
    <g id="text_31">
     <!-- transpose -->
     <g transform="translate(343.152813 58.070438)scale(0.1 -0.1)">
      <use xlink:href="#DejaVuSans-116"/>
      <use x="39.208984" xlink:href="#DejaVuSans-114"/>
      <use x="80.322266" xlink:href="#DejaVuSans-97"/>
      <use x="141.601562" xlink:href="#DejaVuSans-110"/>
      <use x="204.980469" xlink:href="#DejaVuSans-115"/>
      <use x="257.080078" xlink:href="#DejaVuSans-112"/>
      <use x="320.556641" xlink:href="#DejaVuSans-111"/>
      <use x="381.738281" xlink:href="#DejaVuSans-115"/>
      <use x="433.837891" xlink:href="#DejaVuSans-101"/>
     </g>
    </g>
    <g id="line2d_60">
     <path d="M 315.152813 69.248563 
L 335.152813 69.248563 
" style="fill:none;stroke:#ff0000;stroke-dasharray:1.5,2.475;stroke-dashoffset:0;stroke-width:1.5;"/>
    </g>
    <g id="line2d_61">
     <g>
      <use style="fill:#ff0000;stroke:#ff0000;" x="325.152813" xlink:href="#m2d3caf253c" y="69.248563"/>
     </g>
    </g>
    <g id="text_32">
     <!-- transpose_tr -->
     <g transform="translate(343.152813 72.748563)scale(0.1 -0.1)">
      <use xlink:href="#DejaVuSans-116"/>
      <use x="39.208984" xlink:href="#DejaVuSans-114"/>
      <use x="80.322266" xlink:href="#DejaVuSans-97"/>
      <use x="141.601562" xlink:href="#DejaVuSans-110"/>
      <use x="204.980469" xlink:href="#DejaVuSans-115"/>
      <use x="257.080078" xlink:href="#DejaVuSans-112"/>
      <use x="320.556641" xlink:href="#DejaVuSans-111"/>
      <use x="381.738281" xlink:href="#DejaVuSans-115"/>
      <use x="433.837891" xlink:href="#DejaVuSans-101"/>
      <use x="495.361328" xlink:href="#DejaVuSans-95"/>
      <use x="545.361328" xlink:href="#DejaVuSans-116"/>
      <use x="584.570312" xlink:href="#DejaVuSans-114"/>
     </g>
    </g>
    <g id="line2d_62">
     <path d="M 315.152813 84.204813 
L 335.152813 84.204813 
" style="fill:none;stroke:#008000;stroke-dasharray:1.5,2.475;stroke-dashoffset:0;stroke-width:1.5;"/>
    </g>
    <g id="line2d_63">
     <g>
      <use style="fill:#008000;stroke:#008000;" x="325.152813" xlink:href="#m8ed7e0e605" y="84.204813"/>
     </g>
    </g>
    <g id="text_33">
     <!-- mean -->
     <g transform="translate(343.152813 87.704813)scale(0.1 -0.1)">
      <defs>
       <path d="M 52 44.1875 
Q 55.375 50.25 60.0625 53.125 
Q 64.75 56 71.09375 56 
Q 79.640625 56 84.28125 50.015625 
Q 88.921875 44.046875 88.921875 33.015625 
L 88.921875 0 
L 79.890625 0 
L 79.890625 32.71875 
Q 79.890625 40.578125 77.09375 44.375 
Q 74.3125 48.1875 68.609375 48.1875 
Q 61.625 48.1875 57.5625 43.546875 
Q 53.515625 38.921875 53.515625 30.90625 
L 53.515625 0 
L 44.484375 0 
L 44.484375 32.71875 
Q 44.484375 40.625 41.703125 44.40625 
Q 38.921875 48.1875 33.109375 48.1875 
Q 26.21875 48.1875 22.15625 43.53125 
Q 18.109375 38.875 18.109375 30.90625 
L 18.109375 0 
L 9.078125 0 
L 9.078125 54.6875 
L 18.109375 54.6875 
L 18.109375 46.1875 
Q 21.1875 51.21875 25.484375 53.609375 
Q 29.78125 56 35.6875 56 
Q 41.65625 56 45.828125 52.96875 
Q 50 49.953125 52 44.1875 
z
" id="DejaVuSans-109"/>
      </defs>
      <use xlink:href="#DejaVuSans-109"/>
      <use x="97.412109" xlink:href="#DejaVuSans-101"/>
      <use x="158.935547" xlink:href="#DejaVuSans-97"/>
      <use x="220.214844" xlink:href="#DejaVuSans-110"/>
     </g>
    </g>
   </g>
  </g>
 </g>
 <defs>
  <clipPath id="pa2bd482399">
   <rect height="266.112" width="357.12" x="57.6" y="41.472"/>
  </clipPath>
 </defs>
</svg>
