<?xml version="1.0" encoding="utf-8" standalone="no"?>
<!DOCTYPE svg PUBLIC "-//W3C//DTD SVG 1.1//EN"
  "http://www.w3.org/Graphics/SVG/1.1/DTD/svg11.dtd">
<!-- Created with matplotlib (https://matplotlib.org/) -->
<svg height="345.6pt" version="1.1" viewBox="0 0 460.8 345.6" width="460.8pt" xmlns="http://www.w3.org/2000/svg" xmlns:xlink="http://www.w3.org/1999/xlink">
 <metadata>
  <rdf:RDF xmlns:cc="http://creativecommons.org/ns#" xmlns:dc="http://purl.org/dc/elements/1.1/" xmlns:rdf="http://www.w3.org/1999/02/22-rdf-syntax-ns#">
   <cc:Work>
    <dc:type rdf:resource="http://purl.org/dc/dcmitype/StillImage"/>
    <dc:date>2020-08-24T15:24:15.115472</dc:date>
    <dc:format>image/svg+xml</dc:format>
    <dc:creator>
     <cc:Agent>
      <dc:title>Matplotlib v3.3.1, https://matplotlib.org/</dc:title>
     </cc:Agent>
    </dc:creator>
   </cc:Work>
  </rdf:RDF>
 </metadata>
 <defs>
  <style type="text/css">*{stroke-linecap:butt;stroke-linejoin:round;}</style>
 </defs>
 <g id="figure_1">
  <g id="patch_1">
   <path d="M 0 345.6 
L 460.8 345.6 
L 460.8 0 
L 0 0 
z
" style="fill:#ffffff;"/>
  </g>
  <g id="axes_1">
   <g id="patch_2">
    <path d="M 57.6 307.584 
L 414.72 307.584 
L 414.72 41.472 
L 57.6 41.472 
z
" style="fill:#ffffff;"/>
   </g>
   <g id="matplotlib.axis_1">
    <g id="xtick_1">
     <g id="line2d_1">
      <path clip-path="url(#pdf35dfcba6)" d="M 61.612584 307.584 
L 61.612584 41.472 
" style="fill:none;stroke:#b0b0b0;stroke-dasharray:5.12,1.28,0.8,1.28;stroke-dashoffset:0;stroke-width:0.8;"/>
     </g>
     <g id="line2d_2">
      <defs>
       <path d="M 0 0 
L 0 3.5 
" id="m2885f6a764" style="stroke:#000000;stroke-width:0.8;"/>
      </defs>
      <g>
       <use style="stroke:#000000;stroke-width:0.8;" x="61.612584" xlink:href="#m2885f6a764" y="307.584"/>
      </g>
     </g>
     <g id="text_1">
      <!-- 1 -->
      <g transform="translate(58.431334 322.182437)scale(0.1 -0.1)">
       <defs>
        <path d="M 12.40625 8.296875 
L 28.515625 8.296875 
L 28.515625 63.921875 
L 10.984375 60.40625 
L 10.984375 69.390625 
L 28.421875 72.90625 
L 38.28125 72.90625 
L 38.28125 8.296875 
L 54.390625 8.296875 
L 54.390625 0 
L 12.40625 0 
z
" id="DejaVuSans-49"/>
       </defs>
       <use xlink:href="#DejaVuSans-49"/>
      </g>
     </g>
    </g>
    <g id="xtick_2">
     <g id="line2d_3">
      <path clip-path="url(#pdf35dfcba6)" d="M 73.650337 307.584 
L 73.650337 41.472 
" style="fill:none;stroke:#b0b0b0;stroke-dasharray:5.12,1.28,0.8,1.28;stroke-dashoffset:0;stroke-width:0.8;"/>
     </g>
     <g id="line2d_4">
      <g>
       <use style="stroke:#000000;stroke-width:0.8;" x="73.650337" xlink:href="#m2885f6a764" y="307.584"/>
      </g>
     </g>
     <g id="text_2">
      <!-- 4 -->
      <g transform="translate(70.469087 322.182437)scale(0.1 -0.1)">
       <defs>
        <path d="M 37.796875 64.3125 
L 12.890625 25.390625 
L 37.796875 25.390625 
z
M 35.203125 72.90625 
L 47.609375 72.90625 
L 47.609375 25.390625 
L 58.015625 25.390625 
L 58.015625 17.1875 
L 47.609375 17.1875 
L 47.609375 0 
L 37.796875 0 
L 37.796875 17.1875 
L 4.890625 17.1875 
L 4.890625 26.703125 
z
" id="DejaVuSans-52"/>
       </defs>
       <use xlink:href="#DejaVuSans-52"/>
      </g>
     </g>
    </g>
    <g id="xtick_3">
     <g id="line2d_5">
      <path clip-path="url(#pdf35dfcba6)" d="M 89.700674 307.584 
L 89.700674 41.472 
" style="fill:none;stroke:#b0b0b0;stroke-dasharray:5.12,1.28,0.8,1.28;stroke-dashoffset:0;stroke-width:0.8;"/>
     </g>
     <g id="line2d_6">
      <g>
       <use style="stroke:#000000;stroke-width:0.8;" x="89.700674" xlink:href="#m2885f6a764" y="307.584"/>
      </g>
     </g>
     <g id="text_3">
      <!-- 8 -->
      <g transform="translate(86.519424 322.182437)scale(0.1 -0.1)">
       <defs>
        <path d="M 31.78125 34.625 
Q 24.75 34.625 20.71875 30.859375 
Q 16.703125 27.09375 16.703125 20.515625 
Q 16.703125 13.921875 20.71875 10.15625 
Q 24.75 6.390625 31.78125 6.390625 
Q 38.8125 6.390625 42.859375 10.171875 
Q 46.921875 13.96875 46.921875 20.515625 
Q 46.921875 27.09375 42.890625 30.859375 
Q 38.875 34.625 31.78125 34.625 
z
M 21.921875 38.8125 
Q 15.578125 40.375 12.03125 44.71875 
Q 8.5 49.078125 8.5 55.328125 
Q 8.5 64.0625 14.71875 69.140625 
Q 20.953125 74.21875 31.78125 74.21875 
Q 42.671875 74.21875 48.875 69.140625 
Q 55.078125 64.0625 55.078125 55.328125 
Q 55.078125 49.078125 51.53125 44.71875 
Q 48 40.375 41.703125 38.8125 
Q 48.828125 37.15625 52.796875 32.3125 
Q 56.78125 27.484375 56.78125 20.515625 
Q 56.78125 9.90625 50.3125 4.234375 
Q 43.84375 -1.421875 31.78125 -1.421875 
Q 19.734375 -1.421875 13.25 4.234375 
Q 6.78125 9.90625 6.78125 20.515625 
Q 6.78125 27.484375 10.78125 32.3125 
Q 14.796875 37.15625 21.921875 38.8125 
z
M 18.3125 54.390625 
Q 18.3125 48.734375 21.84375 45.5625 
Q 25.390625 42.390625 31.78125 42.390625 
Q 38.140625 42.390625 41.71875 45.5625 
Q 45.3125 48.734375 45.3125 54.390625 
Q 45.3125 60.0625 41.71875 63.234375 
Q 38.140625 66.40625 31.78125 66.40625 
Q 25.390625 66.40625 21.84375 63.234375 
Q 18.3125 60.0625 18.3125 54.390625 
z
" id="DejaVuSans-56"/>
       </defs>
       <use xlink:href="#DejaVuSans-56"/>
      </g>
     </g>
    </g>
    <g id="xtick_4">
     <g id="line2d_7">
      <path clip-path="url(#pdf35dfcba6)" d="M 105.751011 307.584 
L 105.751011 41.472 
" style="fill:none;stroke:#b0b0b0;stroke-dasharray:5.12,1.28,0.8,1.28;stroke-dashoffset:0;stroke-width:0.8;"/>
     </g>
     <g id="line2d_8">
      <g>
       <use style="stroke:#000000;stroke-width:0.8;" x="105.751011" xlink:href="#m2885f6a764" y="307.584"/>
      </g>
     </g>
     <g id="text_4">
      <!-- 12 -->
      <g transform="translate(99.388511 322.182437)scale(0.1 -0.1)">
       <defs>
        <path d="M 19.1875 8.296875 
L 53.609375 8.296875 
L 53.609375 0 
L 7.328125 0 
L 7.328125 8.296875 
Q 12.9375 14.109375 22.625 23.890625 
Q 32.328125 33.6875 34.8125 36.53125 
Q 39.546875 41.84375 41.421875 45.53125 
Q 43.3125 49.21875 43.3125 52.78125 
Q 43.3125 58.59375 39.234375 62.25 
Q 35.15625 65.921875 28.609375 65.921875 
Q 23.96875 65.921875 18.8125 64.3125 
Q 13.671875 62.703125 7.8125 59.421875 
L 7.8125 69.390625 
Q 13.765625 71.78125 18.9375 73 
Q 24.125 74.21875 28.421875 74.21875 
Q 39.75 74.21875 46.484375 68.546875 
Q 53.21875 62.890625 53.21875 53.421875 
Q 53.21875 48.921875 51.53125 44.890625 
Q 49.859375 40.875 45.40625 35.40625 
Q 44.1875 33.984375 37.640625 27.21875 
Q 31.109375 20.453125 19.1875 8.296875 
z
" id="DejaVuSans-50"/>
       </defs>
       <use xlink:href="#DejaVuSans-49"/>
       <use x="63.623047" xlink:href="#DejaVuSans-50"/>
      </g>
     </g>
    </g>
    <g id="xtick_5">
     <g id="line2d_9">
      <path clip-path="url(#pdf35dfcba6)" d="M 121.801348 307.584 
L 121.801348 41.472 
" style="fill:none;stroke:#b0b0b0;stroke-dasharray:5.12,1.28,0.8,1.28;stroke-dashoffset:0;stroke-width:0.8;"/>
     </g>
     <g id="line2d_10">
      <g>
       <use style="stroke:#000000;stroke-width:0.8;" x="121.801348" xlink:href="#m2885f6a764" y="307.584"/>
      </g>
     </g>
     <g id="text_5">
      <!-- 16 -->
      <g transform="translate(115.438848 322.182437)scale(0.1 -0.1)">
       <defs>
        <path d="M 33.015625 40.375 
Q 26.375 40.375 22.484375 35.828125 
Q 18.609375 31.296875 18.609375 23.390625 
Q 18.609375 15.53125 22.484375 10.953125 
Q 26.375 6.390625 33.015625 6.390625 
Q 39.65625 6.390625 43.53125 10.953125 
Q 47.40625 15.53125 47.40625 23.390625 
Q 47.40625 31.296875 43.53125 35.828125 
Q 39.65625 40.375 33.015625 40.375 
z
M 52.59375 71.296875 
L 52.59375 62.3125 
Q 48.875 64.0625 45.09375 64.984375 
Q 41.3125 65.921875 37.59375 65.921875 
Q 27.828125 65.921875 22.671875 59.328125 
Q 17.53125 52.734375 16.796875 39.40625 
Q 19.671875 43.65625 24.015625 45.921875 
Q 28.375 48.1875 33.59375 48.1875 
Q 44.578125 48.1875 50.953125 41.515625 
Q 57.328125 34.859375 57.328125 23.390625 
Q 57.328125 12.15625 50.6875 5.359375 
Q 44.046875 -1.421875 33.015625 -1.421875 
Q 20.359375 -1.421875 13.671875 8.265625 
Q 6.984375 17.96875 6.984375 36.375 
Q 6.984375 53.65625 15.1875 63.9375 
Q 23.390625 74.21875 37.203125 74.21875 
Q 40.921875 74.21875 44.703125 73.484375 
Q 48.484375 72.75 52.59375 71.296875 
z
" id="DejaVuSans-54"/>
       </defs>
       <use xlink:href="#DejaVuSans-49"/>
       <use x="63.623047" xlink:href="#DejaVuSans-54"/>
      </g>
     </g>
    </g>
    <g id="xtick_6">
     <g id="line2d_11">
      <path clip-path="url(#pdf35dfcba6)" d="M 137.851685 307.584 
L 137.851685 41.472 
" style="fill:none;stroke:#b0b0b0;stroke-dasharray:5.12,1.28,0.8,1.28;stroke-dashoffset:0;stroke-width:0.8;"/>
     </g>
     <g id="line2d_12">
      <g>
       <use style="stroke:#000000;stroke-width:0.8;" x="137.851685" xlink:href="#m2885f6a764" y="307.584"/>
      </g>
     </g>
     <g id="text_6">
      <!-- 20 -->
      <g transform="translate(131.489185 322.182437)scale(0.1 -0.1)">
       <defs>
        <path d="M 31.78125 66.40625 
Q 24.171875 66.40625 20.328125 58.90625 
Q 16.5 51.421875 16.5 36.375 
Q 16.5 21.390625 20.328125 13.890625 
Q 24.171875 6.390625 31.78125 6.390625 
Q 39.453125 6.390625 43.28125 13.890625 
Q 47.125 21.390625 47.125 36.375 
Q 47.125 51.421875 43.28125 58.90625 
Q 39.453125 66.40625 31.78125 66.40625 
z
M 31.78125 74.21875 
Q 44.046875 74.21875 50.515625 64.515625 
Q 56.984375 54.828125 56.984375 36.375 
Q 56.984375 17.96875 50.515625 8.265625 
Q 44.046875 -1.421875 31.78125 -1.421875 
Q 19.53125 -1.421875 13.0625 8.265625 
Q 6.59375 17.96875 6.59375 36.375 
Q 6.59375 54.828125 13.0625 64.515625 
Q 19.53125 74.21875 31.78125 74.21875 
z
" id="DejaVuSans-48"/>
       </defs>
       <use xlink:href="#DejaVuSans-50"/>
       <use x="63.623047" xlink:href="#DejaVuSans-48"/>
      </g>
     </g>
    </g>
    <g id="xtick_7">
     <g id="line2d_13">
      <path clip-path="url(#pdf35dfcba6)" d="M 153.902022 307.584 
L 153.902022 41.472 
" style="fill:none;stroke:#b0b0b0;stroke-dasharray:5.12,1.28,0.8,1.28;stroke-dashoffset:0;stroke-width:0.8;"/>
     </g>
     <g id="line2d_14">
      <g>
       <use style="stroke:#000000;stroke-width:0.8;" x="153.902022" xlink:href="#m2885f6a764" y="307.584"/>
      </g>
     </g>
     <g id="text_7">
      <!-- 24 -->
      <g transform="translate(147.539522 322.182437)scale(0.1 -0.1)">
       <use xlink:href="#DejaVuSans-50"/>
       <use x="63.623047" xlink:href="#DejaVuSans-52"/>
      </g>
     </g>
    </g>
    <g id="xtick_8">
     <g id="line2d_15">
      <path clip-path="url(#pdf35dfcba6)" d="M 169.95236 307.584 
L 169.95236 41.472 
" style="fill:none;stroke:#b0b0b0;stroke-dasharray:5.12,1.28,0.8,1.28;stroke-dashoffset:0;stroke-width:0.8;"/>
     </g>
     <g id="line2d_16">
      <g>
       <use style="stroke:#000000;stroke-width:0.8;" x="169.95236" xlink:href="#m2885f6a764" y="307.584"/>
      </g>
     </g>
     <g id="text_8">
      <!-- 28 -->
      <g transform="translate(163.58986 322.182437)scale(0.1 -0.1)">
       <use xlink:href="#DejaVuSans-50"/>
       <use x="63.623047" xlink:href="#DejaVuSans-56"/>
      </g>
     </g>
    </g>
    <g id="xtick_9">
     <g id="line2d_17">
      <path clip-path="url(#pdf35dfcba6)" d="M 186.002697 307.584 
L 186.002697 41.472 
" style="fill:none;stroke:#b0b0b0;stroke-dasharray:5.12,1.28,0.8,1.28;stroke-dashoffset:0;stroke-width:0.8;"/>
     </g>
     <g id="line2d_18">
      <g>
       <use style="stroke:#000000;stroke-width:0.8;" x="186.002697" xlink:href="#m2885f6a764" y="307.584"/>
      </g>
     </g>
     <g id="text_9">
      <!-- 32 -->
      <g transform="translate(179.640197 322.182437)scale(0.1 -0.1)">
       <defs>
        <path d="M 40.578125 39.3125 
Q 47.65625 37.796875 51.625 33 
Q 55.609375 28.21875 55.609375 21.1875 
Q 55.609375 10.40625 48.1875 4.484375 
Q 40.765625 -1.421875 27.09375 -1.421875 
Q 22.515625 -1.421875 17.65625 -0.515625 
Q 12.796875 0.390625 7.625 2.203125 
L 7.625 11.71875 
Q 11.71875 9.328125 16.59375 8.109375 
Q 21.484375 6.890625 26.8125 6.890625 
Q 36.078125 6.890625 40.9375 10.546875 
Q 45.796875 14.203125 45.796875 21.1875 
Q 45.796875 27.640625 41.28125 31.265625 
Q 36.765625 34.90625 28.71875 34.90625 
L 20.21875 34.90625 
L 20.21875 43.015625 
L 29.109375 43.015625 
Q 36.375 43.015625 40.234375 45.921875 
Q 44.09375 48.828125 44.09375 54.296875 
Q 44.09375 59.90625 40.109375 62.90625 
Q 36.140625 65.921875 28.71875 65.921875 
Q 24.65625 65.921875 20.015625 65.03125 
Q 15.375 64.15625 9.8125 62.3125 
L 9.8125 71.09375 
Q 15.4375 72.65625 20.34375 73.4375 
Q 25.25 74.21875 29.59375 74.21875 
Q 40.828125 74.21875 47.359375 69.109375 
Q 53.90625 64.015625 53.90625 55.328125 
Q 53.90625 49.265625 50.4375 45.09375 
Q 46.96875 40.921875 40.578125 39.3125 
z
" id="DejaVuSans-51"/>
       </defs>
       <use xlink:href="#DejaVuSans-51"/>
       <use x="63.623047" xlink:href="#DejaVuSans-50"/>
      </g>
     </g>
    </g>
    <g id="xtick_10">
     <g id="line2d_19">
      <path clip-path="url(#pdf35dfcba6)" d="M 202.053034 307.584 
L 202.053034 41.472 
" style="fill:none;stroke:#b0b0b0;stroke-dasharray:5.12,1.28,0.8,1.28;stroke-dashoffset:0;stroke-width:0.8;"/>
     </g>
     <g id="line2d_20">
      <g>
       <use style="stroke:#000000;stroke-width:0.8;" x="202.053034" xlink:href="#m2885f6a764" y="307.584"/>
      </g>
     </g>
     <g id="text_10">
      <!-- 36 -->
      <g transform="translate(195.690534 322.182437)scale(0.1 -0.1)">
       <use xlink:href="#DejaVuSans-51"/>
       <use x="63.623047" xlink:href="#DejaVuSans-54"/>
      </g>
     </g>
    </g>
    <g id="xtick_11">
     <g id="line2d_21">
      <path clip-path="url(#pdf35dfcba6)" d="M 218.103371 307.584 
L 218.103371 41.472 
" style="fill:none;stroke:#b0b0b0;stroke-dasharray:5.12,1.28,0.8,1.28;stroke-dashoffset:0;stroke-width:0.8;"/>
     </g>
     <g id="line2d_22">
      <g>
       <use style="stroke:#000000;stroke-width:0.8;" x="218.103371" xlink:href="#m2885f6a764" y="307.584"/>
      </g>
     </g>
     <g id="text_11">
      <!-- 40 -->
      <g transform="translate(211.740871 322.182437)scale(0.1 -0.1)">
       <use xlink:href="#DejaVuSans-52"/>
       <use x="63.623047" xlink:href="#DejaVuSans-48"/>
      </g>
     </g>
    </g>
    <g id="xtick_12">
     <g id="line2d_23">
      <path clip-path="url(#pdf35dfcba6)" d="M 234.153708 307.584 
L 234.153708 41.472 
" style="fill:none;stroke:#b0b0b0;stroke-dasharray:5.12,1.28,0.8,1.28;stroke-dashoffset:0;stroke-width:0.8;"/>
     </g>
     <g id="line2d_24">
      <g>
       <use style="stroke:#000000;stroke-width:0.8;" x="234.153708" xlink:href="#m2885f6a764" y="307.584"/>
      </g>
     </g>
     <g id="text_12">
      <!-- 44 -->
      <g transform="translate(227.791208 322.182437)scale(0.1 -0.1)">
       <use xlink:href="#DejaVuSans-52"/>
       <use x="63.623047" xlink:href="#DejaVuSans-52"/>
      </g>
     </g>
    </g>
    <g id="xtick_13">
     <g id="line2d_25">
      <path clip-path="url(#pdf35dfcba6)" d="M 250.204045 307.584 
L 250.204045 41.472 
" style="fill:none;stroke:#b0b0b0;stroke-dasharray:5.12,1.28,0.8,1.28;stroke-dashoffset:0;stroke-width:0.8;"/>
     </g>
     <g id="line2d_26">
      <g>
       <use style="stroke:#000000;stroke-width:0.8;" x="250.204045" xlink:href="#m2885f6a764" y="307.584"/>
      </g>
     </g>
     <g id="text_13">
      <!-- 48 -->
      <g transform="translate(243.841545 322.182437)scale(0.1 -0.1)">
       <use xlink:href="#DejaVuSans-52"/>
       <use x="63.623047" xlink:href="#DejaVuSans-56"/>
      </g>
     </g>
    </g>
    <g id="xtick_14">
     <g id="line2d_27">
      <path clip-path="url(#pdf35dfcba6)" d="M 266.254382 307.584 
L 266.254382 41.472 
" style="fill:none;stroke:#b0b0b0;stroke-dasharray:5.12,1.28,0.8,1.28;stroke-dashoffset:0;stroke-width:0.8;"/>
     </g>
     <g id="line2d_28">
      <g>
       <use style="stroke:#000000;stroke-width:0.8;" x="266.254382" xlink:href="#m2885f6a764" y="307.584"/>
      </g>
     </g>
     <g id="text_14">
      <!-- 52 -->
      <g transform="translate(259.891882 322.182437)scale(0.1 -0.1)">
       <defs>
        <path d="M 10.796875 72.90625 
L 49.515625 72.90625 
L 49.515625 64.59375 
L 19.828125 64.59375 
L 19.828125 46.734375 
Q 21.96875 47.46875 24.109375 47.828125 
Q 26.265625 48.1875 28.421875 48.1875 
Q 40.625 48.1875 47.75 41.5 
Q 54.890625 34.8125 54.890625 23.390625 
Q 54.890625 11.625 47.5625 5.09375 
Q 40.234375 -1.421875 26.90625 -1.421875 
Q 22.3125 -1.421875 17.546875 -0.640625 
Q 12.796875 0.140625 7.71875 1.703125 
L 7.71875 11.625 
Q 12.109375 9.234375 16.796875 8.0625 
Q 21.484375 6.890625 26.703125 6.890625 
Q 35.15625 6.890625 40.078125 11.328125 
Q 45.015625 15.765625 45.015625 23.390625 
Q 45.015625 31 40.078125 35.4375 
Q 35.15625 39.890625 26.703125 39.890625 
Q 22.75 39.890625 18.8125 39.015625 
Q 14.890625 38.140625 10.796875 36.28125 
z
" id="DejaVuSans-53"/>
       </defs>
       <use xlink:href="#DejaVuSans-53"/>
       <use x="63.623047" xlink:href="#DejaVuSans-50"/>
      </g>
     </g>
    </g>
    <g id="xtick_15">
     <g id="line2d_29">
      <path clip-path="url(#pdf35dfcba6)" d="M 282.304719 307.584 
L 282.304719 41.472 
" style="fill:none;stroke:#b0b0b0;stroke-dasharray:5.12,1.28,0.8,1.28;stroke-dashoffset:0;stroke-width:0.8;"/>
     </g>
     <g id="line2d_30">
      <g>
       <use style="stroke:#000000;stroke-width:0.8;" x="282.304719" xlink:href="#m2885f6a764" y="307.584"/>
      </g>
     </g>
     <g id="text_15">
      <!-- 56 -->
      <g transform="translate(275.942219 322.182437)scale(0.1 -0.1)">
       <use xlink:href="#DejaVuSans-53"/>
       <use x="63.623047" xlink:href="#DejaVuSans-54"/>
      </g>
     </g>
    </g>
    <g id="xtick_16">
     <g id="line2d_31">
      <path clip-path="url(#pdf35dfcba6)" d="M 298.355056 307.584 
L 298.355056 41.472 
" style="fill:none;stroke:#b0b0b0;stroke-dasharray:5.12,1.28,0.8,1.28;stroke-dashoffset:0;stroke-width:0.8;"/>
     </g>
     <g id="line2d_32">
      <g>
       <use style="stroke:#000000;stroke-width:0.8;" x="298.355056" xlink:href="#m2885f6a764" y="307.584"/>
      </g>
     </g>
     <g id="text_16">
      <!-- 60 -->
      <g transform="translate(291.992556 322.182437)scale(0.1 -0.1)">
       <use xlink:href="#DejaVuSans-54"/>
       <use x="63.623047" xlink:href="#DejaVuSans-48"/>
      </g>
     </g>
    </g>
    <g id="xtick_17">
     <g id="line2d_33">
      <path clip-path="url(#pdf35dfcba6)" d="M 314.405393 307.584 
L 314.405393 41.472 
" style="fill:none;stroke:#b0b0b0;stroke-dasharray:5.12,1.28,0.8,1.28;stroke-dashoffset:0;stroke-width:0.8;"/>
     </g>
     <g id="line2d_34">
      <g>
       <use style="stroke:#000000;stroke-width:0.8;" x="314.405393" xlink:href="#m2885f6a764" y="307.584"/>
      </g>
     </g>
     <g id="text_17">
      <!-- 64 -->
      <g transform="translate(308.042893 322.182437)scale(0.1 -0.1)">
       <use xlink:href="#DejaVuSans-54"/>
       <use x="63.623047" xlink:href="#DejaVuSans-52"/>
      </g>
     </g>
    </g>
    <g id="xtick_18">
     <g id="line2d_35">
      <path clip-path="url(#pdf35dfcba6)" d="M 330.45573 307.584 
L 330.45573 41.472 
" style="fill:none;stroke:#b0b0b0;stroke-dasharray:5.12,1.28,0.8,1.28;stroke-dashoffset:0;stroke-width:0.8;"/>
     </g>
     <g id="line2d_36">
      <g>
       <use style="stroke:#000000;stroke-width:0.8;" x="330.45573" xlink:href="#m2885f6a764" y="307.584"/>
      </g>
     </g>
     <g id="text_18">
      <!-- 68 -->
      <g transform="translate(324.09323 322.182437)scale(0.1 -0.1)">
       <use xlink:href="#DejaVuSans-54"/>
       <use x="63.623047" xlink:href="#DejaVuSans-56"/>
      </g>
     </g>
    </g>
    <g id="xtick_19">
     <g id="line2d_37">
      <path clip-path="url(#pdf35dfcba6)" d="M 346.506067 307.584 
L 346.506067 41.472 
" style="fill:none;stroke:#b0b0b0;stroke-dasharray:5.12,1.28,0.8,1.28;stroke-dashoffset:0;stroke-width:0.8;"/>
     </g>
     <g id="line2d_38">
      <g>
       <use style="stroke:#000000;stroke-width:0.8;" x="346.506067" xlink:href="#m2885f6a764" y="307.584"/>
      </g>
     </g>
     <g id="text_19">
      <!-- 72 -->
      <g transform="translate(340.143567 322.182437)scale(0.1 -0.1)">
       <defs>
        <path d="M 8.203125 72.90625 
L 55.078125 72.90625 
L 55.078125 68.703125 
L 28.609375 0 
L 18.3125 0 
L 43.21875 64.59375 
L 8.203125 64.59375 
z
" id="DejaVuSans-55"/>
       </defs>
       <use xlink:href="#DejaVuSans-55"/>
       <use x="63.623047" xlink:href="#DejaVuSans-50"/>
      </g>
     </g>
    </g>
    <g id="xtick_20">
     <g id="line2d_39">
      <path clip-path="url(#pdf35dfcba6)" d="M 362.556404 307.584 
L 362.556404 41.472 
" style="fill:none;stroke:#b0b0b0;stroke-dasharray:5.12,1.28,0.8,1.28;stroke-dashoffset:0;stroke-width:0.8;"/>
     </g>
     <g id="line2d_40">
      <g>
       <use style="stroke:#000000;stroke-width:0.8;" x="362.556404" xlink:href="#m2885f6a764" y="307.584"/>
      </g>
     </g>
     <g id="text_20">
      <!-- 76 -->
      <g transform="translate(356.193904 322.182437)scale(0.1 -0.1)">
       <use xlink:href="#DejaVuSans-55"/>
       <use x="63.623047" xlink:href="#DejaVuSans-54"/>
      </g>
     </g>
    </g>
    <g id="xtick_21">
     <g id="line2d_41">
      <path clip-path="url(#pdf35dfcba6)" d="M 378.606742 307.584 
L 378.606742 41.472 
" style="fill:none;stroke:#b0b0b0;stroke-dasharray:5.12,1.28,0.8,1.28;stroke-dashoffset:0;stroke-width:0.8;"/>
     </g>
     <g id="line2d_42">
      <g>
       <use style="stroke:#000000;stroke-width:0.8;" x="378.606742" xlink:href="#m2885f6a764" y="307.584"/>
      </g>
     </g>
     <g id="text_21">
      <!-- 80 -->
      <g transform="translate(372.244242 322.182437)scale(0.1 -0.1)">
       <use xlink:href="#DejaVuSans-56"/>
       <use x="63.623047" xlink:href="#DejaVuSans-48"/>
      </g>
     </g>
    </g>
    <g id="xtick_22">
     <g id="line2d_43">
      <path clip-path="url(#pdf35dfcba6)" d="M 394.657079 307.584 
L 394.657079 41.472 
" style="fill:none;stroke:#b0b0b0;stroke-dasharray:5.12,1.28,0.8,1.28;stroke-dashoffset:0;stroke-width:0.8;"/>
     </g>
     <g id="line2d_44">
      <g>
       <use style="stroke:#000000;stroke-width:0.8;" x="394.657079" xlink:href="#m2885f6a764" y="307.584"/>
      </g>
     </g>
     <g id="text_22">
      <!-- 84 -->
      <g transform="translate(388.294579 322.182437)scale(0.1 -0.1)">
       <use xlink:href="#DejaVuSans-56"/>
       <use x="63.623047" xlink:href="#DejaVuSans-52"/>
      </g>
     </g>
    </g>
    <g id="xtick_23">
     <g id="line2d_45">
      <path clip-path="url(#pdf35dfcba6)" d="M 410.707416 307.584 
L 410.707416 41.472 
" style="fill:none;stroke:#b0b0b0;stroke-dasharray:5.12,1.28,0.8,1.28;stroke-dashoffset:0;stroke-width:0.8;"/>
     </g>
     <g id="line2d_46">
      <g>
       <use style="stroke:#000000;stroke-width:0.8;" x="410.707416" xlink:href="#m2885f6a764" y="307.584"/>
      </g>
     </g>
     <g id="text_23">
      <!-- 88 -->
      <g transform="translate(404.344916 322.182437)scale(0.1 -0.1)">
       <use xlink:href="#DejaVuSans-56"/>
       <use x="63.623047" xlink:href="#DejaVuSans-56"/>
      </g>
     </g>
    </g>
    <g id="text_24">
     <!-- threads -->
     <g transform="translate(217.168594 335.860562)scale(0.1 -0.1)">
      <defs>
       <path d="M 18.3125 70.21875 
L 18.3125 54.6875 
L 36.8125 54.6875 
L 36.8125 47.703125 
L 18.3125 47.703125 
L 18.3125 18.015625 
Q 18.3125 11.328125 20.140625 9.421875 
Q 21.96875 7.515625 27.59375 7.515625 
L 36.8125 7.515625 
L 36.8125 0 
L 27.59375 0 
Q 17.1875 0 13.234375 3.875 
Q 9.28125 7.765625 9.28125 18.015625 
L 9.28125 47.703125 
L 2.6875 47.703125 
L 2.6875 54.6875 
L 9.28125 54.6875 
L 9.28125 70.21875 
z
" id="DejaVuSans-116"/>
       <path d="M 54.890625 33.015625 
L 54.890625 0 
L 45.90625 0 
L 45.90625 32.71875 
Q 45.90625 40.484375 42.875 44.328125 
Q 39.84375 48.1875 33.796875 48.1875 
Q 26.515625 48.1875 22.3125 43.546875 
Q 18.109375 38.921875 18.109375 30.90625 
L 18.109375 0 
L 9.078125 0 
L 9.078125 75.984375 
L 18.109375 75.984375 
L 18.109375 46.1875 
Q 21.34375 51.125 25.703125 53.5625 
Q 30.078125 56 35.796875 56 
Q 45.21875 56 50.046875 50.171875 
Q 54.890625 44.34375 54.890625 33.015625 
z
" id="DejaVuSans-104"/>
       <path d="M 41.109375 46.296875 
Q 39.59375 47.171875 37.8125 47.578125 
Q 36.03125 48 33.890625 48 
Q 26.265625 48 22.1875 43.046875 
Q 18.109375 38.09375 18.109375 28.8125 
L 18.109375 0 
L 9.078125 0 
L 9.078125 54.6875 
L 18.109375 54.6875 
L 18.109375 46.1875 
Q 20.953125 51.171875 25.484375 53.578125 
Q 30.03125 56 36.53125 56 
Q 37.453125 56 38.578125 55.875 
Q 39.703125 55.765625 41.0625 55.515625 
z
" id="DejaVuSans-114"/>
       <path d="M 56.203125 29.59375 
L 56.203125 25.203125 
L 14.890625 25.203125 
Q 15.484375 15.921875 20.484375 11.0625 
Q 25.484375 6.203125 34.421875 6.203125 
Q 39.59375 6.203125 44.453125 7.46875 
Q 49.3125 8.734375 54.109375 11.28125 
L 54.109375 2.78125 
Q 49.265625 0.734375 44.1875 -0.34375 
Q 39.109375 -1.421875 33.890625 -1.421875 
Q 20.796875 -1.421875 13.15625 6.1875 
Q 5.515625 13.8125 5.515625 26.8125 
Q 5.515625 40.234375 12.765625 48.109375 
Q 20.015625 56 32.328125 56 
Q 43.359375 56 49.78125 48.890625 
Q 56.203125 41.796875 56.203125 29.59375 
z
M 47.21875 32.234375 
Q 47.125 39.59375 43.09375 43.984375 
Q 39.0625 48.390625 32.421875 48.390625 
Q 24.90625 48.390625 20.390625 44.140625 
Q 15.875 39.890625 15.1875 32.171875 
z
" id="DejaVuSans-101"/>
       <path d="M 34.28125 27.484375 
Q 23.390625 27.484375 19.1875 25 
Q 14.984375 22.515625 14.984375 16.5 
Q 14.984375 11.71875 18.140625 8.90625 
Q 21.296875 6.109375 26.703125 6.109375 
Q 34.1875 6.109375 38.703125 11.40625 
Q 43.21875 16.703125 43.21875 25.484375 
L 43.21875 27.484375 
z
M 52.203125 31.203125 
L 52.203125 0 
L 43.21875 0 
L 43.21875 8.296875 
Q 40.140625 3.328125 35.546875 0.953125 
Q 30.953125 -1.421875 24.3125 -1.421875 
Q 15.921875 -1.421875 10.953125 3.296875 
Q 6 8.015625 6 15.921875 
Q 6 25.140625 12.171875 29.828125 
Q 18.359375 34.515625 30.609375 34.515625 
L 43.21875 34.515625 
L 43.21875 35.40625 
Q 43.21875 41.609375 39.140625 45 
Q 35.0625 48.390625 27.6875 48.390625 
Q 23 48.390625 18.546875 47.265625 
Q 14.109375 46.140625 10.015625 43.890625 
L 10.015625 52.203125 
Q 14.9375 54.109375 19.578125 55.046875 
Q 24.21875 56 28.609375 56 
Q 40.484375 56 46.34375 49.84375 
Q 52.203125 43.703125 52.203125 31.203125 
z
" id="DejaVuSans-97"/>
       <path d="M 45.40625 46.390625 
L 45.40625 75.984375 
L 54.390625 75.984375 
L 54.390625 0 
L 45.40625 0 
L 45.40625 8.203125 
Q 42.578125 3.328125 38.25 0.953125 
Q 33.9375 -1.421875 27.875 -1.421875 
Q 17.96875 -1.421875 11.734375 6.484375 
Q 5.515625 14.40625 5.515625 27.296875 
Q 5.515625 40.1875 11.734375 48.09375 
Q 17.96875 56 27.875 56 
Q 33.9375 56 38.25 53.625 
Q 42.578125 51.265625 45.40625 46.390625 
z
M 14.796875 27.296875 
Q 14.796875 17.390625 18.875 11.75 
Q 22.953125 6.109375 30.078125 6.109375 
Q 37.203125 6.109375 41.296875 11.75 
Q 45.40625 17.390625 45.40625 27.296875 
Q 45.40625 37.203125 41.296875 42.84375 
Q 37.203125 48.484375 30.078125 48.484375 
Q 22.953125 48.484375 18.875 42.84375 
Q 14.796875 37.203125 14.796875 27.296875 
z
" id="DejaVuSans-100"/>
       <path d="M 44.28125 53.078125 
L 44.28125 44.578125 
Q 40.484375 46.53125 36.375 47.5 
Q 32.28125 48.484375 27.875 48.484375 
Q 21.1875 48.484375 17.84375 46.4375 
Q 14.5 44.390625 14.5 40.28125 
Q 14.5 37.15625 16.890625 35.375 
Q 19.28125 33.59375 26.515625 31.984375 
L 29.59375 31.296875 
Q 39.15625 29.25 43.1875 25.515625 
Q 47.21875 21.78125 47.21875 15.09375 
Q 47.21875 7.46875 41.1875 3.015625 
Q 35.15625 -1.421875 24.609375 -1.421875 
Q 20.21875 -1.421875 15.453125 -0.5625 
Q 10.6875 0.296875 5.421875 2 
L 5.421875 11.28125 
Q 10.40625 8.6875 15.234375 7.390625 
Q 20.0625 6.109375 24.8125 6.109375 
Q 31.15625 6.109375 34.5625 8.28125 
Q 37.984375 10.453125 37.984375 14.40625 
Q 37.984375 18.0625 35.515625 20.015625 
Q 33.0625 21.96875 24.703125 23.78125 
L 21.578125 24.515625 
Q 13.234375 26.265625 9.515625 29.90625 
Q 5.8125 33.546875 5.8125 39.890625 
Q 5.8125 47.609375 11.28125 51.796875 
Q 16.75 56 26.8125 56 
Q 31.78125 56 36.171875 55.265625 
Q 40.578125 54.546875 44.28125 53.078125 
z
" id="DejaVuSans-115"/>
      </defs>
      <use xlink:href="#DejaVuSans-116"/>
      <use x="39.208984" xlink:href="#DejaVuSans-104"/>
      <use x="102.587891" xlink:href="#DejaVuSans-114"/>
      <use x="141.451172" xlink:href="#DejaVuSans-101"/>
      <use x="202.974609" xlink:href="#DejaVuSans-97"/>
      <use x="264.253906" xlink:href="#DejaVuSans-100"/>
      <use x="327.730469" xlink:href="#DejaVuSans-115"/>
     </g>
    </g>
   </g>
   <g id="matplotlib.axis_2">
    <g id="ytick_1">
     <g id="line2d_47">
      <path clip-path="url(#pdf35dfcba6)" d="M 57.6 274.39839 
L 414.72 274.39839 
" style="fill:none;stroke:#b0b0b0;stroke-dasharray:5.12,1.28,0.8,1.28;stroke-dashoffset:0;stroke-width:0.8;"/>
     </g>
     <g id="line2d_48">
      <defs>
       <path d="M 0 0 
L -3.5 0 
" id="me050bb0921" style="stroke:#000000;stroke-width:0.8;"/>
      </defs>
      <g>
       <use style="stroke:#000000;stroke-width:0.8;" x="57.6" xlink:href="#me050bb0921" y="274.39839"/>
      </g>
     </g>
     <g id="text_25">
      <!-- 0.1 -->
      <g transform="translate(34.696875 278.197609)scale(0.1 -0.1)">
       <defs>
        <path d="M 10.6875 12.40625 
L 21 12.40625 
L 21 0 
L 10.6875 0 
z
" id="DejaVuSans-46"/>
       </defs>
       <use xlink:href="#DejaVuSans-48"/>
       <use x="63.623047" xlink:href="#DejaVuSans-46"/>
       <use x="95.410156" xlink:href="#DejaVuSans-49"/>
      </g>
     </g>
    </g>
    <g id="ytick_2">
     <g id="line2d_49">
      <path clip-path="url(#pdf35dfcba6)" d="M 57.6 234.584157 
L 414.72 234.584157 
" style="fill:none;stroke:#b0b0b0;stroke-dasharray:5.12,1.28,0.8,1.28;stroke-dashoffset:0;stroke-width:0.8;"/>
     </g>
     <g id="line2d_50">
      <g>
       <use style="stroke:#000000;stroke-width:0.8;" x="57.6" xlink:href="#me050bb0921" y="234.584157"/>
      </g>
     </g>
     <g id="text_26">
      <!-- 0.2 -->
      <g transform="translate(34.696875 238.383376)scale(0.1 -0.1)">
       <use xlink:href="#DejaVuSans-48"/>
       <use x="63.623047" xlink:href="#DejaVuSans-46"/>
       <use x="95.410156" xlink:href="#DejaVuSans-50"/>
      </g>
     </g>
    </g>
    <g id="ytick_3">
     <g id="line2d_51">
      <path clip-path="url(#pdf35dfcba6)" d="M 57.6 194.769925 
L 414.72 194.769925 
" style="fill:none;stroke:#b0b0b0;stroke-dasharray:5.12,1.28,0.8,1.28;stroke-dashoffset:0;stroke-width:0.8;"/>
     </g>
     <g id="line2d_52">
      <g>
       <use style="stroke:#000000;stroke-width:0.8;" x="57.6" xlink:href="#me050bb0921" y="194.769925"/>
      </g>
     </g>
     <g id="text_27">
      <!-- 0.3 -->
      <g transform="translate(34.696875 198.569143)scale(0.1 -0.1)">
       <use xlink:href="#DejaVuSans-48"/>
       <use x="63.623047" xlink:href="#DejaVuSans-46"/>
       <use x="95.410156" xlink:href="#DejaVuSans-51"/>
      </g>
     </g>
    </g>
    <g id="ytick_4">
     <g id="line2d_53">
      <path clip-path="url(#pdf35dfcba6)" d="M 57.6 154.955692 
L 414.72 154.955692 
" style="fill:none;stroke:#b0b0b0;stroke-dasharray:5.12,1.28,0.8,1.28;stroke-dashoffset:0;stroke-width:0.8;"/>
     </g>
     <g id="line2d_54">
      <g>
       <use style="stroke:#000000;stroke-width:0.8;" x="57.6" xlink:href="#me050bb0921" y="154.955692"/>
      </g>
     </g>
     <g id="text_28">
      <!-- 0.4 -->
      <g transform="translate(34.696875 158.754911)scale(0.1 -0.1)">
       <use xlink:href="#DejaVuSans-48"/>
       <use x="63.623047" xlink:href="#DejaVuSans-46"/>
       <use x="95.410156" xlink:href="#DejaVuSans-52"/>
      </g>
     </g>
    </g>
    <g id="ytick_5">
     <g id="line2d_55">
      <path clip-path="url(#pdf35dfcba6)" d="M 57.6 115.141459 
L 414.72 115.141459 
" style="fill:none;stroke:#b0b0b0;stroke-dasharray:5.12,1.28,0.8,1.28;stroke-dashoffset:0;stroke-width:0.8;"/>
     </g>
     <g id="line2d_56">
      <g>
       <use style="stroke:#000000;stroke-width:0.8;" x="57.6" xlink:href="#me050bb0921" y="115.141459"/>
      </g>
     </g>
     <g id="text_29">
      <!-- 0.5 -->
      <g transform="translate(34.696875 118.940678)scale(0.1 -0.1)">
       <use xlink:href="#DejaVuSans-48"/>
       <use x="63.623047" xlink:href="#DejaVuSans-46"/>
       <use x="95.410156" xlink:href="#DejaVuSans-53"/>
      </g>
     </g>
    </g>
    <g id="ytick_6">
     <g id="line2d_57">
      <path clip-path="url(#pdf35dfcba6)" d="M 57.6 75.327227 
L 414.72 75.327227 
" style="fill:none;stroke:#b0b0b0;stroke-dasharray:5.12,1.28,0.8,1.28;stroke-dashoffset:0;stroke-width:0.8;"/>
     </g>
     <g id="line2d_58">
      <g>
       <use style="stroke:#000000;stroke-width:0.8;" x="57.6" xlink:href="#me050bb0921" y="75.327227"/>
      </g>
     </g>
     <g id="text_30">
      <!-- 0.6 -->
      <g transform="translate(34.696875 79.126445)scale(0.1 -0.1)">
       <use xlink:href="#DejaVuSans-48"/>
       <use x="63.623047" xlink:href="#DejaVuSans-46"/>
       <use x="95.410156" xlink:href="#DejaVuSans-54"/>
      </g>
     </g>
    </g>
    <g id="text_31">
     <!-- duration (s) -->
     <g transform="translate(28.617187 203.663156)rotate(-90)scale(0.1 -0.1)">
      <defs>
       <path d="M 8.5 21.578125 
L 8.5 54.6875 
L 17.484375 54.6875 
L 17.484375 21.921875 
Q 17.484375 14.15625 20.5 10.265625 
Q 23.53125 6.390625 29.59375 6.390625 
Q 36.859375 6.390625 41.078125 11.03125 
Q 45.3125 15.671875 45.3125 23.6875 
L 45.3125 54.6875 
L 54.296875 54.6875 
L 54.296875 0 
L 45.3125 0 
L 45.3125 8.40625 
Q 42.046875 3.421875 37.71875 1 
Q 33.40625 -1.421875 27.6875 -1.421875 
Q 18.265625 -1.421875 13.375 4.4375 
Q 8.5 10.296875 8.5 21.578125 
z
M 31.109375 56 
z
" id="DejaVuSans-117"/>
       <path d="M 9.421875 54.6875 
L 18.40625 54.6875 
L 18.40625 0 
L 9.421875 0 
z
M 9.421875 75.984375 
L 18.40625 75.984375 
L 18.40625 64.59375 
L 9.421875 64.59375 
z
" id="DejaVuSans-105"/>
       <path d="M 30.609375 48.390625 
Q 23.390625 48.390625 19.1875 42.75 
Q 14.984375 37.109375 14.984375 27.296875 
Q 14.984375 17.484375 19.15625 11.84375 
Q 23.34375 6.203125 30.609375 6.203125 
Q 37.796875 6.203125 41.984375 11.859375 
Q 46.1875 17.53125 46.1875 27.296875 
Q 46.1875 37.015625 41.984375 42.703125 
Q 37.796875 48.390625 30.609375 48.390625 
z
M 30.609375 56 
Q 42.328125 56 49.015625 48.375 
Q 55.71875 40.765625 55.71875 27.296875 
Q 55.71875 13.875 49.015625 6.21875 
Q 42.328125 -1.421875 30.609375 -1.421875 
Q 18.84375 -1.421875 12.171875 6.21875 
Q 5.515625 13.875 5.515625 27.296875 
Q 5.515625 40.765625 12.171875 48.375 
Q 18.84375 56 30.609375 56 
z
" id="DejaVuSans-111"/>
       <path d="M 54.890625 33.015625 
L 54.890625 0 
L 45.90625 0 
L 45.90625 32.71875 
Q 45.90625 40.484375 42.875 44.328125 
Q 39.84375 48.1875 33.796875 48.1875 
Q 26.515625 48.1875 22.3125 43.546875 
Q 18.109375 38.921875 18.109375 30.90625 
L 18.109375 0 
L 9.078125 0 
L 9.078125 54.6875 
L 18.109375 54.6875 
L 18.109375 46.1875 
Q 21.34375 51.125 25.703125 53.5625 
Q 30.078125 56 35.796875 56 
Q 45.21875 56 50.046875 50.171875 
Q 54.890625 44.34375 54.890625 33.015625 
z
" id="DejaVuSans-110"/>
       <path id="DejaVuSans-32"/>
       <path d="M 31 75.875 
Q 24.46875 64.65625 21.28125 53.65625 
Q 18.109375 42.671875 18.109375 31.390625 
Q 18.109375 20.125 21.3125 9.0625 
Q 24.515625 -2 31 -13.1875 
L 23.1875 -13.1875 
Q 15.875 -1.703125 12.234375 9.375 
Q 8.59375 20.453125 8.59375 31.390625 
Q 8.59375 42.28125 12.203125 53.3125 
Q 15.828125 64.359375 23.1875 75.875 
z
" id="DejaVuSans-40"/>
       <path d="M 8.015625 75.875 
L 15.828125 75.875 
Q 23.140625 64.359375 26.78125 53.3125 
Q 30.421875 42.28125 30.421875 31.390625 
Q 30.421875 20.453125 26.78125 9.375 
Q 23.140625 -1.703125 15.828125 -13.1875 
L 8.015625 -13.1875 
Q 14.5 -2 17.703125 9.0625 
Q 20.90625 20.125 20.90625 31.390625 
Q 20.90625 42.671875 17.703125 53.65625 
Q 14.5 64.65625 8.015625 75.875 
z
" id="DejaVuSans-41"/>
      </defs>
      <use xlink:href="#DejaVuSans-100"/>
      <use x="63.476562" xlink:href="#DejaVuSans-117"/>
      <use x="126.855469" xlink:href="#DejaVuSans-114"/>
      <use x="167.96875" xlink:href="#DejaVuSans-97"/>
      <use x="229.248047" xlink:href="#DejaVuSans-116"/>
      <use x="268.457031" xlink:href="#DejaVuSans-105"/>
      <use x="296.240234" xlink:href="#DejaVuSans-111"/>
      <use x="357.421875" xlink:href="#DejaVuSans-110"/>
      <use x="420.800781" xlink:href="#DejaVuSans-32"/>
      <use x="452.587891" xlink:href="#DejaVuSans-40"/>
      <use x="491.601562" xlink:href="#DejaVuSans-115"/>
      <use x="543.701172" xlink:href="#DejaVuSans-41"/>
     </g>
    </g>
   </g>
   <g id="line2d_59">
    <path clip-path="url(#pdf35dfcba6)" d="M 61.612584 66.468148 
L 65.625169 186.180033 
L 69.637753 227.268685 
L 73.650337 231.664165 
L 77.662921 243.337793 
L 81.675506 258.483856 
L 85.68809 264.55352 
L 89.700674 277.9487 
L 93.713258 274.979271 
L 97.725843 278.118995 
L 101.738427 282.110381 
L 105.751011 287.823319 
L 109.763596 285.587751 
L 113.77618 286.499122 
L 117.788764 288.04829 
L 121.801348 288.849833 
L 125.813933 291.649062 
L 129.826517 292.213294 
L 133.839101 290.693172 
L 137.851685 290.578124 
L 141.86427 290.749652 
L 145.876854 291.535248 
L 149.889438 293.2867 
L 153.902022 292.670735 
L 157.914607 293.422822 
L 161.927191 294.354127 
L 165.939775 295.488 
L 169.95236 295.184242 
L 173.964944 294.794007 
L 177.977528 292.663616 
L 181.990112 292.410737 
L 186.002697 292.732816 
L 190.015281 292.579607 
L 194.027865 292.41311 
L 198.040449 292.593087 
L 202.053034 292.403617 
L 206.065618 293.310621 
L 210.078202 293.020722 
L 214.090787 293.004395 
L 218.103371 290.956398 
L 222.115955 293.48215 
L 226.128539 293.460697 
L 230.141124 293.359887 
L 234.153708 293.498857 
L 238.166292 293.898204 
L 242.178876 293.237245 
L 246.191461 292.724462 
L 250.204045 293.811063 
L 254.216629 293.308533 
L 258.229213 294.451234 
L 262.241798 294.790874 
L 266.254382 294.925762 
L 270.266966 294.408233 
L 274.279551 294.629123 
L 278.292135 294.100488 
L 282.304719 294.591438 
L 286.317303 294.637951 
L 290.329888 294.156209 
L 294.342472 293.479777 
L 298.355056 294.751765 
L 302.36764 294.137129 
L 306.380225 294.530781 
L 310.392809 294.452848 
L 314.405393 294.413454 
L 318.417978 295.019737 
L 322.430562 294.609758 
L 326.443146 294.980344 
L 330.45573 294.539704 
L 334.468315 295.007397 
L 338.480899 294.55081 
L 342.493483 295.219648 
L 346.506067 294.685318 
L 350.518652 294.382794 
L 354.531236 294.403867 
L 358.54382 294.225883 
L 362.556404 294.626085 
L 366.568989 294.469934 
L 370.581573 293.885484 
L 374.594157 293.678074 
L 378.606742 294.438135 
L 382.619326 294.244584 
L 386.63191 293.731042 
L 390.644494 294.227402 
L 394.657079 293.971011 
L 398.669663 293.715379 
L 402.682247 281.515964 
L 406.694831 280.40791 
L 410.707416 277.444176 
" style="fill:none;stroke:#0000ff;stroke-dasharray:1.5,2.475;stroke-dashoffset:0;stroke-width:1.5;"/>
    <defs>
     <path d="M 0 1.5 
C 0.397805 1.5 0.77937 1.341951 1.06066 1.06066 
C 1.341951 0.77937 1.5 0.397805 1.5 0 
C 1.5 -0.397805 1.341951 -0.77937 1.06066 -1.06066 
C 0.77937 -1.341951 0.397805 -1.5 0 -1.5 
C -0.397805 -1.5 -0.77937 -1.341951 -1.06066 -1.06066 
C -1.341951 -0.77937 -1.5 -0.397805 -1.5 0 
C -1.5 0.397805 -1.341951 0.77937 -1.06066 1.06066 
C -0.77937 1.341951 -0.397805 1.5 0 1.5 
z
" id="md7c673beae" style="stroke:#0000ff;"/>
    </defs>
    <g clip-path="url(#pdf35dfcba6)">
     <use style="fill:#0000ff;stroke:#0000ff;" x="61.612584" xlink:href="#md7c673beae" y="66.468148"/>
     <use style="fill:#0000ff;stroke:#0000ff;" x="65.625169" xlink:href="#md7c673beae" y="186.180033"/>
     <use style="fill:#0000ff;stroke:#0000ff;" x="69.637753" xlink:href="#md7c673beae" y="227.268685"/>
     <use style="fill:#0000ff;stroke:#0000ff;" x="73.650337" xlink:href="#md7c673beae" y="231.664165"/>
     <use style="fill:#0000ff;stroke:#0000ff;" x="77.662921" xlink:href="#md7c673beae" y="243.337793"/>
     <use style="fill:#0000ff;stroke:#0000ff;" x="81.675506" xlink:href="#md7c673beae" y="258.483856"/>
     <use style="fill:#0000ff;stroke:#0000ff;" x="85.68809" xlink:href="#md7c673beae" y="264.55352"/>
     <use style="fill:#0000ff;stroke:#0000ff;" x="89.700674" xlink:href="#md7c673beae" y="277.9487"/>
     <use style="fill:#0000ff;stroke:#0000ff;" x="93.713258" xlink:href="#md7c673beae" y="274.979271"/>
     <use style="fill:#0000ff;stroke:#0000ff;" x="97.725843" xlink:href="#md7c673beae" y="278.118995"/>
     <use style="fill:#0000ff;stroke:#0000ff;" x="101.738427" xlink:href="#md7c673beae" y="282.110381"/>
     <use style="fill:#0000ff;stroke:#0000ff;" x="105.751011" xlink:href="#md7c673beae" y="287.823319"/>
     <use style="fill:#0000ff;stroke:#0000ff;" x="109.763596" xlink:href="#md7c673beae" y="285.587751"/>
     <use style="fill:#0000ff;stroke:#0000ff;" x="113.77618" xlink:href="#md7c673beae" y="286.499122"/>
     <use style="fill:#0000ff;stroke:#0000ff;" x="117.788764" xlink:href="#md7c673beae" y="288.04829"/>
     <use style="fill:#0000ff;stroke:#0000ff;" x="121.801348" xlink:href="#md7c673beae" y="288.849833"/>
     <use style="fill:#0000ff;stroke:#0000ff;" x="125.813933" xlink:href="#md7c673beae" y="291.649062"/>
     <use style="fill:#0000ff;stroke:#0000ff;" x="129.826517" xlink:href="#md7c673beae" y="292.213294"/>
     <use style="fill:#0000ff;stroke:#0000ff;" x="133.839101" xlink:href="#md7c673beae" y="290.693172"/>
     <use style="fill:#0000ff;stroke:#0000ff;" x="137.851685" xlink:href="#md7c673beae" y="290.578124"/>
     <use style="fill:#0000ff;stroke:#0000ff;" x="141.86427" xlink:href="#md7c673beae" y="290.749652"/>
     <use style="fill:#0000ff;stroke:#0000ff;" x="145.876854" xlink:href="#md7c673beae" y="291.535248"/>
     <use style="fill:#0000ff;stroke:#0000ff;" x="149.889438" xlink:href="#md7c673beae" y="293.2867"/>
     <use style="fill:#0000ff;stroke:#0000ff;" x="153.902022" xlink:href="#md7c673beae" y="292.670735"/>
     <use style="fill:#0000ff;stroke:#0000ff;" x="157.914607" xlink:href="#md7c673beae" y="293.422822"/>
     <use style="fill:#0000ff;stroke:#0000ff;" x="161.927191" xlink:href="#md7c673beae" y="294.354127"/>
     <use style="fill:#0000ff;stroke:#0000ff;" x="165.939775" xlink:href="#md7c673beae" y="295.488"/>
     <use style="fill:#0000ff;stroke:#0000ff;" x="169.95236" xlink:href="#md7c673beae" y="295.184242"/>
     <use style="fill:#0000ff;stroke:#0000ff;" x="173.964944" xlink:href="#md7c673beae" y="294.794007"/>
     <use style="fill:#0000ff;stroke:#0000ff;" x="177.977528" xlink:href="#md7c673beae" y="292.663616"/>
     <use style="fill:#0000ff;stroke:#0000ff;" x="181.990112" xlink:href="#md7c673beae" y="292.410737"/>
     <use style="fill:#0000ff;stroke:#0000ff;" x="186.002697" xlink:href="#md7c673beae" y="292.732816"/>
     <use style="fill:#0000ff;stroke:#0000ff;" x="190.015281" xlink:href="#md7c673beae" y="292.579607"/>
     <use style="fill:#0000ff;stroke:#0000ff;" x="194.027865" xlink:href="#md7c673beae" y="292.41311"/>
     <use style="fill:#0000ff;stroke:#0000ff;" x="198.040449" xlink:href="#md7c673beae" y="292.593087"/>
     <use style="fill:#0000ff;stroke:#0000ff;" x="202.053034" xlink:href="#md7c673beae" y="292.403617"/>
     <use style="fill:#0000ff;stroke:#0000ff;" x="206.065618" xlink:href="#md7c673beae" y="293.310621"/>
     <use style="fill:#0000ff;stroke:#0000ff;" x="210.078202" xlink:href="#md7c673beae" y="293.020722"/>
     <use style="fill:#0000ff;stroke:#0000ff;" x="214.090787" xlink:href="#md7c673beae" y="293.004395"/>
     <use style="fill:#0000ff;stroke:#0000ff;" x="218.103371" xlink:href="#md7c673beae" y="290.956398"/>
     <use style="fill:#0000ff;stroke:#0000ff;" x="222.115955" xlink:href="#md7c673beae" y="293.48215"/>
     <use style="fill:#0000ff;stroke:#0000ff;" x="226.128539" xlink:href="#md7c673beae" y="293.460697"/>
     <use style="fill:#0000ff;stroke:#0000ff;" x="230.141124" xlink:href="#md7c673beae" y="293.359887"/>
     <use style="fill:#0000ff;stroke:#0000ff;" x="234.153708" xlink:href="#md7c673beae" y="293.498857"/>
     <use style="fill:#0000ff;stroke:#0000ff;" x="238.166292" xlink:href="#md7c673beae" y="293.898204"/>
     <use style="fill:#0000ff;stroke:#0000ff;" x="242.178876" xlink:href="#md7c673beae" y="293.237245"/>
     <use style="fill:#0000ff;stroke:#0000ff;" x="246.191461" xlink:href="#md7c673beae" y="292.724462"/>
     <use style="fill:#0000ff;stroke:#0000ff;" x="250.204045" xlink:href="#md7c673beae" y="293.811063"/>
     <use style="fill:#0000ff;stroke:#0000ff;" x="254.216629" xlink:href="#md7c673beae" y="293.308533"/>
     <use style="fill:#0000ff;stroke:#0000ff;" x="258.229213" xlink:href="#md7c673beae" y="294.451234"/>
     <use style="fill:#0000ff;stroke:#0000ff;" x="262.241798" xlink:href="#md7c673beae" y="294.790874"/>
     <use style="fill:#0000ff;stroke:#0000ff;" x="266.254382" xlink:href="#md7c673beae" y="294.925762"/>
     <use style="fill:#0000ff;stroke:#0000ff;" x="270.266966" xlink:href="#md7c673beae" y="294.408233"/>
     <use style="fill:#0000ff;stroke:#0000ff;" x="274.279551" xlink:href="#md7c673beae" y="294.629123"/>
     <use style="fill:#0000ff;stroke:#0000ff;" x="278.292135" xlink:href="#md7c673beae" y="294.100488"/>
     <use style="fill:#0000ff;stroke:#0000ff;" x="282.304719" xlink:href="#md7c673beae" y="294.591438"/>
     <use style="fill:#0000ff;stroke:#0000ff;" x="286.317303" xlink:href="#md7c673beae" y="294.637951"/>
     <use style="fill:#0000ff;stroke:#0000ff;" x="290.329888" xlink:href="#md7c673beae" y="294.156209"/>
     <use style="fill:#0000ff;stroke:#0000ff;" x="294.342472" xlink:href="#md7c673beae" y="293.479777"/>
     <use style="fill:#0000ff;stroke:#0000ff;" x="298.355056" xlink:href="#md7c673beae" y="294.751765"/>
     <use style="fill:#0000ff;stroke:#0000ff;" x="302.36764" xlink:href="#md7c673beae" y="294.137129"/>
     <use style="fill:#0000ff;stroke:#0000ff;" x="306.380225" xlink:href="#md7c673beae" y="294.530781"/>
     <use style="fill:#0000ff;stroke:#0000ff;" x="310.392809" xlink:href="#md7c673beae" y="294.452848"/>
     <use style="fill:#0000ff;stroke:#0000ff;" x="314.405393" xlink:href="#md7c673beae" y="294.413454"/>
     <use style="fill:#0000ff;stroke:#0000ff;" x="318.417978" xlink:href="#md7c673beae" y="295.019737"/>
     <use style="fill:#0000ff;stroke:#0000ff;" x="322.430562" xlink:href="#md7c673beae" y="294.609758"/>
     <use style="fill:#0000ff;stroke:#0000ff;" x="326.443146" xlink:href="#md7c673beae" y="294.980344"/>
     <use style="fill:#0000ff;stroke:#0000ff;" x="330.45573" xlink:href="#md7c673beae" y="294.539704"/>
     <use style="fill:#0000ff;stroke:#0000ff;" x="334.468315" xlink:href="#md7c673beae" y="295.007397"/>
     <use style="fill:#0000ff;stroke:#0000ff;" x="338.480899" xlink:href="#md7c673beae" y="294.55081"/>
     <use style="fill:#0000ff;stroke:#0000ff;" x="342.493483" xlink:href="#md7c673beae" y="295.219648"/>
     <use style="fill:#0000ff;stroke:#0000ff;" x="346.506067" xlink:href="#md7c673beae" y="294.685318"/>
     <use style="fill:#0000ff;stroke:#0000ff;" x="350.518652" xlink:href="#md7c673beae" y="294.382794"/>
     <use style="fill:#0000ff;stroke:#0000ff;" x="354.531236" xlink:href="#md7c673beae" y="294.403867"/>
     <use style="fill:#0000ff;stroke:#0000ff;" x="358.54382" xlink:href="#md7c673beae" y="294.225883"/>
     <use style="fill:#0000ff;stroke:#0000ff;" x="362.556404" xlink:href="#md7c673beae" y="294.626085"/>
     <use style="fill:#0000ff;stroke:#0000ff;" x="366.568989" xlink:href="#md7c673beae" y="294.469934"/>
     <use style="fill:#0000ff;stroke:#0000ff;" x="370.581573" xlink:href="#md7c673beae" y="293.885484"/>
     <use style="fill:#0000ff;stroke:#0000ff;" x="374.594157" xlink:href="#md7c673beae" y="293.678074"/>
     <use style="fill:#0000ff;stroke:#0000ff;" x="378.606742" xlink:href="#md7c673beae" y="294.438135"/>
     <use style="fill:#0000ff;stroke:#0000ff;" x="382.619326" xlink:href="#md7c673beae" y="294.244584"/>
     <use style="fill:#0000ff;stroke:#0000ff;" x="386.63191" xlink:href="#md7c673beae" y="293.731042"/>
     <use style="fill:#0000ff;stroke:#0000ff;" x="390.644494" xlink:href="#md7c673beae" y="294.227402"/>
     <use style="fill:#0000ff;stroke:#0000ff;" x="394.657079" xlink:href="#md7c673beae" y="293.971011"/>
     <use style="fill:#0000ff;stroke:#0000ff;" x="398.669663" xlink:href="#md7c673beae" y="293.715379"/>
     <use style="fill:#0000ff;stroke:#0000ff;" x="402.682247" xlink:href="#md7c673beae" y="281.515964"/>
     <use style="fill:#0000ff;stroke:#0000ff;" x="406.694831" xlink:href="#md7c673beae" y="280.40791"/>
     <use style="fill:#0000ff;stroke:#0000ff;" x="410.707416" xlink:href="#md7c673beae" y="277.444176"/>
    </g>
   </g>
   <g id="line2d_60">
    <path clip-path="url(#pdf35dfcba6)" d="M 61.612584 53.568 
L 65.625169 179.509497 
L 69.637753 222.770496 
L 73.650337 244.334311 
L 77.662921 257.223353 
L 81.675506 265.78697 
L 85.68809 272.329643 
L 89.700674 276.851752 
L 93.713258 270.540315 
L 97.725843 272.730984 
L 101.738427 285.69606 
L 105.751011 286.822055 
L 109.763596 283.235522 
L 113.77618 282.185277 
L 117.788764 284.918534 
L 121.801348 286.843128 
L 125.813933 286.968903 
L 129.826517 286.820062 
L 133.839101 282.598483 
L 137.851685 282.598863 
L 141.86427 280.91718 
L 145.876854 289.063128 
L 149.889438 287.48292 
L 153.902022 286.697324 
L 157.914607 289.46333 
L 161.927191 287.471813 
L 165.939775 289.792528 
L 169.95236 288.609294 
L 173.964944 287.771965 
L 177.977528 284.298202 
L 181.990112 276.771636 
L 186.002697 281.857977 
L 190.015281 287.469345 
L 194.027865 285.966026 
L 198.040449 281.551466 
L 202.053034 284.724603 
L 206.065618 282.741439 
L 210.078202 281.277513 
L 214.090787 281.025109 
L 218.103371 286.43818 
L 222.115955 276.48392 
L 226.128539 278.380986 
L 230.141124 278.037075 
L 234.153708 285.82829 
L 238.166292 287.676471 
L 242.178876 278.220184 
L 246.191461 284.798264 
L 250.204045 288.272122 
L 254.216629 281.610414 
L 258.229213 286.550476 
L 262.241798 283.239129 
L 266.254382 287.45112 
L 270.266966 287.190267 
L 274.279551 279.328998 
L 278.292135 287.745766 
L 282.304719 282.90471 
L 286.317303 280.288495 
L 290.329888 282.857247 
L 294.342472 289.096637 
L 298.355056 283.687078 
L 302.36764 286.631352 
L 306.380225 280.157119 
L 310.392809 288.606541 
L 314.405393 288.649447 
L 318.417978 280.129686 
L 322.430562 280.25062 
L 326.443146 282.988338 
L 330.45573 285.028361 
L 334.468315 283.540134 
L 338.480899 280.864212 
L 342.493483 288.026363 
L 346.506067 284.656922 
L 350.518652 284.74729 
L 354.531236 282.926163 
L 358.54382 279.983502 
L 362.556404 279.580548 
L 366.568989 283.966061 
L 370.581573 282.15547 
L 374.594157 282.733466 
L 378.606742 283.044818 
L 382.619326 280.047292 
L 386.63191 282.339339 
L 390.644494 283.151608 
L 394.657079 280.191767 
L 398.669663 282.470715 
L 402.682247 269.391729 
L 406.694831 271.066292 
L 410.707416 267.89306 
" style="fill:none;stroke:#ff0000;stroke-dasharray:1.5,2.475;stroke-dashoffset:0;stroke-width:1.5;"/>
    <defs>
     <path d="M 0 1.5 
C 0.397805 1.5 0.77937 1.341951 1.06066 1.06066 
C 1.341951 0.77937 1.5 0.397805 1.5 0 
C 1.5 -0.397805 1.341951 -0.77937 1.06066 -1.06066 
C 0.77937 -1.341951 0.397805 -1.5 0 -1.5 
C -0.397805 -1.5 -0.77937 -1.341951 -1.06066 -1.06066 
C -1.341951 -0.77937 -1.5 -0.397805 -1.5 0 
C -1.5 0.397805 -1.341951 0.77937 -1.06066 1.06066 
C -0.77937 1.341951 -0.397805 1.5 0 1.5 
z
" id="m93d044e19c" style="stroke:#ff0000;"/>
    </defs>
    <g clip-path="url(#pdf35dfcba6)">
     <use style="fill:#ff0000;stroke:#ff0000;" x="61.612584" xlink:href="#m93d044e19c" y="53.568"/>
     <use style="fill:#ff0000;stroke:#ff0000;" x="65.625169" xlink:href="#m93d044e19c" y="179.509497"/>
     <use style="fill:#ff0000;stroke:#ff0000;" x="69.637753" xlink:href="#m93d044e19c" y="222.770496"/>
     <use style="fill:#ff0000;stroke:#ff0000;" x="73.650337" xlink:href="#m93d044e19c" y="244.334311"/>
     <use style="fill:#ff0000;stroke:#ff0000;" x="77.662921" xlink:href="#m93d044e19c" y="257.223353"/>
     <use style="fill:#ff0000;stroke:#ff0000;" x="81.675506" xlink:href="#m93d044e19c" y="265.78697"/>
     <use style="fill:#ff0000;stroke:#ff0000;" x="85.68809" xlink:href="#m93d044e19c" y="272.329643"/>
     <use style="fill:#ff0000;stroke:#ff0000;" x="89.700674" xlink:href="#m93d044e19c" y="276.851752"/>
     <use style="fill:#ff0000;stroke:#ff0000;" x="93.713258" xlink:href="#m93d044e19c" y="270.540315"/>
     <use style="fill:#ff0000;stroke:#ff0000;" x="97.725843" xlink:href="#m93d044e19c" y="272.730984"/>
     <use style="fill:#ff0000;stroke:#ff0000;" x="101.738427" xlink:href="#m93d044e19c" y="285.69606"/>
     <use style="fill:#ff0000;stroke:#ff0000;" x="105.751011" xlink:href="#m93d044e19c" y="286.822055"/>
     <use style="fill:#ff0000;stroke:#ff0000;" x="109.763596" xlink:href="#m93d044e19c" y="283.235522"/>
     <use style="fill:#ff0000;stroke:#ff0000;" x="113.77618" xlink:href="#m93d044e19c" y="282.185277"/>
     <use style="fill:#ff0000;stroke:#ff0000;" x="117.788764" xlink:href="#m93d044e19c" y="284.918534"/>
     <use style="fill:#ff0000;stroke:#ff0000;" x="121.801348" xlink:href="#m93d044e19c" y="286.843128"/>
     <use style="fill:#ff0000;stroke:#ff0000;" x="125.813933" xlink:href="#m93d044e19c" y="286.968903"/>
     <use style="fill:#ff0000;stroke:#ff0000;" x="129.826517" xlink:href="#m93d044e19c" y="286.820062"/>
     <use style="fill:#ff0000;stroke:#ff0000;" x="133.839101" xlink:href="#m93d044e19c" y="282.598483"/>
     <use style="fill:#ff0000;stroke:#ff0000;" x="137.851685" xlink:href="#m93d044e19c" y="282.598863"/>
     <use style="fill:#ff0000;stroke:#ff0000;" x="141.86427" xlink:href="#m93d044e19c" y="280.91718"/>
     <use style="fill:#ff0000;stroke:#ff0000;" x="145.876854" xlink:href="#m93d044e19c" y="289.063128"/>
     <use style="fill:#ff0000;stroke:#ff0000;" x="149.889438" xlink:href="#m93d044e19c" y="287.48292"/>
     <use style="fill:#ff0000;stroke:#ff0000;" x="153.902022" xlink:href="#m93d044e19c" y="286.697324"/>
     <use style="fill:#ff0000;stroke:#ff0000;" x="157.914607" xlink:href="#m93d044e19c" y="289.46333"/>
     <use style="fill:#ff0000;stroke:#ff0000;" x="161.927191" xlink:href="#m93d044e19c" y="287.471813"/>
     <use style="fill:#ff0000;stroke:#ff0000;" x="165.939775" xlink:href="#m93d044e19c" y="289.792528"/>
     <use style="fill:#ff0000;stroke:#ff0000;" x="169.95236" xlink:href="#m93d044e19c" y="288.609294"/>
     <use style="fill:#ff0000;stroke:#ff0000;" x="173.964944" xlink:href="#m93d044e19c" y="287.771965"/>
     <use style="fill:#ff0000;stroke:#ff0000;" x="177.977528" xlink:href="#m93d044e19c" y="284.298202"/>
     <use style="fill:#ff0000;stroke:#ff0000;" x="181.990112" xlink:href="#m93d044e19c" y="276.771636"/>
     <use style="fill:#ff0000;stroke:#ff0000;" x="186.002697" xlink:href="#m93d044e19c" y="281.857977"/>
     <use style="fill:#ff0000;stroke:#ff0000;" x="190.015281" xlink:href="#m93d044e19c" y="287.469345"/>
     <use style="fill:#ff0000;stroke:#ff0000;" x="194.027865" xlink:href="#m93d044e19c" y="285.966026"/>
     <use style="fill:#ff0000;stroke:#ff0000;" x="198.040449" xlink:href="#m93d044e19c" y="281.551466"/>
     <use style="fill:#ff0000;stroke:#ff0000;" x="202.053034" xlink:href="#m93d044e19c" y="284.724603"/>
     <use style="fill:#ff0000;stroke:#ff0000;" x="206.065618" xlink:href="#m93d044e19c" y="282.741439"/>
     <use style="fill:#ff0000;stroke:#ff0000;" x="210.078202" xlink:href="#m93d044e19c" y="281.277513"/>
     <use style="fill:#ff0000;stroke:#ff0000;" x="214.090787" xlink:href="#m93d044e19c" y="281.025109"/>
     <use style="fill:#ff0000;stroke:#ff0000;" x="218.103371" xlink:href="#m93d044e19c" y="286.43818"/>
     <use style="fill:#ff0000;stroke:#ff0000;" x="222.115955" xlink:href="#m93d044e19c" y="276.48392"/>
     <use style="fill:#ff0000;stroke:#ff0000;" x="226.128539" xlink:href="#m93d044e19c" y="278.380986"/>
     <use style="fill:#ff0000;stroke:#ff0000;" x="230.141124" xlink:href="#m93d044e19c" y="278.037075"/>
     <use style="fill:#ff0000;stroke:#ff0000;" x="234.153708" xlink:href="#m93d044e19c" y="285.82829"/>
     <use style="fill:#ff0000;stroke:#ff0000;" x="238.166292" xlink:href="#m93d044e19c" y="287.676471"/>
     <use style="fill:#ff0000;stroke:#ff0000;" x="242.178876" xlink:href="#m93d044e19c" y="278.220184"/>
     <use style="fill:#ff0000;stroke:#ff0000;" x="246.191461" xlink:href="#m93d044e19c" y="284.798264"/>
     <use style="fill:#ff0000;stroke:#ff0000;" x="250.204045" xlink:href="#m93d044e19c" y="288.272122"/>
     <use style="fill:#ff0000;stroke:#ff0000;" x="254.216629" xlink:href="#m93d044e19c" y="281.610414"/>
     <use style="fill:#ff0000;stroke:#ff0000;" x="258.229213" xlink:href="#m93d044e19c" y="286.550476"/>
     <use style="fill:#ff0000;stroke:#ff0000;" x="262.241798" xlink:href="#m93d044e19c" y="283.239129"/>
     <use style="fill:#ff0000;stroke:#ff0000;" x="266.254382" xlink:href="#m93d044e19c" y="287.45112"/>
     <use style="fill:#ff0000;stroke:#ff0000;" x="270.266966" xlink:href="#m93d044e19c" y="287.190267"/>
     <use style="fill:#ff0000;stroke:#ff0000;" x="274.279551" xlink:href="#m93d044e19c" y="279.328998"/>
     <use style="fill:#ff0000;stroke:#ff0000;" x="278.292135" xlink:href="#m93d044e19c" y="287.745766"/>
     <use style="fill:#ff0000;stroke:#ff0000;" x="282.304719" xlink:href="#m93d044e19c" y="282.90471"/>
     <use style="fill:#ff0000;stroke:#ff0000;" x="286.317303" xlink:href="#m93d044e19c" y="280.288495"/>
     <use style="fill:#ff0000;stroke:#ff0000;" x="290.329888" xlink:href="#m93d044e19c" y="282.857247"/>
     <use style="fill:#ff0000;stroke:#ff0000;" x="294.342472" xlink:href="#m93d044e19c" y="289.096637"/>
     <use style="fill:#ff0000;stroke:#ff0000;" x="298.355056" xlink:href="#m93d044e19c" y="283.687078"/>
     <use style="fill:#ff0000;stroke:#ff0000;" x="302.36764" xlink:href="#m93d044e19c" y="286.631352"/>
     <use style="fill:#ff0000;stroke:#ff0000;" x="306.380225" xlink:href="#m93d044e19c" y="280.157119"/>
     <use style="fill:#ff0000;stroke:#ff0000;" x="310.392809" xlink:href="#m93d044e19c" y="288.606541"/>
     <use style="fill:#ff0000;stroke:#ff0000;" x="314.405393" xlink:href="#m93d044e19c" y="288.649447"/>
     <use style="fill:#ff0000;stroke:#ff0000;" x="318.417978" xlink:href="#m93d044e19c" y="280.129686"/>
     <use style="fill:#ff0000;stroke:#ff0000;" x="322.430562" xlink:href="#m93d044e19c" y="280.25062"/>
     <use style="fill:#ff0000;stroke:#ff0000;" x="326.443146" xlink:href="#m93d044e19c" y="282.988338"/>
     <use style="fill:#ff0000;stroke:#ff0000;" x="330.45573" xlink:href="#m93d044e19c" y="285.028361"/>
     <use style="fill:#ff0000;stroke:#ff0000;" x="334.468315" xlink:href="#m93d044e19c" y="283.540134"/>
     <use style="fill:#ff0000;stroke:#ff0000;" x="338.480899" xlink:href="#m93d044e19c" y="280.864212"/>
     <use style="fill:#ff0000;stroke:#ff0000;" x="342.493483" xlink:href="#m93d044e19c" y="288.026363"/>
     <use style="fill:#ff0000;stroke:#ff0000;" x="346.506067" xlink:href="#m93d044e19c" y="284.656922"/>
     <use style="fill:#ff0000;stroke:#ff0000;" x="350.518652" xlink:href="#m93d044e19c" y="284.74729"/>
     <use style="fill:#ff0000;stroke:#ff0000;" x="354.531236" xlink:href="#m93d044e19c" y="282.926163"/>
     <use style="fill:#ff0000;stroke:#ff0000;" x="358.54382" xlink:href="#m93d044e19c" y="279.983502"/>
     <use style="fill:#ff0000;stroke:#ff0000;" x="362.556404" xlink:href="#m93d044e19c" y="279.580548"/>
     <use style="fill:#ff0000;stroke:#ff0000;" x="366.568989" xlink:href="#m93d044e19c" y="283.966061"/>
     <use style="fill:#ff0000;stroke:#ff0000;" x="370.581573" xlink:href="#m93d044e19c" y="282.15547"/>
     <use style="fill:#ff0000;stroke:#ff0000;" x="374.594157" xlink:href="#m93d044e19c" y="282.733466"/>
     <use style="fill:#ff0000;stroke:#ff0000;" x="378.606742" xlink:href="#m93d044e19c" y="283.044818"/>
     <use style="fill:#ff0000;stroke:#ff0000;" x="382.619326" xlink:href="#m93d044e19c" y="280.047292"/>
     <use style="fill:#ff0000;stroke:#ff0000;" x="386.63191" xlink:href="#m93d044e19c" y="282.339339"/>
     <use style="fill:#ff0000;stroke:#ff0000;" x="390.644494" xlink:href="#m93d044e19c" y="283.151608"/>
     <use style="fill:#ff0000;stroke:#ff0000;" x="394.657079" xlink:href="#m93d044e19c" y="280.191767"/>
     <use style="fill:#ff0000;stroke:#ff0000;" x="398.669663" xlink:href="#m93d044e19c" y="282.470715"/>
     <use style="fill:#ff0000;stroke:#ff0000;" x="402.682247" xlink:href="#m93d044e19c" y="269.391729"/>
     <use style="fill:#ff0000;stroke:#ff0000;" x="406.694831" xlink:href="#m93d044e19c" y="271.066292"/>
     <use style="fill:#ff0000;stroke:#ff0000;" x="410.707416" xlink:href="#m93d044e19c" y="267.89306"/>
    </g>
   </g>
   <g id="line2d_61">
    <path clip-path="url(#pdf35dfcba6)" d="M 61.612584 60.018074 
L 65.625169 182.844765 
L 69.637753 225.01959 
L 73.650337 237.999238 
L 77.662921 250.280573 
L 81.675506 262.135413 
L 85.68809 268.441581 
L 89.700674 277.400226 
L 93.713258 272.759793 
L 97.725843 275.424989 
L 101.738427 283.903221 
L 105.751011 287.322687 
L 109.763596 284.411637 
L 113.77618 284.342199 
L 117.788764 286.483412 
L 121.801348 287.846481 
L 125.813933 289.308983 
L 129.826517 289.516678 
L 133.839101 286.645828 
L 137.851685 286.588493 
L 141.86427 285.833416 
L 145.876854 290.299188 
L 149.889438 290.38481 
L 153.902022 289.68403 
L 157.914607 291.443076 
L 161.927191 290.91297 
L 165.939775 292.640264 
L 169.95236 291.896768 
L 173.964944 291.282986 
L 177.977528 288.480909 
L 181.990112 284.591186 
L 186.002697 287.295396 
L 190.015281 290.024476 
L 194.027865 289.189568 
L 198.040449 287.072276 
L 202.053034 288.56411 
L 206.065618 288.02603 
L 210.078202 287.149118 
L 214.090787 287.014752 
L 218.103371 288.697289 
L 222.115955 284.983035 
L 226.128539 285.920842 
L 230.141124 285.698481 
L 234.153708 289.663573 
L 238.166292 290.787337 
L 242.178876 285.728714 
L 246.191461 288.761363 
L 250.204045 291.041593 
L 254.216629 287.459473 
L 258.229213 290.500855 
L 262.241798 289.015002 
L 266.254382 291.188441 
L 270.266966 290.79925 
L 274.279551 286.97906 
L 278.292135 290.923127 
L 282.304719 288.748074 
L 286.317303 287.463223 
L 290.329888 288.506728 
L 294.342472 291.288207 
L 298.355056 289.219422 
L 302.36764 290.38424 
L 306.380225 287.34395 
L 310.392809 291.529695 
L 314.405393 291.531451 
L 318.417978 287.574712 
L 322.430562 287.430189 
L 326.443146 288.984341 
L 330.45573 289.784033 
L 334.468315 289.273766 
L 338.480899 287.707511 
L 342.493483 291.623005 
L 346.506067 289.67112 
L 350.518652 289.565042 
L 354.531236 288.665015 
L 358.54382 287.104693 
L 362.556404 287.103316 
L 366.568989 289.217998 
L 370.581573 288.020477 
L 374.594157 288.20577 
L 378.606742 288.741477 
L 382.619326 287.145938 
L 386.63191 288.035191 
L 390.644494 288.689505 
L 394.657079 287.081389 
L 398.669663 288.093047 
L 402.682247 275.453846 
L 406.694831 275.737101 
L 410.707416 272.668618 
" style="fill:none;stroke:#008000;stroke-dasharray:1.5,2.475;stroke-dashoffset:0;stroke-width:1.5;"/>
    <defs>
     <path d="M 0 1.5 
C 0.397805 1.5 0.77937 1.341951 1.06066 1.06066 
C 1.341951 0.77937 1.5 0.397805 1.5 0 
C 1.5 -0.397805 1.341951 -0.77937 1.06066 -1.06066 
C 0.77937 -1.341951 0.397805 -1.5 0 -1.5 
C -0.397805 -1.5 -0.77937 -1.341951 -1.06066 -1.06066 
C -1.341951 -0.77937 -1.5 -0.397805 -1.5 0 
C -1.5 0.397805 -1.341951 0.77937 -1.06066 1.06066 
C -0.77937 1.341951 -0.397805 1.5 0 1.5 
z
" id="mb1fab94eac" style="stroke:#008000;"/>
    </defs>
    <g clip-path="url(#pdf35dfcba6)">
     <use style="fill:#008000;stroke:#008000;" x="61.612584" xlink:href="#mb1fab94eac" y="60.018074"/>
     <use style="fill:#008000;stroke:#008000;" x="65.625169" xlink:href="#mb1fab94eac" y="182.844765"/>
     <use style="fill:#008000;stroke:#008000;" x="69.637753" xlink:href="#mb1fab94eac" y="225.01959"/>
     <use style="fill:#008000;stroke:#008000;" x="73.650337" xlink:href="#mb1fab94eac" y="237.999238"/>
     <use style="fill:#008000;stroke:#008000;" x="77.662921" xlink:href="#mb1fab94eac" y="250.280573"/>
     <use style="fill:#008000;stroke:#008000;" x="81.675506" xlink:href="#mb1fab94eac" y="262.135413"/>
     <use style="fill:#008000;stroke:#008000;" x="85.68809" xlink:href="#mb1fab94eac" y="268.441581"/>
     <use style="fill:#008000;stroke:#008000;" x="89.700674" xlink:href="#mb1fab94eac" y="277.400226"/>
     <use style="fill:#008000;stroke:#008000;" x="93.713258" xlink:href="#mb1fab94eac" y="272.759793"/>
     <use style="fill:#008000;stroke:#008000;" x="97.725843" xlink:href="#mb1fab94eac" y="275.424989"/>
     <use style="fill:#008000;stroke:#008000;" x="101.738427" xlink:href="#mb1fab94eac" y="283.903221"/>
     <use style="fill:#008000;stroke:#008000;" x="105.751011" xlink:href="#mb1fab94eac" y="287.322687"/>
     <use style="fill:#008000;stroke:#008000;" x="109.763596" xlink:href="#mb1fab94eac" y="284.411637"/>
     <use style="fill:#008000;stroke:#008000;" x="113.77618" xlink:href="#mb1fab94eac" y="284.342199"/>
     <use style="fill:#008000;stroke:#008000;" x="117.788764" xlink:href="#mb1fab94eac" y="286.483412"/>
     <use style="fill:#008000;stroke:#008000;" x="121.801348" xlink:href="#mb1fab94eac" y="287.846481"/>
     <use style="fill:#008000;stroke:#008000;" x="125.813933" xlink:href="#mb1fab94eac" y="289.308983"/>
     <use style="fill:#008000;stroke:#008000;" x="129.826517" xlink:href="#mb1fab94eac" y="289.516678"/>
     <use style="fill:#008000;stroke:#008000;" x="133.839101" xlink:href="#mb1fab94eac" y="286.645828"/>
     <use style="fill:#008000;stroke:#008000;" x="137.851685" xlink:href="#mb1fab94eac" y="286.588493"/>
     <use style="fill:#008000;stroke:#008000;" x="141.86427" xlink:href="#mb1fab94eac" y="285.833416"/>
     <use style="fill:#008000;stroke:#008000;" x="145.876854" xlink:href="#mb1fab94eac" y="290.299188"/>
     <use style="fill:#008000;stroke:#008000;" x="149.889438" xlink:href="#mb1fab94eac" y="290.38481"/>
     <use style="fill:#008000;stroke:#008000;" x="153.902022" xlink:href="#mb1fab94eac" y="289.68403"/>
     <use style="fill:#008000;stroke:#008000;" x="157.914607" xlink:href="#mb1fab94eac" y="291.443076"/>
     <use style="fill:#008000;stroke:#008000;" x="161.927191" xlink:href="#mb1fab94eac" y="290.91297"/>
     <use style="fill:#008000;stroke:#008000;" x="165.939775" xlink:href="#mb1fab94eac" y="292.640264"/>
     <use style="fill:#008000;stroke:#008000;" x="169.95236" xlink:href="#mb1fab94eac" y="291.896768"/>
     <use style="fill:#008000;stroke:#008000;" x="173.964944" xlink:href="#mb1fab94eac" y="291.282986"/>
     <use style="fill:#008000;stroke:#008000;" x="177.977528" xlink:href="#mb1fab94eac" y="288.480909"/>
     <use style="fill:#008000;stroke:#008000;" x="181.990112" xlink:href="#mb1fab94eac" y="284.591186"/>
     <use style="fill:#008000;stroke:#008000;" x="186.002697" xlink:href="#mb1fab94eac" y="287.295396"/>
     <use style="fill:#008000;stroke:#008000;" x="190.015281" xlink:href="#mb1fab94eac" y="290.024476"/>
     <use style="fill:#008000;stroke:#008000;" x="194.027865" xlink:href="#mb1fab94eac" y="289.189568"/>
     <use style="fill:#008000;stroke:#008000;" x="198.040449" xlink:href="#mb1fab94eac" y="287.072276"/>
     <use style="fill:#008000;stroke:#008000;" x="202.053034" xlink:href="#mb1fab94eac" y="288.56411"/>
     <use style="fill:#008000;stroke:#008000;" x="206.065618" xlink:href="#mb1fab94eac" y="288.02603"/>
     <use style="fill:#008000;stroke:#008000;" x="210.078202" xlink:href="#mb1fab94eac" y="287.149118"/>
     <use style="fill:#008000;stroke:#008000;" x="214.090787" xlink:href="#mb1fab94eac" y="287.014752"/>
     <use style="fill:#008000;stroke:#008000;" x="218.103371" xlink:href="#mb1fab94eac" y="288.697289"/>
     <use style="fill:#008000;stroke:#008000;" x="222.115955" xlink:href="#mb1fab94eac" y="284.983035"/>
     <use style="fill:#008000;stroke:#008000;" x="226.128539" xlink:href="#mb1fab94eac" y="285.920842"/>
     <use style="fill:#008000;stroke:#008000;" x="230.141124" xlink:href="#mb1fab94eac" y="285.698481"/>
     <use style="fill:#008000;stroke:#008000;" x="234.153708" xlink:href="#mb1fab94eac" y="289.663573"/>
     <use style="fill:#008000;stroke:#008000;" x="238.166292" xlink:href="#mb1fab94eac" y="290.787337"/>
     <use style="fill:#008000;stroke:#008000;" x="242.178876" xlink:href="#mb1fab94eac" y="285.728714"/>
     <use style="fill:#008000;stroke:#008000;" x="246.191461" xlink:href="#mb1fab94eac" y="288.761363"/>
     <use style="fill:#008000;stroke:#008000;" x="250.204045" xlink:href="#mb1fab94eac" y="291.041593"/>
     <use style="fill:#008000;stroke:#008000;" x="254.216629" xlink:href="#mb1fab94eac" y="287.459473"/>
     <use style="fill:#008000;stroke:#008000;" x="258.229213" xlink:href="#mb1fab94eac" y="290.500855"/>
     <use style="fill:#008000;stroke:#008000;" x="262.241798" xlink:href="#mb1fab94eac" y="289.015002"/>
     <use style="fill:#008000;stroke:#008000;" x="266.254382" xlink:href="#mb1fab94eac" y="291.188441"/>
     <use style="fill:#008000;stroke:#008000;" x="270.266966" xlink:href="#mb1fab94eac" y="290.79925"/>
     <use style="fill:#008000;stroke:#008000;" x="274.279551" xlink:href="#mb1fab94eac" y="286.97906"/>
     <use style="fill:#008000;stroke:#008000;" x="278.292135" xlink:href="#mb1fab94eac" y="290.923127"/>
     <use style="fill:#008000;stroke:#008000;" x="282.304719" xlink:href="#mb1fab94eac" y="288.748074"/>
     <use style="fill:#008000;stroke:#008000;" x="286.317303" xlink:href="#mb1fab94eac" y="287.463223"/>
     <use style="fill:#008000;stroke:#008000;" x="290.329888" xlink:href="#mb1fab94eac" y="288.506728"/>
     <use style="fill:#008000;stroke:#008000;" x="294.342472" xlink:href="#mb1fab94eac" y="291.288207"/>
     <use style="fill:#008000;stroke:#008000;" x="298.355056" xlink:href="#mb1fab94eac" y="289.219422"/>
     <use style="fill:#008000;stroke:#008000;" x="302.36764" xlink:href="#mb1fab94eac" y="290.38424"/>
     <use style="fill:#008000;stroke:#008000;" x="306.380225" xlink:href="#mb1fab94eac" y="287.34395"/>
     <use style="fill:#008000;stroke:#008000;" x="310.392809" xlink:href="#mb1fab94eac" y="291.529695"/>
     <use style="fill:#008000;stroke:#008000;" x="314.405393" xlink:href="#mb1fab94eac" y="291.531451"/>
     <use style="fill:#008000;stroke:#008000;" x="318.417978" xlink:href="#mb1fab94eac" y="287.574712"/>
     <use style="fill:#008000;stroke:#008000;" x="322.430562" xlink:href="#mb1fab94eac" y="287.430189"/>
     <use style="fill:#008000;stroke:#008000;" x="326.443146" xlink:href="#mb1fab94eac" y="288.984341"/>
     <use style="fill:#008000;stroke:#008000;" x="330.45573" xlink:href="#mb1fab94eac" y="289.784033"/>
     <use style="fill:#008000;stroke:#008000;" x="334.468315" xlink:href="#mb1fab94eac" y="289.273766"/>
     <use style="fill:#008000;stroke:#008000;" x="338.480899" xlink:href="#mb1fab94eac" y="287.707511"/>
     <use style="fill:#008000;stroke:#008000;" x="342.493483" xlink:href="#mb1fab94eac" y="291.623005"/>
     <use style="fill:#008000;stroke:#008000;" x="346.506067" xlink:href="#mb1fab94eac" y="289.67112"/>
     <use style="fill:#008000;stroke:#008000;" x="350.518652" xlink:href="#mb1fab94eac" y="289.565042"/>
     <use style="fill:#008000;stroke:#008000;" x="354.531236" xlink:href="#mb1fab94eac" y="288.665015"/>
     <use style="fill:#008000;stroke:#008000;" x="358.54382" xlink:href="#mb1fab94eac" y="287.104693"/>
     <use style="fill:#008000;stroke:#008000;" x="362.556404" xlink:href="#mb1fab94eac" y="287.103316"/>
     <use style="fill:#008000;stroke:#008000;" x="366.568989" xlink:href="#mb1fab94eac" y="289.217998"/>
     <use style="fill:#008000;stroke:#008000;" x="370.581573" xlink:href="#mb1fab94eac" y="288.020477"/>
     <use style="fill:#008000;stroke:#008000;" x="374.594157" xlink:href="#mb1fab94eac" y="288.20577"/>
     <use style="fill:#008000;stroke:#008000;" x="378.606742" xlink:href="#mb1fab94eac" y="288.741477"/>
     <use style="fill:#008000;stroke:#008000;" x="382.619326" xlink:href="#mb1fab94eac" y="287.145938"/>
     <use style="fill:#008000;stroke:#008000;" x="386.63191" xlink:href="#mb1fab94eac" y="288.035191"/>
     <use style="fill:#008000;stroke:#008000;" x="390.644494" xlink:href="#mb1fab94eac" y="288.689505"/>
     <use style="fill:#008000;stroke:#008000;" x="394.657079" xlink:href="#mb1fab94eac" y="287.081389"/>
     <use style="fill:#008000;stroke:#008000;" x="398.669663" xlink:href="#mb1fab94eac" y="288.093047"/>
     <use style="fill:#008000;stroke:#008000;" x="402.682247" xlink:href="#mb1fab94eac" y="275.453846"/>
     <use style="fill:#008000;stroke:#008000;" x="406.694831" xlink:href="#mb1fab94eac" y="275.737101"/>
     <use style="fill:#008000;stroke:#008000;" x="410.707416" xlink:href="#mb1fab94eac" y="272.668618"/>
    </g>
   </g>
   <g id="patch_3">
    <path d="M 57.6 307.584 
L 57.6 41.472 
" style="fill:none;stroke:#000000;stroke-linecap:square;stroke-linejoin:miter;stroke-width:0.8;"/>
   </g>
   <g id="patch_4">
    <path d="M 414.72 307.584 
L 414.72 41.472 
" style="fill:none;stroke:#000000;stroke-linecap:square;stroke-linejoin:miter;stroke-width:0.8;"/>
   </g>
   <g id="patch_5">
    <path d="M 57.6 307.584 
L 414.72 307.584 
" style="fill:none;stroke:#000000;stroke-linecap:square;stroke-linejoin:miter;stroke-width:0.8;"/>
   </g>
   <g id="patch_6">
    <path d="M 57.6 41.472 
L 414.72 41.472 
" style="fill:none;stroke:#000000;stroke-linecap:square;stroke-linejoin:miter;stroke-width:0.8;"/>
   </g>
   <g id="text_32">
    <!-- radix sort 10 on pre_transpose41 -->
    <g transform="translate(136.448438 35.472)scale(0.12 -0.12)">
     <defs>
      <path d="M 54.890625 54.6875 
L 35.109375 28.078125 
L 55.90625 0 
L 45.3125 0 
L 29.390625 21.484375 
L 13.484375 0 
L 2.875 0 
L 24.125 28.609375 
L 4.6875 54.6875 
L 15.28125 54.6875 
L 29.78125 35.203125 
L 44.28125 54.6875 
z
" id="DejaVuSans-120"/>
      <path d="M 18.109375 8.203125 
L 18.109375 -20.796875 
L 9.078125 -20.796875 
L 9.078125 54.6875 
L 18.109375 54.6875 
L 18.109375 46.390625 
Q 20.953125 51.265625 25.265625 53.625 
Q 29.59375 56 35.59375 56 
Q 45.5625 56 51.78125 48.09375 
Q 58.015625 40.1875 58.015625 27.296875 
Q 58.015625 14.40625 51.78125 6.484375 
Q 45.5625 -1.421875 35.59375 -1.421875 
Q 29.59375 -1.421875 25.265625 0.953125 
Q 20.953125 3.328125 18.109375 8.203125 
z
M 48.6875 27.296875 
Q 48.6875 37.203125 44.609375 42.84375 
Q 40.53125 48.484375 33.40625 48.484375 
Q 26.265625 48.484375 22.1875 42.84375 
Q 18.109375 37.203125 18.109375 27.296875 
Q 18.109375 17.390625 22.1875 11.75 
Q 26.265625 6.109375 33.40625 6.109375 
Q 40.53125 6.109375 44.609375 11.75 
Q 48.6875 17.390625 48.6875 27.296875 
z
" id="DejaVuSans-112"/>
      <path d="M 50.984375 -16.609375 
L 50.984375 -23.578125 
L -0.984375 -23.578125 
L -0.984375 -16.609375 
z
" id="DejaVuSans-95"/>
     </defs>
     <use xlink:href="#DejaVuSans-114"/>
     <use x="41.113281" xlink:href="#DejaVuSans-97"/>
     <use x="102.392578" xlink:href="#DejaVuSans-100"/>
     <use x="165.869141" xlink:href="#DejaVuSans-105"/>
     <use x="193.652344" xlink:href="#DejaVuSans-120"/>
     <use x="252.832031" xlink:href="#DejaVuSans-32"/>
     <use x="284.619141" xlink:href="#DejaVuSans-115"/>
     <use x="336.71875" xlink:href="#DejaVuSans-111"/>
     <use x="397.900391" xlink:href="#DejaVuSans-114"/>
     <use x="439.013672" xlink:href="#DejaVuSans-116"/>
     <use x="478.222656" xlink:href="#DejaVuSans-32"/>
     <use x="510.009766" xlink:href="#DejaVuSans-49"/>
     <use x="573.632812" xlink:href="#DejaVuSans-48"/>
     <use x="637.255859" xlink:href="#DejaVuSans-32"/>
     <use x="669.042969" xlink:href="#DejaVuSans-111"/>
     <use x="730.224609" xlink:href="#DejaVuSans-110"/>
     <use x="793.603516" xlink:href="#DejaVuSans-32"/>
     <use x="825.390625" xlink:href="#DejaVuSans-112"/>
     <use x="888.867188" xlink:href="#DejaVuSans-114"/>
     <use x="927.730469" xlink:href="#DejaVuSans-101"/>
     <use x="989.253906" xlink:href="#DejaVuSans-95"/>
     <use x="1039.253906" xlink:href="#DejaVuSans-116"/>
     <use x="1078.462891" xlink:href="#DejaVuSans-114"/>
     <use x="1119.576172" xlink:href="#DejaVuSans-97"/>
     <use x="1180.855469" xlink:href="#DejaVuSans-110"/>
     <use x="1244.234375" xlink:href="#DejaVuSans-115"/>
     <use x="1296.333984" xlink:href="#DejaVuSans-112"/>
     <use x="1359.810547" xlink:href="#DejaVuSans-111"/>
     <use x="1420.992188" xlink:href="#DejaVuSans-115"/>
     <use x="1473.091797" xlink:href="#DejaVuSans-101"/>
     <use x="1534.615234" xlink:href="#DejaVuSans-52"/>
     <use x="1598.238281" xlink:href="#DejaVuSans-49"/>
    </g>
   </g>
   <g id="legend_1">
    <g id="patch_7">
     <path d="M 313.152813 93.7845 
L 407.72 93.7845 
Q 409.72 93.7845 409.72 91.7845 
L 409.72 48.472 
Q 409.72 46.472 407.72 46.472 
L 313.152813 46.472 
Q 311.152813 46.472 311.152813 48.472 
L 311.152813 91.7845 
Q 311.152813 93.7845 313.152813 93.7845 
z
" style="fill:#ffffff;opacity:0.8;stroke:#cccccc;stroke-linejoin:miter;"/>
    </g>
    <g id="line2d_62">
     <path d="M 315.152813 54.570438 
L 335.152813 54.570438 
" style="fill:none;stroke:#0000ff;stroke-dasharray:1.5,2.475;stroke-dashoffset:0;stroke-width:1.5;"/>
    </g>
    <g id="line2d_63">
     <g>
      <use style="fill:#0000ff;stroke:#0000ff;" x="325.152813" xlink:href="#md7c673beae" y="54.570438"/>
     </g>
    </g>
    <g id="text_33">
     <!-- transpose -->
     <g transform="translate(343.152813 58.070438)scale(0.1 -0.1)">
      <use xlink:href="#DejaVuSans-116"/>
      <use x="39.208984" xlink:href="#DejaVuSans-114"/>
      <use x="80.322266" xlink:href="#DejaVuSans-97"/>
      <use x="141.601562" xlink:href="#DejaVuSans-110"/>
      <use x="204.980469" xlink:href="#DejaVuSans-115"/>
      <use x="257.080078" xlink:href="#DejaVuSans-112"/>
      <use x="320.556641" xlink:href="#DejaVuSans-111"/>
      <use x="381.738281" xlink:href="#DejaVuSans-115"/>
      <use x="433.837891" xlink:href="#DejaVuSans-101"/>
     </g>
    </g>
    <g id="line2d_64">
     <path d="M 315.152813 69.248563 
L 335.152813 69.248563 
" style="fill:none;stroke:#ff0000;stroke-dasharray:1.5,2.475;stroke-dashoffset:0;stroke-width:1.5;"/>
    </g>
    <g id="line2d_65">
     <g>
      <use style="fill:#ff0000;stroke:#ff0000;" x="325.152813" xlink:href="#m93d044e19c" y="69.248563"/>
     </g>
    </g>
    <g id="text_34">
     <!-- transpose_tr -->
     <g transform="translate(343.152813 72.748563)scale(0.1 -0.1)">
      <use xlink:href="#DejaVuSans-116"/>
      <use x="39.208984" xlink:href="#DejaVuSans-114"/>
      <use x="80.322266" xlink:href="#DejaVuSans-97"/>
      <use x="141.601562" xlink:href="#DejaVuSans-110"/>
      <use x="204.980469" xlink:href="#DejaVuSans-115"/>
      <use x="257.080078" xlink:href="#DejaVuSans-112"/>
      <use x="320.556641" xlink:href="#DejaVuSans-111"/>
      <use x="381.738281" xlink:href="#DejaVuSans-115"/>
      <use x="433.837891" xlink:href="#DejaVuSans-101"/>
      <use x="495.361328" xlink:href="#DejaVuSans-95"/>
      <use x="545.361328" xlink:href="#DejaVuSans-116"/>
      <use x="584.570312" xlink:href="#DejaVuSans-114"/>
     </g>
    </g>
    <g id="line2d_66">
     <path d="M 315.152813 84.204813 
L 335.152813 84.204813 
" style="fill:none;stroke:#008000;stroke-dasharray:1.5,2.475;stroke-dashoffset:0;stroke-width:1.5;"/>
    </g>
    <g id="line2d_67">
     <g>
      <use style="fill:#008000;stroke:#008000;" x="325.152813" xlink:href="#mb1fab94eac" y="84.204813"/>
     </g>
    </g>
    <g id="text_35">
     <!-- mean -->
     <g transform="translate(343.152813 87.704813)scale(0.1 -0.1)">
      <defs>
       <path d="M 52 44.1875 
Q 55.375 50.25 60.0625 53.125 
Q 64.75 56 71.09375 56 
Q 79.640625 56 84.28125 50.015625 
Q 88.921875 44.046875 88.921875 33.015625 
L 88.921875 0 
L 79.890625 0 
L 79.890625 32.71875 
Q 79.890625 40.578125 77.09375 44.375 
Q 74.3125 48.1875 68.609375 48.1875 
Q 61.625 48.1875 57.5625 43.546875 
Q 53.515625 38.921875 53.515625 30.90625 
L 53.515625 0 
L 44.484375 0 
L 44.484375 32.71875 
Q 44.484375 40.625 41.703125 44.40625 
Q 38.921875 48.1875 33.109375 48.1875 
Q 26.21875 48.1875 22.15625 43.53125 
Q 18.109375 38.875 18.109375 30.90625 
L 18.109375 0 
L 9.078125 0 
L 9.078125 54.6875 
L 18.109375 54.6875 
L 18.109375 46.1875 
Q 21.1875 51.21875 25.484375 53.609375 
Q 29.78125 56 35.6875 56 
Q 41.65625 56 45.828125 52.96875 
Q 50 49.953125 52 44.1875 
z
" id="DejaVuSans-109"/>
      </defs>
      <use xlink:href="#DejaVuSans-109"/>
      <use x="97.412109" xlink:href="#DejaVuSans-101"/>
      <use x="158.935547" xlink:href="#DejaVuSans-97"/>
      <use x="220.214844" xlink:href="#DejaVuSans-110"/>
     </g>
    </g>
   </g>
  </g>
 </g>
 <defs>
  <clipPath id="pdf35dfcba6">
   <rect height="266.112" width="357.12" x="57.6" y="41.472"/>
  </clipPath>
 </defs>
</svg>
