<?xml version="1.0" encoding="utf-8" standalone="no"?>
<!DOCTYPE svg PUBLIC "-//W3C//DTD SVG 1.1//EN"
  "http://www.w3.org/Graphics/SVG/1.1/DTD/svg11.dtd">
<!-- Created with matplotlib (https://matplotlib.org/) -->
<svg height="345.6pt" version="1.1" viewBox="0 0 460.8 345.6" width="460.8pt" xmlns="http://www.w3.org/2000/svg" xmlns:xlink="http://www.w3.org/1999/xlink">
 <metadata>
  <rdf:RDF xmlns:cc="http://creativecommons.org/ns#" xmlns:dc="http://purl.org/dc/elements/1.1/" xmlns:rdf="http://www.w3.org/1999/02/22-rdf-syntax-ns#">
   <cc:Work>
    <dc:type rdf:resource="http://purl.org/dc/dcmitype/StillImage"/>
    <dc:date>2020-08-27T10:03:14.840538</dc:date>
    <dc:format>image/svg+xml</dc:format>
    <dc:creator>
     <cc:Agent>
      <dc:title>Matplotlib v3.3.1, https://matplotlib.org/</dc:title>
     </cc:Agent>
    </dc:creator>
   </cc:Work>
  </rdf:RDF>
 </metadata>
 <defs>
  <style type="text/css">*{stroke-linecap:butt;stroke-linejoin:round;}</style>
 </defs>
 <g id="figure_1">
  <g id="patch_1">
   <path d="M 0 345.6 
L 460.8 345.6 
L 460.8 0 
L 0 0 
z
" style="fill:#ffffff;"/>
  </g>
  <g id="axes_1">
   <g id="patch_2">
    <path d="M 57.6 307.584 
L 414.72 307.584 
L 414.72 41.472 
L 57.6 41.472 
z
" style="fill:#ffffff;"/>
   </g>
   <g id="matplotlib.axis_1">
    <g id="xtick_1">
     <g id="line2d_1">
      <path clip-path="url(#p97cc84de41)" d="M 61.612584 307.584 
L 61.612584 41.472 
" style="fill:none;stroke:#b0b0b0;stroke-dasharray:5.12,1.28,0.8,1.28;stroke-dashoffset:0;stroke-width:0.8;"/>
     </g>
     <g id="line2d_2">
      <defs>
       <path d="M 0 0 
L 0 3.5 
" id="mad696de18e" style="stroke:#000000;stroke-width:0.8;"/>
      </defs>
      <g>
       <use style="stroke:#000000;stroke-width:0.8;" x="61.612584" xlink:href="#mad696de18e" y="307.584"/>
      </g>
     </g>
     <g id="text_1">
      <!-- 1 -->
      <g transform="translate(58.431334 322.182437)scale(0.1 -0.1)">
       <defs>
        <path d="M 12.40625 8.296875 
L 28.515625 8.296875 
L 28.515625 63.921875 
L 10.984375 60.40625 
L 10.984375 69.390625 
L 28.421875 72.90625 
L 38.28125 72.90625 
L 38.28125 8.296875 
L 54.390625 8.296875 
L 54.390625 0 
L 12.40625 0 
z
" id="DejaVuSans-49"/>
       </defs>
       <use xlink:href="#DejaVuSans-49"/>
      </g>
     </g>
    </g>
    <g id="xtick_2">
     <g id="line2d_3">
      <path clip-path="url(#p97cc84de41)" d="M 73.650337 307.584 
L 73.650337 41.472 
" style="fill:none;stroke:#b0b0b0;stroke-dasharray:5.12,1.28,0.8,1.28;stroke-dashoffset:0;stroke-width:0.8;"/>
     </g>
     <g id="line2d_4">
      <g>
       <use style="stroke:#000000;stroke-width:0.8;" x="73.650337" xlink:href="#mad696de18e" y="307.584"/>
      </g>
     </g>
     <g id="text_2">
      <!-- 4 -->
      <g transform="translate(70.469087 322.182437)scale(0.1 -0.1)">
       <defs>
        <path d="M 37.796875 64.3125 
L 12.890625 25.390625 
L 37.796875 25.390625 
z
M 35.203125 72.90625 
L 47.609375 72.90625 
L 47.609375 25.390625 
L 58.015625 25.390625 
L 58.015625 17.1875 
L 47.609375 17.1875 
L 47.609375 0 
L 37.796875 0 
L 37.796875 17.1875 
L 4.890625 17.1875 
L 4.890625 26.703125 
z
" id="DejaVuSans-52"/>
       </defs>
       <use xlink:href="#DejaVuSans-52"/>
      </g>
     </g>
    </g>
    <g id="xtick_3">
     <g id="line2d_5">
      <path clip-path="url(#p97cc84de41)" d="M 89.700674 307.584 
L 89.700674 41.472 
" style="fill:none;stroke:#b0b0b0;stroke-dasharray:5.12,1.28,0.8,1.28;stroke-dashoffset:0;stroke-width:0.8;"/>
     </g>
     <g id="line2d_6">
      <g>
       <use style="stroke:#000000;stroke-width:0.8;" x="89.700674" xlink:href="#mad696de18e" y="307.584"/>
      </g>
     </g>
     <g id="text_3">
      <!-- 8 -->
      <g transform="translate(86.519424 322.182437)scale(0.1 -0.1)">
       <defs>
        <path d="M 31.78125 34.625 
Q 24.75 34.625 20.71875 30.859375 
Q 16.703125 27.09375 16.703125 20.515625 
Q 16.703125 13.921875 20.71875 10.15625 
Q 24.75 6.390625 31.78125 6.390625 
Q 38.8125 6.390625 42.859375 10.171875 
Q 46.921875 13.96875 46.921875 20.515625 
Q 46.921875 27.09375 42.890625 30.859375 
Q 38.875 34.625 31.78125 34.625 
z
M 21.921875 38.8125 
Q 15.578125 40.375 12.03125 44.71875 
Q 8.5 49.078125 8.5 55.328125 
Q 8.5 64.0625 14.71875 69.140625 
Q 20.953125 74.21875 31.78125 74.21875 
Q 42.671875 74.21875 48.875 69.140625 
Q 55.078125 64.0625 55.078125 55.328125 
Q 55.078125 49.078125 51.53125 44.71875 
Q 48 40.375 41.703125 38.8125 
Q 48.828125 37.15625 52.796875 32.3125 
Q 56.78125 27.484375 56.78125 20.515625 
Q 56.78125 9.90625 50.3125 4.234375 
Q 43.84375 -1.421875 31.78125 -1.421875 
Q 19.734375 -1.421875 13.25 4.234375 
Q 6.78125 9.90625 6.78125 20.515625 
Q 6.78125 27.484375 10.78125 32.3125 
Q 14.796875 37.15625 21.921875 38.8125 
z
M 18.3125 54.390625 
Q 18.3125 48.734375 21.84375 45.5625 
Q 25.390625 42.390625 31.78125 42.390625 
Q 38.140625 42.390625 41.71875 45.5625 
Q 45.3125 48.734375 45.3125 54.390625 
Q 45.3125 60.0625 41.71875 63.234375 
Q 38.140625 66.40625 31.78125 66.40625 
Q 25.390625 66.40625 21.84375 63.234375 
Q 18.3125 60.0625 18.3125 54.390625 
z
" id="DejaVuSans-56"/>
       </defs>
       <use xlink:href="#DejaVuSans-56"/>
      </g>
     </g>
    </g>
    <g id="xtick_4">
     <g id="line2d_7">
      <path clip-path="url(#p97cc84de41)" d="M 105.751011 307.584 
L 105.751011 41.472 
" style="fill:none;stroke:#b0b0b0;stroke-dasharray:5.12,1.28,0.8,1.28;stroke-dashoffset:0;stroke-width:0.8;"/>
     </g>
     <g id="line2d_8">
      <g>
       <use style="stroke:#000000;stroke-width:0.8;" x="105.751011" xlink:href="#mad696de18e" y="307.584"/>
      </g>
     </g>
     <g id="text_4">
      <!-- 12 -->
      <g transform="translate(99.388511 322.182437)scale(0.1 -0.1)">
       <defs>
        <path d="M 19.1875 8.296875 
L 53.609375 8.296875 
L 53.609375 0 
L 7.328125 0 
L 7.328125 8.296875 
Q 12.9375 14.109375 22.625 23.890625 
Q 32.328125 33.6875 34.8125 36.53125 
Q 39.546875 41.84375 41.421875 45.53125 
Q 43.3125 49.21875 43.3125 52.78125 
Q 43.3125 58.59375 39.234375 62.25 
Q 35.15625 65.921875 28.609375 65.921875 
Q 23.96875 65.921875 18.8125 64.3125 
Q 13.671875 62.703125 7.8125 59.421875 
L 7.8125 69.390625 
Q 13.765625 71.78125 18.9375 73 
Q 24.125 74.21875 28.421875 74.21875 
Q 39.75 74.21875 46.484375 68.546875 
Q 53.21875 62.890625 53.21875 53.421875 
Q 53.21875 48.921875 51.53125 44.890625 
Q 49.859375 40.875 45.40625 35.40625 
Q 44.1875 33.984375 37.640625 27.21875 
Q 31.109375 20.453125 19.1875 8.296875 
z
" id="DejaVuSans-50"/>
       </defs>
       <use xlink:href="#DejaVuSans-49"/>
       <use x="63.623047" xlink:href="#DejaVuSans-50"/>
      </g>
     </g>
    </g>
    <g id="xtick_5">
     <g id="line2d_9">
      <path clip-path="url(#p97cc84de41)" d="M 121.801348 307.584 
L 121.801348 41.472 
" style="fill:none;stroke:#b0b0b0;stroke-dasharray:5.12,1.28,0.8,1.28;stroke-dashoffset:0;stroke-width:0.8;"/>
     </g>
     <g id="line2d_10">
      <g>
       <use style="stroke:#000000;stroke-width:0.8;" x="121.801348" xlink:href="#mad696de18e" y="307.584"/>
      </g>
     </g>
     <g id="text_5">
      <!-- 16 -->
      <g transform="translate(115.438848 322.182437)scale(0.1 -0.1)">
       <defs>
        <path d="M 33.015625 40.375 
Q 26.375 40.375 22.484375 35.828125 
Q 18.609375 31.296875 18.609375 23.390625 
Q 18.609375 15.53125 22.484375 10.953125 
Q 26.375 6.390625 33.015625 6.390625 
Q 39.65625 6.390625 43.53125 10.953125 
Q 47.40625 15.53125 47.40625 23.390625 
Q 47.40625 31.296875 43.53125 35.828125 
Q 39.65625 40.375 33.015625 40.375 
z
M 52.59375 71.296875 
L 52.59375 62.3125 
Q 48.875 64.0625 45.09375 64.984375 
Q 41.3125 65.921875 37.59375 65.921875 
Q 27.828125 65.921875 22.671875 59.328125 
Q 17.53125 52.734375 16.796875 39.40625 
Q 19.671875 43.65625 24.015625 45.921875 
Q 28.375 48.1875 33.59375 48.1875 
Q 44.578125 48.1875 50.953125 41.515625 
Q 57.328125 34.859375 57.328125 23.390625 
Q 57.328125 12.15625 50.6875 5.359375 
Q 44.046875 -1.421875 33.015625 -1.421875 
Q 20.359375 -1.421875 13.671875 8.265625 
Q 6.984375 17.96875 6.984375 36.375 
Q 6.984375 53.65625 15.1875 63.9375 
Q 23.390625 74.21875 37.203125 74.21875 
Q 40.921875 74.21875 44.703125 73.484375 
Q 48.484375 72.75 52.59375 71.296875 
z
" id="DejaVuSans-54"/>
       </defs>
       <use xlink:href="#DejaVuSans-49"/>
       <use x="63.623047" xlink:href="#DejaVuSans-54"/>
      </g>
     </g>
    </g>
    <g id="xtick_6">
     <g id="line2d_11">
      <path clip-path="url(#p97cc84de41)" d="M 137.851685 307.584 
L 137.851685 41.472 
" style="fill:none;stroke:#b0b0b0;stroke-dasharray:5.12,1.28,0.8,1.28;stroke-dashoffset:0;stroke-width:0.8;"/>
     </g>
     <g id="line2d_12">
      <g>
       <use style="stroke:#000000;stroke-width:0.8;" x="137.851685" xlink:href="#mad696de18e" y="307.584"/>
      </g>
     </g>
     <g id="text_6">
      <!-- 20 -->
      <g transform="translate(131.489185 322.182437)scale(0.1 -0.1)">
       <defs>
        <path d="M 31.78125 66.40625 
Q 24.171875 66.40625 20.328125 58.90625 
Q 16.5 51.421875 16.5 36.375 
Q 16.5 21.390625 20.328125 13.890625 
Q 24.171875 6.390625 31.78125 6.390625 
Q 39.453125 6.390625 43.28125 13.890625 
Q 47.125 21.390625 47.125 36.375 
Q 47.125 51.421875 43.28125 58.90625 
Q 39.453125 66.40625 31.78125 66.40625 
z
M 31.78125 74.21875 
Q 44.046875 74.21875 50.515625 64.515625 
Q 56.984375 54.828125 56.984375 36.375 
Q 56.984375 17.96875 50.515625 8.265625 
Q 44.046875 -1.421875 31.78125 -1.421875 
Q 19.53125 -1.421875 13.0625 8.265625 
Q 6.59375 17.96875 6.59375 36.375 
Q 6.59375 54.828125 13.0625 64.515625 
Q 19.53125 74.21875 31.78125 74.21875 
z
" id="DejaVuSans-48"/>
       </defs>
       <use xlink:href="#DejaVuSans-50"/>
       <use x="63.623047" xlink:href="#DejaVuSans-48"/>
      </g>
     </g>
    </g>
    <g id="xtick_7">
     <g id="line2d_13">
      <path clip-path="url(#p97cc84de41)" d="M 153.902022 307.584 
L 153.902022 41.472 
" style="fill:none;stroke:#b0b0b0;stroke-dasharray:5.12,1.28,0.8,1.28;stroke-dashoffset:0;stroke-width:0.8;"/>
     </g>
     <g id="line2d_14">
      <g>
       <use style="stroke:#000000;stroke-width:0.8;" x="153.902022" xlink:href="#mad696de18e" y="307.584"/>
      </g>
     </g>
     <g id="text_7">
      <!-- 24 -->
      <g transform="translate(147.539522 322.182437)scale(0.1 -0.1)">
       <use xlink:href="#DejaVuSans-50"/>
       <use x="63.623047" xlink:href="#DejaVuSans-52"/>
      </g>
     </g>
    </g>
    <g id="xtick_8">
     <g id="line2d_15">
      <path clip-path="url(#p97cc84de41)" d="M 169.95236 307.584 
L 169.95236 41.472 
" style="fill:none;stroke:#b0b0b0;stroke-dasharray:5.12,1.28,0.8,1.28;stroke-dashoffset:0;stroke-width:0.8;"/>
     </g>
     <g id="line2d_16">
      <g>
       <use style="stroke:#000000;stroke-width:0.8;" x="169.95236" xlink:href="#mad696de18e" y="307.584"/>
      </g>
     </g>
     <g id="text_8">
      <!-- 28 -->
      <g transform="translate(163.58986 322.182437)scale(0.1 -0.1)">
       <use xlink:href="#DejaVuSans-50"/>
       <use x="63.623047" xlink:href="#DejaVuSans-56"/>
      </g>
     </g>
    </g>
    <g id="xtick_9">
     <g id="line2d_17">
      <path clip-path="url(#p97cc84de41)" d="M 186.002697 307.584 
L 186.002697 41.472 
" style="fill:none;stroke:#b0b0b0;stroke-dasharray:5.12,1.28,0.8,1.28;stroke-dashoffset:0;stroke-width:0.8;"/>
     </g>
     <g id="line2d_18">
      <g>
       <use style="stroke:#000000;stroke-width:0.8;" x="186.002697" xlink:href="#mad696de18e" y="307.584"/>
      </g>
     </g>
     <g id="text_9">
      <!-- 32 -->
      <g transform="translate(179.640197 322.182437)scale(0.1 -0.1)">
       <defs>
        <path d="M 40.578125 39.3125 
Q 47.65625 37.796875 51.625 33 
Q 55.609375 28.21875 55.609375 21.1875 
Q 55.609375 10.40625 48.1875 4.484375 
Q 40.765625 -1.421875 27.09375 -1.421875 
Q 22.515625 -1.421875 17.65625 -0.515625 
Q 12.796875 0.390625 7.625 2.203125 
L 7.625 11.71875 
Q 11.71875 9.328125 16.59375 8.109375 
Q 21.484375 6.890625 26.8125 6.890625 
Q 36.078125 6.890625 40.9375 10.546875 
Q 45.796875 14.203125 45.796875 21.1875 
Q 45.796875 27.640625 41.28125 31.265625 
Q 36.765625 34.90625 28.71875 34.90625 
L 20.21875 34.90625 
L 20.21875 43.015625 
L 29.109375 43.015625 
Q 36.375 43.015625 40.234375 45.921875 
Q 44.09375 48.828125 44.09375 54.296875 
Q 44.09375 59.90625 40.109375 62.90625 
Q 36.140625 65.921875 28.71875 65.921875 
Q 24.65625 65.921875 20.015625 65.03125 
Q 15.375 64.15625 9.8125 62.3125 
L 9.8125 71.09375 
Q 15.4375 72.65625 20.34375 73.4375 
Q 25.25 74.21875 29.59375 74.21875 
Q 40.828125 74.21875 47.359375 69.109375 
Q 53.90625 64.015625 53.90625 55.328125 
Q 53.90625 49.265625 50.4375 45.09375 
Q 46.96875 40.921875 40.578125 39.3125 
z
" id="DejaVuSans-51"/>
       </defs>
       <use xlink:href="#DejaVuSans-51"/>
       <use x="63.623047" xlink:href="#DejaVuSans-50"/>
      </g>
     </g>
    </g>
    <g id="xtick_10">
     <g id="line2d_19">
      <path clip-path="url(#p97cc84de41)" d="M 202.053034 307.584 
L 202.053034 41.472 
" style="fill:none;stroke:#b0b0b0;stroke-dasharray:5.12,1.28,0.8,1.28;stroke-dashoffset:0;stroke-width:0.8;"/>
     </g>
     <g id="line2d_20">
      <g>
       <use style="stroke:#000000;stroke-width:0.8;" x="202.053034" xlink:href="#mad696de18e" y="307.584"/>
      </g>
     </g>
     <g id="text_10">
      <!-- 36 -->
      <g transform="translate(195.690534 322.182437)scale(0.1 -0.1)">
       <use xlink:href="#DejaVuSans-51"/>
       <use x="63.623047" xlink:href="#DejaVuSans-54"/>
      </g>
     </g>
    </g>
    <g id="xtick_11">
     <g id="line2d_21">
      <path clip-path="url(#p97cc84de41)" d="M 218.103371 307.584 
L 218.103371 41.472 
" style="fill:none;stroke:#b0b0b0;stroke-dasharray:5.12,1.28,0.8,1.28;stroke-dashoffset:0;stroke-width:0.8;"/>
     </g>
     <g id="line2d_22">
      <g>
       <use style="stroke:#000000;stroke-width:0.8;" x="218.103371" xlink:href="#mad696de18e" y="307.584"/>
      </g>
     </g>
     <g id="text_11">
      <!-- 40 -->
      <g transform="translate(211.740871 322.182437)scale(0.1 -0.1)">
       <use xlink:href="#DejaVuSans-52"/>
       <use x="63.623047" xlink:href="#DejaVuSans-48"/>
      </g>
     </g>
    </g>
    <g id="xtick_12">
     <g id="line2d_23">
      <path clip-path="url(#p97cc84de41)" d="M 234.153708 307.584 
L 234.153708 41.472 
" style="fill:none;stroke:#b0b0b0;stroke-dasharray:5.12,1.28,0.8,1.28;stroke-dashoffset:0;stroke-width:0.8;"/>
     </g>
     <g id="line2d_24">
      <g>
       <use style="stroke:#000000;stroke-width:0.8;" x="234.153708" xlink:href="#mad696de18e" y="307.584"/>
      </g>
     </g>
     <g id="text_12">
      <!-- 44 -->
      <g transform="translate(227.791208 322.182437)scale(0.1 -0.1)">
       <use xlink:href="#DejaVuSans-52"/>
       <use x="63.623047" xlink:href="#DejaVuSans-52"/>
      </g>
     </g>
    </g>
    <g id="xtick_13">
     <g id="line2d_25">
      <path clip-path="url(#p97cc84de41)" d="M 250.204045 307.584 
L 250.204045 41.472 
" style="fill:none;stroke:#b0b0b0;stroke-dasharray:5.12,1.28,0.8,1.28;stroke-dashoffset:0;stroke-width:0.8;"/>
     </g>
     <g id="line2d_26">
      <g>
       <use style="stroke:#000000;stroke-width:0.8;" x="250.204045" xlink:href="#mad696de18e" y="307.584"/>
      </g>
     </g>
     <g id="text_13">
      <!-- 48 -->
      <g transform="translate(243.841545 322.182437)scale(0.1 -0.1)">
       <use xlink:href="#DejaVuSans-52"/>
       <use x="63.623047" xlink:href="#DejaVuSans-56"/>
      </g>
     </g>
    </g>
    <g id="xtick_14">
     <g id="line2d_27">
      <path clip-path="url(#p97cc84de41)" d="M 266.254382 307.584 
L 266.254382 41.472 
" style="fill:none;stroke:#b0b0b0;stroke-dasharray:5.12,1.28,0.8,1.28;stroke-dashoffset:0;stroke-width:0.8;"/>
     </g>
     <g id="line2d_28">
      <g>
       <use style="stroke:#000000;stroke-width:0.8;" x="266.254382" xlink:href="#mad696de18e" y="307.584"/>
      </g>
     </g>
     <g id="text_14">
      <!-- 52 -->
      <g transform="translate(259.891882 322.182437)scale(0.1 -0.1)">
       <defs>
        <path d="M 10.796875 72.90625 
L 49.515625 72.90625 
L 49.515625 64.59375 
L 19.828125 64.59375 
L 19.828125 46.734375 
Q 21.96875 47.46875 24.109375 47.828125 
Q 26.265625 48.1875 28.421875 48.1875 
Q 40.625 48.1875 47.75 41.5 
Q 54.890625 34.8125 54.890625 23.390625 
Q 54.890625 11.625 47.5625 5.09375 
Q 40.234375 -1.421875 26.90625 -1.421875 
Q 22.3125 -1.421875 17.546875 -0.640625 
Q 12.796875 0.140625 7.71875 1.703125 
L 7.71875 11.625 
Q 12.109375 9.234375 16.796875 8.0625 
Q 21.484375 6.890625 26.703125 6.890625 
Q 35.15625 6.890625 40.078125 11.328125 
Q 45.015625 15.765625 45.015625 23.390625 
Q 45.015625 31 40.078125 35.4375 
Q 35.15625 39.890625 26.703125 39.890625 
Q 22.75 39.890625 18.8125 39.015625 
Q 14.890625 38.140625 10.796875 36.28125 
z
" id="DejaVuSans-53"/>
       </defs>
       <use xlink:href="#DejaVuSans-53"/>
       <use x="63.623047" xlink:href="#DejaVuSans-50"/>
      </g>
     </g>
    </g>
    <g id="xtick_15">
     <g id="line2d_29">
      <path clip-path="url(#p97cc84de41)" d="M 282.304719 307.584 
L 282.304719 41.472 
" style="fill:none;stroke:#b0b0b0;stroke-dasharray:5.12,1.28,0.8,1.28;stroke-dashoffset:0;stroke-width:0.8;"/>
     </g>
     <g id="line2d_30">
      <g>
       <use style="stroke:#000000;stroke-width:0.8;" x="282.304719" xlink:href="#mad696de18e" y="307.584"/>
      </g>
     </g>
     <g id="text_15">
      <!-- 56 -->
      <g transform="translate(275.942219 322.182437)scale(0.1 -0.1)">
       <use xlink:href="#DejaVuSans-53"/>
       <use x="63.623047" xlink:href="#DejaVuSans-54"/>
      </g>
     </g>
    </g>
    <g id="xtick_16">
     <g id="line2d_31">
      <path clip-path="url(#p97cc84de41)" d="M 298.355056 307.584 
L 298.355056 41.472 
" style="fill:none;stroke:#b0b0b0;stroke-dasharray:5.12,1.28,0.8,1.28;stroke-dashoffset:0;stroke-width:0.8;"/>
     </g>
     <g id="line2d_32">
      <g>
       <use style="stroke:#000000;stroke-width:0.8;" x="298.355056" xlink:href="#mad696de18e" y="307.584"/>
      </g>
     </g>
     <g id="text_16">
      <!-- 60 -->
      <g transform="translate(291.992556 322.182437)scale(0.1 -0.1)">
       <use xlink:href="#DejaVuSans-54"/>
       <use x="63.623047" xlink:href="#DejaVuSans-48"/>
      </g>
     </g>
    </g>
    <g id="xtick_17">
     <g id="line2d_33">
      <path clip-path="url(#p97cc84de41)" d="M 314.405393 307.584 
L 314.405393 41.472 
" style="fill:none;stroke:#b0b0b0;stroke-dasharray:5.12,1.28,0.8,1.28;stroke-dashoffset:0;stroke-width:0.8;"/>
     </g>
     <g id="line2d_34">
      <g>
       <use style="stroke:#000000;stroke-width:0.8;" x="314.405393" xlink:href="#mad696de18e" y="307.584"/>
      </g>
     </g>
     <g id="text_17">
      <!-- 64 -->
      <g transform="translate(308.042893 322.182437)scale(0.1 -0.1)">
       <use xlink:href="#DejaVuSans-54"/>
       <use x="63.623047" xlink:href="#DejaVuSans-52"/>
      </g>
     </g>
    </g>
    <g id="xtick_18">
     <g id="line2d_35">
      <path clip-path="url(#p97cc84de41)" d="M 330.45573 307.584 
L 330.45573 41.472 
" style="fill:none;stroke:#b0b0b0;stroke-dasharray:5.12,1.28,0.8,1.28;stroke-dashoffset:0;stroke-width:0.8;"/>
     </g>
     <g id="line2d_36">
      <g>
       <use style="stroke:#000000;stroke-width:0.8;" x="330.45573" xlink:href="#mad696de18e" y="307.584"/>
      </g>
     </g>
     <g id="text_18">
      <!-- 68 -->
      <g transform="translate(324.09323 322.182437)scale(0.1 -0.1)">
       <use xlink:href="#DejaVuSans-54"/>
       <use x="63.623047" xlink:href="#DejaVuSans-56"/>
      </g>
     </g>
    </g>
    <g id="xtick_19">
     <g id="line2d_37">
      <path clip-path="url(#p97cc84de41)" d="M 346.506067 307.584 
L 346.506067 41.472 
" style="fill:none;stroke:#b0b0b0;stroke-dasharray:5.12,1.28,0.8,1.28;stroke-dashoffset:0;stroke-width:0.8;"/>
     </g>
     <g id="line2d_38">
      <g>
       <use style="stroke:#000000;stroke-width:0.8;" x="346.506067" xlink:href="#mad696de18e" y="307.584"/>
      </g>
     </g>
     <g id="text_19">
      <!-- 72 -->
      <g transform="translate(340.143567 322.182437)scale(0.1 -0.1)">
       <defs>
        <path d="M 8.203125 72.90625 
L 55.078125 72.90625 
L 55.078125 68.703125 
L 28.609375 0 
L 18.3125 0 
L 43.21875 64.59375 
L 8.203125 64.59375 
z
" id="DejaVuSans-55"/>
       </defs>
       <use xlink:href="#DejaVuSans-55"/>
       <use x="63.623047" xlink:href="#DejaVuSans-50"/>
      </g>
     </g>
    </g>
    <g id="xtick_20">
     <g id="line2d_39">
      <path clip-path="url(#p97cc84de41)" d="M 362.556404 307.584 
L 362.556404 41.472 
" style="fill:none;stroke:#b0b0b0;stroke-dasharray:5.12,1.28,0.8,1.28;stroke-dashoffset:0;stroke-width:0.8;"/>
     </g>
     <g id="line2d_40">
      <g>
       <use style="stroke:#000000;stroke-width:0.8;" x="362.556404" xlink:href="#mad696de18e" y="307.584"/>
      </g>
     </g>
     <g id="text_20">
      <!-- 76 -->
      <g transform="translate(356.193904 322.182437)scale(0.1 -0.1)">
       <use xlink:href="#DejaVuSans-55"/>
       <use x="63.623047" xlink:href="#DejaVuSans-54"/>
      </g>
     </g>
    </g>
    <g id="xtick_21">
     <g id="line2d_41">
      <path clip-path="url(#p97cc84de41)" d="M 378.606742 307.584 
L 378.606742 41.472 
" style="fill:none;stroke:#b0b0b0;stroke-dasharray:5.12,1.28,0.8,1.28;stroke-dashoffset:0;stroke-width:0.8;"/>
     </g>
     <g id="line2d_42">
      <g>
       <use style="stroke:#000000;stroke-width:0.8;" x="378.606742" xlink:href="#mad696de18e" y="307.584"/>
      </g>
     </g>
     <g id="text_21">
      <!-- 80 -->
      <g transform="translate(372.244242 322.182437)scale(0.1 -0.1)">
       <use xlink:href="#DejaVuSans-56"/>
       <use x="63.623047" xlink:href="#DejaVuSans-48"/>
      </g>
     </g>
    </g>
    <g id="xtick_22">
     <g id="line2d_43">
      <path clip-path="url(#p97cc84de41)" d="M 394.657079 307.584 
L 394.657079 41.472 
" style="fill:none;stroke:#b0b0b0;stroke-dasharray:5.12,1.28,0.8,1.28;stroke-dashoffset:0;stroke-width:0.8;"/>
     </g>
     <g id="line2d_44">
      <g>
       <use style="stroke:#000000;stroke-width:0.8;" x="394.657079" xlink:href="#mad696de18e" y="307.584"/>
      </g>
     </g>
     <g id="text_22">
      <!-- 84 -->
      <g transform="translate(388.294579 322.182437)scale(0.1 -0.1)">
       <use xlink:href="#DejaVuSans-56"/>
       <use x="63.623047" xlink:href="#DejaVuSans-52"/>
      </g>
     </g>
    </g>
    <g id="xtick_23">
     <g id="line2d_45">
      <path clip-path="url(#p97cc84de41)" d="M 410.707416 307.584 
L 410.707416 41.472 
" style="fill:none;stroke:#b0b0b0;stroke-dasharray:5.12,1.28,0.8,1.28;stroke-dashoffset:0;stroke-width:0.8;"/>
     </g>
     <g id="line2d_46">
      <g>
       <use style="stroke:#000000;stroke-width:0.8;" x="410.707416" xlink:href="#mad696de18e" y="307.584"/>
      </g>
     </g>
     <g id="text_23">
      <!-- 88 -->
      <g transform="translate(404.344916 322.182437)scale(0.1 -0.1)">
       <use xlink:href="#DejaVuSans-56"/>
       <use x="63.623047" xlink:href="#DejaVuSans-56"/>
      </g>
     </g>
    </g>
    <g id="text_24">
     <!-- threads -->
     <g transform="translate(217.168594 335.860562)scale(0.1 -0.1)">
      <defs>
       <path d="M 18.3125 70.21875 
L 18.3125 54.6875 
L 36.8125 54.6875 
L 36.8125 47.703125 
L 18.3125 47.703125 
L 18.3125 18.015625 
Q 18.3125 11.328125 20.140625 9.421875 
Q 21.96875 7.515625 27.59375 7.515625 
L 36.8125 7.515625 
L 36.8125 0 
L 27.59375 0 
Q 17.1875 0 13.234375 3.875 
Q 9.28125 7.765625 9.28125 18.015625 
L 9.28125 47.703125 
L 2.6875 47.703125 
L 2.6875 54.6875 
L 9.28125 54.6875 
L 9.28125 70.21875 
z
" id="DejaVuSans-116"/>
       <path d="M 54.890625 33.015625 
L 54.890625 0 
L 45.90625 0 
L 45.90625 32.71875 
Q 45.90625 40.484375 42.875 44.328125 
Q 39.84375 48.1875 33.796875 48.1875 
Q 26.515625 48.1875 22.3125 43.546875 
Q 18.109375 38.921875 18.109375 30.90625 
L 18.109375 0 
L 9.078125 0 
L 9.078125 75.984375 
L 18.109375 75.984375 
L 18.109375 46.1875 
Q 21.34375 51.125 25.703125 53.5625 
Q 30.078125 56 35.796875 56 
Q 45.21875 56 50.046875 50.171875 
Q 54.890625 44.34375 54.890625 33.015625 
z
" id="DejaVuSans-104"/>
       <path d="M 41.109375 46.296875 
Q 39.59375 47.171875 37.8125 47.578125 
Q 36.03125 48 33.890625 48 
Q 26.265625 48 22.1875 43.046875 
Q 18.109375 38.09375 18.109375 28.8125 
L 18.109375 0 
L 9.078125 0 
L 9.078125 54.6875 
L 18.109375 54.6875 
L 18.109375 46.1875 
Q 20.953125 51.171875 25.484375 53.578125 
Q 30.03125 56 36.53125 56 
Q 37.453125 56 38.578125 55.875 
Q 39.703125 55.765625 41.0625 55.515625 
z
" id="DejaVuSans-114"/>
       <path d="M 56.203125 29.59375 
L 56.203125 25.203125 
L 14.890625 25.203125 
Q 15.484375 15.921875 20.484375 11.0625 
Q 25.484375 6.203125 34.421875 6.203125 
Q 39.59375 6.203125 44.453125 7.46875 
Q 49.3125 8.734375 54.109375 11.28125 
L 54.109375 2.78125 
Q 49.265625 0.734375 44.1875 -0.34375 
Q 39.109375 -1.421875 33.890625 -1.421875 
Q 20.796875 -1.421875 13.15625 6.1875 
Q 5.515625 13.8125 5.515625 26.8125 
Q 5.515625 40.234375 12.765625 48.109375 
Q 20.015625 56 32.328125 56 
Q 43.359375 56 49.78125 48.890625 
Q 56.203125 41.796875 56.203125 29.59375 
z
M 47.21875 32.234375 
Q 47.125 39.59375 43.09375 43.984375 
Q 39.0625 48.390625 32.421875 48.390625 
Q 24.90625 48.390625 20.390625 44.140625 
Q 15.875 39.890625 15.1875 32.171875 
z
" id="DejaVuSans-101"/>
       <path d="M 34.28125 27.484375 
Q 23.390625 27.484375 19.1875 25 
Q 14.984375 22.515625 14.984375 16.5 
Q 14.984375 11.71875 18.140625 8.90625 
Q 21.296875 6.109375 26.703125 6.109375 
Q 34.1875 6.109375 38.703125 11.40625 
Q 43.21875 16.703125 43.21875 25.484375 
L 43.21875 27.484375 
z
M 52.203125 31.203125 
L 52.203125 0 
L 43.21875 0 
L 43.21875 8.296875 
Q 40.140625 3.328125 35.546875 0.953125 
Q 30.953125 -1.421875 24.3125 -1.421875 
Q 15.921875 -1.421875 10.953125 3.296875 
Q 6 8.015625 6 15.921875 
Q 6 25.140625 12.171875 29.828125 
Q 18.359375 34.515625 30.609375 34.515625 
L 43.21875 34.515625 
L 43.21875 35.40625 
Q 43.21875 41.609375 39.140625 45 
Q 35.0625 48.390625 27.6875 48.390625 
Q 23 48.390625 18.546875 47.265625 
Q 14.109375 46.140625 10.015625 43.890625 
L 10.015625 52.203125 
Q 14.9375 54.109375 19.578125 55.046875 
Q 24.21875 56 28.609375 56 
Q 40.484375 56 46.34375 49.84375 
Q 52.203125 43.703125 52.203125 31.203125 
z
" id="DejaVuSans-97"/>
       <path d="M 45.40625 46.390625 
L 45.40625 75.984375 
L 54.390625 75.984375 
L 54.390625 0 
L 45.40625 0 
L 45.40625 8.203125 
Q 42.578125 3.328125 38.25 0.953125 
Q 33.9375 -1.421875 27.875 -1.421875 
Q 17.96875 -1.421875 11.734375 6.484375 
Q 5.515625 14.40625 5.515625 27.296875 
Q 5.515625 40.1875 11.734375 48.09375 
Q 17.96875 56 27.875 56 
Q 33.9375 56 38.25 53.625 
Q 42.578125 51.265625 45.40625 46.390625 
z
M 14.796875 27.296875 
Q 14.796875 17.390625 18.875 11.75 
Q 22.953125 6.109375 30.078125 6.109375 
Q 37.203125 6.109375 41.296875 11.75 
Q 45.40625 17.390625 45.40625 27.296875 
Q 45.40625 37.203125 41.296875 42.84375 
Q 37.203125 48.484375 30.078125 48.484375 
Q 22.953125 48.484375 18.875 42.84375 
Q 14.796875 37.203125 14.796875 27.296875 
z
" id="DejaVuSans-100"/>
       <path d="M 44.28125 53.078125 
L 44.28125 44.578125 
Q 40.484375 46.53125 36.375 47.5 
Q 32.28125 48.484375 27.875 48.484375 
Q 21.1875 48.484375 17.84375 46.4375 
Q 14.5 44.390625 14.5 40.28125 
Q 14.5 37.15625 16.890625 35.375 
Q 19.28125 33.59375 26.515625 31.984375 
L 29.59375 31.296875 
Q 39.15625 29.25 43.1875 25.515625 
Q 47.21875 21.78125 47.21875 15.09375 
Q 47.21875 7.46875 41.1875 3.015625 
Q 35.15625 -1.421875 24.609375 -1.421875 
Q 20.21875 -1.421875 15.453125 -0.5625 
Q 10.6875 0.296875 5.421875 2 
L 5.421875 11.28125 
Q 10.40625 8.6875 15.234375 7.390625 
Q 20.0625 6.109375 24.8125 6.109375 
Q 31.15625 6.109375 34.5625 8.28125 
Q 37.984375 10.453125 37.984375 14.40625 
Q 37.984375 18.0625 35.515625 20.015625 
Q 33.0625 21.96875 24.703125 23.78125 
L 21.578125 24.515625 
Q 13.234375 26.265625 9.515625 29.90625 
Q 5.8125 33.546875 5.8125 39.890625 
Q 5.8125 47.609375 11.28125 51.796875 
Q 16.75 56 26.8125 56 
Q 31.78125 56 36.171875 55.265625 
Q 40.578125 54.546875 44.28125 53.078125 
z
" id="DejaVuSans-115"/>
      </defs>
      <use xlink:href="#DejaVuSans-116"/>
      <use x="39.208984" xlink:href="#DejaVuSans-104"/>
      <use x="102.587891" xlink:href="#DejaVuSans-114"/>
      <use x="141.451172" xlink:href="#DejaVuSans-101"/>
      <use x="202.974609" xlink:href="#DejaVuSans-97"/>
      <use x="264.253906" xlink:href="#DejaVuSans-100"/>
      <use x="327.730469" xlink:href="#DejaVuSans-115"/>
     </g>
    </g>
   </g>
   <g id="matplotlib.axis_2">
    <g id="ytick_1">
     <g id="line2d_47">
      <path clip-path="url(#p97cc84de41)" d="M 57.6 268.031847 
L 414.72 268.031847 
" style="fill:none;stroke:#b0b0b0;stroke-dasharray:5.12,1.28,0.8,1.28;stroke-dashoffset:0;stroke-width:0.8;"/>
     </g>
     <g id="line2d_48">
      <defs>
       <path d="M 0 0 
L -3.5 0 
" id="mcd6bddaeee" style="stroke:#000000;stroke-width:0.8;"/>
      </defs>
      <g>
       <use style="stroke:#000000;stroke-width:0.8;" x="57.6" xlink:href="#mcd6bddaeee" y="268.031847"/>
      </g>
     </g>
     <g id="text_25">
      <!-- 0.1 -->
      <g transform="translate(34.696875 271.831066)scale(0.1 -0.1)">
       <defs>
        <path d="M 10.6875 12.40625 
L 21 12.40625 
L 21 0 
L 10.6875 0 
z
" id="DejaVuSans-46"/>
       </defs>
       <use xlink:href="#DejaVuSans-48"/>
       <use x="63.623047" xlink:href="#DejaVuSans-46"/>
       <use x="95.410156" xlink:href="#DejaVuSans-49"/>
      </g>
     </g>
    </g>
    <g id="ytick_2">
     <g id="line2d_49">
      <path clip-path="url(#p97cc84de41)" d="M 57.6 222.443793 
L 414.72 222.443793 
" style="fill:none;stroke:#b0b0b0;stroke-dasharray:5.12,1.28,0.8,1.28;stroke-dashoffset:0;stroke-width:0.8;"/>
     </g>
     <g id="line2d_50">
      <g>
       <use style="stroke:#000000;stroke-width:0.8;" x="57.6" xlink:href="#mcd6bddaeee" y="222.443793"/>
      </g>
     </g>
     <g id="text_26">
      <!-- 0.2 -->
      <g transform="translate(34.696875 226.243012)scale(0.1 -0.1)">
       <use xlink:href="#DejaVuSans-48"/>
       <use x="63.623047" xlink:href="#DejaVuSans-46"/>
       <use x="95.410156" xlink:href="#DejaVuSans-50"/>
      </g>
     </g>
    </g>
    <g id="ytick_3">
     <g id="line2d_51">
      <path clip-path="url(#p97cc84de41)" d="M 57.6 176.855738 
L 414.72 176.855738 
" style="fill:none;stroke:#b0b0b0;stroke-dasharray:5.12,1.28,0.8,1.28;stroke-dashoffset:0;stroke-width:0.8;"/>
     </g>
     <g id="line2d_52">
      <g>
       <use style="stroke:#000000;stroke-width:0.8;" x="57.6" xlink:href="#mcd6bddaeee" y="176.855738"/>
      </g>
     </g>
     <g id="text_27">
      <!-- 0.3 -->
      <g transform="translate(34.696875 180.654957)scale(0.1 -0.1)">
       <use xlink:href="#DejaVuSans-48"/>
       <use x="63.623047" xlink:href="#DejaVuSans-46"/>
       <use x="95.410156" xlink:href="#DejaVuSans-51"/>
      </g>
     </g>
    </g>
    <g id="ytick_4">
     <g id="line2d_53">
      <path clip-path="url(#p97cc84de41)" d="M 57.6 131.267684 
L 414.72 131.267684 
" style="fill:none;stroke:#b0b0b0;stroke-dasharray:5.12,1.28,0.8,1.28;stroke-dashoffset:0;stroke-width:0.8;"/>
     </g>
     <g id="line2d_54">
      <g>
       <use style="stroke:#000000;stroke-width:0.8;" x="57.6" xlink:href="#mcd6bddaeee" y="131.267684"/>
      </g>
     </g>
     <g id="text_28">
      <!-- 0.4 -->
      <g transform="translate(34.696875 135.066902)scale(0.1 -0.1)">
       <use xlink:href="#DejaVuSans-48"/>
       <use x="63.623047" xlink:href="#DejaVuSans-46"/>
       <use x="95.410156" xlink:href="#DejaVuSans-52"/>
      </g>
     </g>
    </g>
    <g id="ytick_5">
     <g id="line2d_55">
      <path clip-path="url(#p97cc84de41)" d="M 57.6 85.679629 
L 414.72 85.679629 
" style="fill:none;stroke:#b0b0b0;stroke-dasharray:5.12,1.28,0.8,1.28;stroke-dashoffset:0;stroke-width:0.8;"/>
     </g>
     <g id="line2d_56">
      <g>
       <use style="stroke:#000000;stroke-width:0.8;" x="57.6" xlink:href="#mcd6bddaeee" y="85.679629"/>
      </g>
     </g>
     <g id="text_29">
      <!-- 0.5 -->
      <g transform="translate(34.696875 89.478848)scale(0.1 -0.1)">
       <use xlink:href="#DejaVuSans-48"/>
       <use x="63.623047" xlink:href="#DejaVuSans-46"/>
       <use x="95.410156" xlink:href="#DejaVuSans-53"/>
      </g>
     </g>
    </g>
    <g id="text_30">
     <!-- duration (s) -->
     <g transform="translate(28.617187 203.663156)rotate(-90)scale(0.1 -0.1)">
      <defs>
       <path d="M 8.5 21.578125 
L 8.5 54.6875 
L 17.484375 54.6875 
L 17.484375 21.921875 
Q 17.484375 14.15625 20.5 10.265625 
Q 23.53125 6.390625 29.59375 6.390625 
Q 36.859375 6.390625 41.078125 11.03125 
Q 45.3125 15.671875 45.3125 23.6875 
L 45.3125 54.6875 
L 54.296875 54.6875 
L 54.296875 0 
L 45.3125 0 
L 45.3125 8.40625 
Q 42.046875 3.421875 37.71875 1 
Q 33.40625 -1.421875 27.6875 -1.421875 
Q 18.265625 -1.421875 13.375 4.4375 
Q 8.5 10.296875 8.5 21.578125 
z
M 31.109375 56 
z
" id="DejaVuSans-117"/>
       <path d="M 9.421875 54.6875 
L 18.40625 54.6875 
L 18.40625 0 
L 9.421875 0 
z
M 9.421875 75.984375 
L 18.40625 75.984375 
L 18.40625 64.59375 
L 9.421875 64.59375 
z
" id="DejaVuSans-105"/>
       <path d="M 30.609375 48.390625 
Q 23.390625 48.390625 19.1875 42.75 
Q 14.984375 37.109375 14.984375 27.296875 
Q 14.984375 17.484375 19.15625 11.84375 
Q 23.34375 6.203125 30.609375 6.203125 
Q 37.796875 6.203125 41.984375 11.859375 
Q 46.1875 17.53125 46.1875 27.296875 
Q 46.1875 37.015625 41.984375 42.703125 
Q 37.796875 48.390625 30.609375 48.390625 
z
M 30.609375 56 
Q 42.328125 56 49.015625 48.375 
Q 55.71875 40.765625 55.71875 27.296875 
Q 55.71875 13.875 49.015625 6.21875 
Q 42.328125 -1.421875 30.609375 -1.421875 
Q 18.84375 -1.421875 12.171875 6.21875 
Q 5.515625 13.875 5.515625 27.296875 
Q 5.515625 40.765625 12.171875 48.375 
Q 18.84375 56 30.609375 56 
z
" id="DejaVuSans-111"/>
       <path d="M 54.890625 33.015625 
L 54.890625 0 
L 45.90625 0 
L 45.90625 32.71875 
Q 45.90625 40.484375 42.875 44.328125 
Q 39.84375 48.1875 33.796875 48.1875 
Q 26.515625 48.1875 22.3125 43.546875 
Q 18.109375 38.921875 18.109375 30.90625 
L 18.109375 0 
L 9.078125 0 
L 9.078125 54.6875 
L 18.109375 54.6875 
L 18.109375 46.1875 
Q 21.34375 51.125 25.703125 53.5625 
Q 30.078125 56 35.796875 56 
Q 45.21875 56 50.046875 50.171875 
Q 54.890625 44.34375 54.890625 33.015625 
z
" id="DejaVuSans-110"/>
       <path id="DejaVuSans-32"/>
       <path d="M 31 75.875 
Q 24.46875 64.65625 21.28125 53.65625 
Q 18.109375 42.671875 18.109375 31.390625 
Q 18.109375 20.125 21.3125 9.0625 
Q 24.515625 -2 31 -13.1875 
L 23.1875 -13.1875 
Q 15.875 -1.703125 12.234375 9.375 
Q 8.59375 20.453125 8.59375 31.390625 
Q 8.59375 42.28125 12.203125 53.3125 
Q 15.828125 64.359375 23.1875 75.875 
z
" id="DejaVuSans-40"/>
       <path d="M 8.015625 75.875 
L 15.828125 75.875 
Q 23.140625 64.359375 26.78125 53.3125 
Q 30.421875 42.28125 30.421875 31.390625 
Q 30.421875 20.453125 26.78125 9.375 
Q 23.140625 -1.703125 15.828125 -13.1875 
L 8.015625 -13.1875 
Q 14.5 -2 17.703125 9.0625 
Q 20.90625 20.125 20.90625 31.390625 
Q 20.90625 42.671875 17.703125 53.65625 
Q 14.5 64.65625 8.015625 75.875 
z
" id="DejaVuSans-41"/>
      </defs>
      <use xlink:href="#DejaVuSans-100"/>
      <use x="63.476562" xlink:href="#DejaVuSans-117"/>
      <use x="126.855469" xlink:href="#DejaVuSans-114"/>
      <use x="167.96875" xlink:href="#DejaVuSans-97"/>
      <use x="229.248047" xlink:href="#DejaVuSans-116"/>
      <use x="268.457031" xlink:href="#DejaVuSans-105"/>
      <use x="296.240234" xlink:href="#DejaVuSans-111"/>
      <use x="357.421875" xlink:href="#DejaVuSans-110"/>
      <use x="420.800781" xlink:href="#DejaVuSans-32"/>
      <use x="452.587891" xlink:href="#DejaVuSans-40"/>
      <use x="491.601562" xlink:href="#DejaVuSans-115"/>
      <use x="543.701172" xlink:href="#DejaVuSans-41"/>
     </g>
    </g>
   </g>
   <g id="line2d_57">
    <path clip-path="url(#p97cc84de41)" d="M 61.612584 86.342703 
L 65.625169 197.748212 
L 69.637753 233.978725 
L 73.650337 252.31849 
L 77.662921 263.64555 
L 81.675506 270.104881 
L 85.68809 272.019679 
L 89.700674 278.580029 
L 93.713258 280.173105 
L 97.725843 285.434418 
L 101.738427 286.239752 
L 105.751011 288.702707 
L 109.763596 289.643656 
L 113.77618 290.084255 
L 117.788764 289.547045 
L 121.801348 290.429503 
L 125.813933 289.707162 
L 129.826517 289.428852 
L 133.839101 289.885274 
L 137.851685 290.898688 
L 141.86427 291.198347 
L 145.876854 291.975095 
L 149.889438 292.223826 
L 153.902022 292.905004 
L 157.914607 293.903527 
L 161.927191 294.542145 
L 165.939775 294.532503 
L 169.95236 294.66894 
L 173.964944 295.041981 
L 177.977528 295.096606 
L 181.990112 295.488 
L 186.002697 294.784571 
L 190.015281 294.919487 
L 194.027865 295.04726 
L 198.040449 293.042389 
L 202.053034 293.609193 
L 206.065618 293.380276 
L 210.078202 292.939598 
L 214.090787 292.668105 
L 218.103371 292.41863 
L 222.115955 292.791671 
L 226.128539 293.166016 
L 230.141124 293.753037 
L 234.153708 293.845362 
L 238.166292 293.368755 
L 242.178876 293.194757 
L 246.191461 293.531837 
L 250.204045 293.579661 
L 254.216629 293.88036 
L 258.229213 293.478687 
L 262.241798 293.216045 
L 266.254382 293.709049 
L 270.266966 293.430739 
L 274.279551 293.992358 
L 278.292135 294.554194 
L 282.304719 294.031409 
L 286.317303 294.439324 
L 290.329888 294.494849 
L 294.342472 294.803561 
L 298.355056 294.86053 
L 302.36764 294.924735 
L 306.380225 294.873138 
L 310.392809 294.855158 
L 314.405393 293.845098 
L 318.417978 293.93556 
L 322.430562 293.018182 
L 326.443146 293.479805 
L 330.45573 293.916756 
L 334.468315 293.637919 
L 338.480899 292.942983 
L 342.493483 293.471871 
L 346.506067 293.240205 
L 350.518652 293.346054 
L 354.531236 293.262766 
L 358.54382 293.68978 
L 362.556404 293.984734 
L 366.568989 293.271461 
L 370.581573 293.765537 
L 374.594157 294.060336 
L 378.606742 293.253605 
L 382.619326 293.46361 
L 386.63191 293.131126 
L 390.644494 293.383381 
L 394.657079 285.028832 
L 398.669663 292.509076 
L 402.682247 292.643231 
L 406.694831 292.570579 
L 410.707416 291.349831 
" style="fill:none;stroke:#0000ff;stroke-dasharray:1.5,2.475;stroke-dashoffset:0;stroke-width:1.5;"/>
    <defs>
     <path d="M 0 1.5 
C 0.397805 1.5 0.77937 1.341951 1.06066 1.06066 
C 1.341951 0.77937 1.5 0.397805 1.5 0 
C 1.5 -0.397805 1.341951 -0.77937 1.06066 -1.06066 
C 0.77937 -1.341951 0.397805 -1.5 0 -1.5 
C -0.397805 -1.5 -0.77937 -1.341951 -1.06066 -1.06066 
C -1.341951 -0.77937 -1.5 -0.397805 -1.5 0 
C -1.5 0.397805 -1.341951 0.77937 -1.06066 1.06066 
C -0.77937 1.341951 -0.397805 1.5 0 1.5 
z
" id="mf7251b1f98" style="stroke:#0000ff;"/>
    </defs>
    <g clip-path="url(#p97cc84de41)">
     <use style="fill:#0000ff;stroke:#0000ff;" x="61.612584" xlink:href="#mf7251b1f98" y="86.342703"/>
     <use style="fill:#0000ff;stroke:#0000ff;" x="65.625169" xlink:href="#mf7251b1f98" y="197.748212"/>
     <use style="fill:#0000ff;stroke:#0000ff;" x="69.637753" xlink:href="#mf7251b1f98" y="233.978725"/>
     <use style="fill:#0000ff;stroke:#0000ff;" x="73.650337" xlink:href="#mf7251b1f98" y="252.31849"/>
     <use style="fill:#0000ff;stroke:#0000ff;" x="77.662921" xlink:href="#mf7251b1f98" y="263.64555"/>
     <use style="fill:#0000ff;stroke:#0000ff;" x="81.675506" xlink:href="#mf7251b1f98" y="270.104881"/>
     <use style="fill:#0000ff;stroke:#0000ff;" x="85.68809" xlink:href="#mf7251b1f98" y="272.019679"/>
     <use style="fill:#0000ff;stroke:#0000ff;" x="89.700674" xlink:href="#mf7251b1f98" y="278.580029"/>
     <use style="fill:#0000ff;stroke:#0000ff;" x="93.713258" xlink:href="#mf7251b1f98" y="280.173105"/>
     <use style="fill:#0000ff;stroke:#0000ff;" x="97.725843" xlink:href="#mf7251b1f98" y="285.434418"/>
     <use style="fill:#0000ff;stroke:#0000ff;" x="101.738427" xlink:href="#mf7251b1f98" y="286.239752"/>
     <use style="fill:#0000ff;stroke:#0000ff;" x="105.751011" xlink:href="#mf7251b1f98" y="288.702707"/>
     <use style="fill:#0000ff;stroke:#0000ff;" x="109.763596" xlink:href="#mf7251b1f98" y="289.643656"/>
     <use style="fill:#0000ff;stroke:#0000ff;" x="113.77618" xlink:href="#mf7251b1f98" y="290.084255"/>
     <use style="fill:#0000ff;stroke:#0000ff;" x="117.788764" xlink:href="#mf7251b1f98" y="289.547045"/>
     <use style="fill:#0000ff;stroke:#0000ff;" x="121.801348" xlink:href="#mf7251b1f98" y="290.429503"/>
     <use style="fill:#0000ff;stroke:#0000ff;" x="125.813933" xlink:href="#mf7251b1f98" y="289.707162"/>
     <use style="fill:#0000ff;stroke:#0000ff;" x="129.826517" xlink:href="#mf7251b1f98" y="289.428852"/>
     <use style="fill:#0000ff;stroke:#0000ff;" x="133.839101" xlink:href="#mf7251b1f98" y="289.885274"/>
     <use style="fill:#0000ff;stroke:#0000ff;" x="137.851685" xlink:href="#mf7251b1f98" y="290.898688"/>
     <use style="fill:#0000ff;stroke:#0000ff;" x="141.86427" xlink:href="#mf7251b1f98" y="291.198347"/>
     <use style="fill:#0000ff;stroke:#0000ff;" x="145.876854" xlink:href="#mf7251b1f98" y="291.975095"/>
     <use style="fill:#0000ff;stroke:#0000ff;" x="149.889438" xlink:href="#mf7251b1f98" y="292.223826"/>
     <use style="fill:#0000ff;stroke:#0000ff;" x="153.902022" xlink:href="#mf7251b1f98" y="292.905004"/>
     <use style="fill:#0000ff;stroke:#0000ff;" x="157.914607" xlink:href="#mf7251b1f98" y="293.903527"/>
     <use style="fill:#0000ff;stroke:#0000ff;" x="161.927191" xlink:href="#mf7251b1f98" y="294.542145"/>
     <use style="fill:#0000ff;stroke:#0000ff;" x="165.939775" xlink:href="#mf7251b1f98" y="294.532503"/>
     <use style="fill:#0000ff;stroke:#0000ff;" x="169.95236" xlink:href="#mf7251b1f98" y="294.66894"/>
     <use style="fill:#0000ff;stroke:#0000ff;" x="173.964944" xlink:href="#mf7251b1f98" y="295.041981"/>
     <use style="fill:#0000ff;stroke:#0000ff;" x="177.977528" xlink:href="#mf7251b1f98" y="295.096606"/>
     <use style="fill:#0000ff;stroke:#0000ff;" x="181.990112" xlink:href="#mf7251b1f98" y="295.488"/>
     <use style="fill:#0000ff;stroke:#0000ff;" x="186.002697" xlink:href="#mf7251b1f98" y="294.784571"/>
     <use style="fill:#0000ff;stroke:#0000ff;" x="190.015281" xlink:href="#mf7251b1f98" y="294.919487"/>
     <use style="fill:#0000ff;stroke:#0000ff;" x="194.027865" xlink:href="#mf7251b1f98" y="295.04726"/>
     <use style="fill:#0000ff;stroke:#0000ff;" x="198.040449" xlink:href="#mf7251b1f98" y="293.042389"/>
     <use style="fill:#0000ff;stroke:#0000ff;" x="202.053034" xlink:href="#mf7251b1f98" y="293.609193"/>
     <use style="fill:#0000ff;stroke:#0000ff;" x="206.065618" xlink:href="#mf7251b1f98" y="293.380276"/>
     <use style="fill:#0000ff;stroke:#0000ff;" x="210.078202" xlink:href="#mf7251b1f98" y="292.939598"/>
     <use style="fill:#0000ff;stroke:#0000ff;" x="214.090787" xlink:href="#mf7251b1f98" y="292.668105"/>
     <use style="fill:#0000ff;stroke:#0000ff;" x="218.103371" xlink:href="#mf7251b1f98" y="292.41863"/>
     <use style="fill:#0000ff;stroke:#0000ff;" x="222.115955" xlink:href="#mf7251b1f98" y="292.791671"/>
     <use style="fill:#0000ff;stroke:#0000ff;" x="226.128539" xlink:href="#mf7251b1f98" y="293.166016"/>
     <use style="fill:#0000ff;stroke:#0000ff;" x="230.141124" xlink:href="#mf7251b1f98" y="293.753037"/>
     <use style="fill:#0000ff;stroke:#0000ff;" x="234.153708" xlink:href="#mf7251b1f98" y="293.845362"/>
     <use style="fill:#0000ff;stroke:#0000ff;" x="238.166292" xlink:href="#mf7251b1f98" y="293.368755"/>
     <use style="fill:#0000ff;stroke:#0000ff;" x="242.178876" xlink:href="#mf7251b1f98" y="293.194757"/>
     <use style="fill:#0000ff;stroke:#0000ff;" x="246.191461" xlink:href="#mf7251b1f98" y="293.531837"/>
     <use style="fill:#0000ff;stroke:#0000ff;" x="250.204045" xlink:href="#mf7251b1f98" y="293.579661"/>
     <use style="fill:#0000ff;stroke:#0000ff;" x="254.216629" xlink:href="#mf7251b1f98" y="293.88036"/>
     <use style="fill:#0000ff;stroke:#0000ff;" x="258.229213" xlink:href="#mf7251b1f98" y="293.478687"/>
     <use style="fill:#0000ff;stroke:#0000ff;" x="262.241798" xlink:href="#mf7251b1f98" y="293.216045"/>
     <use style="fill:#0000ff;stroke:#0000ff;" x="266.254382" xlink:href="#mf7251b1f98" y="293.709049"/>
     <use style="fill:#0000ff;stroke:#0000ff;" x="270.266966" xlink:href="#mf7251b1f98" y="293.430739"/>
     <use style="fill:#0000ff;stroke:#0000ff;" x="274.279551" xlink:href="#mf7251b1f98" y="293.992358"/>
     <use style="fill:#0000ff;stroke:#0000ff;" x="278.292135" xlink:href="#mf7251b1f98" y="294.554194"/>
     <use style="fill:#0000ff;stroke:#0000ff;" x="282.304719" xlink:href="#mf7251b1f98" y="294.031409"/>
     <use style="fill:#0000ff;stroke:#0000ff;" x="286.317303" xlink:href="#mf7251b1f98" y="294.439324"/>
     <use style="fill:#0000ff;stroke:#0000ff;" x="290.329888" xlink:href="#mf7251b1f98" y="294.494849"/>
     <use style="fill:#0000ff;stroke:#0000ff;" x="294.342472" xlink:href="#mf7251b1f98" y="294.803561"/>
     <use style="fill:#0000ff;stroke:#0000ff;" x="298.355056" xlink:href="#mf7251b1f98" y="294.86053"/>
     <use style="fill:#0000ff;stroke:#0000ff;" x="302.36764" xlink:href="#mf7251b1f98" y="294.924735"/>
     <use style="fill:#0000ff;stroke:#0000ff;" x="306.380225" xlink:href="#mf7251b1f98" y="294.873138"/>
     <use style="fill:#0000ff;stroke:#0000ff;" x="310.392809" xlink:href="#mf7251b1f98" y="294.855158"/>
     <use style="fill:#0000ff;stroke:#0000ff;" x="314.405393" xlink:href="#mf7251b1f98" y="293.845098"/>
     <use style="fill:#0000ff;stroke:#0000ff;" x="318.417978" xlink:href="#mf7251b1f98" y="293.93556"/>
     <use style="fill:#0000ff;stroke:#0000ff;" x="322.430562" xlink:href="#mf7251b1f98" y="293.018182"/>
     <use style="fill:#0000ff;stroke:#0000ff;" x="326.443146" xlink:href="#mf7251b1f98" y="293.479805"/>
     <use style="fill:#0000ff;stroke:#0000ff;" x="330.45573" xlink:href="#mf7251b1f98" y="293.916756"/>
     <use style="fill:#0000ff;stroke:#0000ff;" x="334.468315" xlink:href="#mf7251b1f98" y="293.637919"/>
     <use style="fill:#0000ff;stroke:#0000ff;" x="338.480899" xlink:href="#mf7251b1f98" y="292.942983"/>
     <use style="fill:#0000ff;stroke:#0000ff;" x="342.493483" xlink:href="#mf7251b1f98" y="293.471871"/>
     <use style="fill:#0000ff;stroke:#0000ff;" x="346.506067" xlink:href="#mf7251b1f98" y="293.240205"/>
     <use style="fill:#0000ff;stroke:#0000ff;" x="350.518652" xlink:href="#mf7251b1f98" y="293.346054"/>
     <use style="fill:#0000ff;stroke:#0000ff;" x="354.531236" xlink:href="#mf7251b1f98" y="293.262766"/>
     <use style="fill:#0000ff;stroke:#0000ff;" x="358.54382" xlink:href="#mf7251b1f98" y="293.68978"/>
     <use style="fill:#0000ff;stroke:#0000ff;" x="362.556404" xlink:href="#mf7251b1f98" y="293.984734"/>
     <use style="fill:#0000ff;stroke:#0000ff;" x="366.568989" xlink:href="#mf7251b1f98" y="293.271461"/>
     <use style="fill:#0000ff;stroke:#0000ff;" x="370.581573" xlink:href="#mf7251b1f98" y="293.765537"/>
     <use style="fill:#0000ff;stroke:#0000ff;" x="374.594157" xlink:href="#mf7251b1f98" y="294.060336"/>
     <use style="fill:#0000ff;stroke:#0000ff;" x="378.606742" xlink:href="#mf7251b1f98" y="293.253605"/>
     <use style="fill:#0000ff;stroke:#0000ff;" x="382.619326" xlink:href="#mf7251b1f98" y="293.46361"/>
     <use style="fill:#0000ff;stroke:#0000ff;" x="386.63191" xlink:href="#mf7251b1f98" y="293.131126"/>
     <use style="fill:#0000ff;stroke:#0000ff;" x="390.644494" xlink:href="#mf7251b1f98" y="293.383381"/>
     <use style="fill:#0000ff;stroke:#0000ff;" x="394.657079" xlink:href="#mf7251b1f98" y="285.028832"/>
     <use style="fill:#0000ff;stroke:#0000ff;" x="398.669663" xlink:href="#mf7251b1f98" y="292.509076"/>
     <use style="fill:#0000ff;stroke:#0000ff;" x="402.682247" xlink:href="#mf7251b1f98" y="292.643231"/>
     <use style="fill:#0000ff;stroke:#0000ff;" x="406.694831" xlink:href="#mf7251b1f98" y="292.570579"/>
     <use style="fill:#0000ff;stroke:#0000ff;" x="410.707416" xlink:href="#mf7251b1f98" y="291.349831"/>
    </g>
   </g>
   <g id="line2d_58">
    <path clip-path="url(#p97cc84de41)" d="M 61.612584 53.568 
L 65.625169 177.428978 
L 69.637753 221.796442 
L 73.650337 242.429264 
L 77.662921 255.249528 
L 81.675506 263.242557 
L 85.68809 265.689551 
L 89.700674 273.246064 
L 93.713258 274.922489 
L 97.725843 281.218194 
L 101.738427 282.346027 
L 105.751011 285.073504 
L 109.763596 286.479849 
L 113.77618 286.551942 
L 117.788764 285.919038 
L 121.801348 287.381358 
L 125.813933 286.758966 
L 129.826517 287.003954 
L 133.839101 287.485701 
L 137.851685 288.701776 
L 141.86427 289.486738 
L 145.876854 290.09132 
L 149.889438 290.537929 
L 153.902022 291.101427 
L 157.914607 292.031024 
L 161.927191 292.567955 
L 165.939775 292.57575 
L 169.95236 292.969333 
L 173.964944 293.45712 
L 177.977528 293.786079 
L 181.990112 294.05411 
L 186.002697 294.184041 
L 190.015281 294.847348 
L 194.027865 295.08229 
L 198.040449 291.643388 
L 202.053034 291.974723 
L 206.065618 292.493098 
L 210.078202 292.382188 
L 214.090787 293.726098 
L 218.103371 293.340123 
L 222.115955 294.450379 
L 226.128539 293.965279 
L 230.141124 294.218077 
L 234.153708 293.823003 
L 238.166292 294.091779 
L 242.178876 293.654191 
L 246.191461 294.282748 
L 250.204045 294.079435 
L 254.216629 294.505672 
L 258.229213 294.381547 
L 262.241798 294.549645 
L 266.254382 293.686581 
L 270.266966 293.765335 
L 274.279551 293.571649 
L 278.292135 293.507863 
L 282.304719 292.781019 
L 286.317303 292.795739 
L 290.329888 293.576462 
L 294.342472 292.459746 
L 298.355056 292.687499 
L 302.36764 292.379113 
L 306.380225 292.32792 
L 310.392809 293.049453 
L 314.405393 294.140239 
L 318.417978 294.284828 
L 322.430562 294.522876 
L 326.443146 294.503017 
L 330.45573 294.219195 
L 334.468315 294.159508 
L 338.480899 293.87533 
L 342.493483 293.599287 
L 346.506067 293.56345 
L 350.518652 292.814573 
L 354.531236 292.986661 
L 358.54382 292.708989 
L 362.556404 292.824977 
L 366.568989 292.539214 
L 370.581573 292.216978 
L 374.594157 292.342811 
L 378.606742 291.981027 
L 382.619326 292.080851 
L 386.63191 292.043182 
L 390.644494 290.701555 
L 394.657079 283.834139 
L 398.669663 291.533859 
L 402.682247 292.01969 
L 406.694831 291.4034 
L 410.707416 292.11543 
" style="fill:none;stroke:#ff0000;stroke-dasharray:1.5,2.475;stroke-dashoffset:0;stroke-width:1.5;"/>
    <defs>
     <path d="M 0 1.5 
C 0.397805 1.5 0.77937 1.341951 1.06066 1.06066 
C 1.341951 0.77937 1.5 0.397805 1.5 0 
C 1.5 -0.397805 1.341951 -0.77937 1.06066 -1.06066 
C 0.77937 -1.341951 0.397805 -1.5 0 -1.5 
C -0.397805 -1.5 -0.77937 -1.341951 -1.06066 -1.06066 
C -1.341951 -0.77937 -1.5 -0.397805 -1.5 0 
C -1.5 0.397805 -1.341951 0.77937 -1.06066 1.06066 
C -0.77937 1.341951 -0.397805 1.5 0 1.5 
z
" id="m4c551c3395" style="stroke:#ff0000;"/>
    </defs>
    <g clip-path="url(#p97cc84de41)">
     <use style="fill:#ff0000;stroke:#ff0000;" x="61.612584" xlink:href="#m4c551c3395" y="53.568"/>
     <use style="fill:#ff0000;stroke:#ff0000;" x="65.625169" xlink:href="#m4c551c3395" y="177.428978"/>
     <use style="fill:#ff0000;stroke:#ff0000;" x="69.637753" xlink:href="#m4c551c3395" y="221.796442"/>
     <use style="fill:#ff0000;stroke:#ff0000;" x="73.650337" xlink:href="#m4c551c3395" y="242.429264"/>
     <use style="fill:#ff0000;stroke:#ff0000;" x="77.662921" xlink:href="#m4c551c3395" y="255.249528"/>
     <use style="fill:#ff0000;stroke:#ff0000;" x="81.675506" xlink:href="#m4c551c3395" y="263.242557"/>
     <use style="fill:#ff0000;stroke:#ff0000;" x="85.68809" xlink:href="#m4c551c3395" y="265.689551"/>
     <use style="fill:#ff0000;stroke:#ff0000;" x="89.700674" xlink:href="#m4c551c3395" y="273.246064"/>
     <use style="fill:#ff0000;stroke:#ff0000;" x="93.713258" xlink:href="#m4c551c3395" y="274.922489"/>
     <use style="fill:#ff0000;stroke:#ff0000;" x="97.725843" xlink:href="#m4c551c3395" y="281.218194"/>
     <use style="fill:#ff0000;stroke:#ff0000;" x="101.738427" xlink:href="#m4c551c3395" y="282.346027"/>
     <use style="fill:#ff0000;stroke:#ff0000;" x="105.751011" xlink:href="#m4c551c3395" y="285.073504"/>
     <use style="fill:#ff0000;stroke:#ff0000;" x="109.763596" xlink:href="#m4c551c3395" y="286.479849"/>
     <use style="fill:#ff0000;stroke:#ff0000;" x="113.77618" xlink:href="#m4c551c3395" y="286.551942"/>
     <use style="fill:#ff0000;stroke:#ff0000;" x="117.788764" xlink:href="#m4c551c3395" y="285.919038"/>
     <use style="fill:#ff0000;stroke:#ff0000;" x="121.801348" xlink:href="#m4c551c3395" y="287.381358"/>
     <use style="fill:#ff0000;stroke:#ff0000;" x="125.813933" xlink:href="#m4c551c3395" y="286.758966"/>
     <use style="fill:#ff0000;stroke:#ff0000;" x="129.826517" xlink:href="#m4c551c3395" y="287.003954"/>
     <use style="fill:#ff0000;stroke:#ff0000;" x="133.839101" xlink:href="#m4c551c3395" y="287.485701"/>
     <use style="fill:#ff0000;stroke:#ff0000;" x="137.851685" xlink:href="#m4c551c3395" y="288.701776"/>
     <use style="fill:#ff0000;stroke:#ff0000;" x="141.86427" xlink:href="#m4c551c3395" y="289.486738"/>
     <use style="fill:#ff0000;stroke:#ff0000;" x="145.876854" xlink:href="#m4c551c3395" y="290.09132"/>
     <use style="fill:#ff0000;stroke:#ff0000;" x="149.889438" xlink:href="#m4c551c3395" y="290.537929"/>
     <use style="fill:#ff0000;stroke:#ff0000;" x="153.902022" xlink:href="#m4c551c3395" y="291.101427"/>
     <use style="fill:#ff0000;stroke:#ff0000;" x="157.914607" xlink:href="#m4c551c3395" y="292.031024"/>
     <use style="fill:#ff0000;stroke:#ff0000;" x="161.927191" xlink:href="#m4c551c3395" y="292.567955"/>
     <use style="fill:#ff0000;stroke:#ff0000;" x="165.939775" xlink:href="#m4c551c3395" y="292.57575"/>
     <use style="fill:#ff0000;stroke:#ff0000;" x="169.95236" xlink:href="#m4c551c3395" y="292.969333"/>
     <use style="fill:#ff0000;stroke:#ff0000;" x="173.964944" xlink:href="#m4c551c3395" y="293.45712"/>
     <use style="fill:#ff0000;stroke:#ff0000;" x="177.977528" xlink:href="#m4c551c3395" y="293.786079"/>
     <use style="fill:#ff0000;stroke:#ff0000;" x="181.990112" xlink:href="#m4c551c3395" y="294.05411"/>
     <use style="fill:#ff0000;stroke:#ff0000;" x="186.002697" xlink:href="#m4c551c3395" y="294.184041"/>
     <use style="fill:#ff0000;stroke:#ff0000;" x="190.015281" xlink:href="#m4c551c3395" y="294.847348"/>
     <use style="fill:#ff0000;stroke:#ff0000;" x="194.027865" xlink:href="#m4c551c3395" y="295.08229"/>
     <use style="fill:#ff0000;stroke:#ff0000;" x="198.040449" xlink:href="#m4c551c3395" y="291.643388"/>
     <use style="fill:#ff0000;stroke:#ff0000;" x="202.053034" xlink:href="#m4c551c3395" y="291.974723"/>
     <use style="fill:#ff0000;stroke:#ff0000;" x="206.065618" xlink:href="#m4c551c3395" y="292.493098"/>
     <use style="fill:#ff0000;stroke:#ff0000;" x="210.078202" xlink:href="#m4c551c3395" y="292.382188"/>
     <use style="fill:#ff0000;stroke:#ff0000;" x="214.090787" xlink:href="#m4c551c3395" y="293.726098"/>
     <use style="fill:#ff0000;stroke:#ff0000;" x="218.103371" xlink:href="#m4c551c3395" y="293.340123"/>
     <use style="fill:#ff0000;stroke:#ff0000;" x="222.115955" xlink:href="#m4c551c3395" y="294.450379"/>
     <use style="fill:#ff0000;stroke:#ff0000;" x="226.128539" xlink:href="#m4c551c3395" y="293.965279"/>
     <use style="fill:#ff0000;stroke:#ff0000;" x="230.141124" xlink:href="#m4c551c3395" y="294.218077"/>
     <use style="fill:#ff0000;stroke:#ff0000;" x="234.153708" xlink:href="#m4c551c3395" y="293.823003"/>
     <use style="fill:#ff0000;stroke:#ff0000;" x="238.166292" xlink:href="#m4c551c3395" y="294.091779"/>
     <use style="fill:#ff0000;stroke:#ff0000;" x="242.178876" xlink:href="#m4c551c3395" y="293.654191"/>
     <use style="fill:#ff0000;stroke:#ff0000;" x="246.191461" xlink:href="#m4c551c3395" y="294.282748"/>
     <use style="fill:#ff0000;stroke:#ff0000;" x="250.204045" xlink:href="#m4c551c3395" y="294.079435"/>
     <use style="fill:#ff0000;stroke:#ff0000;" x="254.216629" xlink:href="#m4c551c3395" y="294.505672"/>
     <use style="fill:#ff0000;stroke:#ff0000;" x="258.229213" xlink:href="#m4c551c3395" y="294.381547"/>
     <use style="fill:#ff0000;stroke:#ff0000;" x="262.241798" xlink:href="#m4c551c3395" y="294.549645"/>
     <use style="fill:#ff0000;stroke:#ff0000;" x="266.254382" xlink:href="#m4c551c3395" y="293.686581"/>
     <use style="fill:#ff0000;stroke:#ff0000;" x="270.266966" xlink:href="#m4c551c3395" y="293.765335"/>
     <use style="fill:#ff0000;stroke:#ff0000;" x="274.279551" xlink:href="#m4c551c3395" y="293.571649"/>
     <use style="fill:#ff0000;stroke:#ff0000;" x="278.292135" xlink:href="#m4c551c3395" y="293.507863"/>
     <use style="fill:#ff0000;stroke:#ff0000;" x="282.304719" xlink:href="#m4c551c3395" y="292.781019"/>
     <use style="fill:#ff0000;stroke:#ff0000;" x="286.317303" xlink:href="#m4c551c3395" y="292.795739"/>
     <use style="fill:#ff0000;stroke:#ff0000;" x="290.329888" xlink:href="#m4c551c3395" y="293.576462"/>
     <use style="fill:#ff0000;stroke:#ff0000;" x="294.342472" xlink:href="#m4c551c3395" y="292.459746"/>
     <use style="fill:#ff0000;stroke:#ff0000;" x="298.355056" xlink:href="#m4c551c3395" y="292.687499"/>
     <use style="fill:#ff0000;stroke:#ff0000;" x="302.36764" xlink:href="#m4c551c3395" y="292.379113"/>
     <use style="fill:#ff0000;stroke:#ff0000;" x="306.380225" xlink:href="#m4c551c3395" y="292.32792"/>
     <use style="fill:#ff0000;stroke:#ff0000;" x="310.392809" xlink:href="#m4c551c3395" y="293.049453"/>
     <use style="fill:#ff0000;stroke:#ff0000;" x="314.405393" xlink:href="#m4c551c3395" y="294.140239"/>
     <use style="fill:#ff0000;stroke:#ff0000;" x="318.417978" xlink:href="#m4c551c3395" y="294.284828"/>
     <use style="fill:#ff0000;stroke:#ff0000;" x="322.430562" xlink:href="#m4c551c3395" y="294.522876"/>
     <use style="fill:#ff0000;stroke:#ff0000;" x="326.443146" xlink:href="#m4c551c3395" y="294.503017"/>
     <use style="fill:#ff0000;stroke:#ff0000;" x="330.45573" xlink:href="#m4c551c3395" y="294.219195"/>
     <use style="fill:#ff0000;stroke:#ff0000;" x="334.468315" xlink:href="#m4c551c3395" y="294.159508"/>
     <use style="fill:#ff0000;stroke:#ff0000;" x="338.480899" xlink:href="#m4c551c3395" y="293.87533"/>
     <use style="fill:#ff0000;stroke:#ff0000;" x="342.493483" xlink:href="#m4c551c3395" y="293.599287"/>
     <use style="fill:#ff0000;stroke:#ff0000;" x="346.506067" xlink:href="#m4c551c3395" y="293.56345"/>
     <use style="fill:#ff0000;stroke:#ff0000;" x="350.518652" xlink:href="#m4c551c3395" y="292.814573"/>
     <use style="fill:#ff0000;stroke:#ff0000;" x="354.531236" xlink:href="#m4c551c3395" y="292.986661"/>
     <use style="fill:#ff0000;stroke:#ff0000;" x="358.54382" xlink:href="#m4c551c3395" y="292.708989"/>
     <use style="fill:#ff0000;stroke:#ff0000;" x="362.556404" xlink:href="#m4c551c3395" y="292.824977"/>
     <use style="fill:#ff0000;stroke:#ff0000;" x="366.568989" xlink:href="#m4c551c3395" y="292.539214"/>
     <use style="fill:#ff0000;stroke:#ff0000;" x="370.581573" xlink:href="#m4c551c3395" y="292.216978"/>
     <use style="fill:#ff0000;stroke:#ff0000;" x="374.594157" xlink:href="#m4c551c3395" y="292.342811"/>
     <use style="fill:#ff0000;stroke:#ff0000;" x="378.606742" xlink:href="#m4c551c3395" y="291.981027"/>
     <use style="fill:#ff0000;stroke:#ff0000;" x="382.619326" xlink:href="#m4c551c3395" y="292.080851"/>
     <use style="fill:#ff0000;stroke:#ff0000;" x="386.63191" xlink:href="#m4c551c3395" y="292.043182"/>
     <use style="fill:#ff0000;stroke:#ff0000;" x="390.644494" xlink:href="#m4c551c3395" y="290.701555"/>
     <use style="fill:#ff0000;stroke:#ff0000;" x="394.657079" xlink:href="#m4c551c3395" y="283.834139"/>
     <use style="fill:#ff0000;stroke:#ff0000;" x="398.669663" xlink:href="#m4c551c3395" y="291.533859"/>
     <use style="fill:#ff0000;stroke:#ff0000;" x="402.682247" xlink:href="#m4c551c3395" y="292.01969"/>
     <use style="fill:#ff0000;stroke:#ff0000;" x="406.694831" xlink:href="#m4c551c3395" y="291.4034"/>
     <use style="fill:#ff0000;stroke:#ff0000;" x="410.707416" xlink:href="#m4c551c3395" y="292.11543"/>
    </g>
   </g>
   <g id="line2d_59">
    <path clip-path="url(#p97cc84de41)" d="M 61.612584 69.955351 
L 65.625169 187.588595 
L 69.637753 227.887584 
L 73.650337 247.373877 
L 77.662921 259.447539 
L 81.675506 266.673719 
L 85.68809 268.854615 
L 89.700674 275.913047 
L 93.713258 277.547797 
L 97.725843 283.326306 
L 101.738427 284.29289 
L 105.751011 286.888106 
L 109.763596 288.061752 
L 113.77618 288.318099 
L 117.788764 287.733041 
L 121.801348 288.90543 
L 125.813933 288.233064 
L 129.826517 288.216403 
L 133.839101 288.685488 
L 137.851685 289.800232 
L 141.86427 290.342543 
L 145.876854 291.033208 
L 149.889438 291.380877 
L 153.902022 292.003215 
L 157.914607 292.967276 
L 161.927191 293.55505 
L 165.939775 293.554126 
L 169.95236 293.819137 
L 173.964944 294.249551 
L 177.977528 294.441343 
L 181.990112 294.771055 
L 186.002697 294.484306 
L 190.015281 294.883417 
L 194.027865 295.064775 
L 198.040449 292.342888 
L 202.053034 292.791958 
L 206.065618 292.936687 
L 210.078202 292.660893 
L 214.090787 293.197102 
L 218.103371 292.879376 
L 222.115955 293.621025 
L 226.128539 293.565647 
L 230.141124 293.985557 
L 234.153708 293.834183 
L 238.166292 293.730267 
L 242.178876 293.424474 
L 246.191461 293.907292 
L 250.204045 293.829548 
L 254.216629 294.193016 
L 258.229213 293.930117 
L 262.241798 293.882845 
L 266.254382 293.697815 
L 270.266966 293.598037 
L 274.279551 293.782003 
L 278.292135 294.031029 
L 282.304719 293.406214 
L 286.317303 293.617532 
L 290.329888 294.035656 
L 294.342472 293.631654 
L 298.355056 293.774015 
L 302.36764 293.651924 
L 306.380225 293.600529 
L 310.392809 293.952306 
L 314.405393 293.992669 
L 318.417978 294.110194 
L 322.430562 293.770529 
L 326.443146 293.991411 
L 330.45573 294.067976 
L 334.468315 293.898714 
L 338.480899 293.409157 
L 342.493483 293.535579 
L 346.506067 293.401828 
L 350.518652 293.080314 
L 354.531236 293.124714 
L 358.54382 293.199384 
L 362.556404 293.404855 
L 366.568989 292.905338 
L 370.581573 292.991257 
L 374.594157 293.201573 
L 378.606742 292.617316 
L 382.619326 292.772231 
L 386.63191 292.587154 
L 390.644494 292.042468 
L 394.657079 284.431485 
L 398.669663 292.021467 
L 402.682247 292.33146 
L 406.694831 291.986989 
L 410.707416 291.732631 
" style="fill:none;stroke:#008000;stroke-dasharray:1.5,2.475;stroke-dashoffset:0;stroke-width:1.5;"/>
    <defs>
     <path d="M 0 1.5 
C 0.397805 1.5 0.77937 1.341951 1.06066 1.06066 
C 1.341951 0.77937 1.5 0.397805 1.5 0 
C 1.5 -0.397805 1.341951 -0.77937 1.06066 -1.06066 
C 0.77937 -1.341951 0.397805 -1.5 0 -1.5 
C -0.397805 -1.5 -0.77937 -1.341951 -1.06066 -1.06066 
C -1.341951 -0.77937 -1.5 -0.397805 -1.5 0 
C -1.5 0.397805 -1.341951 0.77937 -1.06066 1.06066 
C -0.77937 1.341951 -0.397805 1.5 0 1.5 
z
" id="mdde12a2a95" style="stroke:#008000;"/>
    </defs>
    <g clip-path="url(#p97cc84de41)">
     <use style="fill:#008000;stroke:#008000;" x="61.612584" xlink:href="#mdde12a2a95" y="69.955351"/>
     <use style="fill:#008000;stroke:#008000;" x="65.625169" xlink:href="#mdde12a2a95" y="187.588595"/>
     <use style="fill:#008000;stroke:#008000;" x="69.637753" xlink:href="#mdde12a2a95" y="227.887584"/>
     <use style="fill:#008000;stroke:#008000;" x="73.650337" xlink:href="#mdde12a2a95" y="247.373877"/>
     <use style="fill:#008000;stroke:#008000;" x="77.662921" xlink:href="#mdde12a2a95" y="259.447539"/>
     <use style="fill:#008000;stroke:#008000;" x="81.675506" xlink:href="#mdde12a2a95" y="266.673719"/>
     <use style="fill:#008000;stroke:#008000;" x="85.68809" xlink:href="#mdde12a2a95" y="268.854615"/>
     <use style="fill:#008000;stroke:#008000;" x="89.700674" xlink:href="#mdde12a2a95" y="275.913047"/>
     <use style="fill:#008000;stroke:#008000;" x="93.713258" xlink:href="#mdde12a2a95" y="277.547797"/>
     <use style="fill:#008000;stroke:#008000;" x="97.725843" xlink:href="#mdde12a2a95" y="283.326306"/>
     <use style="fill:#008000;stroke:#008000;" x="101.738427" xlink:href="#mdde12a2a95" y="284.29289"/>
     <use style="fill:#008000;stroke:#008000;" x="105.751011" xlink:href="#mdde12a2a95" y="286.888106"/>
     <use style="fill:#008000;stroke:#008000;" x="109.763596" xlink:href="#mdde12a2a95" y="288.061752"/>
     <use style="fill:#008000;stroke:#008000;" x="113.77618" xlink:href="#mdde12a2a95" y="288.318099"/>
     <use style="fill:#008000;stroke:#008000;" x="117.788764" xlink:href="#mdde12a2a95" y="287.733041"/>
     <use style="fill:#008000;stroke:#008000;" x="121.801348" xlink:href="#mdde12a2a95" y="288.90543"/>
     <use style="fill:#008000;stroke:#008000;" x="125.813933" xlink:href="#mdde12a2a95" y="288.233064"/>
     <use style="fill:#008000;stroke:#008000;" x="129.826517" xlink:href="#mdde12a2a95" y="288.216403"/>
     <use style="fill:#008000;stroke:#008000;" x="133.839101" xlink:href="#mdde12a2a95" y="288.685488"/>
     <use style="fill:#008000;stroke:#008000;" x="137.851685" xlink:href="#mdde12a2a95" y="289.800232"/>
     <use style="fill:#008000;stroke:#008000;" x="141.86427" xlink:href="#mdde12a2a95" y="290.342543"/>
     <use style="fill:#008000;stroke:#008000;" x="145.876854" xlink:href="#mdde12a2a95" y="291.033208"/>
     <use style="fill:#008000;stroke:#008000;" x="149.889438" xlink:href="#mdde12a2a95" y="291.380877"/>
     <use style="fill:#008000;stroke:#008000;" x="153.902022" xlink:href="#mdde12a2a95" y="292.003215"/>
     <use style="fill:#008000;stroke:#008000;" x="157.914607" xlink:href="#mdde12a2a95" y="292.967276"/>
     <use style="fill:#008000;stroke:#008000;" x="161.927191" xlink:href="#mdde12a2a95" y="293.55505"/>
     <use style="fill:#008000;stroke:#008000;" x="165.939775" xlink:href="#mdde12a2a95" y="293.554126"/>
     <use style="fill:#008000;stroke:#008000;" x="169.95236" xlink:href="#mdde12a2a95" y="293.819137"/>
     <use style="fill:#008000;stroke:#008000;" x="173.964944" xlink:href="#mdde12a2a95" y="294.249551"/>
     <use style="fill:#008000;stroke:#008000;" x="177.977528" xlink:href="#mdde12a2a95" y="294.441343"/>
     <use style="fill:#008000;stroke:#008000;" x="181.990112" xlink:href="#mdde12a2a95" y="294.771055"/>
     <use style="fill:#008000;stroke:#008000;" x="186.002697" xlink:href="#mdde12a2a95" y="294.484306"/>
     <use style="fill:#008000;stroke:#008000;" x="190.015281" xlink:href="#mdde12a2a95" y="294.883417"/>
     <use style="fill:#008000;stroke:#008000;" x="194.027865" xlink:href="#mdde12a2a95" y="295.064775"/>
     <use style="fill:#008000;stroke:#008000;" x="198.040449" xlink:href="#mdde12a2a95" y="292.342888"/>
     <use style="fill:#008000;stroke:#008000;" x="202.053034" xlink:href="#mdde12a2a95" y="292.791958"/>
     <use style="fill:#008000;stroke:#008000;" x="206.065618" xlink:href="#mdde12a2a95" y="292.936687"/>
     <use style="fill:#008000;stroke:#008000;" x="210.078202" xlink:href="#mdde12a2a95" y="292.660893"/>
     <use style="fill:#008000;stroke:#008000;" x="214.090787" xlink:href="#mdde12a2a95" y="293.197102"/>
     <use style="fill:#008000;stroke:#008000;" x="218.103371" xlink:href="#mdde12a2a95" y="292.879376"/>
     <use style="fill:#008000;stroke:#008000;" x="222.115955" xlink:href="#mdde12a2a95" y="293.621025"/>
     <use style="fill:#008000;stroke:#008000;" x="226.128539" xlink:href="#mdde12a2a95" y="293.565647"/>
     <use style="fill:#008000;stroke:#008000;" x="230.141124" xlink:href="#mdde12a2a95" y="293.985557"/>
     <use style="fill:#008000;stroke:#008000;" x="234.153708" xlink:href="#mdde12a2a95" y="293.834183"/>
     <use style="fill:#008000;stroke:#008000;" x="238.166292" xlink:href="#mdde12a2a95" y="293.730267"/>
     <use style="fill:#008000;stroke:#008000;" x="242.178876" xlink:href="#mdde12a2a95" y="293.424474"/>
     <use style="fill:#008000;stroke:#008000;" x="246.191461" xlink:href="#mdde12a2a95" y="293.907292"/>
     <use style="fill:#008000;stroke:#008000;" x="250.204045" xlink:href="#mdde12a2a95" y="293.829548"/>
     <use style="fill:#008000;stroke:#008000;" x="254.216629" xlink:href="#mdde12a2a95" y="294.193016"/>
     <use style="fill:#008000;stroke:#008000;" x="258.229213" xlink:href="#mdde12a2a95" y="293.930117"/>
     <use style="fill:#008000;stroke:#008000;" x="262.241798" xlink:href="#mdde12a2a95" y="293.882845"/>
     <use style="fill:#008000;stroke:#008000;" x="266.254382" xlink:href="#mdde12a2a95" y="293.697815"/>
     <use style="fill:#008000;stroke:#008000;" x="270.266966" xlink:href="#mdde12a2a95" y="293.598037"/>
     <use style="fill:#008000;stroke:#008000;" x="274.279551" xlink:href="#mdde12a2a95" y="293.782003"/>
     <use style="fill:#008000;stroke:#008000;" x="278.292135" xlink:href="#mdde12a2a95" y="294.031029"/>
     <use style="fill:#008000;stroke:#008000;" x="282.304719" xlink:href="#mdde12a2a95" y="293.406214"/>
     <use style="fill:#008000;stroke:#008000;" x="286.317303" xlink:href="#mdde12a2a95" y="293.617532"/>
     <use style="fill:#008000;stroke:#008000;" x="290.329888" xlink:href="#mdde12a2a95" y="294.035656"/>
     <use style="fill:#008000;stroke:#008000;" x="294.342472" xlink:href="#mdde12a2a95" y="293.631654"/>
     <use style="fill:#008000;stroke:#008000;" x="298.355056" xlink:href="#mdde12a2a95" y="293.774015"/>
     <use style="fill:#008000;stroke:#008000;" x="302.36764" xlink:href="#mdde12a2a95" y="293.651924"/>
     <use style="fill:#008000;stroke:#008000;" x="306.380225" xlink:href="#mdde12a2a95" y="293.600529"/>
     <use style="fill:#008000;stroke:#008000;" x="310.392809" xlink:href="#mdde12a2a95" y="293.952306"/>
     <use style="fill:#008000;stroke:#008000;" x="314.405393" xlink:href="#mdde12a2a95" y="293.992669"/>
     <use style="fill:#008000;stroke:#008000;" x="318.417978" xlink:href="#mdde12a2a95" y="294.110194"/>
     <use style="fill:#008000;stroke:#008000;" x="322.430562" xlink:href="#mdde12a2a95" y="293.770529"/>
     <use style="fill:#008000;stroke:#008000;" x="326.443146" xlink:href="#mdde12a2a95" y="293.991411"/>
     <use style="fill:#008000;stroke:#008000;" x="330.45573" xlink:href="#mdde12a2a95" y="294.067976"/>
     <use style="fill:#008000;stroke:#008000;" x="334.468315" xlink:href="#mdde12a2a95" y="293.898714"/>
     <use style="fill:#008000;stroke:#008000;" x="338.480899" xlink:href="#mdde12a2a95" y="293.409157"/>
     <use style="fill:#008000;stroke:#008000;" x="342.493483" xlink:href="#mdde12a2a95" y="293.535579"/>
     <use style="fill:#008000;stroke:#008000;" x="346.506067" xlink:href="#mdde12a2a95" y="293.401828"/>
     <use style="fill:#008000;stroke:#008000;" x="350.518652" xlink:href="#mdde12a2a95" y="293.080314"/>
     <use style="fill:#008000;stroke:#008000;" x="354.531236" xlink:href="#mdde12a2a95" y="293.124714"/>
     <use style="fill:#008000;stroke:#008000;" x="358.54382" xlink:href="#mdde12a2a95" y="293.199384"/>
     <use style="fill:#008000;stroke:#008000;" x="362.556404" xlink:href="#mdde12a2a95" y="293.404855"/>
     <use style="fill:#008000;stroke:#008000;" x="366.568989" xlink:href="#mdde12a2a95" y="292.905338"/>
     <use style="fill:#008000;stroke:#008000;" x="370.581573" xlink:href="#mdde12a2a95" y="292.991257"/>
     <use style="fill:#008000;stroke:#008000;" x="374.594157" xlink:href="#mdde12a2a95" y="293.201573"/>
     <use style="fill:#008000;stroke:#008000;" x="378.606742" xlink:href="#mdde12a2a95" y="292.617316"/>
     <use style="fill:#008000;stroke:#008000;" x="382.619326" xlink:href="#mdde12a2a95" y="292.772231"/>
     <use style="fill:#008000;stroke:#008000;" x="386.63191" xlink:href="#mdde12a2a95" y="292.587154"/>
     <use style="fill:#008000;stroke:#008000;" x="390.644494" xlink:href="#mdde12a2a95" y="292.042468"/>
     <use style="fill:#008000;stroke:#008000;" x="394.657079" xlink:href="#mdde12a2a95" y="284.431485"/>
     <use style="fill:#008000;stroke:#008000;" x="398.669663" xlink:href="#mdde12a2a95" y="292.021467"/>
     <use style="fill:#008000;stroke:#008000;" x="402.682247" xlink:href="#mdde12a2a95" y="292.33146"/>
     <use style="fill:#008000;stroke:#008000;" x="406.694831" xlink:href="#mdde12a2a95" y="291.986989"/>
     <use style="fill:#008000;stroke:#008000;" x="410.707416" xlink:href="#mdde12a2a95" y="291.732631"/>
    </g>
   </g>
   <g id="patch_3">
    <path d="M 57.6 307.584 
L 57.6 41.472 
" style="fill:none;stroke:#000000;stroke-linecap:square;stroke-linejoin:miter;stroke-width:0.8;"/>
   </g>
   <g id="patch_4">
    <path d="M 414.72 307.584 
L 414.72 41.472 
" style="fill:none;stroke:#000000;stroke-linecap:square;stroke-linejoin:miter;stroke-width:0.8;"/>
   </g>
   <g id="patch_5">
    <path d="M 57.6 307.584 
L 414.72 307.584 
" style="fill:none;stroke:#000000;stroke-linecap:square;stroke-linejoin:miter;stroke-width:0.8;"/>
   </g>
   <g id="patch_6">
    <path d="M 57.6 41.472 
L 414.72 41.472 
" style="fill:none;stroke:#000000;stroke-linecap:square;stroke-linejoin:miter;stroke-width:0.8;"/>
   </g>
   <g id="text_31">
    <!-- radix sort 3 on pre_transpose46 -->
    <g transform="translate(140.265938 35.472)scale(0.12 -0.12)">
     <defs>
      <path d="M 54.890625 54.6875 
L 35.109375 28.078125 
L 55.90625 0 
L 45.3125 0 
L 29.390625 21.484375 
L 13.484375 0 
L 2.875 0 
L 24.125 28.609375 
L 4.6875 54.6875 
L 15.28125 54.6875 
L 29.78125 35.203125 
L 44.28125 54.6875 
z
" id="DejaVuSans-120"/>
      <path d="M 18.109375 8.203125 
L 18.109375 -20.796875 
L 9.078125 -20.796875 
L 9.078125 54.6875 
L 18.109375 54.6875 
L 18.109375 46.390625 
Q 20.953125 51.265625 25.265625 53.625 
Q 29.59375 56 35.59375 56 
Q 45.5625 56 51.78125 48.09375 
Q 58.015625 40.1875 58.015625 27.296875 
Q 58.015625 14.40625 51.78125 6.484375 
Q 45.5625 -1.421875 35.59375 -1.421875 
Q 29.59375 -1.421875 25.265625 0.953125 
Q 20.953125 3.328125 18.109375 8.203125 
z
M 48.6875 27.296875 
Q 48.6875 37.203125 44.609375 42.84375 
Q 40.53125 48.484375 33.40625 48.484375 
Q 26.265625 48.484375 22.1875 42.84375 
Q 18.109375 37.203125 18.109375 27.296875 
Q 18.109375 17.390625 22.1875 11.75 
Q 26.265625 6.109375 33.40625 6.109375 
Q 40.53125 6.109375 44.609375 11.75 
Q 48.6875 17.390625 48.6875 27.296875 
z
" id="DejaVuSans-112"/>
      <path d="M 50.984375 -16.609375 
L 50.984375 -23.578125 
L -0.984375 -23.578125 
L -0.984375 -16.609375 
z
" id="DejaVuSans-95"/>
     </defs>
     <use xlink:href="#DejaVuSans-114"/>
     <use x="41.113281" xlink:href="#DejaVuSans-97"/>
     <use x="102.392578" xlink:href="#DejaVuSans-100"/>
     <use x="165.869141" xlink:href="#DejaVuSans-105"/>
     <use x="193.652344" xlink:href="#DejaVuSans-120"/>
     <use x="252.832031" xlink:href="#DejaVuSans-32"/>
     <use x="284.619141" xlink:href="#DejaVuSans-115"/>
     <use x="336.71875" xlink:href="#DejaVuSans-111"/>
     <use x="397.900391" xlink:href="#DejaVuSans-114"/>
     <use x="439.013672" xlink:href="#DejaVuSans-116"/>
     <use x="478.222656" xlink:href="#DejaVuSans-32"/>
     <use x="510.009766" xlink:href="#DejaVuSans-51"/>
     <use x="573.632812" xlink:href="#DejaVuSans-32"/>
     <use x="605.419922" xlink:href="#DejaVuSans-111"/>
     <use x="666.601562" xlink:href="#DejaVuSans-110"/>
     <use x="729.980469" xlink:href="#DejaVuSans-32"/>
     <use x="761.767578" xlink:href="#DejaVuSans-112"/>
     <use x="825.244141" xlink:href="#DejaVuSans-114"/>
     <use x="864.107422" xlink:href="#DejaVuSans-101"/>
     <use x="925.630859" xlink:href="#DejaVuSans-95"/>
     <use x="975.630859" xlink:href="#DejaVuSans-116"/>
     <use x="1014.839844" xlink:href="#DejaVuSans-114"/>
     <use x="1055.953125" xlink:href="#DejaVuSans-97"/>
     <use x="1117.232422" xlink:href="#DejaVuSans-110"/>
     <use x="1180.611328" xlink:href="#DejaVuSans-115"/>
     <use x="1232.710938" xlink:href="#DejaVuSans-112"/>
     <use x="1296.1875" xlink:href="#DejaVuSans-111"/>
     <use x="1357.369141" xlink:href="#DejaVuSans-115"/>
     <use x="1409.46875" xlink:href="#DejaVuSans-101"/>
     <use x="1470.992188" xlink:href="#DejaVuSans-52"/>
     <use x="1534.615234" xlink:href="#DejaVuSans-54"/>
    </g>
   </g>
   <g id="legend_1">
    <g id="patch_7">
     <path d="M 313.152813 93.7845 
L 407.72 93.7845 
Q 409.72 93.7845 409.72 91.7845 
L 409.72 48.472 
Q 409.72 46.472 407.72 46.472 
L 313.152813 46.472 
Q 311.152813 46.472 311.152813 48.472 
L 311.152813 91.7845 
Q 311.152813 93.7845 313.152813 93.7845 
z
" style="fill:#ffffff;opacity:0.8;stroke:#cccccc;stroke-linejoin:miter;"/>
    </g>
    <g id="line2d_60">
     <path d="M 315.152813 54.570438 
L 335.152813 54.570438 
" style="fill:none;stroke:#0000ff;stroke-dasharray:1.5,2.475;stroke-dashoffset:0;stroke-width:1.5;"/>
    </g>
    <g id="line2d_61">
     <g>
      <use style="fill:#0000ff;stroke:#0000ff;" x="325.152813" xlink:href="#mf7251b1f98" y="54.570438"/>
     </g>
    </g>
    <g id="text_32">
     <!-- transpose -->
     <g transform="translate(343.152813 58.070438)scale(0.1 -0.1)">
      <use xlink:href="#DejaVuSans-116"/>
      <use x="39.208984" xlink:href="#DejaVuSans-114"/>
      <use x="80.322266" xlink:href="#DejaVuSans-97"/>
      <use x="141.601562" xlink:href="#DejaVuSans-110"/>
      <use x="204.980469" xlink:href="#DejaVuSans-115"/>
      <use x="257.080078" xlink:href="#DejaVuSans-112"/>
      <use x="320.556641" xlink:href="#DejaVuSans-111"/>
      <use x="381.738281" xlink:href="#DejaVuSans-115"/>
      <use x="433.837891" xlink:href="#DejaVuSans-101"/>
     </g>
    </g>
    <g id="line2d_62">
     <path d="M 315.152813 69.248563 
L 335.152813 69.248563 
" style="fill:none;stroke:#ff0000;stroke-dasharray:1.5,2.475;stroke-dashoffset:0;stroke-width:1.5;"/>
    </g>
    <g id="line2d_63">
     <g>
      <use style="fill:#ff0000;stroke:#ff0000;" x="325.152813" xlink:href="#m4c551c3395" y="69.248563"/>
     </g>
    </g>
    <g id="text_33">
     <!-- transpose_tr -->
     <g transform="translate(343.152813 72.748563)scale(0.1 -0.1)">
      <use xlink:href="#DejaVuSans-116"/>
      <use x="39.208984" xlink:href="#DejaVuSans-114"/>
      <use x="80.322266" xlink:href="#DejaVuSans-97"/>
      <use x="141.601562" xlink:href="#DejaVuSans-110"/>
      <use x="204.980469" xlink:href="#DejaVuSans-115"/>
      <use x="257.080078" xlink:href="#DejaVuSans-112"/>
      <use x="320.556641" xlink:href="#DejaVuSans-111"/>
      <use x="381.738281" xlink:href="#DejaVuSans-115"/>
      <use x="433.837891" xlink:href="#DejaVuSans-101"/>
      <use x="495.361328" xlink:href="#DejaVuSans-95"/>
      <use x="545.361328" xlink:href="#DejaVuSans-116"/>
      <use x="584.570312" xlink:href="#DejaVuSans-114"/>
     </g>
    </g>
    <g id="line2d_64">
     <path d="M 315.152813 84.204813 
L 335.152813 84.204813 
" style="fill:none;stroke:#008000;stroke-dasharray:1.5,2.475;stroke-dashoffset:0;stroke-width:1.5;"/>
    </g>
    <g id="line2d_65">
     <g>
      <use style="fill:#008000;stroke:#008000;" x="325.152813" xlink:href="#mdde12a2a95" y="84.204813"/>
     </g>
    </g>
    <g id="text_34">
     <!-- mean -->
     <g transform="translate(343.152813 87.704813)scale(0.1 -0.1)">
      <defs>
       <path d="M 52 44.1875 
Q 55.375 50.25 60.0625 53.125 
Q 64.75 56 71.09375 56 
Q 79.640625 56 84.28125 50.015625 
Q 88.921875 44.046875 88.921875 33.015625 
L 88.921875 0 
L 79.890625 0 
L 79.890625 32.71875 
Q 79.890625 40.578125 77.09375 44.375 
Q 74.3125 48.1875 68.609375 48.1875 
Q 61.625 48.1875 57.5625 43.546875 
Q 53.515625 38.921875 53.515625 30.90625 
L 53.515625 0 
L 44.484375 0 
L 44.484375 32.71875 
Q 44.484375 40.625 41.703125 44.40625 
Q 38.921875 48.1875 33.109375 48.1875 
Q 26.21875 48.1875 22.15625 43.53125 
Q 18.109375 38.875 18.109375 30.90625 
L 18.109375 0 
L 9.078125 0 
L 9.078125 54.6875 
L 18.109375 54.6875 
L 18.109375 46.1875 
Q 21.1875 51.21875 25.484375 53.609375 
Q 29.78125 56 35.6875 56 
Q 41.65625 56 45.828125 52.96875 
Q 50 49.953125 52 44.1875 
z
" id="DejaVuSans-109"/>
      </defs>
      <use xlink:href="#DejaVuSans-109"/>
      <use x="97.412109" xlink:href="#DejaVuSans-101"/>
      <use x="158.935547" xlink:href="#DejaVuSans-97"/>
      <use x="220.214844" xlink:href="#DejaVuSans-110"/>
     </g>
    </g>
   </g>
  </g>
 </g>
 <defs>
  <clipPath id="p97cc84de41">
   <rect height="266.112" width="357.12" x="57.6" y="41.472"/>
  </clipPath>
 </defs>
</svg>
