<?xml version="1.0" encoding="utf-8" standalone="no"?>
<!DOCTYPE svg PUBLIC "-//W3C//DTD SVG 1.1//EN"
  "http://www.w3.org/Graphics/SVG/1.1/DTD/svg11.dtd">
<!-- Created with matplotlib (https://matplotlib.org/) -->
<svg height="345.6pt" version="1.1" viewBox="0 0 460.8 345.6" width="460.8pt" xmlns="http://www.w3.org/2000/svg" xmlns:xlink="http://www.w3.org/1999/xlink">
 <metadata>
  <rdf:RDF xmlns:cc="http://creativecommons.org/ns#" xmlns:dc="http://purl.org/dc/elements/1.1/" xmlns:rdf="http://www.w3.org/1999/02/22-rdf-syntax-ns#">
   <cc:Work>
    <dc:type rdf:resource="http://purl.org/dc/dcmitype/StillImage"/>
    <dc:date>2020-08-27T10:04:46.275079</dc:date>
    <dc:format>image/svg+xml</dc:format>
    <dc:creator>
     <cc:Agent>
      <dc:title>Matplotlib v3.3.1, https://matplotlib.org/</dc:title>
     </cc:Agent>
    </dc:creator>
   </cc:Work>
  </rdf:RDF>
 </metadata>
 <defs>
  <style type="text/css">*{stroke-linecap:butt;stroke-linejoin:round;}</style>
 </defs>
 <g id="figure_1">
  <g id="patch_1">
   <path d="M 0 345.6 
L 460.8 345.6 
L 460.8 0 
L 0 0 
z
" style="fill:#ffffff;"/>
  </g>
  <g id="axes_1">
   <g id="patch_2">
    <path d="M 57.6 307.584 
L 414.72 307.584 
L 414.72 41.472 
L 57.6 41.472 
z
" style="fill:#ffffff;"/>
   </g>
   <g id="matplotlib.axis_1">
    <g id="xtick_1">
     <g id="line2d_1">
      <path clip-path="url(#p1eaeb771da)" d="M 61.612584 307.584 
L 61.612584 41.472 
" style="fill:none;stroke:#b0b0b0;stroke-dasharray:5.12,1.28,0.8,1.28;stroke-dashoffset:0;stroke-width:0.8;"/>
     </g>
     <g id="line2d_2">
      <defs>
       <path d="M 0 0 
L 0 3.5 
" id="m7d04695ed7" style="stroke:#000000;stroke-width:0.8;"/>
      </defs>
      <g>
       <use style="stroke:#000000;stroke-width:0.8;" x="61.612584" xlink:href="#m7d04695ed7" y="307.584"/>
      </g>
     </g>
     <g id="text_1">
      <!-- 1 -->
      <g transform="translate(58.431334 322.182437)scale(0.1 -0.1)">
       <defs>
        <path d="M 12.40625 8.296875 
L 28.515625 8.296875 
L 28.515625 63.921875 
L 10.984375 60.40625 
L 10.984375 69.390625 
L 28.421875 72.90625 
L 38.28125 72.90625 
L 38.28125 8.296875 
L 54.390625 8.296875 
L 54.390625 0 
L 12.40625 0 
z
" id="DejaVuSans-49"/>
       </defs>
       <use xlink:href="#DejaVuSans-49"/>
      </g>
     </g>
    </g>
    <g id="xtick_2">
     <g id="line2d_3">
      <path clip-path="url(#p1eaeb771da)" d="M 73.650337 307.584 
L 73.650337 41.472 
" style="fill:none;stroke:#b0b0b0;stroke-dasharray:5.12,1.28,0.8,1.28;stroke-dashoffset:0;stroke-width:0.8;"/>
     </g>
     <g id="line2d_4">
      <g>
       <use style="stroke:#000000;stroke-width:0.8;" x="73.650337" xlink:href="#m7d04695ed7" y="307.584"/>
      </g>
     </g>
     <g id="text_2">
      <!-- 4 -->
      <g transform="translate(70.469087 322.182437)scale(0.1 -0.1)">
       <defs>
        <path d="M 37.796875 64.3125 
L 12.890625 25.390625 
L 37.796875 25.390625 
z
M 35.203125 72.90625 
L 47.609375 72.90625 
L 47.609375 25.390625 
L 58.015625 25.390625 
L 58.015625 17.1875 
L 47.609375 17.1875 
L 47.609375 0 
L 37.796875 0 
L 37.796875 17.1875 
L 4.890625 17.1875 
L 4.890625 26.703125 
z
" id="DejaVuSans-52"/>
       </defs>
       <use xlink:href="#DejaVuSans-52"/>
      </g>
     </g>
    </g>
    <g id="xtick_3">
     <g id="line2d_5">
      <path clip-path="url(#p1eaeb771da)" d="M 89.700674 307.584 
L 89.700674 41.472 
" style="fill:none;stroke:#b0b0b0;stroke-dasharray:5.12,1.28,0.8,1.28;stroke-dashoffset:0;stroke-width:0.8;"/>
     </g>
     <g id="line2d_6">
      <g>
       <use style="stroke:#000000;stroke-width:0.8;" x="89.700674" xlink:href="#m7d04695ed7" y="307.584"/>
      </g>
     </g>
     <g id="text_3">
      <!-- 8 -->
      <g transform="translate(86.519424 322.182437)scale(0.1 -0.1)">
       <defs>
        <path d="M 31.78125 34.625 
Q 24.75 34.625 20.71875 30.859375 
Q 16.703125 27.09375 16.703125 20.515625 
Q 16.703125 13.921875 20.71875 10.15625 
Q 24.75 6.390625 31.78125 6.390625 
Q 38.8125 6.390625 42.859375 10.171875 
Q 46.921875 13.96875 46.921875 20.515625 
Q 46.921875 27.09375 42.890625 30.859375 
Q 38.875 34.625 31.78125 34.625 
z
M 21.921875 38.8125 
Q 15.578125 40.375 12.03125 44.71875 
Q 8.5 49.078125 8.5 55.328125 
Q 8.5 64.0625 14.71875 69.140625 
Q 20.953125 74.21875 31.78125 74.21875 
Q 42.671875 74.21875 48.875 69.140625 
Q 55.078125 64.0625 55.078125 55.328125 
Q 55.078125 49.078125 51.53125 44.71875 
Q 48 40.375 41.703125 38.8125 
Q 48.828125 37.15625 52.796875 32.3125 
Q 56.78125 27.484375 56.78125 20.515625 
Q 56.78125 9.90625 50.3125 4.234375 
Q 43.84375 -1.421875 31.78125 -1.421875 
Q 19.734375 -1.421875 13.25 4.234375 
Q 6.78125 9.90625 6.78125 20.515625 
Q 6.78125 27.484375 10.78125 32.3125 
Q 14.796875 37.15625 21.921875 38.8125 
z
M 18.3125 54.390625 
Q 18.3125 48.734375 21.84375 45.5625 
Q 25.390625 42.390625 31.78125 42.390625 
Q 38.140625 42.390625 41.71875 45.5625 
Q 45.3125 48.734375 45.3125 54.390625 
Q 45.3125 60.0625 41.71875 63.234375 
Q 38.140625 66.40625 31.78125 66.40625 
Q 25.390625 66.40625 21.84375 63.234375 
Q 18.3125 60.0625 18.3125 54.390625 
z
" id="DejaVuSans-56"/>
       </defs>
       <use xlink:href="#DejaVuSans-56"/>
      </g>
     </g>
    </g>
    <g id="xtick_4">
     <g id="line2d_7">
      <path clip-path="url(#p1eaeb771da)" d="M 105.751011 307.584 
L 105.751011 41.472 
" style="fill:none;stroke:#b0b0b0;stroke-dasharray:5.12,1.28,0.8,1.28;stroke-dashoffset:0;stroke-width:0.8;"/>
     </g>
     <g id="line2d_8">
      <g>
       <use style="stroke:#000000;stroke-width:0.8;" x="105.751011" xlink:href="#m7d04695ed7" y="307.584"/>
      </g>
     </g>
     <g id="text_4">
      <!-- 12 -->
      <g transform="translate(99.388511 322.182437)scale(0.1 -0.1)">
       <defs>
        <path d="M 19.1875 8.296875 
L 53.609375 8.296875 
L 53.609375 0 
L 7.328125 0 
L 7.328125 8.296875 
Q 12.9375 14.109375 22.625 23.890625 
Q 32.328125 33.6875 34.8125 36.53125 
Q 39.546875 41.84375 41.421875 45.53125 
Q 43.3125 49.21875 43.3125 52.78125 
Q 43.3125 58.59375 39.234375 62.25 
Q 35.15625 65.921875 28.609375 65.921875 
Q 23.96875 65.921875 18.8125 64.3125 
Q 13.671875 62.703125 7.8125 59.421875 
L 7.8125 69.390625 
Q 13.765625 71.78125 18.9375 73 
Q 24.125 74.21875 28.421875 74.21875 
Q 39.75 74.21875 46.484375 68.546875 
Q 53.21875 62.890625 53.21875 53.421875 
Q 53.21875 48.921875 51.53125 44.890625 
Q 49.859375 40.875 45.40625 35.40625 
Q 44.1875 33.984375 37.640625 27.21875 
Q 31.109375 20.453125 19.1875 8.296875 
z
" id="DejaVuSans-50"/>
       </defs>
       <use xlink:href="#DejaVuSans-49"/>
       <use x="63.623047" xlink:href="#DejaVuSans-50"/>
      </g>
     </g>
    </g>
    <g id="xtick_5">
     <g id="line2d_9">
      <path clip-path="url(#p1eaeb771da)" d="M 121.801348 307.584 
L 121.801348 41.472 
" style="fill:none;stroke:#b0b0b0;stroke-dasharray:5.12,1.28,0.8,1.28;stroke-dashoffset:0;stroke-width:0.8;"/>
     </g>
     <g id="line2d_10">
      <g>
       <use style="stroke:#000000;stroke-width:0.8;" x="121.801348" xlink:href="#m7d04695ed7" y="307.584"/>
      </g>
     </g>
     <g id="text_5">
      <!-- 16 -->
      <g transform="translate(115.438848 322.182437)scale(0.1 -0.1)">
       <defs>
        <path d="M 33.015625 40.375 
Q 26.375 40.375 22.484375 35.828125 
Q 18.609375 31.296875 18.609375 23.390625 
Q 18.609375 15.53125 22.484375 10.953125 
Q 26.375 6.390625 33.015625 6.390625 
Q 39.65625 6.390625 43.53125 10.953125 
Q 47.40625 15.53125 47.40625 23.390625 
Q 47.40625 31.296875 43.53125 35.828125 
Q 39.65625 40.375 33.015625 40.375 
z
M 52.59375 71.296875 
L 52.59375 62.3125 
Q 48.875 64.0625 45.09375 64.984375 
Q 41.3125 65.921875 37.59375 65.921875 
Q 27.828125 65.921875 22.671875 59.328125 
Q 17.53125 52.734375 16.796875 39.40625 
Q 19.671875 43.65625 24.015625 45.921875 
Q 28.375 48.1875 33.59375 48.1875 
Q 44.578125 48.1875 50.953125 41.515625 
Q 57.328125 34.859375 57.328125 23.390625 
Q 57.328125 12.15625 50.6875 5.359375 
Q 44.046875 -1.421875 33.015625 -1.421875 
Q 20.359375 -1.421875 13.671875 8.265625 
Q 6.984375 17.96875 6.984375 36.375 
Q 6.984375 53.65625 15.1875 63.9375 
Q 23.390625 74.21875 37.203125 74.21875 
Q 40.921875 74.21875 44.703125 73.484375 
Q 48.484375 72.75 52.59375 71.296875 
z
" id="DejaVuSans-54"/>
       </defs>
       <use xlink:href="#DejaVuSans-49"/>
       <use x="63.623047" xlink:href="#DejaVuSans-54"/>
      </g>
     </g>
    </g>
    <g id="xtick_6">
     <g id="line2d_11">
      <path clip-path="url(#p1eaeb771da)" d="M 137.851685 307.584 
L 137.851685 41.472 
" style="fill:none;stroke:#b0b0b0;stroke-dasharray:5.12,1.28,0.8,1.28;stroke-dashoffset:0;stroke-width:0.8;"/>
     </g>
     <g id="line2d_12">
      <g>
       <use style="stroke:#000000;stroke-width:0.8;" x="137.851685" xlink:href="#m7d04695ed7" y="307.584"/>
      </g>
     </g>
     <g id="text_6">
      <!-- 20 -->
      <g transform="translate(131.489185 322.182437)scale(0.1 -0.1)">
       <defs>
        <path d="M 31.78125 66.40625 
Q 24.171875 66.40625 20.328125 58.90625 
Q 16.5 51.421875 16.5 36.375 
Q 16.5 21.390625 20.328125 13.890625 
Q 24.171875 6.390625 31.78125 6.390625 
Q 39.453125 6.390625 43.28125 13.890625 
Q 47.125 21.390625 47.125 36.375 
Q 47.125 51.421875 43.28125 58.90625 
Q 39.453125 66.40625 31.78125 66.40625 
z
M 31.78125 74.21875 
Q 44.046875 74.21875 50.515625 64.515625 
Q 56.984375 54.828125 56.984375 36.375 
Q 56.984375 17.96875 50.515625 8.265625 
Q 44.046875 -1.421875 31.78125 -1.421875 
Q 19.53125 -1.421875 13.0625 8.265625 
Q 6.59375 17.96875 6.59375 36.375 
Q 6.59375 54.828125 13.0625 64.515625 
Q 19.53125 74.21875 31.78125 74.21875 
z
" id="DejaVuSans-48"/>
       </defs>
       <use xlink:href="#DejaVuSans-50"/>
       <use x="63.623047" xlink:href="#DejaVuSans-48"/>
      </g>
     </g>
    </g>
    <g id="xtick_7">
     <g id="line2d_13">
      <path clip-path="url(#p1eaeb771da)" d="M 153.902022 307.584 
L 153.902022 41.472 
" style="fill:none;stroke:#b0b0b0;stroke-dasharray:5.12,1.28,0.8,1.28;stroke-dashoffset:0;stroke-width:0.8;"/>
     </g>
     <g id="line2d_14">
      <g>
       <use style="stroke:#000000;stroke-width:0.8;" x="153.902022" xlink:href="#m7d04695ed7" y="307.584"/>
      </g>
     </g>
     <g id="text_7">
      <!-- 24 -->
      <g transform="translate(147.539522 322.182437)scale(0.1 -0.1)">
       <use xlink:href="#DejaVuSans-50"/>
       <use x="63.623047" xlink:href="#DejaVuSans-52"/>
      </g>
     </g>
    </g>
    <g id="xtick_8">
     <g id="line2d_15">
      <path clip-path="url(#p1eaeb771da)" d="M 169.95236 307.584 
L 169.95236 41.472 
" style="fill:none;stroke:#b0b0b0;stroke-dasharray:5.12,1.28,0.8,1.28;stroke-dashoffset:0;stroke-width:0.8;"/>
     </g>
     <g id="line2d_16">
      <g>
       <use style="stroke:#000000;stroke-width:0.8;" x="169.95236" xlink:href="#m7d04695ed7" y="307.584"/>
      </g>
     </g>
     <g id="text_8">
      <!-- 28 -->
      <g transform="translate(163.58986 322.182437)scale(0.1 -0.1)">
       <use xlink:href="#DejaVuSans-50"/>
       <use x="63.623047" xlink:href="#DejaVuSans-56"/>
      </g>
     </g>
    </g>
    <g id="xtick_9">
     <g id="line2d_17">
      <path clip-path="url(#p1eaeb771da)" d="M 186.002697 307.584 
L 186.002697 41.472 
" style="fill:none;stroke:#b0b0b0;stroke-dasharray:5.12,1.28,0.8,1.28;stroke-dashoffset:0;stroke-width:0.8;"/>
     </g>
     <g id="line2d_18">
      <g>
       <use style="stroke:#000000;stroke-width:0.8;" x="186.002697" xlink:href="#m7d04695ed7" y="307.584"/>
      </g>
     </g>
     <g id="text_9">
      <!-- 32 -->
      <g transform="translate(179.640197 322.182437)scale(0.1 -0.1)">
       <defs>
        <path d="M 40.578125 39.3125 
Q 47.65625 37.796875 51.625 33 
Q 55.609375 28.21875 55.609375 21.1875 
Q 55.609375 10.40625 48.1875 4.484375 
Q 40.765625 -1.421875 27.09375 -1.421875 
Q 22.515625 -1.421875 17.65625 -0.515625 
Q 12.796875 0.390625 7.625 2.203125 
L 7.625 11.71875 
Q 11.71875 9.328125 16.59375 8.109375 
Q 21.484375 6.890625 26.8125 6.890625 
Q 36.078125 6.890625 40.9375 10.546875 
Q 45.796875 14.203125 45.796875 21.1875 
Q 45.796875 27.640625 41.28125 31.265625 
Q 36.765625 34.90625 28.71875 34.90625 
L 20.21875 34.90625 
L 20.21875 43.015625 
L 29.109375 43.015625 
Q 36.375 43.015625 40.234375 45.921875 
Q 44.09375 48.828125 44.09375 54.296875 
Q 44.09375 59.90625 40.109375 62.90625 
Q 36.140625 65.921875 28.71875 65.921875 
Q 24.65625 65.921875 20.015625 65.03125 
Q 15.375 64.15625 9.8125 62.3125 
L 9.8125 71.09375 
Q 15.4375 72.65625 20.34375 73.4375 
Q 25.25 74.21875 29.59375 74.21875 
Q 40.828125 74.21875 47.359375 69.109375 
Q 53.90625 64.015625 53.90625 55.328125 
Q 53.90625 49.265625 50.4375 45.09375 
Q 46.96875 40.921875 40.578125 39.3125 
z
" id="DejaVuSans-51"/>
       </defs>
       <use xlink:href="#DejaVuSans-51"/>
       <use x="63.623047" xlink:href="#DejaVuSans-50"/>
      </g>
     </g>
    </g>
    <g id="xtick_10">
     <g id="line2d_19">
      <path clip-path="url(#p1eaeb771da)" d="M 202.053034 307.584 
L 202.053034 41.472 
" style="fill:none;stroke:#b0b0b0;stroke-dasharray:5.12,1.28,0.8,1.28;stroke-dashoffset:0;stroke-width:0.8;"/>
     </g>
     <g id="line2d_20">
      <g>
       <use style="stroke:#000000;stroke-width:0.8;" x="202.053034" xlink:href="#m7d04695ed7" y="307.584"/>
      </g>
     </g>
     <g id="text_10">
      <!-- 36 -->
      <g transform="translate(195.690534 322.182437)scale(0.1 -0.1)">
       <use xlink:href="#DejaVuSans-51"/>
       <use x="63.623047" xlink:href="#DejaVuSans-54"/>
      </g>
     </g>
    </g>
    <g id="xtick_11">
     <g id="line2d_21">
      <path clip-path="url(#p1eaeb771da)" d="M 218.103371 307.584 
L 218.103371 41.472 
" style="fill:none;stroke:#b0b0b0;stroke-dasharray:5.12,1.28,0.8,1.28;stroke-dashoffset:0;stroke-width:0.8;"/>
     </g>
     <g id="line2d_22">
      <g>
       <use style="stroke:#000000;stroke-width:0.8;" x="218.103371" xlink:href="#m7d04695ed7" y="307.584"/>
      </g>
     </g>
     <g id="text_11">
      <!-- 40 -->
      <g transform="translate(211.740871 322.182437)scale(0.1 -0.1)">
       <use xlink:href="#DejaVuSans-52"/>
       <use x="63.623047" xlink:href="#DejaVuSans-48"/>
      </g>
     </g>
    </g>
    <g id="xtick_12">
     <g id="line2d_23">
      <path clip-path="url(#p1eaeb771da)" d="M 234.153708 307.584 
L 234.153708 41.472 
" style="fill:none;stroke:#b0b0b0;stroke-dasharray:5.12,1.28,0.8,1.28;stroke-dashoffset:0;stroke-width:0.8;"/>
     </g>
     <g id="line2d_24">
      <g>
       <use style="stroke:#000000;stroke-width:0.8;" x="234.153708" xlink:href="#m7d04695ed7" y="307.584"/>
      </g>
     </g>
     <g id="text_12">
      <!-- 44 -->
      <g transform="translate(227.791208 322.182437)scale(0.1 -0.1)">
       <use xlink:href="#DejaVuSans-52"/>
       <use x="63.623047" xlink:href="#DejaVuSans-52"/>
      </g>
     </g>
    </g>
    <g id="xtick_13">
     <g id="line2d_25">
      <path clip-path="url(#p1eaeb771da)" d="M 250.204045 307.584 
L 250.204045 41.472 
" style="fill:none;stroke:#b0b0b0;stroke-dasharray:5.12,1.28,0.8,1.28;stroke-dashoffset:0;stroke-width:0.8;"/>
     </g>
     <g id="line2d_26">
      <g>
       <use style="stroke:#000000;stroke-width:0.8;" x="250.204045" xlink:href="#m7d04695ed7" y="307.584"/>
      </g>
     </g>
     <g id="text_13">
      <!-- 48 -->
      <g transform="translate(243.841545 322.182437)scale(0.1 -0.1)">
       <use xlink:href="#DejaVuSans-52"/>
       <use x="63.623047" xlink:href="#DejaVuSans-56"/>
      </g>
     </g>
    </g>
    <g id="xtick_14">
     <g id="line2d_27">
      <path clip-path="url(#p1eaeb771da)" d="M 266.254382 307.584 
L 266.254382 41.472 
" style="fill:none;stroke:#b0b0b0;stroke-dasharray:5.12,1.28,0.8,1.28;stroke-dashoffset:0;stroke-width:0.8;"/>
     </g>
     <g id="line2d_28">
      <g>
       <use style="stroke:#000000;stroke-width:0.8;" x="266.254382" xlink:href="#m7d04695ed7" y="307.584"/>
      </g>
     </g>
     <g id="text_14">
      <!-- 52 -->
      <g transform="translate(259.891882 322.182437)scale(0.1 -0.1)">
       <defs>
        <path d="M 10.796875 72.90625 
L 49.515625 72.90625 
L 49.515625 64.59375 
L 19.828125 64.59375 
L 19.828125 46.734375 
Q 21.96875 47.46875 24.109375 47.828125 
Q 26.265625 48.1875 28.421875 48.1875 
Q 40.625 48.1875 47.75 41.5 
Q 54.890625 34.8125 54.890625 23.390625 
Q 54.890625 11.625 47.5625 5.09375 
Q 40.234375 -1.421875 26.90625 -1.421875 
Q 22.3125 -1.421875 17.546875 -0.640625 
Q 12.796875 0.140625 7.71875 1.703125 
L 7.71875 11.625 
Q 12.109375 9.234375 16.796875 8.0625 
Q 21.484375 6.890625 26.703125 6.890625 
Q 35.15625 6.890625 40.078125 11.328125 
Q 45.015625 15.765625 45.015625 23.390625 
Q 45.015625 31 40.078125 35.4375 
Q 35.15625 39.890625 26.703125 39.890625 
Q 22.75 39.890625 18.8125 39.015625 
Q 14.890625 38.140625 10.796875 36.28125 
z
" id="DejaVuSans-53"/>
       </defs>
       <use xlink:href="#DejaVuSans-53"/>
       <use x="63.623047" xlink:href="#DejaVuSans-50"/>
      </g>
     </g>
    </g>
    <g id="xtick_15">
     <g id="line2d_29">
      <path clip-path="url(#p1eaeb771da)" d="M 282.304719 307.584 
L 282.304719 41.472 
" style="fill:none;stroke:#b0b0b0;stroke-dasharray:5.12,1.28,0.8,1.28;stroke-dashoffset:0;stroke-width:0.8;"/>
     </g>
     <g id="line2d_30">
      <g>
       <use style="stroke:#000000;stroke-width:0.8;" x="282.304719" xlink:href="#m7d04695ed7" y="307.584"/>
      </g>
     </g>
     <g id="text_15">
      <!-- 56 -->
      <g transform="translate(275.942219 322.182437)scale(0.1 -0.1)">
       <use xlink:href="#DejaVuSans-53"/>
       <use x="63.623047" xlink:href="#DejaVuSans-54"/>
      </g>
     </g>
    </g>
    <g id="xtick_16">
     <g id="line2d_31">
      <path clip-path="url(#p1eaeb771da)" d="M 298.355056 307.584 
L 298.355056 41.472 
" style="fill:none;stroke:#b0b0b0;stroke-dasharray:5.12,1.28,0.8,1.28;stroke-dashoffset:0;stroke-width:0.8;"/>
     </g>
     <g id="line2d_32">
      <g>
       <use style="stroke:#000000;stroke-width:0.8;" x="298.355056" xlink:href="#m7d04695ed7" y="307.584"/>
      </g>
     </g>
     <g id="text_16">
      <!-- 60 -->
      <g transform="translate(291.992556 322.182437)scale(0.1 -0.1)">
       <use xlink:href="#DejaVuSans-54"/>
       <use x="63.623047" xlink:href="#DejaVuSans-48"/>
      </g>
     </g>
    </g>
    <g id="xtick_17">
     <g id="line2d_33">
      <path clip-path="url(#p1eaeb771da)" d="M 314.405393 307.584 
L 314.405393 41.472 
" style="fill:none;stroke:#b0b0b0;stroke-dasharray:5.12,1.28,0.8,1.28;stroke-dashoffset:0;stroke-width:0.8;"/>
     </g>
     <g id="line2d_34">
      <g>
       <use style="stroke:#000000;stroke-width:0.8;" x="314.405393" xlink:href="#m7d04695ed7" y="307.584"/>
      </g>
     </g>
     <g id="text_17">
      <!-- 64 -->
      <g transform="translate(308.042893 322.182437)scale(0.1 -0.1)">
       <use xlink:href="#DejaVuSans-54"/>
       <use x="63.623047" xlink:href="#DejaVuSans-52"/>
      </g>
     </g>
    </g>
    <g id="xtick_18">
     <g id="line2d_35">
      <path clip-path="url(#p1eaeb771da)" d="M 330.45573 307.584 
L 330.45573 41.472 
" style="fill:none;stroke:#b0b0b0;stroke-dasharray:5.12,1.28,0.8,1.28;stroke-dashoffset:0;stroke-width:0.8;"/>
     </g>
     <g id="line2d_36">
      <g>
       <use style="stroke:#000000;stroke-width:0.8;" x="330.45573" xlink:href="#m7d04695ed7" y="307.584"/>
      </g>
     </g>
     <g id="text_18">
      <!-- 68 -->
      <g transform="translate(324.09323 322.182437)scale(0.1 -0.1)">
       <use xlink:href="#DejaVuSans-54"/>
       <use x="63.623047" xlink:href="#DejaVuSans-56"/>
      </g>
     </g>
    </g>
    <g id="xtick_19">
     <g id="line2d_37">
      <path clip-path="url(#p1eaeb771da)" d="M 346.506067 307.584 
L 346.506067 41.472 
" style="fill:none;stroke:#b0b0b0;stroke-dasharray:5.12,1.28,0.8,1.28;stroke-dashoffset:0;stroke-width:0.8;"/>
     </g>
     <g id="line2d_38">
      <g>
       <use style="stroke:#000000;stroke-width:0.8;" x="346.506067" xlink:href="#m7d04695ed7" y="307.584"/>
      </g>
     </g>
     <g id="text_19">
      <!-- 72 -->
      <g transform="translate(340.143567 322.182437)scale(0.1 -0.1)">
       <defs>
        <path d="M 8.203125 72.90625 
L 55.078125 72.90625 
L 55.078125 68.703125 
L 28.609375 0 
L 18.3125 0 
L 43.21875 64.59375 
L 8.203125 64.59375 
z
" id="DejaVuSans-55"/>
       </defs>
       <use xlink:href="#DejaVuSans-55"/>
       <use x="63.623047" xlink:href="#DejaVuSans-50"/>
      </g>
     </g>
    </g>
    <g id="xtick_20">
     <g id="line2d_39">
      <path clip-path="url(#p1eaeb771da)" d="M 362.556404 307.584 
L 362.556404 41.472 
" style="fill:none;stroke:#b0b0b0;stroke-dasharray:5.12,1.28,0.8,1.28;stroke-dashoffset:0;stroke-width:0.8;"/>
     </g>
     <g id="line2d_40">
      <g>
       <use style="stroke:#000000;stroke-width:0.8;" x="362.556404" xlink:href="#m7d04695ed7" y="307.584"/>
      </g>
     </g>
     <g id="text_20">
      <!-- 76 -->
      <g transform="translate(356.193904 322.182437)scale(0.1 -0.1)">
       <use xlink:href="#DejaVuSans-55"/>
       <use x="63.623047" xlink:href="#DejaVuSans-54"/>
      </g>
     </g>
    </g>
    <g id="xtick_21">
     <g id="line2d_41">
      <path clip-path="url(#p1eaeb771da)" d="M 378.606742 307.584 
L 378.606742 41.472 
" style="fill:none;stroke:#b0b0b0;stroke-dasharray:5.12,1.28,0.8,1.28;stroke-dashoffset:0;stroke-width:0.8;"/>
     </g>
     <g id="line2d_42">
      <g>
       <use style="stroke:#000000;stroke-width:0.8;" x="378.606742" xlink:href="#m7d04695ed7" y="307.584"/>
      </g>
     </g>
     <g id="text_21">
      <!-- 80 -->
      <g transform="translate(372.244242 322.182437)scale(0.1 -0.1)">
       <use xlink:href="#DejaVuSans-56"/>
       <use x="63.623047" xlink:href="#DejaVuSans-48"/>
      </g>
     </g>
    </g>
    <g id="xtick_22">
     <g id="line2d_43">
      <path clip-path="url(#p1eaeb771da)" d="M 394.657079 307.584 
L 394.657079 41.472 
" style="fill:none;stroke:#b0b0b0;stroke-dasharray:5.12,1.28,0.8,1.28;stroke-dashoffset:0;stroke-width:0.8;"/>
     </g>
     <g id="line2d_44">
      <g>
       <use style="stroke:#000000;stroke-width:0.8;" x="394.657079" xlink:href="#m7d04695ed7" y="307.584"/>
      </g>
     </g>
     <g id="text_22">
      <!-- 84 -->
      <g transform="translate(388.294579 322.182437)scale(0.1 -0.1)">
       <use xlink:href="#DejaVuSans-56"/>
       <use x="63.623047" xlink:href="#DejaVuSans-52"/>
      </g>
     </g>
    </g>
    <g id="xtick_23">
     <g id="line2d_45">
      <path clip-path="url(#p1eaeb771da)" d="M 410.707416 307.584 
L 410.707416 41.472 
" style="fill:none;stroke:#b0b0b0;stroke-dasharray:5.12,1.28,0.8,1.28;stroke-dashoffset:0;stroke-width:0.8;"/>
     </g>
     <g id="line2d_46">
      <g>
       <use style="stroke:#000000;stroke-width:0.8;" x="410.707416" xlink:href="#m7d04695ed7" y="307.584"/>
      </g>
     </g>
     <g id="text_23">
      <!-- 88 -->
      <g transform="translate(404.344916 322.182437)scale(0.1 -0.1)">
       <use xlink:href="#DejaVuSans-56"/>
       <use x="63.623047" xlink:href="#DejaVuSans-56"/>
      </g>
     </g>
    </g>
    <g id="text_24">
     <!-- threads -->
     <g transform="translate(217.168594 335.860562)scale(0.1 -0.1)">
      <defs>
       <path d="M 18.3125 70.21875 
L 18.3125 54.6875 
L 36.8125 54.6875 
L 36.8125 47.703125 
L 18.3125 47.703125 
L 18.3125 18.015625 
Q 18.3125 11.328125 20.140625 9.421875 
Q 21.96875 7.515625 27.59375 7.515625 
L 36.8125 7.515625 
L 36.8125 0 
L 27.59375 0 
Q 17.1875 0 13.234375 3.875 
Q 9.28125 7.765625 9.28125 18.015625 
L 9.28125 47.703125 
L 2.6875 47.703125 
L 2.6875 54.6875 
L 9.28125 54.6875 
L 9.28125 70.21875 
z
" id="DejaVuSans-116"/>
       <path d="M 54.890625 33.015625 
L 54.890625 0 
L 45.90625 0 
L 45.90625 32.71875 
Q 45.90625 40.484375 42.875 44.328125 
Q 39.84375 48.1875 33.796875 48.1875 
Q 26.515625 48.1875 22.3125 43.546875 
Q 18.109375 38.921875 18.109375 30.90625 
L 18.109375 0 
L 9.078125 0 
L 9.078125 75.984375 
L 18.109375 75.984375 
L 18.109375 46.1875 
Q 21.34375 51.125 25.703125 53.5625 
Q 30.078125 56 35.796875 56 
Q 45.21875 56 50.046875 50.171875 
Q 54.890625 44.34375 54.890625 33.015625 
z
" id="DejaVuSans-104"/>
       <path d="M 41.109375 46.296875 
Q 39.59375 47.171875 37.8125 47.578125 
Q 36.03125 48 33.890625 48 
Q 26.265625 48 22.1875 43.046875 
Q 18.109375 38.09375 18.109375 28.8125 
L 18.109375 0 
L 9.078125 0 
L 9.078125 54.6875 
L 18.109375 54.6875 
L 18.109375 46.1875 
Q 20.953125 51.171875 25.484375 53.578125 
Q 30.03125 56 36.53125 56 
Q 37.453125 56 38.578125 55.875 
Q 39.703125 55.765625 41.0625 55.515625 
z
" id="DejaVuSans-114"/>
       <path d="M 56.203125 29.59375 
L 56.203125 25.203125 
L 14.890625 25.203125 
Q 15.484375 15.921875 20.484375 11.0625 
Q 25.484375 6.203125 34.421875 6.203125 
Q 39.59375 6.203125 44.453125 7.46875 
Q 49.3125 8.734375 54.109375 11.28125 
L 54.109375 2.78125 
Q 49.265625 0.734375 44.1875 -0.34375 
Q 39.109375 -1.421875 33.890625 -1.421875 
Q 20.796875 -1.421875 13.15625 6.1875 
Q 5.515625 13.8125 5.515625 26.8125 
Q 5.515625 40.234375 12.765625 48.109375 
Q 20.015625 56 32.328125 56 
Q 43.359375 56 49.78125 48.890625 
Q 56.203125 41.796875 56.203125 29.59375 
z
M 47.21875 32.234375 
Q 47.125 39.59375 43.09375 43.984375 
Q 39.0625 48.390625 32.421875 48.390625 
Q 24.90625 48.390625 20.390625 44.140625 
Q 15.875 39.890625 15.1875 32.171875 
z
" id="DejaVuSans-101"/>
       <path d="M 34.28125 27.484375 
Q 23.390625 27.484375 19.1875 25 
Q 14.984375 22.515625 14.984375 16.5 
Q 14.984375 11.71875 18.140625 8.90625 
Q 21.296875 6.109375 26.703125 6.109375 
Q 34.1875 6.109375 38.703125 11.40625 
Q 43.21875 16.703125 43.21875 25.484375 
L 43.21875 27.484375 
z
M 52.203125 31.203125 
L 52.203125 0 
L 43.21875 0 
L 43.21875 8.296875 
Q 40.140625 3.328125 35.546875 0.953125 
Q 30.953125 -1.421875 24.3125 -1.421875 
Q 15.921875 -1.421875 10.953125 3.296875 
Q 6 8.015625 6 15.921875 
Q 6 25.140625 12.171875 29.828125 
Q 18.359375 34.515625 30.609375 34.515625 
L 43.21875 34.515625 
L 43.21875 35.40625 
Q 43.21875 41.609375 39.140625 45 
Q 35.0625 48.390625 27.6875 48.390625 
Q 23 48.390625 18.546875 47.265625 
Q 14.109375 46.140625 10.015625 43.890625 
L 10.015625 52.203125 
Q 14.9375 54.109375 19.578125 55.046875 
Q 24.21875 56 28.609375 56 
Q 40.484375 56 46.34375 49.84375 
Q 52.203125 43.703125 52.203125 31.203125 
z
" id="DejaVuSans-97"/>
       <path d="M 45.40625 46.390625 
L 45.40625 75.984375 
L 54.390625 75.984375 
L 54.390625 0 
L 45.40625 0 
L 45.40625 8.203125 
Q 42.578125 3.328125 38.25 0.953125 
Q 33.9375 -1.421875 27.875 -1.421875 
Q 17.96875 -1.421875 11.734375 6.484375 
Q 5.515625 14.40625 5.515625 27.296875 
Q 5.515625 40.1875 11.734375 48.09375 
Q 17.96875 56 27.875 56 
Q 33.9375 56 38.25 53.625 
Q 42.578125 51.265625 45.40625 46.390625 
z
M 14.796875 27.296875 
Q 14.796875 17.390625 18.875 11.75 
Q 22.953125 6.109375 30.078125 6.109375 
Q 37.203125 6.109375 41.296875 11.75 
Q 45.40625 17.390625 45.40625 27.296875 
Q 45.40625 37.203125 41.296875 42.84375 
Q 37.203125 48.484375 30.078125 48.484375 
Q 22.953125 48.484375 18.875 42.84375 
Q 14.796875 37.203125 14.796875 27.296875 
z
" id="DejaVuSans-100"/>
       <path d="M 44.28125 53.078125 
L 44.28125 44.578125 
Q 40.484375 46.53125 36.375 47.5 
Q 32.28125 48.484375 27.875 48.484375 
Q 21.1875 48.484375 17.84375 46.4375 
Q 14.5 44.390625 14.5 40.28125 
Q 14.5 37.15625 16.890625 35.375 
Q 19.28125 33.59375 26.515625 31.984375 
L 29.59375 31.296875 
Q 39.15625 29.25 43.1875 25.515625 
Q 47.21875 21.78125 47.21875 15.09375 
Q 47.21875 7.46875 41.1875 3.015625 
Q 35.15625 -1.421875 24.609375 -1.421875 
Q 20.21875 -1.421875 15.453125 -0.5625 
Q 10.6875 0.296875 5.421875 2 
L 5.421875 11.28125 
Q 10.40625 8.6875 15.234375 7.390625 
Q 20.0625 6.109375 24.8125 6.109375 
Q 31.15625 6.109375 34.5625 8.28125 
Q 37.984375 10.453125 37.984375 14.40625 
Q 37.984375 18.0625 35.515625 20.015625 
Q 33.0625 21.96875 24.703125 23.78125 
L 21.578125 24.515625 
Q 13.234375 26.265625 9.515625 29.90625 
Q 5.8125 33.546875 5.8125 39.890625 
Q 5.8125 47.609375 11.28125 51.796875 
Q 16.75 56 26.8125 56 
Q 31.78125 56 36.171875 55.265625 
Q 40.578125 54.546875 44.28125 53.078125 
z
" id="DejaVuSans-115"/>
      </defs>
      <use xlink:href="#DejaVuSans-116"/>
      <use x="39.208984" xlink:href="#DejaVuSans-104"/>
      <use x="102.587891" xlink:href="#DejaVuSans-114"/>
      <use x="141.451172" xlink:href="#DejaVuSans-101"/>
      <use x="202.974609" xlink:href="#DejaVuSans-97"/>
      <use x="264.253906" xlink:href="#DejaVuSans-100"/>
      <use x="327.730469" xlink:href="#DejaVuSans-115"/>
     </g>
    </g>
   </g>
   <g id="matplotlib.axis_2">
    <g id="ytick_1">
     <g id="line2d_47">
      <path clip-path="url(#p1eaeb771da)" d="M 57.6 277.609763 
L 414.72 277.609763 
" style="fill:none;stroke:#b0b0b0;stroke-dasharray:5.12,1.28,0.8,1.28;stroke-dashoffset:0;stroke-width:0.8;"/>
     </g>
     <g id="line2d_48">
      <defs>
       <path d="M 0 0 
L -3.5 0 
" id="m4e7b695d7f" style="stroke:#000000;stroke-width:0.8;"/>
      </defs>
      <g>
       <use style="stroke:#000000;stroke-width:0.8;" x="57.6" xlink:href="#m4e7b695d7f" y="277.609763"/>
      </g>
     </g>
     <g id="text_25">
      <!-- 5 -->
      <g transform="translate(44.2375 281.408982)scale(0.1 -0.1)">
       <use xlink:href="#DejaVuSans-53"/>
      </g>
     </g>
    </g>
    <g id="ytick_2">
     <g id="line2d_49">
      <path clip-path="url(#p1eaeb771da)" d="M 57.6 240.081319 
L 414.72 240.081319 
" style="fill:none;stroke:#b0b0b0;stroke-dasharray:5.12,1.28,0.8,1.28;stroke-dashoffset:0;stroke-width:0.8;"/>
     </g>
     <g id="line2d_50">
      <g>
       <use style="stroke:#000000;stroke-width:0.8;" x="57.6" xlink:href="#m4e7b695d7f" y="240.081319"/>
      </g>
     </g>
     <g id="text_26">
      <!-- 10 -->
      <g transform="translate(37.875 243.880538)scale(0.1 -0.1)">
       <use xlink:href="#DejaVuSans-49"/>
       <use x="63.623047" xlink:href="#DejaVuSans-48"/>
      </g>
     </g>
    </g>
    <g id="ytick_3">
     <g id="line2d_51">
      <path clip-path="url(#p1eaeb771da)" d="M 57.6 202.552875 
L 414.72 202.552875 
" style="fill:none;stroke:#b0b0b0;stroke-dasharray:5.12,1.28,0.8,1.28;stroke-dashoffset:0;stroke-width:0.8;"/>
     </g>
     <g id="line2d_52">
      <g>
       <use style="stroke:#000000;stroke-width:0.8;" x="57.6" xlink:href="#m4e7b695d7f" y="202.552875"/>
      </g>
     </g>
     <g id="text_27">
      <!-- 15 -->
      <g transform="translate(37.875 206.352094)scale(0.1 -0.1)">
       <use xlink:href="#DejaVuSans-49"/>
       <use x="63.623047" xlink:href="#DejaVuSans-53"/>
      </g>
     </g>
    </g>
    <g id="ytick_4">
     <g id="line2d_53">
      <path clip-path="url(#p1eaeb771da)" d="M 57.6 165.024431 
L 414.72 165.024431 
" style="fill:none;stroke:#b0b0b0;stroke-dasharray:5.12,1.28,0.8,1.28;stroke-dashoffset:0;stroke-width:0.8;"/>
     </g>
     <g id="line2d_54">
      <g>
       <use style="stroke:#000000;stroke-width:0.8;" x="57.6" xlink:href="#m4e7b695d7f" y="165.024431"/>
      </g>
     </g>
     <g id="text_28">
      <!-- 20 -->
      <g transform="translate(37.875 168.82365)scale(0.1 -0.1)">
       <use xlink:href="#DejaVuSans-50"/>
       <use x="63.623047" xlink:href="#DejaVuSans-48"/>
      </g>
     </g>
    </g>
    <g id="ytick_5">
     <g id="line2d_55">
      <path clip-path="url(#p1eaeb771da)" d="M 57.6 127.495987 
L 414.72 127.495987 
" style="fill:none;stroke:#b0b0b0;stroke-dasharray:5.12,1.28,0.8,1.28;stroke-dashoffset:0;stroke-width:0.8;"/>
     </g>
     <g id="line2d_56">
      <g>
       <use style="stroke:#000000;stroke-width:0.8;" x="57.6" xlink:href="#m4e7b695d7f" y="127.495987"/>
      </g>
     </g>
     <g id="text_29">
      <!-- 25 -->
      <g transform="translate(37.875 131.295205)scale(0.1 -0.1)">
       <use xlink:href="#DejaVuSans-50"/>
       <use x="63.623047" xlink:href="#DejaVuSans-53"/>
      </g>
     </g>
    </g>
    <g id="ytick_6">
     <g id="line2d_57">
      <path clip-path="url(#p1eaeb771da)" d="M 57.6 89.967543 
L 414.72 89.967543 
" style="fill:none;stroke:#b0b0b0;stroke-dasharray:5.12,1.28,0.8,1.28;stroke-dashoffset:0;stroke-width:0.8;"/>
     </g>
     <g id="line2d_58">
      <g>
       <use style="stroke:#000000;stroke-width:0.8;" x="57.6" xlink:href="#m4e7b695d7f" y="89.967543"/>
      </g>
     </g>
     <g id="text_30">
      <!-- 30 -->
      <g transform="translate(37.875 93.766761)scale(0.1 -0.1)">
       <use xlink:href="#DejaVuSans-51"/>
       <use x="63.623047" xlink:href="#DejaVuSans-48"/>
      </g>
     </g>
    </g>
    <g id="ytick_7">
     <g id="line2d_59">
      <path clip-path="url(#p1eaeb771da)" d="M 57.6 52.439098 
L 414.72 52.439098 
" style="fill:none;stroke:#b0b0b0;stroke-dasharray:5.12,1.28,0.8,1.28;stroke-dashoffset:0;stroke-width:0.8;"/>
     </g>
     <g id="line2d_60">
      <g>
       <use style="stroke:#000000;stroke-width:0.8;" x="57.6" xlink:href="#m4e7b695d7f" y="52.439098"/>
      </g>
     </g>
     <g id="text_31">
      <!-- 35 -->
      <g transform="translate(37.875 56.238317)scale(0.1 -0.1)">
       <use xlink:href="#DejaVuSans-51"/>
       <use x="63.623047" xlink:href="#DejaVuSans-53"/>
      </g>
     </g>
    </g>
    <g id="text_32">
     <!-- speed up -->
     <g transform="translate(31.795312 197.566281)rotate(-90)scale(0.1 -0.1)">
      <defs>
       <path d="M 18.109375 8.203125 
L 18.109375 -20.796875 
L 9.078125 -20.796875 
L 9.078125 54.6875 
L 18.109375 54.6875 
L 18.109375 46.390625 
Q 20.953125 51.265625 25.265625 53.625 
Q 29.59375 56 35.59375 56 
Q 45.5625 56 51.78125 48.09375 
Q 58.015625 40.1875 58.015625 27.296875 
Q 58.015625 14.40625 51.78125 6.484375 
Q 45.5625 -1.421875 35.59375 -1.421875 
Q 29.59375 -1.421875 25.265625 0.953125 
Q 20.953125 3.328125 18.109375 8.203125 
z
M 48.6875 27.296875 
Q 48.6875 37.203125 44.609375 42.84375 
Q 40.53125 48.484375 33.40625 48.484375 
Q 26.265625 48.484375 22.1875 42.84375 
Q 18.109375 37.203125 18.109375 27.296875 
Q 18.109375 17.390625 22.1875 11.75 
Q 26.265625 6.109375 33.40625 6.109375 
Q 40.53125 6.109375 44.609375 11.75 
Q 48.6875 17.390625 48.6875 27.296875 
z
" id="DejaVuSans-112"/>
       <path id="DejaVuSans-32"/>
       <path d="M 8.5 21.578125 
L 8.5 54.6875 
L 17.484375 54.6875 
L 17.484375 21.921875 
Q 17.484375 14.15625 20.5 10.265625 
Q 23.53125 6.390625 29.59375 6.390625 
Q 36.859375 6.390625 41.078125 11.03125 
Q 45.3125 15.671875 45.3125 23.6875 
L 45.3125 54.6875 
L 54.296875 54.6875 
L 54.296875 0 
L 45.3125 0 
L 45.3125 8.40625 
Q 42.046875 3.421875 37.71875 1 
Q 33.40625 -1.421875 27.6875 -1.421875 
Q 18.265625 -1.421875 13.375 4.4375 
Q 8.5 10.296875 8.5 21.578125 
z
M 31.109375 56 
z
" id="DejaVuSans-117"/>
      </defs>
      <use xlink:href="#DejaVuSans-115"/>
      <use x="52.099609" xlink:href="#DejaVuSans-112"/>
      <use x="115.576172" xlink:href="#DejaVuSans-101"/>
      <use x="177.099609" xlink:href="#DejaVuSans-101"/>
      <use x="238.623047" xlink:href="#DejaVuSans-100"/>
      <use x="302.099609" xlink:href="#DejaVuSans-32"/>
      <use x="333.886719" xlink:href="#DejaVuSans-117"/>
      <use x="397.265625" xlink:href="#DejaVuSans-112"/>
     </g>
    </g>
   </g>
   <g id="line2d_61">
    <path clip-path="url(#p1eaeb771da)" d="M 61.612584 294.872114 
L 65.625169 275.533518 
L 69.637753 256.773131 
L 73.650337 240.434572 
L 77.662921 226.90444 
L 81.675506 209.161701 
L 85.68809 193.046296 
L 89.700674 179.433644 
L 93.713258 165.704763 
L 97.725843 157.81347 
L 101.738427 149.572563 
L 105.751011 136.29726 
L 109.763596 133.075027 
L 113.77618 128.379321 
L 117.788764 122.506508 
L 121.801348 123.772307 
L 125.813933 114.020044 
L 129.826517 120.374331 
L 133.839101 108.088263 
L 137.851685 110.72849 
L 141.86427 112.413609 
L 145.876854 114.055836 
L 149.889438 79.824417 
L 153.902022 133.900767 
L 157.914607 134.60215 
L 161.927191 133.726271 
L 165.939775 131.852962 
L 169.95236 131.997739 
L 173.964944 129.851821 
L 177.977528 129.288208 
L 181.990112 129.671414 
L 186.002697 124.898011 
L 190.015281 122.426186 
L 194.027865 115.44986 
L 198.040449 119.667095 
L 202.053034 123.282692 
L 206.065618 113.280689 
L 210.078202 109.636602 
L 214.090787 105.710544 
L 218.103371 107.072455 
L 222.115955 107.034134 
L 226.128539 108.646503 
L 230.141124 111.282991 
L 234.153708 118.075099 
L 238.166292 119.738982 
L 242.178876 111.810974 
L 246.191461 108.341712 
L 250.204045 107.251182 
L 254.216629 105.925456 
L 258.229213 98.581262 
L 262.241798 88.873294 
L 266.254382 93.378765 
L 270.266966 89.59637 
L 274.279551 90.299443 
L 278.292135 92.944948 
L 282.304719 87.493136 
L 286.317303 86.12166 
L 290.329888 81.800544 
L 294.342472 79.065726 
L 298.355056 88.475844 
L 302.36764 89.46635 
L 306.380225 91.074775 
L 310.392809 95.991915 
L 314.405393 91.963915 
L 318.417978 96.008888 
L 322.430562 89.387885 
L 326.443146 91.117324 
L 330.45573 93.030883 
L 334.468315 90.308304 
L 338.480899 88.020983 
L 342.493483 91.755484 
L 346.506067 90.025148 
L 350.518652 93.793295 
L 354.531236 88.876825 
L 358.54382 88.348224 
L 362.556404 84.580152 
L 366.568989 92.097793 
L 370.581573 93.831721 
L 374.594157 100.562085 
L 378.606742 102.503752 
L 382.619326 93.012029 
L 386.63191 86.941733 
L 390.644494 94.403722 
L 394.657079 106.321388 
L 398.669663 109.648736 
L 402.682247 99.682254 
L 406.694831 104.757475 
L 410.707416 113.175024 
" style="fill:none;stroke:#0000ff;stroke-dasharray:1.5,2.475;stroke-dashoffset:0;stroke-width:1.5;"/>
    <defs>
     <path d="M 0 1.5 
C 0.397805 1.5 0.77937 1.341951 1.06066 1.06066 
C 1.341951 0.77937 1.5 0.397805 1.5 0 
C 1.5 -0.397805 1.341951 -0.77937 1.06066 -1.06066 
C 0.77937 -1.341951 0.397805 -1.5 0 -1.5 
C -0.397805 -1.5 -0.77937 -1.341951 -1.06066 -1.06066 
C -1.341951 -0.77937 -1.5 -0.397805 -1.5 0 
C -1.5 0.397805 -1.341951 0.77937 -1.06066 1.06066 
C -0.77937 1.341951 -0.397805 1.5 0 1.5 
z
" id="mccabd265fa" style="stroke:#0000ff;"/>
    </defs>
    <g clip-path="url(#p1eaeb771da)">
     <use style="fill:#0000ff;stroke:#0000ff;" x="61.612584" xlink:href="#mccabd265fa" y="294.872114"/>
     <use style="fill:#0000ff;stroke:#0000ff;" x="65.625169" xlink:href="#mccabd265fa" y="275.533518"/>
     <use style="fill:#0000ff;stroke:#0000ff;" x="69.637753" xlink:href="#mccabd265fa" y="256.773131"/>
     <use style="fill:#0000ff;stroke:#0000ff;" x="73.650337" xlink:href="#mccabd265fa" y="240.434572"/>
     <use style="fill:#0000ff;stroke:#0000ff;" x="77.662921" xlink:href="#mccabd265fa" y="226.90444"/>
     <use style="fill:#0000ff;stroke:#0000ff;" x="81.675506" xlink:href="#mccabd265fa" y="209.161701"/>
     <use style="fill:#0000ff;stroke:#0000ff;" x="85.68809" xlink:href="#mccabd265fa" y="193.046296"/>
     <use style="fill:#0000ff;stroke:#0000ff;" x="89.700674" xlink:href="#mccabd265fa" y="179.433644"/>
     <use style="fill:#0000ff;stroke:#0000ff;" x="93.713258" xlink:href="#mccabd265fa" y="165.704763"/>
     <use style="fill:#0000ff;stroke:#0000ff;" x="97.725843" xlink:href="#mccabd265fa" y="157.81347"/>
     <use style="fill:#0000ff;stroke:#0000ff;" x="101.738427" xlink:href="#mccabd265fa" y="149.572563"/>
     <use style="fill:#0000ff;stroke:#0000ff;" x="105.751011" xlink:href="#mccabd265fa" y="136.29726"/>
     <use style="fill:#0000ff;stroke:#0000ff;" x="109.763596" xlink:href="#mccabd265fa" y="133.075027"/>
     <use style="fill:#0000ff;stroke:#0000ff;" x="113.77618" xlink:href="#mccabd265fa" y="128.379321"/>
     <use style="fill:#0000ff;stroke:#0000ff;" x="117.788764" xlink:href="#mccabd265fa" y="122.506508"/>
     <use style="fill:#0000ff;stroke:#0000ff;" x="121.801348" xlink:href="#mccabd265fa" y="123.772307"/>
     <use style="fill:#0000ff;stroke:#0000ff;" x="125.813933" xlink:href="#mccabd265fa" y="114.020044"/>
     <use style="fill:#0000ff;stroke:#0000ff;" x="129.826517" xlink:href="#mccabd265fa" y="120.374331"/>
     <use style="fill:#0000ff;stroke:#0000ff;" x="133.839101" xlink:href="#mccabd265fa" y="108.088263"/>
     <use style="fill:#0000ff;stroke:#0000ff;" x="137.851685" xlink:href="#mccabd265fa" y="110.72849"/>
     <use style="fill:#0000ff;stroke:#0000ff;" x="141.86427" xlink:href="#mccabd265fa" y="112.413609"/>
     <use style="fill:#0000ff;stroke:#0000ff;" x="145.876854" xlink:href="#mccabd265fa" y="114.055836"/>
     <use style="fill:#0000ff;stroke:#0000ff;" x="149.889438" xlink:href="#mccabd265fa" y="79.824417"/>
     <use style="fill:#0000ff;stroke:#0000ff;" x="153.902022" xlink:href="#mccabd265fa" y="133.900767"/>
     <use style="fill:#0000ff;stroke:#0000ff;" x="157.914607" xlink:href="#mccabd265fa" y="134.60215"/>
     <use style="fill:#0000ff;stroke:#0000ff;" x="161.927191" xlink:href="#mccabd265fa" y="133.726271"/>
     <use style="fill:#0000ff;stroke:#0000ff;" x="165.939775" xlink:href="#mccabd265fa" y="131.852962"/>
     <use style="fill:#0000ff;stroke:#0000ff;" x="169.95236" xlink:href="#mccabd265fa" y="131.997739"/>
     <use style="fill:#0000ff;stroke:#0000ff;" x="173.964944" xlink:href="#mccabd265fa" y="129.851821"/>
     <use style="fill:#0000ff;stroke:#0000ff;" x="177.977528" xlink:href="#mccabd265fa" y="129.288208"/>
     <use style="fill:#0000ff;stroke:#0000ff;" x="181.990112" xlink:href="#mccabd265fa" y="129.671414"/>
     <use style="fill:#0000ff;stroke:#0000ff;" x="186.002697" xlink:href="#mccabd265fa" y="124.898011"/>
     <use style="fill:#0000ff;stroke:#0000ff;" x="190.015281" xlink:href="#mccabd265fa" y="122.426186"/>
     <use style="fill:#0000ff;stroke:#0000ff;" x="194.027865" xlink:href="#mccabd265fa" y="115.44986"/>
     <use style="fill:#0000ff;stroke:#0000ff;" x="198.040449" xlink:href="#mccabd265fa" y="119.667095"/>
     <use style="fill:#0000ff;stroke:#0000ff;" x="202.053034" xlink:href="#mccabd265fa" y="123.282692"/>
     <use style="fill:#0000ff;stroke:#0000ff;" x="206.065618" xlink:href="#mccabd265fa" y="113.280689"/>
     <use style="fill:#0000ff;stroke:#0000ff;" x="210.078202" xlink:href="#mccabd265fa" y="109.636602"/>
     <use style="fill:#0000ff;stroke:#0000ff;" x="214.090787" xlink:href="#mccabd265fa" y="105.710544"/>
     <use style="fill:#0000ff;stroke:#0000ff;" x="218.103371" xlink:href="#mccabd265fa" y="107.072455"/>
     <use style="fill:#0000ff;stroke:#0000ff;" x="222.115955" xlink:href="#mccabd265fa" y="107.034134"/>
     <use style="fill:#0000ff;stroke:#0000ff;" x="226.128539" xlink:href="#mccabd265fa" y="108.646503"/>
     <use style="fill:#0000ff;stroke:#0000ff;" x="230.141124" xlink:href="#mccabd265fa" y="111.282991"/>
     <use style="fill:#0000ff;stroke:#0000ff;" x="234.153708" xlink:href="#mccabd265fa" y="118.075099"/>
     <use style="fill:#0000ff;stroke:#0000ff;" x="238.166292" xlink:href="#mccabd265fa" y="119.738982"/>
     <use style="fill:#0000ff;stroke:#0000ff;" x="242.178876" xlink:href="#mccabd265fa" y="111.810974"/>
     <use style="fill:#0000ff;stroke:#0000ff;" x="246.191461" xlink:href="#mccabd265fa" y="108.341712"/>
     <use style="fill:#0000ff;stroke:#0000ff;" x="250.204045" xlink:href="#mccabd265fa" y="107.251182"/>
     <use style="fill:#0000ff;stroke:#0000ff;" x="254.216629" xlink:href="#mccabd265fa" y="105.925456"/>
     <use style="fill:#0000ff;stroke:#0000ff;" x="258.229213" xlink:href="#mccabd265fa" y="98.581262"/>
     <use style="fill:#0000ff;stroke:#0000ff;" x="262.241798" xlink:href="#mccabd265fa" y="88.873294"/>
     <use style="fill:#0000ff;stroke:#0000ff;" x="266.254382" xlink:href="#mccabd265fa" y="93.378765"/>
     <use style="fill:#0000ff;stroke:#0000ff;" x="270.266966" xlink:href="#mccabd265fa" y="89.59637"/>
     <use style="fill:#0000ff;stroke:#0000ff;" x="274.279551" xlink:href="#mccabd265fa" y="90.299443"/>
     <use style="fill:#0000ff;stroke:#0000ff;" x="278.292135" xlink:href="#mccabd265fa" y="92.944948"/>
     <use style="fill:#0000ff;stroke:#0000ff;" x="282.304719" xlink:href="#mccabd265fa" y="87.493136"/>
     <use style="fill:#0000ff;stroke:#0000ff;" x="286.317303" xlink:href="#mccabd265fa" y="86.12166"/>
     <use style="fill:#0000ff;stroke:#0000ff;" x="290.329888" xlink:href="#mccabd265fa" y="81.800544"/>
     <use style="fill:#0000ff;stroke:#0000ff;" x="294.342472" xlink:href="#mccabd265fa" y="79.065726"/>
     <use style="fill:#0000ff;stroke:#0000ff;" x="298.355056" xlink:href="#mccabd265fa" y="88.475844"/>
     <use style="fill:#0000ff;stroke:#0000ff;" x="302.36764" xlink:href="#mccabd265fa" y="89.46635"/>
     <use style="fill:#0000ff;stroke:#0000ff;" x="306.380225" xlink:href="#mccabd265fa" y="91.074775"/>
     <use style="fill:#0000ff;stroke:#0000ff;" x="310.392809" xlink:href="#mccabd265fa" y="95.991915"/>
     <use style="fill:#0000ff;stroke:#0000ff;" x="314.405393" xlink:href="#mccabd265fa" y="91.963915"/>
     <use style="fill:#0000ff;stroke:#0000ff;" x="318.417978" xlink:href="#mccabd265fa" y="96.008888"/>
     <use style="fill:#0000ff;stroke:#0000ff;" x="322.430562" xlink:href="#mccabd265fa" y="89.387885"/>
     <use style="fill:#0000ff;stroke:#0000ff;" x="326.443146" xlink:href="#mccabd265fa" y="91.117324"/>
     <use style="fill:#0000ff;stroke:#0000ff;" x="330.45573" xlink:href="#mccabd265fa" y="93.030883"/>
     <use style="fill:#0000ff;stroke:#0000ff;" x="334.468315" xlink:href="#mccabd265fa" y="90.308304"/>
     <use style="fill:#0000ff;stroke:#0000ff;" x="338.480899" xlink:href="#mccabd265fa" y="88.020983"/>
     <use style="fill:#0000ff;stroke:#0000ff;" x="342.493483" xlink:href="#mccabd265fa" y="91.755484"/>
     <use style="fill:#0000ff;stroke:#0000ff;" x="346.506067" xlink:href="#mccabd265fa" y="90.025148"/>
     <use style="fill:#0000ff;stroke:#0000ff;" x="350.518652" xlink:href="#mccabd265fa" y="93.793295"/>
     <use style="fill:#0000ff;stroke:#0000ff;" x="354.531236" xlink:href="#mccabd265fa" y="88.876825"/>
     <use style="fill:#0000ff;stroke:#0000ff;" x="358.54382" xlink:href="#mccabd265fa" y="88.348224"/>
     <use style="fill:#0000ff;stroke:#0000ff;" x="362.556404" xlink:href="#mccabd265fa" y="84.580152"/>
     <use style="fill:#0000ff;stroke:#0000ff;" x="366.568989" xlink:href="#mccabd265fa" y="92.097793"/>
     <use style="fill:#0000ff;stroke:#0000ff;" x="370.581573" xlink:href="#mccabd265fa" y="93.831721"/>
     <use style="fill:#0000ff;stroke:#0000ff;" x="374.594157" xlink:href="#mccabd265fa" y="100.562085"/>
     <use style="fill:#0000ff;stroke:#0000ff;" x="378.606742" xlink:href="#mccabd265fa" y="102.503752"/>
     <use style="fill:#0000ff;stroke:#0000ff;" x="382.619326" xlink:href="#mccabd265fa" y="93.012029"/>
     <use style="fill:#0000ff;stroke:#0000ff;" x="386.63191" xlink:href="#mccabd265fa" y="86.941733"/>
     <use style="fill:#0000ff;stroke:#0000ff;" x="390.644494" xlink:href="#mccabd265fa" y="94.403722"/>
     <use style="fill:#0000ff;stroke:#0000ff;" x="394.657079" xlink:href="#mccabd265fa" y="106.321388"/>
     <use style="fill:#0000ff;stroke:#0000ff;" x="398.669663" xlink:href="#mccabd265fa" y="109.648736"/>
     <use style="fill:#0000ff;stroke:#0000ff;" x="402.682247" xlink:href="#mccabd265fa" y="99.682254"/>
     <use style="fill:#0000ff;stroke:#0000ff;" x="406.694831" xlink:href="#mccabd265fa" y="104.757475"/>
     <use style="fill:#0000ff;stroke:#0000ff;" x="410.707416" xlink:href="#mccabd265fa" y="113.175024"/>
    </g>
   </g>
   <g id="line2d_62">
    <path clip-path="url(#p1eaeb771da)" d="M 61.612584 295.488 
L 65.625169 276.956772 
L 69.637753 258.957106 
L 73.650337 243.117771 
L 77.662921 226.648405 
L 81.675506 211.848744 
L 85.68809 196.005955 
L 89.700674 182.789863 
L 93.713258 167.972462 
L 97.725843 159.82767 
L 101.738427 141.426664 
L 105.751011 131.697133 
L 109.763596 122.481369 
L 113.77618 115.879484 
L 117.788764 106.704593 
L 121.801348 113.991429 
L 125.813933 98.055272 
L 129.826517 104.216046 
L 133.839101 93.425812 
L 137.851685 91.396204 
L 141.86427 90.561988 
L 145.876854 96.259672 
L 149.889438 78.425481 
L 153.902022 123.841114 
L 157.914607 121.33008 
L 161.927191 117.873768 
L 165.939775 116.471845 
L 169.95236 113.00293 
L 173.964944 111.803612 
L 177.977528 112.433405 
L 181.990112 112.009775 
L 186.002697 105.67489 
L 190.015281 101.638907 
L 194.027865 101.104488 
L 198.040449 104.928214 
L 202.053034 101.656434 
L 206.065618 95.555036 
L 210.078202 94.20486 
L 214.090787 86.475425 
L 218.103371 89.623246 
L 222.115955 84.007075 
L 226.128539 84.708369 
L 230.141124 91.078629 
L 234.153708 94.615137 
L 238.166292 95.791263 
L 242.178876 99.86719 
L 246.191461 101.697602 
L 250.204045 115.407334 
L 254.216629 109.125267 
L 258.229213 100.823814 
L 262.241798 90.340183 
L 266.254382 86.515909 
L 270.266966 84.5596 
L 274.279551 82.958668 
L 278.292135 87.581347 
L 282.304719 84.504971 
L 286.317303 109.257431 
L 290.329888 99.829832 
L 294.342472 77.949279 
L 298.355056 97.975304 
L 302.36764 77.411926 
L 306.380225 77.371429 
L 310.392809 77.423089 
L 314.405393 69.359845 
L 318.417978 72.912301 
L 322.430562 72.818918 
L 326.443146 67.771077 
L 330.45573 74.932549 
L 334.468315 63.826236 
L 338.480899 69.351571 
L 342.493483 68.396471 
L 346.506067 64.186385 
L 350.518652 68.012607 
L 354.531236 69.798215 
L 358.54382 61.324833 
L 362.556404 69.679248 
L 366.568989 63.558446 
L 370.581573 64.50067 
L 374.594157 94.937589 
L 378.606742 60.89633 
L 382.619326 56.892031 
L 386.63191 53.568 
L 390.644494 82.848997 
L 394.657079 77.989134 
L 398.669663 64.909038 
L 402.682247 67.045106 
L 406.694831 74.481997 
L 410.707416 117.311607 
" style="fill:none;stroke:#ff0000;stroke-dasharray:1.5,2.475;stroke-dashoffset:0;stroke-width:1.5;"/>
    <defs>
     <path d="M 0 1.5 
C 0.397805 1.5 0.77937 1.341951 1.06066 1.06066 
C 1.341951 0.77937 1.5 0.397805 1.5 0 
C 1.5 -0.397805 1.341951 -0.77937 1.06066 -1.06066 
C 0.77937 -1.341951 0.397805 -1.5 0 -1.5 
C -0.397805 -1.5 -0.77937 -1.341951 -1.06066 -1.06066 
C -1.341951 -0.77937 -1.5 -0.397805 -1.5 0 
C -1.5 0.397805 -1.341951 0.77937 -1.06066 1.06066 
C -0.77937 1.341951 -0.397805 1.5 0 1.5 
z
" id="mcd7c7cb672" style="stroke:#ff0000;"/>
    </defs>
    <g clip-path="url(#p1eaeb771da)">
     <use style="fill:#ff0000;stroke:#ff0000;" x="61.612584" xlink:href="#mcd7c7cb672" y="295.488"/>
     <use style="fill:#ff0000;stroke:#ff0000;" x="65.625169" xlink:href="#mcd7c7cb672" y="276.956772"/>
     <use style="fill:#ff0000;stroke:#ff0000;" x="69.637753" xlink:href="#mcd7c7cb672" y="258.957106"/>
     <use style="fill:#ff0000;stroke:#ff0000;" x="73.650337" xlink:href="#mcd7c7cb672" y="243.117771"/>
     <use style="fill:#ff0000;stroke:#ff0000;" x="77.662921" xlink:href="#mcd7c7cb672" y="226.648405"/>
     <use style="fill:#ff0000;stroke:#ff0000;" x="81.675506" xlink:href="#mcd7c7cb672" y="211.848744"/>
     <use style="fill:#ff0000;stroke:#ff0000;" x="85.68809" xlink:href="#mcd7c7cb672" y="196.005955"/>
     <use style="fill:#ff0000;stroke:#ff0000;" x="89.700674" xlink:href="#mcd7c7cb672" y="182.789863"/>
     <use style="fill:#ff0000;stroke:#ff0000;" x="93.713258" xlink:href="#mcd7c7cb672" y="167.972462"/>
     <use style="fill:#ff0000;stroke:#ff0000;" x="97.725843" xlink:href="#mcd7c7cb672" y="159.82767"/>
     <use style="fill:#ff0000;stroke:#ff0000;" x="101.738427" xlink:href="#mcd7c7cb672" y="141.426664"/>
     <use style="fill:#ff0000;stroke:#ff0000;" x="105.751011" xlink:href="#mcd7c7cb672" y="131.697133"/>
     <use style="fill:#ff0000;stroke:#ff0000;" x="109.763596" xlink:href="#mcd7c7cb672" y="122.481369"/>
     <use style="fill:#ff0000;stroke:#ff0000;" x="113.77618" xlink:href="#mcd7c7cb672" y="115.879484"/>
     <use style="fill:#ff0000;stroke:#ff0000;" x="117.788764" xlink:href="#mcd7c7cb672" y="106.704593"/>
     <use style="fill:#ff0000;stroke:#ff0000;" x="121.801348" xlink:href="#mcd7c7cb672" y="113.991429"/>
     <use style="fill:#ff0000;stroke:#ff0000;" x="125.813933" xlink:href="#mcd7c7cb672" y="98.055272"/>
     <use style="fill:#ff0000;stroke:#ff0000;" x="129.826517" xlink:href="#mcd7c7cb672" y="104.216046"/>
     <use style="fill:#ff0000;stroke:#ff0000;" x="133.839101" xlink:href="#mcd7c7cb672" y="93.425812"/>
     <use style="fill:#ff0000;stroke:#ff0000;" x="137.851685" xlink:href="#mcd7c7cb672" y="91.396204"/>
     <use style="fill:#ff0000;stroke:#ff0000;" x="141.86427" xlink:href="#mcd7c7cb672" y="90.561988"/>
     <use style="fill:#ff0000;stroke:#ff0000;" x="145.876854" xlink:href="#mcd7c7cb672" y="96.259672"/>
     <use style="fill:#ff0000;stroke:#ff0000;" x="149.889438" xlink:href="#mcd7c7cb672" y="78.425481"/>
     <use style="fill:#ff0000;stroke:#ff0000;" x="153.902022" xlink:href="#mcd7c7cb672" y="123.841114"/>
     <use style="fill:#ff0000;stroke:#ff0000;" x="157.914607" xlink:href="#mcd7c7cb672" y="121.33008"/>
     <use style="fill:#ff0000;stroke:#ff0000;" x="161.927191" xlink:href="#mcd7c7cb672" y="117.873768"/>
     <use style="fill:#ff0000;stroke:#ff0000;" x="165.939775" xlink:href="#mcd7c7cb672" y="116.471845"/>
     <use style="fill:#ff0000;stroke:#ff0000;" x="169.95236" xlink:href="#mcd7c7cb672" y="113.00293"/>
     <use style="fill:#ff0000;stroke:#ff0000;" x="173.964944" xlink:href="#mcd7c7cb672" y="111.803612"/>
     <use style="fill:#ff0000;stroke:#ff0000;" x="177.977528" xlink:href="#mcd7c7cb672" y="112.433405"/>
     <use style="fill:#ff0000;stroke:#ff0000;" x="181.990112" xlink:href="#mcd7c7cb672" y="112.009775"/>
     <use style="fill:#ff0000;stroke:#ff0000;" x="186.002697" xlink:href="#mcd7c7cb672" y="105.67489"/>
     <use style="fill:#ff0000;stroke:#ff0000;" x="190.015281" xlink:href="#mcd7c7cb672" y="101.638907"/>
     <use style="fill:#ff0000;stroke:#ff0000;" x="194.027865" xlink:href="#mcd7c7cb672" y="101.104488"/>
     <use style="fill:#ff0000;stroke:#ff0000;" x="198.040449" xlink:href="#mcd7c7cb672" y="104.928214"/>
     <use style="fill:#ff0000;stroke:#ff0000;" x="202.053034" xlink:href="#mcd7c7cb672" y="101.656434"/>
     <use style="fill:#ff0000;stroke:#ff0000;" x="206.065618" xlink:href="#mcd7c7cb672" y="95.555036"/>
     <use style="fill:#ff0000;stroke:#ff0000;" x="210.078202" xlink:href="#mcd7c7cb672" y="94.20486"/>
     <use style="fill:#ff0000;stroke:#ff0000;" x="214.090787" xlink:href="#mcd7c7cb672" y="86.475425"/>
     <use style="fill:#ff0000;stroke:#ff0000;" x="218.103371" xlink:href="#mcd7c7cb672" y="89.623246"/>
     <use style="fill:#ff0000;stroke:#ff0000;" x="222.115955" xlink:href="#mcd7c7cb672" y="84.007075"/>
     <use style="fill:#ff0000;stroke:#ff0000;" x="226.128539" xlink:href="#mcd7c7cb672" y="84.708369"/>
     <use style="fill:#ff0000;stroke:#ff0000;" x="230.141124" xlink:href="#mcd7c7cb672" y="91.078629"/>
     <use style="fill:#ff0000;stroke:#ff0000;" x="234.153708" xlink:href="#mcd7c7cb672" y="94.615137"/>
     <use style="fill:#ff0000;stroke:#ff0000;" x="238.166292" xlink:href="#mcd7c7cb672" y="95.791263"/>
     <use style="fill:#ff0000;stroke:#ff0000;" x="242.178876" xlink:href="#mcd7c7cb672" y="99.86719"/>
     <use style="fill:#ff0000;stroke:#ff0000;" x="246.191461" xlink:href="#mcd7c7cb672" y="101.697602"/>
     <use style="fill:#ff0000;stroke:#ff0000;" x="250.204045" xlink:href="#mcd7c7cb672" y="115.407334"/>
     <use style="fill:#ff0000;stroke:#ff0000;" x="254.216629" xlink:href="#mcd7c7cb672" y="109.125267"/>
     <use style="fill:#ff0000;stroke:#ff0000;" x="258.229213" xlink:href="#mcd7c7cb672" y="100.823814"/>
     <use style="fill:#ff0000;stroke:#ff0000;" x="262.241798" xlink:href="#mcd7c7cb672" y="90.340183"/>
     <use style="fill:#ff0000;stroke:#ff0000;" x="266.254382" xlink:href="#mcd7c7cb672" y="86.515909"/>
     <use style="fill:#ff0000;stroke:#ff0000;" x="270.266966" xlink:href="#mcd7c7cb672" y="84.5596"/>
     <use style="fill:#ff0000;stroke:#ff0000;" x="274.279551" xlink:href="#mcd7c7cb672" y="82.958668"/>
     <use style="fill:#ff0000;stroke:#ff0000;" x="278.292135" xlink:href="#mcd7c7cb672" y="87.581347"/>
     <use style="fill:#ff0000;stroke:#ff0000;" x="282.304719" xlink:href="#mcd7c7cb672" y="84.504971"/>
     <use style="fill:#ff0000;stroke:#ff0000;" x="286.317303" xlink:href="#mcd7c7cb672" y="109.257431"/>
     <use style="fill:#ff0000;stroke:#ff0000;" x="290.329888" xlink:href="#mcd7c7cb672" y="99.829832"/>
     <use style="fill:#ff0000;stroke:#ff0000;" x="294.342472" xlink:href="#mcd7c7cb672" y="77.949279"/>
     <use style="fill:#ff0000;stroke:#ff0000;" x="298.355056" xlink:href="#mcd7c7cb672" y="97.975304"/>
     <use style="fill:#ff0000;stroke:#ff0000;" x="302.36764" xlink:href="#mcd7c7cb672" y="77.411926"/>
     <use style="fill:#ff0000;stroke:#ff0000;" x="306.380225" xlink:href="#mcd7c7cb672" y="77.371429"/>
     <use style="fill:#ff0000;stroke:#ff0000;" x="310.392809" xlink:href="#mcd7c7cb672" y="77.423089"/>
     <use style="fill:#ff0000;stroke:#ff0000;" x="314.405393" xlink:href="#mcd7c7cb672" y="69.359845"/>
     <use style="fill:#ff0000;stroke:#ff0000;" x="318.417978" xlink:href="#mcd7c7cb672" y="72.912301"/>
     <use style="fill:#ff0000;stroke:#ff0000;" x="322.430562" xlink:href="#mcd7c7cb672" y="72.818918"/>
     <use style="fill:#ff0000;stroke:#ff0000;" x="326.443146" xlink:href="#mcd7c7cb672" y="67.771077"/>
     <use style="fill:#ff0000;stroke:#ff0000;" x="330.45573" xlink:href="#mcd7c7cb672" y="74.932549"/>
     <use style="fill:#ff0000;stroke:#ff0000;" x="334.468315" xlink:href="#mcd7c7cb672" y="63.826236"/>
     <use style="fill:#ff0000;stroke:#ff0000;" x="338.480899" xlink:href="#mcd7c7cb672" y="69.351571"/>
     <use style="fill:#ff0000;stroke:#ff0000;" x="342.493483" xlink:href="#mcd7c7cb672" y="68.396471"/>
     <use style="fill:#ff0000;stroke:#ff0000;" x="346.506067" xlink:href="#mcd7c7cb672" y="64.186385"/>
     <use style="fill:#ff0000;stroke:#ff0000;" x="350.518652" xlink:href="#mcd7c7cb672" y="68.012607"/>
     <use style="fill:#ff0000;stroke:#ff0000;" x="354.531236" xlink:href="#mcd7c7cb672" y="69.798215"/>
     <use style="fill:#ff0000;stroke:#ff0000;" x="358.54382" xlink:href="#mcd7c7cb672" y="61.324833"/>
     <use style="fill:#ff0000;stroke:#ff0000;" x="362.556404" xlink:href="#mcd7c7cb672" y="69.679248"/>
     <use style="fill:#ff0000;stroke:#ff0000;" x="366.568989" xlink:href="#mcd7c7cb672" y="63.558446"/>
     <use style="fill:#ff0000;stroke:#ff0000;" x="370.581573" xlink:href="#mcd7c7cb672" y="64.50067"/>
     <use style="fill:#ff0000;stroke:#ff0000;" x="374.594157" xlink:href="#mcd7c7cb672" y="94.937589"/>
     <use style="fill:#ff0000;stroke:#ff0000;" x="378.606742" xlink:href="#mcd7c7cb672" y="60.89633"/>
     <use style="fill:#ff0000;stroke:#ff0000;" x="382.619326" xlink:href="#mcd7c7cb672" y="56.892031"/>
     <use style="fill:#ff0000;stroke:#ff0000;" x="386.63191" xlink:href="#mcd7c7cb672" y="53.568"/>
     <use style="fill:#ff0000;stroke:#ff0000;" x="390.644494" xlink:href="#mcd7c7cb672" y="82.848997"/>
     <use style="fill:#ff0000;stroke:#ff0000;" x="394.657079" xlink:href="#mcd7c7cb672" y="77.989134"/>
     <use style="fill:#ff0000;stroke:#ff0000;" x="398.669663" xlink:href="#mcd7c7cb672" y="64.909038"/>
     <use style="fill:#ff0000;stroke:#ff0000;" x="402.682247" xlink:href="#mcd7c7cb672" y="67.045106"/>
     <use style="fill:#ff0000;stroke:#ff0000;" x="406.694831" xlink:href="#mcd7c7cb672" y="74.481997"/>
     <use style="fill:#ff0000;stroke:#ff0000;" x="410.707416" xlink:href="#mcd7c7cb672" y="117.311607"/>
    </g>
   </g>
   <g id="line2d_63">
    <path clip-path="url(#p1eaeb771da)" d="M 61.612584 295.180057 
L 65.625169 276.245145 
L 69.637753 257.865118 
L 73.650337 241.776172 
L 77.662921 226.776423 
L 81.675506 210.505222 
L 85.68809 194.526126 
L 89.700674 181.111754 
L 93.713258 166.838613 
L 97.725843 158.82057 
L 101.738427 145.499614 
L 105.751011 133.997197 
L 109.763596 127.778198 
L 113.77618 122.129403 
L 117.788764 114.605551 
L 121.801348 118.881868 
L 125.813933 106.037658 
L 129.826517 112.295189 
L 133.839101 100.757038 
L 137.851685 101.062347 
L 141.86427 101.487798 
L 145.876854 105.157754 
L 149.889438 79.124949 
L 153.902022 128.87094 
L 157.914607 127.966115 
L 161.927191 125.80002 
L 165.939775 124.162404 
L 169.95236 122.500334 
L 173.964944 120.827716 
L 177.977528 120.860807 
L 181.990112 120.840595 
L 186.002697 115.28645 
L 190.015281 112.032546 
L 194.027865 108.277174 
L 198.040449 112.297655 
L 202.053034 112.469563 
L 206.065618 104.417862 
L 210.078202 101.920731 
L 214.090787 96.092985 
L 218.103371 98.347851 
L 222.115955 95.520604 
L 226.128539 96.677436 
L 230.141124 101.18081 
L 234.153708 106.345118 
L 238.166292 107.765123 
L 242.178876 105.839082 
L 246.191461 105.019657 
L 250.204045 111.329258 
L 254.216629 107.525361 
L 258.229213 99.702538 
L 262.241798 89.606739 
L 266.254382 89.947337 
L 270.266966 87.077985 
L 274.279551 86.629055 
L 278.292135 90.263148 
L 282.304719 85.999053 
L 286.317303 97.689545 
L 290.329888 90.815188 
L 294.342472 78.507502 
L 298.355056 93.225574 
L 302.36764 83.439138 
L 306.380225 84.223102 
L 310.392809 86.707502 
L 314.405393 80.66188 
L 318.417978 84.460594 
L 322.430562 81.103402 
L 326.443146 79.4442 
L 330.45573 83.981716 
L 334.468315 77.06727 
L 338.480899 78.686277 
L 342.493483 80.075978 
L 346.506067 77.105766 
L 350.518652 80.902951 
L 354.531236 79.33752 
L 358.54382 74.836528 
L 362.556404 77.1297 
L 366.568989 77.828119 
L 370.581573 79.166196 
L 374.594157 97.749837 
L 378.606742 81.700041 
L 382.619326 74.95203 
L 386.63191 70.254867 
L 390.644494 88.62636 
L 394.657079 92.155261 
L 398.669663 87.278887 
L 402.682247 83.36368 
L 406.694831 89.619736 
L 410.707416 115.243316 
" style="fill:none;stroke:#008000;stroke-dasharray:1.5,2.475;stroke-dashoffset:0;stroke-width:1.5;"/>
    <defs>
     <path d="M 0 1.5 
C 0.397805 1.5 0.77937 1.341951 1.06066 1.06066 
C 1.341951 0.77937 1.5 0.397805 1.5 0 
C 1.5 -0.397805 1.341951 -0.77937 1.06066 -1.06066 
C 0.77937 -1.341951 0.397805 -1.5 0 -1.5 
C -0.397805 -1.5 -0.77937 -1.341951 -1.06066 -1.06066 
C -1.341951 -0.77937 -1.5 -0.397805 -1.5 0 
C -1.5 0.397805 -1.341951 0.77937 -1.06066 1.06066 
C -0.77937 1.341951 -0.397805 1.5 0 1.5 
z
" id="m73d07626dc" style="stroke:#008000;"/>
    </defs>
    <g clip-path="url(#p1eaeb771da)">
     <use style="fill:#008000;stroke:#008000;" x="61.612584" xlink:href="#m73d07626dc" y="295.180057"/>
     <use style="fill:#008000;stroke:#008000;" x="65.625169" xlink:href="#m73d07626dc" y="276.245145"/>
     <use style="fill:#008000;stroke:#008000;" x="69.637753" xlink:href="#m73d07626dc" y="257.865118"/>
     <use style="fill:#008000;stroke:#008000;" x="73.650337" xlink:href="#m73d07626dc" y="241.776172"/>
     <use style="fill:#008000;stroke:#008000;" x="77.662921" xlink:href="#m73d07626dc" y="226.776423"/>
     <use style="fill:#008000;stroke:#008000;" x="81.675506" xlink:href="#m73d07626dc" y="210.505222"/>
     <use style="fill:#008000;stroke:#008000;" x="85.68809" xlink:href="#m73d07626dc" y="194.526126"/>
     <use style="fill:#008000;stroke:#008000;" x="89.700674" xlink:href="#m73d07626dc" y="181.111754"/>
     <use style="fill:#008000;stroke:#008000;" x="93.713258" xlink:href="#m73d07626dc" y="166.838613"/>
     <use style="fill:#008000;stroke:#008000;" x="97.725843" xlink:href="#m73d07626dc" y="158.82057"/>
     <use style="fill:#008000;stroke:#008000;" x="101.738427" xlink:href="#m73d07626dc" y="145.499614"/>
     <use style="fill:#008000;stroke:#008000;" x="105.751011" xlink:href="#m73d07626dc" y="133.997197"/>
     <use style="fill:#008000;stroke:#008000;" x="109.763596" xlink:href="#m73d07626dc" y="127.778198"/>
     <use style="fill:#008000;stroke:#008000;" x="113.77618" xlink:href="#m73d07626dc" y="122.129403"/>
     <use style="fill:#008000;stroke:#008000;" x="117.788764" xlink:href="#m73d07626dc" y="114.605551"/>
     <use style="fill:#008000;stroke:#008000;" x="121.801348" xlink:href="#m73d07626dc" y="118.881868"/>
     <use style="fill:#008000;stroke:#008000;" x="125.813933" xlink:href="#m73d07626dc" y="106.037658"/>
     <use style="fill:#008000;stroke:#008000;" x="129.826517" xlink:href="#m73d07626dc" y="112.295189"/>
     <use style="fill:#008000;stroke:#008000;" x="133.839101" xlink:href="#m73d07626dc" y="100.757038"/>
     <use style="fill:#008000;stroke:#008000;" x="137.851685" xlink:href="#m73d07626dc" y="101.062347"/>
     <use style="fill:#008000;stroke:#008000;" x="141.86427" xlink:href="#m73d07626dc" y="101.487798"/>
     <use style="fill:#008000;stroke:#008000;" x="145.876854" xlink:href="#m73d07626dc" y="105.157754"/>
     <use style="fill:#008000;stroke:#008000;" x="149.889438" xlink:href="#m73d07626dc" y="79.124949"/>
     <use style="fill:#008000;stroke:#008000;" x="153.902022" xlink:href="#m73d07626dc" y="128.87094"/>
     <use style="fill:#008000;stroke:#008000;" x="157.914607" xlink:href="#m73d07626dc" y="127.966115"/>
     <use style="fill:#008000;stroke:#008000;" x="161.927191" xlink:href="#m73d07626dc" y="125.80002"/>
     <use style="fill:#008000;stroke:#008000;" x="165.939775" xlink:href="#m73d07626dc" y="124.162404"/>
     <use style="fill:#008000;stroke:#008000;" x="169.95236" xlink:href="#m73d07626dc" y="122.500334"/>
     <use style="fill:#008000;stroke:#008000;" x="173.964944" xlink:href="#m73d07626dc" y="120.827716"/>
     <use style="fill:#008000;stroke:#008000;" x="177.977528" xlink:href="#m73d07626dc" y="120.860807"/>
     <use style="fill:#008000;stroke:#008000;" x="181.990112" xlink:href="#m73d07626dc" y="120.840595"/>
     <use style="fill:#008000;stroke:#008000;" x="186.002697" xlink:href="#m73d07626dc" y="115.28645"/>
     <use style="fill:#008000;stroke:#008000;" x="190.015281" xlink:href="#m73d07626dc" y="112.032546"/>
     <use style="fill:#008000;stroke:#008000;" x="194.027865" xlink:href="#m73d07626dc" y="108.277174"/>
     <use style="fill:#008000;stroke:#008000;" x="198.040449" xlink:href="#m73d07626dc" y="112.297655"/>
     <use style="fill:#008000;stroke:#008000;" x="202.053034" xlink:href="#m73d07626dc" y="112.469563"/>
     <use style="fill:#008000;stroke:#008000;" x="206.065618" xlink:href="#m73d07626dc" y="104.417862"/>
     <use style="fill:#008000;stroke:#008000;" x="210.078202" xlink:href="#m73d07626dc" y="101.920731"/>
     <use style="fill:#008000;stroke:#008000;" x="214.090787" xlink:href="#m73d07626dc" y="96.092985"/>
     <use style="fill:#008000;stroke:#008000;" x="218.103371" xlink:href="#m73d07626dc" y="98.347851"/>
     <use style="fill:#008000;stroke:#008000;" x="222.115955" xlink:href="#m73d07626dc" y="95.520604"/>
     <use style="fill:#008000;stroke:#008000;" x="226.128539" xlink:href="#m73d07626dc" y="96.677436"/>
     <use style="fill:#008000;stroke:#008000;" x="230.141124" xlink:href="#m73d07626dc" y="101.18081"/>
     <use style="fill:#008000;stroke:#008000;" x="234.153708" xlink:href="#m73d07626dc" y="106.345118"/>
     <use style="fill:#008000;stroke:#008000;" x="238.166292" xlink:href="#m73d07626dc" y="107.765123"/>
     <use style="fill:#008000;stroke:#008000;" x="242.178876" xlink:href="#m73d07626dc" y="105.839082"/>
     <use style="fill:#008000;stroke:#008000;" x="246.191461" xlink:href="#m73d07626dc" y="105.019657"/>
     <use style="fill:#008000;stroke:#008000;" x="250.204045" xlink:href="#m73d07626dc" y="111.329258"/>
     <use style="fill:#008000;stroke:#008000;" x="254.216629" xlink:href="#m73d07626dc" y="107.525361"/>
     <use style="fill:#008000;stroke:#008000;" x="258.229213" xlink:href="#m73d07626dc" y="99.702538"/>
     <use style="fill:#008000;stroke:#008000;" x="262.241798" xlink:href="#m73d07626dc" y="89.606739"/>
     <use style="fill:#008000;stroke:#008000;" x="266.254382" xlink:href="#m73d07626dc" y="89.947337"/>
     <use style="fill:#008000;stroke:#008000;" x="270.266966" xlink:href="#m73d07626dc" y="87.077985"/>
     <use style="fill:#008000;stroke:#008000;" x="274.279551" xlink:href="#m73d07626dc" y="86.629055"/>
     <use style="fill:#008000;stroke:#008000;" x="278.292135" xlink:href="#m73d07626dc" y="90.263148"/>
     <use style="fill:#008000;stroke:#008000;" x="282.304719" xlink:href="#m73d07626dc" y="85.999053"/>
     <use style="fill:#008000;stroke:#008000;" x="286.317303" xlink:href="#m73d07626dc" y="97.689545"/>
     <use style="fill:#008000;stroke:#008000;" x="290.329888" xlink:href="#m73d07626dc" y="90.815188"/>
     <use style="fill:#008000;stroke:#008000;" x="294.342472" xlink:href="#m73d07626dc" y="78.507502"/>
     <use style="fill:#008000;stroke:#008000;" x="298.355056" xlink:href="#m73d07626dc" y="93.225574"/>
     <use style="fill:#008000;stroke:#008000;" x="302.36764" xlink:href="#m73d07626dc" y="83.439138"/>
     <use style="fill:#008000;stroke:#008000;" x="306.380225" xlink:href="#m73d07626dc" y="84.223102"/>
     <use style="fill:#008000;stroke:#008000;" x="310.392809" xlink:href="#m73d07626dc" y="86.707502"/>
     <use style="fill:#008000;stroke:#008000;" x="314.405393" xlink:href="#m73d07626dc" y="80.66188"/>
     <use style="fill:#008000;stroke:#008000;" x="318.417978" xlink:href="#m73d07626dc" y="84.460594"/>
     <use style="fill:#008000;stroke:#008000;" x="322.430562" xlink:href="#m73d07626dc" y="81.103402"/>
     <use style="fill:#008000;stroke:#008000;" x="326.443146" xlink:href="#m73d07626dc" y="79.4442"/>
     <use style="fill:#008000;stroke:#008000;" x="330.45573" xlink:href="#m73d07626dc" y="83.981716"/>
     <use style="fill:#008000;stroke:#008000;" x="334.468315" xlink:href="#m73d07626dc" y="77.06727"/>
     <use style="fill:#008000;stroke:#008000;" x="338.480899" xlink:href="#m73d07626dc" y="78.686277"/>
     <use style="fill:#008000;stroke:#008000;" x="342.493483" xlink:href="#m73d07626dc" y="80.075978"/>
     <use style="fill:#008000;stroke:#008000;" x="346.506067" xlink:href="#m73d07626dc" y="77.105766"/>
     <use style="fill:#008000;stroke:#008000;" x="350.518652" xlink:href="#m73d07626dc" y="80.902951"/>
     <use style="fill:#008000;stroke:#008000;" x="354.531236" xlink:href="#m73d07626dc" y="79.33752"/>
     <use style="fill:#008000;stroke:#008000;" x="358.54382" xlink:href="#m73d07626dc" y="74.836528"/>
     <use style="fill:#008000;stroke:#008000;" x="362.556404" xlink:href="#m73d07626dc" y="77.1297"/>
     <use style="fill:#008000;stroke:#008000;" x="366.568989" xlink:href="#m73d07626dc" y="77.828119"/>
     <use style="fill:#008000;stroke:#008000;" x="370.581573" xlink:href="#m73d07626dc" y="79.166196"/>
     <use style="fill:#008000;stroke:#008000;" x="374.594157" xlink:href="#m73d07626dc" y="97.749837"/>
     <use style="fill:#008000;stroke:#008000;" x="378.606742" xlink:href="#m73d07626dc" y="81.700041"/>
     <use style="fill:#008000;stroke:#008000;" x="382.619326" xlink:href="#m73d07626dc" y="74.95203"/>
     <use style="fill:#008000;stroke:#008000;" x="386.63191" xlink:href="#m73d07626dc" y="70.254867"/>
     <use style="fill:#008000;stroke:#008000;" x="390.644494" xlink:href="#m73d07626dc" y="88.62636"/>
     <use style="fill:#008000;stroke:#008000;" x="394.657079" xlink:href="#m73d07626dc" y="92.155261"/>
     <use style="fill:#008000;stroke:#008000;" x="398.669663" xlink:href="#m73d07626dc" y="87.278887"/>
     <use style="fill:#008000;stroke:#008000;" x="402.682247" xlink:href="#m73d07626dc" y="83.36368"/>
     <use style="fill:#008000;stroke:#008000;" x="406.694831" xlink:href="#m73d07626dc" y="89.619736"/>
     <use style="fill:#008000;stroke:#008000;" x="410.707416" xlink:href="#m73d07626dc" y="115.243316"/>
    </g>
   </g>
   <g id="patch_3">
    <path d="M 57.6 307.584 
L 57.6 41.472 
" style="fill:none;stroke:#000000;stroke-linecap:square;stroke-linejoin:miter;stroke-width:0.8;"/>
   </g>
   <g id="patch_4">
    <path d="M 414.72 307.584 
L 414.72 41.472 
" style="fill:none;stroke:#000000;stroke-linecap:square;stroke-linejoin:miter;stroke-width:0.8;"/>
   </g>
   <g id="patch_5">
    <path d="M 57.6 307.584 
L 414.72 307.584 
" style="fill:none;stroke:#000000;stroke-linecap:square;stroke-linejoin:miter;stroke-width:0.8;"/>
   </g>
   <g id="patch_6">
    <path d="M 57.6 41.472 
L 414.72 41.472 
" style="fill:none;stroke:#000000;stroke-linecap:square;stroke-linejoin:miter;stroke-width:0.8;"/>
   </g>
   <g id="text_33">
    <!-- radix sort 3 on pre_transpose42 -->
    <g transform="translate(140.265938 35.472)scale(0.12 -0.12)">
     <defs>
      <path d="M 9.421875 54.6875 
L 18.40625 54.6875 
L 18.40625 0 
L 9.421875 0 
z
M 9.421875 75.984375 
L 18.40625 75.984375 
L 18.40625 64.59375 
L 9.421875 64.59375 
z
" id="DejaVuSans-105"/>
      <path d="M 54.890625 54.6875 
L 35.109375 28.078125 
L 55.90625 0 
L 45.3125 0 
L 29.390625 21.484375 
L 13.484375 0 
L 2.875 0 
L 24.125 28.609375 
L 4.6875 54.6875 
L 15.28125 54.6875 
L 29.78125 35.203125 
L 44.28125 54.6875 
z
" id="DejaVuSans-120"/>
      <path d="M 30.609375 48.390625 
Q 23.390625 48.390625 19.1875 42.75 
Q 14.984375 37.109375 14.984375 27.296875 
Q 14.984375 17.484375 19.15625 11.84375 
Q 23.34375 6.203125 30.609375 6.203125 
Q 37.796875 6.203125 41.984375 11.859375 
Q 46.1875 17.53125 46.1875 27.296875 
Q 46.1875 37.015625 41.984375 42.703125 
Q 37.796875 48.390625 30.609375 48.390625 
z
M 30.609375 56 
Q 42.328125 56 49.015625 48.375 
Q 55.71875 40.765625 55.71875 27.296875 
Q 55.71875 13.875 49.015625 6.21875 
Q 42.328125 -1.421875 30.609375 -1.421875 
Q 18.84375 -1.421875 12.171875 6.21875 
Q 5.515625 13.875 5.515625 27.296875 
Q 5.515625 40.765625 12.171875 48.375 
Q 18.84375 56 30.609375 56 
z
" id="DejaVuSans-111"/>
      <path d="M 54.890625 33.015625 
L 54.890625 0 
L 45.90625 0 
L 45.90625 32.71875 
Q 45.90625 40.484375 42.875 44.328125 
Q 39.84375 48.1875 33.796875 48.1875 
Q 26.515625 48.1875 22.3125 43.546875 
Q 18.109375 38.921875 18.109375 30.90625 
L 18.109375 0 
L 9.078125 0 
L 9.078125 54.6875 
L 18.109375 54.6875 
L 18.109375 46.1875 
Q 21.34375 51.125 25.703125 53.5625 
Q 30.078125 56 35.796875 56 
Q 45.21875 56 50.046875 50.171875 
Q 54.890625 44.34375 54.890625 33.015625 
z
" id="DejaVuSans-110"/>
      <path d="M 50.984375 -16.609375 
L 50.984375 -23.578125 
L -0.984375 -23.578125 
L -0.984375 -16.609375 
z
" id="DejaVuSans-95"/>
     </defs>
     <use xlink:href="#DejaVuSans-114"/>
     <use x="41.113281" xlink:href="#DejaVuSans-97"/>
     <use x="102.392578" xlink:href="#DejaVuSans-100"/>
     <use x="165.869141" xlink:href="#DejaVuSans-105"/>
     <use x="193.652344" xlink:href="#DejaVuSans-120"/>
     <use x="252.832031" xlink:href="#DejaVuSans-32"/>
     <use x="284.619141" xlink:href="#DejaVuSans-115"/>
     <use x="336.71875" xlink:href="#DejaVuSans-111"/>
     <use x="397.900391" xlink:href="#DejaVuSans-114"/>
     <use x="439.013672" xlink:href="#DejaVuSans-116"/>
     <use x="478.222656" xlink:href="#DejaVuSans-32"/>
     <use x="510.009766" xlink:href="#DejaVuSans-51"/>
     <use x="573.632812" xlink:href="#DejaVuSans-32"/>
     <use x="605.419922" xlink:href="#DejaVuSans-111"/>
     <use x="666.601562" xlink:href="#DejaVuSans-110"/>
     <use x="729.980469" xlink:href="#DejaVuSans-32"/>
     <use x="761.767578" xlink:href="#DejaVuSans-112"/>
     <use x="825.244141" xlink:href="#DejaVuSans-114"/>
     <use x="864.107422" xlink:href="#DejaVuSans-101"/>
     <use x="925.630859" xlink:href="#DejaVuSans-95"/>
     <use x="975.630859" xlink:href="#DejaVuSans-116"/>
     <use x="1014.839844" xlink:href="#DejaVuSans-114"/>
     <use x="1055.953125" xlink:href="#DejaVuSans-97"/>
     <use x="1117.232422" xlink:href="#DejaVuSans-110"/>
     <use x="1180.611328" xlink:href="#DejaVuSans-115"/>
     <use x="1232.710938" xlink:href="#DejaVuSans-112"/>
     <use x="1296.1875" xlink:href="#DejaVuSans-111"/>
     <use x="1357.369141" xlink:href="#DejaVuSans-115"/>
     <use x="1409.46875" xlink:href="#DejaVuSans-101"/>
     <use x="1470.992188" xlink:href="#DejaVuSans-52"/>
     <use x="1534.615234" xlink:href="#DejaVuSans-50"/>
    </g>
   </g>
   <g id="legend_1">
    <g id="patch_7">
     <path d="M 313.152813 302.584 
L 407.72 302.584 
Q 409.72 302.584 409.72 300.584 
L 409.72 257.2715 
Q 409.72 255.2715 407.72 255.2715 
L 313.152813 255.2715 
Q 311.152813 255.2715 311.152813 257.2715 
L 311.152813 300.584 
Q 311.152813 302.584 313.152813 302.584 
z
" style="fill:#ffffff;opacity:0.8;stroke:#cccccc;stroke-linejoin:miter;"/>
    </g>
    <g id="line2d_64">
     <path d="M 315.152813 263.369937 
L 335.152813 263.369937 
" style="fill:none;stroke:#0000ff;stroke-dasharray:1.5,2.475;stroke-dashoffset:0;stroke-width:1.5;"/>
    </g>
    <g id="line2d_65">
     <g>
      <use style="fill:#0000ff;stroke:#0000ff;" x="325.152813" xlink:href="#mccabd265fa" y="263.369937"/>
     </g>
    </g>
    <g id="text_34">
     <!-- transpose -->
     <g transform="translate(343.152813 266.869937)scale(0.1 -0.1)">
      <use xlink:href="#DejaVuSans-116"/>
      <use x="39.208984" xlink:href="#DejaVuSans-114"/>
      <use x="80.322266" xlink:href="#DejaVuSans-97"/>
      <use x="141.601562" xlink:href="#DejaVuSans-110"/>
      <use x="204.980469" xlink:href="#DejaVuSans-115"/>
      <use x="257.080078" xlink:href="#DejaVuSans-112"/>
      <use x="320.556641" xlink:href="#DejaVuSans-111"/>
      <use x="381.738281" xlink:href="#DejaVuSans-115"/>
      <use x="433.837891" xlink:href="#DejaVuSans-101"/>
     </g>
    </g>
    <g id="line2d_66">
     <path d="M 315.152813 278.048063 
L 335.152813 278.048063 
" style="fill:none;stroke:#ff0000;stroke-dasharray:1.5,2.475;stroke-dashoffset:0;stroke-width:1.5;"/>
    </g>
    <g id="line2d_67">
     <g>
      <use style="fill:#ff0000;stroke:#ff0000;" x="325.152813" xlink:href="#mcd7c7cb672" y="278.048063"/>
     </g>
    </g>
    <g id="text_35">
     <!-- transpose_tr -->
     <g transform="translate(343.152813 281.548063)scale(0.1 -0.1)">
      <use xlink:href="#DejaVuSans-116"/>
      <use x="39.208984" xlink:href="#DejaVuSans-114"/>
      <use x="80.322266" xlink:href="#DejaVuSans-97"/>
      <use x="141.601562" xlink:href="#DejaVuSans-110"/>
      <use x="204.980469" xlink:href="#DejaVuSans-115"/>
      <use x="257.080078" xlink:href="#DejaVuSans-112"/>
      <use x="320.556641" xlink:href="#DejaVuSans-111"/>
      <use x="381.738281" xlink:href="#DejaVuSans-115"/>
      <use x="433.837891" xlink:href="#DejaVuSans-101"/>
      <use x="495.361328" xlink:href="#DejaVuSans-95"/>
      <use x="545.361328" xlink:href="#DejaVuSans-116"/>
      <use x="584.570312" xlink:href="#DejaVuSans-114"/>
     </g>
    </g>
    <g id="line2d_68">
     <path d="M 315.152813 293.004312 
L 335.152813 293.004312 
" style="fill:none;stroke:#008000;stroke-dasharray:1.5,2.475;stroke-dashoffset:0;stroke-width:1.5;"/>
    </g>
    <g id="line2d_69">
     <g>
      <use style="fill:#008000;stroke:#008000;" x="325.152813" xlink:href="#m73d07626dc" y="293.004312"/>
     </g>
    </g>
    <g id="text_36">
     <!-- mean -->
     <g transform="translate(343.152813 296.504312)scale(0.1 -0.1)">
      <defs>
       <path d="M 52 44.1875 
Q 55.375 50.25 60.0625 53.125 
Q 64.75 56 71.09375 56 
Q 79.640625 56 84.28125 50.015625 
Q 88.921875 44.046875 88.921875 33.015625 
L 88.921875 0 
L 79.890625 0 
L 79.890625 32.71875 
Q 79.890625 40.578125 77.09375 44.375 
Q 74.3125 48.1875 68.609375 48.1875 
Q 61.625 48.1875 57.5625 43.546875 
Q 53.515625 38.921875 53.515625 30.90625 
L 53.515625 0 
L 44.484375 0 
L 44.484375 32.71875 
Q 44.484375 40.625 41.703125 44.40625 
Q 38.921875 48.1875 33.109375 48.1875 
Q 26.21875 48.1875 22.15625 43.53125 
Q 18.109375 38.875 18.109375 30.90625 
L 18.109375 0 
L 9.078125 0 
L 9.078125 54.6875 
L 18.109375 54.6875 
L 18.109375 46.1875 
Q 21.1875 51.21875 25.484375 53.609375 
Q 29.78125 56 35.6875 56 
Q 41.65625 56 45.828125 52.96875 
Q 50 49.953125 52 44.1875 
z
" id="DejaVuSans-109"/>
      </defs>
      <use xlink:href="#DejaVuSans-109"/>
      <use x="97.412109" xlink:href="#DejaVuSans-101"/>
      <use x="158.935547" xlink:href="#DejaVuSans-97"/>
      <use x="220.214844" xlink:href="#DejaVuSans-110"/>
     </g>
    </g>
   </g>
  </g>
 </g>
 <defs>
  <clipPath id="p1eaeb771da">
   <rect height="266.112" width="357.12" x="57.6" y="41.472"/>
  </clipPath>
 </defs>
</svg>
