<?xml version="1.0" encoding="utf-8" standalone="no"?>
<!DOCTYPE svg PUBLIC "-//W3C//DTD SVG 1.1//EN"
  "http://www.w3.org/Graphics/SVG/1.1/DTD/svg11.dtd">
<!-- Created with matplotlib (https://matplotlib.org/) -->
<svg height="345.6pt" version="1.1" viewBox="0 0 460.8 345.6" width="460.8pt" xmlns="http://www.w3.org/2000/svg" xmlns:xlink="http://www.w3.org/1999/xlink">
 <metadata>
  <rdf:RDF xmlns:cc="http://creativecommons.org/ns#" xmlns:dc="http://purl.org/dc/elements/1.1/" xmlns:rdf="http://www.w3.org/1999/02/22-rdf-syntax-ns#">
   <cc:Work>
    <dc:type rdf:resource="http://purl.org/dc/dcmitype/StillImage"/>
    <dc:date>2020-08-27T10:04:19.846328</dc:date>
    <dc:format>image/svg+xml</dc:format>
    <dc:creator>
     <cc:Agent>
      <dc:title>Matplotlib v3.3.1, https://matplotlib.org/</dc:title>
     </cc:Agent>
    </dc:creator>
   </cc:Work>
  </rdf:RDF>
 </metadata>
 <defs>
  <style type="text/css">*{stroke-linecap:butt;stroke-linejoin:round;}</style>
 </defs>
 <g id="figure_1">
  <g id="patch_1">
   <path d="M 0 345.6 
L 460.8 345.6 
L 460.8 0 
L 0 0 
z
" style="fill:#ffffff;"/>
  </g>
  <g id="axes_1">
   <g id="patch_2">
    <path d="M 57.6 307.584 
L 414.72 307.584 
L 414.72 41.472 
L 57.6 41.472 
z
" style="fill:#ffffff;"/>
   </g>
   <g id="matplotlib.axis_1">
    <g id="xtick_1">
     <g id="line2d_1">
      <path clip-path="url(#p926e1cc461)" d="M 61.612584 307.584 
L 61.612584 41.472 
" style="fill:none;stroke:#b0b0b0;stroke-dasharray:5.12,1.28,0.8,1.28;stroke-dashoffset:0;stroke-width:0.8;"/>
     </g>
     <g id="line2d_2">
      <defs>
       <path d="M 0 0 
L 0 3.5 
" id="m6fd42b3a4a" style="stroke:#000000;stroke-width:0.8;"/>
      </defs>
      <g>
       <use style="stroke:#000000;stroke-width:0.8;" x="61.612584" xlink:href="#m6fd42b3a4a" y="307.584"/>
      </g>
     </g>
     <g id="text_1">
      <!-- 1 -->
      <g transform="translate(58.431334 322.182437)scale(0.1 -0.1)">
       <defs>
        <path d="M 12.40625 8.296875 
L 28.515625 8.296875 
L 28.515625 63.921875 
L 10.984375 60.40625 
L 10.984375 69.390625 
L 28.421875 72.90625 
L 38.28125 72.90625 
L 38.28125 8.296875 
L 54.390625 8.296875 
L 54.390625 0 
L 12.40625 0 
z
" id="DejaVuSans-49"/>
       </defs>
       <use xlink:href="#DejaVuSans-49"/>
      </g>
     </g>
    </g>
    <g id="xtick_2">
     <g id="line2d_3">
      <path clip-path="url(#p926e1cc461)" d="M 73.650337 307.584 
L 73.650337 41.472 
" style="fill:none;stroke:#b0b0b0;stroke-dasharray:5.12,1.28,0.8,1.28;stroke-dashoffset:0;stroke-width:0.8;"/>
     </g>
     <g id="line2d_4">
      <g>
       <use style="stroke:#000000;stroke-width:0.8;" x="73.650337" xlink:href="#m6fd42b3a4a" y="307.584"/>
      </g>
     </g>
     <g id="text_2">
      <!-- 4 -->
      <g transform="translate(70.469087 322.182437)scale(0.1 -0.1)">
       <defs>
        <path d="M 37.796875 64.3125 
L 12.890625 25.390625 
L 37.796875 25.390625 
z
M 35.203125 72.90625 
L 47.609375 72.90625 
L 47.609375 25.390625 
L 58.015625 25.390625 
L 58.015625 17.1875 
L 47.609375 17.1875 
L 47.609375 0 
L 37.796875 0 
L 37.796875 17.1875 
L 4.890625 17.1875 
L 4.890625 26.703125 
z
" id="DejaVuSans-52"/>
       </defs>
       <use xlink:href="#DejaVuSans-52"/>
      </g>
     </g>
    </g>
    <g id="xtick_3">
     <g id="line2d_5">
      <path clip-path="url(#p926e1cc461)" d="M 89.700674 307.584 
L 89.700674 41.472 
" style="fill:none;stroke:#b0b0b0;stroke-dasharray:5.12,1.28,0.8,1.28;stroke-dashoffset:0;stroke-width:0.8;"/>
     </g>
     <g id="line2d_6">
      <g>
       <use style="stroke:#000000;stroke-width:0.8;" x="89.700674" xlink:href="#m6fd42b3a4a" y="307.584"/>
      </g>
     </g>
     <g id="text_3">
      <!-- 8 -->
      <g transform="translate(86.519424 322.182437)scale(0.1 -0.1)">
       <defs>
        <path d="M 31.78125 34.625 
Q 24.75 34.625 20.71875 30.859375 
Q 16.703125 27.09375 16.703125 20.515625 
Q 16.703125 13.921875 20.71875 10.15625 
Q 24.75 6.390625 31.78125 6.390625 
Q 38.8125 6.390625 42.859375 10.171875 
Q 46.921875 13.96875 46.921875 20.515625 
Q 46.921875 27.09375 42.890625 30.859375 
Q 38.875 34.625 31.78125 34.625 
z
M 21.921875 38.8125 
Q 15.578125 40.375 12.03125 44.71875 
Q 8.5 49.078125 8.5 55.328125 
Q 8.5 64.0625 14.71875 69.140625 
Q 20.953125 74.21875 31.78125 74.21875 
Q 42.671875 74.21875 48.875 69.140625 
Q 55.078125 64.0625 55.078125 55.328125 
Q 55.078125 49.078125 51.53125 44.71875 
Q 48 40.375 41.703125 38.8125 
Q 48.828125 37.15625 52.796875 32.3125 
Q 56.78125 27.484375 56.78125 20.515625 
Q 56.78125 9.90625 50.3125 4.234375 
Q 43.84375 -1.421875 31.78125 -1.421875 
Q 19.734375 -1.421875 13.25 4.234375 
Q 6.78125 9.90625 6.78125 20.515625 
Q 6.78125 27.484375 10.78125 32.3125 
Q 14.796875 37.15625 21.921875 38.8125 
z
M 18.3125 54.390625 
Q 18.3125 48.734375 21.84375 45.5625 
Q 25.390625 42.390625 31.78125 42.390625 
Q 38.140625 42.390625 41.71875 45.5625 
Q 45.3125 48.734375 45.3125 54.390625 
Q 45.3125 60.0625 41.71875 63.234375 
Q 38.140625 66.40625 31.78125 66.40625 
Q 25.390625 66.40625 21.84375 63.234375 
Q 18.3125 60.0625 18.3125 54.390625 
z
" id="DejaVuSans-56"/>
       </defs>
       <use xlink:href="#DejaVuSans-56"/>
      </g>
     </g>
    </g>
    <g id="xtick_4">
     <g id="line2d_7">
      <path clip-path="url(#p926e1cc461)" d="M 105.751011 307.584 
L 105.751011 41.472 
" style="fill:none;stroke:#b0b0b0;stroke-dasharray:5.12,1.28,0.8,1.28;stroke-dashoffset:0;stroke-width:0.8;"/>
     </g>
     <g id="line2d_8">
      <g>
       <use style="stroke:#000000;stroke-width:0.8;" x="105.751011" xlink:href="#m6fd42b3a4a" y="307.584"/>
      </g>
     </g>
     <g id="text_4">
      <!-- 12 -->
      <g transform="translate(99.388511 322.182437)scale(0.1 -0.1)">
       <defs>
        <path d="M 19.1875 8.296875 
L 53.609375 8.296875 
L 53.609375 0 
L 7.328125 0 
L 7.328125 8.296875 
Q 12.9375 14.109375 22.625 23.890625 
Q 32.328125 33.6875 34.8125 36.53125 
Q 39.546875 41.84375 41.421875 45.53125 
Q 43.3125 49.21875 43.3125 52.78125 
Q 43.3125 58.59375 39.234375 62.25 
Q 35.15625 65.921875 28.609375 65.921875 
Q 23.96875 65.921875 18.8125 64.3125 
Q 13.671875 62.703125 7.8125 59.421875 
L 7.8125 69.390625 
Q 13.765625 71.78125 18.9375 73 
Q 24.125 74.21875 28.421875 74.21875 
Q 39.75 74.21875 46.484375 68.546875 
Q 53.21875 62.890625 53.21875 53.421875 
Q 53.21875 48.921875 51.53125 44.890625 
Q 49.859375 40.875 45.40625 35.40625 
Q 44.1875 33.984375 37.640625 27.21875 
Q 31.109375 20.453125 19.1875 8.296875 
z
" id="DejaVuSans-50"/>
       </defs>
       <use xlink:href="#DejaVuSans-49"/>
       <use x="63.623047" xlink:href="#DejaVuSans-50"/>
      </g>
     </g>
    </g>
    <g id="xtick_5">
     <g id="line2d_9">
      <path clip-path="url(#p926e1cc461)" d="M 121.801348 307.584 
L 121.801348 41.472 
" style="fill:none;stroke:#b0b0b0;stroke-dasharray:5.12,1.28,0.8,1.28;stroke-dashoffset:0;stroke-width:0.8;"/>
     </g>
     <g id="line2d_10">
      <g>
       <use style="stroke:#000000;stroke-width:0.8;" x="121.801348" xlink:href="#m6fd42b3a4a" y="307.584"/>
      </g>
     </g>
     <g id="text_5">
      <!-- 16 -->
      <g transform="translate(115.438848 322.182437)scale(0.1 -0.1)">
       <defs>
        <path d="M 33.015625 40.375 
Q 26.375 40.375 22.484375 35.828125 
Q 18.609375 31.296875 18.609375 23.390625 
Q 18.609375 15.53125 22.484375 10.953125 
Q 26.375 6.390625 33.015625 6.390625 
Q 39.65625 6.390625 43.53125 10.953125 
Q 47.40625 15.53125 47.40625 23.390625 
Q 47.40625 31.296875 43.53125 35.828125 
Q 39.65625 40.375 33.015625 40.375 
z
M 52.59375 71.296875 
L 52.59375 62.3125 
Q 48.875 64.0625 45.09375 64.984375 
Q 41.3125 65.921875 37.59375 65.921875 
Q 27.828125 65.921875 22.671875 59.328125 
Q 17.53125 52.734375 16.796875 39.40625 
Q 19.671875 43.65625 24.015625 45.921875 
Q 28.375 48.1875 33.59375 48.1875 
Q 44.578125 48.1875 50.953125 41.515625 
Q 57.328125 34.859375 57.328125 23.390625 
Q 57.328125 12.15625 50.6875 5.359375 
Q 44.046875 -1.421875 33.015625 -1.421875 
Q 20.359375 -1.421875 13.671875 8.265625 
Q 6.984375 17.96875 6.984375 36.375 
Q 6.984375 53.65625 15.1875 63.9375 
Q 23.390625 74.21875 37.203125 74.21875 
Q 40.921875 74.21875 44.703125 73.484375 
Q 48.484375 72.75 52.59375 71.296875 
z
" id="DejaVuSans-54"/>
       </defs>
       <use xlink:href="#DejaVuSans-49"/>
       <use x="63.623047" xlink:href="#DejaVuSans-54"/>
      </g>
     </g>
    </g>
    <g id="xtick_6">
     <g id="line2d_11">
      <path clip-path="url(#p926e1cc461)" d="M 137.851685 307.584 
L 137.851685 41.472 
" style="fill:none;stroke:#b0b0b0;stroke-dasharray:5.12,1.28,0.8,1.28;stroke-dashoffset:0;stroke-width:0.8;"/>
     </g>
     <g id="line2d_12">
      <g>
       <use style="stroke:#000000;stroke-width:0.8;" x="137.851685" xlink:href="#m6fd42b3a4a" y="307.584"/>
      </g>
     </g>
     <g id="text_6">
      <!-- 20 -->
      <g transform="translate(131.489185 322.182437)scale(0.1 -0.1)">
       <defs>
        <path d="M 31.78125 66.40625 
Q 24.171875 66.40625 20.328125 58.90625 
Q 16.5 51.421875 16.5 36.375 
Q 16.5 21.390625 20.328125 13.890625 
Q 24.171875 6.390625 31.78125 6.390625 
Q 39.453125 6.390625 43.28125 13.890625 
Q 47.125 21.390625 47.125 36.375 
Q 47.125 51.421875 43.28125 58.90625 
Q 39.453125 66.40625 31.78125 66.40625 
z
M 31.78125 74.21875 
Q 44.046875 74.21875 50.515625 64.515625 
Q 56.984375 54.828125 56.984375 36.375 
Q 56.984375 17.96875 50.515625 8.265625 
Q 44.046875 -1.421875 31.78125 -1.421875 
Q 19.53125 -1.421875 13.0625 8.265625 
Q 6.59375 17.96875 6.59375 36.375 
Q 6.59375 54.828125 13.0625 64.515625 
Q 19.53125 74.21875 31.78125 74.21875 
z
" id="DejaVuSans-48"/>
       </defs>
       <use xlink:href="#DejaVuSans-50"/>
       <use x="63.623047" xlink:href="#DejaVuSans-48"/>
      </g>
     </g>
    </g>
    <g id="xtick_7">
     <g id="line2d_13">
      <path clip-path="url(#p926e1cc461)" d="M 153.902022 307.584 
L 153.902022 41.472 
" style="fill:none;stroke:#b0b0b0;stroke-dasharray:5.12,1.28,0.8,1.28;stroke-dashoffset:0;stroke-width:0.8;"/>
     </g>
     <g id="line2d_14">
      <g>
       <use style="stroke:#000000;stroke-width:0.8;" x="153.902022" xlink:href="#m6fd42b3a4a" y="307.584"/>
      </g>
     </g>
     <g id="text_7">
      <!-- 24 -->
      <g transform="translate(147.539522 322.182437)scale(0.1 -0.1)">
       <use xlink:href="#DejaVuSans-50"/>
       <use x="63.623047" xlink:href="#DejaVuSans-52"/>
      </g>
     </g>
    </g>
    <g id="xtick_8">
     <g id="line2d_15">
      <path clip-path="url(#p926e1cc461)" d="M 169.95236 307.584 
L 169.95236 41.472 
" style="fill:none;stroke:#b0b0b0;stroke-dasharray:5.12,1.28,0.8,1.28;stroke-dashoffset:0;stroke-width:0.8;"/>
     </g>
     <g id="line2d_16">
      <g>
       <use style="stroke:#000000;stroke-width:0.8;" x="169.95236" xlink:href="#m6fd42b3a4a" y="307.584"/>
      </g>
     </g>
     <g id="text_8">
      <!-- 28 -->
      <g transform="translate(163.58986 322.182437)scale(0.1 -0.1)">
       <use xlink:href="#DejaVuSans-50"/>
       <use x="63.623047" xlink:href="#DejaVuSans-56"/>
      </g>
     </g>
    </g>
    <g id="xtick_9">
     <g id="line2d_17">
      <path clip-path="url(#p926e1cc461)" d="M 186.002697 307.584 
L 186.002697 41.472 
" style="fill:none;stroke:#b0b0b0;stroke-dasharray:5.12,1.28,0.8,1.28;stroke-dashoffset:0;stroke-width:0.8;"/>
     </g>
     <g id="line2d_18">
      <g>
       <use style="stroke:#000000;stroke-width:0.8;" x="186.002697" xlink:href="#m6fd42b3a4a" y="307.584"/>
      </g>
     </g>
     <g id="text_9">
      <!-- 32 -->
      <g transform="translate(179.640197 322.182437)scale(0.1 -0.1)">
       <defs>
        <path d="M 40.578125 39.3125 
Q 47.65625 37.796875 51.625 33 
Q 55.609375 28.21875 55.609375 21.1875 
Q 55.609375 10.40625 48.1875 4.484375 
Q 40.765625 -1.421875 27.09375 -1.421875 
Q 22.515625 -1.421875 17.65625 -0.515625 
Q 12.796875 0.390625 7.625 2.203125 
L 7.625 11.71875 
Q 11.71875 9.328125 16.59375 8.109375 
Q 21.484375 6.890625 26.8125 6.890625 
Q 36.078125 6.890625 40.9375 10.546875 
Q 45.796875 14.203125 45.796875 21.1875 
Q 45.796875 27.640625 41.28125 31.265625 
Q 36.765625 34.90625 28.71875 34.90625 
L 20.21875 34.90625 
L 20.21875 43.015625 
L 29.109375 43.015625 
Q 36.375 43.015625 40.234375 45.921875 
Q 44.09375 48.828125 44.09375 54.296875 
Q 44.09375 59.90625 40.109375 62.90625 
Q 36.140625 65.921875 28.71875 65.921875 
Q 24.65625 65.921875 20.015625 65.03125 
Q 15.375 64.15625 9.8125 62.3125 
L 9.8125 71.09375 
Q 15.4375 72.65625 20.34375 73.4375 
Q 25.25 74.21875 29.59375 74.21875 
Q 40.828125 74.21875 47.359375 69.109375 
Q 53.90625 64.015625 53.90625 55.328125 
Q 53.90625 49.265625 50.4375 45.09375 
Q 46.96875 40.921875 40.578125 39.3125 
z
" id="DejaVuSans-51"/>
       </defs>
       <use xlink:href="#DejaVuSans-51"/>
       <use x="63.623047" xlink:href="#DejaVuSans-50"/>
      </g>
     </g>
    </g>
    <g id="xtick_10">
     <g id="line2d_19">
      <path clip-path="url(#p926e1cc461)" d="M 202.053034 307.584 
L 202.053034 41.472 
" style="fill:none;stroke:#b0b0b0;stroke-dasharray:5.12,1.28,0.8,1.28;stroke-dashoffset:0;stroke-width:0.8;"/>
     </g>
     <g id="line2d_20">
      <g>
       <use style="stroke:#000000;stroke-width:0.8;" x="202.053034" xlink:href="#m6fd42b3a4a" y="307.584"/>
      </g>
     </g>
     <g id="text_10">
      <!-- 36 -->
      <g transform="translate(195.690534 322.182437)scale(0.1 -0.1)">
       <use xlink:href="#DejaVuSans-51"/>
       <use x="63.623047" xlink:href="#DejaVuSans-54"/>
      </g>
     </g>
    </g>
    <g id="xtick_11">
     <g id="line2d_21">
      <path clip-path="url(#p926e1cc461)" d="M 218.103371 307.584 
L 218.103371 41.472 
" style="fill:none;stroke:#b0b0b0;stroke-dasharray:5.12,1.28,0.8,1.28;stroke-dashoffset:0;stroke-width:0.8;"/>
     </g>
     <g id="line2d_22">
      <g>
       <use style="stroke:#000000;stroke-width:0.8;" x="218.103371" xlink:href="#m6fd42b3a4a" y="307.584"/>
      </g>
     </g>
     <g id="text_11">
      <!-- 40 -->
      <g transform="translate(211.740871 322.182437)scale(0.1 -0.1)">
       <use xlink:href="#DejaVuSans-52"/>
       <use x="63.623047" xlink:href="#DejaVuSans-48"/>
      </g>
     </g>
    </g>
    <g id="xtick_12">
     <g id="line2d_23">
      <path clip-path="url(#p926e1cc461)" d="M 234.153708 307.584 
L 234.153708 41.472 
" style="fill:none;stroke:#b0b0b0;stroke-dasharray:5.12,1.28,0.8,1.28;stroke-dashoffset:0;stroke-width:0.8;"/>
     </g>
     <g id="line2d_24">
      <g>
       <use style="stroke:#000000;stroke-width:0.8;" x="234.153708" xlink:href="#m6fd42b3a4a" y="307.584"/>
      </g>
     </g>
     <g id="text_12">
      <!-- 44 -->
      <g transform="translate(227.791208 322.182437)scale(0.1 -0.1)">
       <use xlink:href="#DejaVuSans-52"/>
       <use x="63.623047" xlink:href="#DejaVuSans-52"/>
      </g>
     </g>
    </g>
    <g id="xtick_13">
     <g id="line2d_25">
      <path clip-path="url(#p926e1cc461)" d="M 250.204045 307.584 
L 250.204045 41.472 
" style="fill:none;stroke:#b0b0b0;stroke-dasharray:5.12,1.28,0.8,1.28;stroke-dashoffset:0;stroke-width:0.8;"/>
     </g>
     <g id="line2d_26">
      <g>
       <use style="stroke:#000000;stroke-width:0.8;" x="250.204045" xlink:href="#m6fd42b3a4a" y="307.584"/>
      </g>
     </g>
     <g id="text_13">
      <!-- 48 -->
      <g transform="translate(243.841545 322.182437)scale(0.1 -0.1)">
       <use xlink:href="#DejaVuSans-52"/>
       <use x="63.623047" xlink:href="#DejaVuSans-56"/>
      </g>
     </g>
    </g>
    <g id="xtick_14">
     <g id="line2d_27">
      <path clip-path="url(#p926e1cc461)" d="M 266.254382 307.584 
L 266.254382 41.472 
" style="fill:none;stroke:#b0b0b0;stroke-dasharray:5.12,1.28,0.8,1.28;stroke-dashoffset:0;stroke-width:0.8;"/>
     </g>
     <g id="line2d_28">
      <g>
       <use style="stroke:#000000;stroke-width:0.8;" x="266.254382" xlink:href="#m6fd42b3a4a" y="307.584"/>
      </g>
     </g>
     <g id="text_14">
      <!-- 52 -->
      <g transform="translate(259.891882 322.182437)scale(0.1 -0.1)">
       <defs>
        <path d="M 10.796875 72.90625 
L 49.515625 72.90625 
L 49.515625 64.59375 
L 19.828125 64.59375 
L 19.828125 46.734375 
Q 21.96875 47.46875 24.109375 47.828125 
Q 26.265625 48.1875 28.421875 48.1875 
Q 40.625 48.1875 47.75 41.5 
Q 54.890625 34.8125 54.890625 23.390625 
Q 54.890625 11.625 47.5625 5.09375 
Q 40.234375 -1.421875 26.90625 -1.421875 
Q 22.3125 -1.421875 17.546875 -0.640625 
Q 12.796875 0.140625 7.71875 1.703125 
L 7.71875 11.625 
Q 12.109375 9.234375 16.796875 8.0625 
Q 21.484375 6.890625 26.703125 6.890625 
Q 35.15625 6.890625 40.078125 11.328125 
Q 45.015625 15.765625 45.015625 23.390625 
Q 45.015625 31 40.078125 35.4375 
Q 35.15625 39.890625 26.703125 39.890625 
Q 22.75 39.890625 18.8125 39.015625 
Q 14.890625 38.140625 10.796875 36.28125 
z
" id="DejaVuSans-53"/>
       </defs>
       <use xlink:href="#DejaVuSans-53"/>
       <use x="63.623047" xlink:href="#DejaVuSans-50"/>
      </g>
     </g>
    </g>
    <g id="xtick_15">
     <g id="line2d_29">
      <path clip-path="url(#p926e1cc461)" d="M 282.304719 307.584 
L 282.304719 41.472 
" style="fill:none;stroke:#b0b0b0;stroke-dasharray:5.12,1.28,0.8,1.28;stroke-dashoffset:0;stroke-width:0.8;"/>
     </g>
     <g id="line2d_30">
      <g>
       <use style="stroke:#000000;stroke-width:0.8;" x="282.304719" xlink:href="#m6fd42b3a4a" y="307.584"/>
      </g>
     </g>
     <g id="text_15">
      <!-- 56 -->
      <g transform="translate(275.942219 322.182437)scale(0.1 -0.1)">
       <use xlink:href="#DejaVuSans-53"/>
       <use x="63.623047" xlink:href="#DejaVuSans-54"/>
      </g>
     </g>
    </g>
    <g id="xtick_16">
     <g id="line2d_31">
      <path clip-path="url(#p926e1cc461)" d="M 298.355056 307.584 
L 298.355056 41.472 
" style="fill:none;stroke:#b0b0b0;stroke-dasharray:5.12,1.28,0.8,1.28;stroke-dashoffset:0;stroke-width:0.8;"/>
     </g>
     <g id="line2d_32">
      <g>
       <use style="stroke:#000000;stroke-width:0.8;" x="298.355056" xlink:href="#m6fd42b3a4a" y="307.584"/>
      </g>
     </g>
     <g id="text_16">
      <!-- 60 -->
      <g transform="translate(291.992556 322.182437)scale(0.1 -0.1)">
       <use xlink:href="#DejaVuSans-54"/>
       <use x="63.623047" xlink:href="#DejaVuSans-48"/>
      </g>
     </g>
    </g>
    <g id="xtick_17">
     <g id="line2d_33">
      <path clip-path="url(#p926e1cc461)" d="M 314.405393 307.584 
L 314.405393 41.472 
" style="fill:none;stroke:#b0b0b0;stroke-dasharray:5.12,1.28,0.8,1.28;stroke-dashoffset:0;stroke-width:0.8;"/>
     </g>
     <g id="line2d_34">
      <g>
       <use style="stroke:#000000;stroke-width:0.8;" x="314.405393" xlink:href="#m6fd42b3a4a" y="307.584"/>
      </g>
     </g>
     <g id="text_17">
      <!-- 64 -->
      <g transform="translate(308.042893 322.182437)scale(0.1 -0.1)">
       <use xlink:href="#DejaVuSans-54"/>
       <use x="63.623047" xlink:href="#DejaVuSans-52"/>
      </g>
     </g>
    </g>
    <g id="xtick_18">
     <g id="line2d_35">
      <path clip-path="url(#p926e1cc461)" d="M 330.45573 307.584 
L 330.45573 41.472 
" style="fill:none;stroke:#b0b0b0;stroke-dasharray:5.12,1.28,0.8,1.28;stroke-dashoffset:0;stroke-width:0.8;"/>
     </g>
     <g id="line2d_36">
      <g>
       <use style="stroke:#000000;stroke-width:0.8;" x="330.45573" xlink:href="#m6fd42b3a4a" y="307.584"/>
      </g>
     </g>
     <g id="text_18">
      <!-- 68 -->
      <g transform="translate(324.09323 322.182437)scale(0.1 -0.1)">
       <use xlink:href="#DejaVuSans-54"/>
       <use x="63.623047" xlink:href="#DejaVuSans-56"/>
      </g>
     </g>
    </g>
    <g id="xtick_19">
     <g id="line2d_37">
      <path clip-path="url(#p926e1cc461)" d="M 346.506067 307.584 
L 346.506067 41.472 
" style="fill:none;stroke:#b0b0b0;stroke-dasharray:5.12,1.28,0.8,1.28;stroke-dashoffset:0;stroke-width:0.8;"/>
     </g>
     <g id="line2d_38">
      <g>
       <use style="stroke:#000000;stroke-width:0.8;" x="346.506067" xlink:href="#m6fd42b3a4a" y="307.584"/>
      </g>
     </g>
     <g id="text_19">
      <!-- 72 -->
      <g transform="translate(340.143567 322.182437)scale(0.1 -0.1)">
       <defs>
        <path d="M 8.203125 72.90625 
L 55.078125 72.90625 
L 55.078125 68.703125 
L 28.609375 0 
L 18.3125 0 
L 43.21875 64.59375 
L 8.203125 64.59375 
z
" id="DejaVuSans-55"/>
       </defs>
       <use xlink:href="#DejaVuSans-55"/>
       <use x="63.623047" xlink:href="#DejaVuSans-50"/>
      </g>
     </g>
    </g>
    <g id="xtick_20">
     <g id="line2d_39">
      <path clip-path="url(#p926e1cc461)" d="M 362.556404 307.584 
L 362.556404 41.472 
" style="fill:none;stroke:#b0b0b0;stroke-dasharray:5.12,1.28,0.8,1.28;stroke-dashoffset:0;stroke-width:0.8;"/>
     </g>
     <g id="line2d_40">
      <g>
       <use style="stroke:#000000;stroke-width:0.8;" x="362.556404" xlink:href="#m6fd42b3a4a" y="307.584"/>
      </g>
     </g>
     <g id="text_20">
      <!-- 76 -->
      <g transform="translate(356.193904 322.182437)scale(0.1 -0.1)">
       <use xlink:href="#DejaVuSans-55"/>
       <use x="63.623047" xlink:href="#DejaVuSans-54"/>
      </g>
     </g>
    </g>
    <g id="xtick_21">
     <g id="line2d_41">
      <path clip-path="url(#p926e1cc461)" d="M 378.606742 307.584 
L 378.606742 41.472 
" style="fill:none;stroke:#b0b0b0;stroke-dasharray:5.12,1.28,0.8,1.28;stroke-dashoffset:0;stroke-width:0.8;"/>
     </g>
     <g id="line2d_42">
      <g>
       <use style="stroke:#000000;stroke-width:0.8;" x="378.606742" xlink:href="#m6fd42b3a4a" y="307.584"/>
      </g>
     </g>
     <g id="text_21">
      <!-- 80 -->
      <g transform="translate(372.244242 322.182437)scale(0.1 -0.1)">
       <use xlink:href="#DejaVuSans-56"/>
       <use x="63.623047" xlink:href="#DejaVuSans-48"/>
      </g>
     </g>
    </g>
    <g id="xtick_22">
     <g id="line2d_43">
      <path clip-path="url(#p926e1cc461)" d="M 394.657079 307.584 
L 394.657079 41.472 
" style="fill:none;stroke:#b0b0b0;stroke-dasharray:5.12,1.28,0.8,1.28;stroke-dashoffset:0;stroke-width:0.8;"/>
     </g>
     <g id="line2d_44">
      <g>
       <use style="stroke:#000000;stroke-width:0.8;" x="394.657079" xlink:href="#m6fd42b3a4a" y="307.584"/>
      </g>
     </g>
     <g id="text_22">
      <!-- 84 -->
      <g transform="translate(388.294579 322.182437)scale(0.1 -0.1)">
       <use xlink:href="#DejaVuSans-56"/>
       <use x="63.623047" xlink:href="#DejaVuSans-52"/>
      </g>
     </g>
    </g>
    <g id="xtick_23">
     <g id="line2d_45">
      <path clip-path="url(#p926e1cc461)" d="M 410.707416 307.584 
L 410.707416 41.472 
" style="fill:none;stroke:#b0b0b0;stroke-dasharray:5.12,1.28,0.8,1.28;stroke-dashoffset:0;stroke-width:0.8;"/>
     </g>
     <g id="line2d_46">
      <g>
       <use style="stroke:#000000;stroke-width:0.8;" x="410.707416" xlink:href="#m6fd42b3a4a" y="307.584"/>
      </g>
     </g>
     <g id="text_23">
      <!-- 88 -->
      <g transform="translate(404.344916 322.182437)scale(0.1 -0.1)">
       <use xlink:href="#DejaVuSans-56"/>
       <use x="63.623047" xlink:href="#DejaVuSans-56"/>
      </g>
     </g>
    </g>
    <g id="text_24">
     <!-- threads -->
     <g transform="translate(217.168594 335.860562)scale(0.1 -0.1)">
      <defs>
       <path d="M 18.3125 70.21875 
L 18.3125 54.6875 
L 36.8125 54.6875 
L 36.8125 47.703125 
L 18.3125 47.703125 
L 18.3125 18.015625 
Q 18.3125 11.328125 20.140625 9.421875 
Q 21.96875 7.515625 27.59375 7.515625 
L 36.8125 7.515625 
L 36.8125 0 
L 27.59375 0 
Q 17.1875 0 13.234375 3.875 
Q 9.28125 7.765625 9.28125 18.015625 
L 9.28125 47.703125 
L 2.6875 47.703125 
L 2.6875 54.6875 
L 9.28125 54.6875 
L 9.28125 70.21875 
z
" id="DejaVuSans-116"/>
       <path d="M 54.890625 33.015625 
L 54.890625 0 
L 45.90625 0 
L 45.90625 32.71875 
Q 45.90625 40.484375 42.875 44.328125 
Q 39.84375 48.1875 33.796875 48.1875 
Q 26.515625 48.1875 22.3125 43.546875 
Q 18.109375 38.921875 18.109375 30.90625 
L 18.109375 0 
L 9.078125 0 
L 9.078125 75.984375 
L 18.109375 75.984375 
L 18.109375 46.1875 
Q 21.34375 51.125 25.703125 53.5625 
Q 30.078125 56 35.796875 56 
Q 45.21875 56 50.046875 50.171875 
Q 54.890625 44.34375 54.890625 33.015625 
z
" id="DejaVuSans-104"/>
       <path d="M 41.109375 46.296875 
Q 39.59375 47.171875 37.8125 47.578125 
Q 36.03125 48 33.890625 48 
Q 26.265625 48 22.1875 43.046875 
Q 18.109375 38.09375 18.109375 28.8125 
L 18.109375 0 
L 9.078125 0 
L 9.078125 54.6875 
L 18.109375 54.6875 
L 18.109375 46.1875 
Q 20.953125 51.171875 25.484375 53.578125 
Q 30.03125 56 36.53125 56 
Q 37.453125 56 38.578125 55.875 
Q 39.703125 55.765625 41.0625 55.515625 
z
" id="DejaVuSans-114"/>
       <path d="M 56.203125 29.59375 
L 56.203125 25.203125 
L 14.890625 25.203125 
Q 15.484375 15.921875 20.484375 11.0625 
Q 25.484375 6.203125 34.421875 6.203125 
Q 39.59375 6.203125 44.453125 7.46875 
Q 49.3125 8.734375 54.109375 11.28125 
L 54.109375 2.78125 
Q 49.265625 0.734375 44.1875 -0.34375 
Q 39.109375 -1.421875 33.890625 -1.421875 
Q 20.796875 -1.421875 13.15625 6.1875 
Q 5.515625 13.8125 5.515625 26.8125 
Q 5.515625 40.234375 12.765625 48.109375 
Q 20.015625 56 32.328125 56 
Q 43.359375 56 49.78125 48.890625 
Q 56.203125 41.796875 56.203125 29.59375 
z
M 47.21875 32.234375 
Q 47.125 39.59375 43.09375 43.984375 
Q 39.0625 48.390625 32.421875 48.390625 
Q 24.90625 48.390625 20.390625 44.140625 
Q 15.875 39.890625 15.1875 32.171875 
z
" id="DejaVuSans-101"/>
       <path d="M 34.28125 27.484375 
Q 23.390625 27.484375 19.1875 25 
Q 14.984375 22.515625 14.984375 16.5 
Q 14.984375 11.71875 18.140625 8.90625 
Q 21.296875 6.109375 26.703125 6.109375 
Q 34.1875 6.109375 38.703125 11.40625 
Q 43.21875 16.703125 43.21875 25.484375 
L 43.21875 27.484375 
z
M 52.203125 31.203125 
L 52.203125 0 
L 43.21875 0 
L 43.21875 8.296875 
Q 40.140625 3.328125 35.546875 0.953125 
Q 30.953125 -1.421875 24.3125 -1.421875 
Q 15.921875 -1.421875 10.953125 3.296875 
Q 6 8.015625 6 15.921875 
Q 6 25.140625 12.171875 29.828125 
Q 18.359375 34.515625 30.609375 34.515625 
L 43.21875 34.515625 
L 43.21875 35.40625 
Q 43.21875 41.609375 39.140625 45 
Q 35.0625 48.390625 27.6875 48.390625 
Q 23 48.390625 18.546875 47.265625 
Q 14.109375 46.140625 10.015625 43.890625 
L 10.015625 52.203125 
Q 14.9375 54.109375 19.578125 55.046875 
Q 24.21875 56 28.609375 56 
Q 40.484375 56 46.34375 49.84375 
Q 52.203125 43.703125 52.203125 31.203125 
z
" id="DejaVuSans-97"/>
       <path d="M 45.40625 46.390625 
L 45.40625 75.984375 
L 54.390625 75.984375 
L 54.390625 0 
L 45.40625 0 
L 45.40625 8.203125 
Q 42.578125 3.328125 38.25 0.953125 
Q 33.9375 -1.421875 27.875 -1.421875 
Q 17.96875 -1.421875 11.734375 6.484375 
Q 5.515625 14.40625 5.515625 27.296875 
Q 5.515625 40.1875 11.734375 48.09375 
Q 17.96875 56 27.875 56 
Q 33.9375 56 38.25 53.625 
Q 42.578125 51.265625 45.40625 46.390625 
z
M 14.796875 27.296875 
Q 14.796875 17.390625 18.875 11.75 
Q 22.953125 6.109375 30.078125 6.109375 
Q 37.203125 6.109375 41.296875 11.75 
Q 45.40625 17.390625 45.40625 27.296875 
Q 45.40625 37.203125 41.296875 42.84375 
Q 37.203125 48.484375 30.078125 48.484375 
Q 22.953125 48.484375 18.875 42.84375 
Q 14.796875 37.203125 14.796875 27.296875 
z
" id="DejaVuSans-100"/>
       <path d="M 44.28125 53.078125 
L 44.28125 44.578125 
Q 40.484375 46.53125 36.375 47.5 
Q 32.28125 48.484375 27.875 48.484375 
Q 21.1875 48.484375 17.84375 46.4375 
Q 14.5 44.390625 14.5 40.28125 
Q 14.5 37.15625 16.890625 35.375 
Q 19.28125 33.59375 26.515625 31.984375 
L 29.59375 31.296875 
Q 39.15625 29.25 43.1875 25.515625 
Q 47.21875 21.78125 47.21875 15.09375 
Q 47.21875 7.46875 41.1875 3.015625 
Q 35.15625 -1.421875 24.609375 -1.421875 
Q 20.21875 -1.421875 15.453125 -0.5625 
Q 10.6875 0.296875 5.421875 2 
L 5.421875 11.28125 
Q 10.40625 8.6875 15.234375 7.390625 
Q 20.0625 6.109375 24.8125 6.109375 
Q 31.15625 6.109375 34.5625 8.28125 
Q 37.984375 10.453125 37.984375 14.40625 
Q 37.984375 18.0625 35.515625 20.015625 
Q 33.0625 21.96875 24.703125 23.78125 
L 21.578125 24.515625 
Q 13.234375 26.265625 9.515625 29.90625 
Q 5.8125 33.546875 5.8125 39.890625 
Q 5.8125 47.609375 11.28125 51.796875 
Q 16.75 56 26.8125 56 
Q 31.78125 56 36.171875 55.265625 
Q 40.578125 54.546875 44.28125 53.078125 
z
" id="DejaVuSans-115"/>
      </defs>
      <use xlink:href="#DejaVuSans-116"/>
      <use x="39.208984" xlink:href="#DejaVuSans-104"/>
      <use x="102.587891" xlink:href="#DejaVuSans-114"/>
      <use x="141.451172" xlink:href="#DejaVuSans-101"/>
      <use x="202.974609" xlink:href="#DejaVuSans-97"/>
      <use x="264.253906" xlink:href="#DejaVuSans-100"/>
      <use x="327.730469" xlink:href="#DejaVuSans-115"/>
     </g>
    </g>
   </g>
   <g id="matplotlib.axis_2">
    <g id="ytick_1">
     <g id="line2d_47">
      <path clip-path="url(#p926e1cc461)" d="M 57.6 271.409085 
L 414.72 271.409085 
" style="fill:none;stroke:#b0b0b0;stroke-dasharray:5.12,1.28,0.8,1.28;stroke-dashoffset:0;stroke-width:0.8;"/>
     </g>
     <g id="line2d_48">
      <defs>
       <path d="M 0 0 
L -3.5 0 
" id="m794842de58" style="stroke:#000000;stroke-width:0.8;"/>
      </defs>
      <g>
       <use style="stroke:#000000;stroke-width:0.8;" x="57.6" xlink:href="#m794842de58" y="271.409085"/>
      </g>
     </g>
     <g id="text_25">
      <!-- 1 -->
      <g transform="translate(44.2375 275.208304)scale(0.1 -0.1)">
       <use xlink:href="#DejaVuSans-49"/>
      </g>
     </g>
    </g>
    <g id="ytick_2">
     <g id="line2d_49">
      <path clip-path="url(#p926e1cc461)" d="M 57.6 215.9925 
L 414.72 215.9925 
" style="fill:none;stroke:#b0b0b0;stroke-dasharray:5.12,1.28,0.8,1.28;stroke-dashoffset:0;stroke-width:0.8;"/>
     </g>
     <g id="line2d_50">
      <g>
       <use style="stroke:#000000;stroke-width:0.8;" x="57.6" xlink:href="#m794842de58" y="215.9925"/>
      </g>
     </g>
     <g id="text_26">
      <!-- 2 -->
      <g transform="translate(44.2375 219.791719)scale(0.1 -0.1)">
       <use xlink:href="#DejaVuSans-50"/>
      </g>
     </g>
    </g>
    <g id="ytick_3">
     <g id="line2d_51">
      <path clip-path="url(#p926e1cc461)" d="M 57.6 160.575916 
L 414.72 160.575916 
" style="fill:none;stroke:#b0b0b0;stroke-dasharray:5.12,1.28,0.8,1.28;stroke-dashoffset:0;stroke-width:0.8;"/>
     </g>
     <g id="line2d_52">
      <g>
       <use style="stroke:#000000;stroke-width:0.8;" x="57.6" xlink:href="#m794842de58" y="160.575916"/>
      </g>
     </g>
     <g id="text_27">
      <!-- 3 -->
      <g transform="translate(44.2375 164.375135)scale(0.1 -0.1)">
       <use xlink:href="#DejaVuSans-51"/>
      </g>
     </g>
    </g>
    <g id="ytick_4">
     <g id="line2d_53">
      <path clip-path="url(#p926e1cc461)" d="M 57.6 105.159331 
L 414.72 105.159331 
" style="fill:none;stroke:#b0b0b0;stroke-dasharray:5.12,1.28,0.8,1.28;stroke-dashoffset:0;stroke-width:0.8;"/>
     </g>
     <g id="line2d_54">
      <g>
       <use style="stroke:#000000;stroke-width:0.8;" x="57.6" xlink:href="#m794842de58" y="105.159331"/>
      </g>
     </g>
     <g id="text_28">
      <!-- 4 -->
      <g transform="translate(44.2375 108.95855)scale(0.1 -0.1)">
       <use xlink:href="#DejaVuSans-52"/>
      </g>
     </g>
    </g>
    <g id="ytick_5">
     <g id="line2d_55">
      <path clip-path="url(#p926e1cc461)" d="M 57.6 49.742747 
L 414.72 49.742747 
" style="fill:none;stroke:#b0b0b0;stroke-dasharray:5.12,1.28,0.8,1.28;stroke-dashoffset:0;stroke-width:0.8;"/>
     </g>
     <g id="line2d_56">
      <g>
       <use style="stroke:#000000;stroke-width:0.8;" x="57.6" xlink:href="#m794842de58" y="49.742747"/>
      </g>
     </g>
     <g id="text_29">
      <!-- 5 -->
      <g transform="translate(44.2375 53.541966)scale(0.1 -0.1)">
       <use xlink:href="#DejaVuSans-53"/>
      </g>
     </g>
    </g>
    <g id="text_30">
     <!-- speed up -->
     <g transform="translate(38.157812 197.566281)rotate(-90)scale(0.1 -0.1)">
      <defs>
       <path d="M 18.109375 8.203125 
L 18.109375 -20.796875 
L 9.078125 -20.796875 
L 9.078125 54.6875 
L 18.109375 54.6875 
L 18.109375 46.390625 
Q 20.953125 51.265625 25.265625 53.625 
Q 29.59375 56 35.59375 56 
Q 45.5625 56 51.78125 48.09375 
Q 58.015625 40.1875 58.015625 27.296875 
Q 58.015625 14.40625 51.78125 6.484375 
Q 45.5625 -1.421875 35.59375 -1.421875 
Q 29.59375 -1.421875 25.265625 0.953125 
Q 20.953125 3.328125 18.109375 8.203125 
z
M 48.6875 27.296875 
Q 48.6875 37.203125 44.609375 42.84375 
Q 40.53125 48.484375 33.40625 48.484375 
Q 26.265625 48.484375 22.1875 42.84375 
Q 18.109375 37.203125 18.109375 27.296875 
Q 18.109375 17.390625 22.1875 11.75 
Q 26.265625 6.109375 33.40625 6.109375 
Q 40.53125 6.109375 44.609375 11.75 
Q 48.6875 17.390625 48.6875 27.296875 
z
" id="DejaVuSans-112"/>
       <path id="DejaVuSans-32"/>
       <path d="M 8.5 21.578125 
L 8.5 54.6875 
L 17.484375 54.6875 
L 17.484375 21.921875 
Q 17.484375 14.15625 20.5 10.265625 
Q 23.53125 6.390625 29.59375 6.390625 
Q 36.859375 6.390625 41.078125 11.03125 
Q 45.3125 15.671875 45.3125 23.6875 
L 45.3125 54.6875 
L 54.296875 54.6875 
L 54.296875 0 
L 45.3125 0 
L 45.3125 8.40625 
Q 42.046875 3.421875 37.71875 1 
Q 33.40625 -1.421875 27.6875 -1.421875 
Q 18.265625 -1.421875 13.375 4.4375 
Q 8.5 10.296875 8.5 21.578125 
z
M 31.109375 56 
z
" id="DejaVuSans-117"/>
      </defs>
      <use xlink:href="#DejaVuSans-115"/>
      <use x="52.099609" xlink:href="#DejaVuSans-112"/>
      <use x="115.576172" xlink:href="#DejaVuSans-101"/>
      <use x="177.099609" xlink:href="#DejaVuSans-101"/>
      <use x="238.623047" xlink:href="#DejaVuSans-100"/>
      <use x="302.099609" xlink:href="#DejaVuSans-32"/>
      <use x="333.886719" xlink:href="#DejaVuSans-117"/>
      <use x="397.265625" xlink:href="#DejaVuSans-112"/>
     </g>
    </g>
   </g>
   <g id="line2d_57">
    <path clip-path="url(#p926e1cc461)" d="M 61.612584 291.216089 
L 65.625169 265.946822 
L 69.637753 239.097376 
L 73.650337 218.884677 
L 77.662921 198.638962 
L 81.675506 182.073642 
L 85.68809 168.861644 
L 89.700674 155.814521 
L 93.713258 144.656549 
L 97.725843 129.302468 
L 101.738427 120.104239 
L 105.751011 115.168003 
L 109.763596 107.912438 
L 113.77618 103.452728 
L 117.788764 86.710022 
L 121.801348 79.303047 
L 125.813933 73.825901 
L 129.826517 78.599608 
L 133.839101 65.734846 
L 137.851685 64.04549 
L 141.86427 59.829937 
L 145.876854 64.310332 
L 149.889438 57.935075 
L 153.902022 55.78735 
L 157.914607 53.579968 
L 161.927191 53.568 
L 165.939775 56.237967 
L 169.95236 58.261927 
L 173.964944 60.960131 
L 177.977528 64.795978 
L 181.990112 59.581595 
L 186.002697 64.258249 
L 190.015281 61.266218 
L 194.027865 68.295388 
L 198.040449 73.001967 
L 202.053034 66.212129 
L 206.065618 71.029128 
L 210.078202 81.078898 
L 214.090787 82.309875 
L 218.103371 89.173044 
L 222.115955 93.90045 
L 226.128539 100.511026 
L 230.141124 106.188224 
L 234.153708 108.869135 
L 238.166292 108.048057 
L 242.178876 111.479307 
L 246.191461 112.726458 
L 250.204045 115.833697 
L 254.216629 114.323493 
L 258.229213 115.495069 
L 262.241798 115.110543 
L 266.254382 117.508352 
L 270.266966 121.753462 
L 274.279551 122.007368 
L 278.292135 124.929412 
L 282.304719 132.660624 
L 286.317303 136.312657 
L 290.329888 140.107001 
L 294.342472 139.654331 
L 298.355056 139.220417 
L 302.36764 141.633028 
L 306.380225 142.094162 
L 310.392809 145.857793 
L 314.405393 147.603282 
L 318.417978 148.374909 
L 322.430562 148.00738 
L 326.443146 150.220126 
L 330.45573 151.753355 
L 334.468315 153.961855 
L 338.480899 154.407052 
L 342.493483 158.211037 
L 346.506067 156.729906 
L 350.518652 159.50136 
L 354.531236 161.53193 
L 358.54382 163.091946 
L 362.556404 164.591458 
L 366.568989 166.3872 
L 370.581573 171.209554 
L 374.594157 190.643331 
L 378.606742 172.606808 
L 382.619326 187.350389 
L 386.63191 187.367313 
L 390.644494 177.375891 
L 394.657079 178.908946 
L 398.669663 181.272314 
L 402.682247 183.275821 
L 406.694831 187.653813 
L 410.707416 204.479407 
" style="fill:none;stroke:#0000ff;stroke-dasharray:1.5,2.475;stroke-dashoffset:0;stroke-width:1.5;"/>
    <defs>
     <path d="M 0 1.5 
C 0.397805 1.5 0.77937 1.341951 1.06066 1.06066 
C 1.341951 0.77937 1.5 0.397805 1.5 0 
C 1.5 -0.397805 1.341951 -0.77937 1.06066 -1.06066 
C 0.77937 -1.341951 0.397805 -1.5 0 -1.5 
C -0.397805 -1.5 -0.77937 -1.341951 -1.06066 -1.06066 
C -1.341951 -0.77937 -1.5 -0.397805 -1.5 0 
C -1.5 0.397805 -1.341951 0.77937 -1.06066 1.06066 
C -0.77937 1.341951 -0.397805 1.5 0 1.5 
z
" id="m3ac3327c1b" style="stroke:#0000ff;"/>
    </defs>
    <g clip-path="url(#p926e1cc461)">
     <use style="fill:#0000ff;stroke:#0000ff;" x="61.612584" xlink:href="#m3ac3327c1b" y="291.216089"/>
     <use style="fill:#0000ff;stroke:#0000ff;" x="65.625169" xlink:href="#m3ac3327c1b" y="265.946822"/>
     <use style="fill:#0000ff;stroke:#0000ff;" x="69.637753" xlink:href="#m3ac3327c1b" y="239.097376"/>
     <use style="fill:#0000ff;stroke:#0000ff;" x="73.650337" xlink:href="#m3ac3327c1b" y="218.884677"/>
     <use style="fill:#0000ff;stroke:#0000ff;" x="77.662921" xlink:href="#m3ac3327c1b" y="198.638962"/>
     <use style="fill:#0000ff;stroke:#0000ff;" x="81.675506" xlink:href="#m3ac3327c1b" y="182.073642"/>
     <use style="fill:#0000ff;stroke:#0000ff;" x="85.68809" xlink:href="#m3ac3327c1b" y="168.861644"/>
     <use style="fill:#0000ff;stroke:#0000ff;" x="89.700674" xlink:href="#m3ac3327c1b" y="155.814521"/>
     <use style="fill:#0000ff;stroke:#0000ff;" x="93.713258" xlink:href="#m3ac3327c1b" y="144.656549"/>
     <use style="fill:#0000ff;stroke:#0000ff;" x="97.725843" xlink:href="#m3ac3327c1b" y="129.302468"/>
     <use style="fill:#0000ff;stroke:#0000ff;" x="101.738427" xlink:href="#m3ac3327c1b" y="120.104239"/>
     <use style="fill:#0000ff;stroke:#0000ff;" x="105.751011" xlink:href="#m3ac3327c1b" y="115.168003"/>
     <use style="fill:#0000ff;stroke:#0000ff;" x="109.763596" xlink:href="#m3ac3327c1b" y="107.912438"/>
     <use style="fill:#0000ff;stroke:#0000ff;" x="113.77618" xlink:href="#m3ac3327c1b" y="103.452728"/>
     <use style="fill:#0000ff;stroke:#0000ff;" x="117.788764" xlink:href="#m3ac3327c1b" y="86.710022"/>
     <use style="fill:#0000ff;stroke:#0000ff;" x="121.801348" xlink:href="#m3ac3327c1b" y="79.303047"/>
     <use style="fill:#0000ff;stroke:#0000ff;" x="125.813933" xlink:href="#m3ac3327c1b" y="73.825901"/>
     <use style="fill:#0000ff;stroke:#0000ff;" x="129.826517" xlink:href="#m3ac3327c1b" y="78.599608"/>
     <use style="fill:#0000ff;stroke:#0000ff;" x="133.839101" xlink:href="#m3ac3327c1b" y="65.734846"/>
     <use style="fill:#0000ff;stroke:#0000ff;" x="137.851685" xlink:href="#m3ac3327c1b" y="64.04549"/>
     <use style="fill:#0000ff;stroke:#0000ff;" x="141.86427" xlink:href="#m3ac3327c1b" y="59.829937"/>
     <use style="fill:#0000ff;stroke:#0000ff;" x="145.876854" xlink:href="#m3ac3327c1b" y="64.310332"/>
     <use style="fill:#0000ff;stroke:#0000ff;" x="149.889438" xlink:href="#m3ac3327c1b" y="57.935075"/>
     <use style="fill:#0000ff;stroke:#0000ff;" x="153.902022" xlink:href="#m3ac3327c1b" y="55.78735"/>
     <use style="fill:#0000ff;stroke:#0000ff;" x="157.914607" xlink:href="#m3ac3327c1b" y="53.579968"/>
     <use style="fill:#0000ff;stroke:#0000ff;" x="161.927191" xlink:href="#m3ac3327c1b" y="53.568"/>
     <use style="fill:#0000ff;stroke:#0000ff;" x="165.939775" xlink:href="#m3ac3327c1b" y="56.237967"/>
     <use style="fill:#0000ff;stroke:#0000ff;" x="169.95236" xlink:href="#m3ac3327c1b" y="58.261927"/>
     <use style="fill:#0000ff;stroke:#0000ff;" x="173.964944" xlink:href="#m3ac3327c1b" y="60.960131"/>
     <use style="fill:#0000ff;stroke:#0000ff;" x="177.977528" xlink:href="#m3ac3327c1b" y="64.795978"/>
     <use style="fill:#0000ff;stroke:#0000ff;" x="181.990112" xlink:href="#m3ac3327c1b" y="59.581595"/>
     <use style="fill:#0000ff;stroke:#0000ff;" x="186.002697" xlink:href="#m3ac3327c1b" y="64.258249"/>
     <use style="fill:#0000ff;stroke:#0000ff;" x="190.015281" xlink:href="#m3ac3327c1b" y="61.266218"/>
     <use style="fill:#0000ff;stroke:#0000ff;" x="194.027865" xlink:href="#m3ac3327c1b" y="68.295388"/>
     <use style="fill:#0000ff;stroke:#0000ff;" x="198.040449" xlink:href="#m3ac3327c1b" y="73.001967"/>
     <use style="fill:#0000ff;stroke:#0000ff;" x="202.053034" xlink:href="#m3ac3327c1b" y="66.212129"/>
     <use style="fill:#0000ff;stroke:#0000ff;" x="206.065618" xlink:href="#m3ac3327c1b" y="71.029128"/>
     <use style="fill:#0000ff;stroke:#0000ff;" x="210.078202" xlink:href="#m3ac3327c1b" y="81.078898"/>
     <use style="fill:#0000ff;stroke:#0000ff;" x="214.090787" xlink:href="#m3ac3327c1b" y="82.309875"/>
     <use style="fill:#0000ff;stroke:#0000ff;" x="218.103371" xlink:href="#m3ac3327c1b" y="89.173044"/>
     <use style="fill:#0000ff;stroke:#0000ff;" x="222.115955" xlink:href="#m3ac3327c1b" y="93.90045"/>
     <use style="fill:#0000ff;stroke:#0000ff;" x="226.128539" xlink:href="#m3ac3327c1b" y="100.511026"/>
     <use style="fill:#0000ff;stroke:#0000ff;" x="230.141124" xlink:href="#m3ac3327c1b" y="106.188224"/>
     <use style="fill:#0000ff;stroke:#0000ff;" x="234.153708" xlink:href="#m3ac3327c1b" y="108.869135"/>
     <use style="fill:#0000ff;stroke:#0000ff;" x="238.166292" xlink:href="#m3ac3327c1b" y="108.048057"/>
     <use style="fill:#0000ff;stroke:#0000ff;" x="242.178876" xlink:href="#m3ac3327c1b" y="111.479307"/>
     <use style="fill:#0000ff;stroke:#0000ff;" x="246.191461" xlink:href="#m3ac3327c1b" y="112.726458"/>
     <use style="fill:#0000ff;stroke:#0000ff;" x="250.204045" xlink:href="#m3ac3327c1b" y="115.833697"/>
     <use style="fill:#0000ff;stroke:#0000ff;" x="254.216629" xlink:href="#m3ac3327c1b" y="114.323493"/>
     <use style="fill:#0000ff;stroke:#0000ff;" x="258.229213" xlink:href="#m3ac3327c1b" y="115.495069"/>
     <use style="fill:#0000ff;stroke:#0000ff;" x="262.241798" xlink:href="#m3ac3327c1b" y="115.110543"/>
     <use style="fill:#0000ff;stroke:#0000ff;" x="266.254382" xlink:href="#m3ac3327c1b" y="117.508352"/>
     <use style="fill:#0000ff;stroke:#0000ff;" x="270.266966" xlink:href="#m3ac3327c1b" y="121.753462"/>
     <use style="fill:#0000ff;stroke:#0000ff;" x="274.279551" xlink:href="#m3ac3327c1b" y="122.007368"/>
     <use style="fill:#0000ff;stroke:#0000ff;" x="278.292135" xlink:href="#m3ac3327c1b" y="124.929412"/>
     <use style="fill:#0000ff;stroke:#0000ff;" x="282.304719" xlink:href="#m3ac3327c1b" y="132.660624"/>
     <use style="fill:#0000ff;stroke:#0000ff;" x="286.317303" xlink:href="#m3ac3327c1b" y="136.312657"/>
     <use style="fill:#0000ff;stroke:#0000ff;" x="290.329888" xlink:href="#m3ac3327c1b" y="140.107001"/>
     <use style="fill:#0000ff;stroke:#0000ff;" x="294.342472" xlink:href="#m3ac3327c1b" y="139.654331"/>
     <use style="fill:#0000ff;stroke:#0000ff;" x="298.355056" xlink:href="#m3ac3327c1b" y="139.220417"/>
     <use style="fill:#0000ff;stroke:#0000ff;" x="302.36764" xlink:href="#m3ac3327c1b" y="141.633028"/>
     <use style="fill:#0000ff;stroke:#0000ff;" x="306.380225" xlink:href="#m3ac3327c1b" y="142.094162"/>
     <use style="fill:#0000ff;stroke:#0000ff;" x="310.392809" xlink:href="#m3ac3327c1b" y="145.857793"/>
     <use style="fill:#0000ff;stroke:#0000ff;" x="314.405393" xlink:href="#m3ac3327c1b" y="147.603282"/>
     <use style="fill:#0000ff;stroke:#0000ff;" x="318.417978" xlink:href="#m3ac3327c1b" y="148.374909"/>
     <use style="fill:#0000ff;stroke:#0000ff;" x="322.430562" xlink:href="#m3ac3327c1b" y="148.00738"/>
     <use style="fill:#0000ff;stroke:#0000ff;" x="326.443146" xlink:href="#m3ac3327c1b" y="150.220126"/>
     <use style="fill:#0000ff;stroke:#0000ff;" x="330.45573" xlink:href="#m3ac3327c1b" y="151.753355"/>
     <use style="fill:#0000ff;stroke:#0000ff;" x="334.468315" xlink:href="#m3ac3327c1b" y="153.961855"/>
     <use style="fill:#0000ff;stroke:#0000ff;" x="338.480899" xlink:href="#m3ac3327c1b" y="154.407052"/>
     <use style="fill:#0000ff;stroke:#0000ff;" x="342.493483" xlink:href="#m3ac3327c1b" y="158.211037"/>
     <use style="fill:#0000ff;stroke:#0000ff;" x="346.506067" xlink:href="#m3ac3327c1b" y="156.729906"/>
     <use style="fill:#0000ff;stroke:#0000ff;" x="350.518652" xlink:href="#m3ac3327c1b" y="159.50136"/>
     <use style="fill:#0000ff;stroke:#0000ff;" x="354.531236" xlink:href="#m3ac3327c1b" y="161.53193"/>
     <use style="fill:#0000ff;stroke:#0000ff;" x="358.54382" xlink:href="#m3ac3327c1b" y="163.091946"/>
     <use style="fill:#0000ff;stroke:#0000ff;" x="362.556404" xlink:href="#m3ac3327c1b" y="164.591458"/>
     <use style="fill:#0000ff;stroke:#0000ff;" x="366.568989" xlink:href="#m3ac3327c1b" y="166.3872"/>
     <use style="fill:#0000ff;stroke:#0000ff;" x="370.581573" xlink:href="#m3ac3327c1b" y="171.209554"/>
     <use style="fill:#0000ff;stroke:#0000ff;" x="374.594157" xlink:href="#m3ac3327c1b" y="190.643331"/>
     <use style="fill:#0000ff;stroke:#0000ff;" x="378.606742" xlink:href="#m3ac3327c1b" y="172.606808"/>
     <use style="fill:#0000ff;stroke:#0000ff;" x="382.619326" xlink:href="#m3ac3327c1b" y="187.350389"/>
     <use style="fill:#0000ff;stroke:#0000ff;" x="386.63191" xlink:href="#m3ac3327c1b" y="187.367313"/>
     <use style="fill:#0000ff;stroke:#0000ff;" x="390.644494" xlink:href="#m3ac3327c1b" y="177.375891"/>
     <use style="fill:#0000ff;stroke:#0000ff;" x="394.657079" xlink:href="#m3ac3327c1b" y="178.908946"/>
     <use style="fill:#0000ff;stroke:#0000ff;" x="398.669663" xlink:href="#m3ac3327c1b" y="181.272314"/>
     <use style="fill:#0000ff;stroke:#0000ff;" x="402.682247" xlink:href="#m3ac3327c1b" y="183.275821"/>
     <use style="fill:#0000ff;stroke:#0000ff;" x="406.694831" xlink:href="#m3ac3327c1b" y="187.653813"/>
     <use style="fill:#0000ff;stroke:#0000ff;" x="410.707416" xlink:href="#m3ac3327c1b" y="204.479407"/>
    </g>
   </g>
   <g id="line2d_58">
    <path clip-path="url(#p926e1cc461)" d="M 61.612584 295.488 
L 65.625169 273.873333 
L 69.637753 251.016712 
L 73.650337 230.954201 
L 77.662921 216.10413 
L 81.675506 201.737592 
L 85.68809 186.052957 
L 89.700674 175.184407 
L 93.713258 168.415605 
L 97.725843 152.349242 
L 101.738427 143.67802 
L 105.751011 138.769347 
L 109.763596 132.338483 
L 113.77618 125.803483 
L 117.788764 118.695059 
L 121.801348 111.72051 
L 125.813933 105.970133 
L 129.826517 103.568751 
L 133.839101 95.569759 
L 137.851685 91.823923 
L 141.86427 92.369645 
L 145.876854 89.746141 
L 149.889438 86.815578 
L 153.902022 84.735543 
L 157.914607 85.051208 
L 161.927191 84.691973 
L 165.939775 95.196616 
L 169.95236 92.449433 
L 173.964944 92.765203 
L 177.977528 95.397689 
L 181.990112 96.269272 
L 186.002697 98.855404 
L 190.015281 92.742946 
L 194.027865 100.63317 
L 198.040449 99.548158 
L 202.053034 92.959645 
L 206.065618 101.596564 
L 210.078202 113.006465 
L 214.090787 116.282541 
L 218.103371 129.445707 
L 222.115955 128.890593 
L 226.128539 133.474058 
L 230.141124 138.388037 
L 234.153708 135.304111 
L 238.166292 138.911979 
L 242.178876 141.753027 
L 246.191461 143.251447 
L 250.204045 144.258018 
L 254.216629 149.864323 
L 258.229213 147.663411 
L 262.241798 151.302422 
L 266.254382 153.090924 
L 270.266966 151.408068 
L 274.279551 154.705959 
L 278.292135 155.58835 
L 282.304719 158.640714 
L 286.317303 160.005917 
L 290.329888 163.320883 
L 294.342472 165.77697 
L 298.355056 163.750667 
L 302.36764 170.8759 
L 306.380225 171.201652 
L 310.392809 170.328104 
L 314.405393 172.542612 
L 318.417978 173.079739 
L 322.430562 175.047948 
L 326.443146 174.542348 
L 330.45573 177.916657 
L 334.468315 179.795299 
L 338.480899 179.455214 
L 342.493483 180.689643 
L 346.506067 183.260664 
L 350.518652 184.27804 
L 354.531236 184.264165 
L 358.54382 184.929759 
L 362.556404 184.024346 
L 366.568989 187.872049 
L 370.581573 188.929937 
L 374.594157 196.369713 
L 378.606742 194.118868 
L 382.619326 195.078707 
L 386.63191 194.921303 
L 390.644494 196.224669 
L 394.657079 199.544302 
L 398.669663 202.357527 
L 402.682247 204.513945 
L 406.694831 206.99872 
L 410.707416 225.517151 
" style="fill:none;stroke:#ff0000;stroke-dasharray:1.5,2.475;stroke-dashoffset:0;stroke-width:1.5;"/>
    <defs>
     <path d="M 0 1.5 
C 0.397805 1.5 0.77937 1.341951 1.06066 1.06066 
C 1.341951 0.77937 1.5 0.397805 1.5 0 
C 1.5 -0.397805 1.341951 -0.77937 1.06066 -1.06066 
C 0.77937 -1.341951 0.397805 -1.5 0 -1.5 
C -0.397805 -1.5 -0.77937 -1.341951 -1.06066 -1.06066 
C -1.341951 -0.77937 -1.5 -0.397805 -1.5 0 
C -1.5 0.397805 -1.341951 0.77937 -1.06066 1.06066 
C -0.77937 1.341951 -0.397805 1.5 0 1.5 
z
" id="m1f0ac9a799" style="stroke:#ff0000;"/>
    </defs>
    <g clip-path="url(#p926e1cc461)">
     <use style="fill:#ff0000;stroke:#ff0000;" x="61.612584" xlink:href="#m1f0ac9a799" y="295.488"/>
     <use style="fill:#ff0000;stroke:#ff0000;" x="65.625169" xlink:href="#m1f0ac9a799" y="273.873333"/>
     <use style="fill:#ff0000;stroke:#ff0000;" x="69.637753" xlink:href="#m1f0ac9a799" y="251.016712"/>
     <use style="fill:#ff0000;stroke:#ff0000;" x="73.650337" xlink:href="#m1f0ac9a799" y="230.954201"/>
     <use style="fill:#ff0000;stroke:#ff0000;" x="77.662921" xlink:href="#m1f0ac9a799" y="216.10413"/>
     <use style="fill:#ff0000;stroke:#ff0000;" x="81.675506" xlink:href="#m1f0ac9a799" y="201.737592"/>
     <use style="fill:#ff0000;stroke:#ff0000;" x="85.68809" xlink:href="#m1f0ac9a799" y="186.052957"/>
     <use style="fill:#ff0000;stroke:#ff0000;" x="89.700674" xlink:href="#m1f0ac9a799" y="175.184407"/>
     <use style="fill:#ff0000;stroke:#ff0000;" x="93.713258" xlink:href="#m1f0ac9a799" y="168.415605"/>
     <use style="fill:#ff0000;stroke:#ff0000;" x="97.725843" xlink:href="#m1f0ac9a799" y="152.349242"/>
     <use style="fill:#ff0000;stroke:#ff0000;" x="101.738427" xlink:href="#m1f0ac9a799" y="143.67802"/>
     <use style="fill:#ff0000;stroke:#ff0000;" x="105.751011" xlink:href="#m1f0ac9a799" y="138.769347"/>
     <use style="fill:#ff0000;stroke:#ff0000;" x="109.763596" xlink:href="#m1f0ac9a799" y="132.338483"/>
     <use style="fill:#ff0000;stroke:#ff0000;" x="113.77618" xlink:href="#m1f0ac9a799" y="125.803483"/>
     <use style="fill:#ff0000;stroke:#ff0000;" x="117.788764" xlink:href="#m1f0ac9a799" y="118.695059"/>
     <use style="fill:#ff0000;stroke:#ff0000;" x="121.801348" xlink:href="#m1f0ac9a799" y="111.72051"/>
     <use style="fill:#ff0000;stroke:#ff0000;" x="125.813933" xlink:href="#m1f0ac9a799" y="105.970133"/>
     <use style="fill:#ff0000;stroke:#ff0000;" x="129.826517" xlink:href="#m1f0ac9a799" y="103.568751"/>
     <use style="fill:#ff0000;stroke:#ff0000;" x="133.839101" xlink:href="#m1f0ac9a799" y="95.569759"/>
     <use style="fill:#ff0000;stroke:#ff0000;" x="137.851685" xlink:href="#m1f0ac9a799" y="91.823923"/>
     <use style="fill:#ff0000;stroke:#ff0000;" x="141.86427" xlink:href="#m1f0ac9a799" y="92.369645"/>
     <use style="fill:#ff0000;stroke:#ff0000;" x="145.876854" xlink:href="#m1f0ac9a799" y="89.746141"/>
     <use style="fill:#ff0000;stroke:#ff0000;" x="149.889438" xlink:href="#m1f0ac9a799" y="86.815578"/>
     <use style="fill:#ff0000;stroke:#ff0000;" x="153.902022" xlink:href="#m1f0ac9a799" y="84.735543"/>
     <use style="fill:#ff0000;stroke:#ff0000;" x="157.914607" xlink:href="#m1f0ac9a799" y="85.051208"/>
     <use style="fill:#ff0000;stroke:#ff0000;" x="161.927191" xlink:href="#m1f0ac9a799" y="84.691973"/>
     <use style="fill:#ff0000;stroke:#ff0000;" x="165.939775" xlink:href="#m1f0ac9a799" y="95.196616"/>
     <use style="fill:#ff0000;stroke:#ff0000;" x="169.95236" xlink:href="#m1f0ac9a799" y="92.449433"/>
     <use style="fill:#ff0000;stroke:#ff0000;" x="173.964944" xlink:href="#m1f0ac9a799" y="92.765203"/>
     <use style="fill:#ff0000;stroke:#ff0000;" x="177.977528" xlink:href="#m1f0ac9a799" y="95.397689"/>
     <use style="fill:#ff0000;stroke:#ff0000;" x="181.990112" xlink:href="#m1f0ac9a799" y="96.269272"/>
     <use style="fill:#ff0000;stroke:#ff0000;" x="186.002697" xlink:href="#m1f0ac9a799" y="98.855404"/>
     <use style="fill:#ff0000;stroke:#ff0000;" x="190.015281" xlink:href="#m1f0ac9a799" y="92.742946"/>
     <use style="fill:#ff0000;stroke:#ff0000;" x="194.027865" xlink:href="#m1f0ac9a799" y="100.63317"/>
     <use style="fill:#ff0000;stroke:#ff0000;" x="198.040449" xlink:href="#m1f0ac9a799" y="99.548158"/>
     <use style="fill:#ff0000;stroke:#ff0000;" x="202.053034" xlink:href="#m1f0ac9a799" y="92.959645"/>
     <use style="fill:#ff0000;stroke:#ff0000;" x="206.065618" xlink:href="#m1f0ac9a799" y="101.596564"/>
     <use style="fill:#ff0000;stroke:#ff0000;" x="210.078202" xlink:href="#m1f0ac9a799" y="113.006465"/>
     <use style="fill:#ff0000;stroke:#ff0000;" x="214.090787" xlink:href="#m1f0ac9a799" y="116.282541"/>
     <use style="fill:#ff0000;stroke:#ff0000;" x="218.103371" xlink:href="#m1f0ac9a799" y="129.445707"/>
     <use style="fill:#ff0000;stroke:#ff0000;" x="222.115955" xlink:href="#m1f0ac9a799" y="128.890593"/>
     <use style="fill:#ff0000;stroke:#ff0000;" x="226.128539" xlink:href="#m1f0ac9a799" y="133.474058"/>
     <use style="fill:#ff0000;stroke:#ff0000;" x="230.141124" xlink:href="#m1f0ac9a799" y="138.388037"/>
     <use style="fill:#ff0000;stroke:#ff0000;" x="234.153708" xlink:href="#m1f0ac9a799" y="135.304111"/>
     <use style="fill:#ff0000;stroke:#ff0000;" x="238.166292" xlink:href="#m1f0ac9a799" y="138.911979"/>
     <use style="fill:#ff0000;stroke:#ff0000;" x="242.178876" xlink:href="#m1f0ac9a799" y="141.753027"/>
     <use style="fill:#ff0000;stroke:#ff0000;" x="246.191461" xlink:href="#m1f0ac9a799" y="143.251447"/>
     <use style="fill:#ff0000;stroke:#ff0000;" x="250.204045" xlink:href="#m1f0ac9a799" y="144.258018"/>
     <use style="fill:#ff0000;stroke:#ff0000;" x="254.216629" xlink:href="#m1f0ac9a799" y="149.864323"/>
     <use style="fill:#ff0000;stroke:#ff0000;" x="258.229213" xlink:href="#m1f0ac9a799" y="147.663411"/>
     <use style="fill:#ff0000;stroke:#ff0000;" x="262.241798" xlink:href="#m1f0ac9a799" y="151.302422"/>
     <use style="fill:#ff0000;stroke:#ff0000;" x="266.254382" xlink:href="#m1f0ac9a799" y="153.090924"/>
     <use style="fill:#ff0000;stroke:#ff0000;" x="270.266966" xlink:href="#m1f0ac9a799" y="151.408068"/>
     <use style="fill:#ff0000;stroke:#ff0000;" x="274.279551" xlink:href="#m1f0ac9a799" y="154.705959"/>
     <use style="fill:#ff0000;stroke:#ff0000;" x="278.292135" xlink:href="#m1f0ac9a799" y="155.58835"/>
     <use style="fill:#ff0000;stroke:#ff0000;" x="282.304719" xlink:href="#m1f0ac9a799" y="158.640714"/>
     <use style="fill:#ff0000;stroke:#ff0000;" x="286.317303" xlink:href="#m1f0ac9a799" y="160.005917"/>
     <use style="fill:#ff0000;stroke:#ff0000;" x="290.329888" xlink:href="#m1f0ac9a799" y="163.320883"/>
     <use style="fill:#ff0000;stroke:#ff0000;" x="294.342472" xlink:href="#m1f0ac9a799" y="165.77697"/>
     <use style="fill:#ff0000;stroke:#ff0000;" x="298.355056" xlink:href="#m1f0ac9a799" y="163.750667"/>
     <use style="fill:#ff0000;stroke:#ff0000;" x="302.36764" xlink:href="#m1f0ac9a799" y="170.8759"/>
     <use style="fill:#ff0000;stroke:#ff0000;" x="306.380225" xlink:href="#m1f0ac9a799" y="171.201652"/>
     <use style="fill:#ff0000;stroke:#ff0000;" x="310.392809" xlink:href="#m1f0ac9a799" y="170.328104"/>
     <use style="fill:#ff0000;stroke:#ff0000;" x="314.405393" xlink:href="#m1f0ac9a799" y="172.542612"/>
     <use style="fill:#ff0000;stroke:#ff0000;" x="318.417978" xlink:href="#m1f0ac9a799" y="173.079739"/>
     <use style="fill:#ff0000;stroke:#ff0000;" x="322.430562" xlink:href="#m1f0ac9a799" y="175.047948"/>
     <use style="fill:#ff0000;stroke:#ff0000;" x="326.443146" xlink:href="#m1f0ac9a799" y="174.542348"/>
     <use style="fill:#ff0000;stroke:#ff0000;" x="330.45573" xlink:href="#m1f0ac9a799" y="177.916657"/>
     <use style="fill:#ff0000;stroke:#ff0000;" x="334.468315" xlink:href="#m1f0ac9a799" y="179.795299"/>
     <use style="fill:#ff0000;stroke:#ff0000;" x="338.480899" xlink:href="#m1f0ac9a799" y="179.455214"/>
     <use style="fill:#ff0000;stroke:#ff0000;" x="342.493483" xlink:href="#m1f0ac9a799" y="180.689643"/>
     <use style="fill:#ff0000;stroke:#ff0000;" x="346.506067" xlink:href="#m1f0ac9a799" y="183.260664"/>
     <use style="fill:#ff0000;stroke:#ff0000;" x="350.518652" xlink:href="#m1f0ac9a799" y="184.27804"/>
     <use style="fill:#ff0000;stroke:#ff0000;" x="354.531236" xlink:href="#m1f0ac9a799" y="184.264165"/>
     <use style="fill:#ff0000;stroke:#ff0000;" x="358.54382" xlink:href="#m1f0ac9a799" y="184.929759"/>
     <use style="fill:#ff0000;stroke:#ff0000;" x="362.556404" xlink:href="#m1f0ac9a799" y="184.024346"/>
     <use style="fill:#ff0000;stroke:#ff0000;" x="366.568989" xlink:href="#m1f0ac9a799" y="187.872049"/>
     <use style="fill:#ff0000;stroke:#ff0000;" x="370.581573" xlink:href="#m1f0ac9a799" y="188.929937"/>
     <use style="fill:#ff0000;stroke:#ff0000;" x="374.594157" xlink:href="#m1f0ac9a799" y="196.369713"/>
     <use style="fill:#ff0000;stroke:#ff0000;" x="378.606742" xlink:href="#m1f0ac9a799" y="194.118868"/>
     <use style="fill:#ff0000;stroke:#ff0000;" x="382.619326" xlink:href="#m1f0ac9a799" y="195.078707"/>
     <use style="fill:#ff0000;stroke:#ff0000;" x="386.63191" xlink:href="#m1f0ac9a799" y="194.921303"/>
     <use style="fill:#ff0000;stroke:#ff0000;" x="390.644494" xlink:href="#m1f0ac9a799" y="196.224669"/>
     <use style="fill:#ff0000;stroke:#ff0000;" x="394.657079" xlink:href="#m1f0ac9a799" y="199.544302"/>
     <use style="fill:#ff0000;stroke:#ff0000;" x="398.669663" xlink:href="#m1f0ac9a799" y="202.357527"/>
     <use style="fill:#ff0000;stroke:#ff0000;" x="402.682247" xlink:href="#m1f0ac9a799" y="204.513945"/>
     <use style="fill:#ff0000;stroke:#ff0000;" x="406.694831" xlink:href="#m1f0ac9a799" y="206.99872"/>
     <use style="fill:#ff0000;stroke:#ff0000;" x="410.707416" xlink:href="#m1f0ac9a799" y="225.517151"/>
    </g>
   </g>
   <g id="line2d_59">
    <path clip-path="url(#p926e1cc461)" d="M 61.612584 293.352044 
L 65.625169 269.910077 
L 69.637753 245.057044 
L 73.650337 224.919439 
L 77.662921 207.371546 
L 81.675506 191.905617 
L 85.68809 177.457301 
L 89.700674 165.499464 
L 93.713258 156.536077 
L 97.725843 140.825855 
L 101.738427 131.891129 
L 105.751011 126.968675 
L 109.763596 120.12546 
L 113.77618 114.628106 
L 117.788764 102.70254 
L 121.801348 95.511778 
L 125.813933 89.898017 
L 129.826517 91.08418 
L 133.839101 80.652302 
L 137.851685 77.934707 
L 141.86427 76.099791 
L 145.876854 77.028237 
L 149.889438 72.375327 
L 153.902022 70.261447 
L 157.914607 69.315588 
L 161.927191 69.129987 
L 165.939775 75.717292 
L 169.95236 75.35568 
L 173.964944 76.862667 
L 177.977528 80.096833 
L 181.990112 77.925434 
L 186.002697 81.556826 
L 190.015281 77.004582 
L 194.027865 84.464279 
L 198.040449 86.275062 
L 202.053034 79.585887 
L 206.065618 86.312846 
L 210.078202 97.042682 
L 214.090787 99.296208 
L 218.103371 109.309375 
L 222.115955 111.395522 
L 226.128539 116.992542 
L 230.141124 122.28813 
L 234.153708 122.086623 
L 238.166292 123.480018 
L 242.178876 126.616167 
L 246.191461 127.988952 
L 250.204045 130.045858 
L 254.216629 132.093908 
L 258.229213 131.57924 
L 262.241798 133.206483 
L 266.254382 135.299638 
L 270.266966 136.580765 
L 274.279551 138.356663 
L 278.292135 140.258881 
L 282.304719 145.650669 
L 286.317303 148.159287 
L 290.329888 151.713942 
L 294.342472 152.71565 
L 298.355056 151.485542 
L 302.36764 156.254464 
L 306.380225 156.647907 
L 310.392809 158.092949 
L 314.405393 160.072947 
L 318.417978 160.727324 
L 322.430562 161.527664 
L 326.443146 162.381237 
L 330.45573 164.835006 
L 334.468315 166.878577 
L 338.480899 166.931133 
L 342.493483 169.45034 
L 346.506067 169.995285 
L 350.518652 171.8897 
L 354.531236 172.898047 
L 358.54382 174.010852 
L 362.556404 174.307902 
L 366.568989 177.129625 
L 370.581573 180.069746 
L 374.594157 193.506522 
L 378.606742 183.362838 
L 382.619326 191.214548 
L 386.63191 191.144308 
L 390.644494 186.80028 
L 394.657079 189.226624 
L 398.669663 191.81492 
L 402.682247 193.894883 
L 406.694831 197.326267 
L 410.707416 214.998279 
" style="fill:none;stroke:#008000;stroke-dasharray:1.5,2.475;stroke-dashoffset:0;stroke-width:1.5;"/>
    <defs>
     <path d="M 0 1.5 
C 0.397805 1.5 0.77937 1.341951 1.06066 1.06066 
C 1.341951 0.77937 1.5 0.397805 1.5 0 
C 1.5 -0.397805 1.341951 -0.77937 1.06066 -1.06066 
C 0.77937 -1.341951 0.397805 -1.5 0 -1.5 
C -0.397805 -1.5 -0.77937 -1.341951 -1.06066 -1.06066 
C -1.341951 -0.77937 -1.5 -0.397805 -1.5 0 
C -1.5 0.397805 -1.341951 0.77937 -1.06066 1.06066 
C -0.77937 1.341951 -0.397805 1.5 0 1.5 
z
" id="m574745473d" style="stroke:#008000;"/>
    </defs>
    <g clip-path="url(#p926e1cc461)">
     <use style="fill:#008000;stroke:#008000;" x="61.612584" xlink:href="#m574745473d" y="293.352044"/>
     <use style="fill:#008000;stroke:#008000;" x="65.625169" xlink:href="#m574745473d" y="269.910077"/>
     <use style="fill:#008000;stroke:#008000;" x="69.637753" xlink:href="#m574745473d" y="245.057044"/>
     <use style="fill:#008000;stroke:#008000;" x="73.650337" xlink:href="#m574745473d" y="224.919439"/>
     <use style="fill:#008000;stroke:#008000;" x="77.662921" xlink:href="#m574745473d" y="207.371546"/>
     <use style="fill:#008000;stroke:#008000;" x="81.675506" xlink:href="#m574745473d" y="191.905617"/>
     <use style="fill:#008000;stroke:#008000;" x="85.68809" xlink:href="#m574745473d" y="177.457301"/>
     <use style="fill:#008000;stroke:#008000;" x="89.700674" xlink:href="#m574745473d" y="165.499464"/>
     <use style="fill:#008000;stroke:#008000;" x="93.713258" xlink:href="#m574745473d" y="156.536077"/>
     <use style="fill:#008000;stroke:#008000;" x="97.725843" xlink:href="#m574745473d" y="140.825855"/>
     <use style="fill:#008000;stroke:#008000;" x="101.738427" xlink:href="#m574745473d" y="131.891129"/>
     <use style="fill:#008000;stroke:#008000;" x="105.751011" xlink:href="#m574745473d" y="126.968675"/>
     <use style="fill:#008000;stroke:#008000;" x="109.763596" xlink:href="#m574745473d" y="120.12546"/>
     <use style="fill:#008000;stroke:#008000;" x="113.77618" xlink:href="#m574745473d" y="114.628106"/>
     <use style="fill:#008000;stroke:#008000;" x="117.788764" xlink:href="#m574745473d" y="102.70254"/>
     <use style="fill:#008000;stroke:#008000;" x="121.801348" xlink:href="#m574745473d" y="95.511778"/>
     <use style="fill:#008000;stroke:#008000;" x="125.813933" xlink:href="#m574745473d" y="89.898017"/>
     <use style="fill:#008000;stroke:#008000;" x="129.826517" xlink:href="#m574745473d" y="91.08418"/>
     <use style="fill:#008000;stroke:#008000;" x="133.839101" xlink:href="#m574745473d" y="80.652302"/>
     <use style="fill:#008000;stroke:#008000;" x="137.851685" xlink:href="#m574745473d" y="77.934707"/>
     <use style="fill:#008000;stroke:#008000;" x="141.86427" xlink:href="#m574745473d" y="76.099791"/>
     <use style="fill:#008000;stroke:#008000;" x="145.876854" xlink:href="#m574745473d" y="77.028237"/>
     <use style="fill:#008000;stroke:#008000;" x="149.889438" xlink:href="#m574745473d" y="72.375327"/>
     <use style="fill:#008000;stroke:#008000;" x="153.902022" xlink:href="#m574745473d" y="70.261447"/>
     <use style="fill:#008000;stroke:#008000;" x="157.914607" xlink:href="#m574745473d" y="69.315588"/>
     <use style="fill:#008000;stroke:#008000;" x="161.927191" xlink:href="#m574745473d" y="69.129987"/>
     <use style="fill:#008000;stroke:#008000;" x="165.939775" xlink:href="#m574745473d" y="75.717292"/>
     <use style="fill:#008000;stroke:#008000;" x="169.95236" xlink:href="#m574745473d" y="75.35568"/>
     <use style="fill:#008000;stroke:#008000;" x="173.964944" xlink:href="#m574745473d" y="76.862667"/>
     <use style="fill:#008000;stroke:#008000;" x="177.977528" xlink:href="#m574745473d" y="80.096833"/>
     <use style="fill:#008000;stroke:#008000;" x="181.990112" xlink:href="#m574745473d" y="77.925434"/>
     <use style="fill:#008000;stroke:#008000;" x="186.002697" xlink:href="#m574745473d" y="81.556826"/>
     <use style="fill:#008000;stroke:#008000;" x="190.015281" xlink:href="#m574745473d" y="77.004582"/>
     <use style="fill:#008000;stroke:#008000;" x="194.027865" xlink:href="#m574745473d" y="84.464279"/>
     <use style="fill:#008000;stroke:#008000;" x="198.040449" xlink:href="#m574745473d" y="86.275062"/>
     <use style="fill:#008000;stroke:#008000;" x="202.053034" xlink:href="#m574745473d" y="79.585887"/>
     <use style="fill:#008000;stroke:#008000;" x="206.065618" xlink:href="#m574745473d" y="86.312846"/>
     <use style="fill:#008000;stroke:#008000;" x="210.078202" xlink:href="#m574745473d" y="97.042682"/>
     <use style="fill:#008000;stroke:#008000;" x="214.090787" xlink:href="#m574745473d" y="99.296208"/>
     <use style="fill:#008000;stroke:#008000;" x="218.103371" xlink:href="#m574745473d" y="109.309375"/>
     <use style="fill:#008000;stroke:#008000;" x="222.115955" xlink:href="#m574745473d" y="111.395522"/>
     <use style="fill:#008000;stroke:#008000;" x="226.128539" xlink:href="#m574745473d" y="116.992542"/>
     <use style="fill:#008000;stroke:#008000;" x="230.141124" xlink:href="#m574745473d" y="122.28813"/>
     <use style="fill:#008000;stroke:#008000;" x="234.153708" xlink:href="#m574745473d" y="122.086623"/>
     <use style="fill:#008000;stroke:#008000;" x="238.166292" xlink:href="#m574745473d" y="123.480018"/>
     <use style="fill:#008000;stroke:#008000;" x="242.178876" xlink:href="#m574745473d" y="126.616167"/>
     <use style="fill:#008000;stroke:#008000;" x="246.191461" xlink:href="#m574745473d" y="127.988952"/>
     <use style="fill:#008000;stroke:#008000;" x="250.204045" xlink:href="#m574745473d" y="130.045858"/>
     <use style="fill:#008000;stroke:#008000;" x="254.216629" xlink:href="#m574745473d" y="132.093908"/>
     <use style="fill:#008000;stroke:#008000;" x="258.229213" xlink:href="#m574745473d" y="131.57924"/>
     <use style="fill:#008000;stroke:#008000;" x="262.241798" xlink:href="#m574745473d" y="133.206483"/>
     <use style="fill:#008000;stroke:#008000;" x="266.254382" xlink:href="#m574745473d" y="135.299638"/>
     <use style="fill:#008000;stroke:#008000;" x="270.266966" xlink:href="#m574745473d" y="136.580765"/>
     <use style="fill:#008000;stroke:#008000;" x="274.279551" xlink:href="#m574745473d" y="138.356663"/>
     <use style="fill:#008000;stroke:#008000;" x="278.292135" xlink:href="#m574745473d" y="140.258881"/>
     <use style="fill:#008000;stroke:#008000;" x="282.304719" xlink:href="#m574745473d" y="145.650669"/>
     <use style="fill:#008000;stroke:#008000;" x="286.317303" xlink:href="#m574745473d" y="148.159287"/>
     <use style="fill:#008000;stroke:#008000;" x="290.329888" xlink:href="#m574745473d" y="151.713942"/>
     <use style="fill:#008000;stroke:#008000;" x="294.342472" xlink:href="#m574745473d" y="152.71565"/>
     <use style="fill:#008000;stroke:#008000;" x="298.355056" xlink:href="#m574745473d" y="151.485542"/>
     <use style="fill:#008000;stroke:#008000;" x="302.36764" xlink:href="#m574745473d" y="156.254464"/>
     <use style="fill:#008000;stroke:#008000;" x="306.380225" xlink:href="#m574745473d" y="156.647907"/>
     <use style="fill:#008000;stroke:#008000;" x="310.392809" xlink:href="#m574745473d" y="158.092949"/>
     <use style="fill:#008000;stroke:#008000;" x="314.405393" xlink:href="#m574745473d" y="160.072947"/>
     <use style="fill:#008000;stroke:#008000;" x="318.417978" xlink:href="#m574745473d" y="160.727324"/>
     <use style="fill:#008000;stroke:#008000;" x="322.430562" xlink:href="#m574745473d" y="161.527664"/>
     <use style="fill:#008000;stroke:#008000;" x="326.443146" xlink:href="#m574745473d" y="162.381237"/>
     <use style="fill:#008000;stroke:#008000;" x="330.45573" xlink:href="#m574745473d" y="164.835006"/>
     <use style="fill:#008000;stroke:#008000;" x="334.468315" xlink:href="#m574745473d" y="166.878577"/>
     <use style="fill:#008000;stroke:#008000;" x="338.480899" xlink:href="#m574745473d" y="166.931133"/>
     <use style="fill:#008000;stroke:#008000;" x="342.493483" xlink:href="#m574745473d" y="169.45034"/>
     <use style="fill:#008000;stroke:#008000;" x="346.506067" xlink:href="#m574745473d" y="169.995285"/>
     <use style="fill:#008000;stroke:#008000;" x="350.518652" xlink:href="#m574745473d" y="171.8897"/>
     <use style="fill:#008000;stroke:#008000;" x="354.531236" xlink:href="#m574745473d" y="172.898047"/>
     <use style="fill:#008000;stroke:#008000;" x="358.54382" xlink:href="#m574745473d" y="174.010852"/>
     <use style="fill:#008000;stroke:#008000;" x="362.556404" xlink:href="#m574745473d" y="174.307902"/>
     <use style="fill:#008000;stroke:#008000;" x="366.568989" xlink:href="#m574745473d" y="177.129625"/>
     <use style="fill:#008000;stroke:#008000;" x="370.581573" xlink:href="#m574745473d" y="180.069746"/>
     <use style="fill:#008000;stroke:#008000;" x="374.594157" xlink:href="#m574745473d" y="193.506522"/>
     <use style="fill:#008000;stroke:#008000;" x="378.606742" xlink:href="#m574745473d" y="183.362838"/>
     <use style="fill:#008000;stroke:#008000;" x="382.619326" xlink:href="#m574745473d" y="191.214548"/>
     <use style="fill:#008000;stroke:#008000;" x="386.63191" xlink:href="#m574745473d" y="191.144308"/>
     <use style="fill:#008000;stroke:#008000;" x="390.644494" xlink:href="#m574745473d" y="186.80028"/>
     <use style="fill:#008000;stroke:#008000;" x="394.657079" xlink:href="#m574745473d" y="189.226624"/>
     <use style="fill:#008000;stroke:#008000;" x="398.669663" xlink:href="#m574745473d" y="191.81492"/>
     <use style="fill:#008000;stroke:#008000;" x="402.682247" xlink:href="#m574745473d" y="193.894883"/>
     <use style="fill:#008000;stroke:#008000;" x="406.694831" xlink:href="#m574745473d" y="197.326267"/>
     <use style="fill:#008000;stroke:#008000;" x="410.707416" xlink:href="#m574745473d" y="214.998279"/>
    </g>
   </g>
   <g id="patch_3">
    <path d="M 57.6 307.584 
L 57.6 41.472 
" style="fill:none;stroke:#000000;stroke-linecap:square;stroke-linejoin:miter;stroke-width:0.8;"/>
   </g>
   <g id="patch_4">
    <path d="M 414.72 307.584 
L 414.72 41.472 
" style="fill:none;stroke:#000000;stroke-linecap:square;stroke-linejoin:miter;stroke-width:0.8;"/>
   </g>
   <g id="patch_5">
    <path d="M 57.6 307.584 
L 414.72 307.584 
" style="fill:none;stroke:#000000;stroke-linecap:square;stroke-linejoin:miter;stroke-width:0.8;"/>
   </g>
   <g id="patch_6">
    <path d="M 57.6 41.472 
L 414.72 41.472 
" style="fill:none;stroke:#000000;stroke-linecap:square;stroke-linejoin:miter;stroke-width:0.8;"/>
   </g>
   <g id="text_31">
    <!-- radix sort 3 on Stanford_Berkeley -->
    <g transform="translate(135.726562 35.472)scale(0.12 -0.12)">
     <defs>
      <path d="M 9.421875 54.6875 
L 18.40625 54.6875 
L 18.40625 0 
L 9.421875 0 
z
M 9.421875 75.984375 
L 18.40625 75.984375 
L 18.40625 64.59375 
L 9.421875 64.59375 
z
" id="DejaVuSans-105"/>
      <path d="M 54.890625 54.6875 
L 35.109375 28.078125 
L 55.90625 0 
L 45.3125 0 
L 29.390625 21.484375 
L 13.484375 0 
L 2.875 0 
L 24.125 28.609375 
L 4.6875 54.6875 
L 15.28125 54.6875 
L 29.78125 35.203125 
L 44.28125 54.6875 
z
" id="DejaVuSans-120"/>
      <path d="M 30.609375 48.390625 
Q 23.390625 48.390625 19.1875 42.75 
Q 14.984375 37.109375 14.984375 27.296875 
Q 14.984375 17.484375 19.15625 11.84375 
Q 23.34375 6.203125 30.609375 6.203125 
Q 37.796875 6.203125 41.984375 11.859375 
Q 46.1875 17.53125 46.1875 27.296875 
Q 46.1875 37.015625 41.984375 42.703125 
Q 37.796875 48.390625 30.609375 48.390625 
z
M 30.609375 56 
Q 42.328125 56 49.015625 48.375 
Q 55.71875 40.765625 55.71875 27.296875 
Q 55.71875 13.875 49.015625 6.21875 
Q 42.328125 -1.421875 30.609375 -1.421875 
Q 18.84375 -1.421875 12.171875 6.21875 
Q 5.515625 13.875 5.515625 27.296875 
Q 5.515625 40.765625 12.171875 48.375 
Q 18.84375 56 30.609375 56 
z
" id="DejaVuSans-111"/>
      <path d="M 54.890625 33.015625 
L 54.890625 0 
L 45.90625 0 
L 45.90625 32.71875 
Q 45.90625 40.484375 42.875 44.328125 
Q 39.84375 48.1875 33.796875 48.1875 
Q 26.515625 48.1875 22.3125 43.546875 
Q 18.109375 38.921875 18.109375 30.90625 
L 18.109375 0 
L 9.078125 0 
L 9.078125 54.6875 
L 18.109375 54.6875 
L 18.109375 46.1875 
Q 21.34375 51.125 25.703125 53.5625 
Q 30.078125 56 35.796875 56 
Q 45.21875 56 50.046875 50.171875 
Q 54.890625 44.34375 54.890625 33.015625 
z
" id="DejaVuSans-110"/>
      <path d="M 53.515625 70.515625 
L 53.515625 60.890625 
Q 47.90625 63.578125 42.921875 64.890625 
Q 37.9375 66.21875 33.296875 66.21875 
Q 25.25 66.21875 20.875 63.09375 
Q 16.5 59.96875 16.5 54.203125 
Q 16.5 49.359375 19.40625 46.890625 
Q 22.3125 44.4375 30.421875 42.921875 
L 36.375 41.703125 
Q 47.40625 39.59375 52.65625 34.296875 
Q 57.90625 29 57.90625 20.125 
Q 57.90625 9.515625 50.796875 4.046875 
Q 43.703125 -1.421875 29.984375 -1.421875 
Q 24.8125 -1.421875 18.96875 -0.25 
Q 13.140625 0.921875 6.890625 3.21875 
L 6.890625 13.375 
Q 12.890625 10.015625 18.65625 8.296875 
Q 24.421875 6.59375 29.984375 6.59375 
Q 38.421875 6.59375 43.015625 9.90625 
Q 47.609375 13.234375 47.609375 19.390625 
Q 47.609375 24.75 44.3125 27.78125 
Q 41.015625 30.8125 33.5 32.328125 
L 27.484375 33.5 
Q 16.453125 35.6875 11.515625 40.375 
Q 6.59375 45.0625 6.59375 53.421875 
Q 6.59375 63.09375 13.40625 68.65625 
Q 20.21875 74.21875 32.171875 74.21875 
Q 37.3125 74.21875 42.625 73.28125 
Q 47.953125 72.359375 53.515625 70.515625 
z
" id="DejaVuSans-83"/>
      <path d="M 37.109375 75.984375 
L 37.109375 68.5 
L 28.515625 68.5 
Q 23.6875 68.5 21.796875 66.546875 
Q 19.921875 64.59375 19.921875 59.515625 
L 19.921875 54.6875 
L 34.71875 54.6875 
L 34.71875 47.703125 
L 19.921875 47.703125 
L 19.921875 0 
L 10.890625 0 
L 10.890625 47.703125 
L 2.296875 47.703125 
L 2.296875 54.6875 
L 10.890625 54.6875 
L 10.890625 58.5 
Q 10.890625 67.625 15.140625 71.796875 
Q 19.390625 75.984375 28.609375 75.984375 
z
" id="DejaVuSans-102"/>
      <path d="M 50.984375 -16.609375 
L 50.984375 -23.578125 
L -0.984375 -23.578125 
L -0.984375 -16.609375 
z
" id="DejaVuSans-95"/>
      <path d="M 19.671875 34.8125 
L 19.671875 8.109375 
L 35.5 8.109375 
Q 43.453125 8.109375 47.28125 11.40625 
Q 51.125 14.703125 51.125 21.484375 
Q 51.125 28.328125 47.28125 31.5625 
Q 43.453125 34.8125 35.5 34.8125 
z
M 19.671875 64.796875 
L 19.671875 42.828125 
L 34.28125 42.828125 
Q 41.5 42.828125 45.03125 45.53125 
Q 48.578125 48.25 48.578125 53.8125 
Q 48.578125 59.328125 45.03125 62.0625 
Q 41.5 64.796875 34.28125 64.796875 
z
M 9.8125 72.90625 
L 35.015625 72.90625 
Q 46.296875 72.90625 52.390625 68.21875 
Q 58.5 63.53125 58.5 54.890625 
Q 58.5 48.1875 55.375 44.234375 
Q 52.25 40.28125 46.1875 39.3125 
Q 53.46875 37.75 57.5 32.78125 
Q 61.53125 27.828125 61.53125 20.40625 
Q 61.53125 10.640625 54.890625 5.3125 
Q 48.25 0 35.984375 0 
L 9.8125 0 
z
" id="DejaVuSans-66"/>
      <path d="M 9.078125 75.984375 
L 18.109375 75.984375 
L 18.109375 31.109375 
L 44.921875 54.6875 
L 56.390625 54.6875 
L 27.390625 29.109375 
L 57.625 0 
L 45.90625 0 
L 18.109375 26.703125 
L 18.109375 0 
L 9.078125 0 
z
" id="DejaVuSans-107"/>
      <path d="M 9.421875 75.984375 
L 18.40625 75.984375 
L 18.40625 0 
L 9.421875 0 
z
" id="DejaVuSans-108"/>
      <path d="M 32.171875 -5.078125 
Q 28.375 -14.84375 24.75 -17.8125 
Q 21.140625 -20.796875 15.09375 -20.796875 
L 7.90625 -20.796875 
L 7.90625 -13.28125 
L 13.1875 -13.28125 
Q 16.890625 -13.28125 18.9375 -11.515625 
Q 21 -9.765625 23.484375 -3.21875 
L 25.09375 0.875 
L 2.984375 54.6875 
L 12.5 54.6875 
L 29.59375 11.921875 
L 46.6875 54.6875 
L 56.203125 54.6875 
z
" id="DejaVuSans-121"/>
     </defs>
     <use xlink:href="#DejaVuSans-114"/>
     <use x="41.113281" xlink:href="#DejaVuSans-97"/>
     <use x="102.392578" xlink:href="#DejaVuSans-100"/>
     <use x="165.869141" xlink:href="#DejaVuSans-105"/>
     <use x="193.652344" xlink:href="#DejaVuSans-120"/>
     <use x="252.832031" xlink:href="#DejaVuSans-32"/>
     <use x="284.619141" xlink:href="#DejaVuSans-115"/>
     <use x="336.71875" xlink:href="#DejaVuSans-111"/>
     <use x="397.900391" xlink:href="#DejaVuSans-114"/>
     <use x="439.013672" xlink:href="#DejaVuSans-116"/>
     <use x="478.222656" xlink:href="#DejaVuSans-32"/>
     <use x="510.009766" xlink:href="#DejaVuSans-51"/>
     <use x="573.632812" xlink:href="#DejaVuSans-32"/>
     <use x="605.419922" xlink:href="#DejaVuSans-111"/>
     <use x="666.601562" xlink:href="#DejaVuSans-110"/>
     <use x="729.980469" xlink:href="#DejaVuSans-32"/>
     <use x="761.767578" xlink:href="#DejaVuSans-83"/>
     <use x="825.244141" xlink:href="#DejaVuSans-116"/>
     <use x="864.453125" xlink:href="#DejaVuSans-97"/>
     <use x="925.732422" xlink:href="#DejaVuSans-110"/>
     <use x="989.111328" xlink:href="#DejaVuSans-102"/>
     <use x="1024.316406" xlink:href="#DejaVuSans-111"/>
     <use x="1085.498047" xlink:href="#DejaVuSans-114"/>
     <use x="1124.861328" xlink:href="#DejaVuSans-100"/>
     <use x="1188.337891" xlink:href="#DejaVuSans-95"/>
     <use x="1238.337891" xlink:href="#DejaVuSans-66"/>
     <use x="1306.941406" xlink:href="#DejaVuSans-101"/>
     <use x="1368.464844" xlink:href="#DejaVuSans-114"/>
     <use x="1409.578125" xlink:href="#DejaVuSans-107"/>
     <use x="1463.863281" xlink:href="#DejaVuSans-101"/>
     <use x="1525.386719" xlink:href="#DejaVuSans-108"/>
     <use x="1553.169922" xlink:href="#DejaVuSans-101"/>
     <use x="1614.693359" xlink:href="#DejaVuSans-121"/>
    </g>
   </g>
   <g id="legend_1">
    <g id="patch_7">
     <path d="M 313.152813 93.7845 
L 407.72 93.7845 
Q 409.72 93.7845 409.72 91.7845 
L 409.72 48.472 
Q 409.72 46.472 407.72 46.472 
L 313.152813 46.472 
Q 311.152813 46.472 311.152813 48.472 
L 311.152813 91.7845 
Q 311.152813 93.7845 313.152813 93.7845 
z
" style="fill:#ffffff;opacity:0.8;stroke:#cccccc;stroke-linejoin:miter;"/>
    </g>
    <g id="line2d_60">
     <path d="M 315.152813 54.570438 
L 335.152813 54.570438 
" style="fill:none;stroke:#0000ff;stroke-dasharray:1.5,2.475;stroke-dashoffset:0;stroke-width:1.5;"/>
    </g>
    <g id="line2d_61">
     <g>
      <use style="fill:#0000ff;stroke:#0000ff;" x="325.152813" xlink:href="#m3ac3327c1b" y="54.570438"/>
     </g>
    </g>
    <g id="text_32">
     <!-- transpose -->
     <g transform="translate(343.152813 58.070438)scale(0.1 -0.1)">
      <use xlink:href="#DejaVuSans-116"/>
      <use x="39.208984" xlink:href="#DejaVuSans-114"/>
      <use x="80.322266" xlink:href="#DejaVuSans-97"/>
      <use x="141.601562" xlink:href="#DejaVuSans-110"/>
      <use x="204.980469" xlink:href="#DejaVuSans-115"/>
      <use x="257.080078" xlink:href="#DejaVuSans-112"/>
      <use x="320.556641" xlink:href="#DejaVuSans-111"/>
      <use x="381.738281" xlink:href="#DejaVuSans-115"/>
      <use x="433.837891" xlink:href="#DejaVuSans-101"/>
     </g>
    </g>
    <g id="line2d_62">
     <path d="M 315.152813 69.248563 
L 335.152813 69.248563 
" style="fill:none;stroke:#ff0000;stroke-dasharray:1.5,2.475;stroke-dashoffset:0;stroke-width:1.5;"/>
    </g>
    <g id="line2d_63">
     <g>
      <use style="fill:#ff0000;stroke:#ff0000;" x="325.152813" xlink:href="#m1f0ac9a799" y="69.248563"/>
     </g>
    </g>
    <g id="text_33">
     <!-- transpose_tr -->
     <g transform="translate(343.152813 72.748563)scale(0.1 -0.1)">
      <use xlink:href="#DejaVuSans-116"/>
      <use x="39.208984" xlink:href="#DejaVuSans-114"/>
      <use x="80.322266" xlink:href="#DejaVuSans-97"/>
      <use x="141.601562" xlink:href="#DejaVuSans-110"/>
      <use x="204.980469" xlink:href="#DejaVuSans-115"/>
      <use x="257.080078" xlink:href="#DejaVuSans-112"/>
      <use x="320.556641" xlink:href="#DejaVuSans-111"/>
      <use x="381.738281" xlink:href="#DejaVuSans-115"/>
      <use x="433.837891" xlink:href="#DejaVuSans-101"/>
      <use x="495.361328" xlink:href="#DejaVuSans-95"/>
      <use x="545.361328" xlink:href="#DejaVuSans-116"/>
      <use x="584.570312" xlink:href="#DejaVuSans-114"/>
     </g>
    </g>
    <g id="line2d_64">
     <path d="M 315.152813 84.204813 
L 335.152813 84.204813 
" style="fill:none;stroke:#008000;stroke-dasharray:1.5,2.475;stroke-dashoffset:0;stroke-width:1.5;"/>
    </g>
    <g id="line2d_65">
     <g>
      <use style="fill:#008000;stroke:#008000;" x="325.152813" xlink:href="#m574745473d" y="84.204813"/>
     </g>
    </g>
    <g id="text_34">
     <!-- mean -->
     <g transform="translate(343.152813 87.704813)scale(0.1 -0.1)">
      <defs>
       <path d="M 52 44.1875 
Q 55.375 50.25 60.0625 53.125 
Q 64.75 56 71.09375 56 
Q 79.640625 56 84.28125 50.015625 
Q 88.921875 44.046875 88.921875 33.015625 
L 88.921875 0 
L 79.890625 0 
L 79.890625 32.71875 
Q 79.890625 40.578125 77.09375 44.375 
Q 74.3125 48.1875 68.609375 48.1875 
Q 61.625 48.1875 57.5625 43.546875 
Q 53.515625 38.921875 53.515625 30.90625 
L 53.515625 0 
L 44.484375 0 
L 44.484375 32.71875 
Q 44.484375 40.625 41.703125 44.40625 
Q 38.921875 48.1875 33.109375 48.1875 
Q 26.21875 48.1875 22.15625 43.53125 
Q 18.109375 38.875 18.109375 30.90625 
L 18.109375 0 
L 9.078125 0 
L 9.078125 54.6875 
L 18.109375 54.6875 
L 18.109375 46.1875 
Q 21.1875 51.21875 25.484375 53.609375 
Q 29.78125 56 35.6875 56 
Q 41.65625 56 45.828125 52.96875 
Q 50 49.953125 52 44.1875 
z
" id="DejaVuSans-109"/>
      </defs>
      <use xlink:href="#DejaVuSans-109"/>
      <use x="97.412109" xlink:href="#DejaVuSans-101"/>
      <use x="158.935547" xlink:href="#DejaVuSans-97"/>
      <use x="220.214844" xlink:href="#DejaVuSans-110"/>
     </g>
    </g>
   </g>
  </g>
 </g>
 <defs>
  <clipPath id="p926e1cc461">
   <rect height="266.112" width="357.12" x="57.6" y="41.472"/>
  </clipPath>
 </defs>
</svg>
