<?xml version="1.0" encoding="utf-8" standalone="no"?>
<!DOCTYPE svg PUBLIC "-//W3C//DTD SVG 1.1//EN"
  "http://www.w3.org/Graphics/SVG/1.1/DTD/svg11.dtd">
<!-- Created with matplotlib (https://matplotlib.org/) -->
<svg height="345.6pt" version="1.1" viewBox="0 0 460.8 345.6" width="460.8pt" xmlns="http://www.w3.org/2000/svg" xmlns:xlink="http://www.w3.org/1999/xlink">
 <metadata>
  <rdf:RDF xmlns:cc="http://creativecommons.org/ns#" xmlns:dc="http://purl.org/dc/elements/1.1/" xmlns:rdf="http://www.w3.org/1999/02/22-rdf-syntax-ns#">
   <cc:Work>
    <dc:type rdf:resource="http://purl.org/dc/dcmitype/StillImage"/>
    <dc:date>2020-08-27T10:04:58.735805</dc:date>
    <dc:format>image/svg+xml</dc:format>
    <dc:creator>
     <cc:Agent>
      <dc:title>Matplotlib v3.3.1, https://matplotlib.org/</dc:title>
     </cc:Agent>
    </dc:creator>
   </cc:Work>
  </rdf:RDF>
 </metadata>
 <defs>
  <style type="text/css">*{stroke-linecap:butt;stroke-linejoin:round;}</style>
 </defs>
 <g id="figure_1">
  <g id="patch_1">
   <path d="M 0 345.6 
L 460.8 345.6 
L 460.8 0 
L 0 0 
z
" style="fill:#ffffff;"/>
  </g>
  <g id="axes_1">
   <g id="patch_2">
    <path d="M 57.6 307.584 
L 414.72 307.584 
L 414.72 41.472 
L 57.6 41.472 
z
" style="fill:#ffffff;"/>
   </g>
   <g id="matplotlib.axis_1">
    <g id="xtick_1">
     <g id="line2d_1">
      <path clip-path="url(#p84ee4551fc)" d="M 61.612584 307.584 
L 61.612584 41.472 
" style="fill:none;stroke:#b0b0b0;stroke-dasharray:5.12,1.28,0.8,1.28;stroke-dashoffset:0;stroke-width:0.8;"/>
     </g>
     <g id="line2d_2">
      <defs>
       <path d="M 0 0 
L 0 3.5 
" id="mf2aa4cbcdf" style="stroke:#000000;stroke-width:0.8;"/>
      </defs>
      <g>
       <use style="stroke:#000000;stroke-width:0.8;" x="61.612584" xlink:href="#mf2aa4cbcdf" y="307.584"/>
      </g>
     </g>
     <g id="text_1">
      <!-- 1 -->
      <g transform="translate(58.431334 322.182437)scale(0.1 -0.1)">
       <defs>
        <path d="M 12.40625 8.296875 
L 28.515625 8.296875 
L 28.515625 63.921875 
L 10.984375 60.40625 
L 10.984375 69.390625 
L 28.421875 72.90625 
L 38.28125 72.90625 
L 38.28125 8.296875 
L 54.390625 8.296875 
L 54.390625 0 
L 12.40625 0 
z
" id="DejaVuSans-49"/>
       </defs>
       <use xlink:href="#DejaVuSans-49"/>
      </g>
     </g>
    </g>
    <g id="xtick_2">
     <g id="line2d_3">
      <path clip-path="url(#p84ee4551fc)" d="M 73.650337 307.584 
L 73.650337 41.472 
" style="fill:none;stroke:#b0b0b0;stroke-dasharray:5.12,1.28,0.8,1.28;stroke-dashoffset:0;stroke-width:0.8;"/>
     </g>
     <g id="line2d_4">
      <g>
       <use style="stroke:#000000;stroke-width:0.8;" x="73.650337" xlink:href="#mf2aa4cbcdf" y="307.584"/>
      </g>
     </g>
     <g id="text_2">
      <!-- 4 -->
      <g transform="translate(70.469087 322.182437)scale(0.1 -0.1)">
       <defs>
        <path d="M 37.796875 64.3125 
L 12.890625 25.390625 
L 37.796875 25.390625 
z
M 35.203125 72.90625 
L 47.609375 72.90625 
L 47.609375 25.390625 
L 58.015625 25.390625 
L 58.015625 17.1875 
L 47.609375 17.1875 
L 47.609375 0 
L 37.796875 0 
L 37.796875 17.1875 
L 4.890625 17.1875 
L 4.890625 26.703125 
z
" id="DejaVuSans-52"/>
       </defs>
       <use xlink:href="#DejaVuSans-52"/>
      </g>
     </g>
    </g>
    <g id="xtick_3">
     <g id="line2d_5">
      <path clip-path="url(#p84ee4551fc)" d="M 89.700674 307.584 
L 89.700674 41.472 
" style="fill:none;stroke:#b0b0b0;stroke-dasharray:5.12,1.28,0.8,1.28;stroke-dashoffset:0;stroke-width:0.8;"/>
     </g>
     <g id="line2d_6">
      <g>
       <use style="stroke:#000000;stroke-width:0.8;" x="89.700674" xlink:href="#mf2aa4cbcdf" y="307.584"/>
      </g>
     </g>
     <g id="text_3">
      <!-- 8 -->
      <g transform="translate(86.519424 322.182437)scale(0.1 -0.1)">
       <defs>
        <path d="M 31.78125 34.625 
Q 24.75 34.625 20.71875 30.859375 
Q 16.703125 27.09375 16.703125 20.515625 
Q 16.703125 13.921875 20.71875 10.15625 
Q 24.75 6.390625 31.78125 6.390625 
Q 38.8125 6.390625 42.859375 10.171875 
Q 46.921875 13.96875 46.921875 20.515625 
Q 46.921875 27.09375 42.890625 30.859375 
Q 38.875 34.625 31.78125 34.625 
z
M 21.921875 38.8125 
Q 15.578125 40.375 12.03125 44.71875 
Q 8.5 49.078125 8.5 55.328125 
Q 8.5 64.0625 14.71875 69.140625 
Q 20.953125 74.21875 31.78125 74.21875 
Q 42.671875 74.21875 48.875 69.140625 
Q 55.078125 64.0625 55.078125 55.328125 
Q 55.078125 49.078125 51.53125 44.71875 
Q 48 40.375 41.703125 38.8125 
Q 48.828125 37.15625 52.796875 32.3125 
Q 56.78125 27.484375 56.78125 20.515625 
Q 56.78125 9.90625 50.3125 4.234375 
Q 43.84375 -1.421875 31.78125 -1.421875 
Q 19.734375 -1.421875 13.25 4.234375 
Q 6.78125 9.90625 6.78125 20.515625 
Q 6.78125 27.484375 10.78125 32.3125 
Q 14.796875 37.15625 21.921875 38.8125 
z
M 18.3125 54.390625 
Q 18.3125 48.734375 21.84375 45.5625 
Q 25.390625 42.390625 31.78125 42.390625 
Q 38.140625 42.390625 41.71875 45.5625 
Q 45.3125 48.734375 45.3125 54.390625 
Q 45.3125 60.0625 41.71875 63.234375 
Q 38.140625 66.40625 31.78125 66.40625 
Q 25.390625 66.40625 21.84375 63.234375 
Q 18.3125 60.0625 18.3125 54.390625 
z
" id="DejaVuSans-56"/>
       </defs>
       <use xlink:href="#DejaVuSans-56"/>
      </g>
     </g>
    </g>
    <g id="xtick_4">
     <g id="line2d_7">
      <path clip-path="url(#p84ee4551fc)" d="M 105.751011 307.584 
L 105.751011 41.472 
" style="fill:none;stroke:#b0b0b0;stroke-dasharray:5.12,1.28,0.8,1.28;stroke-dashoffset:0;stroke-width:0.8;"/>
     </g>
     <g id="line2d_8">
      <g>
       <use style="stroke:#000000;stroke-width:0.8;" x="105.751011" xlink:href="#mf2aa4cbcdf" y="307.584"/>
      </g>
     </g>
     <g id="text_4">
      <!-- 12 -->
      <g transform="translate(99.388511 322.182437)scale(0.1 -0.1)">
       <defs>
        <path d="M 19.1875 8.296875 
L 53.609375 8.296875 
L 53.609375 0 
L 7.328125 0 
L 7.328125 8.296875 
Q 12.9375 14.109375 22.625 23.890625 
Q 32.328125 33.6875 34.8125 36.53125 
Q 39.546875 41.84375 41.421875 45.53125 
Q 43.3125 49.21875 43.3125 52.78125 
Q 43.3125 58.59375 39.234375 62.25 
Q 35.15625 65.921875 28.609375 65.921875 
Q 23.96875 65.921875 18.8125 64.3125 
Q 13.671875 62.703125 7.8125 59.421875 
L 7.8125 69.390625 
Q 13.765625 71.78125 18.9375 73 
Q 24.125 74.21875 28.421875 74.21875 
Q 39.75 74.21875 46.484375 68.546875 
Q 53.21875 62.890625 53.21875 53.421875 
Q 53.21875 48.921875 51.53125 44.890625 
Q 49.859375 40.875 45.40625 35.40625 
Q 44.1875 33.984375 37.640625 27.21875 
Q 31.109375 20.453125 19.1875 8.296875 
z
" id="DejaVuSans-50"/>
       </defs>
       <use xlink:href="#DejaVuSans-49"/>
       <use x="63.623047" xlink:href="#DejaVuSans-50"/>
      </g>
     </g>
    </g>
    <g id="xtick_5">
     <g id="line2d_9">
      <path clip-path="url(#p84ee4551fc)" d="M 121.801348 307.584 
L 121.801348 41.472 
" style="fill:none;stroke:#b0b0b0;stroke-dasharray:5.12,1.28,0.8,1.28;stroke-dashoffset:0;stroke-width:0.8;"/>
     </g>
     <g id="line2d_10">
      <g>
       <use style="stroke:#000000;stroke-width:0.8;" x="121.801348" xlink:href="#mf2aa4cbcdf" y="307.584"/>
      </g>
     </g>
     <g id="text_5">
      <!-- 16 -->
      <g transform="translate(115.438848 322.182437)scale(0.1 -0.1)">
       <defs>
        <path d="M 33.015625 40.375 
Q 26.375 40.375 22.484375 35.828125 
Q 18.609375 31.296875 18.609375 23.390625 
Q 18.609375 15.53125 22.484375 10.953125 
Q 26.375 6.390625 33.015625 6.390625 
Q 39.65625 6.390625 43.53125 10.953125 
Q 47.40625 15.53125 47.40625 23.390625 
Q 47.40625 31.296875 43.53125 35.828125 
Q 39.65625 40.375 33.015625 40.375 
z
M 52.59375 71.296875 
L 52.59375 62.3125 
Q 48.875 64.0625 45.09375 64.984375 
Q 41.3125 65.921875 37.59375 65.921875 
Q 27.828125 65.921875 22.671875 59.328125 
Q 17.53125 52.734375 16.796875 39.40625 
Q 19.671875 43.65625 24.015625 45.921875 
Q 28.375 48.1875 33.59375 48.1875 
Q 44.578125 48.1875 50.953125 41.515625 
Q 57.328125 34.859375 57.328125 23.390625 
Q 57.328125 12.15625 50.6875 5.359375 
Q 44.046875 -1.421875 33.015625 -1.421875 
Q 20.359375 -1.421875 13.671875 8.265625 
Q 6.984375 17.96875 6.984375 36.375 
Q 6.984375 53.65625 15.1875 63.9375 
Q 23.390625 74.21875 37.203125 74.21875 
Q 40.921875 74.21875 44.703125 73.484375 
Q 48.484375 72.75 52.59375 71.296875 
z
" id="DejaVuSans-54"/>
       </defs>
       <use xlink:href="#DejaVuSans-49"/>
       <use x="63.623047" xlink:href="#DejaVuSans-54"/>
      </g>
     </g>
    </g>
    <g id="xtick_6">
     <g id="line2d_11">
      <path clip-path="url(#p84ee4551fc)" d="M 137.851685 307.584 
L 137.851685 41.472 
" style="fill:none;stroke:#b0b0b0;stroke-dasharray:5.12,1.28,0.8,1.28;stroke-dashoffset:0;stroke-width:0.8;"/>
     </g>
     <g id="line2d_12">
      <g>
       <use style="stroke:#000000;stroke-width:0.8;" x="137.851685" xlink:href="#mf2aa4cbcdf" y="307.584"/>
      </g>
     </g>
     <g id="text_6">
      <!-- 20 -->
      <g transform="translate(131.489185 322.182437)scale(0.1 -0.1)">
       <defs>
        <path d="M 31.78125 66.40625 
Q 24.171875 66.40625 20.328125 58.90625 
Q 16.5 51.421875 16.5 36.375 
Q 16.5 21.390625 20.328125 13.890625 
Q 24.171875 6.390625 31.78125 6.390625 
Q 39.453125 6.390625 43.28125 13.890625 
Q 47.125 21.390625 47.125 36.375 
Q 47.125 51.421875 43.28125 58.90625 
Q 39.453125 66.40625 31.78125 66.40625 
z
M 31.78125 74.21875 
Q 44.046875 74.21875 50.515625 64.515625 
Q 56.984375 54.828125 56.984375 36.375 
Q 56.984375 17.96875 50.515625 8.265625 
Q 44.046875 -1.421875 31.78125 -1.421875 
Q 19.53125 -1.421875 13.0625 8.265625 
Q 6.59375 17.96875 6.59375 36.375 
Q 6.59375 54.828125 13.0625 64.515625 
Q 19.53125 74.21875 31.78125 74.21875 
z
" id="DejaVuSans-48"/>
       </defs>
       <use xlink:href="#DejaVuSans-50"/>
       <use x="63.623047" xlink:href="#DejaVuSans-48"/>
      </g>
     </g>
    </g>
    <g id="xtick_7">
     <g id="line2d_13">
      <path clip-path="url(#p84ee4551fc)" d="M 153.902022 307.584 
L 153.902022 41.472 
" style="fill:none;stroke:#b0b0b0;stroke-dasharray:5.12,1.28,0.8,1.28;stroke-dashoffset:0;stroke-width:0.8;"/>
     </g>
     <g id="line2d_14">
      <g>
       <use style="stroke:#000000;stroke-width:0.8;" x="153.902022" xlink:href="#mf2aa4cbcdf" y="307.584"/>
      </g>
     </g>
     <g id="text_7">
      <!-- 24 -->
      <g transform="translate(147.539522 322.182437)scale(0.1 -0.1)">
       <use xlink:href="#DejaVuSans-50"/>
       <use x="63.623047" xlink:href="#DejaVuSans-52"/>
      </g>
     </g>
    </g>
    <g id="xtick_8">
     <g id="line2d_15">
      <path clip-path="url(#p84ee4551fc)" d="M 169.95236 307.584 
L 169.95236 41.472 
" style="fill:none;stroke:#b0b0b0;stroke-dasharray:5.12,1.28,0.8,1.28;stroke-dashoffset:0;stroke-width:0.8;"/>
     </g>
     <g id="line2d_16">
      <g>
       <use style="stroke:#000000;stroke-width:0.8;" x="169.95236" xlink:href="#mf2aa4cbcdf" y="307.584"/>
      </g>
     </g>
     <g id="text_8">
      <!-- 28 -->
      <g transform="translate(163.58986 322.182437)scale(0.1 -0.1)">
       <use xlink:href="#DejaVuSans-50"/>
       <use x="63.623047" xlink:href="#DejaVuSans-56"/>
      </g>
     </g>
    </g>
    <g id="xtick_9">
     <g id="line2d_17">
      <path clip-path="url(#p84ee4551fc)" d="M 186.002697 307.584 
L 186.002697 41.472 
" style="fill:none;stroke:#b0b0b0;stroke-dasharray:5.12,1.28,0.8,1.28;stroke-dashoffset:0;stroke-width:0.8;"/>
     </g>
     <g id="line2d_18">
      <g>
       <use style="stroke:#000000;stroke-width:0.8;" x="186.002697" xlink:href="#mf2aa4cbcdf" y="307.584"/>
      </g>
     </g>
     <g id="text_9">
      <!-- 32 -->
      <g transform="translate(179.640197 322.182437)scale(0.1 -0.1)">
       <defs>
        <path d="M 40.578125 39.3125 
Q 47.65625 37.796875 51.625 33 
Q 55.609375 28.21875 55.609375 21.1875 
Q 55.609375 10.40625 48.1875 4.484375 
Q 40.765625 -1.421875 27.09375 -1.421875 
Q 22.515625 -1.421875 17.65625 -0.515625 
Q 12.796875 0.390625 7.625 2.203125 
L 7.625 11.71875 
Q 11.71875 9.328125 16.59375 8.109375 
Q 21.484375 6.890625 26.8125 6.890625 
Q 36.078125 6.890625 40.9375 10.546875 
Q 45.796875 14.203125 45.796875 21.1875 
Q 45.796875 27.640625 41.28125 31.265625 
Q 36.765625 34.90625 28.71875 34.90625 
L 20.21875 34.90625 
L 20.21875 43.015625 
L 29.109375 43.015625 
Q 36.375 43.015625 40.234375 45.921875 
Q 44.09375 48.828125 44.09375 54.296875 
Q 44.09375 59.90625 40.109375 62.90625 
Q 36.140625 65.921875 28.71875 65.921875 
Q 24.65625 65.921875 20.015625 65.03125 
Q 15.375 64.15625 9.8125 62.3125 
L 9.8125 71.09375 
Q 15.4375 72.65625 20.34375 73.4375 
Q 25.25 74.21875 29.59375 74.21875 
Q 40.828125 74.21875 47.359375 69.109375 
Q 53.90625 64.015625 53.90625 55.328125 
Q 53.90625 49.265625 50.4375 45.09375 
Q 46.96875 40.921875 40.578125 39.3125 
z
" id="DejaVuSans-51"/>
       </defs>
       <use xlink:href="#DejaVuSans-51"/>
       <use x="63.623047" xlink:href="#DejaVuSans-50"/>
      </g>
     </g>
    </g>
    <g id="xtick_10">
     <g id="line2d_19">
      <path clip-path="url(#p84ee4551fc)" d="M 202.053034 307.584 
L 202.053034 41.472 
" style="fill:none;stroke:#b0b0b0;stroke-dasharray:5.12,1.28,0.8,1.28;stroke-dashoffset:0;stroke-width:0.8;"/>
     </g>
     <g id="line2d_20">
      <g>
       <use style="stroke:#000000;stroke-width:0.8;" x="202.053034" xlink:href="#mf2aa4cbcdf" y="307.584"/>
      </g>
     </g>
     <g id="text_10">
      <!-- 36 -->
      <g transform="translate(195.690534 322.182437)scale(0.1 -0.1)">
       <use xlink:href="#DejaVuSans-51"/>
       <use x="63.623047" xlink:href="#DejaVuSans-54"/>
      </g>
     </g>
    </g>
    <g id="xtick_11">
     <g id="line2d_21">
      <path clip-path="url(#p84ee4551fc)" d="M 218.103371 307.584 
L 218.103371 41.472 
" style="fill:none;stroke:#b0b0b0;stroke-dasharray:5.12,1.28,0.8,1.28;stroke-dashoffset:0;stroke-width:0.8;"/>
     </g>
     <g id="line2d_22">
      <g>
       <use style="stroke:#000000;stroke-width:0.8;" x="218.103371" xlink:href="#mf2aa4cbcdf" y="307.584"/>
      </g>
     </g>
     <g id="text_11">
      <!-- 40 -->
      <g transform="translate(211.740871 322.182437)scale(0.1 -0.1)">
       <use xlink:href="#DejaVuSans-52"/>
       <use x="63.623047" xlink:href="#DejaVuSans-48"/>
      </g>
     </g>
    </g>
    <g id="xtick_12">
     <g id="line2d_23">
      <path clip-path="url(#p84ee4551fc)" d="M 234.153708 307.584 
L 234.153708 41.472 
" style="fill:none;stroke:#b0b0b0;stroke-dasharray:5.12,1.28,0.8,1.28;stroke-dashoffset:0;stroke-width:0.8;"/>
     </g>
     <g id="line2d_24">
      <g>
       <use style="stroke:#000000;stroke-width:0.8;" x="234.153708" xlink:href="#mf2aa4cbcdf" y="307.584"/>
      </g>
     </g>
     <g id="text_12">
      <!-- 44 -->
      <g transform="translate(227.791208 322.182437)scale(0.1 -0.1)">
       <use xlink:href="#DejaVuSans-52"/>
       <use x="63.623047" xlink:href="#DejaVuSans-52"/>
      </g>
     </g>
    </g>
    <g id="xtick_13">
     <g id="line2d_25">
      <path clip-path="url(#p84ee4551fc)" d="M 250.204045 307.584 
L 250.204045 41.472 
" style="fill:none;stroke:#b0b0b0;stroke-dasharray:5.12,1.28,0.8,1.28;stroke-dashoffset:0;stroke-width:0.8;"/>
     </g>
     <g id="line2d_26">
      <g>
       <use style="stroke:#000000;stroke-width:0.8;" x="250.204045" xlink:href="#mf2aa4cbcdf" y="307.584"/>
      </g>
     </g>
     <g id="text_13">
      <!-- 48 -->
      <g transform="translate(243.841545 322.182437)scale(0.1 -0.1)">
       <use xlink:href="#DejaVuSans-52"/>
       <use x="63.623047" xlink:href="#DejaVuSans-56"/>
      </g>
     </g>
    </g>
    <g id="xtick_14">
     <g id="line2d_27">
      <path clip-path="url(#p84ee4551fc)" d="M 266.254382 307.584 
L 266.254382 41.472 
" style="fill:none;stroke:#b0b0b0;stroke-dasharray:5.12,1.28,0.8,1.28;stroke-dashoffset:0;stroke-width:0.8;"/>
     </g>
     <g id="line2d_28">
      <g>
       <use style="stroke:#000000;stroke-width:0.8;" x="266.254382" xlink:href="#mf2aa4cbcdf" y="307.584"/>
      </g>
     </g>
     <g id="text_14">
      <!-- 52 -->
      <g transform="translate(259.891882 322.182437)scale(0.1 -0.1)">
       <defs>
        <path d="M 10.796875 72.90625 
L 49.515625 72.90625 
L 49.515625 64.59375 
L 19.828125 64.59375 
L 19.828125 46.734375 
Q 21.96875 47.46875 24.109375 47.828125 
Q 26.265625 48.1875 28.421875 48.1875 
Q 40.625 48.1875 47.75 41.5 
Q 54.890625 34.8125 54.890625 23.390625 
Q 54.890625 11.625 47.5625 5.09375 
Q 40.234375 -1.421875 26.90625 -1.421875 
Q 22.3125 -1.421875 17.546875 -0.640625 
Q 12.796875 0.140625 7.71875 1.703125 
L 7.71875 11.625 
Q 12.109375 9.234375 16.796875 8.0625 
Q 21.484375 6.890625 26.703125 6.890625 
Q 35.15625 6.890625 40.078125 11.328125 
Q 45.015625 15.765625 45.015625 23.390625 
Q 45.015625 31 40.078125 35.4375 
Q 35.15625 39.890625 26.703125 39.890625 
Q 22.75 39.890625 18.8125 39.015625 
Q 14.890625 38.140625 10.796875 36.28125 
z
" id="DejaVuSans-53"/>
       </defs>
       <use xlink:href="#DejaVuSans-53"/>
       <use x="63.623047" xlink:href="#DejaVuSans-50"/>
      </g>
     </g>
    </g>
    <g id="xtick_15">
     <g id="line2d_29">
      <path clip-path="url(#p84ee4551fc)" d="M 282.304719 307.584 
L 282.304719 41.472 
" style="fill:none;stroke:#b0b0b0;stroke-dasharray:5.12,1.28,0.8,1.28;stroke-dashoffset:0;stroke-width:0.8;"/>
     </g>
     <g id="line2d_30">
      <g>
       <use style="stroke:#000000;stroke-width:0.8;" x="282.304719" xlink:href="#mf2aa4cbcdf" y="307.584"/>
      </g>
     </g>
     <g id="text_15">
      <!-- 56 -->
      <g transform="translate(275.942219 322.182437)scale(0.1 -0.1)">
       <use xlink:href="#DejaVuSans-53"/>
       <use x="63.623047" xlink:href="#DejaVuSans-54"/>
      </g>
     </g>
    </g>
    <g id="xtick_16">
     <g id="line2d_31">
      <path clip-path="url(#p84ee4551fc)" d="M 298.355056 307.584 
L 298.355056 41.472 
" style="fill:none;stroke:#b0b0b0;stroke-dasharray:5.12,1.28,0.8,1.28;stroke-dashoffset:0;stroke-width:0.8;"/>
     </g>
     <g id="line2d_32">
      <g>
       <use style="stroke:#000000;stroke-width:0.8;" x="298.355056" xlink:href="#mf2aa4cbcdf" y="307.584"/>
      </g>
     </g>
     <g id="text_16">
      <!-- 60 -->
      <g transform="translate(291.992556 322.182437)scale(0.1 -0.1)">
       <use xlink:href="#DejaVuSans-54"/>
       <use x="63.623047" xlink:href="#DejaVuSans-48"/>
      </g>
     </g>
    </g>
    <g id="xtick_17">
     <g id="line2d_33">
      <path clip-path="url(#p84ee4551fc)" d="M 314.405393 307.584 
L 314.405393 41.472 
" style="fill:none;stroke:#b0b0b0;stroke-dasharray:5.12,1.28,0.8,1.28;stroke-dashoffset:0;stroke-width:0.8;"/>
     </g>
     <g id="line2d_34">
      <g>
       <use style="stroke:#000000;stroke-width:0.8;" x="314.405393" xlink:href="#mf2aa4cbcdf" y="307.584"/>
      </g>
     </g>
     <g id="text_17">
      <!-- 64 -->
      <g transform="translate(308.042893 322.182437)scale(0.1 -0.1)">
       <use xlink:href="#DejaVuSans-54"/>
       <use x="63.623047" xlink:href="#DejaVuSans-52"/>
      </g>
     </g>
    </g>
    <g id="xtick_18">
     <g id="line2d_35">
      <path clip-path="url(#p84ee4551fc)" d="M 330.45573 307.584 
L 330.45573 41.472 
" style="fill:none;stroke:#b0b0b0;stroke-dasharray:5.12,1.28,0.8,1.28;stroke-dashoffset:0;stroke-width:0.8;"/>
     </g>
     <g id="line2d_36">
      <g>
       <use style="stroke:#000000;stroke-width:0.8;" x="330.45573" xlink:href="#mf2aa4cbcdf" y="307.584"/>
      </g>
     </g>
     <g id="text_18">
      <!-- 68 -->
      <g transform="translate(324.09323 322.182437)scale(0.1 -0.1)">
       <use xlink:href="#DejaVuSans-54"/>
       <use x="63.623047" xlink:href="#DejaVuSans-56"/>
      </g>
     </g>
    </g>
    <g id="xtick_19">
     <g id="line2d_37">
      <path clip-path="url(#p84ee4551fc)" d="M 346.506067 307.584 
L 346.506067 41.472 
" style="fill:none;stroke:#b0b0b0;stroke-dasharray:5.12,1.28,0.8,1.28;stroke-dashoffset:0;stroke-width:0.8;"/>
     </g>
     <g id="line2d_38">
      <g>
       <use style="stroke:#000000;stroke-width:0.8;" x="346.506067" xlink:href="#mf2aa4cbcdf" y="307.584"/>
      </g>
     </g>
     <g id="text_19">
      <!-- 72 -->
      <g transform="translate(340.143567 322.182437)scale(0.1 -0.1)">
       <defs>
        <path d="M 8.203125 72.90625 
L 55.078125 72.90625 
L 55.078125 68.703125 
L 28.609375 0 
L 18.3125 0 
L 43.21875 64.59375 
L 8.203125 64.59375 
z
" id="DejaVuSans-55"/>
       </defs>
       <use xlink:href="#DejaVuSans-55"/>
       <use x="63.623047" xlink:href="#DejaVuSans-50"/>
      </g>
     </g>
    </g>
    <g id="xtick_20">
     <g id="line2d_39">
      <path clip-path="url(#p84ee4551fc)" d="M 362.556404 307.584 
L 362.556404 41.472 
" style="fill:none;stroke:#b0b0b0;stroke-dasharray:5.12,1.28,0.8,1.28;stroke-dashoffset:0;stroke-width:0.8;"/>
     </g>
     <g id="line2d_40">
      <g>
       <use style="stroke:#000000;stroke-width:0.8;" x="362.556404" xlink:href="#mf2aa4cbcdf" y="307.584"/>
      </g>
     </g>
     <g id="text_20">
      <!-- 76 -->
      <g transform="translate(356.193904 322.182437)scale(0.1 -0.1)">
       <use xlink:href="#DejaVuSans-55"/>
       <use x="63.623047" xlink:href="#DejaVuSans-54"/>
      </g>
     </g>
    </g>
    <g id="xtick_21">
     <g id="line2d_41">
      <path clip-path="url(#p84ee4551fc)" d="M 378.606742 307.584 
L 378.606742 41.472 
" style="fill:none;stroke:#b0b0b0;stroke-dasharray:5.12,1.28,0.8,1.28;stroke-dashoffset:0;stroke-width:0.8;"/>
     </g>
     <g id="line2d_42">
      <g>
       <use style="stroke:#000000;stroke-width:0.8;" x="378.606742" xlink:href="#mf2aa4cbcdf" y="307.584"/>
      </g>
     </g>
     <g id="text_21">
      <!-- 80 -->
      <g transform="translate(372.244242 322.182437)scale(0.1 -0.1)">
       <use xlink:href="#DejaVuSans-56"/>
       <use x="63.623047" xlink:href="#DejaVuSans-48"/>
      </g>
     </g>
    </g>
    <g id="xtick_22">
     <g id="line2d_43">
      <path clip-path="url(#p84ee4551fc)" d="M 394.657079 307.584 
L 394.657079 41.472 
" style="fill:none;stroke:#b0b0b0;stroke-dasharray:5.12,1.28,0.8,1.28;stroke-dashoffset:0;stroke-width:0.8;"/>
     </g>
     <g id="line2d_44">
      <g>
       <use style="stroke:#000000;stroke-width:0.8;" x="394.657079" xlink:href="#mf2aa4cbcdf" y="307.584"/>
      </g>
     </g>
     <g id="text_22">
      <!-- 84 -->
      <g transform="translate(388.294579 322.182437)scale(0.1 -0.1)">
       <use xlink:href="#DejaVuSans-56"/>
       <use x="63.623047" xlink:href="#DejaVuSans-52"/>
      </g>
     </g>
    </g>
    <g id="xtick_23">
     <g id="line2d_45">
      <path clip-path="url(#p84ee4551fc)" d="M 410.707416 307.584 
L 410.707416 41.472 
" style="fill:none;stroke:#b0b0b0;stroke-dasharray:5.12,1.28,0.8,1.28;stroke-dashoffset:0;stroke-width:0.8;"/>
     </g>
     <g id="line2d_46">
      <g>
       <use style="stroke:#000000;stroke-width:0.8;" x="410.707416" xlink:href="#mf2aa4cbcdf" y="307.584"/>
      </g>
     </g>
     <g id="text_23">
      <!-- 88 -->
      <g transform="translate(404.344916 322.182437)scale(0.1 -0.1)">
       <use xlink:href="#DejaVuSans-56"/>
       <use x="63.623047" xlink:href="#DejaVuSans-56"/>
      </g>
     </g>
    </g>
    <g id="text_24">
     <!-- threads -->
     <g transform="translate(217.168594 335.860562)scale(0.1 -0.1)">
      <defs>
       <path d="M 18.3125 70.21875 
L 18.3125 54.6875 
L 36.8125 54.6875 
L 36.8125 47.703125 
L 18.3125 47.703125 
L 18.3125 18.015625 
Q 18.3125 11.328125 20.140625 9.421875 
Q 21.96875 7.515625 27.59375 7.515625 
L 36.8125 7.515625 
L 36.8125 0 
L 27.59375 0 
Q 17.1875 0 13.234375 3.875 
Q 9.28125 7.765625 9.28125 18.015625 
L 9.28125 47.703125 
L 2.6875 47.703125 
L 2.6875 54.6875 
L 9.28125 54.6875 
L 9.28125 70.21875 
z
" id="DejaVuSans-116"/>
       <path d="M 54.890625 33.015625 
L 54.890625 0 
L 45.90625 0 
L 45.90625 32.71875 
Q 45.90625 40.484375 42.875 44.328125 
Q 39.84375 48.1875 33.796875 48.1875 
Q 26.515625 48.1875 22.3125 43.546875 
Q 18.109375 38.921875 18.109375 30.90625 
L 18.109375 0 
L 9.078125 0 
L 9.078125 75.984375 
L 18.109375 75.984375 
L 18.109375 46.1875 
Q 21.34375 51.125 25.703125 53.5625 
Q 30.078125 56 35.796875 56 
Q 45.21875 56 50.046875 50.171875 
Q 54.890625 44.34375 54.890625 33.015625 
z
" id="DejaVuSans-104"/>
       <path d="M 41.109375 46.296875 
Q 39.59375 47.171875 37.8125 47.578125 
Q 36.03125 48 33.890625 48 
Q 26.265625 48 22.1875 43.046875 
Q 18.109375 38.09375 18.109375 28.8125 
L 18.109375 0 
L 9.078125 0 
L 9.078125 54.6875 
L 18.109375 54.6875 
L 18.109375 46.1875 
Q 20.953125 51.171875 25.484375 53.578125 
Q 30.03125 56 36.53125 56 
Q 37.453125 56 38.578125 55.875 
Q 39.703125 55.765625 41.0625 55.515625 
z
" id="DejaVuSans-114"/>
       <path d="M 56.203125 29.59375 
L 56.203125 25.203125 
L 14.890625 25.203125 
Q 15.484375 15.921875 20.484375 11.0625 
Q 25.484375 6.203125 34.421875 6.203125 
Q 39.59375 6.203125 44.453125 7.46875 
Q 49.3125 8.734375 54.109375 11.28125 
L 54.109375 2.78125 
Q 49.265625 0.734375 44.1875 -0.34375 
Q 39.109375 -1.421875 33.890625 -1.421875 
Q 20.796875 -1.421875 13.15625 6.1875 
Q 5.515625 13.8125 5.515625 26.8125 
Q 5.515625 40.234375 12.765625 48.109375 
Q 20.015625 56 32.328125 56 
Q 43.359375 56 49.78125 48.890625 
Q 56.203125 41.796875 56.203125 29.59375 
z
M 47.21875 32.234375 
Q 47.125 39.59375 43.09375 43.984375 
Q 39.0625 48.390625 32.421875 48.390625 
Q 24.90625 48.390625 20.390625 44.140625 
Q 15.875 39.890625 15.1875 32.171875 
z
" id="DejaVuSans-101"/>
       <path d="M 34.28125 27.484375 
Q 23.390625 27.484375 19.1875 25 
Q 14.984375 22.515625 14.984375 16.5 
Q 14.984375 11.71875 18.140625 8.90625 
Q 21.296875 6.109375 26.703125 6.109375 
Q 34.1875 6.109375 38.703125 11.40625 
Q 43.21875 16.703125 43.21875 25.484375 
L 43.21875 27.484375 
z
M 52.203125 31.203125 
L 52.203125 0 
L 43.21875 0 
L 43.21875 8.296875 
Q 40.140625 3.328125 35.546875 0.953125 
Q 30.953125 -1.421875 24.3125 -1.421875 
Q 15.921875 -1.421875 10.953125 3.296875 
Q 6 8.015625 6 15.921875 
Q 6 25.140625 12.171875 29.828125 
Q 18.359375 34.515625 30.609375 34.515625 
L 43.21875 34.515625 
L 43.21875 35.40625 
Q 43.21875 41.609375 39.140625 45 
Q 35.0625 48.390625 27.6875 48.390625 
Q 23 48.390625 18.546875 47.265625 
Q 14.109375 46.140625 10.015625 43.890625 
L 10.015625 52.203125 
Q 14.9375 54.109375 19.578125 55.046875 
Q 24.21875 56 28.609375 56 
Q 40.484375 56 46.34375 49.84375 
Q 52.203125 43.703125 52.203125 31.203125 
z
" id="DejaVuSans-97"/>
       <path d="M 45.40625 46.390625 
L 45.40625 75.984375 
L 54.390625 75.984375 
L 54.390625 0 
L 45.40625 0 
L 45.40625 8.203125 
Q 42.578125 3.328125 38.25 0.953125 
Q 33.9375 -1.421875 27.875 -1.421875 
Q 17.96875 -1.421875 11.734375 6.484375 
Q 5.515625 14.40625 5.515625 27.296875 
Q 5.515625 40.1875 11.734375 48.09375 
Q 17.96875 56 27.875 56 
Q 33.9375 56 38.25 53.625 
Q 42.578125 51.265625 45.40625 46.390625 
z
M 14.796875 27.296875 
Q 14.796875 17.390625 18.875 11.75 
Q 22.953125 6.109375 30.078125 6.109375 
Q 37.203125 6.109375 41.296875 11.75 
Q 45.40625 17.390625 45.40625 27.296875 
Q 45.40625 37.203125 41.296875 42.84375 
Q 37.203125 48.484375 30.078125 48.484375 
Q 22.953125 48.484375 18.875 42.84375 
Q 14.796875 37.203125 14.796875 27.296875 
z
" id="DejaVuSans-100"/>
       <path d="M 44.28125 53.078125 
L 44.28125 44.578125 
Q 40.484375 46.53125 36.375 47.5 
Q 32.28125 48.484375 27.875 48.484375 
Q 21.1875 48.484375 17.84375 46.4375 
Q 14.5 44.390625 14.5 40.28125 
Q 14.5 37.15625 16.890625 35.375 
Q 19.28125 33.59375 26.515625 31.984375 
L 29.59375 31.296875 
Q 39.15625 29.25 43.1875 25.515625 
Q 47.21875 21.78125 47.21875 15.09375 
Q 47.21875 7.46875 41.1875 3.015625 
Q 35.15625 -1.421875 24.609375 -1.421875 
Q 20.21875 -1.421875 15.453125 -0.5625 
Q 10.6875 0.296875 5.421875 2 
L 5.421875 11.28125 
Q 10.40625 8.6875 15.234375 7.390625 
Q 20.0625 6.109375 24.8125 6.109375 
Q 31.15625 6.109375 34.5625 8.28125 
Q 37.984375 10.453125 37.984375 14.40625 
Q 37.984375 18.0625 35.515625 20.015625 
Q 33.0625 21.96875 24.703125 23.78125 
L 21.578125 24.515625 
Q 13.234375 26.265625 9.515625 29.90625 
Q 5.8125 33.546875 5.8125 39.890625 
Q 5.8125 47.609375 11.28125 51.796875 
Q 16.75 56 26.8125 56 
Q 31.78125 56 36.171875 55.265625 
Q 40.578125 54.546875 44.28125 53.078125 
z
" id="DejaVuSans-115"/>
      </defs>
      <use xlink:href="#DejaVuSans-116"/>
      <use x="39.208984" xlink:href="#DejaVuSans-104"/>
      <use x="102.587891" xlink:href="#DejaVuSans-114"/>
      <use x="141.451172" xlink:href="#DejaVuSans-101"/>
      <use x="202.974609" xlink:href="#DejaVuSans-97"/>
      <use x="264.253906" xlink:href="#DejaVuSans-100"/>
      <use x="327.730469" xlink:href="#DejaVuSans-115"/>
     </g>
    </g>
   </g>
   <g id="matplotlib.axis_2">
    <g id="ytick_1">
     <g id="line2d_47">
      <path clip-path="url(#p84ee4551fc)" d="M 57.6 295.646989 
L 414.72 295.646989 
" style="fill:none;stroke:#b0b0b0;stroke-dasharray:5.12,1.28,0.8,1.28;stroke-dashoffset:0;stroke-width:0.8;"/>
     </g>
     <g id="line2d_48">
      <defs>
       <path d="M 0 0 
L -3.5 0 
" id="m8b7fa42a8d" style="stroke:#000000;stroke-width:0.8;"/>
      </defs>
      <g>
       <use style="stroke:#000000;stroke-width:0.8;" x="57.6" xlink:href="#m8b7fa42a8d" y="295.646989"/>
      </g>
     </g>
     <g id="text_25">
      <!-- 0 -->
      <g transform="translate(44.2375 299.446207)scale(0.1 -0.1)">
       <use xlink:href="#DejaVuSans-48"/>
      </g>
     </g>
    </g>
    <g id="ytick_2">
     <g id="line2d_49">
      <path clip-path="url(#p84ee4551fc)" d="M 57.6 257.037469 
L 414.72 257.037469 
" style="fill:none;stroke:#b0b0b0;stroke-dasharray:5.12,1.28,0.8,1.28;stroke-dashoffset:0;stroke-width:0.8;"/>
     </g>
     <g id="line2d_50">
      <g>
       <use style="stroke:#000000;stroke-width:0.8;" x="57.6" xlink:href="#m8b7fa42a8d" y="257.037469"/>
      </g>
     </g>
     <g id="text_26">
      <!-- 200 -->
      <g transform="translate(31.5125 260.836688)scale(0.1 -0.1)">
       <use xlink:href="#DejaVuSans-50"/>
       <use x="63.623047" xlink:href="#DejaVuSans-48"/>
       <use x="127.246094" xlink:href="#DejaVuSans-48"/>
      </g>
     </g>
    </g>
    <g id="ytick_3">
     <g id="line2d_51">
      <path clip-path="url(#p84ee4551fc)" d="M 57.6 218.42795 
L 414.72 218.42795 
" style="fill:none;stroke:#b0b0b0;stroke-dasharray:5.12,1.28,0.8,1.28;stroke-dashoffset:0;stroke-width:0.8;"/>
     </g>
     <g id="line2d_52">
      <g>
       <use style="stroke:#000000;stroke-width:0.8;" x="57.6" xlink:href="#m8b7fa42a8d" y="218.42795"/>
      </g>
     </g>
     <g id="text_27">
      <!-- 400 -->
      <g transform="translate(31.5125 222.227169)scale(0.1 -0.1)">
       <use xlink:href="#DejaVuSans-52"/>
       <use x="63.623047" xlink:href="#DejaVuSans-48"/>
       <use x="127.246094" xlink:href="#DejaVuSans-48"/>
      </g>
     </g>
    </g>
    <g id="ytick_4">
     <g id="line2d_53">
      <path clip-path="url(#p84ee4551fc)" d="M 57.6 179.818431 
L 414.72 179.818431 
" style="fill:none;stroke:#b0b0b0;stroke-dasharray:5.12,1.28,0.8,1.28;stroke-dashoffset:0;stroke-width:0.8;"/>
     </g>
     <g id="line2d_54">
      <g>
       <use style="stroke:#000000;stroke-width:0.8;" x="57.6" xlink:href="#m8b7fa42a8d" y="179.818431"/>
      </g>
     </g>
     <g id="text_28">
      <!-- 600 -->
      <g transform="translate(31.5125 183.61765)scale(0.1 -0.1)">
       <use xlink:href="#DejaVuSans-54"/>
       <use x="63.623047" xlink:href="#DejaVuSans-48"/>
       <use x="127.246094" xlink:href="#DejaVuSans-48"/>
      </g>
     </g>
    </g>
    <g id="ytick_5">
     <g id="line2d_55">
      <path clip-path="url(#p84ee4551fc)" d="M 57.6 141.208911 
L 414.72 141.208911 
" style="fill:none;stroke:#b0b0b0;stroke-dasharray:5.12,1.28,0.8,1.28;stroke-dashoffset:0;stroke-width:0.8;"/>
     </g>
     <g id="line2d_56">
      <g>
       <use style="stroke:#000000;stroke-width:0.8;" x="57.6" xlink:href="#m8b7fa42a8d" y="141.208911"/>
      </g>
     </g>
     <g id="text_29">
      <!-- 800 -->
      <g transform="translate(31.5125 145.00813)scale(0.1 -0.1)">
       <use xlink:href="#DejaVuSans-56"/>
       <use x="63.623047" xlink:href="#DejaVuSans-48"/>
       <use x="127.246094" xlink:href="#DejaVuSans-48"/>
      </g>
     </g>
    </g>
    <g id="ytick_6">
     <g id="line2d_57">
      <path clip-path="url(#p84ee4551fc)" d="M 57.6 102.599392 
L 414.72 102.599392 
" style="fill:none;stroke:#b0b0b0;stroke-dasharray:5.12,1.28,0.8,1.28;stroke-dashoffset:0;stroke-width:0.8;"/>
     </g>
     <g id="line2d_58">
      <g>
       <use style="stroke:#000000;stroke-width:0.8;" x="57.6" xlink:href="#m8b7fa42a8d" y="102.599392"/>
      </g>
     </g>
     <g id="text_30">
      <!-- 1000 -->
      <g transform="translate(25.15 106.398611)scale(0.1 -0.1)">
       <use xlink:href="#DejaVuSans-49"/>
       <use x="63.623047" xlink:href="#DejaVuSans-48"/>
       <use x="127.246094" xlink:href="#DejaVuSans-48"/>
       <use x="190.869141" xlink:href="#DejaVuSans-48"/>
      </g>
     </g>
    </g>
    <g id="ytick_7">
     <g id="line2d_59">
      <path clip-path="url(#p84ee4551fc)" d="M 57.6 63.989873 
L 414.72 63.989873 
" style="fill:none;stroke:#b0b0b0;stroke-dasharray:5.12,1.28,0.8,1.28;stroke-dashoffset:0;stroke-width:0.8;"/>
     </g>
     <g id="line2d_60">
      <g>
       <use style="stroke:#000000;stroke-width:0.8;" x="57.6" xlink:href="#m8b7fa42a8d" y="63.989873"/>
      </g>
     </g>
     <g id="text_31">
      <!-- 1200 -->
      <g transform="translate(25.15 67.789092)scale(0.1 -0.1)">
       <use xlink:href="#DejaVuSans-49"/>
       <use x="63.623047" xlink:href="#DejaVuSans-50"/>
       <use x="127.246094" xlink:href="#DejaVuSans-48"/>
       <use x="190.869141" xlink:href="#DejaVuSans-48"/>
      </g>
     </g>
    </g>
    <g id="text_32">
     <!-- speed up -->
     <g transform="translate(19.070312 197.566281)rotate(-90)scale(0.1 -0.1)">
      <defs>
       <path d="M 18.109375 8.203125 
L 18.109375 -20.796875 
L 9.078125 -20.796875 
L 9.078125 54.6875 
L 18.109375 54.6875 
L 18.109375 46.390625 
Q 20.953125 51.265625 25.265625 53.625 
Q 29.59375 56 35.59375 56 
Q 45.5625 56 51.78125 48.09375 
Q 58.015625 40.1875 58.015625 27.296875 
Q 58.015625 14.40625 51.78125 6.484375 
Q 45.5625 -1.421875 35.59375 -1.421875 
Q 29.59375 -1.421875 25.265625 0.953125 
Q 20.953125 3.328125 18.109375 8.203125 
z
M 48.6875 27.296875 
Q 48.6875 37.203125 44.609375 42.84375 
Q 40.53125 48.484375 33.40625 48.484375 
Q 26.265625 48.484375 22.1875 42.84375 
Q 18.109375 37.203125 18.109375 27.296875 
Q 18.109375 17.390625 22.1875 11.75 
Q 26.265625 6.109375 33.40625 6.109375 
Q 40.53125 6.109375 44.609375 11.75 
Q 48.6875 17.390625 48.6875 27.296875 
z
" id="DejaVuSans-112"/>
       <path id="DejaVuSans-32"/>
       <path d="M 8.5 21.578125 
L 8.5 54.6875 
L 17.484375 54.6875 
L 17.484375 21.921875 
Q 17.484375 14.15625 20.5 10.265625 
Q 23.53125 6.390625 29.59375 6.390625 
Q 36.859375 6.390625 41.078125 11.03125 
Q 45.3125 15.671875 45.3125 23.6875 
L 45.3125 54.6875 
L 54.296875 54.6875 
L 54.296875 0 
L 45.3125 0 
L 45.3125 8.40625 
Q 42.046875 3.421875 37.71875 1 
Q 33.40625 -1.421875 27.6875 -1.421875 
Q 18.265625 -1.421875 13.375 4.4375 
Q 8.5 10.296875 8.5 21.578125 
z
M 31.109375 56 
z
" id="DejaVuSans-117"/>
      </defs>
      <use xlink:href="#DejaVuSans-115"/>
      <use x="52.099609" xlink:href="#DejaVuSans-112"/>
      <use x="115.576172" xlink:href="#DejaVuSans-101"/>
      <use x="177.099609" xlink:href="#DejaVuSans-101"/>
      <use x="238.623047" xlink:href="#DejaVuSans-100"/>
      <use x="302.099609" xlink:href="#DejaVuSans-32"/>
      <use x="333.886719" xlink:href="#DejaVuSans-117"/>
      <use x="397.265625" xlink:href="#DejaVuSans-112"/>
     </g>
    </g>
   </g>
   <g id="line2d_61">
    <path clip-path="url(#p84ee4551fc)" d="M 61.612584 53.568 
L 65.625169 257.254594 
L 69.637753 254.04096 
L 73.650337 262.6452 
L 77.662921 271.199987 
L 81.675506 267.461636 
L 85.68809 268.950626 
L 89.700674 273.002931 
L 93.713258 270.971185 
L 97.725843 272.10174 
L 101.738427 273.876826 
L 105.751011 272.926574 
L 109.763596 272.858268 
L 113.77618 272.8497 
L 117.788764 272.845414 
L 121.801348 274.146976 
L 125.813933 273.970211 
L 129.826517 274.598468 
L 133.839101 273.915834 
L 137.851685 274.466134 
L 141.86427 276.006248 
L 145.876854 275.122099 
L 149.889438 275.034893 
L 153.902022 275.111673 
L 157.914607 277.703273 
L 161.927191 273.837679 
L 165.939775 276.35307 
L 169.95236 275.593818 
L 173.964944 276.389832 
L 177.977528 276.405108 
L 181.990112 277.463844 
L 186.002697 277.840268 
L 190.015281 281.52313 
L 194.027865 277.450203 
L 198.040449 277.9494 
L 202.053034 277.959724 
L 206.065618 278.138461 
L 210.078202 280.528368 
L 214.090787 282.675697 
L 218.103371 278.675036 
L 222.115955 281.237867 
L 226.128539 278.581902 
L 230.141124 279.690986 
L 234.153708 283.099754 
L 238.166292 280.044059 
L 242.178876 282.59754 
L 246.191461 280.397199 
L 250.204045 280.36068 
L 254.216629 279.818018 
L 258.229213 280.389526 
L 262.241798 281.808379 
L 266.254382 283.084157 
L 270.266966 283.186126 
L 274.279551 281.118769 
L 278.292135 280.564092 
L 282.304719 281.09611 
L 286.317303 281.509959 
L 290.329888 281.397009 
L 294.342472 280.216763 
L 298.355056 281.212143 
L 302.36764 281.277134 
L 306.380225 281.506663 
L 310.392809 281.253258 
L 314.405393 281.006528 
L 318.417978 283.107537 
L 322.430562 284.718752 
L 326.443146 283.296523 
L 330.45573 282.160769 
L 334.468315 282.089916 
L 338.480899 281.658341 
L 342.493483 281.40203 
L 346.506067 282.467074 
L 350.518652 284.697045 
L 354.531236 282.845471 
L 358.54382 283.030576 
L 362.556404 283.081554 
L 366.568989 282.546797 
L 370.581573 283.025324 
L 374.594157 282.9924 
L 378.606742 284.529418 
L 382.619326 283.507906 
L 386.63191 285.587137 
L 390.644494 284.951964 
L 394.657079 285.375853 
L 398.669663 285.13732 
L 402.682247 285.449261 
L 406.694831 295.339184 
L 410.707416 295.488 
" style="fill:none;stroke:#0000ff;stroke-dasharray:1.5,2.475;stroke-dashoffset:0;stroke-width:1.5;"/>
    <defs>
     <path d="M 0 1.5 
C 0.397805 1.5 0.77937 1.341951 1.06066 1.06066 
C 1.341951 0.77937 1.5 0.397805 1.5 0 
C 1.5 -0.397805 1.341951 -0.77937 1.06066 -1.06066 
C 0.77937 -1.341951 0.397805 -1.5 0 -1.5 
C -0.397805 -1.5 -0.77937 -1.341951 -1.06066 -1.06066 
C -1.341951 -0.77937 -1.5 -0.397805 -1.5 0 
C -1.5 0.397805 -1.341951 0.77937 -1.06066 1.06066 
C -0.77937 1.341951 -0.397805 1.5 0 1.5 
z
" id="m3dfe45207c" style="stroke:#0000ff;"/>
    </defs>
    <g clip-path="url(#p84ee4551fc)">
     <use style="fill:#0000ff;stroke:#0000ff;" x="61.612584" xlink:href="#m3dfe45207c" y="53.568"/>
     <use style="fill:#0000ff;stroke:#0000ff;" x="65.625169" xlink:href="#m3dfe45207c" y="257.254594"/>
     <use style="fill:#0000ff;stroke:#0000ff;" x="69.637753" xlink:href="#m3dfe45207c" y="254.04096"/>
     <use style="fill:#0000ff;stroke:#0000ff;" x="73.650337" xlink:href="#m3dfe45207c" y="262.6452"/>
     <use style="fill:#0000ff;stroke:#0000ff;" x="77.662921" xlink:href="#m3dfe45207c" y="271.199987"/>
     <use style="fill:#0000ff;stroke:#0000ff;" x="81.675506" xlink:href="#m3dfe45207c" y="267.461636"/>
     <use style="fill:#0000ff;stroke:#0000ff;" x="85.68809" xlink:href="#m3dfe45207c" y="268.950626"/>
     <use style="fill:#0000ff;stroke:#0000ff;" x="89.700674" xlink:href="#m3dfe45207c" y="273.002931"/>
     <use style="fill:#0000ff;stroke:#0000ff;" x="93.713258" xlink:href="#m3dfe45207c" y="270.971185"/>
     <use style="fill:#0000ff;stroke:#0000ff;" x="97.725843" xlink:href="#m3dfe45207c" y="272.10174"/>
     <use style="fill:#0000ff;stroke:#0000ff;" x="101.738427" xlink:href="#m3dfe45207c" y="273.876826"/>
     <use style="fill:#0000ff;stroke:#0000ff;" x="105.751011" xlink:href="#m3dfe45207c" y="272.926574"/>
     <use style="fill:#0000ff;stroke:#0000ff;" x="109.763596" xlink:href="#m3dfe45207c" y="272.858268"/>
     <use style="fill:#0000ff;stroke:#0000ff;" x="113.77618" xlink:href="#m3dfe45207c" y="272.8497"/>
     <use style="fill:#0000ff;stroke:#0000ff;" x="117.788764" xlink:href="#m3dfe45207c" y="272.845414"/>
     <use style="fill:#0000ff;stroke:#0000ff;" x="121.801348" xlink:href="#m3dfe45207c" y="274.146976"/>
     <use style="fill:#0000ff;stroke:#0000ff;" x="125.813933" xlink:href="#m3dfe45207c" y="273.970211"/>
     <use style="fill:#0000ff;stroke:#0000ff;" x="129.826517" xlink:href="#m3dfe45207c" y="274.598468"/>
     <use style="fill:#0000ff;stroke:#0000ff;" x="133.839101" xlink:href="#m3dfe45207c" y="273.915834"/>
     <use style="fill:#0000ff;stroke:#0000ff;" x="137.851685" xlink:href="#m3dfe45207c" y="274.466134"/>
     <use style="fill:#0000ff;stroke:#0000ff;" x="141.86427" xlink:href="#m3dfe45207c" y="276.006248"/>
     <use style="fill:#0000ff;stroke:#0000ff;" x="145.876854" xlink:href="#m3dfe45207c" y="275.122099"/>
     <use style="fill:#0000ff;stroke:#0000ff;" x="149.889438" xlink:href="#m3dfe45207c" y="275.034893"/>
     <use style="fill:#0000ff;stroke:#0000ff;" x="153.902022" xlink:href="#m3dfe45207c" y="275.111673"/>
     <use style="fill:#0000ff;stroke:#0000ff;" x="157.914607" xlink:href="#m3dfe45207c" y="277.703273"/>
     <use style="fill:#0000ff;stroke:#0000ff;" x="161.927191" xlink:href="#m3dfe45207c" y="273.837679"/>
     <use style="fill:#0000ff;stroke:#0000ff;" x="165.939775" xlink:href="#m3dfe45207c" y="276.35307"/>
     <use style="fill:#0000ff;stroke:#0000ff;" x="169.95236" xlink:href="#m3dfe45207c" y="275.593818"/>
     <use style="fill:#0000ff;stroke:#0000ff;" x="173.964944" xlink:href="#m3dfe45207c" y="276.389832"/>
     <use style="fill:#0000ff;stroke:#0000ff;" x="177.977528" xlink:href="#m3dfe45207c" y="276.405108"/>
     <use style="fill:#0000ff;stroke:#0000ff;" x="181.990112" xlink:href="#m3dfe45207c" y="277.463844"/>
     <use style="fill:#0000ff;stroke:#0000ff;" x="186.002697" xlink:href="#m3dfe45207c" y="277.840268"/>
     <use style="fill:#0000ff;stroke:#0000ff;" x="190.015281" xlink:href="#m3dfe45207c" y="281.52313"/>
     <use style="fill:#0000ff;stroke:#0000ff;" x="194.027865" xlink:href="#m3dfe45207c" y="277.450203"/>
     <use style="fill:#0000ff;stroke:#0000ff;" x="198.040449" xlink:href="#m3dfe45207c" y="277.9494"/>
     <use style="fill:#0000ff;stroke:#0000ff;" x="202.053034" xlink:href="#m3dfe45207c" y="277.959724"/>
     <use style="fill:#0000ff;stroke:#0000ff;" x="206.065618" xlink:href="#m3dfe45207c" y="278.138461"/>
     <use style="fill:#0000ff;stroke:#0000ff;" x="210.078202" xlink:href="#m3dfe45207c" y="280.528368"/>
     <use style="fill:#0000ff;stroke:#0000ff;" x="214.090787" xlink:href="#m3dfe45207c" y="282.675697"/>
     <use style="fill:#0000ff;stroke:#0000ff;" x="218.103371" xlink:href="#m3dfe45207c" y="278.675036"/>
     <use style="fill:#0000ff;stroke:#0000ff;" x="222.115955" xlink:href="#m3dfe45207c" y="281.237867"/>
     <use style="fill:#0000ff;stroke:#0000ff;" x="226.128539" xlink:href="#m3dfe45207c" y="278.581902"/>
     <use style="fill:#0000ff;stroke:#0000ff;" x="230.141124" xlink:href="#m3dfe45207c" y="279.690986"/>
     <use style="fill:#0000ff;stroke:#0000ff;" x="234.153708" xlink:href="#m3dfe45207c" y="283.099754"/>
     <use style="fill:#0000ff;stroke:#0000ff;" x="238.166292" xlink:href="#m3dfe45207c" y="280.044059"/>
     <use style="fill:#0000ff;stroke:#0000ff;" x="242.178876" xlink:href="#m3dfe45207c" y="282.59754"/>
     <use style="fill:#0000ff;stroke:#0000ff;" x="246.191461" xlink:href="#m3dfe45207c" y="280.397199"/>
     <use style="fill:#0000ff;stroke:#0000ff;" x="250.204045" xlink:href="#m3dfe45207c" y="280.36068"/>
     <use style="fill:#0000ff;stroke:#0000ff;" x="254.216629" xlink:href="#m3dfe45207c" y="279.818018"/>
     <use style="fill:#0000ff;stroke:#0000ff;" x="258.229213" xlink:href="#m3dfe45207c" y="280.389526"/>
     <use style="fill:#0000ff;stroke:#0000ff;" x="262.241798" xlink:href="#m3dfe45207c" y="281.808379"/>
     <use style="fill:#0000ff;stroke:#0000ff;" x="266.254382" xlink:href="#m3dfe45207c" y="283.084157"/>
     <use style="fill:#0000ff;stroke:#0000ff;" x="270.266966" xlink:href="#m3dfe45207c" y="283.186126"/>
     <use style="fill:#0000ff;stroke:#0000ff;" x="274.279551" xlink:href="#m3dfe45207c" y="281.118769"/>
     <use style="fill:#0000ff;stroke:#0000ff;" x="278.292135" xlink:href="#m3dfe45207c" y="280.564092"/>
     <use style="fill:#0000ff;stroke:#0000ff;" x="282.304719" xlink:href="#m3dfe45207c" y="281.09611"/>
     <use style="fill:#0000ff;stroke:#0000ff;" x="286.317303" xlink:href="#m3dfe45207c" y="281.509959"/>
     <use style="fill:#0000ff;stroke:#0000ff;" x="290.329888" xlink:href="#m3dfe45207c" y="281.397009"/>
     <use style="fill:#0000ff;stroke:#0000ff;" x="294.342472" xlink:href="#m3dfe45207c" y="280.216763"/>
     <use style="fill:#0000ff;stroke:#0000ff;" x="298.355056" xlink:href="#m3dfe45207c" y="281.212143"/>
     <use style="fill:#0000ff;stroke:#0000ff;" x="302.36764" xlink:href="#m3dfe45207c" y="281.277134"/>
     <use style="fill:#0000ff;stroke:#0000ff;" x="306.380225" xlink:href="#m3dfe45207c" y="281.506663"/>
     <use style="fill:#0000ff;stroke:#0000ff;" x="310.392809" xlink:href="#m3dfe45207c" y="281.253258"/>
     <use style="fill:#0000ff;stroke:#0000ff;" x="314.405393" xlink:href="#m3dfe45207c" y="281.006528"/>
     <use style="fill:#0000ff;stroke:#0000ff;" x="318.417978" xlink:href="#m3dfe45207c" y="283.107537"/>
     <use style="fill:#0000ff;stroke:#0000ff;" x="322.430562" xlink:href="#m3dfe45207c" y="284.718752"/>
     <use style="fill:#0000ff;stroke:#0000ff;" x="326.443146" xlink:href="#m3dfe45207c" y="283.296523"/>
     <use style="fill:#0000ff;stroke:#0000ff;" x="330.45573" xlink:href="#m3dfe45207c" y="282.160769"/>
     <use style="fill:#0000ff;stroke:#0000ff;" x="334.468315" xlink:href="#m3dfe45207c" y="282.089916"/>
     <use style="fill:#0000ff;stroke:#0000ff;" x="338.480899" xlink:href="#m3dfe45207c" y="281.658341"/>
     <use style="fill:#0000ff;stroke:#0000ff;" x="342.493483" xlink:href="#m3dfe45207c" y="281.40203"/>
     <use style="fill:#0000ff;stroke:#0000ff;" x="346.506067" xlink:href="#m3dfe45207c" y="282.467074"/>
     <use style="fill:#0000ff;stroke:#0000ff;" x="350.518652" xlink:href="#m3dfe45207c" y="284.697045"/>
     <use style="fill:#0000ff;stroke:#0000ff;" x="354.531236" xlink:href="#m3dfe45207c" y="282.845471"/>
     <use style="fill:#0000ff;stroke:#0000ff;" x="358.54382" xlink:href="#m3dfe45207c" y="283.030576"/>
     <use style="fill:#0000ff;stroke:#0000ff;" x="362.556404" xlink:href="#m3dfe45207c" y="283.081554"/>
     <use style="fill:#0000ff;stroke:#0000ff;" x="366.568989" xlink:href="#m3dfe45207c" y="282.546797"/>
     <use style="fill:#0000ff;stroke:#0000ff;" x="370.581573" xlink:href="#m3dfe45207c" y="283.025324"/>
     <use style="fill:#0000ff;stroke:#0000ff;" x="374.594157" xlink:href="#m3dfe45207c" y="282.9924"/>
     <use style="fill:#0000ff;stroke:#0000ff;" x="378.606742" xlink:href="#m3dfe45207c" y="284.529418"/>
     <use style="fill:#0000ff;stroke:#0000ff;" x="382.619326" xlink:href="#m3dfe45207c" y="283.507906"/>
     <use style="fill:#0000ff;stroke:#0000ff;" x="386.63191" xlink:href="#m3dfe45207c" y="285.587137"/>
     <use style="fill:#0000ff;stroke:#0000ff;" x="390.644494" xlink:href="#m3dfe45207c" y="284.951964"/>
     <use style="fill:#0000ff;stroke:#0000ff;" x="394.657079" xlink:href="#m3dfe45207c" y="285.375853"/>
     <use style="fill:#0000ff;stroke:#0000ff;" x="398.669663" xlink:href="#m3dfe45207c" y="285.13732"/>
     <use style="fill:#0000ff;stroke:#0000ff;" x="402.682247" xlink:href="#m3dfe45207c" y="285.449261"/>
     <use style="fill:#0000ff;stroke:#0000ff;" x="406.694831" xlink:href="#m3dfe45207c" y="295.339184"/>
     <use style="fill:#0000ff;stroke:#0000ff;" x="410.707416" xlink:href="#m3dfe45207c" y="295.488"/>
    </g>
   </g>
   <g id="line2d_62">
    <path clip-path="url(#p84ee4551fc)" d="M 61.612584 295.320827 
L 65.625169 295.12891 
L 69.637753 294.998277 
L 73.650337 294.917639 
L 77.662921 294.886724 
L 81.675506 294.837905 
L 85.68809 294.789639 
L 89.700674 294.763148 
L 93.713258 294.704096 
L 97.725843 294.643779 
L 101.738427 294.551112 
L 105.751011 294.479616 
L 109.763596 294.449882 
L 113.77618 294.383403 
L 117.788764 294.334869 
L 121.801348 294.280586 
L 125.813933 294.288511 
L 129.826517 294.229603 
L 133.839101 294.163017 
L 137.851685 294.122625 
L 141.86427 294.120889 
L 145.876854 294.042672 
L 149.889438 293.995622 
L 153.902022 293.94489 
L 157.914607 293.947065 
L 161.927191 293.940398 
L 165.939775 293.91271 
L 169.95236 293.890892 
L 173.964944 293.877039 
L 177.977528 293.825123 
L 181.990112 293.798942 
L 186.002697 293.857014 
L 190.015281 293.823125 
L 194.027865 293.809537 
L 198.040449 293.785717 
L 202.053034 293.79558 
L 206.065618 293.81028 
L 210.078202 293.833321 
L 214.090787 293.834998 
L 218.103371 293.841656 
L 222.115955 293.895731 
L 226.128539 294.020915 
L 230.141124 293.956755 
L 234.153708 293.937028 
L 238.166292 294.016302 
L 242.178876 294.039875 
L 246.191461 294.020205 
L 250.204045 294.046876 
L 254.216629 294.077742 
L 258.229213 294.082567 
L 262.241798 294.105323 
L 266.254382 294.11665 
L 270.266966 294.099082 
L 274.279551 294.133553 
L 278.292135 294.142418 
L 282.304719 294.166498 
L 286.317303 294.174191 
L 290.329888 294.179622 
L 294.342472 294.215196 
L 298.355056 294.200425 
L 302.36764 294.230142 
L 306.380225 294.245171 
L 310.392809 294.234098 
L 314.405393 294.269039 
L 318.417978 294.307218 
L 322.430562 294.932529 
L 326.443146 294.274615 
L 330.45573 294.303167 
L 334.468315 294.304272 
L 338.480899 294.312595 
L 342.493483 294.325586 
L 346.506067 294.327131 
L 350.518652 294.321419 
L 354.531236 294.336799 
L 358.54382 294.326823 
L 362.556404 294.324826 
L 366.568989 294.424225 
L 370.581573 294.325661 
L 374.594157 294.338189 
L 378.606742 294.34162 
L 382.619326 294.337849 
L 386.63191 294.324535 
L 390.644494 294.541916 
L 394.657079 294.951859 
L 398.669663 294.436466 
L 402.682247 294.47234 
L 406.694831 295.233231 
L 410.707416 295.382707 
" style="fill:none;stroke:#ff0000;stroke-dasharray:1.5,2.475;stroke-dashoffset:0;stroke-width:1.5;"/>
    <defs>
     <path d="M 0 1.5 
C 0.397805 1.5 0.77937 1.341951 1.06066 1.06066 
C 1.341951 0.77937 1.5 0.397805 1.5 0 
C 1.5 -0.397805 1.341951 -0.77937 1.06066 -1.06066 
C 0.77937 -1.341951 0.397805 -1.5 0 -1.5 
C -0.397805 -1.5 -0.77937 -1.341951 -1.06066 -1.06066 
C -1.341951 -0.77937 -1.5 -0.397805 -1.5 0 
C -1.5 0.397805 -1.341951 0.77937 -1.06066 1.06066 
C -0.77937 1.341951 -0.397805 1.5 0 1.5 
z
" id="m2bb0bb9d9e" style="stroke:#ff0000;"/>
    </defs>
    <g clip-path="url(#p84ee4551fc)">
     <use style="fill:#ff0000;stroke:#ff0000;" x="61.612584" xlink:href="#m2bb0bb9d9e" y="295.320827"/>
     <use style="fill:#ff0000;stroke:#ff0000;" x="65.625169" xlink:href="#m2bb0bb9d9e" y="295.12891"/>
     <use style="fill:#ff0000;stroke:#ff0000;" x="69.637753" xlink:href="#m2bb0bb9d9e" y="294.998277"/>
     <use style="fill:#ff0000;stroke:#ff0000;" x="73.650337" xlink:href="#m2bb0bb9d9e" y="294.917639"/>
     <use style="fill:#ff0000;stroke:#ff0000;" x="77.662921" xlink:href="#m2bb0bb9d9e" y="294.886724"/>
     <use style="fill:#ff0000;stroke:#ff0000;" x="81.675506" xlink:href="#m2bb0bb9d9e" y="294.837905"/>
     <use style="fill:#ff0000;stroke:#ff0000;" x="85.68809" xlink:href="#m2bb0bb9d9e" y="294.789639"/>
     <use style="fill:#ff0000;stroke:#ff0000;" x="89.700674" xlink:href="#m2bb0bb9d9e" y="294.763148"/>
     <use style="fill:#ff0000;stroke:#ff0000;" x="93.713258" xlink:href="#m2bb0bb9d9e" y="294.704096"/>
     <use style="fill:#ff0000;stroke:#ff0000;" x="97.725843" xlink:href="#m2bb0bb9d9e" y="294.643779"/>
     <use style="fill:#ff0000;stroke:#ff0000;" x="101.738427" xlink:href="#m2bb0bb9d9e" y="294.551112"/>
     <use style="fill:#ff0000;stroke:#ff0000;" x="105.751011" xlink:href="#m2bb0bb9d9e" y="294.479616"/>
     <use style="fill:#ff0000;stroke:#ff0000;" x="109.763596" xlink:href="#m2bb0bb9d9e" y="294.449882"/>
     <use style="fill:#ff0000;stroke:#ff0000;" x="113.77618" xlink:href="#m2bb0bb9d9e" y="294.383403"/>
     <use style="fill:#ff0000;stroke:#ff0000;" x="117.788764" xlink:href="#m2bb0bb9d9e" y="294.334869"/>
     <use style="fill:#ff0000;stroke:#ff0000;" x="121.801348" xlink:href="#m2bb0bb9d9e" y="294.280586"/>
     <use style="fill:#ff0000;stroke:#ff0000;" x="125.813933" xlink:href="#m2bb0bb9d9e" y="294.288511"/>
     <use style="fill:#ff0000;stroke:#ff0000;" x="129.826517" xlink:href="#m2bb0bb9d9e" y="294.229603"/>
     <use style="fill:#ff0000;stroke:#ff0000;" x="133.839101" xlink:href="#m2bb0bb9d9e" y="294.163017"/>
     <use style="fill:#ff0000;stroke:#ff0000;" x="137.851685" xlink:href="#m2bb0bb9d9e" y="294.122625"/>
     <use style="fill:#ff0000;stroke:#ff0000;" x="141.86427" xlink:href="#m2bb0bb9d9e" y="294.120889"/>
     <use style="fill:#ff0000;stroke:#ff0000;" x="145.876854" xlink:href="#m2bb0bb9d9e" y="294.042672"/>
     <use style="fill:#ff0000;stroke:#ff0000;" x="149.889438" xlink:href="#m2bb0bb9d9e" y="293.995622"/>
     <use style="fill:#ff0000;stroke:#ff0000;" x="153.902022" xlink:href="#m2bb0bb9d9e" y="293.94489"/>
     <use style="fill:#ff0000;stroke:#ff0000;" x="157.914607" xlink:href="#m2bb0bb9d9e" y="293.947065"/>
     <use style="fill:#ff0000;stroke:#ff0000;" x="161.927191" xlink:href="#m2bb0bb9d9e" y="293.940398"/>
     <use style="fill:#ff0000;stroke:#ff0000;" x="165.939775" xlink:href="#m2bb0bb9d9e" y="293.91271"/>
     <use style="fill:#ff0000;stroke:#ff0000;" x="169.95236" xlink:href="#m2bb0bb9d9e" y="293.890892"/>
     <use style="fill:#ff0000;stroke:#ff0000;" x="173.964944" xlink:href="#m2bb0bb9d9e" y="293.877039"/>
     <use style="fill:#ff0000;stroke:#ff0000;" x="177.977528" xlink:href="#m2bb0bb9d9e" y="293.825123"/>
     <use style="fill:#ff0000;stroke:#ff0000;" x="181.990112" xlink:href="#m2bb0bb9d9e" y="293.798942"/>
     <use style="fill:#ff0000;stroke:#ff0000;" x="186.002697" xlink:href="#m2bb0bb9d9e" y="293.857014"/>
     <use style="fill:#ff0000;stroke:#ff0000;" x="190.015281" xlink:href="#m2bb0bb9d9e" y="293.823125"/>
     <use style="fill:#ff0000;stroke:#ff0000;" x="194.027865" xlink:href="#m2bb0bb9d9e" y="293.809537"/>
     <use style="fill:#ff0000;stroke:#ff0000;" x="198.040449" xlink:href="#m2bb0bb9d9e" y="293.785717"/>
     <use style="fill:#ff0000;stroke:#ff0000;" x="202.053034" xlink:href="#m2bb0bb9d9e" y="293.79558"/>
     <use style="fill:#ff0000;stroke:#ff0000;" x="206.065618" xlink:href="#m2bb0bb9d9e" y="293.81028"/>
     <use style="fill:#ff0000;stroke:#ff0000;" x="210.078202" xlink:href="#m2bb0bb9d9e" y="293.833321"/>
     <use style="fill:#ff0000;stroke:#ff0000;" x="214.090787" xlink:href="#m2bb0bb9d9e" y="293.834998"/>
     <use style="fill:#ff0000;stroke:#ff0000;" x="218.103371" xlink:href="#m2bb0bb9d9e" y="293.841656"/>
     <use style="fill:#ff0000;stroke:#ff0000;" x="222.115955" xlink:href="#m2bb0bb9d9e" y="293.895731"/>
     <use style="fill:#ff0000;stroke:#ff0000;" x="226.128539" xlink:href="#m2bb0bb9d9e" y="294.020915"/>
     <use style="fill:#ff0000;stroke:#ff0000;" x="230.141124" xlink:href="#m2bb0bb9d9e" y="293.956755"/>
     <use style="fill:#ff0000;stroke:#ff0000;" x="234.153708" xlink:href="#m2bb0bb9d9e" y="293.937028"/>
     <use style="fill:#ff0000;stroke:#ff0000;" x="238.166292" xlink:href="#m2bb0bb9d9e" y="294.016302"/>
     <use style="fill:#ff0000;stroke:#ff0000;" x="242.178876" xlink:href="#m2bb0bb9d9e" y="294.039875"/>
     <use style="fill:#ff0000;stroke:#ff0000;" x="246.191461" xlink:href="#m2bb0bb9d9e" y="294.020205"/>
     <use style="fill:#ff0000;stroke:#ff0000;" x="250.204045" xlink:href="#m2bb0bb9d9e" y="294.046876"/>
     <use style="fill:#ff0000;stroke:#ff0000;" x="254.216629" xlink:href="#m2bb0bb9d9e" y="294.077742"/>
     <use style="fill:#ff0000;stroke:#ff0000;" x="258.229213" xlink:href="#m2bb0bb9d9e" y="294.082567"/>
     <use style="fill:#ff0000;stroke:#ff0000;" x="262.241798" xlink:href="#m2bb0bb9d9e" y="294.105323"/>
     <use style="fill:#ff0000;stroke:#ff0000;" x="266.254382" xlink:href="#m2bb0bb9d9e" y="294.11665"/>
     <use style="fill:#ff0000;stroke:#ff0000;" x="270.266966" xlink:href="#m2bb0bb9d9e" y="294.099082"/>
     <use style="fill:#ff0000;stroke:#ff0000;" x="274.279551" xlink:href="#m2bb0bb9d9e" y="294.133553"/>
     <use style="fill:#ff0000;stroke:#ff0000;" x="278.292135" xlink:href="#m2bb0bb9d9e" y="294.142418"/>
     <use style="fill:#ff0000;stroke:#ff0000;" x="282.304719" xlink:href="#m2bb0bb9d9e" y="294.166498"/>
     <use style="fill:#ff0000;stroke:#ff0000;" x="286.317303" xlink:href="#m2bb0bb9d9e" y="294.174191"/>
     <use style="fill:#ff0000;stroke:#ff0000;" x="290.329888" xlink:href="#m2bb0bb9d9e" y="294.179622"/>
     <use style="fill:#ff0000;stroke:#ff0000;" x="294.342472" xlink:href="#m2bb0bb9d9e" y="294.215196"/>
     <use style="fill:#ff0000;stroke:#ff0000;" x="298.355056" xlink:href="#m2bb0bb9d9e" y="294.200425"/>
     <use style="fill:#ff0000;stroke:#ff0000;" x="302.36764" xlink:href="#m2bb0bb9d9e" y="294.230142"/>
     <use style="fill:#ff0000;stroke:#ff0000;" x="306.380225" xlink:href="#m2bb0bb9d9e" y="294.245171"/>
     <use style="fill:#ff0000;stroke:#ff0000;" x="310.392809" xlink:href="#m2bb0bb9d9e" y="294.234098"/>
     <use style="fill:#ff0000;stroke:#ff0000;" x="314.405393" xlink:href="#m2bb0bb9d9e" y="294.269039"/>
     <use style="fill:#ff0000;stroke:#ff0000;" x="318.417978" xlink:href="#m2bb0bb9d9e" y="294.307218"/>
     <use style="fill:#ff0000;stroke:#ff0000;" x="322.430562" xlink:href="#m2bb0bb9d9e" y="294.932529"/>
     <use style="fill:#ff0000;stroke:#ff0000;" x="326.443146" xlink:href="#m2bb0bb9d9e" y="294.274615"/>
     <use style="fill:#ff0000;stroke:#ff0000;" x="330.45573" xlink:href="#m2bb0bb9d9e" y="294.303167"/>
     <use style="fill:#ff0000;stroke:#ff0000;" x="334.468315" xlink:href="#m2bb0bb9d9e" y="294.304272"/>
     <use style="fill:#ff0000;stroke:#ff0000;" x="338.480899" xlink:href="#m2bb0bb9d9e" y="294.312595"/>
     <use style="fill:#ff0000;stroke:#ff0000;" x="342.493483" xlink:href="#m2bb0bb9d9e" y="294.325586"/>
     <use style="fill:#ff0000;stroke:#ff0000;" x="346.506067" xlink:href="#m2bb0bb9d9e" y="294.327131"/>
     <use style="fill:#ff0000;stroke:#ff0000;" x="350.518652" xlink:href="#m2bb0bb9d9e" y="294.321419"/>
     <use style="fill:#ff0000;stroke:#ff0000;" x="354.531236" xlink:href="#m2bb0bb9d9e" y="294.336799"/>
     <use style="fill:#ff0000;stroke:#ff0000;" x="358.54382" xlink:href="#m2bb0bb9d9e" y="294.326823"/>
     <use style="fill:#ff0000;stroke:#ff0000;" x="362.556404" xlink:href="#m2bb0bb9d9e" y="294.324826"/>
     <use style="fill:#ff0000;stroke:#ff0000;" x="366.568989" xlink:href="#m2bb0bb9d9e" y="294.424225"/>
     <use style="fill:#ff0000;stroke:#ff0000;" x="370.581573" xlink:href="#m2bb0bb9d9e" y="294.325661"/>
     <use style="fill:#ff0000;stroke:#ff0000;" x="374.594157" xlink:href="#m2bb0bb9d9e" y="294.338189"/>
     <use style="fill:#ff0000;stroke:#ff0000;" x="378.606742" xlink:href="#m2bb0bb9d9e" y="294.34162"/>
     <use style="fill:#ff0000;stroke:#ff0000;" x="382.619326" xlink:href="#m2bb0bb9d9e" y="294.337849"/>
     <use style="fill:#ff0000;stroke:#ff0000;" x="386.63191" xlink:href="#m2bb0bb9d9e" y="294.324535"/>
     <use style="fill:#ff0000;stroke:#ff0000;" x="390.644494" xlink:href="#m2bb0bb9d9e" y="294.541916"/>
     <use style="fill:#ff0000;stroke:#ff0000;" x="394.657079" xlink:href="#m2bb0bb9d9e" y="294.951859"/>
     <use style="fill:#ff0000;stroke:#ff0000;" x="398.669663" xlink:href="#m2bb0bb9d9e" y="294.436466"/>
     <use style="fill:#ff0000;stroke:#ff0000;" x="402.682247" xlink:href="#m2bb0bb9d9e" y="294.47234"/>
     <use style="fill:#ff0000;stroke:#ff0000;" x="406.694831" xlink:href="#m2bb0bb9d9e" y="295.233231"/>
     <use style="fill:#ff0000;stroke:#ff0000;" x="410.707416" xlink:href="#m2bb0bb9d9e" y="295.382707"/>
    </g>
   </g>
   <g id="line2d_63">
    <path clip-path="url(#p84ee4551fc)" d="M 61.612584 174.444414 
L 65.625169 276.191752 
L 69.637753 274.519618 
L 73.650337 278.781419 
L 77.662921 283.043356 
L 81.675506 281.14977 
L 85.68809 281.870133 
L 89.700674 283.883039 
L 93.713258 282.837641 
L 97.725843 283.37276 
L 101.738427 284.213969 
L 105.751011 283.703095 
L 109.763596 283.654075 
L 113.77618 283.616551 
L 117.788764 283.590142 
L 121.801348 284.213781 
L 125.813933 284.129361 
L 129.826517 284.414036 
L 133.839101 284.039426 
L 137.851685 284.29438 
L 141.86427 285.063568 
L 145.876854 284.582385 
L 149.889438 284.515257 
L 153.902022 284.528282 
L 157.914607 285.825169 
L 161.927191 283.889038 
L 165.939775 285.13289 
L 169.95236 284.742355 
L 173.964944 285.133435 
L 177.977528 285.115116 
L 181.990112 285.631393 
L 186.002697 285.848641 
L 190.015281 287.673127 
L 194.027865 285.62987 
L 198.040449 285.867558 
L 202.053034 285.877652 
L 206.065618 285.97437 
L 210.078202 287.180845 
L 214.090787 288.255348 
L 218.103371 286.258346 
L 222.115955 287.566799 
L 226.128539 286.301408 
L 230.141124 286.823871 
L 234.153708 288.518391 
L 238.166292 287.03018 
L 242.178876 288.318707 
L 246.191461 287.208702 
L 250.204045 287.203778 
L 254.216629 286.94788 
L 258.229213 287.236046 
L 262.241798 287.956851 
L 266.254382 288.600404 
L 270.266966 288.642604 
L 274.279551 287.626161 
L 278.292135 287.353255 
L 282.304719 287.631304 
L 286.317303 287.842075 
L 290.329888 287.788316 
L 294.342472 287.215979 
L 298.355056 287.706284 
L 302.36764 287.753638 
L 306.380225 287.875917 
L 310.392809 287.743678 
L 314.405393 287.637784 
L 318.417978 288.707378 
L 322.430562 289.82564 
L 326.443146 288.785569 
L 330.45573 288.231968 
L 334.468315 288.197094 
L 338.480899 287.985468 
L 342.493483 287.863808 
L 346.506067 288.397103 
L 350.518652 289.509232 
L 354.531236 288.591135 
L 358.54382 288.678699 
L 362.556404 288.70319 
L 366.568989 288.485511 
L 370.581573 288.675493 
L 374.594157 288.665295 
L 378.606742 289.435519 
L 382.619326 288.922877 
L 386.63191 289.955836 
L 390.644494 289.74694 
L 394.657079 290.163856 
L 398.669663 289.786893 
L 402.682247 289.960801 
L 406.694831 295.286207 
L 410.707416 295.435353 
" style="fill:none;stroke:#008000;stroke-dasharray:1.5,2.475;stroke-dashoffset:0;stroke-width:1.5;"/>
    <defs>
     <path d="M 0 1.5 
C 0.397805 1.5 0.77937 1.341951 1.06066 1.06066 
C 1.341951 0.77937 1.5 0.397805 1.5 0 
C 1.5 -0.397805 1.341951 -0.77937 1.06066 -1.06066 
C 0.77937 -1.341951 0.397805 -1.5 0 -1.5 
C -0.397805 -1.5 -0.77937 -1.341951 -1.06066 -1.06066 
C -1.341951 -0.77937 -1.5 -0.397805 -1.5 0 
C -1.5 0.397805 -1.341951 0.77937 -1.06066 1.06066 
C -0.77937 1.341951 -0.397805 1.5 0 1.5 
z
" id="mf95572938b" style="stroke:#008000;"/>
    </defs>
    <g clip-path="url(#p84ee4551fc)">
     <use style="fill:#008000;stroke:#008000;" x="61.612584" xlink:href="#mf95572938b" y="174.444414"/>
     <use style="fill:#008000;stroke:#008000;" x="65.625169" xlink:href="#mf95572938b" y="276.191752"/>
     <use style="fill:#008000;stroke:#008000;" x="69.637753" xlink:href="#mf95572938b" y="274.519618"/>
     <use style="fill:#008000;stroke:#008000;" x="73.650337" xlink:href="#mf95572938b" y="278.781419"/>
     <use style="fill:#008000;stroke:#008000;" x="77.662921" xlink:href="#mf95572938b" y="283.043356"/>
     <use style="fill:#008000;stroke:#008000;" x="81.675506" xlink:href="#mf95572938b" y="281.14977"/>
     <use style="fill:#008000;stroke:#008000;" x="85.68809" xlink:href="#mf95572938b" y="281.870133"/>
     <use style="fill:#008000;stroke:#008000;" x="89.700674" xlink:href="#mf95572938b" y="283.883039"/>
     <use style="fill:#008000;stroke:#008000;" x="93.713258" xlink:href="#mf95572938b" y="282.837641"/>
     <use style="fill:#008000;stroke:#008000;" x="97.725843" xlink:href="#mf95572938b" y="283.37276"/>
     <use style="fill:#008000;stroke:#008000;" x="101.738427" xlink:href="#mf95572938b" y="284.213969"/>
     <use style="fill:#008000;stroke:#008000;" x="105.751011" xlink:href="#mf95572938b" y="283.703095"/>
     <use style="fill:#008000;stroke:#008000;" x="109.763596" xlink:href="#mf95572938b" y="283.654075"/>
     <use style="fill:#008000;stroke:#008000;" x="113.77618" xlink:href="#mf95572938b" y="283.616551"/>
     <use style="fill:#008000;stroke:#008000;" x="117.788764" xlink:href="#mf95572938b" y="283.590142"/>
     <use style="fill:#008000;stroke:#008000;" x="121.801348" xlink:href="#mf95572938b" y="284.213781"/>
     <use style="fill:#008000;stroke:#008000;" x="125.813933" xlink:href="#mf95572938b" y="284.129361"/>
     <use style="fill:#008000;stroke:#008000;" x="129.826517" xlink:href="#mf95572938b" y="284.414036"/>
     <use style="fill:#008000;stroke:#008000;" x="133.839101" xlink:href="#mf95572938b" y="284.039426"/>
     <use style="fill:#008000;stroke:#008000;" x="137.851685" xlink:href="#mf95572938b" y="284.29438"/>
     <use style="fill:#008000;stroke:#008000;" x="141.86427" xlink:href="#mf95572938b" y="285.063568"/>
     <use style="fill:#008000;stroke:#008000;" x="145.876854" xlink:href="#mf95572938b" y="284.582385"/>
     <use style="fill:#008000;stroke:#008000;" x="149.889438" xlink:href="#mf95572938b" y="284.515257"/>
     <use style="fill:#008000;stroke:#008000;" x="153.902022" xlink:href="#mf95572938b" y="284.528282"/>
     <use style="fill:#008000;stroke:#008000;" x="157.914607" xlink:href="#mf95572938b" y="285.825169"/>
     <use style="fill:#008000;stroke:#008000;" x="161.927191" xlink:href="#mf95572938b" y="283.889038"/>
     <use style="fill:#008000;stroke:#008000;" x="165.939775" xlink:href="#mf95572938b" y="285.13289"/>
     <use style="fill:#008000;stroke:#008000;" x="169.95236" xlink:href="#mf95572938b" y="284.742355"/>
     <use style="fill:#008000;stroke:#008000;" x="173.964944" xlink:href="#mf95572938b" y="285.133435"/>
     <use style="fill:#008000;stroke:#008000;" x="177.977528" xlink:href="#mf95572938b" y="285.115116"/>
     <use style="fill:#008000;stroke:#008000;" x="181.990112" xlink:href="#mf95572938b" y="285.631393"/>
     <use style="fill:#008000;stroke:#008000;" x="186.002697" xlink:href="#mf95572938b" y="285.848641"/>
     <use style="fill:#008000;stroke:#008000;" x="190.015281" xlink:href="#mf95572938b" y="287.673127"/>
     <use style="fill:#008000;stroke:#008000;" x="194.027865" xlink:href="#mf95572938b" y="285.62987"/>
     <use style="fill:#008000;stroke:#008000;" x="198.040449" xlink:href="#mf95572938b" y="285.867558"/>
     <use style="fill:#008000;stroke:#008000;" x="202.053034" xlink:href="#mf95572938b" y="285.877652"/>
     <use style="fill:#008000;stroke:#008000;" x="206.065618" xlink:href="#mf95572938b" y="285.97437"/>
     <use style="fill:#008000;stroke:#008000;" x="210.078202" xlink:href="#mf95572938b" y="287.180845"/>
     <use style="fill:#008000;stroke:#008000;" x="214.090787" xlink:href="#mf95572938b" y="288.255348"/>
     <use style="fill:#008000;stroke:#008000;" x="218.103371" xlink:href="#mf95572938b" y="286.258346"/>
     <use style="fill:#008000;stroke:#008000;" x="222.115955" xlink:href="#mf95572938b" y="287.566799"/>
     <use style="fill:#008000;stroke:#008000;" x="226.128539" xlink:href="#mf95572938b" y="286.301408"/>
     <use style="fill:#008000;stroke:#008000;" x="230.141124" xlink:href="#mf95572938b" y="286.823871"/>
     <use style="fill:#008000;stroke:#008000;" x="234.153708" xlink:href="#mf95572938b" y="288.518391"/>
     <use style="fill:#008000;stroke:#008000;" x="238.166292" xlink:href="#mf95572938b" y="287.03018"/>
     <use style="fill:#008000;stroke:#008000;" x="242.178876" xlink:href="#mf95572938b" y="288.318707"/>
     <use style="fill:#008000;stroke:#008000;" x="246.191461" xlink:href="#mf95572938b" y="287.208702"/>
     <use style="fill:#008000;stroke:#008000;" x="250.204045" xlink:href="#mf95572938b" y="287.203778"/>
     <use style="fill:#008000;stroke:#008000;" x="254.216629" xlink:href="#mf95572938b" y="286.94788"/>
     <use style="fill:#008000;stroke:#008000;" x="258.229213" xlink:href="#mf95572938b" y="287.236046"/>
     <use style="fill:#008000;stroke:#008000;" x="262.241798" xlink:href="#mf95572938b" y="287.956851"/>
     <use style="fill:#008000;stroke:#008000;" x="266.254382" xlink:href="#mf95572938b" y="288.600404"/>
     <use style="fill:#008000;stroke:#008000;" x="270.266966" xlink:href="#mf95572938b" y="288.642604"/>
     <use style="fill:#008000;stroke:#008000;" x="274.279551" xlink:href="#mf95572938b" y="287.626161"/>
     <use style="fill:#008000;stroke:#008000;" x="278.292135" xlink:href="#mf95572938b" y="287.353255"/>
     <use style="fill:#008000;stroke:#008000;" x="282.304719" xlink:href="#mf95572938b" y="287.631304"/>
     <use style="fill:#008000;stroke:#008000;" x="286.317303" xlink:href="#mf95572938b" y="287.842075"/>
     <use style="fill:#008000;stroke:#008000;" x="290.329888" xlink:href="#mf95572938b" y="287.788316"/>
     <use style="fill:#008000;stroke:#008000;" x="294.342472" xlink:href="#mf95572938b" y="287.215979"/>
     <use style="fill:#008000;stroke:#008000;" x="298.355056" xlink:href="#mf95572938b" y="287.706284"/>
     <use style="fill:#008000;stroke:#008000;" x="302.36764" xlink:href="#mf95572938b" y="287.753638"/>
     <use style="fill:#008000;stroke:#008000;" x="306.380225" xlink:href="#mf95572938b" y="287.875917"/>
     <use style="fill:#008000;stroke:#008000;" x="310.392809" xlink:href="#mf95572938b" y="287.743678"/>
     <use style="fill:#008000;stroke:#008000;" x="314.405393" xlink:href="#mf95572938b" y="287.637784"/>
     <use style="fill:#008000;stroke:#008000;" x="318.417978" xlink:href="#mf95572938b" y="288.707378"/>
     <use style="fill:#008000;stroke:#008000;" x="322.430562" xlink:href="#mf95572938b" y="289.82564"/>
     <use style="fill:#008000;stroke:#008000;" x="326.443146" xlink:href="#mf95572938b" y="288.785569"/>
     <use style="fill:#008000;stroke:#008000;" x="330.45573" xlink:href="#mf95572938b" y="288.231968"/>
     <use style="fill:#008000;stroke:#008000;" x="334.468315" xlink:href="#mf95572938b" y="288.197094"/>
     <use style="fill:#008000;stroke:#008000;" x="338.480899" xlink:href="#mf95572938b" y="287.985468"/>
     <use style="fill:#008000;stroke:#008000;" x="342.493483" xlink:href="#mf95572938b" y="287.863808"/>
     <use style="fill:#008000;stroke:#008000;" x="346.506067" xlink:href="#mf95572938b" y="288.397103"/>
     <use style="fill:#008000;stroke:#008000;" x="350.518652" xlink:href="#mf95572938b" y="289.509232"/>
     <use style="fill:#008000;stroke:#008000;" x="354.531236" xlink:href="#mf95572938b" y="288.591135"/>
     <use style="fill:#008000;stroke:#008000;" x="358.54382" xlink:href="#mf95572938b" y="288.678699"/>
     <use style="fill:#008000;stroke:#008000;" x="362.556404" xlink:href="#mf95572938b" y="288.70319"/>
     <use style="fill:#008000;stroke:#008000;" x="366.568989" xlink:href="#mf95572938b" y="288.485511"/>
     <use style="fill:#008000;stroke:#008000;" x="370.581573" xlink:href="#mf95572938b" y="288.675493"/>
     <use style="fill:#008000;stroke:#008000;" x="374.594157" xlink:href="#mf95572938b" y="288.665295"/>
     <use style="fill:#008000;stroke:#008000;" x="378.606742" xlink:href="#mf95572938b" y="289.435519"/>
     <use style="fill:#008000;stroke:#008000;" x="382.619326" xlink:href="#mf95572938b" y="288.922877"/>
     <use style="fill:#008000;stroke:#008000;" x="386.63191" xlink:href="#mf95572938b" y="289.955836"/>
     <use style="fill:#008000;stroke:#008000;" x="390.644494" xlink:href="#mf95572938b" y="289.74694"/>
     <use style="fill:#008000;stroke:#008000;" x="394.657079" xlink:href="#mf95572938b" y="290.163856"/>
     <use style="fill:#008000;stroke:#008000;" x="398.669663" xlink:href="#mf95572938b" y="289.786893"/>
     <use style="fill:#008000;stroke:#008000;" x="402.682247" xlink:href="#mf95572938b" y="289.960801"/>
     <use style="fill:#008000;stroke:#008000;" x="406.694831" xlink:href="#mf95572938b" y="295.286207"/>
     <use style="fill:#008000;stroke:#008000;" x="410.707416" xlink:href="#mf95572938b" y="295.435353"/>
    </g>
   </g>
   <g id="patch_3">
    <path d="M 57.6 307.584 
L 57.6 41.472 
" style="fill:none;stroke:#000000;stroke-linecap:square;stroke-linejoin:miter;stroke-width:0.8;"/>
   </g>
   <g id="patch_4">
    <path d="M 414.72 307.584 
L 414.72 41.472 
" style="fill:none;stroke:#000000;stroke-linecap:square;stroke-linejoin:miter;stroke-width:0.8;"/>
   </g>
   <g id="patch_5">
    <path d="M 57.6 307.584 
L 414.72 307.584 
" style="fill:none;stroke:#000000;stroke-linecap:square;stroke-linejoin:miter;stroke-width:0.8;"/>
   </g>
   <g id="patch_6">
    <path d="M 57.6 41.472 
L 414.72 41.472 
" style="fill:none;stroke:#000000;stroke-linecap:square;stroke-linejoin:miter;stroke-width:0.8;"/>
   </g>
   <g id="text_33">
    <!-- radix sort 3 on pre_transpose9 -->
    <g transform="translate(144.083438 35.472)scale(0.12 -0.12)">
     <defs>
      <path d="M 9.421875 54.6875 
L 18.40625 54.6875 
L 18.40625 0 
L 9.421875 0 
z
M 9.421875 75.984375 
L 18.40625 75.984375 
L 18.40625 64.59375 
L 9.421875 64.59375 
z
" id="DejaVuSans-105"/>
      <path d="M 54.890625 54.6875 
L 35.109375 28.078125 
L 55.90625 0 
L 45.3125 0 
L 29.390625 21.484375 
L 13.484375 0 
L 2.875 0 
L 24.125 28.609375 
L 4.6875 54.6875 
L 15.28125 54.6875 
L 29.78125 35.203125 
L 44.28125 54.6875 
z
" id="DejaVuSans-120"/>
      <path d="M 30.609375 48.390625 
Q 23.390625 48.390625 19.1875 42.75 
Q 14.984375 37.109375 14.984375 27.296875 
Q 14.984375 17.484375 19.15625 11.84375 
Q 23.34375 6.203125 30.609375 6.203125 
Q 37.796875 6.203125 41.984375 11.859375 
Q 46.1875 17.53125 46.1875 27.296875 
Q 46.1875 37.015625 41.984375 42.703125 
Q 37.796875 48.390625 30.609375 48.390625 
z
M 30.609375 56 
Q 42.328125 56 49.015625 48.375 
Q 55.71875 40.765625 55.71875 27.296875 
Q 55.71875 13.875 49.015625 6.21875 
Q 42.328125 -1.421875 30.609375 -1.421875 
Q 18.84375 -1.421875 12.171875 6.21875 
Q 5.515625 13.875 5.515625 27.296875 
Q 5.515625 40.765625 12.171875 48.375 
Q 18.84375 56 30.609375 56 
z
" id="DejaVuSans-111"/>
      <path d="M 54.890625 33.015625 
L 54.890625 0 
L 45.90625 0 
L 45.90625 32.71875 
Q 45.90625 40.484375 42.875 44.328125 
Q 39.84375 48.1875 33.796875 48.1875 
Q 26.515625 48.1875 22.3125 43.546875 
Q 18.109375 38.921875 18.109375 30.90625 
L 18.109375 0 
L 9.078125 0 
L 9.078125 54.6875 
L 18.109375 54.6875 
L 18.109375 46.1875 
Q 21.34375 51.125 25.703125 53.5625 
Q 30.078125 56 35.796875 56 
Q 45.21875 56 50.046875 50.171875 
Q 54.890625 44.34375 54.890625 33.015625 
z
" id="DejaVuSans-110"/>
      <path d="M 50.984375 -16.609375 
L 50.984375 -23.578125 
L -0.984375 -23.578125 
L -0.984375 -16.609375 
z
" id="DejaVuSans-95"/>
      <path d="M 10.984375 1.515625 
L 10.984375 10.5 
Q 14.703125 8.734375 18.5 7.8125 
Q 22.3125 6.890625 25.984375 6.890625 
Q 35.75 6.890625 40.890625 13.453125 
Q 46.046875 20.015625 46.78125 33.40625 
Q 43.953125 29.203125 39.59375 26.953125 
Q 35.25 24.703125 29.984375 24.703125 
Q 19.046875 24.703125 12.671875 31.3125 
Q 6.296875 37.9375 6.296875 49.421875 
Q 6.296875 60.640625 12.9375 67.421875 
Q 19.578125 74.21875 30.609375 74.21875 
Q 43.265625 74.21875 49.921875 64.515625 
Q 56.59375 54.828125 56.59375 36.375 
Q 56.59375 19.140625 48.40625 8.859375 
Q 40.234375 -1.421875 26.421875 -1.421875 
Q 22.703125 -1.421875 18.890625 -0.6875 
Q 15.09375 0.046875 10.984375 1.515625 
z
M 30.609375 32.421875 
Q 37.25 32.421875 41.125 36.953125 
Q 45.015625 41.5 45.015625 49.421875 
Q 45.015625 57.28125 41.125 61.84375 
Q 37.25 66.40625 30.609375 66.40625 
Q 23.96875 66.40625 20.09375 61.84375 
Q 16.21875 57.28125 16.21875 49.421875 
Q 16.21875 41.5 20.09375 36.953125 
Q 23.96875 32.421875 30.609375 32.421875 
z
" id="DejaVuSans-57"/>
     </defs>
     <use xlink:href="#DejaVuSans-114"/>
     <use x="41.113281" xlink:href="#DejaVuSans-97"/>
     <use x="102.392578" xlink:href="#DejaVuSans-100"/>
     <use x="165.869141" xlink:href="#DejaVuSans-105"/>
     <use x="193.652344" xlink:href="#DejaVuSans-120"/>
     <use x="252.832031" xlink:href="#DejaVuSans-32"/>
     <use x="284.619141" xlink:href="#DejaVuSans-115"/>
     <use x="336.71875" xlink:href="#DejaVuSans-111"/>
     <use x="397.900391" xlink:href="#DejaVuSans-114"/>
     <use x="439.013672" xlink:href="#DejaVuSans-116"/>
     <use x="478.222656" xlink:href="#DejaVuSans-32"/>
     <use x="510.009766" xlink:href="#DejaVuSans-51"/>
     <use x="573.632812" xlink:href="#DejaVuSans-32"/>
     <use x="605.419922" xlink:href="#DejaVuSans-111"/>
     <use x="666.601562" xlink:href="#DejaVuSans-110"/>
     <use x="729.980469" xlink:href="#DejaVuSans-32"/>
     <use x="761.767578" xlink:href="#DejaVuSans-112"/>
     <use x="825.244141" xlink:href="#DejaVuSans-114"/>
     <use x="864.107422" xlink:href="#DejaVuSans-101"/>
     <use x="925.630859" xlink:href="#DejaVuSans-95"/>
     <use x="975.630859" xlink:href="#DejaVuSans-116"/>
     <use x="1014.839844" xlink:href="#DejaVuSans-114"/>
     <use x="1055.953125" xlink:href="#DejaVuSans-97"/>
     <use x="1117.232422" xlink:href="#DejaVuSans-110"/>
     <use x="1180.611328" xlink:href="#DejaVuSans-115"/>
     <use x="1232.710938" xlink:href="#DejaVuSans-112"/>
     <use x="1296.1875" xlink:href="#DejaVuSans-111"/>
     <use x="1357.369141" xlink:href="#DejaVuSans-115"/>
     <use x="1409.46875" xlink:href="#DejaVuSans-101"/>
     <use x="1470.992188" xlink:href="#DejaVuSans-57"/>
    </g>
   </g>
   <g id="legend_1">
    <g id="patch_7">
     <path d="M 313.152813 93.7845 
L 407.72 93.7845 
Q 409.72 93.7845 409.72 91.7845 
L 409.72 48.472 
Q 409.72 46.472 407.72 46.472 
L 313.152813 46.472 
Q 311.152813 46.472 311.152813 48.472 
L 311.152813 91.7845 
Q 311.152813 93.7845 313.152813 93.7845 
z
" style="fill:#ffffff;opacity:0.8;stroke:#cccccc;stroke-linejoin:miter;"/>
    </g>
    <g id="line2d_64">
     <path d="M 315.152813 54.570438 
L 335.152813 54.570438 
" style="fill:none;stroke:#0000ff;stroke-dasharray:1.5,2.475;stroke-dashoffset:0;stroke-width:1.5;"/>
    </g>
    <g id="line2d_65">
     <g>
      <use style="fill:#0000ff;stroke:#0000ff;" x="325.152813" xlink:href="#m3dfe45207c" y="54.570438"/>
     </g>
    </g>
    <g id="text_34">
     <!-- transpose -->
     <g transform="translate(343.152813 58.070438)scale(0.1 -0.1)">
      <use xlink:href="#DejaVuSans-116"/>
      <use x="39.208984" xlink:href="#DejaVuSans-114"/>
      <use x="80.322266" xlink:href="#DejaVuSans-97"/>
      <use x="141.601562" xlink:href="#DejaVuSans-110"/>
      <use x="204.980469" xlink:href="#DejaVuSans-115"/>
      <use x="257.080078" xlink:href="#DejaVuSans-112"/>
      <use x="320.556641" xlink:href="#DejaVuSans-111"/>
      <use x="381.738281" xlink:href="#DejaVuSans-115"/>
      <use x="433.837891" xlink:href="#DejaVuSans-101"/>
     </g>
    </g>
    <g id="line2d_66">
     <path d="M 315.152813 69.248563 
L 335.152813 69.248563 
" style="fill:none;stroke:#ff0000;stroke-dasharray:1.5,2.475;stroke-dashoffset:0;stroke-width:1.5;"/>
    </g>
    <g id="line2d_67">
     <g>
      <use style="fill:#ff0000;stroke:#ff0000;" x="325.152813" xlink:href="#m2bb0bb9d9e" y="69.248563"/>
     </g>
    </g>
    <g id="text_35">
     <!-- transpose_tr -->
     <g transform="translate(343.152813 72.748563)scale(0.1 -0.1)">
      <use xlink:href="#DejaVuSans-116"/>
      <use x="39.208984" xlink:href="#DejaVuSans-114"/>
      <use x="80.322266" xlink:href="#DejaVuSans-97"/>
      <use x="141.601562" xlink:href="#DejaVuSans-110"/>
      <use x="204.980469" xlink:href="#DejaVuSans-115"/>
      <use x="257.080078" xlink:href="#DejaVuSans-112"/>
      <use x="320.556641" xlink:href="#DejaVuSans-111"/>
      <use x="381.738281" xlink:href="#DejaVuSans-115"/>
      <use x="433.837891" xlink:href="#DejaVuSans-101"/>
      <use x="495.361328" xlink:href="#DejaVuSans-95"/>
      <use x="545.361328" xlink:href="#DejaVuSans-116"/>
      <use x="584.570312" xlink:href="#DejaVuSans-114"/>
     </g>
    </g>
    <g id="line2d_68">
     <path d="M 315.152813 84.204813 
L 335.152813 84.204813 
" style="fill:none;stroke:#008000;stroke-dasharray:1.5,2.475;stroke-dashoffset:0;stroke-width:1.5;"/>
    </g>
    <g id="line2d_69">
     <g>
      <use style="fill:#008000;stroke:#008000;" x="325.152813" xlink:href="#mf95572938b" y="84.204813"/>
     </g>
    </g>
    <g id="text_36">
     <!-- mean -->
     <g transform="translate(343.152813 87.704813)scale(0.1 -0.1)">
      <defs>
       <path d="M 52 44.1875 
Q 55.375 50.25 60.0625 53.125 
Q 64.75 56 71.09375 56 
Q 79.640625 56 84.28125 50.015625 
Q 88.921875 44.046875 88.921875 33.015625 
L 88.921875 0 
L 79.890625 0 
L 79.890625 32.71875 
Q 79.890625 40.578125 77.09375 44.375 
Q 74.3125 48.1875 68.609375 48.1875 
Q 61.625 48.1875 57.5625 43.546875 
Q 53.515625 38.921875 53.515625 30.90625 
L 53.515625 0 
L 44.484375 0 
L 44.484375 32.71875 
Q 44.484375 40.625 41.703125 44.40625 
Q 38.921875 48.1875 33.109375 48.1875 
Q 26.21875 48.1875 22.15625 43.53125 
Q 18.109375 38.875 18.109375 30.90625 
L 18.109375 0 
L 9.078125 0 
L 9.078125 54.6875 
L 18.109375 54.6875 
L 18.109375 46.1875 
Q 21.1875 51.21875 25.484375 53.609375 
Q 29.78125 56 35.6875 56 
Q 41.65625 56 45.828125 52.96875 
Q 50 49.953125 52 44.1875 
z
" id="DejaVuSans-109"/>
      </defs>
      <use xlink:href="#DejaVuSans-109"/>
      <use x="97.412109" xlink:href="#DejaVuSans-101"/>
      <use x="158.935547" xlink:href="#DejaVuSans-97"/>
      <use x="220.214844" xlink:href="#DejaVuSans-110"/>
     </g>
    </g>
   </g>
  </g>
 </g>
 <defs>
  <clipPath id="p84ee4551fc">
   <rect height="266.112" width="357.12" x="57.6" y="41.472"/>
  </clipPath>
 </defs>
</svg>
