<?xml version="1.0" encoding="utf-8" standalone="no"?>
<!DOCTYPE svg PUBLIC "-//W3C//DTD SVG 1.1//EN"
  "http://www.w3.org/Graphics/SVG/1.1/DTD/svg11.dtd">
<!-- Created with matplotlib (https://matplotlib.org/) -->
<svg height="345.6pt" version="1.1" viewBox="0 0 460.8 345.6" width="460.8pt" xmlns="http://www.w3.org/2000/svg" xmlns:xlink="http://www.w3.org/1999/xlink">
 <metadata>
  <rdf:RDF xmlns:cc="http://creativecommons.org/ns#" xmlns:dc="http://purl.org/dc/elements/1.1/" xmlns:rdf="http://www.w3.org/1999/02/22-rdf-syntax-ns#">
   <cc:Work>
    <dc:type rdf:resource="http://purl.org/dc/dcmitype/StillImage"/>
    <dc:date>2020-08-27T10:04:42.613977</dc:date>
    <dc:format>image/svg+xml</dc:format>
    <dc:creator>
     <cc:Agent>
      <dc:title>Matplotlib v3.3.1, https://matplotlib.org/</dc:title>
     </cc:Agent>
    </dc:creator>
   </cc:Work>
  </rdf:RDF>
 </metadata>
 <defs>
  <style type="text/css">*{stroke-linecap:butt;stroke-linejoin:round;}</style>
 </defs>
 <g id="figure_1">
  <g id="patch_1">
   <path d="M 0 345.6 
L 460.8 345.6 
L 460.8 0 
L 0 0 
z
" style="fill:#ffffff;"/>
  </g>
  <g id="axes_1">
   <g id="patch_2">
    <path d="M 57.6 307.584 
L 414.72 307.584 
L 414.72 41.472 
L 57.6 41.472 
z
" style="fill:#ffffff;"/>
   </g>
   <g id="matplotlib.axis_1">
    <g id="xtick_1">
     <g id="line2d_1">
      <path clip-path="url(#pdaf4ea0196)" d="M 61.612584 307.584 
L 61.612584 41.472 
" style="fill:none;stroke:#b0b0b0;stroke-dasharray:5.12,1.28,0.8,1.28;stroke-dashoffset:0;stroke-width:0.8;"/>
     </g>
     <g id="line2d_2">
      <defs>
       <path d="M 0 0 
L 0 3.5 
" id="m491c798393" style="stroke:#000000;stroke-width:0.8;"/>
      </defs>
      <g>
       <use style="stroke:#000000;stroke-width:0.8;" x="61.612584" xlink:href="#m491c798393" y="307.584"/>
      </g>
     </g>
     <g id="text_1">
      <!-- 1 -->
      <g transform="translate(58.431334 322.182437)scale(0.1 -0.1)">
       <defs>
        <path d="M 12.40625 8.296875 
L 28.515625 8.296875 
L 28.515625 63.921875 
L 10.984375 60.40625 
L 10.984375 69.390625 
L 28.421875 72.90625 
L 38.28125 72.90625 
L 38.28125 8.296875 
L 54.390625 8.296875 
L 54.390625 0 
L 12.40625 0 
z
" id="DejaVuSans-49"/>
       </defs>
       <use xlink:href="#DejaVuSans-49"/>
      </g>
     </g>
    </g>
    <g id="xtick_2">
     <g id="line2d_3">
      <path clip-path="url(#pdaf4ea0196)" d="M 73.650337 307.584 
L 73.650337 41.472 
" style="fill:none;stroke:#b0b0b0;stroke-dasharray:5.12,1.28,0.8,1.28;stroke-dashoffset:0;stroke-width:0.8;"/>
     </g>
     <g id="line2d_4">
      <g>
       <use style="stroke:#000000;stroke-width:0.8;" x="73.650337" xlink:href="#m491c798393" y="307.584"/>
      </g>
     </g>
     <g id="text_2">
      <!-- 4 -->
      <g transform="translate(70.469087 322.182437)scale(0.1 -0.1)">
       <defs>
        <path d="M 37.796875 64.3125 
L 12.890625 25.390625 
L 37.796875 25.390625 
z
M 35.203125 72.90625 
L 47.609375 72.90625 
L 47.609375 25.390625 
L 58.015625 25.390625 
L 58.015625 17.1875 
L 47.609375 17.1875 
L 47.609375 0 
L 37.796875 0 
L 37.796875 17.1875 
L 4.890625 17.1875 
L 4.890625 26.703125 
z
" id="DejaVuSans-52"/>
       </defs>
       <use xlink:href="#DejaVuSans-52"/>
      </g>
     </g>
    </g>
    <g id="xtick_3">
     <g id="line2d_5">
      <path clip-path="url(#pdaf4ea0196)" d="M 89.700674 307.584 
L 89.700674 41.472 
" style="fill:none;stroke:#b0b0b0;stroke-dasharray:5.12,1.28,0.8,1.28;stroke-dashoffset:0;stroke-width:0.8;"/>
     </g>
     <g id="line2d_6">
      <g>
       <use style="stroke:#000000;stroke-width:0.8;" x="89.700674" xlink:href="#m491c798393" y="307.584"/>
      </g>
     </g>
     <g id="text_3">
      <!-- 8 -->
      <g transform="translate(86.519424 322.182437)scale(0.1 -0.1)">
       <defs>
        <path d="M 31.78125 34.625 
Q 24.75 34.625 20.71875 30.859375 
Q 16.703125 27.09375 16.703125 20.515625 
Q 16.703125 13.921875 20.71875 10.15625 
Q 24.75 6.390625 31.78125 6.390625 
Q 38.8125 6.390625 42.859375 10.171875 
Q 46.921875 13.96875 46.921875 20.515625 
Q 46.921875 27.09375 42.890625 30.859375 
Q 38.875 34.625 31.78125 34.625 
z
M 21.921875 38.8125 
Q 15.578125 40.375 12.03125 44.71875 
Q 8.5 49.078125 8.5 55.328125 
Q 8.5 64.0625 14.71875 69.140625 
Q 20.953125 74.21875 31.78125 74.21875 
Q 42.671875 74.21875 48.875 69.140625 
Q 55.078125 64.0625 55.078125 55.328125 
Q 55.078125 49.078125 51.53125 44.71875 
Q 48 40.375 41.703125 38.8125 
Q 48.828125 37.15625 52.796875 32.3125 
Q 56.78125 27.484375 56.78125 20.515625 
Q 56.78125 9.90625 50.3125 4.234375 
Q 43.84375 -1.421875 31.78125 -1.421875 
Q 19.734375 -1.421875 13.25 4.234375 
Q 6.78125 9.90625 6.78125 20.515625 
Q 6.78125 27.484375 10.78125 32.3125 
Q 14.796875 37.15625 21.921875 38.8125 
z
M 18.3125 54.390625 
Q 18.3125 48.734375 21.84375 45.5625 
Q 25.390625 42.390625 31.78125 42.390625 
Q 38.140625 42.390625 41.71875 45.5625 
Q 45.3125 48.734375 45.3125 54.390625 
Q 45.3125 60.0625 41.71875 63.234375 
Q 38.140625 66.40625 31.78125 66.40625 
Q 25.390625 66.40625 21.84375 63.234375 
Q 18.3125 60.0625 18.3125 54.390625 
z
" id="DejaVuSans-56"/>
       </defs>
       <use xlink:href="#DejaVuSans-56"/>
      </g>
     </g>
    </g>
    <g id="xtick_4">
     <g id="line2d_7">
      <path clip-path="url(#pdaf4ea0196)" d="M 105.751011 307.584 
L 105.751011 41.472 
" style="fill:none;stroke:#b0b0b0;stroke-dasharray:5.12,1.28,0.8,1.28;stroke-dashoffset:0;stroke-width:0.8;"/>
     </g>
     <g id="line2d_8">
      <g>
       <use style="stroke:#000000;stroke-width:0.8;" x="105.751011" xlink:href="#m491c798393" y="307.584"/>
      </g>
     </g>
     <g id="text_4">
      <!-- 12 -->
      <g transform="translate(99.388511 322.182437)scale(0.1 -0.1)">
       <defs>
        <path d="M 19.1875 8.296875 
L 53.609375 8.296875 
L 53.609375 0 
L 7.328125 0 
L 7.328125 8.296875 
Q 12.9375 14.109375 22.625 23.890625 
Q 32.328125 33.6875 34.8125 36.53125 
Q 39.546875 41.84375 41.421875 45.53125 
Q 43.3125 49.21875 43.3125 52.78125 
Q 43.3125 58.59375 39.234375 62.25 
Q 35.15625 65.921875 28.609375 65.921875 
Q 23.96875 65.921875 18.8125 64.3125 
Q 13.671875 62.703125 7.8125 59.421875 
L 7.8125 69.390625 
Q 13.765625 71.78125 18.9375 73 
Q 24.125 74.21875 28.421875 74.21875 
Q 39.75 74.21875 46.484375 68.546875 
Q 53.21875 62.890625 53.21875 53.421875 
Q 53.21875 48.921875 51.53125 44.890625 
Q 49.859375 40.875 45.40625 35.40625 
Q 44.1875 33.984375 37.640625 27.21875 
Q 31.109375 20.453125 19.1875 8.296875 
z
" id="DejaVuSans-50"/>
       </defs>
       <use xlink:href="#DejaVuSans-49"/>
       <use x="63.623047" xlink:href="#DejaVuSans-50"/>
      </g>
     </g>
    </g>
    <g id="xtick_5">
     <g id="line2d_9">
      <path clip-path="url(#pdaf4ea0196)" d="M 121.801348 307.584 
L 121.801348 41.472 
" style="fill:none;stroke:#b0b0b0;stroke-dasharray:5.12,1.28,0.8,1.28;stroke-dashoffset:0;stroke-width:0.8;"/>
     </g>
     <g id="line2d_10">
      <g>
       <use style="stroke:#000000;stroke-width:0.8;" x="121.801348" xlink:href="#m491c798393" y="307.584"/>
      </g>
     </g>
     <g id="text_5">
      <!-- 16 -->
      <g transform="translate(115.438848 322.182437)scale(0.1 -0.1)">
       <defs>
        <path d="M 33.015625 40.375 
Q 26.375 40.375 22.484375 35.828125 
Q 18.609375 31.296875 18.609375 23.390625 
Q 18.609375 15.53125 22.484375 10.953125 
Q 26.375 6.390625 33.015625 6.390625 
Q 39.65625 6.390625 43.53125 10.953125 
Q 47.40625 15.53125 47.40625 23.390625 
Q 47.40625 31.296875 43.53125 35.828125 
Q 39.65625 40.375 33.015625 40.375 
z
M 52.59375 71.296875 
L 52.59375 62.3125 
Q 48.875 64.0625 45.09375 64.984375 
Q 41.3125 65.921875 37.59375 65.921875 
Q 27.828125 65.921875 22.671875 59.328125 
Q 17.53125 52.734375 16.796875 39.40625 
Q 19.671875 43.65625 24.015625 45.921875 
Q 28.375 48.1875 33.59375 48.1875 
Q 44.578125 48.1875 50.953125 41.515625 
Q 57.328125 34.859375 57.328125 23.390625 
Q 57.328125 12.15625 50.6875 5.359375 
Q 44.046875 -1.421875 33.015625 -1.421875 
Q 20.359375 -1.421875 13.671875 8.265625 
Q 6.984375 17.96875 6.984375 36.375 
Q 6.984375 53.65625 15.1875 63.9375 
Q 23.390625 74.21875 37.203125 74.21875 
Q 40.921875 74.21875 44.703125 73.484375 
Q 48.484375 72.75 52.59375 71.296875 
z
" id="DejaVuSans-54"/>
       </defs>
       <use xlink:href="#DejaVuSans-49"/>
       <use x="63.623047" xlink:href="#DejaVuSans-54"/>
      </g>
     </g>
    </g>
    <g id="xtick_6">
     <g id="line2d_11">
      <path clip-path="url(#pdaf4ea0196)" d="M 137.851685 307.584 
L 137.851685 41.472 
" style="fill:none;stroke:#b0b0b0;stroke-dasharray:5.12,1.28,0.8,1.28;stroke-dashoffset:0;stroke-width:0.8;"/>
     </g>
     <g id="line2d_12">
      <g>
       <use style="stroke:#000000;stroke-width:0.8;" x="137.851685" xlink:href="#m491c798393" y="307.584"/>
      </g>
     </g>
     <g id="text_6">
      <!-- 20 -->
      <g transform="translate(131.489185 322.182437)scale(0.1 -0.1)">
       <defs>
        <path d="M 31.78125 66.40625 
Q 24.171875 66.40625 20.328125 58.90625 
Q 16.5 51.421875 16.5 36.375 
Q 16.5 21.390625 20.328125 13.890625 
Q 24.171875 6.390625 31.78125 6.390625 
Q 39.453125 6.390625 43.28125 13.890625 
Q 47.125 21.390625 47.125 36.375 
Q 47.125 51.421875 43.28125 58.90625 
Q 39.453125 66.40625 31.78125 66.40625 
z
M 31.78125 74.21875 
Q 44.046875 74.21875 50.515625 64.515625 
Q 56.984375 54.828125 56.984375 36.375 
Q 56.984375 17.96875 50.515625 8.265625 
Q 44.046875 -1.421875 31.78125 -1.421875 
Q 19.53125 -1.421875 13.0625 8.265625 
Q 6.59375 17.96875 6.59375 36.375 
Q 6.59375 54.828125 13.0625 64.515625 
Q 19.53125 74.21875 31.78125 74.21875 
z
" id="DejaVuSans-48"/>
       </defs>
       <use xlink:href="#DejaVuSans-50"/>
       <use x="63.623047" xlink:href="#DejaVuSans-48"/>
      </g>
     </g>
    </g>
    <g id="xtick_7">
     <g id="line2d_13">
      <path clip-path="url(#pdaf4ea0196)" d="M 153.902022 307.584 
L 153.902022 41.472 
" style="fill:none;stroke:#b0b0b0;stroke-dasharray:5.12,1.28,0.8,1.28;stroke-dashoffset:0;stroke-width:0.8;"/>
     </g>
     <g id="line2d_14">
      <g>
       <use style="stroke:#000000;stroke-width:0.8;" x="153.902022" xlink:href="#m491c798393" y="307.584"/>
      </g>
     </g>
     <g id="text_7">
      <!-- 24 -->
      <g transform="translate(147.539522 322.182437)scale(0.1 -0.1)">
       <use xlink:href="#DejaVuSans-50"/>
       <use x="63.623047" xlink:href="#DejaVuSans-52"/>
      </g>
     </g>
    </g>
    <g id="xtick_8">
     <g id="line2d_15">
      <path clip-path="url(#pdaf4ea0196)" d="M 169.95236 307.584 
L 169.95236 41.472 
" style="fill:none;stroke:#b0b0b0;stroke-dasharray:5.12,1.28,0.8,1.28;stroke-dashoffset:0;stroke-width:0.8;"/>
     </g>
     <g id="line2d_16">
      <g>
       <use style="stroke:#000000;stroke-width:0.8;" x="169.95236" xlink:href="#m491c798393" y="307.584"/>
      </g>
     </g>
     <g id="text_8">
      <!-- 28 -->
      <g transform="translate(163.58986 322.182437)scale(0.1 -0.1)">
       <use xlink:href="#DejaVuSans-50"/>
       <use x="63.623047" xlink:href="#DejaVuSans-56"/>
      </g>
     </g>
    </g>
    <g id="xtick_9">
     <g id="line2d_17">
      <path clip-path="url(#pdaf4ea0196)" d="M 186.002697 307.584 
L 186.002697 41.472 
" style="fill:none;stroke:#b0b0b0;stroke-dasharray:5.12,1.28,0.8,1.28;stroke-dashoffset:0;stroke-width:0.8;"/>
     </g>
     <g id="line2d_18">
      <g>
       <use style="stroke:#000000;stroke-width:0.8;" x="186.002697" xlink:href="#m491c798393" y="307.584"/>
      </g>
     </g>
     <g id="text_9">
      <!-- 32 -->
      <g transform="translate(179.640197 322.182437)scale(0.1 -0.1)">
       <defs>
        <path d="M 40.578125 39.3125 
Q 47.65625 37.796875 51.625 33 
Q 55.609375 28.21875 55.609375 21.1875 
Q 55.609375 10.40625 48.1875 4.484375 
Q 40.765625 -1.421875 27.09375 -1.421875 
Q 22.515625 -1.421875 17.65625 -0.515625 
Q 12.796875 0.390625 7.625 2.203125 
L 7.625 11.71875 
Q 11.71875 9.328125 16.59375 8.109375 
Q 21.484375 6.890625 26.8125 6.890625 
Q 36.078125 6.890625 40.9375 10.546875 
Q 45.796875 14.203125 45.796875 21.1875 
Q 45.796875 27.640625 41.28125 31.265625 
Q 36.765625 34.90625 28.71875 34.90625 
L 20.21875 34.90625 
L 20.21875 43.015625 
L 29.109375 43.015625 
Q 36.375 43.015625 40.234375 45.921875 
Q 44.09375 48.828125 44.09375 54.296875 
Q 44.09375 59.90625 40.109375 62.90625 
Q 36.140625 65.921875 28.71875 65.921875 
Q 24.65625 65.921875 20.015625 65.03125 
Q 15.375 64.15625 9.8125 62.3125 
L 9.8125 71.09375 
Q 15.4375 72.65625 20.34375 73.4375 
Q 25.25 74.21875 29.59375 74.21875 
Q 40.828125 74.21875 47.359375 69.109375 
Q 53.90625 64.015625 53.90625 55.328125 
Q 53.90625 49.265625 50.4375 45.09375 
Q 46.96875 40.921875 40.578125 39.3125 
z
" id="DejaVuSans-51"/>
       </defs>
       <use xlink:href="#DejaVuSans-51"/>
       <use x="63.623047" xlink:href="#DejaVuSans-50"/>
      </g>
     </g>
    </g>
    <g id="xtick_10">
     <g id="line2d_19">
      <path clip-path="url(#pdaf4ea0196)" d="M 202.053034 307.584 
L 202.053034 41.472 
" style="fill:none;stroke:#b0b0b0;stroke-dasharray:5.12,1.28,0.8,1.28;stroke-dashoffset:0;stroke-width:0.8;"/>
     </g>
     <g id="line2d_20">
      <g>
       <use style="stroke:#000000;stroke-width:0.8;" x="202.053034" xlink:href="#m491c798393" y="307.584"/>
      </g>
     </g>
     <g id="text_10">
      <!-- 36 -->
      <g transform="translate(195.690534 322.182437)scale(0.1 -0.1)">
       <use xlink:href="#DejaVuSans-51"/>
       <use x="63.623047" xlink:href="#DejaVuSans-54"/>
      </g>
     </g>
    </g>
    <g id="xtick_11">
     <g id="line2d_21">
      <path clip-path="url(#pdaf4ea0196)" d="M 218.103371 307.584 
L 218.103371 41.472 
" style="fill:none;stroke:#b0b0b0;stroke-dasharray:5.12,1.28,0.8,1.28;stroke-dashoffset:0;stroke-width:0.8;"/>
     </g>
     <g id="line2d_22">
      <g>
       <use style="stroke:#000000;stroke-width:0.8;" x="218.103371" xlink:href="#m491c798393" y="307.584"/>
      </g>
     </g>
     <g id="text_11">
      <!-- 40 -->
      <g transform="translate(211.740871 322.182437)scale(0.1 -0.1)">
       <use xlink:href="#DejaVuSans-52"/>
       <use x="63.623047" xlink:href="#DejaVuSans-48"/>
      </g>
     </g>
    </g>
    <g id="xtick_12">
     <g id="line2d_23">
      <path clip-path="url(#pdaf4ea0196)" d="M 234.153708 307.584 
L 234.153708 41.472 
" style="fill:none;stroke:#b0b0b0;stroke-dasharray:5.12,1.28,0.8,1.28;stroke-dashoffset:0;stroke-width:0.8;"/>
     </g>
     <g id="line2d_24">
      <g>
       <use style="stroke:#000000;stroke-width:0.8;" x="234.153708" xlink:href="#m491c798393" y="307.584"/>
      </g>
     </g>
     <g id="text_12">
      <!-- 44 -->
      <g transform="translate(227.791208 322.182437)scale(0.1 -0.1)">
       <use xlink:href="#DejaVuSans-52"/>
       <use x="63.623047" xlink:href="#DejaVuSans-52"/>
      </g>
     </g>
    </g>
    <g id="xtick_13">
     <g id="line2d_25">
      <path clip-path="url(#pdaf4ea0196)" d="M 250.204045 307.584 
L 250.204045 41.472 
" style="fill:none;stroke:#b0b0b0;stroke-dasharray:5.12,1.28,0.8,1.28;stroke-dashoffset:0;stroke-width:0.8;"/>
     </g>
     <g id="line2d_26">
      <g>
       <use style="stroke:#000000;stroke-width:0.8;" x="250.204045" xlink:href="#m491c798393" y="307.584"/>
      </g>
     </g>
     <g id="text_13">
      <!-- 48 -->
      <g transform="translate(243.841545 322.182437)scale(0.1 -0.1)">
       <use xlink:href="#DejaVuSans-52"/>
       <use x="63.623047" xlink:href="#DejaVuSans-56"/>
      </g>
     </g>
    </g>
    <g id="xtick_14">
     <g id="line2d_27">
      <path clip-path="url(#pdaf4ea0196)" d="M 266.254382 307.584 
L 266.254382 41.472 
" style="fill:none;stroke:#b0b0b0;stroke-dasharray:5.12,1.28,0.8,1.28;stroke-dashoffset:0;stroke-width:0.8;"/>
     </g>
     <g id="line2d_28">
      <g>
       <use style="stroke:#000000;stroke-width:0.8;" x="266.254382" xlink:href="#m491c798393" y="307.584"/>
      </g>
     </g>
     <g id="text_14">
      <!-- 52 -->
      <g transform="translate(259.891882 322.182437)scale(0.1 -0.1)">
       <defs>
        <path d="M 10.796875 72.90625 
L 49.515625 72.90625 
L 49.515625 64.59375 
L 19.828125 64.59375 
L 19.828125 46.734375 
Q 21.96875 47.46875 24.109375 47.828125 
Q 26.265625 48.1875 28.421875 48.1875 
Q 40.625 48.1875 47.75 41.5 
Q 54.890625 34.8125 54.890625 23.390625 
Q 54.890625 11.625 47.5625 5.09375 
Q 40.234375 -1.421875 26.90625 -1.421875 
Q 22.3125 -1.421875 17.546875 -0.640625 
Q 12.796875 0.140625 7.71875 1.703125 
L 7.71875 11.625 
Q 12.109375 9.234375 16.796875 8.0625 
Q 21.484375 6.890625 26.703125 6.890625 
Q 35.15625 6.890625 40.078125 11.328125 
Q 45.015625 15.765625 45.015625 23.390625 
Q 45.015625 31 40.078125 35.4375 
Q 35.15625 39.890625 26.703125 39.890625 
Q 22.75 39.890625 18.8125 39.015625 
Q 14.890625 38.140625 10.796875 36.28125 
z
" id="DejaVuSans-53"/>
       </defs>
       <use xlink:href="#DejaVuSans-53"/>
       <use x="63.623047" xlink:href="#DejaVuSans-50"/>
      </g>
     </g>
    </g>
    <g id="xtick_15">
     <g id="line2d_29">
      <path clip-path="url(#pdaf4ea0196)" d="M 282.304719 307.584 
L 282.304719 41.472 
" style="fill:none;stroke:#b0b0b0;stroke-dasharray:5.12,1.28,0.8,1.28;stroke-dashoffset:0;stroke-width:0.8;"/>
     </g>
     <g id="line2d_30">
      <g>
       <use style="stroke:#000000;stroke-width:0.8;" x="282.304719" xlink:href="#m491c798393" y="307.584"/>
      </g>
     </g>
     <g id="text_15">
      <!-- 56 -->
      <g transform="translate(275.942219 322.182437)scale(0.1 -0.1)">
       <use xlink:href="#DejaVuSans-53"/>
       <use x="63.623047" xlink:href="#DejaVuSans-54"/>
      </g>
     </g>
    </g>
    <g id="xtick_16">
     <g id="line2d_31">
      <path clip-path="url(#pdaf4ea0196)" d="M 298.355056 307.584 
L 298.355056 41.472 
" style="fill:none;stroke:#b0b0b0;stroke-dasharray:5.12,1.28,0.8,1.28;stroke-dashoffset:0;stroke-width:0.8;"/>
     </g>
     <g id="line2d_32">
      <g>
       <use style="stroke:#000000;stroke-width:0.8;" x="298.355056" xlink:href="#m491c798393" y="307.584"/>
      </g>
     </g>
     <g id="text_16">
      <!-- 60 -->
      <g transform="translate(291.992556 322.182437)scale(0.1 -0.1)">
       <use xlink:href="#DejaVuSans-54"/>
       <use x="63.623047" xlink:href="#DejaVuSans-48"/>
      </g>
     </g>
    </g>
    <g id="xtick_17">
     <g id="line2d_33">
      <path clip-path="url(#pdaf4ea0196)" d="M 314.405393 307.584 
L 314.405393 41.472 
" style="fill:none;stroke:#b0b0b0;stroke-dasharray:5.12,1.28,0.8,1.28;stroke-dashoffset:0;stroke-width:0.8;"/>
     </g>
     <g id="line2d_34">
      <g>
       <use style="stroke:#000000;stroke-width:0.8;" x="314.405393" xlink:href="#m491c798393" y="307.584"/>
      </g>
     </g>
     <g id="text_17">
      <!-- 64 -->
      <g transform="translate(308.042893 322.182437)scale(0.1 -0.1)">
       <use xlink:href="#DejaVuSans-54"/>
       <use x="63.623047" xlink:href="#DejaVuSans-52"/>
      </g>
     </g>
    </g>
    <g id="xtick_18">
     <g id="line2d_35">
      <path clip-path="url(#pdaf4ea0196)" d="M 330.45573 307.584 
L 330.45573 41.472 
" style="fill:none;stroke:#b0b0b0;stroke-dasharray:5.12,1.28,0.8,1.28;stroke-dashoffset:0;stroke-width:0.8;"/>
     </g>
     <g id="line2d_36">
      <g>
       <use style="stroke:#000000;stroke-width:0.8;" x="330.45573" xlink:href="#m491c798393" y="307.584"/>
      </g>
     </g>
     <g id="text_18">
      <!-- 68 -->
      <g transform="translate(324.09323 322.182437)scale(0.1 -0.1)">
       <use xlink:href="#DejaVuSans-54"/>
       <use x="63.623047" xlink:href="#DejaVuSans-56"/>
      </g>
     </g>
    </g>
    <g id="xtick_19">
     <g id="line2d_37">
      <path clip-path="url(#pdaf4ea0196)" d="M 346.506067 307.584 
L 346.506067 41.472 
" style="fill:none;stroke:#b0b0b0;stroke-dasharray:5.12,1.28,0.8,1.28;stroke-dashoffset:0;stroke-width:0.8;"/>
     </g>
     <g id="line2d_38">
      <g>
       <use style="stroke:#000000;stroke-width:0.8;" x="346.506067" xlink:href="#m491c798393" y="307.584"/>
      </g>
     </g>
     <g id="text_19">
      <!-- 72 -->
      <g transform="translate(340.143567 322.182437)scale(0.1 -0.1)">
       <defs>
        <path d="M 8.203125 72.90625 
L 55.078125 72.90625 
L 55.078125 68.703125 
L 28.609375 0 
L 18.3125 0 
L 43.21875 64.59375 
L 8.203125 64.59375 
z
" id="DejaVuSans-55"/>
       </defs>
       <use xlink:href="#DejaVuSans-55"/>
       <use x="63.623047" xlink:href="#DejaVuSans-50"/>
      </g>
     </g>
    </g>
    <g id="xtick_20">
     <g id="line2d_39">
      <path clip-path="url(#pdaf4ea0196)" d="M 362.556404 307.584 
L 362.556404 41.472 
" style="fill:none;stroke:#b0b0b0;stroke-dasharray:5.12,1.28,0.8,1.28;stroke-dashoffset:0;stroke-width:0.8;"/>
     </g>
     <g id="line2d_40">
      <g>
       <use style="stroke:#000000;stroke-width:0.8;" x="362.556404" xlink:href="#m491c798393" y="307.584"/>
      </g>
     </g>
     <g id="text_20">
      <!-- 76 -->
      <g transform="translate(356.193904 322.182437)scale(0.1 -0.1)">
       <use xlink:href="#DejaVuSans-55"/>
       <use x="63.623047" xlink:href="#DejaVuSans-54"/>
      </g>
     </g>
    </g>
    <g id="xtick_21">
     <g id="line2d_41">
      <path clip-path="url(#pdaf4ea0196)" d="M 378.606742 307.584 
L 378.606742 41.472 
" style="fill:none;stroke:#b0b0b0;stroke-dasharray:5.12,1.28,0.8,1.28;stroke-dashoffset:0;stroke-width:0.8;"/>
     </g>
     <g id="line2d_42">
      <g>
       <use style="stroke:#000000;stroke-width:0.8;" x="378.606742" xlink:href="#m491c798393" y="307.584"/>
      </g>
     </g>
     <g id="text_21">
      <!-- 80 -->
      <g transform="translate(372.244242 322.182437)scale(0.1 -0.1)">
       <use xlink:href="#DejaVuSans-56"/>
       <use x="63.623047" xlink:href="#DejaVuSans-48"/>
      </g>
     </g>
    </g>
    <g id="xtick_22">
     <g id="line2d_43">
      <path clip-path="url(#pdaf4ea0196)" d="M 394.657079 307.584 
L 394.657079 41.472 
" style="fill:none;stroke:#b0b0b0;stroke-dasharray:5.12,1.28,0.8,1.28;stroke-dashoffset:0;stroke-width:0.8;"/>
     </g>
     <g id="line2d_44">
      <g>
       <use style="stroke:#000000;stroke-width:0.8;" x="394.657079" xlink:href="#m491c798393" y="307.584"/>
      </g>
     </g>
     <g id="text_22">
      <!-- 84 -->
      <g transform="translate(388.294579 322.182437)scale(0.1 -0.1)">
       <use xlink:href="#DejaVuSans-56"/>
       <use x="63.623047" xlink:href="#DejaVuSans-52"/>
      </g>
     </g>
    </g>
    <g id="xtick_23">
     <g id="line2d_45">
      <path clip-path="url(#pdaf4ea0196)" d="M 410.707416 307.584 
L 410.707416 41.472 
" style="fill:none;stroke:#b0b0b0;stroke-dasharray:5.12,1.28,0.8,1.28;stroke-dashoffset:0;stroke-width:0.8;"/>
     </g>
     <g id="line2d_46">
      <g>
       <use style="stroke:#000000;stroke-width:0.8;" x="410.707416" xlink:href="#m491c798393" y="307.584"/>
      </g>
     </g>
     <g id="text_23">
      <!-- 88 -->
      <g transform="translate(404.344916 322.182437)scale(0.1 -0.1)">
       <use xlink:href="#DejaVuSans-56"/>
       <use x="63.623047" xlink:href="#DejaVuSans-56"/>
      </g>
     </g>
    </g>
    <g id="text_24">
     <!-- threads -->
     <g transform="translate(217.168594 335.860562)scale(0.1 -0.1)">
      <defs>
       <path d="M 18.3125 70.21875 
L 18.3125 54.6875 
L 36.8125 54.6875 
L 36.8125 47.703125 
L 18.3125 47.703125 
L 18.3125 18.015625 
Q 18.3125 11.328125 20.140625 9.421875 
Q 21.96875 7.515625 27.59375 7.515625 
L 36.8125 7.515625 
L 36.8125 0 
L 27.59375 0 
Q 17.1875 0 13.234375 3.875 
Q 9.28125 7.765625 9.28125 18.015625 
L 9.28125 47.703125 
L 2.6875 47.703125 
L 2.6875 54.6875 
L 9.28125 54.6875 
L 9.28125 70.21875 
z
" id="DejaVuSans-116"/>
       <path d="M 54.890625 33.015625 
L 54.890625 0 
L 45.90625 0 
L 45.90625 32.71875 
Q 45.90625 40.484375 42.875 44.328125 
Q 39.84375 48.1875 33.796875 48.1875 
Q 26.515625 48.1875 22.3125 43.546875 
Q 18.109375 38.921875 18.109375 30.90625 
L 18.109375 0 
L 9.078125 0 
L 9.078125 75.984375 
L 18.109375 75.984375 
L 18.109375 46.1875 
Q 21.34375 51.125 25.703125 53.5625 
Q 30.078125 56 35.796875 56 
Q 45.21875 56 50.046875 50.171875 
Q 54.890625 44.34375 54.890625 33.015625 
z
" id="DejaVuSans-104"/>
       <path d="M 41.109375 46.296875 
Q 39.59375 47.171875 37.8125 47.578125 
Q 36.03125 48 33.890625 48 
Q 26.265625 48 22.1875 43.046875 
Q 18.109375 38.09375 18.109375 28.8125 
L 18.109375 0 
L 9.078125 0 
L 9.078125 54.6875 
L 18.109375 54.6875 
L 18.109375 46.1875 
Q 20.953125 51.171875 25.484375 53.578125 
Q 30.03125 56 36.53125 56 
Q 37.453125 56 38.578125 55.875 
Q 39.703125 55.765625 41.0625 55.515625 
z
" id="DejaVuSans-114"/>
       <path d="M 56.203125 29.59375 
L 56.203125 25.203125 
L 14.890625 25.203125 
Q 15.484375 15.921875 20.484375 11.0625 
Q 25.484375 6.203125 34.421875 6.203125 
Q 39.59375 6.203125 44.453125 7.46875 
Q 49.3125 8.734375 54.109375 11.28125 
L 54.109375 2.78125 
Q 49.265625 0.734375 44.1875 -0.34375 
Q 39.109375 -1.421875 33.890625 -1.421875 
Q 20.796875 -1.421875 13.15625 6.1875 
Q 5.515625 13.8125 5.515625 26.8125 
Q 5.515625 40.234375 12.765625 48.109375 
Q 20.015625 56 32.328125 56 
Q 43.359375 56 49.78125 48.890625 
Q 56.203125 41.796875 56.203125 29.59375 
z
M 47.21875 32.234375 
Q 47.125 39.59375 43.09375 43.984375 
Q 39.0625 48.390625 32.421875 48.390625 
Q 24.90625 48.390625 20.390625 44.140625 
Q 15.875 39.890625 15.1875 32.171875 
z
" id="DejaVuSans-101"/>
       <path d="M 34.28125 27.484375 
Q 23.390625 27.484375 19.1875 25 
Q 14.984375 22.515625 14.984375 16.5 
Q 14.984375 11.71875 18.140625 8.90625 
Q 21.296875 6.109375 26.703125 6.109375 
Q 34.1875 6.109375 38.703125 11.40625 
Q 43.21875 16.703125 43.21875 25.484375 
L 43.21875 27.484375 
z
M 52.203125 31.203125 
L 52.203125 0 
L 43.21875 0 
L 43.21875 8.296875 
Q 40.140625 3.328125 35.546875 0.953125 
Q 30.953125 -1.421875 24.3125 -1.421875 
Q 15.921875 -1.421875 10.953125 3.296875 
Q 6 8.015625 6 15.921875 
Q 6 25.140625 12.171875 29.828125 
Q 18.359375 34.515625 30.609375 34.515625 
L 43.21875 34.515625 
L 43.21875 35.40625 
Q 43.21875 41.609375 39.140625 45 
Q 35.0625 48.390625 27.6875 48.390625 
Q 23 48.390625 18.546875 47.265625 
Q 14.109375 46.140625 10.015625 43.890625 
L 10.015625 52.203125 
Q 14.9375 54.109375 19.578125 55.046875 
Q 24.21875 56 28.609375 56 
Q 40.484375 56 46.34375 49.84375 
Q 52.203125 43.703125 52.203125 31.203125 
z
" id="DejaVuSans-97"/>
       <path d="M 45.40625 46.390625 
L 45.40625 75.984375 
L 54.390625 75.984375 
L 54.390625 0 
L 45.40625 0 
L 45.40625 8.203125 
Q 42.578125 3.328125 38.25 0.953125 
Q 33.9375 -1.421875 27.875 -1.421875 
Q 17.96875 -1.421875 11.734375 6.484375 
Q 5.515625 14.40625 5.515625 27.296875 
Q 5.515625 40.1875 11.734375 48.09375 
Q 17.96875 56 27.875 56 
Q 33.9375 56 38.25 53.625 
Q 42.578125 51.265625 45.40625 46.390625 
z
M 14.796875 27.296875 
Q 14.796875 17.390625 18.875 11.75 
Q 22.953125 6.109375 30.078125 6.109375 
Q 37.203125 6.109375 41.296875 11.75 
Q 45.40625 17.390625 45.40625 27.296875 
Q 45.40625 37.203125 41.296875 42.84375 
Q 37.203125 48.484375 30.078125 48.484375 
Q 22.953125 48.484375 18.875 42.84375 
Q 14.796875 37.203125 14.796875 27.296875 
z
" id="DejaVuSans-100"/>
       <path d="M 44.28125 53.078125 
L 44.28125 44.578125 
Q 40.484375 46.53125 36.375 47.5 
Q 32.28125 48.484375 27.875 48.484375 
Q 21.1875 48.484375 17.84375 46.4375 
Q 14.5 44.390625 14.5 40.28125 
Q 14.5 37.15625 16.890625 35.375 
Q 19.28125 33.59375 26.515625 31.984375 
L 29.59375 31.296875 
Q 39.15625 29.25 43.1875 25.515625 
Q 47.21875 21.78125 47.21875 15.09375 
Q 47.21875 7.46875 41.1875 3.015625 
Q 35.15625 -1.421875 24.609375 -1.421875 
Q 20.21875 -1.421875 15.453125 -0.5625 
Q 10.6875 0.296875 5.421875 2 
L 5.421875 11.28125 
Q 10.40625 8.6875 15.234375 7.390625 
Q 20.0625 6.109375 24.8125 6.109375 
Q 31.15625 6.109375 34.5625 8.28125 
Q 37.984375 10.453125 37.984375 14.40625 
Q 37.984375 18.0625 35.515625 20.015625 
Q 33.0625 21.96875 24.703125 23.78125 
L 21.578125 24.515625 
Q 13.234375 26.265625 9.515625 29.90625 
Q 5.8125 33.546875 5.8125 39.890625 
Q 5.8125 47.609375 11.28125 51.796875 
Q 16.75 56 26.8125 56 
Q 31.78125 56 36.171875 55.265625 
Q 40.578125 54.546875 44.28125 53.078125 
z
" id="DejaVuSans-115"/>
      </defs>
      <use xlink:href="#DejaVuSans-116"/>
      <use x="39.208984" xlink:href="#DejaVuSans-104"/>
      <use x="102.587891" xlink:href="#DejaVuSans-114"/>
      <use x="141.451172" xlink:href="#DejaVuSans-101"/>
      <use x="202.974609" xlink:href="#DejaVuSans-97"/>
      <use x="264.253906" xlink:href="#DejaVuSans-100"/>
      <use x="327.730469" xlink:href="#DejaVuSans-115"/>
     </g>
    </g>
   </g>
   <g id="matplotlib.axis_2">
    <g id="ytick_1">
     <g id="line2d_47">
      <path clip-path="url(#pdaf4ea0196)" d="M 57.6 279.78081 
L 414.72 279.78081 
" style="fill:none;stroke:#b0b0b0;stroke-dasharray:5.12,1.28,0.8,1.28;stroke-dashoffset:0;stroke-width:0.8;"/>
     </g>
     <g id="line2d_48">
      <defs>
       <path d="M 0 0 
L -3.5 0 
" id="m2bbb78902c" style="stroke:#000000;stroke-width:0.8;"/>
      </defs>
      <g>
       <use style="stroke:#000000;stroke-width:0.8;" x="57.6" xlink:href="#m2bbb78902c" y="279.78081"/>
      </g>
     </g>
     <g id="text_25">
      <!-- 5 -->
      <g transform="translate(44.2375 283.580029)scale(0.1 -0.1)">
       <use xlink:href="#DejaVuSans-53"/>
      </g>
     </g>
    </g>
    <g id="ytick_2">
     <g id="line2d_49">
      <path clip-path="url(#pdaf4ea0196)" d="M 57.6 246.604004 
L 414.72 246.604004 
" style="fill:none;stroke:#b0b0b0;stroke-dasharray:5.12,1.28,0.8,1.28;stroke-dashoffset:0;stroke-width:0.8;"/>
     </g>
     <g id="line2d_50">
      <g>
       <use style="stroke:#000000;stroke-width:0.8;" x="57.6" xlink:href="#m2bbb78902c" y="246.604004"/>
      </g>
     </g>
     <g id="text_26">
      <!-- 10 -->
      <g transform="translate(37.875 250.403223)scale(0.1 -0.1)">
       <use xlink:href="#DejaVuSans-49"/>
       <use x="63.623047" xlink:href="#DejaVuSans-48"/>
      </g>
     </g>
    </g>
    <g id="ytick_3">
     <g id="line2d_51">
      <path clip-path="url(#pdaf4ea0196)" d="M 57.6 213.427197 
L 414.72 213.427197 
" style="fill:none;stroke:#b0b0b0;stroke-dasharray:5.12,1.28,0.8,1.28;stroke-dashoffset:0;stroke-width:0.8;"/>
     </g>
     <g id="line2d_52">
      <g>
       <use style="stroke:#000000;stroke-width:0.8;" x="57.6" xlink:href="#m2bbb78902c" y="213.427197"/>
      </g>
     </g>
     <g id="text_27">
      <!-- 15 -->
      <g transform="translate(37.875 217.226416)scale(0.1 -0.1)">
       <use xlink:href="#DejaVuSans-49"/>
       <use x="63.623047" xlink:href="#DejaVuSans-53"/>
      </g>
     </g>
    </g>
    <g id="ytick_4">
     <g id="line2d_53">
      <path clip-path="url(#pdaf4ea0196)" d="M 57.6 180.250391 
L 414.72 180.250391 
" style="fill:none;stroke:#b0b0b0;stroke-dasharray:5.12,1.28,0.8,1.28;stroke-dashoffset:0;stroke-width:0.8;"/>
     </g>
     <g id="line2d_54">
      <g>
       <use style="stroke:#000000;stroke-width:0.8;" x="57.6" xlink:href="#m2bbb78902c" y="180.250391"/>
      </g>
     </g>
     <g id="text_28">
      <!-- 20 -->
      <g transform="translate(37.875 184.04961)scale(0.1 -0.1)">
       <use xlink:href="#DejaVuSans-50"/>
       <use x="63.623047" xlink:href="#DejaVuSans-48"/>
      </g>
     </g>
    </g>
    <g id="ytick_5">
     <g id="line2d_55">
      <path clip-path="url(#pdaf4ea0196)" d="M 57.6 147.073584 
L 414.72 147.073584 
" style="fill:none;stroke:#b0b0b0;stroke-dasharray:5.12,1.28,0.8,1.28;stroke-dashoffset:0;stroke-width:0.8;"/>
     </g>
     <g id="line2d_56">
      <g>
       <use style="stroke:#000000;stroke-width:0.8;" x="57.6" xlink:href="#m2bbb78902c" y="147.073584"/>
      </g>
     </g>
     <g id="text_29">
      <!-- 25 -->
      <g transform="translate(37.875 150.872803)scale(0.1 -0.1)">
       <use xlink:href="#DejaVuSans-50"/>
       <use x="63.623047" xlink:href="#DejaVuSans-53"/>
      </g>
     </g>
    </g>
    <g id="ytick_6">
     <g id="line2d_57">
      <path clip-path="url(#pdaf4ea0196)" d="M 57.6 113.896778 
L 414.72 113.896778 
" style="fill:none;stroke:#b0b0b0;stroke-dasharray:5.12,1.28,0.8,1.28;stroke-dashoffset:0;stroke-width:0.8;"/>
     </g>
     <g id="line2d_58">
      <g>
       <use style="stroke:#000000;stroke-width:0.8;" x="57.6" xlink:href="#m2bbb78902c" y="113.896778"/>
      </g>
     </g>
     <g id="text_30">
      <!-- 30 -->
      <g transform="translate(37.875 117.695997)scale(0.1 -0.1)">
       <use xlink:href="#DejaVuSans-51"/>
       <use x="63.623047" xlink:href="#DejaVuSans-48"/>
      </g>
     </g>
    </g>
    <g id="ytick_7">
     <g id="line2d_59">
      <path clip-path="url(#pdaf4ea0196)" d="M 57.6 80.719972 
L 414.72 80.719972 
" style="fill:none;stroke:#b0b0b0;stroke-dasharray:5.12,1.28,0.8,1.28;stroke-dashoffset:0;stroke-width:0.8;"/>
     </g>
     <g id="line2d_60">
      <g>
       <use style="stroke:#000000;stroke-width:0.8;" x="57.6" xlink:href="#m2bbb78902c" y="80.719972"/>
      </g>
     </g>
     <g id="text_31">
      <!-- 35 -->
      <g transform="translate(37.875 84.51919)scale(0.1 -0.1)">
       <use xlink:href="#DejaVuSans-51"/>
       <use x="63.623047" xlink:href="#DejaVuSans-53"/>
      </g>
     </g>
    </g>
    <g id="ytick_8">
     <g id="line2d_61">
      <path clip-path="url(#pdaf4ea0196)" d="M 57.6 47.543165 
L 414.72 47.543165 
" style="fill:none;stroke:#b0b0b0;stroke-dasharray:5.12,1.28,0.8,1.28;stroke-dashoffset:0;stroke-width:0.8;"/>
     </g>
     <g id="line2d_62">
      <g>
       <use style="stroke:#000000;stroke-width:0.8;" x="57.6" xlink:href="#m2bbb78902c" y="47.543165"/>
      </g>
     </g>
     <g id="text_32">
      <!-- 40 -->
      <g transform="translate(37.875 51.342384)scale(0.1 -0.1)">
       <use xlink:href="#DejaVuSans-52"/>
       <use x="63.623047" xlink:href="#DejaVuSans-48"/>
      </g>
     </g>
    </g>
    <g id="text_33">
     <!-- speed up -->
     <g transform="translate(31.795312 197.566281)rotate(-90)scale(0.1 -0.1)">
      <defs>
       <path d="M 18.109375 8.203125 
L 18.109375 -20.796875 
L 9.078125 -20.796875 
L 9.078125 54.6875 
L 18.109375 54.6875 
L 18.109375 46.390625 
Q 20.953125 51.265625 25.265625 53.625 
Q 29.59375 56 35.59375 56 
Q 45.5625 56 51.78125 48.09375 
Q 58.015625 40.1875 58.015625 27.296875 
Q 58.015625 14.40625 51.78125 6.484375 
Q 45.5625 -1.421875 35.59375 -1.421875 
Q 29.59375 -1.421875 25.265625 0.953125 
Q 20.953125 3.328125 18.109375 8.203125 
z
M 48.6875 27.296875 
Q 48.6875 37.203125 44.609375 42.84375 
Q 40.53125 48.484375 33.40625 48.484375 
Q 26.265625 48.484375 22.1875 42.84375 
Q 18.109375 37.203125 18.109375 27.296875 
Q 18.109375 17.390625 22.1875 11.75 
Q 26.265625 6.109375 33.40625 6.109375 
Q 40.53125 6.109375 44.609375 11.75 
Q 48.6875 17.390625 48.6875 27.296875 
z
" id="DejaVuSans-112"/>
       <path id="DejaVuSans-32"/>
       <path d="M 8.5 21.578125 
L 8.5 54.6875 
L 17.484375 54.6875 
L 17.484375 21.921875 
Q 17.484375 14.15625 20.5 10.265625 
Q 23.53125 6.390625 29.59375 6.390625 
Q 36.859375 6.390625 41.078125 11.03125 
Q 45.3125 15.671875 45.3125 23.6875 
L 45.3125 54.6875 
L 54.296875 54.6875 
L 54.296875 0 
L 45.3125 0 
L 45.3125 8.40625 
Q 42.046875 3.421875 37.71875 1 
Q 33.40625 -1.421875 27.6875 -1.421875 
Q 18.265625 -1.421875 13.375 4.4375 
Q 8.5 10.296875 8.5 21.578125 
z
M 31.109375 56 
z
" id="DejaVuSans-117"/>
      </defs>
      <use xlink:href="#DejaVuSans-115"/>
      <use x="52.099609" xlink:href="#DejaVuSans-112"/>
      <use x="115.576172" xlink:href="#DejaVuSans-101"/>
      <use x="177.099609" xlink:href="#DejaVuSans-101"/>
      <use x="238.623047" xlink:href="#DejaVuSans-100"/>
      <use x="302.099609" xlink:href="#DejaVuSans-32"/>
      <use x="333.886719" xlink:href="#DejaVuSans-117"/>
      <use x="397.265625" xlink:href="#DejaVuSans-112"/>
     </g>
    </g>
   </g>
   <g id="line2d_63">
    <path clip-path="url(#pdaf4ea0196)" d="M 61.612584 294.807585 
L 65.625169 277.601713 
L 69.637753 261.051158 
L 73.650337 246.850412 
L 77.662921 235.619981 
L 81.675506 218.843665 
L 85.68809 207.41446 
L 89.700674 193.899615 
L 93.713258 181.779529 
L 97.725843 171.548616 
L 101.738427 165.010306 
L 105.751011 152.66125 
L 109.763596 147.28572 
L 113.77618 144.258647 
L 117.788764 143.559162 
L 121.801348 142.678459 
L 125.813933 143.180005 
L 129.826517 146.452419 
L 133.839101 146.352651 
L 137.851685 137.29833 
L 141.86427 130.963391 
L 145.876854 136.361583 
L 149.889438 142.23776 
L 153.902022 135.977338 
L 157.914607 128.023503 
L 161.927191 120.733871 
L 165.939775 115.079667 
L 169.95236 105.202775 
L 173.964944 99.992773 
L 177.977528 94.237641 
L 181.990112 94.313393 
L 186.002697 89.054684 
L 190.015281 90.257768 
L 194.027865 92.705052 
L 198.040449 90.737735 
L 202.053034 84.108361 
L 206.065618 88.661087 
L 210.078202 89.860329 
L 214.090787 94.732004 
L 218.103371 93.431264 
L 222.115955 93.660903 
L 226.128539 90.605212 
L 230.141124 87.950863 
L 234.153708 87.392479 
L 238.166292 97.858452 
L 242.178876 93.033764 
L 246.191461 99.810726 
L 250.204045 92.498254 
L 254.216629 96.248109 
L 258.229213 102.384727 
L 262.241798 98.583564 
L 266.254382 105.796979 
L 270.266966 96.412658 
L 274.279551 98.702785 
L 278.292135 105.514479 
L 282.304719 106.755669 
L 286.317303 106.398085 
L 290.329888 113.371227 
L 294.342472 114.939733 
L 298.355056 114.429955 
L 302.36764 135.516525 
L 306.380225 112.37823 
L 310.392809 113.610288 
L 314.405393 114.94919 
L 318.417978 114.9959 
L 322.430562 114.546379 
L 326.443146 104.977064 
L 330.45573 103.402064 
L 334.468315 102.197154 
L 338.480899 92.362217 
L 342.493483 97.883601 
L 346.506067 99.642456 
L 350.518652 96.391048 
L 354.531236 98.920543 
L 358.54382 99.605755 
L 362.556404 100.080906 
L 366.568989 97.976317 
L 370.581573 100.122336 
L 374.594157 103.548986 
L 378.606742 103.287859 
L 382.619326 110.55111 
L 386.63191 132.610103 
L 390.644494 119.225218 
L 394.657079 119.970628 
L 398.669663 115.137586 
L 402.682247 115.740685 
L 406.694831 121.840201 
L 410.707416 133.66025 
" style="fill:none;stroke:#0000ff;stroke-dasharray:1.5,2.475;stroke-dashoffset:0;stroke-width:1.5;"/>
    <defs>
     <path d="M 0 1.5 
C 0.397805 1.5 0.77937 1.341951 1.06066 1.06066 
C 1.341951 0.77937 1.5 0.397805 1.5 0 
C 1.5 -0.397805 1.341951 -0.77937 1.06066 -1.06066 
C 0.77937 -1.341951 0.397805 -1.5 0 -1.5 
C -0.397805 -1.5 -0.77937 -1.341951 -1.06066 -1.06066 
C -1.341951 -0.77937 -1.5 -0.397805 -1.5 0 
C -1.5 0.397805 -1.341951 0.77937 -1.06066 1.06066 
C -0.77937 1.341951 -0.397805 1.5 0 1.5 
z
" id="m7dea626ddf" style="stroke:#0000ff;"/>
    </defs>
    <g clip-path="url(#pdaf4ea0196)">
     <use style="fill:#0000ff;stroke:#0000ff;" x="61.612584" xlink:href="#m7dea626ddf" y="294.807585"/>
     <use style="fill:#0000ff;stroke:#0000ff;" x="65.625169" xlink:href="#m7dea626ddf" y="277.601713"/>
     <use style="fill:#0000ff;stroke:#0000ff;" x="69.637753" xlink:href="#m7dea626ddf" y="261.051158"/>
     <use style="fill:#0000ff;stroke:#0000ff;" x="73.650337" xlink:href="#m7dea626ddf" y="246.850412"/>
     <use style="fill:#0000ff;stroke:#0000ff;" x="77.662921" xlink:href="#m7dea626ddf" y="235.619981"/>
     <use style="fill:#0000ff;stroke:#0000ff;" x="81.675506" xlink:href="#m7dea626ddf" y="218.843665"/>
     <use style="fill:#0000ff;stroke:#0000ff;" x="85.68809" xlink:href="#m7dea626ddf" y="207.41446"/>
     <use style="fill:#0000ff;stroke:#0000ff;" x="89.700674" xlink:href="#m7dea626ddf" y="193.899615"/>
     <use style="fill:#0000ff;stroke:#0000ff;" x="93.713258" xlink:href="#m7dea626ddf" y="181.779529"/>
     <use style="fill:#0000ff;stroke:#0000ff;" x="97.725843" xlink:href="#m7dea626ddf" y="171.548616"/>
     <use style="fill:#0000ff;stroke:#0000ff;" x="101.738427" xlink:href="#m7dea626ddf" y="165.010306"/>
     <use style="fill:#0000ff;stroke:#0000ff;" x="105.751011" xlink:href="#m7dea626ddf" y="152.66125"/>
     <use style="fill:#0000ff;stroke:#0000ff;" x="109.763596" xlink:href="#m7dea626ddf" y="147.28572"/>
     <use style="fill:#0000ff;stroke:#0000ff;" x="113.77618" xlink:href="#m7dea626ddf" y="144.258647"/>
     <use style="fill:#0000ff;stroke:#0000ff;" x="117.788764" xlink:href="#m7dea626ddf" y="143.559162"/>
     <use style="fill:#0000ff;stroke:#0000ff;" x="121.801348" xlink:href="#m7dea626ddf" y="142.678459"/>
     <use style="fill:#0000ff;stroke:#0000ff;" x="125.813933" xlink:href="#m7dea626ddf" y="143.180005"/>
     <use style="fill:#0000ff;stroke:#0000ff;" x="129.826517" xlink:href="#m7dea626ddf" y="146.452419"/>
     <use style="fill:#0000ff;stroke:#0000ff;" x="133.839101" xlink:href="#m7dea626ddf" y="146.352651"/>
     <use style="fill:#0000ff;stroke:#0000ff;" x="137.851685" xlink:href="#m7dea626ddf" y="137.29833"/>
     <use style="fill:#0000ff;stroke:#0000ff;" x="141.86427" xlink:href="#m7dea626ddf" y="130.963391"/>
     <use style="fill:#0000ff;stroke:#0000ff;" x="145.876854" xlink:href="#m7dea626ddf" y="136.361583"/>
     <use style="fill:#0000ff;stroke:#0000ff;" x="149.889438" xlink:href="#m7dea626ddf" y="142.23776"/>
     <use style="fill:#0000ff;stroke:#0000ff;" x="153.902022" xlink:href="#m7dea626ddf" y="135.977338"/>
     <use style="fill:#0000ff;stroke:#0000ff;" x="157.914607" xlink:href="#m7dea626ddf" y="128.023503"/>
     <use style="fill:#0000ff;stroke:#0000ff;" x="161.927191" xlink:href="#m7dea626ddf" y="120.733871"/>
     <use style="fill:#0000ff;stroke:#0000ff;" x="165.939775" xlink:href="#m7dea626ddf" y="115.079667"/>
     <use style="fill:#0000ff;stroke:#0000ff;" x="169.95236" xlink:href="#m7dea626ddf" y="105.202775"/>
     <use style="fill:#0000ff;stroke:#0000ff;" x="173.964944" xlink:href="#m7dea626ddf" y="99.992773"/>
     <use style="fill:#0000ff;stroke:#0000ff;" x="177.977528" xlink:href="#m7dea626ddf" y="94.237641"/>
     <use style="fill:#0000ff;stroke:#0000ff;" x="181.990112" xlink:href="#m7dea626ddf" y="94.313393"/>
     <use style="fill:#0000ff;stroke:#0000ff;" x="186.002697" xlink:href="#m7dea626ddf" y="89.054684"/>
     <use style="fill:#0000ff;stroke:#0000ff;" x="190.015281" xlink:href="#m7dea626ddf" y="90.257768"/>
     <use style="fill:#0000ff;stroke:#0000ff;" x="194.027865" xlink:href="#m7dea626ddf" y="92.705052"/>
     <use style="fill:#0000ff;stroke:#0000ff;" x="198.040449" xlink:href="#m7dea626ddf" y="90.737735"/>
     <use style="fill:#0000ff;stroke:#0000ff;" x="202.053034" xlink:href="#m7dea626ddf" y="84.108361"/>
     <use style="fill:#0000ff;stroke:#0000ff;" x="206.065618" xlink:href="#m7dea626ddf" y="88.661087"/>
     <use style="fill:#0000ff;stroke:#0000ff;" x="210.078202" xlink:href="#m7dea626ddf" y="89.860329"/>
     <use style="fill:#0000ff;stroke:#0000ff;" x="214.090787" xlink:href="#m7dea626ddf" y="94.732004"/>
     <use style="fill:#0000ff;stroke:#0000ff;" x="218.103371" xlink:href="#m7dea626ddf" y="93.431264"/>
     <use style="fill:#0000ff;stroke:#0000ff;" x="222.115955" xlink:href="#m7dea626ddf" y="93.660903"/>
     <use style="fill:#0000ff;stroke:#0000ff;" x="226.128539" xlink:href="#m7dea626ddf" y="90.605212"/>
     <use style="fill:#0000ff;stroke:#0000ff;" x="230.141124" xlink:href="#m7dea626ddf" y="87.950863"/>
     <use style="fill:#0000ff;stroke:#0000ff;" x="234.153708" xlink:href="#m7dea626ddf" y="87.392479"/>
     <use style="fill:#0000ff;stroke:#0000ff;" x="238.166292" xlink:href="#m7dea626ddf" y="97.858452"/>
     <use style="fill:#0000ff;stroke:#0000ff;" x="242.178876" xlink:href="#m7dea626ddf" y="93.033764"/>
     <use style="fill:#0000ff;stroke:#0000ff;" x="246.191461" xlink:href="#m7dea626ddf" y="99.810726"/>
     <use style="fill:#0000ff;stroke:#0000ff;" x="250.204045" xlink:href="#m7dea626ddf" y="92.498254"/>
     <use style="fill:#0000ff;stroke:#0000ff;" x="254.216629" xlink:href="#m7dea626ddf" y="96.248109"/>
     <use style="fill:#0000ff;stroke:#0000ff;" x="258.229213" xlink:href="#m7dea626ddf" y="102.384727"/>
     <use style="fill:#0000ff;stroke:#0000ff;" x="262.241798" xlink:href="#m7dea626ddf" y="98.583564"/>
     <use style="fill:#0000ff;stroke:#0000ff;" x="266.254382" xlink:href="#m7dea626ddf" y="105.796979"/>
     <use style="fill:#0000ff;stroke:#0000ff;" x="270.266966" xlink:href="#m7dea626ddf" y="96.412658"/>
     <use style="fill:#0000ff;stroke:#0000ff;" x="274.279551" xlink:href="#m7dea626ddf" y="98.702785"/>
     <use style="fill:#0000ff;stroke:#0000ff;" x="278.292135" xlink:href="#m7dea626ddf" y="105.514479"/>
     <use style="fill:#0000ff;stroke:#0000ff;" x="282.304719" xlink:href="#m7dea626ddf" y="106.755669"/>
     <use style="fill:#0000ff;stroke:#0000ff;" x="286.317303" xlink:href="#m7dea626ddf" y="106.398085"/>
     <use style="fill:#0000ff;stroke:#0000ff;" x="290.329888" xlink:href="#m7dea626ddf" y="113.371227"/>
     <use style="fill:#0000ff;stroke:#0000ff;" x="294.342472" xlink:href="#m7dea626ddf" y="114.939733"/>
     <use style="fill:#0000ff;stroke:#0000ff;" x="298.355056" xlink:href="#m7dea626ddf" y="114.429955"/>
     <use style="fill:#0000ff;stroke:#0000ff;" x="302.36764" xlink:href="#m7dea626ddf" y="135.516525"/>
     <use style="fill:#0000ff;stroke:#0000ff;" x="306.380225" xlink:href="#m7dea626ddf" y="112.37823"/>
     <use style="fill:#0000ff;stroke:#0000ff;" x="310.392809" xlink:href="#m7dea626ddf" y="113.610288"/>
     <use style="fill:#0000ff;stroke:#0000ff;" x="314.405393" xlink:href="#m7dea626ddf" y="114.94919"/>
     <use style="fill:#0000ff;stroke:#0000ff;" x="318.417978" xlink:href="#m7dea626ddf" y="114.9959"/>
     <use style="fill:#0000ff;stroke:#0000ff;" x="322.430562" xlink:href="#m7dea626ddf" y="114.546379"/>
     <use style="fill:#0000ff;stroke:#0000ff;" x="326.443146" xlink:href="#m7dea626ddf" y="104.977064"/>
     <use style="fill:#0000ff;stroke:#0000ff;" x="330.45573" xlink:href="#m7dea626ddf" y="103.402064"/>
     <use style="fill:#0000ff;stroke:#0000ff;" x="334.468315" xlink:href="#m7dea626ddf" y="102.197154"/>
     <use style="fill:#0000ff;stroke:#0000ff;" x="338.480899" xlink:href="#m7dea626ddf" y="92.362217"/>
     <use style="fill:#0000ff;stroke:#0000ff;" x="342.493483" xlink:href="#m7dea626ddf" y="97.883601"/>
     <use style="fill:#0000ff;stroke:#0000ff;" x="346.506067" xlink:href="#m7dea626ddf" y="99.642456"/>
     <use style="fill:#0000ff;stroke:#0000ff;" x="350.518652" xlink:href="#m7dea626ddf" y="96.391048"/>
     <use style="fill:#0000ff;stroke:#0000ff;" x="354.531236" xlink:href="#m7dea626ddf" y="98.920543"/>
     <use style="fill:#0000ff;stroke:#0000ff;" x="358.54382" xlink:href="#m7dea626ddf" y="99.605755"/>
     <use style="fill:#0000ff;stroke:#0000ff;" x="362.556404" xlink:href="#m7dea626ddf" y="100.080906"/>
     <use style="fill:#0000ff;stroke:#0000ff;" x="366.568989" xlink:href="#m7dea626ddf" y="97.976317"/>
     <use style="fill:#0000ff;stroke:#0000ff;" x="370.581573" xlink:href="#m7dea626ddf" y="100.122336"/>
     <use style="fill:#0000ff;stroke:#0000ff;" x="374.594157" xlink:href="#m7dea626ddf" y="103.548986"/>
     <use style="fill:#0000ff;stroke:#0000ff;" x="378.606742" xlink:href="#m7dea626ddf" y="103.287859"/>
     <use style="fill:#0000ff;stroke:#0000ff;" x="382.619326" xlink:href="#m7dea626ddf" y="110.55111"/>
     <use style="fill:#0000ff;stroke:#0000ff;" x="386.63191" xlink:href="#m7dea626ddf" y="132.610103"/>
     <use style="fill:#0000ff;stroke:#0000ff;" x="390.644494" xlink:href="#m7dea626ddf" y="119.225218"/>
     <use style="fill:#0000ff;stroke:#0000ff;" x="394.657079" xlink:href="#m7dea626ddf" y="119.970628"/>
     <use style="fill:#0000ff;stroke:#0000ff;" x="398.669663" xlink:href="#m7dea626ddf" y="115.137586"/>
     <use style="fill:#0000ff;stroke:#0000ff;" x="402.682247" xlink:href="#m7dea626ddf" y="115.740685"/>
     <use style="fill:#0000ff;stroke:#0000ff;" x="406.694831" xlink:href="#m7dea626ddf" y="121.840201"/>
     <use style="fill:#0000ff;stroke:#0000ff;" x="410.707416" xlink:href="#m7dea626ddf" y="133.66025"/>
    </g>
   </g>
   <g id="line2d_64">
    <path clip-path="url(#pdaf4ea0196)" d="M 61.612584 295.488 
L 65.625169 279.727201 
L 69.637753 264.293538 
L 73.650337 249.890744 
L 77.662921 237.036345 
L 81.675506 223.081481 
L 85.68809 212.301526 
L 89.700674 199.277564 
L 93.713258 187.157446 
L 97.725843 177.26076 
L 101.738427 167.714064 
L 105.751011 157.662362 
L 109.763596 151.099044 
L 113.77618 149.525263 
L 117.788764 148.736393 
L 121.801348 147.758527 
L 125.813933 148.420885 
L 129.826517 146.280865 
L 133.839101 146.675258 
L 137.851685 137.667587 
L 141.86427 131.174563 
L 145.876854 135.676365 
L 149.889438 134.257438 
L 153.902022 129.75382 
L 157.914607 121.939032 
L 161.927191 118.008545 
L 165.939775 110.936463 
L 169.95236 105.381101 
L 173.964944 100.553899 
L 177.977528 99.223273 
L 181.990112 97.438156 
L 186.002697 94.529354 
L 190.015281 87.490426 
L 194.027865 84.16065 
L 198.040449 83.196437 
L 202.053034 83.692287 
L 206.065618 74.734099 
L 210.078202 73.554051 
L 214.090787 64.778592 
L 218.103371 68.395567 
L 222.115955 53.568 
L 226.128539 54.743767 
L 230.141124 56.959794 
L 234.153708 68.294629 
L 238.166292 82.149842 
L 242.178876 80.580098 
L 246.191461 81.274908 
L 250.204045 82.842639 
L 254.216629 83.086286 
L 258.229213 87.086553 
L 262.241798 85.627397 
L 266.254382 87.850792 
L 270.266966 85.449837 
L 274.279551 89.179223 
L 278.292135 94.133447 
L 282.304719 93.515311 
L 286.317303 87.663312 
L 290.329888 98.123414 
L 294.342472 89.510693 
L 298.355056 96.923796 
L 302.36764 121.28521 
L 306.380225 91.389668 
L 310.392809 85.521781 
L 314.405393 88.560283 
L 318.417978 88.053961 
L 322.430562 83.66111 
L 326.443146 75.480791 
L 330.45573 75.550635 
L 334.468315 76.987559 
L 338.480899 75.253701 
L 342.493483 83.22235 
L 346.506067 72.889395 
L 350.518652 80.484696 
L 354.531236 86.547883 
L 358.54382 80.706704 
L 362.556404 82.065386 
L 366.568989 89.385931 
L 370.581573 89.026832 
L 374.594157 88.941548 
L 378.606742 105.926372 
L 382.619326 135.395507 
L 386.63191 96.385189 
L 390.644494 89.618226 
L 394.657079 88.252439 
L 398.669663 87.861811 
L 402.682247 88.053961 
L 406.694831 94.113882 
L 410.707416 127.607743 
" style="fill:none;stroke:#ff0000;stroke-dasharray:1.5,2.475;stroke-dashoffset:0;stroke-width:1.5;"/>
    <defs>
     <path d="M 0 1.5 
C 0.397805 1.5 0.77937 1.341951 1.06066 1.06066 
C 1.341951 0.77937 1.5 0.397805 1.5 0 
C 1.5 -0.397805 1.341951 -0.77937 1.06066 -1.06066 
C 0.77937 -1.341951 0.397805 -1.5 0 -1.5 
C -0.397805 -1.5 -0.77937 -1.341951 -1.06066 -1.06066 
C -1.341951 -0.77937 -1.5 -0.397805 -1.5 0 
C -1.5 0.397805 -1.341951 0.77937 -1.06066 1.06066 
C -0.77937 1.341951 -0.397805 1.5 0 1.5 
z
" id="m1f8e51f308" style="stroke:#ff0000;"/>
    </defs>
    <g clip-path="url(#pdaf4ea0196)">
     <use style="fill:#ff0000;stroke:#ff0000;" x="61.612584" xlink:href="#m1f8e51f308" y="295.488"/>
     <use style="fill:#ff0000;stroke:#ff0000;" x="65.625169" xlink:href="#m1f8e51f308" y="279.727201"/>
     <use style="fill:#ff0000;stroke:#ff0000;" x="69.637753" xlink:href="#m1f8e51f308" y="264.293538"/>
     <use style="fill:#ff0000;stroke:#ff0000;" x="73.650337" xlink:href="#m1f8e51f308" y="249.890744"/>
     <use style="fill:#ff0000;stroke:#ff0000;" x="77.662921" xlink:href="#m1f8e51f308" y="237.036345"/>
     <use style="fill:#ff0000;stroke:#ff0000;" x="81.675506" xlink:href="#m1f8e51f308" y="223.081481"/>
     <use style="fill:#ff0000;stroke:#ff0000;" x="85.68809" xlink:href="#m1f8e51f308" y="212.301526"/>
     <use style="fill:#ff0000;stroke:#ff0000;" x="89.700674" xlink:href="#m1f8e51f308" y="199.277564"/>
     <use style="fill:#ff0000;stroke:#ff0000;" x="93.713258" xlink:href="#m1f8e51f308" y="187.157446"/>
     <use style="fill:#ff0000;stroke:#ff0000;" x="97.725843" xlink:href="#m1f8e51f308" y="177.26076"/>
     <use style="fill:#ff0000;stroke:#ff0000;" x="101.738427" xlink:href="#m1f8e51f308" y="167.714064"/>
     <use style="fill:#ff0000;stroke:#ff0000;" x="105.751011" xlink:href="#m1f8e51f308" y="157.662362"/>
     <use style="fill:#ff0000;stroke:#ff0000;" x="109.763596" xlink:href="#m1f8e51f308" y="151.099044"/>
     <use style="fill:#ff0000;stroke:#ff0000;" x="113.77618" xlink:href="#m1f8e51f308" y="149.525263"/>
     <use style="fill:#ff0000;stroke:#ff0000;" x="117.788764" xlink:href="#m1f8e51f308" y="148.736393"/>
     <use style="fill:#ff0000;stroke:#ff0000;" x="121.801348" xlink:href="#m1f8e51f308" y="147.758527"/>
     <use style="fill:#ff0000;stroke:#ff0000;" x="125.813933" xlink:href="#m1f8e51f308" y="148.420885"/>
     <use style="fill:#ff0000;stroke:#ff0000;" x="129.826517" xlink:href="#m1f8e51f308" y="146.280865"/>
     <use style="fill:#ff0000;stroke:#ff0000;" x="133.839101" xlink:href="#m1f8e51f308" y="146.675258"/>
     <use style="fill:#ff0000;stroke:#ff0000;" x="137.851685" xlink:href="#m1f8e51f308" y="137.667587"/>
     <use style="fill:#ff0000;stroke:#ff0000;" x="141.86427" xlink:href="#m1f8e51f308" y="131.174563"/>
     <use style="fill:#ff0000;stroke:#ff0000;" x="145.876854" xlink:href="#m1f8e51f308" y="135.676365"/>
     <use style="fill:#ff0000;stroke:#ff0000;" x="149.889438" xlink:href="#m1f8e51f308" y="134.257438"/>
     <use style="fill:#ff0000;stroke:#ff0000;" x="153.902022" xlink:href="#m1f8e51f308" y="129.75382"/>
     <use style="fill:#ff0000;stroke:#ff0000;" x="157.914607" xlink:href="#m1f8e51f308" y="121.939032"/>
     <use style="fill:#ff0000;stroke:#ff0000;" x="161.927191" xlink:href="#m1f8e51f308" y="118.008545"/>
     <use style="fill:#ff0000;stroke:#ff0000;" x="165.939775" xlink:href="#m1f8e51f308" y="110.936463"/>
     <use style="fill:#ff0000;stroke:#ff0000;" x="169.95236" xlink:href="#m1f8e51f308" y="105.381101"/>
     <use style="fill:#ff0000;stroke:#ff0000;" x="173.964944" xlink:href="#m1f8e51f308" y="100.553899"/>
     <use style="fill:#ff0000;stroke:#ff0000;" x="177.977528" xlink:href="#m1f8e51f308" y="99.223273"/>
     <use style="fill:#ff0000;stroke:#ff0000;" x="181.990112" xlink:href="#m1f8e51f308" y="97.438156"/>
     <use style="fill:#ff0000;stroke:#ff0000;" x="186.002697" xlink:href="#m1f8e51f308" y="94.529354"/>
     <use style="fill:#ff0000;stroke:#ff0000;" x="190.015281" xlink:href="#m1f8e51f308" y="87.490426"/>
     <use style="fill:#ff0000;stroke:#ff0000;" x="194.027865" xlink:href="#m1f8e51f308" y="84.16065"/>
     <use style="fill:#ff0000;stroke:#ff0000;" x="198.040449" xlink:href="#m1f8e51f308" y="83.196437"/>
     <use style="fill:#ff0000;stroke:#ff0000;" x="202.053034" xlink:href="#m1f8e51f308" y="83.692287"/>
     <use style="fill:#ff0000;stroke:#ff0000;" x="206.065618" xlink:href="#m1f8e51f308" y="74.734099"/>
     <use style="fill:#ff0000;stroke:#ff0000;" x="210.078202" xlink:href="#m1f8e51f308" y="73.554051"/>
     <use style="fill:#ff0000;stroke:#ff0000;" x="214.090787" xlink:href="#m1f8e51f308" y="64.778592"/>
     <use style="fill:#ff0000;stroke:#ff0000;" x="218.103371" xlink:href="#m1f8e51f308" y="68.395567"/>
     <use style="fill:#ff0000;stroke:#ff0000;" x="222.115955" xlink:href="#m1f8e51f308" y="53.568"/>
     <use style="fill:#ff0000;stroke:#ff0000;" x="226.128539" xlink:href="#m1f8e51f308" y="54.743767"/>
     <use style="fill:#ff0000;stroke:#ff0000;" x="230.141124" xlink:href="#m1f8e51f308" y="56.959794"/>
     <use style="fill:#ff0000;stroke:#ff0000;" x="234.153708" xlink:href="#m1f8e51f308" y="68.294629"/>
     <use style="fill:#ff0000;stroke:#ff0000;" x="238.166292" xlink:href="#m1f8e51f308" y="82.149842"/>
     <use style="fill:#ff0000;stroke:#ff0000;" x="242.178876" xlink:href="#m1f8e51f308" y="80.580098"/>
     <use style="fill:#ff0000;stroke:#ff0000;" x="246.191461" xlink:href="#m1f8e51f308" y="81.274908"/>
     <use style="fill:#ff0000;stroke:#ff0000;" x="250.204045" xlink:href="#m1f8e51f308" y="82.842639"/>
     <use style="fill:#ff0000;stroke:#ff0000;" x="254.216629" xlink:href="#m1f8e51f308" y="83.086286"/>
     <use style="fill:#ff0000;stroke:#ff0000;" x="258.229213" xlink:href="#m1f8e51f308" y="87.086553"/>
     <use style="fill:#ff0000;stroke:#ff0000;" x="262.241798" xlink:href="#m1f8e51f308" y="85.627397"/>
     <use style="fill:#ff0000;stroke:#ff0000;" x="266.254382" xlink:href="#m1f8e51f308" y="87.850792"/>
     <use style="fill:#ff0000;stroke:#ff0000;" x="270.266966" xlink:href="#m1f8e51f308" y="85.449837"/>
     <use style="fill:#ff0000;stroke:#ff0000;" x="274.279551" xlink:href="#m1f8e51f308" y="89.179223"/>
     <use style="fill:#ff0000;stroke:#ff0000;" x="278.292135" xlink:href="#m1f8e51f308" y="94.133447"/>
     <use style="fill:#ff0000;stroke:#ff0000;" x="282.304719" xlink:href="#m1f8e51f308" y="93.515311"/>
     <use style="fill:#ff0000;stroke:#ff0000;" x="286.317303" xlink:href="#m1f8e51f308" y="87.663312"/>
     <use style="fill:#ff0000;stroke:#ff0000;" x="290.329888" xlink:href="#m1f8e51f308" y="98.123414"/>
     <use style="fill:#ff0000;stroke:#ff0000;" x="294.342472" xlink:href="#m1f8e51f308" y="89.510693"/>
     <use style="fill:#ff0000;stroke:#ff0000;" x="298.355056" xlink:href="#m1f8e51f308" y="96.923796"/>
     <use style="fill:#ff0000;stroke:#ff0000;" x="302.36764" xlink:href="#m1f8e51f308" y="121.28521"/>
     <use style="fill:#ff0000;stroke:#ff0000;" x="306.380225" xlink:href="#m1f8e51f308" y="91.389668"/>
     <use style="fill:#ff0000;stroke:#ff0000;" x="310.392809" xlink:href="#m1f8e51f308" y="85.521781"/>
     <use style="fill:#ff0000;stroke:#ff0000;" x="314.405393" xlink:href="#m1f8e51f308" y="88.560283"/>
     <use style="fill:#ff0000;stroke:#ff0000;" x="318.417978" xlink:href="#m1f8e51f308" y="88.053961"/>
     <use style="fill:#ff0000;stroke:#ff0000;" x="322.430562" xlink:href="#m1f8e51f308" y="83.66111"/>
     <use style="fill:#ff0000;stroke:#ff0000;" x="326.443146" xlink:href="#m1f8e51f308" y="75.480791"/>
     <use style="fill:#ff0000;stroke:#ff0000;" x="330.45573" xlink:href="#m1f8e51f308" y="75.550635"/>
     <use style="fill:#ff0000;stroke:#ff0000;" x="334.468315" xlink:href="#m1f8e51f308" y="76.987559"/>
     <use style="fill:#ff0000;stroke:#ff0000;" x="338.480899" xlink:href="#m1f8e51f308" y="75.253701"/>
     <use style="fill:#ff0000;stroke:#ff0000;" x="342.493483" xlink:href="#m1f8e51f308" y="83.22235"/>
     <use style="fill:#ff0000;stroke:#ff0000;" x="346.506067" xlink:href="#m1f8e51f308" y="72.889395"/>
     <use style="fill:#ff0000;stroke:#ff0000;" x="350.518652" xlink:href="#m1f8e51f308" y="80.484696"/>
     <use style="fill:#ff0000;stroke:#ff0000;" x="354.531236" xlink:href="#m1f8e51f308" y="86.547883"/>
     <use style="fill:#ff0000;stroke:#ff0000;" x="358.54382" xlink:href="#m1f8e51f308" y="80.706704"/>
     <use style="fill:#ff0000;stroke:#ff0000;" x="362.556404" xlink:href="#m1f8e51f308" y="82.065386"/>
     <use style="fill:#ff0000;stroke:#ff0000;" x="366.568989" xlink:href="#m1f8e51f308" y="89.385931"/>
     <use style="fill:#ff0000;stroke:#ff0000;" x="370.581573" xlink:href="#m1f8e51f308" y="89.026832"/>
     <use style="fill:#ff0000;stroke:#ff0000;" x="374.594157" xlink:href="#m1f8e51f308" y="88.941548"/>
     <use style="fill:#ff0000;stroke:#ff0000;" x="378.606742" xlink:href="#m1f8e51f308" y="105.926372"/>
     <use style="fill:#ff0000;stroke:#ff0000;" x="382.619326" xlink:href="#m1f8e51f308" y="135.395507"/>
     <use style="fill:#ff0000;stroke:#ff0000;" x="386.63191" xlink:href="#m1f8e51f308" y="96.385189"/>
     <use style="fill:#ff0000;stroke:#ff0000;" x="390.644494" xlink:href="#m1f8e51f308" y="89.618226"/>
     <use style="fill:#ff0000;stroke:#ff0000;" x="394.657079" xlink:href="#m1f8e51f308" y="88.252439"/>
     <use style="fill:#ff0000;stroke:#ff0000;" x="398.669663" xlink:href="#m1f8e51f308" y="87.861811"/>
     <use style="fill:#ff0000;stroke:#ff0000;" x="402.682247" xlink:href="#m1f8e51f308" y="88.053961"/>
     <use style="fill:#ff0000;stroke:#ff0000;" x="406.694831" xlink:href="#m1f8e51f308" y="94.113882"/>
     <use style="fill:#ff0000;stroke:#ff0000;" x="410.707416" xlink:href="#m1f8e51f308" y="127.607743"/>
    </g>
   </g>
   <g id="line2d_65">
    <path clip-path="url(#pdaf4ea0196)" d="M 61.612584 295.147793 
L 65.625169 278.664457 
L 69.637753 262.672348 
L 73.650337 248.370578 
L 77.662921 236.328163 
L 81.675506 220.962573 
L 85.68809 209.857993 
L 89.700674 196.588589 
L 93.713258 184.468487 
L 97.725843 174.404688 
L 101.738427 166.362185 
L 105.751011 155.161806 
L 109.763596 149.192382 
L 113.77618 146.891955 
L 117.788764 146.147778 
L 121.801348 145.218493 
L 125.813933 145.800445 
L 129.826517 146.366642 
L 133.839101 146.513954 
L 137.851685 137.482958 
L 141.86427 131.068977 
L 145.876854 136.018974 
L 149.889438 138.247599 
L 153.902022 132.865579 
L 157.914607 124.981268 
L 161.927191 119.371208 
L 165.939775 113.008065 
L 169.95236 105.291938 
L 173.964944 100.273336 
L 177.977528 96.730457 
L 181.990112 95.875774 
L 186.002697 91.792019 
L 190.015281 88.874097 
L 194.027865 88.432851 
L 198.040449 86.967086 
L 202.053034 83.900324 
L 206.065618 81.697593 
L 210.078202 81.70719 
L 214.090787 79.755298 
L 218.103371 80.913415 
L 222.115955 73.614452 
L 226.128539 72.674489 
L 230.141124 72.455328 
L 234.153708 77.843554 
L 238.166292 90.004147 
L 242.178876 86.806931 
L 246.191461 90.542817 
L 250.204045 87.670446 
L 254.216629 89.667197 
L 258.229213 94.73564 
L 262.241798 92.105481 
L 266.254382 96.823886 
L 270.266966 90.931248 
L 274.279551 93.941004 
L 278.292135 99.823963 
L 282.304719 100.13549 
L 286.317303 97.030699 
L 290.329888 105.747321 
L 294.342472 102.225213 
L 298.355056 105.676876 
L 302.36764 128.400868 
L 306.380225 101.883949 
L 310.392809 99.566035 
L 314.405393 101.754737 
L 318.417978 101.524931 
L 322.430562 99.103745 
L 326.443146 90.228928 
L 330.45573 89.476349 
L 334.468315 89.592357 
L 338.480899 83.807959 
L 342.493483 90.552976 
L 346.506067 86.265925 
L 350.518652 88.437872 
L 354.531236 92.734213 
L 358.54382 90.15623 
L 362.556404 91.073146 
L 366.568989 93.681124 
L 370.581573 94.574584 
L 374.594157 96.245267 
L 378.606742 104.607116 
L 382.619326 122.973308 
L 386.63191 114.497646 
L 390.644494 104.421722 
L 394.657079 104.111533 
L 398.669663 101.499699 
L 402.682247 101.897323 
L 406.694831 107.977042 
L 410.707416 130.633996 
" style="fill:none;stroke:#008000;stroke-dasharray:1.5,2.475;stroke-dashoffset:0;stroke-width:1.5;"/>
    <defs>
     <path d="M 0 1.5 
C 0.397805 1.5 0.77937 1.341951 1.06066 1.06066 
C 1.341951 0.77937 1.5 0.397805 1.5 0 
C 1.5 -0.397805 1.341951 -0.77937 1.06066 -1.06066 
C 0.77937 -1.341951 0.397805 -1.5 0 -1.5 
C -0.397805 -1.5 -0.77937 -1.341951 -1.06066 -1.06066 
C -1.341951 -0.77937 -1.5 -0.397805 -1.5 0 
C -1.5 0.397805 -1.341951 0.77937 -1.06066 1.06066 
C -0.77937 1.341951 -0.397805 1.5 0 1.5 
z
" id="mdbce36ebe6" style="stroke:#008000;"/>
    </defs>
    <g clip-path="url(#pdaf4ea0196)">
     <use style="fill:#008000;stroke:#008000;" x="61.612584" xlink:href="#mdbce36ebe6" y="295.147793"/>
     <use style="fill:#008000;stroke:#008000;" x="65.625169" xlink:href="#mdbce36ebe6" y="278.664457"/>
     <use style="fill:#008000;stroke:#008000;" x="69.637753" xlink:href="#mdbce36ebe6" y="262.672348"/>
     <use style="fill:#008000;stroke:#008000;" x="73.650337" xlink:href="#mdbce36ebe6" y="248.370578"/>
     <use style="fill:#008000;stroke:#008000;" x="77.662921" xlink:href="#mdbce36ebe6" y="236.328163"/>
     <use style="fill:#008000;stroke:#008000;" x="81.675506" xlink:href="#mdbce36ebe6" y="220.962573"/>
     <use style="fill:#008000;stroke:#008000;" x="85.68809" xlink:href="#mdbce36ebe6" y="209.857993"/>
     <use style="fill:#008000;stroke:#008000;" x="89.700674" xlink:href="#mdbce36ebe6" y="196.588589"/>
     <use style="fill:#008000;stroke:#008000;" x="93.713258" xlink:href="#mdbce36ebe6" y="184.468487"/>
     <use style="fill:#008000;stroke:#008000;" x="97.725843" xlink:href="#mdbce36ebe6" y="174.404688"/>
     <use style="fill:#008000;stroke:#008000;" x="101.738427" xlink:href="#mdbce36ebe6" y="166.362185"/>
     <use style="fill:#008000;stroke:#008000;" x="105.751011" xlink:href="#mdbce36ebe6" y="155.161806"/>
     <use style="fill:#008000;stroke:#008000;" x="109.763596" xlink:href="#mdbce36ebe6" y="149.192382"/>
     <use style="fill:#008000;stroke:#008000;" x="113.77618" xlink:href="#mdbce36ebe6" y="146.891955"/>
     <use style="fill:#008000;stroke:#008000;" x="117.788764" xlink:href="#mdbce36ebe6" y="146.147778"/>
     <use style="fill:#008000;stroke:#008000;" x="121.801348" xlink:href="#mdbce36ebe6" y="145.218493"/>
     <use style="fill:#008000;stroke:#008000;" x="125.813933" xlink:href="#mdbce36ebe6" y="145.800445"/>
     <use style="fill:#008000;stroke:#008000;" x="129.826517" xlink:href="#mdbce36ebe6" y="146.366642"/>
     <use style="fill:#008000;stroke:#008000;" x="133.839101" xlink:href="#mdbce36ebe6" y="146.513954"/>
     <use style="fill:#008000;stroke:#008000;" x="137.851685" xlink:href="#mdbce36ebe6" y="137.482958"/>
     <use style="fill:#008000;stroke:#008000;" x="141.86427" xlink:href="#mdbce36ebe6" y="131.068977"/>
     <use style="fill:#008000;stroke:#008000;" x="145.876854" xlink:href="#mdbce36ebe6" y="136.018974"/>
     <use style="fill:#008000;stroke:#008000;" x="149.889438" xlink:href="#mdbce36ebe6" y="138.247599"/>
     <use style="fill:#008000;stroke:#008000;" x="153.902022" xlink:href="#mdbce36ebe6" y="132.865579"/>
     <use style="fill:#008000;stroke:#008000;" x="157.914607" xlink:href="#mdbce36ebe6" y="124.981268"/>
     <use style="fill:#008000;stroke:#008000;" x="161.927191" xlink:href="#mdbce36ebe6" y="119.371208"/>
     <use style="fill:#008000;stroke:#008000;" x="165.939775" xlink:href="#mdbce36ebe6" y="113.008065"/>
     <use style="fill:#008000;stroke:#008000;" x="169.95236" xlink:href="#mdbce36ebe6" y="105.291938"/>
     <use style="fill:#008000;stroke:#008000;" x="173.964944" xlink:href="#mdbce36ebe6" y="100.273336"/>
     <use style="fill:#008000;stroke:#008000;" x="177.977528" xlink:href="#mdbce36ebe6" y="96.730457"/>
     <use style="fill:#008000;stroke:#008000;" x="181.990112" xlink:href="#mdbce36ebe6" y="95.875774"/>
     <use style="fill:#008000;stroke:#008000;" x="186.002697" xlink:href="#mdbce36ebe6" y="91.792019"/>
     <use style="fill:#008000;stroke:#008000;" x="190.015281" xlink:href="#mdbce36ebe6" y="88.874097"/>
     <use style="fill:#008000;stroke:#008000;" x="194.027865" xlink:href="#mdbce36ebe6" y="88.432851"/>
     <use style="fill:#008000;stroke:#008000;" x="198.040449" xlink:href="#mdbce36ebe6" y="86.967086"/>
     <use style="fill:#008000;stroke:#008000;" x="202.053034" xlink:href="#mdbce36ebe6" y="83.900324"/>
     <use style="fill:#008000;stroke:#008000;" x="206.065618" xlink:href="#mdbce36ebe6" y="81.697593"/>
     <use style="fill:#008000;stroke:#008000;" x="210.078202" xlink:href="#mdbce36ebe6" y="81.70719"/>
     <use style="fill:#008000;stroke:#008000;" x="214.090787" xlink:href="#mdbce36ebe6" y="79.755298"/>
     <use style="fill:#008000;stroke:#008000;" x="218.103371" xlink:href="#mdbce36ebe6" y="80.913415"/>
     <use style="fill:#008000;stroke:#008000;" x="222.115955" xlink:href="#mdbce36ebe6" y="73.614452"/>
     <use style="fill:#008000;stroke:#008000;" x="226.128539" xlink:href="#mdbce36ebe6" y="72.674489"/>
     <use style="fill:#008000;stroke:#008000;" x="230.141124" xlink:href="#mdbce36ebe6" y="72.455328"/>
     <use style="fill:#008000;stroke:#008000;" x="234.153708" xlink:href="#mdbce36ebe6" y="77.843554"/>
     <use style="fill:#008000;stroke:#008000;" x="238.166292" xlink:href="#mdbce36ebe6" y="90.004147"/>
     <use style="fill:#008000;stroke:#008000;" x="242.178876" xlink:href="#mdbce36ebe6" y="86.806931"/>
     <use style="fill:#008000;stroke:#008000;" x="246.191461" xlink:href="#mdbce36ebe6" y="90.542817"/>
     <use style="fill:#008000;stroke:#008000;" x="250.204045" xlink:href="#mdbce36ebe6" y="87.670446"/>
     <use style="fill:#008000;stroke:#008000;" x="254.216629" xlink:href="#mdbce36ebe6" y="89.667197"/>
     <use style="fill:#008000;stroke:#008000;" x="258.229213" xlink:href="#mdbce36ebe6" y="94.73564"/>
     <use style="fill:#008000;stroke:#008000;" x="262.241798" xlink:href="#mdbce36ebe6" y="92.105481"/>
     <use style="fill:#008000;stroke:#008000;" x="266.254382" xlink:href="#mdbce36ebe6" y="96.823886"/>
     <use style="fill:#008000;stroke:#008000;" x="270.266966" xlink:href="#mdbce36ebe6" y="90.931248"/>
     <use style="fill:#008000;stroke:#008000;" x="274.279551" xlink:href="#mdbce36ebe6" y="93.941004"/>
     <use style="fill:#008000;stroke:#008000;" x="278.292135" xlink:href="#mdbce36ebe6" y="99.823963"/>
     <use style="fill:#008000;stroke:#008000;" x="282.304719" xlink:href="#mdbce36ebe6" y="100.13549"/>
     <use style="fill:#008000;stroke:#008000;" x="286.317303" xlink:href="#mdbce36ebe6" y="97.030699"/>
     <use style="fill:#008000;stroke:#008000;" x="290.329888" xlink:href="#mdbce36ebe6" y="105.747321"/>
     <use style="fill:#008000;stroke:#008000;" x="294.342472" xlink:href="#mdbce36ebe6" y="102.225213"/>
     <use style="fill:#008000;stroke:#008000;" x="298.355056" xlink:href="#mdbce36ebe6" y="105.676876"/>
     <use style="fill:#008000;stroke:#008000;" x="302.36764" xlink:href="#mdbce36ebe6" y="128.400868"/>
     <use style="fill:#008000;stroke:#008000;" x="306.380225" xlink:href="#mdbce36ebe6" y="101.883949"/>
     <use style="fill:#008000;stroke:#008000;" x="310.392809" xlink:href="#mdbce36ebe6" y="99.566035"/>
     <use style="fill:#008000;stroke:#008000;" x="314.405393" xlink:href="#mdbce36ebe6" y="101.754737"/>
     <use style="fill:#008000;stroke:#008000;" x="318.417978" xlink:href="#mdbce36ebe6" y="101.524931"/>
     <use style="fill:#008000;stroke:#008000;" x="322.430562" xlink:href="#mdbce36ebe6" y="99.103745"/>
     <use style="fill:#008000;stroke:#008000;" x="326.443146" xlink:href="#mdbce36ebe6" y="90.228928"/>
     <use style="fill:#008000;stroke:#008000;" x="330.45573" xlink:href="#mdbce36ebe6" y="89.476349"/>
     <use style="fill:#008000;stroke:#008000;" x="334.468315" xlink:href="#mdbce36ebe6" y="89.592357"/>
     <use style="fill:#008000;stroke:#008000;" x="338.480899" xlink:href="#mdbce36ebe6" y="83.807959"/>
     <use style="fill:#008000;stroke:#008000;" x="342.493483" xlink:href="#mdbce36ebe6" y="90.552976"/>
     <use style="fill:#008000;stroke:#008000;" x="346.506067" xlink:href="#mdbce36ebe6" y="86.265925"/>
     <use style="fill:#008000;stroke:#008000;" x="350.518652" xlink:href="#mdbce36ebe6" y="88.437872"/>
     <use style="fill:#008000;stroke:#008000;" x="354.531236" xlink:href="#mdbce36ebe6" y="92.734213"/>
     <use style="fill:#008000;stroke:#008000;" x="358.54382" xlink:href="#mdbce36ebe6" y="90.15623"/>
     <use style="fill:#008000;stroke:#008000;" x="362.556404" xlink:href="#mdbce36ebe6" y="91.073146"/>
     <use style="fill:#008000;stroke:#008000;" x="366.568989" xlink:href="#mdbce36ebe6" y="93.681124"/>
     <use style="fill:#008000;stroke:#008000;" x="370.581573" xlink:href="#mdbce36ebe6" y="94.574584"/>
     <use style="fill:#008000;stroke:#008000;" x="374.594157" xlink:href="#mdbce36ebe6" y="96.245267"/>
     <use style="fill:#008000;stroke:#008000;" x="378.606742" xlink:href="#mdbce36ebe6" y="104.607116"/>
     <use style="fill:#008000;stroke:#008000;" x="382.619326" xlink:href="#mdbce36ebe6" y="122.973308"/>
     <use style="fill:#008000;stroke:#008000;" x="386.63191" xlink:href="#mdbce36ebe6" y="114.497646"/>
     <use style="fill:#008000;stroke:#008000;" x="390.644494" xlink:href="#mdbce36ebe6" y="104.421722"/>
     <use style="fill:#008000;stroke:#008000;" x="394.657079" xlink:href="#mdbce36ebe6" y="104.111533"/>
     <use style="fill:#008000;stroke:#008000;" x="398.669663" xlink:href="#mdbce36ebe6" y="101.499699"/>
     <use style="fill:#008000;stroke:#008000;" x="402.682247" xlink:href="#mdbce36ebe6" y="101.897323"/>
     <use style="fill:#008000;stroke:#008000;" x="406.694831" xlink:href="#mdbce36ebe6" y="107.977042"/>
     <use style="fill:#008000;stroke:#008000;" x="410.707416" xlink:href="#mdbce36ebe6" y="130.633996"/>
    </g>
   </g>
   <g id="patch_3">
    <path d="M 57.6 307.584 
L 57.6 41.472 
" style="fill:none;stroke:#000000;stroke-linecap:square;stroke-linejoin:miter;stroke-width:0.8;"/>
   </g>
   <g id="patch_4">
    <path d="M 414.72 307.584 
L 414.72 41.472 
" style="fill:none;stroke:#000000;stroke-linecap:square;stroke-linejoin:miter;stroke-width:0.8;"/>
   </g>
   <g id="patch_5">
    <path d="M 57.6 307.584 
L 414.72 307.584 
" style="fill:none;stroke:#000000;stroke-linecap:square;stroke-linejoin:miter;stroke-width:0.8;"/>
   </g>
   <g id="patch_6">
    <path d="M 57.6 41.472 
L 414.72 41.472 
" style="fill:none;stroke:#000000;stroke-linecap:square;stroke-linejoin:miter;stroke-width:0.8;"/>
   </g>
   <g id="text_34">
    <!-- radix sort 3 on pre_transpose37 -->
    <g transform="translate(140.265938 35.472)scale(0.12 -0.12)">
     <defs>
      <path d="M 9.421875 54.6875 
L 18.40625 54.6875 
L 18.40625 0 
L 9.421875 0 
z
M 9.421875 75.984375 
L 18.40625 75.984375 
L 18.40625 64.59375 
L 9.421875 64.59375 
z
" id="DejaVuSans-105"/>
      <path d="M 54.890625 54.6875 
L 35.109375 28.078125 
L 55.90625 0 
L 45.3125 0 
L 29.390625 21.484375 
L 13.484375 0 
L 2.875 0 
L 24.125 28.609375 
L 4.6875 54.6875 
L 15.28125 54.6875 
L 29.78125 35.203125 
L 44.28125 54.6875 
z
" id="DejaVuSans-120"/>
      <path d="M 30.609375 48.390625 
Q 23.390625 48.390625 19.1875 42.75 
Q 14.984375 37.109375 14.984375 27.296875 
Q 14.984375 17.484375 19.15625 11.84375 
Q 23.34375 6.203125 30.609375 6.203125 
Q 37.796875 6.203125 41.984375 11.859375 
Q 46.1875 17.53125 46.1875 27.296875 
Q 46.1875 37.015625 41.984375 42.703125 
Q 37.796875 48.390625 30.609375 48.390625 
z
M 30.609375 56 
Q 42.328125 56 49.015625 48.375 
Q 55.71875 40.765625 55.71875 27.296875 
Q 55.71875 13.875 49.015625 6.21875 
Q 42.328125 -1.421875 30.609375 -1.421875 
Q 18.84375 -1.421875 12.171875 6.21875 
Q 5.515625 13.875 5.515625 27.296875 
Q 5.515625 40.765625 12.171875 48.375 
Q 18.84375 56 30.609375 56 
z
" id="DejaVuSans-111"/>
      <path d="M 54.890625 33.015625 
L 54.890625 0 
L 45.90625 0 
L 45.90625 32.71875 
Q 45.90625 40.484375 42.875 44.328125 
Q 39.84375 48.1875 33.796875 48.1875 
Q 26.515625 48.1875 22.3125 43.546875 
Q 18.109375 38.921875 18.109375 30.90625 
L 18.109375 0 
L 9.078125 0 
L 9.078125 54.6875 
L 18.109375 54.6875 
L 18.109375 46.1875 
Q 21.34375 51.125 25.703125 53.5625 
Q 30.078125 56 35.796875 56 
Q 45.21875 56 50.046875 50.171875 
Q 54.890625 44.34375 54.890625 33.015625 
z
" id="DejaVuSans-110"/>
      <path d="M 50.984375 -16.609375 
L 50.984375 -23.578125 
L -0.984375 -23.578125 
L -0.984375 -16.609375 
z
" id="DejaVuSans-95"/>
     </defs>
     <use xlink:href="#DejaVuSans-114"/>
     <use x="41.113281" xlink:href="#DejaVuSans-97"/>
     <use x="102.392578" xlink:href="#DejaVuSans-100"/>
     <use x="165.869141" xlink:href="#DejaVuSans-105"/>
     <use x="193.652344" xlink:href="#DejaVuSans-120"/>
     <use x="252.832031" xlink:href="#DejaVuSans-32"/>
     <use x="284.619141" xlink:href="#DejaVuSans-115"/>
     <use x="336.71875" xlink:href="#DejaVuSans-111"/>
     <use x="397.900391" xlink:href="#DejaVuSans-114"/>
     <use x="439.013672" xlink:href="#DejaVuSans-116"/>
     <use x="478.222656" xlink:href="#DejaVuSans-32"/>
     <use x="510.009766" xlink:href="#DejaVuSans-51"/>
     <use x="573.632812" xlink:href="#DejaVuSans-32"/>
     <use x="605.419922" xlink:href="#DejaVuSans-111"/>
     <use x="666.601562" xlink:href="#DejaVuSans-110"/>
     <use x="729.980469" xlink:href="#DejaVuSans-32"/>
     <use x="761.767578" xlink:href="#DejaVuSans-112"/>
     <use x="825.244141" xlink:href="#DejaVuSans-114"/>
     <use x="864.107422" xlink:href="#DejaVuSans-101"/>
     <use x="925.630859" xlink:href="#DejaVuSans-95"/>
     <use x="975.630859" xlink:href="#DejaVuSans-116"/>
     <use x="1014.839844" xlink:href="#DejaVuSans-114"/>
     <use x="1055.953125" xlink:href="#DejaVuSans-97"/>
     <use x="1117.232422" xlink:href="#DejaVuSans-110"/>
     <use x="1180.611328" xlink:href="#DejaVuSans-115"/>
     <use x="1232.710938" xlink:href="#DejaVuSans-112"/>
     <use x="1296.1875" xlink:href="#DejaVuSans-111"/>
     <use x="1357.369141" xlink:href="#DejaVuSans-115"/>
     <use x="1409.46875" xlink:href="#DejaVuSans-101"/>
     <use x="1470.992188" xlink:href="#DejaVuSans-51"/>
     <use x="1534.615234" xlink:href="#DejaVuSans-55"/>
    </g>
   </g>
   <g id="legend_1">
    <g id="patch_7">
     <path d="M 64.6 93.7845 
L 159.167188 93.7845 
Q 161.167188 93.7845 161.167188 91.7845 
L 161.167188 48.472 
Q 161.167188 46.472 159.167188 46.472 
L 64.6 46.472 
Q 62.6 46.472 62.6 48.472 
L 62.6 91.7845 
Q 62.6 93.7845 64.6 93.7845 
z
" style="fill:#ffffff;opacity:0.8;stroke:#cccccc;stroke-linejoin:miter;"/>
    </g>
    <g id="line2d_66">
     <path d="M 66.6 54.570438 
L 86.6 54.570438 
" style="fill:none;stroke:#0000ff;stroke-dasharray:1.5,2.475;stroke-dashoffset:0;stroke-width:1.5;"/>
    </g>
    <g id="line2d_67">
     <g>
      <use style="fill:#0000ff;stroke:#0000ff;" x="76.6" xlink:href="#m7dea626ddf" y="54.570438"/>
     </g>
    </g>
    <g id="text_35">
     <!-- transpose -->
     <g transform="translate(94.6 58.070438)scale(0.1 -0.1)">
      <use xlink:href="#DejaVuSans-116"/>
      <use x="39.208984" xlink:href="#DejaVuSans-114"/>
      <use x="80.322266" xlink:href="#DejaVuSans-97"/>
      <use x="141.601562" xlink:href="#DejaVuSans-110"/>
      <use x="204.980469" xlink:href="#DejaVuSans-115"/>
      <use x="257.080078" xlink:href="#DejaVuSans-112"/>
      <use x="320.556641" xlink:href="#DejaVuSans-111"/>
      <use x="381.738281" xlink:href="#DejaVuSans-115"/>
      <use x="433.837891" xlink:href="#DejaVuSans-101"/>
     </g>
    </g>
    <g id="line2d_68">
     <path d="M 66.6 69.248563 
L 86.6 69.248563 
" style="fill:none;stroke:#ff0000;stroke-dasharray:1.5,2.475;stroke-dashoffset:0;stroke-width:1.5;"/>
    </g>
    <g id="line2d_69">
     <g>
      <use style="fill:#ff0000;stroke:#ff0000;" x="76.6" xlink:href="#m1f8e51f308" y="69.248563"/>
     </g>
    </g>
    <g id="text_36">
     <!-- transpose_tr -->
     <g transform="translate(94.6 72.748563)scale(0.1 -0.1)">
      <use xlink:href="#DejaVuSans-116"/>
      <use x="39.208984" xlink:href="#DejaVuSans-114"/>
      <use x="80.322266" xlink:href="#DejaVuSans-97"/>
      <use x="141.601562" xlink:href="#DejaVuSans-110"/>
      <use x="204.980469" xlink:href="#DejaVuSans-115"/>
      <use x="257.080078" xlink:href="#DejaVuSans-112"/>
      <use x="320.556641" xlink:href="#DejaVuSans-111"/>
      <use x="381.738281" xlink:href="#DejaVuSans-115"/>
      <use x="433.837891" xlink:href="#DejaVuSans-101"/>
      <use x="495.361328" xlink:href="#DejaVuSans-95"/>
      <use x="545.361328" xlink:href="#DejaVuSans-116"/>
      <use x="584.570312" xlink:href="#DejaVuSans-114"/>
     </g>
    </g>
    <g id="line2d_70">
     <path d="M 66.6 84.204813 
L 86.6 84.204813 
" style="fill:none;stroke:#008000;stroke-dasharray:1.5,2.475;stroke-dashoffset:0;stroke-width:1.5;"/>
    </g>
    <g id="line2d_71">
     <g>
      <use style="fill:#008000;stroke:#008000;" x="76.6" xlink:href="#mdbce36ebe6" y="84.204813"/>
     </g>
    </g>
    <g id="text_37">
     <!-- mean -->
     <g transform="translate(94.6 87.704813)scale(0.1 -0.1)">
      <defs>
       <path d="M 52 44.1875 
Q 55.375 50.25 60.0625 53.125 
Q 64.75 56 71.09375 56 
Q 79.640625 56 84.28125 50.015625 
Q 88.921875 44.046875 88.921875 33.015625 
L 88.921875 0 
L 79.890625 0 
L 79.890625 32.71875 
Q 79.890625 40.578125 77.09375 44.375 
Q 74.3125 48.1875 68.609375 48.1875 
Q 61.625 48.1875 57.5625 43.546875 
Q 53.515625 38.921875 53.515625 30.90625 
L 53.515625 0 
L 44.484375 0 
L 44.484375 32.71875 
Q 44.484375 40.625 41.703125 44.40625 
Q 38.921875 48.1875 33.109375 48.1875 
Q 26.21875 48.1875 22.15625 43.53125 
Q 18.109375 38.875 18.109375 30.90625 
L 18.109375 0 
L 9.078125 0 
L 9.078125 54.6875 
L 18.109375 54.6875 
L 18.109375 46.1875 
Q 21.1875 51.21875 25.484375 53.609375 
Q 29.78125 56 35.6875 56 
Q 41.65625 56 45.828125 52.96875 
Q 50 49.953125 52 44.1875 
z
" id="DejaVuSans-109"/>
      </defs>
      <use xlink:href="#DejaVuSans-109"/>
      <use x="97.412109" xlink:href="#DejaVuSans-101"/>
      <use x="158.935547" xlink:href="#DejaVuSans-97"/>
      <use x="220.214844" xlink:href="#DejaVuSans-110"/>
     </g>
    </g>
   </g>
  </g>
 </g>
 <defs>
  <clipPath id="pdaf4ea0196">
   <rect height="266.112" width="357.12" x="57.6" y="41.472"/>
  </clipPath>
 </defs>
</svg>
