<?xml version="1.0" encoding="utf-8" standalone="no"?>
<!DOCTYPE svg PUBLIC "-//W3C//DTD SVG 1.1//EN"
  "http://www.w3.org/Graphics/SVG/1.1/DTD/svg11.dtd">
<!-- Created with matplotlib (https://matplotlib.org/) -->
<svg height="345.6pt" version="1.1" viewBox="0 0 460.8 345.6" width="460.8pt" xmlns="http://www.w3.org/2000/svg" xmlns:xlink="http://www.w3.org/1999/xlink">
 <metadata>
  <rdf:RDF xmlns:cc="http://creativecommons.org/ns#" xmlns:dc="http://purl.org/dc/elements/1.1/" xmlns:rdf="http://www.w3.org/1999/02/22-rdf-syntax-ns#">
   <cc:Work>
    <dc:type rdf:resource="http://purl.org/dc/dcmitype/StillImage"/>
    <dc:date>2020-08-27T10:02:42.349102</dc:date>
    <dc:format>image/svg+xml</dc:format>
    <dc:creator>
     <cc:Agent>
      <dc:title>Matplotlib v3.3.1, https://matplotlib.org/</dc:title>
     </cc:Agent>
    </dc:creator>
   </cc:Work>
  </rdf:RDF>
 </metadata>
 <defs>
  <style type="text/css">*{stroke-linecap:butt;stroke-linejoin:round;}</style>
 </defs>
 <g id="figure_1">
  <g id="patch_1">
   <path d="M 0 345.6 
L 460.8 345.6 
L 460.8 0 
L 0 0 
z
" style="fill:#ffffff;"/>
  </g>
  <g id="axes_1">
   <g id="patch_2">
    <path d="M 57.6 307.584 
L 414.72 307.584 
L 414.72 41.472 
L 57.6 41.472 
z
" style="fill:#ffffff;"/>
   </g>
   <g id="matplotlib.axis_1">
    <g id="xtick_1">
     <g id="line2d_1">
      <path clip-path="url(#pa8f35f3781)" d="M 61.612584 307.584 
L 61.612584 41.472 
" style="fill:none;stroke:#b0b0b0;stroke-dasharray:5.12,1.28,0.8,1.28;stroke-dashoffset:0;stroke-width:0.8;"/>
     </g>
     <g id="line2d_2">
      <defs>
       <path d="M 0 0 
L 0 3.5 
" id="m893431ca77" style="stroke:#000000;stroke-width:0.8;"/>
      </defs>
      <g>
       <use style="stroke:#000000;stroke-width:0.8;" x="61.612584" xlink:href="#m893431ca77" y="307.584"/>
      </g>
     </g>
     <g id="text_1">
      <!-- 1 -->
      <g transform="translate(58.431334 322.182437)scale(0.1 -0.1)">
       <defs>
        <path d="M 12.40625 8.296875 
L 28.515625 8.296875 
L 28.515625 63.921875 
L 10.984375 60.40625 
L 10.984375 69.390625 
L 28.421875 72.90625 
L 38.28125 72.90625 
L 38.28125 8.296875 
L 54.390625 8.296875 
L 54.390625 0 
L 12.40625 0 
z
" id="DejaVuSans-49"/>
       </defs>
       <use xlink:href="#DejaVuSans-49"/>
      </g>
     </g>
    </g>
    <g id="xtick_2">
     <g id="line2d_3">
      <path clip-path="url(#pa8f35f3781)" d="M 73.650337 307.584 
L 73.650337 41.472 
" style="fill:none;stroke:#b0b0b0;stroke-dasharray:5.12,1.28,0.8,1.28;stroke-dashoffset:0;stroke-width:0.8;"/>
     </g>
     <g id="line2d_4">
      <g>
       <use style="stroke:#000000;stroke-width:0.8;" x="73.650337" xlink:href="#m893431ca77" y="307.584"/>
      </g>
     </g>
     <g id="text_2">
      <!-- 4 -->
      <g transform="translate(70.469087 322.182437)scale(0.1 -0.1)">
       <defs>
        <path d="M 37.796875 64.3125 
L 12.890625 25.390625 
L 37.796875 25.390625 
z
M 35.203125 72.90625 
L 47.609375 72.90625 
L 47.609375 25.390625 
L 58.015625 25.390625 
L 58.015625 17.1875 
L 47.609375 17.1875 
L 47.609375 0 
L 37.796875 0 
L 37.796875 17.1875 
L 4.890625 17.1875 
L 4.890625 26.703125 
z
" id="DejaVuSans-52"/>
       </defs>
       <use xlink:href="#DejaVuSans-52"/>
      </g>
     </g>
    </g>
    <g id="xtick_3">
     <g id="line2d_5">
      <path clip-path="url(#pa8f35f3781)" d="M 89.700674 307.584 
L 89.700674 41.472 
" style="fill:none;stroke:#b0b0b0;stroke-dasharray:5.12,1.28,0.8,1.28;stroke-dashoffset:0;stroke-width:0.8;"/>
     </g>
     <g id="line2d_6">
      <g>
       <use style="stroke:#000000;stroke-width:0.8;" x="89.700674" xlink:href="#m893431ca77" y="307.584"/>
      </g>
     </g>
     <g id="text_3">
      <!-- 8 -->
      <g transform="translate(86.519424 322.182437)scale(0.1 -0.1)">
       <defs>
        <path d="M 31.78125 34.625 
Q 24.75 34.625 20.71875 30.859375 
Q 16.703125 27.09375 16.703125 20.515625 
Q 16.703125 13.921875 20.71875 10.15625 
Q 24.75 6.390625 31.78125 6.390625 
Q 38.8125 6.390625 42.859375 10.171875 
Q 46.921875 13.96875 46.921875 20.515625 
Q 46.921875 27.09375 42.890625 30.859375 
Q 38.875 34.625 31.78125 34.625 
z
M 21.921875 38.8125 
Q 15.578125 40.375 12.03125 44.71875 
Q 8.5 49.078125 8.5 55.328125 
Q 8.5 64.0625 14.71875 69.140625 
Q 20.953125 74.21875 31.78125 74.21875 
Q 42.671875 74.21875 48.875 69.140625 
Q 55.078125 64.0625 55.078125 55.328125 
Q 55.078125 49.078125 51.53125 44.71875 
Q 48 40.375 41.703125 38.8125 
Q 48.828125 37.15625 52.796875 32.3125 
Q 56.78125 27.484375 56.78125 20.515625 
Q 56.78125 9.90625 50.3125 4.234375 
Q 43.84375 -1.421875 31.78125 -1.421875 
Q 19.734375 -1.421875 13.25 4.234375 
Q 6.78125 9.90625 6.78125 20.515625 
Q 6.78125 27.484375 10.78125 32.3125 
Q 14.796875 37.15625 21.921875 38.8125 
z
M 18.3125 54.390625 
Q 18.3125 48.734375 21.84375 45.5625 
Q 25.390625 42.390625 31.78125 42.390625 
Q 38.140625 42.390625 41.71875 45.5625 
Q 45.3125 48.734375 45.3125 54.390625 
Q 45.3125 60.0625 41.71875 63.234375 
Q 38.140625 66.40625 31.78125 66.40625 
Q 25.390625 66.40625 21.84375 63.234375 
Q 18.3125 60.0625 18.3125 54.390625 
z
" id="DejaVuSans-56"/>
       </defs>
       <use xlink:href="#DejaVuSans-56"/>
      </g>
     </g>
    </g>
    <g id="xtick_4">
     <g id="line2d_7">
      <path clip-path="url(#pa8f35f3781)" d="M 105.751011 307.584 
L 105.751011 41.472 
" style="fill:none;stroke:#b0b0b0;stroke-dasharray:5.12,1.28,0.8,1.28;stroke-dashoffset:0;stroke-width:0.8;"/>
     </g>
     <g id="line2d_8">
      <g>
       <use style="stroke:#000000;stroke-width:0.8;" x="105.751011" xlink:href="#m893431ca77" y="307.584"/>
      </g>
     </g>
     <g id="text_4">
      <!-- 12 -->
      <g transform="translate(99.388511 322.182437)scale(0.1 -0.1)">
       <defs>
        <path d="M 19.1875 8.296875 
L 53.609375 8.296875 
L 53.609375 0 
L 7.328125 0 
L 7.328125 8.296875 
Q 12.9375 14.109375 22.625 23.890625 
Q 32.328125 33.6875 34.8125 36.53125 
Q 39.546875 41.84375 41.421875 45.53125 
Q 43.3125 49.21875 43.3125 52.78125 
Q 43.3125 58.59375 39.234375 62.25 
Q 35.15625 65.921875 28.609375 65.921875 
Q 23.96875 65.921875 18.8125 64.3125 
Q 13.671875 62.703125 7.8125 59.421875 
L 7.8125 69.390625 
Q 13.765625 71.78125 18.9375 73 
Q 24.125 74.21875 28.421875 74.21875 
Q 39.75 74.21875 46.484375 68.546875 
Q 53.21875 62.890625 53.21875 53.421875 
Q 53.21875 48.921875 51.53125 44.890625 
Q 49.859375 40.875 45.40625 35.40625 
Q 44.1875 33.984375 37.640625 27.21875 
Q 31.109375 20.453125 19.1875 8.296875 
z
" id="DejaVuSans-50"/>
       </defs>
       <use xlink:href="#DejaVuSans-49"/>
       <use x="63.623047" xlink:href="#DejaVuSans-50"/>
      </g>
     </g>
    </g>
    <g id="xtick_5">
     <g id="line2d_9">
      <path clip-path="url(#pa8f35f3781)" d="M 121.801348 307.584 
L 121.801348 41.472 
" style="fill:none;stroke:#b0b0b0;stroke-dasharray:5.12,1.28,0.8,1.28;stroke-dashoffset:0;stroke-width:0.8;"/>
     </g>
     <g id="line2d_10">
      <g>
       <use style="stroke:#000000;stroke-width:0.8;" x="121.801348" xlink:href="#m893431ca77" y="307.584"/>
      </g>
     </g>
     <g id="text_5">
      <!-- 16 -->
      <g transform="translate(115.438848 322.182437)scale(0.1 -0.1)">
       <defs>
        <path d="M 33.015625 40.375 
Q 26.375 40.375 22.484375 35.828125 
Q 18.609375 31.296875 18.609375 23.390625 
Q 18.609375 15.53125 22.484375 10.953125 
Q 26.375 6.390625 33.015625 6.390625 
Q 39.65625 6.390625 43.53125 10.953125 
Q 47.40625 15.53125 47.40625 23.390625 
Q 47.40625 31.296875 43.53125 35.828125 
Q 39.65625 40.375 33.015625 40.375 
z
M 52.59375 71.296875 
L 52.59375 62.3125 
Q 48.875 64.0625 45.09375 64.984375 
Q 41.3125 65.921875 37.59375 65.921875 
Q 27.828125 65.921875 22.671875 59.328125 
Q 17.53125 52.734375 16.796875 39.40625 
Q 19.671875 43.65625 24.015625 45.921875 
Q 28.375 48.1875 33.59375 48.1875 
Q 44.578125 48.1875 50.953125 41.515625 
Q 57.328125 34.859375 57.328125 23.390625 
Q 57.328125 12.15625 50.6875 5.359375 
Q 44.046875 -1.421875 33.015625 -1.421875 
Q 20.359375 -1.421875 13.671875 8.265625 
Q 6.984375 17.96875 6.984375 36.375 
Q 6.984375 53.65625 15.1875 63.9375 
Q 23.390625 74.21875 37.203125 74.21875 
Q 40.921875 74.21875 44.703125 73.484375 
Q 48.484375 72.75 52.59375 71.296875 
z
" id="DejaVuSans-54"/>
       </defs>
       <use xlink:href="#DejaVuSans-49"/>
       <use x="63.623047" xlink:href="#DejaVuSans-54"/>
      </g>
     </g>
    </g>
    <g id="xtick_6">
     <g id="line2d_11">
      <path clip-path="url(#pa8f35f3781)" d="M 137.851685 307.584 
L 137.851685 41.472 
" style="fill:none;stroke:#b0b0b0;stroke-dasharray:5.12,1.28,0.8,1.28;stroke-dashoffset:0;stroke-width:0.8;"/>
     </g>
     <g id="line2d_12">
      <g>
       <use style="stroke:#000000;stroke-width:0.8;" x="137.851685" xlink:href="#m893431ca77" y="307.584"/>
      </g>
     </g>
     <g id="text_6">
      <!-- 20 -->
      <g transform="translate(131.489185 322.182437)scale(0.1 -0.1)">
       <defs>
        <path d="M 31.78125 66.40625 
Q 24.171875 66.40625 20.328125 58.90625 
Q 16.5 51.421875 16.5 36.375 
Q 16.5 21.390625 20.328125 13.890625 
Q 24.171875 6.390625 31.78125 6.390625 
Q 39.453125 6.390625 43.28125 13.890625 
Q 47.125 21.390625 47.125 36.375 
Q 47.125 51.421875 43.28125 58.90625 
Q 39.453125 66.40625 31.78125 66.40625 
z
M 31.78125 74.21875 
Q 44.046875 74.21875 50.515625 64.515625 
Q 56.984375 54.828125 56.984375 36.375 
Q 56.984375 17.96875 50.515625 8.265625 
Q 44.046875 -1.421875 31.78125 -1.421875 
Q 19.53125 -1.421875 13.0625 8.265625 
Q 6.59375 17.96875 6.59375 36.375 
Q 6.59375 54.828125 13.0625 64.515625 
Q 19.53125 74.21875 31.78125 74.21875 
z
" id="DejaVuSans-48"/>
       </defs>
       <use xlink:href="#DejaVuSans-50"/>
       <use x="63.623047" xlink:href="#DejaVuSans-48"/>
      </g>
     </g>
    </g>
    <g id="xtick_7">
     <g id="line2d_13">
      <path clip-path="url(#pa8f35f3781)" d="M 153.902022 307.584 
L 153.902022 41.472 
" style="fill:none;stroke:#b0b0b0;stroke-dasharray:5.12,1.28,0.8,1.28;stroke-dashoffset:0;stroke-width:0.8;"/>
     </g>
     <g id="line2d_14">
      <g>
       <use style="stroke:#000000;stroke-width:0.8;" x="153.902022" xlink:href="#m893431ca77" y="307.584"/>
      </g>
     </g>
     <g id="text_7">
      <!-- 24 -->
      <g transform="translate(147.539522 322.182437)scale(0.1 -0.1)">
       <use xlink:href="#DejaVuSans-50"/>
       <use x="63.623047" xlink:href="#DejaVuSans-52"/>
      </g>
     </g>
    </g>
    <g id="xtick_8">
     <g id="line2d_15">
      <path clip-path="url(#pa8f35f3781)" d="M 169.95236 307.584 
L 169.95236 41.472 
" style="fill:none;stroke:#b0b0b0;stroke-dasharray:5.12,1.28,0.8,1.28;stroke-dashoffset:0;stroke-width:0.8;"/>
     </g>
     <g id="line2d_16">
      <g>
       <use style="stroke:#000000;stroke-width:0.8;" x="169.95236" xlink:href="#m893431ca77" y="307.584"/>
      </g>
     </g>
     <g id="text_8">
      <!-- 28 -->
      <g transform="translate(163.58986 322.182437)scale(0.1 -0.1)">
       <use xlink:href="#DejaVuSans-50"/>
       <use x="63.623047" xlink:href="#DejaVuSans-56"/>
      </g>
     </g>
    </g>
    <g id="xtick_9">
     <g id="line2d_17">
      <path clip-path="url(#pa8f35f3781)" d="M 186.002697 307.584 
L 186.002697 41.472 
" style="fill:none;stroke:#b0b0b0;stroke-dasharray:5.12,1.28,0.8,1.28;stroke-dashoffset:0;stroke-width:0.8;"/>
     </g>
     <g id="line2d_18">
      <g>
       <use style="stroke:#000000;stroke-width:0.8;" x="186.002697" xlink:href="#m893431ca77" y="307.584"/>
      </g>
     </g>
     <g id="text_9">
      <!-- 32 -->
      <g transform="translate(179.640197 322.182437)scale(0.1 -0.1)">
       <defs>
        <path d="M 40.578125 39.3125 
Q 47.65625 37.796875 51.625 33 
Q 55.609375 28.21875 55.609375 21.1875 
Q 55.609375 10.40625 48.1875 4.484375 
Q 40.765625 -1.421875 27.09375 -1.421875 
Q 22.515625 -1.421875 17.65625 -0.515625 
Q 12.796875 0.390625 7.625 2.203125 
L 7.625 11.71875 
Q 11.71875 9.328125 16.59375 8.109375 
Q 21.484375 6.890625 26.8125 6.890625 
Q 36.078125 6.890625 40.9375 10.546875 
Q 45.796875 14.203125 45.796875 21.1875 
Q 45.796875 27.640625 41.28125 31.265625 
Q 36.765625 34.90625 28.71875 34.90625 
L 20.21875 34.90625 
L 20.21875 43.015625 
L 29.109375 43.015625 
Q 36.375 43.015625 40.234375 45.921875 
Q 44.09375 48.828125 44.09375 54.296875 
Q 44.09375 59.90625 40.109375 62.90625 
Q 36.140625 65.921875 28.71875 65.921875 
Q 24.65625 65.921875 20.015625 65.03125 
Q 15.375 64.15625 9.8125 62.3125 
L 9.8125 71.09375 
Q 15.4375 72.65625 20.34375 73.4375 
Q 25.25 74.21875 29.59375 74.21875 
Q 40.828125 74.21875 47.359375 69.109375 
Q 53.90625 64.015625 53.90625 55.328125 
Q 53.90625 49.265625 50.4375 45.09375 
Q 46.96875 40.921875 40.578125 39.3125 
z
" id="DejaVuSans-51"/>
       </defs>
       <use xlink:href="#DejaVuSans-51"/>
       <use x="63.623047" xlink:href="#DejaVuSans-50"/>
      </g>
     </g>
    </g>
    <g id="xtick_10">
     <g id="line2d_19">
      <path clip-path="url(#pa8f35f3781)" d="M 202.053034 307.584 
L 202.053034 41.472 
" style="fill:none;stroke:#b0b0b0;stroke-dasharray:5.12,1.28,0.8,1.28;stroke-dashoffset:0;stroke-width:0.8;"/>
     </g>
     <g id="line2d_20">
      <g>
       <use style="stroke:#000000;stroke-width:0.8;" x="202.053034" xlink:href="#m893431ca77" y="307.584"/>
      </g>
     </g>
     <g id="text_10">
      <!-- 36 -->
      <g transform="translate(195.690534 322.182437)scale(0.1 -0.1)">
       <use xlink:href="#DejaVuSans-51"/>
       <use x="63.623047" xlink:href="#DejaVuSans-54"/>
      </g>
     </g>
    </g>
    <g id="xtick_11">
     <g id="line2d_21">
      <path clip-path="url(#pa8f35f3781)" d="M 218.103371 307.584 
L 218.103371 41.472 
" style="fill:none;stroke:#b0b0b0;stroke-dasharray:5.12,1.28,0.8,1.28;stroke-dashoffset:0;stroke-width:0.8;"/>
     </g>
     <g id="line2d_22">
      <g>
       <use style="stroke:#000000;stroke-width:0.8;" x="218.103371" xlink:href="#m893431ca77" y="307.584"/>
      </g>
     </g>
     <g id="text_11">
      <!-- 40 -->
      <g transform="translate(211.740871 322.182437)scale(0.1 -0.1)">
       <use xlink:href="#DejaVuSans-52"/>
       <use x="63.623047" xlink:href="#DejaVuSans-48"/>
      </g>
     </g>
    </g>
    <g id="xtick_12">
     <g id="line2d_23">
      <path clip-path="url(#pa8f35f3781)" d="M 234.153708 307.584 
L 234.153708 41.472 
" style="fill:none;stroke:#b0b0b0;stroke-dasharray:5.12,1.28,0.8,1.28;stroke-dashoffset:0;stroke-width:0.8;"/>
     </g>
     <g id="line2d_24">
      <g>
       <use style="stroke:#000000;stroke-width:0.8;" x="234.153708" xlink:href="#m893431ca77" y="307.584"/>
      </g>
     </g>
     <g id="text_12">
      <!-- 44 -->
      <g transform="translate(227.791208 322.182437)scale(0.1 -0.1)">
       <use xlink:href="#DejaVuSans-52"/>
       <use x="63.623047" xlink:href="#DejaVuSans-52"/>
      </g>
     </g>
    </g>
    <g id="xtick_13">
     <g id="line2d_25">
      <path clip-path="url(#pa8f35f3781)" d="M 250.204045 307.584 
L 250.204045 41.472 
" style="fill:none;stroke:#b0b0b0;stroke-dasharray:5.12,1.28,0.8,1.28;stroke-dashoffset:0;stroke-width:0.8;"/>
     </g>
     <g id="line2d_26">
      <g>
       <use style="stroke:#000000;stroke-width:0.8;" x="250.204045" xlink:href="#m893431ca77" y="307.584"/>
      </g>
     </g>
     <g id="text_13">
      <!-- 48 -->
      <g transform="translate(243.841545 322.182437)scale(0.1 -0.1)">
       <use xlink:href="#DejaVuSans-52"/>
       <use x="63.623047" xlink:href="#DejaVuSans-56"/>
      </g>
     </g>
    </g>
    <g id="xtick_14">
     <g id="line2d_27">
      <path clip-path="url(#pa8f35f3781)" d="M 266.254382 307.584 
L 266.254382 41.472 
" style="fill:none;stroke:#b0b0b0;stroke-dasharray:5.12,1.28,0.8,1.28;stroke-dashoffset:0;stroke-width:0.8;"/>
     </g>
     <g id="line2d_28">
      <g>
       <use style="stroke:#000000;stroke-width:0.8;" x="266.254382" xlink:href="#m893431ca77" y="307.584"/>
      </g>
     </g>
     <g id="text_14">
      <!-- 52 -->
      <g transform="translate(259.891882 322.182437)scale(0.1 -0.1)">
       <defs>
        <path d="M 10.796875 72.90625 
L 49.515625 72.90625 
L 49.515625 64.59375 
L 19.828125 64.59375 
L 19.828125 46.734375 
Q 21.96875 47.46875 24.109375 47.828125 
Q 26.265625 48.1875 28.421875 48.1875 
Q 40.625 48.1875 47.75 41.5 
Q 54.890625 34.8125 54.890625 23.390625 
Q 54.890625 11.625 47.5625 5.09375 
Q 40.234375 -1.421875 26.90625 -1.421875 
Q 22.3125 -1.421875 17.546875 -0.640625 
Q 12.796875 0.140625 7.71875 1.703125 
L 7.71875 11.625 
Q 12.109375 9.234375 16.796875 8.0625 
Q 21.484375 6.890625 26.703125 6.890625 
Q 35.15625 6.890625 40.078125 11.328125 
Q 45.015625 15.765625 45.015625 23.390625 
Q 45.015625 31 40.078125 35.4375 
Q 35.15625 39.890625 26.703125 39.890625 
Q 22.75 39.890625 18.8125 39.015625 
Q 14.890625 38.140625 10.796875 36.28125 
z
" id="DejaVuSans-53"/>
       </defs>
       <use xlink:href="#DejaVuSans-53"/>
       <use x="63.623047" xlink:href="#DejaVuSans-50"/>
      </g>
     </g>
    </g>
    <g id="xtick_15">
     <g id="line2d_29">
      <path clip-path="url(#pa8f35f3781)" d="M 282.304719 307.584 
L 282.304719 41.472 
" style="fill:none;stroke:#b0b0b0;stroke-dasharray:5.12,1.28,0.8,1.28;stroke-dashoffset:0;stroke-width:0.8;"/>
     </g>
     <g id="line2d_30">
      <g>
       <use style="stroke:#000000;stroke-width:0.8;" x="282.304719" xlink:href="#m893431ca77" y="307.584"/>
      </g>
     </g>
     <g id="text_15">
      <!-- 56 -->
      <g transform="translate(275.942219 322.182437)scale(0.1 -0.1)">
       <use xlink:href="#DejaVuSans-53"/>
       <use x="63.623047" xlink:href="#DejaVuSans-54"/>
      </g>
     </g>
    </g>
    <g id="xtick_16">
     <g id="line2d_31">
      <path clip-path="url(#pa8f35f3781)" d="M 298.355056 307.584 
L 298.355056 41.472 
" style="fill:none;stroke:#b0b0b0;stroke-dasharray:5.12,1.28,0.8,1.28;stroke-dashoffset:0;stroke-width:0.8;"/>
     </g>
     <g id="line2d_32">
      <g>
       <use style="stroke:#000000;stroke-width:0.8;" x="298.355056" xlink:href="#m893431ca77" y="307.584"/>
      </g>
     </g>
     <g id="text_16">
      <!-- 60 -->
      <g transform="translate(291.992556 322.182437)scale(0.1 -0.1)">
       <use xlink:href="#DejaVuSans-54"/>
       <use x="63.623047" xlink:href="#DejaVuSans-48"/>
      </g>
     </g>
    </g>
    <g id="xtick_17">
     <g id="line2d_33">
      <path clip-path="url(#pa8f35f3781)" d="M 314.405393 307.584 
L 314.405393 41.472 
" style="fill:none;stroke:#b0b0b0;stroke-dasharray:5.12,1.28,0.8,1.28;stroke-dashoffset:0;stroke-width:0.8;"/>
     </g>
     <g id="line2d_34">
      <g>
       <use style="stroke:#000000;stroke-width:0.8;" x="314.405393" xlink:href="#m893431ca77" y="307.584"/>
      </g>
     </g>
     <g id="text_17">
      <!-- 64 -->
      <g transform="translate(308.042893 322.182437)scale(0.1 -0.1)">
       <use xlink:href="#DejaVuSans-54"/>
       <use x="63.623047" xlink:href="#DejaVuSans-52"/>
      </g>
     </g>
    </g>
    <g id="xtick_18">
     <g id="line2d_35">
      <path clip-path="url(#pa8f35f3781)" d="M 330.45573 307.584 
L 330.45573 41.472 
" style="fill:none;stroke:#b0b0b0;stroke-dasharray:5.12,1.28,0.8,1.28;stroke-dashoffset:0;stroke-width:0.8;"/>
     </g>
     <g id="line2d_36">
      <g>
       <use style="stroke:#000000;stroke-width:0.8;" x="330.45573" xlink:href="#m893431ca77" y="307.584"/>
      </g>
     </g>
     <g id="text_18">
      <!-- 68 -->
      <g transform="translate(324.09323 322.182437)scale(0.1 -0.1)">
       <use xlink:href="#DejaVuSans-54"/>
       <use x="63.623047" xlink:href="#DejaVuSans-56"/>
      </g>
     </g>
    </g>
    <g id="xtick_19">
     <g id="line2d_37">
      <path clip-path="url(#pa8f35f3781)" d="M 346.506067 307.584 
L 346.506067 41.472 
" style="fill:none;stroke:#b0b0b0;stroke-dasharray:5.12,1.28,0.8,1.28;stroke-dashoffset:0;stroke-width:0.8;"/>
     </g>
     <g id="line2d_38">
      <g>
       <use style="stroke:#000000;stroke-width:0.8;" x="346.506067" xlink:href="#m893431ca77" y="307.584"/>
      </g>
     </g>
     <g id="text_19">
      <!-- 72 -->
      <g transform="translate(340.143567 322.182437)scale(0.1 -0.1)">
       <defs>
        <path d="M 8.203125 72.90625 
L 55.078125 72.90625 
L 55.078125 68.703125 
L 28.609375 0 
L 18.3125 0 
L 43.21875 64.59375 
L 8.203125 64.59375 
z
" id="DejaVuSans-55"/>
       </defs>
       <use xlink:href="#DejaVuSans-55"/>
       <use x="63.623047" xlink:href="#DejaVuSans-50"/>
      </g>
     </g>
    </g>
    <g id="xtick_20">
     <g id="line2d_39">
      <path clip-path="url(#pa8f35f3781)" d="M 362.556404 307.584 
L 362.556404 41.472 
" style="fill:none;stroke:#b0b0b0;stroke-dasharray:5.12,1.28,0.8,1.28;stroke-dashoffset:0;stroke-width:0.8;"/>
     </g>
     <g id="line2d_40">
      <g>
       <use style="stroke:#000000;stroke-width:0.8;" x="362.556404" xlink:href="#m893431ca77" y="307.584"/>
      </g>
     </g>
     <g id="text_20">
      <!-- 76 -->
      <g transform="translate(356.193904 322.182437)scale(0.1 -0.1)">
       <use xlink:href="#DejaVuSans-55"/>
       <use x="63.623047" xlink:href="#DejaVuSans-54"/>
      </g>
     </g>
    </g>
    <g id="xtick_21">
     <g id="line2d_41">
      <path clip-path="url(#pa8f35f3781)" d="M 378.606742 307.584 
L 378.606742 41.472 
" style="fill:none;stroke:#b0b0b0;stroke-dasharray:5.12,1.28,0.8,1.28;stroke-dashoffset:0;stroke-width:0.8;"/>
     </g>
     <g id="line2d_42">
      <g>
       <use style="stroke:#000000;stroke-width:0.8;" x="378.606742" xlink:href="#m893431ca77" y="307.584"/>
      </g>
     </g>
     <g id="text_21">
      <!-- 80 -->
      <g transform="translate(372.244242 322.182437)scale(0.1 -0.1)">
       <use xlink:href="#DejaVuSans-56"/>
       <use x="63.623047" xlink:href="#DejaVuSans-48"/>
      </g>
     </g>
    </g>
    <g id="xtick_22">
     <g id="line2d_43">
      <path clip-path="url(#pa8f35f3781)" d="M 394.657079 307.584 
L 394.657079 41.472 
" style="fill:none;stroke:#b0b0b0;stroke-dasharray:5.12,1.28,0.8,1.28;stroke-dashoffset:0;stroke-width:0.8;"/>
     </g>
     <g id="line2d_44">
      <g>
       <use style="stroke:#000000;stroke-width:0.8;" x="394.657079" xlink:href="#m893431ca77" y="307.584"/>
      </g>
     </g>
     <g id="text_22">
      <!-- 84 -->
      <g transform="translate(388.294579 322.182437)scale(0.1 -0.1)">
       <use xlink:href="#DejaVuSans-56"/>
       <use x="63.623047" xlink:href="#DejaVuSans-52"/>
      </g>
     </g>
    </g>
    <g id="xtick_23">
     <g id="line2d_45">
      <path clip-path="url(#pa8f35f3781)" d="M 410.707416 307.584 
L 410.707416 41.472 
" style="fill:none;stroke:#b0b0b0;stroke-dasharray:5.12,1.28,0.8,1.28;stroke-dashoffset:0;stroke-width:0.8;"/>
     </g>
     <g id="line2d_46">
      <g>
       <use style="stroke:#000000;stroke-width:0.8;" x="410.707416" xlink:href="#m893431ca77" y="307.584"/>
      </g>
     </g>
     <g id="text_23">
      <!-- 88 -->
      <g transform="translate(404.344916 322.182437)scale(0.1 -0.1)">
       <use xlink:href="#DejaVuSans-56"/>
       <use x="63.623047" xlink:href="#DejaVuSans-56"/>
      </g>
     </g>
    </g>
    <g id="text_24">
     <!-- threads -->
     <g transform="translate(217.168594 335.860562)scale(0.1 -0.1)">
      <defs>
       <path d="M 18.3125 70.21875 
L 18.3125 54.6875 
L 36.8125 54.6875 
L 36.8125 47.703125 
L 18.3125 47.703125 
L 18.3125 18.015625 
Q 18.3125 11.328125 20.140625 9.421875 
Q 21.96875 7.515625 27.59375 7.515625 
L 36.8125 7.515625 
L 36.8125 0 
L 27.59375 0 
Q 17.1875 0 13.234375 3.875 
Q 9.28125 7.765625 9.28125 18.015625 
L 9.28125 47.703125 
L 2.6875 47.703125 
L 2.6875 54.6875 
L 9.28125 54.6875 
L 9.28125 70.21875 
z
" id="DejaVuSans-116"/>
       <path d="M 54.890625 33.015625 
L 54.890625 0 
L 45.90625 0 
L 45.90625 32.71875 
Q 45.90625 40.484375 42.875 44.328125 
Q 39.84375 48.1875 33.796875 48.1875 
Q 26.515625 48.1875 22.3125 43.546875 
Q 18.109375 38.921875 18.109375 30.90625 
L 18.109375 0 
L 9.078125 0 
L 9.078125 75.984375 
L 18.109375 75.984375 
L 18.109375 46.1875 
Q 21.34375 51.125 25.703125 53.5625 
Q 30.078125 56 35.796875 56 
Q 45.21875 56 50.046875 50.171875 
Q 54.890625 44.34375 54.890625 33.015625 
z
" id="DejaVuSans-104"/>
       <path d="M 41.109375 46.296875 
Q 39.59375 47.171875 37.8125 47.578125 
Q 36.03125 48 33.890625 48 
Q 26.265625 48 22.1875 43.046875 
Q 18.109375 38.09375 18.109375 28.8125 
L 18.109375 0 
L 9.078125 0 
L 9.078125 54.6875 
L 18.109375 54.6875 
L 18.109375 46.1875 
Q 20.953125 51.171875 25.484375 53.578125 
Q 30.03125 56 36.53125 56 
Q 37.453125 56 38.578125 55.875 
Q 39.703125 55.765625 41.0625 55.515625 
z
" id="DejaVuSans-114"/>
       <path d="M 56.203125 29.59375 
L 56.203125 25.203125 
L 14.890625 25.203125 
Q 15.484375 15.921875 20.484375 11.0625 
Q 25.484375 6.203125 34.421875 6.203125 
Q 39.59375 6.203125 44.453125 7.46875 
Q 49.3125 8.734375 54.109375 11.28125 
L 54.109375 2.78125 
Q 49.265625 0.734375 44.1875 -0.34375 
Q 39.109375 -1.421875 33.890625 -1.421875 
Q 20.796875 -1.421875 13.15625 6.1875 
Q 5.515625 13.8125 5.515625 26.8125 
Q 5.515625 40.234375 12.765625 48.109375 
Q 20.015625 56 32.328125 56 
Q 43.359375 56 49.78125 48.890625 
Q 56.203125 41.796875 56.203125 29.59375 
z
M 47.21875 32.234375 
Q 47.125 39.59375 43.09375 43.984375 
Q 39.0625 48.390625 32.421875 48.390625 
Q 24.90625 48.390625 20.390625 44.140625 
Q 15.875 39.890625 15.1875 32.171875 
z
" id="DejaVuSans-101"/>
       <path d="M 34.28125 27.484375 
Q 23.390625 27.484375 19.1875 25 
Q 14.984375 22.515625 14.984375 16.5 
Q 14.984375 11.71875 18.140625 8.90625 
Q 21.296875 6.109375 26.703125 6.109375 
Q 34.1875 6.109375 38.703125 11.40625 
Q 43.21875 16.703125 43.21875 25.484375 
L 43.21875 27.484375 
z
M 52.203125 31.203125 
L 52.203125 0 
L 43.21875 0 
L 43.21875 8.296875 
Q 40.140625 3.328125 35.546875 0.953125 
Q 30.953125 -1.421875 24.3125 -1.421875 
Q 15.921875 -1.421875 10.953125 3.296875 
Q 6 8.015625 6 15.921875 
Q 6 25.140625 12.171875 29.828125 
Q 18.359375 34.515625 30.609375 34.515625 
L 43.21875 34.515625 
L 43.21875 35.40625 
Q 43.21875 41.609375 39.140625 45 
Q 35.0625 48.390625 27.6875 48.390625 
Q 23 48.390625 18.546875 47.265625 
Q 14.109375 46.140625 10.015625 43.890625 
L 10.015625 52.203125 
Q 14.9375 54.109375 19.578125 55.046875 
Q 24.21875 56 28.609375 56 
Q 40.484375 56 46.34375 49.84375 
Q 52.203125 43.703125 52.203125 31.203125 
z
" id="DejaVuSans-97"/>
       <path d="M 45.40625 46.390625 
L 45.40625 75.984375 
L 54.390625 75.984375 
L 54.390625 0 
L 45.40625 0 
L 45.40625 8.203125 
Q 42.578125 3.328125 38.25 0.953125 
Q 33.9375 -1.421875 27.875 -1.421875 
Q 17.96875 -1.421875 11.734375 6.484375 
Q 5.515625 14.40625 5.515625 27.296875 
Q 5.515625 40.1875 11.734375 48.09375 
Q 17.96875 56 27.875 56 
Q 33.9375 56 38.25 53.625 
Q 42.578125 51.265625 45.40625 46.390625 
z
M 14.796875 27.296875 
Q 14.796875 17.390625 18.875 11.75 
Q 22.953125 6.109375 30.078125 6.109375 
Q 37.203125 6.109375 41.296875 11.75 
Q 45.40625 17.390625 45.40625 27.296875 
Q 45.40625 37.203125 41.296875 42.84375 
Q 37.203125 48.484375 30.078125 48.484375 
Q 22.953125 48.484375 18.875 42.84375 
Q 14.796875 37.203125 14.796875 27.296875 
z
" id="DejaVuSans-100"/>
       <path d="M 44.28125 53.078125 
L 44.28125 44.578125 
Q 40.484375 46.53125 36.375 47.5 
Q 32.28125 48.484375 27.875 48.484375 
Q 21.1875 48.484375 17.84375 46.4375 
Q 14.5 44.390625 14.5 40.28125 
Q 14.5 37.15625 16.890625 35.375 
Q 19.28125 33.59375 26.515625 31.984375 
L 29.59375 31.296875 
Q 39.15625 29.25 43.1875 25.515625 
Q 47.21875 21.78125 47.21875 15.09375 
Q 47.21875 7.46875 41.1875 3.015625 
Q 35.15625 -1.421875 24.609375 -1.421875 
Q 20.21875 -1.421875 15.453125 -0.5625 
Q 10.6875 0.296875 5.421875 2 
L 5.421875 11.28125 
Q 10.40625 8.6875 15.234375 7.390625 
Q 20.0625 6.109375 24.8125 6.109375 
Q 31.15625 6.109375 34.5625 8.28125 
Q 37.984375 10.453125 37.984375 14.40625 
Q 37.984375 18.0625 35.515625 20.015625 
Q 33.0625 21.96875 24.703125 23.78125 
L 21.578125 24.515625 
Q 13.234375 26.265625 9.515625 29.90625 
Q 5.8125 33.546875 5.8125 39.890625 
Q 5.8125 47.609375 11.28125 51.796875 
Q 16.75 56 26.8125 56 
Q 31.78125 56 36.171875 55.265625 
Q 40.578125 54.546875 44.28125 53.078125 
z
" id="DejaVuSans-115"/>
      </defs>
      <use xlink:href="#DejaVuSans-116"/>
      <use x="39.208984" xlink:href="#DejaVuSans-104"/>
      <use x="102.587891" xlink:href="#DejaVuSans-114"/>
      <use x="141.451172" xlink:href="#DejaVuSans-101"/>
      <use x="202.974609" xlink:href="#DejaVuSans-97"/>
      <use x="264.253906" xlink:href="#DejaVuSans-100"/>
      <use x="327.730469" xlink:href="#DejaVuSans-115"/>
     </g>
    </g>
   </g>
   <g id="matplotlib.axis_2">
    <g id="ytick_1">
     <g id="line2d_47">
      <path clip-path="url(#pa8f35f3781)" d="M 57.6 282.927246 
L 414.72 282.927246 
" style="fill:none;stroke:#b0b0b0;stroke-dasharray:5.12,1.28,0.8,1.28;stroke-dashoffset:0;stroke-width:0.8;"/>
     </g>
     <g id="line2d_48">
      <defs>
       <path d="M 0 0 
L -3.5 0 
" id="me9a66ff2fa" style="stroke:#000000;stroke-width:0.8;"/>
      </defs>
      <g>
       <use style="stroke:#000000;stroke-width:0.8;" x="57.6" xlink:href="#me9a66ff2fa" y="282.927246"/>
      </g>
     </g>
     <g id="text_25">
      <!-- 0.01 -->
      <g transform="translate(28.334375 286.726465)scale(0.1 -0.1)">
       <defs>
        <path d="M 10.6875 12.40625 
L 21 12.40625 
L 21 0 
L 10.6875 0 
z
" id="DejaVuSans-46"/>
       </defs>
       <use xlink:href="#DejaVuSans-48"/>
       <use x="63.623047" xlink:href="#DejaVuSans-46"/>
       <use x="95.410156" xlink:href="#DejaVuSans-48"/>
       <use x="159.033203" xlink:href="#DejaVuSans-49"/>
      </g>
     </g>
    </g>
    <g id="ytick_2">
     <g id="line2d_49">
      <path clip-path="url(#pa8f35f3781)" d="M 57.6 239.901786 
L 414.72 239.901786 
" style="fill:none;stroke:#b0b0b0;stroke-dasharray:5.12,1.28,0.8,1.28;stroke-dashoffset:0;stroke-width:0.8;"/>
     </g>
     <g id="line2d_50">
      <g>
       <use style="stroke:#000000;stroke-width:0.8;" x="57.6" xlink:href="#me9a66ff2fa" y="239.901786"/>
      </g>
     </g>
     <g id="text_26">
      <!-- 0.02 -->
      <g transform="translate(28.334375 243.701005)scale(0.1 -0.1)">
       <use xlink:href="#DejaVuSans-48"/>
       <use x="63.623047" xlink:href="#DejaVuSans-46"/>
       <use x="95.410156" xlink:href="#DejaVuSans-48"/>
       <use x="159.033203" xlink:href="#DejaVuSans-50"/>
      </g>
     </g>
    </g>
    <g id="ytick_3">
     <g id="line2d_51">
      <path clip-path="url(#pa8f35f3781)" d="M 57.6 196.876326 
L 414.72 196.876326 
" style="fill:none;stroke:#b0b0b0;stroke-dasharray:5.12,1.28,0.8,1.28;stroke-dashoffset:0;stroke-width:0.8;"/>
     </g>
     <g id="line2d_52">
      <g>
       <use style="stroke:#000000;stroke-width:0.8;" x="57.6" xlink:href="#me9a66ff2fa" y="196.876326"/>
      </g>
     </g>
     <g id="text_27">
      <!-- 0.03 -->
      <g transform="translate(28.334375 200.675545)scale(0.1 -0.1)">
       <use xlink:href="#DejaVuSans-48"/>
       <use x="63.623047" xlink:href="#DejaVuSans-46"/>
       <use x="95.410156" xlink:href="#DejaVuSans-48"/>
       <use x="159.033203" xlink:href="#DejaVuSans-51"/>
      </g>
     </g>
    </g>
    <g id="ytick_4">
     <g id="line2d_53">
      <path clip-path="url(#pa8f35f3781)" d="M 57.6 153.850866 
L 414.72 153.850866 
" style="fill:none;stroke:#b0b0b0;stroke-dasharray:5.12,1.28,0.8,1.28;stroke-dashoffset:0;stroke-width:0.8;"/>
     </g>
     <g id="line2d_54">
      <g>
       <use style="stroke:#000000;stroke-width:0.8;" x="57.6" xlink:href="#me9a66ff2fa" y="153.850866"/>
      </g>
     </g>
     <g id="text_28">
      <!-- 0.04 -->
      <g transform="translate(28.334375 157.650085)scale(0.1 -0.1)">
       <use xlink:href="#DejaVuSans-48"/>
       <use x="63.623047" xlink:href="#DejaVuSans-46"/>
       <use x="95.410156" xlink:href="#DejaVuSans-48"/>
       <use x="159.033203" xlink:href="#DejaVuSans-52"/>
      </g>
     </g>
    </g>
    <g id="ytick_5">
     <g id="line2d_55">
      <path clip-path="url(#pa8f35f3781)" d="M 57.6 110.825406 
L 414.72 110.825406 
" style="fill:none;stroke:#b0b0b0;stroke-dasharray:5.12,1.28,0.8,1.28;stroke-dashoffset:0;stroke-width:0.8;"/>
     </g>
     <g id="line2d_56">
      <g>
       <use style="stroke:#000000;stroke-width:0.8;" x="57.6" xlink:href="#me9a66ff2fa" y="110.825406"/>
      </g>
     </g>
     <g id="text_29">
      <!-- 0.05 -->
      <g transform="translate(28.334375 114.624624)scale(0.1 -0.1)">
       <use xlink:href="#DejaVuSans-48"/>
       <use x="63.623047" xlink:href="#DejaVuSans-46"/>
       <use x="95.410156" xlink:href="#DejaVuSans-48"/>
       <use x="159.033203" xlink:href="#DejaVuSans-53"/>
      </g>
     </g>
    </g>
    <g id="ytick_6">
     <g id="line2d_57">
      <path clip-path="url(#pa8f35f3781)" d="M 57.6 67.799945 
L 414.72 67.799945 
" style="fill:none;stroke:#b0b0b0;stroke-dasharray:5.12,1.28,0.8,1.28;stroke-dashoffset:0;stroke-width:0.8;"/>
     </g>
     <g id="line2d_58">
      <g>
       <use style="stroke:#000000;stroke-width:0.8;" x="57.6" xlink:href="#me9a66ff2fa" y="67.799945"/>
      </g>
     </g>
     <g id="text_30">
      <!-- 0.06 -->
      <g transform="translate(28.334375 71.599164)scale(0.1 -0.1)">
       <use xlink:href="#DejaVuSans-48"/>
       <use x="63.623047" xlink:href="#DejaVuSans-46"/>
       <use x="95.410156" xlink:href="#DejaVuSans-48"/>
       <use x="159.033203" xlink:href="#DejaVuSans-54"/>
      </g>
     </g>
    </g>
    <g id="text_31">
     <!-- duration (s) -->
     <g transform="translate(22.254687 203.663156)rotate(-90)scale(0.1 -0.1)">
      <defs>
       <path d="M 8.5 21.578125 
L 8.5 54.6875 
L 17.484375 54.6875 
L 17.484375 21.921875 
Q 17.484375 14.15625 20.5 10.265625 
Q 23.53125 6.390625 29.59375 6.390625 
Q 36.859375 6.390625 41.078125 11.03125 
Q 45.3125 15.671875 45.3125 23.6875 
L 45.3125 54.6875 
L 54.296875 54.6875 
L 54.296875 0 
L 45.3125 0 
L 45.3125 8.40625 
Q 42.046875 3.421875 37.71875 1 
Q 33.40625 -1.421875 27.6875 -1.421875 
Q 18.265625 -1.421875 13.375 4.4375 
Q 8.5 10.296875 8.5 21.578125 
z
M 31.109375 56 
z
" id="DejaVuSans-117"/>
       <path d="M 9.421875 54.6875 
L 18.40625 54.6875 
L 18.40625 0 
L 9.421875 0 
z
M 9.421875 75.984375 
L 18.40625 75.984375 
L 18.40625 64.59375 
L 9.421875 64.59375 
z
" id="DejaVuSans-105"/>
       <path d="M 30.609375 48.390625 
Q 23.390625 48.390625 19.1875 42.75 
Q 14.984375 37.109375 14.984375 27.296875 
Q 14.984375 17.484375 19.15625 11.84375 
Q 23.34375 6.203125 30.609375 6.203125 
Q 37.796875 6.203125 41.984375 11.859375 
Q 46.1875 17.53125 46.1875 27.296875 
Q 46.1875 37.015625 41.984375 42.703125 
Q 37.796875 48.390625 30.609375 48.390625 
z
M 30.609375 56 
Q 42.328125 56 49.015625 48.375 
Q 55.71875 40.765625 55.71875 27.296875 
Q 55.71875 13.875 49.015625 6.21875 
Q 42.328125 -1.421875 30.609375 -1.421875 
Q 18.84375 -1.421875 12.171875 6.21875 
Q 5.515625 13.875 5.515625 27.296875 
Q 5.515625 40.765625 12.171875 48.375 
Q 18.84375 56 30.609375 56 
z
" id="DejaVuSans-111"/>
       <path d="M 54.890625 33.015625 
L 54.890625 0 
L 45.90625 0 
L 45.90625 32.71875 
Q 45.90625 40.484375 42.875 44.328125 
Q 39.84375 48.1875 33.796875 48.1875 
Q 26.515625 48.1875 22.3125 43.546875 
Q 18.109375 38.921875 18.109375 30.90625 
L 18.109375 0 
L 9.078125 0 
L 9.078125 54.6875 
L 18.109375 54.6875 
L 18.109375 46.1875 
Q 21.34375 51.125 25.703125 53.5625 
Q 30.078125 56 35.796875 56 
Q 45.21875 56 50.046875 50.171875 
Q 54.890625 44.34375 54.890625 33.015625 
z
" id="DejaVuSans-110"/>
       <path id="DejaVuSans-32"/>
       <path d="M 31 75.875 
Q 24.46875 64.65625 21.28125 53.65625 
Q 18.109375 42.671875 18.109375 31.390625 
Q 18.109375 20.125 21.3125 9.0625 
Q 24.515625 -2 31 -13.1875 
L 23.1875 -13.1875 
Q 15.875 -1.703125 12.234375 9.375 
Q 8.59375 20.453125 8.59375 31.390625 
Q 8.59375 42.28125 12.203125 53.3125 
Q 15.828125 64.359375 23.1875 75.875 
z
" id="DejaVuSans-40"/>
       <path d="M 8.015625 75.875 
L 15.828125 75.875 
Q 23.140625 64.359375 26.78125 53.3125 
Q 30.421875 42.28125 30.421875 31.390625 
Q 30.421875 20.453125 26.78125 9.375 
Q 23.140625 -1.703125 15.828125 -13.1875 
L 8.015625 -13.1875 
Q 14.5 -2 17.703125 9.0625 
Q 20.90625 20.125 20.90625 31.390625 
Q 20.90625 42.671875 17.703125 53.65625 
Q 14.5 64.65625 8.015625 75.875 
z
" id="DejaVuSans-41"/>
      </defs>
      <use xlink:href="#DejaVuSans-100"/>
      <use x="63.476562" xlink:href="#DejaVuSans-117"/>
      <use x="126.855469" xlink:href="#DejaVuSans-114"/>
      <use x="167.96875" xlink:href="#DejaVuSans-97"/>
      <use x="229.248047" xlink:href="#DejaVuSans-116"/>
      <use x="268.457031" xlink:href="#DejaVuSans-105"/>
      <use x="296.240234" xlink:href="#DejaVuSans-111"/>
      <use x="357.421875" xlink:href="#DejaVuSans-110"/>
      <use x="420.800781" xlink:href="#DejaVuSans-32"/>
      <use x="452.587891" xlink:href="#DejaVuSans-40"/>
      <use x="491.601562" xlink:href="#DejaVuSans-115"/>
      <use x="543.701172" xlink:href="#DejaVuSans-41"/>
     </g>
    </g>
   </g>
   <g id="line2d_59">
    <path clip-path="url(#pa8f35f3781)" d="M 61.612584 61.357098 
L 65.625169 175.162755 
L 69.637753 226.055234 
L 73.650337 246.192556 
L 77.662921 253.724763 
L 81.675506 266.855238 
L 85.68809 271.754052 
L 89.700674 275.98067 
L 93.713258 278.290933 
L 97.725843 283.350653 
L 101.738427 286.643493 
L 105.751011 288.760172 
L 109.763596 291.311794 
L 113.77618 292.076166 
L 117.788764 293.365459 
L 121.801348 293.962185 
L 125.813933 294.074438 
L 129.826517 293.731232 
L 133.839101 294.746488 
L 137.851685 294.308029 
L 141.86427 295.488 
L 145.876854 294.92278 
L 149.889438 294.733006 
L 153.902022 293.677451 
L 157.914607 294.824449 
L 161.927191 294.698422 
L 165.939775 294.930694 
L 169.95236 295.223781 
L 173.964944 294.774771 
L 177.977528 294.662225 
L 181.990112 291.169793 
L 186.002697 293.01859 
L 190.015281 290.729575 
L 194.027865 292.600793 
L 198.040449 291.733986 
L 202.053034 290.982949 
L 206.065618 290.946606 
L 210.078202 290.730161 
L 214.090787 289.337262 
L 218.103371 289.238345 
L 222.115955 289.165219 
L 226.128539 289.308686 
L 230.141124 287.703005 
L 234.153708 287.160353 
L 238.166292 286.876937 
L 242.178876 286.434521 
L 246.191461 285.099947 
L 250.204045 285.785332 
L 254.216629 285.308332 
L 258.229213 286.198439 
L 262.241798 285.346433 
L 266.254382 284.540735 
L 270.266966 283.914993 
L 274.279551 284.309489 
L 278.292135 283.333507 
L 282.304719 284.23695 
L 286.317303 284.327954 
L 290.329888 283.029135 
L 294.342472 284.315644 
L 298.355056 281.771057 
L 302.36764 281.443531 
L 306.380225 279.931785 
L 310.392809 279.302232 
L 314.405393 278.280089 
L 318.417978 280.59768 
L 322.430562 280.687951 
L 326.443146 280.264 
L 330.45573 277.915635 
L 334.468315 278.968259 
L 338.480899 278.850291 
L 342.493483 277.999751 
L 346.506067 277.629728 
L 350.518652 278.979836 
L 354.531236 279.822023 
L 358.54382 278.924735 
L 362.556404 278.914184 
L 366.568989 277.858189 
L 370.581573 278.129295 
L 374.594157 277.443763 
L 378.606742 278.21561 
L 382.619326 278.577866 
L 386.63191 277.207242 
L 390.644494 276.993141 
L 394.657079 275.959714 
L 398.669663 273.178019 
L 402.682247 240.028482 
L 406.694831 72.475526 
L 410.707416 59.396342 
" style="fill:none;stroke:#0000ff;stroke-dasharray:1.5,2.475;stroke-dashoffset:0;stroke-width:1.5;"/>
    <defs>
     <path d="M 0 1.5 
C 0.397805 1.5 0.77937 1.341951 1.06066 1.06066 
C 1.341951 0.77937 1.5 0.397805 1.5 0 
C 1.5 -0.397805 1.341951 -0.77937 1.06066 -1.06066 
C 0.77937 -1.341951 0.397805 -1.5 0 -1.5 
C -0.397805 -1.5 -0.77937 -1.341951 -1.06066 -1.06066 
C -1.341951 -0.77937 -1.5 -0.397805 -1.5 0 
C -1.5 0.397805 -1.341951 0.77937 -1.06066 1.06066 
C -0.77937 1.341951 -0.397805 1.5 0 1.5 
z
" id="m3c6ad57763" style="stroke:#0000ff;"/>
    </defs>
    <g clip-path="url(#pa8f35f3781)">
     <use style="fill:#0000ff;stroke:#0000ff;" x="61.612584" xlink:href="#m3c6ad57763" y="61.357098"/>
     <use style="fill:#0000ff;stroke:#0000ff;" x="65.625169" xlink:href="#m3c6ad57763" y="175.162755"/>
     <use style="fill:#0000ff;stroke:#0000ff;" x="69.637753" xlink:href="#m3c6ad57763" y="226.055234"/>
     <use style="fill:#0000ff;stroke:#0000ff;" x="73.650337" xlink:href="#m3c6ad57763" y="246.192556"/>
     <use style="fill:#0000ff;stroke:#0000ff;" x="77.662921" xlink:href="#m3c6ad57763" y="253.724763"/>
     <use style="fill:#0000ff;stroke:#0000ff;" x="81.675506" xlink:href="#m3c6ad57763" y="266.855238"/>
     <use style="fill:#0000ff;stroke:#0000ff;" x="85.68809" xlink:href="#m3c6ad57763" y="271.754052"/>
     <use style="fill:#0000ff;stroke:#0000ff;" x="89.700674" xlink:href="#m3c6ad57763" y="275.98067"/>
     <use style="fill:#0000ff;stroke:#0000ff;" x="93.713258" xlink:href="#m3c6ad57763" y="278.290933"/>
     <use style="fill:#0000ff;stroke:#0000ff;" x="97.725843" xlink:href="#m3c6ad57763" y="283.350653"/>
     <use style="fill:#0000ff;stroke:#0000ff;" x="101.738427" xlink:href="#m3c6ad57763" y="286.643493"/>
     <use style="fill:#0000ff;stroke:#0000ff;" x="105.751011" xlink:href="#m3c6ad57763" y="288.760172"/>
     <use style="fill:#0000ff;stroke:#0000ff;" x="109.763596" xlink:href="#m3c6ad57763" y="291.311794"/>
     <use style="fill:#0000ff;stroke:#0000ff;" x="113.77618" xlink:href="#m3c6ad57763" y="292.076166"/>
     <use style="fill:#0000ff;stroke:#0000ff;" x="117.788764" xlink:href="#m3c6ad57763" y="293.365459"/>
     <use style="fill:#0000ff;stroke:#0000ff;" x="121.801348" xlink:href="#m3c6ad57763" y="293.962185"/>
     <use style="fill:#0000ff;stroke:#0000ff;" x="125.813933" xlink:href="#m3c6ad57763" y="294.074438"/>
     <use style="fill:#0000ff;stroke:#0000ff;" x="129.826517" xlink:href="#m3c6ad57763" y="293.731232"/>
     <use style="fill:#0000ff;stroke:#0000ff;" x="133.839101" xlink:href="#m3c6ad57763" y="294.746488"/>
     <use style="fill:#0000ff;stroke:#0000ff;" x="137.851685" xlink:href="#m3c6ad57763" y="294.308029"/>
     <use style="fill:#0000ff;stroke:#0000ff;" x="141.86427" xlink:href="#m3c6ad57763" y="295.488"/>
     <use style="fill:#0000ff;stroke:#0000ff;" x="145.876854" xlink:href="#m3c6ad57763" y="294.92278"/>
     <use style="fill:#0000ff;stroke:#0000ff;" x="149.889438" xlink:href="#m3c6ad57763" y="294.733006"/>
     <use style="fill:#0000ff;stroke:#0000ff;" x="153.902022" xlink:href="#m3c6ad57763" y="293.677451"/>
     <use style="fill:#0000ff;stroke:#0000ff;" x="157.914607" xlink:href="#m3c6ad57763" y="294.824449"/>
     <use style="fill:#0000ff;stroke:#0000ff;" x="161.927191" xlink:href="#m3c6ad57763" y="294.698422"/>
     <use style="fill:#0000ff;stroke:#0000ff;" x="165.939775" xlink:href="#m3c6ad57763" y="294.930694"/>
     <use style="fill:#0000ff;stroke:#0000ff;" x="169.95236" xlink:href="#m3c6ad57763" y="295.223781"/>
     <use style="fill:#0000ff;stroke:#0000ff;" x="173.964944" xlink:href="#m3c6ad57763" y="294.774771"/>
     <use style="fill:#0000ff;stroke:#0000ff;" x="177.977528" xlink:href="#m3c6ad57763" y="294.662225"/>
     <use style="fill:#0000ff;stroke:#0000ff;" x="181.990112" xlink:href="#m3c6ad57763" y="291.169793"/>
     <use style="fill:#0000ff;stroke:#0000ff;" x="186.002697" xlink:href="#m3c6ad57763" y="293.01859"/>
     <use style="fill:#0000ff;stroke:#0000ff;" x="190.015281" xlink:href="#m3c6ad57763" y="290.729575"/>
     <use style="fill:#0000ff;stroke:#0000ff;" x="194.027865" xlink:href="#m3c6ad57763" y="292.600793"/>
     <use style="fill:#0000ff;stroke:#0000ff;" x="198.040449" xlink:href="#m3c6ad57763" y="291.733986"/>
     <use style="fill:#0000ff;stroke:#0000ff;" x="202.053034" xlink:href="#m3c6ad57763" y="290.982949"/>
     <use style="fill:#0000ff;stroke:#0000ff;" x="206.065618" xlink:href="#m3c6ad57763" y="290.946606"/>
     <use style="fill:#0000ff;stroke:#0000ff;" x="210.078202" xlink:href="#m3c6ad57763" y="290.730161"/>
     <use style="fill:#0000ff;stroke:#0000ff;" x="214.090787" xlink:href="#m3c6ad57763" y="289.337262"/>
     <use style="fill:#0000ff;stroke:#0000ff;" x="218.103371" xlink:href="#m3c6ad57763" y="289.238345"/>
     <use style="fill:#0000ff;stroke:#0000ff;" x="222.115955" xlink:href="#m3c6ad57763" y="289.165219"/>
     <use style="fill:#0000ff;stroke:#0000ff;" x="226.128539" xlink:href="#m3c6ad57763" y="289.308686"/>
     <use style="fill:#0000ff;stroke:#0000ff;" x="230.141124" xlink:href="#m3c6ad57763" y="287.703005"/>
     <use style="fill:#0000ff;stroke:#0000ff;" x="234.153708" xlink:href="#m3c6ad57763" y="287.160353"/>
     <use style="fill:#0000ff;stroke:#0000ff;" x="238.166292" xlink:href="#m3c6ad57763" y="286.876937"/>
     <use style="fill:#0000ff;stroke:#0000ff;" x="242.178876" xlink:href="#m3c6ad57763" y="286.434521"/>
     <use style="fill:#0000ff;stroke:#0000ff;" x="246.191461" xlink:href="#m3c6ad57763" y="285.099947"/>
     <use style="fill:#0000ff;stroke:#0000ff;" x="250.204045" xlink:href="#m3c6ad57763" y="285.785332"/>
     <use style="fill:#0000ff;stroke:#0000ff;" x="254.216629" xlink:href="#m3c6ad57763" y="285.308332"/>
     <use style="fill:#0000ff;stroke:#0000ff;" x="258.229213" xlink:href="#m3c6ad57763" y="286.198439"/>
     <use style="fill:#0000ff;stroke:#0000ff;" x="262.241798" xlink:href="#m3c6ad57763" y="285.346433"/>
     <use style="fill:#0000ff;stroke:#0000ff;" x="266.254382" xlink:href="#m3c6ad57763" y="284.540735"/>
     <use style="fill:#0000ff;stroke:#0000ff;" x="270.266966" xlink:href="#m3c6ad57763" y="283.914993"/>
     <use style="fill:#0000ff;stroke:#0000ff;" x="274.279551" xlink:href="#m3c6ad57763" y="284.309489"/>
     <use style="fill:#0000ff;stroke:#0000ff;" x="278.292135" xlink:href="#m3c6ad57763" y="283.333507"/>
     <use style="fill:#0000ff;stroke:#0000ff;" x="282.304719" xlink:href="#m3c6ad57763" y="284.23695"/>
     <use style="fill:#0000ff;stroke:#0000ff;" x="286.317303" xlink:href="#m3c6ad57763" y="284.327954"/>
     <use style="fill:#0000ff;stroke:#0000ff;" x="290.329888" xlink:href="#m3c6ad57763" y="283.029135"/>
     <use style="fill:#0000ff;stroke:#0000ff;" x="294.342472" xlink:href="#m3c6ad57763" y="284.315644"/>
     <use style="fill:#0000ff;stroke:#0000ff;" x="298.355056" xlink:href="#m3c6ad57763" y="281.771057"/>
     <use style="fill:#0000ff;stroke:#0000ff;" x="302.36764" xlink:href="#m3c6ad57763" y="281.443531"/>
     <use style="fill:#0000ff;stroke:#0000ff;" x="306.380225" xlink:href="#m3c6ad57763" y="279.931785"/>
     <use style="fill:#0000ff;stroke:#0000ff;" x="310.392809" xlink:href="#m3c6ad57763" y="279.302232"/>
     <use style="fill:#0000ff;stroke:#0000ff;" x="314.405393" xlink:href="#m3c6ad57763" y="278.280089"/>
     <use style="fill:#0000ff;stroke:#0000ff;" x="318.417978" xlink:href="#m3c6ad57763" y="280.59768"/>
     <use style="fill:#0000ff;stroke:#0000ff;" x="322.430562" xlink:href="#m3c6ad57763" y="280.687951"/>
     <use style="fill:#0000ff;stroke:#0000ff;" x="326.443146" xlink:href="#m3c6ad57763" y="280.264"/>
     <use style="fill:#0000ff;stroke:#0000ff;" x="330.45573" xlink:href="#m3c6ad57763" y="277.915635"/>
     <use style="fill:#0000ff;stroke:#0000ff;" x="334.468315" xlink:href="#m3c6ad57763" y="278.968259"/>
     <use style="fill:#0000ff;stroke:#0000ff;" x="338.480899" xlink:href="#m3c6ad57763" y="278.850291"/>
     <use style="fill:#0000ff;stroke:#0000ff;" x="342.493483" xlink:href="#m3c6ad57763" y="277.999751"/>
     <use style="fill:#0000ff;stroke:#0000ff;" x="346.506067" xlink:href="#m3c6ad57763" y="277.629728"/>
     <use style="fill:#0000ff;stroke:#0000ff;" x="350.518652" xlink:href="#m3c6ad57763" y="278.979836"/>
     <use style="fill:#0000ff;stroke:#0000ff;" x="354.531236" xlink:href="#m3c6ad57763" y="279.822023"/>
     <use style="fill:#0000ff;stroke:#0000ff;" x="358.54382" xlink:href="#m3c6ad57763" y="278.924735"/>
     <use style="fill:#0000ff;stroke:#0000ff;" x="362.556404" xlink:href="#m3c6ad57763" y="278.914184"/>
     <use style="fill:#0000ff;stroke:#0000ff;" x="366.568989" xlink:href="#m3c6ad57763" y="277.858189"/>
     <use style="fill:#0000ff;stroke:#0000ff;" x="370.581573" xlink:href="#m3c6ad57763" y="278.129295"/>
     <use style="fill:#0000ff;stroke:#0000ff;" x="374.594157" xlink:href="#m3c6ad57763" y="277.443763"/>
     <use style="fill:#0000ff;stroke:#0000ff;" x="378.606742" xlink:href="#m3c6ad57763" y="278.21561"/>
     <use style="fill:#0000ff;stroke:#0000ff;" x="382.619326" xlink:href="#m3c6ad57763" y="278.577866"/>
     <use style="fill:#0000ff;stroke:#0000ff;" x="386.63191" xlink:href="#m3c6ad57763" y="277.207242"/>
     <use style="fill:#0000ff;stroke:#0000ff;" x="390.644494" xlink:href="#m3c6ad57763" y="276.993141"/>
     <use style="fill:#0000ff;stroke:#0000ff;" x="394.657079" xlink:href="#m3c6ad57763" y="275.959714"/>
     <use style="fill:#0000ff;stroke:#0000ff;" x="398.669663" xlink:href="#m3c6ad57763" y="273.178019"/>
     <use style="fill:#0000ff;stroke:#0000ff;" x="402.682247" xlink:href="#m3c6ad57763" y="240.028482"/>
     <use style="fill:#0000ff;stroke:#0000ff;" x="406.694831" xlink:href="#m3c6ad57763" y="72.475526"/>
     <use style="fill:#0000ff;stroke:#0000ff;" x="410.707416" xlink:href="#m3c6ad57763" y="59.396342"/>
    </g>
   </g>
   <g id="line2d_60">
    <path clip-path="url(#pa8f35f3781)" d="M 61.612584 53.568 
L 65.625169 181.326242 
L 69.637753 224.087443 
L 73.650337 245.52754 
L 77.662921 258.616396 
L 81.675506 265.961027 
L 85.68809 273.33189 
L 89.700674 276.8592 
L 93.713258 280.305325 
L 97.725843 284.448413 
L 101.738427 285.362553 
L 105.751011 288.070097 
L 109.763596 288.420483 
L 113.77618 289.834485 
L 117.788764 291.688997 
L 121.801348 291.667016 
L 125.813933 291.998791 
L 129.826517 292.176988 
L 133.839101 293.768894 
L 137.851685 294.601117 
L 141.86427 294.581333 
L 145.876854 294.178924 
L 149.889438 295.197404 
L 153.902022 294.536784 
L 157.914607 294.618555 
L 161.927191 295.276244 
L 165.939775 295.011146 
L 169.95236 293.932291 
L 173.964944 294.24311 
L 177.977528 294.732127 
L 181.990112 293.184624 
L 186.002697 293.172314 
L 190.015281 291.756847 
L 194.027865 292.359875 
L 198.040449 292.848892 
L 202.053034 292.903699 
L 206.065618 290.999362 
L 210.078202 291.392686 
L 214.090787 290.889015 
L 218.103371 291.458044 
L 222.115955 290.062507 
L 226.128539 285.575188 
L 230.141124 287.023628 
L 234.153708 288.828168 
L 238.166292 287.201092 
L 242.178876 287.634569 
L 246.191461 287.142035 
L 250.204045 288.563217 
L 254.216629 286.560402 
L 258.229213 286.947718 
L 262.241798 286.233463 
L 266.254382 285.306427 
L 270.266966 284.685814 
L 274.279551 284.918525 
L 278.292135 283.644327 
L 282.304719 282.86911 
L 286.317303 283.806697 
L 290.329888 283.534419 
L 294.342472 283.856522 
L 298.355056 284.597301 
L 302.36764 282.597124 
L 306.380225 283.007887 
L 310.392809 281.846673 
L 314.405393 281.713318 
L 318.417978 282.360016 
L 322.430562 281.933427 
L 326.443146 281.979442 
L 330.45573 280.643255 
L 334.468315 281.254929 
L 338.480899 281.197044 
L 342.493483 277.624305 
L 346.506067 278.212093 
L 350.518652 278.706971 
L 354.531236 278.924882 
L 358.54382 276.702838 
L 362.556404 277.296047 
L 366.568989 278.198171 
L 370.581573 279.960947 
L 374.594157 278.977638 
L 378.606742 277.716042 
L 382.619326 278.400548 
L 386.63191 275.961326 
L 390.644494 275.219667 
L 394.657079 273.814312 
L 398.669663 272.183132 
L 402.682247 240.167699 
L 406.694831 89.825292 
L 410.707416 59.99468 
" style="fill:none;stroke:#ff0000;stroke-dasharray:1.5,2.475;stroke-dashoffset:0;stroke-width:1.5;"/>
    <defs>
     <path d="M 0 1.5 
C 0.397805 1.5 0.77937 1.341951 1.06066 1.06066 
C 1.341951 0.77937 1.5 0.397805 1.5 0 
C 1.5 -0.397805 1.341951 -0.77937 1.06066 -1.06066 
C 0.77937 -1.341951 0.397805 -1.5 0 -1.5 
C -0.397805 -1.5 -0.77937 -1.341951 -1.06066 -1.06066 
C -1.341951 -0.77937 -1.5 -0.397805 -1.5 0 
C -1.5 0.397805 -1.341951 0.77937 -1.06066 1.06066 
C -0.77937 1.341951 -0.397805 1.5 0 1.5 
z
" id="m9736aafaba" style="stroke:#ff0000;"/>
    </defs>
    <g clip-path="url(#pa8f35f3781)">
     <use style="fill:#ff0000;stroke:#ff0000;" x="61.612584" xlink:href="#m9736aafaba" y="53.568"/>
     <use style="fill:#ff0000;stroke:#ff0000;" x="65.625169" xlink:href="#m9736aafaba" y="181.326242"/>
     <use style="fill:#ff0000;stroke:#ff0000;" x="69.637753" xlink:href="#m9736aafaba" y="224.087443"/>
     <use style="fill:#ff0000;stroke:#ff0000;" x="73.650337" xlink:href="#m9736aafaba" y="245.52754"/>
     <use style="fill:#ff0000;stroke:#ff0000;" x="77.662921" xlink:href="#m9736aafaba" y="258.616396"/>
     <use style="fill:#ff0000;stroke:#ff0000;" x="81.675506" xlink:href="#m9736aafaba" y="265.961027"/>
     <use style="fill:#ff0000;stroke:#ff0000;" x="85.68809" xlink:href="#m9736aafaba" y="273.33189"/>
     <use style="fill:#ff0000;stroke:#ff0000;" x="89.700674" xlink:href="#m9736aafaba" y="276.8592"/>
     <use style="fill:#ff0000;stroke:#ff0000;" x="93.713258" xlink:href="#m9736aafaba" y="280.305325"/>
     <use style="fill:#ff0000;stroke:#ff0000;" x="97.725843" xlink:href="#m9736aafaba" y="284.448413"/>
     <use style="fill:#ff0000;stroke:#ff0000;" x="101.738427" xlink:href="#m9736aafaba" y="285.362553"/>
     <use style="fill:#ff0000;stroke:#ff0000;" x="105.751011" xlink:href="#m9736aafaba" y="288.070097"/>
     <use style="fill:#ff0000;stroke:#ff0000;" x="109.763596" xlink:href="#m9736aafaba" y="288.420483"/>
     <use style="fill:#ff0000;stroke:#ff0000;" x="113.77618" xlink:href="#m9736aafaba" y="289.834485"/>
     <use style="fill:#ff0000;stroke:#ff0000;" x="117.788764" xlink:href="#m9736aafaba" y="291.688997"/>
     <use style="fill:#ff0000;stroke:#ff0000;" x="121.801348" xlink:href="#m9736aafaba" y="291.667016"/>
     <use style="fill:#ff0000;stroke:#ff0000;" x="125.813933" xlink:href="#m9736aafaba" y="291.998791"/>
     <use style="fill:#ff0000;stroke:#ff0000;" x="129.826517" xlink:href="#m9736aafaba" y="292.176988"/>
     <use style="fill:#ff0000;stroke:#ff0000;" x="133.839101" xlink:href="#m9736aafaba" y="293.768894"/>
     <use style="fill:#ff0000;stroke:#ff0000;" x="137.851685" xlink:href="#m9736aafaba" y="294.601117"/>
     <use style="fill:#ff0000;stroke:#ff0000;" x="141.86427" xlink:href="#m9736aafaba" y="294.581333"/>
     <use style="fill:#ff0000;stroke:#ff0000;" x="145.876854" xlink:href="#m9736aafaba" y="294.178924"/>
     <use style="fill:#ff0000;stroke:#ff0000;" x="149.889438" xlink:href="#m9736aafaba" y="295.197404"/>
     <use style="fill:#ff0000;stroke:#ff0000;" x="153.902022" xlink:href="#m9736aafaba" y="294.536784"/>
     <use style="fill:#ff0000;stroke:#ff0000;" x="157.914607" xlink:href="#m9736aafaba" y="294.618555"/>
     <use style="fill:#ff0000;stroke:#ff0000;" x="161.927191" xlink:href="#m9736aafaba" y="295.276244"/>
     <use style="fill:#ff0000;stroke:#ff0000;" x="165.939775" xlink:href="#m9736aafaba" y="295.011146"/>
     <use style="fill:#ff0000;stroke:#ff0000;" x="169.95236" xlink:href="#m9736aafaba" y="293.932291"/>
     <use style="fill:#ff0000;stroke:#ff0000;" x="173.964944" xlink:href="#m9736aafaba" y="294.24311"/>
     <use style="fill:#ff0000;stroke:#ff0000;" x="177.977528" xlink:href="#m9736aafaba" y="294.732127"/>
     <use style="fill:#ff0000;stroke:#ff0000;" x="181.990112" xlink:href="#m9736aafaba" y="293.184624"/>
     <use style="fill:#ff0000;stroke:#ff0000;" x="186.002697" xlink:href="#m9736aafaba" y="293.172314"/>
     <use style="fill:#ff0000;stroke:#ff0000;" x="190.015281" xlink:href="#m9736aafaba" y="291.756847"/>
     <use style="fill:#ff0000;stroke:#ff0000;" x="194.027865" xlink:href="#m9736aafaba" y="292.359875"/>
     <use style="fill:#ff0000;stroke:#ff0000;" x="198.040449" xlink:href="#m9736aafaba" y="292.848892"/>
     <use style="fill:#ff0000;stroke:#ff0000;" x="202.053034" xlink:href="#m9736aafaba" y="292.903699"/>
     <use style="fill:#ff0000;stroke:#ff0000;" x="206.065618" xlink:href="#m9736aafaba" y="290.999362"/>
     <use style="fill:#ff0000;stroke:#ff0000;" x="210.078202" xlink:href="#m9736aafaba" y="291.392686"/>
     <use style="fill:#ff0000;stroke:#ff0000;" x="214.090787" xlink:href="#m9736aafaba" y="290.889015"/>
     <use style="fill:#ff0000;stroke:#ff0000;" x="218.103371" xlink:href="#m9736aafaba" y="291.458044"/>
     <use style="fill:#ff0000;stroke:#ff0000;" x="222.115955" xlink:href="#m9736aafaba" y="290.062507"/>
     <use style="fill:#ff0000;stroke:#ff0000;" x="226.128539" xlink:href="#m9736aafaba" y="285.575188"/>
     <use style="fill:#ff0000;stroke:#ff0000;" x="230.141124" xlink:href="#m9736aafaba" y="287.023628"/>
     <use style="fill:#ff0000;stroke:#ff0000;" x="234.153708" xlink:href="#m9736aafaba" y="288.828168"/>
     <use style="fill:#ff0000;stroke:#ff0000;" x="238.166292" xlink:href="#m9736aafaba" y="287.201092"/>
     <use style="fill:#ff0000;stroke:#ff0000;" x="242.178876" xlink:href="#m9736aafaba" y="287.634569"/>
     <use style="fill:#ff0000;stroke:#ff0000;" x="246.191461" xlink:href="#m9736aafaba" y="287.142035"/>
     <use style="fill:#ff0000;stroke:#ff0000;" x="250.204045" xlink:href="#m9736aafaba" y="288.563217"/>
     <use style="fill:#ff0000;stroke:#ff0000;" x="254.216629" xlink:href="#m9736aafaba" y="286.560402"/>
     <use style="fill:#ff0000;stroke:#ff0000;" x="258.229213" xlink:href="#m9736aafaba" y="286.947718"/>
     <use style="fill:#ff0000;stroke:#ff0000;" x="262.241798" xlink:href="#m9736aafaba" y="286.233463"/>
     <use style="fill:#ff0000;stroke:#ff0000;" x="266.254382" xlink:href="#m9736aafaba" y="285.306427"/>
     <use style="fill:#ff0000;stroke:#ff0000;" x="270.266966" xlink:href="#m9736aafaba" y="284.685814"/>
     <use style="fill:#ff0000;stroke:#ff0000;" x="274.279551" xlink:href="#m9736aafaba" y="284.918525"/>
     <use style="fill:#ff0000;stroke:#ff0000;" x="278.292135" xlink:href="#m9736aafaba" y="283.644327"/>
     <use style="fill:#ff0000;stroke:#ff0000;" x="282.304719" xlink:href="#m9736aafaba" y="282.86911"/>
     <use style="fill:#ff0000;stroke:#ff0000;" x="286.317303" xlink:href="#m9736aafaba" y="283.806697"/>
     <use style="fill:#ff0000;stroke:#ff0000;" x="290.329888" xlink:href="#m9736aafaba" y="283.534419"/>
     <use style="fill:#ff0000;stroke:#ff0000;" x="294.342472" xlink:href="#m9736aafaba" y="283.856522"/>
     <use style="fill:#ff0000;stroke:#ff0000;" x="298.355056" xlink:href="#m9736aafaba" y="284.597301"/>
     <use style="fill:#ff0000;stroke:#ff0000;" x="302.36764" xlink:href="#m9736aafaba" y="282.597124"/>
     <use style="fill:#ff0000;stroke:#ff0000;" x="306.380225" xlink:href="#m9736aafaba" y="283.007887"/>
     <use style="fill:#ff0000;stroke:#ff0000;" x="310.392809" xlink:href="#m9736aafaba" y="281.846673"/>
     <use style="fill:#ff0000;stroke:#ff0000;" x="314.405393" xlink:href="#m9736aafaba" y="281.713318"/>
     <use style="fill:#ff0000;stroke:#ff0000;" x="318.417978" xlink:href="#m9736aafaba" y="282.360016"/>
     <use style="fill:#ff0000;stroke:#ff0000;" x="322.430562" xlink:href="#m9736aafaba" y="281.933427"/>
     <use style="fill:#ff0000;stroke:#ff0000;" x="326.443146" xlink:href="#m9736aafaba" y="281.979442"/>
     <use style="fill:#ff0000;stroke:#ff0000;" x="330.45573" xlink:href="#m9736aafaba" y="280.643255"/>
     <use style="fill:#ff0000;stroke:#ff0000;" x="334.468315" xlink:href="#m9736aafaba" y="281.254929"/>
     <use style="fill:#ff0000;stroke:#ff0000;" x="338.480899" xlink:href="#m9736aafaba" y="281.197044"/>
     <use style="fill:#ff0000;stroke:#ff0000;" x="342.493483" xlink:href="#m9736aafaba" y="277.624305"/>
     <use style="fill:#ff0000;stroke:#ff0000;" x="346.506067" xlink:href="#m9736aafaba" y="278.212093"/>
     <use style="fill:#ff0000;stroke:#ff0000;" x="350.518652" xlink:href="#m9736aafaba" y="278.706971"/>
     <use style="fill:#ff0000;stroke:#ff0000;" x="354.531236" xlink:href="#m9736aafaba" y="278.924882"/>
     <use style="fill:#ff0000;stroke:#ff0000;" x="358.54382" xlink:href="#m9736aafaba" y="276.702838"/>
     <use style="fill:#ff0000;stroke:#ff0000;" x="362.556404" xlink:href="#m9736aafaba" y="277.296047"/>
     <use style="fill:#ff0000;stroke:#ff0000;" x="366.568989" xlink:href="#m9736aafaba" y="278.198171"/>
     <use style="fill:#ff0000;stroke:#ff0000;" x="370.581573" xlink:href="#m9736aafaba" y="279.960947"/>
     <use style="fill:#ff0000;stroke:#ff0000;" x="374.594157" xlink:href="#m9736aafaba" y="278.977638"/>
     <use style="fill:#ff0000;stroke:#ff0000;" x="378.606742" xlink:href="#m9736aafaba" y="277.716042"/>
     <use style="fill:#ff0000;stroke:#ff0000;" x="382.619326" xlink:href="#m9736aafaba" y="278.400548"/>
     <use style="fill:#ff0000;stroke:#ff0000;" x="386.63191" xlink:href="#m9736aafaba" y="275.961326"/>
     <use style="fill:#ff0000;stroke:#ff0000;" x="390.644494" xlink:href="#m9736aafaba" y="275.219667"/>
     <use style="fill:#ff0000;stroke:#ff0000;" x="394.657079" xlink:href="#m9736aafaba" y="273.814312"/>
     <use style="fill:#ff0000;stroke:#ff0000;" x="398.669663" xlink:href="#m9736aafaba" y="272.183132"/>
     <use style="fill:#ff0000;stroke:#ff0000;" x="402.682247" xlink:href="#m9736aafaba" y="240.167699"/>
     <use style="fill:#ff0000;stroke:#ff0000;" x="406.694831" xlink:href="#m9736aafaba" y="89.825292"/>
     <use style="fill:#ff0000;stroke:#ff0000;" x="410.707416" xlink:href="#m9736aafaba" y="59.99468"/>
    </g>
   </g>
   <g id="line2d_61">
    <path clip-path="url(#pa8f35f3781)" d="M 61.612584 57.462549 
L 65.625169 178.244498 
L 69.637753 225.071338 
L 73.650337 245.860048 
L 77.662921 256.17058 
L 81.675506 266.408133 
L 85.68809 272.542971 
L 89.700674 276.419935 
L 93.713258 279.298129 
L 97.725843 283.899533 
L 101.738427 286.003023 
L 105.751011 288.415135 
L 109.763596 289.866139 
L 113.77618 290.955326 
L 117.788764 292.527228 
L 121.801348 292.814601 
L 125.813933 293.036615 
L 129.826517 292.95411 
L 133.839101 294.257691 
L 137.851685 294.454573 
L 141.86427 295.034667 
L 145.876854 294.550852 
L 149.889438 294.965205 
L 153.902022 294.107117 
L 157.914607 294.721502 
L 161.927191 294.987333 
L 165.939775 294.97092 
L 169.95236 294.578036 
L 173.964944 294.508941 
L 177.977528 294.697176 
L 181.990112 292.177208 
L 186.002697 293.095452 
L 190.015281 291.243211 
L 194.027865 292.480334 
L 198.040449 292.291439 
L 202.053034 291.943324 
L 206.065618 290.972984 
L 210.078202 291.061423 
L 214.090787 290.113138 
L 218.103371 290.348194 
L 222.115955 289.613863 
L 226.128539 287.441937 
L 230.141124 287.363316 
L 234.153708 287.994261 
L 238.166292 287.039015 
L 242.178876 287.034545 
L 246.191461 286.120991 
L 250.204045 287.174275 
L 254.216629 285.934367 
L 258.229213 286.573079 
L 262.241798 285.789948 
L 266.254382 284.923581 
L 270.266966 284.300403 
L 274.279551 284.614007 
L 278.292135 283.488917 
L 282.304719 283.55303 
L 286.317303 284.067325 
L 290.329888 283.281777 
L 294.342472 284.086083 
L 298.355056 283.184179 
L 302.36764 282.020328 
L 306.380225 281.469836 
L 310.392809 280.574453 
L 314.405393 279.996704 
L 318.417978 281.478848 
L 322.430562 281.310689 
L 326.443146 281.121721 
L 330.45573 279.279445 
L 334.468315 280.111594 
L 338.480899 280.023668 
L 342.493483 277.812028 
L 346.506067 277.92091 
L 350.518652 278.843404 
L 354.531236 279.373453 
L 358.54382 277.813787 
L 362.556404 278.105116 
L 366.568989 278.02818 
L 370.581573 279.045121 
L 374.594157 278.210701 
L 378.606742 277.965826 
L 382.619326 278.489207 
L 386.63191 276.584284 
L 390.644494 276.106404 
L 394.657079 274.887013 
L 398.669663 272.680576 
L 402.682247 240.098091 
L 406.694831 81.150409 
L 410.707416 59.695511 
" style="fill:none;stroke:#008000;stroke-dasharray:1.5,2.475;stroke-dashoffset:0;stroke-width:1.5;"/>
    <defs>
     <path d="M 0 1.5 
C 0.397805 1.5 0.77937 1.341951 1.06066 1.06066 
C 1.341951 0.77937 1.5 0.397805 1.5 0 
C 1.5 -0.397805 1.341951 -0.77937 1.06066 -1.06066 
C 0.77937 -1.341951 0.397805 -1.5 0 -1.5 
C -0.397805 -1.5 -0.77937 -1.341951 -1.06066 -1.06066 
C -1.341951 -0.77937 -1.5 -0.397805 -1.5 0 
C -1.5 0.397805 -1.341951 0.77937 -1.06066 1.06066 
C -0.77937 1.341951 -0.397805 1.5 0 1.5 
z
" id="m2c71985461" style="stroke:#008000;"/>
    </defs>
    <g clip-path="url(#pa8f35f3781)">
     <use style="fill:#008000;stroke:#008000;" x="61.612584" xlink:href="#m2c71985461" y="57.462549"/>
     <use style="fill:#008000;stroke:#008000;" x="65.625169" xlink:href="#m2c71985461" y="178.244498"/>
     <use style="fill:#008000;stroke:#008000;" x="69.637753" xlink:href="#m2c71985461" y="225.071338"/>
     <use style="fill:#008000;stroke:#008000;" x="73.650337" xlink:href="#m2c71985461" y="245.860048"/>
     <use style="fill:#008000;stroke:#008000;" x="77.662921" xlink:href="#m2c71985461" y="256.17058"/>
     <use style="fill:#008000;stroke:#008000;" x="81.675506" xlink:href="#m2c71985461" y="266.408133"/>
     <use style="fill:#008000;stroke:#008000;" x="85.68809" xlink:href="#m2c71985461" y="272.542971"/>
     <use style="fill:#008000;stroke:#008000;" x="89.700674" xlink:href="#m2c71985461" y="276.419935"/>
     <use style="fill:#008000;stroke:#008000;" x="93.713258" xlink:href="#m2c71985461" y="279.298129"/>
     <use style="fill:#008000;stroke:#008000;" x="97.725843" xlink:href="#m2c71985461" y="283.899533"/>
     <use style="fill:#008000;stroke:#008000;" x="101.738427" xlink:href="#m2c71985461" y="286.003023"/>
     <use style="fill:#008000;stroke:#008000;" x="105.751011" xlink:href="#m2c71985461" y="288.415135"/>
     <use style="fill:#008000;stroke:#008000;" x="109.763596" xlink:href="#m2c71985461" y="289.866139"/>
     <use style="fill:#008000;stroke:#008000;" x="113.77618" xlink:href="#m2c71985461" y="290.955326"/>
     <use style="fill:#008000;stroke:#008000;" x="117.788764" xlink:href="#m2c71985461" y="292.527228"/>
     <use style="fill:#008000;stroke:#008000;" x="121.801348" xlink:href="#m2c71985461" y="292.814601"/>
     <use style="fill:#008000;stroke:#008000;" x="125.813933" xlink:href="#m2c71985461" y="293.036615"/>
     <use style="fill:#008000;stroke:#008000;" x="129.826517" xlink:href="#m2c71985461" y="292.95411"/>
     <use style="fill:#008000;stroke:#008000;" x="133.839101" xlink:href="#m2c71985461" y="294.257691"/>
     <use style="fill:#008000;stroke:#008000;" x="137.851685" xlink:href="#m2c71985461" y="294.454573"/>
     <use style="fill:#008000;stroke:#008000;" x="141.86427" xlink:href="#m2c71985461" y="295.034667"/>
     <use style="fill:#008000;stroke:#008000;" x="145.876854" xlink:href="#m2c71985461" y="294.550852"/>
     <use style="fill:#008000;stroke:#008000;" x="149.889438" xlink:href="#m2c71985461" y="294.965205"/>
     <use style="fill:#008000;stroke:#008000;" x="153.902022" xlink:href="#m2c71985461" y="294.107117"/>
     <use style="fill:#008000;stroke:#008000;" x="157.914607" xlink:href="#m2c71985461" y="294.721502"/>
     <use style="fill:#008000;stroke:#008000;" x="161.927191" xlink:href="#m2c71985461" y="294.987333"/>
     <use style="fill:#008000;stroke:#008000;" x="165.939775" xlink:href="#m2c71985461" y="294.97092"/>
     <use style="fill:#008000;stroke:#008000;" x="169.95236" xlink:href="#m2c71985461" y="294.578036"/>
     <use style="fill:#008000;stroke:#008000;" x="173.964944" xlink:href="#m2c71985461" y="294.508941"/>
     <use style="fill:#008000;stroke:#008000;" x="177.977528" xlink:href="#m2c71985461" y="294.697176"/>
     <use style="fill:#008000;stroke:#008000;" x="181.990112" xlink:href="#m2c71985461" y="292.177208"/>
     <use style="fill:#008000;stroke:#008000;" x="186.002697" xlink:href="#m2c71985461" y="293.095452"/>
     <use style="fill:#008000;stroke:#008000;" x="190.015281" xlink:href="#m2c71985461" y="291.243211"/>
     <use style="fill:#008000;stroke:#008000;" x="194.027865" xlink:href="#m2c71985461" y="292.480334"/>
     <use style="fill:#008000;stroke:#008000;" x="198.040449" xlink:href="#m2c71985461" y="292.291439"/>
     <use style="fill:#008000;stroke:#008000;" x="202.053034" xlink:href="#m2c71985461" y="291.943324"/>
     <use style="fill:#008000;stroke:#008000;" x="206.065618" xlink:href="#m2c71985461" y="290.972984"/>
     <use style="fill:#008000;stroke:#008000;" x="210.078202" xlink:href="#m2c71985461" y="291.061423"/>
     <use style="fill:#008000;stroke:#008000;" x="214.090787" xlink:href="#m2c71985461" y="290.113138"/>
     <use style="fill:#008000;stroke:#008000;" x="218.103371" xlink:href="#m2c71985461" y="290.348194"/>
     <use style="fill:#008000;stroke:#008000;" x="222.115955" xlink:href="#m2c71985461" y="289.613863"/>
     <use style="fill:#008000;stroke:#008000;" x="226.128539" xlink:href="#m2c71985461" y="287.441937"/>
     <use style="fill:#008000;stroke:#008000;" x="230.141124" xlink:href="#m2c71985461" y="287.363316"/>
     <use style="fill:#008000;stroke:#008000;" x="234.153708" xlink:href="#m2c71985461" y="287.994261"/>
     <use style="fill:#008000;stroke:#008000;" x="238.166292" xlink:href="#m2c71985461" y="287.039015"/>
     <use style="fill:#008000;stroke:#008000;" x="242.178876" xlink:href="#m2c71985461" y="287.034545"/>
     <use style="fill:#008000;stroke:#008000;" x="246.191461" xlink:href="#m2c71985461" y="286.120991"/>
     <use style="fill:#008000;stroke:#008000;" x="250.204045" xlink:href="#m2c71985461" y="287.174275"/>
     <use style="fill:#008000;stroke:#008000;" x="254.216629" xlink:href="#m2c71985461" y="285.934367"/>
     <use style="fill:#008000;stroke:#008000;" x="258.229213" xlink:href="#m2c71985461" y="286.573079"/>
     <use style="fill:#008000;stroke:#008000;" x="262.241798" xlink:href="#m2c71985461" y="285.789948"/>
     <use style="fill:#008000;stroke:#008000;" x="266.254382" xlink:href="#m2c71985461" y="284.923581"/>
     <use style="fill:#008000;stroke:#008000;" x="270.266966" xlink:href="#m2c71985461" y="284.300403"/>
     <use style="fill:#008000;stroke:#008000;" x="274.279551" xlink:href="#m2c71985461" y="284.614007"/>
     <use style="fill:#008000;stroke:#008000;" x="278.292135" xlink:href="#m2c71985461" y="283.488917"/>
     <use style="fill:#008000;stroke:#008000;" x="282.304719" xlink:href="#m2c71985461" y="283.55303"/>
     <use style="fill:#008000;stroke:#008000;" x="286.317303" xlink:href="#m2c71985461" y="284.067325"/>
     <use style="fill:#008000;stroke:#008000;" x="290.329888" xlink:href="#m2c71985461" y="283.281777"/>
     <use style="fill:#008000;stroke:#008000;" x="294.342472" xlink:href="#m2c71985461" y="284.086083"/>
     <use style="fill:#008000;stroke:#008000;" x="298.355056" xlink:href="#m2c71985461" y="283.184179"/>
     <use style="fill:#008000;stroke:#008000;" x="302.36764" xlink:href="#m2c71985461" y="282.020328"/>
     <use style="fill:#008000;stroke:#008000;" x="306.380225" xlink:href="#m2c71985461" y="281.469836"/>
     <use style="fill:#008000;stroke:#008000;" x="310.392809" xlink:href="#m2c71985461" y="280.574453"/>
     <use style="fill:#008000;stroke:#008000;" x="314.405393" xlink:href="#m2c71985461" y="279.996704"/>
     <use style="fill:#008000;stroke:#008000;" x="318.417978" xlink:href="#m2c71985461" y="281.478848"/>
     <use style="fill:#008000;stroke:#008000;" x="322.430562" xlink:href="#m2c71985461" y="281.310689"/>
     <use style="fill:#008000;stroke:#008000;" x="326.443146" xlink:href="#m2c71985461" y="281.121721"/>
     <use style="fill:#008000;stroke:#008000;" x="330.45573" xlink:href="#m2c71985461" y="279.279445"/>
     <use style="fill:#008000;stroke:#008000;" x="334.468315" xlink:href="#m2c71985461" y="280.111594"/>
     <use style="fill:#008000;stroke:#008000;" x="338.480899" xlink:href="#m2c71985461" y="280.023668"/>
     <use style="fill:#008000;stroke:#008000;" x="342.493483" xlink:href="#m2c71985461" y="277.812028"/>
     <use style="fill:#008000;stroke:#008000;" x="346.506067" xlink:href="#m2c71985461" y="277.92091"/>
     <use style="fill:#008000;stroke:#008000;" x="350.518652" xlink:href="#m2c71985461" y="278.843404"/>
     <use style="fill:#008000;stroke:#008000;" x="354.531236" xlink:href="#m2c71985461" y="279.373453"/>
     <use style="fill:#008000;stroke:#008000;" x="358.54382" xlink:href="#m2c71985461" y="277.813787"/>
     <use style="fill:#008000;stroke:#008000;" x="362.556404" xlink:href="#m2c71985461" y="278.105116"/>
     <use style="fill:#008000;stroke:#008000;" x="366.568989" xlink:href="#m2c71985461" y="278.02818"/>
     <use style="fill:#008000;stroke:#008000;" x="370.581573" xlink:href="#m2c71985461" y="279.045121"/>
     <use style="fill:#008000;stroke:#008000;" x="374.594157" xlink:href="#m2c71985461" y="278.210701"/>
     <use style="fill:#008000;stroke:#008000;" x="378.606742" xlink:href="#m2c71985461" y="277.965826"/>
     <use style="fill:#008000;stroke:#008000;" x="382.619326" xlink:href="#m2c71985461" y="278.489207"/>
     <use style="fill:#008000;stroke:#008000;" x="386.63191" xlink:href="#m2c71985461" y="276.584284"/>
     <use style="fill:#008000;stroke:#008000;" x="390.644494" xlink:href="#m2c71985461" y="276.106404"/>
     <use style="fill:#008000;stroke:#008000;" x="394.657079" xlink:href="#m2c71985461" y="274.887013"/>
     <use style="fill:#008000;stroke:#008000;" x="398.669663" xlink:href="#m2c71985461" y="272.680576"/>
     <use style="fill:#008000;stroke:#008000;" x="402.682247" xlink:href="#m2c71985461" y="240.098091"/>
     <use style="fill:#008000;stroke:#008000;" x="406.694831" xlink:href="#m2c71985461" y="81.150409"/>
     <use style="fill:#008000;stroke:#008000;" x="410.707416" xlink:href="#m2c71985461" y="59.695511"/>
    </g>
   </g>
   <g id="patch_3">
    <path d="M 57.6 307.584 
L 57.6 41.472 
" style="fill:none;stroke:#000000;stroke-linecap:square;stroke-linejoin:miter;stroke-width:0.8;"/>
   </g>
   <g id="patch_4">
    <path d="M 414.72 307.584 
L 414.72 41.472 
" style="fill:none;stroke:#000000;stroke-linecap:square;stroke-linejoin:miter;stroke-width:0.8;"/>
   </g>
   <g id="patch_5">
    <path d="M 57.6 307.584 
L 414.72 307.584 
" style="fill:none;stroke:#000000;stroke-linecap:square;stroke-linejoin:miter;stroke-width:0.8;"/>
   </g>
   <g id="patch_6">
    <path d="M 57.6 41.472 
L 414.72 41.472 
" style="fill:none;stroke:#000000;stroke-linecap:square;stroke-linejoin:miter;stroke-width:0.8;"/>
   </g>
   <g id="text_32">
    <!-- radix sort 10 on webbase-1M -->
    <g transform="translate(148.767188 35.472)scale(0.12 -0.12)">
     <defs>
      <path d="M 54.890625 54.6875 
L 35.109375 28.078125 
L 55.90625 0 
L 45.3125 0 
L 29.390625 21.484375 
L 13.484375 0 
L 2.875 0 
L 24.125 28.609375 
L 4.6875 54.6875 
L 15.28125 54.6875 
L 29.78125 35.203125 
L 44.28125 54.6875 
z
" id="DejaVuSans-120"/>
      <path d="M 4.203125 54.6875 
L 13.1875 54.6875 
L 24.421875 12.015625 
L 35.59375 54.6875 
L 46.1875 54.6875 
L 57.421875 12.015625 
L 68.609375 54.6875 
L 77.59375 54.6875 
L 63.28125 0 
L 52.6875 0 
L 40.921875 44.828125 
L 29.109375 0 
L 18.5 0 
z
" id="DejaVuSans-119"/>
      <path d="M 48.6875 27.296875 
Q 48.6875 37.203125 44.609375 42.84375 
Q 40.53125 48.484375 33.40625 48.484375 
Q 26.265625 48.484375 22.1875 42.84375 
Q 18.109375 37.203125 18.109375 27.296875 
Q 18.109375 17.390625 22.1875 11.75 
Q 26.265625 6.109375 33.40625 6.109375 
Q 40.53125 6.109375 44.609375 11.75 
Q 48.6875 17.390625 48.6875 27.296875 
z
M 18.109375 46.390625 
Q 20.953125 51.265625 25.265625 53.625 
Q 29.59375 56 35.59375 56 
Q 45.5625 56 51.78125 48.09375 
Q 58.015625 40.1875 58.015625 27.296875 
Q 58.015625 14.40625 51.78125 6.484375 
Q 45.5625 -1.421875 35.59375 -1.421875 
Q 29.59375 -1.421875 25.265625 0.953125 
Q 20.953125 3.328125 18.109375 8.203125 
L 18.109375 0 
L 9.078125 0 
L 9.078125 75.984375 
L 18.109375 75.984375 
z
" id="DejaVuSans-98"/>
      <path d="M 4.890625 31.390625 
L 31.203125 31.390625 
L 31.203125 23.390625 
L 4.890625 23.390625 
z
" id="DejaVuSans-45"/>
      <path d="M 9.8125 72.90625 
L 24.515625 72.90625 
L 43.109375 23.296875 
L 61.8125 72.90625 
L 76.515625 72.90625 
L 76.515625 0 
L 66.890625 0 
L 66.890625 64.015625 
L 48.09375 14.015625 
L 38.1875 14.015625 
L 19.390625 64.015625 
L 19.390625 0 
L 9.8125 0 
z
" id="DejaVuSans-77"/>
     </defs>
     <use xlink:href="#DejaVuSans-114"/>
     <use x="41.113281" xlink:href="#DejaVuSans-97"/>
     <use x="102.392578" xlink:href="#DejaVuSans-100"/>
     <use x="165.869141" xlink:href="#DejaVuSans-105"/>
     <use x="193.652344" xlink:href="#DejaVuSans-120"/>
     <use x="252.832031" xlink:href="#DejaVuSans-32"/>
     <use x="284.619141" xlink:href="#DejaVuSans-115"/>
     <use x="336.71875" xlink:href="#DejaVuSans-111"/>
     <use x="397.900391" xlink:href="#DejaVuSans-114"/>
     <use x="439.013672" xlink:href="#DejaVuSans-116"/>
     <use x="478.222656" xlink:href="#DejaVuSans-32"/>
     <use x="510.009766" xlink:href="#DejaVuSans-49"/>
     <use x="573.632812" xlink:href="#DejaVuSans-48"/>
     <use x="637.255859" xlink:href="#DejaVuSans-32"/>
     <use x="669.042969" xlink:href="#DejaVuSans-111"/>
     <use x="730.224609" xlink:href="#DejaVuSans-110"/>
     <use x="793.603516" xlink:href="#DejaVuSans-32"/>
     <use x="825.390625" xlink:href="#DejaVuSans-119"/>
     <use x="907.177734" xlink:href="#DejaVuSans-101"/>
     <use x="968.701172" xlink:href="#DejaVuSans-98"/>
     <use x="1032.177734" xlink:href="#DejaVuSans-98"/>
     <use x="1095.654297" xlink:href="#DejaVuSans-97"/>
     <use x="1156.933594" xlink:href="#DejaVuSans-115"/>
     <use x="1209.033203" xlink:href="#DejaVuSans-101"/>
     <use x="1270.556641" xlink:href="#DejaVuSans-45"/>
     <use x="1306.640625" xlink:href="#DejaVuSans-49"/>
     <use x="1370.263672" xlink:href="#DejaVuSans-77"/>
    </g>
   </g>
   <g id="legend_1">
    <g id="patch_7">
     <path d="M 188.876406 93.7845 
L 283.443594 93.7845 
Q 285.443594 93.7845 285.443594 91.7845 
L 285.443594 48.472 
Q 285.443594 46.472 283.443594 46.472 
L 188.876406 46.472 
Q 186.876406 46.472 186.876406 48.472 
L 186.876406 91.7845 
Q 186.876406 93.7845 188.876406 93.7845 
z
" style="fill:#ffffff;opacity:0.8;stroke:#cccccc;stroke-linejoin:miter;"/>
    </g>
    <g id="line2d_62">
     <path d="M 190.876406 54.570438 
L 210.876406 54.570438 
" style="fill:none;stroke:#0000ff;stroke-dasharray:1.5,2.475;stroke-dashoffset:0;stroke-width:1.5;"/>
    </g>
    <g id="line2d_63">
     <g>
      <use style="fill:#0000ff;stroke:#0000ff;" x="200.876406" xlink:href="#m3c6ad57763" y="54.570438"/>
     </g>
    </g>
    <g id="text_33">
     <!-- transpose -->
     <g transform="translate(218.876406 58.070438)scale(0.1 -0.1)">
      <defs>
       <path d="M 18.109375 8.203125 
L 18.109375 -20.796875 
L 9.078125 -20.796875 
L 9.078125 54.6875 
L 18.109375 54.6875 
L 18.109375 46.390625 
Q 20.953125 51.265625 25.265625 53.625 
Q 29.59375 56 35.59375 56 
Q 45.5625 56 51.78125 48.09375 
Q 58.015625 40.1875 58.015625 27.296875 
Q 58.015625 14.40625 51.78125 6.484375 
Q 45.5625 -1.421875 35.59375 -1.421875 
Q 29.59375 -1.421875 25.265625 0.953125 
Q 20.953125 3.328125 18.109375 8.203125 
z
M 48.6875 27.296875 
Q 48.6875 37.203125 44.609375 42.84375 
Q 40.53125 48.484375 33.40625 48.484375 
Q 26.265625 48.484375 22.1875 42.84375 
Q 18.109375 37.203125 18.109375 27.296875 
Q 18.109375 17.390625 22.1875 11.75 
Q 26.265625 6.109375 33.40625 6.109375 
Q 40.53125 6.109375 44.609375 11.75 
Q 48.6875 17.390625 48.6875 27.296875 
z
" id="DejaVuSans-112"/>
      </defs>
      <use xlink:href="#DejaVuSans-116"/>
      <use x="39.208984" xlink:href="#DejaVuSans-114"/>
      <use x="80.322266" xlink:href="#DejaVuSans-97"/>
      <use x="141.601562" xlink:href="#DejaVuSans-110"/>
      <use x="204.980469" xlink:href="#DejaVuSans-115"/>
      <use x="257.080078" xlink:href="#DejaVuSans-112"/>
      <use x="320.556641" xlink:href="#DejaVuSans-111"/>
      <use x="381.738281" xlink:href="#DejaVuSans-115"/>
      <use x="433.837891" xlink:href="#DejaVuSans-101"/>
     </g>
    </g>
    <g id="line2d_64">
     <path d="M 190.876406 69.248563 
L 210.876406 69.248563 
" style="fill:none;stroke:#ff0000;stroke-dasharray:1.5,2.475;stroke-dashoffset:0;stroke-width:1.5;"/>
    </g>
    <g id="line2d_65">
     <g>
      <use style="fill:#ff0000;stroke:#ff0000;" x="200.876406" xlink:href="#m9736aafaba" y="69.248563"/>
     </g>
    </g>
    <g id="text_34">
     <!-- transpose_tr -->
     <g transform="translate(218.876406 72.748563)scale(0.1 -0.1)">
      <defs>
       <path d="M 50.984375 -16.609375 
L 50.984375 -23.578125 
L -0.984375 -23.578125 
L -0.984375 -16.609375 
z
" id="DejaVuSans-95"/>
      </defs>
      <use xlink:href="#DejaVuSans-116"/>
      <use x="39.208984" xlink:href="#DejaVuSans-114"/>
      <use x="80.322266" xlink:href="#DejaVuSans-97"/>
      <use x="141.601562" xlink:href="#DejaVuSans-110"/>
      <use x="204.980469" xlink:href="#DejaVuSans-115"/>
      <use x="257.080078" xlink:href="#DejaVuSans-112"/>
      <use x="320.556641" xlink:href="#DejaVuSans-111"/>
      <use x="381.738281" xlink:href="#DejaVuSans-115"/>
      <use x="433.837891" xlink:href="#DejaVuSans-101"/>
      <use x="495.361328" xlink:href="#DejaVuSans-95"/>
      <use x="545.361328" xlink:href="#DejaVuSans-116"/>
      <use x="584.570312" xlink:href="#DejaVuSans-114"/>
     </g>
    </g>
    <g id="line2d_66">
     <path d="M 190.876406 84.204813 
L 210.876406 84.204813 
" style="fill:none;stroke:#008000;stroke-dasharray:1.5,2.475;stroke-dashoffset:0;stroke-width:1.5;"/>
    </g>
    <g id="line2d_67">
     <g>
      <use style="fill:#008000;stroke:#008000;" x="200.876406" xlink:href="#m2c71985461" y="84.204813"/>
     </g>
    </g>
    <g id="text_35">
     <!-- mean -->
     <g transform="translate(218.876406 87.704813)scale(0.1 -0.1)">
      <defs>
       <path d="M 52 44.1875 
Q 55.375 50.25 60.0625 53.125 
Q 64.75 56 71.09375 56 
Q 79.640625 56 84.28125 50.015625 
Q 88.921875 44.046875 88.921875 33.015625 
L 88.921875 0 
L 79.890625 0 
L 79.890625 32.71875 
Q 79.890625 40.578125 77.09375 44.375 
Q 74.3125 48.1875 68.609375 48.1875 
Q 61.625 48.1875 57.5625 43.546875 
Q 53.515625 38.921875 53.515625 30.90625 
L 53.515625 0 
L 44.484375 0 
L 44.484375 32.71875 
Q 44.484375 40.625 41.703125 44.40625 
Q 38.921875 48.1875 33.109375 48.1875 
Q 26.21875 48.1875 22.15625 43.53125 
Q 18.109375 38.875 18.109375 30.90625 
L 18.109375 0 
L 9.078125 0 
L 9.078125 54.6875 
L 18.109375 54.6875 
L 18.109375 46.1875 
Q 21.1875 51.21875 25.484375 53.609375 
Q 29.78125 56 35.6875 56 
Q 41.65625 56 45.828125 52.96875 
Q 50 49.953125 52 44.1875 
z
" id="DejaVuSans-109"/>
      </defs>
      <use xlink:href="#DejaVuSans-109"/>
      <use x="97.412109" xlink:href="#DejaVuSans-101"/>
      <use x="158.935547" xlink:href="#DejaVuSans-97"/>
      <use x="220.214844" xlink:href="#DejaVuSans-110"/>
     </g>
    </g>
   </g>
  </g>
 </g>
 <defs>
  <clipPath id="pa8f35f3781">
   <rect height="266.112" width="357.12" x="57.6" y="41.472"/>
  </clipPath>
 </defs>
</svg>
