<?xml version="1.0" encoding="utf-8" standalone="no"?>
<!DOCTYPE svg PUBLIC "-//W3C//DTD SVG 1.1//EN"
  "http://www.w3.org/Graphics/SVG/1.1/DTD/svg11.dtd">
<!-- Created with matplotlib (https://matplotlib.org/) -->
<svg height="345.6pt" version="1.1" viewBox="0 0 460.8 345.6" width="460.8pt" xmlns="http://www.w3.org/2000/svg" xmlns:xlink="http://www.w3.org/1999/xlink">
 <metadata>
  <rdf:RDF xmlns:cc="http://creativecommons.org/ns#" xmlns:dc="http://purl.org/dc/elements/1.1/" xmlns:rdf="http://www.w3.org/1999/02/22-rdf-syntax-ns#">
   <cc:Work>
    <dc:type rdf:resource="http://purl.org/dc/dcmitype/StillImage"/>
    <dc:date>2020-08-27T10:04:39.129979</dc:date>
    <dc:format>image/svg+xml</dc:format>
    <dc:creator>
     <cc:Agent>
      <dc:title>Matplotlib v3.3.1, https://matplotlib.org/</dc:title>
     </cc:Agent>
    </dc:creator>
   </cc:Work>
  </rdf:RDF>
 </metadata>
 <defs>
  <style type="text/css">*{stroke-linecap:butt;stroke-linejoin:round;}</style>
 </defs>
 <g id="figure_1">
  <g id="patch_1">
   <path d="M 0 345.6 
L 460.8 345.6 
L 460.8 0 
L 0 0 
z
" style="fill:#ffffff;"/>
  </g>
  <g id="axes_1">
   <g id="patch_2">
    <path d="M 57.6 307.584 
L 414.72 307.584 
L 414.72 41.472 
L 57.6 41.472 
z
" style="fill:#ffffff;"/>
   </g>
   <g id="matplotlib.axis_1">
    <g id="xtick_1">
     <g id="line2d_1">
      <path clip-path="url(#p55f427fc7d)" d="M 61.612584 307.584 
L 61.612584 41.472 
" style="fill:none;stroke:#b0b0b0;stroke-dasharray:5.12,1.28,0.8,1.28;stroke-dashoffset:0;stroke-width:0.8;"/>
     </g>
     <g id="line2d_2">
      <defs>
       <path d="M 0 0 
L 0 3.5 
" id="mb5b75fed9c" style="stroke:#000000;stroke-width:0.8;"/>
      </defs>
      <g>
       <use style="stroke:#000000;stroke-width:0.8;" x="61.612584" xlink:href="#mb5b75fed9c" y="307.584"/>
      </g>
     </g>
     <g id="text_1">
      <!-- 1 -->
      <g transform="translate(58.431334 322.182437)scale(0.1 -0.1)">
       <defs>
        <path d="M 12.40625 8.296875 
L 28.515625 8.296875 
L 28.515625 63.921875 
L 10.984375 60.40625 
L 10.984375 69.390625 
L 28.421875 72.90625 
L 38.28125 72.90625 
L 38.28125 8.296875 
L 54.390625 8.296875 
L 54.390625 0 
L 12.40625 0 
z
" id="DejaVuSans-49"/>
       </defs>
       <use xlink:href="#DejaVuSans-49"/>
      </g>
     </g>
    </g>
    <g id="xtick_2">
     <g id="line2d_3">
      <path clip-path="url(#p55f427fc7d)" d="M 73.650337 307.584 
L 73.650337 41.472 
" style="fill:none;stroke:#b0b0b0;stroke-dasharray:5.12,1.28,0.8,1.28;stroke-dashoffset:0;stroke-width:0.8;"/>
     </g>
     <g id="line2d_4">
      <g>
       <use style="stroke:#000000;stroke-width:0.8;" x="73.650337" xlink:href="#mb5b75fed9c" y="307.584"/>
      </g>
     </g>
     <g id="text_2">
      <!-- 4 -->
      <g transform="translate(70.469087 322.182437)scale(0.1 -0.1)">
       <defs>
        <path d="M 37.796875 64.3125 
L 12.890625 25.390625 
L 37.796875 25.390625 
z
M 35.203125 72.90625 
L 47.609375 72.90625 
L 47.609375 25.390625 
L 58.015625 25.390625 
L 58.015625 17.1875 
L 47.609375 17.1875 
L 47.609375 0 
L 37.796875 0 
L 37.796875 17.1875 
L 4.890625 17.1875 
L 4.890625 26.703125 
z
" id="DejaVuSans-52"/>
       </defs>
       <use xlink:href="#DejaVuSans-52"/>
      </g>
     </g>
    </g>
    <g id="xtick_3">
     <g id="line2d_5">
      <path clip-path="url(#p55f427fc7d)" d="M 89.700674 307.584 
L 89.700674 41.472 
" style="fill:none;stroke:#b0b0b0;stroke-dasharray:5.12,1.28,0.8,1.28;stroke-dashoffset:0;stroke-width:0.8;"/>
     </g>
     <g id="line2d_6">
      <g>
       <use style="stroke:#000000;stroke-width:0.8;" x="89.700674" xlink:href="#mb5b75fed9c" y="307.584"/>
      </g>
     </g>
     <g id="text_3">
      <!-- 8 -->
      <g transform="translate(86.519424 322.182437)scale(0.1 -0.1)">
       <defs>
        <path d="M 31.78125 34.625 
Q 24.75 34.625 20.71875 30.859375 
Q 16.703125 27.09375 16.703125 20.515625 
Q 16.703125 13.921875 20.71875 10.15625 
Q 24.75 6.390625 31.78125 6.390625 
Q 38.8125 6.390625 42.859375 10.171875 
Q 46.921875 13.96875 46.921875 20.515625 
Q 46.921875 27.09375 42.890625 30.859375 
Q 38.875 34.625 31.78125 34.625 
z
M 21.921875 38.8125 
Q 15.578125 40.375 12.03125 44.71875 
Q 8.5 49.078125 8.5 55.328125 
Q 8.5 64.0625 14.71875 69.140625 
Q 20.953125 74.21875 31.78125 74.21875 
Q 42.671875 74.21875 48.875 69.140625 
Q 55.078125 64.0625 55.078125 55.328125 
Q 55.078125 49.078125 51.53125 44.71875 
Q 48 40.375 41.703125 38.8125 
Q 48.828125 37.15625 52.796875 32.3125 
Q 56.78125 27.484375 56.78125 20.515625 
Q 56.78125 9.90625 50.3125 4.234375 
Q 43.84375 -1.421875 31.78125 -1.421875 
Q 19.734375 -1.421875 13.25 4.234375 
Q 6.78125 9.90625 6.78125 20.515625 
Q 6.78125 27.484375 10.78125 32.3125 
Q 14.796875 37.15625 21.921875 38.8125 
z
M 18.3125 54.390625 
Q 18.3125 48.734375 21.84375 45.5625 
Q 25.390625 42.390625 31.78125 42.390625 
Q 38.140625 42.390625 41.71875 45.5625 
Q 45.3125 48.734375 45.3125 54.390625 
Q 45.3125 60.0625 41.71875 63.234375 
Q 38.140625 66.40625 31.78125 66.40625 
Q 25.390625 66.40625 21.84375 63.234375 
Q 18.3125 60.0625 18.3125 54.390625 
z
" id="DejaVuSans-56"/>
       </defs>
       <use xlink:href="#DejaVuSans-56"/>
      </g>
     </g>
    </g>
    <g id="xtick_4">
     <g id="line2d_7">
      <path clip-path="url(#p55f427fc7d)" d="M 105.751011 307.584 
L 105.751011 41.472 
" style="fill:none;stroke:#b0b0b0;stroke-dasharray:5.12,1.28,0.8,1.28;stroke-dashoffset:0;stroke-width:0.8;"/>
     </g>
     <g id="line2d_8">
      <g>
       <use style="stroke:#000000;stroke-width:0.8;" x="105.751011" xlink:href="#mb5b75fed9c" y="307.584"/>
      </g>
     </g>
     <g id="text_4">
      <!-- 12 -->
      <g transform="translate(99.388511 322.182437)scale(0.1 -0.1)">
       <defs>
        <path d="M 19.1875 8.296875 
L 53.609375 8.296875 
L 53.609375 0 
L 7.328125 0 
L 7.328125 8.296875 
Q 12.9375 14.109375 22.625 23.890625 
Q 32.328125 33.6875 34.8125 36.53125 
Q 39.546875 41.84375 41.421875 45.53125 
Q 43.3125 49.21875 43.3125 52.78125 
Q 43.3125 58.59375 39.234375 62.25 
Q 35.15625 65.921875 28.609375 65.921875 
Q 23.96875 65.921875 18.8125 64.3125 
Q 13.671875 62.703125 7.8125 59.421875 
L 7.8125 69.390625 
Q 13.765625 71.78125 18.9375 73 
Q 24.125 74.21875 28.421875 74.21875 
Q 39.75 74.21875 46.484375 68.546875 
Q 53.21875 62.890625 53.21875 53.421875 
Q 53.21875 48.921875 51.53125 44.890625 
Q 49.859375 40.875 45.40625 35.40625 
Q 44.1875 33.984375 37.640625 27.21875 
Q 31.109375 20.453125 19.1875 8.296875 
z
" id="DejaVuSans-50"/>
       </defs>
       <use xlink:href="#DejaVuSans-49"/>
       <use x="63.623047" xlink:href="#DejaVuSans-50"/>
      </g>
     </g>
    </g>
    <g id="xtick_5">
     <g id="line2d_9">
      <path clip-path="url(#p55f427fc7d)" d="M 121.801348 307.584 
L 121.801348 41.472 
" style="fill:none;stroke:#b0b0b0;stroke-dasharray:5.12,1.28,0.8,1.28;stroke-dashoffset:0;stroke-width:0.8;"/>
     </g>
     <g id="line2d_10">
      <g>
       <use style="stroke:#000000;stroke-width:0.8;" x="121.801348" xlink:href="#mb5b75fed9c" y="307.584"/>
      </g>
     </g>
     <g id="text_5">
      <!-- 16 -->
      <g transform="translate(115.438848 322.182437)scale(0.1 -0.1)">
       <defs>
        <path d="M 33.015625 40.375 
Q 26.375 40.375 22.484375 35.828125 
Q 18.609375 31.296875 18.609375 23.390625 
Q 18.609375 15.53125 22.484375 10.953125 
Q 26.375 6.390625 33.015625 6.390625 
Q 39.65625 6.390625 43.53125 10.953125 
Q 47.40625 15.53125 47.40625 23.390625 
Q 47.40625 31.296875 43.53125 35.828125 
Q 39.65625 40.375 33.015625 40.375 
z
M 52.59375 71.296875 
L 52.59375 62.3125 
Q 48.875 64.0625 45.09375 64.984375 
Q 41.3125 65.921875 37.59375 65.921875 
Q 27.828125 65.921875 22.671875 59.328125 
Q 17.53125 52.734375 16.796875 39.40625 
Q 19.671875 43.65625 24.015625 45.921875 
Q 28.375 48.1875 33.59375 48.1875 
Q 44.578125 48.1875 50.953125 41.515625 
Q 57.328125 34.859375 57.328125 23.390625 
Q 57.328125 12.15625 50.6875 5.359375 
Q 44.046875 -1.421875 33.015625 -1.421875 
Q 20.359375 -1.421875 13.671875 8.265625 
Q 6.984375 17.96875 6.984375 36.375 
Q 6.984375 53.65625 15.1875 63.9375 
Q 23.390625 74.21875 37.203125 74.21875 
Q 40.921875 74.21875 44.703125 73.484375 
Q 48.484375 72.75 52.59375 71.296875 
z
" id="DejaVuSans-54"/>
       </defs>
       <use xlink:href="#DejaVuSans-49"/>
       <use x="63.623047" xlink:href="#DejaVuSans-54"/>
      </g>
     </g>
    </g>
    <g id="xtick_6">
     <g id="line2d_11">
      <path clip-path="url(#p55f427fc7d)" d="M 137.851685 307.584 
L 137.851685 41.472 
" style="fill:none;stroke:#b0b0b0;stroke-dasharray:5.12,1.28,0.8,1.28;stroke-dashoffset:0;stroke-width:0.8;"/>
     </g>
     <g id="line2d_12">
      <g>
       <use style="stroke:#000000;stroke-width:0.8;" x="137.851685" xlink:href="#mb5b75fed9c" y="307.584"/>
      </g>
     </g>
     <g id="text_6">
      <!-- 20 -->
      <g transform="translate(131.489185 322.182437)scale(0.1 -0.1)">
       <defs>
        <path d="M 31.78125 66.40625 
Q 24.171875 66.40625 20.328125 58.90625 
Q 16.5 51.421875 16.5 36.375 
Q 16.5 21.390625 20.328125 13.890625 
Q 24.171875 6.390625 31.78125 6.390625 
Q 39.453125 6.390625 43.28125 13.890625 
Q 47.125 21.390625 47.125 36.375 
Q 47.125 51.421875 43.28125 58.90625 
Q 39.453125 66.40625 31.78125 66.40625 
z
M 31.78125 74.21875 
Q 44.046875 74.21875 50.515625 64.515625 
Q 56.984375 54.828125 56.984375 36.375 
Q 56.984375 17.96875 50.515625 8.265625 
Q 44.046875 -1.421875 31.78125 -1.421875 
Q 19.53125 -1.421875 13.0625 8.265625 
Q 6.59375 17.96875 6.59375 36.375 
Q 6.59375 54.828125 13.0625 64.515625 
Q 19.53125 74.21875 31.78125 74.21875 
z
" id="DejaVuSans-48"/>
       </defs>
       <use xlink:href="#DejaVuSans-50"/>
       <use x="63.623047" xlink:href="#DejaVuSans-48"/>
      </g>
     </g>
    </g>
    <g id="xtick_7">
     <g id="line2d_13">
      <path clip-path="url(#p55f427fc7d)" d="M 153.902022 307.584 
L 153.902022 41.472 
" style="fill:none;stroke:#b0b0b0;stroke-dasharray:5.12,1.28,0.8,1.28;stroke-dashoffset:0;stroke-width:0.8;"/>
     </g>
     <g id="line2d_14">
      <g>
       <use style="stroke:#000000;stroke-width:0.8;" x="153.902022" xlink:href="#mb5b75fed9c" y="307.584"/>
      </g>
     </g>
     <g id="text_7">
      <!-- 24 -->
      <g transform="translate(147.539522 322.182437)scale(0.1 -0.1)">
       <use xlink:href="#DejaVuSans-50"/>
       <use x="63.623047" xlink:href="#DejaVuSans-52"/>
      </g>
     </g>
    </g>
    <g id="xtick_8">
     <g id="line2d_15">
      <path clip-path="url(#p55f427fc7d)" d="M 169.95236 307.584 
L 169.95236 41.472 
" style="fill:none;stroke:#b0b0b0;stroke-dasharray:5.12,1.28,0.8,1.28;stroke-dashoffset:0;stroke-width:0.8;"/>
     </g>
     <g id="line2d_16">
      <g>
       <use style="stroke:#000000;stroke-width:0.8;" x="169.95236" xlink:href="#mb5b75fed9c" y="307.584"/>
      </g>
     </g>
     <g id="text_8">
      <!-- 28 -->
      <g transform="translate(163.58986 322.182437)scale(0.1 -0.1)">
       <use xlink:href="#DejaVuSans-50"/>
       <use x="63.623047" xlink:href="#DejaVuSans-56"/>
      </g>
     </g>
    </g>
    <g id="xtick_9">
     <g id="line2d_17">
      <path clip-path="url(#p55f427fc7d)" d="M 186.002697 307.584 
L 186.002697 41.472 
" style="fill:none;stroke:#b0b0b0;stroke-dasharray:5.12,1.28,0.8,1.28;stroke-dashoffset:0;stroke-width:0.8;"/>
     </g>
     <g id="line2d_18">
      <g>
       <use style="stroke:#000000;stroke-width:0.8;" x="186.002697" xlink:href="#mb5b75fed9c" y="307.584"/>
      </g>
     </g>
     <g id="text_9">
      <!-- 32 -->
      <g transform="translate(179.640197 322.182437)scale(0.1 -0.1)">
       <defs>
        <path d="M 40.578125 39.3125 
Q 47.65625 37.796875 51.625 33 
Q 55.609375 28.21875 55.609375 21.1875 
Q 55.609375 10.40625 48.1875 4.484375 
Q 40.765625 -1.421875 27.09375 -1.421875 
Q 22.515625 -1.421875 17.65625 -0.515625 
Q 12.796875 0.390625 7.625 2.203125 
L 7.625 11.71875 
Q 11.71875 9.328125 16.59375 8.109375 
Q 21.484375 6.890625 26.8125 6.890625 
Q 36.078125 6.890625 40.9375 10.546875 
Q 45.796875 14.203125 45.796875 21.1875 
Q 45.796875 27.640625 41.28125 31.265625 
Q 36.765625 34.90625 28.71875 34.90625 
L 20.21875 34.90625 
L 20.21875 43.015625 
L 29.109375 43.015625 
Q 36.375 43.015625 40.234375 45.921875 
Q 44.09375 48.828125 44.09375 54.296875 
Q 44.09375 59.90625 40.109375 62.90625 
Q 36.140625 65.921875 28.71875 65.921875 
Q 24.65625 65.921875 20.015625 65.03125 
Q 15.375 64.15625 9.8125 62.3125 
L 9.8125 71.09375 
Q 15.4375 72.65625 20.34375 73.4375 
Q 25.25 74.21875 29.59375 74.21875 
Q 40.828125 74.21875 47.359375 69.109375 
Q 53.90625 64.015625 53.90625 55.328125 
Q 53.90625 49.265625 50.4375 45.09375 
Q 46.96875 40.921875 40.578125 39.3125 
z
" id="DejaVuSans-51"/>
       </defs>
       <use xlink:href="#DejaVuSans-51"/>
       <use x="63.623047" xlink:href="#DejaVuSans-50"/>
      </g>
     </g>
    </g>
    <g id="xtick_10">
     <g id="line2d_19">
      <path clip-path="url(#p55f427fc7d)" d="M 202.053034 307.584 
L 202.053034 41.472 
" style="fill:none;stroke:#b0b0b0;stroke-dasharray:5.12,1.28,0.8,1.28;stroke-dashoffset:0;stroke-width:0.8;"/>
     </g>
     <g id="line2d_20">
      <g>
       <use style="stroke:#000000;stroke-width:0.8;" x="202.053034" xlink:href="#mb5b75fed9c" y="307.584"/>
      </g>
     </g>
     <g id="text_10">
      <!-- 36 -->
      <g transform="translate(195.690534 322.182437)scale(0.1 -0.1)">
       <use xlink:href="#DejaVuSans-51"/>
       <use x="63.623047" xlink:href="#DejaVuSans-54"/>
      </g>
     </g>
    </g>
    <g id="xtick_11">
     <g id="line2d_21">
      <path clip-path="url(#p55f427fc7d)" d="M 218.103371 307.584 
L 218.103371 41.472 
" style="fill:none;stroke:#b0b0b0;stroke-dasharray:5.12,1.28,0.8,1.28;stroke-dashoffset:0;stroke-width:0.8;"/>
     </g>
     <g id="line2d_22">
      <g>
       <use style="stroke:#000000;stroke-width:0.8;" x="218.103371" xlink:href="#mb5b75fed9c" y="307.584"/>
      </g>
     </g>
     <g id="text_11">
      <!-- 40 -->
      <g transform="translate(211.740871 322.182437)scale(0.1 -0.1)">
       <use xlink:href="#DejaVuSans-52"/>
       <use x="63.623047" xlink:href="#DejaVuSans-48"/>
      </g>
     </g>
    </g>
    <g id="xtick_12">
     <g id="line2d_23">
      <path clip-path="url(#p55f427fc7d)" d="M 234.153708 307.584 
L 234.153708 41.472 
" style="fill:none;stroke:#b0b0b0;stroke-dasharray:5.12,1.28,0.8,1.28;stroke-dashoffset:0;stroke-width:0.8;"/>
     </g>
     <g id="line2d_24">
      <g>
       <use style="stroke:#000000;stroke-width:0.8;" x="234.153708" xlink:href="#mb5b75fed9c" y="307.584"/>
      </g>
     </g>
     <g id="text_12">
      <!-- 44 -->
      <g transform="translate(227.791208 322.182437)scale(0.1 -0.1)">
       <use xlink:href="#DejaVuSans-52"/>
       <use x="63.623047" xlink:href="#DejaVuSans-52"/>
      </g>
     </g>
    </g>
    <g id="xtick_13">
     <g id="line2d_25">
      <path clip-path="url(#p55f427fc7d)" d="M 250.204045 307.584 
L 250.204045 41.472 
" style="fill:none;stroke:#b0b0b0;stroke-dasharray:5.12,1.28,0.8,1.28;stroke-dashoffset:0;stroke-width:0.8;"/>
     </g>
     <g id="line2d_26">
      <g>
       <use style="stroke:#000000;stroke-width:0.8;" x="250.204045" xlink:href="#mb5b75fed9c" y="307.584"/>
      </g>
     </g>
     <g id="text_13">
      <!-- 48 -->
      <g transform="translate(243.841545 322.182437)scale(0.1 -0.1)">
       <use xlink:href="#DejaVuSans-52"/>
       <use x="63.623047" xlink:href="#DejaVuSans-56"/>
      </g>
     </g>
    </g>
    <g id="xtick_14">
     <g id="line2d_27">
      <path clip-path="url(#p55f427fc7d)" d="M 266.254382 307.584 
L 266.254382 41.472 
" style="fill:none;stroke:#b0b0b0;stroke-dasharray:5.12,1.28,0.8,1.28;stroke-dashoffset:0;stroke-width:0.8;"/>
     </g>
     <g id="line2d_28">
      <g>
       <use style="stroke:#000000;stroke-width:0.8;" x="266.254382" xlink:href="#mb5b75fed9c" y="307.584"/>
      </g>
     </g>
     <g id="text_14">
      <!-- 52 -->
      <g transform="translate(259.891882 322.182437)scale(0.1 -0.1)">
       <defs>
        <path d="M 10.796875 72.90625 
L 49.515625 72.90625 
L 49.515625 64.59375 
L 19.828125 64.59375 
L 19.828125 46.734375 
Q 21.96875 47.46875 24.109375 47.828125 
Q 26.265625 48.1875 28.421875 48.1875 
Q 40.625 48.1875 47.75 41.5 
Q 54.890625 34.8125 54.890625 23.390625 
Q 54.890625 11.625 47.5625 5.09375 
Q 40.234375 -1.421875 26.90625 -1.421875 
Q 22.3125 -1.421875 17.546875 -0.640625 
Q 12.796875 0.140625 7.71875 1.703125 
L 7.71875 11.625 
Q 12.109375 9.234375 16.796875 8.0625 
Q 21.484375 6.890625 26.703125 6.890625 
Q 35.15625 6.890625 40.078125 11.328125 
Q 45.015625 15.765625 45.015625 23.390625 
Q 45.015625 31 40.078125 35.4375 
Q 35.15625 39.890625 26.703125 39.890625 
Q 22.75 39.890625 18.8125 39.015625 
Q 14.890625 38.140625 10.796875 36.28125 
z
" id="DejaVuSans-53"/>
       </defs>
       <use xlink:href="#DejaVuSans-53"/>
       <use x="63.623047" xlink:href="#DejaVuSans-50"/>
      </g>
     </g>
    </g>
    <g id="xtick_15">
     <g id="line2d_29">
      <path clip-path="url(#p55f427fc7d)" d="M 282.304719 307.584 
L 282.304719 41.472 
" style="fill:none;stroke:#b0b0b0;stroke-dasharray:5.12,1.28,0.8,1.28;stroke-dashoffset:0;stroke-width:0.8;"/>
     </g>
     <g id="line2d_30">
      <g>
       <use style="stroke:#000000;stroke-width:0.8;" x="282.304719" xlink:href="#mb5b75fed9c" y="307.584"/>
      </g>
     </g>
     <g id="text_15">
      <!-- 56 -->
      <g transform="translate(275.942219 322.182437)scale(0.1 -0.1)">
       <use xlink:href="#DejaVuSans-53"/>
       <use x="63.623047" xlink:href="#DejaVuSans-54"/>
      </g>
     </g>
    </g>
    <g id="xtick_16">
     <g id="line2d_31">
      <path clip-path="url(#p55f427fc7d)" d="M 298.355056 307.584 
L 298.355056 41.472 
" style="fill:none;stroke:#b0b0b0;stroke-dasharray:5.12,1.28,0.8,1.28;stroke-dashoffset:0;stroke-width:0.8;"/>
     </g>
     <g id="line2d_32">
      <g>
       <use style="stroke:#000000;stroke-width:0.8;" x="298.355056" xlink:href="#mb5b75fed9c" y="307.584"/>
      </g>
     </g>
     <g id="text_16">
      <!-- 60 -->
      <g transform="translate(291.992556 322.182437)scale(0.1 -0.1)">
       <use xlink:href="#DejaVuSans-54"/>
       <use x="63.623047" xlink:href="#DejaVuSans-48"/>
      </g>
     </g>
    </g>
    <g id="xtick_17">
     <g id="line2d_33">
      <path clip-path="url(#p55f427fc7d)" d="M 314.405393 307.584 
L 314.405393 41.472 
" style="fill:none;stroke:#b0b0b0;stroke-dasharray:5.12,1.28,0.8,1.28;stroke-dashoffset:0;stroke-width:0.8;"/>
     </g>
     <g id="line2d_34">
      <g>
       <use style="stroke:#000000;stroke-width:0.8;" x="314.405393" xlink:href="#mb5b75fed9c" y="307.584"/>
      </g>
     </g>
     <g id="text_17">
      <!-- 64 -->
      <g transform="translate(308.042893 322.182437)scale(0.1 -0.1)">
       <use xlink:href="#DejaVuSans-54"/>
       <use x="63.623047" xlink:href="#DejaVuSans-52"/>
      </g>
     </g>
    </g>
    <g id="xtick_18">
     <g id="line2d_35">
      <path clip-path="url(#p55f427fc7d)" d="M 330.45573 307.584 
L 330.45573 41.472 
" style="fill:none;stroke:#b0b0b0;stroke-dasharray:5.12,1.28,0.8,1.28;stroke-dashoffset:0;stroke-width:0.8;"/>
     </g>
     <g id="line2d_36">
      <g>
       <use style="stroke:#000000;stroke-width:0.8;" x="330.45573" xlink:href="#mb5b75fed9c" y="307.584"/>
      </g>
     </g>
     <g id="text_18">
      <!-- 68 -->
      <g transform="translate(324.09323 322.182437)scale(0.1 -0.1)">
       <use xlink:href="#DejaVuSans-54"/>
       <use x="63.623047" xlink:href="#DejaVuSans-56"/>
      </g>
     </g>
    </g>
    <g id="xtick_19">
     <g id="line2d_37">
      <path clip-path="url(#p55f427fc7d)" d="M 346.506067 307.584 
L 346.506067 41.472 
" style="fill:none;stroke:#b0b0b0;stroke-dasharray:5.12,1.28,0.8,1.28;stroke-dashoffset:0;stroke-width:0.8;"/>
     </g>
     <g id="line2d_38">
      <g>
       <use style="stroke:#000000;stroke-width:0.8;" x="346.506067" xlink:href="#mb5b75fed9c" y="307.584"/>
      </g>
     </g>
     <g id="text_19">
      <!-- 72 -->
      <g transform="translate(340.143567 322.182437)scale(0.1 -0.1)">
       <defs>
        <path d="M 8.203125 72.90625 
L 55.078125 72.90625 
L 55.078125 68.703125 
L 28.609375 0 
L 18.3125 0 
L 43.21875 64.59375 
L 8.203125 64.59375 
z
" id="DejaVuSans-55"/>
       </defs>
       <use xlink:href="#DejaVuSans-55"/>
       <use x="63.623047" xlink:href="#DejaVuSans-50"/>
      </g>
     </g>
    </g>
    <g id="xtick_20">
     <g id="line2d_39">
      <path clip-path="url(#p55f427fc7d)" d="M 362.556404 307.584 
L 362.556404 41.472 
" style="fill:none;stroke:#b0b0b0;stroke-dasharray:5.12,1.28,0.8,1.28;stroke-dashoffset:0;stroke-width:0.8;"/>
     </g>
     <g id="line2d_40">
      <g>
       <use style="stroke:#000000;stroke-width:0.8;" x="362.556404" xlink:href="#mb5b75fed9c" y="307.584"/>
      </g>
     </g>
     <g id="text_20">
      <!-- 76 -->
      <g transform="translate(356.193904 322.182437)scale(0.1 -0.1)">
       <use xlink:href="#DejaVuSans-55"/>
       <use x="63.623047" xlink:href="#DejaVuSans-54"/>
      </g>
     </g>
    </g>
    <g id="xtick_21">
     <g id="line2d_41">
      <path clip-path="url(#p55f427fc7d)" d="M 378.606742 307.584 
L 378.606742 41.472 
" style="fill:none;stroke:#b0b0b0;stroke-dasharray:5.12,1.28,0.8,1.28;stroke-dashoffset:0;stroke-width:0.8;"/>
     </g>
     <g id="line2d_42">
      <g>
       <use style="stroke:#000000;stroke-width:0.8;" x="378.606742" xlink:href="#mb5b75fed9c" y="307.584"/>
      </g>
     </g>
     <g id="text_21">
      <!-- 80 -->
      <g transform="translate(372.244242 322.182437)scale(0.1 -0.1)">
       <use xlink:href="#DejaVuSans-56"/>
       <use x="63.623047" xlink:href="#DejaVuSans-48"/>
      </g>
     </g>
    </g>
    <g id="xtick_22">
     <g id="line2d_43">
      <path clip-path="url(#p55f427fc7d)" d="M 394.657079 307.584 
L 394.657079 41.472 
" style="fill:none;stroke:#b0b0b0;stroke-dasharray:5.12,1.28,0.8,1.28;stroke-dashoffset:0;stroke-width:0.8;"/>
     </g>
     <g id="line2d_44">
      <g>
       <use style="stroke:#000000;stroke-width:0.8;" x="394.657079" xlink:href="#mb5b75fed9c" y="307.584"/>
      </g>
     </g>
     <g id="text_22">
      <!-- 84 -->
      <g transform="translate(388.294579 322.182437)scale(0.1 -0.1)">
       <use xlink:href="#DejaVuSans-56"/>
       <use x="63.623047" xlink:href="#DejaVuSans-52"/>
      </g>
     </g>
    </g>
    <g id="xtick_23">
     <g id="line2d_45">
      <path clip-path="url(#p55f427fc7d)" d="M 410.707416 307.584 
L 410.707416 41.472 
" style="fill:none;stroke:#b0b0b0;stroke-dasharray:5.12,1.28,0.8,1.28;stroke-dashoffset:0;stroke-width:0.8;"/>
     </g>
     <g id="line2d_46">
      <g>
       <use style="stroke:#000000;stroke-width:0.8;" x="410.707416" xlink:href="#mb5b75fed9c" y="307.584"/>
      </g>
     </g>
     <g id="text_23">
      <!-- 88 -->
      <g transform="translate(404.344916 322.182437)scale(0.1 -0.1)">
       <use xlink:href="#DejaVuSans-56"/>
       <use x="63.623047" xlink:href="#DejaVuSans-56"/>
      </g>
     </g>
    </g>
    <g id="text_24">
     <!-- threads -->
     <g transform="translate(217.168594 335.860562)scale(0.1 -0.1)">
      <defs>
       <path d="M 18.3125 70.21875 
L 18.3125 54.6875 
L 36.8125 54.6875 
L 36.8125 47.703125 
L 18.3125 47.703125 
L 18.3125 18.015625 
Q 18.3125 11.328125 20.140625 9.421875 
Q 21.96875 7.515625 27.59375 7.515625 
L 36.8125 7.515625 
L 36.8125 0 
L 27.59375 0 
Q 17.1875 0 13.234375 3.875 
Q 9.28125 7.765625 9.28125 18.015625 
L 9.28125 47.703125 
L 2.6875 47.703125 
L 2.6875 54.6875 
L 9.28125 54.6875 
L 9.28125 70.21875 
z
" id="DejaVuSans-116"/>
       <path d="M 54.890625 33.015625 
L 54.890625 0 
L 45.90625 0 
L 45.90625 32.71875 
Q 45.90625 40.484375 42.875 44.328125 
Q 39.84375 48.1875 33.796875 48.1875 
Q 26.515625 48.1875 22.3125 43.546875 
Q 18.109375 38.921875 18.109375 30.90625 
L 18.109375 0 
L 9.078125 0 
L 9.078125 75.984375 
L 18.109375 75.984375 
L 18.109375 46.1875 
Q 21.34375 51.125 25.703125 53.5625 
Q 30.078125 56 35.796875 56 
Q 45.21875 56 50.046875 50.171875 
Q 54.890625 44.34375 54.890625 33.015625 
z
" id="DejaVuSans-104"/>
       <path d="M 41.109375 46.296875 
Q 39.59375 47.171875 37.8125 47.578125 
Q 36.03125 48 33.890625 48 
Q 26.265625 48 22.1875 43.046875 
Q 18.109375 38.09375 18.109375 28.8125 
L 18.109375 0 
L 9.078125 0 
L 9.078125 54.6875 
L 18.109375 54.6875 
L 18.109375 46.1875 
Q 20.953125 51.171875 25.484375 53.578125 
Q 30.03125 56 36.53125 56 
Q 37.453125 56 38.578125 55.875 
Q 39.703125 55.765625 41.0625 55.515625 
z
" id="DejaVuSans-114"/>
       <path d="M 56.203125 29.59375 
L 56.203125 25.203125 
L 14.890625 25.203125 
Q 15.484375 15.921875 20.484375 11.0625 
Q 25.484375 6.203125 34.421875 6.203125 
Q 39.59375 6.203125 44.453125 7.46875 
Q 49.3125 8.734375 54.109375 11.28125 
L 54.109375 2.78125 
Q 49.265625 0.734375 44.1875 -0.34375 
Q 39.109375 -1.421875 33.890625 -1.421875 
Q 20.796875 -1.421875 13.15625 6.1875 
Q 5.515625 13.8125 5.515625 26.8125 
Q 5.515625 40.234375 12.765625 48.109375 
Q 20.015625 56 32.328125 56 
Q 43.359375 56 49.78125 48.890625 
Q 56.203125 41.796875 56.203125 29.59375 
z
M 47.21875 32.234375 
Q 47.125 39.59375 43.09375 43.984375 
Q 39.0625 48.390625 32.421875 48.390625 
Q 24.90625 48.390625 20.390625 44.140625 
Q 15.875 39.890625 15.1875 32.171875 
z
" id="DejaVuSans-101"/>
       <path d="M 34.28125 27.484375 
Q 23.390625 27.484375 19.1875 25 
Q 14.984375 22.515625 14.984375 16.5 
Q 14.984375 11.71875 18.140625 8.90625 
Q 21.296875 6.109375 26.703125 6.109375 
Q 34.1875 6.109375 38.703125 11.40625 
Q 43.21875 16.703125 43.21875 25.484375 
L 43.21875 27.484375 
z
M 52.203125 31.203125 
L 52.203125 0 
L 43.21875 0 
L 43.21875 8.296875 
Q 40.140625 3.328125 35.546875 0.953125 
Q 30.953125 -1.421875 24.3125 -1.421875 
Q 15.921875 -1.421875 10.953125 3.296875 
Q 6 8.015625 6 15.921875 
Q 6 25.140625 12.171875 29.828125 
Q 18.359375 34.515625 30.609375 34.515625 
L 43.21875 34.515625 
L 43.21875 35.40625 
Q 43.21875 41.609375 39.140625 45 
Q 35.0625 48.390625 27.6875 48.390625 
Q 23 48.390625 18.546875 47.265625 
Q 14.109375 46.140625 10.015625 43.890625 
L 10.015625 52.203125 
Q 14.9375 54.109375 19.578125 55.046875 
Q 24.21875 56 28.609375 56 
Q 40.484375 56 46.34375 49.84375 
Q 52.203125 43.703125 52.203125 31.203125 
z
" id="DejaVuSans-97"/>
       <path d="M 45.40625 46.390625 
L 45.40625 75.984375 
L 54.390625 75.984375 
L 54.390625 0 
L 45.40625 0 
L 45.40625 8.203125 
Q 42.578125 3.328125 38.25 0.953125 
Q 33.9375 -1.421875 27.875 -1.421875 
Q 17.96875 -1.421875 11.734375 6.484375 
Q 5.515625 14.40625 5.515625 27.296875 
Q 5.515625 40.1875 11.734375 48.09375 
Q 17.96875 56 27.875 56 
Q 33.9375 56 38.25 53.625 
Q 42.578125 51.265625 45.40625 46.390625 
z
M 14.796875 27.296875 
Q 14.796875 17.390625 18.875 11.75 
Q 22.953125 6.109375 30.078125 6.109375 
Q 37.203125 6.109375 41.296875 11.75 
Q 45.40625 17.390625 45.40625 27.296875 
Q 45.40625 37.203125 41.296875 42.84375 
Q 37.203125 48.484375 30.078125 48.484375 
Q 22.953125 48.484375 18.875 42.84375 
Q 14.796875 37.203125 14.796875 27.296875 
z
" id="DejaVuSans-100"/>
       <path d="M 44.28125 53.078125 
L 44.28125 44.578125 
Q 40.484375 46.53125 36.375 47.5 
Q 32.28125 48.484375 27.875 48.484375 
Q 21.1875 48.484375 17.84375 46.4375 
Q 14.5 44.390625 14.5 40.28125 
Q 14.5 37.15625 16.890625 35.375 
Q 19.28125 33.59375 26.515625 31.984375 
L 29.59375 31.296875 
Q 39.15625 29.25 43.1875 25.515625 
Q 47.21875 21.78125 47.21875 15.09375 
Q 47.21875 7.46875 41.1875 3.015625 
Q 35.15625 -1.421875 24.609375 -1.421875 
Q 20.21875 -1.421875 15.453125 -0.5625 
Q 10.6875 0.296875 5.421875 2 
L 5.421875 11.28125 
Q 10.40625 8.6875 15.234375 7.390625 
Q 20.0625 6.109375 24.8125 6.109375 
Q 31.15625 6.109375 34.5625 8.28125 
Q 37.984375 10.453125 37.984375 14.40625 
Q 37.984375 18.0625 35.515625 20.015625 
Q 33.0625 21.96875 24.703125 23.78125 
L 21.578125 24.515625 
Q 13.234375 26.265625 9.515625 29.90625 
Q 5.8125 33.546875 5.8125 39.890625 
Q 5.8125 47.609375 11.28125 51.796875 
Q 16.75 56 26.8125 56 
Q 31.78125 56 36.171875 55.265625 
Q 40.578125 54.546875 44.28125 53.078125 
z
" id="DejaVuSans-115"/>
      </defs>
      <use xlink:href="#DejaVuSans-116"/>
      <use x="39.208984" xlink:href="#DejaVuSans-104"/>
      <use x="102.587891" xlink:href="#DejaVuSans-114"/>
      <use x="141.451172" xlink:href="#DejaVuSans-101"/>
      <use x="202.974609" xlink:href="#DejaVuSans-97"/>
      <use x="264.253906" xlink:href="#DejaVuSans-100"/>
      <use x="327.730469" xlink:href="#DejaVuSans-115"/>
     </g>
    </g>
   </g>
   <g id="matplotlib.axis_2">
    <g id="ytick_1">
     <g id="line2d_47">
      <path clip-path="url(#p55f427fc7d)" d="M 57.6 277.796117 
L 414.72 277.796117 
" style="fill:none;stroke:#b0b0b0;stroke-dasharray:5.12,1.28,0.8,1.28;stroke-dashoffset:0;stroke-width:0.8;"/>
     </g>
     <g id="line2d_48">
      <defs>
       <path d="M 0 0 
L -3.5 0 
" id="md120b9f04d" style="stroke:#000000;stroke-width:0.8;"/>
      </defs>
      <g>
       <use style="stroke:#000000;stroke-width:0.8;" x="57.6" xlink:href="#md120b9f04d" y="277.796117"/>
      </g>
     </g>
     <g id="text_25">
      <!-- 5 -->
      <g transform="translate(44.2375 281.595335)scale(0.1 -0.1)">
       <use xlink:href="#DejaVuSans-53"/>
      </g>
     </g>
    </g>
    <g id="ytick_2">
     <g id="line2d_49">
      <path clip-path="url(#p55f427fc7d)" d="M 57.6 242.34594 
L 414.72 242.34594 
" style="fill:none;stroke:#b0b0b0;stroke-dasharray:5.12,1.28,0.8,1.28;stroke-dashoffset:0;stroke-width:0.8;"/>
     </g>
     <g id="line2d_50">
      <g>
       <use style="stroke:#000000;stroke-width:0.8;" x="57.6" xlink:href="#md120b9f04d" y="242.34594"/>
      </g>
     </g>
     <g id="text_26">
      <!-- 10 -->
      <g transform="translate(37.875 246.145158)scale(0.1 -0.1)">
       <use xlink:href="#DejaVuSans-49"/>
       <use x="63.623047" xlink:href="#DejaVuSans-48"/>
      </g>
     </g>
    </g>
    <g id="ytick_3">
     <g id="line2d_51">
      <path clip-path="url(#p55f427fc7d)" d="M 57.6 206.895763 
L 414.72 206.895763 
" style="fill:none;stroke:#b0b0b0;stroke-dasharray:5.12,1.28,0.8,1.28;stroke-dashoffset:0;stroke-width:0.8;"/>
     </g>
     <g id="line2d_52">
      <g>
       <use style="stroke:#000000;stroke-width:0.8;" x="57.6" xlink:href="#md120b9f04d" y="206.895763"/>
      </g>
     </g>
     <g id="text_27">
      <!-- 15 -->
      <g transform="translate(37.875 210.694981)scale(0.1 -0.1)">
       <use xlink:href="#DejaVuSans-49"/>
       <use x="63.623047" xlink:href="#DejaVuSans-53"/>
      </g>
     </g>
    </g>
    <g id="ytick_4">
     <g id="line2d_53">
      <path clip-path="url(#p55f427fc7d)" d="M 57.6 171.445586 
L 414.72 171.445586 
" style="fill:none;stroke:#b0b0b0;stroke-dasharray:5.12,1.28,0.8,1.28;stroke-dashoffset:0;stroke-width:0.8;"/>
     </g>
     <g id="line2d_54">
      <g>
       <use style="stroke:#000000;stroke-width:0.8;" x="57.6" xlink:href="#md120b9f04d" y="171.445586"/>
      </g>
     </g>
     <g id="text_28">
      <!-- 20 -->
      <g transform="translate(37.875 175.244804)scale(0.1 -0.1)">
       <use xlink:href="#DejaVuSans-50"/>
       <use x="63.623047" xlink:href="#DejaVuSans-48"/>
      </g>
     </g>
    </g>
    <g id="ytick_5">
     <g id="line2d_55">
      <path clip-path="url(#p55f427fc7d)" d="M 57.6 135.995409 
L 414.72 135.995409 
" style="fill:none;stroke:#b0b0b0;stroke-dasharray:5.12,1.28,0.8,1.28;stroke-dashoffset:0;stroke-width:0.8;"/>
     </g>
     <g id="line2d_56">
      <g>
       <use style="stroke:#000000;stroke-width:0.8;" x="57.6" xlink:href="#md120b9f04d" y="135.995409"/>
      </g>
     </g>
     <g id="text_29">
      <!-- 25 -->
      <g transform="translate(37.875 139.794627)scale(0.1 -0.1)">
       <use xlink:href="#DejaVuSans-50"/>
       <use x="63.623047" xlink:href="#DejaVuSans-53"/>
      </g>
     </g>
    </g>
    <g id="ytick_6">
     <g id="line2d_57">
      <path clip-path="url(#p55f427fc7d)" d="M 57.6 100.545232 
L 414.72 100.545232 
" style="fill:none;stroke:#b0b0b0;stroke-dasharray:5.12,1.28,0.8,1.28;stroke-dashoffset:0;stroke-width:0.8;"/>
     </g>
     <g id="line2d_58">
      <g>
       <use style="stroke:#000000;stroke-width:0.8;" x="57.6" xlink:href="#md120b9f04d" y="100.545232"/>
      </g>
     </g>
     <g id="text_30">
      <!-- 30 -->
      <g transform="translate(37.875 104.34445)scale(0.1 -0.1)">
       <use xlink:href="#DejaVuSans-51"/>
       <use x="63.623047" xlink:href="#DejaVuSans-48"/>
      </g>
     </g>
    </g>
    <g id="ytick_7">
     <g id="line2d_59">
      <path clip-path="url(#p55f427fc7d)" d="M 57.6 65.095055 
L 414.72 65.095055 
" style="fill:none;stroke:#b0b0b0;stroke-dasharray:5.12,1.28,0.8,1.28;stroke-dashoffset:0;stroke-width:0.8;"/>
     </g>
     <g id="line2d_60">
      <g>
       <use style="stroke:#000000;stroke-width:0.8;" x="57.6" xlink:href="#md120b9f04d" y="65.095055"/>
      </g>
     </g>
     <g id="text_31">
      <!-- 35 -->
      <g transform="translate(37.875 68.894273)scale(0.1 -0.1)">
       <use xlink:href="#DejaVuSans-51"/>
       <use x="63.623047" xlink:href="#DejaVuSans-53"/>
      </g>
     </g>
    </g>
    <g id="text_32">
     <!-- speed up -->
     <g transform="translate(31.795312 197.566281)rotate(-90)scale(0.1 -0.1)">
      <defs>
       <path d="M 18.109375 8.203125 
L 18.109375 -20.796875 
L 9.078125 -20.796875 
L 9.078125 54.6875 
L 18.109375 54.6875 
L 18.109375 46.390625 
Q 20.953125 51.265625 25.265625 53.625 
Q 29.59375 56 35.59375 56 
Q 45.5625 56 51.78125 48.09375 
Q 58.015625 40.1875 58.015625 27.296875 
Q 58.015625 14.40625 51.78125 6.484375 
Q 45.5625 -1.421875 35.59375 -1.421875 
Q 29.59375 -1.421875 25.265625 0.953125 
Q 20.953125 3.328125 18.109375 8.203125 
z
M 48.6875 27.296875 
Q 48.6875 37.203125 44.609375 42.84375 
Q 40.53125 48.484375 33.40625 48.484375 
Q 26.265625 48.484375 22.1875 42.84375 
Q 18.109375 37.203125 18.109375 27.296875 
Q 18.109375 17.390625 22.1875 11.75 
Q 26.265625 6.109375 33.40625 6.109375 
Q 40.53125 6.109375 44.609375 11.75 
Q 48.6875 17.390625 48.6875 27.296875 
z
" id="DejaVuSans-112"/>
       <path id="DejaVuSans-32"/>
       <path d="M 8.5 21.578125 
L 8.5 54.6875 
L 17.484375 54.6875 
L 17.484375 21.921875 
Q 17.484375 14.15625 20.5 10.265625 
Q 23.53125 6.390625 29.59375 6.390625 
Q 36.859375 6.390625 41.078125 11.03125 
Q 45.3125 15.671875 45.3125 23.6875 
L 45.3125 54.6875 
L 54.296875 54.6875 
L 54.296875 0 
L 45.3125 0 
L 45.3125 8.40625 
Q 42.046875 3.421875 37.71875 1 
Q 33.40625 -1.421875 27.6875 -1.421875 
Q 18.265625 -1.421875 13.375 4.4375 
Q 8.5 10.296875 8.5 21.578125 
z
M 31.109375 56 
z
" id="DejaVuSans-117"/>
      </defs>
      <use xlink:href="#DejaVuSans-115"/>
      <use x="52.099609" xlink:href="#DejaVuSans-112"/>
      <use x="115.576172" xlink:href="#DejaVuSans-101"/>
      <use x="177.099609" xlink:href="#DejaVuSans-101"/>
      <use x="238.623047" xlink:href="#DejaVuSans-100"/>
      <use x="302.099609" xlink:href="#DejaVuSans-32"/>
      <use x="333.886719" xlink:href="#DejaVuSans-117"/>
      <use x="397.265625" xlink:href="#DejaVuSans-112"/>
     </g>
    </g>
   </g>
   <g id="line2d_61">
    <path clip-path="url(#p55f427fc7d)" d="M 61.612584 294.345369 
L 65.625169 276.47408 
L 69.637753 259.619702 
L 73.650337 243.854591 
L 77.662921 232.186764 
L 81.675506 218.11884 
L 85.68809 199.792337 
L 89.700674 189.777099 
L 93.713258 177.279522 
L 97.725843 170.404464 
L 101.738427 157.3876 
L 105.751011 148.043134 
L 109.763596 138.373119 
L 113.77618 143.518586 
L 117.788764 145.823302 
L 121.801348 137.257651 
L 125.813933 143.696149 
L 129.826517 130.984128 
L 133.839101 126.713394 
L 137.851685 134.829511 
L 141.86427 120.983663 
L 145.876854 118.52079 
L 149.889438 119.953035 
L 153.902022 112.218156 
L 157.914607 96.584273 
L 161.927191 88.191126 
L 165.939775 81.892127 
L 169.95236 101.69436 
L 173.964944 108.858222 
L 177.977528 110.623665 
L 181.990112 106.118789 
L 186.002697 105.014841 
L 190.015281 112.631272 
L 194.027865 107.104221 
L 198.040449 107.553135 
L 202.053034 100.743266 
L 206.065618 99.113667 
L 210.078202 99.159481 
L 214.090787 97.930469 
L 218.103371 97.463659 
L 222.115955 92.656366 
L 226.128539 97.655437 
L 230.141124 100.601135 
L 234.153708 100.780934 
L 238.166292 106.633156 
L 242.178876 108.073559 
L 246.191461 106.669717 
L 250.204045 109.400254 
L 254.216629 105.070927 
L 258.229213 111.420789 
L 262.241798 117.087936 
L 266.254382 109.076236 
L 270.266966 99.652784 
L 274.279551 92.701295 
L 278.292135 105.557025 
L 282.304719 101.408445 
L 286.317303 92.734275 
L 290.329888 94.671751 
L 294.342472 93.409495 
L 298.355056 104.627801 
L 302.36764 101.041023 
L 306.380225 106.597725 
L 310.392809 107.221509 
L 314.405393 110.951924 
L 318.417978 109.328112 
L 322.430562 110.616155 
L 326.443146 110.813252 
L 330.45573 113.483948 
L 334.468315 109.622294 
L 338.480899 114.39082 
L 342.493483 128.283772 
L 346.506067 107.641439 
L 350.518652 128.650734 
L 354.531236 112.388214 
L 358.54382 101.253369 
L 362.556404 128.287893 
L 366.568989 112.367333 
L 370.581573 115.296139 
L 374.594157 119.935197 
L 378.606742 120.392764 
L 382.619326 123.217287 
L 386.63191 128.526292 
L 390.644494 119.29336 
L 394.657079 125.952131 
L 398.669663 117.569656 
L 402.682247 121.442359 
L 406.694831 123.304246 
L 410.707416 129.080425 
" style="fill:none;stroke:#0000ff;stroke-dasharray:1.5,2.475;stroke-dashoffset:0;stroke-width:1.5;"/>
    <defs>
     <path d="M 0 1.5 
C 0.397805 1.5 0.77937 1.341951 1.06066 1.06066 
C 1.341951 0.77937 1.5 0.397805 1.5 0 
C 1.5 -0.397805 1.341951 -0.77937 1.06066 -1.06066 
C 0.77937 -1.341951 0.397805 -1.5 0 -1.5 
C -0.397805 -1.5 -0.77937 -1.341951 -1.06066 -1.06066 
C -1.341951 -0.77937 -1.5 -0.397805 -1.5 0 
C -1.5 0.397805 -1.341951 0.77937 -1.06066 1.06066 
C -0.77937 1.341951 -0.397805 1.5 0 1.5 
z
" id="md2a0ce8cae" style="stroke:#0000ff;"/>
    </defs>
    <g clip-path="url(#p55f427fc7d)">
     <use style="fill:#0000ff;stroke:#0000ff;" x="61.612584" xlink:href="#md2a0ce8cae" y="294.345369"/>
     <use style="fill:#0000ff;stroke:#0000ff;" x="65.625169" xlink:href="#md2a0ce8cae" y="276.47408"/>
     <use style="fill:#0000ff;stroke:#0000ff;" x="69.637753" xlink:href="#md2a0ce8cae" y="259.619702"/>
     <use style="fill:#0000ff;stroke:#0000ff;" x="73.650337" xlink:href="#md2a0ce8cae" y="243.854591"/>
     <use style="fill:#0000ff;stroke:#0000ff;" x="77.662921" xlink:href="#md2a0ce8cae" y="232.186764"/>
     <use style="fill:#0000ff;stroke:#0000ff;" x="81.675506" xlink:href="#md2a0ce8cae" y="218.11884"/>
     <use style="fill:#0000ff;stroke:#0000ff;" x="85.68809" xlink:href="#md2a0ce8cae" y="199.792337"/>
     <use style="fill:#0000ff;stroke:#0000ff;" x="89.700674" xlink:href="#md2a0ce8cae" y="189.777099"/>
     <use style="fill:#0000ff;stroke:#0000ff;" x="93.713258" xlink:href="#md2a0ce8cae" y="177.279522"/>
     <use style="fill:#0000ff;stroke:#0000ff;" x="97.725843" xlink:href="#md2a0ce8cae" y="170.404464"/>
     <use style="fill:#0000ff;stroke:#0000ff;" x="101.738427" xlink:href="#md2a0ce8cae" y="157.3876"/>
     <use style="fill:#0000ff;stroke:#0000ff;" x="105.751011" xlink:href="#md2a0ce8cae" y="148.043134"/>
     <use style="fill:#0000ff;stroke:#0000ff;" x="109.763596" xlink:href="#md2a0ce8cae" y="138.373119"/>
     <use style="fill:#0000ff;stroke:#0000ff;" x="113.77618" xlink:href="#md2a0ce8cae" y="143.518586"/>
     <use style="fill:#0000ff;stroke:#0000ff;" x="117.788764" xlink:href="#md2a0ce8cae" y="145.823302"/>
     <use style="fill:#0000ff;stroke:#0000ff;" x="121.801348" xlink:href="#md2a0ce8cae" y="137.257651"/>
     <use style="fill:#0000ff;stroke:#0000ff;" x="125.813933" xlink:href="#md2a0ce8cae" y="143.696149"/>
     <use style="fill:#0000ff;stroke:#0000ff;" x="129.826517" xlink:href="#md2a0ce8cae" y="130.984128"/>
     <use style="fill:#0000ff;stroke:#0000ff;" x="133.839101" xlink:href="#md2a0ce8cae" y="126.713394"/>
     <use style="fill:#0000ff;stroke:#0000ff;" x="137.851685" xlink:href="#md2a0ce8cae" y="134.829511"/>
     <use style="fill:#0000ff;stroke:#0000ff;" x="141.86427" xlink:href="#md2a0ce8cae" y="120.983663"/>
     <use style="fill:#0000ff;stroke:#0000ff;" x="145.876854" xlink:href="#md2a0ce8cae" y="118.52079"/>
     <use style="fill:#0000ff;stroke:#0000ff;" x="149.889438" xlink:href="#md2a0ce8cae" y="119.953035"/>
     <use style="fill:#0000ff;stroke:#0000ff;" x="153.902022" xlink:href="#md2a0ce8cae" y="112.218156"/>
     <use style="fill:#0000ff;stroke:#0000ff;" x="157.914607" xlink:href="#md2a0ce8cae" y="96.584273"/>
     <use style="fill:#0000ff;stroke:#0000ff;" x="161.927191" xlink:href="#md2a0ce8cae" y="88.191126"/>
     <use style="fill:#0000ff;stroke:#0000ff;" x="165.939775" xlink:href="#md2a0ce8cae" y="81.892127"/>
     <use style="fill:#0000ff;stroke:#0000ff;" x="169.95236" xlink:href="#md2a0ce8cae" y="101.69436"/>
     <use style="fill:#0000ff;stroke:#0000ff;" x="173.964944" xlink:href="#md2a0ce8cae" y="108.858222"/>
     <use style="fill:#0000ff;stroke:#0000ff;" x="177.977528" xlink:href="#md2a0ce8cae" y="110.623665"/>
     <use style="fill:#0000ff;stroke:#0000ff;" x="181.990112" xlink:href="#md2a0ce8cae" y="106.118789"/>
     <use style="fill:#0000ff;stroke:#0000ff;" x="186.002697" xlink:href="#md2a0ce8cae" y="105.014841"/>
     <use style="fill:#0000ff;stroke:#0000ff;" x="190.015281" xlink:href="#md2a0ce8cae" y="112.631272"/>
     <use style="fill:#0000ff;stroke:#0000ff;" x="194.027865" xlink:href="#md2a0ce8cae" y="107.104221"/>
     <use style="fill:#0000ff;stroke:#0000ff;" x="198.040449" xlink:href="#md2a0ce8cae" y="107.553135"/>
     <use style="fill:#0000ff;stroke:#0000ff;" x="202.053034" xlink:href="#md2a0ce8cae" y="100.743266"/>
     <use style="fill:#0000ff;stroke:#0000ff;" x="206.065618" xlink:href="#md2a0ce8cae" y="99.113667"/>
     <use style="fill:#0000ff;stroke:#0000ff;" x="210.078202" xlink:href="#md2a0ce8cae" y="99.159481"/>
     <use style="fill:#0000ff;stroke:#0000ff;" x="214.090787" xlink:href="#md2a0ce8cae" y="97.930469"/>
     <use style="fill:#0000ff;stroke:#0000ff;" x="218.103371" xlink:href="#md2a0ce8cae" y="97.463659"/>
     <use style="fill:#0000ff;stroke:#0000ff;" x="222.115955" xlink:href="#md2a0ce8cae" y="92.656366"/>
     <use style="fill:#0000ff;stroke:#0000ff;" x="226.128539" xlink:href="#md2a0ce8cae" y="97.655437"/>
     <use style="fill:#0000ff;stroke:#0000ff;" x="230.141124" xlink:href="#md2a0ce8cae" y="100.601135"/>
     <use style="fill:#0000ff;stroke:#0000ff;" x="234.153708" xlink:href="#md2a0ce8cae" y="100.780934"/>
     <use style="fill:#0000ff;stroke:#0000ff;" x="238.166292" xlink:href="#md2a0ce8cae" y="106.633156"/>
     <use style="fill:#0000ff;stroke:#0000ff;" x="242.178876" xlink:href="#md2a0ce8cae" y="108.073559"/>
     <use style="fill:#0000ff;stroke:#0000ff;" x="246.191461" xlink:href="#md2a0ce8cae" y="106.669717"/>
     <use style="fill:#0000ff;stroke:#0000ff;" x="250.204045" xlink:href="#md2a0ce8cae" y="109.400254"/>
     <use style="fill:#0000ff;stroke:#0000ff;" x="254.216629" xlink:href="#md2a0ce8cae" y="105.070927"/>
     <use style="fill:#0000ff;stroke:#0000ff;" x="258.229213" xlink:href="#md2a0ce8cae" y="111.420789"/>
     <use style="fill:#0000ff;stroke:#0000ff;" x="262.241798" xlink:href="#md2a0ce8cae" y="117.087936"/>
     <use style="fill:#0000ff;stroke:#0000ff;" x="266.254382" xlink:href="#md2a0ce8cae" y="109.076236"/>
     <use style="fill:#0000ff;stroke:#0000ff;" x="270.266966" xlink:href="#md2a0ce8cae" y="99.652784"/>
     <use style="fill:#0000ff;stroke:#0000ff;" x="274.279551" xlink:href="#md2a0ce8cae" y="92.701295"/>
     <use style="fill:#0000ff;stroke:#0000ff;" x="278.292135" xlink:href="#md2a0ce8cae" y="105.557025"/>
     <use style="fill:#0000ff;stroke:#0000ff;" x="282.304719" xlink:href="#md2a0ce8cae" y="101.408445"/>
     <use style="fill:#0000ff;stroke:#0000ff;" x="286.317303" xlink:href="#md2a0ce8cae" y="92.734275"/>
     <use style="fill:#0000ff;stroke:#0000ff;" x="290.329888" xlink:href="#md2a0ce8cae" y="94.671751"/>
     <use style="fill:#0000ff;stroke:#0000ff;" x="294.342472" xlink:href="#md2a0ce8cae" y="93.409495"/>
     <use style="fill:#0000ff;stroke:#0000ff;" x="298.355056" xlink:href="#md2a0ce8cae" y="104.627801"/>
     <use style="fill:#0000ff;stroke:#0000ff;" x="302.36764" xlink:href="#md2a0ce8cae" y="101.041023"/>
     <use style="fill:#0000ff;stroke:#0000ff;" x="306.380225" xlink:href="#md2a0ce8cae" y="106.597725"/>
     <use style="fill:#0000ff;stroke:#0000ff;" x="310.392809" xlink:href="#md2a0ce8cae" y="107.221509"/>
     <use style="fill:#0000ff;stroke:#0000ff;" x="314.405393" xlink:href="#md2a0ce8cae" y="110.951924"/>
     <use style="fill:#0000ff;stroke:#0000ff;" x="318.417978" xlink:href="#md2a0ce8cae" y="109.328112"/>
     <use style="fill:#0000ff;stroke:#0000ff;" x="322.430562" xlink:href="#md2a0ce8cae" y="110.616155"/>
     <use style="fill:#0000ff;stroke:#0000ff;" x="326.443146" xlink:href="#md2a0ce8cae" y="110.813252"/>
     <use style="fill:#0000ff;stroke:#0000ff;" x="330.45573" xlink:href="#md2a0ce8cae" y="113.483948"/>
     <use style="fill:#0000ff;stroke:#0000ff;" x="334.468315" xlink:href="#md2a0ce8cae" y="109.622294"/>
     <use style="fill:#0000ff;stroke:#0000ff;" x="338.480899" xlink:href="#md2a0ce8cae" y="114.39082"/>
     <use style="fill:#0000ff;stroke:#0000ff;" x="342.493483" xlink:href="#md2a0ce8cae" y="128.283772"/>
     <use style="fill:#0000ff;stroke:#0000ff;" x="346.506067" xlink:href="#md2a0ce8cae" y="107.641439"/>
     <use style="fill:#0000ff;stroke:#0000ff;" x="350.518652" xlink:href="#md2a0ce8cae" y="128.650734"/>
     <use style="fill:#0000ff;stroke:#0000ff;" x="354.531236" xlink:href="#md2a0ce8cae" y="112.388214"/>
     <use style="fill:#0000ff;stroke:#0000ff;" x="358.54382" xlink:href="#md2a0ce8cae" y="101.253369"/>
     <use style="fill:#0000ff;stroke:#0000ff;" x="362.556404" xlink:href="#md2a0ce8cae" y="128.287893"/>
     <use style="fill:#0000ff;stroke:#0000ff;" x="366.568989" xlink:href="#md2a0ce8cae" y="112.367333"/>
     <use style="fill:#0000ff;stroke:#0000ff;" x="370.581573" xlink:href="#md2a0ce8cae" y="115.296139"/>
     <use style="fill:#0000ff;stroke:#0000ff;" x="374.594157" xlink:href="#md2a0ce8cae" y="119.935197"/>
     <use style="fill:#0000ff;stroke:#0000ff;" x="378.606742" xlink:href="#md2a0ce8cae" y="120.392764"/>
     <use style="fill:#0000ff;stroke:#0000ff;" x="382.619326" xlink:href="#md2a0ce8cae" y="123.217287"/>
     <use style="fill:#0000ff;stroke:#0000ff;" x="386.63191" xlink:href="#md2a0ce8cae" y="128.526292"/>
     <use style="fill:#0000ff;stroke:#0000ff;" x="390.644494" xlink:href="#md2a0ce8cae" y="119.29336"/>
     <use style="fill:#0000ff;stroke:#0000ff;" x="394.657079" xlink:href="#md2a0ce8cae" y="125.952131"/>
     <use style="fill:#0000ff;stroke:#0000ff;" x="398.669663" xlink:href="#md2a0ce8cae" y="117.569656"/>
     <use style="fill:#0000ff;stroke:#0000ff;" x="402.682247" xlink:href="#md2a0ce8cae" y="121.442359"/>
     <use style="fill:#0000ff;stroke:#0000ff;" x="406.694831" xlink:href="#md2a0ce8cae" y="123.304246"/>
     <use style="fill:#0000ff;stroke:#0000ff;" x="410.707416" xlink:href="#md2a0ce8cae" y="129.080425"/>
    </g>
   </g>
   <g id="line2d_62">
    <path clip-path="url(#p55f427fc7d)" d="M 61.612584 295.488 
L 65.625169 279.543428 
L 69.637753 265.650734 
L 73.650337 249.461403 
L 77.662921 235.161408 
L 81.675506 225.001315 
L 85.68809 209.8693 
L 89.700674 200.5113 
L 93.713258 190.349418 
L 97.725843 176.578838 
L 101.738427 166.839467 
L 105.751011 156.029646 
L 109.763596 150.229249 
L 113.77618 152.937167 
L 117.788764 149.777262 
L 121.801348 144.158601 
L 125.813933 144.883 
L 129.826517 137.288729 
L 133.839101 133.289162 
L 137.851685 138.453492 
L 141.86427 122.860198 
L 145.876854 122.623185 
L 149.889438 121.559336 
L 153.902022 113.72057 
L 157.914607 97.041022 
L 161.927191 88.968857 
L 165.939775 86.924965 
L 169.95236 104.304836 
L 173.964944 113.269935 
L 177.977528 110.692747 
L 181.990112 108.253231 
L 186.002697 107.813123 
L 190.015281 109.340238 
L 194.027865 100.140064 
L 198.040449 98.80847 
L 202.053034 91.105065 
L 206.065618 84.882384 
L 210.078202 79.908038 
L 214.090787 72.407519 
L 218.103371 76.635659 
L 222.115955 72.213376 
L 226.128539 71.871867 
L 230.141124 74.289076 
L 234.153708 71.798628 
L 238.166292 77.878245 
L 242.178876 82.700727 
L 246.191461 85.604378 
L 250.204045 82.023038 
L 254.216629 79.080955 
L 258.229213 79.282838 
L 262.241798 74.971597 
L 266.254382 69.3006 
L 270.266966 58.83883 
L 274.279551 60.245225 
L 278.292135 62.699772 
L 282.304719 53.568 
L 286.317303 63.158257 
L 290.329888 60.774243 
L 294.342472 66.400329 
L 298.355056 68.968441 
L 302.36764 69.829219 
L 306.380225 71.706189 
L 310.392809 74.042531 
L 314.405393 78.080638 
L 318.417978 72.624589 
L 322.430562 82.833809 
L 326.443146 95.138376 
L 330.45573 135.160867 
L 334.468315 106.130711 
L 338.480899 86.173092 
L 342.493483 113.282742 
L 346.506067 145.478309 
L 350.518652 118.350933 
L 354.531236 83.393947 
L 358.54382 148.749861 
L 362.556404 136.835978 
L 366.568989 83.886984 
L 370.581573 85.924918 
L 374.594157 99.0946 
L 378.606742 90.14553 
L 382.619326 89.460017 
L 386.63191 90.836081 
L 390.644494 90.853727 
L 394.657079 86.810496 
L 398.669663 92.398375 
L 402.682247 99.191231 
L 406.694831 134.178382 
L 410.707416 112.50949 
" style="fill:none;stroke:#ff0000;stroke-dasharray:1.5,2.475;stroke-dashoffset:0;stroke-width:1.5;"/>
    <defs>
     <path d="M 0 1.5 
C 0.397805 1.5 0.77937 1.341951 1.06066 1.06066 
C 1.341951 0.77937 1.5 0.397805 1.5 0 
C 1.5 -0.397805 1.341951 -0.77937 1.06066 -1.06066 
C 0.77937 -1.341951 0.397805 -1.5 0 -1.5 
C -0.397805 -1.5 -0.77937 -1.341951 -1.06066 -1.06066 
C -1.341951 -0.77937 -1.5 -0.397805 -1.5 0 
C -1.5 0.397805 -1.341951 0.77937 -1.06066 1.06066 
C -0.77937 1.341951 -0.397805 1.5 0 1.5 
z
" id="m0ad9c9a081" style="stroke:#ff0000;"/>
    </defs>
    <g clip-path="url(#p55f427fc7d)">
     <use style="fill:#ff0000;stroke:#ff0000;" x="61.612584" xlink:href="#m0ad9c9a081" y="295.488"/>
     <use style="fill:#ff0000;stroke:#ff0000;" x="65.625169" xlink:href="#m0ad9c9a081" y="279.543428"/>
     <use style="fill:#ff0000;stroke:#ff0000;" x="69.637753" xlink:href="#m0ad9c9a081" y="265.650734"/>
     <use style="fill:#ff0000;stroke:#ff0000;" x="73.650337" xlink:href="#m0ad9c9a081" y="249.461403"/>
     <use style="fill:#ff0000;stroke:#ff0000;" x="77.662921" xlink:href="#m0ad9c9a081" y="235.161408"/>
     <use style="fill:#ff0000;stroke:#ff0000;" x="81.675506" xlink:href="#m0ad9c9a081" y="225.001315"/>
     <use style="fill:#ff0000;stroke:#ff0000;" x="85.68809" xlink:href="#m0ad9c9a081" y="209.8693"/>
     <use style="fill:#ff0000;stroke:#ff0000;" x="89.700674" xlink:href="#m0ad9c9a081" y="200.5113"/>
     <use style="fill:#ff0000;stroke:#ff0000;" x="93.713258" xlink:href="#m0ad9c9a081" y="190.349418"/>
     <use style="fill:#ff0000;stroke:#ff0000;" x="97.725843" xlink:href="#m0ad9c9a081" y="176.578838"/>
     <use style="fill:#ff0000;stroke:#ff0000;" x="101.738427" xlink:href="#m0ad9c9a081" y="166.839467"/>
     <use style="fill:#ff0000;stroke:#ff0000;" x="105.751011" xlink:href="#m0ad9c9a081" y="156.029646"/>
     <use style="fill:#ff0000;stroke:#ff0000;" x="109.763596" xlink:href="#m0ad9c9a081" y="150.229249"/>
     <use style="fill:#ff0000;stroke:#ff0000;" x="113.77618" xlink:href="#m0ad9c9a081" y="152.937167"/>
     <use style="fill:#ff0000;stroke:#ff0000;" x="117.788764" xlink:href="#m0ad9c9a081" y="149.777262"/>
     <use style="fill:#ff0000;stroke:#ff0000;" x="121.801348" xlink:href="#m0ad9c9a081" y="144.158601"/>
     <use style="fill:#ff0000;stroke:#ff0000;" x="125.813933" xlink:href="#m0ad9c9a081" y="144.883"/>
     <use style="fill:#ff0000;stroke:#ff0000;" x="129.826517" xlink:href="#m0ad9c9a081" y="137.288729"/>
     <use style="fill:#ff0000;stroke:#ff0000;" x="133.839101" xlink:href="#m0ad9c9a081" y="133.289162"/>
     <use style="fill:#ff0000;stroke:#ff0000;" x="137.851685" xlink:href="#m0ad9c9a081" y="138.453492"/>
     <use style="fill:#ff0000;stroke:#ff0000;" x="141.86427" xlink:href="#m0ad9c9a081" y="122.860198"/>
     <use style="fill:#ff0000;stroke:#ff0000;" x="145.876854" xlink:href="#m0ad9c9a081" y="122.623185"/>
     <use style="fill:#ff0000;stroke:#ff0000;" x="149.889438" xlink:href="#m0ad9c9a081" y="121.559336"/>
     <use style="fill:#ff0000;stroke:#ff0000;" x="153.902022" xlink:href="#m0ad9c9a081" y="113.72057"/>
     <use style="fill:#ff0000;stroke:#ff0000;" x="157.914607" xlink:href="#m0ad9c9a081" y="97.041022"/>
     <use style="fill:#ff0000;stroke:#ff0000;" x="161.927191" xlink:href="#m0ad9c9a081" y="88.968857"/>
     <use style="fill:#ff0000;stroke:#ff0000;" x="165.939775" xlink:href="#m0ad9c9a081" y="86.924965"/>
     <use style="fill:#ff0000;stroke:#ff0000;" x="169.95236" xlink:href="#m0ad9c9a081" y="104.304836"/>
     <use style="fill:#ff0000;stroke:#ff0000;" x="173.964944" xlink:href="#m0ad9c9a081" y="113.269935"/>
     <use style="fill:#ff0000;stroke:#ff0000;" x="177.977528" xlink:href="#m0ad9c9a081" y="110.692747"/>
     <use style="fill:#ff0000;stroke:#ff0000;" x="181.990112" xlink:href="#m0ad9c9a081" y="108.253231"/>
     <use style="fill:#ff0000;stroke:#ff0000;" x="186.002697" xlink:href="#m0ad9c9a081" y="107.813123"/>
     <use style="fill:#ff0000;stroke:#ff0000;" x="190.015281" xlink:href="#m0ad9c9a081" y="109.340238"/>
     <use style="fill:#ff0000;stroke:#ff0000;" x="194.027865" xlink:href="#m0ad9c9a081" y="100.140064"/>
     <use style="fill:#ff0000;stroke:#ff0000;" x="198.040449" xlink:href="#m0ad9c9a081" y="98.80847"/>
     <use style="fill:#ff0000;stroke:#ff0000;" x="202.053034" xlink:href="#m0ad9c9a081" y="91.105065"/>
     <use style="fill:#ff0000;stroke:#ff0000;" x="206.065618" xlink:href="#m0ad9c9a081" y="84.882384"/>
     <use style="fill:#ff0000;stroke:#ff0000;" x="210.078202" xlink:href="#m0ad9c9a081" y="79.908038"/>
     <use style="fill:#ff0000;stroke:#ff0000;" x="214.090787" xlink:href="#m0ad9c9a081" y="72.407519"/>
     <use style="fill:#ff0000;stroke:#ff0000;" x="218.103371" xlink:href="#m0ad9c9a081" y="76.635659"/>
     <use style="fill:#ff0000;stroke:#ff0000;" x="222.115955" xlink:href="#m0ad9c9a081" y="72.213376"/>
     <use style="fill:#ff0000;stroke:#ff0000;" x="226.128539" xlink:href="#m0ad9c9a081" y="71.871867"/>
     <use style="fill:#ff0000;stroke:#ff0000;" x="230.141124" xlink:href="#m0ad9c9a081" y="74.289076"/>
     <use style="fill:#ff0000;stroke:#ff0000;" x="234.153708" xlink:href="#m0ad9c9a081" y="71.798628"/>
     <use style="fill:#ff0000;stroke:#ff0000;" x="238.166292" xlink:href="#m0ad9c9a081" y="77.878245"/>
     <use style="fill:#ff0000;stroke:#ff0000;" x="242.178876" xlink:href="#m0ad9c9a081" y="82.700727"/>
     <use style="fill:#ff0000;stroke:#ff0000;" x="246.191461" xlink:href="#m0ad9c9a081" y="85.604378"/>
     <use style="fill:#ff0000;stroke:#ff0000;" x="250.204045" xlink:href="#m0ad9c9a081" y="82.023038"/>
     <use style="fill:#ff0000;stroke:#ff0000;" x="254.216629" xlink:href="#m0ad9c9a081" y="79.080955"/>
     <use style="fill:#ff0000;stroke:#ff0000;" x="258.229213" xlink:href="#m0ad9c9a081" y="79.282838"/>
     <use style="fill:#ff0000;stroke:#ff0000;" x="262.241798" xlink:href="#m0ad9c9a081" y="74.971597"/>
     <use style="fill:#ff0000;stroke:#ff0000;" x="266.254382" xlink:href="#m0ad9c9a081" y="69.3006"/>
     <use style="fill:#ff0000;stroke:#ff0000;" x="270.266966" xlink:href="#m0ad9c9a081" y="58.83883"/>
     <use style="fill:#ff0000;stroke:#ff0000;" x="274.279551" xlink:href="#m0ad9c9a081" y="60.245225"/>
     <use style="fill:#ff0000;stroke:#ff0000;" x="278.292135" xlink:href="#m0ad9c9a081" y="62.699772"/>
     <use style="fill:#ff0000;stroke:#ff0000;" x="282.304719" xlink:href="#m0ad9c9a081" y="53.568"/>
     <use style="fill:#ff0000;stroke:#ff0000;" x="286.317303" xlink:href="#m0ad9c9a081" y="63.158257"/>
     <use style="fill:#ff0000;stroke:#ff0000;" x="290.329888" xlink:href="#m0ad9c9a081" y="60.774243"/>
     <use style="fill:#ff0000;stroke:#ff0000;" x="294.342472" xlink:href="#m0ad9c9a081" y="66.400329"/>
     <use style="fill:#ff0000;stroke:#ff0000;" x="298.355056" xlink:href="#m0ad9c9a081" y="68.968441"/>
     <use style="fill:#ff0000;stroke:#ff0000;" x="302.36764" xlink:href="#m0ad9c9a081" y="69.829219"/>
     <use style="fill:#ff0000;stroke:#ff0000;" x="306.380225" xlink:href="#m0ad9c9a081" y="71.706189"/>
     <use style="fill:#ff0000;stroke:#ff0000;" x="310.392809" xlink:href="#m0ad9c9a081" y="74.042531"/>
     <use style="fill:#ff0000;stroke:#ff0000;" x="314.405393" xlink:href="#m0ad9c9a081" y="78.080638"/>
     <use style="fill:#ff0000;stroke:#ff0000;" x="318.417978" xlink:href="#m0ad9c9a081" y="72.624589"/>
     <use style="fill:#ff0000;stroke:#ff0000;" x="322.430562" xlink:href="#m0ad9c9a081" y="82.833809"/>
     <use style="fill:#ff0000;stroke:#ff0000;" x="326.443146" xlink:href="#m0ad9c9a081" y="95.138376"/>
     <use style="fill:#ff0000;stroke:#ff0000;" x="330.45573" xlink:href="#m0ad9c9a081" y="135.160867"/>
     <use style="fill:#ff0000;stroke:#ff0000;" x="334.468315" xlink:href="#m0ad9c9a081" y="106.130711"/>
     <use style="fill:#ff0000;stroke:#ff0000;" x="338.480899" xlink:href="#m0ad9c9a081" y="86.173092"/>
     <use style="fill:#ff0000;stroke:#ff0000;" x="342.493483" xlink:href="#m0ad9c9a081" y="113.282742"/>
     <use style="fill:#ff0000;stroke:#ff0000;" x="346.506067" xlink:href="#m0ad9c9a081" y="145.478309"/>
     <use style="fill:#ff0000;stroke:#ff0000;" x="350.518652" xlink:href="#m0ad9c9a081" y="118.350933"/>
     <use style="fill:#ff0000;stroke:#ff0000;" x="354.531236" xlink:href="#m0ad9c9a081" y="83.393947"/>
     <use style="fill:#ff0000;stroke:#ff0000;" x="358.54382" xlink:href="#m0ad9c9a081" y="148.749861"/>
     <use style="fill:#ff0000;stroke:#ff0000;" x="362.556404" xlink:href="#m0ad9c9a081" y="136.835978"/>
     <use style="fill:#ff0000;stroke:#ff0000;" x="366.568989" xlink:href="#m0ad9c9a081" y="83.886984"/>
     <use style="fill:#ff0000;stroke:#ff0000;" x="370.581573" xlink:href="#m0ad9c9a081" y="85.924918"/>
     <use style="fill:#ff0000;stroke:#ff0000;" x="374.594157" xlink:href="#m0ad9c9a081" y="99.0946"/>
     <use style="fill:#ff0000;stroke:#ff0000;" x="378.606742" xlink:href="#m0ad9c9a081" y="90.14553"/>
     <use style="fill:#ff0000;stroke:#ff0000;" x="382.619326" xlink:href="#m0ad9c9a081" y="89.460017"/>
     <use style="fill:#ff0000;stroke:#ff0000;" x="386.63191" xlink:href="#m0ad9c9a081" y="90.836081"/>
     <use style="fill:#ff0000;stroke:#ff0000;" x="390.644494" xlink:href="#m0ad9c9a081" y="90.853727"/>
     <use style="fill:#ff0000;stroke:#ff0000;" x="394.657079" xlink:href="#m0ad9c9a081" y="86.810496"/>
     <use style="fill:#ff0000;stroke:#ff0000;" x="398.669663" xlink:href="#m0ad9c9a081" y="92.398375"/>
     <use style="fill:#ff0000;stroke:#ff0000;" x="402.682247" xlink:href="#m0ad9c9a081" y="99.191231"/>
     <use style="fill:#ff0000;stroke:#ff0000;" x="406.694831" xlink:href="#m0ad9c9a081" y="134.178382"/>
     <use style="fill:#ff0000;stroke:#ff0000;" x="410.707416" xlink:href="#m0ad9c9a081" y="112.50949"/>
    </g>
   </g>
   <g id="line2d_63">
    <path clip-path="url(#p55f427fc7d)" d="M 61.612584 294.916685 
L 65.625169 278.008754 
L 69.637753 262.635218 
L 73.650337 246.657997 
L 77.662921 233.674086 
L 81.675506 221.560077 
L 85.68809 204.830819 
L 89.700674 195.144199 
L 93.713258 183.81447 
L 97.725843 173.491651 
L 101.738427 162.113534 
L 105.751011 152.03639 
L 109.763596 144.301184 
L 113.77618 148.227877 
L 117.788764 147.800282 
L 121.801348 140.708126 
L 125.813933 144.289575 
L 129.826517 134.136428 
L 133.839101 130.001278 
L 137.851685 136.641502 
L 141.86427 121.921931 
L 145.876854 120.571987 
L 149.889438 120.756185 
L 153.902022 112.969363 
L 157.914607 96.812648 
L 161.927191 88.579991 
L 165.939775 84.408546 
L 169.95236 102.999598 
L 173.964944 111.064079 
L 177.977528 110.658206 
L 181.990112 107.18601 
L 186.002697 106.413982 
L 190.015281 110.985755 
L 194.027865 103.622143 
L 198.040449 103.180803 
L 202.053034 95.924166 
L 206.065618 91.998025 
L 210.078202 89.53376 
L 214.090787 85.168994 
L 218.103371 87.049659 
L 222.115955 82.434871 
L 226.128539 84.763652 
L 230.141124 87.445105 
L 234.153708 86.289781 
L 238.166292 92.2557 
L 242.178876 95.387143 
L 246.191461 96.137047 
L 250.204045 95.711646 
L 254.216629 92.075941 
L 258.229213 95.351814 
L 262.241798 96.029766 
L 266.254382 89.188418 
L 270.266966 79.245807 
L 274.279551 76.47326 
L 278.292135 84.128399 
L 282.304719 77.488223 
L 286.317303 77.946266 
L 290.329888 77.722997 
L 294.342472 79.904912 
L 298.355056 86.798121 
L 302.36764 85.435121 
L 306.380225 89.151957 
L 310.392809 90.63202 
L 314.405393 94.516281 
L 318.417978 90.976351 
L 322.430562 96.724982 
L 326.443146 102.975814 
L 330.45573 124.322407 
L 334.468315 107.876502 
L 338.480899 100.281956 
L 342.493483 120.783257 
L 346.506067 126.559874 
L 350.518652 123.500834 
L 354.531236 97.891081 
L 358.54382 125.001615 
L 362.556404 132.561935 
L 366.568989 98.127158 
L 370.581573 100.610528 
L 374.594157 109.514899 
L 378.606742 105.269147 
L 382.619326 106.338652 
L 386.63191 109.681187 
L 390.644494 105.073544 
L 394.657079 106.381314 
L 398.669663 104.984016 
L 402.682247 110.316795 
L 406.694831 128.741314 
L 410.707416 120.794958 
" style="fill:none;stroke:#008000;stroke-dasharray:1.5,2.475;stroke-dashoffset:0;stroke-width:1.5;"/>
    <defs>
     <path d="M 0 1.5 
C 0.397805 1.5 0.77937 1.341951 1.06066 1.06066 
C 1.341951 0.77937 1.5 0.397805 1.5 0 
C 1.5 -0.397805 1.341951 -0.77937 1.06066 -1.06066 
C 0.77937 -1.341951 0.397805 -1.5 0 -1.5 
C -0.397805 -1.5 -0.77937 -1.341951 -1.06066 -1.06066 
C -1.341951 -0.77937 -1.5 -0.397805 -1.5 0 
C -1.5 0.397805 -1.341951 0.77937 -1.06066 1.06066 
C -0.77937 1.341951 -0.397805 1.5 0 1.5 
z
" id="m70807eee7c" style="stroke:#008000;"/>
    </defs>
    <g clip-path="url(#p55f427fc7d)">
     <use style="fill:#008000;stroke:#008000;" x="61.612584" xlink:href="#m70807eee7c" y="294.916685"/>
     <use style="fill:#008000;stroke:#008000;" x="65.625169" xlink:href="#m70807eee7c" y="278.008754"/>
     <use style="fill:#008000;stroke:#008000;" x="69.637753" xlink:href="#m70807eee7c" y="262.635218"/>
     <use style="fill:#008000;stroke:#008000;" x="73.650337" xlink:href="#m70807eee7c" y="246.657997"/>
     <use style="fill:#008000;stroke:#008000;" x="77.662921" xlink:href="#m70807eee7c" y="233.674086"/>
     <use style="fill:#008000;stroke:#008000;" x="81.675506" xlink:href="#m70807eee7c" y="221.560077"/>
     <use style="fill:#008000;stroke:#008000;" x="85.68809" xlink:href="#m70807eee7c" y="204.830819"/>
     <use style="fill:#008000;stroke:#008000;" x="89.700674" xlink:href="#m70807eee7c" y="195.144199"/>
     <use style="fill:#008000;stroke:#008000;" x="93.713258" xlink:href="#m70807eee7c" y="183.81447"/>
     <use style="fill:#008000;stroke:#008000;" x="97.725843" xlink:href="#m70807eee7c" y="173.491651"/>
     <use style="fill:#008000;stroke:#008000;" x="101.738427" xlink:href="#m70807eee7c" y="162.113534"/>
     <use style="fill:#008000;stroke:#008000;" x="105.751011" xlink:href="#m70807eee7c" y="152.03639"/>
     <use style="fill:#008000;stroke:#008000;" x="109.763596" xlink:href="#m70807eee7c" y="144.301184"/>
     <use style="fill:#008000;stroke:#008000;" x="113.77618" xlink:href="#m70807eee7c" y="148.227877"/>
     <use style="fill:#008000;stroke:#008000;" x="117.788764" xlink:href="#m70807eee7c" y="147.800282"/>
     <use style="fill:#008000;stroke:#008000;" x="121.801348" xlink:href="#m70807eee7c" y="140.708126"/>
     <use style="fill:#008000;stroke:#008000;" x="125.813933" xlink:href="#m70807eee7c" y="144.289575"/>
     <use style="fill:#008000;stroke:#008000;" x="129.826517" xlink:href="#m70807eee7c" y="134.136428"/>
     <use style="fill:#008000;stroke:#008000;" x="133.839101" xlink:href="#m70807eee7c" y="130.001278"/>
     <use style="fill:#008000;stroke:#008000;" x="137.851685" xlink:href="#m70807eee7c" y="136.641502"/>
     <use style="fill:#008000;stroke:#008000;" x="141.86427" xlink:href="#m70807eee7c" y="121.921931"/>
     <use style="fill:#008000;stroke:#008000;" x="145.876854" xlink:href="#m70807eee7c" y="120.571987"/>
     <use style="fill:#008000;stroke:#008000;" x="149.889438" xlink:href="#m70807eee7c" y="120.756185"/>
     <use style="fill:#008000;stroke:#008000;" x="153.902022" xlink:href="#m70807eee7c" y="112.969363"/>
     <use style="fill:#008000;stroke:#008000;" x="157.914607" xlink:href="#m70807eee7c" y="96.812648"/>
     <use style="fill:#008000;stroke:#008000;" x="161.927191" xlink:href="#m70807eee7c" y="88.579991"/>
     <use style="fill:#008000;stroke:#008000;" x="165.939775" xlink:href="#m70807eee7c" y="84.408546"/>
     <use style="fill:#008000;stroke:#008000;" x="169.95236" xlink:href="#m70807eee7c" y="102.999598"/>
     <use style="fill:#008000;stroke:#008000;" x="173.964944" xlink:href="#m70807eee7c" y="111.064079"/>
     <use style="fill:#008000;stroke:#008000;" x="177.977528" xlink:href="#m70807eee7c" y="110.658206"/>
     <use style="fill:#008000;stroke:#008000;" x="181.990112" xlink:href="#m70807eee7c" y="107.18601"/>
     <use style="fill:#008000;stroke:#008000;" x="186.002697" xlink:href="#m70807eee7c" y="106.413982"/>
     <use style="fill:#008000;stroke:#008000;" x="190.015281" xlink:href="#m70807eee7c" y="110.985755"/>
     <use style="fill:#008000;stroke:#008000;" x="194.027865" xlink:href="#m70807eee7c" y="103.622143"/>
     <use style="fill:#008000;stroke:#008000;" x="198.040449" xlink:href="#m70807eee7c" y="103.180803"/>
     <use style="fill:#008000;stroke:#008000;" x="202.053034" xlink:href="#m70807eee7c" y="95.924166"/>
     <use style="fill:#008000;stroke:#008000;" x="206.065618" xlink:href="#m70807eee7c" y="91.998025"/>
     <use style="fill:#008000;stroke:#008000;" x="210.078202" xlink:href="#m70807eee7c" y="89.53376"/>
     <use style="fill:#008000;stroke:#008000;" x="214.090787" xlink:href="#m70807eee7c" y="85.168994"/>
     <use style="fill:#008000;stroke:#008000;" x="218.103371" xlink:href="#m70807eee7c" y="87.049659"/>
     <use style="fill:#008000;stroke:#008000;" x="222.115955" xlink:href="#m70807eee7c" y="82.434871"/>
     <use style="fill:#008000;stroke:#008000;" x="226.128539" xlink:href="#m70807eee7c" y="84.763652"/>
     <use style="fill:#008000;stroke:#008000;" x="230.141124" xlink:href="#m70807eee7c" y="87.445105"/>
     <use style="fill:#008000;stroke:#008000;" x="234.153708" xlink:href="#m70807eee7c" y="86.289781"/>
     <use style="fill:#008000;stroke:#008000;" x="238.166292" xlink:href="#m70807eee7c" y="92.2557"/>
     <use style="fill:#008000;stroke:#008000;" x="242.178876" xlink:href="#m70807eee7c" y="95.387143"/>
     <use style="fill:#008000;stroke:#008000;" x="246.191461" xlink:href="#m70807eee7c" y="96.137047"/>
     <use style="fill:#008000;stroke:#008000;" x="250.204045" xlink:href="#m70807eee7c" y="95.711646"/>
     <use style="fill:#008000;stroke:#008000;" x="254.216629" xlink:href="#m70807eee7c" y="92.075941"/>
     <use style="fill:#008000;stroke:#008000;" x="258.229213" xlink:href="#m70807eee7c" y="95.351814"/>
     <use style="fill:#008000;stroke:#008000;" x="262.241798" xlink:href="#m70807eee7c" y="96.029766"/>
     <use style="fill:#008000;stroke:#008000;" x="266.254382" xlink:href="#m70807eee7c" y="89.188418"/>
     <use style="fill:#008000;stroke:#008000;" x="270.266966" xlink:href="#m70807eee7c" y="79.245807"/>
     <use style="fill:#008000;stroke:#008000;" x="274.279551" xlink:href="#m70807eee7c" y="76.47326"/>
     <use style="fill:#008000;stroke:#008000;" x="278.292135" xlink:href="#m70807eee7c" y="84.128399"/>
     <use style="fill:#008000;stroke:#008000;" x="282.304719" xlink:href="#m70807eee7c" y="77.488223"/>
     <use style="fill:#008000;stroke:#008000;" x="286.317303" xlink:href="#m70807eee7c" y="77.946266"/>
     <use style="fill:#008000;stroke:#008000;" x="290.329888" xlink:href="#m70807eee7c" y="77.722997"/>
     <use style="fill:#008000;stroke:#008000;" x="294.342472" xlink:href="#m70807eee7c" y="79.904912"/>
     <use style="fill:#008000;stroke:#008000;" x="298.355056" xlink:href="#m70807eee7c" y="86.798121"/>
     <use style="fill:#008000;stroke:#008000;" x="302.36764" xlink:href="#m70807eee7c" y="85.435121"/>
     <use style="fill:#008000;stroke:#008000;" x="306.380225" xlink:href="#m70807eee7c" y="89.151957"/>
     <use style="fill:#008000;stroke:#008000;" x="310.392809" xlink:href="#m70807eee7c" y="90.63202"/>
     <use style="fill:#008000;stroke:#008000;" x="314.405393" xlink:href="#m70807eee7c" y="94.516281"/>
     <use style="fill:#008000;stroke:#008000;" x="318.417978" xlink:href="#m70807eee7c" y="90.976351"/>
     <use style="fill:#008000;stroke:#008000;" x="322.430562" xlink:href="#m70807eee7c" y="96.724982"/>
     <use style="fill:#008000;stroke:#008000;" x="326.443146" xlink:href="#m70807eee7c" y="102.975814"/>
     <use style="fill:#008000;stroke:#008000;" x="330.45573" xlink:href="#m70807eee7c" y="124.322407"/>
     <use style="fill:#008000;stroke:#008000;" x="334.468315" xlink:href="#m70807eee7c" y="107.876502"/>
     <use style="fill:#008000;stroke:#008000;" x="338.480899" xlink:href="#m70807eee7c" y="100.281956"/>
     <use style="fill:#008000;stroke:#008000;" x="342.493483" xlink:href="#m70807eee7c" y="120.783257"/>
     <use style="fill:#008000;stroke:#008000;" x="346.506067" xlink:href="#m70807eee7c" y="126.559874"/>
     <use style="fill:#008000;stroke:#008000;" x="350.518652" xlink:href="#m70807eee7c" y="123.500834"/>
     <use style="fill:#008000;stroke:#008000;" x="354.531236" xlink:href="#m70807eee7c" y="97.891081"/>
     <use style="fill:#008000;stroke:#008000;" x="358.54382" xlink:href="#m70807eee7c" y="125.001615"/>
     <use style="fill:#008000;stroke:#008000;" x="362.556404" xlink:href="#m70807eee7c" y="132.561935"/>
     <use style="fill:#008000;stroke:#008000;" x="366.568989" xlink:href="#m70807eee7c" y="98.127158"/>
     <use style="fill:#008000;stroke:#008000;" x="370.581573" xlink:href="#m70807eee7c" y="100.610528"/>
     <use style="fill:#008000;stroke:#008000;" x="374.594157" xlink:href="#m70807eee7c" y="109.514899"/>
     <use style="fill:#008000;stroke:#008000;" x="378.606742" xlink:href="#m70807eee7c" y="105.269147"/>
     <use style="fill:#008000;stroke:#008000;" x="382.619326" xlink:href="#m70807eee7c" y="106.338652"/>
     <use style="fill:#008000;stroke:#008000;" x="386.63191" xlink:href="#m70807eee7c" y="109.681187"/>
     <use style="fill:#008000;stroke:#008000;" x="390.644494" xlink:href="#m70807eee7c" y="105.073544"/>
     <use style="fill:#008000;stroke:#008000;" x="394.657079" xlink:href="#m70807eee7c" y="106.381314"/>
     <use style="fill:#008000;stroke:#008000;" x="398.669663" xlink:href="#m70807eee7c" y="104.984016"/>
     <use style="fill:#008000;stroke:#008000;" x="402.682247" xlink:href="#m70807eee7c" y="110.316795"/>
     <use style="fill:#008000;stroke:#008000;" x="406.694831" xlink:href="#m70807eee7c" y="128.741314"/>
     <use style="fill:#008000;stroke:#008000;" x="410.707416" xlink:href="#m70807eee7c" y="120.794958"/>
    </g>
   </g>
   <g id="patch_3">
    <path d="M 57.6 307.584 
L 57.6 41.472 
" style="fill:none;stroke:#000000;stroke-linecap:square;stroke-linejoin:miter;stroke-width:0.8;"/>
   </g>
   <g id="patch_4">
    <path d="M 414.72 307.584 
L 414.72 41.472 
" style="fill:none;stroke:#000000;stroke-linecap:square;stroke-linejoin:miter;stroke-width:0.8;"/>
   </g>
   <g id="patch_5">
    <path d="M 57.6 307.584 
L 414.72 307.584 
" style="fill:none;stroke:#000000;stroke-linecap:square;stroke-linejoin:miter;stroke-width:0.8;"/>
   </g>
   <g id="patch_6">
    <path d="M 57.6 41.472 
L 414.72 41.472 
" style="fill:none;stroke:#000000;stroke-linecap:square;stroke-linejoin:miter;stroke-width:0.8;"/>
   </g>
   <g id="text_33">
    <!-- radix sort 3 on pre_transpose31 -->
    <g transform="translate(140.265938 35.472)scale(0.12 -0.12)">
     <defs>
      <path d="M 9.421875 54.6875 
L 18.40625 54.6875 
L 18.40625 0 
L 9.421875 0 
z
M 9.421875 75.984375 
L 18.40625 75.984375 
L 18.40625 64.59375 
L 9.421875 64.59375 
z
" id="DejaVuSans-105"/>
      <path d="M 54.890625 54.6875 
L 35.109375 28.078125 
L 55.90625 0 
L 45.3125 0 
L 29.390625 21.484375 
L 13.484375 0 
L 2.875 0 
L 24.125 28.609375 
L 4.6875 54.6875 
L 15.28125 54.6875 
L 29.78125 35.203125 
L 44.28125 54.6875 
z
" id="DejaVuSans-120"/>
      <path d="M 30.609375 48.390625 
Q 23.390625 48.390625 19.1875 42.75 
Q 14.984375 37.109375 14.984375 27.296875 
Q 14.984375 17.484375 19.15625 11.84375 
Q 23.34375 6.203125 30.609375 6.203125 
Q 37.796875 6.203125 41.984375 11.859375 
Q 46.1875 17.53125 46.1875 27.296875 
Q 46.1875 37.015625 41.984375 42.703125 
Q 37.796875 48.390625 30.609375 48.390625 
z
M 30.609375 56 
Q 42.328125 56 49.015625 48.375 
Q 55.71875 40.765625 55.71875 27.296875 
Q 55.71875 13.875 49.015625 6.21875 
Q 42.328125 -1.421875 30.609375 -1.421875 
Q 18.84375 -1.421875 12.171875 6.21875 
Q 5.515625 13.875 5.515625 27.296875 
Q 5.515625 40.765625 12.171875 48.375 
Q 18.84375 56 30.609375 56 
z
" id="DejaVuSans-111"/>
      <path d="M 54.890625 33.015625 
L 54.890625 0 
L 45.90625 0 
L 45.90625 32.71875 
Q 45.90625 40.484375 42.875 44.328125 
Q 39.84375 48.1875 33.796875 48.1875 
Q 26.515625 48.1875 22.3125 43.546875 
Q 18.109375 38.921875 18.109375 30.90625 
L 18.109375 0 
L 9.078125 0 
L 9.078125 54.6875 
L 18.109375 54.6875 
L 18.109375 46.1875 
Q 21.34375 51.125 25.703125 53.5625 
Q 30.078125 56 35.796875 56 
Q 45.21875 56 50.046875 50.171875 
Q 54.890625 44.34375 54.890625 33.015625 
z
" id="DejaVuSans-110"/>
      <path d="M 50.984375 -16.609375 
L 50.984375 -23.578125 
L -0.984375 -23.578125 
L -0.984375 -16.609375 
z
" id="DejaVuSans-95"/>
     </defs>
     <use xlink:href="#DejaVuSans-114"/>
     <use x="41.113281" xlink:href="#DejaVuSans-97"/>
     <use x="102.392578" xlink:href="#DejaVuSans-100"/>
     <use x="165.869141" xlink:href="#DejaVuSans-105"/>
     <use x="193.652344" xlink:href="#DejaVuSans-120"/>
     <use x="252.832031" xlink:href="#DejaVuSans-32"/>
     <use x="284.619141" xlink:href="#DejaVuSans-115"/>
     <use x="336.71875" xlink:href="#DejaVuSans-111"/>
     <use x="397.900391" xlink:href="#DejaVuSans-114"/>
     <use x="439.013672" xlink:href="#DejaVuSans-116"/>
     <use x="478.222656" xlink:href="#DejaVuSans-32"/>
     <use x="510.009766" xlink:href="#DejaVuSans-51"/>
     <use x="573.632812" xlink:href="#DejaVuSans-32"/>
     <use x="605.419922" xlink:href="#DejaVuSans-111"/>
     <use x="666.601562" xlink:href="#DejaVuSans-110"/>
     <use x="729.980469" xlink:href="#DejaVuSans-32"/>
     <use x="761.767578" xlink:href="#DejaVuSans-112"/>
     <use x="825.244141" xlink:href="#DejaVuSans-114"/>
     <use x="864.107422" xlink:href="#DejaVuSans-101"/>
     <use x="925.630859" xlink:href="#DejaVuSans-95"/>
     <use x="975.630859" xlink:href="#DejaVuSans-116"/>
     <use x="1014.839844" xlink:href="#DejaVuSans-114"/>
     <use x="1055.953125" xlink:href="#DejaVuSans-97"/>
     <use x="1117.232422" xlink:href="#DejaVuSans-110"/>
     <use x="1180.611328" xlink:href="#DejaVuSans-115"/>
     <use x="1232.710938" xlink:href="#DejaVuSans-112"/>
     <use x="1296.1875" xlink:href="#DejaVuSans-111"/>
     <use x="1357.369141" xlink:href="#DejaVuSans-115"/>
     <use x="1409.46875" xlink:href="#DejaVuSans-101"/>
     <use x="1470.992188" xlink:href="#DejaVuSans-51"/>
     <use x="1534.615234" xlink:href="#DejaVuSans-49"/>
    </g>
   </g>
   <g id="legend_1">
    <g id="patch_7">
     <path d="M 313.152813 302.584 
L 407.72 302.584 
Q 409.72 302.584 409.72 300.584 
L 409.72 257.2715 
Q 409.72 255.2715 407.72 255.2715 
L 313.152813 255.2715 
Q 311.152813 255.2715 311.152813 257.2715 
L 311.152813 300.584 
Q 311.152813 302.584 313.152813 302.584 
z
" style="fill:#ffffff;opacity:0.8;stroke:#cccccc;stroke-linejoin:miter;"/>
    </g>
    <g id="line2d_64">
     <path d="M 315.152813 263.369937 
L 335.152813 263.369937 
" style="fill:none;stroke:#0000ff;stroke-dasharray:1.5,2.475;stroke-dashoffset:0;stroke-width:1.5;"/>
    </g>
    <g id="line2d_65">
     <g>
      <use style="fill:#0000ff;stroke:#0000ff;" x="325.152813" xlink:href="#md2a0ce8cae" y="263.369937"/>
     </g>
    </g>
    <g id="text_34">
     <!-- transpose -->
     <g transform="translate(343.152813 266.869937)scale(0.1 -0.1)">
      <use xlink:href="#DejaVuSans-116"/>
      <use x="39.208984" xlink:href="#DejaVuSans-114"/>
      <use x="80.322266" xlink:href="#DejaVuSans-97"/>
      <use x="141.601562" xlink:href="#DejaVuSans-110"/>
      <use x="204.980469" xlink:href="#DejaVuSans-115"/>
      <use x="257.080078" xlink:href="#DejaVuSans-112"/>
      <use x="320.556641" xlink:href="#DejaVuSans-111"/>
      <use x="381.738281" xlink:href="#DejaVuSans-115"/>
      <use x="433.837891" xlink:href="#DejaVuSans-101"/>
     </g>
    </g>
    <g id="line2d_66">
     <path d="M 315.152813 278.048063 
L 335.152813 278.048063 
" style="fill:none;stroke:#ff0000;stroke-dasharray:1.5,2.475;stroke-dashoffset:0;stroke-width:1.5;"/>
    </g>
    <g id="line2d_67">
     <g>
      <use style="fill:#ff0000;stroke:#ff0000;" x="325.152813" xlink:href="#m0ad9c9a081" y="278.048063"/>
     </g>
    </g>
    <g id="text_35">
     <!-- transpose_tr -->
     <g transform="translate(343.152813 281.548063)scale(0.1 -0.1)">
      <use xlink:href="#DejaVuSans-116"/>
      <use x="39.208984" xlink:href="#DejaVuSans-114"/>
      <use x="80.322266" xlink:href="#DejaVuSans-97"/>
      <use x="141.601562" xlink:href="#DejaVuSans-110"/>
      <use x="204.980469" xlink:href="#DejaVuSans-115"/>
      <use x="257.080078" xlink:href="#DejaVuSans-112"/>
      <use x="320.556641" xlink:href="#DejaVuSans-111"/>
      <use x="381.738281" xlink:href="#DejaVuSans-115"/>
      <use x="433.837891" xlink:href="#DejaVuSans-101"/>
      <use x="495.361328" xlink:href="#DejaVuSans-95"/>
      <use x="545.361328" xlink:href="#DejaVuSans-116"/>
      <use x="584.570312" xlink:href="#DejaVuSans-114"/>
     </g>
    </g>
    <g id="line2d_68">
     <path d="M 315.152813 293.004312 
L 335.152813 293.004312 
" style="fill:none;stroke:#008000;stroke-dasharray:1.5,2.475;stroke-dashoffset:0;stroke-width:1.5;"/>
    </g>
    <g id="line2d_69">
     <g>
      <use style="fill:#008000;stroke:#008000;" x="325.152813" xlink:href="#m70807eee7c" y="293.004312"/>
     </g>
    </g>
    <g id="text_36">
     <!-- mean -->
     <g transform="translate(343.152813 296.504312)scale(0.1 -0.1)">
      <defs>
       <path d="M 52 44.1875 
Q 55.375 50.25 60.0625 53.125 
Q 64.75 56 71.09375 56 
Q 79.640625 56 84.28125 50.015625 
Q 88.921875 44.046875 88.921875 33.015625 
L 88.921875 0 
L 79.890625 0 
L 79.890625 32.71875 
Q 79.890625 40.578125 77.09375 44.375 
Q 74.3125 48.1875 68.609375 48.1875 
Q 61.625 48.1875 57.5625 43.546875 
Q 53.515625 38.921875 53.515625 30.90625 
L 53.515625 0 
L 44.484375 0 
L 44.484375 32.71875 
Q 44.484375 40.625 41.703125 44.40625 
Q 38.921875 48.1875 33.109375 48.1875 
Q 26.21875 48.1875 22.15625 43.53125 
Q 18.109375 38.875 18.109375 30.90625 
L 18.109375 0 
L 9.078125 0 
L 9.078125 54.6875 
L 18.109375 54.6875 
L 18.109375 46.1875 
Q 21.1875 51.21875 25.484375 53.609375 
Q 29.78125 56 35.6875 56 
Q 41.65625 56 45.828125 52.96875 
Q 50 49.953125 52 44.1875 
z
" id="DejaVuSans-109"/>
      </defs>
      <use xlink:href="#DejaVuSans-109"/>
      <use x="97.412109" xlink:href="#DejaVuSans-101"/>
      <use x="158.935547" xlink:href="#DejaVuSans-97"/>
      <use x="220.214844" xlink:href="#DejaVuSans-110"/>
     </g>
    </g>
   </g>
  </g>
 </g>
 <defs>
  <clipPath id="p55f427fc7d">
   <rect height="266.112" width="357.12" x="57.6" y="41.472"/>
  </clipPath>
 </defs>
</svg>
