<?xml version="1.0" encoding="utf-8" standalone="no"?>
<!DOCTYPE svg PUBLIC "-//W3C//DTD SVG 1.1//EN"
  "http://www.w3.org/Graphics/SVG/1.1/DTD/svg11.dtd">
<!-- Created with matplotlib (https://matplotlib.org/) -->
<svg height="345.6pt" version="1.1" viewBox="0 0 460.8 345.6" width="460.8pt" xmlns="http://www.w3.org/2000/svg" xmlns:xlink="http://www.w3.org/1999/xlink">
 <metadata>
  <rdf:RDF xmlns:cc="http://creativecommons.org/ns#" xmlns:dc="http://purl.org/dc/elements/1.1/" xmlns:rdf="http://www.w3.org/1999/02/22-rdf-syntax-ns#">
   <cc:Work>
    <dc:type rdf:resource="http://purl.org/dc/dcmitype/StillImage"/>
    <dc:date>2020-08-27T10:04:23.264052</dc:date>
    <dc:format>image/svg+xml</dc:format>
    <dc:creator>
     <cc:Agent>
      <dc:title>Matplotlib v3.3.1, https://matplotlib.org/</dc:title>
     </cc:Agent>
    </dc:creator>
   </cc:Work>
  </rdf:RDF>
 </metadata>
 <defs>
  <style type="text/css">*{stroke-linecap:butt;stroke-linejoin:round;}</style>
 </defs>
 <g id="figure_1">
  <g id="patch_1">
   <path d="M 0 345.6 
L 460.8 345.6 
L 460.8 0 
L 0 0 
z
" style="fill:#ffffff;"/>
  </g>
  <g id="axes_1">
   <g id="patch_2">
    <path d="M 57.6 307.584 
L 414.72 307.584 
L 414.72 41.472 
L 57.6 41.472 
z
" style="fill:#ffffff;"/>
   </g>
   <g id="matplotlib.axis_1">
    <g id="xtick_1">
     <g id="line2d_1">
      <path clip-path="url(#pc71cad86d4)" d="M 61.612584 307.584 
L 61.612584 41.472 
" style="fill:none;stroke:#b0b0b0;stroke-dasharray:5.12,1.28,0.8,1.28;stroke-dashoffset:0;stroke-width:0.8;"/>
     </g>
     <g id="line2d_2">
      <defs>
       <path d="M 0 0 
L 0 3.5 
" id="mdc7bb07c94" style="stroke:#000000;stroke-width:0.8;"/>
      </defs>
      <g>
       <use style="stroke:#000000;stroke-width:0.8;" x="61.612584" xlink:href="#mdc7bb07c94" y="307.584"/>
      </g>
     </g>
     <g id="text_1">
      <!-- 1 -->
      <g transform="translate(58.431334 322.182437)scale(0.1 -0.1)">
       <defs>
        <path d="M 12.40625 8.296875 
L 28.515625 8.296875 
L 28.515625 63.921875 
L 10.984375 60.40625 
L 10.984375 69.390625 
L 28.421875 72.90625 
L 38.28125 72.90625 
L 38.28125 8.296875 
L 54.390625 8.296875 
L 54.390625 0 
L 12.40625 0 
z
" id="DejaVuSans-49"/>
       </defs>
       <use xlink:href="#DejaVuSans-49"/>
      </g>
     </g>
    </g>
    <g id="xtick_2">
     <g id="line2d_3">
      <path clip-path="url(#pc71cad86d4)" d="M 73.650337 307.584 
L 73.650337 41.472 
" style="fill:none;stroke:#b0b0b0;stroke-dasharray:5.12,1.28,0.8,1.28;stroke-dashoffset:0;stroke-width:0.8;"/>
     </g>
     <g id="line2d_4">
      <g>
       <use style="stroke:#000000;stroke-width:0.8;" x="73.650337" xlink:href="#mdc7bb07c94" y="307.584"/>
      </g>
     </g>
     <g id="text_2">
      <!-- 4 -->
      <g transform="translate(70.469087 322.182437)scale(0.1 -0.1)">
       <defs>
        <path d="M 37.796875 64.3125 
L 12.890625 25.390625 
L 37.796875 25.390625 
z
M 35.203125 72.90625 
L 47.609375 72.90625 
L 47.609375 25.390625 
L 58.015625 25.390625 
L 58.015625 17.1875 
L 47.609375 17.1875 
L 47.609375 0 
L 37.796875 0 
L 37.796875 17.1875 
L 4.890625 17.1875 
L 4.890625 26.703125 
z
" id="DejaVuSans-52"/>
       </defs>
       <use xlink:href="#DejaVuSans-52"/>
      </g>
     </g>
    </g>
    <g id="xtick_3">
     <g id="line2d_5">
      <path clip-path="url(#pc71cad86d4)" d="M 89.700674 307.584 
L 89.700674 41.472 
" style="fill:none;stroke:#b0b0b0;stroke-dasharray:5.12,1.28,0.8,1.28;stroke-dashoffset:0;stroke-width:0.8;"/>
     </g>
     <g id="line2d_6">
      <g>
       <use style="stroke:#000000;stroke-width:0.8;" x="89.700674" xlink:href="#mdc7bb07c94" y="307.584"/>
      </g>
     </g>
     <g id="text_3">
      <!-- 8 -->
      <g transform="translate(86.519424 322.182437)scale(0.1 -0.1)">
       <defs>
        <path d="M 31.78125 34.625 
Q 24.75 34.625 20.71875 30.859375 
Q 16.703125 27.09375 16.703125 20.515625 
Q 16.703125 13.921875 20.71875 10.15625 
Q 24.75 6.390625 31.78125 6.390625 
Q 38.8125 6.390625 42.859375 10.171875 
Q 46.921875 13.96875 46.921875 20.515625 
Q 46.921875 27.09375 42.890625 30.859375 
Q 38.875 34.625 31.78125 34.625 
z
M 21.921875 38.8125 
Q 15.578125 40.375 12.03125 44.71875 
Q 8.5 49.078125 8.5 55.328125 
Q 8.5 64.0625 14.71875 69.140625 
Q 20.953125 74.21875 31.78125 74.21875 
Q 42.671875 74.21875 48.875 69.140625 
Q 55.078125 64.0625 55.078125 55.328125 
Q 55.078125 49.078125 51.53125 44.71875 
Q 48 40.375 41.703125 38.8125 
Q 48.828125 37.15625 52.796875 32.3125 
Q 56.78125 27.484375 56.78125 20.515625 
Q 56.78125 9.90625 50.3125 4.234375 
Q 43.84375 -1.421875 31.78125 -1.421875 
Q 19.734375 -1.421875 13.25 4.234375 
Q 6.78125 9.90625 6.78125 20.515625 
Q 6.78125 27.484375 10.78125 32.3125 
Q 14.796875 37.15625 21.921875 38.8125 
z
M 18.3125 54.390625 
Q 18.3125 48.734375 21.84375 45.5625 
Q 25.390625 42.390625 31.78125 42.390625 
Q 38.140625 42.390625 41.71875 45.5625 
Q 45.3125 48.734375 45.3125 54.390625 
Q 45.3125 60.0625 41.71875 63.234375 
Q 38.140625 66.40625 31.78125 66.40625 
Q 25.390625 66.40625 21.84375 63.234375 
Q 18.3125 60.0625 18.3125 54.390625 
z
" id="DejaVuSans-56"/>
       </defs>
       <use xlink:href="#DejaVuSans-56"/>
      </g>
     </g>
    </g>
    <g id="xtick_4">
     <g id="line2d_7">
      <path clip-path="url(#pc71cad86d4)" d="M 105.751011 307.584 
L 105.751011 41.472 
" style="fill:none;stroke:#b0b0b0;stroke-dasharray:5.12,1.28,0.8,1.28;stroke-dashoffset:0;stroke-width:0.8;"/>
     </g>
     <g id="line2d_8">
      <g>
       <use style="stroke:#000000;stroke-width:0.8;" x="105.751011" xlink:href="#mdc7bb07c94" y="307.584"/>
      </g>
     </g>
     <g id="text_4">
      <!-- 12 -->
      <g transform="translate(99.388511 322.182437)scale(0.1 -0.1)">
       <defs>
        <path d="M 19.1875 8.296875 
L 53.609375 8.296875 
L 53.609375 0 
L 7.328125 0 
L 7.328125 8.296875 
Q 12.9375 14.109375 22.625 23.890625 
Q 32.328125 33.6875 34.8125 36.53125 
Q 39.546875 41.84375 41.421875 45.53125 
Q 43.3125 49.21875 43.3125 52.78125 
Q 43.3125 58.59375 39.234375 62.25 
Q 35.15625 65.921875 28.609375 65.921875 
Q 23.96875 65.921875 18.8125 64.3125 
Q 13.671875 62.703125 7.8125 59.421875 
L 7.8125 69.390625 
Q 13.765625 71.78125 18.9375 73 
Q 24.125 74.21875 28.421875 74.21875 
Q 39.75 74.21875 46.484375 68.546875 
Q 53.21875 62.890625 53.21875 53.421875 
Q 53.21875 48.921875 51.53125 44.890625 
Q 49.859375 40.875 45.40625 35.40625 
Q 44.1875 33.984375 37.640625 27.21875 
Q 31.109375 20.453125 19.1875 8.296875 
z
" id="DejaVuSans-50"/>
       </defs>
       <use xlink:href="#DejaVuSans-49"/>
       <use x="63.623047" xlink:href="#DejaVuSans-50"/>
      </g>
     </g>
    </g>
    <g id="xtick_5">
     <g id="line2d_9">
      <path clip-path="url(#pc71cad86d4)" d="M 121.801348 307.584 
L 121.801348 41.472 
" style="fill:none;stroke:#b0b0b0;stroke-dasharray:5.12,1.28,0.8,1.28;stroke-dashoffset:0;stroke-width:0.8;"/>
     </g>
     <g id="line2d_10">
      <g>
       <use style="stroke:#000000;stroke-width:0.8;" x="121.801348" xlink:href="#mdc7bb07c94" y="307.584"/>
      </g>
     </g>
     <g id="text_5">
      <!-- 16 -->
      <g transform="translate(115.438848 322.182437)scale(0.1 -0.1)">
       <defs>
        <path d="M 33.015625 40.375 
Q 26.375 40.375 22.484375 35.828125 
Q 18.609375 31.296875 18.609375 23.390625 
Q 18.609375 15.53125 22.484375 10.953125 
Q 26.375 6.390625 33.015625 6.390625 
Q 39.65625 6.390625 43.53125 10.953125 
Q 47.40625 15.53125 47.40625 23.390625 
Q 47.40625 31.296875 43.53125 35.828125 
Q 39.65625 40.375 33.015625 40.375 
z
M 52.59375 71.296875 
L 52.59375 62.3125 
Q 48.875 64.0625 45.09375 64.984375 
Q 41.3125 65.921875 37.59375 65.921875 
Q 27.828125 65.921875 22.671875 59.328125 
Q 17.53125 52.734375 16.796875 39.40625 
Q 19.671875 43.65625 24.015625 45.921875 
Q 28.375 48.1875 33.59375 48.1875 
Q 44.578125 48.1875 50.953125 41.515625 
Q 57.328125 34.859375 57.328125 23.390625 
Q 57.328125 12.15625 50.6875 5.359375 
Q 44.046875 -1.421875 33.015625 -1.421875 
Q 20.359375 -1.421875 13.671875 8.265625 
Q 6.984375 17.96875 6.984375 36.375 
Q 6.984375 53.65625 15.1875 63.9375 
Q 23.390625 74.21875 37.203125 74.21875 
Q 40.921875 74.21875 44.703125 73.484375 
Q 48.484375 72.75 52.59375 71.296875 
z
" id="DejaVuSans-54"/>
       </defs>
       <use xlink:href="#DejaVuSans-49"/>
       <use x="63.623047" xlink:href="#DejaVuSans-54"/>
      </g>
     </g>
    </g>
    <g id="xtick_6">
     <g id="line2d_11">
      <path clip-path="url(#pc71cad86d4)" d="M 137.851685 307.584 
L 137.851685 41.472 
" style="fill:none;stroke:#b0b0b0;stroke-dasharray:5.12,1.28,0.8,1.28;stroke-dashoffset:0;stroke-width:0.8;"/>
     </g>
     <g id="line2d_12">
      <g>
       <use style="stroke:#000000;stroke-width:0.8;" x="137.851685" xlink:href="#mdc7bb07c94" y="307.584"/>
      </g>
     </g>
     <g id="text_6">
      <!-- 20 -->
      <g transform="translate(131.489185 322.182437)scale(0.1 -0.1)">
       <defs>
        <path d="M 31.78125 66.40625 
Q 24.171875 66.40625 20.328125 58.90625 
Q 16.5 51.421875 16.5 36.375 
Q 16.5 21.390625 20.328125 13.890625 
Q 24.171875 6.390625 31.78125 6.390625 
Q 39.453125 6.390625 43.28125 13.890625 
Q 47.125 21.390625 47.125 36.375 
Q 47.125 51.421875 43.28125 58.90625 
Q 39.453125 66.40625 31.78125 66.40625 
z
M 31.78125 74.21875 
Q 44.046875 74.21875 50.515625 64.515625 
Q 56.984375 54.828125 56.984375 36.375 
Q 56.984375 17.96875 50.515625 8.265625 
Q 44.046875 -1.421875 31.78125 -1.421875 
Q 19.53125 -1.421875 13.0625 8.265625 
Q 6.59375 17.96875 6.59375 36.375 
Q 6.59375 54.828125 13.0625 64.515625 
Q 19.53125 74.21875 31.78125 74.21875 
z
" id="DejaVuSans-48"/>
       </defs>
       <use xlink:href="#DejaVuSans-50"/>
       <use x="63.623047" xlink:href="#DejaVuSans-48"/>
      </g>
     </g>
    </g>
    <g id="xtick_7">
     <g id="line2d_13">
      <path clip-path="url(#pc71cad86d4)" d="M 153.902022 307.584 
L 153.902022 41.472 
" style="fill:none;stroke:#b0b0b0;stroke-dasharray:5.12,1.28,0.8,1.28;stroke-dashoffset:0;stroke-width:0.8;"/>
     </g>
     <g id="line2d_14">
      <g>
       <use style="stroke:#000000;stroke-width:0.8;" x="153.902022" xlink:href="#mdc7bb07c94" y="307.584"/>
      </g>
     </g>
     <g id="text_7">
      <!-- 24 -->
      <g transform="translate(147.539522 322.182437)scale(0.1 -0.1)">
       <use xlink:href="#DejaVuSans-50"/>
       <use x="63.623047" xlink:href="#DejaVuSans-52"/>
      </g>
     </g>
    </g>
    <g id="xtick_8">
     <g id="line2d_15">
      <path clip-path="url(#pc71cad86d4)" d="M 169.95236 307.584 
L 169.95236 41.472 
" style="fill:none;stroke:#b0b0b0;stroke-dasharray:5.12,1.28,0.8,1.28;stroke-dashoffset:0;stroke-width:0.8;"/>
     </g>
     <g id="line2d_16">
      <g>
       <use style="stroke:#000000;stroke-width:0.8;" x="169.95236" xlink:href="#mdc7bb07c94" y="307.584"/>
      </g>
     </g>
     <g id="text_8">
      <!-- 28 -->
      <g transform="translate(163.58986 322.182437)scale(0.1 -0.1)">
       <use xlink:href="#DejaVuSans-50"/>
       <use x="63.623047" xlink:href="#DejaVuSans-56"/>
      </g>
     </g>
    </g>
    <g id="xtick_9">
     <g id="line2d_17">
      <path clip-path="url(#pc71cad86d4)" d="M 186.002697 307.584 
L 186.002697 41.472 
" style="fill:none;stroke:#b0b0b0;stroke-dasharray:5.12,1.28,0.8,1.28;stroke-dashoffset:0;stroke-width:0.8;"/>
     </g>
     <g id="line2d_18">
      <g>
       <use style="stroke:#000000;stroke-width:0.8;" x="186.002697" xlink:href="#mdc7bb07c94" y="307.584"/>
      </g>
     </g>
     <g id="text_9">
      <!-- 32 -->
      <g transform="translate(179.640197 322.182437)scale(0.1 -0.1)">
       <defs>
        <path d="M 40.578125 39.3125 
Q 47.65625 37.796875 51.625 33 
Q 55.609375 28.21875 55.609375 21.1875 
Q 55.609375 10.40625 48.1875 4.484375 
Q 40.765625 -1.421875 27.09375 -1.421875 
Q 22.515625 -1.421875 17.65625 -0.515625 
Q 12.796875 0.390625 7.625 2.203125 
L 7.625 11.71875 
Q 11.71875 9.328125 16.59375 8.109375 
Q 21.484375 6.890625 26.8125 6.890625 
Q 36.078125 6.890625 40.9375 10.546875 
Q 45.796875 14.203125 45.796875 21.1875 
Q 45.796875 27.640625 41.28125 31.265625 
Q 36.765625 34.90625 28.71875 34.90625 
L 20.21875 34.90625 
L 20.21875 43.015625 
L 29.109375 43.015625 
Q 36.375 43.015625 40.234375 45.921875 
Q 44.09375 48.828125 44.09375 54.296875 
Q 44.09375 59.90625 40.109375 62.90625 
Q 36.140625 65.921875 28.71875 65.921875 
Q 24.65625 65.921875 20.015625 65.03125 
Q 15.375 64.15625 9.8125 62.3125 
L 9.8125 71.09375 
Q 15.4375 72.65625 20.34375 73.4375 
Q 25.25 74.21875 29.59375 74.21875 
Q 40.828125 74.21875 47.359375 69.109375 
Q 53.90625 64.015625 53.90625 55.328125 
Q 53.90625 49.265625 50.4375 45.09375 
Q 46.96875 40.921875 40.578125 39.3125 
z
" id="DejaVuSans-51"/>
       </defs>
       <use xlink:href="#DejaVuSans-51"/>
       <use x="63.623047" xlink:href="#DejaVuSans-50"/>
      </g>
     </g>
    </g>
    <g id="xtick_10">
     <g id="line2d_19">
      <path clip-path="url(#pc71cad86d4)" d="M 202.053034 307.584 
L 202.053034 41.472 
" style="fill:none;stroke:#b0b0b0;stroke-dasharray:5.12,1.28,0.8,1.28;stroke-dashoffset:0;stroke-width:0.8;"/>
     </g>
     <g id="line2d_20">
      <g>
       <use style="stroke:#000000;stroke-width:0.8;" x="202.053034" xlink:href="#mdc7bb07c94" y="307.584"/>
      </g>
     </g>
     <g id="text_10">
      <!-- 36 -->
      <g transform="translate(195.690534 322.182437)scale(0.1 -0.1)">
       <use xlink:href="#DejaVuSans-51"/>
       <use x="63.623047" xlink:href="#DejaVuSans-54"/>
      </g>
     </g>
    </g>
    <g id="xtick_11">
     <g id="line2d_21">
      <path clip-path="url(#pc71cad86d4)" d="M 218.103371 307.584 
L 218.103371 41.472 
" style="fill:none;stroke:#b0b0b0;stroke-dasharray:5.12,1.28,0.8,1.28;stroke-dashoffset:0;stroke-width:0.8;"/>
     </g>
     <g id="line2d_22">
      <g>
       <use style="stroke:#000000;stroke-width:0.8;" x="218.103371" xlink:href="#mdc7bb07c94" y="307.584"/>
      </g>
     </g>
     <g id="text_11">
      <!-- 40 -->
      <g transform="translate(211.740871 322.182437)scale(0.1 -0.1)">
       <use xlink:href="#DejaVuSans-52"/>
       <use x="63.623047" xlink:href="#DejaVuSans-48"/>
      </g>
     </g>
    </g>
    <g id="xtick_12">
     <g id="line2d_23">
      <path clip-path="url(#pc71cad86d4)" d="M 234.153708 307.584 
L 234.153708 41.472 
" style="fill:none;stroke:#b0b0b0;stroke-dasharray:5.12,1.28,0.8,1.28;stroke-dashoffset:0;stroke-width:0.8;"/>
     </g>
     <g id="line2d_24">
      <g>
       <use style="stroke:#000000;stroke-width:0.8;" x="234.153708" xlink:href="#mdc7bb07c94" y="307.584"/>
      </g>
     </g>
     <g id="text_12">
      <!-- 44 -->
      <g transform="translate(227.791208 322.182437)scale(0.1 -0.1)">
       <use xlink:href="#DejaVuSans-52"/>
       <use x="63.623047" xlink:href="#DejaVuSans-52"/>
      </g>
     </g>
    </g>
    <g id="xtick_13">
     <g id="line2d_25">
      <path clip-path="url(#pc71cad86d4)" d="M 250.204045 307.584 
L 250.204045 41.472 
" style="fill:none;stroke:#b0b0b0;stroke-dasharray:5.12,1.28,0.8,1.28;stroke-dashoffset:0;stroke-width:0.8;"/>
     </g>
     <g id="line2d_26">
      <g>
       <use style="stroke:#000000;stroke-width:0.8;" x="250.204045" xlink:href="#mdc7bb07c94" y="307.584"/>
      </g>
     </g>
     <g id="text_13">
      <!-- 48 -->
      <g transform="translate(243.841545 322.182437)scale(0.1 -0.1)">
       <use xlink:href="#DejaVuSans-52"/>
       <use x="63.623047" xlink:href="#DejaVuSans-56"/>
      </g>
     </g>
    </g>
    <g id="xtick_14">
     <g id="line2d_27">
      <path clip-path="url(#pc71cad86d4)" d="M 266.254382 307.584 
L 266.254382 41.472 
" style="fill:none;stroke:#b0b0b0;stroke-dasharray:5.12,1.28,0.8,1.28;stroke-dashoffset:0;stroke-width:0.8;"/>
     </g>
     <g id="line2d_28">
      <g>
       <use style="stroke:#000000;stroke-width:0.8;" x="266.254382" xlink:href="#mdc7bb07c94" y="307.584"/>
      </g>
     </g>
     <g id="text_14">
      <!-- 52 -->
      <g transform="translate(259.891882 322.182437)scale(0.1 -0.1)">
       <defs>
        <path d="M 10.796875 72.90625 
L 49.515625 72.90625 
L 49.515625 64.59375 
L 19.828125 64.59375 
L 19.828125 46.734375 
Q 21.96875 47.46875 24.109375 47.828125 
Q 26.265625 48.1875 28.421875 48.1875 
Q 40.625 48.1875 47.75 41.5 
Q 54.890625 34.8125 54.890625 23.390625 
Q 54.890625 11.625 47.5625 5.09375 
Q 40.234375 -1.421875 26.90625 -1.421875 
Q 22.3125 -1.421875 17.546875 -0.640625 
Q 12.796875 0.140625 7.71875 1.703125 
L 7.71875 11.625 
Q 12.109375 9.234375 16.796875 8.0625 
Q 21.484375 6.890625 26.703125 6.890625 
Q 35.15625 6.890625 40.078125 11.328125 
Q 45.015625 15.765625 45.015625 23.390625 
Q 45.015625 31 40.078125 35.4375 
Q 35.15625 39.890625 26.703125 39.890625 
Q 22.75 39.890625 18.8125 39.015625 
Q 14.890625 38.140625 10.796875 36.28125 
z
" id="DejaVuSans-53"/>
       </defs>
       <use xlink:href="#DejaVuSans-53"/>
       <use x="63.623047" xlink:href="#DejaVuSans-50"/>
      </g>
     </g>
    </g>
    <g id="xtick_15">
     <g id="line2d_29">
      <path clip-path="url(#pc71cad86d4)" d="M 282.304719 307.584 
L 282.304719 41.472 
" style="fill:none;stroke:#b0b0b0;stroke-dasharray:5.12,1.28,0.8,1.28;stroke-dashoffset:0;stroke-width:0.8;"/>
     </g>
     <g id="line2d_30">
      <g>
       <use style="stroke:#000000;stroke-width:0.8;" x="282.304719" xlink:href="#mdc7bb07c94" y="307.584"/>
      </g>
     </g>
     <g id="text_15">
      <!-- 56 -->
      <g transform="translate(275.942219 322.182437)scale(0.1 -0.1)">
       <use xlink:href="#DejaVuSans-53"/>
       <use x="63.623047" xlink:href="#DejaVuSans-54"/>
      </g>
     </g>
    </g>
    <g id="xtick_16">
     <g id="line2d_31">
      <path clip-path="url(#pc71cad86d4)" d="M 298.355056 307.584 
L 298.355056 41.472 
" style="fill:none;stroke:#b0b0b0;stroke-dasharray:5.12,1.28,0.8,1.28;stroke-dashoffset:0;stroke-width:0.8;"/>
     </g>
     <g id="line2d_32">
      <g>
       <use style="stroke:#000000;stroke-width:0.8;" x="298.355056" xlink:href="#mdc7bb07c94" y="307.584"/>
      </g>
     </g>
     <g id="text_16">
      <!-- 60 -->
      <g transform="translate(291.992556 322.182437)scale(0.1 -0.1)">
       <use xlink:href="#DejaVuSans-54"/>
       <use x="63.623047" xlink:href="#DejaVuSans-48"/>
      </g>
     </g>
    </g>
    <g id="xtick_17">
     <g id="line2d_33">
      <path clip-path="url(#pc71cad86d4)" d="M 314.405393 307.584 
L 314.405393 41.472 
" style="fill:none;stroke:#b0b0b0;stroke-dasharray:5.12,1.28,0.8,1.28;stroke-dashoffset:0;stroke-width:0.8;"/>
     </g>
     <g id="line2d_34">
      <g>
       <use style="stroke:#000000;stroke-width:0.8;" x="314.405393" xlink:href="#mdc7bb07c94" y="307.584"/>
      </g>
     </g>
     <g id="text_17">
      <!-- 64 -->
      <g transform="translate(308.042893 322.182437)scale(0.1 -0.1)">
       <use xlink:href="#DejaVuSans-54"/>
       <use x="63.623047" xlink:href="#DejaVuSans-52"/>
      </g>
     </g>
    </g>
    <g id="xtick_18">
     <g id="line2d_35">
      <path clip-path="url(#pc71cad86d4)" d="M 330.45573 307.584 
L 330.45573 41.472 
" style="fill:none;stroke:#b0b0b0;stroke-dasharray:5.12,1.28,0.8,1.28;stroke-dashoffset:0;stroke-width:0.8;"/>
     </g>
     <g id="line2d_36">
      <g>
       <use style="stroke:#000000;stroke-width:0.8;" x="330.45573" xlink:href="#mdc7bb07c94" y="307.584"/>
      </g>
     </g>
     <g id="text_18">
      <!-- 68 -->
      <g transform="translate(324.09323 322.182437)scale(0.1 -0.1)">
       <use xlink:href="#DejaVuSans-54"/>
       <use x="63.623047" xlink:href="#DejaVuSans-56"/>
      </g>
     </g>
    </g>
    <g id="xtick_19">
     <g id="line2d_37">
      <path clip-path="url(#pc71cad86d4)" d="M 346.506067 307.584 
L 346.506067 41.472 
" style="fill:none;stroke:#b0b0b0;stroke-dasharray:5.12,1.28,0.8,1.28;stroke-dashoffset:0;stroke-width:0.8;"/>
     </g>
     <g id="line2d_38">
      <g>
       <use style="stroke:#000000;stroke-width:0.8;" x="346.506067" xlink:href="#mdc7bb07c94" y="307.584"/>
      </g>
     </g>
     <g id="text_19">
      <!-- 72 -->
      <g transform="translate(340.143567 322.182437)scale(0.1 -0.1)">
       <defs>
        <path d="M 8.203125 72.90625 
L 55.078125 72.90625 
L 55.078125 68.703125 
L 28.609375 0 
L 18.3125 0 
L 43.21875 64.59375 
L 8.203125 64.59375 
z
" id="DejaVuSans-55"/>
       </defs>
       <use xlink:href="#DejaVuSans-55"/>
       <use x="63.623047" xlink:href="#DejaVuSans-50"/>
      </g>
     </g>
    </g>
    <g id="xtick_20">
     <g id="line2d_39">
      <path clip-path="url(#pc71cad86d4)" d="M 362.556404 307.584 
L 362.556404 41.472 
" style="fill:none;stroke:#b0b0b0;stroke-dasharray:5.12,1.28,0.8,1.28;stroke-dashoffset:0;stroke-width:0.8;"/>
     </g>
     <g id="line2d_40">
      <g>
       <use style="stroke:#000000;stroke-width:0.8;" x="362.556404" xlink:href="#mdc7bb07c94" y="307.584"/>
      </g>
     </g>
     <g id="text_20">
      <!-- 76 -->
      <g transform="translate(356.193904 322.182437)scale(0.1 -0.1)">
       <use xlink:href="#DejaVuSans-55"/>
       <use x="63.623047" xlink:href="#DejaVuSans-54"/>
      </g>
     </g>
    </g>
    <g id="xtick_21">
     <g id="line2d_41">
      <path clip-path="url(#pc71cad86d4)" d="M 378.606742 307.584 
L 378.606742 41.472 
" style="fill:none;stroke:#b0b0b0;stroke-dasharray:5.12,1.28,0.8,1.28;stroke-dashoffset:0;stroke-width:0.8;"/>
     </g>
     <g id="line2d_42">
      <g>
       <use style="stroke:#000000;stroke-width:0.8;" x="378.606742" xlink:href="#mdc7bb07c94" y="307.584"/>
      </g>
     </g>
     <g id="text_21">
      <!-- 80 -->
      <g transform="translate(372.244242 322.182437)scale(0.1 -0.1)">
       <use xlink:href="#DejaVuSans-56"/>
       <use x="63.623047" xlink:href="#DejaVuSans-48"/>
      </g>
     </g>
    </g>
    <g id="xtick_22">
     <g id="line2d_43">
      <path clip-path="url(#pc71cad86d4)" d="M 394.657079 307.584 
L 394.657079 41.472 
" style="fill:none;stroke:#b0b0b0;stroke-dasharray:5.12,1.28,0.8,1.28;stroke-dashoffset:0;stroke-width:0.8;"/>
     </g>
     <g id="line2d_44">
      <g>
       <use style="stroke:#000000;stroke-width:0.8;" x="394.657079" xlink:href="#mdc7bb07c94" y="307.584"/>
      </g>
     </g>
     <g id="text_22">
      <!-- 84 -->
      <g transform="translate(388.294579 322.182437)scale(0.1 -0.1)">
       <use xlink:href="#DejaVuSans-56"/>
       <use x="63.623047" xlink:href="#DejaVuSans-52"/>
      </g>
     </g>
    </g>
    <g id="xtick_23">
     <g id="line2d_45">
      <path clip-path="url(#pc71cad86d4)" d="M 410.707416 307.584 
L 410.707416 41.472 
" style="fill:none;stroke:#b0b0b0;stroke-dasharray:5.12,1.28,0.8,1.28;stroke-dashoffset:0;stroke-width:0.8;"/>
     </g>
     <g id="line2d_46">
      <g>
       <use style="stroke:#000000;stroke-width:0.8;" x="410.707416" xlink:href="#mdc7bb07c94" y="307.584"/>
      </g>
     </g>
     <g id="text_23">
      <!-- 88 -->
      <g transform="translate(404.344916 322.182437)scale(0.1 -0.1)">
       <use xlink:href="#DejaVuSans-56"/>
       <use x="63.623047" xlink:href="#DejaVuSans-56"/>
      </g>
     </g>
    </g>
    <g id="text_24">
     <!-- threads -->
     <g transform="translate(217.168594 335.860562)scale(0.1 -0.1)">
      <defs>
       <path d="M 18.3125 70.21875 
L 18.3125 54.6875 
L 36.8125 54.6875 
L 36.8125 47.703125 
L 18.3125 47.703125 
L 18.3125 18.015625 
Q 18.3125 11.328125 20.140625 9.421875 
Q 21.96875 7.515625 27.59375 7.515625 
L 36.8125 7.515625 
L 36.8125 0 
L 27.59375 0 
Q 17.1875 0 13.234375 3.875 
Q 9.28125 7.765625 9.28125 18.015625 
L 9.28125 47.703125 
L 2.6875 47.703125 
L 2.6875 54.6875 
L 9.28125 54.6875 
L 9.28125 70.21875 
z
" id="DejaVuSans-116"/>
       <path d="M 54.890625 33.015625 
L 54.890625 0 
L 45.90625 0 
L 45.90625 32.71875 
Q 45.90625 40.484375 42.875 44.328125 
Q 39.84375 48.1875 33.796875 48.1875 
Q 26.515625 48.1875 22.3125 43.546875 
Q 18.109375 38.921875 18.109375 30.90625 
L 18.109375 0 
L 9.078125 0 
L 9.078125 75.984375 
L 18.109375 75.984375 
L 18.109375 46.1875 
Q 21.34375 51.125 25.703125 53.5625 
Q 30.078125 56 35.796875 56 
Q 45.21875 56 50.046875 50.171875 
Q 54.890625 44.34375 54.890625 33.015625 
z
" id="DejaVuSans-104"/>
       <path d="M 41.109375 46.296875 
Q 39.59375 47.171875 37.8125 47.578125 
Q 36.03125 48 33.890625 48 
Q 26.265625 48 22.1875 43.046875 
Q 18.109375 38.09375 18.109375 28.8125 
L 18.109375 0 
L 9.078125 0 
L 9.078125 54.6875 
L 18.109375 54.6875 
L 18.109375 46.1875 
Q 20.953125 51.171875 25.484375 53.578125 
Q 30.03125 56 36.53125 56 
Q 37.453125 56 38.578125 55.875 
Q 39.703125 55.765625 41.0625 55.515625 
z
" id="DejaVuSans-114"/>
       <path d="M 56.203125 29.59375 
L 56.203125 25.203125 
L 14.890625 25.203125 
Q 15.484375 15.921875 20.484375 11.0625 
Q 25.484375 6.203125 34.421875 6.203125 
Q 39.59375 6.203125 44.453125 7.46875 
Q 49.3125 8.734375 54.109375 11.28125 
L 54.109375 2.78125 
Q 49.265625 0.734375 44.1875 -0.34375 
Q 39.109375 -1.421875 33.890625 -1.421875 
Q 20.796875 -1.421875 13.15625 6.1875 
Q 5.515625 13.8125 5.515625 26.8125 
Q 5.515625 40.234375 12.765625 48.109375 
Q 20.015625 56 32.328125 56 
Q 43.359375 56 49.78125 48.890625 
Q 56.203125 41.796875 56.203125 29.59375 
z
M 47.21875 32.234375 
Q 47.125 39.59375 43.09375 43.984375 
Q 39.0625 48.390625 32.421875 48.390625 
Q 24.90625 48.390625 20.390625 44.140625 
Q 15.875 39.890625 15.1875 32.171875 
z
" id="DejaVuSans-101"/>
       <path d="M 34.28125 27.484375 
Q 23.390625 27.484375 19.1875 25 
Q 14.984375 22.515625 14.984375 16.5 
Q 14.984375 11.71875 18.140625 8.90625 
Q 21.296875 6.109375 26.703125 6.109375 
Q 34.1875 6.109375 38.703125 11.40625 
Q 43.21875 16.703125 43.21875 25.484375 
L 43.21875 27.484375 
z
M 52.203125 31.203125 
L 52.203125 0 
L 43.21875 0 
L 43.21875 8.296875 
Q 40.140625 3.328125 35.546875 0.953125 
Q 30.953125 -1.421875 24.3125 -1.421875 
Q 15.921875 -1.421875 10.953125 3.296875 
Q 6 8.015625 6 15.921875 
Q 6 25.140625 12.171875 29.828125 
Q 18.359375 34.515625 30.609375 34.515625 
L 43.21875 34.515625 
L 43.21875 35.40625 
Q 43.21875 41.609375 39.140625 45 
Q 35.0625 48.390625 27.6875 48.390625 
Q 23 48.390625 18.546875 47.265625 
Q 14.109375 46.140625 10.015625 43.890625 
L 10.015625 52.203125 
Q 14.9375 54.109375 19.578125 55.046875 
Q 24.21875 56 28.609375 56 
Q 40.484375 56 46.34375 49.84375 
Q 52.203125 43.703125 52.203125 31.203125 
z
" id="DejaVuSans-97"/>
       <path d="M 45.40625 46.390625 
L 45.40625 75.984375 
L 54.390625 75.984375 
L 54.390625 0 
L 45.40625 0 
L 45.40625 8.203125 
Q 42.578125 3.328125 38.25 0.953125 
Q 33.9375 -1.421875 27.875 -1.421875 
Q 17.96875 -1.421875 11.734375 6.484375 
Q 5.515625 14.40625 5.515625 27.296875 
Q 5.515625 40.1875 11.734375 48.09375 
Q 17.96875 56 27.875 56 
Q 33.9375 56 38.25 53.625 
Q 42.578125 51.265625 45.40625 46.390625 
z
M 14.796875 27.296875 
Q 14.796875 17.390625 18.875 11.75 
Q 22.953125 6.109375 30.078125 6.109375 
Q 37.203125 6.109375 41.296875 11.75 
Q 45.40625 17.390625 45.40625 27.296875 
Q 45.40625 37.203125 41.296875 42.84375 
Q 37.203125 48.484375 30.078125 48.484375 
Q 22.953125 48.484375 18.875 42.84375 
Q 14.796875 37.203125 14.796875 27.296875 
z
" id="DejaVuSans-100"/>
       <path d="M 44.28125 53.078125 
L 44.28125 44.578125 
Q 40.484375 46.53125 36.375 47.5 
Q 32.28125 48.484375 27.875 48.484375 
Q 21.1875 48.484375 17.84375 46.4375 
Q 14.5 44.390625 14.5 40.28125 
Q 14.5 37.15625 16.890625 35.375 
Q 19.28125 33.59375 26.515625 31.984375 
L 29.59375 31.296875 
Q 39.15625 29.25 43.1875 25.515625 
Q 47.21875 21.78125 47.21875 15.09375 
Q 47.21875 7.46875 41.1875 3.015625 
Q 35.15625 -1.421875 24.609375 -1.421875 
Q 20.21875 -1.421875 15.453125 -0.5625 
Q 10.6875 0.296875 5.421875 2 
L 5.421875 11.28125 
Q 10.40625 8.6875 15.234375 7.390625 
Q 20.0625 6.109375 24.8125 6.109375 
Q 31.15625 6.109375 34.5625 8.28125 
Q 37.984375 10.453125 37.984375 14.40625 
Q 37.984375 18.0625 35.515625 20.015625 
Q 33.0625 21.96875 24.703125 23.78125 
L 21.578125 24.515625 
Q 13.234375 26.265625 9.515625 29.90625 
Q 5.8125 33.546875 5.8125 39.890625 
Q 5.8125 47.609375 11.28125 51.796875 
Q 16.75 56 26.8125 56 
Q 31.78125 56 36.171875 55.265625 
Q 40.578125 54.546875 44.28125 53.078125 
z
" id="DejaVuSans-115"/>
      </defs>
      <use xlink:href="#DejaVuSans-116"/>
      <use x="39.208984" xlink:href="#DejaVuSans-104"/>
      <use x="102.587891" xlink:href="#DejaVuSans-114"/>
      <use x="141.451172" xlink:href="#DejaVuSans-101"/>
      <use x="202.974609" xlink:href="#DejaVuSans-97"/>
      <use x="264.253906" xlink:href="#DejaVuSans-100"/>
      <use x="327.730469" xlink:href="#DejaVuSans-115"/>
     </g>
    </g>
   </g>
   <g id="matplotlib.axis_2">
    <g id="ytick_1">
     <g id="line2d_47">
      <path clip-path="url(#pc71cad86d4)" d="M 57.6 291.87537 
L 414.72 291.87537 
" style="fill:none;stroke:#b0b0b0;stroke-dasharray:5.12,1.28,0.8,1.28;stroke-dashoffset:0;stroke-width:0.8;"/>
     </g>
     <g id="line2d_48">
      <defs>
       <path d="M 0 0 
L -3.5 0 
" id="m0c599153af" style="stroke:#000000;stroke-width:0.8;"/>
      </defs>
      <g>
       <use style="stroke:#000000;stroke-width:0.8;" x="57.6" xlink:href="#m0c599153af" y="291.87537"/>
      </g>
     </g>
     <g id="text_25">
      <!-- 0.5 -->
      <g transform="translate(34.696875 295.674588)scale(0.1 -0.1)">
       <defs>
        <path d="M 10.6875 12.40625 
L 21 12.40625 
L 21 0 
L 10.6875 0 
z
" id="DejaVuSans-46"/>
       </defs>
       <use xlink:href="#DejaVuSans-48"/>
       <use x="63.623047" xlink:href="#DejaVuSans-46"/>
       <use x="95.410156" xlink:href="#DejaVuSans-53"/>
      </g>
     </g>
    </g>
    <g id="ytick_2">
     <g id="line2d_49">
      <path clip-path="url(#pc71cad86d4)" d="M 57.6 241.516074 
L 414.72 241.516074 
" style="fill:none;stroke:#b0b0b0;stroke-dasharray:5.12,1.28,0.8,1.28;stroke-dashoffset:0;stroke-width:0.8;"/>
     </g>
     <g id="line2d_50">
      <g>
       <use style="stroke:#000000;stroke-width:0.8;" x="57.6" xlink:href="#m0c599153af" y="241.516074"/>
      </g>
     </g>
     <g id="text_26">
      <!-- 1.0 -->
      <g transform="translate(34.696875 245.315293)scale(0.1 -0.1)">
       <use xlink:href="#DejaVuSans-49"/>
       <use x="63.623047" xlink:href="#DejaVuSans-46"/>
       <use x="95.410156" xlink:href="#DejaVuSans-48"/>
      </g>
     </g>
    </g>
    <g id="ytick_3">
     <g id="line2d_51">
      <path clip-path="url(#pc71cad86d4)" d="M 57.6 191.156779 
L 414.72 191.156779 
" style="fill:none;stroke:#b0b0b0;stroke-dasharray:5.12,1.28,0.8,1.28;stroke-dashoffset:0;stroke-width:0.8;"/>
     </g>
     <g id="line2d_52">
      <g>
       <use style="stroke:#000000;stroke-width:0.8;" x="57.6" xlink:href="#m0c599153af" y="191.156779"/>
      </g>
     </g>
     <g id="text_27">
      <!-- 1.5 -->
      <g transform="translate(34.696875 194.955998)scale(0.1 -0.1)">
       <use xlink:href="#DejaVuSans-49"/>
       <use x="63.623047" xlink:href="#DejaVuSans-46"/>
       <use x="95.410156" xlink:href="#DejaVuSans-53"/>
      </g>
     </g>
    </g>
    <g id="ytick_4">
     <g id="line2d_53">
      <path clip-path="url(#pc71cad86d4)" d="M 57.6 140.797483 
L 414.72 140.797483 
" style="fill:none;stroke:#b0b0b0;stroke-dasharray:5.12,1.28,0.8,1.28;stroke-dashoffset:0;stroke-width:0.8;"/>
     </g>
     <g id="line2d_54">
      <g>
       <use style="stroke:#000000;stroke-width:0.8;" x="57.6" xlink:href="#m0c599153af" y="140.797483"/>
      </g>
     </g>
     <g id="text_28">
      <!-- 2.0 -->
      <g transform="translate(34.696875 144.596702)scale(0.1 -0.1)">
       <use xlink:href="#DejaVuSans-50"/>
       <use x="63.623047" xlink:href="#DejaVuSans-46"/>
       <use x="95.410156" xlink:href="#DejaVuSans-48"/>
      </g>
     </g>
    </g>
    <g id="ytick_5">
     <g id="line2d_55">
      <path clip-path="url(#pc71cad86d4)" d="M 57.6 90.438188 
L 414.72 90.438188 
" style="fill:none;stroke:#b0b0b0;stroke-dasharray:5.12,1.28,0.8,1.28;stroke-dashoffset:0;stroke-width:0.8;"/>
     </g>
     <g id="line2d_56">
      <g>
       <use style="stroke:#000000;stroke-width:0.8;" x="57.6" xlink:href="#m0c599153af" y="90.438188"/>
      </g>
     </g>
     <g id="text_29">
      <!-- 2.5 -->
      <g transform="translate(34.696875 94.237407)scale(0.1 -0.1)">
       <use xlink:href="#DejaVuSans-50"/>
       <use x="63.623047" xlink:href="#DejaVuSans-46"/>
       <use x="95.410156" xlink:href="#DejaVuSans-53"/>
      </g>
     </g>
    </g>
    <g id="text_30">
     <!-- speed up -->
     <g transform="translate(28.617187 197.566281)rotate(-90)scale(0.1 -0.1)">
      <defs>
       <path d="M 18.109375 8.203125 
L 18.109375 -20.796875 
L 9.078125 -20.796875 
L 9.078125 54.6875 
L 18.109375 54.6875 
L 18.109375 46.390625 
Q 20.953125 51.265625 25.265625 53.625 
Q 29.59375 56 35.59375 56 
Q 45.5625 56 51.78125 48.09375 
Q 58.015625 40.1875 58.015625 27.296875 
Q 58.015625 14.40625 51.78125 6.484375 
Q 45.5625 -1.421875 35.59375 -1.421875 
Q 29.59375 -1.421875 25.265625 0.953125 
Q 20.953125 3.328125 18.109375 8.203125 
z
M 48.6875 27.296875 
Q 48.6875 37.203125 44.609375 42.84375 
Q 40.53125 48.484375 33.40625 48.484375 
Q 26.265625 48.484375 22.1875 42.84375 
Q 18.109375 37.203125 18.109375 27.296875 
Q 18.109375 17.390625 22.1875 11.75 
Q 26.265625 6.109375 33.40625 6.109375 
Q 40.53125 6.109375 44.609375 11.75 
Q 48.6875 17.390625 48.6875 27.296875 
z
" id="DejaVuSans-112"/>
       <path id="DejaVuSans-32"/>
       <path d="M 8.5 21.578125 
L 8.5 54.6875 
L 17.484375 54.6875 
L 17.484375 21.921875 
Q 17.484375 14.15625 20.5 10.265625 
Q 23.53125 6.390625 29.59375 6.390625 
Q 36.859375 6.390625 41.078125 11.03125 
Q 45.3125 15.671875 45.3125 23.6875 
L 45.3125 54.6875 
L 54.296875 54.6875 
L 54.296875 0 
L 45.3125 0 
L 45.3125 8.40625 
Q 42.046875 3.421875 37.71875 1 
Q 33.40625 -1.421875 27.6875 -1.421875 
Q 18.265625 -1.421875 13.375 4.4375 
Q 8.5 10.296875 8.5 21.578125 
z
M 31.109375 56 
z
" id="DejaVuSans-117"/>
      </defs>
      <use xlink:href="#DejaVuSans-115"/>
      <use x="52.099609" xlink:href="#DejaVuSans-112"/>
      <use x="115.576172" xlink:href="#DejaVuSans-101"/>
      <use x="177.099609" xlink:href="#DejaVuSans-101"/>
      <use x="238.623047" xlink:href="#DejaVuSans-100"/>
      <use x="302.099609" xlink:href="#DejaVuSans-32"/>
      <use x="333.886719" xlink:href="#DejaVuSans-117"/>
      <use x="397.265625" xlink:href="#DejaVuSans-112"/>
     </g>
    </g>
   </g>
   <g id="line2d_57">
    <path clip-path="url(#pc71cad86d4)" d="M 61.612584 288.560327 
L 65.625169 277.212849 
L 69.637753 255.702998 
L 73.650337 236.504522 
L 77.662921 221.375274 
L 81.675506 210.292265 
L 85.68809 193.811103 
L 89.700674 176.179282 
L 93.713258 164.423503 
L 97.725843 158.188575 
L 101.738427 146.473567 
L 105.751011 146.59597 
L 109.763596 144.956949 
L 113.77618 139.092411 
L 117.788764 127.05884 
L 121.801348 123.823862 
L 125.813933 119.094552 
L 129.826517 117.372662 
L 133.839101 124.496421 
L 137.851685 122.037011 
L 141.86427 126.032928 
L 145.876854 114.68668 
L 149.889438 115.352864 
L 153.902022 120.36827 
L 157.914607 117.556331 
L 161.927191 111.398433 
L 165.939775 127.542377 
L 169.95236 124.674315 
L 173.964944 119.186016 
L 177.977528 122.712902 
L 181.990112 130.933248 
L 186.002697 132.589709 
L 190.015281 137.074442 
L 194.027865 139.57595 
L 198.040449 142.445471 
L 202.053034 138.266408 
L 206.065618 144.97405 
L 210.078202 148.135763 
L 214.090787 159.334349 
L 218.103371 158.652912 
L 222.115955 167.209748 
L 226.128539 166.15461 
L 230.141124 170.269919 
L 234.153708 176.563949 
L 238.166292 178.028965 
L 242.178876 184.020707 
L 246.191461 186.157494 
L 250.204045 190.414557 
L 254.216629 191.439831 
L 258.229213 202.080864 
L 262.241798 198.898706 
L 266.254382 202.588319 
L 270.266966 202.746292 
L 274.279551 207.501194 
L 278.292135 211.893761 
L 282.304719 211.725225 
L 286.317303 213.32155 
L 290.329888 213.479368 
L 294.342472 216.674419 
L 298.355056 216.878152 
L 302.36764 218.102195 
L 306.380225 220.34595 
L 310.392809 223.760096 
L 314.405393 221.787021 
L 318.417978 224.829792 
L 322.430562 224.886484 
L 326.443146 226.62304 
L 330.45573 228.830768 
L 334.468315 226.028891 
L 338.480899 231.901926 
L 342.493483 231.961226 
L 346.506067 231.760223 
L 350.518652 230.363431 
L 354.531236 231.084233 
L 358.54382 232.391902 
L 362.556404 235.955948 
L 366.568989 235.548726 
L 370.581573 236.38425 
L 374.594157 237.150352 
L 378.606742 238.749542 
L 382.619326 240.347674 
L 386.63191 237.363439 
L 390.644494 239.006458 
L 394.657079 240.840045 
L 398.669663 243.808355 
L 402.682247 247.077134 
L 406.694831 250.067614 
L 410.707416 257.484591 
" style="fill:none;stroke:#0000ff;stroke-dasharray:1.5,2.475;stroke-dashoffset:0;stroke-width:1.5;"/>
    <defs>
     <path d="M 0 1.5 
C 0.397805 1.5 0.77937 1.341951 1.06066 1.06066 
C 1.341951 0.77937 1.5 0.397805 1.5 0 
C 1.5 -0.397805 1.341951 -0.77937 1.06066 -1.06066 
C 0.77937 -1.341951 0.397805 -1.5 0 -1.5 
C -0.397805 -1.5 -0.77937 -1.341951 -1.06066 -1.06066 
C -1.341951 -0.77937 -1.5 -0.397805 -1.5 0 
C -1.5 0.397805 -1.341951 0.77937 -1.06066 1.06066 
C -0.77937 1.341951 -0.397805 1.5 0 1.5 
z
" id="m5790d47614" style="stroke:#0000ff;"/>
    </defs>
    <g clip-path="url(#pc71cad86d4)">
     <use style="fill:#0000ff;stroke:#0000ff;" x="61.612584" xlink:href="#m5790d47614" y="288.560327"/>
     <use style="fill:#0000ff;stroke:#0000ff;" x="65.625169" xlink:href="#m5790d47614" y="277.212849"/>
     <use style="fill:#0000ff;stroke:#0000ff;" x="69.637753" xlink:href="#m5790d47614" y="255.702998"/>
     <use style="fill:#0000ff;stroke:#0000ff;" x="73.650337" xlink:href="#m5790d47614" y="236.504522"/>
     <use style="fill:#0000ff;stroke:#0000ff;" x="77.662921" xlink:href="#m5790d47614" y="221.375274"/>
     <use style="fill:#0000ff;stroke:#0000ff;" x="81.675506" xlink:href="#m5790d47614" y="210.292265"/>
     <use style="fill:#0000ff;stroke:#0000ff;" x="85.68809" xlink:href="#m5790d47614" y="193.811103"/>
     <use style="fill:#0000ff;stroke:#0000ff;" x="89.700674" xlink:href="#m5790d47614" y="176.179282"/>
     <use style="fill:#0000ff;stroke:#0000ff;" x="93.713258" xlink:href="#m5790d47614" y="164.423503"/>
     <use style="fill:#0000ff;stroke:#0000ff;" x="97.725843" xlink:href="#m5790d47614" y="158.188575"/>
     <use style="fill:#0000ff;stroke:#0000ff;" x="101.738427" xlink:href="#m5790d47614" y="146.473567"/>
     <use style="fill:#0000ff;stroke:#0000ff;" x="105.751011" xlink:href="#m5790d47614" y="146.59597"/>
     <use style="fill:#0000ff;stroke:#0000ff;" x="109.763596" xlink:href="#m5790d47614" y="144.956949"/>
     <use style="fill:#0000ff;stroke:#0000ff;" x="113.77618" xlink:href="#m5790d47614" y="139.092411"/>
     <use style="fill:#0000ff;stroke:#0000ff;" x="117.788764" xlink:href="#m5790d47614" y="127.05884"/>
     <use style="fill:#0000ff;stroke:#0000ff;" x="121.801348" xlink:href="#m5790d47614" y="123.823862"/>
     <use style="fill:#0000ff;stroke:#0000ff;" x="125.813933" xlink:href="#m5790d47614" y="119.094552"/>
     <use style="fill:#0000ff;stroke:#0000ff;" x="129.826517" xlink:href="#m5790d47614" y="117.372662"/>
     <use style="fill:#0000ff;stroke:#0000ff;" x="133.839101" xlink:href="#m5790d47614" y="124.496421"/>
     <use style="fill:#0000ff;stroke:#0000ff;" x="137.851685" xlink:href="#m5790d47614" y="122.037011"/>
     <use style="fill:#0000ff;stroke:#0000ff;" x="141.86427" xlink:href="#m5790d47614" y="126.032928"/>
     <use style="fill:#0000ff;stroke:#0000ff;" x="145.876854" xlink:href="#m5790d47614" y="114.68668"/>
     <use style="fill:#0000ff;stroke:#0000ff;" x="149.889438" xlink:href="#m5790d47614" y="115.352864"/>
     <use style="fill:#0000ff;stroke:#0000ff;" x="153.902022" xlink:href="#m5790d47614" y="120.36827"/>
     <use style="fill:#0000ff;stroke:#0000ff;" x="157.914607" xlink:href="#m5790d47614" y="117.556331"/>
     <use style="fill:#0000ff;stroke:#0000ff;" x="161.927191" xlink:href="#m5790d47614" y="111.398433"/>
     <use style="fill:#0000ff;stroke:#0000ff;" x="165.939775" xlink:href="#m5790d47614" y="127.542377"/>
     <use style="fill:#0000ff;stroke:#0000ff;" x="169.95236" xlink:href="#m5790d47614" y="124.674315"/>
     <use style="fill:#0000ff;stroke:#0000ff;" x="173.964944" xlink:href="#m5790d47614" y="119.186016"/>
     <use style="fill:#0000ff;stroke:#0000ff;" x="177.977528" xlink:href="#m5790d47614" y="122.712902"/>
     <use style="fill:#0000ff;stroke:#0000ff;" x="181.990112" xlink:href="#m5790d47614" y="130.933248"/>
     <use style="fill:#0000ff;stroke:#0000ff;" x="186.002697" xlink:href="#m5790d47614" y="132.589709"/>
     <use style="fill:#0000ff;stroke:#0000ff;" x="190.015281" xlink:href="#m5790d47614" y="137.074442"/>
     <use style="fill:#0000ff;stroke:#0000ff;" x="194.027865" xlink:href="#m5790d47614" y="139.57595"/>
     <use style="fill:#0000ff;stroke:#0000ff;" x="198.040449" xlink:href="#m5790d47614" y="142.445471"/>
     <use style="fill:#0000ff;stroke:#0000ff;" x="202.053034" xlink:href="#m5790d47614" y="138.266408"/>
     <use style="fill:#0000ff;stroke:#0000ff;" x="206.065618" xlink:href="#m5790d47614" y="144.97405"/>
     <use style="fill:#0000ff;stroke:#0000ff;" x="210.078202" xlink:href="#m5790d47614" y="148.135763"/>
     <use style="fill:#0000ff;stroke:#0000ff;" x="214.090787" xlink:href="#m5790d47614" y="159.334349"/>
     <use style="fill:#0000ff;stroke:#0000ff;" x="218.103371" xlink:href="#m5790d47614" y="158.652912"/>
     <use style="fill:#0000ff;stroke:#0000ff;" x="222.115955" xlink:href="#m5790d47614" y="167.209748"/>
     <use style="fill:#0000ff;stroke:#0000ff;" x="226.128539" xlink:href="#m5790d47614" y="166.15461"/>
     <use style="fill:#0000ff;stroke:#0000ff;" x="230.141124" xlink:href="#m5790d47614" y="170.269919"/>
     <use style="fill:#0000ff;stroke:#0000ff;" x="234.153708" xlink:href="#m5790d47614" y="176.563949"/>
     <use style="fill:#0000ff;stroke:#0000ff;" x="238.166292" xlink:href="#m5790d47614" y="178.028965"/>
     <use style="fill:#0000ff;stroke:#0000ff;" x="242.178876" xlink:href="#m5790d47614" y="184.020707"/>
     <use style="fill:#0000ff;stroke:#0000ff;" x="246.191461" xlink:href="#m5790d47614" y="186.157494"/>
     <use style="fill:#0000ff;stroke:#0000ff;" x="250.204045" xlink:href="#m5790d47614" y="190.414557"/>
     <use style="fill:#0000ff;stroke:#0000ff;" x="254.216629" xlink:href="#m5790d47614" y="191.439831"/>
     <use style="fill:#0000ff;stroke:#0000ff;" x="258.229213" xlink:href="#m5790d47614" y="202.080864"/>
     <use style="fill:#0000ff;stroke:#0000ff;" x="262.241798" xlink:href="#m5790d47614" y="198.898706"/>
     <use style="fill:#0000ff;stroke:#0000ff;" x="266.254382" xlink:href="#m5790d47614" y="202.588319"/>
     <use style="fill:#0000ff;stroke:#0000ff;" x="270.266966" xlink:href="#m5790d47614" y="202.746292"/>
     <use style="fill:#0000ff;stroke:#0000ff;" x="274.279551" xlink:href="#m5790d47614" y="207.501194"/>
     <use style="fill:#0000ff;stroke:#0000ff;" x="278.292135" xlink:href="#m5790d47614" y="211.893761"/>
     <use style="fill:#0000ff;stroke:#0000ff;" x="282.304719" xlink:href="#m5790d47614" y="211.725225"/>
     <use style="fill:#0000ff;stroke:#0000ff;" x="286.317303" xlink:href="#m5790d47614" y="213.32155"/>
     <use style="fill:#0000ff;stroke:#0000ff;" x="290.329888" xlink:href="#m5790d47614" y="213.479368"/>
     <use style="fill:#0000ff;stroke:#0000ff;" x="294.342472" xlink:href="#m5790d47614" y="216.674419"/>
     <use style="fill:#0000ff;stroke:#0000ff;" x="298.355056" xlink:href="#m5790d47614" y="216.878152"/>
     <use style="fill:#0000ff;stroke:#0000ff;" x="302.36764" xlink:href="#m5790d47614" y="218.102195"/>
     <use style="fill:#0000ff;stroke:#0000ff;" x="306.380225" xlink:href="#m5790d47614" y="220.34595"/>
     <use style="fill:#0000ff;stroke:#0000ff;" x="310.392809" xlink:href="#m5790d47614" y="223.760096"/>
     <use style="fill:#0000ff;stroke:#0000ff;" x="314.405393" xlink:href="#m5790d47614" y="221.787021"/>
     <use style="fill:#0000ff;stroke:#0000ff;" x="318.417978" xlink:href="#m5790d47614" y="224.829792"/>
     <use style="fill:#0000ff;stroke:#0000ff;" x="322.430562" xlink:href="#m5790d47614" y="224.886484"/>
     <use style="fill:#0000ff;stroke:#0000ff;" x="326.443146" xlink:href="#m5790d47614" y="226.62304"/>
     <use style="fill:#0000ff;stroke:#0000ff;" x="330.45573" xlink:href="#m5790d47614" y="228.830768"/>
     <use style="fill:#0000ff;stroke:#0000ff;" x="334.468315" xlink:href="#m5790d47614" y="226.028891"/>
     <use style="fill:#0000ff;stroke:#0000ff;" x="338.480899" xlink:href="#m5790d47614" y="231.901926"/>
     <use style="fill:#0000ff;stroke:#0000ff;" x="342.493483" xlink:href="#m5790d47614" y="231.961226"/>
     <use style="fill:#0000ff;stroke:#0000ff;" x="346.506067" xlink:href="#m5790d47614" y="231.760223"/>
     <use style="fill:#0000ff;stroke:#0000ff;" x="350.518652" xlink:href="#m5790d47614" y="230.363431"/>
     <use style="fill:#0000ff;stroke:#0000ff;" x="354.531236" xlink:href="#m5790d47614" y="231.084233"/>
     <use style="fill:#0000ff;stroke:#0000ff;" x="358.54382" xlink:href="#m5790d47614" y="232.391902"/>
     <use style="fill:#0000ff;stroke:#0000ff;" x="362.556404" xlink:href="#m5790d47614" y="235.955948"/>
     <use style="fill:#0000ff;stroke:#0000ff;" x="366.568989" xlink:href="#m5790d47614" y="235.548726"/>
     <use style="fill:#0000ff;stroke:#0000ff;" x="370.581573" xlink:href="#m5790d47614" y="236.38425"/>
     <use style="fill:#0000ff;stroke:#0000ff;" x="374.594157" xlink:href="#m5790d47614" y="237.150352"/>
     <use style="fill:#0000ff;stroke:#0000ff;" x="378.606742" xlink:href="#m5790d47614" y="238.749542"/>
     <use style="fill:#0000ff;stroke:#0000ff;" x="382.619326" xlink:href="#m5790d47614" y="240.347674"/>
     <use style="fill:#0000ff;stroke:#0000ff;" x="386.63191" xlink:href="#m5790d47614" y="237.363439"/>
     <use style="fill:#0000ff;stroke:#0000ff;" x="390.644494" xlink:href="#m5790d47614" y="239.006458"/>
     <use style="fill:#0000ff;stroke:#0000ff;" x="394.657079" xlink:href="#m5790d47614" y="240.840045"/>
     <use style="fill:#0000ff;stroke:#0000ff;" x="398.669663" xlink:href="#m5790d47614" y="243.808355"/>
     <use style="fill:#0000ff;stroke:#0000ff;" x="402.682247" xlink:href="#m5790d47614" y="247.077134"/>
     <use style="fill:#0000ff;stroke:#0000ff;" x="406.694831" xlink:href="#m5790d47614" y="250.067614"/>
     <use style="fill:#0000ff;stroke:#0000ff;" x="410.707416" xlink:href="#m5790d47614" y="257.484591"/>
    </g>
   </g>
   <g id="line2d_58">
    <path clip-path="url(#pc71cad86d4)" d="M 61.612584 295.488 
L 65.625169 272.159979 
L 69.637753 241.562757 
L 73.650337 215.352331 
L 77.662921 192.012553 
L 81.675506 170.801422 
L 85.68809 153.90115 
L 89.700674 137.295453 
L 93.713258 123.004416 
L 97.725843 111.102474 
L 101.738427 103.307667 
L 105.751011 88.127541 
L 109.763596 78.278238 
L 113.77618 73.901705 
L 117.788764 68.305993 
L 121.801348 61.599969 
L 125.813933 53.568 
L 129.826517 55.127763 
L 133.839101 56.726737 
L 137.851685 54.145676 
L 141.86427 55.041182 
L 145.876854 54.055147 
L 149.889438 55.247559 
L 153.902022 57.003004 
L 157.914607 63.555072 
L 161.927191 61.908152 
L 165.939775 64.548916 
L 169.95236 63.341628 
L 173.964944 70.860855 
L 177.977528 66.812978 
L 181.990112 74.987757 
L 186.002697 79.18119 
L 190.015281 89.682616 
L 194.027865 86.38147 
L 198.040449 94.046782 
L 202.053034 95.222828 
L 206.065618 96.799614 
L 210.078202 106.962721 
L 214.090787 113.970452 
L 218.103371 122.011956 
L 222.115955 123.571667 
L 226.128539 127.138931 
L 230.141124 130.252844 
L 234.153708 134.972739 
L 238.166292 132.002276 
L 242.178876 139.520226 
L 246.191461 137.237765 
L 250.204045 143.765921 
L 254.216629 142.32218 
L 258.229213 154.448195 
L 262.241798 152.115265 
L 266.254382 154.302818 
L 270.266966 152.807587 
L 274.279551 160.988385 
L 278.292135 162.012085 
L 282.304719 165.706066 
L 286.317303 164.081597 
L 290.329888 167.062326 
L 294.342472 170.106641 
L 298.355056 167.889943 
L 302.36764 173.602328 
L 306.380225 173.118593 
L 310.392809 174.406983 
L 314.405393 176.806476 
L 318.417978 177.356152 
L 322.430562 178.046024 
L 326.443146 177.264976 
L 330.45573 181.521215 
L 334.468315 182.779724 
L 338.480899 182.899775 
L 342.493483 183.671155 
L 346.506067 183.533957 
L 350.518652 185.540551 
L 354.531236 186.569969 
L 358.54382 187.228715 
L 362.556404 188.995727 
L 366.568989 190.255138 
L 370.581573 191.347043 
L 374.594157 191.930484 
L 378.606742 195.257432 
L 382.619326 197.365951 
L 386.63191 196.986941 
L 390.644494 203.971705 
L 394.657079 204.162138 
L 398.669663 210.524626 
L 402.682247 220.072335 
L 406.694831 222.595113 
L 410.707416 226.616226 
" style="fill:none;stroke:#ff0000;stroke-dasharray:1.5,2.475;stroke-dashoffset:0;stroke-width:1.5;"/>
    <defs>
     <path d="M 0 1.5 
C 0.397805 1.5 0.77937 1.341951 1.06066 1.06066 
C 1.341951 0.77937 1.5 0.397805 1.5 0 
C 1.5 -0.397805 1.341951 -0.77937 1.06066 -1.06066 
C 0.77937 -1.341951 0.397805 -1.5 0 -1.5 
C -0.397805 -1.5 -0.77937 -1.341951 -1.06066 -1.06066 
C -1.341951 -0.77937 -1.5 -0.397805 -1.5 0 
C -1.5 0.397805 -1.341951 0.77937 -1.06066 1.06066 
C -0.77937 1.341951 -0.397805 1.5 0 1.5 
z
" id="m33b1bc0dbb" style="stroke:#ff0000;"/>
    </defs>
    <g clip-path="url(#pc71cad86d4)">
     <use style="fill:#ff0000;stroke:#ff0000;" x="61.612584" xlink:href="#m33b1bc0dbb" y="295.488"/>
     <use style="fill:#ff0000;stroke:#ff0000;" x="65.625169" xlink:href="#m33b1bc0dbb" y="272.159979"/>
     <use style="fill:#ff0000;stroke:#ff0000;" x="69.637753" xlink:href="#m33b1bc0dbb" y="241.562757"/>
     <use style="fill:#ff0000;stroke:#ff0000;" x="73.650337" xlink:href="#m33b1bc0dbb" y="215.352331"/>
     <use style="fill:#ff0000;stroke:#ff0000;" x="77.662921" xlink:href="#m33b1bc0dbb" y="192.012553"/>
     <use style="fill:#ff0000;stroke:#ff0000;" x="81.675506" xlink:href="#m33b1bc0dbb" y="170.801422"/>
     <use style="fill:#ff0000;stroke:#ff0000;" x="85.68809" xlink:href="#m33b1bc0dbb" y="153.90115"/>
     <use style="fill:#ff0000;stroke:#ff0000;" x="89.700674" xlink:href="#m33b1bc0dbb" y="137.295453"/>
     <use style="fill:#ff0000;stroke:#ff0000;" x="93.713258" xlink:href="#m33b1bc0dbb" y="123.004416"/>
     <use style="fill:#ff0000;stroke:#ff0000;" x="97.725843" xlink:href="#m33b1bc0dbb" y="111.102474"/>
     <use style="fill:#ff0000;stroke:#ff0000;" x="101.738427" xlink:href="#m33b1bc0dbb" y="103.307667"/>
     <use style="fill:#ff0000;stroke:#ff0000;" x="105.751011" xlink:href="#m33b1bc0dbb" y="88.127541"/>
     <use style="fill:#ff0000;stroke:#ff0000;" x="109.763596" xlink:href="#m33b1bc0dbb" y="78.278238"/>
     <use style="fill:#ff0000;stroke:#ff0000;" x="113.77618" xlink:href="#m33b1bc0dbb" y="73.901705"/>
     <use style="fill:#ff0000;stroke:#ff0000;" x="117.788764" xlink:href="#m33b1bc0dbb" y="68.305993"/>
     <use style="fill:#ff0000;stroke:#ff0000;" x="121.801348" xlink:href="#m33b1bc0dbb" y="61.599969"/>
     <use style="fill:#ff0000;stroke:#ff0000;" x="125.813933" xlink:href="#m33b1bc0dbb" y="53.568"/>
     <use style="fill:#ff0000;stroke:#ff0000;" x="129.826517" xlink:href="#m33b1bc0dbb" y="55.127763"/>
     <use style="fill:#ff0000;stroke:#ff0000;" x="133.839101" xlink:href="#m33b1bc0dbb" y="56.726737"/>
     <use style="fill:#ff0000;stroke:#ff0000;" x="137.851685" xlink:href="#m33b1bc0dbb" y="54.145676"/>
     <use style="fill:#ff0000;stroke:#ff0000;" x="141.86427" xlink:href="#m33b1bc0dbb" y="55.041182"/>
     <use style="fill:#ff0000;stroke:#ff0000;" x="145.876854" xlink:href="#m33b1bc0dbb" y="54.055147"/>
     <use style="fill:#ff0000;stroke:#ff0000;" x="149.889438" xlink:href="#m33b1bc0dbb" y="55.247559"/>
     <use style="fill:#ff0000;stroke:#ff0000;" x="153.902022" xlink:href="#m33b1bc0dbb" y="57.003004"/>
     <use style="fill:#ff0000;stroke:#ff0000;" x="157.914607" xlink:href="#m33b1bc0dbb" y="63.555072"/>
     <use style="fill:#ff0000;stroke:#ff0000;" x="161.927191" xlink:href="#m33b1bc0dbb" y="61.908152"/>
     <use style="fill:#ff0000;stroke:#ff0000;" x="165.939775" xlink:href="#m33b1bc0dbb" y="64.548916"/>
     <use style="fill:#ff0000;stroke:#ff0000;" x="169.95236" xlink:href="#m33b1bc0dbb" y="63.341628"/>
     <use style="fill:#ff0000;stroke:#ff0000;" x="173.964944" xlink:href="#m33b1bc0dbb" y="70.860855"/>
     <use style="fill:#ff0000;stroke:#ff0000;" x="177.977528" xlink:href="#m33b1bc0dbb" y="66.812978"/>
     <use style="fill:#ff0000;stroke:#ff0000;" x="181.990112" xlink:href="#m33b1bc0dbb" y="74.987757"/>
     <use style="fill:#ff0000;stroke:#ff0000;" x="186.002697" xlink:href="#m33b1bc0dbb" y="79.18119"/>
     <use style="fill:#ff0000;stroke:#ff0000;" x="190.015281" xlink:href="#m33b1bc0dbb" y="89.682616"/>
     <use style="fill:#ff0000;stroke:#ff0000;" x="194.027865" xlink:href="#m33b1bc0dbb" y="86.38147"/>
     <use style="fill:#ff0000;stroke:#ff0000;" x="198.040449" xlink:href="#m33b1bc0dbb" y="94.046782"/>
     <use style="fill:#ff0000;stroke:#ff0000;" x="202.053034" xlink:href="#m33b1bc0dbb" y="95.222828"/>
     <use style="fill:#ff0000;stroke:#ff0000;" x="206.065618" xlink:href="#m33b1bc0dbb" y="96.799614"/>
     <use style="fill:#ff0000;stroke:#ff0000;" x="210.078202" xlink:href="#m33b1bc0dbb" y="106.962721"/>
     <use style="fill:#ff0000;stroke:#ff0000;" x="214.090787" xlink:href="#m33b1bc0dbb" y="113.970452"/>
     <use style="fill:#ff0000;stroke:#ff0000;" x="218.103371" xlink:href="#m33b1bc0dbb" y="122.011956"/>
     <use style="fill:#ff0000;stroke:#ff0000;" x="222.115955" xlink:href="#m33b1bc0dbb" y="123.571667"/>
     <use style="fill:#ff0000;stroke:#ff0000;" x="226.128539" xlink:href="#m33b1bc0dbb" y="127.138931"/>
     <use style="fill:#ff0000;stroke:#ff0000;" x="230.141124" xlink:href="#m33b1bc0dbb" y="130.252844"/>
     <use style="fill:#ff0000;stroke:#ff0000;" x="234.153708" xlink:href="#m33b1bc0dbb" y="134.972739"/>
     <use style="fill:#ff0000;stroke:#ff0000;" x="238.166292" xlink:href="#m33b1bc0dbb" y="132.002276"/>
     <use style="fill:#ff0000;stroke:#ff0000;" x="242.178876" xlink:href="#m33b1bc0dbb" y="139.520226"/>
     <use style="fill:#ff0000;stroke:#ff0000;" x="246.191461" xlink:href="#m33b1bc0dbb" y="137.237765"/>
     <use style="fill:#ff0000;stroke:#ff0000;" x="250.204045" xlink:href="#m33b1bc0dbb" y="143.765921"/>
     <use style="fill:#ff0000;stroke:#ff0000;" x="254.216629" xlink:href="#m33b1bc0dbb" y="142.32218"/>
     <use style="fill:#ff0000;stroke:#ff0000;" x="258.229213" xlink:href="#m33b1bc0dbb" y="154.448195"/>
     <use style="fill:#ff0000;stroke:#ff0000;" x="262.241798" xlink:href="#m33b1bc0dbb" y="152.115265"/>
     <use style="fill:#ff0000;stroke:#ff0000;" x="266.254382" xlink:href="#m33b1bc0dbb" y="154.302818"/>
     <use style="fill:#ff0000;stroke:#ff0000;" x="270.266966" xlink:href="#m33b1bc0dbb" y="152.807587"/>
     <use style="fill:#ff0000;stroke:#ff0000;" x="274.279551" xlink:href="#m33b1bc0dbb" y="160.988385"/>
     <use style="fill:#ff0000;stroke:#ff0000;" x="278.292135" xlink:href="#m33b1bc0dbb" y="162.012085"/>
     <use style="fill:#ff0000;stroke:#ff0000;" x="282.304719" xlink:href="#m33b1bc0dbb" y="165.706066"/>
     <use style="fill:#ff0000;stroke:#ff0000;" x="286.317303" xlink:href="#m33b1bc0dbb" y="164.081597"/>
     <use style="fill:#ff0000;stroke:#ff0000;" x="290.329888" xlink:href="#m33b1bc0dbb" y="167.062326"/>
     <use style="fill:#ff0000;stroke:#ff0000;" x="294.342472" xlink:href="#m33b1bc0dbb" y="170.106641"/>
     <use style="fill:#ff0000;stroke:#ff0000;" x="298.355056" xlink:href="#m33b1bc0dbb" y="167.889943"/>
     <use style="fill:#ff0000;stroke:#ff0000;" x="302.36764" xlink:href="#m33b1bc0dbb" y="173.602328"/>
     <use style="fill:#ff0000;stroke:#ff0000;" x="306.380225" xlink:href="#m33b1bc0dbb" y="173.118593"/>
     <use style="fill:#ff0000;stroke:#ff0000;" x="310.392809" xlink:href="#m33b1bc0dbb" y="174.406983"/>
     <use style="fill:#ff0000;stroke:#ff0000;" x="314.405393" xlink:href="#m33b1bc0dbb" y="176.806476"/>
     <use style="fill:#ff0000;stroke:#ff0000;" x="318.417978" xlink:href="#m33b1bc0dbb" y="177.356152"/>
     <use style="fill:#ff0000;stroke:#ff0000;" x="322.430562" xlink:href="#m33b1bc0dbb" y="178.046024"/>
     <use style="fill:#ff0000;stroke:#ff0000;" x="326.443146" xlink:href="#m33b1bc0dbb" y="177.264976"/>
     <use style="fill:#ff0000;stroke:#ff0000;" x="330.45573" xlink:href="#m33b1bc0dbb" y="181.521215"/>
     <use style="fill:#ff0000;stroke:#ff0000;" x="334.468315" xlink:href="#m33b1bc0dbb" y="182.779724"/>
     <use style="fill:#ff0000;stroke:#ff0000;" x="338.480899" xlink:href="#m33b1bc0dbb" y="182.899775"/>
     <use style="fill:#ff0000;stroke:#ff0000;" x="342.493483" xlink:href="#m33b1bc0dbb" y="183.671155"/>
     <use style="fill:#ff0000;stroke:#ff0000;" x="346.506067" xlink:href="#m33b1bc0dbb" y="183.533957"/>
     <use style="fill:#ff0000;stroke:#ff0000;" x="350.518652" xlink:href="#m33b1bc0dbb" y="185.540551"/>
     <use style="fill:#ff0000;stroke:#ff0000;" x="354.531236" xlink:href="#m33b1bc0dbb" y="186.569969"/>
     <use style="fill:#ff0000;stroke:#ff0000;" x="358.54382" xlink:href="#m33b1bc0dbb" y="187.228715"/>
     <use style="fill:#ff0000;stroke:#ff0000;" x="362.556404" xlink:href="#m33b1bc0dbb" y="188.995727"/>
     <use style="fill:#ff0000;stroke:#ff0000;" x="366.568989" xlink:href="#m33b1bc0dbb" y="190.255138"/>
     <use style="fill:#ff0000;stroke:#ff0000;" x="370.581573" xlink:href="#m33b1bc0dbb" y="191.347043"/>
     <use style="fill:#ff0000;stroke:#ff0000;" x="374.594157" xlink:href="#m33b1bc0dbb" y="191.930484"/>
     <use style="fill:#ff0000;stroke:#ff0000;" x="378.606742" xlink:href="#m33b1bc0dbb" y="195.257432"/>
     <use style="fill:#ff0000;stroke:#ff0000;" x="382.619326" xlink:href="#m33b1bc0dbb" y="197.365951"/>
     <use style="fill:#ff0000;stroke:#ff0000;" x="386.63191" xlink:href="#m33b1bc0dbb" y="196.986941"/>
     <use style="fill:#ff0000;stroke:#ff0000;" x="390.644494" xlink:href="#m33b1bc0dbb" y="203.971705"/>
     <use style="fill:#ff0000;stroke:#ff0000;" x="394.657079" xlink:href="#m33b1bc0dbb" y="204.162138"/>
     <use style="fill:#ff0000;stroke:#ff0000;" x="398.669663" xlink:href="#m33b1bc0dbb" y="210.524626"/>
     <use style="fill:#ff0000;stroke:#ff0000;" x="402.682247" xlink:href="#m33b1bc0dbb" y="220.072335"/>
     <use style="fill:#ff0000;stroke:#ff0000;" x="406.694831" xlink:href="#m33b1bc0dbb" y="222.595113"/>
     <use style="fill:#ff0000;stroke:#ff0000;" x="410.707416" xlink:href="#m33b1bc0dbb" y="226.616226"/>
    </g>
   </g>
   <g id="line2d_59">
    <path clip-path="url(#pc71cad86d4)" d="M 61.612584 292.024164 
L 65.625169 274.686414 
L 69.637753 248.632877 
L 73.650337 225.928427 
L 77.662921 206.693913 
L 81.675506 190.546843 
L 85.68809 173.856126 
L 89.700674 156.737367 
L 93.713258 143.713959 
L 97.725843 134.645524 
L 101.738427 124.890617 
L 105.751011 117.361755 
L 109.763596 111.617593 
L 113.77618 106.497058 
L 117.788764 97.682417 
L 121.801348 92.711915 
L 125.813933 86.331276 
L 129.826517 86.250212 
L 133.839101 90.611579 
L 137.851685 88.091344 
L 141.86427 90.537055 
L 145.876854 84.370914 
L 149.889438 85.300211 
L 153.902022 88.685637 
L 157.914607 90.555702 
L 161.927191 86.653293 
L 165.939775 96.045647 
L 169.95236 94.007971 
L 173.964944 95.023436 
L 177.977528 94.76294 
L 181.990112 102.960502 
L 186.002697 105.885449 
L 190.015281 113.378529 
L 194.027865 112.97871 
L 198.040449 118.246127 
L 202.053034 116.744618 
L 206.065618 120.886832 
L 210.078202 127.549242 
L 214.090787 136.652401 
L 218.103371 140.332434 
L 222.115955 145.390708 
L 226.128539 146.64677 
L 230.141124 150.261381 
L 234.153708 155.768344 
L 238.166292 155.015621 
L 242.178876 161.770467 
L 246.191461 161.69763 
L 250.204045 167.090239 
L 254.216629 166.881005 
L 258.229213 178.26453 
L 262.241798 175.506986 
L 266.254382 178.445569 
L 270.266966 177.77694 
L 274.279551 184.244789 
L 278.292135 186.952923 
L 282.304719 188.715645 
L 286.317303 188.701573 
L 290.329888 190.270847 
L 294.342472 193.39053 
L 298.355056 192.384047 
L 302.36764 195.852262 
L 306.380225 196.732271 
L 310.392809 199.08354 
L 314.405393 199.296748 
L 318.417978 201.092972 
L 322.430562 201.466254 
L 326.443146 201.944008 
L 330.45573 205.175992 
L 334.468315 204.404308 
L 338.480899 207.400851 
L 342.493483 207.816191 
L 346.506067 207.64709 
L 350.518652 207.951991 
L 354.531236 208.827101 
L 358.54382 209.810308 
L 362.556404 212.475838 
L 366.568989 212.901932 
L 370.581573 213.865647 
L 374.594157 214.540418 
L 378.606742 217.003487 
L 382.619326 218.856813 
L 386.63191 217.17519 
L 390.644494 221.489081 
L 394.657079 222.501091 
L 398.669663 227.166491 
L 402.682247 233.574735 
L 406.694831 236.331364 
L 410.707416 242.050409 
" style="fill:none;stroke:#008000;stroke-dasharray:1.5,2.475;stroke-dashoffset:0;stroke-width:1.5;"/>
    <defs>
     <path d="M 0 1.5 
C 0.397805 1.5 0.77937 1.341951 1.06066 1.06066 
C 1.341951 0.77937 1.5 0.397805 1.5 0 
C 1.5 -0.397805 1.341951 -0.77937 1.06066 -1.06066 
C 0.77937 -1.341951 0.397805 -1.5 0 -1.5 
C -0.397805 -1.5 -0.77937 -1.341951 -1.06066 -1.06066 
C -1.341951 -0.77937 -1.5 -0.397805 -1.5 0 
C -1.5 0.397805 -1.341951 0.77937 -1.06066 1.06066 
C -0.77937 1.341951 -0.397805 1.5 0 1.5 
z
" id="m13bf1f52db" style="stroke:#008000;"/>
    </defs>
    <g clip-path="url(#pc71cad86d4)">
     <use style="fill:#008000;stroke:#008000;" x="61.612584" xlink:href="#m13bf1f52db" y="292.024164"/>
     <use style="fill:#008000;stroke:#008000;" x="65.625169" xlink:href="#m13bf1f52db" y="274.686414"/>
     <use style="fill:#008000;stroke:#008000;" x="69.637753" xlink:href="#m13bf1f52db" y="248.632877"/>
     <use style="fill:#008000;stroke:#008000;" x="73.650337" xlink:href="#m13bf1f52db" y="225.928427"/>
     <use style="fill:#008000;stroke:#008000;" x="77.662921" xlink:href="#m13bf1f52db" y="206.693913"/>
     <use style="fill:#008000;stroke:#008000;" x="81.675506" xlink:href="#m13bf1f52db" y="190.546843"/>
     <use style="fill:#008000;stroke:#008000;" x="85.68809" xlink:href="#m13bf1f52db" y="173.856126"/>
     <use style="fill:#008000;stroke:#008000;" x="89.700674" xlink:href="#m13bf1f52db" y="156.737367"/>
     <use style="fill:#008000;stroke:#008000;" x="93.713258" xlink:href="#m13bf1f52db" y="143.713959"/>
     <use style="fill:#008000;stroke:#008000;" x="97.725843" xlink:href="#m13bf1f52db" y="134.645524"/>
     <use style="fill:#008000;stroke:#008000;" x="101.738427" xlink:href="#m13bf1f52db" y="124.890617"/>
     <use style="fill:#008000;stroke:#008000;" x="105.751011" xlink:href="#m13bf1f52db" y="117.361755"/>
     <use style="fill:#008000;stroke:#008000;" x="109.763596" xlink:href="#m13bf1f52db" y="111.617593"/>
     <use style="fill:#008000;stroke:#008000;" x="113.77618" xlink:href="#m13bf1f52db" y="106.497058"/>
     <use style="fill:#008000;stroke:#008000;" x="117.788764" xlink:href="#m13bf1f52db" y="97.682417"/>
     <use style="fill:#008000;stroke:#008000;" x="121.801348" xlink:href="#m13bf1f52db" y="92.711915"/>
     <use style="fill:#008000;stroke:#008000;" x="125.813933" xlink:href="#m13bf1f52db" y="86.331276"/>
     <use style="fill:#008000;stroke:#008000;" x="129.826517" xlink:href="#m13bf1f52db" y="86.250212"/>
     <use style="fill:#008000;stroke:#008000;" x="133.839101" xlink:href="#m13bf1f52db" y="90.611579"/>
     <use style="fill:#008000;stroke:#008000;" x="137.851685" xlink:href="#m13bf1f52db" y="88.091344"/>
     <use style="fill:#008000;stroke:#008000;" x="141.86427" xlink:href="#m13bf1f52db" y="90.537055"/>
     <use style="fill:#008000;stroke:#008000;" x="145.876854" xlink:href="#m13bf1f52db" y="84.370914"/>
     <use style="fill:#008000;stroke:#008000;" x="149.889438" xlink:href="#m13bf1f52db" y="85.300211"/>
     <use style="fill:#008000;stroke:#008000;" x="153.902022" xlink:href="#m13bf1f52db" y="88.685637"/>
     <use style="fill:#008000;stroke:#008000;" x="157.914607" xlink:href="#m13bf1f52db" y="90.555702"/>
     <use style="fill:#008000;stroke:#008000;" x="161.927191" xlink:href="#m13bf1f52db" y="86.653293"/>
     <use style="fill:#008000;stroke:#008000;" x="165.939775" xlink:href="#m13bf1f52db" y="96.045647"/>
     <use style="fill:#008000;stroke:#008000;" x="169.95236" xlink:href="#m13bf1f52db" y="94.007971"/>
     <use style="fill:#008000;stroke:#008000;" x="173.964944" xlink:href="#m13bf1f52db" y="95.023436"/>
     <use style="fill:#008000;stroke:#008000;" x="177.977528" xlink:href="#m13bf1f52db" y="94.76294"/>
     <use style="fill:#008000;stroke:#008000;" x="181.990112" xlink:href="#m13bf1f52db" y="102.960502"/>
     <use style="fill:#008000;stroke:#008000;" x="186.002697" xlink:href="#m13bf1f52db" y="105.885449"/>
     <use style="fill:#008000;stroke:#008000;" x="190.015281" xlink:href="#m13bf1f52db" y="113.378529"/>
     <use style="fill:#008000;stroke:#008000;" x="194.027865" xlink:href="#m13bf1f52db" y="112.97871"/>
     <use style="fill:#008000;stroke:#008000;" x="198.040449" xlink:href="#m13bf1f52db" y="118.246127"/>
     <use style="fill:#008000;stroke:#008000;" x="202.053034" xlink:href="#m13bf1f52db" y="116.744618"/>
     <use style="fill:#008000;stroke:#008000;" x="206.065618" xlink:href="#m13bf1f52db" y="120.886832"/>
     <use style="fill:#008000;stroke:#008000;" x="210.078202" xlink:href="#m13bf1f52db" y="127.549242"/>
     <use style="fill:#008000;stroke:#008000;" x="214.090787" xlink:href="#m13bf1f52db" y="136.652401"/>
     <use style="fill:#008000;stroke:#008000;" x="218.103371" xlink:href="#m13bf1f52db" y="140.332434"/>
     <use style="fill:#008000;stroke:#008000;" x="222.115955" xlink:href="#m13bf1f52db" y="145.390708"/>
     <use style="fill:#008000;stroke:#008000;" x="226.128539" xlink:href="#m13bf1f52db" y="146.64677"/>
     <use style="fill:#008000;stroke:#008000;" x="230.141124" xlink:href="#m13bf1f52db" y="150.261381"/>
     <use style="fill:#008000;stroke:#008000;" x="234.153708" xlink:href="#m13bf1f52db" y="155.768344"/>
     <use style="fill:#008000;stroke:#008000;" x="238.166292" xlink:href="#m13bf1f52db" y="155.015621"/>
     <use style="fill:#008000;stroke:#008000;" x="242.178876" xlink:href="#m13bf1f52db" y="161.770467"/>
     <use style="fill:#008000;stroke:#008000;" x="246.191461" xlink:href="#m13bf1f52db" y="161.69763"/>
     <use style="fill:#008000;stroke:#008000;" x="250.204045" xlink:href="#m13bf1f52db" y="167.090239"/>
     <use style="fill:#008000;stroke:#008000;" x="254.216629" xlink:href="#m13bf1f52db" y="166.881005"/>
     <use style="fill:#008000;stroke:#008000;" x="258.229213" xlink:href="#m13bf1f52db" y="178.26453"/>
     <use style="fill:#008000;stroke:#008000;" x="262.241798" xlink:href="#m13bf1f52db" y="175.506986"/>
     <use style="fill:#008000;stroke:#008000;" x="266.254382" xlink:href="#m13bf1f52db" y="178.445569"/>
     <use style="fill:#008000;stroke:#008000;" x="270.266966" xlink:href="#m13bf1f52db" y="177.77694"/>
     <use style="fill:#008000;stroke:#008000;" x="274.279551" xlink:href="#m13bf1f52db" y="184.244789"/>
     <use style="fill:#008000;stroke:#008000;" x="278.292135" xlink:href="#m13bf1f52db" y="186.952923"/>
     <use style="fill:#008000;stroke:#008000;" x="282.304719" xlink:href="#m13bf1f52db" y="188.715645"/>
     <use style="fill:#008000;stroke:#008000;" x="286.317303" xlink:href="#m13bf1f52db" y="188.701573"/>
     <use style="fill:#008000;stroke:#008000;" x="290.329888" xlink:href="#m13bf1f52db" y="190.270847"/>
     <use style="fill:#008000;stroke:#008000;" x="294.342472" xlink:href="#m13bf1f52db" y="193.39053"/>
     <use style="fill:#008000;stroke:#008000;" x="298.355056" xlink:href="#m13bf1f52db" y="192.384047"/>
     <use style="fill:#008000;stroke:#008000;" x="302.36764" xlink:href="#m13bf1f52db" y="195.852262"/>
     <use style="fill:#008000;stroke:#008000;" x="306.380225" xlink:href="#m13bf1f52db" y="196.732271"/>
     <use style="fill:#008000;stroke:#008000;" x="310.392809" xlink:href="#m13bf1f52db" y="199.08354"/>
     <use style="fill:#008000;stroke:#008000;" x="314.405393" xlink:href="#m13bf1f52db" y="199.296748"/>
     <use style="fill:#008000;stroke:#008000;" x="318.417978" xlink:href="#m13bf1f52db" y="201.092972"/>
     <use style="fill:#008000;stroke:#008000;" x="322.430562" xlink:href="#m13bf1f52db" y="201.466254"/>
     <use style="fill:#008000;stroke:#008000;" x="326.443146" xlink:href="#m13bf1f52db" y="201.944008"/>
     <use style="fill:#008000;stroke:#008000;" x="330.45573" xlink:href="#m13bf1f52db" y="205.175992"/>
     <use style="fill:#008000;stroke:#008000;" x="334.468315" xlink:href="#m13bf1f52db" y="204.404308"/>
     <use style="fill:#008000;stroke:#008000;" x="338.480899" xlink:href="#m13bf1f52db" y="207.400851"/>
     <use style="fill:#008000;stroke:#008000;" x="342.493483" xlink:href="#m13bf1f52db" y="207.816191"/>
     <use style="fill:#008000;stroke:#008000;" x="346.506067" xlink:href="#m13bf1f52db" y="207.64709"/>
     <use style="fill:#008000;stroke:#008000;" x="350.518652" xlink:href="#m13bf1f52db" y="207.951991"/>
     <use style="fill:#008000;stroke:#008000;" x="354.531236" xlink:href="#m13bf1f52db" y="208.827101"/>
     <use style="fill:#008000;stroke:#008000;" x="358.54382" xlink:href="#m13bf1f52db" y="209.810308"/>
     <use style="fill:#008000;stroke:#008000;" x="362.556404" xlink:href="#m13bf1f52db" y="212.475838"/>
     <use style="fill:#008000;stroke:#008000;" x="366.568989" xlink:href="#m13bf1f52db" y="212.901932"/>
     <use style="fill:#008000;stroke:#008000;" x="370.581573" xlink:href="#m13bf1f52db" y="213.865647"/>
     <use style="fill:#008000;stroke:#008000;" x="374.594157" xlink:href="#m13bf1f52db" y="214.540418"/>
     <use style="fill:#008000;stroke:#008000;" x="378.606742" xlink:href="#m13bf1f52db" y="217.003487"/>
     <use style="fill:#008000;stroke:#008000;" x="382.619326" xlink:href="#m13bf1f52db" y="218.856813"/>
     <use style="fill:#008000;stroke:#008000;" x="386.63191" xlink:href="#m13bf1f52db" y="217.17519"/>
     <use style="fill:#008000;stroke:#008000;" x="390.644494" xlink:href="#m13bf1f52db" y="221.489081"/>
     <use style="fill:#008000;stroke:#008000;" x="394.657079" xlink:href="#m13bf1f52db" y="222.501091"/>
     <use style="fill:#008000;stroke:#008000;" x="398.669663" xlink:href="#m13bf1f52db" y="227.166491"/>
     <use style="fill:#008000;stroke:#008000;" x="402.682247" xlink:href="#m13bf1f52db" y="233.574735"/>
     <use style="fill:#008000;stroke:#008000;" x="406.694831" xlink:href="#m13bf1f52db" y="236.331364"/>
     <use style="fill:#008000;stroke:#008000;" x="410.707416" xlink:href="#m13bf1f52db" y="242.050409"/>
    </g>
   </g>
   <g id="patch_3">
    <path d="M 57.6 307.584 
L 57.6 41.472 
" style="fill:none;stroke:#000000;stroke-linecap:square;stroke-linejoin:miter;stroke-width:0.8;"/>
   </g>
   <g id="patch_4">
    <path d="M 414.72 307.584 
L 414.72 41.472 
" style="fill:none;stroke:#000000;stroke-linecap:square;stroke-linejoin:miter;stroke-width:0.8;"/>
   </g>
   <g id="patch_5">
    <path d="M 57.6 307.584 
L 414.72 307.584 
" style="fill:none;stroke:#000000;stroke-linecap:square;stroke-linejoin:miter;stroke-width:0.8;"/>
   </g>
   <g id="patch_6">
    <path d="M 57.6 41.472 
L 414.72 41.472 
" style="fill:none;stroke:#000000;stroke-linecap:square;stroke-linejoin:miter;stroke-width:0.8;"/>
   </g>
   <g id="text_31">
    <!-- radix sort 3 on mac_econ_fwd500 -->
    <g transform="translate(134.994375 35.472)scale(0.12 -0.12)">
     <defs>
      <path d="M 9.421875 54.6875 
L 18.40625 54.6875 
L 18.40625 0 
L 9.421875 0 
z
M 9.421875 75.984375 
L 18.40625 75.984375 
L 18.40625 64.59375 
L 9.421875 64.59375 
z
" id="DejaVuSans-105"/>
      <path d="M 54.890625 54.6875 
L 35.109375 28.078125 
L 55.90625 0 
L 45.3125 0 
L 29.390625 21.484375 
L 13.484375 0 
L 2.875 0 
L 24.125 28.609375 
L 4.6875 54.6875 
L 15.28125 54.6875 
L 29.78125 35.203125 
L 44.28125 54.6875 
z
" id="DejaVuSans-120"/>
      <path d="M 30.609375 48.390625 
Q 23.390625 48.390625 19.1875 42.75 
Q 14.984375 37.109375 14.984375 27.296875 
Q 14.984375 17.484375 19.15625 11.84375 
Q 23.34375 6.203125 30.609375 6.203125 
Q 37.796875 6.203125 41.984375 11.859375 
Q 46.1875 17.53125 46.1875 27.296875 
Q 46.1875 37.015625 41.984375 42.703125 
Q 37.796875 48.390625 30.609375 48.390625 
z
M 30.609375 56 
Q 42.328125 56 49.015625 48.375 
Q 55.71875 40.765625 55.71875 27.296875 
Q 55.71875 13.875 49.015625 6.21875 
Q 42.328125 -1.421875 30.609375 -1.421875 
Q 18.84375 -1.421875 12.171875 6.21875 
Q 5.515625 13.875 5.515625 27.296875 
Q 5.515625 40.765625 12.171875 48.375 
Q 18.84375 56 30.609375 56 
z
" id="DejaVuSans-111"/>
      <path d="M 54.890625 33.015625 
L 54.890625 0 
L 45.90625 0 
L 45.90625 32.71875 
Q 45.90625 40.484375 42.875 44.328125 
Q 39.84375 48.1875 33.796875 48.1875 
Q 26.515625 48.1875 22.3125 43.546875 
Q 18.109375 38.921875 18.109375 30.90625 
L 18.109375 0 
L 9.078125 0 
L 9.078125 54.6875 
L 18.109375 54.6875 
L 18.109375 46.1875 
Q 21.34375 51.125 25.703125 53.5625 
Q 30.078125 56 35.796875 56 
Q 45.21875 56 50.046875 50.171875 
Q 54.890625 44.34375 54.890625 33.015625 
z
" id="DejaVuSans-110"/>
      <path d="M 52 44.1875 
Q 55.375 50.25 60.0625 53.125 
Q 64.75 56 71.09375 56 
Q 79.640625 56 84.28125 50.015625 
Q 88.921875 44.046875 88.921875 33.015625 
L 88.921875 0 
L 79.890625 0 
L 79.890625 32.71875 
Q 79.890625 40.578125 77.09375 44.375 
Q 74.3125 48.1875 68.609375 48.1875 
Q 61.625 48.1875 57.5625 43.546875 
Q 53.515625 38.921875 53.515625 30.90625 
L 53.515625 0 
L 44.484375 0 
L 44.484375 32.71875 
Q 44.484375 40.625 41.703125 44.40625 
Q 38.921875 48.1875 33.109375 48.1875 
Q 26.21875 48.1875 22.15625 43.53125 
Q 18.109375 38.875 18.109375 30.90625 
L 18.109375 0 
L 9.078125 0 
L 9.078125 54.6875 
L 18.109375 54.6875 
L 18.109375 46.1875 
Q 21.1875 51.21875 25.484375 53.609375 
Q 29.78125 56 35.6875 56 
Q 41.65625 56 45.828125 52.96875 
Q 50 49.953125 52 44.1875 
z
" id="DejaVuSans-109"/>
      <path d="M 48.78125 52.59375 
L 48.78125 44.1875 
Q 44.96875 46.296875 41.140625 47.34375 
Q 37.3125 48.390625 33.40625 48.390625 
Q 24.65625 48.390625 19.8125 42.84375 
Q 14.984375 37.3125 14.984375 27.296875 
Q 14.984375 17.28125 19.8125 11.734375 
Q 24.65625 6.203125 33.40625 6.203125 
Q 37.3125 6.203125 41.140625 7.25 
Q 44.96875 8.296875 48.78125 10.40625 
L 48.78125 2.09375 
Q 45.015625 0.34375 40.984375 -0.53125 
Q 36.96875 -1.421875 32.421875 -1.421875 
Q 20.0625 -1.421875 12.78125 6.34375 
Q 5.515625 14.109375 5.515625 27.296875 
Q 5.515625 40.671875 12.859375 48.328125 
Q 20.21875 56 33.015625 56 
Q 37.15625 56 41.109375 55.140625 
Q 45.0625 54.296875 48.78125 52.59375 
z
" id="DejaVuSans-99"/>
      <path d="M 50.984375 -16.609375 
L 50.984375 -23.578125 
L -0.984375 -23.578125 
L -0.984375 -16.609375 
z
" id="DejaVuSans-95"/>
      <path d="M 37.109375 75.984375 
L 37.109375 68.5 
L 28.515625 68.5 
Q 23.6875 68.5 21.796875 66.546875 
Q 19.921875 64.59375 19.921875 59.515625 
L 19.921875 54.6875 
L 34.71875 54.6875 
L 34.71875 47.703125 
L 19.921875 47.703125 
L 19.921875 0 
L 10.890625 0 
L 10.890625 47.703125 
L 2.296875 47.703125 
L 2.296875 54.6875 
L 10.890625 54.6875 
L 10.890625 58.5 
Q 10.890625 67.625 15.140625 71.796875 
Q 19.390625 75.984375 28.609375 75.984375 
z
" id="DejaVuSans-102"/>
      <path d="M 4.203125 54.6875 
L 13.1875 54.6875 
L 24.421875 12.015625 
L 35.59375 54.6875 
L 46.1875 54.6875 
L 57.421875 12.015625 
L 68.609375 54.6875 
L 77.59375 54.6875 
L 63.28125 0 
L 52.6875 0 
L 40.921875 44.828125 
L 29.109375 0 
L 18.5 0 
z
" id="DejaVuSans-119"/>
     </defs>
     <use xlink:href="#DejaVuSans-114"/>
     <use x="41.113281" xlink:href="#DejaVuSans-97"/>
     <use x="102.392578" xlink:href="#DejaVuSans-100"/>
     <use x="165.869141" xlink:href="#DejaVuSans-105"/>
     <use x="193.652344" xlink:href="#DejaVuSans-120"/>
     <use x="252.832031" xlink:href="#DejaVuSans-32"/>
     <use x="284.619141" xlink:href="#DejaVuSans-115"/>
     <use x="336.71875" xlink:href="#DejaVuSans-111"/>
     <use x="397.900391" xlink:href="#DejaVuSans-114"/>
     <use x="439.013672" xlink:href="#DejaVuSans-116"/>
     <use x="478.222656" xlink:href="#DejaVuSans-32"/>
     <use x="510.009766" xlink:href="#DejaVuSans-51"/>
     <use x="573.632812" xlink:href="#DejaVuSans-32"/>
     <use x="605.419922" xlink:href="#DejaVuSans-111"/>
     <use x="666.601562" xlink:href="#DejaVuSans-110"/>
     <use x="729.980469" xlink:href="#DejaVuSans-32"/>
     <use x="761.767578" xlink:href="#DejaVuSans-109"/>
     <use x="859.179688" xlink:href="#DejaVuSans-97"/>
     <use x="920.458984" xlink:href="#DejaVuSans-99"/>
     <use x="975.439453" xlink:href="#DejaVuSans-95"/>
     <use x="1025.439453" xlink:href="#DejaVuSans-101"/>
     <use x="1086.962891" xlink:href="#DejaVuSans-99"/>
     <use x="1141.943359" xlink:href="#DejaVuSans-111"/>
     <use x="1203.125" xlink:href="#DejaVuSans-110"/>
     <use x="1266.503906" xlink:href="#DejaVuSans-95"/>
     <use x="1316.503906" xlink:href="#DejaVuSans-102"/>
     <use x="1349.958984" xlink:href="#DejaVuSans-119"/>
     <use x="1431.746094" xlink:href="#DejaVuSans-100"/>
     <use x="1495.222656" xlink:href="#DejaVuSans-53"/>
     <use x="1558.845703" xlink:href="#DejaVuSans-48"/>
     <use x="1622.46875" xlink:href="#DejaVuSans-48"/>
    </g>
   </g>
   <g id="legend_1">
    <g id="patch_7">
     <path d="M 313.152813 93.7845 
L 407.72 93.7845 
Q 409.72 93.7845 409.72 91.7845 
L 409.72 48.472 
Q 409.72 46.472 407.72 46.472 
L 313.152813 46.472 
Q 311.152813 46.472 311.152813 48.472 
L 311.152813 91.7845 
Q 311.152813 93.7845 313.152813 93.7845 
z
" style="fill:#ffffff;opacity:0.8;stroke:#cccccc;stroke-linejoin:miter;"/>
    </g>
    <g id="line2d_60">
     <path d="M 315.152813 54.570438 
L 335.152813 54.570438 
" style="fill:none;stroke:#0000ff;stroke-dasharray:1.5,2.475;stroke-dashoffset:0;stroke-width:1.5;"/>
    </g>
    <g id="line2d_61">
     <g>
      <use style="fill:#0000ff;stroke:#0000ff;" x="325.152813" xlink:href="#m5790d47614" y="54.570438"/>
     </g>
    </g>
    <g id="text_32">
     <!-- transpose -->
     <g transform="translate(343.152813 58.070438)scale(0.1 -0.1)">
      <use xlink:href="#DejaVuSans-116"/>
      <use x="39.208984" xlink:href="#DejaVuSans-114"/>
      <use x="80.322266" xlink:href="#DejaVuSans-97"/>
      <use x="141.601562" xlink:href="#DejaVuSans-110"/>
      <use x="204.980469" xlink:href="#DejaVuSans-115"/>
      <use x="257.080078" xlink:href="#DejaVuSans-112"/>
      <use x="320.556641" xlink:href="#DejaVuSans-111"/>
      <use x="381.738281" xlink:href="#DejaVuSans-115"/>
      <use x="433.837891" xlink:href="#DejaVuSans-101"/>
     </g>
    </g>
    <g id="line2d_62">
     <path d="M 315.152813 69.248563 
L 335.152813 69.248563 
" style="fill:none;stroke:#ff0000;stroke-dasharray:1.5,2.475;stroke-dashoffset:0;stroke-width:1.5;"/>
    </g>
    <g id="line2d_63">
     <g>
      <use style="fill:#ff0000;stroke:#ff0000;" x="325.152813" xlink:href="#m33b1bc0dbb" y="69.248563"/>
     </g>
    </g>
    <g id="text_33">
     <!-- transpose_tr -->
     <g transform="translate(343.152813 72.748563)scale(0.1 -0.1)">
      <use xlink:href="#DejaVuSans-116"/>
      <use x="39.208984" xlink:href="#DejaVuSans-114"/>
      <use x="80.322266" xlink:href="#DejaVuSans-97"/>
      <use x="141.601562" xlink:href="#DejaVuSans-110"/>
      <use x="204.980469" xlink:href="#DejaVuSans-115"/>
      <use x="257.080078" xlink:href="#DejaVuSans-112"/>
      <use x="320.556641" xlink:href="#DejaVuSans-111"/>
      <use x="381.738281" xlink:href="#DejaVuSans-115"/>
      <use x="433.837891" xlink:href="#DejaVuSans-101"/>
      <use x="495.361328" xlink:href="#DejaVuSans-95"/>
      <use x="545.361328" xlink:href="#DejaVuSans-116"/>
      <use x="584.570312" xlink:href="#DejaVuSans-114"/>
     </g>
    </g>
    <g id="line2d_64">
     <path d="M 315.152813 84.204813 
L 335.152813 84.204813 
" style="fill:none;stroke:#008000;stroke-dasharray:1.5,2.475;stroke-dashoffset:0;stroke-width:1.5;"/>
    </g>
    <g id="line2d_65">
     <g>
      <use style="fill:#008000;stroke:#008000;" x="325.152813" xlink:href="#m13bf1f52db" y="84.204813"/>
     </g>
    </g>
    <g id="text_34">
     <!-- mean -->
     <g transform="translate(343.152813 87.704813)scale(0.1 -0.1)">
      <use xlink:href="#DejaVuSans-109"/>
      <use x="97.412109" xlink:href="#DejaVuSans-101"/>
      <use x="158.935547" xlink:href="#DejaVuSans-97"/>
      <use x="220.214844" xlink:href="#DejaVuSans-110"/>
     </g>
    </g>
   </g>
  </g>
 </g>
 <defs>
  <clipPath id="pc71cad86d4">
   <rect height="266.112" width="357.12" x="57.6" y="41.472"/>
  </clipPath>
 </defs>
</svg>
