<?xml version="1.0" encoding="utf-8" standalone="no"?>
<!DOCTYPE svg PUBLIC "-//W3C//DTD SVG 1.1//EN"
  "http://www.w3.org/Graphics/SVG/1.1/DTD/svg11.dtd">
<!-- Created with matplotlib (https://matplotlib.org/) -->
<svg height="345.6pt" version="1.1" viewBox="0 0 460.8 345.6" width="460.8pt" xmlns="http://www.w3.org/2000/svg" xmlns:xlink="http://www.w3.org/1999/xlink">
 <defs>
  <style type="text/css">
*{stroke-linecap:butt;stroke-linejoin:round;}
  </style>
 </defs>
 <g id="figure_1">
  <g id="patch_1">
   <path d="M 0 345.6 
L 460.8 345.6 
L 460.8 0 
L 0 0 
z
" style="fill:#ffffff;"/>
  </g>
  <g id="axes_1">
   <g id="patch_2">
    <path d="M 57.6 307.584 
L 414.72 307.584 
L 414.72 41.472 
L 57.6 41.472 
z
" style="fill:#ffffff;"/>
   </g>
   <g id="matplotlib.axis_1">
    <g id="xtick_1">
     <g id="line2d_1">
      <path clip-path="url(#p55210f014e)" d="M 61.612584 307.584 
L 61.612584 41.472 
" style="fill:none;stroke:#b0b0b0;stroke-dasharray:5.12,1.28,0.8,1.28;stroke-dashoffset:0;stroke-width:0.8;"/>
     </g>
     <g id="line2d_2">
      <defs>
       <path d="M 0 0 
L 0 3.5 
" id="m236211234e" style="stroke:#000000;stroke-width:0.8;"/>
      </defs>
      <g>
       <use style="stroke:#000000;stroke-width:0.8;" x="61.612584" xlink:href="#m236211234e" y="307.584"/>
      </g>
     </g>
     <g id="text_1">
      <!-- 1 -->
      <defs>
       <path d="M 12.40625 8.296875 
L 28.515625 8.296875 
L 28.515625 63.921875 
L 10.984375 60.40625 
L 10.984375 69.390625 
L 28.421875 72.90625 
L 38.28125 72.90625 
L 38.28125 8.296875 
L 54.390625 8.296875 
L 54.390625 0 
L 12.40625 0 
z
" id="DejaVuSans-49"/>
      </defs>
      <g transform="translate(58.431334 322.182437)scale(0.1 -0.1)">
       <use xlink:href="#DejaVuSans-49"/>
      </g>
     </g>
    </g>
    <g id="xtick_2">
     <g id="line2d_3">
      <path clip-path="url(#p55210f014e)" d="M 73.650337 307.584 
L 73.650337 41.472 
" style="fill:none;stroke:#b0b0b0;stroke-dasharray:5.12,1.28,0.8,1.28;stroke-dashoffset:0;stroke-width:0.8;"/>
     </g>
     <g id="line2d_4">
      <g>
       <use style="stroke:#000000;stroke-width:0.8;" x="73.650337" xlink:href="#m236211234e" y="307.584"/>
      </g>
     </g>
     <g id="text_2">
      <!-- 4 -->
      <defs>
       <path d="M 37.796875 64.3125 
L 12.890625 25.390625 
L 37.796875 25.390625 
z
M 35.203125 72.90625 
L 47.609375 72.90625 
L 47.609375 25.390625 
L 58.015625 25.390625 
L 58.015625 17.1875 
L 47.609375 17.1875 
L 47.609375 0 
L 37.796875 0 
L 37.796875 17.1875 
L 4.890625 17.1875 
L 4.890625 26.703125 
z
" id="DejaVuSans-52"/>
      </defs>
      <g transform="translate(70.469087 322.182437)scale(0.1 -0.1)">
       <use xlink:href="#DejaVuSans-52"/>
      </g>
     </g>
    </g>
    <g id="xtick_3">
     <g id="line2d_5">
      <path clip-path="url(#p55210f014e)" d="M 89.700674 307.584 
L 89.700674 41.472 
" style="fill:none;stroke:#b0b0b0;stroke-dasharray:5.12,1.28,0.8,1.28;stroke-dashoffset:0;stroke-width:0.8;"/>
     </g>
     <g id="line2d_6">
      <g>
       <use style="stroke:#000000;stroke-width:0.8;" x="89.700674" xlink:href="#m236211234e" y="307.584"/>
      </g>
     </g>
     <g id="text_3">
      <!-- 8 -->
      <defs>
       <path d="M 31.78125 34.625 
Q 24.75 34.625 20.71875 30.859375 
Q 16.703125 27.09375 16.703125 20.515625 
Q 16.703125 13.921875 20.71875 10.15625 
Q 24.75 6.390625 31.78125 6.390625 
Q 38.8125 6.390625 42.859375 10.171875 
Q 46.921875 13.96875 46.921875 20.515625 
Q 46.921875 27.09375 42.890625 30.859375 
Q 38.875 34.625 31.78125 34.625 
z
M 21.921875 38.8125 
Q 15.578125 40.375 12.03125 44.71875 
Q 8.5 49.078125 8.5 55.328125 
Q 8.5 64.0625 14.71875 69.140625 
Q 20.953125 74.21875 31.78125 74.21875 
Q 42.671875 74.21875 48.875 69.140625 
Q 55.078125 64.0625 55.078125 55.328125 
Q 55.078125 49.078125 51.53125 44.71875 
Q 48 40.375 41.703125 38.8125 
Q 48.828125 37.15625 52.796875 32.3125 
Q 56.78125 27.484375 56.78125 20.515625 
Q 56.78125 9.90625 50.3125 4.234375 
Q 43.84375 -1.421875 31.78125 -1.421875 
Q 19.734375 -1.421875 13.25 4.234375 
Q 6.78125 9.90625 6.78125 20.515625 
Q 6.78125 27.484375 10.78125 32.3125 
Q 14.796875 37.15625 21.921875 38.8125 
z
M 18.3125 54.390625 
Q 18.3125 48.734375 21.84375 45.5625 
Q 25.390625 42.390625 31.78125 42.390625 
Q 38.140625 42.390625 41.71875 45.5625 
Q 45.3125 48.734375 45.3125 54.390625 
Q 45.3125 60.0625 41.71875 63.234375 
Q 38.140625 66.40625 31.78125 66.40625 
Q 25.390625 66.40625 21.84375 63.234375 
Q 18.3125 60.0625 18.3125 54.390625 
z
" id="DejaVuSans-56"/>
      </defs>
      <g transform="translate(86.519424 322.182437)scale(0.1 -0.1)">
       <use xlink:href="#DejaVuSans-56"/>
      </g>
     </g>
    </g>
    <g id="xtick_4">
     <g id="line2d_7">
      <path clip-path="url(#p55210f014e)" d="M 105.751011 307.584 
L 105.751011 41.472 
" style="fill:none;stroke:#b0b0b0;stroke-dasharray:5.12,1.28,0.8,1.28;stroke-dashoffset:0;stroke-width:0.8;"/>
     </g>
     <g id="line2d_8">
      <g>
       <use style="stroke:#000000;stroke-width:0.8;" x="105.751011" xlink:href="#m236211234e" y="307.584"/>
      </g>
     </g>
     <g id="text_4">
      <!-- 12 -->
      <defs>
       <path d="M 19.1875 8.296875 
L 53.609375 8.296875 
L 53.609375 0 
L 7.328125 0 
L 7.328125 8.296875 
Q 12.9375 14.109375 22.625 23.890625 
Q 32.328125 33.6875 34.8125 36.53125 
Q 39.546875 41.84375 41.421875 45.53125 
Q 43.3125 49.21875 43.3125 52.78125 
Q 43.3125 58.59375 39.234375 62.25 
Q 35.15625 65.921875 28.609375 65.921875 
Q 23.96875 65.921875 18.8125 64.3125 
Q 13.671875 62.703125 7.8125 59.421875 
L 7.8125 69.390625 
Q 13.765625 71.78125 18.9375 73 
Q 24.125 74.21875 28.421875 74.21875 
Q 39.75 74.21875 46.484375 68.546875 
Q 53.21875 62.890625 53.21875 53.421875 
Q 53.21875 48.921875 51.53125 44.890625 
Q 49.859375 40.875 45.40625 35.40625 
Q 44.1875 33.984375 37.640625 27.21875 
Q 31.109375 20.453125 19.1875 8.296875 
z
" id="DejaVuSans-50"/>
      </defs>
      <g transform="translate(99.388511 322.182437)scale(0.1 -0.1)">
       <use xlink:href="#DejaVuSans-49"/>
       <use x="63.623047" xlink:href="#DejaVuSans-50"/>
      </g>
     </g>
    </g>
    <g id="xtick_5">
     <g id="line2d_9">
      <path clip-path="url(#p55210f014e)" d="M 121.801348 307.584 
L 121.801348 41.472 
" style="fill:none;stroke:#b0b0b0;stroke-dasharray:5.12,1.28,0.8,1.28;stroke-dashoffset:0;stroke-width:0.8;"/>
     </g>
     <g id="line2d_10">
      <g>
       <use style="stroke:#000000;stroke-width:0.8;" x="121.801348" xlink:href="#m236211234e" y="307.584"/>
      </g>
     </g>
     <g id="text_5">
      <!-- 16 -->
      <defs>
       <path d="M 33.015625 40.375 
Q 26.375 40.375 22.484375 35.828125 
Q 18.609375 31.296875 18.609375 23.390625 
Q 18.609375 15.53125 22.484375 10.953125 
Q 26.375 6.390625 33.015625 6.390625 
Q 39.65625 6.390625 43.53125 10.953125 
Q 47.40625 15.53125 47.40625 23.390625 
Q 47.40625 31.296875 43.53125 35.828125 
Q 39.65625 40.375 33.015625 40.375 
z
M 52.59375 71.296875 
L 52.59375 62.3125 
Q 48.875 64.0625 45.09375 64.984375 
Q 41.3125 65.921875 37.59375 65.921875 
Q 27.828125 65.921875 22.671875 59.328125 
Q 17.53125 52.734375 16.796875 39.40625 
Q 19.671875 43.65625 24.015625 45.921875 
Q 28.375 48.1875 33.59375 48.1875 
Q 44.578125 48.1875 50.953125 41.515625 
Q 57.328125 34.859375 57.328125 23.390625 
Q 57.328125 12.15625 50.6875 5.359375 
Q 44.046875 -1.421875 33.015625 -1.421875 
Q 20.359375 -1.421875 13.671875 8.265625 
Q 6.984375 17.96875 6.984375 36.375 
Q 6.984375 53.65625 15.1875 63.9375 
Q 23.390625 74.21875 37.203125 74.21875 
Q 40.921875 74.21875 44.703125 73.484375 
Q 48.484375 72.75 52.59375 71.296875 
z
" id="DejaVuSans-54"/>
      </defs>
      <g transform="translate(115.438848 322.182437)scale(0.1 -0.1)">
       <use xlink:href="#DejaVuSans-49"/>
       <use x="63.623047" xlink:href="#DejaVuSans-54"/>
      </g>
     </g>
    </g>
    <g id="xtick_6">
     <g id="line2d_11">
      <path clip-path="url(#p55210f014e)" d="M 137.851685 307.584 
L 137.851685 41.472 
" style="fill:none;stroke:#b0b0b0;stroke-dasharray:5.12,1.28,0.8,1.28;stroke-dashoffset:0;stroke-width:0.8;"/>
     </g>
     <g id="line2d_12">
      <g>
       <use style="stroke:#000000;stroke-width:0.8;" x="137.851685" xlink:href="#m236211234e" y="307.584"/>
      </g>
     </g>
     <g id="text_6">
      <!-- 20 -->
      <defs>
       <path d="M 31.78125 66.40625 
Q 24.171875 66.40625 20.328125 58.90625 
Q 16.5 51.421875 16.5 36.375 
Q 16.5 21.390625 20.328125 13.890625 
Q 24.171875 6.390625 31.78125 6.390625 
Q 39.453125 6.390625 43.28125 13.890625 
Q 47.125 21.390625 47.125 36.375 
Q 47.125 51.421875 43.28125 58.90625 
Q 39.453125 66.40625 31.78125 66.40625 
z
M 31.78125 74.21875 
Q 44.046875 74.21875 50.515625 64.515625 
Q 56.984375 54.828125 56.984375 36.375 
Q 56.984375 17.96875 50.515625 8.265625 
Q 44.046875 -1.421875 31.78125 -1.421875 
Q 19.53125 -1.421875 13.0625 8.265625 
Q 6.59375 17.96875 6.59375 36.375 
Q 6.59375 54.828125 13.0625 64.515625 
Q 19.53125 74.21875 31.78125 74.21875 
z
" id="DejaVuSans-48"/>
      </defs>
      <g transform="translate(131.489185 322.182437)scale(0.1 -0.1)">
       <use xlink:href="#DejaVuSans-50"/>
       <use x="63.623047" xlink:href="#DejaVuSans-48"/>
      </g>
     </g>
    </g>
    <g id="xtick_7">
     <g id="line2d_13">
      <path clip-path="url(#p55210f014e)" d="M 153.902022 307.584 
L 153.902022 41.472 
" style="fill:none;stroke:#b0b0b0;stroke-dasharray:5.12,1.28,0.8,1.28;stroke-dashoffset:0;stroke-width:0.8;"/>
     </g>
     <g id="line2d_14">
      <g>
       <use style="stroke:#000000;stroke-width:0.8;" x="153.902022" xlink:href="#m236211234e" y="307.584"/>
      </g>
     </g>
     <g id="text_7">
      <!-- 24 -->
      <g transform="translate(147.539522 322.182437)scale(0.1 -0.1)">
       <use xlink:href="#DejaVuSans-50"/>
       <use x="63.623047" xlink:href="#DejaVuSans-52"/>
      </g>
     </g>
    </g>
    <g id="xtick_8">
     <g id="line2d_15">
      <path clip-path="url(#p55210f014e)" d="M 169.95236 307.584 
L 169.95236 41.472 
" style="fill:none;stroke:#b0b0b0;stroke-dasharray:5.12,1.28,0.8,1.28;stroke-dashoffset:0;stroke-width:0.8;"/>
     </g>
     <g id="line2d_16">
      <g>
       <use style="stroke:#000000;stroke-width:0.8;" x="169.95236" xlink:href="#m236211234e" y="307.584"/>
      </g>
     </g>
     <g id="text_8">
      <!-- 28 -->
      <g transform="translate(163.58986 322.182437)scale(0.1 -0.1)">
       <use xlink:href="#DejaVuSans-50"/>
       <use x="63.623047" xlink:href="#DejaVuSans-56"/>
      </g>
     </g>
    </g>
    <g id="xtick_9">
     <g id="line2d_17">
      <path clip-path="url(#p55210f014e)" d="M 186.002697 307.584 
L 186.002697 41.472 
" style="fill:none;stroke:#b0b0b0;stroke-dasharray:5.12,1.28,0.8,1.28;stroke-dashoffset:0;stroke-width:0.8;"/>
     </g>
     <g id="line2d_18">
      <g>
       <use style="stroke:#000000;stroke-width:0.8;" x="186.002697" xlink:href="#m236211234e" y="307.584"/>
      </g>
     </g>
     <g id="text_9">
      <!-- 32 -->
      <defs>
       <path d="M 40.578125 39.3125 
Q 47.65625 37.796875 51.625 33 
Q 55.609375 28.21875 55.609375 21.1875 
Q 55.609375 10.40625 48.1875 4.484375 
Q 40.765625 -1.421875 27.09375 -1.421875 
Q 22.515625 -1.421875 17.65625 -0.515625 
Q 12.796875 0.390625 7.625 2.203125 
L 7.625 11.71875 
Q 11.71875 9.328125 16.59375 8.109375 
Q 21.484375 6.890625 26.8125 6.890625 
Q 36.078125 6.890625 40.9375 10.546875 
Q 45.796875 14.203125 45.796875 21.1875 
Q 45.796875 27.640625 41.28125 31.265625 
Q 36.765625 34.90625 28.71875 34.90625 
L 20.21875 34.90625 
L 20.21875 43.015625 
L 29.109375 43.015625 
Q 36.375 43.015625 40.234375 45.921875 
Q 44.09375 48.828125 44.09375 54.296875 
Q 44.09375 59.90625 40.109375 62.90625 
Q 36.140625 65.921875 28.71875 65.921875 
Q 24.65625 65.921875 20.015625 65.03125 
Q 15.375 64.15625 9.8125 62.3125 
L 9.8125 71.09375 
Q 15.4375 72.65625 20.34375 73.4375 
Q 25.25 74.21875 29.59375 74.21875 
Q 40.828125 74.21875 47.359375 69.109375 
Q 53.90625 64.015625 53.90625 55.328125 
Q 53.90625 49.265625 50.4375 45.09375 
Q 46.96875 40.921875 40.578125 39.3125 
z
" id="DejaVuSans-51"/>
      </defs>
      <g transform="translate(179.640197 322.182437)scale(0.1 -0.1)">
       <use xlink:href="#DejaVuSans-51"/>
       <use x="63.623047" xlink:href="#DejaVuSans-50"/>
      </g>
     </g>
    </g>
    <g id="xtick_10">
     <g id="line2d_19">
      <path clip-path="url(#p55210f014e)" d="M 202.053034 307.584 
L 202.053034 41.472 
" style="fill:none;stroke:#b0b0b0;stroke-dasharray:5.12,1.28,0.8,1.28;stroke-dashoffset:0;stroke-width:0.8;"/>
     </g>
     <g id="line2d_20">
      <g>
       <use style="stroke:#000000;stroke-width:0.8;" x="202.053034" xlink:href="#m236211234e" y="307.584"/>
      </g>
     </g>
     <g id="text_10">
      <!-- 36 -->
      <g transform="translate(195.690534 322.182437)scale(0.1 -0.1)">
       <use xlink:href="#DejaVuSans-51"/>
       <use x="63.623047" xlink:href="#DejaVuSans-54"/>
      </g>
     </g>
    </g>
    <g id="xtick_11">
     <g id="line2d_21">
      <path clip-path="url(#p55210f014e)" d="M 218.103371 307.584 
L 218.103371 41.472 
" style="fill:none;stroke:#b0b0b0;stroke-dasharray:5.12,1.28,0.8,1.28;stroke-dashoffset:0;stroke-width:0.8;"/>
     </g>
     <g id="line2d_22">
      <g>
       <use style="stroke:#000000;stroke-width:0.8;" x="218.103371" xlink:href="#m236211234e" y="307.584"/>
      </g>
     </g>
     <g id="text_11">
      <!-- 40 -->
      <g transform="translate(211.740871 322.182437)scale(0.1 -0.1)">
       <use xlink:href="#DejaVuSans-52"/>
       <use x="63.623047" xlink:href="#DejaVuSans-48"/>
      </g>
     </g>
    </g>
    <g id="xtick_12">
     <g id="line2d_23">
      <path clip-path="url(#p55210f014e)" d="M 234.153708 307.584 
L 234.153708 41.472 
" style="fill:none;stroke:#b0b0b0;stroke-dasharray:5.12,1.28,0.8,1.28;stroke-dashoffset:0;stroke-width:0.8;"/>
     </g>
     <g id="line2d_24">
      <g>
       <use style="stroke:#000000;stroke-width:0.8;" x="234.153708" xlink:href="#m236211234e" y="307.584"/>
      </g>
     </g>
     <g id="text_12">
      <!-- 44 -->
      <g transform="translate(227.791208 322.182437)scale(0.1 -0.1)">
       <use xlink:href="#DejaVuSans-52"/>
       <use x="63.623047" xlink:href="#DejaVuSans-52"/>
      </g>
     </g>
    </g>
    <g id="xtick_13">
     <g id="line2d_25">
      <path clip-path="url(#p55210f014e)" d="M 250.204045 307.584 
L 250.204045 41.472 
" style="fill:none;stroke:#b0b0b0;stroke-dasharray:5.12,1.28,0.8,1.28;stroke-dashoffset:0;stroke-width:0.8;"/>
     </g>
     <g id="line2d_26">
      <g>
       <use style="stroke:#000000;stroke-width:0.8;" x="250.204045" xlink:href="#m236211234e" y="307.584"/>
      </g>
     </g>
     <g id="text_13">
      <!-- 48 -->
      <g transform="translate(243.841545 322.182437)scale(0.1 -0.1)">
       <use xlink:href="#DejaVuSans-52"/>
       <use x="63.623047" xlink:href="#DejaVuSans-56"/>
      </g>
     </g>
    </g>
    <g id="xtick_14">
     <g id="line2d_27">
      <path clip-path="url(#p55210f014e)" d="M 266.254382 307.584 
L 266.254382 41.472 
" style="fill:none;stroke:#b0b0b0;stroke-dasharray:5.12,1.28,0.8,1.28;stroke-dashoffset:0;stroke-width:0.8;"/>
     </g>
     <g id="line2d_28">
      <g>
       <use style="stroke:#000000;stroke-width:0.8;" x="266.254382" xlink:href="#m236211234e" y="307.584"/>
      </g>
     </g>
     <g id="text_14">
      <!-- 52 -->
      <defs>
       <path d="M 10.796875 72.90625 
L 49.515625 72.90625 
L 49.515625 64.59375 
L 19.828125 64.59375 
L 19.828125 46.734375 
Q 21.96875 47.46875 24.109375 47.828125 
Q 26.265625 48.1875 28.421875 48.1875 
Q 40.625 48.1875 47.75 41.5 
Q 54.890625 34.8125 54.890625 23.390625 
Q 54.890625 11.625 47.5625 5.09375 
Q 40.234375 -1.421875 26.90625 -1.421875 
Q 22.3125 -1.421875 17.546875 -0.640625 
Q 12.796875 0.140625 7.71875 1.703125 
L 7.71875 11.625 
Q 12.109375 9.234375 16.796875 8.0625 
Q 21.484375 6.890625 26.703125 6.890625 
Q 35.15625 6.890625 40.078125 11.328125 
Q 45.015625 15.765625 45.015625 23.390625 
Q 45.015625 31 40.078125 35.4375 
Q 35.15625 39.890625 26.703125 39.890625 
Q 22.75 39.890625 18.8125 39.015625 
Q 14.890625 38.140625 10.796875 36.28125 
z
" id="DejaVuSans-53"/>
      </defs>
      <g transform="translate(259.891882 322.182437)scale(0.1 -0.1)">
       <use xlink:href="#DejaVuSans-53"/>
       <use x="63.623047" xlink:href="#DejaVuSans-50"/>
      </g>
     </g>
    </g>
    <g id="xtick_15">
     <g id="line2d_29">
      <path clip-path="url(#p55210f014e)" d="M 282.304719 307.584 
L 282.304719 41.472 
" style="fill:none;stroke:#b0b0b0;stroke-dasharray:5.12,1.28,0.8,1.28;stroke-dashoffset:0;stroke-width:0.8;"/>
     </g>
     <g id="line2d_30">
      <g>
       <use style="stroke:#000000;stroke-width:0.8;" x="282.304719" xlink:href="#m236211234e" y="307.584"/>
      </g>
     </g>
     <g id="text_15">
      <!-- 56 -->
      <g transform="translate(275.942219 322.182437)scale(0.1 -0.1)">
       <use xlink:href="#DejaVuSans-53"/>
       <use x="63.623047" xlink:href="#DejaVuSans-54"/>
      </g>
     </g>
    </g>
    <g id="xtick_16">
     <g id="line2d_31">
      <path clip-path="url(#p55210f014e)" d="M 298.355056 307.584 
L 298.355056 41.472 
" style="fill:none;stroke:#b0b0b0;stroke-dasharray:5.12,1.28,0.8,1.28;stroke-dashoffset:0;stroke-width:0.8;"/>
     </g>
     <g id="line2d_32">
      <g>
       <use style="stroke:#000000;stroke-width:0.8;" x="298.355056" xlink:href="#m236211234e" y="307.584"/>
      </g>
     </g>
     <g id="text_16">
      <!-- 60 -->
      <g transform="translate(291.992556 322.182437)scale(0.1 -0.1)">
       <use xlink:href="#DejaVuSans-54"/>
       <use x="63.623047" xlink:href="#DejaVuSans-48"/>
      </g>
     </g>
    </g>
    <g id="xtick_17">
     <g id="line2d_33">
      <path clip-path="url(#p55210f014e)" d="M 314.405393 307.584 
L 314.405393 41.472 
" style="fill:none;stroke:#b0b0b0;stroke-dasharray:5.12,1.28,0.8,1.28;stroke-dashoffset:0;stroke-width:0.8;"/>
     </g>
     <g id="line2d_34">
      <g>
       <use style="stroke:#000000;stroke-width:0.8;" x="314.405393" xlink:href="#m236211234e" y="307.584"/>
      </g>
     </g>
     <g id="text_17">
      <!-- 64 -->
      <g transform="translate(308.042893 322.182437)scale(0.1 -0.1)">
       <use xlink:href="#DejaVuSans-54"/>
       <use x="63.623047" xlink:href="#DejaVuSans-52"/>
      </g>
     </g>
    </g>
    <g id="xtick_18">
     <g id="line2d_35">
      <path clip-path="url(#p55210f014e)" d="M 330.45573 307.584 
L 330.45573 41.472 
" style="fill:none;stroke:#b0b0b0;stroke-dasharray:5.12,1.28,0.8,1.28;stroke-dashoffset:0;stroke-width:0.8;"/>
     </g>
     <g id="line2d_36">
      <g>
       <use style="stroke:#000000;stroke-width:0.8;" x="330.45573" xlink:href="#m236211234e" y="307.584"/>
      </g>
     </g>
     <g id="text_18">
      <!-- 68 -->
      <g transform="translate(324.09323 322.182437)scale(0.1 -0.1)">
       <use xlink:href="#DejaVuSans-54"/>
       <use x="63.623047" xlink:href="#DejaVuSans-56"/>
      </g>
     </g>
    </g>
    <g id="xtick_19">
     <g id="line2d_37">
      <path clip-path="url(#p55210f014e)" d="M 346.506067 307.584 
L 346.506067 41.472 
" style="fill:none;stroke:#b0b0b0;stroke-dasharray:5.12,1.28,0.8,1.28;stroke-dashoffset:0;stroke-width:0.8;"/>
     </g>
     <g id="line2d_38">
      <g>
       <use style="stroke:#000000;stroke-width:0.8;" x="346.506067" xlink:href="#m236211234e" y="307.584"/>
      </g>
     </g>
     <g id="text_19">
      <!-- 72 -->
      <defs>
       <path d="M 8.203125 72.90625 
L 55.078125 72.90625 
L 55.078125 68.703125 
L 28.609375 0 
L 18.3125 0 
L 43.21875 64.59375 
L 8.203125 64.59375 
z
" id="DejaVuSans-55"/>
      </defs>
      <g transform="translate(340.143567 322.182437)scale(0.1 -0.1)">
       <use xlink:href="#DejaVuSans-55"/>
       <use x="63.623047" xlink:href="#DejaVuSans-50"/>
      </g>
     </g>
    </g>
    <g id="xtick_20">
     <g id="line2d_39">
      <path clip-path="url(#p55210f014e)" d="M 362.556404 307.584 
L 362.556404 41.472 
" style="fill:none;stroke:#b0b0b0;stroke-dasharray:5.12,1.28,0.8,1.28;stroke-dashoffset:0;stroke-width:0.8;"/>
     </g>
     <g id="line2d_40">
      <g>
       <use style="stroke:#000000;stroke-width:0.8;" x="362.556404" xlink:href="#m236211234e" y="307.584"/>
      </g>
     </g>
     <g id="text_20">
      <!-- 76 -->
      <g transform="translate(356.193904 322.182437)scale(0.1 -0.1)">
       <use xlink:href="#DejaVuSans-55"/>
       <use x="63.623047" xlink:href="#DejaVuSans-54"/>
      </g>
     </g>
    </g>
    <g id="xtick_21">
     <g id="line2d_41">
      <path clip-path="url(#p55210f014e)" d="M 378.606742 307.584 
L 378.606742 41.472 
" style="fill:none;stroke:#b0b0b0;stroke-dasharray:5.12,1.28,0.8,1.28;stroke-dashoffset:0;stroke-width:0.8;"/>
     </g>
     <g id="line2d_42">
      <g>
       <use style="stroke:#000000;stroke-width:0.8;" x="378.606742" xlink:href="#m236211234e" y="307.584"/>
      </g>
     </g>
     <g id="text_21">
      <!-- 80 -->
      <g transform="translate(372.244242 322.182437)scale(0.1 -0.1)">
       <use xlink:href="#DejaVuSans-56"/>
       <use x="63.623047" xlink:href="#DejaVuSans-48"/>
      </g>
     </g>
    </g>
    <g id="xtick_22">
     <g id="line2d_43">
      <path clip-path="url(#p55210f014e)" d="M 394.657079 307.584 
L 394.657079 41.472 
" style="fill:none;stroke:#b0b0b0;stroke-dasharray:5.12,1.28,0.8,1.28;stroke-dashoffset:0;stroke-width:0.8;"/>
     </g>
     <g id="line2d_44">
      <g>
       <use style="stroke:#000000;stroke-width:0.8;" x="394.657079" xlink:href="#m236211234e" y="307.584"/>
      </g>
     </g>
     <g id="text_22">
      <!-- 84 -->
      <g transform="translate(388.294579 322.182437)scale(0.1 -0.1)">
       <use xlink:href="#DejaVuSans-56"/>
       <use x="63.623047" xlink:href="#DejaVuSans-52"/>
      </g>
     </g>
    </g>
    <g id="xtick_23">
     <g id="line2d_45">
      <path clip-path="url(#p55210f014e)" d="M 410.707416 307.584 
L 410.707416 41.472 
" style="fill:none;stroke:#b0b0b0;stroke-dasharray:5.12,1.28,0.8,1.28;stroke-dashoffset:0;stroke-width:0.8;"/>
     </g>
     <g id="line2d_46">
      <g>
       <use style="stroke:#000000;stroke-width:0.8;" x="410.707416" xlink:href="#m236211234e" y="307.584"/>
      </g>
     </g>
     <g id="text_23">
      <!-- 88 -->
      <g transform="translate(404.344916 322.182437)scale(0.1 -0.1)">
       <use xlink:href="#DejaVuSans-56"/>
       <use x="63.623047" xlink:href="#DejaVuSans-56"/>
      </g>
     </g>
    </g>
    <g id="text_24">
     <!-- threads -->
     <defs>
      <path d="M 18.3125 70.21875 
L 18.3125 54.6875 
L 36.8125 54.6875 
L 36.8125 47.703125 
L 18.3125 47.703125 
L 18.3125 18.015625 
Q 18.3125 11.328125 20.140625 9.421875 
Q 21.96875 7.515625 27.59375 7.515625 
L 36.8125 7.515625 
L 36.8125 0 
L 27.59375 0 
Q 17.1875 0 13.234375 3.875 
Q 9.28125 7.765625 9.28125 18.015625 
L 9.28125 47.703125 
L 2.6875 47.703125 
L 2.6875 54.6875 
L 9.28125 54.6875 
L 9.28125 70.21875 
z
" id="DejaVuSans-116"/>
      <path d="M 54.890625 33.015625 
L 54.890625 0 
L 45.90625 0 
L 45.90625 32.71875 
Q 45.90625 40.484375 42.875 44.328125 
Q 39.84375 48.1875 33.796875 48.1875 
Q 26.515625 48.1875 22.3125 43.546875 
Q 18.109375 38.921875 18.109375 30.90625 
L 18.109375 0 
L 9.078125 0 
L 9.078125 75.984375 
L 18.109375 75.984375 
L 18.109375 46.1875 
Q 21.34375 51.125 25.703125 53.5625 
Q 30.078125 56 35.796875 56 
Q 45.21875 56 50.046875 50.171875 
Q 54.890625 44.34375 54.890625 33.015625 
z
" id="DejaVuSans-104"/>
      <path d="M 41.109375 46.296875 
Q 39.59375 47.171875 37.8125 47.578125 
Q 36.03125 48 33.890625 48 
Q 26.265625 48 22.1875 43.046875 
Q 18.109375 38.09375 18.109375 28.8125 
L 18.109375 0 
L 9.078125 0 
L 9.078125 54.6875 
L 18.109375 54.6875 
L 18.109375 46.1875 
Q 20.953125 51.171875 25.484375 53.578125 
Q 30.03125 56 36.53125 56 
Q 37.453125 56 38.578125 55.875 
Q 39.703125 55.765625 41.0625 55.515625 
z
" id="DejaVuSans-114"/>
      <path d="M 56.203125 29.59375 
L 56.203125 25.203125 
L 14.890625 25.203125 
Q 15.484375 15.921875 20.484375 11.0625 
Q 25.484375 6.203125 34.421875 6.203125 
Q 39.59375 6.203125 44.453125 7.46875 
Q 49.3125 8.734375 54.109375 11.28125 
L 54.109375 2.78125 
Q 49.265625 0.734375 44.1875 -0.34375 
Q 39.109375 -1.421875 33.890625 -1.421875 
Q 20.796875 -1.421875 13.15625 6.1875 
Q 5.515625 13.8125 5.515625 26.8125 
Q 5.515625 40.234375 12.765625 48.109375 
Q 20.015625 56 32.328125 56 
Q 43.359375 56 49.78125 48.890625 
Q 56.203125 41.796875 56.203125 29.59375 
z
M 47.21875 32.234375 
Q 47.125 39.59375 43.09375 43.984375 
Q 39.0625 48.390625 32.421875 48.390625 
Q 24.90625 48.390625 20.390625 44.140625 
Q 15.875 39.890625 15.1875 32.171875 
z
" id="DejaVuSans-101"/>
      <path d="M 34.28125 27.484375 
Q 23.390625 27.484375 19.1875 25 
Q 14.984375 22.515625 14.984375 16.5 
Q 14.984375 11.71875 18.140625 8.90625 
Q 21.296875 6.109375 26.703125 6.109375 
Q 34.1875 6.109375 38.703125 11.40625 
Q 43.21875 16.703125 43.21875 25.484375 
L 43.21875 27.484375 
z
M 52.203125 31.203125 
L 52.203125 0 
L 43.21875 0 
L 43.21875 8.296875 
Q 40.140625 3.328125 35.546875 0.953125 
Q 30.953125 -1.421875 24.3125 -1.421875 
Q 15.921875 -1.421875 10.953125 3.296875 
Q 6 8.015625 6 15.921875 
Q 6 25.140625 12.171875 29.828125 
Q 18.359375 34.515625 30.609375 34.515625 
L 43.21875 34.515625 
L 43.21875 35.40625 
Q 43.21875 41.609375 39.140625 45 
Q 35.0625 48.390625 27.6875 48.390625 
Q 23 48.390625 18.546875 47.265625 
Q 14.109375 46.140625 10.015625 43.890625 
L 10.015625 52.203125 
Q 14.9375 54.109375 19.578125 55.046875 
Q 24.21875 56 28.609375 56 
Q 40.484375 56 46.34375 49.84375 
Q 52.203125 43.703125 52.203125 31.203125 
z
" id="DejaVuSans-97"/>
      <path d="M 45.40625 46.390625 
L 45.40625 75.984375 
L 54.390625 75.984375 
L 54.390625 0 
L 45.40625 0 
L 45.40625 8.203125 
Q 42.578125 3.328125 38.25 0.953125 
Q 33.9375 -1.421875 27.875 -1.421875 
Q 17.96875 -1.421875 11.734375 6.484375 
Q 5.515625 14.40625 5.515625 27.296875 
Q 5.515625 40.1875 11.734375 48.09375 
Q 17.96875 56 27.875 56 
Q 33.9375 56 38.25 53.625 
Q 42.578125 51.265625 45.40625 46.390625 
z
M 14.796875 27.296875 
Q 14.796875 17.390625 18.875 11.75 
Q 22.953125 6.109375 30.078125 6.109375 
Q 37.203125 6.109375 41.296875 11.75 
Q 45.40625 17.390625 45.40625 27.296875 
Q 45.40625 37.203125 41.296875 42.84375 
Q 37.203125 48.484375 30.078125 48.484375 
Q 22.953125 48.484375 18.875 42.84375 
Q 14.796875 37.203125 14.796875 27.296875 
z
" id="DejaVuSans-100"/>
      <path d="M 44.28125 53.078125 
L 44.28125 44.578125 
Q 40.484375 46.53125 36.375 47.5 
Q 32.28125 48.484375 27.875 48.484375 
Q 21.1875 48.484375 17.84375 46.4375 
Q 14.5 44.390625 14.5 40.28125 
Q 14.5 37.15625 16.890625 35.375 
Q 19.28125 33.59375 26.515625 31.984375 
L 29.59375 31.296875 
Q 39.15625 29.25 43.1875 25.515625 
Q 47.21875 21.78125 47.21875 15.09375 
Q 47.21875 7.46875 41.1875 3.015625 
Q 35.15625 -1.421875 24.609375 -1.421875 
Q 20.21875 -1.421875 15.453125 -0.5625 
Q 10.6875 0.296875 5.421875 2 
L 5.421875 11.28125 
Q 10.40625 8.6875 15.234375 7.390625 
Q 20.0625 6.109375 24.8125 6.109375 
Q 31.15625 6.109375 34.5625 8.28125 
Q 37.984375 10.453125 37.984375 14.40625 
Q 37.984375 18.0625 35.515625 20.015625 
Q 33.0625 21.96875 24.703125 23.78125 
L 21.578125 24.515625 
Q 13.234375 26.265625 9.515625 29.90625 
Q 5.8125 33.546875 5.8125 39.890625 
Q 5.8125 47.609375 11.28125 51.796875 
Q 16.75 56 26.8125 56 
Q 31.78125 56 36.171875 55.265625 
Q 40.578125 54.546875 44.28125 53.078125 
z
" id="DejaVuSans-115"/>
     </defs>
     <g transform="translate(217.168594 335.860562)scale(0.1 -0.1)">
      <use xlink:href="#DejaVuSans-116"/>
      <use x="39.208984" xlink:href="#DejaVuSans-104"/>
      <use x="102.587891" xlink:href="#DejaVuSans-114"/>
      <use x="141.451172" xlink:href="#DejaVuSans-101"/>
      <use x="202.974609" xlink:href="#DejaVuSans-97"/>
      <use x="264.253906" xlink:href="#DejaVuSans-100"/>
      <use x="327.730469" xlink:href="#DejaVuSans-115"/>
     </g>
    </g>
   </g>
   <g id="matplotlib.axis_2">
    <g id="ytick_1">
     <g id="line2d_47">
      <path clip-path="url(#p55210f014e)" d="M 57.6 287.925868 
L 414.72 287.925868 
" style="fill:none;stroke:#b0b0b0;stroke-dasharray:5.12,1.28,0.8,1.28;stroke-dashoffset:0;stroke-width:0.8;"/>
     </g>
     <g id="line2d_48">
      <defs>
       <path d="M 0 0 
L -3.5 0 
" id="m7ac39c5ae7" style="stroke:#000000;stroke-width:0.8;"/>
      </defs>
      <g>
       <use style="stroke:#000000;stroke-width:0.8;" x="57.6" xlink:href="#m7ac39c5ae7" y="287.925868"/>
      </g>
     </g>
     <g id="text_25">
      <!-- 1.0 -->
      <defs>
       <path d="M 10.6875 12.40625 
L 21 12.40625 
L 21 0 
L 10.6875 0 
z
" id="DejaVuSans-46"/>
      </defs>
      <g transform="translate(34.696875 291.725087)scale(0.1 -0.1)">
       <use xlink:href="#DejaVuSans-49"/>
       <use x="63.623047" xlink:href="#DejaVuSans-46"/>
       <use x="95.410156" xlink:href="#DejaVuSans-48"/>
      </g>
     </g>
    </g>
    <g id="ytick_2">
     <g id="line2d_49">
      <path clip-path="url(#p55210f014e)" d="M 57.6 246.484808 
L 414.72 246.484808 
" style="fill:none;stroke:#b0b0b0;stroke-dasharray:5.12,1.28,0.8,1.28;stroke-dashoffset:0;stroke-width:0.8;"/>
     </g>
     <g id="line2d_50">
      <g>
       <use style="stroke:#000000;stroke-width:0.8;" x="57.6" xlink:href="#m7ac39c5ae7" y="246.484808"/>
      </g>
     </g>
     <g id="text_26">
      <!-- 1.2 -->
      <g transform="translate(34.696875 250.284027)scale(0.1 -0.1)">
       <use xlink:href="#DejaVuSans-49"/>
       <use x="63.623047" xlink:href="#DejaVuSans-46"/>
       <use x="95.410156" xlink:href="#DejaVuSans-50"/>
      </g>
     </g>
    </g>
    <g id="ytick_3">
     <g id="line2d_51">
      <path clip-path="url(#p55210f014e)" d="M 57.6 205.043748 
L 414.72 205.043748 
" style="fill:none;stroke:#b0b0b0;stroke-dasharray:5.12,1.28,0.8,1.28;stroke-dashoffset:0;stroke-width:0.8;"/>
     </g>
     <g id="line2d_52">
      <g>
       <use style="stroke:#000000;stroke-width:0.8;" x="57.6" xlink:href="#m7ac39c5ae7" y="205.043748"/>
      </g>
     </g>
     <g id="text_27">
      <!-- 1.4 -->
      <g transform="translate(34.696875 208.842967)scale(0.1 -0.1)">
       <use xlink:href="#DejaVuSans-49"/>
       <use x="63.623047" xlink:href="#DejaVuSans-46"/>
       <use x="95.410156" xlink:href="#DejaVuSans-52"/>
      </g>
     </g>
    </g>
    <g id="ytick_4">
     <g id="line2d_53">
      <path clip-path="url(#p55210f014e)" d="M 57.6 163.602688 
L 414.72 163.602688 
" style="fill:none;stroke:#b0b0b0;stroke-dasharray:5.12,1.28,0.8,1.28;stroke-dashoffset:0;stroke-width:0.8;"/>
     </g>
     <g id="line2d_54">
      <g>
       <use style="stroke:#000000;stroke-width:0.8;" x="57.6" xlink:href="#m7ac39c5ae7" y="163.602688"/>
      </g>
     </g>
     <g id="text_28">
      <!-- 1.6 -->
      <g transform="translate(34.696875 167.401907)scale(0.1 -0.1)">
       <use xlink:href="#DejaVuSans-49"/>
       <use x="63.623047" xlink:href="#DejaVuSans-46"/>
       <use x="95.410156" xlink:href="#DejaVuSans-54"/>
      </g>
     </g>
    </g>
    <g id="ytick_5">
     <g id="line2d_55">
      <path clip-path="url(#p55210f014e)" d="M 57.6 122.161628 
L 414.72 122.161628 
" style="fill:none;stroke:#b0b0b0;stroke-dasharray:5.12,1.28,0.8,1.28;stroke-dashoffset:0;stroke-width:0.8;"/>
     </g>
     <g id="line2d_56">
      <g>
       <use style="stroke:#000000;stroke-width:0.8;" x="57.6" xlink:href="#m7ac39c5ae7" y="122.161628"/>
      </g>
     </g>
     <g id="text_29">
      <!-- 1.8 -->
      <g transform="translate(34.696875 125.960847)scale(0.1 -0.1)">
       <use xlink:href="#DejaVuSans-49"/>
       <use x="63.623047" xlink:href="#DejaVuSans-46"/>
       <use x="95.410156" xlink:href="#DejaVuSans-56"/>
      </g>
     </g>
    </g>
    <g id="ytick_6">
     <g id="line2d_57">
      <path clip-path="url(#p55210f014e)" d="M 57.6 80.720568 
L 414.72 80.720568 
" style="fill:none;stroke:#b0b0b0;stroke-dasharray:5.12,1.28,0.8,1.28;stroke-dashoffset:0;stroke-width:0.8;"/>
     </g>
     <g id="line2d_58">
      <g>
       <use style="stroke:#000000;stroke-width:0.8;" x="57.6" xlink:href="#m7ac39c5ae7" y="80.720568"/>
      </g>
     </g>
     <g id="text_30">
      <!-- 2.0 -->
      <g transform="translate(34.696875 84.519787)scale(0.1 -0.1)">
       <use xlink:href="#DejaVuSans-50"/>
       <use x="63.623047" xlink:href="#DejaVuSans-46"/>
       <use x="95.410156" xlink:href="#DejaVuSans-48"/>
      </g>
     </g>
    </g>
    <g id="text_31">
     <!-- speed up -->
     <defs>
      <path d="M 18.109375 8.203125 
L 18.109375 -20.796875 
L 9.078125 -20.796875 
L 9.078125 54.6875 
L 18.109375 54.6875 
L 18.109375 46.390625 
Q 20.953125 51.265625 25.265625 53.625 
Q 29.59375 56 35.59375 56 
Q 45.5625 56 51.78125 48.09375 
Q 58.015625 40.1875 58.015625 27.296875 
Q 58.015625 14.40625 51.78125 6.484375 
Q 45.5625 -1.421875 35.59375 -1.421875 
Q 29.59375 -1.421875 25.265625 0.953125 
Q 20.953125 3.328125 18.109375 8.203125 
z
M 48.6875 27.296875 
Q 48.6875 37.203125 44.609375 42.84375 
Q 40.53125 48.484375 33.40625 48.484375 
Q 26.265625 48.484375 22.1875 42.84375 
Q 18.109375 37.203125 18.109375 27.296875 
Q 18.109375 17.390625 22.1875 11.75 
Q 26.265625 6.109375 33.40625 6.109375 
Q 40.53125 6.109375 44.609375 11.75 
Q 48.6875 17.390625 48.6875 27.296875 
z
" id="DejaVuSans-112"/>
      <path id="DejaVuSans-32"/>
      <path d="M 8.5 21.578125 
L 8.5 54.6875 
L 17.484375 54.6875 
L 17.484375 21.921875 
Q 17.484375 14.15625 20.5 10.265625 
Q 23.53125 6.390625 29.59375 6.390625 
Q 36.859375 6.390625 41.078125 11.03125 
Q 45.3125 15.671875 45.3125 23.6875 
L 45.3125 54.6875 
L 54.296875 54.6875 
L 54.296875 0 
L 45.3125 0 
L 45.3125 8.40625 
Q 42.046875 3.421875 37.71875 1 
Q 33.40625 -1.421875 27.6875 -1.421875 
Q 18.265625 -1.421875 13.375 4.4375 
Q 8.5 10.296875 8.5 21.578125 
z
M 31.109375 56 
z
" id="DejaVuSans-117"/>
     </defs>
     <g transform="translate(28.617187 197.566281)rotate(-90)scale(0.1 -0.1)">
      <use xlink:href="#DejaVuSans-115"/>
      <use x="52.099609" xlink:href="#DejaVuSans-112"/>
      <use x="115.576172" xlink:href="#DejaVuSans-101"/>
      <use x="177.099609" xlink:href="#DejaVuSans-101"/>
      <use x="238.623047" xlink:href="#DejaVuSans-100"/>
      <use x="302.099609" xlink:href="#DejaVuSans-32"/>
      <use x="333.886719" xlink:href="#DejaVuSans-117"/>
      <use x="397.265625" xlink:href="#DejaVuSans-112"/>
     </g>
    </g>
   </g>
   <g id="line2d_59">
    <path clip-path="url(#p55210f014e)" d="M 61.612584 295.488 
L 65.625169 243.170838 
L 69.637753 204.86756 
L 73.650337 215.899335 
L 77.662921 226.710487 
L 81.675506 224.062054 
L 85.68809 200.137249 
L 89.700674 159.064972 
L 93.713258 132.893549 
L 97.725843 145.258963 
L 101.738427 158.374695 
L 105.751011 157.09305 
L 109.763596 119.637472 
L 113.77618 101.358155 
L 117.788764 104.385497 
L 121.801348 86.484858 
L 125.813933 91.867139 
L 129.826517 90.697669 
L 133.839101 108.467978 
L 137.851685 116.967791 
L 141.86427 114.047283 
L 145.876854 129.920453 
L 149.889438 157.130518 
L 153.902022 133.26608 
L 157.914607 159.843382 
L 161.927191 154.589027 
L 165.939775 165.330868 
L 169.95236 165.680039 
L 173.964944 162.108643 
L 177.977528 173.391864 
L 181.990112 181.022919 
L 186.002697 162.595259 
L 190.015281 195.831008 
L 194.027865 191.90658 
L 198.040449 188.680657 
L 202.053034 179.440422 
L 206.065618 185.965259 
L 210.078202 202.980324 
L 214.090787 152.363845 
L 218.103371 156.625259 
L 222.115955 186.111462 
L 226.128539 165.1072 
L 230.141124 180.549838 
L 234.153708 210.454868 
L 238.166292 210.039693 
L 242.178876 210.895329 
L 246.191461 208.819135 
L 250.204045 211.235795 
L 254.216629 210.295328 
L 258.229213 210.032586 
L 262.241798 210.943008 
L 266.254382 210.5806 
L 270.266966 210.639001 
L 274.279551 210.981846 
L 278.292135 210.57706 
L 282.304719 210.085884 
L 286.317303 209.97038 
L 290.329888 210.174669 
L 294.342472 210.516862 
L 298.355056 210.64254 
L 302.36764 210.58237 
L 306.380225 210.92182 
L 310.392809 211.182926 
L 314.405393 210.156916 
L 318.417978 210.039693 
L 322.430562 208.143722 
L 326.443146 210.203069 
L 330.45573 211.566657 
L 334.468315 208.037451 
L 338.480899 210.389301 
L 342.493483 210.907692 
L 346.506067 210.270495 
L 350.518652 210.039693 
L 354.531236 211.83009 
L 358.54382 211.389002 
L 362.556404 211.928313 
L 366.568989 211.390762 
L 370.581573 212.252315 
L 374.594157 210.568209 
L 378.606742 209.740872 
L 382.619326 210.981846 
L 386.63191 211.57193 
L 390.644494 209.502077 
L 394.657079 209.854783 
L 398.669663 210.231463 
L 402.682247 210.366257 
L 406.694831 210.162242 
L 410.707416 210.12318 
" style="fill:none;stroke:#0000ff;stroke-dasharray:1.5,2.475;stroke-dashoffset:0;stroke-width:1.5;"/>
    <defs>
     <path d="M 0 1.5 
C 0.397805 1.5 0.77937 1.341951 1.06066 1.06066 
C 1.341951 0.77937 1.5 0.397805 1.5 0 
C 1.5 -0.397805 1.341951 -0.77937 1.06066 -1.06066 
C 0.77937 -1.341951 0.397805 -1.5 0 -1.5 
C -0.397805 -1.5 -0.77937 -1.341951 -1.06066 -1.06066 
C -1.341951 -0.77937 -1.5 -0.397805 -1.5 0 
C -1.5 0.397805 -1.341951 0.77937 -1.06066 1.06066 
C -0.77937 1.341951 -0.397805 1.5 0 1.5 
z
" id="m9a4c325830" style="stroke:#0000ff;"/>
    </defs>
    <g clip-path="url(#p55210f014e)">
     <use style="fill:#0000ff;stroke:#0000ff;" x="61.612584" xlink:href="#m9a4c325830" y="295.488"/>
     <use style="fill:#0000ff;stroke:#0000ff;" x="65.625169" xlink:href="#m9a4c325830" y="243.170838"/>
     <use style="fill:#0000ff;stroke:#0000ff;" x="69.637753" xlink:href="#m9a4c325830" y="204.86756"/>
     <use style="fill:#0000ff;stroke:#0000ff;" x="73.650337" xlink:href="#m9a4c325830" y="215.899335"/>
     <use style="fill:#0000ff;stroke:#0000ff;" x="77.662921" xlink:href="#m9a4c325830" y="226.710487"/>
     <use style="fill:#0000ff;stroke:#0000ff;" x="81.675506" xlink:href="#m9a4c325830" y="224.062054"/>
     <use style="fill:#0000ff;stroke:#0000ff;" x="85.68809" xlink:href="#m9a4c325830" y="200.137249"/>
     <use style="fill:#0000ff;stroke:#0000ff;" x="89.700674" xlink:href="#m9a4c325830" y="159.064972"/>
     <use style="fill:#0000ff;stroke:#0000ff;" x="93.713258" xlink:href="#m9a4c325830" y="132.893549"/>
     <use style="fill:#0000ff;stroke:#0000ff;" x="97.725843" xlink:href="#m9a4c325830" y="145.258963"/>
     <use style="fill:#0000ff;stroke:#0000ff;" x="101.738427" xlink:href="#m9a4c325830" y="158.374695"/>
     <use style="fill:#0000ff;stroke:#0000ff;" x="105.751011" xlink:href="#m9a4c325830" y="157.09305"/>
     <use style="fill:#0000ff;stroke:#0000ff;" x="109.763596" xlink:href="#m9a4c325830" y="119.637472"/>
     <use style="fill:#0000ff;stroke:#0000ff;" x="113.77618" xlink:href="#m9a4c325830" y="101.358155"/>
     <use style="fill:#0000ff;stroke:#0000ff;" x="117.788764" xlink:href="#m9a4c325830" y="104.385497"/>
     <use style="fill:#0000ff;stroke:#0000ff;" x="121.801348" xlink:href="#m9a4c325830" y="86.484858"/>
     <use style="fill:#0000ff;stroke:#0000ff;" x="125.813933" xlink:href="#m9a4c325830" y="91.867139"/>
     <use style="fill:#0000ff;stroke:#0000ff;" x="129.826517" xlink:href="#m9a4c325830" y="90.697669"/>
     <use style="fill:#0000ff;stroke:#0000ff;" x="133.839101" xlink:href="#m9a4c325830" y="108.467978"/>
     <use style="fill:#0000ff;stroke:#0000ff;" x="137.851685" xlink:href="#m9a4c325830" y="116.967791"/>
     <use style="fill:#0000ff;stroke:#0000ff;" x="141.86427" xlink:href="#m9a4c325830" y="114.047283"/>
     <use style="fill:#0000ff;stroke:#0000ff;" x="145.876854" xlink:href="#m9a4c325830" y="129.920453"/>
     <use style="fill:#0000ff;stroke:#0000ff;" x="149.889438" xlink:href="#m9a4c325830" y="157.130518"/>
     <use style="fill:#0000ff;stroke:#0000ff;" x="153.902022" xlink:href="#m9a4c325830" y="133.26608"/>
     <use style="fill:#0000ff;stroke:#0000ff;" x="157.914607" xlink:href="#m9a4c325830" y="159.843382"/>
     <use style="fill:#0000ff;stroke:#0000ff;" x="161.927191" xlink:href="#m9a4c325830" y="154.589027"/>
     <use style="fill:#0000ff;stroke:#0000ff;" x="165.939775" xlink:href="#m9a4c325830" y="165.330868"/>
     <use style="fill:#0000ff;stroke:#0000ff;" x="169.95236" xlink:href="#m9a4c325830" y="165.680039"/>
     <use style="fill:#0000ff;stroke:#0000ff;" x="173.964944" xlink:href="#m9a4c325830" y="162.108643"/>
     <use style="fill:#0000ff;stroke:#0000ff;" x="177.977528" xlink:href="#m9a4c325830" y="173.391864"/>
     <use style="fill:#0000ff;stroke:#0000ff;" x="181.990112" xlink:href="#m9a4c325830" y="181.022919"/>
     <use style="fill:#0000ff;stroke:#0000ff;" x="186.002697" xlink:href="#m9a4c325830" y="162.595259"/>
     <use style="fill:#0000ff;stroke:#0000ff;" x="190.015281" xlink:href="#m9a4c325830" y="195.831008"/>
     <use style="fill:#0000ff;stroke:#0000ff;" x="194.027865" xlink:href="#m9a4c325830" y="191.90658"/>
     <use style="fill:#0000ff;stroke:#0000ff;" x="198.040449" xlink:href="#m9a4c325830" y="188.680657"/>
     <use style="fill:#0000ff;stroke:#0000ff;" x="202.053034" xlink:href="#m9a4c325830" y="179.440422"/>
     <use style="fill:#0000ff;stroke:#0000ff;" x="206.065618" xlink:href="#m9a4c325830" y="185.965259"/>
     <use style="fill:#0000ff;stroke:#0000ff;" x="210.078202" xlink:href="#m9a4c325830" y="202.980324"/>
     <use style="fill:#0000ff;stroke:#0000ff;" x="214.090787" xlink:href="#m9a4c325830" y="152.363845"/>
     <use style="fill:#0000ff;stroke:#0000ff;" x="218.103371" xlink:href="#m9a4c325830" y="156.625259"/>
     <use style="fill:#0000ff;stroke:#0000ff;" x="222.115955" xlink:href="#m9a4c325830" y="186.111462"/>
     <use style="fill:#0000ff;stroke:#0000ff;" x="226.128539" xlink:href="#m9a4c325830" y="165.1072"/>
     <use style="fill:#0000ff;stroke:#0000ff;" x="230.141124" xlink:href="#m9a4c325830" y="180.549838"/>
     <use style="fill:#0000ff;stroke:#0000ff;" x="234.153708" xlink:href="#m9a4c325830" y="210.454868"/>
     <use style="fill:#0000ff;stroke:#0000ff;" x="238.166292" xlink:href="#m9a4c325830" y="210.039693"/>
     <use style="fill:#0000ff;stroke:#0000ff;" x="242.178876" xlink:href="#m9a4c325830" y="210.895329"/>
     <use style="fill:#0000ff;stroke:#0000ff;" x="246.191461" xlink:href="#m9a4c325830" y="208.819135"/>
     <use style="fill:#0000ff;stroke:#0000ff;" x="250.204045" xlink:href="#m9a4c325830" y="211.235795"/>
     <use style="fill:#0000ff;stroke:#0000ff;" x="254.216629" xlink:href="#m9a4c325830" y="210.295328"/>
     <use style="fill:#0000ff;stroke:#0000ff;" x="258.229213" xlink:href="#m9a4c325830" y="210.032586"/>
     <use style="fill:#0000ff;stroke:#0000ff;" x="262.241798" xlink:href="#m9a4c325830" y="210.943008"/>
     <use style="fill:#0000ff;stroke:#0000ff;" x="266.254382" xlink:href="#m9a4c325830" y="210.5806"/>
     <use style="fill:#0000ff;stroke:#0000ff;" x="270.266966" xlink:href="#m9a4c325830" y="210.639001"/>
     <use style="fill:#0000ff;stroke:#0000ff;" x="274.279551" xlink:href="#m9a4c325830" y="210.981846"/>
     <use style="fill:#0000ff;stroke:#0000ff;" x="278.292135" xlink:href="#m9a4c325830" y="210.57706"/>
     <use style="fill:#0000ff;stroke:#0000ff;" x="282.304719" xlink:href="#m9a4c325830" y="210.085884"/>
     <use style="fill:#0000ff;stroke:#0000ff;" x="286.317303" xlink:href="#m9a4c325830" y="209.97038"/>
     <use style="fill:#0000ff;stroke:#0000ff;" x="290.329888" xlink:href="#m9a4c325830" y="210.174669"/>
     <use style="fill:#0000ff;stroke:#0000ff;" x="294.342472" xlink:href="#m9a4c325830" y="210.516862"/>
     <use style="fill:#0000ff;stroke:#0000ff;" x="298.355056" xlink:href="#m9a4c325830" y="210.64254"/>
     <use style="fill:#0000ff;stroke:#0000ff;" x="302.36764" xlink:href="#m9a4c325830" y="210.58237"/>
     <use style="fill:#0000ff;stroke:#0000ff;" x="306.380225" xlink:href="#m9a4c325830" y="210.92182"/>
     <use style="fill:#0000ff;stroke:#0000ff;" x="310.392809" xlink:href="#m9a4c325830" y="211.182926"/>
     <use style="fill:#0000ff;stroke:#0000ff;" x="314.405393" xlink:href="#m9a4c325830" y="210.156916"/>
     <use style="fill:#0000ff;stroke:#0000ff;" x="318.417978" xlink:href="#m9a4c325830" y="210.039693"/>
     <use style="fill:#0000ff;stroke:#0000ff;" x="322.430562" xlink:href="#m9a4c325830" y="208.143722"/>
     <use style="fill:#0000ff;stroke:#0000ff;" x="326.443146" xlink:href="#m9a4c325830" y="210.203069"/>
     <use style="fill:#0000ff;stroke:#0000ff;" x="330.45573" xlink:href="#m9a4c325830" y="211.566657"/>
     <use style="fill:#0000ff;stroke:#0000ff;" x="334.468315" xlink:href="#m9a4c325830" y="208.037451"/>
     <use style="fill:#0000ff;stroke:#0000ff;" x="338.480899" xlink:href="#m9a4c325830" y="210.389301"/>
     <use style="fill:#0000ff;stroke:#0000ff;" x="342.493483" xlink:href="#m9a4c325830" y="210.907692"/>
     <use style="fill:#0000ff;stroke:#0000ff;" x="346.506067" xlink:href="#m9a4c325830" y="210.270495"/>
     <use style="fill:#0000ff;stroke:#0000ff;" x="350.518652" xlink:href="#m9a4c325830" y="210.039693"/>
     <use style="fill:#0000ff;stroke:#0000ff;" x="354.531236" xlink:href="#m9a4c325830" y="211.83009"/>
     <use style="fill:#0000ff;stroke:#0000ff;" x="358.54382" xlink:href="#m9a4c325830" y="211.389002"/>
     <use style="fill:#0000ff;stroke:#0000ff;" x="362.556404" xlink:href="#m9a4c325830" y="211.928313"/>
     <use style="fill:#0000ff;stroke:#0000ff;" x="366.568989" xlink:href="#m9a4c325830" y="211.390762"/>
     <use style="fill:#0000ff;stroke:#0000ff;" x="370.581573" xlink:href="#m9a4c325830" y="212.252315"/>
     <use style="fill:#0000ff;stroke:#0000ff;" x="374.594157" xlink:href="#m9a4c325830" y="210.568209"/>
     <use style="fill:#0000ff;stroke:#0000ff;" x="378.606742" xlink:href="#m9a4c325830" y="209.740872"/>
     <use style="fill:#0000ff;stroke:#0000ff;" x="382.619326" xlink:href="#m9a4c325830" y="210.981846"/>
     <use style="fill:#0000ff;stroke:#0000ff;" x="386.63191" xlink:href="#m9a4c325830" y="211.57193"/>
     <use style="fill:#0000ff;stroke:#0000ff;" x="390.644494" xlink:href="#m9a4c325830" y="209.502077"/>
     <use style="fill:#0000ff;stroke:#0000ff;" x="394.657079" xlink:href="#m9a4c325830" y="209.854783"/>
     <use style="fill:#0000ff;stroke:#0000ff;" x="398.669663" xlink:href="#m9a4c325830" y="210.231463"/>
     <use style="fill:#0000ff;stroke:#0000ff;" x="402.682247" xlink:href="#m9a4c325830" y="210.366257"/>
     <use style="fill:#0000ff;stroke:#0000ff;" x="406.694831" xlink:href="#m9a4c325830" y="210.162242"/>
     <use style="fill:#0000ff;stroke:#0000ff;" x="410.707416" xlink:href="#m9a4c325830" y="210.12318"/>
    </g>
   </g>
   <g id="line2d_60">
    <path clip-path="url(#p55210f014e)" d="M 61.612584 227.671033 
L 65.625169 148.929337 
L 69.637753 109.984775 
L 73.650337 183.11462 
L 77.662921 212.175245 
L 81.675506 206.975038 
L 85.68809 181.459165 
L 89.700674 149.98729 
L 93.713258 97.162992 
L 97.725843 113.217007 
L 101.738427 145.131544 
L 105.751011 143.569917 
L 109.763596 121.294453 
L 113.77618 97.247857 
L 117.788764 92.157189 
L 121.801348 78.917931 
L 125.813933 88.935812 
L 129.826517 92.699541 
L 133.839101 105.964968 
L 137.851685 151.583661 
L 141.86427 153.368277 
L 145.876854 161.782232 
L 149.889438 167.400894 
L 153.902022 112.018771 
L 157.914607 132.731973 
L 161.927191 71.935919 
L 165.939775 74.397954 
L 169.95236 68.576827 
L 173.964944 73.774668 
L 177.977528 83.461751 
L 181.990112 97.020336 
L 186.002697 104.252892 
L 190.015281 125.398446 
L 194.027865 123.267379 
L 198.040449 106.289378 
L 202.053034 108.208494 
L 206.065618 109.034772 
L 210.078202 104.737057 
L 214.090787 53.568 
L 218.103371 54.756085 
L 222.115955 66.924381 
L 226.128539 82.13502 
L 230.141124 92.973636 
L 234.153708 99.572588 
L 238.166292 100.859811 
L 242.178876 97.190153 
L 246.191461 96.935374 
L 250.204045 90.68972 
L 254.216629 91.637808 
L 258.229213 92.9563 
L 262.241798 97.332687 
L 266.254382 92.296393 
L 270.266966 92.90428 
L 274.279551 96.005217 
L 278.292135 95.190758 
L 282.304719 94.186953 
L 286.317303 95.776272 
L 290.329888 94.083537 
L 294.342472 94.362638 
L 298.355056 92.685652 
L 302.36764 96.516829 
L 306.380225 95.026094 
L 310.392809 91.414306 
L 314.405393 93.178097 
L 318.417978 92.164152 
L 322.430562 95.430649 
L 326.443146 95.043253 
L 330.45573 93.181561 
L 334.468315 93.734977 
L 338.480899 95.581291 
L 342.493483 93.323519 
L 346.506067 93.088022 
L 350.518652 92.744671 
L 354.531236 95.032958 
L 358.54382 94.328202 
L 362.556404 94.56913 
L 366.568989 95.577869 
L 370.581573 91.996986 
L 374.594157 95.858312 
L 378.606742 95.977894 
L 382.619326 90.208731 
L 386.63191 93.015239 
L 390.644494 93.0499 
L 394.657079 94.410839 
L 398.669663 96.080335 
L 402.682247 93.475753 
L 406.694831 92.800201 
L 410.707416 93.859286 
" style="fill:none;stroke:#ff0000;stroke-dasharray:1.5,2.475;stroke-dashoffset:0;stroke-width:1.5;"/>
    <defs>
     <path d="M 0 1.5 
C 0.397805 1.5 0.77937 1.341951 1.06066 1.06066 
C 1.341951 0.77937 1.5 0.397805 1.5 0 
C 1.5 -0.397805 1.341951 -0.77937 1.06066 -1.06066 
C 0.77937 -1.341951 0.397805 -1.5 0 -1.5 
C -0.397805 -1.5 -0.77937 -1.341951 -1.06066 -1.06066 
C -1.341951 -0.77937 -1.5 -0.397805 -1.5 0 
C -1.5 0.397805 -1.341951 0.77937 -1.06066 1.06066 
C -0.77937 1.341951 -0.397805 1.5 0 1.5 
z
" id="mee5b059989" style="stroke:#ff0000;"/>
    </defs>
    <g clip-path="url(#p55210f014e)">
     <use style="fill:#ff0000;stroke:#ff0000;" x="61.612584" xlink:href="#mee5b059989" y="227.671033"/>
     <use style="fill:#ff0000;stroke:#ff0000;" x="65.625169" xlink:href="#mee5b059989" y="148.929337"/>
     <use style="fill:#ff0000;stroke:#ff0000;" x="69.637753" xlink:href="#mee5b059989" y="109.984775"/>
     <use style="fill:#ff0000;stroke:#ff0000;" x="73.650337" xlink:href="#mee5b059989" y="183.11462"/>
     <use style="fill:#ff0000;stroke:#ff0000;" x="77.662921" xlink:href="#mee5b059989" y="212.175245"/>
     <use style="fill:#ff0000;stroke:#ff0000;" x="81.675506" xlink:href="#mee5b059989" y="206.975038"/>
     <use style="fill:#ff0000;stroke:#ff0000;" x="85.68809" xlink:href="#mee5b059989" y="181.459165"/>
     <use style="fill:#ff0000;stroke:#ff0000;" x="89.700674" xlink:href="#mee5b059989" y="149.98729"/>
     <use style="fill:#ff0000;stroke:#ff0000;" x="93.713258" xlink:href="#mee5b059989" y="97.162992"/>
     <use style="fill:#ff0000;stroke:#ff0000;" x="97.725843" xlink:href="#mee5b059989" y="113.217007"/>
     <use style="fill:#ff0000;stroke:#ff0000;" x="101.738427" xlink:href="#mee5b059989" y="145.131544"/>
     <use style="fill:#ff0000;stroke:#ff0000;" x="105.751011" xlink:href="#mee5b059989" y="143.569917"/>
     <use style="fill:#ff0000;stroke:#ff0000;" x="109.763596" xlink:href="#mee5b059989" y="121.294453"/>
     <use style="fill:#ff0000;stroke:#ff0000;" x="113.77618" xlink:href="#mee5b059989" y="97.247857"/>
     <use style="fill:#ff0000;stroke:#ff0000;" x="117.788764" xlink:href="#mee5b059989" y="92.157189"/>
     <use style="fill:#ff0000;stroke:#ff0000;" x="121.801348" xlink:href="#mee5b059989" y="78.917931"/>
     <use style="fill:#ff0000;stroke:#ff0000;" x="125.813933" xlink:href="#mee5b059989" y="88.935812"/>
     <use style="fill:#ff0000;stroke:#ff0000;" x="129.826517" xlink:href="#mee5b059989" y="92.699541"/>
     <use style="fill:#ff0000;stroke:#ff0000;" x="133.839101" xlink:href="#mee5b059989" y="105.964968"/>
     <use style="fill:#ff0000;stroke:#ff0000;" x="137.851685" xlink:href="#mee5b059989" y="151.583661"/>
     <use style="fill:#ff0000;stroke:#ff0000;" x="141.86427" xlink:href="#mee5b059989" y="153.368277"/>
     <use style="fill:#ff0000;stroke:#ff0000;" x="145.876854" xlink:href="#mee5b059989" y="161.782232"/>
     <use style="fill:#ff0000;stroke:#ff0000;" x="149.889438" xlink:href="#mee5b059989" y="167.400894"/>
     <use style="fill:#ff0000;stroke:#ff0000;" x="153.902022" xlink:href="#mee5b059989" y="112.018771"/>
     <use style="fill:#ff0000;stroke:#ff0000;" x="157.914607" xlink:href="#mee5b059989" y="132.731973"/>
     <use style="fill:#ff0000;stroke:#ff0000;" x="161.927191" xlink:href="#mee5b059989" y="71.935919"/>
     <use style="fill:#ff0000;stroke:#ff0000;" x="165.939775" xlink:href="#mee5b059989" y="74.397954"/>
     <use style="fill:#ff0000;stroke:#ff0000;" x="169.95236" xlink:href="#mee5b059989" y="68.576827"/>
     <use style="fill:#ff0000;stroke:#ff0000;" x="173.964944" xlink:href="#mee5b059989" y="73.774668"/>
     <use style="fill:#ff0000;stroke:#ff0000;" x="177.977528" xlink:href="#mee5b059989" y="83.461751"/>
     <use style="fill:#ff0000;stroke:#ff0000;" x="181.990112" xlink:href="#mee5b059989" y="97.020336"/>
     <use style="fill:#ff0000;stroke:#ff0000;" x="186.002697" xlink:href="#mee5b059989" y="104.252892"/>
     <use style="fill:#ff0000;stroke:#ff0000;" x="190.015281" xlink:href="#mee5b059989" y="125.398446"/>
     <use style="fill:#ff0000;stroke:#ff0000;" x="194.027865" xlink:href="#mee5b059989" y="123.267379"/>
     <use style="fill:#ff0000;stroke:#ff0000;" x="198.040449" xlink:href="#mee5b059989" y="106.289378"/>
     <use style="fill:#ff0000;stroke:#ff0000;" x="202.053034" xlink:href="#mee5b059989" y="108.208494"/>
     <use style="fill:#ff0000;stroke:#ff0000;" x="206.065618" xlink:href="#mee5b059989" y="109.034772"/>
     <use style="fill:#ff0000;stroke:#ff0000;" x="210.078202" xlink:href="#mee5b059989" y="104.737057"/>
     <use style="fill:#ff0000;stroke:#ff0000;" x="214.090787" xlink:href="#mee5b059989" y="53.568"/>
     <use style="fill:#ff0000;stroke:#ff0000;" x="218.103371" xlink:href="#mee5b059989" y="54.756085"/>
     <use style="fill:#ff0000;stroke:#ff0000;" x="222.115955" xlink:href="#mee5b059989" y="66.924381"/>
     <use style="fill:#ff0000;stroke:#ff0000;" x="226.128539" xlink:href="#mee5b059989" y="82.13502"/>
     <use style="fill:#ff0000;stroke:#ff0000;" x="230.141124" xlink:href="#mee5b059989" y="92.973636"/>
     <use style="fill:#ff0000;stroke:#ff0000;" x="234.153708" xlink:href="#mee5b059989" y="99.572588"/>
     <use style="fill:#ff0000;stroke:#ff0000;" x="238.166292" xlink:href="#mee5b059989" y="100.859811"/>
     <use style="fill:#ff0000;stroke:#ff0000;" x="242.178876" xlink:href="#mee5b059989" y="97.190153"/>
     <use style="fill:#ff0000;stroke:#ff0000;" x="246.191461" xlink:href="#mee5b059989" y="96.935374"/>
     <use style="fill:#ff0000;stroke:#ff0000;" x="250.204045" xlink:href="#mee5b059989" y="90.68972"/>
     <use style="fill:#ff0000;stroke:#ff0000;" x="254.216629" xlink:href="#mee5b059989" y="91.637808"/>
     <use style="fill:#ff0000;stroke:#ff0000;" x="258.229213" xlink:href="#mee5b059989" y="92.9563"/>
     <use style="fill:#ff0000;stroke:#ff0000;" x="262.241798" xlink:href="#mee5b059989" y="97.332687"/>
     <use style="fill:#ff0000;stroke:#ff0000;" x="266.254382" xlink:href="#mee5b059989" y="92.296393"/>
     <use style="fill:#ff0000;stroke:#ff0000;" x="270.266966" xlink:href="#mee5b059989" y="92.90428"/>
     <use style="fill:#ff0000;stroke:#ff0000;" x="274.279551" xlink:href="#mee5b059989" y="96.005217"/>
     <use style="fill:#ff0000;stroke:#ff0000;" x="278.292135" xlink:href="#mee5b059989" y="95.190758"/>
     <use style="fill:#ff0000;stroke:#ff0000;" x="282.304719" xlink:href="#mee5b059989" y="94.186953"/>
     <use style="fill:#ff0000;stroke:#ff0000;" x="286.317303" xlink:href="#mee5b059989" y="95.776272"/>
     <use style="fill:#ff0000;stroke:#ff0000;" x="290.329888" xlink:href="#mee5b059989" y="94.083537"/>
     <use style="fill:#ff0000;stroke:#ff0000;" x="294.342472" xlink:href="#mee5b059989" y="94.362638"/>
     <use style="fill:#ff0000;stroke:#ff0000;" x="298.355056" xlink:href="#mee5b059989" y="92.685652"/>
     <use style="fill:#ff0000;stroke:#ff0000;" x="302.36764" xlink:href="#mee5b059989" y="96.516829"/>
     <use style="fill:#ff0000;stroke:#ff0000;" x="306.380225" xlink:href="#mee5b059989" y="95.026094"/>
     <use style="fill:#ff0000;stroke:#ff0000;" x="310.392809" xlink:href="#mee5b059989" y="91.414306"/>
     <use style="fill:#ff0000;stroke:#ff0000;" x="314.405393" xlink:href="#mee5b059989" y="93.178097"/>
     <use style="fill:#ff0000;stroke:#ff0000;" x="318.417978" xlink:href="#mee5b059989" y="92.164152"/>
     <use style="fill:#ff0000;stroke:#ff0000;" x="322.430562" xlink:href="#mee5b059989" y="95.430649"/>
     <use style="fill:#ff0000;stroke:#ff0000;" x="326.443146" xlink:href="#mee5b059989" y="95.043253"/>
     <use style="fill:#ff0000;stroke:#ff0000;" x="330.45573" xlink:href="#mee5b059989" y="93.181561"/>
     <use style="fill:#ff0000;stroke:#ff0000;" x="334.468315" xlink:href="#mee5b059989" y="93.734977"/>
     <use style="fill:#ff0000;stroke:#ff0000;" x="338.480899" xlink:href="#mee5b059989" y="95.581291"/>
     <use style="fill:#ff0000;stroke:#ff0000;" x="342.493483" xlink:href="#mee5b059989" y="93.323519"/>
     <use style="fill:#ff0000;stroke:#ff0000;" x="346.506067" xlink:href="#mee5b059989" y="93.088022"/>
     <use style="fill:#ff0000;stroke:#ff0000;" x="350.518652" xlink:href="#mee5b059989" y="92.744671"/>
     <use style="fill:#ff0000;stroke:#ff0000;" x="354.531236" xlink:href="#mee5b059989" y="95.032958"/>
     <use style="fill:#ff0000;stroke:#ff0000;" x="358.54382" xlink:href="#mee5b059989" y="94.328202"/>
     <use style="fill:#ff0000;stroke:#ff0000;" x="362.556404" xlink:href="#mee5b059989" y="94.56913"/>
     <use style="fill:#ff0000;stroke:#ff0000;" x="366.568989" xlink:href="#mee5b059989" y="95.577869"/>
     <use style="fill:#ff0000;stroke:#ff0000;" x="370.581573" xlink:href="#mee5b059989" y="91.996986"/>
     <use style="fill:#ff0000;stroke:#ff0000;" x="374.594157" xlink:href="#mee5b059989" y="95.858312"/>
     <use style="fill:#ff0000;stroke:#ff0000;" x="378.606742" xlink:href="#mee5b059989" y="95.977894"/>
     <use style="fill:#ff0000;stroke:#ff0000;" x="382.619326" xlink:href="#mee5b059989" y="90.208731"/>
     <use style="fill:#ff0000;stroke:#ff0000;" x="386.63191" xlink:href="#mee5b059989" y="93.015239"/>
     <use style="fill:#ff0000;stroke:#ff0000;" x="390.644494" xlink:href="#mee5b059989" y="93.0499"/>
     <use style="fill:#ff0000;stroke:#ff0000;" x="394.657079" xlink:href="#mee5b059989" y="94.410839"/>
     <use style="fill:#ff0000;stroke:#ff0000;" x="398.669663" xlink:href="#mee5b059989" y="96.080335"/>
     <use style="fill:#ff0000;stroke:#ff0000;" x="402.682247" xlink:href="#mee5b059989" y="93.475753"/>
     <use style="fill:#ff0000;stroke:#ff0000;" x="406.694831" xlink:href="#mee5b059989" y="92.800201"/>
     <use style="fill:#ff0000;stroke:#ff0000;" x="410.707416" xlink:href="#mee5b059989" y="93.859286"/>
    </g>
   </g>
   <g id="line2d_61">
    <path clip-path="url(#p55210f014e)" d="M 61.612584 261.579517 
L 65.625169 196.050088 
L 69.637753 157.426168 
L 73.650337 199.506977 
L 77.662921 219.442866 
L 81.675506 215.518546 
L 85.68809 190.798207 
L 89.700674 154.526131 
L 93.713258 115.028271 
L 97.725843 129.237985 
L 101.738427 151.753119 
L 105.751011 150.331484 
L 109.763596 120.465963 
L 113.77618 99.303006 
L 117.788764 98.271343 
L 121.801348 82.701394 
L 125.813933 90.401476 
L 129.826517 91.698605 
L 133.839101 107.216473 
L 137.851685 134.275726 
L 141.86427 133.70778 
L 145.876854 145.851343 
L 149.889438 162.265706 
L 153.902022 122.642425 
L 157.914607 146.287678 
L 161.927191 113.262473 
L 165.939775 119.864411 
L 169.95236 117.128433 
L 173.964944 117.941655 
L 177.977528 128.426808 
L 181.990112 139.021628 
L 186.002697 133.424076 
L 190.015281 160.614727 
L 194.027865 157.58698 
L 198.040449 147.485018 
L 202.053034 143.824458 
L 206.065618 147.500016 
L 210.078202 153.85869 
L 214.090787 102.965923 
L 218.103371 105.690672 
L 222.115955 126.517921 
L 226.128539 123.62111 
L 230.141124 136.761737 
L 234.153708 155.013728 
L 238.166292 155.449752 
L 242.178876 154.042741 
L 246.191461 152.877254 
L 250.204045 150.962758 
L 254.216629 150.966568 
L 258.229213 151.494443 
L 262.241798 154.137847 
L 266.254382 151.438497 
L 270.266966 151.771641 
L 274.279551 153.493531 
L 278.292135 152.883909 
L 282.304719 152.136419 
L 286.317303 152.873326 
L 290.329888 152.129103 
L 294.342472 152.43975 
L 298.355056 151.664096 
L 302.36764 153.5496 
L 306.380225 152.973957 
L 310.392809 151.298616 
L 314.405393 151.667507 
L 318.417978 151.101923 
L 322.430562 151.787186 
L 326.443146 152.623161 
L 330.45573 152.374109 
L 334.468315 150.886214 
L 338.480899 152.985296 
L 342.493483 152.115606 
L 346.506067 151.679258 
L 350.518652 151.392182 
L 354.531236 153.431524 
L 358.54382 152.858602 
L 362.556404 153.248721 
L 366.568989 153.484316 
L 370.581573 152.124651 
L 374.594157 153.21326 
L 378.606742 152.859383 
L 382.619326 150.595289 
L 386.63191 152.293584 
L 390.644494 151.275989 
L 394.657079 152.132811 
L 398.669663 153.155899 
L 402.682247 151.921005 
L 406.694831 151.481222 
L 410.707416 151.991233 
" style="fill:none;stroke:#008000;stroke-dasharray:1.5,2.475;stroke-dashoffset:0;stroke-width:1.5;"/>
    <defs>
     <path d="M 0 1.5 
C 0.397805 1.5 0.77937 1.341951 1.06066 1.06066 
C 1.341951 0.77937 1.5 0.397805 1.5 0 
C 1.5 -0.397805 1.341951 -0.77937 1.06066 -1.06066 
C 0.77937 -1.341951 0.397805 -1.5 0 -1.5 
C -0.397805 -1.5 -0.77937 -1.341951 -1.06066 -1.06066 
C -1.341951 -0.77937 -1.5 -0.397805 -1.5 0 
C -1.5 0.397805 -1.341951 0.77937 -1.06066 1.06066 
C -0.77937 1.341951 -0.397805 1.5 0 1.5 
z
" id="m0bf6737534" style="stroke:#008000;"/>
    </defs>
    <g clip-path="url(#p55210f014e)">
     <use style="fill:#008000;stroke:#008000;" x="61.612584" xlink:href="#m0bf6737534" y="261.579517"/>
     <use style="fill:#008000;stroke:#008000;" x="65.625169" xlink:href="#m0bf6737534" y="196.050088"/>
     <use style="fill:#008000;stroke:#008000;" x="69.637753" xlink:href="#m0bf6737534" y="157.426168"/>
     <use style="fill:#008000;stroke:#008000;" x="73.650337" xlink:href="#m0bf6737534" y="199.506977"/>
     <use style="fill:#008000;stroke:#008000;" x="77.662921" xlink:href="#m0bf6737534" y="219.442866"/>
     <use style="fill:#008000;stroke:#008000;" x="81.675506" xlink:href="#m0bf6737534" y="215.518546"/>
     <use style="fill:#008000;stroke:#008000;" x="85.68809" xlink:href="#m0bf6737534" y="190.798207"/>
     <use style="fill:#008000;stroke:#008000;" x="89.700674" xlink:href="#m0bf6737534" y="154.526131"/>
     <use style="fill:#008000;stroke:#008000;" x="93.713258" xlink:href="#m0bf6737534" y="115.028271"/>
     <use style="fill:#008000;stroke:#008000;" x="97.725843" xlink:href="#m0bf6737534" y="129.237985"/>
     <use style="fill:#008000;stroke:#008000;" x="101.738427" xlink:href="#m0bf6737534" y="151.753119"/>
     <use style="fill:#008000;stroke:#008000;" x="105.751011" xlink:href="#m0bf6737534" y="150.331484"/>
     <use style="fill:#008000;stroke:#008000;" x="109.763596" xlink:href="#m0bf6737534" y="120.465963"/>
     <use style="fill:#008000;stroke:#008000;" x="113.77618" xlink:href="#m0bf6737534" y="99.303006"/>
     <use style="fill:#008000;stroke:#008000;" x="117.788764" xlink:href="#m0bf6737534" y="98.271343"/>
     <use style="fill:#008000;stroke:#008000;" x="121.801348" xlink:href="#m0bf6737534" y="82.701394"/>
     <use style="fill:#008000;stroke:#008000;" x="125.813933" xlink:href="#m0bf6737534" y="90.401476"/>
     <use style="fill:#008000;stroke:#008000;" x="129.826517" xlink:href="#m0bf6737534" y="91.698605"/>
     <use style="fill:#008000;stroke:#008000;" x="133.839101" xlink:href="#m0bf6737534" y="107.216473"/>
     <use style="fill:#008000;stroke:#008000;" x="137.851685" xlink:href="#m0bf6737534" y="134.275726"/>
     <use style="fill:#008000;stroke:#008000;" x="141.86427" xlink:href="#m0bf6737534" y="133.70778"/>
     <use style="fill:#008000;stroke:#008000;" x="145.876854" xlink:href="#m0bf6737534" y="145.851343"/>
     <use style="fill:#008000;stroke:#008000;" x="149.889438" xlink:href="#m0bf6737534" y="162.265706"/>
     <use style="fill:#008000;stroke:#008000;" x="153.902022" xlink:href="#m0bf6737534" y="122.642425"/>
     <use style="fill:#008000;stroke:#008000;" x="157.914607" xlink:href="#m0bf6737534" y="146.287678"/>
     <use style="fill:#008000;stroke:#008000;" x="161.927191" xlink:href="#m0bf6737534" y="113.262473"/>
     <use style="fill:#008000;stroke:#008000;" x="165.939775" xlink:href="#m0bf6737534" y="119.864411"/>
     <use style="fill:#008000;stroke:#008000;" x="169.95236" xlink:href="#m0bf6737534" y="117.128433"/>
     <use style="fill:#008000;stroke:#008000;" x="173.964944" xlink:href="#m0bf6737534" y="117.941655"/>
     <use style="fill:#008000;stroke:#008000;" x="177.977528" xlink:href="#m0bf6737534" y="128.426808"/>
     <use style="fill:#008000;stroke:#008000;" x="181.990112" xlink:href="#m0bf6737534" y="139.021628"/>
     <use style="fill:#008000;stroke:#008000;" x="186.002697" xlink:href="#m0bf6737534" y="133.424076"/>
     <use style="fill:#008000;stroke:#008000;" x="190.015281" xlink:href="#m0bf6737534" y="160.614727"/>
     <use style="fill:#008000;stroke:#008000;" x="194.027865" xlink:href="#m0bf6737534" y="157.58698"/>
     <use style="fill:#008000;stroke:#008000;" x="198.040449" xlink:href="#m0bf6737534" y="147.485018"/>
     <use style="fill:#008000;stroke:#008000;" x="202.053034" xlink:href="#m0bf6737534" y="143.824458"/>
     <use style="fill:#008000;stroke:#008000;" x="206.065618" xlink:href="#m0bf6737534" y="147.500016"/>
     <use style="fill:#008000;stroke:#008000;" x="210.078202" xlink:href="#m0bf6737534" y="153.85869"/>
     <use style="fill:#008000;stroke:#008000;" x="214.090787" xlink:href="#m0bf6737534" y="102.965923"/>
     <use style="fill:#008000;stroke:#008000;" x="218.103371" xlink:href="#m0bf6737534" y="105.690672"/>
     <use style="fill:#008000;stroke:#008000;" x="222.115955" xlink:href="#m0bf6737534" y="126.517921"/>
     <use style="fill:#008000;stroke:#008000;" x="226.128539" xlink:href="#m0bf6737534" y="123.62111"/>
     <use style="fill:#008000;stroke:#008000;" x="230.141124" xlink:href="#m0bf6737534" y="136.761737"/>
     <use style="fill:#008000;stroke:#008000;" x="234.153708" xlink:href="#m0bf6737534" y="155.013728"/>
     <use style="fill:#008000;stroke:#008000;" x="238.166292" xlink:href="#m0bf6737534" y="155.449752"/>
     <use style="fill:#008000;stroke:#008000;" x="242.178876" xlink:href="#m0bf6737534" y="154.042741"/>
     <use style="fill:#008000;stroke:#008000;" x="246.191461" xlink:href="#m0bf6737534" y="152.877254"/>
     <use style="fill:#008000;stroke:#008000;" x="250.204045" xlink:href="#m0bf6737534" y="150.962758"/>
     <use style="fill:#008000;stroke:#008000;" x="254.216629" xlink:href="#m0bf6737534" y="150.966568"/>
     <use style="fill:#008000;stroke:#008000;" x="258.229213" xlink:href="#m0bf6737534" y="151.494443"/>
     <use style="fill:#008000;stroke:#008000;" x="262.241798" xlink:href="#m0bf6737534" y="154.137847"/>
     <use style="fill:#008000;stroke:#008000;" x="266.254382" xlink:href="#m0bf6737534" y="151.438497"/>
     <use style="fill:#008000;stroke:#008000;" x="270.266966" xlink:href="#m0bf6737534" y="151.771641"/>
     <use style="fill:#008000;stroke:#008000;" x="274.279551" xlink:href="#m0bf6737534" y="153.493531"/>
     <use style="fill:#008000;stroke:#008000;" x="278.292135" xlink:href="#m0bf6737534" y="152.883909"/>
     <use style="fill:#008000;stroke:#008000;" x="282.304719" xlink:href="#m0bf6737534" y="152.136419"/>
     <use style="fill:#008000;stroke:#008000;" x="286.317303" xlink:href="#m0bf6737534" y="152.873326"/>
     <use style="fill:#008000;stroke:#008000;" x="290.329888" xlink:href="#m0bf6737534" y="152.129103"/>
     <use style="fill:#008000;stroke:#008000;" x="294.342472" xlink:href="#m0bf6737534" y="152.43975"/>
     <use style="fill:#008000;stroke:#008000;" x="298.355056" xlink:href="#m0bf6737534" y="151.664096"/>
     <use style="fill:#008000;stroke:#008000;" x="302.36764" xlink:href="#m0bf6737534" y="153.5496"/>
     <use style="fill:#008000;stroke:#008000;" x="306.380225" xlink:href="#m0bf6737534" y="152.973957"/>
     <use style="fill:#008000;stroke:#008000;" x="310.392809" xlink:href="#m0bf6737534" y="151.298616"/>
     <use style="fill:#008000;stroke:#008000;" x="314.405393" xlink:href="#m0bf6737534" y="151.667507"/>
     <use style="fill:#008000;stroke:#008000;" x="318.417978" xlink:href="#m0bf6737534" y="151.101923"/>
     <use style="fill:#008000;stroke:#008000;" x="322.430562" xlink:href="#m0bf6737534" y="151.787186"/>
     <use style="fill:#008000;stroke:#008000;" x="326.443146" xlink:href="#m0bf6737534" y="152.623161"/>
     <use style="fill:#008000;stroke:#008000;" x="330.45573" xlink:href="#m0bf6737534" y="152.374109"/>
     <use style="fill:#008000;stroke:#008000;" x="334.468315" xlink:href="#m0bf6737534" y="150.886214"/>
     <use style="fill:#008000;stroke:#008000;" x="338.480899" xlink:href="#m0bf6737534" y="152.985296"/>
     <use style="fill:#008000;stroke:#008000;" x="342.493483" xlink:href="#m0bf6737534" y="152.115606"/>
     <use style="fill:#008000;stroke:#008000;" x="346.506067" xlink:href="#m0bf6737534" y="151.679258"/>
     <use style="fill:#008000;stroke:#008000;" x="350.518652" xlink:href="#m0bf6737534" y="151.392182"/>
     <use style="fill:#008000;stroke:#008000;" x="354.531236" xlink:href="#m0bf6737534" y="153.431524"/>
     <use style="fill:#008000;stroke:#008000;" x="358.54382" xlink:href="#m0bf6737534" y="152.858602"/>
     <use style="fill:#008000;stroke:#008000;" x="362.556404" xlink:href="#m0bf6737534" y="153.248721"/>
     <use style="fill:#008000;stroke:#008000;" x="366.568989" xlink:href="#m0bf6737534" y="153.484316"/>
     <use style="fill:#008000;stroke:#008000;" x="370.581573" xlink:href="#m0bf6737534" y="152.124651"/>
     <use style="fill:#008000;stroke:#008000;" x="374.594157" xlink:href="#m0bf6737534" y="153.21326"/>
     <use style="fill:#008000;stroke:#008000;" x="378.606742" xlink:href="#m0bf6737534" y="152.859383"/>
     <use style="fill:#008000;stroke:#008000;" x="382.619326" xlink:href="#m0bf6737534" y="150.595289"/>
     <use style="fill:#008000;stroke:#008000;" x="386.63191" xlink:href="#m0bf6737534" y="152.293584"/>
     <use style="fill:#008000;stroke:#008000;" x="390.644494" xlink:href="#m0bf6737534" y="151.275989"/>
     <use style="fill:#008000;stroke:#008000;" x="394.657079" xlink:href="#m0bf6737534" y="152.132811"/>
     <use style="fill:#008000;stroke:#008000;" x="398.669663" xlink:href="#m0bf6737534" y="153.155899"/>
     <use style="fill:#008000;stroke:#008000;" x="402.682247" xlink:href="#m0bf6737534" y="151.921005"/>
     <use style="fill:#008000;stroke:#008000;" x="406.694831" xlink:href="#m0bf6737534" y="151.481222"/>
     <use style="fill:#008000;stroke:#008000;" x="410.707416" xlink:href="#m0bf6737534" y="151.991233"/>
    </g>
   </g>
   <g id="patch_3">
    <path d="M 57.6 307.584 
L 57.6 41.472 
" style="fill:none;stroke:#000000;stroke-linecap:square;stroke-linejoin:miter;stroke-width:0.8;"/>
   </g>
   <g id="patch_4">
    <path d="M 414.72 307.584 
L 414.72 41.472 
" style="fill:none;stroke:#000000;stroke-linecap:square;stroke-linejoin:miter;stroke-width:0.8;"/>
   </g>
   <g id="patch_5">
    <path d="M 57.6 307.584 
L 414.72 307.584 
" style="fill:none;stroke:#000000;stroke-linecap:square;stroke-linejoin:miter;stroke-width:0.8;"/>
   </g>
   <g id="patch_6">
    <path d="M 57.6 41.472 
L 414.72 41.472 
" style="fill:none;stroke:#000000;stroke-linecap:square;stroke-linejoin:miter;stroke-width:0.8;"/>
   </g>
   <g id="text_32">
    <!-- MKL iomp 2PV on transient -->
    <defs>
     <path d="M 9.8125 72.90625 
L 24.515625 72.90625 
L 43.109375 23.296875 
L 61.8125 72.90625 
L 76.515625 72.90625 
L 76.515625 0 
L 66.890625 0 
L 66.890625 64.015625 
L 48.09375 14.015625 
L 38.1875 14.015625 
L 19.390625 64.015625 
L 19.390625 0 
L 9.8125 0 
z
" id="DejaVuSans-77"/>
     <path d="M 9.8125 72.90625 
L 19.671875 72.90625 
L 19.671875 42.09375 
L 52.390625 72.90625 
L 65.09375 72.90625 
L 28.90625 38.921875 
L 67.671875 0 
L 54.6875 0 
L 19.671875 35.109375 
L 19.671875 0 
L 9.8125 0 
z
" id="DejaVuSans-75"/>
     <path d="M 9.8125 72.90625 
L 19.671875 72.90625 
L 19.671875 8.296875 
L 55.171875 8.296875 
L 55.171875 0 
L 9.8125 0 
z
" id="DejaVuSans-76"/>
     <path d="M 9.421875 54.6875 
L 18.40625 54.6875 
L 18.40625 0 
L 9.421875 0 
z
M 9.421875 75.984375 
L 18.40625 75.984375 
L 18.40625 64.59375 
L 9.421875 64.59375 
z
" id="DejaVuSans-105"/>
     <path d="M 30.609375 48.390625 
Q 23.390625 48.390625 19.1875 42.75 
Q 14.984375 37.109375 14.984375 27.296875 
Q 14.984375 17.484375 19.15625 11.84375 
Q 23.34375 6.203125 30.609375 6.203125 
Q 37.796875 6.203125 41.984375 11.859375 
Q 46.1875 17.53125 46.1875 27.296875 
Q 46.1875 37.015625 41.984375 42.703125 
Q 37.796875 48.390625 30.609375 48.390625 
z
M 30.609375 56 
Q 42.328125 56 49.015625 48.375 
Q 55.71875 40.765625 55.71875 27.296875 
Q 55.71875 13.875 49.015625 6.21875 
Q 42.328125 -1.421875 30.609375 -1.421875 
Q 18.84375 -1.421875 12.171875 6.21875 
Q 5.515625 13.875 5.515625 27.296875 
Q 5.515625 40.765625 12.171875 48.375 
Q 18.84375 56 30.609375 56 
z
" id="DejaVuSans-111"/>
     <path d="M 52 44.1875 
Q 55.375 50.25 60.0625 53.125 
Q 64.75 56 71.09375 56 
Q 79.640625 56 84.28125 50.015625 
Q 88.921875 44.046875 88.921875 33.015625 
L 88.921875 0 
L 79.890625 0 
L 79.890625 32.71875 
Q 79.890625 40.578125 77.09375 44.375 
Q 74.3125 48.1875 68.609375 48.1875 
Q 61.625 48.1875 57.5625 43.546875 
Q 53.515625 38.921875 53.515625 30.90625 
L 53.515625 0 
L 44.484375 0 
L 44.484375 32.71875 
Q 44.484375 40.625 41.703125 44.40625 
Q 38.921875 48.1875 33.109375 48.1875 
Q 26.21875 48.1875 22.15625 43.53125 
Q 18.109375 38.875 18.109375 30.90625 
L 18.109375 0 
L 9.078125 0 
L 9.078125 54.6875 
L 18.109375 54.6875 
L 18.109375 46.1875 
Q 21.1875 51.21875 25.484375 53.609375 
Q 29.78125 56 35.6875 56 
Q 41.65625 56 45.828125 52.96875 
Q 50 49.953125 52 44.1875 
z
" id="DejaVuSans-109"/>
     <path d="M 19.671875 64.796875 
L 19.671875 37.40625 
L 32.078125 37.40625 
Q 38.96875 37.40625 42.71875 40.96875 
Q 46.484375 44.53125 46.484375 51.125 
Q 46.484375 57.671875 42.71875 61.234375 
Q 38.96875 64.796875 32.078125 64.796875 
z
M 9.8125 72.90625 
L 32.078125 72.90625 
Q 44.34375 72.90625 50.609375 67.359375 
Q 56.890625 61.8125 56.890625 51.125 
Q 56.890625 40.328125 50.609375 34.8125 
Q 44.34375 29.296875 32.078125 29.296875 
L 19.671875 29.296875 
L 19.671875 0 
L 9.8125 0 
z
" id="DejaVuSans-80"/>
     <path d="M 28.609375 0 
L 0.78125 72.90625 
L 11.078125 72.90625 
L 34.1875 11.53125 
L 57.328125 72.90625 
L 67.578125 72.90625 
L 39.796875 0 
z
" id="DejaVuSans-86"/>
     <path d="M 54.890625 33.015625 
L 54.890625 0 
L 45.90625 0 
L 45.90625 32.71875 
Q 45.90625 40.484375 42.875 44.328125 
Q 39.84375 48.1875 33.796875 48.1875 
Q 26.515625 48.1875 22.3125 43.546875 
Q 18.109375 38.921875 18.109375 30.90625 
L 18.109375 0 
L 9.078125 0 
L 9.078125 54.6875 
L 18.109375 54.6875 
L 18.109375 46.1875 
Q 21.34375 51.125 25.703125 53.5625 
Q 30.078125 56 35.796875 56 
Q 45.21875 56 50.046875 50.171875 
Q 54.890625 44.34375 54.890625 33.015625 
z
" id="DejaVuSans-110"/>
    </defs>
    <g transform="translate(155.135625 35.472)scale(0.12 -0.12)">
     <use xlink:href="#DejaVuSans-77"/>
     <use x="86.279297" xlink:href="#DejaVuSans-75"/>
     <use x="151.855469" xlink:href="#DejaVuSans-76"/>
     <use x="207.568359" xlink:href="#DejaVuSans-32"/>
     <use x="239.355469" xlink:href="#DejaVuSans-105"/>
     <use x="267.138672" xlink:href="#DejaVuSans-111"/>
     <use x="328.320312" xlink:href="#DejaVuSans-109"/>
     <use x="425.732422" xlink:href="#DejaVuSans-112"/>
     <use x="489.208984" xlink:href="#DejaVuSans-32"/>
     <use x="520.996094" xlink:href="#DejaVuSans-50"/>
     <use x="584.619141" xlink:href="#DejaVuSans-80"/>
     <use x="644.921875" xlink:href="#DejaVuSans-86"/>
     <use x="713.330078" xlink:href="#DejaVuSans-32"/>
     <use x="745.117188" xlink:href="#DejaVuSans-111"/>
     <use x="806.298828" xlink:href="#DejaVuSans-110"/>
     <use x="869.677734" xlink:href="#DejaVuSans-32"/>
     <use x="901.464844" xlink:href="#DejaVuSans-116"/>
     <use x="940.673828" xlink:href="#DejaVuSans-114"/>
     <use x="981.787109" xlink:href="#DejaVuSans-97"/>
     <use x="1043.066406" xlink:href="#DejaVuSans-110"/>
     <use x="1106.445312" xlink:href="#DejaVuSans-115"/>
     <use x="1158.544922" xlink:href="#DejaVuSans-105"/>
     <use x="1186.328125" xlink:href="#DejaVuSans-101"/>
     <use x="1247.851562" xlink:href="#DejaVuSans-110"/>
     <use x="1311.230469" xlink:href="#DejaVuSans-116"/>
    </g>
   </g>
   <g id="legend_1">
    <g id="patch_7">
     <path d="M 313.152813 302.584 
L 407.72 302.584 
Q 409.72 302.584 409.72 300.584 
L 409.72 257.2715 
Q 409.72 255.2715 407.72 255.2715 
L 313.152813 255.2715 
Q 311.152813 255.2715 311.152813 257.2715 
L 311.152813 300.584 
Q 311.152813 302.584 313.152813 302.584 
z
" style="fill:#ffffff;opacity:0.8;stroke:#cccccc;stroke-linejoin:miter;"/>
    </g>
    <g id="line2d_62">
     <path d="M 315.152813 263.369937 
L 335.152813 263.369937 
" style="fill:none;stroke:#0000ff;stroke-dasharray:1.5,2.475;stroke-dashoffset:0;stroke-width:1.5;"/>
    </g>
    <g id="line2d_63">
     <g>
      <use style="fill:#0000ff;stroke:#0000ff;" x="325.152813" xlink:href="#m9a4c325830" y="263.369937"/>
     </g>
    </g>
    <g id="text_33">
     <!-- transpose -->
     <g transform="translate(343.152813 266.869937)scale(0.1 -0.1)">
      <use xlink:href="#DejaVuSans-116"/>
      <use x="39.208984" xlink:href="#DejaVuSans-114"/>
      <use x="80.322266" xlink:href="#DejaVuSans-97"/>
      <use x="141.601562" xlink:href="#DejaVuSans-110"/>
      <use x="204.980469" xlink:href="#DejaVuSans-115"/>
      <use x="257.080078" xlink:href="#DejaVuSans-112"/>
      <use x="320.556641" xlink:href="#DejaVuSans-111"/>
      <use x="381.738281" xlink:href="#DejaVuSans-115"/>
      <use x="433.837891" xlink:href="#DejaVuSans-101"/>
     </g>
    </g>
    <g id="line2d_64">
     <path d="M 315.152813 278.048063 
L 335.152813 278.048063 
" style="fill:none;stroke:#ff0000;stroke-dasharray:1.5,2.475;stroke-dashoffset:0;stroke-width:1.5;"/>
    </g>
    <g id="line2d_65">
     <g>
      <use style="fill:#ff0000;stroke:#ff0000;" x="325.152813" xlink:href="#mee5b059989" y="278.048063"/>
     </g>
    </g>
    <g id="text_34">
     <!-- transpose_tr -->
     <defs>
      <path d="M 50.984375 -16.609375 
L 50.984375 -23.578125 
L -0.984375 -23.578125 
L -0.984375 -16.609375 
z
" id="DejaVuSans-95"/>
     </defs>
     <g transform="translate(343.152813 281.548063)scale(0.1 -0.1)">
      <use xlink:href="#DejaVuSans-116"/>
      <use x="39.208984" xlink:href="#DejaVuSans-114"/>
      <use x="80.322266" xlink:href="#DejaVuSans-97"/>
      <use x="141.601562" xlink:href="#DejaVuSans-110"/>
      <use x="204.980469" xlink:href="#DejaVuSans-115"/>
      <use x="257.080078" xlink:href="#DejaVuSans-112"/>
      <use x="320.556641" xlink:href="#DejaVuSans-111"/>
      <use x="381.738281" xlink:href="#DejaVuSans-115"/>
      <use x="433.837891" xlink:href="#DejaVuSans-101"/>
      <use x="495.361328" xlink:href="#DejaVuSans-95"/>
      <use x="545.361328" xlink:href="#DejaVuSans-116"/>
      <use x="584.570312" xlink:href="#DejaVuSans-114"/>
     </g>
    </g>
    <g id="line2d_66">
     <path d="M 315.152813 293.004312 
L 335.152813 293.004312 
" style="fill:none;stroke:#008000;stroke-dasharray:1.5,2.475;stroke-dashoffset:0;stroke-width:1.5;"/>
    </g>
    <g id="line2d_67">
     <g>
      <use style="fill:#008000;stroke:#008000;" x="325.152813" xlink:href="#m0bf6737534" y="293.004312"/>
     </g>
    </g>
    <g id="text_35">
     <!-- mean -->
     <g transform="translate(343.152813 296.504312)scale(0.1 -0.1)">
      <use xlink:href="#DejaVuSans-109"/>
      <use x="97.412109" xlink:href="#DejaVuSans-101"/>
      <use x="158.935547" xlink:href="#DejaVuSans-97"/>
      <use x="220.214844" xlink:href="#DejaVuSans-110"/>
     </g>
    </g>
   </g>
  </g>
 </g>
 <defs>
  <clipPath id="p55210f014e">
   <rect height="266.112" width="357.12" x="57.6" y="41.472"/>
  </clipPath>
 </defs>
</svg>
