<?xml version="1.0" encoding="utf-8" standalone="no"?>
<!DOCTYPE svg PUBLIC "-//W3C//DTD SVG 1.1//EN"
  "http://www.w3.org/Graphics/SVG/1.1/DTD/svg11.dtd">
<!-- Created with matplotlib (https://matplotlib.org/) -->
<svg height="345.6pt" version="1.1" viewBox="0 0 460.8 345.6" width="460.8pt" xmlns="http://www.w3.org/2000/svg" xmlns:xlink="http://www.w3.org/1999/xlink">
 <defs>
  <style type="text/css">
*{stroke-linecap:butt;stroke-linejoin:round;}
  </style>
 </defs>
 <g id="figure_1">
  <g id="patch_1">
   <path d="M 0 345.6 
L 460.8 345.6 
L 460.8 0 
L 0 0 
z
" style="fill:#ffffff;"/>
  </g>
  <g id="axes_1">
   <g id="patch_2">
    <path d="M 57.6 307.584 
L 414.72 307.584 
L 414.72 41.472 
L 57.6 41.472 
z
" style="fill:#ffffff;"/>
   </g>
   <g id="matplotlib.axis_1">
    <g id="xtick_1">
     <g id="line2d_1">
      <path clip-path="url(#pe2a796277f)" d="M 61.612584 307.584 
L 61.612584 41.472 
" style="fill:none;stroke:#b0b0b0;stroke-dasharray:5.12,1.28,0.8,1.28;stroke-dashoffset:0;stroke-width:0.8;"/>
     </g>
     <g id="line2d_2">
      <defs>
       <path d="M 0 0 
L 0 3.5 
" id="m35faa029c9" style="stroke:#000000;stroke-width:0.8;"/>
      </defs>
      <g>
       <use style="stroke:#000000;stroke-width:0.8;" x="61.612584" xlink:href="#m35faa029c9" y="307.584"/>
      </g>
     </g>
     <g id="text_1">
      <!-- 1 -->
      <defs>
       <path d="M 12.40625 8.296875 
L 28.515625 8.296875 
L 28.515625 63.921875 
L 10.984375 60.40625 
L 10.984375 69.390625 
L 28.421875 72.90625 
L 38.28125 72.90625 
L 38.28125 8.296875 
L 54.390625 8.296875 
L 54.390625 0 
L 12.40625 0 
z
" id="DejaVuSans-49"/>
      </defs>
      <g transform="translate(58.431334 322.182437)scale(0.1 -0.1)">
       <use xlink:href="#DejaVuSans-49"/>
      </g>
     </g>
    </g>
    <g id="xtick_2">
     <g id="line2d_3">
      <path clip-path="url(#pe2a796277f)" d="M 73.650337 307.584 
L 73.650337 41.472 
" style="fill:none;stroke:#b0b0b0;stroke-dasharray:5.12,1.28,0.8,1.28;stroke-dashoffset:0;stroke-width:0.8;"/>
     </g>
     <g id="line2d_4">
      <g>
       <use style="stroke:#000000;stroke-width:0.8;" x="73.650337" xlink:href="#m35faa029c9" y="307.584"/>
      </g>
     </g>
     <g id="text_2">
      <!-- 4 -->
      <defs>
       <path d="M 37.796875 64.3125 
L 12.890625 25.390625 
L 37.796875 25.390625 
z
M 35.203125 72.90625 
L 47.609375 72.90625 
L 47.609375 25.390625 
L 58.015625 25.390625 
L 58.015625 17.1875 
L 47.609375 17.1875 
L 47.609375 0 
L 37.796875 0 
L 37.796875 17.1875 
L 4.890625 17.1875 
L 4.890625 26.703125 
z
" id="DejaVuSans-52"/>
      </defs>
      <g transform="translate(70.469087 322.182437)scale(0.1 -0.1)">
       <use xlink:href="#DejaVuSans-52"/>
      </g>
     </g>
    </g>
    <g id="xtick_3">
     <g id="line2d_5">
      <path clip-path="url(#pe2a796277f)" d="M 89.700674 307.584 
L 89.700674 41.472 
" style="fill:none;stroke:#b0b0b0;stroke-dasharray:5.12,1.28,0.8,1.28;stroke-dashoffset:0;stroke-width:0.8;"/>
     </g>
     <g id="line2d_6">
      <g>
       <use style="stroke:#000000;stroke-width:0.8;" x="89.700674" xlink:href="#m35faa029c9" y="307.584"/>
      </g>
     </g>
     <g id="text_3">
      <!-- 8 -->
      <defs>
       <path d="M 31.78125 34.625 
Q 24.75 34.625 20.71875 30.859375 
Q 16.703125 27.09375 16.703125 20.515625 
Q 16.703125 13.921875 20.71875 10.15625 
Q 24.75 6.390625 31.78125 6.390625 
Q 38.8125 6.390625 42.859375 10.171875 
Q 46.921875 13.96875 46.921875 20.515625 
Q 46.921875 27.09375 42.890625 30.859375 
Q 38.875 34.625 31.78125 34.625 
z
M 21.921875 38.8125 
Q 15.578125 40.375 12.03125 44.71875 
Q 8.5 49.078125 8.5 55.328125 
Q 8.5 64.0625 14.71875 69.140625 
Q 20.953125 74.21875 31.78125 74.21875 
Q 42.671875 74.21875 48.875 69.140625 
Q 55.078125 64.0625 55.078125 55.328125 
Q 55.078125 49.078125 51.53125 44.71875 
Q 48 40.375 41.703125 38.8125 
Q 48.828125 37.15625 52.796875 32.3125 
Q 56.78125 27.484375 56.78125 20.515625 
Q 56.78125 9.90625 50.3125 4.234375 
Q 43.84375 -1.421875 31.78125 -1.421875 
Q 19.734375 -1.421875 13.25 4.234375 
Q 6.78125 9.90625 6.78125 20.515625 
Q 6.78125 27.484375 10.78125 32.3125 
Q 14.796875 37.15625 21.921875 38.8125 
z
M 18.3125 54.390625 
Q 18.3125 48.734375 21.84375 45.5625 
Q 25.390625 42.390625 31.78125 42.390625 
Q 38.140625 42.390625 41.71875 45.5625 
Q 45.3125 48.734375 45.3125 54.390625 
Q 45.3125 60.0625 41.71875 63.234375 
Q 38.140625 66.40625 31.78125 66.40625 
Q 25.390625 66.40625 21.84375 63.234375 
Q 18.3125 60.0625 18.3125 54.390625 
z
" id="DejaVuSans-56"/>
      </defs>
      <g transform="translate(86.519424 322.182437)scale(0.1 -0.1)">
       <use xlink:href="#DejaVuSans-56"/>
      </g>
     </g>
    </g>
    <g id="xtick_4">
     <g id="line2d_7">
      <path clip-path="url(#pe2a796277f)" d="M 105.751011 307.584 
L 105.751011 41.472 
" style="fill:none;stroke:#b0b0b0;stroke-dasharray:5.12,1.28,0.8,1.28;stroke-dashoffset:0;stroke-width:0.8;"/>
     </g>
     <g id="line2d_8">
      <g>
       <use style="stroke:#000000;stroke-width:0.8;" x="105.751011" xlink:href="#m35faa029c9" y="307.584"/>
      </g>
     </g>
     <g id="text_4">
      <!-- 12 -->
      <defs>
       <path d="M 19.1875 8.296875 
L 53.609375 8.296875 
L 53.609375 0 
L 7.328125 0 
L 7.328125 8.296875 
Q 12.9375 14.109375 22.625 23.890625 
Q 32.328125 33.6875 34.8125 36.53125 
Q 39.546875 41.84375 41.421875 45.53125 
Q 43.3125 49.21875 43.3125 52.78125 
Q 43.3125 58.59375 39.234375 62.25 
Q 35.15625 65.921875 28.609375 65.921875 
Q 23.96875 65.921875 18.8125 64.3125 
Q 13.671875 62.703125 7.8125 59.421875 
L 7.8125 69.390625 
Q 13.765625 71.78125 18.9375 73 
Q 24.125 74.21875 28.421875 74.21875 
Q 39.75 74.21875 46.484375 68.546875 
Q 53.21875 62.890625 53.21875 53.421875 
Q 53.21875 48.921875 51.53125 44.890625 
Q 49.859375 40.875 45.40625 35.40625 
Q 44.1875 33.984375 37.640625 27.21875 
Q 31.109375 20.453125 19.1875 8.296875 
z
" id="DejaVuSans-50"/>
      </defs>
      <g transform="translate(99.388511 322.182437)scale(0.1 -0.1)">
       <use xlink:href="#DejaVuSans-49"/>
       <use x="63.623047" xlink:href="#DejaVuSans-50"/>
      </g>
     </g>
    </g>
    <g id="xtick_5">
     <g id="line2d_9">
      <path clip-path="url(#pe2a796277f)" d="M 121.801348 307.584 
L 121.801348 41.472 
" style="fill:none;stroke:#b0b0b0;stroke-dasharray:5.12,1.28,0.8,1.28;stroke-dashoffset:0;stroke-width:0.8;"/>
     </g>
     <g id="line2d_10">
      <g>
       <use style="stroke:#000000;stroke-width:0.8;" x="121.801348" xlink:href="#m35faa029c9" y="307.584"/>
      </g>
     </g>
     <g id="text_5">
      <!-- 16 -->
      <defs>
       <path d="M 33.015625 40.375 
Q 26.375 40.375 22.484375 35.828125 
Q 18.609375 31.296875 18.609375 23.390625 
Q 18.609375 15.53125 22.484375 10.953125 
Q 26.375 6.390625 33.015625 6.390625 
Q 39.65625 6.390625 43.53125 10.953125 
Q 47.40625 15.53125 47.40625 23.390625 
Q 47.40625 31.296875 43.53125 35.828125 
Q 39.65625 40.375 33.015625 40.375 
z
M 52.59375 71.296875 
L 52.59375 62.3125 
Q 48.875 64.0625 45.09375 64.984375 
Q 41.3125 65.921875 37.59375 65.921875 
Q 27.828125 65.921875 22.671875 59.328125 
Q 17.53125 52.734375 16.796875 39.40625 
Q 19.671875 43.65625 24.015625 45.921875 
Q 28.375 48.1875 33.59375 48.1875 
Q 44.578125 48.1875 50.953125 41.515625 
Q 57.328125 34.859375 57.328125 23.390625 
Q 57.328125 12.15625 50.6875 5.359375 
Q 44.046875 -1.421875 33.015625 -1.421875 
Q 20.359375 -1.421875 13.671875 8.265625 
Q 6.984375 17.96875 6.984375 36.375 
Q 6.984375 53.65625 15.1875 63.9375 
Q 23.390625 74.21875 37.203125 74.21875 
Q 40.921875 74.21875 44.703125 73.484375 
Q 48.484375 72.75 52.59375 71.296875 
z
" id="DejaVuSans-54"/>
      </defs>
      <g transform="translate(115.438848 322.182437)scale(0.1 -0.1)">
       <use xlink:href="#DejaVuSans-49"/>
       <use x="63.623047" xlink:href="#DejaVuSans-54"/>
      </g>
     </g>
    </g>
    <g id="xtick_6">
     <g id="line2d_11">
      <path clip-path="url(#pe2a796277f)" d="M 137.851685 307.584 
L 137.851685 41.472 
" style="fill:none;stroke:#b0b0b0;stroke-dasharray:5.12,1.28,0.8,1.28;stroke-dashoffset:0;stroke-width:0.8;"/>
     </g>
     <g id="line2d_12">
      <g>
       <use style="stroke:#000000;stroke-width:0.8;" x="137.851685" xlink:href="#m35faa029c9" y="307.584"/>
      </g>
     </g>
     <g id="text_6">
      <!-- 20 -->
      <defs>
       <path d="M 31.78125 66.40625 
Q 24.171875 66.40625 20.328125 58.90625 
Q 16.5 51.421875 16.5 36.375 
Q 16.5 21.390625 20.328125 13.890625 
Q 24.171875 6.390625 31.78125 6.390625 
Q 39.453125 6.390625 43.28125 13.890625 
Q 47.125 21.390625 47.125 36.375 
Q 47.125 51.421875 43.28125 58.90625 
Q 39.453125 66.40625 31.78125 66.40625 
z
M 31.78125 74.21875 
Q 44.046875 74.21875 50.515625 64.515625 
Q 56.984375 54.828125 56.984375 36.375 
Q 56.984375 17.96875 50.515625 8.265625 
Q 44.046875 -1.421875 31.78125 -1.421875 
Q 19.53125 -1.421875 13.0625 8.265625 
Q 6.59375 17.96875 6.59375 36.375 
Q 6.59375 54.828125 13.0625 64.515625 
Q 19.53125 74.21875 31.78125 74.21875 
z
" id="DejaVuSans-48"/>
      </defs>
      <g transform="translate(131.489185 322.182437)scale(0.1 -0.1)">
       <use xlink:href="#DejaVuSans-50"/>
       <use x="63.623047" xlink:href="#DejaVuSans-48"/>
      </g>
     </g>
    </g>
    <g id="xtick_7">
     <g id="line2d_13">
      <path clip-path="url(#pe2a796277f)" d="M 153.902022 307.584 
L 153.902022 41.472 
" style="fill:none;stroke:#b0b0b0;stroke-dasharray:5.12,1.28,0.8,1.28;stroke-dashoffset:0;stroke-width:0.8;"/>
     </g>
     <g id="line2d_14">
      <g>
       <use style="stroke:#000000;stroke-width:0.8;" x="153.902022" xlink:href="#m35faa029c9" y="307.584"/>
      </g>
     </g>
     <g id="text_7">
      <!-- 24 -->
      <g transform="translate(147.539522 322.182437)scale(0.1 -0.1)">
       <use xlink:href="#DejaVuSans-50"/>
       <use x="63.623047" xlink:href="#DejaVuSans-52"/>
      </g>
     </g>
    </g>
    <g id="xtick_8">
     <g id="line2d_15">
      <path clip-path="url(#pe2a796277f)" d="M 169.95236 307.584 
L 169.95236 41.472 
" style="fill:none;stroke:#b0b0b0;stroke-dasharray:5.12,1.28,0.8,1.28;stroke-dashoffset:0;stroke-width:0.8;"/>
     </g>
     <g id="line2d_16">
      <g>
       <use style="stroke:#000000;stroke-width:0.8;" x="169.95236" xlink:href="#m35faa029c9" y="307.584"/>
      </g>
     </g>
     <g id="text_8">
      <!-- 28 -->
      <g transform="translate(163.58986 322.182437)scale(0.1 -0.1)">
       <use xlink:href="#DejaVuSans-50"/>
       <use x="63.623047" xlink:href="#DejaVuSans-56"/>
      </g>
     </g>
    </g>
    <g id="xtick_9">
     <g id="line2d_17">
      <path clip-path="url(#pe2a796277f)" d="M 186.002697 307.584 
L 186.002697 41.472 
" style="fill:none;stroke:#b0b0b0;stroke-dasharray:5.12,1.28,0.8,1.28;stroke-dashoffset:0;stroke-width:0.8;"/>
     </g>
     <g id="line2d_18">
      <g>
       <use style="stroke:#000000;stroke-width:0.8;" x="186.002697" xlink:href="#m35faa029c9" y="307.584"/>
      </g>
     </g>
     <g id="text_9">
      <!-- 32 -->
      <defs>
       <path d="M 40.578125 39.3125 
Q 47.65625 37.796875 51.625 33 
Q 55.609375 28.21875 55.609375 21.1875 
Q 55.609375 10.40625 48.1875 4.484375 
Q 40.765625 -1.421875 27.09375 -1.421875 
Q 22.515625 -1.421875 17.65625 -0.515625 
Q 12.796875 0.390625 7.625 2.203125 
L 7.625 11.71875 
Q 11.71875 9.328125 16.59375 8.109375 
Q 21.484375 6.890625 26.8125 6.890625 
Q 36.078125 6.890625 40.9375 10.546875 
Q 45.796875 14.203125 45.796875 21.1875 
Q 45.796875 27.640625 41.28125 31.265625 
Q 36.765625 34.90625 28.71875 34.90625 
L 20.21875 34.90625 
L 20.21875 43.015625 
L 29.109375 43.015625 
Q 36.375 43.015625 40.234375 45.921875 
Q 44.09375 48.828125 44.09375 54.296875 
Q 44.09375 59.90625 40.109375 62.90625 
Q 36.140625 65.921875 28.71875 65.921875 
Q 24.65625 65.921875 20.015625 65.03125 
Q 15.375 64.15625 9.8125 62.3125 
L 9.8125 71.09375 
Q 15.4375 72.65625 20.34375 73.4375 
Q 25.25 74.21875 29.59375 74.21875 
Q 40.828125 74.21875 47.359375 69.109375 
Q 53.90625 64.015625 53.90625 55.328125 
Q 53.90625 49.265625 50.4375 45.09375 
Q 46.96875 40.921875 40.578125 39.3125 
z
" id="DejaVuSans-51"/>
      </defs>
      <g transform="translate(179.640197 322.182437)scale(0.1 -0.1)">
       <use xlink:href="#DejaVuSans-51"/>
       <use x="63.623047" xlink:href="#DejaVuSans-50"/>
      </g>
     </g>
    </g>
    <g id="xtick_10">
     <g id="line2d_19">
      <path clip-path="url(#pe2a796277f)" d="M 202.053034 307.584 
L 202.053034 41.472 
" style="fill:none;stroke:#b0b0b0;stroke-dasharray:5.12,1.28,0.8,1.28;stroke-dashoffset:0;stroke-width:0.8;"/>
     </g>
     <g id="line2d_20">
      <g>
       <use style="stroke:#000000;stroke-width:0.8;" x="202.053034" xlink:href="#m35faa029c9" y="307.584"/>
      </g>
     </g>
     <g id="text_10">
      <!-- 36 -->
      <g transform="translate(195.690534 322.182437)scale(0.1 -0.1)">
       <use xlink:href="#DejaVuSans-51"/>
       <use x="63.623047" xlink:href="#DejaVuSans-54"/>
      </g>
     </g>
    </g>
    <g id="xtick_11">
     <g id="line2d_21">
      <path clip-path="url(#pe2a796277f)" d="M 218.103371 307.584 
L 218.103371 41.472 
" style="fill:none;stroke:#b0b0b0;stroke-dasharray:5.12,1.28,0.8,1.28;stroke-dashoffset:0;stroke-width:0.8;"/>
     </g>
     <g id="line2d_22">
      <g>
       <use style="stroke:#000000;stroke-width:0.8;" x="218.103371" xlink:href="#m35faa029c9" y="307.584"/>
      </g>
     </g>
     <g id="text_11">
      <!-- 40 -->
      <g transform="translate(211.740871 322.182437)scale(0.1 -0.1)">
       <use xlink:href="#DejaVuSans-52"/>
       <use x="63.623047" xlink:href="#DejaVuSans-48"/>
      </g>
     </g>
    </g>
    <g id="xtick_12">
     <g id="line2d_23">
      <path clip-path="url(#pe2a796277f)" d="M 234.153708 307.584 
L 234.153708 41.472 
" style="fill:none;stroke:#b0b0b0;stroke-dasharray:5.12,1.28,0.8,1.28;stroke-dashoffset:0;stroke-width:0.8;"/>
     </g>
     <g id="line2d_24">
      <g>
       <use style="stroke:#000000;stroke-width:0.8;" x="234.153708" xlink:href="#m35faa029c9" y="307.584"/>
      </g>
     </g>
     <g id="text_12">
      <!-- 44 -->
      <g transform="translate(227.791208 322.182437)scale(0.1 -0.1)">
       <use xlink:href="#DejaVuSans-52"/>
       <use x="63.623047" xlink:href="#DejaVuSans-52"/>
      </g>
     </g>
    </g>
    <g id="xtick_13">
     <g id="line2d_25">
      <path clip-path="url(#pe2a796277f)" d="M 250.204045 307.584 
L 250.204045 41.472 
" style="fill:none;stroke:#b0b0b0;stroke-dasharray:5.12,1.28,0.8,1.28;stroke-dashoffset:0;stroke-width:0.8;"/>
     </g>
     <g id="line2d_26">
      <g>
       <use style="stroke:#000000;stroke-width:0.8;" x="250.204045" xlink:href="#m35faa029c9" y="307.584"/>
      </g>
     </g>
     <g id="text_13">
      <!-- 48 -->
      <g transform="translate(243.841545 322.182437)scale(0.1 -0.1)">
       <use xlink:href="#DejaVuSans-52"/>
       <use x="63.623047" xlink:href="#DejaVuSans-56"/>
      </g>
     </g>
    </g>
    <g id="xtick_14">
     <g id="line2d_27">
      <path clip-path="url(#pe2a796277f)" d="M 266.254382 307.584 
L 266.254382 41.472 
" style="fill:none;stroke:#b0b0b0;stroke-dasharray:5.12,1.28,0.8,1.28;stroke-dashoffset:0;stroke-width:0.8;"/>
     </g>
     <g id="line2d_28">
      <g>
       <use style="stroke:#000000;stroke-width:0.8;" x="266.254382" xlink:href="#m35faa029c9" y="307.584"/>
      </g>
     </g>
     <g id="text_14">
      <!-- 52 -->
      <defs>
       <path d="M 10.796875 72.90625 
L 49.515625 72.90625 
L 49.515625 64.59375 
L 19.828125 64.59375 
L 19.828125 46.734375 
Q 21.96875 47.46875 24.109375 47.828125 
Q 26.265625 48.1875 28.421875 48.1875 
Q 40.625 48.1875 47.75 41.5 
Q 54.890625 34.8125 54.890625 23.390625 
Q 54.890625 11.625 47.5625 5.09375 
Q 40.234375 -1.421875 26.90625 -1.421875 
Q 22.3125 -1.421875 17.546875 -0.640625 
Q 12.796875 0.140625 7.71875 1.703125 
L 7.71875 11.625 
Q 12.109375 9.234375 16.796875 8.0625 
Q 21.484375 6.890625 26.703125 6.890625 
Q 35.15625 6.890625 40.078125 11.328125 
Q 45.015625 15.765625 45.015625 23.390625 
Q 45.015625 31 40.078125 35.4375 
Q 35.15625 39.890625 26.703125 39.890625 
Q 22.75 39.890625 18.8125 39.015625 
Q 14.890625 38.140625 10.796875 36.28125 
z
" id="DejaVuSans-53"/>
      </defs>
      <g transform="translate(259.891882 322.182437)scale(0.1 -0.1)">
       <use xlink:href="#DejaVuSans-53"/>
       <use x="63.623047" xlink:href="#DejaVuSans-50"/>
      </g>
     </g>
    </g>
    <g id="xtick_15">
     <g id="line2d_29">
      <path clip-path="url(#pe2a796277f)" d="M 282.304719 307.584 
L 282.304719 41.472 
" style="fill:none;stroke:#b0b0b0;stroke-dasharray:5.12,1.28,0.8,1.28;stroke-dashoffset:0;stroke-width:0.8;"/>
     </g>
     <g id="line2d_30">
      <g>
       <use style="stroke:#000000;stroke-width:0.8;" x="282.304719" xlink:href="#m35faa029c9" y="307.584"/>
      </g>
     </g>
     <g id="text_15">
      <!-- 56 -->
      <g transform="translate(275.942219 322.182437)scale(0.1 -0.1)">
       <use xlink:href="#DejaVuSans-53"/>
       <use x="63.623047" xlink:href="#DejaVuSans-54"/>
      </g>
     </g>
    </g>
    <g id="xtick_16">
     <g id="line2d_31">
      <path clip-path="url(#pe2a796277f)" d="M 298.355056 307.584 
L 298.355056 41.472 
" style="fill:none;stroke:#b0b0b0;stroke-dasharray:5.12,1.28,0.8,1.28;stroke-dashoffset:0;stroke-width:0.8;"/>
     </g>
     <g id="line2d_32">
      <g>
       <use style="stroke:#000000;stroke-width:0.8;" x="298.355056" xlink:href="#m35faa029c9" y="307.584"/>
      </g>
     </g>
     <g id="text_16">
      <!-- 60 -->
      <g transform="translate(291.992556 322.182437)scale(0.1 -0.1)">
       <use xlink:href="#DejaVuSans-54"/>
       <use x="63.623047" xlink:href="#DejaVuSans-48"/>
      </g>
     </g>
    </g>
    <g id="xtick_17">
     <g id="line2d_33">
      <path clip-path="url(#pe2a796277f)" d="M 314.405393 307.584 
L 314.405393 41.472 
" style="fill:none;stroke:#b0b0b0;stroke-dasharray:5.12,1.28,0.8,1.28;stroke-dashoffset:0;stroke-width:0.8;"/>
     </g>
     <g id="line2d_34">
      <g>
       <use style="stroke:#000000;stroke-width:0.8;" x="314.405393" xlink:href="#m35faa029c9" y="307.584"/>
      </g>
     </g>
     <g id="text_17">
      <!-- 64 -->
      <g transform="translate(308.042893 322.182437)scale(0.1 -0.1)">
       <use xlink:href="#DejaVuSans-54"/>
       <use x="63.623047" xlink:href="#DejaVuSans-52"/>
      </g>
     </g>
    </g>
    <g id="xtick_18">
     <g id="line2d_35">
      <path clip-path="url(#pe2a796277f)" d="M 330.45573 307.584 
L 330.45573 41.472 
" style="fill:none;stroke:#b0b0b0;stroke-dasharray:5.12,1.28,0.8,1.28;stroke-dashoffset:0;stroke-width:0.8;"/>
     </g>
     <g id="line2d_36">
      <g>
       <use style="stroke:#000000;stroke-width:0.8;" x="330.45573" xlink:href="#m35faa029c9" y="307.584"/>
      </g>
     </g>
     <g id="text_18">
      <!-- 68 -->
      <g transform="translate(324.09323 322.182437)scale(0.1 -0.1)">
       <use xlink:href="#DejaVuSans-54"/>
       <use x="63.623047" xlink:href="#DejaVuSans-56"/>
      </g>
     </g>
    </g>
    <g id="xtick_19">
     <g id="line2d_37">
      <path clip-path="url(#pe2a796277f)" d="M 346.506067 307.584 
L 346.506067 41.472 
" style="fill:none;stroke:#b0b0b0;stroke-dasharray:5.12,1.28,0.8,1.28;stroke-dashoffset:0;stroke-width:0.8;"/>
     </g>
     <g id="line2d_38">
      <g>
       <use style="stroke:#000000;stroke-width:0.8;" x="346.506067" xlink:href="#m35faa029c9" y="307.584"/>
      </g>
     </g>
     <g id="text_19">
      <!-- 72 -->
      <defs>
       <path d="M 8.203125 72.90625 
L 55.078125 72.90625 
L 55.078125 68.703125 
L 28.609375 0 
L 18.3125 0 
L 43.21875 64.59375 
L 8.203125 64.59375 
z
" id="DejaVuSans-55"/>
      </defs>
      <g transform="translate(340.143567 322.182437)scale(0.1 -0.1)">
       <use xlink:href="#DejaVuSans-55"/>
       <use x="63.623047" xlink:href="#DejaVuSans-50"/>
      </g>
     </g>
    </g>
    <g id="xtick_20">
     <g id="line2d_39">
      <path clip-path="url(#pe2a796277f)" d="M 362.556404 307.584 
L 362.556404 41.472 
" style="fill:none;stroke:#b0b0b0;stroke-dasharray:5.12,1.28,0.8,1.28;stroke-dashoffset:0;stroke-width:0.8;"/>
     </g>
     <g id="line2d_40">
      <g>
       <use style="stroke:#000000;stroke-width:0.8;" x="362.556404" xlink:href="#m35faa029c9" y="307.584"/>
      </g>
     </g>
     <g id="text_20">
      <!-- 76 -->
      <g transform="translate(356.193904 322.182437)scale(0.1 -0.1)">
       <use xlink:href="#DejaVuSans-55"/>
       <use x="63.623047" xlink:href="#DejaVuSans-54"/>
      </g>
     </g>
    </g>
    <g id="xtick_21">
     <g id="line2d_41">
      <path clip-path="url(#pe2a796277f)" d="M 378.606742 307.584 
L 378.606742 41.472 
" style="fill:none;stroke:#b0b0b0;stroke-dasharray:5.12,1.28,0.8,1.28;stroke-dashoffset:0;stroke-width:0.8;"/>
     </g>
     <g id="line2d_42">
      <g>
       <use style="stroke:#000000;stroke-width:0.8;" x="378.606742" xlink:href="#m35faa029c9" y="307.584"/>
      </g>
     </g>
     <g id="text_21">
      <!-- 80 -->
      <g transform="translate(372.244242 322.182437)scale(0.1 -0.1)">
       <use xlink:href="#DejaVuSans-56"/>
       <use x="63.623047" xlink:href="#DejaVuSans-48"/>
      </g>
     </g>
    </g>
    <g id="xtick_22">
     <g id="line2d_43">
      <path clip-path="url(#pe2a796277f)" d="M 394.657079 307.584 
L 394.657079 41.472 
" style="fill:none;stroke:#b0b0b0;stroke-dasharray:5.12,1.28,0.8,1.28;stroke-dashoffset:0;stroke-width:0.8;"/>
     </g>
     <g id="line2d_44">
      <g>
       <use style="stroke:#000000;stroke-width:0.8;" x="394.657079" xlink:href="#m35faa029c9" y="307.584"/>
      </g>
     </g>
     <g id="text_22">
      <!-- 84 -->
      <g transform="translate(388.294579 322.182437)scale(0.1 -0.1)">
       <use xlink:href="#DejaVuSans-56"/>
       <use x="63.623047" xlink:href="#DejaVuSans-52"/>
      </g>
     </g>
    </g>
    <g id="xtick_23">
     <g id="line2d_45">
      <path clip-path="url(#pe2a796277f)" d="M 410.707416 307.584 
L 410.707416 41.472 
" style="fill:none;stroke:#b0b0b0;stroke-dasharray:5.12,1.28,0.8,1.28;stroke-dashoffset:0;stroke-width:0.8;"/>
     </g>
     <g id="line2d_46">
      <g>
       <use style="stroke:#000000;stroke-width:0.8;" x="410.707416" xlink:href="#m35faa029c9" y="307.584"/>
      </g>
     </g>
     <g id="text_23">
      <!-- 88 -->
      <g transform="translate(404.344916 322.182437)scale(0.1 -0.1)">
       <use xlink:href="#DejaVuSans-56"/>
       <use x="63.623047" xlink:href="#DejaVuSans-56"/>
      </g>
     </g>
    </g>
    <g id="text_24">
     <!-- threads -->
     <defs>
      <path d="M 18.3125 70.21875 
L 18.3125 54.6875 
L 36.8125 54.6875 
L 36.8125 47.703125 
L 18.3125 47.703125 
L 18.3125 18.015625 
Q 18.3125 11.328125 20.140625 9.421875 
Q 21.96875 7.515625 27.59375 7.515625 
L 36.8125 7.515625 
L 36.8125 0 
L 27.59375 0 
Q 17.1875 0 13.234375 3.875 
Q 9.28125 7.765625 9.28125 18.015625 
L 9.28125 47.703125 
L 2.6875 47.703125 
L 2.6875 54.6875 
L 9.28125 54.6875 
L 9.28125 70.21875 
z
" id="DejaVuSans-116"/>
      <path d="M 54.890625 33.015625 
L 54.890625 0 
L 45.90625 0 
L 45.90625 32.71875 
Q 45.90625 40.484375 42.875 44.328125 
Q 39.84375 48.1875 33.796875 48.1875 
Q 26.515625 48.1875 22.3125 43.546875 
Q 18.109375 38.921875 18.109375 30.90625 
L 18.109375 0 
L 9.078125 0 
L 9.078125 75.984375 
L 18.109375 75.984375 
L 18.109375 46.1875 
Q 21.34375 51.125 25.703125 53.5625 
Q 30.078125 56 35.796875 56 
Q 45.21875 56 50.046875 50.171875 
Q 54.890625 44.34375 54.890625 33.015625 
z
" id="DejaVuSans-104"/>
      <path d="M 41.109375 46.296875 
Q 39.59375 47.171875 37.8125 47.578125 
Q 36.03125 48 33.890625 48 
Q 26.265625 48 22.1875 43.046875 
Q 18.109375 38.09375 18.109375 28.8125 
L 18.109375 0 
L 9.078125 0 
L 9.078125 54.6875 
L 18.109375 54.6875 
L 18.109375 46.1875 
Q 20.953125 51.171875 25.484375 53.578125 
Q 30.03125 56 36.53125 56 
Q 37.453125 56 38.578125 55.875 
Q 39.703125 55.765625 41.0625 55.515625 
z
" id="DejaVuSans-114"/>
      <path d="M 56.203125 29.59375 
L 56.203125 25.203125 
L 14.890625 25.203125 
Q 15.484375 15.921875 20.484375 11.0625 
Q 25.484375 6.203125 34.421875 6.203125 
Q 39.59375 6.203125 44.453125 7.46875 
Q 49.3125 8.734375 54.109375 11.28125 
L 54.109375 2.78125 
Q 49.265625 0.734375 44.1875 -0.34375 
Q 39.109375 -1.421875 33.890625 -1.421875 
Q 20.796875 -1.421875 13.15625 6.1875 
Q 5.515625 13.8125 5.515625 26.8125 
Q 5.515625 40.234375 12.765625 48.109375 
Q 20.015625 56 32.328125 56 
Q 43.359375 56 49.78125 48.890625 
Q 56.203125 41.796875 56.203125 29.59375 
z
M 47.21875 32.234375 
Q 47.125 39.59375 43.09375 43.984375 
Q 39.0625 48.390625 32.421875 48.390625 
Q 24.90625 48.390625 20.390625 44.140625 
Q 15.875 39.890625 15.1875 32.171875 
z
" id="DejaVuSans-101"/>
      <path d="M 34.28125 27.484375 
Q 23.390625 27.484375 19.1875 25 
Q 14.984375 22.515625 14.984375 16.5 
Q 14.984375 11.71875 18.140625 8.90625 
Q 21.296875 6.109375 26.703125 6.109375 
Q 34.1875 6.109375 38.703125 11.40625 
Q 43.21875 16.703125 43.21875 25.484375 
L 43.21875 27.484375 
z
M 52.203125 31.203125 
L 52.203125 0 
L 43.21875 0 
L 43.21875 8.296875 
Q 40.140625 3.328125 35.546875 0.953125 
Q 30.953125 -1.421875 24.3125 -1.421875 
Q 15.921875 -1.421875 10.953125 3.296875 
Q 6 8.015625 6 15.921875 
Q 6 25.140625 12.171875 29.828125 
Q 18.359375 34.515625 30.609375 34.515625 
L 43.21875 34.515625 
L 43.21875 35.40625 
Q 43.21875 41.609375 39.140625 45 
Q 35.0625 48.390625 27.6875 48.390625 
Q 23 48.390625 18.546875 47.265625 
Q 14.109375 46.140625 10.015625 43.890625 
L 10.015625 52.203125 
Q 14.9375 54.109375 19.578125 55.046875 
Q 24.21875 56 28.609375 56 
Q 40.484375 56 46.34375 49.84375 
Q 52.203125 43.703125 52.203125 31.203125 
z
" id="DejaVuSans-97"/>
      <path d="M 45.40625 46.390625 
L 45.40625 75.984375 
L 54.390625 75.984375 
L 54.390625 0 
L 45.40625 0 
L 45.40625 8.203125 
Q 42.578125 3.328125 38.25 0.953125 
Q 33.9375 -1.421875 27.875 -1.421875 
Q 17.96875 -1.421875 11.734375 6.484375 
Q 5.515625 14.40625 5.515625 27.296875 
Q 5.515625 40.1875 11.734375 48.09375 
Q 17.96875 56 27.875 56 
Q 33.9375 56 38.25 53.625 
Q 42.578125 51.265625 45.40625 46.390625 
z
M 14.796875 27.296875 
Q 14.796875 17.390625 18.875 11.75 
Q 22.953125 6.109375 30.078125 6.109375 
Q 37.203125 6.109375 41.296875 11.75 
Q 45.40625 17.390625 45.40625 27.296875 
Q 45.40625 37.203125 41.296875 42.84375 
Q 37.203125 48.484375 30.078125 48.484375 
Q 22.953125 48.484375 18.875 42.84375 
Q 14.796875 37.203125 14.796875 27.296875 
z
" id="DejaVuSans-100"/>
      <path d="M 44.28125 53.078125 
L 44.28125 44.578125 
Q 40.484375 46.53125 36.375 47.5 
Q 32.28125 48.484375 27.875 48.484375 
Q 21.1875 48.484375 17.84375 46.4375 
Q 14.5 44.390625 14.5 40.28125 
Q 14.5 37.15625 16.890625 35.375 
Q 19.28125 33.59375 26.515625 31.984375 
L 29.59375 31.296875 
Q 39.15625 29.25 43.1875 25.515625 
Q 47.21875 21.78125 47.21875 15.09375 
Q 47.21875 7.46875 41.1875 3.015625 
Q 35.15625 -1.421875 24.609375 -1.421875 
Q 20.21875 -1.421875 15.453125 -0.5625 
Q 10.6875 0.296875 5.421875 2 
L 5.421875 11.28125 
Q 10.40625 8.6875 15.234375 7.390625 
Q 20.0625 6.109375 24.8125 6.109375 
Q 31.15625 6.109375 34.5625 8.28125 
Q 37.984375 10.453125 37.984375 14.40625 
Q 37.984375 18.0625 35.515625 20.015625 
Q 33.0625 21.96875 24.703125 23.78125 
L 21.578125 24.515625 
Q 13.234375 26.265625 9.515625 29.90625 
Q 5.8125 33.546875 5.8125 39.890625 
Q 5.8125 47.609375 11.28125 51.796875 
Q 16.75 56 26.8125 56 
Q 31.78125 56 36.171875 55.265625 
Q 40.578125 54.546875 44.28125 53.078125 
z
" id="DejaVuSans-115"/>
     </defs>
     <g transform="translate(217.168594 335.860562)scale(0.1 -0.1)">
      <use xlink:href="#DejaVuSans-116"/>
      <use x="39.208984" xlink:href="#DejaVuSans-104"/>
      <use x="102.587891" xlink:href="#DejaVuSans-114"/>
      <use x="141.451172" xlink:href="#DejaVuSans-101"/>
      <use x="202.974609" xlink:href="#DejaVuSans-97"/>
      <use x="264.253906" xlink:href="#DejaVuSans-100"/>
      <use x="327.730469" xlink:href="#DejaVuSans-115"/>
     </g>
    </g>
   </g>
   <g id="matplotlib.axis_2">
    <g id="ytick_1">
     <g id="line2d_47">
      <path clip-path="url(#pe2a796277f)" d="M 57.6 271.701563 
L 414.72 271.701563 
" style="fill:none;stroke:#b0b0b0;stroke-dasharray:5.12,1.28,0.8,1.28;stroke-dashoffset:0;stroke-width:0.8;"/>
     </g>
     <g id="line2d_48">
      <defs>
       <path d="M 0 0 
L -3.5 0 
" id="m7dccafe57a" style="stroke:#000000;stroke-width:0.8;"/>
      </defs>
      <g>
       <use style="stroke:#000000;stroke-width:0.8;" x="57.6" xlink:href="#m7dccafe57a" y="271.701563"/>
      </g>
     </g>
     <g id="text_25">
      <!-- 1.0 -->
      <defs>
       <path d="M 10.6875 12.40625 
L 21 12.40625 
L 21 0 
L 10.6875 0 
z
" id="DejaVuSans-46"/>
      </defs>
      <g transform="translate(34.696875 275.500782)scale(0.1 -0.1)">
       <use xlink:href="#DejaVuSans-49"/>
       <use x="63.623047" xlink:href="#DejaVuSans-46"/>
       <use x="95.410156" xlink:href="#DejaVuSans-48"/>
      </g>
     </g>
    </g>
    <g id="ytick_2">
     <g id="line2d_49">
      <path clip-path="url(#pe2a796277f)" d="M 57.6 217.967088 
L 414.72 217.967088 
" style="fill:none;stroke:#b0b0b0;stroke-dasharray:5.12,1.28,0.8,1.28;stroke-dashoffset:0;stroke-width:0.8;"/>
     </g>
     <g id="line2d_50">
      <g>
       <use style="stroke:#000000;stroke-width:0.8;" x="57.6" xlink:href="#m7dccafe57a" y="217.967088"/>
      </g>
     </g>
     <g id="text_26">
      <!-- 1.5 -->
      <g transform="translate(34.696875 221.766307)scale(0.1 -0.1)">
       <use xlink:href="#DejaVuSans-49"/>
       <use x="63.623047" xlink:href="#DejaVuSans-46"/>
       <use x="95.410156" xlink:href="#DejaVuSans-53"/>
      </g>
     </g>
    </g>
    <g id="ytick_3">
     <g id="line2d_51">
      <path clip-path="url(#pe2a796277f)" d="M 57.6 164.232613 
L 414.72 164.232613 
" style="fill:none;stroke:#b0b0b0;stroke-dasharray:5.12,1.28,0.8,1.28;stroke-dashoffset:0;stroke-width:0.8;"/>
     </g>
     <g id="line2d_52">
      <g>
       <use style="stroke:#000000;stroke-width:0.8;" x="57.6" xlink:href="#m7dccafe57a" y="164.232613"/>
      </g>
     </g>
     <g id="text_27">
      <!-- 2.0 -->
      <g transform="translate(34.696875 168.031832)scale(0.1 -0.1)">
       <use xlink:href="#DejaVuSans-50"/>
       <use x="63.623047" xlink:href="#DejaVuSans-46"/>
       <use x="95.410156" xlink:href="#DejaVuSans-48"/>
      </g>
     </g>
    </g>
    <g id="ytick_4">
     <g id="line2d_53">
      <path clip-path="url(#pe2a796277f)" d="M 57.6 110.498138 
L 414.72 110.498138 
" style="fill:none;stroke:#b0b0b0;stroke-dasharray:5.12,1.28,0.8,1.28;stroke-dashoffset:0;stroke-width:0.8;"/>
     </g>
     <g id="line2d_54">
      <g>
       <use style="stroke:#000000;stroke-width:0.8;" x="57.6" xlink:href="#m7dccafe57a" y="110.498138"/>
      </g>
     </g>
     <g id="text_28">
      <!-- 2.5 -->
      <g transform="translate(34.696875 114.297357)scale(0.1 -0.1)">
       <use xlink:href="#DejaVuSans-50"/>
       <use x="63.623047" xlink:href="#DejaVuSans-46"/>
       <use x="95.410156" xlink:href="#DejaVuSans-53"/>
      </g>
     </g>
    </g>
    <g id="ytick_5">
     <g id="line2d_55">
      <path clip-path="url(#pe2a796277f)" d="M 57.6 56.763664 
L 414.72 56.763664 
" style="fill:none;stroke:#b0b0b0;stroke-dasharray:5.12,1.28,0.8,1.28;stroke-dashoffset:0;stroke-width:0.8;"/>
     </g>
     <g id="line2d_56">
      <g>
       <use style="stroke:#000000;stroke-width:0.8;" x="57.6" xlink:href="#m7dccafe57a" y="56.763664"/>
      </g>
     </g>
     <g id="text_29">
      <!-- 3.0 -->
      <g transform="translate(34.696875 60.562882)scale(0.1 -0.1)">
       <use xlink:href="#DejaVuSans-51"/>
       <use x="63.623047" xlink:href="#DejaVuSans-46"/>
       <use x="95.410156" xlink:href="#DejaVuSans-48"/>
      </g>
     </g>
    </g>
    <g id="text_30">
     <!-- speed up -->
     <defs>
      <path d="M 18.109375 8.203125 
L 18.109375 -20.796875 
L 9.078125 -20.796875 
L 9.078125 54.6875 
L 18.109375 54.6875 
L 18.109375 46.390625 
Q 20.953125 51.265625 25.265625 53.625 
Q 29.59375 56 35.59375 56 
Q 45.5625 56 51.78125 48.09375 
Q 58.015625 40.1875 58.015625 27.296875 
Q 58.015625 14.40625 51.78125 6.484375 
Q 45.5625 -1.421875 35.59375 -1.421875 
Q 29.59375 -1.421875 25.265625 0.953125 
Q 20.953125 3.328125 18.109375 8.203125 
z
M 48.6875 27.296875 
Q 48.6875 37.203125 44.609375 42.84375 
Q 40.53125 48.484375 33.40625 48.484375 
Q 26.265625 48.484375 22.1875 42.84375 
Q 18.109375 37.203125 18.109375 27.296875 
Q 18.109375 17.390625 22.1875 11.75 
Q 26.265625 6.109375 33.40625 6.109375 
Q 40.53125 6.109375 44.609375 11.75 
Q 48.6875 17.390625 48.6875 27.296875 
z
" id="DejaVuSans-112"/>
      <path id="DejaVuSans-32"/>
      <path d="M 8.5 21.578125 
L 8.5 54.6875 
L 17.484375 54.6875 
L 17.484375 21.921875 
Q 17.484375 14.15625 20.5 10.265625 
Q 23.53125 6.390625 29.59375 6.390625 
Q 36.859375 6.390625 41.078125 11.03125 
Q 45.3125 15.671875 45.3125 23.6875 
L 45.3125 54.6875 
L 54.296875 54.6875 
L 54.296875 0 
L 45.3125 0 
L 45.3125 8.40625 
Q 42.046875 3.421875 37.71875 1 
Q 33.40625 -1.421875 27.6875 -1.421875 
Q 18.265625 -1.421875 13.375 4.4375 
Q 8.5 10.296875 8.5 21.578125 
z
M 31.109375 56 
z
" id="DejaVuSans-117"/>
     </defs>
     <g transform="translate(28.617187 197.566281)rotate(-90)scale(0.1 -0.1)">
      <use xlink:href="#DejaVuSans-115"/>
      <use x="52.099609" xlink:href="#DejaVuSans-112"/>
      <use x="115.576172" xlink:href="#DejaVuSans-101"/>
      <use x="177.099609" xlink:href="#DejaVuSans-101"/>
      <use x="238.623047" xlink:href="#DejaVuSans-100"/>
      <use x="302.099609" xlink:href="#DejaVuSans-32"/>
      <use x="333.886719" xlink:href="#DejaVuSans-117"/>
      <use x="397.265625" xlink:href="#DejaVuSans-112"/>
     </g>
    </g>
   </g>
   <g id="line2d_57">
    <path clip-path="url(#pe2a796277f)" d="M 61.612584 280.15707 
L 65.625169 239.920299 
L 69.637753 204.552152 
L 73.650337 174.925067 
L 77.662921 153.624206 
L 81.675506 136.502853 
L 85.68809 123.746149 
L 89.700674 111.848714 
L 93.713258 106.690675 
L 97.725843 100.714888 
L 101.738427 98.260704 
L 105.751011 94.032481 
L 109.763596 73.83456 
L 113.77618 67.54506 
L 117.788764 62.546024 
L 121.801348 55.827748 
L 125.813933 62.318573 
L 129.826517 63.022221 
L 133.839101 53.568 
L 137.851685 57.393358 
L 141.86427 58.86154 
L 145.876854 55.085739 
L 149.889438 54.365838 
L 153.902022 59.879858 
L 157.914607 60.379836 
L 161.927191 62.408666 
L 165.939775 61.465205 
L 169.95236 67.08246 
L 173.964944 66.71913 
L 177.977528 69.645606 
L 181.990112 68.216024 
L 186.002697 68.564381 
L 190.015281 69.699181 
L 194.027865 69.423873 
L 198.040449 74.340291 
L 202.053034 78.740621 
L 206.065618 81.99704 
L 210.078202 74.004573 
L 214.090787 84.089684 
L 218.103371 82.972268 
L 222.115955 84.55134 
L 226.128539 84.012347 
L 230.141124 88.044295 
L 234.153708 86.820222 
L 238.166292 82.851325 
L 242.178876 81.949927 
L 246.191461 81.912286 
L 250.204045 81.9119 
L 254.216629 81.923814 
L 258.229213 81.993732 
L 262.241798 81.769635 
L 266.254382 82.236014 
L 270.266966 82.178873 
L 274.279551 82.915521 
L 278.292135 81.814459 
L 282.304719 81.704251 
L 286.317303 82.746957 
L 290.329888 81.909887 
L 294.342472 83.454375 
L 298.355056 81.553548 
L 302.36764 82.864424 
L 306.380225 88.379516 
L 310.392809 81.502423 
L 314.405393 87.727893 
L 318.417978 91.450772 
L 322.430562 98.646158 
L 326.443146 83.678912 
L 330.45573 86.427615 
L 334.468315 83.930099 
L 338.480899 85.564047 
L 342.493483 82.771747 
L 346.506067 83.707061 
L 350.518652 79.972213 
L 354.531236 83.285386 
L 358.54382 86.567811 
L 362.556404 95.262046 
L 366.568989 98.662932 
L 370.581573 89.753871 
L 374.594157 93.719889 
L 378.606742 85.303667 
L 382.619326 97.642716 
L 386.63191 98.386772 
L 390.644494 93.355653 
L 394.657079 89.453856 
L 398.669663 93.547512 
L 402.682247 90.454557 
L 406.694831 101.992993 
L 410.707416 95.076011 
" style="fill:none;stroke:#0000ff;stroke-dasharray:1.5,2.475;stroke-dashoffset:0;stroke-width:1.5;"/>
    <defs>
     <path d="M 0 1.5 
C 0.397805 1.5 0.77937 1.341951 1.06066 1.06066 
C 1.341951 0.77937 1.5 0.397805 1.5 0 
C 1.5 -0.397805 1.341951 -0.77937 1.06066 -1.06066 
C 0.77937 -1.341951 0.397805 -1.5 0 -1.5 
C -0.397805 -1.5 -0.77937 -1.341951 -1.06066 -1.06066 
C -1.341951 -0.77937 -1.5 -0.397805 -1.5 0 
C -1.5 0.397805 -1.341951 0.77937 -1.06066 1.06066 
C -0.77937 1.341951 -0.397805 1.5 0 1.5 
z
" id="m3479471ff7" style="stroke:#0000ff;"/>
    </defs>
    <g clip-path="url(#pe2a796277f)">
     <use style="fill:#0000ff;stroke:#0000ff;" x="61.612584" xlink:href="#m3479471ff7" y="280.15707"/>
     <use style="fill:#0000ff;stroke:#0000ff;" x="65.625169" xlink:href="#m3479471ff7" y="239.920299"/>
     <use style="fill:#0000ff;stroke:#0000ff;" x="69.637753" xlink:href="#m3479471ff7" y="204.552152"/>
     <use style="fill:#0000ff;stroke:#0000ff;" x="73.650337" xlink:href="#m3479471ff7" y="174.925067"/>
     <use style="fill:#0000ff;stroke:#0000ff;" x="77.662921" xlink:href="#m3479471ff7" y="153.624206"/>
     <use style="fill:#0000ff;stroke:#0000ff;" x="81.675506" xlink:href="#m3479471ff7" y="136.502853"/>
     <use style="fill:#0000ff;stroke:#0000ff;" x="85.68809" xlink:href="#m3479471ff7" y="123.746149"/>
     <use style="fill:#0000ff;stroke:#0000ff;" x="89.700674" xlink:href="#m3479471ff7" y="111.848714"/>
     <use style="fill:#0000ff;stroke:#0000ff;" x="93.713258" xlink:href="#m3479471ff7" y="106.690675"/>
     <use style="fill:#0000ff;stroke:#0000ff;" x="97.725843" xlink:href="#m3479471ff7" y="100.714888"/>
     <use style="fill:#0000ff;stroke:#0000ff;" x="101.738427" xlink:href="#m3479471ff7" y="98.260704"/>
     <use style="fill:#0000ff;stroke:#0000ff;" x="105.751011" xlink:href="#m3479471ff7" y="94.032481"/>
     <use style="fill:#0000ff;stroke:#0000ff;" x="109.763596" xlink:href="#m3479471ff7" y="73.83456"/>
     <use style="fill:#0000ff;stroke:#0000ff;" x="113.77618" xlink:href="#m3479471ff7" y="67.54506"/>
     <use style="fill:#0000ff;stroke:#0000ff;" x="117.788764" xlink:href="#m3479471ff7" y="62.546024"/>
     <use style="fill:#0000ff;stroke:#0000ff;" x="121.801348" xlink:href="#m3479471ff7" y="55.827748"/>
     <use style="fill:#0000ff;stroke:#0000ff;" x="125.813933" xlink:href="#m3479471ff7" y="62.318573"/>
     <use style="fill:#0000ff;stroke:#0000ff;" x="129.826517" xlink:href="#m3479471ff7" y="63.022221"/>
     <use style="fill:#0000ff;stroke:#0000ff;" x="133.839101" xlink:href="#m3479471ff7" y="53.568"/>
     <use style="fill:#0000ff;stroke:#0000ff;" x="137.851685" xlink:href="#m3479471ff7" y="57.393358"/>
     <use style="fill:#0000ff;stroke:#0000ff;" x="141.86427" xlink:href="#m3479471ff7" y="58.86154"/>
     <use style="fill:#0000ff;stroke:#0000ff;" x="145.876854" xlink:href="#m3479471ff7" y="55.085739"/>
     <use style="fill:#0000ff;stroke:#0000ff;" x="149.889438" xlink:href="#m3479471ff7" y="54.365838"/>
     <use style="fill:#0000ff;stroke:#0000ff;" x="153.902022" xlink:href="#m3479471ff7" y="59.879858"/>
     <use style="fill:#0000ff;stroke:#0000ff;" x="157.914607" xlink:href="#m3479471ff7" y="60.379836"/>
     <use style="fill:#0000ff;stroke:#0000ff;" x="161.927191" xlink:href="#m3479471ff7" y="62.408666"/>
     <use style="fill:#0000ff;stroke:#0000ff;" x="165.939775" xlink:href="#m3479471ff7" y="61.465205"/>
     <use style="fill:#0000ff;stroke:#0000ff;" x="169.95236" xlink:href="#m3479471ff7" y="67.08246"/>
     <use style="fill:#0000ff;stroke:#0000ff;" x="173.964944" xlink:href="#m3479471ff7" y="66.71913"/>
     <use style="fill:#0000ff;stroke:#0000ff;" x="177.977528" xlink:href="#m3479471ff7" y="69.645606"/>
     <use style="fill:#0000ff;stroke:#0000ff;" x="181.990112" xlink:href="#m3479471ff7" y="68.216024"/>
     <use style="fill:#0000ff;stroke:#0000ff;" x="186.002697" xlink:href="#m3479471ff7" y="68.564381"/>
     <use style="fill:#0000ff;stroke:#0000ff;" x="190.015281" xlink:href="#m3479471ff7" y="69.699181"/>
     <use style="fill:#0000ff;stroke:#0000ff;" x="194.027865" xlink:href="#m3479471ff7" y="69.423873"/>
     <use style="fill:#0000ff;stroke:#0000ff;" x="198.040449" xlink:href="#m3479471ff7" y="74.340291"/>
     <use style="fill:#0000ff;stroke:#0000ff;" x="202.053034" xlink:href="#m3479471ff7" y="78.740621"/>
     <use style="fill:#0000ff;stroke:#0000ff;" x="206.065618" xlink:href="#m3479471ff7" y="81.99704"/>
     <use style="fill:#0000ff;stroke:#0000ff;" x="210.078202" xlink:href="#m3479471ff7" y="74.004573"/>
     <use style="fill:#0000ff;stroke:#0000ff;" x="214.090787" xlink:href="#m3479471ff7" y="84.089684"/>
     <use style="fill:#0000ff;stroke:#0000ff;" x="218.103371" xlink:href="#m3479471ff7" y="82.972268"/>
     <use style="fill:#0000ff;stroke:#0000ff;" x="222.115955" xlink:href="#m3479471ff7" y="84.55134"/>
     <use style="fill:#0000ff;stroke:#0000ff;" x="226.128539" xlink:href="#m3479471ff7" y="84.012347"/>
     <use style="fill:#0000ff;stroke:#0000ff;" x="230.141124" xlink:href="#m3479471ff7" y="88.044295"/>
     <use style="fill:#0000ff;stroke:#0000ff;" x="234.153708" xlink:href="#m3479471ff7" y="86.820222"/>
     <use style="fill:#0000ff;stroke:#0000ff;" x="238.166292" xlink:href="#m3479471ff7" y="82.851325"/>
     <use style="fill:#0000ff;stroke:#0000ff;" x="242.178876" xlink:href="#m3479471ff7" y="81.949927"/>
     <use style="fill:#0000ff;stroke:#0000ff;" x="246.191461" xlink:href="#m3479471ff7" y="81.912286"/>
     <use style="fill:#0000ff;stroke:#0000ff;" x="250.204045" xlink:href="#m3479471ff7" y="81.9119"/>
     <use style="fill:#0000ff;stroke:#0000ff;" x="254.216629" xlink:href="#m3479471ff7" y="81.923814"/>
     <use style="fill:#0000ff;stroke:#0000ff;" x="258.229213" xlink:href="#m3479471ff7" y="81.993732"/>
     <use style="fill:#0000ff;stroke:#0000ff;" x="262.241798" xlink:href="#m3479471ff7" y="81.769635"/>
     <use style="fill:#0000ff;stroke:#0000ff;" x="266.254382" xlink:href="#m3479471ff7" y="82.236014"/>
     <use style="fill:#0000ff;stroke:#0000ff;" x="270.266966" xlink:href="#m3479471ff7" y="82.178873"/>
     <use style="fill:#0000ff;stroke:#0000ff;" x="274.279551" xlink:href="#m3479471ff7" y="82.915521"/>
     <use style="fill:#0000ff;stroke:#0000ff;" x="278.292135" xlink:href="#m3479471ff7" y="81.814459"/>
     <use style="fill:#0000ff;stroke:#0000ff;" x="282.304719" xlink:href="#m3479471ff7" y="81.704251"/>
     <use style="fill:#0000ff;stroke:#0000ff;" x="286.317303" xlink:href="#m3479471ff7" y="82.746957"/>
     <use style="fill:#0000ff;stroke:#0000ff;" x="290.329888" xlink:href="#m3479471ff7" y="81.909887"/>
     <use style="fill:#0000ff;stroke:#0000ff;" x="294.342472" xlink:href="#m3479471ff7" y="83.454375"/>
     <use style="fill:#0000ff;stroke:#0000ff;" x="298.355056" xlink:href="#m3479471ff7" y="81.553548"/>
     <use style="fill:#0000ff;stroke:#0000ff;" x="302.36764" xlink:href="#m3479471ff7" y="82.864424"/>
     <use style="fill:#0000ff;stroke:#0000ff;" x="306.380225" xlink:href="#m3479471ff7" y="88.379516"/>
     <use style="fill:#0000ff;stroke:#0000ff;" x="310.392809" xlink:href="#m3479471ff7" y="81.502423"/>
     <use style="fill:#0000ff;stroke:#0000ff;" x="314.405393" xlink:href="#m3479471ff7" y="87.727893"/>
     <use style="fill:#0000ff;stroke:#0000ff;" x="318.417978" xlink:href="#m3479471ff7" y="91.450772"/>
     <use style="fill:#0000ff;stroke:#0000ff;" x="322.430562" xlink:href="#m3479471ff7" y="98.646158"/>
     <use style="fill:#0000ff;stroke:#0000ff;" x="326.443146" xlink:href="#m3479471ff7" y="83.678912"/>
     <use style="fill:#0000ff;stroke:#0000ff;" x="330.45573" xlink:href="#m3479471ff7" y="86.427615"/>
     <use style="fill:#0000ff;stroke:#0000ff;" x="334.468315" xlink:href="#m3479471ff7" y="83.930099"/>
     <use style="fill:#0000ff;stroke:#0000ff;" x="338.480899" xlink:href="#m3479471ff7" y="85.564047"/>
     <use style="fill:#0000ff;stroke:#0000ff;" x="342.493483" xlink:href="#m3479471ff7" y="82.771747"/>
     <use style="fill:#0000ff;stroke:#0000ff;" x="346.506067" xlink:href="#m3479471ff7" y="83.707061"/>
     <use style="fill:#0000ff;stroke:#0000ff;" x="350.518652" xlink:href="#m3479471ff7" y="79.972213"/>
     <use style="fill:#0000ff;stroke:#0000ff;" x="354.531236" xlink:href="#m3479471ff7" y="83.285386"/>
     <use style="fill:#0000ff;stroke:#0000ff;" x="358.54382" xlink:href="#m3479471ff7" y="86.567811"/>
     <use style="fill:#0000ff;stroke:#0000ff;" x="362.556404" xlink:href="#m3479471ff7" y="95.262046"/>
     <use style="fill:#0000ff;stroke:#0000ff;" x="366.568989" xlink:href="#m3479471ff7" y="98.662932"/>
     <use style="fill:#0000ff;stroke:#0000ff;" x="370.581573" xlink:href="#m3479471ff7" y="89.753871"/>
     <use style="fill:#0000ff;stroke:#0000ff;" x="374.594157" xlink:href="#m3479471ff7" y="93.719889"/>
     <use style="fill:#0000ff;stroke:#0000ff;" x="378.606742" xlink:href="#m3479471ff7" y="85.303667"/>
     <use style="fill:#0000ff;stroke:#0000ff;" x="382.619326" xlink:href="#m3479471ff7" y="97.642716"/>
     <use style="fill:#0000ff;stroke:#0000ff;" x="386.63191" xlink:href="#m3479471ff7" y="98.386772"/>
     <use style="fill:#0000ff;stroke:#0000ff;" x="390.644494" xlink:href="#m3479471ff7" y="93.355653"/>
     <use style="fill:#0000ff;stroke:#0000ff;" x="394.657079" xlink:href="#m3479471ff7" y="89.453856"/>
     <use style="fill:#0000ff;stroke:#0000ff;" x="398.669663" xlink:href="#m3479471ff7" y="93.547512"/>
     <use style="fill:#0000ff;stroke:#0000ff;" x="402.682247" xlink:href="#m3479471ff7" y="90.454557"/>
     <use style="fill:#0000ff;stroke:#0000ff;" x="406.694831" xlink:href="#m3479471ff7" y="101.992993"/>
     <use style="fill:#0000ff;stroke:#0000ff;" x="410.707416" xlink:href="#m3479471ff7" y="95.076011"/>
    </g>
   </g>
   <g id="line2d_58">
    <path clip-path="url(#pe2a796277f)" d="M 61.612584 295.488 
L 65.625169 267.970061 
L 69.637753 248.315758 
L 73.650337 232.060557 
L 77.662921 225.804083 
L 81.675506 219.881824 
L 85.68809 217.364904 
L 89.700674 217.822928 
L 93.713258 218.388362 
L 97.725843 219.565645 
L 101.738427 221.024771 
L 105.751011 223.524344 
L 109.763596 230.862924 
L 113.77618 228.437628 
L 117.788764 230.361364 
L 121.801348 230.192175 
L 125.813933 234.136292 
L 129.826517 240.087643 
L 133.839101 239.89091 
L 137.851685 242.961644 
L 141.86427 245.026693 
L 145.876854 247.046101 
L 149.889438 249.964846 
L 153.902022 251.879646 
L 157.914607 254.107629 
L 161.927191 256.375541 
L 165.939775 258.733505 
L 169.95236 260.951312 
L 173.964944 263.866734 
L 177.977528 264.349535 
L 181.990112 266.410127 
L 186.002697 268.35501 
L 190.015281 269.212483 
L 194.027865 270.490077 
L 198.040449 272.504864 
L 202.053034 274.632304 
L 206.065618 275.730021 
L 210.078202 276.713211 
L 214.090787 279.166977 
L 218.103371 280.830877 
L 222.115955 282.113231 
L 226.128539 284.199275 
L 230.141124 284.780877 
L 234.153708 285.407314 
L 238.166292 285.341385 
L 242.178876 285.112771 
L 246.191461 285.138327 
L 250.204045 285.03796 
L 254.216629 285.016117 
L 258.229213 285.090469 
L 262.241798 285.120954 
L 266.254382 285.161551 
L 270.266966 285.174638 
L 274.279551 285.125699 
L 278.292135 285.130697 
L 282.304719 285.196679 
L 286.317303 285.081402 
L 290.329888 285.325741 
L 294.342472 285.415404 
L 298.355056 285.132252 
L 302.36764 285.096795 
L 306.380225 286.040578 
L 310.392809 285.553091 
L 314.405393 285.193225 
L 318.417978 286.196172 
L 322.430562 287.289841 
L 326.443146 287.401754 
L 330.45573 286.484993 
L 334.468315 285.054307 
L 338.480899 285.320625 
L 342.493483 285.053638 
L 346.506067 284.836737 
L 350.518652 284.651165 
L 354.531236 284.925955 
L 358.54382 287.490763 
L 362.556404 287.136723 
L 366.568989 287.477019 
L 370.581573 286.9856 
L 374.594157 286.078762 
L 378.606742 287.142481 
L 382.619326 288.567931 
L 386.63191 288.359008 
L 390.644494 286.846572 
L 394.657079 286.348301 
L 398.669663 287.321671 
L 402.682247 286.46318 
L 406.694831 288.297054 
L 410.707416 287.638257 
" style="fill:none;stroke:#ff0000;stroke-dasharray:1.5,2.475;stroke-dashoffset:0;stroke-width:1.5;"/>
    <defs>
     <path d="M 0 1.5 
C 0.397805 1.5 0.77937 1.341951 1.06066 1.06066 
C 1.341951 0.77937 1.5 0.397805 1.5 0 
C 1.5 -0.397805 1.341951 -0.77937 1.06066 -1.06066 
C 0.77937 -1.341951 0.397805 -1.5 0 -1.5 
C -0.397805 -1.5 -0.77937 -1.341951 -1.06066 -1.06066 
C -1.341951 -0.77937 -1.5 -0.397805 -1.5 0 
C -1.5 0.397805 -1.341951 0.77937 -1.06066 1.06066 
C -0.77937 1.341951 -0.397805 1.5 0 1.5 
z
" id="m78dce0d651" style="stroke:#ff0000;"/>
    </defs>
    <g clip-path="url(#pe2a796277f)">
     <use style="fill:#ff0000;stroke:#ff0000;" x="61.612584" xlink:href="#m78dce0d651" y="295.488"/>
     <use style="fill:#ff0000;stroke:#ff0000;" x="65.625169" xlink:href="#m78dce0d651" y="267.970061"/>
     <use style="fill:#ff0000;stroke:#ff0000;" x="69.637753" xlink:href="#m78dce0d651" y="248.315758"/>
     <use style="fill:#ff0000;stroke:#ff0000;" x="73.650337" xlink:href="#m78dce0d651" y="232.060557"/>
     <use style="fill:#ff0000;stroke:#ff0000;" x="77.662921" xlink:href="#m78dce0d651" y="225.804083"/>
     <use style="fill:#ff0000;stroke:#ff0000;" x="81.675506" xlink:href="#m78dce0d651" y="219.881824"/>
     <use style="fill:#ff0000;stroke:#ff0000;" x="85.68809" xlink:href="#m78dce0d651" y="217.364904"/>
     <use style="fill:#ff0000;stroke:#ff0000;" x="89.700674" xlink:href="#m78dce0d651" y="217.822928"/>
     <use style="fill:#ff0000;stroke:#ff0000;" x="93.713258" xlink:href="#m78dce0d651" y="218.388362"/>
     <use style="fill:#ff0000;stroke:#ff0000;" x="97.725843" xlink:href="#m78dce0d651" y="219.565645"/>
     <use style="fill:#ff0000;stroke:#ff0000;" x="101.738427" xlink:href="#m78dce0d651" y="221.024771"/>
     <use style="fill:#ff0000;stroke:#ff0000;" x="105.751011" xlink:href="#m78dce0d651" y="223.524344"/>
     <use style="fill:#ff0000;stroke:#ff0000;" x="109.763596" xlink:href="#m78dce0d651" y="230.862924"/>
     <use style="fill:#ff0000;stroke:#ff0000;" x="113.77618" xlink:href="#m78dce0d651" y="228.437628"/>
     <use style="fill:#ff0000;stroke:#ff0000;" x="117.788764" xlink:href="#m78dce0d651" y="230.361364"/>
     <use style="fill:#ff0000;stroke:#ff0000;" x="121.801348" xlink:href="#m78dce0d651" y="230.192175"/>
     <use style="fill:#ff0000;stroke:#ff0000;" x="125.813933" xlink:href="#m78dce0d651" y="234.136292"/>
     <use style="fill:#ff0000;stroke:#ff0000;" x="129.826517" xlink:href="#m78dce0d651" y="240.087643"/>
     <use style="fill:#ff0000;stroke:#ff0000;" x="133.839101" xlink:href="#m78dce0d651" y="239.89091"/>
     <use style="fill:#ff0000;stroke:#ff0000;" x="137.851685" xlink:href="#m78dce0d651" y="242.961644"/>
     <use style="fill:#ff0000;stroke:#ff0000;" x="141.86427" xlink:href="#m78dce0d651" y="245.026693"/>
     <use style="fill:#ff0000;stroke:#ff0000;" x="145.876854" xlink:href="#m78dce0d651" y="247.046101"/>
     <use style="fill:#ff0000;stroke:#ff0000;" x="149.889438" xlink:href="#m78dce0d651" y="249.964846"/>
     <use style="fill:#ff0000;stroke:#ff0000;" x="153.902022" xlink:href="#m78dce0d651" y="251.879646"/>
     <use style="fill:#ff0000;stroke:#ff0000;" x="157.914607" xlink:href="#m78dce0d651" y="254.107629"/>
     <use style="fill:#ff0000;stroke:#ff0000;" x="161.927191" xlink:href="#m78dce0d651" y="256.375541"/>
     <use style="fill:#ff0000;stroke:#ff0000;" x="165.939775" xlink:href="#m78dce0d651" y="258.733505"/>
     <use style="fill:#ff0000;stroke:#ff0000;" x="169.95236" xlink:href="#m78dce0d651" y="260.951312"/>
     <use style="fill:#ff0000;stroke:#ff0000;" x="173.964944" xlink:href="#m78dce0d651" y="263.866734"/>
     <use style="fill:#ff0000;stroke:#ff0000;" x="177.977528" xlink:href="#m78dce0d651" y="264.349535"/>
     <use style="fill:#ff0000;stroke:#ff0000;" x="181.990112" xlink:href="#m78dce0d651" y="266.410127"/>
     <use style="fill:#ff0000;stroke:#ff0000;" x="186.002697" xlink:href="#m78dce0d651" y="268.35501"/>
     <use style="fill:#ff0000;stroke:#ff0000;" x="190.015281" xlink:href="#m78dce0d651" y="269.212483"/>
     <use style="fill:#ff0000;stroke:#ff0000;" x="194.027865" xlink:href="#m78dce0d651" y="270.490077"/>
     <use style="fill:#ff0000;stroke:#ff0000;" x="198.040449" xlink:href="#m78dce0d651" y="272.504864"/>
     <use style="fill:#ff0000;stroke:#ff0000;" x="202.053034" xlink:href="#m78dce0d651" y="274.632304"/>
     <use style="fill:#ff0000;stroke:#ff0000;" x="206.065618" xlink:href="#m78dce0d651" y="275.730021"/>
     <use style="fill:#ff0000;stroke:#ff0000;" x="210.078202" xlink:href="#m78dce0d651" y="276.713211"/>
     <use style="fill:#ff0000;stroke:#ff0000;" x="214.090787" xlink:href="#m78dce0d651" y="279.166977"/>
     <use style="fill:#ff0000;stroke:#ff0000;" x="218.103371" xlink:href="#m78dce0d651" y="280.830877"/>
     <use style="fill:#ff0000;stroke:#ff0000;" x="222.115955" xlink:href="#m78dce0d651" y="282.113231"/>
     <use style="fill:#ff0000;stroke:#ff0000;" x="226.128539" xlink:href="#m78dce0d651" y="284.199275"/>
     <use style="fill:#ff0000;stroke:#ff0000;" x="230.141124" xlink:href="#m78dce0d651" y="284.780877"/>
     <use style="fill:#ff0000;stroke:#ff0000;" x="234.153708" xlink:href="#m78dce0d651" y="285.407314"/>
     <use style="fill:#ff0000;stroke:#ff0000;" x="238.166292" xlink:href="#m78dce0d651" y="285.341385"/>
     <use style="fill:#ff0000;stroke:#ff0000;" x="242.178876" xlink:href="#m78dce0d651" y="285.112771"/>
     <use style="fill:#ff0000;stroke:#ff0000;" x="246.191461" xlink:href="#m78dce0d651" y="285.138327"/>
     <use style="fill:#ff0000;stroke:#ff0000;" x="250.204045" xlink:href="#m78dce0d651" y="285.03796"/>
     <use style="fill:#ff0000;stroke:#ff0000;" x="254.216629" xlink:href="#m78dce0d651" y="285.016117"/>
     <use style="fill:#ff0000;stroke:#ff0000;" x="258.229213" xlink:href="#m78dce0d651" y="285.090469"/>
     <use style="fill:#ff0000;stroke:#ff0000;" x="262.241798" xlink:href="#m78dce0d651" y="285.120954"/>
     <use style="fill:#ff0000;stroke:#ff0000;" x="266.254382" xlink:href="#m78dce0d651" y="285.161551"/>
     <use style="fill:#ff0000;stroke:#ff0000;" x="270.266966" xlink:href="#m78dce0d651" y="285.174638"/>
     <use style="fill:#ff0000;stroke:#ff0000;" x="274.279551" xlink:href="#m78dce0d651" y="285.125699"/>
     <use style="fill:#ff0000;stroke:#ff0000;" x="278.292135" xlink:href="#m78dce0d651" y="285.130697"/>
     <use style="fill:#ff0000;stroke:#ff0000;" x="282.304719" xlink:href="#m78dce0d651" y="285.196679"/>
     <use style="fill:#ff0000;stroke:#ff0000;" x="286.317303" xlink:href="#m78dce0d651" y="285.081402"/>
     <use style="fill:#ff0000;stroke:#ff0000;" x="290.329888" xlink:href="#m78dce0d651" y="285.325741"/>
     <use style="fill:#ff0000;stroke:#ff0000;" x="294.342472" xlink:href="#m78dce0d651" y="285.415404"/>
     <use style="fill:#ff0000;stroke:#ff0000;" x="298.355056" xlink:href="#m78dce0d651" y="285.132252"/>
     <use style="fill:#ff0000;stroke:#ff0000;" x="302.36764" xlink:href="#m78dce0d651" y="285.096795"/>
     <use style="fill:#ff0000;stroke:#ff0000;" x="306.380225" xlink:href="#m78dce0d651" y="286.040578"/>
     <use style="fill:#ff0000;stroke:#ff0000;" x="310.392809" xlink:href="#m78dce0d651" y="285.553091"/>
     <use style="fill:#ff0000;stroke:#ff0000;" x="314.405393" xlink:href="#m78dce0d651" y="285.193225"/>
     <use style="fill:#ff0000;stroke:#ff0000;" x="318.417978" xlink:href="#m78dce0d651" y="286.196172"/>
     <use style="fill:#ff0000;stroke:#ff0000;" x="322.430562" xlink:href="#m78dce0d651" y="287.289841"/>
     <use style="fill:#ff0000;stroke:#ff0000;" x="326.443146" xlink:href="#m78dce0d651" y="287.401754"/>
     <use style="fill:#ff0000;stroke:#ff0000;" x="330.45573" xlink:href="#m78dce0d651" y="286.484993"/>
     <use style="fill:#ff0000;stroke:#ff0000;" x="334.468315" xlink:href="#m78dce0d651" y="285.054307"/>
     <use style="fill:#ff0000;stroke:#ff0000;" x="338.480899" xlink:href="#m78dce0d651" y="285.320625"/>
     <use style="fill:#ff0000;stroke:#ff0000;" x="342.493483" xlink:href="#m78dce0d651" y="285.053638"/>
     <use style="fill:#ff0000;stroke:#ff0000;" x="346.506067" xlink:href="#m78dce0d651" y="284.836737"/>
     <use style="fill:#ff0000;stroke:#ff0000;" x="350.518652" xlink:href="#m78dce0d651" y="284.651165"/>
     <use style="fill:#ff0000;stroke:#ff0000;" x="354.531236" xlink:href="#m78dce0d651" y="284.925955"/>
     <use style="fill:#ff0000;stroke:#ff0000;" x="358.54382" xlink:href="#m78dce0d651" y="287.490763"/>
     <use style="fill:#ff0000;stroke:#ff0000;" x="362.556404" xlink:href="#m78dce0d651" y="287.136723"/>
     <use style="fill:#ff0000;stroke:#ff0000;" x="366.568989" xlink:href="#m78dce0d651" y="287.477019"/>
     <use style="fill:#ff0000;stroke:#ff0000;" x="370.581573" xlink:href="#m78dce0d651" y="286.9856"/>
     <use style="fill:#ff0000;stroke:#ff0000;" x="374.594157" xlink:href="#m78dce0d651" y="286.078762"/>
     <use style="fill:#ff0000;stroke:#ff0000;" x="378.606742" xlink:href="#m78dce0d651" y="287.142481"/>
     <use style="fill:#ff0000;stroke:#ff0000;" x="382.619326" xlink:href="#m78dce0d651" y="288.567931"/>
     <use style="fill:#ff0000;stroke:#ff0000;" x="386.63191" xlink:href="#m78dce0d651" y="288.359008"/>
     <use style="fill:#ff0000;stroke:#ff0000;" x="390.644494" xlink:href="#m78dce0d651" y="286.846572"/>
     <use style="fill:#ff0000;stroke:#ff0000;" x="394.657079" xlink:href="#m78dce0d651" y="286.348301"/>
     <use style="fill:#ff0000;stroke:#ff0000;" x="398.669663" xlink:href="#m78dce0d651" y="287.321671"/>
     <use style="fill:#ff0000;stroke:#ff0000;" x="402.682247" xlink:href="#m78dce0d651" y="286.46318"/>
     <use style="fill:#ff0000;stroke:#ff0000;" x="406.694831" xlink:href="#m78dce0d651" y="288.297054"/>
     <use style="fill:#ff0000;stroke:#ff0000;" x="410.707416" xlink:href="#m78dce0d651" y="287.638257"/>
    </g>
   </g>
   <g id="line2d_59">
    <path clip-path="url(#pe2a796277f)" d="M 61.612584 287.822535 
L 65.625169 253.94518 
L 69.637753 226.433955 
L 73.650337 203.492812 
L 77.662921 189.714144 
L 81.675506 178.192339 
L 85.68809 170.555527 
L 89.700674 164.835821 
L 93.713258 162.539519 
L 97.725843 160.140266 
L 101.738427 159.642738 
L 105.751011 158.778413 
L 109.763596 152.348742 
L 113.77618 147.991344 
L 117.788764 146.453694 
L 121.801348 143.009962 
L 125.813933 148.227432 
L 129.826517 151.554932 
L 133.839101 146.729455 
L 137.851685 150.177501 
L 141.86427 151.944116 
L 145.876854 151.06592 
L 149.889438 152.165342 
L 153.902022 155.879752 
L 157.914607 157.243733 
L 161.927191 159.392103 
L 165.939775 160.099355 
L 169.95236 164.016886 
L 173.964944 165.292932 
L 177.977528 166.99757 
L 181.990112 167.313075 
L 186.002697 168.459695 
L 190.015281 169.455832 
L 194.027865 169.956975 
L 198.040449 173.422577 
L 202.053034 176.686462 
L 206.065618 178.86353 
L 210.078202 175.358892 
L 214.090787 181.62833 
L 218.103371 181.901573 
L 222.115955 183.332286 
L 226.128539 184.105811 
L 230.141124 186.412586 
L 234.153708 186.113768 
L 238.166292 184.096355 
L 242.178876 183.531349 
L 246.191461 183.525307 
L 250.204045 183.47493 
L 254.216629 183.469966 
L 258.229213 183.542101 
L 262.241798 183.445295 
L 266.254382 183.698782 
L 270.266966 183.676756 
L 274.279551 184.02061 
L 278.292135 183.472578 
L 282.304719 183.450465 
L 286.317303 183.91418 
L 290.329888 183.617814 
L 294.342472 184.43489 
L 298.355056 183.3429 
L 302.36764 183.98061 
L 306.380225 187.210047 
L 310.392809 183.527757 
L 314.405393 186.460559 
L 318.417978 188.823472 
L 322.430562 192.967999 
L 326.443146 185.540333 
L 330.45573 186.456304 
L 334.468315 184.492203 
L 338.480899 185.442336 
L 342.493483 183.912692 
L 346.506067 184.271899 
L 350.518652 182.311689 
L 354.531236 184.10567 
L 358.54382 187.029287 
L 362.556404 191.199385 
L 366.568989 193.069976 
L 370.581573 188.369735 
L 374.594157 189.899326 
L 378.606742 186.223074 
L 382.619326 193.105324 
L 386.63191 193.37289 
L 390.644494 190.101112 
L 394.657079 187.901078 
L 398.669663 190.434592 
L 402.682247 188.458868 
L 406.694831 195.145024 
L 410.707416 191.357134 
" style="fill:none;stroke:#008000;stroke-dasharray:1.5,2.475;stroke-dashoffset:0;stroke-width:1.5;"/>
    <defs>
     <path d="M 0 1.5 
C 0.397805 1.5 0.77937 1.341951 1.06066 1.06066 
C 1.341951 0.77937 1.5 0.397805 1.5 0 
C 1.5 -0.397805 1.341951 -0.77937 1.06066 -1.06066 
C 0.77937 -1.341951 0.397805 -1.5 0 -1.5 
C -0.397805 -1.5 -0.77937 -1.341951 -1.06066 -1.06066 
C -1.341951 -0.77937 -1.5 -0.397805 -1.5 0 
C -1.5 0.397805 -1.341951 0.77937 -1.06066 1.06066 
C -0.77937 1.341951 -0.397805 1.5 0 1.5 
z
" id="m892c1a490a" style="stroke:#008000;"/>
    </defs>
    <g clip-path="url(#pe2a796277f)">
     <use style="fill:#008000;stroke:#008000;" x="61.612584" xlink:href="#m892c1a490a" y="287.822535"/>
     <use style="fill:#008000;stroke:#008000;" x="65.625169" xlink:href="#m892c1a490a" y="253.94518"/>
     <use style="fill:#008000;stroke:#008000;" x="69.637753" xlink:href="#m892c1a490a" y="226.433955"/>
     <use style="fill:#008000;stroke:#008000;" x="73.650337" xlink:href="#m892c1a490a" y="203.492812"/>
     <use style="fill:#008000;stroke:#008000;" x="77.662921" xlink:href="#m892c1a490a" y="189.714144"/>
     <use style="fill:#008000;stroke:#008000;" x="81.675506" xlink:href="#m892c1a490a" y="178.192339"/>
     <use style="fill:#008000;stroke:#008000;" x="85.68809" xlink:href="#m892c1a490a" y="170.555527"/>
     <use style="fill:#008000;stroke:#008000;" x="89.700674" xlink:href="#m892c1a490a" y="164.835821"/>
     <use style="fill:#008000;stroke:#008000;" x="93.713258" xlink:href="#m892c1a490a" y="162.539519"/>
     <use style="fill:#008000;stroke:#008000;" x="97.725843" xlink:href="#m892c1a490a" y="160.140266"/>
     <use style="fill:#008000;stroke:#008000;" x="101.738427" xlink:href="#m892c1a490a" y="159.642738"/>
     <use style="fill:#008000;stroke:#008000;" x="105.751011" xlink:href="#m892c1a490a" y="158.778413"/>
     <use style="fill:#008000;stroke:#008000;" x="109.763596" xlink:href="#m892c1a490a" y="152.348742"/>
     <use style="fill:#008000;stroke:#008000;" x="113.77618" xlink:href="#m892c1a490a" y="147.991344"/>
     <use style="fill:#008000;stroke:#008000;" x="117.788764" xlink:href="#m892c1a490a" y="146.453694"/>
     <use style="fill:#008000;stroke:#008000;" x="121.801348" xlink:href="#m892c1a490a" y="143.009962"/>
     <use style="fill:#008000;stroke:#008000;" x="125.813933" xlink:href="#m892c1a490a" y="148.227432"/>
     <use style="fill:#008000;stroke:#008000;" x="129.826517" xlink:href="#m892c1a490a" y="151.554932"/>
     <use style="fill:#008000;stroke:#008000;" x="133.839101" xlink:href="#m892c1a490a" y="146.729455"/>
     <use style="fill:#008000;stroke:#008000;" x="137.851685" xlink:href="#m892c1a490a" y="150.177501"/>
     <use style="fill:#008000;stroke:#008000;" x="141.86427" xlink:href="#m892c1a490a" y="151.944116"/>
     <use style="fill:#008000;stroke:#008000;" x="145.876854" xlink:href="#m892c1a490a" y="151.06592"/>
     <use style="fill:#008000;stroke:#008000;" x="149.889438" xlink:href="#m892c1a490a" y="152.165342"/>
     <use style="fill:#008000;stroke:#008000;" x="153.902022" xlink:href="#m892c1a490a" y="155.879752"/>
     <use style="fill:#008000;stroke:#008000;" x="157.914607" xlink:href="#m892c1a490a" y="157.243733"/>
     <use style="fill:#008000;stroke:#008000;" x="161.927191" xlink:href="#m892c1a490a" y="159.392103"/>
     <use style="fill:#008000;stroke:#008000;" x="165.939775" xlink:href="#m892c1a490a" y="160.099355"/>
     <use style="fill:#008000;stroke:#008000;" x="169.95236" xlink:href="#m892c1a490a" y="164.016886"/>
     <use style="fill:#008000;stroke:#008000;" x="173.964944" xlink:href="#m892c1a490a" y="165.292932"/>
     <use style="fill:#008000;stroke:#008000;" x="177.977528" xlink:href="#m892c1a490a" y="166.99757"/>
     <use style="fill:#008000;stroke:#008000;" x="181.990112" xlink:href="#m892c1a490a" y="167.313075"/>
     <use style="fill:#008000;stroke:#008000;" x="186.002697" xlink:href="#m892c1a490a" y="168.459695"/>
     <use style="fill:#008000;stroke:#008000;" x="190.015281" xlink:href="#m892c1a490a" y="169.455832"/>
     <use style="fill:#008000;stroke:#008000;" x="194.027865" xlink:href="#m892c1a490a" y="169.956975"/>
     <use style="fill:#008000;stroke:#008000;" x="198.040449" xlink:href="#m892c1a490a" y="173.422577"/>
     <use style="fill:#008000;stroke:#008000;" x="202.053034" xlink:href="#m892c1a490a" y="176.686462"/>
     <use style="fill:#008000;stroke:#008000;" x="206.065618" xlink:href="#m892c1a490a" y="178.86353"/>
     <use style="fill:#008000;stroke:#008000;" x="210.078202" xlink:href="#m892c1a490a" y="175.358892"/>
     <use style="fill:#008000;stroke:#008000;" x="214.090787" xlink:href="#m892c1a490a" y="181.62833"/>
     <use style="fill:#008000;stroke:#008000;" x="218.103371" xlink:href="#m892c1a490a" y="181.901573"/>
     <use style="fill:#008000;stroke:#008000;" x="222.115955" xlink:href="#m892c1a490a" y="183.332286"/>
     <use style="fill:#008000;stroke:#008000;" x="226.128539" xlink:href="#m892c1a490a" y="184.105811"/>
     <use style="fill:#008000;stroke:#008000;" x="230.141124" xlink:href="#m892c1a490a" y="186.412586"/>
     <use style="fill:#008000;stroke:#008000;" x="234.153708" xlink:href="#m892c1a490a" y="186.113768"/>
     <use style="fill:#008000;stroke:#008000;" x="238.166292" xlink:href="#m892c1a490a" y="184.096355"/>
     <use style="fill:#008000;stroke:#008000;" x="242.178876" xlink:href="#m892c1a490a" y="183.531349"/>
     <use style="fill:#008000;stroke:#008000;" x="246.191461" xlink:href="#m892c1a490a" y="183.525307"/>
     <use style="fill:#008000;stroke:#008000;" x="250.204045" xlink:href="#m892c1a490a" y="183.47493"/>
     <use style="fill:#008000;stroke:#008000;" x="254.216629" xlink:href="#m892c1a490a" y="183.469966"/>
     <use style="fill:#008000;stroke:#008000;" x="258.229213" xlink:href="#m892c1a490a" y="183.542101"/>
     <use style="fill:#008000;stroke:#008000;" x="262.241798" xlink:href="#m892c1a490a" y="183.445295"/>
     <use style="fill:#008000;stroke:#008000;" x="266.254382" xlink:href="#m892c1a490a" y="183.698782"/>
     <use style="fill:#008000;stroke:#008000;" x="270.266966" xlink:href="#m892c1a490a" y="183.676756"/>
     <use style="fill:#008000;stroke:#008000;" x="274.279551" xlink:href="#m892c1a490a" y="184.02061"/>
     <use style="fill:#008000;stroke:#008000;" x="278.292135" xlink:href="#m892c1a490a" y="183.472578"/>
     <use style="fill:#008000;stroke:#008000;" x="282.304719" xlink:href="#m892c1a490a" y="183.450465"/>
     <use style="fill:#008000;stroke:#008000;" x="286.317303" xlink:href="#m892c1a490a" y="183.91418"/>
     <use style="fill:#008000;stroke:#008000;" x="290.329888" xlink:href="#m892c1a490a" y="183.617814"/>
     <use style="fill:#008000;stroke:#008000;" x="294.342472" xlink:href="#m892c1a490a" y="184.43489"/>
     <use style="fill:#008000;stroke:#008000;" x="298.355056" xlink:href="#m892c1a490a" y="183.3429"/>
     <use style="fill:#008000;stroke:#008000;" x="302.36764" xlink:href="#m892c1a490a" y="183.98061"/>
     <use style="fill:#008000;stroke:#008000;" x="306.380225" xlink:href="#m892c1a490a" y="187.210047"/>
     <use style="fill:#008000;stroke:#008000;" x="310.392809" xlink:href="#m892c1a490a" y="183.527757"/>
     <use style="fill:#008000;stroke:#008000;" x="314.405393" xlink:href="#m892c1a490a" y="186.460559"/>
     <use style="fill:#008000;stroke:#008000;" x="318.417978" xlink:href="#m892c1a490a" y="188.823472"/>
     <use style="fill:#008000;stroke:#008000;" x="322.430562" xlink:href="#m892c1a490a" y="192.967999"/>
     <use style="fill:#008000;stroke:#008000;" x="326.443146" xlink:href="#m892c1a490a" y="185.540333"/>
     <use style="fill:#008000;stroke:#008000;" x="330.45573" xlink:href="#m892c1a490a" y="186.456304"/>
     <use style="fill:#008000;stroke:#008000;" x="334.468315" xlink:href="#m892c1a490a" y="184.492203"/>
     <use style="fill:#008000;stroke:#008000;" x="338.480899" xlink:href="#m892c1a490a" y="185.442336"/>
     <use style="fill:#008000;stroke:#008000;" x="342.493483" xlink:href="#m892c1a490a" y="183.912692"/>
     <use style="fill:#008000;stroke:#008000;" x="346.506067" xlink:href="#m892c1a490a" y="184.271899"/>
     <use style="fill:#008000;stroke:#008000;" x="350.518652" xlink:href="#m892c1a490a" y="182.311689"/>
     <use style="fill:#008000;stroke:#008000;" x="354.531236" xlink:href="#m892c1a490a" y="184.10567"/>
     <use style="fill:#008000;stroke:#008000;" x="358.54382" xlink:href="#m892c1a490a" y="187.029287"/>
     <use style="fill:#008000;stroke:#008000;" x="362.556404" xlink:href="#m892c1a490a" y="191.199385"/>
     <use style="fill:#008000;stroke:#008000;" x="366.568989" xlink:href="#m892c1a490a" y="193.069976"/>
     <use style="fill:#008000;stroke:#008000;" x="370.581573" xlink:href="#m892c1a490a" y="188.369735"/>
     <use style="fill:#008000;stroke:#008000;" x="374.594157" xlink:href="#m892c1a490a" y="189.899326"/>
     <use style="fill:#008000;stroke:#008000;" x="378.606742" xlink:href="#m892c1a490a" y="186.223074"/>
     <use style="fill:#008000;stroke:#008000;" x="382.619326" xlink:href="#m892c1a490a" y="193.105324"/>
     <use style="fill:#008000;stroke:#008000;" x="386.63191" xlink:href="#m892c1a490a" y="193.37289"/>
     <use style="fill:#008000;stroke:#008000;" x="390.644494" xlink:href="#m892c1a490a" y="190.101112"/>
     <use style="fill:#008000;stroke:#008000;" x="394.657079" xlink:href="#m892c1a490a" y="187.901078"/>
     <use style="fill:#008000;stroke:#008000;" x="398.669663" xlink:href="#m892c1a490a" y="190.434592"/>
     <use style="fill:#008000;stroke:#008000;" x="402.682247" xlink:href="#m892c1a490a" y="188.458868"/>
     <use style="fill:#008000;stroke:#008000;" x="406.694831" xlink:href="#m892c1a490a" y="195.145024"/>
     <use style="fill:#008000;stroke:#008000;" x="410.707416" xlink:href="#m892c1a490a" y="191.357134"/>
    </g>
   </g>
   <g id="patch_3">
    <path d="M 57.6 307.584 
L 57.6 41.472 
" style="fill:none;stroke:#000000;stroke-linecap:square;stroke-linejoin:miter;stroke-width:0.8;"/>
   </g>
   <g id="patch_4">
    <path d="M 414.72 307.584 
L 414.72 41.472 
" style="fill:none;stroke:#000000;stroke-linecap:square;stroke-linejoin:miter;stroke-width:0.8;"/>
   </g>
   <g id="patch_5">
    <path d="M 57.6 307.584 
L 414.72 307.584 
" style="fill:none;stroke:#000000;stroke-linecap:square;stroke-linejoin:miter;stroke-width:0.8;"/>
   </g>
   <g id="patch_6">
    <path d="M 57.6 41.472 
L 414.72 41.472 
" style="fill:none;stroke:#000000;stroke-linecap:square;stroke-linejoin:miter;stroke-width:0.8;"/>
   </g>
   <g id="text_31">
    <!-- MKL iomp 2PV on pre_transpose54 -->
    <defs>
     <path d="M 9.8125 72.90625 
L 24.515625 72.90625 
L 43.109375 23.296875 
L 61.8125 72.90625 
L 76.515625 72.90625 
L 76.515625 0 
L 66.890625 0 
L 66.890625 64.015625 
L 48.09375 14.015625 
L 38.1875 14.015625 
L 19.390625 64.015625 
L 19.390625 0 
L 9.8125 0 
z
" id="DejaVuSans-77"/>
     <path d="M 9.8125 72.90625 
L 19.671875 72.90625 
L 19.671875 42.09375 
L 52.390625 72.90625 
L 65.09375 72.90625 
L 28.90625 38.921875 
L 67.671875 0 
L 54.6875 0 
L 19.671875 35.109375 
L 19.671875 0 
L 9.8125 0 
z
" id="DejaVuSans-75"/>
     <path d="M 9.8125 72.90625 
L 19.671875 72.90625 
L 19.671875 8.296875 
L 55.171875 8.296875 
L 55.171875 0 
L 9.8125 0 
z
" id="DejaVuSans-76"/>
     <path d="M 9.421875 54.6875 
L 18.40625 54.6875 
L 18.40625 0 
L 9.421875 0 
z
M 9.421875 75.984375 
L 18.40625 75.984375 
L 18.40625 64.59375 
L 9.421875 64.59375 
z
" id="DejaVuSans-105"/>
     <path d="M 30.609375 48.390625 
Q 23.390625 48.390625 19.1875 42.75 
Q 14.984375 37.109375 14.984375 27.296875 
Q 14.984375 17.484375 19.15625 11.84375 
Q 23.34375 6.203125 30.609375 6.203125 
Q 37.796875 6.203125 41.984375 11.859375 
Q 46.1875 17.53125 46.1875 27.296875 
Q 46.1875 37.015625 41.984375 42.703125 
Q 37.796875 48.390625 30.609375 48.390625 
z
M 30.609375 56 
Q 42.328125 56 49.015625 48.375 
Q 55.71875 40.765625 55.71875 27.296875 
Q 55.71875 13.875 49.015625 6.21875 
Q 42.328125 -1.421875 30.609375 -1.421875 
Q 18.84375 -1.421875 12.171875 6.21875 
Q 5.515625 13.875 5.515625 27.296875 
Q 5.515625 40.765625 12.171875 48.375 
Q 18.84375 56 30.609375 56 
z
" id="DejaVuSans-111"/>
     <path d="M 52 44.1875 
Q 55.375 50.25 60.0625 53.125 
Q 64.75 56 71.09375 56 
Q 79.640625 56 84.28125 50.015625 
Q 88.921875 44.046875 88.921875 33.015625 
L 88.921875 0 
L 79.890625 0 
L 79.890625 32.71875 
Q 79.890625 40.578125 77.09375 44.375 
Q 74.3125 48.1875 68.609375 48.1875 
Q 61.625 48.1875 57.5625 43.546875 
Q 53.515625 38.921875 53.515625 30.90625 
L 53.515625 0 
L 44.484375 0 
L 44.484375 32.71875 
Q 44.484375 40.625 41.703125 44.40625 
Q 38.921875 48.1875 33.109375 48.1875 
Q 26.21875 48.1875 22.15625 43.53125 
Q 18.109375 38.875 18.109375 30.90625 
L 18.109375 0 
L 9.078125 0 
L 9.078125 54.6875 
L 18.109375 54.6875 
L 18.109375 46.1875 
Q 21.1875 51.21875 25.484375 53.609375 
Q 29.78125 56 35.6875 56 
Q 41.65625 56 45.828125 52.96875 
Q 50 49.953125 52 44.1875 
z
" id="DejaVuSans-109"/>
     <path d="M 19.671875 64.796875 
L 19.671875 37.40625 
L 32.078125 37.40625 
Q 38.96875 37.40625 42.71875 40.96875 
Q 46.484375 44.53125 46.484375 51.125 
Q 46.484375 57.671875 42.71875 61.234375 
Q 38.96875 64.796875 32.078125 64.796875 
z
M 9.8125 72.90625 
L 32.078125 72.90625 
Q 44.34375 72.90625 50.609375 67.359375 
Q 56.890625 61.8125 56.890625 51.125 
Q 56.890625 40.328125 50.609375 34.8125 
Q 44.34375 29.296875 32.078125 29.296875 
L 19.671875 29.296875 
L 19.671875 0 
L 9.8125 0 
z
" id="DejaVuSans-80"/>
     <path d="M 28.609375 0 
L 0.78125 72.90625 
L 11.078125 72.90625 
L 34.1875 11.53125 
L 57.328125 72.90625 
L 67.578125 72.90625 
L 39.796875 0 
z
" id="DejaVuSans-86"/>
     <path d="M 54.890625 33.015625 
L 54.890625 0 
L 45.90625 0 
L 45.90625 32.71875 
Q 45.90625 40.484375 42.875 44.328125 
Q 39.84375 48.1875 33.796875 48.1875 
Q 26.515625 48.1875 22.3125 43.546875 
Q 18.109375 38.921875 18.109375 30.90625 
L 18.109375 0 
L 9.078125 0 
L 9.078125 54.6875 
L 18.109375 54.6875 
L 18.109375 46.1875 
Q 21.34375 51.125 25.703125 53.5625 
Q 30.078125 56 35.796875 56 
Q 45.21875 56 50.046875 50.171875 
Q 54.890625 44.34375 54.890625 33.015625 
z
" id="DejaVuSans-110"/>
     <path d="M 50.984375 -16.609375 
L 50.984375 -23.578125 
L -0.984375 -23.578125 
L -0.984375 -16.609375 
z
" id="DejaVuSans-95"/>
    </defs>
    <g transform="translate(131.88375 35.472)scale(0.12 -0.12)">
     <use xlink:href="#DejaVuSans-77"/>
     <use x="86.279297" xlink:href="#DejaVuSans-75"/>
     <use x="151.855469" xlink:href="#DejaVuSans-76"/>
     <use x="207.568359" xlink:href="#DejaVuSans-32"/>
     <use x="239.355469" xlink:href="#DejaVuSans-105"/>
     <use x="267.138672" xlink:href="#DejaVuSans-111"/>
     <use x="328.320312" xlink:href="#DejaVuSans-109"/>
     <use x="425.732422" xlink:href="#DejaVuSans-112"/>
     <use x="489.208984" xlink:href="#DejaVuSans-32"/>
     <use x="520.996094" xlink:href="#DejaVuSans-50"/>
     <use x="584.619141" xlink:href="#DejaVuSans-80"/>
     <use x="644.921875" xlink:href="#DejaVuSans-86"/>
     <use x="713.330078" xlink:href="#DejaVuSans-32"/>
     <use x="745.117188" xlink:href="#DejaVuSans-111"/>
     <use x="806.298828" xlink:href="#DejaVuSans-110"/>
     <use x="869.677734" xlink:href="#DejaVuSans-32"/>
     <use x="901.464844" xlink:href="#DejaVuSans-112"/>
     <use x="964.941406" xlink:href="#DejaVuSans-114"/>
     <use x="1003.804688" xlink:href="#DejaVuSans-101"/>
     <use x="1065.328125" xlink:href="#DejaVuSans-95"/>
     <use x="1115.328125" xlink:href="#DejaVuSans-116"/>
     <use x="1154.537109" xlink:href="#DejaVuSans-114"/>
     <use x="1195.650391" xlink:href="#DejaVuSans-97"/>
     <use x="1256.929688" xlink:href="#DejaVuSans-110"/>
     <use x="1320.308594" xlink:href="#DejaVuSans-115"/>
     <use x="1372.408203" xlink:href="#DejaVuSans-112"/>
     <use x="1435.884766" xlink:href="#DejaVuSans-111"/>
     <use x="1497.066406" xlink:href="#DejaVuSans-115"/>
     <use x="1549.166016" xlink:href="#DejaVuSans-101"/>
     <use x="1610.689453" xlink:href="#DejaVuSans-53"/>
     <use x="1674.3125" xlink:href="#DejaVuSans-52"/>
    </g>
   </g>
   <g id="legend_1">
    <g id="patch_7">
     <path d="M 64.6 302.584 
L 159.167188 302.584 
Q 161.167188 302.584 161.167188 300.584 
L 161.167188 257.2715 
Q 161.167188 255.2715 159.167188 255.2715 
L 64.6 255.2715 
Q 62.6 255.2715 62.6 257.2715 
L 62.6 300.584 
Q 62.6 302.584 64.6 302.584 
z
" style="fill:#ffffff;opacity:0.8;stroke:#cccccc;stroke-linejoin:miter;"/>
    </g>
    <g id="line2d_60">
     <path d="M 66.6 263.369937 
L 86.6 263.369937 
" style="fill:none;stroke:#0000ff;stroke-dasharray:1.5,2.475;stroke-dashoffset:0;stroke-width:1.5;"/>
    </g>
    <g id="line2d_61">
     <g>
      <use style="fill:#0000ff;stroke:#0000ff;" x="76.6" xlink:href="#m3479471ff7" y="263.369937"/>
     </g>
    </g>
    <g id="text_32">
     <!-- transpose -->
     <g transform="translate(94.6 266.869937)scale(0.1 -0.1)">
      <use xlink:href="#DejaVuSans-116"/>
      <use x="39.208984" xlink:href="#DejaVuSans-114"/>
      <use x="80.322266" xlink:href="#DejaVuSans-97"/>
      <use x="141.601562" xlink:href="#DejaVuSans-110"/>
      <use x="204.980469" xlink:href="#DejaVuSans-115"/>
      <use x="257.080078" xlink:href="#DejaVuSans-112"/>
      <use x="320.556641" xlink:href="#DejaVuSans-111"/>
      <use x="381.738281" xlink:href="#DejaVuSans-115"/>
      <use x="433.837891" xlink:href="#DejaVuSans-101"/>
     </g>
    </g>
    <g id="line2d_62">
     <path d="M 66.6 278.048063 
L 86.6 278.048063 
" style="fill:none;stroke:#ff0000;stroke-dasharray:1.5,2.475;stroke-dashoffset:0;stroke-width:1.5;"/>
    </g>
    <g id="line2d_63">
     <g>
      <use style="fill:#ff0000;stroke:#ff0000;" x="76.6" xlink:href="#m78dce0d651" y="278.048063"/>
     </g>
    </g>
    <g id="text_33">
     <!-- transpose_tr -->
     <g transform="translate(94.6 281.548063)scale(0.1 -0.1)">
      <use xlink:href="#DejaVuSans-116"/>
      <use x="39.208984" xlink:href="#DejaVuSans-114"/>
      <use x="80.322266" xlink:href="#DejaVuSans-97"/>
      <use x="141.601562" xlink:href="#DejaVuSans-110"/>
      <use x="204.980469" xlink:href="#DejaVuSans-115"/>
      <use x="257.080078" xlink:href="#DejaVuSans-112"/>
      <use x="320.556641" xlink:href="#DejaVuSans-111"/>
      <use x="381.738281" xlink:href="#DejaVuSans-115"/>
      <use x="433.837891" xlink:href="#DejaVuSans-101"/>
      <use x="495.361328" xlink:href="#DejaVuSans-95"/>
      <use x="545.361328" xlink:href="#DejaVuSans-116"/>
      <use x="584.570312" xlink:href="#DejaVuSans-114"/>
     </g>
    </g>
    <g id="line2d_64">
     <path d="M 66.6 293.004312 
L 86.6 293.004312 
" style="fill:none;stroke:#008000;stroke-dasharray:1.5,2.475;stroke-dashoffset:0;stroke-width:1.5;"/>
    </g>
    <g id="line2d_65">
     <g>
      <use style="fill:#008000;stroke:#008000;" x="76.6" xlink:href="#m892c1a490a" y="293.004312"/>
     </g>
    </g>
    <g id="text_34">
     <!-- mean -->
     <g transform="translate(94.6 296.504312)scale(0.1 -0.1)">
      <use xlink:href="#DejaVuSans-109"/>
      <use x="97.412109" xlink:href="#DejaVuSans-101"/>
      <use x="158.935547" xlink:href="#DejaVuSans-97"/>
      <use x="220.214844" xlink:href="#DejaVuSans-110"/>
     </g>
    </g>
   </g>
  </g>
 </g>
 <defs>
  <clipPath id="pe2a796277f">
   <rect height="266.112" width="357.12" x="57.6" y="41.472"/>
  </clipPath>
 </defs>
</svg>
