<?xml version="1.0" encoding="utf-8" standalone="no"?>
<!DOCTYPE svg PUBLIC "-//W3C//DTD SVG 1.1//EN"
  "http://www.w3.org/Graphics/SVG/1.1/DTD/svg11.dtd">
<!-- Created with matplotlib (https://matplotlib.org/) -->
<svg height="345.6pt" version="1.1" viewBox="0 0 460.8 345.6" width="460.8pt" xmlns="http://www.w3.org/2000/svg" xmlns:xlink="http://www.w3.org/1999/xlink">
 <defs>
  <style type="text/css">
*{stroke-linecap:butt;stroke-linejoin:round;}
  </style>
 </defs>
 <g id="figure_1">
  <g id="patch_1">
   <path d="M 0 345.6 
L 460.8 345.6 
L 460.8 0 
L 0 0 
z
" style="fill:#ffffff;"/>
  </g>
  <g id="axes_1">
   <g id="patch_2">
    <path d="M 57.6 307.584 
L 414.72 307.584 
L 414.72 41.472 
L 57.6 41.472 
z
" style="fill:#ffffff;"/>
   </g>
   <g id="matplotlib.axis_1">
    <g id="xtick_1">
     <g id="line2d_1">
      <path clip-path="url(#p48ffe2e5eb)" d="M 61.612584 307.584 
L 61.612584 41.472 
" style="fill:none;stroke:#b0b0b0;stroke-dasharray:5.12,1.28,0.8,1.28;stroke-dashoffset:0;stroke-width:0.8;"/>
     </g>
     <g id="line2d_2">
      <defs>
       <path d="M 0 0 
L 0 3.5 
" id="m277b174782" style="stroke:#000000;stroke-width:0.8;"/>
      </defs>
      <g>
       <use style="stroke:#000000;stroke-width:0.8;" x="61.612584" xlink:href="#m277b174782" y="307.584"/>
      </g>
     </g>
     <g id="text_1">
      <!-- 1 -->
      <defs>
       <path d="M 12.40625 8.296875 
L 28.515625 8.296875 
L 28.515625 63.921875 
L 10.984375 60.40625 
L 10.984375 69.390625 
L 28.421875 72.90625 
L 38.28125 72.90625 
L 38.28125 8.296875 
L 54.390625 8.296875 
L 54.390625 0 
L 12.40625 0 
z
" id="DejaVuSans-49"/>
      </defs>
      <g transform="translate(58.431334 322.182437)scale(0.1 -0.1)">
       <use xlink:href="#DejaVuSans-49"/>
      </g>
     </g>
    </g>
    <g id="xtick_2">
     <g id="line2d_3">
      <path clip-path="url(#p48ffe2e5eb)" d="M 73.650337 307.584 
L 73.650337 41.472 
" style="fill:none;stroke:#b0b0b0;stroke-dasharray:5.12,1.28,0.8,1.28;stroke-dashoffset:0;stroke-width:0.8;"/>
     </g>
     <g id="line2d_4">
      <g>
       <use style="stroke:#000000;stroke-width:0.8;" x="73.650337" xlink:href="#m277b174782" y="307.584"/>
      </g>
     </g>
     <g id="text_2">
      <!-- 4 -->
      <defs>
       <path d="M 37.796875 64.3125 
L 12.890625 25.390625 
L 37.796875 25.390625 
z
M 35.203125 72.90625 
L 47.609375 72.90625 
L 47.609375 25.390625 
L 58.015625 25.390625 
L 58.015625 17.1875 
L 47.609375 17.1875 
L 47.609375 0 
L 37.796875 0 
L 37.796875 17.1875 
L 4.890625 17.1875 
L 4.890625 26.703125 
z
" id="DejaVuSans-52"/>
      </defs>
      <g transform="translate(70.469087 322.182437)scale(0.1 -0.1)">
       <use xlink:href="#DejaVuSans-52"/>
      </g>
     </g>
    </g>
    <g id="xtick_3">
     <g id="line2d_5">
      <path clip-path="url(#p48ffe2e5eb)" d="M 89.700674 307.584 
L 89.700674 41.472 
" style="fill:none;stroke:#b0b0b0;stroke-dasharray:5.12,1.28,0.8,1.28;stroke-dashoffset:0;stroke-width:0.8;"/>
     </g>
     <g id="line2d_6">
      <g>
       <use style="stroke:#000000;stroke-width:0.8;" x="89.700674" xlink:href="#m277b174782" y="307.584"/>
      </g>
     </g>
     <g id="text_3">
      <!-- 8 -->
      <defs>
       <path d="M 31.78125 34.625 
Q 24.75 34.625 20.71875 30.859375 
Q 16.703125 27.09375 16.703125 20.515625 
Q 16.703125 13.921875 20.71875 10.15625 
Q 24.75 6.390625 31.78125 6.390625 
Q 38.8125 6.390625 42.859375 10.171875 
Q 46.921875 13.96875 46.921875 20.515625 
Q 46.921875 27.09375 42.890625 30.859375 
Q 38.875 34.625 31.78125 34.625 
z
M 21.921875 38.8125 
Q 15.578125 40.375 12.03125 44.71875 
Q 8.5 49.078125 8.5 55.328125 
Q 8.5 64.0625 14.71875 69.140625 
Q 20.953125 74.21875 31.78125 74.21875 
Q 42.671875 74.21875 48.875 69.140625 
Q 55.078125 64.0625 55.078125 55.328125 
Q 55.078125 49.078125 51.53125 44.71875 
Q 48 40.375 41.703125 38.8125 
Q 48.828125 37.15625 52.796875 32.3125 
Q 56.78125 27.484375 56.78125 20.515625 
Q 56.78125 9.90625 50.3125 4.234375 
Q 43.84375 -1.421875 31.78125 -1.421875 
Q 19.734375 -1.421875 13.25 4.234375 
Q 6.78125 9.90625 6.78125 20.515625 
Q 6.78125 27.484375 10.78125 32.3125 
Q 14.796875 37.15625 21.921875 38.8125 
z
M 18.3125 54.390625 
Q 18.3125 48.734375 21.84375 45.5625 
Q 25.390625 42.390625 31.78125 42.390625 
Q 38.140625 42.390625 41.71875 45.5625 
Q 45.3125 48.734375 45.3125 54.390625 
Q 45.3125 60.0625 41.71875 63.234375 
Q 38.140625 66.40625 31.78125 66.40625 
Q 25.390625 66.40625 21.84375 63.234375 
Q 18.3125 60.0625 18.3125 54.390625 
z
" id="DejaVuSans-56"/>
      </defs>
      <g transform="translate(86.519424 322.182437)scale(0.1 -0.1)">
       <use xlink:href="#DejaVuSans-56"/>
      </g>
     </g>
    </g>
    <g id="xtick_4">
     <g id="line2d_7">
      <path clip-path="url(#p48ffe2e5eb)" d="M 105.751011 307.584 
L 105.751011 41.472 
" style="fill:none;stroke:#b0b0b0;stroke-dasharray:5.12,1.28,0.8,1.28;stroke-dashoffset:0;stroke-width:0.8;"/>
     </g>
     <g id="line2d_8">
      <g>
       <use style="stroke:#000000;stroke-width:0.8;" x="105.751011" xlink:href="#m277b174782" y="307.584"/>
      </g>
     </g>
     <g id="text_4">
      <!-- 12 -->
      <defs>
       <path d="M 19.1875 8.296875 
L 53.609375 8.296875 
L 53.609375 0 
L 7.328125 0 
L 7.328125 8.296875 
Q 12.9375 14.109375 22.625 23.890625 
Q 32.328125 33.6875 34.8125 36.53125 
Q 39.546875 41.84375 41.421875 45.53125 
Q 43.3125 49.21875 43.3125 52.78125 
Q 43.3125 58.59375 39.234375 62.25 
Q 35.15625 65.921875 28.609375 65.921875 
Q 23.96875 65.921875 18.8125 64.3125 
Q 13.671875 62.703125 7.8125 59.421875 
L 7.8125 69.390625 
Q 13.765625 71.78125 18.9375 73 
Q 24.125 74.21875 28.421875 74.21875 
Q 39.75 74.21875 46.484375 68.546875 
Q 53.21875 62.890625 53.21875 53.421875 
Q 53.21875 48.921875 51.53125 44.890625 
Q 49.859375 40.875 45.40625 35.40625 
Q 44.1875 33.984375 37.640625 27.21875 
Q 31.109375 20.453125 19.1875 8.296875 
z
" id="DejaVuSans-50"/>
      </defs>
      <g transform="translate(99.388511 322.182437)scale(0.1 -0.1)">
       <use xlink:href="#DejaVuSans-49"/>
       <use x="63.623047" xlink:href="#DejaVuSans-50"/>
      </g>
     </g>
    </g>
    <g id="xtick_5">
     <g id="line2d_9">
      <path clip-path="url(#p48ffe2e5eb)" d="M 121.801348 307.584 
L 121.801348 41.472 
" style="fill:none;stroke:#b0b0b0;stroke-dasharray:5.12,1.28,0.8,1.28;stroke-dashoffset:0;stroke-width:0.8;"/>
     </g>
     <g id="line2d_10">
      <g>
       <use style="stroke:#000000;stroke-width:0.8;" x="121.801348" xlink:href="#m277b174782" y="307.584"/>
      </g>
     </g>
     <g id="text_5">
      <!-- 16 -->
      <defs>
       <path d="M 33.015625 40.375 
Q 26.375 40.375 22.484375 35.828125 
Q 18.609375 31.296875 18.609375 23.390625 
Q 18.609375 15.53125 22.484375 10.953125 
Q 26.375 6.390625 33.015625 6.390625 
Q 39.65625 6.390625 43.53125 10.953125 
Q 47.40625 15.53125 47.40625 23.390625 
Q 47.40625 31.296875 43.53125 35.828125 
Q 39.65625 40.375 33.015625 40.375 
z
M 52.59375 71.296875 
L 52.59375 62.3125 
Q 48.875 64.0625 45.09375 64.984375 
Q 41.3125 65.921875 37.59375 65.921875 
Q 27.828125 65.921875 22.671875 59.328125 
Q 17.53125 52.734375 16.796875 39.40625 
Q 19.671875 43.65625 24.015625 45.921875 
Q 28.375 48.1875 33.59375 48.1875 
Q 44.578125 48.1875 50.953125 41.515625 
Q 57.328125 34.859375 57.328125 23.390625 
Q 57.328125 12.15625 50.6875 5.359375 
Q 44.046875 -1.421875 33.015625 -1.421875 
Q 20.359375 -1.421875 13.671875 8.265625 
Q 6.984375 17.96875 6.984375 36.375 
Q 6.984375 53.65625 15.1875 63.9375 
Q 23.390625 74.21875 37.203125 74.21875 
Q 40.921875 74.21875 44.703125 73.484375 
Q 48.484375 72.75 52.59375 71.296875 
z
" id="DejaVuSans-54"/>
      </defs>
      <g transform="translate(115.438848 322.182437)scale(0.1 -0.1)">
       <use xlink:href="#DejaVuSans-49"/>
       <use x="63.623047" xlink:href="#DejaVuSans-54"/>
      </g>
     </g>
    </g>
    <g id="xtick_6">
     <g id="line2d_11">
      <path clip-path="url(#p48ffe2e5eb)" d="M 137.851685 307.584 
L 137.851685 41.472 
" style="fill:none;stroke:#b0b0b0;stroke-dasharray:5.12,1.28,0.8,1.28;stroke-dashoffset:0;stroke-width:0.8;"/>
     </g>
     <g id="line2d_12">
      <g>
       <use style="stroke:#000000;stroke-width:0.8;" x="137.851685" xlink:href="#m277b174782" y="307.584"/>
      </g>
     </g>
     <g id="text_6">
      <!-- 20 -->
      <defs>
       <path d="M 31.78125 66.40625 
Q 24.171875 66.40625 20.328125 58.90625 
Q 16.5 51.421875 16.5 36.375 
Q 16.5 21.390625 20.328125 13.890625 
Q 24.171875 6.390625 31.78125 6.390625 
Q 39.453125 6.390625 43.28125 13.890625 
Q 47.125 21.390625 47.125 36.375 
Q 47.125 51.421875 43.28125 58.90625 
Q 39.453125 66.40625 31.78125 66.40625 
z
M 31.78125 74.21875 
Q 44.046875 74.21875 50.515625 64.515625 
Q 56.984375 54.828125 56.984375 36.375 
Q 56.984375 17.96875 50.515625 8.265625 
Q 44.046875 -1.421875 31.78125 -1.421875 
Q 19.53125 -1.421875 13.0625 8.265625 
Q 6.59375 17.96875 6.59375 36.375 
Q 6.59375 54.828125 13.0625 64.515625 
Q 19.53125 74.21875 31.78125 74.21875 
z
" id="DejaVuSans-48"/>
      </defs>
      <g transform="translate(131.489185 322.182437)scale(0.1 -0.1)">
       <use xlink:href="#DejaVuSans-50"/>
       <use x="63.623047" xlink:href="#DejaVuSans-48"/>
      </g>
     </g>
    </g>
    <g id="xtick_7">
     <g id="line2d_13">
      <path clip-path="url(#p48ffe2e5eb)" d="M 153.902022 307.584 
L 153.902022 41.472 
" style="fill:none;stroke:#b0b0b0;stroke-dasharray:5.12,1.28,0.8,1.28;stroke-dashoffset:0;stroke-width:0.8;"/>
     </g>
     <g id="line2d_14">
      <g>
       <use style="stroke:#000000;stroke-width:0.8;" x="153.902022" xlink:href="#m277b174782" y="307.584"/>
      </g>
     </g>
     <g id="text_7">
      <!-- 24 -->
      <g transform="translate(147.539522 322.182437)scale(0.1 -0.1)">
       <use xlink:href="#DejaVuSans-50"/>
       <use x="63.623047" xlink:href="#DejaVuSans-52"/>
      </g>
     </g>
    </g>
    <g id="xtick_8">
     <g id="line2d_15">
      <path clip-path="url(#p48ffe2e5eb)" d="M 169.95236 307.584 
L 169.95236 41.472 
" style="fill:none;stroke:#b0b0b0;stroke-dasharray:5.12,1.28,0.8,1.28;stroke-dashoffset:0;stroke-width:0.8;"/>
     </g>
     <g id="line2d_16">
      <g>
       <use style="stroke:#000000;stroke-width:0.8;" x="169.95236" xlink:href="#m277b174782" y="307.584"/>
      </g>
     </g>
     <g id="text_8">
      <!-- 28 -->
      <g transform="translate(163.58986 322.182437)scale(0.1 -0.1)">
       <use xlink:href="#DejaVuSans-50"/>
       <use x="63.623047" xlink:href="#DejaVuSans-56"/>
      </g>
     </g>
    </g>
    <g id="xtick_9">
     <g id="line2d_17">
      <path clip-path="url(#p48ffe2e5eb)" d="M 186.002697 307.584 
L 186.002697 41.472 
" style="fill:none;stroke:#b0b0b0;stroke-dasharray:5.12,1.28,0.8,1.28;stroke-dashoffset:0;stroke-width:0.8;"/>
     </g>
     <g id="line2d_18">
      <g>
       <use style="stroke:#000000;stroke-width:0.8;" x="186.002697" xlink:href="#m277b174782" y="307.584"/>
      </g>
     </g>
     <g id="text_9">
      <!-- 32 -->
      <defs>
       <path d="M 40.578125 39.3125 
Q 47.65625 37.796875 51.625 33 
Q 55.609375 28.21875 55.609375 21.1875 
Q 55.609375 10.40625 48.1875 4.484375 
Q 40.765625 -1.421875 27.09375 -1.421875 
Q 22.515625 -1.421875 17.65625 -0.515625 
Q 12.796875 0.390625 7.625 2.203125 
L 7.625 11.71875 
Q 11.71875 9.328125 16.59375 8.109375 
Q 21.484375 6.890625 26.8125 6.890625 
Q 36.078125 6.890625 40.9375 10.546875 
Q 45.796875 14.203125 45.796875 21.1875 
Q 45.796875 27.640625 41.28125 31.265625 
Q 36.765625 34.90625 28.71875 34.90625 
L 20.21875 34.90625 
L 20.21875 43.015625 
L 29.109375 43.015625 
Q 36.375 43.015625 40.234375 45.921875 
Q 44.09375 48.828125 44.09375 54.296875 
Q 44.09375 59.90625 40.109375 62.90625 
Q 36.140625 65.921875 28.71875 65.921875 
Q 24.65625 65.921875 20.015625 65.03125 
Q 15.375 64.15625 9.8125 62.3125 
L 9.8125 71.09375 
Q 15.4375 72.65625 20.34375 73.4375 
Q 25.25 74.21875 29.59375 74.21875 
Q 40.828125 74.21875 47.359375 69.109375 
Q 53.90625 64.015625 53.90625 55.328125 
Q 53.90625 49.265625 50.4375 45.09375 
Q 46.96875 40.921875 40.578125 39.3125 
z
" id="DejaVuSans-51"/>
      </defs>
      <g transform="translate(179.640197 322.182437)scale(0.1 -0.1)">
       <use xlink:href="#DejaVuSans-51"/>
       <use x="63.623047" xlink:href="#DejaVuSans-50"/>
      </g>
     </g>
    </g>
    <g id="xtick_10">
     <g id="line2d_19">
      <path clip-path="url(#p48ffe2e5eb)" d="M 202.053034 307.584 
L 202.053034 41.472 
" style="fill:none;stroke:#b0b0b0;stroke-dasharray:5.12,1.28,0.8,1.28;stroke-dashoffset:0;stroke-width:0.8;"/>
     </g>
     <g id="line2d_20">
      <g>
       <use style="stroke:#000000;stroke-width:0.8;" x="202.053034" xlink:href="#m277b174782" y="307.584"/>
      </g>
     </g>
     <g id="text_10">
      <!-- 36 -->
      <g transform="translate(195.690534 322.182437)scale(0.1 -0.1)">
       <use xlink:href="#DejaVuSans-51"/>
       <use x="63.623047" xlink:href="#DejaVuSans-54"/>
      </g>
     </g>
    </g>
    <g id="xtick_11">
     <g id="line2d_21">
      <path clip-path="url(#p48ffe2e5eb)" d="M 218.103371 307.584 
L 218.103371 41.472 
" style="fill:none;stroke:#b0b0b0;stroke-dasharray:5.12,1.28,0.8,1.28;stroke-dashoffset:0;stroke-width:0.8;"/>
     </g>
     <g id="line2d_22">
      <g>
       <use style="stroke:#000000;stroke-width:0.8;" x="218.103371" xlink:href="#m277b174782" y="307.584"/>
      </g>
     </g>
     <g id="text_11">
      <!-- 40 -->
      <g transform="translate(211.740871 322.182437)scale(0.1 -0.1)">
       <use xlink:href="#DejaVuSans-52"/>
       <use x="63.623047" xlink:href="#DejaVuSans-48"/>
      </g>
     </g>
    </g>
    <g id="xtick_12">
     <g id="line2d_23">
      <path clip-path="url(#p48ffe2e5eb)" d="M 234.153708 307.584 
L 234.153708 41.472 
" style="fill:none;stroke:#b0b0b0;stroke-dasharray:5.12,1.28,0.8,1.28;stroke-dashoffset:0;stroke-width:0.8;"/>
     </g>
     <g id="line2d_24">
      <g>
       <use style="stroke:#000000;stroke-width:0.8;" x="234.153708" xlink:href="#m277b174782" y="307.584"/>
      </g>
     </g>
     <g id="text_12">
      <!-- 44 -->
      <g transform="translate(227.791208 322.182437)scale(0.1 -0.1)">
       <use xlink:href="#DejaVuSans-52"/>
       <use x="63.623047" xlink:href="#DejaVuSans-52"/>
      </g>
     </g>
    </g>
    <g id="xtick_13">
     <g id="line2d_25">
      <path clip-path="url(#p48ffe2e5eb)" d="M 250.204045 307.584 
L 250.204045 41.472 
" style="fill:none;stroke:#b0b0b0;stroke-dasharray:5.12,1.28,0.8,1.28;stroke-dashoffset:0;stroke-width:0.8;"/>
     </g>
     <g id="line2d_26">
      <g>
       <use style="stroke:#000000;stroke-width:0.8;" x="250.204045" xlink:href="#m277b174782" y="307.584"/>
      </g>
     </g>
     <g id="text_13">
      <!-- 48 -->
      <g transform="translate(243.841545 322.182437)scale(0.1 -0.1)">
       <use xlink:href="#DejaVuSans-52"/>
       <use x="63.623047" xlink:href="#DejaVuSans-56"/>
      </g>
     </g>
    </g>
    <g id="xtick_14">
     <g id="line2d_27">
      <path clip-path="url(#p48ffe2e5eb)" d="M 266.254382 307.584 
L 266.254382 41.472 
" style="fill:none;stroke:#b0b0b0;stroke-dasharray:5.12,1.28,0.8,1.28;stroke-dashoffset:0;stroke-width:0.8;"/>
     </g>
     <g id="line2d_28">
      <g>
       <use style="stroke:#000000;stroke-width:0.8;" x="266.254382" xlink:href="#m277b174782" y="307.584"/>
      </g>
     </g>
     <g id="text_14">
      <!-- 52 -->
      <defs>
       <path d="M 10.796875 72.90625 
L 49.515625 72.90625 
L 49.515625 64.59375 
L 19.828125 64.59375 
L 19.828125 46.734375 
Q 21.96875 47.46875 24.109375 47.828125 
Q 26.265625 48.1875 28.421875 48.1875 
Q 40.625 48.1875 47.75 41.5 
Q 54.890625 34.8125 54.890625 23.390625 
Q 54.890625 11.625 47.5625 5.09375 
Q 40.234375 -1.421875 26.90625 -1.421875 
Q 22.3125 -1.421875 17.546875 -0.640625 
Q 12.796875 0.140625 7.71875 1.703125 
L 7.71875 11.625 
Q 12.109375 9.234375 16.796875 8.0625 
Q 21.484375 6.890625 26.703125 6.890625 
Q 35.15625 6.890625 40.078125 11.328125 
Q 45.015625 15.765625 45.015625 23.390625 
Q 45.015625 31 40.078125 35.4375 
Q 35.15625 39.890625 26.703125 39.890625 
Q 22.75 39.890625 18.8125 39.015625 
Q 14.890625 38.140625 10.796875 36.28125 
z
" id="DejaVuSans-53"/>
      </defs>
      <g transform="translate(259.891882 322.182437)scale(0.1 -0.1)">
       <use xlink:href="#DejaVuSans-53"/>
       <use x="63.623047" xlink:href="#DejaVuSans-50"/>
      </g>
     </g>
    </g>
    <g id="xtick_15">
     <g id="line2d_29">
      <path clip-path="url(#p48ffe2e5eb)" d="M 282.304719 307.584 
L 282.304719 41.472 
" style="fill:none;stroke:#b0b0b0;stroke-dasharray:5.12,1.28,0.8,1.28;stroke-dashoffset:0;stroke-width:0.8;"/>
     </g>
     <g id="line2d_30">
      <g>
       <use style="stroke:#000000;stroke-width:0.8;" x="282.304719" xlink:href="#m277b174782" y="307.584"/>
      </g>
     </g>
     <g id="text_15">
      <!-- 56 -->
      <g transform="translate(275.942219 322.182437)scale(0.1 -0.1)">
       <use xlink:href="#DejaVuSans-53"/>
       <use x="63.623047" xlink:href="#DejaVuSans-54"/>
      </g>
     </g>
    </g>
    <g id="xtick_16">
     <g id="line2d_31">
      <path clip-path="url(#p48ffe2e5eb)" d="M 298.355056 307.584 
L 298.355056 41.472 
" style="fill:none;stroke:#b0b0b0;stroke-dasharray:5.12,1.28,0.8,1.28;stroke-dashoffset:0;stroke-width:0.8;"/>
     </g>
     <g id="line2d_32">
      <g>
       <use style="stroke:#000000;stroke-width:0.8;" x="298.355056" xlink:href="#m277b174782" y="307.584"/>
      </g>
     </g>
     <g id="text_16">
      <!-- 60 -->
      <g transform="translate(291.992556 322.182437)scale(0.1 -0.1)">
       <use xlink:href="#DejaVuSans-54"/>
       <use x="63.623047" xlink:href="#DejaVuSans-48"/>
      </g>
     </g>
    </g>
    <g id="xtick_17">
     <g id="line2d_33">
      <path clip-path="url(#p48ffe2e5eb)" d="M 314.405393 307.584 
L 314.405393 41.472 
" style="fill:none;stroke:#b0b0b0;stroke-dasharray:5.12,1.28,0.8,1.28;stroke-dashoffset:0;stroke-width:0.8;"/>
     </g>
     <g id="line2d_34">
      <g>
       <use style="stroke:#000000;stroke-width:0.8;" x="314.405393" xlink:href="#m277b174782" y="307.584"/>
      </g>
     </g>
     <g id="text_17">
      <!-- 64 -->
      <g transform="translate(308.042893 322.182437)scale(0.1 -0.1)">
       <use xlink:href="#DejaVuSans-54"/>
       <use x="63.623047" xlink:href="#DejaVuSans-52"/>
      </g>
     </g>
    </g>
    <g id="xtick_18">
     <g id="line2d_35">
      <path clip-path="url(#p48ffe2e5eb)" d="M 330.45573 307.584 
L 330.45573 41.472 
" style="fill:none;stroke:#b0b0b0;stroke-dasharray:5.12,1.28,0.8,1.28;stroke-dashoffset:0;stroke-width:0.8;"/>
     </g>
     <g id="line2d_36">
      <g>
       <use style="stroke:#000000;stroke-width:0.8;" x="330.45573" xlink:href="#m277b174782" y="307.584"/>
      </g>
     </g>
     <g id="text_18">
      <!-- 68 -->
      <g transform="translate(324.09323 322.182437)scale(0.1 -0.1)">
       <use xlink:href="#DejaVuSans-54"/>
       <use x="63.623047" xlink:href="#DejaVuSans-56"/>
      </g>
     </g>
    </g>
    <g id="xtick_19">
     <g id="line2d_37">
      <path clip-path="url(#p48ffe2e5eb)" d="M 346.506067 307.584 
L 346.506067 41.472 
" style="fill:none;stroke:#b0b0b0;stroke-dasharray:5.12,1.28,0.8,1.28;stroke-dashoffset:0;stroke-width:0.8;"/>
     </g>
     <g id="line2d_38">
      <g>
       <use style="stroke:#000000;stroke-width:0.8;" x="346.506067" xlink:href="#m277b174782" y="307.584"/>
      </g>
     </g>
     <g id="text_19">
      <!-- 72 -->
      <defs>
       <path d="M 8.203125 72.90625 
L 55.078125 72.90625 
L 55.078125 68.703125 
L 28.609375 0 
L 18.3125 0 
L 43.21875 64.59375 
L 8.203125 64.59375 
z
" id="DejaVuSans-55"/>
      </defs>
      <g transform="translate(340.143567 322.182437)scale(0.1 -0.1)">
       <use xlink:href="#DejaVuSans-55"/>
       <use x="63.623047" xlink:href="#DejaVuSans-50"/>
      </g>
     </g>
    </g>
    <g id="xtick_20">
     <g id="line2d_39">
      <path clip-path="url(#p48ffe2e5eb)" d="M 362.556404 307.584 
L 362.556404 41.472 
" style="fill:none;stroke:#b0b0b0;stroke-dasharray:5.12,1.28,0.8,1.28;stroke-dashoffset:0;stroke-width:0.8;"/>
     </g>
     <g id="line2d_40">
      <g>
       <use style="stroke:#000000;stroke-width:0.8;" x="362.556404" xlink:href="#m277b174782" y="307.584"/>
      </g>
     </g>
     <g id="text_20">
      <!-- 76 -->
      <g transform="translate(356.193904 322.182437)scale(0.1 -0.1)">
       <use xlink:href="#DejaVuSans-55"/>
       <use x="63.623047" xlink:href="#DejaVuSans-54"/>
      </g>
     </g>
    </g>
    <g id="xtick_21">
     <g id="line2d_41">
      <path clip-path="url(#p48ffe2e5eb)" d="M 378.606742 307.584 
L 378.606742 41.472 
" style="fill:none;stroke:#b0b0b0;stroke-dasharray:5.12,1.28,0.8,1.28;stroke-dashoffset:0;stroke-width:0.8;"/>
     </g>
     <g id="line2d_42">
      <g>
       <use style="stroke:#000000;stroke-width:0.8;" x="378.606742" xlink:href="#m277b174782" y="307.584"/>
      </g>
     </g>
     <g id="text_21">
      <!-- 80 -->
      <g transform="translate(372.244242 322.182437)scale(0.1 -0.1)">
       <use xlink:href="#DejaVuSans-56"/>
       <use x="63.623047" xlink:href="#DejaVuSans-48"/>
      </g>
     </g>
    </g>
    <g id="xtick_22">
     <g id="line2d_43">
      <path clip-path="url(#p48ffe2e5eb)" d="M 394.657079 307.584 
L 394.657079 41.472 
" style="fill:none;stroke:#b0b0b0;stroke-dasharray:5.12,1.28,0.8,1.28;stroke-dashoffset:0;stroke-width:0.8;"/>
     </g>
     <g id="line2d_44">
      <g>
       <use style="stroke:#000000;stroke-width:0.8;" x="394.657079" xlink:href="#m277b174782" y="307.584"/>
      </g>
     </g>
     <g id="text_22">
      <!-- 84 -->
      <g transform="translate(388.294579 322.182437)scale(0.1 -0.1)">
       <use xlink:href="#DejaVuSans-56"/>
       <use x="63.623047" xlink:href="#DejaVuSans-52"/>
      </g>
     </g>
    </g>
    <g id="xtick_23">
     <g id="line2d_45">
      <path clip-path="url(#p48ffe2e5eb)" d="M 410.707416 307.584 
L 410.707416 41.472 
" style="fill:none;stroke:#b0b0b0;stroke-dasharray:5.12,1.28,0.8,1.28;stroke-dashoffset:0;stroke-width:0.8;"/>
     </g>
     <g id="line2d_46">
      <g>
       <use style="stroke:#000000;stroke-width:0.8;" x="410.707416" xlink:href="#m277b174782" y="307.584"/>
      </g>
     </g>
     <g id="text_23">
      <!-- 88 -->
      <g transform="translate(404.344916 322.182437)scale(0.1 -0.1)">
       <use xlink:href="#DejaVuSans-56"/>
       <use x="63.623047" xlink:href="#DejaVuSans-56"/>
      </g>
     </g>
    </g>
    <g id="text_24">
     <!-- threads -->
     <defs>
      <path d="M 18.3125 70.21875 
L 18.3125 54.6875 
L 36.8125 54.6875 
L 36.8125 47.703125 
L 18.3125 47.703125 
L 18.3125 18.015625 
Q 18.3125 11.328125 20.140625 9.421875 
Q 21.96875 7.515625 27.59375 7.515625 
L 36.8125 7.515625 
L 36.8125 0 
L 27.59375 0 
Q 17.1875 0 13.234375 3.875 
Q 9.28125 7.765625 9.28125 18.015625 
L 9.28125 47.703125 
L 2.6875 47.703125 
L 2.6875 54.6875 
L 9.28125 54.6875 
L 9.28125 70.21875 
z
" id="DejaVuSans-116"/>
      <path d="M 54.890625 33.015625 
L 54.890625 0 
L 45.90625 0 
L 45.90625 32.71875 
Q 45.90625 40.484375 42.875 44.328125 
Q 39.84375 48.1875 33.796875 48.1875 
Q 26.515625 48.1875 22.3125 43.546875 
Q 18.109375 38.921875 18.109375 30.90625 
L 18.109375 0 
L 9.078125 0 
L 9.078125 75.984375 
L 18.109375 75.984375 
L 18.109375 46.1875 
Q 21.34375 51.125 25.703125 53.5625 
Q 30.078125 56 35.796875 56 
Q 45.21875 56 50.046875 50.171875 
Q 54.890625 44.34375 54.890625 33.015625 
z
" id="DejaVuSans-104"/>
      <path d="M 41.109375 46.296875 
Q 39.59375 47.171875 37.8125 47.578125 
Q 36.03125 48 33.890625 48 
Q 26.265625 48 22.1875 43.046875 
Q 18.109375 38.09375 18.109375 28.8125 
L 18.109375 0 
L 9.078125 0 
L 9.078125 54.6875 
L 18.109375 54.6875 
L 18.109375 46.1875 
Q 20.953125 51.171875 25.484375 53.578125 
Q 30.03125 56 36.53125 56 
Q 37.453125 56 38.578125 55.875 
Q 39.703125 55.765625 41.0625 55.515625 
z
" id="DejaVuSans-114"/>
      <path d="M 56.203125 29.59375 
L 56.203125 25.203125 
L 14.890625 25.203125 
Q 15.484375 15.921875 20.484375 11.0625 
Q 25.484375 6.203125 34.421875 6.203125 
Q 39.59375 6.203125 44.453125 7.46875 
Q 49.3125 8.734375 54.109375 11.28125 
L 54.109375 2.78125 
Q 49.265625 0.734375 44.1875 -0.34375 
Q 39.109375 -1.421875 33.890625 -1.421875 
Q 20.796875 -1.421875 13.15625 6.1875 
Q 5.515625 13.8125 5.515625 26.8125 
Q 5.515625 40.234375 12.765625 48.109375 
Q 20.015625 56 32.328125 56 
Q 43.359375 56 49.78125 48.890625 
Q 56.203125 41.796875 56.203125 29.59375 
z
M 47.21875 32.234375 
Q 47.125 39.59375 43.09375 43.984375 
Q 39.0625 48.390625 32.421875 48.390625 
Q 24.90625 48.390625 20.390625 44.140625 
Q 15.875 39.890625 15.1875 32.171875 
z
" id="DejaVuSans-101"/>
      <path d="M 34.28125 27.484375 
Q 23.390625 27.484375 19.1875 25 
Q 14.984375 22.515625 14.984375 16.5 
Q 14.984375 11.71875 18.140625 8.90625 
Q 21.296875 6.109375 26.703125 6.109375 
Q 34.1875 6.109375 38.703125 11.40625 
Q 43.21875 16.703125 43.21875 25.484375 
L 43.21875 27.484375 
z
M 52.203125 31.203125 
L 52.203125 0 
L 43.21875 0 
L 43.21875 8.296875 
Q 40.140625 3.328125 35.546875 0.953125 
Q 30.953125 -1.421875 24.3125 -1.421875 
Q 15.921875 -1.421875 10.953125 3.296875 
Q 6 8.015625 6 15.921875 
Q 6 25.140625 12.171875 29.828125 
Q 18.359375 34.515625 30.609375 34.515625 
L 43.21875 34.515625 
L 43.21875 35.40625 
Q 43.21875 41.609375 39.140625 45 
Q 35.0625 48.390625 27.6875 48.390625 
Q 23 48.390625 18.546875 47.265625 
Q 14.109375 46.140625 10.015625 43.890625 
L 10.015625 52.203125 
Q 14.9375 54.109375 19.578125 55.046875 
Q 24.21875 56 28.609375 56 
Q 40.484375 56 46.34375 49.84375 
Q 52.203125 43.703125 52.203125 31.203125 
z
" id="DejaVuSans-97"/>
      <path d="M 45.40625 46.390625 
L 45.40625 75.984375 
L 54.390625 75.984375 
L 54.390625 0 
L 45.40625 0 
L 45.40625 8.203125 
Q 42.578125 3.328125 38.25 0.953125 
Q 33.9375 -1.421875 27.875 -1.421875 
Q 17.96875 -1.421875 11.734375 6.484375 
Q 5.515625 14.40625 5.515625 27.296875 
Q 5.515625 40.1875 11.734375 48.09375 
Q 17.96875 56 27.875 56 
Q 33.9375 56 38.25 53.625 
Q 42.578125 51.265625 45.40625 46.390625 
z
M 14.796875 27.296875 
Q 14.796875 17.390625 18.875 11.75 
Q 22.953125 6.109375 30.078125 6.109375 
Q 37.203125 6.109375 41.296875 11.75 
Q 45.40625 17.390625 45.40625 27.296875 
Q 45.40625 37.203125 41.296875 42.84375 
Q 37.203125 48.484375 30.078125 48.484375 
Q 22.953125 48.484375 18.875 42.84375 
Q 14.796875 37.203125 14.796875 27.296875 
z
" id="DejaVuSans-100"/>
      <path d="M 44.28125 53.078125 
L 44.28125 44.578125 
Q 40.484375 46.53125 36.375 47.5 
Q 32.28125 48.484375 27.875 48.484375 
Q 21.1875 48.484375 17.84375 46.4375 
Q 14.5 44.390625 14.5 40.28125 
Q 14.5 37.15625 16.890625 35.375 
Q 19.28125 33.59375 26.515625 31.984375 
L 29.59375 31.296875 
Q 39.15625 29.25 43.1875 25.515625 
Q 47.21875 21.78125 47.21875 15.09375 
Q 47.21875 7.46875 41.1875 3.015625 
Q 35.15625 -1.421875 24.609375 -1.421875 
Q 20.21875 -1.421875 15.453125 -0.5625 
Q 10.6875 0.296875 5.421875 2 
L 5.421875 11.28125 
Q 10.40625 8.6875 15.234375 7.390625 
Q 20.0625 6.109375 24.8125 6.109375 
Q 31.15625 6.109375 34.5625 8.28125 
Q 37.984375 10.453125 37.984375 14.40625 
Q 37.984375 18.0625 35.515625 20.015625 
Q 33.0625 21.96875 24.703125 23.78125 
L 21.578125 24.515625 
Q 13.234375 26.265625 9.515625 29.90625 
Q 5.8125 33.546875 5.8125 39.890625 
Q 5.8125 47.609375 11.28125 51.796875 
Q 16.75 56 26.8125 56 
Q 31.78125 56 36.171875 55.265625 
Q 40.578125 54.546875 44.28125 53.078125 
z
" id="DejaVuSans-115"/>
     </defs>
     <g transform="translate(217.168594 335.860562)scale(0.1 -0.1)">
      <use xlink:href="#DejaVuSans-116"/>
      <use x="39.208984" xlink:href="#DejaVuSans-104"/>
      <use x="102.587891" xlink:href="#DejaVuSans-114"/>
      <use x="141.451172" xlink:href="#DejaVuSans-101"/>
      <use x="202.974609" xlink:href="#DejaVuSans-97"/>
      <use x="264.253906" xlink:href="#DejaVuSans-100"/>
      <use x="327.730469" xlink:href="#DejaVuSans-115"/>
     </g>
    </g>
   </g>
   <g id="matplotlib.axis_2">
    <g id="ytick_1">
     <g id="line2d_47">
      <path clip-path="url(#p48ffe2e5eb)" d="M 57.6 265.524278 
L 414.72 265.524278 
" style="fill:none;stroke:#b0b0b0;stroke-dasharray:5.12,1.28,0.8,1.28;stroke-dashoffset:0;stroke-width:0.8;"/>
     </g>
     <g id="line2d_48">
      <defs>
       <path d="M 0 0 
L -3.5 0 
" id="me88b6c8cef" style="stroke:#000000;stroke-width:0.8;"/>
      </defs>
      <g>
       <use style="stroke:#000000;stroke-width:0.8;" x="57.6" xlink:href="#me88b6c8cef" y="265.524278"/>
      </g>
     </g>
     <g id="text_25">
      <!-- 0.4 -->
      <defs>
       <path d="M 10.6875 12.40625 
L 21 12.40625 
L 21 0 
L 10.6875 0 
z
" id="DejaVuSans-46"/>
      </defs>
      <g transform="translate(34.696875 269.323497)scale(0.1 -0.1)">
       <use xlink:href="#DejaVuSans-48"/>
       <use x="63.623047" xlink:href="#DejaVuSans-46"/>
       <use x="95.410156" xlink:href="#DejaVuSans-52"/>
      </g>
     </g>
    </g>
    <g id="ytick_2">
     <g id="line2d_49">
      <path clip-path="url(#p48ffe2e5eb)" d="M 57.6 214.427912 
L 414.72 214.427912 
" style="fill:none;stroke:#b0b0b0;stroke-dasharray:5.12,1.28,0.8,1.28;stroke-dashoffset:0;stroke-width:0.8;"/>
     </g>
     <g id="line2d_50">
      <g>
       <use style="stroke:#000000;stroke-width:0.8;" x="57.6" xlink:href="#me88b6c8cef" y="214.427912"/>
      </g>
     </g>
     <g id="text_26">
      <!-- 0.6 -->
      <g transform="translate(34.696875 218.22713)scale(0.1 -0.1)">
       <use xlink:href="#DejaVuSans-48"/>
       <use x="63.623047" xlink:href="#DejaVuSans-46"/>
       <use x="95.410156" xlink:href="#DejaVuSans-54"/>
      </g>
     </g>
    </g>
    <g id="ytick_3">
     <g id="line2d_51">
      <path clip-path="url(#p48ffe2e5eb)" d="M 57.6 163.331545 
L 414.72 163.331545 
" style="fill:none;stroke:#b0b0b0;stroke-dasharray:5.12,1.28,0.8,1.28;stroke-dashoffset:0;stroke-width:0.8;"/>
     </g>
     <g id="line2d_52">
      <g>
       <use style="stroke:#000000;stroke-width:0.8;" x="57.6" xlink:href="#me88b6c8cef" y="163.331545"/>
      </g>
     </g>
     <g id="text_27">
      <!-- 0.8 -->
      <g transform="translate(34.696875 167.130764)scale(0.1 -0.1)">
       <use xlink:href="#DejaVuSans-48"/>
       <use x="63.623047" xlink:href="#DejaVuSans-46"/>
       <use x="95.410156" xlink:href="#DejaVuSans-56"/>
      </g>
     </g>
    </g>
    <g id="ytick_4">
     <g id="line2d_53">
      <path clip-path="url(#p48ffe2e5eb)" d="M 57.6 112.235179 
L 414.72 112.235179 
" style="fill:none;stroke:#b0b0b0;stroke-dasharray:5.12,1.28,0.8,1.28;stroke-dashoffset:0;stroke-width:0.8;"/>
     </g>
     <g id="line2d_54">
      <g>
       <use style="stroke:#000000;stroke-width:0.8;" x="57.6" xlink:href="#me88b6c8cef" y="112.235179"/>
      </g>
     </g>
     <g id="text_28">
      <!-- 1.0 -->
      <g transform="translate(34.696875 116.034398)scale(0.1 -0.1)">
       <use xlink:href="#DejaVuSans-49"/>
       <use x="63.623047" xlink:href="#DejaVuSans-46"/>
       <use x="95.410156" xlink:href="#DejaVuSans-48"/>
      </g>
     </g>
    </g>
    <g id="ytick_5">
     <g id="line2d_55">
      <path clip-path="url(#p48ffe2e5eb)" d="M 57.6 61.138813 
L 414.72 61.138813 
" style="fill:none;stroke:#b0b0b0;stroke-dasharray:5.12,1.28,0.8,1.28;stroke-dashoffset:0;stroke-width:0.8;"/>
     </g>
     <g id="line2d_56">
      <g>
       <use style="stroke:#000000;stroke-width:0.8;" x="57.6" xlink:href="#me88b6c8cef" y="61.138813"/>
      </g>
     </g>
     <g id="text_29">
      <!-- 1.2 -->
      <g transform="translate(34.696875 64.938031)scale(0.1 -0.1)">
       <use xlink:href="#DejaVuSans-49"/>
       <use x="63.623047" xlink:href="#DejaVuSans-46"/>
       <use x="95.410156" xlink:href="#DejaVuSans-50"/>
      </g>
     </g>
    </g>
    <g id="text_30">
     <!-- duration (s) -->
     <defs>
      <path d="M 8.5 21.578125 
L 8.5 54.6875 
L 17.484375 54.6875 
L 17.484375 21.921875 
Q 17.484375 14.15625 20.5 10.265625 
Q 23.53125 6.390625 29.59375 6.390625 
Q 36.859375 6.390625 41.078125 11.03125 
Q 45.3125 15.671875 45.3125 23.6875 
L 45.3125 54.6875 
L 54.296875 54.6875 
L 54.296875 0 
L 45.3125 0 
L 45.3125 8.40625 
Q 42.046875 3.421875 37.71875 1 
Q 33.40625 -1.421875 27.6875 -1.421875 
Q 18.265625 -1.421875 13.375 4.4375 
Q 8.5 10.296875 8.5 21.578125 
z
M 31.109375 56 
z
" id="DejaVuSans-117"/>
      <path d="M 9.421875 54.6875 
L 18.40625 54.6875 
L 18.40625 0 
L 9.421875 0 
z
M 9.421875 75.984375 
L 18.40625 75.984375 
L 18.40625 64.59375 
L 9.421875 64.59375 
z
" id="DejaVuSans-105"/>
      <path d="M 30.609375 48.390625 
Q 23.390625 48.390625 19.1875 42.75 
Q 14.984375 37.109375 14.984375 27.296875 
Q 14.984375 17.484375 19.15625 11.84375 
Q 23.34375 6.203125 30.609375 6.203125 
Q 37.796875 6.203125 41.984375 11.859375 
Q 46.1875 17.53125 46.1875 27.296875 
Q 46.1875 37.015625 41.984375 42.703125 
Q 37.796875 48.390625 30.609375 48.390625 
z
M 30.609375 56 
Q 42.328125 56 49.015625 48.375 
Q 55.71875 40.765625 55.71875 27.296875 
Q 55.71875 13.875 49.015625 6.21875 
Q 42.328125 -1.421875 30.609375 -1.421875 
Q 18.84375 -1.421875 12.171875 6.21875 
Q 5.515625 13.875 5.515625 27.296875 
Q 5.515625 40.765625 12.171875 48.375 
Q 18.84375 56 30.609375 56 
z
" id="DejaVuSans-111"/>
      <path d="M 54.890625 33.015625 
L 54.890625 0 
L 45.90625 0 
L 45.90625 32.71875 
Q 45.90625 40.484375 42.875 44.328125 
Q 39.84375 48.1875 33.796875 48.1875 
Q 26.515625 48.1875 22.3125 43.546875 
Q 18.109375 38.921875 18.109375 30.90625 
L 18.109375 0 
L 9.078125 0 
L 9.078125 54.6875 
L 18.109375 54.6875 
L 18.109375 46.1875 
Q 21.34375 51.125 25.703125 53.5625 
Q 30.078125 56 35.796875 56 
Q 45.21875 56 50.046875 50.171875 
Q 54.890625 44.34375 54.890625 33.015625 
z
" id="DejaVuSans-110"/>
      <path id="DejaVuSans-32"/>
      <path d="M 31 75.875 
Q 24.46875 64.65625 21.28125 53.65625 
Q 18.109375 42.671875 18.109375 31.390625 
Q 18.109375 20.125 21.3125 9.0625 
Q 24.515625 -2 31 -13.1875 
L 23.1875 -13.1875 
Q 15.875 -1.703125 12.234375 9.375 
Q 8.59375 20.453125 8.59375 31.390625 
Q 8.59375 42.28125 12.203125 53.3125 
Q 15.828125 64.359375 23.1875 75.875 
z
" id="DejaVuSans-40"/>
      <path d="M 8.015625 75.875 
L 15.828125 75.875 
Q 23.140625 64.359375 26.78125 53.3125 
Q 30.421875 42.28125 30.421875 31.390625 
Q 30.421875 20.453125 26.78125 9.375 
Q 23.140625 -1.703125 15.828125 -13.1875 
L 8.015625 -13.1875 
Q 14.5 -2 17.703125 9.0625 
Q 20.90625 20.125 20.90625 31.390625 
Q 20.90625 42.671875 17.703125 53.65625 
Q 14.5 64.65625 8.015625 75.875 
z
" id="DejaVuSans-41"/>
     </defs>
     <g transform="translate(28.617187 203.663156)rotate(-90)scale(0.1 -0.1)">
      <use xlink:href="#DejaVuSans-100"/>
      <use x="63.476562" xlink:href="#DejaVuSans-117"/>
      <use x="126.855469" xlink:href="#DejaVuSans-114"/>
      <use x="167.96875" xlink:href="#DejaVuSans-97"/>
      <use x="229.248047" xlink:href="#DejaVuSans-116"/>
      <use x="268.457031" xlink:href="#DejaVuSans-105"/>
      <use x="296.240234" xlink:href="#DejaVuSans-111"/>
      <use x="357.421875" xlink:href="#DejaVuSans-110"/>
      <use x="420.800781" xlink:href="#DejaVuSans-32"/>
      <use x="452.587891" xlink:href="#DejaVuSans-40"/>
      <use x="491.601562" xlink:href="#DejaVuSans-115"/>
      <use x="543.701172" xlink:href="#DejaVuSans-41"/>
     </g>
    </g>
   </g>
   <g id="line2d_57">
    <path clip-path="url(#p48ffe2e5eb)" d="M 61.612584 153.869043 
L 65.625169 208.773467 
L 69.637753 242.874017 
L 73.650337 261.190558 
L 77.662921 269.666653 
L 81.675506 275.412297 
L 85.68809 279.018761 
L 89.700674 286.183002 
L 93.713258 287.908211 
L 97.725843 292.133606 
L 101.738427 291.387943 
L 105.751011 293.474662 
L 109.763596 295.083851 
L 113.77618 295.488 
L 117.788764 293.833284 
L 121.801348 294.004802 
L 125.813933 294.324101 
L 129.826517 294.285326 
L 133.839101 294.285318 
L 137.851685 294.416486 
L 141.86427 293.978071 
L 145.876854 293.969543 
L 149.889438 294.483367 
L 153.902022 293.738175 
L 157.914607 292.981783 
L 161.927191 293.578369 
L 165.939775 292.764442 
L 169.95236 292.064689 
L 173.964944 292.354167 
L 177.977528 292.51064 
L 181.990112 292.481629 
L 186.002697 291.49929 
L 190.015281 290.157503 
L 194.027865 290.011733 
L 198.040449 288.148733 
L 202.053034 287.806723 
L 206.065618 287.187713 
L 210.078202 285.423948 
L 214.090787 284.817277 
L 218.103371 285.037881 
L 222.115955 282.437069 
L 226.128539 282.286765 
L 230.141124 283.589473 
L 234.153708 282.649337 
L 238.166292 284.247797 
L 242.178876 284.92878 
L 246.191461 286.009787 
L 250.204045 286.572454 
L 254.216629 283.621295 
L 258.229213 284.053245 
L 262.241798 284.052462 
L 266.254382 284.169699 
L 270.266966 283.971023 
L 274.279551 281.113651 
L 278.292135 281.554807 
L 282.304719 282.931201 
L 286.317303 282.765965 
L 290.329888 283.4021 
L 294.342472 283.26893 
L 298.355056 284.854973 
L 302.36764 285.081921 
L 306.380225 285.045156 
L 310.392809 283.501186 
L 314.405393 283.288648 
L 318.417978 283.324568 
L 322.430562 281.917745 
L 326.443146 278.531207 
L 330.45573 279.990554 
L 334.468315 281.169733 
L 338.480899 282.152646 
L 342.493483 284.803789 
L 346.506067 283.129747 
L 350.518652 278.862166 
L 354.531236 278.567884 
L 358.54382 278.934651 
L 362.556404 280.840123 
L 366.568989 283.244652 
L 370.581573 282.314105 
L 374.594157 283.193008 
L 378.606742 283.017678 
L 382.619326 283.712897 
L 386.63191 284.638641 
L 390.644494 285.877148 
L 394.657079 284.53771 
L 398.669663 279.623874 
L 402.682247 279.5794 
L 406.694831 281.198239 
L 410.707416 280.585912 
" style="fill:none;stroke:#0000ff;stroke-dasharray:1.5,2.475;stroke-dashoffset:0;stroke-width:1.5;"/>
    <defs>
     <path d="M 0 1.5 
C 0.397805 1.5 0.77937 1.341951 1.06066 1.06066 
C 1.341951 0.77937 1.5 0.397805 1.5 0 
C 1.5 -0.397805 1.341951 -0.77937 1.06066 -1.06066 
C 0.77937 -1.341951 0.397805 -1.5 0 -1.5 
C -0.397805 -1.5 -0.77937 -1.341951 -1.06066 -1.06066 
C -1.341951 -0.77937 -1.5 -0.397805 -1.5 0 
C -1.5 0.397805 -1.341951 0.77937 -1.06066 1.06066 
C -0.77937 1.341951 -0.397805 1.5 0 1.5 
z
" id="m7120523d51" style="stroke:#0000ff;"/>
    </defs>
    <g clip-path="url(#p48ffe2e5eb)">
     <use style="fill:#0000ff;stroke:#0000ff;" x="61.612584" xlink:href="#m7120523d51" y="153.869043"/>
     <use style="fill:#0000ff;stroke:#0000ff;" x="65.625169" xlink:href="#m7120523d51" y="208.773467"/>
     <use style="fill:#0000ff;stroke:#0000ff;" x="69.637753" xlink:href="#m7120523d51" y="242.874017"/>
     <use style="fill:#0000ff;stroke:#0000ff;" x="73.650337" xlink:href="#m7120523d51" y="261.190558"/>
     <use style="fill:#0000ff;stroke:#0000ff;" x="77.662921" xlink:href="#m7120523d51" y="269.666653"/>
     <use style="fill:#0000ff;stroke:#0000ff;" x="81.675506" xlink:href="#m7120523d51" y="275.412297"/>
     <use style="fill:#0000ff;stroke:#0000ff;" x="85.68809" xlink:href="#m7120523d51" y="279.018761"/>
     <use style="fill:#0000ff;stroke:#0000ff;" x="89.700674" xlink:href="#m7120523d51" y="286.183002"/>
     <use style="fill:#0000ff;stroke:#0000ff;" x="93.713258" xlink:href="#m7120523d51" y="287.908211"/>
     <use style="fill:#0000ff;stroke:#0000ff;" x="97.725843" xlink:href="#m7120523d51" y="292.133606"/>
     <use style="fill:#0000ff;stroke:#0000ff;" x="101.738427" xlink:href="#m7120523d51" y="291.387943"/>
     <use style="fill:#0000ff;stroke:#0000ff;" x="105.751011" xlink:href="#m7120523d51" y="293.474662"/>
     <use style="fill:#0000ff;stroke:#0000ff;" x="109.763596" xlink:href="#m7120523d51" y="295.083851"/>
     <use style="fill:#0000ff;stroke:#0000ff;" x="113.77618" xlink:href="#m7120523d51" y="295.488"/>
     <use style="fill:#0000ff;stroke:#0000ff;" x="117.788764" xlink:href="#m7120523d51" y="293.833284"/>
     <use style="fill:#0000ff;stroke:#0000ff;" x="121.801348" xlink:href="#m7120523d51" y="294.004802"/>
     <use style="fill:#0000ff;stroke:#0000ff;" x="125.813933" xlink:href="#m7120523d51" y="294.324101"/>
     <use style="fill:#0000ff;stroke:#0000ff;" x="129.826517" xlink:href="#m7120523d51" y="294.285326"/>
     <use style="fill:#0000ff;stroke:#0000ff;" x="133.839101" xlink:href="#m7120523d51" y="294.285318"/>
     <use style="fill:#0000ff;stroke:#0000ff;" x="137.851685" xlink:href="#m7120523d51" y="294.416486"/>
     <use style="fill:#0000ff;stroke:#0000ff;" x="141.86427" xlink:href="#m7120523d51" y="293.978071"/>
     <use style="fill:#0000ff;stroke:#0000ff;" x="145.876854" xlink:href="#m7120523d51" y="293.969543"/>
     <use style="fill:#0000ff;stroke:#0000ff;" x="149.889438" xlink:href="#m7120523d51" y="294.483367"/>
     <use style="fill:#0000ff;stroke:#0000ff;" x="153.902022" xlink:href="#m7120523d51" y="293.738175"/>
     <use style="fill:#0000ff;stroke:#0000ff;" x="157.914607" xlink:href="#m7120523d51" y="292.981783"/>
     <use style="fill:#0000ff;stroke:#0000ff;" x="161.927191" xlink:href="#m7120523d51" y="293.578369"/>
     <use style="fill:#0000ff;stroke:#0000ff;" x="165.939775" xlink:href="#m7120523d51" y="292.764442"/>
     <use style="fill:#0000ff;stroke:#0000ff;" x="169.95236" xlink:href="#m7120523d51" y="292.064689"/>
     <use style="fill:#0000ff;stroke:#0000ff;" x="173.964944" xlink:href="#m7120523d51" y="292.354167"/>
     <use style="fill:#0000ff;stroke:#0000ff;" x="177.977528" xlink:href="#m7120523d51" y="292.51064"/>
     <use style="fill:#0000ff;stroke:#0000ff;" x="181.990112" xlink:href="#m7120523d51" y="292.481629"/>
     <use style="fill:#0000ff;stroke:#0000ff;" x="186.002697" xlink:href="#m7120523d51" y="291.49929"/>
     <use style="fill:#0000ff;stroke:#0000ff;" x="190.015281" xlink:href="#m7120523d51" y="290.157503"/>
     <use style="fill:#0000ff;stroke:#0000ff;" x="194.027865" xlink:href="#m7120523d51" y="290.011733"/>
     <use style="fill:#0000ff;stroke:#0000ff;" x="198.040449" xlink:href="#m7120523d51" y="288.148733"/>
     <use style="fill:#0000ff;stroke:#0000ff;" x="202.053034" xlink:href="#m7120523d51" y="287.806723"/>
     <use style="fill:#0000ff;stroke:#0000ff;" x="206.065618" xlink:href="#m7120523d51" y="287.187713"/>
     <use style="fill:#0000ff;stroke:#0000ff;" x="210.078202" xlink:href="#m7120523d51" y="285.423948"/>
     <use style="fill:#0000ff;stroke:#0000ff;" x="214.090787" xlink:href="#m7120523d51" y="284.817277"/>
     <use style="fill:#0000ff;stroke:#0000ff;" x="218.103371" xlink:href="#m7120523d51" y="285.037881"/>
     <use style="fill:#0000ff;stroke:#0000ff;" x="222.115955" xlink:href="#m7120523d51" y="282.437069"/>
     <use style="fill:#0000ff;stroke:#0000ff;" x="226.128539" xlink:href="#m7120523d51" y="282.286765"/>
     <use style="fill:#0000ff;stroke:#0000ff;" x="230.141124" xlink:href="#m7120523d51" y="283.589473"/>
     <use style="fill:#0000ff;stroke:#0000ff;" x="234.153708" xlink:href="#m7120523d51" y="282.649337"/>
     <use style="fill:#0000ff;stroke:#0000ff;" x="238.166292" xlink:href="#m7120523d51" y="284.247797"/>
     <use style="fill:#0000ff;stroke:#0000ff;" x="242.178876" xlink:href="#m7120523d51" y="284.92878"/>
     <use style="fill:#0000ff;stroke:#0000ff;" x="246.191461" xlink:href="#m7120523d51" y="286.009787"/>
     <use style="fill:#0000ff;stroke:#0000ff;" x="250.204045" xlink:href="#m7120523d51" y="286.572454"/>
     <use style="fill:#0000ff;stroke:#0000ff;" x="254.216629" xlink:href="#m7120523d51" y="283.621295"/>
     <use style="fill:#0000ff;stroke:#0000ff;" x="258.229213" xlink:href="#m7120523d51" y="284.053245"/>
     <use style="fill:#0000ff;stroke:#0000ff;" x="262.241798" xlink:href="#m7120523d51" y="284.052462"/>
     <use style="fill:#0000ff;stroke:#0000ff;" x="266.254382" xlink:href="#m7120523d51" y="284.169699"/>
     <use style="fill:#0000ff;stroke:#0000ff;" x="270.266966" xlink:href="#m7120523d51" y="283.971023"/>
     <use style="fill:#0000ff;stroke:#0000ff;" x="274.279551" xlink:href="#m7120523d51" y="281.113651"/>
     <use style="fill:#0000ff;stroke:#0000ff;" x="278.292135" xlink:href="#m7120523d51" y="281.554807"/>
     <use style="fill:#0000ff;stroke:#0000ff;" x="282.304719" xlink:href="#m7120523d51" y="282.931201"/>
     <use style="fill:#0000ff;stroke:#0000ff;" x="286.317303" xlink:href="#m7120523d51" y="282.765965"/>
     <use style="fill:#0000ff;stroke:#0000ff;" x="290.329888" xlink:href="#m7120523d51" y="283.4021"/>
     <use style="fill:#0000ff;stroke:#0000ff;" x="294.342472" xlink:href="#m7120523d51" y="283.26893"/>
     <use style="fill:#0000ff;stroke:#0000ff;" x="298.355056" xlink:href="#m7120523d51" y="284.854973"/>
     <use style="fill:#0000ff;stroke:#0000ff;" x="302.36764" xlink:href="#m7120523d51" y="285.081921"/>
     <use style="fill:#0000ff;stroke:#0000ff;" x="306.380225" xlink:href="#m7120523d51" y="285.045156"/>
     <use style="fill:#0000ff;stroke:#0000ff;" x="310.392809" xlink:href="#m7120523d51" y="283.501186"/>
     <use style="fill:#0000ff;stroke:#0000ff;" x="314.405393" xlink:href="#m7120523d51" y="283.288648"/>
     <use style="fill:#0000ff;stroke:#0000ff;" x="318.417978" xlink:href="#m7120523d51" y="283.324568"/>
     <use style="fill:#0000ff;stroke:#0000ff;" x="322.430562" xlink:href="#m7120523d51" y="281.917745"/>
     <use style="fill:#0000ff;stroke:#0000ff;" x="326.443146" xlink:href="#m7120523d51" y="278.531207"/>
     <use style="fill:#0000ff;stroke:#0000ff;" x="330.45573" xlink:href="#m7120523d51" y="279.990554"/>
     <use style="fill:#0000ff;stroke:#0000ff;" x="334.468315" xlink:href="#m7120523d51" y="281.169733"/>
     <use style="fill:#0000ff;stroke:#0000ff;" x="338.480899" xlink:href="#m7120523d51" y="282.152646"/>
     <use style="fill:#0000ff;stroke:#0000ff;" x="342.493483" xlink:href="#m7120523d51" y="284.803789"/>
     <use style="fill:#0000ff;stroke:#0000ff;" x="346.506067" xlink:href="#m7120523d51" y="283.129747"/>
     <use style="fill:#0000ff;stroke:#0000ff;" x="350.518652" xlink:href="#m7120523d51" y="278.862166"/>
     <use style="fill:#0000ff;stroke:#0000ff;" x="354.531236" xlink:href="#m7120523d51" y="278.567884"/>
     <use style="fill:#0000ff;stroke:#0000ff;" x="358.54382" xlink:href="#m7120523d51" y="278.934651"/>
     <use style="fill:#0000ff;stroke:#0000ff;" x="362.556404" xlink:href="#m7120523d51" y="280.840123"/>
     <use style="fill:#0000ff;stroke:#0000ff;" x="366.568989" xlink:href="#m7120523d51" y="283.244652"/>
     <use style="fill:#0000ff;stroke:#0000ff;" x="370.581573" xlink:href="#m7120523d51" y="282.314105"/>
     <use style="fill:#0000ff;stroke:#0000ff;" x="374.594157" xlink:href="#m7120523d51" y="283.193008"/>
     <use style="fill:#0000ff;stroke:#0000ff;" x="378.606742" xlink:href="#m7120523d51" y="283.017678"/>
     <use style="fill:#0000ff;stroke:#0000ff;" x="382.619326" xlink:href="#m7120523d51" y="283.712897"/>
     <use style="fill:#0000ff;stroke:#0000ff;" x="386.63191" xlink:href="#m7120523d51" y="284.638641"/>
     <use style="fill:#0000ff;stroke:#0000ff;" x="390.644494" xlink:href="#m7120523d51" y="285.877148"/>
     <use style="fill:#0000ff;stroke:#0000ff;" x="394.657079" xlink:href="#m7120523d51" y="284.53771"/>
     <use style="fill:#0000ff;stroke:#0000ff;" x="398.669663" xlink:href="#m7120523d51" y="279.623874"/>
     <use style="fill:#0000ff;stroke:#0000ff;" x="402.682247" xlink:href="#m7120523d51" y="279.5794"/>
     <use style="fill:#0000ff;stroke:#0000ff;" x="406.694831" xlink:href="#m7120523d51" y="281.198239"/>
     <use style="fill:#0000ff;stroke:#0000ff;" x="410.707416" xlink:href="#m7120523d51" y="280.585912"/>
    </g>
   </g>
   <g id="line2d_58">
    <path clip-path="url(#p48ffe2e5eb)" d="M 61.612584 63.064765 
L 65.625169 125.813762 
L 69.637753 165.146437 
L 73.650337 179.461728 
L 77.662921 178.376465 
L 81.675506 192.105656 
L 85.68809 194.520741 
L 89.700674 192.940206 
L 93.713258 192.948229 
L 97.725843 190.485138 
L 101.738427 188.254963 
L 105.751011 183.923599 
L 109.763596 181.278991 
L 113.77618 178.857406 
L 117.788764 174.664973 
L 121.801348 171.560186 
L 125.813933 167.496528 
L 129.826517 163.80364 
L 133.839101 159.865434 
L 137.851685 156.133301 
L 141.86427 151.911691 
L 145.876854 147.374385 
L 149.889438 144.438872 
L 153.902022 140.49534 
L 157.914607 138.035094 
L 161.927191 134.538097 
L 165.939775 129.994395 
L 169.95236 125.342158 
L 173.964944 122.155088 
L 177.977528 117.053766 
L 181.990112 113.120634 
L 186.002697 110.010913 
L 190.015281 106.528378 
L 194.027865 102.682976 
L 198.040449 98.120687 
L 202.053034 94.10823 
L 206.065618 90.75911 
L 210.078202 84.78395 
L 214.090787 80.856534 
L 218.103371 78.46041 
L 222.115955 69.122616 
L 226.128539 61.40025 
L 230.141124 62.745753 
L 234.153708 58.312162 
L 238.166292 59.688817 
L 242.178876 61.295778 
L 246.191461 63.756738 
L 250.204045 64.608883 
L 254.216629 60.273612 
L 258.229213 60.648218 
L 262.241798 60.965455 
L 266.254382 61.253349 
L 270.266966 58.258795 
L 274.279551 54.685232 
L 278.292135 56.201192 
L 282.304719 59.021756 
L 286.317303 56.425433 
L 290.329888 57.262968 
L 294.342472 58.64172 
L 298.355056 60.808981 
L 302.36764 61.366732 
L 306.380225 61.72893 
L 310.392809 58.143872 
L 314.405393 58.101608 
L 318.417978 57.42729 
L 322.430562 55.561454 
L 326.443146 54.214011 
L 330.45573 55.134429 
L 334.468315 58.018029 
L 338.480899 58.318941 
L 342.493483 57.773677 
L 346.506067 57.927436 
L 350.518652 57.013631 
L 354.531236 57.063178 
L 358.54382 57.31242 
L 362.556404 59.035862 
L 366.568989 57.919482 
L 370.581573 55.987723 
L 374.594157 57.088918 
L 378.606742 57.734337 
L 382.619326 59.123313 
L 386.63191 60.825193 
L 390.644494 62.222888 
L 394.657079 58.091862 
L 398.669663 53.568 
L 402.682247 54.041335 
L 406.694831 54.867941 
L 410.707416 54.37058 
" style="fill:none;stroke:#ff0000;stroke-dasharray:1.5,2.475;stroke-dashoffset:0;stroke-width:1.5;"/>
    <defs>
     <path d="M 0 1.5 
C 0.397805 1.5 0.77937 1.341951 1.06066 1.06066 
C 1.341951 0.77937 1.5 0.397805 1.5 0 
C 1.5 -0.397805 1.341951 -0.77937 1.06066 -1.06066 
C 0.77937 -1.341951 0.397805 -1.5 0 -1.5 
C -0.397805 -1.5 -0.77937 -1.341951 -1.06066 -1.06066 
C -1.341951 -0.77937 -1.5 -0.397805 -1.5 0 
C -1.5 0.397805 -1.341951 0.77937 -1.06066 1.06066 
C -0.77937 1.341951 -0.397805 1.5 0 1.5 
z
" id="m32bc84c662" style="stroke:#ff0000;"/>
    </defs>
    <g clip-path="url(#p48ffe2e5eb)">
     <use style="fill:#ff0000;stroke:#ff0000;" x="61.612584" xlink:href="#m32bc84c662" y="63.064765"/>
     <use style="fill:#ff0000;stroke:#ff0000;" x="65.625169" xlink:href="#m32bc84c662" y="125.813762"/>
     <use style="fill:#ff0000;stroke:#ff0000;" x="69.637753" xlink:href="#m32bc84c662" y="165.146437"/>
     <use style="fill:#ff0000;stroke:#ff0000;" x="73.650337" xlink:href="#m32bc84c662" y="179.461728"/>
     <use style="fill:#ff0000;stroke:#ff0000;" x="77.662921" xlink:href="#m32bc84c662" y="178.376465"/>
     <use style="fill:#ff0000;stroke:#ff0000;" x="81.675506" xlink:href="#m32bc84c662" y="192.105656"/>
     <use style="fill:#ff0000;stroke:#ff0000;" x="85.68809" xlink:href="#m32bc84c662" y="194.520741"/>
     <use style="fill:#ff0000;stroke:#ff0000;" x="89.700674" xlink:href="#m32bc84c662" y="192.940206"/>
     <use style="fill:#ff0000;stroke:#ff0000;" x="93.713258" xlink:href="#m32bc84c662" y="192.948229"/>
     <use style="fill:#ff0000;stroke:#ff0000;" x="97.725843" xlink:href="#m32bc84c662" y="190.485138"/>
     <use style="fill:#ff0000;stroke:#ff0000;" x="101.738427" xlink:href="#m32bc84c662" y="188.254963"/>
     <use style="fill:#ff0000;stroke:#ff0000;" x="105.751011" xlink:href="#m32bc84c662" y="183.923599"/>
     <use style="fill:#ff0000;stroke:#ff0000;" x="109.763596" xlink:href="#m32bc84c662" y="181.278991"/>
     <use style="fill:#ff0000;stroke:#ff0000;" x="113.77618" xlink:href="#m32bc84c662" y="178.857406"/>
     <use style="fill:#ff0000;stroke:#ff0000;" x="117.788764" xlink:href="#m32bc84c662" y="174.664973"/>
     <use style="fill:#ff0000;stroke:#ff0000;" x="121.801348" xlink:href="#m32bc84c662" y="171.560186"/>
     <use style="fill:#ff0000;stroke:#ff0000;" x="125.813933" xlink:href="#m32bc84c662" y="167.496528"/>
     <use style="fill:#ff0000;stroke:#ff0000;" x="129.826517" xlink:href="#m32bc84c662" y="163.80364"/>
     <use style="fill:#ff0000;stroke:#ff0000;" x="133.839101" xlink:href="#m32bc84c662" y="159.865434"/>
     <use style="fill:#ff0000;stroke:#ff0000;" x="137.851685" xlink:href="#m32bc84c662" y="156.133301"/>
     <use style="fill:#ff0000;stroke:#ff0000;" x="141.86427" xlink:href="#m32bc84c662" y="151.911691"/>
     <use style="fill:#ff0000;stroke:#ff0000;" x="145.876854" xlink:href="#m32bc84c662" y="147.374385"/>
     <use style="fill:#ff0000;stroke:#ff0000;" x="149.889438" xlink:href="#m32bc84c662" y="144.438872"/>
     <use style="fill:#ff0000;stroke:#ff0000;" x="153.902022" xlink:href="#m32bc84c662" y="140.49534"/>
     <use style="fill:#ff0000;stroke:#ff0000;" x="157.914607" xlink:href="#m32bc84c662" y="138.035094"/>
     <use style="fill:#ff0000;stroke:#ff0000;" x="161.927191" xlink:href="#m32bc84c662" y="134.538097"/>
     <use style="fill:#ff0000;stroke:#ff0000;" x="165.939775" xlink:href="#m32bc84c662" y="129.994395"/>
     <use style="fill:#ff0000;stroke:#ff0000;" x="169.95236" xlink:href="#m32bc84c662" y="125.342158"/>
     <use style="fill:#ff0000;stroke:#ff0000;" x="173.964944" xlink:href="#m32bc84c662" y="122.155088"/>
     <use style="fill:#ff0000;stroke:#ff0000;" x="177.977528" xlink:href="#m32bc84c662" y="117.053766"/>
     <use style="fill:#ff0000;stroke:#ff0000;" x="181.990112" xlink:href="#m32bc84c662" y="113.120634"/>
     <use style="fill:#ff0000;stroke:#ff0000;" x="186.002697" xlink:href="#m32bc84c662" y="110.010913"/>
     <use style="fill:#ff0000;stroke:#ff0000;" x="190.015281" xlink:href="#m32bc84c662" y="106.528378"/>
     <use style="fill:#ff0000;stroke:#ff0000;" x="194.027865" xlink:href="#m32bc84c662" y="102.682976"/>
     <use style="fill:#ff0000;stroke:#ff0000;" x="198.040449" xlink:href="#m32bc84c662" y="98.120687"/>
     <use style="fill:#ff0000;stroke:#ff0000;" x="202.053034" xlink:href="#m32bc84c662" y="94.10823"/>
     <use style="fill:#ff0000;stroke:#ff0000;" x="206.065618" xlink:href="#m32bc84c662" y="90.75911"/>
     <use style="fill:#ff0000;stroke:#ff0000;" x="210.078202" xlink:href="#m32bc84c662" y="84.78395"/>
     <use style="fill:#ff0000;stroke:#ff0000;" x="214.090787" xlink:href="#m32bc84c662" y="80.856534"/>
     <use style="fill:#ff0000;stroke:#ff0000;" x="218.103371" xlink:href="#m32bc84c662" y="78.46041"/>
     <use style="fill:#ff0000;stroke:#ff0000;" x="222.115955" xlink:href="#m32bc84c662" y="69.122616"/>
     <use style="fill:#ff0000;stroke:#ff0000;" x="226.128539" xlink:href="#m32bc84c662" y="61.40025"/>
     <use style="fill:#ff0000;stroke:#ff0000;" x="230.141124" xlink:href="#m32bc84c662" y="62.745753"/>
     <use style="fill:#ff0000;stroke:#ff0000;" x="234.153708" xlink:href="#m32bc84c662" y="58.312162"/>
     <use style="fill:#ff0000;stroke:#ff0000;" x="238.166292" xlink:href="#m32bc84c662" y="59.688817"/>
     <use style="fill:#ff0000;stroke:#ff0000;" x="242.178876" xlink:href="#m32bc84c662" y="61.295778"/>
     <use style="fill:#ff0000;stroke:#ff0000;" x="246.191461" xlink:href="#m32bc84c662" y="63.756738"/>
     <use style="fill:#ff0000;stroke:#ff0000;" x="250.204045" xlink:href="#m32bc84c662" y="64.608883"/>
     <use style="fill:#ff0000;stroke:#ff0000;" x="254.216629" xlink:href="#m32bc84c662" y="60.273612"/>
     <use style="fill:#ff0000;stroke:#ff0000;" x="258.229213" xlink:href="#m32bc84c662" y="60.648218"/>
     <use style="fill:#ff0000;stroke:#ff0000;" x="262.241798" xlink:href="#m32bc84c662" y="60.965455"/>
     <use style="fill:#ff0000;stroke:#ff0000;" x="266.254382" xlink:href="#m32bc84c662" y="61.253349"/>
     <use style="fill:#ff0000;stroke:#ff0000;" x="270.266966" xlink:href="#m32bc84c662" y="58.258795"/>
     <use style="fill:#ff0000;stroke:#ff0000;" x="274.279551" xlink:href="#m32bc84c662" y="54.685232"/>
     <use style="fill:#ff0000;stroke:#ff0000;" x="278.292135" xlink:href="#m32bc84c662" y="56.201192"/>
     <use style="fill:#ff0000;stroke:#ff0000;" x="282.304719" xlink:href="#m32bc84c662" y="59.021756"/>
     <use style="fill:#ff0000;stroke:#ff0000;" x="286.317303" xlink:href="#m32bc84c662" y="56.425433"/>
     <use style="fill:#ff0000;stroke:#ff0000;" x="290.329888" xlink:href="#m32bc84c662" y="57.262968"/>
     <use style="fill:#ff0000;stroke:#ff0000;" x="294.342472" xlink:href="#m32bc84c662" y="58.64172"/>
     <use style="fill:#ff0000;stroke:#ff0000;" x="298.355056" xlink:href="#m32bc84c662" y="60.808981"/>
     <use style="fill:#ff0000;stroke:#ff0000;" x="302.36764" xlink:href="#m32bc84c662" y="61.366732"/>
     <use style="fill:#ff0000;stroke:#ff0000;" x="306.380225" xlink:href="#m32bc84c662" y="61.72893"/>
     <use style="fill:#ff0000;stroke:#ff0000;" x="310.392809" xlink:href="#m32bc84c662" y="58.143872"/>
     <use style="fill:#ff0000;stroke:#ff0000;" x="314.405393" xlink:href="#m32bc84c662" y="58.101608"/>
     <use style="fill:#ff0000;stroke:#ff0000;" x="318.417978" xlink:href="#m32bc84c662" y="57.42729"/>
     <use style="fill:#ff0000;stroke:#ff0000;" x="322.430562" xlink:href="#m32bc84c662" y="55.561454"/>
     <use style="fill:#ff0000;stroke:#ff0000;" x="326.443146" xlink:href="#m32bc84c662" y="54.214011"/>
     <use style="fill:#ff0000;stroke:#ff0000;" x="330.45573" xlink:href="#m32bc84c662" y="55.134429"/>
     <use style="fill:#ff0000;stroke:#ff0000;" x="334.468315" xlink:href="#m32bc84c662" y="58.018029"/>
     <use style="fill:#ff0000;stroke:#ff0000;" x="338.480899" xlink:href="#m32bc84c662" y="58.318941"/>
     <use style="fill:#ff0000;stroke:#ff0000;" x="342.493483" xlink:href="#m32bc84c662" y="57.773677"/>
     <use style="fill:#ff0000;stroke:#ff0000;" x="346.506067" xlink:href="#m32bc84c662" y="57.927436"/>
     <use style="fill:#ff0000;stroke:#ff0000;" x="350.518652" xlink:href="#m32bc84c662" y="57.013631"/>
     <use style="fill:#ff0000;stroke:#ff0000;" x="354.531236" xlink:href="#m32bc84c662" y="57.063178"/>
     <use style="fill:#ff0000;stroke:#ff0000;" x="358.54382" xlink:href="#m32bc84c662" y="57.31242"/>
     <use style="fill:#ff0000;stroke:#ff0000;" x="362.556404" xlink:href="#m32bc84c662" y="59.035862"/>
     <use style="fill:#ff0000;stroke:#ff0000;" x="366.568989" xlink:href="#m32bc84c662" y="57.919482"/>
     <use style="fill:#ff0000;stroke:#ff0000;" x="370.581573" xlink:href="#m32bc84c662" y="55.987723"/>
     <use style="fill:#ff0000;stroke:#ff0000;" x="374.594157" xlink:href="#m32bc84c662" y="57.088918"/>
     <use style="fill:#ff0000;stroke:#ff0000;" x="378.606742" xlink:href="#m32bc84c662" y="57.734337"/>
     <use style="fill:#ff0000;stroke:#ff0000;" x="382.619326" xlink:href="#m32bc84c662" y="59.123313"/>
     <use style="fill:#ff0000;stroke:#ff0000;" x="386.63191" xlink:href="#m32bc84c662" y="60.825193"/>
     <use style="fill:#ff0000;stroke:#ff0000;" x="390.644494" xlink:href="#m32bc84c662" y="62.222888"/>
     <use style="fill:#ff0000;stroke:#ff0000;" x="394.657079" xlink:href="#m32bc84c662" y="58.091862"/>
     <use style="fill:#ff0000;stroke:#ff0000;" x="398.669663" xlink:href="#m32bc84c662" y="53.568"/>
     <use style="fill:#ff0000;stroke:#ff0000;" x="402.682247" xlink:href="#m32bc84c662" y="54.041335"/>
     <use style="fill:#ff0000;stroke:#ff0000;" x="406.694831" xlink:href="#m32bc84c662" y="54.867941"/>
     <use style="fill:#ff0000;stroke:#ff0000;" x="410.707416" xlink:href="#m32bc84c662" y="54.37058"/>
    </g>
   </g>
   <g id="line2d_59">
    <path clip-path="url(#p48ffe2e5eb)" d="M 61.612584 108.466904 
L 65.625169 167.293614 
L 69.637753 204.010227 
L 73.650337 220.326143 
L 77.662921 224.021559 
L 81.675506 233.758977 
L 85.68809 236.769751 
L 89.700674 239.561604 
L 93.713258 240.42822 
L 97.725843 241.309372 
L 101.738427 239.821453 
L 105.751011 238.699131 
L 109.763596 238.181421 
L 113.77618 237.172703 
L 117.788764 234.249128 
L 121.801348 232.782494 
L 125.813933 230.910315 
L 129.826517 229.044483 
L 133.839101 227.075376 
L 137.851685 225.274894 
L 141.86427 222.944881 
L 145.876854 220.671964 
L 149.889438 219.461119 
L 153.902022 217.116758 
L 157.914607 215.508439 
L 161.927191 214.058233 
L 165.939775 211.379419 
L 169.95236 208.703423 
L 173.964944 207.254628 
L 177.977528 204.782203 
L 181.990112 202.801131 
L 186.002697 200.755101 
L 190.015281 198.342941 
L 194.027865 196.347354 
L 198.040449 193.13471 
L 202.053034 190.957477 
L 206.065618 188.973411 
L 210.078202 185.103949 
L 214.090787 182.836906 
L 218.103371 181.749146 
L 222.115955 175.779842 
L 226.128539 171.843508 
L 230.141124 173.167613 
L 234.153708 170.480749 
L 238.166292 171.968307 
L 242.178876 173.112279 
L 246.191461 174.883263 
L 250.204045 175.590668 
L 254.216629 171.947453 
L 258.229213 172.350732 
L 262.241798 172.508958 
L 266.254382 172.711524 
L 270.266966 171.114909 
L 274.279551 167.899441 
L 278.292135 168.878 
L 282.304719 170.976479 
L 286.317303 169.595699 
L 290.329888 170.332534 
L 294.342472 170.955325 
L 298.355056 172.831977 
L 302.36764 173.224326 
L 306.380225 173.387043 
L 310.392809 170.822529 
L 314.405393 170.695128 
L 318.417978 170.375929 
L 322.430562 168.7396 
L 326.443146 166.372609 
L 330.45573 167.562491 
L 334.468315 169.593881 
L 338.480899 170.235793 
L 342.493483 171.288733 
L 346.506067 170.528591 
L 350.518652 167.937898 
L 354.531236 167.815531 
L 358.54382 168.123535 
L 362.556404 169.937992 
L 366.568989 170.582067 
L 370.581573 169.150914 
L 374.594157 170.140963 
L 378.606742 170.376008 
L 382.619326 171.418105 
L 386.63191 172.731917 
L 390.644494 174.050018 
L 394.657079 171.314786 
L 398.669663 166.595937 
L 402.682247 166.810368 
L 406.694831 168.03309 
L 410.707416 167.478246 
" style="fill:none;stroke:#008000;stroke-dasharray:1.5,2.475;stroke-dashoffset:0;stroke-width:1.5;"/>
    <defs>
     <path d="M 0 1.5 
C 0.397805 1.5 0.77937 1.341951 1.06066 1.06066 
C 1.341951 0.77937 1.5 0.397805 1.5 0 
C 1.5 -0.397805 1.341951 -0.77937 1.06066 -1.06066 
C 0.77937 -1.341951 0.397805 -1.5 0 -1.5 
C -0.397805 -1.5 -0.77937 -1.341951 -1.06066 -1.06066 
C -1.341951 -0.77937 -1.5 -0.397805 -1.5 0 
C -1.5 0.397805 -1.341951 0.77937 -1.06066 1.06066 
C -0.77937 1.341951 -0.397805 1.5 0 1.5 
z
" id="mf30b0992a4" style="stroke:#008000;"/>
    </defs>
    <g clip-path="url(#p48ffe2e5eb)">
     <use style="fill:#008000;stroke:#008000;" x="61.612584" xlink:href="#mf30b0992a4" y="108.466904"/>
     <use style="fill:#008000;stroke:#008000;" x="65.625169" xlink:href="#mf30b0992a4" y="167.293614"/>
     <use style="fill:#008000;stroke:#008000;" x="69.637753" xlink:href="#mf30b0992a4" y="204.010227"/>
     <use style="fill:#008000;stroke:#008000;" x="73.650337" xlink:href="#mf30b0992a4" y="220.326143"/>
     <use style="fill:#008000;stroke:#008000;" x="77.662921" xlink:href="#mf30b0992a4" y="224.021559"/>
     <use style="fill:#008000;stroke:#008000;" x="81.675506" xlink:href="#mf30b0992a4" y="233.758977"/>
     <use style="fill:#008000;stroke:#008000;" x="85.68809" xlink:href="#mf30b0992a4" y="236.769751"/>
     <use style="fill:#008000;stroke:#008000;" x="89.700674" xlink:href="#mf30b0992a4" y="239.561604"/>
     <use style="fill:#008000;stroke:#008000;" x="93.713258" xlink:href="#mf30b0992a4" y="240.42822"/>
     <use style="fill:#008000;stroke:#008000;" x="97.725843" xlink:href="#mf30b0992a4" y="241.309372"/>
     <use style="fill:#008000;stroke:#008000;" x="101.738427" xlink:href="#mf30b0992a4" y="239.821453"/>
     <use style="fill:#008000;stroke:#008000;" x="105.751011" xlink:href="#mf30b0992a4" y="238.699131"/>
     <use style="fill:#008000;stroke:#008000;" x="109.763596" xlink:href="#mf30b0992a4" y="238.181421"/>
     <use style="fill:#008000;stroke:#008000;" x="113.77618" xlink:href="#mf30b0992a4" y="237.172703"/>
     <use style="fill:#008000;stroke:#008000;" x="117.788764" xlink:href="#mf30b0992a4" y="234.249128"/>
     <use style="fill:#008000;stroke:#008000;" x="121.801348" xlink:href="#mf30b0992a4" y="232.782494"/>
     <use style="fill:#008000;stroke:#008000;" x="125.813933" xlink:href="#mf30b0992a4" y="230.910315"/>
     <use style="fill:#008000;stroke:#008000;" x="129.826517" xlink:href="#mf30b0992a4" y="229.044483"/>
     <use style="fill:#008000;stroke:#008000;" x="133.839101" xlink:href="#mf30b0992a4" y="227.075376"/>
     <use style="fill:#008000;stroke:#008000;" x="137.851685" xlink:href="#mf30b0992a4" y="225.274894"/>
     <use style="fill:#008000;stroke:#008000;" x="141.86427" xlink:href="#mf30b0992a4" y="222.944881"/>
     <use style="fill:#008000;stroke:#008000;" x="145.876854" xlink:href="#mf30b0992a4" y="220.671964"/>
     <use style="fill:#008000;stroke:#008000;" x="149.889438" xlink:href="#mf30b0992a4" y="219.461119"/>
     <use style="fill:#008000;stroke:#008000;" x="153.902022" xlink:href="#mf30b0992a4" y="217.116758"/>
     <use style="fill:#008000;stroke:#008000;" x="157.914607" xlink:href="#mf30b0992a4" y="215.508439"/>
     <use style="fill:#008000;stroke:#008000;" x="161.927191" xlink:href="#mf30b0992a4" y="214.058233"/>
     <use style="fill:#008000;stroke:#008000;" x="165.939775" xlink:href="#mf30b0992a4" y="211.379419"/>
     <use style="fill:#008000;stroke:#008000;" x="169.95236" xlink:href="#mf30b0992a4" y="208.703423"/>
     <use style="fill:#008000;stroke:#008000;" x="173.964944" xlink:href="#mf30b0992a4" y="207.254628"/>
     <use style="fill:#008000;stroke:#008000;" x="177.977528" xlink:href="#mf30b0992a4" y="204.782203"/>
     <use style="fill:#008000;stroke:#008000;" x="181.990112" xlink:href="#mf30b0992a4" y="202.801131"/>
     <use style="fill:#008000;stroke:#008000;" x="186.002697" xlink:href="#mf30b0992a4" y="200.755101"/>
     <use style="fill:#008000;stroke:#008000;" x="190.015281" xlink:href="#mf30b0992a4" y="198.342941"/>
     <use style="fill:#008000;stroke:#008000;" x="194.027865" xlink:href="#mf30b0992a4" y="196.347354"/>
     <use style="fill:#008000;stroke:#008000;" x="198.040449" xlink:href="#mf30b0992a4" y="193.13471"/>
     <use style="fill:#008000;stroke:#008000;" x="202.053034" xlink:href="#mf30b0992a4" y="190.957477"/>
     <use style="fill:#008000;stroke:#008000;" x="206.065618" xlink:href="#mf30b0992a4" y="188.973411"/>
     <use style="fill:#008000;stroke:#008000;" x="210.078202" xlink:href="#mf30b0992a4" y="185.103949"/>
     <use style="fill:#008000;stroke:#008000;" x="214.090787" xlink:href="#mf30b0992a4" y="182.836906"/>
     <use style="fill:#008000;stroke:#008000;" x="218.103371" xlink:href="#mf30b0992a4" y="181.749146"/>
     <use style="fill:#008000;stroke:#008000;" x="222.115955" xlink:href="#mf30b0992a4" y="175.779842"/>
     <use style="fill:#008000;stroke:#008000;" x="226.128539" xlink:href="#mf30b0992a4" y="171.843508"/>
     <use style="fill:#008000;stroke:#008000;" x="230.141124" xlink:href="#mf30b0992a4" y="173.167613"/>
     <use style="fill:#008000;stroke:#008000;" x="234.153708" xlink:href="#mf30b0992a4" y="170.480749"/>
     <use style="fill:#008000;stroke:#008000;" x="238.166292" xlink:href="#mf30b0992a4" y="171.968307"/>
     <use style="fill:#008000;stroke:#008000;" x="242.178876" xlink:href="#mf30b0992a4" y="173.112279"/>
     <use style="fill:#008000;stroke:#008000;" x="246.191461" xlink:href="#mf30b0992a4" y="174.883263"/>
     <use style="fill:#008000;stroke:#008000;" x="250.204045" xlink:href="#mf30b0992a4" y="175.590668"/>
     <use style="fill:#008000;stroke:#008000;" x="254.216629" xlink:href="#mf30b0992a4" y="171.947453"/>
     <use style="fill:#008000;stroke:#008000;" x="258.229213" xlink:href="#mf30b0992a4" y="172.350732"/>
     <use style="fill:#008000;stroke:#008000;" x="262.241798" xlink:href="#mf30b0992a4" y="172.508958"/>
     <use style="fill:#008000;stroke:#008000;" x="266.254382" xlink:href="#mf30b0992a4" y="172.711524"/>
     <use style="fill:#008000;stroke:#008000;" x="270.266966" xlink:href="#mf30b0992a4" y="171.114909"/>
     <use style="fill:#008000;stroke:#008000;" x="274.279551" xlink:href="#mf30b0992a4" y="167.899441"/>
     <use style="fill:#008000;stroke:#008000;" x="278.292135" xlink:href="#mf30b0992a4" y="168.878"/>
     <use style="fill:#008000;stroke:#008000;" x="282.304719" xlink:href="#mf30b0992a4" y="170.976479"/>
     <use style="fill:#008000;stroke:#008000;" x="286.317303" xlink:href="#mf30b0992a4" y="169.595699"/>
     <use style="fill:#008000;stroke:#008000;" x="290.329888" xlink:href="#mf30b0992a4" y="170.332534"/>
     <use style="fill:#008000;stroke:#008000;" x="294.342472" xlink:href="#mf30b0992a4" y="170.955325"/>
     <use style="fill:#008000;stroke:#008000;" x="298.355056" xlink:href="#mf30b0992a4" y="172.831977"/>
     <use style="fill:#008000;stroke:#008000;" x="302.36764" xlink:href="#mf30b0992a4" y="173.224326"/>
     <use style="fill:#008000;stroke:#008000;" x="306.380225" xlink:href="#mf30b0992a4" y="173.387043"/>
     <use style="fill:#008000;stroke:#008000;" x="310.392809" xlink:href="#mf30b0992a4" y="170.822529"/>
     <use style="fill:#008000;stroke:#008000;" x="314.405393" xlink:href="#mf30b0992a4" y="170.695128"/>
     <use style="fill:#008000;stroke:#008000;" x="318.417978" xlink:href="#mf30b0992a4" y="170.375929"/>
     <use style="fill:#008000;stroke:#008000;" x="322.430562" xlink:href="#mf30b0992a4" y="168.7396"/>
     <use style="fill:#008000;stroke:#008000;" x="326.443146" xlink:href="#mf30b0992a4" y="166.372609"/>
     <use style="fill:#008000;stroke:#008000;" x="330.45573" xlink:href="#mf30b0992a4" y="167.562491"/>
     <use style="fill:#008000;stroke:#008000;" x="334.468315" xlink:href="#mf30b0992a4" y="169.593881"/>
     <use style="fill:#008000;stroke:#008000;" x="338.480899" xlink:href="#mf30b0992a4" y="170.235793"/>
     <use style="fill:#008000;stroke:#008000;" x="342.493483" xlink:href="#mf30b0992a4" y="171.288733"/>
     <use style="fill:#008000;stroke:#008000;" x="346.506067" xlink:href="#mf30b0992a4" y="170.528591"/>
     <use style="fill:#008000;stroke:#008000;" x="350.518652" xlink:href="#mf30b0992a4" y="167.937898"/>
     <use style="fill:#008000;stroke:#008000;" x="354.531236" xlink:href="#mf30b0992a4" y="167.815531"/>
     <use style="fill:#008000;stroke:#008000;" x="358.54382" xlink:href="#mf30b0992a4" y="168.123535"/>
     <use style="fill:#008000;stroke:#008000;" x="362.556404" xlink:href="#mf30b0992a4" y="169.937992"/>
     <use style="fill:#008000;stroke:#008000;" x="366.568989" xlink:href="#mf30b0992a4" y="170.582067"/>
     <use style="fill:#008000;stroke:#008000;" x="370.581573" xlink:href="#mf30b0992a4" y="169.150914"/>
     <use style="fill:#008000;stroke:#008000;" x="374.594157" xlink:href="#mf30b0992a4" y="170.140963"/>
     <use style="fill:#008000;stroke:#008000;" x="378.606742" xlink:href="#mf30b0992a4" y="170.376008"/>
     <use style="fill:#008000;stroke:#008000;" x="382.619326" xlink:href="#mf30b0992a4" y="171.418105"/>
     <use style="fill:#008000;stroke:#008000;" x="386.63191" xlink:href="#mf30b0992a4" y="172.731917"/>
     <use style="fill:#008000;stroke:#008000;" x="390.644494" xlink:href="#mf30b0992a4" y="174.050018"/>
     <use style="fill:#008000;stroke:#008000;" x="394.657079" xlink:href="#mf30b0992a4" y="171.314786"/>
     <use style="fill:#008000;stroke:#008000;" x="398.669663" xlink:href="#mf30b0992a4" y="166.595937"/>
     <use style="fill:#008000;stroke:#008000;" x="402.682247" xlink:href="#mf30b0992a4" y="166.810368"/>
     <use style="fill:#008000;stroke:#008000;" x="406.694831" xlink:href="#mf30b0992a4" y="168.03309"/>
     <use style="fill:#008000;stroke:#008000;" x="410.707416" xlink:href="#mf30b0992a4" y="167.478246"/>
    </g>
   </g>
   <g id="patch_3">
    <path d="M 57.6 307.584 
L 57.6 41.472 
" style="fill:none;stroke:#000000;stroke-linecap:square;stroke-linejoin:miter;stroke-width:0.8;"/>
   </g>
   <g id="patch_4">
    <path d="M 414.72 307.584 
L 414.72 41.472 
" style="fill:none;stroke:#000000;stroke-linecap:square;stroke-linejoin:miter;stroke-width:0.8;"/>
   </g>
   <g id="patch_5">
    <path d="M 57.6 307.584 
L 414.72 307.584 
" style="fill:none;stroke:#000000;stroke-linecap:square;stroke-linejoin:miter;stroke-width:0.8;"/>
   </g>
   <g id="patch_6">
    <path d="M 57.6 41.472 
L 414.72 41.472 
" style="fill:none;stroke:#000000;stroke-linecap:square;stroke-linejoin:miter;stroke-width:0.8;"/>
   </g>
   <g id="text_31">
    <!-- MKL iomp 2PV on pre_transpose25 -->
    <defs>
     <path d="M 9.8125 72.90625 
L 24.515625 72.90625 
L 43.109375 23.296875 
L 61.8125 72.90625 
L 76.515625 72.90625 
L 76.515625 0 
L 66.890625 0 
L 66.890625 64.015625 
L 48.09375 14.015625 
L 38.1875 14.015625 
L 19.390625 64.015625 
L 19.390625 0 
L 9.8125 0 
z
" id="DejaVuSans-77"/>
     <path d="M 9.8125 72.90625 
L 19.671875 72.90625 
L 19.671875 42.09375 
L 52.390625 72.90625 
L 65.09375 72.90625 
L 28.90625 38.921875 
L 67.671875 0 
L 54.6875 0 
L 19.671875 35.109375 
L 19.671875 0 
L 9.8125 0 
z
" id="DejaVuSans-75"/>
     <path d="M 9.8125 72.90625 
L 19.671875 72.90625 
L 19.671875 8.296875 
L 55.171875 8.296875 
L 55.171875 0 
L 9.8125 0 
z
" id="DejaVuSans-76"/>
     <path d="M 52 44.1875 
Q 55.375 50.25 60.0625 53.125 
Q 64.75 56 71.09375 56 
Q 79.640625 56 84.28125 50.015625 
Q 88.921875 44.046875 88.921875 33.015625 
L 88.921875 0 
L 79.890625 0 
L 79.890625 32.71875 
Q 79.890625 40.578125 77.09375 44.375 
Q 74.3125 48.1875 68.609375 48.1875 
Q 61.625 48.1875 57.5625 43.546875 
Q 53.515625 38.921875 53.515625 30.90625 
L 53.515625 0 
L 44.484375 0 
L 44.484375 32.71875 
Q 44.484375 40.625 41.703125 44.40625 
Q 38.921875 48.1875 33.109375 48.1875 
Q 26.21875 48.1875 22.15625 43.53125 
Q 18.109375 38.875 18.109375 30.90625 
L 18.109375 0 
L 9.078125 0 
L 9.078125 54.6875 
L 18.109375 54.6875 
L 18.109375 46.1875 
Q 21.1875 51.21875 25.484375 53.609375 
Q 29.78125 56 35.6875 56 
Q 41.65625 56 45.828125 52.96875 
Q 50 49.953125 52 44.1875 
z
" id="DejaVuSans-109"/>
     <path d="M 18.109375 8.203125 
L 18.109375 -20.796875 
L 9.078125 -20.796875 
L 9.078125 54.6875 
L 18.109375 54.6875 
L 18.109375 46.390625 
Q 20.953125 51.265625 25.265625 53.625 
Q 29.59375 56 35.59375 56 
Q 45.5625 56 51.78125 48.09375 
Q 58.015625 40.1875 58.015625 27.296875 
Q 58.015625 14.40625 51.78125 6.484375 
Q 45.5625 -1.421875 35.59375 -1.421875 
Q 29.59375 -1.421875 25.265625 0.953125 
Q 20.953125 3.328125 18.109375 8.203125 
z
M 48.6875 27.296875 
Q 48.6875 37.203125 44.609375 42.84375 
Q 40.53125 48.484375 33.40625 48.484375 
Q 26.265625 48.484375 22.1875 42.84375 
Q 18.109375 37.203125 18.109375 27.296875 
Q 18.109375 17.390625 22.1875 11.75 
Q 26.265625 6.109375 33.40625 6.109375 
Q 40.53125 6.109375 44.609375 11.75 
Q 48.6875 17.390625 48.6875 27.296875 
z
" id="DejaVuSans-112"/>
     <path d="M 19.671875 64.796875 
L 19.671875 37.40625 
L 32.078125 37.40625 
Q 38.96875 37.40625 42.71875 40.96875 
Q 46.484375 44.53125 46.484375 51.125 
Q 46.484375 57.671875 42.71875 61.234375 
Q 38.96875 64.796875 32.078125 64.796875 
z
M 9.8125 72.90625 
L 32.078125 72.90625 
Q 44.34375 72.90625 50.609375 67.359375 
Q 56.890625 61.8125 56.890625 51.125 
Q 56.890625 40.328125 50.609375 34.8125 
Q 44.34375 29.296875 32.078125 29.296875 
L 19.671875 29.296875 
L 19.671875 0 
L 9.8125 0 
z
" id="DejaVuSans-80"/>
     <path d="M 28.609375 0 
L 0.78125 72.90625 
L 11.078125 72.90625 
L 34.1875 11.53125 
L 57.328125 72.90625 
L 67.578125 72.90625 
L 39.796875 0 
z
" id="DejaVuSans-86"/>
     <path d="M 50.984375 -16.609375 
L 50.984375 -23.578125 
L -0.984375 -23.578125 
L -0.984375 -16.609375 
z
" id="DejaVuSans-95"/>
    </defs>
    <g transform="translate(131.88375 35.472)scale(0.12 -0.12)">
     <use xlink:href="#DejaVuSans-77"/>
     <use x="86.279297" xlink:href="#DejaVuSans-75"/>
     <use x="151.855469" xlink:href="#DejaVuSans-76"/>
     <use x="207.568359" xlink:href="#DejaVuSans-32"/>
     <use x="239.355469" xlink:href="#DejaVuSans-105"/>
     <use x="267.138672" xlink:href="#DejaVuSans-111"/>
     <use x="328.320312" xlink:href="#DejaVuSans-109"/>
     <use x="425.732422" xlink:href="#DejaVuSans-112"/>
     <use x="489.208984" xlink:href="#DejaVuSans-32"/>
     <use x="520.996094" xlink:href="#DejaVuSans-50"/>
     <use x="584.619141" xlink:href="#DejaVuSans-80"/>
     <use x="644.921875" xlink:href="#DejaVuSans-86"/>
     <use x="713.330078" xlink:href="#DejaVuSans-32"/>
     <use x="745.117188" xlink:href="#DejaVuSans-111"/>
     <use x="806.298828" xlink:href="#DejaVuSans-110"/>
     <use x="869.677734" xlink:href="#DejaVuSans-32"/>
     <use x="901.464844" xlink:href="#DejaVuSans-112"/>
     <use x="964.941406" xlink:href="#DejaVuSans-114"/>
     <use x="1003.804688" xlink:href="#DejaVuSans-101"/>
     <use x="1065.328125" xlink:href="#DejaVuSans-95"/>
     <use x="1115.328125" xlink:href="#DejaVuSans-116"/>
     <use x="1154.537109" xlink:href="#DejaVuSans-114"/>
     <use x="1195.650391" xlink:href="#DejaVuSans-97"/>
     <use x="1256.929688" xlink:href="#DejaVuSans-110"/>
     <use x="1320.308594" xlink:href="#DejaVuSans-115"/>
     <use x="1372.408203" xlink:href="#DejaVuSans-112"/>
     <use x="1435.884766" xlink:href="#DejaVuSans-111"/>
     <use x="1497.066406" xlink:href="#DejaVuSans-115"/>
     <use x="1549.166016" xlink:href="#DejaVuSans-101"/>
     <use x="1610.689453" xlink:href="#DejaVuSans-50"/>
     <use x="1674.3125" xlink:href="#DejaVuSans-53"/>
    </g>
   </g>
   <g id="legend_1">
    <g id="patch_7">
     <path d="M 64.6 93.7845 
L 159.167188 93.7845 
Q 161.167188 93.7845 161.167188 91.7845 
L 161.167188 48.472 
Q 161.167188 46.472 159.167188 46.472 
L 64.6 46.472 
Q 62.6 46.472 62.6 48.472 
L 62.6 91.7845 
Q 62.6 93.7845 64.6 93.7845 
z
" style="fill:#ffffff;opacity:0.8;stroke:#cccccc;stroke-linejoin:miter;"/>
    </g>
    <g id="line2d_60">
     <path d="M 66.6 54.570438 
L 86.6 54.570438 
" style="fill:none;stroke:#0000ff;stroke-dasharray:1.5,2.475;stroke-dashoffset:0;stroke-width:1.5;"/>
    </g>
    <g id="line2d_61">
     <g>
      <use style="fill:#0000ff;stroke:#0000ff;" x="76.6" xlink:href="#m7120523d51" y="54.570438"/>
     </g>
    </g>
    <g id="text_32">
     <!-- transpose -->
     <g transform="translate(94.6 58.070438)scale(0.1 -0.1)">
      <use xlink:href="#DejaVuSans-116"/>
      <use x="39.208984" xlink:href="#DejaVuSans-114"/>
      <use x="80.322266" xlink:href="#DejaVuSans-97"/>
      <use x="141.601562" xlink:href="#DejaVuSans-110"/>
      <use x="204.980469" xlink:href="#DejaVuSans-115"/>
      <use x="257.080078" xlink:href="#DejaVuSans-112"/>
      <use x="320.556641" xlink:href="#DejaVuSans-111"/>
      <use x="381.738281" xlink:href="#DejaVuSans-115"/>
      <use x="433.837891" xlink:href="#DejaVuSans-101"/>
     </g>
    </g>
    <g id="line2d_62">
     <path d="M 66.6 69.248563 
L 86.6 69.248563 
" style="fill:none;stroke:#ff0000;stroke-dasharray:1.5,2.475;stroke-dashoffset:0;stroke-width:1.5;"/>
    </g>
    <g id="line2d_63">
     <g>
      <use style="fill:#ff0000;stroke:#ff0000;" x="76.6" xlink:href="#m32bc84c662" y="69.248563"/>
     </g>
    </g>
    <g id="text_33">
     <!-- transpose_tr -->
     <g transform="translate(94.6 72.748563)scale(0.1 -0.1)">
      <use xlink:href="#DejaVuSans-116"/>
      <use x="39.208984" xlink:href="#DejaVuSans-114"/>
      <use x="80.322266" xlink:href="#DejaVuSans-97"/>
      <use x="141.601562" xlink:href="#DejaVuSans-110"/>
      <use x="204.980469" xlink:href="#DejaVuSans-115"/>
      <use x="257.080078" xlink:href="#DejaVuSans-112"/>
      <use x="320.556641" xlink:href="#DejaVuSans-111"/>
      <use x="381.738281" xlink:href="#DejaVuSans-115"/>
      <use x="433.837891" xlink:href="#DejaVuSans-101"/>
      <use x="495.361328" xlink:href="#DejaVuSans-95"/>
      <use x="545.361328" xlink:href="#DejaVuSans-116"/>
      <use x="584.570312" xlink:href="#DejaVuSans-114"/>
     </g>
    </g>
    <g id="line2d_64">
     <path d="M 66.6 84.204813 
L 86.6 84.204813 
" style="fill:none;stroke:#008000;stroke-dasharray:1.5,2.475;stroke-dashoffset:0;stroke-width:1.5;"/>
    </g>
    <g id="line2d_65">
     <g>
      <use style="fill:#008000;stroke:#008000;" x="76.6" xlink:href="#mf30b0992a4" y="84.204813"/>
     </g>
    </g>
    <g id="text_34">
     <!-- mean -->
     <g transform="translate(94.6 87.704813)scale(0.1 -0.1)">
      <use xlink:href="#DejaVuSans-109"/>
      <use x="97.412109" xlink:href="#DejaVuSans-101"/>
      <use x="158.935547" xlink:href="#DejaVuSans-97"/>
      <use x="220.214844" xlink:href="#DejaVuSans-110"/>
     </g>
    </g>
   </g>
  </g>
 </g>
 <defs>
  <clipPath id="p48ffe2e5eb">
   <rect height="266.112" width="357.12" x="57.6" y="41.472"/>
  </clipPath>
 </defs>
</svg>
