<?xml version="1.0" encoding="utf-8" standalone="no"?>
<!DOCTYPE svg PUBLIC "-//W3C//DTD SVG 1.1//EN"
  "http://www.w3.org/Graphics/SVG/1.1/DTD/svg11.dtd">
<!-- Created with matplotlib (https://matplotlib.org/) -->
<svg height="345.6pt" version="1.1" viewBox="0 0 460.8 345.6" width="460.8pt" xmlns="http://www.w3.org/2000/svg" xmlns:xlink="http://www.w3.org/1999/xlink">
 <defs>
  <style type="text/css">
*{stroke-linecap:butt;stroke-linejoin:round;}
  </style>
 </defs>
 <g id="figure_1">
  <g id="patch_1">
   <path d="M 0 345.6 
L 460.8 345.6 
L 460.8 0 
L 0 0 
z
" style="fill:#ffffff;"/>
  </g>
  <g id="axes_1">
   <g id="patch_2">
    <path d="M 57.6 307.584 
L 414.72 307.584 
L 414.72 41.472 
L 57.6 41.472 
z
" style="fill:#ffffff;"/>
   </g>
   <g id="matplotlib.axis_1">
    <g id="xtick_1">
     <g id="line2d_1">
      <path clip-path="url(#p86d3c94b5a)" d="M 61.612584 307.584 
L 61.612584 41.472 
" style="fill:none;stroke:#b0b0b0;stroke-dasharray:5.12,1.28,0.8,1.28;stroke-dashoffset:0;stroke-width:0.8;"/>
     </g>
     <g id="line2d_2">
      <defs>
       <path d="M 0 0 
L 0 3.5 
" id="m53d880195d" style="stroke:#000000;stroke-width:0.8;"/>
      </defs>
      <g>
       <use style="stroke:#000000;stroke-width:0.8;" x="61.612584" xlink:href="#m53d880195d" y="307.584"/>
      </g>
     </g>
     <g id="text_1">
      <!-- 1 -->
      <defs>
       <path d="M 12.40625 8.296875 
L 28.515625 8.296875 
L 28.515625 63.921875 
L 10.984375 60.40625 
L 10.984375 69.390625 
L 28.421875 72.90625 
L 38.28125 72.90625 
L 38.28125 8.296875 
L 54.390625 8.296875 
L 54.390625 0 
L 12.40625 0 
z
" id="DejaVuSans-49"/>
      </defs>
      <g transform="translate(58.431334 322.182437)scale(0.1 -0.1)">
       <use xlink:href="#DejaVuSans-49"/>
      </g>
     </g>
    </g>
    <g id="xtick_2">
     <g id="line2d_3">
      <path clip-path="url(#p86d3c94b5a)" d="M 73.650337 307.584 
L 73.650337 41.472 
" style="fill:none;stroke:#b0b0b0;stroke-dasharray:5.12,1.28,0.8,1.28;stroke-dashoffset:0;stroke-width:0.8;"/>
     </g>
     <g id="line2d_4">
      <g>
       <use style="stroke:#000000;stroke-width:0.8;" x="73.650337" xlink:href="#m53d880195d" y="307.584"/>
      </g>
     </g>
     <g id="text_2">
      <!-- 4 -->
      <defs>
       <path d="M 37.796875 64.3125 
L 12.890625 25.390625 
L 37.796875 25.390625 
z
M 35.203125 72.90625 
L 47.609375 72.90625 
L 47.609375 25.390625 
L 58.015625 25.390625 
L 58.015625 17.1875 
L 47.609375 17.1875 
L 47.609375 0 
L 37.796875 0 
L 37.796875 17.1875 
L 4.890625 17.1875 
L 4.890625 26.703125 
z
" id="DejaVuSans-52"/>
      </defs>
      <g transform="translate(70.469087 322.182437)scale(0.1 -0.1)">
       <use xlink:href="#DejaVuSans-52"/>
      </g>
     </g>
    </g>
    <g id="xtick_3">
     <g id="line2d_5">
      <path clip-path="url(#p86d3c94b5a)" d="M 89.700674 307.584 
L 89.700674 41.472 
" style="fill:none;stroke:#b0b0b0;stroke-dasharray:5.12,1.28,0.8,1.28;stroke-dashoffset:0;stroke-width:0.8;"/>
     </g>
     <g id="line2d_6">
      <g>
       <use style="stroke:#000000;stroke-width:0.8;" x="89.700674" xlink:href="#m53d880195d" y="307.584"/>
      </g>
     </g>
     <g id="text_3">
      <!-- 8 -->
      <defs>
       <path d="M 31.78125 34.625 
Q 24.75 34.625 20.71875 30.859375 
Q 16.703125 27.09375 16.703125 20.515625 
Q 16.703125 13.921875 20.71875 10.15625 
Q 24.75 6.390625 31.78125 6.390625 
Q 38.8125 6.390625 42.859375 10.171875 
Q 46.921875 13.96875 46.921875 20.515625 
Q 46.921875 27.09375 42.890625 30.859375 
Q 38.875 34.625 31.78125 34.625 
z
M 21.921875 38.8125 
Q 15.578125 40.375 12.03125 44.71875 
Q 8.5 49.078125 8.5 55.328125 
Q 8.5 64.0625 14.71875 69.140625 
Q 20.953125 74.21875 31.78125 74.21875 
Q 42.671875 74.21875 48.875 69.140625 
Q 55.078125 64.0625 55.078125 55.328125 
Q 55.078125 49.078125 51.53125 44.71875 
Q 48 40.375 41.703125 38.8125 
Q 48.828125 37.15625 52.796875 32.3125 
Q 56.78125 27.484375 56.78125 20.515625 
Q 56.78125 9.90625 50.3125 4.234375 
Q 43.84375 -1.421875 31.78125 -1.421875 
Q 19.734375 -1.421875 13.25 4.234375 
Q 6.78125 9.90625 6.78125 20.515625 
Q 6.78125 27.484375 10.78125 32.3125 
Q 14.796875 37.15625 21.921875 38.8125 
z
M 18.3125 54.390625 
Q 18.3125 48.734375 21.84375 45.5625 
Q 25.390625 42.390625 31.78125 42.390625 
Q 38.140625 42.390625 41.71875 45.5625 
Q 45.3125 48.734375 45.3125 54.390625 
Q 45.3125 60.0625 41.71875 63.234375 
Q 38.140625 66.40625 31.78125 66.40625 
Q 25.390625 66.40625 21.84375 63.234375 
Q 18.3125 60.0625 18.3125 54.390625 
z
" id="DejaVuSans-56"/>
      </defs>
      <g transform="translate(86.519424 322.182437)scale(0.1 -0.1)">
       <use xlink:href="#DejaVuSans-56"/>
      </g>
     </g>
    </g>
    <g id="xtick_4">
     <g id="line2d_7">
      <path clip-path="url(#p86d3c94b5a)" d="M 105.751011 307.584 
L 105.751011 41.472 
" style="fill:none;stroke:#b0b0b0;stroke-dasharray:5.12,1.28,0.8,1.28;stroke-dashoffset:0;stroke-width:0.8;"/>
     </g>
     <g id="line2d_8">
      <g>
       <use style="stroke:#000000;stroke-width:0.8;" x="105.751011" xlink:href="#m53d880195d" y="307.584"/>
      </g>
     </g>
     <g id="text_4">
      <!-- 12 -->
      <defs>
       <path d="M 19.1875 8.296875 
L 53.609375 8.296875 
L 53.609375 0 
L 7.328125 0 
L 7.328125 8.296875 
Q 12.9375 14.109375 22.625 23.890625 
Q 32.328125 33.6875 34.8125 36.53125 
Q 39.546875 41.84375 41.421875 45.53125 
Q 43.3125 49.21875 43.3125 52.78125 
Q 43.3125 58.59375 39.234375 62.25 
Q 35.15625 65.921875 28.609375 65.921875 
Q 23.96875 65.921875 18.8125 64.3125 
Q 13.671875 62.703125 7.8125 59.421875 
L 7.8125 69.390625 
Q 13.765625 71.78125 18.9375 73 
Q 24.125 74.21875 28.421875 74.21875 
Q 39.75 74.21875 46.484375 68.546875 
Q 53.21875 62.890625 53.21875 53.421875 
Q 53.21875 48.921875 51.53125 44.890625 
Q 49.859375 40.875 45.40625 35.40625 
Q 44.1875 33.984375 37.640625 27.21875 
Q 31.109375 20.453125 19.1875 8.296875 
z
" id="DejaVuSans-50"/>
      </defs>
      <g transform="translate(99.388511 322.182437)scale(0.1 -0.1)">
       <use xlink:href="#DejaVuSans-49"/>
       <use x="63.623047" xlink:href="#DejaVuSans-50"/>
      </g>
     </g>
    </g>
    <g id="xtick_5">
     <g id="line2d_9">
      <path clip-path="url(#p86d3c94b5a)" d="M 121.801348 307.584 
L 121.801348 41.472 
" style="fill:none;stroke:#b0b0b0;stroke-dasharray:5.12,1.28,0.8,1.28;stroke-dashoffset:0;stroke-width:0.8;"/>
     </g>
     <g id="line2d_10">
      <g>
       <use style="stroke:#000000;stroke-width:0.8;" x="121.801348" xlink:href="#m53d880195d" y="307.584"/>
      </g>
     </g>
     <g id="text_5">
      <!-- 16 -->
      <defs>
       <path d="M 33.015625 40.375 
Q 26.375 40.375 22.484375 35.828125 
Q 18.609375 31.296875 18.609375 23.390625 
Q 18.609375 15.53125 22.484375 10.953125 
Q 26.375 6.390625 33.015625 6.390625 
Q 39.65625 6.390625 43.53125 10.953125 
Q 47.40625 15.53125 47.40625 23.390625 
Q 47.40625 31.296875 43.53125 35.828125 
Q 39.65625 40.375 33.015625 40.375 
z
M 52.59375 71.296875 
L 52.59375 62.3125 
Q 48.875 64.0625 45.09375 64.984375 
Q 41.3125 65.921875 37.59375 65.921875 
Q 27.828125 65.921875 22.671875 59.328125 
Q 17.53125 52.734375 16.796875 39.40625 
Q 19.671875 43.65625 24.015625 45.921875 
Q 28.375 48.1875 33.59375 48.1875 
Q 44.578125 48.1875 50.953125 41.515625 
Q 57.328125 34.859375 57.328125 23.390625 
Q 57.328125 12.15625 50.6875 5.359375 
Q 44.046875 -1.421875 33.015625 -1.421875 
Q 20.359375 -1.421875 13.671875 8.265625 
Q 6.984375 17.96875 6.984375 36.375 
Q 6.984375 53.65625 15.1875 63.9375 
Q 23.390625 74.21875 37.203125 74.21875 
Q 40.921875 74.21875 44.703125 73.484375 
Q 48.484375 72.75 52.59375 71.296875 
z
" id="DejaVuSans-54"/>
      </defs>
      <g transform="translate(115.438848 322.182437)scale(0.1 -0.1)">
       <use xlink:href="#DejaVuSans-49"/>
       <use x="63.623047" xlink:href="#DejaVuSans-54"/>
      </g>
     </g>
    </g>
    <g id="xtick_6">
     <g id="line2d_11">
      <path clip-path="url(#p86d3c94b5a)" d="M 137.851685 307.584 
L 137.851685 41.472 
" style="fill:none;stroke:#b0b0b0;stroke-dasharray:5.12,1.28,0.8,1.28;stroke-dashoffset:0;stroke-width:0.8;"/>
     </g>
     <g id="line2d_12">
      <g>
       <use style="stroke:#000000;stroke-width:0.8;" x="137.851685" xlink:href="#m53d880195d" y="307.584"/>
      </g>
     </g>
     <g id="text_6">
      <!-- 20 -->
      <defs>
       <path d="M 31.78125 66.40625 
Q 24.171875 66.40625 20.328125 58.90625 
Q 16.5 51.421875 16.5 36.375 
Q 16.5 21.390625 20.328125 13.890625 
Q 24.171875 6.390625 31.78125 6.390625 
Q 39.453125 6.390625 43.28125 13.890625 
Q 47.125 21.390625 47.125 36.375 
Q 47.125 51.421875 43.28125 58.90625 
Q 39.453125 66.40625 31.78125 66.40625 
z
M 31.78125 74.21875 
Q 44.046875 74.21875 50.515625 64.515625 
Q 56.984375 54.828125 56.984375 36.375 
Q 56.984375 17.96875 50.515625 8.265625 
Q 44.046875 -1.421875 31.78125 -1.421875 
Q 19.53125 -1.421875 13.0625 8.265625 
Q 6.59375 17.96875 6.59375 36.375 
Q 6.59375 54.828125 13.0625 64.515625 
Q 19.53125 74.21875 31.78125 74.21875 
z
" id="DejaVuSans-48"/>
      </defs>
      <g transform="translate(131.489185 322.182437)scale(0.1 -0.1)">
       <use xlink:href="#DejaVuSans-50"/>
       <use x="63.623047" xlink:href="#DejaVuSans-48"/>
      </g>
     </g>
    </g>
    <g id="xtick_7">
     <g id="line2d_13">
      <path clip-path="url(#p86d3c94b5a)" d="M 153.902022 307.584 
L 153.902022 41.472 
" style="fill:none;stroke:#b0b0b0;stroke-dasharray:5.12,1.28,0.8,1.28;stroke-dashoffset:0;stroke-width:0.8;"/>
     </g>
     <g id="line2d_14">
      <g>
       <use style="stroke:#000000;stroke-width:0.8;" x="153.902022" xlink:href="#m53d880195d" y="307.584"/>
      </g>
     </g>
     <g id="text_7">
      <!-- 24 -->
      <g transform="translate(147.539522 322.182437)scale(0.1 -0.1)">
       <use xlink:href="#DejaVuSans-50"/>
       <use x="63.623047" xlink:href="#DejaVuSans-52"/>
      </g>
     </g>
    </g>
    <g id="xtick_8">
     <g id="line2d_15">
      <path clip-path="url(#p86d3c94b5a)" d="M 169.95236 307.584 
L 169.95236 41.472 
" style="fill:none;stroke:#b0b0b0;stroke-dasharray:5.12,1.28,0.8,1.28;stroke-dashoffset:0;stroke-width:0.8;"/>
     </g>
     <g id="line2d_16">
      <g>
       <use style="stroke:#000000;stroke-width:0.8;" x="169.95236" xlink:href="#m53d880195d" y="307.584"/>
      </g>
     </g>
     <g id="text_8">
      <!-- 28 -->
      <g transform="translate(163.58986 322.182437)scale(0.1 -0.1)">
       <use xlink:href="#DejaVuSans-50"/>
       <use x="63.623047" xlink:href="#DejaVuSans-56"/>
      </g>
     </g>
    </g>
    <g id="xtick_9">
     <g id="line2d_17">
      <path clip-path="url(#p86d3c94b5a)" d="M 186.002697 307.584 
L 186.002697 41.472 
" style="fill:none;stroke:#b0b0b0;stroke-dasharray:5.12,1.28,0.8,1.28;stroke-dashoffset:0;stroke-width:0.8;"/>
     </g>
     <g id="line2d_18">
      <g>
       <use style="stroke:#000000;stroke-width:0.8;" x="186.002697" xlink:href="#m53d880195d" y="307.584"/>
      </g>
     </g>
     <g id="text_9">
      <!-- 32 -->
      <defs>
       <path d="M 40.578125 39.3125 
Q 47.65625 37.796875 51.625 33 
Q 55.609375 28.21875 55.609375 21.1875 
Q 55.609375 10.40625 48.1875 4.484375 
Q 40.765625 -1.421875 27.09375 -1.421875 
Q 22.515625 -1.421875 17.65625 -0.515625 
Q 12.796875 0.390625 7.625 2.203125 
L 7.625 11.71875 
Q 11.71875 9.328125 16.59375 8.109375 
Q 21.484375 6.890625 26.8125 6.890625 
Q 36.078125 6.890625 40.9375 10.546875 
Q 45.796875 14.203125 45.796875 21.1875 
Q 45.796875 27.640625 41.28125 31.265625 
Q 36.765625 34.90625 28.71875 34.90625 
L 20.21875 34.90625 
L 20.21875 43.015625 
L 29.109375 43.015625 
Q 36.375 43.015625 40.234375 45.921875 
Q 44.09375 48.828125 44.09375 54.296875 
Q 44.09375 59.90625 40.109375 62.90625 
Q 36.140625 65.921875 28.71875 65.921875 
Q 24.65625 65.921875 20.015625 65.03125 
Q 15.375 64.15625 9.8125 62.3125 
L 9.8125 71.09375 
Q 15.4375 72.65625 20.34375 73.4375 
Q 25.25 74.21875 29.59375 74.21875 
Q 40.828125 74.21875 47.359375 69.109375 
Q 53.90625 64.015625 53.90625 55.328125 
Q 53.90625 49.265625 50.4375 45.09375 
Q 46.96875 40.921875 40.578125 39.3125 
z
" id="DejaVuSans-51"/>
      </defs>
      <g transform="translate(179.640197 322.182437)scale(0.1 -0.1)">
       <use xlink:href="#DejaVuSans-51"/>
       <use x="63.623047" xlink:href="#DejaVuSans-50"/>
      </g>
     </g>
    </g>
    <g id="xtick_10">
     <g id="line2d_19">
      <path clip-path="url(#p86d3c94b5a)" d="M 202.053034 307.584 
L 202.053034 41.472 
" style="fill:none;stroke:#b0b0b0;stroke-dasharray:5.12,1.28,0.8,1.28;stroke-dashoffset:0;stroke-width:0.8;"/>
     </g>
     <g id="line2d_20">
      <g>
       <use style="stroke:#000000;stroke-width:0.8;" x="202.053034" xlink:href="#m53d880195d" y="307.584"/>
      </g>
     </g>
     <g id="text_10">
      <!-- 36 -->
      <g transform="translate(195.690534 322.182437)scale(0.1 -0.1)">
       <use xlink:href="#DejaVuSans-51"/>
       <use x="63.623047" xlink:href="#DejaVuSans-54"/>
      </g>
     </g>
    </g>
    <g id="xtick_11">
     <g id="line2d_21">
      <path clip-path="url(#p86d3c94b5a)" d="M 218.103371 307.584 
L 218.103371 41.472 
" style="fill:none;stroke:#b0b0b0;stroke-dasharray:5.12,1.28,0.8,1.28;stroke-dashoffset:0;stroke-width:0.8;"/>
     </g>
     <g id="line2d_22">
      <g>
       <use style="stroke:#000000;stroke-width:0.8;" x="218.103371" xlink:href="#m53d880195d" y="307.584"/>
      </g>
     </g>
     <g id="text_11">
      <!-- 40 -->
      <g transform="translate(211.740871 322.182437)scale(0.1 -0.1)">
       <use xlink:href="#DejaVuSans-52"/>
       <use x="63.623047" xlink:href="#DejaVuSans-48"/>
      </g>
     </g>
    </g>
    <g id="xtick_12">
     <g id="line2d_23">
      <path clip-path="url(#p86d3c94b5a)" d="M 234.153708 307.584 
L 234.153708 41.472 
" style="fill:none;stroke:#b0b0b0;stroke-dasharray:5.12,1.28,0.8,1.28;stroke-dashoffset:0;stroke-width:0.8;"/>
     </g>
     <g id="line2d_24">
      <g>
       <use style="stroke:#000000;stroke-width:0.8;" x="234.153708" xlink:href="#m53d880195d" y="307.584"/>
      </g>
     </g>
     <g id="text_12">
      <!-- 44 -->
      <g transform="translate(227.791208 322.182437)scale(0.1 -0.1)">
       <use xlink:href="#DejaVuSans-52"/>
       <use x="63.623047" xlink:href="#DejaVuSans-52"/>
      </g>
     </g>
    </g>
    <g id="xtick_13">
     <g id="line2d_25">
      <path clip-path="url(#p86d3c94b5a)" d="M 250.204045 307.584 
L 250.204045 41.472 
" style="fill:none;stroke:#b0b0b0;stroke-dasharray:5.12,1.28,0.8,1.28;stroke-dashoffset:0;stroke-width:0.8;"/>
     </g>
     <g id="line2d_26">
      <g>
       <use style="stroke:#000000;stroke-width:0.8;" x="250.204045" xlink:href="#m53d880195d" y="307.584"/>
      </g>
     </g>
     <g id="text_13">
      <!-- 48 -->
      <g transform="translate(243.841545 322.182437)scale(0.1 -0.1)">
       <use xlink:href="#DejaVuSans-52"/>
       <use x="63.623047" xlink:href="#DejaVuSans-56"/>
      </g>
     </g>
    </g>
    <g id="xtick_14">
     <g id="line2d_27">
      <path clip-path="url(#p86d3c94b5a)" d="M 266.254382 307.584 
L 266.254382 41.472 
" style="fill:none;stroke:#b0b0b0;stroke-dasharray:5.12,1.28,0.8,1.28;stroke-dashoffset:0;stroke-width:0.8;"/>
     </g>
     <g id="line2d_28">
      <g>
       <use style="stroke:#000000;stroke-width:0.8;" x="266.254382" xlink:href="#m53d880195d" y="307.584"/>
      </g>
     </g>
     <g id="text_14">
      <!-- 52 -->
      <defs>
       <path d="M 10.796875 72.90625 
L 49.515625 72.90625 
L 49.515625 64.59375 
L 19.828125 64.59375 
L 19.828125 46.734375 
Q 21.96875 47.46875 24.109375 47.828125 
Q 26.265625 48.1875 28.421875 48.1875 
Q 40.625 48.1875 47.75 41.5 
Q 54.890625 34.8125 54.890625 23.390625 
Q 54.890625 11.625 47.5625 5.09375 
Q 40.234375 -1.421875 26.90625 -1.421875 
Q 22.3125 -1.421875 17.546875 -0.640625 
Q 12.796875 0.140625 7.71875 1.703125 
L 7.71875 11.625 
Q 12.109375 9.234375 16.796875 8.0625 
Q 21.484375 6.890625 26.703125 6.890625 
Q 35.15625 6.890625 40.078125 11.328125 
Q 45.015625 15.765625 45.015625 23.390625 
Q 45.015625 31 40.078125 35.4375 
Q 35.15625 39.890625 26.703125 39.890625 
Q 22.75 39.890625 18.8125 39.015625 
Q 14.890625 38.140625 10.796875 36.28125 
z
" id="DejaVuSans-53"/>
      </defs>
      <g transform="translate(259.891882 322.182437)scale(0.1 -0.1)">
       <use xlink:href="#DejaVuSans-53"/>
       <use x="63.623047" xlink:href="#DejaVuSans-50"/>
      </g>
     </g>
    </g>
    <g id="xtick_15">
     <g id="line2d_29">
      <path clip-path="url(#p86d3c94b5a)" d="M 282.304719 307.584 
L 282.304719 41.472 
" style="fill:none;stroke:#b0b0b0;stroke-dasharray:5.12,1.28,0.8,1.28;stroke-dashoffset:0;stroke-width:0.8;"/>
     </g>
     <g id="line2d_30">
      <g>
       <use style="stroke:#000000;stroke-width:0.8;" x="282.304719" xlink:href="#m53d880195d" y="307.584"/>
      </g>
     </g>
     <g id="text_15">
      <!-- 56 -->
      <g transform="translate(275.942219 322.182437)scale(0.1 -0.1)">
       <use xlink:href="#DejaVuSans-53"/>
       <use x="63.623047" xlink:href="#DejaVuSans-54"/>
      </g>
     </g>
    </g>
    <g id="xtick_16">
     <g id="line2d_31">
      <path clip-path="url(#p86d3c94b5a)" d="M 298.355056 307.584 
L 298.355056 41.472 
" style="fill:none;stroke:#b0b0b0;stroke-dasharray:5.12,1.28,0.8,1.28;stroke-dashoffset:0;stroke-width:0.8;"/>
     </g>
     <g id="line2d_32">
      <g>
       <use style="stroke:#000000;stroke-width:0.8;" x="298.355056" xlink:href="#m53d880195d" y="307.584"/>
      </g>
     </g>
     <g id="text_16">
      <!-- 60 -->
      <g transform="translate(291.992556 322.182437)scale(0.1 -0.1)">
       <use xlink:href="#DejaVuSans-54"/>
       <use x="63.623047" xlink:href="#DejaVuSans-48"/>
      </g>
     </g>
    </g>
    <g id="xtick_17">
     <g id="line2d_33">
      <path clip-path="url(#p86d3c94b5a)" d="M 314.405393 307.584 
L 314.405393 41.472 
" style="fill:none;stroke:#b0b0b0;stroke-dasharray:5.12,1.28,0.8,1.28;stroke-dashoffset:0;stroke-width:0.8;"/>
     </g>
     <g id="line2d_34">
      <g>
       <use style="stroke:#000000;stroke-width:0.8;" x="314.405393" xlink:href="#m53d880195d" y="307.584"/>
      </g>
     </g>
     <g id="text_17">
      <!-- 64 -->
      <g transform="translate(308.042893 322.182437)scale(0.1 -0.1)">
       <use xlink:href="#DejaVuSans-54"/>
       <use x="63.623047" xlink:href="#DejaVuSans-52"/>
      </g>
     </g>
    </g>
    <g id="xtick_18">
     <g id="line2d_35">
      <path clip-path="url(#p86d3c94b5a)" d="M 330.45573 307.584 
L 330.45573 41.472 
" style="fill:none;stroke:#b0b0b0;stroke-dasharray:5.12,1.28,0.8,1.28;stroke-dashoffset:0;stroke-width:0.8;"/>
     </g>
     <g id="line2d_36">
      <g>
       <use style="stroke:#000000;stroke-width:0.8;" x="330.45573" xlink:href="#m53d880195d" y="307.584"/>
      </g>
     </g>
     <g id="text_18">
      <!-- 68 -->
      <g transform="translate(324.09323 322.182437)scale(0.1 -0.1)">
       <use xlink:href="#DejaVuSans-54"/>
       <use x="63.623047" xlink:href="#DejaVuSans-56"/>
      </g>
     </g>
    </g>
    <g id="xtick_19">
     <g id="line2d_37">
      <path clip-path="url(#p86d3c94b5a)" d="M 346.506067 307.584 
L 346.506067 41.472 
" style="fill:none;stroke:#b0b0b0;stroke-dasharray:5.12,1.28,0.8,1.28;stroke-dashoffset:0;stroke-width:0.8;"/>
     </g>
     <g id="line2d_38">
      <g>
       <use style="stroke:#000000;stroke-width:0.8;" x="346.506067" xlink:href="#m53d880195d" y="307.584"/>
      </g>
     </g>
     <g id="text_19">
      <!-- 72 -->
      <defs>
       <path d="M 8.203125 72.90625 
L 55.078125 72.90625 
L 55.078125 68.703125 
L 28.609375 0 
L 18.3125 0 
L 43.21875 64.59375 
L 8.203125 64.59375 
z
" id="DejaVuSans-55"/>
      </defs>
      <g transform="translate(340.143567 322.182437)scale(0.1 -0.1)">
       <use xlink:href="#DejaVuSans-55"/>
       <use x="63.623047" xlink:href="#DejaVuSans-50"/>
      </g>
     </g>
    </g>
    <g id="xtick_20">
     <g id="line2d_39">
      <path clip-path="url(#p86d3c94b5a)" d="M 362.556404 307.584 
L 362.556404 41.472 
" style="fill:none;stroke:#b0b0b0;stroke-dasharray:5.12,1.28,0.8,1.28;stroke-dashoffset:0;stroke-width:0.8;"/>
     </g>
     <g id="line2d_40">
      <g>
       <use style="stroke:#000000;stroke-width:0.8;" x="362.556404" xlink:href="#m53d880195d" y="307.584"/>
      </g>
     </g>
     <g id="text_20">
      <!-- 76 -->
      <g transform="translate(356.193904 322.182437)scale(0.1 -0.1)">
       <use xlink:href="#DejaVuSans-55"/>
       <use x="63.623047" xlink:href="#DejaVuSans-54"/>
      </g>
     </g>
    </g>
    <g id="xtick_21">
     <g id="line2d_41">
      <path clip-path="url(#p86d3c94b5a)" d="M 378.606742 307.584 
L 378.606742 41.472 
" style="fill:none;stroke:#b0b0b0;stroke-dasharray:5.12,1.28,0.8,1.28;stroke-dashoffset:0;stroke-width:0.8;"/>
     </g>
     <g id="line2d_42">
      <g>
       <use style="stroke:#000000;stroke-width:0.8;" x="378.606742" xlink:href="#m53d880195d" y="307.584"/>
      </g>
     </g>
     <g id="text_21">
      <!-- 80 -->
      <g transform="translate(372.244242 322.182437)scale(0.1 -0.1)">
       <use xlink:href="#DejaVuSans-56"/>
       <use x="63.623047" xlink:href="#DejaVuSans-48"/>
      </g>
     </g>
    </g>
    <g id="xtick_22">
     <g id="line2d_43">
      <path clip-path="url(#p86d3c94b5a)" d="M 394.657079 307.584 
L 394.657079 41.472 
" style="fill:none;stroke:#b0b0b0;stroke-dasharray:5.12,1.28,0.8,1.28;stroke-dashoffset:0;stroke-width:0.8;"/>
     </g>
     <g id="line2d_44">
      <g>
       <use style="stroke:#000000;stroke-width:0.8;" x="394.657079" xlink:href="#m53d880195d" y="307.584"/>
      </g>
     </g>
     <g id="text_22">
      <!-- 84 -->
      <g transform="translate(388.294579 322.182437)scale(0.1 -0.1)">
       <use xlink:href="#DejaVuSans-56"/>
       <use x="63.623047" xlink:href="#DejaVuSans-52"/>
      </g>
     </g>
    </g>
    <g id="xtick_23">
     <g id="line2d_45">
      <path clip-path="url(#p86d3c94b5a)" d="M 410.707416 307.584 
L 410.707416 41.472 
" style="fill:none;stroke:#b0b0b0;stroke-dasharray:5.12,1.28,0.8,1.28;stroke-dashoffset:0;stroke-width:0.8;"/>
     </g>
     <g id="line2d_46">
      <g>
       <use style="stroke:#000000;stroke-width:0.8;" x="410.707416" xlink:href="#m53d880195d" y="307.584"/>
      </g>
     </g>
     <g id="text_23">
      <!-- 88 -->
      <g transform="translate(404.344916 322.182437)scale(0.1 -0.1)">
       <use xlink:href="#DejaVuSans-56"/>
       <use x="63.623047" xlink:href="#DejaVuSans-56"/>
      </g>
     </g>
    </g>
    <g id="text_24">
     <!-- threads -->
     <defs>
      <path d="M 18.3125 70.21875 
L 18.3125 54.6875 
L 36.8125 54.6875 
L 36.8125 47.703125 
L 18.3125 47.703125 
L 18.3125 18.015625 
Q 18.3125 11.328125 20.140625 9.421875 
Q 21.96875 7.515625 27.59375 7.515625 
L 36.8125 7.515625 
L 36.8125 0 
L 27.59375 0 
Q 17.1875 0 13.234375 3.875 
Q 9.28125 7.765625 9.28125 18.015625 
L 9.28125 47.703125 
L 2.6875 47.703125 
L 2.6875 54.6875 
L 9.28125 54.6875 
L 9.28125 70.21875 
z
" id="DejaVuSans-116"/>
      <path d="M 54.890625 33.015625 
L 54.890625 0 
L 45.90625 0 
L 45.90625 32.71875 
Q 45.90625 40.484375 42.875 44.328125 
Q 39.84375 48.1875 33.796875 48.1875 
Q 26.515625 48.1875 22.3125 43.546875 
Q 18.109375 38.921875 18.109375 30.90625 
L 18.109375 0 
L 9.078125 0 
L 9.078125 75.984375 
L 18.109375 75.984375 
L 18.109375 46.1875 
Q 21.34375 51.125 25.703125 53.5625 
Q 30.078125 56 35.796875 56 
Q 45.21875 56 50.046875 50.171875 
Q 54.890625 44.34375 54.890625 33.015625 
z
" id="DejaVuSans-104"/>
      <path d="M 41.109375 46.296875 
Q 39.59375 47.171875 37.8125 47.578125 
Q 36.03125 48 33.890625 48 
Q 26.265625 48 22.1875 43.046875 
Q 18.109375 38.09375 18.109375 28.8125 
L 18.109375 0 
L 9.078125 0 
L 9.078125 54.6875 
L 18.109375 54.6875 
L 18.109375 46.1875 
Q 20.953125 51.171875 25.484375 53.578125 
Q 30.03125 56 36.53125 56 
Q 37.453125 56 38.578125 55.875 
Q 39.703125 55.765625 41.0625 55.515625 
z
" id="DejaVuSans-114"/>
      <path d="M 56.203125 29.59375 
L 56.203125 25.203125 
L 14.890625 25.203125 
Q 15.484375 15.921875 20.484375 11.0625 
Q 25.484375 6.203125 34.421875 6.203125 
Q 39.59375 6.203125 44.453125 7.46875 
Q 49.3125 8.734375 54.109375 11.28125 
L 54.109375 2.78125 
Q 49.265625 0.734375 44.1875 -0.34375 
Q 39.109375 -1.421875 33.890625 -1.421875 
Q 20.796875 -1.421875 13.15625 6.1875 
Q 5.515625 13.8125 5.515625 26.8125 
Q 5.515625 40.234375 12.765625 48.109375 
Q 20.015625 56 32.328125 56 
Q 43.359375 56 49.78125 48.890625 
Q 56.203125 41.796875 56.203125 29.59375 
z
M 47.21875 32.234375 
Q 47.125 39.59375 43.09375 43.984375 
Q 39.0625 48.390625 32.421875 48.390625 
Q 24.90625 48.390625 20.390625 44.140625 
Q 15.875 39.890625 15.1875 32.171875 
z
" id="DejaVuSans-101"/>
      <path d="M 34.28125 27.484375 
Q 23.390625 27.484375 19.1875 25 
Q 14.984375 22.515625 14.984375 16.5 
Q 14.984375 11.71875 18.140625 8.90625 
Q 21.296875 6.109375 26.703125 6.109375 
Q 34.1875 6.109375 38.703125 11.40625 
Q 43.21875 16.703125 43.21875 25.484375 
L 43.21875 27.484375 
z
M 52.203125 31.203125 
L 52.203125 0 
L 43.21875 0 
L 43.21875 8.296875 
Q 40.140625 3.328125 35.546875 0.953125 
Q 30.953125 -1.421875 24.3125 -1.421875 
Q 15.921875 -1.421875 10.953125 3.296875 
Q 6 8.015625 6 15.921875 
Q 6 25.140625 12.171875 29.828125 
Q 18.359375 34.515625 30.609375 34.515625 
L 43.21875 34.515625 
L 43.21875 35.40625 
Q 43.21875 41.609375 39.140625 45 
Q 35.0625 48.390625 27.6875 48.390625 
Q 23 48.390625 18.546875 47.265625 
Q 14.109375 46.140625 10.015625 43.890625 
L 10.015625 52.203125 
Q 14.9375 54.109375 19.578125 55.046875 
Q 24.21875 56 28.609375 56 
Q 40.484375 56 46.34375 49.84375 
Q 52.203125 43.703125 52.203125 31.203125 
z
" id="DejaVuSans-97"/>
      <path d="M 45.40625 46.390625 
L 45.40625 75.984375 
L 54.390625 75.984375 
L 54.390625 0 
L 45.40625 0 
L 45.40625 8.203125 
Q 42.578125 3.328125 38.25 0.953125 
Q 33.9375 -1.421875 27.875 -1.421875 
Q 17.96875 -1.421875 11.734375 6.484375 
Q 5.515625 14.40625 5.515625 27.296875 
Q 5.515625 40.1875 11.734375 48.09375 
Q 17.96875 56 27.875 56 
Q 33.9375 56 38.25 53.625 
Q 42.578125 51.265625 45.40625 46.390625 
z
M 14.796875 27.296875 
Q 14.796875 17.390625 18.875 11.75 
Q 22.953125 6.109375 30.078125 6.109375 
Q 37.203125 6.109375 41.296875 11.75 
Q 45.40625 17.390625 45.40625 27.296875 
Q 45.40625 37.203125 41.296875 42.84375 
Q 37.203125 48.484375 30.078125 48.484375 
Q 22.953125 48.484375 18.875 42.84375 
Q 14.796875 37.203125 14.796875 27.296875 
z
" id="DejaVuSans-100"/>
      <path d="M 44.28125 53.078125 
L 44.28125 44.578125 
Q 40.484375 46.53125 36.375 47.5 
Q 32.28125 48.484375 27.875 48.484375 
Q 21.1875 48.484375 17.84375 46.4375 
Q 14.5 44.390625 14.5 40.28125 
Q 14.5 37.15625 16.890625 35.375 
Q 19.28125 33.59375 26.515625 31.984375 
L 29.59375 31.296875 
Q 39.15625 29.25 43.1875 25.515625 
Q 47.21875 21.78125 47.21875 15.09375 
Q 47.21875 7.46875 41.1875 3.015625 
Q 35.15625 -1.421875 24.609375 -1.421875 
Q 20.21875 -1.421875 15.453125 -0.5625 
Q 10.6875 0.296875 5.421875 2 
L 5.421875 11.28125 
Q 10.40625 8.6875 15.234375 7.390625 
Q 20.0625 6.109375 24.8125 6.109375 
Q 31.15625 6.109375 34.5625 8.28125 
Q 37.984375 10.453125 37.984375 14.40625 
Q 37.984375 18.0625 35.515625 20.015625 
Q 33.0625 21.96875 24.703125 23.78125 
L 21.578125 24.515625 
Q 13.234375 26.265625 9.515625 29.90625 
Q 5.8125 33.546875 5.8125 39.890625 
Q 5.8125 47.609375 11.28125 51.796875 
Q 16.75 56 26.8125 56 
Q 31.78125 56 36.171875 55.265625 
Q 40.578125 54.546875 44.28125 53.078125 
z
" id="DejaVuSans-115"/>
     </defs>
     <g transform="translate(217.168594 335.860562)scale(0.1 -0.1)">
      <use xlink:href="#DejaVuSans-116"/>
      <use x="39.208984" xlink:href="#DejaVuSans-104"/>
      <use x="102.587891" xlink:href="#DejaVuSans-114"/>
      <use x="141.451172" xlink:href="#DejaVuSans-101"/>
      <use x="202.974609" xlink:href="#DejaVuSans-97"/>
      <use x="264.253906" xlink:href="#DejaVuSans-100"/>
      <use x="327.730469" xlink:href="#DejaVuSans-115"/>
     </g>
    </g>
   </g>
   <g id="matplotlib.axis_2">
    <g id="ytick_1">
     <g id="line2d_47">
      <path clip-path="url(#p86d3c94b5a)" d="M 57.6 285.551407 
L 414.72 285.551407 
" style="fill:none;stroke:#b0b0b0;stroke-dasharray:5.12,1.28,0.8,1.28;stroke-dashoffset:0;stroke-width:0.8;"/>
     </g>
     <g id="line2d_48">
      <defs>
       <path d="M 0 0 
L -3.5 0 
" id="me00b1d2a34" style="stroke:#000000;stroke-width:0.8;"/>
      </defs>
      <g>
       <use style="stroke:#000000;stroke-width:0.8;" x="57.6" xlink:href="#me00b1d2a34" y="285.551407"/>
      </g>
     </g>
     <g id="text_25">
      <!-- 0.1 -->
      <defs>
       <path d="M 10.6875 12.40625 
L 21 12.40625 
L 21 0 
L 10.6875 0 
z
" id="DejaVuSans-46"/>
      </defs>
      <g transform="translate(34.696875 289.350625)scale(0.1 -0.1)">
       <use xlink:href="#DejaVuSans-48"/>
       <use x="63.623047" xlink:href="#DejaVuSans-46"/>
       <use x="95.410156" xlink:href="#DejaVuSans-49"/>
      </g>
     </g>
    </g>
    <g id="ytick_2">
     <g id="line2d_49">
      <path clip-path="url(#p86d3c94b5a)" d="M 57.6 254.663285 
L 414.72 254.663285 
" style="fill:none;stroke:#b0b0b0;stroke-dasharray:5.12,1.28,0.8,1.28;stroke-dashoffset:0;stroke-width:0.8;"/>
     </g>
     <g id="line2d_50">
      <g>
       <use style="stroke:#000000;stroke-width:0.8;" x="57.6" xlink:href="#me00b1d2a34" y="254.663285"/>
      </g>
     </g>
     <g id="text_26">
      <!-- 0.2 -->
      <g transform="translate(34.696875 258.462503)scale(0.1 -0.1)">
       <use xlink:href="#DejaVuSans-48"/>
       <use x="63.623047" xlink:href="#DejaVuSans-46"/>
       <use x="95.410156" xlink:href="#DejaVuSans-50"/>
      </g>
     </g>
    </g>
    <g id="ytick_3">
     <g id="line2d_51">
      <path clip-path="url(#p86d3c94b5a)" d="M 57.6 223.775163 
L 414.72 223.775163 
" style="fill:none;stroke:#b0b0b0;stroke-dasharray:5.12,1.28,0.8,1.28;stroke-dashoffset:0;stroke-width:0.8;"/>
     </g>
     <g id="line2d_52">
      <g>
       <use style="stroke:#000000;stroke-width:0.8;" x="57.6" xlink:href="#me00b1d2a34" y="223.775163"/>
      </g>
     </g>
     <g id="text_27">
      <!-- 0.3 -->
      <g transform="translate(34.696875 227.574381)scale(0.1 -0.1)">
       <use xlink:href="#DejaVuSans-48"/>
       <use x="63.623047" xlink:href="#DejaVuSans-46"/>
       <use x="95.410156" xlink:href="#DejaVuSans-51"/>
      </g>
     </g>
    </g>
    <g id="ytick_4">
     <g id="line2d_53">
      <path clip-path="url(#p86d3c94b5a)" d="M 57.6 192.887041 
L 414.72 192.887041 
" style="fill:none;stroke:#b0b0b0;stroke-dasharray:5.12,1.28,0.8,1.28;stroke-dashoffset:0;stroke-width:0.8;"/>
     </g>
     <g id="line2d_54">
      <g>
       <use style="stroke:#000000;stroke-width:0.8;" x="57.6" xlink:href="#me00b1d2a34" y="192.887041"/>
      </g>
     </g>
     <g id="text_28">
      <!-- 0.4 -->
      <g transform="translate(34.696875 196.686259)scale(0.1 -0.1)">
       <use xlink:href="#DejaVuSans-48"/>
       <use x="63.623047" xlink:href="#DejaVuSans-46"/>
       <use x="95.410156" xlink:href="#DejaVuSans-52"/>
      </g>
     </g>
    </g>
    <g id="ytick_5">
     <g id="line2d_55">
      <path clip-path="url(#p86d3c94b5a)" d="M 57.6 161.998918 
L 414.72 161.998918 
" style="fill:none;stroke:#b0b0b0;stroke-dasharray:5.12,1.28,0.8,1.28;stroke-dashoffset:0;stroke-width:0.8;"/>
     </g>
     <g id="line2d_56">
      <g>
       <use style="stroke:#000000;stroke-width:0.8;" x="57.6" xlink:href="#me00b1d2a34" y="161.998918"/>
      </g>
     </g>
     <g id="text_29">
      <!-- 0.5 -->
      <g transform="translate(34.696875 165.798137)scale(0.1 -0.1)">
       <use xlink:href="#DejaVuSans-48"/>
       <use x="63.623047" xlink:href="#DejaVuSans-46"/>
       <use x="95.410156" xlink:href="#DejaVuSans-53"/>
      </g>
     </g>
    </g>
    <g id="ytick_6">
     <g id="line2d_57">
      <path clip-path="url(#p86d3c94b5a)" d="M 57.6 131.110796 
L 414.72 131.110796 
" style="fill:none;stroke:#b0b0b0;stroke-dasharray:5.12,1.28,0.8,1.28;stroke-dashoffset:0;stroke-width:0.8;"/>
     </g>
     <g id="line2d_58">
      <g>
       <use style="stroke:#000000;stroke-width:0.8;" x="57.6" xlink:href="#me00b1d2a34" y="131.110796"/>
      </g>
     </g>
     <g id="text_30">
      <!-- 0.6 -->
      <g transform="translate(34.696875 134.910015)scale(0.1 -0.1)">
       <use xlink:href="#DejaVuSans-48"/>
       <use x="63.623047" xlink:href="#DejaVuSans-46"/>
       <use x="95.410156" xlink:href="#DejaVuSans-54"/>
      </g>
     </g>
    </g>
    <g id="ytick_7">
     <g id="line2d_59">
      <path clip-path="url(#p86d3c94b5a)" d="M 57.6 100.222674 
L 414.72 100.222674 
" style="fill:none;stroke:#b0b0b0;stroke-dasharray:5.12,1.28,0.8,1.28;stroke-dashoffset:0;stroke-width:0.8;"/>
     </g>
     <g id="line2d_60">
      <g>
       <use style="stroke:#000000;stroke-width:0.8;" x="57.6" xlink:href="#me00b1d2a34" y="100.222674"/>
      </g>
     </g>
     <g id="text_31">
      <!-- 0.7 -->
      <g transform="translate(34.696875 104.021893)scale(0.1 -0.1)">
       <use xlink:href="#DejaVuSans-48"/>
       <use x="63.623047" xlink:href="#DejaVuSans-46"/>
       <use x="95.410156" xlink:href="#DejaVuSans-55"/>
      </g>
     </g>
    </g>
    <g id="ytick_8">
     <g id="line2d_61">
      <path clip-path="url(#p86d3c94b5a)" d="M 57.6 69.334552 
L 414.72 69.334552 
" style="fill:none;stroke:#b0b0b0;stroke-dasharray:5.12,1.28,0.8,1.28;stroke-dashoffset:0;stroke-width:0.8;"/>
     </g>
     <g id="line2d_62">
      <g>
       <use style="stroke:#000000;stroke-width:0.8;" x="57.6" xlink:href="#me00b1d2a34" y="69.334552"/>
      </g>
     </g>
     <g id="text_32">
      <!-- 0.8 -->
      <g transform="translate(34.696875 73.133771)scale(0.1 -0.1)">
       <use xlink:href="#DejaVuSans-48"/>
       <use x="63.623047" xlink:href="#DejaVuSans-46"/>
       <use x="95.410156" xlink:href="#DejaVuSans-56"/>
      </g>
     </g>
    </g>
    <g id="text_33">
     <!-- speed up -->
     <defs>
      <path d="M 18.109375 8.203125 
L 18.109375 -20.796875 
L 9.078125 -20.796875 
L 9.078125 54.6875 
L 18.109375 54.6875 
L 18.109375 46.390625 
Q 20.953125 51.265625 25.265625 53.625 
Q 29.59375 56 35.59375 56 
Q 45.5625 56 51.78125 48.09375 
Q 58.015625 40.1875 58.015625 27.296875 
Q 58.015625 14.40625 51.78125 6.484375 
Q 45.5625 -1.421875 35.59375 -1.421875 
Q 29.59375 -1.421875 25.265625 0.953125 
Q 20.953125 3.328125 18.109375 8.203125 
z
M 48.6875 27.296875 
Q 48.6875 37.203125 44.609375 42.84375 
Q 40.53125 48.484375 33.40625 48.484375 
Q 26.265625 48.484375 22.1875 42.84375 
Q 18.109375 37.203125 18.109375 27.296875 
Q 18.109375 17.390625 22.1875 11.75 
Q 26.265625 6.109375 33.40625 6.109375 
Q 40.53125 6.109375 44.609375 11.75 
Q 48.6875 17.390625 48.6875 27.296875 
z
" id="DejaVuSans-112"/>
      <path id="DejaVuSans-32"/>
      <path d="M 8.5 21.578125 
L 8.5 54.6875 
L 17.484375 54.6875 
L 17.484375 21.921875 
Q 17.484375 14.15625 20.5 10.265625 
Q 23.53125 6.390625 29.59375 6.390625 
Q 36.859375 6.390625 41.078125 11.03125 
Q 45.3125 15.671875 45.3125 23.6875 
L 45.3125 54.6875 
L 54.296875 54.6875 
L 54.296875 0 
L 45.3125 0 
L 45.3125 8.40625 
Q 42.046875 3.421875 37.71875 1 
Q 33.40625 -1.421875 27.6875 -1.421875 
Q 18.265625 -1.421875 13.375 4.4375 
Q 8.5 10.296875 8.5 21.578125 
z
M 31.109375 56 
z
" id="DejaVuSans-117"/>
     </defs>
     <g transform="translate(28.617187 197.566281)rotate(-90)scale(0.1 -0.1)">
      <use xlink:href="#DejaVuSans-115"/>
      <use x="52.099609" xlink:href="#DejaVuSans-112"/>
      <use x="115.576172" xlink:href="#DejaVuSans-101"/>
      <use x="177.099609" xlink:href="#DejaVuSans-101"/>
      <use x="238.623047" xlink:href="#DejaVuSans-100"/>
      <use x="302.099609" xlink:href="#DejaVuSans-32"/>
      <use x="333.886719" xlink:href="#DejaVuSans-117"/>
      <use x="397.265625" xlink:href="#DejaVuSans-112"/>
     </g>
    </g>
   </g>
   <g id="line2d_63">
    <path clip-path="url(#p86d3c94b5a)" d="M 61.612584 146.137777 
L 65.625169 130.343015 
L 69.637753 115.565765 
L 73.650337 107.879412 
L 77.662921 99.675319 
L 81.675506 92.496677 
L 85.68809 84.849082 
L 89.700674 87.587884 
L 93.713258 80.808031 
L 97.725843 82.646495 
L 101.738427 73.220003 
L 105.751011 72.420104 
L 109.763596 71.543783 
L 113.77618 70.345057 
L 117.788764 65.667293 
L 121.801348 68.018584 
L 125.813933 63.957166 
L 129.826517 64.879447 
L 133.839101 60.693507 
L 137.851685 61.314811 
L 141.86427 60.182203 
L 145.876854 55.593131 
L 149.889438 62.956323 
L 153.902022 60.796621 
L 157.914607 59.354885 
L 161.927191 66.23096 
L 165.939775 64.634228 
L 169.95236 63.492694 
L 173.964944 64.276347 
L 177.977528 71.283461 
L 181.990112 69.304662 
L 186.002697 69.681239 
L 190.015281 60.842495 
L 194.027865 74.715805 
L 198.040449 76.63994 
L 202.053034 78.114319 
L 206.065618 76.047411 
L 210.078202 73.799467 
L 214.090787 77.330794 
L 218.103371 78.11797 
L 222.115955 72.474261 
L 226.128539 70.738771 
L 230.141124 67.479193 
L 234.153708 69.491436 
L 238.166292 77.225878 
L 242.178876 78.170469 
L 246.191461 80.820932 
L 250.204045 79.733399 
L 254.216629 79.552646 
L 258.229213 80.117826 
L 262.241798 79.813706 
L 266.254382 80.312053 
L 270.266966 80.092973 
L 274.279551 80.435486 
L 278.292135 79.560969 
L 282.304719 79.309081 
L 286.317303 80.129147 
L 290.329888 80.097944 
L 294.342472 80.951785 
L 298.355056 80.216635 
L 302.36764 80.410149 
L 306.380225 79.825056 
L 310.392809 79.463555 
L 314.405393 80.620393 
L 318.417978 80.689659 
L 322.430562 80.591796 
L 326.443146 82.100419 
L 330.45573 81.588605 
L 334.468315 80.725101 
L 338.480899 80.118379 
L 342.493483 79.72675 
L 346.506067 80.147643 
L 350.518652 80.868133 
L 354.531236 79.97941 
L 358.54382 81.580424 
L 362.556404 80.843711 
L 366.568989 79.92079 
L 370.581573 79.668559 
L 374.594157 79.892576 
L 378.606742 80.357253 
L 382.619326 80.006499 
L 386.63191 79.95674 
L 390.644494 79.97637 
L 394.657079 86.745841 
L 398.669663 78.894121 
L 402.682247 79.530449 
L 406.694831 79.302409 
L 410.707416 79.239837 
" style="fill:none;stroke:#0000ff;stroke-dasharray:1.5,2.475;stroke-dashoffset:0;stroke-width:1.5;"/>
    <defs>
     <path d="M 0 1.5 
C 0.397805 1.5 0.77937 1.341951 1.06066 1.06066 
C 1.341951 0.77937 1.5 0.397805 1.5 0 
C 1.5 -0.397805 1.341951 -0.77937 1.06066 -1.06066 
C 0.77937 -1.341951 0.397805 -1.5 0 -1.5 
C -0.397805 -1.5 -0.77937 -1.341951 -1.06066 -1.06066 
C -1.341951 -0.77937 -1.5 -0.397805 -1.5 0 
C -1.5 0.397805 -1.341951 0.77937 -1.06066 1.06066 
C -0.77937 1.341951 -0.397805 1.5 0 1.5 
z
" id="m0bc27bb18b" style="stroke:#0000ff;"/>
    </defs>
    <g clip-path="url(#p86d3c94b5a)">
     <use style="fill:#0000ff;stroke:#0000ff;" x="61.612584" xlink:href="#m0bc27bb18b" y="146.137777"/>
     <use style="fill:#0000ff;stroke:#0000ff;" x="65.625169" xlink:href="#m0bc27bb18b" y="130.343015"/>
     <use style="fill:#0000ff;stroke:#0000ff;" x="69.637753" xlink:href="#m0bc27bb18b" y="115.565765"/>
     <use style="fill:#0000ff;stroke:#0000ff;" x="73.650337" xlink:href="#m0bc27bb18b" y="107.879412"/>
     <use style="fill:#0000ff;stroke:#0000ff;" x="77.662921" xlink:href="#m0bc27bb18b" y="99.675319"/>
     <use style="fill:#0000ff;stroke:#0000ff;" x="81.675506" xlink:href="#m0bc27bb18b" y="92.496677"/>
     <use style="fill:#0000ff;stroke:#0000ff;" x="85.68809" xlink:href="#m0bc27bb18b" y="84.849082"/>
     <use style="fill:#0000ff;stroke:#0000ff;" x="89.700674" xlink:href="#m0bc27bb18b" y="87.587884"/>
     <use style="fill:#0000ff;stroke:#0000ff;" x="93.713258" xlink:href="#m0bc27bb18b" y="80.808031"/>
     <use style="fill:#0000ff;stroke:#0000ff;" x="97.725843" xlink:href="#m0bc27bb18b" y="82.646495"/>
     <use style="fill:#0000ff;stroke:#0000ff;" x="101.738427" xlink:href="#m0bc27bb18b" y="73.220003"/>
     <use style="fill:#0000ff;stroke:#0000ff;" x="105.751011" xlink:href="#m0bc27bb18b" y="72.420104"/>
     <use style="fill:#0000ff;stroke:#0000ff;" x="109.763596" xlink:href="#m0bc27bb18b" y="71.543783"/>
     <use style="fill:#0000ff;stroke:#0000ff;" x="113.77618" xlink:href="#m0bc27bb18b" y="70.345057"/>
     <use style="fill:#0000ff;stroke:#0000ff;" x="117.788764" xlink:href="#m0bc27bb18b" y="65.667293"/>
     <use style="fill:#0000ff;stroke:#0000ff;" x="121.801348" xlink:href="#m0bc27bb18b" y="68.018584"/>
     <use style="fill:#0000ff;stroke:#0000ff;" x="125.813933" xlink:href="#m0bc27bb18b" y="63.957166"/>
     <use style="fill:#0000ff;stroke:#0000ff;" x="129.826517" xlink:href="#m0bc27bb18b" y="64.879447"/>
     <use style="fill:#0000ff;stroke:#0000ff;" x="133.839101" xlink:href="#m0bc27bb18b" y="60.693507"/>
     <use style="fill:#0000ff;stroke:#0000ff;" x="137.851685" xlink:href="#m0bc27bb18b" y="61.314811"/>
     <use style="fill:#0000ff;stroke:#0000ff;" x="141.86427" xlink:href="#m0bc27bb18b" y="60.182203"/>
     <use style="fill:#0000ff;stroke:#0000ff;" x="145.876854" xlink:href="#m0bc27bb18b" y="55.593131"/>
     <use style="fill:#0000ff;stroke:#0000ff;" x="149.889438" xlink:href="#m0bc27bb18b" y="62.956323"/>
     <use style="fill:#0000ff;stroke:#0000ff;" x="153.902022" xlink:href="#m0bc27bb18b" y="60.796621"/>
     <use style="fill:#0000ff;stroke:#0000ff;" x="157.914607" xlink:href="#m0bc27bb18b" y="59.354885"/>
     <use style="fill:#0000ff;stroke:#0000ff;" x="161.927191" xlink:href="#m0bc27bb18b" y="66.23096"/>
     <use style="fill:#0000ff;stroke:#0000ff;" x="165.939775" xlink:href="#m0bc27bb18b" y="64.634228"/>
     <use style="fill:#0000ff;stroke:#0000ff;" x="169.95236" xlink:href="#m0bc27bb18b" y="63.492694"/>
     <use style="fill:#0000ff;stroke:#0000ff;" x="173.964944" xlink:href="#m0bc27bb18b" y="64.276347"/>
     <use style="fill:#0000ff;stroke:#0000ff;" x="177.977528" xlink:href="#m0bc27bb18b" y="71.283461"/>
     <use style="fill:#0000ff;stroke:#0000ff;" x="181.990112" xlink:href="#m0bc27bb18b" y="69.304662"/>
     <use style="fill:#0000ff;stroke:#0000ff;" x="186.002697" xlink:href="#m0bc27bb18b" y="69.681239"/>
     <use style="fill:#0000ff;stroke:#0000ff;" x="190.015281" xlink:href="#m0bc27bb18b" y="60.842495"/>
     <use style="fill:#0000ff;stroke:#0000ff;" x="194.027865" xlink:href="#m0bc27bb18b" y="74.715805"/>
     <use style="fill:#0000ff;stroke:#0000ff;" x="198.040449" xlink:href="#m0bc27bb18b" y="76.63994"/>
     <use style="fill:#0000ff;stroke:#0000ff;" x="202.053034" xlink:href="#m0bc27bb18b" y="78.114319"/>
     <use style="fill:#0000ff;stroke:#0000ff;" x="206.065618" xlink:href="#m0bc27bb18b" y="76.047411"/>
     <use style="fill:#0000ff;stroke:#0000ff;" x="210.078202" xlink:href="#m0bc27bb18b" y="73.799467"/>
     <use style="fill:#0000ff;stroke:#0000ff;" x="214.090787" xlink:href="#m0bc27bb18b" y="77.330794"/>
     <use style="fill:#0000ff;stroke:#0000ff;" x="218.103371" xlink:href="#m0bc27bb18b" y="78.11797"/>
     <use style="fill:#0000ff;stroke:#0000ff;" x="222.115955" xlink:href="#m0bc27bb18b" y="72.474261"/>
     <use style="fill:#0000ff;stroke:#0000ff;" x="226.128539" xlink:href="#m0bc27bb18b" y="70.738771"/>
     <use style="fill:#0000ff;stroke:#0000ff;" x="230.141124" xlink:href="#m0bc27bb18b" y="67.479193"/>
     <use style="fill:#0000ff;stroke:#0000ff;" x="234.153708" xlink:href="#m0bc27bb18b" y="69.491436"/>
     <use style="fill:#0000ff;stroke:#0000ff;" x="238.166292" xlink:href="#m0bc27bb18b" y="77.225878"/>
     <use style="fill:#0000ff;stroke:#0000ff;" x="242.178876" xlink:href="#m0bc27bb18b" y="78.170469"/>
     <use style="fill:#0000ff;stroke:#0000ff;" x="246.191461" xlink:href="#m0bc27bb18b" y="80.820932"/>
     <use style="fill:#0000ff;stroke:#0000ff;" x="250.204045" xlink:href="#m0bc27bb18b" y="79.733399"/>
     <use style="fill:#0000ff;stroke:#0000ff;" x="254.216629" xlink:href="#m0bc27bb18b" y="79.552646"/>
     <use style="fill:#0000ff;stroke:#0000ff;" x="258.229213" xlink:href="#m0bc27bb18b" y="80.117826"/>
     <use style="fill:#0000ff;stroke:#0000ff;" x="262.241798" xlink:href="#m0bc27bb18b" y="79.813706"/>
     <use style="fill:#0000ff;stroke:#0000ff;" x="266.254382" xlink:href="#m0bc27bb18b" y="80.312053"/>
     <use style="fill:#0000ff;stroke:#0000ff;" x="270.266966" xlink:href="#m0bc27bb18b" y="80.092973"/>
     <use style="fill:#0000ff;stroke:#0000ff;" x="274.279551" xlink:href="#m0bc27bb18b" y="80.435486"/>
     <use style="fill:#0000ff;stroke:#0000ff;" x="278.292135" xlink:href="#m0bc27bb18b" y="79.560969"/>
     <use style="fill:#0000ff;stroke:#0000ff;" x="282.304719" xlink:href="#m0bc27bb18b" y="79.309081"/>
     <use style="fill:#0000ff;stroke:#0000ff;" x="286.317303" xlink:href="#m0bc27bb18b" y="80.129147"/>
     <use style="fill:#0000ff;stroke:#0000ff;" x="290.329888" xlink:href="#m0bc27bb18b" y="80.097944"/>
     <use style="fill:#0000ff;stroke:#0000ff;" x="294.342472" xlink:href="#m0bc27bb18b" y="80.951785"/>
     <use style="fill:#0000ff;stroke:#0000ff;" x="298.355056" xlink:href="#m0bc27bb18b" y="80.216635"/>
     <use style="fill:#0000ff;stroke:#0000ff;" x="302.36764" xlink:href="#m0bc27bb18b" y="80.410149"/>
     <use style="fill:#0000ff;stroke:#0000ff;" x="306.380225" xlink:href="#m0bc27bb18b" y="79.825056"/>
     <use style="fill:#0000ff;stroke:#0000ff;" x="310.392809" xlink:href="#m0bc27bb18b" y="79.463555"/>
     <use style="fill:#0000ff;stroke:#0000ff;" x="314.405393" xlink:href="#m0bc27bb18b" y="80.620393"/>
     <use style="fill:#0000ff;stroke:#0000ff;" x="318.417978" xlink:href="#m0bc27bb18b" y="80.689659"/>
     <use style="fill:#0000ff;stroke:#0000ff;" x="322.430562" xlink:href="#m0bc27bb18b" y="80.591796"/>
     <use style="fill:#0000ff;stroke:#0000ff;" x="326.443146" xlink:href="#m0bc27bb18b" y="82.100419"/>
     <use style="fill:#0000ff;stroke:#0000ff;" x="330.45573" xlink:href="#m0bc27bb18b" y="81.588605"/>
     <use style="fill:#0000ff;stroke:#0000ff;" x="334.468315" xlink:href="#m0bc27bb18b" y="80.725101"/>
     <use style="fill:#0000ff;stroke:#0000ff;" x="338.480899" xlink:href="#m0bc27bb18b" y="80.118379"/>
     <use style="fill:#0000ff;stroke:#0000ff;" x="342.493483" xlink:href="#m0bc27bb18b" y="79.72675"/>
     <use style="fill:#0000ff;stroke:#0000ff;" x="346.506067" xlink:href="#m0bc27bb18b" y="80.147643"/>
     <use style="fill:#0000ff;stroke:#0000ff;" x="350.518652" xlink:href="#m0bc27bb18b" y="80.868133"/>
     <use style="fill:#0000ff;stroke:#0000ff;" x="354.531236" xlink:href="#m0bc27bb18b" y="79.97941"/>
     <use style="fill:#0000ff;stroke:#0000ff;" x="358.54382" xlink:href="#m0bc27bb18b" y="81.580424"/>
     <use style="fill:#0000ff;stroke:#0000ff;" x="362.556404" xlink:href="#m0bc27bb18b" y="80.843711"/>
     <use style="fill:#0000ff;stroke:#0000ff;" x="366.568989" xlink:href="#m0bc27bb18b" y="79.92079"/>
     <use style="fill:#0000ff;stroke:#0000ff;" x="370.581573" xlink:href="#m0bc27bb18b" y="79.668559"/>
     <use style="fill:#0000ff;stroke:#0000ff;" x="374.594157" xlink:href="#m0bc27bb18b" y="79.892576"/>
     <use style="fill:#0000ff;stroke:#0000ff;" x="378.606742" xlink:href="#m0bc27bb18b" y="80.357253"/>
     <use style="fill:#0000ff;stroke:#0000ff;" x="382.619326" xlink:href="#m0bc27bb18b" y="80.006499"/>
     <use style="fill:#0000ff;stroke:#0000ff;" x="386.63191" xlink:href="#m0bc27bb18b" y="79.95674"/>
     <use style="fill:#0000ff;stroke:#0000ff;" x="390.644494" xlink:href="#m0bc27bb18b" y="79.97637"/>
     <use style="fill:#0000ff;stroke:#0000ff;" x="394.657079" xlink:href="#m0bc27bb18b" y="86.745841"/>
     <use style="fill:#0000ff;stroke:#0000ff;" x="398.669663" xlink:href="#m0bc27bb18b" y="78.894121"/>
     <use style="fill:#0000ff;stroke:#0000ff;" x="402.682247" xlink:href="#m0bc27bb18b" y="79.530449"/>
     <use style="fill:#0000ff;stroke:#0000ff;" x="406.694831" xlink:href="#m0bc27bb18b" y="79.302409"/>
     <use style="fill:#0000ff;stroke:#0000ff;" x="410.707416" xlink:href="#m0bc27bb18b" y="79.239837"/>
    </g>
   </g>
   <g id="line2d_64">
    <path clip-path="url(#p86d3c94b5a)" d="M 61.612584 53.568 
L 65.625169 111.664969 
L 69.637753 153.175953 
L 73.650337 177.436475 
L 77.662921 199.373703 
L 81.675506 209.913147 
L 85.68809 221.567332 
L 89.700674 231.367207 
L 93.713258 237.752205 
L 97.725843 244.647605 
L 101.738427 249.217388 
L 105.751011 254.3065 
L 109.763596 258.122231 
L 113.77618 261.651842 
L 117.788764 264.999746 
L 121.801348 267.310124 
L 125.813933 270.082994 
L 129.826517 272.013648 
L 133.839101 274.180291 
L 137.851685 275.862253 
L 141.86427 277.762367 
L 145.876854 279.355848 
L 149.889438 280.760055 
L 153.902022 282.259207 
L 157.914607 283.526289 
L 161.927191 284.276063 
L 165.939775 285.355123 
L 169.95236 286.212654 
L 173.964944 287.030783 
L 177.977528 287.762721 
L 181.990112 288.723828 
L 186.002697 289.336194 
L 190.015281 290.134916 
L 194.027865 290.94367 
L 198.040449 291.31243 
L 202.053034 291.967995 
L 206.065618 292.516431 
L 210.078202 293.036464 
L 214.090787 293.431594 
L 218.103371 293.745123 
L 222.115955 294.085817 
L 226.128539 294.595198 
L 230.141124 294.763891 
L 234.153708 295.313918 
L 238.166292 295.410884 
L 242.178876 295.408581 
L 246.191461 295.398 
L 250.204045 295.419209 
L 254.216629 295.421235 
L 258.229213 295.399277 
L 262.241798 295.406017 
L 266.254382 295.400935 
L 270.266966 295.403662 
L 274.279551 295.404122 
L 278.292135 295.404021 
L 282.304719 295.407582 
L 286.317303 295.409777 
L 290.329888 295.411593 
L 294.342472 295.417266 
L 298.355056 295.408142 
L 302.36764 295.400583 
L 306.380225 295.402231 
L 310.392809 295.416657 
L 314.405393 295.418217 
L 318.417978 295.408576 
L 322.430562 295.424739 
L 326.443146 295.488 
L 330.45573 295.402568 
L 334.468315 295.409018 
L 338.480899 295.406561 
L 342.493483 295.412849 
L 346.506067 295.411329 
L 350.518652 295.403967 
L 354.531236 295.402057 
L 358.54382 295.408933 
L 362.556404 295.409036 
L 366.568989 295.407022 
L 370.581573 295.427477 
L 374.594157 295.414011 
L 378.606742 295.410176 
L 382.619326 295.419607 
L 386.63191 295.422078 
L 390.644494 295.409986 
L 394.657079 295.410315 
L 398.669663 295.406781 
L 402.682247 295.398204 
L 406.694831 295.405935 
L 410.707416 295.401297 
" style="fill:none;stroke:#ff0000;stroke-dasharray:1.5,2.475;stroke-dashoffset:0;stroke-width:1.5;"/>
    <defs>
     <path d="M 0 1.5 
C 0.397805 1.5 0.77937 1.341951 1.06066 1.06066 
C 1.341951 0.77937 1.5 0.397805 1.5 0 
C 1.5 -0.397805 1.341951 -0.77937 1.06066 -1.06066 
C 0.77937 -1.341951 0.397805 -1.5 0 -1.5 
C -0.397805 -1.5 -0.77937 -1.341951 -1.06066 -1.06066 
C -1.341951 -0.77937 -1.5 -0.397805 -1.5 0 
C -1.5 0.397805 -1.341951 0.77937 -1.06066 1.06066 
C -0.77937 1.341951 -0.397805 1.5 0 1.5 
z
" id="m9233c5d2ce" style="stroke:#ff0000;"/>
    </defs>
    <g clip-path="url(#p86d3c94b5a)">
     <use style="fill:#ff0000;stroke:#ff0000;" x="61.612584" xlink:href="#m9233c5d2ce" y="53.568"/>
     <use style="fill:#ff0000;stroke:#ff0000;" x="65.625169" xlink:href="#m9233c5d2ce" y="111.664969"/>
     <use style="fill:#ff0000;stroke:#ff0000;" x="69.637753" xlink:href="#m9233c5d2ce" y="153.175953"/>
     <use style="fill:#ff0000;stroke:#ff0000;" x="73.650337" xlink:href="#m9233c5d2ce" y="177.436475"/>
     <use style="fill:#ff0000;stroke:#ff0000;" x="77.662921" xlink:href="#m9233c5d2ce" y="199.373703"/>
     <use style="fill:#ff0000;stroke:#ff0000;" x="81.675506" xlink:href="#m9233c5d2ce" y="209.913147"/>
     <use style="fill:#ff0000;stroke:#ff0000;" x="85.68809" xlink:href="#m9233c5d2ce" y="221.567332"/>
     <use style="fill:#ff0000;stroke:#ff0000;" x="89.700674" xlink:href="#m9233c5d2ce" y="231.367207"/>
     <use style="fill:#ff0000;stroke:#ff0000;" x="93.713258" xlink:href="#m9233c5d2ce" y="237.752205"/>
     <use style="fill:#ff0000;stroke:#ff0000;" x="97.725843" xlink:href="#m9233c5d2ce" y="244.647605"/>
     <use style="fill:#ff0000;stroke:#ff0000;" x="101.738427" xlink:href="#m9233c5d2ce" y="249.217388"/>
     <use style="fill:#ff0000;stroke:#ff0000;" x="105.751011" xlink:href="#m9233c5d2ce" y="254.3065"/>
     <use style="fill:#ff0000;stroke:#ff0000;" x="109.763596" xlink:href="#m9233c5d2ce" y="258.122231"/>
     <use style="fill:#ff0000;stroke:#ff0000;" x="113.77618" xlink:href="#m9233c5d2ce" y="261.651842"/>
     <use style="fill:#ff0000;stroke:#ff0000;" x="117.788764" xlink:href="#m9233c5d2ce" y="264.999746"/>
     <use style="fill:#ff0000;stroke:#ff0000;" x="121.801348" xlink:href="#m9233c5d2ce" y="267.310124"/>
     <use style="fill:#ff0000;stroke:#ff0000;" x="125.813933" xlink:href="#m9233c5d2ce" y="270.082994"/>
     <use style="fill:#ff0000;stroke:#ff0000;" x="129.826517" xlink:href="#m9233c5d2ce" y="272.013648"/>
     <use style="fill:#ff0000;stroke:#ff0000;" x="133.839101" xlink:href="#m9233c5d2ce" y="274.180291"/>
     <use style="fill:#ff0000;stroke:#ff0000;" x="137.851685" xlink:href="#m9233c5d2ce" y="275.862253"/>
     <use style="fill:#ff0000;stroke:#ff0000;" x="141.86427" xlink:href="#m9233c5d2ce" y="277.762367"/>
     <use style="fill:#ff0000;stroke:#ff0000;" x="145.876854" xlink:href="#m9233c5d2ce" y="279.355848"/>
     <use style="fill:#ff0000;stroke:#ff0000;" x="149.889438" xlink:href="#m9233c5d2ce" y="280.760055"/>
     <use style="fill:#ff0000;stroke:#ff0000;" x="153.902022" xlink:href="#m9233c5d2ce" y="282.259207"/>
     <use style="fill:#ff0000;stroke:#ff0000;" x="157.914607" xlink:href="#m9233c5d2ce" y="283.526289"/>
     <use style="fill:#ff0000;stroke:#ff0000;" x="161.927191" xlink:href="#m9233c5d2ce" y="284.276063"/>
     <use style="fill:#ff0000;stroke:#ff0000;" x="165.939775" xlink:href="#m9233c5d2ce" y="285.355123"/>
     <use style="fill:#ff0000;stroke:#ff0000;" x="169.95236" xlink:href="#m9233c5d2ce" y="286.212654"/>
     <use style="fill:#ff0000;stroke:#ff0000;" x="173.964944" xlink:href="#m9233c5d2ce" y="287.030783"/>
     <use style="fill:#ff0000;stroke:#ff0000;" x="177.977528" xlink:href="#m9233c5d2ce" y="287.762721"/>
     <use style="fill:#ff0000;stroke:#ff0000;" x="181.990112" xlink:href="#m9233c5d2ce" y="288.723828"/>
     <use style="fill:#ff0000;stroke:#ff0000;" x="186.002697" xlink:href="#m9233c5d2ce" y="289.336194"/>
     <use style="fill:#ff0000;stroke:#ff0000;" x="190.015281" xlink:href="#m9233c5d2ce" y="290.134916"/>
     <use style="fill:#ff0000;stroke:#ff0000;" x="194.027865" xlink:href="#m9233c5d2ce" y="290.94367"/>
     <use style="fill:#ff0000;stroke:#ff0000;" x="198.040449" xlink:href="#m9233c5d2ce" y="291.31243"/>
     <use style="fill:#ff0000;stroke:#ff0000;" x="202.053034" xlink:href="#m9233c5d2ce" y="291.967995"/>
     <use style="fill:#ff0000;stroke:#ff0000;" x="206.065618" xlink:href="#m9233c5d2ce" y="292.516431"/>
     <use style="fill:#ff0000;stroke:#ff0000;" x="210.078202" xlink:href="#m9233c5d2ce" y="293.036464"/>
     <use style="fill:#ff0000;stroke:#ff0000;" x="214.090787" xlink:href="#m9233c5d2ce" y="293.431594"/>
     <use style="fill:#ff0000;stroke:#ff0000;" x="218.103371" xlink:href="#m9233c5d2ce" y="293.745123"/>
     <use style="fill:#ff0000;stroke:#ff0000;" x="222.115955" xlink:href="#m9233c5d2ce" y="294.085817"/>
     <use style="fill:#ff0000;stroke:#ff0000;" x="226.128539" xlink:href="#m9233c5d2ce" y="294.595198"/>
     <use style="fill:#ff0000;stroke:#ff0000;" x="230.141124" xlink:href="#m9233c5d2ce" y="294.763891"/>
     <use style="fill:#ff0000;stroke:#ff0000;" x="234.153708" xlink:href="#m9233c5d2ce" y="295.313918"/>
     <use style="fill:#ff0000;stroke:#ff0000;" x="238.166292" xlink:href="#m9233c5d2ce" y="295.410884"/>
     <use style="fill:#ff0000;stroke:#ff0000;" x="242.178876" xlink:href="#m9233c5d2ce" y="295.408581"/>
     <use style="fill:#ff0000;stroke:#ff0000;" x="246.191461" xlink:href="#m9233c5d2ce" y="295.398"/>
     <use style="fill:#ff0000;stroke:#ff0000;" x="250.204045" xlink:href="#m9233c5d2ce" y="295.419209"/>
     <use style="fill:#ff0000;stroke:#ff0000;" x="254.216629" xlink:href="#m9233c5d2ce" y="295.421235"/>
     <use style="fill:#ff0000;stroke:#ff0000;" x="258.229213" xlink:href="#m9233c5d2ce" y="295.399277"/>
     <use style="fill:#ff0000;stroke:#ff0000;" x="262.241798" xlink:href="#m9233c5d2ce" y="295.406017"/>
     <use style="fill:#ff0000;stroke:#ff0000;" x="266.254382" xlink:href="#m9233c5d2ce" y="295.400935"/>
     <use style="fill:#ff0000;stroke:#ff0000;" x="270.266966" xlink:href="#m9233c5d2ce" y="295.403662"/>
     <use style="fill:#ff0000;stroke:#ff0000;" x="274.279551" xlink:href="#m9233c5d2ce" y="295.404122"/>
     <use style="fill:#ff0000;stroke:#ff0000;" x="278.292135" xlink:href="#m9233c5d2ce" y="295.404021"/>
     <use style="fill:#ff0000;stroke:#ff0000;" x="282.304719" xlink:href="#m9233c5d2ce" y="295.407582"/>
     <use style="fill:#ff0000;stroke:#ff0000;" x="286.317303" xlink:href="#m9233c5d2ce" y="295.409777"/>
     <use style="fill:#ff0000;stroke:#ff0000;" x="290.329888" xlink:href="#m9233c5d2ce" y="295.411593"/>
     <use style="fill:#ff0000;stroke:#ff0000;" x="294.342472" xlink:href="#m9233c5d2ce" y="295.417266"/>
     <use style="fill:#ff0000;stroke:#ff0000;" x="298.355056" xlink:href="#m9233c5d2ce" y="295.408142"/>
     <use style="fill:#ff0000;stroke:#ff0000;" x="302.36764" xlink:href="#m9233c5d2ce" y="295.400583"/>
     <use style="fill:#ff0000;stroke:#ff0000;" x="306.380225" xlink:href="#m9233c5d2ce" y="295.402231"/>
     <use style="fill:#ff0000;stroke:#ff0000;" x="310.392809" xlink:href="#m9233c5d2ce" y="295.416657"/>
     <use style="fill:#ff0000;stroke:#ff0000;" x="314.405393" xlink:href="#m9233c5d2ce" y="295.418217"/>
     <use style="fill:#ff0000;stroke:#ff0000;" x="318.417978" xlink:href="#m9233c5d2ce" y="295.408576"/>
     <use style="fill:#ff0000;stroke:#ff0000;" x="322.430562" xlink:href="#m9233c5d2ce" y="295.424739"/>
     <use style="fill:#ff0000;stroke:#ff0000;" x="326.443146" xlink:href="#m9233c5d2ce" y="295.488"/>
     <use style="fill:#ff0000;stroke:#ff0000;" x="330.45573" xlink:href="#m9233c5d2ce" y="295.402568"/>
     <use style="fill:#ff0000;stroke:#ff0000;" x="334.468315" xlink:href="#m9233c5d2ce" y="295.409018"/>
     <use style="fill:#ff0000;stroke:#ff0000;" x="338.480899" xlink:href="#m9233c5d2ce" y="295.406561"/>
     <use style="fill:#ff0000;stroke:#ff0000;" x="342.493483" xlink:href="#m9233c5d2ce" y="295.412849"/>
     <use style="fill:#ff0000;stroke:#ff0000;" x="346.506067" xlink:href="#m9233c5d2ce" y="295.411329"/>
     <use style="fill:#ff0000;stroke:#ff0000;" x="350.518652" xlink:href="#m9233c5d2ce" y="295.403967"/>
     <use style="fill:#ff0000;stroke:#ff0000;" x="354.531236" xlink:href="#m9233c5d2ce" y="295.402057"/>
     <use style="fill:#ff0000;stroke:#ff0000;" x="358.54382" xlink:href="#m9233c5d2ce" y="295.408933"/>
     <use style="fill:#ff0000;stroke:#ff0000;" x="362.556404" xlink:href="#m9233c5d2ce" y="295.409036"/>
     <use style="fill:#ff0000;stroke:#ff0000;" x="366.568989" xlink:href="#m9233c5d2ce" y="295.407022"/>
     <use style="fill:#ff0000;stroke:#ff0000;" x="370.581573" xlink:href="#m9233c5d2ce" y="295.427477"/>
     <use style="fill:#ff0000;stroke:#ff0000;" x="374.594157" xlink:href="#m9233c5d2ce" y="295.414011"/>
     <use style="fill:#ff0000;stroke:#ff0000;" x="378.606742" xlink:href="#m9233c5d2ce" y="295.410176"/>
     <use style="fill:#ff0000;stroke:#ff0000;" x="382.619326" xlink:href="#m9233c5d2ce" y="295.419607"/>
     <use style="fill:#ff0000;stroke:#ff0000;" x="386.63191" xlink:href="#m9233c5d2ce" y="295.422078"/>
     <use style="fill:#ff0000;stroke:#ff0000;" x="390.644494" xlink:href="#m9233c5d2ce" y="295.409986"/>
     <use style="fill:#ff0000;stroke:#ff0000;" x="394.657079" xlink:href="#m9233c5d2ce" y="295.410315"/>
     <use style="fill:#ff0000;stroke:#ff0000;" x="398.669663" xlink:href="#m9233c5d2ce" y="295.406781"/>
     <use style="fill:#ff0000;stroke:#ff0000;" x="402.682247" xlink:href="#m9233c5d2ce" y="295.398204"/>
     <use style="fill:#ff0000;stroke:#ff0000;" x="406.694831" xlink:href="#m9233c5d2ce" y="295.405935"/>
     <use style="fill:#ff0000;stroke:#ff0000;" x="410.707416" xlink:href="#m9233c5d2ce" y="295.401297"/>
    </g>
   </g>
   <g id="line2d_65">
    <path clip-path="url(#p86d3c94b5a)" d="M 61.612584 99.852888 
L 65.625169 121.003992 
L 69.637753 134.370859 
L 73.650337 142.657944 
L 77.662921 149.524511 
L 81.675506 151.204912 
L 85.68809 153.208207 
L 89.700674 159.477546 
L 93.713258 159.280118 
L 97.725843 163.64705 
L 101.738427 161.218696 
L 105.751011 163.363302 
L 109.763596 164.833007 
L 113.77618 165.998449 
L 117.788764 165.333519 
L 121.801348 167.664354 
L 125.813933 167.02008 
L 129.826517 168.446548 
L 133.839101 167.436899 
L 137.851685 168.588532 
L 141.86427 168.972285 
L 145.876854 167.47449 
L 149.889438 171.858189 
L 153.902022 171.527914 
L 157.914607 171.440587 
L 161.927191 175.253512 
L 165.939775 174.994676 
L 169.95236 174.852674 
L 173.964944 175.653565 
L 177.977528 179.523091 
L 181.990112 179.014245 
L 186.002697 179.508717 
L 190.015281 175.488705 
L 194.027865 182.829738 
L 198.040449 183.976185 
L 202.053034 185.041157 
L 206.065618 184.281921 
L 210.078202 183.417966 
L 214.090787 185.381194 
L 218.103371 185.931546 
L 222.115955 183.280039 
L 226.128539 182.666985 
L 230.141124 181.121542 
L 234.153708 182.402677 
L 238.166292 186.318381 
L 242.178876 186.789525 
L 246.191461 188.109466 
L 250.204045 187.576304 
L 254.216629 187.48694 
L 258.229213 187.758552 
L 262.241798 187.609862 
L 266.254382 187.856494 
L 270.266966 187.748318 
L 274.279551 187.919804 
L 278.292135 187.482495 
L 282.304719 187.358331 
L 286.317303 187.769462 
L 290.329888 187.754769 
L 294.342472 188.184526 
L 298.355056 187.812389 
L 302.36764 187.905366 
L 306.380225 187.613643 
L 310.392809 187.440106 
L 314.405393 188.019305 
L 318.417978 188.049117 
L 322.430562 188.008267 
L 326.443146 188.794209 
L 330.45573 188.495587 
L 334.468315 188.067059 
L 338.480899 187.76247 
L 342.493483 187.5698 
L 346.506067 187.779486 
L 350.518652 188.13605 
L 354.531236 187.690734 
L 358.54382 188.494678 
L 362.556404 188.126374 
L 366.568989 187.663906 
L 370.581573 187.548018 
L 374.594157 187.653294 
L 378.606742 187.883714 
L 382.619326 187.713053 
L 386.63191 187.689409 
L 390.644494 187.693178 
L 394.657079 191.078078 
L 398.669663 187.150451 
L 402.682247 187.464327 
L 406.694831 187.354172 
L 410.707416 187.320567 
" style="fill:none;stroke:#008000;stroke-dasharray:1.5,2.475;stroke-dashoffset:0;stroke-width:1.5;"/>
    <defs>
     <path d="M 0 1.5 
C 0.397805 1.5 0.77937 1.341951 1.06066 1.06066 
C 1.341951 0.77937 1.5 0.397805 1.5 0 
C 1.5 -0.397805 1.341951 -0.77937 1.06066 -1.06066 
C 0.77937 -1.341951 0.397805 -1.5 0 -1.5 
C -0.397805 -1.5 -0.77937 -1.341951 -1.06066 -1.06066 
C -1.341951 -0.77937 -1.5 -0.397805 -1.5 0 
C -1.5 0.397805 -1.341951 0.77937 -1.06066 1.06066 
C -0.77937 1.341951 -0.397805 1.5 0 1.5 
z
" id="m574691a0a4" style="stroke:#008000;"/>
    </defs>
    <g clip-path="url(#p86d3c94b5a)">
     <use style="fill:#008000;stroke:#008000;" x="61.612584" xlink:href="#m574691a0a4" y="99.852888"/>
     <use style="fill:#008000;stroke:#008000;" x="65.625169" xlink:href="#m574691a0a4" y="121.003992"/>
     <use style="fill:#008000;stroke:#008000;" x="69.637753" xlink:href="#m574691a0a4" y="134.370859"/>
     <use style="fill:#008000;stroke:#008000;" x="73.650337" xlink:href="#m574691a0a4" y="142.657944"/>
     <use style="fill:#008000;stroke:#008000;" x="77.662921" xlink:href="#m574691a0a4" y="149.524511"/>
     <use style="fill:#008000;stroke:#008000;" x="81.675506" xlink:href="#m574691a0a4" y="151.204912"/>
     <use style="fill:#008000;stroke:#008000;" x="85.68809" xlink:href="#m574691a0a4" y="153.208207"/>
     <use style="fill:#008000;stroke:#008000;" x="89.700674" xlink:href="#m574691a0a4" y="159.477546"/>
     <use style="fill:#008000;stroke:#008000;" x="93.713258" xlink:href="#m574691a0a4" y="159.280118"/>
     <use style="fill:#008000;stroke:#008000;" x="97.725843" xlink:href="#m574691a0a4" y="163.64705"/>
     <use style="fill:#008000;stroke:#008000;" x="101.738427" xlink:href="#m574691a0a4" y="161.218696"/>
     <use style="fill:#008000;stroke:#008000;" x="105.751011" xlink:href="#m574691a0a4" y="163.363302"/>
     <use style="fill:#008000;stroke:#008000;" x="109.763596" xlink:href="#m574691a0a4" y="164.833007"/>
     <use style="fill:#008000;stroke:#008000;" x="113.77618" xlink:href="#m574691a0a4" y="165.998449"/>
     <use style="fill:#008000;stroke:#008000;" x="117.788764" xlink:href="#m574691a0a4" y="165.333519"/>
     <use style="fill:#008000;stroke:#008000;" x="121.801348" xlink:href="#m574691a0a4" y="167.664354"/>
     <use style="fill:#008000;stroke:#008000;" x="125.813933" xlink:href="#m574691a0a4" y="167.02008"/>
     <use style="fill:#008000;stroke:#008000;" x="129.826517" xlink:href="#m574691a0a4" y="168.446548"/>
     <use style="fill:#008000;stroke:#008000;" x="133.839101" xlink:href="#m574691a0a4" y="167.436899"/>
     <use style="fill:#008000;stroke:#008000;" x="137.851685" xlink:href="#m574691a0a4" y="168.588532"/>
     <use style="fill:#008000;stroke:#008000;" x="141.86427" xlink:href="#m574691a0a4" y="168.972285"/>
     <use style="fill:#008000;stroke:#008000;" x="145.876854" xlink:href="#m574691a0a4" y="167.47449"/>
     <use style="fill:#008000;stroke:#008000;" x="149.889438" xlink:href="#m574691a0a4" y="171.858189"/>
     <use style="fill:#008000;stroke:#008000;" x="153.902022" xlink:href="#m574691a0a4" y="171.527914"/>
     <use style="fill:#008000;stroke:#008000;" x="157.914607" xlink:href="#m574691a0a4" y="171.440587"/>
     <use style="fill:#008000;stroke:#008000;" x="161.927191" xlink:href="#m574691a0a4" y="175.253512"/>
     <use style="fill:#008000;stroke:#008000;" x="165.939775" xlink:href="#m574691a0a4" y="174.994676"/>
     <use style="fill:#008000;stroke:#008000;" x="169.95236" xlink:href="#m574691a0a4" y="174.852674"/>
     <use style="fill:#008000;stroke:#008000;" x="173.964944" xlink:href="#m574691a0a4" y="175.653565"/>
     <use style="fill:#008000;stroke:#008000;" x="177.977528" xlink:href="#m574691a0a4" y="179.523091"/>
     <use style="fill:#008000;stroke:#008000;" x="181.990112" xlink:href="#m574691a0a4" y="179.014245"/>
     <use style="fill:#008000;stroke:#008000;" x="186.002697" xlink:href="#m574691a0a4" y="179.508717"/>
     <use style="fill:#008000;stroke:#008000;" x="190.015281" xlink:href="#m574691a0a4" y="175.488705"/>
     <use style="fill:#008000;stroke:#008000;" x="194.027865" xlink:href="#m574691a0a4" y="182.829738"/>
     <use style="fill:#008000;stroke:#008000;" x="198.040449" xlink:href="#m574691a0a4" y="183.976185"/>
     <use style="fill:#008000;stroke:#008000;" x="202.053034" xlink:href="#m574691a0a4" y="185.041157"/>
     <use style="fill:#008000;stroke:#008000;" x="206.065618" xlink:href="#m574691a0a4" y="184.281921"/>
     <use style="fill:#008000;stroke:#008000;" x="210.078202" xlink:href="#m574691a0a4" y="183.417966"/>
     <use style="fill:#008000;stroke:#008000;" x="214.090787" xlink:href="#m574691a0a4" y="185.381194"/>
     <use style="fill:#008000;stroke:#008000;" x="218.103371" xlink:href="#m574691a0a4" y="185.931546"/>
     <use style="fill:#008000;stroke:#008000;" x="222.115955" xlink:href="#m574691a0a4" y="183.280039"/>
     <use style="fill:#008000;stroke:#008000;" x="226.128539" xlink:href="#m574691a0a4" y="182.666985"/>
     <use style="fill:#008000;stroke:#008000;" x="230.141124" xlink:href="#m574691a0a4" y="181.121542"/>
     <use style="fill:#008000;stroke:#008000;" x="234.153708" xlink:href="#m574691a0a4" y="182.402677"/>
     <use style="fill:#008000;stroke:#008000;" x="238.166292" xlink:href="#m574691a0a4" y="186.318381"/>
     <use style="fill:#008000;stroke:#008000;" x="242.178876" xlink:href="#m574691a0a4" y="186.789525"/>
     <use style="fill:#008000;stroke:#008000;" x="246.191461" xlink:href="#m574691a0a4" y="188.109466"/>
     <use style="fill:#008000;stroke:#008000;" x="250.204045" xlink:href="#m574691a0a4" y="187.576304"/>
     <use style="fill:#008000;stroke:#008000;" x="254.216629" xlink:href="#m574691a0a4" y="187.48694"/>
     <use style="fill:#008000;stroke:#008000;" x="258.229213" xlink:href="#m574691a0a4" y="187.758552"/>
     <use style="fill:#008000;stroke:#008000;" x="262.241798" xlink:href="#m574691a0a4" y="187.609862"/>
     <use style="fill:#008000;stroke:#008000;" x="266.254382" xlink:href="#m574691a0a4" y="187.856494"/>
     <use style="fill:#008000;stroke:#008000;" x="270.266966" xlink:href="#m574691a0a4" y="187.748318"/>
     <use style="fill:#008000;stroke:#008000;" x="274.279551" xlink:href="#m574691a0a4" y="187.919804"/>
     <use style="fill:#008000;stroke:#008000;" x="278.292135" xlink:href="#m574691a0a4" y="187.482495"/>
     <use style="fill:#008000;stroke:#008000;" x="282.304719" xlink:href="#m574691a0a4" y="187.358331"/>
     <use style="fill:#008000;stroke:#008000;" x="286.317303" xlink:href="#m574691a0a4" y="187.769462"/>
     <use style="fill:#008000;stroke:#008000;" x="290.329888" xlink:href="#m574691a0a4" y="187.754769"/>
     <use style="fill:#008000;stroke:#008000;" x="294.342472" xlink:href="#m574691a0a4" y="188.184526"/>
     <use style="fill:#008000;stroke:#008000;" x="298.355056" xlink:href="#m574691a0a4" y="187.812389"/>
     <use style="fill:#008000;stroke:#008000;" x="302.36764" xlink:href="#m574691a0a4" y="187.905366"/>
     <use style="fill:#008000;stroke:#008000;" x="306.380225" xlink:href="#m574691a0a4" y="187.613643"/>
     <use style="fill:#008000;stroke:#008000;" x="310.392809" xlink:href="#m574691a0a4" y="187.440106"/>
     <use style="fill:#008000;stroke:#008000;" x="314.405393" xlink:href="#m574691a0a4" y="188.019305"/>
     <use style="fill:#008000;stroke:#008000;" x="318.417978" xlink:href="#m574691a0a4" y="188.049117"/>
     <use style="fill:#008000;stroke:#008000;" x="322.430562" xlink:href="#m574691a0a4" y="188.008267"/>
     <use style="fill:#008000;stroke:#008000;" x="326.443146" xlink:href="#m574691a0a4" y="188.794209"/>
     <use style="fill:#008000;stroke:#008000;" x="330.45573" xlink:href="#m574691a0a4" y="188.495587"/>
     <use style="fill:#008000;stroke:#008000;" x="334.468315" xlink:href="#m574691a0a4" y="188.067059"/>
     <use style="fill:#008000;stroke:#008000;" x="338.480899" xlink:href="#m574691a0a4" y="187.76247"/>
     <use style="fill:#008000;stroke:#008000;" x="342.493483" xlink:href="#m574691a0a4" y="187.5698"/>
     <use style="fill:#008000;stroke:#008000;" x="346.506067" xlink:href="#m574691a0a4" y="187.779486"/>
     <use style="fill:#008000;stroke:#008000;" x="350.518652" xlink:href="#m574691a0a4" y="188.13605"/>
     <use style="fill:#008000;stroke:#008000;" x="354.531236" xlink:href="#m574691a0a4" y="187.690734"/>
     <use style="fill:#008000;stroke:#008000;" x="358.54382" xlink:href="#m574691a0a4" y="188.494678"/>
     <use style="fill:#008000;stroke:#008000;" x="362.556404" xlink:href="#m574691a0a4" y="188.126374"/>
     <use style="fill:#008000;stroke:#008000;" x="366.568989" xlink:href="#m574691a0a4" y="187.663906"/>
     <use style="fill:#008000;stroke:#008000;" x="370.581573" xlink:href="#m574691a0a4" y="187.548018"/>
     <use style="fill:#008000;stroke:#008000;" x="374.594157" xlink:href="#m574691a0a4" y="187.653294"/>
     <use style="fill:#008000;stroke:#008000;" x="378.606742" xlink:href="#m574691a0a4" y="187.883714"/>
     <use style="fill:#008000;stroke:#008000;" x="382.619326" xlink:href="#m574691a0a4" y="187.713053"/>
     <use style="fill:#008000;stroke:#008000;" x="386.63191" xlink:href="#m574691a0a4" y="187.689409"/>
     <use style="fill:#008000;stroke:#008000;" x="390.644494" xlink:href="#m574691a0a4" y="187.693178"/>
     <use style="fill:#008000;stroke:#008000;" x="394.657079" xlink:href="#m574691a0a4" y="191.078078"/>
     <use style="fill:#008000;stroke:#008000;" x="398.669663" xlink:href="#m574691a0a4" y="187.150451"/>
     <use style="fill:#008000;stroke:#008000;" x="402.682247" xlink:href="#m574691a0a4" y="187.464327"/>
     <use style="fill:#008000;stroke:#008000;" x="406.694831" xlink:href="#m574691a0a4" y="187.354172"/>
     <use style="fill:#008000;stroke:#008000;" x="410.707416" xlink:href="#m574691a0a4" y="187.320567"/>
    </g>
   </g>
   <g id="patch_3">
    <path d="M 57.6 307.584 
L 57.6 41.472 
" style="fill:none;stroke:#000000;stroke-linecap:square;stroke-linejoin:miter;stroke-width:0.8;"/>
   </g>
   <g id="patch_4">
    <path d="M 414.72 307.584 
L 414.72 41.472 
" style="fill:none;stroke:#000000;stroke-linecap:square;stroke-linejoin:miter;stroke-width:0.8;"/>
   </g>
   <g id="patch_5">
    <path d="M 57.6 307.584 
L 414.72 307.584 
" style="fill:none;stroke:#000000;stroke-linecap:square;stroke-linejoin:miter;stroke-width:0.8;"/>
   </g>
   <g id="patch_6">
    <path d="M 57.6 41.472 
L 414.72 41.472 
" style="fill:none;stroke:#000000;stroke-linecap:square;stroke-linejoin:miter;stroke-width:0.8;"/>
   </g>
   <g id="text_34">
    <!-- MKL iomp 2PV on pre_transpose7 -->
    <defs>
     <path d="M 9.8125 72.90625 
L 24.515625 72.90625 
L 43.109375 23.296875 
L 61.8125 72.90625 
L 76.515625 72.90625 
L 76.515625 0 
L 66.890625 0 
L 66.890625 64.015625 
L 48.09375 14.015625 
L 38.1875 14.015625 
L 19.390625 64.015625 
L 19.390625 0 
L 9.8125 0 
z
" id="DejaVuSans-77"/>
     <path d="M 9.8125 72.90625 
L 19.671875 72.90625 
L 19.671875 42.09375 
L 52.390625 72.90625 
L 65.09375 72.90625 
L 28.90625 38.921875 
L 67.671875 0 
L 54.6875 0 
L 19.671875 35.109375 
L 19.671875 0 
L 9.8125 0 
z
" id="DejaVuSans-75"/>
     <path d="M 9.8125 72.90625 
L 19.671875 72.90625 
L 19.671875 8.296875 
L 55.171875 8.296875 
L 55.171875 0 
L 9.8125 0 
z
" id="DejaVuSans-76"/>
     <path d="M 9.421875 54.6875 
L 18.40625 54.6875 
L 18.40625 0 
L 9.421875 0 
z
M 9.421875 75.984375 
L 18.40625 75.984375 
L 18.40625 64.59375 
L 9.421875 64.59375 
z
" id="DejaVuSans-105"/>
     <path d="M 30.609375 48.390625 
Q 23.390625 48.390625 19.1875 42.75 
Q 14.984375 37.109375 14.984375 27.296875 
Q 14.984375 17.484375 19.15625 11.84375 
Q 23.34375 6.203125 30.609375 6.203125 
Q 37.796875 6.203125 41.984375 11.859375 
Q 46.1875 17.53125 46.1875 27.296875 
Q 46.1875 37.015625 41.984375 42.703125 
Q 37.796875 48.390625 30.609375 48.390625 
z
M 30.609375 56 
Q 42.328125 56 49.015625 48.375 
Q 55.71875 40.765625 55.71875 27.296875 
Q 55.71875 13.875 49.015625 6.21875 
Q 42.328125 -1.421875 30.609375 -1.421875 
Q 18.84375 -1.421875 12.171875 6.21875 
Q 5.515625 13.875 5.515625 27.296875 
Q 5.515625 40.765625 12.171875 48.375 
Q 18.84375 56 30.609375 56 
z
" id="DejaVuSans-111"/>
     <path d="M 52 44.1875 
Q 55.375 50.25 60.0625 53.125 
Q 64.75 56 71.09375 56 
Q 79.640625 56 84.28125 50.015625 
Q 88.921875 44.046875 88.921875 33.015625 
L 88.921875 0 
L 79.890625 0 
L 79.890625 32.71875 
Q 79.890625 40.578125 77.09375 44.375 
Q 74.3125 48.1875 68.609375 48.1875 
Q 61.625 48.1875 57.5625 43.546875 
Q 53.515625 38.921875 53.515625 30.90625 
L 53.515625 0 
L 44.484375 0 
L 44.484375 32.71875 
Q 44.484375 40.625 41.703125 44.40625 
Q 38.921875 48.1875 33.109375 48.1875 
Q 26.21875 48.1875 22.15625 43.53125 
Q 18.109375 38.875 18.109375 30.90625 
L 18.109375 0 
L 9.078125 0 
L 9.078125 54.6875 
L 18.109375 54.6875 
L 18.109375 46.1875 
Q 21.1875 51.21875 25.484375 53.609375 
Q 29.78125 56 35.6875 56 
Q 41.65625 56 45.828125 52.96875 
Q 50 49.953125 52 44.1875 
z
" id="DejaVuSans-109"/>
     <path d="M 19.671875 64.796875 
L 19.671875 37.40625 
L 32.078125 37.40625 
Q 38.96875 37.40625 42.71875 40.96875 
Q 46.484375 44.53125 46.484375 51.125 
Q 46.484375 57.671875 42.71875 61.234375 
Q 38.96875 64.796875 32.078125 64.796875 
z
M 9.8125 72.90625 
L 32.078125 72.90625 
Q 44.34375 72.90625 50.609375 67.359375 
Q 56.890625 61.8125 56.890625 51.125 
Q 56.890625 40.328125 50.609375 34.8125 
Q 44.34375 29.296875 32.078125 29.296875 
L 19.671875 29.296875 
L 19.671875 0 
L 9.8125 0 
z
" id="DejaVuSans-80"/>
     <path d="M 28.609375 0 
L 0.78125 72.90625 
L 11.078125 72.90625 
L 34.1875 11.53125 
L 57.328125 72.90625 
L 67.578125 72.90625 
L 39.796875 0 
z
" id="DejaVuSans-86"/>
     <path d="M 54.890625 33.015625 
L 54.890625 0 
L 45.90625 0 
L 45.90625 32.71875 
Q 45.90625 40.484375 42.875 44.328125 
Q 39.84375 48.1875 33.796875 48.1875 
Q 26.515625 48.1875 22.3125 43.546875 
Q 18.109375 38.921875 18.109375 30.90625 
L 18.109375 0 
L 9.078125 0 
L 9.078125 54.6875 
L 18.109375 54.6875 
L 18.109375 46.1875 
Q 21.34375 51.125 25.703125 53.5625 
Q 30.078125 56 35.796875 56 
Q 45.21875 56 50.046875 50.171875 
Q 54.890625 44.34375 54.890625 33.015625 
z
" id="DejaVuSans-110"/>
     <path d="M 50.984375 -16.609375 
L 50.984375 -23.578125 
L -0.984375 -23.578125 
L -0.984375 -16.609375 
z
" id="DejaVuSans-95"/>
    </defs>
    <g transform="translate(135.70125 35.472)scale(0.12 -0.12)">
     <use xlink:href="#DejaVuSans-77"/>
     <use x="86.279297" xlink:href="#DejaVuSans-75"/>
     <use x="151.855469" xlink:href="#DejaVuSans-76"/>
     <use x="207.568359" xlink:href="#DejaVuSans-32"/>
     <use x="239.355469" xlink:href="#DejaVuSans-105"/>
     <use x="267.138672" xlink:href="#DejaVuSans-111"/>
     <use x="328.320312" xlink:href="#DejaVuSans-109"/>
     <use x="425.732422" xlink:href="#DejaVuSans-112"/>
     <use x="489.208984" xlink:href="#DejaVuSans-32"/>
     <use x="520.996094" xlink:href="#DejaVuSans-50"/>
     <use x="584.619141" xlink:href="#DejaVuSans-80"/>
     <use x="644.921875" xlink:href="#DejaVuSans-86"/>
     <use x="713.330078" xlink:href="#DejaVuSans-32"/>
     <use x="745.117188" xlink:href="#DejaVuSans-111"/>
     <use x="806.298828" xlink:href="#DejaVuSans-110"/>
     <use x="869.677734" xlink:href="#DejaVuSans-32"/>
     <use x="901.464844" xlink:href="#DejaVuSans-112"/>
     <use x="964.941406" xlink:href="#DejaVuSans-114"/>
     <use x="1003.804688" xlink:href="#DejaVuSans-101"/>
     <use x="1065.328125" xlink:href="#DejaVuSans-95"/>
     <use x="1115.328125" xlink:href="#DejaVuSans-116"/>
     <use x="1154.537109" xlink:href="#DejaVuSans-114"/>
     <use x="1195.650391" xlink:href="#DejaVuSans-97"/>
     <use x="1256.929688" xlink:href="#DejaVuSans-110"/>
     <use x="1320.308594" xlink:href="#DejaVuSans-115"/>
     <use x="1372.408203" xlink:href="#DejaVuSans-112"/>
     <use x="1435.884766" xlink:href="#DejaVuSans-111"/>
     <use x="1497.066406" xlink:href="#DejaVuSans-115"/>
     <use x="1549.166016" xlink:href="#DejaVuSans-101"/>
     <use x="1610.689453" xlink:href="#DejaVuSans-55"/>
    </g>
   </g>
   <g id="legend_1">
    <g id="patch_7">
     <path d="M 64.6 302.584 
L 159.167188 302.584 
Q 161.167188 302.584 161.167188 300.584 
L 161.167188 257.2715 
Q 161.167188 255.2715 159.167188 255.2715 
L 64.6 255.2715 
Q 62.6 255.2715 62.6 257.2715 
L 62.6 300.584 
Q 62.6 302.584 64.6 302.584 
z
" style="fill:#ffffff;opacity:0.8;stroke:#cccccc;stroke-linejoin:miter;"/>
    </g>
    <g id="line2d_66">
     <path d="M 66.6 263.369937 
L 86.6 263.369937 
" style="fill:none;stroke:#0000ff;stroke-dasharray:1.5,2.475;stroke-dashoffset:0;stroke-width:1.5;"/>
    </g>
    <g id="line2d_67">
     <g>
      <use style="fill:#0000ff;stroke:#0000ff;" x="76.6" xlink:href="#m0bc27bb18b" y="263.369937"/>
     </g>
    </g>
    <g id="text_35">
     <!-- transpose -->
     <g transform="translate(94.6 266.869937)scale(0.1 -0.1)">
      <use xlink:href="#DejaVuSans-116"/>
      <use x="39.208984" xlink:href="#DejaVuSans-114"/>
      <use x="80.322266" xlink:href="#DejaVuSans-97"/>
      <use x="141.601562" xlink:href="#DejaVuSans-110"/>
      <use x="204.980469" xlink:href="#DejaVuSans-115"/>
      <use x="257.080078" xlink:href="#DejaVuSans-112"/>
      <use x="320.556641" xlink:href="#DejaVuSans-111"/>
      <use x="381.738281" xlink:href="#DejaVuSans-115"/>
      <use x="433.837891" xlink:href="#DejaVuSans-101"/>
     </g>
    </g>
    <g id="line2d_68">
     <path d="M 66.6 278.048063 
L 86.6 278.048063 
" style="fill:none;stroke:#ff0000;stroke-dasharray:1.5,2.475;stroke-dashoffset:0;stroke-width:1.5;"/>
    </g>
    <g id="line2d_69">
     <g>
      <use style="fill:#ff0000;stroke:#ff0000;" x="76.6" xlink:href="#m9233c5d2ce" y="278.048063"/>
     </g>
    </g>
    <g id="text_36">
     <!-- transpose_tr -->
     <g transform="translate(94.6 281.548063)scale(0.1 -0.1)">
      <use xlink:href="#DejaVuSans-116"/>
      <use x="39.208984" xlink:href="#DejaVuSans-114"/>
      <use x="80.322266" xlink:href="#DejaVuSans-97"/>
      <use x="141.601562" xlink:href="#DejaVuSans-110"/>
      <use x="204.980469" xlink:href="#DejaVuSans-115"/>
      <use x="257.080078" xlink:href="#DejaVuSans-112"/>
      <use x="320.556641" xlink:href="#DejaVuSans-111"/>
      <use x="381.738281" xlink:href="#DejaVuSans-115"/>
      <use x="433.837891" xlink:href="#DejaVuSans-101"/>
      <use x="495.361328" xlink:href="#DejaVuSans-95"/>
      <use x="545.361328" xlink:href="#DejaVuSans-116"/>
      <use x="584.570312" xlink:href="#DejaVuSans-114"/>
     </g>
    </g>
    <g id="line2d_70">
     <path d="M 66.6 293.004312 
L 86.6 293.004312 
" style="fill:none;stroke:#008000;stroke-dasharray:1.5,2.475;stroke-dashoffset:0;stroke-width:1.5;"/>
    </g>
    <g id="line2d_71">
     <g>
      <use style="fill:#008000;stroke:#008000;" x="76.6" xlink:href="#m574691a0a4" y="293.004312"/>
     </g>
    </g>
    <g id="text_37">
     <!-- mean -->
     <g transform="translate(94.6 296.504312)scale(0.1 -0.1)">
      <use xlink:href="#DejaVuSans-109"/>
      <use x="97.412109" xlink:href="#DejaVuSans-101"/>
      <use x="158.935547" xlink:href="#DejaVuSans-97"/>
      <use x="220.214844" xlink:href="#DejaVuSans-110"/>
     </g>
    </g>
   </g>
  </g>
 </g>
 <defs>
  <clipPath id="p86d3c94b5a">
   <rect height="266.112" width="357.12" x="57.6" y="41.472"/>
  </clipPath>
 </defs>
</svg>
