<?xml version="1.0" encoding="utf-8" standalone="no"?>
<!DOCTYPE svg PUBLIC "-//W3C//DTD SVG 1.1//EN"
  "http://www.w3.org/Graphics/SVG/1.1/DTD/svg11.dtd">
<!-- Created with matplotlib (https://matplotlib.org/) -->
<svg height="345.6pt" version="1.1" viewBox="0 0 460.8 345.6" width="460.8pt" xmlns="http://www.w3.org/2000/svg" xmlns:xlink="http://www.w3.org/1999/xlink">
 <defs>
  <style type="text/css">
*{stroke-linecap:butt;stroke-linejoin:round;}
  </style>
 </defs>
 <g id="figure_1">
  <g id="patch_1">
   <path d="M 0 345.6 
L 460.8 345.6 
L 460.8 0 
L 0 0 
z
" style="fill:#ffffff;"/>
  </g>
  <g id="axes_1">
   <g id="patch_2">
    <path d="M 57.6 307.584 
L 414.72 307.584 
L 414.72 41.472 
L 57.6 41.472 
z
" style="fill:#ffffff;"/>
   </g>
   <g id="matplotlib.axis_1">
    <g id="xtick_1">
     <g id="line2d_1">
      <path clip-path="url(#pee1e6eb091)" d="M 61.612584 307.584 
L 61.612584 41.472 
" style="fill:none;stroke:#b0b0b0;stroke-dasharray:5.12,1.28,0.8,1.28;stroke-dashoffset:0;stroke-width:0.8;"/>
     </g>
     <g id="line2d_2">
      <defs>
       <path d="M 0 0 
L 0 3.5 
" id="mdb558c12d4" style="stroke:#000000;stroke-width:0.8;"/>
      </defs>
      <g>
       <use style="stroke:#000000;stroke-width:0.8;" x="61.612584" xlink:href="#mdb558c12d4" y="307.584"/>
      </g>
     </g>
     <g id="text_1">
      <!-- 1 -->
      <defs>
       <path d="M 12.40625 8.296875 
L 28.515625 8.296875 
L 28.515625 63.921875 
L 10.984375 60.40625 
L 10.984375 69.390625 
L 28.421875 72.90625 
L 38.28125 72.90625 
L 38.28125 8.296875 
L 54.390625 8.296875 
L 54.390625 0 
L 12.40625 0 
z
" id="DejaVuSans-49"/>
      </defs>
      <g transform="translate(58.431334 322.182437)scale(0.1 -0.1)">
       <use xlink:href="#DejaVuSans-49"/>
      </g>
     </g>
    </g>
    <g id="xtick_2">
     <g id="line2d_3">
      <path clip-path="url(#pee1e6eb091)" d="M 73.650337 307.584 
L 73.650337 41.472 
" style="fill:none;stroke:#b0b0b0;stroke-dasharray:5.12,1.28,0.8,1.28;stroke-dashoffset:0;stroke-width:0.8;"/>
     </g>
     <g id="line2d_4">
      <g>
       <use style="stroke:#000000;stroke-width:0.8;" x="73.650337" xlink:href="#mdb558c12d4" y="307.584"/>
      </g>
     </g>
     <g id="text_2">
      <!-- 4 -->
      <defs>
       <path d="M 37.796875 64.3125 
L 12.890625 25.390625 
L 37.796875 25.390625 
z
M 35.203125 72.90625 
L 47.609375 72.90625 
L 47.609375 25.390625 
L 58.015625 25.390625 
L 58.015625 17.1875 
L 47.609375 17.1875 
L 47.609375 0 
L 37.796875 0 
L 37.796875 17.1875 
L 4.890625 17.1875 
L 4.890625 26.703125 
z
" id="DejaVuSans-52"/>
      </defs>
      <g transform="translate(70.469087 322.182437)scale(0.1 -0.1)">
       <use xlink:href="#DejaVuSans-52"/>
      </g>
     </g>
    </g>
    <g id="xtick_3">
     <g id="line2d_5">
      <path clip-path="url(#pee1e6eb091)" d="M 89.700674 307.584 
L 89.700674 41.472 
" style="fill:none;stroke:#b0b0b0;stroke-dasharray:5.12,1.28,0.8,1.28;stroke-dashoffset:0;stroke-width:0.8;"/>
     </g>
     <g id="line2d_6">
      <g>
       <use style="stroke:#000000;stroke-width:0.8;" x="89.700674" xlink:href="#mdb558c12d4" y="307.584"/>
      </g>
     </g>
     <g id="text_3">
      <!-- 8 -->
      <defs>
       <path d="M 31.78125 34.625 
Q 24.75 34.625 20.71875 30.859375 
Q 16.703125 27.09375 16.703125 20.515625 
Q 16.703125 13.921875 20.71875 10.15625 
Q 24.75 6.390625 31.78125 6.390625 
Q 38.8125 6.390625 42.859375 10.171875 
Q 46.921875 13.96875 46.921875 20.515625 
Q 46.921875 27.09375 42.890625 30.859375 
Q 38.875 34.625 31.78125 34.625 
z
M 21.921875 38.8125 
Q 15.578125 40.375 12.03125 44.71875 
Q 8.5 49.078125 8.5 55.328125 
Q 8.5 64.0625 14.71875 69.140625 
Q 20.953125 74.21875 31.78125 74.21875 
Q 42.671875 74.21875 48.875 69.140625 
Q 55.078125 64.0625 55.078125 55.328125 
Q 55.078125 49.078125 51.53125 44.71875 
Q 48 40.375 41.703125 38.8125 
Q 48.828125 37.15625 52.796875 32.3125 
Q 56.78125 27.484375 56.78125 20.515625 
Q 56.78125 9.90625 50.3125 4.234375 
Q 43.84375 -1.421875 31.78125 -1.421875 
Q 19.734375 -1.421875 13.25 4.234375 
Q 6.78125 9.90625 6.78125 20.515625 
Q 6.78125 27.484375 10.78125 32.3125 
Q 14.796875 37.15625 21.921875 38.8125 
z
M 18.3125 54.390625 
Q 18.3125 48.734375 21.84375 45.5625 
Q 25.390625 42.390625 31.78125 42.390625 
Q 38.140625 42.390625 41.71875 45.5625 
Q 45.3125 48.734375 45.3125 54.390625 
Q 45.3125 60.0625 41.71875 63.234375 
Q 38.140625 66.40625 31.78125 66.40625 
Q 25.390625 66.40625 21.84375 63.234375 
Q 18.3125 60.0625 18.3125 54.390625 
z
" id="DejaVuSans-56"/>
      </defs>
      <g transform="translate(86.519424 322.182437)scale(0.1 -0.1)">
       <use xlink:href="#DejaVuSans-56"/>
      </g>
     </g>
    </g>
    <g id="xtick_4">
     <g id="line2d_7">
      <path clip-path="url(#pee1e6eb091)" d="M 105.751011 307.584 
L 105.751011 41.472 
" style="fill:none;stroke:#b0b0b0;stroke-dasharray:5.12,1.28,0.8,1.28;stroke-dashoffset:0;stroke-width:0.8;"/>
     </g>
     <g id="line2d_8">
      <g>
       <use style="stroke:#000000;stroke-width:0.8;" x="105.751011" xlink:href="#mdb558c12d4" y="307.584"/>
      </g>
     </g>
     <g id="text_4">
      <!-- 12 -->
      <defs>
       <path d="M 19.1875 8.296875 
L 53.609375 8.296875 
L 53.609375 0 
L 7.328125 0 
L 7.328125 8.296875 
Q 12.9375 14.109375 22.625 23.890625 
Q 32.328125 33.6875 34.8125 36.53125 
Q 39.546875 41.84375 41.421875 45.53125 
Q 43.3125 49.21875 43.3125 52.78125 
Q 43.3125 58.59375 39.234375 62.25 
Q 35.15625 65.921875 28.609375 65.921875 
Q 23.96875 65.921875 18.8125 64.3125 
Q 13.671875 62.703125 7.8125 59.421875 
L 7.8125 69.390625 
Q 13.765625 71.78125 18.9375 73 
Q 24.125 74.21875 28.421875 74.21875 
Q 39.75 74.21875 46.484375 68.546875 
Q 53.21875 62.890625 53.21875 53.421875 
Q 53.21875 48.921875 51.53125 44.890625 
Q 49.859375 40.875 45.40625 35.40625 
Q 44.1875 33.984375 37.640625 27.21875 
Q 31.109375 20.453125 19.1875 8.296875 
z
" id="DejaVuSans-50"/>
      </defs>
      <g transform="translate(99.388511 322.182437)scale(0.1 -0.1)">
       <use xlink:href="#DejaVuSans-49"/>
       <use x="63.623047" xlink:href="#DejaVuSans-50"/>
      </g>
     </g>
    </g>
    <g id="xtick_5">
     <g id="line2d_9">
      <path clip-path="url(#pee1e6eb091)" d="M 121.801348 307.584 
L 121.801348 41.472 
" style="fill:none;stroke:#b0b0b0;stroke-dasharray:5.12,1.28,0.8,1.28;stroke-dashoffset:0;stroke-width:0.8;"/>
     </g>
     <g id="line2d_10">
      <g>
       <use style="stroke:#000000;stroke-width:0.8;" x="121.801348" xlink:href="#mdb558c12d4" y="307.584"/>
      </g>
     </g>
     <g id="text_5">
      <!-- 16 -->
      <defs>
       <path d="M 33.015625 40.375 
Q 26.375 40.375 22.484375 35.828125 
Q 18.609375 31.296875 18.609375 23.390625 
Q 18.609375 15.53125 22.484375 10.953125 
Q 26.375 6.390625 33.015625 6.390625 
Q 39.65625 6.390625 43.53125 10.953125 
Q 47.40625 15.53125 47.40625 23.390625 
Q 47.40625 31.296875 43.53125 35.828125 
Q 39.65625 40.375 33.015625 40.375 
z
M 52.59375 71.296875 
L 52.59375 62.3125 
Q 48.875 64.0625 45.09375 64.984375 
Q 41.3125 65.921875 37.59375 65.921875 
Q 27.828125 65.921875 22.671875 59.328125 
Q 17.53125 52.734375 16.796875 39.40625 
Q 19.671875 43.65625 24.015625 45.921875 
Q 28.375 48.1875 33.59375 48.1875 
Q 44.578125 48.1875 50.953125 41.515625 
Q 57.328125 34.859375 57.328125 23.390625 
Q 57.328125 12.15625 50.6875 5.359375 
Q 44.046875 -1.421875 33.015625 -1.421875 
Q 20.359375 -1.421875 13.671875 8.265625 
Q 6.984375 17.96875 6.984375 36.375 
Q 6.984375 53.65625 15.1875 63.9375 
Q 23.390625 74.21875 37.203125 74.21875 
Q 40.921875 74.21875 44.703125 73.484375 
Q 48.484375 72.75 52.59375 71.296875 
z
" id="DejaVuSans-54"/>
      </defs>
      <g transform="translate(115.438848 322.182437)scale(0.1 -0.1)">
       <use xlink:href="#DejaVuSans-49"/>
       <use x="63.623047" xlink:href="#DejaVuSans-54"/>
      </g>
     </g>
    </g>
    <g id="xtick_6">
     <g id="line2d_11">
      <path clip-path="url(#pee1e6eb091)" d="M 137.851685 307.584 
L 137.851685 41.472 
" style="fill:none;stroke:#b0b0b0;stroke-dasharray:5.12,1.28,0.8,1.28;stroke-dashoffset:0;stroke-width:0.8;"/>
     </g>
     <g id="line2d_12">
      <g>
       <use style="stroke:#000000;stroke-width:0.8;" x="137.851685" xlink:href="#mdb558c12d4" y="307.584"/>
      </g>
     </g>
     <g id="text_6">
      <!-- 20 -->
      <defs>
       <path d="M 31.78125 66.40625 
Q 24.171875 66.40625 20.328125 58.90625 
Q 16.5 51.421875 16.5 36.375 
Q 16.5 21.390625 20.328125 13.890625 
Q 24.171875 6.390625 31.78125 6.390625 
Q 39.453125 6.390625 43.28125 13.890625 
Q 47.125 21.390625 47.125 36.375 
Q 47.125 51.421875 43.28125 58.90625 
Q 39.453125 66.40625 31.78125 66.40625 
z
M 31.78125 74.21875 
Q 44.046875 74.21875 50.515625 64.515625 
Q 56.984375 54.828125 56.984375 36.375 
Q 56.984375 17.96875 50.515625 8.265625 
Q 44.046875 -1.421875 31.78125 -1.421875 
Q 19.53125 -1.421875 13.0625 8.265625 
Q 6.59375 17.96875 6.59375 36.375 
Q 6.59375 54.828125 13.0625 64.515625 
Q 19.53125 74.21875 31.78125 74.21875 
z
" id="DejaVuSans-48"/>
      </defs>
      <g transform="translate(131.489185 322.182437)scale(0.1 -0.1)">
       <use xlink:href="#DejaVuSans-50"/>
       <use x="63.623047" xlink:href="#DejaVuSans-48"/>
      </g>
     </g>
    </g>
    <g id="xtick_7">
     <g id="line2d_13">
      <path clip-path="url(#pee1e6eb091)" d="M 153.902022 307.584 
L 153.902022 41.472 
" style="fill:none;stroke:#b0b0b0;stroke-dasharray:5.12,1.28,0.8,1.28;stroke-dashoffset:0;stroke-width:0.8;"/>
     </g>
     <g id="line2d_14">
      <g>
       <use style="stroke:#000000;stroke-width:0.8;" x="153.902022" xlink:href="#mdb558c12d4" y="307.584"/>
      </g>
     </g>
     <g id="text_7">
      <!-- 24 -->
      <g transform="translate(147.539522 322.182437)scale(0.1 -0.1)">
       <use xlink:href="#DejaVuSans-50"/>
       <use x="63.623047" xlink:href="#DejaVuSans-52"/>
      </g>
     </g>
    </g>
    <g id="xtick_8">
     <g id="line2d_15">
      <path clip-path="url(#pee1e6eb091)" d="M 169.95236 307.584 
L 169.95236 41.472 
" style="fill:none;stroke:#b0b0b0;stroke-dasharray:5.12,1.28,0.8,1.28;stroke-dashoffset:0;stroke-width:0.8;"/>
     </g>
     <g id="line2d_16">
      <g>
       <use style="stroke:#000000;stroke-width:0.8;" x="169.95236" xlink:href="#mdb558c12d4" y="307.584"/>
      </g>
     </g>
     <g id="text_8">
      <!-- 28 -->
      <g transform="translate(163.58986 322.182437)scale(0.1 -0.1)">
       <use xlink:href="#DejaVuSans-50"/>
       <use x="63.623047" xlink:href="#DejaVuSans-56"/>
      </g>
     </g>
    </g>
    <g id="xtick_9">
     <g id="line2d_17">
      <path clip-path="url(#pee1e6eb091)" d="M 186.002697 307.584 
L 186.002697 41.472 
" style="fill:none;stroke:#b0b0b0;stroke-dasharray:5.12,1.28,0.8,1.28;stroke-dashoffset:0;stroke-width:0.8;"/>
     </g>
     <g id="line2d_18">
      <g>
       <use style="stroke:#000000;stroke-width:0.8;" x="186.002697" xlink:href="#mdb558c12d4" y="307.584"/>
      </g>
     </g>
     <g id="text_9">
      <!-- 32 -->
      <defs>
       <path d="M 40.578125 39.3125 
Q 47.65625 37.796875 51.625 33 
Q 55.609375 28.21875 55.609375 21.1875 
Q 55.609375 10.40625 48.1875 4.484375 
Q 40.765625 -1.421875 27.09375 -1.421875 
Q 22.515625 -1.421875 17.65625 -0.515625 
Q 12.796875 0.390625 7.625 2.203125 
L 7.625 11.71875 
Q 11.71875 9.328125 16.59375 8.109375 
Q 21.484375 6.890625 26.8125 6.890625 
Q 36.078125 6.890625 40.9375 10.546875 
Q 45.796875 14.203125 45.796875 21.1875 
Q 45.796875 27.640625 41.28125 31.265625 
Q 36.765625 34.90625 28.71875 34.90625 
L 20.21875 34.90625 
L 20.21875 43.015625 
L 29.109375 43.015625 
Q 36.375 43.015625 40.234375 45.921875 
Q 44.09375 48.828125 44.09375 54.296875 
Q 44.09375 59.90625 40.109375 62.90625 
Q 36.140625 65.921875 28.71875 65.921875 
Q 24.65625 65.921875 20.015625 65.03125 
Q 15.375 64.15625 9.8125 62.3125 
L 9.8125 71.09375 
Q 15.4375 72.65625 20.34375 73.4375 
Q 25.25 74.21875 29.59375 74.21875 
Q 40.828125 74.21875 47.359375 69.109375 
Q 53.90625 64.015625 53.90625 55.328125 
Q 53.90625 49.265625 50.4375 45.09375 
Q 46.96875 40.921875 40.578125 39.3125 
z
" id="DejaVuSans-51"/>
      </defs>
      <g transform="translate(179.640197 322.182437)scale(0.1 -0.1)">
       <use xlink:href="#DejaVuSans-51"/>
       <use x="63.623047" xlink:href="#DejaVuSans-50"/>
      </g>
     </g>
    </g>
    <g id="xtick_10">
     <g id="line2d_19">
      <path clip-path="url(#pee1e6eb091)" d="M 202.053034 307.584 
L 202.053034 41.472 
" style="fill:none;stroke:#b0b0b0;stroke-dasharray:5.12,1.28,0.8,1.28;stroke-dashoffset:0;stroke-width:0.8;"/>
     </g>
     <g id="line2d_20">
      <g>
       <use style="stroke:#000000;stroke-width:0.8;" x="202.053034" xlink:href="#mdb558c12d4" y="307.584"/>
      </g>
     </g>
     <g id="text_10">
      <!-- 36 -->
      <g transform="translate(195.690534 322.182437)scale(0.1 -0.1)">
       <use xlink:href="#DejaVuSans-51"/>
       <use x="63.623047" xlink:href="#DejaVuSans-54"/>
      </g>
     </g>
    </g>
    <g id="xtick_11">
     <g id="line2d_21">
      <path clip-path="url(#pee1e6eb091)" d="M 218.103371 307.584 
L 218.103371 41.472 
" style="fill:none;stroke:#b0b0b0;stroke-dasharray:5.12,1.28,0.8,1.28;stroke-dashoffset:0;stroke-width:0.8;"/>
     </g>
     <g id="line2d_22">
      <g>
       <use style="stroke:#000000;stroke-width:0.8;" x="218.103371" xlink:href="#mdb558c12d4" y="307.584"/>
      </g>
     </g>
     <g id="text_11">
      <!-- 40 -->
      <g transform="translate(211.740871 322.182437)scale(0.1 -0.1)">
       <use xlink:href="#DejaVuSans-52"/>
       <use x="63.623047" xlink:href="#DejaVuSans-48"/>
      </g>
     </g>
    </g>
    <g id="xtick_12">
     <g id="line2d_23">
      <path clip-path="url(#pee1e6eb091)" d="M 234.153708 307.584 
L 234.153708 41.472 
" style="fill:none;stroke:#b0b0b0;stroke-dasharray:5.12,1.28,0.8,1.28;stroke-dashoffset:0;stroke-width:0.8;"/>
     </g>
     <g id="line2d_24">
      <g>
       <use style="stroke:#000000;stroke-width:0.8;" x="234.153708" xlink:href="#mdb558c12d4" y="307.584"/>
      </g>
     </g>
     <g id="text_12">
      <!-- 44 -->
      <g transform="translate(227.791208 322.182437)scale(0.1 -0.1)">
       <use xlink:href="#DejaVuSans-52"/>
       <use x="63.623047" xlink:href="#DejaVuSans-52"/>
      </g>
     </g>
    </g>
    <g id="xtick_13">
     <g id="line2d_25">
      <path clip-path="url(#pee1e6eb091)" d="M 250.204045 307.584 
L 250.204045 41.472 
" style="fill:none;stroke:#b0b0b0;stroke-dasharray:5.12,1.28,0.8,1.28;stroke-dashoffset:0;stroke-width:0.8;"/>
     </g>
     <g id="line2d_26">
      <g>
       <use style="stroke:#000000;stroke-width:0.8;" x="250.204045" xlink:href="#mdb558c12d4" y="307.584"/>
      </g>
     </g>
     <g id="text_13">
      <!-- 48 -->
      <g transform="translate(243.841545 322.182437)scale(0.1 -0.1)">
       <use xlink:href="#DejaVuSans-52"/>
       <use x="63.623047" xlink:href="#DejaVuSans-56"/>
      </g>
     </g>
    </g>
    <g id="xtick_14">
     <g id="line2d_27">
      <path clip-path="url(#pee1e6eb091)" d="M 266.254382 307.584 
L 266.254382 41.472 
" style="fill:none;stroke:#b0b0b0;stroke-dasharray:5.12,1.28,0.8,1.28;stroke-dashoffset:0;stroke-width:0.8;"/>
     </g>
     <g id="line2d_28">
      <g>
       <use style="stroke:#000000;stroke-width:0.8;" x="266.254382" xlink:href="#mdb558c12d4" y="307.584"/>
      </g>
     </g>
     <g id="text_14">
      <!-- 52 -->
      <defs>
       <path d="M 10.796875 72.90625 
L 49.515625 72.90625 
L 49.515625 64.59375 
L 19.828125 64.59375 
L 19.828125 46.734375 
Q 21.96875 47.46875 24.109375 47.828125 
Q 26.265625 48.1875 28.421875 48.1875 
Q 40.625 48.1875 47.75 41.5 
Q 54.890625 34.8125 54.890625 23.390625 
Q 54.890625 11.625 47.5625 5.09375 
Q 40.234375 -1.421875 26.90625 -1.421875 
Q 22.3125 -1.421875 17.546875 -0.640625 
Q 12.796875 0.140625 7.71875 1.703125 
L 7.71875 11.625 
Q 12.109375 9.234375 16.796875 8.0625 
Q 21.484375 6.890625 26.703125 6.890625 
Q 35.15625 6.890625 40.078125 11.328125 
Q 45.015625 15.765625 45.015625 23.390625 
Q 45.015625 31 40.078125 35.4375 
Q 35.15625 39.890625 26.703125 39.890625 
Q 22.75 39.890625 18.8125 39.015625 
Q 14.890625 38.140625 10.796875 36.28125 
z
" id="DejaVuSans-53"/>
      </defs>
      <g transform="translate(259.891882 322.182437)scale(0.1 -0.1)">
       <use xlink:href="#DejaVuSans-53"/>
       <use x="63.623047" xlink:href="#DejaVuSans-50"/>
      </g>
     </g>
    </g>
    <g id="xtick_15">
     <g id="line2d_29">
      <path clip-path="url(#pee1e6eb091)" d="M 282.304719 307.584 
L 282.304719 41.472 
" style="fill:none;stroke:#b0b0b0;stroke-dasharray:5.12,1.28,0.8,1.28;stroke-dashoffset:0;stroke-width:0.8;"/>
     </g>
     <g id="line2d_30">
      <g>
       <use style="stroke:#000000;stroke-width:0.8;" x="282.304719" xlink:href="#mdb558c12d4" y="307.584"/>
      </g>
     </g>
     <g id="text_15">
      <!-- 56 -->
      <g transform="translate(275.942219 322.182437)scale(0.1 -0.1)">
       <use xlink:href="#DejaVuSans-53"/>
       <use x="63.623047" xlink:href="#DejaVuSans-54"/>
      </g>
     </g>
    </g>
    <g id="xtick_16">
     <g id="line2d_31">
      <path clip-path="url(#pee1e6eb091)" d="M 298.355056 307.584 
L 298.355056 41.472 
" style="fill:none;stroke:#b0b0b0;stroke-dasharray:5.12,1.28,0.8,1.28;stroke-dashoffset:0;stroke-width:0.8;"/>
     </g>
     <g id="line2d_32">
      <g>
       <use style="stroke:#000000;stroke-width:0.8;" x="298.355056" xlink:href="#mdb558c12d4" y="307.584"/>
      </g>
     </g>
     <g id="text_16">
      <!-- 60 -->
      <g transform="translate(291.992556 322.182437)scale(0.1 -0.1)">
       <use xlink:href="#DejaVuSans-54"/>
       <use x="63.623047" xlink:href="#DejaVuSans-48"/>
      </g>
     </g>
    </g>
    <g id="xtick_17">
     <g id="line2d_33">
      <path clip-path="url(#pee1e6eb091)" d="M 314.405393 307.584 
L 314.405393 41.472 
" style="fill:none;stroke:#b0b0b0;stroke-dasharray:5.12,1.28,0.8,1.28;stroke-dashoffset:0;stroke-width:0.8;"/>
     </g>
     <g id="line2d_34">
      <g>
       <use style="stroke:#000000;stroke-width:0.8;" x="314.405393" xlink:href="#mdb558c12d4" y="307.584"/>
      </g>
     </g>
     <g id="text_17">
      <!-- 64 -->
      <g transform="translate(308.042893 322.182437)scale(0.1 -0.1)">
       <use xlink:href="#DejaVuSans-54"/>
       <use x="63.623047" xlink:href="#DejaVuSans-52"/>
      </g>
     </g>
    </g>
    <g id="xtick_18">
     <g id="line2d_35">
      <path clip-path="url(#pee1e6eb091)" d="M 330.45573 307.584 
L 330.45573 41.472 
" style="fill:none;stroke:#b0b0b0;stroke-dasharray:5.12,1.28,0.8,1.28;stroke-dashoffset:0;stroke-width:0.8;"/>
     </g>
     <g id="line2d_36">
      <g>
       <use style="stroke:#000000;stroke-width:0.8;" x="330.45573" xlink:href="#mdb558c12d4" y="307.584"/>
      </g>
     </g>
     <g id="text_18">
      <!-- 68 -->
      <g transform="translate(324.09323 322.182437)scale(0.1 -0.1)">
       <use xlink:href="#DejaVuSans-54"/>
       <use x="63.623047" xlink:href="#DejaVuSans-56"/>
      </g>
     </g>
    </g>
    <g id="xtick_19">
     <g id="line2d_37">
      <path clip-path="url(#pee1e6eb091)" d="M 346.506067 307.584 
L 346.506067 41.472 
" style="fill:none;stroke:#b0b0b0;stroke-dasharray:5.12,1.28,0.8,1.28;stroke-dashoffset:0;stroke-width:0.8;"/>
     </g>
     <g id="line2d_38">
      <g>
       <use style="stroke:#000000;stroke-width:0.8;" x="346.506067" xlink:href="#mdb558c12d4" y="307.584"/>
      </g>
     </g>
     <g id="text_19">
      <!-- 72 -->
      <defs>
       <path d="M 8.203125 72.90625 
L 55.078125 72.90625 
L 55.078125 68.703125 
L 28.609375 0 
L 18.3125 0 
L 43.21875 64.59375 
L 8.203125 64.59375 
z
" id="DejaVuSans-55"/>
      </defs>
      <g transform="translate(340.143567 322.182437)scale(0.1 -0.1)">
       <use xlink:href="#DejaVuSans-55"/>
       <use x="63.623047" xlink:href="#DejaVuSans-50"/>
      </g>
     </g>
    </g>
    <g id="xtick_20">
     <g id="line2d_39">
      <path clip-path="url(#pee1e6eb091)" d="M 362.556404 307.584 
L 362.556404 41.472 
" style="fill:none;stroke:#b0b0b0;stroke-dasharray:5.12,1.28,0.8,1.28;stroke-dashoffset:0;stroke-width:0.8;"/>
     </g>
     <g id="line2d_40">
      <g>
       <use style="stroke:#000000;stroke-width:0.8;" x="362.556404" xlink:href="#mdb558c12d4" y="307.584"/>
      </g>
     </g>
     <g id="text_20">
      <!-- 76 -->
      <g transform="translate(356.193904 322.182437)scale(0.1 -0.1)">
       <use xlink:href="#DejaVuSans-55"/>
       <use x="63.623047" xlink:href="#DejaVuSans-54"/>
      </g>
     </g>
    </g>
    <g id="xtick_21">
     <g id="line2d_41">
      <path clip-path="url(#pee1e6eb091)" d="M 378.606742 307.584 
L 378.606742 41.472 
" style="fill:none;stroke:#b0b0b0;stroke-dasharray:5.12,1.28,0.8,1.28;stroke-dashoffset:0;stroke-width:0.8;"/>
     </g>
     <g id="line2d_42">
      <g>
       <use style="stroke:#000000;stroke-width:0.8;" x="378.606742" xlink:href="#mdb558c12d4" y="307.584"/>
      </g>
     </g>
     <g id="text_21">
      <!-- 80 -->
      <g transform="translate(372.244242 322.182437)scale(0.1 -0.1)">
       <use xlink:href="#DejaVuSans-56"/>
       <use x="63.623047" xlink:href="#DejaVuSans-48"/>
      </g>
     </g>
    </g>
    <g id="xtick_22">
     <g id="line2d_43">
      <path clip-path="url(#pee1e6eb091)" d="M 394.657079 307.584 
L 394.657079 41.472 
" style="fill:none;stroke:#b0b0b0;stroke-dasharray:5.12,1.28,0.8,1.28;stroke-dashoffset:0;stroke-width:0.8;"/>
     </g>
     <g id="line2d_44">
      <g>
       <use style="stroke:#000000;stroke-width:0.8;" x="394.657079" xlink:href="#mdb558c12d4" y="307.584"/>
      </g>
     </g>
     <g id="text_22">
      <!-- 84 -->
      <g transform="translate(388.294579 322.182437)scale(0.1 -0.1)">
       <use xlink:href="#DejaVuSans-56"/>
       <use x="63.623047" xlink:href="#DejaVuSans-52"/>
      </g>
     </g>
    </g>
    <g id="xtick_23">
     <g id="line2d_45">
      <path clip-path="url(#pee1e6eb091)" d="M 410.707416 307.584 
L 410.707416 41.472 
" style="fill:none;stroke:#b0b0b0;stroke-dasharray:5.12,1.28,0.8,1.28;stroke-dashoffset:0;stroke-width:0.8;"/>
     </g>
     <g id="line2d_46">
      <g>
       <use style="stroke:#000000;stroke-width:0.8;" x="410.707416" xlink:href="#mdb558c12d4" y="307.584"/>
      </g>
     </g>
     <g id="text_23">
      <!-- 88 -->
      <g transform="translate(404.344916 322.182437)scale(0.1 -0.1)">
       <use xlink:href="#DejaVuSans-56"/>
       <use x="63.623047" xlink:href="#DejaVuSans-56"/>
      </g>
     </g>
    </g>
    <g id="text_24">
     <!-- threads -->
     <defs>
      <path d="M 18.3125 70.21875 
L 18.3125 54.6875 
L 36.8125 54.6875 
L 36.8125 47.703125 
L 18.3125 47.703125 
L 18.3125 18.015625 
Q 18.3125 11.328125 20.140625 9.421875 
Q 21.96875 7.515625 27.59375 7.515625 
L 36.8125 7.515625 
L 36.8125 0 
L 27.59375 0 
Q 17.1875 0 13.234375 3.875 
Q 9.28125 7.765625 9.28125 18.015625 
L 9.28125 47.703125 
L 2.6875 47.703125 
L 2.6875 54.6875 
L 9.28125 54.6875 
L 9.28125 70.21875 
z
" id="DejaVuSans-116"/>
      <path d="M 54.890625 33.015625 
L 54.890625 0 
L 45.90625 0 
L 45.90625 32.71875 
Q 45.90625 40.484375 42.875 44.328125 
Q 39.84375 48.1875 33.796875 48.1875 
Q 26.515625 48.1875 22.3125 43.546875 
Q 18.109375 38.921875 18.109375 30.90625 
L 18.109375 0 
L 9.078125 0 
L 9.078125 75.984375 
L 18.109375 75.984375 
L 18.109375 46.1875 
Q 21.34375 51.125 25.703125 53.5625 
Q 30.078125 56 35.796875 56 
Q 45.21875 56 50.046875 50.171875 
Q 54.890625 44.34375 54.890625 33.015625 
z
" id="DejaVuSans-104"/>
      <path d="M 41.109375 46.296875 
Q 39.59375 47.171875 37.8125 47.578125 
Q 36.03125 48 33.890625 48 
Q 26.265625 48 22.1875 43.046875 
Q 18.109375 38.09375 18.109375 28.8125 
L 18.109375 0 
L 9.078125 0 
L 9.078125 54.6875 
L 18.109375 54.6875 
L 18.109375 46.1875 
Q 20.953125 51.171875 25.484375 53.578125 
Q 30.03125 56 36.53125 56 
Q 37.453125 56 38.578125 55.875 
Q 39.703125 55.765625 41.0625 55.515625 
z
" id="DejaVuSans-114"/>
      <path d="M 56.203125 29.59375 
L 56.203125 25.203125 
L 14.890625 25.203125 
Q 15.484375 15.921875 20.484375 11.0625 
Q 25.484375 6.203125 34.421875 6.203125 
Q 39.59375 6.203125 44.453125 7.46875 
Q 49.3125 8.734375 54.109375 11.28125 
L 54.109375 2.78125 
Q 49.265625 0.734375 44.1875 -0.34375 
Q 39.109375 -1.421875 33.890625 -1.421875 
Q 20.796875 -1.421875 13.15625 6.1875 
Q 5.515625 13.8125 5.515625 26.8125 
Q 5.515625 40.234375 12.765625 48.109375 
Q 20.015625 56 32.328125 56 
Q 43.359375 56 49.78125 48.890625 
Q 56.203125 41.796875 56.203125 29.59375 
z
M 47.21875 32.234375 
Q 47.125 39.59375 43.09375 43.984375 
Q 39.0625 48.390625 32.421875 48.390625 
Q 24.90625 48.390625 20.390625 44.140625 
Q 15.875 39.890625 15.1875 32.171875 
z
" id="DejaVuSans-101"/>
      <path d="M 34.28125 27.484375 
Q 23.390625 27.484375 19.1875 25 
Q 14.984375 22.515625 14.984375 16.5 
Q 14.984375 11.71875 18.140625 8.90625 
Q 21.296875 6.109375 26.703125 6.109375 
Q 34.1875 6.109375 38.703125 11.40625 
Q 43.21875 16.703125 43.21875 25.484375 
L 43.21875 27.484375 
z
M 52.203125 31.203125 
L 52.203125 0 
L 43.21875 0 
L 43.21875 8.296875 
Q 40.140625 3.328125 35.546875 0.953125 
Q 30.953125 -1.421875 24.3125 -1.421875 
Q 15.921875 -1.421875 10.953125 3.296875 
Q 6 8.015625 6 15.921875 
Q 6 25.140625 12.171875 29.828125 
Q 18.359375 34.515625 30.609375 34.515625 
L 43.21875 34.515625 
L 43.21875 35.40625 
Q 43.21875 41.609375 39.140625 45 
Q 35.0625 48.390625 27.6875 48.390625 
Q 23 48.390625 18.546875 47.265625 
Q 14.109375 46.140625 10.015625 43.890625 
L 10.015625 52.203125 
Q 14.9375 54.109375 19.578125 55.046875 
Q 24.21875 56 28.609375 56 
Q 40.484375 56 46.34375 49.84375 
Q 52.203125 43.703125 52.203125 31.203125 
z
" id="DejaVuSans-97"/>
      <path d="M 45.40625 46.390625 
L 45.40625 75.984375 
L 54.390625 75.984375 
L 54.390625 0 
L 45.40625 0 
L 45.40625 8.203125 
Q 42.578125 3.328125 38.25 0.953125 
Q 33.9375 -1.421875 27.875 -1.421875 
Q 17.96875 -1.421875 11.734375 6.484375 
Q 5.515625 14.40625 5.515625 27.296875 
Q 5.515625 40.1875 11.734375 48.09375 
Q 17.96875 56 27.875 56 
Q 33.9375 56 38.25 53.625 
Q 42.578125 51.265625 45.40625 46.390625 
z
M 14.796875 27.296875 
Q 14.796875 17.390625 18.875 11.75 
Q 22.953125 6.109375 30.078125 6.109375 
Q 37.203125 6.109375 41.296875 11.75 
Q 45.40625 17.390625 45.40625 27.296875 
Q 45.40625 37.203125 41.296875 42.84375 
Q 37.203125 48.484375 30.078125 48.484375 
Q 22.953125 48.484375 18.875 42.84375 
Q 14.796875 37.203125 14.796875 27.296875 
z
" id="DejaVuSans-100"/>
      <path d="M 44.28125 53.078125 
L 44.28125 44.578125 
Q 40.484375 46.53125 36.375 47.5 
Q 32.28125 48.484375 27.875 48.484375 
Q 21.1875 48.484375 17.84375 46.4375 
Q 14.5 44.390625 14.5 40.28125 
Q 14.5 37.15625 16.890625 35.375 
Q 19.28125 33.59375 26.515625 31.984375 
L 29.59375 31.296875 
Q 39.15625 29.25 43.1875 25.515625 
Q 47.21875 21.78125 47.21875 15.09375 
Q 47.21875 7.46875 41.1875 3.015625 
Q 35.15625 -1.421875 24.609375 -1.421875 
Q 20.21875 -1.421875 15.453125 -0.5625 
Q 10.6875 0.296875 5.421875 2 
L 5.421875 11.28125 
Q 10.40625 8.6875 15.234375 7.390625 
Q 20.0625 6.109375 24.8125 6.109375 
Q 31.15625 6.109375 34.5625 8.28125 
Q 37.984375 10.453125 37.984375 14.40625 
Q 37.984375 18.0625 35.515625 20.015625 
Q 33.0625 21.96875 24.703125 23.78125 
L 21.578125 24.515625 
Q 13.234375 26.265625 9.515625 29.90625 
Q 5.8125 33.546875 5.8125 39.890625 
Q 5.8125 47.609375 11.28125 51.796875 
Q 16.75 56 26.8125 56 
Q 31.78125 56 36.171875 55.265625 
Q 40.578125 54.546875 44.28125 53.078125 
z
" id="DejaVuSans-115"/>
     </defs>
     <g transform="translate(217.168594 335.860562)scale(0.1 -0.1)">
      <use xlink:href="#DejaVuSans-116"/>
      <use x="39.208984" xlink:href="#DejaVuSans-104"/>
      <use x="102.587891" xlink:href="#DejaVuSans-114"/>
      <use x="141.451172" xlink:href="#DejaVuSans-101"/>
      <use x="202.974609" xlink:href="#DejaVuSans-97"/>
      <use x="264.253906" xlink:href="#DejaVuSans-100"/>
      <use x="327.730469" xlink:href="#DejaVuSans-115"/>
     </g>
    </g>
   </g>
   <g id="matplotlib.axis_2">
    <g id="ytick_1">
     <g id="line2d_47">
      <path clip-path="url(#pee1e6eb091)" d="M 57.6 291.95964 
L 414.72 291.95964 
" style="fill:none;stroke:#b0b0b0;stroke-dasharray:5.12,1.28,0.8,1.28;stroke-dashoffset:0;stroke-width:0.8;"/>
     </g>
     <g id="line2d_48">
      <defs>
       <path d="M 0 0 
L -3.5 0 
" id="mef94ad138f" style="stroke:#000000;stroke-width:0.8;"/>
      </defs>
      <g>
       <use style="stroke:#000000;stroke-width:0.8;" x="57.6" xlink:href="#mef94ad138f" y="291.95964"/>
      </g>
     </g>
     <g id="text_25">
      <!-- 0.1 -->
      <defs>
       <path d="M 10.6875 12.40625 
L 21 12.40625 
L 21 0 
L 10.6875 0 
z
" id="DejaVuSans-46"/>
      </defs>
      <g transform="translate(34.696875 295.758859)scale(0.1 -0.1)">
       <use xlink:href="#DejaVuSans-48"/>
       <use x="63.623047" xlink:href="#DejaVuSans-46"/>
       <use x="95.410156" xlink:href="#DejaVuSans-49"/>
      </g>
     </g>
    </g>
    <g id="ytick_2">
     <g id="line2d_49">
      <path clip-path="url(#pee1e6eb091)" d="M 57.6 248.544913 
L 414.72 248.544913 
" style="fill:none;stroke:#b0b0b0;stroke-dasharray:5.12,1.28,0.8,1.28;stroke-dashoffset:0;stroke-width:0.8;"/>
     </g>
     <g id="line2d_50">
      <g>
       <use style="stroke:#000000;stroke-width:0.8;" x="57.6" xlink:href="#mef94ad138f" y="248.544913"/>
      </g>
     </g>
     <g id="text_26">
      <!-- 0.2 -->
      <g transform="translate(34.696875 252.344132)scale(0.1 -0.1)">
       <use xlink:href="#DejaVuSans-48"/>
       <use x="63.623047" xlink:href="#DejaVuSans-46"/>
       <use x="95.410156" xlink:href="#DejaVuSans-50"/>
      </g>
     </g>
    </g>
    <g id="ytick_3">
     <g id="line2d_51">
      <path clip-path="url(#pee1e6eb091)" d="M 57.6 205.130186 
L 414.72 205.130186 
" style="fill:none;stroke:#b0b0b0;stroke-dasharray:5.12,1.28,0.8,1.28;stroke-dashoffset:0;stroke-width:0.8;"/>
     </g>
     <g id="line2d_52">
      <g>
       <use style="stroke:#000000;stroke-width:0.8;" x="57.6" xlink:href="#mef94ad138f" y="205.130186"/>
      </g>
     </g>
     <g id="text_27">
      <!-- 0.3 -->
      <g transform="translate(34.696875 208.929405)scale(0.1 -0.1)">
       <use xlink:href="#DejaVuSans-48"/>
       <use x="63.623047" xlink:href="#DejaVuSans-46"/>
       <use x="95.410156" xlink:href="#DejaVuSans-51"/>
      </g>
     </g>
    </g>
    <g id="ytick_4">
     <g id="line2d_53">
      <path clip-path="url(#pee1e6eb091)" d="M 57.6 161.715459 
L 414.72 161.715459 
" style="fill:none;stroke:#b0b0b0;stroke-dasharray:5.12,1.28,0.8,1.28;stroke-dashoffset:0;stroke-width:0.8;"/>
     </g>
     <g id="line2d_54">
      <g>
       <use style="stroke:#000000;stroke-width:0.8;" x="57.6" xlink:href="#mef94ad138f" y="161.715459"/>
      </g>
     </g>
     <g id="text_28">
      <!-- 0.4 -->
      <g transform="translate(34.696875 165.514678)scale(0.1 -0.1)">
       <use xlink:href="#DejaVuSans-48"/>
       <use x="63.623047" xlink:href="#DejaVuSans-46"/>
       <use x="95.410156" xlink:href="#DejaVuSans-52"/>
      </g>
     </g>
    </g>
    <g id="ytick_5">
     <g id="line2d_55">
      <path clip-path="url(#pee1e6eb091)" d="M 57.6 118.300732 
L 414.72 118.300732 
" style="fill:none;stroke:#b0b0b0;stroke-dasharray:5.12,1.28,0.8,1.28;stroke-dashoffset:0;stroke-width:0.8;"/>
     </g>
     <g id="line2d_56">
      <g>
       <use style="stroke:#000000;stroke-width:0.8;" x="57.6" xlink:href="#mef94ad138f" y="118.300732"/>
      </g>
     </g>
     <g id="text_29">
      <!-- 0.5 -->
      <g transform="translate(34.696875 122.099951)scale(0.1 -0.1)">
       <use xlink:href="#DejaVuSans-48"/>
       <use x="63.623047" xlink:href="#DejaVuSans-46"/>
       <use x="95.410156" xlink:href="#DejaVuSans-53"/>
      </g>
     </g>
    </g>
    <g id="ytick_6">
     <g id="line2d_57">
      <path clip-path="url(#pee1e6eb091)" d="M 57.6 74.886005 
L 414.72 74.886005 
" style="fill:none;stroke:#b0b0b0;stroke-dasharray:5.12,1.28,0.8,1.28;stroke-dashoffset:0;stroke-width:0.8;"/>
     </g>
     <g id="line2d_58">
      <g>
       <use style="stroke:#000000;stroke-width:0.8;" x="57.6" xlink:href="#mef94ad138f" y="74.886005"/>
      </g>
     </g>
     <g id="text_30">
      <!-- 0.6 -->
      <g transform="translate(34.696875 78.685224)scale(0.1 -0.1)">
       <use xlink:href="#DejaVuSans-48"/>
       <use x="63.623047" xlink:href="#DejaVuSans-46"/>
       <use x="95.410156" xlink:href="#DejaVuSans-54"/>
      </g>
     </g>
    </g>
    <g id="text_31">
     <!-- duration (s) -->
     <defs>
      <path d="M 8.5 21.578125 
L 8.5 54.6875 
L 17.484375 54.6875 
L 17.484375 21.921875 
Q 17.484375 14.15625 20.5 10.265625 
Q 23.53125 6.390625 29.59375 6.390625 
Q 36.859375 6.390625 41.078125 11.03125 
Q 45.3125 15.671875 45.3125 23.6875 
L 45.3125 54.6875 
L 54.296875 54.6875 
L 54.296875 0 
L 45.3125 0 
L 45.3125 8.40625 
Q 42.046875 3.421875 37.71875 1 
Q 33.40625 -1.421875 27.6875 -1.421875 
Q 18.265625 -1.421875 13.375 4.4375 
Q 8.5 10.296875 8.5 21.578125 
z
M 31.109375 56 
z
" id="DejaVuSans-117"/>
      <path d="M 9.421875 54.6875 
L 18.40625 54.6875 
L 18.40625 0 
L 9.421875 0 
z
M 9.421875 75.984375 
L 18.40625 75.984375 
L 18.40625 64.59375 
L 9.421875 64.59375 
z
" id="DejaVuSans-105"/>
      <path d="M 30.609375 48.390625 
Q 23.390625 48.390625 19.1875 42.75 
Q 14.984375 37.109375 14.984375 27.296875 
Q 14.984375 17.484375 19.15625 11.84375 
Q 23.34375 6.203125 30.609375 6.203125 
Q 37.796875 6.203125 41.984375 11.859375 
Q 46.1875 17.53125 46.1875 27.296875 
Q 46.1875 37.015625 41.984375 42.703125 
Q 37.796875 48.390625 30.609375 48.390625 
z
M 30.609375 56 
Q 42.328125 56 49.015625 48.375 
Q 55.71875 40.765625 55.71875 27.296875 
Q 55.71875 13.875 49.015625 6.21875 
Q 42.328125 -1.421875 30.609375 -1.421875 
Q 18.84375 -1.421875 12.171875 6.21875 
Q 5.515625 13.875 5.515625 27.296875 
Q 5.515625 40.765625 12.171875 48.375 
Q 18.84375 56 30.609375 56 
z
" id="DejaVuSans-111"/>
      <path d="M 54.890625 33.015625 
L 54.890625 0 
L 45.90625 0 
L 45.90625 32.71875 
Q 45.90625 40.484375 42.875 44.328125 
Q 39.84375 48.1875 33.796875 48.1875 
Q 26.515625 48.1875 22.3125 43.546875 
Q 18.109375 38.921875 18.109375 30.90625 
L 18.109375 0 
L 9.078125 0 
L 9.078125 54.6875 
L 18.109375 54.6875 
L 18.109375 46.1875 
Q 21.34375 51.125 25.703125 53.5625 
Q 30.078125 56 35.796875 56 
Q 45.21875 56 50.046875 50.171875 
Q 54.890625 44.34375 54.890625 33.015625 
z
" id="DejaVuSans-110"/>
      <path id="DejaVuSans-32"/>
      <path d="M 31 75.875 
Q 24.46875 64.65625 21.28125 53.65625 
Q 18.109375 42.671875 18.109375 31.390625 
Q 18.109375 20.125 21.3125 9.0625 
Q 24.515625 -2 31 -13.1875 
L 23.1875 -13.1875 
Q 15.875 -1.703125 12.234375 9.375 
Q 8.59375 20.453125 8.59375 31.390625 
Q 8.59375 42.28125 12.203125 53.3125 
Q 15.828125 64.359375 23.1875 75.875 
z
" id="DejaVuSans-40"/>
      <path d="M 8.015625 75.875 
L 15.828125 75.875 
Q 23.140625 64.359375 26.78125 53.3125 
Q 30.421875 42.28125 30.421875 31.390625 
Q 30.421875 20.453125 26.78125 9.375 
Q 23.140625 -1.703125 15.828125 -13.1875 
L 8.015625 -13.1875 
Q 14.5 -2 17.703125 9.0625 
Q 20.90625 20.125 20.90625 31.390625 
Q 20.90625 42.671875 17.703125 53.65625 
Q 14.5 64.65625 8.015625 75.875 
z
" id="DejaVuSans-41"/>
     </defs>
     <g transform="translate(28.617187 203.663156)rotate(-90)scale(0.1 -0.1)">
      <use xlink:href="#DejaVuSans-100"/>
      <use x="63.476562" xlink:href="#DejaVuSans-117"/>
      <use x="126.855469" xlink:href="#DejaVuSans-114"/>
      <use x="167.96875" xlink:href="#DejaVuSans-97"/>
      <use x="229.248047" xlink:href="#DejaVuSans-116"/>
      <use x="268.457031" xlink:href="#DejaVuSans-105"/>
      <use x="296.240234" xlink:href="#DejaVuSans-111"/>
      <use x="357.421875" xlink:href="#DejaVuSans-110"/>
      <use x="420.800781" xlink:href="#DejaVuSans-32"/>
      <use x="452.587891" xlink:href="#DejaVuSans-40"/>
      <use x="491.601562" xlink:href="#DejaVuSans-115"/>
      <use x="543.701172" xlink:href="#DejaVuSans-41"/>
     </g>
    </g>
   </g>
   <g id="line2d_59">
    <path clip-path="url(#pee1e6eb091)" d="M 61.612584 275.715769 
L 65.625169 280.9521 
L 69.637753 287.863765 
L 73.650337 290.574113 
L 77.662921 292.526644 
L 81.675506 290.71246 
L 85.68809 294.106513 
L 89.700674 294.250508 
L 93.713258 294.644389 
L 97.725843 295.199418 
L 101.738427 295.127301 
L 105.751011 295.488 
L 109.763596 294.458886 
L 113.77618 293.384066 
L 117.788764 293.161877 
L 121.801348 292.727687 
L 125.813933 294.309094 
L 129.826517 294.176278 
L 133.839101 294.512681 
L 137.851685 292.523538 
L 141.86427 293.260624 
L 145.876854 292.215984 
L 149.889438 292.365362 
L 153.902022 291.542364 
L 157.914607 291.283429 
L 161.927191 290.743483 
L 165.939775 290.901615 
L 169.95236 290.314661 
L 173.964944 289.553472 
L 177.977528 289.44294 
L 181.990112 288.926682 
L 186.002697 288.734792 
L 190.015281 288.878255 
L 194.027865 286.569181 
L 198.040449 286.283349 
L 202.053034 286.389298 
L 206.065618 285.797834 
L 210.078202 285.892722 
L 214.090787 284.553082 
L 218.103371 285.040889 
L 222.115955 284.501327 
L 226.128539 283.318577 
L 230.141124 283.405509 
L 234.153708 283.839137 
L 238.166292 283.60435 
L 242.178876 282.86923 
L 246.191461 283.376867 
L 250.204045 283.169894 
L 254.216629 282.031637 
L 258.229213 283.901627 
L 262.241798 283.969351 
L 266.254382 284.184383 
L 270.266966 283.9181 
L 274.279551 283.495015 
L 278.292135 283.195076 
L 282.304719 283.511207 
L 286.317303 283.455741 
L 290.329888 283.585408 
L 294.342472 283.621251 
L 298.355056 283.708169 
L 302.36764 283.844801 
L 306.380225 283.82645 
L 310.392809 283.74246 
L 314.405393 283.595359 
L 318.417978 284.118374 
L 322.430562 282.459927 
L 326.443146 282.568848 
L 330.45573 283.882685 
L 334.468315 283.422189 
L 338.480899 283.18715 
L 342.493483 283.322407 
L 346.506067 282.770941 
L 350.518652 283.373333 
L 354.531236 282.801018 
L 358.54382 283.830221 
L 362.556404 282.786971 
L 366.568989 283.105999 
L 370.581573 283.499155 
L 374.594157 283.444414 
L 378.606742 283.470439 
L 382.619326 283.248176 
L 386.63191 283.08926 
L 390.644494 283.096462 
L 394.657079 283.432096 
L 398.669663 283.317453 
L 402.682247 283.2493 
L 406.694831 283.612852 
L 410.707416 282.479579 
" style="fill:none;stroke:#0000ff;stroke-dasharray:1.5,2.475;stroke-dashoffset:0;stroke-width:1.5;"/>
    <defs>
     <path d="M 0 1.5 
C 0.397805 1.5 0.77937 1.341951 1.06066 1.06066 
C 1.341951 0.77937 1.5 0.397805 1.5 0 
C 1.5 -0.397805 1.341951 -0.77937 1.06066 -1.06066 
C 0.77937 -1.341951 0.397805 -1.5 0 -1.5 
C -0.397805 -1.5 -0.77937 -1.341951 -1.06066 -1.06066 
C -1.341951 -0.77937 -1.5 -0.397805 -1.5 0 
C -1.5 0.397805 -1.341951 0.77937 -1.06066 1.06066 
C -0.77937 1.341951 -0.397805 1.5 0 1.5 
z
" id="m3b33467bd1" style="stroke:#0000ff;"/>
    </defs>
    <g clip-path="url(#pee1e6eb091)">
     <use style="fill:#0000ff;stroke:#0000ff;" x="61.612584" xlink:href="#m3b33467bd1" y="275.715769"/>
     <use style="fill:#0000ff;stroke:#0000ff;" x="65.625169" xlink:href="#m3b33467bd1" y="280.9521"/>
     <use style="fill:#0000ff;stroke:#0000ff;" x="69.637753" xlink:href="#m3b33467bd1" y="287.863765"/>
     <use style="fill:#0000ff;stroke:#0000ff;" x="73.650337" xlink:href="#m3b33467bd1" y="290.574113"/>
     <use style="fill:#0000ff;stroke:#0000ff;" x="77.662921" xlink:href="#m3b33467bd1" y="292.526644"/>
     <use style="fill:#0000ff;stroke:#0000ff;" x="81.675506" xlink:href="#m3b33467bd1" y="290.71246"/>
     <use style="fill:#0000ff;stroke:#0000ff;" x="85.68809" xlink:href="#m3b33467bd1" y="294.106513"/>
     <use style="fill:#0000ff;stroke:#0000ff;" x="89.700674" xlink:href="#m3b33467bd1" y="294.250508"/>
     <use style="fill:#0000ff;stroke:#0000ff;" x="93.713258" xlink:href="#m3b33467bd1" y="294.644389"/>
     <use style="fill:#0000ff;stroke:#0000ff;" x="97.725843" xlink:href="#m3b33467bd1" y="295.199418"/>
     <use style="fill:#0000ff;stroke:#0000ff;" x="101.738427" xlink:href="#m3b33467bd1" y="295.127301"/>
     <use style="fill:#0000ff;stroke:#0000ff;" x="105.751011" xlink:href="#m3b33467bd1" y="295.488"/>
     <use style="fill:#0000ff;stroke:#0000ff;" x="109.763596" xlink:href="#m3b33467bd1" y="294.458886"/>
     <use style="fill:#0000ff;stroke:#0000ff;" x="113.77618" xlink:href="#m3b33467bd1" y="293.384066"/>
     <use style="fill:#0000ff;stroke:#0000ff;" x="117.788764" xlink:href="#m3b33467bd1" y="293.161877"/>
     <use style="fill:#0000ff;stroke:#0000ff;" x="121.801348" xlink:href="#m3b33467bd1" y="292.727687"/>
     <use style="fill:#0000ff;stroke:#0000ff;" x="125.813933" xlink:href="#m3b33467bd1" y="294.309094"/>
     <use style="fill:#0000ff;stroke:#0000ff;" x="129.826517" xlink:href="#m3b33467bd1" y="294.176278"/>
     <use style="fill:#0000ff;stroke:#0000ff;" x="133.839101" xlink:href="#m3b33467bd1" y="294.512681"/>
     <use style="fill:#0000ff;stroke:#0000ff;" x="137.851685" xlink:href="#m3b33467bd1" y="292.523538"/>
     <use style="fill:#0000ff;stroke:#0000ff;" x="141.86427" xlink:href="#m3b33467bd1" y="293.260624"/>
     <use style="fill:#0000ff;stroke:#0000ff;" x="145.876854" xlink:href="#m3b33467bd1" y="292.215984"/>
     <use style="fill:#0000ff;stroke:#0000ff;" x="149.889438" xlink:href="#m3b33467bd1" y="292.365362"/>
     <use style="fill:#0000ff;stroke:#0000ff;" x="153.902022" xlink:href="#m3b33467bd1" y="291.542364"/>
     <use style="fill:#0000ff;stroke:#0000ff;" x="157.914607" xlink:href="#m3b33467bd1" y="291.283429"/>
     <use style="fill:#0000ff;stroke:#0000ff;" x="161.927191" xlink:href="#m3b33467bd1" y="290.743483"/>
     <use style="fill:#0000ff;stroke:#0000ff;" x="165.939775" xlink:href="#m3b33467bd1" y="290.901615"/>
     <use style="fill:#0000ff;stroke:#0000ff;" x="169.95236" xlink:href="#m3b33467bd1" y="290.314661"/>
     <use style="fill:#0000ff;stroke:#0000ff;" x="173.964944" xlink:href="#m3b33467bd1" y="289.553472"/>
     <use style="fill:#0000ff;stroke:#0000ff;" x="177.977528" xlink:href="#m3b33467bd1" y="289.44294"/>
     <use style="fill:#0000ff;stroke:#0000ff;" x="181.990112" xlink:href="#m3b33467bd1" y="288.926682"/>
     <use style="fill:#0000ff;stroke:#0000ff;" x="186.002697" xlink:href="#m3b33467bd1" y="288.734792"/>
     <use style="fill:#0000ff;stroke:#0000ff;" x="190.015281" xlink:href="#m3b33467bd1" y="288.878255"/>
     <use style="fill:#0000ff;stroke:#0000ff;" x="194.027865" xlink:href="#m3b33467bd1" y="286.569181"/>
     <use style="fill:#0000ff;stroke:#0000ff;" x="198.040449" xlink:href="#m3b33467bd1" y="286.283349"/>
     <use style="fill:#0000ff;stroke:#0000ff;" x="202.053034" xlink:href="#m3b33467bd1" y="286.389298"/>
     <use style="fill:#0000ff;stroke:#0000ff;" x="206.065618" xlink:href="#m3b33467bd1" y="285.797834"/>
     <use style="fill:#0000ff;stroke:#0000ff;" x="210.078202" xlink:href="#m3b33467bd1" y="285.892722"/>
     <use style="fill:#0000ff;stroke:#0000ff;" x="214.090787" xlink:href="#m3b33467bd1" y="284.553082"/>
     <use style="fill:#0000ff;stroke:#0000ff;" x="218.103371" xlink:href="#m3b33467bd1" y="285.040889"/>
     <use style="fill:#0000ff;stroke:#0000ff;" x="222.115955" xlink:href="#m3b33467bd1" y="284.501327"/>
     <use style="fill:#0000ff;stroke:#0000ff;" x="226.128539" xlink:href="#m3b33467bd1" y="283.318577"/>
     <use style="fill:#0000ff;stroke:#0000ff;" x="230.141124" xlink:href="#m3b33467bd1" y="283.405509"/>
     <use style="fill:#0000ff;stroke:#0000ff;" x="234.153708" xlink:href="#m3b33467bd1" y="283.839137"/>
     <use style="fill:#0000ff;stroke:#0000ff;" x="238.166292" xlink:href="#m3b33467bd1" y="283.60435"/>
     <use style="fill:#0000ff;stroke:#0000ff;" x="242.178876" xlink:href="#m3b33467bd1" y="282.86923"/>
     <use style="fill:#0000ff;stroke:#0000ff;" x="246.191461" xlink:href="#m3b33467bd1" y="283.376867"/>
     <use style="fill:#0000ff;stroke:#0000ff;" x="250.204045" xlink:href="#m3b33467bd1" y="283.169894"/>
     <use style="fill:#0000ff;stroke:#0000ff;" x="254.216629" xlink:href="#m3b33467bd1" y="282.031637"/>
     <use style="fill:#0000ff;stroke:#0000ff;" x="258.229213" xlink:href="#m3b33467bd1" y="283.901627"/>
     <use style="fill:#0000ff;stroke:#0000ff;" x="262.241798" xlink:href="#m3b33467bd1" y="283.969351"/>
     <use style="fill:#0000ff;stroke:#0000ff;" x="266.254382" xlink:href="#m3b33467bd1" y="284.184383"/>
     <use style="fill:#0000ff;stroke:#0000ff;" x="270.266966" xlink:href="#m3b33467bd1" y="283.9181"/>
     <use style="fill:#0000ff;stroke:#0000ff;" x="274.279551" xlink:href="#m3b33467bd1" y="283.495015"/>
     <use style="fill:#0000ff;stroke:#0000ff;" x="278.292135" xlink:href="#m3b33467bd1" y="283.195076"/>
     <use style="fill:#0000ff;stroke:#0000ff;" x="282.304719" xlink:href="#m3b33467bd1" y="283.511207"/>
     <use style="fill:#0000ff;stroke:#0000ff;" x="286.317303" xlink:href="#m3b33467bd1" y="283.455741"/>
     <use style="fill:#0000ff;stroke:#0000ff;" x="290.329888" xlink:href="#m3b33467bd1" y="283.585408"/>
     <use style="fill:#0000ff;stroke:#0000ff;" x="294.342472" xlink:href="#m3b33467bd1" y="283.621251"/>
     <use style="fill:#0000ff;stroke:#0000ff;" x="298.355056" xlink:href="#m3b33467bd1" y="283.708169"/>
     <use style="fill:#0000ff;stroke:#0000ff;" x="302.36764" xlink:href="#m3b33467bd1" y="283.844801"/>
     <use style="fill:#0000ff;stroke:#0000ff;" x="306.380225" xlink:href="#m3b33467bd1" y="283.82645"/>
     <use style="fill:#0000ff;stroke:#0000ff;" x="310.392809" xlink:href="#m3b33467bd1" y="283.74246"/>
     <use style="fill:#0000ff;stroke:#0000ff;" x="314.405393" xlink:href="#m3b33467bd1" y="283.595359"/>
     <use style="fill:#0000ff;stroke:#0000ff;" x="318.417978" xlink:href="#m3b33467bd1" y="284.118374"/>
     <use style="fill:#0000ff;stroke:#0000ff;" x="322.430562" xlink:href="#m3b33467bd1" y="282.459927"/>
     <use style="fill:#0000ff;stroke:#0000ff;" x="326.443146" xlink:href="#m3b33467bd1" y="282.568848"/>
     <use style="fill:#0000ff;stroke:#0000ff;" x="330.45573" xlink:href="#m3b33467bd1" y="283.882685"/>
     <use style="fill:#0000ff;stroke:#0000ff;" x="334.468315" xlink:href="#m3b33467bd1" y="283.422189"/>
     <use style="fill:#0000ff;stroke:#0000ff;" x="338.480899" xlink:href="#m3b33467bd1" y="283.18715"/>
     <use style="fill:#0000ff;stroke:#0000ff;" x="342.493483" xlink:href="#m3b33467bd1" y="283.322407"/>
     <use style="fill:#0000ff;stroke:#0000ff;" x="346.506067" xlink:href="#m3b33467bd1" y="282.770941"/>
     <use style="fill:#0000ff;stroke:#0000ff;" x="350.518652" xlink:href="#m3b33467bd1" y="283.373333"/>
     <use style="fill:#0000ff;stroke:#0000ff;" x="354.531236" xlink:href="#m3b33467bd1" y="282.801018"/>
     <use style="fill:#0000ff;stroke:#0000ff;" x="358.54382" xlink:href="#m3b33467bd1" y="283.830221"/>
     <use style="fill:#0000ff;stroke:#0000ff;" x="362.556404" xlink:href="#m3b33467bd1" y="282.786971"/>
     <use style="fill:#0000ff;stroke:#0000ff;" x="366.568989" xlink:href="#m3b33467bd1" y="283.105999"/>
     <use style="fill:#0000ff;stroke:#0000ff;" x="370.581573" xlink:href="#m3b33467bd1" y="283.499155"/>
     <use style="fill:#0000ff;stroke:#0000ff;" x="374.594157" xlink:href="#m3b33467bd1" y="283.444414"/>
     <use style="fill:#0000ff;stroke:#0000ff;" x="378.606742" xlink:href="#m3b33467bd1" y="283.470439"/>
     <use style="fill:#0000ff;stroke:#0000ff;" x="382.619326" xlink:href="#m3b33467bd1" y="283.248176"/>
     <use style="fill:#0000ff;stroke:#0000ff;" x="386.63191" xlink:href="#m3b33467bd1" y="283.08926"/>
     <use style="fill:#0000ff;stroke:#0000ff;" x="390.644494" xlink:href="#m3b33467bd1" y="283.096462"/>
     <use style="fill:#0000ff;stroke:#0000ff;" x="394.657079" xlink:href="#m3b33467bd1" y="283.432096"/>
     <use style="fill:#0000ff;stroke:#0000ff;" x="398.669663" xlink:href="#m3b33467bd1" y="283.317453"/>
     <use style="fill:#0000ff;stroke:#0000ff;" x="402.682247" xlink:href="#m3b33467bd1" y="283.2493"/>
     <use style="fill:#0000ff;stroke:#0000ff;" x="406.694831" xlink:href="#m3b33467bd1" y="283.612852"/>
     <use style="fill:#0000ff;stroke:#0000ff;" x="410.707416" xlink:href="#m3b33467bd1" y="282.479579"/>
    </g>
   </g>
   <g id="line2d_60">
    <path clip-path="url(#pee1e6eb091)" d="M 61.612584 248.457561 
L 65.625169 252.218182 
L 69.637753 255.364893 
L 73.650337 254.004522 
L 77.662921 251.931064 
L 81.675506 247.982115 
L 85.68809 242.954635 
L 89.700674 239.56141 
L 93.713258 236.021839 
L 97.725843 231.413421 
L 101.738427 226.135893 
L 105.751011 221.997435 
L 109.763596 216.917017 
L 113.77618 212.216018 
L 117.788764 207.403112 
L 121.801348 202.096172 
L 125.813933 197.772374 
L 129.826517 192.607582 
L 133.839101 188.33786 
L 137.851685 183.257886 
L 141.86427 178.013776 
L 145.876854 172.932205 
L 149.889438 166.833927 
L 153.902022 162.229235 
L 157.914607 157.21876 
L 161.927191 151.43673 
L 165.939775 146.695939 
L 169.95236 141.215268 
L 173.964944 135.297124 
L 177.977528 131.630163 
L 181.990112 126.437158 
L 186.002697 121.120651 
L 190.015281 115.496768 
L 194.027865 110.5788 
L 198.040449 105.622637 
L 202.053034 100.402364 
L 206.065618 94.221426 
L 210.078202 89.452156 
L 214.090787 82.863586 
L 218.103371 78.635164 
L 222.115955 72.017537 
L 226.128539 66.505651 
L 230.141124 60.690025 
L 234.153708 58.036977 
L 238.166292 56.717521 
L 242.178876 57.129175 
L 246.191461 57.196249 
L 250.204045 57.576614 
L 254.216629 54.079747 
L 258.229213 58.910132 
L 262.241798 60.176045 
L 266.254382 58.257258 
L 270.266966 58.570431 
L 274.279551 57.34193 
L 278.292135 57.065221 
L 282.304719 57.607918 
L 286.317303 57.520527 
L 290.329888 56.262777 
L 294.342472 57.255337 
L 298.355056 57.176405 
L 302.36764 57.314811 
L 306.380225 57.173669 
L 310.392809 57.218873 
L 314.405393 60.073955 
L 318.417978 60.32909 
L 322.430562 54.350748 
L 326.443146 55.849511 
L 330.45573 59.015696 
L 334.468315 58.052252 
L 338.480899 55.859182 
L 342.493483 57.058937 
L 346.506067 57.886475 
L 350.518652 57.392043 
L 354.531236 54.482293 
L 358.54382 56.500537 
L 362.556404 56.619513 
L 366.568989 56.465521 
L 370.581573 58.076946 
L 374.594157 58.096568 
L 378.606742 57.947131 
L 382.619326 54.743682 
L 386.63191 54.111391 
L 390.644494 54.402251 
L 394.657079 54.662798 
L 398.669663 53.956202 
L 402.682247 53.568 
L 406.694831 54.442442 
L 410.707416 55.413 
" style="fill:none;stroke:#ff0000;stroke-dasharray:1.5,2.475;stroke-dashoffset:0;stroke-width:1.5;"/>
    <defs>
     <path d="M 0 1.5 
C 0.397805 1.5 0.77937 1.341951 1.06066 1.06066 
C 1.341951 0.77937 1.5 0.397805 1.5 0 
C 1.5 -0.397805 1.341951 -0.77937 1.06066 -1.06066 
C 0.77937 -1.341951 0.397805 -1.5 0 -1.5 
C -0.397805 -1.5 -0.77937 -1.341951 -1.06066 -1.06066 
C -1.341951 -0.77937 -1.5 -0.397805 -1.5 0 
C -1.5 0.397805 -1.341951 0.77937 -1.06066 1.06066 
C -0.77937 1.341951 -0.397805 1.5 0 1.5 
z
" id="m753a8d1276" style="stroke:#ff0000;"/>
    </defs>
    <g clip-path="url(#pee1e6eb091)">
     <use style="fill:#ff0000;stroke:#ff0000;" x="61.612584" xlink:href="#m753a8d1276" y="248.457561"/>
     <use style="fill:#ff0000;stroke:#ff0000;" x="65.625169" xlink:href="#m753a8d1276" y="252.218182"/>
     <use style="fill:#ff0000;stroke:#ff0000;" x="69.637753" xlink:href="#m753a8d1276" y="255.364893"/>
     <use style="fill:#ff0000;stroke:#ff0000;" x="73.650337" xlink:href="#m753a8d1276" y="254.004522"/>
     <use style="fill:#ff0000;stroke:#ff0000;" x="77.662921" xlink:href="#m753a8d1276" y="251.931064"/>
     <use style="fill:#ff0000;stroke:#ff0000;" x="81.675506" xlink:href="#m753a8d1276" y="247.982115"/>
     <use style="fill:#ff0000;stroke:#ff0000;" x="85.68809" xlink:href="#m753a8d1276" y="242.954635"/>
     <use style="fill:#ff0000;stroke:#ff0000;" x="89.700674" xlink:href="#m753a8d1276" y="239.56141"/>
     <use style="fill:#ff0000;stroke:#ff0000;" x="93.713258" xlink:href="#m753a8d1276" y="236.021839"/>
     <use style="fill:#ff0000;stroke:#ff0000;" x="97.725843" xlink:href="#m753a8d1276" y="231.413421"/>
     <use style="fill:#ff0000;stroke:#ff0000;" x="101.738427" xlink:href="#m753a8d1276" y="226.135893"/>
     <use style="fill:#ff0000;stroke:#ff0000;" x="105.751011" xlink:href="#m753a8d1276" y="221.997435"/>
     <use style="fill:#ff0000;stroke:#ff0000;" x="109.763596" xlink:href="#m753a8d1276" y="216.917017"/>
     <use style="fill:#ff0000;stroke:#ff0000;" x="113.77618" xlink:href="#m753a8d1276" y="212.216018"/>
     <use style="fill:#ff0000;stroke:#ff0000;" x="117.788764" xlink:href="#m753a8d1276" y="207.403112"/>
     <use style="fill:#ff0000;stroke:#ff0000;" x="121.801348" xlink:href="#m753a8d1276" y="202.096172"/>
     <use style="fill:#ff0000;stroke:#ff0000;" x="125.813933" xlink:href="#m753a8d1276" y="197.772374"/>
     <use style="fill:#ff0000;stroke:#ff0000;" x="129.826517" xlink:href="#m753a8d1276" y="192.607582"/>
     <use style="fill:#ff0000;stroke:#ff0000;" x="133.839101" xlink:href="#m753a8d1276" y="188.33786"/>
     <use style="fill:#ff0000;stroke:#ff0000;" x="137.851685" xlink:href="#m753a8d1276" y="183.257886"/>
     <use style="fill:#ff0000;stroke:#ff0000;" x="141.86427" xlink:href="#m753a8d1276" y="178.013776"/>
     <use style="fill:#ff0000;stroke:#ff0000;" x="145.876854" xlink:href="#m753a8d1276" y="172.932205"/>
     <use style="fill:#ff0000;stroke:#ff0000;" x="149.889438" xlink:href="#m753a8d1276" y="166.833927"/>
     <use style="fill:#ff0000;stroke:#ff0000;" x="153.902022" xlink:href="#m753a8d1276" y="162.229235"/>
     <use style="fill:#ff0000;stroke:#ff0000;" x="157.914607" xlink:href="#m753a8d1276" y="157.21876"/>
     <use style="fill:#ff0000;stroke:#ff0000;" x="161.927191" xlink:href="#m753a8d1276" y="151.43673"/>
     <use style="fill:#ff0000;stroke:#ff0000;" x="165.939775" xlink:href="#m753a8d1276" y="146.695939"/>
     <use style="fill:#ff0000;stroke:#ff0000;" x="169.95236" xlink:href="#m753a8d1276" y="141.215268"/>
     <use style="fill:#ff0000;stroke:#ff0000;" x="173.964944" xlink:href="#m753a8d1276" y="135.297124"/>
     <use style="fill:#ff0000;stroke:#ff0000;" x="177.977528" xlink:href="#m753a8d1276" y="131.630163"/>
     <use style="fill:#ff0000;stroke:#ff0000;" x="181.990112" xlink:href="#m753a8d1276" y="126.437158"/>
     <use style="fill:#ff0000;stroke:#ff0000;" x="186.002697" xlink:href="#m753a8d1276" y="121.120651"/>
     <use style="fill:#ff0000;stroke:#ff0000;" x="190.015281" xlink:href="#m753a8d1276" y="115.496768"/>
     <use style="fill:#ff0000;stroke:#ff0000;" x="194.027865" xlink:href="#m753a8d1276" y="110.5788"/>
     <use style="fill:#ff0000;stroke:#ff0000;" x="198.040449" xlink:href="#m753a8d1276" y="105.622637"/>
     <use style="fill:#ff0000;stroke:#ff0000;" x="202.053034" xlink:href="#m753a8d1276" y="100.402364"/>
     <use style="fill:#ff0000;stroke:#ff0000;" x="206.065618" xlink:href="#m753a8d1276" y="94.221426"/>
     <use style="fill:#ff0000;stroke:#ff0000;" x="210.078202" xlink:href="#m753a8d1276" y="89.452156"/>
     <use style="fill:#ff0000;stroke:#ff0000;" x="214.090787" xlink:href="#m753a8d1276" y="82.863586"/>
     <use style="fill:#ff0000;stroke:#ff0000;" x="218.103371" xlink:href="#m753a8d1276" y="78.635164"/>
     <use style="fill:#ff0000;stroke:#ff0000;" x="222.115955" xlink:href="#m753a8d1276" y="72.017537"/>
     <use style="fill:#ff0000;stroke:#ff0000;" x="226.128539" xlink:href="#m753a8d1276" y="66.505651"/>
     <use style="fill:#ff0000;stroke:#ff0000;" x="230.141124" xlink:href="#m753a8d1276" y="60.690025"/>
     <use style="fill:#ff0000;stroke:#ff0000;" x="234.153708" xlink:href="#m753a8d1276" y="58.036977"/>
     <use style="fill:#ff0000;stroke:#ff0000;" x="238.166292" xlink:href="#m753a8d1276" y="56.717521"/>
     <use style="fill:#ff0000;stroke:#ff0000;" x="242.178876" xlink:href="#m753a8d1276" y="57.129175"/>
     <use style="fill:#ff0000;stroke:#ff0000;" x="246.191461" xlink:href="#m753a8d1276" y="57.196249"/>
     <use style="fill:#ff0000;stroke:#ff0000;" x="250.204045" xlink:href="#m753a8d1276" y="57.576614"/>
     <use style="fill:#ff0000;stroke:#ff0000;" x="254.216629" xlink:href="#m753a8d1276" y="54.079747"/>
     <use style="fill:#ff0000;stroke:#ff0000;" x="258.229213" xlink:href="#m753a8d1276" y="58.910132"/>
     <use style="fill:#ff0000;stroke:#ff0000;" x="262.241798" xlink:href="#m753a8d1276" y="60.176045"/>
     <use style="fill:#ff0000;stroke:#ff0000;" x="266.254382" xlink:href="#m753a8d1276" y="58.257258"/>
     <use style="fill:#ff0000;stroke:#ff0000;" x="270.266966" xlink:href="#m753a8d1276" y="58.570431"/>
     <use style="fill:#ff0000;stroke:#ff0000;" x="274.279551" xlink:href="#m753a8d1276" y="57.34193"/>
     <use style="fill:#ff0000;stroke:#ff0000;" x="278.292135" xlink:href="#m753a8d1276" y="57.065221"/>
     <use style="fill:#ff0000;stroke:#ff0000;" x="282.304719" xlink:href="#m753a8d1276" y="57.607918"/>
     <use style="fill:#ff0000;stroke:#ff0000;" x="286.317303" xlink:href="#m753a8d1276" y="57.520527"/>
     <use style="fill:#ff0000;stroke:#ff0000;" x="290.329888" xlink:href="#m753a8d1276" y="56.262777"/>
     <use style="fill:#ff0000;stroke:#ff0000;" x="294.342472" xlink:href="#m753a8d1276" y="57.255337"/>
     <use style="fill:#ff0000;stroke:#ff0000;" x="298.355056" xlink:href="#m753a8d1276" y="57.176405"/>
     <use style="fill:#ff0000;stroke:#ff0000;" x="302.36764" xlink:href="#m753a8d1276" y="57.314811"/>
     <use style="fill:#ff0000;stroke:#ff0000;" x="306.380225" xlink:href="#m753a8d1276" y="57.173669"/>
     <use style="fill:#ff0000;stroke:#ff0000;" x="310.392809" xlink:href="#m753a8d1276" y="57.218873"/>
     <use style="fill:#ff0000;stroke:#ff0000;" x="314.405393" xlink:href="#m753a8d1276" y="60.073955"/>
     <use style="fill:#ff0000;stroke:#ff0000;" x="318.417978" xlink:href="#m753a8d1276" y="60.32909"/>
     <use style="fill:#ff0000;stroke:#ff0000;" x="322.430562" xlink:href="#m753a8d1276" y="54.350748"/>
     <use style="fill:#ff0000;stroke:#ff0000;" x="326.443146" xlink:href="#m753a8d1276" y="55.849511"/>
     <use style="fill:#ff0000;stroke:#ff0000;" x="330.45573" xlink:href="#m753a8d1276" y="59.015696"/>
     <use style="fill:#ff0000;stroke:#ff0000;" x="334.468315" xlink:href="#m753a8d1276" y="58.052252"/>
     <use style="fill:#ff0000;stroke:#ff0000;" x="338.480899" xlink:href="#m753a8d1276" y="55.859182"/>
     <use style="fill:#ff0000;stroke:#ff0000;" x="342.493483" xlink:href="#m753a8d1276" y="57.058937"/>
     <use style="fill:#ff0000;stroke:#ff0000;" x="346.506067" xlink:href="#m753a8d1276" y="57.886475"/>
     <use style="fill:#ff0000;stroke:#ff0000;" x="350.518652" xlink:href="#m753a8d1276" y="57.392043"/>
     <use style="fill:#ff0000;stroke:#ff0000;" x="354.531236" xlink:href="#m753a8d1276" y="54.482293"/>
     <use style="fill:#ff0000;stroke:#ff0000;" x="358.54382" xlink:href="#m753a8d1276" y="56.500537"/>
     <use style="fill:#ff0000;stroke:#ff0000;" x="362.556404" xlink:href="#m753a8d1276" y="56.619513"/>
     <use style="fill:#ff0000;stroke:#ff0000;" x="366.568989" xlink:href="#m753a8d1276" y="56.465521"/>
     <use style="fill:#ff0000;stroke:#ff0000;" x="370.581573" xlink:href="#m753a8d1276" y="58.076946"/>
     <use style="fill:#ff0000;stroke:#ff0000;" x="374.594157" xlink:href="#m753a8d1276" y="58.096568"/>
     <use style="fill:#ff0000;stroke:#ff0000;" x="378.606742" xlink:href="#m753a8d1276" y="57.947131"/>
     <use style="fill:#ff0000;stroke:#ff0000;" x="382.619326" xlink:href="#m753a8d1276" y="54.743682"/>
     <use style="fill:#ff0000;stroke:#ff0000;" x="386.63191" xlink:href="#m753a8d1276" y="54.111391"/>
     <use style="fill:#ff0000;stroke:#ff0000;" x="390.644494" xlink:href="#m753a8d1276" y="54.402251"/>
     <use style="fill:#ff0000;stroke:#ff0000;" x="394.657079" xlink:href="#m753a8d1276" y="54.662798"/>
     <use style="fill:#ff0000;stroke:#ff0000;" x="398.669663" xlink:href="#m753a8d1276" y="53.956202"/>
     <use style="fill:#ff0000;stroke:#ff0000;" x="402.682247" xlink:href="#m753a8d1276" y="53.568"/>
     <use style="fill:#ff0000;stroke:#ff0000;" x="406.694831" xlink:href="#m753a8d1276" y="54.442442"/>
     <use style="fill:#ff0000;stroke:#ff0000;" x="410.707416" xlink:href="#m753a8d1276" y="55.413"/>
    </g>
   </g>
   <g id="line2d_61">
    <path clip-path="url(#pee1e6eb091)" d="M 61.612584 262.086665 
L 65.625169 266.585141 
L 69.637753 271.614329 
L 73.650337 272.289318 
L 77.662921 272.228854 
L 81.675506 269.347288 
L 85.68809 268.530574 
L 89.700674 266.905959 
L 93.713258 265.333114 
L 97.725843 263.306419 
L 101.738427 260.631597 
L 105.751011 258.742717 
L 109.763596 255.687952 
L 113.77618 252.800042 
L 117.788764 250.282494 
L 121.801348 247.41193 
L 125.813933 246.040734 
L 129.826517 243.39193 
L 133.839101 241.425271 
L 137.851685 237.890712 
L 141.86427 235.6372 
L 145.876854 232.574095 
L 149.889438 229.599644 
L 153.902022 226.885799 
L 157.914607 224.251095 
L 161.927191 221.090107 
L 165.939775 218.798777 
L 169.95236 215.764965 
L 173.964944 212.425298 
L 177.977528 210.536551 
L 181.990112 207.68192 
L 186.002697 204.927721 
L 190.015281 202.187511 
L 194.027865 198.573991 
L 198.040449 195.952993 
L 202.053034 193.395831 
L 206.065618 190.00963 
L 210.078202 187.672439 
L 214.090787 183.708334 
L 218.103371 181.838026 
L 222.115955 178.259432 
L 226.128539 174.912114 
L 230.141124 172.047767 
L 234.153708 170.938057 
L 238.166292 170.160935 
L 242.178876 169.999203 
L 246.191461 170.286558 
L 250.204045 170.373254 
L 254.216629 168.055692 
L 258.229213 171.40588 
L 262.241798 172.072698 
L 266.254382 171.220821 
L 270.266966 171.244265 
L 274.279551 170.418472 
L 278.292135 170.130149 
L 282.304719 170.559562 
L 286.317303 170.488134 
L 290.329888 169.924092 
L 294.342472 170.438294 
L 298.355056 170.442287 
L 302.36764 170.579806 
L 306.380225 170.50006 
L 310.392809 170.480666 
L 314.405393 171.834657 
L 318.417978 172.223732 
L 322.430562 168.405338 
L 326.443146 169.209179 
L 330.45573 171.449191 
L 334.468315 170.73722 
L 338.480899 169.523166 
L 342.493483 170.190672 
L 346.506067 170.328708 
L 350.518652 170.382688 
L 354.531236 168.641656 
L 358.54382 170.165379 
L 362.556404 169.703242 
L 366.568989 169.78576 
L 370.581573 170.788051 
L 374.594157 170.770491 
L 378.606742 170.708785 
L 382.619326 168.995929 
L 386.63191 168.600326 
L 390.644494 168.749356 
L 394.657079 169.047447 
L 398.669663 168.636828 
L 402.682247 168.40865 
L 406.694831 169.027647 
L 410.707416 168.946289 
" style="fill:none;stroke:#008000;stroke-dasharray:1.5,2.475;stroke-dashoffset:0;stroke-width:1.5;"/>
    <defs>
     <path d="M 0 1.5 
C 0.397805 1.5 0.77937 1.341951 1.06066 1.06066 
C 1.341951 0.77937 1.5 0.397805 1.5 0 
C 1.5 -0.397805 1.341951 -0.77937 1.06066 -1.06066 
C 0.77937 -1.341951 0.397805 -1.5 0 -1.5 
C -0.397805 -1.5 -0.77937 -1.341951 -1.06066 -1.06066 
C -1.341951 -0.77937 -1.5 -0.397805 -1.5 0 
C -1.5 0.397805 -1.341951 0.77937 -1.06066 1.06066 
C -0.77937 1.341951 -0.397805 1.5 0 1.5 
z
" id="mb3ddde0f2a" style="stroke:#008000;"/>
    </defs>
    <g clip-path="url(#pee1e6eb091)">
     <use style="fill:#008000;stroke:#008000;" x="61.612584" xlink:href="#mb3ddde0f2a" y="262.086665"/>
     <use style="fill:#008000;stroke:#008000;" x="65.625169" xlink:href="#mb3ddde0f2a" y="266.585141"/>
     <use style="fill:#008000;stroke:#008000;" x="69.637753" xlink:href="#mb3ddde0f2a" y="271.614329"/>
     <use style="fill:#008000;stroke:#008000;" x="73.650337" xlink:href="#mb3ddde0f2a" y="272.289318"/>
     <use style="fill:#008000;stroke:#008000;" x="77.662921" xlink:href="#mb3ddde0f2a" y="272.228854"/>
     <use style="fill:#008000;stroke:#008000;" x="81.675506" xlink:href="#mb3ddde0f2a" y="269.347288"/>
     <use style="fill:#008000;stroke:#008000;" x="85.68809" xlink:href="#mb3ddde0f2a" y="268.530574"/>
     <use style="fill:#008000;stroke:#008000;" x="89.700674" xlink:href="#mb3ddde0f2a" y="266.905959"/>
     <use style="fill:#008000;stroke:#008000;" x="93.713258" xlink:href="#mb3ddde0f2a" y="265.333114"/>
     <use style="fill:#008000;stroke:#008000;" x="97.725843" xlink:href="#mb3ddde0f2a" y="263.306419"/>
     <use style="fill:#008000;stroke:#008000;" x="101.738427" xlink:href="#mb3ddde0f2a" y="260.631597"/>
     <use style="fill:#008000;stroke:#008000;" x="105.751011" xlink:href="#mb3ddde0f2a" y="258.742717"/>
     <use style="fill:#008000;stroke:#008000;" x="109.763596" xlink:href="#mb3ddde0f2a" y="255.687952"/>
     <use style="fill:#008000;stroke:#008000;" x="113.77618" xlink:href="#mb3ddde0f2a" y="252.800042"/>
     <use style="fill:#008000;stroke:#008000;" x="117.788764" xlink:href="#mb3ddde0f2a" y="250.282494"/>
     <use style="fill:#008000;stroke:#008000;" x="121.801348" xlink:href="#mb3ddde0f2a" y="247.41193"/>
     <use style="fill:#008000;stroke:#008000;" x="125.813933" xlink:href="#mb3ddde0f2a" y="246.040734"/>
     <use style="fill:#008000;stroke:#008000;" x="129.826517" xlink:href="#mb3ddde0f2a" y="243.39193"/>
     <use style="fill:#008000;stroke:#008000;" x="133.839101" xlink:href="#mb3ddde0f2a" y="241.425271"/>
     <use style="fill:#008000;stroke:#008000;" x="137.851685" xlink:href="#mb3ddde0f2a" y="237.890712"/>
     <use style="fill:#008000;stroke:#008000;" x="141.86427" xlink:href="#mb3ddde0f2a" y="235.6372"/>
     <use style="fill:#008000;stroke:#008000;" x="145.876854" xlink:href="#mb3ddde0f2a" y="232.574095"/>
     <use style="fill:#008000;stroke:#008000;" x="149.889438" xlink:href="#mb3ddde0f2a" y="229.599644"/>
     <use style="fill:#008000;stroke:#008000;" x="153.902022" xlink:href="#mb3ddde0f2a" y="226.885799"/>
     <use style="fill:#008000;stroke:#008000;" x="157.914607" xlink:href="#mb3ddde0f2a" y="224.251095"/>
     <use style="fill:#008000;stroke:#008000;" x="161.927191" xlink:href="#mb3ddde0f2a" y="221.090107"/>
     <use style="fill:#008000;stroke:#008000;" x="165.939775" xlink:href="#mb3ddde0f2a" y="218.798777"/>
     <use style="fill:#008000;stroke:#008000;" x="169.95236" xlink:href="#mb3ddde0f2a" y="215.764965"/>
     <use style="fill:#008000;stroke:#008000;" x="173.964944" xlink:href="#mb3ddde0f2a" y="212.425298"/>
     <use style="fill:#008000;stroke:#008000;" x="177.977528" xlink:href="#mb3ddde0f2a" y="210.536551"/>
     <use style="fill:#008000;stroke:#008000;" x="181.990112" xlink:href="#mb3ddde0f2a" y="207.68192"/>
     <use style="fill:#008000;stroke:#008000;" x="186.002697" xlink:href="#mb3ddde0f2a" y="204.927721"/>
     <use style="fill:#008000;stroke:#008000;" x="190.015281" xlink:href="#mb3ddde0f2a" y="202.187511"/>
     <use style="fill:#008000;stroke:#008000;" x="194.027865" xlink:href="#mb3ddde0f2a" y="198.573991"/>
     <use style="fill:#008000;stroke:#008000;" x="198.040449" xlink:href="#mb3ddde0f2a" y="195.952993"/>
     <use style="fill:#008000;stroke:#008000;" x="202.053034" xlink:href="#mb3ddde0f2a" y="193.395831"/>
     <use style="fill:#008000;stroke:#008000;" x="206.065618" xlink:href="#mb3ddde0f2a" y="190.00963"/>
     <use style="fill:#008000;stroke:#008000;" x="210.078202" xlink:href="#mb3ddde0f2a" y="187.672439"/>
     <use style="fill:#008000;stroke:#008000;" x="214.090787" xlink:href="#mb3ddde0f2a" y="183.708334"/>
     <use style="fill:#008000;stroke:#008000;" x="218.103371" xlink:href="#mb3ddde0f2a" y="181.838026"/>
     <use style="fill:#008000;stroke:#008000;" x="222.115955" xlink:href="#mb3ddde0f2a" y="178.259432"/>
     <use style="fill:#008000;stroke:#008000;" x="226.128539" xlink:href="#mb3ddde0f2a" y="174.912114"/>
     <use style="fill:#008000;stroke:#008000;" x="230.141124" xlink:href="#mb3ddde0f2a" y="172.047767"/>
     <use style="fill:#008000;stroke:#008000;" x="234.153708" xlink:href="#mb3ddde0f2a" y="170.938057"/>
     <use style="fill:#008000;stroke:#008000;" x="238.166292" xlink:href="#mb3ddde0f2a" y="170.160935"/>
     <use style="fill:#008000;stroke:#008000;" x="242.178876" xlink:href="#mb3ddde0f2a" y="169.999203"/>
     <use style="fill:#008000;stroke:#008000;" x="246.191461" xlink:href="#mb3ddde0f2a" y="170.286558"/>
     <use style="fill:#008000;stroke:#008000;" x="250.204045" xlink:href="#mb3ddde0f2a" y="170.373254"/>
     <use style="fill:#008000;stroke:#008000;" x="254.216629" xlink:href="#mb3ddde0f2a" y="168.055692"/>
     <use style="fill:#008000;stroke:#008000;" x="258.229213" xlink:href="#mb3ddde0f2a" y="171.40588"/>
     <use style="fill:#008000;stroke:#008000;" x="262.241798" xlink:href="#mb3ddde0f2a" y="172.072698"/>
     <use style="fill:#008000;stroke:#008000;" x="266.254382" xlink:href="#mb3ddde0f2a" y="171.220821"/>
     <use style="fill:#008000;stroke:#008000;" x="270.266966" xlink:href="#mb3ddde0f2a" y="171.244265"/>
     <use style="fill:#008000;stroke:#008000;" x="274.279551" xlink:href="#mb3ddde0f2a" y="170.418472"/>
     <use style="fill:#008000;stroke:#008000;" x="278.292135" xlink:href="#mb3ddde0f2a" y="170.130149"/>
     <use style="fill:#008000;stroke:#008000;" x="282.304719" xlink:href="#mb3ddde0f2a" y="170.559562"/>
     <use style="fill:#008000;stroke:#008000;" x="286.317303" xlink:href="#mb3ddde0f2a" y="170.488134"/>
     <use style="fill:#008000;stroke:#008000;" x="290.329888" xlink:href="#mb3ddde0f2a" y="169.924092"/>
     <use style="fill:#008000;stroke:#008000;" x="294.342472" xlink:href="#mb3ddde0f2a" y="170.438294"/>
     <use style="fill:#008000;stroke:#008000;" x="298.355056" xlink:href="#mb3ddde0f2a" y="170.442287"/>
     <use style="fill:#008000;stroke:#008000;" x="302.36764" xlink:href="#mb3ddde0f2a" y="170.579806"/>
     <use style="fill:#008000;stroke:#008000;" x="306.380225" xlink:href="#mb3ddde0f2a" y="170.50006"/>
     <use style="fill:#008000;stroke:#008000;" x="310.392809" xlink:href="#mb3ddde0f2a" y="170.480666"/>
     <use style="fill:#008000;stroke:#008000;" x="314.405393" xlink:href="#mb3ddde0f2a" y="171.834657"/>
     <use style="fill:#008000;stroke:#008000;" x="318.417978" xlink:href="#mb3ddde0f2a" y="172.223732"/>
     <use style="fill:#008000;stroke:#008000;" x="322.430562" xlink:href="#mb3ddde0f2a" y="168.405338"/>
     <use style="fill:#008000;stroke:#008000;" x="326.443146" xlink:href="#mb3ddde0f2a" y="169.209179"/>
     <use style="fill:#008000;stroke:#008000;" x="330.45573" xlink:href="#mb3ddde0f2a" y="171.449191"/>
     <use style="fill:#008000;stroke:#008000;" x="334.468315" xlink:href="#mb3ddde0f2a" y="170.73722"/>
     <use style="fill:#008000;stroke:#008000;" x="338.480899" xlink:href="#mb3ddde0f2a" y="169.523166"/>
     <use style="fill:#008000;stroke:#008000;" x="342.493483" xlink:href="#mb3ddde0f2a" y="170.190672"/>
     <use style="fill:#008000;stroke:#008000;" x="346.506067" xlink:href="#mb3ddde0f2a" y="170.328708"/>
     <use style="fill:#008000;stroke:#008000;" x="350.518652" xlink:href="#mb3ddde0f2a" y="170.382688"/>
     <use style="fill:#008000;stroke:#008000;" x="354.531236" xlink:href="#mb3ddde0f2a" y="168.641656"/>
     <use style="fill:#008000;stroke:#008000;" x="358.54382" xlink:href="#mb3ddde0f2a" y="170.165379"/>
     <use style="fill:#008000;stroke:#008000;" x="362.556404" xlink:href="#mb3ddde0f2a" y="169.703242"/>
     <use style="fill:#008000;stroke:#008000;" x="366.568989" xlink:href="#mb3ddde0f2a" y="169.78576"/>
     <use style="fill:#008000;stroke:#008000;" x="370.581573" xlink:href="#mb3ddde0f2a" y="170.788051"/>
     <use style="fill:#008000;stroke:#008000;" x="374.594157" xlink:href="#mb3ddde0f2a" y="170.770491"/>
     <use style="fill:#008000;stroke:#008000;" x="378.606742" xlink:href="#mb3ddde0f2a" y="170.708785"/>
     <use style="fill:#008000;stroke:#008000;" x="382.619326" xlink:href="#mb3ddde0f2a" y="168.995929"/>
     <use style="fill:#008000;stroke:#008000;" x="386.63191" xlink:href="#mb3ddde0f2a" y="168.600326"/>
     <use style="fill:#008000;stroke:#008000;" x="390.644494" xlink:href="#mb3ddde0f2a" y="168.749356"/>
     <use style="fill:#008000;stroke:#008000;" x="394.657079" xlink:href="#mb3ddde0f2a" y="169.047447"/>
     <use style="fill:#008000;stroke:#008000;" x="398.669663" xlink:href="#mb3ddde0f2a" y="168.636828"/>
     <use style="fill:#008000;stroke:#008000;" x="402.682247" xlink:href="#mb3ddde0f2a" y="168.40865"/>
     <use style="fill:#008000;stroke:#008000;" x="406.694831" xlink:href="#mb3ddde0f2a" y="169.027647"/>
     <use style="fill:#008000;stroke:#008000;" x="410.707416" xlink:href="#mb3ddde0f2a" y="168.946289"/>
    </g>
   </g>
   <g id="patch_3">
    <path d="M 57.6 307.584 
L 57.6 41.472 
" style="fill:none;stroke:#000000;stroke-linecap:square;stroke-linejoin:miter;stroke-width:0.8;"/>
   </g>
   <g id="patch_4">
    <path d="M 414.72 307.584 
L 414.72 41.472 
" style="fill:none;stroke:#000000;stroke-linecap:square;stroke-linejoin:miter;stroke-width:0.8;"/>
   </g>
   <g id="patch_5">
    <path d="M 57.6 307.584 
L 414.72 307.584 
" style="fill:none;stroke:#000000;stroke-linecap:square;stroke-linejoin:miter;stroke-width:0.8;"/>
   </g>
   <g id="patch_6">
    <path d="M 57.6 41.472 
L 414.72 41.472 
" style="fill:none;stroke:#000000;stroke-linecap:square;stroke-linejoin:miter;stroke-width:0.8;"/>
   </g>
   <g id="text_32">
    <!-- MKL iomp 2PV on pre_transpose3 -->
    <defs>
     <path d="M 9.8125 72.90625 
L 24.515625 72.90625 
L 43.109375 23.296875 
L 61.8125 72.90625 
L 76.515625 72.90625 
L 76.515625 0 
L 66.890625 0 
L 66.890625 64.015625 
L 48.09375 14.015625 
L 38.1875 14.015625 
L 19.390625 64.015625 
L 19.390625 0 
L 9.8125 0 
z
" id="DejaVuSans-77"/>
     <path d="M 9.8125 72.90625 
L 19.671875 72.90625 
L 19.671875 42.09375 
L 52.390625 72.90625 
L 65.09375 72.90625 
L 28.90625 38.921875 
L 67.671875 0 
L 54.6875 0 
L 19.671875 35.109375 
L 19.671875 0 
L 9.8125 0 
z
" id="DejaVuSans-75"/>
     <path d="M 9.8125 72.90625 
L 19.671875 72.90625 
L 19.671875 8.296875 
L 55.171875 8.296875 
L 55.171875 0 
L 9.8125 0 
z
" id="DejaVuSans-76"/>
     <path d="M 52 44.1875 
Q 55.375 50.25 60.0625 53.125 
Q 64.75 56 71.09375 56 
Q 79.640625 56 84.28125 50.015625 
Q 88.921875 44.046875 88.921875 33.015625 
L 88.921875 0 
L 79.890625 0 
L 79.890625 32.71875 
Q 79.890625 40.578125 77.09375 44.375 
Q 74.3125 48.1875 68.609375 48.1875 
Q 61.625 48.1875 57.5625 43.546875 
Q 53.515625 38.921875 53.515625 30.90625 
L 53.515625 0 
L 44.484375 0 
L 44.484375 32.71875 
Q 44.484375 40.625 41.703125 44.40625 
Q 38.921875 48.1875 33.109375 48.1875 
Q 26.21875 48.1875 22.15625 43.53125 
Q 18.109375 38.875 18.109375 30.90625 
L 18.109375 0 
L 9.078125 0 
L 9.078125 54.6875 
L 18.109375 54.6875 
L 18.109375 46.1875 
Q 21.1875 51.21875 25.484375 53.609375 
Q 29.78125 56 35.6875 56 
Q 41.65625 56 45.828125 52.96875 
Q 50 49.953125 52 44.1875 
z
" id="DejaVuSans-109"/>
     <path d="M 18.109375 8.203125 
L 18.109375 -20.796875 
L 9.078125 -20.796875 
L 9.078125 54.6875 
L 18.109375 54.6875 
L 18.109375 46.390625 
Q 20.953125 51.265625 25.265625 53.625 
Q 29.59375 56 35.59375 56 
Q 45.5625 56 51.78125 48.09375 
Q 58.015625 40.1875 58.015625 27.296875 
Q 58.015625 14.40625 51.78125 6.484375 
Q 45.5625 -1.421875 35.59375 -1.421875 
Q 29.59375 -1.421875 25.265625 0.953125 
Q 20.953125 3.328125 18.109375 8.203125 
z
M 48.6875 27.296875 
Q 48.6875 37.203125 44.609375 42.84375 
Q 40.53125 48.484375 33.40625 48.484375 
Q 26.265625 48.484375 22.1875 42.84375 
Q 18.109375 37.203125 18.109375 27.296875 
Q 18.109375 17.390625 22.1875 11.75 
Q 26.265625 6.109375 33.40625 6.109375 
Q 40.53125 6.109375 44.609375 11.75 
Q 48.6875 17.390625 48.6875 27.296875 
z
" id="DejaVuSans-112"/>
     <path d="M 19.671875 64.796875 
L 19.671875 37.40625 
L 32.078125 37.40625 
Q 38.96875 37.40625 42.71875 40.96875 
Q 46.484375 44.53125 46.484375 51.125 
Q 46.484375 57.671875 42.71875 61.234375 
Q 38.96875 64.796875 32.078125 64.796875 
z
M 9.8125 72.90625 
L 32.078125 72.90625 
Q 44.34375 72.90625 50.609375 67.359375 
Q 56.890625 61.8125 56.890625 51.125 
Q 56.890625 40.328125 50.609375 34.8125 
Q 44.34375 29.296875 32.078125 29.296875 
L 19.671875 29.296875 
L 19.671875 0 
L 9.8125 0 
z
" id="DejaVuSans-80"/>
     <path d="M 28.609375 0 
L 0.78125 72.90625 
L 11.078125 72.90625 
L 34.1875 11.53125 
L 57.328125 72.90625 
L 67.578125 72.90625 
L 39.796875 0 
z
" id="DejaVuSans-86"/>
     <path d="M 50.984375 -16.609375 
L 50.984375 -23.578125 
L -0.984375 -23.578125 
L -0.984375 -16.609375 
z
" id="DejaVuSans-95"/>
    </defs>
    <g transform="translate(135.70125 35.472)scale(0.12 -0.12)">
     <use xlink:href="#DejaVuSans-77"/>
     <use x="86.279297" xlink:href="#DejaVuSans-75"/>
     <use x="151.855469" xlink:href="#DejaVuSans-76"/>
     <use x="207.568359" xlink:href="#DejaVuSans-32"/>
     <use x="239.355469" xlink:href="#DejaVuSans-105"/>
     <use x="267.138672" xlink:href="#DejaVuSans-111"/>
     <use x="328.320312" xlink:href="#DejaVuSans-109"/>
     <use x="425.732422" xlink:href="#DejaVuSans-112"/>
     <use x="489.208984" xlink:href="#DejaVuSans-32"/>
     <use x="520.996094" xlink:href="#DejaVuSans-50"/>
     <use x="584.619141" xlink:href="#DejaVuSans-80"/>
     <use x="644.921875" xlink:href="#DejaVuSans-86"/>
     <use x="713.330078" xlink:href="#DejaVuSans-32"/>
     <use x="745.117188" xlink:href="#DejaVuSans-111"/>
     <use x="806.298828" xlink:href="#DejaVuSans-110"/>
     <use x="869.677734" xlink:href="#DejaVuSans-32"/>
     <use x="901.464844" xlink:href="#DejaVuSans-112"/>
     <use x="964.941406" xlink:href="#DejaVuSans-114"/>
     <use x="1003.804688" xlink:href="#DejaVuSans-101"/>
     <use x="1065.328125" xlink:href="#DejaVuSans-95"/>
     <use x="1115.328125" xlink:href="#DejaVuSans-116"/>
     <use x="1154.537109" xlink:href="#DejaVuSans-114"/>
     <use x="1195.650391" xlink:href="#DejaVuSans-97"/>
     <use x="1256.929688" xlink:href="#DejaVuSans-110"/>
     <use x="1320.308594" xlink:href="#DejaVuSans-115"/>
     <use x="1372.408203" xlink:href="#DejaVuSans-112"/>
     <use x="1435.884766" xlink:href="#DejaVuSans-111"/>
     <use x="1497.066406" xlink:href="#DejaVuSans-115"/>
     <use x="1549.166016" xlink:href="#DejaVuSans-101"/>
     <use x="1610.689453" xlink:href="#DejaVuSans-51"/>
    </g>
   </g>
   <g id="legend_1">
    <g id="patch_7">
     <path d="M 64.6 93.7845 
L 159.167188 93.7845 
Q 161.167188 93.7845 161.167188 91.7845 
L 161.167188 48.472 
Q 161.167188 46.472 159.167188 46.472 
L 64.6 46.472 
Q 62.6 46.472 62.6 48.472 
L 62.6 91.7845 
Q 62.6 93.7845 64.6 93.7845 
z
" style="fill:#ffffff;opacity:0.8;stroke:#cccccc;stroke-linejoin:miter;"/>
    </g>
    <g id="line2d_62">
     <path d="M 66.6 54.570438 
L 86.6 54.570438 
" style="fill:none;stroke:#0000ff;stroke-dasharray:1.5,2.475;stroke-dashoffset:0;stroke-width:1.5;"/>
    </g>
    <g id="line2d_63">
     <g>
      <use style="fill:#0000ff;stroke:#0000ff;" x="76.6" xlink:href="#m3b33467bd1" y="54.570438"/>
     </g>
    </g>
    <g id="text_33">
     <!-- transpose -->
     <g transform="translate(94.6 58.070438)scale(0.1 -0.1)">
      <use xlink:href="#DejaVuSans-116"/>
      <use x="39.208984" xlink:href="#DejaVuSans-114"/>
      <use x="80.322266" xlink:href="#DejaVuSans-97"/>
      <use x="141.601562" xlink:href="#DejaVuSans-110"/>
      <use x="204.980469" xlink:href="#DejaVuSans-115"/>
      <use x="257.080078" xlink:href="#DejaVuSans-112"/>
      <use x="320.556641" xlink:href="#DejaVuSans-111"/>
      <use x="381.738281" xlink:href="#DejaVuSans-115"/>
      <use x="433.837891" xlink:href="#DejaVuSans-101"/>
     </g>
    </g>
    <g id="line2d_64">
     <path d="M 66.6 69.248563 
L 86.6 69.248563 
" style="fill:none;stroke:#ff0000;stroke-dasharray:1.5,2.475;stroke-dashoffset:0;stroke-width:1.5;"/>
    </g>
    <g id="line2d_65">
     <g>
      <use style="fill:#ff0000;stroke:#ff0000;" x="76.6" xlink:href="#m753a8d1276" y="69.248563"/>
     </g>
    </g>
    <g id="text_34">
     <!-- transpose_tr -->
     <g transform="translate(94.6 72.748563)scale(0.1 -0.1)">
      <use xlink:href="#DejaVuSans-116"/>
      <use x="39.208984" xlink:href="#DejaVuSans-114"/>
      <use x="80.322266" xlink:href="#DejaVuSans-97"/>
      <use x="141.601562" xlink:href="#DejaVuSans-110"/>
      <use x="204.980469" xlink:href="#DejaVuSans-115"/>
      <use x="257.080078" xlink:href="#DejaVuSans-112"/>
      <use x="320.556641" xlink:href="#DejaVuSans-111"/>
      <use x="381.738281" xlink:href="#DejaVuSans-115"/>
      <use x="433.837891" xlink:href="#DejaVuSans-101"/>
      <use x="495.361328" xlink:href="#DejaVuSans-95"/>
      <use x="545.361328" xlink:href="#DejaVuSans-116"/>
      <use x="584.570312" xlink:href="#DejaVuSans-114"/>
     </g>
    </g>
    <g id="line2d_66">
     <path d="M 66.6 84.204813 
L 86.6 84.204813 
" style="fill:none;stroke:#008000;stroke-dasharray:1.5,2.475;stroke-dashoffset:0;stroke-width:1.5;"/>
    </g>
    <g id="line2d_67">
     <g>
      <use style="fill:#008000;stroke:#008000;" x="76.6" xlink:href="#mb3ddde0f2a" y="84.204813"/>
     </g>
    </g>
    <g id="text_35">
     <!-- mean -->
     <g transform="translate(94.6 87.704813)scale(0.1 -0.1)">
      <use xlink:href="#DejaVuSans-109"/>
      <use x="97.412109" xlink:href="#DejaVuSans-101"/>
      <use x="158.935547" xlink:href="#DejaVuSans-97"/>
      <use x="220.214844" xlink:href="#DejaVuSans-110"/>
     </g>
    </g>
   </g>
  </g>
 </g>
 <defs>
  <clipPath id="pee1e6eb091">
   <rect height="266.112" width="357.12" x="57.6" y="41.472"/>
  </clipPath>
 </defs>
</svg>
