<?xml version="1.0" encoding="utf-8" standalone="no"?>
<!DOCTYPE svg PUBLIC "-//W3C//DTD SVG 1.1//EN"
  "http://www.w3.org/Graphics/SVG/1.1/DTD/svg11.dtd">
<!-- Created with matplotlib (https://matplotlib.org/) -->
<svg height="345.6pt" version="1.1" viewBox="0 0 460.8 345.6" width="460.8pt" xmlns="http://www.w3.org/2000/svg" xmlns:xlink="http://www.w3.org/1999/xlink">
 <defs>
  <style type="text/css">
*{stroke-linecap:butt;stroke-linejoin:round;}
  </style>
 </defs>
 <g id="figure_1">
  <g id="patch_1">
   <path d="M 0 345.6 
L 460.8 345.6 
L 460.8 0 
L 0 0 
z
" style="fill:#ffffff;"/>
  </g>
  <g id="axes_1">
   <g id="patch_2">
    <path d="M 57.6 307.584 
L 414.72 307.584 
L 414.72 41.472 
L 57.6 41.472 
z
" style="fill:#ffffff;"/>
   </g>
   <g id="matplotlib.axis_1">
    <g id="xtick_1">
     <g id="line2d_1">
      <path clip-path="url(#p8c1f19c22a)" d="M 61.612584 307.584 
L 61.612584 41.472 
" style="fill:none;stroke:#b0b0b0;stroke-dasharray:5.12,1.28,0.8,1.28;stroke-dashoffset:0;stroke-width:0.8;"/>
     </g>
     <g id="line2d_2">
      <defs>
       <path d="M 0 0 
L 0 3.5 
" id="me9d3243995" style="stroke:#000000;stroke-width:0.8;"/>
      </defs>
      <g>
       <use style="stroke:#000000;stroke-width:0.8;" x="61.612584" xlink:href="#me9d3243995" y="307.584"/>
      </g>
     </g>
     <g id="text_1">
      <!-- 1 -->
      <defs>
       <path d="M 12.40625 8.296875 
L 28.515625 8.296875 
L 28.515625 63.921875 
L 10.984375 60.40625 
L 10.984375 69.390625 
L 28.421875 72.90625 
L 38.28125 72.90625 
L 38.28125 8.296875 
L 54.390625 8.296875 
L 54.390625 0 
L 12.40625 0 
z
" id="DejaVuSans-49"/>
      </defs>
      <g transform="translate(58.431334 322.182437)scale(0.1 -0.1)">
       <use xlink:href="#DejaVuSans-49"/>
      </g>
     </g>
    </g>
    <g id="xtick_2">
     <g id="line2d_3">
      <path clip-path="url(#p8c1f19c22a)" d="M 73.650337 307.584 
L 73.650337 41.472 
" style="fill:none;stroke:#b0b0b0;stroke-dasharray:5.12,1.28,0.8,1.28;stroke-dashoffset:0;stroke-width:0.8;"/>
     </g>
     <g id="line2d_4">
      <g>
       <use style="stroke:#000000;stroke-width:0.8;" x="73.650337" xlink:href="#me9d3243995" y="307.584"/>
      </g>
     </g>
     <g id="text_2">
      <!-- 4 -->
      <defs>
       <path d="M 37.796875 64.3125 
L 12.890625 25.390625 
L 37.796875 25.390625 
z
M 35.203125 72.90625 
L 47.609375 72.90625 
L 47.609375 25.390625 
L 58.015625 25.390625 
L 58.015625 17.1875 
L 47.609375 17.1875 
L 47.609375 0 
L 37.796875 0 
L 37.796875 17.1875 
L 4.890625 17.1875 
L 4.890625 26.703125 
z
" id="DejaVuSans-52"/>
      </defs>
      <g transform="translate(70.469087 322.182437)scale(0.1 -0.1)">
       <use xlink:href="#DejaVuSans-52"/>
      </g>
     </g>
    </g>
    <g id="xtick_3">
     <g id="line2d_5">
      <path clip-path="url(#p8c1f19c22a)" d="M 89.700674 307.584 
L 89.700674 41.472 
" style="fill:none;stroke:#b0b0b0;stroke-dasharray:5.12,1.28,0.8,1.28;stroke-dashoffset:0;stroke-width:0.8;"/>
     </g>
     <g id="line2d_6">
      <g>
       <use style="stroke:#000000;stroke-width:0.8;" x="89.700674" xlink:href="#me9d3243995" y="307.584"/>
      </g>
     </g>
     <g id="text_3">
      <!-- 8 -->
      <defs>
       <path d="M 31.78125 34.625 
Q 24.75 34.625 20.71875 30.859375 
Q 16.703125 27.09375 16.703125 20.515625 
Q 16.703125 13.921875 20.71875 10.15625 
Q 24.75 6.390625 31.78125 6.390625 
Q 38.8125 6.390625 42.859375 10.171875 
Q 46.921875 13.96875 46.921875 20.515625 
Q 46.921875 27.09375 42.890625 30.859375 
Q 38.875 34.625 31.78125 34.625 
z
M 21.921875 38.8125 
Q 15.578125 40.375 12.03125 44.71875 
Q 8.5 49.078125 8.5 55.328125 
Q 8.5 64.0625 14.71875 69.140625 
Q 20.953125 74.21875 31.78125 74.21875 
Q 42.671875 74.21875 48.875 69.140625 
Q 55.078125 64.0625 55.078125 55.328125 
Q 55.078125 49.078125 51.53125 44.71875 
Q 48 40.375 41.703125 38.8125 
Q 48.828125 37.15625 52.796875 32.3125 
Q 56.78125 27.484375 56.78125 20.515625 
Q 56.78125 9.90625 50.3125 4.234375 
Q 43.84375 -1.421875 31.78125 -1.421875 
Q 19.734375 -1.421875 13.25 4.234375 
Q 6.78125 9.90625 6.78125 20.515625 
Q 6.78125 27.484375 10.78125 32.3125 
Q 14.796875 37.15625 21.921875 38.8125 
z
M 18.3125 54.390625 
Q 18.3125 48.734375 21.84375 45.5625 
Q 25.390625 42.390625 31.78125 42.390625 
Q 38.140625 42.390625 41.71875 45.5625 
Q 45.3125 48.734375 45.3125 54.390625 
Q 45.3125 60.0625 41.71875 63.234375 
Q 38.140625 66.40625 31.78125 66.40625 
Q 25.390625 66.40625 21.84375 63.234375 
Q 18.3125 60.0625 18.3125 54.390625 
z
" id="DejaVuSans-56"/>
      </defs>
      <g transform="translate(86.519424 322.182437)scale(0.1 -0.1)">
       <use xlink:href="#DejaVuSans-56"/>
      </g>
     </g>
    </g>
    <g id="xtick_4">
     <g id="line2d_7">
      <path clip-path="url(#p8c1f19c22a)" d="M 105.751011 307.584 
L 105.751011 41.472 
" style="fill:none;stroke:#b0b0b0;stroke-dasharray:5.12,1.28,0.8,1.28;stroke-dashoffset:0;stroke-width:0.8;"/>
     </g>
     <g id="line2d_8">
      <g>
       <use style="stroke:#000000;stroke-width:0.8;" x="105.751011" xlink:href="#me9d3243995" y="307.584"/>
      </g>
     </g>
     <g id="text_4">
      <!-- 12 -->
      <defs>
       <path d="M 19.1875 8.296875 
L 53.609375 8.296875 
L 53.609375 0 
L 7.328125 0 
L 7.328125 8.296875 
Q 12.9375 14.109375 22.625 23.890625 
Q 32.328125 33.6875 34.8125 36.53125 
Q 39.546875 41.84375 41.421875 45.53125 
Q 43.3125 49.21875 43.3125 52.78125 
Q 43.3125 58.59375 39.234375 62.25 
Q 35.15625 65.921875 28.609375 65.921875 
Q 23.96875 65.921875 18.8125 64.3125 
Q 13.671875 62.703125 7.8125 59.421875 
L 7.8125 69.390625 
Q 13.765625 71.78125 18.9375 73 
Q 24.125 74.21875 28.421875 74.21875 
Q 39.75 74.21875 46.484375 68.546875 
Q 53.21875 62.890625 53.21875 53.421875 
Q 53.21875 48.921875 51.53125 44.890625 
Q 49.859375 40.875 45.40625 35.40625 
Q 44.1875 33.984375 37.640625 27.21875 
Q 31.109375 20.453125 19.1875 8.296875 
z
" id="DejaVuSans-50"/>
      </defs>
      <g transform="translate(99.388511 322.182437)scale(0.1 -0.1)">
       <use xlink:href="#DejaVuSans-49"/>
       <use x="63.623047" xlink:href="#DejaVuSans-50"/>
      </g>
     </g>
    </g>
    <g id="xtick_5">
     <g id="line2d_9">
      <path clip-path="url(#p8c1f19c22a)" d="M 121.801348 307.584 
L 121.801348 41.472 
" style="fill:none;stroke:#b0b0b0;stroke-dasharray:5.12,1.28,0.8,1.28;stroke-dashoffset:0;stroke-width:0.8;"/>
     </g>
     <g id="line2d_10">
      <g>
       <use style="stroke:#000000;stroke-width:0.8;" x="121.801348" xlink:href="#me9d3243995" y="307.584"/>
      </g>
     </g>
     <g id="text_5">
      <!-- 16 -->
      <defs>
       <path d="M 33.015625 40.375 
Q 26.375 40.375 22.484375 35.828125 
Q 18.609375 31.296875 18.609375 23.390625 
Q 18.609375 15.53125 22.484375 10.953125 
Q 26.375 6.390625 33.015625 6.390625 
Q 39.65625 6.390625 43.53125 10.953125 
Q 47.40625 15.53125 47.40625 23.390625 
Q 47.40625 31.296875 43.53125 35.828125 
Q 39.65625 40.375 33.015625 40.375 
z
M 52.59375 71.296875 
L 52.59375 62.3125 
Q 48.875 64.0625 45.09375 64.984375 
Q 41.3125 65.921875 37.59375 65.921875 
Q 27.828125 65.921875 22.671875 59.328125 
Q 17.53125 52.734375 16.796875 39.40625 
Q 19.671875 43.65625 24.015625 45.921875 
Q 28.375 48.1875 33.59375 48.1875 
Q 44.578125 48.1875 50.953125 41.515625 
Q 57.328125 34.859375 57.328125 23.390625 
Q 57.328125 12.15625 50.6875 5.359375 
Q 44.046875 -1.421875 33.015625 -1.421875 
Q 20.359375 -1.421875 13.671875 8.265625 
Q 6.984375 17.96875 6.984375 36.375 
Q 6.984375 53.65625 15.1875 63.9375 
Q 23.390625 74.21875 37.203125 74.21875 
Q 40.921875 74.21875 44.703125 73.484375 
Q 48.484375 72.75 52.59375 71.296875 
z
" id="DejaVuSans-54"/>
      </defs>
      <g transform="translate(115.438848 322.182437)scale(0.1 -0.1)">
       <use xlink:href="#DejaVuSans-49"/>
       <use x="63.623047" xlink:href="#DejaVuSans-54"/>
      </g>
     </g>
    </g>
    <g id="xtick_6">
     <g id="line2d_11">
      <path clip-path="url(#p8c1f19c22a)" d="M 137.851685 307.584 
L 137.851685 41.472 
" style="fill:none;stroke:#b0b0b0;stroke-dasharray:5.12,1.28,0.8,1.28;stroke-dashoffset:0;stroke-width:0.8;"/>
     </g>
     <g id="line2d_12">
      <g>
       <use style="stroke:#000000;stroke-width:0.8;" x="137.851685" xlink:href="#me9d3243995" y="307.584"/>
      </g>
     </g>
     <g id="text_6">
      <!-- 20 -->
      <defs>
       <path d="M 31.78125 66.40625 
Q 24.171875 66.40625 20.328125 58.90625 
Q 16.5 51.421875 16.5 36.375 
Q 16.5 21.390625 20.328125 13.890625 
Q 24.171875 6.390625 31.78125 6.390625 
Q 39.453125 6.390625 43.28125 13.890625 
Q 47.125 21.390625 47.125 36.375 
Q 47.125 51.421875 43.28125 58.90625 
Q 39.453125 66.40625 31.78125 66.40625 
z
M 31.78125 74.21875 
Q 44.046875 74.21875 50.515625 64.515625 
Q 56.984375 54.828125 56.984375 36.375 
Q 56.984375 17.96875 50.515625 8.265625 
Q 44.046875 -1.421875 31.78125 -1.421875 
Q 19.53125 -1.421875 13.0625 8.265625 
Q 6.59375 17.96875 6.59375 36.375 
Q 6.59375 54.828125 13.0625 64.515625 
Q 19.53125 74.21875 31.78125 74.21875 
z
" id="DejaVuSans-48"/>
      </defs>
      <g transform="translate(131.489185 322.182437)scale(0.1 -0.1)">
       <use xlink:href="#DejaVuSans-50"/>
       <use x="63.623047" xlink:href="#DejaVuSans-48"/>
      </g>
     </g>
    </g>
    <g id="xtick_7">
     <g id="line2d_13">
      <path clip-path="url(#p8c1f19c22a)" d="M 153.902022 307.584 
L 153.902022 41.472 
" style="fill:none;stroke:#b0b0b0;stroke-dasharray:5.12,1.28,0.8,1.28;stroke-dashoffset:0;stroke-width:0.8;"/>
     </g>
     <g id="line2d_14">
      <g>
       <use style="stroke:#000000;stroke-width:0.8;" x="153.902022" xlink:href="#me9d3243995" y="307.584"/>
      </g>
     </g>
     <g id="text_7">
      <!-- 24 -->
      <g transform="translate(147.539522 322.182437)scale(0.1 -0.1)">
       <use xlink:href="#DejaVuSans-50"/>
       <use x="63.623047" xlink:href="#DejaVuSans-52"/>
      </g>
     </g>
    </g>
    <g id="xtick_8">
     <g id="line2d_15">
      <path clip-path="url(#p8c1f19c22a)" d="M 169.95236 307.584 
L 169.95236 41.472 
" style="fill:none;stroke:#b0b0b0;stroke-dasharray:5.12,1.28,0.8,1.28;stroke-dashoffset:0;stroke-width:0.8;"/>
     </g>
     <g id="line2d_16">
      <g>
       <use style="stroke:#000000;stroke-width:0.8;" x="169.95236" xlink:href="#me9d3243995" y="307.584"/>
      </g>
     </g>
     <g id="text_8">
      <!-- 28 -->
      <g transform="translate(163.58986 322.182437)scale(0.1 -0.1)">
       <use xlink:href="#DejaVuSans-50"/>
       <use x="63.623047" xlink:href="#DejaVuSans-56"/>
      </g>
     </g>
    </g>
    <g id="xtick_9">
     <g id="line2d_17">
      <path clip-path="url(#p8c1f19c22a)" d="M 186.002697 307.584 
L 186.002697 41.472 
" style="fill:none;stroke:#b0b0b0;stroke-dasharray:5.12,1.28,0.8,1.28;stroke-dashoffset:0;stroke-width:0.8;"/>
     </g>
     <g id="line2d_18">
      <g>
       <use style="stroke:#000000;stroke-width:0.8;" x="186.002697" xlink:href="#me9d3243995" y="307.584"/>
      </g>
     </g>
     <g id="text_9">
      <!-- 32 -->
      <defs>
       <path d="M 40.578125 39.3125 
Q 47.65625 37.796875 51.625 33 
Q 55.609375 28.21875 55.609375 21.1875 
Q 55.609375 10.40625 48.1875 4.484375 
Q 40.765625 -1.421875 27.09375 -1.421875 
Q 22.515625 -1.421875 17.65625 -0.515625 
Q 12.796875 0.390625 7.625 2.203125 
L 7.625 11.71875 
Q 11.71875 9.328125 16.59375 8.109375 
Q 21.484375 6.890625 26.8125 6.890625 
Q 36.078125 6.890625 40.9375 10.546875 
Q 45.796875 14.203125 45.796875 21.1875 
Q 45.796875 27.640625 41.28125 31.265625 
Q 36.765625 34.90625 28.71875 34.90625 
L 20.21875 34.90625 
L 20.21875 43.015625 
L 29.109375 43.015625 
Q 36.375 43.015625 40.234375 45.921875 
Q 44.09375 48.828125 44.09375 54.296875 
Q 44.09375 59.90625 40.109375 62.90625 
Q 36.140625 65.921875 28.71875 65.921875 
Q 24.65625 65.921875 20.015625 65.03125 
Q 15.375 64.15625 9.8125 62.3125 
L 9.8125 71.09375 
Q 15.4375 72.65625 20.34375 73.4375 
Q 25.25 74.21875 29.59375 74.21875 
Q 40.828125 74.21875 47.359375 69.109375 
Q 53.90625 64.015625 53.90625 55.328125 
Q 53.90625 49.265625 50.4375 45.09375 
Q 46.96875 40.921875 40.578125 39.3125 
z
" id="DejaVuSans-51"/>
      </defs>
      <g transform="translate(179.640197 322.182437)scale(0.1 -0.1)">
       <use xlink:href="#DejaVuSans-51"/>
       <use x="63.623047" xlink:href="#DejaVuSans-50"/>
      </g>
     </g>
    </g>
    <g id="xtick_10">
     <g id="line2d_19">
      <path clip-path="url(#p8c1f19c22a)" d="M 202.053034 307.584 
L 202.053034 41.472 
" style="fill:none;stroke:#b0b0b0;stroke-dasharray:5.12,1.28,0.8,1.28;stroke-dashoffset:0;stroke-width:0.8;"/>
     </g>
     <g id="line2d_20">
      <g>
       <use style="stroke:#000000;stroke-width:0.8;" x="202.053034" xlink:href="#me9d3243995" y="307.584"/>
      </g>
     </g>
     <g id="text_10">
      <!-- 36 -->
      <g transform="translate(195.690534 322.182437)scale(0.1 -0.1)">
       <use xlink:href="#DejaVuSans-51"/>
       <use x="63.623047" xlink:href="#DejaVuSans-54"/>
      </g>
     </g>
    </g>
    <g id="xtick_11">
     <g id="line2d_21">
      <path clip-path="url(#p8c1f19c22a)" d="M 218.103371 307.584 
L 218.103371 41.472 
" style="fill:none;stroke:#b0b0b0;stroke-dasharray:5.12,1.28,0.8,1.28;stroke-dashoffset:0;stroke-width:0.8;"/>
     </g>
     <g id="line2d_22">
      <g>
       <use style="stroke:#000000;stroke-width:0.8;" x="218.103371" xlink:href="#me9d3243995" y="307.584"/>
      </g>
     </g>
     <g id="text_11">
      <!-- 40 -->
      <g transform="translate(211.740871 322.182437)scale(0.1 -0.1)">
       <use xlink:href="#DejaVuSans-52"/>
       <use x="63.623047" xlink:href="#DejaVuSans-48"/>
      </g>
     </g>
    </g>
    <g id="xtick_12">
     <g id="line2d_23">
      <path clip-path="url(#p8c1f19c22a)" d="M 234.153708 307.584 
L 234.153708 41.472 
" style="fill:none;stroke:#b0b0b0;stroke-dasharray:5.12,1.28,0.8,1.28;stroke-dashoffset:0;stroke-width:0.8;"/>
     </g>
     <g id="line2d_24">
      <g>
       <use style="stroke:#000000;stroke-width:0.8;" x="234.153708" xlink:href="#me9d3243995" y="307.584"/>
      </g>
     </g>
     <g id="text_12">
      <!-- 44 -->
      <g transform="translate(227.791208 322.182437)scale(0.1 -0.1)">
       <use xlink:href="#DejaVuSans-52"/>
       <use x="63.623047" xlink:href="#DejaVuSans-52"/>
      </g>
     </g>
    </g>
    <g id="xtick_13">
     <g id="line2d_25">
      <path clip-path="url(#p8c1f19c22a)" d="M 250.204045 307.584 
L 250.204045 41.472 
" style="fill:none;stroke:#b0b0b0;stroke-dasharray:5.12,1.28,0.8,1.28;stroke-dashoffset:0;stroke-width:0.8;"/>
     </g>
     <g id="line2d_26">
      <g>
       <use style="stroke:#000000;stroke-width:0.8;" x="250.204045" xlink:href="#me9d3243995" y="307.584"/>
      </g>
     </g>
     <g id="text_13">
      <!-- 48 -->
      <g transform="translate(243.841545 322.182437)scale(0.1 -0.1)">
       <use xlink:href="#DejaVuSans-52"/>
       <use x="63.623047" xlink:href="#DejaVuSans-56"/>
      </g>
     </g>
    </g>
    <g id="xtick_14">
     <g id="line2d_27">
      <path clip-path="url(#p8c1f19c22a)" d="M 266.254382 307.584 
L 266.254382 41.472 
" style="fill:none;stroke:#b0b0b0;stroke-dasharray:5.12,1.28,0.8,1.28;stroke-dashoffset:0;stroke-width:0.8;"/>
     </g>
     <g id="line2d_28">
      <g>
       <use style="stroke:#000000;stroke-width:0.8;" x="266.254382" xlink:href="#me9d3243995" y="307.584"/>
      </g>
     </g>
     <g id="text_14">
      <!-- 52 -->
      <defs>
       <path d="M 10.796875 72.90625 
L 49.515625 72.90625 
L 49.515625 64.59375 
L 19.828125 64.59375 
L 19.828125 46.734375 
Q 21.96875 47.46875 24.109375 47.828125 
Q 26.265625 48.1875 28.421875 48.1875 
Q 40.625 48.1875 47.75 41.5 
Q 54.890625 34.8125 54.890625 23.390625 
Q 54.890625 11.625 47.5625 5.09375 
Q 40.234375 -1.421875 26.90625 -1.421875 
Q 22.3125 -1.421875 17.546875 -0.640625 
Q 12.796875 0.140625 7.71875 1.703125 
L 7.71875 11.625 
Q 12.109375 9.234375 16.796875 8.0625 
Q 21.484375 6.890625 26.703125 6.890625 
Q 35.15625 6.890625 40.078125 11.328125 
Q 45.015625 15.765625 45.015625 23.390625 
Q 45.015625 31 40.078125 35.4375 
Q 35.15625 39.890625 26.703125 39.890625 
Q 22.75 39.890625 18.8125 39.015625 
Q 14.890625 38.140625 10.796875 36.28125 
z
" id="DejaVuSans-53"/>
      </defs>
      <g transform="translate(259.891882 322.182437)scale(0.1 -0.1)">
       <use xlink:href="#DejaVuSans-53"/>
       <use x="63.623047" xlink:href="#DejaVuSans-50"/>
      </g>
     </g>
    </g>
    <g id="xtick_15">
     <g id="line2d_29">
      <path clip-path="url(#p8c1f19c22a)" d="M 282.304719 307.584 
L 282.304719 41.472 
" style="fill:none;stroke:#b0b0b0;stroke-dasharray:5.12,1.28,0.8,1.28;stroke-dashoffset:0;stroke-width:0.8;"/>
     </g>
     <g id="line2d_30">
      <g>
       <use style="stroke:#000000;stroke-width:0.8;" x="282.304719" xlink:href="#me9d3243995" y="307.584"/>
      </g>
     </g>
     <g id="text_15">
      <!-- 56 -->
      <g transform="translate(275.942219 322.182437)scale(0.1 -0.1)">
       <use xlink:href="#DejaVuSans-53"/>
       <use x="63.623047" xlink:href="#DejaVuSans-54"/>
      </g>
     </g>
    </g>
    <g id="xtick_16">
     <g id="line2d_31">
      <path clip-path="url(#p8c1f19c22a)" d="M 298.355056 307.584 
L 298.355056 41.472 
" style="fill:none;stroke:#b0b0b0;stroke-dasharray:5.12,1.28,0.8,1.28;stroke-dashoffset:0;stroke-width:0.8;"/>
     </g>
     <g id="line2d_32">
      <g>
       <use style="stroke:#000000;stroke-width:0.8;" x="298.355056" xlink:href="#me9d3243995" y="307.584"/>
      </g>
     </g>
     <g id="text_16">
      <!-- 60 -->
      <g transform="translate(291.992556 322.182437)scale(0.1 -0.1)">
       <use xlink:href="#DejaVuSans-54"/>
       <use x="63.623047" xlink:href="#DejaVuSans-48"/>
      </g>
     </g>
    </g>
    <g id="xtick_17">
     <g id="line2d_33">
      <path clip-path="url(#p8c1f19c22a)" d="M 314.405393 307.584 
L 314.405393 41.472 
" style="fill:none;stroke:#b0b0b0;stroke-dasharray:5.12,1.28,0.8,1.28;stroke-dashoffset:0;stroke-width:0.8;"/>
     </g>
     <g id="line2d_34">
      <g>
       <use style="stroke:#000000;stroke-width:0.8;" x="314.405393" xlink:href="#me9d3243995" y="307.584"/>
      </g>
     </g>
     <g id="text_17">
      <!-- 64 -->
      <g transform="translate(308.042893 322.182437)scale(0.1 -0.1)">
       <use xlink:href="#DejaVuSans-54"/>
       <use x="63.623047" xlink:href="#DejaVuSans-52"/>
      </g>
     </g>
    </g>
    <g id="xtick_18">
     <g id="line2d_35">
      <path clip-path="url(#p8c1f19c22a)" d="M 330.45573 307.584 
L 330.45573 41.472 
" style="fill:none;stroke:#b0b0b0;stroke-dasharray:5.12,1.28,0.8,1.28;stroke-dashoffset:0;stroke-width:0.8;"/>
     </g>
     <g id="line2d_36">
      <g>
       <use style="stroke:#000000;stroke-width:0.8;" x="330.45573" xlink:href="#me9d3243995" y="307.584"/>
      </g>
     </g>
     <g id="text_18">
      <!-- 68 -->
      <g transform="translate(324.09323 322.182437)scale(0.1 -0.1)">
       <use xlink:href="#DejaVuSans-54"/>
       <use x="63.623047" xlink:href="#DejaVuSans-56"/>
      </g>
     </g>
    </g>
    <g id="xtick_19">
     <g id="line2d_37">
      <path clip-path="url(#p8c1f19c22a)" d="M 346.506067 307.584 
L 346.506067 41.472 
" style="fill:none;stroke:#b0b0b0;stroke-dasharray:5.12,1.28,0.8,1.28;stroke-dashoffset:0;stroke-width:0.8;"/>
     </g>
     <g id="line2d_38">
      <g>
       <use style="stroke:#000000;stroke-width:0.8;" x="346.506067" xlink:href="#me9d3243995" y="307.584"/>
      </g>
     </g>
     <g id="text_19">
      <!-- 72 -->
      <defs>
       <path d="M 8.203125 72.90625 
L 55.078125 72.90625 
L 55.078125 68.703125 
L 28.609375 0 
L 18.3125 0 
L 43.21875 64.59375 
L 8.203125 64.59375 
z
" id="DejaVuSans-55"/>
      </defs>
      <g transform="translate(340.143567 322.182437)scale(0.1 -0.1)">
       <use xlink:href="#DejaVuSans-55"/>
       <use x="63.623047" xlink:href="#DejaVuSans-50"/>
      </g>
     </g>
    </g>
    <g id="xtick_20">
     <g id="line2d_39">
      <path clip-path="url(#p8c1f19c22a)" d="M 362.556404 307.584 
L 362.556404 41.472 
" style="fill:none;stroke:#b0b0b0;stroke-dasharray:5.12,1.28,0.8,1.28;stroke-dashoffset:0;stroke-width:0.8;"/>
     </g>
     <g id="line2d_40">
      <g>
       <use style="stroke:#000000;stroke-width:0.8;" x="362.556404" xlink:href="#me9d3243995" y="307.584"/>
      </g>
     </g>
     <g id="text_20">
      <!-- 76 -->
      <g transform="translate(356.193904 322.182437)scale(0.1 -0.1)">
       <use xlink:href="#DejaVuSans-55"/>
       <use x="63.623047" xlink:href="#DejaVuSans-54"/>
      </g>
     </g>
    </g>
    <g id="xtick_21">
     <g id="line2d_41">
      <path clip-path="url(#p8c1f19c22a)" d="M 378.606742 307.584 
L 378.606742 41.472 
" style="fill:none;stroke:#b0b0b0;stroke-dasharray:5.12,1.28,0.8,1.28;stroke-dashoffset:0;stroke-width:0.8;"/>
     </g>
     <g id="line2d_42">
      <g>
       <use style="stroke:#000000;stroke-width:0.8;" x="378.606742" xlink:href="#me9d3243995" y="307.584"/>
      </g>
     </g>
     <g id="text_21">
      <!-- 80 -->
      <g transform="translate(372.244242 322.182437)scale(0.1 -0.1)">
       <use xlink:href="#DejaVuSans-56"/>
       <use x="63.623047" xlink:href="#DejaVuSans-48"/>
      </g>
     </g>
    </g>
    <g id="xtick_22">
     <g id="line2d_43">
      <path clip-path="url(#p8c1f19c22a)" d="M 394.657079 307.584 
L 394.657079 41.472 
" style="fill:none;stroke:#b0b0b0;stroke-dasharray:5.12,1.28,0.8,1.28;stroke-dashoffset:0;stroke-width:0.8;"/>
     </g>
     <g id="line2d_44">
      <g>
       <use style="stroke:#000000;stroke-width:0.8;" x="394.657079" xlink:href="#me9d3243995" y="307.584"/>
      </g>
     </g>
     <g id="text_22">
      <!-- 84 -->
      <g transform="translate(388.294579 322.182437)scale(0.1 -0.1)">
       <use xlink:href="#DejaVuSans-56"/>
       <use x="63.623047" xlink:href="#DejaVuSans-52"/>
      </g>
     </g>
    </g>
    <g id="xtick_23">
     <g id="line2d_45">
      <path clip-path="url(#p8c1f19c22a)" d="M 410.707416 307.584 
L 410.707416 41.472 
" style="fill:none;stroke:#b0b0b0;stroke-dasharray:5.12,1.28,0.8,1.28;stroke-dashoffset:0;stroke-width:0.8;"/>
     </g>
     <g id="line2d_46">
      <g>
       <use style="stroke:#000000;stroke-width:0.8;" x="410.707416" xlink:href="#me9d3243995" y="307.584"/>
      </g>
     </g>
     <g id="text_23">
      <!-- 88 -->
      <g transform="translate(404.344916 322.182437)scale(0.1 -0.1)">
       <use xlink:href="#DejaVuSans-56"/>
       <use x="63.623047" xlink:href="#DejaVuSans-56"/>
      </g>
     </g>
    </g>
    <g id="text_24">
     <!-- threads -->
     <defs>
      <path d="M 18.3125 70.21875 
L 18.3125 54.6875 
L 36.8125 54.6875 
L 36.8125 47.703125 
L 18.3125 47.703125 
L 18.3125 18.015625 
Q 18.3125 11.328125 20.140625 9.421875 
Q 21.96875 7.515625 27.59375 7.515625 
L 36.8125 7.515625 
L 36.8125 0 
L 27.59375 0 
Q 17.1875 0 13.234375 3.875 
Q 9.28125 7.765625 9.28125 18.015625 
L 9.28125 47.703125 
L 2.6875 47.703125 
L 2.6875 54.6875 
L 9.28125 54.6875 
L 9.28125 70.21875 
z
" id="DejaVuSans-116"/>
      <path d="M 54.890625 33.015625 
L 54.890625 0 
L 45.90625 0 
L 45.90625 32.71875 
Q 45.90625 40.484375 42.875 44.328125 
Q 39.84375 48.1875 33.796875 48.1875 
Q 26.515625 48.1875 22.3125 43.546875 
Q 18.109375 38.921875 18.109375 30.90625 
L 18.109375 0 
L 9.078125 0 
L 9.078125 75.984375 
L 18.109375 75.984375 
L 18.109375 46.1875 
Q 21.34375 51.125 25.703125 53.5625 
Q 30.078125 56 35.796875 56 
Q 45.21875 56 50.046875 50.171875 
Q 54.890625 44.34375 54.890625 33.015625 
z
" id="DejaVuSans-104"/>
      <path d="M 41.109375 46.296875 
Q 39.59375 47.171875 37.8125 47.578125 
Q 36.03125 48 33.890625 48 
Q 26.265625 48 22.1875 43.046875 
Q 18.109375 38.09375 18.109375 28.8125 
L 18.109375 0 
L 9.078125 0 
L 9.078125 54.6875 
L 18.109375 54.6875 
L 18.109375 46.1875 
Q 20.953125 51.171875 25.484375 53.578125 
Q 30.03125 56 36.53125 56 
Q 37.453125 56 38.578125 55.875 
Q 39.703125 55.765625 41.0625 55.515625 
z
" id="DejaVuSans-114"/>
      <path d="M 56.203125 29.59375 
L 56.203125 25.203125 
L 14.890625 25.203125 
Q 15.484375 15.921875 20.484375 11.0625 
Q 25.484375 6.203125 34.421875 6.203125 
Q 39.59375 6.203125 44.453125 7.46875 
Q 49.3125 8.734375 54.109375 11.28125 
L 54.109375 2.78125 
Q 49.265625 0.734375 44.1875 -0.34375 
Q 39.109375 -1.421875 33.890625 -1.421875 
Q 20.796875 -1.421875 13.15625 6.1875 
Q 5.515625 13.8125 5.515625 26.8125 
Q 5.515625 40.234375 12.765625 48.109375 
Q 20.015625 56 32.328125 56 
Q 43.359375 56 49.78125 48.890625 
Q 56.203125 41.796875 56.203125 29.59375 
z
M 47.21875 32.234375 
Q 47.125 39.59375 43.09375 43.984375 
Q 39.0625 48.390625 32.421875 48.390625 
Q 24.90625 48.390625 20.390625 44.140625 
Q 15.875 39.890625 15.1875 32.171875 
z
" id="DejaVuSans-101"/>
      <path d="M 34.28125 27.484375 
Q 23.390625 27.484375 19.1875 25 
Q 14.984375 22.515625 14.984375 16.5 
Q 14.984375 11.71875 18.140625 8.90625 
Q 21.296875 6.109375 26.703125 6.109375 
Q 34.1875 6.109375 38.703125 11.40625 
Q 43.21875 16.703125 43.21875 25.484375 
L 43.21875 27.484375 
z
M 52.203125 31.203125 
L 52.203125 0 
L 43.21875 0 
L 43.21875 8.296875 
Q 40.140625 3.328125 35.546875 0.953125 
Q 30.953125 -1.421875 24.3125 -1.421875 
Q 15.921875 -1.421875 10.953125 3.296875 
Q 6 8.015625 6 15.921875 
Q 6 25.140625 12.171875 29.828125 
Q 18.359375 34.515625 30.609375 34.515625 
L 43.21875 34.515625 
L 43.21875 35.40625 
Q 43.21875 41.609375 39.140625 45 
Q 35.0625 48.390625 27.6875 48.390625 
Q 23 48.390625 18.546875 47.265625 
Q 14.109375 46.140625 10.015625 43.890625 
L 10.015625 52.203125 
Q 14.9375 54.109375 19.578125 55.046875 
Q 24.21875 56 28.609375 56 
Q 40.484375 56 46.34375 49.84375 
Q 52.203125 43.703125 52.203125 31.203125 
z
" id="DejaVuSans-97"/>
      <path d="M 45.40625 46.390625 
L 45.40625 75.984375 
L 54.390625 75.984375 
L 54.390625 0 
L 45.40625 0 
L 45.40625 8.203125 
Q 42.578125 3.328125 38.25 0.953125 
Q 33.9375 -1.421875 27.875 -1.421875 
Q 17.96875 -1.421875 11.734375 6.484375 
Q 5.515625 14.40625 5.515625 27.296875 
Q 5.515625 40.1875 11.734375 48.09375 
Q 17.96875 56 27.875 56 
Q 33.9375 56 38.25 53.625 
Q 42.578125 51.265625 45.40625 46.390625 
z
M 14.796875 27.296875 
Q 14.796875 17.390625 18.875 11.75 
Q 22.953125 6.109375 30.078125 6.109375 
Q 37.203125 6.109375 41.296875 11.75 
Q 45.40625 17.390625 45.40625 27.296875 
Q 45.40625 37.203125 41.296875 42.84375 
Q 37.203125 48.484375 30.078125 48.484375 
Q 22.953125 48.484375 18.875 42.84375 
Q 14.796875 37.203125 14.796875 27.296875 
z
" id="DejaVuSans-100"/>
      <path d="M 44.28125 53.078125 
L 44.28125 44.578125 
Q 40.484375 46.53125 36.375 47.5 
Q 32.28125 48.484375 27.875 48.484375 
Q 21.1875 48.484375 17.84375 46.4375 
Q 14.5 44.390625 14.5 40.28125 
Q 14.5 37.15625 16.890625 35.375 
Q 19.28125 33.59375 26.515625 31.984375 
L 29.59375 31.296875 
Q 39.15625 29.25 43.1875 25.515625 
Q 47.21875 21.78125 47.21875 15.09375 
Q 47.21875 7.46875 41.1875 3.015625 
Q 35.15625 -1.421875 24.609375 -1.421875 
Q 20.21875 -1.421875 15.453125 -0.5625 
Q 10.6875 0.296875 5.421875 2 
L 5.421875 11.28125 
Q 10.40625 8.6875 15.234375 7.390625 
Q 20.0625 6.109375 24.8125 6.109375 
Q 31.15625 6.109375 34.5625 8.28125 
Q 37.984375 10.453125 37.984375 14.40625 
Q 37.984375 18.0625 35.515625 20.015625 
Q 33.0625 21.96875 24.703125 23.78125 
L 21.578125 24.515625 
Q 13.234375 26.265625 9.515625 29.90625 
Q 5.8125 33.546875 5.8125 39.890625 
Q 5.8125 47.609375 11.28125 51.796875 
Q 16.75 56 26.8125 56 
Q 31.78125 56 36.171875 55.265625 
Q 40.578125 54.546875 44.28125 53.078125 
z
" id="DejaVuSans-115"/>
     </defs>
     <g transform="translate(217.168594 335.860562)scale(0.1 -0.1)">
      <use xlink:href="#DejaVuSans-116"/>
      <use x="39.208984" xlink:href="#DejaVuSans-104"/>
      <use x="102.587891" xlink:href="#DejaVuSans-114"/>
      <use x="141.451172" xlink:href="#DejaVuSans-101"/>
      <use x="202.974609" xlink:href="#DejaVuSans-97"/>
      <use x="264.253906" xlink:href="#DejaVuSans-100"/>
      <use x="327.730469" xlink:href="#DejaVuSans-115"/>
     </g>
    </g>
   </g>
   <g id="matplotlib.axis_2">
    <g id="ytick_1">
     <g id="line2d_47">
      <path clip-path="url(#p8c1f19c22a)" d="M 57.6 273.364075 
L 414.72 273.364075 
" style="fill:none;stroke:#b0b0b0;stroke-dasharray:5.12,1.28,0.8,1.28;stroke-dashoffset:0;stroke-width:0.8;"/>
     </g>
     <g id="line2d_48">
      <defs>
       <path d="M 0 0 
L -3.5 0 
" id="m3360f58ac6" style="stroke:#000000;stroke-width:0.8;"/>
      </defs>
      <g>
       <use style="stroke:#000000;stroke-width:0.8;" x="57.6" xlink:href="#m3360f58ac6" y="273.364075"/>
      </g>
     </g>
     <g id="text_25">
      <!-- 1.0 -->
      <defs>
       <path d="M 10.6875 12.40625 
L 21 12.40625 
L 21 0 
L 10.6875 0 
z
" id="DejaVuSans-46"/>
      </defs>
      <g transform="translate(34.696875 277.163293)scale(0.1 -0.1)">
       <use xlink:href="#DejaVuSans-49"/>
       <use x="63.623047" xlink:href="#DejaVuSans-46"/>
       <use x="95.410156" xlink:href="#DejaVuSans-48"/>
      </g>
     </g>
    </g>
    <g id="ytick_2">
     <g id="line2d_49">
      <path clip-path="url(#p8c1f19c22a)" d="M 57.6 222.09384 
L 414.72 222.09384 
" style="fill:none;stroke:#b0b0b0;stroke-dasharray:5.12,1.28,0.8,1.28;stroke-dashoffset:0;stroke-width:0.8;"/>
     </g>
     <g id="line2d_50">
      <g>
       <use style="stroke:#000000;stroke-width:0.8;" x="57.6" xlink:href="#m3360f58ac6" y="222.09384"/>
      </g>
     </g>
     <g id="text_26">
      <!-- 1.5 -->
      <g transform="translate(34.696875 225.893059)scale(0.1 -0.1)">
       <use xlink:href="#DejaVuSans-49"/>
       <use x="63.623047" xlink:href="#DejaVuSans-46"/>
       <use x="95.410156" xlink:href="#DejaVuSans-53"/>
      </g>
     </g>
    </g>
    <g id="ytick_3">
     <g id="line2d_51">
      <path clip-path="url(#p8c1f19c22a)" d="M 57.6 170.823606 
L 414.72 170.823606 
" style="fill:none;stroke:#b0b0b0;stroke-dasharray:5.12,1.28,0.8,1.28;stroke-dashoffset:0;stroke-width:0.8;"/>
     </g>
     <g id="line2d_52">
      <g>
       <use style="stroke:#000000;stroke-width:0.8;" x="57.6" xlink:href="#m3360f58ac6" y="170.823606"/>
      </g>
     </g>
     <g id="text_27">
      <!-- 2.0 -->
      <g transform="translate(34.696875 174.622825)scale(0.1 -0.1)">
       <use xlink:href="#DejaVuSans-50"/>
       <use x="63.623047" xlink:href="#DejaVuSans-46"/>
       <use x="95.410156" xlink:href="#DejaVuSans-48"/>
      </g>
     </g>
    </g>
    <g id="ytick_4">
     <g id="line2d_53">
      <path clip-path="url(#p8c1f19c22a)" d="M 57.6 119.553372 
L 414.72 119.553372 
" style="fill:none;stroke:#b0b0b0;stroke-dasharray:5.12,1.28,0.8,1.28;stroke-dashoffset:0;stroke-width:0.8;"/>
     </g>
     <g id="line2d_54">
      <g>
       <use style="stroke:#000000;stroke-width:0.8;" x="57.6" xlink:href="#m3360f58ac6" y="119.553372"/>
      </g>
     </g>
     <g id="text_28">
      <!-- 2.5 -->
      <g transform="translate(34.696875 123.352591)scale(0.1 -0.1)">
       <use xlink:href="#DejaVuSans-50"/>
       <use x="63.623047" xlink:href="#DejaVuSans-46"/>
       <use x="95.410156" xlink:href="#DejaVuSans-53"/>
      </g>
     </g>
    </g>
    <g id="ytick_5">
     <g id="line2d_55">
      <path clip-path="url(#p8c1f19c22a)" d="M 57.6 68.283137 
L 414.72 68.283137 
" style="fill:none;stroke:#b0b0b0;stroke-dasharray:5.12,1.28,0.8,1.28;stroke-dashoffset:0;stroke-width:0.8;"/>
     </g>
     <g id="line2d_56">
      <g>
       <use style="stroke:#000000;stroke-width:0.8;" x="57.6" xlink:href="#m3360f58ac6" y="68.283137"/>
      </g>
     </g>
     <g id="text_29">
      <!-- 3.0 -->
      <g transform="translate(34.696875 72.082356)scale(0.1 -0.1)">
       <use xlink:href="#DejaVuSans-51"/>
       <use x="63.623047" xlink:href="#DejaVuSans-46"/>
       <use x="95.410156" xlink:href="#DejaVuSans-48"/>
      </g>
     </g>
    </g>
    <g id="text_30">
     <!-- speed up -->
     <defs>
      <path d="M 18.109375 8.203125 
L 18.109375 -20.796875 
L 9.078125 -20.796875 
L 9.078125 54.6875 
L 18.109375 54.6875 
L 18.109375 46.390625 
Q 20.953125 51.265625 25.265625 53.625 
Q 29.59375 56 35.59375 56 
Q 45.5625 56 51.78125 48.09375 
Q 58.015625 40.1875 58.015625 27.296875 
Q 58.015625 14.40625 51.78125 6.484375 
Q 45.5625 -1.421875 35.59375 -1.421875 
Q 29.59375 -1.421875 25.265625 0.953125 
Q 20.953125 3.328125 18.109375 8.203125 
z
M 48.6875 27.296875 
Q 48.6875 37.203125 44.609375 42.84375 
Q 40.53125 48.484375 33.40625 48.484375 
Q 26.265625 48.484375 22.1875 42.84375 
Q 18.109375 37.203125 18.109375 27.296875 
Q 18.109375 17.390625 22.1875 11.75 
Q 26.265625 6.109375 33.40625 6.109375 
Q 40.53125 6.109375 44.609375 11.75 
Q 48.6875 17.390625 48.6875 27.296875 
z
" id="DejaVuSans-112"/>
      <path id="DejaVuSans-32"/>
      <path d="M 8.5 21.578125 
L 8.5 54.6875 
L 17.484375 54.6875 
L 17.484375 21.921875 
Q 17.484375 14.15625 20.5 10.265625 
Q 23.53125 6.390625 29.59375 6.390625 
Q 36.859375 6.390625 41.078125 11.03125 
Q 45.3125 15.671875 45.3125 23.6875 
L 45.3125 54.6875 
L 54.296875 54.6875 
L 54.296875 0 
L 45.3125 0 
L 45.3125 8.40625 
Q 42.046875 3.421875 37.71875 1 
Q 33.40625 -1.421875 27.6875 -1.421875 
Q 18.265625 -1.421875 13.375 4.4375 
Q 8.5 10.296875 8.5 21.578125 
z
M 31.109375 56 
z
" id="DejaVuSans-117"/>
     </defs>
     <g transform="translate(28.617187 197.566281)rotate(-90)scale(0.1 -0.1)">
      <use xlink:href="#DejaVuSans-115"/>
      <use x="52.099609" xlink:href="#DejaVuSans-112"/>
      <use x="115.576172" xlink:href="#DejaVuSans-101"/>
      <use x="177.099609" xlink:href="#DejaVuSans-101"/>
      <use x="238.623047" xlink:href="#DejaVuSans-100"/>
      <use x="302.099609" xlink:href="#DejaVuSans-32"/>
      <use x="333.886719" xlink:href="#DejaVuSans-117"/>
      <use x="397.265625" xlink:href="#DejaVuSans-112"/>
     </g>
    </g>
   </g>
   <g id="line2d_57">
    <path clip-path="url(#p8c1f19c22a)" d="M 61.612584 279.144764 
L 65.625169 240.888565 
L 69.637753 206.030313 
L 73.650337 175.998203 
L 77.662921 154.2906 
L 81.675506 137.166865 
L 85.68809 125.608206 
L 89.700674 106.321418 
L 93.713258 94.227107 
L 97.725843 85.774638 
L 101.738427 86.941665 
L 105.751011 77.225508 
L 109.763596 72.895737 
L 113.77618 72.338569 
L 117.788764 67.023693 
L 121.801348 73.582449 
L 125.813933 70.299647 
L 129.826517 68.706145 
L 133.839101 72.158129 
L 137.851685 70.433676 
L 141.86427 62.947061 
L 145.876854 53.568 
L 149.889438 63.383895 
L 153.902022 64.338506 
L 157.914607 70.150087 
L 161.927191 74.688601 
L 165.939775 73.101609 
L 169.95236 75.939209 
L 173.964944 80.207822 
L 177.977528 74.917257 
L 181.990112 81.107497 
L 186.002697 89.330714 
L 190.015281 87.368257 
L 194.027865 84.777359 
L 198.040449 90.050197 
L 202.053034 89.870158 
L 206.065618 93.641311 
L 210.078202 91.444789 
L 214.090787 100.920972 
L 218.103371 93.200471 
L 222.115955 95.492852 
L 226.128539 96.026173 
L 230.141124 99.727415 
L 234.153708 94.622723 
L 238.166292 95.335384 
L 242.178876 95.61766 
L 246.191461 94.52742 
L 250.204045 93.773649 
L 254.216629 93.998413 
L 258.229213 98.25352 
L 262.241798 101.736534 
L 266.254382 97.364196 
L 270.266966 98.270933 
L 274.279551 96.430046 
L 278.292135 95.771197 
L 282.304719 94.701381 
L 286.317303 95.606358 
L 290.329888 96.338167 
L 294.342472 95.315614 
L 298.355056 95.578676 
L 302.36764 95.257495 
L 306.380225 99.48655 
L 310.392809 104.862092 
L 314.405393 96.064951 
L 318.417978 100.939769 
L 322.430562 99.494923 
L 326.443146 98.84142 
L 330.45573 96.137454 
L 334.468315 102.227441 
L 338.480899 104.25874 
L 342.493483 98.871561 
L 346.506067 86.939575 
L 350.518652 100.767904 
L 354.531236 112.841982 
L 358.54382 102.524072 
L 362.556404 103.637511 
L 366.568989 101.871564 
L 370.581573 93.334702 
L 374.594157 90.562452 
L 378.606742 88.072544 
L 382.619326 95.496523 
L 386.63191 106.425596 
L 390.644494 113.697916 
L 394.657079 115.796801 
L 398.669663 112.741542 
L 402.682247 103.200653 
L 406.694831 106.634869 
L 410.707416 106.130334 
" style="fill:none;stroke:#0000ff;stroke-dasharray:1.5,2.475;stroke-dashoffset:0;stroke-width:1.5;"/>
    <defs>
     <path d="M 0 1.5 
C 0.397805 1.5 0.77937 1.341951 1.06066 1.06066 
C 1.341951 0.77937 1.5 0.397805 1.5 0 
C 1.5 -0.397805 1.341951 -0.77937 1.06066 -1.06066 
C 0.77937 -1.341951 0.397805 -1.5 0 -1.5 
C -0.397805 -1.5 -0.77937 -1.341951 -1.06066 -1.06066 
C -1.341951 -0.77937 -1.5 -0.397805 -1.5 0 
C -1.5 0.397805 -1.341951 0.77937 -1.06066 1.06066 
C -0.77937 1.341951 -0.397805 1.5 0 1.5 
z
" id="mf9521f1eaa" style="stroke:#0000ff;"/>
    </defs>
    <g clip-path="url(#p8c1f19c22a)">
     <use style="fill:#0000ff;stroke:#0000ff;" x="61.612584" xlink:href="#mf9521f1eaa" y="279.144764"/>
     <use style="fill:#0000ff;stroke:#0000ff;" x="65.625169" xlink:href="#mf9521f1eaa" y="240.888565"/>
     <use style="fill:#0000ff;stroke:#0000ff;" x="69.637753" xlink:href="#mf9521f1eaa" y="206.030313"/>
     <use style="fill:#0000ff;stroke:#0000ff;" x="73.650337" xlink:href="#mf9521f1eaa" y="175.998203"/>
     <use style="fill:#0000ff;stroke:#0000ff;" x="77.662921" xlink:href="#mf9521f1eaa" y="154.2906"/>
     <use style="fill:#0000ff;stroke:#0000ff;" x="81.675506" xlink:href="#mf9521f1eaa" y="137.166865"/>
     <use style="fill:#0000ff;stroke:#0000ff;" x="85.68809" xlink:href="#mf9521f1eaa" y="125.608206"/>
     <use style="fill:#0000ff;stroke:#0000ff;" x="89.700674" xlink:href="#mf9521f1eaa" y="106.321418"/>
     <use style="fill:#0000ff;stroke:#0000ff;" x="93.713258" xlink:href="#mf9521f1eaa" y="94.227107"/>
     <use style="fill:#0000ff;stroke:#0000ff;" x="97.725843" xlink:href="#mf9521f1eaa" y="85.774638"/>
     <use style="fill:#0000ff;stroke:#0000ff;" x="101.738427" xlink:href="#mf9521f1eaa" y="86.941665"/>
     <use style="fill:#0000ff;stroke:#0000ff;" x="105.751011" xlink:href="#mf9521f1eaa" y="77.225508"/>
     <use style="fill:#0000ff;stroke:#0000ff;" x="109.763596" xlink:href="#mf9521f1eaa" y="72.895737"/>
     <use style="fill:#0000ff;stroke:#0000ff;" x="113.77618" xlink:href="#mf9521f1eaa" y="72.338569"/>
     <use style="fill:#0000ff;stroke:#0000ff;" x="117.788764" xlink:href="#mf9521f1eaa" y="67.023693"/>
     <use style="fill:#0000ff;stroke:#0000ff;" x="121.801348" xlink:href="#mf9521f1eaa" y="73.582449"/>
     <use style="fill:#0000ff;stroke:#0000ff;" x="125.813933" xlink:href="#mf9521f1eaa" y="70.299647"/>
     <use style="fill:#0000ff;stroke:#0000ff;" x="129.826517" xlink:href="#mf9521f1eaa" y="68.706145"/>
     <use style="fill:#0000ff;stroke:#0000ff;" x="133.839101" xlink:href="#mf9521f1eaa" y="72.158129"/>
     <use style="fill:#0000ff;stroke:#0000ff;" x="137.851685" xlink:href="#mf9521f1eaa" y="70.433676"/>
     <use style="fill:#0000ff;stroke:#0000ff;" x="141.86427" xlink:href="#mf9521f1eaa" y="62.947061"/>
     <use style="fill:#0000ff;stroke:#0000ff;" x="145.876854" xlink:href="#mf9521f1eaa" y="53.568"/>
     <use style="fill:#0000ff;stroke:#0000ff;" x="149.889438" xlink:href="#mf9521f1eaa" y="63.383895"/>
     <use style="fill:#0000ff;stroke:#0000ff;" x="153.902022" xlink:href="#mf9521f1eaa" y="64.338506"/>
     <use style="fill:#0000ff;stroke:#0000ff;" x="157.914607" xlink:href="#mf9521f1eaa" y="70.150087"/>
     <use style="fill:#0000ff;stroke:#0000ff;" x="161.927191" xlink:href="#mf9521f1eaa" y="74.688601"/>
     <use style="fill:#0000ff;stroke:#0000ff;" x="165.939775" xlink:href="#mf9521f1eaa" y="73.101609"/>
     <use style="fill:#0000ff;stroke:#0000ff;" x="169.95236" xlink:href="#mf9521f1eaa" y="75.939209"/>
     <use style="fill:#0000ff;stroke:#0000ff;" x="173.964944" xlink:href="#mf9521f1eaa" y="80.207822"/>
     <use style="fill:#0000ff;stroke:#0000ff;" x="177.977528" xlink:href="#mf9521f1eaa" y="74.917257"/>
     <use style="fill:#0000ff;stroke:#0000ff;" x="181.990112" xlink:href="#mf9521f1eaa" y="81.107497"/>
     <use style="fill:#0000ff;stroke:#0000ff;" x="186.002697" xlink:href="#mf9521f1eaa" y="89.330714"/>
     <use style="fill:#0000ff;stroke:#0000ff;" x="190.015281" xlink:href="#mf9521f1eaa" y="87.368257"/>
     <use style="fill:#0000ff;stroke:#0000ff;" x="194.027865" xlink:href="#mf9521f1eaa" y="84.777359"/>
     <use style="fill:#0000ff;stroke:#0000ff;" x="198.040449" xlink:href="#mf9521f1eaa" y="90.050197"/>
     <use style="fill:#0000ff;stroke:#0000ff;" x="202.053034" xlink:href="#mf9521f1eaa" y="89.870158"/>
     <use style="fill:#0000ff;stroke:#0000ff;" x="206.065618" xlink:href="#mf9521f1eaa" y="93.641311"/>
     <use style="fill:#0000ff;stroke:#0000ff;" x="210.078202" xlink:href="#mf9521f1eaa" y="91.444789"/>
     <use style="fill:#0000ff;stroke:#0000ff;" x="214.090787" xlink:href="#mf9521f1eaa" y="100.920972"/>
     <use style="fill:#0000ff;stroke:#0000ff;" x="218.103371" xlink:href="#mf9521f1eaa" y="93.200471"/>
     <use style="fill:#0000ff;stroke:#0000ff;" x="222.115955" xlink:href="#mf9521f1eaa" y="95.492852"/>
     <use style="fill:#0000ff;stroke:#0000ff;" x="226.128539" xlink:href="#mf9521f1eaa" y="96.026173"/>
     <use style="fill:#0000ff;stroke:#0000ff;" x="230.141124" xlink:href="#mf9521f1eaa" y="99.727415"/>
     <use style="fill:#0000ff;stroke:#0000ff;" x="234.153708" xlink:href="#mf9521f1eaa" y="94.622723"/>
     <use style="fill:#0000ff;stroke:#0000ff;" x="238.166292" xlink:href="#mf9521f1eaa" y="95.335384"/>
     <use style="fill:#0000ff;stroke:#0000ff;" x="242.178876" xlink:href="#mf9521f1eaa" y="95.61766"/>
     <use style="fill:#0000ff;stroke:#0000ff;" x="246.191461" xlink:href="#mf9521f1eaa" y="94.52742"/>
     <use style="fill:#0000ff;stroke:#0000ff;" x="250.204045" xlink:href="#mf9521f1eaa" y="93.773649"/>
     <use style="fill:#0000ff;stroke:#0000ff;" x="254.216629" xlink:href="#mf9521f1eaa" y="93.998413"/>
     <use style="fill:#0000ff;stroke:#0000ff;" x="258.229213" xlink:href="#mf9521f1eaa" y="98.25352"/>
     <use style="fill:#0000ff;stroke:#0000ff;" x="262.241798" xlink:href="#mf9521f1eaa" y="101.736534"/>
     <use style="fill:#0000ff;stroke:#0000ff;" x="266.254382" xlink:href="#mf9521f1eaa" y="97.364196"/>
     <use style="fill:#0000ff;stroke:#0000ff;" x="270.266966" xlink:href="#mf9521f1eaa" y="98.270933"/>
     <use style="fill:#0000ff;stroke:#0000ff;" x="274.279551" xlink:href="#mf9521f1eaa" y="96.430046"/>
     <use style="fill:#0000ff;stroke:#0000ff;" x="278.292135" xlink:href="#mf9521f1eaa" y="95.771197"/>
     <use style="fill:#0000ff;stroke:#0000ff;" x="282.304719" xlink:href="#mf9521f1eaa" y="94.701381"/>
     <use style="fill:#0000ff;stroke:#0000ff;" x="286.317303" xlink:href="#mf9521f1eaa" y="95.606358"/>
     <use style="fill:#0000ff;stroke:#0000ff;" x="290.329888" xlink:href="#mf9521f1eaa" y="96.338167"/>
     <use style="fill:#0000ff;stroke:#0000ff;" x="294.342472" xlink:href="#mf9521f1eaa" y="95.315614"/>
     <use style="fill:#0000ff;stroke:#0000ff;" x="298.355056" xlink:href="#mf9521f1eaa" y="95.578676"/>
     <use style="fill:#0000ff;stroke:#0000ff;" x="302.36764" xlink:href="#mf9521f1eaa" y="95.257495"/>
     <use style="fill:#0000ff;stroke:#0000ff;" x="306.380225" xlink:href="#mf9521f1eaa" y="99.48655"/>
     <use style="fill:#0000ff;stroke:#0000ff;" x="310.392809" xlink:href="#mf9521f1eaa" y="104.862092"/>
     <use style="fill:#0000ff;stroke:#0000ff;" x="314.405393" xlink:href="#mf9521f1eaa" y="96.064951"/>
     <use style="fill:#0000ff;stroke:#0000ff;" x="318.417978" xlink:href="#mf9521f1eaa" y="100.939769"/>
     <use style="fill:#0000ff;stroke:#0000ff;" x="322.430562" xlink:href="#mf9521f1eaa" y="99.494923"/>
     <use style="fill:#0000ff;stroke:#0000ff;" x="326.443146" xlink:href="#mf9521f1eaa" y="98.84142"/>
     <use style="fill:#0000ff;stroke:#0000ff;" x="330.45573" xlink:href="#mf9521f1eaa" y="96.137454"/>
     <use style="fill:#0000ff;stroke:#0000ff;" x="334.468315" xlink:href="#mf9521f1eaa" y="102.227441"/>
     <use style="fill:#0000ff;stroke:#0000ff;" x="338.480899" xlink:href="#mf9521f1eaa" y="104.25874"/>
     <use style="fill:#0000ff;stroke:#0000ff;" x="342.493483" xlink:href="#mf9521f1eaa" y="98.871561"/>
     <use style="fill:#0000ff;stroke:#0000ff;" x="346.506067" xlink:href="#mf9521f1eaa" y="86.939575"/>
     <use style="fill:#0000ff;stroke:#0000ff;" x="350.518652" xlink:href="#mf9521f1eaa" y="100.767904"/>
     <use style="fill:#0000ff;stroke:#0000ff;" x="354.531236" xlink:href="#mf9521f1eaa" y="112.841982"/>
     <use style="fill:#0000ff;stroke:#0000ff;" x="358.54382" xlink:href="#mf9521f1eaa" y="102.524072"/>
     <use style="fill:#0000ff;stroke:#0000ff;" x="362.556404" xlink:href="#mf9521f1eaa" y="103.637511"/>
     <use style="fill:#0000ff;stroke:#0000ff;" x="366.568989" xlink:href="#mf9521f1eaa" y="101.871564"/>
     <use style="fill:#0000ff;stroke:#0000ff;" x="370.581573" xlink:href="#mf9521f1eaa" y="93.334702"/>
     <use style="fill:#0000ff;stroke:#0000ff;" x="374.594157" xlink:href="#mf9521f1eaa" y="90.562452"/>
     <use style="fill:#0000ff;stroke:#0000ff;" x="378.606742" xlink:href="#mf9521f1eaa" y="88.072544"/>
     <use style="fill:#0000ff;stroke:#0000ff;" x="382.619326" xlink:href="#mf9521f1eaa" y="95.496523"/>
     <use style="fill:#0000ff;stroke:#0000ff;" x="386.63191" xlink:href="#mf9521f1eaa" y="106.425596"/>
     <use style="fill:#0000ff;stroke:#0000ff;" x="390.644494" xlink:href="#mf9521f1eaa" y="113.697916"/>
     <use style="fill:#0000ff;stroke:#0000ff;" x="394.657079" xlink:href="#mf9521f1eaa" y="115.796801"/>
     <use style="fill:#0000ff;stroke:#0000ff;" x="398.669663" xlink:href="#mf9521f1eaa" y="112.741542"/>
     <use style="fill:#0000ff;stroke:#0000ff;" x="402.682247" xlink:href="#mf9521f1eaa" y="103.200653"/>
     <use style="fill:#0000ff;stroke:#0000ff;" x="406.694831" xlink:href="#mf9521f1eaa" y="106.634869"/>
     <use style="fill:#0000ff;stroke:#0000ff;" x="410.707416" xlink:href="#mf9521f1eaa" y="106.130334"/>
    </g>
   </g>
   <g id="line2d_58">
    <path clip-path="url(#p8c1f19c22a)" d="M 61.612584 295.488 
L 65.625169 270.593351 
L 69.637753 249.801167 
L 73.650337 233.416077 
L 77.662921 224.862212 
L 81.675506 216.724805 
L 85.68809 213.695306 
L 89.700674 210.958181 
L 93.713258 209.687638 
L 97.725843 208.434299 
L 101.738427 209.530483 
L 105.751011 210.489998 
L 109.763596 211.250052 
L 113.77618 212.869678 
L 117.788764 215.360395 
L 121.801348 218.18412 
L 125.813933 219.577281 
L 129.826517 222.127363 
L 133.839101 224.535497 
L 137.851685 225.980656 
L 141.86427 226.585007 
L 145.876854 229.849918 
L 149.889438 229.1373 
L 153.902022 233.150734 
L 157.914607 238.581236 
L 161.927191 238.576357 
L 165.939775 240.410467 
L 169.95236 241.963796 
L 173.964944 243.79813 
L 177.977528 245.090428 
L 181.990112 247.211606 
L 186.002697 250.285042 
L 190.015281 250.815809 
L 194.027865 251.915271 
L 198.040449 254.161751 
L 202.053034 255.070669 
L 206.065618 257.924545 
L 210.078202 258.404688 
L 214.090787 262.017155 
L 218.103371 261.268231 
L 222.115955 262.581895 
L 226.128539 264.282544 
L 230.141124 265.487481 
L 234.153708 266.001744 
L 238.166292 265.907128 
L 242.178876 265.708647 
L 246.191461 265.818491 
L 250.204045 265.893108 
L 254.216629 265.754191 
L 258.229213 266.883979 
L 262.241798 267.256342 
L 266.254382 266.245853 
L 270.266966 266.266504 
L 274.279551 266.006334 
L 278.292135 266.172575 
L 282.304719 266.003139 
L 286.317303 265.993619 
L 290.329888 265.986805 
L 294.342472 265.968199 
L 298.355056 266.056197 
L 302.36764 266.039539 
L 306.380225 267.505199 
L 310.392809 268.319557 
L 314.405393 266.030286 
L 318.417978 267.774594 
L 322.430562 267.228386 
L 326.443146 266.073029 
L 330.45573 267.574493 
L 334.468315 267.564034 
L 338.480899 268.927708 
L 342.493483 267.865327 
L 346.506067 268.184565 
L 350.518652 268.741865 
L 354.531236 269.727318 
L 358.54382 267.552698 
L 362.556404 267.744913 
L 366.568989 267.371716 
L 370.581573 265.275267 
L 374.594157 264.727816 
L 378.606742 264.272447 
L 382.619326 266.350349 
L 386.63191 268.467403 
L 390.644494 268.987881 
L 394.657079 269.755416 
L 398.669663 269.679528 
L 402.682247 268.238102 
L 406.694831 268.462035 
L 410.707416 268.652131 
" style="fill:none;stroke:#ff0000;stroke-dasharray:1.5,2.475;stroke-dashoffset:0;stroke-width:1.5;"/>
    <defs>
     <path d="M 0 1.5 
C 0.397805 1.5 0.77937 1.341951 1.06066 1.06066 
C 1.341951 0.77937 1.5 0.397805 1.5 0 
C 1.5 -0.397805 1.341951 -0.77937 1.06066 -1.06066 
C 0.77937 -1.341951 0.397805 -1.5 0 -1.5 
C -0.397805 -1.5 -0.77937 -1.341951 -1.06066 -1.06066 
C -1.341951 -0.77937 -1.5 -0.397805 -1.5 0 
C -1.5 0.397805 -1.341951 0.77937 -1.06066 1.06066 
C -0.77937 1.341951 -0.397805 1.5 0 1.5 
z
" id="mf2f1eedaee" style="stroke:#ff0000;"/>
    </defs>
    <g clip-path="url(#p8c1f19c22a)">
     <use style="fill:#ff0000;stroke:#ff0000;" x="61.612584" xlink:href="#mf2f1eedaee" y="295.488"/>
     <use style="fill:#ff0000;stroke:#ff0000;" x="65.625169" xlink:href="#mf2f1eedaee" y="270.593351"/>
     <use style="fill:#ff0000;stroke:#ff0000;" x="69.637753" xlink:href="#mf2f1eedaee" y="249.801167"/>
     <use style="fill:#ff0000;stroke:#ff0000;" x="73.650337" xlink:href="#mf2f1eedaee" y="233.416077"/>
     <use style="fill:#ff0000;stroke:#ff0000;" x="77.662921" xlink:href="#mf2f1eedaee" y="224.862212"/>
     <use style="fill:#ff0000;stroke:#ff0000;" x="81.675506" xlink:href="#mf2f1eedaee" y="216.724805"/>
     <use style="fill:#ff0000;stroke:#ff0000;" x="85.68809" xlink:href="#mf2f1eedaee" y="213.695306"/>
     <use style="fill:#ff0000;stroke:#ff0000;" x="89.700674" xlink:href="#mf2f1eedaee" y="210.958181"/>
     <use style="fill:#ff0000;stroke:#ff0000;" x="93.713258" xlink:href="#mf2f1eedaee" y="209.687638"/>
     <use style="fill:#ff0000;stroke:#ff0000;" x="97.725843" xlink:href="#mf2f1eedaee" y="208.434299"/>
     <use style="fill:#ff0000;stroke:#ff0000;" x="101.738427" xlink:href="#mf2f1eedaee" y="209.530483"/>
     <use style="fill:#ff0000;stroke:#ff0000;" x="105.751011" xlink:href="#mf2f1eedaee" y="210.489998"/>
     <use style="fill:#ff0000;stroke:#ff0000;" x="109.763596" xlink:href="#mf2f1eedaee" y="211.250052"/>
     <use style="fill:#ff0000;stroke:#ff0000;" x="113.77618" xlink:href="#mf2f1eedaee" y="212.869678"/>
     <use style="fill:#ff0000;stroke:#ff0000;" x="117.788764" xlink:href="#mf2f1eedaee" y="215.360395"/>
     <use style="fill:#ff0000;stroke:#ff0000;" x="121.801348" xlink:href="#mf2f1eedaee" y="218.18412"/>
     <use style="fill:#ff0000;stroke:#ff0000;" x="125.813933" xlink:href="#mf2f1eedaee" y="219.577281"/>
     <use style="fill:#ff0000;stroke:#ff0000;" x="129.826517" xlink:href="#mf2f1eedaee" y="222.127363"/>
     <use style="fill:#ff0000;stroke:#ff0000;" x="133.839101" xlink:href="#mf2f1eedaee" y="224.535497"/>
     <use style="fill:#ff0000;stroke:#ff0000;" x="137.851685" xlink:href="#mf2f1eedaee" y="225.980656"/>
     <use style="fill:#ff0000;stroke:#ff0000;" x="141.86427" xlink:href="#mf2f1eedaee" y="226.585007"/>
     <use style="fill:#ff0000;stroke:#ff0000;" x="145.876854" xlink:href="#mf2f1eedaee" y="229.849918"/>
     <use style="fill:#ff0000;stroke:#ff0000;" x="149.889438" xlink:href="#mf2f1eedaee" y="229.1373"/>
     <use style="fill:#ff0000;stroke:#ff0000;" x="153.902022" xlink:href="#mf2f1eedaee" y="233.150734"/>
     <use style="fill:#ff0000;stroke:#ff0000;" x="157.914607" xlink:href="#mf2f1eedaee" y="238.581236"/>
     <use style="fill:#ff0000;stroke:#ff0000;" x="161.927191" xlink:href="#mf2f1eedaee" y="238.576357"/>
     <use style="fill:#ff0000;stroke:#ff0000;" x="165.939775" xlink:href="#mf2f1eedaee" y="240.410467"/>
     <use style="fill:#ff0000;stroke:#ff0000;" x="169.95236" xlink:href="#mf2f1eedaee" y="241.963796"/>
     <use style="fill:#ff0000;stroke:#ff0000;" x="173.964944" xlink:href="#mf2f1eedaee" y="243.79813"/>
     <use style="fill:#ff0000;stroke:#ff0000;" x="177.977528" xlink:href="#mf2f1eedaee" y="245.090428"/>
     <use style="fill:#ff0000;stroke:#ff0000;" x="181.990112" xlink:href="#mf2f1eedaee" y="247.211606"/>
     <use style="fill:#ff0000;stroke:#ff0000;" x="186.002697" xlink:href="#mf2f1eedaee" y="250.285042"/>
     <use style="fill:#ff0000;stroke:#ff0000;" x="190.015281" xlink:href="#mf2f1eedaee" y="250.815809"/>
     <use style="fill:#ff0000;stroke:#ff0000;" x="194.027865" xlink:href="#mf2f1eedaee" y="251.915271"/>
     <use style="fill:#ff0000;stroke:#ff0000;" x="198.040449" xlink:href="#mf2f1eedaee" y="254.161751"/>
     <use style="fill:#ff0000;stroke:#ff0000;" x="202.053034" xlink:href="#mf2f1eedaee" y="255.070669"/>
     <use style="fill:#ff0000;stroke:#ff0000;" x="206.065618" xlink:href="#mf2f1eedaee" y="257.924545"/>
     <use style="fill:#ff0000;stroke:#ff0000;" x="210.078202" xlink:href="#mf2f1eedaee" y="258.404688"/>
     <use style="fill:#ff0000;stroke:#ff0000;" x="214.090787" xlink:href="#mf2f1eedaee" y="262.017155"/>
     <use style="fill:#ff0000;stroke:#ff0000;" x="218.103371" xlink:href="#mf2f1eedaee" y="261.268231"/>
     <use style="fill:#ff0000;stroke:#ff0000;" x="222.115955" xlink:href="#mf2f1eedaee" y="262.581895"/>
     <use style="fill:#ff0000;stroke:#ff0000;" x="226.128539" xlink:href="#mf2f1eedaee" y="264.282544"/>
     <use style="fill:#ff0000;stroke:#ff0000;" x="230.141124" xlink:href="#mf2f1eedaee" y="265.487481"/>
     <use style="fill:#ff0000;stroke:#ff0000;" x="234.153708" xlink:href="#mf2f1eedaee" y="266.001744"/>
     <use style="fill:#ff0000;stroke:#ff0000;" x="238.166292" xlink:href="#mf2f1eedaee" y="265.907128"/>
     <use style="fill:#ff0000;stroke:#ff0000;" x="242.178876" xlink:href="#mf2f1eedaee" y="265.708647"/>
     <use style="fill:#ff0000;stroke:#ff0000;" x="246.191461" xlink:href="#mf2f1eedaee" y="265.818491"/>
     <use style="fill:#ff0000;stroke:#ff0000;" x="250.204045" xlink:href="#mf2f1eedaee" y="265.893108"/>
     <use style="fill:#ff0000;stroke:#ff0000;" x="254.216629" xlink:href="#mf2f1eedaee" y="265.754191"/>
     <use style="fill:#ff0000;stroke:#ff0000;" x="258.229213" xlink:href="#mf2f1eedaee" y="266.883979"/>
     <use style="fill:#ff0000;stroke:#ff0000;" x="262.241798" xlink:href="#mf2f1eedaee" y="267.256342"/>
     <use style="fill:#ff0000;stroke:#ff0000;" x="266.254382" xlink:href="#mf2f1eedaee" y="266.245853"/>
     <use style="fill:#ff0000;stroke:#ff0000;" x="270.266966" xlink:href="#mf2f1eedaee" y="266.266504"/>
     <use style="fill:#ff0000;stroke:#ff0000;" x="274.279551" xlink:href="#mf2f1eedaee" y="266.006334"/>
     <use style="fill:#ff0000;stroke:#ff0000;" x="278.292135" xlink:href="#mf2f1eedaee" y="266.172575"/>
     <use style="fill:#ff0000;stroke:#ff0000;" x="282.304719" xlink:href="#mf2f1eedaee" y="266.003139"/>
     <use style="fill:#ff0000;stroke:#ff0000;" x="286.317303" xlink:href="#mf2f1eedaee" y="265.993619"/>
     <use style="fill:#ff0000;stroke:#ff0000;" x="290.329888" xlink:href="#mf2f1eedaee" y="265.986805"/>
     <use style="fill:#ff0000;stroke:#ff0000;" x="294.342472" xlink:href="#mf2f1eedaee" y="265.968199"/>
     <use style="fill:#ff0000;stroke:#ff0000;" x="298.355056" xlink:href="#mf2f1eedaee" y="266.056197"/>
     <use style="fill:#ff0000;stroke:#ff0000;" x="302.36764" xlink:href="#mf2f1eedaee" y="266.039539"/>
     <use style="fill:#ff0000;stroke:#ff0000;" x="306.380225" xlink:href="#mf2f1eedaee" y="267.505199"/>
     <use style="fill:#ff0000;stroke:#ff0000;" x="310.392809" xlink:href="#mf2f1eedaee" y="268.319557"/>
     <use style="fill:#ff0000;stroke:#ff0000;" x="314.405393" xlink:href="#mf2f1eedaee" y="266.030286"/>
     <use style="fill:#ff0000;stroke:#ff0000;" x="318.417978" xlink:href="#mf2f1eedaee" y="267.774594"/>
     <use style="fill:#ff0000;stroke:#ff0000;" x="322.430562" xlink:href="#mf2f1eedaee" y="267.228386"/>
     <use style="fill:#ff0000;stroke:#ff0000;" x="326.443146" xlink:href="#mf2f1eedaee" y="266.073029"/>
     <use style="fill:#ff0000;stroke:#ff0000;" x="330.45573" xlink:href="#mf2f1eedaee" y="267.574493"/>
     <use style="fill:#ff0000;stroke:#ff0000;" x="334.468315" xlink:href="#mf2f1eedaee" y="267.564034"/>
     <use style="fill:#ff0000;stroke:#ff0000;" x="338.480899" xlink:href="#mf2f1eedaee" y="268.927708"/>
     <use style="fill:#ff0000;stroke:#ff0000;" x="342.493483" xlink:href="#mf2f1eedaee" y="267.865327"/>
     <use style="fill:#ff0000;stroke:#ff0000;" x="346.506067" xlink:href="#mf2f1eedaee" y="268.184565"/>
     <use style="fill:#ff0000;stroke:#ff0000;" x="350.518652" xlink:href="#mf2f1eedaee" y="268.741865"/>
     <use style="fill:#ff0000;stroke:#ff0000;" x="354.531236" xlink:href="#mf2f1eedaee" y="269.727318"/>
     <use style="fill:#ff0000;stroke:#ff0000;" x="358.54382" xlink:href="#mf2f1eedaee" y="267.552698"/>
     <use style="fill:#ff0000;stroke:#ff0000;" x="362.556404" xlink:href="#mf2f1eedaee" y="267.744913"/>
     <use style="fill:#ff0000;stroke:#ff0000;" x="366.568989" xlink:href="#mf2f1eedaee" y="267.371716"/>
     <use style="fill:#ff0000;stroke:#ff0000;" x="370.581573" xlink:href="#mf2f1eedaee" y="265.275267"/>
     <use style="fill:#ff0000;stroke:#ff0000;" x="374.594157" xlink:href="#mf2f1eedaee" y="264.727816"/>
     <use style="fill:#ff0000;stroke:#ff0000;" x="378.606742" xlink:href="#mf2f1eedaee" y="264.272447"/>
     <use style="fill:#ff0000;stroke:#ff0000;" x="382.619326" xlink:href="#mf2f1eedaee" y="266.350349"/>
     <use style="fill:#ff0000;stroke:#ff0000;" x="386.63191" xlink:href="#mf2f1eedaee" y="268.467403"/>
     <use style="fill:#ff0000;stroke:#ff0000;" x="390.644494" xlink:href="#mf2f1eedaee" y="268.987881"/>
     <use style="fill:#ff0000;stroke:#ff0000;" x="394.657079" xlink:href="#mf2f1eedaee" y="269.755416"/>
     <use style="fill:#ff0000;stroke:#ff0000;" x="398.669663" xlink:href="#mf2f1eedaee" y="269.679528"/>
     <use style="fill:#ff0000;stroke:#ff0000;" x="402.682247" xlink:href="#mf2f1eedaee" y="268.238102"/>
     <use style="fill:#ff0000;stroke:#ff0000;" x="406.694831" xlink:href="#mf2f1eedaee" y="268.462035"/>
     <use style="fill:#ff0000;stroke:#ff0000;" x="410.707416" xlink:href="#mf2f1eedaee" y="268.652131"/>
    </g>
   </g>
   <g id="line2d_59">
    <path clip-path="url(#p8c1f19c22a)" d="M 61.612584 287.316382 
L 65.625169 255.740958 
L 69.637753 227.91574 
L 73.650337 204.70714 
L 77.662921 189.576406 
L 81.675506 176.945835 
L 85.68809 169.651756 
L 89.700674 158.6398 
L 93.713258 151.957372 
L 97.725843 147.104469 
L 101.738427 148.236074 
L 105.751011 143.857753 
L 109.763596 142.072894 
L 113.77618 142.604123 
L 117.788764 141.192044 
L 121.801348 145.883285 
L 125.813933 144.938464 
L 129.826517 145.416754 
L 133.839101 148.346813 
L 137.851685 148.207166 
L 141.86427 144.766034 
L 145.876854 141.708959 
L 149.889438 146.260597 
L 153.902022 148.74462 
L 157.914607 154.365661 
L 161.927191 156.632479 
L 165.939775 156.756038 
L 169.95236 158.951502 
L 173.964944 162.002976 
L 177.977528 160.003842 
L 181.990112 164.159552 
L 186.002697 169.807878 
L 190.015281 169.092033 
L 194.027865 168.346315 
L 198.040449 172.105974 
L 202.053034 172.470413 
L 206.065618 175.782928 
L 210.078202 174.924738 
L 214.090787 181.469063 
L 218.103371 177.234351 
L 222.115955 179.037373 
L 226.128539 180.154358 
L 230.141124 182.607448 
L 234.153708 180.312234 
L 238.166292 180.621256 
L 242.178876 180.663154 
L 246.191461 180.172956 
L 250.204045 179.833379 
L 254.216629 179.876302 
L 258.229213 182.568749 
L 262.241798 184.496438 
L 266.254382 181.805024 
L 270.266966 182.268719 
L 274.279551 181.21819 
L 278.292135 180.971886 
L 282.304719 180.35226 
L 286.317303 180.799988 
L 290.329888 181.162486 
L 294.342472 180.641907 
L 298.355056 180.817437 
L 302.36764 180.648517 
L 306.380225 183.495875 
L 310.392809 186.590824 
L 314.405393 181.047618 
L 318.417978 184.357182 
L 322.430562 183.361654 
L 326.443146 182.457225 
L 330.45573 181.855973 
L 334.468315 184.895738 
L 338.480899 186.593224 
L 342.493483 183.368444 
L 346.506067 177.56207 
L 350.518652 184.754884 
L 354.531236 191.28465 
L 358.54382 185.038385 
L 362.556404 185.691212 
L 366.568989 184.62164 
L 370.581573 179.304984 
L 374.594157 177.645134 
L 378.606742 176.172495 
L 382.619326 180.923436 
L 386.63191 187.446499 
L 390.644494 191.342898 
L 394.657079 192.776108 
L 398.669663 191.210535 
L 402.682247 185.719377 
L 406.694831 187.548452 
L 410.707416 187.391232 
" style="fill:none;stroke:#008000;stroke-dasharray:1.5,2.475;stroke-dashoffset:0;stroke-width:1.5;"/>
    <defs>
     <path d="M 0 1.5 
C 0.397805 1.5 0.77937 1.341951 1.06066 1.06066 
C 1.341951 0.77937 1.5 0.397805 1.5 0 
C 1.5 -0.397805 1.341951 -0.77937 1.06066 -1.06066 
C 0.77937 -1.341951 0.397805 -1.5 0 -1.5 
C -0.397805 -1.5 -0.77937 -1.341951 -1.06066 -1.06066 
C -1.341951 -0.77937 -1.5 -0.397805 -1.5 0 
C -1.5 0.397805 -1.341951 0.77937 -1.06066 1.06066 
C -0.77937 1.341951 -0.397805 1.5 0 1.5 
z
" id="m753d7d834a" style="stroke:#008000;"/>
    </defs>
    <g clip-path="url(#p8c1f19c22a)">
     <use style="fill:#008000;stroke:#008000;" x="61.612584" xlink:href="#m753d7d834a" y="287.316382"/>
     <use style="fill:#008000;stroke:#008000;" x="65.625169" xlink:href="#m753d7d834a" y="255.740958"/>
     <use style="fill:#008000;stroke:#008000;" x="69.637753" xlink:href="#m753d7d834a" y="227.91574"/>
     <use style="fill:#008000;stroke:#008000;" x="73.650337" xlink:href="#m753d7d834a" y="204.70714"/>
     <use style="fill:#008000;stroke:#008000;" x="77.662921" xlink:href="#m753d7d834a" y="189.576406"/>
     <use style="fill:#008000;stroke:#008000;" x="81.675506" xlink:href="#m753d7d834a" y="176.945835"/>
     <use style="fill:#008000;stroke:#008000;" x="85.68809" xlink:href="#m753d7d834a" y="169.651756"/>
     <use style="fill:#008000;stroke:#008000;" x="89.700674" xlink:href="#m753d7d834a" y="158.6398"/>
     <use style="fill:#008000;stroke:#008000;" x="93.713258" xlink:href="#m753d7d834a" y="151.957372"/>
     <use style="fill:#008000;stroke:#008000;" x="97.725843" xlink:href="#m753d7d834a" y="147.104469"/>
     <use style="fill:#008000;stroke:#008000;" x="101.738427" xlink:href="#m753d7d834a" y="148.236074"/>
     <use style="fill:#008000;stroke:#008000;" x="105.751011" xlink:href="#m753d7d834a" y="143.857753"/>
     <use style="fill:#008000;stroke:#008000;" x="109.763596" xlink:href="#m753d7d834a" y="142.072894"/>
     <use style="fill:#008000;stroke:#008000;" x="113.77618" xlink:href="#m753d7d834a" y="142.604123"/>
     <use style="fill:#008000;stroke:#008000;" x="117.788764" xlink:href="#m753d7d834a" y="141.192044"/>
     <use style="fill:#008000;stroke:#008000;" x="121.801348" xlink:href="#m753d7d834a" y="145.883285"/>
     <use style="fill:#008000;stroke:#008000;" x="125.813933" xlink:href="#m753d7d834a" y="144.938464"/>
     <use style="fill:#008000;stroke:#008000;" x="129.826517" xlink:href="#m753d7d834a" y="145.416754"/>
     <use style="fill:#008000;stroke:#008000;" x="133.839101" xlink:href="#m753d7d834a" y="148.346813"/>
     <use style="fill:#008000;stroke:#008000;" x="137.851685" xlink:href="#m753d7d834a" y="148.207166"/>
     <use style="fill:#008000;stroke:#008000;" x="141.86427" xlink:href="#m753d7d834a" y="144.766034"/>
     <use style="fill:#008000;stroke:#008000;" x="145.876854" xlink:href="#m753d7d834a" y="141.708959"/>
     <use style="fill:#008000;stroke:#008000;" x="149.889438" xlink:href="#m753d7d834a" y="146.260597"/>
     <use style="fill:#008000;stroke:#008000;" x="153.902022" xlink:href="#m753d7d834a" y="148.74462"/>
     <use style="fill:#008000;stroke:#008000;" x="157.914607" xlink:href="#m753d7d834a" y="154.365661"/>
     <use style="fill:#008000;stroke:#008000;" x="161.927191" xlink:href="#m753d7d834a" y="156.632479"/>
     <use style="fill:#008000;stroke:#008000;" x="165.939775" xlink:href="#m753d7d834a" y="156.756038"/>
     <use style="fill:#008000;stroke:#008000;" x="169.95236" xlink:href="#m753d7d834a" y="158.951502"/>
     <use style="fill:#008000;stroke:#008000;" x="173.964944" xlink:href="#m753d7d834a" y="162.002976"/>
     <use style="fill:#008000;stroke:#008000;" x="177.977528" xlink:href="#m753d7d834a" y="160.003842"/>
     <use style="fill:#008000;stroke:#008000;" x="181.990112" xlink:href="#m753d7d834a" y="164.159552"/>
     <use style="fill:#008000;stroke:#008000;" x="186.002697" xlink:href="#m753d7d834a" y="169.807878"/>
     <use style="fill:#008000;stroke:#008000;" x="190.015281" xlink:href="#m753d7d834a" y="169.092033"/>
     <use style="fill:#008000;stroke:#008000;" x="194.027865" xlink:href="#m753d7d834a" y="168.346315"/>
     <use style="fill:#008000;stroke:#008000;" x="198.040449" xlink:href="#m753d7d834a" y="172.105974"/>
     <use style="fill:#008000;stroke:#008000;" x="202.053034" xlink:href="#m753d7d834a" y="172.470413"/>
     <use style="fill:#008000;stroke:#008000;" x="206.065618" xlink:href="#m753d7d834a" y="175.782928"/>
     <use style="fill:#008000;stroke:#008000;" x="210.078202" xlink:href="#m753d7d834a" y="174.924738"/>
     <use style="fill:#008000;stroke:#008000;" x="214.090787" xlink:href="#m753d7d834a" y="181.469063"/>
     <use style="fill:#008000;stroke:#008000;" x="218.103371" xlink:href="#m753d7d834a" y="177.234351"/>
     <use style="fill:#008000;stroke:#008000;" x="222.115955" xlink:href="#m753d7d834a" y="179.037373"/>
     <use style="fill:#008000;stroke:#008000;" x="226.128539" xlink:href="#m753d7d834a" y="180.154358"/>
     <use style="fill:#008000;stroke:#008000;" x="230.141124" xlink:href="#m753d7d834a" y="182.607448"/>
     <use style="fill:#008000;stroke:#008000;" x="234.153708" xlink:href="#m753d7d834a" y="180.312234"/>
     <use style="fill:#008000;stroke:#008000;" x="238.166292" xlink:href="#m753d7d834a" y="180.621256"/>
     <use style="fill:#008000;stroke:#008000;" x="242.178876" xlink:href="#m753d7d834a" y="180.663154"/>
     <use style="fill:#008000;stroke:#008000;" x="246.191461" xlink:href="#m753d7d834a" y="180.172956"/>
     <use style="fill:#008000;stroke:#008000;" x="250.204045" xlink:href="#m753d7d834a" y="179.833379"/>
     <use style="fill:#008000;stroke:#008000;" x="254.216629" xlink:href="#m753d7d834a" y="179.876302"/>
     <use style="fill:#008000;stroke:#008000;" x="258.229213" xlink:href="#m753d7d834a" y="182.568749"/>
     <use style="fill:#008000;stroke:#008000;" x="262.241798" xlink:href="#m753d7d834a" y="184.496438"/>
     <use style="fill:#008000;stroke:#008000;" x="266.254382" xlink:href="#m753d7d834a" y="181.805024"/>
     <use style="fill:#008000;stroke:#008000;" x="270.266966" xlink:href="#m753d7d834a" y="182.268719"/>
     <use style="fill:#008000;stroke:#008000;" x="274.279551" xlink:href="#m753d7d834a" y="181.21819"/>
     <use style="fill:#008000;stroke:#008000;" x="278.292135" xlink:href="#m753d7d834a" y="180.971886"/>
     <use style="fill:#008000;stroke:#008000;" x="282.304719" xlink:href="#m753d7d834a" y="180.35226"/>
     <use style="fill:#008000;stroke:#008000;" x="286.317303" xlink:href="#m753d7d834a" y="180.799988"/>
     <use style="fill:#008000;stroke:#008000;" x="290.329888" xlink:href="#m753d7d834a" y="181.162486"/>
     <use style="fill:#008000;stroke:#008000;" x="294.342472" xlink:href="#m753d7d834a" y="180.641907"/>
     <use style="fill:#008000;stroke:#008000;" x="298.355056" xlink:href="#m753d7d834a" y="180.817437"/>
     <use style="fill:#008000;stroke:#008000;" x="302.36764" xlink:href="#m753d7d834a" y="180.648517"/>
     <use style="fill:#008000;stroke:#008000;" x="306.380225" xlink:href="#m753d7d834a" y="183.495875"/>
     <use style="fill:#008000;stroke:#008000;" x="310.392809" xlink:href="#m753d7d834a" y="186.590824"/>
     <use style="fill:#008000;stroke:#008000;" x="314.405393" xlink:href="#m753d7d834a" y="181.047618"/>
     <use style="fill:#008000;stroke:#008000;" x="318.417978" xlink:href="#m753d7d834a" y="184.357182"/>
     <use style="fill:#008000;stroke:#008000;" x="322.430562" xlink:href="#m753d7d834a" y="183.361654"/>
     <use style="fill:#008000;stroke:#008000;" x="326.443146" xlink:href="#m753d7d834a" y="182.457225"/>
     <use style="fill:#008000;stroke:#008000;" x="330.45573" xlink:href="#m753d7d834a" y="181.855973"/>
     <use style="fill:#008000;stroke:#008000;" x="334.468315" xlink:href="#m753d7d834a" y="184.895738"/>
     <use style="fill:#008000;stroke:#008000;" x="338.480899" xlink:href="#m753d7d834a" y="186.593224"/>
     <use style="fill:#008000;stroke:#008000;" x="342.493483" xlink:href="#m753d7d834a" y="183.368444"/>
     <use style="fill:#008000;stroke:#008000;" x="346.506067" xlink:href="#m753d7d834a" y="177.56207"/>
     <use style="fill:#008000;stroke:#008000;" x="350.518652" xlink:href="#m753d7d834a" y="184.754884"/>
     <use style="fill:#008000;stroke:#008000;" x="354.531236" xlink:href="#m753d7d834a" y="191.28465"/>
     <use style="fill:#008000;stroke:#008000;" x="358.54382" xlink:href="#m753d7d834a" y="185.038385"/>
     <use style="fill:#008000;stroke:#008000;" x="362.556404" xlink:href="#m753d7d834a" y="185.691212"/>
     <use style="fill:#008000;stroke:#008000;" x="366.568989" xlink:href="#m753d7d834a" y="184.62164"/>
     <use style="fill:#008000;stroke:#008000;" x="370.581573" xlink:href="#m753d7d834a" y="179.304984"/>
     <use style="fill:#008000;stroke:#008000;" x="374.594157" xlink:href="#m753d7d834a" y="177.645134"/>
     <use style="fill:#008000;stroke:#008000;" x="378.606742" xlink:href="#m753d7d834a" y="176.172495"/>
     <use style="fill:#008000;stroke:#008000;" x="382.619326" xlink:href="#m753d7d834a" y="180.923436"/>
     <use style="fill:#008000;stroke:#008000;" x="386.63191" xlink:href="#m753d7d834a" y="187.446499"/>
     <use style="fill:#008000;stroke:#008000;" x="390.644494" xlink:href="#m753d7d834a" y="191.342898"/>
     <use style="fill:#008000;stroke:#008000;" x="394.657079" xlink:href="#m753d7d834a" y="192.776108"/>
     <use style="fill:#008000;stroke:#008000;" x="398.669663" xlink:href="#m753d7d834a" y="191.210535"/>
     <use style="fill:#008000;stroke:#008000;" x="402.682247" xlink:href="#m753d7d834a" y="185.719377"/>
     <use style="fill:#008000;stroke:#008000;" x="406.694831" xlink:href="#m753d7d834a" y="187.548452"/>
     <use style="fill:#008000;stroke:#008000;" x="410.707416" xlink:href="#m753d7d834a" y="187.391232"/>
    </g>
   </g>
   <g id="patch_3">
    <path d="M 57.6 307.584 
L 57.6 41.472 
" style="fill:none;stroke:#000000;stroke-linecap:square;stroke-linejoin:miter;stroke-width:0.8;"/>
   </g>
   <g id="patch_4">
    <path d="M 414.72 307.584 
L 414.72 41.472 
" style="fill:none;stroke:#000000;stroke-linecap:square;stroke-linejoin:miter;stroke-width:0.8;"/>
   </g>
   <g id="patch_5">
    <path d="M 57.6 307.584 
L 414.72 307.584 
" style="fill:none;stroke:#000000;stroke-linecap:square;stroke-linejoin:miter;stroke-width:0.8;"/>
   </g>
   <g id="patch_6">
    <path d="M 57.6 41.472 
L 414.72 41.472 
" style="fill:none;stroke:#000000;stroke-linecap:square;stroke-linejoin:miter;stroke-width:0.8;"/>
   </g>
   <g id="text_31">
    <!-- MKL iomp 2PV on pre_transpose42 -->
    <defs>
     <path d="M 9.8125 72.90625 
L 24.515625 72.90625 
L 43.109375 23.296875 
L 61.8125 72.90625 
L 76.515625 72.90625 
L 76.515625 0 
L 66.890625 0 
L 66.890625 64.015625 
L 48.09375 14.015625 
L 38.1875 14.015625 
L 19.390625 64.015625 
L 19.390625 0 
L 9.8125 0 
z
" id="DejaVuSans-77"/>
     <path d="M 9.8125 72.90625 
L 19.671875 72.90625 
L 19.671875 42.09375 
L 52.390625 72.90625 
L 65.09375 72.90625 
L 28.90625 38.921875 
L 67.671875 0 
L 54.6875 0 
L 19.671875 35.109375 
L 19.671875 0 
L 9.8125 0 
z
" id="DejaVuSans-75"/>
     <path d="M 9.8125 72.90625 
L 19.671875 72.90625 
L 19.671875 8.296875 
L 55.171875 8.296875 
L 55.171875 0 
L 9.8125 0 
z
" id="DejaVuSans-76"/>
     <path d="M 9.421875 54.6875 
L 18.40625 54.6875 
L 18.40625 0 
L 9.421875 0 
z
M 9.421875 75.984375 
L 18.40625 75.984375 
L 18.40625 64.59375 
L 9.421875 64.59375 
z
" id="DejaVuSans-105"/>
     <path d="M 30.609375 48.390625 
Q 23.390625 48.390625 19.1875 42.75 
Q 14.984375 37.109375 14.984375 27.296875 
Q 14.984375 17.484375 19.15625 11.84375 
Q 23.34375 6.203125 30.609375 6.203125 
Q 37.796875 6.203125 41.984375 11.859375 
Q 46.1875 17.53125 46.1875 27.296875 
Q 46.1875 37.015625 41.984375 42.703125 
Q 37.796875 48.390625 30.609375 48.390625 
z
M 30.609375 56 
Q 42.328125 56 49.015625 48.375 
Q 55.71875 40.765625 55.71875 27.296875 
Q 55.71875 13.875 49.015625 6.21875 
Q 42.328125 -1.421875 30.609375 -1.421875 
Q 18.84375 -1.421875 12.171875 6.21875 
Q 5.515625 13.875 5.515625 27.296875 
Q 5.515625 40.765625 12.171875 48.375 
Q 18.84375 56 30.609375 56 
z
" id="DejaVuSans-111"/>
     <path d="M 52 44.1875 
Q 55.375 50.25 60.0625 53.125 
Q 64.75 56 71.09375 56 
Q 79.640625 56 84.28125 50.015625 
Q 88.921875 44.046875 88.921875 33.015625 
L 88.921875 0 
L 79.890625 0 
L 79.890625 32.71875 
Q 79.890625 40.578125 77.09375 44.375 
Q 74.3125 48.1875 68.609375 48.1875 
Q 61.625 48.1875 57.5625 43.546875 
Q 53.515625 38.921875 53.515625 30.90625 
L 53.515625 0 
L 44.484375 0 
L 44.484375 32.71875 
Q 44.484375 40.625 41.703125 44.40625 
Q 38.921875 48.1875 33.109375 48.1875 
Q 26.21875 48.1875 22.15625 43.53125 
Q 18.109375 38.875 18.109375 30.90625 
L 18.109375 0 
L 9.078125 0 
L 9.078125 54.6875 
L 18.109375 54.6875 
L 18.109375 46.1875 
Q 21.1875 51.21875 25.484375 53.609375 
Q 29.78125 56 35.6875 56 
Q 41.65625 56 45.828125 52.96875 
Q 50 49.953125 52 44.1875 
z
" id="DejaVuSans-109"/>
     <path d="M 19.671875 64.796875 
L 19.671875 37.40625 
L 32.078125 37.40625 
Q 38.96875 37.40625 42.71875 40.96875 
Q 46.484375 44.53125 46.484375 51.125 
Q 46.484375 57.671875 42.71875 61.234375 
Q 38.96875 64.796875 32.078125 64.796875 
z
M 9.8125 72.90625 
L 32.078125 72.90625 
Q 44.34375 72.90625 50.609375 67.359375 
Q 56.890625 61.8125 56.890625 51.125 
Q 56.890625 40.328125 50.609375 34.8125 
Q 44.34375 29.296875 32.078125 29.296875 
L 19.671875 29.296875 
L 19.671875 0 
L 9.8125 0 
z
" id="DejaVuSans-80"/>
     <path d="M 28.609375 0 
L 0.78125 72.90625 
L 11.078125 72.90625 
L 34.1875 11.53125 
L 57.328125 72.90625 
L 67.578125 72.90625 
L 39.796875 0 
z
" id="DejaVuSans-86"/>
     <path d="M 54.890625 33.015625 
L 54.890625 0 
L 45.90625 0 
L 45.90625 32.71875 
Q 45.90625 40.484375 42.875 44.328125 
Q 39.84375 48.1875 33.796875 48.1875 
Q 26.515625 48.1875 22.3125 43.546875 
Q 18.109375 38.921875 18.109375 30.90625 
L 18.109375 0 
L 9.078125 0 
L 9.078125 54.6875 
L 18.109375 54.6875 
L 18.109375 46.1875 
Q 21.34375 51.125 25.703125 53.5625 
Q 30.078125 56 35.796875 56 
Q 45.21875 56 50.046875 50.171875 
Q 54.890625 44.34375 54.890625 33.015625 
z
" id="DejaVuSans-110"/>
     <path d="M 50.984375 -16.609375 
L 50.984375 -23.578125 
L -0.984375 -23.578125 
L -0.984375 -16.609375 
z
" id="DejaVuSans-95"/>
    </defs>
    <g transform="translate(131.88375 35.472)scale(0.12 -0.12)">
     <use xlink:href="#DejaVuSans-77"/>
     <use x="86.279297" xlink:href="#DejaVuSans-75"/>
     <use x="151.855469" xlink:href="#DejaVuSans-76"/>
     <use x="207.568359" xlink:href="#DejaVuSans-32"/>
     <use x="239.355469" xlink:href="#DejaVuSans-105"/>
     <use x="267.138672" xlink:href="#DejaVuSans-111"/>
     <use x="328.320312" xlink:href="#DejaVuSans-109"/>
     <use x="425.732422" xlink:href="#DejaVuSans-112"/>
     <use x="489.208984" xlink:href="#DejaVuSans-32"/>
     <use x="520.996094" xlink:href="#DejaVuSans-50"/>
     <use x="584.619141" xlink:href="#DejaVuSans-80"/>
     <use x="644.921875" xlink:href="#DejaVuSans-86"/>
     <use x="713.330078" xlink:href="#DejaVuSans-32"/>
     <use x="745.117188" xlink:href="#DejaVuSans-111"/>
     <use x="806.298828" xlink:href="#DejaVuSans-110"/>
     <use x="869.677734" xlink:href="#DejaVuSans-32"/>
     <use x="901.464844" xlink:href="#DejaVuSans-112"/>
     <use x="964.941406" xlink:href="#DejaVuSans-114"/>
     <use x="1003.804688" xlink:href="#DejaVuSans-101"/>
     <use x="1065.328125" xlink:href="#DejaVuSans-95"/>
     <use x="1115.328125" xlink:href="#DejaVuSans-116"/>
     <use x="1154.537109" xlink:href="#DejaVuSans-114"/>
     <use x="1195.650391" xlink:href="#DejaVuSans-97"/>
     <use x="1256.929688" xlink:href="#DejaVuSans-110"/>
     <use x="1320.308594" xlink:href="#DejaVuSans-115"/>
     <use x="1372.408203" xlink:href="#DejaVuSans-112"/>
     <use x="1435.884766" xlink:href="#DejaVuSans-111"/>
     <use x="1497.066406" xlink:href="#DejaVuSans-115"/>
     <use x="1549.166016" xlink:href="#DejaVuSans-101"/>
     <use x="1610.689453" xlink:href="#DejaVuSans-52"/>
     <use x="1674.3125" xlink:href="#DejaVuSans-50"/>
    </g>
   </g>
   <g id="legend_1">
    <g id="patch_7">
     <path d="M 313.152813 93.7845 
L 407.72 93.7845 
Q 409.72 93.7845 409.72 91.7845 
L 409.72 48.472 
Q 409.72 46.472 407.72 46.472 
L 313.152813 46.472 
Q 311.152813 46.472 311.152813 48.472 
L 311.152813 91.7845 
Q 311.152813 93.7845 313.152813 93.7845 
z
" style="fill:#ffffff;opacity:0.8;stroke:#cccccc;stroke-linejoin:miter;"/>
    </g>
    <g id="line2d_60">
     <path d="M 315.152813 54.570438 
L 335.152813 54.570438 
" style="fill:none;stroke:#0000ff;stroke-dasharray:1.5,2.475;stroke-dashoffset:0;stroke-width:1.5;"/>
    </g>
    <g id="line2d_61">
     <g>
      <use style="fill:#0000ff;stroke:#0000ff;" x="325.152813" xlink:href="#mf9521f1eaa" y="54.570438"/>
     </g>
    </g>
    <g id="text_32">
     <!-- transpose -->
     <g transform="translate(343.152813 58.070438)scale(0.1 -0.1)">
      <use xlink:href="#DejaVuSans-116"/>
      <use x="39.208984" xlink:href="#DejaVuSans-114"/>
      <use x="80.322266" xlink:href="#DejaVuSans-97"/>
      <use x="141.601562" xlink:href="#DejaVuSans-110"/>
      <use x="204.980469" xlink:href="#DejaVuSans-115"/>
      <use x="257.080078" xlink:href="#DejaVuSans-112"/>
      <use x="320.556641" xlink:href="#DejaVuSans-111"/>
      <use x="381.738281" xlink:href="#DejaVuSans-115"/>
      <use x="433.837891" xlink:href="#DejaVuSans-101"/>
     </g>
    </g>
    <g id="line2d_62">
     <path d="M 315.152813 69.248563 
L 335.152813 69.248563 
" style="fill:none;stroke:#ff0000;stroke-dasharray:1.5,2.475;stroke-dashoffset:0;stroke-width:1.5;"/>
    </g>
    <g id="line2d_63">
     <g>
      <use style="fill:#ff0000;stroke:#ff0000;" x="325.152813" xlink:href="#mf2f1eedaee" y="69.248563"/>
     </g>
    </g>
    <g id="text_33">
     <!-- transpose_tr -->
     <g transform="translate(343.152813 72.748563)scale(0.1 -0.1)">
      <use xlink:href="#DejaVuSans-116"/>
      <use x="39.208984" xlink:href="#DejaVuSans-114"/>
      <use x="80.322266" xlink:href="#DejaVuSans-97"/>
      <use x="141.601562" xlink:href="#DejaVuSans-110"/>
      <use x="204.980469" xlink:href="#DejaVuSans-115"/>
      <use x="257.080078" xlink:href="#DejaVuSans-112"/>
      <use x="320.556641" xlink:href="#DejaVuSans-111"/>
      <use x="381.738281" xlink:href="#DejaVuSans-115"/>
      <use x="433.837891" xlink:href="#DejaVuSans-101"/>
      <use x="495.361328" xlink:href="#DejaVuSans-95"/>
      <use x="545.361328" xlink:href="#DejaVuSans-116"/>
      <use x="584.570312" xlink:href="#DejaVuSans-114"/>
     </g>
    </g>
    <g id="line2d_64">
     <path d="M 315.152813 84.204813 
L 335.152813 84.204813 
" style="fill:none;stroke:#008000;stroke-dasharray:1.5,2.475;stroke-dashoffset:0;stroke-width:1.5;"/>
    </g>
    <g id="line2d_65">
     <g>
      <use style="fill:#008000;stroke:#008000;" x="325.152813" xlink:href="#m753d7d834a" y="84.204813"/>
     </g>
    </g>
    <g id="text_34">
     <!-- mean -->
     <g transform="translate(343.152813 87.704813)scale(0.1 -0.1)">
      <use xlink:href="#DejaVuSans-109"/>
      <use x="97.412109" xlink:href="#DejaVuSans-101"/>
      <use x="158.935547" xlink:href="#DejaVuSans-97"/>
      <use x="220.214844" xlink:href="#DejaVuSans-110"/>
     </g>
    </g>
   </g>
  </g>
 </g>
 <defs>
  <clipPath id="p8c1f19c22a">
   <rect height="266.112" width="357.12" x="57.6" y="41.472"/>
  </clipPath>
 </defs>
</svg>
