<?xml version="1.0" encoding="utf-8" standalone="no"?>
<!DOCTYPE svg PUBLIC "-//W3C//DTD SVG 1.1//EN"
  "http://www.w3.org/Graphics/SVG/1.1/DTD/svg11.dtd">
<!-- Created with matplotlib (https://matplotlib.org/) -->
<svg height="345.6pt" version="1.1" viewBox="0 0 460.8 345.6" width="460.8pt" xmlns="http://www.w3.org/2000/svg" xmlns:xlink="http://www.w3.org/1999/xlink">
 <defs>
  <style type="text/css">
*{stroke-linecap:butt;stroke-linejoin:round;}
  </style>
 </defs>
 <g id="figure_1">
  <g id="patch_1">
   <path d="M 0 345.6 
L 460.8 345.6 
L 460.8 0 
L 0 0 
z
" style="fill:#ffffff;"/>
  </g>
  <g id="axes_1">
   <g id="patch_2">
    <path d="M 57.6 307.584 
L 414.72 307.584 
L 414.72 41.472 
L 57.6 41.472 
z
" style="fill:#ffffff;"/>
   </g>
   <g id="matplotlib.axis_1">
    <g id="xtick_1">
     <g id="line2d_1">
      <defs>
       <path d="M 0 0 
L 0 3.5 
" id="m918be542ba" style="stroke:#000000;stroke-width:0.8;"/>
      </defs>
      <g>
       <use style="stroke:#000000;stroke-width:0.8;" x="75.456" xlink:href="#m918be542ba" y="307.584"/>
      </g>
     </g>
     <g id="text_1">
      <!-- Gustavson -->
      <defs>
       <path d="M 59.515625 10.40625 
L 59.515625 29.984375 
L 43.40625 29.984375 
L 43.40625 38.09375 
L 69.28125 38.09375 
L 69.28125 6.78125 
Q 63.578125 2.734375 56.6875 0.65625 
Q 49.8125 -1.421875 42 -1.421875 
Q 24.90625 -1.421875 15.25 8.5625 
Q 5.609375 18.5625 5.609375 36.375 
Q 5.609375 54.25 15.25 64.234375 
Q 24.90625 74.21875 42 74.21875 
Q 49.125 74.21875 55.546875 72.453125 
Q 61.96875 70.703125 67.390625 67.28125 
L 67.390625 56.78125 
Q 61.921875 61.421875 55.765625 63.765625 
Q 49.609375 66.109375 42.828125 66.109375 
Q 29.4375 66.109375 22.71875 58.640625 
Q 16.015625 51.171875 16.015625 36.375 
Q 16.015625 21.625 22.71875 14.15625 
Q 29.4375 6.6875 42.828125 6.6875 
Q 48.046875 6.6875 52.140625 7.59375 
Q 56.25 8.5 59.515625 10.40625 
z
" id="DejaVuSans-71"/>
       <path d="M 8.5 21.578125 
L 8.5 54.6875 
L 17.484375 54.6875 
L 17.484375 21.921875 
Q 17.484375 14.15625 20.5 10.265625 
Q 23.53125 6.390625 29.59375 6.390625 
Q 36.859375 6.390625 41.078125 11.03125 
Q 45.3125 15.671875 45.3125 23.6875 
L 45.3125 54.6875 
L 54.296875 54.6875 
L 54.296875 0 
L 45.3125 0 
L 45.3125 8.40625 
Q 42.046875 3.421875 37.71875 1 
Q 33.40625 -1.421875 27.6875 -1.421875 
Q 18.265625 -1.421875 13.375 4.4375 
Q 8.5 10.296875 8.5 21.578125 
z
M 31.109375 56 
z
" id="DejaVuSans-117"/>
       <path d="M 44.28125 53.078125 
L 44.28125 44.578125 
Q 40.484375 46.53125 36.375 47.5 
Q 32.28125 48.484375 27.875 48.484375 
Q 21.1875 48.484375 17.84375 46.4375 
Q 14.5 44.390625 14.5 40.28125 
Q 14.5 37.15625 16.890625 35.375 
Q 19.28125 33.59375 26.515625 31.984375 
L 29.59375 31.296875 
Q 39.15625 29.25 43.1875 25.515625 
Q 47.21875 21.78125 47.21875 15.09375 
Q 47.21875 7.46875 41.1875 3.015625 
Q 35.15625 -1.421875 24.609375 -1.421875 
Q 20.21875 -1.421875 15.453125 -0.5625 
Q 10.6875 0.296875 5.421875 2 
L 5.421875 11.28125 
Q 10.40625 8.6875 15.234375 7.390625 
Q 20.0625 6.109375 24.8125 6.109375 
Q 31.15625 6.109375 34.5625 8.28125 
Q 37.984375 10.453125 37.984375 14.40625 
Q 37.984375 18.0625 35.515625 20.015625 
Q 33.0625 21.96875 24.703125 23.78125 
L 21.578125 24.515625 
Q 13.234375 26.265625 9.515625 29.90625 
Q 5.8125 33.546875 5.8125 39.890625 
Q 5.8125 47.609375 11.28125 51.796875 
Q 16.75 56 26.8125 56 
Q 31.78125 56 36.171875 55.265625 
Q 40.578125 54.546875 44.28125 53.078125 
z
" id="DejaVuSans-115"/>
       <path d="M 18.3125 70.21875 
L 18.3125 54.6875 
L 36.8125 54.6875 
L 36.8125 47.703125 
L 18.3125 47.703125 
L 18.3125 18.015625 
Q 18.3125 11.328125 20.140625 9.421875 
Q 21.96875 7.515625 27.59375 7.515625 
L 36.8125 7.515625 
L 36.8125 0 
L 27.59375 0 
Q 17.1875 0 13.234375 3.875 
Q 9.28125 7.765625 9.28125 18.015625 
L 9.28125 47.703125 
L 2.6875 47.703125 
L 2.6875 54.6875 
L 9.28125 54.6875 
L 9.28125 70.21875 
z
" id="DejaVuSans-116"/>
       <path d="M 34.28125 27.484375 
Q 23.390625 27.484375 19.1875 25 
Q 14.984375 22.515625 14.984375 16.5 
Q 14.984375 11.71875 18.140625 8.90625 
Q 21.296875 6.109375 26.703125 6.109375 
Q 34.1875 6.109375 38.703125 11.40625 
Q 43.21875 16.703125 43.21875 25.484375 
L 43.21875 27.484375 
z
M 52.203125 31.203125 
L 52.203125 0 
L 43.21875 0 
L 43.21875 8.296875 
Q 40.140625 3.328125 35.546875 0.953125 
Q 30.953125 -1.421875 24.3125 -1.421875 
Q 15.921875 -1.421875 10.953125 3.296875 
Q 6 8.015625 6 15.921875 
Q 6 25.140625 12.171875 29.828125 
Q 18.359375 34.515625 30.609375 34.515625 
L 43.21875 34.515625 
L 43.21875 35.40625 
Q 43.21875 41.609375 39.140625 45 
Q 35.0625 48.390625 27.6875 48.390625 
Q 23 48.390625 18.546875 47.265625 
Q 14.109375 46.140625 10.015625 43.890625 
L 10.015625 52.203125 
Q 14.9375 54.109375 19.578125 55.046875 
Q 24.21875 56 28.609375 56 
Q 40.484375 56 46.34375 49.84375 
Q 52.203125 43.703125 52.203125 31.203125 
z
" id="DejaVuSans-97"/>
       <path d="M 2.984375 54.6875 
L 12.5 54.6875 
L 29.59375 8.796875 
L 46.6875 54.6875 
L 56.203125 54.6875 
L 35.6875 0 
L 23.484375 0 
z
" id="DejaVuSans-118"/>
       <path d="M 30.609375 48.390625 
Q 23.390625 48.390625 19.1875 42.75 
Q 14.984375 37.109375 14.984375 27.296875 
Q 14.984375 17.484375 19.15625 11.84375 
Q 23.34375 6.203125 30.609375 6.203125 
Q 37.796875 6.203125 41.984375 11.859375 
Q 46.1875 17.53125 46.1875 27.296875 
Q 46.1875 37.015625 41.984375 42.703125 
Q 37.796875 48.390625 30.609375 48.390625 
z
M 30.609375 56 
Q 42.328125 56 49.015625 48.375 
Q 55.71875 40.765625 55.71875 27.296875 
Q 55.71875 13.875 49.015625 6.21875 
Q 42.328125 -1.421875 30.609375 -1.421875 
Q 18.84375 -1.421875 12.171875 6.21875 
Q 5.515625 13.875 5.515625 27.296875 
Q 5.515625 40.765625 12.171875 48.375 
Q 18.84375 56 30.609375 56 
z
" id="DejaVuSans-111"/>
       <path d="M 54.890625 33.015625 
L 54.890625 0 
L 45.90625 0 
L 45.90625 32.71875 
Q 45.90625 40.484375 42.875 44.328125 
Q 39.84375 48.1875 33.796875 48.1875 
Q 26.515625 48.1875 22.3125 43.546875 
Q 18.109375 38.921875 18.109375 30.90625 
L 18.109375 0 
L 9.078125 0 
L 9.078125 54.6875 
L 18.109375 54.6875 
L 18.109375 46.1875 
Q 21.34375 51.125 25.703125 53.5625 
Q 30.078125 56 35.796875 56 
Q 45.21875 56 50.046875 50.171875 
Q 54.890625 44.34375 54.890625 33.015625 
z
" id="DejaVuSans-110"/>
      </defs>
      <g transform="translate(48.991938 322.182437)scale(0.1 -0.1)">
       <use xlink:href="#DejaVuSans-71"/>
       <use x="77.490234" xlink:href="#DejaVuSans-117"/>
       <use x="140.869141" xlink:href="#DejaVuSans-115"/>
       <use x="192.96875" xlink:href="#DejaVuSans-116"/>
       <use x="232.177734" xlink:href="#DejaVuSans-97"/>
       <use x="293.457031" xlink:href="#DejaVuSans-118"/>
       <use x="352.636719" xlink:href="#DejaVuSans-115"/>
       <use x="404.736328" xlink:href="#DejaVuSans-111"/>
       <use x="465.917969" xlink:href="#DejaVuSans-110"/>
      </g>
      <!-- 2 -->
      <defs>
       <path d="M 19.1875 8.296875 
L 53.609375 8.296875 
L 53.609375 0 
L 7.328125 0 
L 7.328125 8.296875 
Q 12.9375 14.109375 22.625 23.890625 
Q 32.328125 33.6875 34.8125 36.53125 
Q 39.546875 41.84375 41.421875 45.53125 
Q 43.3125 49.21875 43.3125 52.78125 
Q 43.3125 58.59375 39.234375 62.25 
Q 35.15625 65.921875 28.609375 65.921875 
Q 23.96875 65.921875 18.8125 64.3125 
Q 13.671875 62.703125 7.8125 59.421875 
L 7.8125 69.390625 
Q 13.765625 71.78125 18.9375 73 
Q 24.125 74.21875 28.421875 74.21875 
Q 39.75 74.21875 46.484375 68.546875 
Q 53.21875 62.890625 53.21875 53.421875 
Q 53.21875 48.921875 51.53125 44.890625 
Q 49.859375 40.875 45.40625 35.40625 
Q 44.1875 33.984375 37.640625 27.21875 
Q 31.109375 20.453125 19.1875 8.296875 
z
" id="DejaVuSans-50"/>
      </defs>
      <g transform="translate(72.27475 333.38025)scale(0.1 -0.1)">
       <use xlink:href="#DejaVuSans-50"/>
      </g>
     </g>
    </g>
    <g id="xtick_2">
     <g id="line2d_2">
      <g>
       <use style="stroke:#000000;stroke-width:0.8;" x="111.168" xlink:href="#m918be542ba" y="307.584"/>
      </g>
     </g>
     <g id="text_2">
      <!-- Gustavson -->
      <g transform="translate(84.703938 322.182437)scale(0.1 -0.1)">
       <use xlink:href="#DejaVuSans-71"/>
       <use x="77.490234" xlink:href="#DejaVuSans-117"/>
       <use x="140.869141" xlink:href="#DejaVuSans-115"/>
       <use x="192.96875" xlink:href="#DejaVuSans-116"/>
       <use x="232.177734" xlink:href="#DejaVuSans-97"/>
       <use x="293.457031" xlink:href="#DejaVuSans-118"/>
       <use x="352.636719" xlink:href="#DejaVuSans-115"/>
       <use x="404.736328" xlink:href="#DejaVuSans-111"/>
       <use x="465.917969" xlink:href="#DejaVuSans-110"/>
      </g>
      <!-- 2PV -->
      <defs>
       <path d="M 19.671875 64.796875 
L 19.671875 37.40625 
L 32.078125 37.40625 
Q 38.96875 37.40625 42.71875 40.96875 
Q 46.484375 44.53125 46.484375 51.125 
Q 46.484375 57.671875 42.71875 61.234375 
Q 38.96875 64.796875 32.078125 64.796875 
z
M 9.8125 72.90625 
L 32.078125 72.90625 
Q 44.34375 72.90625 50.609375 67.359375 
Q 56.890625 61.8125 56.890625 51.125 
Q 56.890625 40.328125 50.609375 34.8125 
Q 44.34375 29.296875 32.078125 29.296875 
L 19.671875 29.296875 
L 19.671875 0 
L 9.8125 0 
z
" id="DejaVuSans-80"/>
       <path d="M 28.609375 0 
L 0.78125 72.90625 
L 11.078125 72.90625 
L 34.1875 11.53125 
L 57.328125 72.90625 
L 67.578125 72.90625 
L 39.796875 0 
z
" id="DejaVuSans-86"/>
      </defs>
      <g transform="translate(101.551594 333.38025)scale(0.1 -0.1)">
       <use xlink:href="#DejaVuSans-50"/>
       <use x="63.623047" xlink:href="#DejaVuSans-80"/>
       <use x="123.925781" xlink:href="#DejaVuSans-86"/>
      </g>
     </g>
    </g>
    <g id="xtick_3">
     <g id="line2d_3">
      <g>
       <use style="stroke:#000000;stroke-width:0.8;" x="146.88" xlink:href="#m918be542ba" y="307.584"/>
      </g>
     </g>
     <g id="text_3">
      <!-- Gustavson -->
      <g transform="translate(120.415937 322.182437)scale(0.1 -0.1)">
       <use xlink:href="#DejaVuSans-71"/>
       <use x="77.490234" xlink:href="#DejaVuSans-117"/>
       <use x="140.869141" xlink:href="#DejaVuSans-115"/>
       <use x="192.96875" xlink:href="#DejaVuSans-116"/>
       <use x="232.177734" xlink:href="#DejaVuSans-97"/>
       <use x="293.457031" xlink:href="#DejaVuSans-118"/>
       <use x="352.636719" xlink:href="#DejaVuSans-115"/>
       <use x="404.736328" xlink:href="#DejaVuSans-111"/>
       <use x="465.917969" xlink:href="#DejaVuSans-110"/>
      </g>
      <!-- 3PV -->
      <defs>
       <path d="M 40.578125 39.3125 
Q 47.65625 37.796875 51.625 33 
Q 55.609375 28.21875 55.609375 21.1875 
Q 55.609375 10.40625 48.1875 4.484375 
Q 40.765625 -1.421875 27.09375 -1.421875 
Q 22.515625 -1.421875 17.65625 -0.515625 
Q 12.796875 0.390625 7.625 2.203125 
L 7.625 11.71875 
Q 11.71875 9.328125 16.59375 8.109375 
Q 21.484375 6.890625 26.8125 6.890625 
Q 36.078125 6.890625 40.9375 10.546875 
Q 45.796875 14.203125 45.796875 21.1875 
Q 45.796875 27.640625 41.28125 31.265625 
Q 36.765625 34.90625 28.71875 34.90625 
L 20.21875 34.90625 
L 20.21875 43.015625 
L 29.109375 43.015625 
Q 36.375 43.015625 40.234375 45.921875 
Q 44.09375 48.828125 44.09375 54.296875 
Q 44.09375 59.90625 40.109375 62.90625 
Q 36.140625 65.921875 28.71875 65.921875 
Q 24.65625 65.921875 20.015625 65.03125 
Q 15.375 64.15625 9.8125 62.3125 
L 9.8125 71.09375 
Q 15.4375 72.65625 20.34375 73.4375 
Q 25.25 74.21875 29.59375 74.21875 
Q 40.828125 74.21875 47.359375 69.109375 
Q 53.90625 64.015625 53.90625 55.328125 
Q 53.90625 49.265625 50.4375 45.09375 
Q 46.96875 40.921875 40.578125 39.3125 
z
" id="DejaVuSans-51"/>
      </defs>
      <g transform="translate(137.263594 333.38025)scale(0.1 -0.1)">
       <use xlink:href="#DejaVuSans-51"/>
       <use x="63.623047" xlink:href="#DejaVuSans-80"/>
       <use x="123.925781" xlink:href="#DejaVuSans-86"/>
      </g>
     </g>
    </g>
    <g id="xtick_4">
     <g id="line2d_4">
      <g>
       <use style="stroke:#000000;stroke-width:0.8;" x="182.592" xlink:href="#m918be542ba" y="307.584"/>
      </g>
     </g>
     <g id="text_4">
      <!-- MKL -->
      <defs>
       <path d="M 9.8125 72.90625 
L 24.515625 72.90625 
L 43.109375 23.296875 
L 61.8125 72.90625 
L 76.515625 72.90625 
L 76.515625 0 
L 66.890625 0 
L 66.890625 64.015625 
L 48.09375 14.015625 
L 38.1875 14.015625 
L 19.390625 64.015625 
L 19.390625 0 
L 9.8125 0 
z
" id="DejaVuSans-77"/>
       <path d="M 9.8125 72.90625 
L 19.671875 72.90625 
L 19.671875 42.09375 
L 52.390625 72.90625 
L 65.09375 72.90625 
L 28.90625 38.921875 
L 67.671875 0 
L 54.6875 0 
L 19.671875 35.109375 
L 19.671875 0 
L 9.8125 0 
z
" id="DejaVuSans-75"/>
       <path d="M 9.8125 72.90625 
L 19.671875 72.90625 
L 19.671875 8.296875 
L 55.171875 8.296875 
L 55.171875 0 
L 9.8125 0 
z
" id="DejaVuSans-76"/>
      </defs>
      <g transform="translate(172.213094 322.182437)scale(0.1 -0.1)">
       <use xlink:href="#DejaVuSans-77"/>
       <use x="86.279297" xlink:href="#DejaVuSans-75"/>
       <use x="151.855469" xlink:href="#DejaVuSans-76"/>
      </g>
      <!-- iomp 2PV -->
      <defs>
       <path d="M 9.421875 54.6875 
L 18.40625 54.6875 
L 18.40625 0 
L 9.421875 0 
z
M 9.421875 75.984375 
L 18.40625 75.984375 
L 18.40625 64.59375 
L 9.421875 64.59375 
z
" id="DejaVuSans-105"/>
       <path d="M 52 44.1875 
Q 55.375 50.25 60.0625 53.125 
Q 64.75 56 71.09375 56 
Q 79.640625 56 84.28125 50.015625 
Q 88.921875 44.046875 88.921875 33.015625 
L 88.921875 0 
L 79.890625 0 
L 79.890625 32.71875 
Q 79.890625 40.578125 77.09375 44.375 
Q 74.3125 48.1875 68.609375 48.1875 
Q 61.625 48.1875 57.5625 43.546875 
Q 53.515625 38.921875 53.515625 30.90625 
L 53.515625 0 
L 44.484375 0 
L 44.484375 32.71875 
Q 44.484375 40.625 41.703125 44.40625 
Q 38.921875 48.1875 33.109375 48.1875 
Q 26.21875 48.1875 22.15625 43.53125 
Q 18.109375 38.875 18.109375 30.90625 
L 18.109375 0 
L 9.078125 0 
L 9.078125 54.6875 
L 18.109375 54.6875 
L 18.109375 46.1875 
Q 21.1875 51.21875 25.484375 53.609375 
Q 29.78125 56 35.6875 56 
Q 41.65625 56 45.828125 52.96875 
Q 50 49.953125 52 44.1875 
z
" id="DejaVuSans-109"/>
       <path d="M 18.109375 8.203125 
L 18.109375 -20.796875 
L 9.078125 -20.796875 
L 9.078125 54.6875 
L 18.109375 54.6875 
L 18.109375 46.390625 
Q 20.953125 51.265625 25.265625 53.625 
Q 29.59375 56 35.59375 56 
Q 45.5625 56 51.78125 48.09375 
Q 58.015625 40.1875 58.015625 27.296875 
Q 58.015625 14.40625 51.78125 6.484375 
Q 45.5625 -1.421875 35.59375 -1.421875 
Q 29.59375 -1.421875 25.265625 0.953125 
Q 20.953125 3.328125 18.109375 8.203125 
z
M 48.6875 27.296875 
Q 48.6875 37.203125 44.609375 42.84375 
Q 40.53125 48.484375 33.40625 48.484375 
Q 26.265625 48.484375 22.1875 42.84375 
Q 18.109375 37.203125 18.109375 27.296875 
Q 18.109375 17.390625 22.1875 11.75 
Q 26.265625 6.109375 33.40625 6.109375 
Q 40.53125 6.109375 44.609375 11.75 
Q 48.6875 17.390625 48.6875 27.296875 
z
" id="DejaVuSans-112"/>
       <path id="DejaVuSans-32"/>
      </defs>
      <g transform="translate(158.893563 333.38025)scale(0.1 -0.1)">
       <use xlink:href="#DejaVuSans-105"/>
       <use x="27.783203" xlink:href="#DejaVuSans-111"/>
       <use x="88.964844" xlink:href="#DejaVuSans-109"/>
       <use x="186.376953" xlink:href="#DejaVuSans-112"/>
       <use x="249.853516" xlink:href="#DejaVuSans-32"/>
       <use x="281.640625" xlink:href="#DejaVuSans-50"/>
       <use x="345.263672" xlink:href="#DejaVuSans-80"/>
       <use x="405.566406" xlink:href="#DejaVuSans-86"/>
      </g>
     </g>
    </g>
    <g id="xtick_5">
     <g id="line2d_5">
      <g>
       <use style="stroke:#000000;stroke-width:0.8;" x="218.304" xlink:href="#m918be542ba" y="307.584"/>
      </g>
     </g>
     <g id="text_5">
      <!-- MKL -->
      <g transform="translate(207.925094 322.182437)scale(0.1 -0.1)">
       <use xlink:href="#DejaVuSans-77"/>
       <use x="86.279297" xlink:href="#DejaVuSans-75"/>
       <use x="151.855469" xlink:href="#DejaVuSans-76"/>
      </g>
      <!-- sequential 2 -->
      <defs>
       <path d="M 56.203125 29.59375 
L 56.203125 25.203125 
L 14.890625 25.203125 
Q 15.484375 15.921875 20.484375 11.0625 
Q 25.484375 6.203125 34.421875 6.203125 
Q 39.59375 6.203125 44.453125 7.46875 
Q 49.3125 8.734375 54.109375 11.28125 
L 54.109375 2.78125 
Q 49.265625 0.734375 44.1875 -0.34375 
Q 39.109375 -1.421875 33.890625 -1.421875 
Q 20.796875 -1.421875 13.15625 6.1875 
Q 5.515625 13.8125 5.515625 26.8125 
Q 5.515625 40.234375 12.765625 48.109375 
Q 20.015625 56 32.328125 56 
Q 43.359375 56 49.78125 48.890625 
Q 56.203125 41.796875 56.203125 29.59375 
z
M 47.21875 32.234375 
Q 47.125 39.59375 43.09375 43.984375 
Q 39.0625 48.390625 32.421875 48.390625 
Q 24.90625 48.390625 20.390625 44.140625 
Q 15.875 39.890625 15.1875 32.171875 
z
" id="DejaVuSans-101"/>
       <path d="M 14.796875 27.296875 
Q 14.796875 17.390625 18.875 11.75 
Q 22.953125 6.109375 30.078125 6.109375 
Q 37.203125 6.109375 41.296875 11.75 
Q 45.40625 17.390625 45.40625 27.296875 
Q 45.40625 37.203125 41.296875 42.84375 
Q 37.203125 48.484375 30.078125 48.484375 
Q 22.953125 48.484375 18.875 42.84375 
Q 14.796875 37.203125 14.796875 27.296875 
z
M 45.40625 8.203125 
Q 42.578125 3.328125 38.25 0.953125 
Q 33.9375 -1.421875 27.875 -1.421875 
Q 17.96875 -1.421875 11.734375 6.484375 
Q 5.515625 14.40625 5.515625 27.296875 
Q 5.515625 40.1875 11.734375 48.09375 
Q 17.96875 56 27.875 56 
Q 33.9375 56 38.25 53.625 
Q 42.578125 51.265625 45.40625 46.390625 
L 45.40625 54.6875 
L 54.390625 54.6875 
L 54.390625 -20.796875 
L 45.40625 -20.796875 
z
" id="DejaVuSans-113"/>
       <path d="M 9.421875 75.984375 
L 18.40625 75.984375 
L 18.40625 0 
L 9.421875 0 
z
" id="DejaVuSans-108"/>
      </defs>
      <g transform="translate(187.461813 333.38025)scale(0.1 -0.1)">
       <use xlink:href="#DejaVuSans-115"/>
       <use x="52.099609" xlink:href="#DejaVuSans-101"/>
       <use x="113.623047" xlink:href="#DejaVuSans-113"/>
       <use x="177.099609" xlink:href="#DejaVuSans-117"/>
       <use x="240.478516" xlink:href="#DejaVuSans-101"/>
       <use x="302.001953" xlink:href="#DejaVuSans-110"/>
       <use x="365.380859" xlink:href="#DejaVuSans-116"/>
       <use x="404.589844" xlink:href="#DejaVuSans-105"/>
       <use x="432.373047" xlink:href="#DejaVuSans-97"/>
       <use x="493.652344" xlink:href="#DejaVuSans-108"/>
       <use x="521.435547" xlink:href="#DejaVuSans-32"/>
       <use x="553.222656" xlink:href="#DejaVuSans-50"/>
      </g>
     </g>
    </g>
    <g id="xtick_6">
     <g id="line2d_6">
      <g>
       <use style="stroke:#000000;stroke-width:0.8;" x="254.016" xlink:href="#m918be542ba" y="307.584"/>
      </g>
     </g>
     <g id="text_6">
      <!-- std::sort -->
      <defs>
       <path d="M 45.40625 46.390625 
L 45.40625 75.984375 
L 54.390625 75.984375 
L 54.390625 0 
L 45.40625 0 
L 45.40625 8.203125 
Q 42.578125 3.328125 38.25 0.953125 
Q 33.9375 -1.421875 27.875 -1.421875 
Q 17.96875 -1.421875 11.734375 6.484375 
Q 5.515625 14.40625 5.515625 27.296875 
Q 5.515625 40.1875 11.734375 48.09375 
Q 17.96875 56 27.875 56 
Q 33.9375 56 38.25 53.625 
Q 42.578125 51.265625 45.40625 46.390625 
z
M 14.796875 27.296875 
Q 14.796875 17.390625 18.875 11.75 
Q 22.953125 6.109375 30.078125 6.109375 
Q 37.203125 6.109375 41.296875 11.75 
Q 45.40625 17.390625 45.40625 27.296875 
Q 45.40625 37.203125 41.296875 42.84375 
Q 37.203125 48.484375 30.078125 48.484375 
Q 22.953125 48.484375 18.875 42.84375 
Q 14.796875 37.203125 14.796875 27.296875 
z
" id="DejaVuSans-100"/>
       <path d="M 11.71875 12.40625 
L 22.015625 12.40625 
L 22.015625 0 
L 11.71875 0 
z
M 11.71875 51.703125 
L 22.015625 51.703125 
L 22.015625 39.3125 
L 11.71875 39.3125 
z
" id="DejaVuSans-58"/>
       <path d="M 41.109375 46.296875 
Q 39.59375 47.171875 37.8125 47.578125 
Q 36.03125 48 33.890625 48 
Q 26.265625 48 22.1875 43.046875 
Q 18.109375 38.09375 18.109375 28.8125 
L 18.109375 0 
L 9.078125 0 
L 9.078125 54.6875 
L 18.109375 54.6875 
L 18.109375 46.1875 
Q 20.953125 51.171875 25.484375 53.578125 
Q 30.03125 56 36.53125 56 
Q 37.453125 56 38.578125 55.875 
Q 39.703125 55.765625 41.0625 55.515625 
z
" id="DejaVuSans-114"/>
      </defs>
      <g transform="translate(233.2285 322.182437)scale(0.1 -0.1)">
       <use xlink:href="#DejaVuSans-115"/>
       <use x="52.099609" xlink:href="#DejaVuSans-116"/>
       <use x="91.308594" xlink:href="#DejaVuSans-100"/>
       <use x="154.785156" xlink:href="#DejaVuSans-58"/>
       <use x="188.476562" xlink:href="#DejaVuSans-58"/>
       <use x="222.167969" xlink:href="#DejaVuSans-115"/>
       <use x="274.267578" xlink:href="#DejaVuSans-111"/>
       <use x="335.449219" xlink:href="#DejaVuSans-114"/>
       <use x="376.5625" xlink:href="#DejaVuSans-116"/>
      </g>
      <!-- 2 -->
      <g transform="translate(250.83475 333.38025)scale(0.1 -0.1)">
       <use xlink:href="#DejaVuSans-50"/>
      </g>
     </g>
    </g>
    <g id="xtick_7">
     <g id="line2d_7">
      <g>
       <use style="stroke:#000000;stroke-width:0.8;" x="289.728" xlink:href="#m918be542ba" y="307.584"/>
      </g>
     </g>
     <g id="text_7">
      <!-- std::sort -->
      <g transform="translate(268.9405 322.182437)scale(0.1 -0.1)">
       <use xlink:href="#DejaVuSans-115"/>
       <use x="52.099609" xlink:href="#DejaVuSans-116"/>
       <use x="91.308594" xlink:href="#DejaVuSans-100"/>
       <use x="154.785156" xlink:href="#DejaVuSans-58"/>
       <use x="188.476562" xlink:href="#DejaVuSans-58"/>
       <use x="222.167969" xlink:href="#DejaVuSans-115"/>
       <use x="274.267578" xlink:href="#DejaVuSans-111"/>
       <use x="335.449219" xlink:href="#DejaVuSans-114"/>
       <use x="376.5625" xlink:href="#DejaVuSans-116"/>
      </g>
      <!-- 2PV -->
      <g transform="translate(280.111594 333.38025)scale(0.1 -0.1)">
       <use xlink:href="#DejaVuSans-50"/>
       <use x="63.623047" xlink:href="#DejaVuSans-80"/>
       <use x="123.925781" xlink:href="#DejaVuSans-86"/>
      </g>
     </g>
    </g>
    <g id="xtick_8">
     <g id="line2d_8">
      <g>
       <use style="stroke:#000000;stroke-width:0.8;" x="325.44" xlink:href="#m918be542ba" y="307.584"/>
      </g>
     </g>
     <g id="text_8">
      <!-- std::sort -->
      <g transform="translate(304.6525 322.182437)scale(0.1 -0.1)">
       <use xlink:href="#DejaVuSans-115"/>
       <use x="52.099609" xlink:href="#DejaVuSans-116"/>
       <use x="91.308594" xlink:href="#DejaVuSans-100"/>
       <use x="154.785156" xlink:href="#DejaVuSans-58"/>
       <use x="188.476562" xlink:href="#DejaVuSans-58"/>
       <use x="222.167969" xlink:href="#DejaVuSans-115"/>
       <use x="274.267578" xlink:href="#DejaVuSans-111"/>
       <use x="335.449219" xlink:href="#DejaVuSans-114"/>
       <use x="376.5625" xlink:href="#DejaVuSans-116"/>
      </g>
      <!-- 3PV -->
      <g transform="translate(315.823594 333.38025)scale(0.1 -0.1)">
       <use xlink:href="#DejaVuSans-51"/>
       <use x="63.623047" xlink:href="#DejaVuSans-80"/>
       <use x="123.925781" xlink:href="#DejaVuSans-86"/>
      </g>
     </g>
    </g>
    <g id="xtick_9">
     <g id="line2d_9">
      <g>
       <use style="stroke:#000000;stroke-width:0.8;" x="361.152" xlink:href="#m918be542ba" y="307.584"/>
      </g>
     </g>
     <g id="text_9">
      <!-- tbb::parallel_sort -->
      <defs>
       <path d="M 48.6875 27.296875 
Q 48.6875 37.203125 44.609375 42.84375 
Q 40.53125 48.484375 33.40625 48.484375 
Q 26.265625 48.484375 22.1875 42.84375 
Q 18.109375 37.203125 18.109375 27.296875 
Q 18.109375 17.390625 22.1875 11.75 
Q 26.265625 6.109375 33.40625 6.109375 
Q 40.53125 6.109375 44.609375 11.75 
Q 48.6875 17.390625 48.6875 27.296875 
z
M 18.109375 46.390625 
Q 20.953125 51.265625 25.265625 53.625 
Q 29.59375 56 35.59375 56 
Q 45.5625 56 51.78125 48.09375 
Q 58.015625 40.1875 58.015625 27.296875 
Q 58.015625 14.40625 51.78125 6.484375 
Q 45.5625 -1.421875 35.59375 -1.421875 
Q 29.59375 -1.421875 25.265625 0.953125 
Q 20.953125 3.328125 18.109375 8.203125 
L 18.109375 0 
L 9.078125 0 
L 9.078125 75.984375 
L 18.109375 75.984375 
z
" id="DejaVuSans-98"/>
       <path d="M 50.984375 -16.609375 
L 50.984375 -23.578125 
L -0.984375 -23.578125 
L -0.984375 -16.609375 
z
" id="DejaVuSans-95"/>
      </defs>
      <g transform="translate(318.693406 322.182437)scale(0.1 -0.1)">
       <use xlink:href="#DejaVuSans-116"/>
       <use x="39.208984" xlink:href="#DejaVuSans-98"/>
       <use x="102.685547" xlink:href="#DejaVuSans-98"/>
       <use x="166.162109" xlink:href="#DejaVuSans-58"/>
       <use x="199.853516" xlink:href="#DejaVuSans-58"/>
       <use x="233.544922" xlink:href="#DejaVuSans-112"/>
       <use x="297.021484" xlink:href="#DejaVuSans-97"/>
       <use x="358.300781" xlink:href="#DejaVuSans-114"/>
       <use x="399.414062" xlink:href="#DejaVuSans-97"/>
       <use x="460.693359" xlink:href="#DejaVuSans-108"/>
       <use x="488.476562" xlink:href="#DejaVuSans-108"/>
       <use x="516.259766" xlink:href="#DejaVuSans-101"/>
       <use x="577.783203" xlink:href="#DejaVuSans-108"/>
       <use x="605.566406" xlink:href="#DejaVuSans-95"/>
       <use x="655.566406" xlink:href="#DejaVuSans-115"/>
       <use x="707.666016" xlink:href="#DejaVuSans-111"/>
       <use x="768.847656" xlink:href="#DejaVuSans-114"/>
       <use x="809.960938" xlink:href="#DejaVuSans-116"/>
      </g>
      <!-- 2PV -->
      <g transform="translate(351.535594 333.658375)scale(0.1 -0.1)">
       <use xlink:href="#DejaVuSans-50"/>
       <use x="63.623047" xlink:href="#DejaVuSans-80"/>
       <use x="123.925781" xlink:href="#DejaVuSans-86"/>
      </g>
     </g>
    </g>
    <g id="xtick_10">
     <g id="line2d_10">
      <g>
       <use style="stroke:#000000;stroke-width:0.8;" x="396.864" xlink:href="#m918be542ba" y="307.584"/>
      </g>
     </g>
     <g id="text_10">
      <!-- tbb::parallel_sort -->
      <g transform="translate(354.405406 322.182437)scale(0.1 -0.1)">
       <use xlink:href="#DejaVuSans-116"/>
       <use x="39.208984" xlink:href="#DejaVuSans-98"/>
       <use x="102.685547" xlink:href="#DejaVuSans-98"/>
       <use x="166.162109" xlink:href="#DejaVuSans-58"/>
       <use x="199.853516" xlink:href="#DejaVuSans-58"/>
       <use x="233.544922" xlink:href="#DejaVuSans-112"/>
       <use x="297.021484" xlink:href="#DejaVuSans-97"/>
       <use x="358.300781" xlink:href="#DejaVuSans-114"/>
       <use x="399.414062" xlink:href="#DejaVuSans-97"/>
       <use x="460.693359" xlink:href="#DejaVuSans-108"/>
       <use x="488.476562" xlink:href="#DejaVuSans-108"/>
       <use x="516.259766" xlink:href="#DejaVuSans-101"/>
       <use x="577.783203" xlink:href="#DejaVuSans-108"/>
       <use x="605.566406" xlink:href="#DejaVuSans-95"/>
       <use x="655.566406" xlink:href="#DejaVuSans-115"/>
       <use x="707.666016" xlink:href="#DejaVuSans-111"/>
       <use x="768.847656" xlink:href="#DejaVuSans-114"/>
       <use x="809.960938" xlink:href="#DejaVuSans-116"/>
      </g>
      <!-- 3PV -->
      <g transform="translate(387.247594 333.658375)scale(0.1 -0.1)">
       <use xlink:href="#DejaVuSans-51"/>
       <use x="63.623047" xlink:href="#DejaVuSans-80"/>
       <use x="123.925781" xlink:href="#DejaVuSans-86"/>
      </g>
     </g>
    </g>
    <g id="text_11">
     <!-- name -->
     <g transform="translate(221.980312 347.3365)scale(0.1 -0.1)">
      <use xlink:href="#DejaVuSans-110"/>
      <use x="63.378906" xlink:href="#DejaVuSans-97"/>
      <use x="124.658203" xlink:href="#DejaVuSans-109"/>
      <use x="222.070312" xlink:href="#DejaVuSans-101"/>
     </g>
    </g>
   </g>
   <g id="matplotlib.axis_2">
    <g id="ytick_1">
     <g id="line2d_11">
      <path clip-path="url(#p9cdc73870d)" d="M 57.6 289.814619 
L 414.72 289.814619 
" style="fill:none;stroke:#b0b0b0;stroke-dasharray:5.12,1.28,0.8,1.28;stroke-dashoffset:0;stroke-width:0.8;"/>
     </g>
     <g id="line2d_12">
      <defs>
       <path d="M 0 0 
L -3.5 0 
" id="m62817d5b9b" style="stroke:#000000;stroke-width:0.8;"/>
      </defs>
      <g>
       <use style="stroke:#000000;stroke-width:0.8;" x="57.6" xlink:href="#m62817d5b9b" y="289.814619"/>
      </g>
     </g>
     <g id="text_12">
      <!-- 0.5 -->
      <defs>
       <path d="M 31.78125 66.40625 
Q 24.171875 66.40625 20.328125 58.90625 
Q 16.5 51.421875 16.5 36.375 
Q 16.5 21.390625 20.328125 13.890625 
Q 24.171875 6.390625 31.78125 6.390625 
Q 39.453125 6.390625 43.28125 13.890625 
Q 47.125 21.390625 47.125 36.375 
Q 47.125 51.421875 43.28125 58.90625 
Q 39.453125 66.40625 31.78125 66.40625 
z
M 31.78125 74.21875 
Q 44.046875 74.21875 50.515625 64.515625 
Q 56.984375 54.828125 56.984375 36.375 
Q 56.984375 17.96875 50.515625 8.265625 
Q 44.046875 -1.421875 31.78125 -1.421875 
Q 19.53125 -1.421875 13.0625 8.265625 
Q 6.59375 17.96875 6.59375 36.375 
Q 6.59375 54.828125 13.0625 64.515625 
Q 19.53125 74.21875 31.78125 74.21875 
z
" id="DejaVuSans-48"/>
       <path d="M 10.6875 12.40625 
L 21 12.40625 
L 21 0 
L 10.6875 0 
z
" id="DejaVuSans-46"/>
       <path d="M 10.796875 72.90625 
L 49.515625 72.90625 
L 49.515625 64.59375 
L 19.828125 64.59375 
L 19.828125 46.734375 
Q 21.96875 47.46875 24.109375 47.828125 
Q 26.265625 48.1875 28.421875 48.1875 
Q 40.625 48.1875 47.75 41.5 
Q 54.890625 34.8125 54.890625 23.390625 
Q 54.890625 11.625 47.5625 5.09375 
Q 40.234375 -1.421875 26.90625 -1.421875 
Q 22.3125 -1.421875 17.546875 -0.640625 
Q 12.796875 0.140625 7.71875 1.703125 
L 7.71875 11.625 
Q 12.109375 9.234375 16.796875 8.0625 
Q 21.484375 6.890625 26.703125 6.890625 
Q 35.15625 6.890625 40.078125 11.328125 
Q 45.015625 15.765625 45.015625 23.390625 
Q 45.015625 31 40.078125 35.4375 
Q 35.15625 39.890625 26.703125 39.890625 
Q 22.75 39.890625 18.8125 39.015625 
Q 14.890625 38.140625 10.796875 36.28125 
z
" id="DejaVuSans-53"/>
      </defs>
      <g transform="translate(34.696875 293.613838)scale(0.1 -0.1)">
       <use xlink:href="#DejaVuSans-48"/>
       <use x="63.623047" xlink:href="#DejaVuSans-46"/>
       <use x="95.410156" xlink:href="#DejaVuSans-53"/>
      </g>
     </g>
    </g>
    <g id="ytick_2">
     <g id="line2d_13">
      <path clip-path="url(#p9cdc73870d)" d="M 57.6 236.447219 
L 414.72 236.447219 
" style="fill:none;stroke:#b0b0b0;stroke-dasharray:5.12,1.28,0.8,1.28;stroke-dashoffset:0;stroke-width:0.8;"/>
     </g>
     <g id="line2d_14">
      <g>
       <use style="stroke:#000000;stroke-width:0.8;" x="57.6" xlink:href="#m62817d5b9b" y="236.447219"/>
      </g>
     </g>
     <g id="text_13">
      <!-- 1.0 -->
      <defs>
       <path d="M 12.40625 8.296875 
L 28.515625 8.296875 
L 28.515625 63.921875 
L 10.984375 60.40625 
L 10.984375 69.390625 
L 28.421875 72.90625 
L 38.28125 72.90625 
L 38.28125 8.296875 
L 54.390625 8.296875 
L 54.390625 0 
L 12.40625 0 
z
" id="DejaVuSans-49"/>
      </defs>
      <g transform="translate(34.696875 240.246437)scale(0.1 -0.1)">
       <use xlink:href="#DejaVuSans-49"/>
       <use x="63.623047" xlink:href="#DejaVuSans-46"/>
       <use x="95.410156" xlink:href="#DejaVuSans-48"/>
      </g>
     </g>
    </g>
    <g id="ytick_3">
     <g id="line2d_15">
      <path clip-path="url(#p9cdc73870d)" d="M 57.6 183.079818 
L 414.72 183.079818 
" style="fill:none;stroke:#b0b0b0;stroke-dasharray:5.12,1.28,0.8,1.28;stroke-dashoffset:0;stroke-width:0.8;"/>
     </g>
     <g id="line2d_16">
      <g>
       <use style="stroke:#000000;stroke-width:0.8;" x="57.6" xlink:href="#m62817d5b9b" y="183.079818"/>
      </g>
     </g>
     <g id="text_14">
      <!-- 1.5 -->
      <g transform="translate(34.696875 186.879037)scale(0.1 -0.1)">
       <use xlink:href="#DejaVuSans-49"/>
       <use x="63.623047" xlink:href="#DejaVuSans-46"/>
       <use x="95.410156" xlink:href="#DejaVuSans-53"/>
      </g>
     </g>
    </g>
    <g id="ytick_4">
     <g id="line2d_17">
      <path clip-path="url(#p9cdc73870d)" d="M 57.6 129.712417 
L 414.72 129.712417 
" style="fill:none;stroke:#b0b0b0;stroke-dasharray:5.12,1.28,0.8,1.28;stroke-dashoffset:0;stroke-width:0.8;"/>
     </g>
     <g id="line2d_18">
      <g>
       <use style="stroke:#000000;stroke-width:0.8;" x="57.6" xlink:href="#m62817d5b9b" y="129.712417"/>
      </g>
     </g>
     <g id="text_15">
      <!-- 2.0 -->
      <g transform="translate(34.696875 133.511636)scale(0.1 -0.1)">
       <use xlink:href="#DejaVuSans-50"/>
       <use x="63.623047" xlink:href="#DejaVuSans-46"/>
       <use x="95.410156" xlink:href="#DejaVuSans-48"/>
      </g>
     </g>
    </g>
    <g id="ytick_5">
     <g id="line2d_19">
      <path clip-path="url(#p9cdc73870d)" d="M 57.6 76.345016 
L 414.72 76.345016 
" style="fill:none;stroke:#b0b0b0;stroke-dasharray:5.12,1.28,0.8,1.28;stroke-dashoffset:0;stroke-width:0.8;"/>
     </g>
     <g id="line2d_20">
      <g>
       <use style="stroke:#000000;stroke-width:0.8;" x="57.6" xlink:href="#m62817d5b9b" y="76.345016"/>
      </g>
     </g>
     <g id="text_16">
      <!-- 2.5 -->
      <g transform="translate(34.696875 80.144235)scale(0.1 -0.1)">
       <use xlink:href="#DejaVuSans-50"/>
       <use x="63.623047" xlink:href="#DejaVuSans-46"/>
       <use x="95.410156" xlink:href="#DejaVuSans-53"/>
      </g>
     </g>
    </g>
    <g id="text_17">
     <!-- duration (s) -->
     <defs>
      <path d="M 31 75.875 
Q 24.46875 64.65625 21.28125 53.65625 
Q 18.109375 42.671875 18.109375 31.390625 
Q 18.109375 20.125 21.3125 9.0625 
Q 24.515625 -2 31 -13.1875 
L 23.1875 -13.1875 
Q 15.875 -1.703125 12.234375 9.375 
Q 8.59375 20.453125 8.59375 31.390625 
Q 8.59375 42.28125 12.203125 53.3125 
Q 15.828125 64.359375 23.1875 75.875 
z
" id="DejaVuSans-40"/>
      <path d="M 8.015625 75.875 
L 15.828125 75.875 
Q 23.140625 64.359375 26.78125 53.3125 
Q 30.421875 42.28125 30.421875 31.390625 
Q 30.421875 20.453125 26.78125 9.375 
Q 23.140625 -1.703125 15.828125 -13.1875 
L 8.015625 -13.1875 
Q 14.5 -2 17.703125 9.0625 
Q 20.90625 20.125 20.90625 31.390625 
Q 20.90625 42.671875 17.703125 53.65625 
Q 14.5 64.65625 8.015625 75.875 
z
" id="DejaVuSans-41"/>
     </defs>
     <g transform="translate(28.617187 203.663156)rotate(-90)scale(0.1 -0.1)">
      <use xlink:href="#DejaVuSans-100"/>
      <use x="63.476562" xlink:href="#DejaVuSans-117"/>
      <use x="126.855469" xlink:href="#DejaVuSans-114"/>
      <use x="167.96875" xlink:href="#DejaVuSans-97"/>
      <use x="229.248047" xlink:href="#DejaVuSans-116"/>
      <use x="268.457031" xlink:href="#DejaVuSans-105"/>
      <use x="296.240234" xlink:href="#DejaVuSans-111"/>
      <use x="357.421875" xlink:href="#DejaVuSans-110"/>
      <use x="420.800781" xlink:href="#DejaVuSans-32"/>
      <use x="452.587891" xlink:href="#DejaVuSans-40"/>
      <use x="491.601562" xlink:href="#DejaVuSans-115"/>
      <use x="543.701172" xlink:href="#DejaVuSans-41"/>
     </g>
    </g>
   </g>
   <g id="line2d_21">
    <path clip-path="url(#p9cdc73870d)" d="M 66.528 174.677924 
L 84.384 174.677924 
L 84.384 174.593286 
L 66.528 174.593286 
L 66.528 174.677924 
" style="fill:none;stroke:#696969;stroke-linecap:square;"/>
   </g>
   <g id="line2d_22">
    <path clip-path="url(#p9cdc73870d)" d="M 75.456 174.677924 
L 75.456 174.688969 
" style="fill:none;stroke:#696969;stroke-linecap:square;"/>
   </g>
   <g id="line2d_23">
    <path clip-path="url(#p9cdc73870d)" d="M 75.456 174.593286 
L 75.456 174.503787 
" style="fill:none;stroke:#696969;stroke-linecap:square;"/>
   </g>
   <g id="line2d_24">
    <path clip-path="url(#p9cdc73870d)" d="M 70.992 174.688969 
L 79.92 174.688969 
" style="fill:none;stroke:#4169e1;stroke-linecap:square;"/>
   </g>
   <g id="line2d_25">
    <path clip-path="url(#p9cdc73870d)" d="M 70.992 174.503787 
L 79.92 174.503787 
" style="fill:none;stroke:#4169e1;stroke-linecap:square;"/>
   </g>
   <g id="line2d_26"/>
   <g id="line2d_27">
    <path clip-path="url(#p9cdc73870d)" d="M 102.24 173.690203 
L 120.096 173.690203 
L 120.096 173.646064 
L 102.24 173.646064 
L 102.24 173.690203 
" style="fill:none;stroke:#696969;stroke-linecap:square;"/>
   </g>
   <g id="line2d_28">
    <path clip-path="url(#p9cdc73870d)" d="M 111.168 173.690203 
L 111.168 173.715778 
" style="fill:none;stroke:#696969;stroke-linecap:square;"/>
   </g>
   <g id="line2d_29">
    <path clip-path="url(#p9cdc73870d)" d="M 111.168 173.646064 
L 111.168 173.625973 
" style="fill:none;stroke:#696969;stroke-linecap:square;"/>
   </g>
   <g id="line2d_30">
    <path clip-path="url(#p9cdc73870d)" d="M 106.704 173.715778 
L 115.632 173.715778 
" style="fill:none;stroke:#4169e1;stroke-linecap:square;"/>
   </g>
   <g id="line2d_31">
    <path clip-path="url(#p9cdc73870d)" d="M 106.704 173.625973 
L 115.632 173.625973 
" style="fill:none;stroke:#4169e1;stroke-linecap:square;"/>
   </g>
   <g id="line2d_32">
    <defs>
     <path d="M -3 0 
L 3 0 
M 0 3 
L 0 -3 
" id="m1f58ec4f9b" style="stroke:#0000ff;"/>
    </defs>
    <g clip-path="url(#p9cdc73870d)">
     <use style="fill:#0000ff;stroke:#0000ff;" x="111.168" xlink:href="#m1f58ec4f9b" y="173.806574"/>
    </g>
   </g>
   <g id="line2d_33">
    <path clip-path="url(#p9cdc73870d)" d="M 137.952 172.172116 
L 155.808 172.172116 
L 155.808 172.130916 
L 137.952 172.130916 
L 137.952 172.172116 
" style="fill:none;stroke:#696969;stroke-linecap:square;"/>
   </g>
   <g id="line2d_34">
    <path clip-path="url(#p9cdc73870d)" d="M 146.88 172.172116 
L 146.88 172.182638 
" style="fill:none;stroke:#696969;stroke-linecap:square;"/>
   </g>
   <g id="line2d_35">
    <path clip-path="url(#p9cdc73870d)" d="M 146.88 172.130916 
L 146.88 172.127239 
" style="fill:none;stroke:#696969;stroke-linecap:square;"/>
   </g>
   <g id="line2d_36">
    <path clip-path="url(#p9cdc73870d)" d="M 142.416 172.182638 
L 151.344 172.182638 
" style="fill:none;stroke:#4169e1;stroke-linecap:square;"/>
   </g>
   <g id="line2d_37">
    <path clip-path="url(#p9cdc73870d)" d="M 142.416 172.127239 
L 151.344 172.127239 
" style="fill:none;stroke:#4169e1;stroke-linecap:square;"/>
   </g>
   <g id="line2d_38">
    <g clip-path="url(#p9cdc73870d)">
     <use style="fill:#0000ff;stroke:#0000ff;" x="146.88" xlink:href="#m1f58ec4f9b" y="172.031607"/>
    </g>
   </g>
   <g id="line2d_39">
    <path clip-path="url(#p9cdc73870d)" d="M 173.664 289.884702 
L 191.52 289.884702 
L 191.52 289.129177 
L 173.664 289.129177 
L 173.664 289.884702 
" style="fill:none;stroke:#696969;stroke-linecap:square;"/>
   </g>
   <g id="line2d_40">
    <path clip-path="url(#p9cdc73870d)" d="M 182.592 289.884702 
L 182.592 290.274533 
" style="fill:none;stroke:#696969;stroke-linecap:square;"/>
   </g>
   <g id="line2d_41">
    <path clip-path="url(#p9cdc73870d)" d="M 182.592 289.129177 
L 182.592 288.851455 
" style="fill:none;stroke:#696969;stroke-linecap:square;"/>
   </g>
   <g id="line2d_42">
    <path clip-path="url(#p9cdc73870d)" d="M 178.128 290.274533 
L 187.056 290.274533 
" style="fill:none;stroke:#4169e1;stroke-linecap:square;"/>
   </g>
   <g id="line2d_43">
    <path clip-path="url(#p9cdc73870d)" d="M 178.128 288.851455 
L 187.056 288.851455 
" style="fill:none;stroke:#4169e1;stroke-linecap:square;"/>
   </g>
   <g id="line2d_44"/>
   <g id="line2d_45">
    <path clip-path="url(#p9cdc73870d)" d="M 209.376 164.253446 
L 227.232 164.253446 
L 227.232 164.142507 
L 209.376 164.142507 
L 209.376 164.253446 
" style="fill:none;stroke:#696969;stroke-linecap:square;"/>
   </g>
   <g id="line2d_46">
    <path clip-path="url(#p9cdc73870d)" d="M 218.304 164.253446 
L 218.304 164.268015 
" style="fill:none;stroke:#696969;stroke-linecap:square;"/>
   </g>
   <g id="line2d_47">
    <path clip-path="url(#p9cdc73870d)" d="M 218.304 164.142507 
L 218.304 164.078888 
" style="fill:none;stroke:#696969;stroke-linecap:square;"/>
   </g>
   <g id="line2d_48">
    <path clip-path="url(#p9cdc73870d)" d="M 213.84 164.268015 
L 222.768 164.268015 
" style="fill:none;stroke:#4169e1;stroke-linecap:square;"/>
   </g>
   <g id="line2d_49">
    <path clip-path="url(#p9cdc73870d)" d="M 213.84 164.078888 
L 222.768 164.078888 
" style="fill:none;stroke:#4169e1;stroke-linecap:square;"/>
   </g>
   <g id="line2d_50"/>
   <g id="line2d_51">
    <path clip-path="url(#p9cdc73870d)" d="M 245.088 65.159147 
L 262.944 65.159147 
L 262.944 65.044697 
L 245.088 65.044697 
L 245.088 65.159147 
" style="fill:none;stroke:#696969;stroke-linecap:square;"/>
   </g>
   <g id="line2d_52">
    <path clip-path="url(#p9cdc73870d)" d="M 254.016 65.159147 
L 254.016 65.211175 
" style="fill:none;stroke:#696969;stroke-linecap:square;"/>
   </g>
   <g id="line2d_53">
    <path clip-path="url(#p9cdc73870d)" d="M 254.016 65.044697 
L 254.016 64.986727 
" style="fill:none;stroke:#696969;stroke-linecap:square;"/>
   </g>
   <g id="line2d_54">
    <path clip-path="url(#p9cdc73870d)" d="M 249.552 65.211175 
L 258.48 65.211175 
" style="fill:none;stroke:#4169e1;stroke-linecap:square;"/>
   </g>
   <g id="line2d_55">
    <path clip-path="url(#p9cdc73870d)" d="M 249.552 64.986727 
L 258.48 64.986727 
" style="fill:none;stroke:#4169e1;stroke-linecap:square;"/>
   </g>
   <g id="line2d_56"/>
   <g id="line2d_57">
    <path clip-path="url(#p9cdc73870d)" d="M 280.8 66.527017 
L 298.656 66.527017 
L 298.656 66.389219 
L 280.8 66.389219 
L 280.8 66.527017 
" style="fill:none;stroke:#696969;stroke-linecap:square;"/>
   </g>
   <g id="line2d_58">
    <path clip-path="url(#p9cdc73870d)" d="M 289.728 66.527017 
L 289.728 66.631607 
" style="fill:none;stroke:#696969;stroke-linecap:square;"/>
   </g>
   <g id="line2d_59">
    <path clip-path="url(#p9cdc73870d)" d="M 289.728 66.389219 
L 289.728 66.199125 
" style="fill:none;stroke:#696969;stroke-linecap:square;"/>
   </g>
   <g id="line2d_60">
    <path clip-path="url(#p9cdc73870d)" d="M 285.264 66.631607 
L 294.192 66.631607 
" style="fill:none;stroke:#4169e1;stroke-linecap:square;"/>
   </g>
   <g id="line2d_61">
    <path clip-path="url(#p9cdc73870d)" d="M 285.264 66.199125 
L 294.192 66.199125 
" style="fill:none;stroke:#4169e1;stroke-linecap:square;"/>
   </g>
   <g id="line2d_62"/>
   <g id="line2d_63">
    <path clip-path="url(#p9cdc73870d)" d="M 316.512 65.087054 
L 334.368 65.087054 
L 334.368 64.97553 
L 316.512 64.97553 
L 316.512 65.087054 
" style="fill:none;stroke:#696969;stroke-linecap:square;"/>
   </g>
   <g id="line2d_64">
    <path clip-path="url(#p9cdc73870d)" d="M 325.44 65.087054 
L 325.44 65.106483 
" style="fill:none;stroke:#696969;stroke-linecap:square;"/>
   </g>
   <g id="line2d_65">
    <path clip-path="url(#p9cdc73870d)" d="M 325.44 64.97553 
L 325.44 64.904201 
" style="fill:none;stroke:#696969;stroke-linecap:square;"/>
   </g>
   <g id="line2d_66">
    <path clip-path="url(#p9cdc73870d)" d="M 320.976 65.106483 
L 329.904 65.106483 
" style="fill:none;stroke:#4169e1;stroke-linecap:square;"/>
   </g>
   <g id="line2d_67">
    <path clip-path="url(#p9cdc73870d)" d="M 320.976 64.904201 
L 329.904 64.904201 
" style="fill:none;stroke:#4169e1;stroke-linecap:square;"/>
   </g>
   <g id="line2d_68"/>
   <g id="line2d_69">
    <path clip-path="url(#p9cdc73870d)" d="M 352.224 295.201257 
L 370.08 295.201257 
L 370.08 294.798918 
L 352.224 294.798918 
L 352.224 295.201257 
" style="fill:none;stroke:#696969;stroke-linecap:square;"/>
   </g>
   <g id="line2d_70">
    <path clip-path="url(#p9cdc73870d)" d="M 361.152 295.201257 
L 361.152 295.488 
" style="fill:none;stroke:#696969;stroke-linecap:square;"/>
   </g>
   <g id="line2d_71">
    <path clip-path="url(#p9cdc73870d)" d="M 361.152 294.798918 
L 361.152 294.765289 
" style="fill:none;stroke:#696969;stroke-linecap:square;"/>
   </g>
   <g id="line2d_72">
    <path clip-path="url(#p9cdc73870d)" d="M 356.688 295.488 
L 365.616 295.488 
" style="fill:none;stroke:#4169e1;stroke-linecap:square;"/>
   </g>
   <g id="line2d_73">
    <path clip-path="url(#p9cdc73870d)" d="M 356.688 294.765289 
L 365.616 294.765289 
" style="fill:none;stroke:#4169e1;stroke-linecap:square;"/>
   </g>
   <g id="line2d_74">
    <g clip-path="url(#p9cdc73870d)">
     <use style="fill:#0000ff;stroke:#0000ff;" x="361.152" xlink:href="#m1f58ec4f9b" y="293.877042"/>
    </g>
   </g>
   <g id="line2d_75">
    <path clip-path="url(#p9cdc73870d)" d="M 387.936 293.8597 
L 405.792 293.8597 
L 405.792 292.883353 
L 387.936 292.883353 
L 387.936 293.8597 
" style="fill:none;stroke:#696969;stroke-linecap:square;"/>
   </g>
   <g id="line2d_76">
    <path clip-path="url(#p9cdc73870d)" d="M 396.864 293.8597 
L 396.864 294.260232 
" style="fill:none;stroke:#696969;stroke-linecap:square;"/>
   </g>
   <g id="line2d_77">
    <path clip-path="url(#p9cdc73870d)" d="M 396.864 292.883353 
L 396.864 292.452361 
" style="fill:none;stroke:#696969;stroke-linecap:square;"/>
   </g>
   <g id="line2d_78">
    <path clip-path="url(#p9cdc73870d)" d="M 392.4 294.260232 
L 401.328 294.260232 
" style="fill:none;stroke:#4169e1;stroke-linecap:square;"/>
   </g>
   <g id="line2d_79">
    <path clip-path="url(#p9cdc73870d)" d="M 392.4 292.452361 
L 401.328 292.452361 
" style="fill:none;stroke:#4169e1;stroke-linecap:square;"/>
   </g>
   <g id="line2d_80"/>
   <g id="line2d_81">
    <path clip-path="url(#p9cdc73870d)" d="M 66.528 159.31947 
L 84.384 159.31947 
L 84.384 159.27103 
L 66.528 159.27103 
L 66.528 159.31947 
" style="fill:none;stroke:#696969;stroke-linecap:square;"/>
   </g>
   <g id="line2d_82">
    <path clip-path="url(#p9cdc73870d)" d="M 75.456 159.31947 
L 75.456 159.37338 
" style="fill:none;stroke:#696969;stroke-linecap:square;"/>
   </g>
   <g id="line2d_83">
    <path clip-path="url(#p9cdc73870d)" d="M 75.456 159.27103 
L 75.456 159.263218 
" style="fill:none;stroke:#696969;stroke-linecap:square;"/>
   </g>
   <g id="line2d_84">
    <path clip-path="url(#p9cdc73870d)" d="M 70.992 159.37338 
L 79.92 159.37338 
" style="fill:none;stroke:#b22222;stroke-linecap:square;"/>
   </g>
   <g id="line2d_85">
    <path clip-path="url(#p9cdc73870d)" d="M 70.992 159.263218 
L 79.92 159.263218 
" style="fill:none;stroke:#b22222;stroke-linecap:square;"/>
   </g>
   <g id="line2d_86"/>
   <g id="line2d_87">
    <path clip-path="url(#p9cdc73870d)" d="M 102.24 158.522745 
L 120.096 158.522745 
L 120.096 157.923964 
L 102.24 157.923964 
L 102.24 158.522745 
" style="fill:none;stroke:#696969;stroke-linecap:square;"/>
   </g>
   <g id="line2d_88">
    <path clip-path="url(#p9cdc73870d)" d="M 111.168 158.522745 
L 111.168 158.557608 
" style="fill:none;stroke:#696969;stroke-linecap:square;"/>
   </g>
   <g id="line2d_89">
    <path clip-path="url(#p9cdc73870d)" d="M 111.168 157.923964 
L 111.168 157.870116 
" style="fill:none;stroke:#696969;stroke-linecap:square;"/>
   </g>
   <g id="line2d_90">
    <path clip-path="url(#p9cdc73870d)" d="M 106.704 158.557608 
L 115.632 158.557608 
" style="fill:none;stroke:#b22222;stroke-linecap:square;"/>
   </g>
   <g id="line2d_91">
    <path clip-path="url(#p9cdc73870d)" d="M 106.704 157.870116 
L 115.632 157.870116 
" style="fill:none;stroke:#b22222;stroke-linecap:square;"/>
   </g>
   <g id="line2d_92"/>
   <g id="line2d_93">
    <path clip-path="url(#p9cdc73870d)" d="M 137.952 156.053275 
L 155.808 156.053275 
L 155.808 156.02298 
L 137.952 156.02298 
L 137.952 156.053275 
" style="fill:none;stroke:#696969;stroke-linecap:square;"/>
   </g>
   <g id="line2d_94">
    <path clip-path="url(#p9cdc73870d)" d="M 146.88 156.053275 
L 146.88 156.072196 
" style="fill:none;stroke:#696969;stroke-linecap:square;"/>
   </g>
   <g id="line2d_95">
    <path clip-path="url(#p9cdc73870d)" d="M 146.88 156.02298 
L 146.88 156.003665 
" style="fill:none;stroke:#696969;stroke-linecap:square;"/>
   </g>
   <g id="line2d_96">
    <path clip-path="url(#p9cdc73870d)" d="M 142.416 156.072196 
L 151.344 156.072196 
" style="fill:none;stroke:#b22222;stroke-linecap:square;"/>
   </g>
   <g id="line2d_97">
    <path clip-path="url(#p9cdc73870d)" d="M 142.416 156.003665 
L 151.344 156.003665 
" style="fill:none;stroke:#b22222;stroke-linecap:square;"/>
   </g>
   <g id="line2d_98">
    <defs>
     <path d="M -3 0 
L 3 0 
M 0 3 
L 0 -3 
" id="m1d3edfac24" style="stroke:#ff0000;"/>
    </defs>
    <g clip-path="url(#p9cdc73870d)">
     <use style="fill:#ff0000;stroke:#ff0000;" x="146.88" xlink:href="#m1d3edfac24" y="155.920833"/>
    </g>
   </g>
   <g id="line2d_99">
    <path clip-path="url(#p9cdc73870d)" d="M 173.664 214.36006 
L 191.52 214.36006 
L 191.52 214.055593 
L 173.664 214.055593 
L 173.664 214.36006 
" style="fill:none;stroke:#696969;stroke-linecap:square;"/>
   </g>
   <g id="line2d_100">
    <path clip-path="url(#p9cdc73870d)" d="M 182.592 214.36006 
L 182.592 214.507121 
" style="fill:none;stroke:#696969;stroke-linecap:square;"/>
   </g>
   <g id="line2d_101">
    <path clip-path="url(#p9cdc73870d)" d="M 182.592 214.055593 
L 182.592 213.959897 
" style="fill:none;stroke:#696969;stroke-linecap:square;"/>
   </g>
   <g id="line2d_102">
    <path clip-path="url(#p9cdc73870d)" d="M 178.128 214.507121 
L 187.056 214.507121 
" style="fill:none;stroke:#b22222;stroke-linecap:square;"/>
   </g>
   <g id="line2d_103">
    <path clip-path="url(#p9cdc73870d)" d="M 178.128 213.959897 
L 187.056 213.959897 
" style="fill:none;stroke:#b22222;stroke-linecap:square;"/>
   </g>
   <g id="line2d_104">
    <g clip-path="url(#p9cdc73870d)">
     <use style="fill:#ff0000;stroke:#ff0000;" x="182.592" xlink:href="#m1d3edfac24" y="213.072744"/>
    </g>
   </g>
   <g id="line2d_105">
    <path clip-path="url(#p9cdc73870d)" d="M 209.376 107.522578 
L 227.232 107.522578 
L 227.232 106.742177 
L 209.376 106.742177 
L 209.376 107.522578 
" style="fill:none;stroke:#696969;stroke-linecap:square;"/>
   </g>
   <g id="line2d_106">
    <path clip-path="url(#p9cdc73870d)" d="M 218.304 107.522578 
L 218.304 107.830493 
" style="fill:none;stroke:#696969;stroke-linecap:square;"/>
   </g>
   <g id="line2d_107">
    <path clip-path="url(#p9cdc73870d)" d="M 218.304 106.742177 
L 218.304 106.308805 
" style="fill:none;stroke:#696969;stroke-linecap:square;"/>
   </g>
   <g id="line2d_108">
    <path clip-path="url(#p9cdc73870d)" d="M 213.84 107.830493 
L 222.768 107.830493 
" style="fill:none;stroke:#b22222;stroke-linecap:square;"/>
   </g>
   <g id="line2d_109">
    <path clip-path="url(#p9cdc73870d)" d="M 213.84 106.308805 
L 222.768 106.308805 
" style="fill:none;stroke:#b22222;stroke-linecap:square;"/>
   </g>
   <g id="line2d_110"/>
   <g id="line2d_111">
    <path clip-path="url(#p9cdc73870d)" d="M 245.088 54.18121 
L 262.944 54.18121 
L 262.944 54.109931 
L 245.088 54.109931 
L 245.088 54.18121 
" style="fill:none;stroke:#696969;stroke-linecap:square;"/>
   </g>
   <g id="line2d_112">
    <path clip-path="url(#p9cdc73870d)" d="M 254.016 54.18121 
L 254.016 54.206403 
" style="fill:none;stroke:#696969;stroke-linecap:square;"/>
   </g>
   <g id="line2d_113">
    <path clip-path="url(#p9cdc73870d)" d="M 254.016 54.109931 
L 254.016 54.094459 
" style="fill:none;stroke:#696969;stroke-linecap:square;"/>
   </g>
   <g id="line2d_114">
    <path clip-path="url(#p9cdc73870d)" d="M 249.552 54.206403 
L 258.48 54.206403 
" style="fill:none;stroke:#b22222;stroke-linecap:square;"/>
   </g>
   <g id="line2d_115">
    <path clip-path="url(#p9cdc73870d)" d="M 249.552 54.094459 
L 258.48 54.094459 
" style="fill:none;stroke:#b22222;stroke-linecap:square;"/>
   </g>
   <g id="line2d_116">
    <g clip-path="url(#p9cdc73870d)">
     <use style="fill:#ff0000;stroke:#ff0000;" x="254.016" xlink:href="#m1d3edfac24" y="53.905104"/>
    </g>
   </g>
   <g id="line2d_117">
    <path clip-path="url(#p9cdc73870d)" d="M 280.8 54.6263 
L 298.656 54.6263 
L 298.656 54.494431 
L 280.8 54.494431 
L 280.8 54.6263 
" style="fill:none;stroke:#696969;stroke-linecap:square;"/>
   </g>
   <g id="line2d_118">
    <path clip-path="url(#p9cdc73870d)" d="M 289.728 54.6263 
L 289.728 54.716397 
" style="fill:none;stroke:#696969;stroke-linecap:square;"/>
   </g>
   <g id="line2d_119">
    <path clip-path="url(#p9cdc73870d)" d="M 289.728 54.494431 
L 289.728 54.491085 
" style="fill:none;stroke:#696969;stroke-linecap:square;"/>
   </g>
   <g id="line2d_120">
    <path clip-path="url(#p9cdc73870d)" d="M 285.264 54.716397 
L 294.192 54.716397 
" style="fill:none;stroke:#b22222;stroke-linecap:square;"/>
   </g>
   <g id="line2d_121">
    <path clip-path="url(#p9cdc73870d)" d="M 285.264 54.491085 
L 294.192 54.491085 
" style="fill:none;stroke:#b22222;stroke-linecap:square;"/>
   </g>
   <g id="line2d_122"/>
   <g id="line2d_123">
    <path clip-path="url(#p9cdc73870d)" d="M 316.512 53.689067 
L 334.368 53.689067 
L 334.368 53.599415 
L 316.512 53.599415 
L 316.512 53.689067 
" style="fill:none;stroke:#696969;stroke-linecap:square;"/>
   </g>
   <g id="line2d_124">
    <path clip-path="url(#p9cdc73870d)" d="M 325.44 53.689067 
L 325.44 53.740407 
" style="fill:none;stroke:#696969;stroke-linecap:square;"/>
   </g>
   <g id="line2d_125">
    <path clip-path="url(#p9cdc73870d)" d="M 325.44 53.599415 
L 325.44 53.568 
" style="fill:none;stroke:#696969;stroke-linecap:square;"/>
   </g>
   <g id="line2d_126">
    <path clip-path="url(#p9cdc73870d)" d="M 320.976 53.740407 
L 329.904 53.740407 
" style="fill:none;stroke:#b22222;stroke-linecap:square;"/>
   </g>
   <g id="line2d_127">
    <path clip-path="url(#p9cdc73870d)" d="M 320.976 53.568 
L 329.904 53.568 
" style="fill:none;stroke:#b22222;stroke-linecap:square;"/>
   </g>
   <g id="line2d_128"/>
   <g id="line2d_129">
    <path clip-path="url(#p9cdc73870d)" d="M 352.224 285.583454 
L 370.08 285.583454 
L 370.08 282.580451 
L 352.224 282.580451 
L 352.224 285.583454 
" style="fill:none;stroke:#696969;stroke-linecap:square;"/>
   </g>
   <g id="line2d_130">
    <path clip-path="url(#p9cdc73870d)" d="M 361.152 285.583454 
L 361.152 287.775888 
" style="fill:none;stroke:#696969;stroke-linecap:square;"/>
   </g>
   <g id="line2d_131">
    <path clip-path="url(#p9cdc73870d)" d="M 361.152 282.580451 
L 361.152 282.212212 
" style="fill:none;stroke:#696969;stroke-linecap:square;"/>
   </g>
   <g id="line2d_132">
    <path clip-path="url(#p9cdc73870d)" d="M 356.688 287.775888 
L 365.616 287.775888 
" style="fill:none;stroke:#b22222;stroke-linecap:square;"/>
   </g>
   <g id="line2d_133">
    <path clip-path="url(#p9cdc73870d)" d="M 356.688 282.212212 
L 365.616 282.212212 
" style="fill:none;stroke:#b22222;stroke-linecap:square;"/>
   </g>
   <g id="line2d_134"/>
   <g id="line2d_135">
    <path clip-path="url(#p9cdc73870d)" d="M 387.936 281.776957 
L 405.792 281.776957 
L 405.792 279.842408 
L 387.936 279.842408 
L 387.936 281.776957 
" style="fill:none;stroke:#696969;stroke-linecap:square;"/>
   </g>
   <g id="line2d_136">
    <path clip-path="url(#p9cdc73870d)" d="M 396.864 281.776957 
L 396.864 282.95808 
" style="fill:none;stroke:#696969;stroke-linecap:square;"/>
   </g>
   <g id="line2d_137">
    <path clip-path="url(#p9cdc73870d)" d="M 396.864 279.842408 
L 396.864 279.705576 
" style="fill:none;stroke:#696969;stroke-linecap:square;"/>
   </g>
   <g id="line2d_138">
    <path clip-path="url(#p9cdc73870d)" d="M 392.4 282.95808 
L 401.328 282.95808 
" style="fill:none;stroke:#b22222;stroke-linecap:square;"/>
   </g>
   <g id="line2d_139">
    <path clip-path="url(#p9cdc73870d)" d="M 392.4 279.705576 
L 401.328 279.705576 
" style="fill:none;stroke:#b22222;stroke-linecap:square;"/>
   </g>
   <g id="line2d_140">
    <g clip-path="url(#p9cdc73870d)">
     <use style="fill:#ff0000;stroke:#ff0000;" x="396.864" xlink:href="#m1d3edfac24" y="284.926906"/>
     <use style="fill:#ff0000;stroke:#ff0000;" x="396.864" xlink:href="#m1d3edfac24" y="273.700843"/>
    </g>
   </g>
   <g id="line2d_141">
    <path clip-path="url(#p9cdc73870d)" d="M 66.528 174.623543 
L 84.384 174.623543 
" style="fill:none;stroke:#0000ff;stroke-linecap:square;"/>
   </g>
   <g id="line2d_142">
    <path clip-path="url(#p9cdc73870d)" d="M 102.24 173.65908 
L 120.096 173.65908 
" style="fill:none;stroke:#0000ff;stroke-linecap:square;"/>
   </g>
   <g id="line2d_143">
    <path clip-path="url(#p9cdc73870d)" d="M 137.952 172.148564 
L 155.808 172.148564 
" style="fill:none;stroke:#0000ff;stroke-linecap:square;"/>
   </g>
   <g id="line2d_144">
    <path clip-path="url(#p9cdc73870d)" d="M 173.664 289.770213 
L 191.52 289.770213 
" style="fill:none;stroke:#0000ff;stroke-linecap:square;"/>
   </g>
   <g id="line2d_145">
    <path clip-path="url(#p9cdc73870d)" d="M 209.376 164.20236 
L 227.232 164.20236 
" style="fill:none;stroke:#0000ff;stroke-linecap:square;"/>
   </g>
   <g id="line2d_146">
    <path clip-path="url(#p9cdc73870d)" d="M 245.088 65.098595 
L 262.944 65.098595 
" style="fill:none;stroke:#0000ff;stroke-linecap:square;"/>
   </g>
   <g id="line2d_147">
    <path clip-path="url(#p9cdc73870d)" d="M 280.8 66.458487 
L 298.656 66.458487 
" style="fill:none;stroke:#0000ff;stroke-linecap:square;"/>
   </g>
   <g id="line2d_148">
    <path clip-path="url(#p9cdc73870d)" d="M 316.512 65.039022 
L 334.368 65.039022 
" style="fill:none;stroke:#0000ff;stroke-linecap:square;"/>
   </g>
   <g id="line2d_149">
    <path clip-path="url(#p9cdc73870d)" d="M 352.224 294.835855 
L 370.08 294.835855 
" style="fill:none;stroke:#0000ff;stroke-linecap:square;"/>
   </g>
   <g id="line2d_150">
    <path clip-path="url(#p9cdc73870d)" d="M 387.936 293.633789 
L 405.792 293.633789 
" style="fill:none;stroke:#0000ff;stroke-linecap:square;"/>
   </g>
   <g id="line2d_151">
    <path clip-path="url(#p9cdc73870d)" d="M 66.528 159.28607 
L 84.384 159.28607 
" style="fill:none;stroke:#ff0000;stroke-linecap:square;"/>
   </g>
   <g id="line2d_152">
    <path clip-path="url(#p9cdc73870d)" d="M 102.24 158.008017 
L 120.096 158.008017 
" style="fill:none;stroke:#ff0000;stroke-linecap:square;"/>
   </g>
   <g id="line2d_153">
    <path clip-path="url(#p9cdc73870d)" d="M 137.952 156.043134 
L 155.808 156.043134 
" style="fill:none;stroke:#ff0000;stroke-linecap:square;"/>
   </g>
   <g id="line2d_154">
    <path clip-path="url(#p9cdc73870d)" d="M 173.664 214.180095 
L 191.52 214.180095 
" style="fill:none;stroke:#ff0000;stroke-linecap:square;"/>
   </g>
   <g id="line2d_155">
    <path clip-path="url(#p9cdc73870d)" d="M 209.376 107.040754 
L 227.232 107.040754 
" style="fill:none;stroke:#ff0000;stroke-linecap:square;"/>
   </g>
   <g id="line2d_156">
    <path clip-path="url(#p9cdc73870d)" d="M 245.088 54.158358 
L 262.944 54.158358 
" style="fill:none;stroke:#ff0000;stroke-linecap:square;"/>
   </g>
   <g id="line2d_157">
    <path clip-path="url(#p9cdc73870d)" d="M 280.8 54.495869 
L 298.656 54.495869 
" style="fill:none;stroke:#ff0000;stroke-linecap:square;"/>
   </g>
   <g id="line2d_158">
    <path clip-path="url(#p9cdc73870d)" d="M 316.512 53.641874 
L 334.368 53.641874 
" style="fill:none;stroke:#ff0000;stroke-linecap:square;"/>
   </g>
   <g id="line2d_159">
    <path clip-path="url(#p9cdc73870d)" d="M 352.224 282.952303 
L 370.08 282.952303 
" style="fill:none;stroke:#ff0000;stroke-linecap:square;"/>
   </g>
   <g id="line2d_160">
    <path clip-path="url(#p9cdc73870d)" d="M 387.936 280.459842 
L 405.792 280.459842 
" style="fill:none;stroke:#ff0000;stroke-linecap:square;"/>
   </g>
   <g id="patch_3">
    <path d="M 57.6 307.584 
L 57.6 41.472 
" style="fill:none;stroke:#000000;stroke-linecap:square;stroke-linejoin:miter;stroke-width:0.8;"/>
   </g>
   <g id="patch_4">
    <path d="M 414.72 307.584 
L 414.72 41.472 
" style="fill:none;stroke:#000000;stroke-linecap:square;stroke-linejoin:miter;stroke-width:0.8;"/>
   </g>
   <g id="patch_5">
    <path d="M 57.6 307.584 
L 414.72 307.584 
" style="fill:none;stroke:#000000;stroke-linecap:square;stroke-linejoin:miter;stroke-width:0.8;"/>
   </g>
   <g id="patch_6">
    <path d="M 57.6 41.472 
L 414.72 41.472 
" style="fill:none;stroke:#000000;stroke-linecap:square;stroke-linejoin:miter;stroke-width:0.8;"/>
   </g>
   <g id="text_18">
    <!-- pre_transpose42 -->
    <defs>
     <path d="M 37.796875 64.3125 
L 12.890625 25.390625 
L 37.796875 25.390625 
z
M 35.203125 72.90625 
L 47.609375 72.90625 
L 47.609375 25.390625 
L 58.015625 25.390625 
L 58.015625 17.1875 
L 47.609375 17.1875 
L 47.609375 0 
L 37.796875 0 
L 37.796875 17.1875 
L 4.890625 17.1875 
L 4.890625 26.703125 
z
" id="DejaVuSans-52"/>
    </defs>
    <g transform="translate(185.970937 35.472)scale(0.12 -0.12)">
     <use xlink:href="#DejaVuSans-112"/>
     <use x="63.476562" xlink:href="#DejaVuSans-114"/>
     <use x="102.339844" xlink:href="#DejaVuSans-101"/>
     <use x="163.863281" xlink:href="#DejaVuSans-95"/>
     <use x="213.863281" xlink:href="#DejaVuSans-116"/>
     <use x="253.072266" xlink:href="#DejaVuSans-114"/>
     <use x="294.185547" xlink:href="#DejaVuSans-97"/>
     <use x="355.464844" xlink:href="#DejaVuSans-110"/>
     <use x="418.84375" xlink:href="#DejaVuSans-115"/>
     <use x="470.943359" xlink:href="#DejaVuSans-112"/>
     <use x="534.419922" xlink:href="#DejaVuSans-111"/>
     <use x="595.601562" xlink:href="#DejaVuSans-115"/>
     <use x="647.701172" xlink:href="#DejaVuSans-101"/>
     <use x="709.224609" xlink:href="#DejaVuSans-52"/>
     <use x="772.847656" xlink:href="#DejaVuSans-50"/>
    </g>
   </g>
   <g id="legend_1">
    <g id="patch_7">
     <path d="M 64.6 93.7845 
L 183.65 93.7845 
Q 185.65 93.7845 185.65 91.7845 
L 185.65 48.472 
Q 185.65 46.472 183.65 46.472 
L 64.6 46.472 
Q 62.6 46.472 62.6 48.472 
L 62.6 91.7845 
Q 62.6 93.7845 64.6 93.7845 
z
" style="fill:#ffffff;opacity:0.8;stroke:#cccccc;stroke-linejoin:miter;"/>
    </g>
    <g id="line2d_161">
     <path d="M 66.6 54.570438 
L 86.6 54.570438 
" style="fill:none;stroke:#0000ff;stroke-linecap:square;"/>
    </g>
    <g id="line2d_162"/>
    <g id="text_19">
     <!-- transpose -->
     <g transform="translate(94.6 58.070438)scale(0.1 -0.1)">
      <use xlink:href="#DejaVuSans-116"/>
      <use x="39.208984" xlink:href="#DejaVuSans-114"/>
      <use x="80.322266" xlink:href="#DejaVuSans-97"/>
      <use x="141.601562" xlink:href="#DejaVuSans-110"/>
      <use x="204.980469" xlink:href="#DejaVuSans-115"/>
      <use x="257.080078" xlink:href="#DejaVuSans-112"/>
      <use x="320.556641" xlink:href="#DejaVuSans-111"/>
      <use x="381.738281" xlink:href="#DejaVuSans-115"/>
      <use x="433.837891" xlink:href="#DejaVuSans-101"/>
     </g>
    </g>
    <g id="line2d_163">
     <path d="M 66.6 69.248563 
L 86.6 69.248563 
" style="fill:none;stroke:#ff0000;stroke-linecap:square;"/>
    </g>
    <g id="line2d_164"/>
    <g id="text_20">
     <!-- transpose_tr -->
     <g transform="translate(94.6 72.748563)scale(0.1 -0.1)">
      <use xlink:href="#DejaVuSans-116"/>
      <use x="39.208984" xlink:href="#DejaVuSans-114"/>
      <use x="80.322266" xlink:href="#DejaVuSans-97"/>
      <use x="141.601562" xlink:href="#DejaVuSans-110"/>
      <use x="204.980469" xlink:href="#DejaVuSans-115"/>
      <use x="257.080078" xlink:href="#DejaVuSans-112"/>
      <use x="320.556641" xlink:href="#DejaVuSans-111"/>
      <use x="381.738281" xlink:href="#DejaVuSans-115"/>
      <use x="433.837891" xlink:href="#DejaVuSans-101"/>
      <use x="495.361328" xlink:href="#DejaVuSans-95"/>
      <use x="545.361328" xlink:href="#DejaVuSans-116"/>
      <use x="584.570312" xlink:href="#DejaVuSans-114"/>
     </g>
    </g>
    <g id="line2d_165"/>
    <g id="line2d_166">
     <defs>
      <path d="M 0 1.5 
C 0.397805 1.5 0.77937 1.341951 1.06066 1.06066 
C 1.341951 0.77937 1.5 0.397805 1.5 0 
C 1.5 -0.397805 1.341951 -0.77937 1.06066 -1.06066 
C 0.77937 -1.341951 0.397805 -1.5 0 -1.5 
C -0.397805 -1.5 -0.77937 -1.341951 -1.06066 -1.06066 
C -1.341951 -0.77937 -1.5 -0.397805 -1.5 0 
C -1.5 0.397805 -1.341951 0.77937 -1.06066 1.06066 
C -0.77937 1.341951 -0.397805 1.5 0 1.5 
z
" id="m94600f700c" style="stroke:#008000;"/>
     </defs>
     <g>
      <use style="fill:#008000;stroke:#008000;" x="76.6" xlink:href="#m94600f700c" y="84.204813"/>
     </g>
    </g>
    <g id="text_21">
     <!-- mean of medians -->
     <defs>
      <path d="M 37.109375 75.984375 
L 37.109375 68.5 
L 28.515625 68.5 
Q 23.6875 68.5 21.796875 66.546875 
Q 19.921875 64.59375 19.921875 59.515625 
L 19.921875 54.6875 
L 34.71875 54.6875 
L 34.71875 47.703125 
L 19.921875 47.703125 
L 19.921875 0 
L 10.890625 0 
L 10.890625 47.703125 
L 2.296875 47.703125 
L 2.296875 54.6875 
L 10.890625 54.6875 
L 10.890625 58.5 
Q 10.890625 67.625 15.140625 71.796875 
Q 19.390625 75.984375 28.609375 75.984375 
z
" id="DejaVuSans-102"/>
     </defs>
     <g transform="translate(94.6 87.704813)scale(0.1 -0.1)">
      <use xlink:href="#DejaVuSans-109"/>
      <use x="97.412109" xlink:href="#DejaVuSans-101"/>
      <use x="158.935547" xlink:href="#DejaVuSans-97"/>
      <use x="220.214844" xlink:href="#DejaVuSans-110"/>
      <use x="283.59375" xlink:href="#DejaVuSans-32"/>
      <use x="315.380859" xlink:href="#DejaVuSans-111"/>
      <use x="376.5625" xlink:href="#DejaVuSans-102"/>
      <use x="411.767578" xlink:href="#DejaVuSans-32"/>
      <use x="443.554688" xlink:href="#DejaVuSans-109"/>
      <use x="540.966797" xlink:href="#DejaVuSans-101"/>
      <use x="602.490234" xlink:href="#DejaVuSans-100"/>
      <use x="665.966797" xlink:href="#DejaVuSans-105"/>
      <use x="693.75" xlink:href="#DejaVuSans-97"/>
      <use x="755.029297" xlink:href="#DejaVuSans-110"/>
      <use x="818.408203" xlink:href="#DejaVuSans-115"/>
     </g>
    </g>
   </g>
   <g id="line2d_167">
    <g clip-path="url(#p9cdc73870d)">
     <use style="fill:#008000;stroke:#008000;" x="75.456" xlink:href="#m94600f700c" y="166.954806"/>
     <use style="fill:#008000;stroke:#008000;" x="111.168" xlink:href="#m94600f700c" y="165.833549"/>
     <use style="fill:#008000;stroke:#008000;" x="146.88" xlink:href="#m94600f700c" y="164.095849"/>
     <use style="fill:#008000;stroke:#008000;" x="182.592" xlink:href="#m94600f700c" y="251.975154"/>
     <use style="fill:#008000;stroke:#008000;" x="218.304" xlink:href="#m94600f700c" y="135.621557"/>
     <use style="fill:#008000;stroke:#008000;" x="254.016" xlink:href="#m94600f700c" y="59.628476"/>
     <use style="fill:#008000;stroke:#008000;" x="289.728" xlink:href="#m94600f700c" y="60.477178"/>
     <use style="fill:#008000;stroke:#008000;" x="325.44" xlink:href="#m94600f700c" y="59.340448"/>
     <use style="fill:#008000;stroke:#008000;" x="361.152" xlink:href="#m94600f700c" y="288.894079"/>
     <use style="fill:#008000;stroke:#008000;" x="396.864" xlink:href="#m94600f700c" y="287.046815"/>
    </g>
   </g>
  </g>
 </g>
 <defs>
  <clipPath id="p9cdc73870d">
   <rect height="266.112" width="357.12" x="57.6" y="41.472"/>
  </clipPath>
 </defs>
</svg>
