<?xml version="1.0" encoding="utf-8" standalone="no"?>
<!DOCTYPE svg PUBLIC "-//W3C//DTD SVG 1.1//EN"
  "http://www.w3.org/Graphics/SVG/1.1/DTD/svg11.dtd">
<!-- Created with matplotlib (https://matplotlib.org/) -->
<svg height="345.6pt" version="1.1" viewBox="0 0 460.8 345.6" width="460.8pt" xmlns="http://www.w3.org/2000/svg" xmlns:xlink="http://www.w3.org/1999/xlink">
 <defs>
  <style type="text/css">
*{stroke-linecap:butt;stroke-linejoin:round;}
  </style>
 </defs>
 <g id="figure_1">
  <g id="patch_1">
   <path d="M 0 345.6 
L 460.8 345.6 
L 460.8 0 
L 0 0 
z
" style="fill:#ffffff;"/>
  </g>
  <g id="axes_1">
   <g id="patch_2">
    <path d="M 57.6 307.584 
L 414.72 307.584 
L 414.72 41.472 
L 57.6 41.472 
z
" style="fill:#ffffff;"/>
   </g>
   <g id="matplotlib.axis_1">
    <g id="xtick_1">
     <g id="line2d_1">
      <defs>
       <path d="M 0 0 
L 0 3.5 
" id="m828dda8b9a" style="stroke:#000000;stroke-width:0.8;"/>
      </defs>
      <g>
       <use style="stroke:#000000;stroke-width:0.8;" x="75.456" xlink:href="#m828dda8b9a" y="307.584"/>
      </g>
     </g>
     <g id="text_1">
      <!-- Gustavson -->
      <defs>
       <path d="M 59.515625 10.40625 
L 59.515625 29.984375 
L 43.40625 29.984375 
L 43.40625 38.09375 
L 69.28125 38.09375 
L 69.28125 6.78125 
Q 63.578125 2.734375 56.6875 0.65625 
Q 49.8125 -1.421875 42 -1.421875 
Q 24.90625 -1.421875 15.25 8.5625 
Q 5.609375 18.5625 5.609375 36.375 
Q 5.609375 54.25 15.25 64.234375 
Q 24.90625 74.21875 42 74.21875 
Q 49.125 74.21875 55.546875 72.453125 
Q 61.96875 70.703125 67.390625 67.28125 
L 67.390625 56.78125 
Q 61.921875 61.421875 55.765625 63.765625 
Q 49.609375 66.109375 42.828125 66.109375 
Q 29.4375 66.109375 22.71875 58.640625 
Q 16.015625 51.171875 16.015625 36.375 
Q 16.015625 21.625 22.71875 14.15625 
Q 29.4375 6.6875 42.828125 6.6875 
Q 48.046875 6.6875 52.140625 7.59375 
Q 56.25 8.5 59.515625 10.40625 
z
" id="DejaVuSans-71"/>
       <path d="M 8.5 21.578125 
L 8.5 54.6875 
L 17.484375 54.6875 
L 17.484375 21.921875 
Q 17.484375 14.15625 20.5 10.265625 
Q 23.53125 6.390625 29.59375 6.390625 
Q 36.859375 6.390625 41.078125 11.03125 
Q 45.3125 15.671875 45.3125 23.6875 
L 45.3125 54.6875 
L 54.296875 54.6875 
L 54.296875 0 
L 45.3125 0 
L 45.3125 8.40625 
Q 42.046875 3.421875 37.71875 1 
Q 33.40625 -1.421875 27.6875 -1.421875 
Q 18.265625 -1.421875 13.375 4.4375 
Q 8.5 10.296875 8.5 21.578125 
z
M 31.109375 56 
z
" id="DejaVuSans-117"/>
       <path d="M 44.28125 53.078125 
L 44.28125 44.578125 
Q 40.484375 46.53125 36.375 47.5 
Q 32.28125 48.484375 27.875 48.484375 
Q 21.1875 48.484375 17.84375 46.4375 
Q 14.5 44.390625 14.5 40.28125 
Q 14.5 37.15625 16.890625 35.375 
Q 19.28125 33.59375 26.515625 31.984375 
L 29.59375 31.296875 
Q 39.15625 29.25 43.1875 25.515625 
Q 47.21875 21.78125 47.21875 15.09375 
Q 47.21875 7.46875 41.1875 3.015625 
Q 35.15625 -1.421875 24.609375 -1.421875 
Q 20.21875 -1.421875 15.453125 -0.5625 
Q 10.6875 0.296875 5.421875 2 
L 5.421875 11.28125 
Q 10.40625 8.6875 15.234375 7.390625 
Q 20.0625 6.109375 24.8125 6.109375 
Q 31.15625 6.109375 34.5625 8.28125 
Q 37.984375 10.453125 37.984375 14.40625 
Q 37.984375 18.0625 35.515625 20.015625 
Q 33.0625 21.96875 24.703125 23.78125 
L 21.578125 24.515625 
Q 13.234375 26.265625 9.515625 29.90625 
Q 5.8125 33.546875 5.8125 39.890625 
Q 5.8125 47.609375 11.28125 51.796875 
Q 16.75 56 26.8125 56 
Q 31.78125 56 36.171875 55.265625 
Q 40.578125 54.546875 44.28125 53.078125 
z
" id="DejaVuSans-115"/>
       <path d="M 18.3125 70.21875 
L 18.3125 54.6875 
L 36.8125 54.6875 
L 36.8125 47.703125 
L 18.3125 47.703125 
L 18.3125 18.015625 
Q 18.3125 11.328125 20.140625 9.421875 
Q 21.96875 7.515625 27.59375 7.515625 
L 36.8125 7.515625 
L 36.8125 0 
L 27.59375 0 
Q 17.1875 0 13.234375 3.875 
Q 9.28125 7.765625 9.28125 18.015625 
L 9.28125 47.703125 
L 2.6875 47.703125 
L 2.6875 54.6875 
L 9.28125 54.6875 
L 9.28125 70.21875 
z
" id="DejaVuSans-116"/>
       <path d="M 34.28125 27.484375 
Q 23.390625 27.484375 19.1875 25 
Q 14.984375 22.515625 14.984375 16.5 
Q 14.984375 11.71875 18.140625 8.90625 
Q 21.296875 6.109375 26.703125 6.109375 
Q 34.1875 6.109375 38.703125 11.40625 
Q 43.21875 16.703125 43.21875 25.484375 
L 43.21875 27.484375 
z
M 52.203125 31.203125 
L 52.203125 0 
L 43.21875 0 
L 43.21875 8.296875 
Q 40.140625 3.328125 35.546875 0.953125 
Q 30.953125 -1.421875 24.3125 -1.421875 
Q 15.921875 -1.421875 10.953125 3.296875 
Q 6 8.015625 6 15.921875 
Q 6 25.140625 12.171875 29.828125 
Q 18.359375 34.515625 30.609375 34.515625 
L 43.21875 34.515625 
L 43.21875 35.40625 
Q 43.21875 41.609375 39.140625 45 
Q 35.0625 48.390625 27.6875 48.390625 
Q 23 48.390625 18.546875 47.265625 
Q 14.109375 46.140625 10.015625 43.890625 
L 10.015625 52.203125 
Q 14.9375 54.109375 19.578125 55.046875 
Q 24.21875 56 28.609375 56 
Q 40.484375 56 46.34375 49.84375 
Q 52.203125 43.703125 52.203125 31.203125 
z
" id="DejaVuSans-97"/>
       <path d="M 2.984375 54.6875 
L 12.5 54.6875 
L 29.59375 8.796875 
L 46.6875 54.6875 
L 56.203125 54.6875 
L 35.6875 0 
L 23.484375 0 
z
" id="DejaVuSans-118"/>
       <path d="M 30.609375 48.390625 
Q 23.390625 48.390625 19.1875 42.75 
Q 14.984375 37.109375 14.984375 27.296875 
Q 14.984375 17.484375 19.15625 11.84375 
Q 23.34375 6.203125 30.609375 6.203125 
Q 37.796875 6.203125 41.984375 11.859375 
Q 46.1875 17.53125 46.1875 27.296875 
Q 46.1875 37.015625 41.984375 42.703125 
Q 37.796875 48.390625 30.609375 48.390625 
z
M 30.609375 56 
Q 42.328125 56 49.015625 48.375 
Q 55.71875 40.765625 55.71875 27.296875 
Q 55.71875 13.875 49.015625 6.21875 
Q 42.328125 -1.421875 30.609375 -1.421875 
Q 18.84375 -1.421875 12.171875 6.21875 
Q 5.515625 13.875 5.515625 27.296875 
Q 5.515625 40.765625 12.171875 48.375 
Q 18.84375 56 30.609375 56 
z
" id="DejaVuSans-111"/>
       <path d="M 54.890625 33.015625 
L 54.890625 0 
L 45.90625 0 
L 45.90625 32.71875 
Q 45.90625 40.484375 42.875 44.328125 
Q 39.84375 48.1875 33.796875 48.1875 
Q 26.515625 48.1875 22.3125 43.546875 
Q 18.109375 38.921875 18.109375 30.90625 
L 18.109375 0 
L 9.078125 0 
L 9.078125 54.6875 
L 18.109375 54.6875 
L 18.109375 46.1875 
Q 21.34375 51.125 25.703125 53.5625 
Q 30.078125 56 35.796875 56 
Q 45.21875 56 50.046875 50.171875 
Q 54.890625 44.34375 54.890625 33.015625 
z
" id="DejaVuSans-110"/>
      </defs>
      <g transform="translate(48.991938 322.182437)scale(0.1 -0.1)">
       <use xlink:href="#DejaVuSans-71"/>
       <use x="77.490234" xlink:href="#DejaVuSans-117"/>
       <use x="140.869141" xlink:href="#DejaVuSans-115"/>
       <use x="192.96875" xlink:href="#DejaVuSans-116"/>
       <use x="232.177734" xlink:href="#DejaVuSans-97"/>
       <use x="293.457031" xlink:href="#DejaVuSans-118"/>
       <use x="352.636719" xlink:href="#DejaVuSans-115"/>
       <use x="404.736328" xlink:href="#DejaVuSans-111"/>
       <use x="465.917969" xlink:href="#DejaVuSans-110"/>
      </g>
      <!-- 2 -->
      <defs>
       <path d="M 19.1875 8.296875 
L 53.609375 8.296875 
L 53.609375 0 
L 7.328125 0 
L 7.328125 8.296875 
Q 12.9375 14.109375 22.625 23.890625 
Q 32.328125 33.6875 34.8125 36.53125 
Q 39.546875 41.84375 41.421875 45.53125 
Q 43.3125 49.21875 43.3125 52.78125 
Q 43.3125 58.59375 39.234375 62.25 
Q 35.15625 65.921875 28.609375 65.921875 
Q 23.96875 65.921875 18.8125 64.3125 
Q 13.671875 62.703125 7.8125 59.421875 
L 7.8125 69.390625 
Q 13.765625 71.78125 18.9375 73 
Q 24.125 74.21875 28.421875 74.21875 
Q 39.75 74.21875 46.484375 68.546875 
Q 53.21875 62.890625 53.21875 53.421875 
Q 53.21875 48.921875 51.53125 44.890625 
Q 49.859375 40.875 45.40625 35.40625 
Q 44.1875 33.984375 37.640625 27.21875 
Q 31.109375 20.453125 19.1875 8.296875 
z
" id="DejaVuSans-50"/>
      </defs>
      <g transform="translate(72.27475 333.38025)scale(0.1 -0.1)">
       <use xlink:href="#DejaVuSans-50"/>
      </g>
     </g>
    </g>
    <g id="xtick_2">
     <g id="line2d_2">
      <g>
       <use style="stroke:#000000;stroke-width:0.8;" x="111.168" xlink:href="#m828dda8b9a" y="307.584"/>
      </g>
     </g>
     <g id="text_2">
      <!-- Gustavson -->
      <g transform="translate(84.703938 322.182437)scale(0.1 -0.1)">
       <use xlink:href="#DejaVuSans-71"/>
       <use x="77.490234" xlink:href="#DejaVuSans-117"/>
       <use x="140.869141" xlink:href="#DejaVuSans-115"/>
       <use x="192.96875" xlink:href="#DejaVuSans-116"/>
       <use x="232.177734" xlink:href="#DejaVuSans-97"/>
       <use x="293.457031" xlink:href="#DejaVuSans-118"/>
       <use x="352.636719" xlink:href="#DejaVuSans-115"/>
       <use x="404.736328" xlink:href="#DejaVuSans-111"/>
       <use x="465.917969" xlink:href="#DejaVuSans-110"/>
      </g>
      <!-- 2PV -->
      <defs>
       <path d="M 19.671875 64.796875 
L 19.671875 37.40625 
L 32.078125 37.40625 
Q 38.96875 37.40625 42.71875 40.96875 
Q 46.484375 44.53125 46.484375 51.125 
Q 46.484375 57.671875 42.71875 61.234375 
Q 38.96875 64.796875 32.078125 64.796875 
z
M 9.8125 72.90625 
L 32.078125 72.90625 
Q 44.34375 72.90625 50.609375 67.359375 
Q 56.890625 61.8125 56.890625 51.125 
Q 56.890625 40.328125 50.609375 34.8125 
Q 44.34375 29.296875 32.078125 29.296875 
L 19.671875 29.296875 
L 19.671875 0 
L 9.8125 0 
z
" id="DejaVuSans-80"/>
       <path d="M 28.609375 0 
L 0.78125 72.90625 
L 11.078125 72.90625 
L 34.1875 11.53125 
L 57.328125 72.90625 
L 67.578125 72.90625 
L 39.796875 0 
z
" id="DejaVuSans-86"/>
      </defs>
      <g transform="translate(101.551594 333.38025)scale(0.1 -0.1)">
       <use xlink:href="#DejaVuSans-50"/>
       <use x="63.623047" xlink:href="#DejaVuSans-80"/>
       <use x="123.925781" xlink:href="#DejaVuSans-86"/>
      </g>
     </g>
    </g>
    <g id="xtick_3">
     <g id="line2d_3">
      <g>
       <use style="stroke:#000000;stroke-width:0.8;" x="146.88" xlink:href="#m828dda8b9a" y="307.584"/>
      </g>
     </g>
     <g id="text_3">
      <!-- Gustavson -->
      <g transform="translate(120.415937 322.182437)scale(0.1 -0.1)">
       <use xlink:href="#DejaVuSans-71"/>
       <use x="77.490234" xlink:href="#DejaVuSans-117"/>
       <use x="140.869141" xlink:href="#DejaVuSans-115"/>
       <use x="192.96875" xlink:href="#DejaVuSans-116"/>
       <use x="232.177734" xlink:href="#DejaVuSans-97"/>
       <use x="293.457031" xlink:href="#DejaVuSans-118"/>
       <use x="352.636719" xlink:href="#DejaVuSans-115"/>
       <use x="404.736328" xlink:href="#DejaVuSans-111"/>
       <use x="465.917969" xlink:href="#DejaVuSans-110"/>
      </g>
      <!-- 3PV -->
      <defs>
       <path d="M 40.578125 39.3125 
Q 47.65625 37.796875 51.625 33 
Q 55.609375 28.21875 55.609375 21.1875 
Q 55.609375 10.40625 48.1875 4.484375 
Q 40.765625 -1.421875 27.09375 -1.421875 
Q 22.515625 -1.421875 17.65625 -0.515625 
Q 12.796875 0.390625 7.625 2.203125 
L 7.625 11.71875 
Q 11.71875 9.328125 16.59375 8.109375 
Q 21.484375 6.890625 26.8125 6.890625 
Q 36.078125 6.890625 40.9375 10.546875 
Q 45.796875 14.203125 45.796875 21.1875 
Q 45.796875 27.640625 41.28125 31.265625 
Q 36.765625 34.90625 28.71875 34.90625 
L 20.21875 34.90625 
L 20.21875 43.015625 
L 29.109375 43.015625 
Q 36.375 43.015625 40.234375 45.921875 
Q 44.09375 48.828125 44.09375 54.296875 
Q 44.09375 59.90625 40.109375 62.90625 
Q 36.140625 65.921875 28.71875 65.921875 
Q 24.65625 65.921875 20.015625 65.03125 
Q 15.375 64.15625 9.8125 62.3125 
L 9.8125 71.09375 
Q 15.4375 72.65625 20.34375 73.4375 
Q 25.25 74.21875 29.59375 74.21875 
Q 40.828125 74.21875 47.359375 69.109375 
Q 53.90625 64.015625 53.90625 55.328125 
Q 53.90625 49.265625 50.4375 45.09375 
Q 46.96875 40.921875 40.578125 39.3125 
z
" id="DejaVuSans-51"/>
      </defs>
      <g transform="translate(137.263594 333.38025)scale(0.1 -0.1)">
       <use xlink:href="#DejaVuSans-51"/>
       <use x="63.623047" xlink:href="#DejaVuSans-80"/>
       <use x="123.925781" xlink:href="#DejaVuSans-86"/>
      </g>
     </g>
    </g>
    <g id="xtick_4">
     <g id="line2d_4">
      <g>
       <use style="stroke:#000000;stroke-width:0.8;" x="182.592" xlink:href="#m828dda8b9a" y="307.584"/>
      </g>
     </g>
     <g id="text_4">
      <!-- MKL -->
      <defs>
       <path d="M 9.8125 72.90625 
L 24.515625 72.90625 
L 43.109375 23.296875 
L 61.8125 72.90625 
L 76.515625 72.90625 
L 76.515625 0 
L 66.890625 0 
L 66.890625 64.015625 
L 48.09375 14.015625 
L 38.1875 14.015625 
L 19.390625 64.015625 
L 19.390625 0 
L 9.8125 0 
z
" id="DejaVuSans-77"/>
       <path d="M 9.8125 72.90625 
L 19.671875 72.90625 
L 19.671875 42.09375 
L 52.390625 72.90625 
L 65.09375 72.90625 
L 28.90625 38.921875 
L 67.671875 0 
L 54.6875 0 
L 19.671875 35.109375 
L 19.671875 0 
L 9.8125 0 
z
" id="DejaVuSans-75"/>
       <path d="M 9.8125 72.90625 
L 19.671875 72.90625 
L 19.671875 8.296875 
L 55.171875 8.296875 
L 55.171875 0 
L 9.8125 0 
z
" id="DejaVuSans-76"/>
      </defs>
      <g transform="translate(172.213094 322.182437)scale(0.1 -0.1)">
       <use xlink:href="#DejaVuSans-77"/>
       <use x="86.279297" xlink:href="#DejaVuSans-75"/>
       <use x="151.855469" xlink:href="#DejaVuSans-76"/>
      </g>
      <!-- iomp 2PV -->
      <defs>
       <path d="M 9.421875 54.6875 
L 18.40625 54.6875 
L 18.40625 0 
L 9.421875 0 
z
M 9.421875 75.984375 
L 18.40625 75.984375 
L 18.40625 64.59375 
L 9.421875 64.59375 
z
" id="DejaVuSans-105"/>
       <path d="M 52 44.1875 
Q 55.375 50.25 60.0625 53.125 
Q 64.75 56 71.09375 56 
Q 79.640625 56 84.28125 50.015625 
Q 88.921875 44.046875 88.921875 33.015625 
L 88.921875 0 
L 79.890625 0 
L 79.890625 32.71875 
Q 79.890625 40.578125 77.09375 44.375 
Q 74.3125 48.1875 68.609375 48.1875 
Q 61.625 48.1875 57.5625 43.546875 
Q 53.515625 38.921875 53.515625 30.90625 
L 53.515625 0 
L 44.484375 0 
L 44.484375 32.71875 
Q 44.484375 40.625 41.703125 44.40625 
Q 38.921875 48.1875 33.109375 48.1875 
Q 26.21875 48.1875 22.15625 43.53125 
Q 18.109375 38.875 18.109375 30.90625 
L 18.109375 0 
L 9.078125 0 
L 9.078125 54.6875 
L 18.109375 54.6875 
L 18.109375 46.1875 
Q 21.1875 51.21875 25.484375 53.609375 
Q 29.78125 56 35.6875 56 
Q 41.65625 56 45.828125 52.96875 
Q 50 49.953125 52 44.1875 
z
" id="DejaVuSans-109"/>
       <path d="M 18.109375 8.203125 
L 18.109375 -20.796875 
L 9.078125 -20.796875 
L 9.078125 54.6875 
L 18.109375 54.6875 
L 18.109375 46.390625 
Q 20.953125 51.265625 25.265625 53.625 
Q 29.59375 56 35.59375 56 
Q 45.5625 56 51.78125 48.09375 
Q 58.015625 40.1875 58.015625 27.296875 
Q 58.015625 14.40625 51.78125 6.484375 
Q 45.5625 -1.421875 35.59375 -1.421875 
Q 29.59375 -1.421875 25.265625 0.953125 
Q 20.953125 3.328125 18.109375 8.203125 
z
M 48.6875 27.296875 
Q 48.6875 37.203125 44.609375 42.84375 
Q 40.53125 48.484375 33.40625 48.484375 
Q 26.265625 48.484375 22.1875 42.84375 
Q 18.109375 37.203125 18.109375 27.296875 
Q 18.109375 17.390625 22.1875 11.75 
Q 26.265625 6.109375 33.40625 6.109375 
Q 40.53125 6.109375 44.609375 11.75 
Q 48.6875 17.390625 48.6875 27.296875 
z
" id="DejaVuSans-112"/>
       <path id="DejaVuSans-32"/>
      </defs>
      <g transform="translate(158.893563 333.38025)scale(0.1 -0.1)">
       <use xlink:href="#DejaVuSans-105"/>
       <use x="27.783203" xlink:href="#DejaVuSans-111"/>
       <use x="88.964844" xlink:href="#DejaVuSans-109"/>
       <use x="186.376953" xlink:href="#DejaVuSans-112"/>
       <use x="249.853516" xlink:href="#DejaVuSans-32"/>
       <use x="281.640625" xlink:href="#DejaVuSans-50"/>
       <use x="345.263672" xlink:href="#DejaVuSans-80"/>
       <use x="405.566406" xlink:href="#DejaVuSans-86"/>
      </g>
     </g>
    </g>
    <g id="xtick_5">
     <g id="line2d_5">
      <g>
       <use style="stroke:#000000;stroke-width:0.8;" x="218.304" xlink:href="#m828dda8b9a" y="307.584"/>
      </g>
     </g>
     <g id="text_5">
      <!-- MKL -->
      <g transform="translate(207.925094 322.182437)scale(0.1 -0.1)">
       <use xlink:href="#DejaVuSans-77"/>
       <use x="86.279297" xlink:href="#DejaVuSans-75"/>
       <use x="151.855469" xlink:href="#DejaVuSans-76"/>
      </g>
      <!-- sequential 2 -->
      <defs>
       <path d="M 56.203125 29.59375 
L 56.203125 25.203125 
L 14.890625 25.203125 
Q 15.484375 15.921875 20.484375 11.0625 
Q 25.484375 6.203125 34.421875 6.203125 
Q 39.59375 6.203125 44.453125 7.46875 
Q 49.3125 8.734375 54.109375 11.28125 
L 54.109375 2.78125 
Q 49.265625 0.734375 44.1875 -0.34375 
Q 39.109375 -1.421875 33.890625 -1.421875 
Q 20.796875 -1.421875 13.15625 6.1875 
Q 5.515625 13.8125 5.515625 26.8125 
Q 5.515625 40.234375 12.765625 48.109375 
Q 20.015625 56 32.328125 56 
Q 43.359375 56 49.78125 48.890625 
Q 56.203125 41.796875 56.203125 29.59375 
z
M 47.21875 32.234375 
Q 47.125 39.59375 43.09375 43.984375 
Q 39.0625 48.390625 32.421875 48.390625 
Q 24.90625 48.390625 20.390625 44.140625 
Q 15.875 39.890625 15.1875 32.171875 
z
" id="DejaVuSans-101"/>
       <path d="M 14.796875 27.296875 
Q 14.796875 17.390625 18.875 11.75 
Q 22.953125 6.109375 30.078125 6.109375 
Q 37.203125 6.109375 41.296875 11.75 
Q 45.40625 17.390625 45.40625 27.296875 
Q 45.40625 37.203125 41.296875 42.84375 
Q 37.203125 48.484375 30.078125 48.484375 
Q 22.953125 48.484375 18.875 42.84375 
Q 14.796875 37.203125 14.796875 27.296875 
z
M 45.40625 8.203125 
Q 42.578125 3.328125 38.25 0.953125 
Q 33.9375 -1.421875 27.875 -1.421875 
Q 17.96875 -1.421875 11.734375 6.484375 
Q 5.515625 14.40625 5.515625 27.296875 
Q 5.515625 40.1875 11.734375 48.09375 
Q 17.96875 56 27.875 56 
Q 33.9375 56 38.25 53.625 
Q 42.578125 51.265625 45.40625 46.390625 
L 45.40625 54.6875 
L 54.390625 54.6875 
L 54.390625 -20.796875 
L 45.40625 -20.796875 
z
" id="DejaVuSans-113"/>
       <path d="M 9.421875 75.984375 
L 18.40625 75.984375 
L 18.40625 0 
L 9.421875 0 
z
" id="DejaVuSans-108"/>
      </defs>
      <g transform="translate(187.461813 333.38025)scale(0.1 -0.1)">
       <use xlink:href="#DejaVuSans-115"/>
       <use x="52.099609" xlink:href="#DejaVuSans-101"/>
       <use x="113.623047" xlink:href="#DejaVuSans-113"/>
       <use x="177.099609" xlink:href="#DejaVuSans-117"/>
       <use x="240.478516" xlink:href="#DejaVuSans-101"/>
       <use x="302.001953" xlink:href="#DejaVuSans-110"/>
       <use x="365.380859" xlink:href="#DejaVuSans-116"/>
       <use x="404.589844" xlink:href="#DejaVuSans-105"/>
       <use x="432.373047" xlink:href="#DejaVuSans-97"/>
       <use x="493.652344" xlink:href="#DejaVuSans-108"/>
       <use x="521.435547" xlink:href="#DejaVuSans-32"/>
       <use x="553.222656" xlink:href="#DejaVuSans-50"/>
      </g>
     </g>
    </g>
    <g id="xtick_6">
     <g id="line2d_6">
      <g>
       <use style="stroke:#000000;stroke-width:0.8;" x="254.016" xlink:href="#m828dda8b9a" y="307.584"/>
      </g>
     </g>
     <g id="text_6">
      <!-- std::sort -->
      <defs>
       <path d="M 45.40625 46.390625 
L 45.40625 75.984375 
L 54.390625 75.984375 
L 54.390625 0 
L 45.40625 0 
L 45.40625 8.203125 
Q 42.578125 3.328125 38.25 0.953125 
Q 33.9375 -1.421875 27.875 -1.421875 
Q 17.96875 -1.421875 11.734375 6.484375 
Q 5.515625 14.40625 5.515625 27.296875 
Q 5.515625 40.1875 11.734375 48.09375 
Q 17.96875 56 27.875 56 
Q 33.9375 56 38.25 53.625 
Q 42.578125 51.265625 45.40625 46.390625 
z
M 14.796875 27.296875 
Q 14.796875 17.390625 18.875 11.75 
Q 22.953125 6.109375 30.078125 6.109375 
Q 37.203125 6.109375 41.296875 11.75 
Q 45.40625 17.390625 45.40625 27.296875 
Q 45.40625 37.203125 41.296875 42.84375 
Q 37.203125 48.484375 30.078125 48.484375 
Q 22.953125 48.484375 18.875 42.84375 
Q 14.796875 37.203125 14.796875 27.296875 
z
" id="DejaVuSans-100"/>
       <path d="M 11.71875 12.40625 
L 22.015625 12.40625 
L 22.015625 0 
L 11.71875 0 
z
M 11.71875 51.703125 
L 22.015625 51.703125 
L 22.015625 39.3125 
L 11.71875 39.3125 
z
" id="DejaVuSans-58"/>
       <path d="M 41.109375 46.296875 
Q 39.59375 47.171875 37.8125 47.578125 
Q 36.03125 48 33.890625 48 
Q 26.265625 48 22.1875 43.046875 
Q 18.109375 38.09375 18.109375 28.8125 
L 18.109375 0 
L 9.078125 0 
L 9.078125 54.6875 
L 18.109375 54.6875 
L 18.109375 46.1875 
Q 20.953125 51.171875 25.484375 53.578125 
Q 30.03125 56 36.53125 56 
Q 37.453125 56 38.578125 55.875 
Q 39.703125 55.765625 41.0625 55.515625 
z
" id="DejaVuSans-114"/>
      </defs>
      <g transform="translate(233.2285 322.182437)scale(0.1 -0.1)">
       <use xlink:href="#DejaVuSans-115"/>
       <use x="52.099609" xlink:href="#DejaVuSans-116"/>
       <use x="91.308594" xlink:href="#DejaVuSans-100"/>
       <use x="154.785156" xlink:href="#DejaVuSans-58"/>
       <use x="188.476562" xlink:href="#DejaVuSans-58"/>
       <use x="222.167969" xlink:href="#DejaVuSans-115"/>
       <use x="274.267578" xlink:href="#DejaVuSans-111"/>
       <use x="335.449219" xlink:href="#DejaVuSans-114"/>
       <use x="376.5625" xlink:href="#DejaVuSans-116"/>
      </g>
      <!-- 2 -->
      <g transform="translate(250.83475 333.38025)scale(0.1 -0.1)">
       <use xlink:href="#DejaVuSans-50"/>
      </g>
     </g>
    </g>
    <g id="xtick_7">
     <g id="line2d_7">
      <g>
       <use style="stroke:#000000;stroke-width:0.8;" x="289.728" xlink:href="#m828dda8b9a" y="307.584"/>
      </g>
     </g>
     <g id="text_7">
      <!-- std::sort -->
      <g transform="translate(268.9405 322.182437)scale(0.1 -0.1)">
       <use xlink:href="#DejaVuSans-115"/>
       <use x="52.099609" xlink:href="#DejaVuSans-116"/>
       <use x="91.308594" xlink:href="#DejaVuSans-100"/>
       <use x="154.785156" xlink:href="#DejaVuSans-58"/>
       <use x="188.476562" xlink:href="#DejaVuSans-58"/>
       <use x="222.167969" xlink:href="#DejaVuSans-115"/>
       <use x="274.267578" xlink:href="#DejaVuSans-111"/>
       <use x="335.449219" xlink:href="#DejaVuSans-114"/>
       <use x="376.5625" xlink:href="#DejaVuSans-116"/>
      </g>
      <!-- 2PV -->
      <g transform="translate(280.111594 333.38025)scale(0.1 -0.1)">
       <use xlink:href="#DejaVuSans-50"/>
       <use x="63.623047" xlink:href="#DejaVuSans-80"/>
       <use x="123.925781" xlink:href="#DejaVuSans-86"/>
      </g>
     </g>
    </g>
    <g id="xtick_8">
     <g id="line2d_8">
      <g>
       <use style="stroke:#000000;stroke-width:0.8;" x="325.44" xlink:href="#m828dda8b9a" y="307.584"/>
      </g>
     </g>
     <g id="text_8">
      <!-- std::sort -->
      <g transform="translate(304.6525 322.182437)scale(0.1 -0.1)">
       <use xlink:href="#DejaVuSans-115"/>
       <use x="52.099609" xlink:href="#DejaVuSans-116"/>
       <use x="91.308594" xlink:href="#DejaVuSans-100"/>
       <use x="154.785156" xlink:href="#DejaVuSans-58"/>
       <use x="188.476562" xlink:href="#DejaVuSans-58"/>
       <use x="222.167969" xlink:href="#DejaVuSans-115"/>
       <use x="274.267578" xlink:href="#DejaVuSans-111"/>
       <use x="335.449219" xlink:href="#DejaVuSans-114"/>
       <use x="376.5625" xlink:href="#DejaVuSans-116"/>
      </g>
      <!-- 3PV -->
      <g transform="translate(315.823594 333.38025)scale(0.1 -0.1)">
       <use xlink:href="#DejaVuSans-51"/>
       <use x="63.623047" xlink:href="#DejaVuSans-80"/>
       <use x="123.925781" xlink:href="#DejaVuSans-86"/>
      </g>
     </g>
    </g>
    <g id="xtick_9">
     <g id="line2d_9">
      <g>
       <use style="stroke:#000000;stroke-width:0.8;" x="361.152" xlink:href="#m828dda8b9a" y="307.584"/>
      </g>
     </g>
     <g id="text_9">
      <!-- tbb::parallel_sort -->
      <defs>
       <path d="M 48.6875 27.296875 
Q 48.6875 37.203125 44.609375 42.84375 
Q 40.53125 48.484375 33.40625 48.484375 
Q 26.265625 48.484375 22.1875 42.84375 
Q 18.109375 37.203125 18.109375 27.296875 
Q 18.109375 17.390625 22.1875 11.75 
Q 26.265625 6.109375 33.40625 6.109375 
Q 40.53125 6.109375 44.609375 11.75 
Q 48.6875 17.390625 48.6875 27.296875 
z
M 18.109375 46.390625 
Q 20.953125 51.265625 25.265625 53.625 
Q 29.59375 56 35.59375 56 
Q 45.5625 56 51.78125 48.09375 
Q 58.015625 40.1875 58.015625 27.296875 
Q 58.015625 14.40625 51.78125 6.484375 
Q 45.5625 -1.421875 35.59375 -1.421875 
Q 29.59375 -1.421875 25.265625 0.953125 
Q 20.953125 3.328125 18.109375 8.203125 
L 18.109375 0 
L 9.078125 0 
L 9.078125 75.984375 
L 18.109375 75.984375 
z
" id="DejaVuSans-98"/>
       <path d="M 50.984375 -16.609375 
L 50.984375 -23.578125 
L -0.984375 -23.578125 
L -0.984375 -16.609375 
z
" id="DejaVuSans-95"/>
      </defs>
      <g transform="translate(318.693406 322.182437)scale(0.1 -0.1)">
       <use xlink:href="#DejaVuSans-116"/>
       <use x="39.208984" xlink:href="#DejaVuSans-98"/>
       <use x="102.685547" xlink:href="#DejaVuSans-98"/>
       <use x="166.162109" xlink:href="#DejaVuSans-58"/>
       <use x="199.853516" xlink:href="#DejaVuSans-58"/>
       <use x="233.544922" xlink:href="#DejaVuSans-112"/>
       <use x="297.021484" xlink:href="#DejaVuSans-97"/>
       <use x="358.300781" xlink:href="#DejaVuSans-114"/>
       <use x="399.414062" xlink:href="#DejaVuSans-97"/>
       <use x="460.693359" xlink:href="#DejaVuSans-108"/>
       <use x="488.476562" xlink:href="#DejaVuSans-108"/>
       <use x="516.259766" xlink:href="#DejaVuSans-101"/>
       <use x="577.783203" xlink:href="#DejaVuSans-108"/>
       <use x="605.566406" xlink:href="#DejaVuSans-95"/>
       <use x="655.566406" xlink:href="#DejaVuSans-115"/>
       <use x="707.666016" xlink:href="#DejaVuSans-111"/>
       <use x="768.847656" xlink:href="#DejaVuSans-114"/>
       <use x="809.960938" xlink:href="#DejaVuSans-116"/>
      </g>
      <!-- 2PV -->
      <g transform="translate(351.535594 333.658375)scale(0.1 -0.1)">
       <use xlink:href="#DejaVuSans-50"/>
       <use x="63.623047" xlink:href="#DejaVuSans-80"/>
       <use x="123.925781" xlink:href="#DejaVuSans-86"/>
      </g>
     </g>
    </g>
    <g id="xtick_10">
     <g id="line2d_10">
      <g>
       <use style="stroke:#000000;stroke-width:0.8;" x="396.864" xlink:href="#m828dda8b9a" y="307.584"/>
      </g>
     </g>
     <g id="text_10">
      <!-- tbb::parallel_sort -->
      <g transform="translate(354.405406 322.182437)scale(0.1 -0.1)">
       <use xlink:href="#DejaVuSans-116"/>
       <use x="39.208984" xlink:href="#DejaVuSans-98"/>
       <use x="102.685547" xlink:href="#DejaVuSans-98"/>
       <use x="166.162109" xlink:href="#DejaVuSans-58"/>
       <use x="199.853516" xlink:href="#DejaVuSans-58"/>
       <use x="233.544922" xlink:href="#DejaVuSans-112"/>
       <use x="297.021484" xlink:href="#DejaVuSans-97"/>
       <use x="358.300781" xlink:href="#DejaVuSans-114"/>
       <use x="399.414062" xlink:href="#DejaVuSans-97"/>
       <use x="460.693359" xlink:href="#DejaVuSans-108"/>
       <use x="488.476562" xlink:href="#DejaVuSans-108"/>
       <use x="516.259766" xlink:href="#DejaVuSans-101"/>
       <use x="577.783203" xlink:href="#DejaVuSans-108"/>
       <use x="605.566406" xlink:href="#DejaVuSans-95"/>
       <use x="655.566406" xlink:href="#DejaVuSans-115"/>
       <use x="707.666016" xlink:href="#DejaVuSans-111"/>
       <use x="768.847656" xlink:href="#DejaVuSans-114"/>
       <use x="809.960938" xlink:href="#DejaVuSans-116"/>
      </g>
      <!-- 3PV -->
      <g transform="translate(387.247594 333.658375)scale(0.1 -0.1)">
       <use xlink:href="#DejaVuSans-51"/>
       <use x="63.623047" xlink:href="#DejaVuSans-80"/>
       <use x="123.925781" xlink:href="#DejaVuSans-86"/>
      </g>
     </g>
    </g>
    <g id="text_11">
     <!-- name -->
     <g transform="translate(221.980312 347.3365)scale(0.1 -0.1)">
      <use xlink:href="#DejaVuSans-110"/>
      <use x="63.378906" xlink:href="#DejaVuSans-97"/>
      <use x="124.658203" xlink:href="#DejaVuSans-109"/>
      <use x="222.070312" xlink:href="#DejaVuSans-101"/>
     </g>
    </g>
   </g>
   <g id="matplotlib.axis_2">
    <g id="ytick_1">
     <g id="line2d_11">
      <path clip-path="url(#pdecc941643)" d="M 57.6 284.321533 
L 414.72 284.321533 
" style="fill:none;stroke:#b0b0b0;stroke-dasharray:5.12,1.28,0.8,1.28;stroke-dashoffset:0;stroke-width:0.8;"/>
     </g>
     <g id="line2d_12">
      <defs>
       <path d="M 0 0 
L -3.5 0 
" id="mf7c96195a9" style="stroke:#000000;stroke-width:0.8;"/>
      </defs>
      <g>
       <use style="stroke:#000000;stroke-width:0.8;" x="57.6" xlink:href="#mf7c96195a9" y="284.321533"/>
      </g>
     </g>
     <g id="text_12">
      <!-- 0.4 -->
      <defs>
       <path d="M 31.78125 66.40625 
Q 24.171875 66.40625 20.328125 58.90625 
Q 16.5 51.421875 16.5 36.375 
Q 16.5 21.390625 20.328125 13.890625 
Q 24.171875 6.390625 31.78125 6.390625 
Q 39.453125 6.390625 43.28125 13.890625 
Q 47.125 21.390625 47.125 36.375 
Q 47.125 51.421875 43.28125 58.90625 
Q 39.453125 66.40625 31.78125 66.40625 
z
M 31.78125 74.21875 
Q 44.046875 74.21875 50.515625 64.515625 
Q 56.984375 54.828125 56.984375 36.375 
Q 56.984375 17.96875 50.515625 8.265625 
Q 44.046875 -1.421875 31.78125 -1.421875 
Q 19.53125 -1.421875 13.0625 8.265625 
Q 6.59375 17.96875 6.59375 36.375 
Q 6.59375 54.828125 13.0625 64.515625 
Q 19.53125 74.21875 31.78125 74.21875 
z
" id="DejaVuSans-48"/>
       <path d="M 10.6875 12.40625 
L 21 12.40625 
L 21 0 
L 10.6875 0 
z
" id="DejaVuSans-46"/>
       <path d="M 37.796875 64.3125 
L 12.890625 25.390625 
L 37.796875 25.390625 
z
M 35.203125 72.90625 
L 47.609375 72.90625 
L 47.609375 25.390625 
L 58.015625 25.390625 
L 58.015625 17.1875 
L 47.609375 17.1875 
L 47.609375 0 
L 37.796875 0 
L 37.796875 17.1875 
L 4.890625 17.1875 
L 4.890625 26.703125 
z
" id="DejaVuSans-52"/>
      </defs>
      <g transform="translate(34.696875 288.120752)scale(0.1 -0.1)">
       <use xlink:href="#DejaVuSans-48"/>
       <use x="63.623047" xlink:href="#DejaVuSans-46"/>
       <use x="95.410156" xlink:href="#DejaVuSans-52"/>
      </g>
     </g>
    </g>
    <g id="ytick_2">
     <g id="line2d_13">
      <path clip-path="url(#pdecc941643)" d="M 57.6 252.840058 
L 414.72 252.840058 
" style="fill:none;stroke:#b0b0b0;stroke-dasharray:5.12,1.28,0.8,1.28;stroke-dashoffset:0;stroke-width:0.8;"/>
     </g>
     <g id="line2d_14">
      <g>
       <use style="stroke:#000000;stroke-width:0.8;" x="57.6" xlink:href="#mf7c96195a9" y="252.840058"/>
      </g>
     </g>
     <g id="text_13">
      <!-- 0.6 -->
      <defs>
       <path d="M 33.015625 40.375 
Q 26.375 40.375 22.484375 35.828125 
Q 18.609375 31.296875 18.609375 23.390625 
Q 18.609375 15.53125 22.484375 10.953125 
Q 26.375 6.390625 33.015625 6.390625 
Q 39.65625 6.390625 43.53125 10.953125 
Q 47.40625 15.53125 47.40625 23.390625 
Q 47.40625 31.296875 43.53125 35.828125 
Q 39.65625 40.375 33.015625 40.375 
z
M 52.59375 71.296875 
L 52.59375 62.3125 
Q 48.875 64.0625 45.09375 64.984375 
Q 41.3125 65.921875 37.59375 65.921875 
Q 27.828125 65.921875 22.671875 59.328125 
Q 17.53125 52.734375 16.796875 39.40625 
Q 19.671875 43.65625 24.015625 45.921875 
Q 28.375 48.1875 33.59375 48.1875 
Q 44.578125 48.1875 50.953125 41.515625 
Q 57.328125 34.859375 57.328125 23.390625 
Q 57.328125 12.15625 50.6875 5.359375 
Q 44.046875 -1.421875 33.015625 -1.421875 
Q 20.359375 -1.421875 13.671875 8.265625 
Q 6.984375 17.96875 6.984375 36.375 
Q 6.984375 53.65625 15.1875 63.9375 
Q 23.390625 74.21875 37.203125 74.21875 
Q 40.921875 74.21875 44.703125 73.484375 
Q 48.484375 72.75 52.59375 71.296875 
z
" id="DejaVuSans-54"/>
      </defs>
      <g transform="translate(34.696875 256.639277)scale(0.1 -0.1)">
       <use xlink:href="#DejaVuSans-48"/>
       <use x="63.623047" xlink:href="#DejaVuSans-46"/>
       <use x="95.410156" xlink:href="#DejaVuSans-54"/>
      </g>
     </g>
    </g>
    <g id="ytick_3">
     <g id="line2d_15">
      <path clip-path="url(#pdecc941643)" d="M 57.6 221.358584 
L 414.72 221.358584 
" style="fill:none;stroke:#b0b0b0;stroke-dasharray:5.12,1.28,0.8,1.28;stroke-dashoffset:0;stroke-width:0.8;"/>
     </g>
     <g id="line2d_16">
      <g>
       <use style="stroke:#000000;stroke-width:0.8;" x="57.6" xlink:href="#mf7c96195a9" y="221.358584"/>
      </g>
     </g>
     <g id="text_14">
      <!-- 0.8 -->
      <defs>
       <path d="M 31.78125 34.625 
Q 24.75 34.625 20.71875 30.859375 
Q 16.703125 27.09375 16.703125 20.515625 
Q 16.703125 13.921875 20.71875 10.15625 
Q 24.75 6.390625 31.78125 6.390625 
Q 38.8125 6.390625 42.859375 10.171875 
Q 46.921875 13.96875 46.921875 20.515625 
Q 46.921875 27.09375 42.890625 30.859375 
Q 38.875 34.625 31.78125 34.625 
z
M 21.921875 38.8125 
Q 15.578125 40.375 12.03125 44.71875 
Q 8.5 49.078125 8.5 55.328125 
Q 8.5 64.0625 14.71875 69.140625 
Q 20.953125 74.21875 31.78125 74.21875 
Q 42.671875 74.21875 48.875 69.140625 
Q 55.078125 64.0625 55.078125 55.328125 
Q 55.078125 49.078125 51.53125 44.71875 
Q 48 40.375 41.703125 38.8125 
Q 48.828125 37.15625 52.796875 32.3125 
Q 56.78125 27.484375 56.78125 20.515625 
Q 56.78125 9.90625 50.3125 4.234375 
Q 43.84375 -1.421875 31.78125 -1.421875 
Q 19.734375 -1.421875 13.25 4.234375 
Q 6.78125 9.90625 6.78125 20.515625 
Q 6.78125 27.484375 10.78125 32.3125 
Q 14.796875 37.15625 21.921875 38.8125 
z
M 18.3125 54.390625 
Q 18.3125 48.734375 21.84375 45.5625 
Q 25.390625 42.390625 31.78125 42.390625 
Q 38.140625 42.390625 41.71875 45.5625 
Q 45.3125 48.734375 45.3125 54.390625 
Q 45.3125 60.0625 41.71875 63.234375 
Q 38.140625 66.40625 31.78125 66.40625 
Q 25.390625 66.40625 21.84375 63.234375 
Q 18.3125 60.0625 18.3125 54.390625 
z
" id="DejaVuSans-56"/>
      </defs>
      <g transform="translate(34.696875 225.157802)scale(0.1 -0.1)">
       <use xlink:href="#DejaVuSans-48"/>
       <use x="63.623047" xlink:href="#DejaVuSans-46"/>
       <use x="95.410156" xlink:href="#DejaVuSans-56"/>
      </g>
     </g>
    </g>
    <g id="ytick_4">
     <g id="line2d_17">
      <path clip-path="url(#pdecc941643)" d="M 57.6 189.877109 
L 414.72 189.877109 
" style="fill:none;stroke:#b0b0b0;stroke-dasharray:5.12,1.28,0.8,1.28;stroke-dashoffset:0;stroke-width:0.8;"/>
     </g>
     <g id="line2d_18">
      <g>
       <use style="stroke:#000000;stroke-width:0.8;" x="57.6" xlink:href="#mf7c96195a9" y="189.877109"/>
      </g>
     </g>
     <g id="text_15">
      <!-- 1.0 -->
      <defs>
       <path d="M 12.40625 8.296875 
L 28.515625 8.296875 
L 28.515625 63.921875 
L 10.984375 60.40625 
L 10.984375 69.390625 
L 28.421875 72.90625 
L 38.28125 72.90625 
L 38.28125 8.296875 
L 54.390625 8.296875 
L 54.390625 0 
L 12.40625 0 
z
" id="DejaVuSans-49"/>
      </defs>
      <g transform="translate(34.696875 193.676328)scale(0.1 -0.1)">
       <use xlink:href="#DejaVuSans-49"/>
       <use x="63.623047" xlink:href="#DejaVuSans-46"/>
       <use x="95.410156" xlink:href="#DejaVuSans-48"/>
      </g>
     </g>
    </g>
    <g id="ytick_5">
     <g id="line2d_19">
      <path clip-path="url(#pdecc941643)" d="M 57.6 158.395634 
L 414.72 158.395634 
" style="fill:none;stroke:#b0b0b0;stroke-dasharray:5.12,1.28,0.8,1.28;stroke-dashoffset:0;stroke-width:0.8;"/>
     </g>
     <g id="line2d_20">
      <g>
       <use style="stroke:#000000;stroke-width:0.8;" x="57.6" xlink:href="#mf7c96195a9" y="158.395634"/>
      </g>
     </g>
     <g id="text_16">
      <!-- 1.2 -->
      <g transform="translate(34.696875 162.194853)scale(0.1 -0.1)">
       <use xlink:href="#DejaVuSans-49"/>
       <use x="63.623047" xlink:href="#DejaVuSans-46"/>
       <use x="95.410156" xlink:href="#DejaVuSans-50"/>
      </g>
     </g>
    </g>
    <g id="ytick_6">
     <g id="line2d_21">
      <path clip-path="url(#pdecc941643)" d="M 57.6 126.914159 
L 414.72 126.914159 
" style="fill:none;stroke:#b0b0b0;stroke-dasharray:5.12,1.28,0.8,1.28;stroke-dashoffset:0;stroke-width:0.8;"/>
     </g>
     <g id="line2d_22">
      <g>
       <use style="stroke:#000000;stroke-width:0.8;" x="57.6" xlink:href="#mf7c96195a9" y="126.914159"/>
      </g>
     </g>
     <g id="text_17">
      <!-- 1.4 -->
      <g transform="translate(34.696875 130.713378)scale(0.1 -0.1)">
       <use xlink:href="#DejaVuSans-49"/>
       <use x="63.623047" xlink:href="#DejaVuSans-46"/>
       <use x="95.410156" xlink:href="#DejaVuSans-52"/>
      </g>
     </g>
    </g>
    <g id="ytick_7">
     <g id="line2d_23">
      <path clip-path="url(#pdecc941643)" d="M 57.6 95.432685 
L 414.72 95.432685 
" style="fill:none;stroke:#b0b0b0;stroke-dasharray:5.12,1.28,0.8,1.28;stroke-dashoffset:0;stroke-width:0.8;"/>
     </g>
     <g id="line2d_24">
      <g>
       <use style="stroke:#000000;stroke-width:0.8;" x="57.6" xlink:href="#mf7c96195a9" y="95.432685"/>
      </g>
     </g>
     <g id="text_18">
      <!-- 1.6 -->
      <g transform="translate(34.696875 99.231903)scale(0.1 -0.1)">
       <use xlink:href="#DejaVuSans-49"/>
       <use x="63.623047" xlink:href="#DejaVuSans-46"/>
       <use x="95.410156" xlink:href="#DejaVuSans-54"/>
      </g>
     </g>
    </g>
    <g id="ytick_8">
     <g id="line2d_25">
      <path clip-path="url(#pdecc941643)" d="M 57.6 63.95121 
L 414.72 63.95121 
" style="fill:none;stroke:#b0b0b0;stroke-dasharray:5.12,1.28,0.8,1.28;stroke-dashoffset:0;stroke-width:0.8;"/>
     </g>
     <g id="line2d_26">
      <g>
       <use style="stroke:#000000;stroke-width:0.8;" x="57.6" xlink:href="#mf7c96195a9" y="63.95121"/>
      </g>
     </g>
     <g id="text_19">
      <!-- 1.8 -->
      <g transform="translate(34.696875 67.750429)scale(0.1 -0.1)">
       <use xlink:href="#DejaVuSans-49"/>
       <use x="63.623047" xlink:href="#DejaVuSans-46"/>
       <use x="95.410156" xlink:href="#DejaVuSans-56"/>
      </g>
     </g>
    </g>
    <g id="text_20">
     <!-- duration (s) -->
     <defs>
      <path d="M 31 75.875 
Q 24.46875 64.65625 21.28125 53.65625 
Q 18.109375 42.671875 18.109375 31.390625 
Q 18.109375 20.125 21.3125 9.0625 
Q 24.515625 -2 31 -13.1875 
L 23.1875 -13.1875 
Q 15.875 -1.703125 12.234375 9.375 
Q 8.59375 20.453125 8.59375 31.390625 
Q 8.59375 42.28125 12.203125 53.3125 
Q 15.828125 64.359375 23.1875 75.875 
z
" id="DejaVuSans-40"/>
      <path d="M 8.015625 75.875 
L 15.828125 75.875 
Q 23.140625 64.359375 26.78125 53.3125 
Q 30.421875 42.28125 30.421875 31.390625 
Q 30.421875 20.453125 26.78125 9.375 
Q 23.140625 -1.703125 15.828125 -13.1875 
L 8.015625 -13.1875 
Q 14.5 -2 17.703125 9.0625 
Q 20.90625 20.125 20.90625 31.390625 
Q 20.90625 42.671875 17.703125 53.65625 
Q 14.5 64.65625 8.015625 75.875 
z
" id="DejaVuSans-41"/>
     </defs>
     <g transform="translate(28.617187 203.663156)rotate(-90)scale(0.1 -0.1)">
      <use xlink:href="#DejaVuSans-100"/>
      <use x="63.476562" xlink:href="#DejaVuSans-117"/>
      <use x="126.855469" xlink:href="#DejaVuSans-114"/>
      <use x="167.96875" xlink:href="#DejaVuSans-97"/>
      <use x="229.248047" xlink:href="#DejaVuSans-116"/>
      <use x="268.457031" xlink:href="#DejaVuSans-105"/>
      <use x="296.240234" xlink:href="#DejaVuSans-111"/>
      <use x="357.421875" xlink:href="#DejaVuSans-110"/>
      <use x="420.800781" xlink:href="#DejaVuSans-32"/>
      <use x="452.587891" xlink:href="#DejaVuSans-40"/>
      <use x="491.601562" xlink:href="#DejaVuSans-115"/>
      <use x="543.701172" xlink:href="#DejaVuSans-41"/>
     </g>
    </g>
   </g>
   <g id="line2d_27">
    <path clip-path="url(#pdecc941643)" d="M 66.528 181.720647 
L 84.384 181.720647 
L 84.384 181.632585 
L 66.528 181.632585 
L 66.528 181.720647 
" style="fill:none;stroke:#696969;stroke-linecap:square;"/>
   </g>
   <g id="line2d_28">
    <path clip-path="url(#pdecc941643)" d="M 75.456 181.720647 
L 75.456 181.77283 
" style="fill:none;stroke:#696969;stroke-linecap:square;"/>
   </g>
   <g id="line2d_29">
    <path clip-path="url(#pdecc941643)" d="M 75.456 181.632585 
L 75.456 181.550922 
" style="fill:none;stroke:#696969;stroke-linecap:square;"/>
   </g>
   <g id="line2d_30">
    <path clip-path="url(#pdecc941643)" d="M 70.992 181.77283 
L 79.92 181.77283 
" style="fill:none;stroke:#4169e1;stroke-linecap:square;"/>
   </g>
   <g id="line2d_31">
    <path clip-path="url(#pdecc941643)" d="M 70.992 181.550922 
L 79.92 181.550922 
" style="fill:none;stroke:#4169e1;stroke-linecap:square;"/>
   </g>
   <g id="line2d_32"/>
   <g id="line2d_33">
    <path clip-path="url(#pdecc941643)" d="M 102.24 180.647603 
L 120.096 180.647603 
L 120.096 180.586619 
L 102.24 180.586619 
L 102.24 180.647603 
" style="fill:none;stroke:#696969;stroke-linecap:square;"/>
   </g>
   <g id="line2d_34">
    <path clip-path="url(#pdecc941643)" d="M 111.168 180.647603 
L 111.168 180.67286 
" style="fill:none;stroke:#696969;stroke-linecap:square;"/>
   </g>
   <g id="line2d_35">
    <path clip-path="url(#pdecc941643)" d="M 111.168 180.586619 
L 111.168 180.576373 
" style="fill:none;stroke:#696969;stroke-linecap:square;"/>
   </g>
   <g id="line2d_36">
    <path clip-path="url(#pdecc941643)" d="M 106.704 180.67286 
L 115.632 180.67286 
" style="fill:none;stroke:#4169e1;stroke-linecap:square;"/>
   </g>
   <g id="line2d_37">
    <path clip-path="url(#pdecc941643)" d="M 106.704 180.576373 
L 115.632 180.576373 
" style="fill:none;stroke:#4169e1;stroke-linecap:square;"/>
   </g>
   <g id="line2d_38">
    <defs>
     <path d="M -3 0 
L 3 0 
M 0 3 
L 0 -3 
" id="ma4d7eaa077" style="stroke:#0000ff;"/>
    </defs>
    <g clip-path="url(#pdecc941643)">
     <use style="fill:#0000ff;stroke:#0000ff;" x="111.168" xlink:href="#ma4d7eaa077" y="180.741988"/>
    </g>
   </g>
   <g id="line2d_39">
    <path clip-path="url(#pdecc941643)" d="M 137.952 179.169417 
L 155.808 179.169417 
L 155.808 179.12382 
L 137.952 179.12382 
L 137.952 179.169417 
" style="fill:none;stroke:#696969;stroke-linecap:square;"/>
   </g>
   <g id="line2d_40">
    <path clip-path="url(#pdecc941643)" d="M 146.88 179.169417 
L 146.88 179.199853 
" style="fill:none;stroke:#696969;stroke-linecap:square;"/>
   </g>
   <g id="line2d_41">
    <path clip-path="url(#pdecc941643)" d="M 146.88 179.12382 
L 146.88 179.056118 
" style="fill:none;stroke:#696969;stroke-linecap:square;"/>
   </g>
   <g id="line2d_42">
    <path clip-path="url(#pdecc941643)" d="M 142.416 179.199853 
L 151.344 179.199853 
" style="fill:none;stroke:#4169e1;stroke-linecap:square;"/>
   </g>
   <g id="line2d_43">
    <path clip-path="url(#pdecc941643)" d="M 142.416 179.056118 
L 151.344 179.056118 
" style="fill:none;stroke:#4169e1;stroke-linecap:square;"/>
   </g>
   <g id="line2d_44"/>
   <g id="line2d_45">
    <path clip-path="url(#pdecc941643)" d="M 173.664 293.171307 
L 191.52 293.171307 
L 191.52 293.014193 
L 173.664 293.014193 
L 173.664 293.171307 
" style="fill:none;stroke:#696969;stroke-linecap:square;"/>
   </g>
   <g id="line2d_46">
    <path clip-path="url(#pdecc941643)" d="M 182.592 293.171307 
L 182.592 293.205421 
" style="fill:none;stroke:#696969;stroke-linecap:square;"/>
   </g>
   <g id="line2d_47">
    <path clip-path="url(#pdecc941643)" d="M 182.592 293.014193 
L 182.592 292.955178 
" style="fill:none;stroke:#696969;stroke-linecap:square;"/>
   </g>
   <g id="line2d_48">
    <path clip-path="url(#pdecc941643)" d="M 178.128 293.205421 
L 187.056 293.205421 
" style="fill:none;stroke:#4169e1;stroke-linecap:square;"/>
   </g>
   <g id="line2d_49">
    <path clip-path="url(#pdecc941643)" d="M 178.128 292.955178 
L 187.056 292.955178 
" style="fill:none;stroke:#4169e1;stroke-linecap:square;"/>
   </g>
   <g id="line2d_50"/>
   <g id="line2d_51">
    <path clip-path="url(#pdecc941643)" d="M 209.376 171.761092 
L 227.232 171.761092 
L 227.232 171.678698 
L 209.376 171.678698 
L 209.376 171.761092 
" style="fill:none;stroke:#696969;stroke-linecap:square;"/>
   </g>
   <g id="line2d_52">
    <path clip-path="url(#pdecc941643)" d="M 218.304 171.761092 
L 218.304 171.843262 
" style="fill:none;stroke:#696969;stroke-linecap:square;"/>
   </g>
   <g id="line2d_53">
    <path clip-path="url(#pdecc941643)" d="M 218.304 171.678698 
L 218.304 171.634376 
" style="fill:none;stroke:#696969;stroke-linecap:square;"/>
   </g>
   <g id="line2d_54">
    <path clip-path="url(#pdecc941643)" d="M 213.84 171.843262 
L 222.768 171.843262 
" style="fill:none;stroke:#4169e1;stroke-linecap:square;"/>
   </g>
   <g id="line2d_55">
    <path clip-path="url(#pdecc941643)" d="M 213.84 171.634376 
L 222.768 171.634376 
" style="fill:none;stroke:#4169e1;stroke-linecap:square;"/>
   </g>
   <g id="line2d_56"/>
   <g id="line2d_57">
    <path clip-path="url(#pdecc941643)" d="M 245.088 72.328481 
L 262.944 72.328481 
L 262.944 72.294198 
L 245.088 72.294198 
L 245.088 72.328481 
" style="fill:none;stroke:#696969;stroke-linecap:square;"/>
   </g>
   <g id="line2d_58">
    <path clip-path="url(#pdecc941643)" d="M 254.016 72.328481 
L 254.016 72.333434 
" style="fill:none;stroke:#696969;stroke-linecap:square;"/>
   </g>
   <g id="line2d_59">
    <path clip-path="url(#pdecc941643)" d="M 254.016 72.294198 
L 254.016 72.276803 
" style="fill:none;stroke:#696969;stroke-linecap:square;"/>
   </g>
   <g id="line2d_60">
    <path clip-path="url(#pdecc941643)" d="M 249.552 72.333434 
L 258.48 72.333434 
" style="fill:none;stroke:#4169e1;stroke-linecap:square;"/>
   </g>
   <g id="line2d_61">
    <path clip-path="url(#pdecc941643)" d="M 249.552 72.276803 
L 258.48 72.276803 
" style="fill:none;stroke:#4169e1;stroke-linecap:square;"/>
   </g>
   <g id="line2d_62">
    <g clip-path="url(#pdecc941643)">
     <use style="fill:#0000ff;stroke:#0000ff;" x="254.016" xlink:href="#ma4d7eaa077" y="72.410143"/>
    </g>
   </g>
   <g id="line2d_63">
    <path clip-path="url(#pdecc941643)" d="M 280.8 73.839223 
L 298.656 73.839223 
L 298.656 73.657902 
L 280.8 73.657902 
L 280.8 73.839223 
" style="fill:none;stroke:#696969;stroke-linecap:square;"/>
   </g>
   <g id="line2d_64">
    <path clip-path="url(#pdecc941643)" d="M 289.728 73.839223 
L 289.728 73.87891 
" style="fill:none;stroke:#696969;stroke-linecap:square;"/>
   </g>
   <g id="line2d_65">
    <path clip-path="url(#pdecc941643)" d="M 289.728 73.657902 
L 289.728 73.55117 
" style="fill:none;stroke:#696969;stroke-linecap:square;"/>
   </g>
   <g id="line2d_66">
    <path clip-path="url(#pdecc941643)" d="M 285.264 73.87891 
L 294.192 73.87891 
" style="fill:none;stroke:#4169e1;stroke-linecap:square;"/>
   </g>
   <g id="line2d_67">
    <path clip-path="url(#pdecc941643)" d="M 285.264 73.55117 
L 294.192 73.55117 
" style="fill:none;stroke:#4169e1;stroke-linecap:square;"/>
   </g>
   <g id="line2d_68"/>
   <g id="line2d_69">
    <path clip-path="url(#pdecc941643)" d="M 316.512 72.814348 
L 334.368 72.814348 
L 334.368 72.615013 
L 316.512 72.615013 
L 316.512 72.814348 
" style="fill:none;stroke:#696969;stroke-linecap:square;"/>
   </g>
   <g id="line2d_70">
    <path clip-path="url(#pdecc941643)" d="M 325.44 72.814348 
L 325.44 72.843939 
" style="fill:none;stroke:#696969;stroke-linecap:square;"/>
   </g>
   <g id="line2d_71">
    <path clip-path="url(#pdecc941643)" d="M 325.44 72.615013 
L 325.44 72.60139 
" style="fill:none;stroke:#696969;stroke-linecap:square;"/>
   </g>
   <g id="line2d_72">
    <path clip-path="url(#pdecc941643)" d="M 320.976 72.843939 
L 329.904 72.843939 
" style="fill:none;stroke:#4169e1;stroke-linecap:square;"/>
   </g>
   <g id="line2d_73">
    <path clip-path="url(#pdecc941643)" d="M 320.976 72.60139 
L 329.904 72.60139 
" style="fill:none;stroke:#4169e1;stroke-linecap:square;"/>
   </g>
   <g id="line2d_74">
    <g clip-path="url(#pdecc941643)">
     <use style="fill:#0000ff;stroke:#0000ff;" x="325.44" xlink:href="#ma4d7eaa077" y="72.305888"/>
    </g>
   </g>
   <g id="line2d_75">
    <path clip-path="url(#pdecc941643)" d="M 352.224 295.458803 
L 370.08 295.458803 
L 370.08 294.920883 
L 352.224 294.920883 
L 352.224 295.458803 
" style="fill:none;stroke:#696969;stroke-linecap:square;"/>
   </g>
   <g id="line2d_76">
    <path clip-path="url(#pdecc941643)" d="M 361.152 295.458803 
L 361.152 295.488 
" style="fill:none;stroke:#696969;stroke-linecap:square;"/>
   </g>
   <g id="line2d_77">
    <path clip-path="url(#pdecc941643)" d="M 361.152 294.920883 
L 361.152 294.149571 
" style="fill:none;stroke:#696969;stroke-linecap:square;"/>
   </g>
   <g id="line2d_78">
    <path clip-path="url(#pdecc941643)" d="M 356.688 295.488 
L 365.616 295.488 
" style="fill:none;stroke:#4169e1;stroke-linecap:square;"/>
   </g>
   <g id="line2d_79">
    <path clip-path="url(#pdecc941643)" d="M 356.688 294.149571 
L 365.616 294.149571 
" style="fill:none;stroke:#4169e1;stroke-linecap:square;"/>
   </g>
   <g id="line2d_80"/>
   <g id="line2d_81">
    <path clip-path="url(#pdecc941643)" d="M 387.936 294.715093 
L 405.792 294.715093 
L 405.792 294.541842 
L 387.936 294.541842 
L 387.936 294.715093 
" style="fill:none;stroke:#696969;stroke-linecap:square;"/>
   </g>
   <g id="line2d_82">
    <path clip-path="url(#pdecc941643)" d="M 396.864 294.715093 
L 396.864 294.838376 
" style="fill:none;stroke:#696969;stroke-linecap:square;"/>
   </g>
   <g id="line2d_83">
    <path clip-path="url(#pdecc941643)" d="M 396.864 294.541842 
L 396.864 294.379698 
" style="fill:none;stroke:#696969;stroke-linecap:square;"/>
   </g>
   <g id="line2d_84">
    <path clip-path="url(#pdecc941643)" d="M 392.4 294.838376 
L 401.328 294.838376 
" style="fill:none;stroke:#4169e1;stroke-linecap:square;"/>
   </g>
   <g id="line2d_85">
    <path clip-path="url(#pdecc941643)" d="M 392.4 294.379698 
L 401.328 294.379698 
" style="fill:none;stroke:#4169e1;stroke-linecap:square;"/>
   </g>
   <g id="line2d_86"/>
   <g id="line2d_87">
    <path clip-path="url(#pdecc941643)" d="M 66.528 162.033954 
L 84.384 162.033954 
L 84.384 161.842313 
L 66.528 161.842313 
L 66.528 162.033954 
" style="fill:none;stroke:#696969;stroke-linecap:square;"/>
   </g>
   <g id="line2d_88">
    <path clip-path="url(#pdecc941643)" d="M 75.456 162.033954 
L 75.456 162.142244 
" style="fill:none;stroke:#696969;stroke-linecap:square;"/>
   </g>
   <g id="line2d_89">
    <path clip-path="url(#pdecc941643)" d="M 75.456 161.842313 
L 75.456 161.818782 
" style="fill:none;stroke:#696969;stroke-linecap:square;"/>
   </g>
   <g id="line2d_90">
    <path clip-path="url(#pdecc941643)" d="M 70.992 162.142244 
L 79.92 162.142244 
" style="fill:none;stroke:#b22222;stroke-linecap:square;"/>
   </g>
   <g id="line2d_91">
    <path clip-path="url(#pdecc941643)" d="M 70.992 161.818782 
L 79.92 161.818782 
" style="fill:none;stroke:#b22222;stroke-linecap:square;"/>
   </g>
   <g id="line2d_92"/>
   <g id="line2d_93">
    <path clip-path="url(#pdecc941643)" d="M 102.24 161.361024 
L 120.096 161.361024 
L 120.096 161.234327 
L 102.24 161.234327 
L 102.24 161.361024 
" style="fill:none;stroke:#696969;stroke-linecap:square;"/>
   </g>
   <g id="line2d_94">
    <path clip-path="url(#pdecc941643)" d="M 111.168 161.361024 
L 111.168 161.385099 
" style="fill:none;stroke:#696969;stroke-linecap:square;"/>
   </g>
   <g id="line2d_95">
    <path clip-path="url(#pdecc941643)" d="M 111.168 161.234327 
L 111.168 161.197793 
" style="fill:none;stroke:#696969;stroke-linecap:square;"/>
   </g>
   <g id="line2d_96">
    <path clip-path="url(#pdecc941643)" d="M 106.704 161.385099 
L 115.632 161.385099 
" style="fill:none;stroke:#b22222;stroke-linecap:square;"/>
   </g>
   <g id="line2d_97">
    <path clip-path="url(#pdecc941643)" d="M 106.704 161.197793 
L 115.632 161.197793 
" style="fill:none;stroke:#b22222;stroke-linecap:square;"/>
   </g>
   <g id="line2d_98"/>
   <g id="line2d_99">
    <path clip-path="url(#pdecc941643)" d="M 137.952 158.616709 
L 155.808 158.616709 
L 155.808 158.562405 
L 137.952 158.562405 
L 137.952 158.616709 
" style="fill:none;stroke:#696969;stroke-linecap:square;"/>
   </g>
   <g id="line2d_100">
    <path clip-path="url(#pdecc941643)" d="M 146.88 158.616709 
L 146.88 158.626542 
" style="fill:none;stroke:#696969;stroke-linecap:square;"/>
   </g>
   <g id="line2d_101">
    <path clip-path="url(#pdecc941643)" d="M 146.88 158.562405 
L 146.88 158.490687 
" style="fill:none;stroke:#696969;stroke-linecap:square;"/>
   </g>
   <g id="line2d_102">
    <path clip-path="url(#pdecc941643)" d="M 142.416 158.626542 
L 151.344 158.626542 
" style="fill:none;stroke:#b22222;stroke-linecap:square;"/>
   </g>
   <g id="line2d_103">
    <path clip-path="url(#pdecc941643)" d="M 142.416 158.490687 
L 151.344 158.490687 
" style="fill:none;stroke:#b22222;stroke-linecap:square;"/>
   </g>
   <g id="line2d_104"/>
   <g id="line2d_105">
    <path clip-path="url(#pdecc941643)" d="M 173.664 205.869837 
L 191.52 205.869837 
L 191.52 205.653052 
L 173.664 205.653052 
L 173.664 205.869837 
" style="fill:none;stroke:#696969;stroke-linecap:square;"/>
   </g>
   <g id="line2d_106">
    <path clip-path="url(#pdecc941643)" d="M 182.592 205.869837 
L 182.592 205.906991 
" style="fill:none;stroke:#696969;stroke-linecap:square;"/>
   </g>
   <g id="line2d_107">
    <path clip-path="url(#pdecc941643)" d="M 182.592 205.653052 
L 182.592 205.601018 
" style="fill:none;stroke:#696969;stroke-linecap:square;"/>
   </g>
   <g id="line2d_108">
    <path clip-path="url(#pdecc941643)" d="M 178.128 205.906991 
L 187.056 205.906991 
" style="fill:none;stroke:#b22222;stroke-linecap:square;"/>
   </g>
   <g id="line2d_109">
    <path clip-path="url(#pdecc941643)" d="M 178.128 205.601018 
L 187.056 205.601018 
" style="fill:none;stroke:#b22222;stroke-linecap:square;"/>
   </g>
   <g id="line2d_110">
    <defs>
     <path d="M -3 0 
L 3 0 
M 0 3 
L 0 -3 
" id="m312661bef5" style="stroke:#ff0000;"/>
    </defs>
    <g clip-path="url(#pdecc941643)">
     <use style="fill:#ff0000;stroke:#ff0000;" x="182.592" xlink:href="#m312661bef5" y="205.197396"/>
    </g>
   </g>
   <g id="line2d_111">
    <path clip-path="url(#pdecc941643)" d="M 209.376 112.827281 
L 227.232 112.827281 
L 227.232 110.91361 
L 209.376 110.91361 
L 209.376 112.827281 
" style="fill:none;stroke:#696969;stroke-linecap:square;"/>
   </g>
   <g id="line2d_112">
    <path clip-path="url(#pdecc941643)" d="M 218.304 112.827281 
L 218.304 113.562396 
" style="fill:none;stroke:#696969;stroke-linecap:square;"/>
   </g>
   <g id="line2d_113">
    <path clip-path="url(#pdecc941643)" d="M 218.304 110.91361 
L 218.304 110.505859 
" style="fill:none;stroke:#696969;stroke-linecap:square;"/>
   </g>
   <g id="line2d_114">
    <path clip-path="url(#pdecc941643)" d="M 213.84 113.562396 
L 222.768 113.562396 
" style="fill:none;stroke:#b22222;stroke-linecap:square;"/>
   </g>
   <g id="line2d_115">
    <path clip-path="url(#pdecc941643)" d="M 213.84 110.505859 
L 222.768 110.505859 
" style="fill:none;stroke:#b22222;stroke-linecap:square;"/>
   </g>
   <g id="line2d_116"/>
   <g id="line2d_117">
    <path clip-path="url(#pdecc941643)" d="M 245.088 55.299562 
L 262.944 55.299562 
L 262.944 55.224486 
L 245.088 55.224486 
L 245.088 55.299562 
" style="fill:none;stroke:#696969;stroke-linecap:square;"/>
   </g>
   <g id="line2d_118">
    <path clip-path="url(#pdecc941643)" d="M 254.016 55.299562 
L 254.016 55.302958 
" style="fill:none;stroke:#696969;stroke-linecap:square;"/>
   </g>
   <g id="line2d_119">
    <path clip-path="url(#pdecc941643)" d="M 254.016 55.224486 
L 254.016 55.112124 
" style="fill:none;stroke:#696969;stroke-linecap:square;"/>
   </g>
   <g id="line2d_120">
    <path clip-path="url(#pdecc941643)" d="M 249.552 55.302958 
L 258.48 55.302958 
" style="fill:none;stroke:#b22222;stroke-linecap:square;"/>
   </g>
   <g id="line2d_121">
    <path clip-path="url(#pdecc941643)" d="M 249.552 55.112124 
L 258.48 55.112124 
" style="fill:none;stroke:#b22222;stroke-linecap:square;"/>
   </g>
   <g id="line2d_122">
    <g clip-path="url(#pdecc941643)">
     <use style="fill:#ff0000;stroke:#ff0000;" x="254.016" xlink:href="#m312661bef5" y="55.437537"/>
    </g>
   </g>
   <g id="line2d_123">
    <path clip-path="url(#pdecc941643)" d="M 280.8 56.651051 
L 298.656 56.651051 
L 298.656 56.545126 
L 280.8 56.545126 
L 280.8 56.651051 
" style="fill:none;stroke:#696969;stroke-linecap:square;"/>
   </g>
   <g id="line2d_124">
    <path clip-path="url(#pdecc941643)" d="M 289.728 56.651051 
L 289.728 56.693627 
" style="fill:none;stroke:#696969;stroke-linecap:square;"/>
   </g>
   <g id="line2d_125">
    <path clip-path="url(#pdecc941643)" d="M 289.728 56.545126 
L 289.728 56.454381 
" style="fill:none;stroke:#696969;stroke-linecap:square;"/>
   </g>
   <g id="line2d_126">
    <path clip-path="url(#pdecc941643)" d="M 285.264 56.693627 
L 294.192 56.693627 
" style="fill:none;stroke:#b22222;stroke-linecap:square;"/>
   </g>
   <g id="line2d_127">
    <path clip-path="url(#pdecc941643)" d="M 285.264 56.454381 
L 294.192 56.454381 
" style="fill:none;stroke:#b22222;stroke-linecap:square;"/>
   </g>
   <g id="line2d_128"/>
   <g id="line2d_129">
    <path clip-path="url(#pdecc941643)" d="M 316.512 53.84273 
L 334.368 53.84273 
L 334.368 53.738081 
L 316.512 53.738081 
L 316.512 53.84273 
" style="fill:none;stroke:#696969;stroke-linecap:square;"/>
   </g>
   <g id="line2d_130">
    <path clip-path="url(#pdecc941643)" d="M 325.44 53.84273 
L 325.44 53.995641 
" style="fill:none;stroke:#696969;stroke-linecap:square;"/>
   </g>
   <g id="line2d_131">
    <path clip-path="url(#pdecc941643)" d="M 325.44 53.738081 
L 325.44 53.72746 
" style="fill:none;stroke:#696969;stroke-linecap:square;"/>
   </g>
   <g id="line2d_132">
    <path clip-path="url(#pdecc941643)" d="M 320.976 53.995641 
L 329.904 53.995641 
" style="fill:none;stroke:#b22222;stroke-linecap:square;"/>
   </g>
   <g id="line2d_133">
    <path clip-path="url(#pdecc941643)" d="M 320.976 53.72746 
L 329.904 53.72746 
" style="fill:none;stroke:#b22222;stroke-linecap:square;"/>
   </g>
   <g id="line2d_134">
    <g clip-path="url(#pdecc941643)">
     <use style="fill:#ff0000;stroke:#ff0000;" x="325.44" xlink:href="#m312661bef5" y="53.568"/>
    </g>
   </g>
   <g id="line2d_135">
    <path clip-path="url(#pdecc941643)" d="M 352.224 288.622924 
L 370.08 288.622924 
L 370.08 287.00423 
L 352.224 287.00423 
L 352.224 288.622924 
" style="fill:none;stroke:#696969;stroke-linecap:square;"/>
   </g>
   <g id="line2d_136">
    <path clip-path="url(#pdecc941643)" d="M 361.152 288.622924 
L 361.152 289.823397 
" style="fill:none;stroke:#696969;stroke-linecap:square;"/>
   </g>
   <g id="line2d_137">
    <path clip-path="url(#pdecc941643)" d="M 361.152 287.00423 
L 361.152 285.678223 
" style="fill:none;stroke:#696969;stroke-linecap:square;"/>
   </g>
   <g id="line2d_138">
    <path clip-path="url(#pdecc941643)" d="M 356.688 289.823397 
L 365.616 289.823397 
" style="fill:none;stroke:#b22222;stroke-linecap:square;"/>
   </g>
   <g id="line2d_139">
    <path clip-path="url(#pdecc941643)" d="M 356.688 285.678223 
L 365.616 285.678223 
" style="fill:none;stroke:#b22222;stroke-linecap:square;"/>
   </g>
   <g id="line2d_140"/>
   <g id="line2d_141">
    <path clip-path="url(#pdecc941643)" d="M 387.936 288.405013 
L 405.792 288.405013 
L 405.792 287.9253 
L 387.936 287.9253 
L 387.936 288.405013 
" style="fill:none;stroke:#696969;stroke-linecap:square;"/>
   </g>
   <g id="line2d_142">
    <path clip-path="url(#pdecc941643)" d="M 396.864 288.405013 
L 396.864 288.548242 
" style="fill:none;stroke:#696969;stroke-linecap:square;"/>
   </g>
   <g id="line2d_143">
    <path clip-path="url(#pdecc941643)" d="M 396.864 287.9253 
L 396.864 287.285959 
" style="fill:none;stroke:#696969;stroke-linecap:square;"/>
   </g>
   <g id="line2d_144">
    <path clip-path="url(#pdecc941643)" d="M 392.4 288.548242 
L 401.328 288.548242 
" style="fill:none;stroke:#b22222;stroke-linecap:square;"/>
   </g>
   <g id="line2d_145">
    <path clip-path="url(#pdecc941643)" d="M 392.4 287.285959 
L 401.328 287.285959 
" style="fill:none;stroke:#b22222;stroke-linecap:square;"/>
   </g>
   <g id="line2d_146"/>
   <g id="line2d_147">
    <path clip-path="url(#pdecc941643)" d="M 66.528 181.69098 
L 84.384 181.69098 
" style="fill:none;stroke:#0000ff;stroke-linecap:square;"/>
   </g>
   <g id="line2d_148">
    <path clip-path="url(#pdecc941643)" d="M 102.24 180.605834 
L 120.096 180.605834 
" style="fill:none;stroke:#0000ff;stroke-linecap:square;"/>
   </g>
   <g id="line2d_149">
    <path clip-path="url(#pdecc941643)" d="M 137.952 179.136729 
L 155.808 179.136729 
" style="fill:none;stroke:#0000ff;stroke-linecap:square;"/>
   </g>
   <g id="line2d_150">
    <path clip-path="url(#pdecc941643)" d="M 173.664 293.122182 
L 191.52 293.122182 
" style="fill:none;stroke:#0000ff;stroke-linecap:square;"/>
   </g>
   <g id="line2d_151">
    <path clip-path="url(#pdecc941643)" d="M 209.376 171.710072 
L 227.232 171.710072 
" style="fill:none;stroke:#0000ff;stroke-linecap:square;"/>
   </g>
   <g id="line2d_152">
    <path clip-path="url(#pdecc941643)" d="M 245.088 72.321688 
L 262.944 72.321688 
" style="fill:none;stroke:#0000ff;stroke-linecap:square;"/>
   </g>
   <g id="line2d_153">
    <path clip-path="url(#pdecc941643)" d="M 280.8 73.766661 
L 298.656 73.766661 
" style="fill:none;stroke:#0000ff;stroke-linecap:square;"/>
   </g>
   <g id="line2d_154">
    <path clip-path="url(#pdecc941643)" d="M 316.512 72.633177 
L 334.368 72.633177 
" style="fill:none;stroke:#0000ff;stroke-linecap:square;"/>
   </g>
   <g id="line2d_155">
    <path clip-path="url(#pdecc941643)" d="M 352.224 295.218055 
L 370.08 295.218055 
" style="fill:none;stroke:#0000ff;stroke-linecap:square;"/>
   </g>
   <g id="line2d_156">
    <path clip-path="url(#pdecc941643)" d="M 387.936 294.654672 
L 405.792 294.654672 
" style="fill:none;stroke:#0000ff;stroke-linecap:square;"/>
   </g>
   <g id="line2d_157">
    <path clip-path="url(#pdecc941643)" d="M 66.528 161.923113 
L 84.384 161.923113 
" style="fill:none;stroke:#ff0000;stroke-linecap:square;"/>
   </g>
   <g id="line2d_158">
    <path clip-path="url(#pdecc941643)" d="M 102.24 161.288012 
L 120.096 161.288012 
" style="fill:none;stroke:#ff0000;stroke-linecap:square;"/>
   </g>
   <g id="line2d_159">
    <path clip-path="url(#pdecc941643)" d="M 137.952 158.595243 
L 155.808 158.595243 
" style="fill:none;stroke:#ff0000;stroke-linecap:square;"/>
   </g>
   <g id="line2d_160">
    <path clip-path="url(#pdecc941643)" d="M 173.664 205.750683 
L 191.52 205.750683 
" style="fill:none;stroke:#ff0000;stroke-linecap:square;"/>
   </g>
   <g id="line2d_161">
    <path clip-path="url(#pdecc941643)" d="M 209.376 110.924718 
L 227.232 110.924718 
" style="fill:none;stroke:#ff0000;stroke-linecap:square;"/>
   </g>
   <g id="line2d_162">
    <path clip-path="url(#pdecc941643)" d="M 245.088 55.28941 
L 262.944 55.28941 
" style="fill:none;stroke:#ff0000;stroke-linecap:square;"/>
   </g>
   <g id="line2d_163">
    <path clip-path="url(#pdecc941643)" d="M 280.8 56.603295 
L 298.656 56.603295 
" style="fill:none;stroke:#ff0000;stroke-linecap:square;"/>
   </g>
   <g id="line2d_164">
    <path clip-path="url(#pdecc941643)" d="M 316.512 53.816666 
L 334.368 53.816666 
" style="fill:none;stroke:#ff0000;stroke-linecap:square;"/>
   </g>
   <g id="line2d_165">
    <path clip-path="url(#pdecc941643)" d="M 352.224 288.067647 
L 370.08 288.067647 
" style="fill:none;stroke:#ff0000;stroke-linecap:square;"/>
   </g>
   <g id="line2d_166">
    <path clip-path="url(#pdecc941643)" d="M 387.936 288.073952 
L 405.792 288.073952 
" style="fill:none;stroke:#ff0000;stroke-linecap:square;"/>
   </g>
   <g id="patch_3">
    <path d="M 57.6 307.584 
L 57.6 41.472 
" style="fill:none;stroke:#000000;stroke-linecap:square;stroke-linejoin:miter;stroke-width:0.8;"/>
   </g>
   <g id="patch_4">
    <path d="M 414.72 307.584 
L 414.72 41.472 
" style="fill:none;stroke:#000000;stroke-linecap:square;stroke-linejoin:miter;stroke-width:0.8;"/>
   </g>
   <g id="patch_5">
    <path d="M 57.6 307.584 
L 414.72 307.584 
" style="fill:none;stroke:#000000;stroke-linecap:square;stroke-linejoin:miter;stroke-width:0.8;"/>
   </g>
   <g id="patch_6">
    <path d="M 57.6 41.472 
L 414.72 41.472 
" style="fill:none;stroke:#000000;stroke-linecap:square;stroke-linejoin:miter;stroke-width:0.8;"/>
   </g>
   <g id="text_21">
    <!-- pre_transpose53 -->
    <defs>
     <path d="M 10.796875 72.90625 
L 49.515625 72.90625 
L 49.515625 64.59375 
L 19.828125 64.59375 
L 19.828125 46.734375 
Q 21.96875 47.46875 24.109375 47.828125 
Q 26.265625 48.1875 28.421875 48.1875 
Q 40.625 48.1875 47.75 41.5 
Q 54.890625 34.8125 54.890625 23.390625 
Q 54.890625 11.625 47.5625 5.09375 
Q 40.234375 -1.421875 26.90625 -1.421875 
Q 22.3125 -1.421875 17.546875 -0.640625 
Q 12.796875 0.140625 7.71875 1.703125 
L 7.71875 11.625 
Q 12.109375 9.234375 16.796875 8.0625 
Q 21.484375 6.890625 26.703125 6.890625 
Q 35.15625 6.890625 40.078125 11.328125 
Q 45.015625 15.765625 45.015625 23.390625 
Q 45.015625 31 40.078125 35.4375 
Q 35.15625 39.890625 26.703125 39.890625 
Q 22.75 39.890625 18.8125 39.015625 
Q 14.890625 38.140625 10.796875 36.28125 
z
" id="DejaVuSans-53"/>
    </defs>
    <g transform="translate(185.970937 35.472)scale(0.12 -0.12)">
     <use xlink:href="#DejaVuSans-112"/>
     <use x="63.476562" xlink:href="#DejaVuSans-114"/>
     <use x="102.339844" xlink:href="#DejaVuSans-101"/>
     <use x="163.863281" xlink:href="#DejaVuSans-95"/>
     <use x="213.863281" xlink:href="#DejaVuSans-116"/>
     <use x="253.072266" xlink:href="#DejaVuSans-114"/>
     <use x="294.185547" xlink:href="#DejaVuSans-97"/>
     <use x="355.464844" xlink:href="#DejaVuSans-110"/>
     <use x="418.84375" xlink:href="#DejaVuSans-115"/>
     <use x="470.943359" xlink:href="#DejaVuSans-112"/>
     <use x="534.419922" xlink:href="#DejaVuSans-111"/>
     <use x="595.601562" xlink:href="#DejaVuSans-115"/>
     <use x="647.701172" xlink:href="#DejaVuSans-101"/>
     <use x="709.224609" xlink:href="#DejaVuSans-53"/>
     <use x="772.847656" xlink:href="#DejaVuSans-51"/>
    </g>
   </g>
   <g id="legend_1">
    <g id="patch_7">
     <path d="M 64.6 93.7845 
L 183.65 93.7845 
Q 185.65 93.7845 185.65 91.7845 
L 185.65 48.472 
Q 185.65 46.472 183.65 46.472 
L 64.6 46.472 
Q 62.6 46.472 62.6 48.472 
L 62.6 91.7845 
Q 62.6 93.7845 64.6 93.7845 
z
" style="fill:#ffffff;opacity:0.8;stroke:#cccccc;stroke-linejoin:miter;"/>
    </g>
    <g id="line2d_167">
     <path d="M 66.6 54.570438 
L 86.6 54.570438 
" style="fill:none;stroke:#0000ff;stroke-linecap:square;"/>
    </g>
    <g id="line2d_168"/>
    <g id="text_22">
     <!-- transpose -->
     <g transform="translate(94.6 58.070438)scale(0.1 -0.1)">
      <use xlink:href="#DejaVuSans-116"/>
      <use x="39.208984" xlink:href="#DejaVuSans-114"/>
      <use x="80.322266" xlink:href="#DejaVuSans-97"/>
      <use x="141.601562" xlink:href="#DejaVuSans-110"/>
      <use x="204.980469" xlink:href="#DejaVuSans-115"/>
      <use x="257.080078" xlink:href="#DejaVuSans-112"/>
      <use x="320.556641" xlink:href="#DejaVuSans-111"/>
      <use x="381.738281" xlink:href="#DejaVuSans-115"/>
      <use x="433.837891" xlink:href="#DejaVuSans-101"/>
     </g>
    </g>
    <g id="line2d_169">
     <path d="M 66.6 69.248563 
L 86.6 69.248563 
" style="fill:none;stroke:#ff0000;stroke-linecap:square;"/>
    </g>
    <g id="line2d_170"/>
    <g id="text_23">
     <!-- transpose_tr -->
     <g transform="translate(94.6 72.748563)scale(0.1 -0.1)">
      <use xlink:href="#DejaVuSans-116"/>
      <use x="39.208984" xlink:href="#DejaVuSans-114"/>
      <use x="80.322266" xlink:href="#DejaVuSans-97"/>
      <use x="141.601562" xlink:href="#DejaVuSans-110"/>
      <use x="204.980469" xlink:href="#DejaVuSans-115"/>
      <use x="257.080078" xlink:href="#DejaVuSans-112"/>
      <use x="320.556641" xlink:href="#DejaVuSans-111"/>
      <use x="381.738281" xlink:href="#DejaVuSans-115"/>
      <use x="433.837891" xlink:href="#DejaVuSans-101"/>
      <use x="495.361328" xlink:href="#DejaVuSans-95"/>
      <use x="545.361328" xlink:href="#DejaVuSans-116"/>
      <use x="584.570312" xlink:href="#DejaVuSans-114"/>
     </g>
    </g>
    <g id="line2d_171"/>
    <g id="line2d_172">
     <defs>
      <path d="M 0 1.5 
C 0.397805 1.5 0.77937 1.341951 1.06066 1.06066 
C 1.341951 0.77937 1.5 0.397805 1.5 0 
C 1.5 -0.397805 1.341951 -0.77937 1.06066 -1.06066 
C 0.77937 -1.341951 0.397805 -1.5 0 -1.5 
C -0.397805 -1.5 -0.77937 -1.341951 -1.06066 -1.06066 
C -1.341951 -0.77937 -1.5 -0.397805 -1.5 0 
C -1.5 0.397805 -1.341951 0.77937 -1.06066 1.06066 
C -0.77937 1.341951 -0.397805 1.5 0 1.5 
z
" id="m2a97a28fbd" style="stroke:#008000;"/>
     </defs>
     <g>
      <use style="fill:#008000;stroke:#008000;" x="76.6" xlink:href="#m2a97a28fbd" y="84.204813"/>
     </g>
    </g>
    <g id="text_24">
     <!-- mean of medians -->
     <defs>
      <path d="M 37.109375 75.984375 
L 37.109375 68.5 
L 28.515625 68.5 
Q 23.6875 68.5 21.796875 66.546875 
Q 19.921875 64.59375 19.921875 59.515625 
L 19.921875 54.6875 
L 34.71875 54.6875 
L 34.71875 47.703125 
L 19.921875 47.703125 
L 19.921875 0 
L 10.890625 0 
L 10.890625 47.703125 
L 2.296875 47.703125 
L 2.296875 54.6875 
L 10.890625 54.6875 
L 10.890625 58.5 
Q 10.890625 67.625 15.140625 71.796875 
Q 19.390625 75.984375 28.609375 75.984375 
z
" id="DejaVuSans-102"/>
     </defs>
     <g transform="translate(94.6 87.704813)scale(0.1 -0.1)">
      <use xlink:href="#DejaVuSans-109"/>
      <use x="97.412109" xlink:href="#DejaVuSans-101"/>
      <use x="158.935547" xlink:href="#DejaVuSans-97"/>
      <use x="220.214844" xlink:href="#DejaVuSans-110"/>
      <use x="283.59375" xlink:href="#DejaVuSans-32"/>
      <use x="315.380859" xlink:href="#DejaVuSans-111"/>
      <use x="376.5625" xlink:href="#DejaVuSans-102"/>
      <use x="411.767578" xlink:href="#DejaVuSans-32"/>
      <use x="443.554688" xlink:href="#DejaVuSans-109"/>
      <use x="540.966797" xlink:href="#DejaVuSans-101"/>
      <use x="602.490234" xlink:href="#DejaVuSans-100"/>
      <use x="665.966797" xlink:href="#DejaVuSans-105"/>
      <use x="693.75" xlink:href="#DejaVuSans-97"/>
      <use x="755.029297" xlink:href="#DejaVuSans-110"/>
      <use x="818.408203" xlink:href="#DejaVuSans-115"/>
     </g>
    </g>
   </g>
   <g id="line2d_173">
    <g clip-path="url(#pdecc941643)">
     <use style="fill:#008000;stroke:#008000;" x="75.456" xlink:href="#m2a97a28fbd" y="171.807046"/>
     <use style="fill:#008000;stroke:#008000;" x="111.168" xlink:href="#m2a97a28fbd" y="170.946923"/>
     <use style="fill:#008000;stroke:#008000;" x="146.88" xlink:href="#m2a97a28fbd" y="168.865986"/>
     <use style="fill:#008000;stroke:#008000;" x="182.592" xlink:href="#m2a97a28fbd" y="249.436433"/>
     <use style="fill:#008000;stroke:#008000;" x="218.304" xlink:href="#m2a97a28fbd" y="141.317395"/>
     <use style="fill:#008000;stroke:#008000;" x="254.016" xlink:href="#m2a97a28fbd" y="63.805549"/>
     <use style="fill:#008000;stroke:#008000;" x="289.728" xlink:href="#m2a97a28fbd" y="65.184978"/>
     <use style="fill:#008000;stroke:#008000;" x="325.44" xlink:href="#m2a97a28fbd" y="63.224922"/>
     <use style="fill:#008000;stroke:#008000;" x="361.152" xlink:href="#m2a97a28fbd" y="291.642851"/>
     <use style="fill:#008000;stroke:#008000;" x="396.864" xlink:href="#m2a97a28fbd" y="291.364312"/>
    </g>
   </g>
  </g>
 </g>
 <defs>
  <clipPath id="pdecc941643">
   <rect height="266.112" width="357.12" x="57.6" y="41.472"/>
  </clipPath>
 </defs>
</svg>
