<?xml version="1.0" encoding="utf-8" standalone="no"?>
<!DOCTYPE svg PUBLIC "-//W3C//DTD SVG 1.1//EN"
  "http://www.w3.org/Graphics/SVG/1.1/DTD/svg11.dtd">
<!-- Created with matplotlib (https://matplotlib.org/) -->
<svg height="345.6pt" version="1.1" viewBox="0 0 460.8 345.6" width="460.8pt" xmlns="http://www.w3.org/2000/svg" xmlns:xlink="http://www.w3.org/1999/xlink">
 <defs>
  <style type="text/css">
*{stroke-linecap:butt;stroke-linejoin:round;}
  </style>
 </defs>
 <g id="figure_1">
  <g id="patch_1">
   <path d="M 0 345.6 
L 460.8 345.6 
L 460.8 0 
L 0 0 
z
" style="fill:#ffffff;"/>
  </g>
  <g id="axes_1">
   <g id="patch_2">
    <path d="M 57.6 307.584 
L 414.72 307.584 
L 414.72 41.472 
L 57.6 41.472 
z
" style="fill:#ffffff;"/>
   </g>
   <g id="matplotlib.axis_1">
    <g id="xtick_1">
     <g id="line2d_1">
      <path clip-path="url(#p89c2ef5707)" d="M 61.612584 307.584 
L 61.612584 41.472 
" style="fill:none;stroke:#b0b0b0;stroke-dasharray:5.12,1.28,0.8,1.28;stroke-dashoffset:0;stroke-width:0.8;"/>
     </g>
     <g id="line2d_2">
      <defs>
       <path d="M 0 0 
L 0 3.5 
" id="m640753b051" style="stroke:#000000;stroke-width:0.8;"/>
      </defs>
      <g>
       <use style="stroke:#000000;stroke-width:0.8;" x="61.612584" xlink:href="#m640753b051" y="307.584"/>
      </g>
     </g>
     <g id="text_1">
      <!-- 1 -->
      <defs>
       <path d="M 12.40625 8.296875 
L 28.515625 8.296875 
L 28.515625 63.921875 
L 10.984375 60.40625 
L 10.984375 69.390625 
L 28.421875 72.90625 
L 38.28125 72.90625 
L 38.28125 8.296875 
L 54.390625 8.296875 
L 54.390625 0 
L 12.40625 0 
z
" id="DejaVuSans-49"/>
      </defs>
      <g transform="translate(58.431334 322.182437)scale(0.1 -0.1)">
       <use xlink:href="#DejaVuSans-49"/>
      </g>
     </g>
    </g>
    <g id="xtick_2">
     <g id="line2d_3">
      <path clip-path="url(#p89c2ef5707)" d="M 73.650337 307.584 
L 73.650337 41.472 
" style="fill:none;stroke:#b0b0b0;stroke-dasharray:5.12,1.28,0.8,1.28;stroke-dashoffset:0;stroke-width:0.8;"/>
     </g>
     <g id="line2d_4">
      <g>
       <use style="stroke:#000000;stroke-width:0.8;" x="73.650337" xlink:href="#m640753b051" y="307.584"/>
      </g>
     </g>
     <g id="text_2">
      <!-- 4 -->
      <defs>
       <path d="M 37.796875 64.3125 
L 12.890625 25.390625 
L 37.796875 25.390625 
z
M 35.203125 72.90625 
L 47.609375 72.90625 
L 47.609375 25.390625 
L 58.015625 25.390625 
L 58.015625 17.1875 
L 47.609375 17.1875 
L 47.609375 0 
L 37.796875 0 
L 37.796875 17.1875 
L 4.890625 17.1875 
L 4.890625 26.703125 
z
" id="DejaVuSans-52"/>
      </defs>
      <g transform="translate(70.469087 322.182437)scale(0.1 -0.1)">
       <use xlink:href="#DejaVuSans-52"/>
      </g>
     </g>
    </g>
    <g id="xtick_3">
     <g id="line2d_5">
      <path clip-path="url(#p89c2ef5707)" d="M 89.700674 307.584 
L 89.700674 41.472 
" style="fill:none;stroke:#b0b0b0;stroke-dasharray:5.12,1.28,0.8,1.28;stroke-dashoffset:0;stroke-width:0.8;"/>
     </g>
     <g id="line2d_6">
      <g>
       <use style="stroke:#000000;stroke-width:0.8;" x="89.700674" xlink:href="#m640753b051" y="307.584"/>
      </g>
     </g>
     <g id="text_3">
      <!-- 8 -->
      <defs>
       <path d="M 31.78125 34.625 
Q 24.75 34.625 20.71875 30.859375 
Q 16.703125 27.09375 16.703125 20.515625 
Q 16.703125 13.921875 20.71875 10.15625 
Q 24.75 6.390625 31.78125 6.390625 
Q 38.8125 6.390625 42.859375 10.171875 
Q 46.921875 13.96875 46.921875 20.515625 
Q 46.921875 27.09375 42.890625 30.859375 
Q 38.875 34.625 31.78125 34.625 
z
M 21.921875 38.8125 
Q 15.578125 40.375 12.03125 44.71875 
Q 8.5 49.078125 8.5 55.328125 
Q 8.5 64.0625 14.71875 69.140625 
Q 20.953125 74.21875 31.78125 74.21875 
Q 42.671875 74.21875 48.875 69.140625 
Q 55.078125 64.0625 55.078125 55.328125 
Q 55.078125 49.078125 51.53125 44.71875 
Q 48 40.375 41.703125 38.8125 
Q 48.828125 37.15625 52.796875 32.3125 
Q 56.78125 27.484375 56.78125 20.515625 
Q 56.78125 9.90625 50.3125 4.234375 
Q 43.84375 -1.421875 31.78125 -1.421875 
Q 19.734375 -1.421875 13.25 4.234375 
Q 6.78125 9.90625 6.78125 20.515625 
Q 6.78125 27.484375 10.78125 32.3125 
Q 14.796875 37.15625 21.921875 38.8125 
z
M 18.3125 54.390625 
Q 18.3125 48.734375 21.84375 45.5625 
Q 25.390625 42.390625 31.78125 42.390625 
Q 38.140625 42.390625 41.71875 45.5625 
Q 45.3125 48.734375 45.3125 54.390625 
Q 45.3125 60.0625 41.71875 63.234375 
Q 38.140625 66.40625 31.78125 66.40625 
Q 25.390625 66.40625 21.84375 63.234375 
Q 18.3125 60.0625 18.3125 54.390625 
z
" id="DejaVuSans-56"/>
      </defs>
      <g transform="translate(86.519424 322.182437)scale(0.1 -0.1)">
       <use xlink:href="#DejaVuSans-56"/>
      </g>
     </g>
    </g>
    <g id="xtick_4">
     <g id="line2d_7">
      <path clip-path="url(#p89c2ef5707)" d="M 105.751011 307.584 
L 105.751011 41.472 
" style="fill:none;stroke:#b0b0b0;stroke-dasharray:5.12,1.28,0.8,1.28;stroke-dashoffset:0;stroke-width:0.8;"/>
     </g>
     <g id="line2d_8">
      <g>
       <use style="stroke:#000000;stroke-width:0.8;" x="105.751011" xlink:href="#m640753b051" y="307.584"/>
      </g>
     </g>
     <g id="text_4">
      <!-- 12 -->
      <defs>
       <path d="M 19.1875 8.296875 
L 53.609375 8.296875 
L 53.609375 0 
L 7.328125 0 
L 7.328125 8.296875 
Q 12.9375 14.109375 22.625 23.890625 
Q 32.328125 33.6875 34.8125 36.53125 
Q 39.546875 41.84375 41.421875 45.53125 
Q 43.3125 49.21875 43.3125 52.78125 
Q 43.3125 58.59375 39.234375 62.25 
Q 35.15625 65.921875 28.609375 65.921875 
Q 23.96875 65.921875 18.8125 64.3125 
Q 13.671875 62.703125 7.8125 59.421875 
L 7.8125 69.390625 
Q 13.765625 71.78125 18.9375 73 
Q 24.125 74.21875 28.421875 74.21875 
Q 39.75 74.21875 46.484375 68.546875 
Q 53.21875 62.890625 53.21875 53.421875 
Q 53.21875 48.921875 51.53125 44.890625 
Q 49.859375 40.875 45.40625 35.40625 
Q 44.1875 33.984375 37.640625 27.21875 
Q 31.109375 20.453125 19.1875 8.296875 
z
" id="DejaVuSans-50"/>
      </defs>
      <g transform="translate(99.388511 322.182437)scale(0.1 -0.1)">
       <use xlink:href="#DejaVuSans-49"/>
       <use x="63.623047" xlink:href="#DejaVuSans-50"/>
      </g>
     </g>
    </g>
    <g id="xtick_5">
     <g id="line2d_9">
      <path clip-path="url(#p89c2ef5707)" d="M 121.801348 307.584 
L 121.801348 41.472 
" style="fill:none;stroke:#b0b0b0;stroke-dasharray:5.12,1.28,0.8,1.28;stroke-dashoffset:0;stroke-width:0.8;"/>
     </g>
     <g id="line2d_10">
      <g>
       <use style="stroke:#000000;stroke-width:0.8;" x="121.801348" xlink:href="#m640753b051" y="307.584"/>
      </g>
     </g>
     <g id="text_5">
      <!-- 16 -->
      <defs>
       <path d="M 33.015625 40.375 
Q 26.375 40.375 22.484375 35.828125 
Q 18.609375 31.296875 18.609375 23.390625 
Q 18.609375 15.53125 22.484375 10.953125 
Q 26.375 6.390625 33.015625 6.390625 
Q 39.65625 6.390625 43.53125 10.953125 
Q 47.40625 15.53125 47.40625 23.390625 
Q 47.40625 31.296875 43.53125 35.828125 
Q 39.65625 40.375 33.015625 40.375 
z
M 52.59375 71.296875 
L 52.59375 62.3125 
Q 48.875 64.0625 45.09375 64.984375 
Q 41.3125 65.921875 37.59375 65.921875 
Q 27.828125 65.921875 22.671875 59.328125 
Q 17.53125 52.734375 16.796875 39.40625 
Q 19.671875 43.65625 24.015625 45.921875 
Q 28.375 48.1875 33.59375 48.1875 
Q 44.578125 48.1875 50.953125 41.515625 
Q 57.328125 34.859375 57.328125 23.390625 
Q 57.328125 12.15625 50.6875 5.359375 
Q 44.046875 -1.421875 33.015625 -1.421875 
Q 20.359375 -1.421875 13.671875 8.265625 
Q 6.984375 17.96875 6.984375 36.375 
Q 6.984375 53.65625 15.1875 63.9375 
Q 23.390625 74.21875 37.203125 74.21875 
Q 40.921875 74.21875 44.703125 73.484375 
Q 48.484375 72.75 52.59375 71.296875 
z
" id="DejaVuSans-54"/>
      </defs>
      <g transform="translate(115.438848 322.182437)scale(0.1 -0.1)">
       <use xlink:href="#DejaVuSans-49"/>
       <use x="63.623047" xlink:href="#DejaVuSans-54"/>
      </g>
     </g>
    </g>
    <g id="xtick_6">
     <g id="line2d_11">
      <path clip-path="url(#p89c2ef5707)" d="M 137.851685 307.584 
L 137.851685 41.472 
" style="fill:none;stroke:#b0b0b0;stroke-dasharray:5.12,1.28,0.8,1.28;stroke-dashoffset:0;stroke-width:0.8;"/>
     </g>
     <g id="line2d_12">
      <g>
       <use style="stroke:#000000;stroke-width:0.8;" x="137.851685" xlink:href="#m640753b051" y="307.584"/>
      </g>
     </g>
     <g id="text_6">
      <!-- 20 -->
      <defs>
       <path d="M 31.78125 66.40625 
Q 24.171875 66.40625 20.328125 58.90625 
Q 16.5 51.421875 16.5 36.375 
Q 16.5 21.390625 20.328125 13.890625 
Q 24.171875 6.390625 31.78125 6.390625 
Q 39.453125 6.390625 43.28125 13.890625 
Q 47.125 21.390625 47.125 36.375 
Q 47.125 51.421875 43.28125 58.90625 
Q 39.453125 66.40625 31.78125 66.40625 
z
M 31.78125 74.21875 
Q 44.046875 74.21875 50.515625 64.515625 
Q 56.984375 54.828125 56.984375 36.375 
Q 56.984375 17.96875 50.515625 8.265625 
Q 44.046875 -1.421875 31.78125 -1.421875 
Q 19.53125 -1.421875 13.0625 8.265625 
Q 6.59375 17.96875 6.59375 36.375 
Q 6.59375 54.828125 13.0625 64.515625 
Q 19.53125 74.21875 31.78125 74.21875 
z
" id="DejaVuSans-48"/>
      </defs>
      <g transform="translate(131.489185 322.182437)scale(0.1 -0.1)">
       <use xlink:href="#DejaVuSans-50"/>
       <use x="63.623047" xlink:href="#DejaVuSans-48"/>
      </g>
     </g>
    </g>
    <g id="xtick_7">
     <g id="line2d_13">
      <path clip-path="url(#p89c2ef5707)" d="M 153.902022 307.584 
L 153.902022 41.472 
" style="fill:none;stroke:#b0b0b0;stroke-dasharray:5.12,1.28,0.8,1.28;stroke-dashoffset:0;stroke-width:0.8;"/>
     </g>
     <g id="line2d_14">
      <g>
       <use style="stroke:#000000;stroke-width:0.8;" x="153.902022" xlink:href="#m640753b051" y="307.584"/>
      </g>
     </g>
     <g id="text_7">
      <!-- 24 -->
      <g transform="translate(147.539522 322.182437)scale(0.1 -0.1)">
       <use xlink:href="#DejaVuSans-50"/>
       <use x="63.623047" xlink:href="#DejaVuSans-52"/>
      </g>
     </g>
    </g>
    <g id="xtick_8">
     <g id="line2d_15">
      <path clip-path="url(#p89c2ef5707)" d="M 169.95236 307.584 
L 169.95236 41.472 
" style="fill:none;stroke:#b0b0b0;stroke-dasharray:5.12,1.28,0.8,1.28;stroke-dashoffset:0;stroke-width:0.8;"/>
     </g>
     <g id="line2d_16">
      <g>
       <use style="stroke:#000000;stroke-width:0.8;" x="169.95236" xlink:href="#m640753b051" y="307.584"/>
      </g>
     </g>
     <g id="text_8">
      <!-- 28 -->
      <g transform="translate(163.58986 322.182437)scale(0.1 -0.1)">
       <use xlink:href="#DejaVuSans-50"/>
       <use x="63.623047" xlink:href="#DejaVuSans-56"/>
      </g>
     </g>
    </g>
    <g id="xtick_9">
     <g id="line2d_17">
      <path clip-path="url(#p89c2ef5707)" d="M 186.002697 307.584 
L 186.002697 41.472 
" style="fill:none;stroke:#b0b0b0;stroke-dasharray:5.12,1.28,0.8,1.28;stroke-dashoffset:0;stroke-width:0.8;"/>
     </g>
     <g id="line2d_18">
      <g>
       <use style="stroke:#000000;stroke-width:0.8;" x="186.002697" xlink:href="#m640753b051" y="307.584"/>
      </g>
     </g>
     <g id="text_9">
      <!-- 32 -->
      <defs>
       <path d="M 40.578125 39.3125 
Q 47.65625 37.796875 51.625 33 
Q 55.609375 28.21875 55.609375 21.1875 
Q 55.609375 10.40625 48.1875 4.484375 
Q 40.765625 -1.421875 27.09375 -1.421875 
Q 22.515625 -1.421875 17.65625 -0.515625 
Q 12.796875 0.390625 7.625 2.203125 
L 7.625 11.71875 
Q 11.71875 9.328125 16.59375 8.109375 
Q 21.484375 6.890625 26.8125 6.890625 
Q 36.078125 6.890625 40.9375 10.546875 
Q 45.796875 14.203125 45.796875 21.1875 
Q 45.796875 27.640625 41.28125 31.265625 
Q 36.765625 34.90625 28.71875 34.90625 
L 20.21875 34.90625 
L 20.21875 43.015625 
L 29.109375 43.015625 
Q 36.375 43.015625 40.234375 45.921875 
Q 44.09375 48.828125 44.09375 54.296875 
Q 44.09375 59.90625 40.109375 62.90625 
Q 36.140625 65.921875 28.71875 65.921875 
Q 24.65625 65.921875 20.015625 65.03125 
Q 15.375 64.15625 9.8125 62.3125 
L 9.8125 71.09375 
Q 15.4375 72.65625 20.34375 73.4375 
Q 25.25 74.21875 29.59375 74.21875 
Q 40.828125 74.21875 47.359375 69.109375 
Q 53.90625 64.015625 53.90625 55.328125 
Q 53.90625 49.265625 50.4375 45.09375 
Q 46.96875 40.921875 40.578125 39.3125 
z
" id="DejaVuSans-51"/>
      </defs>
      <g transform="translate(179.640197 322.182437)scale(0.1 -0.1)">
       <use xlink:href="#DejaVuSans-51"/>
       <use x="63.623047" xlink:href="#DejaVuSans-50"/>
      </g>
     </g>
    </g>
    <g id="xtick_10">
     <g id="line2d_19">
      <path clip-path="url(#p89c2ef5707)" d="M 202.053034 307.584 
L 202.053034 41.472 
" style="fill:none;stroke:#b0b0b0;stroke-dasharray:5.12,1.28,0.8,1.28;stroke-dashoffset:0;stroke-width:0.8;"/>
     </g>
     <g id="line2d_20">
      <g>
       <use style="stroke:#000000;stroke-width:0.8;" x="202.053034" xlink:href="#m640753b051" y="307.584"/>
      </g>
     </g>
     <g id="text_10">
      <!-- 36 -->
      <g transform="translate(195.690534 322.182437)scale(0.1 -0.1)">
       <use xlink:href="#DejaVuSans-51"/>
       <use x="63.623047" xlink:href="#DejaVuSans-54"/>
      </g>
     </g>
    </g>
    <g id="xtick_11">
     <g id="line2d_21">
      <path clip-path="url(#p89c2ef5707)" d="M 218.103371 307.584 
L 218.103371 41.472 
" style="fill:none;stroke:#b0b0b0;stroke-dasharray:5.12,1.28,0.8,1.28;stroke-dashoffset:0;stroke-width:0.8;"/>
     </g>
     <g id="line2d_22">
      <g>
       <use style="stroke:#000000;stroke-width:0.8;" x="218.103371" xlink:href="#m640753b051" y="307.584"/>
      </g>
     </g>
     <g id="text_11">
      <!-- 40 -->
      <g transform="translate(211.740871 322.182437)scale(0.1 -0.1)">
       <use xlink:href="#DejaVuSans-52"/>
       <use x="63.623047" xlink:href="#DejaVuSans-48"/>
      </g>
     </g>
    </g>
    <g id="xtick_12">
     <g id="line2d_23">
      <path clip-path="url(#p89c2ef5707)" d="M 234.153708 307.584 
L 234.153708 41.472 
" style="fill:none;stroke:#b0b0b0;stroke-dasharray:5.12,1.28,0.8,1.28;stroke-dashoffset:0;stroke-width:0.8;"/>
     </g>
     <g id="line2d_24">
      <g>
       <use style="stroke:#000000;stroke-width:0.8;" x="234.153708" xlink:href="#m640753b051" y="307.584"/>
      </g>
     </g>
     <g id="text_12">
      <!-- 44 -->
      <g transform="translate(227.791208 322.182437)scale(0.1 -0.1)">
       <use xlink:href="#DejaVuSans-52"/>
       <use x="63.623047" xlink:href="#DejaVuSans-52"/>
      </g>
     </g>
    </g>
    <g id="xtick_13">
     <g id="line2d_25">
      <path clip-path="url(#p89c2ef5707)" d="M 250.204045 307.584 
L 250.204045 41.472 
" style="fill:none;stroke:#b0b0b0;stroke-dasharray:5.12,1.28,0.8,1.28;stroke-dashoffset:0;stroke-width:0.8;"/>
     </g>
     <g id="line2d_26">
      <g>
       <use style="stroke:#000000;stroke-width:0.8;" x="250.204045" xlink:href="#m640753b051" y="307.584"/>
      </g>
     </g>
     <g id="text_13">
      <!-- 48 -->
      <g transform="translate(243.841545 322.182437)scale(0.1 -0.1)">
       <use xlink:href="#DejaVuSans-52"/>
       <use x="63.623047" xlink:href="#DejaVuSans-56"/>
      </g>
     </g>
    </g>
    <g id="xtick_14">
     <g id="line2d_27">
      <path clip-path="url(#p89c2ef5707)" d="M 266.254382 307.584 
L 266.254382 41.472 
" style="fill:none;stroke:#b0b0b0;stroke-dasharray:5.12,1.28,0.8,1.28;stroke-dashoffset:0;stroke-width:0.8;"/>
     </g>
     <g id="line2d_28">
      <g>
       <use style="stroke:#000000;stroke-width:0.8;" x="266.254382" xlink:href="#m640753b051" y="307.584"/>
      </g>
     </g>
     <g id="text_14">
      <!-- 52 -->
      <defs>
       <path d="M 10.796875 72.90625 
L 49.515625 72.90625 
L 49.515625 64.59375 
L 19.828125 64.59375 
L 19.828125 46.734375 
Q 21.96875 47.46875 24.109375 47.828125 
Q 26.265625 48.1875 28.421875 48.1875 
Q 40.625 48.1875 47.75 41.5 
Q 54.890625 34.8125 54.890625 23.390625 
Q 54.890625 11.625 47.5625 5.09375 
Q 40.234375 -1.421875 26.90625 -1.421875 
Q 22.3125 -1.421875 17.546875 -0.640625 
Q 12.796875 0.140625 7.71875 1.703125 
L 7.71875 11.625 
Q 12.109375 9.234375 16.796875 8.0625 
Q 21.484375 6.890625 26.703125 6.890625 
Q 35.15625 6.890625 40.078125 11.328125 
Q 45.015625 15.765625 45.015625 23.390625 
Q 45.015625 31 40.078125 35.4375 
Q 35.15625 39.890625 26.703125 39.890625 
Q 22.75 39.890625 18.8125 39.015625 
Q 14.890625 38.140625 10.796875 36.28125 
z
" id="DejaVuSans-53"/>
      </defs>
      <g transform="translate(259.891882 322.182437)scale(0.1 -0.1)">
       <use xlink:href="#DejaVuSans-53"/>
       <use x="63.623047" xlink:href="#DejaVuSans-50"/>
      </g>
     </g>
    </g>
    <g id="xtick_15">
     <g id="line2d_29">
      <path clip-path="url(#p89c2ef5707)" d="M 282.304719 307.584 
L 282.304719 41.472 
" style="fill:none;stroke:#b0b0b0;stroke-dasharray:5.12,1.28,0.8,1.28;stroke-dashoffset:0;stroke-width:0.8;"/>
     </g>
     <g id="line2d_30">
      <g>
       <use style="stroke:#000000;stroke-width:0.8;" x="282.304719" xlink:href="#m640753b051" y="307.584"/>
      </g>
     </g>
     <g id="text_15">
      <!-- 56 -->
      <g transform="translate(275.942219 322.182437)scale(0.1 -0.1)">
       <use xlink:href="#DejaVuSans-53"/>
       <use x="63.623047" xlink:href="#DejaVuSans-54"/>
      </g>
     </g>
    </g>
    <g id="xtick_16">
     <g id="line2d_31">
      <path clip-path="url(#p89c2ef5707)" d="M 298.355056 307.584 
L 298.355056 41.472 
" style="fill:none;stroke:#b0b0b0;stroke-dasharray:5.12,1.28,0.8,1.28;stroke-dashoffset:0;stroke-width:0.8;"/>
     </g>
     <g id="line2d_32">
      <g>
       <use style="stroke:#000000;stroke-width:0.8;" x="298.355056" xlink:href="#m640753b051" y="307.584"/>
      </g>
     </g>
     <g id="text_16">
      <!-- 60 -->
      <g transform="translate(291.992556 322.182437)scale(0.1 -0.1)">
       <use xlink:href="#DejaVuSans-54"/>
       <use x="63.623047" xlink:href="#DejaVuSans-48"/>
      </g>
     </g>
    </g>
    <g id="xtick_17">
     <g id="line2d_33">
      <path clip-path="url(#p89c2ef5707)" d="M 314.405393 307.584 
L 314.405393 41.472 
" style="fill:none;stroke:#b0b0b0;stroke-dasharray:5.12,1.28,0.8,1.28;stroke-dashoffset:0;stroke-width:0.8;"/>
     </g>
     <g id="line2d_34">
      <g>
       <use style="stroke:#000000;stroke-width:0.8;" x="314.405393" xlink:href="#m640753b051" y="307.584"/>
      </g>
     </g>
     <g id="text_17">
      <!-- 64 -->
      <g transform="translate(308.042893 322.182437)scale(0.1 -0.1)">
       <use xlink:href="#DejaVuSans-54"/>
       <use x="63.623047" xlink:href="#DejaVuSans-52"/>
      </g>
     </g>
    </g>
    <g id="xtick_18">
     <g id="line2d_35">
      <path clip-path="url(#p89c2ef5707)" d="M 330.45573 307.584 
L 330.45573 41.472 
" style="fill:none;stroke:#b0b0b0;stroke-dasharray:5.12,1.28,0.8,1.28;stroke-dashoffset:0;stroke-width:0.8;"/>
     </g>
     <g id="line2d_36">
      <g>
       <use style="stroke:#000000;stroke-width:0.8;" x="330.45573" xlink:href="#m640753b051" y="307.584"/>
      </g>
     </g>
     <g id="text_18">
      <!-- 68 -->
      <g transform="translate(324.09323 322.182437)scale(0.1 -0.1)">
       <use xlink:href="#DejaVuSans-54"/>
       <use x="63.623047" xlink:href="#DejaVuSans-56"/>
      </g>
     </g>
    </g>
    <g id="xtick_19">
     <g id="line2d_37">
      <path clip-path="url(#p89c2ef5707)" d="M 346.506067 307.584 
L 346.506067 41.472 
" style="fill:none;stroke:#b0b0b0;stroke-dasharray:5.12,1.28,0.8,1.28;stroke-dashoffset:0;stroke-width:0.8;"/>
     </g>
     <g id="line2d_38">
      <g>
       <use style="stroke:#000000;stroke-width:0.8;" x="346.506067" xlink:href="#m640753b051" y="307.584"/>
      </g>
     </g>
     <g id="text_19">
      <!-- 72 -->
      <defs>
       <path d="M 8.203125 72.90625 
L 55.078125 72.90625 
L 55.078125 68.703125 
L 28.609375 0 
L 18.3125 0 
L 43.21875 64.59375 
L 8.203125 64.59375 
z
" id="DejaVuSans-55"/>
      </defs>
      <g transform="translate(340.143567 322.182437)scale(0.1 -0.1)">
       <use xlink:href="#DejaVuSans-55"/>
       <use x="63.623047" xlink:href="#DejaVuSans-50"/>
      </g>
     </g>
    </g>
    <g id="xtick_20">
     <g id="line2d_39">
      <path clip-path="url(#p89c2ef5707)" d="M 362.556404 307.584 
L 362.556404 41.472 
" style="fill:none;stroke:#b0b0b0;stroke-dasharray:5.12,1.28,0.8,1.28;stroke-dashoffset:0;stroke-width:0.8;"/>
     </g>
     <g id="line2d_40">
      <g>
       <use style="stroke:#000000;stroke-width:0.8;" x="362.556404" xlink:href="#m640753b051" y="307.584"/>
      </g>
     </g>
     <g id="text_20">
      <!-- 76 -->
      <g transform="translate(356.193904 322.182437)scale(0.1 -0.1)">
       <use xlink:href="#DejaVuSans-55"/>
       <use x="63.623047" xlink:href="#DejaVuSans-54"/>
      </g>
     </g>
    </g>
    <g id="xtick_21">
     <g id="line2d_41">
      <path clip-path="url(#p89c2ef5707)" d="M 378.606742 307.584 
L 378.606742 41.472 
" style="fill:none;stroke:#b0b0b0;stroke-dasharray:5.12,1.28,0.8,1.28;stroke-dashoffset:0;stroke-width:0.8;"/>
     </g>
     <g id="line2d_42">
      <g>
       <use style="stroke:#000000;stroke-width:0.8;" x="378.606742" xlink:href="#m640753b051" y="307.584"/>
      </g>
     </g>
     <g id="text_21">
      <!-- 80 -->
      <g transform="translate(372.244242 322.182437)scale(0.1 -0.1)">
       <use xlink:href="#DejaVuSans-56"/>
       <use x="63.623047" xlink:href="#DejaVuSans-48"/>
      </g>
     </g>
    </g>
    <g id="xtick_22">
     <g id="line2d_43">
      <path clip-path="url(#p89c2ef5707)" d="M 394.657079 307.584 
L 394.657079 41.472 
" style="fill:none;stroke:#b0b0b0;stroke-dasharray:5.12,1.28,0.8,1.28;stroke-dashoffset:0;stroke-width:0.8;"/>
     </g>
     <g id="line2d_44">
      <g>
       <use style="stroke:#000000;stroke-width:0.8;" x="394.657079" xlink:href="#m640753b051" y="307.584"/>
      </g>
     </g>
     <g id="text_22">
      <!-- 84 -->
      <g transform="translate(388.294579 322.182437)scale(0.1 -0.1)">
       <use xlink:href="#DejaVuSans-56"/>
       <use x="63.623047" xlink:href="#DejaVuSans-52"/>
      </g>
     </g>
    </g>
    <g id="xtick_23">
     <g id="line2d_45">
      <path clip-path="url(#p89c2ef5707)" d="M 410.707416 307.584 
L 410.707416 41.472 
" style="fill:none;stroke:#b0b0b0;stroke-dasharray:5.12,1.28,0.8,1.28;stroke-dashoffset:0;stroke-width:0.8;"/>
     </g>
     <g id="line2d_46">
      <g>
       <use style="stroke:#000000;stroke-width:0.8;" x="410.707416" xlink:href="#m640753b051" y="307.584"/>
      </g>
     </g>
     <g id="text_23">
      <!-- 88 -->
      <g transform="translate(404.344916 322.182437)scale(0.1 -0.1)">
       <use xlink:href="#DejaVuSans-56"/>
       <use x="63.623047" xlink:href="#DejaVuSans-56"/>
      </g>
     </g>
    </g>
    <g id="text_24">
     <!-- threads -->
     <defs>
      <path d="M 18.3125 70.21875 
L 18.3125 54.6875 
L 36.8125 54.6875 
L 36.8125 47.703125 
L 18.3125 47.703125 
L 18.3125 18.015625 
Q 18.3125 11.328125 20.140625 9.421875 
Q 21.96875 7.515625 27.59375 7.515625 
L 36.8125 7.515625 
L 36.8125 0 
L 27.59375 0 
Q 17.1875 0 13.234375 3.875 
Q 9.28125 7.765625 9.28125 18.015625 
L 9.28125 47.703125 
L 2.6875 47.703125 
L 2.6875 54.6875 
L 9.28125 54.6875 
L 9.28125 70.21875 
z
" id="DejaVuSans-116"/>
      <path d="M 54.890625 33.015625 
L 54.890625 0 
L 45.90625 0 
L 45.90625 32.71875 
Q 45.90625 40.484375 42.875 44.328125 
Q 39.84375 48.1875 33.796875 48.1875 
Q 26.515625 48.1875 22.3125 43.546875 
Q 18.109375 38.921875 18.109375 30.90625 
L 18.109375 0 
L 9.078125 0 
L 9.078125 75.984375 
L 18.109375 75.984375 
L 18.109375 46.1875 
Q 21.34375 51.125 25.703125 53.5625 
Q 30.078125 56 35.796875 56 
Q 45.21875 56 50.046875 50.171875 
Q 54.890625 44.34375 54.890625 33.015625 
z
" id="DejaVuSans-104"/>
      <path d="M 41.109375 46.296875 
Q 39.59375 47.171875 37.8125 47.578125 
Q 36.03125 48 33.890625 48 
Q 26.265625 48 22.1875 43.046875 
Q 18.109375 38.09375 18.109375 28.8125 
L 18.109375 0 
L 9.078125 0 
L 9.078125 54.6875 
L 18.109375 54.6875 
L 18.109375 46.1875 
Q 20.953125 51.171875 25.484375 53.578125 
Q 30.03125 56 36.53125 56 
Q 37.453125 56 38.578125 55.875 
Q 39.703125 55.765625 41.0625 55.515625 
z
" id="DejaVuSans-114"/>
      <path d="M 56.203125 29.59375 
L 56.203125 25.203125 
L 14.890625 25.203125 
Q 15.484375 15.921875 20.484375 11.0625 
Q 25.484375 6.203125 34.421875 6.203125 
Q 39.59375 6.203125 44.453125 7.46875 
Q 49.3125 8.734375 54.109375 11.28125 
L 54.109375 2.78125 
Q 49.265625 0.734375 44.1875 -0.34375 
Q 39.109375 -1.421875 33.890625 -1.421875 
Q 20.796875 -1.421875 13.15625 6.1875 
Q 5.515625 13.8125 5.515625 26.8125 
Q 5.515625 40.234375 12.765625 48.109375 
Q 20.015625 56 32.328125 56 
Q 43.359375 56 49.78125 48.890625 
Q 56.203125 41.796875 56.203125 29.59375 
z
M 47.21875 32.234375 
Q 47.125 39.59375 43.09375 43.984375 
Q 39.0625 48.390625 32.421875 48.390625 
Q 24.90625 48.390625 20.390625 44.140625 
Q 15.875 39.890625 15.1875 32.171875 
z
" id="DejaVuSans-101"/>
      <path d="M 34.28125 27.484375 
Q 23.390625 27.484375 19.1875 25 
Q 14.984375 22.515625 14.984375 16.5 
Q 14.984375 11.71875 18.140625 8.90625 
Q 21.296875 6.109375 26.703125 6.109375 
Q 34.1875 6.109375 38.703125 11.40625 
Q 43.21875 16.703125 43.21875 25.484375 
L 43.21875 27.484375 
z
M 52.203125 31.203125 
L 52.203125 0 
L 43.21875 0 
L 43.21875 8.296875 
Q 40.140625 3.328125 35.546875 0.953125 
Q 30.953125 -1.421875 24.3125 -1.421875 
Q 15.921875 -1.421875 10.953125 3.296875 
Q 6 8.015625 6 15.921875 
Q 6 25.140625 12.171875 29.828125 
Q 18.359375 34.515625 30.609375 34.515625 
L 43.21875 34.515625 
L 43.21875 35.40625 
Q 43.21875 41.609375 39.140625 45 
Q 35.0625 48.390625 27.6875 48.390625 
Q 23 48.390625 18.546875 47.265625 
Q 14.109375 46.140625 10.015625 43.890625 
L 10.015625 52.203125 
Q 14.9375 54.109375 19.578125 55.046875 
Q 24.21875 56 28.609375 56 
Q 40.484375 56 46.34375 49.84375 
Q 52.203125 43.703125 52.203125 31.203125 
z
" id="DejaVuSans-97"/>
      <path d="M 45.40625 46.390625 
L 45.40625 75.984375 
L 54.390625 75.984375 
L 54.390625 0 
L 45.40625 0 
L 45.40625 8.203125 
Q 42.578125 3.328125 38.25 0.953125 
Q 33.9375 -1.421875 27.875 -1.421875 
Q 17.96875 -1.421875 11.734375 6.484375 
Q 5.515625 14.40625 5.515625 27.296875 
Q 5.515625 40.1875 11.734375 48.09375 
Q 17.96875 56 27.875 56 
Q 33.9375 56 38.25 53.625 
Q 42.578125 51.265625 45.40625 46.390625 
z
M 14.796875 27.296875 
Q 14.796875 17.390625 18.875 11.75 
Q 22.953125 6.109375 30.078125 6.109375 
Q 37.203125 6.109375 41.296875 11.75 
Q 45.40625 17.390625 45.40625 27.296875 
Q 45.40625 37.203125 41.296875 42.84375 
Q 37.203125 48.484375 30.078125 48.484375 
Q 22.953125 48.484375 18.875 42.84375 
Q 14.796875 37.203125 14.796875 27.296875 
z
" id="DejaVuSans-100"/>
      <path d="M 44.28125 53.078125 
L 44.28125 44.578125 
Q 40.484375 46.53125 36.375 47.5 
Q 32.28125 48.484375 27.875 48.484375 
Q 21.1875 48.484375 17.84375 46.4375 
Q 14.5 44.390625 14.5 40.28125 
Q 14.5 37.15625 16.890625 35.375 
Q 19.28125 33.59375 26.515625 31.984375 
L 29.59375 31.296875 
Q 39.15625 29.25 43.1875 25.515625 
Q 47.21875 21.78125 47.21875 15.09375 
Q 47.21875 7.46875 41.1875 3.015625 
Q 35.15625 -1.421875 24.609375 -1.421875 
Q 20.21875 -1.421875 15.453125 -0.5625 
Q 10.6875 0.296875 5.421875 2 
L 5.421875 11.28125 
Q 10.40625 8.6875 15.234375 7.390625 
Q 20.0625 6.109375 24.8125 6.109375 
Q 31.15625 6.109375 34.5625 8.28125 
Q 37.984375 10.453125 37.984375 14.40625 
Q 37.984375 18.0625 35.515625 20.015625 
Q 33.0625 21.96875 24.703125 23.78125 
L 21.578125 24.515625 
Q 13.234375 26.265625 9.515625 29.90625 
Q 5.8125 33.546875 5.8125 39.890625 
Q 5.8125 47.609375 11.28125 51.796875 
Q 16.75 56 26.8125 56 
Q 31.78125 56 36.171875 55.265625 
Q 40.578125 54.546875 44.28125 53.078125 
z
" id="DejaVuSans-115"/>
     </defs>
     <g transform="translate(217.168594 335.860562)scale(0.1 -0.1)">
      <use xlink:href="#DejaVuSans-116"/>
      <use x="39.208984" xlink:href="#DejaVuSans-104"/>
      <use x="102.587891" xlink:href="#DejaVuSans-114"/>
      <use x="141.451172" xlink:href="#DejaVuSans-101"/>
      <use x="202.974609" xlink:href="#DejaVuSans-97"/>
      <use x="264.253906" xlink:href="#DejaVuSans-100"/>
      <use x="327.730469" xlink:href="#DejaVuSans-115"/>
     </g>
    </g>
   </g>
   <g id="matplotlib.axis_2">
    <g id="ytick_1">
     <g id="line2d_47">
      <path clip-path="url(#p89c2ef5707)" d="M 57.6 276.728157 
L 414.72 276.728157 
" style="fill:none;stroke:#b0b0b0;stroke-dasharray:5.12,1.28,0.8,1.28;stroke-dashoffset:0;stroke-width:0.8;"/>
     </g>
     <g id="line2d_48">
      <defs>
       <path d="M 0 0 
L -3.5 0 
" id="m3931c1873a" style="stroke:#000000;stroke-width:0.8;"/>
      </defs>
      <g>
       <use style="stroke:#000000;stroke-width:0.8;" x="57.6" xlink:href="#m3931c1873a" y="276.728157"/>
      </g>
     </g>
     <g id="text_25">
      <!-- 1 -->
      <g transform="translate(44.2375 280.527376)scale(0.1 -0.1)">
       <use xlink:href="#DejaVuSans-49"/>
      </g>
     </g>
    </g>
    <g id="ytick_2">
     <g id="line2d_49">
      <path clip-path="url(#p89c2ef5707)" d="M 57.6 233.634799 
L 414.72 233.634799 
" style="fill:none;stroke:#b0b0b0;stroke-dasharray:5.12,1.28,0.8,1.28;stroke-dashoffset:0;stroke-width:0.8;"/>
     </g>
     <g id="line2d_50">
      <g>
       <use style="stroke:#000000;stroke-width:0.8;" x="57.6" xlink:href="#m3931c1873a" y="233.634799"/>
      </g>
     </g>
     <g id="text_26">
      <!-- 2 -->
      <g transform="translate(44.2375 237.434018)scale(0.1 -0.1)">
       <use xlink:href="#DejaVuSans-50"/>
      </g>
     </g>
    </g>
    <g id="ytick_3">
     <g id="line2d_51">
      <path clip-path="url(#p89c2ef5707)" d="M 57.6 190.541442 
L 414.72 190.541442 
" style="fill:none;stroke:#b0b0b0;stroke-dasharray:5.12,1.28,0.8,1.28;stroke-dashoffset:0;stroke-width:0.8;"/>
     </g>
     <g id="line2d_52">
      <g>
       <use style="stroke:#000000;stroke-width:0.8;" x="57.6" xlink:href="#m3931c1873a" y="190.541442"/>
      </g>
     </g>
     <g id="text_27">
      <!-- 3 -->
      <g transform="translate(44.2375 194.34066)scale(0.1 -0.1)">
       <use xlink:href="#DejaVuSans-51"/>
      </g>
     </g>
    </g>
    <g id="ytick_4">
     <g id="line2d_53">
      <path clip-path="url(#p89c2ef5707)" d="M 57.6 147.448084 
L 414.72 147.448084 
" style="fill:none;stroke:#b0b0b0;stroke-dasharray:5.12,1.28,0.8,1.28;stroke-dashoffset:0;stroke-width:0.8;"/>
     </g>
     <g id="line2d_54">
      <g>
       <use style="stroke:#000000;stroke-width:0.8;" x="57.6" xlink:href="#m3931c1873a" y="147.448084"/>
      </g>
     </g>
     <g id="text_28">
      <!-- 4 -->
      <g transform="translate(44.2375 151.247303)scale(0.1 -0.1)">
       <use xlink:href="#DejaVuSans-52"/>
      </g>
     </g>
    </g>
    <g id="ytick_5">
     <g id="line2d_55">
      <path clip-path="url(#p89c2ef5707)" d="M 57.6 104.354726 
L 414.72 104.354726 
" style="fill:none;stroke:#b0b0b0;stroke-dasharray:5.12,1.28,0.8,1.28;stroke-dashoffset:0;stroke-width:0.8;"/>
     </g>
     <g id="line2d_56">
      <g>
       <use style="stroke:#000000;stroke-width:0.8;" x="57.6" xlink:href="#m3931c1873a" y="104.354726"/>
      </g>
     </g>
     <g id="text_29">
      <!-- 5 -->
      <g transform="translate(44.2375 108.153945)scale(0.1 -0.1)">
       <use xlink:href="#DejaVuSans-53"/>
      </g>
     </g>
    </g>
    <g id="ytick_6">
     <g id="line2d_57">
      <path clip-path="url(#p89c2ef5707)" d="M 57.6 61.261368 
L 414.72 61.261368 
" style="fill:none;stroke:#b0b0b0;stroke-dasharray:5.12,1.28,0.8,1.28;stroke-dashoffset:0;stroke-width:0.8;"/>
     </g>
     <g id="line2d_58">
      <g>
       <use style="stroke:#000000;stroke-width:0.8;" x="57.6" xlink:href="#m3931c1873a" y="61.261368"/>
      </g>
     </g>
     <g id="text_30">
      <!-- 6 -->
      <g transform="translate(44.2375 65.060587)scale(0.1 -0.1)">
       <use xlink:href="#DejaVuSans-54"/>
      </g>
     </g>
    </g>
    <g id="text_31">
     <!-- speed up -->
     <defs>
      <path d="M 18.109375 8.203125 
L 18.109375 -20.796875 
L 9.078125 -20.796875 
L 9.078125 54.6875 
L 18.109375 54.6875 
L 18.109375 46.390625 
Q 20.953125 51.265625 25.265625 53.625 
Q 29.59375 56 35.59375 56 
Q 45.5625 56 51.78125 48.09375 
Q 58.015625 40.1875 58.015625 27.296875 
Q 58.015625 14.40625 51.78125 6.484375 
Q 45.5625 -1.421875 35.59375 -1.421875 
Q 29.59375 -1.421875 25.265625 0.953125 
Q 20.953125 3.328125 18.109375 8.203125 
z
M 48.6875 27.296875 
Q 48.6875 37.203125 44.609375 42.84375 
Q 40.53125 48.484375 33.40625 48.484375 
Q 26.265625 48.484375 22.1875 42.84375 
Q 18.109375 37.203125 18.109375 27.296875 
Q 18.109375 17.390625 22.1875 11.75 
Q 26.265625 6.109375 33.40625 6.109375 
Q 40.53125 6.109375 44.609375 11.75 
Q 48.6875 17.390625 48.6875 27.296875 
z
" id="DejaVuSans-112"/>
      <path id="DejaVuSans-32"/>
      <path d="M 8.5 21.578125 
L 8.5 54.6875 
L 17.484375 54.6875 
L 17.484375 21.921875 
Q 17.484375 14.15625 20.5 10.265625 
Q 23.53125 6.390625 29.59375 6.390625 
Q 36.859375 6.390625 41.078125 11.03125 
Q 45.3125 15.671875 45.3125 23.6875 
L 45.3125 54.6875 
L 54.296875 54.6875 
L 54.296875 0 
L 45.3125 0 
L 45.3125 8.40625 
Q 42.046875 3.421875 37.71875 1 
Q 33.40625 -1.421875 27.6875 -1.421875 
Q 18.265625 -1.421875 13.375 4.4375 
Q 8.5 10.296875 8.5 21.578125 
z
M 31.109375 56 
z
" id="DejaVuSans-117"/>
     </defs>
     <g transform="translate(38.157812 197.566281)rotate(-90)scale(0.1 -0.1)">
      <use xlink:href="#DejaVuSans-115"/>
      <use x="52.099609" xlink:href="#DejaVuSans-112"/>
      <use x="115.576172" xlink:href="#DejaVuSans-101"/>
      <use x="177.099609" xlink:href="#DejaVuSans-101"/>
      <use x="238.623047" xlink:href="#DejaVuSans-100"/>
      <use x="302.099609" xlink:href="#DejaVuSans-32"/>
      <use x="333.886719" xlink:href="#DejaVuSans-117"/>
      <use x="397.265625" xlink:href="#DejaVuSans-112"/>
     </g>
    </g>
   </g>
   <g id="line2d_59">
    <path clip-path="url(#p89c2ef5707)" d="M 61.612584 265.488713 
L 65.625169 234.993628 
L 69.637753 204.077501 
L 73.650337 183.828997 
L 77.662921 187.93493 
L 81.675506 154.993663 
L 85.68809 160.058598 
L 89.700674 143.076434 
L 93.713258 161.19829 
L 97.725843 91.621859 
L 101.738427 128.244438 
L 105.751011 132.252556 
L 109.763596 129.264748 
L 113.77618 135.537231 
L 117.788764 113.642068 
L 121.801348 135.355848 
L 125.813933 102.616247 
L 129.826517 105.886664 
L 133.839101 124.595351 
L 137.851685 106.13059 
L 141.86427 121.805845 
L 145.876854 114.470401 
L 149.889438 108.437474 
L 153.902022 97.938582 
L 157.914607 84.175517 
L 161.927191 65.786825 
L 165.939775 63.303268 
L 169.95236 75.394769 
L 173.964944 74.28159 
L 177.977528 102.472307 
L 181.990112 66.294108 
L 186.002697 91.343664 
L 190.015281 71.100619 
L 194.027865 93.276908 
L 198.040449 59.76076 
L 202.053034 82.326978 
L 206.065618 67.803877 
L 210.078202 77.158006 
L 214.090787 64.567643 
L 218.103371 75.909798 
L 222.115955 53.568 
L 226.128539 61.433945 
L 230.141124 59.088858 
L 234.153708 72.289474 
L 238.166292 100.449158 
L 242.178876 92.714795 
L 246.191461 69.630207 
L 250.204045 103.606635 
L 254.216629 84.583964 
L 258.229213 116.086167 
L 262.241798 106.454961 
L 266.254382 95.164887 
L 270.266966 83.921284 
L 274.279551 88.428755 
L 278.292135 115.822165 
L 282.304719 80.143087 
L 286.317303 81.709139 
L 290.329888 68.800438 
L 294.342472 77.501637 
L 298.355056 106.662965 
L 302.36764 96.958578 
L 306.380225 74.770805 
L 310.392809 88.115436 
L 314.405393 96.363872 
L 318.417978 116.643596 
L 322.430562 85.800855 
L 326.443146 78.600661 
L 330.45573 80.245215 
L 334.468315 88.496755 
L 338.480899 110.026235 
L 342.493483 88.809045 
L 346.506067 88.31987 
L 350.518652 88.849716 
L 354.531236 85.424549 
L 358.54382 86.34228 
L 362.556404 81.881883 
L 366.568989 88.727659 
L 370.581573 84.302428 
L 374.594157 87.554802 
L 378.606742 85.131028 
L 382.619326 94.354085 
L 386.63191 98.723854 
L 390.644494 289.958324 
L 394.657079 96.731193 
L 398.669663 102.099578 
L 402.682247 266.197891 
L 406.694831 294.145927 
L 410.707416 289.727239 
" style="fill:none;stroke:#0000ff;stroke-dasharray:1.5,2.475;stroke-dashoffset:0;stroke-width:1.5;"/>
    <defs>
     <path d="M 0 1.5 
C 0.397805 1.5 0.77937 1.341951 1.06066 1.06066 
C 1.341951 0.77937 1.5 0.397805 1.5 0 
C 1.5 -0.397805 1.341951 -0.77937 1.06066 -1.06066 
C 0.77937 -1.341951 0.397805 -1.5 0 -1.5 
C -0.397805 -1.5 -0.77937 -1.341951 -1.06066 -1.06066 
C -1.341951 -0.77937 -1.5 -0.397805 -1.5 0 
C -1.5 0.397805 -1.341951 0.77937 -1.06066 1.06066 
C -0.77937 1.341951 -0.397805 1.5 0 1.5 
z
" id="m51d7900c98" style="stroke:#0000ff;"/>
    </defs>
    <g clip-path="url(#p89c2ef5707)">
     <use style="fill:#0000ff;stroke:#0000ff;" x="61.612584" xlink:href="#m51d7900c98" y="265.488713"/>
     <use style="fill:#0000ff;stroke:#0000ff;" x="65.625169" xlink:href="#m51d7900c98" y="234.993628"/>
     <use style="fill:#0000ff;stroke:#0000ff;" x="69.637753" xlink:href="#m51d7900c98" y="204.077501"/>
     <use style="fill:#0000ff;stroke:#0000ff;" x="73.650337" xlink:href="#m51d7900c98" y="183.828997"/>
     <use style="fill:#0000ff;stroke:#0000ff;" x="77.662921" xlink:href="#m51d7900c98" y="187.93493"/>
     <use style="fill:#0000ff;stroke:#0000ff;" x="81.675506" xlink:href="#m51d7900c98" y="154.993663"/>
     <use style="fill:#0000ff;stroke:#0000ff;" x="85.68809" xlink:href="#m51d7900c98" y="160.058598"/>
     <use style="fill:#0000ff;stroke:#0000ff;" x="89.700674" xlink:href="#m51d7900c98" y="143.076434"/>
     <use style="fill:#0000ff;stroke:#0000ff;" x="93.713258" xlink:href="#m51d7900c98" y="161.19829"/>
     <use style="fill:#0000ff;stroke:#0000ff;" x="97.725843" xlink:href="#m51d7900c98" y="91.621859"/>
     <use style="fill:#0000ff;stroke:#0000ff;" x="101.738427" xlink:href="#m51d7900c98" y="128.244438"/>
     <use style="fill:#0000ff;stroke:#0000ff;" x="105.751011" xlink:href="#m51d7900c98" y="132.252556"/>
     <use style="fill:#0000ff;stroke:#0000ff;" x="109.763596" xlink:href="#m51d7900c98" y="129.264748"/>
     <use style="fill:#0000ff;stroke:#0000ff;" x="113.77618" xlink:href="#m51d7900c98" y="135.537231"/>
     <use style="fill:#0000ff;stroke:#0000ff;" x="117.788764" xlink:href="#m51d7900c98" y="113.642068"/>
     <use style="fill:#0000ff;stroke:#0000ff;" x="121.801348" xlink:href="#m51d7900c98" y="135.355848"/>
     <use style="fill:#0000ff;stroke:#0000ff;" x="125.813933" xlink:href="#m51d7900c98" y="102.616247"/>
     <use style="fill:#0000ff;stroke:#0000ff;" x="129.826517" xlink:href="#m51d7900c98" y="105.886664"/>
     <use style="fill:#0000ff;stroke:#0000ff;" x="133.839101" xlink:href="#m51d7900c98" y="124.595351"/>
     <use style="fill:#0000ff;stroke:#0000ff;" x="137.851685" xlink:href="#m51d7900c98" y="106.13059"/>
     <use style="fill:#0000ff;stroke:#0000ff;" x="141.86427" xlink:href="#m51d7900c98" y="121.805845"/>
     <use style="fill:#0000ff;stroke:#0000ff;" x="145.876854" xlink:href="#m51d7900c98" y="114.470401"/>
     <use style="fill:#0000ff;stroke:#0000ff;" x="149.889438" xlink:href="#m51d7900c98" y="108.437474"/>
     <use style="fill:#0000ff;stroke:#0000ff;" x="153.902022" xlink:href="#m51d7900c98" y="97.938582"/>
     <use style="fill:#0000ff;stroke:#0000ff;" x="157.914607" xlink:href="#m51d7900c98" y="84.175517"/>
     <use style="fill:#0000ff;stroke:#0000ff;" x="161.927191" xlink:href="#m51d7900c98" y="65.786825"/>
     <use style="fill:#0000ff;stroke:#0000ff;" x="165.939775" xlink:href="#m51d7900c98" y="63.303268"/>
     <use style="fill:#0000ff;stroke:#0000ff;" x="169.95236" xlink:href="#m51d7900c98" y="75.394769"/>
     <use style="fill:#0000ff;stroke:#0000ff;" x="173.964944" xlink:href="#m51d7900c98" y="74.28159"/>
     <use style="fill:#0000ff;stroke:#0000ff;" x="177.977528" xlink:href="#m51d7900c98" y="102.472307"/>
     <use style="fill:#0000ff;stroke:#0000ff;" x="181.990112" xlink:href="#m51d7900c98" y="66.294108"/>
     <use style="fill:#0000ff;stroke:#0000ff;" x="186.002697" xlink:href="#m51d7900c98" y="91.343664"/>
     <use style="fill:#0000ff;stroke:#0000ff;" x="190.015281" xlink:href="#m51d7900c98" y="71.100619"/>
     <use style="fill:#0000ff;stroke:#0000ff;" x="194.027865" xlink:href="#m51d7900c98" y="93.276908"/>
     <use style="fill:#0000ff;stroke:#0000ff;" x="198.040449" xlink:href="#m51d7900c98" y="59.76076"/>
     <use style="fill:#0000ff;stroke:#0000ff;" x="202.053034" xlink:href="#m51d7900c98" y="82.326978"/>
     <use style="fill:#0000ff;stroke:#0000ff;" x="206.065618" xlink:href="#m51d7900c98" y="67.803877"/>
     <use style="fill:#0000ff;stroke:#0000ff;" x="210.078202" xlink:href="#m51d7900c98" y="77.158006"/>
     <use style="fill:#0000ff;stroke:#0000ff;" x="214.090787" xlink:href="#m51d7900c98" y="64.567643"/>
     <use style="fill:#0000ff;stroke:#0000ff;" x="218.103371" xlink:href="#m51d7900c98" y="75.909798"/>
     <use style="fill:#0000ff;stroke:#0000ff;" x="222.115955" xlink:href="#m51d7900c98" y="53.568"/>
     <use style="fill:#0000ff;stroke:#0000ff;" x="226.128539" xlink:href="#m51d7900c98" y="61.433945"/>
     <use style="fill:#0000ff;stroke:#0000ff;" x="230.141124" xlink:href="#m51d7900c98" y="59.088858"/>
     <use style="fill:#0000ff;stroke:#0000ff;" x="234.153708" xlink:href="#m51d7900c98" y="72.289474"/>
     <use style="fill:#0000ff;stroke:#0000ff;" x="238.166292" xlink:href="#m51d7900c98" y="100.449158"/>
     <use style="fill:#0000ff;stroke:#0000ff;" x="242.178876" xlink:href="#m51d7900c98" y="92.714795"/>
     <use style="fill:#0000ff;stroke:#0000ff;" x="246.191461" xlink:href="#m51d7900c98" y="69.630207"/>
     <use style="fill:#0000ff;stroke:#0000ff;" x="250.204045" xlink:href="#m51d7900c98" y="103.606635"/>
     <use style="fill:#0000ff;stroke:#0000ff;" x="254.216629" xlink:href="#m51d7900c98" y="84.583964"/>
     <use style="fill:#0000ff;stroke:#0000ff;" x="258.229213" xlink:href="#m51d7900c98" y="116.086167"/>
     <use style="fill:#0000ff;stroke:#0000ff;" x="262.241798" xlink:href="#m51d7900c98" y="106.454961"/>
     <use style="fill:#0000ff;stroke:#0000ff;" x="266.254382" xlink:href="#m51d7900c98" y="95.164887"/>
     <use style="fill:#0000ff;stroke:#0000ff;" x="270.266966" xlink:href="#m51d7900c98" y="83.921284"/>
     <use style="fill:#0000ff;stroke:#0000ff;" x="274.279551" xlink:href="#m51d7900c98" y="88.428755"/>
     <use style="fill:#0000ff;stroke:#0000ff;" x="278.292135" xlink:href="#m51d7900c98" y="115.822165"/>
     <use style="fill:#0000ff;stroke:#0000ff;" x="282.304719" xlink:href="#m51d7900c98" y="80.143087"/>
     <use style="fill:#0000ff;stroke:#0000ff;" x="286.317303" xlink:href="#m51d7900c98" y="81.709139"/>
     <use style="fill:#0000ff;stroke:#0000ff;" x="290.329888" xlink:href="#m51d7900c98" y="68.800438"/>
     <use style="fill:#0000ff;stroke:#0000ff;" x="294.342472" xlink:href="#m51d7900c98" y="77.501637"/>
     <use style="fill:#0000ff;stroke:#0000ff;" x="298.355056" xlink:href="#m51d7900c98" y="106.662965"/>
     <use style="fill:#0000ff;stroke:#0000ff;" x="302.36764" xlink:href="#m51d7900c98" y="96.958578"/>
     <use style="fill:#0000ff;stroke:#0000ff;" x="306.380225" xlink:href="#m51d7900c98" y="74.770805"/>
     <use style="fill:#0000ff;stroke:#0000ff;" x="310.392809" xlink:href="#m51d7900c98" y="88.115436"/>
     <use style="fill:#0000ff;stroke:#0000ff;" x="314.405393" xlink:href="#m51d7900c98" y="96.363872"/>
     <use style="fill:#0000ff;stroke:#0000ff;" x="318.417978" xlink:href="#m51d7900c98" y="116.643596"/>
     <use style="fill:#0000ff;stroke:#0000ff;" x="322.430562" xlink:href="#m51d7900c98" y="85.800855"/>
     <use style="fill:#0000ff;stroke:#0000ff;" x="326.443146" xlink:href="#m51d7900c98" y="78.600661"/>
     <use style="fill:#0000ff;stroke:#0000ff;" x="330.45573" xlink:href="#m51d7900c98" y="80.245215"/>
     <use style="fill:#0000ff;stroke:#0000ff;" x="334.468315" xlink:href="#m51d7900c98" y="88.496755"/>
     <use style="fill:#0000ff;stroke:#0000ff;" x="338.480899" xlink:href="#m51d7900c98" y="110.026235"/>
     <use style="fill:#0000ff;stroke:#0000ff;" x="342.493483" xlink:href="#m51d7900c98" y="88.809045"/>
     <use style="fill:#0000ff;stroke:#0000ff;" x="346.506067" xlink:href="#m51d7900c98" y="88.31987"/>
     <use style="fill:#0000ff;stroke:#0000ff;" x="350.518652" xlink:href="#m51d7900c98" y="88.849716"/>
     <use style="fill:#0000ff;stroke:#0000ff;" x="354.531236" xlink:href="#m51d7900c98" y="85.424549"/>
     <use style="fill:#0000ff;stroke:#0000ff;" x="358.54382" xlink:href="#m51d7900c98" y="86.34228"/>
     <use style="fill:#0000ff;stroke:#0000ff;" x="362.556404" xlink:href="#m51d7900c98" y="81.881883"/>
     <use style="fill:#0000ff;stroke:#0000ff;" x="366.568989" xlink:href="#m51d7900c98" y="88.727659"/>
     <use style="fill:#0000ff;stroke:#0000ff;" x="370.581573" xlink:href="#m51d7900c98" y="84.302428"/>
     <use style="fill:#0000ff;stroke:#0000ff;" x="374.594157" xlink:href="#m51d7900c98" y="87.554802"/>
     <use style="fill:#0000ff;stroke:#0000ff;" x="378.606742" xlink:href="#m51d7900c98" y="85.131028"/>
     <use style="fill:#0000ff;stroke:#0000ff;" x="382.619326" xlink:href="#m51d7900c98" y="94.354085"/>
     <use style="fill:#0000ff;stroke:#0000ff;" x="386.63191" xlink:href="#m51d7900c98" y="98.723854"/>
     <use style="fill:#0000ff;stroke:#0000ff;" x="390.644494" xlink:href="#m51d7900c98" y="289.958324"/>
     <use style="fill:#0000ff;stroke:#0000ff;" x="394.657079" xlink:href="#m51d7900c98" y="96.731193"/>
     <use style="fill:#0000ff;stroke:#0000ff;" x="398.669663" xlink:href="#m51d7900c98" y="102.099578"/>
     <use style="fill:#0000ff;stroke:#0000ff;" x="402.682247" xlink:href="#m51d7900c98" y="266.197891"/>
     <use style="fill:#0000ff;stroke:#0000ff;" x="406.694831" xlink:href="#m51d7900c98" y="294.145927"/>
     <use style="fill:#0000ff;stroke:#0000ff;" x="410.707416" xlink:href="#m51d7900c98" y="289.727239"/>
    </g>
   </g>
   <g id="line2d_60">
    <path clip-path="url(#p89c2ef5707)" d="M 61.612584 225.483317 
L 65.625169 228.716911 
L 69.637753 229.455316 
L 73.650337 229.012809 
L 77.662921 232.724016 
L 81.675506 227.689268 
L 85.68809 233.40838 
L 89.700674 233.340531 
L 93.713258 233.223086 
L 97.725843 229.081953 
L 101.738427 232.701052 
L 105.751011 233.106355 
L 109.763596 232.860507 
L 113.77618 232.718798 
L 117.788764 232.573486 
L 121.801348 233.006939 
L 125.813933 233.233401 
L 129.826517 234.116443 
L 133.839101 234.266735 
L 137.851685 235.129918 
L 141.86427 235.297324 
L 145.876854 235.264879 
L 149.889438 235.368026 
L 153.902022 235.384702 
L 157.914607 233.529422 
L 161.927191 232.821999 
L 165.939775 232.889625 
L 169.95236 232.56825 
L 173.964944 233.26227 
L 177.977528 236.850545 
L 181.990112 171.535638 
L 186.002697 229.632456 
L 190.015281 170.772501 
L 194.027865 229.68278 
L 198.040449 157.818071 
L 202.053034 228.287876 
L 206.065618 157.08184 
L 210.078202 228.374236 
L 214.090787 155.926071 
L 218.103371 229.11026 
L 222.115955 159.69511 
L 226.128539 130.671366 
L 230.141124 131.888976 
L 234.153708 232.671808 
L 238.166292 237.269833 
L 242.178876 160.050563 
L 246.191461 130.715651 
L 250.204045 132.383242 
L 254.216629 232.415078 
L 258.229213 237.131796 
L 262.241798 159.909979 
L 266.254382 131.440927 
L 270.266966 132.131589 
L 274.279551 233.099114 
L 278.292135 237.230441 
L 282.304719 160.920174 
L 286.317303 132.788337 
L 290.329888 131.519002 
L 294.342472 233.072207 
L 298.355056 237.27827 
L 302.36764 161.532598 
L 306.380225 134.016931 
L 310.392809 131.956971 
L 314.405393 239.320324 
L 318.417978 241.506673 
L 322.430562 178.453647 
L 326.443146 157.861384 
L 330.45573 159.973272 
L 334.468315 240.621871 
L 338.480899 241.168583 
L 342.493483 245.849086 
L 346.506067 247.130964 
L 350.518652 247.020312 
L 354.531236 247.066943 
L 358.54382 247.056748 
L 362.556404 246.997703 
L 366.568989 247.065487 
L 370.581573 247.106969 
L 374.594157 247.185438 
L 378.606742 273.10769 
L 382.619326 247.317291 
L 386.63191 247.357042 
L 390.644494 295.488 
L 394.657079 247.039263 
L 398.669663 247.128056 
L 402.682247 283.41125 
L 406.694831 295.478955 
L 410.707416 288.206688 
" style="fill:none;stroke:#ff0000;stroke-dasharray:1.5,2.475;stroke-dashoffset:0;stroke-width:1.5;"/>
    <defs>
     <path d="M 0 1.5 
C 0.397805 1.5 0.77937 1.341951 1.06066 1.06066 
C 1.341951 0.77937 1.5 0.397805 1.5 0 
C 1.5 -0.397805 1.341951 -0.77937 1.06066 -1.06066 
C 0.77937 -1.341951 0.397805 -1.5 0 -1.5 
C -0.397805 -1.5 -0.77937 -1.341951 -1.06066 -1.06066 
C -1.341951 -0.77937 -1.5 -0.397805 -1.5 0 
C -1.5 0.397805 -1.341951 0.77937 -1.06066 1.06066 
C -0.77937 1.341951 -0.397805 1.5 0 1.5 
z
" id="m987d0f6827" style="stroke:#ff0000;"/>
    </defs>
    <g clip-path="url(#p89c2ef5707)">
     <use style="fill:#ff0000;stroke:#ff0000;" x="61.612584" xlink:href="#m987d0f6827" y="225.483317"/>
     <use style="fill:#ff0000;stroke:#ff0000;" x="65.625169" xlink:href="#m987d0f6827" y="228.716911"/>
     <use style="fill:#ff0000;stroke:#ff0000;" x="69.637753" xlink:href="#m987d0f6827" y="229.455316"/>
     <use style="fill:#ff0000;stroke:#ff0000;" x="73.650337" xlink:href="#m987d0f6827" y="229.012809"/>
     <use style="fill:#ff0000;stroke:#ff0000;" x="77.662921" xlink:href="#m987d0f6827" y="232.724016"/>
     <use style="fill:#ff0000;stroke:#ff0000;" x="81.675506" xlink:href="#m987d0f6827" y="227.689268"/>
     <use style="fill:#ff0000;stroke:#ff0000;" x="85.68809" xlink:href="#m987d0f6827" y="233.40838"/>
     <use style="fill:#ff0000;stroke:#ff0000;" x="89.700674" xlink:href="#m987d0f6827" y="233.340531"/>
     <use style="fill:#ff0000;stroke:#ff0000;" x="93.713258" xlink:href="#m987d0f6827" y="233.223086"/>
     <use style="fill:#ff0000;stroke:#ff0000;" x="97.725843" xlink:href="#m987d0f6827" y="229.081953"/>
     <use style="fill:#ff0000;stroke:#ff0000;" x="101.738427" xlink:href="#m987d0f6827" y="232.701052"/>
     <use style="fill:#ff0000;stroke:#ff0000;" x="105.751011" xlink:href="#m987d0f6827" y="233.106355"/>
     <use style="fill:#ff0000;stroke:#ff0000;" x="109.763596" xlink:href="#m987d0f6827" y="232.860507"/>
     <use style="fill:#ff0000;stroke:#ff0000;" x="113.77618" xlink:href="#m987d0f6827" y="232.718798"/>
     <use style="fill:#ff0000;stroke:#ff0000;" x="117.788764" xlink:href="#m987d0f6827" y="232.573486"/>
     <use style="fill:#ff0000;stroke:#ff0000;" x="121.801348" xlink:href="#m987d0f6827" y="233.006939"/>
     <use style="fill:#ff0000;stroke:#ff0000;" x="125.813933" xlink:href="#m987d0f6827" y="233.233401"/>
     <use style="fill:#ff0000;stroke:#ff0000;" x="129.826517" xlink:href="#m987d0f6827" y="234.116443"/>
     <use style="fill:#ff0000;stroke:#ff0000;" x="133.839101" xlink:href="#m987d0f6827" y="234.266735"/>
     <use style="fill:#ff0000;stroke:#ff0000;" x="137.851685" xlink:href="#m987d0f6827" y="235.129918"/>
     <use style="fill:#ff0000;stroke:#ff0000;" x="141.86427" xlink:href="#m987d0f6827" y="235.297324"/>
     <use style="fill:#ff0000;stroke:#ff0000;" x="145.876854" xlink:href="#m987d0f6827" y="235.264879"/>
     <use style="fill:#ff0000;stroke:#ff0000;" x="149.889438" xlink:href="#m987d0f6827" y="235.368026"/>
     <use style="fill:#ff0000;stroke:#ff0000;" x="153.902022" xlink:href="#m987d0f6827" y="235.384702"/>
     <use style="fill:#ff0000;stroke:#ff0000;" x="157.914607" xlink:href="#m987d0f6827" y="233.529422"/>
     <use style="fill:#ff0000;stroke:#ff0000;" x="161.927191" xlink:href="#m987d0f6827" y="232.821999"/>
     <use style="fill:#ff0000;stroke:#ff0000;" x="165.939775" xlink:href="#m987d0f6827" y="232.889625"/>
     <use style="fill:#ff0000;stroke:#ff0000;" x="169.95236" xlink:href="#m987d0f6827" y="232.56825"/>
     <use style="fill:#ff0000;stroke:#ff0000;" x="173.964944" xlink:href="#m987d0f6827" y="233.26227"/>
     <use style="fill:#ff0000;stroke:#ff0000;" x="177.977528" xlink:href="#m987d0f6827" y="236.850545"/>
     <use style="fill:#ff0000;stroke:#ff0000;" x="181.990112" xlink:href="#m987d0f6827" y="171.535638"/>
     <use style="fill:#ff0000;stroke:#ff0000;" x="186.002697" xlink:href="#m987d0f6827" y="229.632456"/>
     <use style="fill:#ff0000;stroke:#ff0000;" x="190.015281" xlink:href="#m987d0f6827" y="170.772501"/>
     <use style="fill:#ff0000;stroke:#ff0000;" x="194.027865" xlink:href="#m987d0f6827" y="229.68278"/>
     <use style="fill:#ff0000;stroke:#ff0000;" x="198.040449" xlink:href="#m987d0f6827" y="157.818071"/>
     <use style="fill:#ff0000;stroke:#ff0000;" x="202.053034" xlink:href="#m987d0f6827" y="228.287876"/>
     <use style="fill:#ff0000;stroke:#ff0000;" x="206.065618" xlink:href="#m987d0f6827" y="157.08184"/>
     <use style="fill:#ff0000;stroke:#ff0000;" x="210.078202" xlink:href="#m987d0f6827" y="228.374236"/>
     <use style="fill:#ff0000;stroke:#ff0000;" x="214.090787" xlink:href="#m987d0f6827" y="155.926071"/>
     <use style="fill:#ff0000;stroke:#ff0000;" x="218.103371" xlink:href="#m987d0f6827" y="229.11026"/>
     <use style="fill:#ff0000;stroke:#ff0000;" x="222.115955" xlink:href="#m987d0f6827" y="159.69511"/>
     <use style="fill:#ff0000;stroke:#ff0000;" x="226.128539" xlink:href="#m987d0f6827" y="130.671366"/>
     <use style="fill:#ff0000;stroke:#ff0000;" x="230.141124" xlink:href="#m987d0f6827" y="131.888976"/>
     <use style="fill:#ff0000;stroke:#ff0000;" x="234.153708" xlink:href="#m987d0f6827" y="232.671808"/>
     <use style="fill:#ff0000;stroke:#ff0000;" x="238.166292" xlink:href="#m987d0f6827" y="237.269833"/>
     <use style="fill:#ff0000;stroke:#ff0000;" x="242.178876" xlink:href="#m987d0f6827" y="160.050563"/>
     <use style="fill:#ff0000;stroke:#ff0000;" x="246.191461" xlink:href="#m987d0f6827" y="130.715651"/>
     <use style="fill:#ff0000;stroke:#ff0000;" x="250.204045" xlink:href="#m987d0f6827" y="132.383242"/>
     <use style="fill:#ff0000;stroke:#ff0000;" x="254.216629" xlink:href="#m987d0f6827" y="232.415078"/>
     <use style="fill:#ff0000;stroke:#ff0000;" x="258.229213" xlink:href="#m987d0f6827" y="237.131796"/>
     <use style="fill:#ff0000;stroke:#ff0000;" x="262.241798" xlink:href="#m987d0f6827" y="159.909979"/>
     <use style="fill:#ff0000;stroke:#ff0000;" x="266.254382" xlink:href="#m987d0f6827" y="131.440927"/>
     <use style="fill:#ff0000;stroke:#ff0000;" x="270.266966" xlink:href="#m987d0f6827" y="132.131589"/>
     <use style="fill:#ff0000;stroke:#ff0000;" x="274.279551" xlink:href="#m987d0f6827" y="233.099114"/>
     <use style="fill:#ff0000;stroke:#ff0000;" x="278.292135" xlink:href="#m987d0f6827" y="237.230441"/>
     <use style="fill:#ff0000;stroke:#ff0000;" x="282.304719" xlink:href="#m987d0f6827" y="160.920174"/>
     <use style="fill:#ff0000;stroke:#ff0000;" x="286.317303" xlink:href="#m987d0f6827" y="132.788337"/>
     <use style="fill:#ff0000;stroke:#ff0000;" x="290.329888" xlink:href="#m987d0f6827" y="131.519002"/>
     <use style="fill:#ff0000;stroke:#ff0000;" x="294.342472" xlink:href="#m987d0f6827" y="233.072207"/>
     <use style="fill:#ff0000;stroke:#ff0000;" x="298.355056" xlink:href="#m987d0f6827" y="237.27827"/>
     <use style="fill:#ff0000;stroke:#ff0000;" x="302.36764" xlink:href="#m987d0f6827" y="161.532598"/>
     <use style="fill:#ff0000;stroke:#ff0000;" x="306.380225" xlink:href="#m987d0f6827" y="134.016931"/>
     <use style="fill:#ff0000;stroke:#ff0000;" x="310.392809" xlink:href="#m987d0f6827" y="131.956971"/>
     <use style="fill:#ff0000;stroke:#ff0000;" x="314.405393" xlink:href="#m987d0f6827" y="239.320324"/>
     <use style="fill:#ff0000;stroke:#ff0000;" x="318.417978" xlink:href="#m987d0f6827" y="241.506673"/>
     <use style="fill:#ff0000;stroke:#ff0000;" x="322.430562" xlink:href="#m987d0f6827" y="178.453647"/>
     <use style="fill:#ff0000;stroke:#ff0000;" x="326.443146" xlink:href="#m987d0f6827" y="157.861384"/>
     <use style="fill:#ff0000;stroke:#ff0000;" x="330.45573" xlink:href="#m987d0f6827" y="159.973272"/>
     <use style="fill:#ff0000;stroke:#ff0000;" x="334.468315" xlink:href="#m987d0f6827" y="240.621871"/>
     <use style="fill:#ff0000;stroke:#ff0000;" x="338.480899" xlink:href="#m987d0f6827" y="241.168583"/>
     <use style="fill:#ff0000;stroke:#ff0000;" x="342.493483" xlink:href="#m987d0f6827" y="245.849086"/>
     <use style="fill:#ff0000;stroke:#ff0000;" x="346.506067" xlink:href="#m987d0f6827" y="247.130964"/>
     <use style="fill:#ff0000;stroke:#ff0000;" x="350.518652" xlink:href="#m987d0f6827" y="247.020312"/>
     <use style="fill:#ff0000;stroke:#ff0000;" x="354.531236" xlink:href="#m987d0f6827" y="247.066943"/>
     <use style="fill:#ff0000;stroke:#ff0000;" x="358.54382" xlink:href="#m987d0f6827" y="247.056748"/>
     <use style="fill:#ff0000;stroke:#ff0000;" x="362.556404" xlink:href="#m987d0f6827" y="246.997703"/>
     <use style="fill:#ff0000;stroke:#ff0000;" x="366.568989" xlink:href="#m987d0f6827" y="247.065487"/>
     <use style="fill:#ff0000;stroke:#ff0000;" x="370.581573" xlink:href="#m987d0f6827" y="247.106969"/>
     <use style="fill:#ff0000;stroke:#ff0000;" x="374.594157" xlink:href="#m987d0f6827" y="247.185438"/>
     <use style="fill:#ff0000;stroke:#ff0000;" x="378.606742" xlink:href="#m987d0f6827" y="273.10769"/>
     <use style="fill:#ff0000;stroke:#ff0000;" x="382.619326" xlink:href="#m987d0f6827" y="247.317291"/>
     <use style="fill:#ff0000;stroke:#ff0000;" x="386.63191" xlink:href="#m987d0f6827" y="247.357042"/>
     <use style="fill:#ff0000;stroke:#ff0000;" x="390.644494" xlink:href="#m987d0f6827" y="295.488"/>
     <use style="fill:#ff0000;stroke:#ff0000;" x="394.657079" xlink:href="#m987d0f6827" y="247.039263"/>
     <use style="fill:#ff0000;stroke:#ff0000;" x="398.669663" xlink:href="#m987d0f6827" y="247.128056"/>
     <use style="fill:#ff0000;stroke:#ff0000;" x="402.682247" xlink:href="#m987d0f6827" y="283.41125"/>
     <use style="fill:#ff0000;stroke:#ff0000;" x="406.694831" xlink:href="#m987d0f6827" y="295.478955"/>
     <use style="fill:#ff0000;stroke:#ff0000;" x="410.707416" xlink:href="#m987d0f6827" y="288.206688"/>
    </g>
   </g>
   <g id="line2d_61">
    <path clip-path="url(#p89c2ef5707)" d="M 61.612584 245.486015 
L 65.625169 231.85527 
L 69.637753 216.766408 
L 73.650337 206.420903 
L 77.662921 210.329473 
L 81.675506 191.341465 
L 85.68809 196.733489 
L 89.700674 188.208483 
L 93.713258 197.210688 
L 97.725843 160.351906 
L 101.738427 180.472745 
L 105.751011 182.679456 
L 109.763596 181.062627 
L 113.77618 184.128014 
L 117.788764 173.107777 
L 121.801348 184.181394 
L 125.813933 167.924824 
L 129.826517 170.001553 
L 133.839101 179.431043 
L 137.851685 170.630254 
L 141.86427 178.551584 
L 145.876854 174.86764 
L 149.889438 171.90275 
L 153.902022 166.661642 
L 157.914607 158.852469 
L 161.927191 149.304412 
L 165.939775 148.096446 
L 169.95236 153.98151 
L 173.964944 153.77193 
L 177.977528 169.661426 
L 181.990112 118.914873 
L 186.002697 160.48806 
L 190.015281 120.93656 
L 194.027865 161.479844 
L 198.040449 108.789416 
L 202.053034 155.307427 
L 206.065618 112.442858 
L 210.078202 152.766121 
L 214.090787 110.246857 
L 218.103371 152.510029 
L 222.115955 106.631555 
L 226.128539 96.052656 
L 230.141124 95.488917 
L 234.153708 152.480641 
L 238.166292 168.859496 
L 242.178876 126.382679 
L 246.191461 100.172929 
L 250.204045 117.994939 
L 254.216629 158.499521 
L 258.229213 176.608982 
L 262.241798 133.18247 
L 266.254382 113.302907 
L 270.266966 108.026436 
L 274.279551 160.763934 
L 278.292135 176.526303 
L 282.304719 120.531631 
L 286.317303 107.248738 
L 290.329888 100.15972 
L 294.342472 155.286922 
L 298.355056 171.970617 
L 302.36764 129.245588 
L 306.380225 104.393868 
L 310.392809 110.036204 
L 314.405393 167.842098 
L 318.417978 179.075135 
L 322.430562 132.127251 
L 326.443146 118.231022 
L 330.45573 120.109244 
L 334.468315 164.559313 
L 338.480899 175.597409 
L 342.493483 167.329065 
L 346.506067 167.725417 
L 350.518652 167.935014 
L 354.531236 166.245746 
L 358.54382 166.699514 
L 362.556404 164.439793 
L 366.568989 167.896573 
L 370.581573 165.704699 
L 374.594157 167.37012 
L 378.606742 179.119359 
L 382.619326 170.835688 
L 386.63191 173.040448 
L 390.644494 292.723162 
L 394.657079 171.885228 
L 398.669663 174.613817 
L 402.682247 274.804571 
L 406.694831 294.812441 
L 410.707416 288.966963 
" style="fill:none;stroke:#008000;stroke-dasharray:1.5,2.475;stroke-dashoffset:0;stroke-width:1.5;"/>
    <defs>
     <path d="M 0 1.5 
C 0.397805 1.5 0.77937 1.341951 1.06066 1.06066 
C 1.341951 0.77937 1.5 0.397805 1.5 0 
C 1.5 -0.397805 1.341951 -0.77937 1.06066 -1.06066 
C 0.77937 -1.341951 0.397805 -1.5 0 -1.5 
C -0.397805 -1.5 -0.77937 -1.341951 -1.06066 -1.06066 
C -1.341951 -0.77937 -1.5 -0.397805 -1.5 0 
C -1.5 0.397805 -1.341951 0.77937 -1.06066 1.06066 
C -0.77937 1.341951 -0.397805 1.5 0 1.5 
z
" id="m510bc0599f" style="stroke:#008000;"/>
    </defs>
    <g clip-path="url(#p89c2ef5707)">
     <use style="fill:#008000;stroke:#008000;" x="61.612584" xlink:href="#m510bc0599f" y="245.486015"/>
     <use style="fill:#008000;stroke:#008000;" x="65.625169" xlink:href="#m510bc0599f" y="231.85527"/>
     <use style="fill:#008000;stroke:#008000;" x="69.637753" xlink:href="#m510bc0599f" y="216.766408"/>
     <use style="fill:#008000;stroke:#008000;" x="73.650337" xlink:href="#m510bc0599f" y="206.420903"/>
     <use style="fill:#008000;stroke:#008000;" x="77.662921" xlink:href="#m510bc0599f" y="210.329473"/>
     <use style="fill:#008000;stroke:#008000;" x="81.675506" xlink:href="#m510bc0599f" y="191.341465"/>
     <use style="fill:#008000;stroke:#008000;" x="85.68809" xlink:href="#m510bc0599f" y="196.733489"/>
     <use style="fill:#008000;stroke:#008000;" x="89.700674" xlink:href="#m510bc0599f" y="188.208483"/>
     <use style="fill:#008000;stroke:#008000;" x="93.713258" xlink:href="#m510bc0599f" y="197.210688"/>
     <use style="fill:#008000;stroke:#008000;" x="97.725843" xlink:href="#m510bc0599f" y="160.351906"/>
     <use style="fill:#008000;stroke:#008000;" x="101.738427" xlink:href="#m510bc0599f" y="180.472745"/>
     <use style="fill:#008000;stroke:#008000;" x="105.751011" xlink:href="#m510bc0599f" y="182.679456"/>
     <use style="fill:#008000;stroke:#008000;" x="109.763596" xlink:href="#m510bc0599f" y="181.062627"/>
     <use style="fill:#008000;stroke:#008000;" x="113.77618" xlink:href="#m510bc0599f" y="184.128014"/>
     <use style="fill:#008000;stroke:#008000;" x="117.788764" xlink:href="#m510bc0599f" y="173.107777"/>
     <use style="fill:#008000;stroke:#008000;" x="121.801348" xlink:href="#m510bc0599f" y="184.181394"/>
     <use style="fill:#008000;stroke:#008000;" x="125.813933" xlink:href="#m510bc0599f" y="167.924824"/>
     <use style="fill:#008000;stroke:#008000;" x="129.826517" xlink:href="#m510bc0599f" y="170.001553"/>
     <use style="fill:#008000;stroke:#008000;" x="133.839101" xlink:href="#m510bc0599f" y="179.431043"/>
     <use style="fill:#008000;stroke:#008000;" x="137.851685" xlink:href="#m510bc0599f" y="170.630254"/>
     <use style="fill:#008000;stroke:#008000;" x="141.86427" xlink:href="#m510bc0599f" y="178.551584"/>
     <use style="fill:#008000;stroke:#008000;" x="145.876854" xlink:href="#m510bc0599f" y="174.86764"/>
     <use style="fill:#008000;stroke:#008000;" x="149.889438" xlink:href="#m510bc0599f" y="171.90275"/>
     <use style="fill:#008000;stroke:#008000;" x="153.902022" xlink:href="#m510bc0599f" y="166.661642"/>
     <use style="fill:#008000;stroke:#008000;" x="157.914607" xlink:href="#m510bc0599f" y="158.852469"/>
     <use style="fill:#008000;stroke:#008000;" x="161.927191" xlink:href="#m510bc0599f" y="149.304412"/>
     <use style="fill:#008000;stroke:#008000;" x="165.939775" xlink:href="#m510bc0599f" y="148.096446"/>
     <use style="fill:#008000;stroke:#008000;" x="169.95236" xlink:href="#m510bc0599f" y="153.98151"/>
     <use style="fill:#008000;stroke:#008000;" x="173.964944" xlink:href="#m510bc0599f" y="153.77193"/>
     <use style="fill:#008000;stroke:#008000;" x="177.977528" xlink:href="#m510bc0599f" y="169.661426"/>
     <use style="fill:#008000;stroke:#008000;" x="181.990112" xlink:href="#m510bc0599f" y="118.914873"/>
     <use style="fill:#008000;stroke:#008000;" x="186.002697" xlink:href="#m510bc0599f" y="160.48806"/>
     <use style="fill:#008000;stroke:#008000;" x="190.015281" xlink:href="#m510bc0599f" y="120.93656"/>
     <use style="fill:#008000;stroke:#008000;" x="194.027865" xlink:href="#m510bc0599f" y="161.479844"/>
     <use style="fill:#008000;stroke:#008000;" x="198.040449" xlink:href="#m510bc0599f" y="108.789416"/>
     <use style="fill:#008000;stroke:#008000;" x="202.053034" xlink:href="#m510bc0599f" y="155.307427"/>
     <use style="fill:#008000;stroke:#008000;" x="206.065618" xlink:href="#m510bc0599f" y="112.442858"/>
     <use style="fill:#008000;stroke:#008000;" x="210.078202" xlink:href="#m510bc0599f" y="152.766121"/>
     <use style="fill:#008000;stroke:#008000;" x="214.090787" xlink:href="#m510bc0599f" y="110.246857"/>
     <use style="fill:#008000;stroke:#008000;" x="218.103371" xlink:href="#m510bc0599f" y="152.510029"/>
     <use style="fill:#008000;stroke:#008000;" x="222.115955" xlink:href="#m510bc0599f" y="106.631555"/>
     <use style="fill:#008000;stroke:#008000;" x="226.128539" xlink:href="#m510bc0599f" y="96.052656"/>
     <use style="fill:#008000;stroke:#008000;" x="230.141124" xlink:href="#m510bc0599f" y="95.488917"/>
     <use style="fill:#008000;stroke:#008000;" x="234.153708" xlink:href="#m510bc0599f" y="152.480641"/>
     <use style="fill:#008000;stroke:#008000;" x="238.166292" xlink:href="#m510bc0599f" y="168.859496"/>
     <use style="fill:#008000;stroke:#008000;" x="242.178876" xlink:href="#m510bc0599f" y="126.382679"/>
     <use style="fill:#008000;stroke:#008000;" x="246.191461" xlink:href="#m510bc0599f" y="100.172929"/>
     <use style="fill:#008000;stroke:#008000;" x="250.204045" xlink:href="#m510bc0599f" y="117.994939"/>
     <use style="fill:#008000;stroke:#008000;" x="254.216629" xlink:href="#m510bc0599f" y="158.499521"/>
     <use style="fill:#008000;stroke:#008000;" x="258.229213" xlink:href="#m510bc0599f" y="176.608982"/>
     <use style="fill:#008000;stroke:#008000;" x="262.241798" xlink:href="#m510bc0599f" y="133.18247"/>
     <use style="fill:#008000;stroke:#008000;" x="266.254382" xlink:href="#m510bc0599f" y="113.302907"/>
     <use style="fill:#008000;stroke:#008000;" x="270.266966" xlink:href="#m510bc0599f" y="108.026436"/>
     <use style="fill:#008000;stroke:#008000;" x="274.279551" xlink:href="#m510bc0599f" y="160.763934"/>
     <use style="fill:#008000;stroke:#008000;" x="278.292135" xlink:href="#m510bc0599f" y="176.526303"/>
     <use style="fill:#008000;stroke:#008000;" x="282.304719" xlink:href="#m510bc0599f" y="120.531631"/>
     <use style="fill:#008000;stroke:#008000;" x="286.317303" xlink:href="#m510bc0599f" y="107.248738"/>
     <use style="fill:#008000;stroke:#008000;" x="290.329888" xlink:href="#m510bc0599f" y="100.15972"/>
     <use style="fill:#008000;stroke:#008000;" x="294.342472" xlink:href="#m510bc0599f" y="155.286922"/>
     <use style="fill:#008000;stroke:#008000;" x="298.355056" xlink:href="#m510bc0599f" y="171.970617"/>
     <use style="fill:#008000;stroke:#008000;" x="302.36764" xlink:href="#m510bc0599f" y="129.245588"/>
     <use style="fill:#008000;stroke:#008000;" x="306.380225" xlink:href="#m510bc0599f" y="104.393868"/>
     <use style="fill:#008000;stroke:#008000;" x="310.392809" xlink:href="#m510bc0599f" y="110.036204"/>
     <use style="fill:#008000;stroke:#008000;" x="314.405393" xlink:href="#m510bc0599f" y="167.842098"/>
     <use style="fill:#008000;stroke:#008000;" x="318.417978" xlink:href="#m510bc0599f" y="179.075135"/>
     <use style="fill:#008000;stroke:#008000;" x="322.430562" xlink:href="#m510bc0599f" y="132.127251"/>
     <use style="fill:#008000;stroke:#008000;" x="326.443146" xlink:href="#m510bc0599f" y="118.231022"/>
     <use style="fill:#008000;stroke:#008000;" x="330.45573" xlink:href="#m510bc0599f" y="120.109244"/>
     <use style="fill:#008000;stroke:#008000;" x="334.468315" xlink:href="#m510bc0599f" y="164.559313"/>
     <use style="fill:#008000;stroke:#008000;" x="338.480899" xlink:href="#m510bc0599f" y="175.597409"/>
     <use style="fill:#008000;stroke:#008000;" x="342.493483" xlink:href="#m510bc0599f" y="167.329065"/>
     <use style="fill:#008000;stroke:#008000;" x="346.506067" xlink:href="#m510bc0599f" y="167.725417"/>
     <use style="fill:#008000;stroke:#008000;" x="350.518652" xlink:href="#m510bc0599f" y="167.935014"/>
     <use style="fill:#008000;stroke:#008000;" x="354.531236" xlink:href="#m510bc0599f" y="166.245746"/>
     <use style="fill:#008000;stroke:#008000;" x="358.54382" xlink:href="#m510bc0599f" y="166.699514"/>
     <use style="fill:#008000;stroke:#008000;" x="362.556404" xlink:href="#m510bc0599f" y="164.439793"/>
     <use style="fill:#008000;stroke:#008000;" x="366.568989" xlink:href="#m510bc0599f" y="167.896573"/>
     <use style="fill:#008000;stroke:#008000;" x="370.581573" xlink:href="#m510bc0599f" y="165.704699"/>
     <use style="fill:#008000;stroke:#008000;" x="374.594157" xlink:href="#m510bc0599f" y="167.37012"/>
     <use style="fill:#008000;stroke:#008000;" x="378.606742" xlink:href="#m510bc0599f" y="179.119359"/>
     <use style="fill:#008000;stroke:#008000;" x="382.619326" xlink:href="#m510bc0599f" y="170.835688"/>
     <use style="fill:#008000;stroke:#008000;" x="386.63191" xlink:href="#m510bc0599f" y="173.040448"/>
     <use style="fill:#008000;stroke:#008000;" x="390.644494" xlink:href="#m510bc0599f" y="292.723162"/>
     <use style="fill:#008000;stroke:#008000;" x="394.657079" xlink:href="#m510bc0599f" y="171.885228"/>
     <use style="fill:#008000;stroke:#008000;" x="398.669663" xlink:href="#m510bc0599f" y="174.613817"/>
     <use style="fill:#008000;stroke:#008000;" x="402.682247" xlink:href="#m510bc0599f" y="274.804571"/>
     <use style="fill:#008000;stroke:#008000;" x="406.694831" xlink:href="#m510bc0599f" y="294.812441"/>
     <use style="fill:#008000;stroke:#008000;" x="410.707416" xlink:href="#m510bc0599f" y="288.966963"/>
    </g>
   </g>
   <g id="patch_3">
    <path d="M 57.6 307.584 
L 57.6 41.472 
" style="fill:none;stroke:#000000;stroke-linecap:square;stroke-linejoin:miter;stroke-width:0.8;"/>
   </g>
   <g id="patch_4">
    <path d="M 414.72 307.584 
L 414.72 41.472 
" style="fill:none;stroke:#000000;stroke-linecap:square;stroke-linejoin:miter;stroke-width:0.8;"/>
   </g>
   <g id="patch_5">
    <path d="M 57.6 307.584 
L 414.72 307.584 
" style="fill:none;stroke:#000000;stroke-linecap:square;stroke-linejoin:miter;stroke-width:0.8;"/>
   </g>
   <g id="patch_6">
    <path d="M 57.6 41.472 
L 414.72 41.472 
" style="fill:none;stroke:#000000;stroke-linecap:square;stroke-linejoin:miter;stroke-width:0.8;"/>
   </g>
   <g id="text_32">
    <!-- tbb::parallel_sort 3PV on pre_transpose12 -->
    <defs>
     <path d="M 48.6875 27.296875 
Q 48.6875 37.203125 44.609375 42.84375 
Q 40.53125 48.484375 33.40625 48.484375 
Q 26.265625 48.484375 22.1875 42.84375 
Q 18.109375 37.203125 18.109375 27.296875 
Q 18.109375 17.390625 22.1875 11.75 
Q 26.265625 6.109375 33.40625 6.109375 
Q 40.53125 6.109375 44.609375 11.75 
Q 48.6875 17.390625 48.6875 27.296875 
z
M 18.109375 46.390625 
Q 20.953125 51.265625 25.265625 53.625 
Q 29.59375 56 35.59375 56 
Q 45.5625 56 51.78125 48.09375 
Q 58.015625 40.1875 58.015625 27.296875 
Q 58.015625 14.40625 51.78125 6.484375 
Q 45.5625 -1.421875 35.59375 -1.421875 
Q 29.59375 -1.421875 25.265625 0.953125 
Q 20.953125 3.328125 18.109375 8.203125 
L 18.109375 0 
L 9.078125 0 
L 9.078125 75.984375 
L 18.109375 75.984375 
z
" id="DejaVuSans-98"/>
     <path d="M 11.71875 12.40625 
L 22.015625 12.40625 
L 22.015625 0 
L 11.71875 0 
z
M 11.71875 51.703125 
L 22.015625 51.703125 
L 22.015625 39.3125 
L 11.71875 39.3125 
z
" id="DejaVuSans-58"/>
     <path d="M 9.421875 75.984375 
L 18.40625 75.984375 
L 18.40625 0 
L 9.421875 0 
z
" id="DejaVuSans-108"/>
     <path d="M 50.984375 -16.609375 
L 50.984375 -23.578125 
L -0.984375 -23.578125 
L -0.984375 -16.609375 
z
" id="DejaVuSans-95"/>
     <path d="M 30.609375 48.390625 
Q 23.390625 48.390625 19.1875 42.75 
Q 14.984375 37.109375 14.984375 27.296875 
Q 14.984375 17.484375 19.15625 11.84375 
Q 23.34375 6.203125 30.609375 6.203125 
Q 37.796875 6.203125 41.984375 11.859375 
Q 46.1875 17.53125 46.1875 27.296875 
Q 46.1875 37.015625 41.984375 42.703125 
Q 37.796875 48.390625 30.609375 48.390625 
z
M 30.609375 56 
Q 42.328125 56 49.015625 48.375 
Q 55.71875 40.765625 55.71875 27.296875 
Q 55.71875 13.875 49.015625 6.21875 
Q 42.328125 -1.421875 30.609375 -1.421875 
Q 18.84375 -1.421875 12.171875 6.21875 
Q 5.515625 13.875 5.515625 27.296875 
Q 5.515625 40.765625 12.171875 48.375 
Q 18.84375 56 30.609375 56 
z
" id="DejaVuSans-111"/>
     <path d="M 19.671875 64.796875 
L 19.671875 37.40625 
L 32.078125 37.40625 
Q 38.96875 37.40625 42.71875 40.96875 
Q 46.484375 44.53125 46.484375 51.125 
Q 46.484375 57.671875 42.71875 61.234375 
Q 38.96875 64.796875 32.078125 64.796875 
z
M 9.8125 72.90625 
L 32.078125 72.90625 
Q 44.34375 72.90625 50.609375 67.359375 
Q 56.890625 61.8125 56.890625 51.125 
Q 56.890625 40.328125 50.609375 34.8125 
Q 44.34375 29.296875 32.078125 29.296875 
L 19.671875 29.296875 
L 19.671875 0 
L 9.8125 0 
z
" id="DejaVuSans-80"/>
     <path d="M 28.609375 0 
L 0.78125 72.90625 
L 11.078125 72.90625 
L 34.1875 11.53125 
L 57.328125 72.90625 
L 67.578125 72.90625 
L 39.796875 0 
z
" id="DejaVuSans-86"/>
     <path d="M 54.890625 33.015625 
L 54.890625 0 
L 45.90625 0 
L 45.90625 32.71875 
Q 45.90625 40.484375 42.875 44.328125 
Q 39.84375 48.1875 33.796875 48.1875 
Q 26.515625 48.1875 22.3125 43.546875 
Q 18.109375 38.921875 18.109375 30.90625 
L 18.109375 0 
L 9.078125 0 
L 9.078125 54.6875 
L 18.109375 54.6875 
L 18.109375 46.1875 
Q 21.34375 51.125 25.703125 53.5625 
Q 30.078125 56 35.796875 56 
Q 45.21875 56 50.046875 50.171875 
Q 54.890625 44.34375 54.890625 33.015625 
z
" id="DejaVuSans-110"/>
    </defs>
    <g transform="translate(110.286563 35.472)scale(0.12 -0.12)">
     <use xlink:href="#DejaVuSans-116"/>
     <use x="39.208984" xlink:href="#DejaVuSans-98"/>
     <use x="102.685547" xlink:href="#DejaVuSans-98"/>
     <use x="166.162109" xlink:href="#DejaVuSans-58"/>
     <use x="199.853516" xlink:href="#DejaVuSans-58"/>
     <use x="233.544922" xlink:href="#DejaVuSans-112"/>
     <use x="297.021484" xlink:href="#DejaVuSans-97"/>
     <use x="358.300781" xlink:href="#DejaVuSans-114"/>
     <use x="399.414062" xlink:href="#DejaVuSans-97"/>
     <use x="460.693359" xlink:href="#DejaVuSans-108"/>
     <use x="488.476562" xlink:href="#DejaVuSans-108"/>
     <use x="516.259766" xlink:href="#DejaVuSans-101"/>
     <use x="577.783203" xlink:href="#DejaVuSans-108"/>
     <use x="605.566406" xlink:href="#DejaVuSans-95"/>
     <use x="655.566406" xlink:href="#DejaVuSans-115"/>
     <use x="707.666016" xlink:href="#DejaVuSans-111"/>
     <use x="768.847656" xlink:href="#DejaVuSans-114"/>
     <use x="809.960938" xlink:href="#DejaVuSans-116"/>
     <use x="849.169922" xlink:href="#DejaVuSans-32"/>
     <use x="880.957031" xlink:href="#DejaVuSans-51"/>
     <use x="944.580078" xlink:href="#DejaVuSans-80"/>
     <use x="1004.882812" xlink:href="#DejaVuSans-86"/>
     <use x="1073.291016" xlink:href="#DejaVuSans-32"/>
     <use x="1105.078125" xlink:href="#DejaVuSans-111"/>
     <use x="1166.259766" xlink:href="#DejaVuSans-110"/>
     <use x="1229.638672" xlink:href="#DejaVuSans-32"/>
     <use x="1261.425781" xlink:href="#DejaVuSans-112"/>
     <use x="1324.902344" xlink:href="#DejaVuSans-114"/>
     <use x="1363.765625" xlink:href="#DejaVuSans-101"/>
     <use x="1425.289062" xlink:href="#DejaVuSans-95"/>
     <use x="1475.289062" xlink:href="#DejaVuSans-116"/>
     <use x="1514.498047" xlink:href="#DejaVuSans-114"/>
     <use x="1555.611328" xlink:href="#DejaVuSans-97"/>
     <use x="1616.890625" xlink:href="#DejaVuSans-110"/>
     <use x="1680.269531" xlink:href="#DejaVuSans-115"/>
     <use x="1732.369141" xlink:href="#DejaVuSans-112"/>
     <use x="1795.845703" xlink:href="#DejaVuSans-111"/>
     <use x="1857.027344" xlink:href="#DejaVuSans-115"/>
     <use x="1909.126953" xlink:href="#DejaVuSans-101"/>
     <use x="1970.650391" xlink:href="#DejaVuSans-49"/>
     <use x="2034.273438" xlink:href="#DejaVuSans-50"/>
    </g>
   </g>
   <g id="legend_1">
    <g id="patch_7">
     <path d="M 188.876406 302.584 
L 283.443594 302.584 
Q 285.443594 302.584 285.443594 300.584 
L 285.443594 257.2715 
Q 285.443594 255.2715 283.443594 255.2715 
L 188.876406 255.2715 
Q 186.876406 255.2715 186.876406 257.2715 
L 186.876406 300.584 
Q 186.876406 302.584 188.876406 302.584 
z
" style="fill:#ffffff;opacity:0.8;stroke:#cccccc;stroke-linejoin:miter;"/>
    </g>
    <g id="line2d_62">
     <path d="M 190.876406 263.369937 
L 210.876406 263.369937 
" style="fill:none;stroke:#0000ff;stroke-dasharray:1.5,2.475;stroke-dashoffset:0;stroke-width:1.5;"/>
    </g>
    <g id="line2d_63">
     <g>
      <use style="fill:#0000ff;stroke:#0000ff;" x="200.876406" xlink:href="#m51d7900c98" y="263.369937"/>
     </g>
    </g>
    <g id="text_33">
     <!-- transpose -->
     <g transform="translate(218.876406 266.869937)scale(0.1 -0.1)">
      <use xlink:href="#DejaVuSans-116"/>
      <use x="39.208984" xlink:href="#DejaVuSans-114"/>
      <use x="80.322266" xlink:href="#DejaVuSans-97"/>
      <use x="141.601562" xlink:href="#DejaVuSans-110"/>
      <use x="204.980469" xlink:href="#DejaVuSans-115"/>
      <use x="257.080078" xlink:href="#DejaVuSans-112"/>
      <use x="320.556641" xlink:href="#DejaVuSans-111"/>
      <use x="381.738281" xlink:href="#DejaVuSans-115"/>
      <use x="433.837891" xlink:href="#DejaVuSans-101"/>
     </g>
    </g>
    <g id="line2d_64">
     <path d="M 190.876406 278.048063 
L 210.876406 278.048063 
" style="fill:none;stroke:#ff0000;stroke-dasharray:1.5,2.475;stroke-dashoffset:0;stroke-width:1.5;"/>
    </g>
    <g id="line2d_65">
     <g>
      <use style="fill:#ff0000;stroke:#ff0000;" x="200.876406" xlink:href="#m987d0f6827" y="278.048063"/>
     </g>
    </g>
    <g id="text_34">
     <!-- transpose_tr -->
     <g transform="translate(218.876406 281.548063)scale(0.1 -0.1)">
      <use xlink:href="#DejaVuSans-116"/>
      <use x="39.208984" xlink:href="#DejaVuSans-114"/>
      <use x="80.322266" xlink:href="#DejaVuSans-97"/>
      <use x="141.601562" xlink:href="#DejaVuSans-110"/>
      <use x="204.980469" xlink:href="#DejaVuSans-115"/>
      <use x="257.080078" xlink:href="#DejaVuSans-112"/>
      <use x="320.556641" xlink:href="#DejaVuSans-111"/>
      <use x="381.738281" xlink:href="#DejaVuSans-115"/>
      <use x="433.837891" xlink:href="#DejaVuSans-101"/>
      <use x="495.361328" xlink:href="#DejaVuSans-95"/>
      <use x="545.361328" xlink:href="#DejaVuSans-116"/>
      <use x="584.570312" xlink:href="#DejaVuSans-114"/>
     </g>
    </g>
    <g id="line2d_66">
     <path d="M 190.876406 293.004312 
L 210.876406 293.004312 
" style="fill:none;stroke:#008000;stroke-dasharray:1.5,2.475;stroke-dashoffset:0;stroke-width:1.5;"/>
    </g>
    <g id="line2d_67">
     <g>
      <use style="fill:#008000;stroke:#008000;" x="200.876406" xlink:href="#m510bc0599f" y="293.004312"/>
     </g>
    </g>
    <g id="text_35">
     <!-- mean -->
     <defs>
      <path d="M 52 44.1875 
Q 55.375 50.25 60.0625 53.125 
Q 64.75 56 71.09375 56 
Q 79.640625 56 84.28125 50.015625 
Q 88.921875 44.046875 88.921875 33.015625 
L 88.921875 0 
L 79.890625 0 
L 79.890625 32.71875 
Q 79.890625 40.578125 77.09375 44.375 
Q 74.3125 48.1875 68.609375 48.1875 
Q 61.625 48.1875 57.5625 43.546875 
Q 53.515625 38.921875 53.515625 30.90625 
L 53.515625 0 
L 44.484375 0 
L 44.484375 32.71875 
Q 44.484375 40.625 41.703125 44.40625 
Q 38.921875 48.1875 33.109375 48.1875 
Q 26.21875 48.1875 22.15625 43.53125 
Q 18.109375 38.875 18.109375 30.90625 
L 18.109375 0 
L 9.078125 0 
L 9.078125 54.6875 
L 18.109375 54.6875 
L 18.109375 46.1875 
Q 21.1875 51.21875 25.484375 53.609375 
Q 29.78125 56 35.6875 56 
Q 41.65625 56 45.828125 52.96875 
Q 50 49.953125 52 44.1875 
z
" id="DejaVuSans-109"/>
     </defs>
     <g transform="translate(218.876406 296.504312)scale(0.1 -0.1)">
      <use xlink:href="#DejaVuSans-109"/>
      <use x="97.412109" xlink:href="#DejaVuSans-101"/>
      <use x="158.935547" xlink:href="#DejaVuSans-97"/>
      <use x="220.214844" xlink:href="#DejaVuSans-110"/>
     </g>
    </g>
   </g>
  </g>
 </g>
 <defs>
  <clipPath id="p89c2ef5707">
   <rect height="266.112" width="357.12" x="57.6" y="41.472"/>
  </clipPath>
 </defs>
</svg>
