<?xml version="1.0" encoding="utf-8" standalone="no"?>
<!DOCTYPE svg PUBLIC "-//W3C//DTD SVG 1.1//EN"
  "http://www.w3.org/Graphics/SVG/1.1/DTD/svg11.dtd">
<!-- Created with matplotlib (https://matplotlib.org/) -->
<svg height="345.6pt" version="1.1" viewBox="0 0 460.8 345.6" width="460.8pt" xmlns="http://www.w3.org/2000/svg" xmlns:xlink="http://www.w3.org/1999/xlink">
 <defs>
  <style type="text/css">
*{stroke-linecap:butt;stroke-linejoin:round;}
  </style>
 </defs>
 <g id="figure_1">
  <g id="patch_1">
   <path d="M 0 345.6 
L 460.8 345.6 
L 460.8 0 
L 0 0 
z
" style="fill:#ffffff;"/>
  </g>
  <g id="axes_1">
   <g id="patch_2">
    <path d="M 57.6 307.584 
L 414.72 307.584 
L 414.72 41.472 
L 57.6 41.472 
z
" style="fill:#ffffff;"/>
   </g>
   <g id="matplotlib.axis_1">
    <g id="xtick_1">
     <g id="line2d_1">
      <path clip-path="url(#p46bc8b6583)" d="M 61.612584 307.584 
L 61.612584 41.472 
" style="fill:none;stroke:#b0b0b0;stroke-dasharray:5.12,1.28,0.8,1.28;stroke-dashoffset:0;stroke-width:0.8;"/>
     </g>
     <g id="line2d_2">
      <defs>
       <path d="M 0 0 
L 0 3.5 
" id="m618fa10799" style="stroke:#000000;stroke-width:0.8;"/>
      </defs>
      <g>
       <use style="stroke:#000000;stroke-width:0.8;" x="61.612584" xlink:href="#m618fa10799" y="307.584"/>
      </g>
     </g>
     <g id="text_1">
      <!-- 1 -->
      <defs>
       <path d="M 12.40625 8.296875 
L 28.515625 8.296875 
L 28.515625 63.921875 
L 10.984375 60.40625 
L 10.984375 69.390625 
L 28.421875 72.90625 
L 38.28125 72.90625 
L 38.28125 8.296875 
L 54.390625 8.296875 
L 54.390625 0 
L 12.40625 0 
z
" id="DejaVuSans-49"/>
      </defs>
      <g transform="translate(58.431334 322.182437)scale(0.1 -0.1)">
       <use xlink:href="#DejaVuSans-49"/>
      </g>
     </g>
    </g>
    <g id="xtick_2">
     <g id="line2d_3">
      <path clip-path="url(#p46bc8b6583)" d="M 73.650337 307.584 
L 73.650337 41.472 
" style="fill:none;stroke:#b0b0b0;stroke-dasharray:5.12,1.28,0.8,1.28;stroke-dashoffset:0;stroke-width:0.8;"/>
     </g>
     <g id="line2d_4">
      <g>
       <use style="stroke:#000000;stroke-width:0.8;" x="73.650337" xlink:href="#m618fa10799" y="307.584"/>
      </g>
     </g>
     <g id="text_2">
      <!-- 4 -->
      <defs>
       <path d="M 37.796875 64.3125 
L 12.890625 25.390625 
L 37.796875 25.390625 
z
M 35.203125 72.90625 
L 47.609375 72.90625 
L 47.609375 25.390625 
L 58.015625 25.390625 
L 58.015625 17.1875 
L 47.609375 17.1875 
L 47.609375 0 
L 37.796875 0 
L 37.796875 17.1875 
L 4.890625 17.1875 
L 4.890625 26.703125 
z
" id="DejaVuSans-52"/>
      </defs>
      <g transform="translate(70.469087 322.182437)scale(0.1 -0.1)">
       <use xlink:href="#DejaVuSans-52"/>
      </g>
     </g>
    </g>
    <g id="xtick_3">
     <g id="line2d_5">
      <path clip-path="url(#p46bc8b6583)" d="M 89.700674 307.584 
L 89.700674 41.472 
" style="fill:none;stroke:#b0b0b0;stroke-dasharray:5.12,1.28,0.8,1.28;stroke-dashoffset:0;stroke-width:0.8;"/>
     </g>
     <g id="line2d_6">
      <g>
       <use style="stroke:#000000;stroke-width:0.8;" x="89.700674" xlink:href="#m618fa10799" y="307.584"/>
      </g>
     </g>
     <g id="text_3">
      <!-- 8 -->
      <defs>
       <path d="M 31.78125 34.625 
Q 24.75 34.625 20.71875 30.859375 
Q 16.703125 27.09375 16.703125 20.515625 
Q 16.703125 13.921875 20.71875 10.15625 
Q 24.75 6.390625 31.78125 6.390625 
Q 38.8125 6.390625 42.859375 10.171875 
Q 46.921875 13.96875 46.921875 20.515625 
Q 46.921875 27.09375 42.890625 30.859375 
Q 38.875 34.625 31.78125 34.625 
z
M 21.921875 38.8125 
Q 15.578125 40.375 12.03125 44.71875 
Q 8.5 49.078125 8.5 55.328125 
Q 8.5 64.0625 14.71875 69.140625 
Q 20.953125 74.21875 31.78125 74.21875 
Q 42.671875 74.21875 48.875 69.140625 
Q 55.078125 64.0625 55.078125 55.328125 
Q 55.078125 49.078125 51.53125 44.71875 
Q 48 40.375 41.703125 38.8125 
Q 48.828125 37.15625 52.796875 32.3125 
Q 56.78125 27.484375 56.78125 20.515625 
Q 56.78125 9.90625 50.3125 4.234375 
Q 43.84375 -1.421875 31.78125 -1.421875 
Q 19.734375 -1.421875 13.25 4.234375 
Q 6.78125 9.90625 6.78125 20.515625 
Q 6.78125 27.484375 10.78125 32.3125 
Q 14.796875 37.15625 21.921875 38.8125 
z
M 18.3125 54.390625 
Q 18.3125 48.734375 21.84375 45.5625 
Q 25.390625 42.390625 31.78125 42.390625 
Q 38.140625 42.390625 41.71875 45.5625 
Q 45.3125 48.734375 45.3125 54.390625 
Q 45.3125 60.0625 41.71875 63.234375 
Q 38.140625 66.40625 31.78125 66.40625 
Q 25.390625 66.40625 21.84375 63.234375 
Q 18.3125 60.0625 18.3125 54.390625 
z
" id="DejaVuSans-56"/>
      </defs>
      <g transform="translate(86.519424 322.182437)scale(0.1 -0.1)">
       <use xlink:href="#DejaVuSans-56"/>
      </g>
     </g>
    </g>
    <g id="xtick_4">
     <g id="line2d_7">
      <path clip-path="url(#p46bc8b6583)" d="M 105.751011 307.584 
L 105.751011 41.472 
" style="fill:none;stroke:#b0b0b0;stroke-dasharray:5.12,1.28,0.8,1.28;stroke-dashoffset:0;stroke-width:0.8;"/>
     </g>
     <g id="line2d_8">
      <g>
       <use style="stroke:#000000;stroke-width:0.8;" x="105.751011" xlink:href="#m618fa10799" y="307.584"/>
      </g>
     </g>
     <g id="text_4">
      <!-- 12 -->
      <defs>
       <path d="M 19.1875 8.296875 
L 53.609375 8.296875 
L 53.609375 0 
L 7.328125 0 
L 7.328125 8.296875 
Q 12.9375 14.109375 22.625 23.890625 
Q 32.328125 33.6875 34.8125 36.53125 
Q 39.546875 41.84375 41.421875 45.53125 
Q 43.3125 49.21875 43.3125 52.78125 
Q 43.3125 58.59375 39.234375 62.25 
Q 35.15625 65.921875 28.609375 65.921875 
Q 23.96875 65.921875 18.8125 64.3125 
Q 13.671875 62.703125 7.8125 59.421875 
L 7.8125 69.390625 
Q 13.765625 71.78125 18.9375 73 
Q 24.125 74.21875 28.421875 74.21875 
Q 39.75 74.21875 46.484375 68.546875 
Q 53.21875 62.890625 53.21875 53.421875 
Q 53.21875 48.921875 51.53125 44.890625 
Q 49.859375 40.875 45.40625 35.40625 
Q 44.1875 33.984375 37.640625 27.21875 
Q 31.109375 20.453125 19.1875 8.296875 
z
" id="DejaVuSans-50"/>
      </defs>
      <g transform="translate(99.388511 322.182437)scale(0.1 -0.1)">
       <use xlink:href="#DejaVuSans-49"/>
       <use x="63.623047" xlink:href="#DejaVuSans-50"/>
      </g>
     </g>
    </g>
    <g id="xtick_5">
     <g id="line2d_9">
      <path clip-path="url(#p46bc8b6583)" d="M 121.801348 307.584 
L 121.801348 41.472 
" style="fill:none;stroke:#b0b0b0;stroke-dasharray:5.12,1.28,0.8,1.28;stroke-dashoffset:0;stroke-width:0.8;"/>
     </g>
     <g id="line2d_10">
      <g>
       <use style="stroke:#000000;stroke-width:0.8;" x="121.801348" xlink:href="#m618fa10799" y="307.584"/>
      </g>
     </g>
     <g id="text_5">
      <!-- 16 -->
      <defs>
       <path d="M 33.015625 40.375 
Q 26.375 40.375 22.484375 35.828125 
Q 18.609375 31.296875 18.609375 23.390625 
Q 18.609375 15.53125 22.484375 10.953125 
Q 26.375 6.390625 33.015625 6.390625 
Q 39.65625 6.390625 43.53125 10.953125 
Q 47.40625 15.53125 47.40625 23.390625 
Q 47.40625 31.296875 43.53125 35.828125 
Q 39.65625 40.375 33.015625 40.375 
z
M 52.59375 71.296875 
L 52.59375 62.3125 
Q 48.875 64.0625 45.09375 64.984375 
Q 41.3125 65.921875 37.59375 65.921875 
Q 27.828125 65.921875 22.671875 59.328125 
Q 17.53125 52.734375 16.796875 39.40625 
Q 19.671875 43.65625 24.015625 45.921875 
Q 28.375 48.1875 33.59375 48.1875 
Q 44.578125 48.1875 50.953125 41.515625 
Q 57.328125 34.859375 57.328125 23.390625 
Q 57.328125 12.15625 50.6875 5.359375 
Q 44.046875 -1.421875 33.015625 -1.421875 
Q 20.359375 -1.421875 13.671875 8.265625 
Q 6.984375 17.96875 6.984375 36.375 
Q 6.984375 53.65625 15.1875 63.9375 
Q 23.390625 74.21875 37.203125 74.21875 
Q 40.921875 74.21875 44.703125 73.484375 
Q 48.484375 72.75 52.59375 71.296875 
z
" id="DejaVuSans-54"/>
      </defs>
      <g transform="translate(115.438848 322.182437)scale(0.1 -0.1)">
       <use xlink:href="#DejaVuSans-49"/>
       <use x="63.623047" xlink:href="#DejaVuSans-54"/>
      </g>
     </g>
    </g>
    <g id="xtick_6">
     <g id="line2d_11">
      <path clip-path="url(#p46bc8b6583)" d="M 137.851685 307.584 
L 137.851685 41.472 
" style="fill:none;stroke:#b0b0b0;stroke-dasharray:5.12,1.28,0.8,1.28;stroke-dashoffset:0;stroke-width:0.8;"/>
     </g>
     <g id="line2d_12">
      <g>
       <use style="stroke:#000000;stroke-width:0.8;" x="137.851685" xlink:href="#m618fa10799" y="307.584"/>
      </g>
     </g>
     <g id="text_6">
      <!-- 20 -->
      <defs>
       <path d="M 31.78125 66.40625 
Q 24.171875 66.40625 20.328125 58.90625 
Q 16.5 51.421875 16.5 36.375 
Q 16.5 21.390625 20.328125 13.890625 
Q 24.171875 6.390625 31.78125 6.390625 
Q 39.453125 6.390625 43.28125 13.890625 
Q 47.125 21.390625 47.125 36.375 
Q 47.125 51.421875 43.28125 58.90625 
Q 39.453125 66.40625 31.78125 66.40625 
z
M 31.78125 74.21875 
Q 44.046875 74.21875 50.515625 64.515625 
Q 56.984375 54.828125 56.984375 36.375 
Q 56.984375 17.96875 50.515625 8.265625 
Q 44.046875 -1.421875 31.78125 -1.421875 
Q 19.53125 -1.421875 13.0625 8.265625 
Q 6.59375 17.96875 6.59375 36.375 
Q 6.59375 54.828125 13.0625 64.515625 
Q 19.53125 74.21875 31.78125 74.21875 
z
" id="DejaVuSans-48"/>
      </defs>
      <g transform="translate(131.489185 322.182437)scale(0.1 -0.1)">
       <use xlink:href="#DejaVuSans-50"/>
       <use x="63.623047" xlink:href="#DejaVuSans-48"/>
      </g>
     </g>
    </g>
    <g id="xtick_7">
     <g id="line2d_13">
      <path clip-path="url(#p46bc8b6583)" d="M 153.902022 307.584 
L 153.902022 41.472 
" style="fill:none;stroke:#b0b0b0;stroke-dasharray:5.12,1.28,0.8,1.28;stroke-dashoffset:0;stroke-width:0.8;"/>
     </g>
     <g id="line2d_14">
      <g>
       <use style="stroke:#000000;stroke-width:0.8;" x="153.902022" xlink:href="#m618fa10799" y="307.584"/>
      </g>
     </g>
     <g id="text_7">
      <!-- 24 -->
      <g transform="translate(147.539522 322.182437)scale(0.1 -0.1)">
       <use xlink:href="#DejaVuSans-50"/>
       <use x="63.623047" xlink:href="#DejaVuSans-52"/>
      </g>
     </g>
    </g>
    <g id="xtick_8">
     <g id="line2d_15">
      <path clip-path="url(#p46bc8b6583)" d="M 169.95236 307.584 
L 169.95236 41.472 
" style="fill:none;stroke:#b0b0b0;stroke-dasharray:5.12,1.28,0.8,1.28;stroke-dashoffset:0;stroke-width:0.8;"/>
     </g>
     <g id="line2d_16">
      <g>
       <use style="stroke:#000000;stroke-width:0.8;" x="169.95236" xlink:href="#m618fa10799" y="307.584"/>
      </g>
     </g>
     <g id="text_8">
      <!-- 28 -->
      <g transform="translate(163.58986 322.182437)scale(0.1 -0.1)">
       <use xlink:href="#DejaVuSans-50"/>
       <use x="63.623047" xlink:href="#DejaVuSans-56"/>
      </g>
     </g>
    </g>
    <g id="xtick_9">
     <g id="line2d_17">
      <path clip-path="url(#p46bc8b6583)" d="M 186.002697 307.584 
L 186.002697 41.472 
" style="fill:none;stroke:#b0b0b0;stroke-dasharray:5.12,1.28,0.8,1.28;stroke-dashoffset:0;stroke-width:0.8;"/>
     </g>
     <g id="line2d_18">
      <g>
       <use style="stroke:#000000;stroke-width:0.8;" x="186.002697" xlink:href="#m618fa10799" y="307.584"/>
      </g>
     </g>
     <g id="text_9">
      <!-- 32 -->
      <defs>
       <path d="M 40.578125 39.3125 
Q 47.65625 37.796875 51.625 33 
Q 55.609375 28.21875 55.609375 21.1875 
Q 55.609375 10.40625 48.1875 4.484375 
Q 40.765625 -1.421875 27.09375 -1.421875 
Q 22.515625 -1.421875 17.65625 -0.515625 
Q 12.796875 0.390625 7.625 2.203125 
L 7.625 11.71875 
Q 11.71875 9.328125 16.59375 8.109375 
Q 21.484375 6.890625 26.8125 6.890625 
Q 36.078125 6.890625 40.9375 10.546875 
Q 45.796875 14.203125 45.796875 21.1875 
Q 45.796875 27.640625 41.28125 31.265625 
Q 36.765625 34.90625 28.71875 34.90625 
L 20.21875 34.90625 
L 20.21875 43.015625 
L 29.109375 43.015625 
Q 36.375 43.015625 40.234375 45.921875 
Q 44.09375 48.828125 44.09375 54.296875 
Q 44.09375 59.90625 40.109375 62.90625 
Q 36.140625 65.921875 28.71875 65.921875 
Q 24.65625 65.921875 20.015625 65.03125 
Q 15.375 64.15625 9.8125 62.3125 
L 9.8125 71.09375 
Q 15.4375 72.65625 20.34375 73.4375 
Q 25.25 74.21875 29.59375 74.21875 
Q 40.828125 74.21875 47.359375 69.109375 
Q 53.90625 64.015625 53.90625 55.328125 
Q 53.90625 49.265625 50.4375 45.09375 
Q 46.96875 40.921875 40.578125 39.3125 
z
" id="DejaVuSans-51"/>
      </defs>
      <g transform="translate(179.640197 322.182437)scale(0.1 -0.1)">
       <use xlink:href="#DejaVuSans-51"/>
       <use x="63.623047" xlink:href="#DejaVuSans-50"/>
      </g>
     </g>
    </g>
    <g id="xtick_10">
     <g id="line2d_19">
      <path clip-path="url(#p46bc8b6583)" d="M 202.053034 307.584 
L 202.053034 41.472 
" style="fill:none;stroke:#b0b0b0;stroke-dasharray:5.12,1.28,0.8,1.28;stroke-dashoffset:0;stroke-width:0.8;"/>
     </g>
     <g id="line2d_20">
      <g>
       <use style="stroke:#000000;stroke-width:0.8;" x="202.053034" xlink:href="#m618fa10799" y="307.584"/>
      </g>
     </g>
     <g id="text_10">
      <!-- 36 -->
      <g transform="translate(195.690534 322.182437)scale(0.1 -0.1)">
       <use xlink:href="#DejaVuSans-51"/>
       <use x="63.623047" xlink:href="#DejaVuSans-54"/>
      </g>
     </g>
    </g>
    <g id="xtick_11">
     <g id="line2d_21">
      <path clip-path="url(#p46bc8b6583)" d="M 218.103371 307.584 
L 218.103371 41.472 
" style="fill:none;stroke:#b0b0b0;stroke-dasharray:5.12,1.28,0.8,1.28;stroke-dashoffset:0;stroke-width:0.8;"/>
     </g>
     <g id="line2d_22">
      <g>
       <use style="stroke:#000000;stroke-width:0.8;" x="218.103371" xlink:href="#m618fa10799" y="307.584"/>
      </g>
     </g>
     <g id="text_11">
      <!-- 40 -->
      <g transform="translate(211.740871 322.182437)scale(0.1 -0.1)">
       <use xlink:href="#DejaVuSans-52"/>
       <use x="63.623047" xlink:href="#DejaVuSans-48"/>
      </g>
     </g>
    </g>
    <g id="xtick_12">
     <g id="line2d_23">
      <path clip-path="url(#p46bc8b6583)" d="M 234.153708 307.584 
L 234.153708 41.472 
" style="fill:none;stroke:#b0b0b0;stroke-dasharray:5.12,1.28,0.8,1.28;stroke-dashoffset:0;stroke-width:0.8;"/>
     </g>
     <g id="line2d_24">
      <g>
       <use style="stroke:#000000;stroke-width:0.8;" x="234.153708" xlink:href="#m618fa10799" y="307.584"/>
      </g>
     </g>
     <g id="text_12">
      <!-- 44 -->
      <g transform="translate(227.791208 322.182437)scale(0.1 -0.1)">
       <use xlink:href="#DejaVuSans-52"/>
       <use x="63.623047" xlink:href="#DejaVuSans-52"/>
      </g>
     </g>
    </g>
    <g id="xtick_13">
     <g id="line2d_25">
      <path clip-path="url(#p46bc8b6583)" d="M 250.204045 307.584 
L 250.204045 41.472 
" style="fill:none;stroke:#b0b0b0;stroke-dasharray:5.12,1.28,0.8,1.28;stroke-dashoffset:0;stroke-width:0.8;"/>
     </g>
     <g id="line2d_26">
      <g>
       <use style="stroke:#000000;stroke-width:0.8;" x="250.204045" xlink:href="#m618fa10799" y="307.584"/>
      </g>
     </g>
     <g id="text_13">
      <!-- 48 -->
      <g transform="translate(243.841545 322.182437)scale(0.1 -0.1)">
       <use xlink:href="#DejaVuSans-52"/>
       <use x="63.623047" xlink:href="#DejaVuSans-56"/>
      </g>
     </g>
    </g>
    <g id="xtick_14">
     <g id="line2d_27">
      <path clip-path="url(#p46bc8b6583)" d="M 266.254382 307.584 
L 266.254382 41.472 
" style="fill:none;stroke:#b0b0b0;stroke-dasharray:5.12,1.28,0.8,1.28;stroke-dashoffset:0;stroke-width:0.8;"/>
     </g>
     <g id="line2d_28">
      <g>
       <use style="stroke:#000000;stroke-width:0.8;" x="266.254382" xlink:href="#m618fa10799" y="307.584"/>
      </g>
     </g>
     <g id="text_14">
      <!-- 52 -->
      <defs>
       <path d="M 10.796875 72.90625 
L 49.515625 72.90625 
L 49.515625 64.59375 
L 19.828125 64.59375 
L 19.828125 46.734375 
Q 21.96875 47.46875 24.109375 47.828125 
Q 26.265625 48.1875 28.421875 48.1875 
Q 40.625 48.1875 47.75 41.5 
Q 54.890625 34.8125 54.890625 23.390625 
Q 54.890625 11.625 47.5625 5.09375 
Q 40.234375 -1.421875 26.90625 -1.421875 
Q 22.3125 -1.421875 17.546875 -0.640625 
Q 12.796875 0.140625 7.71875 1.703125 
L 7.71875 11.625 
Q 12.109375 9.234375 16.796875 8.0625 
Q 21.484375 6.890625 26.703125 6.890625 
Q 35.15625 6.890625 40.078125 11.328125 
Q 45.015625 15.765625 45.015625 23.390625 
Q 45.015625 31 40.078125 35.4375 
Q 35.15625 39.890625 26.703125 39.890625 
Q 22.75 39.890625 18.8125 39.015625 
Q 14.890625 38.140625 10.796875 36.28125 
z
" id="DejaVuSans-53"/>
      </defs>
      <g transform="translate(259.891882 322.182437)scale(0.1 -0.1)">
       <use xlink:href="#DejaVuSans-53"/>
       <use x="63.623047" xlink:href="#DejaVuSans-50"/>
      </g>
     </g>
    </g>
    <g id="xtick_15">
     <g id="line2d_29">
      <path clip-path="url(#p46bc8b6583)" d="M 282.304719 307.584 
L 282.304719 41.472 
" style="fill:none;stroke:#b0b0b0;stroke-dasharray:5.12,1.28,0.8,1.28;stroke-dashoffset:0;stroke-width:0.8;"/>
     </g>
     <g id="line2d_30">
      <g>
       <use style="stroke:#000000;stroke-width:0.8;" x="282.304719" xlink:href="#m618fa10799" y="307.584"/>
      </g>
     </g>
     <g id="text_15">
      <!-- 56 -->
      <g transform="translate(275.942219 322.182437)scale(0.1 -0.1)">
       <use xlink:href="#DejaVuSans-53"/>
       <use x="63.623047" xlink:href="#DejaVuSans-54"/>
      </g>
     </g>
    </g>
    <g id="xtick_16">
     <g id="line2d_31">
      <path clip-path="url(#p46bc8b6583)" d="M 298.355056 307.584 
L 298.355056 41.472 
" style="fill:none;stroke:#b0b0b0;stroke-dasharray:5.12,1.28,0.8,1.28;stroke-dashoffset:0;stroke-width:0.8;"/>
     </g>
     <g id="line2d_32">
      <g>
       <use style="stroke:#000000;stroke-width:0.8;" x="298.355056" xlink:href="#m618fa10799" y="307.584"/>
      </g>
     </g>
     <g id="text_16">
      <!-- 60 -->
      <g transform="translate(291.992556 322.182437)scale(0.1 -0.1)">
       <use xlink:href="#DejaVuSans-54"/>
       <use x="63.623047" xlink:href="#DejaVuSans-48"/>
      </g>
     </g>
    </g>
    <g id="xtick_17">
     <g id="line2d_33">
      <path clip-path="url(#p46bc8b6583)" d="M 314.405393 307.584 
L 314.405393 41.472 
" style="fill:none;stroke:#b0b0b0;stroke-dasharray:5.12,1.28,0.8,1.28;stroke-dashoffset:0;stroke-width:0.8;"/>
     </g>
     <g id="line2d_34">
      <g>
       <use style="stroke:#000000;stroke-width:0.8;" x="314.405393" xlink:href="#m618fa10799" y="307.584"/>
      </g>
     </g>
     <g id="text_17">
      <!-- 64 -->
      <g transform="translate(308.042893 322.182437)scale(0.1 -0.1)">
       <use xlink:href="#DejaVuSans-54"/>
       <use x="63.623047" xlink:href="#DejaVuSans-52"/>
      </g>
     </g>
    </g>
    <g id="xtick_18">
     <g id="line2d_35">
      <path clip-path="url(#p46bc8b6583)" d="M 330.45573 307.584 
L 330.45573 41.472 
" style="fill:none;stroke:#b0b0b0;stroke-dasharray:5.12,1.28,0.8,1.28;stroke-dashoffset:0;stroke-width:0.8;"/>
     </g>
     <g id="line2d_36">
      <g>
       <use style="stroke:#000000;stroke-width:0.8;" x="330.45573" xlink:href="#m618fa10799" y="307.584"/>
      </g>
     </g>
     <g id="text_18">
      <!-- 68 -->
      <g transform="translate(324.09323 322.182437)scale(0.1 -0.1)">
       <use xlink:href="#DejaVuSans-54"/>
       <use x="63.623047" xlink:href="#DejaVuSans-56"/>
      </g>
     </g>
    </g>
    <g id="xtick_19">
     <g id="line2d_37">
      <path clip-path="url(#p46bc8b6583)" d="M 346.506067 307.584 
L 346.506067 41.472 
" style="fill:none;stroke:#b0b0b0;stroke-dasharray:5.12,1.28,0.8,1.28;stroke-dashoffset:0;stroke-width:0.8;"/>
     </g>
     <g id="line2d_38">
      <g>
       <use style="stroke:#000000;stroke-width:0.8;" x="346.506067" xlink:href="#m618fa10799" y="307.584"/>
      </g>
     </g>
     <g id="text_19">
      <!-- 72 -->
      <defs>
       <path d="M 8.203125 72.90625 
L 55.078125 72.90625 
L 55.078125 68.703125 
L 28.609375 0 
L 18.3125 0 
L 43.21875 64.59375 
L 8.203125 64.59375 
z
" id="DejaVuSans-55"/>
      </defs>
      <g transform="translate(340.143567 322.182437)scale(0.1 -0.1)">
       <use xlink:href="#DejaVuSans-55"/>
       <use x="63.623047" xlink:href="#DejaVuSans-50"/>
      </g>
     </g>
    </g>
    <g id="xtick_20">
     <g id="line2d_39">
      <path clip-path="url(#p46bc8b6583)" d="M 362.556404 307.584 
L 362.556404 41.472 
" style="fill:none;stroke:#b0b0b0;stroke-dasharray:5.12,1.28,0.8,1.28;stroke-dashoffset:0;stroke-width:0.8;"/>
     </g>
     <g id="line2d_40">
      <g>
       <use style="stroke:#000000;stroke-width:0.8;" x="362.556404" xlink:href="#m618fa10799" y="307.584"/>
      </g>
     </g>
     <g id="text_20">
      <!-- 76 -->
      <g transform="translate(356.193904 322.182437)scale(0.1 -0.1)">
       <use xlink:href="#DejaVuSans-55"/>
       <use x="63.623047" xlink:href="#DejaVuSans-54"/>
      </g>
     </g>
    </g>
    <g id="xtick_21">
     <g id="line2d_41">
      <path clip-path="url(#p46bc8b6583)" d="M 378.606742 307.584 
L 378.606742 41.472 
" style="fill:none;stroke:#b0b0b0;stroke-dasharray:5.12,1.28,0.8,1.28;stroke-dashoffset:0;stroke-width:0.8;"/>
     </g>
     <g id="line2d_42">
      <g>
       <use style="stroke:#000000;stroke-width:0.8;" x="378.606742" xlink:href="#m618fa10799" y="307.584"/>
      </g>
     </g>
     <g id="text_21">
      <!-- 80 -->
      <g transform="translate(372.244242 322.182437)scale(0.1 -0.1)">
       <use xlink:href="#DejaVuSans-56"/>
       <use x="63.623047" xlink:href="#DejaVuSans-48"/>
      </g>
     </g>
    </g>
    <g id="xtick_22">
     <g id="line2d_43">
      <path clip-path="url(#p46bc8b6583)" d="M 394.657079 307.584 
L 394.657079 41.472 
" style="fill:none;stroke:#b0b0b0;stroke-dasharray:5.12,1.28,0.8,1.28;stroke-dashoffset:0;stroke-width:0.8;"/>
     </g>
     <g id="line2d_44">
      <g>
       <use style="stroke:#000000;stroke-width:0.8;" x="394.657079" xlink:href="#m618fa10799" y="307.584"/>
      </g>
     </g>
     <g id="text_22">
      <!-- 84 -->
      <g transform="translate(388.294579 322.182437)scale(0.1 -0.1)">
       <use xlink:href="#DejaVuSans-56"/>
       <use x="63.623047" xlink:href="#DejaVuSans-52"/>
      </g>
     </g>
    </g>
    <g id="xtick_23">
     <g id="line2d_45">
      <path clip-path="url(#p46bc8b6583)" d="M 410.707416 307.584 
L 410.707416 41.472 
" style="fill:none;stroke:#b0b0b0;stroke-dasharray:5.12,1.28,0.8,1.28;stroke-dashoffset:0;stroke-width:0.8;"/>
     </g>
     <g id="line2d_46">
      <g>
       <use style="stroke:#000000;stroke-width:0.8;" x="410.707416" xlink:href="#m618fa10799" y="307.584"/>
      </g>
     </g>
     <g id="text_23">
      <!-- 88 -->
      <g transform="translate(404.344916 322.182437)scale(0.1 -0.1)">
       <use xlink:href="#DejaVuSans-56"/>
       <use x="63.623047" xlink:href="#DejaVuSans-56"/>
      </g>
     </g>
    </g>
    <g id="text_24">
     <!-- threads -->
     <defs>
      <path d="M 18.3125 70.21875 
L 18.3125 54.6875 
L 36.8125 54.6875 
L 36.8125 47.703125 
L 18.3125 47.703125 
L 18.3125 18.015625 
Q 18.3125 11.328125 20.140625 9.421875 
Q 21.96875 7.515625 27.59375 7.515625 
L 36.8125 7.515625 
L 36.8125 0 
L 27.59375 0 
Q 17.1875 0 13.234375 3.875 
Q 9.28125 7.765625 9.28125 18.015625 
L 9.28125 47.703125 
L 2.6875 47.703125 
L 2.6875 54.6875 
L 9.28125 54.6875 
L 9.28125 70.21875 
z
" id="DejaVuSans-116"/>
      <path d="M 54.890625 33.015625 
L 54.890625 0 
L 45.90625 0 
L 45.90625 32.71875 
Q 45.90625 40.484375 42.875 44.328125 
Q 39.84375 48.1875 33.796875 48.1875 
Q 26.515625 48.1875 22.3125 43.546875 
Q 18.109375 38.921875 18.109375 30.90625 
L 18.109375 0 
L 9.078125 0 
L 9.078125 75.984375 
L 18.109375 75.984375 
L 18.109375 46.1875 
Q 21.34375 51.125 25.703125 53.5625 
Q 30.078125 56 35.796875 56 
Q 45.21875 56 50.046875 50.171875 
Q 54.890625 44.34375 54.890625 33.015625 
z
" id="DejaVuSans-104"/>
      <path d="M 41.109375 46.296875 
Q 39.59375 47.171875 37.8125 47.578125 
Q 36.03125 48 33.890625 48 
Q 26.265625 48 22.1875 43.046875 
Q 18.109375 38.09375 18.109375 28.8125 
L 18.109375 0 
L 9.078125 0 
L 9.078125 54.6875 
L 18.109375 54.6875 
L 18.109375 46.1875 
Q 20.953125 51.171875 25.484375 53.578125 
Q 30.03125 56 36.53125 56 
Q 37.453125 56 38.578125 55.875 
Q 39.703125 55.765625 41.0625 55.515625 
z
" id="DejaVuSans-114"/>
      <path d="M 56.203125 29.59375 
L 56.203125 25.203125 
L 14.890625 25.203125 
Q 15.484375 15.921875 20.484375 11.0625 
Q 25.484375 6.203125 34.421875 6.203125 
Q 39.59375 6.203125 44.453125 7.46875 
Q 49.3125 8.734375 54.109375 11.28125 
L 54.109375 2.78125 
Q 49.265625 0.734375 44.1875 -0.34375 
Q 39.109375 -1.421875 33.890625 -1.421875 
Q 20.796875 -1.421875 13.15625 6.1875 
Q 5.515625 13.8125 5.515625 26.8125 
Q 5.515625 40.234375 12.765625 48.109375 
Q 20.015625 56 32.328125 56 
Q 43.359375 56 49.78125 48.890625 
Q 56.203125 41.796875 56.203125 29.59375 
z
M 47.21875 32.234375 
Q 47.125 39.59375 43.09375 43.984375 
Q 39.0625 48.390625 32.421875 48.390625 
Q 24.90625 48.390625 20.390625 44.140625 
Q 15.875 39.890625 15.1875 32.171875 
z
" id="DejaVuSans-101"/>
      <path d="M 34.28125 27.484375 
Q 23.390625 27.484375 19.1875 25 
Q 14.984375 22.515625 14.984375 16.5 
Q 14.984375 11.71875 18.140625 8.90625 
Q 21.296875 6.109375 26.703125 6.109375 
Q 34.1875 6.109375 38.703125 11.40625 
Q 43.21875 16.703125 43.21875 25.484375 
L 43.21875 27.484375 
z
M 52.203125 31.203125 
L 52.203125 0 
L 43.21875 0 
L 43.21875 8.296875 
Q 40.140625 3.328125 35.546875 0.953125 
Q 30.953125 -1.421875 24.3125 -1.421875 
Q 15.921875 -1.421875 10.953125 3.296875 
Q 6 8.015625 6 15.921875 
Q 6 25.140625 12.171875 29.828125 
Q 18.359375 34.515625 30.609375 34.515625 
L 43.21875 34.515625 
L 43.21875 35.40625 
Q 43.21875 41.609375 39.140625 45 
Q 35.0625 48.390625 27.6875 48.390625 
Q 23 48.390625 18.546875 47.265625 
Q 14.109375 46.140625 10.015625 43.890625 
L 10.015625 52.203125 
Q 14.9375 54.109375 19.578125 55.046875 
Q 24.21875 56 28.609375 56 
Q 40.484375 56 46.34375 49.84375 
Q 52.203125 43.703125 52.203125 31.203125 
z
" id="DejaVuSans-97"/>
      <path d="M 45.40625 46.390625 
L 45.40625 75.984375 
L 54.390625 75.984375 
L 54.390625 0 
L 45.40625 0 
L 45.40625 8.203125 
Q 42.578125 3.328125 38.25 0.953125 
Q 33.9375 -1.421875 27.875 -1.421875 
Q 17.96875 -1.421875 11.734375 6.484375 
Q 5.515625 14.40625 5.515625 27.296875 
Q 5.515625 40.1875 11.734375 48.09375 
Q 17.96875 56 27.875 56 
Q 33.9375 56 38.25 53.625 
Q 42.578125 51.265625 45.40625 46.390625 
z
M 14.796875 27.296875 
Q 14.796875 17.390625 18.875 11.75 
Q 22.953125 6.109375 30.078125 6.109375 
Q 37.203125 6.109375 41.296875 11.75 
Q 45.40625 17.390625 45.40625 27.296875 
Q 45.40625 37.203125 41.296875 42.84375 
Q 37.203125 48.484375 30.078125 48.484375 
Q 22.953125 48.484375 18.875 42.84375 
Q 14.796875 37.203125 14.796875 27.296875 
z
" id="DejaVuSans-100"/>
      <path d="M 44.28125 53.078125 
L 44.28125 44.578125 
Q 40.484375 46.53125 36.375 47.5 
Q 32.28125 48.484375 27.875 48.484375 
Q 21.1875 48.484375 17.84375 46.4375 
Q 14.5 44.390625 14.5 40.28125 
Q 14.5 37.15625 16.890625 35.375 
Q 19.28125 33.59375 26.515625 31.984375 
L 29.59375 31.296875 
Q 39.15625 29.25 43.1875 25.515625 
Q 47.21875 21.78125 47.21875 15.09375 
Q 47.21875 7.46875 41.1875 3.015625 
Q 35.15625 -1.421875 24.609375 -1.421875 
Q 20.21875 -1.421875 15.453125 -0.5625 
Q 10.6875 0.296875 5.421875 2 
L 5.421875 11.28125 
Q 10.40625 8.6875 15.234375 7.390625 
Q 20.0625 6.109375 24.8125 6.109375 
Q 31.15625 6.109375 34.5625 8.28125 
Q 37.984375 10.453125 37.984375 14.40625 
Q 37.984375 18.0625 35.515625 20.015625 
Q 33.0625 21.96875 24.703125 23.78125 
L 21.578125 24.515625 
Q 13.234375 26.265625 9.515625 29.90625 
Q 5.8125 33.546875 5.8125 39.890625 
Q 5.8125 47.609375 11.28125 51.796875 
Q 16.75 56 26.8125 56 
Q 31.78125 56 36.171875 55.265625 
Q 40.578125 54.546875 44.28125 53.078125 
z
" id="DejaVuSans-115"/>
     </defs>
     <g transform="translate(217.168594 335.860562)scale(0.1 -0.1)">
      <use xlink:href="#DejaVuSans-116"/>
      <use x="39.208984" xlink:href="#DejaVuSans-104"/>
      <use x="102.587891" xlink:href="#DejaVuSans-114"/>
      <use x="141.451172" xlink:href="#DejaVuSans-101"/>
      <use x="202.974609" xlink:href="#DejaVuSans-97"/>
      <use x="264.253906" xlink:href="#DejaVuSans-100"/>
      <use x="327.730469" xlink:href="#DejaVuSans-115"/>
     </g>
    </g>
   </g>
   <g id="matplotlib.axis_2">
    <g id="ytick_1">
     <g id="line2d_47">
      <path clip-path="url(#p46bc8b6583)" d="M 57.6 302.731101 
L 414.72 302.731101 
" style="fill:none;stroke:#b0b0b0;stroke-dasharray:5.12,1.28,0.8,1.28;stroke-dashoffset:0;stroke-width:0.8;"/>
     </g>
     <g id="line2d_48">
      <defs>
       <path d="M 0 0 
L -3.5 0 
" id="mc1bc565757" style="stroke:#000000;stroke-width:0.8;"/>
      </defs>
      <g>
       <use style="stroke:#000000;stroke-width:0.8;" x="57.6" xlink:href="#mc1bc565757" y="302.731101"/>
      </g>
     </g>
     <g id="text_25">
      <!-- 0.5 -->
      <defs>
       <path d="M 10.6875 12.40625 
L 21 12.40625 
L 21 0 
L 10.6875 0 
z
" id="DejaVuSans-46"/>
      </defs>
      <g transform="translate(34.696875 306.53032)scale(0.1 -0.1)">
       <use xlink:href="#DejaVuSans-48"/>
       <use x="63.623047" xlink:href="#DejaVuSans-46"/>
       <use x="95.410156" xlink:href="#DejaVuSans-53"/>
      </g>
     </g>
    </g>
    <g id="ytick_2">
     <g id="line2d_49">
      <path clip-path="url(#p46bc8b6583)" d="M 57.6 254.993813 
L 414.72 254.993813 
" style="fill:none;stroke:#b0b0b0;stroke-dasharray:5.12,1.28,0.8,1.28;stroke-dashoffset:0;stroke-width:0.8;"/>
     </g>
     <g id="line2d_50">
      <g>
       <use style="stroke:#000000;stroke-width:0.8;" x="57.6" xlink:href="#mc1bc565757" y="254.993813"/>
      </g>
     </g>
     <g id="text_26">
      <!-- 1.0 -->
      <g transform="translate(34.696875 258.793032)scale(0.1 -0.1)">
       <use xlink:href="#DejaVuSans-49"/>
       <use x="63.623047" xlink:href="#DejaVuSans-46"/>
       <use x="95.410156" xlink:href="#DejaVuSans-48"/>
      </g>
     </g>
    </g>
    <g id="ytick_3">
     <g id="line2d_51">
      <path clip-path="url(#p46bc8b6583)" d="M 57.6 207.256526 
L 414.72 207.256526 
" style="fill:none;stroke:#b0b0b0;stroke-dasharray:5.12,1.28,0.8,1.28;stroke-dashoffset:0;stroke-width:0.8;"/>
     </g>
     <g id="line2d_52">
      <g>
       <use style="stroke:#000000;stroke-width:0.8;" x="57.6" xlink:href="#mc1bc565757" y="207.256526"/>
      </g>
     </g>
     <g id="text_27">
      <!-- 1.5 -->
      <g transform="translate(34.696875 211.055745)scale(0.1 -0.1)">
       <use xlink:href="#DejaVuSans-49"/>
       <use x="63.623047" xlink:href="#DejaVuSans-46"/>
       <use x="95.410156" xlink:href="#DejaVuSans-53"/>
      </g>
     </g>
    </g>
    <g id="ytick_4">
     <g id="line2d_53">
      <path clip-path="url(#p46bc8b6583)" d="M 57.6 159.519239 
L 414.72 159.519239 
" style="fill:none;stroke:#b0b0b0;stroke-dasharray:5.12,1.28,0.8,1.28;stroke-dashoffset:0;stroke-width:0.8;"/>
     </g>
     <g id="line2d_54">
      <g>
       <use style="stroke:#000000;stroke-width:0.8;" x="57.6" xlink:href="#mc1bc565757" y="159.519239"/>
      </g>
     </g>
     <g id="text_28">
      <!-- 2.0 -->
      <g transform="translate(34.696875 163.318457)scale(0.1 -0.1)">
       <use xlink:href="#DejaVuSans-50"/>
       <use x="63.623047" xlink:href="#DejaVuSans-46"/>
       <use x="95.410156" xlink:href="#DejaVuSans-48"/>
      </g>
     </g>
    </g>
    <g id="ytick_5">
     <g id="line2d_55">
      <path clip-path="url(#p46bc8b6583)" d="M 57.6 111.781951 
L 414.72 111.781951 
" style="fill:none;stroke:#b0b0b0;stroke-dasharray:5.12,1.28,0.8,1.28;stroke-dashoffset:0;stroke-width:0.8;"/>
     </g>
     <g id="line2d_56">
      <g>
       <use style="stroke:#000000;stroke-width:0.8;" x="57.6" xlink:href="#mc1bc565757" y="111.781951"/>
      </g>
     </g>
     <g id="text_29">
      <!-- 2.5 -->
      <g transform="translate(34.696875 115.58117)scale(0.1 -0.1)">
       <use xlink:href="#DejaVuSans-50"/>
       <use x="63.623047" xlink:href="#DejaVuSans-46"/>
       <use x="95.410156" xlink:href="#DejaVuSans-53"/>
      </g>
     </g>
    </g>
    <g id="ytick_6">
     <g id="line2d_57">
      <path clip-path="url(#p46bc8b6583)" d="M 57.6 64.044664 
L 414.72 64.044664 
" style="fill:none;stroke:#b0b0b0;stroke-dasharray:5.12,1.28,0.8,1.28;stroke-dashoffset:0;stroke-width:0.8;"/>
     </g>
     <g id="line2d_58">
      <g>
       <use style="stroke:#000000;stroke-width:0.8;" x="57.6" xlink:href="#mc1bc565757" y="64.044664"/>
      </g>
     </g>
     <g id="text_30">
      <!-- 3.0 -->
      <g transform="translate(34.696875 67.843883)scale(0.1 -0.1)">
       <use xlink:href="#DejaVuSans-51"/>
       <use x="63.623047" xlink:href="#DejaVuSans-46"/>
       <use x="95.410156" xlink:href="#DejaVuSans-48"/>
      </g>
     </g>
    </g>
    <g id="text_31">
     <!-- speed up -->
     <defs>
      <path d="M 18.109375 8.203125 
L 18.109375 -20.796875 
L 9.078125 -20.796875 
L 9.078125 54.6875 
L 18.109375 54.6875 
L 18.109375 46.390625 
Q 20.953125 51.265625 25.265625 53.625 
Q 29.59375 56 35.59375 56 
Q 45.5625 56 51.78125 48.09375 
Q 58.015625 40.1875 58.015625 27.296875 
Q 58.015625 14.40625 51.78125 6.484375 
Q 45.5625 -1.421875 35.59375 -1.421875 
Q 29.59375 -1.421875 25.265625 0.953125 
Q 20.953125 3.328125 18.109375 8.203125 
z
M 48.6875 27.296875 
Q 48.6875 37.203125 44.609375 42.84375 
Q 40.53125 48.484375 33.40625 48.484375 
Q 26.265625 48.484375 22.1875 42.84375 
Q 18.109375 37.203125 18.109375 27.296875 
Q 18.109375 17.390625 22.1875 11.75 
Q 26.265625 6.109375 33.40625 6.109375 
Q 40.53125 6.109375 44.609375 11.75 
Q 48.6875 17.390625 48.6875 27.296875 
z
" id="DejaVuSans-112"/>
      <path id="DejaVuSans-32"/>
      <path d="M 8.5 21.578125 
L 8.5 54.6875 
L 17.484375 54.6875 
L 17.484375 21.921875 
Q 17.484375 14.15625 20.5 10.265625 
Q 23.53125 6.390625 29.59375 6.390625 
Q 36.859375 6.390625 41.078125 11.03125 
Q 45.3125 15.671875 45.3125 23.6875 
L 45.3125 54.6875 
L 54.296875 54.6875 
L 54.296875 0 
L 45.3125 0 
L 45.3125 8.40625 
Q 42.046875 3.421875 37.71875 1 
Q 33.40625 -1.421875 27.6875 -1.421875 
Q 18.265625 -1.421875 13.375 4.4375 
Q 8.5 10.296875 8.5 21.578125 
z
M 31.109375 56 
z
" id="DejaVuSans-117"/>
     </defs>
     <g transform="translate(28.617187 197.566281)rotate(-90)scale(0.1 -0.1)">
      <use xlink:href="#DejaVuSans-115"/>
      <use x="52.099609" xlink:href="#DejaVuSans-112"/>
      <use x="115.576172" xlink:href="#DejaVuSans-101"/>
      <use x="177.099609" xlink:href="#DejaVuSans-101"/>
      <use x="238.623047" xlink:href="#DejaVuSans-100"/>
      <use x="302.099609" xlink:href="#DejaVuSans-32"/>
      <use x="333.886719" xlink:href="#DejaVuSans-117"/>
      <use x="397.265625" xlink:href="#DejaVuSans-112"/>
     </g>
    </g>
   </g>
   <g id="line2d_59">
    <path clip-path="url(#p46bc8b6583)" d="M 61.612584 295.488 
L 65.625169 255.79451 
L 69.637753 228.107738 
L 73.650337 202.85478 
L 77.662921 182.410169 
L 81.675506 161.827628 
L 85.68809 150.095497 
L 89.700674 132.856056 
L 93.713258 120.692528 
L 97.725843 107.843927 
L 101.738427 97.173383 
L 105.751011 89.757432 
L 109.763596 81.460377 
L 113.77618 75.884025 
L 117.788764 72.835712 
L 121.801348 72.590054 
L 125.813933 67.945548 
L 129.826517 66.764303 
L 133.839101 67.448403 
L 137.851685 63.011166 
L 141.86427 60.431137 
L 145.876854 57.340555 
L 149.889438 59.017141 
L 153.902022 57.219875 
L 157.914607 57.126889 
L 161.927191 54.599963 
L 165.939775 54.159534 
L 169.95236 55.72114 
L 173.964944 56.265678 
L 177.977528 58.256412 
L 181.990112 56.229022 
L 186.002697 57.182108 
L 190.015281 55.71241 
L 194.027865 57.536169 
L 198.040449 62.623357 
L 202.053034 56.941188 
L 206.065618 57.405573 
L 210.078202 56.231336 
L 214.090787 53.618323 
L 218.103371 54.055512 
L 222.115955 55.547397 
L 226.128539 53.848629 
L 230.141124 54.376271 
L 234.153708 59.521802 
L 238.166292 53.568 
L 242.178876 55.407032 
L 246.191461 55.547599 
L 250.204045 55.659462 
L 254.216629 56.210414 
L 258.229213 58.280019 
L 262.241798 60.083603 
L 266.254382 58.40072 
L 270.266966 58.705968 
L 274.279551 59.201013 
L 278.292135 60.644703 
L 282.304719 64.508126 
L 286.317303 63.46737 
L 290.329888 62.228565 
L 294.342472 60.613766 
L 298.355056 60.941288 
L 302.36764 62.901836 
L 306.380225 64.326377 
L 310.392809 63.553561 
L 314.405393 64.033783 
L 318.417978 64.558133 
L 322.430562 62.706063 
L 326.443146 66.025437 
L 330.45573 65.518063 
L 334.468315 66.092249 
L 338.480899 67.580802 
L 342.493483 70.580914 
L 346.506067 68.26079 
L 350.518652 67.061613 
L 354.531236 67.462593 
L 358.54382 67.224341 
L 362.556404 69.373788 
L 366.568989 72.294304 
L 370.581573 69.832728 
L 374.594157 69.844438 
L 378.606742 67.391769 
L 382.619326 74.763151 
L 386.63191 74.623514 
L 390.644494 73.91223 
L 394.657079 73.358648 
L 398.669663 76.641237 
L 402.682247 75.703605 
L 406.694831 73.669008 
L 410.707416 75.872594 
" style="fill:none;stroke:#0000ff;stroke-dasharray:1.5,2.475;stroke-dashoffset:0;stroke-width:1.5;"/>
    <defs>
     <path d="M 0 1.5 
C 0.397805 1.5 0.77937 1.341951 1.06066 1.06066 
C 1.341951 0.77937 1.5 0.397805 1.5 0 
C 1.5 -0.397805 1.341951 -0.77937 1.06066 -1.06066 
C 0.77937 -1.341951 0.397805 -1.5 0 -1.5 
C -0.397805 -1.5 -0.77937 -1.341951 -1.06066 -1.06066 
C -1.341951 -0.77937 -1.5 -0.397805 -1.5 0 
C -1.5 0.397805 -1.341951 0.77937 -1.06066 1.06066 
C -0.77937 1.341951 -0.397805 1.5 0 1.5 
z
" id="md71d5f7592" style="stroke:#0000ff;"/>
    </defs>
    <g clip-path="url(#p46bc8b6583)">
     <use style="fill:#0000ff;stroke:#0000ff;" x="61.612584" xlink:href="#md71d5f7592" y="295.488"/>
     <use style="fill:#0000ff;stroke:#0000ff;" x="65.625169" xlink:href="#md71d5f7592" y="255.79451"/>
     <use style="fill:#0000ff;stroke:#0000ff;" x="69.637753" xlink:href="#md71d5f7592" y="228.107738"/>
     <use style="fill:#0000ff;stroke:#0000ff;" x="73.650337" xlink:href="#md71d5f7592" y="202.85478"/>
     <use style="fill:#0000ff;stroke:#0000ff;" x="77.662921" xlink:href="#md71d5f7592" y="182.410169"/>
     <use style="fill:#0000ff;stroke:#0000ff;" x="81.675506" xlink:href="#md71d5f7592" y="161.827628"/>
     <use style="fill:#0000ff;stroke:#0000ff;" x="85.68809" xlink:href="#md71d5f7592" y="150.095497"/>
     <use style="fill:#0000ff;stroke:#0000ff;" x="89.700674" xlink:href="#md71d5f7592" y="132.856056"/>
     <use style="fill:#0000ff;stroke:#0000ff;" x="93.713258" xlink:href="#md71d5f7592" y="120.692528"/>
     <use style="fill:#0000ff;stroke:#0000ff;" x="97.725843" xlink:href="#md71d5f7592" y="107.843927"/>
     <use style="fill:#0000ff;stroke:#0000ff;" x="101.738427" xlink:href="#md71d5f7592" y="97.173383"/>
     <use style="fill:#0000ff;stroke:#0000ff;" x="105.751011" xlink:href="#md71d5f7592" y="89.757432"/>
     <use style="fill:#0000ff;stroke:#0000ff;" x="109.763596" xlink:href="#md71d5f7592" y="81.460377"/>
     <use style="fill:#0000ff;stroke:#0000ff;" x="113.77618" xlink:href="#md71d5f7592" y="75.884025"/>
     <use style="fill:#0000ff;stroke:#0000ff;" x="117.788764" xlink:href="#md71d5f7592" y="72.835712"/>
     <use style="fill:#0000ff;stroke:#0000ff;" x="121.801348" xlink:href="#md71d5f7592" y="72.590054"/>
     <use style="fill:#0000ff;stroke:#0000ff;" x="125.813933" xlink:href="#md71d5f7592" y="67.945548"/>
     <use style="fill:#0000ff;stroke:#0000ff;" x="129.826517" xlink:href="#md71d5f7592" y="66.764303"/>
     <use style="fill:#0000ff;stroke:#0000ff;" x="133.839101" xlink:href="#md71d5f7592" y="67.448403"/>
     <use style="fill:#0000ff;stroke:#0000ff;" x="137.851685" xlink:href="#md71d5f7592" y="63.011166"/>
     <use style="fill:#0000ff;stroke:#0000ff;" x="141.86427" xlink:href="#md71d5f7592" y="60.431137"/>
     <use style="fill:#0000ff;stroke:#0000ff;" x="145.876854" xlink:href="#md71d5f7592" y="57.340555"/>
     <use style="fill:#0000ff;stroke:#0000ff;" x="149.889438" xlink:href="#md71d5f7592" y="59.017141"/>
     <use style="fill:#0000ff;stroke:#0000ff;" x="153.902022" xlink:href="#md71d5f7592" y="57.219875"/>
     <use style="fill:#0000ff;stroke:#0000ff;" x="157.914607" xlink:href="#md71d5f7592" y="57.126889"/>
     <use style="fill:#0000ff;stroke:#0000ff;" x="161.927191" xlink:href="#md71d5f7592" y="54.599963"/>
     <use style="fill:#0000ff;stroke:#0000ff;" x="165.939775" xlink:href="#md71d5f7592" y="54.159534"/>
     <use style="fill:#0000ff;stroke:#0000ff;" x="169.95236" xlink:href="#md71d5f7592" y="55.72114"/>
     <use style="fill:#0000ff;stroke:#0000ff;" x="173.964944" xlink:href="#md71d5f7592" y="56.265678"/>
     <use style="fill:#0000ff;stroke:#0000ff;" x="177.977528" xlink:href="#md71d5f7592" y="58.256412"/>
     <use style="fill:#0000ff;stroke:#0000ff;" x="181.990112" xlink:href="#md71d5f7592" y="56.229022"/>
     <use style="fill:#0000ff;stroke:#0000ff;" x="186.002697" xlink:href="#md71d5f7592" y="57.182108"/>
     <use style="fill:#0000ff;stroke:#0000ff;" x="190.015281" xlink:href="#md71d5f7592" y="55.71241"/>
     <use style="fill:#0000ff;stroke:#0000ff;" x="194.027865" xlink:href="#md71d5f7592" y="57.536169"/>
     <use style="fill:#0000ff;stroke:#0000ff;" x="198.040449" xlink:href="#md71d5f7592" y="62.623357"/>
     <use style="fill:#0000ff;stroke:#0000ff;" x="202.053034" xlink:href="#md71d5f7592" y="56.941188"/>
     <use style="fill:#0000ff;stroke:#0000ff;" x="206.065618" xlink:href="#md71d5f7592" y="57.405573"/>
     <use style="fill:#0000ff;stroke:#0000ff;" x="210.078202" xlink:href="#md71d5f7592" y="56.231336"/>
     <use style="fill:#0000ff;stroke:#0000ff;" x="214.090787" xlink:href="#md71d5f7592" y="53.618323"/>
     <use style="fill:#0000ff;stroke:#0000ff;" x="218.103371" xlink:href="#md71d5f7592" y="54.055512"/>
     <use style="fill:#0000ff;stroke:#0000ff;" x="222.115955" xlink:href="#md71d5f7592" y="55.547397"/>
     <use style="fill:#0000ff;stroke:#0000ff;" x="226.128539" xlink:href="#md71d5f7592" y="53.848629"/>
     <use style="fill:#0000ff;stroke:#0000ff;" x="230.141124" xlink:href="#md71d5f7592" y="54.376271"/>
     <use style="fill:#0000ff;stroke:#0000ff;" x="234.153708" xlink:href="#md71d5f7592" y="59.521802"/>
     <use style="fill:#0000ff;stroke:#0000ff;" x="238.166292" xlink:href="#md71d5f7592" y="53.568"/>
     <use style="fill:#0000ff;stroke:#0000ff;" x="242.178876" xlink:href="#md71d5f7592" y="55.407032"/>
     <use style="fill:#0000ff;stroke:#0000ff;" x="246.191461" xlink:href="#md71d5f7592" y="55.547599"/>
     <use style="fill:#0000ff;stroke:#0000ff;" x="250.204045" xlink:href="#md71d5f7592" y="55.659462"/>
     <use style="fill:#0000ff;stroke:#0000ff;" x="254.216629" xlink:href="#md71d5f7592" y="56.210414"/>
     <use style="fill:#0000ff;stroke:#0000ff;" x="258.229213" xlink:href="#md71d5f7592" y="58.280019"/>
     <use style="fill:#0000ff;stroke:#0000ff;" x="262.241798" xlink:href="#md71d5f7592" y="60.083603"/>
     <use style="fill:#0000ff;stroke:#0000ff;" x="266.254382" xlink:href="#md71d5f7592" y="58.40072"/>
     <use style="fill:#0000ff;stroke:#0000ff;" x="270.266966" xlink:href="#md71d5f7592" y="58.705968"/>
     <use style="fill:#0000ff;stroke:#0000ff;" x="274.279551" xlink:href="#md71d5f7592" y="59.201013"/>
     <use style="fill:#0000ff;stroke:#0000ff;" x="278.292135" xlink:href="#md71d5f7592" y="60.644703"/>
     <use style="fill:#0000ff;stroke:#0000ff;" x="282.304719" xlink:href="#md71d5f7592" y="64.508126"/>
     <use style="fill:#0000ff;stroke:#0000ff;" x="286.317303" xlink:href="#md71d5f7592" y="63.46737"/>
     <use style="fill:#0000ff;stroke:#0000ff;" x="290.329888" xlink:href="#md71d5f7592" y="62.228565"/>
     <use style="fill:#0000ff;stroke:#0000ff;" x="294.342472" xlink:href="#md71d5f7592" y="60.613766"/>
     <use style="fill:#0000ff;stroke:#0000ff;" x="298.355056" xlink:href="#md71d5f7592" y="60.941288"/>
     <use style="fill:#0000ff;stroke:#0000ff;" x="302.36764" xlink:href="#md71d5f7592" y="62.901836"/>
     <use style="fill:#0000ff;stroke:#0000ff;" x="306.380225" xlink:href="#md71d5f7592" y="64.326377"/>
     <use style="fill:#0000ff;stroke:#0000ff;" x="310.392809" xlink:href="#md71d5f7592" y="63.553561"/>
     <use style="fill:#0000ff;stroke:#0000ff;" x="314.405393" xlink:href="#md71d5f7592" y="64.033783"/>
     <use style="fill:#0000ff;stroke:#0000ff;" x="318.417978" xlink:href="#md71d5f7592" y="64.558133"/>
     <use style="fill:#0000ff;stroke:#0000ff;" x="322.430562" xlink:href="#md71d5f7592" y="62.706063"/>
     <use style="fill:#0000ff;stroke:#0000ff;" x="326.443146" xlink:href="#md71d5f7592" y="66.025437"/>
     <use style="fill:#0000ff;stroke:#0000ff;" x="330.45573" xlink:href="#md71d5f7592" y="65.518063"/>
     <use style="fill:#0000ff;stroke:#0000ff;" x="334.468315" xlink:href="#md71d5f7592" y="66.092249"/>
     <use style="fill:#0000ff;stroke:#0000ff;" x="338.480899" xlink:href="#md71d5f7592" y="67.580802"/>
     <use style="fill:#0000ff;stroke:#0000ff;" x="342.493483" xlink:href="#md71d5f7592" y="70.580914"/>
     <use style="fill:#0000ff;stroke:#0000ff;" x="346.506067" xlink:href="#md71d5f7592" y="68.26079"/>
     <use style="fill:#0000ff;stroke:#0000ff;" x="350.518652" xlink:href="#md71d5f7592" y="67.061613"/>
     <use style="fill:#0000ff;stroke:#0000ff;" x="354.531236" xlink:href="#md71d5f7592" y="67.462593"/>
     <use style="fill:#0000ff;stroke:#0000ff;" x="358.54382" xlink:href="#md71d5f7592" y="67.224341"/>
     <use style="fill:#0000ff;stroke:#0000ff;" x="362.556404" xlink:href="#md71d5f7592" y="69.373788"/>
     <use style="fill:#0000ff;stroke:#0000ff;" x="366.568989" xlink:href="#md71d5f7592" y="72.294304"/>
     <use style="fill:#0000ff;stroke:#0000ff;" x="370.581573" xlink:href="#md71d5f7592" y="69.832728"/>
     <use style="fill:#0000ff;stroke:#0000ff;" x="374.594157" xlink:href="#md71d5f7592" y="69.844438"/>
     <use style="fill:#0000ff;stroke:#0000ff;" x="378.606742" xlink:href="#md71d5f7592" y="67.391769"/>
     <use style="fill:#0000ff;stroke:#0000ff;" x="382.619326" xlink:href="#md71d5f7592" y="74.763151"/>
     <use style="fill:#0000ff;stroke:#0000ff;" x="386.63191" xlink:href="#md71d5f7592" y="74.623514"/>
     <use style="fill:#0000ff;stroke:#0000ff;" x="390.644494" xlink:href="#md71d5f7592" y="73.91223"/>
     <use style="fill:#0000ff;stroke:#0000ff;" x="394.657079" xlink:href="#md71d5f7592" y="73.358648"/>
     <use style="fill:#0000ff;stroke:#0000ff;" x="398.669663" xlink:href="#md71d5f7592" y="76.641237"/>
     <use style="fill:#0000ff;stroke:#0000ff;" x="402.682247" xlink:href="#md71d5f7592" y="75.703605"/>
     <use style="fill:#0000ff;stroke:#0000ff;" x="406.694831" xlink:href="#md71d5f7592" y="73.669008"/>
     <use style="fill:#0000ff;stroke:#0000ff;" x="410.707416" xlink:href="#md71d5f7592" y="75.872594"/>
    </g>
   </g>
   <g id="line2d_60">
    <path clip-path="url(#p46bc8b6583)" d="M 61.612584 290.067915 
L 65.625169 247.077675 
L 69.637753 219.695778 
L 73.650337 194.521284 
L 77.662921 174.084319 
L 81.675506 160.723625 
L 85.68809 147.993984 
L 89.700674 135.782059 
L 93.713258 126.946292 
L 97.725843 118.951455 
L 101.738427 112.884717 
L 105.751011 109.253669 
L 109.763596 104.102132 
L 113.77618 99.834332 
L 117.788764 100.014108 
L 121.801348 99.389922 
L 125.813933 101.697142 
L 129.826517 97.21955 
L 133.839101 98.365139 
L 137.851685 96.735712 
L 141.86427 95.841296 
L 145.876854 95.641049 
L 149.889438 98.010177 
L 153.902022 99.152279 
L 157.914607 97.964404 
L 161.927191 96.938277 
L 165.939775 99.324438 
L 169.95236 97.384054 
L 173.964944 98.270824 
L 177.977528 101.768235 
L 181.990112 100.886388 
L 186.002697 100.206191 
L 190.015281 101.180967 
L 194.027865 105.88101 
L 198.040449 102.965327 
L 202.053034 102.915943 
L 206.065618 103.46219 
L 210.078202 104.862007 
L 214.090787 102.347232 
L 218.103371 100.958361 
L 222.115955 107.569124 
L 226.128539 105.645636 
L 230.141124 105.107466 
L 234.153708 111.197301 
L 238.166292 108.853383 
L 242.178876 109.544962 
L 246.191461 108.435587 
L 250.204045 109.10301 
L 254.216629 110.977747 
L 258.229213 111.987696 
L 262.241798 109.924213 
L 266.254382 112.485652 
L 270.266966 111.871739 
L 274.279551 109.896919 
L 278.292135 113.620777 
L 282.304719 113.012685 
L 286.317303 112.87621 
L 290.329888 114.886856 
L 294.342472 111.161664 
L 298.355056 113.841879 
L 302.36764 113.512122 
L 306.380225 114.720943 
L 310.392809 113.563604 
L 314.405393 113.849539 
L 318.417978 115.899496 
L 322.430562 111.854813 
L 326.443146 114.069036 
L 330.45573 113.85838 
L 334.468315 115.773715 
L 338.480899 116.468467 
L 342.493483 116.680491 
L 346.506067 117.459626 
L 350.518652 116.423819 
L 354.531236 116.419226 
L 358.54382 118.885517 
L 362.556404 116.779688 
L 366.568989 118.677863 
L 370.581573 117.842754 
L 374.594157 119.533196 
L 378.606742 118.475649 
L 382.619326 122.340466 
L 386.63191 118.986656 
L 390.644494 122.514595 
L 394.657079 119.014462 
L 398.669663 121.780117 
L 402.682247 118.871227 
L 406.694831 120.242493 
L 410.707416 121.806637 
" style="fill:none;stroke:#ff0000;stroke-dasharray:1.5,2.475;stroke-dashoffset:0;stroke-width:1.5;"/>
    <defs>
     <path d="M 0 1.5 
C 0.397805 1.5 0.77937 1.341951 1.06066 1.06066 
C 1.341951 0.77937 1.5 0.397805 1.5 0 
C 1.5 -0.397805 1.341951 -0.77937 1.06066 -1.06066 
C 0.77937 -1.341951 0.397805 -1.5 0 -1.5 
C -0.397805 -1.5 -0.77937 -1.341951 -1.06066 -1.06066 
C -1.341951 -0.77937 -1.5 -0.397805 -1.5 0 
C -1.5 0.397805 -1.341951 0.77937 -1.06066 1.06066 
C -0.77937 1.341951 -0.397805 1.5 0 1.5 
z
" id="md7f6a64450" style="stroke:#ff0000;"/>
    </defs>
    <g clip-path="url(#p46bc8b6583)">
     <use style="fill:#ff0000;stroke:#ff0000;" x="61.612584" xlink:href="#md7f6a64450" y="290.067915"/>
     <use style="fill:#ff0000;stroke:#ff0000;" x="65.625169" xlink:href="#md7f6a64450" y="247.077675"/>
     <use style="fill:#ff0000;stroke:#ff0000;" x="69.637753" xlink:href="#md7f6a64450" y="219.695778"/>
     <use style="fill:#ff0000;stroke:#ff0000;" x="73.650337" xlink:href="#md7f6a64450" y="194.521284"/>
     <use style="fill:#ff0000;stroke:#ff0000;" x="77.662921" xlink:href="#md7f6a64450" y="174.084319"/>
     <use style="fill:#ff0000;stroke:#ff0000;" x="81.675506" xlink:href="#md7f6a64450" y="160.723625"/>
     <use style="fill:#ff0000;stroke:#ff0000;" x="85.68809" xlink:href="#md7f6a64450" y="147.993984"/>
     <use style="fill:#ff0000;stroke:#ff0000;" x="89.700674" xlink:href="#md7f6a64450" y="135.782059"/>
     <use style="fill:#ff0000;stroke:#ff0000;" x="93.713258" xlink:href="#md7f6a64450" y="126.946292"/>
     <use style="fill:#ff0000;stroke:#ff0000;" x="97.725843" xlink:href="#md7f6a64450" y="118.951455"/>
     <use style="fill:#ff0000;stroke:#ff0000;" x="101.738427" xlink:href="#md7f6a64450" y="112.884717"/>
     <use style="fill:#ff0000;stroke:#ff0000;" x="105.751011" xlink:href="#md7f6a64450" y="109.253669"/>
     <use style="fill:#ff0000;stroke:#ff0000;" x="109.763596" xlink:href="#md7f6a64450" y="104.102132"/>
     <use style="fill:#ff0000;stroke:#ff0000;" x="113.77618" xlink:href="#md7f6a64450" y="99.834332"/>
     <use style="fill:#ff0000;stroke:#ff0000;" x="117.788764" xlink:href="#md7f6a64450" y="100.014108"/>
     <use style="fill:#ff0000;stroke:#ff0000;" x="121.801348" xlink:href="#md7f6a64450" y="99.389922"/>
     <use style="fill:#ff0000;stroke:#ff0000;" x="125.813933" xlink:href="#md7f6a64450" y="101.697142"/>
     <use style="fill:#ff0000;stroke:#ff0000;" x="129.826517" xlink:href="#md7f6a64450" y="97.21955"/>
     <use style="fill:#ff0000;stroke:#ff0000;" x="133.839101" xlink:href="#md7f6a64450" y="98.365139"/>
     <use style="fill:#ff0000;stroke:#ff0000;" x="137.851685" xlink:href="#md7f6a64450" y="96.735712"/>
     <use style="fill:#ff0000;stroke:#ff0000;" x="141.86427" xlink:href="#md7f6a64450" y="95.841296"/>
     <use style="fill:#ff0000;stroke:#ff0000;" x="145.876854" xlink:href="#md7f6a64450" y="95.641049"/>
     <use style="fill:#ff0000;stroke:#ff0000;" x="149.889438" xlink:href="#md7f6a64450" y="98.010177"/>
     <use style="fill:#ff0000;stroke:#ff0000;" x="153.902022" xlink:href="#md7f6a64450" y="99.152279"/>
     <use style="fill:#ff0000;stroke:#ff0000;" x="157.914607" xlink:href="#md7f6a64450" y="97.964404"/>
     <use style="fill:#ff0000;stroke:#ff0000;" x="161.927191" xlink:href="#md7f6a64450" y="96.938277"/>
     <use style="fill:#ff0000;stroke:#ff0000;" x="165.939775" xlink:href="#md7f6a64450" y="99.324438"/>
     <use style="fill:#ff0000;stroke:#ff0000;" x="169.95236" xlink:href="#md7f6a64450" y="97.384054"/>
     <use style="fill:#ff0000;stroke:#ff0000;" x="173.964944" xlink:href="#md7f6a64450" y="98.270824"/>
     <use style="fill:#ff0000;stroke:#ff0000;" x="177.977528" xlink:href="#md7f6a64450" y="101.768235"/>
     <use style="fill:#ff0000;stroke:#ff0000;" x="181.990112" xlink:href="#md7f6a64450" y="100.886388"/>
     <use style="fill:#ff0000;stroke:#ff0000;" x="186.002697" xlink:href="#md7f6a64450" y="100.206191"/>
     <use style="fill:#ff0000;stroke:#ff0000;" x="190.015281" xlink:href="#md7f6a64450" y="101.180967"/>
     <use style="fill:#ff0000;stroke:#ff0000;" x="194.027865" xlink:href="#md7f6a64450" y="105.88101"/>
     <use style="fill:#ff0000;stroke:#ff0000;" x="198.040449" xlink:href="#md7f6a64450" y="102.965327"/>
     <use style="fill:#ff0000;stroke:#ff0000;" x="202.053034" xlink:href="#md7f6a64450" y="102.915943"/>
     <use style="fill:#ff0000;stroke:#ff0000;" x="206.065618" xlink:href="#md7f6a64450" y="103.46219"/>
     <use style="fill:#ff0000;stroke:#ff0000;" x="210.078202" xlink:href="#md7f6a64450" y="104.862007"/>
     <use style="fill:#ff0000;stroke:#ff0000;" x="214.090787" xlink:href="#md7f6a64450" y="102.347232"/>
     <use style="fill:#ff0000;stroke:#ff0000;" x="218.103371" xlink:href="#md7f6a64450" y="100.958361"/>
     <use style="fill:#ff0000;stroke:#ff0000;" x="222.115955" xlink:href="#md7f6a64450" y="107.569124"/>
     <use style="fill:#ff0000;stroke:#ff0000;" x="226.128539" xlink:href="#md7f6a64450" y="105.645636"/>
     <use style="fill:#ff0000;stroke:#ff0000;" x="230.141124" xlink:href="#md7f6a64450" y="105.107466"/>
     <use style="fill:#ff0000;stroke:#ff0000;" x="234.153708" xlink:href="#md7f6a64450" y="111.197301"/>
     <use style="fill:#ff0000;stroke:#ff0000;" x="238.166292" xlink:href="#md7f6a64450" y="108.853383"/>
     <use style="fill:#ff0000;stroke:#ff0000;" x="242.178876" xlink:href="#md7f6a64450" y="109.544962"/>
     <use style="fill:#ff0000;stroke:#ff0000;" x="246.191461" xlink:href="#md7f6a64450" y="108.435587"/>
     <use style="fill:#ff0000;stroke:#ff0000;" x="250.204045" xlink:href="#md7f6a64450" y="109.10301"/>
     <use style="fill:#ff0000;stroke:#ff0000;" x="254.216629" xlink:href="#md7f6a64450" y="110.977747"/>
     <use style="fill:#ff0000;stroke:#ff0000;" x="258.229213" xlink:href="#md7f6a64450" y="111.987696"/>
     <use style="fill:#ff0000;stroke:#ff0000;" x="262.241798" xlink:href="#md7f6a64450" y="109.924213"/>
     <use style="fill:#ff0000;stroke:#ff0000;" x="266.254382" xlink:href="#md7f6a64450" y="112.485652"/>
     <use style="fill:#ff0000;stroke:#ff0000;" x="270.266966" xlink:href="#md7f6a64450" y="111.871739"/>
     <use style="fill:#ff0000;stroke:#ff0000;" x="274.279551" xlink:href="#md7f6a64450" y="109.896919"/>
     <use style="fill:#ff0000;stroke:#ff0000;" x="278.292135" xlink:href="#md7f6a64450" y="113.620777"/>
     <use style="fill:#ff0000;stroke:#ff0000;" x="282.304719" xlink:href="#md7f6a64450" y="113.012685"/>
     <use style="fill:#ff0000;stroke:#ff0000;" x="286.317303" xlink:href="#md7f6a64450" y="112.87621"/>
     <use style="fill:#ff0000;stroke:#ff0000;" x="290.329888" xlink:href="#md7f6a64450" y="114.886856"/>
     <use style="fill:#ff0000;stroke:#ff0000;" x="294.342472" xlink:href="#md7f6a64450" y="111.161664"/>
     <use style="fill:#ff0000;stroke:#ff0000;" x="298.355056" xlink:href="#md7f6a64450" y="113.841879"/>
     <use style="fill:#ff0000;stroke:#ff0000;" x="302.36764" xlink:href="#md7f6a64450" y="113.512122"/>
     <use style="fill:#ff0000;stroke:#ff0000;" x="306.380225" xlink:href="#md7f6a64450" y="114.720943"/>
     <use style="fill:#ff0000;stroke:#ff0000;" x="310.392809" xlink:href="#md7f6a64450" y="113.563604"/>
     <use style="fill:#ff0000;stroke:#ff0000;" x="314.405393" xlink:href="#md7f6a64450" y="113.849539"/>
     <use style="fill:#ff0000;stroke:#ff0000;" x="318.417978" xlink:href="#md7f6a64450" y="115.899496"/>
     <use style="fill:#ff0000;stroke:#ff0000;" x="322.430562" xlink:href="#md7f6a64450" y="111.854813"/>
     <use style="fill:#ff0000;stroke:#ff0000;" x="326.443146" xlink:href="#md7f6a64450" y="114.069036"/>
     <use style="fill:#ff0000;stroke:#ff0000;" x="330.45573" xlink:href="#md7f6a64450" y="113.85838"/>
     <use style="fill:#ff0000;stroke:#ff0000;" x="334.468315" xlink:href="#md7f6a64450" y="115.773715"/>
     <use style="fill:#ff0000;stroke:#ff0000;" x="338.480899" xlink:href="#md7f6a64450" y="116.468467"/>
     <use style="fill:#ff0000;stroke:#ff0000;" x="342.493483" xlink:href="#md7f6a64450" y="116.680491"/>
     <use style="fill:#ff0000;stroke:#ff0000;" x="346.506067" xlink:href="#md7f6a64450" y="117.459626"/>
     <use style="fill:#ff0000;stroke:#ff0000;" x="350.518652" xlink:href="#md7f6a64450" y="116.423819"/>
     <use style="fill:#ff0000;stroke:#ff0000;" x="354.531236" xlink:href="#md7f6a64450" y="116.419226"/>
     <use style="fill:#ff0000;stroke:#ff0000;" x="358.54382" xlink:href="#md7f6a64450" y="118.885517"/>
     <use style="fill:#ff0000;stroke:#ff0000;" x="362.556404" xlink:href="#md7f6a64450" y="116.779688"/>
     <use style="fill:#ff0000;stroke:#ff0000;" x="366.568989" xlink:href="#md7f6a64450" y="118.677863"/>
     <use style="fill:#ff0000;stroke:#ff0000;" x="370.581573" xlink:href="#md7f6a64450" y="117.842754"/>
     <use style="fill:#ff0000;stroke:#ff0000;" x="374.594157" xlink:href="#md7f6a64450" y="119.533196"/>
     <use style="fill:#ff0000;stroke:#ff0000;" x="378.606742" xlink:href="#md7f6a64450" y="118.475649"/>
     <use style="fill:#ff0000;stroke:#ff0000;" x="382.619326" xlink:href="#md7f6a64450" y="122.340466"/>
     <use style="fill:#ff0000;stroke:#ff0000;" x="386.63191" xlink:href="#md7f6a64450" y="118.986656"/>
     <use style="fill:#ff0000;stroke:#ff0000;" x="390.644494" xlink:href="#md7f6a64450" y="122.514595"/>
     <use style="fill:#ff0000;stroke:#ff0000;" x="394.657079" xlink:href="#md7f6a64450" y="119.014462"/>
     <use style="fill:#ff0000;stroke:#ff0000;" x="398.669663" xlink:href="#md7f6a64450" y="121.780117"/>
     <use style="fill:#ff0000;stroke:#ff0000;" x="402.682247" xlink:href="#md7f6a64450" y="118.871227"/>
     <use style="fill:#ff0000;stroke:#ff0000;" x="406.694831" xlink:href="#md7f6a64450" y="120.242493"/>
     <use style="fill:#ff0000;stroke:#ff0000;" x="410.707416" xlink:href="#md7f6a64450" y="121.806637"/>
    </g>
   </g>
   <g id="line2d_61">
    <path clip-path="url(#p46bc8b6583)" d="M 61.612584 292.777958 
L 65.625169 251.436093 
L 69.637753 223.901758 
L 73.650337 198.688032 
L 77.662921 178.247244 
L 81.675506 161.275626 
L 85.68809 149.04474 
L 89.700674 134.319057 
L 93.713258 123.81941 
L 97.725843 113.397691 
L 101.738427 105.02905 
L 105.751011 99.50555 
L 109.763596 92.781254 
L 113.77618 87.859179 
L 117.788764 86.42491 
L 121.801348 85.989988 
L 125.813933 84.821345 
L 129.826517 81.991927 
L 133.839101 82.906771 
L 137.851685 79.873439 
L 141.86427 78.136216 
L 145.876854 76.490802 
L 149.889438 78.513659 
L 153.902022 78.186077 
L 157.914607 77.545646 
L 161.927191 75.76912 
L 165.939775 76.741986 
L 169.95236 76.552597 
L 173.964944 77.268251 
L 177.977528 80.012324 
L 181.990112 78.557705 
L 186.002697 78.69415 
L 190.015281 78.446688 
L 194.027865 81.708589 
L 198.040449 82.794342 
L 202.053034 79.928566 
L 206.065618 80.433882 
L 210.078202 80.546671 
L 214.090787 77.982777 
L 218.103371 77.506937 
L 222.115955 81.55826 
L 226.128539 79.747133 
L 230.141124 79.741869 
L 234.153708 85.359551 
L 238.166292 81.210691 
L 242.178876 82.475997 
L 246.191461 81.991593 
L 250.204045 82.381236 
L 254.216629 83.594081 
L 258.229213 85.133857 
L 262.241798 85.003908 
L 266.254382 85.443186 
L 270.266966 85.288853 
L 274.279551 84.548966 
L 278.292135 87.13274 
L 282.304719 88.760405 
L 286.317303 88.17179 
L 290.329888 88.55771 
L 294.342472 85.887715 
L 298.355056 87.391583 
L 302.36764 88.206979 
L 306.380225 89.52366 
L 310.392809 88.558582 
L 314.405393 88.941661 
L 318.417978 90.228814 
L 322.430562 87.280438 
L 326.443146 90.047237 
L 330.45573 89.688222 
L 334.468315 90.932982 
L 338.480899 92.024635 
L 342.493483 93.630703 
L 346.506067 92.860208 
L 350.518652 91.742716 
L 354.531236 91.94091 
L 358.54382 93.054929 
L 362.556404 93.076738 
L 366.568989 95.486083 
L 370.581573 93.837741 
L 374.594157 94.688817 
L 378.606742 92.933709 
L 382.619326 98.551809 
L 386.63191 96.805085 
L 390.644494 98.213412 
L 394.657079 96.186555 
L 398.669663 99.210677 
L 402.682247 97.287416 
L 406.694831 96.955751 
L 410.707416 98.839616 
" style="fill:none;stroke:#008000;stroke-dasharray:1.5,2.475;stroke-dashoffset:0;stroke-width:1.5;"/>
    <defs>
     <path d="M 0 1.5 
C 0.397805 1.5 0.77937 1.341951 1.06066 1.06066 
C 1.341951 0.77937 1.5 0.397805 1.5 0 
C 1.5 -0.397805 1.341951 -0.77937 1.06066 -1.06066 
C 0.77937 -1.341951 0.397805 -1.5 0 -1.5 
C -0.397805 -1.5 -0.77937 -1.341951 -1.06066 -1.06066 
C -1.341951 -0.77937 -1.5 -0.397805 -1.5 0 
C -1.5 0.397805 -1.341951 0.77937 -1.06066 1.06066 
C -0.77937 1.341951 -0.397805 1.5 0 1.5 
z
" id="m8c817642ec" style="stroke:#008000;"/>
    </defs>
    <g clip-path="url(#p46bc8b6583)">
     <use style="fill:#008000;stroke:#008000;" x="61.612584" xlink:href="#m8c817642ec" y="292.777958"/>
     <use style="fill:#008000;stroke:#008000;" x="65.625169" xlink:href="#m8c817642ec" y="251.436093"/>
     <use style="fill:#008000;stroke:#008000;" x="69.637753" xlink:href="#m8c817642ec" y="223.901758"/>
     <use style="fill:#008000;stroke:#008000;" x="73.650337" xlink:href="#m8c817642ec" y="198.688032"/>
     <use style="fill:#008000;stroke:#008000;" x="77.662921" xlink:href="#m8c817642ec" y="178.247244"/>
     <use style="fill:#008000;stroke:#008000;" x="81.675506" xlink:href="#m8c817642ec" y="161.275626"/>
     <use style="fill:#008000;stroke:#008000;" x="85.68809" xlink:href="#m8c817642ec" y="149.04474"/>
     <use style="fill:#008000;stroke:#008000;" x="89.700674" xlink:href="#m8c817642ec" y="134.319057"/>
     <use style="fill:#008000;stroke:#008000;" x="93.713258" xlink:href="#m8c817642ec" y="123.81941"/>
     <use style="fill:#008000;stroke:#008000;" x="97.725843" xlink:href="#m8c817642ec" y="113.397691"/>
     <use style="fill:#008000;stroke:#008000;" x="101.738427" xlink:href="#m8c817642ec" y="105.02905"/>
     <use style="fill:#008000;stroke:#008000;" x="105.751011" xlink:href="#m8c817642ec" y="99.50555"/>
     <use style="fill:#008000;stroke:#008000;" x="109.763596" xlink:href="#m8c817642ec" y="92.781254"/>
     <use style="fill:#008000;stroke:#008000;" x="113.77618" xlink:href="#m8c817642ec" y="87.859179"/>
     <use style="fill:#008000;stroke:#008000;" x="117.788764" xlink:href="#m8c817642ec" y="86.42491"/>
     <use style="fill:#008000;stroke:#008000;" x="121.801348" xlink:href="#m8c817642ec" y="85.989988"/>
     <use style="fill:#008000;stroke:#008000;" x="125.813933" xlink:href="#m8c817642ec" y="84.821345"/>
     <use style="fill:#008000;stroke:#008000;" x="129.826517" xlink:href="#m8c817642ec" y="81.991927"/>
     <use style="fill:#008000;stroke:#008000;" x="133.839101" xlink:href="#m8c817642ec" y="82.906771"/>
     <use style="fill:#008000;stroke:#008000;" x="137.851685" xlink:href="#m8c817642ec" y="79.873439"/>
     <use style="fill:#008000;stroke:#008000;" x="141.86427" xlink:href="#m8c817642ec" y="78.136216"/>
     <use style="fill:#008000;stroke:#008000;" x="145.876854" xlink:href="#m8c817642ec" y="76.490802"/>
     <use style="fill:#008000;stroke:#008000;" x="149.889438" xlink:href="#m8c817642ec" y="78.513659"/>
     <use style="fill:#008000;stroke:#008000;" x="153.902022" xlink:href="#m8c817642ec" y="78.186077"/>
     <use style="fill:#008000;stroke:#008000;" x="157.914607" xlink:href="#m8c817642ec" y="77.545646"/>
     <use style="fill:#008000;stroke:#008000;" x="161.927191" xlink:href="#m8c817642ec" y="75.76912"/>
     <use style="fill:#008000;stroke:#008000;" x="165.939775" xlink:href="#m8c817642ec" y="76.741986"/>
     <use style="fill:#008000;stroke:#008000;" x="169.95236" xlink:href="#m8c817642ec" y="76.552597"/>
     <use style="fill:#008000;stroke:#008000;" x="173.964944" xlink:href="#m8c817642ec" y="77.268251"/>
     <use style="fill:#008000;stroke:#008000;" x="177.977528" xlink:href="#m8c817642ec" y="80.012324"/>
     <use style="fill:#008000;stroke:#008000;" x="181.990112" xlink:href="#m8c817642ec" y="78.557705"/>
     <use style="fill:#008000;stroke:#008000;" x="186.002697" xlink:href="#m8c817642ec" y="78.69415"/>
     <use style="fill:#008000;stroke:#008000;" x="190.015281" xlink:href="#m8c817642ec" y="78.446688"/>
     <use style="fill:#008000;stroke:#008000;" x="194.027865" xlink:href="#m8c817642ec" y="81.708589"/>
     <use style="fill:#008000;stroke:#008000;" x="198.040449" xlink:href="#m8c817642ec" y="82.794342"/>
     <use style="fill:#008000;stroke:#008000;" x="202.053034" xlink:href="#m8c817642ec" y="79.928566"/>
     <use style="fill:#008000;stroke:#008000;" x="206.065618" xlink:href="#m8c817642ec" y="80.433882"/>
     <use style="fill:#008000;stroke:#008000;" x="210.078202" xlink:href="#m8c817642ec" y="80.546671"/>
     <use style="fill:#008000;stroke:#008000;" x="214.090787" xlink:href="#m8c817642ec" y="77.982777"/>
     <use style="fill:#008000;stroke:#008000;" x="218.103371" xlink:href="#m8c817642ec" y="77.506937"/>
     <use style="fill:#008000;stroke:#008000;" x="222.115955" xlink:href="#m8c817642ec" y="81.55826"/>
     <use style="fill:#008000;stroke:#008000;" x="226.128539" xlink:href="#m8c817642ec" y="79.747133"/>
     <use style="fill:#008000;stroke:#008000;" x="230.141124" xlink:href="#m8c817642ec" y="79.741869"/>
     <use style="fill:#008000;stroke:#008000;" x="234.153708" xlink:href="#m8c817642ec" y="85.359551"/>
     <use style="fill:#008000;stroke:#008000;" x="238.166292" xlink:href="#m8c817642ec" y="81.210691"/>
     <use style="fill:#008000;stroke:#008000;" x="242.178876" xlink:href="#m8c817642ec" y="82.475997"/>
     <use style="fill:#008000;stroke:#008000;" x="246.191461" xlink:href="#m8c817642ec" y="81.991593"/>
     <use style="fill:#008000;stroke:#008000;" x="250.204045" xlink:href="#m8c817642ec" y="82.381236"/>
     <use style="fill:#008000;stroke:#008000;" x="254.216629" xlink:href="#m8c817642ec" y="83.594081"/>
     <use style="fill:#008000;stroke:#008000;" x="258.229213" xlink:href="#m8c817642ec" y="85.133857"/>
     <use style="fill:#008000;stroke:#008000;" x="262.241798" xlink:href="#m8c817642ec" y="85.003908"/>
     <use style="fill:#008000;stroke:#008000;" x="266.254382" xlink:href="#m8c817642ec" y="85.443186"/>
     <use style="fill:#008000;stroke:#008000;" x="270.266966" xlink:href="#m8c817642ec" y="85.288853"/>
     <use style="fill:#008000;stroke:#008000;" x="274.279551" xlink:href="#m8c817642ec" y="84.548966"/>
     <use style="fill:#008000;stroke:#008000;" x="278.292135" xlink:href="#m8c817642ec" y="87.13274"/>
     <use style="fill:#008000;stroke:#008000;" x="282.304719" xlink:href="#m8c817642ec" y="88.760405"/>
     <use style="fill:#008000;stroke:#008000;" x="286.317303" xlink:href="#m8c817642ec" y="88.17179"/>
     <use style="fill:#008000;stroke:#008000;" x="290.329888" xlink:href="#m8c817642ec" y="88.55771"/>
     <use style="fill:#008000;stroke:#008000;" x="294.342472" xlink:href="#m8c817642ec" y="85.887715"/>
     <use style="fill:#008000;stroke:#008000;" x="298.355056" xlink:href="#m8c817642ec" y="87.391583"/>
     <use style="fill:#008000;stroke:#008000;" x="302.36764" xlink:href="#m8c817642ec" y="88.206979"/>
     <use style="fill:#008000;stroke:#008000;" x="306.380225" xlink:href="#m8c817642ec" y="89.52366"/>
     <use style="fill:#008000;stroke:#008000;" x="310.392809" xlink:href="#m8c817642ec" y="88.558582"/>
     <use style="fill:#008000;stroke:#008000;" x="314.405393" xlink:href="#m8c817642ec" y="88.941661"/>
     <use style="fill:#008000;stroke:#008000;" x="318.417978" xlink:href="#m8c817642ec" y="90.228814"/>
     <use style="fill:#008000;stroke:#008000;" x="322.430562" xlink:href="#m8c817642ec" y="87.280438"/>
     <use style="fill:#008000;stroke:#008000;" x="326.443146" xlink:href="#m8c817642ec" y="90.047237"/>
     <use style="fill:#008000;stroke:#008000;" x="330.45573" xlink:href="#m8c817642ec" y="89.688222"/>
     <use style="fill:#008000;stroke:#008000;" x="334.468315" xlink:href="#m8c817642ec" y="90.932982"/>
     <use style="fill:#008000;stroke:#008000;" x="338.480899" xlink:href="#m8c817642ec" y="92.024635"/>
     <use style="fill:#008000;stroke:#008000;" x="342.493483" xlink:href="#m8c817642ec" y="93.630703"/>
     <use style="fill:#008000;stroke:#008000;" x="346.506067" xlink:href="#m8c817642ec" y="92.860208"/>
     <use style="fill:#008000;stroke:#008000;" x="350.518652" xlink:href="#m8c817642ec" y="91.742716"/>
     <use style="fill:#008000;stroke:#008000;" x="354.531236" xlink:href="#m8c817642ec" y="91.94091"/>
     <use style="fill:#008000;stroke:#008000;" x="358.54382" xlink:href="#m8c817642ec" y="93.054929"/>
     <use style="fill:#008000;stroke:#008000;" x="362.556404" xlink:href="#m8c817642ec" y="93.076738"/>
     <use style="fill:#008000;stroke:#008000;" x="366.568989" xlink:href="#m8c817642ec" y="95.486083"/>
     <use style="fill:#008000;stroke:#008000;" x="370.581573" xlink:href="#m8c817642ec" y="93.837741"/>
     <use style="fill:#008000;stroke:#008000;" x="374.594157" xlink:href="#m8c817642ec" y="94.688817"/>
     <use style="fill:#008000;stroke:#008000;" x="378.606742" xlink:href="#m8c817642ec" y="92.933709"/>
     <use style="fill:#008000;stroke:#008000;" x="382.619326" xlink:href="#m8c817642ec" y="98.551809"/>
     <use style="fill:#008000;stroke:#008000;" x="386.63191" xlink:href="#m8c817642ec" y="96.805085"/>
     <use style="fill:#008000;stroke:#008000;" x="390.644494" xlink:href="#m8c817642ec" y="98.213412"/>
     <use style="fill:#008000;stroke:#008000;" x="394.657079" xlink:href="#m8c817642ec" y="96.186555"/>
     <use style="fill:#008000;stroke:#008000;" x="398.669663" xlink:href="#m8c817642ec" y="99.210677"/>
     <use style="fill:#008000;stroke:#008000;" x="402.682247" xlink:href="#m8c817642ec" y="97.287416"/>
     <use style="fill:#008000;stroke:#008000;" x="406.694831" xlink:href="#m8c817642ec" y="96.955751"/>
     <use style="fill:#008000;stroke:#008000;" x="410.707416" xlink:href="#m8c817642ec" y="98.839616"/>
    </g>
   </g>
   <g id="patch_3">
    <path d="M 57.6 307.584 
L 57.6 41.472 
" style="fill:none;stroke:#000000;stroke-linecap:square;stroke-linejoin:miter;stroke-width:0.8;"/>
   </g>
   <g id="patch_4">
    <path d="M 414.72 307.584 
L 414.72 41.472 
" style="fill:none;stroke:#000000;stroke-linecap:square;stroke-linejoin:miter;stroke-width:0.8;"/>
   </g>
   <g id="patch_5">
    <path d="M 57.6 307.584 
L 414.72 307.584 
" style="fill:none;stroke:#000000;stroke-linecap:square;stroke-linejoin:miter;stroke-width:0.8;"/>
   </g>
   <g id="patch_6">
    <path d="M 57.6 41.472 
L 414.72 41.472 
" style="fill:none;stroke:#000000;stroke-linecap:square;stroke-linejoin:miter;stroke-width:0.8;"/>
   </g>
   <g id="text_32">
    <!-- tbb::parallel_sort 2PV on pre_transpose17 -->
    <defs>
     <path d="M 48.6875 27.296875 
Q 48.6875 37.203125 44.609375 42.84375 
Q 40.53125 48.484375 33.40625 48.484375 
Q 26.265625 48.484375 22.1875 42.84375 
Q 18.109375 37.203125 18.109375 27.296875 
Q 18.109375 17.390625 22.1875 11.75 
Q 26.265625 6.109375 33.40625 6.109375 
Q 40.53125 6.109375 44.609375 11.75 
Q 48.6875 17.390625 48.6875 27.296875 
z
M 18.109375 46.390625 
Q 20.953125 51.265625 25.265625 53.625 
Q 29.59375 56 35.59375 56 
Q 45.5625 56 51.78125 48.09375 
Q 58.015625 40.1875 58.015625 27.296875 
Q 58.015625 14.40625 51.78125 6.484375 
Q 45.5625 -1.421875 35.59375 -1.421875 
Q 29.59375 -1.421875 25.265625 0.953125 
Q 20.953125 3.328125 18.109375 8.203125 
L 18.109375 0 
L 9.078125 0 
L 9.078125 75.984375 
L 18.109375 75.984375 
z
" id="DejaVuSans-98"/>
     <path d="M 11.71875 12.40625 
L 22.015625 12.40625 
L 22.015625 0 
L 11.71875 0 
z
M 11.71875 51.703125 
L 22.015625 51.703125 
L 22.015625 39.3125 
L 11.71875 39.3125 
z
" id="DejaVuSans-58"/>
     <path d="M 9.421875 75.984375 
L 18.40625 75.984375 
L 18.40625 0 
L 9.421875 0 
z
" id="DejaVuSans-108"/>
     <path d="M 50.984375 -16.609375 
L 50.984375 -23.578125 
L -0.984375 -23.578125 
L -0.984375 -16.609375 
z
" id="DejaVuSans-95"/>
     <path d="M 30.609375 48.390625 
Q 23.390625 48.390625 19.1875 42.75 
Q 14.984375 37.109375 14.984375 27.296875 
Q 14.984375 17.484375 19.15625 11.84375 
Q 23.34375 6.203125 30.609375 6.203125 
Q 37.796875 6.203125 41.984375 11.859375 
Q 46.1875 17.53125 46.1875 27.296875 
Q 46.1875 37.015625 41.984375 42.703125 
Q 37.796875 48.390625 30.609375 48.390625 
z
M 30.609375 56 
Q 42.328125 56 49.015625 48.375 
Q 55.71875 40.765625 55.71875 27.296875 
Q 55.71875 13.875 49.015625 6.21875 
Q 42.328125 -1.421875 30.609375 -1.421875 
Q 18.84375 -1.421875 12.171875 6.21875 
Q 5.515625 13.875 5.515625 27.296875 
Q 5.515625 40.765625 12.171875 48.375 
Q 18.84375 56 30.609375 56 
z
" id="DejaVuSans-111"/>
     <path d="M 19.671875 64.796875 
L 19.671875 37.40625 
L 32.078125 37.40625 
Q 38.96875 37.40625 42.71875 40.96875 
Q 46.484375 44.53125 46.484375 51.125 
Q 46.484375 57.671875 42.71875 61.234375 
Q 38.96875 64.796875 32.078125 64.796875 
z
M 9.8125 72.90625 
L 32.078125 72.90625 
Q 44.34375 72.90625 50.609375 67.359375 
Q 56.890625 61.8125 56.890625 51.125 
Q 56.890625 40.328125 50.609375 34.8125 
Q 44.34375 29.296875 32.078125 29.296875 
L 19.671875 29.296875 
L 19.671875 0 
L 9.8125 0 
z
" id="DejaVuSans-80"/>
     <path d="M 28.609375 0 
L 0.78125 72.90625 
L 11.078125 72.90625 
L 34.1875 11.53125 
L 57.328125 72.90625 
L 67.578125 72.90625 
L 39.796875 0 
z
" id="DejaVuSans-86"/>
     <path d="M 54.890625 33.015625 
L 54.890625 0 
L 45.90625 0 
L 45.90625 32.71875 
Q 45.90625 40.484375 42.875 44.328125 
Q 39.84375 48.1875 33.796875 48.1875 
Q 26.515625 48.1875 22.3125 43.546875 
Q 18.109375 38.921875 18.109375 30.90625 
L 18.109375 0 
L 9.078125 0 
L 9.078125 54.6875 
L 18.109375 54.6875 
L 18.109375 46.1875 
Q 21.34375 51.125 25.703125 53.5625 
Q 30.078125 56 35.796875 56 
Q 45.21875 56 50.046875 50.171875 
Q 54.890625 44.34375 54.890625 33.015625 
z
" id="DejaVuSans-110"/>
    </defs>
    <g transform="translate(110.286563 35.472)scale(0.12 -0.12)">
     <use xlink:href="#DejaVuSans-116"/>
     <use x="39.208984" xlink:href="#DejaVuSans-98"/>
     <use x="102.685547" xlink:href="#DejaVuSans-98"/>
     <use x="166.162109" xlink:href="#DejaVuSans-58"/>
     <use x="199.853516" xlink:href="#DejaVuSans-58"/>
     <use x="233.544922" xlink:href="#DejaVuSans-112"/>
     <use x="297.021484" xlink:href="#DejaVuSans-97"/>
     <use x="358.300781" xlink:href="#DejaVuSans-114"/>
     <use x="399.414062" xlink:href="#DejaVuSans-97"/>
     <use x="460.693359" xlink:href="#DejaVuSans-108"/>
     <use x="488.476562" xlink:href="#DejaVuSans-108"/>
     <use x="516.259766" xlink:href="#DejaVuSans-101"/>
     <use x="577.783203" xlink:href="#DejaVuSans-108"/>
     <use x="605.566406" xlink:href="#DejaVuSans-95"/>
     <use x="655.566406" xlink:href="#DejaVuSans-115"/>
     <use x="707.666016" xlink:href="#DejaVuSans-111"/>
     <use x="768.847656" xlink:href="#DejaVuSans-114"/>
     <use x="809.960938" xlink:href="#DejaVuSans-116"/>
     <use x="849.169922" xlink:href="#DejaVuSans-32"/>
     <use x="880.957031" xlink:href="#DejaVuSans-50"/>
     <use x="944.580078" xlink:href="#DejaVuSans-80"/>
     <use x="1004.882812" xlink:href="#DejaVuSans-86"/>
     <use x="1073.291016" xlink:href="#DejaVuSans-32"/>
     <use x="1105.078125" xlink:href="#DejaVuSans-111"/>
     <use x="1166.259766" xlink:href="#DejaVuSans-110"/>
     <use x="1229.638672" xlink:href="#DejaVuSans-32"/>
     <use x="1261.425781" xlink:href="#DejaVuSans-112"/>
     <use x="1324.902344" xlink:href="#DejaVuSans-114"/>
     <use x="1363.765625" xlink:href="#DejaVuSans-101"/>
     <use x="1425.289062" xlink:href="#DejaVuSans-95"/>
     <use x="1475.289062" xlink:href="#DejaVuSans-116"/>
     <use x="1514.498047" xlink:href="#DejaVuSans-114"/>
     <use x="1555.611328" xlink:href="#DejaVuSans-97"/>
     <use x="1616.890625" xlink:href="#DejaVuSans-110"/>
     <use x="1680.269531" xlink:href="#DejaVuSans-115"/>
     <use x="1732.369141" xlink:href="#DejaVuSans-112"/>
     <use x="1795.845703" xlink:href="#DejaVuSans-111"/>
     <use x="1857.027344" xlink:href="#DejaVuSans-115"/>
     <use x="1909.126953" xlink:href="#DejaVuSans-101"/>
     <use x="1970.650391" xlink:href="#DejaVuSans-49"/>
     <use x="2034.273438" xlink:href="#DejaVuSans-55"/>
    </g>
   </g>
   <g id="legend_1">
    <g id="patch_7">
     <path d="M 313.152813 302.584 
L 407.72 302.584 
Q 409.72 302.584 409.72 300.584 
L 409.72 257.2715 
Q 409.72 255.2715 407.72 255.2715 
L 313.152813 255.2715 
Q 311.152813 255.2715 311.152813 257.2715 
L 311.152813 300.584 
Q 311.152813 302.584 313.152813 302.584 
z
" style="fill:#ffffff;opacity:0.8;stroke:#cccccc;stroke-linejoin:miter;"/>
    </g>
    <g id="line2d_62">
     <path d="M 315.152813 263.369937 
L 335.152813 263.369937 
" style="fill:none;stroke:#0000ff;stroke-dasharray:1.5,2.475;stroke-dashoffset:0;stroke-width:1.5;"/>
    </g>
    <g id="line2d_63">
     <g>
      <use style="fill:#0000ff;stroke:#0000ff;" x="325.152813" xlink:href="#md71d5f7592" y="263.369937"/>
     </g>
    </g>
    <g id="text_33">
     <!-- transpose -->
     <g transform="translate(343.152813 266.869937)scale(0.1 -0.1)">
      <use xlink:href="#DejaVuSans-116"/>
      <use x="39.208984" xlink:href="#DejaVuSans-114"/>
      <use x="80.322266" xlink:href="#DejaVuSans-97"/>
      <use x="141.601562" xlink:href="#DejaVuSans-110"/>
      <use x="204.980469" xlink:href="#DejaVuSans-115"/>
      <use x="257.080078" xlink:href="#DejaVuSans-112"/>
      <use x="320.556641" xlink:href="#DejaVuSans-111"/>
      <use x="381.738281" xlink:href="#DejaVuSans-115"/>
      <use x="433.837891" xlink:href="#DejaVuSans-101"/>
     </g>
    </g>
    <g id="line2d_64">
     <path d="M 315.152813 278.048063 
L 335.152813 278.048063 
" style="fill:none;stroke:#ff0000;stroke-dasharray:1.5,2.475;stroke-dashoffset:0;stroke-width:1.5;"/>
    </g>
    <g id="line2d_65">
     <g>
      <use style="fill:#ff0000;stroke:#ff0000;" x="325.152813" xlink:href="#md7f6a64450" y="278.048063"/>
     </g>
    </g>
    <g id="text_34">
     <!-- transpose_tr -->
     <g transform="translate(343.152813 281.548063)scale(0.1 -0.1)">
      <use xlink:href="#DejaVuSans-116"/>
      <use x="39.208984" xlink:href="#DejaVuSans-114"/>
      <use x="80.322266" xlink:href="#DejaVuSans-97"/>
      <use x="141.601562" xlink:href="#DejaVuSans-110"/>
      <use x="204.980469" xlink:href="#DejaVuSans-115"/>
      <use x="257.080078" xlink:href="#DejaVuSans-112"/>
      <use x="320.556641" xlink:href="#DejaVuSans-111"/>
      <use x="381.738281" xlink:href="#DejaVuSans-115"/>
      <use x="433.837891" xlink:href="#DejaVuSans-101"/>
      <use x="495.361328" xlink:href="#DejaVuSans-95"/>
      <use x="545.361328" xlink:href="#DejaVuSans-116"/>
      <use x="584.570312" xlink:href="#DejaVuSans-114"/>
     </g>
    </g>
    <g id="line2d_66">
     <path d="M 315.152813 293.004312 
L 335.152813 293.004312 
" style="fill:none;stroke:#008000;stroke-dasharray:1.5,2.475;stroke-dashoffset:0;stroke-width:1.5;"/>
    </g>
    <g id="line2d_67">
     <g>
      <use style="fill:#008000;stroke:#008000;" x="325.152813" xlink:href="#m8c817642ec" y="293.004312"/>
     </g>
    </g>
    <g id="text_35">
     <!-- mean -->
     <defs>
      <path d="M 52 44.1875 
Q 55.375 50.25 60.0625 53.125 
Q 64.75 56 71.09375 56 
Q 79.640625 56 84.28125 50.015625 
Q 88.921875 44.046875 88.921875 33.015625 
L 88.921875 0 
L 79.890625 0 
L 79.890625 32.71875 
Q 79.890625 40.578125 77.09375 44.375 
Q 74.3125 48.1875 68.609375 48.1875 
Q 61.625 48.1875 57.5625 43.546875 
Q 53.515625 38.921875 53.515625 30.90625 
L 53.515625 0 
L 44.484375 0 
L 44.484375 32.71875 
Q 44.484375 40.625 41.703125 44.40625 
Q 38.921875 48.1875 33.109375 48.1875 
Q 26.21875 48.1875 22.15625 43.53125 
Q 18.109375 38.875 18.109375 30.90625 
L 18.109375 0 
L 9.078125 0 
L 9.078125 54.6875 
L 18.109375 54.6875 
L 18.109375 46.1875 
Q 21.1875 51.21875 25.484375 53.609375 
Q 29.78125 56 35.6875 56 
Q 41.65625 56 45.828125 52.96875 
Q 50 49.953125 52 44.1875 
z
" id="DejaVuSans-109"/>
     </defs>
     <g transform="translate(343.152813 296.504312)scale(0.1 -0.1)">
      <use xlink:href="#DejaVuSans-109"/>
      <use x="97.412109" xlink:href="#DejaVuSans-101"/>
      <use x="158.935547" xlink:href="#DejaVuSans-97"/>
      <use x="220.214844" xlink:href="#DejaVuSans-110"/>
     </g>
    </g>
   </g>
  </g>
 </g>
 <defs>
  <clipPath id="p46bc8b6583">
   <rect height="266.112" width="357.12" x="57.6" y="41.472"/>
  </clipPath>
 </defs>
</svg>
