<?xml version="1.0" encoding="utf-8" standalone="no"?>
<!DOCTYPE svg PUBLIC "-//W3C//DTD SVG 1.1//EN"
  "http://www.w3.org/Graphics/SVG/1.1/DTD/svg11.dtd">
<!-- Created with matplotlib (https://matplotlib.org/) -->
<svg height="345.6pt" version="1.1" viewBox="0 0 460.8 345.6" width="460.8pt" xmlns="http://www.w3.org/2000/svg" xmlns:xlink="http://www.w3.org/1999/xlink">
 <metadata>
  <rdf:RDF xmlns:cc="http://creativecommons.org/ns#" xmlns:dc="http://purl.org/dc/elements/1.1/" xmlns:rdf="http://www.w3.org/1999/02/22-rdf-syntax-ns#">
   <cc:Work>
    <dc:type rdf:resource="http://purl.org/dc/dcmitype/StillImage"/>
    <dc:date>2020-08-18T15:18:04.660140</dc:date>
    <dc:format>image/svg+xml</dc:format>
    <dc:creator>
     <cc:Agent>
      <dc:title>Matplotlib v3.3.0, https://matplotlib.org/</dc:title>
     </cc:Agent>
    </dc:creator>
   </cc:Work>
  </rdf:RDF>
 </metadata>
 <defs>
  <style type="text/css">*{stroke-linecap:butt;stroke-linejoin:round;}</style>
 </defs>
 <g id="figure_1">
  <g id="patch_1">
   <path d="M 0 345.6 
L 460.8 345.6 
L 460.8 0 
L 0 0 
z
" style="fill:#ffffff;"/>
  </g>
  <g id="axes_1">
   <g id="patch_2">
    <path d="M 57.6 307.584 
L 414.72 307.584 
L 414.72 41.472 
L 57.6 41.472 
z
" style="fill:#ffffff;"/>
   </g>
   <g id="matplotlib.axis_1">
    <g id="xtick_1">
     <g id="line2d_1">
      <path clip-path="url(#p8e1d98587f)" d="M 61.612584 307.584 
L 61.612584 41.472 
" style="fill:none;stroke:#b0b0b0;stroke-dasharray:5.12,1.28,0.8,1.28;stroke-dashoffset:0;stroke-width:0.8;"/>
     </g>
     <g id="line2d_2">
      <defs>
       <path d="M 0 0 
L 0 3.5 
" id="ma8039ea71b" style="stroke:#000000;stroke-width:0.8;"/>
      </defs>
      <g>
       <use style="stroke:#000000;stroke-width:0.8;" x="61.612584" xlink:href="#ma8039ea71b" y="307.584"/>
      </g>
     </g>
     <g id="text_1">
      <!-- 1 -->
      <g transform="translate(58.431334 322.182437)scale(0.1 -0.1)">
       <defs>
        <path d="M 12.40625 8.296875 
L 28.515625 8.296875 
L 28.515625 63.921875 
L 10.984375 60.40625 
L 10.984375 69.390625 
L 28.421875 72.90625 
L 38.28125 72.90625 
L 38.28125 8.296875 
L 54.390625 8.296875 
L 54.390625 0 
L 12.40625 0 
z
" id="DejaVuSans-49"/>
       </defs>
       <use xlink:href="#DejaVuSans-49"/>
      </g>
     </g>
    </g>
    <g id="xtick_2">
     <g id="line2d_3">
      <path clip-path="url(#p8e1d98587f)" d="M 73.650337 307.584 
L 73.650337 41.472 
" style="fill:none;stroke:#b0b0b0;stroke-dasharray:5.12,1.28,0.8,1.28;stroke-dashoffset:0;stroke-width:0.8;"/>
     </g>
     <g id="line2d_4">
      <g>
       <use style="stroke:#000000;stroke-width:0.8;" x="73.650337" xlink:href="#ma8039ea71b" y="307.584"/>
      </g>
     </g>
     <g id="text_2">
      <!-- 4 -->
      <g transform="translate(70.469087 322.182437)scale(0.1 -0.1)">
       <defs>
        <path d="M 37.796875 64.3125 
L 12.890625 25.390625 
L 37.796875 25.390625 
z
M 35.203125 72.90625 
L 47.609375 72.90625 
L 47.609375 25.390625 
L 58.015625 25.390625 
L 58.015625 17.1875 
L 47.609375 17.1875 
L 47.609375 0 
L 37.796875 0 
L 37.796875 17.1875 
L 4.890625 17.1875 
L 4.890625 26.703125 
z
" id="DejaVuSans-52"/>
       </defs>
       <use xlink:href="#DejaVuSans-52"/>
      </g>
     </g>
    </g>
    <g id="xtick_3">
     <g id="line2d_5">
      <path clip-path="url(#p8e1d98587f)" d="M 89.700674 307.584 
L 89.700674 41.472 
" style="fill:none;stroke:#b0b0b0;stroke-dasharray:5.12,1.28,0.8,1.28;stroke-dashoffset:0;stroke-width:0.8;"/>
     </g>
     <g id="line2d_6">
      <g>
       <use style="stroke:#000000;stroke-width:0.8;" x="89.700674" xlink:href="#ma8039ea71b" y="307.584"/>
      </g>
     </g>
     <g id="text_3">
      <!-- 8 -->
      <g transform="translate(86.519424 322.182437)scale(0.1 -0.1)">
       <defs>
        <path d="M 31.78125 34.625 
Q 24.75 34.625 20.71875 30.859375 
Q 16.703125 27.09375 16.703125 20.515625 
Q 16.703125 13.921875 20.71875 10.15625 
Q 24.75 6.390625 31.78125 6.390625 
Q 38.8125 6.390625 42.859375 10.171875 
Q 46.921875 13.96875 46.921875 20.515625 
Q 46.921875 27.09375 42.890625 30.859375 
Q 38.875 34.625 31.78125 34.625 
z
M 21.921875 38.8125 
Q 15.578125 40.375 12.03125 44.71875 
Q 8.5 49.078125 8.5 55.328125 
Q 8.5 64.0625 14.71875 69.140625 
Q 20.953125 74.21875 31.78125 74.21875 
Q 42.671875 74.21875 48.875 69.140625 
Q 55.078125 64.0625 55.078125 55.328125 
Q 55.078125 49.078125 51.53125 44.71875 
Q 48 40.375 41.703125 38.8125 
Q 48.828125 37.15625 52.796875 32.3125 
Q 56.78125 27.484375 56.78125 20.515625 
Q 56.78125 9.90625 50.3125 4.234375 
Q 43.84375 -1.421875 31.78125 -1.421875 
Q 19.734375 -1.421875 13.25 4.234375 
Q 6.78125 9.90625 6.78125 20.515625 
Q 6.78125 27.484375 10.78125 32.3125 
Q 14.796875 37.15625 21.921875 38.8125 
z
M 18.3125 54.390625 
Q 18.3125 48.734375 21.84375 45.5625 
Q 25.390625 42.390625 31.78125 42.390625 
Q 38.140625 42.390625 41.71875 45.5625 
Q 45.3125 48.734375 45.3125 54.390625 
Q 45.3125 60.0625 41.71875 63.234375 
Q 38.140625 66.40625 31.78125 66.40625 
Q 25.390625 66.40625 21.84375 63.234375 
Q 18.3125 60.0625 18.3125 54.390625 
z
" id="DejaVuSans-56"/>
       </defs>
       <use xlink:href="#DejaVuSans-56"/>
      </g>
     </g>
    </g>
    <g id="xtick_4">
     <g id="line2d_7">
      <path clip-path="url(#p8e1d98587f)" d="M 105.751011 307.584 
L 105.751011 41.472 
" style="fill:none;stroke:#b0b0b0;stroke-dasharray:5.12,1.28,0.8,1.28;stroke-dashoffset:0;stroke-width:0.8;"/>
     </g>
     <g id="line2d_8">
      <g>
       <use style="stroke:#000000;stroke-width:0.8;" x="105.751011" xlink:href="#ma8039ea71b" y="307.584"/>
      </g>
     </g>
     <g id="text_4">
      <!-- 12 -->
      <g transform="translate(99.388511 322.182437)scale(0.1 -0.1)">
       <defs>
        <path d="M 19.1875 8.296875 
L 53.609375 8.296875 
L 53.609375 0 
L 7.328125 0 
L 7.328125 8.296875 
Q 12.9375 14.109375 22.625 23.890625 
Q 32.328125 33.6875 34.8125 36.53125 
Q 39.546875 41.84375 41.421875 45.53125 
Q 43.3125 49.21875 43.3125 52.78125 
Q 43.3125 58.59375 39.234375 62.25 
Q 35.15625 65.921875 28.609375 65.921875 
Q 23.96875 65.921875 18.8125 64.3125 
Q 13.671875 62.703125 7.8125 59.421875 
L 7.8125 69.390625 
Q 13.765625 71.78125 18.9375 73 
Q 24.125 74.21875 28.421875 74.21875 
Q 39.75 74.21875 46.484375 68.546875 
Q 53.21875 62.890625 53.21875 53.421875 
Q 53.21875 48.921875 51.53125 44.890625 
Q 49.859375 40.875 45.40625 35.40625 
Q 44.1875 33.984375 37.640625 27.21875 
Q 31.109375 20.453125 19.1875 8.296875 
z
" id="DejaVuSans-50"/>
       </defs>
       <use xlink:href="#DejaVuSans-49"/>
       <use x="63.623047" xlink:href="#DejaVuSans-50"/>
      </g>
     </g>
    </g>
    <g id="xtick_5">
     <g id="line2d_9">
      <path clip-path="url(#p8e1d98587f)" d="M 121.801348 307.584 
L 121.801348 41.472 
" style="fill:none;stroke:#b0b0b0;stroke-dasharray:5.12,1.28,0.8,1.28;stroke-dashoffset:0;stroke-width:0.8;"/>
     </g>
     <g id="line2d_10">
      <g>
       <use style="stroke:#000000;stroke-width:0.8;" x="121.801348" xlink:href="#ma8039ea71b" y="307.584"/>
      </g>
     </g>
     <g id="text_5">
      <!-- 16 -->
      <g transform="translate(115.438848 322.182437)scale(0.1 -0.1)">
       <defs>
        <path d="M 33.015625 40.375 
Q 26.375 40.375 22.484375 35.828125 
Q 18.609375 31.296875 18.609375 23.390625 
Q 18.609375 15.53125 22.484375 10.953125 
Q 26.375 6.390625 33.015625 6.390625 
Q 39.65625 6.390625 43.53125 10.953125 
Q 47.40625 15.53125 47.40625 23.390625 
Q 47.40625 31.296875 43.53125 35.828125 
Q 39.65625 40.375 33.015625 40.375 
z
M 52.59375 71.296875 
L 52.59375 62.3125 
Q 48.875 64.0625 45.09375 64.984375 
Q 41.3125 65.921875 37.59375 65.921875 
Q 27.828125 65.921875 22.671875 59.328125 
Q 17.53125 52.734375 16.796875 39.40625 
Q 19.671875 43.65625 24.015625 45.921875 
Q 28.375 48.1875 33.59375 48.1875 
Q 44.578125 48.1875 50.953125 41.515625 
Q 57.328125 34.859375 57.328125 23.390625 
Q 57.328125 12.15625 50.6875 5.359375 
Q 44.046875 -1.421875 33.015625 -1.421875 
Q 20.359375 -1.421875 13.671875 8.265625 
Q 6.984375 17.96875 6.984375 36.375 
Q 6.984375 53.65625 15.1875 63.9375 
Q 23.390625 74.21875 37.203125 74.21875 
Q 40.921875 74.21875 44.703125 73.484375 
Q 48.484375 72.75 52.59375 71.296875 
z
" id="DejaVuSans-54"/>
       </defs>
       <use xlink:href="#DejaVuSans-49"/>
       <use x="63.623047" xlink:href="#DejaVuSans-54"/>
      </g>
     </g>
    </g>
    <g id="xtick_6">
     <g id="line2d_11">
      <path clip-path="url(#p8e1d98587f)" d="M 137.851685 307.584 
L 137.851685 41.472 
" style="fill:none;stroke:#b0b0b0;stroke-dasharray:5.12,1.28,0.8,1.28;stroke-dashoffset:0;stroke-width:0.8;"/>
     </g>
     <g id="line2d_12">
      <g>
       <use style="stroke:#000000;stroke-width:0.8;" x="137.851685" xlink:href="#ma8039ea71b" y="307.584"/>
      </g>
     </g>
     <g id="text_6">
      <!-- 20 -->
      <g transform="translate(131.489185 322.182437)scale(0.1 -0.1)">
       <defs>
        <path d="M 31.78125 66.40625 
Q 24.171875 66.40625 20.328125 58.90625 
Q 16.5 51.421875 16.5 36.375 
Q 16.5 21.390625 20.328125 13.890625 
Q 24.171875 6.390625 31.78125 6.390625 
Q 39.453125 6.390625 43.28125 13.890625 
Q 47.125 21.390625 47.125 36.375 
Q 47.125 51.421875 43.28125 58.90625 
Q 39.453125 66.40625 31.78125 66.40625 
z
M 31.78125 74.21875 
Q 44.046875 74.21875 50.515625 64.515625 
Q 56.984375 54.828125 56.984375 36.375 
Q 56.984375 17.96875 50.515625 8.265625 
Q 44.046875 -1.421875 31.78125 -1.421875 
Q 19.53125 -1.421875 13.0625 8.265625 
Q 6.59375 17.96875 6.59375 36.375 
Q 6.59375 54.828125 13.0625 64.515625 
Q 19.53125 74.21875 31.78125 74.21875 
z
" id="DejaVuSans-48"/>
       </defs>
       <use xlink:href="#DejaVuSans-50"/>
       <use x="63.623047" xlink:href="#DejaVuSans-48"/>
      </g>
     </g>
    </g>
    <g id="xtick_7">
     <g id="line2d_13">
      <path clip-path="url(#p8e1d98587f)" d="M 153.902022 307.584 
L 153.902022 41.472 
" style="fill:none;stroke:#b0b0b0;stroke-dasharray:5.12,1.28,0.8,1.28;stroke-dashoffset:0;stroke-width:0.8;"/>
     </g>
     <g id="line2d_14">
      <g>
       <use style="stroke:#000000;stroke-width:0.8;" x="153.902022" xlink:href="#ma8039ea71b" y="307.584"/>
      </g>
     </g>
     <g id="text_7">
      <!-- 24 -->
      <g transform="translate(147.539522 322.182437)scale(0.1 -0.1)">
       <use xlink:href="#DejaVuSans-50"/>
       <use x="63.623047" xlink:href="#DejaVuSans-52"/>
      </g>
     </g>
    </g>
    <g id="xtick_8">
     <g id="line2d_15">
      <path clip-path="url(#p8e1d98587f)" d="M 169.95236 307.584 
L 169.95236 41.472 
" style="fill:none;stroke:#b0b0b0;stroke-dasharray:5.12,1.28,0.8,1.28;stroke-dashoffset:0;stroke-width:0.8;"/>
     </g>
     <g id="line2d_16">
      <g>
       <use style="stroke:#000000;stroke-width:0.8;" x="169.95236" xlink:href="#ma8039ea71b" y="307.584"/>
      </g>
     </g>
     <g id="text_8">
      <!-- 28 -->
      <g transform="translate(163.58986 322.182437)scale(0.1 -0.1)">
       <use xlink:href="#DejaVuSans-50"/>
       <use x="63.623047" xlink:href="#DejaVuSans-56"/>
      </g>
     </g>
    </g>
    <g id="xtick_9">
     <g id="line2d_17">
      <path clip-path="url(#p8e1d98587f)" d="M 186.002697 307.584 
L 186.002697 41.472 
" style="fill:none;stroke:#b0b0b0;stroke-dasharray:5.12,1.28,0.8,1.28;stroke-dashoffset:0;stroke-width:0.8;"/>
     </g>
     <g id="line2d_18">
      <g>
       <use style="stroke:#000000;stroke-width:0.8;" x="186.002697" xlink:href="#ma8039ea71b" y="307.584"/>
      </g>
     </g>
     <g id="text_9">
      <!-- 32 -->
      <g transform="translate(179.640197 322.182437)scale(0.1 -0.1)">
       <defs>
        <path d="M 40.578125 39.3125 
Q 47.65625 37.796875 51.625 33 
Q 55.609375 28.21875 55.609375 21.1875 
Q 55.609375 10.40625 48.1875 4.484375 
Q 40.765625 -1.421875 27.09375 -1.421875 
Q 22.515625 -1.421875 17.65625 -0.515625 
Q 12.796875 0.390625 7.625 2.203125 
L 7.625 11.71875 
Q 11.71875 9.328125 16.59375 8.109375 
Q 21.484375 6.890625 26.8125 6.890625 
Q 36.078125 6.890625 40.9375 10.546875 
Q 45.796875 14.203125 45.796875 21.1875 
Q 45.796875 27.640625 41.28125 31.265625 
Q 36.765625 34.90625 28.71875 34.90625 
L 20.21875 34.90625 
L 20.21875 43.015625 
L 29.109375 43.015625 
Q 36.375 43.015625 40.234375 45.921875 
Q 44.09375 48.828125 44.09375 54.296875 
Q 44.09375 59.90625 40.109375 62.90625 
Q 36.140625 65.921875 28.71875 65.921875 
Q 24.65625 65.921875 20.015625 65.03125 
Q 15.375 64.15625 9.8125 62.3125 
L 9.8125 71.09375 
Q 15.4375 72.65625 20.34375 73.4375 
Q 25.25 74.21875 29.59375 74.21875 
Q 40.828125 74.21875 47.359375 69.109375 
Q 53.90625 64.015625 53.90625 55.328125 
Q 53.90625 49.265625 50.4375 45.09375 
Q 46.96875 40.921875 40.578125 39.3125 
z
" id="DejaVuSans-51"/>
       </defs>
       <use xlink:href="#DejaVuSans-51"/>
       <use x="63.623047" xlink:href="#DejaVuSans-50"/>
      </g>
     </g>
    </g>
    <g id="xtick_10">
     <g id="line2d_19">
      <path clip-path="url(#p8e1d98587f)" d="M 202.053034 307.584 
L 202.053034 41.472 
" style="fill:none;stroke:#b0b0b0;stroke-dasharray:5.12,1.28,0.8,1.28;stroke-dashoffset:0;stroke-width:0.8;"/>
     </g>
     <g id="line2d_20">
      <g>
       <use style="stroke:#000000;stroke-width:0.8;" x="202.053034" xlink:href="#ma8039ea71b" y="307.584"/>
      </g>
     </g>
     <g id="text_10">
      <!-- 36 -->
      <g transform="translate(195.690534 322.182437)scale(0.1 -0.1)">
       <use xlink:href="#DejaVuSans-51"/>
       <use x="63.623047" xlink:href="#DejaVuSans-54"/>
      </g>
     </g>
    </g>
    <g id="xtick_11">
     <g id="line2d_21">
      <path clip-path="url(#p8e1d98587f)" d="M 218.103371 307.584 
L 218.103371 41.472 
" style="fill:none;stroke:#b0b0b0;stroke-dasharray:5.12,1.28,0.8,1.28;stroke-dashoffset:0;stroke-width:0.8;"/>
     </g>
     <g id="line2d_22">
      <g>
       <use style="stroke:#000000;stroke-width:0.8;" x="218.103371" xlink:href="#ma8039ea71b" y="307.584"/>
      </g>
     </g>
     <g id="text_11">
      <!-- 40 -->
      <g transform="translate(211.740871 322.182437)scale(0.1 -0.1)">
       <use xlink:href="#DejaVuSans-52"/>
       <use x="63.623047" xlink:href="#DejaVuSans-48"/>
      </g>
     </g>
    </g>
    <g id="xtick_12">
     <g id="line2d_23">
      <path clip-path="url(#p8e1d98587f)" d="M 234.153708 307.584 
L 234.153708 41.472 
" style="fill:none;stroke:#b0b0b0;stroke-dasharray:5.12,1.28,0.8,1.28;stroke-dashoffset:0;stroke-width:0.8;"/>
     </g>
     <g id="line2d_24">
      <g>
       <use style="stroke:#000000;stroke-width:0.8;" x="234.153708" xlink:href="#ma8039ea71b" y="307.584"/>
      </g>
     </g>
     <g id="text_12">
      <!-- 44 -->
      <g transform="translate(227.791208 322.182437)scale(0.1 -0.1)">
       <use xlink:href="#DejaVuSans-52"/>
       <use x="63.623047" xlink:href="#DejaVuSans-52"/>
      </g>
     </g>
    </g>
    <g id="xtick_13">
     <g id="line2d_25">
      <path clip-path="url(#p8e1d98587f)" d="M 250.204045 307.584 
L 250.204045 41.472 
" style="fill:none;stroke:#b0b0b0;stroke-dasharray:5.12,1.28,0.8,1.28;stroke-dashoffset:0;stroke-width:0.8;"/>
     </g>
     <g id="line2d_26">
      <g>
       <use style="stroke:#000000;stroke-width:0.8;" x="250.204045" xlink:href="#ma8039ea71b" y="307.584"/>
      </g>
     </g>
     <g id="text_13">
      <!-- 48 -->
      <g transform="translate(243.841545 322.182437)scale(0.1 -0.1)">
       <use xlink:href="#DejaVuSans-52"/>
       <use x="63.623047" xlink:href="#DejaVuSans-56"/>
      </g>
     </g>
    </g>
    <g id="xtick_14">
     <g id="line2d_27">
      <path clip-path="url(#p8e1d98587f)" d="M 266.254382 307.584 
L 266.254382 41.472 
" style="fill:none;stroke:#b0b0b0;stroke-dasharray:5.12,1.28,0.8,1.28;stroke-dashoffset:0;stroke-width:0.8;"/>
     </g>
     <g id="line2d_28">
      <g>
       <use style="stroke:#000000;stroke-width:0.8;" x="266.254382" xlink:href="#ma8039ea71b" y="307.584"/>
      </g>
     </g>
     <g id="text_14">
      <!-- 52 -->
      <g transform="translate(259.891882 322.182437)scale(0.1 -0.1)">
       <defs>
        <path d="M 10.796875 72.90625 
L 49.515625 72.90625 
L 49.515625 64.59375 
L 19.828125 64.59375 
L 19.828125 46.734375 
Q 21.96875 47.46875 24.109375 47.828125 
Q 26.265625 48.1875 28.421875 48.1875 
Q 40.625 48.1875 47.75 41.5 
Q 54.890625 34.8125 54.890625 23.390625 
Q 54.890625 11.625 47.5625 5.09375 
Q 40.234375 -1.421875 26.90625 -1.421875 
Q 22.3125 -1.421875 17.546875 -0.640625 
Q 12.796875 0.140625 7.71875 1.703125 
L 7.71875 11.625 
Q 12.109375 9.234375 16.796875 8.0625 
Q 21.484375 6.890625 26.703125 6.890625 
Q 35.15625 6.890625 40.078125 11.328125 
Q 45.015625 15.765625 45.015625 23.390625 
Q 45.015625 31 40.078125 35.4375 
Q 35.15625 39.890625 26.703125 39.890625 
Q 22.75 39.890625 18.8125 39.015625 
Q 14.890625 38.140625 10.796875 36.28125 
z
" id="DejaVuSans-53"/>
       </defs>
       <use xlink:href="#DejaVuSans-53"/>
       <use x="63.623047" xlink:href="#DejaVuSans-50"/>
      </g>
     </g>
    </g>
    <g id="xtick_15">
     <g id="line2d_29">
      <path clip-path="url(#p8e1d98587f)" d="M 282.304719 307.584 
L 282.304719 41.472 
" style="fill:none;stroke:#b0b0b0;stroke-dasharray:5.12,1.28,0.8,1.28;stroke-dashoffset:0;stroke-width:0.8;"/>
     </g>
     <g id="line2d_30">
      <g>
       <use style="stroke:#000000;stroke-width:0.8;" x="282.304719" xlink:href="#ma8039ea71b" y="307.584"/>
      </g>
     </g>
     <g id="text_15">
      <!-- 56 -->
      <g transform="translate(275.942219 322.182437)scale(0.1 -0.1)">
       <use xlink:href="#DejaVuSans-53"/>
       <use x="63.623047" xlink:href="#DejaVuSans-54"/>
      </g>
     </g>
    </g>
    <g id="xtick_16">
     <g id="line2d_31">
      <path clip-path="url(#p8e1d98587f)" d="M 298.355056 307.584 
L 298.355056 41.472 
" style="fill:none;stroke:#b0b0b0;stroke-dasharray:5.12,1.28,0.8,1.28;stroke-dashoffset:0;stroke-width:0.8;"/>
     </g>
     <g id="line2d_32">
      <g>
       <use style="stroke:#000000;stroke-width:0.8;" x="298.355056" xlink:href="#ma8039ea71b" y="307.584"/>
      </g>
     </g>
     <g id="text_16">
      <!-- 60 -->
      <g transform="translate(291.992556 322.182437)scale(0.1 -0.1)">
       <use xlink:href="#DejaVuSans-54"/>
       <use x="63.623047" xlink:href="#DejaVuSans-48"/>
      </g>
     </g>
    </g>
    <g id="xtick_17">
     <g id="line2d_33">
      <path clip-path="url(#p8e1d98587f)" d="M 314.405393 307.584 
L 314.405393 41.472 
" style="fill:none;stroke:#b0b0b0;stroke-dasharray:5.12,1.28,0.8,1.28;stroke-dashoffset:0;stroke-width:0.8;"/>
     </g>
     <g id="line2d_34">
      <g>
       <use style="stroke:#000000;stroke-width:0.8;" x="314.405393" xlink:href="#ma8039ea71b" y="307.584"/>
      </g>
     </g>
     <g id="text_17">
      <!-- 64 -->
      <g transform="translate(308.042893 322.182437)scale(0.1 -0.1)">
       <use xlink:href="#DejaVuSans-54"/>
       <use x="63.623047" xlink:href="#DejaVuSans-52"/>
      </g>
     </g>
    </g>
    <g id="xtick_18">
     <g id="line2d_35">
      <path clip-path="url(#p8e1d98587f)" d="M 330.45573 307.584 
L 330.45573 41.472 
" style="fill:none;stroke:#b0b0b0;stroke-dasharray:5.12,1.28,0.8,1.28;stroke-dashoffset:0;stroke-width:0.8;"/>
     </g>
     <g id="line2d_36">
      <g>
       <use style="stroke:#000000;stroke-width:0.8;" x="330.45573" xlink:href="#ma8039ea71b" y="307.584"/>
      </g>
     </g>
     <g id="text_18">
      <!-- 68 -->
      <g transform="translate(324.09323 322.182437)scale(0.1 -0.1)">
       <use xlink:href="#DejaVuSans-54"/>
       <use x="63.623047" xlink:href="#DejaVuSans-56"/>
      </g>
     </g>
    </g>
    <g id="xtick_19">
     <g id="line2d_37">
      <path clip-path="url(#p8e1d98587f)" d="M 346.506067 307.584 
L 346.506067 41.472 
" style="fill:none;stroke:#b0b0b0;stroke-dasharray:5.12,1.28,0.8,1.28;stroke-dashoffset:0;stroke-width:0.8;"/>
     </g>
     <g id="line2d_38">
      <g>
       <use style="stroke:#000000;stroke-width:0.8;" x="346.506067" xlink:href="#ma8039ea71b" y="307.584"/>
      </g>
     </g>
     <g id="text_19">
      <!-- 72 -->
      <g transform="translate(340.143567 322.182437)scale(0.1 -0.1)">
       <defs>
        <path d="M 8.203125 72.90625 
L 55.078125 72.90625 
L 55.078125 68.703125 
L 28.609375 0 
L 18.3125 0 
L 43.21875 64.59375 
L 8.203125 64.59375 
z
" id="DejaVuSans-55"/>
       </defs>
       <use xlink:href="#DejaVuSans-55"/>
       <use x="63.623047" xlink:href="#DejaVuSans-50"/>
      </g>
     </g>
    </g>
    <g id="xtick_20">
     <g id="line2d_39">
      <path clip-path="url(#p8e1d98587f)" d="M 362.556404 307.584 
L 362.556404 41.472 
" style="fill:none;stroke:#b0b0b0;stroke-dasharray:5.12,1.28,0.8,1.28;stroke-dashoffset:0;stroke-width:0.8;"/>
     </g>
     <g id="line2d_40">
      <g>
       <use style="stroke:#000000;stroke-width:0.8;" x="362.556404" xlink:href="#ma8039ea71b" y="307.584"/>
      </g>
     </g>
     <g id="text_20">
      <!-- 76 -->
      <g transform="translate(356.193904 322.182437)scale(0.1 -0.1)">
       <use xlink:href="#DejaVuSans-55"/>
       <use x="63.623047" xlink:href="#DejaVuSans-54"/>
      </g>
     </g>
    </g>
    <g id="xtick_21">
     <g id="line2d_41">
      <path clip-path="url(#p8e1d98587f)" d="M 378.606742 307.584 
L 378.606742 41.472 
" style="fill:none;stroke:#b0b0b0;stroke-dasharray:5.12,1.28,0.8,1.28;stroke-dashoffset:0;stroke-width:0.8;"/>
     </g>
     <g id="line2d_42">
      <g>
       <use style="stroke:#000000;stroke-width:0.8;" x="378.606742" xlink:href="#ma8039ea71b" y="307.584"/>
      </g>
     </g>
     <g id="text_21">
      <!-- 80 -->
      <g transform="translate(372.244242 322.182437)scale(0.1 -0.1)">
       <use xlink:href="#DejaVuSans-56"/>
       <use x="63.623047" xlink:href="#DejaVuSans-48"/>
      </g>
     </g>
    </g>
    <g id="xtick_22">
     <g id="line2d_43">
      <path clip-path="url(#p8e1d98587f)" d="M 394.657079 307.584 
L 394.657079 41.472 
" style="fill:none;stroke:#b0b0b0;stroke-dasharray:5.12,1.28,0.8,1.28;stroke-dashoffset:0;stroke-width:0.8;"/>
     </g>
     <g id="line2d_44">
      <g>
       <use style="stroke:#000000;stroke-width:0.8;" x="394.657079" xlink:href="#ma8039ea71b" y="307.584"/>
      </g>
     </g>
     <g id="text_22">
      <!-- 84 -->
      <g transform="translate(388.294579 322.182437)scale(0.1 -0.1)">
       <use xlink:href="#DejaVuSans-56"/>
       <use x="63.623047" xlink:href="#DejaVuSans-52"/>
      </g>
     </g>
    </g>
    <g id="xtick_23">
     <g id="line2d_45">
      <path clip-path="url(#p8e1d98587f)" d="M 410.707416 307.584 
L 410.707416 41.472 
" style="fill:none;stroke:#b0b0b0;stroke-dasharray:5.12,1.28,0.8,1.28;stroke-dashoffset:0;stroke-width:0.8;"/>
     </g>
     <g id="line2d_46">
      <g>
       <use style="stroke:#000000;stroke-width:0.8;" x="410.707416" xlink:href="#ma8039ea71b" y="307.584"/>
      </g>
     </g>
     <g id="text_23">
      <!-- 88 -->
      <g transform="translate(404.344916 322.182437)scale(0.1 -0.1)">
       <use xlink:href="#DejaVuSans-56"/>
       <use x="63.623047" xlink:href="#DejaVuSans-56"/>
      </g>
     </g>
    </g>
    <g id="text_24">
     <!-- threads -->
     <g transform="translate(217.168594 335.860562)scale(0.1 -0.1)">
      <defs>
       <path d="M 18.3125 70.21875 
L 18.3125 54.6875 
L 36.8125 54.6875 
L 36.8125 47.703125 
L 18.3125 47.703125 
L 18.3125 18.015625 
Q 18.3125 11.328125 20.140625 9.421875 
Q 21.96875 7.515625 27.59375 7.515625 
L 36.8125 7.515625 
L 36.8125 0 
L 27.59375 0 
Q 17.1875 0 13.234375 3.875 
Q 9.28125 7.765625 9.28125 18.015625 
L 9.28125 47.703125 
L 2.6875 47.703125 
L 2.6875 54.6875 
L 9.28125 54.6875 
L 9.28125 70.21875 
z
" id="DejaVuSans-116"/>
       <path d="M 54.890625 33.015625 
L 54.890625 0 
L 45.90625 0 
L 45.90625 32.71875 
Q 45.90625 40.484375 42.875 44.328125 
Q 39.84375 48.1875 33.796875 48.1875 
Q 26.515625 48.1875 22.3125 43.546875 
Q 18.109375 38.921875 18.109375 30.90625 
L 18.109375 0 
L 9.078125 0 
L 9.078125 75.984375 
L 18.109375 75.984375 
L 18.109375 46.1875 
Q 21.34375 51.125 25.703125 53.5625 
Q 30.078125 56 35.796875 56 
Q 45.21875 56 50.046875 50.171875 
Q 54.890625 44.34375 54.890625 33.015625 
z
" id="DejaVuSans-104"/>
       <path d="M 41.109375 46.296875 
Q 39.59375 47.171875 37.8125 47.578125 
Q 36.03125 48 33.890625 48 
Q 26.265625 48 22.1875 43.046875 
Q 18.109375 38.09375 18.109375 28.8125 
L 18.109375 0 
L 9.078125 0 
L 9.078125 54.6875 
L 18.109375 54.6875 
L 18.109375 46.1875 
Q 20.953125 51.171875 25.484375 53.578125 
Q 30.03125 56 36.53125 56 
Q 37.453125 56 38.578125 55.875 
Q 39.703125 55.765625 41.0625 55.515625 
z
" id="DejaVuSans-114"/>
       <path d="M 56.203125 29.59375 
L 56.203125 25.203125 
L 14.890625 25.203125 
Q 15.484375 15.921875 20.484375 11.0625 
Q 25.484375 6.203125 34.421875 6.203125 
Q 39.59375 6.203125 44.453125 7.46875 
Q 49.3125 8.734375 54.109375 11.28125 
L 54.109375 2.78125 
Q 49.265625 0.734375 44.1875 -0.34375 
Q 39.109375 -1.421875 33.890625 -1.421875 
Q 20.796875 -1.421875 13.15625 6.1875 
Q 5.515625 13.8125 5.515625 26.8125 
Q 5.515625 40.234375 12.765625 48.109375 
Q 20.015625 56 32.328125 56 
Q 43.359375 56 49.78125 48.890625 
Q 56.203125 41.796875 56.203125 29.59375 
z
M 47.21875 32.234375 
Q 47.125 39.59375 43.09375 43.984375 
Q 39.0625 48.390625 32.421875 48.390625 
Q 24.90625 48.390625 20.390625 44.140625 
Q 15.875 39.890625 15.1875 32.171875 
z
" id="DejaVuSans-101"/>
       <path d="M 34.28125 27.484375 
Q 23.390625 27.484375 19.1875 25 
Q 14.984375 22.515625 14.984375 16.5 
Q 14.984375 11.71875 18.140625 8.90625 
Q 21.296875 6.109375 26.703125 6.109375 
Q 34.1875 6.109375 38.703125 11.40625 
Q 43.21875 16.703125 43.21875 25.484375 
L 43.21875 27.484375 
z
M 52.203125 31.203125 
L 52.203125 0 
L 43.21875 0 
L 43.21875 8.296875 
Q 40.140625 3.328125 35.546875 0.953125 
Q 30.953125 -1.421875 24.3125 -1.421875 
Q 15.921875 -1.421875 10.953125 3.296875 
Q 6 8.015625 6 15.921875 
Q 6 25.140625 12.171875 29.828125 
Q 18.359375 34.515625 30.609375 34.515625 
L 43.21875 34.515625 
L 43.21875 35.40625 
Q 43.21875 41.609375 39.140625 45 
Q 35.0625 48.390625 27.6875 48.390625 
Q 23 48.390625 18.546875 47.265625 
Q 14.109375 46.140625 10.015625 43.890625 
L 10.015625 52.203125 
Q 14.9375 54.109375 19.578125 55.046875 
Q 24.21875 56 28.609375 56 
Q 40.484375 56 46.34375 49.84375 
Q 52.203125 43.703125 52.203125 31.203125 
z
" id="DejaVuSans-97"/>
       <path d="M 45.40625 46.390625 
L 45.40625 75.984375 
L 54.390625 75.984375 
L 54.390625 0 
L 45.40625 0 
L 45.40625 8.203125 
Q 42.578125 3.328125 38.25 0.953125 
Q 33.9375 -1.421875 27.875 -1.421875 
Q 17.96875 -1.421875 11.734375 6.484375 
Q 5.515625 14.40625 5.515625 27.296875 
Q 5.515625 40.1875 11.734375 48.09375 
Q 17.96875 56 27.875 56 
Q 33.9375 56 38.25 53.625 
Q 42.578125 51.265625 45.40625 46.390625 
z
M 14.796875 27.296875 
Q 14.796875 17.390625 18.875 11.75 
Q 22.953125 6.109375 30.078125 6.109375 
Q 37.203125 6.109375 41.296875 11.75 
Q 45.40625 17.390625 45.40625 27.296875 
Q 45.40625 37.203125 41.296875 42.84375 
Q 37.203125 48.484375 30.078125 48.484375 
Q 22.953125 48.484375 18.875 42.84375 
Q 14.796875 37.203125 14.796875 27.296875 
z
" id="DejaVuSans-100"/>
       <path d="M 44.28125 53.078125 
L 44.28125 44.578125 
Q 40.484375 46.53125 36.375 47.5 
Q 32.28125 48.484375 27.875 48.484375 
Q 21.1875 48.484375 17.84375 46.4375 
Q 14.5 44.390625 14.5 40.28125 
Q 14.5 37.15625 16.890625 35.375 
Q 19.28125 33.59375 26.515625 31.984375 
L 29.59375 31.296875 
Q 39.15625 29.25 43.1875 25.515625 
Q 47.21875 21.78125 47.21875 15.09375 
Q 47.21875 7.46875 41.1875 3.015625 
Q 35.15625 -1.421875 24.609375 -1.421875 
Q 20.21875 -1.421875 15.453125 -0.5625 
Q 10.6875 0.296875 5.421875 2 
L 5.421875 11.28125 
Q 10.40625 8.6875 15.234375 7.390625 
Q 20.0625 6.109375 24.8125 6.109375 
Q 31.15625 6.109375 34.5625 8.28125 
Q 37.984375 10.453125 37.984375 14.40625 
Q 37.984375 18.0625 35.515625 20.015625 
Q 33.0625 21.96875 24.703125 23.78125 
L 21.578125 24.515625 
Q 13.234375 26.265625 9.515625 29.90625 
Q 5.8125 33.546875 5.8125 39.890625 
Q 5.8125 47.609375 11.28125 51.796875 
Q 16.75 56 26.8125 56 
Q 31.78125 56 36.171875 55.265625 
Q 40.578125 54.546875 44.28125 53.078125 
z
" id="DejaVuSans-115"/>
      </defs>
      <use xlink:href="#DejaVuSans-116"/>
      <use x="39.208984" xlink:href="#DejaVuSans-104"/>
      <use x="102.587891" xlink:href="#DejaVuSans-114"/>
      <use x="141.451172" xlink:href="#DejaVuSans-101"/>
      <use x="202.974609" xlink:href="#DejaVuSans-97"/>
      <use x="264.253906" xlink:href="#DejaVuSans-100"/>
      <use x="327.730469" xlink:href="#DejaVuSans-115"/>
     </g>
    </g>
   </g>
   <g id="matplotlib.axis_2">
    <g id="ytick_1">
     <g id="line2d_47">
      <path clip-path="url(#p8e1d98587f)" d="M 57.6 258.90404 
L 414.72 258.90404 
" style="fill:none;stroke:#b0b0b0;stroke-dasharray:5.12,1.28,0.8,1.28;stroke-dashoffset:0;stroke-width:0.8;"/>
     </g>
     <g id="line2d_48">
      <defs>
       <path d="M 0 0 
L -3.5 0 
" id="m61d048e0a0" style="stroke:#000000;stroke-width:0.8;"/>
      </defs>
      <g>
       <use style="stroke:#000000;stroke-width:0.8;" x="57.6" xlink:href="#m61d048e0a0" y="258.90404"/>
      </g>
     </g>
     <g id="text_25">
      <!-- 0.2 -->
      <g transform="translate(34.696875 262.703259)scale(0.1 -0.1)">
       <defs>
        <path d="M 10.6875 12.40625 
L 21 12.40625 
L 21 0 
L 10.6875 0 
z
" id="DejaVuSans-46"/>
       </defs>
       <use xlink:href="#DejaVuSans-48"/>
       <use x="63.623047" xlink:href="#DejaVuSans-46"/>
       <use x="95.410156" xlink:href="#DejaVuSans-50"/>
      </g>
     </g>
    </g>
    <g id="ytick_2">
     <g id="line2d_49">
      <path clip-path="url(#p8e1d98587f)" d="M 57.6 205.506982 
L 414.72 205.506982 
" style="fill:none;stroke:#b0b0b0;stroke-dasharray:5.12,1.28,0.8,1.28;stroke-dashoffset:0;stroke-width:0.8;"/>
     </g>
     <g id="line2d_50">
      <g>
       <use style="stroke:#000000;stroke-width:0.8;" x="57.6" xlink:href="#m61d048e0a0" y="205.506982"/>
      </g>
     </g>
     <g id="text_26">
      <!-- 0.4 -->
      <g transform="translate(34.696875 209.306201)scale(0.1 -0.1)">
       <use xlink:href="#DejaVuSans-48"/>
       <use x="63.623047" xlink:href="#DejaVuSans-46"/>
       <use x="95.410156" xlink:href="#DejaVuSans-52"/>
      </g>
     </g>
    </g>
    <g id="ytick_3">
     <g id="line2d_51">
      <path clip-path="url(#p8e1d98587f)" d="M 57.6 152.109924 
L 414.72 152.109924 
" style="fill:none;stroke:#b0b0b0;stroke-dasharray:5.12,1.28,0.8,1.28;stroke-dashoffset:0;stroke-width:0.8;"/>
     </g>
     <g id="line2d_52">
      <g>
       <use style="stroke:#000000;stroke-width:0.8;" x="57.6" xlink:href="#m61d048e0a0" y="152.109924"/>
      </g>
     </g>
     <g id="text_27">
      <!-- 0.6 -->
      <g transform="translate(34.696875 155.909143)scale(0.1 -0.1)">
       <use xlink:href="#DejaVuSans-48"/>
       <use x="63.623047" xlink:href="#DejaVuSans-46"/>
       <use x="95.410156" xlink:href="#DejaVuSans-54"/>
      </g>
     </g>
    </g>
    <g id="ytick_4">
     <g id="line2d_53">
      <path clip-path="url(#p8e1d98587f)" d="M 57.6 98.712866 
L 414.72 98.712866 
" style="fill:none;stroke:#b0b0b0;stroke-dasharray:5.12,1.28,0.8,1.28;stroke-dashoffset:0;stroke-width:0.8;"/>
     </g>
     <g id="line2d_54">
      <g>
       <use style="stroke:#000000;stroke-width:0.8;" x="57.6" xlink:href="#m61d048e0a0" y="98.712866"/>
      </g>
     </g>
     <g id="text_28">
      <!-- 0.8 -->
      <g transform="translate(34.696875 102.512085)scale(0.1 -0.1)">
       <use xlink:href="#DejaVuSans-48"/>
       <use x="63.623047" xlink:href="#DejaVuSans-46"/>
       <use x="95.410156" xlink:href="#DejaVuSans-56"/>
      </g>
     </g>
    </g>
    <g id="ytick_5">
     <g id="line2d_55">
      <path clip-path="url(#p8e1d98587f)" d="M 57.6 45.315808 
L 414.72 45.315808 
" style="fill:none;stroke:#b0b0b0;stroke-dasharray:5.12,1.28,0.8,1.28;stroke-dashoffset:0;stroke-width:0.8;"/>
     </g>
     <g id="line2d_56">
      <g>
       <use style="stroke:#000000;stroke-width:0.8;" x="57.6" xlink:href="#m61d048e0a0" y="45.315808"/>
      </g>
     </g>
     <g id="text_29">
      <!-- 1.0 -->
      <g transform="translate(34.696875 49.115027)scale(0.1 -0.1)">
       <use xlink:href="#DejaVuSans-49"/>
       <use x="63.623047" xlink:href="#DejaVuSans-46"/>
       <use x="95.410156" xlink:href="#DejaVuSans-48"/>
      </g>
     </g>
    </g>
    <g id="text_30">
     <!-- duration (s) -->
     <g transform="translate(28.617187 203.663156)rotate(-90)scale(0.1 -0.1)">
      <defs>
       <path d="M 8.5 21.578125 
L 8.5 54.6875 
L 17.484375 54.6875 
L 17.484375 21.921875 
Q 17.484375 14.15625 20.5 10.265625 
Q 23.53125 6.390625 29.59375 6.390625 
Q 36.859375 6.390625 41.078125 11.03125 
Q 45.3125 15.671875 45.3125 23.6875 
L 45.3125 54.6875 
L 54.296875 54.6875 
L 54.296875 0 
L 45.3125 0 
L 45.3125 8.40625 
Q 42.046875 3.421875 37.71875 1 
Q 33.40625 -1.421875 27.6875 -1.421875 
Q 18.265625 -1.421875 13.375 4.4375 
Q 8.5 10.296875 8.5 21.578125 
z
M 31.109375 56 
z
" id="DejaVuSans-117"/>
       <path d="M 9.421875 54.6875 
L 18.40625 54.6875 
L 18.40625 0 
L 9.421875 0 
z
M 9.421875 75.984375 
L 18.40625 75.984375 
L 18.40625 64.59375 
L 9.421875 64.59375 
z
" id="DejaVuSans-105"/>
       <path d="M 30.609375 48.390625 
Q 23.390625 48.390625 19.1875 42.75 
Q 14.984375 37.109375 14.984375 27.296875 
Q 14.984375 17.484375 19.15625 11.84375 
Q 23.34375 6.203125 30.609375 6.203125 
Q 37.796875 6.203125 41.984375 11.859375 
Q 46.1875 17.53125 46.1875 27.296875 
Q 46.1875 37.015625 41.984375 42.703125 
Q 37.796875 48.390625 30.609375 48.390625 
z
M 30.609375 56 
Q 42.328125 56 49.015625 48.375 
Q 55.71875 40.765625 55.71875 27.296875 
Q 55.71875 13.875 49.015625 6.21875 
Q 42.328125 -1.421875 30.609375 -1.421875 
Q 18.84375 -1.421875 12.171875 6.21875 
Q 5.515625 13.875 5.515625 27.296875 
Q 5.515625 40.765625 12.171875 48.375 
Q 18.84375 56 30.609375 56 
z
" id="DejaVuSans-111"/>
       <path d="M 54.890625 33.015625 
L 54.890625 0 
L 45.90625 0 
L 45.90625 32.71875 
Q 45.90625 40.484375 42.875 44.328125 
Q 39.84375 48.1875 33.796875 48.1875 
Q 26.515625 48.1875 22.3125 43.546875 
Q 18.109375 38.921875 18.109375 30.90625 
L 18.109375 0 
L 9.078125 0 
L 9.078125 54.6875 
L 18.109375 54.6875 
L 18.109375 46.1875 
Q 21.34375 51.125 25.703125 53.5625 
Q 30.078125 56 35.796875 56 
Q 45.21875 56 50.046875 50.171875 
Q 54.890625 44.34375 54.890625 33.015625 
z
" id="DejaVuSans-110"/>
       <path id="DejaVuSans-32"/>
       <path d="M 31 75.875 
Q 24.46875 64.65625 21.28125 53.65625 
Q 18.109375 42.671875 18.109375 31.390625 
Q 18.109375 20.125 21.3125 9.0625 
Q 24.515625 -2 31 -13.1875 
L 23.1875 -13.1875 
Q 15.875 -1.703125 12.234375 9.375 
Q 8.59375 20.453125 8.59375 31.390625 
Q 8.59375 42.28125 12.203125 53.3125 
Q 15.828125 64.359375 23.1875 75.875 
z
" id="DejaVuSans-40"/>
       <path d="M 8.015625 75.875 
L 15.828125 75.875 
Q 23.140625 64.359375 26.78125 53.3125 
Q 30.421875 42.28125 30.421875 31.390625 
Q 30.421875 20.453125 26.78125 9.375 
Q 23.140625 -1.703125 15.828125 -13.1875 
L 8.015625 -13.1875 
Q 14.5 -2 17.703125 9.0625 
Q 20.90625 20.125 20.90625 31.390625 
Q 20.90625 42.671875 17.703125 53.65625 
Q 14.5 64.65625 8.015625 75.875 
z
" id="DejaVuSans-41"/>
      </defs>
      <use xlink:href="#DejaVuSans-100"/>
      <use x="63.476562" xlink:href="#DejaVuSans-117"/>
      <use x="126.855469" xlink:href="#DejaVuSans-114"/>
      <use x="167.96875" xlink:href="#DejaVuSans-97"/>
      <use x="229.248047" xlink:href="#DejaVuSans-116"/>
      <use x="268.457031" xlink:href="#DejaVuSans-105"/>
      <use x="296.240234" xlink:href="#DejaVuSans-111"/>
      <use x="357.421875" xlink:href="#DejaVuSans-110"/>
      <use x="420.800781" xlink:href="#DejaVuSans-32"/>
      <use x="452.587891" xlink:href="#DejaVuSans-40"/>
      <use x="491.601562" xlink:href="#DejaVuSans-115"/>
      <use x="543.701172" xlink:href="#DejaVuSans-41"/>
     </g>
    </g>
   </g>
   <g id="line2d_57">
    <path clip-path="url(#p8e1d98587f)" d="M 61.612584 84.679071 
L 65.625169 188.92616 
L 69.637753 224.113713 
L 73.650337 246.367722 
L 77.662921 256.433715 
L 81.675506 262.953283 
L 85.68809 270.784921 
L 89.700674 275.02373 
L 93.713258 277.656379 
L 97.725843 280.796298 
L 101.738427 283.639479 
L 105.751011 283.983758 
L 109.763596 286.324115 
L 113.77618 287.220995 
L 117.788764 286.937724 
L 121.801348 287.980072 
L 125.813933 288.983999 
L 129.826517 289.962574 
L 133.839101 290.722979 
L 137.851685 290.678594 
L 141.86427 290.694235 
L 145.876854 291.487066 
L 149.889438 291.415192 
L 153.902022 291.157165 
L 157.914607 289.919244 
L 161.927191 289.720479 
L 165.939775 292.67982 
L 169.95236 294.091962 
L 173.964944 294.483754 
L 177.977528 294.667097 
L 181.990112 295.174257 
L 186.002697 295.448925 
L 190.015281 295.41056 
L 194.027865 295.488 
L 198.040449 293.083852 
L 202.053034 293.039375 
L 206.065618 293.065456 
L 210.078202 293.058926 
L 214.090787 293.041512 
L 218.103371 293.623521 
L 222.115955 293.735553 
L 226.128539 293.926788 
L 230.141124 293.947121 
L 234.153708 294.17795 
L 238.166292 294.048123 
L 242.178876 293.851376 
L 246.191461 293.904273 
L 250.204045 293.705572 
L 254.216629 293.408797 
L 258.229213 293.260356 
L 262.241798 293.136776 
L 266.254382 293.08828 
L 270.266966 292.787523 
L 274.279551 292.73038 
L 278.292135 290.708311 
L 282.304719 292.296348 
L 286.317303 290.813286 
L 290.329888 292.52664 
L 294.342472 291.955516 
L 298.355056 292.055008 
L 302.36764 291.121345 
L 306.380225 292.03623 
L 310.392809 291.212962 
L 314.405393 291.52545 
L 318.417978 291.454312 
L 322.430562 291.601499 
L 326.443146 290.48955 
L 330.45573 291.393704 
L 334.468315 291.640028 
L 338.480899 291.307125 
L 342.493483 291.642901 
L 346.506067 291.38973 
L 350.518652 291.701854 
L 354.531236 291.448392 
L 358.54382 291.715967 
L 362.556404 291.481838 
L 366.568989 291.327894 
L 370.581573 290.551358 
L 374.594157 290.205788 
L 378.606742 291.056882 
L 382.619326 289.590179 
L 386.63191 290.387166 
L 390.644494 288.154339 
L 394.657079 290.213718 
L 398.669663 290.079171 
L 402.682247 289.139416 
L 406.694831 289.409446 
L 410.707416 288.28844 
" style="fill:none;stroke:#0000ff;stroke-dasharray:1.5,2.475;stroke-dashoffset:0;stroke-width:1.5;"/>
    <defs>
     <path d="M 0 1.5 
C 0.397805 1.5 0.77937 1.341951 1.06066 1.06066 
C 1.341951 0.77937 1.5 0.397805 1.5 0 
C 1.5 -0.397805 1.341951 -0.77937 1.06066 -1.06066 
C 0.77937 -1.341951 0.397805 -1.5 0 -1.5 
C -0.397805 -1.5 -0.77937 -1.341951 -1.06066 -1.06066 
C -1.341951 -0.77937 -1.5 -0.397805 -1.5 0 
C -1.5 0.397805 -1.341951 0.77937 -1.06066 1.06066 
C -0.77937 1.341951 -0.397805 1.5 0 1.5 
z
" id="mfdde812fd6" style="stroke:#0000ff;"/>
    </defs>
    <g clip-path="url(#p8e1d98587f)">
     <use style="fill:#0000ff;stroke:#0000ff;" x="61.612584" xlink:href="#mfdde812fd6" y="84.679071"/>
     <use style="fill:#0000ff;stroke:#0000ff;" x="65.625169" xlink:href="#mfdde812fd6" y="188.92616"/>
     <use style="fill:#0000ff;stroke:#0000ff;" x="69.637753" xlink:href="#mfdde812fd6" y="224.113713"/>
     <use style="fill:#0000ff;stroke:#0000ff;" x="73.650337" xlink:href="#mfdde812fd6" y="246.367722"/>
     <use style="fill:#0000ff;stroke:#0000ff;" x="77.662921" xlink:href="#mfdde812fd6" y="256.433715"/>
     <use style="fill:#0000ff;stroke:#0000ff;" x="81.675506" xlink:href="#mfdde812fd6" y="262.953283"/>
     <use style="fill:#0000ff;stroke:#0000ff;" x="85.68809" xlink:href="#mfdde812fd6" y="270.784921"/>
     <use style="fill:#0000ff;stroke:#0000ff;" x="89.700674" xlink:href="#mfdde812fd6" y="275.02373"/>
     <use style="fill:#0000ff;stroke:#0000ff;" x="93.713258" xlink:href="#mfdde812fd6" y="277.656379"/>
     <use style="fill:#0000ff;stroke:#0000ff;" x="97.725843" xlink:href="#mfdde812fd6" y="280.796298"/>
     <use style="fill:#0000ff;stroke:#0000ff;" x="101.738427" xlink:href="#mfdde812fd6" y="283.639479"/>
     <use style="fill:#0000ff;stroke:#0000ff;" x="105.751011" xlink:href="#mfdde812fd6" y="283.983758"/>
     <use style="fill:#0000ff;stroke:#0000ff;" x="109.763596" xlink:href="#mfdde812fd6" y="286.324115"/>
     <use style="fill:#0000ff;stroke:#0000ff;" x="113.77618" xlink:href="#mfdde812fd6" y="287.220995"/>
     <use style="fill:#0000ff;stroke:#0000ff;" x="117.788764" xlink:href="#mfdde812fd6" y="286.937724"/>
     <use style="fill:#0000ff;stroke:#0000ff;" x="121.801348" xlink:href="#mfdde812fd6" y="287.980072"/>
     <use style="fill:#0000ff;stroke:#0000ff;" x="125.813933" xlink:href="#mfdde812fd6" y="288.983999"/>
     <use style="fill:#0000ff;stroke:#0000ff;" x="129.826517" xlink:href="#mfdde812fd6" y="289.962574"/>
     <use style="fill:#0000ff;stroke:#0000ff;" x="133.839101" xlink:href="#mfdde812fd6" y="290.722979"/>
     <use style="fill:#0000ff;stroke:#0000ff;" x="137.851685" xlink:href="#mfdde812fd6" y="290.678594"/>
     <use style="fill:#0000ff;stroke:#0000ff;" x="141.86427" xlink:href="#mfdde812fd6" y="290.694235"/>
     <use style="fill:#0000ff;stroke:#0000ff;" x="145.876854" xlink:href="#mfdde812fd6" y="291.487066"/>
     <use style="fill:#0000ff;stroke:#0000ff;" x="149.889438" xlink:href="#mfdde812fd6" y="291.415192"/>
     <use style="fill:#0000ff;stroke:#0000ff;" x="153.902022" xlink:href="#mfdde812fd6" y="291.157165"/>
     <use style="fill:#0000ff;stroke:#0000ff;" x="157.914607" xlink:href="#mfdde812fd6" y="289.919244"/>
     <use style="fill:#0000ff;stroke:#0000ff;" x="161.927191" xlink:href="#mfdde812fd6" y="289.720479"/>
     <use style="fill:#0000ff;stroke:#0000ff;" x="165.939775" xlink:href="#mfdde812fd6" y="292.67982"/>
     <use style="fill:#0000ff;stroke:#0000ff;" x="169.95236" xlink:href="#mfdde812fd6" y="294.091962"/>
     <use style="fill:#0000ff;stroke:#0000ff;" x="173.964944" xlink:href="#mfdde812fd6" y="294.483754"/>
     <use style="fill:#0000ff;stroke:#0000ff;" x="177.977528" xlink:href="#mfdde812fd6" y="294.667097"/>
     <use style="fill:#0000ff;stroke:#0000ff;" x="181.990112" xlink:href="#mfdde812fd6" y="295.174257"/>
     <use style="fill:#0000ff;stroke:#0000ff;" x="186.002697" xlink:href="#mfdde812fd6" y="295.448925"/>
     <use style="fill:#0000ff;stroke:#0000ff;" x="190.015281" xlink:href="#mfdde812fd6" y="295.41056"/>
     <use style="fill:#0000ff;stroke:#0000ff;" x="194.027865" xlink:href="#mfdde812fd6" y="295.488"/>
     <use style="fill:#0000ff;stroke:#0000ff;" x="198.040449" xlink:href="#mfdde812fd6" y="293.083852"/>
     <use style="fill:#0000ff;stroke:#0000ff;" x="202.053034" xlink:href="#mfdde812fd6" y="293.039375"/>
     <use style="fill:#0000ff;stroke:#0000ff;" x="206.065618" xlink:href="#mfdde812fd6" y="293.065456"/>
     <use style="fill:#0000ff;stroke:#0000ff;" x="210.078202" xlink:href="#mfdde812fd6" y="293.058926"/>
     <use style="fill:#0000ff;stroke:#0000ff;" x="214.090787" xlink:href="#mfdde812fd6" y="293.041512"/>
     <use style="fill:#0000ff;stroke:#0000ff;" x="218.103371" xlink:href="#mfdde812fd6" y="293.623521"/>
     <use style="fill:#0000ff;stroke:#0000ff;" x="222.115955" xlink:href="#mfdde812fd6" y="293.735553"/>
     <use style="fill:#0000ff;stroke:#0000ff;" x="226.128539" xlink:href="#mfdde812fd6" y="293.926788"/>
     <use style="fill:#0000ff;stroke:#0000ff;" x="230.141124" xlink:href="#mfdde812fd6" y="293.947121"/>
     <use style="fill:#0000ff;stroke:#0000ff;" x="234.153708" xlink:href="#mfdde812fd6" y="294.17795"/>
     <use style="fill:#0000ff;stroke:#0000ff;" x="238.166292" xlink:href="#mfdde812fd6" y="294.048123"/>
     <use style="fill:#0000ff;stroke:#0000ff;" x="242.178876" xlink:href="#mfdde812fd6" y="293.851376"/>
     <use style="fill:#0000ff;stroke:#0000ff;" x="246.191461" xlink:href="#mfdde812fd6" y="293.904273"/>
     <use style="fill:#0000ff;stroke:#0000ff;" x="250.204045" xlink:href="#mfdde812fd6" y="293.705572"/>
     <use style="fill:#0000ff;stroke:#0000ff;" x="254.216629" xlink:href="#mfdde812fd6" y="293.408797"/>
     <use style="fill:#0000ff;stroke:#0000ff;" x="258.229213" xlink:href="#mfdde812fd6" y="293.260356"/>
     <use style="fill:#0000ff;stroke:#0000ff;" x="262.241798" xlink:href="#mfdde812fd6" y="293.136776"/>
     <use style="fill:#0000ff;stroke:#0000ff;" x="266.254382" xlink:href="#mfdde812fd6" y="293.08828"/>
     <use style="fill:#0000ff;stroke:#0000ff;" x="270.266966" xlink:href="#mfdde812fd6" y="292.787523"/>
     <use style="fill:#0000ff;stroke:#0000ff;" x="274.279551" xlink:href="#mfdde812fd6" y="292.73038"/>
     <use style="fill:#0000ff;stroke:#0000ff;" x="278.292135" xlink:href="#mfdde812fd6" y="290.708311"/>
     <use style="fill:#0000ff;stroke:#0000ff;" x="282.304719" xlink:href="#mfdde812fd6" y="292.296348"/>
     <use style="fill:#0000ff;stroke:#0000ff;" x="286.317303" xlink:href="#mfdde812fd6" y="290.813286"/>
     <use style="fill:#0000ff;stroke:#0000ff;" x="290.329888" xlink:href="#mfdde812fd6" y="292.52664"/>
     <use style="fill:#0000ff;stroke:#0000ff;" x="294.342472" xlink:href="#mfdde812fd6" y="291.955516"/>
     <use style="fill:#0000ff;stroke:#0000ff;" x="298.355056" xlink:href="#mfdde812fd6" y="292.055008"/>
     <use style="fill:#0000ff;stroke:#0000ff;" x="302.36764" xlink:href="#mfdde812fd6" y="291.121345"/>
     <use style="fill:#0000ff;stroke:#0000ff;" x="306.380225" xlink:href="#mfdde812fd6" y="292.03623"/>
     <use style="fill:#0000ff;stroke:#0000ff;" x="310.392809" xlink:href="#mfdde812fd6" y="291.212962"/>
     <use style="fill:#0000ff;stroke:#0000ff;" x="314.405393" xlink:href="#mfdde812fd6" y="291.52545"/>
     <use style="fill:#0000ff;stroke:#0000ff;" x="318.417978" xlink:href="#mfdde812fd6" y="291.454312"/>
     <use style="fill:#0000ff;stroke:#0000ff;" x="322.430562" xlink:href="#mfdde812fd6" y="291.601499"/>
     <use style="fill:#0000ff;stroke:#0000ff;" x="326.443146" xlink:href="#mfdde812fd6" y="290.48955"/>
     <use style="fill:#0000ff;stroke:#0000ff;" x="330.45573" xlink:href="#mfdde812fd6" y="291.393704"/>
     <use style="fill:#0000ff;stroke:#0000ff;" x="334.468315" xlink:href="#mfdde812fd6" y="291.640028"/>
     <use style="fill:#0000ff;stroke:#0000ff;" x="338.480899" xlink:href="#mfdde812fd6" y="291.307125"/>
     <use style="fill:#0000ff;stroke:#0000ff;" x="342.493483" xlink:href="#mfdde812fd6" y="291.642901"/>
     <use style="fill:#0000ff;stroke:#0000ff;" x="346.506067" xlink:href="#mfdde812fd6" y="291.38973"/>
     <use style="fill:#0000ff;stroke:#0000ff;" x="350.518652" xlink:href="#mfdde812fd6" y="291.701854"/>
     <use style="fill:#0000ff;stroke:#0000ff;" x="354.531236" xlink:href="#mfdde812fd6" y="291.448392"/>
     <use style="fill:#0000ff;stroke:#0000ff;" x="358.54382" xlink:href="#mfdde812fd6" y="291.715967"/>
     <use style="fill:#0000ff;stroke:#0000ff;" x="362.556404" xlink:href="#mfdde812fd6" y="291.481838"/>
     <use style="fill:#0000ff;stroke:#0000ff;" x="366.568989" xlink:href="#mfdde812fd6" y="291.327894"/>
     <use style="fill:#0000ff;stroke:#0000ff;" x="370.581573" xlink:href="#mfdde812fd6" y="290.551358"/>
     <use style="fill:#0000ff;stroke:#0000ff;" x="374.594157" xlink:href="#mfdde812fd6" y="290.205788"/>
     <use style="fill:#0000ff;stroke:#0000ff;" x="378.606742" xlink:href="#mfdde812fd6" y="291.056882"/>
     <use style="fill:#0000ff;stroke:#0000ff;" x="382.619326" xlink:href="#mfdde812fd6" y="289.590179"/>
     <use style="fill:#0000ff;stroke:#0000ff;" x="386.63191" xlink:href="#mfdde812fd6" y="290.387166"/>
     <use style="fill:#0000ff;stroke:#0000ff;" x="390.644494" xlink:href="#mfdde812fd6" y="288.154339"/>
     <use style="fill:#0000ff;stroke:#0000ff;" x="394.657079" xlink:href="#mfdde812fd6" y="290.213718"/>
     <use style="fill:#0000ff;stroke:#0000ff;" x="398.669663" xlink:href="#mfdde812fd6" y="290.079171"/>
     <use style="fill:#0000ff;stroke:#0000ff;" x="402.682247" xlink:href="#mfdde812fd6" y="289.139416"/>
     <use style="fill:#0000ff;stroke:#0000ff;" x="406.694831" xlink:href="#mfdde812fd6" y="289.409446"/>
     <use style="fill:#0000ff;stroke:#0000ff;" x="410.707416" xlink:href="#mfdde812fd6" y="288.28844"/>
    </g>
   </g>
   <g id="line2d_58">
    <path clip-path="url(#p8e1d98587f)" d="M 61.612584 53.568 
L 65.625169 175.057617 
L 69.637753 219.083254 
L 73.650337 240.663928 
L 77.662921 254.145335 
L 81.675506 262.700231 
L 85.68809 268.900419 
L 89.700674 273.683081 
L 93.713258 277.686524 
L 97.725843 280.512837 
L 101.738427 282.43555 
L 105.751011 283.247714 
L 109.763596 284.860504 
L 113.77618 284.8779 
L 117.788764 284.750837 
L 121.801348 286.04551 
L 125.813933 287.295334 
L 129.826517 288.223213 
L 133.839101 289.226859 
L 137.851685 288.976288 
L 141.86427 288.61626 
L 145.876854 288.840532 
L 149.889438 288.98219 
L 153.902022 288.583541 
L 157.914607 287.427971 
L 161.927191 287.762174 
L 165.939775 290.790562 
L 169.95236 292.06161 
L 173.964944 292.297167 
L 177.977528 292.546855 
L 181.990112 292.985324 
L 186.002697 293.219844 
L 190.015281 293.576008 
L 194.027865 293.500069 
L 198.040449 291.35121 
L 202.053034 291.271997 
L 206.065618 291.55715 
L 210.078202 291.537963 
L 214.090787 291.43738 
L 218.103371 292.052516 
L 222.115955 291.967456 
L 226.128539 292.504334 
L 230.141124 292.404633 
L 234.153708 291.516102 
L 238.166292 292.614138 
L 242.178876 292.661206 
L 246.191461 292.917805 
L 250.204045 293.223545 
L 254.216629 292.894889 
L 258.229213 293.367431 
L 262.241798 292.975066 
L 266.254382 291.455185 
L 270.266966 291.067712 
L 274.279551 291.10655 
L 278.292135 291.987634 
L 282.304719 292.141841 
L 286.317303 291.461678 
L 290.329888 292.13875 
L 294.342472 292.640854 
L 298.355056 292.657795 
L 302.36764 292.557013 
L 306.380225 292.75325 
L 310.392809 292.737309 
L 314.405393 292.918887 
L 318.417978 293.108404 
L 322.430562 292.95066 
L 326.443146 293.098538 
L 330.45573 292.966946 
L 334.468315 292.986361 
L 338.480899 292.879512 
L 342.493483 292.954579 
L 346.506067 292.939102 
L 350.518652 292.966028 
L 354.531236 293.438788 
L 358.54382 293.246788 
L 362.556404 293.344889 
L 366.568989 293.729851 
L 370.581573 292.549565 
L 374.594157 292.952978 
L 378.606742 293.81342 
L 382.619326 293.770317 
L 386.63191 293.722131 
L 390.644494 291.234495 
L 394.657079 291.948251 
L 398.669663 290.8621 
L 402.682247 291.922471 
L 406.694831 289.906831 
L 410.707416 291.672446 
" style="fill:none;stroke:#ff0000;stroke-dasharray:1.5,2.475;stroke-dashoffset:0;stroke-width:1.5;"/>
    <defs>
     <path d="M 0 1.5 
C 0.397805 1.5 0.77937 1.341951 1.06066 1.06066 
C 1.341951 0.77937 1.5 0.397805 1.5 0 
C 1.5 -0.397805 1.341951 -0.77937 1.06066 -1.06066 
C 0.77937 -1.341951 0.397805 -1.5 0 -1.5 
C -0.397805 -1.5 -0.77937 -1.341951 -1.06066 -1.06066 
C -1.341951 -0.77937 -1.5 -0.397805 -1.5 0 
C -1.5 0.397805 -1.341951 0.77937 -1.06066 1.06066 
C -0.77937 1.341951 -0.397805 1.5 0 1.5 
z
" id="m076819e80c" style="stroke:#ff0000;"/>
    </defs>
    <g clip-path="url(#p8e1d98587f)">
     <use style="fill:#ff0000;stroke:#ff0000;" x="61.612584" xlink:href="#m076819e80c" y="53.568"/>
     <use style="fill:#ff0000;stroke:#ff0000;" x="65.625169" xlink:href="#m076819e80c" y="175.057617"/>
     <use style="fill:#ff0000;stroke:#ff0000;" x="69.637753" xlink:href="#m076819e80c" y="219.083254"/>
     <use style="fill:#ff0000;stroke:#ff0000;" x="73.650337" xlink:href="#m076819e80c" y="240.663928"/>
     <use style="fill:#ff0000;stroke:#ff0000;" x="77.662921" xlink:href="#m076819e80c" y="254.145335"/>
     <use style="fill:#ff0000;stroke:#ff0000;" x="81.675506" xlink:href="#m076819e80c" y="262.700231"/>
     <use style="fill:#ff0000;stroke:#ff0000;" x="85.68809" xlink:href="#m076819e80c" y="268.900419"/>
     <use style="fill:#ff0000;stroke:#ff0000;" x="89.700674" xlink:href="#m076819e80c" y="273.683081"/>
     <use style="fill:#ff0000;stroke:#ff0000;" x="93.713258" xlink:href="#m076819e80c" y="277.686524"/>
     <use style="fill:#ff0000;stroke:#ff0000;" x="97.725843" xlink:href="#m076819e80c" y="280.512837"/>
     <use style="fill:#ff0000;stroke:#ff0000;" x="101.738427" xlink:href="#m076819e80c" y="282.43555"/>
     <use style="fill:#ff0000;stroke:#ff0000;" x="105.751011" xlink:href="#m076819e80c" y="283.247714"/>
     <use style="fill:#ff0000;stroke:#ff0000;" x="109.763596" xlink:href="#m076819e80c" y="284.860504"/>
     <use style="fill:#ff0000;stroke:#ff0000;" x="113.77618" xlink:href="#m076819e80c" y="284.8779"/>
     <use style="fill:#ff0000;stroke:#ff0000;" x="117.788764" xlink:href="#m076819e80c" y="284.750837"/>
     <use style="fill:#ff0000;stroke:#ff0000;" x="121.801348" xlink:href="#m076819e80c" y="286.04551"/>
     <use style="fill:#ff0000;stroke:#ff0000;" x="125.813933" xlink:href="#m076819e80c" y="287.295334"/>
     <use style="fill:#ff0000;stroke:#ff0000;" x="129.826517" xlink:href="#m076819e80c" y="288.223213"/>
     <use style="fill:#ff0000;stroke:#ff0000;" x="133.839101" xlink:href="#m076819e80c" y="289.226859"/>
     <use style="fill:#ff0000;stroke:#ff0000;" x="137.851685" xlink:href="#m076819e80c" y="288.976288"/>
     <use style="fill:#ff0000;stroke:#ff0000;" x="141.86427" xlink:href="#m076819e80c" y="288.61626"/>
     <use style="fill:#ff0000;stroke:#ff0000;" x="145.876854" xlink:href="#m076819e80c" y="288.840532"/>
     <use style="fill:#ff0000;stroke:#ff0000;" x="149.889438" xlink:href="#m076819e80c" y="288.98219"/>
     <use style="fill:#ff0000;stroke:#ff0000;" x="153.902022" xlink:href="#m076819e80c" y="288.583541"/>
     <use style="fill:#ff0000;stroke:#ff0000;" x="157.914607" xlink:href="#m076819e80c" y="287.427971"/>
     <use style="fill:#ff0000;stroke:#ff0000;" x="161.927191" xlink:href="#m076819e80c" y="287.762174"/>
     <use style="fill:#ff0000;stroke:#ff0000;" x="165.939775" xlink:href="#m076819e80c" y="290.790562"/>
     <use style="fill:#ff0000;stroke:#ff0000;" x="169.95236" xlink:href="#m076819e80c" y="292.06161"/>
     <use style="fill:#ff0000;stroke:#ff0000;" x="173.964944" xlink:href="#m076819e80c" y="292.297167"/>
     <use style="fill:#ff0000;stroke:#ff0000;" x="177.977528" xlink:href="#m076819e80c" y="292.546855"/>
     <use style="fill:#ff0000;stroke:#ff0000;" x="181.990112" xlink:href="#m076819e80c" y="292.985324"/>
     <use style="fill:#ff0000;stroke:#ff0000;" x="186.002697" xlink:href="#m076819e80c" y="293.219844"/>
     <use style="fill:#ff0000;stroke:#ff0000;" x="190.015281" xlink:href="#m076819e80c" y="293.576008"/>
     <use style="fill:#ff0000;stroke:#ff0000;" x="194.027865" xlink:href="#m076819e80c" y="293.500069"/>
     <use style="fill:#ff0000;stroke:#ff0000;" x="198.040449" xlink:href="#m076819e80c" y="291.35121"/>
     <use style="fill:#ff0000;stroke:#ff0000;" x="202.053034" xlink:href="#m076819e80c" y="291.271997"/>
     <use style="fill:#ff0000;stroke:#ff0000;" x="206.065618" xlink:href="#m076819e80c" y="291.55715"/>
     <use style="fill:#ff0000;stroke:#ff0000;" x="210.078202" xlink:href="#m076819e80c" y="291.537963"/>
     <use style="fill:#ff0000;stroke:#ff0000;" x="214.090787" xlink:href="#m076819e80c" y="291.43738"/>
     <use style="fill:#ff0000;stroke:#ff0000;" x="218.103371" xlink:href="#m076819e80c" y="292.052516"/>
     <use style="fill:#ff0000;stroke:#ff0000;" x="222.115955" xlink:href="#m076819e80c" y="291.967456"/>
     <use style="fill:#ff0000;stroke:#ff0000;" x="226.128539" xlink:href="#m076819e80c" y="292.504334"/>
     <use style="fill:#ff0000;stroke:#ff0000;" x="230.141124" xlink:href="#m076819e80c" y="292.404633"/>
     <use style="fill:#ff0000;stroke:#ff0000;" x="234.153708" xlink:href="#m076819e80c" y="291.516102"/>
     <use style="fill:#ff0000;stroke:#ff0000;" x="238.166292" xlink:href="#m076819e80c" y="292.614138"/>
     <use style="fill:#ff0000;stroke:#ff0000;" x="242.178876" xlink:href="#m076819e80c" y="292.661206"/>
     <use style="fill:#ff0000;stroke:#ff0000;" x="246.191461" xlink:href="#m076819e80c" y="292.917805"/>
     <use style="fill:#ff0000;stroke:#ff0000;" x="250.204045" xlink:href="#m076819e80c" y="293.223545"/>
     <use style="fill:#ff0000;stroke:#ff0000;" x="254.216629" xlink:href="#m076819e80c" y="292.894889"/>
     <use style="fill:#ff0000;stroke:#ff0000;" x="258.229213" xlink:href="#m076819e80c" y="293.367431"/>
     <use style="fill:#ff0000;stroke:#ff0000;" x="262.241798" xlink:href="#m076819e80c" y="292.975066"/>
     <use style="fill:#ff0000;stroke:#ff0000;" x="266.254382" xlink:href="#m076819e80c" y="291.455185"/>
     <use style="fill:#ff0000;stroke:#ff0000;" x="270.266966" xlink:href="#m076819e80c" y="291.067712"/>
     <use style="fill:#ff0000;stroke:#ff0000;" x="274.279551" xlink:href="#m076819e80c" y="291.10655"/>
     <use style="fill:#ff0000;stroke:#ff0000;" x="278.292135" xlink:href="#m076819e80c" y="291.987634"/>
     <use style="fill:#ff0000;stroke:#ff0000;" x="282.304719" xlink:href="#m076819e80c" y="292.141841"/>
     <use style="fill:#ff0000;stroke:#ff0000;" x="286.317303" xlink:href="#m076819e80c" y="291.461678"/>
     <use style="fill:#ff0000;stroke:#ff0000;" x="290.329888" xlink:href="#m076819e80c" y="292.13875"/>
     <use style="fill:#ff0000;stroke:#ff0000;" x="294.342472" xlink:href="#m076819e80c" y="292.640854"/>
     <use style="fill:#ff0000;stroke:#ff0000;" x="298.355056" xlink:href="#m076819e80c" y="292.657795"/>
     <use style="fill:#ff0000;stroke:#ff0000;" x="302.36764" xlink:href="#m076819e80c" y="292.557013"/>
     <use style="fill:#ff0000;stroke:#ff0000;" x="306.380225" xlink:href="#m076819e80c" y="292.75325"/>
     <use style="fill:#ff0000;stroke:#ff0000;" x="310.392809" xlink:href="#m076819e80c" y="292.737309"/>
     <use style="fill:#ff0000;stroke:#ff0000;" x="314.405393" xlink:href="#m076819e80c" y="292.918887"/>
     <use style="fill:#ff0000;stroke:#ff0000;" x="318.417978" xlink:href="#m076819e80c" y="293.108404"/>
     <use style="fill:#ff0000;stroke:#ff0000;" x="322.430562" xlink:href="#m076819e80c" y="292.95066"/>
     <use style="fill:#ff0000;stroke:#ff0000;" x="326.443146" xlink:href="#m076819e80c" y="293.098538"/>
     <use style="fill:#ff0000;stroke:#ff0000;" x="330.45573" xlink:href="#m076819e80c" y="292.966946"/>
     <use style="fill:#ff0000;stroke:#ff0000;" x="334.468315" xlink:href="#m076819e80c" y="292.986361"/>
     <use style="fill:#ff0000;stroke:#ff0000;" x="338.480899" xlink:href="#m076819e80c" y="292.879512"/>
     <use style="fill:#ff0000;stroke:#ff0000;" x="342.493483" xlink:href="#m076819e80c" y="292.954579"/>
     <use style="fill:#ff0000;stroke:#ff0000;" x="346.506067" xlink:href="#m076819e80c" y="292.939102"/>
     <use style="fill:#ff0000;stroke:#ff0000;" x="350.518652" xlink:href="#m076819e80c" y="292.966028"/>
     <use style="fill:#ff0000;stroke:#ff0000;" x="354.531236" xlink:href="#m076819e80c" y="293.438788"/>
     <use style="fill:#ff0000;stroke:#ff0000;" x="358.54382" xlink:href="#m076819e80c" y="293.246788"/>
     <use style="fill:#ff0000;stroke:#ff0000;" x="362.556404" xlink:href="#m076819e80c" y="293.344889"/>
     <use style="fill:#ff0000;stroke:#ff0000;" x="366.568989" xlink:href="#m076819e80c" y="293.729851"/>
     <use style="fill:#ff0000;stroke:#ff0000;" x="370.581573" xlink:href="#m076819e80c" y="292.549565"/>
     <use style="fill:#ff0000;stroke:#ff0000;" x="374.594157" xlink:href="#m076819e80c" y="292.952978"/>
     <use style="fill:#ff0000;stroke:#ff0000;" x="378.606742" xlink:href="#m076819e80c" y="293.81342"/>
     <use style="fill:#ff0000;stroke:#ff0000;" x="382.619326" xlink:href="#m076819e80c" y="293.770317"/>
     <use style="fill:#ff0000;stroke:#ff0000;" x="386.63191" xlink:href="#m076819e80c" y="293.722131"/>
     <use style="fill:#ff0000;stroke:#ff0000;" x="390.644494" xlink:href="#m076819e80c" y="291.234495"/>
     <use style="fill:#ff0000;stroke:#ff0000;" x="394.657079" xlink:href="#m076819e80c" y="291.948251"/>
     <use style="fill:#ff0000;stroke:#ff0000;" x="398.669663" xlink:href="#m076819e80c" y="290.8621"/>
     <use style="fill:#ff0000;stroke:#ff0000;" x="402.682247" xlink:href="#m076819e80c" y="291.922471"/>
     <use style="fill:#ff0000;stroke:#ff0000;" x="406.694831" xlink:href="#m076819e80c" y="289.906831"/>
     <use style="fill:#ff0000;stroke:#ff0000;" x="410.707416" xlink:href="#m076819e80c" y="291.672446"/>
    </g>
   </g>
   <g id="line2d_59">
    <path clip-path="url(#p8e1d98587f)" d="M 61.612584 69.123535 
L 65.625169 181.991889 
L 69.637753 221.598484 
L 73.650337 243.515825 
L 77.662921 255.289525 
L 81.675506 262.826757 
L 85.68809 269.84267 
L 89.700674 274.353406 
L 93.713258 277.671452 
L 97.725843 280.654567 
L 101.738427 283.037514 
L 105.751011 283.615736 
L 109.763596 285.59231 
L 113.77618 286.049447 
L 117.788764 285.844281 
L 121.801348 287.012791 
L 125.813933 288.139667 
L 129.826517 289.092894 
L 133.839101 289.974919 
L 137.851685 289.827441 
L 141.86427 289.655247 
L 145.876854 290.163799 
L 149.889438 290.198691 
L 153.902022 289.870353 
L 157.914607 288.673608 
L 161.927191 288.741327 
L 165.939775 291.735191 
L 169.95236 293.076786 
L 173.964944 293.39046 
L 177.977528 293.606976 
L 181.990112 294.079791 
L 186.002697 294.334385 
L 190.015281 294.493284 
L 194.027865 294.494034 
L 198.040449 292.217531 
L 202.053034 292.155686 
L 206.065618 292.311303 
L 210.078202 292.298444 
L 214.090787 292.239446 
L 218.103371 292.838019 
L 222.115955 292.851504 
L 226.128539 293.215561 
L 230.141124 293.175877 
L 234.153708 292.847026 
L 238.166292 293.33113 
L 242.178876 293.256291 
L 246.191461 293.411039 
L 250.204045 293.464559 
L 254.216629 293.151843 
L 258.229213 293.313894 
L 262.241798 293.055921 
L 266.254382 292.271732 
L 270.266966 291.927618 
L 274.279551 291.918465 
L 278.292135 291.347973 
L 282.304719 292.219095 
L 286.317303 291.137482 
L 290.329888 292.332695 
L 294.342472 292.298185 
L 298.355056 292.356402 
L 302.36764 291.839179 
L 306.380225 292.39474 
L 310.392809 291.975135 
L 314.405393 292.222169 
L 318.417978 292.281358 
L 322.430562 292.276079 
L 326.443146 291.794044 
L 330.45573 292.180325 
L 334.468315 292.313194 
L 338.480899 292.093319 
L 342.493483 292.29874 
L 346.506067 292.164416 
L 350.518652 292.333941 
L 354.531236 292.44359 
L 358.54382 292.481378 
L 362.556404 292.413363 
L 366.568989 292.528873 
L 370.581573 291.550462 
L 374.594157 291.579383 
L 378.606742 292.435151 
L 382.619326 291.680248 
L 386.63191 292.054649 
L 390.644494 289.694417 
L 394.657079 291.080984 
L 398.669663 290.470635 
L 402.682247 290.530943 
L 406.694831 289.658139 
L 410.707416 289.980443 
" style="fill:none;stroke:#008000;stroke-dasharray:1.5,2.475;stroke-dashoffset:0;stroke-width:1.5;"/>
    <defs>
     <path d="M 0 1.5 
C 0.397805 1.5 0.77937 1.341951 1.06066 1.06066 
C 1.341951 0.77937 1.5 0.397805 1.5 0 
C 1.5 -0.397805 1.341951 -0.77937 1.06066 -1.06066 
C 0.77937 -1.341951 0.397805 -1.5 0 -1.5 
C -0.397805 -1.5 -0.77937 -1.341951 -1.06066 -1.06066 
C -1.341951 -0.77937 -1.5 -0.397805 -1.5 0 
C -1.5 0.397805 -1.341951 0.77937 -1.06066 1.06066 
C -0.77937 1.341951 -0.397805 1.5 0 1.5 
z
" id="mf6e610e65a" style="stroke:#008000;"/>
    </defs>
    <g clip-path="url(#p8e1d98587f)">
     <use style="fill:#008000;stroke:#008000;" x="61.612584" xlink:href="#mf6e610e65a" y="69.123535"/>
     <use style="fill:#008000;stroke:#008000;" x="65.625169" xlink:href="#mf6e610e65a" y="181.991889"/>
     <use style="fill:#008000;stroke:#008000;" x="69.637753" xlink:href="#mf6e610e65a" y="221.598484"/>
     <use style="fill:#008000;stroke:#008000;" x="73.650337" xlink:href="#mf6e610e65a" y="243.515825"/>
     <use style="fill:#008000;stroke:#008000;" x="77.662921" xlink:href="#mf6e610e65a" y="255.289525"/>
     <use style="fill:#008000;stroke:#008000;" x="81.675506" xlink:href="#mf6e610e65a" y="262.826757"/>
     <use style="fill:#008000;stroke:#008000;" x="85.68809" xlink:href="#mf6e610e65a" y="269.84267"/>
     <use style="fill:#008000;stroke:#008000;" x="89.700674" xlink:href="#mf6e610e65a" y="274.353406"/>
     <use style="fill:#008000;stroke:#008000;" x="93.713258" xlink:href="#mf6e610e65a" y="277.671452"/>
     <use style="fill:#008000;stroke:#008000;" x="97.725843" xlink:href="#mf6e610e65a" y="280.654567"/>
     <use style="fill:#008000;stroke:#008000;" x="101.738427" xlink:href="#mf6e610e65a" y="283.037514"/>
     <use style="fill:#008000;stroke:#008000;" x="105.751011" xlink:href="#mf6e610e65a" y="283.615736"/>
     <use style="fill:#008000;stroke:#008000;" x="109.763596" xlink:href="#mf6e610e65a" y="285.59231"/>
     <use style="fill:#008000;stroke:#008000;" x="113.77618" xlink:href="#mf6e610e65a" y="286.049447"/>
     <use style="fill:#008000;stroke:#008000;" x="117.788764" xlink:href="#mf6e610e65a" y="285.844281"/>
     <use style="fill:#008000;stroke:#008000;" x="121.801348" xlink:href="#mf6e610e65a" y="287.012791"/>
     <use style="fill:#008000;stroke:#008000;" x="125.813933" xlink:href="#mf6e610e65a" y="288.139667"/>
     <use style="fill:#008000;stroke:#008000;" x="129.826517" xlink:href="#mf6e610e65a" y="289.092894"/>
     <use style="fill:#008000;stroke:#008000;" x="133.839101" xlink:href="#mf6e610e65a" y="289.974919"/>
     <use style="fill:#008000;stroke:#008000;" x="137.851685" xlink:href="#mf6e610e65a" y="289.827441"/>
     <use style="fill:#008000;stroke:#008000;" x="141.86427" xlink:href="#mf6e610e65a" y="289.655247"/>
     <use style="fill:#008000;stroke:#008000;" x="145.876854" xlink:href="#mf6e610e65a" y="290.163799"/>
     <use style="fill:#008000;stroke:#008000;" x="149.889438" xlink:href="#mf6e610e65a" y="290.198691"/>
     <use style="fill:#008000;stroke:#008000;" x="153.902022" xlink:href="#mf6e610e65a" y="289.870353"/>
     <use style="fill:#008000;stroke:#008000;" x="157.914607" xlink:href="#mf6e610e65a" y="288.673608"/>
     <use style="fill:#008000;stroke:#008000;" x="161.927191" xlink:href="#mf6e610e65a" y="288.741327"/>
     <use style="fill:#008000;stroke:#008000;" x="165.939775" xlink:href="#mf6e610e65a" y="291.735191"/>
     <use style="fill:#008000;stroke:#008000;" x="169.95236" xlink:href="#mf6e610e65a" y="293.076786"/>
     <use style="fill:#008000;stroke:#008000;" x="173.964944" xlink:href="#mf6e610e65a" y="293.39046"/>
     <use style="fill:#008000;stroke:#008000;" x="177.977528" xlink:href="#mf6e610e65a" y="293.606976"/>
     <use style="fill:#008000;stroke:#008000;" x="181.990112" xlink:href="#mf6e610e65a" y="294.079791"/>
     <use style="fill:#008000;stroke:#008000;" x="186.002697" xlink:href="#mf6e610e65a" y="294.334385"/>
     <use style="fill:#008000;stroke:#008000;" x="190.015281" xlink:href="#mf6e610e65a" y="294.493284"/>
     <use style="fill:#008000;stroke:#008000;" x="194.027865" xlink:href="#mf6e610e65a" y="294.494034"/>
     <use style="fill:#008000;stroke:#008000;" x="198.040449" xlink:href="#mf6e610e65a" y="292.217531"/>
     <use style="fill:#008000;stroke:#008000;" x="202.053034" xlink:href="#mf6e610e65a" y="292.155686"/>
     <use style="fill:#008000;stroke:#008000;" x="206.065618" xlink:href="#mf6e610e65a" y="292.311303"/>
     <use style="fill:#008000;stroke:#008000;" x="210.078202" xlink:href="#mf6e610e65a" y="292.298444"/>
     <use style="fill:#008000;stroke:#008000;" x="214.090787" xlink:href="#mf6e610e65a" y="292.239446"/>
     <use style="fill:#008000;stroke:#008000;" x="218.103371" xlink:href="#mf6e610e65a" y="292.838019"/>
     <use style="fill:#008000;stroke:#008000;" x="222.115955" xlink:href="#mf6e610e65a" y="292.851504"/>
     <use style="fill:#008000;stroke:#008000;" x="226.128539" xlink:href="#mf6e610e65a" y="293.215561"/>
     <use style="fill:#008000;stroke:#008000;" x="230.141124" xlink:href="#mf6e610e65a" y="293.175877"/>
     <use style="fill:#008000;stroke:#008000;" x="234.153708" xlink:href="#mf6e610e65a" y="292.847026"/>
     <use style="fill:#008000;stroke:#008000;" x="238.166292" xlink:href="#mf6e610e65a" y="293.33113"/>
     <use style="fill:#008000;stroke:#008000;" x="242.178876" xlink:href="#mf6e610e65a" y="293.256291"/>
     <use style="fill:#008000;stroke:#008000;" x="246.191461" xlink:href="#mf6e610e65a" y="293.411039"/>
     <use style="fill:#008000;stroke:#008000;" x="250.204045" xlink:href="#mf6e610e65a" y="293.464559"/>
     <use style="fill:#008000;stroke:#008000;" x="254.216629" xlink:href="#mf6e610e65a" y="293.151843"/>
     <use style="fill:#008000;stroke:#008000;" x="258.229213" xlink:href="#mf6e610e65a" y="293.313894"/>
     <use style="fill:#008000;stroke:#008000;" x="262.241798" xlink:href="#mf6e610e65a" y="293.055921"/>
     <use style="fill:#008000;stroke:#008000;" x="266.254382" xlink:href="#mf6e610e65a" y="292.271732"/>
     <use style="fill:#008000;stroke:#008000;" x="270.266966" xlink:href="#mf6e610e65a" y="291.927618"/>
     <use style="fill:#008000;stroke:#008000;" x="274.279551" xlink:href="#mf6e610e65a" y="291.918465"/>
     <use style="fill:#008000;stroke:#008000;" x="278.292135" xlink:href="#mf6e610e65a" y="291.347973"/>
     <use style="fill:#008000;stroke:#008000;" x="282.304719" xlink:href="#mf6e610e65a" y="292.219095"/>
     <use style="fill:#008000;stroke:#008000;" x="286.317303" xlink:href="#mf6e610e65a" y="291.137482"/>
     <use style="fill:#008000;stroke:#008000;" x="290.329888" xlink:href="#mf6e610e65a" y="292.332695"/>
     <use style="fill:#008000;stroke:#008000;" x="294.342472" xlink:href="#mf6e610e65a" y="292.298185"/>
     <use style="fill:#008000;stroke:#008000;" x="298.355056" xlink:href="#mf6e610e65a" y="292.356402"/>
     <use style="fill:#008000;stroke:#008000;" x="302.36764" xlink:href="#mf6e610e65a" y="291.839179"/>
     <use style="fill:#008000;stroke:#008000;" x="306.380225" xlink:href="#mf6e610e65a" y="292.39474"/>
     <use style="fill:#008000;stroke:#008000;" x="310.392809" xlink:href="#mf6e610e65a" y="291.975135"/>
     <use style="fill:#008000;stroke:#008000;" x="314.405393" xlink:href="#mf6e610e65a" y="292.222169"/>
     <use style="fill:#008000;stroke:#008000;" x="318.417978" xlink:href="#mf6e610e65a" y="292.281358"/>
     <use style="fill:#008000;stroke:#008000;" x="322.430562" xlink:href="#mf6e610e65a" y="292.276079"/>
     <use style="fill:#008000;stroke:#008000;" x="326.443146" xlink:href="#mf6e610e65a" y="291.794044"/>
     <use style="fill:#008000;stroke:#008000;" x="330.45573" xlink:href="#mf6e610e65a" y="292.180325"/>
     <use style="fill:#008000;stroke:#008000;" x="334.468315" xlink:href="#mf6e610e65a" y="292.313194"/>
     <use style="fill:#008000;stroke:#008000;" x="338.480899" xlink:href="#mf6e610e65a" y="292.093319"/>
     <use style="fill:#008000;stroke:#008000;" x="342.493483" xlink:href="#mf6e610e65a" y="292.29874"/>
     <use style="fill:#008000;stroke:#008000;" x="346.506067" xlink:href="#mf6e610e65a" y="292.164416"/>
     <use style="fill:#008000;stroke:#008000;" x="350.518652" xlink:href="#mf6e610e65a" y="292.333941"/>
     <use style="fill:#008000;stroke:#008000;" x="354.531236" xlink:href="#mf6e610e65a" y="292.44359"/>
     <use style="fill:#008000;stroke:#008000;" x="358.54382" xlink:href="#mf6e610e65a" y="292.481378"/>
     <use style="fill:#008000;stroke:#008000;" x="362.556404" xlink:href="#mf6e610e65a" y="292.413363"/>
     <use style="fill:#008000;stroke:#008000;" x="366.568989" xlink:href="#mf6e610e65a" y="292.528873"/>
     <use style="fill:#008000;stroke:#008000;" x="370.581573" xlink:href="#mf6e610e65a" y="291.550462"/>
     <use style="fill:#008000;stroke:#008000;" x="374.594157" xlink:href="#mf6e610e65a" y="291.579383"/>
     <use style="fill:#008000;stroke:#008000;" x="378.606742" xlink:href="#mf6e610e65a" y="292.435151"/>
     <use style="fill:#008000;stroke:#008000;" x="382.619326" xlink:href="#mf6e610e65a" y="291.680248"/>
     <use style="fill:#008000;stroke:#008000;" x="386.63191" xlink:href="#mf6e610e65a" y="292.054649"/>
     <use style="fill:#008000;stroke:#008000;" x="390.644494" xlink:href="#mf6e610e65a" y="289.694417"/>
     <use style="fill:#008000;stroke:#008000;" x="394.657079" xlink:href="#mf6e610e65a" y="291.080984"/>
     <use style="fill:#008000;stroke:#008000;" x="398.669663" xlink:href="#mf6e610e65a" y="290.470635"/>
     <use style="fill:#008000;stroke:#008000;" x="402.682247" xlink:href="#mf6e610e65a" y="290.530943"/>
     <use style="fill:#008000;stroke:#008000;" x="406.694831" xlink:href="#mf6e610e65a" y="289.658139"/>
     <use style="fill:#008000;stroke:#008000;" x="410.707416" xlink:href="#mf6e610e65a" y="289.980443"/>
    </g>
   </g>
   <g id="patch_3">
    <path d="M 57.6 307.584 
L 57.6 41.472 
" style="fill:none;stroke:#000000;stroke-linecap:square;stroke-linejoin:miter;stroke-width:0.8;"/>
   </g>
   <g id="patch_4">
    <path d="M 414.72 307.584 
L 414.72 41.472 
" style="fill:none;stroke:#000000;stroke-linecap:square;stroke-linejoin:miter;stroke-width:0.8;"/>
   </g>
   <g id="patch_5">
    <path d="M 57.6 307.584 
L 414.72 307.584 
" style="fill:none;stroke:#000000;stroke-linecap:square;stroke-linejoin:miter;stroke-width:0.8;"/>
   </g>
   <g id="patch_6">
    <path d="M 57.6 41.472 
L 414.72 41.472 
" style="fill:none;stroke:#000000;stroke-linecap:square;stroke-linejoin:miter;stroke-width:0.8;"/>
   </g>
   <g id="text_31">
    <!-- radix sort 8 on pre_transpose41 -->
    <g transform="translate(140.265938 35.472)scale(0.12 -0.12)">
     <defs>
      <path d="M 54.890625 54.6875 
L 35.109375 28.078125 
L 55.90625 0 
L 45.3125 0 
L 29.390625 21.484375 
L 13.484375 0 
L 2.875 0 
L 24.125 28.609375 
L 4.6875 54.6875 
L 15.28125 54.6875 
L 29.78125 35.203125 
L 44.28125 54.6875 
z
" id="DejaVuSans-120"/>
      <path d="M 18.109375 8.203125 
L 18.109375 -20.796875 
L 9.078125 -20.796875 
L 9.078125 54.6875 
L 18.109375 54.6875 
L 18.109375 46.390625 
Q 20.953125 51.265625 25.265625 53.625 
Q 29.59375 56 35.59375 56 
Q 45.5625 56 51.78125 48.09375 
Q 58.015625 40.1875 58.015625 27.296875 
Q 58.015625 14.40625 51.78125 6.484375 
Q 45.5625 -1.421875 35.59375 -1.421875 
Q 29.59375 -1.421875 25.265625 0.953125 
Q 20.953125 3.328125 18.109375 8.203125 
z
M 48.6875 27.296875 
Q 48.6875 37.203125 44.609375 42.84375 
Q 40.53125 48.484375 33.40625 48.484375 
Q 26.265625 48.484375 22.1875 42.84375 
Q 18.109375 37.203125 18.109375 27.296875 
Q 18.109375 17.390625 22.1875 11.75 
Q 26.265625 6.109375 33.40625 6.109375 
Q 40.53125 6.109375 44.609375 11.75 
Q 48.6875 17.390625 48.6875 27.296875 
z
" id="DejaVuSans-112"/>
      <path d="M 50.984375 -16.609375 
L 50.984375 -23.578125 
L -0.984375 -23.578125 
L -0.984375 -16.609375 
z
" id="DejaVuSans-95"/>
     </defs>
     <use xlink:href="#DejaVuSans-114"/>
     <use x="41.113281" xlink:href="#DejaVuSans-97"/>
     <use x="102.392578" xlink:href="#DejaVuSans-100"/>
     <use x="165.869141" xlink:href="#DejaVuSans-105"/>
     <use x="193.652344" xlink:href="#DejaVuSans-120"/>
     <use x="252.832031" xlink:href="#DejaVuSans-32"/>
     <use x="284.619141" xlink:href="#DejaVuSans-115"/>
     <use x="336.71875" xlink:href="#DejaVuSans-111"/>
     <use x="397.900391" xlink:href="#DejaVuSans-114"/>
     <use x="439.013672" xlink:href="#DejaVuSans-116"/>
     <use x="478.222656" xlink:href="#DejaVuSans-32"/>
     <use x="510.009766" xlink:href="#DejaVuSans-56"/>
     <use x="573.632812" xlink:href="#DejaVuSans-32"/>
     <use x="605.419922" xlink:href="#DejaVuSans-111"/>
     <use x="666.601562" xlink:href="#DejaVuSans-110"/>
     <use x="729.980469" xlink:href="#DejaVuSans-32"/>
     <use x="761.767578" xlink:href="#DejaVuSans-112"/>
     <use x="825.244141" xlink:href="#DejaVuSans-114"/>
     <use x="864.107422" xlink:href="#DejaVuSans-101"/>
     <use x="925.630859" xlink:href="#DejaVuSans-95"/>
     <use x="975.630859" xlink:href="#DejaVuSans-116"/>
     <use x="1014.839844" xlink:href="#DejaVuSans-114"/>
     <use x="1055.953125" xlink:href="#DejaVuSans-97"/>
     <use x="1117.232422" xlink:href="#DejaVuSans-110"/>
     <use x="1180.611328" xlink:href="#DejaVuSans-115"/>
     <use x="1232.710938" xlink:href="#DejaVuSans-112"/>
     <use x="1296.1875" xlink:href="#DejaVuSans-111"/>
     <use x="1357.369141" xlink:href="#DejaVuSans-115"/>
     <use x="1409.46875" xlink:href="#DejaVuSans-101"/>
     <use x="1470.992188" xlink:href="#DejaVuSans-52"/>
     <use x="1534.615234" xlink:href="#DejaVuSans-49"/>
    </g>
   </g>
   <g id="legend_1">
    <g id="patch_7">
     <path d="M 313.152813 93.7845 
L 407.72 93.7845 
Q 409.72 93.7845 409.72 91.7845 
L 409.72 48.472 
Q 409.72 46.472 407.72 46.472 
L 313.152813 46.472 
Q 311.152813 46.472 311.152813 48.472 
L 311.152813 91.7845 
Q 311.152813 93.7845 313.152813 93.7845 
z
" style="fill:#ffffff;opacity:0.8;stroke:#cccccc;stroke-linejoin:miter;"/>
    </g>
    <g id="line2d_60">
     <path d="M 315.152813 54.570438 
L 335.152813 54.570438 
" style="fill:none;stroke:#0000ff;stroke-dasharray:1.5,2.475;stroke-dashoffset:0;stroke-width:1.5;"/>
    </g>
    <g id="line2d_61">
     <g>
      <use style="fill:#0000ff;stroke:#0000ff;" x="325.152813" xlink:href="#mfdde812fd6" y="54.570438"/>
     </g>
    </g>
    <g id="text_32">
     <!-- transpose -->
     <g transform="translate(343.152813 58.070438)scale(0.1 -0.1)">
      <use xlink:href="#DejaVuSans-116"/>
      <use x="39.208984" xlink:href="#DejaVuSans-114"/>
      <use x="80.322266" xlink:href="#DejaVuSans-97"/>
      <use x="141.601562" xlink:href="#DejaVuSans-110"/>
      <use x="204.980469" xlink:href="#DejaVuSans-115"/>
      <use x="257.080078" xlink:href="#DejaVuSans-112"/>
      <use x="320.556641" xlink:href="#DejaVuSans-111"/>
      <use x="381.738281" xlink:href="#DejaVuSans-115"/>
      <use x="433.837891" xlink:href="#DejaVuSans-101"/>
     </g>
    </g>
    <g id="line2d_62">
     <path d="M 315.152813 69.248563 
L 335.152813 69.248563 
" style="fill:none;stroke:#ff0000;stroke-dasharray:1.5,2.475;stroke-dashoffset:0;stroke-width:1.5;"/>
    </g>
    <g id="line2d_63">
     <g>
      <use style="fill:#ff0000;stroke:#ff0000;" x="325.152813" xlink:href="#m076819e80c" y="69.248563"/>
     </g>
    </g>
    <g id="text_33">
     <!-- transpose_tr -->
     <g transform="translate(343.152813 72.748563)scale(0.1 -0.1)">
      <use xlink:href="#DejaVuSans-116"/>
      <use x="39.208984" xlink:href="#DejaVuSans-114"/>
      <use x="80.322266" xlink:href="#DejaVuSans-97"/>
      <use x="141.601562" xlink:href="#DejaVuSans-110"/>
      <use x="204.980469" xlink:href="#DejaVuSans-115"/>
      <use x="257.080078" xlink:href="#DejaVuSans-112"/>
      <use x="320.556641" xlink:href="#DejaVuSans-111"/>
      <use x="381.738281" xlink:href="#DejaVuSans-115"/>
      <use x="433.837891" xlink:href="#DejaVuSans-101"/>
      <use x="495.361328" xlink:href="#DejaVuSans-95"/>
      <use x="545.361328" xlink:href="#DejaVuSans-116"/>
      <use x="584.570312" xlink:href="#DejaVuSans-114"/>
     </g>
    </g>
    <g id="line2d_64">
     <path d="M 315.152813 84.204813 
L 335.152813 84.204813 
" style="fill:none;stroke:#008000;stroke-dasharray:1.5,2.475;stroke-dashoffset:0;stroke-width:1.5;"/>
    </g>
    <g id="line2d_65">
     <g>
      <use style="fill:#008000;stroke:#008000;" x="325.152813" xlink:href="#mf6e610e65a" y="84.204813"/>
     </g>
    </g>
    <g id="text_34">
     <!-- mean -->
     <g transform="translate(343.152813 87.704813)scale(0.1 -0.1)">
      <defs>
       <path d="M 52 44.1875 
Q 55.375 50.25 60.0625 53.125 
Q 64.75 56 71.09375 56 
Q 79.640625 56 84.28125 50.015625 
Q 88.921875 44.046875 88.921875 33.015625 
L 88.921875 0 
L 79.890625 0 
L 79.890625 32.71875 
Q 79.890625 40.578125 77.09375 44.375 
Q 74.3125 48.1875 68.609375 48.1875 
Q 61.625 48.1875 57.5625 43.546875 
Q 53.515625 38.921875 53.515625 30.90625 
L 53.515625 0 
L 44.484375 0 
L 44.484375 32.71875 
Q 44.484375 40.625 41.703125 44.40625 
Q 38.921875 48.1875 33.109375 48.1875 
Q 26.21875 48.1875 22.15625 43.53125 
Q 18.109375 38.875 18.109375 30.90625 
L 18.109375 0 
L 9.078125 0 
L 9.078125 54.6875 
L 18.109375 54.6875 
L 18.109375 46.1875 
Q 21.1875 51.21875 25.484375 53.609375 
Q 29.78125 56 35.6875 56 
Q 41.65625 56 45.828125 52.96875 
Q 50 49.953125 52 44.1875 
z
" id="DejaVuSans-109"/>
      </defs>
      <use xlink:href="#DejaVuSans-109"/>
      <use x="97.412109" xlink:href="#DejaVuSans-101"/>
      <use x="158.935547" xlink:href="#DejaVuSans-97"/>
      <use x="220.214844" xlink:href="#DejaVuSans-110"/>
     </g>
    </g>
   </g>
  </g>
 </g>
 <defs>
  <clipPath id="p8e1d98587f">
   <rect height="266.112" width="357.12" x="57.6" y="41.472"/>
  </clipPath>
 </defs>
</svg>
