<?xml version="1.0" encoding="utf-8" standalone="no"?>
<!DOCTYPE svg PUBLIC "-//W3C//DTD SVG 1.1//EN"
  "http://www.w3.org/Graphics/SVG/1.1/DTD/svg11.dtd">
<!-- Created with matplotlib (https://matplotlib.org/) -->
<svg height="576pt" version="1.1" viewBox="0 0 576 576" width="576pt" xmlns="http://www.w3.org/2000/svg" xmlns:xlink="http://www.w3.org/1999/xlink">
 <defs>
  <style type="text/css">
*{stroke-linecap:butt;stroke-linejoin:round;}
  </style>
 </defs>
 <g id="figure_1">
  <g id="patch_1">
   <path d="M 0 576 
L 576 576 
L 576 0 
L 0 0 
z
" style="fill:#ffffff;"/>
  </g>
  <g id="axes_1">
   <g id="patch_2">
    <path d="M 72 512.64 
L 518.4 512.64 
L 518.4 69.12 
L 72 69.12 
z
" style="fill:#ffffff;"/>
   </g>
   <g id="matplotlib.axis_1">
    <g id="xtick_1">
     <g id="line2d_1">
      <path clip-path="url(#pedd837dbcd)" d="M 109.2 512.64 
L 109.2 69.12 
" style="fill:none;stroke:#b0b0b0;stroke-dasharray:5.12,1.28,0.8,1.28;stroke-dashoffset:0;stroke-width:0.8;"/>
     </g>
     <g id="line2d_2">
      <defs>
       <path d="M 0 0 
L 0 3.5 
" id="md049b8eeb9" style="stroke:#000000;stroke-width:0.8;"/>
      </defs>
      <g>
       <use style="stroke:#000000;stroke-width:0.8;" x="109.2" xlink:href="#md049b8eeb9" y="512.64"/>
      </g>
     </g>
     <g id="text_1">
      <!-- Gustavson O2 -->
      <defs>
       <path d="M 59.515625 10.40625 
L 59.515625 29.984375 
L 43.40625 29.984375 
L 43.40625 38.09375 
L 69.28125 38.09375 
L 69.28125 6.78125 
Q 63.578125 2.734375 56.6875 0.65625 
Q 49.8125 -1.421875 42 -1.421875 
Q 24.90625 -1.421875 15.25 8.5625 
Q 5.609375 18.5625 5.609375 36.375 
Q 5.609375 54.25 15.25 64.234375 
Q 24.90625 74.21875 42 74.21875 
Q 49.125 74.21875 55.546875 72.453125 
Q 61.96875 70.703125 67.390625 67.28125 
L 67.390625 56.78125 
Q 61.921875 61.421875 55.765625 63.765625 
Q 49.609375 66.109375 42.828125 66.109375 
Q 29.4375 66.109375 22.71875 58.640625 
Q 16.015625 51.171875 16.015625 36.375 
Q 16.015625 21.625 22.71875 14.15625 
Q 29.4375 6.6875 42.828125 6.6875 
Q 48.046875 6.6875 52.140625 7.59375 
Q 56.25 8.5 59.515625 10.40625 
z
" id="DejaVuSans-71"/>
       <path d="M 8.5 21.578125 
L 8.5 54.6875 
L 17.484375 54.6875 
L 17.484375 21.921875 
Q 17.484375 14.15625 20.5 10.265625 
Q 23.53125 6.390625 29.59375 6.390625 
Q 36.859375 6.390625 41.078125 11.03125 
Q 45.3125 15.671875 45.3125 23.6875 
L 45.3125 54.6875 
L 54.296875 54.6875 
L 54.296875 0 
L 45.3125 0 
L 45.3125 8.40625 
Q 42.046875 3.421875 37.71875 1 
Q 33.40625 -1.421875 27.6875 -1.421875 
Q 18.265625 -1.421875 13.375 4.4375 
Q 8.5 10.296875 8.5 21.578125 
z
M 31.109375 56 
z
" id="DejaVuSans-117"/>
       <path d="M 44.28125 53.078125 
L 44.28125 44.578125 
Q 40.484375 46.53125 36.375 47.5 
Q 32.28125 48.484375 27.875 48.484375 
Q 21.1875 48.484375 17.84375 46.4375 
Q 14.5 44.390625 14.5 40.28125 
Q 14.5 37.15625 16.890625 35.375 
Q 19.28125 33.59375 26.515625 31.984375 
L 29.59375 31.296875 
Q 39.15625 29.25 43.1875 25.515625 
Q 47.21875 21.78125 47.21875 15.09375 
Q 47.21875 7.46875 41.1875 3.015625 
Q 35.15625 -1.421875 24.609375 -1.421875 
Q 20.21875 -1.421875 15.453125 -0.5625 
Q 10.6875 0.296875 5.421875 2 
L 5.421875 11.28125 
Q 10.40625 8.6875 15.234375 7.390625 
Q 20.0625 6.109375 24.8125 6.109375 
Q 31.15625 6.109375 34.5625 8.28125 
Q 37.984375 10.453125 37.984375 14.40625 
Q 37.984375 18.0625 35.515625 20.015625 
Q 33.0625 21.96875 24.703125 23.78125 
L 21.578125 24.515625 
Q 13.234375 26.265625 9.515625 29.90625 
Q 5.8125 33.546875 5.8125 39.890625 
Q 5.8125 47.609375 11.28125 51.796875 
Q 16.75 56 26.8125 56 
Q 31.78125 56 36.171875 55.265625 
Q 40.578125 54.546875 44.28125 53.078125 
z
" id="DejaVuSans-115"/>
       <path d="M 18.3125 70.21875 
L 18.3125 54.6875 
L 36.8125 54.6875 
L 36.8125 47.703125 
L 18.3125 47.703125 
L 18.3125 18.015625 
Q 18.3125 11.328125 20.140625 9.421875 
Q 21.96875 7.515625 27.59375 7.515625 
L 36.8125 7.515625 
L 36.8125 0 
L 27.59375 0 
Q 17.1875 0 13.234375 3.875 
Q 9.28125 7.765625 9.28125 18.015625 
L 9.28125 47.703125 
L 2.6875 47.703125 
L 2.6875 54.6875 
L 9.28125 54.6875 
L 9.28125 70.21875 
z
" id="DejaVuSans-116"/>
       <path d="M 34.28125 27.484375 
Q 23.390625 27.484375 19.1875 25 
Q 14.984375 22.515625 14.984375 16.5 
Q 14.984375 11.71875 18.140625 8.90625 
Q 21.296875 6.109375 26.703125 6.109375 
Q 34.1875 6.109375 38.703125 11.40625 
Q 43.21875 16.703125 43.21875 25.484375 
L 43.21875 27.484375 
z
M 52.203125 31.203125 
L 52.203125 0 
L 43.21875 0 
L 43.21875 8.296875 
Q 40.140625 3.328125 35.546875 0.953125 
Q 30.953125 -1.421875 24.3125 -1.421875 
Q 15.921875 -1.421875 10.953125 3.296875 
Q 6 8.015625 6 15.921875 
Q 6 25.140625 12.171875 29.828125 
Q 18.359375 34.515625 30.609375 34.515625 
L 43.21875 34.515625 
L 43.21875 35.40625 
Q 43.21875 41.609375 39.140625 45 
Q 35.0625 48.390625 27.6875 48.390625 
Q 23 48.390625 18.546875 47.265625 
Q 14.109375 46.140625 10.015625 43.890625 
L 10.015625 52.203125 
Q 14.9375 54.109375 19.578125 55.046875 
Q 24.21875 56 28.609375 56 
Q 40.484375 56 46.34375 49.84375 
Q 52.203125 43.703125 52.203125 31.203125 
z
" id="DejaVuSans-97"/>
       <path d="M 2.984375 54.6875 
L 12.5 54.6875 
L 29.59375 8.796875 
L 46.6875 54.6875 
L 56.203125 54.6875 
L 35.6875 0 
L 23.484375 0 
z
" id="DejaVuSans-118"/>
       <path d="M 30.609375 48.390625 
Q 23.390625 48.390625 19.1875 42.75 
Q 14.984375 37.109375 14.984375 27.296875 
Q 14.984375 17.484375 19.15625 11.84375 
Q 23.34375 6.203125 30.609375 6.203125 
Q 37.796875 6.203125 41.984375 11.859375 
Q 46.1875 17.53125 46.1875 27.296875 
Q 46.1875 37.015625 41.984375 42.703125 
Q 37.796875 48.390625 30.609375 48.390625 
z
M 30.609375 56 
Q 42.328125 56 49.015625 48.375 
Q 55.71875 40.765625 55.71875 27.296875 
Q 55.71875 13.875 49.015625 6.21875 
Q 42.328125 -1.421875 30.609375 -1.421875 
Q 18.84375 -1.421875 12.171875 6.21875 
Q 5.515625 13.875 5.515625 27.296875 
Q 5.515625 40.765625 12.171875 48.375 
Q 18.84375 56 30.609375 56 
z
" id="DejaVuSans-111"/>
       <path d="M 54.890625 33.015625 
L 54.890625 0 
L 45.90625 0 
L 45.90625 32.71875 
Q 45.90625 40.484375 42.875 44.328125 
Q 39.84375 48.1875 33.796875 48.1875 
Q 26.515625 48.1875 22.3125 43.546875 
Q 18.109375 38.921875 18.109375 30.90625 
L 18.109375 0 
L 9.078125 0 
L 9.078125 54.6875 
L 18.109375 54.6875 
L 18.109375 46.1875 
Q 21.34375 51.125 25.703125 53.5625 
Q 30.078125 56 35.796875 56 
Q 45.21875 56 50.046875 50.171875 
Q 54.890625 44.34375 54.890625 33.015625 
z
" id="DejaVuSans-110"/>
       <path id="DejaVuSans-32"/>
       <path d="M 39.40625 66.21875 
Q 28.65625 66.21875 22.328125 58.203125 
Q 16.015625 50.203125 16.015625 36.375 
Q 16.015625 22.609375 22.328125 14.59375 
Q 28.65625 6.59375 39.40625 6.59375 
Q 50.140625 6.59375 56.421875 14.59375 
Q 62.703125 22.609375 62.703125 36.375 
Q 62.703125 50.203125 56.421875 58.203125 
Q 50.140625 66.21875 39.40625 66.21875 
z
M 39.40625 74.21875 
Q 54.734375 74.21875 63.90625 63.9375 
Q 73.09375 53.65625 73.09375 36.375 
Q 73.09375 19.140625 63.90625 8.859375 
Q 54.734375 -1.421875 39.40625 -1.421875 
Q 24.03125 -1.421875 14.8125 8.828125 
Q 5.609375 19.09375 5.609375 36.375 
Q 5.609375 53.65625 14.8125 63.9375 
Q 24.03125 74.21875 39.40625 74.21875 
z
" id="DejaVuSans-79"/>
       <path d="M 19.1875 8.296875 
L 53.609375 8.296875 
L 53.609375 0 
L 7.328125 0 
L 7.328125 8.296875 
Q 12.9375 14.109375 22.625 23.890625 
Q 32.328125 33.6875 34.8125 36.53125 
Q 39.546875 41.84375 41.421875 45.53125 
Q 43.3125 49.21875 43.3125 52.78125 
Q 43.3125 58.59375 39.234375 62.25 
Q 35.15625 65.921875 28.609375 65.921875 
Q 23.96875 65.921875 18.8125 64.3125 
Q 13.671875 62.703125 7.8125 59.421875 
L 7.8125 69.390625 
Q 13.765625 71.78125 18.9375 73 
Q 24.125 74.21875 28.421875 74.21875 
Q 39.75 74.21875 46.484375 68.546875 
Q 53.21875 62.890625 53.21875 53.421875 
Q 53.21875 48.921875 51.53125 44.890625 
Q 49.859375 40.875 45.40625 35.40625 
Q 44.1875 33.984375 37.640625 27.21875 
Q 31.109375 20.453125 19.1875 8.296875 
z
" id="DejaVuSans-50"/>
      </defs>
      <g transform="translate(66.995625 528.758125)scale(0.12 -0.12)">
       <use xlink:href="#DejaVuSans-71"/>
       <use x="77.490234" xlink:href="#DejaVuSans-117"/>
       <use x="140.869141" xlink:href="#DejaVuSans-115"/>
       <use x="192.96875" xlink:href="#DejaVuSans-116"/>
       <use x="232.177734" xlink:href="#DejaVuSans-97"/>
       <use x="293.457031" xlink:href="#DejaVuSans-118"/>
       <use x="352.636719" xlink:href="#DejaVuSans-115"/>
       <use x="404.736328" xlink:href="#DejaVuSans-111"/>
       <use x="465.917969" xlink:href="#DejaVuSans-110"/>
       <use x="529.296875" xlink:href="#DejaVuSans-32"/>
       <use x="561.083984" xlink:href="#DejaVuSans-79"/>
       <use x="639.794922" xlink:href="#DejaVuSans-50"/>
      </g>
     </g>
    </g>
    <g id="xtick_2">
     <g id="line2d_3">
      <path clip-path="url(#pedd837dbcd)" d="M 183.6 512.64 
L 183.6 69.12 
" style="fill:none;stroke:#b0b0b0;stroke-dasharray:5.12,1.28,0.8,1.28;stroke-dashoffset:0;stroke-width:0.8;"/>
     </g>
     <g id="line2d_4">
      <g>
       <use style="stroke:#000000;stroke-width:0.8;" x="183.6" xlink:href="#md049b8eeb9" y="512.64"/>
      </g>
     </g>
     <g id="text_2">
      <!-- Gustavson O2 OMP AVX2 -->
      <defs>
       <path d="M 9.8125 72.90625 
L 24.515625 72.90625 
L 43.109375 23.296875 
L 61.8125 72.90625 
L 76.515625 72.90625 
L 76.515625 0 
L 66.890625 0 
L 66.890625 64.015625 
L 48.09375 14.015625 
L 38.1875 14.015625 
L 19.390625 64.015625 
L 19.390625 0 
L 9.8125 0 
z
" id="DejaVuSans-77"/>
       <path d="M 19.671875 64.796875 
L 19.671875 37.40625 
L 32.078125 37.40625 
Q 38.96875 37.40625 42.71875 40.96875 
Q 46.484375 44.53125 46.484375 51.125 
Q 46.484375 57.671875 42.71875 61.234375 
Q 38.96875 64.796875 32.078125 64.796875 
z
M 9.8125 72.90625 
L 32.078125 72.90625 
Q 44.34375 72.90625 50.609375 67.359375 
Q 56.890625 61.8125 56.890625 51.125 
Q 56.890625 40.328125 50.609375 34.8125 
Q 44.34375 29.296875 32.078125 29.296875 
L 19.671875 29.296875 
L 19.671875 0 
L 9.8125 0 
z
" id="DejaVuSans-80"/>
       <path d="M 34.1875 63.1875 
L 20.796875 26.90625 
L 47.609375 26.90625 
z
M 28.609375 72.90625 
L 39.796875 72.90625 
L 67.578125 0 
L 57.328125 0 
L 50.6875 18.703125 
L 17.828125 18.703125 
L 11.1875 0 
L 0.78125 0 
z
" id="DejaVuSans-65"/>
       <path d="M 28.609375 0 
L 0.78125 72.90625 
L 11.078125 72.90625 
L 34.1875 11.53125 
L 57.328125 72.90625 
L 67.578125 72.90625 
L 39.796875 0 
z
" id="DejaVuSans-86"/>
       <path d="M 6.296875 72.90625 
L 16.890625 72.90625 
L 35.015625 45.796875 
L 53.21875 72.90625 
L 63.8125 72.90625 
L 40.375 37.890625 
L 65.375 0 
L 54.78125 0 
L 34.28125 31 
L 13.625 0 
L 2.984375 0 
L 29 38.921875 
z
" id="DejaVuSans-88"/>
      </defs>
      <g transform="translate(108.310312 528.758125)scale(0.12 -0.12)">
       <use xlink:href="#DejaVuSans-71"/>
       <use x="77.490234" xlink:href="#DejaVuSans-117"/>
       <use x="140.869141" xlink:href="#DejaVuSans-115"/>
       <use x="192.96875" xlink:href="#DejaVuSans-116"/>
       <use x="232.177734" xlink:href="#DejaVuSans-97"/>
       <use x="293.457031" xlink:href="#DejaVuSans-118"/>
       <use x="352.636719" xlink:href="#DejaVuSans-115"/>
       <use x="404.736328" xlink:href="#DejaVuSans-111"/>
       <use x="465.917969" xlink:href="#DejaVuSans-110"/>
       <use x="529.296875" xlink:href="#DejaVuSans-32"/>
       <use x="561.083984" xlink:href="#DejaVuSans-79"/>
       <use x="639.794922" xlink:href="#DejaVuSans-50"/>
       <use x="703.417969" xlink:href="#DejaVuSans-32"/>
       <use x="735.205078" xlink:href="#DejaVuSans-79"/>
       <use x="813.916016" xlink:href="#DejaVuSans-77"/>
       <use x="900.195312" xlink:href="#DejaVuSans-80"/>
       <use x="960.498047" xlink:href="#DejaVuSans-32"/>
       <use x="992.285156" xlink:href="#DejaVuSans-65"/>
       <use x="1054.318359" xlink:href="#DejaVuSans-86"/>
       <use x="1122.726562" xlink:href="#DejaVuSans-88"/>
       <use x="1191.232422" xlink:href="#DejaVuSans-50"/>
      </g>
     </g>
    </g>
    <g id="xtick_3">
     <g id="line2d_5">
      <path clip-path="url(#pedd837dbcd)" d="M 258 512.64 
L 258 69.12 
" style="fill:none;stroke:#b0b0b0;stroke-dasharray:5.12,1.28,0.8,1.28;stroke-dashoffset:0;stroke-width:0.8;"/>
     </g>
     <g id="line2d_6">
      <g>
       <use style="stroke:#000000;stroke-width:0.8;" x="258" xlink:href="#md049b8eeb9" y="512.64"/>
      </g>
     </g>
     <g id="text_3">
      <!-- Gustavson O3 OMP AVX2 -->
      <defs>
       <path d="M 40.578125 39.3125 
Q 47.65625 37.796875 51.625 33 
Q 55.609375 28.21875 55.609375 21.1875 
Q 55.609375 10.40625 48.1875 4.484375 
Q 40.765625 -1.421875 27.09375 -1.421875 
Q 22.515625 -1.421875 17.65625 -0.515625 
Q 12.796875 0.390625 7.625 2.203125 
L 7.625 11.71875 
Q 11.71875 9.328125 16.59375 8.109375 
Q 21.484375 6.890625 26.8125 6.890625 
Q 36.078125 6.890625 40.9375 10.546875 
Q 45.796875 14.203125 45.796875 21.1875 
Q 45.796875 27.640625 41.28125 31.265625 
Q 36.765625 34.90625 28.71875 34.90625 
L 20.21875 34.90625 
L 20.21875 43.015625 
L 29.109375 43.015625 
Q 36.375 43.015625 40.234375 45.921875 
Q 44.09375 48.828125 44.09375 54.296875 
Q 44.09375 59.90625 40.109375 62.90625 
Q 36.140625 65.921875 28.71875 65.921875 
Q 24.65625 65.921875 20.015625 65.03125 
Q 15.375 64.15625 9.8125 62.3125 
L 9.8125 71.09375 
Q 15.4375 72.65625 20.34375 73.4375 
Q 25.25 74.21875 29.59375 74.21875 
Q 40.828125 74.21875 47.359375 69.109375 
Q 53.90625 64.015625 53.90625 55.328125 
Q 53.90625 49.265625 50.4375 45.09375 
Q 46.96875 40.921875 40.578125 39.3125 
z
" id="DejaVuSans-51"/>
      </defs>
      <g transform="translate(182.710312 528.758125)scale(0.12 -0.12)">
       <use xlink:href="#DejaVuSans-71"/>
       <use x="77.490234" xlink:href="#DejaVuSans-117"/>
       <use x="140.869141" xlink:href="#DejaVuSans-115"/>
       <use x="192.96875" xlink:href="#DejaVuSans-116"/>
       <use x="232.177734" xlink:href="#DejaVuSans-97"/>
       <use x="293.457031" xlink:href="#DejaVuSans-118"/>
       <use x="352.636719" xlink:href="#DejaVuSans-115"/>
       <use x="404.736328" xlink:href="#DejaVuSans-111"/>
       <use x="465.917969" xlink:href="#DejaVuSans-110"/>
       <use x="529.296875" xlink:href="#DejaVuSans-32"/>
       <use x="561.083984" xlink:href="#DejaVuSans-79"/>
       <use x="639.794922" xlink:href="#DejaVuSans-51"/>
       <use x="703.417969" xlink:href="#DejaVuSans-32"/>
       <use x="735.205078" xlink:href="#DejaVuSans-79"/>
       <use x="813.916016" xlink:href="#DejaVuSans-77"/>
       <use x="900.195312" xlink:href="#DejaVuSans-80"/>
       <use x="960.498047" xlink:href="#DejaVuSans-32"/>
       <use x="992.285156" xlink:href="#DejaVuSans-65"/>
       <use x="1054.318359" xlink:href="#DejaVuSans-86"/>
       <use x="1122.726562" xlink:href="#DejaVuSans-88"/>
       <use x="1191.232422" xlink:href="#DejaVuSans-50"/>
      </g>
     </g>
    </g>
    <g id="xtick_4">
     <g id="line2d_7">
      <path clip-path="url(#pedd837dbcd)" d="M 332.4 512.64 
L 332.4 69.12 
" style="fill:none;stroke:#b0b0b0;stroke-dasharray:5.12,1.28,0.8,1.28;stroke-dashoffset:0;stroke-width:0.8;"/>
     </g>
     <g id="line2d_8">
      <g>
       <use style="stroke:#000000;stroke-width:0.8;" x="332.4" xlink:href="#md049b8eeb9" y="512.64"/>
      </g>
     </g>
     <g id="text_4">
      <!-- std::sort O2 -->
      <defs>
       <path d="M 45.40625 46.390625 
L 45.40625 75.984375 
L 54.390625 75.984375 
L 54.390625 0 
L 45.40625 0 
L 45.40625 8.203125 
Q 42.578125 3.328125 38.25 0.953125 
Q 33.9375 -1.421875 27.875 -1.421875 
Q 17.96875 -1.421875 11.734375 6.484375 
Q 5.515625 14.40625 5.515625 27.296875 
Q 5.515625 40.1875 11.734375 48.09375 
Q 17.96875 56 27.875 56 
Q 33.9375 56 38.25 53.625 
Q 42.578125 51.265625 45.40625 46.390625 
z
M 14.796875 27.296875 
Q 14.796875 17.390625 18.875 11.75 
Q 22.953125 6.109375 30.078125 6.109375 
Q 37.203125 6.109375 41.296875 11.75 
Q 45.40625 17.390625 45.40625 27.296875 
Q 45.40625 37.203125 41.296875 42.84375 
Q 37.203125 48.484375 30.078125 48.484375 
Q 22.953125 48.484375 18.875 42.84375 
Q 14.796875 37.203125 14.796875 27.296875 
z
" id="DejaVuSans-100"/>
       <path d="M 11.71875 12.40625 
L 22.015625 12.40625 
L 22.015625 0 
L 11.71875 0 
z
M 11.71875 51.703125 
L 22.015625 51.703125 
L 22.015625 39.3125 
L 11.71875 39.3125 
z
" id="DejaVuSans-58"/>
       <path d="M 41.109375 46.296875 
Q 39.59375 47.171875 37.8125 47.578125 
Q 36.03125 48 33.890625 48 
Q 26.265625 48 22.1875 43.046875 
Q 18.109375 38.09375 18.109375 28.8125 
L 18.109375 0 
L 9.078125 0 
L 9.078125 54.6875 
L 18.109375 54.6875 
L 18.109375 46.1875 
Q 20.953125 51.171875 25.484375 53.578125 
Q 30.03125 56 36.53125 56 
Q 37.453125 56 38.578125 55.875 
Q 39.703125 55.765625 41.0625 55.515625 
z
" id="DejaVuSans-114"/>
      </defs>
      <g transform="translate(297.0075 528.758125)scale(0.12 -0.12)">
       <use xlink:href="#DejaVuSans-115"/>
       <use x="52.099609" xlink:href="#DejaVuSans-116"/>
       <use x="91.308594" xlink:href="#DejaVuSans-100"/>
       <use x="154.785156" xlink:href="#DejaVuSans-58"/>
       <use x="188.476562" xlink:href="#DejaVuSans-58"/>
       <use x="222.167969" xlink:href="#DejaVuSans-115"/>
       <use x="274.267578" xlink:href="#DejaVuSans-111"/>
       <use x="335.449219" xlink:href="#DejaVuSans-114"/>
       <use x="376.5625" xlink:href="#DejaVuSans-116"/>
       <use x="415.771484" xlink:href="#DejaVuSans-32"/>
       <use x="447.558594" xlink:href="#DejaVuSans-79"/>
       <use x="526.269531" xlink:href="#DejaVuSans-50"/>
      </g>
     </g>
    </g>
    <g id="xtick_5">
     <g id="line2d_9">
      <path clip-path="url(#pedd837dbcd)" d="M 406.8 512.64 
L 406.8 69.12 
" style="fill:none;stroke:#b0b0b0;stroke-dasharray:5.12,1.28,0.8,1.28;stroke-dashoffset:0;stroke-width:0.8;"/>
     </g>
     <g id="line2d_10">
      <g>
       <use style="stroke:#000000;stroke-width:0.8;" x="406.8" xlink:href="#md049b8eeb9" y="512.64"/>
      </g>
     </g>
     <g id="text_5">
      <!-- std::sort O2 OMP AVX2 -->
      <g transform="translate(338.322187 528.758125)scale(0.12 -0.12)">
       <use xlink:href="#DejaVuSans-115"/>
       <use x="52.099609" xlink:href="#DejaVuSans-116"/>
       <use x="91.308594" xlink:href="#DejaVuSans-100"/>
       <use x="154.785156" xlink:href="#DejaVuSans-58"/>
       <use x="188.476562" xlink:href="#DejaVuSans-58"/>
       <use x="222.167969" xlink:href="#DejaVuSans-115"/>
       <use x="274.267578" xlink:href="#DejaVuSans-111"/>
       <use x="335.449219" xlink:href="#DejaVuSans-114"/>
       <use x="376.5625" xlink:href="#DejaVuSans-116"/>
       <use x="415.771484" xlink:href="#DejaVuSans-32"/>
       <use x="447.558594" xlink:href="#DejaVuSans-79"/>
       <use x="526.269531" xlink:href="#DejaVuSans-50"/>
       <use x="589.892578" xlink:href="#DejaVuSans-32"/>
       <use x="621.679688" xlink:href="#DejaVuSans-79"/>
       <use x="700.390625" xlink:href="#DejaVuSans-77"/>
       <use x="786.669922" xlink:href="#DejaVuSans-80"/>
       <use x="846.972656" xlink:href="#DejaVuSans-32"/>
       <use x="878.759766" xlink:href="#DejaVuSans-65"/>
       <use x="940.792969" xlink:href="#DejaVuSans-86"/>
       <use x="1009.201172" xlink:href="#DejaVuSans-88"/>
       <use x="1077.707031" xlink:href="#DejaVuSans-50"/>
      </g>
     </g>
    </g>
    <g id="xtick_6">
     <g id="line2d_11">
      <path clip-path="url(#pedd837dbcd)" d="M 481.2 512.64 
L 481.2 69.12 
" style="fill:none;stroke:#b0b0b0;stroke-dasharray:5.12,1.28,0.8,1.28;stroke-dashoffset:0;stroke-width:0.8;"/>
     </g>
     <g id="line2d_12">
      <g>
       <use style="stroke:#000000;stroke-width:0.8;" x="481.2" xlink:href="#md049b8eeb9" y="512.64"/>
      </g>
     </g>
     <g id="text_6">
      <!-- std::sort O3 OMP AVX2 -->
      <g transform="translate(412.722188 528.758125)scale(0.12 -0.12)">
       <use xlink:href="#DejaVuSans-115"/>
       <use x="52.099609" xlink:href="#DejaVuSans-116"/>
       <use x="91.308594" xlink:href="#DejaVuSans-100"/>
       <use x="154.785156" xlink:href="#DejaVuSans-58"/>
       <use x="188.476562" xlink:href="#DejaVuSans-58"/>
       <use x="222.167969" xlink:href="#DejaVuSans-115"/>
       <use x="274.267578" xlink:href="#DejaVuSans-111"/>
       <use x="335.449219" xlink:href="#DejaVuSans-114"/>
       <use x="376.5625" xlink:href="#DejaVuSans-116"/>
       <use x="415.771484" xlink:href="#DejaVuSans-32"/>
       <use x="447.558594" xlink:href="#DejaVuSans-79"/>
       <use x="526.269531" xlink:href="#DejaVuSans-51"/>
       <use x="589.892578" xlink:href="#DejaVuSans-32"/>
       <use x="621.679688" xlink:href="#DejaVuSans-79"/>
       <use x="700.390625" xlink:href="#DejaVuSans-77"/>
       <use x="786.669922" xlink:href="#DejaVuSans-80"/>
       <use x="846.972656" xlink:href="#DejaVuSans-32"/>
       <use x="878.759766" xlink:href="#DejaVuSans-65"/>
       <use x="940.792969" xlink:href="#DejaVuSans-86"/>
       <use x="1009.201172" xlink:href="#DejaVuSans-88"/>
       <use x="1077.707031" xlink:href="#DejaVuSans-50"/>
      </g>
     </g>
    </g>
    <g id="xtick_7">
     <g id="line2d_13">
      <path clip-path="url(#pedd837dbcd)" d="M 109.2 512.64 
L 109.2 69.12 
" style="fill:none;stroke:#b0b0b0;stroke-dasharray:5.12,1.28,0.8,1.28;stroke-dashoffset:0;stroke-width:0.8;"/>
     </g>
     <g id="line2d_14">
      <g>
       <use style="stroke:#000000;stroke-width:0.8;" x="109.2" xlink:href="#md049b8eeb9" y="512.64"/>
      </g>
     </g>
     <g id="text_7">
      <!-- Gustavson O2 -->
      <g transform="translate(66.995625 528.758125)scale(0.12 -0.12)">
       <use xlink:href="#DejaVuSans-71"/>
       <use x="77.490234" xlink:href="#DejaVuSans-117"/>
       <use x="140.869141" xlink:href="#DejaVuSans-115"/>
       <use x="192.96875" xlink:href="#DejaVuSans-116"/>
       <use x="232.177734" xlink:href="#DejaVuSans-97"/>
       <use x="293.457031" xlink:href="#DejaVuSans-118"/>
       <use x="352.636719" xlink:href="#DejaVuSans-115"/>
       <use x="404.736328" xlink:href="#DejaVuSans-111"/>
       <use x="465.917969" xlink:href="#DejaVuSans-110"/>
       <use x="529.296875" xlink:href="#DejaVuSans-32"/>
       <use x="561.083984" xlink:href="#DejaVuSans-79"/>
       <use x="639.794922" xlink:href="#DejaVuSans-50"/>
      </g>
     </g>
    </g>
    <g id="xtick_8">
     <g id="line2d_15">
      <path clip-path="url(#pedd837dbcd)" d="M 183.6 512.64 
L 183.6 69.12 
" style="fill:none;stroke:#b0b0b0;stroke-dasharray:5.12,1.28,0.8,1.28;stroke-dashoffset:0;stroke-width:0.8;"/>
     </g>
     <g id="line2d_16">
      <g>
       <use style="stroke:#000000;stroke-width:0.8;" x="183.6" xlink:href="#md049b8eeb9" y="512.64"/>
      </g>
     </g>
     <g id="text_8">
      <!-- Gustavson O2 OMP AVX2 -->
      <g transform="translate(108.310312 528.758125)scale(0.12 -0.12)">
       <use xlink:href="#DejaVuSans-71"/>
       <use x="77.490234" xlink:href="#DejaVuSans-117"/>
       <use x="140.869141" xlink:href="#DejaVuSans-115"/>
       <use x="192.96875" xlink:href="#DejaVuSans-116"/>
       <use x="232.177734" xlink:href="#DejaVuSans-97"/>
       <use x="293.457031" xlink:href="#DejaVuSans-118"/>
       <use x="352.636719" xlink:href="#DejaVuSans-115"/>
       <use x="404.736328" xlink:href="#DejaVuSans-111"/>
       <use x="465.917969" xlink:href="#DejaVuSans-110"/>
       <use x="529.296875" xlink:href="#DejaVuSans-32"/>
       <use x="561.083984" xlink:href="#DejaVuSans-79"/>
       <use x="639.794922" xlink:href="#DejaVuSans-50"/>
       <use x="703.417969" xlink:href="#DejaVuSans-32"/>
       <use x="735.205078" xlink:href="#DejaVuSans-79"/>
       <use x="813.916016" xlink:href="#DejaVuSans-77"/>
       <use x="900.195312" xlink:href="#DejaVuSans-80"/>
       <use x="960.498047" xlink:href="#DejaVuSans-32"/>
       <use x="992.285156" xlink:href="#DejaVuSans-65"/>
       <use x="1054.318359" xlink:href="#DejaVuSans-86"/>
       <use x="1122.726562" xlink:href="#DejaVuSans-88"/>
       <use x="1191.232422" xlink:href="#DejaVuSans-50"/>
      </g>
     </g>
    </g>
    <g id="xtick_9">
     <g id="line2d_17">
      <path clip-path="url(#pedd837dbcd)" d="M 258 512.64 
L 258 69.12 
" style="fill:none;stroke:#b0b0b0;stroke-dasharray:5.12,1.28,0.8,1.28;stroke-dashoffset:0;stroke-width:0.8;"/>
     </g>
     <g id="line2d_18">
      <g>
       <use style="stroke:#000000;stroke-width:0.8;" x="258" xlink:href="#md049b8eeb9" y="512.64"/>
      </g>
     </g>
     <g id="text_9">
      <!-- Gustavson O3 OMP AVX2 -->
      <g transform="translate(182.710312 528.758125)scale(0.12 -0.12)">
       <use xlink:href="#DejaVuSans-71"/>
       <use x="77.490234" xlink:href="#DejaVuSans-117"/>
       <use x="140.869141" xlink:href="#DejaVuSans-115"/>
       <use x="192.96875" xlink:href="#DejaVuSans-116"/>
       <use x="232.177734" xlink:href="#DejaVuSans-97"/>
       <use x="293.457031" xlink:href="#DejaVuSans-118"/>
       <use x="352.636719" xlink:href="#DejaVuSans-115"/>
       <use x="404.736328" xlink:href="#DejaVuSans-111"/>
       <use x="465.917969" xlink:href="#DejaVuSans-110"/>
       <use x="529.296875" xlink:href="#DejaVuSans-32"/>
       <use x="561.083984" xlink:href="#DejaVuSans-79"/>
       <use x="639.794922" xlink:href="#DejaVuSans-51"/>
       <use x="703.417969" xlink:href="#DejaVuSans-32"/>
       <use x="735.205078" xlink:href="#DejaVuSans-79"/>
       <use x="813.916016" xlink:href="#DejaVuSans-77"/>
       <use x="900.195312" xlink:href="#DejaVuSans-80"/>
       <use x="960.498047" xlink:href="#DejaVuSans-32"/>
       <use x="992.285156" xlink:href="#DejaVuSans-65"/>
       <use x="1054.318359" xlink:href="#DejaVuSans-86"/>
       <use x="1122.726562" xlink:href="#DejaVuSans-88"/>
       <use x="1191.232422" xlink:href="#DejaVuSans-50"/>
      </g>
     </g>
    </g>
    <g id="xtick_10">
     <g id="line2d_19">
      <path clip-path="url(#pedd837dbcd)" d="M 332.4 512.64 
L 332.4 69.12 
" style="fill:none;stroke:#b0b0b0;stroke-dasharray:5.12,1.28,0.8,1.28;stroke-dashoffset:0;stroke-width:0.8;"/>
     </g>
     <g id="line2d_20">
      <g>
       <use style="stroke:#000000;stroke-width:0.8;" x="332.4" xlink:href="#md049b8eeb9" y="512.64"/>
      </g>
     </g>
     <g id="text_10">
      <!-- std::sort O2 -->
      <g transform="translate(297.0075 528.758125)scale(0.12 -0.12)">
       <use xlink:href="#DejaVuSans-115"/>
       <use x="52.099609" xlink:href="#DejaVuSans-116"/>
       <use x="91.308594" xlink:href="#DejaVuSans-100"/>
       <use x="154.785156" xlink:href="#DejaVuSans-58"/>
       <use x="188.476562" xlink:href="#DejaVuSans-58"/>
       <use x="222.167969" xlink:href="#DejaVuSans-115"/>
       <use x="274.267578" xlink:href="#DejaVuSans-111"/>
       <use x="335.449219" xlink:href="#DejaVuSans-114"/>
       <use x="376.5625" xlink:href="#DejaVuSans-116"/>
       <use x="415.771484" xlink:href="#DejaVuSans-32"/>
       <use x="447.558594" xlink:href="#DejaVuSans-79"/>
       <use x="526.269531" xlink:href="#DejaVuSans-50"/>
      </g>
     </g>
    </g>
    <g id="xtick_11">
     <g id="line2d_21">
      <path clip-path="url(#pedd837dbcd)" d="M 406.8 512.64 
L 406.8 69.12 
" style="fill:none;stroke:#b0b0b0;stroke-dasharray:5.12,1.28,0.8,1.28;stroke-dashoffset:0;stroke-width:0.8;"/>
     </g>
     <g id="line2d_22">
      <g>
       <use style="stroke:#000000;stroke-width:0.8;" x="406.8" xlink:href="#md049b8eeb9" y="512.64"/>
      </g>
     </g>
     <g id="text_11">
      <!-- std::sort O2 OMP AVX2 -->
      <g transform="translate(338.322187 528.758125)scale(0.12 -0.12)">
       <use xlink:href="#DejaVuSans-115"/>
       <use x="52.099609" xlink:href="#DejaVuSans-116"/>
       <use x="91.308594" xlink:href="#DejaVuSans-100"/>
       <use x="154.785156" xlink:href="#DejaVuSans-58"/>
       <use x="188.476562" xlink:href="#DejaVuSans-58"/>
       <use x="222.167969" xlink:href="#DejaVuSans-115"/>
       <use x="274.267578" xlink:href="#DejaVuSans-111"/>
       <use x="335.449219" xlink:href="#DejaVuSans-114"/>
       <use x="376.5625" xlink:href="#DejaVuSans-116"/>
       <use x="415.771484" xlink:href="#DejaVuSans-32"/>
       <use x="447.558594" xlink:href="#DejaVuSans-79"/>
       <use x="526.269531" xlink:href="#DejaVuSans-50"/>
       <use x="589.892578" xlink:href="#DejaVuSans-32"/>
       <use x="621.679688" xlink:href="#DejaVuSans-79"/>
       <use x="700.390625" xlink:href="#DejaVuSans-77"/>
       <use x="786.669922" xlink:href="#DejaVuSans-80"/>
       <use x="846.972656" xlink:href="#DejaVuSans-32"/>
       <use x="878.759766" xlink:href="#DejaVuSans-65"/>
       <use x="940.792969" xlink:href="#DejaVuSans-86"/>
       <use x="1009.201172" xlink:href="#DejaVuSans-88"/>
       <use x="1077.707031" xlink:href="#DejaVuSans-50"/>
      </g>
     </g>
    </g>
    <g id="xtick_12">
     <g id="line2d_23">
      <path clip-path="url(#pedd837dbcd)" d="M 481.2 512.64 
L 481.2 69.12 
" style="fill:none;stroke:#b0b0b0;stroke-dasharray:5.12,1.28,0.8,1.28;stroke-dashoffset:0;stroke-width:0.8;"/>
     </g>
     <g id="line2d_24">
      <g>
       <use style="stroke:#000000;stroke-width:0.8;" x="481.2" xlink:href="#md049b8eeb9" y="512.64"/>
      </g>
     </g>
     <g id="text_12">
      <!-- std::sort O3 OMP AVX2 -->
      <g transform="translate(412.722188 528.758125)scale(0.12 -0.12)">
       <use xlink:href="#DejaVuSans-115"/>
       <use x="52.099609" xlink:href="#DejaVuSans-116"/>
       <use x="91.308594" xlink:href="#DejaVuSans-100"/>
       <use x="154.785156" xlink:href="#DejaVuSans-58"/>
       <use x="188.476562" xlink:href="#DejaVuSans-58"/>
       <use x="222.167969" xlink:href="#DejaVuSans-115"/>
       <use x="274.267578" xlink:href="#DejaVuSans-111"/>
       <use x="335.449219" xlink:href="#DejaVuSans-114"/>
       <use x="376.5625" xlink:href="#DejaVuSans-116"/>
       <use x="415.771484" xlink:href="#DejaVuSans-32"/>
       <use x="447.558594" xlink:href="#DejaVuSans-79"/>
       <use x="526.269531" xlink:href="#DejaVuSans-51"/>
       <use x="589.892578" xlink:href="#DejaVuSans-32"/>
       <use x="621.679688" xlink:href="#DejaVuSans-79"/>
       <use x="700.390625" xlink:href="#DejaVuSans-77"/>
       <use x="786.669922" xlink:href="#DejaVuSans-80"/>
       <use x="846.972656" xlink:href="#DejaVuSans-32"/>
       <use x="878.759766" xlink:href="#DejaVuSans-65"/>
       <use x="940.792969" xlink:href="#DejaVuSans-86"/>
       <use x="1009.201172" xlink:href="#DejaVuSans-88"/>
       <use x="1077.707031" xlink:href="#DejaVuSans-50"/>
      </g>
     </g>
    </g>
    <g id="text_13">
     <!-- name -->
     <defs>
      <path d="M 52 44.1875 
Q 55.375 50.25 60.0625 53.125 
Q 64.75 56 71.09375 56 
Q 79.640625 56 84.28125 50.015625 
Q 88.921875 44.046875 88.921875 33.015625 
L 88.921875 0 
L 79.890625 0 
L 79.890625 32.71875 
Q 79.890625 40.578125 77.09375 44.375 
Q 74.3125 48.1875 68.609375 48.1875 
Q 61.625 48.1875 57.5625 43.546875 
Q 53.515625 38.921875 53.515625 30.90625 
L 53.515625 0 
L 44.484375 0 
L 44.484375 32.71875 
Q 44.484375 40.625 41.703125 44.40625 
Q 38.921875 48.1875 33.109375 48.1875 
Q 26.21875 48.1875 22.15625 43.53125 
Q 18.109375 38.875 18.109375 30.90625 
L 18.109375 0 
L 9.078125 0 
L 9.078125 54.6875 
L 18.109375 54.6875 
L 18.109375 46.1875 
Q 21.1875 51.21875 25.484375 53.609375 
Q 29.78125 56 35.6875 56 
Q 41.65625 56 45.828125 52.96875 
Q 50 49.953125 52 44.1875 
z
" id="DejaVuSans-109"/>
      <path d="M 56.203125 29.59375 
L 56.203125 25.203125 
L 14.890625 25.203125 
Q 15.484375 15.921875 20.484375 11.0625 
Q 25.484375 6.203125 34.421875 6.203125 
Q 39.59375 6.203125 44.453125 7.46875 
Q 49.3125 8.734375 54.109375 11.28125 
L 54.109375 2.78125 
Q 49.265625 0.734375 44.1875 -0.34375 
Q 39.109375 -1.421875 33.890625 -1.421875 
Q 20.796875 -1.421875 13.15625 6.1875 
Q 5.515625 13.8125 5.515625 26.8125 
Q 5.515625 40.234375 12.765625 48.109375 
Q 20.015625 56 32.328125 56 
Q 43.359375 56 49.78125 48.890625 
Q 56.203125 41.796875 56.203125 29.59375 
z
M 47.21875 32.234375 
Q 47.125 39.59375 43.09375 43.984375 
Q 39.0625 48.390625 32.421875 48.390625 
Q 24.90625 48.390625 20.390625 44.140625 
Q 15.875 39.890625 15.1875 32.171875 
z
" id="DejaVuSans-101"/>
     </defs>
     <g transform="translate(278.184375 544.371875)scale(0.12 -0.12)">
      <use xlink:href="#DejaVuSans-110"/>
      <use x="63.378906" xlink:href="#DejaVuSans-97"/>
      <use x="124.658203" xlink:href="#DejaVuSans-109"/>
      <use x="222.070312" xlink:href="#DejaVuSans-101"/>
     </g>
    </g>
   </g>
   <g id="matplotlib.axis_2">
    <g id="ytick_1">
     <g id="line2d_25">
      <path clip-path="url(#pedd837dbcd)" d="M 72 473.174128 
L 518.4 473.174128 
" style="fill:none;stroke:#b0b0b0;stroke-dasharray:5.12,1.28,0.8,1.28;stroke-dashoffset:0;stroke-width:0.8;"/>
     </g>
     <g id="line2d_26">
      <defs>
       <path d="M 0 0 
L -3.5 0 
" id="m84958e2b5e" style="stroke:#000000;stroke-width:0.8;"/>
      </defs>
      <g>
       <use style="stroke:#000000;stroke-width:0.8;" x="72" xlink:href="#m84958e2b5e" y="473.174128"/>
      </g>
     </g>
     <g id="text_14">
      <!-- 0.30 -->
      <defs>
       <path d="M 31.78125 66.40625 
Q 24.171875 66.40625 20.328125 58.90625 
Q 16.5 51.421875 16.5 36.375 
Q 16.5 21.390625 20.328125 13.890625 
Q 24.171875 6.390625 31.78125 6.390625 
Q 39.453125 6.390625 43.28125 13.890625 
Q 47.125 21.390625 47.125 36.375 
Q 47.125 51.421875 43.28125 58.90625 
Q 39.453125 66.40625 31.78125 66.40625 
z
M 31.78125 74.21875 
Q 44.046875 74.21875 50.515625 64.515625 
Q 56.984375 54.828125 56.984375 36.375 
Q 56.984375 17.96875 50.515625 8.265625 
Q 44.046875 -1.421875 31.78125 -1.421875 
Q 19.53125 -1.421875 13.0625 8.265625 
Q 6.59375 17.96875 6.59375 36.375 
Q 6.59375 54.828125 13.0625 64.515625 
Q 19.53125 74.21875 31.78125 74.21875 
z
" id="DejaVuSans-48"/>
       <path d="M 10.6875 12.40625 
L 21 12.40625 
L 21 0 
L 10.6875 0 
z
" id="DejaVuSans-46"/>
      </defs>
      <g transform="translate(38.28125 477.733191)scale(0.12 -0.12)">
       <use xlink:href="#DejaVuSans-48"/>
       <use x="63.623047" xlink:href="#DejaVuSans-46"/>
       <use x="95.410156" xlink:href="#DejaVuSans-51"/>
       <use x="159.033203" xlink:href="#DejaVuSans-48"/>
      </g>
     </g>
    </g>
    <g id="ytick_2">
     <g id="line2d_27">
      <path clip-path="url(#pedd837dbcd)" d="M 72 391.146527 
L 518.4 391.146527 
" style="fill:none;stroke:#b0b0b0;stroke-dasharray:5.12,1.28,0.8,1.28;stroke-dashoffset:0;stroke-width:0.8;"/>
     </g>
     <g id="line2d_28">
      <g>
       <use style="stroke:#000000;stroke-width:0.8;" x="72" xlink:href="#m84958e2b5e" y="391.146527"/>
      </g>
     </g>
     <g id="text_15">
      <!-- 0.35 -->
      <defs>
       <path d="M 10.796875 72.90625 
L 49.515625 72.90625 
L 49.515625 64.59375 
L 19.828125 64.59375 
L 19.828125 46.734375 
Q 21.96875 47.46875 24.109375 47.828125 
Q 26.265625 48.1875 28.421875 48.1875 
Q 40.625 48.1875 47.75 41.5 
Q 54.890625 34.8125 54.890625 23.390625 
Q 54.890625 11.625 47.5625 5.09375 
Q 40.234375 -1.421875 26.90625 -1.421875 
Q 22.3125 -1.421875 17.546875 -0.640625 
Q 12.796875 0.140625 7.71875 1.703125 
L 7.71875 11.625 
Q 12.109375 9.234375 16.796875 8.0625 
Q 21.484375 6.890625 26.703125 6.890625 
Q 35.15625 6.890625 40.078125 11.328125 
Q 45.015625 15.765625 45.015625 23.390625 
Q 45.015625 31 40.078125 35.4375 
Q 35.15625 39.890625 26.703125 39.890625 
Q 22.75 39.890625 18.8125 39.015625 
Q 14.890625 38.140625 10.796875 36.28125 
z
" id="DejaVuSans-53"/>
      </defs>
      <g transform="translate(38.28125 395.705589)scale(0.12 -0.12)">
       <use xlink:href="#DejaVuSans-48"/>
       <use x="63.623047" xlink:href="#DejaVuSans-46"/>
       <use x="95.410156" xlink:href="#DejaVuSans-51"/>
       <use x="159.033203" xlink:href="#DejaVuSans-53"/>
      </g>
     </g>
    </g>
    <g id="ytick_3">
     <g id="line2d_29">
      <path clip-path="url(#pedd837dbcd)" d="M 72 309.118925 
L 518.4 309.118925 
" style="fill:none;stroke:#b0b0b0;stroke-dasharray:5.12,1.28,0.8,1.28;stroke-dashoffset:0;stroke-width:0.8;"/>
     </g>
     <g id="line2d_30">
      <g>
       <use style="stroke:#000000;stroke-width:0.8;" x="72" xlink:href="#m84958e2b5e" y="309.118925"/>
      </g>
     </g>
     <g id="text_16">
      <!-- 0.40 -->
      <defs>
       <path d="M 37.796875 64.3125 
L 12.890625 25.390625 
L 37.796875 25.390625 
z
M 35.203125 72.90625 
L 47.609375 72.90625 
L 47.609375 25.390625 
L 58.015625 25.390625 
L 58.015625 17.1875 
L 47.609375 17.1875 
L 47.609375 0 
L 37.796875 0 
L 37.796875 17.1875 
L 4.890625 17.1875 
L 4.890625 26.703125 
z
" id="DejaVuSans-52"/>
      </defs>
      <g transform="translate(38.28125 313.677988)scale(0.12 -0.12)">
       <use xlink:href="#DejaVuSans-48"/>
       <use x="63.623047" xlink:href="#DejaVuSans-46"/>
       <use x="95.410156" xlink:href="#DejaVuSans-52"/>
       <use x="159.033203" xlink:href="#DejaVuSans-48"/>
      </g>
     </g>
    </g>
    <g id="ytick_4">
     <g id="line2d_31">
      <path clip-path="url(#pedd837dbcd)" d="M 72 227.091324 
L 518.4 227.091324 
" style="fill:none;stroke:#b0b0b0;stroke-dasharray:5.12,1.28,0.8,1.28;stroke-dashoffset:0;stroke-width:0.8;"/>
     </g>
     <g id="line2d_32">
      <g>
       <use style="stroke:#000000;stroke-width:0.8;" x="72" xlink:href="#m84958e2b5e" y="227.091324"/>
      </g>
     </g>
     <g id="text_17">
      <!-- 0.45 -->
      <g transform="translate(38.28125 231.650386)scale(0.12 -0.12)">
       <use xlink:href="#DejaVuSans-48"/>
       <use x="63.623047" xlink:href="#DejaVuSans-46"/>
       <use x="95.410156" xlink:href="#DejaVuSans-52"/>
       <use x="159.033203" xlink:href="#DejaVuSans-53"/>
      </g>
     </g>
    </g>
    <g id="ytick_5">
     <g id="line2d_33">
      <path clip-path="url(#pedd837dbcd)" d="M 72 145.063722 
L 518.4 145.063722 
" style="fill:none;stroke:#b0b0b0;stroke-dasharray:5.12,1.28,0.8,1.28;stroke-dashoffset:0;stroke-width:0.8;"/>
     </g>
     <g id="line2d_34">
      <g>
       <use style="stroke:#000000;stroke-width:0.8;" x="72" xlink:href="#m84958e2b5e" y="145.063722"/>
      </g>
     </g>
     <g id="text_18">
      <!-- 0.50 -->
      <g transform="translate(38.28125 149.622785)scale(0.12 -0.12)">
       <use xlink:href="#DejaVuSans-48"/>
       <use x="63.623047" xlink:href="#DejaVuSans-46"/>
       <use x="95.410156" xlink:href="#DejaVuSans-53"/>
       <use x="159.033203" xlink:href="#DejaVuSans-48"/>
      </g>
     </g>
    </g>
    <g id="text_19">
     <!-- duration (s) -->
     <defs>
      <path d="M 9.421875 54.6875 
L 18.40625 54.6875 
L 18.40625 0 
L 9.421875 0 
z
M 9.421875 75.984375 
L 18.40625 75.984375 
L 18.40625 64.59375 
L 9.421875 64.59375 
z
" id="DejaVuSans-105"/>
      <path d="M 31 75.875 
Q 24.46875 64.65625 21.28125 53.65625 
Q 18.109375 42.671875 18.109375 31.390625 
Q 18.109375 20.125 21.3125 9.0625 
Q 24.515625 -2 31 -13.1875 
L 23.1875 -13.1875 
Q 15.875 -1.703125 12.234375 9.375 
Q 8.59375 20.453125 8.59375 31.390625 
Q 8.59375 42.28125 12.203125 53.3125 
Q 15.828125 64.359375 23.1875 75.875 
z
" id="DejaVuSans-40"/>
      <path d="M 8.015625 75.875 
L 15.828125 75.875 
Q 23.140625 64.359375 26.78125 53.3125 
Q 30.421875 42.28125 30.421875 31.390625 
Q 30.421875 20.453125 26.78125 9.375 
Q 23.140625 -1.703125 15.828125 -13.1875 
L 8.015625 -13.1875 
Q 14.5 -2 17.703125 9.0625 
Q 20.90625 20.125 20.90625 31.390625 
Q 20.90625 42.671875 17.703125 53.65625 
Q 14.5 64.65625 8.015625 75.875 
z
" id="DejaVuSans-41"/>
     </defs>
     <g transform="translate(31.785625 325.842188)rotate(-90)scale(0.12 -0.12)">
      <use xlink:href="#DejaVuSans-100"/>
      <use x="63.476562" xlink:href="#DejaVuSans-117"/>
      <use x="126.855469" xlink:href="#DejaVuSans-114"/>
      <use x="167.96875" xlink:href="#DejaVuSans-97"/>
      <use x="229.248047" xlink:href="#DejaVuSans-116"/>
      <use x="268.457031" xlink:href="#DejaVuSans-105"/>
      <use x="296.240234" xlink:href="#DejaVuSans-111"/>
      <use x="357.421875" xlink:href="#DejaVuSans-110"/>
      <use x="420.800781" xlink:href="#DejaVuSans-32"/>
      <use x="452.587891" xlink:href="#DejaVuSans-40"/>
      <use x="491.601562" xlink:href="#DejaVuSans-115"/>
      <use x="543.701172" xlink:href="#DejaVuSans-41"/>
     </g>
    </g>
   </g>
   <g id="line2d_35">
    <path clip-path="url(#pedd837dbcd)" d="M 90.6 491.867282 
L 127.8 491.867282 
L 127.8 491.451307 
L 90.6 491.451307 
L 90.6 491.867282 
" style="fill:none;stroke:#000000;stroke-linecap:square;"/>
   </g>
   <g id="line2d_36">
    <path clip-path="url(#pedd837dbcd)" d="M 109.2 491.867282 
L 109.2 492.48 
" style="fill:none;stroke:#000000;stroke-linecap:square;"/>
   </g>
   <g id="line2d_37">
    <path clip-path="url(#pedd837dbcd)" d="M 109.2 491.451307 
L 109.2 491.366039 
" style="fill:none;stroke:#000000;stroke-linecap:square;"/>
   </g>
   <g id="line2d_38">
    <path clip-path="url(#pedd837dbcd)" d="M 99.9 492.48 
L 118.5 492.48 
" style="fill:none;stroke:#000000;stroke-linecap:square;"/>
   </g>
   <g id="line2d_39">
    <path clip-path="url(#pedd837dbcd)" d="M 99.9 491.366039 
L 118.5 491.366039 
" style="fill:none;stroke:#000000;stroke-linecap:square;"/>
   </g>
   <g id="line2d_40">
    <defs>
     <path d="M -3 0 
L 3 0 
M 0 3 
L 0 -3 
" id="md9f5e569cf" style="stroke:#000000;"/>
    </defs>
    <g clip-path="url(#pedd837dbcd)">
     <use style="stroke:#000000;" x="109.2" xlink:href="#md9f5e569cf" y="489.822217"/>
    </g>
   </g>
   <g id="line2d_41">
    <path clip-path="url(#pedd837dbcd)" d="M 165 486.926817 
L 202.2 486.926817 
L 202.2 486.419902 
L 165 486.419902 
L 165 486.926817 
" style="fill:none;stroke:#000000;stroke-linecap:square;"/>
   </g>
   <g id="line2d_42">
    <path clip-path="url(#pedd837dbcd)" d="M 183.6 486.926817 
L 183.6 487.612678 
" style="fill:none;stroke:#000000;stroke-linecap:square;"/>
   </g>
   <g id="line2d_43">
    <path clip-path="url(#pedd837dbcd)" d="M 183.6 486.419902 
L 183.6 486.091933 
" style="fill:none;stroke:#000000;stroke-linecap:square;"/>
   </g>
   <g id="line2d_44">
    <path clip-path="url(#pedd837dbcd)" d="M 174.3 487.612678 
L 192.9 487.612678 
" style="fill:none;stroke:#000000;stroke-linecap:square;"/>
   </g>
   <g id="line2d_45">
    <path clip-path="url(#pedd837dbcd)" d="M 174.3 486.091933 
L 192.9 486.091933 
" style="fill:none;stroke:#000000;stroke-linecap:square;"/>
   </g>
   <g id="line2d_46"/>
   <g id="line2d_47">
    <path clip-path="url(#pedd837dbcd)" d="M 239.4 483.731806 
L 276.6 483.731806 
L 276.6 483.43415 
L 239.4 483.43415 
L 239.4 483.731806 
" style="fill:none;stroke:#000000;stroke-linecap:square;"/>
   </g>
   <g id="line2d_48">
    <path clip-path="url(#pedd837dbcd)" d="M 258 483.731806 
L 258 483.824505 
" style="fill:none;stroke:#000000;stroke-linecap:square;"/>
   </g>
   <g id="line2d_49">
    <path clip-path="url(#pedd837dbcd)" d="M 258 483.43415 
L 258 483.420851 
" style="fill:none;stroke:#000000;stroke-linecap:square;"/>
   </g>
   <g id="line2d_50">
    <path clip-path="url(#pedd837dbcd)" d="M 248.7 483.824505 
L 267.3 483.824505 
" style="fill:none;stroke:#000000;stroke-linecap:square;"/>
   </g>
   <g id="line2d_51">
    <path clip-path="url(#pedd837dbcd)" d="M 248.7 483.420851 
L 267.3 483.420851 
" style="fill:none;stroke:#000000;stroke-linecap:square;"/>
   </g>
   <g id="line2d_52">
    <g clip-path="url(#pedd837dbcd)">
     <use style="stroke:#000000;" x="258" xlink:href="#md9f5e569cf" y="485.269761"/>
     <use style="stroke:#000000;" x="258" xlink:href="#md9f5e569cf" y="482.436747"/>
    </g>
   </g>
   <g id="line2d_53">
    <path clip-path="url(#pedd837dbcd)" d="M 313.8 104.629823 
L 351 104.629823 
L 351 104.283666 
L 313.8 104.283666 
L 313.8 104.629823 
" style="fill:none;stroke:#000000;stroke-linecap:square;"/>
   </g>
   <g id="line2d_54">
    <path clip-path="url(#pedd837dbcd)" d="M 332.4 104.629823 
L 332.4 104.658376 
" style="fill:none;stroke:#000000;stroke-linecap:square;"/>
   </g>
   <g id="line2d_55">
    <path clip-path="url(#pedd837dbcd)" d="M 332.4 104.283666 
L 332.4 104.27467 
" style="fill:none;stroke:#000000;stroke-linecap:square;"/>
   </g>
   <g id="line2d_56">
    <path clip-path="url(#pedd837dbcd)" d="M 323.1 104.658376 
L 341.7 104.658376 
" style="fill:none;stroke:#000000;stroke-linecap:square;"/>
   </g>
   <g id="line2d_57">
    <path clip-path="url(#pedd837dbcd)" d="M 323.1 104.27467 
L 341.7 104.27467 
" style="fill:none;stroke:#000000;stroke-linecap:square;"/>
   </g>
   <g id="line2d_58">
    <g clip-path="url(#pedd837dbcd)">
     <use style="stroke:#000000;" x="332.4" xlink:href="#md9f5e569cf" y="105.711711"/>
     <use style="stroke:#000000;" x="332.4" xlink:href="#md9f5e569cf" y="99.104998"/>
    </g>
   </g>
   <g id="line2d_59">
    <path clip-path="url(#pedd837dbcd)" d="M 388.2 110.977016 
L 425.4 110.977016 
L 425.4 110.601328 
L 388.2 110.601328 
L 388.2 110.977016 
" style="fill:none;stroke:#000000;stroke-linecap:square;"/>
   </g>
   <g id="line2d_60">
    <path clip-path="url(#pedd837dbcd)" d="M 406.8 110.977016 
L 406.8 111.240448 
" style="fill:none;stroke:#000000;stroke-linecap:square;"/>
   </g>
   <g id="line2d_61">
    <path clip-path="url(#pedd837dbcd)" d="M 406.8 110.601328 
L 406.8 110.406932 
" style="fill:none;stroke:#000000;stroke-linecap:square;"/>
   </g>
   <g id="line2d_62">
    <path clip-path="url(#pedd837dbcd)" d="M 397.5 111.240448 
L 416.1 111.240448 
" style="fill:none;stroke:#000000;stroke-linecap:square;"/>
   </g>
   <g id="line2d_63">
    <path clip-path="url(#pedd837dbcd)" d="M 397.5 110.406932 
L 416.1 110.406932 
" style="fill:none;stroke:#000000;stroke-linecap:square;"/>
   </g>
   <g id="line2d_64">
    <g clip-path="url(#pedd837dbcd)">
     <use style="stroke:#000000;" x="406.8" xlink:href="#md9f5e569cf" y="109.322307"/>
    </g>
   </g>
   <g id="line2d_65">
    <path clip-path="url(#pedd837dbcd)" d="M 462.6 104.620045 
L 499.8 104.620045 
L 499.8 104.3969 
L 462.6 104.3969 
L 462.6 104.620045 
" style="fill:none;stroke:#000000;stroke-linecap:square;"/>
   </g>
   <g id="line2d_66">
    <path clip-path="url(#pedd837dbcd)" d="M 481.2 104.620045 
L 481.2 104.620827 
" style="fill:none;stroke:#000000;stroke-linecap:square;"/>
   </g>
   <g id="line2d_67">
    <path clip-path="url(#pedd837dbcd)" d="M 481.2 104.3969 
L 481.2 104.100613 
" style="fill:none;stroke:#000000;stroke-linecap:square;"/>
   </g>
   <g id="line2d_68">
    <path clip-path="url(#pedd837dbcd)" d="M 471.9 104.620827 
L 490.5 104.620827 
" style="fill:none;stroke:#000000;stroke-linecap:square;"/>
   </g>
   <g id="line2d_69">
    <path clip-path="url(#pedd837dbcd)" d="M 471.9 104.100613 
L 490.5 104.100613 
" style="fill:none;stroke:#000000;stroke-linecap:square;"/>
   </g>
   <g id="line2d_70">
    <g clip-path="url(#pedd837dbcd)">
     <use style="stroke:#000000;" x="481.2" xlink:href="#md9f5e569cf" y="105.014312"/>
    </g>
   </g>
   <g id="line2d_71">
    <path clip-path="url(#pedd837dbcd)" d="M 90.6 386.16906 
L 127.8 386.16906 
L 127.8 385.816449 
L 90.6 385.816449 
L 90.6 386.16906 
" style="fill:none;stroke:#000000;stroke-linecap:square;"/>
   </g>
   <g id="line2d_72">
    <path clip-path="url(#pedd837dbcd)" d="M 109.2 386.16906 
L 109.2 386.667761 
" style="fill:none;stroke:#000000;stroke-linecap:square;"/>
   </g>
   <g id="line2d_73">
    <path clip-path="url(#pedd837dbcd)" d="M 109.2 385.816449 
L 109.2 385.442325 
" style="fill:none;stroke:#000000;stroke-linecap:square;"/>
   </g>
   <g id="line2d_74">
    <path clip-path="url(#pedd837dbcd)" d="M 99.9 386.667761 
L 118.5 386.667761 
" style="fill:none;stroke:#000000;stroke-linecap:square;"/>
   </g>
   <g id="line2d_75">
    <path clip-path="url(#pedd837dbcd)" d="M 99.9 385.442325 
L 118.5 385.442325 
" style="fill:none;stroke:#000000;stroke-linecap:square;"/>
   </g>
   <g id="line2d_76"/>
   <g id="line2d_77">
    <path clip-path="url(#pedd837dbcd)" d="M 165 387.14671 
L 202.2 387.14671 
L 202.2 386.154588 
L 165 386.154588 
L 165 387.14671 
" style="fill:none;stroke:#000000;stroke-linecap:square;"/>
   </g>
   <g id="line2d_78">
    <path clip-path="url(#pedd837dbcd)" d="M 183.6 387.14671 
L 183.6 387.647171 
" style="fill:none;stroke:#000000;stroke-linecap:square;"/>
   </g>
   <g id="line2d_79">
    <path clip-path="url(#pedd837dbcd)" d="M 183.6 386.154588 
L 183.6 385.583526 
" style="fill:none;stroke:#000000;stroke-linecap:square;"/>
   </g>
   <g id="line2d_80">
    <path clip-path="url(#pedd837dbcd)" d="M 174.3 387.647171 
L 192.9 387.647171 
" style="fill:none;stroke:#000000;stroke-linecap:square;"/>
   </g>
   <g id="line2d_81">
    <path clip-path="url(#pedd837dbcd)" d="M 174.3 385.583526 
L 192.9 385.583526 
" style="fill:none;stroke:#000000;stroke-linecap:square;"/>
   </g>
   <g id="line2d_82"/>
   <g id="line2d_83">
    <path clip-path="url(#pedd837dbcd)" d="M 239.4 376.037606 
L 276.6 376.037606 
L 276.6 375.780237 
L 239.4 375.780237 
L 239.4 376.037606 
" style="fill:none;stroke:#000000;stroke-linecap:square;"/>
   </g>
   <g id="line2d_84">
    <path clip-path="url(#pedd837dbcd)" d="M 258 376.037606 
L 258 376.301037 
" style="fill:none;stroke:#000000;stroke-linecap:square;"/>
   </g>
   <g id="line2d_85">
    <path clip-path="url(#pedd837dbcd)" d="M 258 375.780237 
L 258 375.767916 
" style="fill:none;stroke:#000000;stroke-linecap:square;"/>
   </g>
   <g id="line2d_86">
    <path clip-path="url(#pedd837dbcd)" d="M 248.7 376.301037 
L 267.3 376.301037 
" style="fill:none;stroke:#000000;stroke-linecap:square;"/>
   </g>
   <g id="line2d_87">
    <path clip-path="url(#pedd837dbcd)" d="M 248.7 375.767916 
L 267.3 375.767916 
" style="fill:none;stroke:#000000;stroke-linecap:square;"/>
   </g>
   <g id="line2d_88">
    <g clip-path="url(#pedd837dbcd)">
     <use style="stroke:#000000;" x="258" xlink:href="#md9f5e569cf" y="375.178862"/>
    </g>
   </g>
   <g id="line2d_89">
    <path clip-path="url(#pedd837dbcd)" d="M 313.8 103.317359 
L 351 103.317359 
L 351 102.980394 
L 313.8 102.980394 
L 313.8 103.317359 
" style="fill:none;stroke:#000000;stroke-linecap:square;"/>
   </g>
   <g id="line2d_90">
    <path clip-path="url(#pedd837dbcd)" d="M 332.4 103.317359 
L 332.4 103.777533 
" style="fill:none;stroke:#000000;stroke-linecap:square;"/>
   </g>
   <g id="line2d_91">
    <path clip-path="url(#pedd837dbcd)" d="M 332.4 102.980394 
L 332.4 102.716375 
" style="fill:none;stroke:#000000;stroke-linecap:square;"/>
   </g>
   <g id="line2d_92">
    <path clip-path="url(#pedd837dbcd)" d="M 323.1 103.777533 
L 341.7 103.777533 
" style="fill:none;stroke:#000000;stroke-linecap:square;"/>
   </g>
   <g id="line2d_93">
    <path clip-path="url(#pedd837dbcd)" d="M 323.1 102.716375 
L 341.7 102.716375 
" style="fill:none;stroke:#000000;stroke-linecap:square;"/>
   </g>
   <g id="line2d_94">
    <g clip-path="url(#pedd837dbcd)">
     <use style="stroke:#000000;" x="332.4" xlink:href="#md9f5e569cf" y="102.379997"/>
    </g>
   </g>
   <g id="line2d_95">
    <path clip-path="url(#pedd837dbcd)" d="M 388.2 99.068231 
L 425.4 99.068231 
L 425.4 98.676506 
L 388.2 98.676506 
L 388.2 99.068231 
" style="fill:none;stroke:#000000;stroke-linecap:square;"/>
   </g>
   <g id="line2d_96">
    <path clip-path="url(#pedd837dbcd)" d="M 406.8 99.068231 
L 406.8 99.123381 
" style="fill:none;stroke:#000000;stroke-linecap:square;"/>
   </g>
   <g id="line2d_97">
    <path clip-path="url(#pedd837dbcd)" d="M 406.8 98.676506 
L 406.8 98.535892 
" style="fill:none;stroke:#000000;stroke-linecap:square;"/>
   </g>
   <g id="line2d_98">
    <path clip-path="url(#pedd837dbcd)" d="M 397.5 99.123381 
L 416.1 99.123381 
" style="fill:none;stroke:#000000;stroke-linecap:square;"/>
   </g>
   <g id="line2d_99">
    <path clip-path="url(#pedd837dbcd)" d="M 397.5 98.535892 
L 416.1 98.535892 
" style="fill:none;stroke:#000000;stroke-linecap:square;"/>
   </g>
   <g id="line2d_100">
    <g clip-path="url(#pedd837dbcd)">
     <use style="stroke:#000000;" x="406.8" xlink:href="#md9f5e569cf" y="99.74842"/>
    </g>
   </g>
   <g id="line2d_101">
    <path clip-path="url(#pedd837dbcd)" d="M 462.6 90.188809 
L 499.8 90.188809 
L 499.8 89.999303 
L 462.6 89.999303 
L 462.6 90.188809 
" style="fill:none;stroke:#000000;stroke-linecap:square;"/>
   </g>
   <g id="line2d_102">
    <path clip-path="url(#pedd837dbcd)" d="M 481.2 90.188809 
L 481.2 90.454588 
" style="fill:none;stroke:#000000;stroke-linecap:square;"/>
   </g>
   <g id="line2d_103">
    <path clip-path="url(#pedd837dbcd)" d="M 481.2 89.999303 
L 481.2 89.887046 
" style="fill:none;stroke:#000000;stroke-linecap:square;"/>
   </g>
   <g id="line2d_104">
    <path clip-path="url(#pedd837dbcd)" d="M 471.9 90.454588 
L 490.5 90.454588 
" style="fill:none;stroke:#000000;stroke-linecap:square;"/>
   </g>
   <g id="line2d_105">
    <path clip-path="url(#pedd837dbcd)" d="M 471.9 89.887046 
L 490.5 89.887046 
" style="fill:none;stroke:#000000;stroke-linecap:square;"/>
   </g>
   <g id="line2d_106">
    <g clip-path="url(#pedd837dbcd)">
     <use style="stroke:#000000;" x="481.2" xlink:href="#md9f5e569cf" y="89.28"/>
    </g>
   </g>
   <g id="line2d_107">
    <path clip-path="url(#pedd837dbcd)" d="M 90.6 491.549874 
L 127.8 491.549874 
" style="fill:none;stroke:#0000ff;stroke-linecap:square;"/>
   </g>
   <g id="line2d_108">
    <path clip-path="url(#pedd837dbcd)" d="M 165 486.673946 
L 202.2 486.673946 
" style="fill:none;stroke:#0000ff;stroke-linecap:square;"/>
   </g>
   <g id="line2d_109">
    <path clip-path="url(#pedd837dbcd)" d="M 239.4 483.632457 
L 276.6 483.632457 
" style="fill:none;stroke:#0000ff;stroke-linecap:square;"/>
   </g>
   <g id="line2d_110">
    <path clip-path="url(#pedd837dbcd)" d="M 313.8 104.307525 
L 351 104.307525 
" style="fill:none;stroke:#0000ff;stroke-linecap:square;"/>
   </g>
   <g id="line2d_111">
    <path clip-path="url(#pedd837dbcd)" d="M 388.2 110.868084 
L 425.4 110.868084 
" style="fill:none;stroke:#0000ff;stroke-linecap:square;"/>
   </g>
   <g id="line2d_112">
    <path clip-path="url(#pedd837dbcd)" d="M 462.6 104.496054 
L 499.8 104.496054 
" style="fill:none;stroke:#0000ff;stroke-linecap:square;"/>
   </g>
   <g id="line2d_113">
    <path clip-path="url(#pedd837dbcd)" d="M 90.6 386.003217 
L 127.8 386.003217 
" style="fill:none;stroke:#ff7f0e;stroke-linecap:square;"/>
   </g>
   <g id="line2d_114">
    <path clip-path="url(#pedd837dbcd)" d="M 165 386.874673 
L 202.2 386.874673 
" style="fill:none;stroke:#ff7f0e;stroke-linecap:square;"/>
   </g>
   <g id="line2d_115">
    <path clip-path="url(#pedd837dbcd)" d="M 239.4 375.907552 
L 276.6 375.907552 
" style="fill:none;stroke:#ff7f0e;stroke-linecap:square;"/>
   </g>
   <g id="line2d_116">
    <path clip-path="url(#pedd837dbcd)" d="M 313.8 103.309732 
L 351 103.309732 
" style="fill:none;stroke:#ff7f0e;stroke-linecap:square;"/>
   </g>
   <g id="line2d_117">
    <path clip-path="url(#pedd837dbcd)" d="M 388.2 98.955974 
L 425.4 98.955974 
" style="fill:none;stroke:#ff7f0e;stroke-linecap:square;"/>
   </g>
   <g id="line2d_118">
    <path clip-path="url(#pedd837dbcd)" d="M 462.6 90.131508 
L 499.8 90.131508 
" style="fill:none;stroke:#ff7f0e;stroke-linecap:square;"/>
   </g>
   <g id="patch_3">
    <path d="M 72 512.64 
L 72 69.12 
" style="fill:none;stroke:#000000;stroke-linecap:square;stroke-linejoin:miter;stroke-width:0.8;"/>
   </g>
   <g id="patch_4">
    <path d="M 518.4 512.64 
L 518.4 69.12 
" style="fill:none;stroke:#000000;stroke-linecap:square;stroke-linejoin:miter;stroke-width:0.8;"/>
   </g>
   <g id="patch_5">
    <path d="M 72 512.64 
L 518.4 512.64 
" style="fill:none;stroke:#000000;stroke-linecap:square;stroke-linejoin:miter;stroke-width:0.8;"/>
   </g>
   <g id="patch_6">
    <path d="M 72 69.12 
L 518.4 69.12 
" style="fill:none;stroke:#000000;stroke-linecap:square;stroke-linejoin:miter;stroke-width:0.8;"/>
   </g>
   <g id="text_20">
    <!-- pre_transpose2 -->
    <defs>
     <path d="M 18.109375 8.203125 
L 18.109375 -20.796875 
L 9.078125 -20.796875 
L 9.078125 54.6875 
L 18.109375 54.6875 
L 18.109375 46.390625 
Q 20.953125 51.265625 25.265625 53.625 
Q 29.59375 56 35.59375 56 
Q 45.5625 56 51.78125 48.09375 
Q 58.015625 40.1875 58.015625 27.296875 
Q 58.015625 14.40625 51.78125 6.484375 
Q 45.5625 -1.421875 35.59375 -1.421875 
Q 29.59375 -1.421875 25.265625 0.953125 
Q 20.953125 3.328125 18.109375 8.203125 
z
M 48.6875 27.296875 
Q 48.6875 37.203125 44.609375 42.84375 
Q 40.53125 48.484375 33.40625 48.484375 
Q 26.265625 48.484375 22.1875 42.84375 
Q 18.109375 37.203125 18.109375 27.296875 
Q 18.109375 17.390625 22.1875 11.75 
Q 26.265625 6.109375 33.40625 6.109375 
Q 40.53125 6.109375 44.609375 11.75 
Q 48.6875 17.390625 48.6875 27.296875 
z
" id="DejaVuSans-112"/>
     <path d="M 50.984375 -16.609375 
L 50.984375 -23.578125 
L -0.984375 -23.578125 
L -0.984375 -16.609375 
z
" id="DejaVuSans-95"/>
    </defs>
    <g transform="translate(239.554125 63.12)scale(0.144 -0.144)">
     <use xlink:href="#DejaVuSans-112"/>
     <use x="63.476562" xlink:href="#DejaVuSans-114"/>
     <use x="102.339844" xlink:href="#DejaVuSans-101"/>
     <use x="163.863281" xlink:href="#DejaVuSans-95"/>
     <use x="213.863281" xlink:href="#DejaVuSans-116"/>
     <use x="253.072266" xlink:href="#DejaVuSans-114"/>
     <use x="294.185547" xlink:href="#DejaVuSans-97"/>
     <use x="355.464844" xlink:href="#DejaVuSans-110"/>
     <use x="418.84375" xlink:href="#DejaVuSans-115"/>
     <use x="470.943359" xlink:href="#DejaVuSans-112"/>
     <use x="534.419922" xlink:href="#DejaVuSans-111"/>
     <use x="595.601562" xlink:href="#DejaVuSans-115"/>
     <use x="647.701172" xlink:href="#DejaVuSans-101"/>
     <use x="709.224609" xlink:href="#DejaVuSans-50"/>
    </g>
   </g>
   <g id="legend_1">
    <g id="patch_7">
     <path d="M 80.4 114.28125 
L 193.880625 114.28125 
Q 196.280625 114.28125 196.280625 111.88125 
L 196.280625 77.52 
Q 196.280625 75.12 193.880625 75.12 
L 80.4 75.12 
Q 78 75.12 78 77.52 
L 78 111.88125 
Q 78 114.28125 80.4 114.28125 
z
" style="fill:#ffffff;opacity:0.8;stroke:#cccccc;stroke-linejoin:miter;"/>
    </g>
    <g id="line2d_119">
     <path d="M 82.8 84.838125 
L 106.8 84.838125 
" style="fill:none;stroke:#0000ff;stroke-linecap:square;"/>
    </g>
    <g id="line2d_120"/>
    <g id="text_21">
     <!-- transpose -->
     <g transform="translate(116.4 89.038125)scale(0.12 -0.12)">
      <use xlink:href="#DejaVuSans-116"/>
      <use x="39.208984" xlink:href="#DejaVuSans-114"/>
      <use x="80.322266" xlink:href="#DejaVuSans-97"/>
      <use x="141.601562" xlink:href="#DejaVuSans-110"/>
      <use x="204.980469" xlink:href="#DejaVuSans-115"/>
      <use x="257.080078" xlink:href="#DejaVuSans-112"/>
      <use x="320.556641" xlink:href="#DejaVuSans-111"/>
      <use x="381.738281" xlink:href="#DejaVuSans-115"/>
      <use x="433.837891" xlink:href="#DejaVuSans-101"/>
     </g>
    </g>
    <g id="line2d_121">
     <path d="M 82.8 102.451875 
L 106.8 102.451875 
" style="fill:none;stroke:#ff7f0e;stroke-linecap:square;"/>
    </g>
    <g id="line2d_122"/>
    <g id="text_22">
     <!-- transpose_tr -->
     <g transform="translate(116.4 106.651875)scale(0.12 -0.12)">
      <use xlink:href="#DejaVuSans-116"/>
      <use x="39.208984" xlink:href="#DejaVuSans-114"/>
      <use x="80.322266" xlink:href="#DejaVuSans-97"/>
      <use x="141.601562" xlink:href="#DejaVuSans-110"/>
      <use x="204.980469" xlink:href="#DejaVuSans-115"/>
      <use x="257.080078" xlink:href="#DejaVuSans-112"/>
      <use x="320.556641" xlink:href="#DejaVuSans-111"/>
      <use x="381.738281" xlink:href="#DejaVuSans-115"/>
      <use x="433.837891" xlink:href="#DejaVuSans-101"/>
      <use x="495.361328" xlink:href="#DejaVuSans-95"/>
      <use x="545.361328" xlink:href="#DejaVuSans-116"/>
      <use x="584.570312" xlink:href="#DejaVuSans-114"/>
     </g>
    </g>
   </g>
  </g>
 </g>
 <defs>
  <clipPath id="pedd837dbcd">
   <rect height="443.52" width="446.4" x="72" y="69.12"/>
  </clipPath>
 </defs>
</svg>
