<?xml version="1.0" encoding="utf-8" standalone="no"?>
<!DOCTYPE svg PUBLIC "-//W3C//DTD SVG 1.1//EN"
  "http://www.w3.org/Graphics/SVG/1.1/DTD/svg11.dtd">
<!-- Created with matplotlib (https://matplotlib.org/) -->
<svg height="345.6pt" version="1.1" viewBox="0 0 460.8 345.6" width="460.8pt" xmlns="http://www.w3.org/2000/svg" xmlns:xlink="http://www.w3.org/1999/xlink">
 <defs>
  <style type="text/css">
*{stroke-linecap:butt;stroke-linejoin:round;}
  </style>
 </defs>
 <g id="figure_1">
  <g id="patch_1">
   <path d="M 0 345.6 
L 460.8 345.6 
L 460.8 0 
L 0 0 
z
" style="fill:#ffffff;"/>
  </g>
  <g id="axes_1">
   <g id="patch_2">
    <path d="M 57.6 307.584 
L 414.72 307.584 
L 414.72 41.472 
L 57.6 41.472 
z
" style="fill:#ffffff;"/>
   </g>
   <g id="matplotlib.axis_1">
    <g id="xtick_1">
     <g id="line2d_1">
      <path clip-path="url(#p72d6fc05c2)" d="M 61.612584 307.584 
L 61.612584 41.472 
" style="fill:none;stroke:#b0b0b0;stroke-dasharray:5.12,1.28,0.8,1.28;stroke-dashoffset:0;stroke-width:0.8;"/>
     </g>
     <g id="line2d_2">
      <defs>
       <path d="M 0 0 
L 0 3.5 
" id="mf7f37961eb" style="stroke:#000000;stroke-width:0.8;"/>
      </defs>
      <g>
       <use style="stroke:#000000;stroke-width:0.8;" x="61.612584" xlink:href="#mf7f37961eb" y="307.584"/>
      </g>
     </g>
     <g id="text_1">
      <!-- 1 -->
      <defs>
       <path d="M 12.40625 8.296875 
L 28.515625 8.296875 
L 28.515625 63.921875 
L 10.984375 60.40625 
L 10.984375 69.390625 
L 28.421875 72.90625 
L 38.28125 72.90625 
L 38.28125 8.296875 
L 54.390625 8.296875 
L 54.390625 0 
L 12.40625 0 
z
" id="DejaVuSans-49"/>
      </defs>
      <g transform="translate(58.431334 322.182437)scale(0.1 -0.1)">
       <use xlink:href="#DejaVuSans-49"/>
      </g>
     </g>
    </g>
    <g id="xtick_2">
     <g id="line2d_3">
      <path clip-path="url(#p72d6fc05c2)" d="M 73.650337 307.584 
L 73.650337 41.472 
" style="fill:none;stroke:#b0b0b0;stroke-dasharray:5.12,1.28,0.8,1.28;stroke-dashoffset:0;stroke-width:0.8;"/>
     </g>
     <g id="line2d_4">
      <g>
       <use style="stroke:#000000;stroke-width:0.8;" x="73.650337" xlink:href="#mf7f37961eb" y="307.584"/>
      </g>
     </g>
     <g id="text_2">
      <!-- 4 -->
      <defs>
       <path d="M 37.796875 64.3125 
L 12.890625 25.390625 
L 37.796875 25.390625 
z
M 35.203125 72.90625 
L 47.609375 72.90625 
L 47.609375 25.390625 
L 58.015625 25.390625 
L 58.015625 17.1875 
L 47.609375 17.1875 
L 47.609375 0 
L 37.796875 0 
L 37.796875 17.1875 
L 4.890625 17.1875 
L 4.890625 26.703125 
z
" id="DejaVuSans-52"/>
      </defs>
      <g transform="translate(70.469087 322.182437)scale(0.1 -0.1)">
       <use xlink:href="#DejaVuSans-52"/>
      </g>
     </g>
    </g>
    <g id="xtick_3">
     <g id="line2d_5">
      <path clip-path="url(#p72d6fc05c2)" d="M 89.700674 307.584 
L 89.700674 41.472 
" style="fill:none;stroke:#b0b0b0;stroke-dasharray:5.12,1.28,0.8,1.28;stroke-dashoffset:0;stroke-width:0.8;"/>
     </g>
     <g id="line2d_6">
      <g>
       <use style="stroke:#000000;stroke-width:0.8;" x="89.700674" xlink:href="#mf7f37961eb" y="307.584"/>
      </g>
     </g>
     <g id="text_3">
      <!-- 8 -->
      <defs>
       <path d="M 31.78125 34.625 
Q 24.75 34.625 20.71875 30.859375 
Q 16.703125 27.09375 16.703125 20.515625 
Q 16.703125 13.921875 20.71875 10.15625 
Q 24.75 6.390625 31.78125 6.390625 
Q 38.8125 6.390625 42.859375 10.171875 
Q 46.921875 13.96875 46.921875 20.515625 
Q 46.921875 27.09375 42.890625 30.859375 
Q 38.875 34.625 31.78125 34.625 
z
M 21.921875 38.8125 
Q 15.578125 40.375 12.03125 44.71875 
Q 8.5 49.078125 8.5 55.328125 
Q 8.5 64.0625 14.71875 69.140625 
Q 20.953125 74.21875 31.78125 74.21875 
Q 42.671875 74.21875 48.875 69.140625 
Q 55.078125 64.0625 55.078125 55.328125 
Q 55.078125 49.078125 51.53125 44.71875 
Q 48 40.375 41.703125 38.8125 
Q 48.828125 37.15625 52.796875 32.3125 
Q 56.78125 27.484375 56.78125 20.515625 
Q 56.78125 9.90625 50.3125 4.234375 
Q 43.84375 -1.421875 31.78125 -1.421875 
Q 19.734375 -1.421875 13.25 4.234375 
Q 6.78125 9.90625 6.78125 20.515625 
Q 6.78125 27.484375 10.78125 32.3125 
Q 14.796875 37.15625 21.921875 38.8125 
z
M 18.3125 54.390625 
Q 18.3125 48.734375 21.84375 45.5625 
Q 25.390625 42.390625 31.78125 42.390625 
Q 38.140625 42.390625 41.71875 45.5625 
Q 45.3125 48.734375 45.3125 54.390625 
Q 45.3125 60.0625 41.71875 63.234375 
Q 38.140625 66.40625 31.78125 66.40625 
Q 25.390625 66.40625 21.84375 63.234375 
Q 18.3125 60.0625 18.3125 54.390625 
z
" id="DejaVuSans-56"/>
      </defs>
      <g transform="translate(86.519424 322.182437)scale(0.1 -0.1)">
       <use xlink:href="#DejaVuSans-56"/>
      </g>
     </g>
    </g>
    <g id="xtick_4">
     <g id="line2d_7">
      <path clip-path="url(#p72d6fc05c2)" d="M 105.751011 307.584 
L 105.751011 41.472 
" style="fill:none;stroke:#b0b0b0;stroke-dasharray:5.12,1.28,0.8,1.28;stroke-dashoffset:0;stroke-width:0.8;"/>
     </g>
     <g id="line2d_8">
      <g>
       <use style="stroke:#000000;stroke-width:0.8;" x="105.751011" xlink:href="#mf7f37961eb" y="307.584"/>
      </g>
     </g>
     <g id="text_4">
      <!-- 12 -->
      <defs>
       <path d="M 19.1875 8.296875 
L 53.609375 8.296875 
L 53.609375 0 
L 7.328125 0 
L 7.328125 8.296875 
Q 12.9375 14.109375 22.625 23.890625 
Q 32.328125 33.6875 34.8125 36.53125 
Q 39.546875 41.84375 41.421875 45.53125 
Q 43.3125 49.21875 43.3125 52.78125 
Q 43.3125 58.59375 39.234375 62.25 
Q 35.15625 65.921875 28.609375 65.921875 
Q 23.96875 65.921875 18.8125 64.3125 
Q 13.671875 62.703125 7.8125 59.421875 
L 7.8125 69.390625 
Q 13.765625 71.78125 18.9375 73 
Q 24.125 74.21875 28.421875 74.21875 
Q 39.75 74.21875 46.484375 68.546875 
Q 53.21875 62.890625 53.21875 53.421875 
Q 53.21875 48.921875 51.53125 44.890625 
Q 49.859375 40.875 45.40625 35.40625 
Q 44.1875 33.984375 37.640625 27.21875 
Q 31.109375 20.453125 19.1875 8.296875 
z
" id="DejaVuSans-50"/>
      </defs>
      <g transform="translate(99.388511 322.182437)scale(0.1 -0.1)">
       <use xlink:href="#DejaVuSans-49"/>
       <use x="63.623047" xlink:href="#DejaVuSans-50"/>
      </g>
     </g>
    </g>
    <g id="xtick_5">
     <g id="line2d_9">
      <path clip-path="url(#p72d6fc05c2)" d="M 121.801348 307.584 
L 121.801348 41.472 
" style="fill:none;stroke:#b0b0b0;stroke-dasharray:5.12,1.28,0.8,1.28;stroke-dashoffset:0;stroke-width:0.8;"/>
     </g>
     <g id="line2d_10">
      <g>
       <use style="stroke:#000000;stroke-width:0.8;" x="121.801348" xlink:href="#mf7f37961eb" y="307.584"/>
      </g>
     </g>
     <g id="text_5">
      <!-- 16 -->
      <defs>
       <path d="M 33.015625 40.375 
Q 26.375 40.375 22.484375 35.828125 
Q 18.609375 31.296875 18.609375 23.390625 
Q 18.609375 15.53125 22.484375 10.953125 
Q 26.375 6.390625 33.015625 6.390625 
Q 39.65625 6.390625 43.53125 10.953125 
Q 47.40625 15.53125 47.40625 23.390625 
Q 47.40625 31.296875 43.53125 35.828125 
Q 39.65625 40.375 33.015625 40.375 
z
M 52.59375 71.296875 
L 52.59375 62.3125 
Q 48.875 64.0625 45.09375 64.984375 
Q 41.3125 65.921875 37.59375 65.921875 
Q 27.828125 65.921875 22.671875 59.328125 
Q 17.53125 52.734375 16.796875 39.40625 
Q 19.671875 43.65625 24.015625 45.921875 
Q 28.375 48.1875 33.59375 48.1875 
Q 44.578125 48.1875 50.953125 41.515625 
Q 57.328125 34.859375 57.328125 23.390625 
Q 57.328125 12.15625 50.6875 5.359375 
Q 44.046875 -1.421875 33.015625 -1.421875 
Q 20.359375 -1.421875 13.671875 8.265625 
Q 6.984375 17.96875 6.984375 36.375 
Q 6.984375 53.65625 15.1875 63.9375 
Q 23.390625 74.21875 37.203125 74.21875 
Q 40.921875 74.21875 44.703125 73.484375 
Q 48.484375 72.75 52.59375 71.296875 
z
" id="DejaVuSans-54"/>
      </defs>
      <g transform="translate(115.438848 322.182437)scale(0.1 -0.1)">
       <use xlink:href="#DejaVuSans-49"/>
       <use x="63.623047" xlink:href="#DejaVuSans-54"/>
      </g>
     </g>
    </g>
    <g id="xtick_6">
     <g id="line2d_11">
      <path clip-path="url(#p72d6fc05c2)" d="M 137.851685 307.584 
L 137.851685 41.472 
" style="fill:none;stroke:#b0b0b0;stroke-dasharray:5.12,1.28,0.8,1.28;stroke-dashoffset:0;stroke-width:0.8;"/>
     </g>
     <g id="line2d_12">
      <g>
       <use style="stroke:#000000;stroke-width:0.8;" x="137.851685" xlink:href="#mf7f37961eb" y="307.584"/>
      </g>
     </g>
     <g id="text_6">
      <!-- 20 -->
      <defs>
       <path d="M 31.78125 66.40625 
Q 24.171875 66.40625 20.328125 58.90625 
Q 16.5 51.421875 16.5 36.375 
Q 16.5 21.390625 20.328125 13.890625 
Q 24.171875 6.390625 31.78125 6.390625 
Q 39.453125 6.390625 43.28125 13.890625 
Q 47.125 21.390625 47.125 36.375 
Q 47.125 51.421875 43.28125 58.90625 
Q 39.453125 66.40625 31.78125 66.40625 
z
M 31.78125 74.21875 
Q 44.046875 74.21875 50.515625 64.515625 
Q 56.984375 54.828125 56.984375 36.375 
Q 56.984375 17.96875 50.515625 8.265625 
Q 44.046875 -1.421875 31.78125 -1.421875 
Q 19.53125 -1.421875 13.0625 8.265625 
Q 6.59375 17.96875 6.59375 36.375 
Q 6.59375 54.828125 13.0625 64.515625 
Q 19.53125 74.21875 31.78125 74.21875 
z
" id="DejaVuSans-48"/>
      </defs>
      <g transform="translate(131.489185 322.182437)scale(0.1 -0.1)">
       <use xlink:href="#DejaVuSans-50"/>
       <use x="63.623047" xlink:href="#DejaVuSans-48"/>
      </g>
     </g>
    </g>
    <g id="xtick_7">
     <g id="line2d_13">
      <path clip-path="url(#p72d6fc05c2)" d="M 153.902022 307.584 
L 153.902022 41.472 
" style="fill:none;stroke:#b0b0b0;stroke-dasharray:5.12,1.28,0.8,1.28;stroke-dashoffset:0;stroke-width:0.8;"/>
     </g>
     <g id="line2d_14">
      <g>
       <use style="stroke:#000000;stroke-width:0.8;" x="153.902022" xlink:href="#mf7f37961eb" y="307.584"/>
      </g>
     </g>
     <g id="text_7">
      <!-- 24 -->
      <g transform="translate(147.539522 322.182437)scale(0.1 -0.1)">
       <use xlink:href="#DejaVuSans-50"/>
       <use x="63.623047" xlink:href="#DejaVuSans-52"/>
      </g>
     </g>
    </g>
    <g id="xtick_8">
     <g id="line2d_15">
      <path clip-path="url(#p72d6fc05c2)" d="M 169.95236 307.584 
L 169.95236 41.472 
" style="fill:none;stroke:#b0b0b0;stroke-dasharray:5.12,1.28,0.8,1.28;stroke-dashoffset:0;stroke-width:0.8;"/>
     </g>
     <g id="line2d_16">
      <g>
       <use style="stroke:#000000;stroke-width:0.8;" x="169.95236" xlink:href="#mf7f37961eb" y="307.584"/>
      </g>
     </g>
     <g id="text_8">
      <!-- 28 -->
      <g transform="translate(163.58986 322.182437)scale(0.1 -0.1)">
       <use xlink:href="#DejaVuSans-50"/>
       <use x="63.623047" xlink:href="#DejaVuSans-56"/>
      </g>
     </g>
    </g>
    <g id="xtick_9">
     <g id="line2d_17">
      <path clip-path="url(#p72d6fc05c2)" d="M 186.002697 307.584 
L 186.002697 41.472 
" style="fill:none;stroke:#b0b0b0;stroke-dasharray:5.12,1.28,0.8,1.28;stroke-dashoffset:0;stroke-width:0.8;"/>
     </g>
     <g id="line2d_18">
      <g>
       <use style="stroke:#000000;stroke-width:0.8;" x="186.002697" xlink:href="#mf7f37961eb" y="307.584"/>
      </g>
     </g>
     <g id="text_9">
      <!-- 32 -->
      <defs>
       <path d="M 40.578125 39.3125 
Q 47.65625 37.796875 51.625 33 
Q 55.609375 28.21875 55.609375 21.1875 
Q 55.609375 10.40625 48.1875 4.484375 
Q 40.765625 -1.421875 27.09375 -1.421875 
Q 22.515625 -1.421875 17.65625 -0.515625 
Q 12.796875 0.390625 7.625 2.203125 
L 7.625 11.71875 
Q 11.71875 9.328125 16.59375 8.109375 
Q 21.484375 6.890625 26.8125 6.890625 
Q 36.078125 6.890625 40.9375 10.546875 
Q 45.796875 14.203125 45.796875 21.1875 
Q 45.796875 27.640625 41.28125 31.265625 
Q 36.765625 34.90625 28.71875 34.90625 
L 20.21875 34.90625 
L 20.21875 43.015625 
L 29.109375 43.015625 
Q 36.375 43.015625 40.234375 45.921875 
Q 44.09375 48.828125 44.09375 54.296875 
Q 44.09375 59.90625 40.109375 62.90625 
Q 36.140625 65.921875 28.71875 65.921875 
Q 24.65625 65.921875 20.015625 65.03125 
Q 15.375 64.15625 9.8125 62.3125 
L 9.8125 71.09375 
Q 15.4375 72.65625 20.34375 73.4375 
Q 25.25 74.21875 29.59375 74.21875 
Q 40.828125 74.21875 47.359375 69.109375 
Q 53.90625 64.015625 53.90625 55.328125 
Q 53.90625 49.265625 50.4375 45.09375 
Q 46.96875 40.921875 40.578125 39.3125 
z
" id="DejaVuSans-51"/>
      </defs>
      <g transform="translate(179.640197 322.182437)scale(0.1 -0.1)">
       <use xlink:href="#DejaVuSans-51"/>
       <use x="63.623047" xlink:href="#DejaVuSans-50"/>
      </g>
     </g>
    </g>
    <g id="xtick_10">
     <g id="line2d_19">
      <path clip-path="url(#p72d6fc05c2)" d="M 202.053034 307.584 
L 202.053034 41.472 
" style="fill:none;stroke:#b0b0b0;stroke-dasharray:5.12,1.28,0.8,1.28;stroke-dashoffset:0;stroke-width:0.8;"/>
     </g>
     <g id="line2d_20">
      <g>
       <use style="stroke:#000000;stroke-width:0.8;" x="202.053034" xlink:href="#mf7f37961eb" y="307.584"/>
      </g>
     </g>
     <g id="text_10">
      <!-- 36 -->
      <g transform="translate(195.690534 322.182437)scale(0.1 -0.1)">
       <use xlink:href="#DejaVuSans-51"/>
       <use x="63.623047" xlink:href="#DejaVuSans-54"/>
      </g>
     </g>
    </g>
    <g id="xtick_11">
     <g id="line2d_21">
      <path clip-path="url(#p72d6fc05c2)" d="M 218.103371 307.584 
L 218.103371 41.472 
" style="fill:none;stroke:#b0b0b0;stroke-dasharray:5.12,1.28,0.8,1.28;stroke-dashoffset:0;stroke-width:0.8;"/>
     </g>
     <g id="line2d_22">
      <g>
       <use style="stroke:#000000;stroke-width:0.8;" x="218.103371" xlink:href="#mf7f37961eb" y="307.584"/>
      </g>
     </g>
     <g id="text_11">
      <!-- 40 -->
      <g transform="translate(211.740871 322.182437)scale(0.1 -0.1)">
       <use xlink:href="#DejaVuSans-52"/>
       <use x="63.623047" xlink:href="#DejaVuSans-48"/>
      </g>
     </g>
    </g>
    <g id="xtick_12">
     <g id="line2d_23">
      <path clip-path="url(#p72d6fc05c2)" d="M 234.153708 307.584 
L 234.153708 41.472 
" style="fill:none;stroke:#b0b0b0;stroke-dasharray:5.12,1.28,0.8,1.28;stroke-dashoffset:0;stroke-width:0.8;"/>
     </g>
     <g id="line2d_24">
      <g>
       <use style="stroke:#000000;stroke-width:0.8;" x="234.153708" xlink:href="#mf7f37961eb" y="307.584"/>
      </g>
     </g>
     <g id="text_12">
      <!-- 44 -->
      <g transform="translate(227.791208 322.182437)scale(0.1 -0.1)">
       <use xlink:href="#DejaVuSans-52"/>
       <use x="63.623047" xlink:href="#DejaVuSans-52"/>
      </g>
     </g>
    </g>
    <g id="xtick_13">
     <g id="line2d_25">
      <path clip-path="url(#p72d6fc05c2)" d="M 250.204045 307.584 
L 250.204045 41.472 
" style="fill:none;stroke:#b0b0b0;stroke-dasharray:5.12,1.28,0.8,1.28;stroke-dashoffset:0;stroke-width:0.8;"/>
     </g>
     <g id="line2d_26">
      <g>
       <use style="stroke:#000000;stroke-width:0.8;" x="250.204045" xlink:href="#mf7f37961eb" y="307.584"/>
      </g>
     </g>
     <g id="text_13">
      <!-- 48 -->
      <g transform="translate(243.841545 322.182437)scale(0.1 -0.1)">
       <use xlink:href="#DejaVuSans-52"/>
       <use x="63.623047" xlink:href="#DejaVuSans-56"/>
      </g>
     </g>
    </g>
    <g id="xtick_14">
     <g id="line2d_27">
      <path clip-path="url(#p72d6fc05c2)" d="M 266.254382 307.584 
L 266.254382 41.472 
" style="fill:none;stroke:#b0b0b0;stroke-dasharray:5.12,1.28,0.8,1.28;stroke-dashoffset:0;stroke-width:0.8;"/>
     </g>
     <g id="line2d_28">
      <g>
       <use style="stroke:#000000;stroke-width:0.8;" x="266.254382" xlink:href="#mf7f37961eb" y="307.584"/>
      </g>
     </g>
     <g id="text_14">
      <!-- 52 -->
      <defs>
       <path d="M 10.796875 72.90625 
L 49.515625 72.90625 
L 49.515625 64.59375 
L 19.828125 64.59375 
L 19.828125 46.734375 
Q 21.96875 47.46875 24.109375 47.828125 
Q 26.265625 48.1875 28.421875 48.1875 
Q 40.625 48.1875 47.75 41.5 
Q 54.890625 34.8125 54.890625 23.390625 
Q 54.890625 11.625 47.5625 5.09375 
Q 40.234375 -1.421875 26.90625 -1.421875 
Q 22.3125 -1.421875 17.546875 -0.640625 
Q 12.796875 0.140625 7.71875 1.703125 
L 7.71875 11.625 
Q 12.109375 9.234375 16.796875 8.0625 
Q 21.484375 6.890625 26.703125 6.890625 
Q 35.15625 6.890625 40.078125 11.328125 
Q 45.015625 15.765625 45.015625 23.390625 
Q 45.015625 31 40.078125 35.4375 
Q 35.15625 39.890625 26.703125 39.890625 
Q 22.75 39.890625 18.8125 39.015625 
Q 14.890625 38.140625 10.796875 36.28125 
z
" id="DejaVuSans-53"/>
      </defs>
      <g transform="translate(259.891882 322.182437)scale(0.1 -0.1)">
       <use xlink:href="#DejaVuSans-53"/>
       <use x="63.623047" xlink:href="#DejaVuSans-50"/>
      </g>
     </g>
    </g>
    <g id="xtick_15">
     <g id="line2d_29">
      <path clip-path="url(#p72d6fc05c2)" d="M 282.304719 307.584 
L 282.304719 41.472 
" style="fill:none;stroke:#b0b0b0;stroke-dasharray:5.12,1.28,0.8,1.28;stroke-dashoffset:0;stroke-width:0.8;"/>
     </g>
     <g id="line2d_30">
      <g>
       <use style="stroke:#000000;stroke-width:0.8;" x="282.304719" xlink:href="#mf7f37961eb" y="307.584"/>
      </g>
     </g>
     <g id="text_15">
      <!-- 56 -->
      <g transform="translate(275.942219 322.182437)scale(0.1 -0.1)">
       <use xlink:href="#DejaVuSans-53"/>
       <use x="63.623047" xlink:href="#DejaVuSans-54"/>
      </g>
     </g>
    </g>
    <g id="xtick_16">
     <g id="line2d_31">
      <path clip-path="url(#p72d6fc05c2)" d="M 298.355056 307.584 
L 298.355056 41.472 
" style="fill:none;stroke:#b0b0b0;stroke-dasharray:5.12,1.28,0.8,1.28;stroke-dashoffset:0;stroke-width:0.8;"/>
     </g>
     <g id="line2d_32">
      <g>
       <use style="stroke:#000000;stroke-width:0.8;" x="298.355056" xlink:href="#mf7f37961eb" y="307.584"/>
      </g>
     </g>
     <g id="text_16">
      <!-- 60 -->
      <g transform="translate(291.992556 322.182437)scale(0.1 -0.1)">
       <use xlink:href="#DejaVuSans-54"/>
       <use x="63.623047" xlink:href="#DejaVuSans-48"/>
      </g>
     </g>
    </g>
    <g id="xtick_17">
     <g id="line2d_33">
      <path clip-path="url(#p72d6fc05c2)" d="M 314.405393 307.584 
L 314.405393 41.472 
" style="fill:none;stroke:#b0b0b0;stroke-dasharray:5.12,1.28,0.8,1.28;stroke-dashoffset:0;stroke-width:0.8;"/>
     </g>
     <g id="line2d_34">
      <g>
       <use style="stroke:#000000;stroke-width:0.8;" x="314.405393" xlink:href="#mf7f37961eb" y="307.584"/>
      </g>
     </g>
     <g id="text_17">
      <!-- 64 -->
      <g transform="translate(308.042893 322.182437)scale(0.1 -0.1)">
       <use xlink:href="#DejaVuSans-54"/>
       <use x="63.623047" xlink:href="#DejaVuSans-52"/>
      </g>
     </g>
    </g>
    <g id="xtick_18">
     <g id="line2d_35">
      <path clip-path="url(#p72d6fc05c2)" d="M 330.45573 307.584 
L 330.45573 41.472 
" style="fill:none;stroke:#b0b0b0;stroke-dasharray:5.12,1.28,0.8,1.28;stroke-dashoffset:0;stroke-width:0.8;"/>
     </g>
     <g id="line2d_36">
      <g>
       <use style="stroke:#000000;stroke-width:0.8;" x="330.45573" xlink:href="#mf7f37961eb" y="307.584"/>
      </g>
     </g>
     <g id="text_18">
      <!-- 68 -->
      <g transform="translate(324.09323 322.182437)scale(0.1 -0.1)">
       <use xlink:href="#DejaVuSans-54"/>
       <use x="63.623047" xlink:href="#DejaVuSans-56"/>
      </g>
     </g>
    </g>
    <g id="xtick_19">
     <g id="line2d_37">
      <path clip-path="url(#p72d6fc05c2)" d="M 346.506067 307.584 
L 346.506067 41.472 
" style="fill:none;stroke:#b0b0b0;stroke-dasharray:5.12,1.28,0.8,1.28;stroke-dashoffset:0;stroke-width:0.8;"/>
     </g>
     <g id="line2d_38">
      <g>
       <use style="stroke:#000000;stroke-width:0.8;" x="346.506067" xlink:href="#mf7f37961eb" y="307.584"/>
      </g>
     </g>
     <g id="text_19">
      <!-- 72 -->
      <defs>
       <path d="M 8.203125 72.90625 
L 55.078125 72.90625 
L 55.078125 68.703125 
L 28.609375 0 
L 18.3125 0 
L 43.21875 64.59375 
L 8.203125 64.59375 
z
" id="DejaVuSans-55"/>
      </defs>
      <g transform="translate(340.143567 322.182437)scale(0.1 -0.1)">
       <use xlink:href="#DejaVuSans-55"/>
       <use x="63.623047" xlink:href="#DejaVuSans-50"/>
      </g>
     </g>
    </g>
    <g id="xtick_20">
     <g id="line2d_39">
      <path clip-path="url(#p72d6fc05c2)" d="M 362.556404 307.584 
L 362.556404 41.472 
" style="fill:none;stroke:#b0b0b0;stroke-dasharray:5.12,1.28,0.8,1.28;stroke-dashoffset:0;stroke-width:0.8;"/>
     </g>
     <g id="line2d_40">
      <g>
       <use style="stroke:#000000;stroke-width:0.8;" x="362.556404" xlink:href="#mf7f37961eb" y="307.584"/>
      </g>
     </g>
     <g id="text_20">
      <!-- 76 -->
      <g transform="translate(356.193904 322.182437)scale(0.1 -0.1)">
       <use xlink:href="#DejaVuSans-55"/>
       <use x="63.623047" xlink:href="#DejaVuSans-54"/>
      </g>
     </g>
    </g>
    <g id="xtick_21">
     <g id="line2d_41">
      <path clip-path="url(#p72d6fc05c2)" d="M 378.606742 307.584 
L 378.606742 41.472 
" style="fill:none;stroke:#b0b0b0;stroke-dasharray:5.12,1.28,0.8,1.28;stroke-dashoffset:0;stroke-width:0.8;"/>
     </g>
     <g id="line2d_42">
      <g>
       <use style="stroke:#000000;stroke-width:0.8;" x="378.606742" xlink:href="#mf7f37961eb" y="307.584"/>
      </g>
     </g>
     <g id="text_21">
      <!-- 80 -->
      <g transform="translate(372.244242 322.182437)scale(0.1 -0.1)">
       <use xlink:href="#DejaVuSans-56"/>
       <use x="63.623047" xlink:href="#DejaVuSans-48"/>
      </g>
     </g>
    </g>
    <g id="xtick_22">
     <g id="line2d_43">
      <path clip-path="url(#p72d6fc05c2)" d="M 394.657079 307.584 
L 394.657079 41.472 
" style="fill:none;stroke:#b0b0b0;stroke-dasharray:5.12,1.28,0.8,1.28;stroke-dashoffset:0;stroke-width:0.8;"/>
     </g>
     <g id="line2d_44">
      <g>
       <use style="stroke:#000000;stroke-width:0.8;" x="394.657079" xlink:href="#mf7f37961eb" y="307.584"/>
      </g>
     </g>
     <g id="text_22">
      <!-- 84 -->
      <g transform="translate(388.294579 322.182437)scale(0.1 -0.1)">
       <use xlink:href="#DejaVuSans-56"/>
       <use x="63.623047" xlink:href="#DejaVuSans-52"/>
      </g>
     </g>
    </g>
    <g id="xtick_23">
     <g id="line2d_45">
      <path clip-path="url(#p72d6fc05c2)" d="M 410.707416 307.584 
L 410.707416 41.472 
" style="fill:none;stroke:#b0b0b0;stroke-dasharray:5.12,1.28,0.8,1.28;stroke-dashoffset:0;stroke-width:0.8;"/>
     </g>
     <g id="line2d_46">
      <g>
       <use style="stroke:#000000;stroke-width:0.8;" x="410.707416" xlink:href="#mf7f37961eb" y="307.584"/>
      </g>
     </g>
     <g id="text_23">
      <!-- 88 -->
      <g transform="translate(404.344916 322.182437)scale(0.1 -0.1)">
       <use xlink:href="#DejaVuSans-56"/>
       <use x="63.623047" xlink:href="#DejaVuSans-56"/>
      </g>
     </g>
    </g>
    <g id="text_24">
     <!-- threads -->
     <defs>
      <path d="M 18.3125 70.21875 
L 18.3125 54.6875 
L 36.8125 54.6875 
L 36.8125 47.703125 
L 18.3125 47.703125 
L 18.3125 18.015625 
Q 18.3125 11.328125 20.140625 9.421875 
Q 21.96875 7.515625 27.59375 7.515625 
L 36.8125 7.515625 
L 36.8125 0 
L 27.59375 0 
Q 17.1875 0 13.234375 3.875 
Q 9.28125 7.765625 9.28125 18.015625 
L 9.28125 47.703125 
L 2.6875 47.703125 
L 2.6875 54.6875 
L 9.28125 54.6875 
L 9.28125 70.21875 
z
" id="DejaVuSans-116"/>
      <path d="M 54.890625 33.015625 
L 54.890625 0 
L 45.90625 0 
L 45.90625 32.71875 
Q 45.90625 40.484375 42.875 44.328125 
Q 39.84375 48.1875 33.796875 48.1875 
Q 26.515625 48.1875 22.3125 43.546875 
Q 18.109375 38.921875 18.109375 30.90625 
L 18.109375 0 
L 9.078125 0 
L 9.078125 75.984375 
L 18.109375 75.984375 
L 18.109375 46.1875 
Q 21.34375 51.125 25.703125 53.5625 
Q 30.078125 56 35.796875 56 
Q 45.21875 56 50.046875 50.171875 
Q 54.890625 44.34375 54.890625 33.015625 
z
" id="DejaVuSans-104"/>
      <path d="M 41.109375 46.296875 
Q 39.59375 47.171875 37.8125 47.578125 
Q 36.03125 48 33.890625 48 
Q 26.265625 48 22.1875 43.046875 
Q 18.109375 38.09375 18.109375 28.8125 
L 18.109375 0 
L 9.078125 0 
L 9.078125 54.6875 
L 18.109375 54.6875 
L 18.109375 46.1875 
Q 20.953125 51.171875 25.484375 53.578125 
Q 30.03125 56 36.53125 56 
Q 37.453125 56 38.578125 55.875 
Q 39.703125 55.765625 41.0625 55.515625 
z
" id="DejaVuSans-114"/>
      <path d="M 56.203125 29.59375 
L 56.203125 25.203125 
L 14.890625 25.203125 
Q 15.484375 15.921875 20.484375 11.0625 
Q 25.484375 6.203125 34.421875 6.203125 
Q 39.59375 6.203125 44.453125 7.46875 
Q 49.3125 8.734375 54.109375 11.28125 
L 54.109375 2.78125 
Q 49.265625 0.734375 44.1875 -0.34375 
Q 39.109375 -1.421875 33.890625 -1.421875 
Q 20.796875 -1.421875 13.15625 6.1875 
Q 5.515625 13.8125 5.515625 26.8125 
Q 5.515625 40.234375 12.765625 48.109375 
Q 20.015625 56 32.328125 56 
Q 43.359375 56 49.78125 48.890625 
Q 56.203125 41.796875 56.203125 29.59375 
z
M 47.21875 32.234375 
Q 47.125 39.59375 43.09375 43.984375 
Q 39.0625 48.390625 32.421875 48.390625 
Q 24.90625 48.390625 20.390625 44.140625 
Q 15.875 39.890625 15.1875 32.171875 
z
" id="DejaVuSans-101"/>
      <path d="M 34.28125 27.484375 
Q 23.390625 27.484375 19.1875 25 
Q 14.984375 22.515625 14.984375 16.5 
Q 14.984375 11.71875 18.140625 8.90625 
Q 21.296875 6.109375 26.703125 6.109375 
Q 34.1875 6.109375 38.703125 11.40625 
Q 43.21875 16.703125 43.21875 25.484375 
L 43.21875 27.484375 
z
M 52.203125 31.203125 
L 52.203125 0 
L 43.21875 0 
L 43.21875 8.296875 
Q 40.140625 3.328125 35.546875 0.953125 
Q 30.953125 -1.421875 24.3125 -1.421875 
Q 15.921875 -1.421875 10.953125 3.296875 
Q 6 8.015625 6 15.921875 
Q 6 25.140625 12.171875 29.828125 
Q 18.359375 34.515625 30.609375 34.515625 
L 43.21875 34.515625 
L 43.21875 35.40625 
Q 43.21875 41.609375 39.140625 45 
Q 35.0625 48.390625 27.6875 48.390625 
Q 23 48.390625 18.546875 47.265625 
Q 14.109375 46.140625 10.015625 43.890625 
L 10.015625 52.203125 
Q 14.9375 54.109375 19.578125 55.046875 
Q 24.21875 56 28.609375 56 
Q 40.484375 56 46.34375 49.84375 
Q 52.203125 43.703125 52.203125 31.203125 
z
" id="DejaVuSans-97"/>
      <path d="M 45.40625 46.390625 
L 45.40625 75.984375 
L 54.390625 75.984375 
L 54.390625 0 
L 45.40625 0 
L 45.40625 8.203125 
Q 42.578125 3.328125 38.25 0.953125 
Q 33.9375 -1.421875 27.875 -1.421875 
Q 17.96875 -1.421875 11.734375 6.484375 
Q 5.515625 14.40625 5.515625 27.296875 
Q 5.515625 40.1875 11.734375 48.09375 
Q 17.96875 56 27.875 56 
Q 33.9375 56 38.25 53.625 
Q 42.578125 51.265625 45.40625 46.390625 
z
M 14.796875 27.296875 
Q 14.796875 17.390625 18.875 11.75 
Q 22.953125 6.109375 30.078125 6.109375 
Q 37.203125 6.109375 41.296875 11.75 
Q 45.40625 17.390625 45.40625 27.296875 
Q 45.40625 37.203125 41.296875 42.84375 
Q 37.203125 48.484375 30.078125 48.484375 
Q 22.953125 48.484375 18.875 42.84375 
Q 14.796875 37.203125 14.796875 27.296875 
z
" id="DejaVuSans-100"/>
      <path d="M 44.28125 53.078125 
L 44.28125 44.578125 
Q 40.484375 46.53125 36.375 47.5 
Q 32.28125 48.484375 27.875 48.484375 
Q 21.1875 48.484375 17.84375 46.4375 
Q 14.5 44.390625 14.5 40.28125 
Q 14.5 37.15625 16.890625 35.375 
Q 19.28125 33.59375 26.515625 31.984375 
L 29.59375 31.296875 
Q 39.15625 29.25 43.1875 25.515625 
Q 47.21875 21.78125 47.21875 15.09375 
Q 47.21875 7.46875 41.1875 3.015625 
Q 35.15625 -1.421875 24.609375 -1.421875 
Q 20.21875 -1.421875 15.453125 -0.5625 
Q 10.6875 0.296875 5.421875 2 
L 5.421875 11.28125 
Q 10.40625 8.6875 15.234375 7.390625 
Q 20.0625 6.109375 24.8125 6.109375 
Q 31.15625 6.109375 34.5625 8.28125 
Q 37.984375 10.453125 37.984375 14.40625 
Q 37.984375 18.0625 35.515625 20.015625 
Q 33.0625 21.96875 24.703125 23.78125 
L 21.578125 24.515625 
Q 13.234375 26.265625 9.515625 29.90625 
Q 5.8125 33.546875 5.8125 39.890625 
Q 5.8125 47.609375 11.28125 51.796875 
Q 16.75 56 26.8125 56 
Q 31.78125 56 36.171875 55.265625 
Q 40.578125 54.546875 44.28125 53.078125 
z
" id="DejaVuSans-115"/>
     </defs>
     <g transform="translate(217.168594 335.860562)scale(0.1 -0.1)">
      <use xlink:href="#DejaVuSans-116"/>
      <use x="39.208984" xlink:href="#DejaVuSans-104"/>
      <use x="102.587891" xlink:href="#DejaVuSans-114"/>
      <use x="141.451172" xlink:href="#DejaVuSans-101"/>
      <use x="202.974609" xlink:href="#DejaVuSans-97"/>
      <use x="264.253906" xlink:href="#DejaVuSans-100"/>
      <use x="327.730469" xlink:href="#DejaVuSans-115"/>
     </g>
    </g>
   </g>
   <g id="matplotlib.axis_2">
    <g id="ytick_1">
     <g id="line2d_47">
      <path clip-path="url(#p72d6fc05c2)" d="M 57.6 295.546935 
L 414.72 295.546935 
" style="fill:none;stroke:#b0b0b0;stroke-dasharray:5.12,1.28,0.8,1.28;stroke-dashoffset:0;stroke-width:0.8;"/>
     </g>
     <g id="line2d_48">
      <defs>
       <path d="M 0 0 
L -3.5 0 
" id="mbfba4b6c7a" style="stroke:#000000;stroke-width:0.8;"/>
      </defs>
      <g>
       <use style="stroke:#000000;stroke-width:0.8;" x="57.6" xlink:href="#mbfba4b6c7a" y="295.546935"/>
      </g>
     </g>
     <g id="text_25">
      <!-- 0 -->
      <g transform="translate(44.2375 299.346154)scale(0.1 -0.1)">
       <use xlink:href="#DejaVuSans-48"/>
      </g>
     </g>
    </g>
    <g id="ytick_2">
     <g id="line2d_49">
      <path clip-path="url(#p72d6fc05c2)" d="M 57.6 251.565699 
L 414.72 251.565699 
" style="fill:none;stroke:#b0b0b0;stroke-dasharray:5.12,1.28,0.8,1.28;stroke-dashoffset:0;stroke-width:0.8;"/>
     </g>
     <g id="line2d_50">
      <g>
       <use style="stroke:#000000;stroke-width:0.8;" x="57.6" xlink:href="#mbfba4b6c7a" y="251.565699"/>
      </g>
     </g>
     <g id="text_26">
      <!-- 100 -->
      <g transform="translate(31.5125 255.364917)scale(0.1 -0.1)">
       <use xlink:href="#DejaVuSans-49"/>
       <use x="63.623047" xlink:href="#DejaVuSans-48"/>
       <use x="127.246094" xlink:href="#DejaVuSans-48"/>
      </g>
     </g>
    </g>
    <g id="ytick_3">
     <g id="line2d_51">
      <path clip-path="url(#p72d6fc05c2)" d="M 57.6 207.584462 
L 414.72 207.584462 
" style="fill:none;stroke:#b0b0b0;stroke-dasharray:5.12,1.28,0.8,1.28;stroke-dashoffset:0;stroke-width:0.8;"/>
     </g>
     <g id="line2d_52">
      <g>
       <use style="stroke:#000000;stroke-width:0.8;" x="57.6" xlink:href="#mbfba4b6c7a" y="207.584462"/>
      </g>
     </g>
     <g id="text_27">
      <!-- 200 -->
      <g transform="translate(31.5125 211.383681)scale(0.1 -0.1)">
       <use xlink:href="#DejaVuSans-50"/>
       <use x="63.623047" xlink:href="#DejaVuSans-48"/>
       <use x="127.246094" xlink:href="#DejaVuSans-48"/>
      </g>
     </g>
    </g>
    <g id="ytick_4">
     <g id="line2d_53">
      <path clip-path="url(#p72d6fc05c2)" d="M 57.6 163.603225 
L 414.72 163.603225 
" style="fill:none;stroke:#b0b0b0;stroke-dasharray:5.12,1.28,0.8,1.28;stroke-dashoffset:0;stroke-width:0.8;"/>
     </g>
     <g id="line2d_54">
      <g>
       <use style="stroke:#000000;stroke-width:0.8;" x="57.6" xlink:href="#mbfba4b6c7a" y="163.603225"/>
      </g>
     </g>
     <g id="text_28">
      <!-- 300 -->
      <g transform="translate(31.5125 167.402444)scale(0.1 -0.1)">
       <use xlink:href="#DejaVuSans-51"/>
       <use x="63.623047" xlink:href="#DejaVuSans-48"/>
       <use x="127.246094" xlink:href="#DejaVuSans-48"/>
      </g>
     </g>
    </g>
    <g id="ytick_5">
     <g id="line2d_55">
      <path clip-path="url(#p72d6fc05c2)" d="M 57.6 119.621989 
L 414.72 119.621989 
" style="fill:none;stroke:#b0b0b0;stroke-dasharray:5.12,1.28,0.8,1.28;stroke-dashoffset:0;stroke-width:0.8;"/>
     </g>
     <g id="line2d_56">
      <g>
       <use style="stroke:#000000;stroke-width:0.8;" x="57.6" xlink:href="#mbfba4b6c7a" y="119.621989"/>
      </g>
     </g>
     <g id="text_29">
      <!-- 400 -->
      <g transform="translate(31.5125 123.421207)scale(0.1 -0.1)">
       <use xlink:href="#DejaVuSans-52"/>
       <use x="63.623047" xlink:href="#DejaVuSans-48"/>
       <use x="127.246094" xlink:href="#DejaVuSans-48"/>
      </g>
     </g>
    </g>
    <g id="ytick_6">
     <g id="line2d_57">
      <path clip-path="url(#p72d6fc05c2)" d="M 57.6 75.640752 
L 414.72 75.640752 
" style="fill:none;stroke:#b0b0b0;stroke-dasharray:5.12,1.28,0.8,1.28;stroke-dashoffset:0;stroke-width:0.8;"/>
     </g>
     <g id="line2d_58">
      <g>
       <use style="stroke:#000000;stroke-width:0.8;" x="57.6" xlink:href="#mbfba4b6c7a" y="75.640752"/>
      </g>
     </g>
     <g id="text_30">
      <!-- 500 -->
      <g transform="translate(31.5125 79.439971)scale(0.1 -0.1)">
       <use xlink:href="#DejaVuSans-53"/>
       <use x="63.623047" xlink:href="#DejaVuSans-48"/>
       <use x="127.246094" xlink:href="#DejaVuSans-48"/>
      </g>
     </g>
    </g>
    <g id="text_31">
     <!-- speed up -->
     <defs>
      <path d="M 18.109375 8.203125 
L 18.109375 -20.796875 
L 9.078125 -20.796875 
L 9.078125 54.6875 
L 18.109375 54.6875 
L 18.109375 46.390625 
Q 20.953125 51.265625 25.265625 53.625 
Q 29.59375 56 35.59375 56 
Q 45.5625 56 51.78125 48.09375 
Q 58.015625 40.1875 58.015625 27.296875 
Q 58.015625 14.40625 51.78125 6.484375 
Q 45.5625 -1.421875 35.59375 -1.421875 
Q 29.59375 -1.421875 25.265625 0.953125 
Q 20.953125 3.328125 18.109375 8.203125 
z
M 48.6875 27.296875 
Q 48.6875 37.203125 44.609375 42.84375 
Q 40.53125 48.484375 33.40625 48.484375 
Q 26.265625 48.484375 22.1875 42.84375 
Q 18.109375 37.203125 18.109375 27.296875 
Q 18.109375 17.390625 22.1875 11.75 
Q 26.265625 6.109375 33.40625 6.109375 
Q 40.53125 6.109375 44.609375 11.75 
Q 48.6875 17.390625 48.6875 27.296875 
z
" id="DejaVuSans-112"/>
      <path id="DejaVuSans-32"/>
      <path d="M 8.5 21.578125 
L 8.5 54.6875 
L 17.484375 54.6875 
L 17.484375 21.921875 
Q 17.484375 14.15625 20.5 10.265625 
Q 23.53125 6.390625 29.59375 6.390625 
Q 36.859375 6.390625 41.078125 11.03125 
Q 45.3125 15.671875 45.3125 23.6875 
L 45.3125 54.6875 
L 54.296875 54.6875 
L 54.296875 0 
L 45.3125 0 
L 45.3125 8.40625 
Q 42.046875 3.421875 37.71875 1 
Q 33.40625 -1.421875 27.6875 -1.421875 
Q 18.265625 -1.421875 13.375 4.4375 
Q 8.5 10.296875 8.5 21.578125 
z
M 31.109375 56 
z
" id="DejaVuSans-117"/>
     </defs>
     <g transform="translate(25.432812 197.566281)rotate(-90)scale(0.1 -0.1)">
      <use xlink:href="#DejaVuSans-115"/>
      <use x="52.099609" xlink:href="#DejaVuSans-112"/>
      <use x="115.576172" xlink:href="#DejaVuSans-101"/>
      <use x="177.099609" xlink:href="#DejaVuSans-101"/>
      <use x="238.623047" xlink:href="#DejaVuSans-100"/>
      <use x="302.099609" xlink:href="#DejaVuSans-32"/>
      <use x="333.886719" xlink:href="#DejaVuSans-117"/>
      <use x="397.265625" xlink:href="#DejaVuSans-112"/>
     </g>
    </g>
   </g>
   <g id="line2d_59">
    <path clip-path="url(#p72d6fc05c2)" d="M 61.612584 53.568 
L 65.625169 283.411436 
L 69.637753 282.746265 
L 73.650337 285.349296 
L 77.662921 286.128763 
L 81.675506 285.723384 
L 85.68809 285.589448 
L 89.700674 286.600721 
L 93.713258 286.477506 
L 97.725843 287.894334 
L 101.738427 286.454925 
L 105.751011 286.614646 
L 109.763596 286.833594 
L 113.77618 287.458232 
L 117.788764 287.532469 
L 121.801348 287.68771 
L 125.813933 287.109947 
L 129.826517 287.340908 
L 133.839101 287.164526 
L 137.851685 287.50036 
L 141.86427 287.658384 
L 145.876854 287.627278 
L 149.889438 290.089258 
L 153.902022 287.920487 
L 157.914607 288.026152 
L 161.927191 288.803859 
L 165.939775 288.0584 
L 169.95236 288.270033 
L 173.964944 288.061191 
L 177.977528 288.427385 
L 181.990112 288.370144 
L 186.002697 288.123446 
L 190.015281 288.061191 
L 194.027865 288.335355 
L 198.040449 288.902022 
L 202.053034 288.410943 
L 206.065618 290.577431 
L 210.078202 289.879022 
L 214.090787 289.102446 
L 218.103371 290.601293 
L 222.115955 288.86999 
L 226.128539 289.433938 
L 230.141124 289.631974 
L 234.153708 289.722036 
L 238.166292 291.132329 
L 242.178876 290.114354 
L 246.191461 289.939942 
L 250.204045 290.544008 
L 254.216629 289.753958 
L 258.229213 290.307793 
L 262.241798 290.322104 
L 266.254382 290.73576 
L 270.266966 289.873418 
L 274.279551 290.896188 
L 278.292135 289.67177 
L 282.304719 290.478354 
L 286.317303 290.201825 
L 290.329888 290.755845 
L 294.342472 290.545877 
L 298.355056 291.386552 
L 302.36764 290.553958 
L 306.380225 290.237855 
L 310.392809 290.182552 
L 314.405393 290.568809 
L 318.417978 290.203247 
L 322.430562 290.392501 
L 326.443146 290.389854 
L 330.45573 291.307963 
L 334.468315 291.039698 
L 338.480899 290.595197 
L 342.493483 289.953215 
L 346.506067 290.553958 
L 350.518652 290.463602 
L 354.531236 290.779726 
L 358.54382 290.371916 
L 362.556404 290.614654 
L 366.568989 290.525872 
L 370.581573 291.186481 
L 374.594157 290.633357 
L 378.606742 291.053814 
L 382.619326 290.570042 
L 386.63191 290.635159 
L 390.644494 291.593732 
L 394.657079 291.087237 
L 398.669663 291.044245 
L 402.682247 291.289993 
L 406.694831 295.488 
L 410.707416 290.658472 
" style="fill:none;stroke:#0000ff;stroke-dasharray:1.5,2.475;stroke-dashoffset:0;stroke-width:1.5;"/>
    <defs>
     <path d="M 0 1.5 
C 0.397805 1.5 0.77937 1.341951 1.06066 1.06066 
C 1.341951 0.77937 1.5 0.397805 1.5 0 
C 1.5 -0.397805 1.341951 -0.77937 1.06066 -1.06066 
C 0.77937 -1.341951 0.397805 -1.5 0 -1.5 
C -0.397805 -1.5 -0.77937 -1.341951 -1.06066 -1.06066 
C -1.341951 -0.77937 -1.5 -0.397805 -1.5 0 
C -1.5 0.397805 -1.341951 0.77937 -1.06066 1.06066 
C -0.77937 1.341951 -0.397805 1.5 0 1.5 
z
" id="mab0eda4bcb" style="stroke:#0000ff;"/>
    </defs>
    <g clip-path="url(#p72d6fc05c2)">
     <use style="fill:#0000ff;stroke:#0000ff;" x="61.612584" xlink:href="#mab0eda4bcb" y="53.568"/>
     <use style="fill:#0000ff;stroke:#0000ff;" x="65.625169" xlink:href="#mab0eda4bcb" y="283.411436"/>
     <use style="fill:#0000ff;stroke:#0000ff;" x="69.637753" xlink:href="#mab0eda4bcb" y="282.746265"/>
     <use style="fill:#0000ff;stroke:#0000ff;" x="73.650337" xlink:href="#mab0eda4bcb" y="285.349296"/>
     <use style="fill:#0000ff;stroke:#0000ff;" x="77.662921" xlink:href="#mab0eda4bcb" y="286.128763"/>
     <use style="fill:#0000ff;stroke:#0000ff;" x="81.675506" xlink:href="#mab0eda4bcb" y="285.723384"/>
     <use style="fill:#0000ff;stroke:#0000ff;" x="85.68809" xlink:href="#mab0eda4bcb" y="285.589448"/>
     <use style="fill:#0000ff;stroke:#0000ff;" x="89.700674" xlink:href="#mab0eda4bcb" y="286.600721"/>
     <use style="fill:#0000ff;stroke:#0000ff;" x="93.713258" xlink:href="#mab0eda4bcb" y="286.477506"/>
     <use style="fill:#0000ff;stroke:#0000ff;" x="97.725843" xlink:href="#mab0eda4bcb" y="287.894334"/>
     <use style="fill:#0000ff;stroke:#0000ff;" x="101.738427" xlink:href="#mab0eda4bcb" y="286.454925"/>
     <use style="fill:#0000ff;stroke:#0000ff;" x="105.751011" xlink:href="#mab0eda4bcb" y="286.614646"/>
     <use style="fill:#0000ff;stroke:#0000ff;" x="109.763596" xlink:href="#mab0eda4bcb" y="286.833594"/>
     <use style="fill:#0000ff;stroke:#0000ff;" x="113.77618" xlink:href="#mab0eda4bcb" y="287.458232"/>
     <use style="fill:#0000ff;stroke:#0000ff;" x="117.788764" xlink:href="#mab0eda4bcb" y="287.532469"/>
     <use style="fill:#0000ff;stroke:#0000ff;" x="121.801348" xlink:href="#mab0eda4bcb" y="287.68771"/>
     <use style="fill:#0000ff;stroke:#0000ff;" x="125.813933" xlink:href="#mab0eda4bcb" y="287.109947"/>
     <use style="fill:#0000ff;stroke:#0000ff;" x="129.826517" xlink:href="#mab0eda4bcb" y="287.340908"/>
     <use style="fill:#0000ff;stroke:#0000ff;" x="133.839101" xlink:href="#mab0eda4bcb" y="287.164526"/>
     <use style="fill:#0000ff;stroke:#0000ff;" x="137.851685" xlink:href="#mab0eda4bcb" y="287.50036"/>
     <use style="fill:#0000ff;stroke:#0000ff;" x="141.86427" xlink:href="#mab0eda4bcb" y="287.658384"/>
     <use style="fill:#0000ff;stroke:#0000ff;" x="145.876854" xlink:href="#mab0eda4bcb" y="287.627278"/>
     <use style="fill:#0000ff;stroke:#0000ff;" x="149.889438" xlink:href="#mab0eda4bcb" y="290.089258"/>
     <use style="fill:#0000ff;stroke:#0000ff;" x="153.902022" xlink:href="#mab0eda4bcb" y="287.920487"/>
     <use style="fill:#0000ff;stroke:#0000ff;" x="157.914607" xlink:href="#mab0eda4bcb" y="288.026152"/>
     <use style="fill:#0000ff;stroke:#0000ff;" x="161.927191" xlink:href="#mab0eda4bcb" y="288.803859"/>
     <use style="fill:#0000ff;stroke:#0000ff;" x="165.939775" xlink:href="#mab0eda4bcb" y="288.0584"/>
     <use style="fill:#0000ff;stroke:#0000ff;" x="169.95236" xlink:href="#mab0eda4bcb" y="288.270033"/>
     <use style="fill:#0000ff;stroke:#0000ff;" x="173.964944" xlink:href="#mab0eda4bcb" y="288.061191"/>
     <use style="fill:#0000ff;stroke:#0000ff;" x="177.977528" xlink:href="#mab0eda4bcb" y="288.427385"/>
     <use style="fill:#0000ff;stroke:#0000ff;" x="181.990112" xlink:href="#mab0eda4bcb" y="288.370144"/>
     <use style="fill:#0000ff;stroke:#0000ff;" x="186.002697" xlink:href="#mab0eda4bcb" y="288.123446"/>
     <use style="fill:#0000ff;stroke:#0000ff;" x="190.015281" xlink:href="#mab0eda4bcb" y="288.061191"/>
     <use style="fill:#0000ff;stroke:#0000ff;" x="194.027865" xlink:href="#mab0eda4bcb" y="288.335355"/>
     <use style="fill:#0000ff;stroke:#0000ff;" x="198.040449" xlink:href="#mab0eda4bcb" y="288.902022"/>
     <use style="fill:#0000ff;stroke:#0000ff;" x="202.053034" xlink:href="#mab0eda4bcb" y="288.410943"/>
     <use style="fill:#0000ff;stroke:#0000ff;" x="206.065618" xlink:href="#mab0eda4bcb" y="290.577431"/>
     <use style="fill:#0000ff;stroke:#0000ff;" x="210.078202" xlink:href="#mab0eda4bcb" y="289.879022"/>
     <use style="fill:#0000ff;stroke:#0000ff;" x="214.090787" xlink:href="#mab0eda4bcb" y="289.102446"/>
     <use style="fill:#0000ff;stroke:#0000ff;" x="218.103371" xlink:href="#mab0eda4bcb" y="290.601293"/>
     <use style="fill:#0000ff;stroke:#0000ff;" x="222.115955" xlink:href="#mab0eda4bcb" y="288.86999"/>
     <use style="fill:#0000ff;stroke:#0000ff;" x="226.128539" xlink:href="#mab0eda4bcb" y="289.433938"/>
     <use style="fill:#0000ff;stroke:#0000ff;" x="230.141124" xlink:href="#mab0eda4bcb" y="289.631974"/>
     <use style="fill:#0000ff;stroke:#0000ff;" x="234.153708" xlink:href="#mab0eda4bcb" y="289.722036"/>
     <use style="fill:#0000ff;stroke:#0000ff;" x="238.166292" xlink:href="#mab0eda4bcb" y="291.132329"/>
     <use style="fill:#0000ff;stroke:#0000ff;" x="242.178876" xlink:href="#mab0eda4bcb" y="290.114354"/>
     <use style="fill:#0000ff;stroke:#0000ff;" x="246.191461" xlink:href="#mab0eda4bcb" y="289.939942"/>
     <use style="fill:#0000ff;stroke:#0000ff;" x="250.204045" xlink:href="#mab0eda4bcb" y="290.544008"/>
     <use style="fill:#0000ff;stroke:#0000ff;" x="254.216629" xlink:href="#mab0eda4bcb" y="289.753958"/>
     <use style="fill:#0000ff;stroke:#0000ff;" x="258.229213" xlink:href="#mab0eda4bcb" y="290.307793"/>
     <use style="fill:#0000ff;stroke:#0000ff;" x="262.241798" xlink:href="#mab0eda4bcb" y="290.322104"/>
     <use style="fill:#0000ff;stroke:#0000ff;" x="266.254382" xlink:href="#mab0eda4bcb" y="290.73576"/>
     <use style="fill:#0000ff;stroke:#0000ff;" x="270.266966" xlink:href="#mab0eda4bcb" y="289.873418"/>
     <use style="fill:#0000ff;stroke:#0000ff;" x="274.279551" xlink:href="#mab0eda4bcb" y="290.896188"/>
     <use style="fill:#0000ff;stroke:#0000ff;" x="278.292135" xlink:href="#mab0eda4bcb" y="289.67177"/>
     <use style="fill:#0000ff;stroke:#0000ff;" x="282.304719" xlink:href="#mab0eda4bcb" y="290.478354"/>
     <use style="fill:#0000ff;stroke:#0000ff;" x="286.317303" xlink:href="#mab0eda4bcb" y="290.201825"/>
     <use style="fill:#0000ff;stroke:#0000ff;" x="290.329888" xlink:href="#mab0eda4bcb" y="290.755845"/>
     <use style="fill:#0000ff;stroke:#0000ff;" x="294.342472" xlink:href="#mab0eda4bcb" y="290.545877"/>
     <use style="fill:#0000ff;stroke:#0000ff;" x="298.355056" xlink:href="#mab0eda4bcb" y="291.386552"/>
     <use style="fill:#0000ff;stroke:#0000ff;" x="302.36764" xlink:href="#mab0eda4bcb" y="290.553958"/>
     <use style="fill:#0000ff;stroke:#0000ff;" x="306.380225" xlink:href="#mab0eda4bcb" y="290.237855"/>
     <use style="fill:#0000ff;stroke:#0000ff;" x="310.392809" xlink:href="#mab0eda4bcb" y="290.182552"/>
     <use style="fill:#0000ff;stroke:#0000ff;" x="314.405393" xlink:href="#mab0eda4bcb" y="290.568809"/>
     <use style="fill:#0000ff;stroke:#0000ff;" x="318.417978" xlink:href="#mab0eda4bcb" y="290.203247"/>
     <use style="fill:#0000ff;stroke:#0000ff;" x="322.430562" xlink:href="#mab0eda4bcb" y="290.392501"/>
     <use style="fill:#0000ff;stroke:#0000ff;" x="326.443146" xlink:href="#mab0eda4bcb" y="290.389854"/>
     <use style="fill:#0000ff;stroke:#0000ff;" x="330.45573" xlink:href="#mab0eda4bcb" y="291.307963"/>
     <use style="fill:#0000ff;stroke:#0000ff;" x="334.468315" xlink:href="#mab0eda4bcb" y="291.039698"/>
     <use style="fill:#0000ff;stroke:#0000ff;" x="338.480899" xlink:href="#mab0eda4bcb" y="290.595197"/>
     <use style="fill:#0000ff;stroke:#0000ff;" x="342.493483" xlink:href="#mab0eda4bcb" y="289.953215"/>
     <use style="fill:#0000ff;stroke:#0000ff;" x="346.506067" xlink:href="#mab0eda4bcb" y="290.553958"/>
     <use style="fill:#0000ff;stroke:#0000ff;" x="350.518652" xlink:href="#mab0eda4bcb" y="290.463602"/>
     <use style="fill:#0000ff;stroke:#0000ff;" x="354.531236" xlink:href="#mab0eda4bcb" y="290.779726"/>
     <use style="fill:#0000ff;stroke:#0000ff;" x="358.54382" xlink:href="#mab0eda4bcb" y="290.371916"/>
     <use style="fill:#0000ff;stroke:#0000ff;" x="362.556404" xlink:href="#mab0eda4bcb" y="290.614654"/>
     <use style="fill:#0000ff;stroke:#0000ff;" x="366.568989" xlink:href="#mab0eda4bcb" y="290.525872"/>
     <use style="fill:#0000ff;stroke:#0000ff;" x="370.581573" xlink:href="#mab0eda4bcb" y="291.186481"/>
     <use style="fill:#0000ff;stroke:#0000ff;" x="374.594157" xlink:href="#mab0eda4bcb" y="290.633357"/>
     <use style="fill:#0000ff;stroke:#0000ff;" x="378.606742" xlink:href="#mab0eda4bcb" y="291.053814"/>
     <use style="fill:#0000ff;stroke:#0000ff;" x="382.619326" xlink:href="#mab0eda4bcb" y="290.570042"/>
     <use style="fill:#0000ff;stroke:#0000ff;" x="386.63191" xlink:href="#mab0eda4bcb" y="290.635159"/>
     <use style="fill:#0000ff;stroke:#0000ff;" x="390.644494" xlink:href="#mab0eda4bcb" y="291.593732"/>
     <use style="fill:#0000ff;stroke:#0000ff;" x="394.657079" xlink:href="#mab0eda4bcb" y="291.087237"/>
     <use style="fill:#0000ff;stroke:#0000ff;" x="398.669663" xlink:href="#mab0eda4bcb" y="291.044245"/>
     <use style="fill:#0000ff;stroke:#0000ff;" x="402.682247" xlink:href="#mab0eda4bcb" y="291.289993"/>
     <use style="fill:#0000ff;stroke:#0000ff;" x="406.694831" xlink:href="#mab0eda4bcb" y="295.488"/>
     <use style="fill:#0000ff;stroke:#0000ff;" x="410.707416" xlink:href="#mab0eda4bcb" y="290.658472"/>
    </g>
   </g>
   <g id="line2d_60">
    <path clip-path="url(#p72d6fc05c2)" d="M 61.612584 294.607642 
L 65.625169 294.396512 
L 69.637753 294.132759 
L 73.650337 293.915124 
L 77.662921 293.884259 
L 81.675506 293.698053 
L 85.68809 293.627649 
L 89.700674 293.650995 
L 93.713258 293.605754 
L 97.725843 293.561282 
L 101.738427 293.520497 
L 105.751011 293.574322 
L 109.763596 293.629484 
L 113.77618 293.558302 
L 117.788764 293.465172 
L 121.801348 293.46377 
L 125.813933 293.431577 
L 129.826517 293.460665 
L 133.839101 293.482894 
L 137.851685 293.440287 
L 141.86427 293.373003 
L 145.876854 293.482665 
L 149.889438 293.571223 
L 153.902022 293.553386 
L 157.914607 293.549199 
L 161.927191 293.589003 
L 165.939775 293.456668 
L 169.95236 293.417614 
L 173.964944 293.462716 
L 177.977528 293.401171 
L 181.990112 293.469195 
L 186.002697 293.444644 
L 190.015281 293.521659 
L 194.027865 293.568431 
L 198.040449 293.48209 
L 202.053034 293.562716 
L 206.065618 293.601172 
L 210.078202 293.753126 
L 214.090787 293.561335 
L 218.103371 293.604433 
L 222.115955 293.577673 
L 226.128539 293.770946 
L 230.141124 293.645309 
L 234.153708 293.75317 
L 238.166292 293.841138 
L 242.178876 293.915734 
L 246.191461 293.855719 
L 250.204045 293.884594 
L 254.216629 289.971109 
L 258.229213 284.250963 
L 262.241798 293.890828 
L 266.254382 294.022422 
L 270.266966 289.986154 
L 274.279551 285.338907 
L 278.292135 293.76163 
L 282.304719 294.188034 
L 286.317303 290.383961 
L 290.329888 286.23102 
L 294.342472 293.891382 
L 298.355056 294.221156 
L 302.36764 290.786769 
L 306.380225 286.787555 
L 310.392809 294.061789 
L 314.405393 294.231988 
L 318.417978 290.112822 
L 322.430562 285.694087 
L 326.443146 293.971634 
L 330.45573 294.269262 
L 334.468315 290.276498 
L 338.480899 285.637499 
L 342.493483 293.963566 
L 346.506067 294.224771 
L 350.518652 290.993047 
L 354.531236 286.517856 
L 358.54382 294.012649 
L 362.556404 294.344687 
L 366.568989 290.937308 
L 370.581573 287.901434 
L 374.594157 294.03903 
L 378.606742 294.38045 
L 382.619326 290.547141 
L 386.63191 286.000879 
L 390.644494 294.056539 
L 394.657079 294.380322 
L 398.669663 291.23345 
L 402.682247 287.889597 
L 406.694831 295.446322 
L 410.707416 294.456455 
" style="fill:none;stroke:#ff0000;stroke-dasharray:1.5,2.475;stroke-dashoffset:0;stroke-width:1.5;"/>
    <defs>
     <path d="M 0 1.5 
C 0.397805 1.5 0.77937 1.341951 1.06066 1.06066 
C 1.341951 0.77937 1.5 0.397805 1.5 0 
C 1.5 -0.397805 1.341951 -0.77937 1.06066 -1.06066 
C 0.77937 -1.341951 0.397805 -1.5 0 -1.5 
C -0.397805 -1.5 -0.77937 -1.341951 -1.06066 -1.06066 
C -1.341951 -0.77937 -1.5 -0.397805 -1.5 0 
C -1.5 0.397805 -1.341951 0.77937 -1.06066 1.06066 
C -0.77937 1.341951 -0.397805 1.5 0 1.5 
z
" id="mfa17adcebf" style="stroke:#ff0000;"/>
    </defs>
    <g clip-path="url(#p72d6fc05c2)">
     <use style="fill:#ff0000;stroke:#ff0000;" x="61.612584" xlink:href="#mfa17adcebf" y="294.607642"/>
     <use style="fill:#ff0000;stroke:#ff0000;" x="65.625169" xlink:href="#mfa17adcebf" y="294.396512"/>
     <use style="fill:#ff0000;stroke:#ff0000;" x="69.637753" xlink:href="#mfa17adcebf" y="294.132759"/>
     <use style="fill:#ff0000;stroke:#ff0000;" x="73.650337" xlink:href="#mfa17adcebf" y="293.915124"/>
     <use style="fill:#ff0000;stroke:#ff0000;" x="77.662921" xlink:href="#mfa17adcebf" y="293.884259"/>
     <use style="fill:#ff0000;stroke:#ff0000;" x="81.675506" xlink:href="#mfa17adcebf" y="293.698053"/>
     <use style="fill:#ff0000;stroke:#ff0000;" x="85.68809" xlink:href="#mfa17adcebf" y="293.627649"/>
     <use style="fill:#ff0000;stroke:#ff0000;" x="89.700674" xlink:href="#mfa17adcebf" y="293.650995"/>
     <use style="fill:#ff0000;stroke:#ff0000;" x="93.713258" xlink:href="#mfa17adcebf" y="293.605754"/>
     <use style="fill:#ff0000;stroke:#ff0000;" x="97.725843" xlink:href="#mfa17adcebf" y="293.561282"/>
     <use style="fill:#ff0000;stroke:#ff0000;" x="101.738427" xlink:href="#mfa17adcebf" y="293.520497"/>
     <use style="fill:#ff0000;stroke:#ff0000;" x="105.751011" xlink:href="#mfa17adcebf" y="293.574322"/>
     <use style="fill:#ff0000;stroke:#ff0000;" x="109.763596" xlink:href="#mfa17adcebf" y="293.629484"/>
     <use style="fill:#ff0000;stroke:#ff0000;" x="113.77618" xlink:href="#mfa17adcebf" y="293.558302"/>
     <use style="fill:#ff0000;stroke:#ff0000;" x="117.788764" xlink:href="#mfa17adcebf" y="293.465172"/>
     <use style="fill:#ff0000;stroke:#ff0000;" x="121.801348" xlink:href="#mfa17adcebf" y="293.46377"/>
     <use style="fill:#ff0000;stroke:#ff0000;" x="125.813933" xlink:href="#mfa17adcebf" y="293.431577"/>
     <use style="fill:#ff0000;stroke:#ff0000;" x="129.826517" xlink:href="#mfa17adcebf" y="293.460665"/>
     <use style="fill:#ff0000;stroke:#ff0000;" x="133.839101" xlink:href="#mfa17adcebf" y="293.482894"/>
     <use style="fill:#ff0000;stroke:#ff0000;" x="137.851685" xlink:href="#mfa17adcebf" y="293.440287"/>
     <use style="fill:#ff0000;stroke:#ff0000;" x="141.86427" xlink:href="#mfa17adcebf" y="293.373003"/>
     <use style="fill:#ff0000;stroke:#ff0000;" x="145.876854" xlink:href="#mfa17adcebf" y="293.482665"/>
     <use style="fill:#ff0000;stroke:#ff0000;" x="149.889438" xlink:href="#mfa17adcebf" y="293.571223"/>
     <use style="fill:#ff0000;stroke:#ff0000;" x="153.902022" xlink:href="#mfa17adcebf" y="293.553386"/>
     <use style="fill:#ff0000;stroke:#ff0000;" x="157.914607" xlink:href="#mfa17adcebf" y="293.549199"/>
     <use style="fill:#ff0000;stroke:#ff0000;" x="161.927191" xlink:href="#mfa17adcebf" y="293.589003"/>
     <use style="fill:#ff0000;stroke:#ff0000;" x="165.939775" xlink:href="#mfa17adcebf" y="293.456668"/>
     <use style="fill:#ff0000;stroke:#ff0000;" x="169.95236" xlink:href="#mfa17adcebf" y="293.417614"/>
     <use style="fill:#ff0000;stroke:#ff0000;" x="173.964944" xlink:href="#mfa17adcebf" y="293.462716"/>
     <use style="fill:#ff0000;stroke:#ff0000;" x="177.977528" xlink:href="#mfa17adcebf" y="293.401171"/>
     <use style="fill:#ff0000;stroke:#ff0000;" x="181.990112" xlink:href="#mfa17adcebf" y="293.469195"/>
     <use style="fill:#ff0000;stroke:#ff0000;" x="186.002697" xlink:href="#mfa17adcebf" y="293.444644"/>
     <use style="fill:#ff0000;stroke:#ff0000;" x="190.015281" xlink:href="#mfa17adcebf" y="293.521659"/>
     <use style="fill:#ff0000;stroke:#ff0000;" x="194.027865" xlink:href="#mfa17adcebf" y="293.568431"/>
     <use style="fill:#ff0000;stroke:#ff0000;" x="198.040449" xlink:href="#mfa17adcebf" y="293.48209"/>
     <use style="fill:#ff0000;stroke:#ff0000;" x="202.053034" xlink:href="#mfa17adcebf" y="293.562716"/>
     <use style="fill:#ff0000;stroke:#ff0000;" x="206.065618" xlink:href="#mfa17adcebf" y="293.601172"/>
     <use style="fill:#ff0000;stroke:#ff0000;" x="210.078202" xlink:href="#mfa17adcebf" y="293.753126"/>
     <use style="fill:#ff0000;stroke:#ff0000;" x="214.090787" xlink:href="#mfa17adcebf" y="293.561335"/>
     <use style="fill:#ff0000;stroke:#ff0000;" x="218.103371" xlink:href="#mfa17adcebf" y="293.604433"/>
     <use style="fill:#ff0000;stroke:#ff0000;" x="222.115955" xlink:href="#mfa17adcebf" y="293.577673"/>
     <use style="fill:#ff0000;stroke:#ff0000;" x="226.128539" xlink:href="#mfa17adcebf" y="293.770946"/>
     <use style="fill:#ff0000;stroke:#ff0000;" x="230.141124" xlink:href="#mfa17adcebf" y="293.645309"/>
     <use style="fill:#ff0000;stroke:#ff0000;" x="234.153708" xlink:href="#mfa17adcebf" y="293.75317"/>
     <use style="fill:#ff0000;stroke:#ff0000;" x="238.166292" xlink:href="#mfa17adcebf" y="293.841138"/>
     <use style="fill:#ff0000;stroke:#ff0000;" x="242.178876" xlink:href="#mfa17adcebf" y="293.915734"/>
     <use style="fill:#ff0000;stroke:#ff0000;" x="246.191461" xlink:href="#mfa17adcebf" y="293.855719"/>
     <use style="fill:#ff0000;stroke:#ff0000;" x="250.204045" xlink:href="#mfa17adcebf" y="293.884594"/>
     <use style="fill:#ff0000;stroke:#ff0000;" x="254.216629" xlink:href="#mfa17adcebf" y="289.971109"/>
     <use style="fill:#ff0000;stroke:#ff0000;" x="258.229213" xlink:href="#mfa17adcebf" y="284.250963"/>
     <use style="fill:#ff0000;stroke:#ff0000;" x="262.241798" xlink:href="#mfa17adcebf" y="293.890828"/>
     <use style="fill:#ff0000;stroke:#ff0000;" x="266.254382" xlink:href="#mfa17adcebf" y="294.022422"/>
     <use style="fill:#ff0000;stroke:#ff0000;" x="270.266966" xlink:href="#mfa17adcebf" y="289.986154"/>
     <use style="fill:#ff0000;stroke:#ff0000;" x="274.279551" xlink:href="#mfa17adcebf" y="285.338907"/>
     <use style="fill:#ff0000;stroke:#ff0000;" x="278.292135" xlink:href="#mfa17adcebf" y="293.76163"/>
     <use style="fill:#ff0000;stroke:#ff0000;" x="282.304719" xlink:href="#mfa17adcebf" y="294.188034"/>
     <use style="fill:#ff0000;stroke:#ff0000;" x="286.317303" xlink:href="#mfa17adcebf" y="290.383961"/>
     <use style="fill:#ff0000;stroke:#ff0000;" x="290.329888" xlink:href="#mfa17adcebf" y="286.23102"/>
     <use style="fill:#ff0000;stroke:#ff0000;" x="294.342472" xlink:href="#mfa17adcebf" y="293.891382"/>
     <use style="fill:#ff0000;stroke:#ff0000;" x="298.355056" xlink:href="#mfa17adcebf" y="294.221156"/>
     <use style="fill:#ff0000;stroke:#ff0000;" x="302.36764" xlink:href="#mfa17adcebf" y="290.786769"/>
     <use style="fill:#ff0000;stroke:#ff0000;" x="306.380225" xlink:href="#mfa17adcebf" y="286.787555"/>
     <use style="fill:#ff0000;stroke:#ff0000;" x="310.392809" xlink:href="#mfa17adcebf" y="294.061789"/>
     <use style="fill:#ff0000;stroke:#ff0000;" x="314.405393" xlink:href="#mfa17adcebf" y="294.231988"/>
     <use style="fill:#ff0000;stroke:#ff0000;" x="318.417978" xlink:href="#mfa17adcebf" y="290.112822"/>
     <use style="fill:#ff0000;stroke:#ff0000;" x="322.430562" xlink:href="#mfa17adcebf" y="285.694087"/>
     <use style="fill:#ff0000;stroke:#ff0000;" x="326.443146" xlink:href="#mfa17adcebf" y="293.971634"/>
     <use style="fill:#ff0000;stroke:#ff0000;" x="330.45573" xlink:href="#mfa17adcebf" y="294.269262"/>
     <use style="fill:#ff0000;stroke:#ff0000;" x="334.468315" xlink:href="#mfa17adcebf" y="290.276498"/>
     <use style="fill:#ff0000;stroke:#ff0000;" x="338.480899" xlink:href="#mfa17adcebf" y="285.637499"/>
     <use style="fill:#ff0000;stroke:#ff0000;" x="342.493483" xlink:href="#mfa17adcebf" y="293.963566"/>
     <use style="fill:#ff0000;stroke:#ff0000;" x="346.506067" xlink:href="#mfa17adcebf" y="294.224771"/>
     <use style="fill:#ff0000;stroke:#ff0000;" x="350.518652" xlink:href="#mfa17adcebf" y="290.993047"/>
     <use style="fill:#ff0000;stroke:#ff0000;" x="354.531236" xlink:href="#mfa17adcebf" y="286.517856"/>
     <use style="fill:#ff0000;stroke:#ff0000;" x="358.54382" xlink:href="#mfa17adcebf" y="294.012649"/>
     <use style="fill:#ff0000;stroke:#ff0000;" x="362.556404" xlink:href="#mfa17adcebf" y="294.344687"/>
     <use style="fill:#ff0000;stroke:#ff0000;" x="366.568989" xlink:href="#mfa17adcebf" y="290.937308"/>
     <use style="fill:#ff0000;stroke:#ff0000;" x="370.581573" xlink:href="#mfa17adcebf" y="287.901434"/>
     <use style="fill:#ff0000;stroke:#ff0000;" x="374.594157" xlink:href="#mfa17adcebf" y="294.03903"/>
     <use style="fill:#ff0000;stroke:#ff0000;" x="378.606742" xlink:href="#mfa17adcebf" y="294.38045"/>
     <use style="fill:#ff0000;stroke:#ff0000;" x="382.619326" xlink:href="#mfa17adcebf" y="290.547141"/>
     <use style="fill:#ff0000;stroke:#ff0000;" x="386.63191" xlink:href="#mfa17adcebf" y="286.000879"/>
     <use style="fill:#ff0000;stroke:#ff0000;" x="390.644494" xlink:href="#mfa17adcebf" y="294.056539"/>
     <use style="fill:#ff0000;stroke:#ff0000;" x="394.657079" xlink:href="#mfa17adcebf" y="294.380322"/>
     <use style="fill:#ff0000;stroke:#ff0000;" x="398.669663" xlink:href="#mfa17adcebf" y="291.23345"/>
     <use style="fill:#ff0000;stroke:#ff0000;" x="402.682247" xlink:href="#mfa17adcebf" y="287.889597"/>
     <use style="fill:#ff0000;stroke:#ff0000;" x="406.694831" xlink:href="#mfa17adcebf" y="295.446322"/>
     <use style="fill:#ff0000;stroke:#ff0000;" x="410.707416" xlink:href="#mfa17adcebf" y="294.456455"/>
    </g>
   </g>
   <g id="line2d_61">
    <path clip-path="url(#p72d6fc05c2)" d="M 61.612584 174.087821 
L 65.625169 288.903974 
L 69.637753 288.439512 
L 73.650337 289.63221 
L 77.662921 290.006511 
L 81.675506 289.710718 
L 85.68809 289.608548 
L 89.700674 290.125858 
L 93.713258 290.04163 
L 97.725843 290.727808 
L 101.738427 289.987711 
L 105.751011 290.094484 
L 109.763596 290.231539 
L 113.77618 290.508267 
L 117.788764 290.498821 
L 121.801348 290.57574 
L 125.813933 290.270762 
L 129.826517 290.400787 
L 133.839101 290.32371 
L 137.851685 290.470323 
L 141.86427 290.515694 
L 145.876854 290.554971 
L 149.889438 291.830241 
L 153.902022 290.736936 
L 157.914607 290.787675 
L 161.927191 291.196431 
L 165.939775 290.757534 
L 169.95236 290.843823 
L 173.964944 290.761954 
L 177.977528 290.914278 
L 181.990112 290.919669 
L 186.002697 290.784045 
L 190.015281 290.791425 
L 194.027865 290.951893 
L 198.040449 291.192056 
L 202.053034 290.986829 
L 206.065618 292.089302 
L 210.078202 291.816074 
L 214.090787 291.331891 
L 218.103371 292.102863 
L 222.115955 291.223832 
L 226.128539 291.602442 
L 230.141124 291.638641 
L 234.153708 291.737603 
L 238.166292 292.486734 
L 242.178876 292.015044 
L 246.191461 291.897831 
L 250.204045 292.214301 
L 254.216629 289.862534 
L 258.229213 287.279378 
L 262.241798 292.106466 
L 266.254382 292.379091 
L 270.266966 289.929786 
L 274.279551 288.117548 
L 278.292135 291.7167 
L 282.304719 292.333194 
L 286.317303 290.292893 
L 290.329888 288.493432 
L 294.342472 292.21863 
L 298.355056 292.803854 
L 302.36764 290.670364 
L 306.380225 288.512705 
L 310.392809 292.122171 
L 314.405393 292.400398 
L 318.417978 290.158035 
L 322.430562 288.043294 
L 326.443146 292.180744 
L 330.45573 292.788612 
L 334.468315 290.658098 
L 338.480899 288.116348 
L 342.493483 291.958391 
L 346.506067 292.389364 
L 350.518652 290.728324 
L 354.531236 288.648791 
L 358.54382 292.192282 
L 362.556404 292.47967 
L 366.568989 290.73159 
L 370.581573 289.543957 
L 374.594157 292.336194 
L 378.606742 292.717132 
L 382.619326 290.558592 
L 386.63191 288.318019 
L 390.644494 292.825135 
L 394.657079 292.733779 
L 398.669663 291.138847 
L 402.682247 289.589795 
L 406.694831 295.467161 
L 410.707416 292.557463 
" style="fill:none;stroke:#008000;stroke-dasharray:1.5,2.475;stroke-dashoffset:0;stroke-width:1.5;"/>
    <defs>
     <path d="M 0 1.5 
C 0.397805 1.5 0.77937 1.341951 1.06066 1.06066 
C 1.341951 0.77937 1.5 0.397805 1.5 0 
C 1.5 -0.397805 1.341951 -0.77937 1.06066 -1.06066 
C 0.77937 -1.341951 0.397805 -1.5 0 -1.5 
C -0.397805 -1.5 -0.77937 -1.341951 -1.06066 -1.06066 
C -1.341951 -0.77937 -1.5 -0.397805 -1.5 0 
C -1.5 0.397805 -1.341951 0.77937 -1.06066 1.06066 
C -0.77937 1.341951 -0.397805 1.5 0 1.5 
z
" id="mdef45649db" style="stroke:#008000;"/>
    </defs>
    <g clip-path="url(#p72d6fc05c2)">
     <use style="fill:#008000;stroke:#008000;" x="61.612584" xlink:href="#mdef45649db" y="174.087821"/>
     <use style="fill:#008000;stroke:#008000;" x="65.625169" xlink:href="#mdef45649db" y="288.903974"/>
     <use style="fill:#008000;stroke:#008000;" x="69.637753" xlink:href="#mdef45649db" y="288.439512"/>
     <use style="fill:#008000;stroke:#008000;" x="73.650337" xlink:href="#mdef45649db" y="289.63221"/>
     <use style="fill:#008000;stroke:#008000;" x="77.662921" xlink:href="#mdef45649db" y="290.006511"/>
     <use style="fill:#008000;stroke:#008000;" x="81.675506" xlink:href="#mdef45649db" y="289.710718"/>
     <use style="fill:#008000;stroke:#008000;" x="85.68809" xlink:href="#mdef45649db" y="289.608548"/>
     <use style="fill:#008000;stroke:#008000;" x="89.700674" xlink:href="#mdef45649db" y="290.125858"/>
     <use style="fill:#008000;stroke:#008000;" x="93.713258" xlink:href="#mdef45649db" y="290.04163"/>
     <use style="fill:#008000;stroke:#008000;" x="97.725843" xlink:href="#mdef45649db" y="290.727808"/>
     <use style="fill:#008000;stroke:#008000;" x="101.738427" xlink:href="#mdef45649db" y="289.987711"/>
     <use style="fill:#008000;stroke:#008000;" x="105.751011" xlink:href="#mdef45649db" y="290.094484"/>
     <use style="fill:#008000;stroke:#008000;" x="109.763596" xlink:href="#mdef45649db" y="290.231539"/>
     <use style="fill:#008000;stroke:#008000;" x="113.77618" xlink:href="#mdef45649db" y="290.508267"/>
     <use style="fill:#008000;stroke:#008000;" x="117.788764" xlink:href="#mdef45649db" y="290.498821"/>
     <use style="fill:#008000;stroke:#008000;" x="121.801348" xlink:href="#mdef45649db" y="290.57574"/>
     <use style="fill:#008000;stroke:#008000;" x="125.813933" xlink:href="#mdef45649db" y="290.270762"/>
     <use style="fill:#008000;stroke:#008000;" x="129.826517" xlink:href="#mdef45649db" y="290.400787"/>
     <use style="fill:#008000;stroke:#008000;" x="133.839101" xlink:href="#mdef45649db" y="290.32371"/>
     <use style="fill:#008000;stroke:#008000;" x="137.851685" xlink:href="#mdef45649db" y="290.470323"/>
     <use style="fill:#008000;stroke:#008000;" x="141.86427" xlink:href="#mdef45649db" y="290.515694"/>
     <use style="fill:#008000;stroke:#008000;" x="145.876854" xlink:href="#mdef45649db" y="290.554971"/>
     <use style="fill:#008000;stroke:#008000;" x="149.889438" xlink:href="#mdef45649db" y="291.830241"/>
     <use style="fill:#008000;stroke:#008000;" x="153.902022" xlink:href="#mdef45649db" y="290.736936"/>
     <use style="fill:#008000;stroke:#008000;" x="157.914607" xlink:href="#mdef45649db" y="290.787675"/>
     <use style="fill:#008000;stroke:#008000;" x="161.927191" xlink:href="#mdef45649db" y="291.196431"/>
     <use style="fill:#008000;stroke:#008000;" x="165.939775" xlink:href="#mdef45649db" y="290.757534"/>
     <use style="fill:#008000;stroke:#008000;" x="169.95236" xlink:href="#mdef45649db" y="290.843823"/>
     <use style="fill:#008000;stroke:#008000;" x="173.964944" xlink:href="#mdef45649db" y="290.761954"/>
     <use style="fill:#008000;stroke:#008000;" x="177.977528" xlink:href="#mdef45649db" y="290.914278"/>
     <use style="fill:#008000;stroke:#008000;" x="181.990112" xlink:href="#mdef45649db" y="290.919669"/>
     <use style="fill:#008000;stroke:#008000;" x="186.002697" xlink:href="#mdef45649db" y="290.784045"/>
     <use style="fill:#008000;stroke:#008000;" x="190.015281" xlink:href="#mdef45649db" y="290.791425"/>
     <use style="fill:#008000;stroke:#008000;" x="194.027865" xlink:href="#mdef45649db" y="290.951893"/>
     <use style="fill:#008000;stroke:#008000;" x="198.040449" xlink:href="#mdef45649db" y="291.192056"/>
     <use style="fill:#008000;stroke:#008000;" x="202.053034" xlink:href="#mdef45649db" y="290.986829"/>
     <use style="fill:#008000;stroke:#008000;" x="206.065618" xlink:href="#mdef45649db" y="292.089302"/>
     <use style="fill:#008000;stroke:#008000;" x="210.078202" xlink:href="#mdef45649db" y="291.816074"/>
     <use style="fill:#008000;stroke:#008000;" x="214.090787" xlink:href="#mdef45649db" y="291.331891"/>
     <use style="fill:#008000;stroke:#008000;" x="218.103371" xlink:href="#mdef45649db" y="292.102863"/>
     <use style="fill:#008000;stroke:#008000;" x="222.115955" xlink:href="#mdef45649db" y="291.223832"/>
     <use style="fill:#008000;stroke:#008000;" x="226.128539" xlink:href="#mdef45649db" y="291.602442"/>
     <use style="fill:#008000;stroke:#008000;" x="230.141124" xlink:href="#mdef45649db" y="291.638641"/>
     <use style="fill:#008000;stroke:#008000;" x="234.153708" xlink:href="#mdef45649db" y="291.737603"/>
     <use style="fill:#008000;stroke:#008000;" x="238.166292" xlink:href="#mdef45649db" y="292.486734"/>
     <use style="fill:#008000;stroke:#008000;" x="242.178876" xlink:href="#mdef45649db" y="292.015044"/>
     <use style="fill:#008000;stroke:#008000;" x="246.191461" xlink:href="#mdef45649db" y="291.897831"/>
     <use style="fill:#008000;stroke:#008000;" x="250.204045" xlink:href="#mdef45649db" y="292.214301"/>
     <use style="fill:#008000;stroke:#008000;" x="254.216629" xlink:href="#mdef45649db" y="289.862534"/>
     <use style="fill:#008000;stroke:#008000;" x="258.229213" xlink:href="#mdef45649db" y="287.279378"/>
     <use style="fill:#008000;stroke:#008000;" x="262.241798" xlink:href="#mdef45649db" y="292.106466"/>
     <use style="fill:#008000;stroke:#008000;" x="266.254382" xlink:href="#mdef45649db" y="292.379091"/>
     <use style="fill:#008000;stroke:#008000;" x="270.266966" xlink:href="#mdef45649db" y="289.929786"/>
     <use style="fill:#008000;stroke:#008000;" x="274.279551" xlink:href="#mdef45649db" y="288.117548"/>
     <use style="fill:#008000;stroke:#008000;" x="278.292135" xlink:href="#mdef45649db" y="291.7167"/>
     <use style="fill:#008000;stroke:#008000;" x="282.304719" xlink:href="#mdef45649db" y="292.333194"/>
     <use style="fill:#008000;stroke:#008000;" x="286.317303" xlink:href="#mdef45649db" y="290.292893"/>
     <use style="fill:#008000;stroke:#008000;" x="290.329888" xlink:href="#mdef45649db" y="288.493432"/>
     <use style="fill:#008000;stroke:#008000;" x="294.342472" xlink:href="#mdef45649db" y="292.21863"/>
     <use style="fill:#008000;stroke:#008000;" x="298.355056" xlink:href="#mdef45649db" y="292.803854"/>
     <use style="fill:#008000;stroke:#008000;" x="302.36764" xlink:href="#mdef45649db" y="290.670364"/>
     <use style="fill:#008000;stroke:#008000;" x="306.380225" xlink:href="#mdef45649db" y="288.512705"/>
     <use style="fill:#008000;stroke:#008000;" x="310.392809" xlink:href="#mdef45649db" y="292.122171"/>
     <use style="fill:#008000;stroke:#008000;" x="314.405393" xlink:href="#mdef45649db" y="292.400398"/>
     <use style="fill:#008000;stroke:#008000;" x="318.417978" xlink:href="#mdef45649db" y="290.158035"/>
     <use style="fill:#008000;stroke:#008000;" x="322.430562" xlink:href="#mdef45649db" y="288.043294"/>
     <use style="fill:#008000;stroke:#008000;" x="326.443146" xlink:href="#mdef45649db" y="292.180744"/>
     <use style="fill:#008000;stroke:#008000;" x="330.45573" xlink:href="#mdef45649db" y="292.788612"/>
     <use style="fill:#008000;stroke:#008000;" x="334.468315" xlink:href="#mdef45649db" y="290.658098"/>
     <use style="fill:#008000;stroke:#008000;" x="338.480899" xlink:href="#mdef45649db" y="288.116348"/>
     <use style="fill:#008000;stroke:#008000;" x="342.493483" xlink:href="#mdef45649db" y="291.958391"/>
     <use style="fill:#008000;stroke:#008000;" x="346.506067" xlink:href="#mdef45649db" y="292.389364"/>
     <use style="fill:#008000;stroke:#008000;" x="350.518652" xlink:href="#mdef45649db" y="290.728324"/>
     <use style="fill:#008000;stroke:#008000;" x="354.531236" xlink:href="#mdef45649db" y="288.648791"/>
     <use style="fill:#008000;stroke:#008000;" x="358.54382" xlink:href="#mdef45649db" y="292.192282"/>
     <use style="fill:#008000;stroke:#008000;" x="362.556404" xlink:href="#mdef45649db" y="292.47967"/>
     <use style="fill:#008000;stroke:#008000;" x="366.568989" xlink:href="#mdef45649db" y="290.73159"/>
     <use style="fill:#008000;stroke:#008000;" x="370.581573" xlink:href="#mdef45649db" y="289.543957"/>
     <use style="fill:#008000;stroke:#008000;" x="374.594157" xlink:href="#mdef45649db" y="292.336194"/>
     <use style="fill:#008000;stroke:#008000;" x="378.606742" xlink:href="#mdef45649db" y="292.717132"/>
     <use style="fill:#008000;stroke:#008000;" x="382.619326" xlink:href="#mdef45649db" y="290.558592"/>
     <use style="fill:#008000;stroke:#008000;" x="386.63191" xlink:href="#mdef45649db" y="288.318019"/>
     <use style="fill:#008000;stroke:#008000;" x="390.644494" xlink:href="#mdef45649db" y="292.825135"/>
     <use style="fill:#008000;stroke:#008000;" x="394.657079" xlink:href="#mdef45649db" y="292.733779"/>
     <use style="fill:#008000;stroke:#008000;" x="398.669663" xlink:href="#mdef45649db" y="291.138847"/>
     <use style="fill:#008000;stroke:#008000;" x="402.682247" xlink:href="#mdef45649db" y="289.589795"/>
     <use style="fill:#008000;stroke:#008000;" x="406.694831" xlink:href="#mdef45649db" y="295.467161"/>
     <use style="fill:#008000;stroke:#008000;" x="410.707416" xlink:href="#mdef45649db" y="292.557463"/>
    </g>
   </g>
   <g id="patch_3">
    <path d="M 57.6 307.584 
L 57.6 41.472 
" style="fill:none;stroke:#000000;stroke-linecap:square;stroke-linejoin:miter;stroke-width:0.8;"/>
   </g>
   <g id="patch_4">
    <path d="M 414.72 307.584 
L 414.72 41.472 
" style="fill:none;stroke:#000000;stroke-linecap:square;stroke-linejoin:miter;stroke-width:0.8;"/>
   </g>
   <g id="patch_5">
    <path d="M 57.6 307.584 
L 414.72 307.584 
" style="fill:none;stroke:#000000;stroke-linecap:square;stroke-linejoin:miter;stroke-width:0.8;"/>
   </g>
   <g id="patch_6">
    <path d="M 57.6 41.472 
L 414.72 41.472 
" style="fill:none;stroke:#000000;stroke-linecap:square;stroke-linejoin:miter;stroke-width:0.8;"/>
   </g>
   <g id="text_32">
    <!-- radix sort 4 on pre_transpose12 -->
    <defs>
     <path d="M 9.421875 54.6875 
L 18.40625 54.6875 
L 18.40625 0 
L 9.421875 0 
z
M 9.421875 75.984375 
L 18.40625 75.984375 
L 18.40625 64.59375 
L 9.421875 64.59375 
z
" id="DejaVuSans-105"/>
     <path d="M 54.890625 54.6875 
L 35.109375 28.078125 
L 55.90625 0 
L 45.3125 0 
L 29.390625 21.484375 
L 13.484375 0 
L 2.875 0 
L 24.125 28.609375 
L 4.6875 54.6875 
L 15.28125 54.6875 
L 29.78125 35.203125 
L 44.28125 54.6875 
z
" id="DejaVuSans-120"/>
     <path d="M 30.609375 48.390625 
Q 23.390625 48.390625 19.1875 42.75 
Q 14.984375 37.109375 14.984375 27.296875 
Q 14.984375 17.484375 19.15625 11.84375 
Q 23.34375 6.203125 30.609375 6.203125 
Q 37.796875 6.203125 41.984375 11.859375 
Q 46.1875 17.53125 46.1875 27.296875 
Q 46.1875 37.015625 41.984375 42.703125 
Q 37.796875 48.390625 30.609375 48.390625 
z
M 30.609375 56 
Q 42.328125 56 49.015625 48.375 
Q 55.71875 40.765625 55.71875 27.296875 
Q 55.71875 13.875 49.015625 6.21875 
Q 42.328125 -1.421875 30.609375 -1.421875 
Q 18.84375 -1.421875 12.171875 6.21875 
Q 5.515625 13.875 5.515625 27.296875 
Q 5.515625 40.765625 12.171875 48.375 
Q 18.84375 56 30.609375 56 
z
" id="DejaVuSans-111"/>
     <path d="M 54.890625 33.015625 
L 54.890625 0 
L 45.90625 0 
L 45.90625 32.71875 
Q 45.90625 40.484375 42.875 44.328125 
Q 39.84375 48.1875 33.796875 48.1875 
Q 26.515625 48.1875 22.3125 43.546875 
Q 18.109375 38.921875 18.109375 30.90625 
L 18.109375 0 
L 9.078125 0 
L 9.078125 54.6875 
L 18.109375 54.6875 
L 18.109375 46.1875 
Q 21.34375 51.125 25.703125 53.5625 
Q 30.078125 56 35.796875 56 
Q 45.21875 56 50.046875 50.171875 
Q 54.890625 44.34375 54.890625 33.015625 
z
" id="DejaVuSans-110"/>
     <path d="M 50.984375 -16.609375 
L 50.984375 -23.578125 
L -0.984375 -23.578125 
L -0.984375 -16.609375 
z
" id="DejaVuSans-95"/>
    </defs>
    <g transform="translate(140.265938 35.472)scale(0.12 -0.12)">
     <use xlink:href="#DejaVuSans-114"/>
     <use x="41.113281" xlink:href="#DejaVuSans-97"/>
     <use x="102.392578" xlink:href="#DejaVuSans-100"/>
     <use x="165.869141" xlink:href="#DejaVuSans-105"/>
     <use x="193.652344" xlink:href="#DejaVuSans-120"/>
     <use x="252.832031" xlink:href="#DejaVuSans-32"/>
     <use x="284.619141" xlink:href="#DejaVuSans-115"/>
     <use x="336.71875" xlink:href="#DejaVuSans-111"/>
     <use x="397.900391" xlink:href="#DejaVuSans-114"/>
     <use x="439.013672" xlink:href="#DejaVuSans-116"/>
     <use x="478.222656" xlink:href="#DejaVuSans-32"/>
     <use x="510.009766" xlink:href="#DejaVuSans-52"/>
     <use x="573.632812" xlink:href="#DejaVuSans-32"/>
     <use x="605.419922" xlink:href="#DejaVuSans-111"/>
     <use x="666.601562" xlink:href="#DejaVuSans-110"/>
     <use x="729.980469" xlink:href="#DejaVuSans-32"/>
     <use x="761.767578" xlink:href="#DejaVuSans-112"/>
     <use x="825.244141" xlink:href="#DejaVuSans-114"/>
     <use x="864.107422" xlink:href="#DejaVuSans-101"/>
     <use x="925.630859" xlink:href="#DejaVuSans-95"/>
     <use x="975.630859" xlink:href="#DejaVuSans-116"/>
     <use x="1014.839844" xlink:href="#DejaVuSans-114"/>
     <use x="1055.953125" xlink:href="#DejaVuSans-97"/>
     <use x="1117.232422" xlink:href="#DejaVuSans-110"/>
     <use x="1180.611328" xlink:href="#DejaVuSans-115"/>
     <use x="1232.710938" xlink:href="#DejaVuSans-112"/>
     <use x="1296.1875" xlink:href="#DejaVuSans-111"/>
     <use x="1357.369141" xlink:href="#DejaVuSans-115"/>
     <use x="1409.46875" xlink:href="#DejaVuSans-101"/>
     <use x="1470.992188" xlink:href="#DejaVuSans-49"/>
     <use x="1534.615234" xlink:href="#DejaVuSans-50"/>
    </g>
   </g>
   <g id="legend_1">
    <g id="patch_7">
     <path d="M 313.152813 93.7845 
L 407.72 93.7845 
Q 409.72 93.7845 409.72 91.7845 
L 409.72 48.472 
Q 409.72 46.472 407.72 46.472 
L 313.152813 46.472 
Q 311.152813 46.472 311.152813 48.472 
L 311.152813 91.7845 
Q 311.152813 93.7845 313.152813 93.7845 
z
" style="fill:#ffffff;opacity:0.8;stroke:#cccccc;stroke-linejoin:miter;"/>
    </g>
    <g id="line2d_62">
     <path d="M 315.152813 54.570438 
L 335.152813 54.570438 
" style="fill:none;stroke:#0000ff;stroke-dasharray:1.5,2.475;stroke-dashoffset:0;stroke-width:1.5;"/>
    </g>
    <g id="line2d_63">
     <g>
      <use style="fill:#0000ff;stroke:#0000ff;" x="325.152813" xlink:href="#mab0eda4bcb" y="54.570438"/>
     </g>
    </g>
    <g id="text_33">
     <!-- transpose -->
     <g transform="translate(343.152813 58.070438)scale(0.1 -0.1)">
      <use xlink:href="#DejaVuSans-116"/>
      <use x="39.208984" xlink:href="#DejaVuSans-114"/>
      <use x="80.322266" xlink:href="#DejaVuSans-97"/>
      <use x="141.601562" xlink:href="#DejaVuSans-110"/>
      <use x="204.980469" xlink:href="#DejaVuSans-115"/>
      <use x="257.080078" xlink:href="#DejaVuSans-112"/>
      <use x="320.556641" xlink:href="#DejaVuSans-111"/>
      <use x="381.738281" xlink:href="#DejaVuSans-115"/>
      <use x="433.837891" xlink:href="#DejaVuSans-101"/>
     </g>
    </g>
    <g id="line2d_64">
     <path d="M 315.152813 69.248563 
L 335.152813 69.248563 
" style="fill:none;stroke:#ff0000;stroke-dasharray:1.5,2.475;stroke-dashoffset:0;stroke-width:1.5;"/>
    </g>
    <g id="line2d_65">
     <g>
      <use style="fill:#ff0000;stroke:#ff0000;" x="325.152813" xlink:href="#mfa17adcebf" y="69.248563"/>
     </g>
    </g>
    <g id="text_34">
     <!-- transpose_tr -->
     <g transform="translate(343.152813 72.748563)scale(0.1 -0.1)">
      <use xlink:href="#DejaVuSans-116"/>
      <use x="39.208984" xlink:href="#DejaVuSans-114"/>
      <use x="80.322266" xlink:href="#DejaVuSans-97"/>
      <use x="141.601562" xlink:href="#DejaVuSans-110"/>
      <use x="204.980469" xlink:href="#DejaVuSans-115"/>
      <use x="257.080078" xlink:href="#DejaVuSans-112"/>
      <use x="320.556641" xlink:href="#DejaVuSans-111"/>
      <use x="381.738281" xlink:href="#DejaVuSans-115"/>
      <use x="433.837891" xlink:href="#DejaVuSans-101"/>
      <use x="495.361328" xlink:href="#DejaVuSans-95"/>
      <use x="545.361328" xlink:href="#DejaVuSans-116"/>
      <use x="584.570312" xlink:href="#DejaVuSans-114"/>
     </g>
    </g>
    <g id="line2d_66">
     <path d="M 315.152813 84.204813 
L 335.152813 84.204813 
" style="fill:none;stroke:#008000;stroke-dasharray:1.5,2.475;stroke-dashoffset:0;stroke-width:1.5;"/>
    </g>
    <g id="line2d_67">
     <g>
      <use style="fill:#008000;stroke:#008000;" x="325.152813" xlink:href="#mdef45649db" y="84.204813"/>
     </g>
    </g>
    <g id="text_35">
     <!-- mean -->
     <defs>
      <path d="M 52 44.1875 
Q 55.375 50.25 60.0625 53.125 
Q 64.75 56 71.09375 56 
Q 79.640625 56 84.28125 50.015625 
Q 88.921875 44.046875 88.921875 33.015625 
L 88.921875 0 
L 79.890625 0 
L 79.890625 32.71875 
Q 79.890625 40.578125 77.09375 44.375 
Q 74.3125 48.1875 68.609375 48.1875 
Q 61.625 48.1875 57.5625 43.546875 
Q 53.515625 38.921875 53.515625 30.90625 
L 53.515625 0 
L 44.484375 0 
L 44.484375 32.71875 
Q 44.484375 40.625 41.703125 44.40625 
Q 38.921875 48.1875 33.109375 48.1875 
Q 26.21875 48.1875 22.15625 43.53125 
Q 18.109375 38.875 18.109375 30.90625 
L 18.109375 0 
L 9.078125 0 
L 9.078125 54.6875 
L 18.109375 54.6875 
L 18.109375 46.1875 
Q 21.1875 51.21875 25.484375 53.609375 
Q 29.78125 56 35.6875 56 
Q 41.65625 56 45.828125 52.96875 
Q 50 49.953125 52 44.1875 
z
" id="DejaVuSans-109"/>
     </defs>
     <g transform="translate(343.152813 87.704813)scale(0.1 -0.1)">
      <use xlink:href="#DejaVuSans-109"/>
      <use x="97.412109" xlink:href="#DejaVuSans-101"/>
      <use x="158.935547" xlink:href="#DejaVuSans-97"/>
      <use x="220.214844" xlink:href="#DejaVuSans-110"/>
     </g>
    </g>
   </g>
  </g>
 </g>
 <defs>
  <clipPath id="p72d6fc05c2">
   <rect height="266.112" width="357.12" x="57.6" y="41.472"/>
  </clipPath>
 </defs>
</svg>
