<?xml version="1.0" encoding="utf-8" standalone="no"?>
<!DOCTYPE svg PUBLIC "-//W3C//DTD SVG 1.1//EN"
  "http://www.w3.org/Graphics/SVG/1.1/DTD/svg11.dtd">
<!-- Created with matplotlib (https://matplotlib.org/) -->
<svg height="345.6pt" version="1.1" viewBox="0 0 460.8 345.6" width="460.8pt" xmlns="http://www.w3.org/2000/svg" xmlns:xlink="http://www.w3.org/1999/xlink">
 <defs>
  <style type="text/css">
*{stroke-linecap:butt;stroke-linejoin:round;}
  </style>
 </defs>
 <g id="figure_1">
  <g id="patch_1">
   <path d="M 0 345.6 
L 460.8 345.6 
L 460.8 0 
L 0 0 
z
" style="fill:#ffffff;"/>
  </g>
  <g id="axes_1">
   <g id="patch_2">
    <path d="M 57.6 307.584 
L 414.72 307.584 
L 414.72 41.472 
L 57.6 41.472 
z
" style="fill:#ffffff;"/>
   </g>
   <g id="matplotlib.axis_1">
    <g id="xtick_1">
     <g id="line2d_1">
      <path clip-path="url(#p1e0893ff85)" d="M 61.612584 307.584 
L 61.612584 41.472 
" style="fill:none;stroke:#b0b0b0;stroke-dasharray:5.12,1.28,0.8,1.28;stroke-dashoffset:0;stroke-width:0.8;"/>
     </g>
     <g id="line2d_2">
      <defs>
       <path d="M 0 0 
L 0 3.5 
" id="m18b1c0dbc2" style="stroke:#000000;stroke-width:0.8;"/>
      </defs>
      <g>
       <use style="stroke:#000000;stroke-width:0.8;" x="61.612584" xlink:href="#m18b1c0dbc2" y="307.584"/>
      </g>
     </g>
     <g id="text_1">
      <!-- 1 -->
      <defs>
       <path d="M 12.40625 8.296875 
L 28.515625 8.296875 
L 28.515625 63.921875 
L 10.984375 60.40625 
L 10.984375 69.390625 
L 28.421875 72.90625 
L 38.28125 72.90625 
L 38.28125 8.296875 
L 54.390625 8.296875 
L 54.390625 0 
L 12.40625 0 
z
" id="DejaVuSans-49"/>
      </defs>
      <g transform="translate(58.431334 322.182437)scale(0.1 -0.1)">
       <use xlink:href="#DejaVuSans-49"/>
      </g>
     </g>
    </g>
    <g id="xtick_2">
     <g id="line2d_3">
      <path clip-path="url(#p1e0893ff85)" d="M 73.650337 307.584 
L 73.650337 41.472 
" style="fill:none;stroke:#b0b0b0;stroke-dasharray:5.12,1.28,0.8,1.28;stroke-dashoffset:0;stroke-width:0.8;"/>
     </g>
     <g id="line2d_4">
      <g>
       <use style="stroke:#000000;stroke-width:0.8;" x="73.650337" xlink:href="#m18b1c0dbc2" y="307.584"/>
      </g>
     </g>
     <g id="text_2">
      <!-- 4 -->
      <defs>
       <path d="M 37.796875 64.3125 
L 12.890625 25.390625 
L 37.796875 25.390625 
z
M 35.203125 72.90625 
L 47.609375 72.90625 
L 47.609375 25.390625 
L 58.015625 25.390625 
L 58.015625 17.1875 
L 47.609375 17.1875 
L 47.609375 0 
L 37.796875 0 
L 37.796875 17.1875 
L 4.890625 17.1875 
L 4.890625 26.703125 
z
" id="DejaVuSans-52"/>
      </defs>
      <g transform="translate(70.469087 322.182437)scale(0.1 -0.1)">
       <use xlink:href="#DejaVuSans-52"/>
      </g>
     </g>
    </g>
    <g id="xtick_3">
     <g id="line2d_5">
      <path clip-path="url(#p1e0893ff85)" d="M 89.700674 307.584 
L 89.700674 41.472 
" style="fill:none;stroke:#b0b0b0;stroke-dasharray:5.12,1.28,0.8,1.28;stroke-dashoffset:0;stroke-width:0.8;"/>
     </g>
     <g id="line2d_6">
      <g>
       <use style="stroke:#000000;stroke-width:0.8;" x="89.700674" xlink:href="#m18b1c0dbc2" y="307.584"/>
      </g>
     </g>
     <g id="text_3">
      <!-- 8 -->
      <defs>
       <path d="M 31.78125 34.625 
Q 24.75 34.625 20.71875 30.859375 
Q 16.703125 27.09375 16.703125 20.515625 
Q 16.703125 13.921875 20.71875 10.15625 
Q 24.75 6.390625 31.78125 6.390625 
Q 38.8125 6.390625 42.859375 10.171875 
Q 46.921875 13.96875 46.921875 20.515625 
Q 46.921875 27.09375 42.890625 30.859375 
Q 38.875 34.625 31.78125 34.625 
z
M 21.921875 38.8125 
Q 15.578125 40.375 12.03125 44.71875 
Q 8.5 49.078125 8.5 55.328125 
Q 8.5 64.0625 14.71875 69.140625 
Q 20.953125 74.21875 31.78125 74.21875 
Q 42.671875 74.21875 48.875 69.140625 
Q 55.078125 64.0625 55.078125 55.328125 
Q 55.078125 49.078125 51.53125 44.71875 
Q 48 40.375 41.703125 38.8125 
Q 48.828125 37.15625 52.796875 32.3125 
Q 56.78125 27.484375 56.78125 20.515625 
Q 56.78125 9.90625 50.3125 4.234375 
Q 43.84375 -1.421875 31.78125 -1.421875 
Q 19.734375 -1.421875 13.25 4.234375 
Q 6.78125 9.90625 6.78125 20.515625 
Q 6.78125 27.484375 10.78125 32.3125 
Q 14.796875 37.15625 21.921875 38.8125 
z
M 18.3125 54.390625 
Q 18.3125 48.734375 21.84375 45.5625 
Q 25.390625 42.390625 31.78125 42.390625 
Q 38.140625 42.390625 41.71875 45.5625 
Q 45.3125 48.734375 45.3125 54.390625 
Q 45.3125 60.0625 41.71875 63.234375 
Q 38.140625 66.40625 31.78125 66.40625 
Q 25.390625 66.40625 21.84375 63.234375 
Q 18.3125 60.0625 18.3125 54.390625 
z
" id="DejaVuSans-56"/>
      </defs>
      <g transform="translate(86.519424 322.182437)scale(0.1 -0.1)">
       <use xlink:href="#DejaVuSans-56"/>
      </g>
     </g>
    </g>
    <g id="xtick_4">
     <g id="line2d_7">
      <path clip-path="url(#p1e0893ff85)" d="M 105.751011 307.584 
L 105.751011 41.472 
" style="fill:none;stroke:#b0b0b0;stroke-dasharray:5.12,1.28,0.8,1.28;stroke-dashoffset:0;stroke-width:0.8;"/>
     </g>
     <g id="line2d_8">
      <g>
       <use style="stroke:#000000;stroke-width:0.8;" x="105.751011" xlink:href="#m18b1c0dbc2" y="307.584"/>
      </g>
     </g>
     <g id="text_4">
      <!-- 12 -->
      <defs>
       <path d="M 19.1875 8.296875 
L 53.609375 8.296875 
L 53.609375 0 
L 7.328125 0 
L 7.328125 8.296875 
Q 12.9375 14.109375 22.625 23.890625 
Q 32.328125 33.6875 34.8125 36.53125 
Q 39.546875 41.84375 41.421875 45.53125 
Q 43.3125 49.21875 43.3125 52.78125 
Q 43.3125 58.59375 39.234375 62.25 
Q 35.15625 65.921875 28.609375 65.921875 
Q 23.96875 65.921875 18.8125 64.3125 
Q 13.671875 62.703125 7.8125 59.421875 
L 7.8125 69.390625 
Q 13.765625 71.78125 18.9375 73 
Q 24.125 74.21875 28.421875 74.21875 
Q 39.75 74.21875 46.484375 68.546875 
Q 53.21875 62.890625 53.21875 53.421875 
Q 53.21875 48.921875 51.53125 44.890625 
Q 49.859375 40.875 45.40625 35.40625 
Q 44.1875 33.984375 37.640625 27.21875 
Q 31.109375 20.453125 19.1875 8.296875 
z
" id="DejaVuSans-50"/>
      </defs>
      <g transform="translate(99.388511 322.182437)scale(0.1 -0.1)">
       <use xlink:href="#DejaVuSans-49"/>
       <use x="63.623047" xlink:href="#DejaVuSans-50"/>
      </g>
     </g>
    </g>
    <g id="xtick_5">
     <g id="line2d_9">
      <path clip-path="url(#p1e0893ff85)" d="M 121.801348 307.584 
L 121.801348 41.472 
" style="fill:none;stroke:#b0b0b0;stroke-dasharray:5.12,1.28,0.8,1.28;stroke-dashoffset:0;stroke-width:0.8;"/>
     </g>
     <g id="line2d_10">
      <g>
       <use style="stroke:#000000;stroke-width:0.8;" x="121.801348" xlink:href="#m18b1c0dbc2" y="307.584"/>
      </g>
     </g>
     <g id="text_5">
      <!-- 16 -->
      <defs>
       <path d="M 33.015625 40.375 
Q 26.375 40.375 22.484375 35.828125 
Q 18.609375 31.296875 18.609375 23.390625 
Q 18.609375 15.53125 22.484375 10.953125 
Q 26.375 6.390625 33.015625 6.390625 
Q 39.65625 6.390625 43.53125 10.953125 
Q 47.40625 15.53125 47.40625 23.390625 
Q 47.40625 31.296875 43.53125 35.828125 
Q 39.65625 40.375 33.015625 40.375 
z
M 52.59375 71.296875 
L 52.59375 62.3125 
Q 48.875 64.0625 45.09375 64.984375 
Q 41.3125 65.921875 37.59375 65.921875 
Q 27.828125 65.921875 22.671875 59.328125 
Q 17.53125 52.734375 16.796875 39.40625 
Q 19.671875 43.65625 24.015625 45.921875 
Q 28.375 48.1875 33.59375 48.1875 
Q 44.578125 48.1875 50.953125 41.515625 
Q 57.328125 34.859375 57.328125 23.390625 
Q 57.328125 12.15625 50.6875 5.359375 
Q 44.046875 -1.421875 33.015625 -1.421875 
Q 20.359375 -1.421875 13.671875 8.265625 
Q 6.984375 17.96875 6.984375 36.375 
Q 6.984375 53.65625 15.1875 63.9375 
Q 23.390625 74.21875 37.203125 74.21875 
Q 40.921875 74.21875 44.703125 73.484375 
Q 48.484375 72.75 52.59375 71.296875 
z
" id="DejaVuSans-54"/>
      </defs>
      <g transform="translate(115.438848 322.182437)scale(0.1 -0.1)">
       <use xlink:href="#DejaVuSans-49"/>
       <use x="63.623047" xlink:href="#DejaVuSans-54"/>
      </g>
     </g>
    </g>
    <g id="xtick_6">
     <g id="line2d_11">
      <path clip-path="url(#p1e0893ff85)" d="M 137.851685 307.584 
L 137.851685 41.472 
" style="fill:none;stroke:#b0b0b0;stroke-dasharray:5.12,1.28,0.8,1.28;stroke-dashoffset:0;stroke-width:0.8;"/>
     </g>
     <g id="line2d_12">
      <g>
       <use style="stroke:#000000;stroke-width:0.8;" x="137.851685" xlink:href="#m18b1c0dbc2" y="307.584"/>
      </g>
     </g>
     <g id="text_6">
      <!-- 20 -->
      <defs>
       <path d="M 31.78125 66.40625 
Q 24.171875 66.40625 20.328125 58.90625 
Q 16.5 51.421875 16.5 36.375 
Q 16.5 21.390625 20.328125 13.890625 
Q 24.171875 6.390625 31.78125 6.390625 
Q 39.453125 6.390625 43.28125 13.890625 
Q 47.125 21.390625 47.125 36.375 
Q 47.125 51.421875 43.28125 58.90625 
Q 39.453125 66.40625 31.78125 66.40625 
z
M 31.78125 74.21875 
Q 44.046875 74.21875 50.515625 64.515625 
Q 56.984375 54.828125 56.984375 36.375 
Q 56.984375 17.96875 50.515625 8.265625 
Q 44.046875 -1.421875 31.78125 -1.421875 
Q 19.53125 -1.421875 13.0625 8.265625 
Q 6.59375 17.96875 6.59375 36.375 
Q 6.59375 54.828125 13.0625 64.515625 
Q 19.53125 74.21875 31.78125 74.21875 
z
" id="DejaVuSans-48"/>
      </defs>
      <g transform="translate(131.489185 322.182437)scale(0.1 -0.1)">
       <use xlink:href="#DejaVuSans-50"/>
       <use x="63.623047" xlink:href="#DejaVuSans-48"/>
      </g>
     </g>
    </g>
    <g id="xtick_7">
     <g id="line2d_13">
      <path clip-path="url(#p1e0893ff85)" d="M 153.902022 307.584 
L 153.902022 41.472 
" style="fill:none;stroke:#b0b0b0;stroke-dasharray:5.12,1.28,0.8,1.28;stroke-dashoffset:0;stroke-width:0.8;"/>
     </g>
     <g id="line2d_14">
      <g>
       <use style="stroke:#000000;stroke-width:0.8;" x="153.902022" xlink:href="#m18b1c0dbc2" y="307.584"/>
      </g>
     </g>
     <g id="text_7">
      <!-- 24 -->
      <g transform="translate(147.539522 322.182437)scale(0.1 -0.1)">
       <use xlink:href="#DejaVuSans-50"/>
       <use x="63.623047" xlink:href="#DejaVuSans-52"/>
      </g>
     </g>
    </g>
    <g id="xtick_8">
     <g id="line2d_15">
      <path clip-path="url(#p1e0893ff85)" d="M 169.95236 307.584 
L 169.95236 41.472 
" style="fill:none;stroke:#b0b0b0;stroke-dasharray:5.12,1.28,0.8,1.28;stroke-dashoffset:0;stroke-width:0.8;"/>
     </g>
     <g id="line2d_16">
      <g>
       <use style="stroke:#000000;stroke-width:0.8;" x="169.95236" xlink:href="#m18b1c0dbc2" y="307.584"/>
      </g>
     </g>
     <g id="text_8">
      <!-- 28 -->
      <g transform="translate(163.58986 322.182437)scale(0.1 -0.1)">
       <use xlink:href="#DejaVuSans-50"/>
       <use x="63.623047" xlink:href="#DejaVuSans-56"/>
      </g>
     </g>
    </g>
    <g id="xtick_9">
     <g id="line2d_17">
      <path clip-path="url(#p1e0893ff85)" d="M 186.002697 307.584 
L 186.002697 41.472 
" style="fill:none;stroke:#b0b0b0;stroke-dasharray:5.12,1.28,0.8,1.28;stroke-dashoffset:0;stroke-width:0.8;"/>
     </g>
     <g id="line2d_18">
      <g>
       <use style="stroke:#000000;stroke-width:0.8;" x="186.002697" xlink:href="#m18b1c0dbc2" y="307.584"/>
      </g>
     </g>
     <g id="text_9">
      <!-- 32 -->
      <defs>
       <path d="M 40.578125 39.3125 
Q 47.65625 37.796875 51.625 33 
Q 55.609375 28.21875 55.609375 21.1875 
Q 55.609375 10.40625 48.1875 4.484375 
Q 40.765625 -1.421875 27.09375 -1.421875 
Q 22.515625 -1.421875 17.65625 -0.515625 
Q 12.796875 0.390625 7.625 2.203125 
L 7.625 11.71875 
Q 11.71875 9.328125 16.59375 8.109375 
Q 21.484375 6.890625 26.8125 6.890625 
Q 36.078125 6.890625 40.9375 10.546875 
Q 45.796875 14.203125 45.796875 21.1875 
Q 45.796875 27.640625 41.28125 31.265625 
Q 36.765625 34.90625 28.71875 34.90625 
L 20.21875 34.90625 
L 20.21875 43.015625 
L 29.109375 43.015625 
Q 36.375 43.015625 40.234375 45.921875 
Q 44.09375 48.828125 44.09375 54.296875 
Q 44.09375 59.90625 40.109375 62.90625 
Q 36.140625 65.921875 28.71875 65.921875 
Q 24.65625 65.921875 20.015625 65.03125 
Q 15.375 64.15625 9.8125 62.3125 
L 9.8125 71.09375 
Q 15.4375 72.65625 20.34375 73.4375 
Q 25.25 74.21875 29.59375 74.21875 
Q 40.828125 74.21875 47.359375 69.109375 
Q 53.90625 64.015625 53.90625 55.328125 
Q 53.90625 49.265625 50.4375 45.09375 
Q 46.96875 40.921875 40.578125 39.3125 
z
" id="DejaVuSans-51"/>
      </defs>
      <g transform="translate(179.640197 322.182437)scale(0.1 -0.1)">
       <use xlink:href="#DejaVuSans-51"/>
       <use x="63.623047" xlink:href="#DejaVuSans-50"/>
      </g>
     </g>
    </g>
    <g id="xtick_10">
     <g id="line2d_19">
      <path clip-path="url(#p1e0893ff85)" d="M 202.053034 307.584 
L 202.053034 41.472 
" style="fill:none;stroke:#b0b0b0;stroke-dasharray:5.12,1.28,0.8,1.28;stroke-dashoffset:0;stroke-width:0.8;"/>
     </g>
     <g id="line2d_20">
      <g>
       <use style="stroke:#000000;stroke-width:0.8;" x="202.053034" xlink:href="#m18b1c0dbc2" y="307.584"/>
      </g>
     </g>
     <g id="text_10">
      <!-- 36 -->
      <g transform="translate(195.690534 322.182437)scale(0.1 -0.1)">
       <use xlink:href="#DejaVuSans-51"/>
       <use x="63.623047" xlink:href="#DejaVuSans-54"/>
      </g>
     </g>
    </g>
    <g id="xtick_11">
     <g id="line2d_21">
      <path clip-path="url(#p1e0893ff85)" d="M 218.103371 307.584 
L 218.103371 41.472 
" style="fill:none;stroke:#b0b0b0;stroke-dasharray:5.12,1.28,0.8,1.28;stroke-dashoffset:0;stroke-width:0.8;"/>
     </g>
     <g id="line2d_22">
      <g>
       <use style="stroke:#000000;stroke-width:0.8;" x="218.103371" xlink:href="#m18b1c0dbc2" y="307.584"/>
      </g>
     </g>
     <g id="text_11">
      <!-- 40 -->
      <g transform="translate(211.740871 322.182437)scale(0.1 -0.1)">
       <use xlink:href="#DejaVuSans-52"/>
       <use x="63.623047" xlink:href="#DejaVuSans-48"/>
      </g>
     </g>
    </g>
    <g id="xtick_12">
     <g id="line2d_23">
      <path clip-path="url(#p1e0893ff85)" d="M 234.153708 307.584 
L 234.153708 41.472 
" style="fill:none;stroke:#b0b0b0;stroke-dasharray:5.12,1.28,0.8,1.28;stroke-dashoffset:0;stroke-width:0.8;"/>
     </g>
     <g id="line2d_24">
      <g>
       <use style="stroke:#000000;stroke-width:0.8;" x="234.153708" xlink:href="#m18b1c0dbc2" y="307.584"/>
      </g>
     </g>
     <g id="text_12">
      <!-- 44 -->
      <g transform="translate(227.791208 322.182437)scale(0.1 -0.1)">
       <use xlink:href="#DejaVuSans-52"/>
       <use x="63.623047" xlink:href="#DejaVuSans-52"/>
      </g>
     </g>
    </g>
    <g id="xtick_13">
     <g id="line2d_25">
      <path clip-path="url(#p1e0893ff85)" d="M 250.204045 307.584 
L 250.204045 41.472 
" style="fill:none;stroke:#b0b0b0;stroke-dasharray:5.12,1.28,0.8,1.28;stroke-dashoffset:0;stroke-width:0.8;"/>
     </g>
     <g id="line2d_26">
      <g>
       <use style="stroke:#000000;stroke-width:0.8;" x="250.204045" xlink:href="#m18b1c0dbc2" y="307.584"/>
      </g>
     </g>
     <g id="text_13">
      <!-- 48 -->
      <g transform="translate(243.841545 322.182437)scale(0.1 -0.1)">
       <use xlink:href="#DejaVuSans-52"/>
       <use x="63.623047" xlink:href="#DejaVuSans-56"/>
      </g>
     </g>
    </g>
    <g id="xtick_14">
     <g id="line2d_27">
      <path clip-path="url(#p1e0893ff85)" d="M 266.254382 307.584 
L 266.254382 41.472 
" style="fill:none;stroke:#b0b0b0;stroke-dasharray:5.12,1.28,0.8,1.28;stroke-dashoffset:0;stroke-width:0.8;"/>
     </g>
     <g id="line2d_28">
      <g>
       <use style="stroke:#000000;stroke-width:0.8;" x="266.254382" xlink:href="#m18b1c0dbc2" y="307.584"/>
      </g>
     </g>
     <g id="text_14">
      <!-- 52 -->
      <defs>
       <path d="M 10.796875 72.90625 
L 49.515625 72.90625 
L 49.515625 64.59375 
L 19.828125 64.59375 
L 19.828125 46.734375 
Q 21.96875 47.46875 24.109375 47.828125 
Q 26.265625 48.1875 28.421875 48.1875 
Q 40.625 48.1875 47.75 41.5 
Q 54.890625 34.8125 54.890625 23.390625 
Q 54.890625 11.625 47.5625 5.09375 
Q 40.234375 -1.421875 26.90625 -1.421875 
Q 22.3125 -1.421875 17.546875 -0.640625 
Q 12.796875 0.140625 7.71875 1.703125 
L 7.71875 11.625 
Q 12.109375 9.234375 16.796875 8.0625 
Q 21.484375 6.890625 26.703125 6.890625 
Q 35.15625 6.890625 40.078125 11.328125 
Q 45.015625 15.765625 45.015625 23.390625 
Q 45.015625 31 40.078125 35.4375 
Q 35.15625 39.890625 26.703125 39.890625 
Q 22.75 39.890625 18.8125 39.015625 
Q 14.890625 38.140625 10.796875 36.28125 
z
" id="DejaVuSans-53"/>
      </defs>
      <g transform="translate(259.891882 322.182437)scale(0.1 -0.1)">
       <use xlink:href="#DejaVuSans-53"/>
       <use x="63.623047" xlink:href="#DejaVuSans-50"/>
      </g>
     </g>
    </g>
    <g id="xtick_15">
     <g id="line2d_29">
      <path clip-path="url(#p1e0893ff85)" d="M 282.304719 307.584 
L 282.304719 41.472 
" style="fill:none;stroke:#b0b0b0;stroke-dasharray:5.12,1.28,0.8,1.28;stroke-dashoffset:0;stroke-width:0.8;"/>
     </g>
     <g id="line2d_30">
      <g>
       <use style="stroke:#000000;stroke-width:0.8;" x="282.304719" xlink:href="#m18b1c0dbc2" y="307.584"/>
      </g>
     </g>
     <g id="text_15">
      <!-- 56 -->
      <g transform="translate(275.942219 322.182437)scale(0.1 -0.1)">
       <use xlink:href="#DejaVuSans-53"/>
       <use x="63.623047" xlink:href="#DejaVuSans-54"/>
      </g>
     </g>
    </g>
    <g id="xtick_16">
     <g id="line2d_31">
      <path clip-path="url(#p1e0893ff85)" d="M 298.355056 307.584 
L 298.355056 41.472 
" style="fill:none;stroke:#b0b0b0;stroke-dasharray:5.12,1.28,0.8,1.28;stroke-dashoffset:0;stroke-width:0.8;"/>
     </g>
     <g id="line2d_32">
      <g>
       <use style="stroke:#000000;stroke-width:0.8;" x="298.355056" xlink:href="#m18b1c0dbc2" y="307.584"/>
      </g>
     </g>
     <g id="text_16">
      <!-- 60 -->
      <g transform="translate(291.992556 322.182437)scale(0.1 -0.1)">
       <use xlink:href="#DejaVuSans-54"/>
       <use x="63.623047" xlink:href="#DejaVuSans-48"/>
      </g>
     </g>
    </g>
    <g id="xtick_17">
     <g id="line2d_33">
      <path clip-path="url(#p1e0893ff85)" d="M 314.405393 307.584 
L 314.405393 41.472 
" style="fill:none;stroke:#b0b0b0;stroke-dasharray:5.12,1.28,0.8,1.28;stroke-dashoffset:0;stroke-width:0.8;"/>
     </g>
     <g id="line2d_34">
      <g>
       <use style="stroke:#000000;stroke-width:0.8;" x="314.405393" xlink:href="#m18b1c0dbc2" y="307.584"/>
      </g>
     </g>
     <g id="text_17">
      <!-- 64 -->
      <g transform="translate(308.042893 322.182437)scale(0.1 -0.1)">
       <use xlink:href="#DejaVuSans-54"/>
       <use x="63.623047" xlink:href="#DejaVuSans-52"/>
      </g>
     </g>
    </g>
    <g id="xtick_18">
     <g id="line2d_35">
      <path clip-path="url(#p1e0893ff85)" d="M 330.45573 307.584 
L 330.45573 41.472 
" style="fill:none;stroke:#b0b0b0;stroke-dasharray:5.12,1.28,0.8,1.28;stroke-dashoffset:0;stroke-width:0.8;"/>
     </g>
     <g id="line2d_36">
      <g>
       <use style="stroke:#000000;stroke-width:0.8;" x="330.45573" xlink:href="#m18b1c0dbc2" y="307.584"/>
      </g>
     </g>
     <g id="text_18">
      <!-- 68 -->
      <g transform="translate(324.09323 322.182437)scale(0.1 -0.1)">
       <use xlink:href="#DejaVuSans-54"/>
       <use x="63.623047" xlink:href="#DejaVuSans-56"/>
      </g>
     </g>
    </g>
    <g id="xtick_19">
     <g id="line2d_37">
      <path clip-path="url(#p1e0893ff85)" d="M 346.506067 307.584 
L 346.506067 41.472 
" style="fill:none;stroke:#b0b0b0;stroke-dasharray:5.12,1.28,0.8,1.28;stroke-dashoffset:0;stroke-width:0.8;"/>
     </g>
     <g id="line2d_38">
      <g>
       <use style="stroke:#000000;stroke-width:0.8;" x="346.506067" xlink:href="#m18b1c0dbc2" y="307.584"/>
      </g>
     </g>
     <g id="text_19">
      <!-- 72 -->
      <defs>
       <path d="M 8.203125 72.90625 
L 55.078125 72.90625 
L 55.078125 68.703125 
L 28.609375 0 
L 18.3125 0 
L 43.21875 64.59375 
L 8.203125 64.59375 
z
" id="DejaVuSans-55"/>
      </defs>
      <g transform="translate(340.143567 322.182437)scale(0.1 -0.1)">
       <use xlink:href="#DejaVuSans-55"/>
       <use x="63.623047" xlink:href="#DejaVuSans-50"/>
      </g>
     </g>
    </g>
    <g id="xtick_20">
     <g id="line2d_39">
      <path clip-path="url(#p1e0893ff85)" d="M 362.556404 307.584 
L 362.556404 41.472 
" style="fill:none;stroke:#b0b0b0;stroke-dasharray:5.12,1.28,0.8,1.28;stroke-dashoffset:0;stroke-width:0.8;"/>
     </g>
     <g id="line2d_40">
      <g>
       <use style="stroke:#000000;stroke-width:0.8;" x="362.556404" xlink:href="#m18b1c0dbc2" y="307.584"/>
      </g>
     </g>
     <g id="text_20">
      <!-- 76 -->
      <g transform="translate(356.193904 322.182437)scale(0.1 -0.1)">
       <use xlink:href="#DejaVuSans-55"/>
       <use x="63.623047" xlink:href="#DejaVuSans-54"/>
      </g>
     </g>
    </g>
    <g id="xtick_21">
     <g id="line2d_41">
      <path clip-path="url(#p1e0893ff85)" d="M 378.606742 307.584 
L 378.606742 41.472 
" style="fill:none;stroke:#b0b0b0;stroke-dasharray:5.12,1.28,0.8,1.28;stroke-dashoffset:0;stroke-width:0.8;"/>
     </g>
     <g id="line2d_42">
      <g>
       <use style="stroke:#000000;stroke-width:0.8;" x="378.606742" xlink:href="#m18b1c0dbc2" y="307.584"/>
      </g>
     </g>
     <g id="text_21">
      <!-- 80 -->
      <g transform="translate(372.244242 322.182437)scale(0.1 -0.1)">
       <use xlink:href="#DejaVuSans-56"/>
       <use x="63.623047" xlink:href="#DejaVuSans-48"/>
      </g>
     </g>
    </g>
    <g id="xtick_22">
     <g id="line2d_43">
      <path clip-path="url(#p1e0893ff85)" d="M 394.657079 307.584 
L 394.657079 41.472 
" style="fill:none;stroke:#b0b0b0;stroke-dasharray:5.12,1.28,0.8,1.28;stroke-dashoffset:0;stroke-width:0.8;"/>
     </g>
     <g id="line2d_44">
      <g>
       <use style="stroke:#000000;stroke-width:0.8;" x="394.657079" xlink:href="#m18b1c0dbc2" y="307.584"/>
      </g>
     </g>
     <g id="text_22">
      <!-- 84 -->
      <g transform="translate(388.294579 322.182437)scale(0.1 -0.1)">
       <use xlink:href="#DejaVuSans-56"/>
       <use x="63.623047" xlink:href="#DejaVuSans-52"/>
      </g>
     </g>
    </g>
    <g id="xtick_23">
     <g id="line2d_45">
      <path clip-path="url(#p1e0893ff85)" d="M 410.707416 307.584 
L 410.707416 41.472 
" style="fill:none;stroke:#b0b0b0;stroke-dasharray:5.12,1.28,0.8,1.28;stroke-dashoffset:0;stroke-width:0.8;"/>
     </g>
     <g id="line2d_46">
      <g>
       <use style="stroke:#000000;stroke-width:0.8;" x="410.707416" xlink:href="#m18b1c0dbc2" y="307.584"/>
      </g>
     </g>
     <g id="text_23">
      <!-- 88 -->
      <g transform="translate(404.344916 322.182437)scale(0.1 -0.1)">
       <use xlink:href="#DejaVuSans-56"/>
       <use x="63.623047" xlink:href="#DejaVuSans-56"/>
      </g>
     </g>
    </g>
    <g id="text_24">
     <!-- threads -->
     <defs>
      <path d="M 18.3125 70.21875 
L 18.3125 54.6875 
L 36.8125 54.6875 
L 36.8125 47.703125 
L 18.3125 47.703125 
L 18.3125 18.015625 
Q 18.3125 11.328125 20.140625 9.421875 
Q 21.96875 7.515625 27.59375 7.515625 
L 36.8125 7.515625 
L 36.8125 0 
L 27.59375 0 
Q 17.1875 0 13.234375 3.875 
Q 9.28125 7.765625 9.28125 18.015625 
L 9.28125 47.703125 
L 2.6875 47.703125 
L 2.6875 54.6875 
L 9.28125 54.6875 
L 9.28125 70.21875 
z
" id="DejaVuSans-116"/>
      <path d="M 54.890625 33.015625 
L 54.890625 0 
L 45.90625 0 
L 45.90625 32.71875 
Q 45.90625 40.484375 42.875 44.328125 
Q 39.84375 48.1875 33.796875 48.1875 
Q 26.515625 48.1875 22.3125 43.546875 
Q 18.109375 38.921875 18.109375 30.90625 
L 18.109375 0 
L 9.078125 0 
L 9.078125 75.984375 
L 18.109375 75.984375 
L 18.109375 46.1875 
Q 21.34375 51.125 25.703125 53.5625 
Q 30.078125 56 35.796875 56 
Q 45.21875 56 50.046875 50.171875 
Q 54.890625 44.34375 54.890625 33.015625 
z
" id="DejaVuSans-104"/>
      <path d="M 41.109375 46.296875 
Q 39.59375 47.171875 37.8125 47.578125 
Q 36.03125 48 33.890625 48 
Q 26.265625 48 22.1875 43.046875 
Q 18.109375 38.09375 18.109375 28.8125 
L 18.109375 0 
L 9.078125 0 
L 9.078125 54.6875 
L 18.109375 54.6875 
L 18.109375 46.1875 
Q 20.953125 51.171875 25.484375 53.578125 
Q 30.03125 56 36.53125 56 
Q 37.453125 56 38.578125 55.875 
Q 39.703125 55.765625 41.0625 55.515625 
z
" id="DejaVuSans-114"/>
      <path d="M 56.203125 29.59375 
L 56.203125 25.203125 
L 14.890625 25.203125 
Q 15.484375 15.921875 20.484375 11.0625 
Q 25.484375 6.203125 34.421875 6.203125 
Q 39.59375 6.203125 44.453125 7.46875 
Q 49.3125 8.734375 54.109375 11.28125 
L 54.109375 2.78125 
Q 49.265625 0.734375 44.1875 -0.34375 
Q 39.109375 -1.421875 33.890625 -1.421875 
Q 20.796875 -1.421875 13.15625 6.1875 
Q 5.515625 13.8125 5.515625 26.8125 
Q 5.515625 40.234375 12.765625 48.109375 
Q 20.015625 56 32.328125 56 
Q 43.359375 56 49.78125 48.890625 
Q 56.203125 41.796875 56.203125 29.59375 
z
M 47.21875 32.234375 
Q 47.125 39.59375 43.09375 43.984375 
Q 39.0625 48.390625 32.421875 48.390625 
Q 24.90625 48.390625 20.390625 44.140625 
Q 15.875 39.890625 15.1875 32.171875 
z
" id="DejaVuSans-101"/>
      <path d="M 34.28125 27.484375 
Q 23.390625 27.484375 19.1875 25 
Q 14.984375 22.515625 14.984375 16.5 
Q 14.984375 11.71875 18.140625 8.90625 
Q 21.296875 6.109375 26.703125 6.109375 
Q 34.1875 6.109375 38.703125 11.40625 
Q 43.21875 16.703125 43.21875 25.484375 
L 43.21875 27.484375 
z
M 52.203125 31.203125 
L 52.203125 0 
L 43.21875 0 
L 43.21875 8.296875 
Q 40.140625 3.328125 35.546875 0.953125 
Q 30.953125 -1.421875 24.3125 -1.421875 
Q 15.921875 -1.421875 10.953125 3.296875 
Q 6 8.015625 6 15.921875 
Q 6 25.140625 12.171875 29.828125 
Q 18.359375 34.515625 30.609375 34.515625 
L 43.21875 34.515625 
L 43.21875 35.40625 
Q 43.21875 41.609375 39.140625 45 
Q 35.0625 48.390625 27.6875 48.390625 
Q 23 48.390625 18.546875 47.265625 
Q 14.109375 46.140625 10.015625 43.890625 
L 10.015625 52.203125 
Q 14.9375 54.109375 19.578125 55.046875 
Q 24.21875 56 28.609375 56 
Q 40.484375 56 46.34375 49.84375 
Q 52.203125 43.703125 52.203125 31.203125 
z
" id="DejaVuSans-97"/>
      <path d="M 45.40625 46.390625 
L 45.40625 75.984375 
L 54.390625 75.984375 
L 54.390625 0 
L 45.40625 0 
L 45.40625 8.203125 
Q 42.578125 3.328125 38.25 0.953125 
Q 33.9375 -1.421875 27.875 -1.421875 
Q 17.96875 -1.421875 11.734375 6.484375 
Q 5.515625 14.40625 5.515625 27.296875 
Q 5.515625 40.1875 11.734375 48.09375 
Q 17.96875 56 27.875 56 
Q 33.9375 56 38.25 53.625 
Q 42.578125 51.265625 45.40625 46.390625 
z
M 14.796875 27.296875 
Q 14.796875 17.390625 18.875 11.75 
Q 22.953125 6.109375 30.078125 6.109375 
Q 37.203125 6.109375 41.296875 11.75 
Q 45.40625 17.390625 45.40625 27.296875 
Q 45.40625 37.203125 41.296875 42.84375 
Q 37.203125 48.484375 30.078125 48.484375 
Q 22.953125 48.484375 18.875 42.84375 
Q 14.796875 37.203125 14.796875 27.296875 
z
" id="DejaVuSans-100"/>
      <path d="M 44.28125 53.078125 
L 44.28125 44.578125 
Q 40.484375 46.53125 36.375 47.5 
Q 32.28125 48.484375 27.875 48.484375 
Q 21.1875 48.484375 17.84375 46.4375 
Q 14.5 44.390625 14.5 40.28125 
Q 14.5 37.15625 16.890625 35.375 
Q 19.28125 33.59375 26.515625 31.984375 
L 29.59375 31.296875 
Q 39.15625 29.25 43.1875 25.515625 
Q 47.21875 21.78125 47.21875 15.09375 
Q 47.21875 7.46875 41.1875 3.015625 
Q 35.15625 -1.421875 24.609375 -1.421875 
Q 20.21875 -1.421875 15.453125 -0.5625 
Q 10.6875 0.296875 5.421875 2 
L 5.421875 11.28125 
Q 10.40625 8.6875 15.234375 7.390625 
Q 20.0625 6.109375 24.8125 6.109375 
Q 31.15625 6.109375 34.5625 8.28125 
Q 37.984375 10.453125 37.984375 14.40625 
Q 37.984375 18.0625 35.515625 20.015625 
Q 33.0625 21.96875 24.703125 23.78125 
L 21.578125 24.515625 
Q 13.234375 26.265625 9.515625 29.90625 
Q 5.8125 33.546875 5.8125 39.890625 
Q 5.8125 47.609375 11.28125 51.796875 
Q 16.75 56 26.8125 56 
Q 31.78125 56 36.171875 55.265625 
Q 40.578125 54.546875 44.28125 53.078125 
z
" id="DejaVuSans-115"/>
     </defs>
     <g transform="translate(217.168594 335.860562)scale(0.1 -0.1)">
      <use xlink:href="#DejaVuSans-116"/>
      <use x="39.208984" xlink:href="#DejaVuSans-104"/>
      <use x="102.587891" xlink:href="#DejaVuSans-114"/>
      <use x="141.451172" xlink:href="#DejaVuSans-101"/>
      <use x="202.974609" xlink:href="#DejaVuSans-97"/>
      <use x="264.253906" xlink:href="#DejaVuSans-100"/>
      <use x="327.730469" xlink:href="#DejaVuSans-115"/>
     </g>
    </g>
   </g>
   <g id="matplotlib.axis_2">
    <g id="ytick_1">
     <g id="line2d_47">
      <path clip-path="url(#p1e0893ff85)" d="M 57.6 269.509017 
L 414.72 269.509017 
" style="fill:none;stroke:#b0b0b0;stroke-dasharray:5.12,1.28,0.8,1.28;stroke-dashoffset:0;stroke-width:0.8;"/>
     </g>
     <g id="line2d_48">
      <defs>
       <path d="M 0 0 
L -3.5 0 
" id="m4e22ab6425" style="stroke:#000000;stroke-width:0.8;"/>
      </defs>
      <g>
       <use style="stroke:#000000;stroke-width:0.8;" x="57.6" xlink:href="#m4e22ab6425" y="269.509017"/>
      </g>
     </g>
     <g id="text_25">
      <!-- 1 -->
      <g transform="translate(44.2375 273.308236)scale(0.1 -0.1)">
       <use xlink:href="#DejaVuSans-49"/>
      </g>
     </g>
    </g>
    <g id="ytick_2">
     <g id="line2d_49">
      <path clip-path="url(#p1e0893ff85)" d="M 57.6 213.425783 
L 414.72 213.425783 
" style="fill:none;stroke:#b0b0b0;stroke-dasharray:5.12,1.28,0.8,1.28;stroke-dashoffset:0;stroke-width:0.8;"/>
     </g>
     <g id="line2d_50">
      <g>
       <use style="stroke:#000000;stroke-width:0.8;" x="57.6" xlink:href="#m4e22ab6425" y="213.425783"/>
      </g>
     </g>
     <g id="text_26">
      <!-- 2 -->
      <g transform="translate(44.2375 217.225002)scale(0.1 -0.1)">
       <use xlink:href="#DejaVuSans-50"/>
      </g>
     </g>
    </g>
    <g id="ytick_3">
     <g id="line2d_51">
      <path clip-path="url(#p1e0893ff85)" d="M 57.6 157.342548 
L 414.72 157.342548 
" style="fill:none;stroke:#b0b0b0;stroke-dasharray:5.12,1.28,0.8,1.28;stroke-dashoffset:0;stroke-width:0.8;"/>
     </g>
     <g id="line2d_52">
      <g>
       <use style="stroke:#000000;stroke-width:0.8;" x="57.6" xlink:href="#m4e22ab6425" y="157.342548"/>
      </g>
     </g>
     <g id="text_27">
      <!-- 3 -->
      <g transform="translate(44.2375 161.141767)scale(0.1 -0.1)">
       <use xlink:href="#DejaVuSans-51"/>
      </g>
     </g>
    </g>
    <g id="ytick_4">
     <g id="line2d_53">
      <path clip-path="url(#p1e0893ff85)" d="M 57.6 101.259313 
L 414.72 101.259313 
" style="fill:none;stroke:#b0b0b0;stroke-dasharray:5.12,1.28,0.8,1.28;stroke-dashoffset:0;stroke-width:0.8;"/>
     </g>
     <g id="line2d_54">
      <g>
       <use style="stroke:#000000;stroke-width:0.8;" x="57.6" xlink:href="#m4e22ab6425" y="101.259313"/>
      </g>
     </g>
     <g id="text_28">
      <!-- 4 -->
      <g transform="translate(44.2375 105.058532)scale(0.1 -0.1)">
       <use xlink:href="#DejaVuSans-52"/>
      </g>
     </g>
    </g>
    <g id="ytick_5">
     <g id="line2d_55">
      <path clip-path="url(#p1e0893ff85)" d="M 57.6 45.176079 
L 414.72 45.176079 
" style="fill:none;stroke:#b0b0b0;stroke-dasharray:5.12,1.28,0.8,1.28;stroke-dashoffset:0;stroke-width:0.8;"/>
     </g>
     <g id="line2d_56">
      <g>
       <use style="stroke:#000000;stroke-width:0.8;" x="57.6" xlink:href="#m4e22ab6425" y="45.176079"/>
      </g>
     </g>
     <g id="text_29">
      <!-- 5 -->
      <g transform="translate(44.2375 48.975298)scale(0.1 -0.1)">
       <use xlink:href="#DejaVuSans-53"/>
      </g>
     </g>
    </g>
    <g id="text_30">
     <!-- speed up -->
     <defs>
      <path d="M 18.109375 8.203125 
L 18.109375 -20.796875 
L 9.078125 -20.796875 
L 9.078125 54.6875 
L 18.109375 54.6875 
L 18.109375 46.390625 
Q 20.953125 51.265625 25.265625 53.625 
Q 29.59375 56 35.59375 56 
Q 45.5625 56 51.78125 48.09375 
Q 58.015625 40.1875 58.015625 27.296875 
Q 58.015625 14.40625 51.78125 6.484375 
Q 45.5625 -1.421875 35.59375 -1.421875 
Q 29.59375 -1.421875 25.265625 0.953125 
Q 20.953125 3.328125 18.109375 8.203125 
z
M 48.6875 27.296875 
Q 48.6875 37.203125 44.609375 42.84375 
Q 40.53125 48.484375 33.40625 48.484375 
Q 26.265625 48.484375 22.1875 42.84375 
Q 18.109375 37.203125 18.109375 27.296875 
Q 18.109375 17.390625 22.1875 11.75 
Q 26.265625 6.109375 33.40625 6.109375 
Q 40.53125 6.109375 44.609375 11.75 
Q 48.6875 17.390625 48.6875 27.296875 
z
" id="DejaVuSans-112"/>
      <path id="DejaVuSans-32"/>
      <path d="M 8.5 21.578125 
L 8.5 54.6875 
L 17.484375 54.6875 
L 17.484375 21.921875 
Q 17.484375 14.15625 20.5 10.265625 
Q 23.53125 6.390625 29.59375 6.390625 
Q 36.859375 6.390625 41.078125 11.03125 
Q 45.3125 15.671875 45.3125 23.6875 
L 45.3125 54.6875 
L 54.296875 54.6875 
L 54.296875 0 
L 45.3125 0 
L 45.3125 8.40625 
Q 42.046875 3.421875 37.71875 1 
Q 33.40625 -1.421875 27.6875 -1.421875 
Q 18.265625 -1.421875 13.375 4.4375 
Q 8.5 10.296875 8.5 21.578125 
z
M 31.109375 56 
z
" id="DejaVuSans-117"/>
     </defs>
     <g transform="translate(38.157812 197.566281)rotate(-90)scale(0.1 -0.1)">
      <use xlink:href="#DejaVuSans-115"/>
      <use x="52.099609" xlink:href="#DejaVuSans-112"/>
      <use x="115.576172" xlink:href="#DejaVuSans-101"/>
      <use x="177.099609" xlink:href="#DejaVuSans-101"/>
      <use x="238.623047" xlink:href="#DejaVuSans-100"/>
      <use x="302.099609" xlink:href="#DejaVuSans-32"/>
      <use x="333.886719" xlink:href="#DejaVuSans-117"/>
      <use x="397.265625" xlink:href="#DejaVuSans-112"/>
     </g>
    </g>
   </g>
   <g id="line2d_57">
    <path clip-path="url(#p1e0893ff85)" d="M 61.612584 294.314021 
L 65.625169 268.783254 
L 69.637753 246.852426 
L 73.650337 227.373744 
L 77.662921 208.553708 
L 81.675506 191.112395 
L 85.68809 178.667188 
L 89.700674 162.433783 
L 93.713258 153.415173 
L 97.725843 138.995375 
L 101.738427 133.011263 
L 105.751011 126.954526 
L 109.763596 115.590086 
L 113.77618 118.504476 
L 117.788764 110.410849 
L 121.801348 86.850537 
L 125.813933 82.045315 
L 129.826517 80.770955 
L 133.839101 82.495689 
L 137.851685 74.587394 
L 141.86427 76.351598 
L 145.876854 74.379674 
L 149.889438 80.112939 
L 153.902022 79.443662 
L 157.914607 83.415729 
L 161.927191 84.902715 
L 165.939775 86.488066 
L 169.95236 94.051839 
L 173.964944 90.632904 
L 177.977528 95.985065 
L 181.990112 98.028113 
L 186.002697 102.815574 
L 190.015281 104.086201 
L 194.027865 100.407756 
L 198.040449 124.676327 
L 202.053034 109.186606 
L 206.065618 116.055069 
L 210.078202 118.309785 
L 214.090787 125.74282 
L 218.103371 126.538599 
L 222.115955 130.791547 
L 226.128539 53.568 
L 230.141124 130.664646 
L 234.153708 69.717076 
L 238.166292 138.189006 
L 242.178876 79.230384 
L 246.191461 140.203761 
L 250.204045 79.703728 
L 254.216629 144.691222 
L 258.229213 76.386195 
L 262.241798 149.783932 
L 266.254382 74.256083 
L 270.266966 160.449301 
L 274.279551 80.873928 
L 278.292135 61.158794 
L 282.304719 63.052474 
L 286.317303 62.563436 
L 290.329888 76.062592 
L 294.342472 75.047766 
L 298.355056 71.488518 
L 302.36764 71.791287 
L 306.380225 81.1481 
L 310.392809 83.138204 
L 314.405393 76.841967 
L 318.417978 72.363033 
L 322.430562 90.336457 
L 326.443146 85.915327 
L 330.45573 77.708443 
L 334.468315 78.496051 
L 338.480899 89.127134 
L 342.493483 83.743826 
L 346.506067 84.361248 
L 350.518652 88.291287 
L 354.531236 89.111115 
L 358.54382 95.327097 
L 362.556404 95.006005 
L 366.568989 98.864806 
L 370.581573 95.875945 
L 374.594157 103.257779 
L 378.606742 90.815502 
L 382.619326 92.244467 
L 386.63191 100.783984 
L 390.644494 99.650696 
L 394.657079 101.354378 
L 398.669663 94.064636 
L 402.682247 106.970019 
L 406.694831 105.556821 
L 410.707416 98.113789 
" style="fill:none;stroke:#0000ff;stroke-dasharray:1.5,2.475;stroke-dashoffset:0;stroke-width:1.5;"/>
    <defs>
     <path d="M 0 1.5 
C 0.397805 1.5 0.77937 1.341951 1.06066 1.06066 
C 1.341951 0.77937 1.5 0.397805 1.5 0 
C 1.5 -0.397805 1.341951 -0.77937 1.06066 -1.06066 
C 0.77937 -1.341951 0.397805 -1.5 0 -1.5 
C -0.397805 -1.5 -0.77937 -1.341951 -1.06066 -1.06066 
C -1.341951 -0.77937 -1.5 -0.397805 -1.5 0 
C -1.5 0.397805 -1.341951 0.77937 -1.06066 1.06066 
C -0.77937 1.341951 -0.397805 1.5 0 1.5 
z
" id="mdd70015b7a" style="stroke:#0000ff;"/>
    </defs>
    <g clip-path="url(#p1e0893ff85)">
     <use style="fill:#0000ff;stroke:#0000ff;" x="61.612584" xlink:href="#mdd70015b7a" y="294.314021"/>
     <use style="fill:#0000ff;stroke:#0000ff;" x="65.625169" xlink:href="#mdd70015b7a" y="268.783254"/>
     <use style="fill:#0000ff;stroke:#0000ff;" x="69.637753" xlink:href="#mdd70015b7a" y="246.852426"/>
     <use style="fill:#0000ff;stroke:#0000ff;" x="73.650337" xlink:href="#mdd70015b7a" y="227.373744"/>
     <use style="fill:#0000ff;stroke:#0000ff;" x="77.662921" xlink:href="#mdd70015b7a" y="208.553708"/>
     <use style="fill:#0000ff;stroke:#0000ff;" x="81.675506" xlink:href="#mdd70015b7a" y="191.112395"/>
     <use style="fill:#0000ff;stroke:#0000ff;" x="85.68809" xlink:href="#mdd70015b7a" y="178.667188"/>
     <use style="fill:#0000ff;stroke:#0000ff;" x="89.700674" xlink:href="#mdd70015b7a" y="162.433783"/>
     <use style="fill:#0000ff;stroke:#0000ff;" x="93.713258" xlink:href="#mdd70015b7a" y="153.415173"/>
     <use style="fill:#0000ff;stroke:#0000ff;" x="97.725843" xlink:href="#mdd70015b7a" y="138.995375"/>
     <use style="fill:#0000ff;stroke:#0000ff;" x="101.738427" xlink:href="#mdd70015b7a" y="133.011263"/>
     <use style="fill:#0000ff;stroke:#0000ff;" x="105.751011" xlink:href="#mdd70015b7a" y="126.954526"/>
     <use style="fill:#0000ff;stroke:#0000ff;" x="109.763596" xlink:href="#mdd70015b7a" y="115.590086"/>
     <use style="fill:#0000ff;stroke:#0000ff;" x="113.77618" xlink:href="#mdd70015b7a" y="118.504476"/>
     <use style="fill:#0000ff;stroke:#0000ff;" x="117.788764" xlink:href="#mdd70015b7a" y="110.410849"/>
     <use style="fill:#0000ff;stroke:#0000ff;" x="121.801348" xlink:href="#mdd70015b7a" y="86.850537"/>
     <use style="fill:#0000ff;stroke:#0000ff;" x="125.813933" xlink:href="#mdd70015b7a" y="82.045315"/>
     <use style="fill:#0000ff;stroke:#0000ff;" x="129.826517" xlink:href="#mdd70015b7a" y="80.770955"/>
     <use style="fill:#0000ff;stroke:#0000ff;" x="133.839101" xlink:href="#mdd70015b7a" y="82.495689"/>
     <use style="fill:#0000ff;stroke:#0000ff;" x="137.851685" xlink:href="#mdd70015b7a" y="74.587394"/>
     <use style="fill:#0000ff;stroke:#0000ff;" x="141.86427" xlink:href="#mdd70015b7a" y="76.351598"/>
     <use style="fill:#0000ff;stroke:#0000ff;" x="145.876854" xlink:href="#mdd70015b7a" y="74.379674"/>
     <use style="fill:#0000ff;stroke:#0000ff;" x="149.889438" xlink:href="#mdd70015b7a" y="80.112939"/>
     <use style="fill:#0000ff;stroke:#0000ff;" x="153.902022" xlink:href="#mdd70015b7a" y="79.443662"/>
     <use style="fill:#0000ff;stroke:#0000ff;" x="157.914607" xlink:href="#mdd70015b7a" y="83.415729"/>
     <use style="fill:#0000ff;stroke:#0000ff;" x="161.927191" xlink:href="#mdd70015b7a" y="84.902715"/>
     <use style="fill:#0000ff;stroke:#0000ff;" x="165.939775" xlink:href="#mdd70015b7a" y="86.488066"/>
     <use style="fill:#0000ff;stroke:#0000ff;" x="169.95236" xlink:href="#mdd70015b7a" y="94.051839"/>
     <use style="fill:#0000ff;stroke:#0000ff;" x="173.964944" xlink:href="#mdd70015b7a" y="90.632904"/>
     <use style="fill:#0000ff;stroke:#0000ff;" x="177.977528" xlink:href="#mdd70015b7a" y="95.985065"/>
     <use style="fill:#0000ff;stroke:#0000ff;" x="181.990112" xlink:href="#mdd70015b7a" y="98.028113"/>
     <use style="fill:#0000ff;stroke:#0000ff;" x="186.002697" xlink:href="#mdd70015b7a" y="102.815574"/>
     <use style="fill:#0000ff;stroke:#0000ff;" x="190.015281" xlink:href="#mdd70015b7a" y="104.086201"/>
     <use style="fill:#0000ff;stroke:#0000ff;" x="194.027865" xlink:href="#mdd70015b7a" y="100.407756"/>
     <use style="fill:#0000ff;stroke:#0000ff;" x="198.040449" xlink:href="#mdd70015b7a" y="124.676327"/>
     <use style="fill:#0000ff;stroke:#0000ff;" x="202.053034" xlink:href="#mdd70015b7a" y="109.186606"/>
     <use style="fill:#0000ff;stroke:#0000ff;" x="206.065618" xlink:href="#mdd70015b7a" y="116.055069"/>
     <use style="fill:#0000ff;stroke:#0000ff;" x="210.078202" xlink:href="#mdd70015b7a" y="118.309785"/>
     <use style="fill:#0000ff;stroke:#0000ff;" x="214.090787" xlink:href="#mdd70015b7a" y="125.74282"/>
     <use style="fill:#0000ff;stroke:#0000ff;" x="218.103371" xlink:href="#mdd70015b7a" y="126.538599"/>
     <use style="fill:#0000ff;stroke:#0000ff;" x="222.115955" xlink:href="#mdd70015b7a" y="130.791547"/>
     <use style="fill:#0000ff;stroke:#0000ff;" x="226.128539" xlink:href="#mdd70015b7a" y="53.568"/>
     <use style="fill:#0000ff;stroke:#0000ff;" x="230.141124" xlink:href="#mdd70015b7a" y="130.664646"/>
     <use style="fill:#0000ff;stroke:#0000ff;" x="234.153708" xlink:href="#mdd70015b7a" y="69.717076"/>
     <use style="fill:#0000ff;stroke:#0000ff;" x="238.166292" xlink:href="#mdd70015b7a" y="138.189006"/>
     <use style="fill:#0000ff;stroke:#0000ff;" x="242.178876" xlink:href="#mdd70015b7a" y="79.230384"/>
     <use style="fill:#0000ff;stroke:#0000ff;" x="246.191461" xlink:href="#mdd70015b7a" y="140.203761"/>
     <use style="fill:#0000ff;stroke:#0000ff;" x="250.204045" xlink:href="#mdd70015b7a" y="79.703728"/>
     <use style="fill:#0000ff;stroke:#0000ff;" x="254.216629" xlink:href="#mdd70015b7a" y="144.691222"/>
     <use style="fill:#0000ff;stroke:#0000ff;" x="258.229213" xlink:href="#mdd70015b7a" y="76.386195"/>
     <use style="fill:#0000ff;stroke:#0000ff;" x="262.241798" xlink:href="#mdd70015b7a" y="149.783932"/>
     <use style="fill:#0000ff;stroke:#0000ff;" x="266.254382" xlink:href="#mdd70015b7a" y="74.256083"/>
     <use style="fill:#0000ff;stroke:#0000ff;" x="270.266966" xlink:href="#mdd70015b7a" y="160.449301"/>
     <use style="fill:#0000ff;stroke:#0000ff;" x="274.279551" xlink:href="#mdd70015b7a" y="80.873928"/>
     <use style="fill:#0000ff;stroke:#0000ff;" x="278.292135" xlink:href="#mdd70015b7a" y="61.158794"/>
     <use style="fill:#0000ff;stroke:#0000ff;" x="282.304719" xlink:href="#mdd70015b7a" y="63.052474"/>
     <use style="fill:#0000ff;stroke:#0000ff;" x="286.317303" xlink:href="#mdd70015b7a" y="62.563436"/>
     <use style="fill:#0000ff;stroke:#0000ff;" x="290.329888" xlink:href="#mdd70015b7a" y="76.062592"/>
     <use style="fill:#0000ff;stroke:#0000ff;" x="294.342472" xlink:href="#mdd70015b7a" y="75.047766"/>
     <use style="fill:#0000ff;stroke:#0000ff;" x="298.355056" xlink:href="#mdd70015b7a" y="71.488518"/>
     <use style="fill:#0000ff;stroke:#0000ff;" x="302.36764" xlink:href="#mdd70015b7a" y="71.791287"/>
     <use style="fill:#0000ff;stroke:#0000ff;" x="306.380225" xlink:href="#mdd70015b7a" y="81.1481"/>
     <use style="fill:#0000ff;stroke:#0000ff;" x="310.392809" xlink:href="#mdd70015b7a" y="83.138204"/>
     <use style="fill:#0000ff;stroke:#0000ff;" x="314.405393" xlink:href="#mdd70015b7a" y="76.841967"/>
     <use style="fill:#0000ff;stroke:#0000ff;" x="318.417978" xlink:href="#mdd70015b7a" y="72.363033"/>
     <use style="fill:#0000ff;stroke:#0000ff;" x="322.430562" xlink:href="#mdd70015b7a" y="90.336457"/>
     <use style="fill:#0000ff;stroke:#0000ff;" x="326.443146" xlink:href="#mdd70015b7a" y="85.915327"/>
     <use style="fill:#0000ff;stroke:#0000ff;" x="330.45573" xlink:href="#mdd70015b7a" y="77.708443"/>
     <use style="fill:#0000ff;stroke:#0000ff;" x="334.468315" xlink:href="#mdd70015b7a" y="78.496051"/>
     <use style="fill:#0000ff;stroke:#0000ff;" x="338.480899" xlink:href="#mdd70015b7a" y="89.127134"/>
     <use style="fill:#0000ff;stroke:#0000ff;" x="342.493483" xlink:href="#mdd70015b7a" y="83.743826"/>
     <use style="fill:#0000ff;stroke:#0000ff;" x="346.506067" xlink:href="#mdd70015b7a" y="84.361248"/>
     <use style="fill:#0000ff;stroke:#0000ff;" x="350.518652" xlink:href="#mdd70015b7a" y="88.291287"/>
     <use style="fill:#0000ff;stroke:#0000ff;" x="354.531236" xlink:href="#mdd70015b7a" y="89.111115"/>
     <use style="fill:#0000ff;stroke:#0000ff;" x="358.54382" xlink:href="#mdd70015b7a" y="95.327097"/>
     <use style="fill:#0000ff;stroke:#0000ff;" x="362.556404" xlink:href="#mdd70015b7a" y="95.006005"/>
     <use style="fill:#0000ff;stroke:#0000ff;" x="366.568989" xlink:href="#mdd70015b7a" y="98.864806"/>
     <use style="fill:#0000ff;stroke:#0000ff;" x="370.581573" xlink:href="#mdd70015b7a" y="95.875945"/>
     <use style="fill:#0000ff;stroke:#0000ff;" x="374.594157" xlink:href="#mdd70015b7a" y="103.257779"/>
     <use style="fill:#0000ff;stroke:#0000ff;" x="378.606742" xlink:href="#mdd70015b7a" y="90.815502"/>
     <use style="fill:#0000ff;stroke:#0000ff;" x="382.619326" xlink:href="#mdd70015b7a" y="92.244467"/>
     <use style="fill:#0000ff;stroke:#0000ff;" x="386.63191" xlink:href="#mdd70015b7a" y="100.783984"/>
     <use style="fill:#0000ff;stroke:#0000ff;" x="390.644494" xlink:href="#mdd70015b7a" y="99.650696"/>
     <use style="fill:#0000ff;stroke:#0000ff;" x="394.657079" xlink:href="#mdd70015b7a" y="101.354378"/>
     <use style="fill:#0000ff;stroke:#0000ff;" x="398.669663" xlink:href="#mdd70015b7a" y="94.064636"/>
     <use style="fill:#0000ff;stroke:#0000ff;" x="402.682247" xlink:href="#mdd70015b7a" y="106.970019"/>
     <use style="fill:#0000ff;stroke:#0000ff;" x="406.694831" xlink:href="#mdd70015b7a" y="105.556821"/>
     <use style="fill:#0000ff;stroke:#0000ff;" x="410.707416" xlink:href="#mdd70015b7a" y="98.113789"/>
    </g>
   </g>
   <g id="line2d_58">
    <path clip-path="url(#p1e0893ff85)" d="M 61.612584 295.488 
L 65.625169 271.028047 
L 69.637753 249.876956 
L 73.650337 233.420456 
L 77.662921 217.514402 
L 81.675506 202.163207 
L 85.68809 187.046178 
L 89.700674 173.169966 
L 93.713258 162.585931 
L 97.725843 154.61917 
L 101.738427 141.38554 
L 105.751011 134.220828 
L 109.763596 124.020737 
L 113.77618 122.037972 
L 117.788764 113.500288 
L 121.801348 108.487039 
L 125.813933 101.965109 
L 129.826517 97.85699 
L 133.839101 95.306196 
L 137.851685 96.175469 
L 141.86427 89.900124 
L 145.876854 93.199436 
L 149.889438 90.611201 
L 153.902022 94.421912 
L 157.914607 91.897896 
L 161.927191 104.406662 
L 165.939775 92.315117 
L 169.95236 96.304427 
L 173.964944 99.39671 
L 177.977528 103.146328 
L 181.990112 112.871398 
L 186.002697 108.386995 
L 190.015281 113.843292 
L 194.027865 108.716422 
L 198.040449 115.872709 
L 202.053034 122.873204 
L 206.065618 119.686532 
L 210.078202 124.737791 
L 214.090787 128.685107 
L 218.103371 133.966103 
L 222.115955 142.79156 
L 226.128539 80.089431 
L 230.141124 130.234486 
L 234.153708 96.324254 
L 238.166292 144.585503 
L 242.178876 98.591408 
L 246.191461 149.026872 
L 250.204045 102.822368 
L 254.216629 157.309919 
L 258.229213 98.203668 
L 262.241798 157.623528 
L 266.254382 111.319899 
L 270.266966 160.97336 
L 274.279551 108.944582 
L 278.292135 89.980411 
L 282.304719 88.89982 
L 286.317303 106.678807 
L 290.329888 100.205101 
L 294.342472 99.0835 
L 298.355056 145.420375 
L 302.36764 102.7623 
L 306.380225 107.82355 
L 310.392809 95.887271 
L 314.405393 108.986618 
L 318.417978 107.67962 
L 322.430562 103.526708 
L 326.443146 99.18988 
L 330.45573 104.657784 
L 334.468315 103.278444 
L 338.480899 108.794006 
L 342.493483 105.816874 
L 346.506067 105.962517 
L 350.518652 109.396528 
L 354.531236 105.794859 
L 358.54382 111.168994 
L 362.556404 112.76539 
L 366.568989 112.628632 
L 370.581573 180.869269 
L 374.594157 119.416337 
L 378.606742 113.873586 
L 382.619326 115.330806 
L 386.63191 126.217313 
L 390.644494 124.798635 
L 394.657079 151.501094 
L 398.669663 117.413024 
L 402.682247 115.651297 
L 406.694831 117.157992 
L 410.707416 118.348677 
" style="fill:none;stroke:#ff0000;stroke-dasharray:1.5,2.475;stroke-dashoffset:0;stroke-width:1.5;"/>
    <defs>
     <path d="M 0 1.5 
C 0.397805 1.5 0.77937 1.341951 1.06066 1.06066 
C 1.341951 0.77937 1.5 0.397805 1.5 0 
C 1.5 -0.397805 1.341951 -0.77937 1.06066 -1.06066 
C 0.77937 -1.341951 0.397805 -1.5 0 -1.5 
C -0.397805 -1.5 -0.77937 -1.341951 -1.06066 -1.06066 
C -1.341951 -0.77937 -1.5 -0.397805 -1.5 0 
C -1.5 0.397805 -1.341951 0.77937 -1.06066 1.06066 
C -0.77937 1.341951 -0.397805 1.5 0 1.5 
z
" id="m0284b0ac4f" style="stroke:#ff0000;"/>
    </defs>
    <g clip-path="url(#p1e0893ff85)">
     <use style="fill:#ff0000;stroke:#ff0000;" x="61.612584" xlink:href="#m0284b0ac4f" y="295.488"/>
     <use style="fill:#ff0000;stroke:#ff0000;" x="65.625169" xlink:href="#m0284b0ac4f" y="271.028047"/>
     <use style="fill:#ff0000;stroke:#ff0000;" x="69.637753" xlink:href="#m0284b0ac4f" y="249.876956"/>
     <use style="fill:#ff0000;stroke:#ff0000;" x="73.650337" xlink:href="#m0284b0ac4f" y="233.420456"/>
     <use style="fill:#ff0000;stroke:#ff0000;" x="77.662921" xlink:href="#m0284b0ac4f" y="217.514402"/>
     <use style="fill:#ff0000;stroke:#ff0000;" x="81.675506" xlink:href="#m0284b0ac4f" y="202.163207"/>
     <use style="fill:#ff0000;stroke:#ff0000;" x="85.68809" xlink:href="#m0284b0ac4f" y="187.046178"/>
     <use style="fill:#ff0000;stroke:#ff0000;" x="89.700674" xlink:href="#m0284b0ac4f" y="173.169966"/>
     <use style="fill:#ff0000;stroke:#ff0000;" x="93.713258" xlink:href="#m0284b0ac4f" y="162.585931"/>
     <use style="fill:#ff0000;stroke:#ff0000;" x="97.725843" xlink:href="#m0284b0ac4f" y="154.61917"/>
     <use style="fill:#ff0000;stroke:#ff0000;" x="101.738427" xlink:href="#m0284b0ac4f" y="141.38554"/>
     <use style="fill:#ff0000;stroke:#ff0000;" x="105.751011" xlink:href="#m0284b0ac4f" y="134.220828"/>
     <use style="fill:#ff0000;stroke:#ff0000;" x="109.763596" xlink:href="#m0284b0ac4f" y="124.020737"/>
     <use style="fill:#ff0000;stroke:#ff0000;" x="113.77618" xlink:href="#m0284b0ac4f" y="122.037972"/>
     <use style="fill:#ff0000;stroke:#ff0000;" x="117.788764" xlink:href="#m0284b0ac4f" y="113.500288"/>
     <use style="fill:#ff0000;stroke:#ff0000;" x="121.801348" xlink:href="#m0284b0ac4f" y="108.487039"/>
     <use style="fill:#ff0000;stroke:#ff0000;" x="125.813933" xlink:href="#m0284b0ac4f" y="101.965109"/>
     <use style="fill:#ff0000;stroke:#ff0000;" x="129.826517" xlink:href="#m0284b0ac4f" y="97.85699"/>
     <use style="fill:#ff0000;stroke:#ff0000;" x="133.839101" xlink:href="#m0284b0ac4f" y="95.306196"/>
     <use style="fill:#ff0000;stroke:#ff0000;" x="137.851685" xlink:href="#m0284b0ac4f" y="96.175469"/>
     <use style="fill:#ff0000;stroke:#ff0000;" x="141.86427" xlink:href="#m0284b0ac4f" y="89.900124"/>
     <use style="fill:#ff0000;stroke:#ff0000;" x="145.876854" xlink:href="#m0284b0ac4f" y="93.199436"/>
     <use style="fill:#ff0000;stroke:#ff0000;" x="149.889438" xlink:href="#m0284b0ac4f" y="90.611201"/>
     <use style="fill:#ff0000;stroke:#ff0000;" x="153.902022" xlink:href="#m0284b0ac4f" y="94.421912"/>
     <use style="fill:#ff0000;stroke:#ff0000;" x="157.914607" xlink:href="#m0284b0ac4f" y="91.897896"/>
     <use style="fill:#ff0000;stroke:#ff0000;" x="161.927191" xlink:href="#m0284b0ac4f" y="104.406662"/>
     <use style="fill:#ff0000;stroke:#ff0000;" x="165.939775" xlink:href="#m0284b0ac4f" y="92.315117"/>
     <use style="fill:#ff0000;stroke:#ff0000;" x="169.95236" xlink:href="#m0284b0ac4f" y="96.304427"/>
     <use style="fill:#ff0000;stroke:#ff0000;" x="173.964944" xlink:href="#m0284b0ac4f" y="99.39671"/>
     <use style="fill:#ff0000;stroke:#ff0000;" x="177.977528" xlink:href="#m0284b0ac4f" y="103.146328"/>
     <use style="fill:#ff0000;stroke:#ff0000;" x="181.990112" xlink:href="#m0284b0ac4f" y="112.871398"/>
     <use style="fill:#ff0000;stroke:#ff0000;" x="186.002697" xlink:href="#m0284b0ac4f" y="108.386995"/>
     <use style="fill:#ff0000;stroke:#ff0000;" x="190.015281" xlink:href="#m0284b0ac4f" y="113.843292"/>
     <use style="fill:#ff0000;stroke:#ff0000;" x="194.027865" xlink:href="#m0284b0ac4f" y="108.716422"/>
     <use style="fill:#ff0000;stroke:#ff0000;" x="198.040449" xlink:href="#m0284b0ac4f" y="115.872709"/>
     <use style="fill:#ff0000;stroke:#ff0000;" x="202.053034" xlink:href="#m0284b0ac4f" y="122.873204"/>
     <use style="fill:#ff0000;stroke:#ff0000;" x="206.065618" xlink:href="#m0284b0ac4f" y="119.686532"/>
     <use style="fill:#ff0000;stroke:#ff0000;" x="210.078202" xlink:href="#m0284b0ac4f" y="124.737791"/>
     <use style="fill:#ff0000;stroke:#ff0000;" x="214.090787" xlink:href="#m0284b0ac4f" y="128.685107"/>
     <use style="fill:#ff0000;stroke:#ff0000;" x="218.103371" xlink:href="#m0284b0ac4f" y="133.966103"/>
     <use style="fill:#ff0000;stroke:#ff0000;" x="222.115955" xlink:href="#m0284b0ac4f" y="142.79156"/>
     <use style="fill:#ff0000;stroke:#ff0000;" x="226.128539" xlink:href="#m0284b0ac4f" y="80.089431"/>
     <use style="fill:#ff0000;stroke:#ff0000;" x="230.141124" xlink:href="#m0284b0ac4f" y="130.234486"/>
     <use style="fill:#ff0000;stroke:#ff0000;" x="234.153708" xlink:href="#m0284b0ac4f" y="96.324254"/>
     <use style="fill:#ff0000;stroke:#ff0000;" x="238.166292" xlink:href="#m0284b0ac4f" y="144.585503"/>
     <use style="fill:#ff0000;stroke:#ff0000;" x="242.178876" xlink:href="#m0284b0ac4f" y="98.591408"/>
     <use style="fill:#ff0000;stroke:#ff0000;" x="246.191461" xlink:href="#m0284b0ac4f" y="149.026872"/>
     <use style="fill:#ff0000;stroke:#ff0000;" x="250.204045" xlink:href="#m0284b0ac4f" y="102.822368"/>
     <use style="fill:#ff0000;stroke:#ff0000;" x="254.216629" xlink:href="#m0284b0ac4f" y="157.309919"/>
     <use style="fill:#ff0000;stroke:#ff0000;" x="258.229213" xlink:href="#m0284b0ac4f" y="98.203668"/>
     <use style="fill:#ff0000;stroke:#ff0000;" x="262.241798" xlink:href="#m0284b0ac4f" y="157.623528"/>
     <use style="fill:#ff0000;stroke:#ff0000;" x="266.254382" xlink:href="#m0284b0ac4f" y="111.319899"/>
     <use style="fill:#ff0000;stroke:#ff0000;" x="270.266966" xlink:href="#m0284b0ac4f" y="160.97336"/>
     <use style="fill:#ff0000;stroke:#ff0000;" x="274.279551" xlink:href="#m0284b0ac4f" y="108.944582"/>
     <use style="fill:#ff0000;stroke:#ff0000;" x="278.292135" xlink:href="#m0284b0ac4f" y="89.980411"/>
     <use style="fill:#ff0000;stroke:#ff0000;" x="282.304719" xlink:href="#m0284b0ac4f" y="88.89982"/>
     <use style="fill:#ff0000;stroke:#ff0000;" x="286.317303" xlink:href="#m0284b0ac4f" y="106.678807"/>
     <use style="fill:#ff0000;stroke:#ff0000;" x="290.329888" xlink:href="#m0284b0ac4f" y="100.205101"/>
     <use style="fill:#ff0000;stroke:#ff0000;" x="294.342472" xlink:href="#m0284b0ac4f" y="99.0835"/>
     <use style="fill:#ff0000;stroke:#ff0000;" x="298.355056" xlink:href="#m0284b0ac4f" y="145.420375"/>
     <use style="fill:#ff0000;stroke:#ff0000;" x="302.36764" xlink:href="#m0284b0ac4f" y="102.7623"/>
     <use style="fill:#ff0000;stroke:#ff0000;" x="306.380225" xlink:href="#m0284b0ac4f" y="107.82355"/>
     <use style="fill:#ff0000;stroke:#ff0000;" x="310.392809" xlink:href="#m0284b0ac4f" y="95.887271"/>
     <use style="fill:#ff0000;stroke:#ff0000;" x="314.405393" xlink:href="#m0284b0ac4f" y="108.986618"/>
     <use style="fill:#ff0000;stroke:#ff0000;" x="318.417978" xlink:href="#m0284b0ac4f" y="107.67962"/>
     <use style="fill:#ff0000;stroke:#ff0000;" x="322.430562" xlink:href="#m0284b0ac4f" y="103.526708"/>
     <use style="fill:#ff0000;stroke:#ff0000;" x="326.443146" xlink:href="#m0284b0ac4f" y="99.18988"/>
     <use style="fill:#ff0000;stroke:#ff0000;" x="330.45573" xlink:href="#m0284b0ac4f" y="104.657784"/>
     <use style="fill:#ff0000;stroke:#ff0000;" x="334.468315" xlink:href="#m0284b0ac4f" y="103.278444"/>
     <use style="fill:#ff0000;stroke:#ff0000;" x="338.480899" xlink:href="#m0284b0ac4f" y="108.794006"/>
     <use style="fill:#ff0000;stroke:#ff0000;" x="342.493483" xlink:href="#m0284b0ac4f" y="105.816874"/>
     <use style="fill:#ff0000;stroke:#ff0000;" x="346.506067" xlink:href="#m0284b0ac4f" y="105.962517"/>
     <use style="fill:#ff0000;stroke:#ff0000;" x="350.518652" xlink:href="#m0284b0ac4f" y="109.396528"/>
     <use style="fill:#ff0000;stroke:#ff0000;" x="354.531236" xlink:href="#m0284b0ac4f" y="105.794859"/>
     <use style="fill:#ff0000;stroke:#ff0000;" x="358.54382" xlink:href="#m0284b0ac4f" y="111.168994"/>
     <use style="fill:#ff0000;stroke:#ff0000;" x="362.556404" xlink:href="#m0284b0ac4f" y="112.76539"/>
     <use style="fill:#ff0000;stroke:#ff0000;" x="366.568989" xlink:href="#m0284b0ac4f" y="112.628632"/>
     <use style="fill:#ff0000;stroke:#ff0000;" x="370.581573" xlink:href="#m0284b0ac4f" y="180.869269"/>
     <use style="fill:#ff0000;stroke:#ff0000;" x="374.594157" xlink:href="#m0284b0ac4f" y="119.416337"/>
     <use style="fill:#ff0000;stroke:#ff0000;" x="378.606742" xlink:href="#m0284b0ac4f" y="113.873586"/>
     <use style="fill:#ff0000;stroke:#ff0000;" x="382.619326" xlink:href="#m0284b0ac4f" y="115.330806"/>
     <use style="fill:#ff0000;stroke:#ff0000;" x="386.63191" xlink:href="#m0284b0ac4f" y="126.217313"/>
     <use style="fill:#ff0000;stroke:#ff0000;" x="390.644494" xlink:href="#m0284b0ac4f" y="124.798635"/>
     <use style="fill:#ff0000;stroke:#ff0000;" x="394.657079" xlink:href="#m0284b0ac4f" y="151.501094"/>
     <use style="fill:#ff0000;stroke:#ff0000;" x="398.669663" xlink:href="#m0284b0ac4f" y="117.413024"/>
     <use style="fill:#ff0000;stroke:#ff0000;" x="402.682247" xlink:href="#m0284b0ac4f" y="115.651297"/>
     <use style="fill:#ff0000;stroke:#ff0000;" x="406.694831" xlink:href="#m0284b0ac4f" y="117.157992"/>
     <use style="fill:#ff0000;stroke:#ff0000;" x="410.707416" xlink:href="#m0284b0ac4f" y="118.348677"/>
    </g>
   </g>
   <g id="line2d_59">
    <path clip-path="url(#p1e0893ff85)" d="M 61.612584 294.901011 
L 65.625169 269.90565 
L 69.637753 248.364691 
L 73.650337 230.3971 
L 77.662921 213.034055 
L 81.675506 196.637801 
L 85.68809 182.856683 
L 89.700674 167.801874 
L 93.713258 158.000552 
L 97.725843 146.807272 
L 101.738427 137.198402 
L 105.751011 130.587677 
L 109.763596 119.805412 
L 113.77618 120.271224 
L 117.788764 111.955568 
L 121.801348 97.668788 
L 125.813933 92.005212 
L 129.826517 89.313973 
L 133.839101 88.900942 
L 137.851685 85.381432 
L 141.86427 83.125861 
L 145.876854 83.789555 
L 149.889438 85.36207 
L 153.902022 86.932787 
L 157.914607 87.656812 
L 161.927191 94.654688 
L 165.939775 89.401592 
L 169.95236 95.178133 
L 173.964944 95.014807 
L 177.977528 99.565696 
L 181.990112 105.449755 
L 186.002697 105.601285 
L 190.015281 108.964746 
L 194.027865 104.562089 
L 198.040449 120.274518 
L 202.053034 116.029905 
L 206.065618 117.870801 
L 210.078202 121.523788 
L 214.090787 127.213964 
L 218.103371 130.252351 
L 222.115955 136.791554 
L 226.128539 66.828716 
L 230.141124 130.449566 
L 234.153708 83.020665 
L 238.166292 141.387254 
L 242.178876 88.910896 
L 246.191461 144.615317 
L 250.204045 91.263048 
L 254.216629 151.00057 
L 258.229213 87.294931 
L 262.241798 153.70373 
L 266.254382 92.787991 
L 270.266966 160.71133 
L 274.279551 94.909255 
L 278.292135 75.569603 
L 282.304719 75.976147 
L 286.317303 84.621121 
L 290.329888 88.133846 
L 294.342472 87.065633 
L 298.355056 108.454447 
L 302.36764 87.276794 
L 306.380225 94.485825 
L 310.392809 89.512737 
L 314.405393 92.914293 
L 318.417978 90.021326 
L 322.430562 96.931583 
L 326.443146 92.552603 
L 330.45573 91.183114 
L 334.468315 90.887247 
L 338.480899 98.96057 
L 342.493483 94.78035 
L 346.506067 95.161882 
L 350.518652 98.843908 
L 354.531236 97.452987 
L 358.54382 103.248046 
L 362.556404 103.885697 
L 366.568989 105.746719 
L 370.581573 138.372607 
L 374.594157 111.337058 
L 378.606742 102.344544 
L 382.619326 103.787637 
L 386.63191 113.500649 
L 390.644494 112.224665 
L 394.657079 126.427736 
L 398.669663 105.73883 
L 402.682247 111.310658 
L 406.694831 111.357407 
L 410.707416 108.231233 
" style="fill:none;stroke:#008000;stroke-dasharray:1.5,2.475;stroke-dashoffset:0;stroke-width:1.5;"/>
    <defs>
     <path d="M 0 1.5 
C 0.397805 1.5 0.77937 1.341951 1.06066 1.06066 
C 1.341951 0.77937 1.5 0.397805 1.5 0 
C 1.5 -0.397805 1.341951 -0.77937 1.06066 -1.06066 
C 0.77937 -1.341951 0.397805 -1.5 0 -1.5 
C -0.397805 -1.5 -0.77937 -1.341951 -1.06066 -1.06066 
C -1.341951 -0.77937 -1.5 -0.397805 -1.5 0 
C -1.5 0.397805 -1.341951 0.77937 -1.06066 1.06066 
C -0.77937 1.341951 -0.397805 1.5 0 1.5 
z
" id="me1836d4859" style="stroke:#008000;"/>
    </defs>
    <g clip-path="url(#p1e0893ff85)">
     <use style="fill:#008000;stroke:#008000;" x="61.612584" xlink:href="#me1836d4859" y="294.901011"/>
     <use style="fill:#008000;stroke:#008000;" x="65.625169" xlink:href="#me1836d4859" y="269.90565"/>
     <use style="fill:#008000;stroke:#008000;" x="69.637753" xlink:href="#me1836d4859" y="248.364691"/>
     <use style="fill:#008000;stroke:#008000;" x="73.650337" xlink:href="#me1836d4859" y="230.3971"/>
     <use style="fill:#008000;stroke:#008000;" x="77.662921" xlink:href="#me1836d4859" y="213.034055"/>
     <use style="fill:#008000;stroke:#008000;" x="81.675506" xlink:href="#me1836d4859" y="196.637801"/>
     <use style="fill:#008000;stroke:#008000;" x="85.68809" xlink:href="#me1836d4859" y="182.856683"/>
     <use style="fill:#008000;stroke:#008000;" x="89.700674" xlink:href="#me1836d4859" y="167.801874"/>
     <use style="fill:#008000;stroke:#008000;" x="93.713258" xlink:href="#me1836d4859" y="158.000552"/>
     <use style="fill:#008000;stroke:#008000;" x="97.725843" xlink:href="#me1836d4859" y="146.807272"/>
     <use style="fill:#008000;stroke:#008000;" x="101.738427" xlink:href="#me1836d4859" y="137.198402"/>
     <use style="fill:#008000;stroke:#008000;" x="105.751011" xlink:href="#me1836d4859" y="130.587677"/>
     <use style="fill:#008000;stroke:#008000;" x="109.763596" xlink:href="#me1836d4859" y="119.805412"/>
     <use style="fill:#008000;stroke:#008000;" x="113.77618" xlink:href="#me1836d4859" y="120.271224"/>
     <use style="fill:#008000;stroke:#008000;" x="117.788764" xlink:href="#me1836d4859" y="111.955568"/>
     <use style="fill:#008000;stroke:#008000;" x="121.801348" xlink:href="#me1836d4859" y="97.668788"/>
     <use style="fill:#008000;stroke:#008000;" x="125.813933" xlink:href="#me1836d4859" y="92.005212"/>
     <use style="fill:#008000;stroke:#008000;" x="129.826517" xlink:href="#me1836d4859" y="89.313973"/>
     <use style="fill:#008000;stroke:#008000;" x="133.839101" xlink:href="#me1836d4859" y="88.900942"/>
     <use style="fill:#008000;stroke:#008000;" x="137.851685" xlink:href="#me1836d4859" y="85.381432"/>
     <use style="fill:#008000;stroke:#008000;" x="141.86427" xlink:href="#me1836d4859" y="83.125861"/>
     <use style="fill:#008000;stroke:#008000;" x="145.876854" xlink:href="#me1836d4859" y="83.789555"/>
     <use style="fill:#008000;stroke:#008000;" x="149.889438" xlink:href="#me1836d4859" y="85.36207"/>
     <use style="fill:#008000;stroke:#008000;" x="153.902022" xlink:href="#me1836d4859" y="86.932787"/>
     <use style="fill:#008000;stroke:#008000;" x="157.914607" xlink:href="#me1836d4859" y="87.656812"/>
     <use style="fill:#008000;stroke:#008000;" x="161.927191" xlink:href="#me1836d4859" y="94.654688"/>
     <use style="fill:#008000;stroke:#008000;" x="165.939775" xlink:href="#me1836d4859" y="89.401592"/>
     <use style="fill:#008000;stroke:#008000;" x="169.95236" xlink:href="#me1836d4859" y="95.178133"/>
     <use style="fill:#008000;stroke:#008000;" x="173.964944" xlink:href="#me1836d4859" y="95.014807"/>
     <use style="fill:#008000;stroke:#008000;" x="177.977528" xlink:href="#me1836d4859" y="99.565696"/>
     <use style="fill:#008000;stroke:#008000;" x="181.990112" xlink:href="#me1836d4859" y="105.449755"/>
     <use style="fill:#008000;stroke:#008000;" x="186.002697" xlink:href="#me1836d4859" y="105.601285"/>
     <use style="fill:#008000;stroke:#008000;" x="190.015281" xlink:href="#me1836d4859" y="108.964746"/>
     <use style="fill:#008000;stroke:#008000;" x="194.027865" xlink:href="#me1836d4859" y="104.562089"/>
     <use style="fill:#008000;stroke:#008000;" x="198.040449" xlink:href="#me1836d4859" y="120.274518"/>
     <use style="fill:#008000;stroke:#008000;" x="202.053034" xlink:href="#me1836d4859" y="116.029905"/>
     <use style="fill:#008000;stroke:#008000;" x="206.065618" xlink:href="#me1836d4859" y="117.870801"/>
     <use style="fill:#008000;stroke:#008000;" x="210.078202" xlink:href="#me1836d4859" y="121.523788"/>
     <use style="fill:#008000;stroke:#008000;" x="214.090787" xlink:href="#me1836d4859" y="127.213964"/>
     <use style="fill:#008000;stroke:#008000;" x="218.103371" xlink:href="#me1836d4859" y="130.252351"/>
     <use style="fill:#008000;stroke:#008000;" x="222.115955" xlink:href="#me1836d4859" y="136.791554"/>
     <use style="fill:#008000;stroke:#008000;" x="226.128539" xlink:href="#me1836d4859" y="66.828716"/>
     <use style="fill:#008000;stroke:#008000;" x="230.141124" xlink:href="#me1836d4859" y="130.449566"/>
     <use style="fill:#008000;stroke:#008000;" x="234.153708" xlink:href="#me1836d4859" y="83.020665"/>
     <use style="fill:#008000;stroke:#008000;" x="238.166292" xlink:href="#me1836d4859" y="141.387254"/>
     <use style="fill:#008000;stroke:#008000;" x="242.178876" xlink:href="#me1836d4859" y="88.910896"/>
     <use style="fill:#008000;stroke:#008000;" x="246.191461" xlink:href="#me1836d4859" y="144.615317"/>
     <use style="fill:#008000;stroke:#008000;" x="250.204045" xlink:href="#me1836d4859" y="91.263048"/>
     <use style="fill:#008000;stroke:#008000;" x="254.216629" xlink:href="#me1836d4859" y="151.00057"/>
     <use style="fill:#008000;stroke:#008000;" x="258.229213" xlink:href="#me1836d4859" y="87.294931"/>
     <use style="fill:#008000;stroke:#008000;" x="262.241798" xlink:href="#me1836d4859" y="153.70373"/>
     <use style="fill:#008000;stroke:#008000;" x="266.254382" xlink:href="#me1836d4859" y="92.787991"/>
     <use style="fill:#008000;stroke:#008000;" x="270.266966" xlink:href="#me1836d4859" y="160.71133"/>
     <use style="fill:#008000;stroke:#008000;" x="274.279551" xlink:href="#me1836d4859" y="94.909255"/>
     <use style="fill:#008000;stroke:#008000;" x="278.292135" xlink:href="#me1836d4859" y="75.569603"/>
     <use style="fill:#008000;stroke:#008000;" x="282.304719" xlink:href="#me1836d4859" y="75.976147"/>
     <use style="fill:#008000;stroke:#008000;" x="286.317303" xlink:href="#me1836d4859" y="84.621121"/>
     <use style="fill:#008000;stroke:#008000;" x="290.329888" xlink:href="#me1836d4859" y="88.133846"/>
     <use style="fill:#008000;stroke:#008000;" x="294.342472" xlink:href="#me1836d4859" y="87.065633"/>
     <use style="fill:#008000;stroke:#008000;" x="298.355056" xlink:href="#me1836d4859" y="108.454447"/>
     <use style="fill:#008000;stroke:#008000;" x="302.36764" xlink:href="#me1836d4859" y="87.276794"/>
     <use style="fill:#008000;stroke:#008000;" x="306.380225" xlink:href="#me1836d4859" y="94.485825"/>
     <use style="fill:#008000;stroke:#008000;" x="310.392809" xlink:href="#me1836d4859" y="89.512737"/>
     <use style="fill:#008000;stroke:#008000;" x="314.405393" xlink:href="#me1836d4859" y="92.914293"/>
     <use style="fill:#008000;stroke:#008000;" x="318.417978" xlink:href="#me1836d4859" y="90.021326"/>
     <use style="fill:#008000;stroke:#008000;" x="322.430562" xlink:href="#me1836d4859" y="96.931583"/>
     <use style="fill:#008000;stroke:#008000;" x="326.443146" xlink:href="#me1836d4859" y="92.552603"/>
     <use style="fill:#008000;stroke:#008000;" x="330.45573" xlink:href="#me1836d4859" y="91.183114"/>
     <use style="fill:#008000;stroke:#008000;" x="334.468315" xlink:href="#me1836d4859" y="90.887247"/>
     <use style="fill:#008000;stroke:#008000;" x="338.480899" xlink:href="#me1836d4859" y="98.96057"/>
     <use style="fill:#008000;stroke:#008000;" x="342.493483" xlink:href="#me1836d4859" y="94.78035"/>
     <use style="fill:#008000;stroke:#008000;" x="346.506067" xlink:href="#me1836d4859" y="95.161882"/>
     <use style="fill:#008000;stroke:#008000;" x="350.518652" xlink:href="#me1836d4859" y="98.843908"/>
     <use style="fill:#008000;stroke:#008000;" x="354.531236" xlink:href="#me1836d4859" y="97.452987"/>
     <use style="fill:#008000;stroke:#008000;" x="358.54382" xlink:href="#me1836d4859" y="103.248046"/>
     <use style="fill:#008000;stroke:#008000;" x="362.556404" xlink:href="#me1836d4859" y="103.885697"/>
     <use style="fill:#008000;stroke:#008000;" x="366.568989" xlink:href="#me1836d4859" y="105.746719"/>
     <use style="fill:#008000;stroke:#008000;" x="370.581573" xlink:href="#me1836d4859" y="138.372607"/>
     <use style="fill:#008000;stroke:#008000;" x="374.594157" xlink:href="#me1836d4859" y="111.337058"/>
     <use style="fill:#008000;stroke:#008000;" x="378.606742" xlink:href="#me1836d4859" y="102.344544"/>
     <use style="fill:#008000;stroke:#008000;" x="382.619326" xlink:href="#me1836d4859" y="103.787637"/>
     <use style="fill:#008000;stroke:#008000;" x="386.63191" xlink:href="#me1836d4859" y="113.500649"/>
     <use style="fill:#008000;stroke:#008000;" x="390.644494" xlink:href="#me1836d4859" y="112.224665"/>
     <use style="fill:#008000;stroke:#008000;" x="394.657079" xlink:href="#me1836d4859" y="126.427736"/>
     <use style="fill:#008000;stroke:#008000;" x="398.669663" xlink:href="#me1836d4859" y="105.73883"/>
     <use style="fill:#008000;stroke:#008000;" x="402.682247" xlink:href="#me1836d4859" y="111.310658"/>
     <use style="fill:#008000;stroke:#008000;" x="406.694831" xlink:href="#me1836d4859" y="111.357407"/>
     <use style="fill:#008000;stroke:#008000;" x="410.707416" xlink:href="#me1836d4859" y="108.231233"/>
    </g>
   </g>
   <g id="patch_3">
    <path d="M 57.6 307.584 
L 57.6 41.472 
" style="fill:none;stroke:#000000;stroke-linecap:square;stroke-linejoin:miter;stroke-width:0.8;"/>
   </g>
   <g id="patch_4">
    <path d="M 414.72 307.584 
L 414.72 41.472 
" style="fill:none;stroke:#000000;stroke-linecap:square;stroke-linejoin:miter;stroke-width:0.8;"/>
   </g>
   <g id="patch_5">
    <path d="M 57.6 307.584 
L 414.72 307.584 
" style="fill:none;stroke:#000000;stroke-linecap:square;stroke-linejoin:miter;stroke-width:0.8;"/>
   </g>
   <g id="patch_6">
    <path d="M 57.6 41.472 
L 414.72 41.472 
" style="fill:none;stroke:#000000;stroke-linecap:square;stroke-linejoin:miter;stroke-width:0.8;"/>
   </g>
   <g id="text_31">
    <!-- radix sort 4 on ASIC_680k -->
    <defs>
     <path d="M 9.421875 54.6875 
L 18.40625 54.6875 
L 18.40625 0 
L 9.421875 0 
z
M 9.421875 75.984375 
L 18.40625 75.984375 
L 18.40625 64.59375 
L 9.421875 64.59375 
z
" id="DejaVuSans-105"/>
     <path d="M 54.890625 54.6875 
L 35.109375 28.078125 
L 55.90625 0 
L 45.3125 0 
L 29.390625 21.484375 
L 13.484375 0 
L 2.875 0 
L 24.125 28.609375 
L 4.6875 54.6875 
L 15.28125 54.6875 
L 29.78125 35.203125 
L 44.28125 54.6875 
z
" id="DejaVuSans-120"/>
     <path d="M 30.609375 48.390625 
Q 23.390625 48.390625 19.1875 42.75 
Q 14.984375 37.109375 14.984375 27.296875 
Q 14.984375 17.484375 19.15625 11.84375 
Q 23.34375 6.203125 30.609375 6.203125 
Q 37.796875 6.203125 41.984375 11.859375 
Q 46.1875 17.53125 46.1875 27.296875 
Q 46.1875 37.015625 41.984375 42.703125 
Q 37.796875 48.390625 30.609375 48.390625 
z
M 30.609375 56 
Q 42.328125 56 49.015625 48.375 
Q 55.71875 40.765625 55.71875 27.296875 
Q 55.71875 13.875 49.015625 6.21875 
Q 42.328125 -1.421875 30.609375 -1.421875 
Q 18.84375 -1.421875 12.171875 6.21875 
Q 5.515625 13.875 5.515625 27.296875 
Q 5.515625 40.765625 12.171875 48.375 
Q 18.84375 56 30.609375 56 
z
" id="DejaVuSans-111"/>
     <path d="M 54.890625 33.015625 
L 54.890625 0 
L 45.90625 0 
L 45.90625 32.71875 
Q 45.90625 40.484375 42.875 44.328125 
Q 39.84375 48.1875 33.796875 48.1875 
Q 26.515625 48.1875 22.3125 43.546875 
Q 18.109375 38.921875 18.109375 30.90625 
L 18.109375 0 
L 9.078125 0 
L 9.078125 54.6875 
L 18.109375 54.6875 
L 18.109375 46.1875 
Q 21.34375 51.125 25.703125 53.5625 
Q 30.078125 56 35.796875 56 
Q 45.21875 56 50.046875 50.171875 
Q 54.890625 44.34375 54.890625 33.015625 
z
" id="DejaVuSans-110"/>
     <path d="M 34.1875 63.1875 
L 20.796875 26.90625 
L 47.609375 26.90625 
z
M 28.609375 72.90625 
L 39.796875 72.90625 
L 67.578125 0 
L 57.328125 0 
L 50.6875 18.703125 
L 17.828125 18.703125 
L 11.1875 0 
L 0.78125 0 
z
" id="DejaVuSans-65"/>
     <path d="M 53.515625 70.515625 
L 53.515625 60.890625 
Q 47.90625 63.578125 42.921875 64.890625 
Q 37.9375 66.21875 33.296875 66.21875 
Q 25.25 66.21875 20.875 63.09375 
Q 16.5 59.96875 16.5 54.203125 
Q 16.5 49.359375 19.40625 46.890625 
Q 22.3125 44.4375 30.421875 42.921875 
L 36.375 41.703125 
Q 47.40625 39.59375 52.65625 34.296875 
Q 57.90625 29 57.90625 20.125 
Q 57.90625 9.515625 50.796875 4.046875 
Q 43.703125 -1.421875 29.984375 -1.421875 
Q 24.8125 -1.421875 18.96875 -0.25 
Q 13.140625 0.921875 6.890625 3.21875 
L 6.890625 13.375 
Q 12.890625 10.015625 18.65625 8.296875 
Q 24.421875 6.59375 29.984375 6.59375 
Q 38.421875 6.59375 43.015625 9.90625 
Q 47.609375 13.234375 47.609375 19.390625 
Q 47.609375 24.75 44.3125 27.78125 
Q 41.015625 30.8125 33.5 32.328125 
L 27.484375 33.5 
Q 16.453125 35.6875 11.515625 40.375 
Q 6.59375 45.0625 6.59375 53.421875 
Q 6.59375 63.09375 13.40625 68.65625 
Q 20.21875 74.21875 32.171875 74.21875 
Q 37.3125 74.21875 42.625 73.28125 
Q 47.953125 72.359375 53.515625 70.515625 
z
" id="DejaVuSans-83"/>
     <path d="M 9.8125 72.90625 
L 19.671875 72.90625 
L 19.671875 0 
L 9.8125 0 
z
" id="DejaVuSans-73"/>
     <path d="M 64.40625 67.28125 
L 64.40625 56.890625 
Q 59.421875 61.53125 53.78125 63.8125 
Q 48.140625 66.109375 41.796875 66.109375 
Q 29.296875 66.109375 22.65625 58.46875 
Q 16.015625 50.828125 16.015625 36.375 
Q 16.015625 21.96875 22.65625 14.328125 
Q 29.296875 6.6875 41.796875 6.6875 
Q 48.140625 6.6875 53.78125 8.984375 
Q 59.421875 11.28125 64.40625 15.921875 
L 64.40625 5.609375 
Q 59.234375 2.09375 53.4375 0.328125 
Q 47.65625 -1.421875 41.21875 -1.421875 
Q 24.65625 -1.421875 15.125 8.703125 
Q 5.609375 18.84375 5.609375 36.375 
Q 5.609375 53.953125 15.125 64.078125 
Q 24.65625 74.21875 41.21875 74.21875 
Q 47.75 74.21875 53.53125 72.484375 
Q 59.328125 70.75 64.40625 67.28125 
z
" id="DejaVuSans-67"/>
     <path d="M 50.984375 -16.609375 
L 50.984375 -23.578125 
L -0.984375 -23.578125 
L -0.984375 -16.609375 
z
" id="DejaVuSans-95"/>
     <path d="M 9.078125 75.984375 
L 18.109375 75.984375 
L 18.109375 31.109375 
L 44.921875 54.6875 
L 56.390625 54.6875 
L 27.390625 29.109375 
L 57.625 0 
L 45.90625 0 
L 18.109375 26.703125 
L 18.109375 0 
L 9.078125 0 
z
" id="DejaVuSans-107"/>
    </defs>
    <g transform="translate(158.655 35.472)scale(0.12 -0.12)">
     <use xlink:href="#DejaVuSans-114"/>
     <use x="41.113281" xlink:href="#DejaVuSans-97"/>
     <use x="102.392578" xlink:href="#DejaVuSans-100"/>
     <use x="165.869141" xlink:href="#DejaVuSans-105"/>
     <use x="193.652344" xlink:href="#DejaVuSans-120"/>
     <use x="252.832031" xlink:href="#DejaVuSans-32"/>
     <use x="284.619141" xlink:href="#DejaVuSans-115"/>
     <use x="336.71875" xlink:href="#DejaVuSans-111"/>
     <use x="397.900391" xlink:href="#DejaVuSans-114"/>
     <use x="439.013672" xlink:href="#DejaVuSans-116"/>
     <use x="478.222656" xlink:href="#DejaVuSans-32"/>
     <use x="510.009766" xlink:href="#DejaVuSans-52"/>
     <use x="573.632812" xlink:href="#DejaVuSans-32"/>
     <use x="605.419922" xlink:href="#DejaVuSans-111"/>
     <use x="666.601562" xlink:href="#DejaVuSans-110"/>
     <use x="729.980469" xlink:href="#DejaVuSans-32"/>
     <use x="761.767578" xlink:href="#DejaVuSans-65"/>
     <use x="830.175781" xlink:href="#DejaVuSans-83"/>
     <use x="893.652344" xlink:href="#DejaVuSans-73"/>
     <use x="923.144531" xlink:href="#DejaVuSans-67"/>
     <use x="992.96875" xlink:href="#DejaVuSans-95"/>
     <use x="1042.96875" xlink:href="#DejaVuSans-54"/>
     <use x="1106.591797" xlink:href="#DejaVuSans-56"/>
     <use x="1170.214844" xlink:href="#DejaVuSans-48"/>
     <use x="1233.837891" xlink:href="#DejaVuSans-107"/>
    </g>
   </g>
   <g id="legend_1">
    <g id="patch_7">
     <path d="M 313.152813 302.584 
L 407.72 302.584 
Q 409.72 302.584 409.72 300.584 
L 409.72 257.2715 
Q 409.72 255.2715 407.72 255.2715 
L 313.152813 255.2715 
Q 311.152813 255.2715 311.152813 257.2715 
L 311.152813 300.584 
Q 311.152813 302.584 313.152813 302.584 
z
" style="fill:#ffffff;opacity:0.8;stroke:#cccccc;stroke-linejoin:miter;"/>
    </g>
    <g id="line2d_60">
     <path d="M 315.152813 263.369937 
L 335.152813 263.369937 
" style="fill:none;stroke:#0000ff;stroke-dasharray:1.5,2.475;stroke-dashoffset:0;stroke-width:1.5;"/>
    </g>
    <g id="line2d_61">
     <g>
      <use style="fill:#0000ff;stroke:#0000ff;" x="325.152813" xlink:href="#mdd70015b7a" y="263.369937"/>
     </g>
    </g>
    <g id="text_32">
     <!-- transpose -->
     <g transform="translate(343.152813 266.869937)scale(0.1 -0.1)">
      <use xlink:href="#DejaVuSans-116"/>
      <use x="39.208984" xlink:href="#DejaVuSans-114"/>
      <use x="80.322266" xlink:href="#DejaVuSans-97"/>
      <use x="141.601562" xlink:href="#DejaVuSans-110"/>
      <use x="204.980469" xlink:href="#DejaVuSans-115"/>
      <use x="257.080078" xlink:href="#DejaVuSans-112"/>
      <use x="320.556641" xlink:href="#DejaVuSans-111"/>
      <use x="381.738281" xlink:href="#DejaVuSans-115"/>
      <use x="433.837891" xlink:href="#DejaVuSans-101"/>
     </g>
    </g>
    <g id="line2d_62">
     <path d="M 315.152813 278.048063 
L 335.152813 278.048063 
" style="fill:none;stroke:#ff0000;stroke-dasharray:1.5,2.475;stroke-dashoffset:0;stroke-width:1.5;"/>
    </g>
    <g id="line2d_63">
     <g>
      <use style="fill:#ff0000;stroke:#ff0000;" x="325.152813" xlink:href="#m0284b0ac4f" y="278.048063"/>
     </g>
    </g>
    <g id="text_33">
     <!-- transpose_tr -->
     <g transform="translate(343.152813 281.548063)scale(0.1 -0.1)">
      <use xlink:href="#DejaVuSans-116"/>
      <use x="39.208984" xlink:href="#DejaVuSans-114"/>
      <use x="80.322266" xlink:href="#DejaVuSans-97"/>
      <use x="141.601562" xlink:href="#DejaVuSans-110"/>
      <use x="204.980469" xlink:href="#DejaVuSans-115"/>
      <use x="257.080078" xlink:href="#DejaVuSans-112"/>
      <use x="320.556641" xlink:href="#DejaVuSans-111"/>
      <use x="381.738281" xlink:href="#DejaVuSans-115"/>
      <use x="433.837891" xlink:href="#DejaVuSans-101"/>
      <use x="495.361328" xlink:href="#DejaVuSans-95"/>
      <use x="545.361328" xlink:href="#DejaVuSans-116"/>
      <use x="584.570312" xlink:href="#DejaVuSans-114"/>
     </g>
    </g>
    <g id="line2d_64">
     <path d="M 315.152813 293.004312 
L 335.152813 293.004312 
" style="fill:none;stroke:#008000;stroke-dasharray:1.5,2.475;stroke-dashoffset:0;stroke-width:1.5;"/>
    </g>
    <g id="line2d_65">
     <g>
      <use style="fill:#008000;stroke:#008000;" x="325.152813" xlink:href="#me1836d4859" y="293.004312"/>
     </g>
    </g>
    <g id="text_34">
     <!-- mean -->
     <defs>
      <path d="M 52 44.1875 
Q 55.375 50.25 60.0625 53.125 
Q 64.75 56 71.09375 56 
Q 79.640625 56 84.28125 50.015625 
Q 88.921875 44.046875 88.921875 33.015625 
L 88.921875 0 
L 79.890625 0 
L 79.890625 32.71875 
Q 79.890625 40.578125 77.09375 44.375 
Q 74.3125 48.1875 68.609375 48.1875 
Q 61.625 48.1875 57.5625 43.546875 
Q 53.515625 38.921875 53.515625 30.90625 
L 53.515625 0 
L 44.484375 0 
L 44.484375 32.71875 
Q 44.484375 40.625 41.703125 44.40625 
Q 38.921875 48.1875 33.109375 48.1875 
Q 26.21875 48.1875 22.15625 43.53125 
Q 18.109375 38.875 18.109375 30.90625 
L 18.109375 0 
L 9.078125 0 
L 9.078125 54.6875 
L 18.109375 54.6875 
L 18.109375 46.1875 
Q 21.1875 51.21875 25.484375 53.609375 
Q 29.78125 56 35.6875 56 
Q 41.65625 56 45.828125 52.96875 
Q 50 49.953125 52 44.1875 
z
" id="DejaVuSans-109"/>
     </defs>
     <g transform="translate(343.152813 296.504312)scale(0.1 -0.1)">
      <use xlink:href="#DejaVuSans-109"/>
      <use x="97.412109" xlink:href="#DejaVuSans-101"/>
      <use x="158.935547" xlink:href="#DejaVuSans-97"/>
      <use x="220.214844" xlink:href="#DejaVuSans-110"/>
     </g>
    </g>
   </g>
  </g>
 </g>
 <defs>
  <clipPath id="p1e0893ff85">
   <rect height="266.112" width="357.12" x="57.6" y="41.472"/>
  </clipPath>
 </defs>
</svg>
