<?xml version="1.0" encoding="utf-8" standalone="no"?>
<!DOCTYPE svg PUBLIC "-//W3C//DTD SVG 1.1//EN"
  "http://www.w3.org/Graphics/SVG/1.1/DTD/svg11.dtd">
<!-- Created with matplotlib (https://matplotlib.org/) -->
<svg height="345.6pt" version="1.1" viewBox="0 0 460.8 345.6" width="460.8pt" xmlns="http://www.w3.org/2000/svg" xmlns:xlink="http://www.w3.org/1999/xlink">
 <defs>
  <style type="text/css">
*{stroke-linecap:butt;stroke-linejoin:round;}
  </style>
 </defs>
 <g id="figure_1">
  <g id="patch_1">
   <path d="M 0 345.6 
L 460.8 345.6 
L 460.8 0 
L 0 0 
z
" style="fill:#ffffff;"/>
  </g>
  <g id="axes_1">
   <g id="patch_2">
    <path d="M 57.6 307.584 
L 414.72 307.584 
L 414.72 41.472 
L 57.6 41.472 
z
" style="fill:#ffffff;"/>
   </g>
   <g id="matplotlib.axis_1">
    <g id="xtick_1">
     <g id="line2d_1">
      <path clip-path="url(#pa29c907676)" d="M 61.612584 307.584 
L 61.612584 41.472 
" style="fill:none;stroke:#b0b0b0;stroke-dasharray:5.12,1.28,0.8,1.28;stroke-dashoffset:0;stroke-width:0.8;"/>
     </g>
     <g id="line2d_2">
      <defs>
       <path d="M 0 0 
L 0 3.5 
" id="md3b792d7bd" style="stroke:#000000;stroke-width:0.8;"/>
      </defs>
      <g>
       <use style="stroke:#000000;stroke-width:0.8;" x="61.612584" xlink:href="#md3b792d7bd" y="307.584"/>
      </g>
     </g>
     <g id="text_1">
      <!-- 1 -->
      <defs>
       <path d="M 12.40625 8.296875 
L 28.515625 8.296875 
L 28.515625 63.921875 
L 10.984375 60.40625 
L 10.984375 69.390625 
L 28.421875 72.90625 
L 38.28125 72.90625 
L 38.28125 8.296875 
L 54.390625 8.296875 
L 54.390625 0 
L 12.40625 0 
z
" id="DejaVuSans-49"/>
      </defs>
      <g transform="translate(58.431334 322.182437)scale(0.1 -0.1)">
       <use xlink:href="#DejaVuSans-49"/>
      </g>
     </g>
    </g>
    <g id="xtick_2">
     <g id="line2d_3">
      <path clip-path="url(#pa29c907676)" d="M 73.650337 307.584 
L 73.650337 41.472 
" style="fill:none;stroke:#b0b0b0;stroke-dasharray:5.12,1.28,0.8,1.28;stroke-dashoffset:0;stroke-width:0.8;"/>
     </g>
     <g id="line2d_4">
      <g>
       <use style="stroke:#000000;stroke-width:0.8;" x="73.650337" xlink:href="#md3b792d7bd" y="307.584"/>
      </g>
     </g>
     <g id="text_2">
      <!-- 4 -->
      <defs>
       <path d="M 37.796875 64.3125 
L 12.890625 25.390625 
L 37.796875 25.390625 
z
M 35.203125 72.90625 
L 47.609375 72.90625 
L 47.609375 25.390625 
L 58.015625 25.390625 
L 58.015625 17.1875 
L 47.609375 17.1875 
L 47.609375 0 
L 37.796875 0 
L 37.796875 17.1875 
L 4.890625 17.1875 
L 4.890625 26.703125 
z
" id="DejaVuSans-52"/>
      </defs>
      <g transform="translate(70.469087 322.182437)scale(0.1 -0.1)">
       <use xlink:href="#DejaVuSans-52"/>
      </g>
     </g>
    </g>
    <g id="xtick_3">
     <g id="line2d_5">
      <path clip-path="url(#pa29c907676)" d="M 89.700674 307.584 
L 89.700674 41.472 
" style="fill:none;stroke:#b0b0b0;stroke-dasharray:5.12,1.28,0.8,1.28;stroke-dashoffset:0;stroke-width:0.8;"/>
     </g>
     <g id="line2d_6">
      <g>
       <use style="stroke:#000000;stroke-width:0.8;" x="89.700674" xlink:href="#md3b792d7bd" y="307.584"/>
      </g>
     </g>
     <g id="text_3">
      <!-- 8 -->
      <defs>
       <path d="M 31.78125 34.625 
Q 24.75 34.625 20.71875 30.859375 
Q 16.703125 27.09375 16.703125 20.515625 
Q 16.703125 13.921875 20.71875 10.15625 
Q 24.75 6.390625 31.78125 6.390625 
Q 38.8125 6.390625 42.859375 10.171875 
Q 46.921875 13.96875 46.921875 20.515625 
Q 46.921875 27.09375 42.890625 30.859375 
Q 38.875 34.625 31.78125 34.625 
z
M 21.921875 38.8125 
Q 15.578125 40.375 12.03125 44.71875 
Q 8.5 49.078125 8.5 55.328125 
Q 8.5 64.0625 14.71875 69.140625 
Q 20.953125 74.21875 31.78125 74.21875 
Q 42.671875 74.21875 48.875 69.140625 
Q 55.078125 64.0625 55.078125 55.328125 
Q 55.078125 49.078125 51.53125 44.71875 
Q 48 40.375 41.703125 38.8125 
Q 48.828125 37.15625 52.796875 32.3125 
Q 56.78125 27.484375 56.78125 20.515625 
Q 56.78125 9.90625 50.3125 4.234375 
Q 43.84375 -1.421875 31.78125 -1.421875 
Q 19.734375 -1.421875 13.25 4.234375 
Q 6.78125 9.90625 6.78125 20.515625 
Q 6.78125 27.484375 10.78125 32.3125 
Q 14.796875 37.15625 21.921875 38.8125 
z
M 18.3125 54.390625 
Q 18.3125 48.734375 21.84375 45.5625 
Q 25.390625 42.390625 31.78125 42.390625 
Q 38.140625 42.390625 41.71875 45.5625 
Q 45.3125 48.734375 45.3125 54.390625 
Q 45.3125 60.0625 41.71875 63.234375 
Q 38.140625 66.40625 31.78125 66.40625 
Q 25.390625 66.40625 21.84375 63.234375 
Q 18.3125 60.0625 18.3125 54.390625 
z
" id="DejaVuSans-56"/>
      </defs>
      <g transform="translate(86.519424 322.182437)scale(0.1 -0.1)">
       <use xlink:href="#DejaVuSans-56"/>
      </g>
     </g>
    </g>
    <g id="xtick_4">
     <g id="line2d_7">
      <path clip-path="url(#pa29c907676)" d="M 105.751011 307.584 
L 105.751011 41.472 
" style="fill:none;stroke:#b0b0b0;stroke-dasharray:5.12,1.28,0.8,1.28;stroke-dashoffset:0;stroke-width:0.8;"/>
     </g>
     <g id="line2d_8">
      <g>
       <use style="stroke:#000000;stroke-width:0.8;" x="105.751011" xlink:href="#md3b792d7bd" y="307.584"/>
      </g>
     </g>
     <g id="text_4">
      <!-- 12 -->
      <defs>
       <path d="M 19.1875 8.296875 
L 53.609375 8.296875 
L 53.609375 0 
L 7.328125 0 
L 7.328125 8.296875 
Q 12.9375 14.109375 22.625 23.890625 
Q 32.328125 33.6875 34.8125 36.53125 
Q 39.546875 41.84375 41.421875 45.53125 
Q 43.3125 49.21875 43.3125 52.78125 
Q 43.3125 58.59375 39.234375 62.25 
Q 35.15625 65.921875 28.609375 65.921875 
Q 23.96875 65.921875 18.8125 64.3125 
Q 13.671875 62.703125 7.8125 59.421875 
L 7.8125 69.390625 
Q 13.765625 71.78125 18.9375 73 
Q 24.125 74.21875 28.421875 74.21875 
Q 39.75 74.21875 46.484375 68.546875 
Q 53.21875 62.890625 53.21875 53.421875 
Q 53.21875 48.921875 51.53125 44.890625 
Q 49.859375 40.875 45.40625 35.40625 
Q 44.1875 33.984375 37.640625 27.21875 
Q 31.109375 20.453125 19.1875 8.296875 
z
" id="DejaVuSans-50"/>
      </defs>
      <g transform="translate(99.388511 322.182437)scale(0.1 -0.1)">
       <use xlink:href="#DejaVuSans-49"/>
       <use x="63.623047" xlink:href="#DejaVuSans-50"/>
      </g>
     </g>
    </g>
    <g id="xtick_5">
     <g id="line2d_9">
      <path clip-path="url(#pa29c907676)" d="M 121.801348 307.584 
L 121.801348 41.472 
" style="fill:none;stroke:#b0b0b0;stroke-dasharray:5.12,1.28,0.8,1.28;stroke-dashoffset:0;stroke-width:0.8;"/>
     </g>
     <g id="line2d_10">
      <g>
       <use style="stroke:#000000;stroke-width:0.8;" x="121.801348" xlink:href="#md3b792d7bd" y="307.584"/>
      </g>
     </g>
     <g id="text_5">
      <!-- 16 -->
      <defs>
       <path d="M 33.015625 40.375 
Q 26.375 40.375 22.484375 35.828125 
Q 18.609375 31.296875 18.609375 23.390625 
Q 18.609375 15.53125 22.484375 10.953125 
Q 26.375 6.390625 33.015625 6.390625 
Q 39.65625 6.390625 43.53125 10.953125 
Q 47.40625 15.53125 47.40625 23.390625 
Q 47.40625 31.296875 43.53125 35.828125 
Q 39.65625 40.375 33.015625 40.375 
z
M 52.59375 71.296875 
L 52.59375 62.3125 
Q 48.875 64.0625 45.09375 64.984375 
Q 41.3125 65.921875 37.59375 65.921875 
Q 27.828125 65.921875 22.671875 59.328125 
Q 17.53125 52.734375 16.796875 39.40625 
Q 19.671875 43.65625 24.015625 45.921875 
Q 28.375 48.1875 33.59375 48.1875 
Q 44.578125 48.1875 50.953125 41.515625 
Q 57.328125 34.859375 57.328125 23.390625 
Q 57.328125 12.15625 50.6875 5.359375 
Q 44.046875 -1.421875 33.015625 -1.421875 
Q 20.359375 -1.421875 13.671875 8.265625 
Q 6.984375 17.96875 6.984375 36.375 
Q 6.984375 53.65625 15.1875 63.9375 
Q 23.390625 74.21875 37.203125 74.21875 
Q 40.921875 74.21875 44.703125 73.484375 
Q 48.484375 72.75 52.59375 71.296875 
z
" id="DejaVuSans-54"/>
      </defs>
      <g transform="translate(115.438848 322.182437)scale(0.1 -0.1)">
       <use xlink:href="#DejaVuSans-49"/>
       <use x="63.623047" xlink:href="#DejaVuSans-54"/>
      </g>
     </g>
    </g>
    <g id="xtick_6">
     <g id="line2d_11">
      <path clip-path="url(#pa29c907676)" d="M 137.851685 307.584 
L 137.851685 41.472 
" style="fill:none;stroke:#b0b0b0;stroke-dasharray:5.12,1.28,0.8,1.28;stroke-dashoffset:0;stroke-width:0.8;"/>
     </g>
     <g id="line2d_12">
      <g>
       <use style="stroke:#000000;stroke-width:0.8;" x="137.851685" xlink:href="#md3b792d7bd" y="307.584"/>
      </g>
     </g>
     <g id="text_6">
      <!-- 20 -->
      <defs>
       <path d="M 31.78125 66.40625 
Q 24.171875 66.40625 20.328125 58.90625 
Q 16.5 51.421875 16.5 36.375 
Q 16.5 21.390625 20.328125 13.890625 
Q 24.171875 6.390625 31.78125 6.390625 
Q 39.453125 6.390625 43.28125 13.890625 
Q 47.125 21.390625 47.125 36.375 
Q 47.125 51.421875 43.28125 58.90625 
Q 39.453125 66.40625 31.78125 66.40625 
z
M 31.78125 74.21875 
Q 44.046875 74.21875 50.515625 64.515625 
Q 56.984375 54.828125 56.984375 36.375 
Q 56.984375 17.96875 50.515625 8.265625 
Q 44.046875 -1.421875 31.78125 -1.421875 
Q 19.53125 -1.421875 13.0625 8.265625 
Q 6.59375 17.96875 6.59375 36.375 
Q 6.59375 54.828125 13.0625 64.515625 
Q 19.53125 74.21875 31.78125 74.21875 
z
" id="DejaVuSans-48"/>
      </defs>
      <g transform="translate(131.489185 322.182437)scale(0.1 -0.1)">
       <use xlink:href="#DejaVuSans-50"/>
       <use x="63.623047" xlink:href="#DejaVuSans-48"/>
      </g>
     </g>
    </g>
    <g id="xtick_7">
     <g id="line2d_13">
      <path clip-path="url(#pa29c907676)" d="M 153.902022 307.584 
L 153.902022 41.472 
" style="fill:none;stroke:#b0b0b0;stroke-dasharray:5.12,1.28,0.8,1.28;stroke-dashoffset:0;stroke-width:0.8;"/>
     </g>
     <g id="line2d_14">
      <g>
       <use style="stroke:#000000;stroke-width:0.8;" x="153.902022" xlink:href="#md3b792d7bd" y="307.584"/>
      </g>
     </g>
     <g id="text_7">
      <!-- 24 -->
      <g transform="translate(147.539522 322.182437)scale(0.1 -0.1)">
       <use xlink:href="#DejaVuSans-50"/>
       <use x="63.623047" xlink:href="#DejaVuSans-52"/>
      </g>
     </g>
    </g>
    <g id="xtick_8">
     <g id="line2d_15">
      <path clip-path="url(#pa29c907676)" d="M 169.95236 307.584 
L 169.95236 41.472 
" style="fill:none;stroke:#b0b0b0;stroke-dasharray:5.12,1.28,0.8,1.28;stroke-dashoffset:0;stroke-width:0.8;"/>
     </g>
     <g id="line2d_16">
      <g>
       <use style="stroke:#000000;stroke-width:0.8;" x="169.95236" xlink:href="#md3b792d7bd" y="307.584"/>
      </g>
     </g>
     <g id="text_8">
      <!-- 28 -->
      <g transform="translate(163.58986 322.182437)scale(0.1 -0.1)">
       <use xlink:href="#DejaVuSans-50"/>
       <use x="63.623047" xlink:href="#DejaVuSans-56"/>
      </g>
     </g>
    </g>
    <g id="xtick_9">
     <g id="line2d_17">
      <path clip-path="url(#pa29c907676)" d="M 186.002697 307.584 
L 186.002697 41.472 
" style="fill:none;stroke:#b0b0b0;stroke-dasharray:5.12,1.28,0.8,1.28;stroke-dashoffset:0;stroke-width:0.8;"/>
     </g>
     <g id="line2d_18">
      <g>
       <use style="stroke:#000000;stroke-width:0.8;" x="186.002697" xlink:href="#md3b792d7bd" y="307.584"/>
      </g>
     </g>
     <g id="text_9">
      <!-- 32 -->
      <defs>
       <path d="M 40.578125 39.3125 
Q 47.65625 37.796875 51.625 33 
Q 55.609375 28.21875 55.609375 21.1875 
Q 55.609375 10.40625 48.1875 4.484375 
Q 40.765625 -1.421875 27.09375 -1.421875 
Q 22.515625 -1.421875 17.65625 -0.515625 
Q 12.796875 0.390625 7.625 2.203125 
L 7.625 11.71875 
Q 11.71875 9.328125 16.59375 8.109375 
Q 21.484375 6.890625 26.8125 6.890625 
Q 36.078125 6.890625 40.9375 10.546875 
Q 45.796875 14.203125 45.796875 21.1875 
Q 45.796875 27.640625 41.28125 31.265625 
Q 36.765625 34.90625 28.71875 34.90625 
L 20.21875 34.90625 
L 20.21875 43.015625 
L 29.109375 43.015625 
Q 36.375 43.015625 40.234375 45.921875 
Q 44.09375 48.828125 44.09375 54.296875 
Q 44.09375 59.90625 40.109375 62.90625 
Q 36.140625 65.921875 28.71875 65.921875 
Q 24.65625 65.921875 20.015625 65.03125 
Q 15.375 64.15625 9.8125 62.3125 
L 9.8125 71.09375 
Q 15.4375 72.65625 20.34375 73.4375 
Q 25.25 74.21875 29.59375 74.21875 
Q 40.828125 74.21875 47.359375 69.109375 
Q 53.90625 64.015625 53.90625 55.328125 
Q 53.90625 49.265625 50.4375 45.09375 
Q 46.96875 40.921875 40.578125 39.3125 
z
" id="DejaVuSans-51"/>
      </defs>
      <g transform="translate(179.640197 322.182437)scale(0.1 -0.1)">
       <use xlink:href="#DejaVuSans-51"/>
       <use x="63.623047" xlink:href="#DejaVuSans-50"/>
      </g>
     </g>
    </g>
    <g id="xtick_10">
     <g id="line2d_19">
      <path clip-path="url(#pa29c907676)" d="M 202.053034 307.584 
L 202.053034 41.472 
" style="fill:none;stroke:#b0b0b0;stroke-dasharray:5.12,1.28,0.8,1.28;stroke-dashoffset:0;stroke-width:0.8;"/>
     </g>
     <g id="line2d_20">
      <g>
       <use style="stroke:#000000;stroke-width:0.8;" x="202.053034" xlink:href="#md3b792d7bd" y="307.584"/>
      </g>
     </g>
     <g id="text_10">
      <!-- 36 -->
      <g transform="translate(195.690534 322.182437)scale(0.1 -0.1)">
       <use xlink:href="#DejaVuSans-51"/>
       <use x="63.623047" xlink:href="#DejaVuSans-54"/>
      </g>
     </g>
    </g>
    <g id="xtick_11">
     <g id="line2d_21">
      <path clip-path="url(#pa29c907676)" d="M 218.103371 307.584 
L 218.103371 41.472 
" style="fill:none;stroke:#b0b0b0;stroke-dasharray:5.12,1.28,0.8,1.28;stroke-dashoffset:0;stroke-width:0.8;"/>
     </g>
     <g id="line2d_22">
      <g>
       <use style="stroke:#000000;stroke-width:0.8;" x="218.103371" xlink:href="#md3b792d7bd" y="307.584"/>
      </g>
     </g>
     <g id="text_11">
      <!-- 40 -->
      <g transform="translate(211.740871 322.182437)scale(0.1 -0.1)">
       <use xlink:href="#DejaVuSans-52"/>
       <use x="63.623047" xlink:href="#DejaVuSans-48"/>
      </g>
     </g>
    </g>
    <g id="xtick_12">
     <g id="line2d_23">
      <path clip-path="url(#pa29c907676)" d="M 234.153708 307.584 
L 234.153708 41.472 
" style="fill:none;stroke:#b0b0b0;stroke-dasharray:5.12,1.28,0.8,1.28;stroke-dashoffset:0;stroke-width:0.8;"/>
     </g>
     <g id="line2d_24">
      <g>
       <use style="stroke:#000000;stroke-width:0.8;" x="234.153708" xlink:href="#md3b792d7bd" y="307.584"/>
      </g>
     </g>
     <g id="text_12">
      <!-- 44 -->
      <g transform="translate(227.791208 322.182437)scale(0.1 -0.1)">
       <use xlink:href="#DejaVuSans-52"/>
       <use x="63.623047" xlink:href="#DejaVuSans-52"/>
      </g>
     </g>
    </g>
    <g id="xtick_13">
     <g id="line2d_25">
      <path clip-path="url(#pa29c907676)" d="M 250.204045 307.584 
L 250.204045 41.472 
" style="fill:none;stroke:#b0b0b0;stroke-dasharray:5.12,1.28,0.8,1.28;stroke-dashoffset:0;stroke-width:0.8;"/>
     </g>
     <g id="line2d_26">
      <g>
       <use style="stroke:#000000;stroke-width:0.8;" x="250.204045" xlink:href="#md3b792d7bd" y="307.584"/>
      </g>
     </g>
     <g id="text_13">
      <!-- 48 -->
      <g transform="translate(243.841545 322.182437)scale(0.1 -0.1)">
       <use xlink:href="#DejaVuSans-52"/>
       <use x="63.623047" xlink:href="#DejaVuSans-56"/>
      </g>
     </g>
    </g>
    <g id="xtick_14">
     <g id="line2d_27">
      <path clip-path="url(#pa29c907676)" d="M 266.254382 307.584 
L 266.254382 41.472 
" style="fill:none;stroke:#b0b0b0;stroke-dasharray:5.12,1.28,0.8,1.28;stroke-dashoffset:0;stroke-width:0.8;"/>
     </g>
     <g id="line2d_28">
      <g>
       <use style="stroke:#000000;stroke-width:0.8;" x="266.254382" xlink:href="#md3b792d7bd" y="307.584"/>
      </g>
     </g>
     <g id="text_14">
      <!-- 52 -->
      <defs>
       <path d="M 10.796875 72.90625 
L 49.515625 72.90625 
L 49.515625 64.59375 
L 19.828125 64.59375 
L 19.828125 46.734375 
Q 21.96875 47.46875 24.109375 47.828125 
Q 26.265625 48.1875 28.421875 48.1875 
Q 40.625 48.1875 47.75 41.5 
Q 54.890625 34.8125 54.890625 23.390625 
Q 54.890625 11.625 47.5625 5.09375 
Q 40.234375 -1.421875 26.90625 -1.421875 
Q 22.3125 -1.421875 17.546875 -0.640625 
Q 12.796875 0.140625 7.71875 1.703125 
L 7.71875 11.625 
Q 12.109375 9.234375 16.796875 8.0625 
Q 21.484375 6.890625 26.703125 6.890625 
Q 35.15625 6.890625 40.078125 11.328125 
Q 45.015625 15.765625 45.015625 23.390625 
Q 45.015625 31 40.078125 35.4375 
Q 35.15625 39.890625 26.703125 39.890625 
Q 22.75 39.890625 18.8125 39.015625 
Q 14.890625 38.140625 10.796875 36.28125 
z
" id="DejaVuSans-53"/>
      </defs>
      <g transform="translate(259.891882 322.182437)scale(0.1 -0.1)">
       <use xlink:href="#DejaVuSans-53"/>
       <use x="63.623047" xlink:href="#DejaVuSans-50"/>
      </g>
     </g>
    </g>
    <g id="xtick_15">
     <g id="line2d_29">
      <path clip-path="url(#pa29c907676)" d="M 282.304719 307.584 
L 282.304719 41.472 
" style="fill:none;stroke:#b0b0b0;stroke-dasharray:5.12,1.28,0.8,1.28;stroke-dashoffset:0;stroke-width:0.8;"/>
     </g>
     <g id="line2d_30">
      <g>
       <use style="stroke:#000000;stroke-width:0.8;" x="282.304719" xlink:href="#md3b792d7bd" y="307.584"/>
      </g>
     </g>
     <g id="text_15">
      <!-- 56 -->
      <g transform="translate(275.942219 322.182437)scale(0.1 -0.1)">
       <use xlink:href="#DejaVuSans-53"/>
       <use x="63.623047" xlink:href="#DejaVuSans-54"/>
      </g>
     </g>
    </g>
    <g id="xtick_16">
     <g id="line2d_31">
      <path clip-path="url(#pa29c907676)" d="M 298.355056 307.584 
L 298.355056 41.472 
" style="fill:none;stroke:#b0b0b0;stroke-dasharray:5.12,1.28,0.8,1.28;stroke-dashoffset:0;stroke-width:0.8;"/>
     </g>
     <g id="line2d_32">
      <g>
       <use style="stroke:#000000;stroke-width:0.8;" x="298.355056" xlink:href="#md3b792d7bd" y="307.584"/>
      </g>
     </g>
     <g id="text_16">
      <!-- 60 -->
      <g transform="translate(291.992556 322.182437)scale(0.1 -0.1)">
       <use xlink:href="#DejaVuSans-54"/>
       <use x="63.623047" xlink:href="#DejaVuSans-48"/>
      </g>
     </g>
    </g>
    <g id="xtick_17">
     <g id="line2d_33">
      <path clip-path="url(#pa29c907676)" d="M 314.405393 307.584 
L 314.405393 41.472 
" style="fill:none;stroke:#b0b0b0;stroke-dasharray:5.12,1.28,0.8,1.28;stroke-dashoffset:0;stroke-width:0.8;"/>
     </g>
     <g id="line2d_34">
      <g>
       <use style="stroke:#000000;stroke-width:0.8;" x="314.405393" xlink:href="#md3b792d7bd" y="307.584"/>
      </g>
     </g>
     <g id="text_17">
      <!-- 64 -->
      <g transform="translate(308.042893 322.182437)scale(0.1 -0.1)">
       <use xlink:href="#DejaVuSans-54"/>
       <use x="63.623047" xlink:href="#DejaVuSans-52"/>
      </g>
     </g>
    </g>
    <g id="xtick_18">
     <g id="line2d_35">
      <path clip-path="url(#pa29c907676)" d="M 330.45573 307.584 
L 330.45573 41.472 
" style="fill:none;stroke:#b0b0b0;stroke-dasharray:5.12,1.28,0.8,1.28;stroke-dashoffset:0;stroke-width:0.8;"/>
     </g>
     <g id="line2d_36">
      <g>
       <use style="stroke:#000000;stroke-width:0.8;" x="330.45573" xlink:href="#md3b792d7bd" y="307.584"/>
      </g>
     </g>
     <g id="text_18">
      <!-- 68 -->
      <g transform="translate(324.09323 322.182437)scale(0.1 -0.1)">
       <use xlink:href="#DejaVuSans-54"/>
       <use x="63.623047" xlink:href="#DejaVuSans-56"/>
      </g>
     </g>
    </g>
    <g id="xtick_19">
     <g id="line2d_37">
      <path clip-path="url(#pa29c907676)" d="M 346.506067 307.584 
L 346.506067 41.472 
" style="fill:none;stroke:#b0b0b0;stroke-dasharray:5.12,1.28,0.8,1.28;stroke-dashoffset:0;stroke-width:0.8;"/>
     </g>
     <g id="line2d_38">
      <g>
       <use style="stroke:#000000;stroke-width:0.8;" x="346.506067" xlink:href="#md3b792d7bd" y="307.584"/>
      </g>
     </g>
     <g id="text_19">
      <!-- 72 -->
      <defs>
       <path d="M 8.203125 72.90625 
L 55.078125 72.90625 
L 55.078125 68.703125 
L 28.609375 0 
L 18.3125 0 
L 43.21875 64.59375 
L 8.203125 64.59375 
z
" id="DejaVuSans-55"/>
      </defs>
      <g transform="translate(340.143567 322.182437)scale(0.1 -0.1)">
       <use xlink:href="#DejaVuSans-55"/>
       <use x="63.623047" xlink:href="#DejaVuSans-50"/>
      </g>
     </g>
    </g>
    <g id="xtick_20">
     <g id="line2d_39">
      <path clip-path="url(#pa29c907676)" d="M 362.556404 307.584 
L 362.556404 41.472 
" style="fill:none;stroke:#b0b0b0;stroke-dasharray:5.12,1.28,0.8,1.28;stroke-dashoffset:0;stroke-width:0.8;"/>
     </g>
     <g id="line2d_40">
      <g>
       <use style="stroke:#000000;stroke-width:0.8;" x="362.556404" xlink:href="#md3b792d7bd" y="307.584"/>
      </g>
     </g>
     <g id="text_20">
      <!-- 76 -->
      <g transform="translate(356.193904 322.182437)scale(0.1 -0.1)">
       <use xlink:href="#DejaVuSans-55"/>
       <use x="63.623047" xlink:href="#DejaVuSans-54"/>
      </g>
     </g>
    </g>
    <g id="xtick_21">
     <g id="line2d_41">
      <path clip-path="url(#pa29c907676)" d="M 378.606742 307.584 
L 378.606742 41.472 
" style="fill:none;stroke:#b0b0b0;stroke-dasharray:5.12,1.28,0.8,1.28;stroke-dashoffset:0;stroke-width:0.8;"/>
     </g>
     <g id="line2d_42">
      <g>
       <use style="stroke:#000000;stroke-width:0.8;" x="378.606742" xlink:href="#md3b792d7bd" y="307.584"/>
      </g>
     </g>
     <g id="text_21">
      <!-- 80 -->
      <g transform="translate(372.244242 322.182437)scale(0.1 -0.1)">
       <use xlink:href="#DejaVuSans-56"/>
       <use x="63.623047" xlink:href="#DejaVuSans-48"/>
      </g>
     </g>
    </g>
    <g id="xtick_22">
     <g id="line2d_43">
      <path clip-path="url(#pa29c907676)" d="M 394.657079 307.584 
L 394.657079 41.472 
" style="fill:none;stroke:#b0b0b0;stroke-dasharray:5.12,1.28,0.8,1.28;stroke-dashoffset:0;stroke-width:0.8;"/>
     </g>
     <g id="line2d_44">
      <g>
       <use style="stroke:#000000;stroke-width:0.8;" x="394.657079" xlink:href="#md3b792d7bd" y="307.584"/>
      </g>
     </g>
     <g id="text_22">
      <!-- 84 -->
      <g transform="translate(388.294579 322.182437)scale(0.1 -0.1)">
       <use xlink:href="#DejaVuSans-56"/>
       <use x="63.623047" xlink:href="#DejaVuSans-52"/>
      </g>
     </g>
    </g>
    <g id="xtick_23">
     <g id="line2d_45">
      <path clip-path="url(#pa29c907676)" d="M 410.707416 307.584 
L 410.707416 41.472 
" style="fill:none;stroke:#b0b0b0;stroke-dasharray:5.12,1.28,0.8,1.28;stroke-dashoffset:0;stroke-width:0.8;"/>
     </g>
     <g id="line2d_46">
      <g>
       <use style="stroke:#000000;stroke-width:0.8;" x="410.707416" xlink:href="#md3b792d7bd" y="307.584"/>
      </g>
     </g>
     <g id="text_23">
      <!-- 88 -->
      <g transform="translate(404.344916 322.182437)scale(0.1 -0.1)">
       <use xlink:href="#DejaVuSans-56"/>
       <use x="63.623047" xlink:href="#DejaVuSans-56"/>
      </g>
     </g>
    </g>
    <g id="text_24">
     <!-- threads -->
     <defs>
      <path d="M 18.3125 70.21875 
L 18.3125 54.6875 
L 36.8125 54.6875 
L 36.8125 47.703125 
L 18.3125 47.703125 
L 18.3125 18.015625 
Q 18.3125 11.328125 20.140625 9.421875 
Q 21.96875 7.515625 27.59375 7.515625 
L 36.8125 7.515625 
L 36.8125 0 
L 27.59375 0 
Q 17.1875 0 13.234375 3.875 
Q 9.28125 7.765625 9.28125 18.015625 
L 9.28125 47.703125 
L 2.6875 47.703125 
L 2.6875 54.6875 
L 9.28125 54.6875 
L 9.28125 70.21875 
z
" id="DejaVuSans-116"/>
      <path d="M 54.890625 33.015625 
L 54.890625 0 
L 45.90625 0 
L 45.90625 32.71875 
Q 45.90625 40.484375 42.875 44.328125 
Q 39.84375 48.1875 33.796875 48.1875 
Q 26.515625 48.1875 22.3125 43.546875 
Q 18.109375 38.921875 18.109375 30.90625 
L 18.109375 0 
L 9.078125 0 
L 9.078125 75.984375 
L 18.109375 75.984375 
L 18.109375 46.1875 
Q 21.34375 51.125 25.703125 53.5625 
Q 30.078125 56 35.796875 56 
Q 45.21875 56 50.046875 50.171875 
Q 54.890625 44.34375 54.890625 33.015625 
z
" id="DejaVuSans-104"/>
      <path d="M 41.109375 46.296875 
Q 39.59375 47.171875 37.8125 47.578125 
Q 36.03125 48 33.890625 48 
Q 26.265625 48 22.1875 43.046875 
Q 18.109375 38.09375 18.109375 28.8125 
L 18.109375 0 
L 9.078125 0 
L 9.078125 54.6875 
L 18.109375 54.6875 
L 18.109375 46.1875 
Q 20.953125 51.171875 25.484375 53.578125 
Q 30.03125 56 36.53125 56 
Q 37.453125 56 38.578125 55.875 
Q 39.703125 55.765625 41.0625 55.515625 
z
" id="DejaVuSans-114"/>
      <path d="M 56.203125 29.59375 
L 56.203125 25.203125 
L 14.890625 25.203125 
Q 15.484375 15.921875 20.484375 11.0625 
Q 25.484375 6.203125 34.421875 6.203125 
Q 39.59375 6.203125 44.453125 7.46875 
Q 49.3125 8.734375 54.109375 11.28125 
L 54.109375 2.78125 
Q 49.265625 0.734375 44.1875 -0.34375 
Q 39.109375 -1.421875 33.890625 -1.421875 
Q 20.796875 -1.421875 13.15625 6.1875 
Q 5.515625 13.8125 5.515625 26.8125 
Q 5.515625 40.234375 12.765625 48.109375 
Q 20.015625 56 32.328125 56 
Q 43.359375 56 49.78125 48.890625 
Q 56.203125 41.796875 56.203125 29.59375 
z
M 47.21875 32.234375 
Q 47.125 39.59375 43.09375 43.984375 
Q 39.0625 48.390625 32.421875 48.390625 
Q 24.90625 48.390625 20.390625 44.140625 
Q 15.875 39.890625 15.1875 32.171875 
z
" id="DejaVuSans-101"/>
      <path d="M 34.28125 27.484375 
Q 23.390625 27.484375 19.1875 25 
Q 14.984375 22.515625 14.984375 16.5 
Q 14.984375 11.71875 18.140625 8.90625 
Q 21.296875 6.109375 26.703125 6.109375 
Q 34.1875 6.109375 38.703125 11.40625 
Q 43.21875 16.703125 43.21875 25.484375 
L 43.21875 27.484375 
z
M 52.203125 31.203125 
L 52.203125 0 
L 43.21875 0 
L 43.21875 8.296875 
Q 40.140625 3.328125 35.546875 0.953125 
Q 30.953125 -1.421875 24.3125 -1.421875 
Q 15.921875 -1.421875 10.953125 3.296875 
Q 6 8.015625 6 15.921875 
Q 6 25.140625 12.171875 29.828125 
Q 18.359375 34.515625 30.609375 34.515625 
L 43.21875 34.515625 
L 43.21875 35.40625 
Q 43.21875 41.609375 39.140625 45 
Q 35.0625 48.390625 27.6875 48.390625 
Q 23 48.390625 18.546875 47.265625 
Q 14.109375 46.140625 10.015625 43.890625 
L 10.015625 52.203125 
Q 14.9375 54.109375 19.578125 55.046875 
Q 24.21875 56 28.609375 56 
Q 40.484375 56 46.34375 49.84375 
Q 52.203125 43.703125 52.203125 31.203125 
z
" id="DejaVuSans-97"/>
      <path d="M 45.40625 46.390625 
L 45.40625 75.984375 
L 54.390625 75.984375 
L 54.390625 0 
L 45.40625 0 
L 45.40625 8.203125 
Q 42.578125 3.328125 38.25 0.953125 
Q 33.9375 -1.421875 27.875 -1.421875 
Q 17.96875 -1.421875 11.734375 6.484375 
Q 5.515625 14.40625 5.515625 27.296875 
Q 5.515625 40.1875 11.734375 48.09375 
Q 17.96875 56 27.875 56 
Q 33.9375 56 38.25 53.625 
Q 42.578125 51.265625 45.40625 46.390625 
z
M 14.796875 27.296875 
Q 14.796875 17.390625 18.875 11.75 
Q 22.953125 6.109375 30.078125 6.109375 
Q 37.203125 6.109375 41.296875 11.75 
Q 45.40625 17.390625 45.40625 27.296875 
Q 45.40625 37.203125 41.296875 42.84375 
Q 37.203125 48.484375 30.078125 48.484375 
Q 22.953125 48.484375 18.875 42.84375 
Q 14.796875 37.203125 14.796875 27.296875 
z
" id="DejaVuSans-100"/>
      <path d="M 44.28125 53.078125 
L 44.28125 44.578125 
Q 40.484375 46.53125 36.375 47.5 
Q 32.28125 48.484375 27.875 48.484375 
Q 21.1875 48.484375 17.84375 46.4375 
Q 14.5 44.390625 14.5 40.28125 
Q 14.5 37.15625 16.890625 35.375 
Q 19.28125 33.59375 26.515625 31.984375 
L 29.59375 31.296875 
Q 39.15625 29.25 43.1875 25.515625 
Q 47.21875 21.78125 47.21875 15.09375 
Q 47.21875 7.46875 41.1875 3.015625 
Q 35.15625 -1.421875 24.609375 -1.421875 
Q 20.21875 -1.421875 15.453125 -0.5625 
Q 10.6875 0.296875 5.421875 2 
L 5.421875 11.28125 
Q 10.40625 8.6875 15.234375 7.390625 
Q 20.0625 6.109375 24.8125 6.109375 
Q 31.15625 6.109375 34.5625 8.28125 
Q 37.984375 10.453125 37.984375 14.40625 
Q 37.984375 18.0625 35.515625 20.015625 
Q 33.0625 21.96875 24.703125 23.78125 
L 21.578125 24.515625 
Q 13.234375 26.265625 9.515625 29.90625 
Q 5.8125 33.546875 5.8125 39.890625 
Q 5.8125 47.609375 11.28125 51.796875 
Q 16.75 56 26.8125 56 
Q 31.78125 56 36.171875 55.265625 
Q 40.578125 54.546875 44.28125 53.078125 
z
" id="DejaVuSans-115"/>
     </defs>
     <g transform="translate(217.168594 335.860562)scale(0.1 -0.1)">
      <use xlink:href="#DejaVuSans-116"/>
      <use x="39.208984" xlink:href="#DejaVuSans-104"/>
      <use x="102.587891" xlink:href="#DejaVuSans-114"/>
      <use x="141.451172" xlink:href="#DejaVuSans-101"/>
      <use x="202.974609" xlink:href="#DejaVuSans-97"/>
      <use x="264.253906" xlink:href="#DejaVuSans-100"/>
      <use x="327.730469" xlink:href="#DejaVuSans-115"/>
     </g>
    </g>
   </g>
   <g id="matplotlib.axis_2">
    <g id="ytick_1">
     <g id="line2d_47">
      <path clip-path="url(#pa29c907676)" d="M 57.6 302.837408 
L 414.72 302.837408 
" style="fill:none;stroke:#b0b0b0;stroke-dasharray:5.12,1.28,0.8,1.28;stroke-dashoffset:0;stroke-width:0.8;"/>
     </g>
     <g id="line2d_48">
      <defs>
       <path d="M 0 0 
L -3.5 0 
" id="mdf45da1dc4" style="stroke:#000000;stroke-width:0.8;"/>
      </defs>
      <g>
       <use style="stroke:#000000;stroke-width:0.8;" x="57.6" xlink:href="#mdf45da1dc4" y="302.837408"/>
      </g>
     </g>
     <g id="text_25">
      <!-- 0 -->
      <g transform="translate(44.2375 306.636627)scale(0.1 -0.1)">
       <use xlink:href="#DejaVuSans-48"/>
      </g>
     </g>
    </g>
    <g id="ytick_2">
     <g id="line2d_49">
      <path clip-path="url(#pa29c907676)" d="M 57.6 258.965394 
L 414.72 258.965394 
" style="fill:none;stroke:#b0b0b0;stroke-dasharray:5.12,1.28,0.8,1.28;stroke-dashoffset:0;stroke-width:0.8;"/>
     </g>
     <g id="line2d_50">
      <g>
       <use style="stroke:#000000;stroke-width:0.8;" x="57.6" xlink:href="#mdf45da1dc4" y="258.965394"/>
      </g>
     </g>
     <g id="text_26">
      <!-- 5 -->
      <g transform="translate(44.2375 262.764613)scale(0.1 -0.1)">
       <use xlink:href="#DejaVuSans-53"/>
      </g>
     </g>
    </g>
    <g id="ytick_3">
     <g id="line2d_51">
      <path clip-path="url(#pa29c907676)" d="M 57.6 215.09338 
L 414.72 215.09338 
" style="fill:none;stroke:#b0b0b0;stroke-dasharray:5.12,1.28,0.8,1.28;stroke-dashoffset:0;stroke-width:0.8;"/>
     </g>
     <g id="line2d_52">
      <g>
       <use style="stroke:#000000;stroke-width:0.8;" x="57.6" xlink:href="#mdf45da1dc4" y="215.09338"/>
      </g>
     </g>
     <g id="text_27">
      <!-- 10 -->
      <g transform="translate(37.875 218.892599)scale(0.1 -0.1)">
       <use xlink:href="#DejaVuSans-49"/>
       <use x="63.623047" xlink:href="#DejaVuSans-48"/>
      </g>
     </g>
    </g>
    <g id="ytick_4">
     <g id="line2d_53">
      <path clip-path="url(#pa29c907676)" d="M 57.6 171.221367 
L 414.72 171.221367 
" style="fill:none;stroke:#b0b0b0;stroke-dasharray:5.12,1.28,0.8,1.28;stroke-dashoffset:0;stroke-width:0.8;"/>
     </g>
     <g id="line2d_54">
      <g>
       <use style="stroke:#000000;stroke-width:0.8;" x="57.6" xlink:href="#mdf45da1dc4" y="171.221367"/>
      </g>
     </g>
     <g id="text_28">
      <!-- 15 -->
      <g transform="translate(37.875 175.020585)scale(0.1 -0.1)">
       <use xlink:href="#DejaVuSans-49"/>
       <use x="63.623047" xlink:href="#DejaVuSans-53"/>
      </g>
     </g>
    </g>
    <g id="ytick_5">
     <g id="line2d_55">
      <path clip-path="url(#pa29c907676)" d="M 57.6 127.349353 
L 414.72 127.349353 
" style="fill:none;stroke:#b0b0b0;stroke-dasharray:5.12,1.28,0.8,1.28;stroke-dashoffset:0;stroke-width:0.8;"/>
     </g>
     <g id="line2d_56">
      <g>
       <use style="stroke:#000000;stroke-width:0.8;" x="57.6" xlink:href="#mdf45da1dc4" y="127.349353"/>
      </g>
     </g>
     <g id="text_29">
      <!-- 20 -->
      <g transform="translate(37.875 131.148572)scale(0.1 -0.1)">
       <use xlink:href="#DejaVuSans-50"/>
       <use x="63.623047" xlink:href="#DejaVuSans-48"/>
      </g>
     </g>
    </g>
    <g id="ytick_6">
     <g id="line2d_57">
      <path clip-path="url(#pa29c907676)" d="M 57.6 83.477339 
L 414.72 83.477339 
" style="fill:none;stroke:#b0b0b0;stroke-dasharray:5.12,1.28,0.8,1.28;stroke-dashoffset:0;stroke-width:0.8;"/>
     </g>
     <g id="line2d_58">
      <g>
       <use style="stroke:#000000;stroke-width:0.8;" x="57.6" xlink:href="#mdf45da1dc4" y="83.477339"/>
      </g>
     </g>
     <g id="text_30">
      <!-- 25 -->
      <g transform="translate(37.875 87.276558)scale(0.1 -0.1)">
       <use xlink:href="#DejaVuSans-50"/>
       <use x="63.623047" xlink:href="#DejaVuSans-53"/>
      </g>
     </g>
    </g>
    <g id="text_31">
     <!-- speed up -->
     <defs>
      <path d="M 18.109375 8.203125 
L 18.109375 -20.796875 
L 9.078125 -20.796875 
L 9.078125 54.6875 
L 18.109375 54.6875 
L 18.109375 46.390625 
Q 20.953125 51.265625 25.265625 53.625 
Q 29.59375 56 35.59375 56 
Q 45.5625 56 51.78125 48.09375 
Q 58.015625 40.1875 58.015625 27.296875 
Q 58.015625 14.40625 51.78125 6.484375 
Q 45.5625 -1.421875 35.59375 -1.421875 
Q 29.59375 -1.421875 25.265625 0.953125 
Q 20.953125 3.328125 18.109375 8.203125 
z
M 48.6875 27.296875 
Q 48.6875 37.203125 44.609375 42.84375 
Q 40.53125 48.484375 33.40625 48.484375 
Q 26.265625 48.484375 22.1875 42.84375 
Q 18.109375 37.203125 18.109375 27.296875 
Q 18.109375 17.390625 22.1875 11.75 
Q 26.265625 6.109375 33.40625 6.109375 
Q 40.53125 6.109375 44.609375 11.75 
Q 48.6875 17.390625 48.6875 27.296875 
z
" id="DejaVuSans-112"/>
      <path id="DejaVuSans-32"/>
      <path d="M 8.5 21.578125 
L 8.5 54.6875 
L 17.484375 54.6875 
L 17.484375 21.921875 
Q 17.484375 14.15625 20.5 10.265625 
Q 23.53125 6.390625 29.59375 6.390625 
Q 36.859375 6.390625 41.078125 11.03125 
Q 45.3125 15.671875 45.3125 23.6875 
L 45.3125 54.6875 
L 54.296875 54.6875 
L 54.296875 0 
L 45.3125 0 
L 45.3125 8.40625 
Q 42.046875 3.421875 37.71875 1 
Q 33.40625 -1.421875 27.6875 -1.421875 
Q 18.265625 -1.421875 13.375 4.4375 
Q 8.5 10.296875 8.5 21.578125 
z
M 31.109375 56 
z
" id="DejaVuSans-117"/>
     </defs>
     <g transform="translate(31.795312 197.566281)rotate(-90)scale(0.1 -0.1)">
      <use xlink:href="#DejaVuSans-115"/>
      <use x="52.099609" xlink:href="#DejaVuSans-112"/>
      <use x="115.576172" xlink:href="#DejaVuSans-101"/>
      <use x="177.099609" xlink:href="#DejaVuSans-101"/>
      <use x="238.623047" xlink:href="#DejaVuSans-100"/>
      <use x="302.099609" xlink:href="#DejaVuSans-32"/>
      <use x="333.886719" xlink:href="#DejaVuSans-117"/>
      <use x="397.265625" xlink:href="#DejaVuSans-112"/>
     </g>
    </g>
   </g>
   <g id="line2d_59">
    <path clip-path="url(#pa29c907676)" d="M 61.612584 295.488 
L 65.625169 283.912745 
L 69.637753 277.717283 
L 73.650337 266.637906 
L 77.662921 259.575111 
L 81.675506 255.915102 
L 85.68809 244.902933 
L 89.700674 240.897051 
L 93.713258 230.731832 
L 97.725843 223.7548 
L 101.738427 213.75004 
L 105.751011 208.615396 
L 109.763596 200.267184 
L 113.77618 194.823166 
L 117.788764 193.718774 
L 121.801348 183.096667 
L 125.813933 178.716219 
L 129.826517 168.364021 
L 133.839101 164.404766 
L 137.851685 172.243255 
L 141.86427 178.833546 
L 145.876854 181.147359 
L 149.889438 172.614693 
L 153.902022 164.221249 
L 157.914607 162.472235 
L 161.927191 168.554044 
L 165.939775 176.985576 
L 169.95236 174.790079 
L 173.964944 168.398057 
L 177.977528 165.077373 
L 181.990112 158.370698 
L 186.002697 156.581746 
L 190.015281 153.178134 
L 194.027865 153.329342 
L 198.040449 148.800477 
L 202.053034 144.638969 
L 206.065618 140.186574 
L 210.078202 144.78304 
L 214.090787 141.150623 
L 218.103371 140.175228 
L 222.115955 134.25306 
L 226.128539 138.411404 
L 230.141124 132.021002 
L 234.153708 133.954281 
L 238.166292 132.093862 
L 242.178876 144.578912 
L 246.191461 138.32128 
L 250.204045 138.674262 
L 254.216629 134.755299 
L 258.229213 134.155767 
L 262.241798 136.068859 
L 266.254382 146.791719 
L 270.266966 141.054092 
L 274.279551 141.215588 
L 278.292135 161.103262 
L 282.304719 154.17106 
L 286.317303 142.1672 
L 290.329888 151.193756 
L 294.342472 140.982523 
L 298.355056 139.459566 
L 302.36764 149.445812 
L 306.380225 155.521075 
L 310.392809 144.239068 
L 314.405393 145.761168 
L 318.417978 142.493797 
L 322.430562 142.70694 
L 326.443146 142.821551 
L 330.45573 147.385716 
L 334.468315 144.028642 
L 338.480899 141.752928 
L 342.493483 141.122683 
L 346.506067 140.461874 
L 350.518652 138.672042 
L 354.531236 141.803902 
L 358.54382 140.574425 
L 362.556404 138.879437 
L 366.568989 141.654157 
L 370.581573 135.873608 
L 374.594157 146.733109 
L 378.606742 148.612018 
L 382.619326 141.597796 
L 386.63191 154.431993 
L 390.644494 146.376665 
L 394.657079 146.408926 
L 398.669663 139.175013 
L 402.682247 140.470562 
L 406.694831 141.513781 
L 410.707416 177.768981 
" style="fill:none;stroke:#0000ff;stroke-dasharray:1.5,2.475;stroke-dashoffset:0;stroke-width:1.5;"/>
    <defs>
     <path d="M 0 1.5 
C 0.397805 1.5 0.77937 1.341951 1.06066 1.06066 
C 1.341951 0.77937 1.5 0.397805 1.5 0 
C 1.5 -0.397805 1.341951 -0.77937 1.06066 -1.06066 
C 0.77937 -1.341951 0.397805 -1.5 0 -1.5 
C -0.397805 -1.5 -0.77937 -1.341951 -1.06066 -1.06066 
C -1.341951 -0.77937 -1.5 -0.397805 -1.5 0 
C -1.5 0.397805 -1.341951 0.77937 -1.06066 1.06066 
C -0.77937 1.341951 -0.397805 1.5 0 1.5 
z
" id="m23567058ca" style="stroke:#0000ff;"/>
    </defs>
    <g clip-path="url(#pa29c907676)">
     <use style="fill:#0000ff;stroke:#0000ff;" x="61.612584" xlink:href="#m23567058ca" y="295.488"/>
     <use style="fill:#0000ff;stroke:#0000ff;" x="65.625169" xlink:href="#m23567058ca" y="283.912745"/>
     <use style="fill:#0000ff;stroke:#0000ff;" x="69.637753" xlink:href="#m23567058ca" y="277.717283"/>
     <use style="fill:#0000ff;stroke:#0000ff;" x="73.650337" xlink:href="#m23567058ca" y="266.637906"/>
     <use style="fill:#0000ff;stroke:#0000ff;" x="77.662921" xlink:href="#m23567058ca" y="259.575111"/>
     <use style="fill:#0000ff;stroke:#0000ff;" x="81.675506" xlink:href="#m23567058ca" y="255.915102"/>
     <use style="fill:#0000ff;stroke:#0000ff;" x="85.68809" xlink:href="#m23567058ca" y="244.902933"/>
     <use style="fill:#0000ff;stroke:#0000ff;" x="89.700674" xlink:href="#m23567058ca" y="240.897051"/>
     <use style="fill:#0000ff;stroke:#0000ff;" x="93.713258" xlink:href="#m23567058ca" y="230.731832"/>
     <use style="fill:#0000ff;stroke:#0000ff;" x="97.725843" xlink:href="#m23567058ca" y="223.7548"/>
     <use style="fill:#0000ff;stroke:#0000ff;" x="101.738427" xlink:href="#m23567058ca" y="213.75004"/>
     <use style="fill:#0000ff;stroke:#0000ff;" x="105.751011" xlink:href="#m23567058ca" y="208.615396"/>
     <use style="fill:#0000ff;stroke:#0000ff;" x="109.763596" xlink:href="#m23567058ca" y="200.267184"/>
     <use style="fill:#0000ff;stroke:#0000ff;" x="113.77618" xlink:href="#m23567058ca" y="194.823166"/>
     <use style="fill:#0000ff;stroke:#0000ff;" x="117.788764" xlink:href="#m23567058ca" y="193.718774"/>
     <use style="fill:#0000ff;stroke:#0000ff;" x="121.801348" xlink:href="#m23567058ca" y="183.096667"/>
     <use style="fill:#0000ff;stroke:#0000ff;" x="125.813933" xlink:href="#m23567058ca" y="178.716219"/>
     <use style="fill:#0000ff;stroke:#0000ff;" x="129.826517" xlink:href="#m23567058ca" y="168.364021"/>
     <use style="fill:#0000ff;stroke:#0000ff;" x="133.839101" xlink:href="#m23567058ca" y="164.404766"/>
     <use style="fill:#0000ff;stroke:#0000ff;" x="137.851685" xlink:href="#m23567058ca" y="172.243255"/>
     <use style="fill:#0000ff;stroke:#0000ff;" x="141.86427" xlink:href="#m23567058ca" y="178.833546"/>
     <use style="fill:#0000ff;stroke:#0000ff;" x="145.876854" xlink:href="#m23567058ca" y="181.147359"/>
     <use style="fill:#0000ff;stroke:#0000ff;" x="149.889438" xlink:href="#m23567058ca" y="172.614693"/>
     <use style="fill:#0000ff;stroke:#0000ff;" x="153.902022" xlink:href="#m23567058ca" y="164.221249"/>
     <use style="fill:#0000ff;stroke:#0000ff;" x="157.914607" xlink:href="#m23567058ca" y="162.472235"/>
     <use style="fill:#0000ff;stroke:#0000ff;" x="161.927191" xlink:href="#m23567058ca" y="168.554044"/>
     <use style="fill:#0000ff;stroke:#0000ff;" x="165.939775" xlink:href="#m23567058ca" y="176.985576"/>
     <use style="fill:#0000ff;stroke:#0000ff;" x="169.95236" xlink:href="#m23567058ca" y="174.790079"/>
     <use style="fill:#0000ff;stroke:#0000ff;" x="173.964944" xlink:href="#m23567058ca" y="168.398057"/>
     <use style="fill:#0000ff;stroke:#0000ff;" x="177.977528" xlink:href="#m23567058ca" y="165.077373"/>
     <use style="fill:#0000ff;stroke:#0000ff;" x="181.990112" xlink:href="#m23567058ca" y="158.370698"/>
     <use style="fill:#0000ff;stroke:#0000ff;" x="186.002697" xlink:href="#m23567058ca" y="156.581746"/>
     <use style="fill:#0000ff;stroke:#0000ff;" x="190.015281" xlink:href="#m23567058ca" y="153.178134"/>
     <use style="fill:#0000ff;stroke:#0000ff;" x="194.027865" xlink:href="#m23567058ca" y="153.329342"/>
     <use style="fill:#0000ff;stroke:#0000ff;" x="198.040449" xlink:href="#m23567058ca" y="148.800477"/>
     <use style="fill:#0000ff;stroke:#0000ff;" x="202.053034" xlink:href="#m23567058ca" y="144.638969"/>
     <use style="fill:#0000ff;stroke:#0000ff;" x="206.065618" xlink:href="#m23567058ca" y="140.186574"/>
     <use style="fill:#0000ff;stroke:#0000ff;" x="210.078202" xlink:href="#m23567058ca" y="144.78304"/>
     <use style="fill:#0000ff;stroke:#0000ff;" x="214.090787" xlink:href="#m23567058ca" y="141.150623"/>
     <use style="fill:#0000ff;stroke:#0000ff;" x="218.103371" xlink:href="#m23567058ca" y="140.175228"/>
     <use style="fill:#0000ff;stroke:#0000ff;" x="222.115955" xlink:href="#m23567058ca" y="134.25306"/>
     <use style="fill:#0000ff;stroke:#0000ff;" x="226.128539" xlink:href="#m23567058ca" y="138.411404"/>
     <use style="fill:#0000ff;stroke:#0000ff;" x="230.141124" xlink:href="#m23567058ca" y="132.021002"/>
     <use style="fill:#0000ff;stroke:#0000ff;" x="234.153708" xlink:href="#m23567058ca" y="133.954281"/>
     <use style="fill:#0000ff;stroke:#0000ff;" x="238.166292" xlink:href="#m23567058ca" y="132.093862"/>
     <use style="fill:#0000ff;stroke:#0000ff;" x="242.178876" xlink:href="#m23567058ca" y="144.578912"/>
     <use style="fill:#0000ff;stroke:#0000ff;" x="246.191461" xlink:href="#m23567058ca" y="138.32128"/>
     <use style="fill:#0000ff;stroke:#0000ff;" x="250.204045" xlink:href="#m23567058ca" y="138.674262"/>
     <use style="fill:#0000ff;stroke:#0000ff;" x="254.216629" xlink:href="#m23567058ca" y="134.755299"/>
     <use style="fill:#0000ff;stroke:#0000ff;" x="258.229213" xlink:href="#m23567058ca" y="134.155767"/>
     <use style="fill:#0000ff;stroke:#0000ff;" x="262.241798" xlink:href="#m23567058ca" y="136.068859"/>
     <use style="fill:#0000ff;stroke:#0000ff;" x="266.254382" xlink:href="#m23567058ca" y="146.791719"/>
     <use style="fill:#0000ff;stroke:#0000ff;" x="270.266966" xlink:href="#m23567058ca" y="141.054092"/>
     <use style="fill:#0000ff;stroke:#0000ff;" x="274.279551" xlink:href="#m23567058ca" y="141.215588"/>
     <use style="fill:#0000ff;stroke:#0000ff;" x="278.292135" xlink:href="#m23567058ca" y="161.103262"/>
     <use style="fill:#0000ff;stroke:#0000ff;" x="282.304719" xlink:href="#m23567058ca" y="154.17106"/>
     <use style="fill:#0000ff;stroke:#0000ff;" x="286.317303" xlink:href="#m23567058ca" y="142.1672"/>
     <use style="fill:#0000ff;stroke:#0000ff;" x="290.329888" xlink:href="#m23567058ca" y="151.193756"/>
     <use style="fill:#0000ff;stroke:#0000ff;" x="294.342472" xlink:href="#m23567058ca" y="140.982523"/>
     <use style="fill:#0000ff;stroke:#0000ff;" x="298.355056" xlink:href="#m23567058ca" y="139.459566"/>
     <use style="fill:#0000ff;stroke:#0000ff;" x="302.36764" xlink:href="#m23567058ca" y="149.445812"/>
     <use style="fill:#0000ff;stroke:#0000ff;" x="306.380225" xlink:href="#m23567058ca" y="155.521075"/>
     <use style="fill:#0000ff;stroke:#0000ff;" x="310.392809" xlink:href="#m23567058ca" y="144.239068"/>
     <use style="fill:#0000ff;stroke:#0000ff;" x="314.405393" xlink:href="#m23567058ca" y="145.761168"/>
     <use style="fill:#0000ff;stroke:#0000ff;" x="318.417978" xlink:href="#m23567058ca" y="142.493797"/>
     <use style="fill:#0000ff;stroke:#0000ff;" x="322.430562" xlink:href="#m23567058ca" y="142.70694"/>
     <use style="fill:#0000ff;stroke:#0000ff;" x="326.443146" xlink:href="#m23567058ca" y="142.821551"/>
     <use style="fill:#0000ff;stroke:#0000ff;" x="330.45573" xlink:href="#m23567058ca" y="147.385716"/>
     <use style="fill:#0000ff;stroke:#0000ff;" x="334.468315" xlink:href="#m23567058ca" y="144.028642"/>
     <use style="fill:#0000ff;stroke:#0000ff;" x="338.480899" xlink:href="#m23567058ca" y="141.752928"/>
     <use style="fill:#0000ff;stroke:#0000ff;" x="342.493483" xlink:href="#m23567058ca" y="141.122683"/>
     <use style="fill:#0000ff;stroke:#0000ff;" x="346.506067" xlink:href="#m23567058ca" y="140.461874"/>
     <use style="fill:#0000ff;stroke:#0000ff;" x="350.518652" xlink:href="#m23567058ca" y="138.672042"/>
     <use style="fill:#0000ff;stroke:#0000ff;" x="354.531236" xlink:href="#m23567058ca" y="141.803902"/>
     <use style="fill:#0000ff;stroke:#0000ff;" x="358.54382" xlink:href="#m23567058ca" y="140.574425"/>
     <use style="fill:#0000ff;stroke:#0000ff;" x="362.556404" xlink:href="#m23567058ca" y="138.879437"/>
     <use style="fill:#0000ff;stroke:#0000ff;" x="366.568989" xlink:href="#m23567058ca" y="141.654157"/>
     <use style="fill:#0000ff;stroke:#0000ff;" x="370.581573" xlink:href="#m23567058ca" y="135.873608"/>
     <use style="fill:#0000ff;stroke:#0000ff;" x="374.594157" xlink:href="#m23567058ca" y="146.733109"/>
     <use style="fill:#0000ff;stroke:#0000ff;" x="378.606742" xlink:href="#m23567058ca" y="148.612018"/>
     <use style="fill:#0000ff;stroke:#0000ff;" x="382.619326" xlink:href="#m23567058ca" y="141.597796"/>
     <use style="fill:#0000ff;stroke:#0000ff;" x="386.63191" xlink:href="#m23567058ca" y="154.431993"/>
     <use style="fill:#0000ff;stroke:#0000ff;" x="390.644494" xlink:href="#m23567058ca" y="146.376665"/>
     <use style="fill:#0000ff;stroke:#0000ff;" x="394.657079" xlink:href="#m23567058ca" y="146.408926"/>
     <use style="fill:#0000ff;stroke:#0000ff;" x="398.669663" xlink:href="#m23567058ca" y="139.175013"/>
     <use style="fill:#0000ff;stroke:#0000ff;" x="402.682247" xlink:href="#m23567058ca" y="140.470562"/>
     <use style="fill:#0000ff;stroke:#0000ff;" x="406.694831" xlink:href="#m23567058ca" y="141.513781"/>
     <use style="fill:#0000ff;stroke:#0000ff;" x="410.707416" xlink:href="#m23567058ca" y="177.768981"/>
    </g>
   </g>
   <g id="line2d_60">
    <path clip-path="url(#pa29c907676)" d="M 61.612584 289.490194 
L 65.625169 273.147711 
L 69.637753 262.332916 
L 73.650337 245.805555 
L 77.662921 233.633708 
L 81.675506 225.728107 
L 85.68809 210.991935 
L 89.700674 202.398604 
L 93.713258 189.238907 
L 97.725843 176.494999 
L 101.738427 164.627289 
L 105.751011 152.987518 
L 109.763596 142.964551 
L 113.77618 133.943292 
L 117.788764 124.354 
L 121.801348 115.989643 
L 125.813933 109.205921 
L 129.826517 98.624223 
L 133.839101 90.452685 
L 137.851685 103.57485 
L 141.86427 108.07354 
L 145.876854 112.765016 
L 149.889438 110.489768 
L 153.902022 109.491132 
L 157.914607 104.310886 
L 161.927191 101.677702 
L 165.939775 106.241746 
L 169.95236 108.532621 
L 173.964944 102.157647 
L 177.977528 99.03137 
L 181.990112 97.636739 
L 186.002697 89.120596 
L 190.015281 84.458638 
L 194.027865 86.410124 
L 198.040449 81.944995 
L 202.053034 81.714922 
L 206.065618 87.734827 
L 210.078202 82.804328 
L 214.090787 87.434093 
L 218.103371 85.20892 
L 222.115955 67.510219 
L 226.128539 69.440815 
L 230.141124 58.423085 
L 234.153708 67.976787 
L 238.166292 56.852427 
L 242.178876 60.409151 
L 246.191461 67.477761 
L 250.204045 53.568 
L 254.216629 78.781545 
L 258.229213 78.611367 
L 262.241798 73.515816 
L 266.254382 81.575583 
L 270.266966 93.491499 
L 274.279551 97.365041 
L 278.292135 90.464499 
L 282.304719 94.685604 
L 286.317303 85.457066 
L 290.329888 84.142191 
L 294.342472 81.445099 
L 298.355056 71.525064 
L 302.36764 86.966208 
L 306.380225 76.002534 
L 310.392809 89.472641 
L 314.405393 88.931849 
L 318.417978 86.667987 
L 322.430562 86.210724 
L 326.443146 85.75581 
L 330.45573 76.858764 
L 334.468315 91.287358 
L 338.480899 81.821778 
L 342.493483 89.469003 
L 346.506067 88.246728 
L 350.518652 87.006956 
L 354.531236 87.372382 
L 358.54382 86.070945 
L 362.556404 87.653453 
L 366.568989 87.120846 
L 370.581573 90.347499 
L 374.594157 92.48899 
L 378.606742 90.553365 
L 382.619326 94.92807 
L 386.63191 87.333834 
L 390.644494 90.921246 
L 394.657079 99.049256 
L 398.669663 93.989276 
L 402.682247 95.528908 
L 406.694831 125.096642 
L 410.707416 123.766921 
" style="fill:none;stroke:#ff0000;stroke-dasharray:1.5,2.475;stroke-dashoffset:0;stroke-width:1.5;"/>
    <defs>
     <path d="M 0 1.5 
C 0.397805 1.5 0.77937 1.341951 1.06066 1.06066 
C 1.341951 0.77937 1.5 0.397805 1.5 0 
C 1.5 -0.397805 1.341951 -0.77937 1.06066 -1.06066 
C 0.77937 -1.341951 0.397805 -1.5 0 -1.5 
C -0.397805 -1.5 -0.77937 -1.341951 -1.06066 -1.06066 
C -1.341951 -0.77937 -1.5 -0.397805 -1.5 0 
C -1.5 0.397805 -1.341951 0.77937 -1.06066 1.06066 
C -0.77937 1.341951 -0.397805 1.5 0 1.5 
z
" id="mdbd536a0ad" style="stroke:#ff0000;"/>
    </defs>
    <g clip-path="url(#pa29c907676)">
     <use style="fill:#ff0000;stroke:#ff0000;" x="61.612584" xlink:href="#mdbd536a0ad" y="289.490194"/>
     <use style="fill:#ff0000;stroke:#ff0000;" x="65.625169" xlink:href="#mdbd536a0ad" y="273.147711"/>
     <use style="fill:#ff0000;stroke:#ff0000;" x="69.637753" xlink:href="#mdbd536a0ad" y="262.332916"/>
     <use style="fill:#ff0000;stroke:#ff0000;" x="73.650337" xlink:href="#mdbd536a0ad" y="245.805555"/>
     <use style="fill:#ff0000;stroke:#ff0000;" x="77.662921" xlink:href="#mdbd536a0ad" y="233.633708"/>
     <use style="fill:#ff0000;stroke:#ff0000;" x="81.675506" xlink:href="#mdbd536a0ad" y="225.728107"/>
     <use style="fill:#ff0000;stroke:#ff0000;" x="85.68809" xlink:href="#mdbd536a0ad" y="210.991935"/>
     <use style="fill:#ff0000;stroke:#ff0000;" x="89.700674" xlink:href="#mdbd536a0ad" y="202.398604"/>
     <use style="fill:#ff0000;stroke:#ff0000;" x="93.713258" xlink:href="#mdbd536a0ad" y="189.238907"/>
     <use style="fill:#ff0000;stroke:#ff0000;" x="97.725843" xlink:href="#mdbd536a0ad" y="176.494999"/>
     <use style="fill:#ff0000;stroke:#ff0000;" x="101.738427" xlink:href="#mdbd536a0ad" y="164.627289"/>
     <use style="fill:#ff0000;stroke:#ff0000;" x="105.751011" xlink:href="#mdbd536a0ad" y="152.987518"/>
     <use style="fill:#ff0000;stroke:#ff0000;" x="109.763596" xlink:href="#mdbd536a0ad" y="142.964551"/>
     <use style="fill:#ff0000;stroke:#ff0000;" x="113.77618" xlink:href="#mdbd536a0ad" y="133.943292"/>
     <use style="fill:#ff0000;stroke:#ff0000;" x="117.788764" xlink:href="#mdbd536a0ad" y="124.354"/>
     <use style="fill:#ff0000;stroke:#ff0000;" x="121.801348" xlink:href="#mdbd536a0ad" y="115.989643"/>
     <use style="fill:#ff0000;stroke:#ff0000;" x="125.813933" xlink:href="#mdbd536a0ad" y="109.205921"/>
     <use style="fill:#ff0000;stroke:#ff0000;" x="129.826517" xlink:href="#mdbd536a0ad" y="98.624223"/>
     <use style="fill:#ff0000;stroke:#ff0000;" x="133.839101" xlink:href="#mdbd536a0ad" y="90.452685"/>
     <use style="fill:#ff0000;stroke:#ff0000;" x="137.851685" xlink:href="#mdbd536a0ad" y="103.57485"/>
     <use style="fill:#ff0000;stroke:#ff0000;" x="141.86427" xlink:href="#mdbd536a0ad" y="108.07354"/>
     <use style="fill:#ff0000;stroke:#ff0000;" x="145.876854" xlink:href="#mdbd536a0ad" y="112.765016"/>
     <use style="fill:#ff0000;stroke:#ff0000;" x="149.889438" xlink:href="#mdbd536a0ad" y="110.489768"/>
     <use style="fill:#ff0000;stroke:#ff0000;" x="153.902022" xlink:href="#mdbd536a0ad" y="109.491132"/>
     <use style="fill:#ff0000;stroke:#ff0000;" x="157.914607" xlink:href="#mdbd536a0ad" y="104.310886"/>
     <use style="fill:#ff0000;stroke:#ff0000;" x="161.927191" xlink:href="#mdbd536a0ad" y="101.677702"/>
     <use style="fill:#ff0000;stroke:#ff0000;" x="165.939775" xlink:href="#mdbd536a0ad" y="106.241746"/>
     <use style="fill:#ff0000;stroke:#ff0000;" x="169.95236" xlink:href="#mdbd536a0ad" y="108.532621"/>
     <use style="fill:#ff0000;stroke:#ff0000;" x="173.964944" xlink:href="#mdbd536a0ad" y="102.157647"/>
     <use style="fill:#ff0000;stroke:#ff0000;" x="177.977528" xlink:href="#mdbd536a0ad" y="99.03137"/>
     <use style="fill:#ff0000;stroke:#ff0000;" x="181.990112" xlink:href="#mdbd536a0ad" y="97.636739"/>
     <use style="fill:#ff0000;stroke:#ff0000;" x="186.002697" xlink:href="#mdbd536a0ad" y="89.120596"/>
     <use style="fill:#ff0000;stroke:#ff0000;" x="190.015281" xlink:href="#mdbd536a0ad" y="84.458638"/>
     <use style="fill:#ff0000;stroke:#ff0000;" x="194.027865" xlink:href="#mdbd536a0ad" y="86.410124"/>
     <use style="fill:#ff0000;stroke:#ff0000;" x="198.040449" xlink:href="#mdbd536a0ad" y="81.944995"/>
     <use style="fill:#ff0000;stroke:#ff0000;" x="202.053034" xlink:href="#mdbd536a0ad" y="81.714922"/>
     <use style="fill:#ff0000;stroke:#ff0000;" x="206.065618" xlink:href="#mdbd536a0ad" y="87.734827"/>
     <use style="fill:#ff0000;stroke:#ff0000;" x="210.078202" xlink:href="#mdbd536a0ad" y="82.804328"/>
     <use style="fill:#ff0000;stroke:#ff0000;" x="214.090787" xlink:href="#mdbd536a0ad" y="87.434093"/>
     <use style="fill:#ff0000;stroke:#ff0000;" x="218.103371" xlink:href="#mdbd536a0ad" y="85.20892"/>
     <use style="fill:#ff0000;stroke:#ff0000;" x="222.115955" xlink:href="#mdbd536a0ad" y="67.510219"/>
     <use style="fill:#ff0000;stroke:#ff0000;" x="226.128539" xlink:href="#mdbd536a0ad" y="69.440815"/>
     <use style="fill:#ff0000;stroke:#ff0000;" x="230.141124" xlink:href="#mdbd536a0ad" y="58.423085"/>
     <use style="fill:#ff0000;stroke:#ff0000;" x="234.153708" xlink:href="#mdbd536a0ad" y="67.976787"/>
     <use style="fill:#ff0000;stroke:#ff0000;" x="238.166292" xlink:href="#mdbd536a0ad" y="56.852427"/>
     <use style="fill:#ff0000;stroke:#ff0000;" x="242.178876" xlink:href="#mdbd536a0ad" y="60.409151"/>
     <use style="fill:#ff0000;stroke:#ff0000;" x="246.191461" xlink:href="#mdbd536a0ad" y="67.477761"/>
     <use style="fill:#ff0000;stroke:#ff0000;" x="250.204045" xlink:href="#mdbd536a0ad" y="53.568"/>
     <use style="fill:#ff0000;stroke:#ff0000;" x="254.216629" xlink:href="#mdbd536a0ad" y="78.781545"/>
     <use style="fill:#ff0000;stroke:#ff0000;" x="258.229213" xlink:href="#mdbd536a0ad" y="78.611367"/>
     <use style="fill:#ff0000;stroke:#ff0000;" x="262.241798" xlink:href="#mdbd536a0ad" y="73.515816"/>
     <use style="fill:#ff0000;stroke:#ff0000;" x="266.254382" xlink:href="#mdbd536a0ad" y="81.575583"/>
     <use style="fill:#ff0000;stroke:#ff0000;" x="270.266966" xlink:href="#mdbd536a0ad" y="93.491499"/>
     <use style="fill:#ff0000;stroke:#ff0000;" x="274.279551" xlink:href="#mdbd536a0ad" y="97.365041"/>
     <use style="fill:#ff0000;stroke:#ff0000;" x="278.292135" xlink:href="#mdbd536a0ad" y="90.464499"/>
     <use style="fill:#ff0000;stroke:#ff0000;" x="282.304719" xlink:href="#mdbd536a0ad" y="94.685604"/>
     <use style="fill:#ff0000;stroke:#ff0000;" x="286.317303" xlink:href="#mdbd536a0ad" y="85.457066"/>
     <use style="fill:#ff0000;stroke:#ff0000;" x="290.329888" xlink:href="#mdbd536a0ad" y="84.142191"/>
     <use style="fill:#ff0000;stroke:#ff0000;" x="294.342472" xlink:href="#mdbd536a0ad" y="81.445099"/>
     <use style="fill:#ff0000;stroke:#ff0000;" x="298.355056" xlink:href="#mdbd536a0ad" y="71.525064"/>
     <use style="fill:#ff0000;stroke:#ff0000;" x="302.36764" xlink:href="#mdbd536a0ad" y="86.966208"/>
     <use style="fill:#ff0000;stroke:#ff0000;" x="306.380225" xlink:href="#mdbd536a0ad" y="76.002534"/>
     <use style="fill:#ff0000;stroke:#ff0000;" x="310.392809" xlink:href="#mdbd536a0ad" y="89.472641"/>
     <use style="fill:#ff0000;stroke:#ff0000;" x="314.405393" xlink:href="#mdbd536a0ad" y="88.931849"/>
     <use style="fill:#ff0000;stroke:#ff0000;" x="318.417978" xlink:href="#mdbd536a0ad" y="86.667987"/>
     <use style="fill:#ff0000;stroke:#ff0000;" x="322.430562" xlink:href="#mdbd536a0ad" y="86.210724"/>
     <use style="fill:#ff0000;stroke:#ff0000;" x="326.443146" xlink:href="#mdbd536a0ad" y="85.75581"/>
     <use style="fill:#ff0000;stroke:#ff0000;" x="330.45573" xlink:href="#mdbd536a0ad" y="76.858764"/>
     <use style="fill:#ff0000;stroke:#ff0000;" x="334.468315" xlink:href="#mdbd536a0ad" y="91.287358"/>
     <use style="fill:#ff0000;stroke:#ff0000;" x="338.480899" xlink:href="#mdbd536a0ad" y="81.821778"/>
     <use style="fill:#ff0000;stroke:#ff0000;" x="342.493483" xlink:href="#mdbd536a0ad" y="89.469003"/>
     <use style="fill:#ff0000;stroke:#ff0000;" x="346.506067" xlink:href="#mdbd536a0ad" y="88.246728"/>
     <use style="fill:#ff0000;stroke:#ff0000;" x="350.518652" xlink:href="#mdbd536a0ad" y="87.006956"/>
     <use style="fill:#ff0000;stroke:#ff0000;" x="354.531236" xlink:href="#mdbd536a0ad" y="87.372382"/>
     <use style="fill:#ff0000;stroke:#ff0000;" x="358.54382" xlink:href="#mdbd536a0ad" y="86.070945"/>
     <use style="fill:#ff0000;stroke:#ff0000;" x="362.556404" xlink:href="#mdbd536a0ad" y="87.653453"/>
     <use style="fill:#ff0000;stroke:#ff0000;" x="366.568989" xlink:href="#mdbd536a0ad" y="87.120846"/>
     <use style="fill:#ff0000;stroke:#ff0000;" x="370.581573" xlink:href="#mdbd536a0ad" y="90.347499"/>
     <use style="fill:#ff0000;stroke:#ff0000;" x="374.594157" xlink:href="#mdbd536a0ad" y="92.48899"/>
     <use style="fill:#ff0000;stroke:#ff0000;" x="378.606742" xlink:href="#mdbd536a0ad" y="90.553365"/>
     <use style="fill:#ff0000;stroke:#ff0000;" x="382.619326" xlink:href="#mdbd536a0ad" y="94.92807"/>
     <use style="fill:#ff0000;stroke:#ff0000;" x="386.63191" xlink:href="#mdbd536a0ad" y="87.333834"/>
     <use style="fill:#ff0000;stroke:#ff0000;" x="390.644494" xlink:href="#mdbd536a0ad" y="90.921246"/>
     <use style="fill:#ff0000;stroke:#ff0000;" x="394.657079" xlink:href="#mdbd536a0ad" y="99.049256"/>
     <use style="fill:#ff0000;stroke:#ff0000;" x="398.669663" xlink:href="#mdbd536a0ad" y="93.989276"/>
     <use style="fill:#ff0000;stroke:#ff0000;" x="402.682247" xlink:href="#mdbd536a0ad" y="95.528908"/>
     <use style="fill:#ff0000;stroke:#ff0000;" x="406.694831" xlink:href="#mdbd536a0ad" y="125.096642"/>
     <use style="fill:#ff0000;stroke:#ff0000;" x="410.707416" xlink:href="#mdbd536a0ad" y="123.766921"/>
    </g>
   </g>
   <g id="line2d_61">
    <path clip-path="url(#pa29c907676)" d="M 61.612584 292.489097 
L 65.625169 278.530228 
L 69.637753 270.0251 
L 73.650337 256.221731 
L 77.662921 246.60441 
L 81.675506 240.821605 
L 85.68809 227.947434 
L 89.700674 221.647827 
L 93.713258 209.98537 
L 97.725843 200.1249 
L 101.738427 189.188665 
L 105.751011 180.801457 
L 109.763596 171.615867 
L 113.77618 164.383229 
L 117.788764 159.036387 
L 121.801348 149.543155 
L 125.813933 143.96107 
L 129.826517 133.494122 
L 133.839101 127.428725 
L 137.851685 137.909053 
L 141.86427 143.453543 
L 145.876854 146.956188 
L 149.889438 141.552231 
L 153.902022 136.85619 
L 157.914607 133.39156 
L 161.927191 135.115873 
L 165.939775 141.613661 
L 169.95236 141.66135 
L 173.964944 135.277852 
L 177.977528 132.054372 
L 181.990112 128.003718 
L 186.002697 122.851171 
L 190.015281 118.818386 
L 194.027865 119.869733 
L 198.040449 115.372736 
L 202.053034 113.176945 
L 206.065618 113.960701 
L 210.078202 113.793684 
L 214.090787 114.292358 
L 218.103371 112.692074 
L 222.115955 100.881639 
L 226.128539 103.926109 
L 230.141124 95.222044 
L 234.153708 100.965534 
L 238.166292 94.473145 
L 242.178876 102.494031 
L 246.191461 102.899521 
L 250.204045 96.121131 
L 254.216629 106.768422 
L 258.229213 106.383567 
L 262.241798 104.792338 
L 266.254382 114.183651 
L 270.266966 117.272796 
L 274.279551 119.290315 
L 278.292135 125.78388 
L 282.304719 124.428332 
L 286.317303 113.812133 
L 290.329888 117.667973 
L 294.342472 111.213811 
L 298.355056 105.492315 
L 302.36764 118.20601 
L 306.380225 115.761804 
L 310.392809 116.855854 
L 314.405393 117.346508 
L 318.417978 114.580892 
L 322.430562 114.458832 
L 326.443146 114.288681 
L 330.45573 112.12224 
L 334.468315 117.658 
L 338.480899 111.787353 
L 342.493483 115.295843 
L 346.506067 114.354301 
L 350.518652 112.839499 
L 354.531236 114.588142 
L 358.54382 113.322685 
L 362.556404 113.266445 
L 366.568989 114.387501 
L 370.581573 113.110554 
L 374.594157 119.611049 
L 378.606742 119.582692 
L 382.619326 118.262933 
L 386.63191 120.882913 
L 390.644494 118.648956 
L 394.657079 122.729091 
L 398.669663 116.582145 
L 402.682247 117.999735 
L 406.694831 133.305211 
L 410.707416 150.767951 
" style="fill:none;stroke:#008000;stroke-dasharray:1.5,2.475;stroke-dashoffset:0;stroke-width:1.5;"/>
    <defs>
     <path d="M 0 1.5 
C 0.397805 1.5 0.77937 1.341951 1.06066 1.06066 
C 1.341951 0.77937 1.5 0.397805 1.5 0 
C 1.5 -0.397805 1.341951 -0.77937 1.06066 -1.06066 
C 0.77937 -1.341951 0.397805 -1.5 0 -1.5 
C -0.397805 -1.5 -0.77937 -1.341951 -1.06066 -1.06066 
C -1.341951 -0.77937 -1.5 -0.397805 -1.5 0 
C -1.5 0.397805 -1.341951 0.77937 -1.06066 1.06066 
C -0.77937 1.341951 -0.397805 1.5 0 1.5 
z
" id="mf615efe78e" style="stroke:#008000;"/>
    </defs>
    <g clip-path="url(#pa29c907676)">
     <use style="fill:#008000;stroke:#008000;" x="61.612584" xlink:href="#mf615efe78e" y="292.489097"/>
     <use style="fill:#008000;stroke:#008000;" x="65.625169" xlink:href="#mf615efe78e" y="278.530228"/>
     <use style="fill:#008000;stroke:#008000;" x="69.637753" xlink:href="#mf615efe78e" y="270.0251"/>
     <use style="fill:#008000;stroke:#008000;" x="73.650337" xlink:href="#mf615efe78e" y="256.221731"/>
     <use style="fill:#008000;stroke:#008000;" x="77.662921" xlink:href="#mf615efe78e" y="246.60441"/>
     <use style="fill:#008000;stroke:#008000;" x="81.675506" xlink:href="#mf615efe78e" y="240.821605"/>
     <use style="fill:#008000;stroke:#008000;" x="85.68809" xlink:href="#mf615efe78e" y="227.947434"/>
     <use style="fill:#008000;stroke:#008000;" x="89.700674" xlink:href="#mf615efe78e" y="221.647827"/>
     <use style="fill:#008000;stroke:#008000;" x="93.713258" xlink:href="#mf615efe78e" y="209.98537"/>
     <use style="fill:#008000;stroke:#008000;" x="97.725843" xlink:href="#mf615efe78e" y="200.1249"/>
     <use style="fill:#008000;stroke:#008000;" x="101.738427" xlink:href="#mf615efe78e" y="189.188665"/>
     <use style="fill:#008000;stroke:#008000;" x="105.751011" xlink:href="#mf615efe78e" y="180.801457"/>
     <use style="fill:#008000;stroke:#008000;" x="109.763596" xlink:href="#mf615efe78e" y="171.615867"/>
     <use style="fill:#008000;stroke:#008000;" x="113.77618" xlink:href="#mf615efe78e" y="164.383229"/>
     <use style="fill:#008000;stroke:#008000;" x="117.788764" xlink:href="#mf615efe78e" y="159.036387"/>
     <use style="fill:#008000;stroke:#008000;" x="121.801348" xlink:href="#mf615efe78e" y="149.543155"/>
     <use style="fill:#008000;stroke:#008000;" x="125.813933" xlink:href="#mf615efe78e" y="143.96107"/>
     <use style="fill:#008000;stroke:#008000;" x="129.826517" xlink:href="#mf615efe78e" y="133.494122"/>
     <use style="fill:#008000;stroke:#008000;" x="133.839101" xlink:href="#mf615efe78e" y="127.428725"/>
     <use style="fill:#008000;stroke:#008000;" x="137.851685" xlink:href="#mf615efe78e" y="137.909053"/>
     <use style="fill:#008000;stroke:#008000;" x="141.86427" xlink:href="#mf615efe78e" y="143.453543"/>
     <use style="fill:#008000;stroke:#008000;" x="145.876854" xlink:href="#mf615efe78e" y="146.956188"/>
     <use style="fill:#008000;stroke:#008000;" x="149.889438" xlink:href="#mf615efe78e" y="141.552231"/>
     <use style="fill:#008000;stroke:#008000;" x="153.902022" xlink:href="#mf615efe78e" y="136.85619"/>
     <use style="fill:#008000;stroke:#008000;" x="157.914607" xlink:href="#mf615efe78e" y="133.39156"/>
     <use style="fill:#008000;stroke:#008000;" x="161.927191" xlink:href="#mf615efe78e" y="135.115873"/>
     <use style="fill:#008000;stroke:#008000;" x="165.939775" xlink:href="#mf615efe78e" y="141.613661"/>
     <use style="fill:#008000;stroke:#008000;" x="169.95236" xlink:href="#mf615efe78e" y="141.66135"/>
     <use style="fill:#008000;stroke:#008000;" x="173.964944" xlink:href="#mf615efe78e" y="135.277852"/>
     <use style="fill:#008000;stroke:#008000;" x="177.977528" xlink:href="#mf615efe78e" y="132.054372"/>
     <use style="fill:#008000;stroke:#008000;" x="181.990112" xlink:href="#mf615efe78e" y="128.003718"/>
     <use style="fill:#008000;stroke:#008000;" x="186.002697" xlink:href="#mf615efe78e" y="122.851171"/>
     <use style="fill:#008000;stroke:#008000;" x="190.015281" xlink:href="#mf615efe78e" y="118.818386"/>
     <use style="fill:#008000;stroke:#008000;" x="194.027865" xlink:href="#mf615efe78e" y="119.869733"/>
     <use style="fill:#008000;stroke:#008000;" x="198.040449" xlink:href="#mf615efe78e" y="115.372736"/>
     <use style="fill:#008000;stroke:#008000;" x="202.053034" xlink:href="#mf615efe78e" y="113.176945"/>
     <use style="fill:#008000;stroke:#008000;" x="206.065618" xlink:href="#mf615efe78e" y="113.960701"/>
     <use style="fill:#008000;stroke:#008000;" x="210.078202" xlink:href="#mf615efe78e" y="113.793684"/>
     <use style="fill:#008000;stroke:#008000;" x="214.090787" xlink:href="#mf615efe78e" y="114.292358"/>
     <use style="fill:#008000;stroke:#008000;" x="218.103371" xlink:href="#mf615efe78e" y="112.692074"/>
     <use style="fill:#008000;stroke:#008000;" x="222.115955" xlink:href="#mf615efe78e" y="100.881639"/>
     <use style="fill:#008000;stroke:#008000;" x="226.128539" xlink:href="#mf615efe78e" y="103.926109"/>
     <use style="fill:#008000;stroke:#008000;" x="230.141124" xlink:href="#mf615efe78e" y="95.222044"/>
     <use style="fill:#008000;stroke:#008000;" x="234.153708" xlink:href="#mf615efe78e" y="100.965534"/>
     <use style="fill:#008000;stroke:#008000;" x="238.166292" xlink:href="#mf615efe78e" y="94.473145"/>
     <use style="fill:#008000;stroke:#008000;" x="242.178876" xlink:href="#mf615efe78e" y="102.494031"/>
     <use style="fill:#008000;stroke:#008000;" x="246.191461" xlink:href="#mf615efe78e" y="102.899521"/>
     <use style="fill:#008000;stroke:#008000;" x="250.204045" xlink:href="#mf615efe78e" y="96.121131"/>
     <use style="fill:#008000;stroke:#008000;" x="254.216629" xlink:href="#mf615efe78e" y="106.768422"/>
     <use style="fill:#008000;stroke:#008000;" x="258.229213" xlink:href="#mf615efe78e" y="106.383567"/>
     <use style="fill:#008000;stroke:#008000;" x="262.241798" xlink:href="#mf615efe78e" y="104.792338"/>
     <use style="fill:#008000;stroke:#008000;" x="266.254382" xlink:href="#mf615efe78e" y="114.183651"/>
     <use style="fill:#008000;stroke:#008000;" x="270.266966" xlink:href="#mf615efe78e" y="117.272796"/>
     <use style="fill:#008000;stroke:#008000;" x="274.279551" xlink:href="#mf615efe78e" y="119.290315"/>
     <use style="fill:#008000;stroke:#008000;" x="278.292135" xlink:href="#mf615efe78e" y="125.78388"/>
     <use style="fill:#008000;stroke:#008000;" x="282.304719" xlink:href="#mf615efe78e" y="124.428332"/>
     <use style="fill:#008000;stroke:#008000;" x="286.317303" xlink:href="#mf615efe78e" y="113.812133"/>
     <use style="fill:#008000;stroke:#008000;" x="290.329888" xlink:href="#mf615efe78e" y="117.667973"/>
     <use style="fill:#008000;stroke:#008000;" x="294.342472" xlink:href="#mf615efe78e" y="111.213811"/>
     <use style="fill:#008000;stroke:#008000;" x="298.355056" xlink:href="#mf615efe78e" y="105.492315"/>
     <use style="fill:#008000;stroke:#008000;" x="302.36764" xlink:href="#mf615efe78e" y="118.20601"/>
     <use style="fill:#008000;stroke:#008000;" x="306.380225" xlink:href="#mf615efe78e" y="115.761804"/>
     <use style="fill:#008000;stroke:#008000;" x="310.392809" xlink:href="#mf615efe78e" y="116.855854"/>
     <use style="fill:#008000;stroke:#008000;" x="314.405393" xlink:href="#mf615efe78e" y="117.346508"/>
     <use style="fill:#008000;stroke:#008000;" x="318.417978" xlink:href="#mf615efe78e" y="114.580892"/>
     <use style="fill:#008000;stroke:#008000;" x="322.430562" xlink:href="#mf615efe78e" y="114.458832"/>
     <use style="fill:#008000;stroke:#008000;" x="326.443146" xlink:href="#mf615efe78e" y="114.288681"/>
     <use style="fill:#008000;stroke:#008000;" x="330.45573" xlink:href="#mf615efe78e" y="112.12224"/>
     <use style="fill:#008000;stroke:#008000;" x="334.468315" xlink:href="#mf615efe78e" y="117.658"/>
     <use style="fill:#008000;stroke:#008000;" x="338.480899" xlink:href="#mf615efe78e" y="111.787353"/>
     <use style="fill:#008000;stroke:#008000;" x="342.493483" xlink:href="#mf615efe78e" y="115.295843"/>
     <use style="fill:#008000;stroke:#008000;" x="346.506067" xlink:href="#mf615efe78e" y="114.354301"/>
     <use style="fill:#008000;stroke:#008000;" x="350.518652" xlink:href="#mf615efe78e" y="112.839499"/>
     <use style="fill:#008000;stroke:#008000;" x="354.531236" xlink:href="#mf615efe78e" y="114.588142"/>
     <use style="fill:#008000;stroke:#008000;" x="358.54382" xlink:href="#mf615efe78e" y="113.322685"/>
     <use style="fill:#008000;stroke:#008000;" x="362.556404" xlink:href="#mf615efe78e" y="113.266445"/>
     <use style="fill:#008000;stroke:#008000;" x="366.568989" xlink:href="#mf615efe78e" y="114.387501"/>
     <use style="fill:#008000;stroke:#008000;" x="370.581573" xlink:href="#mf615efe78e" y="113.110554"/>
     <use style="fill:#008000;stroke:#008000;" x="374.594157" xlink:href="#mf615efe78e" y="119.611049"/>
     <use style="fill:#008000;stroke:#008000;" x="378.606742" xlink:href="#mf615efe78e" y="119.582692"/>
     <use style="fill:#008000;stroke:#008000;" x="382.619326" xlink:href="#mf615efe78e" y="118.262933"/>
     <use style="fill:#008000;stroke:#008000;" x="386.63191" xlink:href="#mf615efe78e" y="120.882913"/>
     <use style="fill:#008000;stroke:#008000;" x="390.644494" xlink:href="#mf615efe78e" y="118.648956"/>
     <use style="fill:#008000;stroke:#008000;" x="394.657079" xlink:href="#mf615efe78e" y="122.729091"/>
     <use style="fill:#008000;stroke:#008000;" x="398.669663" xlink:href="#mf615efe78e" y="116.582145"/>
     <use style="fill:#008000;stroke:#008000;" x="402.682247" xlink:href="#mf615efe78e" y="117.999735"/>
     <use style="fill:#008000;stroke:#008000;" x="406.694831" xlink:href="#mf615efe78e" y="133.305211"/>
     <use style="fill:#008000;stroke:#008000;" x="410.707416" xlink:href="#mf615efe78e" y="150.767951"/>
    </g>
   </g>
   <g id="patch_3">
    <path d="M 57.6 307.584 
L 57.6 41.472 
" style="fill:none;stroke:#000000;stroke-linecap:square;stroke-linejoin:miter;stroke-width:0.8;"/>
   </g>
   <g id="patch_4">
    <path d="M 414.72 307.584 
L 414.72 41.472 
" style="fill:none;stroke:#000000;stroke-linecap:square;stroke-linejoin:miter;stroke-width:0.8;"/>
   </g>
   <g id="patch_5">
    <path d="M 57.6 307.584 
L 414.72 307.584 
" style="fill:none;stroke:#000000;stroke-linecap:square;stroke-linejoin:miter;stroke-width:0.8;"/>
   </g>
   <g id="patch_6">
    <path d="M 57.6 41.472 
L 414.72 41.472 
" style="fill:none;stroke:#000000;stroke-linecap:square;stroke-linejoin:miter;stroke-width:0.8;"/>
   </g>
   <g id="text_32">
    <!-- radix sort 5 on pre_transpose41 -->
    <defs>
     <path d="M 9.421875 54.6875 
L 18.40625 54.6875 
L 18.40625 0 
L 9.421875 0 
z
M 9.421875 75.984375 
L 18.40625 75.984375 
L 18.40625 64.59375 
L 9.421875 64.59375 
z
" id="DejaVuSans-105"/>
     <path d="M 54.890625 54.6875 
L 35.109375 28.078125 
L 55.90625 0 
L 45.3125 0 
L 29.390625 21.484375 
L 13.484375 0 
L 2.875 0 
L 24.125 28.609375 
L 4.6875 54.6875 
L 15.28125 54.6875 
L 29.78125 35.203125 
L 44.28125 54.6875 
z
" id="DejaVuSans-120"/>
     <path d="M 30.609375 48.390625 
Q 23.390625 48.390625 19.1875 42.75 
Q 14.984375 37.109375 14.984375 27.296875 
Q 14.984375 17.484375 19.15625 11.84375 
Q 23.34375 6.203125 30.609375 6.203125 
Q 37.796875 6.203125 41.984375 11.859375 
Q 46.1875 17.53125 46.1875 27.296875 
Q 46.1875 37.015625 41.984375 42.703125 
Q 37.796875 48.390625 30.609375 48.390625 
z
M 30.609375 56 
Q 42.328125 56 49.015625 48.375 
Q 55.71875 40.765625 55.71875 27.296875 
Q 55.71875 13.875 49.015625 6.21875 
Q 42.328125 -1.421875 30.609375 -1.421875 
Q 18.84375 -1.421875 12.171875 6.21875 
Q 5.515625 13.875 5.515625 27.296875 
Q 5.515625 40.765625 12.171875 48.375 
Q 18.84375 56 30.609375 56 
z
" id="DejaVuSans-111"/>
     <path d="M 54.890625 33.015625 
L 54.890625 0 
L 45.90625 0 
L 45.90625 32.71875 
Q 45.90625 40.484375 42.875 44.328125 
Q 39.84375 48.1875 33.796875 48.1875 
Q 26.515625 48.1875 22.3125 43.546875 
Q 18.109375 38.921875 18.109375 30.90625 
L 18.109375 0 
L 9.078125 0 
L 9.078125 54.6875 
L 18.109375 54.6875 
L 18.109375 46.1875 
Q 21.34375 51.125 25.703125 53.5625 
Q 30.078125 56 35.796875 56 
Q 45.21875 56 50.046875 50.171875 
Q 54.890625 44.34375 54.890625 33.015625 
z
" id="DejaVuSans-110"/>
     <path d="M 50.984375 -16.609375 
L 50.984375 -23.578125 
L -0.984375 -23.578125 
L -0.984375 -16.609375 
z
" id="DejaVuSans-95"/>
    </defs>
    <g transform="translate(140.265938 35.472)scale(0.12 -0.12)">
     <use xlink:href="#DejaVuSans-114"/>
     <use x="41.113281" xlink:href="#DejaVuSans-97"/>
     <use x="102.392578" xlink:href="#DejaVuSans-100"/>
     <use x="165.869141" xlink:href="#DejaVuSans-105"/>
     <use x="193.652344" xlink:href="#DejaVuSans-120"/>
     <use x="252.832031" xlink:href="#DejaVuSans-32"/>
     <use x="284.619141" xlink:href="#DejaVuSans-115"/>
     <use x="336.71875" xlink:href="#DejaVuSans-111"/>
     <use x="397.900391" xlink:href="#DejaVuSans-114"/>
     <use x="439.013672" xlink:href="#DejaVuSans-116"/>
     <use x="478.222656" xlink:href="#DejaVuSans-32"/>
     <use x="510.009766" xlink:href="#DejaVuSans-53"/>
     <use x="573.632812" xlink:href="#DejaVuSans-32"/>
     <use x="605.419922" xlink:href="#DejaVuSans-111"/>
     <use x="666.601562" xlink:href="#DejaVuSans-110"/>
     <use x="729.980469" xlink:href="#DejaVuSans-32"/>
     <use x="761.767578" xlink:href="#DejaVuSans-112"/>
     <use x="825.244141" xlink:href="#DejaVuSans-114"/>
     <use x="864.107422" xlink:href="#DejaVuSans-101"/>
     <use x="925.630859" xlink:href="#DejaVuSans-95"/>
     <use x="975.630859" xlink:href="#DejaVuSans-116"/>
     <use x="1014.839844" xlink:href="#DejaVuSans-114"/>
     <use x="1055.953125" xlink:href="#DejaVuSans-97"/>
     <use x="1117.232422" xlink:href="#DejaVuSans-110"/>
     <use x="1180.611328" xlink:href="#DejaVuSans-115"/>
     <use x="1232.710938" xlink:href="#DejaVuSans-112"/>
     <use x="1296.1875" xlink:href="#DejaVuSans-111"/>
     <use x="1357.369141" xlink:href="#DejaVuSans-115"/>
     <use x="1409.46875" xlink:href="#DejaVuSans-101"/>
     <use x="1470.992188" xlink:href="#DejaVuSans-52"/>
     <use x="1534.615234" xlink:href="#DejaVuSans-49"/>
    </g>
   </g>
   <g id="legend_1">
    <g id="patch_7">
     <path d="M 313.152813 302.584 
L 407.72 302.584 
Q 409.72 302.584 409.72 300.584 
L 409.72 257.2715 
Q 409.72 255.2715 407.72 255.2715 
L 313.152813 255.2715 
Q 311.152813 255.2715 311.152813 257.2715 
L 311.152813 300.584 
Q 311.152813 302.584 313.152813 302.584 
z
" style="fill:#ffffff;opacity:0.8;stroke:#cccccc;stroke-linejoin:miter;"/>
    </g>
    <g id="line2d_62">
     <path d="M 315.152813 263.369937 
L 335.152813 263.369937 
" style="fill:none;stroke:#0000ff;stroke-dasharray:1.5,2.475;stroke-dashoffset:0;stroke-width:1.5;"/>
    </g>
    <g id="line2d_63">
     <g>
      <use style="fill:#0000ff;stroke:#0000ff;" x="325.152813" xlink:href="#m23567058ca" y="263.369937"/>
     </g>
    </g>
    <g id="text_33">
     <!-- transpose -->
     <g transform="translate(343.152813 266.869937)scale(0.1 -0.1)">
      <use xlink:href="#DejaVuSans-116"/>
      <use x="39.208984" xlink:href="#DejaVuSans-114"/>
      <use x="80.322266" xlink:href="#DejaVuSans-97"/>
      <use x="141.601562" xlink:href="#DejaVuSans-110"/>
      <use x="204.980469" xlink:href="#DejaVuSans-115"/>
      <use x="257.080078" xlink:href="#DejaVuSans-112"/>
      <use x="320.556641" xlink:href="#DejaVuSans-111"/>
      <use x="381.738281" xlink:href="#DejaVuSans-115"/>
      <use x="433.837891" xlink:href="#DejaVuSans-101"/>
     </g>
    </g>
    <g id="line2d_64">
     <path d="M 315.152813 278.048063 
L 335.152813 278.048063 
" style="fill:none;stroke:#ff0000;stroke-dasharray:1.5,2.475;stroke-dashoffset:0;stroke-width:1.5;"/>
    </g>
    <g id="line2d_65">
     <g>
      <use style="fill:#ff0000;stroke:#ff0000;" x="325.152813" xlink:href="#mdbd536a0ad" y="278.048063"/>
     </g>
    </g>
    <g id="text_34">
     <!-- transpose_tr -->
     <g transform="translate(343.152813 281.548063)scale(0.1 -0.1)">
      <use xlink:href="#DejaVuSans-116"/>
      <use x="39.208984" xlink:href="#DejaVuSans-114"/>
      <use x="80.322266" xlink:href="#DejaVuSans-97"/>
      <use x="141.601562" xlink:href="#DejaVuSans-110"/>
      <use x="204.980469" xlink:href="#DejaVuSans-115"/>
      <use x="257.080078" xlink:href="#DejaVuSans-112"/>
      <use x="320.556641" xlink:href="#DejaVuSans-111"/>
      <use x="381.738281" xlink:href="#DejaVuSans-115"/>
      <use x="433.837891" xlink:href="#DejaVuSans-101"/>
      <use x="495.361328" xlink:href="#DejaVuSans-95"/>
      <use x="545.361328" xlink:href="#DejaVuSans-116"/>
      <use x="584.570312" xlink:href="#DejaVuSans-114"/>
     </g>
    </g>
    <g id="line2d_66">
     <path d="M 315.152813 293.004312 
L 335.152813 293.004312 
" style="fill:none;stroke:#008000;stroke-dasharray:1.5,2.475;stroke-dashoffset:0;stroke-width:1.5;"/>
    </g>
    <g id="line2d_67">
     <g>
      <use style="fill:#008000;stroke:#008000;" x="325.152813" xlink:href="#mf615efe78e" y="293.004312"/>
     </g>
    </g>
    <g id="text_35">
     <!-- mean -->
     <defs>
      <path d="M 52 44.1875 
Q 55.375 50.25 60.0625 53.125 
Q 64.75 56 71.09375 56 
Q 79.640625 56 84.28125 50.015625 
Q 88.921875 44.046875 88.921875 33.015625 
L 88.921875 0 
L 79.890625 0 
L 79.890625 32.71875 
Q 79.890625 40.578125 77.09375 44.375 
Q 74.3125 48.1875 68.609375 48.1875 
Q 61.625 48.1875 57.5625 43.546875 
Q 53.515625 38.921875 53.515625 30.90625 
L 53.515625 0 
L 44.484375 0 
L 44.484375 32.71875 
Q 44.484375 40.625 41.703125 44.40625 
Q 38.921875 48.1875 33.109375 48.1875 
Q 26.21875 48.1875 22.15625 43.53125 
Q 18.109375 38.875 18.109375 30.90625 
L 18.109375 0 
L 9.078125 0 
L 9.078125 54.6875 
L 18.109375 54.6875 
L 18.109375 46.1875 
Q 21.1875 51.21875 25.484375 53.609375 
Q 29.78125 56 35.6875 56 
Q 41.65625 56 45.828125 52.96875 
Q 50 49.953125 52 44.1875 
z
" id="DejaVuSans-109"/>
     </defs>
     <g transform="translate(343.152813 296.504312)scale(0.1 -0.1)">
      <use xlink:href="#DejaVuSans-109"/>
      <use x="97.412109" xlink:href="#DejaVuSans-101"/>
      <use x="158.935547" xlink:href="#DejaVuSans-97"/>
      <use x="220.214844" xlink:href="#DejaVuSans-110"/>
     </g>
    </g>
   </g>
  </g>
 </g>
 <defs>
  <clipPath id="pa29c907676">
   <rect height="266.112" width="357.12" x="57.6" y="41.472"/>
  </clipPath>
 </defs>
</svg>
