<?xml version="1.0" encoding="utf-8" standalone="no"?>
<!DOCTYPE svg PUBLIC "-//W3C//DTD SVG 1.1//EN"
  "http://www.w3.org/Graphics/SVG/1.1/DTD/svg11.dtd">
<!-- Created with matplotlib (https://matplotlib.org/) -->
<svg height="345.6pt" version="1.1" viewBox="0 0 460.8 345.6" width="460.8pt" xmlns="http://www.w3.org/2000/svg" xmlns:xlink="http://www.w3.org/1999/xlink">
 <defs>
  <style type="text/css">
*{stroke-linecap:butt;stroke-linejoin:round;}
  </style>
 </defs>
 <g id="figure_1">
  <g id="patch_1">
   <path d="M 0 345.6 
L 460.8 345.6 
L 460.8 0 
L 0 0 
z
" style="fill:#ffffff;"/>
  </g>
  <g id="axes_1">
   <g id="patch_2">
    <path d="M 57.6 307.584 
L 414.72 307.584 
L 414.72 41.472 
L 57.6 41.472 
z
" style="fill:#ffffff;"/>
   </g>
   <g id="matplotlib.axis_1">
    <g id="xtick_1">
     <g id="line2d_1">
      <path clip-path="url(#p80c23f9515)" d="M 61.612584 307.584 
L 61.612584 41.472 
" style="fill:none;stroke:#b0b0b0;stroke-dasharray:5.12,1.28,0.8,1.28;stroke-dashoffset:0;stroke-width:0.8;"/>
     </g>
     <g id="line2d_2">
      <defs>
       <path d="M 0 0 
L 0 3.5 
" id="md755fd4de2" style="stroke:#000000;stroke-width:0.8;"/>
      </defs>
      <g>
       <use style="stroke:#000000;stroke-width:0.8;" x="61.612584" xlink:href="#md755fd4de2" y="307.584"/>
      </g>
     </g>
     <g id="text_1">
      <!-- 1 -->
      <defs>
       <path d="M 12.40625 8.296875 
L 28.515625 8.296875 
L 28.515625 63.921875 
L 10.984375 60.40625 
L 10.984375 69.390625 
L 28.421875 72.90625 
L 38.28125 72.90625 
L 38.28125 8.296875 
L 54.390625 8.296875 
L 54.390625 0 
L 12.40625 0 
z
" id="DejaVuSans-49"/>
      </defs>
      <g transform="translate(58.431334 322.182437)scale(0.1 -0.1)">
       <use xlink:href="#DejaVuSans-49"/>
      </g>
     </g>
    </g>
    <g id="xtick_2">
     <g id="line2d_3">
      <path clip-path="url(#p80c23f9515)" d="M 73.650337 307.584 
L 73.650337 41.472 
" style="fill:none;stroke:#b0b0b0;stroke-dasharray:5.12,1.28,0.8,1.28;stroke-dashoffset:0;stroke-width:0.8;"/>
     </g>
     <g id="line2d_4">
      <g>
       <use style="stroke:#000000;stroke-width:0.8;" x="73.650337" xlink:href="#md755fd4de2" y="307.584"/>
      </g>
     </g>
     <g id="text_2">
      <!-- 4 -->
      <defs>
       <path d="M 37.796875 64.3125 
L 12.890625 25.390625 
L 37.796875 25.390625 
z
M 35.203125 72.90625 
L 47.609375 72.90625 
L 47.609375 25.390625 
L 58.015625 25.390625 
L 58.015625 17.1875 
L 47.609375 17.1875 
L 47.609375 0 
L 37.796875 0 
L 37.796875 17.1875 
L 4.890625 17.1875 
L 4.890625 26.703125 
z
" id="DejaVuSans-52"/>
      </defs>
      <g transform="translate(70.469087 322.182437)scale(0.1 -0.1)">
       <use xlink:href="#DejaVuSans-52"/>
      </g>
     </g>
    </g>
    <g id="xtick_3">
     <g id="line2d_5">
      <path clip-path="url(#p80c23f9515)" d="M 89.700674 307.584 
L 89.700674 41.472 
" style="fill:none;stroke:#b0b0b0;stroke-dasharray:5.12,1.28,0.8,1.28;stroke-dashoffset:0;stroke-width:0.8;"/>
     </g>
     <g id="line2d_6">
      <g>
       <use style="stroke:#000000;stroke-width:0.8;" x="89.700674" xlink:href="#md755fd4de2" y="307.584"/>
      </g>
     </g>
     <g id="text_3">
      <!-- 8 -->
      <defs>
       <path d="M 31.78125 34.625 
Q 24.75 34.625 20.71875 30.859375 
Q 16.703125 27.09375 16.703125 20.515625 
Q 16.703125 13.921875 20.71875 10.15625 
Q 24.75 6.390625 31.78125 6.390625 
Q 38.8125 6.390625 42.859375 10.171875 
Q 46.921875 13.96875 46.921875 20.515625 
Q 46.921875 27.09375 42.890625 30.859375 
Q 38.875 34.625 31.78125 34.625 
z
M 21.921875 38.8125 
Q 15.578125 40.375 12.03125 44.71875 
Q 8.5 49.078125 8.5 55.328125 
Q 8.5 64.0625 14.71875 69.140625 
Q 20.953125 74.21875 31.78125 74.21875 
Q 42.671875 74.21875 48.875 69.140625 
Q 55.078125 64.0625 55.078125 55.328125 
Q 55.078125 49.078125 51.53125 44.71875 
Q 48 40.375 41.703125 38.8125 
Q 48.828125 37.15625 52.796875 32.3125 
Q 56.78125 27.484375 56.78125 20.515625 
Q 56.78125 9.90625 50.3125 4.234375 
Q 43.84375 -1.421875 31.78125 -1.421875 
Q 19.734375 -1.421875 13.25 4.234375 
Q 6.78125 9.90625 6.78125 20.515625 
Q 6.78125 27.484375 10.78125 32.3125 
Q 14.796875 37.15625 21.921875 38.8125 
z
M 18.3125 54.390625 
Q 18.3125 48.734375 21.84375 45.5625 
Q 25.390625 42.390625 31.78125 42.390625 
Q 38.140625 42.390625 41.71875 45.5625 
Q 45.3125 48.734375 45.3125 54.390625 
Q 45.3125 60.0625 41.71875 63.234375 
Q 38.140625 66.40625 31.78125 66.40625 
Q 25.390625 66.40625 21.84375 63.234375 
Q 18.3125 60.0625 18.3125 54.390625 
z
" id="DejaVuSans-56"/>
      </defs>
      <g transform="translate(86.519424 322.182437)scale(0.1 -0.1)">
       <use xlink:href="#DejaVuSans-56"/>
      </g>
     </g>
    </g>
    <g id="xtick_4">
     <g id="line2d_7">
      <path clip-path="url(#p80c23f9515)" d="M 105.751011 307.584 
L 105.751011 41.472 
" style="fill:none;stroke:#b0b0b0;stroke-dasharray:5.12,1.28,0.8,1.28;stroke-dashoffset:0;stroke-width:0.8;"/>
     </g>
     <g id="line2d_8">
      <g>
       <use style="stroke:#000000;stroke-width:0.8;" x="105.751011" xlink:href="#md755fd4de2" y="307.584"/>
      </g>
     </g>
     <g id="text_4">
      <!-- 12 -->
      <defs>
       <path d="M 19.1875 8.296875 
L 53.609375 8.296875 
L 53.609375 0 
L 7.328125 0 
L 7.328125 8.296875 
Q 12.9375 14.109375 22.625 23.890625 
Q 32.328125 33.6875 34.8125 36.53125 
Q 39.546875 41.84375 41.421875 45.53125 
Q 43.3125 49.21875 43.3125 52.78125 
Q 43.3125 58.59375 39.234375 62.25 
Q 35.15625 65.921875 28.609375 65.921875 
Q 23.96875 65.921875 18.8125 64.3125 
Q 13.671875 62.703125 7.8125 59.421875 
L 7.8125 69.390625 
Q 13.765625 71.78125 18.9375 73 
Q 24.125 74.21875 28.421875 74.21875 
Q 39.75 74.21875 46.484375 68.546875 
Q 53.21875 62.890625 53.21875 53.421875 
Q 53.21875 48.921875 51.53125 44.890625 
Q 49.859375 40.875 45.40625 35.40625 
Q 44.1875 33.984375 37.640625 27.21875 
Q 31.109375 20.453125 19.1875 8.296875 
z
" id="DejaVuSans-50"/>
      </defs>
      <g transform="translate(99.388511 322.182437)scale(0.1 -0.1)">
       <use xlink:href="#DejaVuSans-49"/>
       <use x="63.623047" xlink:href="#DejaVuSans-50"/>
      </g>
     </g>
    </g>
    <g id="xtick_5">
     <g id="line2d_9">
      <path clip-path="url(#p80c23f9515)" d="M 121.801348 307.584 
L 121.801348 41.472 
" style="fill:none;stroke:#b0b0b0;stroke-dasharray:5.12,1.28,0.8,1.28;stroke-dashoffset:0;stroke-width:0.8;"/>
     </g>
     <g id="line2d_10">
      <g>
       <use style="stroke:#000000;stroke-width:0.8;" x="121.801348" xlink:href="#md755fd4de2" y="307.584"/>
      </g>
     </g>
     <g id="text_5">
      <!-- 16 -->
      <defs>
       <path d="M 33.015625 40.375 
Q 26.375 40.375 22.484375 35.828125 
Q 18.609375 31.296875 18.609375 23.390625 
Q 18.609375 15.53125 22.484375 10.953125 
Q 26.375 6.390625 33.015625 6.390625 
Q 39.65625 6.390625 43.53125 10.953125 
Q 47.40625 15.53125 47.40625 23.390625 
Q 47.40625 31.296875 43.53125 35.828125 
Q 39.65625 40.375 33.015625 40.375 
z
M 52.59375 71.296875 
L 52.59375 62.3125 
Q 48.875 64.0625 45.09375 64.984375 
Q 41.3125 65.921875 37.59375 65.921875 
Q 27.828125 65.921875 22.671875 59.328125 
Q 17.53125 52.734375 16.796875 39.40625 
Q 19.671875 43.65625 24.015625 45.921875 
Q 28.375 48.1875 33.59375 48.1875 
Q 44.578125 48.1875 50.953125 41.515625 
Q 57.328125 34.859375 57.328125 23.390625 
Q 57.328125 12.15625 50.6875 5.359375 
Q 44.046875 -1.421875 33.015625 -1.421875 
Q 20.359375 -1.421875 13.671875 8.265625 
Q 6.984375 17.96875 6.984375 36.375 
Q 6.984375 53.65625 15.1875 63.9375 
Q 23.390625 74.21875 37.203125 74.21875 
Q 40.921875 74.21875 44.703125 73.484375 
Q 48.484375 72.75 52.59375 71.296875 
z
" id="DejaVuSans-54"/>
      </defs>
      <g transform="translate(115.438848 322.182437)scale(0.1 -0.1)">
       <use xlink:href="#DejaVuSans-49"/>
       <use x="63.623047" xlink:href="#DejaVuSans-54"/>
      </g>
     </g>
    </g>
    <g id="xtick_6">
     <g id="line2d_11">
      <path clip-path="url(#p80c23f9515)" d="M 137.851685 307.584 
L 137.851685 41.472 
" style="fill:none;stroke:#b0b0b0;stroke-dasharray:5.12,1.28,0.8,1.28;stroke-dashoffset:0;stroke-width:0.8;"/>
     </g>
     <g id="line2d_12">
      <g>
       <use style="stroke:#000000;stroke-width:0.8;" x="137.851685" xlink:href="#md755fd4de2" y="307.584"/>
      </g>
     </g>
     <g id="text_6">
      <!-- 20 -->
      <defs>
       <path d="M 31.78125 66.40625 
Q 24.171875 66.40625 20.328125 58.90625 
Q 16.5 51.421875 16.5 36.375 
Q 16.5 21.390625 20.328125 13.890625 
Q 24.171875 6.390625 31.78125 6.390625 
Q 39.453125 6.390625 43.28125 13.890625 
Q 47.125 21.390625 47.125 36.375 
Q 47.125 51.421875 43.28125 58.90625 
Q 39.453125 66.40625 31.78125 66.40625 
z
M 31.78125 74.21875 
Q 44.046875 74.21875 50.515625 64.515625 
Q 56.984375 54.828125 56.984375 36.375 
Q 56.984375 17.96875 50.515625 8.265625 
Q 44.046875 -1.421875 31.78125 -1.421875 
Q 19.53125 -1.421875 13.0625 8.265625 
Q 6.59375 17.96875 6.59375 36.375 
Q 6.59375 54.828125 13.0625 64.515625 
Q 19.53125 74.21875 31.78125 74.21875 
z
" id="DejaVuSans-48"/>
      </defs>
      <g transform="translate(131.489185 322.182437)scale(0.1 -0.1)">
       <use xlink:href="#DejaVuSans-50"/>
       <use x="63.623047" xlink:href="#DejaVuSans-48"/>
      </g>
     </g>
    </g>
    <g id="xtick_7">
     <g id="line2d_13">
      <path clip-path="url(#p80c23f9515)" d="M 153.902022 307.584 
L 153.902022 41.472 
" style="fill:none;stroke:#b0b0b0;stroke-dasharray:5.12,1.28,0.8,1.28;stroke-dashoffset:0;stroke-width:0.8;"/>
     </g>
     <g id="line2d_14">
      <g>
       <use style="stroke:#000000;stroke-width:0.8;" x="153.902022" xlink:href="#md755fd4de2" y="307.584"/>
      </g>
     </g>
     <g id="text_7">
      <!-- 24 -->
      <g transform="translate(147.539522 322.182437)scale(0.1 -0.1)">
       <use xlink:href="#DejaVuSans-50"/>
       <use x="63.623047" xlink:href="#DejaVuSans-52"/>
      </g>
     </g>
    </g>
    <g id="xtick_8">
     <g id="line2d_15">
      <path clip-path="url(#p80c23f9515)" d="M 169.95236 307.584 
L 169.95236 41.472 
" style="fill:none;stroke:#b0b0b0;stroke-dasharray:5.12,1.28,0.8,1.28;stroke-dashoffset:0;stroke-width:0.8;"/>
     </g>
     <g id="line2d_16">
      <g>
       <use style="stroke:#000000;stroke-width:0.8;" x="169.95236" xlink:href="#md755fd4de2" y="307.584"/>
      </g>
     </g>
     <g id="text_8">
      <!-- 28 -->
      <g transform="translate(163.58986 322.182437)scale(0.1 -0.1)">
       <use xlink:href="#DejaVuSans-50"/>
       <use x="63.623047" xlink:href="#DejaVuSans-56"/>
      </g>
     </g>
    </g>
    <g id="xtick_9">
     <g id="line2d_17">
      <path clip-path="url(#p80c23f9515)" d="M 186.002697 307.584 
L 186.002697 41.472 
" style="fill:none;stroke:#b0b0b0;stroke-dasharray:5.12,1.28,0.8,1.28;stroke-dashoffset:0;stroke-width:0.8;"/>
     </g>
     <g id="line2d_18">
      <g>
       <use style="stroke:#000000;stroke-width:0.8;" x="186.002697" xlink:href="#md755fd4de2" y="307.584"/>
      </g>
     </g>
     <g id="text_9">
      <!-- 32 -->
      <defs>
       <path d="M 40.578125 39.3125 
Q 47.65625 37.796875 51.625 33 
Q 55.609375 28.21875 55.609375 21.1875 
Q 55.609375 10.40625 48.1875 4.484375 
Q 40.765625 -1.421875 27.09375 -1.421875 
Q 22.515625 -1.421875 17.65625 -0.515625 
Q 12.796875 0.390625 7.625 2.203125 
L 7.625 11.71875 
Q 11.71875 9.328125 16.59375 8.109375 
Q 21.484375 6.890625 26.8125 6.890625 
Q 36.078125 6.890625 40.9375 10.546875 
Q 45.796875 14.203125 45.796875 21.1875 
Q 45.796875 27.640625 41.28125 31.265625 
Q 36.765625 34.90625 28.71875 34.90625 
L 20.21875 34.90625 
L 20.21875 43.015625 
L 29.109375 43.015625 
Q 36.375 43.015625 40.234375 45.921875 
Q 44.09375 48.828125 44.09375 54.296875 
Q 44.09375 59.90625 40.109375 62.90625 
Q 36.140625 65.921875 28.71875 65.921875 
Q 24.65625 65.921875 20.015625 65.03125 
Q 15.375 64.15625 9.8125 62.3125 
L 9.8125 71.09375 
Q 15.4375 72.65625 20.34375 73.4375 
Q 25.25 74.21875 29.59375 74.21875 
Q 40.828125 74.21875 47.359375 69.109375 
Q 53.90625 64.015625 53.90625 55.328125 
Q 53.90625 49.265625 50.4375 45.09375 
Q 46.96875 40.921875 40.578125 39.3125 
z
" id="DejaVuSans-51"/>
      </defs>
      <g transform="translate(179.640197 322.182437)scale(0.1 -0.1)">
       <use xlink:href="#DejaVuSans-51"/>
       <use x="63.623047" xlink:href="#DejaVuSans-50"/>
      </g>
     </g>
    </g>
    <g id="xtick_10">
     <g id="line2d_19">
      <path clip-path="url(#p80c23f9515)" d="M 202.053034 307.584 
L 202.053034 41.472 
" style="fill:none;stroke:#b0b0b0;stroke-dasharray:5.12,1.28,0.8,1.28;stroke-dashoffset:0;stroke-width:0.8;"/>
     </g>
     <g id="line2d_20">
      <g>
       <use style="stroke:#000000;stroke-width:0.8;" x="202.053034" xlink:href="#md755fd4de2" y="307.584"/>
      </g>
     </g>
     <g id="text_10">
      <!-- 36 -->
      <g transform="translate(195.690534 322.182437)scale(0.1 -0.1)">
       <use xlink:href="#DejaVuSans-51"/>
       <use x="63.623047" xlink:href="#DejaVuSans-54"/>
      </g>
     </g>
    </g>
    <g id="xtick_11">
     <g id="line2d_21">
      <path clip-path="url(#p80c23f9515)" d="M 218.103371 307.584 
L 218.103371 41.472 
" style="fill:none;stroke:#b0b0b0;stroke-dasharray:5.12,1.28,0.8,1.28;stroke-dashoffset:0;stroke-width:0.8;"/>
     </g>
     <g id="line2d_22">
      <g>
       <use style="stroke:#000000;stroke-width:0.8;" x="218.103371" xlink:href="#md755fd4de2" y="307.584"/>
      </g>
     </g>
     <g id="text_11">
      <!-- 40 -->
      <g transform="translate(211.740871 322.182437)scale(0.1 -0.1)">
       <use xlink:href="#DejaVuSans-52"/>
       <use x="63.623047" xlink:href="#DejaVuSans-48"/>
      </g>
     </g>
    </g>
    <g id="xtick_12">
     <g id="line2d_23">
      <path clip-path="url(#p80c23f9515)" d="M 234.153708 307.584 
L 234.153708 41.472 
" style="fill:none;stroke:#b0b0b0;stroke-dasharray:5.12,1.28,0.8,1.28;stroke-dashoffset:0;stroke-width:0.8;"/>
     </g>
     <g id="line2d_24">
      <g>
       <use style="stroke:#000000;stroke-width:0.8;" x="234.153708" xlink:href="#md755fd4de2" y="307.584"/>
      </g>
     </g>
     <g id="text_12">
      <!-- 44 -->
      <g transform="translate(227.791208 322.182437)scale(0.1 -0.1)">
       <use xlink:href="#DejaVuSans-52"/>
       <use x="63.623047" xlink:href="#DejaVuSans-52"/>
      </g>
     </g>
    </g>
    <g id="xtick_13">
     <g id="line2d_25">
      <path clip-path="url(#p80c23f9515)" d="M 250.204045 307.584 
L 250.204045 41.472 
" style="fill:none;stroke:#b0b0b0;stroke-dasharray:5.12,1.28,0.8,1.28;stroke-dashoffset:0;stroke-width:0.8;"/>
     </g>
     <g id="line2d_26">
      <g>
       <use style="stroke:#000000;stroke-width:0.8;" x="250.204045" xlink:href="#md755fd4de2" y="307.584"/>
      </g>
     </g>
     <g id="text_13">
      <!-- 48 -->
      <g transform="translate(243.841545 322.182437)scale(0.1 -0.1)">
       <use xlink:href="#DejaVuSans-52"/>
       <use x="63.623047" xlink:href="#DejaVuSans-56"/>
      </g>
     </g>
    </g>
    <g id="xtick_14">
     <g id="line2d_27">
      <path clip-path="url(#p80c23f9515)" d="M 266.254382 307.584 
L 266.254382 41.472 
" style="fill:none;stroke:#b0b0b0;stroke-dasharray:5.12,1.28,0.8,1.28;stroke-dashoffset:0;stroke-width:0.8;"/>
     </g>
     <g id="line2d_28">
      <g>
       <use style="stroke:#000000;stroke-width:0.8;" x="266.254382" xlink:href="#md755fd4de2" y="307.584"/>
      </g>
     </g>
     <g id="text_14">
      <!-- 52 -->
      <defs>
       <path d="M 10.796875 72.90625 
L 49.515625 72.90625 
L 49.515625 64.59375 
L 19.828125 64.59375 
L 19.828125 46.734375 
Q 21.96875 47.46875 24.109375 47.828125 
Q 26.265625 48.1875 28.421875 48.1875 
Q 40.625 48.1875 47.75 41.5 
Q 54.890625 34.8125 54.890625 23.390625 
Q 54.890625 11.625 47.5625 5.09375 
Q 40.234375 -1.421875 26.90625 -1.421875 
Q 22.3125 -1.421875 17.546875 -0.640625 
Q 12.796875 0.140625 7.71875 1.703125 
L 7.71875 11.625 
Q 12.109375 9.234375 16.796875 8.0625 
Q 21.484375 6.890625 26.703125 6.890625 
Q 35.15625 6.890625 40.078125 11.328125 
Q 45.015625 15.765625 45.015625 23.390625 
Q 45.015625 31 40.078125 35.4375 
Q 35.15625 39.890625 26.703125 39.890625 
Q 22.75 39.890625 18.8125 39.015625 
Q 14.890625 38.140625 10.796875 36.28125 
z
" id="DejaVuSans-53"/>
      </defs>
      <g transform="translate(259.891882 322.182437)scale(0.1 -0.1)">
       <use xlink:href="#DejaVuSans-53"/>
       <use x="63.623047" xlink:href="#DejaVuSans-50"/>
      </g>
     </g>
    </g>
    <g id="xtick_15">
     <g id="line2d_29">
      <path clip-path="url(#p80c23f9515)" d="M 282.304719 307.584 
L 282.304719 41.472 
" style="fill:none;stroke:#b0b0b0;stroke-dasharray:5.12,1.28,0.8,1.28;stroke-dashoffset:0;stroke-width:0.8;"/>
     </g>
     <g id="line2d_30">
      <g>
       <use style="stroke:#000000;stroke-width:0.8;" x="282.304719" xlink:href="#md755fd4de2" y="307.584"/>
      </g>
     </g>
     <g id="text_15">
      <!-- 56 -->
      <g transform="translate(275.942219 322.182437)scale(0.1 -0.1)">
       <use xlink:href="#DejaVuSans-53"/>
       <use x="63.623047" xlink:href="#DejaVuSans-54"/>
      </g>
     </g>
    </g>
    <g id="xtick_16">
     <g id="line2d_31">
      <path clip-path="url(#p80c23f9515)" d="M 298.355056 307.584 
L 298.355056 41.472 
" style="fill:none;stroke:#b0b0b0;stroke-dasharray:5.12,1.28,0.8,1.28;stroke-dashoffset:0;stroke-width:0.8;"/>
     </g>
     <g id="line2d_32">
      <g>
       <use style="stroke:#000000;stroke-width:0.8;" x="298.355056" xlink:href="#md755fd4de2" y="307.584"/>
      </g>
     </g>
     <g id="text_16">
      <!-- 60 -->
      <g transform="translate(291.992556 322.182437)scale(0.1 -0.1)">
       <use xlink:href="#DejaVuSans-54"/>
       <use x="63.623047" xlink:href="#DejaVuSans-48"/>
      </g>
     </g>
    </g>
    <g id="xtick_17">
     <g id="line2d_33">
      <path clip-path="url(#p80c23f9515)" d="M 314.405393 307.584 
L 314.405393 41.472 
" style="fill:none;stroke:#b0b0b0;stroke-dasharray:5.12,1.28,0.8,1.28;stroke-dashoffset:0;stroke-width:0.8;"/>
     </g>
     <g id="line2d_34">
      <g>
       <use style="stroke:#000000;stroke-width:0.8;" x="314.405393" xlink:href="#md755fd4de2" y="307.584"/>
      </g>
     </g>
     <g id="text_17">
      <!-- 64 -->
      <g transform="translate(308.042893 322.182437)scale(0.1 -0.1)">
       <use xlink:href="#DejaVuSans-54"/>
       <use x="63.623047" xlink:href="#DejaVuSans-52"/>
      </g>
     </g>
    </g>
    <g id="xtick_18">
     <g id="line2d_35">
      <path clip-path="url(#p80c23f9515)" d="M 330.45573 307.584 
L 330.45573 41.472 
" style="fill:none;stroke:#b0b0b0;stroke-dasharray:5.12,1.28,0.8,1.28;stroke-dashoffset:0;stroke-width:0.8;"/>
     </g>
     <g id="line2d_36">
      <g>
       <use style="stroke:#000000;stroke-width:0.8;" x="330.45573" xlink:href="#md755fd4de2" y="307.584"/>
      </g>
     </g>
     <g id="text_18">
      <!-- 68 -->
      <g transform="translate(324.09323 322.182437)scale(0.1 -0.1)">
       <use xlink:href="#DejaVuSans-54"/>
       <use x="63.623047" xlink:href="#DejaVuSans-56"/>
      </g>
     </g>
    </g>
    <g id="xtick_19">
     <g id="line2d_37">
      <path clip-path="url(#p80c23f9515)" d="M 346.506067 307.584 
L 346.506067 41.472 
" style="fill:none;stroke:#b0b0b0;stroke-dasharray:5.12,1.28,0.8,1.28;stroke-dashoffset:0;stroke-width:0.8;"/>
     </g>
     <g id="line2d_38">
      <g>
       <use style="stroke:#000000;stroke-width:0.8;" x="346.506067" xlink:href="#md755fd4de2" y="307.584"/>
      </g>
     </g>
     <g id="text_19">
      <!-- 72 -->
      <defs>
       <path d="M 8.203125 72.90625 
L 55.078125 72.90625 
L 55.078125 68.703125 
L 28.609375 0 
L 18.3125 0 
L 43.21875 64.59375 
L 8.203125 64.59375 
z
" id="DejaVuSans-55"/>
      </defs>
      <g transform="translate(340.143567 322.182437)scale(0.1 -0.1)">
       <use xlink:href="#DejaVuSans-55"/>
       <use x="63.623047" xlink:href="#DejaVuSans-50"/>
      </g>
     </g>
    </g>
    <g id="xtick_20">
     <g id="line2d_39">
      <path clip-path="url(#p80c23f9515)" d="M 362.556404 307.584 
L 362.556404 41.472 
" style="fill:none;stroke:#b0b0b0;stroke-dasharray:5.12,1.28,0.8,1.28;stroke-dashoffset:0;stroke-width:0.8;"/>
     </g>
     <g id="line2d_40">
      <g>
       <use style="stroke:#000000;stroke-width:0.8;" x="362.556404" xlink:href="#md755fd4de2" y="307.584"/>
      </g>
     </g>
     <g id="text_20">
      <!-- 76 -->
      <g transform="translate(356.193904 322.182437)scale(0.1 -0.1)">
       <use xlink:href="#DejaVuSans-55"/>
       <use x="63.623047" xlink:href="#DejaVuSans-54"/>
      </g>
     </g>
    </g>
    <g id="xtick_21">
     <g id="line2d_41">
      <path clip-path="url(#p80c23f9515)" d="M 378.606742 307.584 
L 378.606742 41.472 
" style="fill:none;stroke:#b0b0b0;stroke-dasharray:5.12,1.28,0.8,1.28;stroke-dashoffset:0;stroke-width:0.8;"/>
     </g>
     <g id="line2d_42">
      <g>
       <use style="stroke:#000000;stroke-width:0.8;" x="378.606742" xlink:href="#md755fd4de2" y="307.584"/>
      </g>
     </g>
     <g id="text_21">
      <!-- 80 -->
      <g transform="translate(372.244242 322.182437)scale(0.1 -0.1)">
       <use xlink:href="#DejaVuSans-56"/>
       <use x="63.623047" xlink:href="#DejaVuSans-48"/>
      </g>
     </g>
    </g>
    <g id="xtick_22">
     <g id="line2d_43">
      <path clip-path="url(#p80c23f9515)" d="M 394.657079 307.584 
L 394.657079 41.472 
" style="fill:none;stroke:#b0b0b0;stroke-dasharray:5.12,1.28,0.8,1.28;stroke-dashoffset:0;stroke-width:0.8;"/>
     </g>
     <g id="line2d_44">
      <g>
       <use style="stroke:#000000;stroke-width:0.8;" x="394.657079" xlink:href="#md755fd4de2" y="307.584"/>
      </g>
     </g>
     <g id="text_22">
      <!-- 84 -->
      <g transform="translate(388.294579 322.182437)scale(0.1 -0.1)">
       <use xlink:href="#DejaVuSans-56"/>
       <use x="63.623047" xlink:href="#DejaVuSans-52"/>
      </g>
     </g>
    </g>
    <g id="xtick_23">
     <g id="line2d_45">
      <path clip-path="url(#p80c23f9515)" d="M 410.707416 307.584 
L 410.707416 41.472 
" style="fill:none;stroke:#b0b0b0;stroke-dasharray:5.12,1.28,0.8,1.28;stroke-dashoffset:0;stroke-width:0.8;"/>
     </g>
     <g id="line2d_46">
      <g>
       <use style="stroke:#000000;stroke-width:0.8;" x="410.707416" xlink:href="#md755fd4de2" y="307.584"/>
      </g>
     </g>
     <g id="text_23">
      <!-- 88 -->
      <g transform="translate(404.344916 322.182437)scale(0.1 -0.1)">
       <use xlink:href="#DejaVuSans-56"/>
       <use x="63.623047" xlink:href="#DejaVuSans-56"/>
      </g>
     </g>
    </g>
    <g id="text_24">
     <!-- threads -->
     <defs>
      <path d="M 18.3125 70.21875 
L 18.3125 54.6875 
L 36.8125 54.6875 
L 36.8125 47.703125 
L 18.3125 47.703125 
L 18.3125 18.015625 
Q 18.3125 11.328125 20.140625 9.421875 
Q 21.96875 7.515625 27.59375 7.515625 
L 36.8125 7.515625 
L 36.8125 0 
L 27.59375 0 
Q 17.1875 0 13.234375 3.875 
Q 9.28125 7.765625 9.28125 18.015625 
L 9.28125 47.703125 
L 2.6875 47.703125 
L 2.6875 54.6875 
L 9.28125 54.6875 
L 9.28125 70.21875 
z
" id="DejaVuSans-116"/>
      <path d="M 54.890625 33.015625 
L 54.890625 0 
L 45.90625 0 
L 45.90625 32.71875 
Q 45.90625 40.484375 42.875 44.328125 
Q 39.84375 48.1875 33.796875 48.1875 
Q 26.515625 48.1875 22.3125 43.546875 
Q 18.109375 38.921875 18.109375 30.90625 
L 18.109375 0 
L 9.078125 0 
L 9.078125 75.984375 
L 18.109375 75.984375 
L 18.109375 46.1875 
Q 21.34375 51.125 25.703125 53.5625 
Q 30.078125 56 35.796875 56 
Q 45.21875 56 50.046875 50.171875 
Q 54.890625 44.34375 54.890625 33.015625 
z
" id="DejaVuSans-104"/>
      <path d="M 41.109375 46.296875 
Q 39.59375 47.171875 37.8125 47.578125 
Q 36.03125 48 33.890625 48 
Q 26.265625 48 22.1875 43.046875 
Q 18.109375 38.09375 18.109375 28.8125 
L 18.109375 0 
L 9.078125 0 
L 9.078125 54.6875 
L 18.109375 54.6875 
L 18.109375 46.1875 
Q 20.953125 51.171875 25.484375 53.578125 
Q 30.03125 56 36.53125 56 
Q 37.453125 56 38.578125 55.875 
Q 39.703125 55.765625 41.0625 55.515625 
z
" id="DejaVuSans-114"/>
      <path d="M 56.203125 29.59375 
L 56.203125 25.203125 
L 14.890625 25.203125 
Q 15.484375 15.921875 20.484375 11.0625 
Q 25.484375 6.203125 34.421875 6.203125 
Q 39.59375 6.203125 44.453125 7.46875 
Q 49.3125 8.734375 54.109375 11.28125 
L 54.109375 2.78125 
Q 49.265625 0.734375 44.1875 -0.34375 
Q 39.109375 -1.421875 33.890625 -1.421875 
Q 20.796875 -1.421875 13.15625 6.1875 
Q 5.515625 13.8125 5.515625 26.8125 
Q 5.515625 40.234375 12.765625 48.109375 
Q 20.015625 56 32.328125 56 
Q 43.359375 56 49.78125 48.890625 
Q 56.203125 41.796875 56.203125 29.59375 
z
M 47.21875 32.234375 
Q 47.125 39.59375 43.09375 43.984375 
Q 39.0625 48.390625 32.421875 48.390625 
Q 24.90625 48.390625 20.390625 44.140625 
Q 15.875 39.890625 15.1875 32.171875 
z
" id="DejaVuSans-101"/>
      <path d="M 34.28125 27.484375 
Q 23.390625 27.484375 19.1875 25 
Q 14.984375 22.515625 14.984375 16.5 
Q 14.984375 11.71875 18.140625 8.90625 
Q 21.296875 6.109375 26.703125 6.109375 
Q 34.1875 6.109375 38.703125 11.40625 
Q 43.21875 16.703125 43.21875 25.484375 
L 43.21875 27.484375 
z
M 52.203125 31.203125 
L 52.203125 0 
L 43.21875 0 
L 43.21875 8.296875 
Q 40.140625 3.328125 35.546875 0.953125 
Q 30.953125 -1.421875 24.3125 -1.421875 
Q 15.921875 -1.421875 10.953125 3.296875 
Q 6 8.015625 6 15.921875 
Q 6 25.140625 12.171875 29.828125 
Q 18.359375 34.515625 30.609375 34.515625 
L 43.21875 34.515625 
L 43.21875 35.40625 
Q 43.21875 41.609375 39.140625 45 
Q 35.0625 48.390625 27.6875 48.390625 
Q 23 48.390625 18.546875 47.265625 
Q 14.109375 46.140625 10.015625 43.890625 
L 10.015625 52.203125 
Q 14.9375 54.109375 19.578125 55.046875 
Q 24.21875 56 28.609375 56 
Q 40.484375 56 46.34375 49.84375 
Q 52.203125 43.703125 52.203125 31.203125 
z
" id="DejaVuSans-97"/>
      <path d="M 45.40625 46.390625 
L 45.40625 75.984375 
L 54.390625 75.984375 
L 54.390625 0 
L 45.40625 0 
L 45.40625 8.203125 
Q 42.578125 3.328125 38.25 0.953125 
Q 33.9375 -1.421875 27.875 -1.421875 
Q 17.96875 -1.421875 11.734375 6.484375 
Q 5.515625 14.40625 5.515625 27.296875 
Q 5.515625 40.1875 11.734375 48.09375 
Q 17.96875 56 27.875 56 
Q 33.9375 56 38.25 53.625 
Q 42.578125 51.265625 45.40625 46.390625 
z
M 14.796875 27.296875 
Q 14.796875 17.390625 18.875 11.75 
Q 22.953125 6.109375 30.078125 6.109375 
Q 37.203125 6.109375 41.296875 11.75 
Q 45.40625 17.390625 45.40625 27.296875 
Q 45.40625 37.203125 41.296875 42.84375 
Q 37.203125 48.484375 30.078125 48.484375 
Q 22.953125 48.484375 18.875 42.84375 
Q 14.796875 37.203125 14.796875 27.296875 
z
" id="DejaVuSans-100"/>
      <path d="M 44.28125 53.078125 
L 44.28125 44.578125 
Q 40.484375 46.53125 36.375 47.5 
Q 32.28125 48.484375 27.875 48.484375 
Q 21.1875 48.484375 17.84375 46.4375 
Q 14.5 44.390625 14.5 40.28125 
Q 14.5 37.15625 16.890625 35.375 
Q 19.28125 33.59375 26.515625 31.984375 
L 29.59375 31.296875 
Q 39.15625 29.25 43.1875 25.515625 
Q 47.21875 21.78125 47.21875 15.09375 
Q 47.21875 7.46875 41.1875 3.015625 
Q 35.15625 -1.421875 24.609375 -1.421875 
Q 20.21875 -1.421875 15.453125 -0.5625 
Q 10.6875 0.296875 5.421875 2 
L 5.421875 11.28125 
Q 10.40625 8.6875 15.234375 7.390625 
Q 20.0625 6.109375 24.8125 6.109375 
Q 31.15625 6.109375 34.5625 8.28125 
Q 37.984375 10.453125 37.984375 14.40625 
Q 37.984375 18.0625 35.515625 20.015625 
Q 33.0625 21.96875 24.703125 23.78125 
L 21.578125 24.515625 
Q 13.234375 26.265625 9.515625 29.90625 
Q 5.8125 33.546875 5.8125 39.890625 
Q 5.8125 47.609375 11.28125 51.796875 
Q 16.75 56 26.8125 56 
Q 31.78125 56 36.171875 55.265625 
Q 40.578125 54.546875 44.28125 53.078125 
z
" id="DejaVuSans-115"/>
     </defs>
     <g transform="translate(217.168594 335.860562)scale(0.1 -0.1)">
      <use xlink:href="#DejaVuSans-116"/>
      <use x="39.208984" xlink:href="#DejaVuSans-104"/>
      <use x="102.587891" xlink:href="#DejaVuSans-114"/>
      <use x="141.451172" xlink:href="#DejaVuSans-101"/>
      <use x="202.974609" xlink:href="#DejaVuSans-97"/>
      <use x="264.253906" xlink:href="#DejaVuSans-100"/>
      <use x="327.730469" xlink:href="#DejaVuSans-115"/>
     </g>
    </g>
   </g>
   <g id="matplotlib.axis_2">
    <g id="ytick_1">
     <g id="line2d_47">
      <path clip-path="url(#p80c23f9515)" d="M 57.6 295.000312 
L 414.72 295.000312 
" style="fill:none;stroke:#b0b0b0;stroke-dasharray:5.12,1.28,0.8,1.28;stroke-dashoffset:0;stroke-width:0.8;"/>
     </g>
     <g id="line2d_48">
      <defs>
       <path d="M 0 0 
L -3.5 0 
" id="m4ed16e577d" style="stroke:#000000;stroke-width:0.8;"/>
      </defs>
      <g>
       <use style="stroke:#000000;stroke-width:0.8;" x="57.6" xlink:href="#m4ed16e577d" y="295.000312"/>
      </g>
     </g>
     <g id="text_25">
      <!-- 2 -->
      <g transform="translate(44.2375 298.799531)scale(0.1 -0.1)">
       <use xlink:href="#DejaVuSans-50"/>
      </g>
     </g>
    </g>
    <g id="ytick_2">
     <g id="line2d_49">
      <path clip-path="url(#p80c23f9515)" d="M 57.6 264.19951 
L 414.72 264.19951 
" style="fill:none;stroke:#b0b0b0;stroke-dasharray:5.12,1.28,0.8,1.28;stroke-dashoffset:0;stroke-width:0.8;"/>
     </g>
     <g id="line2d_50">
      <g>
       <use style="stroke:#000000;stroke-width:0.8;" x="57.6" xlink:href="#m4ed16e577d" y="264.19951"/>
      </g>
     </g>
     <g id="text_26">
      <!-- 4 -->
      <g transform="translate(44.2375 267.998729)scale(0.1 -0.1)">
       <use xlink:href="#DejaVuSans-52"/>
      </g>
     </g>
    </g>
    <g id="ytick_3">
     <g id="line2d_51">
      <path clip-path="url(#p80c23f9515)" d="M 57.6 233.398708 
L 414.72 233.398708 
" style="fill:none;stroke:#b0b0b0;stroke-dasharray:5.12,1.28,0.8,1.28;stroke-dashoffset:0;stroke-width:0.8;"/>
     </g>
     <g id="line2d_52">
      <g>
       <use style="stroke:#000000;stroke-width:0.8;" x="57.6" xlink:href="#m4ed16e577d" y="233.398708"/>
      </g>
     </g>
     <g id="text_27">
      <!-- 6 -->
      <g transform="translate(44.2375 237.197927)scale(0.1 -0.1)">
       <use xlink:href="#DejaVuSans-54"/>
      </g>
     </g>
    </g>
    <g id="ytick_4">
     <g id="line2d_53">
      <path clip-path="url(#p80c23f9515)" d="M 57.6 202.597906 
L 414.72 202.597906 
" style="fill:none;stroke:#b0b0b0;stroke-dasharray:5.12,1.28,0.8,1.28;stroke-dashoffset:0;stroke-width:0.8;"/>
     </g>
     <g id="line2d_54">
      <g>
       <use style="stroke:#000000;stroke-width:0.8;" x="57.6" xlink:href="#m4ed16e577d" y="202.597906"/>
      </g>
     </g>
     <g id="text_28">
      <!-- 8 -->
      <g transform="translate(44.2375 206.397124)scale(0.1 -0.1)">
       <use xlink:href="#DejaVuSans-56"/>
      </g>
     </g>
    </g>
    <g id="ytick_5">
     <g id="line2d_55">
      <path clip-path="url(#p80c23f9515)" d="M 57.6 171.797104 
L 414.72 171.797104 
" style="fill:none;stroke:#b0b0b0;stroke-dasharray:5.12,1.28,0.8,1.28;stroke-dashoffset:0;stroke-width:0.8;"/>
     </g>
     <g id="line2d_56">
      <g>
       <use style="stroke:#000000;stroke-width:0.8;" x="57.6" xlink:href="#m4ed16e577d" y="171.797104"/>
      </g>
     </g>
     <g id="text_29">
      <!-- 10 -->
      <g transform="translate(37.875 175.596322)scale(0.1 -0.1)">
       <use xlink:href="#DejaVuSans-49"/>
       <use x="63.623047" xlink:href="#DejaVuSans-48"/>
      </g>
     </g>
    </g>
    <g id="ytick_6">
     <g id="line2d_57">
      <path clip-path="url(#p80c23f9515)" d="M 57.6 140.996301 
L 414.72 140.996301 
" style="fill:none;stroke:#b0b0b0;stroke-dasharray:5.12,1.28,0.8,1.28;stroke-dashoffset:0;stroke-width:0.8;"/>
     </g>
     <g id="line2d_58">
      <g>
       <use style="stroke:#000000;stroke-width:0.8;" x="57.6" xlink:href="#m4ed16e577d" y="140.996301"/>
      </g>
     </g>
     <g id="text_30">
      <!-- 12 -->
      <g transform="translate(37.875 144.79552)scale(0.1 -0.1)">
       <use xlink:href="#DejaVuSans-49"/>
       <use x="63.623047" xlink:href="#DejaVuSans-50"/>
      </g>
     </g>
    </g>
    <g id="ytick_7">
     <g id="line2d_59">
      <path clip-path="url(#p80c23f9515)" d="M 57.6 110.195499 
L 414.72 110.195499 
" style="fill:none;stroke:#b0b0b0;stroke-dasharray:5.12,1.28,0.8,1.28;stroke-dashoffset:0;stroke-width:0.8;"/>
     </g>
     <g id="line2d_60">
      <g>
       <use style="stroke:#000000;stroke-width:0.8;" x="57.6" xlink:href="#m4ed16e577d" y="110.195499"/>
      </g>
     </g>
     <g id="text_31">
      <!-- 14 -->
      <g transform="translate(37.875 113.994718)scale(0.1 -0.1)">
       <use xlink:href="#DejaVuSans-49"/>
       <use x="63.623047" xlink:href="#DejaVuSans-52"/>
      </g>
     </g>
    </g>
    <g id="ytick_8">
     <g id="line2d_61">
      <path clip-path="url(#p80c23f9515)" d="M 57.6 79.394697 
L 414.72 79.394697 
" style="fill:none;stroke:#b0b0b0;stroke-dasharray:5.12,1.28,0.8,1.28;stroke-dashoffset:0;stroke-width:0.8;"/>
     </g>
     <g id="line2d_62">
      <g>
       <use style="stroke:#000000;stroke-width:0.8;" x="57.6" xlink:href="#m4ed16e577d" y="79.394697"/>
      </g>
     </g>
     <g id="text_32">
      <!-- 16 -->
      <g transform="translate(37.875 83.193916)scale(0.1 -0.1)">
       <use xlink:href="#DejaVuSans-49"/>
       <use x="63.623047" xlink:href="#DejaVuSans-54"/>
      </g>
     </g>
    </g>
    <g id="ytick_9">
     <g id="line2d_63">
      <path clip-path="url(#p80c23f9515)" d="M 57.6 48.593895 
L 414.72 48.593895 
" style="fill:none;stroke:#b0b0b0;stroke-dasharray:5.12,1.28,0.8,1.28;stroke-dashoffset:0;stroke-width:0.8;"/>
     </g>
     <g id="line2d_64">
      <g>
       <use style="stroke:#000000;stroke-width:0.8;" x="57.6" xlink:href="#m4ed16e577d" y="48.593895"/>
      </g>
     </g>
     <g id="text_33">
      <!-- 18 -->
      <g transform="translate(37.875 52.393114)scale(0.1 -0.1)">
       <use xlink:href="#DejaVuSans-49"/>
       <use x="63.623047" xlink:href="#DejaVuSans-56"/>
      </g>
     </g>
    </g>
    <g id="text_34">
     <!-- speed up -->
     <defs>
      <path d="M 18.109375 8.203125 
L 18.109375 -20.796875 
L 9.078125 -20.796875 
L 9.078125 54.6875 
L 18.109375 54.6875 
L 18.109375 46.390625 
Q 20.953125 51.265625 25.265625 53.625 
Q 29.59375 56 35.59375 56 
Q 45.5625 56 51.78125 48.09375 
Q 58.015625 40.1875 58.015625 27.296875 
Q 58.015625 14.40625 51.78125 6.484375 
Q 45.5625 -1.421875 35.59375 -1.421875 
Q 29.59375 -1.421875 25.265625 0.953125 
Q 20.953125 3.328125 18.109375 8.203125 
z
M 48.6875 27.296875 
Q 48.6875 37.203125 44.609375 42.84375 
Q 40.53125 48.484375 33.40625 48.484375 
Q 26.265625 48.484375 22.1875 42.84375 
Q 18.109375 37.203125 18.109375 27.296875 
Q 18.109375 17.390625 22.1875 11.75 
Q 26.265625 6.109375 33.40625 6.109375 
Q 40.53125 6.109375 44.609375 11.75 
Q 48.6875 17.390625 48.6875 27.296875 
z
" id="DejaVuSans-112"/>
      <path id="DejaVuSans-32"/>
      <path d="M 8.5 21.578125 
L 8.5 54.6875 
L 17.484375 54.6875 
L 17.484375 21.921875 
Q 17.484375 14.15625 20.5 10.265625 
Q 23.53125 6.390625 29.59375 6.390625 
Q 36.859375 6.390625 41.078125 11.03125 
Q 45.3125 15.671875 45.3125 23.6875 
L 45.3125 54.6875 
L 54.296875 54.6875 
L 54.296875 0 
L 45.3125 0 
L 45.3125 8.40625 
Q 42.046875 3.421875 37.71875 1 
Q 33.40625 -1.421875 27.6875 -1.421875 
Q 18.265625 -1.421875 13.375 4.4375 
Q 8.5 10.296875 8.5 21.578125 
z
M 31.109375 56 
z
" id="DejaVuSans-117"/>
     </defs>
     <g transform="translate(31.795312 197.566281)rotate(-90)scale(0.1 -0.1)">
      <use xlink:href="#DejaVuSans-115"/>
      <use x="52.099609" xlink:href="#DejaVuSans-112"/>
      <use x="115.576172" xlink:href="#DejaVuSans-101"/>
      <use x="177.099609" xlink:href="#DejaVuSans-101"/>
      <use x="238.623047" xlink:href="#DejaVuSans-100"/>
      <use x="302.099609" xlink:href="#DejaVuSans-32"/>
      <use x="333.886719" xlink:href="#DejaVuSans-117"/>
      <use x="397.265625" xlink:href="#DejaVuSans-112"/>
     </g>
    </g>
   </g>
   <g id="line2d_65">
    <path clip-path="url(#p80c23f9515)" d="M 61.612584 295.488 
L 65.625169 276.209864 
L 69.637753 253.49147 
L 73.650337 234.88902 
L 77.662921 217.42039 
L 81.675506 200.081092 
L 85.68809 186.148492 
L 89.700674 173.383265 
L 93.713258 160.622645 
L 97.725843 149.367078 
L 101.738427 139.140465 
L 105.751011 139.774543 
L 109.763596 121.721007 
L 113.77618 115.25593 
L 117.788764 109.879779 
L 121.801348 105.375803 
L 125.813933 103.453024 
L 129.826517 107.565079 
L 133.839101 107.318933 
L 137.851685 110.17764 
L 141.86427 108.88189 
L 145.876854 111.520786 
L 149.889438 109.844162 
L 153.902022 101.542777 
L 157.914607 102.758509 
L 161.927191 103.720684 
L 165.939775 93.080014 
L 169.95236 98.538429 
L 173.964944 89.041374 
L 177.977528 97.886727 
L 181.990112 101.179242 
L 186.002697 126.750565 
L 190.015281 131.589652 
L 194.027865 151.360824 
L 198.040449 116.456781 
L 202.053034 120.917948 
L 206.065618 118.372076 
L 210.078202 130.8427 
L 214.090787 150.520542 
L 218.103371 171.702706 
L 222.115955 176.794649 
L 226.128539 164.449523 
L 230.141124 152.322943 
L 234.153708 141.02195 
L 238.166292 138.917014 
L 242.178876 142.800546 
L 246.191461 148.391779 
L 250.204045 148.267344 
L 254.216629 143.000643 
L 258.229213 144.965406 
L 262.241798 143.092044 
L 266.254382 141.0081 
L 270.266966 142.961909 
L 274.279551 150.931948 
L 278.292135 147.640201 
L 282.304719 171.706584 
L 286.317303 156.859022 
L 290.329888 164.923256 
L 294.342472 168.177663 
L 298.355056 172.277094 
L 302.36764 175.680235 
L 306.380225 179.410312 
L 310.392809 183.250523 
L 314.405393 186.366157 
L 318.417978 190.1423 
L 322.430562 192.448458 
L 326.443146 194.680598 
L 330.45573 196.328925 
L 334.468315 197.072558 
L 338.480899 198.718472 
L 342.493483 202.618522 
L 346.506067 203.815239 
L 350.518652 206.159703 
L 354.531236 206.734737 
L 358.54382 208.355872 
L 362.556404 211.152039 
L 366.568989 211.351556 
L 370.581573 213.949262 
L 374.594157 214.426699 
L 378.606742 216.609097 
L 382.619326 217.931852 
L 386.63191 219.86622 
L 390.644494 221.250296 
L 394.657079 224.015798 
L 398.669663 225.696252 
L 402.682247 227.968543 
L 406.694831 232.061453 
L 410.707416 246.673497 
" style="fill:none;stroke:#0000ff;stroke-dasharray:1.5,2.475;stroke-dashoffset:0;stroke-width:1.5;"/>
    <defs>
     <path d="M 0 1.5 
C 0.397805 1.5 0.77937 1.341951 1.06066 1.06066 
C 1.341951 0.77937 1.5 0.397805 1.5 0 
C 1.5 -0.397805 1.341951 -0.77937 1.06066 -1.06066 
C 0.77937 -1.341951 0.397805 -1.5 0 -1.5 
C -0.397805 -1.5 -0.77937 -1.341951 -1.06066 -1.06066 
C -1.341951 -0.77937 -1.5 -0.397805 -1.5 0 
C -1.5 0.397805 -1.341951 0.77937 -1.06066 1.06066 
C -0.77937 1.341951 -0.397805 1.5 0 1.5 
z
" id="m8fd47d9b99" style="stroke:#0000ff;"/>
    </defs>
    <g clip-path="url(#p80c23f9515)">
     <use style="fill:#0000ff;stroke:#0000ff;" x="61.612584" xlink:href="#m8fd47d9b99" y="295.488"/>
     <use style="fill:#0000ff;stroke:#0000ff;" x="65.625169" xlink:href="#m8fd47d9b99" y="276.209864"/>
     <use style="fill:#0000ff;stroke:#0000ff;" x="69.637753" xlink:href="#m8fd47d9b99" y="253.49147"/>
     <use style="fill:#0000ff;stroke:#0000ff;" x="73.650337" xlink:href="#m8fd47d9b99" y="234.88902"/>
     <use style="fill:#0000ff;stroke:#0000ff;" x="77.662921" xlink:href="#m8fd47d9b99" y="217.42039"/>
     <use style="fill:#0000ff;stroke:#0000ff;" x="81.675506" xlink:href="#m8fd47d9b99" y="200.081092"/>
     <use style="fill:#0000ff;stroke:#0000ff;" x="85.68809" xlink:href="#m8fd47d9b99" y="186.148492"/>
     <use style="fill:#0000ff;stroke:#0000ff;" x="89.700674" xlink:href="#m8fd47d9b99" y="173.383265"/>
     <use style="fill:#0000ff;stroke:#0000ff;" x="93.713258" xlink:href="#m8fd47d9b99" y="160.622645"/>
     <use style="fill:#0000ff;stroke:#0000ff;" x="97.725843" xlink:href="#m8fd47d9b99" y="149.367078"/>
     <use style="fill:#0000ff;stroke:#0000ff;" x="101.738427" xlink:href="#m8fd47d9b99" y="139.140465"/>
     <use style="fill:#0000ff;stroke:#0000ff;" x="105.751011" xlink:href="#m8fd47d9b99" y="139.774543"/>
     <use style="fill:#0000ff;stroke:#0000ff;" x="109.763596" xlink:href="#m8fd47d9b99" y="121.721007"/>
     <use style="fill:#0000ff;stroke:#0000ff;" x="113.77618" xlink:href="#m8fd47d9b99" y="115.25593"/>
     <use style="fill:#0000ff;stroke:#0000ff;" x="117.788764" xlink:href="#m8fd47d9b99" y="109.879779"/>
     <use style="fill:#0000ff;stroke:#0000ff;" x="121.801348" xlink:href="#m8fd47d9b99" y="105.375803"/>
     <use style="fill:#0000ff;stroke:#0000ff;" x="125.813933" xlink:href="#m8fd47d9b99" y="103.453024"/>
     <use style="fill:#0000ff;stroke:#0000ff;" x="129.826517" xlink:href="#m8fd47d9b99" y="107.565079"/>
     <use style="fill:#0000ff;stroke:#0000ff;" x="133.839101" xlink:href="#m8fd47d9b99" y="107.318933"/>
     <use style="fill:#0000ff;stroke:#0000ff;" x="137.851685" xlink:href="#m8fd47d9b99" y="110.17764"/>
     <use style="fill:#0000ff;stroke:#0000ff;" x="141.86427" xlink:href="#m8fd47d9b99" y="108.88189"/>
     <use style="fill:#0000ff;stroke:#0000ff;" x="145.876854" xlink:href="#m8fd47d9b99" y="111.520786"/>
     <use style="fill:#0000ff;stroke:#0000ff;" x="149.889438" xlink:href="#m8fd47d9b99" y="109.844162"/>
     <use style="fill:#0000ff;stroke:#0000ff;" x="153.902022" xlink:href="#m8fd47d9b99" y="101.542777"/>
     <use style="fill:#0000ff;stroke:#0000ff;" x="157.914607" xlink:href="#m8fd47d9b99" y="102.758509"/>
     <use style="fill:#0000ff;stroke:#0000ff;" x="161.927191" xlink:href="#m8fd47d9b99" y="103.720684"/>
     <use style="fill:#0000ff;stroke:#0000ff;" x="165.939775" xlink:href="#m8fd47d9b99" y="93.080014"/>
     <use style="fill:#0000ff;stroke:#0000ff;" x="169.95236" xlink:href="#m8fd47d9b99" y="98.538429"/>
     <use style="fill:#0000ff;stroke:#0000ff;" x="173.964944" xlink:href="#m8fd47d9b99" y="89.041374"/>
     <use style="fill:#0000ff;stroke:#0000ff;" x="177.977528" xlink:href="#m8fd47d9b99" y="97.886727"/>
     <use style="fill:#0000ff;stroke:#0000ff;" x="181.990112" xlink:href="#m8fd47d9b99" y="101.179242"/>
     <use style="fill:#0000ff;stroke:#0000ff;" x="186.002697" xlink:href="#m8fd47d9b99" y="126.750565"/>
     <use style="fill:#0000ff;stroke:#0000ff;" x="190.015281" xlink:href="#m8fd47d9b99" y="131.589652"/>
     <use style="fill:#0000ff;stroke:#0000ff;" x="194.027865" xlink:href="#m8fd47d9b99" y="151.360824"/>
     <use style="fill:#0000ff;stroke:#0000ff;" x="198.040449" xlink:href="#m8fd47d9b99" y="116.456781"/>
     <use style="fill:#0000ff;stroke:#0000ff;" x="202.053034" xlink:href="#m8fd47d9b99" y="120.917948"/>
     <use style="fill:#0000ff;stroke:#0000ff;" x="206.065618" xlink:href="#m8fd47d9b99" y="118.372076"/>
     <use style="fill:#0000ff;stroke:#0000ff;" x="210.078202" xlink:href="#m8fd47d9b99" y="130.8427"/>
     <use style="fill:#0000ff;stroke:#0000ff;" x="214.090787" xlink:href="#m8fd47d9b99" y="150.520542"/>
     <use style="fill:#0000ff;stroke:#0000ff;" x="218.103371" xlink:href="#m8fd47d9b99" y="171.702706"/>
     <use style="fill:#0000ff;stroke:#0000ff;" x="222.115955" xlink:href="#m8fd47d9b99" y="176.794649"/>
     <use style="fill:#0000ff;stroke:#0000ff;" x="226.128539" xlink:href="#m8fd47d9b99" y="164.449523"/>
     <use style="fill:#0000ff;stroke:#0000ff;" x="230.141124" xlink:href="#m8fd47d9b99" y="152.322943"/>
     <use style="fill:#0000ff;stroke:#0000ff;" x="234.153708" xlink:href="#m8fd47d9b99" y="141.02195"/>
     <use style="fill:#0000ff;stroke:#0000ff;" x="238.166292" xlink:href="#m8fd47d9b99" y="138.917014"/>
     <use style="fill:#0000ff;stroke:#0000ff;" x="242.178876" xlink:href="#m8fd47d9b99" y="142.800546"/>
     <use style="fill:#0000ff;stroke:#0000ff;" x="246.191461" xlink:href="#m8fd47d9b99" y="148.391779"/>
     <use style="fill:#0000ff;stroke:#0000ff;" x="250.204045" xlink:href="#m8fd47d9b99" y="148.267344"/>
     <use style="fill:#0000ff;stroke:#0000ff;" x="254.216629" xlink:href="#m8fd47d9b99" y="143.000643"/>
     <use style="fill:#0000ff;stroke:#0000ff;" x="258.229213" xlink:href="#m8fd47d9b99" y="144.965406"/>
     <use style="fill:#0000ff;stroke:#0000ff;" x="262.241798" xlink:href="#m8fd47d9b99" y="143.092044"/>
     <use style="fill:#0000ff;stroke:#0000ff;" x="266.254382" xlink:href="#m8fd47d9b99" y="141.0081"/>
     <use style="fill:#0000ff;stroke:#0000ff;" x="270.266966" xlink:href="#m8fd47d9b99" y="142.961909"/>
     <use style="fill:#0000ff;stroke:#0000ff;" x="274.279551" xlink:href="#m8fd47d9b99" y="150.931948"/>
     <use style="fill:#0000ff;stroke:#0000ff;" x="278.292135" xlink:href="#m8fd47d9b99" y="147.640201"/>
     <use style="fill:#0000ff;stroke:#0000ff;" x="282.304719" xlink:href="#m8fd47d9b99" y="171.706584"/>
     <use style="fill:#0000ff;stroke:#0000ff;" x="286.317303" xlink:href="#m8fd47d9b99" y="156.859022"/>
     <use style="fill:#0000ff;stroke:#0000ff;" x="290.329888" xlink:href="#m8fd47d9b99" y="164.923256"/>
     <use style="fill:#0000ff;stroke:#0000ff;" x="294.342472" xlink:href="#m8fd47d9b99" y="168.177663"/>
     <use style="fill:#0000ff;stroke:#0000ff;" x="298.355056" xlink:href="#m8fd47d9b99" y="172.277094"/>
     <use style="fill:#0000ff;stroke:#0000ff;" x="302.36764" xlink:href="#m8fd47d9b99" y="175.680235"/>
     <use style="fill:#0000ff;stroke:#0000ff;" x="306.380225" xlink:href="#m8fd47d9b99" y="179.410312"/>
     <use style="fill:#0000ff;stroke:#0000ff;" x="310.392809" xlink:href="#m8fd47d9b99" y="183.250523"/>
     <use style="fill:#0000ff;stroke:#0000ff;" x="314.405393" xlink:href="#m8fd47d9b99" y="186.366157"/>
     <use style="fill:#0000ff;stroke:#0000ff;" x="318.417978" xlink:href="#m8fd47d9b99" y="190.1423"/>
     <use style="fill:#0000ff;stroke:#0000ff;" x="322.430562" xlink:href="#m8fd47d9b99" y="192.448458"/>
     <use style="fill:#0000ff;stroke:#0000ff;" x="326.443146" xlink:href="#m8fd47d9b99" y="194.680598"/>
     <use style="fill:#0000ff;stroke:#0000ff;" x="330.45573" xlink:href="#m8fd47d9b99" y="196.328925"/>
     <use style="fill:#0000ff;stroke:#0000ff;" x="334.468315" xlink:href="#m8fd47d9b99" y="197.072558"/>
     <use style="fill:#0000ff;stroke:#0000ff;" x="338.480899" xlink:href="#m8fd47d9b99" y="198.718472"/>
     <use style="fill:#0000ff;stroke:#0000ff;" x="342.493483" xlink:href="#m8fd47d9b99" y="202.618522"/>
     <use style="fill:#0000ff;stroke:#0000ff;" x="346.506067" xlink:href="#m8fd47d9b99" y="203.815239"/>
     <use style="fill:#0000ff;stroke:#0000ff;" x="350.518652" xlink:href="#m8fd47d9b99" y="206.159703"/>
     <use style="fill:#0000ff;stroke:#0000ff;" x="354.531236" xlink:href="#m8fd47d9b99" y="206.734737"/>
     <use style="fill:#0000ff;stroke:#0000ff;" x="358.54382" xlink:href="#m8fd47d9b99" y="208.355872"/>
     <use style="fill:#0000ff;stroke:#0000ff;" x="362.556404" xlink:href="#m8fd47d9b99" y="211.152039"/>
     <use style="fill:#0000ff;stroke:#0000ff;" x="366.568989" xlink:href="#m8fd47d9b99" y="211.351556"/>
     <use style="fill:#0000ff;stroke:#0000ff;" x="370.581573" xlink:href="#m8fd47d9b99" y="213.949262"/>
     <use style="fill:#0000ff;stroke:#0000ff;" x="374.594157" xlink:href="#m8fd47d9b99" y="214.426699"/>
     <use style="fill:#0000ff;stroke:#0000ff;" x="378.606742" xlink:href="#m8fd47d9b99" y="216.609097"/>
     <use style="fill:#0000ff;stroke:#0000ff;" x="382.619326" xlink:href="#m8fd47d9b99" y="217.931852"/>
     <use style="fill:#0000ff;stroke:#0000ff;" x="386.63191" xlink:href="#m8fd47d9b99" y="219.86622"/>
     <use style="fill:#0000ff;stroke:#0000ff;" x="390.644494" xlink:href="#m8fd47d9b99" y="221.250296"/>
     <use style="fill:#0000ff;stroke:#0000ff;" x="394.657079" xlink:href="#m8fd47d9b99" y="224.015798"/>
     <use style="fill:#0000ff;stroke:#0000ff;" x="398.669663" xlink:href="#m8fd47d9b99" y="225.696252"/>
     <use style="fill:#0000ff;stroke:#0000ff;" x="402.682247" xlink:href="#m8fd47d9b99" y="227.968543"/>
     <use style="fill:#0000ff;stroke:#0000ff;" x="406.694831" xlink:href="#m8fd47d9b99" y="232.061453"/>
     <use style="fill:#0000ff;stroke:#0000ff;" x="410.707416" xlink:href="#m8fd47d9b99" y="246.673497"/>
    </g>
   </g>
   <g id="line2d_66">
    <path clip-path="url(#p80c23f9515)" d="M 61.612584 293.231369 
L 65.625169 269.43875 
L 69.637753 244.222522 
L 73.650337 223.930787 
L 77.662921 204.353627 
L 81.675506 186.0106 
L 85.68809 171.388309 
L 89.700674 157.938112 
L 93.713258 144.294485 
L 97.725843 130.826157 
L 101.738427 121.268431 
L 105.751011 113.425469 
L 109.763596 103.153774 
L 113.77618 96.259694 
L 117.788764 89.690358 
L 121.801348 84.568508 
L 125.813933 84.417086 
L 129.826517 86.171231 
L 133.839101 85.60996 
L 137.851685 84.44106 
L 141.86427 77.620546 
L 145.876854 79.024685 
L 149.889438 77.49991 
L 153.902022 72.578449 
L 157.914607 76.113234 
L 161.927191 68.640906 
L 165.939775 59.163238 
L 169.95236 56.526613 
L 173.964944 53.970167 
L 177.977528 53.568 
L 181.990112 61.060233 
L 186.002697 62.334311 
L 190.015281 67.246683 
L 194.027865 105.240014 
L 198.040449 65.563985 
L 202.053034 70.82226 
L 206.065618 73.155114 
L 210.078202 79.666247 
L 214.090787 90.517897 
L 218.103371 135.849361 
L 222.115955 123.400187 
L 226.128539 107.287986 
L 230.141124 98.290998 
L 234.153708 89.491741 
L 238.166292 86.703302 
L 242.178876 88.496502 
L 246.191461 92.670416 
L 250.204045 92.117141 
L 254.216629 83.131463 
L 258.229213 83.929063 
L 262.241798 83.413602 
L 266.254382 80.656312 
L 270.266966 82.15945 
L 274.279551 86.916081 
L 278.292135 82.219996 
L 282.304719 87.566109 
L 286.317303 85.544342 
L 290.329888 91.387698 
L 294.342472 102.192855 
L 298.355056 108.80021 
L 302.36764 113.94977 
L 306.380225 119.925115 
L 310.392809 125.160135 
L 314.405393 129.196715 
L 318.417978 137.539165 
L 322.430562 141.101754 
L 326.443146 142.665502 
L 330.45573 147.993893 
L 334.468315 149.614629 
L 338.480899 150.58083 
L 342.493483 153.881084 
L 346.506067 155.668358 
L 350.518652 158.947354 
L 354.531236 162.563323 
L 358.54382 162.006573 
L 362.556404 165.977579 
L 366.568989 167.741332 
L 370.581573 171.814876 
L 374.594157 176.052479 
L 378.606742 177.146272 
L 382.619326 181.616079 
L 386.63191 181.178929 
L 390.644494 181.625696 
L 394.657079 186.018688 
L 398.669663 190.720376 
L 402.682247 190.539756 
L 406.694831 198.313824 
L 410.707416 218.323404 
" style="fill:none;stroke:#ff0000;stroke-dasharray:1.5,2.475;stroke-dashoffset:0;stroke-width:1.5;"/>
    <defs>
     <path d="M 0 1.5 
C 0.397805 1.5 0.77937 1.341951 1.06066 1.06066 
C 1.341951 0.77937 1.5 0.397805 1.5 0 
C 1.5 -0.397805 1.341951 -0.77937 1.06066 -1.06066 
C 0.77937 -1.341951 0.397805 -1.5 0 -1.5 
C -0.397805 -1.5 -0.77937 -1.341951 -1.06066 -1.06066 
C -1.341951 -0.77937 -1.5 -0.397805 -1.5 0 
C -1.5 0.397805 -1.341951 0.77937 -1.06066 1.06066 
C -0.77937 1.341951 -0.397805 1.5 0 1.5 
z
" id="m4b36f8d774" style="stroke:#ff0000;"/>
    </defs>
    <g clip-path="url(#p80c23f9515)">
     <use style="fill:#ff0000;stroke:#ff0000;" x="61.612584" xlink:href="#m4b36f8d774" y="293.231369"/>
     <use style="fill:#ff0000;stroke:#ff0000;" x="65.625169" xlink:href="#m4b36f8d774" y="269.43875"/>
     <use style="fill:#ff0000;stroke:#ff0000;" x="69.637753" xlink:href="#m4b36f8d774" y="244.222522"/>
     <use style="fill:#ff0000;stroke:#ff0000;" x="73.650337" xlink:href="#m4b36f8d774" y="223.930787"/>
     <use style="fill:#ff0000;stroke:#ff0000;" x="77.662921" xlink:href="#m4b36f8d774" y="204.353627"/>
     <use style="fill:#ff0000;stroke:#ff0000;" x="81.675506" xlink:href="#m4b36f8d774" y="186.0106"/>
     <use style="fill:#ff0000;stroke:#ff0000;" x="85.68809" xlink:href="#m4b36f8d774" y="171.388309"/>
     <use style="fill:#ff0000;stroke:#ff0000;" x="89.700674" xlink:href="#m4b36f8d774" y="157.938112"/>
     <use style="fill:#ff0000;stroke:#ff0000;" x="93.713258" xlink:href="#m4b36f8d774" y="144.294485"/>
     <use style="fill:#ff0000;stroke:#ff0000;" x="97.725843" xlink:href="#m4b36f8d774" y="130.826157"/>
     <use style="fill:#ff0000;stroke:#ff0000;" x="101.738427" xlink:href="#m4b36f8d774" y="121.268431"/>
     <use style="fill:#ff0000;stroke:#ff0000;" x="105.751011" xlink:href="#m4b36f8d774" y="113.425469"/>
     <use style="fill:#ff0000;stroke:#ff0000;" x="109.763596" xlink:href="#m4b36f8d774" y="103.153774"/>
     <use style="fill:#ff0000;stroke:#ff0000;" x="113.77618" xlink:href="#m4b36f8d774" y="96.259694"/>
     <use style="fill:#ff0000;stroke:#ff0000;" x="117.788764" xlink:href="#m4b36f8d774" y="89.690358"/>
     <use style="fill:#ff0000;stroke:#ff0000;" x="121.801348" xlink:href="#m4b36f8d774" y="84.568508"/>
     <use style="fill:#ff0000;stroke:#ff0000;" x="125.813933" xlink:href="#m4b36f8d774" y="84.417086"/>
     <use style="fill:#ff0000;stroke:#ff0000;" x="129.826517" xlink:href="#m4b36f8d774" y="86.171231"/>
     <use style="fill:#ff0000;stroke:#ff0000;" x="133.839101" xlink:href="#m4b36f8d774" y="85.60996"/>
     <use style="fill:#ff0000;stroke:#ff0000;" x="137.851685" xlink:href="#m4b36f8d774" y="84.44106"/>
     <use style="fill:#ff0000;stroke:#ff0000;" x="141.86427" xlink:href="#m4b36f8d774" y="77.620546"/>
     <use style="fill:#ff0000;stroke:#ff0000;" x="145.876854" xlink:href="#m4b36f8d774" y="79.024685"/>
     <use style="fill:#ff0000;stroke:#ff0000;" x="149.889438" xlink:href="#m4b36f8d774" y="77.49991"/>
     <use style="fill:#ff0000;stroke:#ff0000;" x="153.902022" xlink:href="#m4b36f8d774" y="72.578449"/>
     <use style="fill:#ff0000;stroke:#ff0000;" x="157.914607" xlink:href="#m4b36f8d774" y="76.113234"/>
     <use style="fill:#ff0000;stroke:#ff0000;" x="161.927191" xlink:href="#m4b36f8d774" y="68.640906"/>
     <use style="fill:#ff0000;stroke:#ff0000;" x="165.939775" xlink:href="#m4b36f8d774" y="59.163238"/>
     <use style="fill:#ff0000;stroke:#ff0000;" x="169.95236" xlink:href="#m4b36f8d774" y="56.526613"/>
     <use style="fill:#ff0000;stroke:#ff0000;" x="173.964944" xlink:href="#m4b36f8d774" y="53.970167"/>
     <use style="fill:#ff0000;stroke:#ff0000;" x="177.977528" xlink:href="#m4b36f8d774" y="53.568"/>
     <use style="fill:#ff0000;stroke:#ff0000;" x="181.990112" xlink:href="#m4b36f8d774" y="61.060233"/>
     <use style="fill:#ff0000;stroke:#ff0000;" x="186.002697" xlink:href="#m4b36f8d774" y="62.334311"/>
     <use style="fill:#ff0000;stroke:#ff0000;" x="190.015281" xlink:href="#m4b36f8d774" y="67.246683"/>
     <use style="fill:#ff0000;stroke:#ff0000;" x="194.027865" xlink:href="#m4b36f8d774" y="105.240014"/>
     <use style="fill:#ff0000;stroke:#ff0000;" x="198.040449" xlink:href="#m4b36f8d774" y="65.563985"/>
     <use style="fill:#ff0000;stroke:#ff0000;" x="202.053034" xlink:href="#m4b36f8d774" y="70.82226"/>
     <use style="fill:#ff0000;stroke:#ff0000;" x="206.065618" xlink:href="#m4b36f8d774" y="73.155114"/>
     <use style="fill:#ff0000;stroke:#ff0000;" x="210.078202" xlink:href="#m4b36f8d774" y="79.666247"/>
     <use style="fill:#ff0000;stroke:#ff0000;" x="214.090787" xlink:href="#m4b36f8d774" y="90.517897"/>
     <use style="fill:#ff0000;stroke:#ff0000;" x="218.103371" xlink:href="#m4b36f8d774" y="135.849361"/>
     <use style="fill:#ff0000;stroke:#ff0000;" x="222.115955" xlink:href="#m4b36f8d774" y="123.400187"/>
     <use style="fill:#ff0000;stroke:#ff0000;" x="226.128539" xlink:href="#m4b36f8d774" y="107.287986"/>
     <use style="fill:#ff0000;stroke:#ff0000;" x="230.141124" xlink:href="#m4b36f8d774" y="98.290998"/>
     <use style="fill:#ff0000;stroke:#ff0000;" x="234.153708" xlink:href="#m4b36f8d774" y="89.491741"/>
     <use style="fill:#ff0000;stroke:#ff0000;" x="238.166292" xlink:href="#m4b36f8d774" y="86.703302"/>
     <use style="fill:#ff0000;stroke:#ff0000;" x="242.178876" xlink:href="#m4b36f8d774" y="88.496502"/>
     <use style="fill:#ff0000;stroke:#ff0000;" x="246.191461" xlink:href="#m4b36f8d774" y="92.670416"/>
     <use style="fill:#ff0000;stroke:#ff0000;" x="250.204045" xlink:href="#m4b36f8d774" y="92.117141"/>
     <use style="fill:#ff0000;stroke:#ff0000;" x="254.216629" xlink:href="#m4b36f8d774" y="83.131463"/>
     <use style="fill:#ff0000;stroke:#ff0000;" x="258.229213" xlink:href="#m4b36f8d774" y="83.929063"/>
     <use style="fill:#ff0000;stroke:#ff0000;" x="262.241798" xlink:href="#m4b36f8d774" y="83.413602"/>
     <use style="fill:#ff0000;stroke:#ff0000;" x="266.254382" xlink:href="#m4b36f8d774" y="80.656312"/>
     <use style="fill:#ff0000;stroke:#ff0000;" x="270.266966" xlink:href="#m4b36f8d774" y="82.15945"/>
     <use style="fill:#ff0000;stroke:#ff0000;" x="274.279551" xlink:href="#m4b36f8d774" y="86.916081"/>
     <use style="fill:#ff0000;stroke:#ff0000;" x="278.292135" xlink:href="#m4b36f8d774" y="82.219996"/>
     <use style="fill:#ff0000;stroke:#ff0000;" x="282.304719" xlink:href="#m4b36f8d774" y="87.566109"/>
     <use style="fill:#ff0000;stroke:#ff0000;" x="286.317303" xlink:href="#m4b36f8d774" y="85.544342"/>
     <use style="fill:#ff0000;stroke:#ff0000;" x="290.329888" xlink:href="#m4b36f8d774" y="91.387698"/>
     <use style="fill:#ff0000;stroke:#ff0000;" x="294.342472" xlink:href="#m4b36f8d774" y="102.192855"/>
     <use style="fill:#ff0000;stroke:#ff0000;" x="298.355056" xlink:href="#m4b36f8d774" y="108.80021"/>
     <use style="fill:#ff0000;stroke:#ff0000;" x="302.36764" xlink:href="#m4b36f8d774" y="113.94977"/>
     <use style="fill:#ff0000;stroke:#ff0000;" x="306.380225" xlink:href="#m4b36f8d774" y="119.925115"/>
     <use style="fill:#ff0000;stroke:#ff0000;" x="310.392809" xlink:href="#m4b36f8d774" y="125.160135"/>
     <use style="fill:#ff0000;stroke:#ff0000;" x="314.405393" xlink:href="#m4b36f8d774" y="129.196715"/>
     <use style="fill:#ff0000;stroke:#ff0000;" x="318.417978" xlink:href="#m4b36f8d774" y="137.539165"/>
     <use style="fill:#ff0000;stroke:#ff0000;" x="322.430562" xlink:href="#m4b36f8d774" y="141.101754"/>
     <use style="fill:#ff0000;stroke:#ff0000;" x="326.443146" xlink:href="#m4b36f8d774" y="142.665502"/>
     <use style="fill:#ff0000;stroke:#ff0000;" x="330.45573" xlink:href="#m4b36f8d774" y="147.993893"/>
     <use style="fill:#ff0000;stroke:#ff0000;" x="334.468315" xlink:href="#m4b36f8d774" y="149.614629"/>
     <use style="fill:#ff0000;stroke:#ff0000;" x="338.480899" xlink:href="#m4b36f8d774" y="150.58083"/>
     <use style="fill:#ff0000;stroke:#ff0000;" x="342.493483" xlink:href="#m4b36f8d774" y="153.881084"/>
     <use style="fill:#ff0000;stroke:#ff0000;" x="346.506067" xlink:href="#m4b36f8d774" y="155.668358"/>
     <use style="fill:#ff0000;stroke:#ff0000;" x="350.518652" xlink:href="#m4b36f8d774" y="158.947354"/>
     <use style="fill:#ff0000;stroke:#ff0000;" x="354.531236" xlink:href="#m4b36f8d774" y="162.563323"/>
     <use style="fill:#ff0000;stroke:#ff0000;" x="358.54382" xlink:href="#m4b36f8d774" y="162.006573"/>
     <use style="fill:#ff0000;stroke:#ff0000;" x="362.556404" xlink:href="#m4b36f8d774" y="165.977579"/>
     <use style="fill:#ff0000;stroke:#ff0000;" x="366.568989" xlink:href="#m4b36f8d774" y="167.741332"/>
     <use style="fill:#ff0000;stroke:#ff0000;" x="370.581573" xlink:href="#m4b36f8d774" y="171.814876"/>
     <use style="fill:#ff0000;stroke:#ff0000;" x="374.594157" xlink:href="#m4b36f8d774" y="176.052479"/>
     <use style="fill:#ff0000;stroke:#ff0000;" x="378.606742" xlink:href="#m4b36f8d774" y="177.146272"/>
     <use style="fill:#ff0000;stroke:#ff0000;" x="382.619326" xlink:href="#m4b36f8d774" y="181.616079"/>
     <use style="fill:#ff0000;stroke:#ff0000;" x="386.63191" xlink:href="#m4b36f8d774" y="181.178929"/>
     <use style="fill:#ff0000;stroke:#ff0000;" x="390.644494" xlink:href="#m4b36f8d774" y="181.625696"/>
     <use style="fill:#ff0000;stroke:#ff0000;" x="394.657079" xlink:href="#m4b36f8d774" y="186.018688"/>
     <use style="fill:#ff0000;stroke:#ff0000;" x="398.669663" xlink:href="#m4b36f8d774" y="190.720376"/>
     <use style="fill:#ff0000;stroke:#ff0000;" x="402.682247" xlink:href="#m4b36f8d774" y="190.539756"/>
     <use style="fill:#ff0000;stroke:#ff0000;" x="406.694831" xlink:href="#m4b36f8d774" y="198.313824"/>
     <use style="fill:#ff0000;stroke:#ff0000;" x="410.707416" xlink:href="#m4b36f8d774" y="218.323404"/>
    </g>
   </g>
   <g id="line2d_67">
    <path clip-path="url(#p80c23f9515)" d="M 61.612584 294.359685 
L 65.625169 272.824307 
L 69.637753 248.856996 
L 73.650337 229.409904 
L 77.662921 210.887009 
L 81.675506 193.045846 
L 85.68809 178.768401 
L 89.700674 165.660688 
L 93.713258 152.458565 
L 97.725843 140.096617 
L 101.738427 130.204448 
L 105.751011 126.600006 
L 109.763596 112.437391 
L 113.77618 105.757812 
L 117.788764 99.785069 
L 121.801348 94.972155 
L 125.813933 93.935055 
L 129.826517 96.868155 
L 133.839101 96.464446 
L 137.851685 97.30935 
L 141.86427 93.251218 
L 145.876854 95.272735 
L 149.889438 93.672036 
L 153.902022 87.060613 
L 157.914607 89.435872 
L 161.927191 86.180795 
L 165.939775 76.121626 
L 169.95236 77.532521 
L 173.964944 71.50577 
L 177.977528 75.727364 
L 181.990112 81.119738 
L 186.002697 94.542438 
L 190.015281 99.418167 
L 194.027865 128.300419 
L 198.040449 91.010383 
L 202.053034 95.870104 
L 206.065618 95.763595 
L 210.078202 105.254474 
L 214.090787 120.51922 
L 218.103371 153.776034 
L 222.115955 150.097418 
L 226.128539 135.868754 
L 230.141124 125.306971 
L 234.153708 115.256846 
L 238.166292 112.810158 
L 242.178876 115.648524 
L 246.191461 120.531098 
L 250.204045 120.192243 
L 254.216629 113.066053 
L 258.229213 114.447234 
L 262.241798 113.252823 
L 266.254382 110.832206 
L 270.266966 112.56068 
L 274.279551 118.924014 
L 278.292135 114.930098 
L 282.304719 129.636347 
L 286.317303 121.201682 
L 290.329888 128.155477 
L 294.342472 135.185259 
L 298.355056 140.538652 
L 302.36764 144.815003 
L 306.380225 149.667714 
L 310.392809 154.205329 
L 314.405393 157.781436 
L 318.417978 163.840733 
L 322.430562 166.775106 
L 326.443146 168.67305 
L 330.45573 172.161409 
L 334.468315 173.343594 
L 338.480899 174.649651 
L 342.493483 178.249803 
L 346.506067 179.741799 
L 350.518652 182.553529 
L 354.531236 184.64903 
L 358.54382 185.181223 
L 362.556404 188.564809 
L 366.568989 189.546444 
L 370.581573 192.882069 
L 374.594157 195.239589 
L 378.606742 196.877685 
L 382.619326 199.773966 
L 386.63191 200.522574 
L 390.644494 201.437996 
L 394.657079 205.017243 
L 398.669663 208.208314 
L 402.682247 209.25415 
L 406.694831 215.187638 
L 410.707416 232.498451 
" style="fill:none;stroke:#008000;stroke-dasharray:1.5,2.475;stroke-dashoffset:0;stroke-width:1.5;"/>
    <defs>
     <path d="M 0 1.5 
C 0.397805 1.5 0.77937 1.341951 1.06066 1.06066 
C 1.341951 0.77937 1.5 0.397805 1.5 0 
C 1.5 -0.397805 1.341951 -0.77937 1.06066 -1.06066 
C 0.77937 -1.341951 0.397805 -1.5 0 -1.5 
C -0.397805 -1.5 -0.77937 -1.341951 -1.06066 -1.06066 
C -1.341951 -0.77937 -1.5 -0.397805 -1.5 0 
C -1.5 0.397805 -1.341951 0.77937 -1.06066 1.06066 
C -0.77937 1.341951 -0.397805 1.5 0 1.5 
z
" id="m5423b36009" style="stroke:#008000;"/>
    </defs>
    <g clip-path="url(#p80c23f9515)">
     <use style="fill:#008000;stroke:#008000;" x="61.612584" xlink:href="#m5423b36009" y="294.359685"/>
     <use style="fill:#008000;stroke:#008000;" x="65.625169" xlink:href="#m5423b36009" y="272.824307"/>
     <use style="fill:#008000;stroke:#008000;" x="69.637753" xlink:href="#m5423b36009" y="248.856996"/>
     <use style="fill:#008000;stroke:#008000;" x="73.650337" xlink:href="#m5423b36009" y="229.409904"/>
     <use style="fill:#008000;stroke:#008000;" x="77.662921" xlink:href="#m5423b36009" y="210.887009"/>
     <use style="fill:#008000;stroke:#008000;" x="81.675506" xlink:href="#m5423b36009" y="193.045846"/>
     <use style="fill:#008000;stroke:#008000;" x="85.68809" xlink:href="#m5423b36009" y="178.768401"/>
     <use style="fill:#008000;stroke:#008000;" x="89.700674" xlink:href="#m5423b36009" y="165.660688"/>
     <use style="fill:#008000;stroke:#008000;" x="93.713258" xlink:href="#m5423b36009" y="152.458565"/>
     <use style="fill:#008000;stroke:#008000;" x="97.725843" xlink:href="#m5423b36009" y="140.096617"/>
     <use style="fill:#008000;stroke:#008000;" x="101.738427" xlink:href="#m5423b36009" y="130.204448"/>
     <use style="fill:#008000;stroke:#008000;" x="105.751011" xlink:href="#m5423b36009" y="126.600006"/>
     <use style="fill:#008000;stroke:#008000;" x="109.763596" xlink:href="#m5423b36009" y="112.437391"/>
     <use style="fill:#008000;stroke:#008000;" x="113.77618" xlink:href="#m5423b36009" y="105.757812"/>
     <use style="fill:#008000;stroke:#008000;" x="117.788764" xlink:href="#m5423b36009" y="99.785069"/>
     <use style="fill:#008000;stroke:#008000;" x="121.801348" xlink:href="#m5423b36009" y="94.972155"/>
     <use style="fill:#008000;stroke:#008000;" x="125.813933" xlink:href="#m5423b36009" y="93.935055"/>
     <use style="fill:#008000;stroke:#008000;" x="129.826517" xlink:href="#m5423b36009" y="96.868155"/>
     <use style="fill:#008000;stroke:#008000;" x="133.839101" xlink:href="#m5423b36009" y="96.464446"/>
     <use style="fill:#008000;stroke:#008000;" x="137.851685" xlink:href="#m5423b36009" y="97.30935"/>
     <use style="fill:#008000;stroke:#008000;" x="141.86427" xlink:href="#m5423b36009" y="93.251218"/>
     <use style="fill:#008000;stroke:#008000;" x="145.876854" xlink:href="#m5423b36009" y="95.272735"/>
     <use style="fill:#008000;stroke:#008000;" x="149.889438" xlink:href="#m5423b36009" y="93.672036"/>
     <use style="fill:#008000;stroke:#008000;" x="153.902022" xlink:href="#m5423b36009" y="87.060613"/>
     <use style="fill:#008000;stroke:#008000;" x="157.914607" xlink:href="#m5423b36009" y="89.435872"/>
     <use style="fill:#008000;stroke:#008000;" x="161.927191" xlink:href="#m5423b36009" y="86.180795"/>
     <use style="fill:#008000;stroke:#008000;" x="165.939775" xlink:href="#m5423b36009" y="76.121626"/>
     <use style="fill:#008000;stroke:#008000;" x="169.95236" xlink:href="#m5423b36009" y="77.532521"/>
     <use style="fill:#008000;stroke:#008000;" x="173.964944" xlink:href="#m5423b36009" y="71.50577"/>
     <use style="fill:#008000;stroke:#008000;" x="177.977528" xlink:href="#m5423b36009" y="75.727364"/>
     <use style="fill:#008000;stroke:#008000;" x="181.990112" xlink:href="#m5423b36009" y="81.119738"/>
     <use style="fill:#008000;stroke:#008000;" x="186.002697" xlink:href="#m5423b36009" y="94.542438"/>
     <use style="fill:#008000;stroke:#008000;" x="190.015281" xlink:href="#m5423b36009" y="99.418167"/>
     <use style="fill:#008000;stroke:#008000;" x="194.027865" xlink:href="#m5423b36009" y="128.300419"/>
     <use style="fill:#008000;stroke:#008000;" x="198.040449" xlink:href="#m5423b36009" y="91.010383"/>
     <use style="fill:#008000;stroke:#008000;" x="202.053034" xlink:href="#m5423b36009" y="95.870104"/>
     <use style="fill:#008000;stroke:#008000;" x="206.065618" xlink:href="#m5423b36009" y="95.763595"/>
     <use style="fill:#008000;stroke:#008000;" x="210.078202" xlink:href="#m5423b36009" y="105.254474"/>
     <use style="fill:#008000;stroke:#008000;" x="214.090787" xlink:href="#m5423b36009" y="120.51922"/>
     <use style="fill:#008000;stroke:#008000;" x="218.103371" xlink:href="#m5423b36009" y="153.776034"/>
     <use style="fill:#008000;stroke:#008000;" x="222.115955" xlink:href="#m5423b36009" y="150.097418"/>
     <use style="fill:#008000;stroke:#008000;" x="226.128539" xlink:href="#m5423b36009" y="135.868754"/>
     <use style="fill:#008000;stroke:#008000;" x="230.141124" xlink:href="#m5423b36009" y="125.306971"/>
     <use style="fill:#008000;stroke:#008000;" x="234.153708" xlink:href="#m5423b36009" y="115.256846"/>
     <use style="fill:#008000;stroke:#008000;" x="238.166292" xlink:href="#m5423b36009" y="112.810158"/>
     <use style="fill:#008000;stroke:#008000;" x="242.178876" xlink:href="#m5423b36009" y="115.648524"/>
     <use style="fill:#008000;stroke:#008000;" x="246.191461" xlink:href="#m5423b36009" y="120.531098"/>
     <use style="fill:#008000;stroke:#008000;" x="250.204045" xlink:href="#m5423b36009" y="120.192243"/>
     <use style="fill:#008000;stroke:#008000;" x="254.216629" xlink:href="#m5423b36009" y="113.066053"/>
     <use style="fill:#008000;stroke:#008000;" x="258.229213" xlink:href="#m5423b36009" y="114.447234"/>
     <use style="fill:#008000;stroke:#008000;" x="262.241798" xlink:href="#m5423b36009" y="113.252823"/>
     <use style="fill:#008000;stroke:#008000;" x="266.254382" xlink:href="#m5423b36009" y="110.832206"/>
     <use style="fill:#008000;stroke:#008000;" x="270.266966" xlink:href="#m5423b36009" y="112.56068"/>
     <use style="fill:#008000;stroke:#008000;" x="274.279551" xlink:href="#m5423b36009" y="118.924014"/>
     <use style="fill:#008000;stroke:#008000;" x="278.292135" xlink:href="#m5423b36009" y="114.930098"/>
     <use style="fill:#008000;stroke:#008000;" x="282.304719" xlink:href="#m5423b36009" y="129.636347"/>
     <use style="fill:#008000;stroke:#008000;" x="286.317303" xlink:href="#m5423b36009" y="121.201682"/>
     <use style="fill:#008000;stroke:#008000;" x="290.329888" xlink:href="#m5423b36009" y="128.155477"/>
     <use style="fill:#008000;stroke:#008000;" x="294.342472" xlink:href="#m5423b36009" y="135.185259"/>
     <use style="fill:#008000;stroke:#008000;" x="298.355056" xlink:href="#m5423b36009" y="140.538652"/>
     <use style="fill:#008000;stroke:#008000;" x="302.36764" xlink:href="#m5423b36009" y="144.815003"/>
     <use style="fill:#008000;stroke:#008000;" x="306.380225" xlink:href="#m5423b36009" y="149.667714"/>
     <use style="fill:#008000;stroke:#008000;" x="310.392809" xlink:href="#m5423b36009" y="154.205329"/>
     <use style="fill:#008000;stroke:#008000;" x="314.405393" xlink:href="#m5423b36009" y="157.781436"/>
     <use style="fill:#008000;stroke:#008000;" x="318.417978" xlink:href="#m5423b36009" y="163.840733"/>
     <use style="fill:#008000;stroke:#008000;" x="322.430562" xlink:href="#m5423b36009" y="166.775106"/>
     <use style="fill:#008000;stroke:#008000;" x="326.443146" xlink:href="#m5423b36009" y="168.67305"/>
     <use style="fill:#008000;stroke:#008000;" x="330.45573" xlink:href="#m5423b36009" y="172.161409"/>
     <use style="fill:#008000;stroke:#008000;" x="334.468315" xlink:href="#m5423b36009" y="173.343594"/>
     <use style="fill:#008000;stroke:#008000;" x="338.480899" xlink:href="#m5423b36009" y="174.649651"/>
     <use style="fill:#008000;stroke:#008000;" x="342.493483" xlink:href="#m5423b36009" y="178.249803"/>
     <use style="fill:#008000;stroke:#008000;" x="346.506067" xlink:href="#m5423b36009" y="179.741799"/>
     <use style="fill:#008000;stroke:#008000;" x="350.518652" xlink:href="#m5423b36009" y="182.553529"/>
     <use style="fill:#008000;stroke:#008000;" x="354.531236" xlink:href="#m5423b36009" y="184.64903"/>
     <use style="fill:#008000;stroke:#008000;" x="358.54382" xlink:href="#m5423b36009" y="185.181223"/>
     <use style="fill:#008000;stroke:#008000;" x="362.556404" xlink:href="#m5423b36009" y="188.564809"/>
     <use style="fill:#008000;stroke:#008000;" x="366.568989" xlink:href="#m5423b36009" y="189.546444"/>
     <use style="fill:#008000;stroke:#008000;" x="370.581573" xlink:href="#m5423b36009" y="192.882069"/>
     <use style="fill:#008000;stroke:#008000;" x="374.594157" xlink:href="#m5423b36009" y="195.239589"/>
     <use style="fill:#008000;stroke:#008000;" x="378.606742" xlink:href="#m5423b36009" y="196.877685"/>
     <use style="fill:#008000;stroke:#008000;" x="382.619326" xlink:href="#m5423b36009" y="199.773966"/>
     <use style="fill:#008000;stroke:#008000;" x="386.63191" xlink:href="#m5423b36009" y="200.522574"/>
     <use style="fill:#008000;stroke:#008000;" x="390.644494" xlink:href="#m5423b36009" y="201.437996"/>
     <use style="fill:#008000;stroke:#008000;" x="394.657079" xlink:href="#m5423b36009" y="205.017243"/>
     <use style="fill:#008000;stroke:#008000;" x="398.669663" xlink:href="#m5423b36009" y="208.208314"/>
     <use style="fill:#008000;stroke:#008000;" x="402.682247" xlink:href="#m5423b36009" y="209.25415"/>
     <use style="fill:#008000;stroke:#008000;" x="406.694831" xlink:href="#m5423b36009" y="215.187638"/>
     <use style="fill:#008000;stroke:#008000;" x="410.707416" xlink:href="#m5423b36009" y="232.498451"/>
    </g>
   </g>
   <g id="patch_3">
    <path d="M 57.6 307.584 
L 57.6 41.472 
" style="fill:none;stroke:#000000;stroke-linecap:square;stroke-linejoin:miter;stroke-width:0.8;"/>
   </g>
   <g id="patch_4">
    <path d="M 414.72 307.584 
L 414.72 41.472 
" style="fill:none;stroke:#000000;stroke-linecap:square;stroke-linejoin:miter;stroke-width:0.8;"/>
   </g>
   <g id="patch_5">
    <path d="M 57.6 307.584 
L 414.72 307.584 
" style="fill:none;stroke:#000000;stroke-linecap:square;stroke-linejoin:miter;stroke-width:0.8;"/>
   </g>
   <g id="patch_6">
    <path d="M 57.6 41.472 
L 414.72 41.472 
" style="fill:none;stroke:#000000;stroke-linecap:square;stroke-linejoin:miter;stroke-width:0.8;"/>
   </g>
   <g id="text_35">
    <!-- radix sort 7 on pre_transpose1 -->
    <defs>
     <path d="M 9.421875 54.6875 
L 18.40625 54.6875 
L 18.40625 0 
L 9.421875 0 
z
M 9.421875 75.984375 
L 18.40625 75.984375 
L 18.40625 64.59375 
L 9.421875 64.59375 
z
" id="DejaVuSans-105"/>
     <path d="M 54.890625 54.6875 
L 35.109375 28.078125 
L 55.90625 0 
L 45.3125 0 
L 29.390625 21.484375 
L 13.484375 0 
L 2.875 0 
L 24.125 28.609375 
L 4.6875 54.6875 
L 15.28125 54.6875 
L 29.78125 35.203125 
L 44.28125 54.6875 
z
" id="DejaVuSans-120"/>
     <path d="M 30.609375 48.390625 
Q 23.390625 48.390625 19.1875 42.75 
Q 14.984375 37.109375 14.984375 27.296875 
Q 14.984375 17.484375 19.15625 11.84375 
Q 23.34375 6.203125 30.609375 6.203125 
Q 37.796875 6.203125 41.984375 11.859375 
Q 46.1875 17.53125 46.1875 27.296875 
Q 46.1875 37.015625 41.984375 42.703125 
Q 37.796875 48.390625 30.609375 48.390625 
z
M 30.609375 56 
Q 42.328125 56 49.015625 48.375 
Q 55.71875 40.765625 55.71875 27.296875 
Q 55.71875 13.875 49.015625 6.21875 
Q 42.328125 -1.421875 30.609375 -1.421875 
Q 18.84375 -1.421875 12.171875 6.21875 
Q 5.515625 13.875 5.515625 27.296875 
Q 5.515625 40.765625 12.171875 48.375 
Q 18.84375 56 30.609375 56 
z
" id="DejaVuSans-111"/>
     <path d="M 54.890625 33.015625 
L 54.890625 0 
L 45.90625 0 
L 45.90625 32.71875 
Q 45.90625 40.484375 42.875 44.328125 
Q 39.84375 48.1875 33.796875 48.1875 
Q 26.515625 48.1875 22.3125 43.546875 
Q 18.109375 38.921875 18.109375 30.90625 
L 18.109375 0 
L 9.078125 0 
L 9.078125 54.6875 
L 18.109375 54.6875 
L 18.109375 46.1875 
Q 21.34375 51.125 25.703125 53.5625 
Q 30.078125 56 35.796875 56 
Q 45.21875 56 50.046875 50.171875 
Q 54.890625 44.34375 54.890625 33.015625 
z
" id="DejaVuSans-110"/>
     <path d="M 50.984375 -16.609375 
L 50.984375 -23.578125 
L -0.984375 -23.578125 
L -0.984375 -16.609375 
z
" id="DejaVuSans-95"/>
    </defs>
    <g transform="translate(144.083438 35.472)scale(0.12 -0.12)">
     <use xlink:href="#DejaVuSans-114"/>
     <use x="41.113281" xlink:href="#DejaVuSans-97"/>
     <use x="102.392578" xlink:href="#DejaVuSans-100"/>
     <use x="165.869141" xlink:href="#DejaVuSans-105"/>
     <use x="193.652344" xlink:href="#DejaVuSans-120"/>
     <use x="252.832031" xlink:href="#DejaVuSans-32"/>
     <use x="284.619141" xlink:href="#DejaVuSans-115"/>
     <use x="336.71875" xlink:href="#DejaVuSans-111"/>
     <use x="397.900391" xlink:href="#DejaVuSans-114"/>
     <use x="439.013672" xlink:href="#DejaVuSans-116"/>
     <use x="478.222656" xlink:href="#DejaVuSans-32"/>
     <use x="510.009766" xlink:href="#DejaVuSans-55"/>
     <use x="573.632812" xlink:href="#DejaVuSans-32"/>
     <use x="605.419922" xlink:href="#DejaVuSans-111"/>
     <use x="666.601562" xlink:href="#DejaVuSans-110"/>
     <use x="729.980469" xlink:href="#DejaVuSans-32"/>
     <use x="761.767578" xlink:href="#DejaVuSans-112"/>
     <use x="825.244141" xlink:href="#DejaVuSans-114"/>
     <use x="864.107422" xlink:href="#DejaVuSans-101"/>
     <use x="925.630859" xlink:href="#DejaVuSans-95"/>
     <use x="975.630859" xlink:href="#DejaVuSans-116"/>
     <use x="1014.839844" xlink:href="#DejaVuSans-114"/>
     <use x="1055.953125" xlink:href="#DejaVuSans-97"/>
     <use x="1117.232422" xlink:href="#DejaVuSans-110"/>
     <use x="1180.611328" xlink:href="#DejaVuSans-115"/>
     <use x="1232.710938" xlink:href="#DejaVuSans-112"/>
     <use x="1296.1875" xlink:href="#DejaVuSans-111"/>
     <use x="1357.369141" xlink:href="#DejaVuSans-115"/>
     <use x="1409.46875" xlink:href="#DejaVuSans-101"/>
     <use x="1470.992188" xlink:href="#DejaVuSans-49"/>
    </g>
   </g>
   <g id="legend_1">
    <g id="patch_7">
     <path d="M 313.152813 93.7845 
L 407.72 93.7845 
Q 409.72 93.7845 409.72 91.7845 
L 409.72 48.472 
Q 409.72 46.472 407.72 46.472 
L 313.152813 46.472 
Q 311.152813 46.472 311.152813 48.472 
L 311.152813 91.7845 
Q 311.152813 93.7845 313.152813 93.7845 
z
" style="fill:#ffffff;opacity:0.8;stroke:#cccccc;stroke-linejoin:miter;"/>
    </g>
    <g id="line2d_68">
     <path d="M 315.152813 54.570438 
L 335.152813 54.570438 
" style="fill:none;stroke:#0000ff;stroke-dasharray:1.5,2.475;stroke-dashoffset:0;stroke-width:1.5;"/>
    </g>
    <g id="line2d_69">
     <g>
      <use style="fill:#0000ff;stroke:#0000ff;" x="325.152813" xlink:href="#m8fd47d9b99" y="54.570438"/>
     </g>
    </g>
    <g id="text_36">
     <!-- transpose -->
     <g transform="translate(343.152813 58.070438)scale(0.1 -0.1)">
      <use xlink:href="#DejaVuSans-116"/>
      <use x="39.208984" xlink:href="#DejaVuSans-114"/>
      <use x="80.322266" xlink:href="#DejaVuSans-97"/>
      <use x="141.601562" xlink:href="#DejaVuSans-110"/>
      <use x="204.980469" xlink:href="#DejaVuSans-115"/>
      <use x="257.080078" xlink:href="#DejaVuSans-112"/>
      <use x="320.556641" xlink:href="#DejaVuSans-111"/>
      <use x="381.738281" xlink:href="#DejaVuSans-115"/>
      <use x="433.837891" xlink:href="#DejaVuSans-101"/>
     </g>
    </g>
    <g id="line2d_70">
     <path d="M 315.152813 69.248563 
L 335.152813 69.248563 
" style="fill:none;stroke:#ff0000;stroke-dasharray:1.5,2.475;stroke-dashoffset:0;stroke-width:1.5;"/>
    </g>
    <g id="line2d_71">
     <g>
      <use style="fill:#ff0000;stroke:#ff0000;" x="325.152813" xlink:href="#m4b36f8d774" y="69.248563"/>
     </g>
    </g>
    <g id="text_37">
     <!-- transpose_tr -->
     <g transform="translate(343.152813 72.748563)scale(0.1 -0.1)">
      <use xlink:href="#DejaVuSans-116"/>
      <use x="39.208984" xlink:href="#DejaVuSans-114"/>
      <use x="80.322266" xlink:href="#DejaVuSans-97"/>
      <use x="141.601562" xlink:href="#DejaVuSans-110"/>
      <use x="204.980469" xlink:href="#DejaVuSans-115"/>
      <use x="257.080078" xlink:href="#DejaVuSans-112"/>
      <use x="320.556641" xlink:href="#DejaVuSans-111"/>
      <use x="381.738281" xlink:href="#DejaVuSans-115"/>
      <use x="433.837891" xlink:href="#DejaVuSans-101"/>
      <use x="495.361328" xlink:href="#DejaVuSans-95"/>
      <use x="545.361328" xlink:href="#DejaVuSans-116"/>
      <use x="584.570312" xlink:href="#DejaVuSans-114"/>
     </g>
    </g>
    <g id="line2d_72">
     <path d="M 315.152813 84.204813 
L 335.152813 84.204813 
" style="fill:none;stroke:#008000;stroke-dasharray:1.5,2.475;stroke-dashoffset:0;stroke-width:1.5;"/>
    </g>
    <g id="line2d_73">
     <g>
      <use style="fill:#008000;stroke:#008000;" x="325.152813" xlink:href="#m5423b36009" y="84.204813"/>
     </g>
    </g>
    <g id="text_38">
     <!-- mean -->
     <defs>
      <path d="M 52 44.1875 
Q 55.375 50.25 60.0625 53.125 
Q 64.75 56 71.09375 56 
Q 79.640625 56 84.28125 50.015625 
Q 88.921875 44.046875 88.921875 33.015625 
L 88.921875 0 
L 79.890625 0 
L 79.890625 32.71875 
Q 79.890625 40.578125 77.09375 44.375 
Q 74.3125 48.1875 68.609375 48.1875 
Q 61.625 48.1875 57.5625 43.546875 
Q 53.515625 38.921875 53.515625 30.90625 
L 53.515625 0 
L 44.484375 0 
L 44.484375 32.71875 
Q 44.484375 40.625 41.703125 44.40625 
Q 38.921875 48.1875 33.109375 48.1875 
Q 26.21875 48.1875 22.15625 43.53125 
Q 18.109375 38.875 18.109375 30.90625 
L 18.109375 0 
L 9.078125 0 
L 9.078125 54.6875 
L 18.109375 54.6875 
L 18.109375 46.1875 
Q 21.1875 51.21875 25.484375 53.609375 
Q 29.78125 56 35.6875 56 
Q 41.65625 56 45.828125 52.96875 
Q 50 49.953125 52 44.1875 
z
" id="DejaVuSans-109"/>
     </defs>
     <g transform="translate(343.152813 87.704813)scale(0.1 -0.1)">
      <use xlink:href="#DejaVuSans-109"/>
      <use x="97.412109" xlink:href="#DejaVuSans-101"/>
      <use x="158.935547" xlink:href="#DejaVuSans-97"/>
      <use x="220.214844" xlink:href="#DejaVuSans-110"/>
     </g>
    </g>
   </g>
  </g>
 </g>
 <defs>
  <clipPath id="p80c23f9515">
   <rect height="266.112" width="357.12" x="57.6" y="41.472"/>
  </clipPath>
 </defs>
</svg>
