<?xml version="1.0" encoding="utf-8" standalone="no"?>
<!DOCTYPE svg PUBLIC "-//W3C//DTD SVG 1.1//EN"
  "http://www.w3.org/Graphics/SVG/1.1/DTD/svg11.dtd">
<!-- Created with matplotlib (https://matplotlib.org/) -->
<svg height="345.6pt" version="1.1" viewBox="0 0 460.8 345.6" width="460.8pt" xmlns="http://www.w3.org/2000/svg" xmlns:xlink="http://www.w3.org/1999/xlink">
 <metadata>
  <rdf:RDF xmlns:cc="http://creativecommons.org/ns#" xmlns:dc="http://purl.org/dc/elements/1.1/" xmlns:rdf="http://www.w3.org/1999/02/22-rdf-syntax-ns#">
   <cc:Work>
    <dc:type rdf:resource="http://purl.org/dc/dcmitype/StillImage"/>
    <dc:date>2020-08-19T17:59:50.385041</dc:date>
    <dc:format>image/svg+xml</dc:format>
    <dc:creator>
     <cc:Agent>
      <dc:title>Matplotlib v3.3.0, https://matplotlib.org/</dc:title>
     </cc:Agent>
    </dc:creator>
   </cc:Work>
  </rdf:RDF>
 </metadata>
 <defs>
  <style type="text/css">*{stroke-linecap:butt;stroke-linejoin:round;}</style>
 </defs>
 <g id="figure_1">
  <g id="patch_1">
   <path d="M 0 345.6 
L 460.8 345.6 
L 460.8 0 
L 0 0 
z
" style="fill:#ffffff;"/>
  </g>
  <g id="axes_1">
   <g id="patch_2">
    <path d="M 57.6 307.584 
L 414.72 307.584 
L 414.72 41.472 
L 57.6 41.472 
z
" style="fill:#ffffff;"/>
   </g>
   <g id="matplotlib.axis_1">
    <g id="xtick_1">
     <g id="line2d_1">
      <path clip-path="url(#pcfac7e4e8b)" d="M 61.612584 307.584 
L 61.612584 41.472 
" style="fill:none;stroke:#b0b0b0;stroke-dasharray:5.12,1.28,0.8,1.28;stroke-dashoffset:0;stroke-width:0.8;"/>
     </g>
     <g id="line2d_2">
      <defs>
       <path d="M 0 0 
L 0 3.5 
" id="mba761ac9f9" style="stroke:#000000;stroke-width:0.8;"/>
      </defs>
      <g>
       <use style="stroke:#000000;stroke-width:0.8;" x="61.612584" xlink:href="#mba761ac9f9" y="307.584"/>
      </g>
     </g>
     <g id="text_1">
      <!-- 1 -->
      <g transform="translate(58.431334 322.182437)scale(0.1 -0.1)">
       <defs>
        <path d="M 12.40625 8.296875 
L 28.515625 8.296875 
L 28.515625 63.921875 
L 10.984375 60.40625 
L 10.984375 69.390625 
L 28.421875 72.90625 
L 38.28125 72.90625 
L 38.28125 8.296875 
L 54.390625 8.296875 
L 54.390625 0 
L 12.40625 0 
z
" id="DejaVuSans-49"/>
       </defs>
       <use xlink:href="#DejaVuSans-49"/>
      </g>
     </g>
    </g>
    <g id="xtick_2">
     <g id="line2d_3">
      <path clip-path="url(#pcfac7e4e8b)" d="M 73.650337 307.584 
L 73.650337 41.472 
" style="fill:none;stroke:#b0b0b0;stroke-dasharray:5.12,1.28,0.8,1.28;stroke-dashoffset:0;stroke-width:0.8;"/>
     </g>
     <g id="line2d_4">
      <g>
       <use style="stroke:#000000;stroke-width:0.8;" x="73.650337" xlink:href="#mba761ac9f9" y="307.584"/>
      </g>
     </g>
     <g id="text_2">
      <!-- 4 -->
      <g transform="translate(70.469087 322.182437)scale(0.1 -0.1)">
       <defs>
        <path d="M 37.796875 64.3125 
L 12.890625 25.390625 
L 37.796875 25.390625 
z
M 35.203125 72.90625 
L 47.609375 72.90625 
L 47.609375 25.390625 
L 58.015625 25.390625 
L 58.015625 17.1875 
L 47.609375 17.1875 
L 47.609375 0 
L 37.796875 0 
L 37.796875 17.1875 
L 4.890625 17.1875 
L 4.890625 26.703125 
z
" id="DejaVuSans-52"/>
       </defs>
       <use xlink:href="#DejaVuSans-52"/>
      </g>
     </g>
    </g>
    <g id="xtick_3">
     <g id="line2d_5">
      <path clip-path="url(#pcfac7e4e8b)" d="M 89.700674 307.584 
L 89.700674 41.472 
" style="fill:none;stroke:#b0b0b0;stroke-dasharray:5.12,1.28,0.8,1.28;stroke-dashoffset:0;stroke-width:0.8;"/>
     </g>
     <g id="line2d_6">
      <g>
       <use style="stroke:#000000;stroke-width:0.8;" x="89.700674" xlink:href="#mba761ac9f9" y="307.584"/>
      </g>
     </g>
     <g id="text_3">
      <!-- 8 -->
      <g transform="translate(86.519424 322.182437)scale(0.1 -0.1)">
       <defs>
        <path d="M 31.78125 34.625 
Q 24.75 34.625 20.71875 30.859375 
Q 16.703125 27.09375 16.703125 20.515625 
Q 16.703125 13.921875 20.71875 10.15625 
Q 24.75 6.390625 31.78125 6.390625 
Q 38.8125 6.390625 42.859375 10.171875 
Q 46.921875 13.96875 46.921875 20.515625 
Q 46.921875 27.09375 42.890625 30.859375 
Q 38.875 34.625 31.78125 34.625 
z
M 21.921875 38.8125 
Q 15.578125 40.375 12.03125 44.71875 
Q 8.5 49.078125 8.5 55.328125 
Q 8.5 64.0625 14.71875 69.140625 
Q 20.953125 74.21875 31.78125 74.21875 
Q 42.671875 74.21875 48.875 69.140625 
Q 55.078125 64.0625 55.078125 55.328125 
Q 55.078125 49.078125 51.53125 44.71875 
Q 48 40.375 41.703125 38.8125 
Q 48.828125 37.15625 52.796875 32.3125 
Q 56.78125 27.484375 56.78125 20.515625 
Q 56.78125 9.90625 50.3125 4.234375 
Q 43.84375 -1.421875 31.78125 -1.421875 
Q 19.734375 -1.421875 13.25 4.234375 
Q 6.78125 9.90625 6.78125 20.515625 
Q 6.78125 27.484375 10.78125 32.3125 
Q 14.796875 37.15625 21.921875 38.8125 
z
M 18.3125 54.390625 
Q 18.3125 48.734375 21.84375 45.5625 
Q 25.390625 42.390625 31.78125 42.390625 
Q 38.140625 42.390625 41.71875 45.5625 
Q 45.3125 48.734375 45.3125 54.390625 
Q 45.3125 60.0625 41.71875 63.234375 
Q 38.140625 66.40625 31.78125 66.40625 
Q 25.390625 66.40625 21.84375 63.234375 
Q 18.3125 60.0625 18.3125 54.390625 
z
" id="DejaVuSans-56"/>
       </defs>
       <use xlink:href="#DejaVuSans-56"/>
      </g>
     </g>
    </g>
    <g id="xtick_4">
     <g id="line2d_7">
      <path clip-path="url(#pcfac7e4e8b)" d="M 105.751011 307.584 
L 105.751011 41.472 
" style="fill:none;stroke:#b0b0b0;stroke-dasharray:5.12,1.28,0.8,1.28;stroke-dashoffset:0;stroke-width:0.8;"/>
     </g>
     <g id="line2d_8">
      <g>
       <use style="stroke:#000000;stroke-width:0.8;" x="105.751011" xlink:href="#mba761ac9f9" y="307.584"/>
      </g>
     </g>
     <g id="text_4">
      <!-- 12 -->
      <g transform="translate(99.388511 322.182437)scale(0.1 -0.1)">
       <defs>
        <path d="M 19.1875 8.296875 
L 53.609375 8.296875 
L 53.609375 0 
L 7.328125 0 
L 7.328125 8.296875 
Q 12.9375 14.109375 22.625 23.890625 
Q 32.328125 33.6875 34.8125 36.53125 
Q 39.546875 41.84375 41.421875 45.53125 
Q 43.3125 49.21875 43.3125 52.78125 
Q 43.3125 58.59375 39.234375 62.25 
Q 35.15625 65.921875 28.609375 65.921875 
Q 23.96875 65.921875 18.8125 64.3125 
Q 13.671875 62.703125 7.8125 59.421875 
L 7.8125 69.390625 
Q 13.765625 71.78125 18.9375 73 
Q 24.125 74.21875 28.421875 74.21875 
Q 39.75 74.21875 46.484375 68.546875 
Q 53.21875 62.890625 53.21875 53.421875 
Q 53.21875 48.921875 51.53125 44.890625 
Q 49.859375 40.875 45.40625 35.40625 
Q 44.1875 33.984375 37.640625 27.21875 
Q 31.109375 20.453125 19.1875 8.296875 
z
" id="DejaVuSans-50"/>
       </defs>
       <use xlink:href="#DejaVuSans-49"/>
       <use x="63.623047" xlink:href="#DejaVuSans-50"/>
      </g>
     </g>
    </g>
    <g id="xtick_5">
     <g id="line2d_9">
      <path clip-path="url(#pcfac7e4e8b)" d="M 121.801348 307.584 
L 121.801348 41.472 
" style="fill:none;stroke:#b0b0b0;stroke-dasharray:5.12,1.28,0.8,1.28;stroke-dashoffset:0;stroke-width:0.8;"/>
     </g>
     <g id="line2d_10">
      <g>
       <use style="stroke:#000000;stroke-width:0.8;" x="121.801348" xlink:href="#mba761ac9f9" y="307.584"/>
      </g>
     </g>
     <g id="text_5">
      <!-- 16 -->
      <g transform="translate(115.438848 322.182437)scale(0.1 -0.1)">
       <defs>
        <path d="M 33.015625 40.375 
Q 26.375 40.375 22.484375 35.828125 
Q 18.609375 31.296875 18.609375 23.390625 
Q 18.609375 15.53125 22.484375 10.953125 
Q 26.375 6.390625 33.015625 6.390625 
Q 39.65625 6.390625 43.53125 10.953125 
Q 47.40625 15.53125 47.40625 23.390625 
Q 47.40625 31.296875 43.53125 35.828125 
Q 39.65625 40.375 33.015625 40.375 
z
M 52.59375 71.296875 
L 52.59375 62.3125 
Q 48.875 64.0625 45.09375 64.984375 
Q 41.3125 65.921875 37.59375 65.921875 
Q 27.828125 65.921875 22.671875 59.328125 
Q 17.53125 52.734375 16.796875 39.40625 
Q 19.671875 43.65625 24.015625 45.921875 
Q 28.375 48.1875 33.59375 48.1875 
Q 44.578125 48.1875 50.953125 41.515625 
Q 57.328125 34.859375 57.328125 23.390625 
Q 57.328125 12.15625 50.6875 5.359375 
Q 44.046875 -1.421875 33.015625 -1.421875 
Q 20.359375 -1.421875 13.671875 8.265625 
Q 6.984375 17.96875 6.984375 36.375 
Q 6.984375 53.65625 15.1875 63.9375 
Q 23.390625 74.21875 37.203125 74.21875 
Q 40.921875 74.21875 44.703125 73.484375 
Q 48.484375 72.75 52.59375 71.296875 
z
" id="DejaVuSans-54"/>
       </defs>
       <use xlink:href="#DejaVuSans-49"/>
       <use x="63.623047" xlink:href="#DejaVuSans-54"/>
      </g>
     </g>
    </g>
    <g id="xtick_6">
     <g id="line2d_11">
      <path clip-path="url(#pcfac7e4e8b)" d="M 137.851685 307.584 
L 137.851685 41.472 
" style="fill:none;stroke:#b0b0b0;stroke-dasharray:5.12,1.28,0.8,1.28;stroke-dashoffset:0;stroke-width:0.8;"/>
     </g>
     <g id="line2d_12">
      <g>
       <use style="stroke:#000000;stroke-width:0.8;" x="137.851685" xlink:href="#mba761ac9f9" y="307.584"/>
      </g>
     </g>
     <g id="text_6">
      <!-- 20 -->
      <g transform="translate(131.489185 322.182437)scale(0.1 -0.1)">
       <defs>
        <path d="M 31.78125 66.40625 
Q 24.171875 66.40625 20.328125 58.90625 
Q 16.5 51.421875 16.5 36.375 
Q 16.5 21.390625 20.328125 13.890625 
Q 24.171875 6.390625 31.78125 6.390625 
Q 39.453125 6.390625 43.28125 13.890625 
Q 47.125 21.390625 47.125 36.375 
Q 47.125 51.421875 43.28125 58.90625 
Q 39.453125 66.40625 31.78125 66.40625 
z
M 31.78125 74.21875 
Q 44.046875 74.21875 50.515625 64.515625 
Q 56.984375 54.828125 56.984375 36.375 
Q 56.984375 17.96875 50.515625 8.265625 
Q 44.046875 -1.421875 31.78125 -1.421875 
Q 19.53125 -1.421875 13.0625 8.265625 
Q 6.59375 17.96875 6.59375 36.375 
Q 6.59375 54.828125 13.0625 64.515625 
Q 19.53125 74.21875 31.78125 74.21875 
z
" id="DejaVuSans-48"/>
       </defs>
       <use xlink:href="#DejaVuSans-50"/>
       <use x="63.623047" xlink:href="#DejaVuSans-48"/>
      </g>
     </g>
    </g>
    <g id="xtick_7">
     <g id="line2d_13">
      <path clip-path="url(#pcfac7e4e8b)" d="M 153.902022 307.584 
L 153.902022 41.472 
" style="fill:none;stroke:#b0b0b0;stroke-dasharray:5.12,1.28,0.8,1.28;stroke-dashoffset:0;stroke-width:0.8;"/>
     </g>
     <g id="line2d_14">
      <g>
       <use style="stroke:#000000;stroke-width:0.8;" x="153.902022" xlink:href="#mba761ac9f9" y="307.584"/>
      </g>
     </g>
     <g id="text_7">
      <!-- 24 -->
      <g transform="translate(147.539522 322.182437)scale(0.1 -0.1)">
       <use xlink:href="#DejaVuSans-50"/>
       <use x="63.623047" xlink:href="#DejaVuSans-52"/>
      </g>
     </g>
    </g>
    <g id="xtick_8">
     <g id="line2d_15">
      <path clip-path="url(#pcfac7e4e8b)" d="M 169.95236 307.584 
L 169.95236 41.472 
" style="fill:none;stroke:#b0b0b0;stroke-dasharray:5.12,1.28,0.8,1.28;stroke-dashoffset:0;stroke-width:0.8;"/>
     </g>
     <g id="line2d_16">
      <g>
       <use style="stroke:#000000;stroke-width:0.8;" x="169.95236" xlink:href="#mba761ac9f9" y="307.584"/>
      </g>
     </g>
     <g id="text_8">
      <!-- 28 -->
      <g transform="translate(163.58986 322.182437)scale(0.1 -0.1)">
       <use xlink:href="#DejaVuSans-50"/>
       <use x="63.623047" xlink:href="#DejaVuSans-56"/>
      </g>
     </g>
    </g>
    <g id="xtick_9">
     <g id="line2d_17">
      <path clip-path="url(#pcfac7e4e8b)" d="M 186.002697 307.584 
L 186.002697 41.472 
" style="fill:none;stroke:#b0b0b0;stroke-dasharray:5.12,1.28,0.8,1.28;stroke-dashoffset:0;stroke-width:0.8;"/>
     </g>
     <g id="line2d_18">
      <g>
       <use style="stroke:#000000;stroke-width:0.8;" x="186.002697" xlink:href="#mba761ac9f9" y="307.584"/>
      </g>
     </g>
     <g id="text_9">
      <!-- 32 -->
      <g transform="translate(179.640197 322.182437)scale(0.1 -0.1)">
       <defs>
        <path d="M 40.578125 39.3125 
Q 47.65625 37.796875 51.625 33 
Q 55.609375 28.21875 55.609375 21.1875 
Q 55.609375 10.40625 48.1875 4.484375 
Q 40.765625 -1.421875 27.09375 -1.421875 
Q 22.515625 -1.421875 17.65625 -0.515625 
Q 12.796875 0.390625 7.625 2.203125 
L 7.625 11.71875 
Q 11.71875 9.328125 16.59375 8.109375 
Q 21.484375 6.890625 26.8125 6.890625 
Q 36.078125 6.890625 40.9375 10.546875 
Q 45.796875 14.203125 45.796875 21.1875 
Q 45.796875 27.640625 41.28125 31.265625 
Q 36.765625 34.90625 28.71875 34.90625 
L 20.21875 34.90625 
L 20.21875 43.015625 
L 29.109375 43.015625 
Q 36.375 43.015625 40.234375 45.921875 
Q 44.09375 48.828125 44.09375 54.296875 
Q 44.09375 59.90625 40.109375 62.90625 
Q 36.140625 65.921875 28.71875 65.921875 
Q 24.65625 65.921875 20.015625 65.03125 
Q 15.375 64.15625 9.8125 62.3125 
L 9.8125 71.09375 
Q 15.4375 72.65625 20.34375 73.4375 
Q 25.25 74.21875 29.59375 74.21875 
Q 40.828125 74.21875 47.359375 69.109375 
Q 53.90625 64.015625 53.90625 55.328125 
Q 53.90625 49.265625 50.4375 45.09375 
Q 46.96875 40.921875 40.578125 39.3125 
z
" id="DejaVuSans-51"/>
       </defs>
       <use xlink:href="#DejaVuSans-51"/>
       <use x="63.623047" xlink:href="#DejaVuSans-50"/>
      </g>
     </g>
    </g>
    <g id="xtick_10">
     <g id="line2d_19">
      <path clip-path="url(#pcfac7e4e8b)" d="M 202.053034 307.584 
L 202.053034 41.472 
" style="fill:none;stroke:#b0b0b0;stroke-dasharray:5.12,1.28,0.8,1.28;stroke-dashoffset:0;stroke-width:0.8;"/>
     </g>
     <g id="line2d_20">
      <g>
       <use style="stroke:#000000;stroke-width:0.8;" x="202.053034" xlink:href="#mba761ac9f9" y="307.584"/>
      </g>
     </g>
     <g id="text_10">
      <!-- 36 -->
      <g transform="translate(195.690534 322.182437)scale(0.1 -0.1)">
       <use xlink:href="#DejaVuSans-51"/>
       <use x="63.623047" xlink:href="#DejaVuSans-54"/>
      </g>
     </g>
    </g>
    <g id="xtick_11">
     <g id="line2d_21">
      <path clip-path="url(#pcfac7e4e8b)" d="M 218.103371 307.584 
L 218.103371 41.472 
" style="fill:none;stroke:#b0b0b0;stroke-dasharray:5.12,1.28,0.8,1.28;stroke-dashoffset:0;stroke-width:0.8;"/>
     </g>
     <g id="line2d_22">
      <g>
       <use style="stroke:#000000;stroke-width:0.8;" x="218.103371" xlink:href="#mba761ac9f9" y="307.584"/>
      </g>
     </g>
     <g id="text_11">
      <!-- 40 -->
      <g transform="translate(211.740871 322.182437)scale(0.1 -0.1)">
       <use xlink:href="#DejaVuSans-52"/>
       <use x="63.623047" xlink:href="#DejaVuSans-48"/>
      </g>
     </g>
    </g>
    <g id="xtick_12">
     <g id="line2d_23">
      <path clip-path="url(#pcfac7e4e8b)" d="M 234.153708 307.584 
L 234.153708 41.472 
" style="fill:none;stroke:#b0b0b0;stroke-dasharray:5.12,1.28,0.8,1.28;stroke-dashoffset:0;stroke-width:0.8;"/>
     </g>
     <g id="line2d_24">
      <g>
       <use style="stroke:#000000;stroke-width:0.8;" x="234.153708" xlink:href="#mba761ac9f9" y="307.584"/>
      </g>
     </g>
     <g id="text_12">
      <!-- 44 -->
      <g transform="translate(227.791208 322.182437)scale(0.1 -0.1)">
       <use xlink:href="#DejaVuSans-52"/>
       <use x="63.623047" xlink:href="#DejaVuSans-52"/>
      </g>
     </g>
    </g>
    <g id="xtick_13">
     <g id="line2d_25">
      <path clip-path="url(#pcfac7e4e8b)" d="M 250.204045 307.584 
L 250.204045 41.472 
" style="fill:none;stroke:#b0b0b0;stroke-dasharray:5.12,1.28,0.8,1.28;stroke-dashoffset:0;stroke-width:0.8;"/>
     </g>
     <g id="line2d_26">
      <g>
       <use style="stroke:#000000;stroke-width:0.8;" x="250.204045" xlink:href="#mba761ac9f9" y="307.584"/>
      </g>
     </g>
     <g id="text_13">
      <!-- 48 -->
      <g transform="translate(243.841545 322.182437)scale(0.1 -0.1)">
       <use xlink:href="#DejaVuSans-52"/>
       <use x="63.623047" xlink:href="#DejaVuSans-56"/>
      </g>
     </g>
    </g>
    <g id="xtick_14">
     <g id="line2d_27">
      <path clip-path="url(#pcfac7e4e8b)" d="M 266.254382 307.584 
L 266.254382 41.472 
" style="fill:none;stroke:#b0b0b0;stroke-dasharray:5.12,1.28,0.8,1.28;stroke-dashoffset:0;stroke-width:0.8;"/>
     </g>
     <g id="line2d_28">
      <g>
       <use style="stroke:#000000;stroke-width:0.8;" x="266.254382" xlink:href="#mba761ac9f9" y="307.584"/>
      </g>
     </g>
     <g id="text_14">
      <!-- 52 -->
      <g transform="translate(259.891882 322.182437)scale(0.1 -0.1)">
       <defs>
        <path d="M 10.796875 72.90625 
L 49.515625 72.90625 
L 49.515625 64.59375 
L 19.828125 64.59375 
L 19.828125 46.734375 
Q 21.96875 47.46875 24.109375 47.828125 
Q 26.265625 48.1875 28.421875 48.1875 
Q 40.625 48.1875 47.75 41.5 
Q 54.890625 34.8125 54.890625 23.390625 
Q 54.890625 11.625 47.5625 5.09375 
Q 40.234375 -1.421875 26.90625 -1.421875 
Q 22.3125 -1.421875 17.546875 -0.640625 
Q 12.796875 0.140625 7.71875 1.703125 
L 7.71875 11.625 
Q 12.109375 9.234375 16.796875 8.0625 
Q 21.484375 6.890625 26.703125 6.890625 
Q 35.15625 6.890625 40.078125 11.328125 
Q 45.015625 15.765625 45.015625 23.390625 
Q 45.015625 31 40.078125 35.4375 
Q 35.15625 39.890625 26.703125 39.890625 
Q 22.75 39.890625 18.8125 39.015625 
Q 14.890625 38.140625 10.796875 36.28125 
z
" id="DejaVuSans-53"/>
       </defs>
       <use xlink:href="#DejaVuSans-53"/>
       <use x="63.623047" xlink:href="#DejaVuSans-50"/>
      </g>
     </g>
    </g>
    <g id="xtick_15">
     <g id="line2d_29">
      <path clip-path="url(#pcfac7e4e8b)" d="M 282.304719 307.584 
L 282.304719 41.472 
" style="fill:none;stroke:#b0b0b0;stroke-dasharray:5.12,1.28,0.8,1.28;stroke-dashoffset:0;stroke-width:0.8;"/>
     </g>
     <g id="line2d_30">
      <g>
       <use style="stroke:#000000;stroke-width:0.8;" x="282.304719" xlink:href="#mba761ac9f9" y="307.584"/>
      </g>
     </g>
     <g id="text_15">
      <!-- 56 -->
      <g transform="translate(275.942219 322.182437)scale(0.1 -0.1)">
       <use xlink:href="#DejaVuSans-53"/>
       <use x="63.623047" xlink:href="#DejaVuSans-54"/>
      </g>
     </g>
    </g>
    <g id="xtick_16">
     <g id="line2d_31">
      <path clip-path="url(#pcfac7e4e8b)" d="M 298.355056 307.584 
L 298.355056 41.472 
" style="fill:none;stroke:#b0b0b0;stroke-dasharray:5.12,1.28,0.8,1.28;stroke-dashoffset:0;stroke-width:0.8;"/>
     </g>
     <g id="line2d_32">
      <g>
       <use style="stroke:#000000;stroke-width:0.8;" x="298.355056" xlink:href="#mba761ac9f9" y="307.584"/>
      </g>
     </g>
     <g id="text_16">
      <!-- 60 -->
      <g transform="translate(291.992556 322.182437)scale(0.1 -0.1)">
       <use xlink:href="#DejaVuSans-54"/>
       <use x="63.623047" xlink:href="#DejaVuSans-48"/>
      </g>
     </g>
    </g>
    <g id="xtick_17">
     <g id="line2d_33">
      <path clip-path="url(#pcfac7e4e8b)" d="M 314.405393 307.584 
L 314.405393 41.472 
" style="fill:none;stroke:#b0b0b0;stroke-dasharray:5.12,1.28,0.8,1.28;stroke-dashoffset:0;stroke-width:0.8;"/>
     </g>
     <g id="line2d_34">
      <g>
       <use style="stroke:#000000;stroke-width:0.8;" x="314.405393" xlink:href="#mba761ac9f9" y="307.584"/>
      </g>
     </g>
     <g id="text_17">
      <!-- 64 -->
      <g transform="translate(308.042893 322.182437)scale(0.1 -0.1)">
       <use xlink:href="#DejaVuSans-54"/>
       <use x="63.623047" xlink:href="#DejaVuSans-52"/>
      </g>
     </g>
    </g>
    <g id="xtick_18">
     <g id="line2d_35">
      <path clip-path="url(#pcfac7e4e8b)" d="M 330.45573 307.584 
L 330.45573 41.472 
" style="fill:none;stroke:#b0b0b0;stroke-dasharray:5.12,1.28,0.8,1.28;stroke-dashoffset:0;stroke-width:0.8;"/>
     </g>
     <g id="line2d_36">
      <g>
       <use style="stroke:#000000;stroke-width:0.8;" x="330.45573" xlink:href="#mba761ac9f9" y="307.584"/>
      </g>
     </g>
     <g id="text_18">
      <!-- 68 -->
      <g transform="translate(324.09323 322.182437)scale(0.1 -0.1)">
       <use xlink:href="#DejaVuSans-54"/>
       <use x="63.623047" xlink:href="#DejaVuSans-56"/>
      </g>
     </g>
    </g>
    <g id="xtick_19">
     <g id="line2d_37">
      <path clip-path="url(#pcfac7e4e8b)" d="M 346.506067 307.584 
L 346.506067 41.472 
" style="fill:none;stroke:#b0b0b0;stroke-dasharray:5.12,1.28,0.8,1.28;stroke-dashoffset:0;stroke-width:0.8;"/>
     </g>
     <g id="line2d_38">
      <g>
       <use style="stroke:#000000;stroke-width:0.8;" x="346.506067" xlink:href="#mba761ac9f9" y="307.584"/>
      </g>
     </g>
     <g id="text_19">
      <!-- 72 -->
      <g transform="translate(340.143567 322.182437)scale(0.1 -0.1)">
       <defs>
        <path d="M 8.203125 72.90625 
L 55.078125 72.90625 
L 55.078125 68.703125 
L 28.609375 0 
L 18.3125 0 
L 43.21875 64.59375 
L 8.203125 64.59375 
z
" id="DejaVuSans-55"/>
       </defs>
       <use xlink:href="#DejaVuSans-55"/>
       <use x="63.623047" xlink:href="#DejaVuSans-50"/>
      </g>
     </g>
    </g>
    <g id="xtick_20">
     <g id="line2d_39">
      <path clip-path="url(#pcfac7e4e8b)" d="M 362.556404 307.584 
L 362.556404 41.472 
" style="fill:none;stroke:#b0b0b0;stroke-dasharray:5.12,1.28,0.8,1.28;stroke-dashoffset:0;stroke-width:0.8;"/>
     </g>
     <g id="line2d_40">
      <g>
       <use style="stroke:#000000;stroke-width:0.8;" x="362.556404" xlink:href="#mba761ac9f9" y="307.584"/>
      </g>
     </g>
     <g id="text_20">
      <!-- 76 -->
      <g transform="translate(356.193904 322.182437)scale(0.1 -0.1)">
       <use xlink:href="#DejaVuSans-55"/>
       <use x="63.623047" xlink:href="#DejaVuSans-54"/>
      </g>
     </g>
    </g>
    <g id="xtick_21">
     <g id="line2d_41">
      <path clip-path="url(#pcfac7e4e8b)" d="M 378.606742 307.584 
L 378.606742 41.472 
" style="fill:none;stroke:#b0b0b0;stroke-dasharray:5.12,1.28,0.8,1.28;stroke-dashoffset:0;stroke-width:0.8;"/>
     </g>
     <g id="line2d_42">
      <g>
       <use style="stroke:#000000;stroke-width:0.8;" x="378.606742" xlink:href="#mba761ac9f9" y="307.584"/>
      </g>
     </g>
     <g id="text_21">
      <!-- 80 -->
      <g transform="translate(372.244242 322.182437)scale(0.1 -0.1)">
       <use xlink:href="#DejaVuSans-56"/>
       <use x="63.623047" xlink:href="#DejaVuSans-48"/>
      </g>
     </g>
    </g>
    <g id="xtick_22">
     <g id="line2d_43">
      <path clip-path="url(#pcfac7e4e8b)" d="M 394.657079 307.584 
L 394.657079 41.472 
" style="fill:none;stroke:#b0b0b0;stroke-dasharray:5.12,1.28,0.8,1.28;stroke-dashoffset:0;stroke-width:0.8;"/>
     </g>
     <g id="line2d_44">
      <g>
       <use style="stroke:#000000;stroke-width:0.8;" x="394.657079" xlink:href="#mba761ac9f9" y="307.584"/>
      </g>
     </g>
     <g id="text_22">
      <!-- 84 -->
      <g transform="translate(388.294579 322.182437)scale(0.1 -0.1)">
       <use xlink:href="#DejaVuSans-56"/>
       <use x="63.623047" xlink:href="#DejaVuSans-52"/>
      </g>
     </g>
    </g>
    <g id="xtick_23">
     <g id="line2d_45">
      <path clip-path="url(#pcfac7e4e8b)" d="M 410.707416 307.584 
L 410.707416 41.472 
" style="fill:none;stroke:#b0b0b0;stroke-dasharray:5.12,1.28,0.8,1.28;stroke-dashoffset:0;stroke-width:0.8;"/>
     </g>
     <g id="line2d_46">
      <g>
       <use style="stroke:#000000;stroke-width:0.8;" x="410.707416" xlink:href="#mba761ac9f9" y="307.584"/>
      </g>
     </g>
     <g id="text_23">
      <!-- 88 -->
      <g transform="translate(404.344916 322.182437)scale(0.1 -0.1)">
       <use xlink:href="#DejaVuSans-56"/>
       <use x="63.623047" xlink:href="#DejaVuSans-56"/>
      </g>
     </g>
    </g>
    <g id="text_24">
     <!-- threads -->
     <g transform="translate(217.168594 335.860562)scale(0.1 -0.1)">
      <defs>
       <path d="M 18.3125 70.21875 
L 18.3125 54.6875 
L 36.8125 54.6875 
L 36.8125 47.703125 
L 18.3125 47.703125 
L 18.3125 18.015625 
Q 18.3125 11.328125 20.140625 9.421875 
Q 21.96875 7.515625 27.59375 7.515625 
L 36.8125 7.515625 
L 36.8125 0 
L 27.59375 0 
Q 17.1875 0 13.234375 3.875 
Q 9.28125 7.765625 9.28125 18.015625 
L 9.28125 47.703125 
L 2.6875 47.703125 
L 2.6875 54.6875 
L 9.28125 54.6875 
L 9.28125 70.21875 
z
" id="DejaVuSans-116"/>
       <path d="M 54.890625 33.015625 
L 54.890625 0 
L 45.90625 0 
L 45.90625 32.71875 
Q 45.90625 40.484375 42.875 44.328125 
Q 39.84375 48.1875 33.796875 48.1875 
Q 26.515625 48.1875 22.3125 43.546875 
Q 18.109375 38.921875 18.109375 30.90625 
L 18.109375 0 
L 9.078125 0 
L 9.078125 75.984375 
L 18.109375 75.984375 
L 18.109375 46.1875 
Q 21.34375 51.125 25.703125 53.5625 
Q 30.078125 56 35.796875 56 
Q 45.21875 56 50.046875 50.171875 
Q 54.890625 44.34375 54.890625 33.015625 
z
" id="DejaVuSans-104"/>
       <path d="M 41.109375 46.296875 
Q 39.59375 47.171875 37.8125 47.578125 
Q 36.03125 48 33.890625 48 
Q 26.265625 48 22.1875 43.046875 
Q 18.109375 38.09375 18.109375 28.8125 
L 18.109375 0 
L 9.078125 0 
L 9.078125 54.6875 
L 18.109375 54.6875 
L 18.109375 46.1875 
Q 20.953125 51.171875 25.484375 53.578125 
Q 30.03125 56 36.53125 56 
Q 37.453125 56 38.578125 55.875 
Q 39.703125 55.765625 41.0625 55.515625 
z
" id="DejaVuSans-114"/>
       <path d="M 56.203125 29.59375 
L 56.203125 25.203125 
L 14.890625 25.203125 
Q 15.484375 15.921875 20.484375 11.0625 
Q 25.484375 6.203125 34.421875 6.203125 
Q 39.59375 6.203125 44.453125 7.46875 
Q 49.3125 8.734375 54.109375 11.28125 
L 54.109375 2.78125 
Q 49.265625 0.734375 44.1875 -0.34375 
Q 39.109375 -1.421875 33.890625 -1.421875 
Q 20.796875 -1.421875 13.15625 6.1875 
Q 5.515625 13.8125 5.515625 26.8125 
Q 5.515625 40.234375 12.765625 48.109375 
Q 20.015625 56 32.328125 56 
Q 43.359375 56 49.78125 48.890625 
Q 56.203125 41.796875 56.203125 29.59375 
z
M 47.21875 32.234375 
Q 47.125 39.59375 43.09375 43.984375 
Q 39.0625 48.390625 32.421875 48.390625 
Q 24.90625 48.390625 20.390625 44.140625 
Q 15.875 39.890625 15.1875 32.171875 
z
" id="DejaVuSans-101"/>
       <path d="M 34.28125 27.484375 
Q 23.390625 27.484375 19.1875 25 
Q 14.984375 22.515625 14.984375 16.5 
Q 14.984375 11.71875 18.140625 8.90625 
Q 21.296875 6.109375 26.703125 6.109375 
Q 34.1875 6.109375 38.703125 11.40625 
Q 43.21875 16.703125 43.21875 25.484375 
L 43.21875 27.484375 
z
M 52.203125 31.203125 
L 52.203125 0 
L 43.21875 0 
L 43.21875 8.296875 
Q 40.140625 3.328125 35.546875 0.953125 
Q 30.953125 -1.421875 24.3125 -1.421875 
Q 15.921875 -1.421875 10.953125 3.296875 
Q 6 8.015625 6 15.921875 
Q 6 25.140625 12.171875 29.828125 
Q 18.359375 34.515625 30.609375 34.515625 
L 43.21875 34.515625 
L 43.21875 35.40625 
Q 43.21875 41.609375 39.140625 45 
Q 35.0625 48.390625 27.6875 48.390625 
Q 23 48.390625 18.546875 47.265625 
Q 14.109375 46.140625 10.015625 43.890625 
L 10.015625 52.203125 
Q 14.9375 54.109375 19.578125 55.046875 
Q 24.21875 56 28.609375 56 
Q 40.484375 56 46.34375 49.84375 
Q 52.203125 43.703125 52.203125 31.203125 
z
" id="DejaVuSans-97"/>
       <path d="M 45.40625 46.390625 
L 45.40625 75.984375 
L 54.390625 75.984375 
L 54.390625 0 
L 45.40625 0 
L 45.40625 8.203125 
Q 42.578125 3.328125 38.25 0.953125 
Q 33.9375 -1.421875 27.875 -1.421875 
Q 17.96875 -1.421875 11.734375 6.484375 
Q 5.515625 14.40625 5.515625 27.296875 
Q 5.515625 40.1875 11.734375 48.09375 
Q 17.96875 56 27.875 56 
Q 33.9375 56 38.25 53.625 
Q 42.578125 51.265625 45.40625 46.390625 
z
M 14.796875 27.296875 
Q 14.796875 17.390625 18.875 11.75 
Q 22.953125 6.109375 30.078125 6.109375 
Q 37.203125 6.109375 41.296875 11.75 
Q 45.40625 17.390625 45.40625 27.296875 
Q 45.40625 37.203125 41.296875 42.84375 
Q 37.203125 48.484375 30.078125 48.484375 
Q 22.953125 48.484375 18.875 42.84375 
Q 14.796875 37.203125 14.796875 27.296875 
z
" id="DejaVuSans-100"/>
       <path d="M 44.28125 53.078125 
L 44.28125 44.578125 
Q 40.484375 46.53125 36.375 47.5 
Q 32.28125 48.484375 27.875 48.484375 
Q 21.1875 48.484375 17.84375 46.4375 
Q 14.5 44.390625 14.5 40.28125 
Q 14.5 37.15625 16.890625 35.375 
Q 19.28125 33.59375 26.515625 31.984375 
L 29.59375 31.296875 
Q 39.15625 29.25 43.1875 25.515625 
Q 47.21875 21.78125 47.21875 15.09375 
Q 47.21875 7.46875 41.1875 3.015625 
Q 35.15625 -1.421875 24.609375 -1.421875 
Q 20.21875 -1.421875 15.453125 -0.5625 
Q 10.6875 0.296875 5.421875 2 
L 5.421875 11.28125 
Q 10.40625 8.6875 15.234375 7.390625 
Q 20.0625 6.109375 24.8125 6.109375 
Q 31.15625 6.109375 34.5625 8.28125 
Q 37.984375 10.453125 37.984375 14.40625 
Q 37.984375 18.0625 35.515625 20.015625 
Q 33.0625 21.96875 24.703125 23.78125 
L 21.578125 24.515625 
Q 13.234375 26.265625 9.515625 29.90625 
Q 5.8125 33.546875 5.8125 39.890625 
Q 5.8125 47.609375 11.28125 51.796875 
Q 16.75 56 26.8125 56 
Q 31.78125 56 36.171875 55.265625 
Q 40.578125 54.546875 44.28125 53.078125 
z
" id="DejaVuSans-115"/>
      </defs>
      <use xlink:href="#DejaVuSans-116"/>
      <use x="39.208984" xlink:href="#DejaVuSans-104"/>
      <use x="102.587891" xlink:href="#DejaVuSans-114"/>
      <use x="141.451172" xlink:href="#DejaVuSans-101"/>
      <use x="202.974609" xlink:href="#DejaVuSans-97"/>
      <use x="264.253906" xlink:href="#DejaVuSans-100"/>
      <use x="327.730469" xlink:href="#DejaVuSans-115"/>
     </g>
    </g>
   </g>
   <g id="matplotlib.axis_2">
    <g id="ytick_1">
     <g id="line2d_47">
      <path clip-path="url(#pcfac7e4e8b)" d="M 57.6 297.016878 
L 414.72 297.016878 
" style="fill:none;stroke:#b0b0b0;stroke-dasharray:5.12,1.28,0.8,1.28;stroke-dashoffset:0;stroke-width:0.8;"/>
     </g>
     <g id="line2d_48">
      <defs>
       <path d="M 0 0 
L -3.5 0 
" id="m67210c93f3" style="stroke:#000000;stroke-width:0.8;"/>
      </defs>
      <g>
       <use style="stroke:#000000;stroke-width:0.8;" x="57.6" xlink:href="#m67210c93f3" y="297.016878"/>
      </g>
     </g>
     <g id="text_25">
      <!-- 0.00 -->
      <g transform="translate(28.334375 300.816097)scale(0.1 -0.1)">
       <defs>
        <path d="M 10.6875 12.40625 
L 21 12.40625 
L 21 0 
L 10.6875 0 
z
" id="DejaVuSans-46"/>
       </defs>
       <use xlink:href="#DejaVuSans-48"/>
       <use x="63.623047" xlink:href="#DejaVuSans-46"/>
       <use x="95.410156" xlink:href="#DejaVuSans-48"/>
       <use x="159.033203" xlink:href="#DejaVuSans-48"/>
      </g>
     </g>
    </g>
    <g id="ytick_2">
     <g id="line2d_49">
      <path clip-path="url(#pcfac7e4e8b)" d="M 57.6 262.526246 
L 414.72 262.526246 
" style="fill:none;stroke:#b0b0b0;stroke-dasharray:5.12,1.28,0.8,1.28;stroke-dashoffset:0;stroke-width:0.8;"/>
     </g>
     <g id="line2d_50">
      <g>
       <use style="stroke:#000000;stroke-width:0.8;" x="57.6" xlink:href="#m67210c93f3" y="262.526246"/>
      </g>
     </g>
     <g id="text_26">
      <!-- 0.01 -->
      <g transform="translate(28.334375 266.325465)scale(0.1 -0.1)">
       <use xlink:href="#DejaVuSans-48"/>
       <use x="63.623047" xlink:href="#DejaVuSans-46"/>
       <use x="95.410156" xlink:href="#DejaVuSans-48"/>
       <use x="159.033203" xlink:href="#DejaVuSans-49"/>
      </g>
     </g>
    </g>
    <g id="ytick_3">
     <g id="line2d_51">
      <path clip-path="url(#pcfac7e4e8b)" d="M 57.6 228.035615 
L 414.72 228.035615 
" style="fill:none;stroke:#b0b0b0;stroke-dasharray:5.12,1.28,0.8,1.28;stroke-dashoffset:0;stroke-width:0.8;"/>
     </g>
     <g id="line2d_52">
      <g>
       <use style="stroke:#000000;stroke-width:0.8;" x="57.6" xlink:href="#m67210c93f3" y="228.035615"/>
      </g>
     </g>
     <g id="text_27">
      <!-- 0.02 -->
      <g transform="translate(28.334375 231.834833)scale(0.1 -0.1)">
       <use xlink:href="#DejaVuSans-48"/>
       <use x="63.623047" xlink:href="#DejaVuSans-46"/>
       <use x="95.410156" xlink:href="#DejaVuSans-48"/>
       <use x="159.033203" xlink:href="#DejaVuSans-50"/>
      </g>
     </g>
    </g>
    <g id="ytick_4">
     <g id="line2d_53">
      <path clip-path="url(#pcfac7e4e8b)" d="M 57.6 193.544983 
L 414.72 193.544983 
" style="fill:none;stroke:#b0b0b0;stroke-dasharray:5.12,1.28,0.8,1.28;stroke-dashoffset:0;stroke-width:0.8;"/>
     </g>
     <g id="line2d_54">
      <g>
       <use style="stroke:#000000;stroke-width:0.8;" x="57.6" xlink:href="#m67210c93f3" y="193.544983"/>
      </g>
     </g>
     <g id="text_28">
      <!-- 0.03 -->
      <g transform="translate(28.334375 197.344202)scale(0.1 -0.1)">
       <use xlink:href="#DejaVuSans-48"/>
       <use x="63.623047" xlink:href="#DejaVuSans-46"/>
       <use x="95.410156" xlink:href="#DejaVuSans-48"/>
       <use x="159.033203" xlink:href="#DejaVuSans-51"/>
      </g>
     </g>
    </g>
    <g id="ytick_5">
     <g id="line2d_55">
      <path clip-path="url(#pcfac7e4e8b)" d="M 57.6 159.054351 
L 414.72 159.054351 
" style="fill:none;stroke:#b0b0b0;stroke-dasharray:5.12,1.28,0.8,1.28;stroke-dashoffset:0;stroke-width:0.8;"/>
     </g>
     <g id="line2d_56">
      <g>
       <use style="stroke:#000000;stroke-width:0.8;" x="57.6" xlink:href="#m67210c93f3" y="159.054351"/>
      </g>
     </g>
     <g id="text_29">
      <!-- 0.04 -->
      <g transform="translate(28.334375 162.85357)scale(0.1 -0.1)">
       <use xlink:href="#DejaVuSans-48"/>
       <use x="63.623047" xlink:href="#DejaVuSans-46"/>
       <use x="95.410156" xlink:href="#DejaVuSans-48"/>
       <use x="159.033203" xlink:href="#DejaVuSans-52"/>
      </g>
     </g>
    </g>
    <g id="ytick_6">
     <g id="line2d_57">
      <path clip-path="url(#pcfac7e4e8b)" d="M 57.6 124.56372 
L 414.72 124.56372 
" style="fill:none;stroke:#b0b0b0;stroke-dasharray:5.12,1.28,0.8,1.28;stroke-dashoffset:0;stroke-width:0.8;"/>
     </g>
     <g id="line2d_58">
      <g>
       <use style="stroke:#000000;stroke-width:0.8;" x="57.6" xlink:href="#m67210c93f3" y="124.56372"/>
      </g>
     </g>
     <g id="text_30">
      <!-- 0.05 -->
      <g transform="translate(28.334375 128.362938)scale(0.1 -0.1)">
       <use xlink:href="#DejaVuSans-48"/>
       <use x="63.623047" xlink:href="#DejaVuSans-46"/>
       <use x="95.410156" xlink:href="#DejaVuSans-48"/>
       <use x="159.033203" xlink:href="#DejaVuSans-53"/>
      </g>
     </g>
    </g>
    <g id="ytick_7">
     <g id="line2d_59">
      <path clip-path="url(#pcfac7e4e8b)" d="M 57.6 90.073088 
L 414.72 90.073088 
" style="fill:none;stroke:#b0b0b0;stroke-dasharray:5.12,1.28,0.8,1.28;stroke-dashoffset:0;stroke-width:0.8;"/>
     </g>
     <g id="line2d_60">
      <g>
       <use style="stroke:#000000;stroke-width:0.8;" x="57.6" xlink:href="#m67210c93f3" y="90.073088"/>
      </g>
     </g>
     <g id="text_31">
      <!-- 0.06 -->
      <g transform="translate(28.334375 93.872307)scale(0.1 -0.1)">
       <use xlink:href="#DejaVuSans-48"/>
       <use x="63.623047" xlink:href="#DejaVuSans-46"/>
       <use x="95.410156" xlink:href="#DejaVuSans-48"/>
       <use x="159.033203" xlink:href="#DejaVuSans-54"/>
      </g>
     </g>
    </g>
    <g id="ytick_8">
     <g id="line2d_61">
      <path clip-path="url(#pcfac7e4e8b)" d="M 57.6 55.582456 
L 414.72 55.582456 
" style="fill:none;stroke:#b0b0b0;stroke-dasharray:5.12,1.28,0.8,1.28;stroke-dashoffset:0;stroke-width:0.8;"/>
     </g>
     <g id="line2d_62">
      <g>
       <use style="stroke:#000000;stroke-width:0.8;" x="57.6" xlink:href="#m67210c93f3" y="55.582456"/>
      </g>
     </g>
     <g id="text_32">
      <!-- 0.07 -->
      <g transform="translate(28.334375 59.381675)scale(0.1 -0.1)">
       <use xlink:href="#DejaVuSans-48"/>
       <use x="63.623047" xlink:href="#DejaVuSans-46"/>
       <use x="95.410156" xlink:href="#DejaVuSans-48"/>
       <use x="159.033203" xlink:href="#DejaVuSans-55"/>
      </g>
     </g>
    </g>
    <g id="text_33">
     <!-- mean duration per thread (s) -->
     <g transform="translate(22.254687 247.303)rotate(-90)scale(0.1 -0.1)">
      <defs>
       <path d="M 52 44.1875 
Q 55.375 50.25 60.0625 53.125 
Q 64.75 56 71.09375 56 
Q 79.640625 56 84.28125 50.015625 
Q 88.921875 44.046875 88.921875 33.015625 
L 88.921875 0 
L 79.890625 0 
L 79.890625 32.71875 
Q 79.890625 40.578125 77.09375 44.375 
Q 74.3125 48.1875 68.609375 48.1875 
Q 61.625 48.1875 57.5625 43.546875 
Q 53.515625 38.921875 53.515625 30.90625 
L 53.515625 0 
L 44.484375 0 
L 44.484375 32.71875 
Q 44.484375 40.625 41.703125 44.40625 
Q 38.921875 48.1875 33.109375 48.1875 
Q 26.21875 48.1875 22.15625 43.53125 
Q 18.109375 38.875 18.109375 30.90625 
L 18.109375 0 
L 9.078125 0 
L 9.078125 54.6875 
L 18.109375 54.6875 
L 18.109375 46.1875 
Q 21.1875 51.21875 25.484375 53.609375 
Q 29.78125 56 35.6875 56 
Q 41.65625 56 45.828125 52.96875 
Q 50 49.953125 52 44.1875 
z
" id="DejaVuSans-109"/>
       <path d="M 54.890625 33.015625 
L 54.890625 0 
L 45.90625 0 
L 45.90625 32.71875 
Q 45.90625 40.484375 42.875 44.328125 
Q 39.84375 48.1875 33.796875 48.1875 
Q 26.515625 48.1875 22.3125 43.546875 
Q 18.109375 38.921875 18.109375 30.90625 
L 18.109375 0 
L 9.078125 0 
L 9.078125 54.6875 
L 18.109375 54.6875 
L 18.109375 46.1875 
Q 21.34375 51.125 25.703125 53.5625 
Q 30.078125 56 35.796875 56 
Q 45.21875 56 50.046875 50.171875 
Q 54.890625 44.34375 54.890625 33.015625 
z
" id="DejaVuSans-110"/>
       <path id="DejaVuSans-32"/>
       <path d="M 8.5 21.578125 
L 8.5 54.6875 
L 17.484375 54.6875 
L 17.484375 21.921875 
Q 17.484375 14.15625 20.5 10.265625 
Q 23.53125 6.390625 29.59375 6.390625 
Q 36.859375 6.390625 41.078125 11.03125 
Q 45.3125 15.671875 45.3125 23.6875 
L 45.3125 54.6875 
L 54.296875 54.6875 
L 54.296875 0 
L 45.3125 0 
L 45.3125 8.40625 
Q 42.046875 3.421875 37.71875 1 
Q 33.40625 -1.421875 27.6875 -1.421875 
Q 18.265625 -1.421875 13.375 4.4375 
Q 8.5 10.296875 8.5 21.578125 
z
M 31.109375 56 
z
" id="DejaVuSans-117"/>
       <path d="M 9.421875 54.6875 
L 18.40625 54.6875 
L 18.40625 0 
L 9.421875 0 
z
M 9.421875 75.984375 
L 18.40625 75.984375 
L 18.40625 64.59375 
L 9.421875 64.59375 
z
" id="DejaVuSans-105"/>
       <path d="M 30.609375 48.390625 
Q 23.390625 48.390625 19.1875 42.75 
Q 14.984375 37.109375 14.984375 27.296875 
Q 14.984375 17.484375 19.15625 11.84375 
Q 23.34375 6.203125 30.609375 6.203125 
Q 37.796875 6.203125 41.984375 11.859375 
Q 46.1875 17.53125 46.1875 27.296875 
Q 46.1875 37.015625 41.984375 42.703125 
Q 37.796875 48.390625 30.609375 48.390625 
z
M 30.609375 56 
Q 42.328125 56 49.015625 48.375 
Q 55.71875 40.765625 55.71875 27.296875 
Q 55.71875 13.875 49.015625 6.21875 
Q 42.328125 -1.421875 30.609375 -1.421875 
Q 18.84375 -1.421875 12.171875 6.21875 
Q 5.515625 13.875 5.515625 27.296875 
Q 5.515625 40.765625 12.171875 48.375 
Q 18.84375 56 30.609375 56 
z
" id="DejaVuSans-111"/>
       <path d="M 18.109375 8.203125 
L 18.109375 -20.796875 
L 9.078125 -20.796875 
L 9.078125 54.6875 
L 18.109375 54.6875 
L 18.109375 46.390625 
Q 20.953125 51.265625 25.265625 53.625 
Q 29.59375 56 35.59375 56 
Q 45.5625 56 51.78125 48.09375 
Q 58.015625 40.1875 58.015625 27.296875 
Q 58.015625 14.40625 51.78125 6.484375 
Q 45.5625 -1.421875 35.59375 -1.421875 
Q 29.59375 -1.421875 25.265625 0.953125 
Q 20.953125 3.328125 18.109375 8.203125 
z
M 48.6875 27.296875 
Q 48.6875 37.203125 44.609375 42.84375 
Q 40.53125 48.484375 33.40625 48.484375 
Q 26.265625 48.484375 22.1875 42.84375 
Q 18.109375 37.203125 18.109375 27.296875 
Q 18.109375 17.390625 22.1875 11.75 
Q 26.265625 6.109375 33.40625 6.109375 
Q 40.53125 6.109375 44.609375 11.75 
Q 48.6875 17.390625 48.6875 27.296875 
z
" id="DejaVuSans-112"/>
       <path d="M 31 75.875 
Q 24.46875 64.65625 21.28125 53.65625 
Q 18.109375 42.671875 18.109375 31.390625 
Q 18.109375 20.125 21.3125 9.0625 
Q 24.515625 -2 31 -13.1875 
L 23.1875 -13.1875 
Q 15.875 -1.703125 12.234375 9.375 
Q 8.59375 20.453125 8.59375 31.390625 
Q 8.59375 42.28125 12.203125 53.3125 
Q 15.828125 64.359375 23.1875 75.875 
z
" id="DejaVuSans-40"/>
       <path d="M 8.015625 75.875 
L 15.828125 75.875 
Q 23.140625 64.359375 26.78125 53.3125 
Q 30.421875 42.28125 30.421875 31.390625 
Q 30.421875 20.453125 26.78125 9.375 
Q 23.140625 -1.703125 15.828125 -13.1875 
L 8.015625 -13.1875 
Q 14.5 -2 17.703125 9.0625 
Q 20.90625 20.125 20.90625 31.390625 
Q 20.90625 42.671875 17.703125 53.65625 
Q 14.5 64.65625 8.015625 75.875 
z
" id="DejaVuSans-41"/>
      </defs>
      <use xlink:href="#DejaVuSans-109"/>
      <use x="97.412109" xlink:href="#DejaVuSans-101"/>
      <use x="158.935547" xlink:href="#DejaVuSans-97"/>
      <use x="220.214844" xlink:href="#DejaVuSans-110"/>
      <use x="283.59375" xlink:href="#DejaVuSans-32"/>
      <use x="315.380859" xlink:href="#DejaVuSans-100"/>
      <use x="378.857422" xlink:href="#DejaVuSans-117"/>
      <use x="442.236328" xlink:href="#DejaVuSans-114"/>
      <use x="483.349609" xlink:href="#DejaVuSans-97"/>
      <use x="544.628906" xlink:href="#DejaVuSans-116"/>
      <use x="583.837891" xlink:href="#DejaVuSans-105"/>
      <use x="611.621094" xlink:href="#DejaVuSans-111"/>
      <use x="672.802734" xlink:href="#DejaVuSans-110"/>
      <use x="736.181641" xlink:href="#DejaVuSans-32"/>
      <use x="767.96875" xlink:href="#DejaVuSans-112"/>
      <use x="831.445312" xlink:href="#DejaVuSans-101"/>
      <use x="892.96875" xlink:href="#DejaVuSans-114"/>
      <use x="934.082031" xlink:href="#DejaVuSans-32"/>
      <use x="965.869141" xlink:href="#DejaVuSans-116"/>
      <use x="1005.078125" xlink:href="#DejaVuSans-104"/>
      <use x="1068.457031" xlink:href="#DejaVuSans-114"/>
      <use x="1107.320312" xlink:href="#DejaVuSans-101"/>
      <use x="1168.84375" xlink:href="#DejaVuSans-97"/>
      <use x="1230.123047" xlink:href="#DejaVuSans-100"/>
      <use x="1293.599609" xlink:href="#DejaVuSans-32"/>
      <use x="1325.386719" xlink:href="#DejaVuSans-40"/>
      <use x="1364.400391" xlink:href="#DejaVuSans-115"/>
      <use x="1416.5" xlink:href="#DejaVuSans-41"/>
     </g>
    </g>
   </g>
   <g id="line2d_63">
    <path clip-path="url(#pcfac7e4e8b)" d="M 61.612584 231.755036 
L 65.625169 259.259609 
L 69.637753 282.065169 
L 73.650337 276.419388 
L 77.662921 279.331884 
L 81.675506 281.630572 
L 85.68809 282.162829 
L 89.700674 284.085473 
L 93.713258 284.566485 
L 97.725843 285.814732 
L 101.738427 286.257185 
L 105.751011 287.170067 
L 109.763596 287.305144 
L 113.77618 287.417399 
L 117.788764 287.662377 
L 121.801348 288.192143 
L 125.813933 288.623402 
L 129.826517 288.145088 
L 133.839101 288.752641 
L 137.851685 288.280707 
L 141.86427 288.365516 
L 145.876854 288.942324 
L 149.889438 289.126282 
L 153.902022 288.743235 
L 157.914607 289.578066 
L 161.927191 289.675578 
L 165.939775 289.194354 
L 169.95236 288.611321 
L 173.964944 289.481216 
L 177.977528 289.676268 
L 181.990112 288.470976 
L 186.002697 289.925852 
L 190.015281 288.804934 
L 194.027865 288.753885 
L 198.040449 289.363609 
L 202.053034 289.711152 
L 206.065618 288.973537 
L 210.078202 289.026149 
L 214.090787 289.418276 
L 218.103371 287.520677 
L 222.115955 287.864428 
L 226.128539 288.821375 
L 230.141124 288.358816 
L 234.153708 288.988897 
L 238.166292 290.033054 
L 242.178876 288.957259 
L 246.191461 288.216576 
L 250.204045 289.149342 
L 254.216629 294.236494 
L 258.229213 289.719522 
L 262.241798 294.49424 
L 266.254382 289.171859 
L 270.266966 294.595361 
L 274.279551 289.704711 
L 278.292135 294.450579 
L 282.304719 289.679266 
L 286.317303 294.77591 
L 290.329888 288.728551 
L 294.342472 294.892852 
L 298.355056 294.591046 
L 302.36764 294.729761 
L 306.380225 294.425666 
L 310.392809 294.851303 
L 314.405393 294.705669 
L 318.417978 294.731497 
L 322.430562 294.83551 
L 326.443146 294.754563 
L 330.45573 295.143124 
L 334.468315 294.720947 
L 338.480899 295.033358 
L 342.493483 294.559888 
L 346.506067 295.013613 
L 350.518652 295.005121 
L 354.531236 294.584998 
L 358.54382 295.068219 
L 362.556404 294.887284 
L 366.568989 295.117744 
L 370.581573 294.97086 
L 374.594157 294.863293 
L 378.606742 295.109454 
L 382.619326 295.255964 
L 386.63191 295.251887 
L 390.644494 295.1545 
L 394.657079 295.108272 
L 398.669663 295.488 
L 402.682247 295.189509 
L 406.694831 295.420924 
L 410.707416 295.289135 
" style="fill:none;stroke:#ff0000;stroke-dasharray:1.5,2.475;stroke-dashoffset:0;stroke-width:1.5;"/>
    <defs>
     <path d="M 0 1.5 
C 0.397805 1.5 0.77937 1.341951 1.06066 1.06066 
C 1.341951 0.77937 1.5 0.397805 1.5 0 
C 1.5 -0.397805 1.341951 -0.77937 1.06066 -1.06066 
C 0.77937 -1.341951 0.397805 -1.5 0 -1.5 
C -0.397805 -1.5 -0.77937 -1.341951 -1.06066 -1.06066 
C -1.341951 -0.77937 -1.5 -0.397805 -1.5 0 
C -1.5 0.397805 -1.341951 0.77937 -1.06066 1.06066 
C -0.77937 1.341951 -0.397805 1.5 0 1.5 
z
" id="m459cf467c1" style="stroke:#ff0000;"/>
    </defs>
    <g clip-path="url(#pcfac7e4e8b)">
     <use style="fill:#ff0000;stroke:#ff0000;" x="61.612584" xlink:href="#m459cf467c1" y="231.755036"/>
     <use style="fill:#ff0000;stroke:#ff0000;" x="65.625169" xlink:href="#m459cf467c1" y="259.259609"/>
     <use style="fill:#ff0000;stroke:#ff0000;" x="69.637753" xlink:href="#m459cf467c1" y="282.065169"/>
     <use style="fill:#ff0000;stroke:#ff0000;" x="73.650337" xlink:href="#m459cf467c1" y="276.419388"/>
     <use style="fill:#ff0000;stroke:#ff0000;" x="77.662921" xlink:href="#m459cf467c1" y="279.331884"/>
     <use style="fill:#ff0000;stroke:#ff0000;" x="81.675506" xlink:href="#m459cf467c1" y="281.630572"/>
     <use style="fill:#ff0000;stroke:#ff0000;" x="85.68809" xlink:href="#m459cf467c1" y="282.162829"/>
     <use style="fill:#ff0000;stroke:#ff0000;" x="89.700674" xlink:href="#m459cf467c1" y="284.085473"/>
     <use style="fill:#ff0000;stroke:#ff0000;" x="93.713258" xlink:href="#m459cf467c1" y="284.566485"/>
     <use style="fill:#ff0000;stroke:#ff0000;" x="97.725843" xlink:href="#m459cf467c1" y="285.814732"/>
     <use style="fill:#ff0000;stroke:#ff0000;" x="101.738427" xlink:href="#m459cf467c1" y="286.257185"/>
     <use style="fill:#ff0000;stroke:#ff0000;" x="105.751011" xlink:href="#m459cf467c1" y="287.170067"/>
     <use style="fill:#ff0000;stroke:#ff0000;" x="109.763596" xlink:href="#m459cf467c1" y="287.305144"/>
     <use style="fill:#ff0000;stroke:#ff0000;" x="113.77618" xlink:href="#m459cf467c1" y="287.417399"/>
     <use style="fill:#ff0000;stroke:#ff0000;" x="117.788764" xlink:href="#m459cf467c1" y="287.662377"/>
     <use style="fill:#ff0000;stroke:#ff0000;" x="121.801348" xlink:href="#m459cf467c1" y="288.192143"/>
     <use style="fill:#ff0000;stroke:#ff0000;" x="125.813933" xlink:href="#m459cf467c1" y="288.623402"/>
     <use style="fill:#ff0000;stroke:#ff0000;" x="129.826517" xlink:href="#m459cf467c1" y="288.145088"/>
     <use style="fill:#ff0000;stroke:#ff0000;" x="133.839101" xlink:href="#m459cf467c1" y="288.752641"/>
     <use style="fill:#ff0000;stroke:#ff0000;" x="137.851685" xlink:href="#m459cf467c1" y="288.280707"/>
     <use style="fill:#ff0000;stroke:#ff0000;" x="141.86427" xlink:href="#m459cf467c1" y="288.365516"/>
     <use style="fill:#ff0000;stroke:#ff0000;" x="145.876854" xlink:href="#m459cf467c1" y="288.942324"/>
     <use style="fill:#ff0000;stroke:#ff0000;" x="149.889438" xlink:href="#m459cf467c1" y="289.126282"/>
     <use style="fill:#ff0000;stroke:#ff0000;" x="153.902022" xlink:href="#m459cf467c1" y="288.743235"/>
     <use style="fill:#ff0000;stroke:#ff0000;" x="157.914607" xlink:href="#m459cf467c1" y="289.578066"/>
     <use style="fill:#ff0000;stroke:#ff0000;" x="161.927191" xlink:href="#m459cf467c1" y="289.675578"/>
     <use style="fill:#ff0000;stroke:#ff0000;" x="165.939775" xlink:href="#m459cf467c1" y="289.194354"/>
     <use style="fill:#ff0000;stroke:#ff0000;" x="169.95236" xlink:href="#m459cf467c1" y="288.611321"/>
     <use style="fill:#ff0000;stroke:#ff0000;" x="173.964944" xlink:href="#m459cf467c1" y="289.481216"/>
     <use style="fill:#ff0000;stroke:#ff0000;" x="177.977528" xlink:href="#m459cf467c1" y="289.676268"/>
     <use style="fill:#ff0000;stroke:#ff0000;" x="181.990112" xlink:href="#m459cf467c1" y="288.470976"/>
     <use style="fill:#ff0000;stroke:#ff0000;" x="186.002697" xlink:href="#m459cf467c1" y="289.925852"/>
     <use style="fill:#ff0000;stroke:#ff0000;" x="190.015281" xlink:href="#m459cf467c1" y="288.804934"/>
     <use style="fill:#ff0000;stroke:#ff0000;" x="194.027865" xlink:href="#m459cf467c1" y="288.753885"/>
     <use style="fill:#ff0000;stroke:#ff0000;" x="198.040449" xlink:href="#m459cf467c1" y="289.363609"/>
     <use style="fill:#ff0000;stroke:#ff0000;" x="202.053034" xlink:href="#m459cf467c1" y="289.711152"/>
     <use style="fill:#ff0000;stroke:#ff0000;" x="206.065618" xlink:href="#m459cf467c1" y="288.973537"/>
     <use style="fill:#ff0000;stroke:#ff0000;" x="210.078202" xlink:href="#m459cf467c1" y="289.026149"/>
     <use style="fill:#ff0000;stroke:#ff0000;" x="214.090787" xlink:href="#m459cf467c1" y="289.418276"/>
     <use style="fill:#ff0000;stroke:#ff0000;" x="218.103371" xlink:href="#m459cf467c1" y="287.520677"/>
     <use style="fill:#ff0000;stroke:#ff0000;" x="222.115955" xlink:href="#m459cf467c1" y="287.864428"/>
     <use style="fill:#ff0000;stroke:#ff0000;" x="226.128539" xlink:href="#m459cf467c1" y="288.821375"/>
     <use style="fill:#ff0000;stroke:#ff0000;" x="230.141124" xlink:href="#m459cf467c1" y="288.358816"/>
     <use style="fill:#ff0000;stroke:#ff0000;" x="234.153708" xlink:href="#m459cf467c1" y="288.988897"/>
     <use style="fill:#ff0000;stroke:#ff0000;" x="238.166292" xlink:href="#m459cf467c1" y="290.033054"/>
     <use style="fill:#ff0000;stroke:#ff0000;" x="242.178876" xlink:href="#m459cf467c1" y="288.957259"/>
     <use style="fill:#ff0000;stroke:#ff0000;" x="246.191461" xlink:href="#m459cf467c1" y="288.216576"/>
     <use style="fill:#ff0000;stroke:#ff0000;" x="250.204045" xlink:href="#m459cf467c1" y="289.149342"/>
     <use style="fill:#ff0000;stroke:#ff0000;" x="254.216629" xlink:href="#m459cf467c1" y="294.236494"/>
     <use style="fill:#ff0000;stroke:#ff0000;" x="258.229213" xlink:href="#m459cf467c1" y="289.719522"/>
     <use style="fill:#ff0000;stroke:#ff0000;" x="262.241798" xlink:href="#m459cf467c1" y="294.49424"/>
     <use style="fill:#ff0000;stroke:#ff0000;" x="266.254382" xlink:href="#m459cf467c1" y="289.171859"/>
     <use style="fill:#ff0000;stroke:#ff0000;" x="270.266966" xlink:href="#m459cf467c1" y="294.595361"/>
     <use style="fill:#ff0000;stroke:#ff0000;" x="274.279551" xlink:href="#m459cf467c1" y="289.704711"/>
     <use style="fill:#ff0000;stroke:#ff0000;" x="278.292135" xlink:href="#m459cf467c1" y="294.450579"/>
     <use style="fill:#ff0000;stroke:#ff0000;" x="282.304719" xlink:href="#m459cf467c1" y="289.679266"/>
     <use style="fill:#ff0000;stroke:#ff0000;" x="286.317303" xlink:href="#m459cf467c1" y="294.77591"/>
     <use style="fill:#ff0000;stroke:#ff0000;" x="290.329888" xlink:href="#m459cf467c1" y="288.728551"/>
     <use style="fill:#ff0000;stroke:#ff0000;" x="294.342472" xlink:href="#m459cf467c1" y="294.892852"/>
     <use style="fill:#ff0000;stroke:#ff0000;" x="298.355056" xlink:href="#m459cf467c1" y="294.591046"/>
     <use style="fill:#ff0000;stroke:#ff0000;" x="302.36764" xlink:href="#m459cf467c1" y="294.729761"/>
     <use style="fill:#ff0000;stroke:#ff0000;" x="306.380225" xlink:href="#m459cf467c1" y="294.425666"/>
     <use style="fill:#ff0000;stroke:#ff0000;" x="310.392809" xlink:href="#m459cf467c1" y="294.851303"/>
     <use style="fill:#ff0000;stroke:#ff0000;" x="314.405393" xlink:href="#m459cf467c1" y="294.705669"/>
     <use style="fill:#ff0000;stroke:#ff0000;" x="318.417978" xlink:href="#m459cf467c1" y="294.731497"/>
     <use style="fill:#ff0000;stroke:#ff0000;" x="322.430562" xlink:href="#m459cf467c1" y="294.83551"/>
     <use style="fill:#ff0000;stroke:#ff0000;" x="326.443146" xlink:href="#m459cf467c1" y="294.754563"/>
     <use style="fill:#ff0000;stroke:#ff0000;" x="330.45573" xlink:href="#m459cf467c1" y="295.143124"/>
     <use style="fill:#ff0000;stroke:#ff0000;" x="334.468315" xlink:href="#m459cf467c1" y="294.720947"/>
     <use style="fill:#ff0000;stroke:#ff0000;" x="338.480899" xlink:href="#m459cf467c1" y="295.033358"/>
     <use style="fill:#ff0000;stroke:#ff0000;" x="342.493483" xlink:href="#m459cf467c1" y="294.559888"/>
     <use style="fill:#ff0000;stroke:#ff0000;" x="346.506067" xlink:href="#m459cf467c1" y="295.013613"/>
     <use style="fill:#ff0000;stroke:#ff0000;" x="350.518652" xlink:href="#m459cf467c1" y="295.005121"/>
     <use style="fill:#ff0000;stroke:#ff0000;" x="354.531236" xlink:href="#m459cf467c1" y="294.584998"/>
     <use style="fill:#ff0000;stroke:#ff0000;" x="358.54382" xlink:href="#m459cf467c1" y="295.068219"/>
     <use style="fill:#ff0000;stroke:#ff0000;" x="362.556404" xlink:href="#m459cf467c1" y="294.887284"/>
     <use style="fill:#ff0000;stroke:#ff0000;" x="366.568989" xlink:href="#m459cf467c1" y="295.117744"/>
     <use style="fill:#ff0000;stroke:#ff0000;" x="370.581573" xlink:href="#m459cf467c1" y="294.97086"/>
     <use style="fill:#ff0000;stroke:#ff0000;" x="374.594157" xlink:href="#m459cf467c1" y="294.863293"/>
     <use style="fill:#ff0000;stroke:#ff0000;" x="378.606742" xlink:href="#m459cf467c1" y="295.109454"/>
     <use style="fill:#ff0000;stroke:#ff0000;" x="382.619326" xlink:href="#m459cf467c1" y="295.255964"/>
     <use style="fill:#ff0000;stroke:#ff0000;" x="386.63191" xlink:href="#m459cf467c1" y="295.251887"/>
     <use style="fill:#ff0000;stroke:#ff0000;" x="390.644494" xlink:href="#m459cf467c1" y="295.1545"/>
     <use style="fill:#ff0000;stroke:#ff0000;" x="394.657079" xlink:href="#m459cf467c1" y="295.108272"/>
     <use style="fill:#ff0000;stroke:#ff0000;" x="398.669663" xlink:href="#m459cf467c1" y="295.488"/>
     <use style="fill:#ff0000;stroke:#ff0000;" x="402.682247" xlink:href="#m459cf467c1" y="295.189509"/>
     <use style="fill:#ff0000;stroke:#ff0000;" x="406.694831" xlink:href="#m459cf467c1" y="295.420924"/>
     <use style="fill:#ff0000;stroke:#ff0000;" x="410.707416" xlink:href="#m459cf467c1" y="295.289135"/>
    </g>
   </g>
   <g id="line2d_64">
    <path clip-path="url(#pcfac7e4e8b)" d="M 61.612584 53.568 
L 65.625169 157.432045 
L 69.637753 213.441406 
L 73.650337 225.074709 
L 77.662921 237.170513 
L 81.675506 245.847559 
L 85.68809 249.758693 
L 89.700674 253.971779 
L 93.713258 257.204402 
L 97.725843 259.916727 
L 101.738427 262.482547 
L 105.751011 264.397402 
L 109.763596 266.430026 
L 113.77618 266.759586 
L 117.788764 266.970375 
L 121.801348 268.869507 
L 125.813933 270.767868 
L 129.826517 270.65862 
L 133.839101 271.506238 
L 137.851685 272.038351 
L 141.86427 271.663438 
L 145.876854 273.040622 
L 149.889438 273.017197 
L 153.902022 272.313609 
L 157.914607 275.410631 
L 161.927191 275.961767 
L 165.939775 272.324079 
L 169.95236 273.794423 
L 173.964944 275.036018 
L 177.977528 275.549044 
L 181.990112 273.818892 
L 186.002697 276.814308 
L 190.015281 275.153288 
L 194.027865 274.41786 
L 198.040449 275.39574 
L 202.053034 276.803686 
L 206.065618 276.337312 
L 210.078202 275.617387 
L 214.090787 276.329123 
L 218.103371 274.16958 
L 222.115955 273.431295 
L 226.128539 275.189353 
L 230.141124 274.420174 
L 234.153708 275.190785 
L 238.166292 277.432926 
L 242.178876 275.955117 
L 246.191461 274.773452 
L 250.204045 276.318363 
L 254.216629 279.735287 
L 258.229213 277.420366 
L 262.241798 280.32912 
L 266.254382 276.643044 
L 270.266966 281.056113 
L 274.279551 276.611948 
L 278.292135 280.665628 
L 282.304719 276.909242 
L 286.317303 281.927192 
L 290.329888 276.756185 
L 294.342472 280.538072 
L 298.355056 280.767108 
L 302.36764 280.721676 
L 306.380225 280.335956 
L 310.392809 280.714069 
L 314.405393 282.504305 
L 318.417978 281.129528 
L 322.430562 281.617303 
L 326.443146 280.812189 
L 330.45573 281.380619 
L 334.468315 278.099211 
L 338.480899 281.622071 
L 342.493483 280.197083 
L 346.506067 281.189762 
L 350.518652 280.823197 
L 354.531236 280.723726 
L 358.54382 281.751305 
L 362.556404 281.820185 
L 366.568989 282.574128 
L 370.581573 280.693295 
L 374.594157 281.52219 
L 378.606742 282.294068 
L 382.619326 281.508071 
L 386.63191 282.254987 
L 390.644494 283.0434 
L 394.657079 283.052844 
L 398.669663 283.981189 
L 402.682247 282.557037 
L 406.694831 283.835096 
L 410.707416 283.03921 
" style="fill:none;stroke:#008000;stroke-dasharray:1.5,2.475;stroke-dashoffset:0;stroke-width:1.5;"/>
    <defs>
     <path d="M 0 1.5 
C 0.397805 1.5 0.77937 1.341951 1.06066 1.06066 
C 1.341951 0.77937 1.5 0.397805 1.5 0 
C 1.5 -0.397805 1.341951 -0.77937 1.06066 -1.06066 
C 0.77937 -1.341951 0.397805 -1.5 0 -1.5 
C -0.397805 -1.5 -0.77937 -1.341951 -1.06066 -1.06066 
C -1.341951 -0.77937 -1.5 -0.397805 -1.5 0 
C -1.5 0.397805 -1.341951 0.77937 -1.06066 1.06066 
C -0.77937 1.341951 -0.397805 1.5 0 1.5 
z
" id="me0b404a50e" style="stroke:#008000;"/>
    </defs>
    <g clip-path="url(#pcfac7e4e8b)">
     <use style="fill:#008000;stroke:#008000;" x="61.612584" xlink:href="#me0b404a50e" y="53.568"/>
     <use style="fill:#008000;stroke:#008000;" x="65.625169" xlink:href="#me0b404a50e" y="157.432045"/>
     <use style="fill:#008000;stroke:#008000;" x="69.637753" xlink:href="#me0b404a50e" y="213.441406"/>
     <use style="fill:#008000;stroke:#008000;" x="73.650337" xlink:href="#me0b404a50e" y="225.074709"/>
     <use style="fill:#008000;stroke:#008000;" x="77.662921" xlink:href="#me0b404a50e" y="237.170513"/>
     <use style="fill:#008000;stroke:#008000;" x="81.675506" xlink:href="#me0b404a50e" y="245.847559"/>
     <use style="fill:#008000;stroke:#008000;" x="85.68809" xlink:href="#me0b404a50e" y="249.758693"/>
     <use style="fill:#008000;stroke:#008000;" x="89.700674" xlink:href="#me0b404a50e" y="253.971779"/>
     <use style="fill:#008000;stroke:#008000;" x="93.713258" xlink:href="#me0b404a50e" y="257.204402"/>
     <use style="fill:#008000;stroke:#008000;" x="97.725843" xlink:href="#me0b404a50e" y="259.916727"/>
     <use style="fill:#008000;stroke:#008000;" x="101.738427" xlink:href="#me0b404a50e" y="262.482547"/>
     <use style="fill:#008000;stroke:#008000;" x="105.751011" xlink:href="#me0b404a50e" y="264.397402"/>
     <use style="fill:#008000;stroke:#008000;" x="109.763596" xlink:href="#me0b404a50e" y="266.430026"/>
     <use style="fill:#008000;stroke:#008000;" x="113.77618" xlink:href="#me0b404a50e" y="266.759586"/>
     <use style="fill:#008000;stroke:#008000;" x="117.788764" xlink:href="#me0b404a50e" y="266.970375"/>
     <use style="fill:#008000;stroke:#008000;" x="121.801348" xlink:href="#me0b404a50e" y="268.869507"/>
     <use style="fill:#008000;stroke:#008000;" x="125.813933" xlink:href="#me0b404a50e" y="270.767868"/>
     <use style="fill:#008000;stroke:#008000;" x="129.826517" xlink:href="#me0b404a50e" y="270.65862"/>
     <use style="fill:#008000;stroke:#008000;" x="133.839101" xlink:href="#me0b404a50e" y="271.506238"/>
     <use style="fill:#008000;stroke:#008000;" x="137.851685" xlink:href="#me0b404a50e" y="272.038351"/>
     <use style="fill:#008000;stroke:#008000;" x="141.86427" xlink:href="#me0b404a50e" y="271.663438"/>
     <use style="fill:#008000;stroke:#008000;" x="145.876854" xlink:href="#me0b404a50e" y="273.040622"/>
     <use style="fill:#008000;stroke:#008000;" x="149.889438" xlink:href="#me0b404a50e" y="273.017197"/>
     <use style="fill:#008000;stroke:#008000;" x="153.902022" xlink:href="#me0b404a50e" y="272.313609"/>
     <use style="fill:#008000;stroke:#008000;" x="157.914607" xlink:href="#me0b404a50e" y="275.410631"/>
     <use style="fill:#008000;stroke:#008000;" x="161.927191" xlink:href="#me0b404a50e" y="275.961767"/>
     <use style="fill:#008000;stroke:#008000;" x="165.939775" xlink:href="#me0b404a50e" y="272.324079"/>
     <use style="fill:#008000;stroke:#008000;" x="169.95236" xlink:href="#me0b404a50e" y="273.794423"/>
     <use style="fill:#008000;stroke:#008000;" x="173.964944" xlink:href="#me0b404a50e" y="275.036018"/>
     <use style="fill:#008000;stroke:#008000;" x="177.977528" xlink:href="#me0b404a50e" y="275.549044"/>
     <use style="fill:#008000;stroke:#008000;" x="181.990112" xlink:href="#me0b404a50e" y="273.818892"/>
     <use style="fill:#008000;stroke:#008000;" x="186.002697" xlink:href="#me0b404a50e" y="276.814308"/>
     <use style="fill:#008000;stroke:#008000;" x="190.015281" xlink:href="#me0b404a50e" y="275.153288"/>
     <use style="fill:#008000;stroke:#008000;" x="194.027865" xlink:href="#me0b404a50e" y="274.41786"/>
     <use style="fill:#008000;stroke:#008000;" x="198.040449" xlink:href="#me0b404a50e" y="275.39574"/>
     <use style="fill:#008000;stroke:#008000;" x="202.053034" xlink:href="#me0b404a50e" y="276.803686"/>
     <use style="fill:#008000;stroke:#008000;" x="206.065618" xlink:href="#me0b404a50e" y="276.337312"/>
     <use style="fill:#008000;stroke:#008000;" x="210.078202" xlink:href="#me0b404a50e" y="275.617387"/>
     <use style="fill:#008000;stroke:#008000;" x="214.090787" xlink:href="#me0b404a50e" y="276.329123"/>
     <use style="fill:#008000;stroke:#008000;" x="218.103371" xlink:href="#me0b404a50e" y="274.16958"/>
     <use style="fill:#008000;stroke:#008000;" x="222.115955" xlink:href="#me0b404a50e" y="273.431295"/>
     <use style="fill:#008000;stroke:#008000;" x="226.128539" xlink:href="#me0b404a50e" y="275.189353"/>
     <use style="fill:#008000;stroke:#008000;" x="230.141124" xlink:href="#me0b404a50e" y="274.420174"/>
     <use style="fill:#008000;stroke:#008000;" x="234.153708" xlink:href="#me0b404a50e" y="275.190785"/>
     <use style="fill:#008000;stroke:#008000;" x="238.166292" xlink:href="#me0b404a50e" y="277.432926"/>
     <use style="fill:#008000;stroke:#008000;" x="242.178876" xlink:href="#me0b404a50e" y="275.955117"/>
     <use style="fill:#008000;stroke:#008000;" x="246.191461" xlink:href="#me0b404a50e" y="274.773452"/>
     <use style="fill:#008000;stroke:#008000;" x="250.204045" xlink:href="#me0b404a50e" y="276.318363"/>
     <use style="fill:#008000;stroke:#008000;" x="254.216629" xlink:href="#me0b404a50e" y="279.735287"/>
     <use style="fill:#008000;stroke:#008000;" x="258.229213" xlink:href="#me0b404a50e" y="277.420366"/>
     <use style="fill:#008000;stroke:#008000;" x="262.241798" xlink:href="#me0b404a50e" y="280.32912"/>
     <use style="fill:#008000;stroke:#008000;" x="266.254382" xlink:href="#me0b404a50e" y="276.643044"/>
     <use style="fill:#008000;stroke:#008000;" x="270.266966" xlink:href="#me0b404a50e" y="281.056113"/>
     <use style="fill:#008000;stroke:#008000;" x="274.279551" xlink:href="#me0b404a50e" y="276.611948"/>
     <use style="fill:#008000;stroke:#008000;" x="278.292135" xlink:href="#me0b404a50e" y="280.665628"/>
     <use style="fill:#008000;stroke:#008000;" x="282.304719" xlink:href="#me0b404a50e" y="276.909242"/>
     <use style="fill:#008000;stroke:#008000;" x="286.317303" xlink:href="#me0b404a50e" y="281.927192"/>
     <use style="fill:#008000;stroke:#008000;" x="290.329888" xlink:href="#me0b404a50e" y="276.756185"/>
     <use style="fill:#008000;stroke:#008000;" x="294.342472" xlink:href="#me0b404a50e" y="280.538072"/>
     <use style="fill:#008000;stroke:#008000;" x="298.355056" xlink:href="#me0b404a50e" y="280.767108"/>
     <use style="fill:#008000;stroke:#008000;" x="302.36764" xlink:href="#me0b404a50e" y="280.721676"/>
     <use style="fill:#008000;stroke:#008000;" x="306.380225" xlink:href="#me0b404a50e" y="280.335956"/>
     <use style="fill:#008000;stroke:#008000;" x="310.392809" xlink:href="#me0b404a50e" y="280.714069"/>
     <use style="fill:#008000;stroke:#008000;" x="314.405393" xlink:href="#me0b404a50e" y="282.504305"/>
     <use style="fill:#008000;stroke:#008000;" x="318.417978" xlink:href="#me0b404a50e" y="281.129528"/>
     <use style="fill:#008000;stroke:#008000;" x="322.430562" xlink:href="#me0b404a50e" y="281.617303"/>
     <use style="fill:#008000;stroke:#008000;" x="326.443146" xlink:href="#me0b404a50e" y="280.812189"/>
     <use style="fill:#008000;stroke:#008000;" x="330.45573" xlink:href="#me0b404a50e" y="281.380619"/>
     <use style="fill:#008000;stroke:#008000;" x="334.468315" xlink:href="#me0b404a50e" y="278.099211"/>
     <use style="fill:#008000;stroke:#008000;" x="338.480899" xlink:href="#me0b404a50e" y="281.622071"/>
     <use style="fill:#008000;stroke:#008000;" x="342.493483" xlink:href="#me0b404a50e" y="280.197083"/>
     <use style="fill:#008000;stroke:#008000;" x="346.506067" xlink:href="#me0b404a50e" y="281.189762"/>
     <use style="fill:#008000;stroke:#008000;" x="350.518652" xlink:href="#me0b404a50e" y="280.823197"/>
     <use style="fill:#008000;stroke:#008000;" x="354.531236" xlink:href="#me0b404a50e" y="280.723726"/>
     <use style="fill:#008000;stroke:#008000;" x="358.54382" xlink:href="#me0b404a50e" y="281.751305"/>
     <use style="fill:#008000;stroke:#008000;" x="362.556404" xlink:href="#me0b404a50e" y="281.820185"/>
     <use style="fill:#008000;stroke:#008000;" x="366.568989" xlink:href="#me0b404a50e" y="282.574128"/>
     <use style="fill:#008000;stroke:#008000;" x="370.581573" xlink:href="#me0b404a50e" y="280.693295"/>
     <use style="fill:#008000;stroke:#008000;" x="374.594157" xlink:href="#me0b404a50e" y="281.52219"/>
     <use style="fill:#008000;stroke:#008000;" x="378.606742" xlink:href="#me0b404a50e" y="282.294068"/>
     <use style="fill:#008000;stroke:#008000;" x="382.619326" xlink:href="#me0b404a50e" y="281.508071"/>
     <use style="fill:#008000;stroke:#008000;" x="386.63191" xlink:href="#me0b404a50e" y="282.254987"/>
     <use style="fill:#008000;stroke:#008000;" x="390.644494" xlink:href="#me0b404a50e" y="283.0434"/>
     <use style="fill:#008000;stroke:#008000;" x="394.657079" xlink:href="#me0b404a50e" y="283.052844"/>
     <use style="fill:#008000;stroke:#008000;" x="398.669663" xlink:href="#me0b404a50e" y="283.981189"/>
     <use style="fill:#008000;stroke:#008000;" x="402.682247" xlink:href="#me0b404a50e" y="282.557037"/>
     <use style="fill:#008000;stroke:#008000;" x="406.694831" xlink:href="#me0b404a50e" y="283.835096"/>
     <use style="fill:#008000;stroke:#008000;" x="410.707416" xlink:href="#me0b404a50e" y="283.03921"/>
    </g>
   </g>
   <g id="patch_3">
    <path d="M 57.6 307.584 
L 57.6 41.472 
" style="fill:none;stroke:#000000;stroke-linecap:square;stroke-linejoin:miter;stroke-width:0.8;"/>
   </g>
   <g id="patch_4">
    <path d="M 414.72 307.584 
L 414.72 41.472 
" style="fill:none;stroke:#000000;stroke-linecap:square;stroke-linejoin:miter;stroke-width:0.8;"/>
   </g>
   <g id="patch_5">
    <path d="M 57.6 307.584 
L 414.72 307.584 
" style="fill:none;stroke:#000000;stroke-linecap:square;stroke-linejoin:miter;stroke-width:0.8;"/>
   </g>
   <g id="patch_6">
    <path d="M 57.6 41.472 
L 414.72 41.472 
" style="fill:none;stroke:#000000;stroke-linecap:square;stroke-linejoin:miter;stroke-width:0.8;"/>
   </g>
   <g id="text_34">
    <!-- ASIC_680k tr -->
    <g transform="translate(197.634375 35.472)scale(0.12 -0.12)">
     <defs>
      <path d="M 34.1875 63.1875 
L 20.796875 26.90625 
L 47.609375 26.90625 
z
M 28.609375 72.90625 
L 39.796875 72.90625 
L 67.578125 0 
L 57.328125 0 
L 50.6875 18.703125 
L 17.828125 18.703125 
L 11.1875 0 
L 0.78125 0 
z
" id="DejaVuSans-65"/>
      <path d="M 53.515625 70.515625 
L 53.515625 60.890625 
Q 47.90625 63.578125 42.921875 64.890625 
Q 37.9375 66.21875 33.296875 66.21875 
Q 25.25 66.21875 20.875 63.09375 
Q 16.5 59.96875 16.5 54.203125 
Q 16.5 49.359375 19.40625 46.890625 
Q 22.3125 44.4375 30.421875 42.921875 
L 36.375 41.703125 
Q 47.40625 39.59375 52.65625 34.296875 
Q 57.90625 29 57.90625 20.125 
Q 57.90625 9.515625 50.796875 4.046875 
Q 43.703125 -1.421875 29.984375 -1.421875 
Q 24.8125 -1.421875 18.96875 -0.25 
Q 13.140625 0.921875 6.890625 3.21875 
L 6.890625 13.375 
Q 12.890625 10.015625 18.65625 8.296875 
Q 24.421875 6.59375 29.984375 6.59375 
Q 38.421875 6.59375 43.015625 9.90625 
Q 47.609375 13.234375 47.609375 19.390625 
Q 47.609375 24.75 44.3125 27.78125 
Q 41.015625 30.8125 33.5 32.328125 
L 27.484375 33.5 
Q 16.453125 35.6875 11.515625 40.375 
Q 6.59375 45.0625 6.59375 53.421875 
Q 6.59375 63.09375 13.40625 68.65625 
Q 20.21875 74.21875 32.171875 74.21875 
Q 37.3125 74.21875 42.625 73.28125 
Q 47.953125 72.359375 53.515625 70.515625 
z
" id="DejaVuSans-83"/>
      <path d="M 9.8125 72.90625 
L 19.671875 72.90625 
L 19.671875 0 
L 9.8125 0 
z
" id="DejaVuSans-73"/>
      <path d="M 64.40625 67.28125 
L 64.40625 56.890625 
Q 59.421875 61.53125 53.78125 63.8125 
Q 48.140625 66.109375 41.796875 66.109375 
Q 29.296875 66.109375 22.65625 58.46875 
Q 16.015625 50.828125 16.015625 36.375 
Q 16.015625 21.96875 22.65625 14.328125 
Q 29.296875 6.6875 41.796875 6.6875 
Q 48.140625 6.6875 53.78125 8.984375 
Q 59.421875 11.28125 64.40625 15.921875 
L 64.40625 5.609375 
Q 59.234375 2.09375 53.4375 0.328125 
Q 47.65625 -1.421875 41.21875 -1.421875 
Q 24.65625 -1.421875 15.125 8.703125 
Q 5.609375 18.84375 5.609375 36.375 
Q 5.609375 53.953125 15.125 64.078125 
Q 24.65625 74.21875 41.21875 74.21875 
Q 47.75 74.21875 53.53125 72.484375 
Q 59.328125 70.75 64.40625 67.28125 
z
" id="DejaVuSans-67"/>
      <path d="M 50.984375 -16.609375 
L 50.984375 -23.578125 
L -0.984375 -23.578125 
L -0.984375 -16.609375 
z
" id="DejaVuSans-95"/>
      <path d="M 9.078125 75.984375 
L 18.109375 75.984375 
L 18.109375 31.109375 
L 44.921875 54.6875 
L 56.390625 54.6875 
L 27.390625 29.109375 
L 57.625 0 
L 45.90625 0 
L 18.109375 26.703125 
L 18.109375 0 
L 9.078125 0 
z
" id="DejaVuSans-107"/>
     </defs>
     <use xlink:href="#DejaVuSans-65"/>
     <use x="68.408203" xlink:href="#DejaVuSans-83"/>
     <use x="131.884766" xlink:href="#DejaVuSans-73"/>
     <use x="161.376953" xlink:href="#DejaVuSans-67"/>
     <use x="231.201172" xlink:href="#DejaVuSans-95"/>
     <use x="281.201172" xlink:href="#DejaVuSans-54"/>
     <use x="344.824219" xlink:href="#DejaVuSans-56"/>
     <use x="408.447266" xlink:href="#DejaVuSans-48"/>
     <use x="472.070312" xlink:href="#DejaVuSans-107"/>
     <use x="529.980469" xlink:href="#DejaVuSans-32"/>
     <use x="561.767578" xlink:href="#DejaVuSans-116"/>
     <use x="600.976562" xlink:href="#DejaVuSans-114"/>
    </g>
   </g>
   <g id="legend_1">
    <g id="patch_7">
     <path d="M 305.859062 79.106375 
L 407.72 79.106375 
Q 409.72 79.106375 409.72 77.106375 
L 409.72 48.472 
Q 409.72 46.472 407.72 46.472 
L 305.859062 46.472 
Q 303.859062 46.472 303.859062 48.472 
L 303.859062 77.106375 
Q 303.859062 79.106375 305.859062 79.106375 
z
" style="fill:#ffffff;opacity:0.8;stroke:#cccccc;stroke-linejoin:miter;"/>
    </g>
    <g id="line2d_65">
     <path d="M 307.859062 54.570438 
L 327.859062 54.570438 
" style="fill:none;stroke:#ff0000;stroke-dasharray:1.5,2.475;stroke-dashoffset:0;stroke-width:1.5;"/>
    </g>
    <g id="line2d_66">
     <g>
      <use style="fill:#ff0000;stroke:#ff0000;" x="317.859062" xlink:href="#m459cf467c1" y="54.570438"/>
     </g>
    </g>
    <g id="text_35">
     <!-- copy_pointers -->
     <g transform="translate(335.859062 58.070438)scale(0.1 -0.1)">
      <defs>
       <path d="M 48.78125 52.59375 
L 48.78125 44.1875 
Q 44.96875 46.296875 41.140625 47.34375 
Q 37.3125 48.390625 33.40625 48.390625 
Q 24.65625 48.390625 19.8125 42.84375 
Q 14.984375 37.3125 14.984375 27.296875 
Q 14.984375 17.28125 19.8125 11.734375 
Q 24.65625 6.203125 33.40625 6.203125 
Q 37.3125 6.203125 41.140625 7.25 
Q 44.96875 8.296875 48.78125 10.40625 
L 48.78125 2.09375 
Q 45.015625 0.34375 40.984375 -0.53125 
Q 36.96875 -1.421875 32.421875 -1.421875 
Q 20.0625 -1.421875 12.78125 6.34375 
Q 5.515625 14.109375 5.515625 27.296875 
Q 5.515625 40.671875 12.859375 48.328125 
Q 20.21875 56 33.015625 56 
Q 37.15625 56 41.109375 55.140625 
Q 45.0625 54.296875 48.78125 52.59375 
z
" id="DejaVuSans-99"/>
       <path d="M 32.171875 -5.078125 
Q 28.375 -14.84375 24.75 -17.8125 
Q 21.140625 -20.796875 15.09375 -20.796875 
L 7.90625 -20.796875 
L 7.90625 -13.28125 
L 13.1875 -13.28125 
Q 16.890625 -13.28125 18.9375 -11.515625 
Q 21 -9.765625 23.484375 -3.21875 
L 25.09375 0.875 
L 2.984375 54.6875 
L 12.5 54.6875 
L 29.59375 11.921875 
L 46.6875 54.6875 
L 56.203125 54.6875 
z
" id="DejaVuSans-121"/>
      </defs>
      <use xlink:href="#DejaVuSans-99"/>
      <use x="54.980469" xlink:href="#DejaVuSans-111"/>
      <use x="116.162109" xlink:href="#DejaVuSans-112"/>
      <use x="179.638672" xlink:href="#DejaVuSans-121"/>
      <use x="238.818359" xlink:href="#DejaVuSans-95"/>
      <use x="288.818359" xlink:href="#DejaVuSans-112"/>
      <use x="352.294922" xlink:href="#DejaVuSans-111"/>
      <use x="413.476562" xlink:href="#DejaVuSans-105"/>
      <use x="441.259766" xlink:href="#DejaVuSans-110"/>
      <use x="504.638672" xlink:href="#DejaVuSans-116"/>
      <use x="543.847656" xlink:href="#DejaVuSans-101"/>
      <use x="605.371094" xlink:href="#DejaVuSans-114"/>
      <use x="646.484375" xlink:href="#DejaVuSans-115"/>
     </g>
    </g>
    <g id="line2d_67">
     <path d="M 307.859062 69.526688 
L 327.859062 69.526688 
" style="fill:none;stroke:#008000;stroke-dasharray:1.5,2.475;stroke-dashoffset:0;stroke-width:1.5;"/>
    </g>
    <g id="line2d_68">
     <g>
      <use style="fill:#008000;stroke:#008000;" x="317.859062" xlink:href="#me0b404a50e" y="69.526688"/>
     </g>
    </g>
    <g id="text_36">
     <!-- buckets -->
     <g transform="translate(335.859062 73.026688)scale(0.1 -0.1)">
      <defs>
       <path d="M 48.6875 27.296875 
Q 48.6875 37.203125 44.609375 42.84375 
Q 40.53125 48.484375 33.40625 48.484375 
Q 26.265625 48.484375 22.1875 42.84375 
Q 18.109375 37.203125 18.109375 27.296875 
Q 18.109375 17.390625 22.1875 11.75 
Q 26.265625 6.109375 33.40625 6.109375 
Q 40.53125 6.109375 44.609375 11.75 
Q 48.6875 17.390625 48.6875 27.296875 
z
M 18.109375 46.390625 
Q 20.953125 51.265625 25.265625 53.625 
Q 29.59375 56 35.59375 56 
Q 45.5625 56 51.78125 48.09375 
Q 58.015625 40.1875 58.015625 27.296875 
Q 58.015625 14.40625 51.78125 6.484375 
Q 45.5625 -1.421875 35.59375 -1.421875 
Q 29.59375 -1.421875 25.265625 0.953125 
Q 20.953125 3.328125 18.109375 8.203125 
L 18.109375 0 
L 9.078125 0 
L 9.078125 75.984375 
L 18.109375 75.984375 
z
" id="DejaVuSans-98"/>
      </defs>
      <use xlink:href="#DejaVuSans-98"/>
      <use x="63.476562" xlink:href="#DejaVuSans-117"/>
      <use x="126.855469" xlink:href="#DejaVuSans-99"/>
      <use x="181.835938" xlink:href="#DejaVuSans-107"/>
      <use x="236.121094" xlink:href="#DejaVuSans-101"/>
      <use x="297.644531" xlink:href="#DejaVuSans-116"/>
      <use x="336.853516" xlink:href="#DejaVuSans-115"/>
     </g>
    </g>
   </g>
  </g>
  <g id="axes_2">
   <g id="matplotlib.axis_3">
    <g id="ytick_9">
     <g id="line2d_69">
      <defs>
       <path d="M 0 0 
L 3.5 0 
" id="meac9ba2022" style="stroke:#000000;stroke-width:0.8;"/>
      </defs>
      <g>
       <use style="stroke:#000000;stroke-width:0.8;" x="414.72" xlink:href="#meac9ba2022" y="275.718534"/>
      </g>
     </g>
     <g id="text_37">
      <!-- 0.005 -->
      <g transform="translate(421.72 279.517753)scale(0.1 -0.1)">
       <use xlink:href="#DejaVuSans-48"/>
       <use x="63.623047" xlink:href="#DejaVuSans-46"/>
       <use x="95.410156" xlink:href="#DejaVuSans-48"/>
       <use x="159.033203" xlink:href="#DejaVuSans-48"/>
       <use x="222.65625" xlink:href="#DejaVuSans-53"/>
      </g>
     </g>
    </g>
    <g id="ytick_10">
     <g id="line2d_70">
      <g>
       <use style="stroke:#000000;stroke-width:0.8;" x="414.72" xlink:href="#meac9ba2022" y="238.774413"/>
      </g>
     </g>
     <g id="text_38">
      <!-- 0.010 -->
      <g transform="translate(421.72 242.573632)scale(0.1 -0.1)">
       <use xlink:href="#DejaVuSans-48"/>
       <use x="63.623047" xlink:href="#DejaVuSans-46"/>
       <use x="95.410156" xlink:href="#DejaVuSans-48"/>
       <use x="159.033203" xlink:href="#DejaVuSans-49"/>
       <use x="222.65625" xlink:href="#DejaVuSans-48"/>
      </g>
     </g>
    </g>
    <g id="ytick_11">
     <g id="line2d_71">
      <g>
       <use style="stroke:#000000;stroke-width:0.8;" x="414.72" xlink:href="#meac9ba2022" y="201.830292"/>
      </g>
     </g>
     <g id="text_39">
      <!-- 0.015 -->
      <g transform="translate(421.72 205.629511)scale(0.1 -0.1)">
       <use xlink:href="#DejaVuSans-48"/>
       <use x="63.623047" xlink:href="#DejaVuSans-46"/>
       <use x="95.410156" xlink:href="#DejaVuSans-48"/>
       <use x="159.033203" xlink:href="#DejaVuSans-49"/>
       <use x="222.65625" xlink:href="#DejaVuSans-53"/>
      </g>
     </g>
    </g>
    <g id="ytick_12">
     <g id="line2d_72">
      <g>
       <use style="stroke:#000000;stroke-width:0.8;" x="414.72" xlink:href="#meac9ba2022" y="164.886171"/>
      </g>
     </g>
     <g id="text_40">
      <!-- 0.020 -->
      <g transform="translate(421.72 168.68539)scale(0.1 -0.1)">
       <use xlink:href="#DejaVuSans-48"/>
       <use x="63.623047" xlink:href="#DejaVuSans-46"/>
       <use x="95.410156" xlink:href="#DejaVuSans-48"/>
       <use x="159.033203" xlink:href="#DejaVuSans-50"/>
       <use x="222.65625" xlink:href="#DejaVuSans-48"/>
      </g>
     </g>
    </g>
    <g id="ytick_13">
     <g id="line2d_73">
      <g>
       <use style="stroke:#000000;stroke-width:0.8;" x="414.72" xlink:href="#meac9ba2022" y="127.942051"/>
      </g>
     </g>
     <g id="text_41">
      <!-- 0.025 -->
      <g transform="translate(421.72 131.741269)scale(0.1 -0.1)">
       <use xlink:href="#DejaVuSans-48"/>
       <use x="63.623047" xlink:href="#DejaVuSans-46"/>
       <use x="95.410156" xlink:href="#DejaVuSans-48"/>
       <use x="159.033203" xlink:href="#DejaVuSans-50"/>
       <use x="222.65625" xlink:href="#DejaVuSans-53"/>
      </g>
     </g>
    </g>
    <g id="ytick_14">
     <g id="line2d_74">
      <g>
       <use style="stroke:#000000;stroke-width:0.8;" x="414.72" xlink:href="#meac9ba2022" y="90.99793"/>
      </g>
     </g>
     <g id="text_42">
      <!-- 0.030 -->
      <g transform="translate(421.72 94.797148)scale(0.1 -0.1)">
       <use xlink:href="#DejaVuSans-48"/>
       <use x="63.623047" xlink:href="#DejaVuSans-46"/>
       <use x="95.410156" xlink:href="#DejaVuSans-48"/>
       <use x="159.033203" xlink:href="#DejaVuSans-51"/>
       <use x="222.65625" xlink:href="#DejaVuSans-48"/>
      </g>
     </g>
    </g>
    <g id="ytick_15">
     <g id="line2d_75">
      <g>
       <use style="stroke:#000000;stroke-width:0.8;" x="414.72" xlink:href="#meac9ba2022" y="54.053809"/>
      </g>
     </g>
     <g id="text_43">
      <!-- 0.035 -->
      <g transform="translate(421.72 57.853027)scale(0.1 -0.1)">
       <use xlink:href="#DejaVuSans-48"/>
       <use x="63.623047" xlink:href="#DejaVuSans-46"/>
       <use x="95.410156" xlink:href="#DejaVuSans-48"/>
       <use x="159.033203" xlink:href="#DejaVuSans-51"/>
       <use x="222.65625" xlink:href="#DejaVuSans-53"/>
      </g>
     </g>
    </g>
   </g>
   <g id="line2d_76">
    <path clip-path="url(#pcfac7e4e8b)" d="M 61.612584 88.63403 
L 65.625169 195.627689 
L 69.637753 231.607574 
L 73.650337 252.159811 
L 77.662921 264.294908 
L 81.675506 270.202603 
L 85.68809 275.787399 
L 89.700674 279.690832 
L 93.713258 281.886927 
L 97.725843 284.569542 
L 101.738427 285.619827 
L 105.751011 288.818513 
L 109.763596 287.735549 
L 113.77618 290.428331 
L 117.788764 289.707169 
L 121.801348 289.587906 
L 125.813933 290.66245 
L 129.826517 291.463458 
L 133.839101 290.362607 
L 137.851685 291.229307 
L 141.86427 292.696056 
L 145.876854 290.975752 
L 149.889438 291.467913 
L 153.902022 292.857937 
L 157.914607 292.736331 
L 161.927191 293.415595 
L 165.939775 292.901701 
L 169.95236 293.325084 
L 173.964944 293.321687 
L 177.977528 294.068502 
L 181.990112 294.362812 
L 186.002697 295.488 
L 190.015281 293.675241 
L 194.027865 294.962596 
L 198.040449 294.557447 
L 202.053034 295.291976 
L 206.065618 295.098556 
L 210.078202 295.134407 
L 214.090787 294.378125 
L 218.103371 293.610551 
L 222.115955 294.957599 
L 226.128539 295.341399 
L 230.141124 294.355069 
L 234.153708 294.351041 
L 238.166292 295.261401 
L 242.178876 295.061261 
L 246.191461 293.474649 
L 250.204045 294.107999 
L 254.216629 292.669595 
L 258.229213 294.134645 
L 262.241798 293.005284 
L 266.254382 293.356344 
L 270.266966 293.22503 
L 274.279551 292.598047 
L 278.292135 294.193567 
L 282.304719 292.686146 
L 286.317303 294.050323 
L 290.329888 293.32439 
L 294.342472 291.9947 
L 298.355056 292.572582 
L 302.36764 291.991712 
L 306.380225 291.509336 
L 310.392809 292.05085 
L 314.405393 292.29994 
L 318.417978 290.816726 
L 322.430562 292.489716 
L 326.443146 292.52606 
L 330.45573 289.519668 
L 334.468315 293.602987 
L 338.480899 291.954358 
L 342.493483 290.103283 
L 346.506067 291.962636 
L 350.518652 292.449654 
L 354.531236 290.943816 
L 358.54382 290.706461 
L 362.556404 287.863337 
L 366.568989 288.440499 
L 370.581573 289.387667 
L 374.594157 291.244766 
L 378.606742 289.727383 
L 382.619326 291.649114 
L 386.63191 290.392628 
L 390.644494 54.210023 
L 394.657079 56.784817 
L 398.669663 53.568 
L 402.682247 54.786997 
L 406.694831 56.182584 
L 410.707416 67.404591 
" style="fill:none;stroke:#0000ff;stroke-dasharray:1.5,2.475;stroke-dashoffset:0;stroke-width:1.5;"/>
    <defs>
     <path d="M 0 1.5 
C 0.397805 1.5 0.77937 1.341951 1.06066 1.06066 
C 1.341951 0.77937 1.5 0.397805 1.5 0 
C 1.5 -0.397805 1.341951 -0.77937 1.06066 -1.06066 
C 0.77937 -1.341951 0.397805 -1.5 0 -1.5 
C -0.397805 -1.5 -0.77937 -1.341951 -1.06066 -1.06066 
C -1.341951 -0.77937 -1.5 -0.397805 -1.5 0 
C -1.5 0.397805 -1.341951 0.77937 -1.06066 1.06066 
C -0.77937 1.341951 -0.397805 1.5 0 1.5 
z
" id="m3a7221fb67" style="stroke:#0000ff;"/>
    </defs>
    <g clip-path="url(#pcfac7e4e8b)">
     <use style="fill:#0000ff;stroke:#0000ff;" x="61.612584" xlink:href="#m3a7221fb67" y="88.63403"/>
     <use style="fill:#0000ff;stroke:#0000ff;" x="65.625169" xlink:href="#m3a7221fb67" y="195.627689"/>
     <use style="fill:#0000ff;stroke:#0000ff;" x="69.637753" xlink:href="#m3a7221fb67" y="231.607574"/>
     <use style="fill:#0000ff;stroke:#0000ff;" x="73.650337" xlink:href="#m3a7221fb67" y="252.159811"/>
     <use style="fill:#0000ff;stroke:#0000ff;" x="77.662921" xlink:href="#m3a7221fb67" y="264.294908"/>
     <use style="fill:#0000ff;stroke:#0000ff;" x="81.675506" xlink:href="#m3a7221fb67" y="270.202603"/>
     <use style="fill:#0000ff;stroke:#0000ff;" x="85.68809" xlink:href="#m3a7221fb67" y="275.787399"/>
     <use style="fill:#0000ff;stroke:#0000ff;" x="89.700674" xlink:href="#m3a7221fb67" y="279.690832"/>
     <use style="fill:#0000ff;stroke:#0000ff;" x="93.713258" xlink:href="#m3a7221fb67" y="281.886927"/>
     <use style="fill:#0000ff;stroke:#0000ff;" x="97.725843" xlink:href="#m3a7221fb67" y="284.569542"/>
     <use style="fill:#0000ff;stroke:#0000ff;" x="101.738427" xlink:href="#m3a7221fb67" y="285.619827"/>
     <use style="fill:#0000ff;stroke:#0000ff;" x="105.751011" xlink:href="#m3a7221fb67" y="288.818513"/>
     <use style="fill:#0000ff;stroke:#0000ff;" x="109.763596" xlink:href="#m3a7221fb67" y="287.735549"/>
     <use style="fill:#0000ff;stroke:#0000ff;" x="113.77618" xlink:href="#m3a7221fb67" y="290.428331"/>
     <use style="fill:#0000ff;stroke:#0000ff;" x="117.788764" xlink:href="#m3a7221fb67" y="289.707169"/>
     <use style="fill:#0000ff;stroke:#0000ff;" x="121.801348" xlink:href="#m3a7221fb67" y="289.587906"/>
     <use style="fill:#0000ff;stroke:#0000ff;" x="125.813933" xlink:href="#m3a7221fb67" y="290.66245"/>
     <use style="fill:#0000ff;stroke:#0000ff;" x="129.826517" xlink:href="#m3a7221fb67" y="291.463458"/>
     <use style="fill:#0000ff;stroke:#0000ff;" x="133.839101" xlink:href="#m3a7221fb67" y="290.362607"/>
     <use style="fill:#0000ff;stroke:#0000ff;" x="137.851685" xlink:href="#m3a7221fb67" y="291.229307"/>
     <use style="fill:#0000ff;stroke:#0000ff;" x="141.86427" xlink:href="#m3a7221fb67" y="292.696056"/>
     <use style="fill:#0000ff;stroke:#0000ff;" x="145.876854" xlink:href="#m3a7221fb67" y="290.975752"/>
     <use style="fill:#0000ff;stroke:#0000ff;" x="149.889438" xlink:href="#m3a7221fb67" y="291.467913"/>
     <use style="fill:#0000ff;stroke:#0000ff;" x="153.902022" xlink:href="#m3a7221fb67" y="292.857937"/>
     <use style="fill:#0000ff;stroke:#0000ff;" x="157.914607" xlink:href="#m3a7221fb67" y="292.736331"/>
     <use style="fill:#0000ff;stroke:#0000ff;" x="161.927191" xlink:href="#m3a7221fb67" y="293.415595"/>
     <use style="fill:#0000ff;stroke:#0000ff;" x="165.939775" xlink:href="#m3a7221fb67" y="292.901701"/>
     <use style="fill:#0000ff;stroke:#0000ff;" x="169.95236" xlink:href="#m3a7221fb67" y="293.325084"/>
     <use style="fill:#0000ff;stroke:#0000ff;" x="173.964944" xlink:href="#m3a7221fb67" y="293.321687"/>
     <use style="fill:#0000ff;stroke:#0000ff;" x="177.977528" xlink:href="#m3a7221fb67" y="294.068502"/>
     <use style="fill:#0000ff;stroke:#0000ff;" x="181.990112" xlink:href="#m3a7221fb67" y="294.362812"/>
     <use style="fill:#0000ff;stroke:#0000ff;" x="186.002697" xlink:href="#m3a7221fb67" y="295.488"/>
     <use style="fill:#0000ff;stroke:#0000ff;" x="190.015281" xlink:href="#m3a7221fb67" y="293.675241"/>
     <use style="fill:#0000ff;stroke:#0000ff;" x="194.027865" xlink:href="#m3a7221fb67" y="294.962596"/>
     <use style="fill:#0000ff;stroke:#0000ff;" x="198.040449" xlink:href="#m3a7221fb67" y="294.557447"/>
     <use style="fill:#0000ff;stroke:#0000ff;" x="202.053034" xlink:href="#m3a7221fb67" y="295.291976"/>
     <use style="fill:#0000ff;stroke:#0000ff;" x="206.065618" xlink:href="#m3a7221fb67" y="295.098556"/>
     <use style="fill:#0000ff;stroke:#0000ff;" x="210.078202" xlink:href="#m3a7221fb67" y="295.134407"/>
     <use style="fill:#0000ff;stroke:#0000ff;" x="214.090787" xlink:href="#m3a7221fb67" y="294.378125"/>
     <use style="fill:#0000ff;stroke:#0000ff;" x="218.103371" xlink:href="#m3a7221fb67" y="293.610551"/>
     <use style="fill:#0000ff;stroke:#0000ff;" x="222.115955" xlink:href="#m3a7221fb67" y="294.957599"/>
     <use style="fill:#0000ff;stroke:#0000ff;" x="226.128539" xlink:href="#m3a7221fb67" y="295.341399"/>
     <use style="fill:#0000ff;stroke:#0000ff;" x="230.141124" xlink:href="#m3a7221fb67" y="294.355069"/>
     <use style="fill:#0000ff;stroke:#0000ff;" x="234.153708" xlink:href="#m3a7221fb67" y="294.351041"/>
     <use style="fill:#0000ff;stroke:#0000ff;" x="238.166292" xlink:href="#m3a7221fb67" y="295.261401"/>
     <use style="fill:#0000ff;stroke:#0000ff;" x="242.178876" xlink:href="#m3a7221fb67" y="295.061261"/>
     <use style="fill:#0000ff;stroke:#0000ff;" x="246.191461" xlink:href="#m3a7221fb67" y="293.474649"/>
     <use style="fill:#0000ff;stroke:#0000ff;" x="250.204045" xlink:href="#m3a7221fb67" y="294.107999"/>
     <use style="fill:#0000ff;stroke:#0000ff;" x="254.216629" xlink:href="#m3a7221fb67" y="292.669595"/>
     <use style="fill:#0000ff;stroke:#0000ff;" x="258.229213" xlink:href="#m3a7221fb67" y="294.134645"/>
     <use style="fill:#0000ff;stroke:#0000ff;" x="262.241798" xlink:href="#m3a7221fb67" y="293.005284"/>
     <use style="fill:#0000ff;stroke:#0000ff;" x="266.254382" xlink:href="#m3a7221fb67" y="293.356344"/>
     <use style="fill:#0000ff;stroke:#0000ff;" x="270.266966" xlink:href="#m3a7221fb67" y="293.22503"/>
     <use style="fill:#0000ff;stroke:#0000ff;" x="274.279551" xlink:href="#m3a7221fb67" y="292.598047"/>
     <use style="fill:#0000ff;stroke:#0000ff;" x="278.292135" xlink:href="#m3a7221fb67" y="294.193567"/>
     <use style="fill:#0000ff;stroke:#0000ff;" x="282.304719" xlink:href="#m3a7221fb67" y="292.686146"/>
     <use style="fill:#0000ff;stroke:#0000ff;" x="286.317303" xlink:href="#m3a7221fb67" y="294.050323"/>
     <use style="fill:#0000ff;stroke:#0000ff;" x="290.329888" xlink:href="#m3a7221fb67" y="293.32439"/>
     <use style="fill:#0000ff;stroke:#0000ff;" x="294.342472" xlink:href="#m3a7221fb67" y="291.9947"/>
     <use style="fill:#0000ff;stroke:#0000ff;" x="298.355056" xlink:href="#m3a7221fb67" y="292.572582"/>
     <use style="fill:#0000ff;stroke:#0000ff;" x="302.36764" xlink:href="#m3a7221fb67" y="291.991712"/>
     <use style="fill:#0000ff;stroke:#0000ff;" x="306.380225" xlink:href="#m3a7221fb67" y="291.509336"/>
     <use style="fill:#0000ff;stroke:#0000ff;" x="310.392809" xlink:href="#m3a7221fb67" y="292.05085"/>
     <use style="fill:#0000ff;stroke:#0000ff;" x="314.405393" xlink:href="#m3a7221fb67" y="292.29994"/>
     <use style="fill:#0000ff;stroke:#0000ff;" x="318.417978" xlink:href="#m3a7221fb67" y="290.816726"/>
     <use style="fill:#0000ff;stroke:#0000ff;" x="322.430562" xlink:href="#m3a7221fb67" y="292.489716"/>
     <use style="fill:#0000ff;stroke:#0000ff;" x="326.443146" xlink:href="#m3a7221fb67" y="292.52606"/>
     <use style="fill:#0000ff;stroke:#0000ff;" x="330.45573" xlink:href="#m3a7221fb67" y="289.519668"/>
     <use style="fill:#0000ff;stroke:#0000ff;" x="334.468315" xlink:href="#m3a7221fb67" y="293.602987"/>
     <use style="fill:#0000ff;stroke:#0000ff;" x="338.480899" xlink:href="#m3a7221fb67" y="291.954358"/>
     <use style="fill:#0000ff;stroke:#0000ff;" x="342.493483" xlink:href="#m3a7221fb67" y="290.103283"/>
     <use style="fill:#0000ff;stroke:#0000ff;" x="346.506067" xlink:href="#m3a7221fb67" y="291.962636"/>
     <use style="fill:#0000ff;stroke:#0000ff;" x="350.518652" xlink:href="#m3a7221fb67" y="292.449654"/>
     <use style="fill:#0000ff;stroke:#0000ff;" x="354.531236" xlink:href="#m3a7221fb67" y="290.943816"/>
     <use style="fill:#0000ff;stroke:#0000ff;" x="358.54382" xlink:href="#m3a7221fb67" y="290.706461"/>
     <use style="fill:#0000ff;stroke:#0000ff;" x="362.556404" xlink:href="#m3a7221fb67" y="287.863337"/>
     <use style="fill:#0000ff;stroke:#0000ff;" x="366.568989" xlink:href="#m3a7221fb67" y="288.440499"/>
     <use style="fill:#0000ff;stroke:#0000ff;" x="370.581573" xlink:href="#m3a7221fb67" y="289.387667"/>
     <use style="fill:#0000ff;stroke:#0000ff;" x="374.594157" xlink:href="#m3a7221fb67" y="291.244766"/>
     <use style="fill:#0000ff;stroke:#0000ff;" x="378.606742" xlink:href="#m3a7221fb67" y="289.727383"/>
     <use style="fill:#0000ff;stroke:#0000ff;" x="382.619326" xlink:href="#m3a7221fb67" y="291.649114"/>
     <use style="fill:#0000ff;stroke:#0000ff;" x="386.63191" xlink:href="#m3a7221fb67" y="290.392628"/>
     <use style="fill:#0000ff;stroke:#0000ff;" x="390.644494" xlink:href="#m3a7221fb67" y="54.210023"/>
     <use style="fill:#0000ff;stroke:#0000ff;" x="394.657079" xlink:href="#m3a7221fb67" y="56.784817"/>
     <use style="fill:#0000ff;stroke:#0000ff;" x="398.669663" xlink:href="#m3a7221fb67" y="53.568"/>
     <use style="fill:#0000ff;stroke:#0000ff;" x="402.682247" xlink:href="#m3a7221fb67" y="54.786997"/>
     <use style="fill:#0000ff;stroke:#0000ff;" x="406.694831" xlink:href="#m3a7221fb67" y="56.182584"/>
     <use style="fill:#0000ff;stroke:#0000ff;" x="410.707416" xlink:href="#m3a7221fb67" y="67.404591"/>
    </g>
   </g>
   <g id="patch_8">
    <path d="M 57.6 307.584 
L 57.6 41.472 
" style="fill:none;stroke:#000000;stroke-linecap:square;stroke-linejoin:miter;stroke-width:0.8;"/>
   </g>
   <g id="patch_9">
    <path d="M 414.72 307.584 
L 414.72 41.472 
" style="fill:none;stroke:#000000;stroke-linecap:square;stroke-linejoin:miter;stroke-width:0.8;"/>
   </g>
   <g id="patch_10">
    <path d="M 57.6 307.584 
L 414.72 307.584 
" style="fill:none;stroke:#000000;stroke-linecap:square;stroke-linejoin:miter;stroke-width:0.8;"/>
   </g>
   <g id="patch_11">
    <path d="M 57.6 41.472 
L 414.72 41.472 
" style="fill:none;stroke:#000000;stroke-linecap:square;stroke-linejoin:miter;stroke-width:0.8;"/>
   </g>
  </g>
 </g>
 <defs>
  <clipPath id="pcfac7e4e8b">
   <rect height="266.112" width="357.12" x="57.6" y="41.472"/>
  </clipPath>
 </defs>
</svg>
