<?xml version="1.0" encoding="utf-8" standalone="no"?>
<!DOCTYPE svg PUBLIC "-//W3C//DTD SVG 1.1//EN"
  "http://www.w3.org/Graphics/SVG/1.1/DTD/svg11.dtd">
<!-- Created with matplotlib (https://matplotlib.org/) -->
<svg height="345.6pt" version="1.1" viewBox="0 0 460.8 345.6" width="460.8pt" xmlns="http://www.w3.org/2000/svg" xmlns:xlink="http://www.w3.org/1999/xlink">
 <metadata>
  <rdf:RDF xmlns:cc="http://creativecommons.org/ns#" xmlns:dc="http://purl.org/dc/elements/1.1/" xmlns:rdf="http://www.w3.org/1999/02/22-rdf-syntax-ns#">
   <cc:Work>
    <dc:type rdf:resource="http://purl.org/dc/dcmitype/StillImage"/>
    <dc:date>2020-08-19T18:21:45.056797</dc:date>
    <dc:format>image/svg+xml</dc:format>
    <dc:creator>
     <cc:Agent>
      <dc:title>Matplotlib v3.3.0, https://matplotlib.org/</dc:title>
     </cc:Agent>
    </dc:creator>
   </cc:Work>
  </rdf:RDF>
 </metadata>
 <defs>
  <style type="text/css">*{stroke-linecap:butt;stroke-linejoin:round;}</style>
 </defs>
 <g id="figure_1">
  <g id="patch_1">
   <path d="M 0 345.6 
L 460.8 345.6 
L 460.8 0 
L 0 0 
z
" style="fill:#ffffff;"/>
  </g>
  <g id="axes_1">
   <g id="patch_2">
    <path d="M 57.6 307.584 
L 414.72 307.584 
L 414.72 41.472 
L 57.6 41.472 
z
" style="fill:#ffffff;"/>
   </g>
   <g id="matplotlib.axis_1">
    <g id="xtick_1">
     <g id="line2d_1">
      <path clip-path="url(#pd78def79f6)" d="M 61.612584 307.584 
L 61.612584 41.472 
" style="fill:none;stroke:#b0b0b0;stroke-dasharray:5.12,1.28,0.8,1.28;stroke-dashoffset:0;stroke-width:0.8;"/>
     </g>
     <g id="line2d_2">
      <defs>
       <path d="M 0 0 
L 0 3.5 
" id="m32f3175201" style="stroke:#000000;stroke-width:0.8;"/>
      </defs>
      <g>
       <use style="stroke:#000000;stroke-width:0.8;" x="61.612584" xlink:href="#m32f3175201" y="307.584"/>
      </g>
     </g>
     <g id="text_1">
      <!-- 1 -->
      <g transform="translate(58.431334 322.182437)scale(0.1 -0.1)">
       <defs>
        <path d="M 12.40625 8.296875 
L 28.515625 8.296875 
L 28.515625 63.921875 
L 10.984375 60.40625 
L 10.984375 69.390625 
L 28.421875 72.90625 
L 38.28125 72.90625 
L 38.28125 8.296875 
L 54.390625 8.296875 
L 54.390625 0 
L 12.40625 0 
z
" id="DejaVuSans-49"/>
       </defs>
       <use xlink:href="#DejaVuSans-49"/>
      </g>
     </g>
    </g>
    <g id="xtick_2">
     <g id="line2d_3">
      <path clip-path="url(#pd78def79f6)" d="M 73.650337 307.584 
L 73.650337 41.472 
" style="fill:none;stroke:#b0b0b0;stroke-dasharray:5.12,1.28,0.8,1.28;stroke-dashoffset:0;stroke-width:0.8;"/>
     </g>
     <g id="line2d_4">
      <g>
       <use style="stroke:#000000;stroke-width:0.8;" x="73.650337" xlink:href="#m32f3175201" y="307.584"/>
      </g>
     </g>
     <g id="text_2">
      <!-- 4 -->
      <g transform="translate(70.469087 322.182437)scale(0.1 -0.1)">
       <defs>
        <path d="M 37.796875 64.3125 
L 12.890625 25.390625 
L 37.796875 25.390625 
z
M 35.203125 72.90625 
L 47.609375 72.90625 
L 47.609375 25.390625 
L 58.015625 25.390625 
L 58.015625 17.1875 
L 47.609375 17.1875 
L 47.609375 0 
L 37.796875 0 
L 37.796875 17.1875 
L 4.890625 17.1875 
L 4.890625 26.703125 
z
" id="DejaVuSans-52"/>
       </defs>
       <use xlink:href="#DejaVuSans-52"/>
      </g>
     </g>
    </g>
    <g id="xtick_3">
     <g id="line2d_5">
      <path clip-path="url(#pd78def79f6)" d="M 89.700674 307.584 
L 89.700674 41.472 
" style="fill:none;stroke:#b0b0b0;stroke-dasharray:5.12,1.28,0.8,1.28;stroke-dashoffset:0;stroke-width:0.8;"/>
     </g>
     <g id="line2d_6">
      <g>
       <use style="stroke:#000000;stroke-width:0.8;" x="89.700674" xlink:href="#m32f3175201" y="307.584"/>
      </g>
     </g>
     <g id="text_3">
      <!-- 8 -->
      <g transform="translate(86.519424 322.182437)scale(0.1 -0.1)">
       <defs>
        <path d="M 31.78125 34.625 
Q 24.75 34.625 20.71875 30.859375 
Q 16.703125 27.09375 16.703125 20.515625 
Q 16.703125 13.921875 20.71875 10.15625 
Q 24.75 6.390625 31.78125 6.390625 
Q 38.8125 6.390625 42.859375 10.171875 
Q 46.921875 13.96875 46.921875 20.515625 
Q 46.921875 27.09375 42.890625 30.859375 
Q 38.875 34.625 31.78125 34.625 
z
M 21.921875 38.8125 
Q 15.578125 40.375 12.03125 44.71875 
Q 8.5 49.078125 8.5 55.328125 
Q 8.5 64.0625 14.71875 69.140625 
Q 20.953125 74.21875 31.78125 74.21875 
Q 42.671875 74.21875 48.875 69.140625 
Q 55.078125 64.0625 55.078125 55.328125 
Q 55.078125 49.078125 51.53125 44.71875 
Q 48 40.375 41.703125 38.8125 
Q 48.828125 37.15625 52.796875 32.3125 
Q 56.78125 27.484375 56.78125 20.515625 
Q 56.78125 9.90625 50.3125 4.234375 
Q 43.84375 -1.421875 31.78125 -1.421875 
Q 19.734375 -1.421875 13.25 4.234375 
Q 6.78125 9.90625 6.78125 20.515625 
Q 6.78125 27.484375 10.78125 32.3125 
Q 14.796875 37.15625 21.921875 38.8125 
z
M 18.3125 54.390625 
Q 18.3125 48.734375 21.84375 45.5625 
Q 25.390625 42.390625 31.78125 42.390625 
Q 38.140625 42.390625 41.71875 45.5625 
Q 45.3125 48.734375 45.3125 54.390625 
Q 45.3125 60.0625 41.71875 63.234375 
Q 38.140625 66.40625 31.78125 66.40625 
Q 25.390625 66.40625 21.84375 63.234375 
Q 18.3125 60.0625 18.3125 54.390625 
z
" id="DejaVuSans-56"/>
       </defs>
       <use xlink:href="#DejaVuSans-56"/>
      </g>
     </g>
    </g>
    <g id="xtick_4">
     <g id="line2d_7">
      <path clip-path="url(#pd78def79f6)" d="M 105.751011 307.584 
L 105.751011 41.472 
" style="fill:none;stroke:#b0b0b0;stroke-dasharray:5.12,1.28,0.8,1.28;stroke-dashoffset:0;stroke-width:0.8;"/>
     </g>
     <g id="line2d_8">
      <g>
       <use style="stroke:#000000;stroke-width:0.8;" x="105.751011" xlink:href="#m32f3175201" y="307.584"/>
      </g>
     </g>
     <g id="text_4">
      <!-- 12 -->
      <g transform="translate(99.388511 322.182437)scale(0.1 -0.1)">
       <defs>
        <path d="M 19.1875 8.296875 
L 53.609375 8.296875 
L 53.609375 0 
L 7.328125 0 
L 7.328125 8.296875 
Q 12.9375 14.109375 22.625 23.890625 
Q 32.328125 33.6875 34.8125 36.53125 
Q 39.546875 41.84375 41.421875 45.53125 
Q 43.3125 49.21875 43.3125 52.78125 
Q 43.3125 58.59375 39.234375 62.25 
Q 35.15625 65.921875 28.609375 65.921875 
Q 23.96875 65.921875 18.8125 64.3125 
Q 13.671875 62.703125 7.8125 59.421875 
L 7.8125 69.390625 
Q 13.765625 71.78125 18.9375 73 
Q 24.125 74.21875 28.421875 74.21875 
Q 39.75 74.21875 46.484375 68.546875 
Q 53.21875 62.890625 53.21875 53.421875 
Q 53.21875 48.921875 51.53125 44.890625 
Q 49.859375 40.875 45.40625 35.40625 
Q 44.1875 33.984375 37.640625 27.21875 
Q 31.109375 20.453125 19.1875 8.296875 
z
" id="DejaVuSans-50"/>
       </defs>
       <use xlink:href="#DejaVuSans-49"/>
       <use x="63.623047" xlink:href="#DejaVuSans-50"/>
      </g>
     </g>
    </g>
    <g id="xtick_5">
     <g id="line2d_9">
      <path clip-path="url(#pd78def79f6)" d="M 121.801348 307.584 
L 121.801348 41.472 
" style="fill:none;stroke:#b0b0b0;stroke-dasharray:5.12,1.28,0.8,1.28;stroke-dashoffset:0;stroke-width:0.8;"/>
     </g>
     <g id="line2d_10">
      <g>
       <use style="stroke:#000000;stroke-width:0.8;" x="121.801348" xlink:href="#m32f3175201" y="307.584"/>
      </g>
     </g>
     <g id="text_5">
      <!-- 16 -->
      <g transform="translate(115.438848 322.182437)scale(0.1 -0.1)">
       <defs>
        <path d="M 33.015625 40.375 
Q 26.375 40.375 22.484375 35.828125 
Q 18.609375 31.296875 18.609375 23.390625 
Q 18.609375 15.53125 22.484375 10.953125 
Q 26.375 6.390625 33.015625 6.390625 
Q 39.65625 6.390625 43.53125 10.953125 
Q 47.40625 15.53125 47.40625 23.390625 
Q 47.40625 31.296875 43.53125 35.828125 
Q 39.65625 40.375 33.015625 40.375 
z
M 52.59375 71.296875 
L 52.59375 62.3125 
Q 48.875 64.0625 45.09375 64.984375 
Q 41.3125 65.921875 37.59375 65.921875 
Q 27.828125 65.921875 22.671875 59.328125 
Q 17.53125 52.734375 16.796875 39.40625 
Q 19.671875 43.65625 24.015625 45.921875 
Q 28.375 48.1875 33.59375 48.1875 
Q 44.578125 48.1875 50.953125 41.515625 
Q 57.328125 34.859375 57.328125 23.390625 
Q 57.328125 12.15625 50.6875 5.359375 
Q 44.046875 -1.421875 33.015625 -1.421875 
Q 20.359375 -1.421875 13.671875 8.265625 
Q 6.984375 17.96875 6.984375 36.375 
Q 6.984375 53.65625 15.1875 63.9375 
Q 23.390625 74.21875 37.203125 74.21875 
Q 40.921875 74.21875 44.703125 73.484375 
Q 48.484375 72.75 52.59375 71.296875 
z
" id="DejaVuSans-54"/>
       </defs>
       <use xlink:href="#DejaVuSans-49"/>
       <use x="63.623047" xlink:href="#DejaVuSans-54"/>
      </g>
     </g>
    </g>
    <g id="xtick_6">
     <g id="line2d_11">
      <path clip-path="url(#pd78def79f6)" d="M 137.851685 307.584 
L 137.851685 41.472 
" style="fill:none;stroke:#b0b0b0;stroke-dasharray:5.12,1.28,0.8,1.28;stroke-dashoffset:0;stroke-width:0.8;"/>
     </g>
     <g id="line2d_12">
      <g>
       <use style="stroke:#000000;stroke-width:0.8;" x="137.851685" xlink:href="#m32f3175201" y="307.584"/>
      </g>
     </g>
     <g id="text_6">
      <!-- 20 -->
      <g transform="translate(131.489185 322.182437)scale(0.1 -0.1)">
       <defs>
        <path d="M 31.78125 66.40625 
Q 24.171875 66.40625 20.328125 58.90625 
Q 16.5 51.421875 16.5 36.375 
Q 16.5 21.390625 20.328125 13.890625 
Q 24.171875 6.390625 31.78125 6.390625 
Q 39.453125 6.390625 43.28125 13.890625 
Q 47.125 21.390625 47.125 36.375 
Q 47.125 51.421875 43.28125 58.90625 
Q 39.453125 66.40625 31.78125 66.40625 
z
M 31.78125 74.21875 
Q 44.046875 74.21875 50.515625 64.515625 
Q 56.984375 54.828125 56.984375 36.375 
Q 56.984375 17.96875 50.515625 8.265625 
Q 44.046875 -1.421875 31.78125 -1.421875 
Q 19.53125 -1.421875 13.0625 8.265625 
Q 6.59375 17.96875 6.59375 36.375 
Q 6.59375 54.828125 13.0625 64.515625 
Q 19.53125 74.21875 31.78125 74.21875 
z
" id="DejaVuSans-48"/>
       </defs>
       <use xlink:href="#DejaVuSans-50"/>
       <use x="63.623047" xlink:href="#DejaVuSans-48"/>
      </g>
     </g>
    </g>
    <g id="xtick_7">
     <g id="line2d_13">
      <path clip-path="url(#pd78def79f6)" d="M 153.902022 307.584 
L 153.902022 41.472 
" style="fill:none;stroke:#b0b0b0;stroke-dasharray:5.12,1.28,0.8,1.28;stroke-dashoffset:0;stroke-width:0.8;"/>
     </g>
     <g id="line2d_14">
      <g>
       <use style="stroke:#000000;stroke-width:0.8;" x="153.902022" xlink:href="#m32f3175201" y="307.584"/>
      </g>
     </g>
     <g id="text_7">
      <!-- 24 -->
      <g transform="translate(147.539522 322.182437)scale(0.1 -0.1)">
       <use xlink:href="#DejaVuSans-50"/>
       <use x="63.623047" xlink:href="#DejaVuSans-52"/>
      </g>
     </g>
    </g>
    <g id="xtick_8">
     <g id="line2d_15">
      <path clip-path="url(#pd78def79f6)" d="M 169.95236 307.584 
L 169.95236 41.472 
" style="fill:none;stroke:#b0b0b0;stroke-dasharray:5.12,1.28,0.8,1.28;stroke-dashoffset:0;stroke-width:0.8;"/>
     </g>
     <g id="line2d_16">
      <g>
       <use style="stroke:#000000;stroke-width:0.8;" x="169.95236" xlink:href="#m32f3175201" y="307.584"/>
      </g>
     </g>
     <g id="text_8">
      <!-- 28 -->
      <g transform="translate(163.58986 322.182437)scale(0.1 -0.1)">
       <use xlink:href="#DejaVuSans-50"/>
       <use x="63.623047" xlink:href="#DejaVuSans-56"/>
      </g>
     </g>
    </g>
    <g id="xtick_9">
     <g id="line2d_17">
      <path clip-path="url(#pd78def79f6)" d="M 186.002697 307.584 
L 186.002697 41.472 
" style="fill:none;stroke:#b0b0b0;stroke-dasharray:5.12,1.28,0.8,1.28;stroke-dashoffset:0;stroke-width:0.8;"/>
     </g>
     <g id="line2d_18">
      <g>
       <use style="stroke:#000000;stroke-width:0.8;" x="186.002697" xlink:href="#m32f3175201" y="307.584"/>
      </g>
     </g>
     <g id="text_9">
      <!-- 32 -->
      <g transform="translate(179.640197 322.182437)scale(0.1 -0.1)">
       <defs>
        <path d="M 40.578125 39.3125 
Q 47.65625 37.796875 51.625 33 
Q 55.609375 28.21875 55.609375 21.1875 
Q 55.609375 10.40625 48.1875 4.484375 
Q 40.765625 -1.421875 27.09375 -1.421875 
Q 22.515625 -1.421875 17.65625 -0.515625 
Q 12.796875 0.390625 7.625 2.203125 
L 7.625 11.71875 
Q 11.71875 9.328125 16.59375 8.109375 
Q 21.484375 6.890625 26.8125 6.890625 
Q 36.078125 6.890625 40.9375 10.546875 
Q 45.796875 14.203125 45.796875 21.1875 
Q 45.796875 27.640625 41.28125 31.265625 
Q 36.765625 34.90625 28.71875 34.90625 
L 20.21875 34.90625 
L 20.21875 43.015625 
L 29.109375 43.015625 
Q 36.375 43.015625 40.234375 45.921875 
Q 44.09375 48.828125 44.09375 54.296875 
Q 44.09375 59.90625 40.109375 62.90625 
Q 36.140625 65.921875 28.71875 65.921875 
Q 24.65625 65.921875 20.015625 65.03125 
Q 15.375 64.15625 9.8125 62.3125 
L 9.8125 71.09375 
Q 15.4375 72.65625 20.34375 73.4375 
Q 25.25 74.21875 29.59375 74.21875 
Q 40.828125 74.21875 47.359375 69.109375 
Q 53.90625 64.015625 53.90625 55.328125 
Q 53.90625 49.265625 50.4375 45.09375 
Q 46.96875 40.921875 40.578125 39.3125 
z
" id="DejaVuSans-51"/>
       </defs>
       <use xlink:href="#DejaVuSans-51"/>
       <use x="63.623047" xlink:href="#DejaVuSans-50"/>
      </g>
     </g>
    </g>
    <g id="xtick_10">
     <g id="line2d_19">
      <path clip-path="url(#pd78def79f6)" d="M 202.053034 307.584 
L 202.053034 41.472 
" style="fill:none;stroke:#b0b0b0;stroke-dasharray:5.12,1.28,0.8,1.28;stroke-dashoffset:0;stroke-width:0.8;"/>
     </g>
     <g id="line2d_20">
      <g>
       <use style="stroke:#000000;stroke-width:0.8;" x="202.053034" xlink:href="#m32f3175201" y="307.584"/>
      </g>
     </g>
     <g id="text_10">
      <!-- 36 -->
      <g transform="translate(195.690534 322.182437)scale(0.1 -0.1)">
       <use xlink:href="#DejaVuSans-51"/>
       <use x="63.623047" xlink:href="#DejaVuSans-54"/>
      </g>
     </g>
    </g>
    <g id="xtick_11">
     <g id="line2d_21">
      <path clip-path="url(#pd78def79f6)" d="M 218.103371 307.584 
L 218.103371 41.472 
" style="fill:none;stroke:#b0b0b0;stroke-dasharray:5.12,1.28,0.8,1.28;stroke-dashoffset:0;stroke-width:0.8;"/>
     </g>
     <g id="line2d_22">
      <g>
       <use style="stroke:#000000;stroke-width:0.8;" x="218.103371" xlink:href="#m32f3175201" y="307.584"/>
      </g>
     </g>
     <g id="text_11">
      <!-- 40 -->
      <g transform="translate(211.740871 322.182437)scale(0.1 -0.1)">
       <use xlink:href="#DejaVuSans-52"/>
       <use x="63.623047" xlink:href="#DejaVuSans-48"/>
      </g>
     </g>
    </g>
    <g id="xtick_12">
     <g id="line2d_23">
      <path clip-path="url(#pd78def79f6)" d="M 234.153708 307.584 
L 234.153708 41.472 
" style="fill:none;stroke:#b0b0b0;stroke-dasharray:5.12,1.28,0.8,1.28;stroke-dashoffset:0;stroke-width:0.8;"/>
     </g>
     <g id="line2d_24">
      <g>
       <use style="stroke:#000000;stroke-width:0.8;" x="234.153708" xlink:href="#m32f3175201" y="307.584"/>
      </g>
     </g>
     <g id="text_12">
      <!-- 44 -->
      <g transform="translate(227.791208 322.182437)scale(0.1 -0.1)">
       <use xlink:href="#DejaVuSans-52"/>
       <use x="63.623047" xlink:href="#DejaVuSans-52"/>
      </g>
     </g>
    </g>
    <g id="xtick_13">
     <g id="line2d_25">
      <path clip-path="url(#pd78def79f6)" d="M 250.204045 307.584 
L 250.204045 41.472 
" style="fill:none;stroke:#b0b0b0;stroke-dasharray:5.12,1.28,0.8,1.28;stroke-dashoffset:0;stroke-width:0.8;"/>
     </g>
     <g id="line2d_26">
      <g>
       <use style="stroke:#000000;stroke-width:0.8;" x="250.204045" xlink:href="#m32f3175201" y="307.584"/>
      </g>
     </g>
     <g id="text_13">
      <!-- 48 -->
      <g transform="translate(243.841545 322.182437)scale(0.1 -0.1)">
       <use xlink:href="#DejaVuSans-52"/>
       <use x="63.623047" xlink:href="#DejaVuSans-56"/>
      </g>
     </g>
    </g>
    <g id="xtick_14">
     <g id="line2d_27">
      <path clip-path="url(#pd78def79f6)" d="M 266.254382 307.584 
L 266.254382 41.472 
" style="fill:none;stroke:#b0b0b0;stroke-dasharray:5.12,1.28,0.8,1.28;stroke-dashoffset:0;stroke-width:0.8;"/>
     </g>
     <g id="line2d_28">
      <g>
       <use style="stroke:#000000;stroke-width:0.8;" x="266.254382" xlink:href="#m32f3175201" y="307.584"/>
      </g>
     </g>
     <g id="text_14">
      <!-- 52 -->
      <g transform="translate(259.891882 322.182437)scale(0.1 -0.1)">
       <defs>
        <path d="M 10.796875 72.90625 
L 49.515625 72.90625 
L 49.515625 64.59375 
L 19.828125 64.59375 
L 19.828125 46.734375 
Q 21.96875 47.46875 24.109375 47.828125 
Q 26.265625 48.1875 28.421875 48.1875 
Q 40.625 48.1875 47.75 41.5 
Q 54.890625 34.8125 54.890625 23.390625 
Q 54.890625 11.625 47.5625 5.09375 
Q 40.234375 -1.421875 26.90625 -1.421875 
Q 22.3125 -1.421875 17.546875 -0.640625 
Q 12.796875 0.140625 7.71875 1.703125 
L 7.71875 11.625 
Q 12.109375 9.234375 16.796875 8.0625 
Q 21.484375 6.890625 26.703125 6.890625 
Q 35.15625 6.890625 40.078125 11.328125 
Q 45.015625 15.765625 45.015625 23.390625 
Q 45.015625 31 40.078125 35.4375 
Q 35.15625 39.890625 26.703125 39.890625 
Q 22.75 39.890625 18.8125 39.015625 
Q 14.890625 38.140625 10.796875 36.28125 
z
" id="DejaVuSans-53"/>
       </defs>
       <use xlink:href="#DejaVuSans-53"/>
       <use x="63.623047" xlink:href="#DejaVuSans-50"/>
      </g>
     </g>
    </g>
    <g id="xtick_15">
     <g id="line2d_29">
      <path clip-path="url(#pd78def79f6)" d="M 282.304719 307.584 
L 282.304719 41.472 
" style="fill:none;stroke:#b0b0b0;stroke-dasharray:5.12,1.28,0.8,1.28;stroke-dashoffset:0;stroke-width:0.8;"/>
     </g>
     <g id="line2d_30">
      <g>
       <use style="stroke:#000000;stroke-width:0.8;" x="282.304719" xlink:href="#m32f3175201" y="307.584"/>
      </g>
     </g>
     <g id="text_15">
      <!-- 56 -->
      <g transform="translate(275.942219 322.182437)scale(0.1 -0.1)">
       <use xlink:href="#DejaVuSans-53"/>
       <use x="63.623047" xlink:href="#DejaVuSans-54"/>
      </g>
     </g>
    </g>
    <g id="xtick_16">
     <g id="line2d_31">
      <path clip-path="url(#pd78def79f6)" d="M 298.355056 307.584 
L 298.355056 41.472 
" style="fill:none;stroke:#b0b0b0;stroke-dasharray:5.12,1.28,0.8,1.28;stroke-dashoffset:0;stroke-width:0.8;"/>
     </g>
     <g id="line2d_32">
      <g>
       <use style="stroke:#000000;stroke-width:0.8;" x="298.355056" xlink:href="#m32f3175201" y="307.584"/>
      </g>
     </g>
     <g id="text_16">
      <!-- 60 -->
      <g transform="translate(291.992556 322.182437)scale(0.1 -0.1)">
       <use xlink:href="#DejaVuSans-54"/>
       <use x="63.623047" xlink:href="#DejaVuSans-48"/>
      </g>
     </g>
    </g>
    <g id="xtick_17">
     <g id="line2d_33">
      <path clip-path="url(#pd78def79f6)" d="M 314.405393 307.584 
L 314.405393 41.472 
" style="fill:none;stroke:#b0b0b0;stroke-dasharray:5.12,1.28,0.8,1.28;stroke-dashoffset:0;stroke-width:0.8;"/>
     </g>
     <g id="line2d_34">
      <g>
       <use style="stroke:#000000;stroke-width:0.8;" x="314.405393" xlink:href="#m32f3175201" y="307.584"/>
      </g>
     </g>
     <g id="text_17">
      <!-- 64 -->
      <g transform="translate(308.042893 322.182437)scale(0.1 -0.1)">
       <use xlink:href="#DejaVuSans-54"/>
       <use x="63.623047" xlink:href="#DejaVuSans-52"/>
      </g>
     </g>
    </g>
    <g id="xtick_18">
     <g id="line2d_35">
      <path clip-path="url(#pd78def79f6)" d="M 330.45573 307.584 
L 330.45573 41.472 
" style="fill:none;stroke:#b0b0b0;stroke-dasharray:5.12,1.28,0.8,1.28;stroke-dashoffset:0;stroke-width:0.8;"/>
     </g>
     <g id="line2d_36">
      <g>
       <use style="stroke:#000000;stroke-width:0.8;" x="330.45573" xlink:href="#m32f3175201" y="307.584"/>
      </g>
     </g>
     <g id="text_18">
      <!-- 68 -->
      <g transform="translate(324.09323 322.182437)scale(0.1 -0.1)">
       <use xlink:href="#DejaVuSans-54"/>
       <use x="63.623047" xlink:href="#DejaVuSans-56"/>
      </g>
     </g>
    </g>
    <g id="xtick_19">
     <g id="line2d_37">
      <path clip-path="url(#pd78def79f6)" d="M 346.506067 307.584 
L 346.506067 41.472 
" style="fill:none;stroke:#b0b0b0;stroke-dasharray:5.12,1.28,0.8,1.28;stroke-dashoffset:0;stroke-width:0.8;"/>
     </g>
     <g id="line2d_38">
      <g>
       <use style="stroke:#000000;stroke-width:0.8;" x="346.506067" xlink:href="#m32f3175201" y="307.584"/>
      </g>
     </g>
     <g id="text_19">
      <!-- 72 -->
      <g transform="translate(340.143567 322.182437)scale(0.1 -0.1)">
       <defs>
        <path d="M 8.203125 72.90625 
L 55.078125 72.90625 
L 55.078125 68.703125 
L 28.609375 0 
L 18.3125 0 
L 43.21875 64.59375 
L 8.203125 64.59375 
z
" id="DejaVuSans-55"/>
       </defs>
       <use xlink:href="#DejaVuSans-55"/>
       <use x="63.623047" xlink:href="#DejaVuSans-50"/>
      </g>
     </g>
    </g>
    <g id="xtick_20">
     <g id="line2d_39">
      <path clip-path="url(#pd78def79f6)" d="M 362.556404 307.584 
L 362.556404 41.472 
" style="fill:none;stroke:#b0b0b0;stroke-dasharray:5.12,1.28,0.8,1.28;stroke-dashoffset:0;stroke-width:0.8;"/>
     </g>
     <g id="line2d_40">
      <g>
       <use style="stroke:#000000;stroke-width:0.8;" x="362.556404" xlink:href="#m32f3175201" y="307.584"/>
      </g>
     </g>
     <g id="text_20">
      <!-- 76 -->
      <g transform="translate(356.193904 322.182437)scale(0.1 -0.1)">
       <use xlink:href="#DejaVuSans-55"/>
       <use x="63.623047" xlink:href="#DejaVuSans-54"/>
      </g>
     </g>
    </g>
    <g id="xtick_21">
     <g id="line2d_41">
      <path clip-path="url(#pd78def79f6)" d="M 378.606742 307.584 
L 378.606742 41.472 
" style="fill:none;stroke:#b0b0b0;stroke-dasharray:5.12,1.28,0.8,1.28;stroke-dashoffset:0;stroke-width:0.8;"/>
     </g>
     <g id="line2d_42">
      <g>
       <use style="stroke:#000000;stroke-width:0.8;" x="378.606742" xlink:href="#m32f3175201" y="307.584"/>
      </g>
     </g>
     <g id="text_21">
      <!-- 80 -->
      <g transform="translate(372.244242 322.182437)scale(0.1 -0.1)">
       <use xlink:href="#DejaVuSans-56"/>
       <use x="63.623047" xlink:href="#DejaVuSans-48"/>
      </g>
     </g>
    </g>
    <g id="xtick_22">
     <g id="line2d_43">
      <path clip-path="url(#pd78def79f6)" d="M 394.657079 307.584 
L 394.657079 41.472 
" style="fill:none;stroke:#b0b0b0;stroke-dasharray:5.12,1.28,0.8,1.28;stroke-dashoffset:0;stroke-width:0.8;"/>
     </g>
     <g id="line2d_44">
      <g>
       <use style="stroke:#000000;stroke-width:0.8;" x="394.657079" xlink:href="#m32f3175201" y="307.584"/>
      </g>
     </g>
     <g id="text_22">
      <!-- 84 -->
      <g transform="translate(388.294579 322.182437)scale(0.1 -0.1)">
       <use xlink:href="#DejaVuSans-56"/>
       <use x="63.623047" xlink:href="#DejaVuSans-52"/>
      </g>
     </g>
    </g>
    <g id="xtick_23">
     <g id="line2d_45">
      <path clip-path="url(#pd78def79f6)" d="M 410.707416 307.584 
L 410.707416 41.472 
" style="fill:none;stroke:#b0b0b0;stroke-dasharray:5.12,1.28,0.8,1.28;stroke-dashoffset:0;stroke-width:0.8;"/>
     </g>
     <g id="line2d_46">
      <g>
       <use style="stroke:#000000;stroke-width:0.8;" x="410.707416" xlink:href="#m32f3175201" y="307.584"/>
      </g>
     </g>
     <g id="text_23">
      <!-- 88 -->
      <g transform="translate(404.344916 322.182437)scale(0.1 -0.1)">
       <use xlink:href="#DejaVuSans-56"/>
       <use x="63.623047" xlink:href="#DejaVuSans-56"/>
      </g>
     </g>
    </g>
    <g id="text_24">
     <!-- threads -->
     <g transform="translate(217.168594 335.860562)scale(0.1 -0.1)">
      <defs>
       <path d="M 18.3125 70.21875 
L 18.3125 54.6875 
L 36.8125 54.6875 
L 36.8125 47.703125 
L 18.3125 47.703125 
L 18.3125 18.015625 
Q 18.3125 11.328125 20.140625 9.421875 
Q 21.96875 7.515625 27.59375 7.515625 
L 36.8125 7.515625 
L 36.8125 0 
L 27.59375 0 
Q 17.1875 0 13.234375 3.875 
Q 9.28125 7.765625 9.28125 18.015625 
L 9.28125 47.703125 
L 2.6875 47.703125 
L 2.6875 54.6875 
L 9.28125 54.6875 
L 9.28125 70.21875 
z
" id="DejaVuSans-116"/>
       <path d="M 54.890625 33.015625 
L 54.890625 0 
L 45.90625 0 
L 45.90625 32.71875 
Q 45.90625 40.484375 42.875 44.328125 
Q 39.84375 48.1875 33.796875 48.1875 
Q 26.515625 48.1875 22.3125 43.546875 
Q 18.109375 38.921875 18.109375 30.90625 
L 18.109375 0 
L 9.078125 0 
L 9.078125 75.984375 
L 18.109375 75.984375 
L 18.109375 46.1875 
Q 21.34375 51.125 25.703125 53.5625 
Q 30.078125 56 35.796875 56 
Q 45.21875 56 50.046875 50.171875 
Q 54.890625 44.34375 54.890625 33.015625 
z
" id="DejaVuSans-104"/>
       <path d="M 41.109375 46.296875 
Q 39.59375 47.171875 37.8125 47.578125 
Q 36.03125 48 33.890625 48 
Q 26.265625 48 22.1875 43.046875 
Q 18.109375 38.09375 18.109375 28.8125 
L 18.109375 0 
L 9.078125 0 
L 9.078125 54.6875 
L 18.109375 54.6875 
L 18.109375 46.1875 
Q 20.953125 51.171875 25.484375 53.578125 
Q 30.03125 56 36.53125 56 
Q 37.453125 56 38.578125 55.875 
Q 39.703125 55.765625 41.0625 55.515625 
z
" id="DejaVuSans-114"/>
       <path d="M 56.203125 29.59375 
L 56.203125 25.203125 
L 14.890625 25.203125 
Q 15.484375 15.921875 20.484375 11.0625 
Q 25.484375 6.203125 34.421875 6.203125 
Q 39.59375 6.203125 44.453125 7.46875 
Q 49.3125 8.734375 54.109375 11.28125 
L 54.109375 2.78125 
Q 49.265625 0.734375 44.1875 -0.34375 
Q 39.109375 -1.421875 33.890625 -1.421875 
Q 20.796875 -1.421875 13.15625 6.1875 
Q 5.515625 13.8125 5.515625 26.8125 
Q 5.515625 40.234375 12.765625 48.109375 
Q 20.015625 56 32.328125 56 
Q 43.359375 56 49.78125 48.890625 
Q 56.203125 41.796875 56.203125 29.59375 
z
M 47.21875 32.234375 
Q 47.125 39.59375 43.09375 43.984375 
Q 39.0625 48.390625 32.421875 48.390625 
Q 24.90625 48.390625 20.390625 44.140625 
Q 15.875 39.890625 15.1875 32.171875 
z
" id="DejaVuSans-101"/>
       <path d="M 34.28125 27.484375 
Q 23.390625 27.484375 19.1875 25 
Q 14.984375 22.515625 14.984375 16.5 
Q 14.984375 11.71875 18.140625 8.90625 
Q 21.296875 6.109375 26.703125 6.109375 
Q 34.1875 6.109375 38.703125 11.40625 
Q 43.21875 16.703125 43.21875 25.484375 
L 43.21875 27.484375 
z
M 52.203125 31.203125 
L 52.203125 0 
L 43.21875 0 
L 43.21875 8.296875 
Q 40.140625 3.328125 35.546875 0.953125 
Q 30.953125 -1.421875 24.3125 -1.421875 
Q 15.921875 -1.421875 10.953125 3.296875 
Q 6 8.015625 6 15.921875 
Q 6 25.140625 12.171875 29.828125 
Q 18.359375 34.515625 30.609375 34.515625 
L 43.21875 34.515625 
L 43.21875 35.40625 
Q 43.21875 41.609375 39.140625 45 
Q 35.0625 48.390625 27.6875 48.390625 
Q 23 48.390625 18.546875 47.265625 
Q 14.109375 46.140625 10.015625 43.890625 
L 10.015625 52.203125 
Q 14.9375 54.109375 19.578125 55.046875 
Q 24.21875 56 28.609375 56 
Q 40.484375 56 46.34375 49.84375 
Q 52.203125 43.703125 52.203125 31.203125 
z
" id="DejaVuSans-97"/>
       <path d="M 45.40625 46.390625 
L 45.40625 75.984375 
L 54.390625 75.984375 
L 54.390625 0 
L 45.40625 0 
L 45.40625 8.203125 
Q 42.578125 3.328125 38.25 0.953125 
Q 33.9375 -1.421875 27.875 -1.421875 
Q 17.96875 -1.421875 11.734375 6.484375 
Q 5.515625 14.40625 5.515625 27.296875 
Q 5.515625 40.1875 11.734375 48.09375 
Q 17.96875 56 27.875 56 
Q 33.9375 56 38.25 53.625 
Q 42.578125 51.265625 45.40625 46.390625 
z
M 14.796875 27.296875 
Q 14.796875 17.390625 18.875 11.75 
Q 22.953125 6.109375 30.078125 6.109375 
Q 37.203125 6.109375 41.296875 11.75 
Q 45.40625 17.390625 45.40625 27.296875 
Q 45.40625 37.203125 41.296875 42.84375 
Q 37.203125 48.484375 30.078125 48.484375 
Q 22.953125 48.484375 18.875 42.84375 
Q 14.796875 37.203125 14.796875 27.296875 
z
" id="DejaVuSans-100"/>
       <path d="M 44.28125 53.078125 
L 44.28125 44.578125 
Q 40.484375 46.53125 36.375 47.5 
Q 32.28125 48.484375 27.875 48.484375 
Q 21.1875 48.484375 17.84375 46.4375 
Q 14.5 44.390625 14.5 40.28125 
Q 14.5 37.15625 16.890625 35.375 
Q 19.28125 33.59375 26.515625 31.984375 
L 29.59375 31.296875 
Q 39.15625 29.25 43.1875 25.515625 
Q 47.21875 21.78125 47.21875 15.09375 
Q 47.21875 7.46875 41.1875 3.015625 
Q 35.15625 -1.421875 24.609375 -1.421875 
Q 20.21875 -1.421875 15.453125 -0.5625 
Q 10.6875 0.296875 5.421875 2 
L 5.421875 11.28125 
Q 10.40625 8.6875 15.234375 7.390625 
Q 20.0625 6.109375 24.8125 6.109375 
Q 31.15625 6.109375 34.5625 8.28125 
Q 37.984375 10.453125 37.984375 14.40625 
Q 37.984375 18.0625 35.515625 20.015625 
Q 33.0625 21.96875 24.703125 23.78125 
L 21.578125 24.515625 
Q 13.234375 26.265625 9.515625 29.90625 
Q 5.8125 33.546875 5.8125 39.890625 
Q 5.8125 47.609375 11.28125 51.796875 
Q 16.75 56 26.8125 56 
Q 31.78125 56 36.171875 55.265625 
Q 40.578125 54.546875 44.28125 53.078125 
z
" id="DejaVuSans-115"/>
      </defs>
      <use xlink:href="#DejaVuSans-116"/>
      <use x="39.208984" xlink:href="#DejaVuSans-104"/>
      <use x="102.587891" xlink:href="#DejaVuSans-114"/>
      <use x="141.451172" xlink:href="#DejaVuSans-101"/>
      <use x="202.974609" xlink:href="#DejaVuSans-97"/>
      <use x="264.253906" xlink:href="#DejaVuSans-100"/>
      <use x="327.730469" xlink:href="#DejaVuSans-115"/>
     </g>
    </g>
   </g>
   <g id="matplotlib.axis_2">
    <g id="ytick_1">
     <g id="line2d_47">
      <path clip-path="url(#pd78def79f6)" d="M 57.6 267.974426 
L 414.72 267.974426 
" style="fill:none;stroke:#b0b0b0;stroke-dasharray:5.12,1.28,0.8,1.28;stroke-dashoffset:0;stroke-width:0.8;"/>
     </g>
     <g id="line2d_48">
      <defs>
       <path d="M 0 0 
L -3.5 0 
" id="m45a0c1166e" style="stroke:#000000;stroke-width:0.8;"/>
      </defs>
      <g>
       <use style="stroke:#000000;stroke-width:0.8;" x="57.6" xlink:href="#m45a0c1166e" y="267.974426"/>
      </g>
     </g>
     <g id="text_25">
      <!-- 0.5 -->
      <g transform="translate(34.696875 271.773645)scale(0.1 -0.1)">
       <defs>
        <path d="M 10.6875 12.40625 
L 21 12.40625 
L 21 0 
L 10.6875 0 
z
" id="DejaVuSans-46"/>
       </defs>
       <use xlink:href="#DejaVuSans-48"/>
       <use x="63.623047" xlink:href="#DejaVuSans-46"/>
       <use x="95.410156" xlink:href="#DejaVuSans-53"/>
      </g>
     </g>
    </g>
    <g id="ytick_2">
     <g id="line2d_49">
      <path clip-path="url(#pd78def79f6)" d="M 57.6 222.82437 
L 414.72 222.82437 
" style="fill:none;stroke:#b0b0b0;stroke-dasharray:5.12,1.28,0.8,1.28;stroke-dashoffset:0;stroke-width:0.8;"/>
     </g>
     <g id="line2d_50">
      <g>
       <use style="stroke:#000000;stroke-width:0.8;" x="57.6" xlink:href="#m45a0c1166e" y="222.82437"/>
      </g>
     </g>
     <g id="text_26">
      <!-- 1.0 -->
      <g transform="translate(34.696875 226.623588)scale(0.1 -0.1)">
       <use xlink:href="#DejaVuSans-49"/>
       <use x="63.623047" xlink:href="#DejaVuSans-46"/>
       <use x="95.410156" xlink:href="#DejaVuSans-48"/>
      </g>
     </g>
    </g>
    <g id="ytick_3">
     <g id="line2d_51">
      <path clip-path="url(#pd78def79f6)" d="M 57.6 177.674313 
L 414.72 177.674313 
" style="fill:none;stroke:#b0b0b0;stroke-dasharray:5.12,1.28,0.8,1.28;stroke-dashoffset:0;stroke-width:0.8;"/>
     </g>
     <g id="line2d_52">
      <g>
       <use style="stroke:#000000;stroke-width:0.8;" x="57.6" xlink:href="#m45a0c1166e" y="177.674313"/>
      </g>
     </g>
     <g id="text_27">
      <!-- 1.5 -->
      <g transform="translate(34.696875 181.473532)scale(0.1 -0.1)">
       <use xlink:href="#DejaVuSans-49"/>
       <use x="63.623047" xlink:href="#DejaVuSans-46"/>
       <use x="95.410156" xlink:href="#DejaVuSans-53"/>
      </g>
     </g>
    </g>
    <g id="ytick_4">
     <g id="line2d_53">
      <path clip-path="url(#pd78def79f6)" d="M 57.6 132.524257 
L 414.72 132.524257 
" style="fill:none;stroke:#b0b0b0;stroke-dasharray:5.12,1.28,0.8,1.28;stroke-dashoffset:0;stroke-width:0.8;"/>
     </g>
     <g id="line2d_54">
      <g>
       <use style="stroke:#000000;stroke-width:0.8;" x="57.6" xlink:href="#m45a0c1166e" y="132.524257"/>
      </g>
     </g>
     <g id="text_28">
      <!-- 2.0 -->
      <g transform="translate(34.696875 136.323476)scale(0.1 -0.1)">
       <use xlink:href="#DejaVuSans-50"/>
       <use x="63.623047" xlink:href="#DejaVuSans-46"/>
       <use x="95.410156" xlink:href="#DejaVuSans-48"/>
      </g>
     </g>
    </g>
    <g id="ytick_5">
     <g id="line2d_55">
      <path clip-path="url(#pd78def79f6)" d="M 57.6 87.3742 
L 414.72 87.3742 
" style="fill:none;stroke:#b0b0b0;stroke-dasharray:5.12,1.28,0.8,1.28;stroke-dashoffset:0;stroke-width:0.8;"/>
     </g>
     <g id="line2d_56">
      <g>
       <use style="stroke:#000000;stroke-width:0.8;" x="57.6" xlink:href="#m45a0c1166e" y="87.3742"/>
      </g>
     </g>
     <g id="text_29">
      <!-- 2.5 -->
      <g transform="translate(34.696875 91.173419)scale(0.1 -0.1)">
       <use xlink:href="#DejaVuSans-50"/>
       <use x="63.623047" xlink:href="#DejaVuSans-46"/>
       <use x="95.410156" xlink:href="#DejaVuSans-53"/>
      </g>
     </g>
    </g>
    <g id="ytick_6">
     <g id="line2d_57">
      <path clip-path="url(#pd78def79f6)" d="M 57.6 42.224144 
L 414.72 42.224144 
" style="fill:none;stroke:#b0b0b0;stroke-dasharray:5.12,1.28,0.8,1.28;stroke-dashoffset:0;stroke-width:0.8;"/>
     </g>
     <g id="line2d_58">
      <g>
       <use style="stroke:#000000;stroke-width:0.8;" x="57.6" xlink:href="#m45a0c1166e" y="42.224144"/>
      </g>
     </g>
     <g id="text_30">
      <!-- 3.0 -->
      <g transform="translate(34.696875 46.023363)scale(0.1 -0.1)">
       <use xlink:href="#DejaVuSans-51"/>
       <use x="63.623047" xlink:href="#DejaVuSans-46"/>
       <use x="95.410156" xlink:href="#DejaVuSans-48"/>
      </g>
     </g>
    </g>
    <g id="text_31">
     <!-- duration (s) (sum for each thread) -->
     <g transform="translate(28.617187 259.885031)rotate(-90)scale(0.1 -0.1)">
      <defs>
       <path d="M 8.5 21.578125 
L 8.5 54.6875 
L 17.484375 54.6875 
L 17.484375 21.921875 
Q 17.484375 14.15625 20.5 10.265625 
Q 23.53125 6.390625 29.59375 6.390625 
Q 36.859375 6.390625 41.078125 11.03125 
Q 45.3125 15.671875 45.3125 23.6875 
L 45.3125 54.6875 
L 54.296875 54.6875 
L 54.296875 0 
L 45.3125 0 
L 45.3125 8.40625 
Q 42.046875 3.421875 37.71875 1 
Q 33.40625 -1.421875 27.6875 -1.421875 
Q 18.265625 -1.421875 13.375 4.4375 
Q 8.5 10.296875 8.5 21.578125 
z
M 31.109375 56 
z
" id="DejaVuSans-117"/>
       <path d="M 9.421875 54.6875 
L 18.40625 54.6875 
L 18.40625 0 
L 9.421875 0 
z
M 9.421875 75.984375 
L 18.40625 75.984375 
L 18.40625 64.59375 
L 9.421875 64.59375 
z
" id="DejaVuSans-105"/>
       <path d="M 30.609375 48.390625 
Q 23.390625 48.390625 19.1875 42.75 
Q 14.984375 37.109375 14.984375 27.296875 
Q 14.984375 17.484375 19.15625 11.84375 
Q 23.34375 6.203125 30.609375 6.203125 
Q 37.796875 6.203125 41.984375 11.859375 
Q 46.1875 17.53125 46.1875 27.296875 
Q 46.1875 37.015625 41.984375 42.703125 
Q 37.796875 48.390625 30.609375 48.390625 
z
M 30.609375 56 
Q 42.328125 56 49.015625 48.375 
Q 55.71875 40.765625 55.71875 27.296875 
Q 55.71875 13.875 49.015625 6.21875 
Q 42.328125 -1.421875 30.609375 -1.421875 
Q 18.84375 -1.421875 12.171875 6.21875 
Q 5.515625 13.875 5.515625 27.296875 
Q 5.515625 40.765625 12.171875 48.375 
Q 18.84375 56 30.609375 56 
z
" id="DejaVuSans-111"/>
       <path d="M 54.890625 33.015625 
L 54.890625 0 
L 45.90625 0 
L 45.90625 32.71875 
Q 45.90625 40.484375 42.875 44.328125 
Q 39.84375 48.1875 33.796875 48.1875 
Q 26.515625 48.1875 22.3125 43.546875 
Q 18.109375 38.921875 18.109375 30.90625 
L 18.109375 0 
L 9.078125 0 
L 9.078125 54.6875 
L 18.109375 54.6875 
L 18.109375 46.1875 
Q 21.34375 51.125 25.703125 53.5625 
Q 30.078125 56 35.796875 56 
Q 45.21875 56 50.046875 50.171875 
Q 54.890625 44.34375 54.890625 33.015625 
z
" id="DejaVuSans-110"/>
       <path id="DejaVuSans-32"/>
       <path d="M 31 75.875 
Q 24.46875 64.65625 21.28125 53.65625 
Q 18.109375 42.671875 18.109375 31.390625 
Q 18.109375 20.125 21.3125 9.0625 
Q 24.515625 -2 31 -13.1875 
L 23.1875 -13.1875 
Q 15.875 -1.703125 12.234375 9.375 
Q 8.59375 20.453125 8.59375 31.390625 
Q 8.59375 42.28125 12.203125 53.3125 
Q 15.828125 64.359375 23.1875 75.875 
z
" id="DejaVuSans-40"/>
       <path d="M 8.015625 75.875 
L 15.828125 75.875 
Q 23.140625 64.359375 26.78125 53.3125 
Q 30.421875 42.28125 30.421875 31.390625 
Q 30.421875 20.453125 26.78125 9.375 
Q 23.140625 -1.703125 15.828125 -13.1875 
L 8.015625 -13.1875 
Q 14.5 -2 17.703125 9.0625 
Q 20.90625 20.125 20.90625 31.390625 
Q 20.90625 42.671875 17.703125 53.65625 
Q 14.5 64.65625 8.015625 75.875 
z
" id="DejaVuSans-41"/>
       <path d="M 52 44.1875 
Q 55.375 50.25 60.0625 53.125 
Q 64.75 56 71.09375 56 
Q 79.640625 56 84.28125 50.015625 
Q 88.921875 44.046875 88.921875 33.015625 
L 88.921875 0 
L 79.890625 0 
L 79.890625 32.71875 
Q 79.890625 40.578125 77.09375 44.375 
Q 74.3125 48.1875 68.609375 48.1875 
Q 61.625 48.1875 57.5625 43.546875 
Q 53.515625 38.921875 53.515625 30.90625 
L 53.515625 0 
L 44.484375 0 
L 44.484375 32.71875 
Q 44.484375 40.625 41.703125 44.40625 
Q 38.921875 48.1875 33.109375 48.1875 
Q 26.21875 48.1875 22.15625 43.53125 
Q 18.109375 38.875 18.109375 30.90625 
L 18.109375 0 
L 9.078125 0 
L 9.078125 54.6875 
L 18.109375 54.6875 
L 18.109375 46.1875 
Q 21.1875 51.21875 25.484375 53.609375 
Q 29.78125 56 35.6875 56 
Q 41.65625 56 45.828125 52.96875 
Q 50 49.953125 52 44.1875 
z
" id="DejaVuSans-109"/>
       <path d="M 37.109375 75.984375 
L 37.109375 68.5 
L 28.515625 68.5 
Q 23.6875 68.5 21.796875 66.546875 
Q 19.921875 64.59375 19.921875 59.515625 
L 19.921875 54.6875 
L 34.71875 54.6875 
L 34.71875 47.703125 
L 19.921875 47.703125 
L 19.921875 0 
L 10.890625 0 
L 10.890625 47.703125 
L 2.296875 47.703125 
L 2.296875 54.6875 
L 10.890625 54.6875 
L 10.890625 58.5 
Q 10.890625 67.625 15.140625 71.796875 
Q 19.390625 75.984375 28.609375 75.984375 
z
" id="DejaVuSans-102"/>
       <path d="M 48.78125 52.59375 
L 48.78125 44.1875 
Q 44.96875 46.296875 41.140625 47.34375 
Q 37.3125 48.390625 33.40625 48.390625 
Q 24.65625 48.390625 19.8125 42.84375 
Q 14.984375 37.3125 14.984375 27.296875 
Q 14.984375 17.28125 19.8125 11.734375 
Q 24.65625 6.203125 33.40625 6.203125 
Q 37.3125 6.203125 41.140625 7.25 
Q 44.96875 8.296875 48.78125 10.40625 
L 48.78125 2.09375 
Q 45.015625 0.34375 40.984375 -0.53125 
Q 36.96875 -1.421875 32.421875 -1.421875 
Q 20.0625 -1.421875 12.78125 6.34375 
Q 5.515625 14.109375 5.515625 27.296875 
Q 5.515625 40.671875 12.859375 48.328125 
Q 20.21875 56 33.015625 56 
Q 37.15625 56 41.109375 55.140625 
Q 45.0625 54.296875 48.78125 52.59375 
z
" id="DejaVuSans-99"/>
      </defs>
      <use xlink:href="#DejaVuSans-100"/>
      <use x="63.476562" xlink:href="#DejaVuSans-117"/>
      <use x="126.855469" xlink:href="#DejaVuSans-114"/>
      <use x="167.96875" xlink:href="#DejaVuSans-97"/>
      <use x="229.248047" xlink:href="#DejaVuSans-116"/>
      <use x="268.457031" xlink:href="#DejaVuSans-105"/>
      <use x="296.240234" xlink:href="#DejaVuSans-111"/>
      <use x="357.421875" xlink:href="#DejaVuSans-110"/>
      <use x="420.800781" xlink:href="#DejaVuSans-32"/>
      <use x="452.587891" xlink:href="#DejaVuSans-40"/>
      <use x="491.601562" xlink:href="#DejaVuSans-115"/>
      <use x="543.701172" xlink:href="#DejaVuSans-41"/>
      <use x="582.714844" xlink:href="#DejaVuSans-32"/>
      <use x="614.501953" xlink:href="#DejaVuSans-40"/>
      <use x="653.515625" xlink:href="#DejaVuSans-115"/>
      <use x="705.615234" xlink:href="#DejaVuSans-117"/>
      <use x="768.994141" xlink:href="#DejaVuSans-109"/>
      <use x="866.40625" xlink:href="#DejaVuSans-32"/>
      <use x="898.193359" xlink:href="#DejaVuSans-102"/>
      <use x="933.398438" xlink:href="#DejaVuSans-111"/>
      <use x="994.580078" xlink:href="#DejaVuSans-114"/>
      <use x="1035.693359" xlink:href="#DejaVuSans-32"/>
      <use x="1067.480469" xlink:href="#DejaVuSans-101"/>
      <use x="1129.003906" xlink:href="#DejaVuSans-97"/>
      <use x="1190.283203" xlink:href="#DejaVuSans-99"/>
      <use x="1245.263672" xlink:href="#DejaVuSans-104"/>
      <use x="1308.642578" xlink:href="#DejaVuSans-32"/>
      <use x="1340.429688" xlink:href="#DejaVuSans-116"/>
      <use x="1379.638672" xlink:href="#DejaVuSans-104"/>
      <use x="1443.017578" xlink:href="#DejaVuSans-114"/>
      <use x="1481.880859" xlink:href="#DejaVuSans-101"/>
      <use x="1543.404297" xlink:href="#DejaVuSans-97"/>
      <use x="1604.683594" xlink:href="#DejaVuSans-100"/>
      <use x="1668.160156" xlink:href="#DejaVuSans-41"/>
     </g>
    </g>
   </g>
   <g id="line2d_59">
    <path clip-path="url(#pd78def79f6)" d="M 61.612584 295.488 
L 65.625169 293.679222 
L 69.637753 293.111281 
L 73.650337 292.62175 
L 77.662921 292.474597 
L 81.675506 291.946529 
L 85.68809 291.829388 
L 89.700674 291.076447 
L 93.713258 290.529626 
L 97.725843 290.360428 
L 101.738427 290.010707 
L 105.751011 289.203081 
L 109.763596 288.267292 
L 113.77618 288.158526 
L 117.788764 287.791001 
L 121.801348 286.856073 
L 125.813933 285.68878 
L 129.826517 285.906096 
L 133.839101 284.521659 
L 137.851685 284.050944 
L 141.86427 284.330027 
L 145.876854 283.58208 
L 149.889438 282.718306 
L 153.902022 281.579497 
L 157.914607 281.313654 
L 161.927191 278.311037 
L 165.939775 280.298185 
L 169.95236 281.495942 
L 173.964944 278.412375 
L 177.977528 278.647238 
L 181.990112 276.129373 
L 186.002697 277.190764 
L 190.015281 273.814745 
L 194.027865 272.735377 
L 198.040449 273.205339 
L 202.053034 272.36402 
L 206.065618 272.102892 
L 210.078202 269.015149 
L 214.090787 270.523895 
L 218.103371 270.002307 
L 222.115955 267.093127 
L 226.128539 266.252346 
L 230.141124 267.356322 
L 234.153708 262.942099 
L 238.166292 260.349334 
L 242.178876 265.087572 
L 246.191461 258.210083 
L 250.204045 258.208167 
L 254.216629 259.364954 
L 258.229213 257.034264 
L 262.241798 260.258438 
L 266.254382 258.918804 
L 270.266966 256.831373 
L 274.279551 253.513289 
L 278.292135 256.350346 
L 282.304719 251.477249 
L 286.317303 252.205302 
L 290.329888 249.437075 
L 294.342472 252.314154 
L 298.355056 244.95596 
L 302.36764 251.25961 
L 306.380225 251.886993 
L 310.392809 249.214398 
L 314.405393 249.831619 
L 318.417978 256.563442 
L 322.430562 242.734704 
L 326.443146 243.972742 
L 330.45573 239.681107 
L 334.468315 246.730787 
L 338.480899 244.360354 
L 342.493483 246.479024 
L 346.506067 247.214828 
L 350.518652 246.318782 
L 354.531236 236.465222 
L 358.54382 241.109205 
L 362.556404 238.65976 
L 366.568989 234.789796 
L 370.581573 245.003002 
L 374.594157 236.956519 
L 378.606742 236.515277 
L 382.619326 240.276454 
L 386.63191 235.870477 
L 390.644494 229.891208 
L 394.657079 223.903436 
L 398.669663 226.363021 
L 402.682247 230.907603 
L 406.694831 219.653072 
L 410.707416 215.617289 
" style="fill:none;stroke:#ff0000;stroke-dasharray:1.5,2.475;stroke-dashoffset:0;stroke-width:1.5;"/>
    <defs>
     <path d="M 0 1.5 
C 0.397805 1.5 0.77937 1.341951 1.06066 1.06066 
C 1.341951 0.77937 1.5 0.397805 1.5 0 
C 1.5 -0.397805 1.341951 -0.77937 1.06066 -1.06066 
C 0.77937 -1.341951 0.397805 -1.5 0 -1.5 
C -0.397805 -1.5 -0.77937 -1.341951 -1.06066 -1.06066 
C -1.341951 -0.77937 -1.5 -0.397805 -1.5 0 
C -1.5 0.397805 -1.341951 0.77937 -1.06066 1.06066 
C -0.77937 1.341951 -0.397805 1.5 0 1.5 
z
" id="m4192756479" style="stroke:#ff0000;"/>
    </defs>
    <g clip-path="url(#pd78def79f6)">
     <use style="fill:#ff0000;stroke:#ff0000;" x="61.612584" xlink:href="#m4192756479" y="295.488"/>
     <use style="fill:#ff0000;stroke:#ff0000;" x="65.625169" xlink:href="#m4192756479" y="293.679222"/>
     <use style="fill:#ff0000;stroke:#ff0000;" x="69.637753" xlink:href="#m4192756479" y="293.111281"/>
     <use style="fill:#ff0000;stroke:#ff0000;" x="73.650337" xlink:href="#m4192756479" y="292.62175"/>
     <use style="fill:#ff0000;stroke:#ff0000;" x="77.662921" xlink:href="#m4192756479" y="292.474597"/>
     <use style="fill:#ff0000;stroke:#ff0000;" x="81.675506" xlink:href="#m4192756479" y="291.946529"/>
     <use style="fill:#ff0000;stroke:#ff0000;" x="85.68809" xlink:href="#m4192756479" y="291.829388"/>
     <use style="fill:#ff0000;stroke:#ff0000;" x="89.700674" xlink:href="#m4192756479" y="291.076447"/>
     <use style="fill:#ff0000;stroke:#ff0000;" x="93.713258" xlink:href="#m4192756479" y="290.529626"/>
     <use style="fill:#ff0000;stroke:#ff0000;" x="97.725843" xlink:href="#m4192756479" y="290.360428"/>
     <use style="fill:#ff0000;stroke:#ff0000;" x="101.738427" xlink:href="#m4192756479" y="290.010707"/>
     <use style="fill:#ff0000;stroke:#ff0000;" x="105.751011" xlink:href="#m4192756479" y="289.203081"/>
     <use style="fill:#ff0000;stroke:#ff0000;" x="109.763596" xlink:href="#m4192756479" y="288.267292"/>
     <use style="fill:#ff0000;stroke:#ff0000;" x="113.77618" xlink:href="#m4192756479" y="288.158526"/>
     <use style="fill:#ff0000;stroke:#ff0000;" x="117.788764" xlink:href="#m4192756479" y="287.791001"/>
     <use style="fill:#ff0000;stroke:#ff0000;" x="121.801348" xlink:href="#m4192756479" y="286.856073"/>
     <use style="fill:#ff0000;stroke:#ff0000;" x="125.813933" xlink:href="#m4192756479" y="285.68878"/>
     <use style="fill:#ff0000;stroke:#ff0000;" x="129.826517" xlink:href="#m4192756479" y="285.906096"/>
     <use style="fill:#ff0000;stroke:#ff0000;" x="133.839101" xlink:href="#m4192756479" y="284.521659"/>
     <use style="fill:#ff0000;stroke:#ff0000;" x="137.851685" xlink:href="#m4192756479" y="284.050944"/>
     <use style="fill:#ff0000;stroke:#ff0000;" x="141.86427" xlink:href="#m4192756479" y="284.330027"/>
     <use style="fill:#ff0000;stroke:#ff0000;" x="145.876854" xlink:href="#m4192756479" y="283.58208"/>
     <use style="fill:#ff0000;stroke:#ff0000;" x="149.889438" xlink:href="#m4192756479" y="282.718306"/>
     <use style="fill:#ff0000;stroke:#ff0000;" x="153.902022" xlink:href="#m4192756479" y="281.579497"/>
     <use style="fill:#ff0000;stroke:#ff0000;" x="157.914607" xlink:href="#m4192756479" y="281.313654"/>
     <use style="fill:#ff0000;stroke:#ff0000;" x="161.927191" xlink:href="#m4192756479" y="278.311037"/>
     <use style="fill:#ff0000;stroke:#ff0000;" x="165.939775" xlink:href="#m4192756479" y="280.298185"/>
     <use style="fill:#ff0000;stroke:#ff0000;" x="169.95236" xlink:href="#m4192756479" y="281.495942"/>
     <use style="fill:#ff0000;stroke:#ff0000;" x="173.964944" xlink:href="#m4192756479" y="278.412375"/>
     <use style="fill:#ff0000;stroke:#ff0000;" x="177.977528" xlink:href="#m4192756479" y="278.647238"/>
     <use style="fill:#ff0000;stroke:#ff0000;" x="181.990112" xlink:href="#m4192756479" y="276.129373"/>
     <use style="fill:#ff0000;stroke:#ff0000;" x="186.002697" xlink:href="#m4192756479" y="277.190764"/>
     <use style="fill:#ff0000;stroke:#ff0000;" x="190.015281" xlink:href="#m4192756479" y="273.814745"/>
     <use style="fill:#ff0000;stroke:#ff0000;" x="194.027865" xlink:href="#m4192756479" y="272.735377"/>
     <use style="fill:#ff0000;stroke:#ff0000;" x="198.040449" xlink:href="#m4192756479" y="273.205339"/>
     <use style="fill:#ff0000;stroke:#ff0000;" x="202.053034" xlink:href="#m4192756479" y="272.36402"/>
     <use style="fill:#ff0000;stroke:#ff0000;" x="206.065618" xlink:href="#m4192756479" y="272.102892"/>
     <use style="fill:#ff0000;stroke:#ff0000;" x="210.078202" xlink:href="#m4192756479" y="269.015149"/>
     <use style="fill:#ff0000;stroke:#ff0000;" x="214.090787" xlink:href="#m4192756479" y="270.523895"/>
     <use style="fill:#ff0000;stroke:#ff0000;" x="218.103371" xlink:href="#m4192756479" y="270.002307"/>
     <use style="fill:#ff0000;stroke:#ff0000;" x="222.115955" xlink:href="#m4192756479" y="267.093127"/>
     <use style="fill:#ff0000;stroke:#ff0000;" x="226.128539" xlink:href="#m4192756479" y="266.252346"/>
     <use style="fill:#ff0000;stroke:#ff0000;" x="230.141124" xlink:href="#m4192756479" y="267.356322"/>
     <use style="fill:#ff0000;stroke:#ff0000;" x="234.153708" xlink:href="#m4192756479" y="262.942099"/>
     <use style="fill:#ff0000;stroke:#ff0000;" x="238.166292" xlink:href="#m4192756479" y="260.349334"/>
     <use style="fill:#ff0000;stroke:#ff0000;" x="242.178876" xlink:href="#m4192756479" y="265.087572"/>
     <use style="fill:#ff0000;stroke:#ff0000;" x="246.191461" xlink:href="#m4192756479" y="258.210083"/>
     <use style="fill:#ff0000;stroke:#ff0000;" x="250.204045" xlink:href="#m4192756479" y="258.208167"/>
     <use style="fill:#ff0000;stroke:#ff0000;" x="254.216629" xlink:href="#m4192756479" y="259.364954"/>
     <use style="fill:#ff0000;stroke:#ff0000;" x="258.229213" xlink:href="#m4192756479" y="257.034264"/>
     <use style="fill:#ff0000;stroke:#ff0000;" x="262.241798" xlink:href="#m4192756479" y="260.258438"/>
     <use style="fill:#ff0000;stroke:#ff0000;" x="266.254382" xlink:href="#m4192756479" y="258.918804"/>
     <use style="fill:#ff0000;stroke:#ff0000;" x="270.266966" xlink:href="#m4192756479" y="256.831373"/>
     <use style="fill:#ff0000;stroke:#ff0000;" x="274.279551" xlink:href="#m4192756479" y="253.513289"/>
     <use style="fill:#ff0000;stroke:#ff0000;" x="278.292135" xlink:href="#m4192756479" y="256.350346"/>
     <use style="fill:#ff0000;stroke:#ff0000;" x="282.304719" xlink:href="#m4192756479" y="251.477249"/>
     <use style="fill:#ff0000;stroke:#ff0000;" x="286.317303" xlink:href="#m4192756479" y="252.205302"/>
     <use style="fill:#ff0000;stroke:#ff0000;" x="290.329888" xlink:href="#m4192756479" y="249.437075"/>
     <use style="fill:#ff0000;stroke:#ff0000;" x="294.342472" xlink:href="#m4192756479" y="252.314154"/>
     <use style="fill:#ff0000;stroke:#ff0000;" x="298.355056" xlink:href="#m4192756479" y="244.95596"/>
     <use style="fill:#ff0000;stroke:#ff0000;" x="302.36764" xlink:href="#m4192756479" y="251.25961"/>
     <use style="fill:#ff0000;stroke:#ff0000;" x="306.380225" xlink:href="#m4192756479" y="251.886993"/>
     <use style="fill:#ff0000;stroke:#ff0000;" x="310.392809" xlink:href="#m4192756479" y="249.214398"/>
     <use style="fill:#ff0000;stroke:#ff0000;" x="314.405393" xlink:href="#m4192756479" y="249.831619"/>
     <use style="fill:#ff0000;stroke:#ff0000;" x="318.417978" xlink:href="#m4192756479" y="256.563442"/>
     <use style="fill:#ff0000;stroke:#ff0000;" x="322.430562" xlink:href="#m4192756479" y="242.734704"/>
     <use style="fill:#ff0000;stroke:#ff0000;" x="326.443146" xlink:href="#m4192756479" y="243.972742"/>
     <use style="fill:#ff0000;stroke:#ff0000;" x="330.45573" xlink:href="#m4192756479" y="239.681107"/>
     <use style="fill:#ff0000;stroke:#ff0000;" x="334.468315" xlink:href="#m4192756479" y="246.730787"/>
     <use style="fill:#ff0000;stroke:#ff0000;" x="338.480899" xlink:href="#m4192756479" y="244.360354"/>
     <use style="fill:#ff0000;stroke:#ff0000;" x="342.493483" xlink:href="#m4192756479" y="246.479024"/>
     <use style="fill:#ff0000;stroke:#ff0000;" x="346.506067" xlink:href="#m4192756479" y="247.214828"/>
     <use style="fill:#ff0000;stroke:#ff0000;" x="350.518652" xlink:href="#m4192756479" y="246.318782"/>
     <use style="fill:#ff0000;stroke:#ff0000;" x="354.531236" xlink:href="#m4192756479" y="236.465222"/>
     <use style="fill:#ff0000;stroke:#ff0000;" x="358.54382" xlink:href="#m4192756479" y="241.109205"/>
     <use style="fill:#ff0000;stroke:#ff0000;" x="362.556404" xlink:href="#m4192756479" y="238.65976"/>
     <use style="fill:#ff0000;stroke:#ff0000;" x="366.568989" xlink:href="#m4192756479" y="234.789796"/>
     <use style="fill:#ff0000;stroke:#ff0000;" x="370.581573" xlink:href="#m4192756479" y="245.003002"/>
     <use style="fill:#ff0000;stroke:#ff0000;" x="374.594157" xlink:href="#m4192756479" y="236.956519"/>
     <use style="fill:#ff0000;stroke:#ff0000;" x="378.606742" xlink:href="#m4192756479" y="236.515277"/>
     <use style="fill:#ff0000;stroke:#ff0000;" x="382.619326" xlink:href="#m4192756479" y="240.276454"/>
     <use style="fill:#ff0000;stroke:#ff0000;" x="386.63191" xlink:href="#m4192756479" y="235.870477"/>
     <use style="fill:#ff0000;stroke:#ff0000;" x="390.644494" xlink:href="#m4192756479" y="229.891208"/>
     <use style="fill:#ff0000;stroke:#ff0000;" x="394.657079" xlink:href="#m4192756479" y="223.903436"/>
     <use style="fill:#ff0000;stroke:#ff0000;" x="398.669663" xlink:href="#m4192756479" y="226.363021"/>
     <use style="fill:#ff0000;stroke:#ff0000;" x="402.682247" xlink:href="#m4192756479" y="230.907603"/>
     <use style="fill:#ff0000;stroke:#ff0000;" x="406.694831" xlink:href="#m4192756479" y="219.653072"/>
     <use style="fill:#ff0000;stroke:#ff0000;" x="410.707416" xlink:href="#m4192756479" y="215.617289"/>
    </g>
   </g>
   <g id="line2d_60">
    <path clip-path="url(#pd78def79f6)" d="M 61.612584 257.830006 
L 65.625169 254.716407 
L 69.637753 253.650387 
L 73.650337 252.470026 
L 77.662921 251.84796 
L 81.675506 251.313368 
L 85.68809 250.557456 
L 89.700674 249.501275 
L 93.713258 248.195226 
L 97.725843 247.448915 
L 101.738427 246.536507 
L 105.751011 243.963355 
L 109.763596 241.255065 
L 113.77618 240.21051 
L 117.788764 239.088773 
L 121.801348 237.053013 
L 125.813933 234.235698 
L 129.826517 234.752873 
L 133.839101 230.373377 
L 137.851685 229.184124 
L 141.86427 230.263298 
L 145.876854 227.327487 
L 149.889438 226.657928 
L 153.902022 223.973729 
L 157.914607 222.223963 
L 161.927191 216.11877 
L 165.939775 218.724925 
L 169.95236 221.323331 
L 173.964944 214.650477 
L 177.977528 213.488781 
L 181.990112 208.290378 
L 186.002697 210.695364 
L 190.015281 203.897921 
L 194.027865 200.033619 
L 198.040449 200.23003 
L 202.053034 197.073199 
L 206.065618 195.225109 
L 210.078202 190.785826 
L 214.090787 189.14728 
L 218.103371 185.232923 
L 222.115955 184.186925 
L 226.128539 177.435425 
L 230.141124 173.194404 
L 234.153708 174.321072 
L 238.166292 166.354656 
L 242.178876 171.740988 
L 246.191461 163.261057 
L 250.204045 162.138007 
L 254.216629 161.300821 
L 258.229213 156.286083 
L 262.241798 158.998249 
L 266.254382 154.683577 
L 270.266966 148.409229 
L 274.279551 135.509047 
L 278.292135 149.422976 
L 282.304719 138.750659 
L 286.317303 139.942366 
L 290.329888 135.060249 
L 294.342472 129.978383 
L 298.355056 120.393874 
L 302.36764 129.36015 
L 306.380225 120.468085 
L 310.392809 122.841014 
L 314.405393 120.234428 
L 318.417978 123.670492 
L 322.430562 113.755186 
L 326.443146 110.044668 
L 330.45573 105.994138 
L 334.468315 106.332211 
L 338.480899 104.533229 
L 342.493483 108.750933 
L 346.506067 106.489375 
L 350.518652 107.290046 
L 354.531236 92.11091 
L 358.54382 93.217297 
L 362.556404 91.014276 
L 366.568989 89.017268 
L 370.581573 97.367593 
L 374.594157 85.798132 
L 378.606742 89.624672 
L 382.619326 86.882903 
L 386.63191 82.744534 
L 390.644494 68.583321 
L 394.657079 67.645529 
L 398.669663 69.914128 
L 402.682247 73.731346 
L 406.694831 57.3692 
L 410.707416 53.568 
" style="fill:none;stroke:#008000;stroke-dasharray:1.5,2.475;stroke-dashoffset:0;stroke-width:1.5;"/>
    <defs>
     <path d="M 0 1.5 
C 0.397805 1.5 0.77937 1.341951 1.06066 1.06066 
C 1.341951 0.77937 1.5 0.397805 1.5 0 
C 1.5 -0.397805 1.341951 -0.77937 1.06066 -1.06066 
C 0.77937 -1.341951 0.397805 -1.5 0 -1.5 
C -0.397805 -1.5 -0.77937 -1.341951 -1.06066 -1.06066 
C -1.341951 -0.77937 -1.5 -0.397805 -1.5 0 
C -1.5 0.397805 -1.341951 0.77937 -1.06066 1.06066 
C -0.77937 1.341951 -0.397805 1.5 0 1.5 
z
" id="md104acaeba" style="stroke:#008000;"/>
    </defs>
    <g clip-path="url(#pd78def79f6)">
     <use style="fill:#008000;stroke:#008000;" x="61.612584" xlink:href="#md104acaeba" y="257.830006"/>
     <use style="fill:#008000;stroke:#008000;" x="65.625169" xlink:href="#md104acaeba" y="254.716407"/>
     <use style="fill:#008000;stroke:#008000;" x="69.637753" xlink:href="#md104acaeba" y="253.650387"/>
     <use style="fill:#008000;stroke:#008000;" x="73.650337" xlink:href="#md104acaeba" y="252.470026"/>
     <use style="fill:#008000;stroke:#008000;" x="77.662921" xlink:href="#md104acaeba" y="251.84796"/>
     <use style="fill:#008000;stroke:#008000;" x="81.675506" xlink:href="#md104acaeba" y="251.313368"/>
     <use style="fill:#008000;stroke:#008000;" x="85.68809" xlink:href="#md104acaeba" y="250.557456"/>
     <use style="fill:#008000;stroke:#008000;" x="89.700674" xlink:href="#md104acaeba" y="249.501275"/>
     <use style="fill:#008000;stroke:#008000;" x="93.713258" xlink:href="#md104acaeba" y="248.195226"/>
     <use style="fill:#008000;stroke:#008000;" x="97.725843" xlink:href="#md104acaeba" y="247.448915"/>
     <use style="fill:#008000;stroke:#008000;" x="101.738427" xlink:href="#md104acaeba" y="246.536507"/>
     <use style="fill:#008000;stroke:#008000;" x="105.751011" xlink:href="#md104acaeba" y="243.963355"/>
     <use style="fill:#008000;stroke:#008000;" x="109.763596" xlink:href="#md104acaeba" y="241.255065"/>
     <use style="fill:#008000;stroke:#008000;" x="113.77618" xlink:href="#md104acaeba" y="240.21051"/>
     <use style="fill:#008000;stroke:#008000;" x="117.788764" xlink:href="#md104acaeba" y="239.088773"/>
     <use style="fill:#008000;stroke:#008000;" x="121.801348" xlink:href="#md104acaeba" y="237.053013"/>
     <use style="fill:#008000;stroke:#008000;" x="125.813933" xlink:href="#md104acaeba" y="234.235698"/>
     <use style="fill:#008000;stroke:#008000;" x="129.826517" xlink:href="#md104acaeba" y="234.752873"/>
     <use style="fill:#008000;stroke:#008000;" x="133.839101" xlink:href="#md104acaeba" y="230.373377"/>
     <use style="fill:#008000;stroke:#008000;" x="137.851685" xlink:href="#md104acaeba" y="229.184124"/>
     <use style="fill:#008000;stroke:#008000;" x="141.86427" xlink:href="#md104acaeba" y="230.263298"/>
     <use style="fill:#008000;stroke:#008000;" x="145.876854" xlink:href="#md104acaeba" y="227.327487"/>
     <use style="fill:#008000;stroke:#008000;" x="149.889438" xlink:href="#md104acaeba" y="226.657928"/>
     <use style="fill:#008000;stroke:#008000;" x="153.902022" xlink:href="#md104acaeba" y="223.973729"/>
     <use style="fill:#008000;stroke:#008000;" x="157.914607" xlink:href="#md104acaeba" y="222.223963"/>
     <use style="fill:#008000;stroke:#008000;" x="161.927191" xlink:href="#md104acaeba" y="216.11877"/>
     <use style="fill:#008000;stroke:#008000;" x="165.939775" xlink:href="#md104acaeba" y="218.724925"/>
     <use style="fill:#008000;stroke:#008000;" x="169.95236" xlink:href="#md104acaeba" y="221.323331"/>
     <use style="fill:#008000;stroke:#008000;" x="173.964944" xlink:href="#md104acaeba" y="214.650477"/>
     <use style="fill:#008000;stroke:#008000;" x="177.977528" xlink:href="#md104acaeba" y="213.488781"/>
     <use style="fill:#008000;stroke:#008000;" x="181.990112" xlink:href="#md104acaeba" y="208.290378"/>
     <use style="fill:#008000;stroke:#008000;" x="186.002697" xlink:href="#md104acaeba" y="210.695364"/>
     <use style="fill:#008000;stroke:#008000;" x="190.015281" xlink:href="#md104acaeba" y="203.897921"/>
     <use style="fill:#008000;stroke:#008000;" x="194.027865" xlink:href="#md104acaeba" y="200.033619"/>
     <use style="fill:#008000;stroke:#008000;" x="198.040449" xlink:href="#md104acaeba" y="200.23003"/>
     <use style="fill:#008000;stroke:#008000;" x="202.053034" xlink:href="#md104acaeba" y="197.073199"/>
     <use style="fill:#008000;stroke:#008000;" x="206.065618" xlink:href="#md104acaeba" y="195.225109"/>
     <use style="fill:#008000;stroke:#008000;" x="210.078202" xlink:href="#md104acaeba" y="190.785826"/>
     <use style="fill:#008000;stroke:#008000;" x="214.090787" xlink:href="#md104acaeba" y="189.14728"/>
     <use style="fill:#008000;stroke:#008000;" x="218.103371" xlink:href="#md104acaeba" y="185.232923"/>
     <use style="fill:#008000;stroke:#008000;" x="222.115955" xlink:href="#md104acaeba" y="184.186925"/>
     <use style="fill:#008000;stroke:#008000;" x="226.128539" xlink:href="#md104acaeba" y="177.435425"/>
     <use style="fill:#008000;stroke:#008000;" x="230.141124" xlink:href="#md104acaeba" y="173.194404"/>
     <use style="fill:#008000;stroke:#008000;" x="234.153708" xlink:href="#md104acaeba" y="174.321072"/>
     <use style="fill:#008000;stroke:#008000;" x="238.166292" xlink:href="#md104acaeba" y="166.354656"/>
     <use style="fill:#008000;stroke:#008000;" x="242.178876" xlink:href="#md104acaeba" y="171.740988"/>
     <use style="fill:#008000;stroke:#008000;" x="246.191461" xlink:href="#md104acaeba" y="163.261057"/>
     <use style="fill:#008000;stroke:#008000;" x="250.204045" xlink:href="#md104acaeba" y="162.138007"/>
     <use style="fill:#008000;stroke:#008000;" x="254.216629" xlink:href="#md104acaeba" y="161.300821"/>
     <use style="fill:#008000;stroke:#008000;" x="258.229213" xlink:href="#md104acaeba" y="156.286083"/>
     <use style="fill:#008000;stroke:#008000;" x="262.241798" xlink:href="#md104acaeba" y="158.998249"/>
     <use style="fill:#008000;stroke:#008000;" x="266.254382" xlink:href="#md104acaeba" y="154.683577"/>
     <use style="fill:#008000;stroke:#008000;" x="270.266966" xlink:href="#md104acaeba" y="148.409229"/>
     <use style="fill:#008000;stroke:#008000;" x="274.279551" xlink:href="#md104acaeba" y="135.509047"/>
     <use style="fill:#008000;stroke:#008000;" x="278.292135" xlink:href="#md104acaeba" y="149.422976"/>
     <use style="fill:#008000;stroke:#008000;" x="282.304719" xlink:href="#md104acaeba" y="138.750659"/>
     <use style="fill:#008000;stroke:#008000;" x="286.317303" xlink:href="#md104acaeba" y="139.942366"/>
     <use style="fill:#008000;stroke:#008000;" x="290.329888" xlink:href="#md104acaeba" y="135.060249"/>
     <use style="fill:#008000;stroke:#008000;" x="294.342472" xlink:href="#md104acaeba" y="129.978383"/>
     <use style="fill:#008000;stroke:#008000;" x="298.355056" xlink:href="#md104acaeba" y="120.393874"/>
     <use style="fill:#008000;stroke:#008000;" x="302.36764" xlink:href="#md104acaeba" y="129.36015"/>
     <use style="fill:#008000;stroke:#008000;" x="306.380225" xlink:href="#md104acaeba" y="120.468085"/>
     <use style="fill:#008000;stroke:#008000;" x="310.392809" xlink:href="#md104acaeba" y="122.841014"/>
     <use style="fill:#008000;stroke:#008000;" x="314.405393" xlink:href="#md104acaeba" y="120.234428"/>
     <use style="fill:#008000;stroke:#008000;" x="318.417978" xlink:href="#md104acaeba" y="123.670492"/>
     <use style="fill:#008000;stroke:#008000;" x="322.430562" xlink:href="#md104acaeba" y="113.755186"/>
     <use style="fill:#008000;stroke:#008000;" x="326.443146" xlink:href="#md104acaeba" y="110.044668"/>
     <use style="fill:#008000;stroke:#008000;" x="330.45573" xlink:href="#md104acaeba" y="105.994138"/>
     <use style="fill:#008000;stroke:#008000;" x="334.468315" xlink:href="#md104acaeba" y="106.332211"/>
     <use style="fill:#008000;stroke:#008000;" x="338.480899" xlink:href="#md104acaeba" y="104.533229"/>
     <use style="fill:#008000;stroke:#008000;" x="342.493483" xlink:href="#md104acaeba" y="108.750933"/>
     <use style="fill:#008000;stroke:#008000;" x="346.506067" xlink:href="#md104acaeba" y="106.489375"/>
     <use style="fill:#008000;stroke:#008000;" x="350.518652" xlink:href="#md104acaeba" y="107.290046"/>
     <use style="fill:#008000;stroke:#008000;" x="354.531236" xlink:href="#md104acaeba" y="92.11091"/>
     <use style="fill:#008000;stroke:#008000;" x="358.54382" xlink:href="#md104acaeba" y="93.217297"/>
     <use style="fill:#008000;stroke:#008000;" x="362.556404" xlink:href="#md104acaeba" y="91.014276"/>
     <use style="fill:#008000;stroke:#008000;" x="366.568989" xlink:href="#md104acaeba" y="89.017268"/>
     <use style="fill:#008000;stroke:#008000;" x="370.581573" xlink:href="#md104acaeba" y="97.367593"/>
     <use style="fill:#008000;stroke:#008000;" x="374.594157" xlink:href="#md104acaeba" y="85.798132"/>
     <use style="fill:#008000;stroke:#008000;" x="378.606742" xlink:href="#md104acaeba" y="89.624672"/>
     <use style="fill:#008000;stroke:#008000;" x="382.619326" xlink:href="#md104acaeba" y="86.882903"/>
     <use style="fill:#008000;stroke:#008000;" x="386.63191" xlink:href="#md104acaeba" y="82.744534"/>
     <use style="fill:#008000;stroke:#008000;" x="390.644494" xlink:href="#md104acaeba" y="68.583321"/>
     <use style="fill:#008000;stroke:#008000;" x="394.657079" xlink:href="#md104acaeba" y="67.645529"/>
     <use style="fill:#008000;stroke:#008000;" x="398.669663" xlink:href="#md104acaeba" y="69.914128"/>
     <use style="fill:#008000;stroke:#008000;" x="402.682247" xlink:href="#md104acaeba" y="73.731346"/>
     <use style="fill:#008000;stroke:#008000;" x="406.694831" xlink:href="#md104acaeba" y="57.3692"/>
     <use style="fill:#008000;stroke:#008000;" x="410.707416" xlink:href="#md104acaeba" y="53.568"/>
    </g>
   </g>
   <g id="patch_3">
    <path d="M 57.6 307.584 
L 57.6 41.472 
" style="fill:none;stroke:#000000;stroke-linecap:square;stroke-linejoin:miter;stroke-width:0.8;"/>
   </g>
   <g id="patch_4">
    <path d="M 414.72 307.584 
L 414.72 41.472 
" style="fill:none;stroke:#000000;stroke-linecap:square;stroke-linejoin:miter;stroke-width:0.8;"/>
   </g>
   <g id="patch_5">
    <path d="M 57.6 307.584 
L 414.72 307.584 
" style="fill:none;stroke:#000000;stroke-linecap:square;stroke-linejoin:miter;stroke-width:0.8;"/>
   </g>
   <g id="patch_6">
    <path d="M 57.6 41.472 
L 414.72 41.472 
" style="fill:none;stroke:#000000;stroke-linecap:square;stroke-linejoin:miter;stroke-width:0.8;"/>
   </g>
   <g id="text_32">
    <!-- pre_transpose41 tr -->
    <g transform="translate(179.245313 35.472)scale(0.12 -0.12)">
     <defs>
      <path d="M 18.109375 8.203125 
L 18.109375 -20.796875 
L 9.078125 -20.796875 
L 9.078125 54.6875 
L 18.109375 54.6875 
L 18.109375 46.390625 
Q 20.953125 51.265625 25.265625 53.625 
Q 29.59375 56 35.59375 56 
Q 45.5625 56 51.78125 48.09375 
Q 58.015625 40.1875 58.015625 27.296875 
Q 58.015625 14.40625 51.78125 6.484375 
Q 45.5625 -1.421875 35.59375 -1.421875 
Q 29.59375 -1.421875 25.265625 0.953125 
Q 20.953125 3.328125 18.109375 8.203125 
z
M 48.6875 27.296875 
Q 48.6875 37.203125 44.609375 42.84375 
Q 40.53125 48.484375 33.40625 48.484375 
Q 26.265625 48.484375 22.1875 42.84375 
Q 18.109375 37.203125 18.109375 27.296875 
Q 18.109375 17.390625 22.1875 11.75 
Q 26.265625 6.109375 33.40625 6.109375 
Q 40.53125 6.109375 44.609375 11.75 
Q 48.6875 17.390625 48.6875 27.296875 
z
" id="DejaVuSans-112"/>
      <path d="M 50.984375 -16.609375 
L 50.984375 -23.578125 
L -0.984375 -23.578125 
L -0.984375 -16.609375 
z
" id="DejaVuSans-95"/>
     </defs>
     <use xlink:href="#DejaVuSans-112"/>
     <use x="63.476562" xlink:href="#DejaVuSans-114"/>
     <use x="102.339844" xlink:href="#DejaVuSans-101"/>
     <use x="163.863281" xlink:href="#DejaVuSans-95"/>
     <use x="213.863281" xlink:href="#DejaVuSans-116"/>
     <use x="253.072266" xlink:href="#DejaVuSans-114"/>
     <use x="294.185547" xlink:href="#DejaVuSans-97"/>
     <use x="355.464844" xlink:href="#DejaVuSans-110"/>
     <use x="418.84375" xlink:href="#DejaVuSans-115"/>
     <use x="470.943359" xlink:href="#DejaVuSans-112"/>
     <use x="534.419922" xlink:href="#DejaVuSans-111"/>
     <use x="595.601562" xlink:href="#DejaVuSans-115"/>
     <use x="647.701172" xlink:href="#DejaVuSans-101"/>
     <use x="709.224609" xlink:href="#DejaVuSans-52"/>
     <use x="772.847656" xlink:href="#DejaVuSans-49"/>
     <use x="836.470703" xlink:href="#DejaVuSans-32"/>
     <use x="868.257812" xlink:href="#DejaVuSans-116"/>
     <use x="907.466797" xlink:href="#DejaVuSans-114"/>
    </g>
   </g>
   <g id="legend_1">
    <g id="patch_7">
     <path d="M 64.6 79.106375 
L 166.460938 79.106375 
Q 168.460938 79.106375 168.460938 77.106375 
L 168.460938 48.472 
Q 168.460938 46.472 166.460938 46.472 
L 64.6 46.472 
Q 62.6 46.472 62.6 48.472 
L 62.6 77.106375 
Q 62.6 79.106375 64.6 79.106375 
z
" style="fill:#ffffff;opacity:0.8;stroke:#cccccc;stroke-linejoin:miter;"/>
    </g>
    <g id="line2d_61">
     <path d="M 66.6 54.570438 
L 86.6 54.570438 
" style="fill:none;stroke:#ff0000;stroke-dasharray:1.5,2.475;stroke-dashoffset:0;stroke-width:1.5;"/>
    </g>
    <g id="line2d_62">
     <g>
      <use style="fill:#ff0000;stroke:#ff0000;" x="76.6" xlink:href="#m4192756479" y="54.570438"/>
     </g>
    </g>
    <g id="text_33">
     <!-- copy_pointers -->
     <g transform="translate(94.6 58.070438)scale(0.1 -0.1)">
      <defs>
       <path d="M 32.171875 -5.078125 
Q 28.375 -14.84375 24.75 -17.8125 
Q 21.140625 -20.796875 15.09375 -20.796875 
L 7.90625 -20.796875 
L 7.90625 -13.28125 
L 13.1875 -13.28125 
Q 16.890625 -13.28125 18.9375 -11.515625 
Q 21 -9.765625 23.484375 -3.21875 
L 25.09375 0.875 
L 2.984375 54.6875 
L 12.5 54.6875 
L 29.59375 11.921875 
L 46.6875 54.6875 
L 56.203125 54.6875 
z
" id="DejaVuSans-121"/>
      </defs>
      <use xlink:href="#DejaVuSans-99"/>
      <use x="54.980469" xlink:href="#DejaVuSans-111"/>
      <use x="116.162109" xlink:href="#DejaVuSans-112"/>
      <use x="179.638672" xlink:href="#DejaVuSans-121"/>
      <use x="238.818359" xlink:href="#DejaVuSans-95"/>
      <use x="288.818359" xlink:href="#DejaVuSans-112"/>
      <use x="352.294922" xlink:href="#DejaVuSans-111"/>
      <use x="413.476562" xlink:href="#DejaVuSans-105"/>
      <use x="441.259766" xlink:href="#DejaVuSans-110"/>
      <use x="504.638672" xlink:href="#DejaVuSans-116"/>
      <use x="543.847656" xlink:href="#DejaVuSans-101"/>
      <use x="605.371094" xlink:href="#DejaVuSans-114"/>
      <use x="646.484375" xlink:href="#DejaVuSans-115"/>
     </g>
    </g>
    <g id="line2d_63">
     <path d="M 66.6 69.526688 
L 86.6 69.526688 
" style="fill:none;stroke:#008000;stroke-dasharray:1.5,2.475;stroke-dashoffset:0;stroke-width:1.5;"/>
    </g>
    <g id="line2d_64">
     <g>
      <use style="fill:#008000;stroke:#008000;" x="76.6" xlink:href="#md104acaeba" y="69.526688"/>
     </g>
    </g>
    <g id="text_34">
     <!-- buckets -->
     <g transform="translate(94.6 73.026688)scale(0.1 -0.1)">
      <defs>
       <path d="M 48.6875 27.296875 
Q 48.6875 37.203125 44.609375 42.84375 
Q 40.53125 48.484375 33.40625 48.484375 
Q 26.265625 48.484375 22.1875 42.84375 
Q 18.109375 37.203125 18.109375 27.296875 
Q 18.109375 17.390625 22.1875 11.75 
Q 26.265625 6.109375 33.40625 6.109375 
Q 40.53125 6.109375 44.609375 11.75 
Q 48.6875 17.390625 48.6875 27.296875 
z
M 18.109375 46.390625 
Q 20.953125 51.265625 25.265625 53.625 
Q 29.59375 56 35.59375 56 
Q 45.5625 56 51.78125 48.09375 
Q 58.015625 40.1875 58.015625 27.296875 
Q 58.015625 14.40625 51.78125 6.484375 
Q 45.5625 -1.421875 35.59375 -1.421875 
Q 29.59375 -1.421875 25.265625 0.953125 
Q 20.953125 3.328125 18.109375 8.203125 
L 18.109375 0 
L 9.078125 0 
L 9.078125 75.984375 
L 18.109375 75.984375 
z
" id="DejaVuSans-98"/>
       <path d="M 9.078125 75.984375 
L 18.109375 75.984375 
L 18.109375 31.109375 
L 44.921875 54.6875 
L 56.390625 54.6875 
L 27.390625 29.109375 
L 57.625 0 
L 45.90625 0 
L 18.109375 26.703125 
L 18.109375 0 
L 9.078125 0 
z
" id="DejaVuSans-107"/>
      </defs>
      <use xlink:href="#DejaVuSans-98"/>
      <use x="63.476562" xlink:href="#DejaVuSans-117"/>
      <use x="126.855469" xlink:href="#DejaVuSans-99"/>
      <use x="181.835938" xlink:href="#DejaVuSans-107"/>
      <use x="236.121094" xlink:href="#DejaVuSans-101"/>
      <use x="297.644531" xlink:href="#DejaVuSans-116"/>
      <use x="336.853516" xlink:href="#DejaVuSans-115"/>
     </g>
    </g>
   </g>
  </g>
  <g id="axes_2">
   <g id="matplotlib.axis_3">
    <g id="ytick_7">
     <g id="line2d_65">
      <defs>
       <path d="M 0 0 
L 3.5 0 
" id="m11ba4cb53c" style="stroke:#000000;stroke-width:0.8;"/>
      </defs>
      <g>
       <use style="stroke:#000000;stroke-width:0.8;" x="414.72" xlink:href="#m11ba4cb53c" y="303.224635"/>
      </g>
     </g>
     <g id="text_35">
      <!-- 0.2 -->
      <g transform="translate(421.72 307.023854)scale(0.1 -0.1)">
       <use xlink:href="#DejaVuSans-48"/>
       <use x="63.623047" xlink:href="#DejaVuSans-46"/>
       <use x="95.410156" xlink:href="#DejaVuSans-50"/>
      </g>
     </g>
    </g>
    <g id="ytick_8">
     <g id="line2d_66">
      <g>
       <use style="stroke:#000000;stroke-width:0.8;" x="414.72" xlink:href="#m11ba4cb53c" y="254.594021"/>
      </g>
     </g>
     <g id="text_36">
      <!-- 0.4 -->
      <g transform="translate(421.72 258.39324)scale(0.1 -0.1)">
       <use xlink:href="#DejaVuSans-48"/>
       <use x="63.623047" xlink:href="#DejaVuSans-46"/>
       <use x="95.410156" xlink:href="#DejaVuSans-52"/>
      </g>
     </g>
    </g>
    <g id="ytick_9">
     <g id="line2d_67">
      <g>
       <use style="stroke:#000000;stroke-width:0.8;" x="414.72" xlink:href="#m11ba4cb53c" y="205.963407"/>
      </g>
     </g>
     <g id="text_37">
      <!-- 0.6 -->
      <g transform="translate(421.72 209.762626)scale(0.1 -0.1)">
       <use xlink:href="#DejaVuSans-48"/>
       <use x="63.623047" xlink:href="#DejaVuSans-46"/>
       <use x="95.410156" xlink:href="#DejaVuSans-54"/>
      </g>
     </g>
    </g>
    <g id="ytick_10">
     <g id="line2d_68">
      <g>
       <use style="stroke:#000000;stroke-width:0.8;" x="414.72" xlink:href="#m11ba4cb53c" y="157.332794"/>
      </g>
     </g>
     <g id="text_38">
      <!-- 0.8 -->
      <g transform="translate(421.72 161.132012)scale(0.1 -0.1)">
       <use xlink:href="#DejaVuSans-48"/>
       <use x="63.623047" xlink:href="#DejaVuSans-46"/>
       <use x="95.410156" xlink:href="#DejaVuSans-56"/>
      </g>
     </g>
    </g>
    <g id="ytick_11">
     <g id="line2d_69">
      <g>
       <use style="stroke:#000000;stroke-width:0.8;" x="414.72" xlink:href="#m11ba4cb53c" y="108.70218"/>
      </g>
     </g>
     <g id="text_39">
      <!-- 1.0 -->
      <g transform="translate(421.72 112.501399)scale(0.1 -0.1)">
       <use xlink:href="#DejaVuSans-49"/>
       <use x="63.623047" xlink:href="#DejaVuSans-46"/>
       <use x="95.410156" xlink:href="#DejaVuSans-48"/>
      </g>
     </g>
    </g>
    <g id="ytick_12">
     <g id="line2d_70">
      <g>
       <use style="stroke:#000000;stroke-width:0.8;" x="414.72" xlink:href="#m11ba4cb53c" y="60.071566"/>
      </g>
     </g>
     <g id="text_40">
      <!-- 1.2 -->
      <g transform="translate(421.72 63.870785)scale(0.1 -0.1)">
       <use xlink:href="#DejaVuSans-49"/>
       <use x="63.623047" xlink:href="#DejaVuSans-46"/>
       <use x="95.410156" xlink:href="#DejaVuSans-50"/>
      </g>
     </g>
    </g>
   </g>
   <g id="line2d_71">
    <path clip-path="url(#pd78def79f6)" d="M 61.612584 295.488 
L 65.625169 292.032508 
L 69.637753 293.403262 
L 73.650337 292.677391 
L 77.662921 292.311181 
L 81.675506 292.266195 
L 85.68809 291.547919 
L 89.700674 290.971617 
L 93.713258 290.513231 
L 97.725843 289.821854 
L 101.738427 288.930242 
L 105.751011 288.1624 
L 109.763596 286.971129 
L 113.77618 281.724934 
L 117.788764 279.842402 
L 121.801348 283.730193 
L 125.813933 279.982579 
L 129.826517 278.311878 
L 133.839101 274.57325 
L 137.851685 273.832249 
L 141.86427 269.118123 
L 145.876854 265.100881 
L 149.889438 266.11238 
L 153.902022 263.881725 
L 157.914607 259.876716 
L 161.927191 258.952639 
L 165.939775 255.101661 
L 169.95236 252.495172 
L 173.964944 249.858422 
L 177.977528 246.108026 
L 181.990112 243.724151 
L 186.002697 242.433283 
L 190.015281 242.521749 
L 194.027865 235.752624 
L 198.040449 233.417851 
L 202.053034 231.253053 
L 206.065618 228.685928 
L 210.078202 224.999881 
L 214.090787 219.311764 
L 218.103371 217.12911 
L 222.115955 215.84491 
L 226.128539 212.155036 
L 230.141124 202.50649 
L 234.153708 206.772085 
L 238.166292 205.674149 
L 242.178876 202.489736 
L 246.191461 198.683107 
L 250.204045 195.132831 
L 254.216629 191.901807 
L 258.229213 189.77214 
L 262.241798 186.008063 
L 266.254382 185.526719 
L 270.266966 185.034825 
L 274.279551 180.085854 
L 278.292135 179.265025 
L 282.304719 175.458976 
L 286.317303 171.307644 
L 290.329888 167.568089 
L 294.342472 164.789886 
L 298.355056 161.335091 
L 302.36764 158.070386 
L 306.380225 156.933435 
L 310.392809 154.592749 
L 314.405393 151.971361 
L 318.417978 145.93002 
L 322.430562 145.175975 
L 326.443146 138.231658 
L 330.45573 135.837116 
L 334.468315 131.311805 
L 338.480899 127.356825 
L 342.493483 124.833817 
L 346.506067 121.519256 
L 350.518652 111.039677 
L 354.531236 106.998724 
L 358.54382 99.678458 
L 362.556404 94.864329 
L 366.568989 92.322886 
L 370.581573 87.807372 
L 374.594157 67.649798 
L 378.606742 74.953542 
L 382.619326 72.987067 
L 386.63191 67.536868 
L 390.644494 68.266622 
L 394.657079 63.792791 
L 398.669663 53.568 
L 402.682247 63.813661 
L 406.694831 65.603842 
L 410.707416 64.035984 
" style="fill:none;stroke:#0000ff;stroke-dasharray:1.5,2.475;stroke-dashoffset:0;stroke-width:1.5;"/>
    <defs>
     <path d="M 0 1.5 
C 0.397805 1.5 0.77937 1.341951 1.06066 1.06066 
C 1.341951 0.77937 1.5 0.397805 1.5 0 
C 1.5 -0.397805 1.341951 -0.77937 1.06066 -1.06066 
C 0.77937 -1.341951 0.397805 -1.5 0 -1.5 
C -0.397805 -1.5 -0.77937 -1.341951 -1.06066 -1.06066 
C -1.341951 -0.77937 -1.5 -0.397805 -1.5 0 
C -1.5 0.397805 -1.341951 0.77937 -1.06066 1.06066 
C -0.77937 1.341951 -0.397805 1.5 0 1.5 
z
" id="m4a53b0eb5d" style="stroke:#0000ff;"/>
    </defs>
    <g clip-path="url(#pd78def79f6)">
     <use style="fill:#0000ff;stroke:#0000ff;" x="61.612584" xlink:href="#m4a53b0eb5d" y="295.488"/>
     <use style="fill:#0000ff;stroke:#0000ff;" x="65.625169" xlink:href="#m4a53b0eb5d" y="292.032508"/>
     <use style="fill:#0000ff;stroke:#0000ff;" x="69.637753" xlink:href="#m4a53b0eb5d" y="293.403262"/>
     <use style="fill:#0000ff;stroke:#0000ff;" x="73.650337" xlink:href="#m4a53b0eb5d" y="292.677391"/>
     <use style="fill:#0000ff;stroke:#0000ff;" x="77.662921" xlink:href="#m4a53b0eb5d" y="292.311181"/>
     <use style="fill:#0000ff;stroke:#0000ff;" x="81.675506" xlink:href="#m4a53b0eb5d" y="292.266195"/>
     <use style="fill:#0000ff;stroke:#0000ff;" x="85.68809" xlink:href="#m4a53b0eb5d" y="291.547919"/>
     <use style="fill:#0000ff;stroke:#0000ff;" x="89.700674" xlink:href="#m4a53b0eb5d" y="290.971617"/>
     <use style="fill:#0000ff;stroke:#0000ff;" x="93.713258" xlink:href="#m4a53b0eb5d" y="290.513231"/>
     <use style="fill:#0000ff;stroke:#0000ff;" x="97.725843" xlink:href="#m4a53b0eb5d" y="289.821854"/>
     <use style="fill:#0000ff;stroke:#0000ff;" x="101.738427" xlink:href="#m4a53b0eb5d" y="288.930242"/>
     <use style="fill:#0000ff;stroke:#0000ff;" x="105.751011" xlink:href="#m4a53b0eb5d" y="288.1624"/>
     <use style="fill:#0000ff;stroke:#0000ff;" x="109.763596" xlink:href="#m4a53b0eb5d" y="286.971129"/>
     <use style="fill:#0000ff;stroke:#0000ff;" x="113.77618" xlink:href="#m4a53b0eb5d" y="281.724934"/>
     <use style="fill:#0000ff;stroke:#0000ff;" x="117.788764" xlink:href="#m4a53b0eb5d" y="279.842402"/>
     <use style="fill:#0000ff;stroke:#0000ff;" x="121.801348" xlink:href="#m4a53b0eb5d" y="283.730193"/>
     <use style="fill:#0000ff;stroke:#0000ff;" x="125.813933" xlink:href="#m4a53b0eb5d" y="279.982579"/>
     <use style="fill:#0000ff;stroke:#0000ff;" x="129.826517" xlink:href="#m4a53b0eb5d" y="278.311878"/>
     <use style="fill:#0000ff;stroke:#0000ff;" x="133.839101" xlink:href="#m4a53b0eb5d" y="274.57325"/>
     <use style="fill:#0000ff;stroke:#0000ff;" x="137.851685" xlink:href="#m4a53b0eb5d" y="273.832249"/>
     <use style="fill:#0000ff;stroke:#0000ff;" x="141.86427" xlink:href="#m4a53b0eb5d" y="269.118123"/>
     <use style="fill:#0000ff;stroke:#0000ff;" x="145.876854" xlink:href="#m4a53b0eb5d" y="265.100881"/>
     <use style="fill:#0000ff;stroke:#0000ff;" x="149.889438" xlink:href="#m4a53b0eb5d" y="266.11238"/>
     <use style="fill:#0000ff;stroke:#0000ff;" x="153.902022" xlink:href="#m4a53b0eb5d" y="263.881725"/>
     <use style="fill:#0000ff;stroke:#0000ff;" x="157.914607" xlink:href="#m4a53b0eb5d" y="259.876716"/>
     <use style="fill:#0000ff;stroke:#0000ff;" x="161.927191" xlink:href="#m4a53b0eb5d" y="258.952639"/>
     <use style="fill:#0000ff;stroke:#0000ff;" x="165.939775" xlink:href="#m4a53b0eb5d" y="255.101661"/>
     <use style="fill:#0000ff;stroke:#0000ff;" x="169.95236" xlink:href="#m4a53b0eb5d" y="252.495172"/>
     <use style="fill:#0000ff;stroke:#0000ff;" x="173.964944" xlink:href="#m4a53b0eb5d" y="249.858422"/>
     <use style="fill:#0000ff;stroke:#0000ff;" x="177.977528" xlink:href="#m4a53b0eb5d" y="246.108026"/>
     <use style="fill:#0000ff;stroke:#0000ff;" x="181.990112" xlink:href="#m4a53b0eb5d" y="243.724151"/>
     <use style="fill:#0000ff;stroke:#0000ff;" x="186.002697" xlink:href="#m4a53b0eb5d" y="242.433283"/>
     <use style="fill:#0000ff;stroke:#0000ff;" x="190.015281" xlink:href="#m4a53b0eb5d" y="242.521749"/>
     <use style="fill:#0000ff;stroke:#0000ff;" x="194.027865" xlink:href="#m4a53b0eb5d" y="235.752624"/>
     <use style="fill:#0000ff;stroke:#0000ff;" x="198.040449" xlink:href="#m4a53b0eb5d" y="233.417851"/>
     <use style="fill:#0000ff;stroke:#0000ff;" x="202.053034" xlink:href="#m4a53b0eb5d" y="231.253053"/>
     <use style="fill:#0000ff;stroke:#0000ff;" x="206.065618" xlink:href="#m4a53b0eb5d" y="228.685928"/>
     <use style="fill:#0000ff;stroke:#0000ff;" x="210.078202" xlink:href="#m4a53b0eb5d" y="224.999881"/>
     <use style="fill:#0000ff;stroke:#0000ff;" x="214.090787" xlink:href="#m4a53b0eb5d" y="219.311764"/>
     <use style="fill:#0000ff;stroke:#0000ff;" x="218.103371" xlink:href="#m4a53b0eb5d" y="217.12911"/>
     <use style="fill:#0000ff;stroke:#0000ff;" x="222.115955" xlink:href="#m4a53b0eb5d" y="215.84491"/>
     <use style="fill:#0000ff;stroke:#0000ff;" x="226.128539" xlink:href="#m4a53b0eb5d" y="212.155036"/>
     <use style="fill:#0000ff;stroke:#0000ff;" x="230.141124" xlink:href="#m4a53b0eb5d" y="202.50649"/>
     <use style="fill:#0000ff;stroke:#0000ff;" x="234.153708" xlink:href="#m4a53b0eb5d" y="206.772085"/>
     <use style="fill:#0000ff;stroke:#0000ff;" x="238.166292" xlink:href="#m4a53b0eb5d" y="205.674149"/>
     <use style="fill:#0000ff;stroke:#0000ff;" x="242.178876" xlink:href="#m4a53b0eb5d" y="202.489736"/>
     <use style="fill:#0000ff;stroke:#0000ff;" x="246.191461" xlink:href="#m4a53b0eb5d" y="198.683107"/>
     <use style="fill:#0000ff;stroke:#0000ff;" x="250.204045" xlink:href="#m4a53b0eb5d" y="195.132831"/>
     <use style="fill:#0000ff;stroke:#0000ff;" x="254.216629" xlink:href="#m4a53b0eb5d" y="191.901807"/>
     <use style="fill:#0000ff;stroke:#0000ff;" x="258.229213" xlink:href="#m4a53b0eb5d" y="189.77214"/>
     <use style="fill:#0000ff;stroke:#0000ff;" x="262.241798" xlink:href="#m4a53b0eb5d" y="186.008063"/>
     <use style="fill:#0000ff;stroke:#0000ff;" x="266.254382" xlink:href="#m4a53b0eb5d" y="185.526719"/>
     <use style="fill:#0000ff;stroke:#0000ff;" x="270.266966" xlink:href="#m4a53b0eb5d" y="185.034825"/>
     <use style="fill:#0000ff;stroke:#0000ff;" x="274.279551" xlink:href="#m4a53b0eb5d" y="180.085854"/>
     <use style="fill:#0000ff;stroke:#0000ff;" x="278.292135" xlink:href="#m4a53b0eb5d" y="179.265025"/>
     <use style="fill:#0000ff;stroke:#0000ff;" x="282.304719" xlink:href="#m4a53b0eb5d" y="175.458976"/>
     <use style="fill:#0000ff;stroke:#0000ff;" x="286.317303" xlink:href="#m4a53b0eb5d" y="171.307644"/>
     <use style="fill:#0000ff;stroke:#0000ff;" x="290.329888" xlink:href="#m4a53b0eb5d" y="167.568089"/>
     <use style="fill:#0000ff;stroke:#0000ff;" x="294.342472" xlink:href="#m4a53b0eb5d" y="164.789886"/>
     <use style="fill:#0000ff;stroke:#0000ff;" x="298.355056" xlink:href="#m4a53b0eb5d" y="161.335091"/>
     <use style="fill:#0000ff;stroke:#0000ff;" x="302.36764" xlink:href="#m4a53b0eb5d" y="158.070386"/>
     <use style="fill:#0000ff;stroke:#0000ff;" x="306.380225" xlink:href="#m4a53b0eb5d" y="156.933435"/>
     <use style="fill:#0000ff;stroke:#0000ff;" x="310.392809" xlink:href="#m4a53b0eb5d" y="154.592749"/>
     <use style="fill:#0000ff;stroke:#0000ff;" x="314.405393" xlink:href="#m4a53b0eb5d" y="151.971361"/>
     <use style="fill:#0000ff;stroke:#0000ff;" x="318.417978" xlink:href="#m4a53b0eb5d" y="145.93002"/>
     <use style="fill:#0000ff;stroke:#0000ff;" x="322.430562" xlink:href="#m4a53b0eb5d" y="145.175975"/>
     <use style="fill:#0000ff;stroke:#0000ff;" x="326.443146" xlink:href="#m4a53b0eb5d" y="138.231658"/>
     <use style="fill:#0000ff;stroke:#0000ff;" x="330.45573" xlink:href="#m4a53b0eb5d" y="135.837116"/>
     <use style="fill:#0000ff;stroke:#0000ff;" x="334.468315" xlink:href="#m4a53b0eb5d" y="131.311805"/>
     <use style="fill:#0000ff;stroke:#0000ff;" x="338.480899" xlink:href="#m4a53b0eb5d" y="127.356825"/>
     <use style="fill:#0000ff;stroke:#0000ff;" x="342.493483" xlink:href="#m4a53b0eb5d" y="124.833817"/>
     <use style="fill:#0000ff;stroke:#0000ff;" x="346.506067" xlink:href="#m4a53b0eb5d" y="121.519256"/>
     <use style="fill:#0000ff;stroke:#0000ff;" x="350.518652" xlink:href="#m4a53b0eb5d" y="111.039677"/>
     <use style="fill:#0000ff;stroke:#0000ff;" x="354.531236" xlink:href="#m4a53b0eb5d" y="106.998724"/>
     <use style="fill:#0000ff;stroke:#0000ff;" x="358.54382" xlink:href="#m4a53b0eb5d" y="99.678458"/>
     <use style="fill:#0000ff;stroke:#0000ff;" x="362.556404" xlink:href="#m4a53b0eb5d" y="94.864329"/>
     <use style="fill:#0000ff;stroke:#0000ff;" x="366.568989" xlink:href="#m4a53b0eb5d" y="92.322886"/>
     <use style="fill:#0000ff;stroke:#0000ff;" x="370.581573" xlink:href="#m4a53b0eb5d" y="87.807372"/>
     <use style="fill:#0000ff;stroke:#0000ff;" x="374.594157" xlink:href="#m4a53b0eb5d" y="67.649798"/>
     <use style="fill:#0000ff;stroke:#0000ff;" x="378.606742" xlink:href="#m4a53b0eb5d" y="74.953542"/>
     <use style="fill:#0000ff;stroke:#0000ff;" x="382.619326" xlink:href="#m4a53b0eb5d" y="72.987067"/>
     <use style="fill:#0000ff;stroke:#0000ff;" x="386.63191" xlink:href="#m4a53b0eb5d" y="67.536868"/>
     <use style="fill:#0000ff;stroke:#0000ff;" x="390.644494" xlink:href="#m4a53b0eb5d" y="68.266622"/>
     <use style="fill:#0000ff;stroke:#0000ff;" x="394.657079" xlink:href="#m4a53b0eb5d" y="63.792791"/>
     <use style="fill:#0000ff;stroke:#0000ff;" x="398.669663" xlink:href="#m4a53b0eb5d" y="53.568"/>
     <use style="fill:#0000ff;stroke:#0000ff;" x="402.682247" xlink:href="#m4a53b0eb5d" y="63.813661"/>
     <use style="fill:#0000ff;stroke:#0000ff;" x="406.694831" xlink:href="#m4a53b0eb5d" y="65.603842"/>
     <use style="fill:#0000ff;stroke:#0000ff;" x="410.707416" xlink:href="#m4a53b0eb5d" y="64.035984"/>
    </g>
   </g>
   <g id="patch_8">
    <path d="M 57.6 307.584 
L 57.6 41.472 
" style="fill:none;stroke:#000000;stroke-linecap:square;stroke-linejoin:miter;stroke-width:0.8;"/>
   </g>
   <g id="patch_9">
    <path d="M 414.72 307.584 
L 414.72 41.472 
" style="fill:none;stroke:#000000;stroke-linecap:square;stroke-linejoin:miter;stroke-width:0.8;"/>
   </g>
   <g id="patch_10">
    <path d="M 57.6 307.584 
L 414.72 307.584 
" style="fill:none;stroke:#000000;stroke-linecap:square;stroke-linejoin:miter;stroke-width:0.8;"/>
   </g>
   <g id="patch_11">
    <path d="M 57.6 41.472 
L 414.72 41.472 
" style="fill:none;stroke:#000000;stroke-linecap:square;stroke-linejoin:miter;stroke-width:0.8;"/>
   </g>
  </g>
 </g>
 <defs>
  <clipPath id="pd78def79f6">
   <rect height="266.112" width="357.12" x="57.6" y="41.472"/>
  </clipPath>
 </defs>
</svg>
