<?xml version="1.0" encoding="utf-8" standalone="no"?>
<!DOCTYPE svg PUBLIC "-//W3C//DTD SVG 1.1//EN"
  "http://www.w3.org/Graphics/SVG/1.1/DTD/svg11.dtd">
<!-- Created with matplotlib (https://matplotlib.org/) -->
<svg height="345.6pt" version="1.1" viewBox="0 0 460.8 345.6" width="460.8pt" xmlns="http://www.w3.org/2000/svg" xmlns:xlink="http://www.w3.org/1999/xlink">
 <metadata>
  <rdf:RDF xmlns:cc="http://creativecommons.org/ns#" xmlns:dc="http://purl.org/dc/elements/1.1/" xmlns:rdf="http://www.w3.org/1999/02/22-rdf-syntax-ns#">
   <cc:Work>
    <dc:type rdf:resource="http://purl.org/dc/dcmitype/StillImage"/>
    <dc:date>2020-08-18T12:14:01.533434</dc:date>
    <dc:format>image/svg+xml</dc:format>
    <dc:creator>
     <cc:Agent>
      <dc:title>Matplotlib v3.3.0, https://matplotlib.org/</dc:title>
     </cc:Agent>
    </dc:creator>
   </cc:Work>
  </rdf:RDF>
 </metadata>
 <defs>
  <style type="text/css">*{stroke-linecap:butt;stroke-linejoin:round;}</style>
 </defs>
 <g id="figure_1">
  <g id="patch_1">
   <path d="M 0 345.6 
L 460.8 345.6 
L 460.8 0 
L 0 0 
z
" style="fill:#ffffff;"/>
  </g>
  <g id="axes_1">
   <g id="patch_2">
    <path d="M 57.6 307.584 
L 414.72 307.584 
L 414.72 41.472 
L 57.6 41.472 
z
" style="fill:#ffffff;"/>
   </g>
   <g id="matplotlib.axis_1">
    <g id="xtick_1">
     <g id="line2d_1">
      <path clip-path="url(#pfb5ca1633a)" d="M 61.612584 307.584 
L 61.612584 41.472 
" style="fill:none;stroke:#b0b0b0;stroke-dasharray:5.12,1.28,0.8,1.28;stroke-dashoffset:0;stroke-width:0.8;"/>
     </g>
     <g id="line2d_2">
      <defs>
       <path d="M 0 0 
L 0 3.5 
" id="mad70441bf6" style="stroke:#000000;stroke-width:0.8;"/>
      </defs>
      <g>
       <use style="stroke:#000000;stroke-width:0.8;" x="61.612584" xlink:href="#mad70441bf6" y="307.584"/>
      </g>
     </g>
     <g id="text_1">
      <!-- 1 -->
      <g transform="translate(58.431334 322.182437)scale(0.1 -0.1)">
       <defs>
        <path d="M 12.40625 8.296875 
L 28.515625 8.296875 
L 28.515625 63.921875 
L 10.984375 60.40625 
L 10.984375 69.390625 
L 28.421875 72.90625 
L 38.28125 72.90625 
L 38.28125 8.296875 
L 54.390625 8.296875 
L 54.390625 0 
L 12.40625 0 
z
" id="DejaVuSans-49"/>
       </defs>
       <use xlink:href="#DejaVuSans-49"/>
      </g>
     </g>
    </g>
    <g id="xtick_2">
     <g id="line2d_3">
      <path clip-path="url(#pfb5ca1633a)" d="M 73.650337 307.584 
L 73.650337 41.472 
" style="fill:none;stroke:#b0b0b0;stroke-dasharray:5.12,1.28,0.8,1.28;stroke-dashoffset:0;stroke-width:0.8;"/>
     </g>
     <g id="line2d_4">
      <g>
       <use style="stroke:#000000;stroke-width:0.8;" x="73.650337" xlink:href="#mad70441bf6" y="307.584"/>
      </g>
     </g>
     <g id="text_2">
      <!-- 4 -->
      <g transform="translate(70.469087 322.182437)scale(0.1 -0.1)">
       <defs>
        <path d="M 37.796875 64.3125 
L 12.890625 25.390625 
L 37.796875 25.390625 
z
M 35.203125 72.90625 
L 47.609375 72.90625 
L 47.609375 25.390625 
L 58.015625 25.390625 
L 58.015625 17.1875 
L 47.609375 17.1875 
L 47.609375 0 
L 37.796875 0 
L 37.796875 17.1875 
L 4.890625 17.1875 
L 4.890625 26.703125 
z
" id="DejaVuSans-52"/>
       </defs>
       <use xlink:href="#DejaVuSans-52"/>
      </g>
     </g>
    </g>
    <g id="xtick_3">
     <g id="line2d_5">
      <path clip-path="url(#pfb5ca1633a)" d="M 89.700674 307.584 
L 89.700674 41.472 
" style="fill:none;stroke:#b0b0b0;stroke-dasharray:5.12,1.28,0.8,1.28;stroke-dashoffset:0;stroke-width:0.8;"/>
     </g>
     <g id="line2d_6">
      <g>
       <use style="stroke:#000000;stroke-width:0.8;" x="89.700674" xlink:href="#mad70441bf6" y="307.584"/>
      </g>
     </g>
     <g id="text_3">
      <!-- 8 -->
      <g transform="translate(86.519424 322.182437)scale(0.1 -0.1)">
       <defs>
        <path d="M 31.78125 34.625 
Q 24.75 34.625 20.71875 30.859375 
Q 16.703125 27.09375 16.703125 20.515625 
Q 16.703125 13.921875 20.71875 10.15625 
Q 24.75 6.390625 31.78125 6.390625 
Q 38.8125 6.390625 42.859375 10.171875 
Q 46.921875 13.96875 46.921875 20.515625 
Q 46.921875 27.09375 42.890625 30.859375 
Q 38.875 34.625 31.78125 34.625 
z
M 21.921875 38.8125 
Q 15.578125 40.375 12.03125 44.71875 
Q 8.5 49.078125 8.5 55.328125 
Q 8.5 64.0625 14.71875 69.140625 
Q 20.953125 74.21875 31.78125 74.21875 
Q 42.671875 74.21875 48.875 69.140625 
Q 55.078125 64.0625 55.078125 55.328125 
Q 55.078125 49.078125 51.53125 44.71875 
Q 48 40.375 41.703125 38.8125 
Q 48.828125 37.15625 52.796875 32.3125 
Q 56.78125 27.484375 56.78125 20.515625 
Q 56.78125 9.90625 50.3125 4.234375 
Q 43.84375 -1.421875 31.78125 -1.421875 
Q 19.734375 -1.421875 13.25 4.234375 
Q 6.78125 9.90625 6.78125 20.515625 
Q 6.78125 27.484375 10.78125 32.3125 
Q 14.796875 37.15625 21.921875 38.8125 
z
M 18.3125 54.390625 
Q 18.3125 48.734375 21.84375 45.5625 
Q 25.390625 42.390625 31.78125 42.390625 
Q 38.140625 42.390625 41.71875 45.5625 
Q 45.3125 48.734375 45.3125 54.390625 
Q 45.3125 60.0625 41.71875 63.234375 
Q 38.140625 66.40625 31.78125 66.40625 
Q 25.390625 66.40625 21.84375 63.234375 
Q 18.3125 60.0625 18.3125 54.390625 
z
" id="DejaVuSans-56"/>
       </defs>
       <use xlink:href="#DejaVuSans-56"/>
      </g>
     </g>
    </g>
    <g id="xtick_4">
     <g id="line2d_7">
      <path clip-path="url(#pfb5ca1633a)" d="M 105.751011 307.584 
L 105.751011 41.472 
" style="fill:none;stroke:#b0b0b0;stroke-dasharray:5.12,1.28,0.8,1.28;stroke-dashoffset:0;stroke-width:0.8;"/>
     </g>
     <g id="line2d_8">
      <g>
       <use style="stroke:#000000;stroke-width:0.8;" x="105.751011" xlink:href="#mad70441bf6" y="307.584"/>
      </g>
     </g>
     <g id="text_4">
      <!-- 12 -->
      <g transform="translate(99.388511 322.182437)scale(0.1 -0.1)">
       <defs>
        <path d="M 19.1875 8.296875 
L 53.609375 8.296875 
L 53.609375 0 
L 7.328125 0 
L 7.328125 8.296875 
Q 12.9375 14.109375 22.625 23.890625 
Q 32.328125 33.6875 34.8125 36.53125 
Q 39.546875 41.84375 41.421875 45.53125 
Q 43.3125 49.21875 43.3125 52.78125 
Q 43.3125 58.59375 39.234375 62.25 
Q 35.15625 65.921875 28.609375 65.921875 
Q 23.96875 65.921875 18.8125 64.3125 
Q 13.671875 62.703125 7.8125 59.421875 
L 7.8125 69.390625 
Q 13.765625 71.78125 18.9375 73 
Q 24.125 74.21875 28.421875 74.21875 
Q 39.75 74.21875 46.484375 68.546875 
Q 53.21875 62.890625 53.21875 53.421875 
Q 53.21875 48.921875 51.53125 44.890625 
Q 49.859375 40.875 45.40625 35.40625 
Q 44.1875 33.984375 37.640625 27.21875 
Q 31.109375 20.453125 19.1875 8.296875 
z
" id="DejaVuSans-50"/>
       </defs>
       <use xlink:href="#DejaVuSans-49"/>
       <use x="63.623047" xlink:href="#DejaVuSans-50"/>
      </g>
     </g>
    </g>
    <g id="xtick_5">
     <g id="line2d_9">
      <path clip-path="url(#pfb5ca1633a)" d="M 121.801348 307.584 
L 121.801348 41.472 
" style="fill:none;stroke:#b0b0b0;stroke-dasharray:5.12,1.28,0.8,1.28;stroke-dashoffset:0;stroke-width:0.8;"/>
     </g>
     <g id="line2d_10">
      <g>
       <use style="stroke:#000000;stroke-width:0.8;" x="121.801348" xlink:href="#mad70441bf6" y="307.584"/>
      </g>
     </g>
     <g id="text_5">
      <!-- 16 -->
      <g transform="translate(115.438848 322.182437)scale(0.1 -0.1)">
       <defs>
        <path d="M 33.015625 40.375 
Q 26.375 40.375 22.484375 35.828125 
Q 18.609375 31.296875 18.609375 23.390625 
Q 18.609375 15.53125 22.484375 10.953125 
Q 26.375 6.390625 33.015625 6.390625 
Q 39.65625 6.390625 43.53125 10.953125 
Q 47.40625 15.53125 47.40625 23.390625 
Q 47.40625 31.296875 43.53125 35.828125 
Q 39.65625 40.375 33.015625 40.375 
z
M 52.59375 71.296875 
L 52.59375 62.3125 
Q 48.875 64.0625 45.09375 64.984375 
Q 41.3125 65.921875 37.59375 65.921875 
Q 27.828125 65.921875 22.671875 59.328125 
Q 17.53125 52.734375 16.796875 39.40625 
Q 19.671875 43.65625 24.015625 45.921875 
Q 28.375 48.1875 33.59375 48.1875 
Q 44.578125 48.1875 50.953125 41.515625 
Q 57.328125 34.859375 57.328125 23.390625 
Q 57.328125 12.15625 50.6875 5.359375 
Q 44.046875 -1.421875 33.015625 -1.421875 
Q 20.359375 -1.421875 13.671875 8.265625 
Q 6.984375 17.96875 6.984375 36.375 
Q 6.984375 53.65625 15.1875 63.9375 
Q 23.390625 74.21875 37.203125 74.21875 
Q 40.921875 74.21875 44.703125 73.484375 
Q 48.484375 72.75 52.59375 71.296875 
z
" id="DejaVuSans-54"/>
       </defs>
       <use xlink:href="#DejaVuSans-49"/>
       <use x="63.623047" xlink:href="#DejaVuSans-54"/>
      </g>
     </g>
    </g>
    <g id="xtick_6">
     <g id="line2d_11">
      <path clip-path="url(#pfb5ca1633a)" d="M 137.851685 307.584 
L 137.851685 41.472 
" style="fill:none;stroke:#b0b0b0;stroke-dasharray:5.12,1.28,0.8,1.28;stroke-dashoffset:0;stroke-width:0.8;"/>
     </g>
     <g id="line2d_12">
      <g>
       <use style="stroke:#000000;stroke-width:0.8;" x="137.851685" xlink:href="#mad70441bf6" y="307.584"/>
      </g>
     </g>
     <g id="text_6">
      <!-- 20 -->
      <g transform="translate(131.489185 322.182437)scale(0.1 -0.1)">
       <defs>
        <path d="M 31.78125 66.40625 
Q 24.171875 66.40625 20.328125 58.90625 
Q 16.5 51.421875 16.5 36.375 
Q 16.5 21.390625 20.328125 13.890625 
Q 24.171875 6.390625 31.78125 6.390625 
Q 39.453125 6.390625 43.28125 13.890625 
Q 47.125 21.390625 47.125 36.375 
Q 47.125 51.421875 43.28125 58.90625 
Q 39.453125 66.40625 31.78125 66.40625 
z
M 31.78125 74.21875 
Q 44.046875 74.21875 50.515625 64.515625 
Q 56.984375 54.828125 56.984375 36.375 
Q 56.984375 17.96875 50.515625 8.265625 
Q 44.046875 -1.421875 31.78125 -1.421875 
Q 19.53125 -1.421875 13.0625 8.265625 
Q 6.59375 17.96875 6.59375 36.375 
Q 6.59375 54.828125 13.0625 64.515625 
Q 19.53125 74.21875 31.78125 74.21875 
z
" id="DejaVuSans-48"/>
       </defs>
       <use xlink:href="#DejaVuSans-50"/>
       <use x="63.623047" xlink:href="#DejaVuSans-48"/>
      </g>
     </g>
    </g>
    <g id="xtick_7">
     <g id="line2d_13">
      <path clip-path="url(#pfb5ca1633a)" d="M 153.902022 307.584 
L 153.902022 41.472 
" style="fill:none;stroke:#b0b0b0;stroke-dasharray:5.12,1.28,0.8,1.28;stroke-dashoffset:0;stroke-width:0.8;"/>
     </g>
     <g id="line2d_14">
      <g>
       <use style="stroke:#000000;stroke-width:0.8;" x="153.902022" xlink:href="#mad70441bf6" y="307.584"/>
      </g>
     </g>
     <g id="text_7">
      <!-- 24 -->
      <g transform="translate(147.539522 322.182437)scale(0.1 -0.1)">
       <use xlink:href="#DejaVuSans-50"/>
       <use x="63.623047" xlink:href="#DejaVuSans-52"/>
      </g>
     </g>
    </g>
    <g id="xtick_8">
     <g id="line2d_15">
      <path clip-path="url(#pfb5ca1633a)" d="M 169.95236 307.584 
L 169.95236 41.472 
" style="fill:none;stroke:#b0b0b0;stroke-dasharray:5.12,1.28,0.8,1.28;stroke-dashoffset:0;stroke-width:0.8;"/>
     </g>
     <g id="line2d_16">
      <g>
       <use style="stroke:#000000;stroke-width:0.8;" x="169.95236" xlink:href="#mad70441bf6" y="307.584"/>
      </g>
     </g>
     <g id="text_8">
      <!-- 28 -->
      <g transform="translate(163.58986 322.182437)scale(0.1 -0.1)">
       <use xlink:href="#DejaVuSans-50"/>
       <use x="63.623047" xlink:href="#DejaVuSans-56"/>
      </g>
     </g>
    </g>
    <g id="xtick_9">
     <g id="line2d_17">
      <path clip-path="url(#pfb5ca1633a)" d="M 186.002697 307.584 
L 186.002697 41.472 
" style="fill:none;stroke:#b0b0b0;stroke-dasharray:5.12,1.28,0.8,1.28;stroke-dashoffset:0;stroke-width:0.8;"/>
     </g>
     <g id="line2d_18">
      <g>
       <use style="stroke:#000000;stroke-width:0.8;" x="186.002697" xlink:href="#mad70441bf6" y="307.584"/>
      </g>
     </g>
     <g id="text_9">
      <!-- 32 -->
      <g transform="translate(179.640197 322.182437)scale(0.1 -0.1)">
       <defs>
        <path d="M 40.578125 39.3125 
Q 47.65625 37.796875 51.625 33 
Q 55.609375 28.21875 55.609375 21.1875 
Q 55.609375 10.40625 48.1875 4.484375 
Q 40.765625 -1.421875 27.09375 -1.421875 
Q 22.515625 -1.421875 17.65625 -0.515625 
Q 12.796875 0.390625 7.625 2.203125 
L 7.625 11.71875 
Q 11.71875 9.328125 16.59375 8.109375 
Q 21.484375 6.890625 26.8125 6.890625 
Q 36.078125 6.890625 40.9375 10.546875 
Q 45.796875 14.203125 45.796875 21.1875 
Q 45.796875 27.640625 41.28125 31.265625 
Q 36.765625 34.90625 28.71875 34.90625 
L 20.21875 34.90625 
L 20.21875 43.015625 
L 29.109375 43.015625 
Q 36.375 43.015625 40.234375 45.921875 
Q 44.09375 48.828125 44.09375 54.296875 
Q 44.09375 59.90625 40.109375 62.90625 
Q 36.140625 65.921875 28.71875 65.921875 
Q 24.65625 65.921875 20.015625 65.03125 
Q 15.375 64.15625 9.8125 62.3125 
L 9.8125 71.09375 
Q 15.4375 72.65625 20.34375 73.4375 
Q 25.25 74.21875 29.59375 74.21875 
Q 40.828125 74.21875 47.359375 69.109375 
Q 53.90625 64.015625 53.90625 55.328125 
Q 53.90625 49.265625 50.4375 45.09375 
Q 46.96875 40.921875 40.578125 39.3125 
z
" id="DejaVuSans-51"/>
       </defs>
       <use xlink:href="#DejaVuSans-51"/>
       <use x="63.623047" xlink:href="#DejaVuSans-50"/>
      </g>
     </g>
    </g>
    <g id="xtick_10">
     <g id="line2d_19">
      <path clip-path="url(#pfb5ca1633a)" d="M 202.053034 307.584 
L 202.053034 41.472 
" style="fill:none;stroke:#b0b0b0;stroke-dasharray:5.12,1.28,0.8,1.28;stroke-dashoffset:0;stroke-width:0.8;"/>
     </g>
     <g id="line2d_20">
      <g>
       <use style="stroke:#000000;stroke-width:0.8;" x="202.053034" xlink:href="#mad70441bf6" y="307.584"/>
      </g>
     </g>
     <g id="text_10">
      <!-- 36 -->
      <g transform="translate(195.690534 322.182437)scale(0.1 -0.1)">
       <use xlink:href="#DejaVuSans-51"/>
       <use x="63.623047" xlink:href="#DejaVuSans-54"/>
      </g>
     </g>
    </g>
    <g id="xtick_11">
     <g id="line2d_21">
      <path clip-path="url(#pfb5ca1633a)" d="M 218.103371 307.584 
L 218.103371 41.472 
" style="fill:none;stroke:#b0b0b0;stroke-dasharray:5.12,1.28,0.8,1.28;stroke-dashoffset:0;stroke-width:0.8;"/>
     </g>
     <g id="line2d_22">
      <g>
       <use style="stroke:#000000;stroke-width:0.8;" x="218.103371" xlink:href="#mad70441bf6" y="307.584"/>
      </g>
     </g>
     <g id="text_11">
      <!-- 40 -->
      <g transform="translate(211.740871 322.182437)scale(0.1 -0.1)">
       <use xlink:href="#DejaVuSans-52"/>
       <use x="63.623047" xlink:href="#DejaVuSans-48"/>
      </g>
     </g>
    </g>
    <g id="xtick_12">
     <g id="line2d_23">
      <path clip-path="url(#pfb5ca1633a)" d="M 234.153708 307.584 
L 234.153708 41.472 
" style="fill:none;stroke:#b0b0b0;stroke-dasharray:5.12,1.28,0.8,1.28;stroke-dashoffset:0;stroke-width:0.8;"/>
     </g>
     <g id="line2d_24">
      <g>
       <use style="stroke:#000000;stroke-width:0.8;" x="234.153708" xlink:href="#mad70441bf6" y="307.584"/>
      </g>
     </g>
     <g id="text_12">
      <!-- 44 -->
      <g transform="translate(227.791208 322.182437)scale(0.1 -0.1)">
       <use xlink:href="#DejaVuSans-52"/>
       <use x="63.623047" xlink:href="#DejaVuSans-52"/>
      </g>
     </g>
    </g>
    <g id="xtick_13">
     <g id="line2d_25">
      <path clip-path="url(#pfb5ca1633a)" d="M 250.204045 307.584 
L 250.204045 41.472 
" style="fill:none;stroke:#b0b0b0;stroke-dasharray:5.12,1.28,0.8,1.28;stroke-dashoffset:0;stroke-width:0.8;"/>
     </g>
     <g id="line2d_26">
      <g>
       <use style="stroke:#000000;stroke-width:0.8;" x="250.204045" xlink:href="#mad70441bf6" y="307.584"/>
      </g>
     </g>
     <g id="text_13">
      <!-- 48 -->
      <g transform="translate(243.841545 322.182437)scale(0.1 -0.1)">
       <use xlink:href="#DejaVuSans-52"/>
       <use x="63.623047" xlink:href="#DejaVuSans-56"/>
      </g>
     </g>
    </g>
    <g id="xtick_14">
     <g id="line2d_27">
      <path clip-path="url(#pfb5ca1633a)" d="M 266.254382 307.584 
L 266.254382 41.472 
" style="fill:none;stroke:#b0b0b0;stroke-dasharray:5.12,1.28,0.8,1.28;stroke-dashoffset:0;stroke-width:0.8;"/>
     </g>
     <g id="line2d_28">
      <g>
       <use style="stroke:#000000;stroke-width:0.8;" x="266.254382" xlink:href="#mad70441bf6" y="307.584"/>
      </g>
     </g>
     <g id="text_14">
      <!-- 52 -->
      <g transform="translate(259.891882 322.182437)scale(0.1 -0.1)">
       <defs>
        <path d="M 10.796875 72.90625 
L 49.515625 72.90625 
L 49.515625 64.59375 
L 19.828125 64.59375 
L 19.828125 46.734375 
Q 21.96875 47.46875 24.109375 47.828125 
Q 26.265625 48.1875 28.421875 48.1875 
Q 40.625 48.1875 47.75 41.5 
Q 54.890625 34.8125 54.890625 23.390625 
Q 54.890625 11.625 47.5625 5.09375 
Q 40.234375 -1.421875 26.90625 -1.421875 
Q 22.3125 -1.421875 17.546875 -0.640625 
Q 12.796875 0.140625 7.71875 1.703125 
L 7.71875 11.625 
Q 12.109375 9.234375 16.796875 8.0625 
Q 21.484375 6.890625 26.703125 6.890625 
Q 35.15625 6.890625 40.078125 11.328125 
Q 45.015625 15.765625 45.015625 23.390625 
Q 45.015625 31 40.078125 35.4375 
Q 35.15625 39.890625 26.703125 39.890625 
Q 22.75 39.890625 18.8125 39.015625 
Q 14.890625 38.140625 10.796875 36.28125 
z
" id="DejaVuSans-53"/>
       </defs>
       <use xlink:href="#DejaVuSans-53"/>
       <use x="63.623047" xlink:href="#DejaVuSans-50"/>
      </g>
     </g>
    </g>
    <g id="xtick_15">
     <g id="line2d_29">
      <path clip-path="url(#pfb5ca1633a)" d="M 282.304719 307.584 
L 282.304719 41.472 
" style="fill:none;stroke:#b0b0b0;stroke-dasharray:5.12,1.28,0.8,1.28;stroke-dashoffset:0;stroke-width:0.8;"/>
     </g>
     <g id="line2d_30">
      <g>
       <use style="stroke:#000000;stroke-width:0.8;" x="282.304719" xlink:href="#mad70441bf6" y="307.584"/>
      </g>
     </g>
     <g id="text_15">
      <!-- 56 -->
      <g transform="translate(275.942219 322.182437)scale(0.1 -0.1)">
       <use xlink:href="#DejaVuSans-53"/>
       <use x="63.623047" xlink:href="#DejaVuSans-54"/>
      </g>
     </g>
    </g>
    <g id="xtick_16">
     <g id="line2d_31">
      <path clip-path="url(#pfb5ca1633a)" d="M 298.355056 307.584 
L 298.355056 41.472 
" style="fill:none;stroke:#b0b0b0;stroke-dasharray:5.12,1.28,0.8,1.28;stroke-dashoffset:0;stroke-width:0.8;"/>
     </g>
     <g id="line2d_32">
      <g>
       <use style="stroke:#000000;stroke-width:0.8;" x="298.355056" xlink:href="#mad70441bf6" y="307.584"/>
      </g>
     </g>
     <g id="text_16">
      <!-- 60 -->
      <g transform="translate(291.992556 322.182437)scale(0.1 -0.1)">
       <use xlink:href="#DejaVuSans-54"/>
       <use x="63.623047" xlink:href="#DejaVuSans-48"/>
      </g>
     </g>
    </g>
    <g id="xtick_17">
     <g id="line2d_33">
      <path clip-path="url(#pfb5ca1633a)" d="M 314.405393 307.584 
L 314.405393 41.472 
" style="fill:none;stroke:#b0b0b0;stroke-dasharray:5.12,1.28,0.8,1.28;stroke-dashoffset:0;stroke-width:0.8;"/>
     </g>
     <g id="line2d_34">
      <g>
       <use style="stroke:#000000;stroke-width:0.8;" x="314.405393" xlink:href="#mad70441bf6" y="307.584"/>
      </g>
     </g>
     <g id="text_17">
      <!-- 64 -->
      <g transform="translate(308.042893 322.182437)scale(0.1 -0.1)">
       <use xlink:href="#DejaVuSans-54"/>
       <use x="63.623047" xlink:href="#DejaVuSans-52"/>
      </g>
     </g>
    </g>
    <g id="xtick_18">
     <g id="line2d_35">
      <path clip-path="url(#pfb5ca1633a)" d="M 330.45573 307.584 
L 330.45573 41.472 
" style="fill:none;stroke:#b0b0b0;stroke-dasharray:5.12,1.28,0.8,1.28;stroke-dashoffset:0;stroke-width:0.8;"/>
     </g>
     <g id="line2d_36">
      <g>
       <use style="stroke:#000000;stroke-width:0.8;" x="330.45573" xlink:href="#mad70441bf6" y="307.584"/>
      </g>
     </g>
     <g id="text_18">
      <!-- 68 -->
      <g transform="translate(324.09323 322.182437)scale(0.1 -0.1)">
       <use xlink:href="#DejaVuSans-54"/>
       <use x="63.623047" xlink:href="#DejaVuSans-56"/>
      </g>
     </g>
    </g>
    <g id="xtick_19">
     <g id="line2d_37">
      <path clip-path="url(#pfb5ca1633a)" d="M 346.506067 307.584 
L 346.506067 41.472 
" style="fill:none;stroke:#b0b0b0;stroke-dasharray:5.12,1.28,0.8,1.28;stroke-dashoffset:0;stroke-width:0.8;"/>
     </g>
     <g id="line2d_38">
      <g>
       <use style="stroke:#000000;stroke-width:0.8;" x="346.506067" xlink:href="#mad70441bf6" y="307.584"/>
      </g>
     </g>
     <g id="text_19">
      <!-- 72 -->
      <g transform="translate(340.143567 322.182437)scale(0.1 -0.1)">
       <defs>
        <path d="M 8.203125 72.90625 
L 55.078125 72.90625 
L 55.078125 68.703125 
L 28.609375 0 
L 18.3125 0 
L 43.21875 64.59375 
L 8.203125 64.59375 
z
" id="DejaVuSans-55"/>
       </defs>
       <use xlink:href="#DejaVuSans-55"/>
       <use x="63.623047" xlink:href="#DejaVuSans-50"/>
      </g>
     </g>
    </g>
    <g id="xtick_20">
     <g id="line2d_39">
      <path clip-path="url(#pfb5ca1633a)" d="M 362.556404 307.584 
L 362.556404 41.472 
" style="fill:none;stroke:#b0b0b0;stroke-dasharray:5.12,1.28,0.8,1.28;stroke-dashoffset:0;stroke-width:0.8;"/>
     </g>
     <g id="line2d_40">
      <g>
       <use style="stroke:#000000;stroke-width:0.8;" x="362.556404" xlink:href="#mad70441bf6" y="307.584"/>
      </g>
     </g>
     <g id="text_20">
      <!-- 76 -->
      <g transform="translate(356.193904 322.182437)scale(0.1 -0.1)">
       <use xlink:href="#DejaVuSans-55"/>
       <use x="63.623047" xlink:href="#DejaVuSans-54"/>
      </g>
     </g>
    </g>
    <g id="xtick_21">
     <g id="line2d_41">
      <path clip-path="url(#pfb5ca1633a)" d="M 378.606742 307.584 
L 378.606742 41.472 
" style="fill:none;stroke:#b0b0b0;stroke-dasharray:5.12,1.28,0.8,1.28;stroke-dashoffset:0;stroke-width:0.8;"/>
     </g>
     <g id="line2d_42">
      <g>
       <use style="stroke:#000000;stroke-width:0.8;" x="378.606742" xlink:href="#mad70441bf6" y="307.584"/>
      </g>
     </g>
     <g id="text_21">
      <!-- 80 -->
      <g transform="translate(372.244242 322.182437)scale(0.1 -0.1)">
       <use xlink:href="#DejaVuSans-56"/>
       <use x="63.623047" xlink:href="#DejaVuSans-48"/>
      </g>
     </g>
    </g>
    <g id="xtick_22">
     <g id="line2d_43">
      <path clip-path="url(#pfb5ca1633a)" d="M 394.657079 307.584 
L 394.657079 41.472 
" style="fill:none;stroke:#b0b0b0;stroke-dasharray:5.12,1.28,0.8,1.28;stroke-dashoffset:0;stroke-width:0.8;"/>
     </g>
     <g id="line2d_44">
      <g>
       <use style="stroke:#000000;stroke-width:0.8;" x="394.657079" xlink:href="#mad70441bf6" y="307.584"/>
      </g>
     </g>
     <g id="text_22">
      <!-- 84 -->
      <g transform="translate(388.294579 322.182437)scale(0.1 -0.1)">
       <use xlink:href="#DejaVuSans-56"/>
       <use x="63.623047" xlink:href="#DejaVuSans-52"/>
      </g>
     </g>
    </g>
    <g id="xtick_23">
     <g id="line2d_45">
      <path clip-path="url(#pfb5ca1633a)" d="M 410.707416 307.584 
L 410.707416 41.472 
" style="fill:none;stroke:#b0b0b0;stroke-dasharray:5.12,1.28,0.8,1.28;stroke-dashoffset:0;stroke-width:0.8;"/>
     </g>
     <g id="line2d_46">
      <g>
       <use style="stroke:#000000;stroke-width:0.8;" x="410.707416" xlink:href="#mad70441bf6" y="307.584"/>
      </g>
     </g>
     <g id="text_23">
      <!-- 88 -->
      <g transform="translate(404.344916 322.182437)scale(0.1 -0.1)">
       <use xlink:href="#DejaVuSans-56"/>
       <use x="63.623047" xlink:href="#DejaVuSans-56"/>
      </g>
     </g>
    </g>
    <g id="text_24">
     <!-- threads -->
     <g transform="translate(217.168594 335.860562)scale(0.1 -0.1)">
      <defs>
       <path d="M 18.3125 70.21875 
L 18.3125 54.6875 
L 36.8125 54.6875 
L 36.8125 47.703125 
L 18.3125 47.703125 
L 18.3125 18.015625 
Q 18.3125 11.328125 20.140625 9.421875 
Q 21.96875 7.515625 27.59375 7.515625 
L 36.8125 7.515625 
L 36.8125 0 
L 27.59375 0 
Q 17.1875 0 13.234375 3.875 
Q 9.28125 7.765625 9.28125 18.015625 
L 9.28125 47.703125 
L 2.6875 47.703125 
L 2.6875 54.6875 
L 9.28125 54.6875 
L 9.28125 70.21875 
z
" id="DejaVuSans-116"/>
       <path d="M 54.890625 33.015625 
L 54.890625 0 
L 45.90625 0 
L 45.90625 32.71875 
Q 45.90625 40.484375 42.875 44.328125 
Q 39.84375 48.1875 33.796875 48.1875 
Q 26.515625 48.1875 22.3125 43.546875 
Q 18.109375 38.921875 18.109375 30.90625 
L 18.109375 0 
L 9.078125 0 
L 9.078125 75.984375 
L 18.109375 75.984375 
L 18.109375 46.1875 
Q 21.34375 51.125 25.703125 53.5625 
Q 30.078125 56 35.796875 56 
Q 45.21875 56 50.046875 50.171875 
Q 54.890625 44.34375 54.890625 33.015625 
z
" id="DejaVuSans-104"/>
       <path d="M 41.109375 46.296875 
Q 39.59375 47.171875 37.8125 47.578125 
Q 36.03125 48 33.890625 48 
Q 26.265625 48 22.1875 43.046875 
Q 18.109375 38.09375 18.109375 28.8125 
L 18.109375 0 
L 9.078125 0 
L 9.078125 54.6875 
L 18.109375 54.6875 
L 18.109375 46.1875 
Q 20.953125 51.171875 25.484375 53.578125 
Q 30.03125 56 36.53125 56 
Q 37.453125 56 38.578125 55.875 
Q 39.703125 55.765625 41.0625 55.515625 
z
" id="DejaVuSans-114"/>
       <path d="M 56.203125 29.59375 
L 56.203125 25.203125 
L 14.890625 25.203125 
Q 15.484375 15.921875 20.484375 11.0625 
Q 25.484375 6.203125 34.421875 6.203125 
Q 39.59375 6.203125 44.453125 7.46875 
Q 49.3125 8.734375 54.109375 11.28125 
L 54.109375 2.78125 
Q 49.265625 0.734375 44.1875 -0.34375 
Q 39.109375 -1.421875 33.890625 -1.421875 
Q 20.796875 -1.421875 13.15625 6.1875 
Q 5.515625 13.8125 5.515625 26.8125 
Q 5.515625 40.234375 12.765625 48.109375 
Q 20.015625 56 32.328125 56 
Q 43.359375 56 49.78125 48.890625 
Q 56.203125 41.796875 56.203125 29.59375 
z
M 47.21875 32.234375 
Q 47.125 39.59375 43.09375 43.984375 
Q 39.0625 48.390625 32.421875 48.390625 
Q 24.90625 48.390625 20.390625 44.140625 
Q 15.875 39.890625 15.1875 32.171875 
z
" id="DejaVuSans-101"/>
       <path d="M 34.28125 27.484375 
Q 23.390625 27.484375 19.1875 25 
Q 14.984375 22.515625 14.984375 16.5 
Q 14.984375 11.71875 18.140625 8.90625 
Q 21.296875 6.109375 26.703125 6.109375 
Q 34.1875 6.109375 38.703125 11.40625 
Q 43.21875 16.703125 43.21875 25.484375 
L 43.21875 27.484375 
z
M 52.203125 31.203125 
L 52.203125 0 
L 43.21875 0 
L 43.21875 8.296875 
Q 40.140625 3.328125 35.546875 0.953125 
Q 30.953125 -1.421875 24.3125 -1.421875 
Q 15.921875 -1.421875 10.953125 3.296875 
Q 6 8.015625 6 15.921875 
Q 6 25.140625 12.171875 29.828125 
Q 18.359375 34.515625 30.609375 34.515625 
L 43.21875 34.515625 
L 43.21875 35.40625 
Q 43.21875 41.609375 39.140625 45 
Q 35.0625 48.390625 27.6875 48.390625 
Q 23 48.390625 18.546875 47.265625 
Q 14.109375 46.140625 10.015625 43.890625 
L 10.015625 52.203125 
Q 14.9375 54.109375 19.578125 55.046875 
Q 24.21875 56 28.609375 56 
Q 40.484375 56 46.34375 49.84375 
Q 52.203125 43.703125 52.203125 31.203125 
z
" id="DejaVuSans-97"/>
       <path d="M 45.40625 46.390625 
L 45.40625 75.984375 
L 54.390625 75.984375 
L 54.390625 0 
L 45.40625 0 
L 45.40625 8.203125 
Q 42.578125 3.328125 38.25 0.953125 
Q 33.9375 -1.421875 27.875 -1.421875 
Q 17.96875 -1.421875 11.734375 6.484375 
Q 5.515625 14.40625 5.515625 27.296875 
Q 5.515625 40.1875 11.734375 48.09375 
Q 17.96875 56 27.875 56 
Q 33.9375 56 38.25 53.625 
Q 42.578125 51.265625 45.40625 46.390625 
z
M 14.796875 27.296875 
Q 14.796875 17.390625 18.875 11.75 
Q 22.953125 6.109375 30.078125 6.109375 
Q 37.203125 6.109375 41.296875 11.75 
Q 45.40625 17.390625 45.40625 27.296875 
Q 45.40625 37.203125 41.296875 42.84375 
Q 37.203125 48.484375 30.078125 48.484375 
Q 22.953125 48.484375 18.875 42.84375 
Q 14.796875 37.203125 14.796875 27.296875 
z
" id="DejaVuSans-100"/>
       <path d="M 44.28125 53.078125 
L 44.28125 44.578125 
Q 40.484375 46.53125 36.375 47.5 
Q 32.28125 48.484375 27.875 48.484375 
Q 21.1875 48.484375 17.84375 46.4375 
Q 14.5 44.390625 14.5 40.28125 
Q 14.5 37.15625 16.890625 35.375 
Q 19.28125 33.59375 26.515625 31.984375 
L 29.59375 31.296875 
Q 39.15625 29.25 43.1875 25.515625 
Q 47.21875 21.78125 47.21875 15.09375 
Q 47.21875 7.46875 41.1875 3.015625 
Q 35.15625 -1.421875 24.609375 -1.421875 
Q 20.21875 -1.421875 15.453125 -0.5625 
Q 10.6875 0.296875 5.421875 2 
L 5.421875 11.28125 
Q 10.40625 8.6875 15.234375 7.390625 
Q 20.0625 6.109375 24.8125 6.109375 
Q 31.15625 6.109375 34.5625 8.28125 
Q 37.984375 10.453125 37.984375 14.40625 
Q 37.984375 18.0625 35.515625 20.015625 
Q 33.0625 21.96875 24.703125 23.78125 
L 21.578125 24.515625 
Q 13.234375 26.265625 9.515625 29.90625 
Q 5.8125 33.546875 5.8125 39.890625 
Q 5.8125 47.609375 11.28125 51.796875 
Q 16.75 56 26.8125 56 
Q 31.78125 56 36.171875 55.265625 
Q 40.578125 54.546875 44.28125 53.078125 
z
" id="DejaVuSans-115"/>
      </defs>
      <use xlink:href="#DejaVuSans-116"/>
      <use x="39.208984" xlink:href="#DejaVuSans-104"/>
      <use x="102.587891" xlink:href="#DejaVuSans-114"/>
      <use x="141.451172" xlink:href="#DejaVuSans-101"/>
      <use x="202.974609" xlink:href="#DejaVuSans-97"/>
      <use x="264.253906" xlink:href="#DejaVuSans-100"/>
      <use x="327.730469" xlink:href="#DejaVuSans-115"/>
     </g>
    </g>
   </g>
   <g id="matplotlib.axis_2">
    <g id="ytick_1">
     <g id="line2d_47">
      <path clip-path="url(#pfb5ca1633a)" d="M 57.6 296.366334 
L 414.72 296.366334 
" style="fill:none;stroke:#b0b0b0;stroke-dasharray:5.12,1.28,0.8,1.28;stroke-dashoffset:0;stroke-width:0.8;"/>
     </g>
     <g id="line2d_48">
      <defs>
       <path d="M 0 0 
L -3.5 0 
" id="m322a640d1d" style="stroke:#000000;stroke-width:0.8;"/>
      </defs>
      <g>
       <use style="stroke:#000000;stroke-width:0.8;" x="57.6" xlink:href="#m322a640d1d" y="296.366334"/>
      </g>
     </g>
     <g id="text_25">
      <!-- 0 -->
      <g transform="translate(44.2375 300.165553)scale(0.1 -0.1)">
       <use xlink:href="#DejaVuSans-48"/>
      </g>
     </g>
    </g>
    <g id="ytick_2">
     <g id="line2d_49">
      <path clip-path="url(#pfb5ca1633a)" d="M 57.6 264.897527 
L 414.72 264.897527 
" style="fill:none;stroke:#b0b0b0;stroke-dasharray:5.12,1.28,0.8,1.28;stroke-dashoffset:0;stroke-width:0.8;"/>
     </g>
     <g id="line2d_50">
      <g>
       <use style="stroke:#000000;stroke-width:0.8;" x="57.6" xlink:href="#m322a640d1d" y="264.897527"/>
      </g>
     </g>
     <g id="text_26">
      <!-- 50 -->
      <g transform="translate(37.875 268.696746)scale(0.1 -0.1)">
       <use xlink:href="#DejaVuSans-53"/>
       <use x="63.623047" xlink:href="#DejaVuSans-48"/>
      </g>
     </g>
    </g>
    <g id="ytick_3">
     <g id="line2d_51">
      <path clip-path="url(#pfb5ca1633a)" d="M 57.6 233.428719 
L 414.72 233.428719 
" style="fill:none;stroke:#b0b0b0;stroke-dasharray:5.12,1.28,0.8,1.28;stroke-dashoffset:0;stroke-width:0.8;"/>
     </g>
     <g id="line2d_52">
      <g>
       <use style="stroke:#000000;stroke-width:0.8;" x="57.6" xlink:href="#m322a640d1d" y="233.428719"/>
      </g>
     </g>
     <g id="text_27">
      <!-- 100 -->
      <g transform="translate(31.5125 237.227938)scale(0.1 -0.1)">
       <use xlink:href="#DejaVuSans-49"/>
       <use x="63.623047" xlink:href="#DejaVuSans-48"/>
       <use x="127.246094" xlink:href="#DejaVuSans-48"/>
      </g>
     </g>
    </g>
    <g id="ytick_4">
     <g id="line2d_53">
      <path clip-path="url(#pfb5ca1633a)" d="M 57.6 201.959912 
L 414.72 201.959912 
" style="fill:none;stroke:#b0b0b0;stroke-dasharray:5.12,1.28,0.8,1.28;stroke-dashoffset:0;stroke-width:0.8;"/>
     </g>
     <g id="line2d_54">
      <g>
       <use style="stroke:#000000;stroke-width:0.8;" x="57.6" xlink:href="#m322a640d1d" y="201.959912"/>
      </g>
     </g>
     <g id="text_28">
      <!-- 150 -->
      <g transform="translate(31.5125 205.75913)scale(0.1 -0.1)">
       <use xlink:href="#DejaVuSans-49"/>
       <use x="63.623047" xlink:href="#DejaVuSans-53"/>
       <use x="127.246094" xlink:href="#DejaVuSans-48"/>
      </g>
     </g>
    </g>
    <g id="ytick_5">
     <g id="line2d_55">
      <path clip-path="url(#pfb5ca1633a)" d="M 57.6 170.491104 
L 414.72 170.491104 
" style="fill:none;stroke:#b0b0b0;stroke-dasharray:5.12,1.28,0.8,1.28;stroke-dashoffset:0;stroke-width:0.8;"/>
     </g>
     <g id="line2d_56">
      <g>
       <use style="stroke:#000000;stroke-width:0.8;" x="57.6" xlink:href="#m322a640d1d" y="170.491104"/>
      </g>
     </g>
     <g id="text_29">
      <!-- 200 -->
      <g transform="translate(31.5125 174.290323)scale(0.1 -0.1)">
       <use xlink:href="#DejaVuSans-50"/>
       <use x="63.623047" xlink:href="#DejaVuSans-48"/>
       <use x="127.246094" xlink:href="#DejaVuSans-48"/>
      </g>
     </g>
    </g>
    <g id="ytick_6">
     <g id="line2d_57">
      <path clip-path="url(#pfb5ca1633a)" d="M 57.6 139.022296 
L 414.72 139.022296 
" style="fill:none;stroke:#b0b0b0;stroke-dasharray:5.12,1.28,0.8,1.28;stroke-dashoffset:0;stroke-width:0.8;"/>
     </g>
     <g id="line2d_58">
      <g>
       <use style="stroke:#000000;stroke-width:0.8;" x="57.6" xlink:href="#m322a640d1d" y="139.022296"/>
      </g>
     </g>
     <g id="text_30">
      <!-- 250 -->
      <g transform="translate(31.5125 142.821515)scale(0.1 -0.1)">
       <use xlink:href="#DejaVuSans-50"/>
       <use x="63.623047" xlink:href="#DejaVuSans-53"/>
       <use x="127.246094" xlink:href="#DejaVuSans-48"/>
      </g>
     </g>
    </g>
    <g id="ytick_7">
     <g id="line2d_59">
      <path clip-path="url(#pfb5ca1633a)" d="M 57.6 107.553489 
L 414.72 107.553489 
" style="fill:none;stroke:#b0b0b0;stroke-dasharray:5.12,1.28,0.8,1.28;stroke-dashoffset:0;stroke-width:0.8;"/>
     </g>
     <g id="line2d_60">
      <g>
       <use style="stroke:#000000;stroke-width:0.8;" x="57.6" xlink:href="#m322a640d1d" y="107.553489"/>
      </g>
     </g>
     <g id="text_31">
      <!-- 300 -->
      <g transform="translate(31.5125 111.352707)scale(0.1 -0.1)">
       <use xlink:href="#DejaVuSans-51"/>
       <use x="63.623047" xlink:href="#DejaVuSans-48"/>
       <use x="127.246094" xlink:href="#DejaVuSans-48"/>
      </g>
     </g>
    </g>
    <g id="ytick_8">
     <g id="line2d_61">
      <path clip-path="url(#pfb5ca1633a)" d="M 57.6 76.084681 
L 414.72 76.084681 
" style="fill:none;stroke:#b0b0b0;stroke-dasharray:5.12,1.28,0.8,1.28;stroke-dashoffset:0;stroke-width:0.8;"/>
     </g>
     <g id="line2d_62">
      <g>
       <use style="stroke:#000000;stroke-width:0.8;" x="57.6" xlink:href="#m322a640d1d" y="76.084681"/>
      </g>
     </g>
     <g id="text_32">
      <!-- 350 -->
      <g transform="translate(31.5125 79.8839)scale(0.1 -0.1)">
       <use xlink:href="#DejaVuSans-51"/>
       <use x="63.623047" xlink:href="#DejaVuSans-53"/>
       <use x="127.246094" xlink:href="#DejaVuSans-48"/>
      </g>
     </g>
    </g>
    <g id="ytick_9">
     <g id="line2d_63">
      <path clip-path="url(#pfb5ca1633a)" d="M 57.6 44.615873 
L 414.72 44.615873 
" style="fill:none;stroke:#b0b0b0;stroke-dasharray:5.12,1.28,0.8,1.28;stroke-dashoffset:0;stroke-width:0.8;"/>
     </g>
     <g id="line2d_64">
      <g>
       <use style="stroke:#000000;stroke-width:0.8;" x="57.6" xlink:href="#m322a640d1d" y="44.615873"/>
      </g>
     </g>
     <g id="text_33">
      <!-- 400 -->
      <g transform="translate(31.5125 48.415092)scale(0.1 -0.1)">
       <use xlink:href="#DejaVuSans-52"/>
       <use x="63.623047" xlink:href="#DejaVuSans-48"/>
       <use x="127.246094" xlink:href="#DejaVuSans-48"/>
      </g>
     </g>
    </g>
    <g id="text_34">
     <!-- speed up -->
     <g transform="translate(25.432812 197.566281)rotate(-90)scale(0.1 -0.1)">
      <defs>
       <path d="M 18.109375 8.203125 
L 18.109375 -20.796875 
L 9.078125 -20.796875 
L 9.078125 54.6875 
L 18.109375 54.6875 
L 18.109375 46.390625 
Q 20.953125 51.265625 25.265625 53.625 
Q 29.59375 56 35.59375 56 
Q 45.5625 56 51.78125 48.09375 
Q 58.015625 40.1875 58.015625 27.296875 
Q 58.015625 14.40625 51.78125 6.484375 
Q 45.5625 -1.421875 35.59375 -1.421875 
Q 29.59375 -1.421875 25.265625 0.953125 
Q 20.953125 3.328125 18.109375 8.203125 
z
M 48.6875 27.296875 
Q 48.6875 37.203125 44.609375 42.84375 
Q 40.53125 48.484375 33.40625 48.484375 
Q 26.265625 48.484375 22.1875 42.84375 
Q 18.109375 37.203125 18.109375 27.296875 
Q 18.109375 17.390625 22.1875 11.75 
Q 26.265625 6.109375 33.40625 6.109375 
Q 40.53125 6.109375 44.609375 11.75 
Q 48.6875 17.390625 48.6875 27.296875 
z
" id="DejaVuSans-112"/>
       <path id="DejaVuSans-32"/>
       <path d="M 8.5 21.578125 
L 8.5 54.6875 
L 17.484375 54.6875 
L 17.484375 21.921875 
Q 17.484375 14.15625 20.5 10.265625 
Q 23.53125 6.390625 29.59375 6.390625 
Q 36.859375 6.390625 41.078125 11.03125 
Q 45.3125 15.671875 45.3125 23.6875 
L 45.3125 54.6875 
L 54.296875 54.6875 
L 54.296875 0 
L 45.3125 0 
L 45.3125 8.40625 
Q 42.046875 3.421875 37.71875 1 
Q 33.40625 -1.421875 27.6875 -1.421875 
Q 18.265625 -1.421875 13.375 4.4375 
Q 8.5 10.296875 8.5 21.578125 
z
M 31.109375 56 
z
" id="DejaVuSans-117"/>
      </defs>
      <use xlink:href="#DejaVuSans-115"/>
      <use x="52.099609" xlink:href="#DejaVuSans-112"/>
      <use x="115.576172" xlink:href="#DejaVuSans-101"/>
      <use x="177.099609" xlink:href="#DejaVuSans-101"/>
      <use x="238.623047" xlink:href="#DejaVuSans-100"/>
      <use x="302.099609" xlink:href="#DejaVuSans-32"/>
      <use x="333.886719" xlink:href="#DejaVuSans-117"/>
      <use x="397.265625" xlink:href="#DejaVuSans-112"/>
     </g>
    </g>
   </g>
   <g id="line2d_65">
    <path clip-path="url(#pfb5ca1633a)" d="M 61.612584 53.568 
L 65.625169 222.604815 
L 69.637753 209.597306 
L 73.650337 217.285062 
L 77.662921 224.527447 
L 81.675506 225.831802 
L 85.68809 230.702908 
L 89.700674 232.731202 
L 93.713258 237.061129 
L 97.725843 239.189267 
L 101.738427 237.531602 
L 105.751011 240.065271 
L 109.763596 242.546411 
L 113.77618 243.625036 
L 117.788764 243.618216 
L 121.801348 246.008161 
L 125.813933 250.447028 
L 129.826517 250.452196 
L 133.839101 251.889047 
L 137.851685 256.008048 
L 141.86427 257.702713 
L 145.876854 256.356408 
L 149.889438 262.10044 
L 153.902022 261.089918 
L 157.914607 260.676318 
L 161.927191 261.707383 
L 165.939775 271.29866 
L 169.95236 260.744886 
L 173.964944 268.844494 
L 177.977528 264.595854 
L 181.990112 264.563652 
L 186.002697 268.612289 
L 190.015281 267.188852 
L 194.027865 268.762545 
L 198.040449 269.132979 
L 202.053034 273.858957 
L 206.065618 271.36013 
L 210.078202 270.61337 
L 214.090787 271.476098 
L 218.103371 272.4383 
L 222.115955 277.49687 
L 226.128539 271.625557 
L 230.141124 273.907288 
L 234.153708 274.462071 
L 238.166292 274.841205 
L 242.178876 275.637541 
L 246.191461 276.833643 
L 250.204045 274.82074 
L 254.216629 275.951881 
L 258.229213 276.045446 
L 262.241798 276.355483 
L 266.254382 276.845794 
L 270.266966 280.799369 
L 274.279551 278.90481 
L 278.292135 276.975709 
L 282.304719 279.739023 
L 286.317303 278.074801 
L 290.329888 278.298421 
L 294.342472 278.95995 
L 298.355056 278.791961 
L 302.36764 279.580967 
L 306.380225 279.352728 
L 310.392809 279.74783 
L 314.405393 280.084803 
L 318.417978 280.347594 
L 322.430562 280.362678 
L 326.443146 287.919776 
L 330.45573 280.796992 
L 334.468315 291.788319 
L 338.480899 280.366444 
L 342.493483 280.192615 
L 346.506067 280.802932 
L 350.518652 281.135342 
L 354.531236 282.052002 
L 358.54382 284.949485 
L 362.556404 282.100563 
L 366.568989 282.218818 
L 370.581573 282.981993 
L 374.594157 282.226174 
L 378.606742 282.540112 
L 382.619326 288.889591 
L 386.63191 282.93793 
L 390.644494 292.680624 
L 394.657079 283.404746 
L 398.669663 294.314404 
L 402.682247 294.243872 
L 406.694831 293.48054 
L 410.707416 293.494761 
" style="fill:none;stroke:#0000ff;stroke-dasharray:1.5,2.475;stroke-dashoffset:0;stroke-width:1.5;"/>
    <defs>
     <path d="M 0 1.5 
C 0.397805 1.5 0.77937 1.341951 1.06066 1.06066 
C 1.341951 0.77937 1.5 0.397805 1.5 0 
C 1.5 -0.397805 1.341951 -0.77937 1.06066 -1.06066 
C 0.77937 -1.341951 0.397805 -1.5 0 -1.5 
C -0.397805 -1.5 -0.77937 -1.341951 -1.06066 -1.06066 
C -1.341951 -0.77937 -1.5 -0.397805 -1.5 0 
C -1.5 0.397805 -1.341951 0.77937 -1.06066 1.06066 
C -0.77937 1.341951 -0.397805 1.5 0 1.5 
z
" id="md90b1ed847" style="stroke:#0000ff;"/>
    </defs>
    <g clip-path="url(#pfb5ca1633a)">
     <use style="fill:#0000ff;stroke:#0000ff;" x="61.612584" xlink:href="#md90b1ed847" y="53.568"/>
     <use style="fill:#0000ff;stroke:#0000ff;" x="65.625169" xlink:href="#md90b1ed847" y="222.604815"/>
     <use style="fill:#0000ff;stroke:#0000ff;" x="69.637753" xlink:href="#md90b1ed847" y="209.597306"/>
     <use style="fill:#0000ff;stroke:#0000ff;" x="73.650337" xlink:href="#md90b1ed847" y="217.285062"/>
     <use style="fill:#0000ff;stroke:#0000ff;" x="77.662921" xlink:href="#md90b1ed847" y="224.527447"/>
     <use style="fill:#0000ff;stroke:#0000ff;" x="81.675506" xlink:href="#md90b1ed847" y="225.831802"/>
     <use style="fill:#0000ff;stroke:#0000ff;" x="85.68809" xlink:href="#md90b1ed847" y="230.702908"/>
     <use style="fill:#0000ff;stroke:#0000ff;" x="89.700674" xlink:href="#md90b1ed847" y="232.731202"/>
     <use style="fill:#0000ff;stroke:#0000ff;" x="93.713258" xlink:href="#md90b1ed847" y="237.061129"/>
     <use style="fill:#0000ff;stroke:#0000ff;" x="97.725843" xlink:href="#md90b1ed847" y="239.189267"/>
     <use style="fill:#0000ff;stroke:#0000ff;" x="101.738427" xlink:href="#md90b1ed847" y="237.531602"/>
     <use style="fill:#0000ff;stroke:#0000ff;" x="105.751011" xlink:href="#md90b1ed847" y="240.065271"/>
     <use style="fill:#0000ff;stroke:#0000ff;" x="109.763596" xlink:href="#md90b1ed847" y="242.546411"/>
     <use style="fill:#0000ff;stroke:#0000ff;" x="113.77618" xlink:href="#md90b1ed847" y="243.625036"/>
     <use style="fill:#0000ff;stroke:#0000ff;" x="117.788764" xlink:href="#md90b1ed847" y="243.618216"/>
     <use style="fill:#0000ff;stroke:#0000ff;" x="121.801348" xlink:href="#md90b1ed847" y="246.008161"/>
     <use style="fill:#0000ff;stroke:#0000ff;" x="125.813933" xlink:href="#md90b1ed847" y="250.447028"/>
     <use style="fill:#0000ff;stroke:#0000ff;" x="129.826517" xlink:href="#md90b1ed847" y="250.452196"/>
     <use style="fill:#0000ff;stroke:#0000ff;" x="133.839101" xlink:href="#md90b1ed847" y="251.889047"/>
     <use style="fill:#0000ff;stroke:#0000ff;" x="137.851685" xlink:href="#md90b1ed847" y="256.008048"/>
     <use style="fill:#0000ff;stroke:#0000ff;" x="141.86427" xlink:href="#md90b1ed847" y="257.702713"/>
     <use style="fill:#0000ff;stroke:#0000ff;" x="145.876854" xlink:href="#md90b1ed847" y="256.356408"/>
     <use style="fill:#0000ff;stroke:#0000ff;" x="149.889438" xlink:href="#md90b1ed847" y="262.10044"/>
     <use style="fill:#0000ff;stroke:#0000ff;" x="153.902022" xlink:href="#md90b1ed847" y="261.089918"/>
     <use style="fill:#0000ff;stroke:#0000ff;" x="157.914607" xlink:href="#md90b1ed847" y="260.676318"/>
     <use style="fill:#0000ff;stroke:#0000ff;" x="161.927191" xlink:href="#md90b1ed847" y="261.707383"/>
     <use style="fill:#0000ff;stroke:#0000ff;" x="165.939775" xlink:href="#md90b1ed847" y="271.29866"/>
     <use style="fill:#0000ff;stroke:#0000ff;" x="169.95236" xlink:href="#md90b1ed847" y="260.744886"/>
     <use style="fill:#0000ff;stroke:#0000ff;" x="173.964944" xlink:href="#md90b1ed847" y="268.844494"/>
     <use style="fill:#0000ff;stroke:#0000ff;" x="177.977528" xlink:href="#md90b1ed847" y="264.595854"/>
     <use style="fill:#0000ff;stroke:#0000ff;" x="181.990112" xlink:href="#md90b1ed847" y="264.563652"/>
     <use style="fill:#0000ff;stroke:#0000ff;" x="186.002697" xlink:href="#md90b1ed847" y="268.612289"/>
     <use style="fill:#0000ff;stroke:#0000ff;" x="190.015281" xlink:href="#md90b1ed847" y="267.188852"/>
     <use style="fill:#0000ff;stroke:#0000ff;" x="194.027865" xlink:href="#md90b1ed847" y="268.762545"/>
     <use style="fill:#0000ff;stroke:#0000ff;" x="198.040449" xlink:href="#md90b1ed847" y="269.132979"/>
     <use style="fill:#0000ff;stroke:#0000ff;" x="202.053034" xlink:href="#md90b1ed847" y="273.858957"/>
     <use style="fill:#0000ff;stroke:#0000ff;" x="206.065618" xlink:href="#md90b1ed847" y="271.36013"/>
     <use style="fill:#0000ff;stroke:#0000ff;" x="210.078202" xlink:href="#md90b1ed847" y="270.61337"/>
     <use style="fill:#0000ff;stroke:#0000ff;" x="214.090787" xlink:href="#md90b1ed847" y="271.476098"/>
     <use style="fill:#0000ff;stroke:#0000ff;" x="218.103371" xlink:href="#md90b1ed847" y="272.4383"/>
     <use style="fill:#0000ff;stroke:#0000ff;" x="222.115955" xlink:href="#md90b1ed847" y="277.49687"/>
     <use style="fill:#0000ff;stroke:#0000ff;" x="226.128539" xlink:href="#md90b1ed847" y="271.625557"/>
     <use style="fill:#0000ff;stroke:#0000ff;" x="230.141124" xlink:href="#md90b1ed847" y="273.907288"/>
     <use style="fill:#0000ff;stroke:#0000ff;" x="234.153708" xlink:href="#md90b1ed847" y="274.462071"/>
     <use style="fill:#0000ff;stroke:#0000ff;" x="238.166292" xlink:href="#md90b1ed847" y="274.841205"/>
     <use style="fill:#0000ff;stroke:#0000ff;" x="242.178876" xlink:href="#md90b1ed847" y="275.637541"/>
     <use style="fill:#0000ff;stroke:#0000ff;" x="246.191461" xlink:href="#md90b1ed847" y="276.833643"/>
     <use style="fill:#0000ff;stroke:#0000ff;" x="250.204045" xlink:href="#md90b1ed847" y="274.82074"/>
     <use style="fill:#0000ff;stroke:#0000ff;" x="254.216629" xlink:href="#md90b1ed847" y="275.951881"/>
     <use style="fill:#0000ff;stroke:#0000ff;" x="258.229213" xlink:href="#md90b1ed847" y="276.045446"/>
     <use style="fill:#0000ff;stroke:#0000ff;" x="262.241798" xlink:href="#md90b1ed847" y="276.355483"/>
     <use style="fill:#0000ff;stroke:#0000ff;" x="266.254382" xlink:href="#md90b1ed847" y="276.845794"/>
     <use style="fill:#0000ff;stroke:#0000ff;" x="270.266966" xlink:href="#md90b1ed847" y="280.799369"/>
     <use style="fill:#0000ff;stroke:#0000ff;" x="274.279551" xlink:href="#md90b1ed847" y="278.90481"/>
     <use style="fill:#0000ff;stroke:#0000ff;" x="278.292135" xlink:href="#md90b1ed847" y="276.975709"/>
     <use style="fill:#0000ff;stroke:#0000ff;" x="282.304719" xlink:href="#md90b1ed847" y="279.739023"/>
     <use style="fill:#0000ff;stroke:#0000ff;" x="286.317303" xlink:href="#md90b1ed847" y="278.074801"/>
     <use style="fill:#0000ff;stroke:#0000ff;" x="290.329888" xlink:href="#md90b1ed847" y="278.298421"/>
     <use style="fill:#0000ff;stroke:#0000ff;" x="294.342472" xlink:href="#md90b1ed847" y="278.95995"/>
     <use style="fill:#0000ff;stroke:#0000ff;" x="298.355056" xlink:href="#md90b1ed847" y="278.791961"/>
     <use style="fill:#0000ff;stroke:#0000ff;" x="302.36764" xlink:href="#md90b1ed847" y="279.580967"/>
     <use style="fill:#0000ff;stroke:#0000ff;" x="306.380225" xlink:href="#md90b1ed847" y="279.352728"/>
     <use style="fill:#0000ff;stroke:#0000ff;" x="310.392809" xlink:href="#md90b1ed847" y="279.74783"/>
     <use style="fill:#0000ff;stroke:#0000ff;" x="314.405393" xlink:href="#md90b1ed847" y="280.084803"/>
     <use style="fill:#0000ff;stroke:#0000ff;" x="318.417978" xlink:href="#md90b1ed847" y="280.347594"/>
     <use style="fill:#0000ff;stroke:#0000ff;" x="322.430562" xlink:href="#md90b1ed847" y="280.362678"/>
     <use style="fill:#0000ff;stroke:#0000ff;" x="326.443146" xlink:href="#md90b1ed847" y="287.919776"/>
     <use style="fill:#0000ff;stroke:#0000ff;" x="330.45573" xlink:href="#md90b1ed847" y="280.796992"/>
     <use style="fill:#0000ff;stroke:#0000ff;" x="334.468315" xlink:href="#md90b1ed847" y="291.788319"/>
     <use style="fill:#0000ff;stroke:#0000ff;" x="338.480899" xlink:href="#md90b1ed847" y="280.366444"/>
     <use style="fill:#0000ff;stroke:#0000ff;" x="342.493483" xlink:href="#md90b1ed847" y="280.192615"/>
     <use style="fill:#0000ff;stroke:#0000ff;" x="346.506067" xlink:href="#md90b1ed847" y="280.802932"/>
     <use style="fill:#0000ff;stroke:#0000ff;" x="350.518652" xlink:href="#md90b1ed847" y="281.135342"/>
     <use style="fill:#0000ff;stroke:#0000ff;" x="354.531236" xlink:href="#md90b1ed847" y="282.052002"/>
     <use style="fill:#0000ff;stroke:#0000ff;" x="358.54382" xlink:href="#md90b1ed847" y="284.949485"/>
     <use style="fill:#0000ff;stroke:#0000ff;" x="362.556404" xlink:href="#md90b1ed847" y="282.100563"/>
     <use style="fill:#0000ff;stroke:#0000ff;" x="366.568989" xlink:href="#md90b1ed847" y="282.218818"/>
     <use style="fill:#0000ff;stroke:#0000ff;" x="370.581573" xlink:href="#md90b1ed847" y="282.981993"/>
     <use style="fill:#0000ff;stroke:#0000ff;" x="374.594157" xlink:href="#md90b1ed847" y="282.226174"/>
     <use style="fill:#0000ff;stroke:#0000ff;" x="378.606742" xlink:href="#md90b1ed847" y="282.540112"/>
     <use style="fill:#0000ff;stroke:#0000ff;" x="382.619326" xlink:href="#md90b1ed847" y="288.889591"/>
     <use style="fill:#0000ff;stroke:#0000ff;" x="386.63191" xlink:href="#md90b1ed847" y="282.93793"/>
     <use style="fill:#0000ff;stroke:#0000ff;" x="390.644494" xlink:href="#md90b1ed847" y="292.680624"/>
     <use style="fill:#0000ff;stroke:#0000ff;" x="394.657079" xlink:href="#md90b1ed847" y="283.404746"/>
     <use style="fill:#0000ff;stroke:#0000ff;" x="398.669663" xlink:href="#md90b1ed847" y="294.314404"/>
     <use style="fill:#0000ff;stroke:#0000ff;" x="402.682247" xlink:href="#md90b1ed847" y="294.243872"/>
     <use style="fill:#0000ff;stroke:#0000ff;" x="406.694831" xlink:href="#md90b1ed847" y="293.48054"/>
     <use style="fill:#0000ff;stroke:#0000ff;" x="410.707416" xlink:href="#md90b1ed847" y="293.494761"/>
    </g>
   </g>
   <g id="line2d_66">
    <path clip-path="url(#pfb5ca1633a)" d="M 61.612584 295.488 
L 65.625169 294.930334 
L 69.637753 294.520838 
L 73.650337 294.197048 
L 77.662921 294.016903 
L 81.675506 293.95454 
L 85.68809 293.86166 
L 89.700674 293.831436 
L 93.713258 293.79309 
L 97.725843 293.745114 
L 101.738427 293.680319 
L 105.751011 293.621281 
L 109.763596 293.552703 
L 113.77618 293.442347 
L 117.788764 293.457465 
L 121.801348 293.372205 
L 125.813933 293.33108 
L 129.826517 293.197893 
L 133.839101 293.127126 
L 137.851685 293.05091 
L 141.86427 292.904729 
L 145.876854 292.986896 
L 149.889438 292.96289 
L 153.902022 292.879576 
L 157.914607 293.038432 
L 161.927191 292.954461 
L 165.939775 293.001795 
L 169.95236 293.01904 
L 173.964944 292.969299 
L 177.977528 293.052742 
L 181.990112 293.102119 
L 186.002697 293.196297 
L 190.015281 293.025045 
L 194.027865 293.11619 
L 198.040449 293.051853 
L 202.053034 293.012406 
L 206.065618 293.052376 
L 210.078202 293.007074 
L 214.090787 293.000086 
L 218.103371 293.046942 
L 222.115955 293.107424 
L 226.128539 293.083703 
L 230.141124 293.228732 
L 234.153708 293.286626 
L 238.166292 293.315282 
L 242.178876 293.35342 
L 246.191461 293.402217 
L 250.204045 293.461973 
L 254.216629 293.482594 
L 258.229213 293.475204 
L 262.241798 293.47067 
L 266.254382 293.528326 
L 270.266966 293.530984 
L 274.279551 293.534109 
L 278.292135 293.634574 
L 282.304719 293.640181 
L 286.317303 293.637687 
L 290.329888 293.645706 
L 294.342472 293.607266 
L 298.355056 293.71281 
L 302.36764 293.748504 
L 306.380225 293.769645 
L 310.392809 293.796535 
L 314.405393 293.807866 
L 318.417978 293.826599 
L 322.430562 293.82197 
L 326.443146 293.936547 
L 330.45573 293.8505 
L 334.468315 293.789435 
L 338.480899 293.8049 
L 342.493483 293.84629 
L 346.506067 293.857708 
L 350.518652 293.898332 
L 354.531236 293.918408 
L 358.54382 293.947674 
L 362.556404 293.971639 
L 366.568989 293.920158 
L 370.581573 294.093083 
L 374.594157 294.069739 
L 378.606742 293.932404 
L 382.619326 293.986629 
L 386.63191 293.987393 
L 390.644494 294.810117 
L 394.657079 294.009321 
L 398.669663 294.073361 
L 402.682247 294.035258 
L 406.694831 294.037922 
L 410.707416 294.068423 
" style="fill:none;stroke:#ff0000;stroke-dasharray:1.5,2.475;stroke-dashoffset:0;stroke-width:1.5;"/>
    <defs>
     <path d="M 0 1.5 
C 0.397805 1.5 0.77937 1.341951 1.06066 1.06066 
C 1.341951 0.77937 1.5 0.397805 1.5 0 
C 1.5 -0.397805 1.341951 -0.77937 1.06066 -1.06066 
C 0.77937 -1.341951 0.397805 -1.5 0 -1.5 
C -0.397805 -1.5 -0.77937 -1.341951 -1.06066 -1.06066 
C -1.341951 -0.77937 -1.5 -0.397805 -1.5 0 
C -1.5 0.397805 -1.341951 0.77937 -1.06066 1.06066 
C -0.77937 1.341951 -0.397805 1.5 0 1.5 
z
" id="mfbe05ad18c" style="stroke:#ff0000;"/>
    </defs>
    <g clip-path="url(#pfb5ca1633a)">
     <use style="fill:#ff0000;stroke:#ff0000;" x="61.612584" xlink:href="#mfbe05ad18c" y="295.488"/>
     <use style="fill:#ff0000;stroke:#ff0000;" x="65.625169" xlink:href="#mfbe05ad18c" y="294.930334"/>
     <use style="fill:#ff0000;stroke:#ff0000;" x="69.637753" xlink:href="#mfbe05ad18c" y="294.520838"/>
     <use style="fill:#ff0000;stroke:#ff0000;" x="73.650337" xlink:href="#mfbe05ad18c" y="294.197048"/>
     <use style="fill:#ff0000;stroke:#ff0000;" x="77.662921" xlink:href="#mfbe05ad18c" y="294.016903"/>
     <use style="fill:#ff0000;stroke:#ff0000;" x="81.675506" xlink:href="#mfbe05ad18c" y="293.95454"/>
     <use style="fill:#ff0000;stroke:#ff0000;" x="85.68809" xlink:href="#mfbe05ad18c" y="293.86166"/>
     <use style="fill:#ff0000;stroke:#ff0000;" x="89.700674" xlink:href="#mfbe05ad18c" y="293.831436"/>
     <use style="fill:#ff0000;stroke:#ff0000;" x="93.713258" xlink:href="#mfbe05ad18c" y="293.79309"/>
     <use style="fill:#ff0000;stroke:#ff0000;" x="97.725843" xlink:href="#mfbe05ad18c" y="293.745114"/>
     <use style="fill:#ff0000;stroke:#ff0000;" x="101.738427" xlink:href="#mfbe05ad18c" y="293.680319"/>
     <use style="fill:#ff0000;stroke:#ff0000;" x="105.751011" xlink:href="#mfbe05ad18c" y="293.621281"/>
     <use style="fill:#ff0000;stroke:#ff0000;" x="109.763596" xlink:href="#mfbe05ad18c" y="293.552703"/>
     <use style="fill:#ff0000;stroke:#ff0000;" x="113.77618" xlink:href="#mfbe05ad18c" y="293.442347"/>
     <use style="fill:#ff0000;stroke:#ff0000;" x="117.788764" xlink:href="#mfbe05ad18c" y="293.457465"/>
     <use style="fill:#ff0000;stroke:#ff0000;" x="121.801348" xlink:href="#mfbe05ad18c" y="293.372205"/>
     <use style="fill:#ff0000;stroke:#ff0000;" x="125.813933" xlink:href="#mfbe05ad18c" y="293.33108"/>
     <use style="fill:#ff0000;stroke:#ff0000;" x="129.826517" xlink:href="#mfbe05ad18c" y="293.197893"/>
     <use style="fill:#ff0000;stroke:#ff0000;" x="133.839101" xlink:href="#mfbe05ad18c" y="293.127126"/>
     <use style="fill:#ff0000;stroke:#ff0000;" x="137.851685" xlink:href="#mfbe05ad18c" y="293.05091"/>
     <use style="fill:#ff0000;stroke:#ff0000;" x="141.86427" xlink:href="#mfbe05ad18c" y="292.904729"/>
     <use style="fill:#ff0000;stroke:#ff0000;" x="145.876854" xlink:href="#mfbe05ad18c" y="292.986896"/>
     <use style="fill:#ff0000;stroke:#ff0000;" x="149.889438" xlink:href="#mfbe05ad18c" y="292.96289"/>
     <use style="fill:#ff0000;stroke:#ff0000;" x="153.902022" xlink:href="#mfbe05ad18c" y="292.879576"/>
     <use style="fill:#ff0000;stroke:#ff0000;" x="157.914607" xlink:href="#mfbe05ad18c" y="293.038432"/>
     <use style="fill:#ff0000;stroke:#ff0000;" x="161.927191" xlink:href="#mfbe05ad18c" y="292.954461"/>
     <use style="fill:#ff0000;stroke:#ff0000;" x="165.939775" xlink:href="#mfbe05ad18c" y="293.001795"/>
     <use style="fill:#ff0000;stroke:#ff0000;" x="169.95236" xlink:href="#mfbe05ad18c" y="293.01904"/>
     <use style="fill:#ff0000;stroke:#ff0000;" x="173.964944" xlink:href="#mfbe05ad18c" y="292.969299"/>
     <use style="fill:#ff0000;stroke:#ff0000;" x="177.977528" xlink:href="#mfbe05ad18c" y="293.052742"/>
     <use style="fill:#ff0000;stroke:#ff0000;" x="181.990112" xlink:href="#mfbe05ad18c" y="293.102119"/>
     <use style="fill:#ff0000;stroke:#ff0000;" x="186.002697" xlink:href="#mfbe05ad18c" y="293.196297"/>
     <use style="fill:#ff0000;stroke:#ff0000;" x="190.015281" xlink:href="#mfbe05ad18c" y="293.025045"/>
     <use style="fill:#ff0000;stroke:#ff0000;" x="194.027865" xlink:href="#mfbe05ad18c" y="293.11619"/>
     <use style="fill:#ff0000;stroke:#ff0000;" x="198.040449" xlink:href="#mfbe05ad18c" y="293.051853"/>
     <use style="fill:#ff0000;stroke:#ff0000;" x="202.053034" xlink:href="#mfbe05ad18c" y="293.012406"/>
     <use style="fill:#ff0000;stroke:#ff0000;" x="206.065618" xlink:href="#mfbe05ad18c" y="293.052376"/>
     <use style="fill:#ff0000;stroke:#ff0000;" x="210.078202" xlink:href="#mfbe05ad18c" y="293.007074"/>
     <use style="fill:#ff0000;stroke:#ff0000;" x="214.090787" xlink:href="#mfbe05ad18c" y="293.000086"/>
     <use style="fill:#ff0000;stroke:#ff0000;" x="218.103371" xlink:href="#mfbe05ad18c" y="293.046942"/>
     <use style="fill:#ff0000;stroke:#ff0000;" x="222.115955" xlink:href="#mfbe05ad18c" y="293.107424"/>
     <use style="fill:#ff0000;stroke:#ff0000;" x="226.128539" xlink:href="#mfbe05ad18c" y="293.083703"/>
     <use style="fill:#ff0000;stroke:#ff0000;" x="230.141124" xlink:href="#mfbe05ad18c" y="293.228732"/>
     <use style="fill:#ff0000;stroke:#ff0000;" x="234.153708" xlink:href="#mfbe05ad18c" y="293.286626"/>
     <use style="fill:#ff0000;stroke:#ff0000;" x="238.166292" xlink:href="#mfbe05ad18c" y="293.315282"/>
     <use style="fill:#ff0000;stroke:#ff0000;" x="242.178876" xlink:href="#mfbe05ad18c" y="293.35342"/>
     <use style="fill:#ff0000;stroke:#ff0000;" x="246.191461" xlink:href="#mfbe05ad18c" y="293.402217"/>
     <use style="fill:#ff0000;stroke:#ff0000;" x="250.204045" xlink:href="#mfbe05ad18c" y="293.461973"/>
     <use style="fill:#ff0000;stroke:#ff0000;" x="254.216629" xlink:href="#mfbe05ad18c" y="293.482594"/>
     <use style="fill:#ff0000;stroke:#ff0000;" x="258.229213" xlink:href="#mfbe05ad18c" y="293.475204"/>
     <use style="fill:#ff0000;stroke:#ff0000;" x="262.241798" xlink:href="#mfbe05ad18c" y="293.47067"/>
     <use style="fill:#ff0000;stroke:#ff0000;" x="266.254382" xlink:href="#mfbe05ad18c" y="293.528326"/>
     <use style="fill:#ff0000;stroke:#ff0000;" x="270.266966" xlink:href="#mfbe05ad18c" y="293.530984"/>
     <use style="fill:#ff0000;stroke:#ff0000;" x="274.279551" xlink:href="#mfbe05ad18c" y="293.534109"/>
     <use style="fill:#ff0000;stroke:#ff0000;" x="278.292135" xlink:href="#mfbe05ad18c" y="293.634574"/>
     <use style="fill:#ff0000;stroke:#ff0000;" x="282.304719" xlink:href="#mfbe05ad18c" y="293.640181"/>
     <use style="fill:#ff0000;stroke:#ff0000;" x="286.317303" xlink:href="#mfbe05ad18c" y="293.637687"/>
     <use style="fill:#ff0000;stroke:#ff0000;" x="290.329888" xlink:href="#mfbe05ad18c" y="293.645706"/>
     <use style="fill:#ff0000;stroke:#ff0000;" x="294.342472" xlink:href="#mfbe05ad18c" y="293.607266"/>
     <use style="fill:#ff0000;stroke:#ff0000;" x="298.355056" xlink:href="#mfbe05ad18c" y="293.71281"/>
     <use style="fill:#ff0000;stroke:#ff0000;" x="302.36764" xlink:href="#mfbe05ad18c" y="293.748504"/>
     <use style="fill:#ff0000;stroke:#ff0000;" x="306.380225" xlink:href="#mfbe05ad18c" y="293.769645"/>
     <use style="fill:#ff0000;stroke:#ff0000;" x="310.392809" xlink:href="#mfbe05ad18c" y="293.796535"/>
     <use style="fill:#ff0000;stroke:#ff0000;" x="314.405393" xlink:href="#mfbe05ad18c" y="293.807866"/>
     <use style="fill:#ff0000;stroke:#ff0000;" x="318.417978" xlink:href="#mfbe05ad18c" y="293.826599"/>
     <use style="fill:#ff0000;stroke:#ff0000;" x="322.430562" xlink:href="#mfbe05ad18c" y="293.82197"/>
     <use style="fill:#ff0000;stroke:#ff0000;" x="326.443146" xlink:href="#mfbe05ad18c" y="293.936547"/>
     <use style="fill:#ff0000;stroke:#ff0000;" x="330.45573" xlink:href="#mfbe05ad18c" y="293.8505"/>
     <use style="fill:#ff0000;stroke:#ff0000;" x="334.468315" xlink:href="#mfbe05ad18c" y="293.789435"/>
     <use style="fill:#ff0000;stroke:#ff0000;" x="338.480899" xlink:href="#mfbe05ad18c" y="293.8049"/>
     <use style="fill:#ff0000;stroke:#ff0000;" x="342.493483" xlink:href="#mfbe05ad18c" y="293.84629"/>
     <use style="fill:#ff0000;stroke:#ff0000;" x="346.506067" xlink:href="#mfbe05ad18c" y="293.857708"/>
     <use style="fill:#ff0000;stroke:#ff0000;" x="350.518652" xlink:href="#mfbe05ad18c" y="293.898332"/>
     <use style="fill:#ff0000;stroke:#ff0000;" x="354.531236" xlink:href="#mfbe05ad18c" y="293.918408"/>
     <use style="fill:#ff0000;stroke:#ff0000;" x="358.54382" xlink:href="#mfbe05ad18c" y="293.947674"/>
     <use style="fill:#ff0000;stroke:#ff0000;" x="362.556404" xlink:href="#mfbe05ad18c" y="293.971639"/>
     <use style="fill:#ff0000;stroke:#ff0000;" x="366.568989" xlink:href="#mfbe05ad18c" y="293.920158"/>
     <use style="fill:#ff0000;stroke:#ff0000;" x="370.581573" xlink:href="#mfbe05ad18c" y="294.093083"/>
     <use style="fill:#ff0000;stroke:#ff0000;" x="374.594157" xlink:href="#mfbe05ad18c" y="294.069739"/>
     <use style="fill:#ff0000;stroke:#ff0000;" x="378.606742" xlink:href="#mfbe05ad18c" y="293.932404"/>
     <use style="fill:#ff0000;stroke:#ff0000;" x="382.619326" xlink:href="#mfbe05ad18c" y="293.986629"/>
     <use style="fill:#ff0000;stroke:#ff0000;" x="386.63191" xlink:href="#mfbe05ad18c" y="293.987393"/>
     <use style="fill:#ff0000;stroke:#ff0000;" x="390.644494" xlink:href="#mfbe05ad18c" y="294.810117"/>
     <use style="fill:#ff0000;stroke:#ff0000;" x="394.657079" xlink:href="#mfbe05ad18c" y="294.009321"/>
     <use style="fill:#ff0000;stroke:#ff0000;" x="398.669663" xlink:href="#mfbe05ad18c" y="294.073361"/>
     <use style="fill:#ff0000;stroke:#ff0000;" x="402.682247" xlink:href="#mfbe05ad18c" y="294.035258"/>
     <use style="fill:#ff0000;stroke:#ff0000;" x="406.694831" xlink:href="#mfbe05ad18c" y="294.037922"/>
     <use style="fill:#ff0000;stroke:#ff0000;" x="410.707416" xlink:href="#mfbe05ad18c" y="294.068423"/>
    </g>
   </g>
   <g id="line2d_67">
    <path clip-path="url(#pfb5ca1633a)" d="M 61.612584 174.528 
L 65.625169 258.767575 
L 69.637753 252.059072 
L 73.650337 255.741055 
L 77.662921 259.272175 
L 81.675506 259.893171 
L 85.68809 262.282284 
L 89.700674 263.281319 
L 93.713258 265.42711 
L 97.725843 266.46719 
L 101.738427 265.60596 
L 105.751011 266.843276 
L 109.763596 268.049557 
L 113.77618 268.533691 
L 117.788764 268.53784 
L 121.801348 269.690183 
L 125.813933 271.889054 
L 129.826517 271.825045 
L 133.839101 272.508087 
L 137.851685 274.529479 
L 141.86427 275.303721 
L 145.876854 274.671652 
L 149.889438 277.531665 
L 153.902022 276.984747 
L 157.914607 276.857375 
L 161.927191 277.330922 
L 165.939775 282.150228 
L 169.95236 276.881963 
L 173.964944 280.906896 
L 177.977528 278.824298 
L 181.990112 278.832886 
L 186.002697 280.904293 
L 190.015281 280.106948 
L 194.027865 280.939367 
L 198.040449 281.092416 
L 202.053034 283.435682 
L 206.065618 282.206253 
L 210.078202 281.810222 
L 214.090787 282.238092 
L 218.103371 282.742621 
L 222.115955 285.302147 
L 226.128539 282.35463 
L 230.141124 283.56801 
L 234.153708 283.874348 
L 238.166292 284.078243 
L 242.178876 284.49548 
L 246.191461 285.11793 
L 250.204045 284.141356 
L 254.216629 284.717237 
L 258.229213 284.760325 
L 262.241798 284.913076 
L 266.254382 285.18706 
L 270.266966 287.165176 
L 274.279551 286.21946 
L 278.292135 285.305141 
L 282.304719 286.689602 
L 286.317303 285.856244 
L 290.329888 285.972064 
L 294.342472 286.283608 
L 298.355056 286.252386 
L 302.36764 286.664736 
L 306.380225 286.561187 
L 310.392809 286.772182 
L 314.405393 286.946335 
L 318.417978 287.087096 
L 322.430562 287.092324 
L 326.443146 290.928161 
L 330.45573 287.323746 
L 334.468315 292.788877 
L 338.480899 287.085672 
L 342.493483 287.019453 
L 346.506067 287.33032 
L 350.518652 287.516837 
L 354.531236 287.985205 
L 358.54382 289.448579 
L 362.556404 288.036101 
L 366.568989 288.069488 
L 370.581573 288.537538 
L 374.594157 288.147957 
L 378.606742 288.236258 
L 382.619326 291.43811 
L 386.63191 288.462662 
L 390.644494 293.745371 
L 394.657079 288.707033 
L 398.669663 294.193882 
L 402.682247 294.139565 
L 406.694831 293.759231 
L 410.707416 293.781592 
" style="fill:none;stroke:#008000;stroke-dasharray:1.5,2.475;stroke-dashoffset:0;stroke-width:1.5;"/>
    <defs>
     <path d="M 0 1.5 
C 0.397805 1.5 0.77937 1.341951 1.06066 1.06066 
C 1.341951 0.77937 1.5 0.397805 1.5 0 
C 1.5 -0.397805 1.341951 -0.77937 1.06066 -1.06066 
C 0.77937 -1.341951 0.397805 -1.5 0 -1.5 
C -0.397805 -1.5 -0.77937 -1.341951 -1.06066 -1.06066 
C -1.341951 -0.77937 -1.5 -0.397805 -1.5 0 
C -1.5 0.397805 -1.341951 0.77937 -1.06066 1.06066 
C -0.77937 1.341951 -0.397805 1.5 0 1.5 
z
" id="ma894e05b48" style="stroke:#008000;"/>
    </defs>
    <g clip-path="url(#pfb5ca1633a)">
     <use style="fill:#008000;stroke:#008000;" x="61.612584" xlink:href="#ma894e05b48" y="174.528"/>
     <use style="fill:#008000;stroke:#008000;" x="65.625169" xlink:href="#ma894e05b48" y="258.767575"/>
     <use style="fill:#008000;stroke:#008000;" x="69.637753" xlink:href="#ma894e05b48" y="252.059072"/>
     <use style="fill:#008000;stroke:#008000;" x="73.650337" xlink:href="#ma894e05b48" y="255.741055"/>
     <use style="fill:#008000;stroke:#008000;" x="77.662921" xlink:href="#ma894e05b48" y="259.272175"/>
     <use style="fill:#008000;stroke:#008000;" x="81.675506" xlink:href="#ma894e05b48" y="259.893171"/>
     <use style="fill:#008000;stroke:#008000;" x="85.68809" xlink:href="#ma894e05b48" y="262.282284"/>
     <use style="fill:#008000;stroke:#008000;" x="89.700674" xlink:href="#ma894e05b48" y="263.281319"/>
     <use style="fill:#008000;stroke:#008000;" x="93.713258" xlink:href="#ma894e05b48" y="265.42711"/>
     <use style="fill:#008000;stroke:#008000;" x="97.725843" xlink:href="#ma894e05b48" y="266.46719"/>
     <use style="fill:#008000;stroke:#008000;" x="101.738427" xlink:href="#ma894e05b48" y="265.60596"/>
     <use style="fill:#008000;stroke:#008000;" x="105.751011" xlink:href="#ma894e05b48" y="266.843276"/>
     <use style="fill:#008000;stroke:#008000;" x="109.763596" xlink:href="#ma894e05b48" y="268.049557"/>
     <use style="fill:#008000;stroke:#008000;" x="113.77618" xlink:href="#ma894e05b48" y="268.533691"/>
     <use style="fill:#008000;stroke:#008000;" x="117.788764" xlink:href="#ma894e05b48" y="268.53784"/>
     <use style="fill:#008000;stroke:#008000;" x="121.801348" xlink:href="#ma894e05b48" y="269.690183"/>
     <use style="fill:#008000;stroke:#008000;" x="125.813933" xlink:href="#ma894e05b48" y="271.889054"/>
     <use style="fill:#008000;stroke:#008000;" x="129.826517" xlink:href="#ma894e05b48" y="271.825045"/>
     <use style="fill:#008000;stroke:#008000;" x="133.839101" xlink:href="#ma894e05b48" y="272.508087"/>
     <use style="fill:#008000;stroke:#008000;" x="137.851685" xlink:href="#ma894e05b48" y="274.529479"/>
     <use style="fill:#008000;stroke:#008000;" x="141.86427" xlink:href="#ma894e05b48" y="275.303721"/>
     <use style="fill:#008000;stroke:#008000;" x="145.876854" xlink:href="#ma894e05b48" y="274.671652"/>
     <use style="fill:#008000;stroke:#008000;" x="149.889438" xlink:href="#ma894e05b48" y="277.531665"/>
     <use style="fill:#008000;stroke:#008000;" x="153.902022" xlink:href="#ma894e05b48" y="276.984747"/>
     <use style="fill:#008000;stroke:#008000;" x="157.914607" xlink:href="#ma894e05b48" y="276.857375"/>
     <use style="fill:#008000;stroke:#008000;" x="161.927191" xlink:href="#ma894e05b48" y="277.330922"/>
     <use style="fill:#008000;stroke:#008000;" x="165.939775" xlink:href="#ma894e05b48" y="282.150228"/>
     <use style="fill:#008000;stroke:#008000;" x="169.95236" xlink:href="#ma894e05b48" y="276.881963"/>
     <use style="fill:#008000;stroke:#008000;" x="173.964944" xlink:href="#ma894e05b48" y="280.906896"/>
     <use style="fill:#008000;stroke:#008000;" x="177.977528" xlink:href="#ma894e05b48" y="278.824298"/>
     <use style="fill:#008000;stroke:#008000;" x="181.990112" xlink:href="#ma894e05b48" y="278.832886"/>
     <use style="fill:#008000;stroke:#008000;" x="186.002697" xlink:href="#ma894e05b48" y="280.904293"/>
     <use style="fill:#008000;stroke:#008000;" x="190.015281" xlink:href="#ma894e05b48" y="280.106948"/>
     <use style="fill:#008000;stroke:#008000;" x="194.027865" xlink:href="#ma894e05b48" y="280.939367"/>
     <use style="fill:#008000;stroke:#008000;" x="198.040449" xlink:href="#ma894e05b48" y="281.092416"/>
     <use style="fill:#008000;stroke:#008000;" x="202.053034" xlink:href="#ma894e05b48" y="283.435682"/>
     <use style="fill:#008000;stroke:#008000;" x="206.065618" xlink:href="#ma894e05b48" y="282.206253"/>
     <use style="fill:#008000;stroke:#008000;" x="210.078202" xlink:href="#ma894e05b48" y="281.810222"/>
     <use style="fill:#008000;stroke:#008000;" x="214.090787" xlink:href="#ma894e05b48" y="282.238092"/>
     <use style="fill:#008000;stroke:#008000;" x="218.103371" xlink:href="#ma894e05b48" y="282.742621"/>
     <use style="fill:#008000;stroke:#008000;" x="222.115955" xlink:href="#ma894e05b48" y="285.302147"/>
     <use style="fill:#008000;stroke:#008000;" x="226.128539" xlink:href="#ma894e05b48" y="282.35463"/>
     <use style="fill:#008000;stroke:#008000;" x="230.141124" xlink:href="#ma894e05b48" y="283.56801"/>
     <use style="fill:#008000;stroke:#008000;" x="234.153708" xlink:href="#ma894e05b48" y="283.874348"/>
     <use style="fill:#008000;stroke:#008000;" x="238.166292" xlink:href="#ma894e05b48" y="284.078243"/>
     <use style="fill:#008000;stroke:#008000;" x="242.178876" xlink:href="#ma894e05b48" y="284.49548"/>
     <use style="fill:#008000;stroke:#008000;" x="246.191461" xlink:href="#ma894e05b48" y="285.11793"/>
     <use style="fill:#008000;stroke:#008000;" x="250.204045" xlink:href="#ma894e05b48" y="284.141356"/>
     <use style="fill:#008000;stroke:#008000;" x="254.216629" xlink:href="#ma894e05b48" y="284.717237"/>
     <use style="fill:#008000;stroke:#008000;" x="258.229213" xlink:href="#ma894e05b48" y="284.760325"/>
     <use style="fill:#008000;stroke:#008000;" x="262.241798" xlink:href="#ma894e05b48" y="284.913076"/>
     <use style="fill:#008000;stroke:#008000;" x="266.254382" xlink:href="#ma894e05b48" y="285.18706"/>
     <use style="fill:#008000;stroke:#008000;" x="270.266966" xlink:href="#ma894e05b48" y="287.165176"/>
     <use style="fill:#008000;stroke:#008000;" x="274.279551" xlink:href="#ma894e05b48" y="286.21946"/>
     <use style="fill:#008000;stroke:#008000;" x="278.292135" xlink:href="#ma894e05b48" y="285.305141"/>
     <use style="fill:#008000;stroke:#008000;" x="282.304719" xlink:href="#ma894e05b48" y="286.689602"/>
     <use style="fill:#008000;stroke:#008000;" x="286.317303" xlink:href="#ma894e05b48" y="285.856244"/>
     <use style="fill:#008000;stroke:#008000;" x="290.329888" xlink:href="#ma894e05b48" y="285.972064"/>
     <use style="fill:#008000;stroke:#008000;" x="294.342472" xlink:href="#ma894e05b48" y="286.283608"/>
     <use style="fill:#008000;stroke:#008000;" x="298.355056" xlink:href="#ma894e05b48" y="286.252386"/>
     <use style="fill:#008000;stroke:#008000;" x="302.36764" xlink:href="#ma894e05b48" y="286.664736"/>
     <use style="fill:#008000;stroke:#008000;" x="306.380225" xlink:href="#ma894e05b48" y="286.561187"/>
     <use style="fill:#008000;stroke:#008000;" x="310.392809" xlink:href="#ma894e05b48" y="286.772182"/>
     <use style="fill:#008000;stroke:#008000;" x="314.405393" xlink:href="#ma894e05b48" y="286.946335"/>
     <use style="fill:#008000;stroke:#008000;" x="318.417978" xlink:href="#ma894e05b48" y="287.087096"/>
     <use style="fill:#008000;stroke:#008000;" x="322.430562" xlink:href="#ma894e05b48" y="287.092324"/>
     <use style="fill:#008000;stroke:#008000;" x="326.443146" xlink:href="#ma894e05b48" y="290.928161"/>
     <use style="fill:#008000;stroke:#008000;" x="330.45573" xlink:href="#ma894e05b48" y="287.323746"/>
     <use style="fill:#008000;stroke:#008000;" x="334.468315" xlink:href="#ma894e05b48" y="292.788877"/>
     <use style="fill:#008000;stroke:#008000;" x="338.480899" xlink:href="#ma894e05b48" y="287.085672"/>
     <use style="fill:#008000;stroke:#008000;" x="342.493483" xlink:href="#ma894e05b48" y="287.019453"/>
     <use style="fill:#008000;stroke:#008000;" x="346.506067" xlink:href="#ma894e05b48" y="287.33032"/>
     <use style="fill:#008000;stroke:#008000;" x="350.518652" xlink:href="#ma894e05b48" y="287.516837"/>
     <use style="fill:#008000;stroke:#008000;" x="354.531236" xlink:href="#ma894e05b48" y="287.985205"/>
     <use style="fill:#008000;stroke:#008000;" x="358.54382" xlink:href="#ma894e05b48" y="289.448579"/>
     <use style="fill:#008000;stroke:#008000;" x="362.556404" xlink:href="#ma894e05b48" y="288.036101"/>
     <use style="fill:#008000;stroke:#008000;" x="366.568989" xlink:href="#ma894e05b48" y="288.069488"/>
     <use style="fill:#008000;stroke:#008000;" x="370.581573" xlink:href="#ma894e05b48" y="288.537538"/>
     <use style="fill:#008000;stroke:#008000;" x="374.594157" xlink:href="#ma894e05b48" y="288.147957"/>
     <use style="fill:#008000;stroke:#008000;" x="378.606742" xlink:href="#ma894e05b48" y="288.236258"/>
     <use style="fill:#008000;stroke:#008000;" x="382.619326" xlink:href="#ma894e05b48" y="291.43811"/>
     <use style="fill:#008000;stroke:#008000;" x="386.63191" xlink:href="#ma894e05b48" y="288.462662"/>
     <use style="fill:#008000;stroke:#008000;" x="390.644494" xlink:href="#ma894e05b48" y="293.745371"/>
     <use style="fill:#008000;stroke:#008000;" x="394.657079" xlink:href="#ma894e05b48" y="288.707033"/>
     <use style="fill:#008000;stroke:#008000;" x="398.669663" xlink:href="#ma894e05b48" y="294.193882"/>
     <use style="fill:#008000;stroke:#008000;" x="402.682247" xlink:href="#ma894e05b48" y="294.139565"/>
     <use style="fill:#008000;stroke:#008000;" x="406.694831" xlink:href="#ma894e05b48" y="293.759231"/>
     <use style="fill:#008000;stroke:#008000;" x="410.707416" xlink:href="#ma894e05b48" y="293.781592"/>
    </g>
   </g>
   <g id="patch_3">
    <path d="M 57.6 307.584 
L 57.6 41.472 
" style="fill:none;stroke:#000000;stroke-linecap:square;stroke-linejoin:miter;stroke-width:0.8;"/>
   </g>
   <g id="patch_4">
    <path d="M 414.72 307.584 
L 414.72 41.472 
" style="fill:none;stroke:#000000;stroke-linecap:square;stroke-linejoin:miter;stroke-width:0.8;"/>
   </g>
   <g id="patch_5">
    <path d="M 57.6 307.584 
L 414.72 307.584 
" style="fill:none;stroke:#000000;stroke-linecap:square;stroke-linejoin:miter;stroke-width:0.8;"/>
   </g>
   <g id="patch_6">
    <path d="M 57.6 41.472 
L 414.72 41.472 
" style="fill:none;stroke:#000000;stroke-linecap:square;stroke-linejoin:miter;stroke-width:0.8;"/>
   </g>
   <g id="text_35">
    <!-- radix sort 7 on pre_transpose8 -->
    <g transform="translate(144.083438 35.472)scale(0.12 -0.12)">
     <defs>
      <path d="M 9.421875 54.6875 
L 18.40625 54.6875 
L 18.40625 0 
L 9.421875 0 
z
M 9.421875 75.984375 
L 18.40625 75.984375 
L 18.40625 64.59375 
L 9.421875 64.59375 
z
" id="DejaVuSans-105"/>
      <path d="M 54.890625 54.6875 
L 35.109375 28.078125 
L 55.90625 0 
L 45.3125 0 
L 29.390625 21.484375 
L 13.484375 0 
L 2.875 0 
L 24.125 28.609375 
L 4.6875 54.6875 
L 15.28125 54.6875 
L 29.78125 35.203125 
L 44.28125 54.6875 
z
" id="DejaVuSans-120"/>
      <path d="M 30.609375 48.390625 
Q 23.390625 48.390625 19.1875 42.75 
Q 14.984375 37.109375 14.984375 27.296875 
Q 14.984375 17.484375 19.15625 11.84375 
Q 23.34375 6.203125 30.609375 6.203125 
Q 37.796875 6.203125 41.984375 11.859375 
Q 46.1875 17.53125 46.1875 27.296875 
Q 46.1875 37.015625 41.984375 42.703125 
Q 37.796875 48.390625 30.609375 48.390625 
z
M 30.609375 56 
Q 42.328125 56 49.015625 48.375 
Q 55.71875 40.765625 55.71875 27.296875 
Q 55.71875 13.875 49.015625 6.21875 
Q 42.328125 -1.421875 30.609375 -1.421875 
Q 18.84375 -1.421875 12.171875 6.21875 
Q 5.515625 13.875 5.515625 27.296875 
Q 5.515625 40.765625 12.171875 48.375 
Q 18.84375 56 30.609375 56 
z
" id="DejaVuSans-111"/>
      <path d="M 54.890625 33.015625 
L 54.890625 0 
L 45.90625 0 
L 45.90625 32.71875 
Q 45.90625 40.484375 42.875 44.328125 
Q 39.84375 48.1875 33.796875 48.1875 
Q 26.515625 48.1875 22.3125 43.546875 
Q 18.109375 38.921875 18.109375 30.90625 
L 18.109375 0 
L 9.078125 0 
L 9.078125 54.6875 
L 18.109375 54.6875 
L 18.109375 46.1875 
Q 21.34375 51.125 25.703125 53.5625 
Q 30.078125 56 35.796875 56 
Q 45.21875 56 50.046875 50.171875 
Q 54.890625 44.34375 54.890625 33.015625 
z
" id="DejaVuSans-110"/>
      <path d="M 50.984375 -16.609375 
L 50.984375 -23.578125 
L -0.984375 -23.578125 
L -0.984375 -16.609375 
z
" id="DejaVuSans-95"/>
     </defs>
     <use xlink:href="#DejaVuSans-114"/>
     <use x="41.113281" xlink:href="#DejaVuSans-97"/>
     <use x="102.392578" xlink:href="#DejaVuSans-100"/>
     <use x="165.869141" xlink:href="#DejaVuSans-105"/>
     <use x="193.652344" xlink:href="#DejaVuSans-120"/>
     <use x="252.832031" xlink:href="#DejaVuSans-32"/>
     <use x="284.619141" xlink:href="#DejaVuSans-115"/>
     <use x="336.71875" xlink:href="#DejaVuSans-111"/>
     <use x="397.900391" xlink:href="#DejaVuSans-114"/>
     <use x="439.013672" xlink:href="#DejaVuSans-116"/>
     <use x="478.222656" xlink:href="#DejaVuSans-32"/>
     <use x="510.009766" xlink:href="#DejaVuSans-55"/>
     <use x="573.632812" xlink:href="#DejaVuSans-32"/>
     <use x="605.419922" xlink:href="#DejaVuSans-111"/>
     <use x="666.601562" xlink:href="#DejaVuSans-110"/>
     <use x="729.980469" xlink:href="#DejaVuSans-32"/>
     <use x="761.767578" xlink:href="#DejaVuSans-112"/>
     <use x="825.244141" xlink:href="#DejaVuSans-114"/>
     <use x="864.107422" xlink:href="#DejaVuSans-101"/>
     <use x="925.630859" xlink:href="#DejaVuSans-95"/>
     <use x="975.630859" xlink:href="#DejaVuSans-116"/>
     <use x="1014.839844" xlink:href="#DejaVuSans-114"/>
     <use x="1055.953125" xlink:href="#DejaVuSans-97"/>
     <use x="1117.232422" xlink:href="#DejaVuSans-110"/>
     <use x="1180.611328" xlink:href="#DejaVuSans-115"/>
     <use x="1232.710938" xlink:href="#DejaVuSans-112"/>
     <use x="1296.1875" xlink:href="#DejaVuSans-111"/>
     <use x="1357.369141" xlink:href="#DejaVuSans-115"/>
     <use x="1409.46875" xlink:href="#DejaVuSans-101"/>
     <use x="1470.992188" xlink:href="#DejaVuSans-56"/>
    </g>
   </g>
   <g id="legend_1">
    <g id="patch_7">
     <path d="M 313.152813 93.7845 
L 407.72 93.7845 
Q 409.72 93.7845 409.72 91.7845 
L 409.72 48.472 
Q 409.72 46.472 407.72 46.472 
L 313.152813 46.472 
Q 311.152813 46.472 311.152813 48.472 
L 311.152813 91.7845 
Q 311.152813 93.7845 313.152813 93.7845 
z
" style="fill:#ffffff;opacity:0.8;stroke:#cccccc;stroke-linejoin:miter;"/>
    </g>
    <g id="line2d_68">
     <path d="M 315.152813 54.570438 
L 335.152813 54.570438 
" style="fill:none;stroke:#0000ff;stroke-dasharray:1.5,2.475;stroke-dashoffset:0;stroke-width:1.5;"/>
    </g>
    <g id="line2d_69">
     <g>
      <use style="fill:#0000ff;stroke:#0000ff;" x="325.152813" xlink:href="#md90b1ed847" y="54.570438"/>
     </g>
    </g>
    <g id="text_36">
     <!-- transpose -->
     <g transform="translate(343.152813 58.070438)scale(0.1 -0.1)">
      <use xlink:href="#DejaVuSans-116"/>
      <use x="39.208984" xlink:href="#DejaVuSans-114"/>
      <use x="80.322266" xlink:href="#DejaVuSans-97"/>
      <use x="141.601562" xlink:href="#DejaVuSans-110"/>
      <use x="204.980469" xlink:href="#DejaVuSans-115"/>
      <use x="257.080078" xlink:href="#DejaVuSans-112"/>
      <use x="320.556641" xlink:href="#DejaVuSans-111"/>
      <use x="381.738281" xlink:href="#DejaVuSans-115"/>
      <use x="433.837891" xlink:href="#DejaVuSans-101"/>
     </g>
    </g>
    <g id="line2d_70">
     <path d="M 315.152813 69.248563 
L 335.152813 69.248563 
" style="fill:none;stroke:#ff0000;stroke-dasharray:1.5,2.475;stroke-dashoffset:0;stroke-width:1.5;"/>
    </g>
    <g id="line2d_71">
     <g>
      <use style="fill:#ff0000;stroke:#ff0000;" x="325.152813" xlink:href="#mfbe05ad18c" y="69.248563"/>
     </g>
    </g>
    <g id="text_37">
     <!-- transpose_tr -->
     <g transform="translate(343.152813 72.748563)scale(0.1 -0.1)">
      <use xlink:href="#DejaVuSans-116"/>
      <use x="39.208984" xlink:href="#DejaVuSans-114"/>
      <use x="80.322266" xlink:href="#DejaVuSans-97"/>
      <use x="141.601562" xlink:href="#DejaVuSans-110"/>
      <use x="204.980469" xlink:href="#DejaVuSans-115"/>
      <use x="257.080078" xlink:href="#DejaVuSans-112"/>
      <use x="320.556641" xlink:href="#DejaVuSans-111"/>
      <use x="381.738281" xlink:href="#DejaVuSans-115"/>
      <use x="433.837891" xlink:href="#DejaVuSans-101"/>
      <use x="495.361328" xlink:href="#DejaVuSans-95"/>
      <use x="545.361328" xlink:href="#DejaVuSans-116"/>
      <use x="584.570312" xlink:href="#DejaVuSans-114"/>
     </g>
    </g>
    <g id="line2d_72">
     <path d="M 315.152813 84.204813 
L 335.152813 84.204813 
" style="fill:none;stroke:#008000;stroke-dasharray:1.5,2.475;stroke-dashoffset:0;stroke-width:1.5;"/>
    </g>
    <g id="line2d_73">
     <g>
      <use style="fill:#008000;stroke:#008000;" x="325.152813" xlink:href="#ma894e05b48" y="84.204813"/>
     </g>
    </g>
    <g id="text_38">
     <!-- mean -->
     <g transform="translate(343.152813 87.704813)scale(0.1 -0.1)">
      <defs>
       <path d="M 52 44.1875 
Q 55.375 50.25 60.0625 53.125 
Q 64.75 56 71.09375 56 
Q 79.640625 56 84.28125 50.015625 
Q 88.921875 44.046875 88.921875 33.015625 
L 88.921875 0 
L 79.890625 0 
L 79.890625 32.71875 
Q 79.890625 40.578125 77.09375 44.375 
Q 74.3125 48.1875 68.609375 48.1875 
Q 61.625 48.1875 57.5625 43.546875 
Q 53.515625 38.921875 53.515625 30.90625 
L 53.515625 0 
L 44.484375 0 
L 44.484375 32.71875 
Q 44.484375 40.625 41.703125 44.40625 
Q 38.921875 48.1875 33.109375 48.1875 
Q 26.21875 48.1875 22.15625 43.53125 
Q 18.109375 38.875 18.109375 30.90625 
L 18.109375 0 
L 9.078125 0 
L 9.078125 54.6875 
L 18.109375 54.6875 
L 18.109375 46.1875 
Q 21.1875 51.21875 25.484375 53.609375 
Q 29.78125 56 35.6875 56 
Q 41.65625 56 45.828125 52.96875 
Q 50 49.953125 52 44.1875 
z
" id="DejaVuSans-109"/>
      </defs>
      <use xlink:href="#DejaVuSans-109"/>
      <use x="97.412109" xlink:href="#DejaVuSans-101"/>
      <use x="158.935547" xlink:href="#DejaVuSans-97"/>
      <use x="220.214844" xlink:href="#DejaVuSans-110"/>
     </g>
    </g>
   </g>
  </g>
 </g>
 <defs>
  <clipPath id="pfb5ca1633a">
   <rect height="266.112" width="357.12" x="57.6" y="41.472"/>
  </clipPath>
 </defs>
</svg>
