<?xml version="1.0" encoding="utf-8" standalone="no"?>
<!DOCTYPE svg PUBLIC "-//W3C//DTD SVG 1.1//EN"
  "http://www.w3.org/Graphics/SVG/1.1/DTD/svg11.dtd">
<!-- Created with matplotlib (https://matplotlib.org/) -->
<svg height="345.6pt" version="1.1" viewBox="0 0 460.8 345.6" width="460.8pt" xmlns="http://www.w3.org/2000/svg" xmlns:xlink="http://www.w3.org/1999/xlink">
 <defs>
  <style type="text/css">
*{stroke-linecap:butt;stroke-linejoin:round;}
  </style>
 </defs>
 <g id="figure_1">
  <g id="patch_1">
   <path d="M 0 345.6 
L 460.8 345.6 
L 460.8 0 
L 0 0 
z
" style="fill:#ffffff;"/>
  </g>
  <g id="axes_1">
   <g id="patch_2">
    <path d="M 57.6 307.584 
L 414.72 307.584 
L 414.72 41.472 
L 57.6 41.472 
z
" style="fill:#ffffff;"/>
   </g>
   <g id="matplotlib.axis_1">
    <g id="xtick_1">
     <g id="line2d_1">
      <path clip-path="url(#p65e6194ccb)" d="M 61.612584 307.584 
L 61.612584 41.472 
" style="fill:none;stroke:#b0b0b0;stroke-dasharray:5.12,1.28,0.8,1.28;stroke-dashoffset:0;stroke-width:0.8;"/>
     </g>
     <g id="line2d_2">
      <defs>
       <path d="M 0 0 
L 0 3.5 
" id="m2ce12e8cf2" style="stroke:#000000;stroke-width:0.8;"/>
      </defs>
      <g>
       <use style="stroke:#000000;stroke-width:0.8;" x="61.612584" xlink:href="#m2ce12e8cf2" y="307.584"/>
      </g>
     </g>
     <g id="text_1">
      <!-- 1 -->
      <defs>
       <path d="M 12.40625 8.296875 
L 28.515625 8.296875 
L 28.515625 63.921875 
L 10.984375 60.40625 
L 10.984375 69.390625 
L 28.421875 72.90625 
L 38.28125 72.90625 
L 38.28125 8.296875 
L 54.390625 8.296875 
L 54.390625 0 
L 12.40625 0 
z
" id="DejaVuSans-49"/>
      </defs>
      <g transform="translate(58.431334 322.182437)scale(0.1 -0.1)">
       <use xlink:href="#DejaVuSans-49"/>
      </g>
     </g>
    </g>
    <g id="xtick_2">
     <g id="line2d_3">
      <path clip-path="url(#p65e6194ccb)" d="M 73.650337 307.584 
L 73.650337 41.472 
" style="fill:none;stroke:#b0b0b0;stroke-dasharray:5.12,1.28,0.8,1.28;stroke-dashoffset:0;stroke-width:0.8;"/>
     </g>
     <g id="line2d_4">
      <g>
       <use style="stroke:#000000;stroke-width:0.8;" x="73.650337" xlink:href="#m2ce12e8cf2" y="307.584"/>
      </g>
     </g>
     <g id="text_2">
      <!-- 4 -->
      <defs>
       <path d="M 37.796875 64.3125 
L 12.890625 25.390625 
L 37.796875 25.390625 
z
M 35.203125 72.90625 
L 47.609375 72.90625 
L 47.609375 25.390625 
L 58.015625 25.390625 
L 58.015625 17.1875 
L 47.609375 17.1875 
L 47.609375 0 
L 37.796875 0 
L 37.796875 17.1875 
L 4.890625 17.1875 
L 4.890625 26.703125 
z
" id="DejaVuSans-52"/>
      </defs>
      <g transform="translate(70.469087 322.182437)scale(0.1 -0.1)">
       <use xlink:href="#DejaVuSans-52"/>
      </g>
     </g>
    </g>
    <g id="xtick_3">
     <g id="line2d_5">
      <path clip-path="url(#p65e6194ccb)" d="M 89.700674 307.584 
L 89.700674 41.472 
" style="fill:none;stroke:#b0b0b0;stroke-dasharray:5.12,1.28,0.8,1.28;stroke-dashoffset:0;stroke-width:0.8;"/>
     </g>
     <g id="line2d_6">
      <g>
       <use style="stroke:#000000;stroke-width:0.8;" x="89.700674" xlink:href="#m2ce12e8cf2" y="307.584"/>
      </g>
     </g>
     <g id="text_3">
      <!-- 8 -->
      <defs>
       <path d="M 31.78125 34.625 
Q 24.75 34.625 20.71875 30.859375 
Q 16.703125 27.09375 16.703125 20.515625 
Q 16.703125 13.921875 20.71875 10.15625 
Q 24.75 6.390625 31.78125 6.390625 
Q 38.8125 6.390625 42.859375 10.171875 
Q 46.921875 13.96875 46.921875 20.515625 
Q 46.921875 27.09375 42.890625 30.859375 
Q 38.875 34.625 31.78125 34.625 
z
M 21.921875 38.8125 
Q 15.578125 40.375 12.03125 44.71875 
Q 8.5 49.078125 8.5 55.328125 
Q 8.5 64.0625 14.71875 69.140625 
Q 20.953125 74.21875 31.78125 74.21875 
Q 42.671875 74.21875 48.875 69.140625 
Q 55.078125 64.0625 55.078125 55.328125 
Q 55.078125 49.078125 51.53125 44.71875 
Q 48 40.375 41.703125 38.8125 
Q 48.828125 37.15625 52.796875 32.3125 
Q 56.78125 27.484375 56.78125 20.515625 
Q 56.78125 9.90625 50.3125 4.234375 
Q 43.84375 -1.421875 31.78125 -1.421875 
Q 19.734375 -1.421875 13.25 4.234375 
Q 6.78125 9.90625 6.78125 20.515625 
Q 6.78125 27.484375 10.78125 32.3125 
Q 14.796875 37.15625 21.921875 38.8125 
z
M 18.3125 54.390625 
Q 18.3125 48.734375 21.84375 45.5625 
Q 25.390625 42.390625 31.78125 42.390625 
Q 38.140625 42.390625 41.71875 45.5625 
Q 45.3125 48.734375 45.3125 54.390625 
Q 45.3125 60.0625 41.71875 63.234375 
Q 38.140625 66.40625 31.78125 66.40625 
Q 25.390625 66.40625 21.84375 63.234375 
Q 18.3125 60.0625 18.3125 54.390625 
z
" id="DejaVuSans-56"/>
      </defs>
      <g transform="translate(86.519424 322.182437)scale(0.1 -0.1)">
       <use xlink:href="#DejaVuSans-56"/>
      </g>
     </g>
    </g>
    <g id="xtick_4">
     <g id="line2d_7">
      <path clip-path="url(#p65e6194ccb)" d="M 105.751011 307.584 
L 105.751011 41.472 
" style="fill:none;stroke:#b0b0b0;stroke-dasharray:5.12,1.28,0.8,1.28;stroke-dashoffset:0;stroke-width:0.8;"/>
     </g>
     <g id="line2d_8">
      <g>
       <use style="stroke:#000000;stroke-width:0.8;" x="105.751011" xlink:href="#m2ce12e8cf2" y="307.584"/>
      </g>
     </g>
     <g id="text_4">
      <!-- 12 -->
      <defs>
       <path d="M 19.1875 8.296875 
L 53.609375 8.296875 
L 53.609375 0 
L 7.328125 0 
L 7.328125 8.296875 
Q 12.9375 14.109375 22.625 23.890625 
Q 32.328125 33.6875 34.8125 36.53125 
Q 39.546875 41.84375 41.421875 45.53125 
Q 43.3125 49.21875 43.3125 52.78125 
Q 43.3125 58.59375 39.234375 62.25 
Q 35.15625 65.921875 28.609375 65.921875 
Q 23.96875 65.921875 18.8125 64.3125 
Q 13.671875 62.703125 7.8125 59.421875 
L 7.8125 69.390625 
Q 13.765625 71.78125 18.9375 73 
Q 24.125 74.21875 28.421875 74.21875 
Q 39.75 74.21875 46.484375 68.546875 
Q 53.21875 62.890625 53.21875 53.421875 
Q 53.21875 48.921875 51.53125 44.890625 
Q 49.859375 40.875 45.40625 35.40625 
Q 44.1875 33.984375 37.640625 27.21875 
Q 31.109375 20.453125 19.1875 8.296875 
z
" id="DejaVuSans-50"/>
      </defs>
      <g transform="translate(99.388511 322.182437)scale(0.1 -0.1)">
       <use xlink:href="#DejaVuSans-49"/>
       <use x="63.623047" xlink:href="#DejaVuSans-50"/>
      </g>
     </g>
    </g>
    <g id="xtick_5">
     <g id="line2d_9">
      <path clip-path="url(#p65e6194ccb)" d="M 121.801348 307.584 
L 121.801348 41.472 
" style="fill:none;stroke:#b0b0b0;stroke-dasharray:5.12,1.28,0.8,1.28;stroke-dashoffset:0;stroke-width:0.8;"/>
     </g>
     <g id="line2d_10">
      <g>
       <use style="stroke:#000000;stroke-width:0.8;" x="121.801348" xlink:href="#m2ce12e8cf2" y="307.584"/>
      </g>
     </g>
     <g id="text_5">
      <!-- 16 -->
      <defs>
       <path d="M 33.015625 40.375 
Q 26.375 40.375 22.484375 35.828125 
Q 18.609375 31.296875 18.609375 23.390625 
Q 18.609375 15.53125 22.484375 10.953125 
Q 26.375 6.390625 33.015625 6.390625 
Q 39.65625 6.390625 43.53125 10.953125 
Q 47.40625 15.53125 47.40625 23.390625 
Q 47.40625 31.296875 43.53125 35.828125 
Q 39.65625 40.375 33.015625 40.375 
z
M 52.59375 71.296875 
L 52.59375 62.3125 
Q 48.875 64.0625 45.09375 64.984375 
Q 41.3125 65.921875 37.59375 65.921875 
Q 27.828125 65.921875 22.671875 59.328125 
Q 17.53125 52.734375 16.796875 39.40625 
Q 19.671875 43.65625 24.015625 45.921875 
Q 28.375 48.1875 33.59375 48.1875 
Q 44.578125 48.1875 50.953125 41.515625 
Q 57.328125 34.859375 57.328125 23.390625 
Q 57.328125 12.15625 50.6875 5.359375 
Q 44.046875 -1.421875 33.015625 -1.421875 
Q 20.359375 -1.421875 13.671875 8.265625 
Q 6.984375 17.96875 6.984375 36.375 
Q 6.984375 53.65625 15.1875 63.9375 
Q 23.390625 74.21875 37.203125 74.21875 
Q 40.921875 74.21875 44.703125 73.484375 
Q 48.484375 72.75 52.59375 71.296875 
z
" id="DejaVuSans-54"/>
      </defs>
      <g transform="translate(115.438848 322.182437)scale(0.1 -0.1)">
       <use xlink:href="#DejaVuSans-49"/>
       <use x="63.623047" xlink:href="#DejaVuSans-54"/>
      </g>
     </g>
    </g>
    <g id="xtick_6">
     <g id="line2d_11">
      <path clip-path="url(#p65e6194ccb)" d="M 137.851685 307.584 
L 137.851685 41.472 
" style="fill:none;stroke:#b0b0b0;stroke-dasharray:5.12,1.28,0.8,1.28;stroke-dashoffset:0;stroke-width:0.8;"/>
     </g>
     <g id="line2d_12">
      <g>
       <use style="stroke:#000000;stroke-width:0.8;" x="137.851685" xlink:href="#m2ce12e8cf2" y="307.584"/>
      </g>
     </g>
     <g id="text_6">
      <!-- 20 -->
      <defs>
       <path d="M 31.78125 66.40625 
Q 24.171875 66.40625 20.328125 58.90625 
Q 16.5 51.421875 16.5 36.375 
Q 16.5 21.390625 20.328125 13.890625 
Q 24.171875 6.390625 31.78125 6.390625 
Q 39.453125 6.390625 43.28125 13.890625 
Q 47.125 21.390625 47.125 36.375 
Q 47.125 51.421875 43.28125 58.90625 
Q 39.453125 66.40625 31.78125 66.40625 
z
M 31.78125 74.21875 
Q 44.046875 74.21875 50.515625 64.515625 
Q 56.984375 54.828125 56.984375 36.375 
Q 56.984375 17.96875 50.515625 8.265625 
Q 44.046875 -1.421875 31.78125 -1.421875 
Q 19.53125 -1.421875 13.0625 8.265625 
Q 6.59375 17.96875 6.59375 36.375 
Q 6.59375 54.828125 13.0625 64.515625 
Q 19.53125 74.21875 31.78125 74.21875 
z
" id="DejaVuSans-48"/>
      </defs>
      <g transform="translate(131.489185 322.182437)scale(0.1 -0.1)">
       <use xlink:href="#DejaVuSans-50"/>
       <use x="63.623047" xlink:href="#DejaVuSans-48"/>
      </g>
     </g>
    </g>
    <g id="xtick_7">
     <g id="line2d_13">
      <path clip-path="url(#p65e6194ccb)" d="M 153.902022 307.584 
L 153.902022 41.472 
" style="fill:none;stroke:#b0b0b0;stroke-dasharray:5.12,1.28,0.8,1.28;stroke-dashoffset:0;stroke-width:0.8;"/>
     </g>
     <g id="line2d_14">
      <g>
       <use style="stroke:#000000;stroke-width:0.8;" x="153.902022" xlink:href="#m2ce12e8cf2" y="307.584"/>
      </g>
     </g>
     <g id="text_7">
      <!-- 24 -->
      <g transform="translate(147.539522 322.182437)scale(0.1 -0.1)">
       <use xlink:href="#DejaVuSans-50"/>
       <use x="63.623047" xlink:href="#DejaVuSans-52"/>
      </g>
     </g>
    </g>
    <g id="xtick_8">
     <g id="line2d_15">
      <path clip-path="url(#p65e6194ccb)" d="M 169.95236 307.584 
L 169.95236 41.472 
" style="fill:none;stroke:#b0b0b0;stroke-dasharray:5.12,1.28,0.8,1.28;stroke-dashoffset:0;stroke-width:0.8;"/>
     </g>
     <g id="line2d_16">
      <g>
       <use style="stroke:#000000;stroke-width:0.8;" x="169.95236" xlink:href="#m2ce12e8cf2" y="307.584"/>
      </g>
     </g>
     <g id="text_8">
      <!-- 28 -->
      <g transform="translate(163.58986 322.182437)scale(0.1 -0.1)">
       <use xlink:href="#DejaVuSans-50"/>
       <use x="63.623047" xlink:href="#DejaVuSans-56"/>
      </g>
     </g>
    </g>
    <g id="xtick_9">
     <g id="line2d_17">
      <path clip-path="url(#p65e6194ccb)" d="M 186.002697 307.584 
L 186.002697 41.472 
" style="fill:none;stroke:#b0b0b0;stroke-dasharray:5.12,1.28,0.8,1.28;stroke-dashoffset:0;stroke-width:0.8;"/>
     </g>
     <g id="line2d_18">
      <g>
       <use style="stroke:#000000;stroke-width:0.8;" x="186.002697" xlink:href="#m2ce12e8cf2" y="307.584"/>
      </g>
     </g>
     <g id="text_9">
      <!-- 32 -->
      <defs>
       <path d="M 40.578125 39.3125 
Q 47.65625 37.796875 51.625 33 
Q 55.609375 28.21875 55.609375 21.1875 
Q 55.609375 10.40625 48.1875 4.484375 
Q 40.765625 -1.421875 27.09375 -1.421875 
Q 22.515625 -1.421875 17.65625 -0.515625 
Q 12.796875 0.390625 7.625 2.203125 
L 7.625 11.71875 
Q 11.71875 9.328125 16.59375 8.109375 
Q 21.484375 6.890625 26.8125 6.890625 
Q 36.078125 6.890625 40.9375 10.546875 
Q 45.796875 14.203125 45.796875 21.1875 
Q 45.796875 27.640625 41.28125 31.265625 
Q 36.765625 34.90625 28.71875 34.90625 
L 20.21875 34.90625 
L 20.21875 43.015625 
L 29.109375 43.015625 
Q 36.375 43.015625 40.234375 45.921875 
Q 44.09375 48.828125 44.09375 54.296875 
Q 44.09375 59.90625 40.109375 62.90625 
Q 36.140625 65.921875 28.71875 65.921875 
Q 24.65625 65.921875 20.015625 65.03125 
Q 15.375 64.15625 9.8125 62.3125 
L 9.8125 71.09375 
Q 15.4375 72.65625 20.34375 73.4375 
Q 25.25 74.21875 29.59375 74.21875 
Q 40.828125 74.21875 47.359375 69.109375 
Q 53.90625 64.015625 53.90625 55.328125 
Q 53.90625 49.265625 50.4375 45.09375 
Q 46.96875 40.921875 40.578125 39.3125 
z
" id="DejaVuSans-51"/>
      </defs>
      <g transform="translate(179.640197 322.182437)scale(0.1 -0.1)">
       <use xlink:href="#DejaVuSans-51"/>
       <use x="63.623047" xlink:href="#DejaVuSans-50"/>
      </g>
     </g>
    </g>
    <g id="xtick_10">
     <g id="line2d_19">
      <path clip-path="url(#p65e6194ccb)" d="M 202.053034 307.584 
L 202.053034 41.472 
" style="fill:none;stroke:#b0b0b0;stroke-dasharray:5.12,1.28,0.8,1.28;stroke-dashoffset:0;stroke-width:0.8;"/>
     </g>
     <g id="line2d_20">
      <g>
       <use style="stroke:#000000;stroke-width:0.8;" x="202.053034" xlink:href="#m2ce12e8cf2" y="307.584"/>
      </g>
     </g>
     <g id="text_10">
      <!-- 36 -->
      <g transform="translate(195.690534 322.182437)scale(0.1 -0.1)">
       <use xlink:href="#DejaVuSans-51"/>
       <use x="63.623047" xlink:href="#DejaVuSans-54"/>
      </g>
     </g>
    </g>
    <g id="xtick_11">
     <g id="line2d_21">
      <path clip-path="url(#p65e6194ccb)" d="M 218.103371 307.584 
L 218.103371 41.472 
" style="fill:none;stroke:#b0b0b0;stroke-dasharray:5.12,1.28,0.8,1.28;stroke-dashoffset:0;stroke-width:0.8;"/>
     </g>
     <g id="line2d_22">
      <g>
       <use style="stroke:#000000;stroke-width:0.8;" x="218.103371" xlink:href="#m2ce12e8cf2" y="307.584"/>
      </g>
     </g>
     <g id="text_11">
      <!-- 40 -->
      <g transform="translate(211.740871 322.182437)scale(0.1 -0.1)">
       <use xlink:href="#DejaVuSans-52"/>
       <use x="63.623047" xlink:href="#DejaVuSans-48"/>
      </g>
     </g>
    </g>
    <g id="xtick_12">
     <g id="line2d_23">
      <path clip-path="url(#p65e6194ccb)" d="M 234.153708 307.584 
L 234.153708 41.472 
" style="fill:none;stroke:#b0b0b0;stroke-dasharray:5.12,1.28,0.8,1.28;stroke-dashoffset:0;stroke-width:0.8;"/>
     </g>
     <g id="line2d_24">
      <g>
       <use style="stroke:#000000;stroke-width:0.8;" x="234.153708" xlink:href="#m2ce12e8cf2" y="307.584"/>
      </g>
     </g>
     <g id="text_12">
      <!-- 44 -->
      <g transform="translate(227.791208 322.182437)scale(0.1 -0.1)">
       <use xlink:href="#DejaVuSans-52"/>
       <use x="63.623047" xlink:href="#DejaVuSans-52"/>
      </g>
     </g>
    </g>
    <g id="xtick_13">
     <g id="line2d_25">
      <path clip-path="url(#p65e6194ccb)" d="M 250.204045 307.584 
L 250.204045 41.472 
" style="fill:none;stroke:#b0b0b0;stroke-dasharray:5.12,1.28,0.8,1.28;stroke-dashoffset:0;stroke-width:0.8;"/>
     </g>
     <g id="line2d_26">
      <g>
       <use style="stroke:#000000;stroke-width:0.8;" x="250.204045" xlink:href="#m2ce12e8cf2" y="307.584"/>
      </g>
     </g>
     <g id="text_13">
      <!-- 48 -->
      <g transform="translate(243.841545 322.182437)scale(0.1 -0.1)">
       <use xlink:href="#DejaVuSans-52"/>
       <use x="63.623047" xlink:href="#DejaVuSans-56"/>
      </g>
     </g>
    </g>
    <g id="xtick_14">
     <g id="line2d_27">
      <path clip-path="url(#p65e6194ccb)" d="M 266.254382 307.584 
L 266.254382 41.472 
" style="fill:none;stroke:#b0b0b0;stroke-dasharray:5.12,1.28,0.8,1.28;stroke-dashoffset:0;stroke-width:0.8;"/>
     </g>
     <g id="line2d_28">
      <g>
       <use style="stroke:#000000;stroke-width:0.8;" x="266.254382" xlink:href="#m2ce12e8cf2" y="307.584"/>
      </g>
     </g>
     <g id="text_14">
      <!-- 52 -->
      <defs>
       <path d="M 10.796875 72.90625 
L 49.515625 72.90625 
L 49.515625 64.59375 
L 19.828125 64.59375 
L 19.828125 46.734375 
Q 21.96875 47.46875 24.109375 47.828125 
Q 26.265625 48.1875 28.421875 48.1875 
Q 40.625 48.1875 47.75 41.5 
Q 54.890625 34.8125 54.890625 23.390625 
Q 54.890625 11.625 47.5625 5.09375 
Q 40.234375 -1.421875 26.90625 -1.421875 
Q 22.3125 -1.421875 17.546875 -0.640625 
Q 12.796875 0.140625 7.71875 1.703125 
L 7.71875 11.625 
Q 12.109375 9.234375 16.796875 8.0625 
Q 21.484375 6.890625 26.703125 6.890625 
Q 35.15625 6.890625 40.078125 11.328125 
Q 45.015625 15.765625 45.015625 23.390625 
Q 45.015625 31 40.078125 35.4375 
Q 35.15625 39.890625 26.703125 39.890625 
Q 22.75 39.890625 18.8125 39.015625 
Q 14.890625 38.140625 10.796875 36.28125 
z
" id="DejaVuSans-53"/>
      </defs>
      <g transform="translate(259.891882 322.182437)scale(0.1 -0.1)">
       <use xlink:href="#DejaVuSans-53"/>
       <use x="63.623047" xlink:href="#DejaVuSans-50"/>
      </g>
     </g>
    </g>
    <g id="xtick_15">
     <g id="line2d_29">
      <path clip-path="url(#p65e6194ccb)" d="M 282.304719 307.584 
L 282.304719 41.472 
" style="fill:none;stroke:#b0b0b0;stroke-dasharray:5.12,1.28,0.8,1.28;stroke-dashoffset:0;stroke-width:0.8;"/>
     </g>
     <g id="line2d_30">
      <g>
       <use style="stroke:#000000;stroke-width:0.8;" x="282.304719" xlink:href="#m2ce12e8cf2" y="307.584"/>
      </g>
     </g>
     <g id="text_15">
      <!-- 56 -->
      <g transform="translate(275.942219 322.182437)scale(0.1 -0.1)">
       <use xlink:href="#DejaVuSans-53"/>
       <use x="63.623047" xlink:href="#DejaVuSans-54"/>
      </g>
     </g>
    </g>
    <g id="xtick_16">
     <g id="line2d_31">
      <path clip-path="url(#p65e6194ccb)" d="M 298.355056 307.584 
L 298.355056 41.472 
" style="fill:none;stroke:#b0b0b0;stroke-dasharray:5.12,1.28,0.8,1.28;stroke-dashoffset:0;stroke-width:0.8;"/>
     </g>
     <g id="line2d_32">
      <g>
       <use style="stroke:#000000;stroke-width:0.8;" x="298.355056" xlink:href="#m2ce12e8cf2" y="307.584"/>
      </g>
     </g>
     <g id="text_16">
      <!-- 60 -->
      <g transform="translate(291.992556 322.182437)scale(0.1 -0.1)">
       <use xlink:href="#DejaVuSans-54"/>
       <use x="63.623047" xlink:href="#DejaVuSans-48"/>
      </g>
     </g>
    </g>
    <g id="xtick_17">
     <g id="line2d_33">
      <path clip-path="url(#p65e6194ccb)" d="M 314.405393 307.584 
L 314.405393 41.472 
" style="fill:none;stroke:#b0b0b0;stroke-dasharray:5.12,1.28,0.8,1.28;stroke-dashoffset:0;stroke-width:0.8;"/>
     </g>
     <g id="line2d_34">
      <g>
       <use style="stroke:#000000;stroke-width:0.8;" x="314.405393" xlink:href="#m2ce12e8cf2" y="307.584"/>
      </g>
     </g>
     <g id="text_17">
      <!-- 64 -->
      <g transform="translate(308.042893 322.182437)scale(0.1 -0.1)">
       <use xlink:href="#DejaVuSans-54"/>
       <use x="63.623047" xlink:href="#DejaVuSans-52"/>
      </g>
     </g>
    </g>
    <g id="xtick_18">
     <g id="line2d_35">
      <path clip-path="url(#p65e6194ccb)" d="M 330.45573 307.584 
L 330.45573 41.472 
" style="fill:none;stroke:#b0b0b0;stroke-dasharray:5.12,1.28,0.8,1.28;stroke-dashoffset:0;stroke-width:0.8;"/>
     </g>
     <g id="line2d_36">
      <g>
       <use style="stroke:#000000;stroke-width:0.8;" x="330.45573" xlink:href="#m2ce12e8cf2" y="307.584"/>
      </g>
     </g>
     <g id="text_18">
      <!-- 68 -->
      <g transform="translate(324.09323 322.182437)scale(0.1 -0.1)">
       <use xlink:href="#DejaVuSans-54"/>
       <use x="63.623047" xlink:href="#DejaVuSans-56"/>
      </g>
     </g>
    </g>
    <g id="xtick_19">
     <g id="line2d_37">
      <path clip-path="url(#p65e6194ccb)" d="M 346.506067 307.584 
L 346.506067 41.472 
" style="fill:none;stroke:#b0b0b0;stroke-dasharray:5.12,1.28,0.8,1.28;stroke-dashoffset:0;stroke-width:0.8;"/>
     </g>
     <g id="line2d_38">
      <g>
       <use style="stroke:#000000;stroke-width:0.8;" x="346.506067" xlink:href="#m2ce12e8cf2" y="307.584"/>
      </g>
     </g>
     <g id="text_19">
      <!-- 72 -->
      <defs>
       <path d="M 8.203125 72.90625 
L 55.078125 72.90625 
L 55.078125 68.703125 
L 28.609375 0 
L 18.3125 0 
L 43.21875 64.59375 
L 8.203125 64.59375 
z
" id="DejaVuSans-55"/>
      </defs>
      <g transform="translate(340.143567 322.182437)scale(0.1 -0.1)">
       <use xlink:href="#DejaVuSans-55"/>
       <use x="63.623047" xlink:href="#DejaVuSans-50"/>
      </g>
     </g>
    </g>
    <g id="xtick_20">
     <g id="line2d_39">
      <path clip-path="url(#p65e6194ccb)" d="M 362.556404 307.584 
L 362.556404 41.472 
" style="fill:none;stroke:#b0b0b0;stroke-dasharray:5.12,1.28,0.8,1.28;stroke-dashoffset:0;stroke-width:0.8;"/>
     </g>
     <g id="line2d_40">
      <g>
       <use style="stroke:#000000;stroke-width:0.8;" x="362.556404" xlink:href="#m2ce12e8cf2" y="307.584"/>
      </g>
     </g>
     <g id="text_20">
      <!-- 76 -->
      <g transform="translate(356.193904 322.182437)scale(0.1 -0.1)">
       <use xlink:href="#DejaVuSans-55"/>
       <use x="63.623047" xlink:href="#DejaVuSans-54"/>
      </g>
     </g>
    </g>
    <g id="xtick_21">
     <g id="line2d_41">
      <path clip-path="url(#p65e6194ccb)" d="M 378.606742 307.584 
L 378.606742 41.472 
" style="fill:none;stroke:#b0b0b0;stroke-dasharray:5.12,1.28,0.8,1.28;stroke-dashoffset:0;stroke-width:0.8;"/>
     </g>
     <g id="line2d_42">
      <g>
       <use style="stroke:#000000;stroke-width:0.8;" x="378.606742" xlink:href="#m2ce12e8cf2" y="307.584"/>
      </g>
     </g>
     <g id="text_21">
      <!-- 80 -->
      <g transform="translate(372.244242 322.182437)scale(0.1 -0.1)">
       <use xlink:href="#DejaVuSans-56"/>
       <use x="63.623047" xlink:href="#DejaVuSans-48"/>
      </g>
     </g>
    </g>
    <g id="xtick_22">
     <g id="line2d_43">
      <path clip-path="url(#p65e6194ccb)" d="M 394.657079 307.584 
L 394.657079 41.472 
" style="fill:none;stroke:#b0b0b0;stroke-dasharray:5.12,1.28,0.8,1.28;stroke-dashoffset:0;stroke-width:0.8;"/>
     </g>
     <g id="line2d_44">
      <g>
       <use style="stroke:#000000;stroke-width:0.8;" x="394.657079" xlink:href="#m2ce12e8cf2" y="307.584"/>
      </g>
     </g>
     <g id="text_22">
      <!-- 84 -->
      <g transform="translate(388.294579 322.182437)scale(0.1 -0.1)">
       <use xlink:href="#DejaVuSans-56"/>
       <use x="63.623047" xlink:href="#DejaVuSans-52"/>
      </g>
     </g>
    </g>
    <g id="xtick_23">
     <g id="line2d_45">
      <path clip-path="url(#p65e6194ccb)" d="M 410.707416 307.584 
L 410.707416 41.472 
" style="fill:none;stroke:#b0b0b0;stroke-dasharray:5.12,1.28,0.8,1.28;stroke-dashoffset:0;stroke-width:0.8;"/>
     </g>
     <g id="line2d_46">
      <g>
       <use style="stroke:#000000;stroke-width:0.8;" x="410.707416" xlink:href="#m2ce12e8cf2" y="307.584"/>
      </g>
     </g>
     <g id="text_23">
      <!-- 88 -->
      <g transform="translate(404.344916 322.182437)scale(0.1 -0.1)">
       <use xlink:href="#DejaVuSans-56"/>
       <use x="63.623047" xlink:href="#DejaVuSans-56"/>
      </g>
     </g>
    </g>
    <g id="text_24">
     <!-- threads -->
     <defs>
      <path d="M 18.3125 70.21875 
L 18.3125 54.6875 
L 36.8125 54.6875 
L 36.8125 47.703125 
L 18.3125 47.703125 
L 18.3125 18.015625 
Q 18.3125 11.328125 20.140625 9.421875 
Q 21.96875 7.515625 27.59375 7.515625 
L 36.8125 7.515625 
L 36.8125 0 
L 27.59375 0 
Q 17.1875 0 13.234375 3.875 
Q 9.28125 7.765625 9.28125 18.015625 
L 9.28125 47.703125 
L 2.6875 47.703125 
L 2.6875 54.6875 
L 9.28125 54.6875 
L 9.28125 70.21875 
z
" id="DejaVuSans-116"/>
      <path d="M 54.890625 33.015625 
L 54.890625 0 
L 45.90625 0 
L 45.90625 32.71875 
Q 45.90625 40.484375 42.875 44.328125 
Q 39.84375 48.1875 33.796875 48.1875 
Q 26.515625 48.1875 22.3125 43.546875 
Q 18.109375 38.921875 18.109375 30.90625 
L 18.109375 0 
L 9.078125 0 
L 9.078125 75.984375 
L 18.109375 75.984375 
L 18.109375 46.1875 
Q 21.34375 51.125 25.703125 53.5625 
Q 30.078125 56 35.796875 56 
Q 45.21875 56 50.046875 50.171875 
Q 54.890625 44.34375 54.890625 33.015625 
z
" id="DejaVuSans-104"/>
      <path d="M 41.109375 46.296875 
Q 39.59375 47.171875 37.8125 47.578125 
Q 36.03125 48 33.890625 48 
Q 26.265625 48 22.1875 43.046875 
Q 18.109375 38.09375 18.109375 28.8125 
L 18.109375 0 
L 9.078125 0 
L 9.078125 54.6875 
L 18.109375 54.6875 
L 18.109375 46.1875 
Q 20.953125 51.171875 25.484375 53.578125 
Q 30.03125 56 36.53125 56 
Q 37.453125 56 38.578125 55.875 
Q 39.703125 55.765625 41.0625 55.515625 
z
" id="DejaVuSans-114"/>
      <path d="M 56.203125 29.59375 
L 56.203125 25.203125 
L 14.890625 25.203125 
Q 15.484375 15.921875 20.484375 11.0625 
Q 25.484375 6.203125 34.421875 6.203125 
Q 39.59375 6.203125 44.453125 7.46875 
Q 49.3125 8.734375 54.109375 11.28125 
L 54.109375 2.78125 
Q 49.265625 0.734375 44.1875 -0.34375 
Q 39.109375 -1.421875 33.890625 -1.421875 
Q 20.796875 -1.421875 13.15625 6.1875 
Q 5.515625 13.8125 5.515625 26.8125 
Q 5.515625 40.234375 12.765625 48.109375 
Q 20.015625 56 32.328125 56 
Q 43.359375 56 49.78125 48.890625 
Q 56.203125 41.796875 56.203125 29.59375 
z
M 47.21875 32.234375 
Q 47.125 39.59375 43.09375 43.984375 
Q 39.0625 48.390625 32.421875 48.390625 
Q 24.90625 48.390625 20.390625 44.140625 
Q 15.875 39.890625 15.1875 32.171875 
z
" id="DejaVuSans-101"/>
      <path d="M 34.28125 27.484375 
Q 23.390625 27.484375 19.1875 25 
Q 14.984375 22.515625 14.984375 16.5 
Q 14.984375 11.71875 18.140625 8.90625 
Q 21.296875 6.109375 26.703125 6.109375 
Q 34.1875 6.109375 38.703125 11.40625 
Q 43.21875 16.703125 43.21875 25.484375 
L 43.21875 27.484375 
z
M 52.203125 31.203125 
L 52.203125 0 
L 43.21875 0 
L 43.21875 8.296875 
Q 40.140625 3.328125 35.546875 0.953125 
Q 30.953125 -1.421875 24.3125 -1.421875 
Q 15.921875 -1.421875 10.953125 3.296875 
Q 6 8.015625 6 15.921875 
Q 6 25.140625 12.171875 29.828125 
Q 18.359375 34.515625 30.609375 34.515625 
L 43.21875 34.515625 
L 43.21875 35.40625 
Q 43.21875 41.609375 39.140625 45 
Q 35.0625 48.390625 27.6875 48.390625 
Q 23 48.390625 18.546875 47.265625 
Q 14.109375 46.140625 10.015625 43.890625 
L 10.015625 52.203125 
Q 14.9375 54.109375 19.578125 55.046875 
Q 24.21875 56 28.609375 56 
Q 40.484375 56 46.34375 49.84375 
Q 52.203125 43.703125 52.203125 31.203125 
z
" id="DejaVuSans-97"/>
      <path d="M 45.40625 46.390625 
L 45.40625 75.984375 
L 54.390625 75.984375 
L 54.390625 0 
L 45.40625 0 
L 45.40625 8.203125 
Q 42.578125 3.328125 38.25 0.953125 
Q 33.9375 -1.421875 27.875 -1.421875 
Q 17.96875 -1.421875 11.734375 6.484375 
Q 5.515625 14.40625 5.515625 27.296875 
Q 5.515625 40.1875 11.734375 48.09375 
Q 17.96875 56 27.875 56 
Q 33.9375 56 38.25 53.625 
Q 42.578125 51.265625 45.40625 46.390625 
z
M 14.796875 27.296875 
Q 14.796875 17.390625 18.875 11.75 
Q 22.953125 6.109375 30.078125 6.109375 
Q 37.203125 6.109375 41.296875 11.75 
Q 45.40625 17.390625 45.40625 27.296875 
Q 45.40625 37.203125 41.296875 42.84375 
Q 37.203125 48.484375 30.078125 48.484375 
Q 22.953125 48.484375 18.875 42.84375 
Q 14.796875 37.203125 14.796875 27.296875 
z
" id="DejaVuSans-100"/>
      <path d="M 44.28125 53.078125 
L 44.28125 44.578125 
Q 40.484375 46.53125 36.375 47.5 
Q 32.28125 48.484375 27.875 48.484375 
Q 21.1875 48.484375 17.84375 46.4375 
Q 14.5 44.390625 14.5 40.28125 
Q 14.5 37.15625 16.890625 35.375 
Q 19.28125 33.59375 26.515625 31.984375 
L 29.59375 31.296875 
Q 39.15625 29.25 43.1875 25.515625 
Q 47.21875 21.78125 47.21875 15.09375 
Q 47.21875 7.46875 41.1875 3.015625 
Q 35.15625 -1.421875 24.609375 -1.421875 
Q 20.21875 -1.421875 15.453125 -0.5625 
Q 10.6875 0.296875 5.421875 2 
L 5.421875 11.28125 
Q 10.40625 8.6875 15.234375 7.390625 
Q 20.0625 6.109375 24.8125 6.109375 
Q 31.15625 6.109375 34.5625 8.28125 
Q 37.984375 10.453125 37.984375 14.40625 
Q 37.984375 18.0625 35.515625 20.015625 
Q 33.0625 21.96875 24.703125 23.78125 
L 21.578125 24.515625 
Q 13.234375 26.265625 9.515625 29.90625 
Q 5.8125 33.546875 5.8125 39.890625 
Q 5.8125 47.609375 11.28125 51.796875 
Q 16.75 56 26.8125 56 
Q 31.78125 56 36.171875 55.265625 
Q 40.578125 54.546875 44.28125 53.078125 
z
" id="DejaVuSans-115"/>
     </defs>
     <g transform="translate(217.168594 335.860562)scale(0.1 -0.1)">
      <use xlink:href="#DejaVuSans-116"/>
      <use x="39.208984" xlink:href="#DejaVuSans-104"/>
      <use x="102.587891" xlink:href="#DejaVuSans-114"/>
      <use x="141.451172" xlink:href="#DejaVuSans-101"/>
      <use x="202.974609" xlink:href="#DejaVuSans-97"/>
      <use x="264.253906" xlink:href="#DejaVuSans-100"/>
      <use x="327.730469" xlink:href="#DejaVuSans-115"/>
     </g>
    </g>
   </g>
   <g id="matplotlib.axis_2">
    <g id="ytick_1">
     <g id="line2d_47">
      <path clip-path="url(#p65e6194ccb)" d="M 57.6 291.759573 
L 414.72 291.759573 
" style="fill:none;stroke:#b0b0b0;stroke-dasharray:5.12,1.28,0.8,1.28;stroke-dashoffset:0;stroke-width:0.8;"/>
     </g>
     <g id="line2d_48">
      <defs>
       <path d="M 0 0 
L -3.5 0 
" id="mecad761f49" style="stroke:#000000;stroke-width:0.8;"/>
      </defs>
      <g>
       <use style="stroke:#000000;stroke-width:0.8;" x="57.6" xlink:href="#mecad761f49" y="291.759573"/>
      </g>
     </g>
     <g id="text_25">
      <!-- 20 -->
      <g transform="translate(37.875 295.558792)scale(0.1 -0.1)">
       <use xlink:href="#DejaVuSans-50"/>
       <use x="63.623047" xlink:href="#DejaVuSans-48"/>
      </g>
     </g>
    </g>
    <g id="ytick_2">
     <g id="line2d_49">
      <path clip-path="url(#p65e6194ccb)" d="M 57.6 262.006044 
L 414.72 262.006044 
" style="fill:none;stroke:#b0b0b0;stroke-dasharray:5.12,1.28,0.8,1.28;stroke-dashoffset:0;stroke-width:0.8;"/>
     </g>
     <g id="line2d_50">
      <g>
       <use style="stroke:#000000;stroke-width:0.8;" x="57.6" xlink:href="#mecad761f49" y="262.006044"/>
      </g>
     </g>
     <g id="text_26">
      <!-- 30 -->
      <g transform="translate(37.875 265.805263)scale(0.1 -0.1)">
       <use xlink:href="#DejaVuSans-51"/>
       <use x="63.623047" xlink:href="#DejaVuSans-48"/>
      </g>
     </g>
    </g>
    <g id="ytick_3">
     <g id="line2d_51">
      <path clip-path="url(#p65e6194ccb)" d="M 57.6 232.252515 
L 414.72 232.252515 
" style="fill:none;stroke:#b0b0b0;stroke-dasharray:5.12,1.28,0.8,1.28;stroke-dashoffset:0;stroke-width:0.8;"/>
     </g>
     <g id="line2d_52">
      <g>
       <use style="stroke:#000000;stroke-width:0.8;" x="57.6" xlink:href="#mecad761f49" y="232.252515"/>
      </g>
     </g>
     <g id="text_27">
      <!-- 40 -->
      <g transform="translate(37.875 236.051734)scale(0.1 -0.1)">
       <use xlink:href="#DejaVuSans-52"/>
       <use x="63.623047" xlink:href="#DejaVuSans-48"/>
      </g>
     </g>
    </g>
    <g id="ytick_4">
     <g id="line2d_53">
      <path clip-path="url(#p65e6194ccb)" d="M 57.6 202.498986 
L 414.72 202.498986 
" style="fill:none;stroke:#b0b0b0;stroke-dasharray:5.12,1.28,0.8,1.28;stroke-dashoffset:0;stroke-width:0.8;"/>
     </g>
     <g id="line2d_54">
      <g>
       <use style="stroke:#000000;stroke-width:0.8;" x="57.6" xlink:href="#mecad761f49" y="202.498986"/>
      </g>
     </g>
     <g id="text_28">
      <!-- 50 -->
      <g transform="translate(37.875 206.298205)scale(0.1 -0.1)">
       <use xlink:href="#DejaVuSans-53"/>
       <use x="63.623047" xlink:href="#DejaVuSans-48"/>
      </g>
     </g>
    </g>
    <g id="ytick_5">
     <g id="line2d_55">
      <path clip-path="url(#p65e6194ccb)" d="M 57.6 172.745457 
L 414.72 172.745457 
" style="fill:none;stroke:#b0b0b0;stroke-dasharray:5.12,1.28,0.8,1.28;stroke-dashoffset:0;stroke-width:0.8;"/>
     </g>
     <g id="line2d_56">
      <g>
       <use style="stroke:#000000;stroke-width:0.8;" x="57.6" xlink:href="#mecad761f49" y="172.745457"/>
      </g>
     </g>
     <g id="text_29">
      <!-- 60 -->
      <g transform="translate(37.875 176.544676)scale(0.1 -0.1)">
       <use xlink:href="#DejaVuSans-54"/>
       <use x="63.623047" xlink:href="#DejaVuSans-48"/>
      </g>
     </g>
    </g>
    <g id="ytick_6">
     <g id="line2d_57">
      <path clip-path="url(#p65e6194ccb)" d="M 57.6 142.991929 
L 414.72 142.991929 
" style="fill:none;stroke:#b0b0b0;stroke-dasharray:5.12,1.28,0.8,1.28;stroke-dashoffset:0;stroke-width:0.8;"/>
     </g>
     <g id="line2d_58">
      <g>
       <use style="stroke:#000000;stroke-width:0.8;" x="57.6" xlink:href="#mecad761f49" y="142.991929"/>
      </g>
     </g>
     <g id="text_30">
      <!-- 70 -->
      <g transform="translate(37.875 146.791147)scale(0.1 -0.1)">
       <use xlink:href="#DejaVuSans-55"/>
       <use x="63.623047" xlink:href="#DejaVuSans-48"/>
      </g>
     </g>
    </g>
    <g id="ytick_7">
     <g id="line2d_59">
      <path clip-path="url(#p65e6194ccb)" d="M 57.6 113.2384 
L 414.72 113.2384 
" style="fill:none;stroke:#b0b0b0;stroke-dasharray:5.12,1.28,0.8,1.28;stroke-dashoffset:0;stroke-width:0.8;"/>
     </g>
     <g id="line2d_60">
      <g>
       <use style="stroke:#000000;stroke-width:0.8;" x="57.6" xlink:href="#mecad761f49" y="113.2384"/>
      </g>
     </g>
     <g id="text_31">
      <!-- 80 -->
      <g transform="translate(37.875 117.037618)scale(0.1 -0.1)">
       <use xlink:href="#DejaVuSans-56"/>
       <use x="63.623047" xlink:href="#DejaVuSans-48"/>
      </g>
     </g>
    </g>
    <g id="ytick_8">
     <g id="line2d_61">
      <path clip-path="url(#p65e6194ccb)" d="M 57.6 83.484871 
L 414.72 83.484871 
" style="fill:none;stroke:#b0b0b0;stroke-dasharray:5.12,1.28,0.8,1.28;stroke-dashoffset:0;stroke-width:0.8;"/>
     </g>
     <g id="line2d_62">
      <g>
       <use style="stroke:#000000;stroke-width:0.8;" x="57.6" xlink:href="#mecad761f49" y="83.484871"/>
      </g>
     </g>
     <g id="text_32">
      <!-- 90 -->
      <defs>
       <path d="M 10.984375 1.515625 
L 10.984375 10.5 
Q 14.703125 8.734375 18.5 7.8125 
Q 22.3125 6.890625 25.984375 6.890625 
Q 35.75 6.890625 40.890625 13.453125 
Q 46.046875 20.015625 46.78125 33.40625 
Q 43.953125 29.203125 39.59375 26.953125 
Q 35.25 24.703125 29.984375 24.703125 
Q 19.046875 24.703125 12.671875 31.3125 
Q 6.296875 37.9375 6.296875 49.421875 
Q 6.296875 60.640625 12.9375 67.421875 
Q 19.578125 74.21875 30.609375 74.21875 
Q 43.265625 74.21875 49.921875 64.515625 
Q 56.59375 54.828125 56.59375 36.375 
Q 56.59375 19.140625 48.40625 8.859375 
Q 40.234375 -1.421875 26.421875 -1.421875 
Q 22.703125 -1.421875 18.890625 -0.6875 
Q 15.09375 0.046875 10.984375 1.515625 
z
M 30.609375 32.421875 
Q 37.25 32.421875 41.125 36.953125 
Q 45.015625 41.5 45.015625 49.421875 
Q 45.015625 57.28125 41.125 61.84375 
Q 37.25 66.40625 30.609375 66.40625 
Q 23.96875 66.40625 20.09375 61.84375 
Q 16.21875 57.28125 16.21875 49.421875 
Q 16.21875 41.5 20.09375 36.953125 
Q 23.96875 32.421875 30.609375 32.421875 
z
" id="DejaVuSans-57"/>
      </defs>
      <g transform="translate(37.875 87.284089)scale(0.1 -0.1)">
       <use xlink:href="#DejaVuSans-57"/>
       <use x="63.623047" xlink:href="#DejaVuSans-48"/>
      </g>
     </g>
    </g>
    <g id="ytick_9">
     <g id="line2d_63">
      <path clip-path="url(#p65e6194ccb)" d="M 57.6 53.731342 
L 414.72 53.731342 
" style="fill:none;stroke:#b0b0b0;stroke-dasharray:5.12,1.28,0.8,1.28;stroke-dashoffset:0;stroke-width:0.8;"/>
     </g>
     <g id="line2d_64">
      <g>
       <use style="stroke:#000000;stroke-width:0.8;" x="57.6" xlink:href="#mecad761f49" y="53.731342"/>
      </g>
     </g>
     <g id="text_33">
      <!-- 100 -->
      <g transform="translate(31.5125 57.530561)scale(0.1 -0.1)">
       <use xlink:href="#DejaVuSans-49"/>
       <use x="63.623047" xlink:href="#DejaVuSans-48"/>
       <use x="127.246094" xlink:href="#DejaVuSans-48"/>
      </g>
     </g>
    </g>
    <g id="text_34">
     <!-- duration (s) -->
     <defs>
      <path d="M 8.5 21.578125 
L 8.5 54.6875 
L 17.484375 54.6875 
L 17.484375 21.921875 
Q 17.484375 14.15625 20.5 10.265625 
Q 23.53125 6.390625 29.59375 6.390625 
Q 36.859375 6.390625 41.078125 11.03125 
Q 45.3125 15.671875 45.3125 23.6875 
L 45.3125 54.6875 
L 54.296875 54.6875 
L 54.296875 0 
L 45.3125 0 
L 45.3125 8.40625 
Q 42.046875 3.421875 37.71875 1 
Q 33.40625 -1.421875 27.6875 -1.421875 
Q 18.265625 -1.421875 13.375 4.4375 
Q 8.5 10.296875 8.5 21.578125 
z
M 31.109375 56 
z
" id="DejaVuSans-117"/>
      <path d="M 9.421875 54.6875 
L 18.40625 54.6875 
L 18.40625 0 
L 9.421875 0 
z
M 9.421875 75.984375 
L 18.40625 75.984375 
L 18.40625 64.59375 
L 9.421875 64.59375 
z
" id="DejaVuSans-105"/>
      <path d="M 30.609375 48.390625 
Q 23.390625 48.390625 19.1875 42.75 
Q 14.984375 37.109375 14.984375 27.296875 
Q 14.984375 17.484375 19.15625 11.84375 
Q 23.34375 6.203125 30.609375 6.203125 
Q 37.796875 6.203125 41.984375 11.859375 
Q 46.1875 17.53125 46.1875 27.296875 
Q 46.1875 37.015625 41.984375 42.703125 
Q 37.796875 48.390625 30.609375 48.390625 
z
M 30.609375 56 
Q 42.328125 56 49.015625 48.375 
Q 55.71875 40.765625 55.71875 27.296875 
Q 55.71875 13.875 49.015625 6.21875 
Q 42.328125 -1.421875 30.609375 -1.421875 
Q 18.84375 -1.421875 12.171875 6.21875 
Q 5.515625 13.875 5.515625 27.296875 
Q 5.515625 40.765625 12.171875 48.375 
Q 18.84375 56 30.609375 56 
z
" id="DejaVuSans-111"/>
      <path d="M 54.890625 33.015625 
L 54.890625 0 
L 45.90625 0 
L 45.90625 32.71875 
Q 45.90625 40.484375 42.875 44.328125 
Q 39.84375 48.1875 33.796875 48.1875 
Q 26.515625 48.1875 22.3125 43.546875 
Q 18.109375 38.921875 18.109375 30.90625 
L 18.109375 0 
L 9.078125 0 
L 9.078125 54.6875 
L 18.109375 54.6875 
L 18.109375 46.1875 
Q 21.34375 51.125 25.703125 53.5625 
Q 30.078125 56 35.796875 56 
Q 45.21875 56 50.046875 50.171875 
Q 54.890625 44.34375 54.890625 33.015625 
z
" id="DejaVuSans-110"/>
      <path id="DejaVuSans-32"/>
      <path d="M 31 75.875 
Q 24.46875 64.65625 21.28125 53.65625 
Q 18.109375 42.671875 18.109375 31.390625 
Q 18.109375 20.125 21.3125 9.0625 
Q 24.515625 -2 31 -13.1875 
L 23.1875 -13.1875 
Q 15.875 -1.703125 12.234375 9.375 
Q 8.59375 20.453125 8.59375 31.390625 
Q 8.59375 42.28125 12.203125 53.3125 
Q 15.828125 64.359375 23.1875 75.875 
z
" id="DejaVuSans-40"/>
      <path d="M 8.015625 75.875 
L 15.828125 75.875 
Q 23.140625 64.359375 26.78125 53.3125 
Q 30.421875 42.28125 30.421875 31.390625 
Q 30.421875 20.453125 26.78125 9.375 
Q 23.140625 -1.703125 15.828125 -13.1875 
L 8.015625 -13.1875 
Q 14.5 -2 17.703125 9.0625 
Q 20.90625 20.125 20.90625 31.390625 
Q 20.90625 42.671875 17.703125 53.65625 
Q 14.5 64.65625 8.015625 75.875 
z
" id="DejaVuSans-41"/>
     </defs>
     <g transform="translate(25.432812 203.663156)rotate(-90)scale(0.1 -0.1)">
      <use xlink:href="#DejaVuSans-100"/>
      <use x="63.476562" xlink:href="#DejaVuSans-117"/>
      <use x="126.855469" xlink:href="#DejaVuSans-114"/>
      <use x="167.96875" xlink:href="#DejaVuSans-97"/>
      <use x="229.248047" xlink:href="#DejaVuSans-116"/>
      <use x="268.457031" xlink:href="#DejaVuSans-105"/>
      <use x="296.240234" xlink:href="#DejaVuSans-111"/>
      <use x="357.421875" xlink:href="#DejaVuSans-110"/>
      <use x="420.800781" xlink:href="#DejaVuSans-32"/>
      <use x="452.587891" xlink:href="#DejaVuSans-40"/>
      <use x="491.601562" xlink:href="#DejaVuSans-115"/>
      <use x="543.701172" xlink:href="#DejaVuSans-41"/>
     </g>
    </g>
   </g>
   <g id="line2d_65">
    <path clip-path="url(#p65e6194ccb)" d="M 61.612584 61.560914 
L 65.625169 185.457689 
L 69.637753 224.577895 
L 73.650337 245.115204 
L 77.662921 257.702046 
L 81.675506 266.205709 
L 85.68809 272.85824 
L 89.700674 277.535198 
L 93.713258 281.597492 
L 97.725843 284.567234 
L 101.738427 286.867415 
L 105.751011 288.848255 
L 109.763596 290.089195 
L 113.77618 290.879091 
L 117.788764 291.680344 
L 121.801348 292.380519 
L 125.813933 292.924422 
L 129.826517 293.456552 
L 133.839101 293.64357 
L 137.851685 294.17259 
L 141.86427 294.287353 
L 145.876854 294.5622 
L 149.889438 294.621318 
L 153.902022 294.843231 
L 157.914607 294.984022 
L 161.927191 294.918354 
L 165.939775 295.089577 
L 169.95236 295.273647 
L 173.964944 295.341902 
L 177.977528 295.181122 
L 181.990112 295.235171 
L 186.002697 295.488 
L 190.015281 295.468255 
L 194.027865 295.197402 
L 198.040449 295.31793 
L 202.053034 295.360813 
L 206.065618 295.433039 
L 210.078202 295.192191 
L 214.090787 295.077238 
L 218.103371 295.044521 
L 222.115955 295.314022 
L 226.128539 295.371494 
L 230.141124 295.270931 
L 234.153708 295.485837 
L 238.166292 295.157278 
L 242.178876 295.189026 
L 246.191461 294.910683 
L 250.204045 294.894754 
L 254.216629 294.892456 
L 258.229213 294.87624 
L 262.241798 294.911907 
L 266.254382 294.651188 
L 270.266966 294.793628 
L 274.279551 294.543329 
L 278.292135 294.629539 
L 282.304719 294.652938 
L 286.317303 294.462735 
L 290.329888 294.310819 
L 294.342472 293.762233 
L 298.355056 293.682799 
L 302.36764 294.063176 
L 306.380225 293.920189 
L 310.392809 293.93772 
L 314.405393 294.184872 
L 318.417978 294.314664 
L 322.430562 293.981616 
L 326.443146 293.974364 
L 330.45573 293.886852 
L 334.468315 293.828252 
L 338.480899 293.748727 
L 342.493483 293.655254 
L 346.506067 293.624681 
L 350.518652 293.387915 
L 354.531236 293.464619 
L 358.54382 293.362239 
L 362.556404 293.060623 
L 366.568989 293.08598 
L 370.581573 293.000406 
L 374.594157 292.882834 
L 378.606742 292.838475 
L 382.619326 292.804906 
L 386.63191 292.83874 
L 390.644494 292.600911 
L 394.657079 292.591419 
L 398.669663 292.365725 
L 402.682247 292.272625 
L 406.694831 292.034679 
L 410.707416 291.857862 
" style="fill:none;stroke:#0000ff;stroke-dasharray:1.5,2.475;stroke-dashoffset:0;stroke-width:1.5;"/>
    <defs>
     <path d="M 0 1.5 
C 0.397805 1.5 0.77937 1.341951 1.06066 1.06066 
C 1.341951 0.77937 1.5 0.397805 1.5 0 
C 1.5 -0.397805 1.341951 -0.77937 1.06066 -1.06066 
C 0.77937 -1.341951 0.397805 -1.5 0 -1.5 
C -0.397805 -1.5 -0.77937 -1.341951 -1.06066 -1.06066 
C -1.341951 -0.77937 -1.5 -0.397805 -1.5 0 
C -1.5 0.397805 -1.341951 0.77937 -1.06066 1.06066 
C -0.77937 1.341951 -0.397805 1.5 0 1.5 
z
" id="me4a0670bd1" style="stroke:#0000ff;"/>
    </defs>
    <g clip-path="url(#p65e6194ccb)">
     <use style="fill:#0000ff;stroke:#0000ff;" x="61.612584" xlink:href="#me4a0670bd1" y="61.560914"/>
     <use style="fill:#0000ff;stroke:#0000ff;" x="65.625169" xlink:href="#me4a0670bd1" y="185.457689"/>
     <use style="fill:#0000ff;stroke:#0000ff;" x="69.637753" xlink:href="#me4a0670bd1" y="224.577895"/>
     <use style="fill:#0000ff;stroke:#0000ff;" x="73.650337" xlink:href="#me4a0670bd1" y="245.115204"/>
     <use style="fill:#0000ff;stroke:#0000ff;" x="77.662921" xlink:href="#me4a0670bd1" y="257.702046"/>
     <use style="fill:#0000ff;stroke:#0000ff;" x="81.675506" xlink:href="#me4a0670bd1" y="266.205709"/>
     <use style="fill:#0000ff;stroke:#0000ff;" x="85.68809" xlink:href="#me4a0670bd1" y="272.85824"/>
     <use style="fill:#0000ff;stroke:#0000ff;" x="89.700674" xlink:href="#me4a0670bd1" y="277.535198"/>
     <use style="fill:#0000ff;stroke:#0000ff;" x="93.713258" xlink:href="#me4a0670bd1" y="281.597492"/>
     <use style="fill:#0000ff;stroke:#0000ff;" x="97.725843" xlink:href="#me4a0670bd1" y="284.567234"/>
     <use style="fill:#0000ff;stroke:#0000ff;" x="101.738427" xlink:href="#me4a0670bd1" y="286.867415"/>
     <use style="fill:#0000ff;stroke:#0000ff;" x="105.751011" xlink:href="#me4a0670bd1" y="288.848255"/>
     <use style="fill:#0000ff;stroke:#0000ff;" x="109.763596" xlink:href="#me4a0670bd1" y="290.089195"/>
     <use style="fill:#0000ff;stroke:#0000ff;" x="113.77618" xlink:href="#me4a0670bd1" y="290.879091"/>
     <use style="fill:#0000ff;stroke:#0000ff;" x="117.788764" xlink:href="#me4a0670bd1" y="291.680344"/>
     <use style="fill:#0000ff;stroke:#0000ff;" x="121.801348" xlink:href="#me4a0670bd1" y="292.380519"/>
     <use style="fill:#0000ff;stroke:#0000ff;" x="125.813933" xlink:href="#me4a0670bd1" y="292.924422"/>
     <use style="fill:#0000ff;stroke:#0000ff;" x="129.826517" xlink:href="#me4a0670bd1" y="293.456552"/>
     <use style="fill:#0000ff;stroke:#0000ff;" x="133.839101" xlink:href="#me4a0670bd1" y="293.64357"/>
     <use style="fill:#0000ff;stroke:#0000ff;" x="137.851685" xlink:href="#me4a0670bd1" y="294.17259"/>
     <use style="fill:#0000ff;stroke:#0000ff;" x="141.86427" xlink:href="#me4a0670bd1" y="294.287353"/>
     <use style="fill:#0000ff;stroke:#0000ff;" x="145.876854" xlink:href="#me4a0670bd1" y="294.5622"/>
     <use style="fill:#0000ff;stroke:#0000ff;" x="149.889438" xlink:href="#me4a0670bd1" y="294.621318"/>
     <use style="fill:#0000ff;stroke:#0000ff;" x="153.902022" xlink:href="#me4a0670bd1" y="294.843231"/>
     <use style="fill:#0000ff;stroke:#0000ff;" x="157.914607" xlink:href="#me4a0670bd1" y="294.984022"/>
     <use style="fill:#0000ff;stroke:#0000ff;" x="161.927191" xlink:href="#me4a0670bd1" y="294.918354"/>
     <use style="fill:#0000ff;stroke:#0000ff;" x="165.939775" xlink:href="#me4a0670bd1" y="295.089577"/>
     <use style="fill:#0000ff;stroke:#0000ff;" x="169.95236" xlink:href="#me4a0670bd1" y="295.273647"/>
     <use style="fill:#0000ff;stroke:#0000ff;" x="173.964944" xlink:href="#me4a0670bd1" y="295.341902"/>
     <use style="fill:#0000ff;stroke:#0000ff;" x="177.977528" xlink:href="#me4a0670bd1" y="295.181122"/>
     <use style="fill:#0000ff;stroke:#0000ff;" x="181.990112" xlink:href="#me4a0670bd1" y="295.235171"/>
     <use style="fill:#0000ff;stroke:#0000ff;" x="186.002697" xlink:href="#me4a0670bd1" y="295.488"/>
     <use style="fill:#0000ff;stroke:#0000ff;" x="190.015281" xlink:href="#me4a0670bd1" y="295.468255"/>
     <use style="fill:#0000ff;stroke:#0000ff;" x="194.027865" xlink:href="#me4a0670bd1" y="295.197402"/>
     <use style="fill:#0000ff;stroke:#0000ff;" x="198.040449" xlink:href="#me4a0670bd1" y="295.31793"/>
     <use style="fill:#0000ff;stroke:#0000ff;" x="202.053034" xlink:href="#me4a0670bd1" y="295.360813"/>
     <use style="fill:#0000ff;stroke:#0000ff;" x="206.065618" xlink:href="#me4a0670bd1" y="295.433039"/>
     <use style="fill:#0000ff;stroke:#0000ff;" x="210.078202" xlink:href="#me4a0670bd1" y="295.192191"/>
     <use style="fill:#0000ff;stroke:#0000ff;" x="214.090787" xlink:href="#me4a0670bd1" y="295.077238"/>
     <use style="fill:#0000ff;stroke:#0000ff;" x="218.103371" xlink:href="#me4a0670bd1" y="295.044521"/>
     <use style="fill:#0000ff;stroke:#0000ff;" x="222.115955" xlink:href="#me4a0670bd1" y="295.314022"/>
     <use style="fill:#0000ff;stroke:#0000ff;" x="226.128539" xlink:href="#me4a0670bd1" y="295.371494"/>
     <use style="fill:#0000ff;stroke:#0000ff;" x="230.141124" xlink:href="#me4a0670bd1" y="295.270931"/>
     <use style="fill:#0000ff;stroke:#0000ff;" x="234.153708" xlink:href="#me4a0670bd1" y="295.485837"/>
     <use style="fill:#0000ff;stroke:#0000ff;" x="238.166292" xlink:href="#me4a0670bd1" y="295.157278"/>
     <use style="fill:#0000ff;stroke:#0000ff;" x="242.178876" xlink:href="#me4a0670bd1" y="295.189026"/>
     <use style="fill:#0000ff;stroke:#0000ff;" x="246.191461" xlink:href="#me4a0670bd1" y="294.910683"/>
     <use style="fill:#0000ff;stroke:#0000ff;" x="250.204045" xlink:href="#me4a0670bd1" y="294.894754"/>
     <use style="fill:#0000ff;stroke:#0000ff;" x="254.216629" xlink:href="#me4a0670bd1" y="294.892456"/>
     <use style="fill:#0000ff;stroke:#0000ff;" x="258.229213" xlink:href="#me4a0670bd1" y="294.87624"/>
     <use style="fill:#0000ff;stroke:#0000ff;" x="262.241798" xlink:href="#me4a0670bd1" y="294.911907"/>
     <use style="fill:#0000ff;stroke:#0000ff;" x="266.254382" xlink:href="#me4a0670bd1" y="294.651188"/>
     <use style="fill:#0000ff;stroke:#0000ff;" x="270.266966" xlink:href="#me4a0670bd1" y="294.793628"/>
     <use style="fill:#0000ff;stroke:#0000ff;" x="274.279551" xlink:href="#me4a0670bd1" y="294.543329"/>
     <use style="fill:#0000ff;stroke:#0000ff;" x="278.292135" xlink:href="#me4a0670bd1" y="294.629539"/>
     <use style="fill:#0000ff;stroke:#0000ff;" x="282.304719" xlink:href="#me4a0670bd1" y="294.652938"/>
     <use style="fill:#0000ff;stroke:#0000ff;" x="286.317303" xlink:href="#me4a0670bd1" y="294.462735"/>
     <use style="fill:#0000ff;stroke:#0000ff;" x="290.329888" xlink:href="#me4a0670bd1" y="294.310819"/>
     <use style="fill:#0000ff;stroke:#0000ff;" x="294.342472" xlink:href="#me4a0670bd1" y="293.762233"/>
     <use style="fill:#0000ff;stroke:#0000ff;" x="298.355056" xlink:href="#me4a0670bd1" y="293.682799"/>
     <use style="fill:#0000ff;stroke:#0000ff;" x="302.36764" xlink:href="#me4a0670bd1" y="294.063176"/>
     <use style="fill:#0000ff;stroke:#0000ff;" x="306.380225" xlink:href="#me4a0670bd1" y="293.920189"/>
     <use style="fill:#0000ff;stroke:#0000ff;" x="310.392809" xlink:href="#me4a0670bd1" y="293.93772"/>
     <use style="fill:#0000ff;stroke:#0000ff;" x="314.405393" xlink:href="#me4a0670bd1" y="294.184872"/>
     <use style="fill:#0000ff;stroke:#0000ff;" x="318.417978" xlink:href="#me4a0670bd1" y="294.314664"/>
     <use style="fill:#0000ff;stroke:#0000ff;" x="322.430562" xlink:href="#me4a0670bd1" y="293.981616"/>
     <use style="fill:#0000ff;stroke:#0000ff;" x="326.443146" xlink:href="#me4a0670bd1" y="293.974364"/>
     <use style="fill:#0000ff;stroke:#0000ff;" x="330.45573" xlink:href="#me4a0670bd1" y="293.886852"/>
     <use style="fill:#0000ff;stroke:#0000ff;" x="334.468315" xlink:href="#me4a0670bd1" y="293.828252"/>
     <use style="fill:#0000ff;stroke:#0000ff;" x="338.480899" xlink:href="#me4a0670bd1" y="293.748727"/>
     <use style="fill:#0000ff;stroke:#0000ff;" x="342.493483" xlink:href="#me4a0670bd1" y="293.655254"/>
     <use style="fill:#0000ff;stroke:#0000ff;" x="346.506067" xlink:href="#me4a0670bd1" y="293.624681"/>
     <use style="fill:#0000ff;stroke:#0000ff;" x="350.518652" xlink:href="#me4a0670bd1" y="293.387915"/>
     <use style="fill:#0000ff;stroke:#0000ff;" x="354.531236" xlink:href="#me4a0670bd1" y="293.464619"/>
     <use style="fill:#0000ff;stroke:#0000ff;" x="358.54382" xlink:href="#me4a0670bd1" y="293.362239"/>
     <use style="fill:#0000ff;stroke:#0000ff;" x="362.556404" xlink:href="#me4a0670bd1" y="293.060623"/>
     <use style="fill:#0000ff;stroke:#0000ff;" x="366.568989" xlink:href="#me4a0670bd1" y="293.08598"/>
     <use style="fill:#0000ff;stroke:#0000ff;" x="370.581573" xlink:href="#me4a0670bd1" y="293.000406"/>
     <use style="fill:#0000ff;stroke:#0000ff;" x="374.594157" xlink:href="#me4a0670bd1" y="292.882834"/>
     <use style="fill:#0000ff;stroke:#0000ff;" x="378.606742" xlink:href="#me4a0670bd1" y="292.838475"/>
     <use style="fill:#0000ff;stroke:#0000ff;" x="382.619326" xlink:href="#me4a0670bd1" y="292.804906"/>
     <use style="fill:#0000ff;stroke:#0000ff;" x="386.63191" xlink:href="#me4a0670bd1" y="292.83874"/>
     <use style="fill:#0000ff;stroke:#0000ff;" x="390.644494" xlink:href="#me4a0670bd1" y="292.600911"/>
     <use style="fill:#0000ff;stroke:#0000ff;" x="394.657079" xlink:href="#me4a0670bd1" y="292.591419"/>
     <use style="fill:#0000ff;stroke:#0000ff;" x="398.669663" xlink:href="#me4a0670bd1" y="292.365725"/>
     <use style="fill:#0000ff;stroke:#0000ff;" x="402.682247" xlink:href="#me4a0670bd1" y="292.272625"/>
     <use style="fill:#0000ff;stroke:#0000ff;" x="406.694831" xlink:href="#me4a0670bd1" y="292.034679"/>
     <use style="fill:#0000ff;stroke:#0000ff;" x="410.707416" xlink:href="#me4a0670bd1" y="291.857862"/>
    </g>
   </g>
   <g id="line2d_66">
    <path clip-path="url(#p65e6194ccb)" d="M 61.612584 53.568 
L 65.625169 180.503917 
L 69.637753 219.890175 
L 73.650337 240.563175 
L 77.662921 252.545333 
L 81.675506 260.730594 
L 85.68809 266.908576 
L 89.700674 271.384041 
L 93.713258 275.189039 
L 97.725843 278.082327 
L 101.738427 280.178315 
L 105.751011 281.94075 
L 109.763596 283.008879 
L 113.77618 283.973639 
L 117.788764 284.320312 
L 121.801348 285.015707 
L 125.813933 285.57583 
L 129.826517 285.75559 
L 133.839101 286.284311 
L 137.851685 286.591786 
L 141.86427 286.719585 
L 145.876854 286.846298 
L 149.889438 286.768591 
L 153.902022 287.121172 
L 157.914607 287.04506 
L 161.927191 286.979361 
L 165.939775 287.178347 
L 169.95236 287.292861 
L 173.964944 287.455929 
L 177.977528 287.288281 
L 181.990112 287.203147 
L 186.002697 287.388057 
L 190.015281 287.303954 
L 194.027865 287.125868 
L 198.040449 287.148778 
L 202.053034 287.091627 
L 206.065618 287.227074 
L 210.078202 287.080826 
L 214.090787 286.907844 
L 218.103371 287.024924 
L 222.115955 287.174142 
L 226.128539 286.792472 
L 230.141124 287.103217 
L 234.153708 286.914407 
L 238.166292 286.986454 
L 242.178876 286.691921 
L 246.191461 286.567856 
L 250.204045 286.65708 
L 254.216629 286.514352 
L 258.229213 286.412408 
L 262.241798 286.217016 
L 266.254382 286.340201 
L 270.266966 286.04073 
L 274.279551 286.085199 
L 278.292135 286.022779 
L 282.304719 285.889144 
L 286.317303 285.64712 
L 290.329888 284.914476 
L 294.342472 284.313532 
L 298.355056 284.912892 
L 302.36764 285.396416 
L 306.380225 285.251286 
L 310.392809 284.707458 
L 314.405393 285.467841 
L 318.417978 285.500416 
L 322.430562 285.092328 
L 326.443146 285.067825 
L 330.45573 284.950962 
L 334.468315 284.913811 
L 338.480899 285.019577 
L 342.493483 284.890896 
L 346.506067 284.728471 
L 350.518652 284.745397 
L 354.531236 284.645871 
L 358.54382 284.430145 
L 362.556404 284.317804 
L 366.568989 284.338739 
L 370.581573 284.203115 
L 374.594157 284.290587 
L 378.606742 284.102451 
L 382.619326 284.080317 
L 386.63191 284.054494 
L 390.644494 283.987026 
L 394.657079 283.890318 
L 398.669663 283.754892 
L 402.682247 283.539354 
L 406.694831 283.404804 
L 410.707416 283.455498 
" style="fill:none;stroke:#ff0000;stroke-dasharray:1.5,2.475;stroke-dashoffset:0;stroke-width:1.5;"/>
    <defs>
     <path d="M 0 1.5 
C 0.397805 1.5 0.77937 1.341951 1.06066 1.06066 
C 1.341951 0.77937 1.5 0.397805 1.5 0 
C 1.5 -0.397805 1.341951 -0.77937 1.06066 -1.06066 
C 0.77937 -1.341951 0.397805 -1.5 0 -1.5 
C -0.397805 -1.5 -0.77937 -1.341951 -1.06066 -1.06066 
C -1.341951 -0.77937 -1.5 -0.397805 -1.5 0 
C -1.5 0.397805 -1.341951 0.77937 -1.06066 1.06066 
C -0.77937 1.341951 -0.397805 1.5 0 1.5 
z
" id="ma2ba53e3b2" style="stroke:#ff0000;"/>
    </defs>
    <g clip-path="url(#p65e6194ccb)">
     <use style="fill:#ff0000;stroke:#ff0000;" x="61.612584" xlink:href="#ma2ba53e3b2" y="53.568"/>
     <use style="fill:#ff0000;stroke:#ff0000;" x="65.625169" xlink:href="#ma2ba53e3b2" y="180.503917"/>
     <use style="fill:#ff0000;stroke:#ff0000;" x="69.637753" xlink:href="#ma2ba53e3b2" y="219.890175"/>
     <use style="fill:#ff0000;stroke:#ff0000;" x="73.650337" xlink:href="#ma2ba53e3b2" y="240.563175"/>
     <use style="fill:#ff0000;stroke:#ff0000;" x="77.662921" xlink:href="#ma2ba53e3b2" y="252.545333"/>
     <use style="fill:#ff0000;stroke:#ff0000;" x="81.675506" xlink:href="#ma2ba53e3b2" y="260.730594"/>
     <use style="fill:#ff0000;stroke:#ff0000;" x="85.68809" xlink:href="#ma2ba53e3b2" y="266.908576"/>
     <use style="fill:#ff0000;stroke:#ff0000;" x="89.700674" xlink:href="#ma2ba53e3b2" y="271.384041"/>
     <use style="fill:#ff0000;stroke:#ff0000;" x="93.713258" xlink:href="#ma2ba53e3b2" y="275.189039"/>
     <use style="fill:#ff0000;stroke:#ff0000;" x="97.725843" xlink:href="#ma2ba53e3b2" y="278.082327"/>
     <use style="fill:#ff0000;stroke:#ff0000;" x="101.738427" xlink:href="#ma2ba53e3b2" y="280.178315"/>
     <use style="fill:#ff0000;stroke:#ff0000;" x="105.751011" xlink:href="#ma2ba53e3b2" y="281.94075"/>
     <use style="fill:#ff0000;stroke:#ff0000;" x="109.763596" xlink:href="#ma2ba53e3b2" y="283.008879"/>
     <use style="fill:#ff0000;stroke:#ff0000;" x="113.77618" xlink:href="#ma2ba53e3b2" y="283.973639"/>
     <use style="fill:#ff0000;stroke:#ff0000;" x="117.788764" xlink:href="#ma2ba53e3b2" y="284.320312"/>
     <use style="fill:#ff0000;stroke:#ff0000;" x="121.801348" xlink:href="#ma2ba53e3b2" y="285.015707"/>
     <use style="fill:#ff0000;stroke:#ff0000;" x="125.813933" xlink:href="#ma2ba53e3b2" y="285.57583"/>
     <use style="fill:#ff0000;stroke:#ff0000;" x="129.826517" xlink:href="#ma2ba53e3b2" y="285.75559"/>
     <use style="fill:#ff0000;stroke:#ff0000;" x="133.839101" xlink:href="#ma2ba53e3b2" y="286.284311"/>
     <use style="fill:#ff0000;stroke:#ff0000;" x="137.851685" xlink:href="#ma2ba53e3b2" y="286.591786"/>
     <use style="fill:#ff0000;stroke:#ff0000;" x="141.86427" xlink:href="#ma2ba53e3b2" y="286.719585"/>
     <use style="fill:#ff0000;stroke:#ff0000;" x="145.876854" xlink:href="#ma2ba53e3b2" y="286.846298"/>
     <use style="fill:#ff0000;stroke:#ff0000;" x="149.889438" xlink:href="#ma2ba53e3b2" y="286.768591"/>
     <use style="fill:#ff0000;stroke:#ff0000;" x="153.902022" xlink:href="#ma2ba53e3b2" y="287.121172"/>
     <use style="fill:#ff0000;stroke:#ff0000;" x="157.914607" xlink:href="#ma2ba53e3b2" y="287.04506"/>
     <use style="fill:#ff0000;stroke:#ff0000;" x="161.927191" xlink:href="#ma2ba53e3b2" y="286.979361"/>
     <use style="fill:#ff0000;stroke:#ff0000;" x="165.939775" xlink:href="#ma2ba53e3b2" y="287.178347"/>
     <use style="fill:#ff0000;stroke:#ff0000;" x="169.95236" xlink:href="#ma2ba53e3b2" y="287.292861"/>
     <use style="fill:#ff0000;stroke:#ff0000;" x="173.964944" xlink:href="#ma2ba53e3b2" y="287.455929"/>
     <use style="fill:#ff0000;stroke:#ff0000;" x="177.977528" xlink:href="#ma2ba53e3b2" y="287.288281"/>
     <use style="fill:#ff0000;stroke:#ff0000;" x="181.990112" xlink:href="#ma2ba53e3b2" y="287.203147"/>
     <use style="fill:#ff0000;stroke:#ff0000;" x="186.002697" xlink:href="#ma2ba53e3b2" y="287.388057"/>
     <use style="fill:#ff0000;stroke:#ff0000;" x="190.015281" xlink:href="#ma2ba53e3b2" y="287.303954"/>
     <use style="fill:#ff0000;stroke:#ff0000;" x="194.027865" xlink:href="#ma2ba53e3b2" y="287.125868"/>
     <use style="fill:#ff0000;stroke:#ff0000;" x="198.040449" xlink:href="#ma2ba53e3b2" y="287.148778"/>
     <use style="fill:#ff0000;stroke:#ff0000;" x="202.053034" xlink:href="#ma2ba53e3b2" y="287.091627"/>
     <use style="fill:#ff0000;stroke:#ff0000;" x="206.065618" xlink:href="#ma2ba53e3b2" y="287.227074"/>
     <use style="fill:#ff0000;stroke:#ff0000;" x="210.078202" xlink:href="#ma2ba53e3b2" y="287.080826"/>
     <use style="fill:#ff0000;stroke:#ff0000;" x="214.090787" xlink:href="#ma2ba53e3b2" y="286.907844"/>
     <use style="fill:#ff0000;stroke:#ff0000;" x="218.103371" xlink:href="#ma2ba53e3b2" y="287.024924"/>
     <use style="fill:#ff0000;stroke:#ff0000;" x="222.115955" xlink:href="#ma2ba53e3b2" y="287.174142"/>
     <use style="fill:#ff0000;stroke:#ff0000;" x="226.128539" xlink:href="#ma2ba53e3b2" y="286.792472"/>
     <use style="fill:#ff0000;stroke:#ff0000;" x="230.141124" xlink:href="#ma2ba53e3b2" y="287.103217"/>
     <use style="fill:#ff0000;stroke:#ff0000;" x="234.153708" xlink:href="#ma2ba53e3b2" y="286.914407"/>
     <use style="fill:#ff0000;stroke:#ff0000;" x="238.166292" xlink:href="#ma2ba53e3b2" y="286.986454"/>
     <use style="fill:#ff0000;stroke:#ff0000;" x="242.178876" xlink:href="#ma2ba53e3b2" y="286.691921"/>
     <use style="fill:#ff0000;stroke:#ff0000;" x="246.191461" xlink:href="#ma2ba53e3b2" y="286.567856"/>
     <use style="fill:#ff0000;stroke:#ff0000;" x="250.204045" xlink:href="#ma2ba53e3b2" y="286.65708"/>
     <use style="fill:#ff0000;stroke:#ff0000;" x="254.216629" xlink:href="#ma2ba53e3b2" y="286.514352"/>
     <use style="fill:#ff0000;stroke:#ff0000;" x="258.229213" xlink:href="#ma2ba53e3b2" y="286.412408"/>
     <use style="fill:#ff0000;stroke:#ff0000;" x="262.241798" xlink:href="#ma2ba53e3b2" y="286.217016"/>
     <use style="fill:#ff0000;stroke:#ff0000;" x="266.254382" xlink:href="#ma2ba53e3b2" y="286.340201"/>
     <use style="fill:#ff0000;stroke:#ff0000;" x="270.266966" xlink:href="#ma2ba53e3b2" y="286.04073"/>
     <use style="fill:#ff0000;stroke:#ff0000;" x="274.279551" xlink:href="#ma2ba53e3b2" y="286.085199"/>
     <use style="fill:#ff0000;stroke:#ff0000;" x="278.292135" xlink:href="#ma2ba53e3b2" y="286.022779"/>
     <use style="fill:#ff0000;stroke:#ff0000;" x="282.304719" xlink:href="#ma2ba53e3b2" y="285.889144"/>
     <use style="fill:#ff0000;stroke:#ff0000;" x="286.317303" xlink:href="#ma2ba53e3b2" y="285.64712"/>
     <use style="fill:#ff0000;stroke:#ff0000;" x="290.329888" xlink:href="#ma2ba53e3b2" y="284.914476"/>
     <use style="fill:#ff0000;stroke:#ff0000;" x="294.342472" xlink:href="#ma2ba53e3b2" y="284.313532"/>
     <use style="fill:#ff0000;stroke:#ff0000;" x="298.355056" xlink:href="#ma2ba53e3b2" y="284.912892"/>
     <use style="fill:#ff0000;stroke:#ff0000;" x="302.36764" xlink:href="#ma2ba53e3b2" y="285.396416"/>
     <use style="fill:#ff0000;stroke:#ff0000;" x="306.380225" xlink:href="#ma2ba53e3b2" y="285.251286"/>
     <use style="fill:#ff0000;stroke:#ff0000;" x="310.392809" xlink:href="#ma2ba53e3b2" y="284.707458"/>
     <use style="fill:#ff0000;stroke:#ff0000;" x="314.405393" xlink:href="#ma2ba53e3b2" y="285.467841"/>
     <use style="fill:#ff0000;stroke:#ff0000;" x="318.417978" xlink:href="#ma2ba53e3b2" y="285.500416"/>
     <use style="fill:#ff0000;stroke:#ff0000;" x="322.430562" xlink:href="#ma2ba53e3b2" y="285.092328"/>
     <use style="fill:#ff0000;stroke:#ff0000;" x="326.443146" xlink:href="#ma2ba53e3b2" y="285.067825"/>
     <use style="fill:#ff0000;stroke:#ff0000;" x="330.45573" xlink:href="#ma2ba53e3b2" y="284.950962"/>
     <use style="fill:#ff0000;stroke:#ff0000;" x="334.468315" xlink:href="#ma2ba53e3b2" y="284.913811"/>
     <use style="fill:#ff0000;stroke:#ff0000;" x="338.480899" xlink:href="#ma2ba53e3b2" y="285.019577"/>
     <use style="fill:#ff0000;stroke:#ff0000;" x="342.493483" xlink:href="#ma2ba53e3b2" y="284.890896"/>
     <use style="fill:#ff0000;stroke:#ff0000;" x="346.506067" xlink:href="#ma2ba53e3b2" y="284.728471"/>
     <use style="fill:#ff0000;stroke:#ff0000;" x="350.518652" xlink:href="#ma2ba53e3b2" y="284.745397"/>
     <use style="fill:#ff0000;stroke:#ff0000;" x="354.531236" xlink:href="#ma2ba53e3b2" y="284.645871"/>
     <use style="fill:#ff0000;stroke:#ff0000;" x="358.54382" xlink:href="#ma2ba53e3b2" y="284.430145"/>
     <use style="fill:#ff0000;stroke:#ff0000;" x="362.556404" xlink:href="#ma2ba53e3b2" y="284.317804"/>
     <use style="fill:#ff0000;stroke:#ff0000;" x="366.568989" xlink:href="#ma2ba53e3b2" y="284.338739"/>
     <use style="fill:#ff0000;stroke:#ff0000;" x="370.581573" xlink:href="#ma2ba53e3b2" y="284.203115"/>
     <use style="fill:#ff0000;stroke:#ff0000;" x="374.594157" xlink:href="#ma2ba53e3b2" y="284.290587"/>
     <use style="fill:#ff0000;stroke:#ff0000;" x="378.606742" xlink:href="#ma2ba53e3b2" y="284.102451"/>
     <use style="fill:#ff0000;stroke:#ff0000;" x="382.619326" xlink:href="#ma2ba53e3b2" y="284.080317"/>
     <use style="fill:#ff0000;stroke:#ff0000;" x="386.63191" xlink:href="#ma2ba53e3b2" y="284.054494"/>
     <use style="fill:#ff0000;stroke:#ff0000;" x="390.644494" xlink:href="#ma2ba53e3b2" y="283.987026"/>
     <use style="fill:#ff0000;stroke:#ff0000;" x="394.657079" xlink:href="#ma2ba53e3b2" y="283.890318"/>
     <use style="fill:#ff0000;stroke:#ff0000;" x="398.669663" xlink:href="#ma2ba53e3b2" y="283.754892"/>
     <use style="fill:#ff0000;stroke:#ff0000;" x="402.682247" xlink:href="#ma2ba53e3b2" y="283.539354"/>
     <use style="fill:#ff0000;stroke:#ff0000;" x="406.694831" xlink:href="#ma2ba53e3b2" y="283.404804"/>
     <use style="fill:#ff0000;stroke:#ff0000;" x="410.707416" xlink:href="#ma2ba53e3b2" y="283.455498"/>
    </g>
   </g>
   <g id="line2d_67">
    <path clip-path="url(#p65e6194ccb)" d="M 61.612584 57.564457 
L 65.625169 182.980803 
L 69.637753 222.234035 
L 73.650337 242.83919 
L 77.662921 255.12369 
L 81.675506 263.468151 
L 85.68809 269.883408 
L 89.700674 274.45962 
L 93.713258 278.393266 
L 97.725843 281.32478 
L 101.738427 283.522865 
L 105.751011 285.394503 
L 109.763596 286.549037 
L 113.77618 287.426365 
L 117.788764 288.000328 
L 121.801348 288.698113 
L 125.813933 289.250126 
L 129.826517 289.606071 
L 133.839101 289.96394 
L 137.851685 290.382188 
L 141.86427 290.503469 
L 145.876854 290.704249 
L 149.889438 290.694955 
L 153.902022 290.982202 
L 157.914607 291.014541 
L 161.927191 290.948858 
L 165.939775 291.133962 
L 169.95236 291.283254 
L 173.964944 291.398916 
L 177.977528 291.234702 
L 181.990112 291.219159 
L 186.002697 291.438028 
L 190.015281 291.386105 
L 194.027865 291.161635 
L 198.040449 291.233354 
L 202.053034 291.22622 
L 206.065618 291.330057 
L 210.078202 291.136508 
L 214.090787 290.992541 
L 218.103371 291.034722 
L 222.115955 291.244082 
L 226.128539 291.081983 
L 230.141124 291.187074 
L 234.153708 291.200122 
L 238.166292 291.071866 
L 242.178876 290.940473 
L 246.191461 290.739269 
L 250.204045 290.775917 
L 254.216629 290.703404 
L 258.229213 290.644324 
L 262.241798 290.564462 
L 266.254382 290.495694 
L 270.266966 290.417179 
L 274.279551 290.314264 
L 278.292135 290.326159 
L 282.304719 290.271041 
L 286.317303 290.054928 
L 290.329888 289.612647 
L 294.342472 289.037882 
L 298.355056 289.297846 
L 302.36764 289.729796 
L 306.380225 289.585737 
L 310.392809 289.322589 
L 314.405393 289.826356 
L 318.417978 289.90754 
L 322.430562 289.536972 
L 326.443146 289.521094 
L 330.45573 289.418907 
L 334.468315 289.371031 
L 338.480899 289.384152 
L 342.493483 289.273075 
L 346.506067 289.176576 
L 350.518652 289.066656 
L 354.531236 289.055245 
L 358.54382 288.896192 
L 362.556404 288.689214 
L 366.568989 288.712359 
L 370.581573 288.60176 
L 374.594157 288.58671 
L 378.606742 288.470463 
L 382.619326 288.442611 
L 386.63191 288.446617 
L 390.644494 288.293969 
L 394.657079 288.240869 
L 398.669663 288.060309 
L 402.682247 287.90599 
L 406.694831 287.719742 
L 410.707416 287.65668 
" style="fill:none;stroke:#008000;stroke-dasharray:1.5,2.475;stroke-dashoffset:0;stroke-width:1.5;"/>
    <defs>
     <path d="M 0 1.5 
C 0.397805 1.5 0.77937 1.341951 1.06066 1.06066 
C 1.341951 0.77937 1.5 0.397805 1.5 0 
C 1.5 -0.397805 1.341951 -0.77937 1.06066 -1.06066 
C 0.77937 -1.341951 0.397805 -1.5 0 -1.5 
C -0.397805 -1.5 -0.77937 -1.341951 -1.06066 -1.06066 
C -1.341951 -0.77937 -1.5 -0.397805 -1.5 0 
C -1.5 0.397805 -1.341951 0.77937 -1.06066 1.06066 
C -0.77937 1.341951 -0.397805 1.5 0 1.5 
z
" id="m67fe422c09" style="stroke:#008000;"/>
    </defs>
    <g clip-path="url(#p65e6194ccb)">
     <use style="fill:#008000;stroke:#008000;" x="61.612584" xlink:href="#m67fe422c09" y="57.564457"/>
     <use style="fill:#008000;stroke:#008000;" x="65.625169" xlink:href="#m67fe422c09" y="182.980803"/>
     <use style="fill:#008000;stroke:#008000;" x="69.637753" xlink:href="#m67fe422c09" y="222.234035"/>
     <use style="fill:#008000;stroke:#008000;" x="73.650337" xlink:href="#m67fe422c09" y="242.83919"/>
     <use style="fill:#008000;stroke:#008000;" x="77.662921" xlink:href="#m67fe422c09" y="255.12369"/>
     <use style="fill:#008000;stroke:#008000;" x="81.675506" xlink:href="#m67fe422c09" y="263.468151"/>
     <use style="fill:#008000;stroke:#008000;" x="85.68809" xlink:href="#m67fe422c09" y="269.883408"/>
     <use style="fill:#008000;stroke:#008000;" x="89.700674" xlink:href="#m67fe422c09" y="274.45962"/>
     <use style="fill:#008000;stroke:#008000;" x="93.713258" xlink:href="#m67fe422c09" y="278.393266"/>
     <use style="fill:#008000;stroke:#008000;" x="97.725843" xlink:href="#m67fe422c09" y="281.32478"/>
     <use style="fill:#008000;stroke:#008000;" x="101.738427" xlink:href="#m67fe422c09" y="283.522865"/>
     <use style="fill:#008000;stroke:#008000;" x="105.751011" xlink:href="#m67fe422c09" y="285.394503"/>
     <use style="fill:#008000;stroke:#008000;" x="109.763596" xlink:href="#m67fe422c09" y="286.549037"/>
     <use style="fill:#008000;stroke:#008000;" x="113.77618" xlink:href="#m67fe422c09" y="287.426365"/>
     <use style="fill:#008000;stroke:#008000;" x="117.788764" xlink:href="#m67fe422c09" y="288.000328"/>
     <use style="fill:#008000;stroke:#008000;" x="121.801348" xlink:href="#m67fe422c09" y="288.698113"/>
     <use style="fill:#008000;stroke:#008000;" x="125.813933" xlink:href="#m67fe422c09" y="289.250126"/>
     <use style="fill:#008000;stroke:#008000;" x="129.826517" xlink:href="#m67fe422c09" y="289.606071"/>
     <use style="fill:#008000;stroke:#008000;" x="133.839101" xlink:href="#m67fe422c09" y="289.96394"/>
     <use style="fill:#008000;stroke:#008000;" x="137.851685" xlink:href="#m67fe422c09" y="290.382188"/>
     <use style="fill:#008000;stroke:#008000;" x="141.86427" xlink:href="#m67fe422c09" y="290.503469"/>
     <use style="fill:#008000;stroke:#008000;" x="145.876854" xlink:href="#m67fe422c09" y="290.704249"/>
     <use style="fill:#008000;stroke:#008000;" x="149.889438" xlink:href="#m67fe422c09" y="290.694955"/>
     <use style="fill:#008000;stroke:#008000;" x="153.902022" xlink:href="#m67fe422c09" y="290.982202"/>
     <use style="fill:#008000;stroke:#008000;" x="157.914607" xlink:href="#m67fe422c09" y="291.014541"/>
     <use style="fill:#008000;stroke:#008000;" x="161.927191" xlink:href="#m67fe422c09" y="290.948858"/>
     <use style="fill:#008000;stroke:#008000;" x="165.939775" xlink:href="#m67fe422c09" y="291.133962"/>
     <use style="fill:#008000;stroke:#008000;" x="169.95236" xlink:href="#m67fe422c09" y="291.283254"/>
     <use style="fill:#008000;stroke:#008000;" x="173.964944" xlink:href="#m67fe422c09" y="291.398916"/>
     <use style="fill:#008000;stroke:#008000;" x="177.977528" xlink:href="#m67fe422c09" y="291.234702"/>
     <use style="fill:#008000;stroke:#008000;" x="181.990112" xlink:href="#m67fe422c09" y="291.219159"/>
     <use style="fill:#008000;stroke:#008000;" x="186.002697" xlink:href="#m67fe422c09" y="291.438028"/>
     <use style="fill:#008000;stroke:#008000;" x="190.015281" xlink:href="#m67fe422c09" y="291.386105"/>
     <use style="fill:#008000;stroke:#008000;" x="194.027865" xlink:href="#m67fe422c09" y="291.161635"/>
     <use style="fill:#008000;stroke:#008000;" x="198.040449" xlink:href="#m67fe422c09" y="291.233354"/>
     <use style="fill:#008000;stroke:#008000;" x="202.053034" xlink:href="#m67fe422c09" y="291.22622"/>
     <use style="fill:#008000;stroke:#008000;" x="206.065618" xlink:href="#m67fe422c09" y="291.330057"/>
     <use style="fill:#008000;stroke:#008000;" x="210.078202" xlink:href="#m67fe422c09" y="291.136508"/>
     <use style="fill:#008000;stroke:#008000;" x="214.090787" xlink:href="#m67fe422c09" y="290.992541"/>
     <use style="fill:#008000;stroke:#008000;" x="218.103371" xlink:href="#m67fe422c09" y="291.034722"/>
     <use style="fill:#008000;stroke:#008000;" x="222.115955" xlink:href="#m67fe422c09" y="291.244082"/>
     <use style="fill:#008000;stroke:#008000;" x="226.128539" xlink:href="#m67fe422c09" y="291.081983"/>
     <use style="fill:#008000;stroke:#008000;" x="230.141124" xlink:href="#m67fe422c09" y="291.187074"/>
     <use style="fill:#008000;stroke:#008000;" x="234.153708" xlink:href="#m67fe422c09" y="291.200122"/>
     <use style="fill:#008000;stroke:#008000;" x="238.166292" xlink:href="#m67fe422c09" y="291.071866"/>
     <use style="fill:#008000;stroke:#008000;" x="242.178876" xlink:href="#m67fe422c09" y="290.940473"/>
     <use style="fill:#008000;stroke:#008000;" x="246.191461" xlink:href="#m67fe422c09" y="290.739269"/>
     <use style="fill:#008000;stroke:#008000;" x="250.204045" xlink:href="#m67fe422c09" y="290.775917"/>
     <use style="fill:#008000;stroke:#008000;" x="254.216629" xlink:href="#m67fe422c09" y="290.703404"/>
     <use style="fill:#008000;stroke:#008000;" x="258.229213" xlink:href="#m67fe422c09" y="290.644324"/>
     <use style="fill:#008000;stroke:#008000;" x="262.241798" xlink:href="#m67fe422c09" y="290.564462"/>
     <use style="fill:#008000;stroke:#008000;" x="266.254382" xlink:href="#m67fe422c09" y="290.495694"/>
     <use style="fill:#008000;stroke:#008000;" x="270.266966" xlink:href="#m67fe422c09" y="290.417179"/>
     <use style="fill:#008000;stroke:#008000;" x="274.279551" xlink:href="#m67fe422c09" y="290.314264"/>
     <use style="fill:#008000;stroke:#008000;" x="278.292135" xlink:href="#m67fe422c09" y="290.326159"/>
     <use style="fill:#008000;stroke:#008000;" x="282.304719" xlink:href="#m67fe422c09" y="290.271041"/>
     <use style="fill:#008000;stroke:#008000;" x="286.317303" xlink:href="#m67fe422c09" y="290.054928"/>
     <use style="fill:#008000;stroke:#008000;" x="290.329888" xlink:href="#m67fe422c09" y="289.612647"/>
     <use style="fill:#008000;stroke:#008000;" x="294.342472" xlink:href="#m67fe422c09" y="289.037882"/>
     <use style="fill:#008000;stroke:#008000;" x="298.355056" xlink:href="#m67fe422c09" y="289.297846"/>
     <use style="fill:#008000;stroke:#008000;" x="302.36764" xlink:href="#m67fe422c09" y="289.729796"/>
     <use style="fill:#008000;stroke:#008000;" x="306.380225" xlink:href="#m67fe422c09" y="289.585737"/>
     <use style="fill:#008000;stroke:#008000;" x="310.392809" xlink:href="#m67fe422c09" y="289.322589"/>
     <use style="fill:#008000;stroke:#008000;" x="314.405393" xlink:href="#m67fe422c09" y="289.826356"/>
     <use style="fill:#008000;stroke:#008000;" x="318.417978" xlink:href="#m67fe422c09" y="289.90754"/>
     <use style="fill:#008000;stroke:#008000;" x="322.430562" xlink:href="#m67fe422c09" y="289.536972"/>
     <use style="fill:#008000;stroke:#008000;" x="326.443146" xlink:href="#m67fe422c09" y="289.521094"/>
     <use style="fill:#008000;stroke:#008000;" x="330.45573" xlink:href="#m67fe422c09" y="289.418907"/>
     <use style="fill:#008000;stroke:#008000;" x="334.468315" xlink:href="#m67fe422c09" y="289.371031"/>
     <use style="fill:#008000;stroke:#008000;" x="338.480899" xlink:href="#m67fe422c09" y="289.384152"/>
     <use style="fill:#008000;stroke:#008000;" x="342.493483" xlink:href="#m67fe422c09" y="289.273075"/>
     <use style="fill:#008000;stroke:#008000;" x="346.506067" xlink:href="#m67fe422c09" y="289.176576"/>
     <use style="fill:#008000;stroke:#008000;" x="350.518652" xlink:href="#m67fe422c09" y="289.066656"/>
     <use style="fill:#008000;stroke:#008000;" x="354.531236" xlink:href="#m67fe422c09" y="289.055245"/>
     <use style="fill:#008000;stroke:#008000;" x="358.54382" xlink:href="#m67fe422c09" y="288.896192"/>
     <use style="fill:#008000;stroke:#008000;" x="362.556404" xlink:href="#m67fe422c09" y="288.689214"/>
     <use style="fill:#008000;stroke:#008000;" x="366.568989" xlink:href="#m67fe422c09" y="288.712359"/>
     <use style="fill:#008000;stroke:#008000;" x="370.581573" xlink:href="#m67fe422c09" y="288.60176"/>
     <use style="fill:#008000;stroke:#008000;" x="374.594157" xlink:href="#m67fe422c09" y="288.58671"/>
     <use style="fill:#008000;stroke:#008000;" x="378.606742" xlink:href="#m67fe422c09" y="288.470463"/>
     <use style="fill:#008000;stroke:#008000;" x="382.619326" xlink:href="#m67fe422c09" y="288.442611"/>
     <use style="fill:#008000;stroke:#008000;" x="386.63191" xlink:href="#m67fe422c09" y="288.446617"/>
     <use style="fill:#008000;stroke:#008000;" x="390.644494" xlink:href="#m67fe422c09" y="288.293969"/>
     <use style="fill:#008000;stroke:#008000;" x="394.657079" xlink:href="#m67fe422c09" y="288.240869"/>
     <use style="fill:#008000;stroke:#008000;" x="398.669663" xlink:href="#m67fe422c09" y="288.060309"/>
     <use style="fill:#008000;stroke:#008000;" x="402.682247" xlink:href="#m67fe422c09" y="287.90599"/>
     <use style="fill:#008000;stroke:#008000;" x="406.694831" xlink:href="#m67fe422c09" y="287.719742"/>
     <use style="fill:#008000;stroke:#008000;" x="410.707416" xlink:href="#m67fe422c09" y="287.65668"/>
    </g>
   </g>
   <g id="patch_3">
    <path d="M 57.6 307.584 
L 57.6 41.472 
" style="fill:none;stroke:#000000;stroke-linecap:square;stroke-linejoin:miter;stroke-width:0.8;"/>
   </g>
   <g id="patch_4">
    <path d="M 414.72 307.584 
L 414.72 41.472 
" style="fill:none;stroke:#000000;stroke-linecap:square;stroke-linejoin:miter;stroke-width:0.8;"/>
   </g>
   <g id="patch_5">
    <path d="M 57.6 307.584 
L 414.72 307.584 
" style="fill:none;stroke:#000000;stroke-linecap:square;stroke-linejoin:miter;stroke-width:0.8;"/>
   </g>
   <g id="patch_6">
    <path d="M 57.6 41.472 
L 414.72 41.472 
" style="fill:none;stroke:#000000;stroke-linecap:square;stroke-linejoin:miter;stroke-width:0.8;"/>
   </g>
   <g id="text_35">
    <!-- tbb::parallel_sort O3 OMP AVX2 overall -->
    <defs>
     <path d="M 48.6875 27.296875 
Q 48.6875 37.203125 44.609375 42.84375 
Q 40.53125 48.484375 33.40625 48.484375 
Q 26.265625 48.484375 22.1875 42.84375 
Q 18.109375 37.203125 18.109375 27.296875 
Q 18.109375 17.390625 22.1875 11.75 
Q 26.265625 6.109375 33.40625 6.109375 
Q 40.53125 6.109375 44.609375 11.75 
Q 48.6875 17.390625 48.6875 27.296875 
z
M 18.109375 46.390625 
Q 20.953125 51.265625 25.265625 53.625 
Q 29.59375 56 35.59375 56 
Q 45.5625 56 51.78125 48.09375 
Q 58.015625 40.1875 58.015625 27.296875 
Q 58.015625 14.40625 51.78125 6.484375 
Q 45.5625 -1.421875 35.59375 -1.421875 
Q 29.59375 -1.421875 25.265625 0.953125 
Q 20.953125 3.328125 18.109375 8.203125 
L 18.109375 0 
L 9.078125 0 
L 9.078125 75.984375 
L 18.109375 75.984375 
z
" id="DejaVuSans-98"/>
     <path d="M 11.71875 12.40625 
L 22.015625 12.40625 
L 22.015625 0 
L 11.71875 0 
z
M 11.71875 51.703125 
L 22.015625 51.703125 
L 22.015625 39.3125 
L 11.71875 39.3125 
z
" id="DejaVuSans-58"/>
     <path d="M 18.109375 8.203125 
L 18.109375 -20.796875 
L 9.078125 -20.796875 
L 9.078125 54.6875 
L 18.109375 54.6875 
L 18.109375 46.390625 
Q 20.953125 51.265625 25.265625 53.625 
Q 29.59375 56 35.59375 56 
Q 45.5625 56 51.78125 48.09375 
Q 58.015625 40.1875 58.015625 27.296875 
Q 58.015625 14.40625 51.78125 6.484375 
Q 45.5625 -1.421875 35.59375 -1.421875 
Q 29.59375 -1.421875 25.265625 0.953125 
Q 20.953125 3.328125 18.109375 8.203125 
z
M 48.6875 27.296875 
Q 48.6875 37.203125 44.609375 42.84375 
Q 40.53125 48.484375 33.40625 48.484375 
Q 26.265625 48.484375 22.1875 42.84375 
Q 18.109375 37.203125 18.109375 27.296875 
Q 18.109375 17.390625 22.1875 11.75 
Q 26.265625 6.109375 33.40625 6.109375 
Q 40.53125 6.109375 44.609375 11.75 
Q 48.6875 17.390625 48.6875 27.296875 
z
" id="DejaVuSans-112"/>
     <path d="M 9.421875 75.984375 
L 18.40625 75.984375 
L 18.40625 0 
L 9.421875 0 
z
" id="DejaVuSans-108"/>
     <path d="M 50.984375 -16.609375 
L 50.984375 -23.578125 
L -0.984375 -23.578125 
L -0.984375 -16.609375 
z
" id="DejaVuSans-95"/>
     <path d="M 39.40625 66.21875 
Q 28.65625 66.21875 22.328125 58.203125 
Q 16.015625 50.203125 16.015625 36.375 
Q 16.015625 22.609375 22.328125 14.59375 
Q 28.65625 6.59375 39.40625 6.59375 
Q 50.140625 6.59375 56.421875 14.59375 
Q 62.703125 22.609375 62.703125 36.375 
Q 62.703125 50.203125 56.421875 58.203125 
Q 50.140625 66.21875 39.40625 66.21875 
z
M 39.40625 74.21875 
Q 54.734375 74.21875 63.90625 63.9375 
Q 73.09375 53.65625 73.09375 36.375 
Q 73.09375 19.140625 63.90625 8.859375 
Q 54.734375 -1.421875 39.40625 -1.421875 
Q 24.03125 -1.421875 14.8125 8.828125 
Q 5.609375 19.09375 5.609375 36.375 
Q 5.609375 53.65625 14.8125 63.9375 
Q 24.03125 74.21875 39.40625 74.21875 
z
" id="DejaVuSans-79"/>
     <path d="M 9.8125 72.90625 
L 24.515625 72.90625 
L 43.109375 23.296875 
L 61.8125 72.90625 
L 76.515625 72.90625 
L 76.515625 0 
L 66.890625 0 
L 66.890625 64.015625 
L 48.09375 14.015625 
L 38.1875 14.015625 
L 19.390625 64.015625 
L 19.390625 0 
L 9.8125 0 
z
" id="DejaVuSans-77"/>
     <path d="M 19.671875 64.796875 
L 19.671875 37.40625 
L 32.078125 37.40625 
Q 38.96875 37.40625 42.71875 40.96875 
Q 46.484375 44.53125 46.484375 51.125 
Q 46.484375 57.671875 42.71875 61.234375 
Q 38.96875 64.796875 32.078125 64.796875 
z
M 9.8125 72.90625 
L 32.078125 72.90625 
Q 44.34375 72.90625 50.609375 67.359375 
Q 56.890625 61.8125 56.890625 51.125 
Q 56.890625 40.328125 50.609375 34.8125 
Q 44.34375 29.296875 32.078125 29.296875 
L 19.671875 29.296875 
L 19.671875 0 
L 9.8125 0 
z
" id="DejaVuSans-80"/>
     <path d="M 34.1875 63.1875 
L 20.796875 26.90625 
L 47.609375 26.90625 
z
M 28.609375 72.90625 
L 39.796875 72.90625 
L 67.578125 0 
L 57.328125 0 
L 50.6875 18.703125 
L 17.828125 18.703125 
L 11.1875 0 
L 0.78125 0 
z
" id="DejaVuSans-65"/>
     <path d="M 28.609375 0 
L 0.78125 72.90625 
L 11.078125 72.90625 
L 34.1875 11.53125 
L 57.328125 72.90625 
L 67.578125 72.90625 
L 39.796875 0 
z
" id="DejaVuSans-86"/>
     <path d="M 6.296875 72.90625 
L 16.890625 72.90625 
L 35.015625 45.796875 
L 53.21875 72.90625 
L 63.8125 72.90625 
L 40.375 37.890625 
L 65.375 0 
L 54.78125 0 
L 34.28125 31 
L 13.625 0 
L 2.984375 0 
L 29 38.921875 
z
" id="DejaVuSans-88"/>
     <path d="M 2.984375 54.6875 
L 12.5 54.6875 
L 29.59375 8.796875 
L 46.6875 54.6875 
L 56.203125 54.6875 
L 35.6875 0 
L 23.484375 0 
z
" id="DejaVuSans-118"/>
    </defs>
    <g transform="translate(119.378438 35.472)scale(0.12 -0.12)">
     <use xlink:href="#DejaVuSans-116"/>
     <use x="39.208984" xlink:href="#DejaVuSans-98"/>
     <use x="102.685547" xlink:href="#DejaVuSans-98"/>
     <use x="166.162109" xlink:href="#DejaVuSans-58"/>
     <use x="199.853516" xlink:href="#DejaVuSans-58"/>
     <use x="233.544922" xlink:href="#DejaVuSans-112"/>
     <use x="297.021484" xlink:href="#DejaVuSans-97"/>
     <use x="358.300781" xlink:href="#DejaVuSans-114"/>
     <use x="399.414062" xlink:href="#DejaVuSans-97"/>
     <use x="460.693359" xlink:href="#DejaVuSans-108"/>
     <use x="488.476562" xlink:href="#DejaVuSans-108"/>
     <use x="516.259766" xlink:href="#DejaVuSans-101"/>
     <use x="577.783203" xlink:href="#DejaVuSans-108"/>
     <use x="605.566406" xlink:href="#DejaVuSans-95"/>
     <use x="655.566406" xlink:href="#DejaVuSans-115"/>
     <use x="707.666016" xlink:href="#DejaVuSans-111"/>
     <use x="768.847656" xlink:href="#DejaVuSans-114"/>
     <use x="809.960938" xlink:href="#DejaVuSans-116"/>
     <use x="849.169922" xlink:href="#DejaVuSans-32"/>
     <use x="880.957031" xlink:href="#DejaVuSans-79"/>
     <use x="959.667969" xlink:href="#DejaVuSans-51"/>
     <use x="1023.291016" xlink:href="#DejaVuSans-32"/>
     <use x="1055.078125" xlink:href="#DejaVuSans-79"/>
     <use x="1133.789062" xlink:href="#DejaVuSans-77"/>
     <use x="1220.068359" xlink:href="#DejaVuSans-80"/>
     <use x="1280.371094" xlink:href="#DejaVuSans-32"/>
     <use x="1312.158203" xlink:href="#DejaVuSans-65"/>
     <use x="1374.191406" xlink:href="#DejaVuSans-86"/>
     <use x="1442.599609" xlink:href="#DejaVuSans-88"/>
     <use x="1511.105469" xlink:href="#DejaVuSans-50"/>
     <use x="1574.728516" xlink:href="#DejaVuSans-32"/>
     <use x="1606.515625" xlink:href="#DejaVuSans-111"/>
     <use x="1667.697266" xlink:href="#DejaVuSans-118"/>
     <use x="1726.876953" xlink:href="#DejaVuSans-101"/>
     <use x="1788.400391" xlink:href="#DejaVuSans-114"/>
     <use x="1829.513672" xlink:href="#DejaVuSans-97"/>
     <use x="1890.792969" xlink:href="#DejaVuSans-108"/>
     <use x="1918.576172" xlink:href="#DejaVuSans-108"/>
    </g>
   </g>
   <g id="legend_1">
    <g id="patch_7">
     <path d="M 313.152813 93.7845 
L 407.72 93.7845 
Q 409.72 93.7845 409.72 91.7845 
L 409.72 48.472 
Q 409.72 46.472 407.72 46.472 
L 313.152813 46.472 
Q 311.152813 46.472 311.152813 48.472 
L 311.152813 91.7845 
Q 311.152813 93.7845 313.152813 93.7845 
z
" style="fill:#ffffff;opacity:0.8;stroke:#cccccc;stroke-linejoin:miter;"/>
    </g>
    <g id="line2d_68">
     <path d="M 315.152813 54.570438 
L 335.152813 54.570438 
" style="fill:none;stroke:#0000ff;stroke-dasharray:1.5,2.475;stroke-dashoffset:0;stroke-width:1.5;"/>
    </g>
    <g id="line2d_69">
     <g>
      <use style="fill:#0000ff;stroke:#0000ff;" x="325.152813" xlink:href="#me4a0670bd1" y="54.570438"/>
     </g>
    </g>
    <g id="text_36">
     <!-- transpose -->
     <g transform="translate(343.152813 58.070438)scale(0.1 -0.1)">
      <use xlink:href="#DejaVuSans-116"/>
      <use x="39.208984" xlink:href="#DejaVuSans-114"/>
      <use x="80.322266" xlink:href="#DejaVuSans-97"/>
      <use x="141.601562" xlink:href="#DejaVuSans-110"/>
      <use x="204.980469" xlink:href="#DejaVuSans-115"/>
      <use x="257.080078" xlink:href="#DejaVuSans-112"/>
      <use x="320.556641" xlink:href="#DejaVuSans-111"/>
      <use x="381.738281" xlink:href="#DejaVuSans-115"/>
      <use x="433.837891" xlink:href="#DejaVuSans-101"/>
     </g>
    </g>
    <g id="line2d_70">
     <path d="M 315.152813 69.248563 
L 335.152813 69.248563 
" style="fill:none;stroke:#ff0000;stroke-dasharray:1.5,2.475;stroke-dashoffset:0;stroke-width:1.5;"/>
    </g>
    <g id="line2d_71">
     <g>
      <use style="fill:#ff0000;stroke:#ff0000;" x="325.152813" xlink:href="#ma2ba53e3b2" y="69.248563"/>
     </g>
    </g>
    <g id="text_37">
     <!-- transpose_tr -->
     <g transform="translate(343.152813 72.748563)scale(0.1 -0.1)">
      <use xlink:href="#DejaVuSans-116"/>
      <use x="39.208984" xlink:href="#DejaVuSans-114"/>
      <use x="80.322266" xlink:href="#DejaVuSans-97"/>
      <use x="141.601562" xlink:href="#DejaVuSans-110"/>
      <use x="204.980469" xlink:href="#DejaVuSans-115"/>
      <use x="257.080078" xlink:href="#DejaVuSans-112"/>
      <use x="320.556641" xlink:href="#DejaVuSans-111"/>
      <use x="381.738281" xlink:href="#DejaVuSans-115"/>
      <use x="433.837891" xlink:href="#DejaVuSans-101"/>
      <use x="495.361328" xlink:href="#DejaVuSans-95"/>
      <use x="545.361328" xlink:href="#DejaVuSans-116"/>
      <use x="584.570312" xlink:href="#DejaVuSans-114"/>
     </g>
    </g>
    <g id="line2d_72">
     <path d="M 315.152813 84.204813 
L 335.152813 84.204813 
" style="fill:none;stroke:#008000;stroke-dasharray:1.5,2.475;stroke-dashoffset:0;stroke-width:1.5;"/>
    </g>
    <g id="line2d_73">
     <g>
      <use style="fill:#008000;stroke:#008000;" x="325.152813" xlink:href="#m67fe422c09" y="84.204813"/>
     </g>
    </g>
    <g id="text_38">
     <!-- mean -->
     <defs>
      <path d="M 52 44.1875 
Q 55.375 50.25 60.0625 53.125 
Q 64.75 56 71.09375 56 
Q 79.640625 56 84.28125 50.015625 
Q 88.921875 44.046875 88.921875 33.015625 
L 88.921875 0 
L 79.890625 0 
L 79.890625 32.71875 
Q 79.890625 40.578125 77.09375 44.375 
Q 74.3125 48.1875 68.609375 48.1875 
Q 61.625 48.1875 57.5625 43.546875 
Q 53.515625 38.921875 53.515625 30.90625 
L 53.515625 0 
L 44.484375 0 
L 44.484375 32.71875 
Q 44.484375 40.625 41.703125 44.40625 
Q 38.921875 48.1875 33.109375 48.1875 
Q 26.21875 48.1875 22.15625 43.53125 
Q 18.109375 38.875 18.109375 30.90625 
L 18.109375 0 
L 9.078125 0 
L 9.078125 54.6875 
L 18.109375 54.6875 
L 18.109375 46.1875 
Q 21.1875 51.21875 25.484375 53.609375 
Q 29.78125 56 35.6875 56 
Q 41.65625 56 45.828125 52.96875 
Q 50 49.953125 52 44.1875 
z
" id="DejaVuSans-109"/>
     </defs>
     <g transform="translate(343.152813 87.704813)scale(0.1 -0.1)">
      <use xlink:href="#DejaVuSans-109"/>
      <use x="97.412109" xlink:href="#DejaVuSans-101"/>
      <use x="158.935547" xlink:href="#DejaVuSans-97"/>
      <use x="220.214844" xlink:href="#DejaVuSans-110"/>
     </g>
    </g>
   </g>
  </g>
 </g>
 <defs>
  <clipPath id="p65e6194ccb">
   <rect height="266.112" width="357.12" x="57.6" y="41.472"/>
  </clipPath>
 </defs>
</svg>
