<?xml version="1.0" encoding="utf-8" standalone="no"?>
<!DOCTYPE svg PUBLIC "-//W3C//DTD SVG 1.1//EN"
  "http://www.w3.org/Graphics/SVG/1.1/DTD/svg11.dtd">
<!-- Created with matplotlib (https://matplotlib.org/) -->
<svg height="345.6pt" version="1.1" viewBox="0 0 460.8 345.6" width="460.8pt" xmlns="http://www.w3.org/2000/svg" xmlns:xlink="http://www.w3.org/1999/xlink">
 <defs>
  <style type="text/css">
*{stroke-linecap:butt;stroke-linejoin:round;}
  </style>
 </defs>
 <g id="figure_1">
  <g id="patch_1">
   <path d="M 0 345.6 
L 460.8 345.6 
L 460.8 0 
L 0 0 
z
" style="fill:#ffffff;"/>
  </g>
  <g id="axes_1">
   <g id="patch_2">
    <path d="M 57.6 307.584 
L 414.72 307.584 
L 414.72 41.472 
L 57.6 41.472 
z
" style="fill:#ffffff;"/>
   </g>
   <g id="matplotlib.axis_1">
    <g id="xtick_1">
     <g id="line2d_1">
      <defs>
       <path d="M 0 0 
L 0 3.5 
" id="maa9d22abac" style="stroke:#000000;stroke-width:0.8;"/>
      </defs>
      <g>
       <use style="stroke:#000000;stroke-width:0.8;" x="83.108571" xlink:href="#maa9d22abac" y="307.584"/>
      </g>
     </g>
     <g id="text_1">
      <!-- Gustavson -->
      <defs>
       <path d="M 59.515625 10.40625 
L 59.515625 29.984375 
L 43.40625 29.984375 
L 43.40625 38.09375 
L 69.28125 38.09375 
L 69.28125 6.78125 
Q 63.578125 2.734375 56.6875 0.65625 
Q 49.8125 -1.421875 42 -1.421875 
Q 24.90625 -1.421875 15.25 8.5625 
Q 5.609375 18.5625 5.609375 36.375 
Q 5.609375 54.25 15.25 64.234375 
Q 24.90625 74.21875 42 74.21875 
Q 49.125 74.21875 55.546875 72.453125 
Q 61.96875 70.703125 67.390625 67.28125 
L 67.390625 56.78125 
Q 61.921875 61.421875 55.765625 63.765625 
Q 49.609375 66.109375 42.828125 66.109375 
Q 29.4375 66.109375 22.71875 58.640625 
Q 16.015625 51.171875 16.015625 36.375 
Q 16.015625 21.625 22.71875 14.15625 
Q 29.4375 6.6875 42.828125 6.6875 
Q 48.046875 6.6875 52.140625 7.59375 
Q 56.25 8.5 59.515625 10.40625 
z
" id="DejaVuSans-71"/>
       <path d="M 8.5 21.578125 
L 8.5 54.6875 
L 17.484375 54.6875 
L 17.484375 21.921875 
Q 17.484375 14.15625 20.5 10.265625 
Q 23.53125 6.390625 29.59375 6.390625 
Q 36.859375 6.390625 41.078125 11.03125 
Q 45.3125 15.671875 45.3125 23.6875 
L 45.3125 54.6875 
L 54.296875 54.6875 
L 54.296875 0 
L 45.3125 0 
L 45.3125 8.40625 
Q 42.046875 3.421875 37.71875 1 
Q 33.40625 -1.421875 27.6875 -1.421875 
Q 18.265625 -1.421875 13.375 4.4375 
Q 8.5 10.296875 8.5 21.578125 
z
M 31.109375 56 
z
" id="DejaVuSans-117"/>
       <path d="M 44.28125 53.078125 
L 44.28125 44.578125 
Q 40.484375 46.53125 36.375 47.5 
Q 32.28125 48.484375 27.875 48.484375 
Q 21.1875 48.484375 17.84375 46.4375 
Q 14.5 44.390625 14.5 40.28125 
Q 14.5 37.15625 16.890625 35.375 
Q 19.28125 33.59375 26.515625 31.984375 
L 29.59375 31.296875 
Q 39.15625 29.25 43.1875 25.515625 
Q 47.21875 21.78125 47.21875 15.09375 
Q 47.21875 7.46875 41.1875 3.015625 
Q 35.15625 -1.421875 24.609375 -1.421875 
Q 20.21875 -1.421875 15.453125 -0.5625 
Q 10.6875 0.296875 5.421875 2 
L 5.421875 11.28125 
Q 10.40625 8.6875 15.234375 7.390625 
Q 20.0625 6.109375 24.8125 6.109375 
Q 31.15625 6.109375 34.5625 8.28125 
Q 37.984375 10.453125 37.984375 14.40625 
Q 37.984375 18.0625 35.515625 20.015625 
Q 33.0625 21.96875 24.703125 23.78125 
L 21.578125 24.515625 
Q 13.234375 26.265625 9.515625 29.90625 
Q 5.8125 33.546875 5.8125 39.890625 
Q 5.8125 47.609375 11.28125 51.796875 
Q 16.75 56 26.8125 56 
Q 31.78125 56 36.171875 55.265625 
Q 40.578125 54.546875 44.28125 53.078125 
z
" id="DejaVuSans-115"/>
       <path d="M 18.3125 70.21875 
L 18.3125 54.6875 
L 36.8125 54.6875 
L 36.8125 47.703125 
L 18.3125 47.703125 
L 18.3125 18.015625 
Q 18.3125 11.328125 20.140625 9.421875 
Q 21.96875 7.515625 27.59375 7.515625 
L 36.8125 7.515625 
L 36.8125 0 
L 27.59375 0 
Q 17.1875 0 13.234375 3.875 
Q 9.28125 7.765625 9.28125 18.015625 
L 9.28125 47.703125 
L 2.6875 47.703125 
L 2.6875 54.6875 
L 9.28125 54.6875 
L 9.28125 70.21875 
z
" id="DejaVuSans-116"/>
       <path d="M 34.28125 27.484375 
Q 23.390625 27.484375 19.1875 25 
Q 14.984375 22.515625 14.984375 16.5 
Q 14.984375 11.71875 18.140625 8.90625 
Q 21.296875 6.109375 26.703125 6.109375 
Q 34.1875 6.109375 38.703125 11.40625 
Q 43.21875 16.703125 43.21875 25.484375 
L 43.21875 27.484375 
z
M 52.203125 31.203125 
L 52.203125 0 
L 43.21875 0 
L 43.21875 8.296875 
Q 40.140625 3.328125 35.546875 0.953125 
Q 30.953125 -1.421875 24.3125 -1.421875 
Q 15.921875 -1.421875 10.953125 3.296875 
Q 6 8.015625 6 15.921875 
Q 6 25.140625 12.171875 29.828125 
Q 18.359375 34.515625 30.609375 34.515625 
L 43.21875 34.515625 
L 43.21875 35.40625 
Q 43.21875 41.609375 39.140625 45 
Q 35.0625 48.390625 27.6875 48.390625 
Q 23 48.390625 18.546875 47.265625 
Q 14.109375 46.140625 10.015625 43.890625 
L 10.015625 52.203125 
Q 14.9375 54.109375 19.578125 55.046875 
Q 24.21875 56 28.609375 56 
Q 40.484375 56 46.34375 49.84375 
Q 52.203125 43.703125 52.203125 31.203125 
z
" id="DejaVuSans-97"/>
       <path d="M 2.984375 54.6875 
L 12.5 54.6875 
L 29.59375 8.796875 
L 46.6875 54.6875 
L 56.203125 54.6875 
L 35.6875 0 
L 23.484375 0 
z
" id="DejaVuSans-118"/>
       <path d="M 30.609375 48.390625 
Q 23.390625 48.390625 19.1875 42.75 
Q 14.984375 37.109375 14.984375 27.296875 
Q 14.984375 17.484375 19.15625 11.84375 
Q 23.34375 6.203125 30.609375 6.203125 
Q 37.796875 6.203125 41.984375 11.859375 
Q 46.1875 17.53125 46.1875 27.296875 
Q 46.1875 37.015625 41.984375 42.703125 
Q 37.796875 48.390625 30.609375 48.390625 
z
M 30.609375 56 
Q 42.328125 56 49.015625 48.375 
Q 55.71875 40.765625 55.71875 27.296875 
Q 55.71875 13.875 49.015625 6.21875 
Q 42.328125 -1.421875 30.609375 -1.421875 
Q 18.84375 -1.421875 12.171875 6.21875 
Q 5.515625 13.875 5.515625 27.296875 
Q 5.515625 40.765625 12.171875 48.375 
Q 18.84375 56 30.609375 56 
z
" id="DejaVuSans-111"/>
       <path d="M 54.890625 33.015625 
L 54.890625 0 
L 45.90625 0 
L 45.90625 32.71875 
Q 45.90625 40.484375 42.875 44.328125 
Q 39.84375 48.1875 33.796875 48.1875 
Q 26.515625 48.1875 22.3125 43.546875 
Q 18.109375 38.921875 18.109375 30.90625 
L 18.109375 0 
L 9.078125 0 
L 9.078125 54.6875 
L 18.109375 54.6875 
L 18.109375 46.1875 
Q 21.34375 51.125 25.703125 53.5625 
Q 30.078125 56 35.796875 56 
Q 45.21875 56 50.046875 50.171875 
Q 54.890625 44.34375 54.890625 33.015625 
z
" id="DejaVuSans-110"/>
      </defs>
      <g transform="translate(56.644509 322.182437)scale(0.1 -0.1)">
       <use xlink:href="#DejaVuSans-71"/>
       <use x="77.490234" xlink:href="#DejaVuSans-117"/>
       <use x="140.869141" xlink:href="#DejaVuSans-115"/>
       <use x="192.96875" xlink:href="#DejaVuSans-116"/>
       <use x="232.177734" xlink:href="#DejaVuSans-97"/>
       <use x="293.457031" xlink:href="#DejaVuSans-118"/>
       <use x="352.636719" xlink:href="#DejaVuSans-115"/>
       <use x="404.736328" xlink:href="#DejaVuSans-111"/>
       <use x="465.917969" xlink:href="#DejaVuSans-110"/>
      </g>
      <!-- O2 -->
      <defs>
       <path d="M 39.40625 66.21875 
Q 28.65625 66.21875 22.328125 58.203125 
Q 16.015625 50.203125 16.015625 36.375 
Q 16.015625 22.609375 22.328125 14.59375 
Q 28.65625 6.59375 39.40625 6.59375 
Q 50.140625 6.59375 56.421875 14.59375 
Q 62.703125 22.609375 62.703125 36.375 
Q 62.703125 50.203125 56.421875 58.203125 
Q 50.140625 66.21875 39.40625 66.21875 
z
M 39.40625 74.21875 
Q 54.734375 74.21875 63.90625 63.9375 
Q 73.09375 53.65625 73.09375 36.375 
Q 73.09375 19.140625 63.90625 8.859375 
Q 54.734375 -1.421875 39.40625 -1.421875 
Q 24.03125 -1.421875 14.8125 8.828125 
Q 5.609375 19.09375 5.609375 36.375 
Q 5.609375 53.65625 14.8125 63.9375 
Q 24.03125 74.21875 39.40625 74.21875 
z
" id="DejaVuSans-79"/>
       <path d="M 19.1875 8.296875 
L 53.609375 8.296875 
L 53.609375 0 
L 7.328125 0 
L 7.328125 8.296875 
Q 12.9375 14.109375 22.625 23.890625 
Q 32.328125 33.6875 34.8125 36.53125 
Q 39.546875 41.84375 41.421875 45.53125 
Q 43.3125 49.21875 43.3125 52.78125 
Q 43.3125 58.59375 39.234375 62.25 
Q 35.15625 65.921875 28.609375 65.921875 
Q 23.96875 65.921875 18.8125 64.3125 
Q 13.671875 62.703125 7.8125 59.421875 
L 7.8125 69.390625 
Q 13.765625 71.78125 18.9375 73 
Q 24.125 74.21875 28.421875 74.21875 
Q 39.75 74.21875 46.484375 68.546875 
Q 53.21875 62.890625 53.21875 53.421875 
Q 53.21875 48.921875 51.53125 44.890625 
Q 49.859375 40.875 45.40625 35.40625 
Q 44.1875 33.984375 37.640625 27.21875 
Q 31.109375 20.453125 19.1875 8.296875 
z
" id="DejaVuSans-50"/>
      </defs>
      <g transform="translate(75.991384 333.38025)scale(0.1 -0.1)">
       <use xlink:href="#DejaVuSans-79"/>
       <use x="78.710938" xlink:href="#DejaVuSans-50"/>
      </g>
     </g>
    </g>
    <g id="xtick_2">
     <g id="line2d_2">
      <g>
       <use style="stroke:#000000;stroke-width:0.8;" x="134.125714" xlink:href="#maa9d22abac" y="307.584"/>
      </g>
     </g>
     <g id="text_2">
      <!-- Gustavson -->
      <g transform="translate(107.661652 322.182437)scale(0.1 -0.1)">
       <use xlink:href="#DejaVuSans-71"/>
       <use x="77.490234" xlink:href="#DejaVuSans-117"/>
       <use x="140.869141" xlink:href="#DejaVuSans-115"/>
       <use x="192.96875" xlink:href="#DejaVuSans-116"/>
       <use x="232.177734" xlink:href="#DejaVuSans-97"/>
       <use x="293.457031" xlink:href="#DejaVuSans-118"/>
       <use x="352.636719" xlink:href="#DejaVuSans-115"/>
       <use x="404.736328" xlink:href="#DejaVuSans-111"/>
       <use x="465.917969" xlink:href="#DejaVuSans-110"/>
      </g>
      <!-- O2 OMP AVX2 -->
      <defs>
       <path id="DejaVuSans-32"/>
       <path d="M 9.8125 72.90625 
L 24.515625 72.90625 
L 43.109375 23.296875 
L 61.8125 72.90625 
L 76.515625 72.90625 
L 76.515625 0 
L 66.890625 0 
L 66.890625 64.015625 
L 48.09375 14.015625 
L 38.1875 14.015625 
L 19.390625 64.015625 
L 19.390625 0 
L 9.8125 0 
z
" id="DejaVuSans-77"/>
       <path d="M 19.671875 64.796875 
L 19.671875 37.40625 
L 32.078125 37.40625 
Q 38.96875 37.40625 42.71875 40.96875 
Q 46.484375 44.53125 46.484375 51.125 
Q 46.484375 57.671875 42.71875 61.234375 
Q 38.96875 64.796875 32.078125 64.796875 
z
M 9.8125 72.90625 
L 32.078125 72.90625 
Q 44.34375 72.90625 50.609375 67.359375 
Q 56.890625 61.8125 56.890625 51.125 
Q 56.890625 40.328125 50.609375 34.8125 
Q 44.34375 29.296875 32.078125 29.296875 
L 19.671875 29.296875 
L 19.671875 0 
L 9.8125 0 
z
" id="DejaVuSans-80"/>
       <path d="M 34.1875 63.1875 
L 20.796875 26.90625 
L 47.609375 26.90625 
z
M 28.609375 72.90625 
L 39.796875 72.90625 
L 67.578125 0 
L 57.328125 0 
L 50.6875 18.703125 
L 17.828125 18.703125 
L 11.1875 0 
L 0.78125 0 
z
" id="DejaVuSans-65"/>
       <path d="M 28.609375 0 
L 0.78125 72.90625 
L 11.078125 72.90625 
L 34.1875 11.53125 
L 57.328125 72.90625 
L 67.578125 72.90625 
L 39.796875 0 
z
" id="DejaVuSans-86"/>
       <path d="M 6.296875 72.90625 
L 16.890625 72.90625 
L 35.015625 45.796875 
L 53.21875 72.90625 
L 63.8125 72.90625 
L 40.375 37.890625 
L 65.375 0 
L 54.78125 0 
L 34.28125 31 
L 13.625 0 
L 2.984375 0 
L 29 38.921875 
z
" id="DejaVuSans-88"/>
      </defs>
      <g transform="translate(99.437433 333.38025)scale(0.1 -0.1)">
       <use xlink:href="#DejaVuSans-79"/>
       <use x="78.710938" xlink:href="#DejaVuSans-50"/>
       <use x="142.333984" xlink:href="#DejaVuSans-32"/>
       <use x="174.121094" xlink:href="#DejaVuSans-79"/>
       <use x="252.832031" xlink:href="#DejaVuSans-77"/>
       <use x="339.111328" xlink:href="#DejaVuSans-80"/>
       <use x="399.414062" xlink:href="#DejaVuSans-32"/>
       <use x="431.201172" xlink:href="#DejaVuSans-65"/>
       <use x="493.234375" xlink:href="#DejaVuSans-86"/>
       <use x="561.642578" xlink:href="#DejaVuSans-88"/>
       <use x="630.148438" xlink:href="#DejaVuSans-50"/>
      </g>
     </g>
    </g>
    <g id="xtick_3">
     <g id="line2d_3">
      <g>
       <use style="stroke:#000000;stroke-width:0.8;" x="185.142857" xlink:href="#maa9d22abac" y="307.584"/>
      </g>
     </g>
     <g id="text_3">
      <!-- Gustavson -->
      <g transform="translate(158.678795 322.182437)scale(0.1 -0.1)">
       <use xlink:href="#DejaVuSans-71"/>
       <use x="77.490234" xlink:href="#DejaVuSans-117"/>
       <use x="140.869141" xlink:href="#DejaVuSans-115"/>
       <use x="192.96875" xlink:href="#DejaVuSans-116"/>
       <use x="232.177734" xlink:href="#DejaVuSans-97"/>
       <use x="293.457031" xlink:href="#DejaVuSans-118"/>
       <use x="352.636719" xlink:href="#DejaVuSans-115"/>
       <use x="404.736328" xlink:href="#DejaVuSans-111"/>
       <use x="465.917969" xlink:href="#DejaVuSans-110"/>
      </g>
      <!-- O3 OMP AVX2 -->
      <defs>
       <path d="M 40.578125 39.3125 
Q 47.65625 37.796875 51.625 33 
Q 55.609375 28.21875 55.609375 21.1875 
Q 55.609375 10.40625 48.1875 4.484375 
Q 40.765625 -1.421875 27.09375 -1.421875 
Q 22.515625 -1.421875 17.65625 -0.515625 
Q 12.796875 0.390625 7.625 2.203125 
L 7.625 11.71875 
Q 11.71875 9.328125 16.59375 8.109375 
Q 21.484375 6.890625 26.8125 6.890625 
Q 36.078125 6.890625 40.9375 10.546875 
Q 45.796875 14.203125 45.796875 21.1875 
Q 45.796875 27.640625 41.28125 31.265625 
Q 36.765625 34.90625 28.71875 34.90625 
L 20.21875 34.90625 
L 20.21875 43.015625 
L 29.109375 43.015625 
Q 36.375 43.015625 40.234375 45.921875 
Q 44.09375 48.828125 44.09375 54.296875 
Q 44.09375 59.90625 40.109375 62.90625 
Q 36.140625 65.921875 28.71875 65.921875 
Q 24.65625 65.921875 20.015625 65.03125 
Q 15.375 64.15625 9.8125 62.3125 
L 9.8125 71.09375 
Q 15.4375 72.65625 20.34375 73.4375 
Q 25.25 74.21875 29.59375 74.21875 
Q 40.828125 74.21875 47.359375 69.109375 
Q 53.90625 64.015625 53.90625 55.328125 
Q 53.90625 49.265625 50.4375 45.09375 
Q 46.96875 40.921875 40.578125 39.3125 
z
" id="DejaVuSans-51"/>
      </defs>
      <g transform="translate(150.454576 333.38025)scale(0.1 -0.1)">
       <use xlink:href="#DejaVuSans-79"/>
       <use x="78.710938" xlink:href="#DejaVuSans-51"/>
       <use x="142.333984" xlink:href="#DejaVuSans-32"/>
       <use x="174.121094" xlink:href="#DejaVuSans-79"/>
       <use x="252.832031" xlink:href="#DejaVuSans-77"/>
       <use x="339.111328" xlink:href="#DejaVuSans-80"/>
       <use x="399.414062" xlink:href="#DejaVuSans-32"/>
       <use x="431.201172" xlink:href="#DejaVuSans-65"/>
       <use x="493.234375" xlink:href="#DejaVuSans-86"/>
       <use x="561.642578" xlink:href="#DejaVuSans-88"/>
       <use x="630.148438" xlink:href="#DejaVuSans-50"/>
      </g>
     </g>
    </g>
    <g id="xtick_4">
     <g id="line2d_4">
      <g>
       <use style="stroke:#000000;stroke-width:0.8;" x="236.16" xlink:href="#maa9d22abac" y="307.584"/>
      </g>
     </g>
     <g id="text_4">
      <!-- std::sort -->
      <defs>
       <path d="M 45.40625 46.390625 
L 45.40625 75.984375 
L 54.390625 75.984375 
L 54.390625 0 
L 45.40625 0 
L 45.40625 8.203125 
Q 42.578125 3.328125 38.25 0.953125 
Q 33.9375 -1.421875 27.875 -1.421875 
Q 17.96875 -1.421875 11.734375 6.484375 
Q 5.515625 14.40625 5.515625 27.296875 
Q 5.515625 40.1875 11.734375 48.09375 
Q 17.96875 56 27.875 56 
Q 33.9375 56 38.25 53.625 
Q 42.578125 51.265625 45.40625 46.390625 
z
M 14.796875 27.296875 
Q 14.796875 17.390625 18.875 11.75 
Q 22.953125 6.109375 30.078125 6.109375 
Q 37.203125 6.109375 41.296875 11.75 
Q 45.40625 17.390625 45.40625 27.296875 
Q 45.40625 37.203125 41.296875 42.84375 
Q 37.203125 48.484375 30.078125 48.484375 
Q 22.953125 48.484375 18.875 42.84375 
Q 14.796875 37.203125 14.796875 27.296875 
z
" id="DejaVuSans-100"/>
       <path d="M 11.71875 12.40625 
L 22.015625 12.40625 
L 22.015625 0 
L 11.71875 0 
z
M 11.71875 51.703125 
L 22.015625 51.703125 
L 22.015625 39.3125 
L 11.71875 39.3125 
z
" id="DejaVuSans-58"/>
       <path d="M 41.109375 46.296875 
Q 39.59375 47.171875 37.8125 47.578125 
Q 36.03125 48 33.890625 48 
Q 26.265625 48 22.1875 43.046875 
Q 18.109375 38.09375 18.109375 28.8125 
L 18.109375 0 
L 9.078125 0 
L 9.078125 54.6875 
L 18.109375 54.6875 
L 18.109375 46.1875 
Q 20.953125 51.171875 25.484375 53.578125 
Q 30.03125 56 36.53125 56 
Q 37.453125 56 38.578125 55.875 
Q 39.703125 55.765625 41.0625 55.515625 
z
" id="DejaVuSans-114"/>
      </defs>
      <g transform="translate(215.3725 322.182437)scale(0.1 -0.1)">
       <use xlink:href="#DejaVuSans-115"/>
       <use x="52.099609" xlink:href="#DejaVuSans-116"/>
       <use x="91.308594" xlink:href="#DejaVuSans-100"/>
       <use x="154.785156" xlink:href="#DejaVuSans-58"/>
       <use x="188.476562" xlink:href="#DejaVuSans-58"/>
       <use x="222.167969" xlink:href="#DejaVuSans-115"/>
       <use x="274.267578" xlink:href="#DejaVuSans-111"/>
       <use x="335.449219" xlink:href="#DejaVuSans-114"/>
       <use x="376.5625" xlink:href="#DejaVuSans-116"/>
      </g>
      <!-- O2 -->
      <g transform="translate(229.042812 333.38025)scale(0.1 -0.1)">
       <use xlink:href="#DejaVuSans-79"/>
       <use x="78.710938" xlink:href="#DejaVuSans-50"/>
      </g>
     </g>
    </g>
    <g id="xtick_5">
     <g id="line2d_5">
      <g>
       <use style="stroke:#000000;stroke-width:0.8;" x="287.177143" xlink:href="#maa9d22abac" y="307.584"/>
      </g>
     </g>
     <g id="text_5">
      <!-- std::sort -->
      <g transform="translate(266.389643 322.182437)scale(0.1 -0.1)">
       <use xlink:href="#DejaVuSans-115"/>
       <use x="52.099609" xlink:href="#DejaVuSans-116"/>
       <use x="91.308594" xlink:href="#DejaVuSans-100"/>
       <use x="154.785156" xlink:href="#DejaVuSans-58"/>
       <use x="188.476562" xlink:href="#DejaVuSans-58"/>
       <use x="222.167969" xlink:href="#DejaVuSans-115"/>
       <use x="274.267578" xlink:href="#DejaVuSans-111"/>
       <use x="335.449219" xlink:href="#DejaVuSans-114"/>
       <use x="376.5625" xlink:href="#DejaVuSans-116"/>
      </g>
      <!-- O2 OMP AVX2 -->
      <g transform="translate(252.488862 333.38025)scale(0.1 -0.1)">
       <use xlink:href="#DejaVuSans-79"/>
       <use x="78.710938" xlink:href="#DejaVuSans-50"/>
       <use x="142.333984" xlink:href="#DejaVuSans-32"/>
       <use x="174.121094" xlink:href="#DejaVuSans-79"/>
       <use x="252.832031" xlink:href="#DejaVuSans-77"/>
       <use x="339.111328" xlink:href="#DejaVuSans-80"/>
       <use x="399.414062" xlink:href="#DejaVuSans-32"/>
       <use x="431.201172" xlink:href="#DejaVuSans-65"/>
       <use x="493.234375" xlink:href="#DejaVuSans-86"/>
       <use x="561.642578" xlink:href="#DejaVuSans-88"/>
       <use x="630.148438" xlink:href="#DejaVuSans-50"/>
      </g>
     </g>
    </g>
    <g id="xtick_6">
     <g id="line2d_6">
      <g>
       <use style="stroke:#000000;stroke-width:0.8;" x="338.194286" xlink:href="#maa9d22abac" y="307.584"/>
      </g>
     </g>
     <g id="text_6">
      <!-- std::sort -->
      <g transform="translate(317.406786 322.182437)scale(0.1 -0.1)">
       <use xlink:href="#DejaVuSans-115"/>
       <use x="52.099609" xlink:href="#DejaVuSans-116"/>
       <use x="91.308594" xlink:href="#DejaVuSans-100"/>
       <use x="154.785156" xlink:href="#DejaVuSans-58"/>
       <use x="188.476562" xlink:href="#DejaVuSans-58"/>
       <use x="222.167969" xlink:href="#DejaVuSans-115"/>
       <use x="274.267578" xlink:href="#DejaVuSans-111"/>
       <use x="335.449219" xlink:href="#DejaVuSans-114"/>
       <use x="376.5625" xlink:href="#DejaVuSans-116"/>
      </g>
      <!-- O3 OMP AVX2 -->
      <g transform="translate(303.506004 333.38025)scale(0.1 -0.1)">
       <use xlink:href="#DejaVuSans-79"/>
       <use x="78.710938" xlink:href="#DejaVuSans-51"/>
       <use x="142.333984" xlink:href="#DejaVuSans-32"/>
       <use x="174.121094" xlink:href="#DejaVuSans-79"/>
       <use x="252.832031" xlink:href="#DejaVuSans-77"/>
       <use x="339.111328" xlink:href="#DejaVuSans-80"/>
       <use x="399.414062" xlink:href="#DejaVuSans-32"/>
       <use x="431.201172" xlink:href="#DejaVuSans-65"/>
       <use x="493.234375" xlink:href="#DejaVuSans-86"/>
       <use x="561.642578" xlink:href="#DejaVuSans-88"/>
       <use x="630.148438" xlink:href="#DejaVuSans-50"/>
      </g>
     </g>
    </g>
    <g id="xtick_7">
     <g id="line2d_7">
      <g>
       <use style="stroke:#000000;stroke-width:0.8;" x="389.211429" xlink:href="#maa9d22abac" y="307.584"/>
      </g>
     </g>
     <g id="text_7">
      <!-- tbb::parallel_sort -->
      <defs>
       <path d="M 48.6875 27.296875 
Q 48.6875 37.203125 44.609375 42.84375 
Q 40.53125 48.484375 33.40625 48.484375 
Q 26.265625 48.484375 22.1875 42.84375 
Q 18.109375 37.203125 18.109375 27.296875 
Q 18.109375 17.390625 22.1875 11.75 
Q 26.265625 6.109375 33.40625 6.109375 
Q 40.53125 6.109375 44.609375 11.75 
Q 48.6875 17.390625 48.6875 27.296875 
z
M 18.109375 46.390625 
Q 20.953125 51.265625 25.265625 53.625 
Q 29.59375 56 35.59375 56 
Q 45.5625 56 51.78125 48.09375 
Q 58.015625 40.1875 58.015625 27.296875 
Q 58.015625 14.40625 51.78125 6.484375 
Q 45.5625 -1.421875 35.59375 -1.421875 
Q 29.59375 -1.421875 25.265625 0.953125 
Q 20.953125 3.328125 18.109375 8.203125 
L 18.109375 0 
L 9.078125 0 
L 9.078125 75.984375 
L 18.109375 75.984375 
z
" id="DejaVuSans-98"/>
       <path d="M 18.109375 8.203125 
L 18.109375 -20.796875 
L 9.078125 -20.796875 
L 9.078125 54.6875 
L 18.109375 54.6875 
L 18.109375 46.390625 
Q 20.953125 51.265625 25.265625 53.625 
Q 29.59375 56 35.59375 56 
Q 45.5625 56 51.78125 48.09375 
Q 58.015625 40.1875 58.015625 27.296875 
Q 58.015625 14.40625 51.78125 6.484375 
Q 45.5625 -1.421875 35.59375 -1.421875 
Q 29.59375 -1.421875 25.265625 0.953125 
Q 20.953125 3.328125 18.109375 8.203125 
z
M 48.6875 27.296875 
Q 48.6875 37.203125 44.609375 42.84375 
Q 40.53125 48.484375 33.40625 48.484375 
Q 26.265625 48.484375 22.1875 42.84375 
Q 18.109375 37.203125 18.109375 27.296875 
Q 18.109375 17.390625 22.1875 11.75 
Q 26.265625 6.109375 33.40625 6.109375 
Q 40.53125 6.109375 44.609375 11.75 
Q 48.6875 17.390625 48.6875 27.296875 
z
" id="DejaVuSans-112"/>
       <path d="M 9.421875 75.984375 
L 18.40625 75.984375 
L 18.40625 0 
L 9.421875 0 
z
" id="DejaVuSans-108"/>
       <path d="M 56.203125 29.59375 
L 56.203125 25.203125 
L 14.890625 25.203125 
Q 15.484375 15.921875 20.484375 11.0625 
Q 25.484375 6.203125 34.421875 6.203125 
Q 39.59375 6.203125 44.453125 7.46875 
Q 49.3125 8.734375 54.109375 11.28125 
L 54.109375 2.78125 
Q 49.265625 0.734375 44.1875 -0.34375 
Q 39.109375 -1.421875 33.890625 -1.421875 
Q 20.796875 -1.421875 13.15625 6.1875 
Q 5.515625 13.8125 5.515625 26.8125 
Q 5.515625 40.234375 12.765625 48.109375 
Q 20.015625 56 32.328125 56 
Q 43.359375 56 49.78125 48.890625 
Q 56.203125 41.796875 56.203125 29.59375 
z
M 47.21875 32.234375 
Q 47.125 39.59375 43.09375 43.984375 
Q 39.0625 48.390625 32.421875 48.390625 
Q 24.90625 48.390625 20.390625 44.140625 
Q 15.875 39.890625 15.1875 32.171875 
z
" id="DejaVuSans-101"/>
       <path d="M 50.984375 -16.609375 
L 50.984375 -23.578125 
L -0.984375 -23.578125 
L -0.984375 -16.609375 
z
" id="DejaVuSans-95"/>
      </defs>
      <g transform="translate(346.752835 322.182437)scale(0.1 -0.1)">
       <use xlink:href="#DejaVuSans-116"/>
       <use x="39.208984" xlink:href="#DejaVuSans-98"/>
       <use x="102.685547" xlink:href="#DejaVuSans-98"/>
       <use x="166.162109" xlink:href="#DejaVuSans-58"/>
       <use x="199.853516" xlink:href="#DejaVuSans-58"/>
       <use x="233.544922" xlink:href="#DejaVuSans-112"/>
       <use x="297.021484" xlink:href="#DejaVuSans-97"/>
       <use x="358.300781" xlink:href="#DejaVuSans-114"/>
       <use x="399.414062" xlink:href="#DejaVuSans-97"/>
       <use x="460.693359" xlink:href="#DejaVuSans-108"/>
       <use x="488.476562" xlink:href="#DejaVuSans-108"/>
       <use x="516.259766" xlink:href="#DejaVuSans-101"/>
       <use x="577.783203" xlink:href="#DejaVuSans-108"/>
       <use x="605.566406" xlink:href="#DejaVuSans-95"/>
       <use x="655.566406" xlink:href="#DejaVuSans-115"/>
       <use x="707.666016" xlink:href="#DejaVuSans-111"/>
       <use x="768.847656" xlink:href="#DejaVuSans-114"/>
       <use x="809.960938" xlink:href="#DejaVuSans-116"/>
      </g>
      <!-- O3 OMP AVX2 -->
      <g transform="translate(354.523147 333.658375)scale(0.1 -0.1)">
       <use xlink:href="#DejaVuSans-79"/>
       <use x="78.710938" xlink:href="#DejaVuSans-51"/>
       <use x="142.333984" xlink:href="#DejaVuSans-32"/>
       <use x="174.121094" xlink:href="#DejaVuSans-79"/>
       <use x="252.832031" xlink:href="#DejaVuSans-77"/>
       <use x="339.111328" xlink:href="#DejaVuSans-80"/>
       <use x="399.414062" xlink:href="#DejaVuSans-32"/>
       <use x="431.201172" xlink:href="#DejaVuSans-65"/>
       <use x="493.234375" xlink:href="#DejaVuSans-86"/>
       <use x="561.642578" xlink:href="#DejaVuSans-88"/>
       <use x="630.148438" xlink:href="#DejaVuSans-50"/>
      </g>
     </g>
    </g>
    <g id="text_8">
     <!-- name -->
     <defs>
      <path d="M 52 44.1875 
Q 55.375 50.25 60.0625 53.125 
Q 64.75 56 71.09375 56 
Q 79.640625 56 84.28125 50.015625 
Q 88.921875 44.046875 88.921875 33.015625 
L 88.921875 0 
L 79.890625 0 
L 79.890625 32.71875 
Q 79.890625 40.578125 77.09375 44.375 
Q 74.3125 48.1875 68.609375 48.1875 
Q 61.625 48.1875 57.5625 43.546875 
Q 53.515625 38.921875 53.515625 30.90625 
L 53.515625 0 
L 44.484375 0 
L 44.484375 32.71875 
Q 44.484375 40.625 41.703125 44.40625 
Q 38.921875 48.1875 33.109375 48.1875 
Q 26.21875 48.1875 22.15625 43.53125 
Q 18.109375 38.875 18.109375 30.90625 
L 18.109375 0 
L 9.078125 0 
L 9.078125 54.6875 
L 18.109375 54.6875 
L 18.109375 46.1875 
Q 21.1875 51.21875 25.484375 53.609375 
Q 29.78125 56 35.6875 56 
Q 41.65625 56 45.828125 52.96875 
Q 50 49.953125 52 44.1875 
z
" id="DejaVuSans-109"/>
     </defs>
     <g transform="translate(221.980312 347.3365)scale(0.1 -0.1)">
      <use xlink:href="#DejaVuSans-110"/>
      <use x="63.378906" xlink:href="#DejaVuSans-97"/>
      <use x="124.658203" xlink:href="#DejaVuSans-109"/>
      <use x="222.070312" xlink:href="#DejaVuSans-101"/>
     </g>
    </g>
   </g>
   <g id="matplotlib.axis_2">
    <g id="ytick_1">
     <g id="line2d_8">
      <path clip-path="url(#p8a379e456e)" d="M 57.6 277.339358 
L 414.72 277.339358 
" style="fill:none;stroke:#b0b0b0;stroke-dasharray:5.12,1.28,0.8,1.28;stroke-dashoffset:0;stroke-width:0.8;"/>
     </g>
     <g id="line2d_9">
      <defs>
       <path d="M 0 0 
L -3.5 0 
" id="mb27bf423d5" style="stroke:#000000;stroke-width:0.8;"/>
      </defs>
      <g>
       <use style="stroke:#000000;stroke-width:0.8;" x="57.6" xlink:href="#mb27bf423d5" y="277.339358"/>
      </g>
     </g>
     <g id="text_9">
      <!-- 0.10 -->
      <defs>
       <path d="M 31.78125 66.40625 
Q 24.171875 66.40625 20.328125 58.90625 
Q 16.5 51.421875 16.5 36.375 
Q 16.5 21.390625 20.328125 13.890625 
Q 24.171875 6.390625 31.78125 6.390625 
Q 39.453125 6.390625 43.28125 13.890625 
Q 47.125 21.390625 47.125 36.375 
Q 47.125 51.421875 43.28125 58.90625 
Q 39.453125 66.40625 31.78125 66.40625 
z
M 31.78125 74.21875 
Q 44.046875 74.21875 50.515625 64.515625 
Q 56.984375 54.828125 56.984375 36.375 
Q 56.984375 17.96875 50.515625 8.265625 
Q 44.046875 -1.421875 31.78125 -1.421875 
Q 19.53125 -1.421875 13.0625 8.265625 
Q 6.59375 17.96875 6.59375 36.375 
Q 6.59375 54.828125 13.0625 64.515625 
Q 19.53125 74.21875 31.78125 74.21875 
z
" id="DejaVuSans-48"/>
       <path d="M 10.6875 12.40625 
L 21 12.40625 
L 21 0 
L 10.6875 0 
z
" id="DejaVuSans-46"/>
       <path d="M 12.40625 8.296875 
L 28.515625 8.296875 
L 28.515625 63.921875 
L 10.984375 60.40625 
L 10.984375 69.390625 
L 28.421875 72.90625 
L 38.28125 72.90625 
L 38.28125 8.296875 
L 54.390625 8.296875 
L 54.390625 0 
L 12.40625 0 
z
" id="DejaVuSans-49"/>
      </defs>
      <g transform="translate(28.334375 281.138577)scale(0.1 -0.1)">
       <use xlink:href="#DejaVuSans-48"/>
       <use x="63.623047" xlink:href="#DejaVuSans-46"/>
       <use x="95.410156" xlink:href="#DejaVuSans-49"/>
       <use x="159.033203" xlink:href="#DejaVuSans-48"/>
      </g>
     </g>
    </g>
    <g id="ytick_2">
     <g id="line2d_10">
      <path clip-path="url(#p8a379e456e)" d="M 57.6 246.384669 
L 414.72 246.384669 
" style="fill:none;stroke:#b0b0b0;stroke-dasharray:5.12,1.28,0.8,1.28;stroke-dashoffset:0;stroke-width:0.8;"/>
     </g>
     <g id="line2d_11">
      <g>
       <use style="stroke:#000000;stroke-width:0.8;" x="57.6" xlink:href="#mb27bf423d5" y="246.384669"/>
      </g>
     </g>
     <g id="text_10">
      <!-- 0.15 -->
      <defs>
       <path d="M 10.796875 72.90625 
L 49.515625 72.90625 
L 49.515625 64.59375 
L 19.828125 64.59375 
L 19.828125 46.734375 
Q 21.96875 47.46875 24.109375 47.828125 
Q 26.265625 48.1875 28.421875 48.1875 
Q 40.625 48.1875 47.75 41.5 
Q 54.890625 34.8125 54.890625 23.390625 
Q 54.890625 11.625 47.5625 5.09375 
Q 40.234375 -1.421875 26.90625 -1.421875 
Q 22.3125 -1.421875 17.546875 -0.640625 
Q 12.796875 0.140625 7.71875 1.703125 
L 7.71875 11.625 
Q 12.109375 9.234375 16.796875 8.0625 
Q 21.484375 6.890625 26.703125 6.890625 
Q 35.15625 6.890625 40.078125 11.328125 
Q 45.015625 15.765625 45.015625 23.390625 
Q 45.015625 31 40.078125 35.4375 
Q 35.15625 39.890625 26.703125 39.890625 
Q 22.75 39.890625 18.8125 39.015625 
Q 14.890625 38.140625 10.796875 36.28125 
z
" id="DejaVuSans-53"/>
      </defs>
      <g transform="translate(28.334375 250.183888)scale(0.1 -0.1)">
       <use xlink:href="#DejaVuSans-48"/>
       <use x="63.623047" xlink:href="#DejaVuSans-46"/>
       <use x="95.410156" xlink:href="#DejaVuSans-49"/>
       <use x="159.033203" xlink:href="#DejaVuSans-53"/>
      </g>
     </g>
    </g>
    <g id="ytick_3">
     <g id="line2d_12">
      <path clip-path="url(#p8a379e456e)" d="M 57.6 215.429981 
L 414.72 215.429981 
" style="fill:none;stroke:#b0b0b0;stroke-dasharray:5.12,1.28,0.8,1.28;stroke-dashoffset:0;stroke-width:0.8;"/>
     </g>
     <g id="line2d_13">
      <g>
       <use style="stroke:#000000;stroke-width:0.8;" x="57.6" xlink:href="#mb27bf423d5" y="215.429981"/>
      </g>
     </g>
     <g id="text_11">
      <!-- 0.20 -->
      <g transform="translate(28.334375 219.2292)scale(0.1 -0.1)">
       <use xlink:href="#DejaVuSans-48"/>
       <use x="63.623047" xlink:href="#DejaVuSans-46"/>
       <use x="95.410156" xlink:href="#DejaVuSans-50"/>
       <use x="159.033203" xlink:href="#DejaVuSans-48"/>
      </g>
     </g>
    </g>
    <g id="ytick_4">
     <g id="line2d_14">
      <path clip-path="url(#p8a379e456e)" d="M 57.6 184.475292 
L 414.72 184.475292 
" style="fill:none;stroke:#b0b0b0;stroke-dasharray:5.12,1.28,0.8,1.28;stroke-dashoffset:0;stroke-width:0.8;"/>
     </g>
     <g id="line2d_15">
      <g>
       <use style="stroke:#000000;stroke-width:0.8;" x="57.6" xlink:href="#mb27bf423d5" y="184.475292"/>
      </g>
     </g>
     <g id="text_12">
      <!-- 0.25 -->
      <g transform="translate(28.334375 188.274511)scale(0.1 -0.1)">
       <use xlink:href="#DejaVuSans-48"/>
       <use x="63.623047" xlink:href="#DejaVuSans-46"/>
       <use x="95.410156" xlink:href="#DejaVuSans-50"/>
       <use x="159.033203" xlink:href="#DejaVuSans-53"/>
      </g>
     </g>
    </g>
    <g id="ytick_5">
     <g id="line2d_16">
      <path clip-path="url(#p8a379e456e)" d="M 57.6 153.520604 
L 414.72 153.520604 
" style="fill:none;stroke:#b0b0b0;stroke-dasharray:5.12,1.28,0.8,1.28;stroke-dashoffset:0;stroke-width:0.8;"/>
     </g>
     <g id="line2d_17">
      <g>
       <use style="stroke:#000000;stroke-width:0.8;" x="57.6" xlink:href="#mb27bf423d5" y="153.520604"/>
      </g>
     </g>
     <g id="text_13">
      <!-- 0.30 -->
      <g transform="translate(28.334375 157.319822)scale(0.1 -0.1)">
       <use xlink:href="#DejaVuSans-48"/>
       <use x="63.623047" xlink:href="#DejaVuSans-46"/>
       <use x="95.410156" xlink:href="#DejaVuSans-51"/>
       <use x="159.033203" xlink:href="#DejaVuSans-48"/>
      </g>
     </g>
    </g>
    <g id="ytick_6">
     <g id="line2d_18">
      <path clip-path="url(#p8a379e456e)" d="M 57.6 122.565915 
L 414.72 122.565915 
" style="fill:none;stroke:#b0b0b0;stroke-dasharray:5.12,1.28,0.8,1.28;stroke-dashoffset:0;stroke-width:0.8;"/>
     </g>
     <g id="line2d_19">
      <g>
       <use style="stroke:#000000;stroke-width:0.8;" x="57.6" xlink:href="#mb27bf423d5" y="122.565915"/>
      </g>
     </g>
     <g id="text_14">
      <!-- 0.35 -->
      <g transform="translate(28.334375 126.365134)scale(0.1 -0.1)">
       <use xlink:href="#DejaVuSans-48"/>
       <use x="63.623047" xlink:href="#DejaVuSans-46"/>
       <use x="95.410156" xlink:href="#DejaVuSans-51"/>
       <use x="159.033203" xlink:href="#DejaVuSans-53"/>
      </g>
     </g>
    </g>
    <g id="ytick_7">
     <g id="line2d_20">
      <path clip-path="url(#p8a379e456e)" d="M 57.6 91.611227 
L 414.72 91.611227 
" style="fill:none;stroke:#b0b0b0;stroke-dasharray:5.12,1.28,0.8,1.28;stroke-dashoffset:0;stroke-width:0.8;"/>
     </g>
     <g id="line2d_21">
      <g>
       <use style="stroke:#000000;stroke-width:0.8;" x="57.6" xlink:href="#mb27bf423d5" y="91.611227"/>
      </g>
     </g>
     <g id="text_15">
      <!-- 0.40 -->
      <defs>
       <path d="M 37.796875 64.3125 
L 12.890625 25.390625 
L 37.796875 25.390625 
z
M 35.203125 72.90625 
L 47.609375 72.90625 
L 47.609375 25.390625 
L 58.015625 25.390625 
L 58.015625 17.1875 
L 47.609375 17.1875 
L 47.609375 0 
L 37.796875 0 
L 37.796875 17.1875 
L 4.890625 17.1875 
L 4.890625 26.703125 
z
" id="DejaVuSans-52"/>
      </defs>
      <g transform="translate(28.334375 95.410445)scale(0.1 -0.1)">
       <use xlink:href="#DejaVuSans-48"/>
       <use x="63.623047" xlink:href="#DejaVuSans-46"/>
       <use x="95.410156" xlink:href="#DejaVuSans-52"/>
       <use x="159.033203" xlink:href="#DejaVuSans-48"/>
      </g>
     </g>
    </g>
    <g id="ytick_8">
     <g id="line2d_22">
      <path clip-path="url(#p8a379e456e)" d="M 57.6 60.656538 
L 414.72 60.656538 
" style="fill:none;stroke:#b0b0b0;stroke-dasharray:5.12,1.28,0.8,1.28;stroke-dashoffset:0;stroke-width:0.8;"/>
     </g>
     <g id="line2d_23">
      <g>
       <use style="stroke:#000000;stroke-width:0.8;" x="57.6" xlink:href="#mb27bf423d5" y="60.656538"/>
      </g>
     </g>
     <g id="text_16">
      <!-- 0.45 -->
      <g transform="translate(28.334375 64.455757)scale(0.1 -0.1)">
       <use xlink:href="#DejaVuSans-48"/>
       <use x="63.623047" xlink:href="#DejaVuSans-46"/>
       <use x="95.410156" xlink:href="#DejaVuSans-52"/>
       <use x="159.033203" xlink:href="#DejaVuSans-53"/>
      </g>
     </g>
    </g>
    <g id="text_17">
     <!-- duration (s) -->
     <defs>
      <path d="M 9.421875 54.6875 
L 18.40625 54.6875 
L 18.40625 0 
L 9.421875 0 
z
M 9.421875 75.984375 
L 18.40625 75.984375 
L 18.40625 64.59375 
L 9.421875 64.59375 
z
" id="DejaVuSans-105"/>
      <path d="M 31 75.875 
Q 24.46875 64.65625 21.28125 53.65625 
Q 18.109375 42.671875 18.109375 31.390625 
Q 18.109375 20.125 21.3125 9.0625 
Q 24.515625 -2 31 -13.1875 
L 23.1875 -13.1875 
Q 15.875 -1.703125 12.234375 9.375 
Q 8.59375 20.453125 8.59375 31.390625 
Q 8.59375 42.28125 12.203125 53.3125 
Q 15.828125 64.359375 23.1875 75.875 
z
" id="DejaVuSans-40"/>
      <path d="M 8.015625 75.875 
L 15.828125 75.875 
Q 23.140625 64.359375 26.78125 53.3125 
Q 30.421875 42.28125 30.421875 31.390625 
Q 30.421875 20.453125 26.78125 9.375 
Q 23.140625 -1.703125 15.828125 -13.1875 
L 8.015625 -13.1875 
Q 14.5 -2 17.703125 9.0625 
Q 20.90625 20.125 20.90625 31.390625 
Q 20.90625 42.671875 17.703125 53.65625 
Q 14.5 64.65625 8.015625 75.875 
z
" id="DejaVuSans-41"/>
     </defs>
     <g transform="translate(22.254687 203.663156)rotate(-90)scale(0.1 -0.1)">
      <use xlink:href="#DejaVuSans-100"/>
      <use x="63.476562" xlink:href="#DejaVuSans-117"/>
      <use x="126.855469" xlink:href="#DejaVuSans-114"/>
      <use x="167.96875" xlink:href="#DejaVuSans-97"/>
      <use x="229.248047" xlink:href="#DejaVuSans-116"/>
      <use x="268.457031" xlink:href="#DejaVuSans-105"/>
      <use x="296.240234" xlink:href="#DejaVuSans-111"/>
      <use x="357.421875" xlink:href="#DejaVuSans-110"/>
      <use x="420.800781" xlink:href="#DejaVuSans-32"/>
      <use x="452.587891" xlink:href="#DejaVuSans-40"/>
      <use x="491.601562" xlink:href="#DejaVuSans-115"/>
      <use x="543.701172" xlink:href="#DejaVuSans-41"/>
     </g>
    </g>
   </g>
   <g id="line2d_24">
    <path clip-path="url(#p8a379e456e)" d="M 70.354286 289.475152 
L 95.862857 289.475152 
L 95.862857 289.335888 
L 70.354286 289.335888 
L 70.354286 289.475152 
" style="fill:none;stroke:#696969;stroke-linecap:square;"/>
   </g>
   <g id="line2d_25">
    <path clip-path="url(#p8a379e456e)" d="M 83.108571 289.475152 
L 83.108571 289.549765 
" style="fill:none;stroke:#696969;stroke-linecap:square;"/>
   </g>
   <g id="line2d_26">
    <path clip-path="url(#p8a379e456e)" d="M 83.108571 289.335888 
L 83.108571 289.304006 
" style="fill:none;stroke:#696969;stroke-linecap:square;"/>
   </g>
   <g id="line2d_27">
    <path clip-path="url(#p8a379e456e)" d="M 76.731429 289.549765 
L 89.485714 289.549765 
" style="fill:none;stroke:#4169e1;stroke-linecap:square;"/>
   </g>
   <g id="line2d_28">
    <path clip-path="url(#p8a379e456e)" d="M 76.731429 289.304006 
L 89.485714 289.304006 
" style="fill:none;stroke:#4169e1;stroke-linecap:square;"/>
   </g>
   <g id="line2d_29">
    <defs>
     <path d="M -3 0 
L 3 0 
M 0 3 
L 0 -3 
" id="mcadc58fe3c" style="stroke:#0000ff;"/>
    </defs>
    <g clip-path="url(#p8a379e456e)">
     <use style="fill:#0000ff;stroke:#0000ff;" x="83.108571" xlink:href="#mcadc58fe3c" y="289.73486"/>
     <use style="fill:#0000ff;stroke:#0000ff;" x="83.108571" xlink:href="#mcadc58fe3c" y="289.048356"/>
    </g>
   </g>
   <g id="line2d_30">
    <path clip-path="url(#p8a379e456e)" d="M 121.371429 289.26371 
L 146.88 289.26371 
L 146.88 289.102158 
L 121.371429 289.102158 
L 121.371429 289.26371 
" style="fill:none;stroke:#696969;stroke-linecap:square;"/>
   </g>
   <g id="line2d_31">
    <path clip-path="url(#p8a379e456e)" d="M 134.125714 289.26371 
L 134.125714 289.354781 
" style="fill:none;stroke:#696969;stroke-linecap:square;"/>
   </g>
   <g id="line2d_32">
    <path clip-path="url(#p8a379e456e)" d="M 134.125714 289.102158 
L 134.125714 289.01854 
" style="fill:none;stroke:#696969;stroke-linecap:square;"/>
   </g>
   <g id="line2d_33">
    <path clip-path="url(#p8a379e456e)" d="M 127.748571 289.354781 
L 140.502857 289.354781 
" style="fill:none;stroke:#4169e1;stroke-linecap:square;"/>
   </g>
   <g id="line2d_34">
    <path clip-path="url(#p8a379e456e)" d="M 127.748571 289.01854 
L 140.502857 289.01854 
" style="fill:none;stroke:#4169e1;stroke-linecap:square;"/>
   </g>
   <g id="line2d_35">
    <g clip-path="url(#p8a379e456e)">
     <use style="fill:#0000ff;stroke:#0000ff;" x="134.125714" xlink:href="#mcadc58fe3c" y="288.741784"/>
    </g>
   </g>
   <g id="line2d_36">
    <path clip-path="url(#p8a379e456e)" d="M 172.388571 288.905845 
L 197.897143 288.905845 
L 197.897143 288.823261 
L 172.388571 288.823261 
L 172.388571 288.905845 
" style="fill:none;stroke:#696969;stroke-linecap:square;"/>
   </g>
   <g id="line2d_37">
    <path clip-path="url(#p8a379e456e)" d="M 185.142857 288.905845 
L 185.142857 288.926879 
" style="fill:none;stroke:#696969;stroke-linecap:square;"/>
   </g>
   <g id="line2d_38">
    <path clip-path="url(#p8a379e456e)" d="M 185.142857 288.823261 
L 185.142857 288.812486 
" style="fill:none;stroke:#696969;stroke-linecap:square;"/>
   </g>
   <g id="line2d_39">
    <path clip-path="url(#p8a379e456e)" d="M 178.765714 288.926879 
L 191.52 288.926879 
" style="fill:none;stroke:#4169e1;stroke-linecap:square;"/>
   </g>
   <g id="line2d_40">
    <path clip-path="url(#p8a379e456e)" d="M 178.765714 288.812486 
L 191.52 288.812486 
" style="fill:none;stroke:#4169e1;stroke-linecap:square;"/>
   </g>
   <g id="line2d_41">
    <g clip-path="url(#p8a379e456e)">
     <use style="fill:#0000ff;stroke:#0000ff;" x="185.142857" xlink:href="#mcadc58fe3c" y="289.073597"/>
     <use style="fill:#0000ff;stroke:#0000ff;" x="185.142857" xlink:href="#mcadc58fe3c" y="288.44333"/>
    </g>
   </g>
   <g id="line2d_42">
    <path clip-path="url(#p8a379e456e)" d="M 223.405714 58.425999 
L 248.914286 58.425999 
L 248.914286 58.110496 
L 223.405714 58.110496 
L 223.405714 58.425999 
" style="fill:none;stroke:#696969;stroke-linecap:square;"/>
   </g>
   <g id="line2d_43">
    <path clip-path="url(#p8a379e456e)" d="M 236.16 58.425999 
L 236.16 58.564525 
" style="fill:none;stroke:#696969;stroke-linecap:square;"/>
   </g>
   <g id="line2d_44">
    <path clip-path="url(#p8a379e456e)" d="M 236.16 58.110496 
L 236.16 57.803776 
" style="fill:none;stroke:#696969;stroke-linecap:square;"/>
   </g>
   <g id="line2d_45">
    <path clip-path="url(#p8a379e456e)" d="M 229.782857 58.564525 
L 242.537143 58.564525 
" style="fill:none;stroke:#4169e1;stroke-linecap:square;"/>
   </g>
   <g id="line2d_46">
    <path clip-path="url(#p8a379e456e)" d="M 229.782857 57.803776 
L 242.537143 57.803776 
" style="fill:none;stroke:#4169e1;stroke-linecap:square;"/>
   </g>
   <g id="line2d_47"/>
   <g id="line2d_48">
    <path clip-path="url(#p8a379e456e)" d="M 274.422857 59.620554 
L 299.931429 59.620554 
L 299.931429 59.520847 
L 274.422857 59.520847 
L 274.422857 59.620554 
" style="fill:none;stroke:#696969;stroke-linecap:square;"/>
   </g>
   <g id="line2d_49">
    <path clip-path="url(#p8a379e456e)" d="M 287.177143 59.620554 
L 287.177143 59.704909 
" style="fill:none;stroke:#696969;stroke-linecap:square;"/>
   </g>
   <g id="line2d_50">
    <path clip-path="url(#p8a379e456e)" d="M 287.177143 59.520847 
L 287.177143 59.518633 
" style="fill:none;stroke:#696969;stroke-linecap:square;"/>
   </g>
   <g id="line2d_51">
    <path clip-path="url(#p8a379e456e)" d="M 280.8 59.704909 
L 293.554286 59.704909 
" style="fill:none;stroke:#4169e1;stroke-linecap:square;"/>
   </g>
   <g id="line2d_52">
    <path clip-path="url(#p8a379e456e)" d="M 280.8 59.518633 
L 293.554286 59.518633 
" style="fill:none;stroke:#4169e1;stroke-linecap:square;"/>
   </g>
   <g id="line2d_53">
    <g clip-path="url(#p8a379e456e)">
     <use style="fill:#0000ff;stroke:#0000ff;" x="287.177143" xlink:href="#mcadc58fe3c" y="58.613529"/>
    </g>
   </g>
   <g id="line2d_54">
    <path clip-path="url(#p8a379e456e)" d="M 325.44 54.368085 
L 350.948571 54.368085 
L 350.948571 54.011844 
L 325.44 54.011844 
L 325.44 54.368085 
" style="fill:none;stroke:#696969;stroke-linecap:square;"/>
   </g>
   <g id="line2d_55">
    <path clip-path="url(#p8a379e456e)" d="M 338.194286 54.368085 
L 338.194286 54.459377 
" style="fill:none;stroke:#696969;stroke-linecap:square;"/>
   </g>
   <g id="line2d_56">
    <path clip-path="url(#p8a379e456e)" d="M 338.194286 54.011844 
L 338.194286 53.568 
" style="fill:none;stroke:#696969;stroke-linecap:square;"/>
   </g>
   <g id="line2d_57">
    <path clip-path="url(#p8a379e456e)" d="M 331.817143 54.459377 
L 344.571429 54.459377 
" style="fill:none;stroke:#4169e1;stroke-linecap:square;"/>
   </g>
   <g id="line2d_58">
    <path clip-path="url(#p8a379e456e)" d="M 331.817143 53.568 
L 344.571429 53.568 
" style="fill:none;stroke:#4169e1;stroke-linecap:square;"/>
   </g>
   <g id="line2d_59"/>
   <g id="line2d_60">
    <path clip-path="url(#p8a379e456e)" d="M 376.457143 285.588974 
L 401.965714 285.588974 
L 401.965714 284.622319 
L 376.457143 284.622319 
L 376.457143 285.588974 
" style="fill:none;stroke:#696969;stroke-linecap:square;"/>
   </g>
   <g id="line2d_61">
    <path clip-path="url(#p8a379e456e)" d="M 389.211429 285.588974 
L 389.211429 287.00951 
" style="fill:none;stroke:#696969;stroke-linecap:square;"/>
   </g>
   <g id="line2d_62">
    <path clip-path="url(#p8a379e456e)" d="M 389.211429 284.622319 
L 389.211429 284.045337 
" style="fill:none;stroke:#696969;stroke-linecap:square;"/>
   </g>
   <g id="line2d_63">
    <path clip-path="url(#p8a379e456e)" d="M 382.834286 287.00951 
L 395.588571 287.00951 
" style="fill:none;stroke:#4169e1;stroke-linecap:square;"/>
   </g>
   <g id="line2d_64">
    <path clip-path="url(#p8a379e456e)" d="M 382.834286 284.045337 
L 395.588571 284.045337 
" style="fill:none;stroke:#4169e1;stroke-linecap:square;"/>
   </g>
   <g id="line2d_65"/>
   <g id="line2d_66">
    <path clip-path="url(#p8a379e456e)" d="M 70.354286 295.388958 
L 95.862857 295.388958 
L 95.862857 295.043345 
L 70.354286 295.043345 
L 70.354286 295.388958 
" style="fill:none;stroke:#696969;stroke-linecap:square;"/>
   </g>
   <g id="line2d_67">
    <path clip-path="url(#p8a379e456e)" d="M 83.108571 295.388958 
L 83.108571 295.488 
" style="fill:none;stroke:#696969;stroke-linecap:square;"/>
   </g>
   <g id="line2d_68">
    <path clip-path="url(#p8a379e456e)" d="M 83.108571 295.043345 
L 83.108571 295.004008 
" style="fill:none;stroke:#696969;stroke-linecap:square;"/>
   </g>
   <g id="line2d_69">
    <path clip-path="url(#p8a379e456e)" d="M 76.731429 295.488 
L 89.485714 295.488 
" style="fill:none;stroke:#b22222;stroke-linecap:square;"/>
   </g>
   <g id="line2d_70">
    <path clip-path="url(#p8a379e456e)" d="M 76.731429 295.004008 
L 89.485714 295.004008 
" style="fill:none;stroke:#b22222;stroke-linecap:square;"/>
   </g>
   <g id="line2d_71"/>
   <g id="line2d_72">
    <path clip-path="url(#p8a379e456e)" d="M 121.371429 295.392722 
L 146.88 295.392722 
L 146.88 295.301355 
L 121.371429 295.301355 
L 121.371429 295.392722 
" style="fill:none;stroke:#696969;stroke-linecap:square;"/>
   </g>
   <g id="line2d_73">
    <path clip-path="url(#p8a379e456e)" d="M 134.125714 295.392722 
L 134.125714 295.480029 
" style="fill:none;stroke:#696969;stroke-linecap:square;"/>
   </g>
   <g id="line2d_74">
    <path clip-path="url(#p8a379e456e)" d="M 134.125714 295.301355 
L 134.125714 295.275008 
" style="fill:none;stroke:#696969;stroke-linecap:square;"/>
   </g>
   <g id="line2d_75">
    <path clip-path="url(#p8a379e456e)" d="M 127.748571 295.480029 
L 140.502857 295.480029 
" style="fill:none;stroke:#b22222;stroke-linecap:square;"/>
   </g>
   <g id="line2d_76">
    <path clip-path="url(#p8a379e456e)" d="M 127.748571 295.275008 
L 140.502857 295.275008 
" style="fill:none;stroke:#b22222;stroke-linecap:square;"/>
   </g>
   <g id="line2d_77">
    <defs>
     <path d="M -3 0 
L 3 0 
M 0 3 
L 0 -3 
" id="m765fb229dc" style="stroke:#ff0000;"/>
    </defs>
    <g clip-path="url(#p8a379e456e)">
     <use style="fill:#ff0000;stroke:#ff0000;" x="134.125714" xlink:href="#m765fb229dc" y="294.391011"/>
    </g>
   </g>
   <g id="line2d_78">
    <path clip-path="url(#p8a379e456e)" d="M 172.388571 294.557286 
L 197.897143 294.557286 
L 197.897143 294.328649 
L 172.388571 294.328649 
L 172.388571 294.557286 
" style="fill:none;stroke:#696969;stroke-linecap:square;"/>
   </g>
   <g id="line2d_79">
    <path clip-path="url(#p8a379e456e)" d="M 185.142857 294.557286 
L 185.142857 294.587324 
" style="fill:none;stroke:#696969;stroke-linecap:square;"/>
   </g>
   <g id="line2d_80">
    <path clip-path="url(#p8a379e456e)" d="M 185.142857 294.328649 
L 185.142857 294.317505 
" style="fill:none;stroke:#696969;stroke-linecap:square;"/>
   </g>
   <g id="line2d_81">
    <path clip-path="url(#p8a379e456e)" d="M 178.765714 294.587324 
L 191.52 294.587324 
" style="fill:none;stroke:#b22222;stroke-linecap:square;"/>
   </g>
   <g id="line2d_82">
    <path clip-path="url(#p8a379e456e)" d="M 178.765714 294.317505 
L 191.52 294.317505 
" style="fill:none;stroke:#b22222;stroke-linecap:square;"/>
   </g>
   <g id="line2d_83">
    <g clip-path="url(#p8a379e456e)">
     <use style="fill:#ff0000;stroke:#ff0000;" x="185.142857" xlink:href="#m765fb229dc" y="294.906147"/>
     <use style="fill:#ff0000;stroke:#ff0000;" x="185.142857" xlink:href="#m765fb229dc" y="293.966946"/>
    </g>
   </g>
   <g id="line2d_84">
    <path clip-path="url(#p8a379e456e)" d="M 223.405714 85.66784 
L 248.914286 85.66784 
L 248.914286 83.469804 
L 223.405714 83.469804 
L 223.405714 85.66784 
" style="fill:none;stroke:#696969;stroke-linecap:square;"/>
   </g>
   <g id="line2d_85">
    <path clip-path="url(#p8a379e456e)" d="M 236.16 85.66784 
L 236.16 85.8474 
" style="fill:none;stroke:#696969;stroke-linecap:square;"/>
   </g>
   <g id="line2d_86">
    <path clip-path="url(#p8a379e456e)" d="M 236.16 83.469804 
L 236.16 83.22242 
" style="fill:none;stroke:#696969;stroke-linecap:square;"/>
   </g>
   <g id="line2d_87">
    <path clip-path="url(#p8a379e456e)" d="M 229.782857 85.8474 
L 242.537143 85.8474 
" style="fill:none;stroke:#b22222;stroke-linecap:square;"/>
   </g>
   <g id="line2d_88">
    <path clip-path="url(#p8a379e456e)" d="M 229.782857 83.22242 
L 242.537143 83.22242 
" style="fill:none;stroke:#b22222;stroke-linecap:square;"/>
   </g>
   <g id="line2d_89"/>
   <g id="line2d_90">
    <path clip-path="url(#p8a379e456e)" d="M 274.422857 83.69239 
L 299.931429 83.69239 
L 299.931429 82.026168 
L 274.422857 82.026168 
L 274.422857 83.69239 
" style="fill:none;stroke:#696969;stroke-linecap:square;"/>
   </g>
   <g id="line2d_91">
    <path clip-path="url(#p8a379e456e)" d="M 287.177143 83.69239 
L 287.177143 83.869366 
" style="fill:none;stroke:#696969;stroke-linecap:square;"/>
   </g>
   <g id="line2d_92">
    <path clip-path="url(#p8a379e456e)" d="M 287.177143 82.026168 
L 287.177143 81.658709 
" style="fill:none;stroke:#696969;stroke-linecap:square;"/>
   </g>
   <g id="line2d_93">
    <path clip-path="url(#p8a379e456e)" d="M 280.8 83.869366 
L 293.554286 83.869366 
" style="fill:none;stroke:#b22222;stroke-linecap:square;"/>
   </g>
   <g id="line2d_94">
    <path clip-path="url(#p8a379e456e)" d="M 280.8 81.658709 
L 293.554286 81.658709 
" style="fill:none;stroke:#b22222;stroke-linecap:square;"/>
   </g>
   <g id="line2d_95"/>
   <g id="line2d_96">
    <path clip-path="url(#p8a379e456e)" d="M 325.44 85.23241 
L 350.948571 85.23241 
L 350.948571 79.497721 
L 325.44 79.497721 
L 325.44 85.23241 
" style="fill:none;stroke:#696969;stroke-linecap:square;"/>
   </g>
   <g id="line2d_97">
    <path clip-path="url(#p8a379e456e)" d="M 338.194286 85.23241 
L 338.194286 85.34481 
" style="fill:none;stroke:#696969;stroke-linecap:square;"/>
   </g>
   <g id="line2d_98">
    <path clip-path="url(#p8a379e456e)" d="M 338.194286 79.497721 
L 338.194286 79.069007 
" style="fill:none;stroke:#696969;stroke-linecap:square;"/>
   </g>
   <g id="line2d_99">
    <path clip-path="url(#p8a379e456e)" d="M 331.817143 85.34481 
L 344.571429 85.34481 
" style="fill:none;stroke:#b22222;stroke-linecap:square;"/>
   </g>
   <g id="line2d_100">
    <path clip-path="url(#p8a379e456e)" d="M 331.817143 79.069007 
L 344.571429 79.069007 
" style="fill:none;stroke:#b22222;stroke-linecap:square;"/>
   </g>
   <g id="line2d_101"/>
   <g id="line2d_102">
    <path clip-path="url(#p8a379e456e)" d="M 376.457143 288.613074 
L 401.965714 288.613074 
L 401.965714 288.073805 
L 376.457143 288.073805 
L 376.457143 288.613074 
" style="fill:none;stroke:#696969;stroke-linecap:square;"/>
   </g>
   <g id="line2d_103">
    <path clip-path="url(#p8a379e456e)" d="M 389.211429 288.613074 
L 389.211429 289.055146 
" style="fill:none;stroke:#696969;stroke-linecap:square;"/>
   </g>
   <g id="line2d_104">
    <path clip-path="url(#p8a379e456e)" d="M 389.211429 288.073805 
L 389.211429 287.873138 
" style="fill:none;stroke:#696969;stroke-linecap:square;"/>
   </g>
   <g id="line2d_105">
    <path clip-path="url(#p8a379e456e)" d="M 382.834286 289.055146 
L 395.588571 289.055146 
" style="fill:none;stroke:#b22222;stroke-linecap:square;"/>
   </g>
   <g id="line2d_106">
    <path clip-path="url(#p8a379e456e)" d="M 382.834286 287.873138 
L 395.588571 287.873138 
" style="fill:none;stroke:#b22222;stroke-linecap:square;"/>
   </g>
   <g id="line2d_107"/>
   <g id="line2d_108">
    <path clip-path="url(#p8a379e456e)" d="M 70.354286 289.368951 
L 95.862857 289.368951 
" style="fill:none;stroke:#0000ff;stroke-linecap:square;"/>
   </g>
   <g id="line2d_109">
    <path clip-path="url(#p8a379e456e)" d="M 121.371429 289.209835 
L 146.88 289.209835 
" style="fill:none;stroke:#0000ff;stroke-linecap:square;"/>
   </g>
   <g id="line2d_110">
    <path clip-path="url(#p8a379e456e)" d="M 172.388571 288.873741 
L 197.897143 288.873741 
" style="fill:none;stroke:#0000ff;stroke-linecap:square;"/>
   </g>
   <g id="line2d_111">
    <path clip-path="url(#p8a379e456e)" d="M 223.405714 58.256919 
L 248.914286 58.256919 
" style="fill:none;stroke:#0000ff;stroke-linecap:square;"/>
   </g>
   <g id="line2d_112">
    <path clip-path="url(#p8a379e456e)" d="M 274.422857 59.591107 
L 299.931429 59.591107 
" style="fill:none;stroke:#0000ff;stroke-linecap:square;"/>
   </g>
   <g id="line2d_113">
    <path clip-path="url(#p8a379e456e)" d="M 325.44 54.18085 
L 350.948571 54.18085 
" style="fill:none;stroke:#0000ff;stroke-linecap:square;"/>
   </g>
   <g id="line2d_114">
    <path clip-path="url(#p8a379e456e)" d="M 376.457143 284.808742 
L 401.965714 284.808742 
" style="fill:none;stroke:#0000ff;stroke-linecap:square;"/>
   </g>
   <g id="line2d_115">
    <path clip-path="url(#p8a379e456e)" d="M 70.354286 295.205782 
L 95.862857 295.205782 
" style="fill:none;stroke:#ff0000;stroke-linecap:square;"/>
   </g>
   <g id="line2d_116">
    <path clip-path="url(#p8a379e456e)" d="M 121.371429 295.335673 
L 146.88 295.335673 
" style="fill:none;stroke:#ff0000;stroke-linecap:square;"/>
   </g>
   <g id="line2d_117">
    <path clip-path="url(#p8a379e456e)" d="M 172.388571 294.443706 
L 197.897143 294.443706 
" style="fill:none;stroke:#ff0000;stroke-linecap:square;"/>
   </g>
   <g id="line2d_118">
    <path clip-path="url(#p8a379e456e)" d="M 223.405714 84.905838 
L 248.914286 84.905838 
" style="fill:none;stroke:#ff0000;stroke-linecap:square;"/>
   </g>
   <g id="line2d_119">
    <path clip-path="url(#p8a379e456e)" d="M 274.422857 82.449273 
L 299.931429 82.449273 
" style="fill:none;stroke:#ff0000;stroke-linecap:square;"/>
   </g>
   <g id="line2d_120">
    <path clip-path="url(#p8a379e456e)" d="M 325.44 79.777208 
L 350.948571 79.777208 
" style="fill:none;stroke:#ff0000;stroke-linecap:square;"/>
   </g>
   <g id="line2d_121">
    <path clip-path="url(#p8a379e456e)" d="M 376.457143 288.479345 
L 401.965714 288.479345 
" style="fill:none;stroke:#ff0000;stroke-linecap:square;"/>
   </g>
   <g id="patch_3">
    <path d="M 57.6 307.584 
L 57.6 41.472 
" style="fill:none;stroke:#000000;stroke-linecap:square;stroke-linejoin:miter;stroke-width:0.8;"/>
   </g>
   <g id="patch_4">
    <path d="M 414.72 307.584 
L 414.72 41.472 
" style="fill:none;stroke:#000000;stroke-linecap:square;stroke-linejoin:miter;stroke-width:0.8;"/>
   </g>
   <g id="patch_5">
    <path d="M 57.6 307.584 
L 414.72 307.584 
" style="fill:none;stroke:#000000;stroke-linecap:square;stroke-linejoin:miter;stroke-width:0.8;"/>
   </g>
   <g id="patch_6">
    <path d="M 57.6 41.472 
L 414.72 41.472 
" style="fill:none;stroke:#000000;stroke-linecap:square;stroke-linejoin:miter;stroke-width:0.8;"/>
   </g>
   <g id="text_18">
    <!-- Stanford_Berkeley -->
    <defs>
     <path d="M 53.515625 70.515625 
L 53.515625 60.890625 
Q 47.90625 63.578125 42.921875 64.890625 
Q 37.9375 66.21875 33.296875 66.21875 
Q 25.25 66.21875 20.875 63.09375 
Q 16.5 59.96875 16.5 54.203125 
Q 16.5 49.359375 19.40625 46.890625 
Q 22.3125 44.4375 30.421875 42.921875 
L 36.375 41.703125 
Q 47.40625 39.59375 52.65625 34.296875 
Q 57.90625 29 57.90625 20.125 
Q 57.90625 9.515625 50.796875 4.046875 
Q 43.703125 -1.421875 29.984375 -1.421875 
Q 24.8125 -1.421875 18.96875 -0.25 
Q 13.140625 0.921875 6.890625 3.21875 
L 6.890625 13.375 
Q 12.890625 10.015625 18.65625 8.296875 
Q 24.421875 6.59375 29.984375 6.59375 
Q 38.421875 6.59375 43.015625 9.90625 
Q 47.609375 13.234375 47.609375 19.390625 
Q 47.609375 24.75 44.3125 27.78125 
Q 41.015625 30.8125 33.5 32.328125 
L 27.484375 33.5 
Q 16.453125 35.6875 11.515625 40.375 
Q 6.59375 45.0625 6.59375 53.421875 
Q 6.59375 63.09375 13.40625 68.65625 
Q 20.21875 74.21875 32.171875 74.21875 
Q 37.3125 74.21875 42.625 73.28125 
Q 47.953125 72.359375 53.515625 70.515625 
z
" id="DejaVuSans-83"/>
     <path d="M 37.109375 75.984375 
L 37.109375 68.5 
L 28.515625 68.5 
Q 23.6875 68.5 21.796875 66.546875 
Q 19.921875 64.59375 19.921875 59.515625 
L 19.921875 54.6875 
L 34.71875 54.6875 
L 34.71875 47.703125 
L 19.921875 47.703125 
L 19.921875 0 
L 10.890625 0 
L 10.890625 47.703125 
L 2.296875 47.703125 
L 2.296875 54.6875 
L 10.890625 54.6875 
L 10.890625 58.5 
Q 10.890625 67.625 15.140625 71.796875 
Q 19.390625 75.984375 28.609375 75.984375 
z
" id="DejaVuSans-102"/>
     <path d="M 19.671875 34.8125 
L 19.671875 8.109375 
L 35.5 8.109375 
Q 43.453125 8.109375 47.28125 11.40625 
Q 51.125 14.703125 51.125 21.484375 
Q 51.125 28.328125 47.28125 31.5625 
Q 43.453125 34.8125 35.5 34.8125 
z
M 19.671875 64.796875 
L 19.671875 42.828125 
L 34.28125 42.828125 
Q 41.5 42.828125 45.03125 45.53125 
Q 48.578125 48.25 48.578125 53.8125 
Q 48.578125 59.328125 45.03125 62.0625 
Q 41.5 64.796875 34.28125 64.796875 
z
M 9.8125 72.90625 
L 35.015625 72.90625 
Q 46.296875 72.90625 52.390625 68.21875 
Q 58.5 63.53125 58.5 54.890625 
Q 58.5 48.1875 55.375 44.234375 
Q 52.25 40.28125 46.1875 39.3125 
Q 53.46875 37.75 57.5 32.78125 
Q 61.53125 27.828125 61.53125 20.40625 
Q 61.53125 10.640625 54.890625 5.3125 
Q 48.25 0 35.984375 0 
L 9.8125 0 
z
" id="DejaVuSans-66"/>
     <path d="M 9.078125 75.984375 
L 18.109375 75.984375 
L 18.109375 31.109375 
L 44.921875 54.6875 
L 56.390625 54.6875 
L 27.390625 29.109375 
L 57.625 0 
L 45.90625 0 
L 18.109375 26.703125 
L 18.109375 0 
L 9.078125 0 
z
" id="DejaVuSans-107"/>
     <path d="M 32.171875 -5.078125 
Q 28.375 -14.84375 24.75 -17.8125 
Q 21.140625 -20.796875 15.09375 -20.796875 
L 7.90625 -20.796875 
L 7.90625 -13.28125 
L 13.1875 -13.28125 
Q 16.890625 -13.28125 18.9375 -11.515625 
Q 21 -9.765625 23.484375 -3.21875 
L 25.09375 0.875 
L 2.984375 54.6875 
L 12.5 54.6875 
L 29.59375 11.921875 
L 46.6875 54.6875 
L 56.203125 54.6875 
z
" id="DejaVuSans-121"/>
    </defs>
    <g transform="translate(181.431562 35.472)scale(0.12 -0.12)">
     <use xlink:href="#DejaVuSans-83"/>
     <use x="63.476562" xlink:href="#DejaVuSans-116"/>
     <use x="102.685547" xlink:href="#DejaVuSans-97"/>
     <use x="163.964844" xlink:href="#DejaVuSans-110"/>
     <use x="227.34375" xlink:href="#DejaVuSans-102"/>
     <use x="262.548828" xlink:href="#DejaVuSans-111"/>
     <use x="323.730469" xlink:href="#DejaVuSans-114"/>
     <use x="363.09375" xlink:href="#DejaVuSans-100"/>
     <use x="426.570312" xlink:href="#DejaVuSans-95"/>
     <use x="476.570312" xlink:href="#DejaVuSans-66"/>
     <use x="545.173828" xlink:href="#DejaVuSans-101"/>
     <use x="606.697266" xlink:href="#DejaVuSans-114"/>
     <use x="647.810547" xlink:href="#DejaVuSans-107"/>
     <use x="702.095703" xlink:href="#DejaVuSans-101"/>
     <use x="763.619141" xlink:href="#DejaVuSans-108"/>
     <use x="791.402344" xlink:href="#DejaVuSans-101"/>
     <use x="852.925781" xlink:href="#DejaVuSans-121"/>
    </g>
   </g>
   <g id="legend_1">
    <g id="patch_7">
     <path d="M 64.6 93.7845 
L 183.65 93.7845 
Q 185.65 93.7845 185.65 91.7845 
L 185.65 48.472 
Q 185.65 46.472 183.65 46.472 
L 64.6 46.472 
Q 62.6 46.472 62.6 48.472 
L 62.6 91.7845 
Q 62.6 93.7845 64.6 93.7845 
z
" style="fill:#ffffff;opacity:0.8;stroke:#cccccc;stroke-linejoin:miter;"/>
    </g>
    <g id="line2d_122">
     <path d="M 66.6 54.570438 
L 86.6 54.570438 
" style="fill:none;stroke:#0000ff;stroke-linecap:square;"/>
    </g>
    <g id="line2d_123"/>
    <g id="text_19">
     <!-- transpose -->
     <g transform="translate(94.6 58.070438)scale(0.1 -0.1)">
      <use xlink:href="#DejaVuSans-116"/>
      <use x="39.208984" xlink:href="#DejaVuSans-114"/>
      <use x="80.322266" xlink:href="#DejaVuSans-97"/>
      <use x="141.601562" xlink:href="#DejaVuSans-110"/>
      <use x="204.980469" xlink:href="#DejaVuSans-115"/>
      <use x="257.080078" xlink:href="#DejaVuSans-112"/>
      <use x="320.556641" xlink:href="#DejaVuSans-111"/>
      <use x="381.738281" xlink:href="#DejaVuSans-115"/>
      <use x="433.837891" xlink:href="#DejaVuSans-101"/>
     </g>
    </g>
    <g id="line2d_124">
     <path d="M 66.6 69.248563 
L 86.6 69.248563 
" style="fill:none;stroke:#ff0000;stroke-linecap:square;"/>
    </g>
    <g id="line2d_125"/>
    <g id="text_20">
     <!-- transpose_tr -->
     <g transform="translate(94.6 72.748563)scale(0.1 -0.1)">
      <use xlink:href="#DejaVuSans-116"/>
      <use x="39.208984" xlink:href="#DejaVuSans-114"/>
      <use x="80.322266" xlink:href="#DejaVuSans-97"/>
      <use x="141.601562" xlink:href="#DejaVuSans-110"/>
      <use x="204.980469" xlink:href="#DejaVuSans-115"/>
      <use x="257.080078" xlink:href="#DejaVuSans-112"/>
      <use x="320.556641" xlink:href="#DejaVuSans-111"/>
      <use x="381.738281" xlink:href="#DejaVuSans-115"/>
      <use x="433.837891" xlink:href="#DejaVuSans-101"/>
      <use x="495.361328" xlink:href="#DejaVuSans-95"/>
      <use x="545.361328" xlink:href="#DejaVuSans-116"/>
      <use x="584.570312" xlink:href="#DejaVuSans-114"/>
     </g>
    </g>
    <g id="line2d_126"/>
    <g id="line2d_127">
     <defs>
      <path d="M 0 1.5 
C 0.397805 1.5 0.77937 1.341951 1.06066 1.06066 
C 1.341951 0.77937 1.5 0.397805 1.5 0 
C 1.5 -0.397805 1.341951 -0.77937 1.06066 -1.06066 
C 0.77937 -1.341951 0.397805 -1.5 0 -1.5 
C -0.397805 -1.5 -0.77937 -1.341951 -1.06066 -1.06066 
C -1.341951 -0.77937 -1.5 -0.397805 -1.5 0 
C -1.5 0.397805 -1.341951 0.77937 -1.06066 1.06066 
C -0.77937 1.341951 -0.397805 1.5 0 1.5 
z
" id="m1c11899ef7" style="stroke:#008000;"/>
     </defs>
     <g>
      <use style="fill:#008000;stroke:#008000;" x="76.6" xlink:href="#m1c11899ef7" y="84.204813"/>
     </g>
    </g>
    <g id="text_21">
     <!-- mean of medians -->
     <g transform="translate(94.6 87.704813)scale(0.1 -0.1)">
      <use xlink:href="#DejaVuSans-109"/>
      <use x="97.412109" xlink:href="#DejaVuSans-101"/>
      <use x="158.935547" xlink:href="#DejaVuSans-97"/>
      <use x="220.214844" xlink:href="#DejaVuSans-110"/>
      <use x="283.59375" xlink:href="#DejaVuSans-32"/>
      <use x="315.380859" xlink:href="#DejaVuSans-111"/>
      <use x="376.5625" xlink:href="#DejaVuSans-102"/>
      <use x="411.767578" xlink:href="#DejaVuSans-32"/>
      <use x="443.554688" xlink:href="#DejaVuSans-109"/>
      <use x="540.966797" xlink:href="#DejaVuSans-101"/>
      <use x="602.490234" xlink:href="#DejaVuSans-100"/>
      <use x="665.966797" xlink:href="#DejaVuSans-105"/>
      <use x="693.75" xlink:href="#DejaVuSans-97"/>
      <use x="755.029297" xlink:href="#DejaVuSans-110"/>
      <use x="818.408203" xlink:href="#DejaVuSans-115"/>
     </g>
    </g>
   </g>
   <g id="line2d_128">
    <g clip-path="url(#p8a379e456e)">
     <use style="fill:#008000;stroke:#008000;" x="83.108571" xlink:href="#m1c11899ef7" y="292.287367"/>
     <use style="fill:#008000;stroke:#008000;" x="134.125714" xlink:href="#m1c11899ef7" y="292.272754"/>
     <use style="fill:#008000;stroke:#008000;" x="185.142857" xlink:href="#m1c11899ef7" y="291.658724"/>
     <use style="fill:#008000;stroke:#008000;" x="236.16" xlink:href="#m1c11899ef7" y="71.581378"/>
     <use style="fill:#008000;stroke:#008000;" x="287.177143" xlink:href="#m1c11899ef7" y="71.02019"/>
     <use style="fill:#008000;stroke:#008000;" x="338.194286" xlink:href="#m1c11899ef7" y="66.979029"/>
     <use style="fill:#008000;stroke:#008000;" x="389.211429" xlink:href="#m1c11899ef7" y="286.644044"/>
    </g>
   </g>
  </g>
 </g>
 <defs>
  <clipPath id="p8a379e456e">
   <rect height="266.112" width="357.12" x="57.6" y="41.472"/>
  </clipPath>
 </defs>
</svg>
