<?xml version="1.0" encoding="utf-8" standalone="no"?>
<!DOCTYPE svg PUBLIC "-//W3C//DTD SVG 1.1//EN"
  "http://www.w3.org/Graphics/SVG/1.1/DTD/svg11.dtd">
<!-- Created with matplotlib (https://matplotlib.org/) -->
<svg height="345.6pt" version="1.1" viewBox="0 0 460.8 345.6" width="460.8pt" xmlns="http://www.w3.org/2000/svg" xmlns:xlink="http://www.w3.org/1999/xlink">
 <defs>
  <style type="text/css">
*{stroke-linecap:butt;stroke-linejoin:round;}
  </style>
 </defs>
 <g id="figure_1">
  <g id="patch_1">
   <path d="M 0 345.6 
L 460.8 345.6 
L 460.8 0 
L 0 0 
z
" style="fill:#ffffff;"/>
  </g>
  <g id="axes_1">
   <g id="patch_2">
    <path d="M 57.6 307.584 
L 414.72 307.584 
L 414.72 41.472 
L 57.6 41.472 
z
" style="fill:#ffffff;"/>
   </g>
   <g id="matplotlib.axis_1">
    <g id="xtick_1">
     <g id="line2d_1">
      <path clip-path="url(#p70d2f2b9c5)" d="M 61.612584 307.584 
L 61.612584 41.472 
" style="fill:none;stroke:#b0b0b0;stroke-dasharray:5.12,1.28,0.8,1.28;stroke-dashoffset:0;stroke-width:0.8;"/>
     </g>
     <g id="line2d_2">
      <defs>
       <path d="M 0 0 
L 0 3.5 
" id="m872632f3c6" style="stroke:#000000;stroke-width:0.8;"/>
      </defs>
      <g>
       <use style="stroke:#000000;stroke-width:0.8;" x="61.612584" xlink:href="#m872632f3c6" y="307.584"/>
      </g>
     </g>
     <g id="text_1">
      <!-- 1 -->
      <defs>
       <path d="M 12.40625 8.296875 
L 28.515625 8.296875 
L 28.515625 63.921875 
L 10.984375 60.40625 
L 10.984375 69.390625 
L 28.421875 72.90625 
L 38.28125 72.90625 
L 38.28125 8.296875 
L 54.390625 8.296875 
L 54.390625 0 
L 12.40625 0 
z
" id="DejaVuSans-49"/>
      </defs>
      <g transform="translate(58.431334 322.182437)scale(0.1 -0.1)">
       <use xlink:href="#DejaVuSans-49"/>
      </g>
     </g>
    </g>
    <g id="xtick_2">
     <g id="line2d_3">
      <path clip-path="url(#p70d2f2b9c5)" d="M 73.650337 307.584 
L 73.650337 41.472 
" style="fill:none;stroke:#b0b0b0;stroke-dasharray:5.12,1.28,0.8,1.28;stroke-dashoffset:0;stroke-width:0.8;"/>
     </g>
     <g id="line2d_4">
      <g>
       <use style="stroke:#000000;stroke-width:0.8;" x="73.650337" xlink:href="#m872632f3c6" y="307.584"/>
      </g>
     </g>
     <g id="text_2">
      <!-- 4 -->
      <defs>
       <path d="M 37.796875 64.3125 
L 12.890625 25.390625 
L 37.796875 25.390625 
z
M 35.203125 72.90625 
L 47.609375 72.90625 
L 47.609375 25.390625 
L 58.015625 25.390625 
L 58.015625 17.1875 
L 47.609375 17.1875 
L 47.609375 0 
L 37.796875 0 
L 37.796875 17.1875 
L 4.890625 17.1875 
L 4.890625 26.703125 
z
" id="DejaVuSans-52"/>
      </defs>
      <g transform="translate(70.469087 322.182437)scale(0.1 -0.1)">
       <use xlink:href="#DejaVuSans-52"/>
      </g>
     </g>
    </g>
    <g id="xtick_3">
     <g id="line2d_5">
      <path clip-path="url(#p70d2f2b9c5)" d="M 89.700674 307.584 
L 89.700674 41.472 
" style="fill:none;stroke:#b0b0b0;stroke-dasharray:5.12,1.28,0.8,1.28;stroke-dashoffset:0;stroke-width:0.8;"/>
     </g>
     <g id="line2d_6">
      <g>
       <use style="stroke:#000000;stroke-width:0.8;" x="89.700674" xlink:href="#m872632f3c6" y="307.584"/>
      </g>
     </g>
     <g id="text_3">
      <!-- 8 -->
      <defs>
       <path d="M 31.78125 34.625 
Q 24.75 34.625 20.71875 30.859375 
Q 16.703125 27.09375 16.703125 20.515625 
Q 16.703125 13.921875 20.71875 10.15625 
Q 24.75 6.390625 31.78125 6.390625 
Q 38.8125 6.390625 42.859375 10.171875 
Q 46.921875 13.96875 46.921875 20.515625 
Q 46.921875 27.09375 42.890625 30.859375 
Q 38.875 34.625 31.78125 34.625 
z
M 21.921875 38.8125 
Q 15.578125 40.375 12.03125 44.71875 
Q 8.5 49.078125 8.5 55.328125 
Q 8.5 64.0625 14.71875 69.140625 
Q 20.953125 74.21875 31.78125 74.21875 
Q 42.671875 74.21875 48.875 69.140625 
Q 55.078125 64.0625 55.078125 55.328125 
Q 55.078125 49.078125 51.53125 44.71875 
Q 48 40.375 41.703125 38.8125 
Q 48.828125 37.15625 52.796875 32.3125 
Q 56.78125 27.484375 56.78125 20.515625 
Q 56.78125 9.90625 50.3125 4.234375 
Q 43.84375 -1.421875 31.78125 -1.421875 
Q 19.734375 -1.421875 13.25 4.234375 
Q 6.78125 9.90625 6.78125 20.515625 
Q 6.78125 27.484375 10.78125 32.3125 
Q 14.796875 37.15625 21.921875 38.8125 
z
M 18.3125 54.390625 
Q 18.3125 48.734375 21.84375 45.5625 
Q 25.390625 42.390625 31.78125 42.390625 
Q 38.140625 42.390625 41.71875 45.5625 
Q 45.3125 48.734375 45.3125 54.390625 
Q 45.3125 60.0625 41.71875 63.234375 
Q 38.140625 66.40625 31.78125 66.40625 
Q 25.390625 66.40625 21.84375 63.234375 
Q 18.3125 60.0625 18.3125 54.390625 
z
" id="DejaVuSans-56"/>
      </defs>
      <g transform="translate(86.519424 322.182437)scale(0.1 -0.1)">
       <use xlink:href="#DejaVuSans-56"/>
      </g>
     </g>
    </g>
    <g id="xtick_4">
     <g id="line2d_7">
      <path clip-path="url(#p70d2f2b9c5)" d="M 105.751011 307.584 
L 105.751011 41.472 
" style="fill:none;stroke:#b0b0b0;stroke-dasharray:5.12,1.28,0.8,1.28;stroke-dashoffset:0;stroke-width:0.8;"/>
     </g>
     <g id="line2d_8">
      <g>
       <use style="stroke:#000000;stroke-width:0.8;" x="105.751011" xlink:href="#m872632f3c6" y="307.584"/>
      </g>
     </g>
     <g id="text_4">
      <!-- 12 -->
      <defs>
       <path d="M 19.1875 8.296875 
L 53.609375 8.296875 
L 53.609375 0 
L 7.328125 0 
L 7.328125 8.296875 
Q 12.9375 14.109375 22.625 23.890625 
Q 32.328125 33.6875 34.8125 36.53125 
Q 39.546875 41.84375 41.421875 45.53125 
Q 43.3125 49.21875 43.3125 52.78125 
Q 43.3125 58.59375 39.234375 62.25 
Q 35.15625 65.921875 28.609375 65.921875 
Q 23.96875 65.921875 18.8125 64.3125 
Q 13.671875 62.703125 7.8125 59.421875 
L 7.8125 69.390625 
Q 13.765625 71.78125 18.9375 73 
Q 24.125 74.21875 28.421875 74.21875 
Q 39.75 74.21875 46.484375 68.546875 
Q 53.21875 62.890625 53.21875 53.421875 
Q 53.21875 48.921875 51.53125 44.890625 
Q 49.859375 40.875 45.40625 35.40625 
Q 44.1875 33.984375 37.640625 27.21875 
Q 31.109375 20.453125 19.1875 8.296875 
z
" id="DejaVuSans-50"/>
      </defs>
      <g transform="translate(99.388511 322.182437)scale(0.1 -0.1)">
       <use xlink:href="#DejaVuSans-49"/>
       <use x="63.623047" xlink:href="#DejaVuSans-50"/>
      </g>
     </g>
    </g>
    <g id="xtick_5">
     <g id="line2d_9">
      <path clip-path="url(#p70d2f2b9c5)" d="M 121.801348 307.584 
L 121.801348 41.472 
" style="fill:none;stroke:#b0b0b0;stroke-dasharray:5.12,1.28,0.8,1.28;stroke-dashoffset:0;stroke-width:0.8;"/>
     </g>
     <g id="line2d_10">
      <g>
       <use style="stroke:#000000;stroke-width:0.8;" x="121.801348" xlink:href="#m872632f3c6" y="307.584"/>
      </g>
     </g>
     <g id="text_5">
      <!-- 16 -->
      <defs>
       <path d="M 33.015625 40.375 
Q 26.375 40.375 22.484375 35.828125 
Q 18.609375 31.296875 18.609375 23.390625 
Q 18.609375 15.53125 22.484375 10.953125 
Q 26.375 6.390625 33.015625 6.390625 
Q 39.65625 6.390625 43.53125 10.953125 
Q 47.40625 15.53125 47.40625 23.390625 
Q 47.40625 31.296875 43.53125 35.828125 
Q 39.65625 40.375 33.015625 40.375 
z
M 52.59375 71.296875 
L 52.59375 62.3125 
Q 48.875 64.0625 45.09375 64.984375 
Q 41.3125 65.921875 37.59375 65.921875 
Q 27.828125 65.921875 22.671875 59.328125 
Q 17.53125 52.734375 16.796875 39.40625 
Q 19.671875 43.65625 24.015625 45.921875 
Q 28.375 48.1875 33.59375 48.1875 
Q 44.578125 48.1875 50.953125 41.515625 
Q 57.328125 34.859375 57.328125 23.390625 
Q 57.328125 12.15625 50.6875 5.359375 
Q 44.046875 -1.421875 33.015625 -1.421875 
Q 20.359375 -1.421875 13.671875 8.265625 
Q 6.984375 17.96875 6.984375 36.375 
Q 6.984375 53.65625 15.1875 63.9375 
Q 23.390625 74.21875 37.203125 74.21875 
Q 40.921875 74.21875 44.703125 73.484375 
Q 48.484375 72.75 52.59375 71.296875 
z
" id="DejaVuSans-54"/>
      </defs>
      <g transform="translate(115.438848 322.182437)scale(0.1 -0.1)">
       <use xlink:href="#DejaVuSans-49"/>
       <use x="63.623047" xlink:href="#DejaVuSans-54"/>
      </g>
     </g>
    </g>
    <g id="xtick_6">
     <g id="line2d_11">
      <path clip-path="url(#p70d2f2b9c5)" d="M 137.851685 307.584 
L 137.851685 41.472 
" style="fill:none;stroke:#b0b0b0;stroke-dasharray:5.12,1.28,0.8,1.28;stroke-dashoffset:0;stroke-width:0.8;"/>
     </g>
     <g id="line2d_12">
      <g>
       <use style="stroke:#000000;stroke-width:0.8;" x="137.851685" xlink:href="#m872632f3c6" y="307.584"/>
      </g>
     </g>
     <g id="text_6">
      <!-- 20 -->
      <defs>
       <path d="M 31.78125 66.40625 
Q 24.171875 66.40625 20.328125 58.90625 
Q 16.5 51.421875 16.5 36.375 
Q 16.5 21.390625 20.328125 13.890625 
Q 24.171875 6.390625 31.78125 6.390625 
Q 39.453125 6.390625 43.28125 13.890625 
Q 47.125 21.390625 47.125 36.375 
Q 47.125 51.421875 43.28125 58.90625 
Q 39.453125 66.40625 31.78125 66.40625 
z
M 31.78125 74.21875 
Q 44.046875 74.21875 50.515625 64.515625 
Q 56.984375 54.828125 56.984375 36.375 
Q 56.984375 17.96875 50.515625 8.265625 
Q 44.046875 -1.421875 31.78125 -1.421875 
Q 19.53125 -1.421875 13.0625 8.265625 
Q 6.59375 17.96875 6.59375 36.375 
Q 6.59375 54.828125 13.0625 64.515625 
Q 19.53125 74.21875 31.78125 74.21875 
z
" id="DejaVuSans-48"/>
      </defs>
      <g transform="translate(131.489185 322.182437)scale(0.1 -0.1)">
       <use xlink:href="#DejaVuSans-50"/>
       <use x="63.623047" xlink:href="#DejaVuSans-48"/>
      </g>
     </g>
    </g>
    <g id="xtick_7">
     <g id="line2d_13">
      <path clip-path="url(#p70d2f2b9c5)" d="M 153.902022 307.584 
L 153.902022 41.472 
" style="fill:none;stroke:#b0b0b0;stroke-dasharray:5.12,1.28,0.8,1.28;stroke-dashoffset:0;stroke-width:0.8;"/>
     </g>
     <g id="line2d_14">
      <g>
       <use style="stroke:#000000;stroke-width:0.8;" x="153.902022" xlink:href="#m872632f3c6" y="307.584"/>
      </g>
     </g>
     <g id="text_7">
      <!-- 24 -->
      <g transform="translate(147.539522 322.182437)scale(0.1 -0.1)">
       <use xlink:href="#DejaVuSans-50"/>
       <use x="63.623047" xlink:href="#DejaVuSans-52"/>
      </g>
     </g>
    </g>
    <g id="xtick_8">
     <g id="line2d_15">
      <path clip-path="url(#p70d2f2b9c5)" d="M 169.95236 307.584 
L 169.95236 41.472 
" style="fill:none;stroke:#b0b0b0;stroke-dasharray:5.12,1.28,0.8,1.28;stroke-dashoffset:0;stroke-width:0.8;"/>
     </g>
     <g id="line2d_16">
      <g>
       <use style="stroke:#000000;stroke-width:0.8;" x="169.95236" xlink:href="#m872632f3c6" y="307.584"/>
      </g>
     </g>
     <g id="text_8">
      <!-- 28 -->
      <g transform="translate(163.58986 322.182437)scale(0.1 -0.1)">
       <use xlink:href="#DejaVuSans-50"/>
       <use x="63.623047" xlink:href="#DejaVuSans-56"/>
      </g>
     </g>
    </g>
    <g id="xtick_9">
     <g id="line2d_17">
      <path clip-path="url(#p70d2f2b9c5)" d="M 186.002697 307.584 
L 186.002697 41.472 
" style="fill:none;stroke:#b0b0b0;stroke-dasharray:5.12,1.28,0.8,1.28;stroke-dashoffset:0;stroke-width:0.8;"/>
     </g>
     <g id="line2d_18">
      <g>
       <use style="stroke:#000000;stroke-width:0.8;" x="186.002697" xlink:href="#m872632f3c6" y="307.584"/>
      </g>
     </g>
     <g id="text_9">
      <!-- 32 -->
      <defs>
       <path d="M 40.578125 39.3125 
Q 47.65625 37.796875 51.625 33 
Q 55.609375 28.21875 55.609375 21.1875 
Q 55.609375 10.40625 48.1875 4.484375 
Q 40.765625 -1.421875 27.09375 -1.421875 
Q 22.515625 -1.421875 17.65625 -0.515625 
Q 12.796875 0.390625 7.625 2.203125 
L 7.625 11.71875 
Q 11.71875 9.328125 16.59375 8.109375 
Q 21.484375 6.890625 26.8125 6.890625 
Q 36.078125 6.890625 40.9375 10.546875 
Q 45.796875 14.203125 45.796875 21.1875 
Q 45.796875 27.640625 41.28125 31.265625 
Q 36.765625 34.90625 28.71875 34.90625 
L 20.21875 34.90625 
L 20.21875 43.015625 
L 29.109375 43.015625 
Q 36.375 43.015625 40.234375 45.921875 
Q 44.09375 48.828125 44.09375 54.296875 
Q 44.09375 59.90625 40.109375 62.90625 
Q 36.140625 65.921875 28.71875 65.921875 
Q 24.65625 65.921875 20.015625 65.03125 
Q 15.375 64.15625 9.8125 62.3125 
L 9.8125 71.09375 
Q 15.4375 72.65625 20.34375 73.4375 
Q 25.25 74.21875 29.59375 74.21875 
Q 40.828125 74.21875 47.359375 69.109375 
Q 53.90625 64.015625 53.90625 55.328125 
Q 53.90625 49.265625 50.4375 45.09375 
Q 46.96875 40.921875 40.578125 39.3125 
z
" id="DejaVuSans-51"/>
      </defs>
      <g transform="translate(179.640197 322.182437)scale(0.1 -0.1)">
       <use xlink:href="#DejaVuSans-51"/>
       <use x="63.623047" xlink:href="#DejaVuSans-50"/>
      </g>
     </g>
    </g>
    <g id="xtick_10">
     <g id="line2d_19">
      <path clip-path="url(#p70d2f2b9c5)" d="M 202.053034 307.584 
L 202.053034 41.472 
" style="fill:none;stroke:#b0b0b0;stroke-dasharray:5.12,1.28,0.8,1.28;stroke-dashoffset:0;stroke-width:0.8;"/>
     </g>
     <g id="line2d_20">
      <g>
       <use style="stroke:#000000;stroke-width:0.8;" x="202.053034" xlink:href="#m872632f3c6" y="307.584"/>
      </g>
     </g>
     <g id="text_10">
      <!-- 36 -->
      <g transform="translate(195.690534 322.182437)scale(0.1 -0.1)">
       <use xlink:href="#DejaVuSans-51"/>
       <use x="63.623047" xlink:href="#DejaVuSans-54"/>
      </g>
     </g>
    </g>
    <g id="xtick_11">
     <g id="line2d_21">
      <path clip-path="url(#p70d2f2b9c5)" d="M 218.103371 307.584 
L 218.103371 41.472 
" style="fill:none;stroke:#b0b0b0;stroke-dasharray:5.12,1.28,0.8,1.28;stroke-dashoffset:0;stroke-width:0.8;"/>
     </g>
     <g id="line2d_22">
      <g>
       <use style="stroke:#000000;stroke-width:0.8;" x="218.103371" xlink:href="#m872632f3c6" y="307.584"/>
      </g>
     </g>
     <g id="text_11">
      <!-- 40 -->
      <g transform="translate(211.740871 322.182437)scale(0.1 -0.1)">
       <use xlink:href="#DejaVuSans-52"/>
       <use x="63.623047" xlink:href="#DejaVuSans-48"/>
      </g>
     </g>
    </g>
    <g id="xtick_12">
     <g id="line2d_23">
      <path clip-path="url(#p70d2f2b9c5)" d="M 234.153708 307.584 
L 234.153708 41.472 
" style="fill:none;stroke:#b0b0b0;stroke-dasharray:5.12,1.28,0.8,1.28;stroke-dashoffset:0;stroke-width:0.8;"/>
     </g>
     <g id="line2d_24">
      <g>
       <use style="stroke:#000000;stroke-width:0.8;" x="234.153708" xlink:href="#m872632f3c6" y="307.584"/>
      </g>
     </g>
     <g id="text_12">
      <!-- 44 -->
      <g transform="translate(227.791208 322.182437)scale(0.1 -0.1)">
       <use xlink:href="#DejaVuSans-52"/>
       <use x="63.623047" xlink:href="#DejaVuSans-52"/>
      </g>
     </g>
    </g>
    <g id="xtick_13">
     <g id="line2d_25">
      <path clip-path="url(#p70d2f2b9c5)" d="M 250.204045 307.584 
L 250.204045 41.472 
" style="fill:none;stroke:#b0b0b0;stroke-dasharray:5.12,1.28,0.8,1.28;stroke-dashoffset:0;stroke-width:0.8;"/>
     </g>
     <g id="line2d_26">
      <g>
       <use style="stroke:#000000;stroke-width:0.8;" x="250.204045" xlink:href="#m872632f3c6" y="307.584"/>
      </g>
     </g>
     <g id="text_13">
      <!-- 48 -->
      <g transform="translate(243.841545 322.182437)scale(0.1 -0.1)">
       <use xlink:href="#DejaVuSans-52"/>
       <use x="63.623047" xlink:href="#DejaVuSans-56"/>
      </g>
     </g>
    </g>
    <g id="xtick_14">
     <g id="line2d_27">
      <path clip-path="url(#p70d2f2b9c5)" d="M 266.254382 307.584 
L 266.254382 41.472 
" style="fill:none;stroke:#b0b0b0;stroke-dasharray:5.12,1.28,0.8,1.28;stroke-dashoffset:0;stroke-width:0.8;"/>
     </g>
     <g id="line2d_28">
      <g>
       <use style="stroke:#000000;stroke-width:0.8;" x="266.254382" xlink:href="#m872632f3c6" y="307.584"/>
      </g>
     </g>
     <g id="text_14">
      <!-- 52 -->
      <defs>
       <path d="M 10.796875 72.90625 
L 49.515625 72.90625 
L 49.515625 64.59375 
L 19.828125 64.59375 
L 19.828125 46.734375 
Q 21.96875 47.46875 24.109375 47.828125 
Q 26.265625 48.1875 28.421875 48.1875 
Q 40.625 48.1875 47.75 41.5 
Q 54.890625 34.8125 54.890625 23.390625 
Q 54.890625 11.625 47.5625 5.09375 
Q 40.234375 -1.421875 26.90625 -1.421875 
Q 22.3125 -1.421875 17.546875 -0.640625 
Q 12.796875 0.140625 7.71875 1.703125 
L 7.71875 11.625 
Q 12.109375 9.234375 16.796875 8.0625 
Q 21.484375 6.890625 26.703125 6.890625 
Q 35.15625 6.890625 40.078125 11.328125 
Q 45.015625 15.765625 45.015625 23.390625 
Q 45.015625 31 40.078125 35.4375 
Q 35.15625 39.890625 26.703125 39.890625 
Q 22.75 39.890625 18.8125 39.015625 
Q 14.890625 38.140625 10.796875 36.28125 
z
" id="DejaVuSans-53"/>
      </defs>
      <g transform="translate(259.891882 322.182437)scale(0.1 -0.1)">
       <use xlink:href="#DejaVuSans-53"/>
       <use x="63.623047" xlink:href="#DejaVuSans-50"/>
      </g>
     </g>
    </g>
    <g id="xtick_15">
     <g id="line2d_29">
      <path clip-path="url(#p70d2f2b9c5)" d="M 282.304719 307.584 
L 282.304719 41.472 
" style="fill:none;stroke:#b0b0b0;stroke-dasharray:5.12,1.28,0.8,1.28;stroke-dashoffset:0;stroke-width:0.8;"/>
     </g>
     <g id="line2d_30">
      <g>
       <use style="stroke:#000000;stroke-width:0.8;" x="282.304719" xlink:href="#m872632f3c6" y="307.584"/>
      </g>
     </g>
     <g id="text_15">
      <!-- 56 -->
      <g transform="translate(275.942219 322.182437)scale(0.1 -0.1)">
       <use xlink:href="#DejaVuSans-53"/>
       <use x="63.623047" xlink:href="#DejaVuSans-54"/>
      </g>
     </g>
    </g>
    <g id="xtick_16">
     <g id="line2d_31">
      <path clip-path="url(#p70d2f2b9c5)" d="M 298.355056 307.584 
L 298.355056 41.472 
" style="fill:none;stroke:#b0b0b0;stroke-dasharray:5.12,1.28,0.8,1.28;stroke-dashoffset:0;stroke-width:0.8;"/>
     </g>
     <g id="line2d_32">
      <g>
       <use style="stroke:#000000;stroke-width:0.8;" x="298.355056" xlink:href="#m872632f3c6" y="307.584"/>
      </g>
     </g>
     <g id="text_16">
      <!-- 60 -->
      <g transform="translate(291.992556 322.182437)scale(0.1 -0.1)">
       <use xlink:href="#DejaVuSans-54"/>
       <use x="63.623047" xlink:href="#DejaVuSans-48"/>
      </g>
     </g>
    </g>
    <g id="xtick_17">
     <g id="line2d_33">
      <path clip-path="url(#p70d2f2b9c5)" d="M 314.405393 307.584 
L 314.405393 41.472 
" style="fill:none;stroke:#b0b0b0;stroke-dasharray:5.12,1.28,0.8,1.28;stroke-dashoffset:0;stroke-width:0.8;"/>
     </g>
     <g id="line2d_34">
      <g>
       <use style="stroke:#000000;stroke-width:0.8;" x="314.405393" xlink:href="#m872632f3c6" y="307.584"/>
      </g>
     </g>
     <g id="text_17">
      <!-- 64 -->
      <g transform="translate(308.042893 322.182437)scale(0.1 -0.1)">
       <use xlink:href="#DejaVuSans-54"/>
       <use x="63.623047" xlink:href="#DejaVuSans-52"/>
      </g>
     </g>
    </g>
    <g id="xtick_18">
     <g id="line2d_35">
      <path clip-path="url(#p70d2f2b9c5)" d="M 330.45573 307.584 
L 330.45573 41.472 
" style="fill:none;stroke:#b0b0b0;stroke-dasharray:5.12,1.28,0.8,1.28;stroke-dashoffset:0;stroke-width:0.8;"/>
     </g>
     <g id="line2d_36">
      <g>
       <use style="stroke:#000000;stroke-width:0.8;" x="330.45573" xlink:href="#m872632f3c6" y="307.584"/>
      </g>
     </g>
     <g id="text_18">
      <!-- 68 -->
      <g transform="translate(324.09323 322.182437)scale(0.1 -0.1)">
       <use xlink:href="#DejaVuSans-54"/>
       <use x="63.623047" xlink:href="#DejaVuSans-56"/>
      </g>
     </g>
    </g>
    <g id="xtick_19">
     <g id="line2d_37">
      <path clip-path="url(#p70d2f2b9c5)" d="M 346.506067 307.584 
L 346.506067 41.472 
" style="fill:none;stroke:#b0b0b0;stroke-dasharray:5.12,1.28,0.8,1.28;stroke-dashoffset:0;stroke-width:0.8;"/>
     </g>
     <g id="line2d_38">
      <g>
       <use style="stroke:#000000;stroke-width:0.8;" x="346.506067" xlink:href="#m872632f3c6" y="307.584"/>
      </g>
     </g>
     <g id="text_19">
      <!-- 72 -->
      <defs>
       <path d="M 8.203125 72.90625 
L 55.078125 72.90625 
L 55.078125 68.703125 
L 28.609375 0 
L 18.3125 0 
L 43.21875 64.59375 
L 8.203125 64.59375 
z
" id="DejaVuSans-55"/>
      </defs>
      <g transform="translate(340.143567 322.182437)scale(0.1 -0.1)">
       <use xlink:href="#DejaVuSans-55"/>
       <use x="63.623047" xlink:href="#DejaVuSans-50"/>
      </g>
     </g>
    </g>
    <g id="xtick_20">
     <g id="line2d_39">
      <path clip-path="url(#p70d2f2b9c5)" d="M 362.556404 307.584 
L 362.556404 41.472 
" style="fill:none;stroke:#b0b0b0;stroke-dasharray:5.12,1.28,0.8,1.28;stroke-dashoffset:0;stroke-width:0.8;"/>
     </g>
     <g id="line2d_40">
      <g>
       <use style="stroke:#000000;stroke-width:0.8;" x="362.556404" xlink:href="#m872632f3c6" y="307.584"/>
      </g>
     </g>
     <g id="text_20">
      <!-- 76 -->
      <g transform="translate(356.193904 322.182437)scale(0.1 -0.1)">
       <use xlink:href="#DejaVuSans-55"/>
       <use x="63.623047" xlink:href="#DejaVuSans-54"/>
      </g>
     </g>
    </g>
    <g id="xtick_21">
     <g id="line2d_41">
      <path clip-path="url(#p70d2f2b9c5)" d="M 378.606742 307.584 
L 378.606742 41.472 
" style="fill:none;stroke:#b0b0b0;stroke-dasharray:5.12,1.28,0.8,1.28;stroke-dashoffset:0;stroke-width:0.8;"/>
     </g>
     <g id="line2d_42">
      <g>
       <use style="stroke:#000000;stroke-width:0.8;" x="378.606742" xlink:href="#m872632f3c6" y="307.584"/>
      </g>
     </g>
     <g id="text_21">
      <!-- 80 -->
      <g transform="translate(372.244242 322.182437)scale(0.1 -0.1)">
       <use xlink:href="#DejaVuSans-56"/>
       <use x="63.623047" xlink:href="#DejaVuSans-48"/>
      </g>
     </g>
    </g>
    <g id="xtick_22">
     <g id="line2d_43">
      <path clip-path="url(#p70d2f2b9c5)" d="M 394.657079 307.584 
L 394.657079 41.472 
" style="fill:none;stroke:#b0b0b0;stroke-dasharray:5.12,1.28,0.8,1.28;stroke-dashoffset:0;stroke-width:0.8;"/>
     </g>
     <g id="line2d_44">
      <g>
       <use style="stroke:#000000;stroke-width:0.8;" x="394.657079" xlink:href="#m872632f3c6" y="307.584"/>
      </g>
     </g>
     <g id="text_22">
      <!-- 84 -->
      <g transform="translate(388.294579 322.182437)scale(0.1 -0.1)">
       <use xlink:href="#DejaVuSans-56"/>
       <use x="63.623047" xlink:href="#DejaVuSans-52"/>
      </g>
     </g>
    </g>
    <g id="xtick_23">
     <g id="line2d_45">
      <path clip-path="url(#p70d2f2b9c5)" d="M 410.707416 307.584 
L 410.707416 41.472 
" style="fill:none;stroke:#b0b0b0;stroke-dasharray:5.12,1.28,0.8,1.28;stroke-dashoffset:0;stroke-width:0.8;"/>
     </g>
     <g id="line2d_46">
      <g>
       <use style="stroke:#000000;stroke-width:0.8;" x="410.707416" xlink:href="#m872632f3c6" y="307.584"/>
      </g>
     </g>
     <g id="text_23">
      <!-- 88 -->
      <g transform="translate(404.344916 322.182437)scale(0.1 -0.1)">
       <use xlink:href="#DejaVuSans-56"/>
       <use x="63.623047" xlink:href="#DejaVuSans-56"/>
      </g>
     </g>
    </g>
    <g id="text_24">
     <!-- threads -->
     <defs>
      <path d="M 18.3125 70.21875 
L 18.3125 54.6875 
L 36.8125 54.6875 
L 36.8125 47.703125 
L 18.3125 47.703125 
L 18.3125 18.015625 
Q 18.3125 11.328125 20.140625 9.421875 
Q 21.96875 7.515625 27.59375 7.515625 
L 36.8125 7.515625 
L 36.8125 0 
L 27.59375 0 
Q 17.1875 0 13.234375 3.875 
Q 9.28125 7.765625 9.28125 18.015625 
L 9.28125 47.703125 
L 2.6875 47.703125 
L 2.6875 54.6875 
L 9.28125 54.6875 
L 9.28125 70.21875 
z
" id="DejaVuSans-116"/>
      <path d="M 54.890625 33.015625 
L 54.890625 0 
L 45.90625 0 
L 45.90625 32.71875 
Q 45.90625 40.484375 42.875 44.328125 
Q 39.84375 48.1875 33.796875 48.1875 
Q 26.515625 48.1875 22.3125 43.546875 
Q 18.109375 38.921875 18.109375 30.90625 
L 18.109375 0 
L 9.078125 0 
L 9.078125 75.984375 
L 18.109375 75.984375 
L 18.109375 46.1875 
Q 21.34375 51.125 25.703125 53.5625 
Q 30.078125 56 35.796875 56 
Q 45.21875 56 50.046875 50.171875 
Q 54.890625 44.34375 54.890625 33.015625 
z
" id="DejaVuSans-104"/>
      <path d="M 41.109375 46.296875 
Q 39.59375 47.171875 37.8125 47.578125 
Q 36.03125 48 33.890625 48 
Q 26.265625 48 22.1875 43.046875 
Q 18.109375 38.09375 18.109375 28.8125 
L 18.109375 0 
L 9.078125 0 
L 9.078125 54.6875 
L 18.109375 54.6875 
L 18.109375 46.1875 
Q 20.953125 51.171875 25.484375 53.578125 
Q 30.03125 56 36.53125 56 
Q 37.453125 56 38.578125 55.875 
Q 39.703125 55.765625 41.0625 55.515625 
z
" id="DejaVuSans-114"/>
      <path d="M 56.203125 29.59375 
L 56.203125 25.203125 
L 14.890625 25.203125 
Q 15.484375 15.921875 20.484375 11.0625 
Q 25.484375 6.203125 34.421875 6.203125 
Q 39.59375 6.203125 44.453125 7.46875 
Q 49.3125 8.734375 54.109375 11.28125 
L 54.109375 2.78125 
Q 49.265625 0.734375 44.1875 -0.34375 
Q 39.109375 -1.421875 33.890625 -1.421875 
Q 20.796875 -1.421875 13.15625 6.1875 
Q 5.515625 13.8125 5.515625 26.8125 
Q 5.515625 40.234375 12.765625 48.109375 
Q 20.015625 56 32.328125 56 
Q 43.359375 56 49.78125 48.890625 
Q 56.203125 41.796875 56.203125 29.59375 
z
M 47.21875 32.234375 
Q 47.125 39.59375 43.09375 43.984375 
Q 39.0625 48.390625 32.421875 48.390625 
Q 24.90625 48.390625 20.390625 44.140625 
Q 15.875 39.890625 15.1875 32.171875 
z
" id="DejaVuSans-101"/>
      <path d="M 34.28125 27.484375 
Q 23.390625 27.484375 19.1875 25 
Q 14.984375 22.515625 14.984375 16.5 
Q 14.984375 11.71875 18.140625 8.90625 
Q 21.296875 6.109375 26.703125 6.109375 
Q 34.1875 6.109375 38.703125 11.40625 
Q 43.21875 16.703125 43.21875 25.484375 
L 43.21875 27.484375 
z
M 52.203125 31.203125 
L 52.203125 0 
L 43.21875 0 
L 43.21875 8.296875 
Q 40.140625 3.328125 35.546875 0.953125 
Q 30.953125 -1.421875 24.3125 -1.421875 
Q 15.921875 -1.421875 10.953125 3.296875 
Q 6 8.015625 6 15.921875 
Q 6 25.140625 12.171875 29.828125 
Q 18.359375 34.515625 30.609375 34.515625 
L 43.21875 34.515625 
L 43.21875 35.40625 
Q 43.21875 41.609375 39.140625 45 
Q 35.0625 48.390625 27.6875 48.390625 
Q 23 48.390625 18.546875 47.265625 
Q 14.109375 46.140625 10.015625 43.890625 
L 10.015625 52.203125 
Q 14.9375 54.109375 19.578125 55.046875 
Q 24.21875 56 28.609375 56 
Q 40.484375 56 46.34375 49.84375 
Q 52.203125 43.703125 52.203125 31.203125 
z
" id="DejaVuSans-97"/>
      <path d="M 45.40625 46.390625 
L 45.40625 75.984375 
L 54.390625 75.984375 
L 54.390625 0 
L 45.40625 0 
L 45.40625 8.203125 
Q 42.578125 3.328125 38.25 0.953125 
Q 33.9375 -1.421875 27.875 -1.421875 
Q 17.96875 -1.421875 11.734375 6.484375 
Q 5.515625 14.40625 5.515625 27.296875 
Q 5.515625 40.1875 11.734375 48.09375 
Q 17.96875 56 27.875 56 
Q 33.9375 56 38.25 53.625 
Q 42.578125 51.265625 45.40625 46.390625 
z
M 14.796875 27.296875 
Q 14.796875 17.390625 18.875 11.75 
Q 22.953125 6.109375 30.078125 6.109375 
Q 37.203125 6.109375 41.296875 11.75 
Q 45.40625 17.390625 45.40625 27.296875 
Q 45.40625 37.203125 41.296875 42.84375 
Q 37.203125 48.484375 30.078125 48.484375 
Q 22.953125 48.484375 18.875 42.84375 
Q 14.796875 37.203125 14.796875 27.296875 
z
" id="DejaVuSans-100"/>
      <path d="M 44.28125 53.078125 
L 44.28125 44.578125 
Q 40.484375 46.53125 36.375 47.5 
Q 32.28125 48.484375 27.875 48.484375 
Q 21.1875 48.484375 17.84375 46.4375 
Q 14.5 44.390625 14.5 40.28125 
Q 14.5 37.15625 16.890625 35.375 
Q 19.28125 33.59375 26.515625 31.984375 
L 29.59375 31.296875 
Q 39.15625 29.25 43.1875 25.515625 
Q 47.21875 21.78125 47.21875 15.09375 
Q 47.21875 7.46875 41.1875 3.015625 
Q 35.15625 -1.421875 24.609375 -1.421875 
Q 20.21875 -1.421875 15.453125 -0.5625 
Q 10.6875 0.296875 5.421875 2 
L 5.421875 11.28125 
Q 10.40625 8.6875 15.234375 7.390625 
Q 20.0625 6.109375 24.8125 6.109375 
Q 31.15625 6.109375 34.5625 8.28125 
Q 37.984375 10.453125 37.984375 14.40625 
Q 37.984375 18.0625 35.515625 20.015625 
Q 33.0625 21.96875 24.703125 23.78125 
L 21.578125 24.515625 
Q 13.234375 26.265625 9.515625 29.90625 
Q 5.8125 33.546875 5.8125 39.890625 
Q 5.8125 47.609375 11.28125 51.796875 
Q 16.75 56 26.8125 56 
Q 31.78125 56 36.171875 55.265625 
Q 40.578125 54.546875 44.28125 53.078125 
z
" id="DejaVuSans-115"/>
     </defs>
     <g transform="translate(217.168594 335.860562)scale(0.1 -0.1)">
      <use xlink:href="#DejaVuSans-116"/>
      <use x="39.208984" xlink:href="#DejaVuSans-104"/>
      <use x="102.587891" xlink:href="#DejaVuSans-114"/>
      <use x="141.451172" xlink:href="#DejaVuSans-101"/>
      <use x="202.974609" xlink:href="#DejaVuSans-97"/>
      <use x="264.253906" xlink:href="#DejaVuSans-100"/>
      <use x="327.730469" xlink:href="#DejaVuSans-115"/>
     </g>
    </g>
   </g>
   <g id="matplotlib.axis_2">
    <g id="ytick_1">
     <g id="line2d_47">
      <path clip-path="url(#p70d2f2b9c5)" d="M 57.6 304.166811 
L 414.72 304.166811 
" style="fill:none;stroke:#b0b0b0;stroke-dasharray:5.12,1.28,0.8,1.28;stroke-dashoffset:0;stroke-width:0.8;"/>
     </g>
     <g id="line2d_48">
      <defs>
       <path d="M 0 0 
L -3.5 0 
" id="m4399d80f4b" style="stroke:#000000;stroke-width:0.8;"/>
      </defs>
      <g>
       <use style="stroke:#000000;stroke-width:0.8;" x="57.6" xlink:href="#m4399d80f4b" y="304.166811"/>
      </g>
     </g>
     <g id="text_25">
      <!-- 0.5 -->
      <defs>
       <path d="M 10.6875 12.40625 
L 21 12.40625 
L 21 0 
L 10.6875 0 
z
" id="DejaVuSans-46"/>
      </defs>
      <g transform="translate(34.696875 307.96603)scale(0.1 -0.1)">
       <use xlink:href="#DejaVuSans-48"/>
       <use x="63.623047" xlink:href="#DejaVuSans-46"/>
       <use x="95.410156" xlink:href="#DejaVuSans-53"/>
      </g>
     </g>
    </g>
    <g id="ytick_2">
     <g id="line2d_49">
      <path clip-path="url(#p70d2f2b9c5)" d="M 57.6 258.126111 
L 414.72 258.126111 
" style="fill:none;stroke:#b0b0b0;stroke-dasharray:5.12,1.28,0.8,1.28;stroke-dashoffset:0;stroke-width:0.8;"/>
     </g>
     <g id="line2d_50">
      <g>
       <use style="stroke:#000000;stroke-width:0.8;" x="57.6" xlink:href="#m4399d80f4b" y="258.126111"/>
      </g>
     </g>
     <g id="text_26">
      <!-- 1.0 -->
      <g transform="translate(34.696875 261.92533)scale(0.1 -0.1)">
       <use xlink:href="#DejaVuSans-49"/>
       <use x="63.623047" xlink:href="#DejaVuSans-46"/>
       <use x="95.410156" xlink:href="#DejaVuSans-48"/>
      </g>
     </g>
    </g>
    <g id="ytick_3">
     <g id="line2d_51">
      <path clip-path="url(#p70d2f2b9c5)" d="M 57.6 212.085411 
L 414.72 212.085411 
" style="fill:none;stroke:#b0b0b0;stroke-dasharray:5.12,1.28,0.8,1.28;stroke-dashoffset:0;stroke-width:0.8;"/>
     </g>
     <g id="line2d_52">
      <g>
       <use style="stroke:#000000;stroke-width:0.8;" x="57.6" xlink:href="#m4399d80f4b" y="212.085411"/>
      </g>
     </g>
     <g id="text_27">
      <!-- 1.5 -->
      <g transform="translate(34.696875 215.88463)scale(0.1 -0.1)">
       <use xlink:href="#DejaVuSans-49"/>
       <use x="63.623047" xlink:href="#DejaVuSans-46"/>
       <use x="95.410156" xlink:href="#DejaVuSans-53"/>
      </g>
     </g>
    </g>
    <g id="ytick_4">
     <g id="line2d_53">
      <path clip-path="url(#p70d2f2b9c5)" d="M 57.6 166.044711 
L 414.72 166.044711 
" style="fill:none;stroke:#b0b0b0;stroke-dasharray:5.12,1.28,0.8,1.28;stroke-dashoffset:0;stroke-width:0.8;"/>
     </g>
     <g id="line2d_54">
      <g>
       <use style="stroke:#000000;stroke-width:0.8;" x="57.6" xlink:href="#m4399d80f4b" y="166.044711"/>
      </g>
     </g>
     <g id="text_28">
      <!-- 2.0 -->
      <g transform="translate(34.696875 169.843929)scale(0.1 -0.1)">
       <use xlink:href="#DejaVuSans-50"/>
       <use x="63.623047" xlink:href="#DejaVuSans-46"/>
       <use x="95.410156" xlink:href="#DejaVuSans-48"/>
      </g>
     </g>
    </g>
    <g id="ytick_5">
     <g id="line2d_55">
      <path clip-path="url(#p70d2f2b9c5)" d="M 57.6 120.00401 
L 414.72 120.00401 
" style="fill:none;stroke:#b0b0b0;stroke-dasharray:5.12,1.28,0.8,1.28;stroke-dashoffset:0;stroke-width:0.8;"/>
     </g>
     <g id="line2d_56">
      <g>
       <use style="stroke:#000000;stroke-width:0.8;" x="57.6" xlink:href="#m4399d80f4b" y="120.00401"/>
      </g>
     </g>
     <g id="text_29">
      <!-- 2.5 -->
      <g transform="translate(34.696875 123.803229)scale(0.1 -0.1)">
       <use xlink:href="#DejaVuSans-50"/>
       <use x="63.623047" xlink:href="#DejaVuSans-46"/>
       <use x="95.410156" xlink:href="#DejaVuSans-53"/>
      </g>
     </g>
    </g>
    <g id="ytick_6">
     <g id="line2d_57">
      <path clip-path="url(#p70d2f2b9c5)" d="M 57.6 73.96331 
L 414.72 73.96331 
" style="fill:none;stroke:#b0b0b0;stroke-dasharray:5.12,1.28,0.8,1.28;stroke-dashoffset:0;stroke-width:0.8;"/>
     </g>
     <g id="line2d_58">
      <g>
       <use style="stroke:#000000;stroke-width:0.8;" x="57.6" xlink:href="#m4399d80f4b" y="73.96331"/>
      </g>
     </g>
     <g id="text_30">
      <!-- 3.0 -->
      <g transform="translate(34.696875 77.762529)scale(0.1 -0.1)">
       <use xlink:href="#DejaVuSans-51"/>
       <use x="63.623047" xlink:href="#DejaVuSans-46"/>
       <use x="95.410156" xlink:href="#DejaVuSans-48"/>
      </g>
     </g>
    </g>
    <g id="text_31">
     <!-- speed up -->
     <defs>
      <path d="M 18.109375 8.203125 
L 18.109375 -20.796875 
L 9.078125 -20.796875 
L 9.078125 54.6875 
L 18.109375 54.6875 
L 18.109375 46.390625 
Q 20.953125 51.265625 25.265625 53.625 
Q 29.59375 56 35.59375 56 
Q 45.5625 56 51.78125 48.09375 
Q 58.015625 40.1875 58.015625 27.296875 
Q 58.015625 14.40625 51.78125 6.484375 
Q 45.5625 -1.421875 35.59375 -1.421875 
Q 29.59375 -1.421875 25.265625 0.953125 
Q 20.953125 3.328125 18.109375 8.203125 
z
M 48.6875 27.296875 
Q 48.6875 37.203125 44.609375 42.84375 
Q 40.53125 48.484375 33.40625 48.484375 
Q 26.265625 48.484375 22.1875 42.84375 
Q 18.109375 37.203125 18.109375 27.296875 
Q 18.109375 17.390625 22.1875 11.75 
Q 26.265625 6.109375 33.40625 6.109375 
Q 40.53125 6.109375 44.609375 11.75 
Q 48.6875 17.390625 48.6875 27.296875 
z
" id="DejaVuSans-112"/>
      <path id="DejaVuSans-32"/>
      <path d="M 8.5 21.578125 
L 8.5 54.6875 
L 17.484375 54.6875 
L 17.484375 21.921875 
Q 17.484375 14.15625 20.5 10.265625 
Q 23.53125 6.390625 29.59375 6.390625 
Q 36.859375 6.390625 41.078125 11.03125 
Q 45.3125 15.671875 45.3125 23.6875 
L 45.3125 54.6875 
L 54.296875 54.6875 
L 54.296875 0 
L 45.3125 0 
L 45.3125 8.40625 
Q 42.046875 3.421875 37.71875 1 
Q 33.40625 -1.421875 27.6875 -1.421875 
Q 18.265625 -1.421875 13.375 4.4375 
Q 8.5 10.296875 8.5 21.578125 
z
M 31.109375 56 
z
" id="DejaVuSans-117"/>
     </defs>
     <g transform="translate(28.617187 197.566281)rotate(-90)scale(0.1 -0.1)">
      <use xlink:href="#DejaVuSans-115"/>
      <use x="52.099609" xlink:href="#DejaVuSans-112"/>
      <use x="115.576172" xlink:href="#DejaVuSans-101"/>
      <use x="177.099609" xlink:href="#DejaVuSans-101"/>
      <use x="238.623047" xlink:href="#DejaVuSans-100"/>
      <use x="302.099609" xlink:href="#DejaVuSans-32"/>
      <use x="333.886719" xlink:href="#DejaVuSans-117"/>
      <use x="397.265625" xlink:href="#DejaVuSans-112"/>
     </g>
    </g>
   </g>
   <g id="line2d_59">
    <path clip-path="url(#p70d2f2b9c5)" d="M 61.612584 295.488 
L 65.625169 254.484576 
L 69.637753 223.356817 
L 73.650337 198.857723 
L 77.662921 175.405447 
L 81.675506 159.368701 
L 85.68809 141.251873 
L 89.700674 131.501168 
L 93.713258 115.752462 
L 97.725843 103.910151 
L 101.738427 102.139006 
L 105.751011 88.642542 
L 109.763596 82.587341 
L 113.77618 80.127897 
L 117.788764 79.330026 
L 121.801348 72.27634 
L 125.813933 66.493194 
L 129.826517 67.716388 
L 133.839101 66.943036 
L 137.851685 63.340343 
L 141.86427 61.756516 
L 145.876854 63.54995 
L 149.889438 58.603325 
L 153.902022 58.492806 
L 157.914607 58.624226 
L 161.927191 59.900977 
L 165.939775 62.373362 
L 169.95236 58.086789 
L 173.964944 57.537653 
L 177.977528 61.080152 
L 181.990112 58.826421 
L 186.002697 55.086186 
L 190.015281 53.883673 
L 194.027865 55.309136 
L 198.040449 57.67546 
L 202.053034 53.568 
L 206.065618 55.891588 
L 210.078202 59.777203 
L 214.090787 58.795891 
L 218.103371 56.421228 
L 222.115955 57.662754 
L 226.128539 57.88519 
L 230.141124 58.058146 
L 234.153708 58.648551 
L 238.166292 59.347141 
L 242.178876 57.189711 
L 246.191461 61.772468 
L 250.204045 58.6929 
L 254.216629 59.397403 
L 258.229213 65.329946 
L 262.241798 65.475661 
L 266.254382 75.403664 
L 270.266966 60.86258 
L 274.279551 60.715977 
L 278.292135 68.318738 
L 282.304719 60.593447 
L 286.317303 61.480875 
L 290.329888 62.15651 
L 294.342472 60.768733 
L 298.355056 60.461018 
L 302.36764 61.894085 
L 306.380225 64.708784 
L 310.392809 64.816939 
L 314.405393 62.082385 
L 318.417978 63.059102 
L 322.430562 59.425895 
L 326.443146 61.956325 
L 330.45573 65.512883 
L 334.468315 63.502892 
L 338.480899 62.218882 
L 342.493483 62.32627 
L 346.506067 60.68793 
L 350.518652 61.63129 
L 354.531236 62.839574 
L 358.54382 65.387495 
L 362.556404 66.351134 
L 366.568989 65.056165 
L 370.581573 66.246067 
L 374.594157 67.248009 
L 378.606742 67.563244 
L 382.619326 70.979085 
L 386.63191 71.142896 
L 390.644494 71.22978 
L 394.657079 71.454866 
L 398.669663 73.475706 
L 402.682247 71.484609 
L 406.694831 73.326936 
L 410.707416 70.960557 
" style="fill:none;stroke:#0000ff;stroke-dasharray:1.5,2.475;stroke-dashoffset:0;stroke-width:1.5;"/>
    <defs>
     <path d="M 0 1.5 
C 0.397805 1.5 0.77937 1.341951 1.06066 1.06066 
C 1.341951 0.77937 1.5 0.397805 1.5 0 
C 1.5 -0.397805 1.341951 -0.77937 1.06066 -1.06066 
C 0.77937 -1.341951 0.397805 -1.5 0 -1.5 
C -0.397805 -1.5 -0.77937 -1.341951 -1.06066 -1.06066 
C -1.341951 -0.77937 -1.5 -0.397805 -1.5 0 
C -1.5 0.397805 -1.341951 0.77937 -1.06066 1.06066 
C -0.77937 1.341951 -0.397805 1.5 0 1.5 
z
" id="m3d1f0ea611" style="stroke:#0000ff;"/>
    </defs>
    <g clip-path="url(#p70d2f2b9c5)">
     <use style="fill:#0000ff;stroke:#0000ff;" x="61.612584" xlink:href="#m3d1f0ea611" y="295.488"/>
     <use style="fill:#0000ff;stroke:#0000ff;" x="65.625169" xlink:href="#m3d1f0ea611" y="254.484576"/>
     <use style="fill:#0000ff;stroke:#0000ff;" x="69.637753" xlink:href="#m3d1f0ea611" y="223.356817"/>
     <use style="fill:#0000ff;stroke:#0000ff;" x="73.650337" xlink:href="#m3d1f0ea611" y="198.857723"/>
     <use style="fill:#0000ff;stroke:#0000ff;" x="77.662921" xlink:href="#m3d1f0ea611" y="175.405447"/>
     <use style="fill:#0000ff;stroke:#0000ff;" x="81.675506" xlink:href="#m3d1f0ea611" y="159.368701"/>
     <use style="fill:#0000ff;stroke:#0000ff;" x="85.68809" xlink:href="#m3d1f0ea611" y="141.251873"/>
     <use style="fill:#0000ff;stroke:#0000ff;" x="89.700674" xlink:href="#m3d1f0ea611" y="131.501168"/>
     <use style="fill:#0000ff;stroke:#0000ff;" x="93.713258" xlink:href="#m3d1f0ea611" y="115.752462"/>
     <use style="fill:#0000ff;stroke:#0000ff;" x="97.725843" xlink:href="#m3d1f0ea611" y="103.910151"/>
     <use style="fill:#0000ff;stroke:#0000ff;" x="101.738427" xlink:href="#m3d1f0ea611" y="102.139006"/>
     <use style="fill:#0000ff;stroke:#0000ff;" x="105.751011" xlink:href="#m3d1f0ea611" y="88.642542"/>
     <use style="fill:#0000ff;stroke:#0000ff;" x="109.763596" xlink:href="#m3d1f0ea611" y="82.587341"/>
     <use style="fill:#0000ff;stroke:#0000ff;" x="113.77618" xlink:href="#m3d1f0ea611" y="80.127897"/>
     <use style="fill:#0000ff;stroke:#0000ff;" x="117.788764" xlink:href="#m3d1f0ea611" y="79.330026"/>
     <use style="fill:#0000ff;stroke:#0000ff;" x="121.801348" xlink:href="#m3d1f0ea611" y="72.27634"/>
     <use style="fill:#0000ff;stroke:#0000ff;" x="125.813933" xlink:href="#m3d1f0ea611" y="66.493194"/>
     <use style="fill:#0000ff;stroke:#0000ff;" x="129.826517" xlink:href="#m3d1f0ea611" y="67.716388"/>
     <use style="fill:#0000ff;stroke:#0000ff;" x="133.839101" xlink:href="#m3d1f0ea611" y="66.943036"/>
     <use style="fill:#0000ff;stroke:#0000ff;" x="137.851685" xlink:href="#m3d1f0ea611" y="63.340343"/>
     <use style="fill:#0000ff;stroke:#0000ff;" x="141.86427" xlink:href="#m3d1f0ea611" y="61.756516"/>
     <use style="fill:#0000ff;stroke:#0000ff;" x="145.876854" xlink:href="#m3d1f0ea611" y="63.54995"/>
     <use style="fill:#0000ff;stroke:#0000ff;" x="149.889438" xlink:href="#m3d1f0ea611" y="58.603325"/>
     <use style="fill:#0000ff;stroke:#0000ff;" x="153.902022" xlink:href="#m3d1f0ea611" y="58.492806"/>
     <use style="fill:#0000ff;stroke:#0000ff;" x="157.914607" xlink:href="#m3d1f0ea611" y="58.624226"/>
     <use style="fill:#0000ff;stroke:#0000ff;" x="161.927191" xlink:href="#m3d1f0ea611" y="59.900977"/>
     <use style="fill:#0000ff;stroke:#0000ff;" x="165.939775" xlink:href="#m3d1f0ea611" y="62.373362"/>
     <use style="fill:#0000ff;stroke:#0000ff;" x="169.95236" xlink:href="#m3d1f0ea611" y="58.086789"/>
     <use style="fill:#0000ff;stroke:#0000ff;" x="173.964944" xlink:href="#m3d1f0ea611" y="57.537653"/>
     <use style="fill:#0000ff;stroke:#0000ff;" x="177.977528" xlink:href="#m3d1f0ea611" y="61.080152"/>
     <use style="fill:#0000ff;stroke:#0000ff;" x="181.990112" xlink:href="#m3d1f0ea611" y="58.826421"/>
     <use style="fill:#0000ff;stroke:#0000ff;" x="186.002697" xlink:href="#m3d1f0ea611" y="55.086186"/>
     <use style="fill:#0000ff;stroke:#0000ff;" x="190.015281" xlink:href="#m3d1f0ea611" y="53.883673"/>
     <use style="fill:#0000ff;stroke:#0000ff;" x="194.027865" xlink:href="#m3d1f0ea611" y="55.309136"/>
     <use style="fill:#0000ff;stroke:#0000ff;" x="198.040449" xlink:href="#m3d1f0ea611" y="57.67546"/>
     <use style="fill:#0000ff;stroke:#0000ff;" x="202.053034" xlink:href="#m3d1f0ea611" y="53.568"/>
     <use style="fill:#0000ff;stroke:#0000ff;" x="206.065618" xlink:href="#m3d1f0ea611" y="55.891588"/>
     <use style="fill:#0000ff;stroke:#0000ff;" x="210.078202" xlink:href="#m3d1f0ea611" y="59.777203"/>
     <use style="fill:#0000ff;stroke:#0000ff;" x="214.090787" xlink:href="#m3d1f0ea611" y="58.795891"/>
     <use style="fill:#0000ff;stroke:#0000ff;" x="218.103371" xlink:href="#m3d1f0ea611" y="56.421228"/>
     <use style="fill:#0000ff;stroke:#0000ff;" x="222.115955" xlink:href="#m3d1f0ea611" y="57.662754"/>
     <use style="fill:#0000ff;stroke:#0000ff;" x="226.128539" xlink:href="#m3d1f0ea611" y="57.88519"/>
     <use style="fill:#0000ff;stroke:#0000ff;" x="230.141124" xlink:href="#m3d1f0ea611" y="58.058146"/>
     <use style="fill:#0000ff;stroke:#0000ff;" x="234.153708" xlink:href="#m3d1f0ea611" y="58.648551"/>
     <use style="fill:#0000ff;stroke:#0000ff;" x="238.166292" xlink:href="#m3d1f0ea611" y="59.347141"/>
     <use style="fill:#0000ff;stroke:#0000ff;" x="242.178876" xlink:href="#m3d1f0ea611" y="57.189711"/>
     <use style="fill:#0000ff;stroke:#0000ff;" x="246.191461" xlink:href="#m3d1f0ea611" y="61.772468"/>
     <use style="fill:#0000ff;stroke:#0000ff;" x="250.204045" xlink:href="#m3d1f0ea611" y="58.6929"/>
     <use style="fill:#0000ff;stroke:#0000ff;" x="254.216629" xlink:href="#m3d1f0ea611" y="59.397403"/>
     <use style="fill:#0000ff;stroke:#0000ff;" x="258.229213" xlink:href="#m3d1f0ea611" y="65.329946"/>
     <use style="fill:#0000ff;stroke:#0000ff;" x="262.241798" xlink:href="#m3d1f0ea611" y="65.475661"/>
     <use style="fill:#0000ff;stroke:#0000ff;" x="266.254382" xlink:href="#m3d1f0ea611" y="75.403664"/>
     <use style="fill:#0000ff;stroke:#0000ff;" x="270.266966" xlink:href="#m3d1f0ea611" y="60.86258"/>
     <use style="fill:#0000ff;stroke:#0000ff;" x="274.279551" xlink:href="#m3d1f0ea611" y="60.715977"/>
     <use style="fill:#0000ff;stroke:#0000ff;" x="278.292135" xlink:href="#m3d1f0ea611" y="68.318738"/>
     <use style="fill:#0000ff;stroke:#0000ff;" x="282.304719" xlink:href="#m3d1f0ea611" y="60.593447"/>
     <use style="fill:#0000ff;stroke:#0000ff;" x="286.317303" xlink:href="#m3d1f0ea611" y="61.480875"/>
     <use style="fill:#0000ff;stroke:#0000ff;" x="290.329888" xlink:href="#m3d1f0ea611" y="62.15651"/>
     <use style="fill:#0000ff;stroke:#0000ff;" x="294.342472" xlink:href="#m3d1f0ea611" y="60.768733"/>
     <use style="fill:#0000ff;stroke:#0000ff;" x="298.355056" xlink:href="#m3d1f0ea611" y="60.461018"/>
     <use style="fill:#0000ff;stroke:#0000ff;" x="302.36764" xlink:href="#m3d1f0ea611" y="61.894085"/>
     <use style="fill:#0000ff;stroke:#0000ff;" x="306.380225" xlink:href="#m3d1f0ea611" y="64.708784"/>
     <use style="fill:#0000ff;stroke:#0000ff;" x="310.392809" xlink:href="#m3d1f0ea611" y="64.816939"/>
     <use style="fill:#0000ff;stroke:#0000ff;" x="314.405393" xlink:href="#m3d1f0ea611" y="62.082385"/>
     <use style="fill:#0000ff;stroke:#0000ff;" x="318.417978" xlink:href="#m3d1f0ea611" y="63.059102"/>
     <use style="fill:#0000ff;stroke:#0000ff;" x="322.430562" xlink:href="#m3d1f0ea611" y="59.425895"/>
     <use style="fill:#0000ff;stroke:#0000ff;" x="326.443146" xlink:href="#m3d1f0ea611" y="61.956325"/>
     <use style="fill:#0000ff;stroke:#0000ff;" x="330.45573" xlink:href="#m3d1f0ea611" y="65.512883"/>
     <use style="fill:#0000ff;stroke:#0000ff;" x="334.468315" xlink:href="#m3d1f0ea611" y="63.502892"/>
     <use style="fill:#0000ff;stroke:#0000ff;" x="338.480899" xlink:href="#m3d1f0ea611" y="62.218882"/>
     <use style="fill:#0000ff;stroke:#0000ff;" x="342.493483" xlink:href="#m3d1f0ea611" y="62.32627"/>
     <use style="fill:#0000ff;stroke:#0000ff;" x="346.506067" xlink:href="#m3d1f0ea611" y="60.68793"/>
     <use style="fill:#0000ff;stroke:#0000ff;" x="350.518652" xlink:href="#m3d1f0ea611" y="61.63129"/>
     <use style="fill:#0000ff;stroke:#0000ff;" x="354.531236" xlink:href="#m3d1f0ea611" y="62.839574"/>
     <use style="fill:#0000ff;stroke:#0000ff;" x="358.54382" xlink:href="#m3d1f0ea611" y="65.387495"/>
     <use style="fill:#0000ff;stroke:#0000ff;" x="362.556404" xlink:href="#m3d1f0ea611" y="66.351134"/>
     <use style="fill:#0000ff;stroke:#0000ff;" x="366.568989" xlink:href="#m3d1f0ea611" y="65.056165"/>
     <use style="fill:#0000ff;stroke:#0000ff;" x="370.581573" xlink:href="#m3d1f0ea611" y="66.246067"/>
     <use style="fill:#0000ff;stroke:#0000ff;" x="374.594157" xlink:href="#m3d1f0ea611" y="67.248009"/>
     <use style="fill:#0000ff;stroke:#0000ff;" x="378.606742" xlink:href="#m3d1f0ea611" y="67.563244"/>
     <use style="fill:#0000ff;stroke:#0000ff;" x="382.619326" xlink:href="#m3d1f0ea611" y="70.979085"/>
     <use style="fill:#0000ff;stroke:#0000ff;" x="386.63191" xlink:href="#m3d1f0ea611" y="71.142896"/>
     <use style="fill:#0000ff;stroke:#0000ff;" x="390.644494" xlink:href="#m3d1f0ea611" y="71.22978"/>
     <use style="fill:#0000ff;stroke:#0000ff;" x="394.657079" xlink:href="#m3d1f0ea611" y="71.454866"/>
     <use style="fill:#0000ff;stroke:#0000ff;" x="398.669663" xlink:href="#m3d1f0ea611" y="73.475706"/>
     <use style="fill:#0000ff;stroke:#0000ff;" x="402.682247" xlink:href="#m3d1f0ea611" y="71.484609"/>
     <use style="fill:#0000ff;stroke:#0000ff;" x="406.694831" xlink:href="#m3d1f0ea611" y="73.326936"/>
     <use style="fill:#0000ff;stroke:#0000ff;" x="410.707416" xlink:href="#m3d1f0ea611" y="70.960557"/>
    </g>
   </g>
   <g id="line2d_60">
    <path clip-path="url(#p70d2f2b9c5)" d="M 61.612584 293.432597 
L 65.625169 250.64147 
L 69.637753 218.208063 
L 73.650337 194.485532 
L 77.662921 174.685528 
L 81.675506 160.511367 
L 85.68809 145.151755 
L 89.700674 130.504433 
L 93.713258 116.266295 
L 97.725843 111.741084 
L 101.738427 103.941629 
L 105.751011 96.248362 
L 109.763596 89.43865 
L 113.77618 83.156973 
L 117.788764 85.345652 
L 121.801348 78.618105 
L 125.813933 80.809879 
L 129.826517 75.399847 
L 133.839101 75.516925 
L 137.851685 70.465033 
L 141.86427 66.667251 
L 145.876854 73.890889 
L 149.889438 65.135544 
L 153.902022 67.438073 
L 157.914607 62.944754 
L 161.927191 64.809827 
L 165.939775 65.775948 
L 169.95236 64.792265 
L 173.964944 59.699985 
L 177.977528 65.416702 
L 181.990112 64.828753 
L 186.002697 59.886016 
L 190.015281 61.915788 
L 194.027865 63.457141 
L 198.040449 66.343534 
L 202.053034 63.520154 
L 206.065618 63.186299 
L 210.078202 64.248714 
L 214.090787 65.773236 
L 218.103371 64.285028 
L 222.115955 62.049128 
L 226.128539 62.873692 
L 230.141124 68.906222 
L 234.153708 64.017025 
L 238.166292 62.586881 
L 242.178876 64.761305 
L 246.191461 65.853359 
L 250.204045 68.236617 
L 254.216629 71.631406 
L 258.229213 65.300643 
L 262.241798 64.283826 
L 266.254382 70.372425 
L 270.266966 66.070735 
L 274.279551 71.265776 
L 278.292135 72.493521 
L 282.304719 70.393476 
L 286.317303 68.348451 
L 290.329888 70.827736 
L 294.342472 66.250501 
L 298.355056 66.383038 
L 302.36764 69.701483 
L 306.380225 69.597623 
L 310.392809 63.852895 
L 314.405393 76.879867 
L 318.417978 67.271417 
L 322.430562 73.90351 
L 326.443146 73.598229 
L 330.45573 73.366797 
L 334.468315 75.080479 
L 338.480899 70.405543 
L 342.493483 75.409953 
L 346.506067 67.106803 
L 350.518652 74.923224 
L 354.531236 72.41721 
L 358.54382 65.554928 
L 362.556404 78.230873 
L 366.568989 79.295525 
L 370.581573 71.684626 
L 374.594157 77.2159 
L 378.606742 75.49484 
L 382.619326 77.269484 
L 386.63191 80.656137 
L 390.644494 76.634613 
L 394.657079 79.034692 
L 398.669663 77.128235 
L 402.682247 76.802914 
L 406.694831 79.833451 
L 410.707416 79.567621 
" style="fill:none;stroke:#ff0000;stroke-dasharray:1.5,2.475;stroke-dashoffset:0;stroke-width:1.5;"/>
    <defs>
     <path d="M 0 1.5 
C 0.397805 1.5 0.77937 1.341951 1.06066 1.06066 
C 1.341951 0.77937 1.5 0.397805 1.5 0 
C 1.5 -0.397805 1.341951 -0.77937 1.06066 -1.06066 
C 0.77937 -1.341951 0.397805 -1.5 0 -1.5 
C -0.397805 -1.5 -0.77937 -1.341951 -1.06066 -1.06066 
C -1.341951 -0.77937 -1.5 -0.397805 -1.5 0 
C -1.5 0.397805 -1.341951 0.77937 -1.06066 1.06066 
C -0.77937 1.341951 -0.397805 1.5 0 1.5 
z
" id="m68e17370b0" style="stroke:#ff0000;"/>
    </defs>
    <g clip-path="url(#p70d2f2b9c5)">
     <use style="fill:#ff0000;stroke:#ff0000;" x="61.612584" xlink:href="#m68e17370b0" y="293.432597"/>
     <use style="fill:#ff0000;stroke:#ff0000;" x="65.625169" xlink:href="#m68e17370b0" y="250.64147"/>
     <use style="fill:#ff0000;stroke:#ff0000;" x="69.637753" xlink:href="#m68e17370b0" y="218.208063"/>
     <use style="fill:#ff0000;stroke:#ff0000;" x="73.650337" xlink:href="#m68e17370b0" y="194.485532"/>
     <use style="fill:#ff0000;stroke:#ff0000;" x="77.662921" xlink:href="#m68e17370b0" y="174.685528"/>
     <use style="fill:#ff0000;stroke:#ff0000;" x="81.675506" xlink:href="#m68e17370b0" y="160.511367"/>
     <use style="fill:#ff0000;stroke:#ff0000;" x="85.68809" xlink:href="#m68e17370b0" y="145.151755"/>
     <use style="fill:#ff0000;stroke:#ff0000;" x="89.700674" xlink:href="#m68e17370b0" y="130.504433"/>
     <use style="fill:#ff0000;stroke:#ff0000;" x="93.713258" xlink:href="#m68e17370b0" y="116.266295"/>
     <use style="fill:#ff0000;stroke:#ff0000;" x="97.725843" xlink:href="#m68e17370b0" y="111.741084"/>
     <use style="fill:#ff0000;stroke:#ff0000;" x="101.738427" xlink:href="#m68e17370b0" y="103.941629"/>
     <use style="fill:#ff0000;stroke:#ff0000;" x="105.751011" xlink:href="#m68e17370b0" y="96.248362"/>
     <use style="fill:#ff0000;stroke:#ff0000;" x="109.763596" xlink:href="#m68e17370b0" y="89.43865"/>
     <use style="fill:#ff0000;stroke:#ff0000;" x="113.77618" xlink:href="#m68e17370b0" y="83.156973"/>
     <use style="fill:#ff0000;stroke:#ff0000;" x="117.788764" xlink:href="#m68e17370b0" y="85.345652"/>
     <use style="fill:#ff0000;stroke:#ff0000;" x="121.801348" xlink:href="#m68e17370b0" y="78.618105"/>
     <use style="fill:#ff0000;stroke:#ff0000;" x="125.813933" xlink:href="#m68e17370b0" y="80.809879"/>
     <use style="fill:#ff0000;stroke:#ff0000;" x="129.826517" xlink:href="#m68e17370b0" y="75.399847"/>
     <use style="fill:#ff0000;stroke:#ff0000;" x="133.839101" xlink:href="#m68e17370b0" y="75.516925"/>
     <use style="fill:#ff0000;stroke:#ff0000;" x="137.851685" xlink:href="#m68e17370b0" y="70.465033"/>
     <use style="fill:#ff0000;stroke:#ff0000;" x="141.86427" xlink:href="#m68e17370b0" y="66.667251"/>
     <use style="fill:#ff0000;stroke:#ff0000;" x="145.876854" xlink:href="#m68e17370b0" y="73.890889"/>
     <use style="fill:#ff0000;stroke:#ff0000;" x="149.889438" xlink:href="#m68e17370b0" y="65.135544"/>
     <use style="fill:#ff0000;stroke:#ff0000;" x="153.902022" xlink:href="#m68e17370b0" y="67.438073"/>
     <use style="fill:#ff0000;stroke:#ff0000;" x="157.914607" xlink:href="#m68e17370b0" y="62.944754"/>
     <use style="fill:#ff0000;stroke:#ff0000;" x="161.927191" xlink:href="#m68e17370b0" y="64.809827"/>
     <use style="fill:#ff0000;stroke:#ff0000;" x="165.939775" xlink:href="#m68e17370b0" y="65.775948"/>
     <use style="fill:#ff0000;stroke:#ff0000;" x="169.95236" xlink:href="#m68e17370b0" y="64.792265"/>
     <use style="fill:#ff0000;stroke:#ff0000;" x="173.964944" xlink:href="#m68e17370b0" y="59.699985"/>
     <use style="fill:#ff0000;stroke:#ff0000;" x="177.977528" xlink:href="#m68e17370b0" y="65.416702"/>
     <use style="fill:#ff0000;stroke:#ff0000;" x="181.990112" xlink:href="#m68e17370b0" y="64.828753"/>
     <use style="fill:#ff0000;stroke:#ff0000;" x="186.002697" xlink:href="#m68e17370b0" y="59.886016"/>
     <use style="fill:#ff0000;stroke:#ff0000;" x="190.015281" xlink:href="#m68e17370b0" y="61.915788"/>
     <use style="fill:#ff0000;stroke:#ff0000;" x="194.027865" xlink:href="#m68e17370b0" y="63.457141"/>
     <use style="fill:#ff0000;stroke:#ff0000;" x="198.040449" xlink:href="#m68e17370b0" y="66.343534"/>
     <use style="fill:#ff0000;stroke:#ff0000;" x="202.053034" xlink:href="#m68e17370b0" y="63.520154"/>
     <use style="fill:#ff0000;stroke:#ff0000;" x="206.065618" xlink:href="#m68e17370b0" y="63.186299"/>
     <use style="fill:#ff0000;stroke:#ff0000;" x="210.078202" xlink:href="#m68e17370b0" y="64.248714"/>
     <use style="fill:#ff0000;stroke:#ff0000;" x="214.090787" xlink:href="#m68e17370b0" y="65.773236"/>
     <use style="fill:#ff0000;stroke:#ff0000;" x="218.103371" xlink:href="#m68e17370b0" y="64.285028"/>
     <use style="fill:#ff0000;stroke:#ff0000;" x="222.115955" xlink:href="#m68e17370b0" y="62.049128"/>
     <use style="fill:#ff0000;stroke:#ff0000;" x="226.128539" xlink:href="#m68e17370b0" y="62.873692"/>
     <use style="fill:#ff0000;stroke:#ff0000;" x="230.141124" xlink:href="#m68e17370b0" y="68.906222"/>
     <use style="fill:#ff0000;stroke:#ff0000;" x="234.153708" xlink:href="#m68e17370b0" y="64.017025"/>
     <use style="fill:#ff0000;stroke:#ff0000;" x="238.166292" xlink:href="#m68e17370b0" y="62.586881"/>
     <use style="fill:#ff0000;stroke:#ff0000;" x="242.178876" xlink:href="#m68e17370b0" y="64.761305"/>
     <use style="fill:#ff0000;stroke:#ff0000;" x="246.191461" xlink:href="#m68e17370b0" y="65.853359"/>
     <use style="fill:#ff0000;stroke:#ff0000;" x="250.204045" xlink:href="#m68e17370b0" y="68.236617"/>
     <use style="fill:#ff0000;stroke:#ff0000;" x="254.216629" xlink:href="#m68e17370b0" y="71.631406"/>
     <use style="fill:#ff0000;stroke:#ff0000;" x="258.229213" xlink:href="#m68e17370b0" y="65.300643"/>
     <use style="fill:#ff0000;stroke:#ff0000;" x="262.241798" xlink:href="#m68e17370b0" y="64.283826"/>
     <use style="fill:#ff0000;stroke:#ff0000;" x="266.254382" xlink:href="#m68e17370b0" y="70.372425"/>
     <use style="fill:#ff0000;stroke:#ff0000;" x="270.266966" xlink:href="#m68e17370b0" y="66.070735"/>
     <use style="fill:#ff0000;stroke:#ff0000;" x="274.279551" xlink:href="#m68e17370b0" y="71.265776"/>
     <use style="fill:#ff0000;stroke:#ff0000;" x="278.292135" xlink:href="#m68e17370b0" y="72.493521"/>
     <use style="fill:#ff0000;stroke:#ff0000;" x="282.304719" xlink:href="#m68e17370b0" y="70.393476"/>
     <use style="fill:#ff0000;stroke:#ff0000;" x="286.317303" xlink:href="#m68e17370b0" y="68.348451"/>
     <use style="fill:#ff0000;stroke:#ff0000;" x="290.329888" xlink:href="#m68e17370b0" y="70.827736"/>
     <use style="fill:#ff0000;stroke:#ff0000;" x="294.342472" xlink:href="#m68e17370b0" y="66.250501"/>
     <use style="fill:#ff0000;stroke:#ff0000;" x="298.355056" xlink:href="#m68e17370b0" y="66.383038"/>
     <use style="fill:#ff0000;stroke:#ff0000;" x="302.36764" xlink:href="#m68e17370b0" y="69.701483"/>
     <use style="fill:#ff0000;stroke:#ff0000;" x="306.380225" xlink:href="#m68e17370b0" y="69.597623"/>
     <use style="fill:#ff0000;stroke:#ff0000;" x="310.392809" xlink:href="#m68e17370b0" y="63.852895"/>
     <use style="fill:#ff0000;stroke:#ff0000;" x="314.405393" xlink:href="#m68e17370b0" y="76.879867"/>
     <use style="fill:#ff0000;stroke:#ff0000;" x="318.417978" xlink:href="#m68e17370b0" y="67.271417"/>
     <use style="fill:#ff0000;stroke:#ff0000;" x="322.430562" xlink:href="#m68e17370b0" y="73.90351"/>
     <use style="fill:#ff0000;stroke:#ff0000;" x="326.443146" xlink:href="#m68e17370b0" y="73.598229"/>
     <use style="fill:#ff0000;stroke:#ff0000;" x="330.45573" xlink:href="#m68e17370b0" y="73.366797"/>
     <use style="fill:#ff0000;stroke:#ff0000;" x="334.468315" xlink:href="#m68e17370b0" y="75.080479"/>
     <use style="fill:#ff0000;stroke:#ff0000;" x="338.480899" xlink:href="#m68e17370b0" y="70.405543"/>
     <use style="fill:#ff0000;stroke:#ff0000;" x="342.493483" xlink:href="#m68e17370b0" y="75.409953"/>
     <use style="fill:#ff0000;stroke:#ff0000;" x="346.506067" xlink:href="#m68e17370b0" y="67.106803"/>
     <use style="fill:#ff0000;stroke:#ff0000;" x="350.518652" xlink:href="#m68e17370b0" y="74.923224"/>
     <use style="fill:#ff0000;stroke:#ff0000;" x="354.531236" xlink:href="#m68e17370b0" y="72.41721"/>
     <use style="fill:#ff0000;stroke:#ff0000;" x="358.54382" xlink:href="#m68e17370b0" y="65.554928"/>
     <use style="fill:#ff0000;stroke:#ff0000;" x="362.556404" xlink:href="#m68e17370b0" y="78.230873"/>
     <use style="fill:#ff0000;stroke:#ff0000;" x="366.568989" xlink:href="#m68e17370b0" y="79.295525"/>
     <use style="fill:#ff0000;stroke:#ff0000;" x="370.581573" xlink:href="#m68e17370b0" y="71.684626"/>
     <use style="fill:#ff0000;stroke:#ff0000;" x="374.594157" xlink:href="#m68e17370b0" y="77.2159"/>
     <use style="fill:#ff0000;stroke:#ff0000;" x="378.606742" xlink:href="#m68e17370b0" y="75.49484"/>
     <use style="fill:#ff0000;stroke:#ff0000;" x="382.619326" xlink:href="#m68e17370b0" y="77.269484"/>
     <use style="fill:#ff0000;stroke:#ff0000;" x="386.63191" xlink:href="#m68e17370b0" y="80.656137"/>
     <use style="fill:#ff0000;stroke:#ff0000;" x="390.644494" xlink:href="#m68e17370b0" y="76.634613"/>
     <use style="fill:#ff0000;stroke:#ff0000;" x="394.657079" xlink:href="#m68e17370b0" y="79.034692"/>
     <use style="fill:#ff0000;stroke:#ff0000;" x="398.669663" xlink:href="#m68e17370b0" y="77.128235"/>
     <use style="fill:#ff0000;stroke:#ff0000;" x="402.682247" xlink:href="#m68e17370b0" y="76.802914"/>
     <use style="fill:#ff0000;stroke:#ff0000;" x="406.694831" xlink:href="#m68e17370b0" y="79.833451"/>
     <use style="fill:#ff0000;stroke:#ff0000;" x="410.707416" xlink:href="#m68e17370b0" y="79.567621"/>
    </g>
   </g>
   <g id="line2d_61">
    <path clip-path="url(#p70d2f2b9c5)" d="M 61.612584 294.460299 
L 65.625169 252.563023 
L 69.637753 220.78244 
L 73.650337 196.671628 
L 77.662921 175.045488 
L 81.675506 159.940034 
L 85.68809 143.201814 
L 89.700674 131.002801 
L 93.713258 116.009378 
L 97.725843 107.825618 
L 101.738427 103.040317 
L 105.751011 92.445452 
L 109.763596 86.012995 
L 113.77618 81.642435 
L 117.788764 82.337839 
L 121.801348 75.447222 
L 125.813933 73.651536 
L 129.826517 71.558117 
L 133.839101 71.229981 
L 137.851685 66.902688 
L 141.86427 64.211883 
L 145.876854 68.72042 
L 149.889438 61.869435 
L 153.902022 62.96544 
L 157.914607 60.78449 
L 161.927191 62.355402 
L 165.939775 64.074655 
L 169.95236 61.439527 
L 173.964944 58.618819 
L 177.977528 63.248427 
L 181.990112 61.827587 
L 186.002697 57.486101 
L 190.015281 57.89973 
L 194.027865 59.383138 
L 198.040449 62.009497 
L 202.053034 58.544077 
L 206.065618 59.538943 
L 210.078202 62.012958 
L 214.090787 62.284563 
L 218.103371 60.353128 
L 222.115955 59.855941 
L 226.128539 60.379441 
L 230.141124 63.482184 
L 234.153708 61.332788 
L 238.166292 60.967011 
L 242.178876 60.975508 
L 246.191461 63.812914 
L 250.204045 63.464758 
L 254.216629 65.514404 
L 258.229213 65.315295 
L 262.241798 64.879743 
L 266.254382 72.888044 
L 270.266966 63.466657 
L 274.279551 65.990877 
L 278.292135 70.40613 
L 282.304719 65.493462 
L 286.317303 64.914663 
L 290.329888 66.492123 
L 294.342472 63.509617 
L 298.355056 63.422028 
L 302.36764 65.797784 
L 306.380225 67.153203 
L 310.392809 64.334917 
L 314.405393 69.481126 
L 318.417978 65.165259 
L 322.430562 66.664702 
L 326.443146 67.777277 
L 330.45573 69.43984 
L 334.468315 69.291685 
L 338.480899 66.312212 
L 342.493483 68.868112 
L 346.506067 63.897367 
L 350.518652 68.277257 
L 354.531236 67.628392 
L 358.54382 65.471211 
L 362.556404 72.291004 
L 366.568989 72.175845 
L 370.581573 68.965347 
L 374.594157 72.231954 
L 378.606742 71.529042 
L 382.619326 74.124285 
L 386.63191 75.899516 
L 390.644494 73.932197 
L 394.657079 75.244779 
L 398.669663 75.301971 
L 402.682247 74.143761 
L 406.694831 76.580193 
L 410.707416 75.264089 
" style="fill:none;stroke:#008000;stroke-dasharray:1.5,2.475;stroke-dashoffset:0;stroke-width:1.5;"/>
    <defs>
     <path d="M 0 1.5 
C 0.397805 1.5 0.77937 1.341951 1.06066 1.06066 
C 1.341951 0.77937 1.5 0.397805 1.5 0 
C 1.5 -0.397805 1.341951 -0.77937 1.06066 -1.06066 
C 0.77937 -1.341951 0.397805 -1.5 0 -1.5 
C -0.397805 -1.5 -0.77937 -1.341951 -1.06066 -1.06066 
C -1.341951 -0.77937 -1.5 -0.397805 -1.5 0 
C -1.5 0.397805 -1.341951 0.77937 -1.06066 1.06066 
C -0.77937 1.341951 -0.397805 1.5 0 1.5 
z
" id="mbcd6eb6911" style="stroke:#008000;"/>
    </defs>
    <g clip-path="url(#p70d2f2b9c5)">
     <use style="fill:#008000;stroke:#008000;" x="61.612584" xlink:href="#mbcd6eb6911" y="294.460299"/>
     <use style="fill:#008000;stroke:#008000;" x="65.625169" xlink:href="#mbcd6eb6911" y="252.563023"/>
     <use style="fill:#008000;stroke:#008000;" x="69.637753" xlink:href="#mbcd6eb6911" y="220.78244"/>
     <use style="fill:#008000;stroke:#008000;" x="73.650337" xlink:href="#mbcd6eb6911" y="196.671628"/>
     <use style="fill:#008000;stroke:#008000;" x="77.662921" xlink:href="#mbcd6eb6911" y="175.045488"/>
     <use style="fill:#008000;stroke:#008000;" x="81.675506" xlink:href="#mbcd6eb6911" y="159.940034"/>
     <use style="fill:#008000;stroke:#008000;" x="85.68809" xlink:href="#mbcd6eb6911" y="143.201814"/>
     <use style="fill:#008000;stroke:#008000;" x="89.700674" xlink:href="#mbcd6eb6911" y="131.002801"/>
     <use style="fill:#008000;stroke:#008000;" x="93.713258" xlink:href="#mbcd6eb6911" y="116.009378"/>
     <use style="fill:#008000;stroke:#008000;" x="97.725843" xlink:href="#mbcd6eb6911" y="107.825618"/>
     <use style="fill:#008000;stroke:#008000;" x="101.738427" xlink:href="#mbcd6eb6911" y="103.040317"/>
     <use style="fill:#008000;stroke:#008000;" x="105.751011" xlink:href="#mbcd6eb6911" y="92.445452"/>
     <use style="fill:#008000;stroke:#008000;" x="109.763596" xlink:href="#mbcd6eb6911" y="86.012995"/>
     <use style="fill:#008000;stroke:#008000;" x="113.77618" xlink:href="#mbcd6eb6911" y="81.642435"/>
     <use style="fill:#008000;stroke:#008000;" x="117.788764" xlink:href="#mbcd6eb6911" y="82.337839"/>
     <use style="fill:#008000;stroke:#008000;" x="121.801348" xlink:href="#mbcd6eb6911" y="75.447222"/>
     <use style="fill:#008000;stroke:#008000;" x="125.813933" xlink:href="#mbcd6eb6911" y="73.651536"/>
     <use style="fill:#008000;stroke:#008000;" x="129.826517" xlink:href="#mbcd6eb6911" y="71.558117"/>
     <use style="fill:#008000;stroke:#008000;" x="133.839101" xlink:href="#mbcd6eb6911" y="71.229981"/>
     <use style="fill:#008000;stroke:#008000;" x="137.851685" xlink:href="#mbcd6eb6911" y="66.902688"/>
     <use style="fill:#008000;stroke:#008000;" x="141.86427" xlink:href="#mbcd6eb6911" y="64.211883"/>
     <use style="fill:#008000;stroke:#008000;" x="145.876854" xlink:href="#mbcd6eb6911" y="68.72042"/>
     <use style="fill:#008000;stroke:#008000;" x="149.889438" xlink:href="#mbcd6eb6911" y="61.869435"/>
     <use style="fill:#008000;stroke:#008000;" x="153.902022" xlink:href="#mbcd6eb6911" y="62.96544"/>
     <use style="fill:#008000;stroke:#008000;" x="157.914607" xlink:href="#mbcd6eb6911" y="60.78449"/>
     <use style="fill:#008000;stroke:#008000;" x="161.927191" xlink:href="#mbcd6eb6911" y="62.355402"/>
     <use style="fill:#008000;stroke:#008000;" x="165.939775" xlink:href="#mbcd6eb6911" y="64.074655"/>
     <use style="fill:#008000;stroke:#008000;" x="169.95236" xlink:href="#mbcd6eb6911" y="61.439527"/>
     <use style="fill:#008000;stroke:#008000;" x="173.964944" xlink:href="#mbcd6eb6911" y="58.618819"/>
     <use style="fill:#008000;stroke:#008000;" x="177.977528" xlink:href="#mbcd6eb6911" y="63.248427"/>
     <use style="fill:#008000;stroke:#008000;" x="181.990112" xlink:href="#mbcd6eb6911" y="61.827587"/>
     <use style="fill:#008000;stroke:#008000;" x="186.002697" xlink:href="#mbcd6eb6911" y="57.486101"/>
     <use style="fill:#008000;stroke:#008000;" x="190.015281" xlink:href="#mbcd6eb6911" y="57.89973"/>
     <use style="fill:#008000;stroke:#008000;" x="194.027865" xlink:href="#mbcd6eb6911" y="59.383138"/>
     <use style="fill:#008000;stroke:#008000;" x="198.040449" xlink:href="#mbcd6eb6911" y="62.009497"/>
     <use style="fill:#008000;stroke:#008000;" x="202.053034" xlink:href="#mbcd6eb6911" y="58.544077"/>
     <use style="fill:#008000;stroke:#008000;" x="206.065618" xlink:href="#mbcd6eb6911" y="59.538943"/>
     <use style="fill:#008000;stroke:#008000;" x="210.078202" xlink:href="#mbcd6eb6911" y="62.012958"/>
     <use style="fill:#008000;stroke:#008000;" x="214.090787" xlink:href="#mbcd6eb6911" y="62.284563"/>
     <use style="fill:#008000;stroke:#008000;" x="218.103371" xlink:href="#mbcd6eb6911" y="60.353128"/>
     <use style="fill:#008000;stroke:#008000;" x="222.115955" xlink:href="#mbcd6eb6911" y="59.855941"/>
     <use style="fill:#008000;stroke:#008000;" x="226.128539" xlink:href="#mbcd6eb6911" y="60.379441"/>
     <use style="fill:#008000;stroke:#008000;" x="230.141124" xlink:href="#mbcd6eb6911" y="63.482184"/>
     <use style="fill:#008000;stroke:#008000;" x="234.153708" xlink:href="#mbcd6eb6911" y="61.332788"/>
     <use style="fill:#008000;stroke:#008000;" x="238.166292" xlink:href="#mbcd6eb6911" y="60.967011"/>
     <use style="fill:#008000;stroke:#008000;" x="242.178876" xlink:href="#mbcd6eb6911" y="60.975508"/>
     <use style="fill:#008000;stroke:#008000;" x="246.191461" xlink:href="#mbcd6eb6911" y="63.812914"/>
     <use style="fill:#008000;stroke:#008000;" x="250.204045" xlink:href="#mbcd6eb6911" y="63.464758"/>
     <use style="fill:#008000;stroke:#008000;" x="254.216629" xlink:href="#mbcd6eb6911" y="65.514404"/>
     <use style="fill:#008000;stroke:#008000;" x="258.229213" xlink:href="#mbcd6eb6911" y="65.315295"/>
     <use style="fill:#008000;stroke:#008000;" x="262.241798" xlink:href="#mbcd6eb6911" y="64.879743"/>
     <use style="fill:#008000;stroke:#008000;" x="266.254382" xlink:href="#mbcd6eb6911" y="72.888044"/>
     <use style="fill:#008000;stroke:#008000;" x="270.266966" xlink:href="#mbcd6eb6911" y="63.466657"/>
     <use style="fill:#008000;stroke:#008000;" x="274.279551" xlink:href="#mbcd6eb6911" y="65.990877"/>
     <use style="fill:#008000;stroke:#008000;" x="278.292135" xlink:href="#mbcd6eb6911" y="70.40613"/>
     <use style="fill:#008000;stroke:#008000;" x="282.304719" xlink:href="#mbcd6eb6911" y="65.493462"/>
     <use style="fill:#008000;stroke:#008000;" x="286.317303" xlink:href="#mbcd6eb6911" y="64.914663"/>
     <use style="fill:#008000;stroke:#008000;" x="290.329888" xlink:href="#mbcd6eb6911" y="66.492123"/>
     <use style="fill:#008000;stroke:#008000;" x="294.342472" xlink:href="#mbcd6eb6911" y="63.509617"/>
     <use style="fill:#008000;stroke:#008000;" x="298.355056" xlink:href="#mbcd6eb6911" y="63.422028"/>
     <use style="fill:#008000;stroke:#008000;" x="302.36764" xlink:href="#mbcd6eb6911" y="65.797784"/>
     <use style="fill:#008000;stroke:#008000;" x="306.380225" xlink:href="#mbcd6eb6911" y="67.153203"/>
     <use style="fill:#008000;stroke:#008000;" x="310.392809" xlink:href="#mbcd6eb6911" y="64.334917"/>
     <use style="fill:#008000;stroke:#008000;" x="314.405393" xlink:href="#mbcd6eb6911" y="69.481126"/>
     <use style="fill:#008000;stroke:#008000;" x="318.417978" xlink:href="#mbcd6eb6911" y="65.165259"/>
     <use style="fill:#008000;stroke:#008000;" x="322.430562" xlink:href="#mbcd6eb6911" y="66.664702"/>
     <use style="fill:#008000;stroke:#008000;" x="326.443146" xlink:href="#mbcd6eb6911" y="67.777277"/>
     <use style="fill:#008000;stroke:#008000;" x="330.45573" xlink:href="#mbcd6eb6911" y="69.43984"/>
     <use style="fill:#008000;stroke:#008000;" x="334.468315" xlink:href="#mbcd6eb6911" y="69.291685"/>
     <use style="fill:#008000;stroke:#008000;" x="338.480899" xlink:href="#mbcd6eb6911" y="66.312212"/>
     <use style="fill:#008000;stroke:#008000;" x="342.493483" xlink:href="#mbcd6eb6911" y="68.868112"/>
     <use style="fill:#008000;stroke:#008000;" x="346.506067" xlink:href="#mbcd6eb6911" y="63.897367"/>
     <use style="fill:#008000;stroke:#008000;" x="350.518652" xlink:href="#mbcd6eb6911" y="68.277257"/>
     <use style="fill:#008000;stroke:#008000;" x="354.531236" xlink:href="#mbcd6eb6911" y="67.628392"/>
     <use style="fill:#008000;stroke:#008000;" x="358.54382" xlink:href="#mbcd6eb6911" y="65.471211"/>
     <use style="fill:#008000;stroke:#008000;" x="362.556404" xlink:href="#mbcd6eb6911" y="72.291004"/>
     <use style="fill:#008000;stroke:#008000;" x="366.568989" xlink:href="#mbcd6eb6911" y="72.175845"/>
     <use style="fill:#008000;stroke:#008000;" x="370.581573" xlink:href="#mbcd6eb6911" y="68.965347"/>
     <use style="fill:#008000;stroke:#008000;" x="374.594157" xlink:href="#mbcd6eb6911" y="72.231954"/>
     <use style="fill:#008000;stroke:#008000;" x="378.606742" xlink:href="#mbcd6eb6911" y="71.529042"/>
     <use style="fill:#008000;stroke:#008000;" x="382.619326" xlink:href="#mbcd6eb6911" y="74.124285"/>
     <use style="fill:#008000;stroke:#008000;" x="386.63191" xlink:href="#mbcd6eb6911" y="75.899516"/>
     <use style="fill:#008000;stroke:#008000;" x="390.644494" xlink:href="#mbcd6eb6911" y="73.932197"/>
     <use style="fill:#008000;stroke:#008000;" x="394.657079" xlink:href="#mbcd6eb6911" y="75.244779"/>
     <use style="fill:#008000;stroke:#008000;" x="398.669663" xlink:href="#mbcd6eb6911" y="75.301971"/>
     <use style="fill:#008000;stroke:#008000;" x="402.682247" xlink:href="#mbcd6eb6911" y="74.143761"/>
     <use style="fill:#008000;stroke:#008000;" x="406.694831" xlink:href="#mbcd6eb6911" y="76.580193"/>
     <use style="fill:#008000;stroke:#008000;" x="410.707416" xlink:href="#mbcd6eb6911" y="75.264089"/>
    </g>
   </g>
   <g id="patch_3">
    <path d="M 57.6 307.584 
L 57.6 41.472 
" style="fill:none;stroke:#000000;stroke-linecap:square;stroke-linejoin:miter;stroke-width:0.8;"/>
   </g>
   <g id="patch_4">
    <path d="M 414.72 307.584 
L 414.72 41.472 
" style="fill:none;stroke:#000000;stroke-linecap:square;stroke-linejoin:miter;stroke-width:0.8;"/>
   </g>
   <g id="patch_5">
    <path d="M 57.6 307.584 
L 414.72 307.584 
" style="fill:none;stroke:#000000;stroke-linecap:square;stroke-linejoin:miter;stroke-width:0.8;"/>
   </g>
   <g id="patch_6">
    <path d="M 57.6 41.472 
L 414.72 41.472 
" style="fill:none;stroke:#000000;stroke-linecap:square;stroke-linejoin:miter;stroke-width:0.8;"/>
   </g>
   <g id="text_32">
    <!-- tbb::parallel_sort O2 OMP AVX2 on pre_transpose51 -->
    <defs>
     <path d="M 48.6875 27.296875 
Q 48.6875 37.203125 44.609375 42.84375 
Q 40.53125 48.484375 33.40625 48.484375 
Q 26.265625 48.484375 22.1875 42.84375 
Q 18.109375 37.203125 18.109375 27.296875 
Q 18.109375 17.390625 22.1875 11.75 
Q 26.265625 6.109375 33.40625 6.109375 
Q 40.53125 6.109375 44.609375 11.75 
Q 48.6875 17.390625 48.6875 27.296875 
z
M 18.109375 46.390625 
Q 20.953125 51.265625 25.265625 53.625 
Q 29.59375 56 35.59375 56 
Q 45.5625 56 51.78125 48.09375 
Q 58.015625 40.1875 58.015625 27.296875 
Q 58.015625 14.40625 51.78125 6.484375 
Q 45.5625 -1.421875 35.59375 -1.421875 
Q 29.59375 -1.421875 25.265625 0.953125 
Q 20.953125 3.328125 18.109375 8.203125 
L 18.109375 0 
L 9.078125 0 
L 9.078125 75.984375 
L 18.109375 75.984375 
z
" id="DejaVuSans-98"/>
     <path d="M 11.71875 12.40625 
L 22.015625 12.40625 
L 22.015625 0 
L 11.71875 0 
z
M 11.71875 51.703125 
L 22.015625 51.703125 
L 22.015625 39.3125 
L 11.71875 39.3125 
z
" id="DejaVuSans-58"/>
     <path d="M 9.421875 75.984375 
L 18.40625 75.984375 
L 18.40625 0 
L 9.421875 0 
z
" id="DejaVuSans-108"/>
     <path d="M 50.984375 -16.609375 
L 50.984375 -23.578125 
L -0.984375 -23.578125 
L -0.984375 -16.609375 
z
" id="DejaVuSans-95"/>
     <path d="M 30.609375 48.390625 
Q 23.390625 48.390625 19.1875 42.75 
Q 14.984375 37.109375 14.984375 27.296875 
Q 14.984375 17.484375 19.15625 11.84375 
Q 23.34375 6.203125 30.609375 6.203125 
Q 37.796875 6.203125 41.984375 11.859375 
Q 46.1875 17.53125 46.1875 27.296875 
Q 46.1875 37.015625 41.984375 42.703125 
Q 37.796875 48.390625 30.609375 48.390625 
z
M 30.609375 56 
Q 42.328125 56 49.015625 48.375 
Q 55.71875 40.765625 55.71875 27.296875 
Q 55.71875 13.875 49.015625 6.21875 
Q 42.328125 -1.421875 30.609375 -1.421875 
Q 18.84375 -1.421875 12.171875 6.21875 
Q 5.515625 13.875 5.515625 27.296875 
Q 5.515625 40.765625 12.171875 48.375 
Q 18.84375 56 30.609375 56 
z
" id="DejaVuSans-111"/>
     <path d="M 39.40625 66.21875 
Q 28.65625 66.21875 22.328125 58.203125 
Q 16.015625 50.203125 16.015625 36.375 
Q 16.015625 22.609375 22.328125 14.59375 
Q 28.65625 6.59375 39.40625 6.59375 
Q 50.140625 6.59375 56.421875 14.59375 
Q 62.703125 22.609375 62.703125 36.375 
Q 62.703125 50.203125 56.421875 58.203125 
Q 50.140625 66.21875 39.40625 66.21875 
z
M 39.40625 74.21875 
Q 54.734375 74.21875 63.90625 63.9375 
Q 73.09375 53.65625 73.09375 36.375 
Q 73.09375 19.140625 63.90625 8.859375 
Q 54.734375 -1.421875 39.40625 -1.421875 
Q 24.03125 -1.421875 14.8125 8.828125 
Q 5.609375 19.09375 5.609375 36.375 
Q 5.609375 53.65625 14.8125 63.9375 
Q 24.03125 74.21875 39.40625 74.21875 
z
" id="DejaVuSans-79"/>
     <path d="M 9.8125 72.90625 
L 24.515625 72.90625 
L 43.109375 23.296875 
L 61.8125 72.90625 
L 76.515625 72.90625 
L 76.515625 0 
L 66.890625 0 
L 66.890625 64.015625 
L 48.09375 14.015625 
L 38.1875 14.015625 
L 19.390625 64.015625 
L 19.390625 0 
L 9.8125 0 
z
" id="DejaVuSans-77"/>
     <path d="M 19.671875 64.796875 
L 19.671875 37.40625 
L 32.078125 37.40625 
Q 38.96875 37.40625 42.71875 40.96875 
Q 46.484375 44.53125 46.484375 51.125 
Q 46.484375 57.671875 42.71875 61.234375 
Q 38.96875 64.796875 32.078125 64.796875 
z
M 9.8125 72.90625 
L 32.078125 72.90625 
Q 44.34375 72.90625 50.609375 67.359375 
Q 56.890625 61.8125 56.890625 51.125 
Q 56.890625 40.328125 50.609375 34.8125 
Q 44.34375 29.296875 32.078125 29.296875 
L 19.671875 29.296875 
L 19.671875 0 
L 9.8125 0 
z
" id="DejaVuSans-80"/>
     <path d="M 34.1875 63.1875 
L 20.796875 26.90625 
L 47.609375 26.90625 
z
M 28.609375 72.90625 
L 39.796875 72.90625 
L 67.578125 0 
L 57.328125 0 
L 50.6875 18.703125 
L 17.828125 18.703125 
L 11.1875 0 
L 0.78125 0 
z
" id="DejaVuSans-65"/>
     <path d="M 28.609375 0 
L 0.78125 72.90625 
L 11.078125 72.90625 
L 34.1875 11.53125 
L 57.328125 72.90625 
L 67.578125 72.90625 
L 39.796875 0 
z
" id="DejaVuSans-86"/>
     <path d="M 6.296875 72.90625 
L 16.890625 72.90625 
L 35.015625 45.796875 
L 53.21875 72.90625 
L 63.8125 72.90625 
L 40.375 37.890625 
L 65.375 0 
L 54.78125 0 
L 34.28125 31 
L 13.625 0 
L 2.984375 0 
L 29 38.921875 
z
" id="DejaVuSans-88"/>
     <path d="M 54.890625 33.015625 
L 54.890625 0 
L 45.90625 0 
L 45.90625 32.71875 
Q 45.90625 40.484375 42.875 44.328125 
Q 39.84375 48.1875 33.796875 48.1875 
Q 26.515625 48.1875 22.3125 43.546875 
Q 18.109375 38.921875 18.109375 30.90625 
L 18.109375 0 
L 9.078125 0 
L 9.078125 54.6875 
L 18.109375 54.6875 
L 18.109375 46.1875 
Q 21.34375 51.125 25.703125 53.5625 
Q 30.078125 56 35.796875 56 
Q 45.21875 56 50.046875 50.171875 
Q 54.890625 44.34375 54.890625 33.015625 
z
" id="DejaVuSans-110"/>
    </defs>
    <g transform="translate(80.200312 35.472)scale(0.12 -0.12)">
     <use xlink:href="#DejaVuSans-116"/>
     <use x="39.208984" xlink:href="#DejaVuSans-98"/>
     <use x="102.685547" xlink:href="#DejaVuSans-98"/>
     <use x="166.162109" xlink:href="#DejaVuSans-58"/>
     <use x="199.853516" xlink:href="#DejaVuSans-58"/>
     <use x="233.544922" xlink:href="#DejaVuSans-112"/>
     <use x="297.021484" xlink:href="#DejaVuSans-97"/>
     <use x="358.300781" xlink:href="#DejaVuSans-114"/>
     <use x="399.414062" xlink:href="#DejaVuSans-97"/>
     <use x="460.693359" xlink:href="#DejaVuSans-108"/>
     <use x="488.476562" xlink:href="#DejaVuSans-108"/>
     <use x="516.259766" xlink:href="#DejaVuSans-101"/>
     <use x="577.783203" xlink:href="#DejaVuSans-108"/>
     <use x="605.566406" xlink:href="#DejaVuSans-95"/>
     <use x="655.566406" xlink:href="#DejaVuSans-115"/>
     <use x="707.666016" xlink:href="#DejaVuSans-111"/>
     <use x="768.847656" xlink:href="#DejaVuSans-114"/>
     <use x="809.960938" xlink:href="#DejaVuSans-116"/>
     <use x="849.169922" xlink:href="#DejaVuSans-32"/>
     <use x="880.957031" xlink:href="#DejaVuSans-79"/>
     <use x="959.667969" xlink:href="#DejaVuSans-50"/>
     <use x="1023.291016" xlink:href="#DejaVuSans-32"/>
     <use x="1055.078125" xlink:href="#DejaVuSans-79"/>
     <use x="1133.789062" xlink:href="#DejaVuSans-77"/>
     <use x="1220.068359" xlink:href="#DejaVuSans-80"/>
     <use x="1280.371094" xlink:href="#DejaVuSans-32"/>
     <use x="1312.158203" xlink:href="#DejaVuSans-65"/>
     <use x="1374.191406" xlink:href="#DejaVuSans-86"/>
     <use x="1442.599609" xlink:href="#DejaVuSans-88"/>
     <use x="1511.105469" xlink:href="#DejaVuSans-50"/>
     <use x="1574.728516" xlink:href="#DejaVuSans-32"/>
     <use x="1606.515625" xlink:href="#DejaVuSans-111"/>
     <use x="1667.697266" xlink:href="#DejaVuSans-110"/>
     <use x="1731.076172" xlink:href="#DejaVuSans-32"/>
     <use x="1762.863281" xlink:href="#DejaVuSans-112"/>
     <use x="1826.339844" xlink:href="#DejaVuSans-114"/>
     <use x="1865.203125" xlink:href="#DejaVuSans-101"/>
     <use x="1926.726562" xlink:href="#DejaVuSans-95"/>
     <use x="1976.726562" xlink:href="#DejaVuSans-116"/>
     <use x="2015.935547" xlink:href="#DejaVuSans-114"/>
     <use x="2057.048828" xlink:href="#DejaVuSans-97"/>
     <use x="2118.328125" xlink:href="#DejaVuSans-110"/>
     <use x="2181.707031" xlink:href="#DejaVuSans-115"/>
     <use x="2233.806641" xlink:href="#DejaVuSans-112"/>
     <use x="2297.283203" xlink:href="#DejaVuSans-111"/>
     <use x="2358.464844" xlink:href="#DejaVuSans-115"/>
     <use x="2410.564453" xlink:href="#DejaVuSans-101"/>
     <use x="2472.087891" xlink:href="#DejaVuSans-53"/>
     <use x="2535.710938" xlink:href="#DejaVuSans-49"/>
    </g>
   </g>
   <g id="legend_1">
    <g id="patch_7">
     <path d="M 313.152813 302.584 
L 407.72 302.584 
Q 409.72 302.584 409.72 300.584 
L 409.72 257.2715 
Q 409.72 255.2715 407.72 255.2715 
L 313.152813 255.2715 
Q 311.152813 255.2715 311.152813 257.2715 
L 311.152813 300.584 
Q 311.152813 302.584 313.152813 302.584 
z
" style="fill:#ffffff;opacity:0.8;stroke:#cccccc;stroke-linejoin:miter;"/>
    </g>
    <g id="line2d_62">
     <path d="M 315.152813 263.369937 
L 335.152813 263.369937 
" style="fill:none;stroke:#0000ff;stroke-dasharray:1.5,2.475;stroke-dashoffset:0;stroke-width:1.5;"/>
    </g>
    <g id="line2d_63">
     <g>
      <use style="fill:#0000ff;stroke:#0000ff;" x="325.152813" xlink:href="#m3d1f0ea611" y="263.369937"/>
     </g>
    </g>
    <g id="text_33">
     <!-- transpose -->
     <g transform="translate(343.152813 266.869937)scale(0.1 -0.1)">
      <use xlink:href="#DejaVuSans-116"/>
      <use x="39.208984" xlink:href="#DejaVuSans-114"/>
      <use x="80.322266" xlink:href="#DejaVuSans-97"/>
      <use x="141.601562" xlink:href="#DejaVuSans-110"/>
      <use x="204.980469" xlink:href="#DejaVuSans-115"/>
      <use x="257.080078" xlink:href="#DejaVuSans-112"/>
      <use x="320.556641" xlink:href="#DejaVuSans-111"/>
      <use x="381.738281" xlink:href="#DejaVuSans-115"/>
      <use x="433.837891" xlink:href="#DejaVuSans-101"/>
     </g>
    </g>
    <g id="line2d_64">
     <path d="M 315.152813 278.048063 
L 335.152813 278.048063 
" style="fill:none;stroke:#ff0000;stroke-dasharray:1.5,2.475;stroke-dashoffset:0;stroke-width:1.5;"/>
    </g>
    <g id="line2d_65">
     <g>
      <use style="fill:#ff0000;stroke:#ff0000;" x="325.152813" xlink:href="#m68e17370b0" y="278.048063"/>
     </g>
    </g>
    <g id="text_34">
     <!-- transpose_tr -->
     <g transform="translate(343.152813 281.548063)scale(0.1 -0.1)">
      <use xlink:href="#DejaVuSans-116"/>
      <use x="39.208984" xlink:href="#DejaVuSans-114"/>
      <use x="80.322266" xlink:href="#DejaVuSans-97"/>
      <use x="141.601562" xlink:href="#DejaVuSans-110"/>
      <use x="204.980469" xlink:href="#DejaVuSans-115"/>
      <use x="257.080078" xlink:href="#DejaVuSans-112"/>
      <use x="320.556641" xlink:href="#DejaVuSans-111"/>
      <use x="381.738281" xlink:href="#DejaVuSans-115"/>
      <use x="433.837891" xlink:href="#DejaVuSans-101"/>
      <use x="495.361328" xlink:href="#DejaVuSans-95"/>
      <use x="545.361328" xlink:href="#DejaVuSans-116"/>
      <use x="584.570312" xlink:href="#DejaVuSans-114"/>
     </g>
    </g>
    <g id="line2d_66">
     <path d="M 315.152813 293.004312 
L 335.152813 293.004312 
" style="fill:none;stroke:#008000;stroke-dasharray:1.5,2.475;stroke-dashoffset:0;stroke-width:1.5;"/>
    </g>
    <g id="line2d_67">
     <g>
      <use style="fill:#008000;stroke:#008000;" x="325.152813" xlink:href="#mbcd6eb6911" y="293.004312"/>
     </g>
    </g>
    <g id="text_35">
     <!-- mean -->
     <defs>
      <path d="M 52 44.1875 
Q 55.375 50.25 60.0625 53.125 
Q 64.75 56 71.09375 56 
Q 79.640625 56 84.28125 50.015625 
Q 88.921875 44.046875 88.921875 33.015625 
L 88.921875 0 
L 79.890625 0 
L 79.890625 32.71875 
Q 79.890625 40.578125 77.09375 44.375 
Q 74.3125 48.1875 68.609375 48.1875 
Q 61.625 48.1875 57.5625 43.546875 
Q 53.515625 38.921875 53.515625 30.90625 
L 53.515625 0 
L 44.484375 0 
L 44.484375 32.71875 
Q 44.484375 40.625 41.703125 44.40625 
Q 38.921875 48.1875 33.109375 48.1875 
Q 26.21875 48.1875 22.15625 43.53125 
Q 18.109375 38.875 18.109375 30.90625 
L 18.109375 0 
L 9.078125 0 
L 9.078125 54.6875 
L 18.109375 54.6875 
L 18.109375 46.1875 
Q 21.1875 51.21875 25.484375 53.609375 
Q 29.78125 56 35.6875 56 
Q 41.65625 56 45.828125 52.96875 
Q 50 49.953125 52 44.1875 
z
" id="DejaVuSans-109"/>
     </defs>
     <g transform="translate(343.152813 296.504312)scale(0.1 -0.1)">
      <use xlink:href="#DejaVuSans-109"/>
      <use x="97.412109" xlink:href="#DejaVuSans-101"/>
      <use x="158.935547" xlink:href="#DejaVuSans-97"/>
      <use x="220.214844" xlink:href="#DejaVuSans-110"/>
     </g>
    </g>
   </g>
  </g>
 </g>
 <defs>
  <clipPath id="p70d2f2b9c5">
   <rect height="266.112" width="357.12" x="57.6" y="41.472"/>
  </clipPath>
 </defs>
</svg>
