<?xml version="1.0" encoding="utf-8" standalone="no"?>
<!DOCTYPE svg PUBLIC "-//W3C//DTD SVG 1.1//EN"
  "http://www.w3.org/Graphics/SVG/1.1/DTD/svg11.dtd">
<!-- Created with matplotlib (https://matplotlib.org/) -->
<svg height="345.6pt" version="1.1" viewBox="0 0 460.8 345.6" width="460.8pt" xmlns="http://www.w3.org/2000/svg" xmlns:xlink="http://www.w3.org/1999/xlink">
 <defs>
  <style type="text/css">
*{stroke-linecap:butt;stroke-linejoin:round;}
  </style>
 </defs>
 <g id="figure_1">
  <g id="patch_1">
   <path d="M 0 345.6 
L 460.8 345.6 
L 460.8 0 
L 0 0 
z
" style="fill:#ffffff;"/>
  </g>
  <g id="axes_1">
   <g id="patch_2">
    <path d="M 57.6 307.584 
L 414.72 307.584 
L 414.72 41.472 
L 57.6 41.472 
z
" style="fill:#ffffff;"/>
   </g>
   <g id="matplotlib.axis_1">
    <g id="xtick_1">
     <g id="line2d_1">
      <path clip-path="url(#pbdc3f1819e)" d="M 61.612584 307.584 
L 61.612584 41.472 
" style="fill:none;stroke:#b0b0b0;stroke-dasharray:5.12,1.28,0.8,1.28;stroke-dashoffset:0;stroke-width:0.8;"/>
     </g>
     <g id="line2d_2">
      <defs>
       <path d="M 0 0 
L 0 3.5 
" id="m977c00b84a" style="stroke:#000000;stroke-width:0.8;"/>
      </defs>
      <g>
       <use style="stroke:#000000;stroke-width:0.8;" x="61.612584" xlink:href="#m977c00b84a" y="307.584"/>
      </g>
     </g>
     <g id="text_1">
      <!-- 1 -->
      <defs>
       <path d="M 12.40625 8.296875 
L 28.515625 8.296875 
L 28.515625 63.921875 
L 10.984375 60.40625 
L 10.984375 69.390625 
L 28.421875 72.90625 
L 38.28125 72.90625 
L 38.28125 8.296875 
L 54.390625 8.296875 
L 54.390625 0 
L 12.40625 0 
z
" id="DejaVuSans-49"/>
      </defs>
      <g transform="translate(58.431334 322.182437)scale(0.1 -0.1)">
       <use xlink:href="#DejaVuSans-49"/>
      </g>
     </g>
    </g>
    <g id="xtick_2">
     <g id="line2d_3">
      <path clip-path="url(#pbdc3f1819e)" d="M 73.650337 307.584 
L 73.650337 41.472 
" style="fill:none;stroke:#b0b0b0;stroke-dasharray:5.12,1.28,0.8,1.28;stroke-dashoffset:0;stroke-width:0.8;"/>
     </g>
     <g id="line2d_4">
      <g>
       <use style="stroke:#000000;stroke-width:0.8;" x="73.650337" xlink:href="#m977c00b84a" y="307.584"/>
      </g>
     </g>
     <g id="text_2">
      <!-- 4 -->
      <defs>
       <path d="M 37.796875 64.3125 
L 12.890625 25.390625 
L 37.796875 25.390625 
z
M 35.203125 72.90625 
L 47.609375 72.90625 
L 47.609375 25.390625 
L 58.015625 25.390625 
L 58.015625 17.1875 
L 47.609375 17.1875 
L 47.609375 0 
L 37.796875 0 
L 37.796875 17.1875 
L 4.890625 17.1875 
L 4.890625 26.703125 
z
" id="DejaVuSans-52"/>
      </defs>
      <g transform="translate(70.469087 322.182437)scale(0.1 -0.1)">
       <use xlink:href="#DejaVuSans-52"/>
      </g>
     </g>
    </g>
    <g id="xtick_3">
     <g id="line2d_5">
      <path clip-path="url(#pbdc3f1819e)" d="M 89.700674 307.584 
L 89.700674 41.472 
" style="fill:none;stroke:#b0b0b0;stroke-dasharray:5.12,1.28,0.8,1.28;stroke-dashoffset:0;stroke-width:0.8;"/>
     </g>
     <g id="line2d_6">
      <g>
       <use style="stroke:#000000;stroke-width:0.8;" x="89.700674" xlink:href="#m977c00b84a" y="307.584"/>
      </g>
     </g>
     <g id="text_3">
      <!-- 8 -->
      <defs>
       <path d="M 31.78125 34.625 
Q 24.75 34.625 20.71875 30.859375 
Q 16.703125 27.09375 16.703125 20.515625 
Q 16.703125 13.921875 20.71875 10.15625 
Q 24.75 6.390625 31.78125 6.390625 
Q 38.8125 6.390625 42.859375 10.171875 
Q 46.921875 13.96875 46.921875 20.515625 
Q 46.921875 27.09375 42.890625 30.859375 
Q 38.875 34.625 31.78125 34.625 
z
M 21.921875 38.8125 
Q 15.578125 40.375 12.03125 44.71875 
Q 8.5 49.078125 8.5 55.328125 
Q 8.5 64.0625 14.71875 69.140625 
Q 20.953125 74.21875 31.78125 74.21875 
Q 42.671875 74.21875 48.875 69.140625 
Q 55.078125 64.0625 55.078125 55.328125 
Q 55.078125 49.078125 51.53125 44.71875 
Q 48 40.375 41.703125 38.8125 
Q 48.828125 37.15625 52.796875 32.3125 
Q 56.78125 27.484375 56.78125 20.515625 
Q 56.78125 9.90625 50.3125 4.234375 
Q 43.84375 -1.421875 31.78125 -1.421875 
Q 19.734375 -1.421875 13.25 4.234375 
Q 6.78125 9.90625 6.78125 20.515625 
Q 6.78125 27.484375 10.78125 32.3125 
Q 14.796875 37.15625 21.921875 38.8125 
z
M 18.3125 54.390625 
Q 18.3125 48.734375 21.84375 45.5625 
Q 25.390625 42.390625 31.78125 42.390625 
Q 38.140625 42.390625 41.71875 45.5625 
Q 45.3125 48.734375 45.3125 54.390625 
Q 45.3125 60.0625 41.71875 63.234375 
Q 38.140625 66.40625 31.78125 66.40625 
Q 25.390625 66.40625 21.84375 63.234375 
Q 18.3125 60.0625 18.3125 54.390625 
z
" id="DejaVuSans-56"/>
      </defs>
      <g transform="translate(86.519424 322.182437)scale(0.1 -0.1)">
       <use xlink:href="#DejaVuSans-56"/>
      </g>
     </g>
    </g>
    <g id="xtick_4">
     <g id="line2d_7">
      <path clip-path="url(#pbdc3f1819e)" d="M 105.751011 307.584 
L 105.751011 41.472 
" style="fill:none;stroke:#b0b0b0;stroke-dasharray:5.12,1.28,0.8,1.28;stroke-dashoffset:0;stroke-width:0.8;"/>
     </g>
     <g id="line2d_8">
      <g>
       <use style="stroke:#000000;stroke-width:0.8;" x="105.751011" xlink:href="#m977c00b84a" y="307.584"/>
      </g>
     </g>
     <g id="text_4">
      <!-- 12 -->
      <defs>
       <path d="M 19.1875 8.296875 
L 53.609375 8.296875 
L 53.609375 0 
L 7.328125 0 
L 7.328125 8.296875 
Q 12.9375 14.109375 22.625 23.890625 
Q 32.328125 33.6875 34.8125 36.53125 
Q 39.546875 41.84375 41.421875 45.53125 
Q 43.3125 49.21875 43.3125 52.78125 
Q 43.3125 58.59375 39.234375 62.25 
Q 35.15625 65.921875 28.609375 65.921875 
Q 23.96875 65.921875 18.8125 64.3125 
Q 13.671875 62.703125 7.8125 59.421875 
L 7.8125 69.390625 
Q 13.765625 71.78125 18.9375 73 
Q 24.125 74.21875 28.421875 74.21875 
Q 39.75 74.21875 46.484375 68.546875 
Q 53.21875 62.890625 53.21875 53.421875 
Q 53.21875 48.921875 51.53125 44.890625 
Q 49.859375 40.875 45.40625 35.40625 
Q 44.1875 33.984375 37.640625 27.21875 
Q 31.109375 20.453125 19.1875 8.296875 
z
" id="DejaVuSans-50"/>
      </defs>
      <g transform="translate(99.388511 322.182437)scale(0.1 -0.1)">
       <use xlink:href="#DejaVuSans-49"/>
       <use x="63.623047" xlink:href="#DejaVuSans-50"/>
      </g>
     </g>
    </g>
    <g id="xtick_5">
     <g id="line2d_9">
      <path clip-path="url(#pbdc3f1819e)" d="M 121.801348 307.584 
L 121.801348 41.472 
" style="fill:none;stroke:#b0b0b0;stroke-dasharray:5.12,1.28,0.8,1.28;stroke-dashoffset:0;stroke-width:0.8;"/>
     </g>
     <g id="line2d_10">
      <g>
       <use style="stroke:#000000;stroke-width:0.8;" x="121.801348" xlink:href="#m977c00b84a" y="307.584"/>
      </g>
     </g>
     <g id="text_5">
      <!-- 16 -->
      <defs>
       <path d="M 33.015625 40.375 
Q 26.375 40.375 22.484375 35.828125 
Q 18.609375 31.296875 18.609375 23.390625 
Q 18.609375 15.53125 22.484375 10.953125 
Q 26.375 6.390625 33.015625 6.390625 
Q 39.65625 6.390625 43.53125 10.953125 
Q 47.40625 15.53125 47.40625 23.390625 
Q 47.40625 31.296875 43.53125 35.828125 
Q 39.65625 40.375 33.015625 40.375 
z
M 52.59375 71.296875 
L 52.59375 62.3125 
Q 48.875 64.0625 45.09375 64.984375 
Q 41.3125 65.921875 37.59375 65.921875 
Q 27.828125 65.921875 22.671875 59.328125 
Q 17.53125 52.734375 16.796875 39.40625 
Q 19.671875 43.65625 24.015625 45.921875 
Q 28.375 48.1875 33.59375 48.1875 
Q 44.578125 48.1875 50.953125 41.515625 
Q 57.328125 34.859375 57.328125 23.390625 
Q 57.328125 12.15625 50.6875 5.359375 
Q 44.046875 -1.421875 33.015625 -1.421875 
Q 20.359375 -1.421875 13.671875 8.265625 
Q 6.984375 17.96875 6.984375 36.375 
Q 6.984375 53.65625 15.1875 63.9375 
Q 23.390625 74.21875 37.203125 74.21875 
Q 40.921875 74.21875 44.703125 73.484375 
Q 48.484375 72.75 52.59375 71.296875 
z
" id="DejaVuSans-54"/>
      </defs>
      <g transform="translate(115.438848 322.182437)scale(0.1 -0.1)">
       <use xlink:href="#DejaVuSans-49"/>
       <use x="63.623047" xlink:href="#DejaVuSans-54"/>
      </g>
     </g>
    </g>
    <g id="xtick_6">
     <g id="line2d_11">
      <path clip-path="url(#pbdc3f1819e)" d="M 137.851685 307.584 
L 137.851685 41.472 
" style="fill:none;stroke:#b0b0b0;stroke-dasharray:5.12,1.28,0.8,1.28;stroke-dashoffset:0;stroke-width:0.8;"/>
     </g>
     <g id="line2d_12">
      <g>
       <use style="stroke:#000000;stroke-width:0.8;" x="137.851685" xlink:href="#m977c00b84a" y="307.584"/>
      </g>
     </g>
     <g id="text_6">
      <!-- 20 -->
      <defs>
       <path d="M 31.78125 66.40625 
Q 24.171875 66.40625 20.328125 58.90625 
Q 16.5 51.421875 16.5 36.375 
Q 16.5 21.390625 20.328125 13.890625 
Q 24.171875 6.390625 31.78125 6.390625 
Q 39.453125 6.390625 43.28125 13.890625 
Q 47.125 21.390625 47.125 36.375 
Q 47.125 51.421875 43.28125 58.90625 
Q 39.453125 66.40625 31.78125 66.40625 
z
M 31.78125 74.21875 
Q 44.046875 74.21875 50.515625 64.515625 
Q 56.984375 54.828125 56.984375 36.375 
Q 56.984375 17.96875 50.515625 8.265625 
Q 44.046875 -1.421875 31.78125 -1.421875 
Q 19.53125 -1.421875 13.0625 8.265625 
Q 6.59375 17.96875 6.59375 36.375 
Q 6.59375 54.828125 13.0625 64.515625 
Q 19.53125 74.21875 31.78125 74.21875 
z
" id="DejaVuSans-48"/>
      </defs>
      <g transform="translate(131.489185 322.182437)scale(0.1 -0.1)">
       <use xlink:href="#DejaVuSans-50"/>
       <use x="63.623047" xlink:href="#DejaVuSans-48"/>
      </g>
     </g>
    </g>
    <g id="xtick_7">
     <g id="line2d_13">
      <path clip-path="url(#pbdc3f1819e)" d="M 153.902022 307.584 
L 153.902022 41.472 
" style="fill:none;stroke:#b0b0b0;stroke-dasharray:5.12,1.28,0.8,1.28;stroke-dashoffset:0;stroke-width:0.8;"/>
     </g>
     <g id="line2d_14">
      <g>
       <use style="stroke:#000000;stroke-width:0.8;" x="153.902022" xlink:href="#m977c00b84a" y="307.584"/>
      </g>
     </g>
     <g id="text_7">
      <!-- 24 -->
      <g transform="translate(147.539522 322.182437)scale(0.1 -0.1)">
       <use xlink:href="#DejaVuSans-50"/>
       <use x="63.623047" xlink:href="#DejaVuSans-52"/>
      </g>
     </g>
    </g>
    <g id="xtick_8">
     <g id="line2d_15">
      <path clip-path="url(#pbdc3f1819e)" d="M 169.95236 307.584 
L 169.95236 41.472 
" style="fill:none;stroke:#b0b0b0;stroke-dasharray:5.12,1.28,0.8,1.28;stroke-dashoffset:0;stroke-width:0.8;"/>
     </g>
     <g id="line2d_16">
      <g>
       <use style="stroke:#000000;stroke-width:0.8;" x="169.95236" xlink:href="#m977c00b84a" y="307.584"/>
      </g>
     </g>
     <g id="text_8">
      <!-- 28 -->
      <g transform="translate(163.58986 322.182437)scale(0.1 -0.1)">
       <use xlink:href="#DejaVuSans-50"/>
       <use x="63.623047" xlink:href="#DejaVuSans-56"/>
      </g>
     </g>
    </g>
    <g id="xtick_9">
     <g id="line2d_17">
      <path clip-path="url(#pbdc3f1819e)" d="M 186.002697 307.584 
L 186.002697 41.472 
" style="fill:none;stroke:#b0b0b0;stroke-dasharray:5.12,1.28,0.8,1.28;stroke-dashoffset:0;stroke-width:0.8;"/>
     </g>
     <g id="line2d_18">
      <g>
       <use style="stroke:#000000;stroke-width:0.8;" x="186.002697" xlink:href="#m977c00b84a" y="307.584"/>
      </g>
     </g>
     <g id="text_9">
      <!-- 32 -->
      <defs>
       <path d="M 40.578125 39.3125 
Q 47.65625 37.796875 51.625 33 
Q 55.609375 28.21875 55.609375 21.1875 
Q 55.609375 10.40625 48.1875 4.484375 
Q 40.765625 -1.421875 27.09375 -1.421875 
Q 22.515625 -1.421875 17.65625 -0.515625 
Q 12.796875 0.390625 7.625 2.203125 
L 7.625 11.71875 
Q 11.71875 9.328125 16.59375 8.109375 
Q 21.484375 6.890625 26.8125 6.890625 
Q 36.078125 6.890625 40.9375 10.546875 
Q 45.796875 14.203125 45.796875 21.1875 
Q 45.796875 27.640625 41.28125 31.265625 
Q 36.765625 34.90625 28.71875 34.90625 
L 20.21875 34.90625 
L 20.21875 43.015625 
L 29.109375 43.015625 
Q 36.375 43.015625 40.234375 45.921875 
Q 44.09375 48.828125 44.09375 54.296875 
Q 44.09375 59.90625 40.109375 62.90625 
Q 36.140625 65.921875 28.71875 65.921875 
Q 24.65625 65.921875 20.015625 65.03125 
Q 15.375 64.15625 9.8125 62.3125 
L 9.8125 71.09375 
Q 15.4375 72.65625 20.34375 73.4375 
Q 25.25 74.21875 29.59375 74.21875 
Q 40.828125 74.21875 47.359375 69.109375 
Q 53.90625 64.015625 53.90625 55.328125 
Q 53.90625 49.265625 50.4375 45.09375 
Q 46.96875 40.921875 40.578125 39.3125 
z
" id="DejaVuSans-51"/>
      </defs>
      <g transform="translate(179.640197 322.182437)scale(0.1 -0.1)">
       <use xlink:href="#DejaVuSans-51"/>
       <use x="63.623047" xlink:href="#DejaVuSans-50"/>
      </g>
     </g>
    </g>
    <g id="xtick_10">
     <g id="line2d_19">
      <path clip-path="url(#pbdc3f1819e)" d="M 202.053034 307.584 
L 202.053034 41.472 
" style="fill:none;stroke:#b0b0b0;stroke-dasharray:5.12,1.28,0.8,1.28;stroke-dashoffset:0;stroke-width:0.8;"/>
     </g>
     <g id="line2d_20">
      <g>
       <use style="stroke:#000000;stroke-width:0.8;" x="202.053034" xlink:href="#m977c00b84a" y="307.584"/>
      </g>
     </g>
     <g id="text_10">
      <!-- 36 -->
      <g transform="translate(195.690534 322.182437)scale(0.1 -0.1)">
       <use xlink:href="#DejaVuSans-51"/>
       <use x="63.623047" xlink:href="#DejaVuSans-54"/>
      </g>
     </g>
    </g>
    <g id="xtick_11">
     <g id="line2d_21">
      <path clip-path="url(#pbdc3f1819e)" d="M 218.103371 307.584 
L 218.103371 41.472 
" style="fill:none;stroke:#b0b0b0;stroke-dasharray:5.12,1.28,0.8,1.28;stroke-dashoffset:0;stroke-width:0.8;"/>
     </g>
     <g id="line2d_22">
      <g>
       <use style="stroke:#000000;stroke-width:0.8;" x="218.103371" xlink:href="#m977c00b84a" y="307.584"/>
      </g>
     </g>
     <g id="text_11">
      <!-- 40 -->
      <g transform="translate(211.740871 322.182437)scale(0.1 -0.1)">
       <use xlink:href="#DejaVuSans-52"/>
       <use x="63.623047" xlink:href="#DejaVuSans-48"/>
      </g>
     </g>
    </g>
    <g id="xtick_12">
     <g id="line2d_23">
      <path clip-path="url(#pbdc3f1819e)" d="M 234.153708 307.584 
L 234.153708 41.472 
" style="fill:none;stroke:#b0b0b0;stroke-dasharray:5.12,1.28,0.8,1.28;stroke-dashoffset:0;stroke-width:0.8;"/>
     </g>
     <g id="line2d_24">
      <g>
       <use style="stroke:#000000;stroke-width:0.8;" x="234.153708" xlink:href="#m977c00b84a" y="307.584"/>
      </g>
     </g>
     <g id="text_12">
      <!-- 44 -->
      <g transform="translate(227.791208 322.182437)scale(0.1 -0.1)">
       <use xlink:href="#DejaVuSans-52"/>
       <use x="63.623047" xlink:href="#DejaVuSans-52"/>
      </g>
     </g>
    </g>
    <g id="xtick_13">
     <g id="line2d_25">
      <path clip-path="url(#pbdc3f1819e)" d="M 250.204045 307.584 
L 250.204045 41.472 
" style="fill:none;stroke:#b0b0b0;stroke-dasharray:5.12,1.28,0.8,1.28;stroke-dashoffset:0;stroke-width:0.8;"/>
     </g>
     <g id="line2d_26">
      <g>
       <use style="stroke:#000000;stroke-width:0.8;" x="250.204045" xlink:href="#m977c00b84a" y="307.584"/>
      </g>
     </g>
     <g id="text_13">
      <!-- 48 -->
      <g transform="translate(243.841545 322.182437)scale(0.1 -0.1)">
       <use xlink:href="#DejaVuSans-52"/>
       <use x="63.623047" xlink:href="#DejaVuSans-56"/>
      </g>
     </g>
    </g>
    <g id="xtick_14">
     <g id="line2d_27">
      <path clip-path="url(#pbdc3f1819e)" d="M 266.254382 307.584 
L 266.254382 41.472 
" style="fill:none;stroke:#b0b0b0;stroke-dasharray:5.12,1.28,0.8,1.28;stroke-dashoffset:0;stroke-width:0.8;"/>
     </g>
     <g id="line2d_28">
      <g>
       <use style="stroke:#000000;stroke-width:0.8;" x="266.254382" xlink:href="#m977c00b84a" y="307.584"/>
      </g>
     </g>
     <g id="text_14">
      <!-- 52 -->
      <defs>
       <path d="M 10.796875 72.90625 
L 49.515625 72.90625 
L 49.515625 64.59375 
L 19.828125 64.59375 
L 19.828125 46.734375 
Q 21.96875 47.46875 24.109375 47.828125 
Q 26.265625 48.1875 28.421875 48.1875 
Q 40.625 48.1875 47.75 41.5 
Q 54.890625 34.8125 54.890625 23.390625 
Q 54.890625 11.625 47.5625 5.09375 
Q 40.234375 -1.421875 26.90625 -1.421875 
Q 22.3125 -1.421875 17.546875 -0.640625 
Q 12.796875 0.140625 7.71875 1.703125 
L 7.71875 11.625 
Q 12.109375 9.234375 16.796875 8.0625 
Q 21.484375 6.890625 26.703125 6.890625 
Q 35.15625 6.890625 40.078125 11.328125 
Q 45.015625 15.765625 45.015625 23.390625 
Q 45.015625 31 40.078125 35.4375 
Q 35.15625 39.890625 26.703125 39.890625 
Q 22.75 39.890625 18.8125 39.015625 
Q 14.890625 38.140625 10.796875 36.28125 
z
" id="DejaVuSans-53"/>
      </defs>
      <g transform="translate(259.891882 322.182437)scale(0.1 -0.1)">
       <use xlink:href="#DejaVuSans-53"/>
       <use x="63.623047" xlink:href="#DejaVuSans-50"/>
      </g>
     </g>
    </g>
    <g id="xtick_15">
     <g id="line2d_29">
      <path clip-path="url(#pbdc3f1819e)" d="M 282.304719 307.584 
L 282.304719 41.472 
" style="fill:none;stroke:#b0b0b0;stroke-dasharray:5.12,1.28,0.8,1.28;stroke-dashoffset:0;stroke-width:0.8;"/>
     </g>
     <g id="line2d_30">
      <g>
       <use style="stroke:#000000;stroke-width:0.8;" x="282.304719" xlink:href="#m977c00b84a" y="307.584"/>
      </g>
     </g>
     <g id="text_15">
      <!-- 56 -->
      <g transform="translate(275.942219 322.182437)scale(0.1 -0.1)">
       <use xlink:href="#DejaVuSans-53"/>
       <use x="63.623047" xlink:href="#DejaVuSans-54"/>
      </g>
     </g>
    </g>
    <g id="xtick_16">
     <g id="line2d_31">
      <path clip-path="url(#pbdc3f1819e)" d="M 298.355056 307.584 
L 298.355056 41.472 
" style="fill:none;stroke:#b0b0b0;stroke-dasharray:5.12,1.28,0.8,1.28;stroke-dashoffset:0;stroke-width:0.8;"/>
     </g>
     <g id="line2d_32">
      <g>
       <use style="stroke:#000000;stroke-width:0.8;" x="298.355056" xlink:href="#m977c00b84a" y="307.584"/>
      </g>
     </g>
     <g id="text_16">
      <!-- 60 -->
      <g transform="translate(291.992556 322.182437)scale(0.1 -0.1)">
       <use xlink:href="#DejaVuSans-54"/>
       <use x="63.623047" xlink:href="#DejaVuSans-48"/>
      </g>
     </g>
    </g>
    <g id="xtick_17">
     <g id="line2d_33">
      <path clip-path="url(#pbdc3f1819e)" d="M 314.405393 307.584 
L 314.405393 41.472 
" style="fill:none;stroke:#b0b0b0;stroke-dasharray:5.12,1.28,0.8,1.28;stroke-dashoffset:0;stroke-width:0.8;"/>
     </g>
     <g id="line2d_34">
      <g>
       <use style="stroke:#000000;stroke-width:0.8;" x="314.405393" xlink:href="#m977c00b84a" y="307.584"/>
      </g>
     </g>
     <g id="text_17">
      <!-- 64 -->
      <g transform="translate(308.042893 322.182437)scale(0.1 -0.1)">
       <use xlink:href="#DejaVuSans-54"/>
       <use x="63.623047" xlink:href="#DejaVuSans-52"/>
      </g>
     </g>
    </g>
    <g id="xtick_18">
     <g id="line2d_35">
      <path clip-path="url(#pbdc3f1819e)" d="M 330.45573 307.584 
L 330.45573 41.472 
" style="fill:none;stroke:#b0b0b0;stroke-dasharray:5.12,1.28,0.8,1.28;stroke-dashoffset:0;stroke-width:0.8;"/>
     </g>
     <g id="line2d_36">
      <g>
       <use style="stroke:#000000;stroke-width:0.8;" x="330.45573" xlink:href="#m977c00b84a" y="307.584"/>
      </g>
     </g>
     <g id="text_18">
      <!-- 68 -->
      <g transform="translate(324.09323 322.182437)scale(0.1 -0.1)">
       <use xlink:href="#DejaVuSans-54"/>
       <use x="63.623047" xlink:href="#DejaVuSans-56"/>
      </g>
     </g>
    </g>
    <g id="xtick_19">
     <g id="line2d_37">
      <path clip-path="url(#pbdc3f1819e)" d="M 346.506067 307.584 
L 346.506067 41.472 
" style="fill:none;stroke:#b0b0b0;stroke-dasharray:5.12,1.28,0.8,1.28;stroke-dashoffset:0;stroke-width:0.8;"/>
     </g>
     <g id="line2d_38">
      <g>
       <use style="stroke:#000000;stroke-width:0.8;" x="346.506067" xlink:href="#m977c00b84a" y="307.584"/>
      </g>
     </g>
     <g id="text_19">
      <!-- 72 -->
      <defs>
       <path d="M 8.203125 72.90625 
L 55.078125 72.90625 
L 55.078125 68.703125 
L 28.609375 0 
L 18.3125 0 
L 43.21875 64.59375 
L 8.203125 64.59375 
z
" id="DejaVuSans-55"/>
      </defs>
      <g transform="translate(340.143567 322.182437)scale(0.1 -0.1)">
       <use xlink:href="#DejaVuSans-55"/>
       <use x="63.623047" xlink:href="#DejaVuSans-50"/>
      </g>
     </g>
    </g>
    <g id="xtick_20">
     <g id="line2d_39">
      <path clip-path="url(#pbdc3f1819e)" d="M 362.556404 307.584 
L 362.556404 41.472 
" style="fill:none;stroke:#b0b0b0;stroke-dasharray:5.12,1.28,0.8,1.28;stroke-dashoffset:0;stroke-width:0.8;"/>
     </g>
     <g id="line2d_40">
      <g>
       <use style="stroke:#000000;stroke-width:0.8;" x="362.556404" xlink:href="#m977c00b84a" y="307.584"/>
      </g>
     </g>
     <g id="text_20">
      <!-- 76 -->
      <g transform="translate(356.193904 322.182437)scale(0.1 -0.1)">
       <use xlink:href="#DejaVuSans-55"/>
       <use x="63.623047" xlink:href="#DejaVuSans-54"/>
      </g>
     </g>
    </g>
    <g id="xtick_21">
     <g id="line2d_41">
      <path clip-path="url(#pbdc3f1819e)" d="M 378.606742 307.584 
L 378.606742 41.472 
" style="fill:none;stroke:#b0b0b0;stroke-dasharray:5.12,1.28,0.8,1.28;stroke-dashoffset:0;stroke-width:0.8;"/>
     </g>
     <g id="line2d_42">
      <g>
       <use style="stroke:#000000;stroke-width:0.8;" x="378.606742" xlink:href="#m977c00b84a" y="307.584"/>
      </g>
     </g>
     <g id="text_21">
      <!-- 80 -->
      <g transform="translate(372.244242 322.182437)scale(0.1 -0.1)">
       <use xlink:href="#DejaVuSans-56"/>
       <use x="63.623047" xlink:href="#DejaVuSans-48"/>
      </g>
     </g>
    </g>
    <g id="xtick_22">
     <g id="line2d_43">
      <path clip-path="url(#pbdc3f1819e)" d="M 394.657079 307.584 
L 394.657079 41.472 
" style="fill:none;stroke:#b0b0b0;stroke-dasharray:5.12,1.28,0.8,1.28;stroke-dashoffset:0;stroke-width:0.8;"/>
     </g>
     <g id="line2d_44">
      <g>
       <use style="stroke:#000000;stroke-width:0.8;" x="394.657079" xlink:href="#m977c00b84a" y="307.584"/>
      </g>
     </g>
     <g id="text_22">
      <!-- 84 -->
      <g transform="translate(388.294579 322.182437)scale(0.1 -0.1)">
       <use xlink:href="#DejaVuSans-56"/>
       <use x="63.623047" xlink:href="#DejaVuSans-52"/>
      </g>
     </g>
    </g>
    <g id="xtick_23">
     <g id="line2d_45">
      <path clip-path="url(#pbdc3f1819e)" d="M 410.707416 307.584 
L 410.707416 41.472 
" style="fill:none;stroke:#b0b0b0;stroke-dasharray:5.12,1.28,0.8,1.28;stroke-dashoffset:0;stroke-width:0.8;"/>
     </g>
     <g id="line2d_46">
      <g>
       <use style="stroke:#000000;stroke-width:0.8;" x="410.707416" xlink:href="#m977c00b84a" y="307.584"/>
      </g>
     </g>
     <g id="text_23">
      <!-- 88 -->
      <g transform="translate(404.344916 322.182437)scale(0.1 -0.1)">
       <use xlink:href="#DejaVuSans-56"/>
       <use x="63.623047" xlink:href="#DejaVuSans-56"/>
      </g>
     </g>
    </g>
    <g id="text_24">
     <!-- threads -->
     <defs>
      <path d="M 18.3125 70.21875 
L 18.3125 54.6875 
L 36.8125 54.6875 
L 36.8125 47.703125 
L 18.3125 47.703125 
L 18.3125 18.015625 
Q 18.3125 11.328125 20.140625 9.421875 
Q 21.96875 7.515625 27.59375 7.515625 
L 36.8125 7.515625 
L 36.8125 0 
L 27.59375 0 
Q 17.1875 0 13.234375 3.875 
Q 9.28125 7.765625 9.28125 18.015625 
L 9.28125 47.703125 
L 2.6875 47.703125 
L 2.6875 54.6875 
L 9.28125 54.6875 
L 9.28125 70.21875 
z
" id="DejaVuSans-116"/>
      <path d="M 54.890625 33.015625 
L 54.890625 0 
L 45.90625 0 
L 45.90625 32.71875 
Q 45.90625 40.484375 42.875 44.328125 
Q 39.84375 48.1875 33.796875 48.1875 
Q 26.515625 48.1875 22.3125 43.546875 
Q 18.109375 38.921875 18.109375 30.90625 
L 18.109375 0 
L 9.078125 0 
L 9.078125 75.984375 
L 18.109375 75.984375 
L 18.109375 46.1875 
Q 21.34375 51.125 25.703125 53.5625 
Q 30.078125 56 35.796875 56 
Q 45.21875 56 50.046875 50.171875 
Q 54.890625 44.34375 54.890625 33.015625 
z
" id="DejaVuSans-104"/>
      <path d="M 41.109375 46.296875 
Q 39.59375 47.171875 37.8125 47.578125 
Q 36.03125 48 33.890625 48 
Q 26.265625 48 22.1875 43.046875 
Q 18.109375 38.09375 18.109375 28.8125 
L 18.109375 0 
L 9.078125 0 
L 9.078125 54.6875 
L 18.109375 54.6875 
L 18.109375 46.1875 
Q 20.953125 51.171875 25.484375 53.578125 
Q 30.03125 56 36.53125 56 
Q 37.453125 56 38.578125 55.875 
Q 39.703125 55.765625 41.0625 55.515625 
z
" id="DejaVuSans-114"/>
      <path d="M 56.203125 29.59375 
L 56.203125 25.203125 
L 14.890625 25.203125 
Q 15.484375 15.921875 20.484375 11.0625 
Q 25.484375 6.203125 34.421875 6.203125 
Q 39.59375 6.203125 44.453125 7.46875 
Q 49.3125 8.734375 54.109375 11.28125 
L 54.109375 2.78125 
Q 49.265625 0.734375 44.1875 -0.34375 
Q 39.109375 -1.421875 33.890625 -1.421875 
Q 20.796875 -1.421875 13.15625 6.1875 
Q 5.515625 13.8125 5.515625 26.8125 
Q 5.515625 40.234375 12.765625 48.109375 
Q 20.015625 56 32.328125 56 
Q 43.359375 56 49.78125 48.890625 
Q 56.203125 41.796875 56.203125 29.59375 
z
M 47.21875 32.234375 
Q 47.125 39.59375 43.09375 43.984375 
Q 39.0625 48.390625 32.421875 48.390625 
Q 24.90625 48.390625 20.390625 44.140625 
Q 15.875 39.890625 15.1875 32.171875 
z
" id="DejaVuSans-101"/>
      <path d="M 34.28125 27.484375 
Q 23.390625 27.484375 19.1875 25 
Q 14.984375 22.515625 14.984375 16.5 
Q 14.984375 11.71875 18.140625 8.90625 
Q 21.296875 6.109375 26.703125 6.109375 
Q 34.1875 6.109375 38.703125 11.40625 
Q 43.21875 16.703125 43.21875 25.484375 
L 43.21875 27.484375 
z
M 52.203125 31.203125 
L 52.203125 0 
L 43.21875 0 
L 43.21875 8.296875 
Q 40.140625 3.328125 35.546875 0.953125 
Q 30.953125 -1.421875 24.3125 -1.421875 
Q 15.921875 -1.421875 10.953125 3.296875 
Q 6 8.015625 6 15.921875 
Q 6 25.140625 12.171875 29.828125 
Q 18.359375 34.515625 30.609375 34.515625 
L 43.21875 34.515625 
L 43.21875 35.40625 
Q 43.21875 41.609375 39.140625 45 
Q 35.0625 48.390625 27.6875 48.390625 
Q 23 48.390625 18.546875 47.265625 
Q 14.109375 46.140625 10.015625 43.890625 
L 10.015625 52.203125 
Q 14.9375 54.109375 19.578125 55.046875 
Q 24.21875 56 28.609375 56 
Q 40.484375 56 46.34375 49.84375 
Q 52.203125 43.703125 52.203125 31.203125 
z
" id="DejaVuSans-97"/>
      <path d="M 45.40625 46.390625 
L 45.40625 75.984375 
L 54.390625 75.984375 
L 54.390625 0 
L 45.40625 0 
L 45.40625 8.203125 
Q 42.578125 3.328125 38.25 0.953125 
Q 33.9375 -1.421875 27.875 -1.421875 
Q 17.96875 -1.421875 11.734375 6.484375 
Q 5.515625 14.40625 5.515625 27.296875 
Q 5.515625 40.1875 11.734375 48.09375 
Q 17.96875 56 27.875 56 
Q 33.9375 56 38.25 53.625 
Q 42.578125 51.265625 45.40625 46.390625 
z
M 14.796875 27.296875 
Q 14.796875 17.390625 18.875 11.75 
Q 22.953125 6.109375 30.078125 6.109375 
Q 37.203125 6.109375 41.296875 11.75 
Q 45.40625 17.390625 45.40625 27.296875 
Q 45.40625 37.203125 41.296875 42.84375 
Q 37.203125 48.484375 30.078125 48.484375 
Q 22.953125 48.484375 18.875 42.84375 
Q 14.796875 37.203125 14.796875 27.296875 
z
" id="DejaVuSans-100"/>
      <path d="M 44.28125 53.078125 
L 44.28125 44.578125 
Q 40.484375 46.53125 36.375 47.5 
Q 32.28125 48.484375 27.875 48.484375 
Q 21.1875 48.484375 17.84375 46.4375 
Q 14.5 44.390625 14.5 40.28125 
Q 14.5 37.15625 16.890625 35.375 
Q 19.28125 33.59375 26.515625 31.984375 
L 29.59375 31.296875 
Q 39.15625 29.25 43.1875 25.515625 
Q 47.21875 21.78125 47.21875 15.09375 
Q 47.21875 7.46875 41.1875 3.015625 
Q 35.15625 -1.421875 24.609375 -1.421875 
Q 20.21875 -1.421875 15.453125 -0.5625 
Q 10.6875 0.296875 5.421875 2 
L 5.421875 11.28125 
Q 10.40625 8.6875 15.234375 7.390625 
Q 20.0625 6.109375 24.8125 6.109375 
Q 31.15625 6.109375 34.5625 8.28125 
Q 37.984375 10.453125 37.984375 14.40625 
Q 37.984375 18.0625 35.515625 20.015625 
Q 33.0625 21.96875 24.703125 23.78125 
L 21.578125 24.515625 
Q 13.234375 26.265625 9.515625 29.90625 
Q 5.8125 33.546875 5.8125 39.890625 
Q 5.8125 47.609375 11.28125 51.796875 
Q 16.75 56 26.8125 56 
Q 31.78125 56 36.171875 55.265625 
Q 40.578125 54.546875 44.28125 53.078125 
z
" id="DejaVuSans-115"/>
     </defs>
     <g transform="translate(217.168594 335.860562)scale(0.1 -0.1)">
      <use xlink:href="#DejaVuSans-116"/>
      <use x="39.208984" xlink:href="#DejaVuSans-104"/>
      <use x="102.587891" xlink:href="#DejaVuSans-114"/>
      <use x="141.451172" xlink:href="#DejaVuSans-101"/>
      <use x="202.974609" xlink:href="#DejaVuSans-97"/>
      <use x="264.253906" xlink:href="#DejaVuSans-100"/>
      <use x="327.730469" xlink:href="#DejaVuSans-115"/>
     </g>
    </g>
   </g>
   <g id="matplotlib.axis_2">
    <g id="ytick_1">
     <g id="line2d_47">
      <path clip-path="url(#pbdc3f1819e)" d="M 57.6 304.344519 
L 414.72 304.344519 
" style="fill:none;stroke:#b0b0b0;stroke-dasharray:5.12,1.28,0.8,1.28;stroke-dashoffset:0;stroke-width:0.8;"/>
     </g>
     <g id="line2d_48">
      <defs>
       <path d="M 0 0 
L -3.5 0 
" id="m71a29b6291" style="stroke:#000000;stroke-width:0.8;"/>
      </defs>
      <g>
       <use style="stroke:#000000;stroke-width:0.8;" x="57.6" xlink:href="#m71a29b6291" y="304.344519"/>
      </g>
     </g>
     <g id="text_25">
      <!-- 0.5 -->
      <defs>
       <path d="M 10.6875 12.40625 
L 21 12.40625 
L 21 0 
L 10.6875 0 
z
" id="DejaVuSans-46"/>
      </defs>
      <g transform="translate(34.696875 308.143738)scale(0.1 -0.1)">
       <use xlink:href="#DejaVuSans-48"/>
       <use x="63.623047" xlink:href="#DejaVuSans-46"/>
       <use x="95.410156" xlink:href="#DejaVuSans-53"/>
      </g>
     </g>
    </g>
    <g id="ytick_2">
     <g id="line2d_49">
      <path clip-path="url(#pbdc3f1819e)" d="M 57.6 259.95652 
L 414.72 259.95652 
" style="fill:none;stroke:#b0b0b0;stroke-dasharray:5.12,1.28,0.8,1.28;stroke-dashoffset:0;stroke-width:0.8;"/>
     </g>
     <g id="line2d_50">
      <g>
       <use style="stroke:#000000;stroke-width:0.8;" x="57.6" xlink:href="#m71a29b6291" y="259.95652"/>
      </g>
     </g>
     <g id="text_26">
      <!-- 1.0 -->
      <g transform="translate(34.696875 263.755739)scale(0.1 -0.1)">
       <use xlink:href="#DejaVuSans-49"/>
       <use x="63.623047" xlink:href="#DejaVuSans-46"/>
       <use x="95.410156" xlink:href="#DejaVuSans-48"/>
      </g>
     </g>
    </g>
    <g id="ytick_3">
     <g id="line2d_51">
      <path clip-path="url(#pbdc3f1819e)" d="M 57.6 215.568522 
L 414.72 215.568522 
" style="fill:none;stroke:#b0b0b0;stroke-dasharray:5.12,1.28,0.8,1.28;stroke-dashoffset:0;stroke-width:0.8;"/>
     </g>
     <g id="line2d_52">
      <g>
       <use style="stroke:#000000;stroke-width:0.8;" x="57.6" xlink:href="#m71a29b6291" y="215.568522"/>
      </g>
     </g>
     <g id="text_27">
      <!-- 1.5 -->
      <g transform="translate(34.696875 219.36774)scale(0.1 -0.1)">
       <use xlink:href="#DejaVuSans-49"/>
       <use x="63.623047" xlink:href="#DejaVuSans-46"/>
       <use x="95.410156" xlink:href="#DejaVuSans-53"/>
      </g>
     </g>
    </g>
    <g id="ytick_4">
     <g id="line2d_53">
      <path clip-path="url(#pbdc3f1819e)" d="M 57.6 171.180523 
L 414.72 171.180523 
" style="fill:none;stroke:#b0b0b0;stroke-dasharray:5.12,1.28,0.8,1.28;stroke-dashoffset:0;stroke-width:0.8;"/>
     </g>
     <g id="line2d_54">
      <g>
       <use style="stroke:#000000;stroke-width:0.8;" x="57.6" xlink:href="#m71a29b6291" y="171.180523"/>
      </g>
     </g>
     <g id="text_28">
      <!-- 2.0 -->
      <g transform="translate(34.696875 174.979742)scale(0.1 -0.1)">
       <use xlink:href="#DejaVuSans-50"/>
       <use x="63.623047" xlink:href="#DejaVuSans-46"/>
       <use x="95.410156" xlink:href="#DejaVuSans-48"/>
      </g>
     </g>
    </g>
    <g id="ytick_5">
     <g id="line2d_55">
      <path clip-path="url(#pbdc3f1819e)" d="M 57.6 126.792524 
L 414.72 126.792524 
" style="fill:none;stroke:#b0b0b0;stroke-dasharray:5.12,1.28,0.8,1.28;stroke-dashoffset:0;stroke-width:0.8;"/>
     </g>
     <g id="line2d_56">
      <g>
       <use style="stroke:#000000;stroke-width:0.8;" x="57.6" xlink:href="#m71a29b6291" y="126.792524"/>
      </g>
     </g>
     <g id="text_29">
      <!-- 2.5 -->
      <g transform="translate(34.696875 130.591743)scale(0.1 -0.1)">
       <use xlink:href="#DejaVuSans-50"/>
       <use x="63.623047" xlink:href="#DejaVuSans-46"/>
       <use x="95.410156" xlink:href="#DejaVuSans-53"/>
      </g>
     </g>
    </g>
    <g id="ytick_6">
     <g id="line2d_57">
      <path clip-path="url(#pbdc3f1819e)" d="M 57.6 82.404526 
L 414.72 82.404526 
" style="fill:none;stroke:#b0b0b0;stroke-dasharray:5.12,1.28,0.8,1.28;stroke-dashoffset:0;stroke-width:0.8;"/>
     </g>
     <g id="line2d_58">
      <g>
       <use style="stroke:#000000;stroke-width:0.8;" x="57.6" xlink:href="#m71a29b6291" y="82.404526"/>
      </g>
     </g>
     <g id="text_30">
      <!-- 3.0 -->
      <g transform="translate(34.696875 86.203744)scale(0.1 -0.1)">
       <use xlink:href="#DejaVuSans-51"/>
       <use x="63.623047" xlink:href="#DejaVuSans-46"/>
       <use x="95.410156" xlink:href="#DejaVuSans-48"/>
      </g>
     </g>
    </g>
    <g id="text_31">
     <!-- speed up -->
     <defs>
      <path d="M 18.109375 8.203125 
L 18.109375 -20.796875 
L 9.078125 -20.796875 
L 9.078125 54.6875 
L 18.109375 54.6875 
L 18.109375 46.390625 
Q 20.953125 51.265625 25.265625 53.625 
Q 29.59375 56 35.59375 56 
Q 45.5625 56 51.78125 48.09375 
Q 58.015625 40.1875 58.015625 27.296875 
Q 58.015625 14.40625 51.78125 6.484375 
Q 45.5625 -1.421875 35.59375 -1.421875 
Q 29.59375 -1.421875 25.265625 0.953125 
Q 20.953125 3.328125 18.109375 8.203125 
z
M 48.6875 27.296875 
Q 48.6875 37.203125 44.609375 42.84375 
Q 40.53125 48.484375 33.40625 48.484375 
Q 26.265625 48.484375 22.1875 42.84375 
Q 18.109375 37.203125 18.109375 27.296875 
Q 18.109375 17.390625 22.1875 11.75 
Q 26.265625 6.109375 33.40625 6.109375 
Q 40.53125 6.109375 44.609375 11.75 
Q 48.6875 17.390625 48.6875 27.296875 
z
" id="DejaVuSans-112"/>
      <path id="DejaVuSans-32"/>
      <path d="M 8.5 21.578125 
L 8.5 54.6875 
L 17.484375 54.6875 
L 17.484375 21.921875 
Q 17.484375 14.15625 20.5 10.265625 
Q 23.53125 6.390625 29.59375 6.390625 
Q 36.859375 6.390625 41.078125 11.03125 
Q 45.3125 15.671875 45.3125 23.6875 
L 45.3125 54.6875 
L 54.296875 54.6875 
L 54.296875 0 
L 45.3125 0 
L 45.3125 8.40625 
Q 42.046875 3.421875 37.71875 1 
Q 33.40625 -1.421875 27.6875 -1.421875 
Q 18.265625 -1.421875 13.375 4.4375 
Q 8.5 10.296875 8.5 21.578125 
z
M 31.109375 56 
z
" id="DejaVuSans-117"/>
     </defs>
     <g transform="translate(28.617187 197.566281)rotate(-90)scale(0.1 -0.1)">
      <use xlink:href="#DejaVuSans-115"/>
      <use x="52.099609" xlink:href="#DejaVuSans-112"/>
      <use x="115.576172" xlink:href="#DejaVuSans-101"/>
      <use x="177.099609" xlink:href="#DejaVuSans-101"/>
      <use x="238.623047" xlink:href="#DejaVuSans-100"/>
      <use x="302.099609" xlink:href="#DejaVuSans-32"/>
      <use x="333.886719" xlink:href="#DejaVuSans-117"/>
      <use x="397.265625" xlink:href="#DejaVuSans-112"/>
     </g>
    </g>
   </g>
   <g id="line2d_59">
    <path clip-path="url(#pbdc3f1819e)" d="M 61.612584 295.488 
L 65.625169 256.460406 
L 69.637753 228.934501 
L 73.650337 203.731918 
L 77.662921 183.169549 
L 81.675506 167.077908 
L 85.68809 154.063135 
L 89.700674 141.595546 
L 93.713258 126.650885 
L 97.725843 116.479169 
L 101.738427 109.952928 
L 105.751011 99.870018 
L 109.763596 92.891537 
L 113.77618 87.804753 
L 117.788764 81.789675 
L 121.801348 75.166125 
L 125.813933 76.766392 
L 129.826517 66.92098 
L 133.839101 68.080256 
L 137.851685 65.813237 
L 141.86427 67.220193 
L 145.876854 64.307647 
L 149.889438 65.619705 
L 153.902022 61.104009 
L 157.914607 64.820788 
L 161.927191 62.403286 
L 165.939775 61.740585 
L 169.95236 61.254095 
L 173.964944 61.457836 
L 177.977528 62.595493 
L 181.990112 61.734581 
L 186.002697 56.721563 
L 190.015281 56.657807 
L 194.027865 62.956406 
L 198.040449 58.88473 
L 202.053034 57.574117 
L 206.065618 55.5384 
L 210.078202 56.927361 
L 214.090787 57.838541 
L 218.103371 61.202869 
L 222.115955 56.958939 
L 226.128539 55.947666 
L 230.141124 53.568 
L 234.153708 55.333848 
L 238.166292 59.888719 
L 242.178876 59.206357 
L 246.191461 54.541213 
L 250.204045 56.047053 
L 254.216629 56.993395 
L 258.229213 59.023795 
L 262.241798 57.134051 
L 266.254382 54.073558 
L 270.266966 54.876528 
L 274.279551 59.512298 
L 278.292135 55.676647 
L 282.304719 56.498337 
L 286.317303 57.479417 
L 290.329888 56.463705 
L 294.342472 57.468057 
L 298.355056 58.914547 
L 302.36764 59.824753 
L 306.380225 61.124342 
L 310.392809 60.618256 
L 314.405393 61.182884 
L 318.417978 65.686427 
L 322.430562 61.815036 
L 326.443146 62.597575 
L 330.45573 64.403111 
L 334.468315 62.870384 
L 338.480899 63.280364 
L 342.493483 64.106473 
L 346.506067 63.161806 
L 350.518652 64.799527 
L 354.531236 65.699817 
L 358.54382 68.544042 
L 362.556404 67.353578 
L 366.568989 68.588375 
L 370.581573 67.620719 
L 374.594157 68.558067 
L 378.606742 66.246697 
L 382.619326 68.611149 
L 386.63191 68.245904 
L 390.644494 68.827735 
L 394.657079 68.342875 
L 398.669663 69.476654 
L 402.682247 69.248599 
L 406.694831 71.527324 
L 410.707416 70.913767 
" style="fill:none;stroke:#0000ff;stroke-dasharray:1.5,2.475;stroke-dashoffset:0;stroke-width:1.5;"/>
    <defs>
     <path d="M 0 1.5 
C 0.397805 1.5 0.77937 1.341951 1.06066 1.06066 
C 1.341951 0.77937 1.5 0.397805 1.5 0 
C 1.5 -0.397805 1.341951 -0.77937 1.06066 -1.06066 
C 0.77937 -1.341951 0.397805 -1.5 0 -1.5 
C -0.397805 -1.5 -0.77937 -1.341951 -1.06066 -1.06066 
C -1.341951 -0.77937 -1.5 -0.397805 -1.5 0 
C -1.5 0.397805 -1.341951 0.77937 -1.06066 1.06066 
C -0.77937 1.341951 -0.397805 1.5 0 1.5 
z
" id="m51dad42961" style="stroke:#0000ff;"/>
    </defs>
    <g clip-path="url(#pbdc3f1819e)">
     <use style="fill:#0000ff;stroke:#0000ff;" x="61.612584" xlink:href="#m51dad42961" y="295.488"/>
     <use style="fill:#0000ff;stroke:#0000ff;" x="65.625169" xlink:href="#m51dad42961" y="256.460406"/>
     <use style="fill:#0000ff;stroke:#0000ff;" x="69.637753" xlink:href="#m51dad42961" y="228.934501"/>
     <use style="fill:#0000ff;stroke:#0000ff;" x="73.650337" xlink:href="#m51dad42961" y="203.731918"/>
     <use style="fill:#0000ff;stroke:#0000ff;" x="77.662921" xlink:href="#m51dad42961" y="183.169549"/>
     <use style="fill:#0000ff;stroke:#0000ff;" x="81.675506" xlink:href="#m51dad42961" y="167.077908"/>
     <use style="fill:#0000ff;stroke:#0000ff;" x="85.68809" xlink:href="#m51dad42961" y="154.063135"/>
     <use style="fill:#0000ff;stroke:#0000ff;" x="89.700674" xlink:href="#m51dad42961" y="141.595546"/>
     <use style="fill:#0000ff;stroke:#0000ff;" x="93.713258" xlink:href="#m51dad42961" y="126.650885"/>
     <use style="fill:#0000ff;stroke:#0000ff;" x="97.725843" xlink:href="#m51dad42961" y="116.479169"/>
     <use style="fill:#0000ff;stroke:#0000ff;" x="101.738427" xlink:href="#m51dad42961" y="109.952928"/>
     <use style="fill:#0000ff;stroke:#0000ff;" x="105.751011" xlink:href="#m51dad42961" y="99.870018"/>
     <use style="fill:#0000ff;stroke:#0000ff;" x="109.763596" xlink:href="#m51dad42961" y="92.891537"/>
     <use style="fill:#0000ff;stroke:#0000ff;" x="113.77618" xlink:href="#m51dad42961" y="87.804753"/>
     <use style="fill:#0000ff;stroke:#0000ff;" x="117.788764" xlink:href="#m51dad42961" y="81.789675"/>
     <use style="fill:#0000ff;stroke:#0000ff;" x="121.801348" xlink:href="#m51dad42961" y="75.166125"/>
     <use style="fill:#0000ff;stroke:#0000ff;" x="125.813933" xlink:href="#m51dad42961" y="76.766392"/>
     <use style="fill:#0000ff;stroke:#0000ff;" x="129.826517" xlink:href="#m51dad42961" y="66.92098"/>
     <use style="fill:#0000ff;stroke:#0000ff;" x="133.839101" xlink:href="#m51dad42961" y="68.080256"/>
     <use style="fill:#0000ff;stroke:#0000ff;" x="137.851685" xlink:href="#m51dad42961" y="65.813237"/>
     <use style="fill:#0000ff;stroke:#0000ff;" x="141.86427" xlink:href="#m51dad42961" y="67.220193"/>
     <use style="fill:#0000ff;stroke:#0000ff;" x="145.876854" xlink:href="#m51dad42961" y="64.307647"/>
     <use style="fill:#0000ff;stroke:#0000ff;" x="149.889438" xlink:href="#m51dad42961" y="65.619705"/>
     <use style="fill:#0000ff;stroke:#0000ff;" x="153.902022" xlink:href="#m51dad42961" y="61.104009"/>
     <use style="fill:#0000ff;stroke:#0000ff;" x="157.914607" xlink:href="#m51dad42961" y="64.820788"/>
     <use style="fill:#0000ff;stroke:#0000ff;" x="161.927191" xlink:href="#m51dad42961" y="62.403286"/>
     <use style="fill:#0000ff;stroke:#0000ff;" x="165.939775" xlink:href="#m51dad42961" y="61.740585"/>
     <use style="fill:#0000ff;stroke:#0000ff;" x="169.95236" xlink:href="#m51dad42961" y="61.254095"/>
     <use style="fill:#0000ff;stroke:#0000ff;" x="173.964944" xlink:href="#m51dad42961" y="61.457836"/>
     <use style="fill:#0000ff;stroke:#0000ff;" x="177.977528" xlink:href="#m51dad42961" y="62.595493"/>
     <use style="fill:#0000ff;stroke:#0000ff;" x="181.990112" xlink:href="#m51dad42961" y="61.734581"/>
     <use style="fill:#0000ff;stroke:#0000ff;" x="186.002697" xlink:href="#m51dad42961" y="56.721563"/>
     <use style="fill:#0000ff;stroke:#0000ff;" x="190.015281" xlink:href="#m51dad42961" y="56.657807"/>
     <use style="fill:#0000ff;stroke:#0000ff;" x="194.027865" xlink:href="#m51dad42961" y="62.956406"/>
     <use style="fill:#0000ff;stroke:#0000ff;" x="198.040449" xlink:href="#m51dad42961" y="58.88473"/>
     <use style="fill:#0000ff;stroke:#0000ff;" x="202.053034" xlink:href="#m51dad42961" y="57.574117"/>
     <use style="fill:#0000ff;stroke:#0000ff;" x="206.065618" xlink:href="#m51dad42961" y="55.5384"/>
     <use style="fill:#0000ff;stroke:#0000ff;" x="210.078202" xlink:href="#m51dad42961" y="56.927361"/>
     <use style="fill:#0000ff;stroke:#0000ff;" x="214.090787" xlink:href="#m51dad42961" y="57.838541"/>
     <use style="fill:#0000ff;stroke:#0000ff;" x="218.103371" xlink:href="#m51dad42961" y="61.202869"/>
     <use style="fill:#0000ff;stroke:#0000ff;" x="222.115955" xlink:href="#m51dad42961" y="56.958939"/>
     <use style="fill:#0000ff;stroke:#0000ff;" x="226.128539" xlink:href="#m51dad42961" y="55.947666"/>
     <use style="fill:#0000ff;stroke:#0000ff;" x="230.141124" xlink:href="#m51dad42961" y="53.568"/>
     <use style="fill:#0000ff;stroke:#0000ff;" x="234.153708" xlink:href="#m51dad42961" y="55.333848"/>
     <use style="fill:#0000ff;stroke:#0000ff;" x="238.166292" xlink:href="#m51dad42961" y="59.888719"/>
     <use style="fill:#0000ff;stroke:#0000ff;" x="242.178876" xlink:href="#m51dad42961" y="59.206357"/>
     <use style="fill:#0000ff;stroke:#0000ff;" x="246.191461" xlink:href="#m51dad42961" y="54.541213"/>
     <use style="fill:#0000ff;stroke:#0000ff;" x="250.204045" xlink:href="#m51dad42961" y="56.047053"/>
     <use style="fill:#0000ff;stroke:#0000ff;" x="254.216629" xlink:href="#m51dad42961" y="56.993395"/>
     <use style="fill:#0000ff;stroke:#0000ff;" x="258.229213" xlink:href="#m51dad42961" y="59.023795"/>
     <use style="fill:#0000ff;stroke:#0000ff;" x="262.241798" xlink:href="#m51dad42961" y="57.134051"/>
     <use style="fill:#0000ff;stroke:#0000ff;" x="266.254382" xlink:href="#m51dad42961" y="54.073558"/>
     <use style="fill:#0000ff;stroke:#0000ff;" x="270.266966" xlink:href="#m51dad42961" y="54.876528"/>
     <use style="fill:#0000ff;stroke:#0000ff;" x="274.279551" xlink:href="#m51dad42961" y="59.512298"/>
     <use style="fill:#0000ff;stroke:#0000ff;" x="278.292135" xlink:href="#m51dad42961" y="55.676647"/>
     <use style="fill:#0000ff;stroke:#0000ff;" x="282.304719" xlink:href="#m51dad42961" y="56.498337"/>
     <use style="fill:#0000ff;stroke:#0000ff;" x="286.317303" xlink:href="#m51dad42961" y="57.479417"/>
     <use style="fill:#0000ff;stroke:#0000ff;" x="290.329888" xlink:href="#m51dad42961" y="56.463705"/>
     <use style="fill:#0000ff;stroke:#0000ff;" x="294.342472" xlink:href="#m51dad42961" y="57.468057"/>
     <use style="fill:#0000ff;stroke:#0000ff;" x="298.355056" xlink:href="#m51dad42961" y="58.914547"/>
     <use style="fill:#0000ff;stroke:#0000ff;" x="302.36764" xlink:href="#m51dad42961" y="59.824753"/>
     <use style="fill:#0000ff;stroke:#0000ff;" x="306.380225" xlink:href="#m51dad42961" y="61.124342"/>
     <use style="fill:#0000ff;stroke:#0000ff;" x="310.392809" xlink:href="#m51dad42961" y="60.618256"/>
     <use style="fill:#0000ff;stroke:#0000ff;" x="314.405393" xlink:href="#m51dad42961" y="61.182884"/>
     <use style="fill:#0000ff;stroke:#0000ff;" x="318.417978" xlink:href="#m51dad42961" y="65.686427"/>
     <use style="fill:#0000ff;stroke:#0000ff;" x="322.430562" xlink:href="#m51dad42961" y="61.815036"/>
     <use style="fill:#0000ff;stroke:#0000ff;" x="326.443146" xlink:href="#m51dad42961" y="62.597575"/>
     <use style="fill:#0000ff;stroke:#0000ff;" x="330.45573" xlink:href="#m51dad42961" y="64.403111"/>
     <use style="fill:#0000ff;stroke:#0000ff;" x="334.468315" xlink:href="#m51dad42961" y="62.870384"/>
     <use style="fill:#0000ff;stroke:#0000ff;" x="338.480899" xlink:href="#m51dad42961" y="63.280364"/>
     <use style="fill:#0000ff;stroke:#0000ff;" x="342.493483" xlink:href="#m51dad42961" y="64.106473"/>
     <use style="fill:#0000ff;stroke:#0000ff;" x="346.506067" xlink:href="#m51dad42961" y="63.161806"/>
     <use style="fill:#0000ff;stroke:#0000ff;" x="350.518652" xlink:href="#m51dad42961" y="64.799527"/>
     <use style="fill:#0000ff;stroke:#0000ff;" x="354.531236" xlink:href="#m51dad42961" y="65.699817"/>
     <use style="fill:#0000ff;stroke:#0000ff;" x="358.54382" xlink:href="#m51dad42961" y="68.544042"/>
     <use style="fill:#0000ff;stroke:#0000ff;" x="362.556404" xlink:href="#m51dad42961" y="67.353578"/>
     <use style="fill:#0000ff;stroke:#0000ff;" x="366.568989" xlink:href="#m51dad42961" y="68.588375"/>
     <use style="fill:#0000ff;stroke:#0000ff;" x="370.581573" xlink:href="#m51dad42961" y="67.620719"/>
     <use style="fill:#0000ff;stroke:#0000ff;" x="374.594157" xlink:href="#m51dad42961" y="68.558067"/>
     <use style="fill:#0000ff;stroke:#0000ff;" x="378.606742" xlink:href="#m51dad42961" y="66.246697"/>
     <use style="fill:#0000ff;stroke:#0000ff;" x="382.619326" xlink:href="#m51dad42961" y="68.611149"/>
     <use style="fill:#0000ff;stroke:#0000ff;" x="386.63191" xlink:href="#m51dad42961" y="68.245904"/>
     <use style="fill:#0000ff;stroke:#0000ff;" x="390.644494" xlink:href="#m51dad42961" y="68.827735"/>
     <use style="fill:#0000ff;stroke:#0000ff;" x="394.657079" xlink:href="#m51dad42961" y="68.342875"/>
     <use style="fill:#0000ff;stroke:#0000ff;" x="398.669663" xlink:href="#m51dad42961" y="69.476654"/>
     <use style="fill:#0000ff;stroke:#0000ff;" x="402.682247" xlink:href="#m51dad42961" y="69.248599"/>
     <use style="fill:#0000ff;stroke:#0000ff;" x="406.694831" xlink:href="#m51dad42961" y="71.527324"/>
     <use style="fill:#0000ff;stroke:#0000ff;" x="410.707416" xlink:href="#m51dad42961" y="70.913767"/>
    </g>
   </g>
   <g id="line2d_60">
    <path clip-path="url(#pbdc3f1819e)" d="M 61.612584 293.390684 
L 65.625169 252.068093 
L 69.637753 220.787887 
L 73.650337 196.724323 
L 77.662921 179.434388 
L 81.675506 162.067039 
L 85.68809 149.64956 
L 89.700674 136.09856 
L 93.713258 124.989872 
L 97.725843 114.465132 
L 101.738427 110.967135 
L 105.751011 103.613477 
L 109.763596 99.407495 
L 113.77618 100.447401 
L 117.788764 96.505313 
L 121.801348 95.437415 
L 125.813933 93.48257 
L 129.826517 91.198938 
L 133.839101 85.399616 
L 137.851685 93.901439 
L 141.86427 90.250862 
L 145.876854 89.911114 
L 149.889438 100.122965 
L 153.902022 99.497411 
L 157.914607 96.685524 
L 161.927191 96.843344 
L 165.939775 98.552653 
L 169.95236 96.475914 
L 173.964944 97.112938 
L 177.977528 102.089244 
L 181.990112 100.767958 
L 186.002697 91.995468 
L 190.015281 100.211088 
L 194.027865 99.837335 
L 198.040449 98.20278 
L 202.053034 93.815759 
L 206.065618 100.046053 
L 210.078202 90.13272 
L 214.090787 98.288555 
L 218.103371 104.478132 
L 222.115955 95.300275 
L 226.128539 101.219771 
L 230.141124 97.400272 
L 234.153708 101.196941 
L 238.166292 102.637065 
L 242.178876 104.894293 
L 246.191461 104.585003 
L 250.204045 103.617647 
L 254.216629 105.33817 
L 258.229213 102.107369 
L 262.241798 105.059679 
L 266.254382 104.534633 
L 270.266966 106.253614 
L 274.279551 106.850391 
L 278.292135 105.92389 
L 282.304719 107.323606 
L 286.317303 106.740906 
L 290.329888 105.617737 
L 294.342472 108.117942 
L 298.355056 107.854174 
L 302.36764 105.872815 
L 306.380225 110.241367 
L 310.392809 110.715243 
L 314.405393 106.809003 
L 318.417978 107.08868 
L 322.430562 107.918158 
L 326.443146 105.737293 
L 330.45573 109.335742 
L 334.468315 109.59483 
L 338.480899 106.862302 
L 342.493483 110.598087 
L 346.506067 110.286886 
L 350.518652 110.360398 
L 354.531236 110.134123 
L 358.54382 110.285904 
L 362.556404 112.680456 
L 366.568989 110.025201 
L 370.581573 110.817757 
L 374.594157 112.222214 
L 378.606742 110.055709 
L 382.619326 113.246722 
L 386.63191 112.610586 
L 390.644494 114.051638 
L 394.657079 111.976226 
L 398.669663 114.746144 
L 402.682247 115.092169 
L 406.694831 115.191403 
L 410.707416 111.482607 
" style="fill:none;stroke:#ff0000;stroke-dasharray:1.5,2.475;stroke-dashoffset:0;stroke-width:1.5;"/>
    <defs>
     <path d="M 0 1.5 
C 0.397805 1.5 0.77937 1.341951 1.06066 1.06066 
C 1.341951 0.77937 1.5 0.397805 1.5 0 
C 1.5 -0.397805 1.341951 -0.77937 1.06066 -1.06066 
C 0.77937 -1.341951 0.397805 -1.5 0 -1.5 
C -0.397805 -1.5 -0.77937 -1.341951 -1.06066 -1.06066 
C -1.341951 -0.77937 -1.5 -0.397805 -1.5 0 
C -1.5 0.397805 -1.341951 0.77937 -1.06066 1.06066 
C -0.77937 1.341951 -0.397805 1.5 0 1.5 
z
" id="mf7382a82f9" style="stroke:#ff0000;"/>
    </defs>
    <g clip-path="url(#pbdc3f1819e)">
     <use style="fill:#ff0000;stroke:#ff0000;" x="61.612584" xlink:href="#mf7382a82f9" y="293.390684"/>
     <use style="fill:#ff0000;stroke:#ff0000;" x="65.625169" xlink:href="#mf7382a82f9" y="252.068093"/>
     <use style="fill:#ff0000;stroke:#ff0000;" x="69.637753" xlink:href="#mf7382a82f9" y="220.787887"/>
     <use style="fill:#ff0000;stroke:#ff0000;" x="73.650337" xlink:href="#mf7382a82f9" y="196.724323"/>
     <use style="fill:#ff0000;stroke:#ff0000;" x="77.662921" xlink:href="#mf7382a82f9" y="179.434388"/>
     <use style="fill:#ff0000;stroke:#ff0000;" x="81.675506" xlink:href="#mf7382a82f9" y="162.067039"/>
     <use style="fill:#ff0000;stroke:#ff0000;" x="85.68809" xlink:href="#mf7382a82f9" y="149.64956"/>
     <use style="fill:#ff0000;stroke:#ff0000;" x="89.700674" xlink:href="#mf7382a82f9" y="136.09856"/>
     <use style="fill:#ff0000;stroke:#ff0000;" x="93.713258" xlink:href="#mf7382a82f9" y="124.989872"/>
     <use style="fill:#ff0000;stroke:#ff0000;" x="97.725843" xlink:href="#mf7382a82f9" y="114.465132"/>
     <use style="fill:#ff0000;stroke:#ff0000;" x="101.738427" xlink:href="#mf7382a82f9" y="110.967135"/>
     <use style="fill:#ff0000;stroke:#ff0000;" x="105.751011" xlink:href="#mf7382a82f9" y="103.613477"/>
     <use style="fill:#ff0000;stroke:#ff0000;" x="109.763596" xlink:href="#mf7382a82f9" y="99.407495"/>
     <use style="fill:#ff0000;stroke:#ff0000;" x="113.77618" xlink:href="#mf7382a82f9" y="100.447401"/>
     <use style="fill:#ff0000;stroke:#ff0000;" x="117.788764" xlink:href="#mf7382a82f9" y="96.505313"/>
     <use style="fill:#ff0000;stroke:#ff0000;" x="121.801348" xlink:href="#mf7382a82f9" y="95.437415"/>
     <use style="fill:#ff0000;stroke:#ff0000;" x="125.813933" xlink:href="#mf7382a82f9" y="93.48257"/>
     <use style="fill:#ff0000;stroke:#ff0000;" x="129.826517" xlink:href="#mf7382a82f9" y="91.198938"/>
     <use style="fill:#ff0000;stroke:#ff0000;" x="133.839101" xlink:href="#mf7382a82f9" y="85.399616"/>
     <use style="fill:#ff0000;stroke:#ff0000;" x="137.851685" xlink:href="#mf7382a82f9" y="93.901439"/>
     <use style="fill:#ff0000;stroke:#ff0000;" x="141.86427" xlink:href="#mf7382a82f9" y="90.250862"/>
     <use style="fill:#ff0000;stroke:#ff0000;" x="145.876854" xlink:href="#mf7382a82f9" y="89.911114"/>
     <use style="fill:#ff0000;stroke:#ff0000;" x="149.889438" xlink:href="#mf7382a82f9" y="100.122965"/>
     <use style="fill:#ff0000;stroke:#ff0000;" x="153.902022" xlink:href="#mf7382a82f9" y="99.497411"/>
     <use style="fill:#ff0000;stroke:#ff0000;" x="157.914607" xlink:href="#mf7382a82f9" y="96.685524"/>
     <use style="fill:#ff0000;stroke:#ff0000;" x="161.927191" xlink:href="#mf7382a82f9" y="96.843344"/>
     <use style="fill:#ff0000;stroke:#ff0000;" x="165.939775" xlink:href="#mf7382a82f9" y="98.552653"/>
     <use style="fill:#ff0000;stroke:#ff0000;" x="169.95236" xlink:href="#mf7382a82f9" y="96.475914"/>
     <use style="fill:#ff0000;stroke:#ff0000;" x="173.964944" xlink:href="#mf7382a82f9" y="97.112938"/>
     <use style="fill:#ff0000;stroke:#ff0000;" x="177.977528" xlink:href="#mf7382a82f9" y="102.089244"/>
     <use style="fill:#ff0000;stroke:#ff0000;" x="181.990112" xlink:href="#mf7382a82f9" y="100.767958"/>
     <use style="fill:#ff0000;stroke:#ff0000;" x="186.002697" xlink:href="#mf7382a82f9" y="91.995468"/>
     <use style="fill:#ff0000;stroke:#ff0000;" x="190.015281" xlink:href="#mf7382a82f9" y="100.211088"/>
     <use style="fill:#ff0000;stroke:#ff0000;" x="194.027865" xlink:href="#mf7382a82f9" y="99.837335"/>
     <use style="fill:#ff0000;stroke:#ff0000;" x="198.040449" xlink:href="#mf7382a82f9" y="98.20278"/>
     <use style="fill:#ff0000;stroke:#ff0000;" x="202.053034" xlink:href="#mf7382a82f9" y="93.815759"/>
     <use style="fill:#ff0000;stroke:#ff0000;" x="206.065618" xlink:href="#mf7382a82f9" y="100.046053"/>
     <use style="fill:#ff0000;stroke:#ff0000;" x="210.078202" xlink:href="#mf7382a82f9" y="90.13272"/>
     <use style="fill:#ff0000;stroke:#ff0000;" x="214.090787" xlink:href="#mf7382a82f9" y="98.288555"/>
     <use style="fill:#ff0000;stroke:#ff0000;" x="218.103371" xlink:href="#mf7382a82f9" y="104.478132"/>
     <use style="fill:#ff0000;stroke:#ff0000;" x="222.115955" xlink:href="#mf7382a82f9" y="95.300275"/>
     <use style="fill:#ff0000;stroke:#ff0000;" x="226.128539" xlink:href="#mf7382a82f9" y="101.219771"/>
     <use style="fill:#ff0000;stroke:#ff0000;" x="230.141124" xlink:href="#mf7382a82f9" y="97.400272"/>
     <use style="fill:#ff0000;stroke:#ff0000;" x="234.153708" xlink:href="#mf7382a82f9" y="101.196941"/>
     <use style="fill:#ff0000;stroke:#ff0000;" x="238.166292" xlink:href="#mf7382a82f9" y="102.637065"/>
     <use style="fill:#ff0000;stroke:#ff0000;" x="242.178876" xlink:href="#mf7382a82f9" y="104.894293"/>
     <use style="fill:#ff0000;stroke:#ff0000;" x="246.191461" xlink:href="#mf7382a82f9" y="104.585003"/>
     <use style="fill:#ff0000;stroke:#ff0000;" x="250.204045" xlink:href="#mf7382a82f9" y="103.617647"/>
     <use style="fill:#ff0000;stroke:#ff0000;" x="254.216629" xlink:href="#mf7382a82f9" y="105.33817"/>
     <use style="fill:#ff0000;stroke:#ff0000;" x="258.229213" xlink:href="#mf7382a82f9" y="102.107369"/>
     <use style="fill:#ff0000;stroke:#ff0000;" x="262.241798" xlink:href="#mf7382a82f9" y="105.059679"/>
     <use style="fill:#ff0000;stroke:#ff0000;" x="266.254382" xlink:href="#mf7382a82f9" y="104.534633"/>
     <use style="fill:#ff0000;stroke:#ff0000;" x="270.266966" xlink:href="#mf7382a82f9" y="106.253614"/>
     <use style="fill:#ff0000;stroke:#ff0000;" x="274.279551" xlink:href="#mf7382a82f9" y="106.850391"/>
     <use style="fill:#ff0000;stroke:#ff0000;" x="278.292135" xlink:href="#mf7382a82f9" y="105.92389"/>
     <use style="fill:#ff0000;stroke:#ff0000;" x="282.304719" xlink:href="#mf7382a82f9" y="107.323606"/>
     <use style="fill:#ff0000;stroke:#ff0000;" x="286.317303" xlink:href="#mf7382a82f9" y="106.740906"/>
     <use style="fill:#ff0000;stroke:#ff0000;" x="290.329888" xlink:href="#mf7382a82f9" y="105.617737"/>
     <use style="fill:#ff0000;stroke:#ff0000;" x="294.342472" xlink:href="#mf7382a82f9" y="108.117942"/>
     <use style="fill:#ff0000;stroke:#ff0000;" x="298.355056" xlink:href="#mf7382a82f9" y="107.854174"/>
     <use style="fill:#ff0000;stroke:#ff0000;" x="302.36764" xlink:href="#mf7382a82f9" y="105.872815"/>
     <use style="fill:#ff0000;stroke:#ff0000;" x="306.380225" xlink:href="#mf7382a82f9" y="110.241367"/>
     <use style="fill:#ff0000;stroke:#ff0000;" x="310.392809" xlink:href="#mf7382a82f9" y="110.715243"/>
     <use style="fill:#ff0000;stroke:#ff0000;" x="314.405393" xlink:href="#mf7382a82f9" y="106.809003"/>
     <use style="fill:#ff0000;stroke:#ff0000;" x="318.417978" xlink:href="#mf7382a82f9" y="107.08868"/>
     <use style="fill:#ff0000;stroke:#ff0000;" x="322.430562" xlink:href="#mf7382a82f9" y="107.918158"/>
     <use style="fill:#ff0000;stroke:#ff0000;" x="326.443146" xlink:href="#mf7382a82f9" y="105.737293"/>
     <use style="fill:#ff0000;stroke:#ff0000;" x="330.45573" xlink:href="#mf7382a82f9" y="109.335742"/>
     <use style="fill:#ff0000;stroke:#ff0000;" x="334.468315" xlink:href="#mf7382a82f9" y="109.59483"/>
     <use style="fill:#ff0000;stroke:#ff0000;" x="338.480899" xlink:href="#mf7382a82f9" y="106.862302"/>
     <use style="fill:#ff0000;stroke:#ff0000;" x="342.493483" xlink:href="#mf7382a82f9" y="110.598087"/>
     <use style="fill:#ff0000;stroke:#ff0000;" x="346.506067" xlink:href="#mf7382a82f9" y="110.286886"/>
     <use style="fill:#ff0000;stroke:#ff0000;" x="350.518652" xlink:href="#mf7382a82f9" y="110.360398"/>
     <use style="fill:#ff0000;stroke:#ff0000;" x="354.531236" xlink:href="#mf7382a82f9" y="110.134123"/>
     <use style="fill:#ff0000;stroke:#ff0000;" x="358.54382" xlink:href="#mf7382a82f9" y="110.285904"/>
     <use style="fill:#ff0000;stroke:#ff0000;" x="362.556404" xlink:href="#mf7382a82f9" y="112.680456"/>
     <use style="fill:#ff0000;stroke:#ff0000;" x="366.568989" xlink:href="#mf7382a82f9" y="110.025201"/>
     <use style="fill:#ff0000;stroke:#ff0000;" x="370.581573" xlink:href="#mf7382a82f9" y="110.817757"/>
     <use style="fill:#ff0000;stroke:#ff0000;" x="374.594157" xlink:href="#mf7382a82f9" y="112.222214"/>
     <use style="fill:#ff0000;stroke:#ff0000;" x="378.606742" xlink:href="#mf7382a82f9" y="110.055709"/>
     <use style="fill:#ff0000;stroke:#ff0000;" x="382.619326" xlink:href="#mf7382a82f9" y="113.246722"/>
     <use style="fill:#ff0000;stroke:#ff0000;" x="386.63191" xlink:href="#mf7382a82f9" y="112.610586"/>
     <use style="fill:#ff0000;stroke:#ff0000;" x="390.644494" xlink:href="#mf7382a82f9" y="114.051638"/>
     <use style="fill:#ff0000;stroke:#ff0000;" x="394.657079" xlink:href="#mf7382a82f9" y="111.976226"/>
     <use style="fill:#ff0000;stroke:#ff0000;" x="398.669663" xlink:href="#mf7382a82f9" y="114.746144"/>
     <use style="fill:#ff0000;stroke:#ff0000;" x="402.682247" xlink:href="#mf7382a82f9" y="115.092169"/>
     <use style="fill:#ff0000;stroke:#ff0000;" x="406.694831" xlink:href="#mf7382a82f9" y="115.191403"/>
     <use style="fill:#ff0000;stroke:#ff0000;" x="410.707416" xlink:href="#mf7382a82f9" y="111.482607"/>
    </g>
   </g>
   <g id="line2d_61">
    <path clip-path="url(#pbdc3f1819e)" d="M 61.612584 294.439342 
L 65.625169 254.26425 
L 69.637753 224.861194 
L 73.650337 200.22812 
L 77.662921 181.301968 
L 81.675506 164.572473 
L 85.68809 151.856347 
L 89.700674 138.847053 
L 93.713258 125.820378 
L 97.725843 115.47215 
L 101.738427 110.460032 
L 105.751011 101.741748 
L 109.763596 96.149516 
L 113.77618 94.126077 
L 117.788764 89.147494 
L 121.801348 85.30177 
L 125.813933 85.124481 
L 129.826517 79.059959 
L 133.839101 76.739936 
L 137.851685 79.857338 
L 141.86427 78.735527 
L 145.876854 77.10938 
L 149.889438 82.871335 
L 153.902022 80.30071 
L 157.914607 80.753156 
L 161.927191 79.623315 
L 165.939775 80.146619 
L 169.95236 78.865004 
L 173.964944 79.285387 
L 177.977528 82.342368 
L 181.990112 81.251269 
L 186.002697 74.358516 
L 190.015281 78.434447 
L 194.027865 81.39687 
L 198.040449 78.543755 
L 202.053034 75.694938 
L 206.065618 77.792227 
L 210.078202 73.53004 
L 214.090787 78.063548 
L 218.103371 82.840501 
L 222.115955 76.129607 
L 226.128539 78.583718 
L 230.141124 75.484136 
L 234.153708 78.265395 
L 238.166292 81.262892 
L 242.178876 82.050325 
L 246.191461 79.563108 
L 250.204045 79.83235 
L 254.216629 81.165782 
L 258.229213 80.565582 
L 262.241798 81.096865 
L 266.254382 79.304095 
L 270.266966 80.565071 
L 274.279551 83.181345 
L 278.292135 80.800269 
L 282.304719 81.910971 
L 286.317303 82.110162 
L 290.329888 81.040721 
L 294.342472 82.793 
L 298.355056 83.384361 
L 302.36764 82.848784 
L 306.380225 85.682854 
L 310.392809 85.666749 
L 314.405393 83.995944 
L 318.417978 86.387554 
L 322.430562 84.866597 
L 326.443146 84.167434 
L 330.45573 86.869427 
L 334.468315 86.232607 
L 338.480899 85.071333 
L 342.493483 87.35228 
L 346.506067 86.724346 
L 350.518652 87.579962 
L 354.531236 87.91697 
L 358.54382 89.414973 
L 362.556404 90.017017 
L 366.568989 89.306788 
L 370.581573 89.219238 
L 374.594157 90.390141 
L 378.606742 88.151203 
L 382.619326 90.928935 
L 386.63191 90.428245 
L 390.644494 91.439687 
L 394.657079 90.159551 
L 398.669663 92.111399 
L 402.682247 92.170384 
L 406.694831 93.359364 
L 410.707416 91.198187 
" style="fill:none;stroke:#008000;stroke-dasharray:1.5,2.475;stroke-dashoffset:0;stroke-width:1.5;"/>
    <defs>
     <path d="M 0 1.5 
C 0.397805 1.5 0.77937 1.341951 1.06066 1.06066 
C 1.341951 0.77937 1.5 0.397805 1.5 0 
C 1.5 -0.397805 1.341951 -0.77937 1.06066 -1.06066 
C 0.77937 -1.341951 0.397805 -1.5 0 -1.5 
C -0.397805 -1.5 -0.77937 -1.341951 -1.06066 -1.06066 
C -1.341951 -0.77937 -1.5 -0.397805 -1.5 0 
C -1.5 0.397805 -1.341951 0.77937 -1.06066 1.06066 
C -0.77937 1.341951 -0.397805 1.5 0 1.5 
z
" id="md228f605e4" style="stroke:#008000;"/>
    </defs>
    <g clip-path="url(#pbdc3f1819e)">
     <use style="fill:#008000;stroke:#008000;" x="61.612584" xlink:href="#md228f605e4" y="294.439342"/>
     <use style="fill:#008000;stroke:#008000;" x="65.625169" xlink:href="#md228f605e4" y="254.26425"/>
     <use style="fill:#008000;stroke:#008000;" x="69.637753" xlink:href="#md228f605e4" y="224.861194"/>
     <use style="fill:#008000;stroke:#008000;" x="73.650337" xlink:href="#md228f605e4" y="200.22812"/>
     <use style="fill:#008000;stroke:#008000;" x="77.662921" xlink:href="#md228f605e4" y="181.301968"/>
     <use style="fill:#008000;stroke:#008000;" x="81.675506" xlink:href="#md228f605e4" y="164.572473"/>
     <use style="fill:#008000;stroke:#008000;" x="85.68809" xlink:href="#md228f605e4" y="151.856347"/>
     <use style="fill:#008000;stroke:#008000;" x="89.700674" xlink:href="#md228f605e4" y="138.847053"/>
     <use style="fill:#008000;stroke:#008000;" x="93.713258" xlink:href="#md228f605e4" y="125.820378"/>
     <use style="fill:#008000;stroke:#008000;" x="97.725843" xlink:href="#md228f605e4" y="115.47215"/>
     <use style="fill:#008000;stroke:#008000;" x="101.738427" xlink:href="#md228f605e4" y="110.460032"/>
     <use style="fill:#008000;stroke:#008000;" x="105.751011" xlink:href="#md228f605e4" y="101.741748"/>
     <use style="fill:#008000;stroke:#008000;" x="109.763596" xlink:href="#md228f605e4" y="96.149516"/>
     <use style="fill:#008000;stroke:#008000;" x="113.77618" xlink:href="#md228f605e4" y="94.126077"/>
     <use style="fill:#008000;stroke:#008000;" x="117.788764" xlink:href="#md228f605e4" y="89.147494"/>
     <use style="fill:#008000;stroke:#008000;" x="121.801348" xlink:href="#md228f605e4" y="85.30177"/>
     <use style="fill:#008000;stroke:#008000;" x="125.813933" xlink:href="#md228f605e4" y="85.124481"/>
     <use style="fill:#008000;stroke:#008000;" x="129.826517" xlink:href="#md228f605e4" y="79.059959"/>
     <use style="fill:#008000;stroke:#008000;" x="133.839101" xlink:href="#md228f605e4" y="76.739936"/>
     <use style="fill:#008000;stroke:#008000;" x="137.851685" xlink:href="#md228f605e4" y="79.857338"/>
     <use style="fill:#008000;stroke:#008000;" x="141.86427" xlink:href="#md228f605e4" y="78.735527"/>
     <use style="fill:#008000;stroke:#008000;" x="145.876854" xlink:href="#md228f605e4" y="77.10938"/>
     <use style="fill:#008000;stroke:#008000;" x="149.889438" xlink:href="#md228f605e4" y="82.871335"/>
     <use style="fill:#008000;stroke:#008000;" x="153.902022" xlink:href="#md228f605e4" y="80.30071"/>
     <use style="fill:#008000;stroke:#008000;" x="157.914607" xlink:href="#md228f605e4" y="80.753156"/>
     <use style="fill:#008000;stroke:#008000;" x="161.927191" xlink:href="#md228f605e4" y="79.623315"/>
     <use style="fill:#008000;stroke:#008000;" x="165.939775" xlink:href="#md228f605e4" y="80.146619"/>
     <use style="fill:#008000;stroke:#008000;" x="169.95236" xlink:href="#md228f605e4" y="78.865004"/>
     <use style="fill:#008000;stroke:#008000;" x="173.964944" xlink:href="#md228f605e4" y="79.285387"/>
     <use style="fill:#008000;stroke:#008000;" x="177.977528" xlink:href="#md228f605e4" y="82.342368"/>
     <use style="fill:#008000;stroke:#008000;" x="181.990112" xlink:href="#md228f605e4" y="81.251269"/>
     <use style="fill:#008000;stroke:#008000;" x="186.002697" xlink:href="#md228f605e4" y="74.358516"/>
     <use style="fill:#008000;stroke:#008000;" x="190.015281" xlink:href="#md228f605e4" y="78.434447"/>
     <use style="fill:#008000;stroke:#008000;" x="194.027865" xlink:href="#md228f605e4" y="81.39687"/>
     <use style="fill:#008000;stroke:#008000;" x="198.040449" xlink:href="#md228f605e4" y="78.543755"/>
     <use style="fill:#008000;stroke:#008000;" x="202.053034" xlink:href="#md228f605e4" y="75.694938"/>
     <use style="fill:#008000;stroke:#008000;" x="206.065618" xlink:href="#md228f605e4" y="77.792227"/>
     <use style="fill:#008000;stroke:#008000;" x="210.078202" xlink:href="#md228f605e4" y="73.53004"/>
     <use style="fill:#008000;stroke:#008000;" x="214.090787" xlink:href="#md228f605e4" y="78.063548"/>
     <use style="fill:#008000;stroke:#008000;" x="218.103371" xlink:href="#md228f605e4" y="82.840501"/>
     <use style="fill:#008000;stroke:#008000;" x="222.115955" xlink:href="#md228f605e4" y="76.129607"/>
     <use style="fill:#008000;stroke:#008000;" x="226.128539" xlink:href="#md228f605e4" y="78.583718"/>
     <use style="fill:#008000;stroke:#008000;" x="230.141124" xlink:href="#md228f605e4" y="75.484136"/>
     <use style="fill:#008000;stroke:#008000;" x="234.153708" xlink:href="#md228f605e4" y="78.265395"/>
     <use style="fill:#008000;stroke:#008000;" x="238.166292" xlink:href="#md228f605e4" y="81.262892"/>
     <use style="fill:#008000;stroke:#008000;" x="242.178876" xlink:href="#md228f605e4" y="82.050325"/>
     <use style="fill:#008000;stroke:#008000;" x="246.191461" xlink:href="#md228f605e4" y="79.563108"/>
     <use style="fill:#008000;stroke:#008000;" x="250.204045" xlink:href="#md228f605e4" y="79.83235"/>
     <use style="fill:#008000;stroke:#008000;" x="254.216629" xlink:href="#md228f605e4" y="81.165782"/>
     <use style="fill:#008000;stroke:#008000;" x="258.229213" xlink:href="#md228f605e4" y="80.565582"/>
     <use style="fill:#008000;stroke:#008000;" x="262.241798" xlink:href="#md228f605e4" y="81.096865"/>
     <use style="fill:#008000;stroke:#008000;" x="266.254382" xlink:href="#md228f605e4" y="79.304095"/>
     <use style="fill:#008000;stroke:#008000;" x="270.266966" xlink:href="#md228f605e4" y="80.565071"/>
     <use style="fill:#008000;stroke:#008000;" x="274.279551" xlink:href="#md228f605e4" y="83.181345"/>
     <use style="fill:#008000;stroke:#008000;" x="278.292135" xlink:href="#md228f605e4" y="80.800269"/>
     <use style="fill:#008000;stroke:#008000;" x="282.304719" xlink:href="#md228f605e4" y="81.910971"/>
     <use style="fill:#008000;stroke:#008000;" x="286.317303" xlink:href="#md228f605e4" y="82.110162"/>
     <use style="fill:#008000;stroke:#008000;" x="290.329888" xlink:href="#md228f605e4" y="81.040721"/>
     <use style="fill:#008000;stroke:#008000;" x="294.342472" xlink:href="#md228f605e4" y="82.793"/>
     <use style="fill:#008000;stroke:#008000;" x="298.355056" xlink:href="#md228f605e4" y="83.384361"/>
     <use style="fill:#008000;stroke:#008000;" x="302.36764" xlink:href="#md228f605e4" y="82.848784"/>
     <use style="fill:#008000;stroke:#008000;" x="306.380225" xlink:href="#md228f605e4" y="85.682854"/>
     <use style="fill:#008000;stroke:#008000;" x="310.392809" xlink:href="#md228f605e4" y="85.666749"/>
     <use style="fill:#008000;stroke:#008000;" x="314.405393" xlink:href="#md228f605e4" y="83.995944"/>
     <use style="fill:#008000;stroke:#008000;" x="318.417978" xlink:href="#md228f605e4" y="86.387554"/>
     <use style="fill:#008000;stroke:#008000;" x="322.430562" xlink:href="#md228f605e4" y="84.866597"/>
     <use style="fill:#008000;stroke:#008000;" x="326.443146" xlink:href="#md228f605e4" y="84.167434"/>
     <use style="fill:#008000;stroke:#008000;" x="330.45573" xlink:href="#md228f605e4" y="86.869427"/>
     <use style="fill:#008000;stroke:#008000;" x="334.468315" xlink:href="#md228f605e4" y="86.232607"/>
     <use style="fill:#008000;stroke:#008000;" x="338.480899" xlink:href="#md228f605e4" y="85.071333"/>
     <use style="fill:#008000;stroke:#008000;" x="342.493483" xlink:href="#md228f605e4" y="87.35228"/>
     <use style="fill:#008000;stroke:#008000;" x="346.506067" xlink:href="#md228f605e4" y="86.724346"/>
     <use style="fill:#008000;stroke:#008000;" x="350.518652" xlink:href="#md228f605e4" y="87.579962"/>
     <use style="fill:#008000;stroke:#008000;" x="354.531236" xlink:href="#md228f605e4" y="87.91697"/>
     <use style="fill:#008000;stroke:#008000;" x="358.54382" xlink:href="#md228f605e4" y="89.414973"/>
     <use style="fill:#008000;stroke:#008000;" x="362.556404" xlink:href="#md228f605e4" y="90.017017"/>
     <use style="fill:#008000;stroke:#008000;" x="366.568989" xlink:href="#md228f605e4" y="89.306788"/>
     <use style="fill:#008000;stroke:#008000;" x="370.581573" xlink:href="#md228f605e4" y="89.219238"/>
     <use style="fill:#008000;stroke:#008000;" x="374.594157" xlink:href="#md228f605e4" y="90.390141"/>
     <use style="fill:#008000;stroke:#008000;" x="378.606742" xlink:href="#md228f605e4" y="88.151203"/>
     <use style="fill:#008000;stroke:#008000;" x="382.619326" xlink:href="#md228f605e4" y="90.928935"/>
     <use style="fill:#008000;stroke:#008000;" x="386.63191" xlink:href="#md228f605e4" y="90.428245"/>
     <use style="fill:#008000;stroke:#008000;" x="390.644494" xlink:href="#md228f605e4" y="91.439687"/>
     <use style="fill:#008000;stroke:#008000;" x="394.657079" xlink:href="#md228f605e4" y="90.159551"/>
     <use style="fill:#008000;stroke:#008000;" x="398.669663" xlink:href="#md228f605e4" y="92.111399"/>
     <use style="fill:#008000;stroke:#008000;" x="402.682247" xlink:href="#md228f605e4" y="92.170384"/>
     <use style="fill:#008000;stroke:#008000;" x="406.694831" xlink:href="#md228f605e4" y="93.359364"/>
     <use style="fill:#008000;stroke:#008000;" x="410.707416" xlink:href="#md228f605e4" y="91.198187"/>
    </g>
   </g>
   <g id="patch_3">
    <path d="M 57.6 307.584 
L 57.6 41.472 
" style="fill:none;stroke:#000000;stroke-linecap:square;stroke-linejoin:miter;stroke-width:0.8;"/>
   </g>
   <g id="patch_4">
    <path d="M 414.72 307.584 
L 414.72 41.472 
" style="fill:none;stroke:#000000;stroke-linecap:square;stroke-linejoin:miter;stroke-width:0.8;"/>
   </g>
   <g id="patch_5">
    <path d="M 57.6 307.584 
L 414.72 307.584 
" style="fill:none;stroke:#000000;stroke-linecap:square;stroke-linejoin:miter;stroke-width:0.8;"/>
   </g>
   <g id="patch_6">
    <path d="M 57.6 41.472 
L 414.72 41.472 
" style="fill:none;stroke:#000000;stroke-linecap:square;stroke-linejoin:miter;stroke-width:0.8;"/>
   </g>
   <g id="text_32">
    <!-- tbb::parallel_sort O3 OMP AVX2 on pre_transpose32 -->
    <defs>
     <path d="M 48.6875 27.296875 
Q 48.6875 37.203125 44.609375 42.84375 
Q 40.53125 48.484375 33.40625 48.484375 
Q 26.265625 48.484375 22.1875 42.84375 
Q 18.109375 37.203125 18.109375 27.296875 
Q 18.109375 17.390625 22.1875 11.75 
Q 26.265625 6.109375 33.40625 6.109375 
Q 40.53125 6.109375 44.609375 11.75 
Q 48.6875 17.390625 48.6875 27.296875 
z
M 18.109375 46.390625 
Q 20.953125 51.265625 25.265625 53.625 
Q 29.59375 56 35.59375 56 
Q 45.5625 56 51.78125 48.09375 
Q 58.015625 40.1875 58.015625 27.296875 
Q 58.015625 14.40625 51.78125 6.484375 
Q 45.5625 -1.421875 35.59375 -1.421875 
Q 29.59375 -1.421875 25.265625 0.953125 
Q 20.953125 3.328125 18.109375 8.203125 
L 18.109375 0 
L 9.078125 0 
L 9.078125 75.984375 
L 18.109375 75.984375 
z
" id="DejaVuSans-98"/>
     <path d="M 11.71875 12.40625 
L 22.015625 12.40625 
L 22.015625 0 
L 11.71875 0 
z
M 11.71875 51.703125 
L 22.015625 51.703125 
L 22.015625 39.3125 
L 11.71875 39.3125 
z
" id="DejaVuSans-58"/>
     <path d="M 9.421875 75.984375 
L 18.40625 75.984375 
L 18.40625 0 
L 9.421875 0 
z
" id="DejaVuSans-108"/>
     <path d="M 50.984375 -16.609375 
L 50.984375 -23.578125 
L -0.984375 -23.578125 
L -0.984375 -16.609375 
z
" id="DejaVuSans-95"/>
     <path d="M 30.609375 48.390625 
Q 23.390625 48.390625 19.1875 42.75 
Q 14.984375 37.109375 14.984375 27.296875 
Q 14.984375 17.484375 19.15625 11.84375 
Q 23.34375 6.203125 30.609375 6.203125 
Q 37.796875 6.203125 41.984375 11.859375 
Q 46.1875 17.53125 46.1875 27.296875 
Q 46.1875 37.015625 41.984375 42.703125 
Q 37.796875 48.390625 30.609375 48.390625 
z
M 30.609375 56 
Q 42.328125 56 49.015625 48.375 
Q 55.71875 40.765625 55.71875 27.296875 
Q 55.71875 13.875 49.015625 6.21875 
Q 42.328125 -1.421875 30.609375 -1.421875 
Q 18.84375 -1.421875 12.171875 6.21875 
Q 5.515625 13.875 5.515625 27.296875 
Q 5.515625 40.765625 12.171875 48.375 
Q 18.84375 56 30.609375 56 
z
" id="DejaVuSans-111"/>
     <path d="M 39.40625 66.21875 
Q 28.65625 66.21875 22.328125 58.203125 
Q 16.015625 50.203125 16.015625 36.375 
Q 16.015625 22.609375 22.328125 14.59375 
Q 28.65625 6.59375 39.40625 6.59375 
Q 50.140625 6.59375 56.421875 14.59375 
Q 62.703125 22.609375 62.703125 36.375 
Q 62.703125 50.203125 56.421875 58.203125 
Q 50.140625 66.21875 39.40625 66.21875 
z
M 39.40625 74.21875 
Q 54.734375 74.21875 63.90625 63.9375 
Q 73.09375 53.65625 73.09375 36.375 
Q 73.09375 19.140625 63.90625 8.859375 
Q 54.734375 -1.421875 39.40625 -1.421875 
Q 24.03125 -1.421875 14.8125 8.828125 
Q 5.609375 19.09375 5.609375 36.375 
Q 5.609375 53.65625 14.8125 63.9375 
Q 24.03125 74.21875 39.40625 74.21875 
z
" id="DejaVuSans-79"/>
     <path d="M 9.8125 72.90625 
L 24.515625 72.90625 
L 43.109375 23.296875 
L 61.8125 72.90625 
L 76.515625 72.90625 
L 76.515625 0 
L 66.890625 0 
L 66.890625 64.015625 
L 48.09375 14.015625 
L 38.1875 14.015625 
L 19.390625 64.015625 
L 19.390625 0 
L 9.8125 0 
z
" id="DejaVuSans-77"/>
     <path d="M 19.671875 64.796875 
L 19.671875 37.40625 
L 32.078125 37.40625 
Q 38.96875 37.40625 42.71875 40.96875 
Q 46.484375 44.53125 46.484375 51.125 
Q 46.484375 57.671875 42.71875 61.234375 
Q 38.96875 64.796875 32.078125 64.796875 
z
M 9.8125 72.90625 
L 32.078125 72.90625 
Q 44.34375 72.90625 50.609375 67.359375 
Q 56.890625 61.8125 56.890625 51.125 
Q 56.890625 40.328125 50.609375 34.8125 
Q 44.34375 29.296875 32.078125 29.296875 
L 19.671875 29.296875 
L 19.671875 0 
L 9.8125 0 
z
" id="DejaVuSans-80"/>
     <path d="M 34.1875 63.1875 
L 20.796875 26.90625 
L 47.609375 26.90625 
z
M 28.609375 72.90625 
L 39.796875 72.90625 
L 67.578125 0 
L 57.328125 0 
L 50.6875 18.703125 
L 17.828125 18.703125 
L 11.1875 0 
L 0.78125 0 
z
" id="DejaVuSans-65"/>
     <path d="M 28.609375 0 
L 0.78125 72.90625 
L 11.078125 72.90625 
L 34.1875 11.53125 
L 57.328125 72.90625 
L 67.578125 72.90625 
L 39.796875 0 
z
" id="DejaVuSans-86"/>
     <path d="M 6.296875 72.90625 
L 16.890625 72.90625 
L 35.015625 45.796875 
L 53.21875 72.90625 
L 63.8125 72.90625 
L 40.375 37.890625 
L 65.375 0 
L 54.78125 0 
L 34.28125 31 
L 13.625 0 
L 2.984375 0 
L 29 38.921875 
z
" id="DejaVuSans-88"/>
     <path d="M 54.890625 33.015625 
L 54.890625 0 
L 45.90625 0 
L 45.90625 32.71875 
Q 45.90625 40.484375 42.875 44.328125 
Q 39.84375 48.1875 33.796875 48.1875 
Q 26.515625 48.1875 22.3125 43.546875 
Q 18.109375 38.921875 18.109375 30.90625 
L 18.109375 0 
L 9.078125 0 
L 9.078125 54.6875 
L 18.109375 54.6875 
L 18.109375 46.1875 
Q 21.34375 51.125 25.703125 53.5625 
Q 30.078125 56 35.796875 56 
Q 45.21875 56 50.046875 50.171875 
Q 54.890625 44.34375 54.890625 33.015625 
z
" id="DejaVuSans-110"/>
    </defs>
    <g transform="translate(80.200312 35.472)scale(0.12 -0.12)">
     <use xlink:href="#DejaVuSans-116"/>
     <use x="39.208984" xlink:href="#DejaVuSans-98"/>
     <use x="102.685547" xlink:href="#DejaVuSans-98"/>
     <use x="166.162109" xlink:href="#DejaVuSans-58"/>
     <use x="199.853516" xlink:href="#DejaVuSans-58"/>
     <use x="233.544922" xlink:href="#DejaVuSans-112"/>
     <use x="297.021484" xlink:href="#DejaVuSans-97"/>
     <use x="358.300781" xlink:href="#DejaVuSans-114"/>
     <use x="399.414062" xlink:href="#DejaVuSans-97"/>
     <use x="460.693359" xlink:href="#DejaVuSans-108"/>
     <use x="488.476562" xlink:href="#DejaVuSans-108"/>
     <use x="516.259766" xlink:href="#DejaVuSans-101"/>
     <use x="577.783203" xlink:href="#DejaVuSans-108"/>
     <use x="605.566406" xlink:href="#DejaVuSans-95"/>
     <use x="655.566406" xlink:href="#DejaVuSans-115"/>
     <use x="707.666016" xlink:href="#DejaVuSans-111"/>
     <use x="768.847656" xlink:href="#DejaVuSans-114"/>
     <use x="809.960938" xlink:href="#DejaVuSans-116"/>
     <use x="849.169922" xlink:href="#DejaVuSans-32"/>
     <use x="880.957031" xlink:href="#DejaVuSans-79"/>
     <use x="959.667969" xlink:href="#DejaVuSans-51"/>
     <use x="1023.291016" xlink:href="#DejaVuSans-32"/>
     <use x="1055.078125" xlink:href="#DejaVuSans-79"/>
     <use x="1133.789062" xlink:href="#DejaVuSans-77"/>
     <use x="1220.068359" xlink:href="#DejaVuSans-80"/>
     <use x="1280.371094" xlink:href="#DejaVuSans-32"/>
     <use x="1312.158203" xlink:href="#DejaVuSans-65"/>
     <use x="1374.191406" xlink:href="#DejaVuSans-86"/>
     <use x="1442.599609" xlink:href="#DejaVuSans-88"/>
     <use x="1511.105469" xlink:href="#DejaVuSans-50"/>
     <use x="1574.728516" xlink:href="#DejaVuSans-32"/>
     <use x="1606.515625" xlink:href="#DejaVuSans-111"/>
     <use x="1667.697266" xlink:href="#DejaVuSans-110"/>
     <use x="1731.076172" xlink:href="#DejaVuSans-32"/>
     <use x="1762.863281" xlink:href="#DejaVuSans-112"/>
     <use x="1826.339844" xlink:href="#DejaVuSans-114"/>
     <use x="1865.203125" xlink:href="#DejaVuSans-101"/>
     <use x="1926.726562" xlink:href="#DejaVuSans-95"/>
     <use x="1976.726562" xlink:href="#DejaVuSans-116"/>
     <use x="2015.935547" xlink:href="#DejaVuSans-114"/>
     <use x="2057.048828" xlink:href="#DejaVuSans-97"/>
     <use x="2118.328125" xlink:href="#DejaVuSans-110"/>
     <use x="2181.707031" xlink:href="#DejaVuSans-115"/>
     <use x="2233.806641" xlink:href="#DejaVuSans-112"/>
     <use x="2297.283203" xlink:href="#DejaVuSans-111"/>
     <use x="2358.464844" xlink:href="#DejaVuSans-115"/>
     <use x="2410.564453" xlink:href="#DejaVuSans-101"/>
     <use x="2472.087891" xlink:href="#DejaVuSans-51"/>
     <use x="2535.710938" xlink:href="#DejaVuSans-50"/>
    </g>
   </g>
   <g id="legend_1">
    <g id="patch_7">
     <path d="M 313.152813 302.584 
L 407.72 302.584 
Q 409.72 302.584 409.72 300.584 
L 409.72 257.2715 
Q 409.72 255.2715 407.72 255.2715 
L 313.152813 255.2715 
Q 311.152813 255.2715 311.152813 257.2715 
L 311.152813 300.584 
Q 311.152813 302.584 313.152813 302.584 
z
" style="fill:#ffffff;opacity:0.8;stroke:#cccccc;stroke-linejoin:miter;"/>
    </g>
    <g id="line2d_62">
     <path d="M 315.152813 263.369937 
L 335.152813 263.369937 
" style="fill:none;stroke:#0000ff;stroke-dasharray:1.5,2.475;stroke-dashoffset:0;stroke-width:1.5;"/>
    </g>
    <g id="line2d_63">
     <g>
      <use style="fill:#0000ff;stroke:#0000ff;" x="325.152813" xlink:href="#m51dad42961" y="263.369937"/>
     </g>
    </g>
    <g id="text_33">
     <!-- transpose -->
     <g transform="translate(343.152813 266.869937)scale(0.1 -0.1)">
      <use xlink:href="#DejaVuSans-116"/>
      <use x="39.208984" xlink:href="#DejaVuSans-114"/>
      <use x="80.322266" xlink:href="#DejaVuSans-97"/>
      <use x="141.601562" xlink:href="#DejaVuSans-110"/>
      <use x="204.980469" xlink:href="#DejaVuSans-115"/>
      <use x="257.080078" xlink:href="#DejaVuSans-112"/>
      <use x="320.556641" xlink:href="#DejaVuSans-111"/>
      <use x="381.738281" xlink:href="#DejaVuSans-115"/>
      <use x="433.837891" xlink:href="#DejaVuSans-101"/>
     </g>
    </g>
    <g id="line2d_64">
     <path d="M 315.152813 278.048063 
L 335.152813 278.048063 
" style="fill:none;stroke:#ff0000;stroke-dasharray:1.5,2.475;stroke-dashoffset:0;stroke-width:1.5;"/>
    </g>
    <g id="line2d_65">
     <g>
      <use style="fill:#ff0000;stroke:#ff0000;" x="325.152813" xlink:href="#mf7382a82f9" y="278.048063"/>
     </g>
    </g>
    <g id="text_34">
     <!-- transpose_tr -->
     <g transform="translate(343.152813 281.548063)scale(0.1 -0.1)">
      <use xlink:href="#DejaVuSans-116"/>
      <use x="39.208984" xlink:href="#DejaVuSans-114"/>
      <use x="80.322266" xlink:href="#DejaVuSans-97"/>
      <use x="141.601562" xlink:href="#DejaVuSans-110"/>
      <use x="204.980469" xlink:href="#DejaVuSans-115"/>
      <use x="257.080078" xlink:href="#DejaVuSans-112"/>
      <use x="320.556641" xlink:href="#DejaVuSans-111"/>
      <use x="381.738281" xlink:href="#DejaVuSans-115"/>
      <use x="433.837891" xlink:href="#DejaVuSans-101"/>
      <use x="495.361328" xlink:href="#DejaVuSans-95"/>
      <use x="545.361328" xlink:href="#DejaVuSans-116"/>
      <use x="584.570312" xlink:href="#DejaVuSans-114"/>
     </g>
    </g>
    <g id="line2d_66">
     <path d="M 315.152813 293.004312 
L 335.152813 293.004312 
" style="fill:none;stroke:#008000;stroke-dasharray:1.5,2.475;stroke-dashoffset:0;stroke-width:1.5;"/>
    </g>
    <g id="line2d_67">
     <g>
      <use style="fill:#008000;stroke:#008000;" x="325.152813" xlink:href="#md228f605e4" y="293.004312"/>
     </g>
    </g>
    <g id="text_35">
     <!-- mean -->
     <defs>
      <path d="M 52 44.1875 
Q 55.375 50.25 60.0625 53.125 
Q 64.75 56 71.09375 56 
Q 79.640625 56 84.28125 50.015625 
Q 88.921875 44.046875 88.921875 33.015625 
L 88.921875 0 
L 79.890625 0 
L 79.890625 32.71875 
Q 79.890625 40.578125 77.09375 44.375 
Q 74.3125 48.1875 68.609375 48.1875 
Q 61.625 48.1875 57.5625 43.546875 
Q 53.515625 38.921875 53.515625 30.90625 
L 53.515625 0 
L 44.484375 0 
L 44.484375 32.71875 
Q 44.484375 40.625 41.703125 44.40625 
Q 38.921875 48.1875 33.109375 48.1875 
Q 26.21875 48.1875 22.15625 43.53125 
Q 18.109375 38.875 18.109375 30.90625 
L 18.109375 0 
L 9.078125 0 
L 9.078125 54.6875 
L 18.109375 54.6875 
L 18.109375 46.1875 
Q 21.1875 51.21875 25.484375 53.609375 
Q 29.78125 56 35.6875 56 
Q 41.65625 56 45.828125 52.96875 
Q 50 49.953125 52 44.1875 
z
" id="DejaVuSans-109"/>
     </defs>
     <g transform="translate(343.152813 296.504312)scale(0.1 -0.1)">
      <use xlink:href="#DejaVuSans-109"/>
      <use x="97.412109" xlink:href="#DejaVuSans-101"/>
      <use x="158.935547" xlink:href="#DejaVuSans-97"/>
      <use x="220.214844" xlink:href="#DejaVuSans-110"/>
     </g>
    </g>
   </g>
  </g>
 </g>
 <defs>
  <clipPath id="pbdc3f1819e">
   <rect height="266.112" width="357.12" x="57.6" y="41.472"/>
  </clipPath>
 </defs>
</svg>
