<?xml version="1.0" encoding="utf-8" standalone="no"?>
<!DOCTYPE svg PUBLIC "-//W3C//DTD SVG 1.1//EN"
  "http://www.w3.org/Graphics/SVG/1.1/DTD/svg11.dtd">
<!-- Created with matplotlib (https://matplotlib.org/) -->
<svg height="345.6pt" version="1.1" viewBox="0 0 460.8 345.6" width="460.8pt" xmlns="http://www.w3.org/2000/svg" xmlns:xlink="http://www.w3.org/1999/xlink">
 <defs>
  <style type="text/css">
*{stroke-linecap:butt;stroke-linejoin:round;}
  </style>
 </defs>
 <g id="figure_1">
  <g id="patch_1">
   <path d="M 0 345.6 
L 460.8 345.6 
L 460.8 0 
L 0 0 
z
" style="fill:#ffffff;"/>
  </g>
  <g id="axes_1">
   <g id="patch_2">
    <path d="M 57.6 307.584 
L 414.72 307.584 
L 414.72 41.472 
L 57.6 41.472 
z
" style="fill:#ffffff;"/>
   </g>
   <g id="matplotlib.axis_1">
    <g id="xtick_1">
     <g id="line2d_1">
      <path clip-path="url(#pe233ddc816)" d="M 61.612584 307.584 
L 61.612584 41.472 
" style="fill:none;stroke:#b0b0b0;stroke-dasharray:5.12,1.28,0.8,1.28;stroke-dashoffset:0;stroke-width:0.8;"/>
     </g>
     <g id="line2d_2">
      <defs>
       <path d="M 0 0 
L 0 3.5 
" id="me52b58132c" style="stroke:#000000;stroke-width:0.8;"/>
      </defs>
      <g>
       <use style="stroke:#000000;stroke-width:0.8;" x="61.612584" xlink:href="#me52b58132c" y="307.584"/>
      </g>
     </g>
     <g id="text_1">
      <!-- 1 -->
      <defs>
       <path d="M 12.40625 8.296875 
L 28.515625 8.296875 
L 28.515625 63.921875 
L 10.984375 60.40625 
L 10.984375 69.390625 
L 28.421875 72.90625 
L 38.28125 72.90625 
L 38.28125 8.296875 
L 54.390625 8.296875 
L 54.390625 0 
L 12.40625 0 
z
" id="DejaVuSans-49"/>
      </defs>
      <g transform="translate(58.431334 322.182437)scale(0.1 -0.1)">
       <use xlink:href="#DejaVuSans-49"/>
      </g>
     </g>
    </g>
    <g id="xtick_2">
     <g id="line2d_3">
      <path clip-path="url(#pe233ddc816)" d="M 73.650337 307.584 
L 73.650337 41.472 
" style="fill:none;stroke:#b0b0b0;stroke-dasharray:5.12,1.28,0.8,1.28;stroke-dashoffset:0;stroke-width:0.8;"/>
     </g>
     <g id="line2d_4">
      <g>
       <use style="stroke:#000000;stroke-width:0.8;" x="73.650337" xlink:href="#me52b58132c" y="307.584"/>
      </g>
     </g>
     <g id="text_2">
      <!-- 4 -->
      <defs>
       <path d="M 37.796875 64.3125 
L 12.890625 25.390625 
L 37.796875 25.390625 
z
M 35.203125 72.90625 
L 47.609375 72.90625 
L 47.609375 25.390625 
L 58.015625 25.390625 
L 58.015625 17.1875 
L 47.609375 17.1875 
L 47.609375 0 
L 37.796875 0 
L 37.796875 17.1875 
L 4.890625 17.1875 
L 4.890625 26.703125 
z
" id="DejaVuSans-52"/>
      </defs>
      <g transform="translate(70.469087 322.182437)scale(0.1 -0.1)">
       <use xlink:href="#DejaVuSans-52"/>
      </g>
     </g>
    </g>
    <g id="xtick_3">
     <g id="line2d_5">
      <path clip-path="url(#pe233ddc816)" d="M 89.700674 307.584 
L 89.700674 41.472 
" style="fill:none;stroke:#b0b0b0;stroke-dasharray:5.12,1.28,0.8,1.28;stroke-dashoffset:0;stroke-width:0.8;"/>
     </g>
     <g id="line2d_6">
      <g>
       <use style="stroke:#000000;stroke-width:0.8;" x="89.700674" xlink:href="#me52b58132c" y="307.584"/>
      </g>
     </g>
     <g id="text_3">
      <!-- 8 -->
      <defs>
       <path d="M 31.78125 34.625 
Q 24.75 34.625 20.71875 30.859375 
Q 16.703125 27.09375 16.703125 20.515625 
Q 16.703125 13.921875 20.71875 10.15625 
Q 24.75 6.390625 31.78125 6.390625 
Q 38.8125 6.390625 42.859375 10.171875 
Q 46.921875 13.96875 46.921875 20.515625 
Q 46.921875 27.09375 42.890625 30.859375 
Q 38.875 34.625 31.78125 34.625 
z
M 21.921875 38.8125 
Q 15.578125 40.375 12.03125 44.71875 
Q 8.5 49.078125 8.5 55.328125 
Q 8.5 64.0625 14.71875 69.140625 
Q 20.953125 74.21875 31.78125 74.21875 
Q 42.671875 74.21875 48.875 69.140625 
Q 55.078125 64.0625 55.078125 55.328125 
Q 55.078125 49.078125 51.53125 44.71875 
Q 48 40.375 41.703125 38.8125 
Q 48.828125 37.15625 52.796875 32.3125 
Q 56.78125 27.484375 56.78125 20.515625 
Q 56.78125 9.90625 50.3125 4.234375 
Q 43.84375 -1.421875 31.78125 -1.421875 
Q 19.734375 -1.421875 13.25 4.234375 
Q 6.78125 9.90625 6.78125 20.515625 
Q 6.78125 27.484375 10.78125 32.3125 
Q 14.796875 37.15625 21.921875 38.8125 
z
M 18.3125 54.390625 
Q 18.3125 48.734375 21.84375 45.5625 
Q 25.390625 42.390625 31.78125 42.390625 
Q 38.140625 42.390625 41.71875 45.5625 
Q 45.3125 48.734375 45.3125 54.390625 
Q 45.3125 60.0625 41.71875 63.234375 
Q 38.140625 66.40625 31.78125 66.40625 
Q 25.390625 66.40625 21.84375 63.234375 
Q 18.3125 60.0625 18.3125 54.390625 
z
" id="DejaVuSans-56"/>
      </defs>
      <g transform="translate(86.519424 322.182437)scale(0.1 -0.1)">
       <use xlink:href="#DejaVuSans-56"/>
      </g>
     </g>
    </g>
    <g id="xtick_4">
     <g id="line2d_7">
      <path clip-path="url(#pe233ddc816)" d="M 105.751011 307.584 
L 105.751011 41.472 
" style="fill:none;stroke:#b0b0b0;stroke-dasharray:5.12,1.28,0.8,1.28;stroke-dashoffset:0;stroke-width:0.8;"/>
     </g>
     <g id="line2d_8">
      <g>
       <use style="stroke:#000000;stroke-width:0.8;" x="105.751011" xlink:href="#me52b58132c" y="307.584"/>
      </g>
     </g>
     <g id="text_4">
      <!-- 12 -->
      <defs>
       <path d="M 19.1875 8.296875 
L 53.609375 8.296875 
L 53.609375 0 
L 7.328125 0 
L 7.328125 8.296875 
Q 12.9375 14.109375 22.625 23.890625 
Q 32.328125 33.6875 34.8125 36.53125 
Q 39.546875 41.84375 41.421875 45.53125 
Q 43.3125 49.21875 43.3125 52.78125 
Q 43.3125 58.59375 39.234375 62.25 
Q 35.15625 65.921875 28.609375 65.921875 
Q 23.96875 65.921875 18.8125 64.3125 
Q 13.671875 62.703125 7.8125 59.421875 
L 7.8125 69.390625 
Q 13.765625 71.78125 18.9375 73 
Q 24.125 74.21875 28.421875 74.21875 
Q 39.75 74.21875 46.484375 68.546875 
Q 53.21875 62.890625 53.21875 53.421875 
Q 53.21875 48.921875 51.53125 44.890625 
Q 49.859375 40.875 45.40625 35.40625 
Q 44.1875 33.984375 37.640625 27.21875 
Q 31.109375 20.453125 19.1875 8.296875 
z
" id="DejaVuSans-50"/>
      </defs>
      <g transform="translate(99.388511 322.182437)scale(0.1 -0.1)">
       <use xlink:href="#DejaVuSans-49"/>
       <use x="63.623047" xlink:href="#DejaVuSans-50"/>
      </g>
     </g>
    </g>
    <g id="xtick_5">
     <g id="line2d_9">
      <path clip-path="url(#pe233ddc816)" d="M 121.801348 307.584 
L 121.801348 41.472 
" style="fill:none;stroke:#b0b0b0;stroke-dasharray:5.12,1.28,0.8,1.28;stroke-dashoffset:0;stroke-width:0.8;"/>
     </g>
     <g id="line2d_10">
      <g>
       <use style="stroke:#000000;stroke-width:0.8;" x="121.801348" xlink:href="#me52b58132c" y="307.584"/>
      </g>
     </g>
     <g id="text_5">
      <!-- 16 -->
      <defs>
       <path d="M 33.015625 40.375 
Q 26.375 40.375 22.484375 35.828125 
Q 18.609375 31.296875 18.609375 23.390625 
Q 18.609375 15.53125 22.484375 10.953125 
Q 26.375 6.390625 33.015625 6.390625 
Q 39.65625 6.390625 43.53125 10.953125 
Q 47.40625 15.53125 47.40625 23.390625 
Q 47.40625 31.296875 43.53125 35.828125 
Q 39.65625 40.375 33.015625 40.375 
z
M 52.59375 71.296875 
L 52.59375 62.3125 
Q 48.875 64.0625 45.09375 64.984375 
Q 41.3125 65.921875 37.59375 65.921875 
Q 27.828125 65.921875 22.671875 59.328125 
Q 17.53125 52.734375 16.796875 39.40625 
Q 19.671875 43.65625 24.015625 45.921875 
Q 28.375 48.1875 33.59375 48.1875 
Q 44.578125 48.1875 50.953125 41.515625 
Q 57.328125 34.859375 57.328125 23.390625 
Q 57.328125 12.15625 50.6875 5.359375 
Q 44.046875 -1.421875 33.015625 -1.421875 
Q 20.359375 -1.421875 13.671875 8.265625 
Q 6.984375 17.96875 6.984375 36.375 
Q 6.984375 53.65625 15.1875 63.9375 
Q 23.390625 74.21875 37.203125 74.21875 
Q 40.921875 74.21875 44.703125 73.484375 
Q 48.484375 72.75 52.59375 71.296875 
z
" id="DejaVuSans-54"/>
      </defs>
      <g transform="translate(115.438848 322.182437)scale(0.1 -0.1)">
       <use xlink:href="#DejaVuSans-49"/>
       <use x="63.623047" xlink:href="#DejaVuSans-54"/>
      </g>
     </g>
    </g>
    <g id="xtick_6">
     <g id="line2d_11">
      <path clip-path="url(#pe233ddc816)" d="M 137.851685 307.584 
L 137.851685 41.472 
" style="fill:none;stroke:#b0b0b0;stroke-dasharray:5.12,1.28,0.8,1.28;stroke-dashoffset:0;stroke-width:0.8;"/>
     </g>
     <g id="line2d_12">
      <g>
       <use style="stroke:#000000;stroke-width:0.8;" x="137.851685" xlink:href="#me52b58132c" y="307.584"/>
      </g>
     </g>
     <g id="text_6">
      <!-- 20 -->
      <defs>
       <path d="M 31.78125 66.40625 
Q 24.171875 66.40625 20.328125 58.90625 
Q 16.5 51.421875 16.5 36.375 
Q 16.5 21.390625 20.328125 13.890625 
Q 24.171875 6.390625 31.78125 6.390625 
Q 39.453125 6.390625 43.28125 13.890625 
Q 47.125 21.390625 47.125 36.375 
Q 47.125 51.421875 43.28125 58.90625 
Q 39.453125 66.40625 31.78125 66.40625 
z
M 31.78125 74.21875 
Q 44.046875 74.21875 50.515625 64.515625 
Q 56.984375 54.828125 56.984375 36.375 
Q 56.984375 17.96875 50.515625 8.265625 
Q 44.046875 -1.421875 31.78125 -1.421875 
Q 19.53125 -1.421875 13.0625 8.265625 
Q 6.59375 17.96875 6.59375 36.375 
Q 6.59375 54.828125 13.0625 64.515625 
Q 19.53125 74.21875 31.78125 74.21875 
z
" id="DejaVuSans-48"/>
      </defs>
      <g transform="translate(131.489185 322.182437)scale(0.1 -0.1)">
       <use xlink:href="#DejaVuSans-50"/>
       <use x="63.623047" xlink:href="#DejaVuSans-48"/>
      </g>
     </g>
    </g>
    <g id="xtick_7">
     <g id="line2d_13">
      <path clip-path="url(#pe233ddc816)" d="M 153.902022 307.584 
L 153.902022 41.472 
" style="fill:none;stroke:#b0b0b0;stroke-dasharray:5.12,1.28,0.8,1.28;stroke-dashoffset:0;stroke-width:0.8;"/>
     </g>
     <g id="line2d_14">
      <g>
       <use style="stroke:#000000;stroke-width:0.8;" x="153.902022" xlink:href="#me52b58132c" y="307.584"/>
      </g>
     </g>
     <g id="text_7">
      <!-- 24 -->
      <g transform="translate(147.539522 322.182437)scale(0.1 -0.1)">
       <use xlink:href="#DejaVuSans-50"/>
       <use x="63.623047" xlink:href="#DejaVuSans-52"/>
      </g>
     </g>
    </g>
    <g id="xtick_8">
     <g id="line2d_15">
      <path clip-path="url(#pe233ddc816)" d="M 169.95236 307.584 
L 169.95236 41.472 
" style="fill:none;stroke:#b0b0b0;stroke-dasharray:5.12,1.28,0.8,1.28;stroke-dashoffset:0;stroke-width:0.8;"/>
     </g>
     <g id="line2d_16">
      <g>
       <use style="stroke:#000000;stroke-width:0.8;" x="169.95236" xlink:href="#me52b58132c" y="307.584"/>
      </g>
     </g>
     <g id="text_8">
      <!-- 28 -->
      <g transform="translate(163.58986 322.182437)scale(0.1 -0.1)">
       <use xlink:href="#DejaVuSans-50"/>
       <use x="63.623047" xlink:href="#DejaVuSans-56"/>
      </g>
     </g>
    </g>
    <g id="xtick_9">
     <g id="line2d_17">
      <path clip-path="url(#pe233ddc816)" d="M 186.002697 307.584 
L 186.002697 41.472 
" style="fill:none;stroke:#b0b0b0;stroke-dasharray:5.12,1.28,0.8,1.28;stroke-dashoffset:0;stroke-width:0.8;"/>
     </g>
     <g id="line2d_18">
      <g>
       <use style="stroke:#000000;stroke-width:0.8;" x="186.002697" xlink:href="#me52b58132c" y="307.584"/>
      </g>
     </g>
     <g id="text_9">
      <!-- 32 -->
      <defs>
       <path d="M 40.578125 39.3125 
Q 47.65625 37.796875 51.625 33 
Q 55.609375 28.21875 55.609375 21.1875 
Q 55.609375 10.40625 48.1875 4.484375 
Q 40.765625 -1.421875 27.09375 -1.421875 
Q 22.515625 -1.421875 17.65625 -0.515625 
Q 12.796875 0.390625 7.625 2.203125 
L 7.625 11.71875 
Q 11.71875 9.328125 16.59375 8.109375 
Q 21.484375 6.890625 26.8125 6.890625 
Q 36.078125 6.890625 40.9375 10.546875 
Q 45.796875 14.203125 45.796875 21.1875 
Q 45.796875 27.640625 41.28125 31.265625 
Q 36.765625 34.90625 28.71875 34.90625 
L 20.21875 34.90625 
L 20.21875 43.015625 
L 29.109375 43.015625 
Q 36.375 43.015625 40.234375 45.921875 
Q 44.09375 48.828125 44.09375 54.296875 
Q 44.09375 59.90625 40.109375 62.90625 
Q 36.140625 65.921875 28.71875 65.921875 
Q 24.65625 65.921875 20.015625 65.03125 
Q 15.375 64.15625 9.8125 62.3125 
L 9.8125 71.09375 
Q 15.4375 72.65625 20.34375 73.4375 
Q 25.25 74.21875 29.59375 74.21875 
Q 40.828125 74.21875 47.359375 69.109375 
Q 53.90625 64.015625 53.90625 55.328125 
Q 53.90625 49.265625 50.4375 45.09375 
Q 46.96875 40.921875 40.578125 39.3125 
z
" id="DejaVuSans-51"/>
      </defs>
      <g transform="translate(179.640197 322.182437)scale(0.1 -0.1)">
       <use xlink:href="#DejaVuSans-51"/>
       <use x="63.623047" xlink:href="#DejaVuSans-50"/>
      </g>
     </g>
    </g>
    <g id="xtick_10">
     <g id="line2d_19">
      <path clip-path="url(#pe233ddc816)" d="M 202.053034 307.584 
L 202.053034 41.472 
" style="fill:none;stroke:#b0b0b0;stroke-dasharray:5.12,1.28,0.8,1.28;stroke-dashoffset:0;stroke-width:0.8;"/>
     </g>
     <g id="line2d_20">
      <g>
       <use style="stroke:#000000;stroke-width:0.8;" x="202.053034" xlink:href="#me52b58132c" y="307.584"/>
      </g>
     </g>
     <g id="text_10">
      <!-- 36 -->
      <g transform="translate(195.690534 322.182437)scale(0.1 -0.1)">
       <use xlink:href="#DejaVuSans-51"/>
       <use x="63.623047" xlink:href="#DejaVuSans-54"/>
      </g>
     </g>
    </g>
    <g id="xtick_11">
     <g id="line2d_21">
      <path clip-path="url(#pe233ddc816)" d="M 218.103371 307.584 
L 218.103371 41.472 
" style="fill:none;stroke:#b0b0b0;stroke-dasharray:5.12,1.28,0.8,1.28;stroke-dashoffset:0;stroke-width:0.8;"/>
     </g>
     <g id="line2d_22">
      <g>
       <use style="stroke:#000000;stroke-width:0.8;" x="218.103371" xlink:href="#me52b58132c" y="307.584"/>
      </g>
     </g>
     <g id="text_11">
      <!-- 40 -->
      <g transform="translate(211.740871 322.182437)scale(0.1 -0.1)">
       <use xlink:href="#DejaVuSans-52"/>
       <use x="63.623047" xlink:href="#DejaVuSans-48"/>
      </g>
     </g>
    </g>
    <g id="xtick_12">
     <g id="line2d_23">
      <path clip-path="url(#pe233ddc816)" d="M 234.153708 307.584 
L 234.153708 41.472 
" style="fill:none;stroke:#b0b0b0;stroke-dasharray:5.12,1.28,0.8,1.28;stroke-dashoffset:0;stroke-width:0.8;"/>
     </g>
     <g id="line2d_24">
      <g>
       <use style="stroke:#000000;stroke-width:0.8;" x="234.153708" xlink:href="#me52b58132c" y="307.584"/>
      </g>
     </g>
     <g id="text_12">
      <!-- 44 -->
      <g transform="translate(227.791208 322.182437)scale(0.1 -0.1)">
       <use xlink:href="#DejaVuSans-52"/>
       <use x="63.623047" xlink:href="#DejaVuSans-52"/>
      </g>
     </g>
    </g>
    <g id="xtick_13">
     <g id="line2d_25">
      <path clip-path="url(#pe233ddc816)" d="M 250.204045 307.584 
L 250.204045 41.472 
" style="fill:none;stroke:#b0b0b0;stroke-dasharray:5.12,1.28,0.8,1.28;stroke-dashoffset:0;stroke-width:0.8;"/>
     </g>
     <g id="line2d_26">
      <g>
       <use style="stroke:#000000;stroke-width:0.8;" x="250.204045" xlink:href="#me52b58132c" y="307.584"/>
      </g>
     </g>
     <g id="text_13">
      <!-- 48 -->
      <g transform="translate(243.841545 322.182437)scale(0.1 -0.1)">
       <use xlink:href="#DejaVuSans-52"/>
       <use x="63.623047" xlink:href="#DejaVuSans-56"/>
      </g>
     </g>
    </g>
    <g id="xtick_14">
     <g id="line2d_27">
      <path clip-path="url(#pe233ddc816)" d="M 266.254382 307.584 
L 266.254382 41.472 
" style="fill:none;stroke:#b0b0b0;stroke-dasharray:5.12,1.28,0.8,1.28;stroke-dashoffset:0;stroke-width:0.8;"/>
     </g>
     <g id="line2d_28">
      <g>
       <use style="stroke:#000000;stroke-width:0.8;" x="266.254382" xlink:href="#me52b58132c" y="307.584"/>
      </g>
     </g>
     <g id="text_14">
      <!-- 52 -->
      <defs>
       <path d="M 10.796875 72.90625 
L 49.515625 72.90625 
L 49.515625 64.59375 
L 19.828125 64.59375 
L 19.828125 46.734375 
Q 21.96875 47.46875 24.109375 47.828125 
Q 26.265625 48.1875 28.421875 48.1875 
Q 40.625 48.1875 47.75 41.5 
Q 54.890625 34.8125 54.890625 23.390625 
Q 54.890625 11.625 47.5625 5.09375 
Q 40.234375 -1.421875 26.90625 -1.421875 
Q 22.3125 -1.421875 17.546875 -0.640625 
Q 12.796875 0.140625 7.71875 1.703125 
L 7.71875 11.625 
Q 12.109375 9.234375 16.796875 8.0625 
Q 21.484375 6.890625 26.703125 6.890625 
Q 35.15625 6.890625 40.078125 11.328125 
Q 45.015625 15.765625 45.015625 23.390625 
Q 45.015625 31 40.078125 35.4375 
Q 35.15625 39.890625 26.703125 39.890625 
Q 22.75 39.890625 18.8125 39.015625 
Q 14.890625 38.140625 10.796875 36.28125 
z
" id="DejaVuSans-53"/>
      </defs>
      <g transform="translate(259.891882 322.182437)scale(0.1 -0.1)">
       <use xlink:href="#DejaVuSans-53"/>
       <use x="63.623047" xlink:href="#DejaVuSans-50"/>
      </g>
     </g>
    </g>
    <g id="xtick_15">
     <g id="line2d_29">
      <path clip-path="url(#pe233ddc816)" d="M 282.304719 307.584 
L 282.304719 41.472 
" style="fill:none;stroke:#b0b0b0;stroke-dasharray:5.12,1.28,0.8,1.28;stroke-dashoffset:0;stroke-width:0.8;"/>
     </g>
     <g id="line2d_30">
      <g>
       <use style="stroke:#000000;stroke-width:0.8;" x="282.304719" xlink:href="#me52b58132c" y="307.584"/>
      </g>
     </g>
     <g id="text_15">
      <!-- 56 -->
      <g transform="translate(275.942219 322.182437)scale(0.1 -0.1)">
       <use xlink:href="#DejaVuSans-53"/>
       <use x="63.623047" xlink:href="#DejaVuSans-54"/>
      </g>
     </g>
    </g>
    <g id="xtick_16">
     <g id="line2d_31">
      <path clip-path="url(#pe233ddc816)" d="M 298.355056 307.584 
L 298.355056 41.472 
" style="fill:none;stroke:#b0b0b0;stroke-dasharray:5.12,1.28,0.8,1.28;stroke-dashoffset:0;stroke-width:0.8;"/>
     </g>
     <g id="line2d_32">
      <g>
       <use style="stroke:#000000;stroke-width:0.8;" x="298.355056" xlink:href="#me52b58132c" y="307.584"/>
      </g>
     </g>
     <g id="text_16">
      <!-- 60 -->
      <g transform="translate(291.992556 322.182437)scale(0.1 -0.1)">
       <use xlink:href="#DejaVuSans-54"/>
       <use x="63.623047" xlink:href="#DejaVuSans-48"/>
      </g>
     </g>
    </g>
    <g id="xtick_17">
     <g id="line2d_33">
      <path clip-path="url(#pe233ddc816)" d="M 314.405393 307.584 
L 314.405393 41.472 
" style="fill:none;stroke:#b0b0b0;stroke-dasharray:5.12,1.28,0.8,1.28;stroke-dashoffset:0;stroke-width:0.8;"/>
     </g>
     <g id="line2d_34">
      <g>
       <use style="stroke:#000000;stroke-width:0.8;" x="314.405393" xlink:href="#me52b58132c" y="307.584"/>
      </g>
     </g>
     <g id="text_17">
      <!-- 64 -->
      <g transform="translate(308.042893 322.182437)scale(0.1 -0.1)">
       <use xlink:href="#DejaVuSans-54"/>
       <use x="63.623047" xlink:href="#DejaVuSans-52"/>
      </g>
     </g>
    </g>
    <g id="xtick_18">
     <g id="line2d_35">
      <path clip-path="url(#pe233ddc816)" d="M 330.45573 307.584 
L 330.45573 41.472 
" style="fill:none;stroke:#b0b0b0;stroke-dasharray:5.12,1.28,0.8,1.28;stroke-dashoffset:0;stroke-width:0.8;"/>
     </g>
     <g id="line2d_36">
      <g>
       <use style="stroke:#000000;stroke-width:0.8;" x="330.45573" xlink:href="#me52b58132c" y="307.584"/>
      </g>
     </g>
     <g id="text_18">
      <!-- 68 -->
      <g transform="translate(324.09323 322.182437)scale(0.1 -0.1)">
       <use xlink:href="#DejaVuSans-54"/>
       <use x="63.623047" xlink:href="#DejaVuSans-56"/>
      </g>
     </g>
    </g>
    <g id="xtick_19">
     <g id="line2d_37">
      <path clip-path="url(#pe233ddc816)" d="M 346.506067 307.584 
L 346.506067 41.472 
" style="fill:none;stroke:#b0b0b0;stroke-dasharray:5.12,1.28,0.8,1.28;stroke-dashoffset:0;stroke-width:0.8;"/>
     </g>
     <g id="line2d_38">
      <g>
       <use style="stroke:#000000;stroke-width:0.8;" x="346.506067" xlink:href="#me52b58132c" y="307.584"/>
      </g>
     </g>
     <g id="text_19">
      <!-- 72 -->
      <defs>
       <path d="M 8.203125 72.90625 
L 55.078125 72.90625 
L 55.078125 68.703125 
L 28.609375 0 
L 18.3125 0 
L 43.21875 64.59375 
L 8.203125 64.59375 
z
" id="DejaVuSans-55"/>
      </defs>
      <g transform="translate(340.143567 322.182437)scale(0.1 -0.1)">
       <use xlink:href="#DejaVuSans-55"/>
       <use x="63.623047" xlink:href="#DejaVuSans-50"/>
      </g>
     </g>
    </g>
    <g id="xtick_20">
     <g id="line2d_39">
      <path clip-path="url(#pe233ddc816)" d="M 362.556404 307.584 
L 362.556404 41.472 
" style="fill:none;stroke:#b0b0b0;stroke-dasharray:5.12,1.28,0.8,1.28;stroke-dashoffset:0;stroke-width:0.8;"/>
     </g>
     <g id="line2d_40">
      <g>
       <use style="stroke:#000000;stroke-width:0.8;" x="362.556404" xlink:href="#me52b58132c" y="307.584"/>
      </g>
     </g>
     <g id="text_20">
      <!-- 76 -->
      <g transform="translate(356.193904 322.182437)scale(0.1 -0.1)">
       <use xlink:href="#DejaVuSans-55"/>
       <use x="63.623047" xlink:href="#DejaVuSans-54"/>
      </g>
     </g>
    </g>
    <g id="xtick_21">
     <g id="line2d_41">
      <path clip-path="url(#pe233ddc816)" d="M 378.606742 307.584 
L 378.606742 41.472 
" style="fill:none;stroke:#b0b0b0;stroke-dasharray:5.12,1.28,0.8,1.28;stroke-dashoffset:0;stroke-width:0.8;"/>
     </g>
     <g id="line2d_42">
      <g>
       <use style="stroke:#000000;stroke-width:0.8;" x="378.606742" xlink:href="#me52b58132c" y="307.584"/>
      </g>
     </g>
     <g id="text_21">
      <!-- 80 -->
      <g transform="translate(372.244242 322.182437)scale(0.1 -0.1)">
       <use xlink:href="#DejaVuSans-56"/>
       <use x="63.623047" xlink:href="#DejaVuSans-48"/>
      </g>
     </g>
    </g>
    <g id="xtick_22">
     <g id="line2d_43">
      <path clip-path="url(#pe233ddc816)" d="M 394.657079 307.584 
L 394.657079 41.472 
" style="fill:none;stroke:#b0b0b0;stroke-dasharray:5.12,1.28,0.8,1.28;stroke-dashoffset:0;stroke-width:0.8;"/>
     </g>
     <g id="line2d_44">
      <g>
       <use style="stroke:#000000;stroke-width:0.8;" x="394.657079" xlink:href="#me52b58132c" y="307.584"/>
      </g>
     </g>
     <g id="text_22">
      <!-- 84 -->
      <g transform="translate(388.294579 322.182437)scale(0.1 -0.1)">
       <use xlink:href="#DejaVuSans-56"/>
       <use x="63.623047" xlink:href="#DejaVuSans-52"/>
      </g>
     </g>
    </g>
    <g id="xtick_23">
     <g id="line2d_45">
      <path clip-path="url(#pe233ddc816)" d="M 410.707416 307.584 
L 410.707416 41.472 
" style="fill:none;stroke:#b0b0b0;stroke-dasharray:5.12,1.28,0.8,1.28;stroke-dashoffset:0;stroke-width:0.8;"/>
     </g>
     <g id="line2d_46">
      <g>
       <use style="stroke:#000000;stroke-width:0.8;" x="410.707416" xlink:href="#me52b58132c" y="307.584"/>
      </g>
     </g>
     <g id="text_23">
      <!-- 88 -->
      <g transform="translate(404.344916 322.182437)scale(0.1 -0.1)">
       <use xlink:href="#DejaVuSans-56"/>
       <use x="63.623047" xlink:href="#DejaVuSans-56"/>
      </g>
     </g>
    </g>
    <g id="text_24">
     <!-- threads -->
     <defs>
      <path d="M 18.3125 70.21875 
L 18.3125 54.6875 
L 36.8125 54.6875 
L 36.8125 47.703125 
L 18.3125 47.703125 
L 18.3125 18.015625 
Q 18.3125 11.328125 20.140625 9.421875 
Q 21.96875 7.515625 27.59375 7.515625 
L 36.8125 7.515625 
L 36.8125 0 
L 27.59375 0 
Q 17.1875 0 13.234375 3.875 
Q 9.28125 7.765625 9.28125 18.015625 
L 9.28125 47.703125 
L 2.6875 47.703125 
L 2.6875 54.6875 
L 9.28125 54.6875 
L 9.28125 70.21875 
z
" id="DejaVuSans-116"/>
      <path d="M 54.890625 33.015625 
L 54.890625 0 
L 45.90625 0 
L 45.90625 32.71875 
Q 45.90625 40.484375 42.875 44.328125 
Q 39.84375 48.1875 33.796875 48.1875 
Q 26.515625 48.1875 22.3125 43.546875 
Q 18.109375 38.921875 18.109375 30.90625 
L 18.109375 0 
L 9.078125 0 
L 9.078125 75.984375 
L 18.109375 75.984375 
L 18.109375 46.1875 
Q 21.34375 51.125 25.703125 53.5625 
Q 30.078125 56 35.796875 56 
Q 45.21875 56 50.046875 50.171875 
Q 54.890625 44.34375 54.890625 33.015625 
z
" id="DejaVuSans-104"/>
      <path d="M 41.109375 46.296875 
Q 39.59375 47.171875 37.8125 47.578125 
Q 36.03125 48 33.890625 48 
Q 26.265625 48 22.1875 43.046875 
Q 18.109375 38.09375 18.109375 28.8125 
L 18.109375 0 
L 9.078125 0 
L 9.078125 54.6875 
L 18.109375 54.6875 
L 18.109375 46.1875 
Q 20.953125 51.171875 25.484375 53.578125 
Q 30.03125 56 36.53125 56 
Q 37.453125 56 38.578125 55.875 
Q 39.703125 55.765625 41.0625 55.515625 
z
" id="DejaVuSans-114"/>
      <path d="M 56.203125 29.59375 
L 56.203125 25.203125 
L 14.890625 25.203125 
Q 15.484375 15.921875 20.484375 11.0625 
Q 25.484375 6.203125 34.421875 6.203125 
Q 39.59375 6.203125 44.453125 7.46875 
Q 49.3125 8.734375 54.109375 11.28125 
L 54.109375 2.78125 
Q 49.265625 0.734375 44.1875 -0.34375 
Q 39.109375 -1.421875 33.890625 -1.421875 
Q 20.796875 -1.421875 13.15625 6.1875 
Q 5.515625 13.8125 5.515625 26.8125 
Q 5.515625 40.234375 12.765625 48.109375 
Q 20.015625 56 32.328125 56 
Q 43.359375 56 49.78125 48.890625 
Q 56.203125 41.796875 56.203125 29.59375 
z
M 47.21875 32.234375 
Q 47.125 39.59375 43.09375 43.984375 
Q 39.0625 48.390625 32.421875 48.390625 
Q 24.90625 48.390625 20.390625 44.140625 
Q 15.875 39.890625 15.1875 32.171875 
z
" id="DejaVuSans-101"/>
      <path d="M 34.28125 27.484375 
Q 23.390625 27.484375 19.1875 25 
Q 14.984375 22.515625 14.984375 16.5 
Q 14.984375 11.71875 18.140625 8.90625 
Q 21.296875 6.109375 26.703125 6.109375 
Q 34.1875 6.109375 38.703125 11.40625 
Q 43.21875 16.703125 43.21875 25.484375 
L 43.21875 27.484375 
z
M 52.203125 31.203125 
L 52.203125 0 
L 43.21875 0 
L 43.21875 8.296875 
Q 40.140625 3.328125 35.546875 0.953125 
Q 30.953125 -1.421875 24.3125 -1.421875 
Q 15.921875 -1.421875 10.953125 3.296875 
Q 6 8.015625 6 15.921875 
Q 6 25.140625 12.171875 29.828125 
Q 18.359375 34.515625 30.609375 34.515625 
L 43.21875 34.515625 
L 43.21875 35.40625 
Q 43.21875 41.609375 39.140625 45 
Q 35.0625 48.390625 27.6875 48.390625 
Q 23 48.390625 18.546875 47.265625 
Q 14.109375 46.140625 10.015625 43.890625 
L 10.015625 52.203125 
Q 14.9375 54.109375 19.578125 55.046875 
Q 24.21875 56 28.609375 56 
Q 40.484375 56 46.34375 49.84375 
Q 52.203125 43.703125 52.203125 31.203125 
z
" id="DejaVuSans-97"/>
      <path d="M 45.40625 46.390625 
L 45.40625 75.984375 
L 54.390625 75.984375 
L 54.390625 0 
L 45.40625 0 
L 45.40625 8.203125 
Q 42.578125 3.328125 38.25 0.953125 
Q 33.9375 -1.421875 27.875 -1.421875 
Q 17.96875 -1.421875 11.734375 6.484375 
Q 5.515625 14.40625 5.515625 27.296875 
Q 5.515625 40.1875 11.734375 48.09375 
Q 17.96875 56 27.875 56 
Q 33.9375 56 38.25 53.625 
Q 42.578125 51.265625 45.40625 46.390625 
z
M 14.796875 27.296875 
Q 14.796875 17.390625 18.875 11.75 
Q 22.953125 6.109375 30.078125 6.109375 
Q 37.203125 6.109375 41.296875 11.75 
Q 45.40625 17.390625 45.40625 27.296875 
Q 45.40625 37.203125 41.296875 42.84375 
Q 37.203125 48.484375 30.078125 48.484375 
Q 22.953125 48.484375 18.875 42.84375 
Q 14.796875 37.203125 14.796875 27.296875 
z
" id="DejaVuSans-100"/>
      <path d="M 44.28125 53.078125 
L 44.28125 44.578125 
Q 40.484375 46.53125 36.375 47.5 
Q 32.28125 48.484375 27.875 48.484375 
Q 21.1875 48.484375 17.84375 46.4375 
Q 14.5 44.390625 14.5 40.28125 
Q 14.5 37.15625 16.890625 35.375 
Q 19.28125 33.59375 26.515625 31.984375 
L 29.59375 31.296875 
Q 39.15625 29.25 43.1875 25.515625 
Q 47.21875 21.78125 47.21875 15.09375 
Q 47.21875 7.46875 41.1875 3.015625 
Q 35.15625 -1.421875 24.609375 -1.421875 
Q 20.21875 -1.421875 15.453125 -0.5625 
Q 10.6875 0.296875 5.421875 2 
L 5.421875 11.28125 
Q 10.40625 8.6875 15.234375 7.390625 
Q 20.0625 6.109375 24.8125 6.109375 
Q 31.15625 6.109375 34.5625 8.28125 
Q 37.984375 10.453125 37.984375 14.40625 
Q 37.984375 18.0625 35.515625 20.015625 
Q 33.0625 21.96875 24.703125 23.78125 
L 21.578125 24.515625 
Q 13.234375 26.265625 9.515625 29.90625 
Q 5.8125 33.546875 5.8125 39.890625 
Q 5.8125 47.609375 11.28125 51.796875 
Q 16.75 56 26.8125 56 
Q 31.78125 56 36.171875 55.265625 
Q 40.578125 54.546875 44.28125 53.078125 
z
" id="DejaVuSans-115"/>
     </defs>
     <g transform="translate(217.168594 335.860562)scale(0.1 -0.1)">
      <use xlink:href="#DejaVuSans-116"/>
      <use x="39.208984" xlink:href="#DejaVuSans-104"/>
      <use x="102.587891" xlink:href="#DejaVuSans-114"/>
      <use x="141.451172" xlink:href="#DejaVuSans-101"/>
      <use x="202.974609" xlink:href="#DejaVuSans-97"/>
      <use x="264.253906" xlink:href="#DejaVuSans-100"/>
      <use x="327.730469" xlink:href="#DejaVuSans-115"/>
     </g>
    </g>
   </g>
   <g id="matplotlib.axis_2">
    <g id="ytick_1">
     <g id="line2d_47">
      <path clip-path="url(#pe233ddc816)" d="M 57.6 296.598631 
L 414.72 296.598631 
" style="fill:none;stroke:#b0b0b0;stroke-dasharray:5.12,1.28,0.8,1.28;stroke-dashoffset:0;stroke-width:0.8;"/>
     </g>
     <g id="line2d_48">
      <defs>
       <path d="M 0 0 
L -3.5 0 
" id="m934bb3db74" style="stroke:#000000;stroke-width:0.8;"/>
      </defs>
      <g>
       <use style="stroke:#000000;stroke-width:0.8;" x="57.6" xlink:href="#m934bb3db74" y="296.598631"/>
      </g>
     </g>
     <g id="text_25">
      <!-- 0.5 -->
      <defs>
       <path d="M 10.6875 12.40625 
L 21 12.40625 
L 21 0 
L 10.6875 0 
z
" id="DejaVuSans-46"/>
      </defs>
      <g transform="translate(34.696875 300.397849)scale(0.1 -0.1)">
       <use xlink:href="#DejaVuSans-48"/>
       <use x="63.623047" xlink:href="#DejaVuSans-46"/>
       <use x="95.410156" xlink:href="#DejaVuSans-53"/>
      </g>
     </g>
    </g>
    <g id="ytick_2">
     <g id="line2d_49">
      <path clip-path="url(#pe233ddc816)" d="M 57.6 260.577498 
L 414.72 260.577498 
" style="fill:none;stroke:#b0b0b0;stroke-dasharray:5.12,1.28,0.8,1.28;stroke-dashoffset:0;stroke-width:0.8;"/>
     </g>
     <g id="line2d_50">
      <g>
       <use style="stroke:#000000;stroke-width:0.8;" x="57.6" xlink:href="#m934bb3db74" y="260.577498"/>
      </g>
     </g>
     <g id="text_26">
      <!-- 1.0 -->
      <g transform="translate(34.696875 264.376717)scale(0.1 -0.1)">
       <use xlink:href="#DejaVuSans-49"/>
       <use x="63.623047" xlink:href="#DejaVuSans-46"/>
       <use x="95.410156" xlink:href="#DejaVuSans-48"/>
      </g>
     </g>
    </g>
    <g id="ytick_3">
     <g id="line2d_51">
      <path clip-path="url(#pe233ddc816)" d="M 57.6 224.556365 
L 414.72 224.556365 
" style="fill:none;stroke:#b0b0b0;stroke-dasharray:5.12,1.28,0.8,1.28;stroke-dashoffset:0;stroke-width:0.8;"/>
     </g>
     <g id="line2d_52">
      <g>
       <use style="stroke:#000000;stroke-width:0.8;" x="57.6" xlink:href="#m934bb3db74" y="224.556365"/>
      </g>
     </g>
     <g id="text_27">
      <!-- 1.5 -->
      <g transform="translate(34.696875 228.355584)scale(0.1 -0.1)">
       <use xlink:href="#DejaVuSans-49"/>
       <use x="63.623047" xlink:href="#DejaVuSans-46"/>
       <use x="95.410156" xlink:href="#DejaVuSans-53"/>
      </g>
     </g>
    </g>
    <g id="ytick_4">
     <g id="line2d_53">
      <path clip-path="url(#pe233ddc816)" d="M 57.6 188.535233 
L 414.72 188.535233 
" style="fill:none;stroke:#b0b0b0;stroke-dasharray:5.12,1.28,0.8,1.28;stroke-dashoffset:0;stroke-width:0.8;"/>
     </g>
     <g id="line2d_54">
      <g>
       <use style="stroke:#000000;stroke-width:0.8;" x="57.6" xlink:href="#m934bb3db74" y="188.535233"/>
      </g>
     </g>
     <g id="text_28">
      <!-- 2.0 -->
      <g transform="translate(34.696875 192.334452)scale(0.1 -0.1)">
       <use xlink:href="#DejaVuSans-50"/>
       <use x="63.623047" xlink:href="#DejaVuSans-46"/>
       <use x="95.410156" xlink:href="#DejaVuSans-48"/>
      </g>
     </g>
    </g>
    <g id="ytick_5">
     <g id="line2d_55">
      <path clip-path="url(#pe233ddc816)" d="M 57.6 152.5141 
L 414.72 152.5141 
" style="fill:none;stroke:#b0b0b0;stroke-dasharray:5.12,1.28,0.8,1.28;stroke-dashoffset:0;stroke-width:0.8;"/>
     </g>
     <g id="line2d_56">
      <g>
       <use style="stroke:#000000;stroke-width:0.8;" x="57.6" xlink:href="#m934bb3db74" y="152.5141"/>
      </g>
     </g>
     <g id="text_29">
      <!-- 2.5 -->
      <g transform="translate(34.696875 156.313319)scale(0.1 -0.1)">
       <use xlink:href="#DejaVuSans-50"/>
       <use x="63.623047" xlink:href="#DejaVuSans-46"/>
       <use x="95.410156" xlink:href="#DejaVuSans-53"/>
      </g>
     </g>
    </g>
    <g id="ytick_6">
     <g id="line2d_57">
      <path clip-path="url(#pe233ddc816)" d="M 57.6 116.492968 
L 414.72 116.492968 
" style="fill:none;stroke:#b0b0b0;stroke-dasharray:5.12,1.28,0.8,1.28;stroke-dashoffset:0;stroke-width:0.8;"/>
     </g>
     <g id="line2d_58">
      <g>
       <use style="stroke:#000000;stroke-width:0.8;" x="57.6" xlink:href="#m934bb3db74" y="116.492968"/>
      </g>
     </g>
     <g id="text_30">
      <!-- 3.0 -->
      <g transform="translate(34.696875 120.292187)scale(0.1 -0.1)">
       <use xlink:href="#DejaVuSans-51"/>
       <use x="63.623047" xlink:href="#DejaVuSans-46"/>
       <use x="95.410156" xlink:href="#DejaVuSans-48"/>
      </g>
     </g>
    </g>
    <g id="ytick_7">
     <g id="line2d_59">
      <path clip-path="url(#pe233ddc816)" d="M 57.6 80.471835 
L 414.72 80.471835 
" style="fill:none;stroke:#b0b0b0;stroke-dasharray:5.12,1.28,0.8,1.28;stroke-dashoffset:0;stroke-width:0.8;"/>
     </g>
     <g id="line2d_60">
      <g>
       <use style="stroke:#000000;stroke-width:0.8;" x="57.6" xlink:href="#m934bb3db74" y="80.471835"/>
      </g>
     </g>
     <g id="text_31">
      <!-- 3.5 -->
      <g transform="translate(34.696875 84.271054)scale(0.1 -0.1)">
       <use xlink:href="#DejaVuSans-51"/>
       <use x="63.623047" xlink:href="#DejaVuSans-46"/>
       <use x="95.410156" xlink:href="#DejaVuSans-53"/>
      </g>
     </g>
    </g>
    <g id="ytick_8">
     <g id="line2d_61">
      <path clip-path="url(#pe233ddc816)" d="M 57.6 44.450703 
L 414.72 44.450703 
" style="fill:none;stroke:#b0b0b0;stroke-dasharray:5.12,1.28,0.8,1.28;stroke-dashoffset:0;stroke-width:0.8;"/>
     </g>
     <g id="line2d_62">
      <g>
       <use style="stroke:#000000;stroke-width:0.8;" x="57.6" xlink:href="#m934bb3db74" y="44.450703"/>
      </g>
     </g>
     <g id="text_32">
      <!-- 4.0 -->
      <g transform="translate(34.696875 48.249921)scale(0.1 -0.1)">
       <use xlink:href="#DejaVuSans-52"/>
       <use x="63.623047" xlink:href="#DejaVuSans-46"/>
       <use x="95.410156" xlink:href="#DejaVuSans-48"/>
      </g>
     </g>
    </g>
    <g id="text_33">
     <!-- speed up -->
     <defs>
      <path d="M 18.109375 8.203125 
L 18.109375 -20.796875 
L 9.078125 -20.796875 
L 9.078125 54.6875 
L 18.109375 54.6875 
L 18.109375 46.390625 
Q 20.953125 51.265625 25.265625 53.625 
Q 29.59375 56 35.59375 56 
Q 45.5625 56 51.78125 48.09375 
Q 58.015625 40.1875 58.015625 27.296875 
Q 58.015625 14.40625 51.78125 6.484375 
Q 45.5625 -1.421875 35.59375 -1.421875 
Q 29.59375 -1.421875 25.265625 0.953125 
Q 20.953125 3.328125 18.109375 8.203125 
z
M 48.6875 27.296875 
Q 48.6875 37.203125 44.609375 42.84375 
Q 40.53125 48.484375 33.40625 48.484375 
Q 26.265625 48.484375 22.1875 42.84375 
Q 18.109375 37.203125 18.109375 27.296875 
Q 18.109375 17.390625 22.1875 11.75 
Q 26.265625 6.109375 33.40625 6.109375 
Q 40.53125 6.109375 44.609375 11.75 
Q 48.6875 17.390625 48.6875 27.296875 
z
" id="DejaVuSans-112"/>
      <path id="DejaVuSans-32"/>
      <path d="M 8.5 21.578125 
L 8.5 54.6875 
L 17.484375 54.6875 
L 17.484375 21.921875 
Q 17.484375 14.15625 20.5 10.265625 
Q 23.53125 6.390625 29.59375 6.390625 
Q 36.859375 6.390625 41.078125 11.03125 
Q 45.3125 15.671875 45.3125 23.6875 
L 45.3125 54.6875 
L 54.296875 54.6875 
L 54.296875 0 
L 45.3125 0 
L 45.3125 8.40625 
Q 42.046875 3.421875 37.71875 1 
Q 33.40625 -1.421875 27.6875 -1.421875 
Q 18.265625 -1.421875 13.375 4.4375 
Q 8.5 10.296875 8.5 21.578125 
z
M 31.109375 56 
z
" id="DejaVuSans-117"/>
     </defs>
     <g transform="translate(28.617187 197.566281)rotate(-90)scale(0.1 -0.1)">
      <use xlink:href="#DejaVuSans-115"/>
      <use x="52.099609" xlink:href="#DejaVuSans-112"/>
      <use x="115.576172" xlink:href="#DejaVuSans-101"/>
      <use x="177.099609" xlink:href="#DejaVuSans-101"/>
      <use x="238.623047" xlink:href="#DejaVuSans-100"/>
      <use x="302.099609" xlink:href="#DejaVuSans-32"/>
      <use x="333.886719" xlink:href="#DejaVuSans-117"/>
      <use x="397.265625" xlink:href="#DejaVuSans-112"/>
     </g>
    </g>
   </g>
   <g id="line2d_63">
    <path clip-path="url(#pe233ddc816)" d="M 61.612584 289.729989 
L 65.625169 260.562578 
L 69.637753 231.612221 
L 73.650337 209.131349 
L 77.662921 188.397115 
L 81.675506 173.891753 
L 85.68809 153.324623 
L 89.700674 144.018919 
L 93.713258 132.913306 
L 97.725843 122.527273 
L 101.738427 101.863196 
L 105.751011 92.639163 
L 109.763596 85.049051 
L 113.77618 80.133136 
L 117.788764 73.020573 
L 121.801348 69.334634 
L 125.813933 61.605904 
L 129.826517 61.825022 
L 133.839101 54.89012 
L 137.851685 55.430888 
L 141.86427 53.568 
L 145.876854 53.660582 
L 149.889438 63.451349 
L 153.902022 62.833289 
L 157.914607 60.205587 
L 161.927191 60.840307 
L 165.939775 62.305656 
L 169.95236 70.097591 
L 173.964944 81.858778 
L 177.977528 86.100787 
L 181.990112 96.039955 
L 186.002697 99.071003 
L 190.015281 99.898554 
L 194.027865 105.873107 
L 198.040449 113.619088 
L 202.053034 117.582906 
L 206.065618 125.353566 
L 210.078202 124.129201 
L 214.090787 123.060169 
L 218.103371 126.898165 
L 222.115955 125.578449 
L 226.128539 132.697151 
L 230.141124 132.892552 
L 234.153708 135.811025 
L 238.166292 141.592147 
L 242.178876 141.121271 
L 246.191461 147.928657 
L 250.204045 150.329069 
L 254.216629 148.588075 
L 258.229213 149.371855 
L 262.241798 151.846542 
L 266.254382 151.878115 
L 270.266966 155.038131 
L 274.279551 155.311579 
L 278.292135 156.398925 
L 282.304719 158.060487 
L 286.317303 157.345608 
L 290.329888 157.356264 
L 294.342472 161.288805 
L 298.355056 161.12172 
L 302.36764 156.863975 
L 306.380225 161.613668 
L 310.392809 165.59141 
L 314.405393 167.660657 
L 318.417978 168.890331 
L 322.430562 172.038786 
L 326.443146 169.910819 
L 330.45573 174.265118 
L 334.468315 173.932632 
L 338.480899 176.912029 
L 342.493483 180.099574 
L 346.506067 181.56551 
L 350.518652 180.195194 
L 354.531236 182.819999 
L 358.54382 185.281206 
L 362.556404 184.478903 
L 366.568989 185.910793 
L 370.581573 186.702451 
L 374.594157 189.535041 
L 378.606742 191.358504 
L 382.619326 192.451816 
L 386.63191 196.875835 
L 390.644494 200.242947 
L 394.657079 201.112318 
L 398.669663 241.135377 
L 402.682247 210.157848 
L 406.694831 295.488 
L 410.707416 248.880322 
" style="fill:none;stroke:#0000ff;stroke-dasharray:1.5,2.475;stroke-dashoffset:0;stroke-width:1.5;"/>
    <defs>
     <path d="M 0 1.5 
C 0.397805 1.5 0.77937 1.341951 1.06066 1.06066 
C 1.341951 0.77937 1.5 0.397805 1.5 0 
C 1.5 -0.397805 1.341951 -0.77937 1.06066 -1.06066 
C 0.77937 -1.341951 0.397805 -1.5 0 -1.5 
C -0.397805 -1.5 -0.77937 -1.341951 -1.06066 -1.06066 
C -1.341951 -0.77937 -1.5 -0.397805 -1.5 0 
C -1.5 0.397805 -1.341951 0.77937 -1.06066 1.06066 
C -0.77937 1.341951 -0.397805 1.5 0 1.5 
z
" id="mbeaca86430" style="stroke:#0000ff;"/>
    </defs>
    <g clip-path="url(#pe233ddc816)">
     <use style="fill:#0000ff;stroke:#0000ff;" x="61.612584" xlink:href="#mbeaca86430" y="289.729989"/>
     <use style="fill:#0000ff;stroke:#0000ff;" x="65.625169" xlink:href="#mbeaca86430" y="260.562578"/>
     <use style="fill:#0000ff;stroke:#0000ff;" x="69.637753" xlink:href="#mbeaca86430" y="231.612221"/>
     <use style="fill:#0000ff;stroke:#0000ff;" x="73.650337" xlink:href="#mbeaca86430" y="209.131349"/>
     <use style="fill:#0000ff;stroke:#0000ff;" x="77.662921" xlink:href="#mbeaca86430" y="188.397115"/>
     <use style="fill:#0000ff;stroke:#0000ff;" x="81.675506" xlink:href="#mbeaca86430" y="173.891753"/>
     <use style="fill:#0000ff;stroke:#0000ff;" x="85.68809" xlink:href="#mbeaca86430" y="153.324623"/>
     <use style="fill:#0000ff;stroke:#0000ff;" x="89.700674" xlink:href="#mbeaca86430" y="144.018919"/>
     <use style="fill:#0000ff;stroke:#0000ff;" x="93.713258" xlink:href="#mbeaca86430" y="132.913306"/>
     <use style="fill:#0000ff;stroke:#0000ff;" x="97.725843" xlink:href="#mbeaca86430" y="122.527273"/>
     <use style="fill:#0000ff;stroke:#0000ff;" x="101.738427" xlink:href="#mbeaca86430" y="101.863196"/>
     <use style="fill:#0000ff;stroke:#0000ff;" x="105.751011" xlink:href="#mbeaca86430" y="92.639163"/>
     <use style="fill:#0000ff;stroke:#0000ff;" x="109.763596" xlink:href="#mbeaca86430" y="85.049051"/>
     <use style="fill:#0000ff;stroke:#0000ff;" x="113.77618" xlink:href="#mbeaca86430" y="80.133136"/>
     <use style="fill:#0000ff;stroke:#0000ff;" x="117.788764" xlink:href="#mbeaca86430" y="73.020573"/>
     <use style="fill:#0000ff;stroke:#0000ff;" x="121.801348" xlink:href="#mbeaca86430" y="69.334634"/>
     <use style="fill:#0000ff;stroke:#0000ff;" x="125.813933" xlink:href="#mbeaca86430" y="61.605904"/>
     <use style="fill:#0000ff;stroke:#0000ff;" x="129.826517" xlink:href="#mbeaca86430" y="61.825022"/>
     <use style="fill:#0000ff;stroke:#0000ff;" x="133.839101" xlink:href="#mbeaca86430" y="54.89012"/>
     <use style="fill:#0000ff;stroke:#0000ff;" x="137.851685" xlink:href="#mbeaca86430" y="55.430888"/>
     <use style="fill:#0000ff;stroke:#0000ff;" x="141.86427" xlink:href="#mbeaca86430" y="53.568"/>
     <use style="fill:#0000ff;stroke:#0000ff;" x="145.876854" xlink:href="#mbeaca86430" y="53.660582"/>
     <use style="fill:#0000ff;stroke:#0000ff;" x="149.889438" xlink:href="#mbeaca86430" y="63.451349"/>
     <use style="fill:#0000ff;stroke:#0000ff;" x="153.902022" xlink:href="#mbeaca86430" y="62.833289"/>
     <use style="fill:#0000ff;stroke:#0000ff;" x="157.914607" xlink:href="#mbeaca86430" y="60.205587"/>
     <use style="fill:#0000ff;stroke:#0000ff;" x="161.927191" xlink:href="#mbeaca86430" y="60.840307"/>
     <use style="fill:#0000ff;stroke:#0000ff;" x="165.939775" xlink:href="#mbeaca86430" y="62.305656"/>
     <use style="fill:#0000ff;stroke:#0000ff;" x="169.95236" xlink:href="#mbeaca86430" y="70.097591"/>
     <use style="fill:#0000ff;stroke:#0000ff;" x="173.964944" xlink:href="#mbeaca86430" y="81.858778"/>
     <use style="fill:#0000ff;stroke:#0000ff;" x="177.977528" xlink:href="#mbeaca86430" y="86.100787"/>
     <use style="fill:#0000ff;stroke:#0000ff;" x="181.990112" xlink:href="#mbeaca86430" y="96.039955"/>
     <use style="fill:#0000ff;stroke:#0000ff;" x="186.002697" xlink:href="#mbeaca86430" y="99.071003"/>
     <use style="fill:#0000ff;stroke:#0000ff;" x="190.015281" xlink:href="#mbeaca86430" y="99.898554"/>
     <use style="fill:#0000ff;stroke:#0000ff;" x="194.027865" xlink:href="#mbeaca86430" y="105.873107"/>
     <use style="fill:#0000ff;stroke:#0000ff;" x="198.040449" xlink:href="#mbeaca86430" y="113.619088"/>
     <use style="fill:#0000ff;stroke:#0000ff;" x="202.053034" xlink:href="#mbeaca86430" y="117.582906"/>
     <use style="fill:#0000ff;stroke:#0000ff;" x="206.065618" xlink:href="#mbeaca86430" y="125.353566"/>
     <use style="fill:#0000ff;stroke:#0000ff;" x="210.078202" xlink:href="#mbeaca86430" y="124.129201"/>
     <use style="fill:#0000ff;stroke:#0000ff;" x="214.090787" xlink:href="#mbeaca86430" y="123.060169"/>
     <use style="fill:#0000ff;stroke:#0000ff;" x="218.103371" xlink:href="#mbeaca86430" y="126.898165"/>
     <use style="fill:#0000ff;stroke:#0000ff;" x="222.115955" xlink:href="#mbeaca86430" y="125.578449"/>
     <use style="fill:#0000ff;stroke:#0000ff;" x="226.128539" xlink:href="#mbeaca86430" y="132.697151"/>
     <use style="fill:#0000ff;stroke:#0000ff;" x="230.141124" xlink:href="#mbeaca86430" y="132.892552"/>
     <use style="fill:#0000ff;stroke:#0000ff;" x="234.153708" xlink:href="#mbeaca86430" y="135.811025"/>
     <use style="fill:#0000ff;stroke:#0000ff;" x="238.166292" xlink:href="#mbeaca86430" y="141.592147"/>
     <use style="fill:#0000ff;stroke:#0000ff;" x="242.178876" xlink:href="#mbeaca86430" y="141.121271"/>
     <use style="fill:#0000ff;stroke:#0000ff;" x="246.191461" xlink:href="#mbeaca86430" y="147.928657"/>
     <use style="fill:#0000ff;stroke:#0000ff;" x="250.204045" xlink:href="#mbeaca86430" y="150.329069"/>
     <use style="fill:#0000ff;stroke:#0000ff;" x="254.216629" xlink:href="#mbeaca86430" y="148.588075"/>
     <use style="fill:#0000ff;stroke:#0000ff;" x="258.229213" xlink:href="#mbeaca86430" y="149.371855"/>
     <use style="fill:#0000ff;stroke:#0000ff;" x="262.241798" xlink:href="#mbeaca86430" y="151.846542"/>
     <use style="fill:#0000ff;stroke:#0000ff;" x="266.254382" xlink:href="#mbeaca86430" y="151.878115"/>
     <use style="fill:#0000ff;stroke:#0000ff;" x="270.266966" xlink:href="#mbeaca86430" y="155.038131"/>
     <use style="fill:#0000ff;stroke:#0000ff;" x="274.279551" xlink:href="#mbeaca86430" y="155.311579"/>
     <use style="fill:#0000ff;stroke:#0000ff;" x="278.292135" xlink:href="#mbeaca86430" y="156.398925"/>
     <use style="fill:#0000ff;stroke:#0000ff;" x="282.304719" xlink:href="#mbeaca86430" y="158.060487"/>
     <use style="fill:#0000ff;stroke:#0000ff;" x="286.317303" xlink:href="#mbeaca86430" y="157.345608"/>
     <use style="fill:#0000ff;stroke:#0000ff;" x="290.329888" xlink:href="#mbeaca86430" y="157.356264"/>
     <use style="fill:#0000ff;stroke:#0000ff;" x="294.342472" xlink:href="#mbeaca86430" y="161.288805"/>
     <use style="fill:#0000ff;stroke:#0000ff;" x="298.355056" xlink:href="#mbeaca86430" y="161.12172"/>
     <use style="fill:#0000ff;stroke:#0000ff;" x="302.36764" xlink:href="#mbeaca86430" y="156.863975"/>
     <use style="fill:#0000ff;stroke:#0000ff;" x="306.380225" xlink:href="#mbeaca86430" y="161.613668"/>
     <use style="fill:#0000ff;stroke:#0000ff;" x="310.392809" xlink:href="#mbeaca86430" y="165.59141"/>
     <use style="fill:#0000ff;stroke:#0000ff;" x="314.405393" xlink:href="#mbeaca86430" y="167.660657"/>
     <use style="fill:#0000ff;stroke:#0000ff;" x="318.417978" xlink:href="#mbeaca86430" y="168.890331"/>
     <use style="fill:#0000ff;stroke:#0000ff;" x="322.430562" xlink:href="#mbeaca86430" y="172.038786"/>
     <use style="fill:#0000ff;stroke:#0000ff;" x="326.443146" xlink:href="#mbeaca86430" y="169.910819"/>
     <use style="fill:#0000ff;stroke:#0000ff;" x="330.45573" xlink:href="#mbeaca86430" y="174.265118"/>
     <use style="fill:#0000ff;stroke:#0000ff;" x="334.468315" xlink:href="#mbeaca86430" y="173.932632"/>
     <use style="fill:#0000ff;stroke:#0000ff;" x="338.480899" xlink:href="#mbeaca86430" y="176.912029"/>
     <use style="fill:#0000ff;stroke:#0000ff;" x="342.493483" xlink:href="#mbeaca86430" y="180.099574"/>
     <use style="fill:#0000ff;stroke:#0000ff;" x="346.506067" xlink:href="#mbeaca86430" y="181.56551"/>
     <use style="fill:#0000ff;stroke:#0000ff;" x="350.518652" xlink:href="#mbeaca86430" y="180.195194"/>
     <use style="fill:#0000ff;stroke:#0000ff;" x="354.531236" xlink:href="#mbeaca86430" y="182.819999"/>
     <use style="fill:#0000ff;stroke:#0000ff;" x="358.54382" xlink:href="#mbeaca86430" y="185.281206"/>
     <use style="fill:#0000ff;stroke:#0000ff;" x="362.556404" xlink:href="#mbeaca86430" y="184.478903"/>
     <use style="fill:#0000ff;stroke:#0000ff;" x="366.568989" xlink:href="#mbeaca86430" y="185.910793"/>
     <use style="fill:#0000ff;stroke:#0000ff;" x="370.581573" xlink:href="#mbeaca86430" y="186.702451"/>
     <use style="fill:#0000ff;stroke:#0000ff;" x="374.594157" xlink:href="#mbeaca86430" y="189.535041"/>
     <use style="fill:#0000ff;stroke:#0000ff;" x="378.606742" xlink:href="#mbeaca86430" y="191.358504"/>
     <use style="fill:#0000ff;stroke:#0000ff;" x="382.619326" xlink:href="#mbeaca86430" y="192.451816"/>
     <use style="fill:#0000ff;stroke:#0000ff;" x="386.63191" xlink:href="#mbeaca86430" y="196.875835"/>
     <use style="fill:#0000ff;stroke:#0000ff;" x="390.644494" xlink:href="#mbeaca86430" y="200.242947"/>
     <use style="fill:#0000ff;stroke:#0000ff;" x="394.657079" xlink:href="#mbeaca86430" y="201.112318"/>
     <use style="fill:#0000ff;stroke:#0000ff;" x="398.669663" xlink:href="#mbeaca86430" y="241.135377"/>
     <use style="fill:#0000ff;stroke:#0000ff;" x="402.682247" xlink:href="#mbeaca86430" y="210.157848"/>
     <use style="fill:#0000ff;stroke:#0000ff;" x="406.694831" xlink:href="#mbeaca86430" y="295.488"/>
     <use style="fill:#0000ff;stroke:#0000ff;" x="410.707416" xlink:href="#mbeaca86430" y="248.880322"/>
    </g>
   </g>
   <g id="line2d_64">
    <path clip-path="url(#pe233ddc816)" d="M 61.612584 291.097161 
L 65.625169 264.191197 
L 69.637753 238.383296 
L 73.650337 214.137894 
L 77.662921 195.941125 
L 81.675506 179.494287 
L 85.68809 161.764966 
L 89.700674 147.215392 
L 93.713258 134.755438 
L 97.725843 126.776608 
L 101.738427 114.951513 
L 105.751011 105.739218 
L 109.763596 98.253792 
L 113.77618 89.533224 
L 117.788764 82.873288 
L 121.801348 82.534027 
L 125.813933 74.704644 
L 129.826517 72.538173 
L 133.839101 67.733288 
L 137.851685 64.829647 
L 141.86427 76.155574 
L 145.876854 67.855122 
L 149.889438 70.262599 
L 153.902022 74.616724 
L 157.914607 77.789832 
L 161.927191 75.431751 
L 165.939775 85.759785 
L 169.95236 82.80612 
L 173.964944 80.587787 
L 177.977528 88.872863 
L 181.990112 96.299664 
L 186.002697 96.011676 
L 190.015281 102.524863 
L 194.027865 112.620455 
L 198.040449 111.394499 
L 202.053034 119.80813 
L 206.065618 114.486817 
L 210.078202 115.602228 
L 214.090787 117.087164 
L 218.103371 113.96575 
L 222.115955 112.684385 
L 226.128539 122.439095 
L 230.141124 123.404194 
L 234.153708 131.921663 
L 238.166292 139.805952 
L 242.178876 134.626994 
L 246.191461 142.882495 
L 250.204045 139.155191 
L 254.216629 144.325703 
L 258.229213 143.747047 
L 262.241798 141.399101 
L 266.254382 145.760792 
L 270.266966 144.287525 
L 274.279551 147.557496 
L 278.292135 147.840715 
L 282.304719 147.630371 
L 286.317303 154.16415 
L 290.329888 154.608746 
L 294.342472 156.058722 
L 298.355056 157.714613 
L 302.36764 155.592215 
L 306.380225 155.429892 
L 310.392809 158.565995 
L 314.405393 162.524743 
L 318.417978 162.936453 
L 322.430562 167.673001 
L 326.443146 170.049436 
L 330.45573 171.312494 
L 334.468315 174.626762 
L 338.480899 174.506963 
L 342.493483 179.632425 
L 346.506067 181.056725 
L 350.518652 180.802814 
L 354.531236 182.478747 
L 358.54382 185.107243 
L 362.556404 186.154994 
L 366.568989 186.764456 
L 370.581573 191.36611 
L 374.594157 187.642203 
L 378.606742 189.818859 
L 382.619326 191.249335 
L 386.63191 194.80273 
L 390.644494 199.946724 
L 394.657079 201.131411 
L 398.669663 238.7369 
L 402.682247 208.115139 
L 406.694831 291.708222 
L 410.707416 246.002424 
" style="fill:none;stroke:#ff0000;stroke-dasharray:1.5,2.475;stroke-dashoffset:0;stroke-width:1.5;"/>
    <defs>
     <path d="M 0 1.5 
C 0.397805 1.5 0.77937 1.341951 1.06066 1.06066 
C 1.341951 0.77937 1.5 0.397805 1.5 0 
C 1.5 -0.397805 1.341951 -0.77937 1.06066 -1.06066 
C 0.77937 -1.341951 0.397805 -1.5 0 -1.5 
C -0.397805 -1.5 -0.77937 -1.341951 -1.06066 -1.06066 
C -1.341951 -0.77937 -1.5 -0.397805 -1.5 0 
C -1.5 0.397805 -1.341951 0.77937 -1.06066 1.06066 
C -0.77937 1.341951 -0.397805 1.5 0 1.5 
z
" id="md37bc60ba3" style="stroke:#ff0000;"/>
    </defs>
    <g clip-path="url(#pe233ddc816)">
     <use style="fill:#ff0000;stroke:#ff0000;" x="61.612584" xlink:href="#md37bc60ba3" y="291.097161"/>
     <use style="fill:#ff0000;stroke:#ff0000;" x="65.625169" xlink:href="#md37bc60ba3" y="264.191197"/>
     <use style="fill:#ff0000;stroke:#ff0000;" x="69.637753" xlink:href="#md37bc60ba3" y="238.383296"/>
     <use style="fill:#ff0000;stroke:#ff0000;" x="73.650337" xlink:href="#md37bc60ba3" y="214.137894"/>
     <use style="fill:#ff0000;stroke:#ff0000;" x="77.662921" xlink:href="#md37bc60ba3" y="195.941125"/>
     <use style="fill:#ff0000;stroke:#ff0000;" x="81.675506" xlink:href="#md37bc60ba3" y="179.494287"/>
     <use style="fill:#ff0000;stroke:#ff0000;" x="85.68809" xlink:href="#md37bc60ba3" y="161.764966"/>
     <use style="fill:#ff0000;stroke:#ff0000;" x="89.700674" xlink:href="#md37bc60ba3" y="147.215392"/>
     <use style="fill:#ff0000;stroke:#ff0000;" x="93.713258" xlink:href="#md37bc60ba3" y="134.755438"/>
     <use style="fill:#ff0000;stroke:#ff0000;" x="97.725843" xlink:href="#md37bc60ba3" y="126.776608"/>
     <use style="fill:#ff0000;stroke:#ff0000;" x="101.738427" xlink:href="#md37bc60ba3" y="114.951513"/>
     <use style="fill:#ff0000;stroke:#ff0000;" x="105.751011" xlink:href="#md37bc60ba3" y="105.739218"/>
     <use style="fill:#ff0000;stroke:#ff0000;" x="109.763596" xlink:href="#md37bc60ba3" y="98.253792"/>
     <use style="fill:#ff0000;stroke:#ff0000;" x="113.77618" xlink:href="#md37bc60ba3" y="89.533224"/>
     <use style="fill:#ff0000;stroke:#ff0000;" x="117.788764" xlink:href="#md37bc60ba3" y="82.873288"/>
     <use style="fill:#ff0000;stroke:#ff0000;" x="121.801348" xlink:href="#md37bc60ba3" y="82.534027"/>
     <use style="fill:#ff0000;stroke:#ff0000;" x="125.813933" xlink:href="#md37bc60ba3" y="74.704644"/>
     <use style="fill:#ff0000;stroke:#ff0000;" x="129.826517" xlink:href="#md37bc60ba3" y="72.538173"/>
     <use style="fill:#ff0000;stroke:#ff0000;" x="133.839101" xlink:href="#md37bc60ba3" y="67.733288"/>
     <use style="fill:#ff0000;stroke:#ff0000;" x="137.851685" xlink:href="#md37bc60ba3" y="64.829647"/>
     <use style="fill:#ff0000;stroke:#ff0000;" x="141.86427" xlink:href="#md37bc60ba3" y="76.155574"/>
     <use style="fill:#ff0000;stroke:#ff0000;" x="145.876854" xlink:href="#md37bc60ba3" y="67.855122"/>
     <use style="fill:#ff0000;stroke:#ff0000;" x="149.889438" xlink:href="#md37bc60ba3" y="70.262599"/>
     <use style="fill:#ff0000;stroke:#ff0000;" x="153.902022" xlink:href="#md37bc60ba3" y="74.616724"/>
     <use style="fill:#ff0000;stroke:#ff0000;" x="157.914607" xlink:href="#md37bc60ba3" y="77.789832"/>
     <use style="fill:#ff0000;stroke:#ff0000;" x="161.927191" xlink:href="#md37bc60ba3" y="75.431751"/>
     <use style="fill:#ff0000;stroke:#ff0000;" x="165.939775" xlink:href="#md37bc60ba3" y="85.759785"/>
     <use style="fill:#ff0000;stroke:#ff0000;" x="169.95236" xlink:href="#md37bc60ba3" y="82.80612"/>
     <use style="fill:#ff0000;stroke:#ff0000;" x="173.964944" xlink:href="#md37bc60ba3" y="80.587787"/>
     <use style="fill:#ff0000;stroke:#ff0000;" x="177.977528" xlink:href="#md37bc60ba3" y="88.872863"/>
     <use style="fill:#ff0000;stroke:#ff0000;" x="181.990112" xlink:href="#md37bc60ba3" y="96.299664"/>
     <use style="fill:#ff0000;stroke:#ff0000;" x="186.002697" xlink:href="#md37bc60ba3" y="96.011676"/>
     <use style="fill:#ff0000;stroke:#ff0000;" x="190.015281" xlink:href="#md37bc60ba3" y="102.524863"/>
     <use style="fill:#ff0000;stroke:#ff0000;" x="194.027865" xlink:href="#md37bc60ba3" y="112.620455"/>
     <use style="fill:#ff0000;stroke:#ff0000;" x="198.040449" xlink:href="#md37bc60ba3" y="111.394499"/>
     <use style="fill:#ff0000;stroke:#ff0000;" x="202.053034" xlink:href="#md37bc60ba3" y="119.80813"/>
     <use style="fill:#ff0000;stroke:#ff0000;" x="206.065618" xlink:href="#md37bc60ba3" y="114.486817"/>
     <use style="fill:#ff0000;stroke:#ff0000;" x="210.078202" xlink:href="#md37bc60ba3" y="115.602228"/>
     <use style="fill:#ff0000;stroke:#ff0000;" x="214.090787" xlink:href="#md37bc60ba3" y="117.087164"/>
     <use style="fill:#ff0000;stroke:#ff0000;" x="218.103371" xlink:href="#md37bc60ba3" y="113.96575"/>
     <use style="fill:#ff0000;stroke:#ff0000;" x="222.115955" xlink:href="#md37bc60ba3" y="112.684385"/>
     <use style="fill:#ff0000;stroke:#ff0000;" x="226.128539" xlink:href="#md37bc60ba3" y="122.439095"/>
     <use style="fill:#ff0000;stroke:#ff0000;" x="230.141124" xlink:href="#md37bc60ba3" y="123.404194"/>
     <use style="fill:#ff0000;stroke:#ff0000;" x="234.153708" xlink:href="#md37bc60ba3" y="131.921663"/>
     <use style="fill:#ff0000;stroke:#ff0000;" x="238.166292" xlink:href="#md37bc60ba3" y="139.805952"/>
     <use style="fill:#ff0000;stroke:#ff0000;" x="242.178876" xlink:href="#md37bc60ba3" y="134.626994"/>
     <use style="fill:#ff0000;stroke:#ff0000;" x="246.191461" xlink:href="#md37bc60ba3" y="142.882495"/>
     <use style="fill:#ff0000;stroke:#ff0000;" x="250.204045" xlink:href="#md37bc60ba3" y="139.155191"/>
     <use style="fill:#ff0000;stroke:#ff0000;" x="254.216629" xlink:href="#md37bc60ba3" y="144.325703"/>
     <use style="fill:#ff0000;stroke:#ff0000;" x="258.229213" xlink:href="#md37bc60ba3" y="143.747047"/>
     <use style="fill:#ff0000;stroke:#ff0000;" x="262.241798" xlink:href="#md37bc60ba3" y="141.399101"/>
     <use style="fill:#ff0000;stroke:#ff0000;" x="266.254382" xlink:href="#md37bc60ba3" y="145.760792"/>
     <use style="fill:#ff0000;stroke:#ff0000;" x="270.266966" xlink:href="#md37bc60ba3" y="144.287525"/>
     <use style="fill:#ff0000;stroke:#ff0000;" x="274.279551" xlink:href="#md37bc60ba3" y="147.557496"/>
     <use style="fill:#ff0000;stroke:#ff0000;" x="278.292135" xlink:href="#md37bc60ba3" y="147.840715"/>
     <use style="fill:#ff0000;stroke:#ff0000;" x="282.304719" xlink:href="#md37bc60ba3" y="147.630371"/>
     <use style="fill:#ff0000;stroke:#ff0000;" x="286.317303" xlink:href="#md37bc60ba3" y="154.16415"/>
     <use style="fill:#ff0000;stroke:#ff0000;" x="290.329888" xlink:href="#md37bc60ba3" y="154.608746"/>
     <use style="fill:#ff0000;stroke:#ff0000;" x="294.342472" xlink:href="#md37bc60ba3" y="156.058722"/>
     <use style="fill:#ff0000;stroke:#ff0000;" x="298.355056" xlink:href="#md37bc60ba3" y="157.714613"/>
     <use style="fill:#ff0000;stroke:#ff0000;" x="302.36764" xlink:href="#md37bc60ba3" y="155.592215"/>
     <use style="fill:#ff0000;stroke:#ff0000;" x="306.380225" xlink:href="#md37bc60ba3" y="155.429892"/>
     <use style="fill:#ff0000;stroke:#ff0000;" x="310.392809" xlink:href="#md37bc60ba3" y="158.565995"/>
     <use style="fill:#ff0000;stroke:#ff0000;" x="314.405393" xlink:href="#md37bc60ba3" y="162.524743"/>
     <use style="fill:#ff0000;stroke:#ff0000;" x="318.417978" xlink:href="#md37bc60ba3" y="162.936453"/>
     <use style="fill:#ff0000;stroke:#ff0000;" x="322.430562" xlink:href="#md37bc60ba3" y="167.673001"/>
     <use style="fill:#ff0000;stroke:#ff0000;" x="326.443146" xlink:href="#md37bc60ba3" y="170.049436"/>
     <use style="fill:#ff0000;stroke:#ff0000;" x="330.45573" xlink:href="#md37bc60ba3" y="171.312494"/>
     <use style="fill:#ff0000;stroke:#ff0000;" x="334.468315" xlink:href="#md37bc60ba3" y="174.626762"/>
     <use style="fill:#ff0000;stroke:#ff0000;" x="338.480899" xlink:href="#md37bc60ba3" y="174.506963"/>
     <use style="fill:#ff0000;stroke:#ff0000;" x="342.493483" xlink:href="#md37bc60ba3" y="179.632425"/>
     <use style="fill:#ff0000;stroke:#ff0000;" x="346.506067" xlink:href="#md37bc60ba3" y="181.056725"/>
     <use style="fill:#ff0000;stroke:#ff0000;" x="350.518652" xlink:href="#md37bc60ba3" y="180.802814"/>
     <use style="fill:#ff0000;stroke:#ff0000;" x="354.531236" xlink:href="#md37bc60ba3" y="182.478747"/>
     <use style="fill:#ff0000;stroke:#ff0000;" x="358.54382" xlink:href="#md37bc60ba3" y="185.107243"/>
     <use style="fill:#ff0000;stroke:#ff0000;" x="362.556404" xlink:href="#md37bc60ba3" y="186.154994"/>
     <use style="fill:#ff0000;stroke:#ff0000;" x="366.568989" xlink:href="#md37bc60ba3" y="186.764456"/>
     <use style="fill:#ff0000;stroke:#ff0000;" x="370.581573" xlink:href="#md37bc60ba3" y="191.36611"/>
     <use style="fill:#ff0000;stroke:#ff0000;" x="374.594157" xlink:href="#md37bc60ba3" y="187.642203"/>
     <use style="fill:#ff0000;stroke:#ff0000;" x="378.606742" xlink:href="#md37bc60ba3" y="189.818859"/>
     <use style="fill:#ff0000;stroke:#ff0000;" x="382.619326" xlink:href="#md37bc60ba3" y="191.249335"/>
     <use style="fill:#ff0000;stroke:#ff0000;" x="386.63191" xlink:href="#md37bc60ba3" y="194.80273"/>
     <use style="fill:#ff0000;stroke:#ff0000;" x="390.644494" xlink:href="#md37bc60ba3" y="199.946724"/>
     <use style="fill:#ff0000;stroke:#ff0000;" x="394.657079" xlink:href="#md37bc60ba3" y="201.131411"/>
     <use style="fill:#ff0000;stroke:#ff0000;" x="398.669663" xlink:href="#md37bc60ba3" y="238.7369"/>
     <use style="fill:#ff0000;stroke:#ff0000;" x="402.682247" xlink:href="#md37bc60ba3" y="208.115139"/>
     <use style="fill:#ff0000;stroke:#ff0000;" x="406.694831" xlink:href="#md37bc60ba3" y="291.708222"/>
     <use style="fill:#ff0000;stroke:#ff0000;" x="410.707416" xlink:href="#md37bc60ba3" y="246.002424"/>
    </g>
   </g>
   <g id="line2d_65">
    <path clip-path="url(#pe233ddc816)" d="M 61.612584 290.413575 
L 65.625169 262.376887 
L 69.637753 234.997759 
L 73.650337 211.634622 
L 77.662921 192.16912 
L 81.675506 176.69302 
L 85.68809 157.544795 
L 89.700674 145.617156 
L 93.713258 133.834372 
L 97.725843 124.65194 
L 101.738427 108.407354 
L 105.751011 99.18919 
L 109.763596 91.651422 
L 113.77618 84.83318 
L 117.788764 77.946931 
L 121.801348 75.934331 
L 125.813933 68.155274 
L 129.826517 67.181597 
L 133.839101 61.311704 
L 137.851685 60.130267 
L 141.86427 64.861787 
L 145.876854 60.757852 
L 149.889438 66.856974 
L 153.902022 68.725006 
L 157.914607 68.99771 
L 161.927191 68.136029 
L 165.939775 74.032721 
L 169.95236 76.451855 
L 173.964944 81.223283 
L 177.977528 87.486825 
L 181.990112 96.16981 
L 186.002697 97.541339 
L 190.015281 101.211709 
L 194.027865 109.246781 
L 198.040449 112.506793 
L 202.053034 118.695518 
L 206.065618 119.920191 
L 210.078202 119.865715 
L 214.090787 120.073666 
L 218.103371 120.431958 
L 222.115955 119.131417 
L 226.128539 127.568123 
L 230.141124 128.148373 
L 234.153708 133.866344 
L 238.166292 140.69905 
L 242.178876 137.874132 
L 246.191461 145.405576 
L 250.204045 144.74213 
L 254.216629 146.456889 
L 258.229213 146.559451 
L 262.241798 146.622821 
L 266.254382 148.819453 
L 270.266966 149.662828 
L 274.279551 151.434538 
L 278.292135 152.11982 
L 282.304719 152.845429 
L 286.317303 155.754879 
L 290.329888 155.982505 
L 294.342472 158.673764 
L 298.355056 159.418166 
L 302.36764 156.228095 
L 306.380225 158.52178 
L 310.392809 162.078703 
L 314.405393 165.0927 
L 318.417978 165.913392 
L 322.430562 169.855893 
L 326.443146 169.980127 
L 330.45573 172.788806 
L 334.468315 174.279697 
L 338.480899 175.709496 
L 342.493483 179.865999 
L 346.506067 181.311118 
L 350.518652 180.499004 
L 354.531236 182.649373 
L 358.54382 185.194225 
L 362.556404 185.316949 
L 366.568989 186.337625 
L 370.581573 189.034281 
L 374.594157 188.588622 
L 378.606742 190.588681 
L 382.619326 191.850576 
L 386.63191 195.839282 
L 390.644494 200.094836 
L 394.657079 201.121865 
L 398.669663 239.936138 
L 402.682247 209.136493 
L 406.694831 293.598111 
L 410.707416 247.441373 
" style="fill:none;stroke:#008000;stroke-dasharray:1.5,2.475;stroke-dashoffset:0;stroke-width:1.5;"/>
    <defs>
     <path d="M 0 1.5 
C 0.397805 1.5 0.77937 1.341951 1.06066 1.06066 
C 1.341951 0.77937 1.5 0.397805 1.5 0 
C 1.5 -0.397805 1.341951 -0.77937 1.06066 -1.06066 
C 0.77937 -1.341951 0.397805 -1.5 0 -1.5 
C -0.397805 -1.5 -0.77937 -1.341951 -1.06066 -1.06066 
C -1.341951 -0.77937 -1.5 -0.397805 -1.5 0 
C -1.5 0.397805 -1.341951 0.77937 -1.06066 1.06066 
C -0.77937 1.341951 -0.397805 1.5 0 1.5 
z
" id="md5dded6b73" style="stroke:#008000;"/>
    </defs>
    <g clip-path="url(#pe233ddc816)">
     <use style="fill:#008000;stroke:#008000;" x="61.612584" xlink:href="#md5dded6b73" y="290.413575"/>
     <use style="fill:#008000;stroke:#008000;" x="65.625169" xlink:href="#md5dded6b73" y="262.376887"/>
     <use style="fill:#008000;stroke:#008000;" x="69.637753" xlink:href="#md5dded6b73" y="234.997759"/>
     <use style="fill:#008000;stroke:#008000;" x="73.650337" xlink:href="#md5dded6b73" y="211.634622"/>
     <use style="fill:#008000;stroke:#008000;" x="77.662921" xlink:href="#md5dded6b73" y="192.16912"/>
     <use style="fill:#008000;stroke:#008000;" x="81.675506" xlink:href="#md5dded6b73" y="176.69302"/>
     <use style="fill:#008000;stroke:#008000;" x="85.68809" xlink:href="#md5dded6b73" y="157.544795"/>
     <use style="fill:#008000;stroke:#008000;" x="89.700674" xlink:href="#md5dded6b73" y="145.617156"/>
     <use style="fill:#008000;stroke:#008000;" x="93.713258" xlink:href="#md5dded6b73" y="133.834372"/>
     <use style="fill:#008000;stroke:#008000;" x="97.725843" xlink:href="#md5dded6b73" y="124.65194"/>
     <use style="fill:#008000;stroke:#008000;" x="101.738427" xlink:href="#md5dded6b73" y="108.407354"/>
     <use style="fill:#008000;stroke:#008000;" x="105.751011" xlink:href="#md5dded6b73" y="99.18919"/>
     <use style="fill:#008000;stroke:#008000;" x="109.763596" xlink:href="#md5dded6b73" y="91.651422"/>
     <use style="fill:#008000;stroke:#008000;" x="113.77618" xlink:href="#md5dded6b73" y="84.83318"/>
     <use style="fill:#008000;stroke:#008000;" x="117.788764" xlink:href="#md5dded6b73" y="77.946931"/>
     <use style="fill:#008000;stroke:#008000;" x="121.801348" xlink:href="#md5dded6b73" y="75.934331"/>
     <use style="fill:#008000;stroke:#008000;" x="125.813933" xlink:href="#md5dded6b73" y="68.155274"/>
     <use style="fill:#008000;stroke:#008000;" x="129.826517" xlink:href="#md5dded6b73" y="67.181597"/>
     <use style="fill:#008000;stroke:#008000;" x="133.839101" xlink:href="#md5dded6b73" y="61.311704"/>
     <use style="fill:#008000;stroke:#008000;" x="137.851685" xlink:href="#md5dded6b73" y="60.130267"/>
     <use style="fill:#008000;stroke:#008000;" x="141.86427" xlink:href="#md5dded6b73" y="64.861787"/>
     <use style="fill:#008000;stroke:#008000;" x="145.876854" xlink:href="#md5dded6b73" y="60.757852"/>
     <use style="fill:#008000;stroke:#008000;" x="149.889438" xlink:href="#md5dded6b73" y="66.856974"/>
     <use style="fill:#008000;stroke:#008000;" x="153.902022" xlink:href="#md5dded6b73" y="68.725006"/>
     <use style="fill:#008000;stroke:#008000;" x="157.914607" xlink:href="#md5dded6b73" y="68.99771"/>
     <use style="fill:#008000;stroke:#008000;" x="161.927191" xlink:href="#md5dded6b73" y="68.136029"/>
     <use style="fill:#008000;stroke:#008000;" x="165.939775" xlink:href="#md5dded6b73" y="74.032721"/>
     <use style="fill:#008000;stroke:#008000;" x="169.95236" xlink:href="#md5dded6b73" y="76.451855"/>
     <use style="fill:#008000;stroke:#008000;" x="173.964944" xlink:href="#md5dded6b73" y="81.223283"/>
     <use style="fill:#008000;stroke:#008000;" x="177.977528" xlink:href="#md5dded6b73" y="87.486825"/>
     <use style="fill:#008000;stroke:#008000;" x="181.990112" xlink:href="#md5dded6b73" y="96.16981"/>
     <use style="fill:#008000;stroke:#008000;" x="186.002697" xlink:href="#md5dded6b73" y="97.541339"/>
     <use style="fill:#008000;stroke:#008000;" x="190.015281" xlink:href="#md5dded6b73" y="101.211709"/>
     <use style="fill:#008000;stroke:#008000;" x="194.027865" xlink:href="#md5dded6b73" y="109.246781"/>
     <use style="fill:#008000;stroke:#008000;" x="198.040449" xlink:href="#md5dded6b73" y="112.506793"/>
     <use style="fill:#008000;stroke:#008000;" x="202.053034" xlink:href="#md5dded6b73" y="118.695518"/>
     <use style="fill:#008000;stroke:#008000;" x="206.065618" xlink:href="#md5dded6b73" y="119.920191"/>
     <use style="fill:#008000;stroke:#008000;" x="210.078202" xlink:href="#md5dded6b73" y="119.865715"/>
     <use style="fill:#008000;stroke:#008000;" x="214.090787" xlink:href="#md5dded6b73" y="120.073666"/>
     <use style="fill:#008000;stroke:#008000;" x="218.103371" xlink:href="#md5dded6b73" y="120.431958"/>
     <use style="fill:#008000;stroke:#008000;" x="222.115955" xlink:href="#md5dded6b73" y="119.131417"/>
     <use style="fill:#008000;stroke:#008000;" x="226.128539" xlink:href="#md5dded6b73" y="127.568123"/>
     <use style="fill:#008000;stroke:#008000;" x="230.141124" xlink:href="#md5dded6b73" y="128.148373"/>
     <use style="fill:#008000;stroke:#008000;" x="234.153708" xlink:href="#md5dded6b73" y="133.866344"/>
     <use style="fill:#008000;stroke:#008000;" x="238.166292" xlink:href="#md5dded6b73" y="140.69905"/>
     <use style="fill:#008000;stroke:#008000;" x="242.178876" xlink:href="#md5dded6b73" y="137.874132"/>
     <use style="fill:#008000;stroke:#008000;" x="246.191461" xlink:href="#md5dded6b73" y="145.405576"/>
     <use style="fill:#008000;stroke:#008000;" x="250.204045" xlink:href="#md5dded6b73" y="144.74213"/>
     <use style="fill:#008000;stroke:#008000;" x="254.216629" xlink:href="#md5dded6b73" y="146.456889"/>
     <use style="fill:#008000;stroke:#008000;" x="258.229213" xlink:href="#md5dded6b73" y="146.559451"/>
     <use style="fill:#008000;stroke:#008000;" x="262.241798" xlink:href="#md5dded6b73" y="146.622821"/>
     <use style="fill:#008000;stroke:#008000;" x="266.254382" xlink:href="#md5dded6b73" y="148.819453"/>
     <use style="fill:#008000;stroke:#008000;" x="270.266966" xlink:href="#md5dded6b73" y="149.662828"/>
     <use style="fill:#008000;stroke:#008000;" x="274.279551" xlink:href="#md5dded6b73" y="151.434538"/>
     <use style="fill:#008000;stroke:#008000;" x="278.292135" xlink:href="#md5dded6b73" y="152.11982"/>
     <use style="fill:#008000;stroke:#008000;" x="282.304719" xlink:href="#md5dded6b73" y="152.845429"/>
     <use style="fill:#008000;stroke:#008000;" x="286.317303" xlink:href="#md5dded6b73" y="155.754879"/>
     <use style="fill:#008000;stroke:#008000;" x="290.329888" xlink:href="#md5dded6b73" y="155.982505"/>
     <use style="fill:#008000;stroke:#008000;" x="294.342472" xlink:href="#md5dded6b73" y="158.673764"/>
     <use style="fill:#008000;stroke:#008000;" x="298.355056" xlink:href="#md5dded6b73" y="159.418166"/>
     <use style="fill:#008000;stroke:#008000;" x="302.36764" xlink:href="#md5dded6b73" y="156.228095"/>
     <use style="fill:#008000;stroke:#008000;" x="306.380225" xlink:href="#md5dded6b73" y="158.52178"/>
     <use style="fill:#008000;stroke:#008000;" x="310.392809" xlink:href="#md5dded6b73" y="162.078703"/>
     <use style="fill:#008000;stroke:#008000;" x="314.405393" xlink:href="#md5dded6b73" y="165.0927"/>
     <use style="fill:#008000;stroke:#008000;" x="318.417978" xlink:href="#md5dded6b73" y="165.913392"/>
     <use style="fill:#008000;stroke:#008000;" x="322.430562" xlink:href="#md5dded6b73" y="169.855893"/>
     <use style="fill:#008000;stroke:#008000;" x="326.443146" xlink:href="#md5dded6b73" y="169.980127"/>
     <use style="fill:#008000;stroke:#008000;" x="330.45573" xlink:href="#md5dded6b73" y="172.788806"/>
     <use style="fill:#008000;stroke:#008000;" x="334.468315" xlink:href="#md5dded6b73" y="174.279697"/>
     <use style="fill:#008000;stroke:#008000;" x="338.480899" xlink:href="#md5dded6b73" y="175.709496"/>
     <use style="fill:#008000;stroke:#008000;" x="342.493483" xlink:href="#md5dded6b73" y="179.865999"/>
     <use style="fill:#008000;stroke:#008000;" x="346.506067" xlink:href="#md5dded6b73" y="181.311118"/>
     <use style="fill:#008000;stroke:#008000;" x="350.518652" xlink:href="#md5dded6b73" y="180.499004"/>
     <use style="fill:#008000;stroke:#008000;" x="354.531236" xlink:href="#md5dded6b73" y="182.649373"/>
     <use style="fill:#008000;stroke:#008000;" x="358.54382" xlink:href="#md5dded6b73" y="185.194225"/>
     <use style="fill:#008000;stroke:#008000;" x="362.556404" xlink:href="#md5dded6b73" y="185.316949"/>
     <use style="fill:#008000;stroke:#008000;" x="366.568989" xlink:href="#md5dded6b73" y="186.337625"/>
     <use style="fill:#008000;stroke:#008000;" x="370.581573" xlink:href="#md5dded6b73" y="189.034281"/>
     <use style="fill:#008000;stroke:#008000;" x="374.594157" xlink:href="#md5dded6b73" y="188.588622"/>
     <use style="fill:#008000;stroke:#008000;" x="378.606742" xlink:href="#md5dded6b73" y="190.588681"/>
     <use style="fill:#008000;stroke:#008000;" x="382.619326" xlink:href="#md5dded6b73" y="191.850576"/>
     <use style="fill:#008000;stroke:#008000;" x="386.63191" xlink:href="#md5dded6b73" y="195.839282"/>
     <use style="fill:#008000;stroke:#008000;" x="390.644494" xlink:href="#md5dded6b73" y="200.094836"/>
     <use style="fill:#008000;stroke:#008000;" x="394.657079" xlink:href="#md5dded6b73" y="201.121865"/>
     <use style="fill:#008000;stroke:#008000;" x="398.669663" xlink:href="#md5dded6b73" y="239.936138"/>
     <use style="fill:#008000;stroke:#008000;" x="402.682247" xlink:href="#md5dded6b73" y="209.136493"/>
     <use style="fill:#008000;stroke:#008000;" x="406.694831" xlink:href="#md5dded6b73" y="293.598111"/>
     <use style="fill:#008000;stroke:#008000;" x="410.707416" xlink:href="#md5dded6b73" y="247.441373"/>
    </g>
   </g>
   <g id="patch_3">
    <path d="M 57.6 307.584 
L 57.6 41.472 
" style="fill:none;stroke:#000000;stroke-linecap:square;stroke-linejoin:miter;stroke-width:0.8;"/>
   </g>
   <g id="patch_4">
    <path d="M 414.72 307.584 
L 414.72 41.472 
" style="fill:none;stroke:#000000;stroke-linecap:square;stroke-linejoin:miter;stroke-width:0.8;"/>
   </g>
   <g id="patch_5">
    <path d="M 57.6 307.584 
L 414.72 307.584 
" style="fill:none;stroke:#000000;stroke-linecap:square;stroke-linejoin:miter;stroke-width:0.8;"/>
   </g>
   <g id="patch_6">
    <path d="M 57.6 41.472 
L 414.72 41.472 
" style="fill:none;stroke:#000000;stroke-linecap:square;stroke-linejoin:miter;stroke-width:0.8;"/>
   </g>
   <g id="text_34">
    <!-- radix sort 6 on ASIC_680k -->
    <defs>
     <path d="M 9.421875 54.6875 
L 18.40625 54.6875 
L 18.40625 0 
L 9.421875 0 
z
M 9.421875 75.984375 
L 18.40625 75.984375 
L 18.40625 64.59375 
L 9.421875 64.59375 
z
" id="DejaVuSans-105"/>
     <path d="M 54.890625 54.6875 
L 35.109375 28.078125 
L 55.90625 0 
L 45.3125 0 
L 29.390625 21.484375 
L 13.484375 0 
L 2.875 0 
L 24.125 28.609375 
L 4.6875 54.6875 
L 15.28125 54.6875 
L 29.78125 35.203125 
L 44.28125 54.6875 
z
" id="DejaVuSans-120"/>
     <path d="M 30.609375 48.390625 
Q 23.390625 48.390625 19.1875 42.75 
Q 14.984375 37.109375 14.984375 27.296875 
Q 14.984375 17.484375 19.15625 11.84375 
Q 23.34375 6.203125 30.609375 6.203125 
Q 37.796875 6.203125 41.984375 11.859375 
Q 46.1875 17.53125 46.1875 27.296875 
Q 46.1875 37.015625 41.984375 42.703125 
Q 37.796875 48.390625 30.609375 48.390625 
z
M 30.609375 56 
Q 42.328125 56 49.015625 48.375 
Q 55.71875 40.765625 55.71875 27.296875 
Q 55.71875 13.875 49.015625 6.21875 
Q 42.328125 -1.421875 30.609375 -1.421875 
Q 18.84375 -1.421875 12.171875 6.21875 
Q 5.515625 13.875 5.515625 27.296875 
Q 5.515625 40.765625 12.171875 48.375 
Q 18.84375 56 30.609375 56 
z
" id="DejaVuSans-111"/>
     <path d="M 54.890625 33.015625 
L 54.890625 0 
L 45.90625 0 
L 45.90625 32.71875 
Q 45.90625 40.484375 42.875 44.328125 
Q 39.84375 48.1875 33.796875 48.1875 
Q 26.515625 48.1875 22.3125 43.546875 
Q 18.109375 38.921875 18.109375 30.90625 
L 18.109375 0 
L 9.078125 0 
L 9.078125 54.6875 
L 18.109375 54.6875 
L 18.109375 46.1875 
Q 21.34375 51.125 25.703125 53.5625 
Q 30.078125 56 35.796875 56 
Q 45.21875 56 50.046875 50.171875 
Q 54.890625 44.34375 54.890625 33.015625 
z
" id="DejaVuSans-110"/>
     <path d="M 34.1875 63.1875 
L 20.796875 26.90625 
L 47.609375 26.90625 
z
M 28.609375 72.90625 
L 39.796875 72.90625 
L 67.578125 0 
L 57.328125 0 
L 50.6875 18.703125 
L 17.828125 18.703125 
L 11.1875 0 
L 0.78125 0 
z
" id="DejaVuSans-65"/>
     <path d="M 53.515625 70.515625 
L 53.515625 60.890625 
Q 47.90625 63.578125 42.921875 64.890625 
Q 37.9375 66.21875 33.296875 66.21875 
Q 25.25 66.21875 20.875 63.09375 
Q 16.5 59.96875 16.5 54.203125 
Q 16.5 49.359375 19.40625 46.890625 
Q 22.3125 44.4375 30.421875 42.921875 
L 36.375 41.703125 
Q 47.40625 39.59375 52.65625 34.296875 
Q 57.90625 29 57.90625 20.125 
Q 57.90625 9.515625 50.796875 4.046875 
Q 43.703125 -1.421875 29.984375 -1.421875 
Q 24.8125 -1.421875 18.96875 -0.25 
Q 13.140625 0.921875 6.890625 3.21875 
L 6.890625 13.375 
Q 12.890625 10.015625 18.65625 8.296875 
Q 24.421875 6.59375 29.984375 6.59375 
Q 38.421875 6.59375 43.015625 9.90625 
Q 47.609375 13.234375 47.609375 19.390625 
Q 47.609375 24.75 44.3125 27.78125 
Q 41.015625 30.8125 33.5 32.328125 
L 27.484375 33.5 
Q 16.453125 35.6875 11.515625 40.375 
Q 6.59375 45.0625 6.59375 53.421875 
Q 6.59375 63.09375 13.40625 68.65625 
Q 20.21875 74.21875 32.171875 74.21875 
Q 37.3125 74.21875 42.625 73.28125 
Q 47.953125 72.359375 53.515625 70.515625 
z
" id="DejaVuSans-83"/>
     <path d="M 9.8125 72.90625 
L 19.671875 72.90625 
L 19.671875 0 
L 9.8125 0 
z
" id="DejaVuSans-73"/>
     <path d="M 64.40625 67.28125 
L 64.40625 56.890625 
Q 59.421875 61.53125 53.78125 63.8125 
Q 48.140625 66.109375 41.796875 66.109375 
Q 29.296875 66.109375 22.65625 58.46875 
Q 16.015625 50.828125 16.015625 36.375 
Q 16.015625 21.96875 22.65625 14.328125 
Q 29.296875 6.6875 41.796875 6.6875 
Q 48.140625 6.6875 53.78125 8.984375 
Q 59.421875 11.28125 64.40625 15.921875 
L 64.40625 5.609375 
Q 59.234375 2.09375 53.4375 0.328125 
Q 47.65625 -1.421875 41.21875 -1.421875 
Q 24.65625 -1.421875 15.125 8.703125 
Q 5.609375 18.84375 5.609375 36.375 
Q 5.609375 53.953125 15.125 64.078125 
Q 24.65625 74.21875 41.21875 74.21875 
Q 47.75 74.21875 53.53125 72.484375 
Q 59.328125 70.75 64.40625 67.28125 
z
" id="DejaVuSans-67"/>
     <path d="M 50.984375 -16.609375 
L 50.984375 -23.578125 
L -0.984375 -23.578125 
L -0.984375 -16.609375 
z
" id="DejaVuSans-95"/>
     <path d="M 9.078125 75.984375 
L 18.109375 75.984375 
L 18.109375 31.109375 
L 44.921875 54.6875 
L 56.390625 54.6875 
L 27.390625 29.109375 
L 57.625 0 
L 45.90625 0 
L 18.109375 26.703125 
L 18.109375 0 
L 9.078125 0 
z
" id="DejaVuSans-107"/>
    </defs>
    <g transform="translate(158.655 35.472)scale(0.12 -0.12)">
     <use xlink:href="#DejaVuSans-114"/>
     <use x="41.113281" xlink:href="#DejaVuSans-97"/>
     <use x="102.392578" xlink:href="#DejaVuSans-100"/>
     <use x="165.869141" xlink:href="#DejaVuSans-105"/>
     <use x="193.652344" xlink:href="#DejaVuSans-120"/>
     <use x="252.832031" xlink:href="#DejaVuSans-32"/>
     <use x="284.619141" xlink:href="#DejaVuSans-115"/>
     <use x="336.71875" xlink:href="#DejaVuSans-111"/>
     <use x="397.900391" xlink:href="#DejaVuSans-114"/>
     <use x="439.013672" xlink:href="#DejaVuSans-116"/>
     <use x="478.222656" xlink:href="#DejaVuSans-32"/>
     <use x="510.009766" xlink:href="#DejaVuSans-54"/>
     <use x="573.632812" xlink:href="#DejaVuSans-32"/>
     <use x="605.419922" xlink:href="#DejaVuSans-111"/>
     <use x="666.601562" xlink:href="#DejaVuSans-110"/>
     <use x="729.980469" xlink:href="#DejaVuSans-32"/>
     <use x="761.767578" xlink:href="#DejaVuSans-65"/>
     <use x="830.175781" xlink:href="#DejaVuSans-83"/>
     <use x="893.652344" xlink:href="#DejaVuSans-73"/>
     <use x="923.144531" xlink:href="#DejaVuSans-67"/>
     <use x="992.96875" xlink:href="#DejaVuSans-95"/>
     <use x="1042.96875" xlink:href="#DejaVuSans-54"/>
     <use x="1106.591797" xlink:href="#DejaVuSans-56"/>
     <use x="1170.214844" xlink:href="#DejaVuSans-48"/>
     <use x="1233.837891" xlink:href="#DejaVuSans-107"/>
    </g>
   </g>
   <g id="legend_1">
    <g id="patch_7">
     <path d="M 313.152813 93.7845 
L 407.72 93.7845 
Q 409.72 93.7845 409.72 91.7845 
L 409.72 48.472 
Q 409.72 46.472 407.72 46.472 
L 313.152813 46.472 
Q 311.152813 46.472 311.152813 48.472 
L 311.152813 91.7845 
Q 311.152813 93.7845 313.152813 93.7845 
z
" style="fill:#ffffff;opacity:0.8;stroke:#cccccc;stroke-linejoin:miter;"/>
    </g>
    <g id="line2d_66">
     <path d="M 315.152813 54.570438 
L 335.152813 54.570438 
" style="fill:none;stroke:#0000ff;stroke-dasharray:1.5,2.475;stroke-dashoffset:0;stroke-width:1.5;"/>
    </g>
    <g id="line2d_67">
     <g>
      <use style="fill:#0000ff;stroke:#0000ff;" x="325.152813" xlink:href="#mbeaca86430" y="54.570438"/>
     </g>
    </g>
    <g id="text_35">
     <!-- transpose -->
     <g transform="translate(343.152813 58.070438)scale(0.1 -0.1)">
      <use xlink:href="#DejaVuSans-116"/>
      <use x="39.208984" xlink:href="#DejaVuSans-114"/>
      <use x="80.322266" xlink:href="#DejaVuSans-97"/>
      <use x="141.601562" xlink:href="#DejaVuSans-110"/>
      <use x="204.980469" xlink:href="#DejaVuSans-115"/>
      <use x="257.080078" xlink:href="#DejaVuSans-112"/>
      <use x="320.556641" xlink:href="#DejaVuSans-111"/>
      <use x="381.738281" xlink:href="#DejaVuSans-115"/>
      <use x="433.837891" xlink:href="#DejaVuSans-101"/>
     </g>
    </g>
    <g id="line2d_68">
     <path d="M 315.152813 69.248563 
L 335.152813 69.248563 
" style="fill:none;stroke:#ff0000;stroke-dasharray:1.5,2.475;stroke-dashoffset:0;stroke-width:1.5;"/>
    </g>
    <g id="line2d_69">
     <g>
      <use style="fill:#ff0000;stroke:#ff0000;" x="325.152813" xlink:href="#md37bc60ba3" y="69.248563"/>
     </g>
    </g>
    <g id="text_36">
     <!-- transpose_tr -->
     <g transform="translate(343.152813 72.748563)scale(0.1 -0.1)">
      <use xlink:href="#DejaVuSans-116"/>
      <use x="39.208984" xlink:href="#DejaVuSans-114"/>
      <use x="80.322266" xlink:href="#DejaVuSans-97"/>
      <use x="141.601562" xlink:href="#DejaVuSans-110"/>
      <use x="204.980469" xlink:href="#DejaVuSans-115"/>
      <use x="257.080078" xlink:href="#DejaVuSans-112"/>
      <use x="320.556641" xlink:href="#DejaVuSans-111"/>
      <use x="381.738281" xlink:href="#DejaVuSans-115"/>
      <use x="433.837891" xlink:href="#DejaVuSans-101"/>
      <use x="495.361328" xlink:href="#DejaVuSans-95"/>
      <use x="545.361328" xlink:href="#DejaVuSans-116"/>
      <use x="584.570312" xlink:href="#DejaVuSans-114"/>
     </g>
    </g>
    <g id="line2d_70">
     <path d="M 315.152813 84.204813 
L 335.152813 84.204813 
" style="fill:none;stroke:#008000;stroke-dasharray:1.5,2.475;stroke-dashoffset:0;stroke-width:1.5;"/>
    </g>
    <g id="line2d_71">
     <g>
      <use style="fill:#008000;stroke:#008000;" x="325.152813" xlink:href="#md5dded6b73" y="84.204813"/>
     </g>
    </g>
    <g id="text_37">
     <!-- mean -->
     <defs>
      <path d="M 52 44.1875 
Q 55.375 50.25 60.0625 53.125 
Q 64.75 56 71.09375 56 
Q 79.640625 56 84.28125 50.015625 
Q 88.921875 44.046875 88.921875 33.015625 
L 88.921875 0 
L 79.890625 0 
L 79.890625 32.71875 
Q 79.890625 40.578125 77.09375 44.375 
Q 74.3125 48.1875 68.609375 48.1875 
Q 61.625 48.1875 57.5625 43.546875 
Q 53.515625 38.921875 53.515625 30.90625 
L 53.515625 0 
L 44.484375 0 
L 44.484375 32.71875 
Q 44.484375 40.625 41.703125 44.40625 
Q 38.921875 48.1875 33.109375 48.1875 
Q 26.21875 48.1875 22.15625 43.53125 
Q 18.109375 38.875 18.109375 30.90625 
L 18.109375 0 
L 9.078125 0 
L 9.078125 54.6875 
L 18.109375 54.6875 
L 18.109375 46.1875 
Q 21.1875 51.21875 25.484375 53.609375 
Q 29.78125 56 35.6875 56 
Q 41.65625 56 45.828125 52.96875 
Q 50 49.953125 52 44.1875 
z
" id="DejaVuSans-109"/>
     </defs>
     <g transform="translate(343.152813 87.704813)scale(0.1 -0.1)">
      <use xlink:href="#DejaVuSans-109"/>
      <use x="97.412109" xlink:href="#DejaVuSans-101"/>
      <use x="158.935547" xlink:href="#DejaVuSans-97"/>
      <use x="220.214844" xlink:href="#DejaVuSans-110"/>
     </g>
    </g>
   </g>
  </g>
 </g>
 <defs>
  <clipPath id="pe233ddc816">
   <rect height="266.112" width="357.12" x="57.6" y="41.472"/>
  </clipPath>
 </defs>
</svg>
