<?xml version="1.0" encoding="utf-8" standalone="no"?>
<!DOCTYPE svg PUBLIC "-//W3C//DTD SVG 1.1//EN"
  "http://www.w3.org/Graphics/SVG/1.1/DTD/svg11.dtd">
<!-- Created with matplotlib (https://matplotlib.org/) -->
<svg height="345.6pt" version="1.1" viewBox="0 0 460.8 345.6" width="460.8pt" xmlns="http://www.w3.org/2000/svg" xmlns:xlink="http://www.w3.org/1999/xlink">
 <defs>
  <style type="text/css">
*{stroke-linecap:butt;stroke-linejoin:round;}
  </style>
 </defs>
 <g id="figure_1">
  <g id="patch_1">
   <path d="M 0 345.6 
L 460.8 345.6 
L 460.8 0 
L 0 0 
z
" style="fill:#ffffff;"/>
  </g>
  <g id="axes_1">
   <g id="patch_2">
    <path d="M 57.6 307.584 
L 414.72 307.584 
L 414.72 41.472 
L 57.6 41.472 
z
" style="fill:#ffffff;"/>
   </g>
   <g id="matplotlib.axis_1">
    <g id="xtick_1">
     <g id="line2d_1">
      <path clip-path="url(#p4a7dc073f3)" d="M 61.612584 307.584 
L 61.612584 41.472 
" style="fill:none;stroke:#b0b0b0;stroke-dasharray:5.12,1.28,0.8,1.28;stroke-dashoffset:0;stroke-width:0.8;"/>
     </g>
     <g id="line2d_2">
      <defs>
       <path d="M 0 0 
L 0 3.5 
" id="mdb51646fd7" style="stroke:#000000;stroke-width:0.8;"/>
      </defs>
      <g>
       <use style="stroke:#000000;stroke-width:0.8;" x="61.612584" xlink:href="#mdb51646fd7" y="307.584"/>
      </g>
     </g>
     <g id="text_1">
      <!-- 1 -->
      <defs>
       <path d="M 12.40625 8.296875 
L 28.515625 8.296875 
L 28.515625 63.921875 
L 10.984375 60.40625 
L 10.984375 69.390625 
L 28.421875 72.90625 
L 38.28125 72.90625 
L 38.28125 8.296875 
L 54.390625 8.296875 
L 54.390625 0 
L 12.40625 0 
z
" id="DejaVuSans-49"/>
      </defs>
      <g transform="translate(58.431334 322.182437)scale(0.1 -0.1)">
       <use xlink:href="#DejaVuSans-49"/>
      </g>
     </g>
    </g>
    <g id="xtick_2">
     <g id="line2d_3">
      <path clip-path="url(#p4a7dc073f3)" d="M 73.650337 307.584 
L 73.650337 41.472 
" style="fill:none;stroke:#b0b0b0;stroke-dasharray:5.12,1.28,0.8,1.28;stroke-dashoffset:0;stroke-width:0.8;"/>
     </g>
     <g id="line2d_4">
      <g>
       <use style="stroke:#000000;stroke-width:0.8;" x="73.650337" xlink:href="#mdb51646fd7" y="307.584"/>
      </g>
     </g>
     <g id="text_2">
      <!-- 4 -->
      <defs>
       <path d="M 37.796875 64.3125 
L 12.890625 25.390625 
L 37.796875 25.390625 
z
M 35.203125 72.90625 
L 47.609375 72.90625 
L 47.609375 25.390625 
L 58.015625 25.390625 
L 58.015625 17.1875 
L 47.609375 17.1875 
L 47.609375 0 
L 37.796875 0 
L 37.796875 17.1875 
L 4.890625 17.1875 
L 4.890625 26.703125 
z
" id="DejaVuSans-52"/>
      </defs>
      <g transform="translate(70.469087 322.182437)scale(0.1 -0.1)">
       <use xlink:href="#DejaVuSans-52"/>
      </g>
     </g>
    </g>
    <g id="xtick_3">
     <g id="line2d_5">
      <path clip-path="url(#p4a7dc073f3)" d="M 89.700674 307.584 
L 89.700674 41.472 
" style="fill:none;stroke:#b0b0b0;stroke-dasharray:5.12,1.28,0.8,1.28;stroke-dashoffset:0;stroke-width:0.8;"/>
     </g>
     <g id="line2d_6">
      <g>
       <use style="stroke:#000000;stroke-width:0.8;" x="89.700674" xlink:href="#mdb51646fd7" y="307.584"/>
      </g>
     </g>
     <g id="text_3">
      <!-- 8 -->
      <defs>
       <path d="M 31.78125 34.625 
Q 24.75 34.625 20.71875 30.859375 
Q 16.703125 27.09375 16.703125 20.515625 
Q 16.703125 13.921875 20.71875 10.15625 
Q 24.75 6.390625 31.78125 6.390625 
Q 38.8125 6.390625 42.859375 10.171875 
Q 46.921875 13.96875 46.921875 20.515625 
Q 46.921875 27.09375 42.890625 30.859375 
Q 38.875 34.625 31.78125 34.625 
z
M 21.921875 38.8125 
Q 15.578125 40.375 12.03125 44.71875 
Q 8.5 49.078125 8.5 55.328125 
Q 8.5 64.0625 14.71875 69.140625 
Q 20.953125 74.21875 31.78125 74.21875 
Q 42.671875 74.21875 48.875 69.140625 
Q 55.078125 64.0625 55.078125 55.328125 
Q 55.078125 49.078125 51.53125 44.71875 
Q 48 40.375 41.703125 38.8125 
Q 48.828125 37.15625 52.796875 32.3125 
Q 56.78125 27.484375 56.78125 20.515625 
Q 56.78125 9.90625 50.3125 4.234375 
Q 43.84375 -1.421875 31.78125 -1.421875 
Q 19.734375 -1.421875 13.25 4.234375 
Q 6.78125 9.90625 6.78125 20.515625 
Q 6.78125 27.484375 10.78125 32.3125 
Q 14.796875 37.15625 21.921875 38.8125 
z
M 18.3125 54.390625 
Q 18.3125 48.734375 21.84375 45.5625 
Q 25.390625 42.390625 31.78125 42.390625 
Q 38.140625 42.390625 41.71875 45.5625 
Q 45.3125 48.734375 45.3125 54.390625 
Q 45.3125 60.0625 41.71875 63.234375 
Q 38.140625 66.40625 31.78125 66.40625 
Q 25.390625 66.40625 21.84375 63.234375 
Q 18.3125 60.0625 18.3125 54.390625 
z
" id="DejaVuSans-56"/>
      </defs>
      <g transform="translate(86.519424 322.182437)scale(0.1 -0.1)">
       <use xlink:href="#DejaVuSans-56"/>
      </g>
     </g>
    </g>
    <g id="xtick_4">
     <g id="line2d_7">
      <path clip-path="url(#p4a7dc073f3)" d="M 105.751011 307.584 
L 105.751011 41.472 
" style="fill:none;stroke:#b0b0b0;stroke-dasharray:5.12,1.28,0.8,1.28;stroke-dashoffset:0;stroke-width:0.8;"/>
     </g>
     <g id="line2d_8">
      <g>
       <use style="stroke:#000000;stroke-width:0.8;" x="105.751011" xlink:href="#mdb51646fd7" y="307.584"/>
      </g>
     </g>
     <g id="text_4">
      <!-- 12 -->
      <defs>
       <path d="M 19.1875 8.296875 
L 53.609375 8.296875 
L 53.609375 0 
L 7.328125 0 
L 7.328125 8.296875 
Q 12.9375 14.109375 22.625 23.890625 
Q 32.328125 33.6875 34.8125 36.53125 
Q 39.546875 41.84375 41.421875 45.53125 
Q 43.3125 49.21875 43.3125 52.78125 
Q 43.3125 58.59375 39.234375 62.25 
Q 35.15625 65.921875 28.609375 65.921875 
Q 23.96875 65.921875 18.8125 64.3125 
Q 13.671875 62.703125 7.8125 59.421875 
L 7.8125 69.390625 
Q 13.765625 71.78125 18.9375 73 
Q 24.125 74.21875 28.421875 74.21875 
Q 39.75 74.21875 46.484375 68.546875 
Q 53.21875 62.890625 53.21875 53.421875 
Q 53.21875 48.921875 51.53125 44.890625 
Q 49.859375 40.875 45.40625 35.40625 
Q 44.1875 33.984375 37.640625 27.21875 
Q 31.109375 20.453125 19.1875 8.296875 
z
" id="DejaVuSans-50"/>
      </defs>
      <g transform="translate(99.388511 322.182437)scale(0.1 -0.1)">
       <use xlink:href="#DejaVuSans-49"/>
       <use x="63.623047" xlink:href="#DejaVuSans-50"/>
      </g>
     </g>
    </g>
    <g id="xtick_5">
     <g id="line2d_9">
      <path clip-path="url(#p4a7dc073f3)" d="M 121.801348 307.584 
L 121.801348 41.472 
" style="fill:none;stroke:#b0b0b0;stroke-dasharray:5.12,1.28,0.8,1.28;stroke-dashoffset:0;stroke-width:0.8;"/>
     </g>
     <g id="line2d_10">
      <g>
       <use style="stroke:#000000;stroke-width:0.8;" x="121.801348" xlink:href="#mdb51646fd7" y="307.584"/>
      </g>
     </g>
     <g id="text_5">
      <!-- 16 -->
      <defs>
       <path d="M 33.015625 40.375 
Q 26.375 40.375 22.484375 35.828125 
Q 18.609375 31.296875 18.609375 23.390625 
Q 18.609375 15.53125 22.484375 10.953125 
Q 26.375 6.390625 33.015625 6.390625 
Q 39.65625 6.390625 43.53125 10.953125 
Q 47.40625 15.53125 47.40625 23.390625 
Q 47.40625 31.296875 43.53125 35.828125 
Q 39.65625 40.375 33.015625 40.375 
z
M 52.59375 71.296875 
L 52.59375 62.3125 
Q 48.875 64.0625 45.09375 64.984375 
Q 41.3125 65.921875 37.59375 65.921875 
Q 27.828125 65.921875 22.671875 59.328125 
Q 17.53125 52.734375 16.796875 39.40625 
Q 19.671875 43.65625 24.015625 45.921875 
Q 28.375 48.1875 33.59375 48.1875 
Q 44.578125 48.1875 50.953125 41.515625 
Q 57.328125 34.859375 57.328125 23.390625 
Q 57.328125 12.15625 50.6875 5.359375 
Q 44.046875 -1.421875 33.015625 -1.421875 
Q 20.359375 -1.421875 13.671875 8.265625 
Q 6.984375 17.96875 6.984375 36.375 
Q 6.984375 53.65625 15.1875 63.9375 
Q 23.390625 74.21875 37.203125 74.21875 
Q 40.921875 74.21875 44.703125 73.484375 
Q 48.484375 72.75 52.59375 71.296875 
z
" id="DejaVuSans-54"/>
      </defs>
      <g transform="translate(115.438848 322.182437)scale(0.1 -0.1)">
       <use xlink:href="#DejaVuSans-49"/>
       <use x="63.623047" xlink:href="#DejaVuSans-54"/>
      </g>
     </g>
    </g>
    <g id="xtick_6">
     <g id="line2d_11">
      <path clip-path="url(#p4a7dc073f3)" d="M 137.851685 307.584 
L 137.851685 41.472 
" style="fill:none;stroke:#b0b0b0;stroke-dasharray:5.12,1.28,0.8,1.28;stroke-dashoffset:0;stroke-width:0.8;"/>
     </g>
     <g id="line2d_12">
      <g>
       <use style="stroke:#000000;stroke-width:0.8;" x="137.851685" xlink:href="#mdb51646fd7" y="307.584"/>
      </g>
     </g>
     <g id="text_6">
      <!-- 20 -->
      <defs>
       <path d="M 31.78125 66.40625 
Q 24.171875 66.40625 20.328125 58.90625 
Q 16.5 51.421875 16.5 36.375 
Q 16.5 21.390625 20.328125 13.890625 
Q 24.171875 6.390625 31.78125 6.390625 
Q 39.453125 6.390625 43.28125 13.890625 
Q 47.125 21.390625 47.125 36.375 
Q 47.125 51.421875 43.28125 58.90625 
Q 39.453125 66.40625 31.78125 66.40625 
z
M 31.78125 74.21875 
Q 44.046875 74.21875 50.515625 64.515625 
Q 56.984375 54.828125 56.984375 36.375 
Q 56.984375 17.96875 50.515625 8.265625 
Q 44.046875 -1.421875 31.78125 -1.421875 
Q 19.53125 -1.421875 13.0625 8.265625 
Q 6.59375 17.96875 6.59375 36.375 
Q 6.59375 54.828125 13.0625 64.515625 
Q 19.53125 74.21875 31.78125 74.21875 
z
" id="DejaVuSans-48"/>
      </defs>
      <g transform="translate(131.489185 322.182437)scale(0.1 -0.1)">
       <use xlink:href="#DejaVuSans-50"/>
       <use x="63.623047" xlink:href="#DejaVuSans-48"/>
      </g>
     </g>
    </g>
    <g id="xtick_7">
     <g id="line2d_13">
      <path clip-path="url(#p4a7dc073f3)" d="M 153.902022 307.584 
L 153.902022 41.472 
" style="fill:none;stroke:#b0b0b0;stroke-dasharray:5.12,1.28,0.8,1.28;stroke-dashoffset:0;stroke-width:0.8;"/>
     </g>
     <g id="line2d_14">
      <g>
       <use style="stroke:#000000;stroke-width:0.8;" x="153.902022" xlink:href="#mdb51646fd7" y="307.584"/>
      </g>
     </g>
     <g id="text_7">
      <!-- 24 -->
      <g transform="translate(147.539522 322.182437)scale(0.1 -0.1)">
       <use xlink:href="#DejaVuSans-50"/>
       <use x="63.623047" xlink:href="#DejaVuSans-52"/>
      </g>
     </g>
    </g>
    <g id="xtick_8">
     <g id="line2d_15">
      <path clip-path="url(#p4a7dc073f3)" d="M 169.95236 307.584 
L 169.95236 41.472 
" style="fill:none;stroke:#b0b0b0;stroke-dasharray:5.12,1.28,0.8,1.28;stroke-dashoffset:0;stroke-width:0.8;"/>
     </g>
     <g id="line2d_16">
      <g>
       <use style="stroke:#000000;stroke-width:0.8;" x="169.95236" xlink:href="#mdb51646fd7" y="307.584"/>
      </g>
     </g>
     <g id="text_8">
      <!-- 28 -->
      <g transform="translate(163.58986 322.182437)scale(0.1 -0.1)">
       <use xlink:href="#DejaVuSans-50"/>
       <use x="63.623047" xlink:href="#DejaVuSans-56"/>
      </g>
     </g>
    </g>
    <g id="xtick_9">
     <g id="line2d_17">
      <path clip-path="url(#p4a7dc073f3)" d="M 186.002697 307.584 
L 186.002697 41.472 
" style="fill:none;stroke:#b0b0b0;stroke-dasharray:5.12,1.28,0.8,1.28;stroke-dashoffset:0;stroke-width:0.8;"/>
     </g>
     <g id="line2d_18">
      <g>
       <use style="stroke:#000000;stroke-width:0.8;" x="186.002697" xlink:href="#mdb51646fd7" y="307.584"/>
      </g>
     </g>
     <g id="text_9">
      <!-- 32 -->
      <defs>
       <path d="M 40.578125 39.3125 
Q 47.65625 37.796875 51.625 33 
Q 55.609375 28.21875 55.609375 21.1875 
Q 55.609375 10.40625 48.1875 4.484375 
Q 40.765625 -1.421875 27.09375 -1.421875 
Q 22.515625 -1.421875 17.65625 -0.515625 
Q 12.796875 0.390625 7.625 2.203125 
L 7.625 11.71875 
Q 11.71875 9.328125 16.59375 8.109375 
Q 21.484375 6.890625 26.8125 6.890625 
Q 36.078125 6.890625 40.9375 10.546875 
Q 45.796875 14.203125 45.796875 21.1875 
Q 45.796875 27.640625 41.28125 31.265625 
Q 36.765625 34.90625 28.71875 34.90625 
L 20.21875 34.90625 
L 20.21875 43.015625 
L 29.109375 43.015625 
Q 36.375 43.015625 40.234375 45.921875 
Q 44.09375 48.828125 44.09375 54.296875 
Q 44.09375 59.90625 40.109375 62.90625 
Q 36.140625 65.921875 28.71875 65.921875 
Q 24.65625 65.921875 20.015625 65.03125 
Q 15.375 64.15625 9.8125 62.3125 
L 9.8125 71.09375 
Q 15.4375 72.65625 20.34375 73.4375 
Q 25.25 74.21875 29.59375 74.21875 
Q 40.828125 74.21875 47.359375 69.109375 
Q 53.90625 64.015625 53.90625 55.328125 
Q 53.90625 49.265625 50.4375 45.09375 
Q 46.96875 40.921875 40.578125 39.3125 
z
" id="DejaVuSans-51"/>
      </defs>
      <g transform="translate(179.640197 322.182437)scale(0.1 -0.1)">
       <use xlink:href="#DejaVuSans-51"/>
       <use x="63.623047" xlink:href="#DejaVuSans-50"/>
      </g>
     </g>
    </g>
    <g id="xtick_10">
     <g id="line2d_19">
      <path clip-path="url(#p4a7dc073f3)" d="M 202.053034 307.584 
L 202.053034 41.472 
" style="fill:none;stroke:#b0b0b0;stroke-dasharray:5.12,1.28,0.8,1.28;stroke-dashoffset:0;stroke-width:0.8;"/>
     </g>
     <g id="line2d_20">
      <g>
       <use style="stroke:#000000;stroke-width:0.8;" x="202.053034" xlink:href="#mdb51646fd7" y="307.584"/>
      </g>
     </g>
     <g id="text_10">
      <!-- 36 -->
      <g transform="translate(195.690534 322.182437)scale(0.1 -0.1)">
       <use xlink:href="#DejaVuSans-51"/>
       <use x="63.623047" xlink:href="#DejaVuSans-54"/>
      </g>
     </g>
    </g>
    <g id="xtick_11">
     <g id="line2d_21">
      <path clip-path="url(#p4a7dc073f3)" d="M 218.103371 307.584 
L 218.103371 41.472 
" style="fill:none;stroke:#b0b0b0;stroke-dasharray:5.12,1.28,0.8,1.28;stroke-dashoffset:0;stroke-width:0.8;"/>
     </g>
     <g id="line2d_22">
      <g>
       <use style="stroke:#000000;stroke-width:0.8;" x="218.103371" xlink:href="#mdb51646fd7" y="307.584"/>
      </g>
     </g>
     <g id="text_11">
      <!-- 40 -->
      <g transform="translate(211.740871 322.182437)scale(0.1 -0.1)">
       <use xlink:href="#DejaVuSans-52"/>
       <use x="63.623047" xlink:href="#DejaVuSans-48"/>
      </g>
     </g>
    </g>
    <g id="xtick_12">
     <g id="line2d_23">
      <path clip-path="url(#p4a7dc073f3)" d="M 234.153708 307.584 
L 234.153708 41.472 
" style="fill:none;stroke:#b0b0b0;stroke-dasharray:5.12,1.28,0.8,1.28;stroke-dashoffset:0;stroke-width:0.8;"/>
     </g>
     <g id="line2d_24">
      <g>
       <use style="stroke:#000000;stroke-width:0.8;" x="234.153708" xlink:href="#mdb51646fd7" y="307.584"/>
      </g>
     </g>
     <g id="text_12">
      <!-- 44 -->
      <g transform="translate(227.791208 322.182437)scale(0.1 -0.1)">
       <use xlink:href="#DejaVuSans-52"/>
       <use x="63.623047" xlink:href="#DejaVuSans-52"/>
      </g>
     </g>
    </g>
    <g id="xtick_13">
     <g id="line2d_25">
      <path clip-path="url(#p4a7dc073f3)" d="M 250.204045 307.584 
L 250.204045 41.472 
" style="fill:none;stroke:#b0b0b0;stroke-dasharray:5.12,1.28,0.8,1.28;stroke-dashoffset:0;stroke-width:0.8;"/>
     </g>
     <g id="line2d_26">
      <g>
       <use style="stroke:#000000;stroke-width:0.8;" x="250.204045" xlink:href="#mdb51646fd7" y="307.584"/>
      </g>
     </g>
     <g id="text_13">
      <!-- 48 -->
      <g transform="translate(243.841545 322.182437)scale(0.1 -0.1)">
       <use xlink:href="#DejaVuSans-52"/>
       <use x="63.623047" xlink:href="#DejaVuSans-56"/>
      </g>
     </g>
    </g>
    <g id="xtick_14">
     <g id="line2d_27">
      <path clip-path="url(#p4a7dc073f3)" d="M 266.254382 307.584 
L 266.254382 41.472 
" style="fill:none;stroke:#b0b0b0;stroke-dasharray:5.12,1.28,0.8,1.28;stroke-dashoffset:0;stroke-width:0.8;"/>
     </g>
     <g id="line2d_28">
      <g>
       <use style="stroke:#000000;stroke-width:0.8;" x="266.254382" xlink:href="#mdb51646fd7" y="307.584"/>
      </g>
     </g>
     <g id="text_14">
      <!-- 52 -->
      <defs>
       <path d="M 10.796875 72.90625 
L 49.515625 72.90625 
L 49.515625 64.59375 
L 19.828125 64.59375 
L 19.828125 46.734375 
Q 21.96875 47.46875 24.109375 47.828125 
Q 26.265625 48.1875 28.421875 48.1875 
Q 40.625 48.1875 47.75 41.5 
Q 54.890625 34.8125 54.890625 23.390625 
Q 54.890625 11.625 47.5625 5.09375 
Q 40.234375 -1.421875 26.90625 -1.421875 
Q 22.3125 -1.421875 17.546875 -0.640625 
Q 12.796875 0.140625 7.71875 1.703125 
L 7.71875 11.625 
Q 12.109375 9.234375 16.796875 8.0625 
Q 21.484375 6.890625 26.703125 6.890625 
Q 35.15625 6.890625 40.078125 11.328125 
Q 45.015625 15.765625 45.015625 23.390625 
Q 45.015625 31 40.078125 35.4375 
Q 35.15625 39.890625 26.703125 39.890625 
Q 22.75 39.890625 18.8125 39.015625 
Q 14.890625 38.140625 10.796875 36.28125 
z
" id="DejaVuSans-53"/>
      </defs>
      <g transform="translate(259.891882 322.182437)scale(0.1 -0.1)">
       <use xlink:href="#DejaVuSans-53"/>
       <use x="63.623047" xlink:href="#DejaVuSans-50"/>
      </g>
     </g>
    </g>
    <g id="xtick_15">
     <g id="line2d_29">
      <path clip-path="url(#p4a7dc073f3)" d="M 282.304719 307.584 
L 282.304719 41.472 
" style="fill:none;stroke:#b0b0b0;stroke-dasharray:5.12,1.28,0.8,1.28;stroke-dashoffset:0;stroke-width:0.8;"/>
     </g>
     <g id="line2d_30">
      <g>
       <use style="stroke:#000000;stroke-width:0.8;" x="282.304719" xlink:href="#mdb51646fd7" y="307.584"/>
      </g>
     </g>
     <g id="text_15">
      <!-- 56 -->
      <g transform="translate(275.942219 322.182437)scale(0.1 -0.1)">
       <use xlink:href="#DejaVuSans-53"/>
       <use x="63.623047" xlink:href="#DejaVuSans-54"/>
      </g>
     </g>
    </g>
    <g id="xtick_16">
     <g id="line2d_31">
      <path clip-path="url(#p4a7dc073f3)" d="M 298.355056 307.584 
L 298.355056 41.472 
" style="fill:none;stroke:#b0b0b0;stroke-dasharray:5.12,1.28,0.8,1.28;stroke-dashoffset:0;stroke-width:0.8;"/>
     </g>
     <g id="line2d_32">
      <g>
       <use style="stroke:#000000;stroke-width:0.8;" x="298.355056" xlink:href="#mdb51646fd7" y="307.584"/>
      </g>
     </g>
     <g id="text_16">
      <!-- 60 -->
      <g transform="translate(291.992556 322.182437)scale(0.1 -0.1)">
       <use xlink:href="#DejaVuSans-54"/>
       <use x="63.623047" xlink:href="#DejaVuSans-48"/>
      </g>
     </g>
    </g>
    <g id="xtick_17">
     <g id="line2d_33">
      <path clip-path="url(#p4a7dc073f3)" d="M 314.405393 307.584 
L 314.405393 41.472 
" style="fill:none;stroke:#b0b0b0;stroke-dasharray:5.12,1.28,0.8,1.28;stroke-dashoffset:0;stroke-width:0.8;"/>
     </g>
     <g id="line2d_34">
      <g>
       <use style="stroke:#000000;stroke-width:0.8;" x="314.405393" xlink:href="#mdb51646fd7" y="307.584"/>
      </g>
     </g>
     <g id="text_17">
      <!-- 64 -->
      <g transform="translate(308.042893 322.182437)scale(0.1 -0.1)">
       <use xlink:href="#DejaVuSans-54"/>
       <use x="63.623047" xlink:href="#DejaVuSans-52"/>
      </g>
     </g>
    </g>
    <g id="xtick_18">
     <g id="line2d_35">
      <path clip-path="url(#p4a7dc073f3)" d="M 330.45573 307.584 
L 330.45573 41.472 
" style="fill:none;stroke:#b0b0b0;stroke-dasharray:5.12,1.28,0.8,1.28;stroke-dashoffset:0;stroke-width:0.8;"/>
     </g>
     <g id="line2d_36">
      <g>
       <use style="stroke:#000000;stroke-width:0.8;" x="330.45573" xlink:href="#mdb51646fd7" y="307.584"/>
      </g>
     </g>
     <g id="text_18">
      <!-- 68 -->
      <g transform="translate(324.09323 322.182437)scale(0.1 -0.1)">
       <use xlink:href="#DejaVuSans-54"/>
       <use x="63.623047" xlink:href="#DejaVuSans-56"/>
      </g>
     </g>
    </g>
    <g id="xtick_19">
     <g id="line2d_37">
      <path clip-path="url(#p4a7dc073f3)" d="M 346.506067 307.584 
L 346.506067 41.472 
" style="fill:none;stroke:#b0b0b0;stroke-dasharray:5.12,1.28,0.8,1.28;stroke-dashoffset:0;stroke-width:0.8;"/>
     </g>
     <g id="line2d_38">
      <g>
       <use style="stroke:#000000;stroke-width:0.8;" x="346.506067" xlink:href="#mdb51646fd7" y="307.584"/>
      </g>
     </g>
     <g id="text_19">
      <!-- 72 -->
      <defs>
       <path d="M 8.203125 72.90625 
L 55.078125 72.90625 
L 55.078125 68.703125 
L 28.609375 0 
L 18.3125 0 
L 43.21875 64.59375 
L 8.203125 64.59375 
z
" id="DejaVuSans-55"/>
      </defs>
      <g transform="translate(340.143567 322.182437)scale(0.1 -0.1)">
       <use xlink:href="#DejaVuSans-55"/>
       <use x="63.623047" xlink:href="#DejaVuSans-50"/>
      </g>
     </g>
    </g>
    <g id="xtick_20">
     <g id="line2d_39">
      <path clip-path="url(#p4a7dc073f3)" d="M 362.556404 307.584 
L 362.556404 41.472 
" style="fill:none;stroke:#b0b0b0;stroke-dasharray:5.12,1.28,0.8,1.28;stroke-dashoffset:0;stroke-width:0.8;"/>
     </g>
     <g id="line2d_40">
      <g>
       <use style="stroke:#000000;stroke-width:0.8;" x="362.556404" xlink:href="#mdb51646fd7" y="307.584"/>
      </g>
     </g>
     <g id="text_20">
      <!-- 76 -->
      <g transform="translate(356.193904 322.182437)scale(0.1 -0.1)">
       <use xlink:href="#DejaVuSans-55"/>
       <use x="63.623047" xlink:href="#DejaVuSans-54"/>
      </g>
     </g>
    </g>
    <g id="xtick_21">
     <g id="line2d_41">
      <path clip-path="url(#p4a7dc073f3)" d="M 378.606742 307.584 
L 378.606742 41.472 
" style="fill:none;stroke:#b0b0b0;stroke-dasharray:5.12,1.28,0.8,1.28;stroke-dashoffset:0;stroke-width:0.8;"/>
     </g>
     <g id="line2d_42">
      <g>
       <use style="stroke:#000000;stroke-width:0.8;" x="378.606742" xlink:href="#mdb51646fd7" y="307.584"/>
      </g>
     </g>
     <g id="text_21">
      <!-- 80 -->
      <g transform="translate(372.244242 322.182437)scale(0.1 -0.1)">
       <use xlink:href="#DejaVuSans-56"/>
       <use x="63.623047" xlink:href="#DejaVuSans-48"/>
      </g>
     </g>
    </g>
    <g id="xtick_22">
     <g id="line2d_43">
      <path clip-path="url(#p4a7dc073f3)" d="M 394.657079 307.584 
L 394.657079 41.472 
" style="fill:none;stroke:#b0b0b0;stroke-dasharray:5.12,1.28,0.8,1.28;stroke-dashoffset:0;stroke-width:0.8;"/>
     </g>
     <g id="line2d_44">
      <g>
       <use style="stroke:#000000;stroke-width:0.8;" x="394.657079" xlink:href="#mdb51646fd7" y="307.584"/>
      </g>
     </g>
     <g id="text_22">
      <!-- 84 -->
      <g transform="translate(388.294579 322.182437)scale(0.1 -0.1)">
       <use xlink:href="#DejaVuSans-56"/>
       <use x="63.623047" xlink:href="#DejaVuSans-52"/>
      </g>
     </g>
    </g>
    <g id="xtick_23">
     <g id="line2d_45">
      <path clip-path="url(#p4a7dc073f3)" d="M 410.707416 307.584 
L 410.707416 41.472 
" style="fill:none;stroke:#b0b0b0;stroke-dasharray:5.12,1.28,0.8,1.28;stroke-dashoffset:0;stroke-width:0.8;"/>
     </g>
     <g id="line2d_46">
      <g>
       <use style="stroke:#000000;stroke-width:0.8;" x="410.707416" xlink:href="#mdb51646fd7" y="307.584"/>
      </g>
     </g>
     <g id="text_23">
      <!-- 88 -->
      <g transform="translate(404.344916 322.182437)scale(0.1 -0.1)">
       <use xlink:href="#DejaVuSans-56"/>
       <use x="63.623047" xlink:href="#DejaVuSans-56"/>
      </g>
     </g>
    </g>
    <g id="text_24">
     <!-- threads -->
     <defs>
      <path d="M 18.3125 70.21875 
L 18.3125 54.6875 
L 36.8125 54.6875 
L 36.8125 47.703125 
L 18.3125 47.703125 
L 18.3125 18.015625 
Q 18.3125 11.328125 20.140625 9.421875 
Q 21.96875 7.515625 27.59375 7.515625 
L 36.8125 7.515625 
L 36.8125 0 
L 27.59375 0 
Q 17.1875 0 13.234375 3.875 
Q 9.28125 7.765625 9.28125 18.015625 
L 9.28125 47.703125 
L 2.6875 47.703125 
L 2.6875 54.6875 
L 9.28125 54.6875 
L 9.28125 70.21875 
z
" id="DejaVuSans-116"/>
      <path d="M 54.890625 33.015625 
L 54.890625 0 
L 45.90625 0 
L 45.90625 32.71875 
Q 45.90625 40.484375 42.875 44.328125 
Q 39.84375 48.1875 33.796875 48.1875 
Q 26.515625 48.1875 22.3125 43.546875 
Q 18.109375 38.921875 18.109375 30.90625 
L 18.109375 0 
L 9.078125 0 
L 9.078125 75.984375 
L 18.109375 75.984375 
L 18.109375 46.1875 
Q 21.34375 51.125 25.703125 53.5625 
Q 30.078125 56 35.796875 56 
Q 45.21875 56 50.046875 50.171875 
Q 54.890625 44.34375 54.890625 33.015625 
z
" id="DejaVuSans-104"/>
      <path d="M 41.109375 46.296875 
Q 39.59375 47.171875 37.8125 47.578125 
Q 36.03125 48 33.890625 48 
Q 26.265625 48 22.1875 43.046875 
Q 18.109375 38.09375 18.109375 28.8125 
L 18.109375 0 
L 9.078125 0 
L 9.078125 54.6875 
L 18.109375 54.6875 
L 18.109375 46.1875 
Q 20.953125 51.171875 25.484375 53.578125 
Q 30.03125 56 36.53125 56 
Q 37.453125 56 38.578125 55.875 
Q 39.703125 55.765625 41.0625 55.515625 
z
" id="DejaVuSans-114"/>
      <path d="M 56.203125 29.59375 
L 56.203125 25.203125 
L 14.890625 25.203125 
Q 15.484375 15.921875 20.484375 11.0625 
Q 25.484375 6.203125 34.421875 6.203125 
Q 39.59375 6.203125 44.453125 7.46875 
Q 49.3125 8.734375 54.109375 11.28125 
L 54.109375 2.78125 
Q 49.265625 0.734375 44.1875 -0.34375 
Q 39.109375 -1.421875 33.890625 -1.421875 
Q 20.796875 -1.421875 13.15625 6.1875 
Q 5.515625 13.8125 5.515625 26.8125 
Q 5.515625 40.234375 12.765625 48.109375 
Q 20.015625 56 32.328125 56 
Q 43.359375 56 49.78125 48.890625 
Q 56.203125 41.796875 56.203125 29.59375 
z
M 47.21875 32.234375 
Q 47.125 39.59375 43.09375 43.984375 
Q 39.0625 48.390625 32.421875 48.390625 
Q 24.90625 48.390625 20.390625 44.140625 
Q 15.875 39.890625 15.1875 32.171875 
z
" id="DejaVuSans-101"/>
      <path d="M 34.28125 27.484375 
Q 23.390625 27.484375 19.1875 25 
Q 14.984375 22.515625 14.984375 16.5 
Q 14.984375 11.71875 18.140625 8.90625 
Q 21.296875 6.109375 26.703125 6.109375 
Q 34.1875 6.109375 38.703125 11.40625 
Q 43.21875 16.703125 43.21875 25.484375 
L 43.21875 27.484375 
z
M 52.203125 31.203125 
L 52.203125 0 
L 43.21875 0 
L 43.21875 8.296875 
Q 40.140625 3.328125 35.546875 0.953125 
Q 30.953125 -1.421875 24.3125 -1.421875 
Q 15.921875 -1.421875 10.953125 3.296875 
Q 6 8.015625 6 15.921875 
Q 6 25.140625 12.171875 29.828125 
Q 18.359375 34.515625 30.609375 34.515625 
L 43.21875 34.515625 
L 43.21875 35.40625 
Q 43.21875 41.609375 39.140625 45 
Q 35.0625 48.390625 27.6875 48.390625 
Q 23 48.390625 18.546875 47.265625 
Q 14.109375 46.140625 10.015625 43.890625 
L 10.015625 52.203125 
Q 14.9375 54.109375 19.578125 55.046875 
Q 24.21875 56 28.609375 56 
Q 40.484375 56 46.34375 49.84375 
Q 52.203125 43.703125 52.203125 31.203125 
z
" id="DejaVuSans-97"/>
      <path d="M 45.40625 46.390625 
L 45.40625 75.984375 
L 54.390625 75.984375 
L 54.390625 0 
L 45.40625 0 
L 45.40625 8.203125 
Q 42.578125 3.328125 38.25 0.953125 
Q 33.9375 -1.421875 27.875 -1.421875 
Q 17.96875 -1.421875 11.734375 6.484375 
Q 5.515625 14.40625 5.515625 27.296875 
Q 5.515625 40.1875 11.734375 48.09375 
Q 17.96875 56 27.875 56 
Q 33.9375 56 38.25 53.625 
Q 42.578125 51.265625 45.40625 46.390625 
z
M 14.796875 27.296875 
Q 14.796875 17.390625 18.875 11.75 
Q 22.953125 6.109375 30.078125 6.109375 
Q 37.203125 6.109375 41.296875 11.75 
Q 45.40625 17.390625 45.40625 27.296875 
Q 45.40625 37.203125 41.296875 42.84375 
Q 37.203125 48.484375 30.078125 48.484375 
Q 22.953125 48.484375 18.875 42.84375 
Q 14.796875 37.203125 14.796875 27.296875 
z
" id="DejaVuSans-100"/>
      <path d="M 44.28125 53.078125 
L 44.28125 44.578125 
Q 40.484375 46.53125 36.375 47.5 
Q 32.28125 48.484375 27.875 48.484375 
Q 21.1875 48.484375 17.84375 46.4375 
Q 14.5 44.390625 14.5 40.28125 
Q 14.5 37.15625 16.890625 35.375 
Q 19.28125 33.59375 26.515625 31.984375 
L 29.59375 31.296875 
Q 39.15625 29.25 43.1875 25.515625 
Q 47.21875 21.78125 47.21875 15.09375 
Q 47.21875 7.46875 41.1875 3.015625 
Q 35.15625 -1.421875 24.609375 -1.421875 
Q 20.21875 -1.421875 15.453125 -0.5625 
Q 10.6875 0.296875 5.421875 2 
L 5.421875 11.28125 
Q 10.40625 8.6875 15.234375 7.390625 
Q 20.0625 6.109375 24.8125 6.109375 
Q 31.15625 6.109375 34.5625 8.28125 
Q 37.984375 10.453125 37.984375 14.40625 
Q 37.984375 18.0625 35.515625 20.015625 
Q 33.0625 21.96875 24.703125 23.78125 
L 21.578125 24.515625 
Q 13.234375 26.265625 9.515625 29.90625 
Q 5.8125 33.546875 5.8125 39.890625 
Q 5.8125 47.609375 11.28125 51.796875 
Q 16.75 56 26.8125 56 
Q 31.78125 56 36.171875 55.265625 
Q 40.578125 54.546875 44.28125 53.078125 
z
" id="DejaVuSans-115"/>
     </defs>
     <g transform="translate(217.168594 335.860562)scale(0.1 -0.1)">
      <use xlink:href="#DejaVuSans-116"/>
      <use x="39.208984" xlink:href="#DejaVuSans-104"/>
      <use x="102.587891" xlink:href="#DejaVuSans-114"/>
      <use x="141.451172" xlink:href="#DejaVuSans-101"/>
      <use x="202.974609" xlink:href="#DejaVuSans-97"/>
      <use x="264.253906" xlink:href="#DejaVuSans-100"/>
      <use x="327.730469" xlink:href="#DejaVuSans-115"/>
     </g>
    </g>
   </g>
   <g id="matplotlib.axis_2">
    <g id="ytick_1">
     <g id="line2d_47">
      <path clip-path="url(#p4a7dc073f3)" d="M 57.6 296.432693 
L 414.72 296.432693 
" style="fill:none;stroke:#b0b0b0;stroke-dasharray:5.12,1.28,0.8,1.28;stroke-dashoffset:0;stroke-width:0.8;"/>
     </g>
     <g id="line2d_48">
      <defs>
       <path d="M 0 0 
L -3.5 0 
" id="mf6bc37aa85" style="stroke:#000000;stroke-width:0.8;"/>
      </defs>
      <g>
       <use style="stroke:#000000;stroke-width:0.8;" x="57.6" xlink:href="#mf6bc37aa85" y="296.432693"/>
      </g>
     </g>
     <g id="text_25">
      <!-- 0 -->
      <g transform="translate(44.2375 300.231912)scale(0.1 -0.1)">
       <use xlink:href="#DejaVuSans-48"/>
      </g>
     </g>
    </g>
    <g id="ytick_2">
     <g id="line2d_49">
      <path clip-path="url(#p4a7dc073f3)" d="M 57.6 264.037193 
L 414.72 264.037193 
" style="fill:none;stroke:#b0b0b0;stroke-dasharray:5.12,1.28,0.8,1.28;stroke-dashoffset:0;stroke-width:0.8;"/>
     </g>
     <g id="line2d_50">
      <g>
       <use style="stroke:#000000;stroke-width:0.8;" x="57.6" xlink:href="#mf6bc37aa85" y="264.037193"/>
      </g>
     </g>
     <g id="text_26">
      <!-- 50 -->
      <g transform="translate(37.875 267.836412)scale(0.1 -0.1)">
       <use xlink:href="#DejaVuSans-53"/>
       <use x="63.623047" xlink:href="#DejaVuSans-48"/>
      </g>
     </g>
    </g>
    <g id="ytick_3">
     <g id="line2d_51">
      <path clip-path="url(#p4a7dc073f3)" d="M 57.6 231.641694 
L 414.72 231.641694 
" style="fill:none;stroke:#b0b0b0;stroke-dasharray:5.12,1.28,0.8,1.28;stroke-dashoffset:0;stroke-width:0.8;"/>
     </g>
     <g id="line2d_52">
      <g>
       <use style="stroke:#000000;stroke-width:0.8;" x="57.6" xlink:href="#mf6bc37aa85" y="231.641694"/>
      </g>
     </g>
     <g id="text_27">
      <!-- 100 -->
      <g transform="translate(31.5125 235.440913)scale(0.1 -0.1)">
       <use xlink:href="#DejaVuSans-49"/>
       <use x="63.623047" xlink:href="#DejaVuSans-48"/>
       <use x="127.246094" xlink:href="#DejaVuSans-48"/>
      </g>
     </g>
    </g>
    <g id="ytick_4">
     <g id="line2d_53">
      <path clip-path="url(#p4a7dc073f3)" d="M 57.6 199.246195 
L 414.72 199.246195 
" style="fill:none;stroke:#b0b0b0;stroke-dasharray:5.12,1.28,0.8,1.28;stroke-dashoffset:0;stroke-width:0.8;"/>
     </g>
     <g id="line2d_54">
      <g>
       <use style="stroke:#000000;stroke-width:0.8;" x="57.6" xlink:href="#mf6bc37aa85" y="199.246195"/>
      </g>
     </g>
     <g id="text_28">
      <!-- 150 -->
      <g transform="translate(31.5125 203.045414)scale(0.1 -0.1)">
       <use xlink:href="#DejaVuSans-49"/>
       <use x="63.623047" xlink:href="#DejaVuSans-53"/>
       <use x="127.246094" xlink:href="#DejaVuSans-48"/>
      </g>
     </g>
    </g>
    <g id="ytick_5">
     <g id="line2d_55">
      <path clip-path="url(#p4a7dc073f3)" d="M 57.6 166.850695 
L 414.72 166.850695 
" style="fill:none;stroke:#b0b0b0;stroke-dasharray:5.12,1.28,0.8,1.28;stroke-dashoffset:0;stroke-width:0.8;"/>
     </g>
     <g id="line2d_56">
      <g>
       <use style="stroke:#000000;stroke-width:0.8;" x="57.6" xlink:href="#mf6bc37aa85" y="166.850695"/>
      </g>
     </g>
     <g id="text_29">
      <!-- 200 -->
      <g transform="translate(31.5125 170.649914)scale(0.1 -0.1)">
       <use xlink:href="#DejaVuSans-50"/>
       <use x="63.623047" xlink:href="#DejaVuSans-48"/>
       <use x="127.246094" xlink:href="#DejaVuSans-48"/>
      </g>
     </g>
    </g>
    <g id="ytick_6">
     <g id="line2d_57">
      <path clip-path="url(#p4a7dc073f3)" d="M 57.6 134.455196 
L 414.72 134.455196 
" style="fill:none;stroke:#b0b0b0;stroke-dasharray:5.12,1.28,0.8,1.28;stroke-dashoffset:0;stroke-width:0.8;"/>
     </g>
     <g id="line2d_58">
      <g>
       <use style="stroke:#000000;stroke-width:0.8;" x="57.6" xlink:href="#mf6bc37aa85" y="134.455196"/>
      </g>
     </g>
     <g id="text_30">
      <!-- 250 -->
      <g transform="translate(31.5125 138.254415)scale(0.1 -0.1)">
       <use xlink:href="#DejaVuSans-50"/>
       <use x="63.623047" xlink:href="#DejaVuSans-53"/>
       <use x="127.246094" xlink:href="#DejaVuSans-48"/>
      </g>
     </g>
    </g>
    <g id="ytick_7">
     <g id="line2d_59">
      <path clip-path="url(#p4a7dc073f3)" d="M 57.6 102.059697 
L 414.72 102.059697 
" style="fill:none;stroke:#b0b0b0;stroke-dasharray:5.12,1.28,0.8,1.28;stroke-dashoffset:0;stroke-width:0.8;"/>
     </g>
     <g id="line2d_60">
      <g>
       <use style="stroke:#000000;stroke-width:0.8;" x="57.6" xlink:href="#mf6bc37aa85" y="102.059697"/>
      </g>
     </g>
     <g id="text_31">
      <!-- 300 -->
      <g transform="translate(31.5125 105.858916)scale(0.1 -0.1)">
       <use xlink:href="#DejaVuSans-51"/>
       <use x="63.623047" xlink:href="#DejaVuSans-48"/>
       <use x="127.246094" xlink:href="#DejaVuSans-48"/>
      </g>
     </g>
    </g>
    <g id="ytick_8">
     <g id="line2d_61">
      <path clip-path="url(#p4a7dc073f3)" d="M 57.6 69.664198 
L 414.72 69.664198 
" style="fill:none;stroke:#b0b0b0;stroke-dasharray:5.12,1.28,0.8,1.28;stroke-dashoffset:0;stroke-width:0.8;"/>
     </g>
     <g id="line2d_62">
      <g>
       <use style="stroke:#000000;stroke-width:0.8;" x="57.6" xlink:href="#mf6bc37aa85" y="69.664198"/>
      </g>
     </g>
     <g id="text_32">
      <!-- 350 -->
      <g transform="translate(31.5125 73.463416)scale(0.1 -0.1)">
       <use xlink:href="#DejaVuSans-51"/>
       <use x="63.623047" xlink:href="#DejaVuSans-53"/>
       <use x="127.246094" xlink:href="#DejaVuSans-48"/>
      </g>
     </g>
    </g>
    <g id="text_33">
     <!-- speed up -->
     <defs>
      <path d="M 18.109375 8.203125 
L 18.109375 -20.796875 
L 9.078125 -20.796875 
L 9.078125 54.6875 
L 18.109375 54.6875 
L 18.109375 46.390625 
Q 20.953125 51.265625 25.265625 53.625 
Q 29.59375 56 35.59375 56 
Q 45.5625 56 51.78125 48.09375 
Q 58.015625 40.1875 58.015625 27.296875 
Q 58.015625 14.40625 51.78125 6.484375 
Q 45.5625 -1.421875 35.59375 -1.421875 
Q 29.59375 -1.421875 25.265625 0.953125 
Q 20.953125 3.328125 18.109375 8.203125 
z
M 48.6875 27.296875 
Q 48.6875 37.203125 44.609375 42.84375 
Q 40.53125 48.484375 33.40625 48.484375 
Q 26.265625 48.484375 22.1875 42.84375 
Q 18.109375 37.203125 18.109375 27.296875 
Q 18.109375 17.390625 22.1875 11.75 
Q 26.265625 6.109375 33.40625 6.109375 
Q 40.53125 6.109375 44.609375 11.75 
Q 48.6875 17.390625 48.6875 27.296875 
z
" id="DejaVuSans-112"/>
      <path id="DejaVuSans-32"/>
      <path d="M 8.5 21.578125 
L 8.5 54.6875 
L 17.484375 54.6875 
L 17.484375 21.921875 
Q 17.484375 14.15625 20.5 10.265625 
Q 23.53125 6.390625 29.59375 6.390625 
Q 36.859375 6.390625 41.078125 11.03125 
Q 45.3125 15.671875 45.3125 23.6875 
L 45.3125 54.6875 
L 54.296875 54.6875 
L 54.296875 0 
L 45.3125 0 
L 45.3125 8.40625 
Q 42.046875 3.421875 37.71875 1 
Q 33.40625 -1.421875 27.6875 -1.421875 
Q 18.265625 -1.421875 13.375 4.4375 
Q 8.5 10.296875 8.5 21.578125 
z
M 31.109375 56 
z
" id="DejaVuSans-117"/>
     </defs>
     <g transform="translate(25.432812 197.566281)rotate(-90)scale(0.1 -0.1)">
      <use xlink:href="#DejaVuSans-115"/>
      <use x="52.099609" xlink:href="#DejaVuSans-112"/>
      <use x="115.576172" xlink:href="#DejaVuSans-101"/>
      <use x="177.099609" xlink:href="#DejaVuSans-101"/>
      <use x="238.623047" xlink:href="#DejaVuSans-100"/>
      <use x="302.099609" xlink:href="#DejaVuSans-32"/>
      <use x="333.886719" xlink:href="#DejaVuSans-117"/>
      <use x="397.265625" xlink:href="#DejaVuSans-112"/>
     </g>
    </g>
   </g>
   <g id="line2d_63">
    <path clip-path="url(#p4a7dc073f3)" d="M 61.612584 53.568 
L 65.625169 251.43558 
L 69.637753 210.9281 
L 73.650337 223.908849 
L 77.662921 223.391633 
L 81.675506 230.995097 
L 85.68809 232.712958 
L 89.700674 230.481216 
L 93.713258 244.482544 
L 97.725843 240.792961 
L 101.738427 240.503943 
L 105.751011 243.090079 
L 109.763596 247.048587 
L 113.77618 247.503183 
L 117.788764 246.425184 
L 121.801348 249.054485 
L 125.813933 249.583083 
L 129.826517 250.630658 
L 133.839101 253.151611 
L 137.851685 254.35302 
L 141.86427 254.416177 
L 145.876854 255.947439 
L 149.889438 259.816626 
L 153.902022 258.537823 
L 157.914607 260.289376 
L 161.927191 265.984353 
L 165.939775 262.909377 
L 169.95236 265.158912 
L 173.964944 264.705224 
L 177.977528 265.065467 
L 181.990112 265.281873 
L 186.002697 266.492368 
L 190.015281 264.548634 
L 194.027865 268.488788 
L 198.040449 268.514798 
L 202.053034 269.449461 
L 206.065618 270.321944 
L 210.078202 271.103156 
L 214.090787 270.5712 
L 218.103371 272.656403 
L 222.115955 271.713022 
L 226.128539 273.203559 
L 230.141124 274.368006 
L 234.153708 275.66137 
L 238.166292 274.28538 
L 242.178876 275.732025 
L 246.191461 275.615031 
L 250.204045 276.372833 
L 254.216629 277.994427 
L 258.229213 276.590844 
L 262.241798 277.337924 
L 266.254382 277.775695 
L 270.266966 277.45014 
L 274.279551 278.038849 
L 278.292135 278.193842 
L 282.304719 278.271149 
L 286.317303 278.806321 
L 290.329888 282.680382 
L 294.342472 279.719735 
L 298.355056 278.991546 
L 302.36764 280.17023 
L 306.380225 280.431128 
L 310.392809 283.567709 
L 314.405393 280.708557 
L 318.417978 280.97596 
L 322.430562 281.198581 
L 326.443146 281.585332 
L 330.45573 286.485682 
L 334.468315 280.074568 
L 338.480899 283.132099 
L 342.493483 282.124141 
L 346.506067 283.433094 
L 350.518652 282.294682 
L 354.531236 282.457951 
L 358.54382 284.020613 
L 362.556404 281.526301 
L 366.568989 281.302327 
L 370.581573 281.508288 
L 374.594157 281.7832 
L 378.606742 282.335028 
L 382.619326 282.393473 
L 386.63191 282.765872 
L 390.644494 282.822572 
L 394.657079 282.935005 
L 398.669663 283.026363 
L 402.682247 284.321679 
L 406.694831 290.724793 
L 410.707416 287.932945 
" style="fill:none;stroke:#0000ff;stroke-dasharray:1.5,2.475;stroke-dashoffset:0;stroke-width:1.5;"/>
    <defs>
     <path d="M 0 1.5 
C 0.397805 1.5 0.77937 1.341951 1.06066 1.06066 
C 1.341951 0.77937 1.5 0.397805 1.5 0 
C 1.5 -0.397805 1.341951 -0.77937 1.06066 -1.06066 
C 0.77937 -1.341951 0.397805 -1.5 0 -1.5 
C -0.397805 -1.5 -0.77937 -1.341951 -1.06066 -1.06066 
C -1.341951 -0.77937 -1.5 -0.397805 -1.5 0 
C -1.5 0.397805 -1.341951 0.77937 -1.06066 1.06066 
C -0.77937 1.341951 -0.397805 1.5 0 1.5 
z
" id="m5c8fc3c758" style="stroke:#0000ff;"/>
    </defs>
    <g clip-path="url(#p4a7dc073f3)">
     <use style="fill:#0000ff;stroke:#0000ff;" x="61.612584" xlink:href="#m5c8fc3c758" y="53.568"/>
     <use style="fill:#0000ff;stroke:#0000ff;" x="65.625169" xlink:href="#m5c8fc3c758" y="251.43558"/>
     <use style="fill:#0000ff;stroke:#0000ff;" x="69.637753" xlink:href="#m5c8fc3c758" y="210.9281"/>
     <use style="fill:#0000ff;stroke:#0000ff;" x="73.650337" xlink:href="#m5c8fc3c758" y="223.908849"/>
     <use style="fill:#0000ff;stroke:#0000ff;" x="77.662921" xlink:href="#m5c8fc3c758" y="223.391633"/>
     <use style="fill:#0000ff;stroke:#0000ff;" x="81.675506" xlink:href="#m5c8fc3c758" y="230.995097"/>
     <use style="fill:#0000ff;stroke:#0000ff;" x="85.68809" xlink:href="#m5c8fc3c758" y="232.712958"/>
     <use style="fill:#0000ff;stroke:#0000ff;" x="89.700674" xlink:href="#m5c8fc3c758" y="230.481216"/>
     <use style="fill:#0000ff;stroke:#0000ff;" x="93.713258" xlink:href="#m5c8fc3c758" y="244.482544"/>
     <use style="fill:#0000ff;stroke:#0000ff;" x="97.725843" xlink:href="#m5c8fc3c758" y="240.792961"/>
     <use style="fill:#0000ff;stroke:#0000ff;" x="101.738427" xlink:href="#m5c8fc3c758" y="240.503943"/>
     <use style="fill:#0000ff;stroke:#0000ff;" x="105.751011" xlink:href="#m5c8fc3c758" y="243.090079"/>
     <use style="fill:#0000ff;stroke:#0000ff;" x="109.763596" xlink:href="#m5c8fc3c758" y="247.048587"/>
     <use style="fill:#0000ff;stroke:#0000ff;" x="113.77618" xlink:href="#m5c8fc3c758" y="247.503183"/>
     <use style="fill:#0000ff;stroke:#0000ff;" x="117.788764" xlink:href="#m5c8fc3c758" y="246.425184"/>
     <use style="fill:#0000ff;stroke:#0000ff;" x="121.801348" xlink:href="#m5c8fc3c758" y="249.054485"/>
     <use style="fill:#0000ff;stroke:#0000ff;" x="125.813933" xlink:href="#m5c8fc3c758" y="249.583083"/>
     <use style="fill:#0000ff;stroke:#0000ff;" x="129.826517" xlink:href="#m5c8fc3c758" y="250.630658"/>
     <use style="fill:#0000ff;stroke:#0000ff;" x="133.839101" xlink:href="#m5c8fc3c758" y="253.151611"/>
     <use style="fill:#0000ff;stroke:#0000ff;" x="137.851685" xlink:href="#m5c8fc3c758" y="254.35302"/>
     <use style="fill:#0000ff;stroke:#0000ff;" x="141.86427" xlink:href="#m5c8fc3c758" y="254.416177"/>
     <use style="fill:#0000ff;stroke:#0000ff;" x="145.876854" xlink:href="#m5c8fc3c758" y="255.947439"/>
     <use style="fill:#0000ff;stroke:#0000ff;" x="149.889438" xlink:href="#m5c8fc3c758" y="259.816626"/>
     <use style="fill:#0000ff;stroke:#0000ff;" x="153.902022" xlink:href="#m5c8fc3c758" y="258.537823"/>
     <use style="fill:#0000ff;stroke:#0000ff;" x="157.914607" xlink:href="#m5c8fc3c758" y="260.289376"/>
     <use style="fill:#0000ff;stroke:#0000ff;" x="161.927191" xlink:href="#m5c8fc3c758" y="265.984353"/>
     <use style="fill:#0000ff;stroke:#0000ff;" x="165.939775" xlink:href="#m5c8fc3c758" y="262.909377"/>
     <use style="fill:#0000ff;stroke:#0000ff;" x="169.95236" xlink:href="#m5c8fc3c758" y="265.158912"/>
     <use style="fill:#0000ff;stroke:#0000ff;" x="173.964944" xlink:href="#m5c8fc3c758" y="264.705224"/>
     <use style="fill:#0000ff;stroke:#0000ff;" x="177.977528" xlink:href="#m5c8fc3c758" y="265.065467"/>
     <use style="fill:#0000ff;stroke:#0000ff;" x="181.990112" xlink:href="#m5c8fc3c758" y="265.281873"/>
     <use style="fill:#0000ff;stroke:#0000ff;" x="186.002697" xlink:href="#m5c8fc3c758" y="266.492368"/>
     <use style="fill:#0000ff;stroke:#0000ff;" x="190.015281" xlink:href="#m5c8fc3c758" y="264.548634"/>
     <use style="fill:#0000ff;stroke:#0000ff;" x="194.027865" xlink:href="#m5c8fc3c758" y="268.488788"/>
     <use style="fill:#0000ff;stroke:#0000ff;" x="198.040449" xlink:href="#m5c8fc3c758" y="268.514798"/>
     <use style="fill:#0000ff;stroke:#0000ff;" x="202.053034" xlink:href="#m5c8fc3c758" y="269.449461"/>
     <use style="fill:#0000ff;stroke:#0000ff;" x="206.065618" xlink:href="#m5c8fc3c758" y="270.321944"/>
     <use style="fill:#0000ff;stroke:#0000ff;" x="210.078202" xlink:href="#m5c8fc3c758" y="271.103156"/>
     <use style="fill:#0000ff;stroke:#0000ff;" x="214.090787" xlink:href="#m5c8fc3c758" y="270.5712"/>
     <use style="fill:#0000ff;stroke:#0000ff;" x="218.103371" xlink:href="#m5c8fc3c758" y="272.656403"/>
     <use style="fill:#0000ff;stroke:#0000ff;" x="222.115955" xlink:href="#m5c8fc3c758" y="271.713022"/>
     <use style="fill:#0000ff;stroke:#0000ff;" x="226.128539" xlink:href="#m5c8fc3c758" y="273.203559"/>
     <use style="fill:#0000ff;stroke:#0000ff;" x="230.141124" xlink:href="#m5c8fc3c758" y="274.368006"/>
     <use style="fill:#0000ff;stroke:#0000ff;" x="234.153708" xlink:href="#m5c8fc3c758" y="275.66137"/>
     <use style="fill:#0000ff;stroke:#0000ff;" x="238.166292" xlink:href="#m5c8fc3c758" y="274.28538"/>
     <use style="fill:#0000ff;stroke:#0000ff;" x="242.178876" xlink:href="#m5c8fc3c758" y="275.732025"/>
     <use style="fill:#0000ff;stroke:#0000ff;" x="246.191461" xlink:href="#m5c8fc3c758" y="275.615031"/>
     <use style="fill:#0000ff;stroke:#0000ff;" x="250.204045" xlink:href="#m5c8fc3c758" y="276.372833"/>
     <use style="fill:#0000ff;stroke:#0000ff;" x="254.216629" xlink:href="#m5c8fc3c758" y="277.994427"/>
     <use style="fill:#0000ff;stroke:#0000ff;" x="258.229213" xlink:href="#m5c8fc3c758" y="276.590844"/>
     <use style="fill:#0000ff;stroke:#0000ff;" x="262.241798" xlink:href="#m5c8fc3c758" y="277.337924"/>
     <use style="fill:#0000ff;stroke:#0000ff;" x="266.254382" xlink:href="#m5c8fc3c758" y="277.775695"/>
     <use style="fill:#0000ff;stroke:#0000ff;" x="270.266966" xlink:href="#m5c8fc3c758" y="277.45014"/>
     <use style="fill:#0000ff;stroke:#0000ff;" x="274.279551" xlink:href="#m5c8fc3c758" y="278.038849"/>
     <use style="fill:#0000ff;stroke:#0000ff;" x="278.292135" xlink:href="#m5c8fc3c758" y="278.193842"/>
     <use style="fill:#0000ff;stroke:#0000ff;" x="282.304719" xlink:href="#m5c8fc3c758" y="278.271149"/>
     <use style="fill:#0000ff;stroke:#0000ff;" x="286.317303" xlink:href="#m5c8fc3c758" y="278.806321"/>
     <use style="fill:#0000ff;stroke:#0000ff;" x="290.329888" xlink:href="#m5c8fc3c758" y="282.680382"/>
     <use style="fill:#0000ff;stroke:#0000ff;" x="294.342472" xlink:href="#m5c8fc3c758" y="279.719735"/>
     <use style="fill:#0000ff;stroke:#0000ff;" x="298.355056" xlink:href="#m5c8fc3c758" y="278.991546"/>
     <use style="fill:#0000ff;stroke:#0000ff;" x="302.36764" xlink:href="#m5c8fc3c758" y="280.17023"/>
     <use style="fill:#0000ff;stroke:#0000ff;" x="306.380225" xlink:href="#m5c8fc3c758" y="280.431128"/>
     <use style="fill:#0000ff;stroke:#0000ff;" x="310.392809" xlink:href="#m5c8fc3c758" y="283.567709"/>
     <use style="fill:#0000ff;stroke:#0000ff;" x="314.405393" xlink:href="#m5c8fc3c758" y="280.708557"/>
     <use style="fill:#0000ff;stroke:#0000ff;" x="318.417978" xlink:href="#m5c8fc3c758" y="280.97596"/>
     <use style="fill:#0000ff;stroke:#0000ff;" x="322.430562" xlink:href="#m5c8fc3c758" y="281.198581"/>
     <use style="fill:#0000ff;stroke:#0000ff;" x="326.443146" xlink:href="#m5c8fc3c758" y="281.585332"/>
     <use style="fill:#0000ff;stroke:#0000ff;" x="330.45573" xlink:href="#m5c8fc3c758" y="286.485682"/>
     <use style="fill:#0000ff;stroke:#0000ff;" x="334.468315" xlink:href="#m5c8fc3c758" y="280.074568"/>
     <use style="fill:#0000ff;stroke:#0000ff;" x="338.480899" xlink:href="#m5c8fc3c758" y="283.132099"/>
     <use style="fill:#0000ff;stroke:#0000ff;" x="342.493483" xlink:href="#m5c8fc3c758" y="282.124141"/>
     <use style="fill:#0000ff;stroke:#0000ff;" x="346.506067" xlink:href="#m5c8fc3c758" y="283.433094"/>
     <use style="fill:#0000ff;stroke:#0000ff;" x="350.518652" xlink:href="#m5c8fc3c758" y="282.294682"/>
     <use style="fill:#0000ff;stroke:#0000ff;" x="354.531236" xlink:href="#m5c8fc3c758" y="282.457951"/>
     <use style="fill:#0000ff;stroke:#0000ff;" x="358.54382" xlink:href="#m5c8fc3c758" y="284.020613"/>
     <use style="fill:#0000ff;stroke:#0000ff;" x="362.556404" xlink:href="#m5c8fc3c758" y="281.526301"/>
     <use style="fill:#0000ff;stroke:#0000ff;" x="366.568989" xlink:href="#m5c8fc3c758" y="281.302327"/>
     <use style="fill:#0000ff;stroke:#0000ff;" x="370.581573" xlink:href="#m5c8fc3c758" y="281.508288"/>
     <use style="fill:#0000ff;stroke:#0000ff;" x="374.594157" xlink:href="#m5c8fc3c758" y="281.7832"/>
     <use style="fill:#0000ff;stroke:#0000ff;" x="378.606742" xlink:href="#m5c8fc3c758" y="282.335028"/>
     <use style="fill:#0000ff;stroke:#0000ff;" x="382.619326" xlink:href="#m5c8fc3c758" y="282.393473"/>
     <use style="fill:#0000ff;stroke:#0000ff;" x="386.63191" xlink:href="#m5c8fc3c758" y="282.765872"/>
     <use style="fill:#0000ff;stroke:#0000ff;" x="390.644494" xlink:href="#m5c8fc3c758" y="282.822572"/>
     <use style="fill:#0000ff;stroke:#0000ff;" x="394.657079" xlink:href="#m5c8fc3c758" y="282.935005"/>
     <use style="fill:#0000ff;stroke:#0000ff;" x="398.669663" xlink:href="#m5c8fc3c758" y="283.026363"/>
     <use style="fill:#0000ff;stroke:#0000ff;" x="402.682247" xlink:href="#m5c8fc3c758" y="284.321679"/>
     <use style="fill:#0000ff;stroke:#0000ff;" x="406.694831" xlink:href="#m5c8fc3c758" y="290.724793"/>
     <use style="fill:#0000ff;stroke:#0000ff;" x="410.707416" xlink:href="#m5c8fc3c758" y="287.932945"/>
    </g>
   </g>
   <g id="line2d_64">
    <path clip-path="url(#p4a7dc073f3)" d="M 61.612584 295.488 
L 65.625169 294.906153 
L 69.637753 294.43573 
L 73.650337 294.118858 
L 77.662921 293.934958 
L 81.675506 293.852433 
L 85.68809 293.713429 
L 89.700674 293.631197 
L 93.713258 293.418905 
L 97.725843 293.272126 
L 101.738427 293.059428 
L 105.751011 292.773709 
L 109.763596 292.550968 
L 113.77618 292.445415 
L 117.788764 292.252376 
L 121.801348 292.083531 
L 125.813933 291.991896 
L 129.826517 291.809364 
L 133.839101 291.668318 
L 137.851685 291.487499 
L 141.86427 291.465479 
L 145.876854 291.229063 
L 149.889438 291.206614 
L 153.902022 291.186351 
L 157.914607 291.16156 
L 161.927191 291.133589 
L 165.939775 291.030903 
L 169.95236 290.762321 
L 173.964944 290.913322 
L 177.977528 290.903764 
L 181.990112 290.911018 
L 186.002697 290.876557 
L 190.015281 290.91003 
L 194.027865 290.844797 
L 198.040449 290.82638 
L 202.053034 290.81384 
L 206.065618 290.804032 
L 210.078202 290.791392 
L 214.090787 290.847975 
L 218.103371 290.962884 
L 222.115955 290.916845 
L 226.128539 290.975182 
L 230.141124 291.041507 
L 234.153708 291.025089 
L 238.166292 291.109521 
L 242.178876 291.251816 
L 246.191461 291.253803 
L 250.204045 291.312312 
L 254.216629 291.350736 
L 258.229213 291.457051 
L 262.241798 291.510559 
L 266.254382 291.527769 
L 270.266966 291.583079 
L 274.279551 291.603711 
L 278.292135 291.681416 
L 282.304719 291.748245 
L 286.317303 291.746144 
L 290.329888 291.936192 
L 294.342472 291.865017 
L 298.355056 291.700704 
L 302.36764 292.061089 
L 306.380225 291.922298 
L 310.392809 292.328743 
L 314.405393 291.902056 
L 318.417978 291.917616 
L 322.430562 292.013455 
L 326.443146 291.978834 
L 330.45573 291.846139 
L 334.468315 291.855759 
L 338.480899 292.068037 
L 342.493483 292.196666 
L 346.506067 292.274263 
L 350.518652 292.127987 
L 354.531236 292.057311 
L 358.54382 292.141526 
L 362.556404 291.982168 
L 366.568989 292.014238 
L 370.581573 291.911159 
L 374.594157 292.044187 
L 378.606742 291.992352 
L 382.619326 292.053438 
L 386.63191 292.136149 
L 390.644494 292.047127 
L 394.657079 292.095319 
L 398.669663 292.070622 
L 402.682247 292.078564 
L 406.694831 293.060481 
L 410.707416 292.308793 
" style="fill:none;stroke:#ff0000;stroke-dasharray:1.5,2.475;stroke-dashoffset:0;stroke-width:1.5;"/>
    <defs>
     <path d="M 0 1.5 
C 0.397805 1.5 0.77937 1.341951 1.06066 1.06066 
C 1.341951 0.77937 1.5 0.397805 1.5 0 
C 1.5 -0.397805 1.341951 -0.77937 1.06066 -1.06066 
C 0.77937 -1.341951 0.397805 -1.5 0 -1.5 
C -0.397805 -1.5 -0.77937 -1.341951 -1.06066 -1.06066 
C -1.341951 -0.77937 -1.5 -0.397805 -1.5 0 
C -1.5 0.397805 -1.341951 0.77937 -1.06066 1.06066 
C -0.77937 1.341951 -0.397805 1.5 0 1.5 
z
" id="madb368a7a9" style="stroke:#ff0000;"/>
    </defs>
    <g clip-path="url(#p4a7dc073f3)">
     <use style="fill:#ff0000;stroke:#ff0000;" x="61.612584" xlink:href="#madb368a7a9" y="295.488"/>
     <use style="fill:#ff0000;stroke:#ff0000;" x="65.625169" xlink:href="#madb368a7a9" y="294.906153"/>
     <use style="fill:#ff0000;stroke:#ff0000;" x="69.637753" xlink:href="#madb368a7a9" y="294.43573"/>
     <use style="fill:#ff0000;stroke:#ff0000;" x="73.650337" xlink:href="#madb368a7a9" y="294.118858"/>
     <use style="fill:#ff0000;stroke:#ff0000;" x="77.662921" xlink:href="#madb368a7a9" y="293.934958"/>
     <use style="fill:#ff0000;stroke:#ff0000;" x="81.675506" xlink:href="#madb368a7a9" y="293.852433"/>
     <use style="fill:#ff0000;stroke:#ff0000;" x="85.68809" xlink:href="#madb368a7a9" y="293.713429"/>
     <use style="fill:#ff0000;stroke:#ff0000;" x="89.700674" xlink:href="#madb368a7a9" y="293.631197"/>
     <use style="fill:#ff0000;stroke:#ff0000;" x="93.713258" xlink:href="#madb368a7a9" y="293.418905"/>
     <use style="fill:#ff0000;stroke:#ff0000;" x="97.725843" xlink:href="#madb368a7a9" y="293.272126"/>
     <use style="fill:#ff0000;stroke:#ff0000;" x="101.738427" xlink:href="#madb368a7a9" y="293.059428"/>
     <use style="fill:#ff0000;stroke:#ff0000;" x="105.751011" xlink:href="#madb368a7a9" y="292.773709"/>
     <use style="fill:#ff0000;stroke:#ff0000;" x="109.763596" xlink:href="#madb368a7a9" y="292.550968"/>
     <use style="fill:#ff0000;stroke:#ff0000;" x="113.77618" xlink:href="#madb368a7a9" y="292.445415"/>
     <use style="fill:#ff0000;stroke:#ff0000;" x="117.788764" xlink:href="#madb368a7a9" y="292.252376"/>
     <use style="fill:#ff0000;stroke:#ff0000;" x="121.801348" xlink:href="#madb368a7a9" y="292.083531"/>
     <use style="fill:#ff0000;stroke:#ff0000;" x="125.813933" xlink:href="#madb368a7a9" y="291.991896"/>
     <use style="fill:#ff0000;stroke:#ff0000;" x="129.826517" xlink:href="#madb368a7a9" y="291.809364"/>
     <use style="fill:#ff0000;stroke:#ff0000;" x="133.839101" xlink:href="#madb368a7a9" y="291.668318"/>
     <use style="fill:#ff0000;stroke:#ff0000;" x="137.851685" xlink:href="#madb368a7a9" y="291.487499"/>
     <use style="fill:#ff0000;stroke:#ff0000;" x="141.86427" xlink:href="#madb368a7a9" y="291.465479"/>
     <use style="fill:#ff0000;stroke:#ff0000;" x="145.876854" xlink:href="#madb368a7a9" y="291.229063"/>
     <use style="fill:#ff0000;stroke:#ff0000;" x="149.889438" xlink:href="#madb368a7a9" y="291.206614"/>
     <use style="fill:#ff0000;stroke:#ff0000;" x="153.902022" xlink:href="#madb368a7a9" y="291.186351"/>
     <use style="fill:#ff0000;stroke:#ff0000;" x="157.914607" xlink:href="#madb368a7a9" y="291.16156"/>
     <use style="fill:#ff0000;stroke:#ff0000;" x="161.927191" xlink:href="#madb368a7a9" y="291.133589"/>
     <use style="fill:#ff0000;stroke:#ff0000;" x="165.939775" xlink:href="#madb368a7a9" y="291.030903"/>
     <use style="fill:#ff0000;stroke:#ff0000;" x="169.95236" xlink:href="#madb368a7a9" y="290.762321"/>
     <use style="fill:#ff0000;stroke:#ff0000;" x="173.964944" xlink:href="#madb368a7a9" y="290.913322"/>
     <use style="fill:#ff0000;stroke:#ff0000;" x="177.977528" xlink:href="#madb368a7a9" y="290.903764"/>
     <use style="fill:#ff0000;stroke:#ff0000;" x="181.990112" xlink:href="#madb368a7a9" y="290.911018"/>
     <use style="fill:#ff0000;stroke:#ff0000;" x="186.002697" xlink:href="#madb368a7a9" y="290.876557"/>
     <use style="fill:#ff0000;stroke:#ff0000;" x="190.015281" xlink:href="#madb368a7a9" y="290.91003"/>
     <use style="fill:#ff0000;stroke:#ff0000;" x="194.027865" xlink:href="#madb368a7a9" y="290.844797"/>
     <use style="fill:#ff0000;stroke:#ff0000;" x="198.040449" xlink:href="#madb368a7a9" y="290.82638"/>
     <use style="fill:#ff0000;stroke:#ff0000;" x="202.053034" xlink:href="#madb368a7a9" y="290.81384"/>
     <use style="fill:#ff0000;stroke:#ff0000;" x="206.065618" xlink:href="#madb368a7a9" y="290.804032"/>
     <use style="fill:#ff0000;stroke:#ff0000;" x="210.078202" xlink:href="#madb368a7a9" y="290.791392"/>
     <use style="fill:#ff0000;stroke:#ff0000;" x="214.090787" xlink:href="#madb368a7a9" y="290.847975"/>
     <use style="fill:#ff0000;stroke:#ff0000;" x="218.103371" xlink:href="#madb368a7a9" y="290.962884"/>
     <use style="fill:#ff0000;stroke:#ff0000;" x="222.115955" xlink:href="#madb368a7a9" y="290.916845"/>
     <use style="fill:#ff0000;stroke:#ff0000;" x="226.128539" xlink:href="#madb368a7a9" y="290.975182"/>
     <use style="fill:#ff0000;stroke:#ff0000;" x="230.141124" xlink:href="#madb368a7a9" y="291.041507"/>
     <use style="fill:#ff0000;stroke:#ff0000;" x="234.153708" xlink:href="#madb368a7a9" y="291.025089"/>
     <use style="fill:#ff0000;stroke:#ff0000;" x="238.166292" xlink:href="#madb368a7a9" y="291.109521"/>
     <use style="fill:#ff0000;stroke:#ff0000;" x="242.178876" xlink:href="#madb368a7a9" y="291.251816"/>
     <use style="fill:#ff0000;stroke:#ff0000;" x="246.191461" xlink:href="#madb368a7a9" y="291.253803"/>
     <use style="fill:#ff0000;stroke:#ff0000;" x="250.204045" xlink:href="#madb368a7a9" y="291.312312"/>
     <use style="fill:#ff0000;stroke:#ff0000;" x="254.216629" xlink:href="#madb368a7a9" y="291.350736"/>
     <use style="fill:#ff0000;stroke:#ff0000;" x="258.229213" xlink:href="#madb368a7a9" y="291.457051"/>
     <use style="fill:#ff0000;stroke:#ff0000;" x="262.241798" xlink:href="#madb368a7a9" y="291.510559"/>
     <use style="fill:#ff0000;stroke:#ff0000;" x="266.254382" xlink:href="#madb368a7a9" y="291.527769"/>
     <use style="fill:#ff0000;stroke:#ff0000;" x="270.266966" xlink:href="#madb368a7a9" y="291.583079"/>
     <use style="fill:#ff0000;stroke:#ff0000;" x="274.279551" xlink:href="#madb368a7a9" y="291.603711"/>
     <use style="fill:#ff0000;stroke:#ff0000;" x="278.292135" xlink:href="#madb368a7a9" y="291.681416"/>
     <use style="fill:#ff0000;stroke:#ff0000;" x="282.304719" xlink:href="#madb368a7a9" y="291.748245"/>
     <use style="fill:#ff0000;stroke:#ff0000;" x="286.317303" xlink:href="#madb368a7a9" y="291.746144"/>
     <use style="fill:#ff0000;stroke:#ff0000;" x="290.329888" xlink:href="#madb368a7a9" y="291.936192"/>
     <use style="fill:#ff0000;stroke:#ff0000;" x="294.342472" xlink:href="#madb368a7a9" y="291.865017"/>
     <use style="fill:#ff0000;stroke:#ff0000;" x="298.355056" xlink:href="#madb368a7a9" y="291.700704"/>
     <use style="fill:#ff0000;stroke:#ff0000;" x="302.36764" xlink:href="#madb368a7a9" y="292.061089"/>
     <use style="fill:#ff0000;stroke:#ff0000;" x="306.380225" xlink:href="#madb368a7a9" y="291.922298"/>
     <use style="fill:#ff0000;stroke:#ff0000;" x="310.392809" xlink:href="#madb368a7a9" y="292.328743"/>
     <use style="fill:#ff0000;stroke:#ff0000;" x="314.405393" xlink:href="#madb368a7a9" y="291.902056"/>
     <use style="fill:#ff0000;stroke:#ff0000;" x="318.417978" xlink:href="#madb368a7a9" y="291.917616"/>
     <use style="fill:#ff0000;stroke:#ff0000;" x="322.430562" xlink:href="#madb368a7a9" y="292.013455"/>
     <use style="fill:#ff0000;stroke:#ff0000;" x="326.443146" xlink:href="#madb368a7a9" y="291.978834"/>
     <use style="fill:#ff0000;stroke:#ff0000;" x="330.45573" xlink:href="#madb368a7a9" y="291.846139"/>
     <use style="fill:#ff0000;stroke:#ff0000;" x="334.468315" xlink:href="#madb368a7a9" y="291.855759"/>
     <use style="fill:#ff0000;stroke:#ff0000;" x="338.480899" xlink:href="#madb368a7a9" y="292.068037"/>
     <use style="fill:#ff0000;stroke:#ff0000;" x="342.493483" xlink:href="#madb368a7a9" y="292.196666"/>
     <use style="fill:#ff0000;stroke:#ff0000;" x="346.506067" xlink:href="#madb368a7a9" y="292.274263"/>
     <use style="fill:#ff0000;stroke:#ff0000;" x="350.518652" xlink:href="#madb368a7a9" y="292.127987"/>
     <use style="fill:#ff0000;stroke:#ff0000;" x="354.531236" xlink:href="#madb368a7a9" y="292.057311"/>
     <use style="fill:#ff0000;stroke:#ff0000;" x="358.54382" xlink:href="#madb368a7a9" y="292.141526"/>
     <use style="fill:#ff0000;stroke:#ff0000;" x="362.556404" xlink:href="#madb368a7a9" y="291.982168"/>
     <use style="fill:#ff0000;stroke:#ff0000;" x="366.568989" xlink:href="#madb368a7a9" y="292.014238"/>
     <use style="fill:#ff0000;stroke:#ff0000;" x="370.581573" xlink:href="#madb368a7a9" y="291.911159"/>
     <use style="fill:#ff0000;stroke:#ff0000;" x="374.594157" xlink:href="#madb368a7a9" y="292.044187"/>
     <use style="fill:#ff0000;stroke:#ff0000;" x="378.606742" xlink:href="#madb368a7a9" y="291.992352"/>
     <use style="fill:#ff0000;stroke:#ff0000;" x="382.619326" xlink:href="#madb368a7a9" y="292.053438"/>
     <use style="fill:#ff0000;stroke:#ff0000;" x="386.63191" xlink:href="#madb368a7a9" y="292.136149"/>
     <use style="fill:#ff0000;stroke:#ff0000;" x="390.644494" xlink:href="#madb368a7a9" y="292.047127"/>
     <use style="fill:#ff0000;stroke:#ff0000;" x="394.657079" xlink:href="#madb368a7a9" y="292.095319"/>
     <use style="fill:#ff0000;stroke:#ff0000;" x="398.669663" xlink:href="#madb368a7a9" y="292.070622"/>
     <use style="fill:#ff0000;stroke:#ff0000;" x="402.682247" xlink:href="#madb368a7a9" y="292.078564"/>
     <use style="fill:#ff0000;stroke:#ff0000;" x="406.694831" xlink:href="#madb368a7a9" y="293.060481"/>
     <use style="fill:#ff0000;stroke:#ff0000;" x="410.707416" xlink:href="#madb368a7a9" y="292.308793"/>
    </g>
   </g>
   <g id="line2d_65">
    <path clip-path="url(#p4a7dc073f3)" d="M 61.612584 174.528 
L 65.625169 273.170867 
L 69.637753 252.681915 
L 73.650337 259.013853 
L 77.662921 258.663296 
L 81.675506 262.423765 
L 85.68809 263.213193 
L 89.700674 262.056206 
L 93.713258 268.950724 
L 97.725843 267.032544 
L 101.738427 266.781685 
L 105.751011 267.931894 
L 109.763596 269.799777 
L 113.77618 269.974299 
L 117.788764 269.33878 
L 121.801348 270.569008 
L 125.813933 270.787489 
L 129.826517 271.220011 
L 133.839101 272.409965 
L 137.851685 272.92026 
L 141.86427 272.940828 
L 145.876854 273.588251 
L 149.889438 275.51162 
L 153.902022 274.862087 
L 157.914607 275.725468 
L 161.927191 278.558971 
L 165.939775 276.97014 
L 169.95236 277.960617 
L 173.964944 277.809273 
L 177.977528 277.984615 
L 181.990112 278.096445 
L 186.002697 278.684462 
L 190.015281 277.729332 
L 194.027865 279.666792 
L 198.040449 279.670589 
L 202.053034 280.131651 
L 206.065618 280.562988 
L 210.078202 280.947274 
L 214.090787 280.709587 
L 218.103371 281.809644 
L 222.115955 281.314933 
L 226.128539 282.08937 
L 230.141124 282.704757 
L 234.153708 283.34323 
L 238.166292 282.69745 
L 242.178876 283.49192 
L 246.191461 283.434417 
L 250.204045 283.842573 
L 254.216629 284.672582 
L 258.229213 284.023947 
L 262.241798 284.424242 
L 266.254382 284.651732 
L 270.266966 284.516609 
L 274.279551 284.82128 
L 278.292135 284.937629 
L 282.304719 285.009697 
L 286.317303 285.276233 
L 290.329888 287.308287 
L 294.342472 285.792376 
L 298.355056 285.346125 
L 302.36764 286.115659 
L 306.380225 286.176713 
L 310.392809 287.948226 
L 314.405393 286.305306 
L 318.417978 286.446788 
L 322.430562 286.606018 
L 326.443146 286.782083 
L 330.45573 289.165911 
L 334.468315 285.965164 
L 338.480899 287.600068 
L 342.493483 287.160404 
L 346.506067 287.853678 
L 350.518652 287.211335 
L 354.531236 287.257631 
L 358.54382 288.08107 
L 362.556404 286.754234 
L 366.568989 286.658282 
L 370.581573 286.709723 
L 374.594157 286.913693 
L 378.606742 287.16369 
L 382.619326 287.223456 
L 386.63191 287.451011 
L 390.644494 287.434849 
L 394.657079 287.515162 
L 398.669663 287.548493 
L 402.682247 288.200121 
L 406.694831 291.892637 
L 410.707416 290.120869 
" style="fill:none;stroke:#008000;stroke-dasharray:1.5,2.475;stroke-dashoffset:0;stroke-width:1.5;"/>
    <defs>
     <path d="M 0 1.5 
C 0.397805 1.5 0.77937 1.341951 1.06066 1.06066 
C 1.341951 0.77937 1.5 0.397805 1.5 0 
C 1.5 -0.397805 1.341951 -0.77937 1.06066 -1.06066 
C 0.77937 -1.341951 0.397805 -1.5 0 -1.5 
C -0.397805 -1.5 -0.77937 -1.341951 -1.06066 -1.06066 
C -1.341951 -0.77937 -1.5 -0.397805 -1.5 0 
C -1.5 0.397805 -1.341951 0.77937 -1.06066 1.06066 
C -0.77937 1.341951 -0.397805 1.5 0 1.5 
z
" id="m23944c6444" style="stroke:#008000;"/>
    </defs>
    <g clip-path="url(#p4a7dc073f3)">
     <use style="fill:#008000;stroke:#008000;" x="61.612584" xlink:href="#m23944c6444" y="174.528"/>
     <use style="fill:#008000;stroke:#008000;" x="65.625169" xlink:href="#m23944c6444" y="273.170867"/>
     <use style="fill:#008000;stroke:#008000;" x="69.637753" xlink:href="#m23944c6444" y="252.681915"/>
     <use style="fill:#008000;stroke:#008000;" x="73.650337" xlink:href="#m23944c6444" y="259.013853"/>
     <use style="fill:#008000;stroke:#008000;" x="77.662921" xlink:href="#m23944c6444" y="258.663296"/>
     <use style="fill:#008000;stroke:#008000;" x="81.675506" xlink:href="#m23944c6444" y="262.423765"/>
     <use style="fill:#008000;stroke:#008000;" x="85.68809" xlink:href="#m23944c6444" y="263.213193"/>
     <use style="fill:#008000;stroke:#008000;" x="89.700674" xlink:href="#m23944c6444" y="262.056206"/>
     <use style="fill:#008000;stroke:#008000;" x="93.713258" xlink:href="#m23944c6444" y="268.950724"/>
     <use style="fill:#008000;stroke:#008000;" x="97.725843" xlink:href="#m23944c6444" y="267.032544"/>
     <use style="fill:#008000;stroke:#008000;" x="101.738427" xlink:href="#m23944c6444" y="266.781685"/>
     <use style="fill:#008000;stroke:#008000;" x="105.751011" xlink:href="#m23944c6444" y="267.931894"/>
     <use style="fill:#008000;stroke:#008000;" x="109.763596" xlink:href="#m23944c6444" y="269.799777"/>
     <use style="fill:#008000;stroke:#008000;" x="113.77618" xlink:href="#m23944c6444" y="269.974299"/>
     <use style="fill:#008000;stroke:#008000;" x="117.788764" xlink:href="#m23944c6444" y="269.33878"/>
     <use style="fill:#008000;stroke:#008000;" x="121.801348" xlink:href="#m23944c6444" y="270.569008"/>
     <use style="fill:#008000;stroke:#008000;" x="125.813933" xlink:href="#m23944c6444" y="270.787489"/>
     <use style="fill:#008000;stroke:#008000;" x="129.826517" xlink:href="#m23944c6444" y="271.220011"/>
     <use style="fill:#008000;stroke:#008000;" x="133.839101" xlink:href="#m23944c6444" y="272.409965"/>
     <use style="fill:#008000;stroke:#008000;" x="137.851685" xlink:href="#m23944c6444" y="272.92026"/>
     <use style="fill:#008000;stroke:#008000;" x="141.86427" xlink:href="#m23944c6444" y="272.940828"/>
     <use style="fill:#008000;stroke:#008000;" x="145.876854" xlink:href="#m23944c6444" y="273.588251"/>
     <use style="fill:#008000;stroke:#008000;" x="149.889438" xlink:href="#m23944c6444" y="275.51162"/>
     <use style="fill:#008000;stroke:#008000;" x="153.902022" xlink:href="#m23944c6444" y="274.862087"/>
     <use style="fill:#008000;stroke:#008000;" x="157.914607" xlink:href="#m23944c6444" y="275.725468"/>
     <use style="fill:#008000;stroke:#008000;" x="161.927191" xlink:href="#m23944c6444" y="278.558971"/>
     <use style="fill:#008000;stroke:#008000;" x="165.939775" xlink:href="#m23944c6444" y="276.97014"/>
     <use style="fill:#008000;stroke:#008000;" x="169.95236" xlink:href="#m23944c6444" y="277.960617"/>
     <use style="fill:#008000;stroke:#008000;" x="173.964944" xlink:href="#m23944c6444" y="277.809273"/>
     <use style="fill:#008000;stroke:#008000;" x="177.977528" xlink:href="#m23944c6444" y="277.984615"/>
     <use style="fill:#008000;stroke:#008000;" x="181.990112" xlink:href="#m23944c6444" y="278.096445"/>
     <use style="fill:#008000;stroke:#008000;" x="186.002697" xlink:href="#m23944c6444" y="278.684462"/>
     <use style="fill:#008000;stroke:#008000;" x="190.015281" xlink:href="#m23944c6444" y="277.729332"/>
     <use style="fill:#008000;stroke:#008000;" x="194.027865" xlink:href="#m23944c6444" y="279.666792"/>
     <use style="fill:#008000;stroke:#008000;" x="198.040449" xlink:href="#m23944c6444" y="279.670589"/>
     <use style="fill:#008000;stroke:#008000;" x="202.053034" xlink:href="#m23944c6444" y="280.131651"/>
     <use style="fill:#008000;stroke:#008000;" x="206.065618" xlink:href="#m23944c6444" y="280.562988"/>
     <use style="fill:#008000;stroke:#008000;" x="210.078202" xlink:href="#m23944c6444" y="280.947274"/>
     <use style="fill:#008000;stroke:#008000;" x="214.090787" xlink:href="#m23944c6444" y="280.709587"/>
     <use style="fill:#008000;stroke:#008000;" x="218.103371" xlink:href="#m23944c6444" y="281.809644"/>
     <use style="fill:#008000;stroke:#008000;" x="222.115955" xlink:href="#m23944c6444" y="281.314933"/>
     <use style="fill:#008000;stroke:#008000;" x="226.128539" xlink:href="#m23944c6444" y="282.08937"/>
     <use style="fill:#008000;stroke:#008000;" x="230.141124" xlink:href="#m23944c6444" y="282.704757"/>
     <use style="fill:#008000;stroke:#008000;" x="234.153708" xlink:href="#m23944c6444" y="283.34323"/>
     <use style="fill:#008000;stroke:#008000;" x="238.166292" xlink:href="#m23944c6444" y="282.69745"/>
     <use style="fill:#008000;stroke:#008000;" x="242.178876" xlink:href="#m23944c6444" y="283.49192"/>
     <use style="fill:#008000;stroke:#008000;" x="246.191461" xlink:href="#m23944c6444" y="283.434417"/>
     <use style="fill:#008000;stroke:#008000;" x="250.204045" xlink:href="#m23944c6444" y="283.842573"/>
     <use style="fill:#008000;stroke:#008000;" x="254.216629" xlink:href="#m23944c6444" y="284.672582"/>
     <use style="fill:#008000;stroke:#008000;" x="258.229213" xlink:href="#m23944c6444" y="284.023947"/>
     <use style="fill:#008000;stroke:#008000;" x="262.241798" xlink:href="#m23944c6444" y="284.424242"/>
     <use style="fill:#008000;stroke:#008000;" x="266.254382" xlink:href="#m23944c6444" y="284.651732"/>
     <use style="fill:#008000;stroke:#008000;" x="270.266966" xlink:href="#m23944c6444" y="284.516609"/>
     <use style="fill:#008000;stroke:#008000;" x="274.279551" xlink:href="#m23944c6444" y="284.82128"/>
     <use style="fill:#008000;stroke:#008000;" x="278.292135" xlink:href="#m23944c6444" y="284.937629"/>
     <use style="fill:#008000;stroke:#008000;" x="282.304719" xlink:href="#m23944c6444" y="285.009697"/>
     <use style="fill:#008000;stroke:#008000;" x="286.317303" xlink:href="#m23944c6444" y="285.276233"/>
     <use style="fill:#008000;stroke:#008000;" x="290.329888" xlink:href="#m23944c6444" y="287.308287"/>
     <use style="fill:#008000;stroke:#008000;" x="294.342472" xlink:href="#m23944c6444" y="285.792376"/>
     <use style="fill:#008000;stroke:#008000;" x="298.355056" xlink:href="#m23944c6444" y="285.346125"/>
     <use style="fill:#008000;stroke:#008000;" x="302.36764" xlink:href="#m23944c6444" y="286.115659"/>
     <use style="fill:#008000;stroke:#008000;" x="306.380225" xlink:href="#m23944c6444" y="286.176713"/>
     <use style="fill:#008000;stroke:#008000;" x="310.392809" xlink:href="#m23944c6444" y="287.948226"/>
     <use style="fill:#008000;stroke:#008000;" x="314.405393" xlink:href="#m23944c6444" y="286.305306"/>
     <use style="fill:#008000;stroke:#008000;" x="318.417978" xlink:href="#m23944c6444" y="286.446788"/>
     <use style="fill:#008000;stroke:#008000;" x="322.430562" xlink:href="#m23944c6444" y="286.606018"/>
     <use style="fill:#008000;stroke:#008000;" x="326.443146" xlink:href="#m23944c6444" y="286.782083"/>
     <use style="fill:#008000;stroke:#008000;" x="330.45573" xlink:href="#m23944c6444" y="289.165911"/>
     <use style="fill:#008000;stroke:#008000;" x="334.468315" xlink:href="#m23944c6444" y="285.965164"/>
     <use style="fill:#008000;stroke:#008000;" x="338.480899" xlink:href="#m23944c6444" y="287.600068"/>
     <use style="fill:#008000;stroke:#008000;" x="342.493483" xlink:href="#m23944c6444" y="287.160404"/>
     <use style="fill:#008000;stroke:#008000;" x="346.506067" xlink:href="#m23944c6444" y="287.853678"/>
     <use style="fill:#008000;stroke:#008000;" x="350.518652" xlink:href="#m23944c6444" y="287.211335"/>
     <use style="fill:#008000;stroke:#008000;" x="354.531236" xlink:href="#m23944c6444" y="287.257631"/>
     <use style="fill:#008000;stroke:#008000;" x="358.54382" xlink:href="#m23944c6444" y="288.08107"/>
     <use style="fill:#008000;stroke:#008000;" x="362.556404" xlink:href="#m23944c6444" y="286.754234"/>
     <use style="fill:#008000;stroke:#008000;" x="366.568989" xlink:href="#m23944c6444" y="286.658282"/>
     <use style="fill:#008000;stroke:#008000;" x="370.581573" xlink:href="#m23944c6444" y="286.709723"/>
     <use style="fill:#008000;stroke:#008000;" x="374.594157" xlink:href="#m23944c6444" y="286.913693"/>
     <use style="fill:#008000;stroke:#008000;" x="378.606742" xlink:href="#m23944c6444" y="287.16369"/>
     <use style="fill:#008000;stroke:#008000;" x="382.619326" xlink:href="#m23944c6444" y="287.223456"/>
     <use style="fill:#008000;stroke:#008000;" x="386.63191" xlink:href="#m23944c6444" y="287.451011"/>
     <use style="fill:#008000;stroke:#008000;" x="390.644494" xlink:href="#m23944c6444" y="287.434849"/>
     <use style="fill:#008000;stroke:#008000;" x="394.657079" xlink:href="#m23944c6444" y="287.515162"/>
     <use style="fill:#008000;stroke:#008000;" x="398.669663" xlink:href="#m23944c6444" y="287.548493"/>
     <use style="fill:#008000;stroke:#008000;" x="402.682247" xlink:href="#m23944c6444" y="288.200121"/>
     <use style="fill:#008000;stroke:#008000;" x="406.694831" xlink:href="#m23944c6444" y="291.892637"/>
     <use style="fill:#008000;stroke:#008000;" x="410.707416" xlink:href="#m23944c6444" y="290.120869"/>
    </g>
   </g>
   <g id="patch_3">
    <path d="M 57.6 307.584 
L 57.6 41.472 
" style="fill:none;stroke:#000000;stroke-linecap:square;stroke-linejoin:miter;stroke-width:0.8;"/>
   </g>
   <g id="patch_4">
    <path d="M 414.72 307.584 
L 414.72 41.472 
" style="fill:none;stroke:#000000;stroke-linecap:square;stroke-linejoin:miter;stroke-width:0.8;"/>
   </g>
   <g id="patch_5">
    <path d="M 57.6 307.584 
L 414.72 307.584 
" style="fill:none;stroke:#000000;stroke-linecap:square;stroke-linejoin:miter;stroke-width:0.8;"/>
   </g>
   <g id="patch_6">
    <path d="M 57.6 41.472 
L 414.72 41.472 
" style="fill:none;stroke:#000000;stroke-linecap:square;stroke-linejoin:miter;stroke-width:0.8;"/>
   </g>
   <g id="text_34">
    <!-- radix sort 6 on pre_transpose8 -->
    <defs>
     <path d="M 9.421875 54.6875 
L 18.40625 54.6875 
L 18.40625 0 
L 9.421875 0 
z
M 9.421875 75.984375 
L 18.40625 75.984375 
L 18.40625 64.59375 
L 9.421875 64.59375 
z
" id="DejaVuSans-105"/>
     <path d="M 54.890625 54.6875 
L 35.109375 28.078125 
L 55.90625 0 
L 45.3125 0 
L 29.390625 21.484375 
L 13.484375 0 
L 2.875 0 
L 24.125 28.609375 
L 4.6875 54.6875 
L 15.28125 54.6875 
L 29.78125 35.203125 
L 44.28125 54.6875 
z
" id="DejaVuSans-120"/>
     <path d="M 30.609375 48.390625 
Q 23.390625 48.390625 19.1875 42.75 
Q 14.984375 37.109375 14.984375 27.296875 
Q 14.984375 17.484375 19.15625 11.84375 
Q 23.34375 6.203125 30.609375 6.203125 
Q 37.796875 6.203125 41.984375 11.859375 
Q 46.1875 17.53125 46.1875 27.296875 
Q 46.1875 37.015625 41.984375 42.703125 
Q 37.796875 48.390625 30.609375 48.390625 
z
M 30.609375 56 
Q 42.328125 56 49.015625 48.375 
Q 55.71875 40.765625 55.71875 27.296875 
Q 55.71875 13.875 49.015625 6.21875 
Q 42.328125 -1.421875 30.609375 -1.421875 
Q 18.84375 -1.421875 12.171875 6.21875 
Q 5.515625 13.875 5.515625 27.296875 
Q 5.515625 40.765625 12.171875 48.375 
Q 18.84375 56 30.609375 56 
z
" id="DejaVuSans-111"/>
     <path d="M 54.890625 33.015625 
L 54.890625 0 
L 45.90625 0 
L 45.90625 32.71875 
Q 45.90625 40.484375 42.875 44.328125 
Q 39.84375 48.1875 33.796875 48.1875 
Q 26.515625 48.1875 22.3125 43.546875 
Q 18.109375 38.921875 18.109375 30.90625 
L 18.109375 0 
L 9.078125 0 
L 9.078125 54.6875 
L 18.109375 54.6875 
L 18.109375 46.1875 
Q 21.34375 51.125 25.703125 53.5625 
Q 30.078125 56 35.796875 56 
Q 45.21875 56 50.046875 50.171875 
Q 54.890625 44.34375 54.890625 33.015625 
z
" id="DejaVuSans-110"/>
     <path d="M 50.984375 -16.609375 
L 50.984375 -23.578125 
L -0.984375 -23.578125 
L -0.984375 -16.609375 
z
" id="DejaVuSans-95"/>
    </defs>
    <g transform="translate(144.083438 35.472)scale(0.12 -0.12)">
     <use xlink:href="#DejaVuSans-114"/>
     <use x="41.113281" xlink:href="#DejaVuSans-97"/>
     <use x="102.392578" xlink:href="#DejaVuSans-100"/>
     <use x="165.869141" xlink:href="#DejaVuSans-105"/>
     <use x="193.652344" xlink:href="#DejaVuSans-120"/>
     <use x="252.832031" xlink:href="#DejaVuSans-32"/>
     <use x="284.619141" xlink:href="#DejaVuSans-115"/>
     <use x="336.71875" xlink:href="#DejaVuSans-111"/>
     <use x="397.900391" xlink:href="#DejaVuSans-114"/>
     <use x="439.013672" xlink:href="#DejaVuSans-116"/>
     <use x="478.222656" xlink:href="#DejaVuSans-32"/>
     <use x="510.009766" xlink:href="#DejaVuSans-54"/>
     <use x="573.632812" xlink:href="#DejaVuSans-32"/>
     <use x="605.419922" xlink:href="#DejaVuSans-111"/>
     <use x="666.601562" xlink:href="#DejaVuSans-110"/>
     <use x="729.980469" xlink:href="#DejaVuSans-32"/>
     <use x="761.767578" xlink:href="#DejaVuSans-112"/>
     <use x="825.244141" xlink:href="#DejaVuSans-114"/>
     <use x="864.107422" xlink:href="#DejaVuSans-101"/>
     <use x="925.630859" xlink:href="#DejaVuSans-95"/>
     <use x="975.630859" xlink:href="#DejaVuSans-116"/>
     <use x="1014.839844" xlink:href="#DejaVuSans-114"/>
     <use x="1055.953125" xlink:href="#DejaVuSans-97"/>
     <use x="1117.232422" xlink:href="#DejaVuSans-110"/>
     <use x="1180.611328" xlink:href="#DejaVuSans-115"/>
     <use x="1232.710938" xlink:href="#DejaVuSans-112"/>
     <use x="1296.1875" xlink:href="#DejaVuSans-111"/>
     <use x="1357.369141" xlink:href="#DejaVuSans-115"/>
     <use x="1409.46875" xlink:href="#DejaVuSans-101"/>
     <use x="1470.992188" xlink:href="#DejaVuSans-56"/>
    </g>
   </g>
   <g id="legend_1">
    <g id="patch_7">
     <path d="M 313.152813 93.7845 
L 407.72 93.7845 
Q 409.72 93.7845 409.72 91.7845 
L 409.72 48.472 
Q 409.72 46.472 407.72 46.472 
L 313.152813 46.472 
Q 311.152813 46.472 311.152813 48.472 
L 311.152813 91.7845 
Q 311.152813 93.7845 313.152813 93.7845 
z
" style="fill:#ffffff;opacity:0.8;stroke:#cccccc;stroke-linejoin:miter;"/>
    </g>
    <g id="line2d_66">
     <path d="M 315.152813 54.570438 
L 335.152813 54.570438 
" style="fill:none;stroke:#0000ff;stroke-dasharray:1.5,2.475;stroke-dashoffset:0;stroke-width:1.5;"/>
    </g>
    <g id="line2d_67">
     <g>
      <use style="fill:#0000ff;stroke:#0000ff;" x="325.152813" xlink:href="#m5c8fc3c758" y="54.570438"/>
     </g>
    </g>
    <g id="text_35">
     <!-- transpose -->
     <g transform="translate(343.152813 58.070438)scale(0.1 -0.1)">
      <use xlink:href="#DejaVuSans-116"/>
      <use x="39.208984" xlink:href="#DejaVuSans-114"/>
      <use x="80.322266" xlink:href="#DejaVuSans-97"/>
      <use x="141.601562" xlink:href="#DejaVuSans-110"/>
      <use x="204.980469" xlink:href="#DejaVuSans-115"/>
      <use x="257.080078" xlink:href="#DejaVuSans-112"/>
      <use x="320.556641" xlink:href="#DejaVuSans-111"/>
      <use x="381.738281" xlink:href="#DejaVuSans-115"/>
      <use x="433.837891" xlink:href="#DejaVuSans-101"/>
     </g>
    </g>
    <g id="line2d_68">
     <path d="M 315.152813 69.248563 
L 335.152813 69.248563 
" style="fill:none;stroke:#ff0000;stroke-dasharray:1.5,2.475;stroke-dashoffset:0;stroke-width:1.5;"/>
    </g>
    <g id="line2d_69">
     <g>
      <use style="fill:#ff0000;stroke:#ff0000;" x="325.152813" xlink:href="#madb368a7a9" y="69.248563"/>
     </g>
    </g>
    <g id="text_36">
     <!-- transpose_tr -->
     <g transform="translate(343.152813 72.748563)scale(0.1 -0.1)">
      <use xlink:href="#DejaVuSans-116"/>
      <use x="39.208984" xlink:href="#DejaVuSans-114"/>
      <use x="80.322266" xlink:href="#DejaVuSans-97"/>
      <use x="141.601562" xlink:href="#DejaVuSans-110"/>
      <use x="204.980469" xlink:href="#DejaVuSans-115"/>
      <use x="257.080078" xlink:href="#DejaVuSans-112"/>
      <use x="320.556641" xlink:href="#DejaVuSans-111"/>
      <use x="381.738281" xlink:href="#DejaVuSans-115"/>
      <use x="433.837891" xlink:href="#DejaVuSans-101"/>
      <use x="495.361328" xlink:href="#DejaVuSans-95"/>
      <use x="545.361328" xlink:href="#DejaVuSans-116"/>
      <use x="584.570312" xlink:href="#DejaVuSans-114"/>
     </g>
    </g>
    <g id="line2d_70">
     <path d="M 315.152813 84.204813 
L 335.152813 84.204813 
" style="fill:none;stroke:#008000;stroke-dasharray:1.5,2.475;stroke-dashoffset:0;stroke-width:1.5;"/>
    </g>
    <g id="line2d_71">
     <g>
      <use style="fill:#008000;stroke:#008000;" x="325.152813" xlink:href="#m23944c6444" y="84.204813"/>
     </g>
    </g>
    <g id="text_37">
     <!-- mean -->
     <defs>
      <path d="M 52 44.1875 
Q 55.375 50.25 60.0625 53.125 
Q 64.75 56 71.09375 56 
Q 79.640625 56 84.28125 50.015625 
Q 88.921875 44.046875 88.921875 33.015625 
L 88.921875 0 
L 79.890625 0 
L 79.890625 32.71875 
Q 79.890625 40.578125 77.09375 44.375 
Q 74.3125 48.1875 68.609375 48.1875 
Q 61.625 48.1875 57.5625 43.546875 
Q 53.515625 38.921875 53.515625 30.90625 
L 53.515625 0 
L 44.484375 0 
L 44.484375 32.71875 
Q 44.484375 40.625 41.703125 44.40625 
Q 38.921875 48.1875 33.109375 48.1875 
Q 26.21875 48.1875 22.15625 43.53125 
Q 18.109375 38.875 18.109375 30.90625 
L 18.109375 0 
L 9.078125 0 
L 9.078125 54.6875 
L 18.109375 54.6875 
L 18.109375 46.1875 
Q 21.1875 51.21875 25.484375 53.609375 
Q 29.78125 56 35.6875 56 
Q 41.65625 56 45.828125 52.96875 
Q 50 49.953125 52 44.1875 
z
" id="DejaVuSans-109"/>
     </defs>
     <g transform="translate(343.152813 87.704813)scale(0.1 -0.1)">
      <use xlink:href="#DejaVuSans-109"/>
      <use x="97.412109" xlink:href="#DejaVuSans-101"/>
      <use x="158.935547" xlink:href="#DejaVuSans-97"/>
      <use x="220.214844" xlink:href="#DejaVuSans-110"/>
     </g>
    </g>
   </g>
  </g>
 </g>
 <defs>
  <clipPath id="p4a7dc073f3">
   <rect height="266.112" width="357.12" x="57.6" y="41.472"/>
  </clipPath>
 </defs>
</svg>
