<?xml version="1.0" encoding="utf-8" standalone="no"?>
<!DOCTYPE svg PUBLIC "-//W3C//DTD SVG 1.1//EN"
  "http://www.w3.org/Graphics/SVG/1.1/DTD/svg11.dtd">
<!-- Created with matplotlib (https://matplotlib.org/) -->
<svg height="504pt" version="1.1" viewBox="0 0 1008 504" width="1008pt" xmlns="http://www.w3.org/2000/svg" xmlns:xlink="http://www.w3.org/1999/xlink">
 <defs>
  <style type="text/css">
*{stroke-linecap:butt;stroke-linejoin:round;}
  </style>
 </defs>
 <g id="figure_1">
  <g id="patch_1">
   <path d="M 0 504 
L 1008 504 
L 1008 0 
L 0 0 
z
" style="fill:#ffffff;"/>
  </g>
  <g id="axes_1">
   <g id="patch_2">
    <path d="M 126 448.56 
L 907.2 448.56 
L 907.2 60.48 
L 126 60.48 
z
" style="fill:#ffffff;"/>
   </g>
   <g id="matplotlib.axis_1">
    <g id="xtick_1">
     <g id="line2d_1">
      <defs>
       <path d="M 0 0 
L 0 3.5 
" id="m675004de90" style="stroke:#000000;stroke-width:0.8;"/>
      </defs>
      <g>
       <use style="stroke:#000000;stroke-width:0.8;" x="158.55" xlink:href="#m675004de90" y="448.56"/>
      </g>
     </g>
     <g id="text_1">
      <!-- Gustavson -->
      <defs>
       <path d="M 59.515625 10.40625 
L 59.515625 29.984375 
L 43.40625 29.984375 
L 43.40625 38.09375 
L 69.28125 38.09375 
L 69.28125 6.78125 
Q 63.578125 2.734375 56.6875 0.65625 
Q 49.8125 -1.421875 42 -1.421875 
Q 24.90625 -1.421875 15.25 8.5625 
Q 5.609375 18.5625 5.609375 36.375 
Q 5.609375 54.25 15.25 64.234375 
Q 24.90625 74.21875 42 74.21875 
Q 49.125 74.21875 55.546875 72.453125 
Q 61.96875 70.703125 67.390625 67.28125 
L 67.390625 56.78125 
Q 61.921875 61.421875 55.765625 63.765625 
Q 49.609375 66.109375 42.828125 66.109375 
Q 29.4375 66.109375 22.71875 58.640625 
Q 16.015625 51.171875 16.015625 36.375 
Q 16.015625 21.625 22.71875 14.15625 
Q 29.4375 6.6875 42.828125 6.6875 
Q 48.046875 6.6875 52.140625 7.59375 
Q 56.25 8.5 59.515625 10.40625 
z
" id="DejaVuSans-71"/>
       <path d="M 8.5 21.578125 
L 8.5 54.6875 
L 17.484375 54.6875 
L 17.484375 21.921875 
Q 17.484375 14.15625 20.5 10.265625 
Q 23.53125 6.390625 29.59375 6.390625 
Q 36.859375 6.390625 41.078125 11.03125 
Q 45.3125 15.671875 45.3125 23.6875 
L 45.3125 54.6875 
L 54.296875 54.6875 
L 54.296875 0 
L 45.3125 0 
L 45.3125 8.40625 
Q 42.046875 3.421875 37.71875 1 
Q 33.40625 -1.421875 27.6875 -1.421875 
Q 18.265625 -1.421875 13.375 4.4375 
Q 8.5 10.296875 8.5 21.578125 
z
M 31.109375 56 
z
" id="DejaVuSans-117"/>
       <path d="M 44.28125 53.078125 
L 44.28125 44.578125 
Q 40.484375 46.53125 36.375 47.5 
Q 32.28125 48.484375 27.875 48.484375 
Q 21.1875 48.484375 17.84375 46.4375 
Q 14.5 44.390625 14.5 40.28125 
Q 14.5 37.15625 16.890625 35.375 
Q 19.28125 33.59375 26.515625 31.984375 
L 29.59375 31.296875 
Q 39.15625 29.25 43.1875 25.515625 
Q 47.21875 21.78125 47.21875 15.09375 
Q 47.21875 7.46875 41.1875 3.015625 
Q 35.15625 -1.421875 24.609375 -1.421875 
Q 20.21875 -1.421875 15.453125 -0.5625 
Q 10.6875 0.296875 5.421875 2 
L 5.421875 11.28125 
Q 10.40625 8.6875 15.234375 7.390625 
Q 20.0625 6.109375 24.8125 6.109375 
Q 31.15625 6.109375 34.5625 8.28125 
Q 37.984375 10.453125 37.984375 14.40625 
Q 37.984375 18.0625 35.515625 20.015625 
Q 33.0625 21.96875 24.703125 23.78125 
L 21.578125 24.515625 
Q 13.234375 26.265625 9.515625 29.90625 
Q 5.8125 33.546875 5.8125 39.890625 
Q 5.8125 47.609375 11.28125 51.796875 
Q 16.75 56 26.8125 56 
Q 31.78125 56 36.171875 55.265625 
Q 40.578125 54.546875 44.28125 53.078125 
z
" id="DejaVuSans-115"/>
       <path d="M 18.3125 70.21875 
L 18.3125 54.6875 
L 36.8125 54.6875 
L 36.8125 47.703125 
L 18.3125 47.703125 
L 18.3125 18.015625 
Q 18.3125 11.328125 20.140625 9.421875 
Q 21.96875 7.515625 27.59375 7.515625 
L 36.8125 7.515625 
L 36.8125 0 
L 27.59375 0 
Q 17.1875 0 13.234375 3.875 
Q 9.28125 7.765625 9.28125 18.015625 
L 9.28125 47.703125 
L 2.6875 47.703125 
L 2.6875 54.6875 
L 9.28125 54.6875 
L 9.28125 70.21875 
z
" id="DejaVuSans-116"/>
       <path d="M 34.28125 27.484375 
Q 23.390625 27.484375 19.1875 25 
Q 14.984375 22.515625 14.984375 16.5 
Q 14.984375 11.71875 18.140625 8.90625 
Q 21.296875 6.109375 26.703125 6.109375 
Q 34.1875 6.109375 38.703125 11.40625 
Q 43.21875 16.703125 43.21875 25.484375 
L 43.21875 27.484375 
z
M 52.203125 31.203125 
L 52.203125 0 
L 43.21875 0 
L 43.21875 8.296875 
Q 40.140625 3.328125 35.546875 0.953125 
Q 30.953125 -1.421875 24.3125 -1.421875 
Q 15.921875 -1.421875 10.953125 3.296875 
Q 6 8.015625 6 15.921875 
Q 6 25.140625 12.171875 29.828125 
Q 18.359375 34.515625 30.609375 34.515625 
L 43.21875 34.515625 
L 43.21875 35.40625 
Q 43.21875 41.609375 39.140625 45 
Q 35.0625 48.390625 27.6875 48.390625 
Q 23 48.390625 18.546875 47.265625 
Q 14.109375 46.140625 10.015625 43.890625 
L 10.015625 52.203125 
Q 14.9375 54.109375 19.578125 55.046875 
Q 24.21875 56 28.609375 56 
Q 40.484375 56 46.34375 49.84375 
Q 52.203125 43.703125 52.203125 31.203125 
z
" id="DejaVuSans-97"/>
       <path d="M 2.984375 54.6875 
L 12.5 54.6875 
L 29.59375 8.796875 
L 46.6875 54.6875 
L 56.203125 54.6875 
L 35.6875 0 
L 23.484375 0 
z
" id="DejaVuSans-118"/>
       <path d="M 30.609375 48.390625 
Q 23.390625 48.390625 19.1875 42.75 
Q 14.984375 37.109375 14.984375 27.296875 
Q 14.984375 17.484375 19.15625 11.84375 
Q 23.34375 6.203125 30.609375 6.203125 
Q 37.796875 6.203125 41.984375 11.859375 
Q 46.1875 17.53125 46.1875 27.296875 
Q 46.1875 37.015625 41.984375 42.703125 
Q 37.796875 48.390625 30.609375 48.390625 
z
M 30.609375 56 
Q 42.328125 56 49.015625 48.375 
Q 55.71875 40.765625 55.71875 27.296875 
Q 55.71875 13.875 49.015625 6.21875 
Q 42.328125 -1.421875 30.609375 -1.421875 
Q 18.84375 -1.421875 12.171875 6.21875 
Q 5.515625 13.875 5.515625 27.296875 
Q 5.515625 40.765625 12.171875 48.375 
Q 18.84375 56 30.609375 56 
z
" id="DejaVuSans-111"/>
       <path d="M 54.890625 33.015625 
L 54.890625 0 
L 45.90625 0 
L 45.90625 32.71875 
Q 45.90625 40.484375 42.875 44.328125 
Q 39.84375 48.1875 33.796875 48.1875 
Q 26.515625 48.1875 22.3125 43.546875 
Q 18.109375 38.921875 18.109375 30.90625 
L 18.109375 0 
L 9.078125 0 
L 9.078125 54.6875 
L 18.109375 54.6875 
L 18.109375 46.1875 
Q 21.34375 51.125 25.703125 53.5625 
Q 30.078125 56 35.796875 56 
Q 45.21875 56 50.046875 50.171875 
Q 54.890625 44.34375 54.890625 33.015625 
z
" id="DejaVuSans-110"/>
      </defs>
      <g transform="translate(132.085938 463.158437)scale(0.1 -0.1)">
       <use xlink:href="#DejaVuSans-71"/>
       <use x="77.490234" xlink:href="#DejaVuSans-117"/>
       <use x="140.869141" xlink:href="#DejaVuSans-115"/>
       <use x="192.96875" xlink:href="#DejaVuSans-116"/>
       <use x="232.177734" xlink:href="#DejaVuSans-97"/>
       <use x="293.457031" xlink:href="#DejaVuSans-118"/>
       <use x="352.636719" xlink:href="#DejaVuSans-115"/>
       <use x="404.736328" xlink:href="#DejaVuSans-111"/>
       <use x="465.917969" xlink:href="#DejaVuSans-110"/>
      </g>
      <!-- 2 -->
      <defs>
       <path d="M 19.1875 8.296875 
L 53.609375 8.296875 
L 53.609375 0 
L 7.328125 0 
L 7.328125 8.296875 
Q 12.9375 14.109375 22.625 23.890625 
Q 32.328125 33.6875 34.8125 36.53125 
Q 39.546875 41.84375 41.421875 45.53125 
Q 43.3125 49.21875 43.3125 52.78125 
Q 43.3125 58.59375 39.234375 62.25 
Q 35.15625 65.921875 28.609375 65.921875 
Q 23.96875 65.921875 18.8125 64.3125 
Q 13.671875 62.703125 7.8125 59.421875 
L 7.8125 69.390625 
Q 13.765625 71.78125 18.9375 73 
Q 24.125 74.21875 28.421875 74.21875 
Q 39.75 74.21875 46.484375 68.546875 
Q 53.21875 62.890625 53.21875 53.421875 
Q 53.21875 48.921875 51.53125 44.890625 
Q 49.859375 40.875 45.40625 35.40625 
Q 44.1875 33.984375 37.640625 27.21875 
Q 31.109375 20.453125 19.1875 8.296875 
z
" id="DejaVuSans-50"/>
      </defs>
      <g transform="translate(155.36875 474.35625)scale(0.1 -0.1)">
       <use xlink:href="#DejaVuSans-50"/>
      </g>
     </g>
    </g>
    <g id="xtick_2">
     <g id="line2d_2">
      <g>
       <use style="stroke:#000000;stroke-width:0.8;" x="223.65" xlink:href="#m675004de90" y="448.56"/>
      </g>
     </g>
     <g id="text_2">
      <!-- Gustavson -->
      <g transform="translate(197.185937 463.158437)scale(0.1 -0.1)">
       <use xlink:href="#DejaVuSans-71"/>
       <use x="77.490234" xlink:href="#DejaVuSans-117"/>
       <use x="140.869141" xlink:href="#DejaVuSans-115"/>
       <use x="192.96875" xlink:href="#DejaVuSans-116"/>
       <use x="232.177734" xlink:href="#DejaVuSans-97"/>
       <use x="293.457031" xlink:href="#DejaVuSans-118"/>
       <use x="352.636719" xlink:href="#DejaVuSans-115"/>
       <use x="404.736328" xlink:href="#DejaVuSans-111"/>
       <use x="465.917969" xlink:href="#DejaVuSans-110"/>
      </g>
      <!-- 2PV -->
      <defs>
       <path d="M 19.671875 64.796875 
L 19.671875 37.40625 
L 32.078125 37.40625 
Q 38.96875 37.40625 42.71875 40.96875 
Q 46.484375 44.53125 46.484375 51.125 
Q 46.484375 57.671875 42.71875 61.234375 
Q 38.96875 64.796875 32.078125 64.796875 
z
M 9.8125 72.90625 
L 32.078125 72.90625 
Q 44.34375 72.90625 50.609375 67.359375 
Q 56.890625 61.8125 56.890625 51.125 
Q 56.890625 40.328125 50.609375 34.8125 
Q 44.34375 29.296875 32.078125 29.296875 
L 19.671875 29.296875 
L 19.671875 0 
L 9.8125 0 
z
" id="DejaVuSans-80"/>
       <path d="M 28.609375 0 
L 0.78125 72.90625 
L 11.078125 72.90625 
L 34.1875 11.53125 
L 57.328125 72.90625 
L 67.578125 72.90625 
L 39.796875 0 
z
" id="DejaVuSans-86"/>
      </defs>
      <g transform="translate(214.033594 474.35625)scale(0.1 -0.1)">
       <use xlink:href="#DejaVuSans-50"/>
       <use x="63.623047" xlink:href="#DejaVuSans-80"/>
       <use x="123.925781" xlink:href="#DejaVuSans-86"/>
      </g>
     </g>
    </g>
    <g id="xtick_3">
     <g id="line2d_3">
      <g>
       <use style="stroke:#000000;stroke-width:0.8;" x="288.75" xlink:href="#m675004de90" y="448.56"/>
      </g>
     </g>
     <g id="text_3">
      <!-- Gustavson -->
      <g transform="translate(262.285937 463.158437)scale(0.1 -0.1)">
       <use xlink:href="#DejaVuSans-71"/>
       <use x="77.490234" xlink:href="#DejaVuSans-117"/>
       <use x="140.869141" xlink:href="#DejaVuSans-115"/>
       <use x="192.96875" xlink:href="#DejaVuSans-116"/>
       <use x="232.177734" xlink:href="#DejaVuSans-97"/>
       <use x="293.457031" xlink:href="#DejaVuSans-118"/>
       <use x="352.636719" xlink:href="#DejaVuSans-115"/>
       <use x="404.736328" xlink:href="#DejaVuSans-111"/>
       <use x="465.917969" xlink:href="#DejaVuSans-110"/>
      </g>
      <!-- 3PV -->
      <defs>
       <path d="M 40.578125 39.3125 
Q 47.65625 37.796875 51.625 33 
Q 55.609375 28.21875 55.609375 21.1875 
Q 55.609375 10.40625 48.1875 4.484375 
Q 40.765625 -1.421875 27.09375 -1.421875 
Q 22.515625 -1.421875 17.65625 -0.515625 
Q 12.796875 0.390625 7.625 2.203125 
L 7.625 11.71875 
Q 11.71875 9.328125 16.59375 8.109375 
Q 21.484375 6.890625 26.8125 6.890625 
Q 36.078125 6.890625 40.9375 10.546875 
Q 45.796875 14.203125 45.796875 21.1875 
Q 45.796875 27.640625 41.28125 31.265625 
Q 36.765625 34.90625 28.71875 34.90625 
L 20.21875 34.90625 
L 20.21875 43.015625 
L 29.109375 43.015625 
Q 36.375 43.015625 40.234375 45.921875 
Q 44.09375 48.828125 44.09375 54.296875 
Q 44.09375 59.90625 40.109375 62.90625 
Q 36.140625 65.921875 28.71875 65.921875 
Q 24.65625 65.921875 20.015625 65.03125 
Q 15.375 64.15625 9.8125 62.3125 
L 9.8125 71.09375 
Q 15.4375 72.65625 20.34375 73.4375 
Q 25.25 74.21875 29.59375 74.21875 
Q 40.828125 74.21875 47.359375 69.109375 
Q 53.90625 64.015625 53.90625 55.328125 
Q 53.90625 49.265625 50.4375 45.09375 
Q 46.96875 40.921875 40.578125 39.3125 
z
" id="DejaVuSans-51"/>
      </defs>
      <g transform="translate(279.133594 474.35625)scale(0.1 -0.1)">
       <use xlink:href="#DejaVuSans-51"/>
       <use x="63.623047" xlink:href="#DejaVuSans-80"/>
       <use x="123.925781" xlink:href="#DejaVuSans-86"/>
      </g>
     </g>
    </g>
    <g id="xtick_4">
     <g id="line2d_4">
      <g>
       <use style="stroke:#000000;stroke-width:0.8;" x="353.85" xlink:href="#m675004de90" y="448.56"/>
      </g>
     </g>
     <g id="text_4">
      <!-- MKL -->
      <defs>
       <path d="M 9.8125 72.90625 
L 24.515625 72.90625 
L 43.109375 23.296875 
L 61.8125 72.90625 
L 76.515625 72.90625 
L 76.515625 0 
L 66.890625 0 
L 66.890625 64.015625 
L 48.09375 14.015625 
L 38.1875 14.015625 
L 19.390625 64.015625 
L 19.390625 0 
L 9.8125 0 
z
" id="DejaVuSans-77"/>
       <path d="M 9.8125 72.90625 
L 19.671875 72.90625 
L 19.671875 42.09375 
L 52.390625 72.90625 
L 65.09375 72.90625 
L 28.90625 38.921875 
L 67.671875 0 
L 54.6875 0 
L 19.671875 35.109375 
L 19.671875 0 
L 9.8125 0 
z
" id="DejaVuSans-75"/>
       <path d="M 9.8125 72.90625 
L 19.671875 72.90625 
L 19.671875 8.296875 
L 55.171875 8.296875 
L 55.171875 0 
L 9.8125 0 
z
" id="DejaVuSans-76"/>
      </defs>
      <g transform="translate(343.471094 463.158437)scale(0.1 -0.1)">
       <use xlink:href="#DejaVuSans-77"/>
       <use x="86.279297" xlink:href="#DejaVuSans-75"/>
       <use x="151.855469" xlink:href="#DejaVuSans-76"/>
      </g>
      <!-- iomp 2PV (14) -->
      <defs>
       <path d="M 9.421875 54.6875 
L 18.40625 54.6875 
L 18.40625 0 
L 9.421875 0 
z
M 9.421875 75.984375 
L 18.40625 75.984375 
L 18.40625 64.59375 
L 9.421875 64.59375 
z
" id="DejaVuSans-105"/>
       <path d="M 52 44.1875 
Q 55.375 50.25 60.0625 53.125 
Q 64.75 56 71.09375 56 
Q 79.640625 56 84.28125 50.015625 
Q 88.921875 44.046875 88.921875 33.015625 
L 88.921875 0 
L 79.890625 0 
L 79.890625 32.71875 
Q 79.890625 40.578125 77.09375 44.375 
Q 74.3125 48.1875 68.609375 48.1875 
Q 61.625 48.1875 57.5625 43.546875 
Q 53.515625 38.921875 53.515625 30.90625 
L 53.515625 0 
L 44.484375 0 
L 44.484375 32.71875 
Q 44.484375 40.625 41.703125 44.40625 
Q 38.921875 48.1875 33.109375 48.1875 
Q 26.21875 48.1875 22.15625 43.53125 
Q 18.109375 38.875 18.109375 30.90625 
L 18.109375 0 
L 9.078125 0 
L 9.078125 54.6875 
L 18.109375 54.6875 
L 18.109375 46.1875 
Q 21.1875 51.21875 25.484375 53.609375 
Q 29.78125 56 35.6875 56 
Q 41.65625 56 45.828125 52.96875 
Q 50 49.953125 52 44.1875 
z
" id="DejaVuSans-109"/>
       <path d="M 18.109375 8.203125 
L 18.109375 -20.796875 
L 9.078125 -20.796875 
L 9.078125 54.6875 
L 18.109375 54.6875 
L 18.109375 46.390625 
Q 20.953125 51.265625 25.265625 53.625 
Q 29.59375 56 35.59375 56 
Q 45.5625 56 51.78125 48.09375 
Q 58.015625 40.1875 58.015625 27.296875 
Q 58.015625 14.40625 51.78125 6.484375 
Q 45.5625 -1.421875 35.59375 -1.421875 
Q 29.59375 -1.421875 25.265625 0.953125 
Q 20.953125 3.328125 18.109375 8.203125 
z
M 48.6875 27.296875 
Q 48.6875 37.203125 44.609375 42.84375 
Q 40.53125 48.484375 33.40625 48.484375 
Q 26.265625 48.484375 22.1875 42.84375 
Q 18.109375 37.203125 18.109375 27.296875 
Q 18.109375 17.390625 22.1875 11.75 
Q 26.265625 6.109375 33.40625 6.109375 
Q 40.53125 6.109375 44.609375 11.75 
Q 48.6875 17.390625 48.6875 27.296875 
z
" id="DejaVuSans-112"/>
       <path id="DejaVuSans-32"/>
       <path d="M 31 75.875 
Q 24.46875 64.65625 21.28125 53.65625 
Q 18.109375 42.671875 18.109375 31.390625 
Q 18.109375 20.125 21.3125 9.0625 
Q 24.515625 -2 31 -13.1875 
L 23.1875 -13.1875 
Q 15.875 -1.703125 12.234375 9.375 
Q 8.59375 20.453125 8.59375 31.390625 
Q 8.59375 42.28125 12.203125 53.3125 
Q 15.828125 64.359375 23.1875 75.875 
z
" id="DejaVuSans-40"/>
       <path d="M 12.40625 8.296875 
L 28.515625 8.296875 
L 28.515625 63.921875 
L 10.984375 60.40625 
L 10.984375 69.390625 
L 28.421875 72.90625 
L 38.28125 72.90625 
L 38.28125 8.296875 
L 54.390625 8.296875 
L 54.390625 0 
L 12.40625 0 
z
" id="DejaVuSans-49"/>
       <path d="M 37.796875 64.3125 
L 12.890625 25.390625 
L 37.796875 25.390625 
z
M 35.203125 72.90625 
L 47.609375 72.90625 
L 47.609375 25.390625 
L 58.015625 25.390625 
L 58.015625 17.1875 
L 47.609375 17.1875 
L 47.609375 0 
L 37.796875 0 
L 37.796875 17.1875 
L 4.890625 17.1875 
L 4.890625 26.703125 
z
" id="DejaVuSans-52"/>
       <path d="M 8.015625 75.875 
L 15.828125 75.875 
Q 23.140625 64.359375 26.78125 53.3125 
Q 30.421875 42.28125 30.421875 31.390625 
Q 30.421875 20.453125 26.78125 9.375 
Q 23.140625 -1.703125 15.828125 -13.1875 
L 8.015625 -13.1875 
Q 14.5 -2 17.703125 9.0625 
Q 20.90625 20.125 20.90625 31.390625 
Q 20.90625 42.671875 17.703125 53.65625 
Q 14.5 64.65625 8.015625 75.875 
z
" id="DejaVuSans-41"/>
      </defs>
      <g transform="translate(318.298437 474.35625)scale(0.1 -0.1)">
       <use xlink:href="#DejaVuSans-105"/>
       <use x="27.783203" xlink:href="#DejaVuSans-111"/>
       <use x="88.964844" xlink:href="#DejaVuSans-109"/>
       <use x="186.376953" xlink:href="#DejaVuSans-112"/>
       <use x="249.853516" xlink:href="#DejaVuSans-32"/>
       <use x="281.640625" xlink:href="#DejaVuSans-50"/>
       <use x="345.263672" xlink:href="#DejaVuSans-80"/>
       <use x="405.566406" xlink:href="#DejaVuSans-86"/>
       <use x="473.974609" xlink:href="#DejaVuSans-32"/>
       <use x="505.761719" xlink:href="#DejaVuSans-40"/>
       <use x="544.775391" xlink:href="#DejaVuSans-49"/>
       <use x="608.398438" xlink:href="#DejaVuSans-52"/>
       <use x="672.021484" xlink:href="#DejaVuSans-41"/>
      </g>
     </g>
    </g>
    <g id="xtick_5">
     <g id="line2d_5">
      <g>
       <use style="stroke:#000000;stroke-width:0.8;" x="418.95" xlink:href="#m675004de90" y="448.56"/>
      </g>
     </g>
     <g id="text_5">
      <!-- MKL -->
      <g transform="translate(408.571094 463.158437)scale(0.1 -0.1)">
       <use xlink:href="#DejaVuSans-77"/>
       <use x="86.279297" xlink:href="#DejaVuSans-75"/>
       <use x="151.855469" xlink:href="#DejaVuSans-76"/>
      </g>
      <!-- serial 2 (1) -->
      <defs>
       <path d="M 56.203125 29.59375 
L 56.203125 25.203125 
L 14.890625 25.203125 
Q 15.484375 15.921875 20.484375 11.0625 
Q 25.484375 6.203125 34.421875 6.203125 
Q 39.59375 6.203125 44.453125 7.46875 
Q 49.3125 8.734375 54.109375 11.28125 
L 54.109375 2.78125 
Q 49.265625 0.734375 44.1875 -0.34375 
Q 39.109375 -1.421875 33.890625 -1.421875 
Q 20.796875 -1.421875 13.15625 6.1875 
Q 5.515625 13.8125 5.515625 26.8125 
Q 5.515625 40.234375 12.765625 48.109375 
Q 20.015625 56 32.328125 56 
Q 43.359375 56 49.78125 48.890625 
Q 56.203125 41.796875 56.203125 29.59375 
z
M 47.21875 32.234375 
Q 47.125 39.59375 43.09375 43.984375 
Q 39.0625 48.390625 32.421875 48.390625 
Q 24.90625 48.390625 20.390625 44.140625 
Q 15.875 39.890625 15.1875 32.171875 
z
" id="DejaVuSans-101"/>
       <path d="M 41.109375 46.296875 
Q 39.59375 47.171875 37.8125 47.578125 
Q 36.03125 48 33.890625 48 
Q 26.265625 48 22.1875 43.046875 
Q 18.109375 38.09375 18.109375 28.8125 
L 18.109375 0 
L 9.078125 0 
L 9.078125 54.6875 
L 18.109375 54.6875 
L 18.109375 46.1875 
Q 20.953125 51.171875 25.484375 53.578125 
Q 30.03125 56 36.53125 56 
Q 37.453125 56 38.578125 55.875 
Q 39.703125 55.765625 41.0625 55.515625 
z
" id="DejaVuSans-114"/>
       <path d="M 9.421875 75.984375 
L 18.40625 75.984375 
L 18.40625 0 
L 9.421875 0 
z
" id="DejaVuSans-108"/>
      </defs>
      <g transform="translate(391.928906 474.35625)scale(0.1 -0.1)">
       <use xlink:href="#DejaVuSans-115"/>
       <use x="52.099609" xlink:href="#DejaVuSans-101"/>
       <use x="113.623047" xlink:href="#DejaVuSans-114"/>
       <use x="154.736328" xlink:href="#DejaVuSans-105"/>
       <use x="182.519531" xlink:href="#DejaVuSans-97"/>
       <use x="243.798828" xlink:href="#DejaVuSans-108"/>
       <use x="271.582031" xlink:href="#DejaVuSans-32"/>
       <use x="303.369141" xlink:href="#DejaVuSans-50"/>
       <use x="366.992188" xlink:href="#DejaVuSans-32"/>
       <use x="398.779297" xlink:href="#DejaVuSans-40"/>
       <use x="437.792969" xlink:href="#DejaVuSans-49"/>
       <use x="501.416016" xlink:href="#DejaVuSans-41"/>
      </g>
     </g>
    </g>
    <g id="xtick_6">
     <g id="line2d_6">
      <g>
       <use style="stroke:#000000;stroke-width:0.8;" x="484.05" xlink:href="#m675004de90" y="448.56"/>
      </g>
     </g>
     <g id="text_6">
      <!-- MergeTrans -->
      <defs>
       <path d="M 45.40625 27.984375 
Q 45.40625 37.75 41.375 43.109375 
Q 37.359375 48.484375 30.078125 48.484375 
Q 22.859375 48.484375 18.828125 43.109375 
Q 14.796875 37.75 14.796875 27.984375 
Q 14.796875 18.265625 18.828125 12.890625 
Q 22.859375 7.515625 30.078125 7.515625 
Q 37.359375 7.515625 41.375 12.890625 
Q 45.40625 18.265625 45.40625 27.984375 
z
M 54.390625 6.78125 
Q 54.390625 -7.171875 48.1875 -13.984375 
Q 42 -20.796875 29.203125 -20.796875 
Q 24.46875 -20.796875 20.265625 -20.09375 
Q 16.0625 -19.390625 12.109375 -17.921875 
L 12.109375 -9.1875 
Q 16.0625 -11.328125 19.921875 -12.34375 
Q 23.78125 -13.375 27.78125 -13.375 
Q 36.625 -13.375 41.015625 -8.765625 
Q 45.40625 -4.15625 45.40625 5.171875 
L 45.40625 9.625 
Q 42.625 4.78125 38.28125 2.390625 
Q 33.9375 0 27.875 0 
Q 17.828125 0 11.671875 7.65625 
Q 5.515625 15.328125 5.515625 27.984375 
Q 5.515625 40.671875 11.671875 48.328125 
Q 17.828125 56 27.875 56 
Q 33.9375 56 38.28125 53.609375 
Q 42.625 51.21875 45.40625 46.390625 
L 45.40625 54.6875 
L 54.390625 54.6875 
z
" id="DejaVuSans-103"/>
       <path d="M -0.296875 72.90625 
L 61.375 72.90625 
L 61.375 64.59375 
L 35.5 64.59375 
L 35.5 0 
L 25.59375 0 
L 25.59375 64.59375 
L -0.296875 64.59375 
z
" id="DejaVuSans-84"/>
      </defs>
      <g transform="translate(455.23125 463.158437)scale(0.1 -0.1)">
       <use xlink:href="#DejaVuSans-77"/>
       <use x="86.279297" xlink:href="#DejaVuSans-101"/>
       <use x="147.802734" xlink:href="#DejaVuSans-114"/>
       <use x="187.166016" xlink:href="#DejaVuSans-103"/>
       <use x="250.642578" xlink:href="#DejaVuSans-101"/>
       <use x="312.166016" xlink:href="#DejaVuSans-84"/>
       <use x="358.5" xlink:href="#DejaVuSans-114"/>
       <use x="399.613281" xlink:href="#DejaVuSans-97"/>
       <use x="460.892578" xlink:href="#DejaVuSans-110"/>
       <use x="524.271484" xlink:href="#DejaVuSans-115"/>
      </g>
      <!-- 3PV (16) -->
      <defs>
       <path d="M 33.015625 40.375 
Q 26.375 40.375 22.484375 35.828125 
Q 18.609375 31.296875 18.609375 23.390625 
Q 18.609375 15.53125 22.484375 10.953125 
Q 26.375 6.390625 33.015625 6.390625 
Q 39.65625 6.390625 43.53125 10.953125 
Q 47.40625 15.53125 47.40625 23.390625 
Q 47.40625 31.296875 43.53125 35.828125 
Q 39.65625 40.375 33.015625 40.375 
z
M 52.59375 71.296875 
L 52.59375 62.3125 
Q 48.875 64.0625 45.09375 64.984375 
Q 41.3125 65.921875 37.59375 65.921875 
Q 27.828125 65.921875 22.671875 59.328125 
Q 17.53125 52.734375 16.796875 39.40625 
Q 19.671875 43.65625 24.015625 45.921875 
Q 28.375 48.1875 33.59375 48.1875 
Q 44.578125 48.1875 50.953125 41.515625 
Q 57.328125 34.859375 57.328125 23.390625 
Q 57.328125 12.15625 50.6875 5.359375 
Q 44.046875 -1.421875 33.015625 -1.421875 
Q 20.359375 -1.421875 13.671875 8.265625 
Q 6.984375 17.96875 6.984375 36.375 
Q 6.984375 53.65625 15.1875 63.9375 
Q 23.390625 74.21875 37.203125 74.21875 
Q 40.921875 74.21875 44.703125 73.484375 
Q 48.484375 72.75 52.59375 71.296875 
z
" id="DejaVuSans-54"/>
      </defs>
      <g transform="translate(462.580469 474.35625)scale(0.1 -0.1)">
       <use xlink:href="#DejaVuSans-51"/>
       <use x="63.623047" xlink:href="#DejaVuSans-80"/>
       <use x="123.925781" xlink:href="#DejaVuSans-86"/>
       <use x="192.333984" xlink:href="#DejaVuSans-32"/>
       <use x="224.121094" xlink:href="#DejaVuSans-40"/>
       <use x="263.134766" xlink:href="#DejaVuSans-49"/>
       <use x="326.757812" xlink:href="#DejaVuSans-54"/>
       <use x="390.380859" xlink:href="#DejaVuSans-41"/>
      </g>
     </g>
    </g>
    <g id="xtick_7">
     <g id="line2d_7">
      <g>
       <use style="stroke:#000000;stroke-width:0.8;" x="549.15" xlink:href="#m675004de90" y="448.56"/>
      </g>
     </g>
     <g id="text_7">
      <!-- STL sort -->
      <defs>
       <path d="M 53.515625 70.515625 
L 53.515625 60.890625 
Q 47.90625 63.578125 42.921875 64.890625 
Q 37.9375 66.21875 33.296875 66.21875 
Q 25.25 66.21875 20.875 63.09375 
Q 16.5 59.96875 16.5 54.203125 
Q 16.5 49.359375 19.40625 46.890625 
Q 22.3125 44.4375 30.421875 42.921875 
L 36.375 41.703125 
Q 47.40625 39.59375 52.65625 34.296875 
Q 57.90625 29 57.90625 20.125 
Q 57.90625 9.515625 50.796875 4.046875 
Q 43.703125 -1.421875 29.984375 -1.421875 
Q 24.8125 -1.421875 18.96875 -0.25 
Q 13.140625 0.921875 6.890625 3.21875 
L 6.890625 13.375 
Q 12.890625 10.015625 18.65625 8.296875 
Q 24.421875 6.59375 29.984375 6.59375 
Q 38.421875 6.59375 43.015625 9.90625 
Q 47.609375 13.234375 47.609375 19.390625 
Q 47.609375 24.75 44.3125 27.78125 
Q 41.015625 30.8125 33.5 32.328125 
L 27.484375 33.5 
Q 16.453125 35.6875 11.515625 40.375 
Q 6.59375 45.0625 6.59375 53.421875 
Q 6.59375 63.09375 13.40625 68.65625 
Q 20.21875 74.21875 32.171875 74.21875 
Q 37.3125 74.21875 42.625 73.28125 
Q 47.953125 72.359375 53.515625 70.515625 
z
" id="DejaVuSans-83"/>
      </defs>
      <g transform="translate(528.867188 463.158437)scale(0.1 -0.1)">
       <use xlink:href="#DejaVuSans-83"/>
       <use x="63.476562" xlink:href="#DejaVuSans-84"/>
       <use x="124.560547" xlink:href="#DejaVuSans-76"/>
       <use x="180.273438" xlink:href="#DejaVuSans-32"/>
       <use x="212.060547" xlink:href="#DejaVuSans-115"/>
       <use x="264.160156" xlink:href="#DejaVuSans-111"/>
       <use x="325.341797" xlink:href="#DejaVuSans-114"/>
       <use x="366.455078" xlink:href="#DejaVuSans-116"/>
      </g>
      <!-- 2 -->
      <g transform="translate(545.96875 474.35625)scale(0.1 -0.1)">
       <use xlink:href="#DejaVuSans-50"/>
      </g>
     </g>
    </g>
    <g id="xtick_8">
     <g id="line2d_8">
      <g>
       <use style="stroke:#000000;stroke-width:0.8;" x="614.25" xlink:href="#m675004de90" y="448.56"/>
      </g>
     </g>
     <g id="text_8">
      <!-- STL sort -->
      <g transform="translate(593.967188 463.158437)scale(0.1 -0.1)">
       <use xlink:href="#DejaVuSans-83"/>
       <use x="63.476562" xlink:href="#DejaVuSans-84"/>
       <use x="124.560547" xlink:href="#DejaVuSans-76"/>
       <use x="180.273438" xlink:href="#DejaVuSans-32"/>
       <use x="212.060547" xlink:href="#DejaVuSans-115"/>
       <use x="264.160156" xlink:href="#DejaVuSans-111"/>
       <use x="325.341797" xlink:href="#DejaVuSans-114"/>
       <use x="366.455078" xlink:href="#DejaVuSans-116"/>
      </g>
      <!-- 2PV -->
      <g transform="translate(604.633594 474.35625)scale(0.1 -0.1)">
       <use xlink:href="#DejaVuSans-50"/>
       <use x="63.623047" xlink:href="#DejaVuSans-80"/>
       <use x="123.925781" xlink:href="#DejaVuSans-86"/>
      </g>
     </g>
    </g>
    <g id="xtick_9">
     <g id="line2d_9">
      <g>
       <use style="stroke:#000000;stroke-width:0.8;" x="679.35" xlink:href="#m675004de90" y="448.56"/>
      </g>
     </g>
     <g id="text_9">
      <!-- STL sort -->
      <g transform="translate(659.067188 463.158437)scale(0.1 -0.1)">
       <use xlink:href="#DejaVuSans-83"/>
       <use x="63.476562" xlink:href="#DejaVuSans-84"/>
       <use x="124.560547" xlink:href="#DejaVuSans-76"/>
       <use x="180.273438" xlink:href="#DejaVuSans-32"/>
       <use x="212.060547" xlink:href="#DejaVuSans-115"/>
       <use x="264.160156" xlink:href="#DejaVuSans-111"/>
       <use x="325.341797" xlink:href="#DejaVuSans-114"/>
       <use x="366.455078" xlink:href="#DejaVuSans-116"/>
      </g>
      <!-- 3PV -->
      <g transform="translate(669.733594 474.35625)scale(0.1 -0.1)">
       <use xlink:href="#DejaVuSans-51"/>
       <use x="63.623047" xlink:href="#DejaVuSans-80"/>
       <use x="123.925781" xlink:href="#DejaVuSans-86"/>
      </g>
     </g>
    </g>
    <g id="xtick_10">
     <g id="line2d_10">
      <g>
       <use style="stroke:#000000;stroke-width:0.8;" x="744.45" xlink:href="#m675004de90" y="448.56"/>
      </g>
     </g>
     <g id="text_10">
      <!-- ScanTrans -->
      <defs>
       <path d="M 48.78125 52.59375 
L 48.78125 44.1875 
Q 44.96875 46.296875 41.140625 47.34375 
Q 37.3125 48.390625 33.40625 48.390625 
Q 24.65625 48.390625 19.8125 42.84375 
Q 14.984375 37.3125 14.984375 27.296875 
Q 14.984375 17.28125 19.8125 11.734375 
Q 24.65625 6.203125 33.40625 6.203125 
Q 37.3125 6.203125 41.140625 7.25 
Q 44.96875 8.296875 48.78125 10.40625 
L 48.78125 2.09375 
Q 45.015625 0.34375 40.984375 -0.53125 
Q 36.96875 -1.421875 32.421875 -1.421875 
Q 20.0625 -1.421875 12.78125 6.34375 
Q 5.515625 14.109375 5.515625 27.296875 
Q 5.515625 40.671875 12.859375 48.328125 
Q 20.21875 56 33.015625 56 
Q 37.15625 56 41.109375 55.140625 
Q 45.0625 54.296875 48.78125 52.59375 
z
" id="DejaVuSans-99"/>
      </defs>
      <g transform="translate(719.084375 463.158437)scale(0.1 -0.1)">
       <use xlink:href="#DejaVuSans-83"/>
       <use x="63.476562" xlink:href="#DejaVuSans-99"/>
       <use x="118.457031" xlink:href="#DejaVuSans-97"/>
       <use x="179.736328" xlink:href="#DejaVuSans-110"/>
       <use x="243.115234" xlink:href="#DejaVuSans-84"/>
       <use x="289.449219" xlink:href="#DejaVuSans-114"/>
       <use x="330.5625" xlink:href="#DejaVuSans-97"/>
       <use x="391.841797" xlink:href="#DejaVuSans-110"/>
       <use x="455.220703" xlink:href="#DejaVuSans-115"/>
      </g>
      <!-- 3PV (21) -->
      <g transform="translate(722.980469 474.35625)scale(0.1 -0.1)">
       <use xlink:href="#DejaVuSans-51"/>
       <use x="63.623047" xlink:href="#DejaVuSans-80"/>
       <use x="123.925781" xlink:href="#DejaVuSans-86"/>
       <use x="192.333984" xlink:href="#DejaVuSans-32"/>
       <use x="224.121094" xlink:href="#DejaVuSans-40"/>
       <use x="263.134766" xlink:href="#DejaVuSans-50"/>
       <use x="326.757812" xlink:href="#DejaVuSans-49"/>
       <use x="390.380859" xlink:href="#DejaVuSans-41"/>
      </g>
     </g>
    </g>
    <g id="xtick_11">
     <g id="line2d_11">
      <g>
       <use style="stroke:#000000;stroke-width:0.8;" x="809.55" xlink:href="#m675004de90" y="448.56"/>
      </g>
     </g>
     <g id="text_11">
      <!-- TBB sort -->
      <defs>
       <path d="M 19.671875 34.8125 
L 19.671875 8.109375 
L 35.5 8.109375 
Q 43.453125 8.109375 47.28125 11.40625 
Q 51.125 14.703125 51.125 21.484375 
Q 51.125 28.328125 47.28125 31.5625 
Q 43.453125 34.8125 35.5 34.8125 
z
M 19.671875 64.796875 
L 19.671875 42.828125 
L 34.28125 42.828125 
Q 41.5 42.828125 45.03125 45.53125 
Q 48.578125 48.25 48.578125 53.8125 
Q 48.578125 59.328125 45.03125 62.0625 
Q 41.5 64.796875 34.28125 64.796875 
z
M 9.8125 72.90625 
L 35.015625 72.90625 
Q 46.296875 72.90625 52.390625 68.21875 
Q 58.5 63.53125 58.5 54.890625 
Q 58.5 48.1875 55.375 44.234375 
Q 52.25 40.28125 46.1875 39.3125 
Q 53.46875 37.75 57.5 32.78125 
Q 61.53125 27.828125 61.53125 20.40625 
Q 61.53125 10.640625 54.890625 5.3125 
Q 48.25 0 35.984375 0 
L 9.8125 0 
z
" id="DejaVuSans-66"/>
      </defs>
      <g transform="translate(788.366406 463.158437)scale(0.1 -0.1)">
       <use xlink:href="#DejaVuSans-84"/>
       <use x="61.083984" xlink:href="#DejaVuSans-66"/>
       <use x="129.6875" xlink:href="#DejaVuSans-66"/>
       <use x="198.291016" xlink:href="#DejaVuSans-32"/>
       <use x="230.078125" xlink:href="#DejaVuSans-115"/>
       <use x="282.177734" xlink:href="#DejaVuSans-111"/>
       <use x="343.359375" xlink:href="#DejaVuSans-114"/>
       <use x="384.472656" xlink:href="#DejaVuSans-116"/>
      </g>
      <!-- 2PV (42) -->
      <g transform="translate(788.080469 474.35625)scale(0.1 -0.1)">
       <use xlink:href="#DejaVuSans-50"/>
       <use x="63.623047" xlink:href="#DejaVuSans-80"/>
       <use x="123.925781" xlink:href="#DejaVuSans-86"/>
       <use x="192.333984" xlink:href="#DejaVuSans-32"/>
       <use x="224.121094" xlink:href="#DejaVuSans-40"/>
       <use x="263.134766" xlink:href="#DejaVuSans-52"/>
       <use x="326.757812" xlink:href="#DejaVuSans-50"/>
       <use x="390.380859" xlink:href="#DejaVuSans-41"/>
      </g>
     </g>
    </g>
    <g id="xtick_12">
     <g id="line2d_12">
      <g>
       <use style="stroke:#000000;stroke-width:0.8;" x="874.65" xlink:href="#m675004de90" y="448.56"/>
      </g>
     </g>
     <g id="text_12">
      <!-- TBB sort -->
      <g transform="translate(853.466406 463.158437)scale(0.1 -0.1)">
       <use xlink:href="#DejaVuSans-84"/>
       <use x="61.083984" xlink:href="#DejaVuSans-66"/>
       <use x="129.6875" xlink:href="#DejaVuSans-66"/>
       <use x="198.291016" xlink:href="#DejaVuSans-32"/>
       <use x="230.078125" xlink:href="#DejaVuSans-115"/>
       <use x="282.177734" xlink:href="#DejaVuSans-111"/>
       <use x="343.359375" xlink:href="#DejaVuSans-114"/>
       <use x="384.472656" xlink:href="#DejaVuSans-116"/>
      </g>
      <!-- 3PV (41) -->
      <g transform="translate(853.180469 474.35625)scale(0.1 -0.1)">
       <use xlink:href="#DejaVuSans-51"/>
       <use x="63.623047" xlink:href="#DejaVuSans-80"/>
       <use x="123.925781" xlink:href="#DejaVuSans-86"/>
       <use x="192.333984" xlink:href="#DejaVuSans-32"/>
       <use x="224.121094" xlink:href="#DejaVuSans-40"/>
       <use x="263.134766" xlink:href="#DejaVuSans-52"/>
       <use x="326.757812" xlink:href="#DejaVuSans-49"/>
       <use x="390.380859" xlink:href="#DejaVuSans-41"/>
      </g>
     </g>
    </g>
    <g id="text_13">
     <!-- name -->
     <g transform="translate(502.420313 488.034375)scale(0.1 -0.1)">
      <use xlink:href="#DejaVuSans-110"/>
      <use x="63.378906" xlink:href="#DejaVuSans-97"/>
      <use x="124.658203" xlink:href="#DejaVuSans-109"/>
      <use x="222.070312" xlink:href="#DejaVuSans-101"/>
     </g>
    </g>
   </g>
   <g id="matplotlib.axis_2">
    <g id="ytick_1">
     <g id="line2d_13">
      <path clip-path="url(#p533ac19d22)" d="M 126 444.154524 
L 907.2 444.154524 
" style="fill:none;stroke:#b0b0b0;stroke-dasharray:5.12,1.28,0.8,1.28;stroke-dashoffset:0;stroke-width:0.8;"/>
     </g>
     <g id="line2d_14">
      <defs>
       <path d="M 0 0 
L -3.5 0 
" id="m79c2623c94" style="stroke:#000000;stroke-width:0.8;"/>
      </defs>
      <g>
       <use style="stroke:#000000;stroke-width:0.8;" x="126" xlink:href="#m79c2623c94" y="444.154524"/>
      </g>
     </g>
     <g id="text_14">
      <!-- 0.00 -->
      <defs>
       <path d="M 31.78125 66.40625 
Q 24.171875 66.40625 20.328125 58.90625 
Q 16.5 51.421875 16.5 36.375 
Q 16.5 21.390625 20.328125 13.890625 
Q 24.171875 6.390625 31.78125 6.390625 
Q 39.453125 6.390625 43.28125 13.890625 
Q 47.125 21.390625 47.125 36.375 
Q 47.125 51.421875 43.28125 58.90625 
Q 39.453125 66.40625 31.78125 66.40625 
z
M 31.78125 74.21875 
Q 44.046875 74.21875 50.515625 64.515625 
Q 56.984375 54.828125 56.984375 36.375 
Q 56.984375 17.96875 50.515625 8.265625 
Q 44.046875 -1.421875 31.78125 -1.421875 
Q 19.53125 -1.421875 13.0625 8.265625 
Q 6.59375 17.96875 6.59375 36.375 
Q 6.59375 54.828125 13.0625 64.515625 
Q 19.53125 74.21875 31.78125 74.21875 
z
" id="DejaVuSans-48"/>
       <path d="M 10.6875 12.40625 
L 21 12.40625 
L 21 0 
L 10.6875 0 
z
" id="DejaVuSans-46"/>
      </defs>
      <g transform="translate(96.734375 447.953742)scale(0.1 -0.1)">
       <use xlink:href="#DejaVuSans-48"/>
       <use x="63.623047" xlink:href="#DejaVuSans-46"/>
       <use x="95.410156" xlink:href="#DejaVuSans-48"/>
       <use x="159.033203" xlink:href="#DejaVuSans-48"/>
      </g>
     </g>
    </g>
    <g id="ytick_2">
     <g id="line2d_15">
      <path clip-path="url(#p533ac19d22)" d="M 126 396.875602 
L 907.2 396.875602 
" style="fill:none;stroke:#b0b0b0;stroke-dasharray:5.12,1.28,0.8,1.28;stroke-dashoffset:0;stroke-width:0.8;"/>
     </g>
     <g id="line2d_16">
      <g>
       <use style="stroke:#000000;stroke-width:0.8;" x="126" xlink:href="#m79c2623c94" y="396.875602"/>
      </g>
     </g>
     <g id="text_15">
      <!-- 0.25 -->
      <defs>
       <path d="M 10.796875 72.90625 
L 49.515625 72.90625 
L 49.515625 64.59375 
L 19.828125 64.59375 
L 19.828125 46.734375 
Q 21.96875 47.46875 24.109375 47.828125 
Q 26.265625 48.1875 28.421875 48.1875 
Q 40.625 48.1875 47.75 41.5 
Q 54.890625 34.8125 54.890625 23.390625 
Q 54.890625 11.625 47.5625 5.09375 
Q 40.234375 -1.421875 26.90625 -1.421875 
Q 22.3125 -1.421875 17.546875 -0.640625 
Q 12.796875 0.140625 7.71875 1.703125 
L 7.71875 11.625 
Q 12.109375 9.234375 16.796875 8.0625 
Q 21.484375 6.890625 26.703125 6.890625 
Q 35.15625 6.890625 40.078125 11.328125 
Q 45.015625 15.765625 45.015625 23.390625 
Q 45.015625 31 40.078125 35.4375 
Q 35.15625 39.890625 26.703125 39.890625 
Q 22.75 39.890625 18.8125 39.015625 
Q 14.890625 38.140625 10.796875 36.28125 
z
" id="DejaVuSans-53"/>
      </defs>
      <g transform="translate(96.734375 400.67482)scale(0.1 -0.1)">
       <use xlink:href="#DejaVuSans-48"/>
       <use x="63.623047" xlink:href="#DejaVuSans-46"/>
       <use x="95.410156" xlink:href="#DejaVuSans-50"/>
       <use x="159.033203" xlink:href="#DejaVuSans-53"/>
      </g>
     </g>
    </g>
    <g id="ytick_3">
     <g id="line2d_17">
      <path clip-path="url(#p533ac19d22)" d="M 126 349.59668 
L 907.2 349.59668 
" style="fill:none;stroke:#b0b0b0;stroke-dasharray:5.12,1.28,0.8,1.28;stroke-dashoffset:0;stroke-width:0.8;"/>
     </g>
     <g id="line2d_18">
      <g>
       <use style="stroke:#000000;stroke-width:0.8;" x="126" xlink:href="#m79c2623c94" y="349.59668"/>
      </g>
     </g>
     <g id="text_16">
      <!-- 0.50 -->
      <g transform="translate(96.734375 353.395898)scale(0.1 -0.1)">
       <use xlink:href="#DejaVuSans-48"/>
       <use x="63.623047" xlink:href="#DejaVuSans-46"/>
       <use x="95.410156" xlink:href="#DejaVuSans-53"/>
       <use x="159.033203" xlink:href="#DejaVuSans-48"/>
      </g>
     </g>
    </g>
    <g id="ytick_4">
     <g id="line2d_19">
      <path clip-path="url(#p533ac19d22)" d="M 126 302.317758 
L 907.2 302.317758 
" style="fill:none;stroke:#b0b0b0;stroke-dasharray:5.12,1.28,0.8,1.28;stroke-dashoffset:0;stroke-width:0.8;"/>
     </g>
     <g id="line2d_20">
      <g>
       <use style="stroke:#000000;stroke-width:0.8;" x="126" xlink:href="#m79c2623c94" y="302.317758"/>
      </g>
     </g>
     <g id="text_17">
      <!-- 0.75 -->
      <defs>
       <path d="M 8.203125 72.90625 
L 55.078125 72.90625 
L 55.078125 68.703125 
L 28.609375 0 
L 18.3125 0 
L 43.21875 64.59375 
L 8.203125 64.59375 
z
" id="DejaVuSans-55"/>
      </defs>
      <g transform="translate(96.734375 306.116976)scale(0.1 -0.1)">
       <use xlink:href="#DejaVuSans-48"/>
       <use x="63.623047" xlink:href="#DejaVuSans-46"/>
       <use x="95.410156" xlink:href="#DejaVuSans-55"/>
       <use x="159.033203" xlink:href="#DejaVuSans-53"/>
      </g>
     </g>
    </g>
    <g id="ytick_5">
     <g id="line2d_21">
      <path clip-path="url(#p533ac19d22)" d="M 126 255.038836 
L 907.2 255.038836 
" style="fill:none;stroke:#b0b0b0;stroke-dasharray:5.12,1.28,0.8,1.28;stroke-dashoffset:0;stroke-width:0.8;"/>
     </g>
     <g id="line2d_22">
      <g>
       <use style="stroke:#000000;stroke-width:0.8;" x="126" xlink:href="#m79c2623c94" y="255.038836"/>
      </g>
     </g>
     <g id="text_18">
      <!-- 1.00 -->
      <g transform="translate(96.734375 258.838054)scale(0.1 -0.1)">
       <use xlink:href="#DejaVuSans-49"/>
       <use x="63.623047" xlink:href="#DejaVuSans-46"/>
       <use x="95.410156" xlink:href="#DejaVuSans-48"/>
       <use x="159.033203" xlink:href="#DejaVuSans-48"/>
      </g>
     </g>
    </g>
    <g id="ytick_6">
     <g id="line2d_23">
      <path clip-path="url(#p533ac19d22)" d="M 126 207.759914 
L 907.2 207.759914 
" style="fill:none;stroke:#b0b0b0;stroke-dasharray:5.12,1.28,0.8,1.28;stroke-dashoffset:0;stroke-width:0.8;"/>
     </g>
     <g id="line2d_24">
      <g>
       <use style="stroke:#000000;stroke-width:0.8;" x="126" xlink:href="#m79c2623c94" y="207.759914"/>
      </g>
     </g>
     <g id="text_19">
      <!-- 1.25 -->
      <g transform="translate(96.734375 211.559132)scale(0.1 -0.1)">
       <use xlink:href="#DejaVuSans-49"/>
       <use x="63.623047" xlink:href="#DejaVuSans-46"/>
       <use x="95.410156" xlink:href="#DejaVuSans-50"/>
       <use x="159.033203" xlink:href="#DejaVuSans-53"/>
      </g>
     </g>
    </g>
    <g id="ytick_7">
     <g id="line2d_25">
      <path clip-path="url(#p533ac19d22)" d="M 126 160.480992 
L 907.2 160.480992 
" style="fill:none;stroke:#b0b0b0;stroke-dasharray:5.12,1.28,0.8,1.28;stroke-dashoffset:0;stroke-width:0.8;"/>
     </g>
     <g id="line2d_26">
      <g>
       <use style="stroke:#000000;stroke-width:0.8;" x="126" xlink:href="#m79c2623c94" y="160.480992"/>
      </g>
     </g>
     <g id="text_20">
      <!-- 1.50 -->
      <g transform="translate(96.734375 164.28021)scale(0.1 -0.1)">
       <use xlink:href="#DejaVuSans-49"/>
       <use x="63.623047" xlink:href="#DejaVuSans-46"/>
       <use x="95.410156" xlink:href="#DejaVuSans-53"/>
       <use x="159.033203" xlink:href="#DejaVuSans-48"/>
      </g>
     </g>
    </g>
    <g id="ytick_8">
     <g id="line2d_27">
      <path clip-path="url(#p533ac19d22)" d="M 126 113.20207 
L 907.2 113.20207 
" style="fill:none;stroke:#b0b0b0;stroke-dasharray:5.12,1.28,0.8,1.28;stroke-dashoffset:0;stroke-width:0.8;"/>
     </g>
     <g id="line2d_28">
      <g>
       <use style="stroke:#000000;stroke-width:0.8;" x="126" xlink:href="#m79c2623c94" y="113.20207"/>
      </g>
     </g>
     <g id="text_21">
      <!-- 1.75 -->
      <g transform="translate(96.734375 117.001288)scale(0.1 -0.1)">
       <use xlink:href="#DejaVuSans-49"/>
       <use x="63.623047" xlink:href="#DejaVuSans-46"/>
       <use x="95.410156" xlink:href="#DejaVuSans-55"/>
       <use x="159.033203" xlink:href="#DejaVuSans-53"/>
      </g>
     </g>
    </g>
    <g id="ytick_9">
     <g id="line2d_29">
      <path clip-path="url(#p533ac19d22)" d="M 126 65.923148 
L 907.2 65.923148 
" style="fill:none;stroke:#b0b0b0;stroke-dasharray:5.12,1.28,0.8,1.28;stroke-dashoffset:0;stroke-width:0.8;"/>
     </g>
     <g id="line2d_30">
      <g>
       <use style="stroke:#000000;stroke-width:0.8;" x="126" xlink:href="#m79c2623c94" y="65.923148"/>
      </g>
     </g>
     <g id="text_22">
      <!-- 2.00 -->
      <g transform="translate(96.734375 69.722366)scale(0.1 -0.1)">
       <use xlink:href="#DejaVuSans-50"/>
       <use x="63.623047" xlink:href="#DejaVuSans-46"/>
       <use x="95.410156" xlink:href="#DejaVuSans-48"/>
       <use x="159.033203" xlink:href="#DejaVuSans-48"/>
      </g>
     </g>
    </g>
    <g id="text_23">
     <!-- duration (s) -->
     <defs>
      <path d="M 45.40625 46.390625 
L 45.40625 75.984375 
L 54.390625 75.984375 
L 54.390625 0 
L 45.40625 0 
L 45.40625 8.203125 
Q 42.578125 3.328125 38.25 0.953125 
Q 33.9375 -1.421875 27.875 -1.421875 
Q 17.96875 -1.421875 11.734375 6.484375 
Q 5.515625 14.40625 5.515625 27.296875 
Q 5.515625 40.1875 11.734375 48.09375 
Q 17.96875 56 27.875 56 
Q 33.9375 56 38.25 53.625 
Q 42.578125 51.265625 45.40625 46.390625 
z
M 14.796875 27.296875 
Q 14.796875 17.390625 18.875 11.75 
Q 22.953125 6.109375 30.078125 6.109375 
Q 37.203125 6.109375 41.296875 11.75 
Q 45.40625 17.390625 45.40625 27.296875 
Q 45.40625 37.203125 41.296875 42.84375 
Q 37.203125 48.484375 30.078125 48.484375 
Q 22.953125 48.484375 18.875 42.84375 
Q 14.796875 37.203125 14.796875 27.296875 
z
" id="DejaVuSans-100"/>
     </defs>
     <g transform="translate(90.654687 283.655156)rotate(-90)scale(0.1 -0.1)">
      <use xlink:href="#DejaVuSans-100"/>
      <use x="63.476562" xlink:href="#DejaVuSans-117"/>
      <use x="126.855469" xlink:href="#DejaVuSans-114"/>
      <use x="167.96875" xlink:href="#DejaVuSans-97"/>
      <use x="229.248047" xlink:href="#DejaVuSans-116"/>
      <use x="268.457031" xlink:href="#DejaVuSans-105"/>
      <use x="296.240234" xlink:href="#DejaVuSans-111"/>
      <use x="357.421875" xlink:href="#DejaVuSans-110"/>
      <use x="420.800781" xlink:href="#DejaVuSans-32"/>
      <use x="452.587891" xlink:href="#DejaVuSans-40"/>
      <use x="491.601562" xlink:href="#DejaVuSans-115"/>
      <use x="543.701172" xlink:href="#DejaVuSans-41"/>
     </g>
    </g>
   </g>
   <g id="line2d_31">
    <path clip-path="url(#p533ac19d22)" d="M 142.275 354.903168 
L 174.825 354.903168 
L 174.825 354.751129 
L 142.275 354.751129 
L 142.275 354.903168 
" style="fill:none;stroke:#696969;stroke-linecap:square;"/>
   </g>
   <g id="line2d_32">
    <path clip-path="url(#p533ac19d22)" d="M 158.55 354.903168 
L 158.55 355.081043 
" style="fill:none;stroke:#696969;stroke-linecap:square;"/>
   </g>
   <g id="line2d_33">
    <path clip-path="url(#p533ac19d22)" d="M 158.55 354.751129 
L 158.55 354.664243 
" style="fill:none;stroke:#696969;stroke-linecap:square;"/>
   </g>
   <g id="line2d_34">
    <path clip-path="url(#p533ac19d22)" d="M 150.4125 355.081043 
L 166.6875 355.081043 
" style="fill:none;stroke:#4169e1;stroke-linecap:square;"/>
   </g>
   <g id="line2d_35">
    <path clip-path="url(#p533ac19d22)" d="M 150.4125 354.664243 
L 166.6875 354.664243 
" style="fill:none;stroke:#4169e1;stroke-linecap:square;"/>
   </g>
   <g id="line2d_36"/>
   <g id="line2d_37">
    <path clip-path="url(#p533ac19d22)" d="M 207.375 354.473811 
L 239.925 354.473811 
L 239.925 354.349727 
L 207.375 354.349727 
L 207.375 354.473811 
" style="fill:none;stroke:#696969;stroke-linecap:square;"/>
   </g>
   <g id="line2d_38">
    <path clip-path="url(#p533ac19d22)" d="M 223.65 354.473811 
L 223.65 354.519959 
" style="fill:none;stroke:#696969;stroke-linecap:square;"/>
   </g>
   <g id="line2d_39">
    <path clip-path="url(#p533ac19d22)" d="M 223.65 354.349727 
L 223.65 354.268995 
" style="fill:none;stroke:#696969;stroke-linecap:square;"/>
   </g>
   <g id="line2d_40">
    <path clip-path="url(#p533ac19d22)" d="M 215.5125 354.519959 
L 231.7875 354.519959 
" style="fill:none;stroke:#4169e1;stroke-linecap:square;"/>
   </g>
   <g id="line2d_41">
    <path clip-path="url(#p533ac19d22)" d="M 215.5125 354.268995 
L 231.7875 354.268995 
" style="fill:none;stroke:#4169e1;stroke-linecap:square;"/>
   </g>
   <g id="line2d_42">
    <defs>
     <path d="M -3 0 
L 3 0 
M 0 3 
L 0 -3 
" id="m9b00c9e6a2" style="stroke:#0000ff;"/>
    </defs>
    <g clip-path="url(#p533ac19d22)">
     <use style="fill:#0000ff;stroke:#0000ff;" x="223.65" xlink:href="#m9b00c9e6a2" y="354.832559"/>
    </g>
   </g>
   <g id="line2d_43">
    <path clip-path="url(#p533ac19d22)" d="M 272.475 353.319788 
L 305.025 353.319788 
L 305.025 353.292555 
L 272.475 353.292555 
L 272.475 353.319788 
" style="fill:none;stroke:#696969;stroke-linecap:square;"/>
   </g>
   <g id="line2d_44">
    <path clip-path="url(#p533ac19d22)" d="M 288.75 353.319788 
L 288.75 353.323395 
" style="fill:none;stroke:#696969;stroke-linecap:square;"/>
   </g>
   <g id="line2d_45">
    <path clip-path="url(#p533ac19d22)" d="M 288.75 353.292555 
L 288.75 353.290661 
" style="fill:none;stroke:#696969;stroke-linecap:square;"/>
   </g>
   <g id="line2d_46">
    <path clip-path="url(#p533ac19d22)" d="M 280.6125 353.323395 
L 296.8875 353.323395 
" style="fill:none;stroke:#4169e1;stroke-linecap:square;"/>
   </g>
   <g id="line2d_47">
    <path clip-path="url(#p533ac19d22)" d="M 280.6125 353.290661 
L 296.8875 353.290661 
" style="fill:none;stroke:#4169e1;stroke-linecap:square;"/>
   </g>
   <g id="line2d_48">
    <g clip-path="url(#p533ac19d22)">
     <use style="fill:#0000ff;stroke:#0000ff;" x="288.75" xlink:href="#m9b00c9e6a2" y="353.486977"/>
     <use style="fill:#0000ff;stroke:#0000ff;" x="288.75" xlink:href="#m9b00c9e6a2" y="353.149037"/>
    </g>
   </g>
   <g id="line2d_49">
    <path clip-path="url(#p533ac19d22)" d="M 337.575 423.81542 
L 370.125 423.81542 
L 370.125 423.766814 
L 337.575 423.766814 
L 337.575 423.81542 
" style="fill:none;stroke:#696969;stroke-linecap:square;"/>
   </g>
   <g id="line2d_50">
    <path clip-path="url(#p533ac19d22)" d="M 353.85 423.81542 
L 353.85 423.850679 
" style="fill:none;stroke:#696969;stroke-linecap:square;"/>
   </g>
   <g id="line2d_51">
    <path clip-path="url(#p533ac19d22)" d="M 353.85 423.766814 
L 353.85 423.750447 
" style="fill:none;stroke:#696969;stroke-linecap:square;"/>
   </g>
   <g id="line2d_52">
    <path clip-path="url(#p533ac19d22)" d="M 345.7125 423.850679 
L 361.9875 423.850679 
" style="fill:none;stroke:#4169e1;stroke-linecap:square;"/>
   </g>
   <g id="line2d_53">
    <path clip-path="url(#p533ac19d22)" d="M 345.7125 423.750447 
L 361.9875 423.750447 
" style="fill:none;stroke:#4169e1;stroke-linecap:square;"/>
   </g>
   <g id="line2d_54">
    <g clip-path="url(#p533ac19d22)">
     <use style="fill:#0000ff;stroke:#0000ff;" x="353.85" xlink:href="#m9b00c9e6a2" y="423.563419"/>
    </g>
   </g>
   <g id="line2d_55">
    <path clip-path="url(#p533ac19d22)" d="M 402.675 344.639877 
L 435.225 344.639877 
L 435.225 344.616791 
L 402.675 344.616791 
L 402.675 344.639877 
" style="fill:none;stroke:#696969;stroke-linecap:square;"/>
   </g>
   <g id="line2d_56">
    <path clip-path="url(#p533ac19d22)" d="M 418.95 344.639877 
L 418.95 344.66339 
" style="fill:none;stroke:#696969;stroke-linecap:square;"/>
   </g>
   <g id="line2d_57">
    <path clip-path="url(#p533ac19d22)" d="M 418.95 344.616791 
L 418.95 344.609104 
" style="fill:none;stroke:#696969;stroke-linecap:square;"/>
   </g>
   <g id="line2d_58">
    <path clip-path="url(#p533ac19d22)" d="M 410.8125 344.66339 
L 427.0875 344.66339 
" style="fill:none;stroke:#4169e1;stroke-linecap:square;"/>
   </g>
   <g id="line2d_59">
    <path clip-path="url(#p533ac19d22)" d="M 410.8125 344.609104 
L 427.0875 344.609104 
" style="fill:none;stroke:#4169e1;stroke-linecap:square;"/>
   </g>
   <g id="line2d_60"/>
   <g id="line2d_61">
    <path clip-path="url(#p533ac19d22)" d="M 467.775 411.930063 
L 500.325 411.930063 
L 500.325 411.875302 
L 467.775 411.875302 
L 467.775 411.930063 
" style="fill:none;stroke:#696969;stroke-linecap:square;"/>
   </g>
   <g id="line2d_62">
    <path clip-path="url(#p533ac19d22)" d="M 484.05 411.930063 
L 484.05 411.9428 
" style="fill:none;stroke:#696969;stroke-linecap:square;"/>
   </g>
   <g id="line2d_63">
    <path clip-path="url(#p533ac19d22)" d="M 484.05 411.875302 
L 484.05 411.864346 
" style="fill:none;stroke:#696969;stroke-linecap:square;"/>
   </g>
   <g id="line2d_64">
    <path clip-path="url(#p533ac19d22)" d="M 475.9125 411.9428 
L 492.1875 411.9428 
" style="fill:none;stroke:#4169e1;stroke-linecap:square;"/>
   </g>
   <g id="line2d_65">
    <path clip-path="url(#p533ac19d22)" d="M 475.9125 411.864346 
L 492.1875 411.864346 
" style="fill:none;stroke:#4169e1;stroke-linecap:square;"/>
   </g>
   <g id="line2d_66">
    <g clip-path="url(#p533ac19d22)">
     <use style="fill:#0000ff;stroke:#0000ff;" x="484.05" xlink:href="#m9b00c9e6a2" y="411.586509"/>
    </g>
   </g>
   <g id="line2d_67">
    <path clip-path="url(#p533ac19d22)" d="M 532.875 80.441932 
L 565.425 80.441932 
L 565.425 80.302744 
L 532.875 80.302744 
L 532.875 80.441932 
" style="fill:none;stroke:#696969;stroke-linecap:square;"/>
   </g>
   <g id="line2d_68">
    <path clip-path="url(#p533ac19d22)" d="M 549.15 80.441932 
L 549.15 80.531975 
" style="fill:none;stroke:#696969;stroke-linecap:square;"/>
   </g>
   <g id="line2d_69">
    <path clip-path="url(#p533ac19d22)" d="M 549.15 80.302744 
L 549.15 80.265095 
" style="fill:none;stroke:#696969;stroke-linecap:square;"/>
   </g>
   <g id="line2d_70">
    <path clip-path="url(#p533ac19d22)" d="M 541.0125 80.531975 
L 557.2875 80.531975 
" style="fill:none;stroke:#4169e1;stroke-linecap:square;"/>
   </g>
   <g id="line2d_71">
    <path clip-path="url(#p533ac19d22)" d="M 541.0125 80.265095 
L 557.2875 80.265095 
" style="fill:none;stroke:#4169e1;stroke-linecap:square;"/>
   </g>
   <g id="line2d_72"/>
   <g id="line2d_73">
    <path clip-path="url(#p533ac19d22)" d="M 597.975 79.751196 
L 630.525 79.751196 
L 630.525 79.612774 
L 597.975 79.612774 
L 597.975 79.751196 
" style="fill:none;stroke:#696969;stroke-linecap:square;"/>
   </g>
   <g id="line2d_74">
    <path clip-path="url(#p533ac19d22)" d="M 614.25 79.751196 
L 614.25 79.847167 
" style="fill:none;stroke:#696969;stroke-linecap:square;"/>
   </g>
   <g id="line2d_75">
    <path clip-path="url(#p533ac19d22)" d="M 614.25 79.612774 
L 614.25 79.566716 
" style="fill:none;stroke:#696969;stroke-linecap:square;"/>
   </g>
   <g id="line2d_76">
    <path clip-path="url(#p533ac19d22)" d="M 606.1125 79.847167 
L 622.3875 79.847167 
" style="fill:none;stroke:#4169e1;stroke-linecap:square;"/>
   </g>
   <g id="line2d_77">
    <path clip-path="url(#p533ac19d22)" d="M 606.1125 79.566716 
L 622.3875 79.566716 
" style="fill:none;stroke:#4169e1;stroke-linecap:square;"/>
   </g>
   <g id="line2d_78">
    <g clip-path="url(#p533ac19d22)">
     <use style="fill:#0000ff;stroke:#0000ff;" x="614.25" xlink:href="#m9b00c9e6a2" y="79.352995"/>
    </g>
   </g>
   <g id="line2d_79">
    <path clip-path="url(#p533ac19d22)" d="M 663.075 78.744907 
L 695.625 78.744907 
L 695.625 78.588968 
L 663.075 78.588968 
L 663.075 78.744907 
" style="fill:none;stroke:#696969;stroke-linecap:square;"/>
   </g>
   <g id="line2d_80">
    <path clip-path="url(#p533ac19d22)" d="M 679.35 78.744907 
L 679.35 78.849986 
" style="fill:none;stroke:#696969;stroke-linecap:square;"/>
   </g>
   <g id="line2d_81">
    <path clip-path="url(#p533ac19d22)" d="M 679.35 78.588968 
L 679.35 78.571744 
" style="fill:none;stroke:#696969;stroke-linecap:square;"/>
   </g>
   <g id="line2d_82">
    <path clip-path="url(#p533ac19d22)" d="M 671.2125 78.849986 
L 687.4875 78.849986 
" style="fill:none;stroke:#4169e1;stroke-linecap:square;"/>
   </g>
   <g id="line2d_83">
    <path clip-path="url(#p533ac19d22)" d="M 671.2125 78.571744 
L 687.4875 78.571744 
" style="fill:none;stroke:#4169e1;stroke-linecap:square;"/>
   </g>
   <g id="line2d_84">
    <g clip-path="url(#p533ac19d22)">
     <use style="fill:#0000ff;stroke:#0000ff;" x="679.35" xlink:href="#m9b00c9e6a2" y="78.12"/>
    </g>
   </g>
   <g id="line2d_85">
    <path clip-path="url(#p533ac19d22)" d="M 728.175 430.909337 
L 760.725 430.909337 
L 760.725 430.880976 
L 728.175 430.880976 
L 728.175 430.909337 
" style="fill:none;stroke:#696969;stroke-linecap:square;"/>
   </g>
   <g id="line2d_86">
    <path clip-path="url(#p533ac19d22)" d="M 744.45 430.909337 
L 744.45 430.92 
" style="fill:none;stroke:#696969;stroke-linecap:square;"/>
   </g>
   <g id="line2d_87">
    <path clip-path="url(#p533ac19d22)" d="M 744.45 430.880976 
L 744.45 430.866525 
" style="fill:none;stroke:#696969;stroke-linecap:square;"/>
   </g>
   <g id="line2d_88">
    <path clip-path="url(#p533ac19d22)" d="M 736.3125 430.92 
L 752.5875 430.92 
" style="fill:none;stroke:#4169e1;stroke-linecap:square;"/>
   </g>
   <g id="line2d_89">
    <path clip-path="url(#p533ac19d22)" d="M 736.3125 430.866525 
L 752.5875 430.866525 
" style="fill:none;stroke:#4169e1;stroke-linecap:square;"/>
   </g>
   <g id="line2d_90">
    <g clip-path="url(#p533ac19d22)">
     <use style="fill:#0000ff;stroke:#0000ff;" x="744.45" xlink:href="#m9b00c9e6a2" y="430.801236"/>
    </g>
   </g>
   <g id="line2d_91">
    <path clip-path="url(#p533ac19d22)" d="M 793.275 387.000456 
L 825.825 387.000456 
L 825.825 386.241726 
L 793.275 386.241726 
L 793.275 387.000456 
" style="fill:none;stroke:#696969;stroke-linecap:square;"/>
   </g>
   <g id="line2d_92">
    <path clip-path="url(#p533ac19d22)" d="M 809.55 387.000456 
L 809.55 387.446879 
" style="fill:none;stroke:#696969;stroke-linecap:square;"/>
   </g>
   <g id="line2d_93">
    <path clip-path="url(#p533ac19d22)" d="M 809.55 386.241726 
L 809.55 386.144808 
" style="fill:none;stroke:#696969;stroke-linecap:square;"/>
   </g>
   <g id="line2d_94">
    <path clip-path="url(#p533ac19d22)" d="M 801.4125 387.446879 
L 817.6875 387.446879 
" style="fill:none;stroke:#4169e1;stroke-linecap:square;"/>
   </g>
   <g id="line2d_95">
    <path clip-path="url(#p533ac19d22)" d="M 801.4125 386.144808 
L 817.6875 386.144808 
" style="fill:none;stroke:#4169e1;stroke-linecap:square;"/>
   </g>
   <g id="line2d_96">
    <g clip-path="url(#p533ac19d22)">
     <use style="fill:#0000ff;stroke:#0000ff;" x="809.55" xlink:href="#m9b00c9e6a2" y="384.968715"/>
    </g>
   </g>
   <g id="line2d_97">
    <path clip-path="url(#p533ac19d22)" d="M 858.375 386.390835 
L 890.925 386.390835 
L 890.925 385.451592 
L 858.375 385.451592 
L 858.375 386.390835 
" style="fill:none;stroke:#696969;stroke-linecap:square;"/>
   </g>
   <g id="line2d_98">
    <path clip-path="url(#p533ac19d22)" d="M 874.65 386.390835 
L 874.65 386.728977 
" style="fill:none;stroke:#696969;stroke-linecap:square;"/>
   </g>
   <g id="line2d_99">
    <path clip-path="url(#p533ac19d22)" d="M 874.65 385.451592 
L 874.65 384.729429 
" style="fill:none;stroke:#696969;stroke-linecap:square;"/>
   </g>
   <g id="line2d_100">
    <path clip-path="url(#p533ac19d22)" d="M 866.5125 386.728977 
L 882.7875 386.728977 
" style="fill:none;stroke:#4169e1;stroke-linecap:square;"/>
   </g>
   <g id="line2d_101">
    <path clip-path="url(#p533ac19d22)" d="M 866.5125 384.729429 
L 882.7875 384.729429 
" style="fill:none;stroke:#4169e1;stroke-linecap:square;"/>
   </g>
   <g id="line2d_102"/>
   <g id="line2d_103">
    <path clip-path="url(#p533ac19d22)" d="M 142.275 354.81892 
L 174.825 354.81892 
L 174.825 354.736746 
L 142.275 354.736746 
L 142.275 354.81892 
" style="fill:none;stroke:#696969;stroke-linecap:square;"/>
   </g>
   <g id="line2d_104">
    <path clip-path="url(#p533ac19d22)" d="M 158.55 354.81892 
L 158.55 354.836301 
" style="fill:none;stroke:#696969;stroke-linecap:square;"/>
   </g>
   <g id="line2d_105">
    <path clip-path="url(#p533ac19d22)" d="M 158.55 354.736746 
L 158.55 354.719251 
" style="fill:none;stroke:#696969;stroke-linecap:square;"/>
   </g>
   <g id="line2d_106">
    <path clip-path="url(#p533ac19d22)" d="M 150.4125 354.836301 
L 166.6875 354.836301 
" style="fill:none;stroke:#b22222;stroke-linecap:square;"/>
   </g>
   <g id="line2d_107">
    <path clip-path="url(#p533ac19d22)" d="M 150.4125 354.719251 
L 166.6875 354.719251 
" style="fill:none;stroke:#b22222;stroke-linecap:square;"/>
   </g>
   <g id="line2d_108"/>
   <g id="line2d_109">
    <path clip-path="url(#p533ac19d22)" d="M 207.375 354.461006 
L 239.925 354.461006 
L 239.925 354.29668 
L 207.375 354.29668 
L 207.375 354.461006 
" style="fill:none;stroke:#696969;stroke-linecap:square;"/>
   </g>
   <g id="line2d_110">
    <path clip-path="url(#p533ac19d22)" d="M 223.65 354.461006 
L 223.65 354.582362 
" style="fill:none;stroke:#696969;stroke-linecap:square;"/>
   </g>
   <g id="line2d_111">
    <path clip-path="url(#p533ac19d22)" d="M 223.65 354.29668 
L 223.65 354.257813 
" style="fill:none;stroke:#696969;stroke-linecap:square;"/>
   </g>
   <g id="line2d_112">
    <path clip-path="url(#p533ac19d22)" d="M 215.5125 354.582362 
L 231.7875 354.582362 
" style="fill:none;stroke:#b22222;stroke-linecap:square;"/>
   </g>
   <g id="line2d_113">
    <path clip-path="url(#p533ac19d22)" d="M 215.5125 354.257813 
L 231.7875 354.257813 
" style="fill:none;stroke:#b22222;stroke-linecap:square;"/>
   </g>
   <g id="line2d_114"/>
   <g id="line2d_115">
    <path clip-path="url(#p533ac19d22)" d="M 272.475 353.381267 
L 305.025 353.381267 
L 305.025 353.290864 
L 272.475 353.290864 
L 272.475 353.381267 
" style="fill:none;stroke:#696969;stroke-linecap:square;"/>
   </g>
   <g id="line2d_116">
    <path clip-path="url(#p533ac19d22)" d="M 288.75 353.381267 
L 288.75 353.435351 
" style="fill:none;stroke:#696969;stroke-linecap:square;"/>
   </g>
   <g id="line2d_117">
    <path clip-path="url(#p533ac19d22)" d="M 288.75 353.290864 
L 288.75 353.274023 
" style="fill:none;stroke:#696969;stroke-linecap:square;"/>
   </g>
   <g id="line2d_118">
    <path clip-path="url(#p533ac19d22)" d="M 280.6125 353.435351 
L 296.8875 353.435351 
" style="fill:none;stroke:#b22222;stroke-linecap:square;"/>
   </g>
   <g id="line2d_119">
    <path clip-path="url(#p533ac19d22)" d="M 280.6125 353.274023 
L 296.8875 353.274023 
" style="fill:none;stroke:#b22222;stroke-linecap:square;"/>
   </g>
   <g id="line2d_120">
    <defs>
     <path d="M -3 0 
L 3 0 
M 0 3 
L 0 -3 
" id="m235536752b" style="stroke:#ff0000;"/>
    </defs>
    <g clip-path="url(#p533ac19d22)">
     <use style="fill:#ff0000;stroke:#ff0000;" x="288.75" xlink:href="#m235536752b" y="353.130686"/>
    </g>
   </g>
   <g id="line2d_121">
    <path clip-path="url(#p533ac19d22)" d="M 337.575 423.88303 
L 370.125 423.88303 
L 370.125 423.844164 
L 337.575 423.844164 
L 337.575 423.88303 
" style="fill:none;stroke:#696969;stroke-linecap:square;"/>
   </g>
   <g id="line2d_122">
    <path clip-path="url(#p533ac19d22)" d="M 353.85 423.88303 
L 353.85 423.93256 
" style="fill:none;stroke:#696969;stroke-linecap:square;"/>
   </g>
   <g id="line2d_123">
    <path clip-path="url(#p533ac19d22)" d="M 353.85 423.844164 
L 353.85 423.830254 
" style="fill:none;stroke:#696969;stroke-linecap:square;"/>
   </g>
   <g id="line2d_124">
    <path clip-path="url(#p533ac19d22)" d="M 345.7125 423.93256 
L 361.9875 423.93256 
" style="fill:none;stroke:#b22222;stroke-linecap:square;"/>
   </g>
   <g id="line2d_125">
    <path clip-path="url(#p533ac19d22)" d="M 345.7125 423.830254 
L 361.9875 423.830254 
" style="fill:none;stroke:#b22222;stroke-linecap:square;"/>
   </g>
   <g id="line2d_126">
    <g clip-path="url(#p533ac19d22)">
     <use style="fill:#ff0000;stroke:#ff0000;" x="353.85" xlink:href="#m235536752b" y="423.697873"/>
    </g>
   </g>
   <g id="line2d_127">
    <path clip-path="url(#p533ac19d22)" d="M 402.675 344.899024 
L 435.225 344.899024 
L 435.225 344.833127 
L 402.675 344.833127 
L 402.675 344.899024 
" style="fill:none;stroke:#696969;stroke-linecap:square;"/>
   </g>
   <g id="line2d_128">
    <path clip-path="url(#p533ac19d22)" d="M 418.95 344.899024 
L 418.95 344.94294 
" style="fill:none;stroke:#696969;stroke-linecap:square;"/>
   </g>
   <g id="line2d_129">
    <path clip-path="url(#p533ac19d22)" d="M 418.95 344.833127 
L 418.95 344.7799 
" style="fill:none;stroke:#696969;stroke-linecap:square;"/>
   </g>
   <g id="line2d_130">
    <path clip-path="url(#p533ac19d22)" d="M 410.8125 344.94294 
L 427.0875 344.94294 
" style="fill:none;stroke:#b22222;stroke-linecap:square;"/>
   </g>
   <g id="line2d_131">
    <path clip-path="url(#p533ac19d22)" d="M 410.8125 344.7799 
L 427.0875 344.7799 
" style="fill:none;stroke:#b22222;stroke-linecap:square;"/>
   </g>
   <g id="line2d_132"/>
   <g id="line2d_133">
    <path clip-path="url(#p533ac19d22)" d="M 467.775 412.02405 
L 500.325 412.02405 
L 500.325 411.966291 
L 467.775 411.966291 
L 467.775 412.02405 
" style="fill:none;stroke:#696969;stroke-linecap:square;"/>
   </g>
   <g id="line2d_134">
    <path clip-path="url(#p533ac19d22)" d="M 484.05 412.02405 
L 484.05 412.036224 
" style="fill:none;stroke:#696969;stroke-linecap:square;"/>
   </g>
   <g id="line2d_135">
    <path clip-path="url(#p533ac19d22)" d="M 484.05 411.966291 
L 484.05 411.96327 
" style="fill:none;stroke:#696969;stroke-linecap:square;"/>
   </g>
   <g id="line2d_136">
    <path clip-path="url(#p533ac19d22)" d="M 475.9125 412.036224 
L 492.1875 412.036224 
" style="fill:none;stroke:#b22222;stroke-linecap:square;"/>
   </g>
   <g id="line2d_137">
    <path clip-path="url(#p533ac19d22)" d="M 475.9125 411.96327 
L 492.1875 411.96327 
" style="fill:none;stroke:#b22222;stroke-linecap:square;"/>
   </g>
   <g id="line2d_138">
    <g clip-path="url(#p533ac19d22)">
     <use style="fill:#ff0000;stroke:#ff0000;" x="484.05" xlink:href="#m235536752b" y="411.662348"/>
    </g>
   </g>
   <g id="line2d_139">
    <path clip-path="url(#p533ac19d22)" d="M 532.875 93.241666 
L 565.425 93.241666 
L 565.425 93.10295 
L 532.875 93.10295 
L 532.875 93.241666 
" style="fill:none;stroke:#696969;stroke-linecap:square;"/>
   </g>
   <g id="line2d_140">
    <path clip-path="url(#p533ac19d22)" d="M 549.15 93.241666 
L 549.15 93.382342 
" style="fill:none;stroke:#696969;stroke-linecap:square;"/>
   </g>
   <g id="line2d_141">
    <path clip-path="url(#p533ac19d22)" d="M 549.15 93.10295 
L 549.15 92.927352 
" style="fill:none;stroke:#696969;stroke-linecap:square;"/>
   </g>
   <g id="line2d_142">
    <path clip-path="url(#p533ac19d22)" d="M 541.0125 93.382342 
L 557.2875 93.382342 
" style="fill:none;stroke:#b22222;stroke-linecap:square;"/>
   </g>
   <g id="line2d_143">
    <path clip-path="url(#p533ac19d22)" d="M 541.0125 92.927352 
L 557.2875 92.927352 
" style="fill:none;stroke:#b22222;stroke-linecap:square;"/>
   </g>
   <g id="line2d_144"/>
   <g id="line2d_145">
    <path clip-path="url(#p533ac19d22)" d="M 597.975 92.941646 
L 630.525 92.941646 
L 630.525 92.702112 
L 597.975 92.702112 
L 597.975 92.941646 
" style="fill:none;stroke:#696969;stroke-linecap:square;"/>
   </g>
   <g id="line2d_146">
    <path clip-path="url(#p533ac19d22)" d="M 614.25 92.941646 
L 614.25 93.000351 
" style="fill:none;stroke:#696969;stroke-linecap:square;"/>
   </g>
   <g id="line2d_147">
    <path clip-path="url(#p533ac19d22)" d="M 614.25 92.702112 
L 614.25 92.533818 
" style="fill:none;stroke:#696969;stroke-linecap:square;"/>
   </g>
   <g id="line2d_148">
    <path clip-path="url(#p533ac19d22)" d="M 606.1125 93.000351 
L 622.3875 93.000351 
" style="fill:none;stroke:#b22222;stroke-linecap:square;"/>
   </g>
   <g id="line2d_149">
    <path clip-path="url(#p533ac19d22)" d="M 606.1125 92.533818 
L 622.3875 92.533818 
" style="fill:none;stroke:#b22222;stroke-linecap:square;"/>
   </g>
   <g id="line2d_150"/>
   <g id="line2d_151">
    <path clip-path="url(#p533ac19d22)" d="M 663.075 90.991965 
L 695.625 90.991965 
L 695.625 90.922822 
L 663.075 90.922822 
L 663.075 90.991965 
" style="fill:none;stroke:#696969;stroke-linecap:square;"/>
   </g>
   <g id="line2d_152">
    <path clip-path="url(#p533ac19d22)" d="M 679.35 90.991965 
L 679.35 91.059463 
" style="fill:none;stroke:#696969;stroke-linecap:square;"/>
   </g>
   <g id="line2d_153">
    <path clip-path="url(#p533ac19d22)" d="M 679.35 90.922822 
L 679.35 90.900616 
" style="fill:none;stroke:#696969;stroke-linecap:square;"/>
   </g>
   <g id="line2d_154">
    <path clip-path="url(#p533ac19d22)" d="M 671.2125 91.059463 
L 687.4875 91.059463 
" style="fill:none;stroke:#b22222;stroke-linecap:square;"/>
   </g>
   <g id="line2d_155">
    <path clip-path="url(#p533ac19d22)" d="M 671.2125 90.900616 
L 687.4875 90.900616 
" style="fill:none;stroke:#b22222;stroke-linecap:square;"/>
   </g>
   <g id="line2d_156">
    <g clip-path="url(#p533ac19d22)">
     <use style="fill:#ff0000;stroke:#ff0000;" x="679.35" xlink:href="#m235536752b" y="90.802818"/>
    </g>
   </g>
   <g id="line2d_157">
    <path clip-path="url(#p533ac19d22)" d="M 728.175 430.834444 
L 760.725 430.834444 
L 760.725 430.776573 
L 728.175 430.776573 
L 728.175 430.834444 
" style="fill:none;stroke:#696969;stroke-linecap:square;"/>
   </g>
   <g id="line2d_158">
    <path clip-path="url(#p533ac19d22)" d="M 744.45 430.834444 
L 744.45 430.858544 
" style="fill:none;stroke:#696969;stroke-linecap:square;"/>
   </g>
   <g id="line2d_159">
    <path clip-path="url(#p533ac19d22)" d="M 744.45 430.776573 
L 744.45 430.757726 
" style="fill:none;stroke:#696969;stroke-linecap:square;"/>
   </g>
   <g id="line2d_160">
    <path clip-path="url(#p533ac19d22)" d="M 736.3125 430.858544 
L 752.5875 430.858544 
" style="fill:none;stroke:#b22222;stroke-linecap:square;"/>
   </g>
   <g id="line2d_161">
    <path clip-path="url(#p533ac19d22)" d="M 736.3125 430.757726 
L 752.5875 430.757726 
" style="fill:none;stroke:#b22222;stroke-linecap:square;"/>
   </g>
   <g id="line2d_162"/>
   <g id="line2d_163">
    <path clip-path="url(#p533ac19d22)" d="M 793.275 390.463651 
L 825.825 390.463651 
L 825.825 389.806461 
L 793.275 389.806461 
L 793.275 390.463651 
" style="fill:none;stroke:#696969;stroke-linecap:square;"/>
   </g>
   <g id="line2d_164">
    <path clip-path="url(#p533ac19d22)" d="M 809.55 390.463651 
L 809.55 391.00298 
" style="fill:none;stroke:#696969;stroke-linecap:square;"/>
   </g>
   <g id="line2d_165">
    <path clip-path="url(#p533ac19d22)" d="M 809.55 389.806461 
L 809.55 388.844629 
" style="fill:none;stroke:#696969;stroke-linecap:square;"/>
   </g>
   <g id="line2d_166">
    <path clip-path="url(#p533ac19d22)" d="M 801.4125 391.00298 
L 817.6875 391.00298 
" style="fill:none;stroke:#b22222;stroke-linecap:square;"/>
   </g>
   <g id="line2d_167">
    <path clip-path="url(#p533ac19d22)" d="M 801.4125 388.844629 
L 817.6875 388.844629 
" style="fill:none;stroke:#b22222;stroke-linecap:square;"/>
   </g>
   <g id="line2d_168"/>
   <g id="line2d_169">
    <path clip-path="url(#p533ac19d22)" d="M 858.375 389.573375 
L 890.925 389.573375 
L 890.925 389.1249 
L 858.375 389.1249 
L 858.375 389.573375 
" style="fill:none;stroke:#696969;stroke-linecap:square;"/>
   </g>
   <g id="line2d_170">
    <path clip-path="url(#p533ac19d22)" d="M 874.65 389.573375 
L 874.65 389.743111 
" style="fill:none;stroke:#696969;stroke-linecap:square;"/>
   </g>
   <g id="line2d_171">
    <path clip-path="url(#p533ac19d22)" d="M 874.65 389.1249 
L 874.65 388.869022 
" style="fill:none;stroke:#696969;stroke-linecap:square;"/>
   </g>
   <g id="line2d_172">
    <path clip-path="url(#p533ac19d22)" d="M 866.5125 389.743111 
L 882.7875 389.743111 
" style="fill:none;stroke:#b22222;stroke-linecap:square;"/>
   </g>
   <g id="line2d_173">
    <path clip-path="url(#p533ac19d22)" d="M 866.5125 388.869022 
L 882.7875 388.869022 
" style="fill:none;stroke:#b22222;stroke-linecap:square;"/>
   </g>
   <g id="line2d_174"/>
   <g id="line2d_175">
    <path clip-path="url(#p533ac19d22)" d="M 142.275 354.78995 
L 174.825 354.78995 
" style="fill:none;stroke:#0000ff;stroke-linecap:square;"/>
   </g>
   <g id="line2d_176">
    <path clip-path="url(#p533ac19d22)" d="M 207.375 354.417247 
L 239.925 354.417247 
" style="fill:none;stroke:#0000ff;stroke-linecap:square;"/>
   </g>
   <g id="line2d_177">
    <path clip-path="url(#p533ac19d22)" d="M 272.475 353.311086 
L 305.025 353.311086 
" style="fill:none;stroke:#0000ff;stroke-linecap:square;"/>
   </g>
   <g id="line2d_178">
    <path clip-path="url(#p533ac19d22)" d="M 337.575 423.808476 
L 370.125 423.808476 
" style="fill:none;stroke:#0000ff;stroke-linecap:square;"/>
   </g>
   <g id="line2d_179">
    <path clip-path="url(#p533ac19d22)" d="M 402.675 344.624073 
L 435.225 344.624073 
" style="fill:none;stroke:#0000ff;stroke-linecap:square;"/>
   </g>
   <g id="line2d_180">
    <path clip-path="url(#p533ac19d22)" d="M 467.775 411.913898 
L 500.325 411.913898 
" style="fill:none;stroke:#0000ff;stroke-linecap:square;"/>
   </g>
   <g id="line2d_181">
    <path clip-path="url(#p533ac19d22)" d="M 532.875 80.350989 
L 565.425 80.350989 
" style="fill:none;stroke:#0000ff;stroke-linecap:square;"/>
   </g>
   <g id="line2d_182">
    <path clip-path="url(#p533ac19d22)" d="M 597.975 79.723895 
L 630.525 79.723895 
" style="fill:none;stroke:#0000ff;stroke-linecap:square;"/>
   </g>
   <g id="line2d_183">
    <path clip-path="url(#p533ac19d22)" d="M 663.075 78.606778 
L 695.625 78.606778 
" style="fill:none;stroke:#0000ff;stroke-linecap:square;"/>
   </g>
   <g id="line2d_184">
    <path clip-path="url(#p533ac19d22)" d="M 728.175 430.903543 
L 760.725 430.903543 
" style="fill:none;stroke:#0000ff;stroke-linecap:square;"/>
   </g>
   <g id="line2d_185">
    <path clip-path="url(#p533ac19d22)" d="M 793.275 386.57031 
L 825.825 386.57031 
" style="fill:none;stroke:#0000ff;stroke-linecap:square;"/>
   </g>
   <g id="line2d_186">
    <path clip-path="url(#p533ac19d22)" d="M 858.375 386.047958 
L 890.925 386.047958 
" style="fill:none;stroke:#0000ff;stroke-linecap:square;"/>
   </g>
   <g id="line2d_187">
    <path clip-path="url(#p533ac19d22)" d="M 142.275 354.784134 
L 174.825 354.784134 
" style="fill:none;stroke:#ff0000;stroke-linecap:square;"/>
   </g>
   <g id="line2d_188">
    <path clip-path="url(#p533ac19d22)" d="M 207.375 354.397002 
L 239.925 354.397002 
" style="fill:none;stroke:#ff0000;stroke-linecap:square;"/>
   </g>
   <g id="line2d_189">
    <path clip-path="url(#p533ac19d22)" d="M 272.475 353.333044 
L 305.025 353.333044 
" style="fill:none;stroke:#ff0000;stroke-linecap:square;"/>
   </g>
   <g id="line2d_190">
    <path clip-path="url(#p533ac19d22)" d="M 337.575 423.872592 
L 370.125 423.872592 
" style="fill:none;stroke:#ff0000;stroke-linecap:square;"/>
   </g>
   <g id="line2d_191">
    <path clip-path="url(#p533ac19d22)" d="M 402.675 344.857407 
L 435.225 344.857407 
" style="fill:none;stroke:#ff0000;stroke-linecap:square;"/>
   </g>
   <g id="line2d_192">
    <path clip-path="url(#p533ac19d22)" d="M 467.775 411.972514 
L 500.325 411.972514 
" style="fill:none;stroke:#ff0000;stroke-linecap:square;"/>
   </g>
   <g id="line2d_193">
    <path clip-path="url(#p533ac19d22)" d="M 532.875 93.16488 
L 565.425 93.16488 
" style="fill:none;stroke:#ff0000;stroke-linecap:square;"/>
   </g>
   <g id="line2d_194">
    <path clip-path="url(#p533ac19d22)" d="M 597.975 92.839971 
L 630.525 92.839971 
" style="fill:none;stroke:#ff0000;stroke-linecap:square;"/>
   </g>
   <g id="line2d_195">
    <path clip-path="url(#p533ac19d22)" d="M 663.075 90.970007 
L 695.625 90.970007 
" style="fill:none;stroke:#ff0000;stroke-linecap:square;"/>
   </g>
   <g id="line2d_196">
    <path clip-path="url(#p533ac19d22)" d="M 728.175 430.802769 
L 760.725 430.802769 
" style="fill:none;stroke:#ff0000;stroke-linecap:square;"/>
   </g>
   <g id="line2d_197">
    <path clip-path="url(#p533ac19d22)" d="M 793.275 390.110359 
L 825.825 390.110359 
" style="fill:none;stroke:#ff0000;stroke-linecap:square;"/>
   </g>
   <g id="line2d_198">
    <path clip-path="url(#p533ac19d22)" d="M 858.375 389.334833 
L 890.925 389.334833 
" style="fill:none;stroke:#ff0000;stroke-linecap:square;"/>
   </g>
   <g id="patch_3">
    <path d="M 126 448.56 
L 126 60.48 
" style="fill:none;stroke:#000000;stroke-linecap:square;stroke-linejoin:miter;stroke-width:0.8;"/>
   </g>
   <g id="patch_4">
    <path d="M 907.2 448.56 
L 907.2 60.48 
" style="fill:none;stroke:#000000;stroke-linecap:square;stroke-linejoin:miter;stroke-width:0.8;"/>
   </g>
   <g id="patch_5">
    <path d="M 126 448.56 
L 907.2 448.56 
" style="fill:none;stroke:#000000;stroke-linecap:square;stroke-linejoin:miter;stroke-width:0.8;"/>
   </g>
   <g id="patch_6">
    <path d="M 126 60.48 
L 907.2 60.48 
" style="fill:none;stroke:#000000;stroke-linecap:square;stroke-linejoin:miter;stroke-width:0.8;"/>
   </g>
   <g id="text_24">
    <!-- cage14 -->
    <g transform="translate(494.488125 54.48)scale(0.12 -0.12)">
     <use xlink:href="#DejaVuSans-99"/>
     <use x="54.980469" xlink:href="#DejaVuSans-97"/>
     <use x="116.259766" xlink:href="#DejaVuSans-103"/>
     <use x="179.736328" xlink:href="#DejaVuSans-101"/>
     <use x="241.259766" xlink:href="#DejaVuSans-49"/>
     <use x="304.882812" xlink:href="#DejaVuSans-52"/>
    </g>
   </g>
   <g id="legend_1">
    <g id="patch_7">
     <path d="M 781.15 112.7925 
L 900.2 112.7925 
Q 902.2 112.7925 902.2 110.7925 
L 902.2 67.48 
Q 902.2 65.48 900.2 65.48 
L 781.15 65.48 
Q 779.15 65.48 779.15 67.48 
L 779.15 110.7925 
Q 779.15 112.7925 781.15 112.7925 
z
" style="fill:#ffffff;opacity:0.8;stroke:#cccccc;stroke-linejoin:miter;"/>
    </g>
    <g id="line2d_199">
     <path d="M 783.15 73.578438 
L 803.15 73.578438 
" style="fill:none;stroke:#0000ff;stroke-linecap:square;"/>
    </g>
    <g id="line2d_200"/>
    <g id="text_25">
     <!-- transpose -->
     <g transform="translate(811.15 77.078438)scale(0.1 -0.1)">
      <use xlink:href="#DejaVuSans-116"/>
      <use x="39.208984" xlink:href="#DejaVuSans-114"/>
      <use x="80.322266" xlink:href="#DejaVuSans-97"/>
      <use x="141.601562" xlink:href="#DejaVuSans-110"/>
      <use x="204.980469" xlink:href="#DejaVuSans-115"/>
      <use x="257.080078" xlink:href="#DejaVuSans-112"/>
      <use x="320.556641" xlink:href="#DejaVuSans-111"/>
      <use x="381.738281" xlink:href="#DejaVuSans-115"/>
      <use x="433.837891" xlink:href="#DejaVuSans-101"/>
     </g>
    </g>
    <g id="line2d_201">
     <path d="M 783.15 88.256563 
L 803.15 88.256563 
" style="fill:none;stroke:#ff0000;stroke-linecap:square;"/>
    </g>
    <g id="line2d_202"/>
    <g id="text_26">
     <!-- transpose_tr -->
     <defs>
      <path d="M 50.984375 -16.609375 
L 50.984375 -23.578125 
L -0.984375 -23.578125 
L -0.984375 -16.609375 
z
" id="DejaVuSans-95"/>
     </defs>
     <g transform="translate(811.15 91.756563)scale(0.1 -0.1)">
      <use xlink:href="#DejaVuSans-116"/>
      <use x="39.208984" xlink:href="#DejaVuSans-114"/>
      <use x="80.322266" xlink:href="#DejaVuSans-97"/>
      <use x="141.601562" xlink:href="#DejaVuSans-110"/>
      <use x="204.980469" xlink:href="#DejaVuSans-115"/>
      <use x="257.080078" xlink:href="#DejaVuSans-112"/>
      <use x="320.556641" xlink:href="#DejaVuSans-111"/>
      <use x="381.738281" xlink:href="#DejaVuSans-115"/>
      <use x="433.837891" xlink:href="#DejaVuSans-101"/>
      <use x="495.361328" xlink:href="#DejaVuSans-95"/>
      <use x="545.361328" xlink:href="#DejaVuSans-116"/>
      <use x="584.570312" xlink:href="#DejaVuSans-114"/>
     </g>
    </g>
    <g id="line2d_203"/>
    <g id="line2d_204">
     <defs>
      <path d="M 0 1.5 
C 0.397805 1.5 0.77937 1.341951 1.06066 1.06066 
C 1.341951 0.77937 1.5 0.397805 1.5 0 
C 1.5 -0.397805 1.341951 -0.77937 1.06066 -1.06066 
C 0.77937 -1.341951 0.397805 -1.5 0 -1.5 
C -0.397805 -1.5 -0.77937 -1.341951 -1.06066 -1.06066 
C -1.341951 -0.77937 -1.5 -0.397805 -1.5 0 
C -1.5 0.397805 -1.341951 0.77937 -1.06066 1.06066 
C -0.77937 1.341951 -0.397805 1.5 0 1.5 
z
" id="mac6e3a6c3f" style="stroke:#008000;"/>
     </defs>
     <g>
      <use style="fill:#008000;stroke:#008000;" x="793.15" xlink:href="#mac6e3a6c3f" y="103.212812"/>
     </g>
    </g>
    <g id="text_27">
     <!-- mean of medians -->
     <defs>
      <path d="M 37.109375 75.984375 
L 37.109375 68.5 
L 28.515625 68.5 
Q 23.6875 68.5 21.796875 66.546875 
Q 19.921875 64.59375 19.921875 59.515625 
L 19.921875 54.6875 
L 34.71875 54.6875 
L 34.71875 47.703125 
L 19.921875 47.703125 
L 19.921875 0 
L 10.890625 0 
L 10.890625 47.703125 
L 2.296875 47.703125 
L 2.296875 54.6875 
L 10.890625 54.6875 
L 10.890625 58.5 
Q 10.890625 67.625 15.140625 71.796875 
Q 19.390625 75.984375 28.609375 75.984375 
z
" id="DejaVuSans-102"/>
     </defs>
     <g transform="translate(811.15 106.712812)scale(0.1 -0.1)">
      <use xlink:href="#DejaVuSans-109"/>
      <use x="97.412109" xlink:href="#DejaVuSans-101"/>
      <use x="158.935547" xlink:href="#DejaVuSans-97"/>
      <use x="220.214844" xlink:href="#DejaVuSans-110"/>
      <use x="283.59375" xlink:href="#DejaVuSans-32"/>
      <use x="315.380859" xlink:href="#DejaVuSans-111"/>
      <use x="376.5625" xlink:href="#DejaVuSans-102"/>
      <use x="411.767578" xlink:href="#DejaVuSans-32"/>
      <use x="443.554688" xlink:href="#DejaVuSans-109"/>
      <use x="540.966797" xlink:href="#DejaVuSans-101"/>
      <use x="602.490234" xlink:href="#DejaVuSans-100"/>
      <use x="665.966797" xlink:href="#DejaVuSans-105"/>
      <use x="693.75" xlink:href="#DejaVuSans-97"/>
      <use x="755.029297" xlink:href="#DejaVuSans-110"/>
      <use x="818.408203" xlink:href="#DejaVuSans-115"/>
     </g>
    </g>
   </g>
   <g id="line2d_205">
    <g clip-path="url(#p533ac19d22)">
     <use style="fill:#008000;stroke:#008000;" x="158.55" xlink:href="#mac6e3a6c3f" y="354.787042"/>
     <use style="fill:#008000;stroke:#008000;" x="223.65" xlink:href="#mac6e3a6c3f" y="354.407125"/>
     <use style="fill:#008000;stroke:#008000;" x="288.75" xlink:href="#mac6e3a6c3f" y="353.322065"/>
     <use style="fill:#008000;stroke:#008000;" x="353.85" xlink:href="#mac6e3a6c3f" y="423.840534"/>
     <use style="fill:#008000;stroke:#008000;" x="418.95" xlink:href="#mac6e3a6c3f" y="344.74074"/>
     <use style="fill:#008000;stroke:#008000;" x="484.05" xlink:href="#mac6e3a6c3f" y="411.943206"/>
     <use style="fill:#008000;stroke:#008000;" x="549.15" xlink:href="#mac6e3a6c3f" y="86.757934"/>
     <use style="fill:#008000;stroke:#008000;" x="614.25" xlink:href="#mac6e3a6c3f" y="86.281933"/>
     <use style="fill:#008000;stroke:#008000;" x="679.35" xlink:href="#mac6e3a6c3f" y="84.788392"/>
     <use style="fill:#008000;stroke:#008000;" x="744.45" xlink:href="#mac6e3a6c3f" y="430.853156"/>
     <use style="fill:#008000;stroke:#008000;" x="809.55" xlink:href="#mac6e3a6c3f" y="388.340334"/>
     <use style="fill:#008000;stroke:#008000;" x="874.65" xlink:href="#mac6e3a6c3f" y="387.691395"/>
    </g>
   </g>
  </g>
 </g>
 <defs>
  <clipPath id="p533ac19d22">
   <rect height="388.08" width="781.2" x="126" y="60.48"/>
  </clipPath>
 </defs>
</svg>
