<?xml version="1.0" encoding="utf-8" standalone="no"?>
<!DOCTYPE svg PUBLIC "-//W3C//DTD SVG 1.1//EN"
  "http://www.w3.org/Graphics/SVG/1.1/DTD/svg11.dtd">
<!-- Created with matplotlib (https://matplotlib.org/) -->
<svg height="345.6pt" version="1.1" viewBox="0 0 460.8 345.6" width="460.8pt" xmlns="http://www.w3.org/2000/svg" xmlns:xlink="http://www.w3.org/1999/xlink">
 <defs>
  <style type="text/css">
*{stroke-linecap:butt;stroke-linejoin:round;}
  </style>
 </defs>
 <g id="figure_1">
  <g id="patch_1">
   <path d="M 0 345.6 
L 460.8 345.6 
L 460.8 0 
L 0 0 
z
" style="fill:#ffffff;"/>
  </g>
  <g id="axes_1">
   <g id="patch_2">
    <path d="M 57.6 307.584 
L 414.72 307.584 
L 414.72 41.472 
L 57.6 41.472 
z
" style="fill:#ffffff;"/>
   </g>
   <g id="matplotlib.axis_1">
    <g id="xtick_1">
     <g id="line2d_1">
      <path clip-path="url(#p305e371840)" d="M 61.612584 307.584 
L 61.612584 41.472 
" style="fill:none;stroke:#b0b0b0;stroke-dasharray:5.12,1.28,0.8,1.28;stroke-dashoffset:0;stroke-width:0.8;"/>
     </g>
     <g id="line2d_2">
      <defs>
       <path d="M 0 0 
L 0 3.5 
" id="m3ff4c8e75c" style="stroke:#000000;stroke-width:0.8;"/>
      </defs>
      <g>
       <use style="stroke:#000000;stroke-width:0.8;" x="61.612584" xlink:href="#m3ff4c8e75c" y="307.584"/>
      </g>
     </g>
     <g id="text_1">
      <!-- 1 -->
      <defs>
       <path d="M 12.40625 8.296875 
L 28.515625 8.296875 
L 28.515625 63.921875 
L 10.984375 60.40625 
L 10.984375 69.390625 
L 28.421875 72.90625 
L 38.28125 72.90625 
L 38.28125 8.296875 
L 54.390625 8.296875 
L 54.390625 0 
L 12.40625 0 
z
" id="DejaVuSans-49"/>
      </defs>
      <g transform="translate(58.431334 322.182437)scale(0.1 -0.1)">
       <use xlink:href="#DejaVuSans-49"/>
      </g>
     </g>
    </g>
    <g id="xtick_2">
     <g id="line2d_3">
      <path clip-path="url(#p305e371840)" d="M 73.650337 307.584 
L 73.650337 41.472 
" style="fill:none;stroke:#b0b0b0;stroke-dasharray:5.12,1.28,0.8,1.28;stroke-dashoffset:0;stroke-width:0.8;"/>
     </g>
     <g id="line2d_4">
      <g>
       <use style="stroke:#000000;stroke-width:0.8;" x="73.650337" xlink:href="#m3ff4c8e75c" y="307.584"/>
      </g>
     </g>
     <g id="text_2">
      <!-- 4 -->
      <defs>
       <path d="M 37.796875 64.3125 
L 12.890625 25.390625 
L 37.796875 25.390625 
z
M 35.203125 72.90625 
L 47.609375 72.90625 
L 47.609375 25.390625 
L 58.015625 25.390625 
L 58.015625 17.1875 
L 47.609375 17.1875 
L 47.609375 0 
L 37.796875 0 
L 37.796875 17.1875 
L 4.890625 17.1875 
L 4.890625 26.703125 
z
" id="DejaVuSans-52"/>
      </defs>
      <g transform="translate(70.469087 322.182437)scale(0.1 -0.1)">
       <use xlink:href="#DejaVuSans-52"/>
      </g>
     </g>
    </g>
    <g id="xtick_3">
     <g id="line2d_5">
      <path clip-path="url(#p305e371840)" d="M 89.700674 307.584 
L 89.700674 41.472 
" style="fill:none;stroke:#b0b0b0;stroke-dasharray:5.12,1.28,0.8,1.28;stroke-dashoffset:0;stroke-width:0.8;"/>
     </g>
     <g id="line2d_6">
      <g>
       <use style="stroke:#000000;stroke-width:0.8;" x="89.700674" xlink:href="#m3ff4c8e75c" y="307.584"/>
      </g>
     </g>
     <g id="text_3">
      <!-- 8 -->
      <defs>
       <path d="M 31.78125 34.625 
Q 24.75 34.625 20.71875 30.859375 
Q 16.703125 27.09375 16.703125 20.515625 
Q 16.703125 13.921875 20.71875 10.15625 
Q 24.75 6.390625 31.78125 6.390625 
Q 38.8125 6.390625 42.859375 10.171875 
Q 46.921875 13.96875 46.921875 20.515625 
Q 46.921875 27.09375 42.890625 30.859375 
Q 38.875 34.625 31.78125 34.625 
z
M 21.921875 38.8125 
Q 15.578125 40.375 12.03125 44.71875 
Q 8.5 49.078125 8.5 55.328125 
Q 8.5 64.0625 14.71875 69.140625 
Q 20.953125 74.21875 31.78125 74.21875 
Q 42.671875 74.21875 48.875 69.140625 
Q 55.078125 64.0625 55.078125 55.328125 
Q 55.078125 49.078125 51.53125 44.71875 
Q 48 40.375 41.703125 38.8125 
Q 48.828125 37.15625 52.796875 32.3125 
Q 56.78125 27.484375 56.78125 20.515625 
Q 56.78125 9.90625 50.3125 4.234375 
Q 43.84375 -1.421875 31.78125 -1.421875 
Q 19.734375 -1.421875 13.25 4.234375 
Q 6.78125 9.90625 6.78125 20.515625 
Q 6.78125 27.484375 10.78125 32.3125 
Q 14.796875 37.15625 21.921875 38.8125 
z
M 18.3125 54.390625 
Q 18.3125 48.734375 21.84375 45.5625 
Q 25.390625 42.390625 31.78125 42.390625 
Q 38.140625 42.390625 41.71875 45.5625 
Q 45.3125 48.734375 45.3125 54.390625 
Q 45.3125 60.0625 41.71875 63.234375 
Q 38.140625 66.40625 31.78125 66.40625 
Q 25.390625 66.40625 21.84375 63.234375 
Q 18.3125 60.0625 18.3125 54.390625 
z
" id="DejaVuSans-56"/>
      </defs>
      <g transform="translate(86.519424 322.182437)scale(0.1 -0.1)">
       <use xlink:href="#DejaVuSans-56"/>
      </g>
     </g>
    </g>
    <g id="xtick_4">
     <g id="line2d_7">
      <path clip-path="url(#p305e371840)" d="M 105.751011 307.584 
L 105.751011 41.472 
" style="fill:none;stroke:#b0b0b0;stroke-dasharray:5.12,1.28,0.8,1.28;stroke-dashoffset:0;stroke-width:0.8;"/>
     </g>
     <g id="line2d_8">
      <g>
       <use style="stroke:#000000;stroke-width:0.8;" x="105.751011" xlink:href="#m3ff4c8e75c" y="307.584"/>
      </g>
     </g>
     <g id="text_4">
      <!-- 12 -->
      <defs>
       <path d="M 19.1875 8.296875 
L 53.609375 8.296875 
L 53.609375 0 
L 7.328125 0 
L 7.328125 8.296875 
Q 12.9375 14.109375 22.625 23.890625 
Q 32.328125 33.6875 34.8125 36.53125 
Q 39.546875 41.84375 41.421875 45.53125 
Q 43.3125 49.21875 43.3125 52.78125 
Q 43.3125 58.59375 39.234375 62.25 
Q 35.15625 65.921875 28.609375 65.921875 
Q 23.96875 65.921875 18.8125 64.3125 
Q 13.671875 62.703125 7.8125 59.421875 
L 7.8125 69.390625 
Q 13.765625 71.78125 18.9375 73 
Q 24.125 74.21875 28.421875 74.21875 
Q 39.75 74.21875 46.484375 68.546875 
Q 53.21875 62.890625 53.21875 53.421875 
Q 53.21875 48.921875 51.53125 44.890625 
Q 49.859375 40.875 45.40625 35.40625 
Q 44.1875 33.984375 37.640625 27.21875 
Q 31.109375 20.453125 19.1875 8.296875 
z
" id="DejaVuSans-50"/>
      </defs>
      <g transform="translate(99.388511 322.182437)scale(0.1 -0.1)">
       <use xlink:href="#DejaVuSans-49"/>
       <use x="63.623047" xlink:href="#DejaVuSans-50"/>
      </g>
     </g>
    </g>
    <g id="xtick_5">
     <g id="line2d_9">
      <path clip-path="url(#p305e371840)" d="M 121.801348 307.584 
L 121.801348 41.472 
" style="fill:none;stroke:#b0b0b0;stroke-dasharray:5.12,1.28,0.8,1.28;stroke-dashoffset:0;stroke-width:0.8;"/>
     </g>
     <g id="line2d_10">
      <g>
       <use style="stroke:#000000;stroke-width:0.8;" x="121.801348" xlink:href="#m3ff4c8e75c" y="307.584"/>
      </g>
     </g>
     <g id="text_5">
      <!-- 16 -->
      <defs>
       <path d="M 33.015625 40.375 
Q 26.375 40.375 22.484375 35.828125 
Q 18.609375 31.296875 18.609375 23.390625 
Q 18.609375 15.53125 22.484375 10.953125 
Q 26.375 6.390625 33.015625 6.390625 
Q 39.65625 6.390625 43.53125 10.953125 
Q 47.40625 15.53125 47.40625 23.390625 
Q 47.40625 31.296875 43.53125 35.828125 
Q 39.65625 40.375 33.015625 40.375 
z
M 52.59375 71.296875 
L 52.59375 62.3125 
Q 48.875 64.0625 45.09375 64.984375 
Q 41.3125 65.921875 37.59375 65.921875 
Q 27.828125 65.921875 22.671875 59.328125 
Q 17.53125 52.734375 16.796875 39.40625 
Q 19.671875 43.65625 24.015625 45.921875 
Q 28.375 48.1875 33.59375 48.1875 
Q 44.578125 48.1875 50.953125 41.515625 
Q 57.328125 34.859375 57.328125 23.390625 
Q 57.328125 12.15625 50.6875 5.359375 
Q 44.046875 -1.421875 33.015625 -1.421875 
Q 20.359375 -1.421875 13.671875 8.265625 
Q 6.984375 17.96875 6.984375 36.375 
Q 6.984375 53.65625 15.1875 63.9375 
Q 23.390625 74.21875 37.203125 74.21875 
Q 40.921875 74.21875 44.703125 73.484375 
Q 48.484375 72.75 52.59375 71.296875 
z
" id="DejaVuSans-54"/>
      </defs>
      <g transform="translate(115.438848 322.182437)scale(0.1 -0.1)">
       <use xlink:href="#DejaVuSans-49"/>
       <use x="63.623047" xlink:href="#DejaVuSans-54"/>
      </g>
     </g>
    </g>
    <g id="xtick_6">
     <g id="line2d_11">
      <path clip-path="url(#p305e371840)" d="M 137.851685 307.584 
L 137.851685 41.472 
" style="fill:none;stroke:#b0b0b0;stroke-dasharray:5.12,1.28,0.8,1.28;stroke-dashoffset:0;stroke-width:0.8;"/>
     </g>
     <g id="line2d_12">
      <g>
       <use style="stroke:#000000;stroke-width:0.8;" x="137.851685" xlink:href="#m3ff4c8e75c" y="307.584"/>
      </g>
     </g>
     <g id="text_6">
      <!-- 20 -->
      <defs>
       <path d="M 31.78125 66.40625 
Q 24.171875 66.40625 20.328125 58.90625 
Q 16.5 51.421875 16.5 36.375 
Q 16.5 21.390625 20.328125 13.890625 
Q 24.171875 6.390625 31.78125 6.390625 
Q 39.453125 6.390625 43.28125 13.890625 
Q 47.125 21.390625 47.125 36.375 
Q 47.125 51.421875 43.28125 58.90625 
Q 39.453125 66.40625 31.78125 66.40625 
z
M 31.78125 74.21875 
Q 44.046875 74.21875 50.515625 64.515625 
Q 56.984375 54.828125 56.984375 36.375 
Q 56.984375 17.96875 50.515625 8.265625 
Q 44.046875 -1.421875 31.78125 -1.421875 
Q 19.53125 -1.421875 13.0625 8.265625 
Q 6.59375 17.96875 6.59375 36.375 
Q 6.59375 54.828125 13.0625 64.515625 
Q 19.53125 74.21875 31.78125 74.21875 
z
" id="DejaVuSans-48"/>
      </defs>
      <g transform="translate(131.489185 322.182437)scale(0.1 -0.1)">
       <use xlink:href="#DejaVuSans-50"/>
       <use x="63.623047" xlink:href="#DejaVuSans-48"/>
      </g>
     </g>
    </g>
    <g id="xtick_7">
     <g id="line2d_13">
      <path clip-path="url(#p305e371840)" d="M 153.902022 307.584 
L 153.902022 41.472 
" style="fill:none;stroke:#b0b0b0;stroke-dasharray:5.12,1.28,0.8,1.28;stroke-dashoffset:0;stroke-width:0.8;"/>
     </g>
     <g id="line2d_14">
      <g>
       <use style="stroke:#000000;stroke-width:0.8;" x="153.902022" xlink:href="#m3ff4c8e75c" y="307.584"/>
      </g>
     </g>
     <g id="text_7">
      <!-- 24 -->
      <g transform="translate(147.539522 322.182437)scale(0.1 -0.1)">
       <use xlink:href="#DejaVuSans-50"/>
       <use x="63.623047" xlink:href="#DejaVuSans-52"/>
      </g>
     </g>
    </g>
    <g id="xtick_8">
     <g id="line2d_15">
      <path clip-path="url(#p305e371840)" d="M 169.95236 307.584 
L 169.95236 41.472 
" style="fill:none;stroke:#b0b0b0;stroke-dasharray:5.12,1.28,0.8,1.28;stroke-dashoffset:0;stroke-width:0.8;"/>
     </g>
     <g id="line2d_16">
      <g>
       <use style="stroke:#000000;stroke-width:0.8;" x="169.95236" xlink:href="#m3ff4c8e75c" y="307.584"/>
      </g>
     </g>
     <g id="text_8">
      <!-- 28 -->
      <g transform="translate(163.58986 322.182437)scale(0.1 -0.1)">
       <use xlink:href="#DejaVuSans-50"/>
       <use x="63.623047" xlink:href="#DejaVuSans-56"/>
      </g>
     </g>
    </g>
    <g id="xtick_9">
     <g id="line2d_17">
      <path clip-path="url(#p305e371840)" d="M 186.002697 307.584 
L 186.002697 41.472 
" style="fill:none;stroke:#b0b0b0;stroke-dasharray:5.12,1.28,0.8,1.28;stroke-dashoffset:0;stroke-width:0.8;"/>
     </g>
     <g id="line2d_18">
      <g>
       <use style="stroke:#000000;stroke-width:0.8;" x="186.002697" xlink:href="#m3ff4c8e75c" y="307.584"/>
      </g>
     </g>
     <g id="text_9">
      <!-- 32 -->
      <defs>
       <path d="M 40.578125 39.3125 
Q 47.65625 37.796875 51.625 33 
Q 55.609375 28.21875 55.609375 21.1875 
Q 55.609375 10.40625 48.1875 4.484375 
Q 40.765625 -1.421875 27.09375 -1.421875 
Q 22.515625 -1.421875 17.65625 -0.515625 
Q 12.796875 0.390625 7.625 2.203125 
L 7.625 11.71875 
Q 11.71875 9.328125 16.59375 8.109375 
Q 21.484375 6.890625 26.8125 6.890625 
Q 36.078125 6.890625 40.9375 10.546875 
Q 45.796875 14.203125 45.796875 21.1875 
Q 45.796875 27.640625 41.28125 31.265625 
Q 36.765625 34.90625 28.71875 34.90625 
L 20.21875 34.90625 
L 20.21875 43.015625 
L 29.109375 43.015625 
Q 36.375 43.015625 40.234375 45.921875 
Q 44.09375 48.828125 44.09375 54.296875 
Q 44.09375 59.90625 40.109375 62.90625 
Q 36.140625 65.921875 28.71875 65.921875 
Q 24.65625 65.921875 20.015625 65.03125 
Q 15.375 64.15625 9.8125 62.3125 
L 9.8125 71.09375 
Q 15.4375 72.65625 20.34375 73.4375 
Q 25.25 74.21875 29.59375 74.21875 
Q 40.828125 74.21875 47.359375 69.109375 
Q 53.90625 64.015625 53.90625 55.328125 
Q 53.90625 49.265625 50.4375 45.09375 
Q 46.96875 40.921875 40.578125 39.3125 
z
" id="DejaVuSans-51"/>
      </defs>
      <g transform="translate(179.640197 322.182437)scale(0.1 -0.1)">
       <use xlink:href="#DejaVuSans-51"/>
       <use x="63.623047" xlink:href="#DejaVuSans-50"/>
      </g>
     </g>
    </g>
    <g id="xtick_10">
     <g id="line2d_19">
      <path clip-path="url(#p305e371840)" d="M 202.053034 307.584 
L 202.053034 41.472 
" style="fill:none;stroke:#b0b0b0;stroke-dasharray:5.12,1.28,0.8,1.28;stroke-dashoffset:0;stroke-width:0.8;"/>
     </g>
     <g id="line2d_20">
      <g>
       <use style="stroke:#000000;stroke-width:0.8;" x="202.053034" xlink:href="#m3ff4c8e75c" y="307.584"/>
      </g>
     </g>
     <g id="text_10">
      <!-- 36 -->
      <g transform="translate(195.690534 322.182437)scale(0.1 -0.1)">
       <use xlink:href="#DejaVuSans-51"/>
       <use x="63.623047" xlink:href="#DejaVuSans-54"/>
      </g>
     </g>
    </g>
    <g id="xtick_11">
     <g id="line2d_21">
      <path clip-path="url(#p305e371840)" d="M 218.103371 307.584 
L 218.103371 41.472 
" style="fill:none;stroke:#b0b0b0;stroke-dasharray:5.12,1.28,0.8,1.28;stroke-dashoffset:0;stroke-width:0.8;"/>
     </g>
     <g id="line2d_22">
      <g>
       <use style="stroke:#000000;stroke-width:0.8;" x="218.103371" xlink:href="#m3ff4c8e75c" y="307.584"/>
      </g>
     </g>
     <g id="text_11">
      <!-- 40 -->
      <g transform="translate(211.740871 322.182437)scale(0.1 -0.1)">
       <use xlink:href="#DejaVuSans-52"/>
       <use x="63.623047" xlink:href="#DejaVuSans-48"/>
      </g>
     </g>
    </g>
    <g id="xtick_12">
     <g id="line2d_23">
      <path clip-path="url(#p305e371840)" d="M 234.153708 307.584 
L 234.153708 41.472 
" style="fill:none;stroke:#b0b0b0;stroke-dasharray:5.12,1.28,0.8,1.28;stroke-dashoffset:0;stroke-width:0.8;"/>
     </g>
     <g id="line2d_24">
      <g>
       <use style="stroke:#000000;stroke-width:0.8;" x="234.153708" xlink:href="#m3ff4c8e75c" y="307.584"/>
      </g>
     </g>
     <g id="text_12">
      <!-- 44 -->
      <g transform="translate(227.791208 322.182437)scale(0.1 -0.1)">
       <use xlink:href="#DejaVuSans-52"/>
       <use x="63.623047" xlink:href="#DejaVuSans-52"/>
      </g>
     </g>
    </g>
    <g id="xtick_13">
     <g id="line2d_25">
      <path clip-path="url(#p305e371840)" d="M 250.204045 307.584 
L 250.204045 41.472 
" style="fill:none;stroke:#b0b0b0;stroke-dasharray:5.12,1.28,0.8,1.28;stroke-dashoffset:0;stroke-width:0.8;"/>
     </g>
     <g id="line2d_26">
      <g>
       <use style="stroke:#000000;stroke-width:0.8;" x="250.204045" xlink:href="#m3ff4c8e75c" y="307.584"/>
      </g>
     </g>
     <g id="text_13">
      <!-- 48 -->
      <g transform="translate(243.841545 322.182437)scale(0.1 -0.1)">
       <use xlink:href="#DejaVuSans-52"/>
       <use x="63.623047" xlink:href="#DejaVuSans-56"/>
      </g>
     </g>
    </g>
    <g id="xtick_14">
     <g id="line2d_27">
      <path clip-path="url(#p305e371840)" d="M 266.254382 307.584 
L 266.254382 41.472 
" style="fill:none;stroke:#b0b0b0;stroke-dasharray:5.12,1.28,0.8,1.28;stroke-dashoffset:0;stroke-width:0.8;"/>
     </g>
     <g id="line2d_28">
      <g>
       <use style="stroke:#000000;stroke-width:0.8;" x="266.254382" xlink:href="#m3ff4c8e75c" y="307.584"/>
      </g>
     </g>
     <g id="text_14">
      <!-- 52 -->
      <defs>
       <path d="M 10.796875 72.90625 
L 49.515625 72.90625 
L 49.515625 64.59375 
L 19.828125 64.59375 
L 19.828125 46.734375 
Q 21.96875 47.46875 24.109375 47.828125 
Q 26.265625 48.1875 28.421875 48.1875 
Q 40.625 48.1875 47.75 41.5 
Q 54.890625 34.8125 54.890625 23.390625 
Q 54.890625 11.625 47.5625 5.09375 
Q 40.234375 -1.421875 26.90625 -1.421875 
Q 22.3125 -1.421875 17.546875 -0.640625 
Q 12.796875 0.140625 7.71875 1.703125 
L 7.71875 11.625 
Q 12.109375 9.234375 16.796875 8.0625 
Q 21.484375 6.890625 26.703125 6.890625 
Q 35.15625 6.890625 40.078125 11.328125 
Q 45.015625 15.765625 45.015625 23.390625 
Q 45.015625 31 40.078125 35.4375 
Q 35.15625 39.890625 26.703125 39.890625 
Q 22.75 39.890625 18.8125 39.015625 
Q 14.890625 38.140625 10.796875 36.28125 
z
" id="DejaVuSans-53"/>
      </defs>
      <g transform="translate(259.891882 322.182437)scale(0.1 -0.1)">
       <use xlink:href="#DejaVuSans-53"/>
       <use x="63.623047" xlink:href="#DejaVuSans-50"/>
      </g>
     </g>
    </g>
    <g id="xtick_15">
     <g id="line2d_29">
      <path clip-path="url(#p305e371840)" d="M 282.304719 307.584 
L 282.304719 41.472 
" style="fill:none;stroke:#b0b0b0;stroke-dasharray:5.12,1.28,0.8,1.28;stroke-dashoffset:0;stroke-width:0.8;"/>
     </g>
     <g id="line2d_30">
      <g>
       <use style="stroke:#000000;stroke-width:0.8;" x="282.304719" xlink:href="#m3ff4c8e75c" y="307.584"/>
      </g>
     </g>
     <g id="text_15">
      <!-- 56 -->
      <g transform="translate(275.942219 322.182437)scale(0.1 -0.1)">
       <use xlink:href="#DejaVuSans-53"/>
       <use x="63.623047" xlink:href="#DejaVuSans-54"/>
      </g>
     </g>
    </g>
    <g id="xtick_16">
     <g id="line2d_31">
      <path clip-path="url(#p305e371840)" d="M 298.355056 307.584 
L 298.355056 41.472 
" style="fill:none;stroke:#b0b0b0;stroke-dasharray:5.12,1.28,0.8,1.28;stroke-dashoffset:0;stroke-width:0.8;"/>
     </g>
     <g id="line2d_32">
      <g>
       <use style="stroke:#000000;stroke-width:0.8;" x="298.355056" xlink:href="#m3ff4c8e75c" y="307.584"/>
      </g>
     </g>
     <g id="text_16">
      <!-- 60 -->
      <g transform="translate(291.992556 322.182437)scale(0.1 -0.1)">
       <use xlink:href="#DejaVuSans-54"/>
       <use x="63.623047" xlink:href="#DejaVuSans-48"/>
      </g>
     </g>
    </g>
    <g id="xtick_17">
     <g id="line2d_33">
      <path clip-path="url(#p305e371840)" d="M 314.405393 307.584 
L 314.405393 41.472 
" style="fill:none;stroke:#b0b0b0;stroke-dasharray:5.12,1.28,0.8,1.28;stroke-dashoffset:0;stroke-width:0.8;"/>
     </g>
     <g id="line2d_34">
      <g>
       <use style="stroke:#000000;stroke-width:0.8;" x="314.405393" xlink:href="#m3ff4c8e75c" y="307.584"/>
      </g>
     </g>
     <g id="text_17">
      <!-- 64 -->
      <g transform="translate(308.042893 322.182437)scale(0.1 -0.1)">
       <use xlink:href="#DejaVuSans-54"/>
       <use x="63.623047" xlink:href="#DejaVuSans-52"/>
      </g>
     </g>
    </g>
    <g id="xtick_18">
     <g id="line2d_35">
      <path clip-path="url(#p305e371840)" d="M 330.45573 307.584 
L 330.45573 41.472 
" style="fill:none;stroke:#b0b0b0;stroke-dasharray:5.12,1.28,0.8,1.28;stroke-dashoffset:0;stroke-width:0.8;"/>
     </g>
     <g id="line2d_36">
      <g>
       <use style="stroke:#000000;stroke-width:0.8;" x="330.45573" xlink:href="#m3ff4c8e75c" y="307.584"/>
      </g>
     </g>
     <g id="text_18">
      <!-- 68 -->
      <g transform="translate(324.09323 322.182437)scale(0.1 -0.1)">
       <use xlink:href="#DejaVuSans-54"/>
       <use x="63.623047" xlink:href="#DejaVuSans-56"/>
      </g>
     </g>
    </g>
    <g id="xtick_19">
     <g id="line2d_37">
      <path clip-path="url(#p305e371840)" d="M 346.506067 307.584 
L 346.506067 41.472 
" style="fill:none;stroke:#b0b0b0;stroke-dasharray:5.12,1.28,0.8,1.28;stroke-dashoffset:0;stroke-width:0.8;"/>
     </g>
     <g id="line2d_38">
      <g>
       <use style="stroke:#000000;stroke-width:0.8;" x="346.506067" xlink:href="#m3ff4c8e75c" y="307.584"/>
      </g>
     </g>
     <g id="text_19">
      <!-- 72 -->
      <defs>
       <path d="M 8.203125 72.90625 
L 55.078125 72.90625 
L 55.078125 68.703125 
L 28.609375 0 
L 18.3125 0 
L 43.21875 64.59375 
L 8.203125 64.59375 
z
" id="DejaVuSans-55"/>
      </defs>
      <g transform="translate(340.143567 322.182437)scale(0.1 -0.1)">
       <use xlink:href="#DejaVuSans-55"/>
       <use x="63.623047" xlink:href="#DejaVuSans-50"/>
      </g>
     </g>
    </g>
    <g id="xtick_20">
     <g id="line2d_39">
      <path clip-path="url(#p305e371840)" d="M 362.556404 307.584 
L 362.556404 41.472 
" style="fill:none;stroke:#b0b0b0;stroke-dasharray:5.12,1.28,0.8,1.28;stroke-dashoffset:0;stroke-width:0.8;"/>
     </g>
     <g id="line2d_40">
      <g>
       <use style="stroke:#000000;stroke-width:0.8;" x="362.556404" xlink:href="#m3ff4c8e75c" y="307.584"/>
      </g>
     </g>
     <g id="text_20">
      <!-- 76 -->
      <g transform="translate(356.193904 322.182437)scale(0.1 -0.1)">
       <use xlink:href="#DejaVuSans-55"/>
       <use x="63.623047" xlink:href="#DejaVuSans-54"/>
      </g>
     </g>
    </g>
    <g id="xtick_21">
     <g id="line2d_41">
      <path clip-path="url(#p305e371840)" d="M 378.606742 307.584 
L 378.606742 41.472 
" style="fill:none;stroke:#b0b0b0;stroke-dasharray:5.12,1.28,0.8,1.28;stroke-dashoffset:0;stroke-width:0.8;"/>
     </g>
     <g id="line2d_42">
      <g>
       <use style="stroke:#000000;stroke-width:0.8;" x="378.606742" xlink:href="#m3ff4c8e75c" y="307.584"/>
      </g>
     </g>
     <g id="text_21">
      <!-- 80 -->
      <g transform="translate(372.244242 322.182437)scale(0.1 -0.1)">
       <use xlink:href="#DejaVuSans-56"/>
       <use x="63.623047" xlink:href="#DejaVuSans-48"/>
      </g>
     </g>
    </g>
    <g id="xtick_22">
     <g id="line2d_43">
      <path clip-path="url(#p305e371840)" d="M 394.657079 307.584 
L 394.657079 41.472 
" style="fill:none;stroke:#b0b0b0;stroke-dasharray:5.12,1.28,0.8,1.28;stroke-dashoffset:0;stroke-width:0.8;"/>
     </g>
     <g id="line2d_44">
      <g>
       <use style="stroke:#000000;stroke-width:0.8;" x="394.657079" xlink:href="#m3ff4c8e75c" y="307.584"/>
      </g>
     </g>
     <g id="text_22">
      <!-- 84 -->
      <g transform="translate(388.294579 322.182437)scale(0.1 -0.1)">
       <use xlink:href="#DejaVuSans-56"/>
       <use x="63.623047" xlink:href="#DejaVuSans-52"/>
      </g>
     </g>
    </g>
    <g id="xtick_23">
     <g id="line2d_45">
      <path clip-path="url(#p305e371840)" d="M 410.707416 307.584 
L 410.707416 41.472 
" style="fill:none;stroke:#b0b0b0;stroke-dasharray:5.12,1.28,0.8,1.28;stroke-dashoffset:0;stroke-width:0.8;"/>
     </g>
     <g id="line2d_46">
      <g>
       <use style="stroke:#000000;stroke-width:0.8;" x="410.707416" xlink:href="#m3ff4c8e75c" y="307.584"/>
      </g>
     </g>
     <g id="text_23">
      <!-- 88 -->
      <g transform="translate(404.344916 322.182437)scale(0.1 -0.1)">
       <use xlink:href="#DejaVuSans-56"/>
       <use x="63.623047" xlink:href="#DejaVuSans-56"/>
      </g>
     </g>
    </g>
    <g id="text_24">
     <!-- threads -->
     <defs>
      <path d="M 18.3125 70.21875 
L 18.3125 54.6875 
L 36.8125 54.6875 
L 36.8125 47.703125 
L 18.3125 47.703125 
L 18.3125 18.015625 
Q 18.3125 11.328125 20.140625 9.421875 
Q 21.96875 7.515625 27.59375 7.515625 
L 36.8125 7.515625 
L 36.8125 0 
L 27.59375 0 
Q 17.1875 0 13.234375 3.875 
Q 9.28125 7.765625 9.28125 18.015625 
L 9.28125 47.703125 
L 2.6875 47.703125 
L 2.6875 54.6875 
L 9.28125 54.6875 
L 9.28125 70.21875 
z
" id="DejaVuSans-116"/>
      <path d="M 54.890625 33.015625 
L 54.890625 0 
L 45.90625 0 
L 45.90625 32.71875 
Q 45.90625 40.484375 42.875 44.328125 
Q 39.84375 48.1875 33.796875 48.1875 
Q 26.515625 48.1875 22.3125 43.546875 
Q 18.109375 38.921875 18.109375 30.90625 
L 18.109375 0 
L 9.078125 0 
L 9.078125 75.984375 
L 18.109375 75.984375 
L 18.109375 46.1875 
Q 21.34375 51.125 25.703125 53.5625 
Q 30.078125 56 35.796875 56 
Q 45.21875 56 50.046875 50.171875 
Q 54.890625 44.34375 54.890625 33.015625 
z
" id="DejaVuSans-104"/>
      <path d="M 41.109375 46.296875 
Q 39.59375 47.171875 37.8125 47.578125 
Q 36.03125 48 33.890625 48 
Q 26.265625 48 22.1875 43.046875 
Q 18.109375 38.09375 18.109375 28.8125 
L 18.109375 0 
L 9.078125 0 
L 9.078125 54.6875 
L 18.109375 54.6875 
L 18.109375 46.1875 
Q 20.953125 51.171875 25.484375 53.578125 
Q 30.03125 56 36.53125 56 
Q 37.453125 56 38.578125 55.875 
Q 39.703125 55.765625 41.0625 55.515625 
z
" id="DejaVuSans-114"/>
      <path d="M 56.203125 29.59375 
L 56.203125 25.203125 
L 14.890625 25.203125 
Q 15.484375 15.921875 20.484375 11.0625 
Q 25.484375 6.203125 34.421875 6.203125 
Q 39.59375 6.203125 44.453125 7.46875 
Q 49.3125 8.734375 54.109375 11.28125 
L 54.109375 2.78125 
Q 49.265625 0.734375 44.1875 -0.34375 
Q 39.109375 -1.421875 33.890625 -1.421875 
Q 20.796875 -1.421875 13.15625 6.1875 
Q 5.515625 13.8125 5.515625 26.8125 
Q 5.515625 40.234375 12.765625 48.109375 
Q 20.015625 56 32.328125 56 
Q 43.359375 56 49.78125 48.890625 
Q 56.203125 41.796875 56.203125 29.59375 
z
M 47.21875 32.234375 
Q 47.125 39.59375 43.09375 43.984375 
Q 39.0625 48.390625 32.421875 48.390625 
Q 24.90625 48.390625 20.390625 44.140625 
Q 15.875 39.890625 15.1875 32.171875 
z
" id="DejaVuSans-101"/>
      <path d="M 34.28125 27.484375 
Q 23.390625 27.484375 19.1875 25 
Q 14.984375 22.515625 14.984375 16.5 
Q 14.984375 11.71875 18.140625 8.90625 
Q 21.296875 6.109375 26.703125 6.109375 
Q 34.1875 6.109375 38.703125 11.40625 
Q 43.21875 16.703125 43.21875 25.484375 
L 43.21875 27.484375 
z
M 52.203125 31.203125 
L 52.203125 0 
L 43.21875 0 
L 43.21875 8.296875 
Q 40.140625 3.328125 35.546875 0.953125 
Q 30.953125 -1.421875 24.3125 -1.421875 
Q 15.921875 -1.421875 10.953125 3.296875 
Q 6 8.015625 6 15.921875 
Q 6 25.140625 12.171875 29.828125 
Q 18.359375 34.515625 30.609375 34.515625 
L 43.21875 34.515625 
L 43.21875 35.40625 
Q 43.21875 41.609375 39.140625 45 
Q 35.0625 48.390625 27.6875 48.390625 
Q 23 48.390625 18.546875 47.265625 
Q 14.109375 46.140625 10.015625 43.890625 
L 10.015625 52.203125 
Q 14.9375 54.109375 19.578125 55.046875 
Q 24.21875 56 28.609375 56 
Q 40.484375 56 46.34375 49.84375 
Q 52.203125 43.703125 52.203125 31.203125 
z
" id="DejaVuSans-97"/>
      <path d="M 45.40625 46.390625 
L 45.40625 75.984375 
L 54.390625 75.984375 
L 54.390625 0 
L 45.40625 0 
L 45.40625 8.203125 
Q 42.578125 3.328125 38.25 0.953125 
Q 33.9375 -1.421875 27.875 -1.421875 
Q 17.96875 -1.421875 11.734375 6.484375 
Q 5.515625 14.40625 5.515625 27.296875 
Q 5.515625 40.1875 11.734375 48.09375 
Q 17.96875 56 27.875 56 
Q 33.9375 56 38.25 53.625 
Q 42.578125 51.265625 45.40625 46.390625 
z
M 14.796875 27.296875 
Q 14.796875 17.390625 18.875 11.75 
Q 22.953125 6.109375 30.078125 6.109375 
Q 37.203125 6.109375 41.296875 11.75 
Q 45.40625 17.390625 45.40625 27.296875 
Q 45.40625 37.203125 41.296875 42.84375 
Q 37.203125 48.484375 30.078125 48.484375 
Q 22.953125 48.484375 18.875 42.84375 
Q 14.796875 37.203125 14.796875 27.296875 
z
" id="DejaVuSans-100"/>
      <path d="M 44.28125 53.078125 
L 44.28125 44.578125 
Q 40.484375 46.53125 36.375 47.5 
Q 32.28125 48.484375 27.875 48.484375 
Q 21.1875 48.484375 17.84375 46.4375 
Q 14.5 44.390625 14.5 40.28125 
Q 14.5 37.15625 16.890625 35.375 
Q 19.28125 33.59375 26.515625 31.984375 
L 29.59375 31.296875 
Q 39.15625 29.25 43.1875 25.515625 
Q 47.21875 21.78125 47.21875 15.09375 
Q 47.21875 7.46875 41.1875 3.015625 
Q 35.15625 -1.421875 24.609375 -1.421875 
Q 20.21875 -1.421875 15.453125 -0.5625 
Q 10.6875 0.296875 5.421875 2 
L 5.421875 11.28125 
Q 10.40625 8.6875 15.234375 7.390625 
Q 20.0625 6.109375 24.8125 6.109375 
Q 31.15625 6.109375 34.5625 8.28125 
Q 37.984375 10.453125 37.984375 14.40625 
Q 37.984375 18.0625 35.515625 20.015625 
Q 33.0625 21.96875 24.703125 23.78125 
L 21.578125 24.515625 
Q 13.234375 26.265625 9.515625 29.90625 
Q 5.8125 33.546875 5.8125 39.890625 
Q 5.8125 47.609375 11.28125 51.796875 
Q 16.75 56 26.8125 56 
Q 31.78125 56 36.171875 55.265625 
Q 40.578125 54.546875 44.28125 53.078125 
z
" id="DejaVuSans-115"/>
     </defs>
     <g transform="translate(217.168594 335.860562)scale(0.1 -0.1)">
      <use xlink:href="#DejaVuSans-116"/>
      <use x="39.208984" xlink:href="#DejaVuSans-104"/>
      <use x="102.587891" xlink:href="#DejaVuSans-114"/>
      <use x="141.451172" xlink:href="#DejaVuSans-101"/>
      <use x="202.974609" xlink:href="#DejaVuSans-97"/>
      <use x="264.253906" xlink:href="#DejaVuSans-100"/>
      <use x="327.730469" xlink:href="#DejaVuSans-115"/>
     </g>
    </g>
   </g>
   <g id="matplotlib.axis_2">
    <g id="ytick_1">
     <g id="line2d_47">
      <path clip-path="url(#p305e371840)" d="M 57.6 301.920615 
L 414.72 301.920615 
" style="fill:none;stroke:#b0b0b0;stroke-dasharray:5.12,1.28,0.8,1.28;stroke-dashoffset:0;stroke-width:0.8;"/>
     </g>
     <g id="line2d_48">
      <defs>
       <path d="M 0 0 
L -3.5 0 
" id="mf8fc6cfa68" style="stroke:#000000;stroke-width:0.8;"/>
      </defs>
      <g>
       <use style="stroke:#000000;stroke-width:0.8;" x="57.6" xlink:href="#mf8fc6cfa68" y="301.920615"/>
      </g>
     </g>
     <g id="text_25">
      <!-- 0.007 -->
      <defs>
       <path d="M 10.6875 12.40625 
L 21 12.40625 
L 21 0 
L 10.6875 0 
z
" id="DejaVuSans-46"/>
      </defs>
      <g transform="translate(21.971875 305.719834)scale(0.1 -0.1)">
       <use xlink:href="#DejaVuSans-48"/>
       <use x="63.623047" xlink:href="#DejaVuSans-46"/>
       <use x="95.410156" xlink:href="#DejaVuSans-48"/>
       <use x="159.033203" xlink:href="#DejaVuSans-48"/>
       <use x="222.65625" xlink:href="#DejaVuSans-55"/>
      </g>
     </g>
    </g>
    <g id="ytick_2">
     <g id="line2d_49">
      <path clip-path="url(#p305e371840)" d="M 57.6 270.709385 
L 414.72 270.709385 
" style="fill:none;stroke:#b0b0b0;stroke-dasharray:5.12,1.28,0.8,1.28;stroke-dashoffset:0;stroke-width:0.8;"/>
     </g>
     <g id="line2d_50">
      <g>
       <use style="stroke:#000000;stroke-width:0.8;" x="57.6" xlink:href="#mf8fc6cfa68" y="270.709385"/>
      </g>
     </g>
     <g id="text_26">
      <!-- 0.008 -->
      <g transform="translate(21.971875 274.508603)scale(0.1 -0.1)">
       <use xlink:href="#DejaVuSans-48"/>
       <use x="63.623047" xlink:href="#DejaVuSans-46"/>
       <use x="95.410156" xlink:href="#DejaVuSans-48"/>
       <use x="159.033203" xlink:href="#DejaVuSans-48"/>
       <use x="222.65625" xlink:href="#DejaVuSans-56"/>
      </g>
     </g>
    </g>
    <g id="ytick_3">
     <g id="line2d_51">
      <path clip-path="url(#p305e371840)" d="M 57.6 239.498154 
L 414.72 239.498154 
" style="fill:none;stroke:#b0b0b0;stroke-dasharray:5.12,1.28,0.8,1.28;stroke-dashoffset:0;stroke-width:0.8;"/>
     </g>
     <g id="line2d_52">
      <g>
       <use style="stroke:#000000;stroke-width:0.8;" x="57.6" xlink:href="#mf8fc6cfa68" y="239.498154"/>
      </g>
     </g>
     <g id="text_27">
      <!-- 0.009 -->
      <defs>
       <path d="M 10.984375 1.515625 
L 10.984375 10.5 
Q 14.703125 8.734375 18.5 7.8125 
Q 22.3125 6.890625 25.984375 6.890625 
Q 35.75 6.890625 40.890625 13.453125 
Q 46.046875 20.015625 46.78125 33.40625 
Q 43.953125 29.203125 39.59375 26.953125 
Q 35.25 24.703125 29.984375 24.703125 
Q 19.046875 24.703125 12.671875 31.3125 
Q 6.296875 37.9375 6.296875 49.421875 
Q 6.296875 60.640625 12.9375 67.421875 
Q 19.578125 74.21875 30.609375 74.21875 
Q 43.265625 74.21875 49.921875 64.515625 
Q 56.59375 54.828125 56.59375 36.375 
Q 56.59375 19.140625 48.40625 8.859375 
Q 40.234375 -1.421875 26.421875 -1.421875 
Q 22.703125 -1.421875 18.890625 -0.6875 
Q 15.09375 0.046875 10.984375 1.515625 
z
M 30.609375 32.421875 
Q 37.25 32.421875 41.125 36.953125 
Q 45.015625 41.5 45.015625 49.421875 
Q 45.015625 57.28125 41.125 61.84375 
Q 37.25 66.40625 30.609375 66.40625 
Q 23.96875 66.40625 20.09375 61.84375 
Q 16.21875 57.28125 16.21875 49.421875 
Q 16.21875 41.5 20.09375 36.953125 
Q 23.96875 32.421875 30.609375 32.421875 
z
" id="DejaVuSans-57"/>
      </defs>
      <g transform="translate(21.971875 243.297373)scale(0.1 -0.1)">
       <use xlink:href="#DejaVuSans-48"/>
       <use x="63.623047" xlink:href="#DejaVuSans-46"/>
       <use x="95.410156" xlink:href="#DejaVuSans-48"/>
       <use x="159.033203" xlink:href="#DejaVuSans-48"/>
       <use x="222.65625" xlink:href="#DejaVuSans-57"/>
      </g>
     </g>
    </g>
    <g id="ytick_4">
     <g id="line2d_53">
      <path clip-path="url(#p305e371840)" d="M 57.6 208.286923 
L 414.72 208.286923 
" style="fill:none;stroke:#b0b0b0;stroke-dasharray:5.12,1.28,0.8,1.28;stroke-dashoffset:0;stroke-width:0.8;"/>
     </g>
     <g id="line2d_54">
      <g>
       <use style="stroke:#000000;stroke-width:0.8;" x="57.6" xlink:href="#mf8fc6cfa68" y="208.286923"/>
      </g>
     </g>
     <g id="text_28">
      <!-- 0.010 -->
      <g transform="translate(21.971875 212.086142)scale(0.1 -0.1)">
       <use xlink:href="#DejaVuSans-48"/>
       <use x="63.623047" xlink:href="#DejaVuSans-46"/>
       <use x="95.410156" xlink:href="#DejaVuSans-48"/>
       <use x="159.033203" xlink:href="#DejaVuSans-49"/>
       <use x="222.65625" xlink:href="#DejaVuSans-48"/>
      </g>
     </g>
    </g>
    <g id="ytick_5">
     <g id="line2d_55">
      <path clip-path="url(#p305e371840)" d="M 57.6 177.075693 
L 414.72 177.075693 
" style="fill:none;stroke:#b0b0b0;stroke-dasharray:5.12,1.28,0.8,1.28;stroke-dashoffset:0;stroke-width:0.8;"/>
     </g>
     <g id="line2d_56">
      <g>
       <use style="stroke:#000000;stroke-width:0.8;" x="57.6" xlink:href="#mf8fc6cfa68" y="177.075693"/>
      </g>
     </g>
     <g id="text_29">
      <!-- 0.011 -->
      <g transform="translate(21.971875 180.874912)scale(0.1 -0.1)">
       <use xlink:href="#DejaVuSans-48"/>
       <use x="63.623047" xlink:href="#DejaVuSans-46"/>
       <use x="95.410156" xlink:href="#DejaVuSans-48"/>
       <use x="159.033203" xlink:href="#DejaVuSans-49"/>
       <use x="222.65625" xlink:href="#DejaVuSans-49"/>
      </g>
     </g>
    </g>
    <g id="ytick_6">
     <g id="line2d_57">
      <path clip-path="url(#p305e371840)" d="M 57.6 145.864462 
L 414.72 145.864462 
" style="fill:none;stroke:#b0b0b0;stroke-dasharray:5.12,1.28,0.8,1.28;stroke-dashoffset:0;stroke-width:0.8;"/>
     </g>
     <g id="line2d_58">
      <g>
       <use style="stroke:#000000;stroke-width:0.8;" x="57.6" xlink:href="#mf8fc6cfa68" y="145.864462"/>
      </g>
     </g>
     <g id="text_30">
      <!-- 0.012 -->
      <g transform="translate(21.971875 149.663681)scale(0.1 -0.1)">
       <use xlink:href="#DejaVuSans-48"/>
       <use x="63.623047" xlink:href="#DejaVuSans-46"/>
       <use x="95.410156" xlink:href="#DejaVuSans-48"/>
       <use x="159.033203" xlink:href="#DejaVuSans-49"/>
       <use x="222.65625" xlink:href="#DejaVuSans-50"/>
      </g>
     </g>
    </g>
    <g id="ytick_7">
     <g id="line2d_59">
      <path clip-path="url(#p305e371840)" d="M 57.6 114.653232 
L 414.72 114.653232 
" style="fill:none;stroke:#b0b0b0;stroke-dasharray:5.12,1.28,0.8,1.28;stroke-dashoffset:0;stroke-width:0.8;"/>
     </g>
     <g id="line2d_60">
      <g>
       <use style="stroke:#000000;stroke-width:0.8;" x="57.6" xlink:href="#mf8fc6cfa68" y="114.653232"/>
      </g>
     </g>
     <g id="text_31">
      <!-- 0.013 -->
      <g transform="translate(21.971875 118.45245)scale(0.1 -0.1)">
       <use xlink:href="#DejaVuSans-48"/>
       <use x="63.623047" xlink:href="#DejaVuSans-46"/>
       <use x="95.410156" xlink:href="#DejaVuSans-48"/>
       <use x="159.033203" xlink:href="#DejaVuSans-49"/>
       <use x="222.65625" xlink:href="#DejaVuSans-51"/>
      </g>
     </g>
    </g>
    <g id="ytick_8">
     <g id="line2d_61">
      <path clip-path="url(#p305e371840)" d="M 57.6 83.442001 
L 414.72 83.442001 
" style="fill:none;stroke:#b0b0b0;stroke-dasharray:5.12,1.28,0.8,1.28;stroke-dashoffset:0;stroke-width:0.8;"/>
     </g>
     <g id="line2d_62">
      <g>
       <use style="stroke:#000000;stroke-width:0.8;" x="57.6" xlink:href="#mf8fc6cfa68" y="83.442001"/>
      </g>
     </g>
     <g id="text_32">
      <!-- 0.014 -->
      <g transform="translate(21.971875 87.24122)scale(0.1 -0.1)">
       <use xlink:href="#DejaVuSans-48"/>
       <use x="63.623047" xlink:href="#DejaVuSans-46"/>
       <use x="95.410156" xlink:href="#DejaVuSans-48"/>
       <use x="159.033203" xlink:href="#DejaVuSans-49"/>
       <use x="222.65625" xlink:href="#DejaVuSans-52"/>
      </g>
     </g>
    </g>
    <g id="ytick_9">
     <g id="line2d_63">
      <path clip-path="url(#p305e371840)" d="M 57.6 52.23077 
L 414.72 52.23077 
" style="fill:none;stroke:#b0b0b0;stroke-dasharray:5.12,1.28,0.8,1.28;stroke-dashoffset:0;stroke-width:0.8;"/>
     </g>
     <g id="line2d_64">
      <g>
       <use style="stroke:#000000;stroke-width:0.8;" x="57.6" xlink:href="#mf8fc6cfa68" y="52.23077"/>
      </g>
     </g>
     <g id="text_33">
      <!-- 0.015 -->
      <g transform="translate(21.971875 56.029989)scale(0.1 -0.1)">
       <use xlink:href="#DejaVuSans-48"/>
       <use x="63.623047" xlink:href="#DejaVuSans-46"/>
       <use x="95.410156" xlink:href="#DejaVuSans-48"/>
       <use x="159.033203" xlink:href="#DejaVuSans-49"/>
       <use x="222.65625" xlink:href="#DejaVuSans-53"/>
      </g>
     </g>
    </g>
    <g id="text_34">
     <!-- duration (s) -->
     <defs>
      <path d="M 8.5 21.578125 
L 8.5 54.6875 
L 17.484375 54.6875 
L 17.484375 21.921875 
Q 17.484375 14.15625 20.5 10.265625 
Q 23.53125 6.390625 29.59375 6.390625 
Q 36.859375 6.390625 41.078125 11.03125 
Q 45.3125 15.671875 45.3125 23.6875 
L 45.3125 54.6875 
L 54.296875 54.6875 
L 54.296875 0 
L 45.3125 0 
L 45.3125 8.40625 
Q 42.046875 3.421875 37.71875 1 
Q 33.40625 -1.421875 27.6875 -1.421875 
Q 18.265625 -1.421875 13.375 4.4375 
Q 8.5 10.296875 8.5 21.578125 
z
M 31.109375 56 
z
" id="DejaVuSans-117"/>
      <path d="M 9.421875 54.6875 
L 18.40625 54.6875 
L 18.40625 0 
L 9.421875 0 
z
M 9.421875 75.984375 
L 18.40625 75.984375 
L 18.40625 64.59375 
L 9.421875 64.59375 
z
" id="DejaVuSans-105"/>
      <path d="M 30.609375 48.390625 
Q 23.390625 48.390625 19.1875 42.75 
Q 14.984375 37.109375 14.984375 27.296875 
Q 14.984375 17.484375 19.15625 11.84375 
Q 23.34375 6.203125 30.609375 6.203125 
Q 37.796875 6.203125 41.984375 11.859375 
Q 46.1875 17.53125 46.1875 27.296875 
Q 46.1875 37.015625 41.984375 42.703125 
Q 37.796875 48.390625 30.609375 48.390625 
z
M 30.609375 56 
Q 42.328125 56 49.015625 48.375 
Q 55.71875 40.765625 55.71875 27.296875 
Q 55.71875 13.875 49.015625 6.21875 
Q 42.328125 -1.421875 30.609375 -1.421875 
Q 18.84375 -1.421875 12.171875 6.21875 
Q 5.515625 13.875 5.515625 27.296875 
Q 5.515625 40.765625 12.171875 48.375 
Q 18.84375 56 30.609375 56 
z
" id="DejaVuSans-111"/>
      <path d="M 54.890625 33.015625 
L 54.890625 0 
L 45.90625 0 
L 45.90625 32.71875 
Q 45.90625 40.484375 42.875 44.328125 
Q 39.84375 48.1875 33.796875 48.1875 
Q 26.515625 48.1875 22.3125 43.546875 
Q 18.109375 38.921875 18.109375 30.90625 
L 18.109375 0 
L 9.078125 0 
L 9.078125 54.6875 
L 18.109375 54.6875 
L 18.109375 46.1875 
Q 21.34375 51.125 25.703125 53.5625 
Q 30.078125 56 35.796875 56 
Q 45.21875 56 50.046875 50.171875 
Q 54.890625 44.34375 54.890625 33.015625 
z
" id="DejaVuSans-110"/>
      <path id="DejaVuSans-32"/>
      <path d="M 31 75.875 
Q 24.46875 64.65625 21.28125 53.65625 
Q 18.109375 42.671875 18.109375 31.390625 
Q 18.109375 20.125 21.3125 9.0625 
Q 24.515625 -2 31 -13.1875 
L 23.1875 -13.1875 
Q 15.875 -1.703125 12.234375 9.375 
Q 8.59375 20.453125 8.59375 31.390625 
Q 8.59375 42.28125 12.203125 53.3125 
Q 15.828125 64.359375 23.1875 75.875 
z
" id="DejaVuSans-40"/>
      <path d="M 8.015625 75.875 
L 15.828125 75.875 
Q 23.140625 64.359375 26.78125 53.3125 
Q 30.421875 42.28125 30.421875 31.390625 
Q 30.421875 20.453125 26.78125 9.375 
Q 23.140625 -1.703125 15.828125 -13.1875 
L 8.015625 -13.1875 
Q 14.5 -2 17.703125 9.0625 
Q 20.90625 20.125 20.90625 31.390625 
Q 20.90625 42.671875 17.703125 53.65625 
Q 14.5 64.65625 8.015625 75.875 
z
" id="DejaVuSans-41"/>
     </defs>
     <g transform="translate(15.892187 203.663156)rotate(-90)scale(0.1 -0.1)">
      <use xlink:href="#DejaVuSans-100"/>
      <use x="63.476562" xlink:href="#DejaVuSans-117"/>
      <use x="126.855469" xlink:href="#DejaVuSans-114"/>
      <use x="167.96875" xlink:href="#DejaVuSans-97"/>
      <use x="229.248047" xlink:href="#DejaVuSans-116"/>
      <use x="268.457031" xlink:href="#DejaVuSans-105"/>
      <use x="296.240234" xlink:href="#DejaVuSans-111"/>
      <use x="357.421875" xlink:href="#DejaVuSans-110"/>
      <use x="420.800781" xlink:href="#DejaVuSans-32"/>
      <use x="452.587891" xlink:href="#DejaVuSans-40"/>
      <use x="491.601562" xlink:href="#DejaVuSans-115"/>
      <use x="543.701172" xlink:href="#DejaVuSans-41"/>
     </g>
    </g>
   </g>
   <g id="line2d_65">
    <path clip-path="url(#p305e371840)" d="M 61.612584 238.514996 
L 65.625169 269.742036 
L 69.637753 236.475006 
L 73.650337 235.671342 
L 77.662921 266.575216 
L 81.675506 243.119058 
L 85.68809 239.016755 
L 89.700674 252.606763 
L 93.713258 225.327883 
L 97.725843 230.618674 
L 101.738427 225.636167 
L 105.751011 225.221578 
L 109.763596 239.160266 
L 113.77618 232.314236 
L 117.788764 230.728168 
L 121.801348 224.173413 
L 125.813933 246.525064 
L 129.826517 245.769237 
L 133.839101 213.688569 
L 137.851685 247.056588 
L 141.86427 239.067781 
L 145.876854 240.712317 
L 149.889438 245.420557 
L 153.902022 178.261425 
L 157.914607 284.593882 
L 161.927191 272.701562 
L 165.939775 274.623553 
L 169.95236 284.543919 
L 173.964944 284.6279 
L 177.977528 287.42478 
L 181.990112 274.290819 
L 186.002697 279.498692 
L 190.015281 268.463189 
L 194.027865 260.112946 
L 198.040449 236.693994 
L 202.053034 253.941951 
L 206.065618 227.607059 
L 210.078202 215.391572 
L 214.090787 244.951753 
L 218.103371 224.917547 
L 222.115955 234.909137 
L 226.128539 246.630306 
L 230.141124 210.257049 
L 234.153708 221.338263 
L 238.166292 204.542102 
L 242.178876 200.85864 
L 246.191461 198.882434 
L 250.204045 190.912762 
L 254.216629 217.38585 
L 258.229213 221.132032 
L 262.241798 207.734436 
L 266.254382 212.632962 
L 270.266966 208.207492 
L 274.279551 203.216481 
L 278.292135 193.676687 
L 282.304719 200.128326 
L 286.317303 209.370467 
L 290.329888 207.306028 
L 294.342472 197.363338 
L 298.355056 200.395151 
L 302.36764 194.532441 
L 306.380225 194.983173 
L 310.392809 185.064934 
L 314.405393 191.57823 
L 318.417978 186.3087 
L 322.430562 178.81421 
L 326.443146 152.552668 
L 330.45573 169.285046 
L 334.468315 171.995819 
L 338.480899 158.030555 
L 342.493483 135.442908 
L 346.506067 151.571475 
L 350.518652 151.550214 
L 354.531236 130.833531 
L 358.54382 141.303492 
L 362.556404 132.453616 
L 366.568989 132.750207 
L 370.581573 118.102466 
L 374.594157 105.857214 
L 378.606742 120.31148 
L 382.619326 115.922154 
L 386.63191 110.144487 
L 390.644494 95.342604 
L 394.657079 102.408685 
L 398.669663 90.33671 
L 402.682247 86.715968 
L 406.694831 78.128665 
L 410.707416 53.568 
" style="fill:none;stroke:#0000ff;stroke-dasharray:1.5,2.475;stroke-dashoffset:0;stroke-width:1.5;"/>
    <defs>
     <path d="M 0 1.5 
C 0.397805 1.5 0.77937 1.341951 1.06066 1.06066 
C 1.341951 0.77937 1.5 0.397805 1.5 0 
C 1.5 -0.397805 1.341951 -0.77937 1.06066 -1.06066 
C 0.77937 -1.341951 0.397805 -1.5 0 -1.5 
C -0.397805 -1.5 -0.77937 -1.341951 -1.06066 -1.06066 
C -1.341951 -0.77937 -1.5 -0.397805 -1.5 0 
C -1.5 0.397805 -1.341951 0.77937 -1.06066 1.06066 
C -0.77937 1.341951 -0.397805 1.5 0 1.5 
z
" id="m3dae7ffa6f" style="stroke:#0000ff;"/>
    </defs>
    <g clip-path="url(#p305e371840)">
     <use style="fill:#0000ff;stroke:#0000ff;" x="61.612584" xlink:href="#m3dae7ffa6f" y="238.514996"/>
     <use style="fill:#0000ff;stroke:#0000ff;" x="65.625169" xlink:href="#m3dae7ffa6f" y="269.742036"/>
     <use style="fill:#0000ff;stroke:#0000ff;" x="69.637753" xlink:href="#m3dae7ffa6f" y="236.475006"/>
     <use style="fill:#0000ff;stroke:#0000ff;" x="73.650337" xlink:href="#m3dae7ffa6f" y="235.671342"/>
     <use style="fill:#0000ff;stroke:#0000ff;" x="77.662921" xlink:href="#m3dae7ffa6f" y="266.575216"/>
     <use style="fill:#0000ff;stroke:#0000ff;" x="81.675506" xlink:href="#m3dae7ffa6f" y="243.119058"/>
     <use style="fill:#0000ff;stroke:#0000ff;" x="85.68809" xlink:href="#m3dae7ffa6f" y="239.016755"/>
     <use style="fill:#0000ff;stroke:#0000ff;" x="89.700674" xlink:href="#m3dae7ffa6f" y="252.606763"/>
     <use style="fill:#0000ff;stroke:#0000ff;" x="93.713258" xlink:href="#m3dae7ffa6f" y="225.327883"/>
     <use style="fill:#0000ff;stroke:#0000ff;" x="97.725843" xlink:href="#m3dae7ffa6f" y="230.618674"/>
     <use style="fill:#0000ff;stroke:#0000ff;" x="101.738427" xlink:href="#m3dae7ffa6f" y="225.636167"/>
     <use style="fill:#0000ff;stroke:#0000ff;" x="105.751011" xlink:href="#m3dae7ffa6f" y="225.221578"/>
     <use style="fill:#0000ff;stroke:#0000ff;" x="109.763596" xlink:href="#m3dae7ffa6f" y="239.160266"/>
     <use style="fill:#0000ff;stroke:#0000ff;" x="113.77618" xlink:href="#m3dae7ffa6f" y="232.314236"/>
     <use style="fill:#0000ff;stroke:#0000ff;" x="117.788764" xlink:href="#m3dae7ffa6f" y="230.728168"/>
     <use style="fill:#0000ff;stroke:#0000ff;" x="121.801348" xlink:href="#m3dae7ffa6f" y="224.173413"/>
     <use style="fill:#0000ff;stroke:#0000ff;" x="125.813933" xlink:href="#m3dae7ffa6f" y="246.525064"/>
     <use style="fill:#0000ff;stroke:#0000ff;" x="129.826517" xlink:href="#m3dae7ffa6f" y="245.769237"/>
     <use style="fill:#0000ff;stroke:#0000ff;" x="133.839101" xlink:href="#m3dae7ffa6f" y="213.688569"/>
     <use style="fill:#0000ff;stroke:#0000ff;" x="137.851685" xlink:href="#m3dae7ffa6f" y="247.056588"/>
     <use style="fill:#0000ff;stroke:#0000ff;" x="141.86427" xlink:href="#m3dae7ffa6f" y="239.067781"/>
     <use style="fill:#0000ff;stroke:#0000ff;" x="145.876854" xlink:href="#m3dae7ffa6f" y="240.712317"/>
     <use style="fill:#0000ff;stroke:#0000ff;" x="149.889438" xlink:href="#m3dae7ffa6f" y="245.420557"/>
     <use style="fill:#0000ff;stroke:#0000ff;" x="153.902022" xlink:href="#m3dae7ffa6f" y="178.261425"/>
     <use style="fill:#0000ff;stroke:#0000ff;" x="157.914607" xlink:href="#m3dae7ffa6f" y="284.593882"/>
     <use style="fill:#0000ff;stroke:#0000ff;" x="161.927191" xlink:href="#m3dae7ffa6f" y="272.701562"/>
     <use style="fill:#0000ff;stroke:#0000ff;" x="165.939775" xlink:href="#m3dae7ffa6f" y="274.623553"/>
     <use style="fill:#0000ff;stroke:#0000ff;" x="169.95236" xlink:href="#m3dae7ffa6f" y="284.543919"/>
     <use style="fill:#0000ff;stroke:#0000ff;" x="173.964944" xlink:href="#m3dae7ffa6f" y="284.6279"/>
     <use style="fill:#0000ff;stroke:#0000ff;" x="177.977528" xlink:href="#m3dae7ffa6f" y="287.42478"/>
     <use style="fill:#0000ff;stroke:#0000ff;" x="181.990112" xlink:href="#m3dae7ffa6f" y="274.290819"/>
     <use style="fill:#0000ff;stroke:#0000ff;" x="186.002697" xlink:href="#m3dae7ffa6f" y="279.498692"/>
     <use style="fill:#0000ff;stroke:#0000ff;" x="190.015281" xlink:href="#m3dae7ffa6f" y="268.463189"/>
     <use style="fill:#0000ff;stroke:#0000ff;" x="194.027865" xlink:href="#m3dae7ffa6f" y="260.112946"/>
     <use style="fill:#0000ff;stroke:#0000ff;" x="198.040449" xlink:href="#m3dae7ffa6f" y="236.693994"/>
     <use style="fill:#0000ff;stroke:#0000ff;" x="202.053034" xlink:href="#m3dae7ffa6f" y="253.941951"/>
     <use style="fill:#0000ff;stroke:#0000ff;" x="206.065618" xlink:href="#m3dae7ffa6f" y="227.607059"/>
     <use style="fill:#0000ff;stroke:#0000ff;" x="210.078202" xlink:href="#m3dae7ffa6f" y="215.391572"/>
     <use style="fill:#0000ff;stroke:#0000ff;" x="214.090787" xlink:href="#m3dae7ffa6f" y="244.951753"/>
     <use style="fill:#0000ff;stroke:#0000ff;" x="218.103371" xlink:href="#m3dae7ffa6f" y="224.917547"/>
     <use style="fill:#0000ff;stroke:#0000ff;" x="222.115955" xlink:href="#m3dae7ffa6f" y="234.909137"/>
     <use style="fill:#0000ff;stroke:#0000ff;" x="226.128539" xlink:href="#m3dae7ffa6f" y="246.630306"/>
     <use style="fill:#0000ff;stroke:#0000ff;" x="230.141124" xlink:href="#m3dae7ffa6f" y="210.257049"/>
     <use style="fill:#0000ff;stroke:#0000ff;" x="234.153708" xlink:href="#m3dae7ffa6f" y="221.338263"/>
     <use style="fill:#0000ff;stroke:#0000ff;" x="238.166292" xlink:href="#m3dae7ffa6f" y="204.542102"/>
     <use style="fill:#0000ff;stroke:#0000ff;" x="242.178876" xlink:href="#m3dae7ffa6f" y="200.85864"/>
     <use style="fill:#0000ff;stroke:#0000ff;" x="246.191461" xlink:href="#m3dae7ffa6f" y="198.882434"/>
     <use style="fill:#0000ff;stroke:#0000ff;" x="250.204045" xlink:href="#m3dae7ffa6f" y="190.912762"/>
     <use style="fill:#0000ff;stroke:#0000ff;" x="254.216629" xlink:href="#m3dae7ffa6f" y="217.38585"/>
     <use style="fill:#0000ff;stroke:#0000ff;" x="258.229213" xlink:href="#m3dae7ffa6f" y="221.132032"/>
     <use style="fill:#0000ff;stroke:#0000ff;" x="262.241798" xlink:href="#m3dae7ffa6f" y="207.734436"/>
     <use style="fill:#0000ff;stroke:#0000ff;" x="266.254382" xlink:href="#m3dae7ffa6f" y="212.632962"/>
     <use style="fill:#0000ff;stroke:#0000ff;" x="270.266966" xlink:href="#m3dae7ffa6f" y="208.207492"/>
     <use style="fill:#0000ff;stroke:#0000ff;" x="274.279551" xlink:href="#m3dae7ffa6f" y="203.216481"/>
     <use style="fill:#0000ff;stroke:#0000ff;" x="278.292135" xlink:href="#m3dae7ffa6f" y="193.676687"/>
     <use style="fill:#0000ff;stroke:#0000ff;" x="282.304719" xlink:href="#m3dae7ffa6f" y="200.128326"/>
     <use style="fill:#0000ff;stroke:#0000ff;" x="286.317303" xlink:href="#m3dae7ffa6f" y="209.370467"/>
     <use style="fill:#0000ff;stroke:#0000ff;" x="290.329888" xlink:href="#m3dae7ffa6f" y="207.306028"/>
     <use style="fill:#0000ff;stroke:#0000ff;" x="294.342472" xlink:href="#m3dae7ffa6f" y="197.363338"/>
     <use style="fill:#0000ff;stroke:#0000ff;" x="298.355056" xlink:href="#m3dae7ffa6f" y="200.395151"/>
     <use style="fill:#0000ff;stroke:#0000ff;" x="302.36764" xlink:href="#m3dae7ffa6f" y="194.532441"/>
     <use style="fill:#0000ff;stroke:#0000ff;" x="306.380225" xlink:href="#m3dae7ffa6f" y="194.983173"/>
     <use style="fill:#0000ff;stroke:#0000ff;" x="310.392809" xlink:href="#m3dae7ffa6f" y="185.064934"/>
     <use style="fill:#0000ff;stroke:#0000ff;" x="314.405393" xlink:href="#m3dae7ffa6f" y="191.57823"/>
     <use style="fill:#0000ff;stroke:#0000ff;" x="318.417978" xlink:href="#m3dae7ffa6f" y="186.3087"/>
     <use style="fill:#0000ff;stroke:#0000ff;" x="322.430562" xlink:href="#m3dae7ffa6f" y="178.81421"/>
     <use style="fill:#0000ff;stroke:#0000ff;" x="326.443146" xlink:href="#m3dae7ffa6f" y="152.552668"/>
     <use style="fill:#0000ff;stroke:#0000ff;" x="330.45573" xlink:href="#m3dae7ffa6f" y="169.285046"/>
     <use style="fill:#0000ff;stroke:#0000ff;" x="334.468315" xlink:href="#m3dae7ffa6f" y="171.995819"/>
     <use style="fill:#0000ff;stroke:#0000ff;" x="338.480899" xlink:href="#m3dae7ffa6f" y="158.030555"/>
     <use style="fill:#0000ff;stroke:#0000ff;" x="342.493483" xlink:href="#m3dae7ffa6f" y="135.442908"/>
     <use style="fill:#0000ff;stroke:#0000ff;" x="346.506067" xlink:href="#m3dae7ffa6f" y="151.571475"/>
     <use style="fill:#0000ff;stroke:#0000ff;" x="350.518652" xlink:href="#m3dae7ffa6f" y="151.550214"/>
     <use style="fill:#0000ff;stroke:#0000ff;" x="354.531236" xlink:href="#m3dae7ffa6f" y="130.833531"/>
     <use style="fill:#0000ff;stroke:#0000ff;" x="358.54382" xlink:href="#m3dae7ffa6f" y="141.303492"/>
     <use style="fill:#0000ff;stroke:#0000ff;" x="362.556404" xlink:href="#m3dae7ffa6f" y="132.453616"/>
     <use style="fill:#0000ff;stroke:#0000ff;" x="366.568989" xlink:href="#m3dae7ffa6f" y="132.750207"/>
     <use style="fill:#0000ff;stroke:#0000ff;" x="370.581573" xlink:href="#m3dae7ffa6f" y="118.102466"/>
     <use style="fill:#0000ff;stroke:#0000ff;" x="374.594157" xlink:href="#m3dae7ffa6f" y="105.857214"/>
     <use style="fill:#0000ff;stroke:#0000ff;" x="378.606742" xlink:href="#m3dae7ffa6f" y="120.31148"/>
     <use style="fill:#0000ff;stroke:#0000ff;" x="382.619326" xlink:href="#m3dae7ffa6f" y="115.922154"/>
     <use style="fill:#0000ff;stroke:#0000ff;" x="386.63191" xlink:href="#m3dae7ffa6f" y="110.144487"/>
     <use style="fill:#0000ff;stroke:#0000ff;" x="390.644494" xlink:href="#m3dae7ffa6f" y="95.342604"/>
     <use style="fill:#0000ff;stroke:#0000ff;" x="394.657079" xlink:href="#m3dae7ffa6f" y="102.408685"/>
     <use style="fill:#0000ff;stroke:#0000ff;" x="398.669663" xlink:href="#m3dae7ffa6f" y="90.33671"/>
     <use style="fill:#0000ff;stroke:#0000ff;" x="402.682247" xlink:href="#m3dae7ffa6f" y="86.715968"/>
     <use style="fill:#0000ff;stroke:#0000ff;" x="406.694831" xlink:href="#m3dae7ffa6f" y="78.128665"/>
     <use style="fill:#0000ff;stroke:#0000ff;" x="410.707416" xlink:href="#m3dae7ffa6f" y="53.568"/>
    </g>
   </g>
   <g id="line2d_66">
    <path clip-path="url(#p305e371840)" d="M 61.612584 245.688445 
L 65.625169 281.658806 
L 69.637753 246.931148 
L 73.650337 248.271652 
L 77.662921 270.699843 
L 81.675506 242.025181 
L 85.68809 236.920424 
L 89.700674 252.463251 
L 93.713258 229.121902 
L 97.725843 246.071142 
L 101.738427 244.344752 
L 105.751011 238.705282 
L 109.763596 255.042206 
L 113.77618 243.651645 
L 117.788764 245.97972 
L 121.801348 234.492422 
L 125.813933 166.508365 
L 129.826517 172.772907 
L 133.839101 183.417209 
L 137.851685 117.853712 
L 141.86427 140.723068 
L 145.876854 174.683205 
L 149.889438 89.479894 
L 153.902022 206.186638 
L 157.914607 293.432065 
L 161.927191 283.992197 
L 165.939775 282.556019 
L 169.95236 295.488 
L 173.964944 294.138992 
L 177.977528 295.468865 
L 181.990112 283.245937 
L 186.002697 285.444321 
L 190.015281 275.557973 
L 194.027865 262.738675 
L 198.040449 236.751399 
L 202.053034 251.156765 
L 206.065618 236.487763 
L 210.078202 220.463375 
L 214.090787 251.393825 
L 218.103371 228.540415 
L 222.115955 240.698497 
L 226.128539 243.778147 
L 230.141124 203.400389 
L 234.153708 213.325006 
L 238.166292 199.752007 
L 242.178876 199.35549 
L 246.191461 191.171082 
L 250.204045 186.917827 
L 254.216629 208.488137 
L 258.229213 213.451509 
L 262.241798 202.13855 
L 266.254382 208.577433 
L 270.266966 204.188107 
L 274.279551 198.24992 
L 278.292135 188.957816 
L 282.304719 197.178368 
L 286.317303 203.694853 
L 290.329888 202.393682 
L 294.342472 194.234787 
L 298.355056 197.368653 
L 302.36764 191.489997 
L 306.380225 193.697948 
L 310.392809 181.716332 
L 314.405393 189.082193 
L 318.417978 182.581653 
L 322.430562 175.454978 
L 326.443146 151.505566 
L 330.45573 168.819431 
L 334.468315 171.997945 
L 338.480899 153.275541 
L 342.493483 132.1549 
L 346.506067 146.836658 
L 350.518652 147.330975 
L 354.531236 127.213852 
L 358.54382 136.786601 
L 362.556404 125.887168 
L 366.568989 129.501531 
L 370.581573 119.957485 
L 374.594157 110.634552 
L 378.606742 115.332162 
L 382.619326 112.825495 
L 386.63191 108.548852 
L 390.644494 96.706495 
L 394.657079 107.635693 
L 398.669663 90.571644 
L 402.682247 79.031193 
L 406.694831 84.432541 
L 410.707416 84.414469 
" style="fill:none;stroke:#ff0000;stroke-dasharray:1.5,2.475;stroke-dashoffset:0;stroke-width:1.5;"/>
    <defs>
     <path d="M 0 1.5 
C 0.397805 1.5 0.77937 1.341951 1.06066 1.06066 
C 1.341951 0.77937 1.5 0.397805 1.5 0 
C 1.5 -0.397805 1.341951 -0.77937 1.06066 -1.06066 
C 0.77937 -1.341951 0.397805 -1.5 0 -1.5 
C -0.397805 -1.5 -0.77937 -1.341951 -1.06066 -1.06066 
C -1.341951 -0.77937 -1.5 -0.397805 -1.5 0 
C -1.5 0.397805 -1.341951 0.77937 -1.06066 1.06066 
C -0.77937 1.341951 -0.397805 1.5 0 1.5 
z
" id="m416306644f" style="stroke:#ff0000;"/>
    </defs>
    <g clip-path="url(#p305e371840)">
     <use style="fill:#ff0000;stroke:#ff0000;" x="61.612584" xlink:href="#m416306644f" y="245.688445"/>
     <use style="fill:#ff0000;stroke:#ff0000;" x="65.625169" xlink:href="#m416306644f" y="281.658806"/>
     <use style="fill:#ff0000;stroke:#ff0000;" x="69.637753" xlink:href="#m416306644f" y="246.931148"/>
     <use style="fill:#ff0000;stroke:#ff0000;" x="73.650337" xlink:href="#m416306644f" y="248.271652"/>
     <use style="fill:#ff0000;stroke:#ff0000;" x="77.662921" xlink:href="#m416306644f" y="270.699843"/>
     <use style="fill:#ff0000;stroke:#ff0000;" x="81.675506" xlink:href="#m416306644f" y="242.025181"/>
     <use style="fill:#ff0000;stroke:#ff0000;" x="85.68809" xlink:href="#m416306644f" y="236.920424"/>
     <use style="fill:#ff0000;stroke:#ff0000;" x="89.700674" xlink:href="#m416306644f" y="252.463251"/>
     <use style="fill:#ff0000;stroke:#ff0000;" x="93.713258" xlink:href="#m416306644f" y="229.121902"/>
     <use style="fill:#ff0000;stroke:#ff0000;" x="97.725843" xlink:href="#m416306644f" y="246.071142"/>
     <use style="fill:#ff0000;stroke:#ff0000;" x="101.738427" xlink:href="#m416306644f" y="244.344752"/>
     <use style="fill:#ff0000;stroke:#ff0000;" x="105.751011" xlink:href="#m416306644f" y="238.705282"/>
     <use style="fill:#ff0000;stroke:#ff0000;" x="109.763596" xlink:href="#m416306644f" y="255.042206"/>
     <use style="fill:#ff0000;stroke:#ff0000;" x="113.77618" xlink:href="#m416306644f" y="243.651645"/>
     <use style="fill:#ff0000;stroke:#ff0000;" x="117.788764" xlink:href="#m416306644f" y="245.97972"/>
     <use style="fill:#ff0000;stroke:#ff0000;" x="121.801348" xlink:href="#m416306644f" y="234.492422"/>
     <use style="fill:#ff0000;stroke:#ff0000;" x="125.813933" xlink:href="#m416306644f" y="166.508365"/>
     <use style="fill:#ff0000;stroke:#ff0000;" x="129.826517" xlink:href="#m416306644f" y="172.772907"/>
     <use style="fill:#ff0000;stroke:#ff0000;" x="133.839101" xlink:href="#m416306644f" y="183.417209"/>
     <use style="fill:#ff0000;stroke:#ff0000;" x="137.851685" xlink:href="#m416306644f" y="117.853712"/>
     <use style="fill:#ff0000;stroke:#ff0000;" x="141.86427" xlink:href="#m416306644f" y="140.723068"/>
     <use style="fill:#ff0000;stroke:#ff0000;" x="145.876854" xlink:href="#m416306644f" y="174.683205"/>
     <use style="fill:#ff0000;stroke:#ff0000;" x="149.889438" xlink:href="#m416306644f" y="89.479894"/>
     <use style="fill:#ff0000;stroke:#ff0000;" x="153.902022" xlink:href="#m416306644f" y="206.186638"/>
     <use style="fill:#ff0000;stroke:#ff0000;" x="157.914607" xlink:href="#m416306644f" y="293.432065"/>
     <use style="fill:#ff0000;stroke:#ff0000;" x="161.927191" xlink:href="#m416306644f" y="283.992197"/>
     <use style="fill:#ff0000;stroke:#ff0000;" x="165.939775" xlink:href="#m416306644f" y="282.556019"/>
     <use style="fill:#ff0000;stroke:#ff0000;" x="169.95236" xlink:href="#m416306644f" y="295.488"/>
     <use style="fill:#ff0000;stroke:#ff0000;" x="173.964944" xlink:href="#m416306644f" y="294.138992"/>
     <use style="fill:#ff0000;stroke:#ff0000;" x="177.977528" xlink:href="#m416306644f" y="295.468865"/>
     <use style="fill:#ff0000;stroke:#ff0000;" x="181.990112" xlink:href="#m416306644f" y="283.245937"/>
     <use style="fill:#ff0000;stroke:#ff0000;" x="186.002697" xlink:href="#m416306644f" y="285.444321"/>
     <use style="fill:#ff0000;stroke:#ff0000;" x="190.015281" xlink:href="#m416306644f" y="275.557973"/>
     <use style="fill:#ff0000;stroke:#ff0000;" x="194.027865" xlink:href="#m416306644f" y="262.738675"/>
     <use style="fill:#ff0000;stroke:#ff0000;" x="198.040449" xlink:href="#m416306644f" y="236.751399"/>
     <use style="fill:#ff0000;stroke:#ff0000;" x="202.053034" xlink:href="#m416306644f" y="251.156765"/>
     <use style="fill:#ff0000;stroke:#ff0000;" x="206.065618" xlink:href="#m416306644f" y="236.487763"/>
     <use style="fill:#ff0000;stroke:#ff0000;" x="210.078202" xlink:href="#m416306644f" y="220.463375"/>
     <use style="fill:#ff0000;stroke:#ff0000;" x="214.090787" xlink:href="#m416306644f" y="251.393825"/>
     <use style="fill:#ff0000;stroke:#ff0000;" x="218.103371" xlink:href="#m416306644f" y="228.540415"/>
     <use style="fill:#ff0000;stroke:#ff0000;" x="222.115955" xlink:href="#m416306644f" y="240.698497"/>
     <use style="fill:#ff0000;stroke:#ff0000;" x="226.128539" xlink:href="#m416306644f" y="243.778147"/>
     <use style="fill:#ff0000;stroke:#ff0000;" x="230.141124" xlink:href="#m416306644f" y="203.400389"/>
     <use style="fill:#ff0000;stroke:#ff0000;" x="234.153708" xlink:href="#m416306644f" y="213.325006"/>
     <use style="fill:#ff0000;stroke:#ff0000;" x="238.166292" xlink:href="#m416306644f" y="199.752007"/>
     <use style="fill:#ff0000;stroke:#ff0000;" x="242.178876" xlink:href="#m416306644f" y="199.35549"/>
     <use style="fill:#ff0000;stroke:#ff0000;" x="246.191461" xlink:href="#m416306644f" y="191.171082"/>
     <use style="fill:#ff0000;stroke:#ff0000;" x="250.204045" xlink:href="#m416306644f" y="186.917827"/>
     <use style="fill:#ff0000;stroke:#ff0000;" x="254.216629" xlink:href="#m416306644f" y="208.488137"/>
     <use style="fill:#ff0000;stroke:#ff0000;" x="258.229213" xlink:href="#m416306644f" y="213.451509"/>
     <use style="fill:#ff0000;stroke:#ff0000;" x="262.241798" xlink:href="#m416306644f" y="202.13855"/>
     <use style="fill:#ff0000;stroke:#ff0000;" x="266.254382" xlink:href="#m416306644f" y="208.577433"/>
     <use style="fill:#ff0000;stroke:#ff0000;" x="270.266966" xlink:href="#m416306644f" y="204.188107"/>
     <use style="fill:#ff0000;stroke:#ff0000;" x="274.279551" xlink:href="#m416306644f" y="198.24992"/>
     <use style="fill:#ff0000;stroke:#ff0000;" x="278.292135" xlink:href="#m416306644f" y="188.957816"/>
     <use style="fill:#ff0000;stroke:#ff0000;" x="282.304719" xlink:href="#m416306644f" y="197.178368"/>
     <use style="fill:#ff0000;stroke:#ff0000;" x="286.317303" xlink:href="#m416306644f" y="203.694853"/>
     <use style="fill:#ff0000;stroke:#ff0000;" x="290.329888" xlink:href="#m416306644f" y="202.393682"/>
     <use style="fill:#ff0000;stroke:#ff0000;" x="294.342472" xlink:href="#m416306644f" y="194.234787"/>
     <use style="fill:#ff0000;stroke:#ff0000;" x="298.355056" xlink:href="#m416306644f" y="197.368653"/>
     <use style="fill:#ff0000;stroke:#ff0000;" x="302.36764" xlink:href="#m416306644f" y="191.489997"/>
     <use style="fill:#ff0000;stroke:#ff0000;" x="306.380225" xlink:href="#m416306644f" y="193.697948"/>
     <use style="fill:#ff0000;stroke:#ff0000;" x="310.392809" xlink:href="#m416306644f" y="181.716332"/>
     <use style="fill:#ff0000;stroke:#ff0000;" x="314.405393" xlink:href="#m416306644f" y="189.082193"/>
     <use style="fill:#ff0000;stroke:#ff0000;" x="318.417978" xlink:href="#m416306644f" y="182.581653"/>
     <use style="fill:#ff0000;stroke:#ff0000;" x="322.430562" xlink:href="#m416306644f" y="175.454978"/>
     <use style="fill:#ff0000;stroke:#ff0000;" x="326.443146" xlink:href="#m416306644f" y="151.505566"/>
     <use style="fill:#ff0000;stroke:#ff0000;" x="330.45573" xlink:href="#m416306644f" y="168.819431"/>
     <use style="fill:#ff0000;stroke:#ff0000;" x="334.468315" xlink:href="#m416306644f" y="171.997945"/>
     <use style="fill:#ff0000;stroke:#ff0000;" x="338.480899" xlink:href="#m416306644f" y="153.275541"/>
     <use style="fill:#ff0000;stroke:#ff0000;" x="342.493483" xlink:href="#m416306644f" y="132.1549"/>
     <use style="fill:#ff0000;stroke:#ff0000;" x="346.506067" xlink:href="#m416306644f" y="146.836658"/>
     <use style="fill:#ff0000;stroke:#ff0000;" x="350.518652" xlink:href="#m416306644f" y="147.330975"/>
     <use style="fill:#ff0000;stroke:#ff0000;" x="354.531236" xlink:href="#m416306644f" y="127.213852"/>
     <use style="fill:#ff0000;stroke:#ff0000;" x="358.54382" xlink:href="#m416306644f" y="136.786601"/>
     <use style="fill:#ff0000;stroke:#ff0000;" x="362.556404" xlink:href="#m416306644f" y="125.887168"/>
     <use style="fill:#ff0000;stroke:#ff0000;" x="366.568989" xlink:href="#m416306644f" y="129.501531"/>
     <use style="fill:#ff0000;stroke:#ff0000;" x="370.581573" xlink:href="#m416306644f" y="119.957485"/>
     <use style="fill:#ff0000;stroke:#ff0000;" x="374.594157" xlink:href="#m416306644f" y="110.634552"/>
     <use style="fill:#ff0000;stroke:#ff0000;" x="378.606742" xlink:href="#m416306644f" y="115.332162"/>
     <use style="fill:#ff0000;stroke:#ff0000;" x="382.619326" xlink:href="#m416306644f" y="112.825495"/>
     <use style="fill:#ff0000;stroke:#ff0000;" x="386.63191" xlink:href="#m416306644f" y="108.548852"/>
     <use style="fill:#ff0000;stroke:#ff0000;" x="390.644494" xlink:href="#m416306644f" y="96.706495"/>
     <use style="fill:#ff0000;stroke:#ff0000;" x="394.657079" xlink:href="#m416306644f" y="107.635693"/>
     <use style="fill:#ff0000;stroke:#ff0000;" x="398.669663" xlink:href="#m416306644f" y="90.571644"/>
     <use style="fill:#ff0000;stroke:#ff0000;" x="402.682247" xlink:href="#m416306644f" y="79.031193"/>
     <use style="fill:#ff0000;stroke:#ff0000;" x="406.694831" xlink:href="#m416306644f" y="84.432541"/>
     <use style="fill:#ff0000;stroke:#ff0000;" x="410.707416" xlink:href="#m416306644f" y="84.414469"/>
    </g>
   </g>
   <g id="line2d_67">
    <path clip-path="url(#p305e371840)" d="M 61.612584 242.10172 
L 65.625169 275.700421 
L 69.637753 241.703077 
L 73.650337 241.971497 
L 77.662921 268.637529 
L 81.675506 242.572119 
L 85.68809 237.968589 
L 89.700674 252.535007 
L 93.713258 227.224893 
L 97.725843 238.344908 
L 101.738427 234.99046 
L 105.751011 231.96343 
L 109.763596 247.101236 
L 113.77618 237.98294 
L 117.788764 238.353944 
L 121.801348 229.332917 
L 125.813933 206.516714 
L 129.826517 209.271072 
L 133.839101 198.552889 
L 137.851685 182.45515 
L 141.86427 189.895424 
L 145.876854 207.697761 
L 149.889438 167.450225 
L 153.902022 192.224031 
L 157.914607 289.012974 
L 161.927191 278.34688 
L 165.939775 278.589786 
L 169.95236 290.01596 
L 173.964944 289.383446 
L 177.977528 291.446822 
L 181.990112 278.768378 
L 186.002697 282.471507 
L 190.015281 272.010581 
L 194.027865 261.42581 
L 198.040449 236.722697 
L 202.053034 252.549358 
L 206.065618 232.047411 
L 210.078202 217.927473 
L 214.090787 248.172789 
L 218.103371 226.728981 
L 222.115955 237.803817 
L 226.128539 245.204227 
L 230.141124 206.828719 
L 234.153708 217.331635 
L 238.166292 202.147055 
L 242.178876 200.107065 
L 246.191461 195.026758 
L 250.204045 188.915294 
L 254.216629 212.936994 
L 258.229213 217.291771 
L 262.241798 204.936493 
L 266.254382 210.605198 
L 270.266966 206.1978 
L 274.279551 200.733201 
L 278.292135 191.317251 
L 282.304719 198.653347 
L 286.317303 206.53266 
L 290.329888 204.849855 
L 294.342472 195.799063 
L 298.355056 198.881902 
L 302.36764 193.011219 
L 306.380225 194.34056 
L 310.392809 183.390633 
L 314.405393 190.330211 
L 318.417978 184.445176 
L 322.430562 177.134594 
L 326.443146 152.029117 
L 330.45573 169.052239 
L 334.468315 171.996882 
L 338.480899 155.653048 
L 342.493483 133.798904 
L 346.506067 149.204066 
L 350.518652 149.440595 
L 354.531236 129.023691 
L 358.54382 139.045046 
L 362.556404 129.170392 
L 366.568989 131.125869 
L 370.581573 119.029975 
L 374.594157 108.245883 
L 378.606742 117.821821 
L 382.619326 114.373824 
L 386.63191 109.346669 
L 390.644494 96.02455 
L 394.657079 105.022189 
L 398.669663 90.454177 
L 402.682247 82.873581 
L 406.694831 81.280603 
L 410.707416 68.991234 
" style="fill:none;stroke:#008000;stroke-dasharray:1.5,2.475;stroke-dashoffset:0;stroke-width:1.5;"/>
    <defs>
     <path d="M 0 1.5 
C 0.397805 1.5 0.77937 1.341951 1.06066 1.06066 
C 1.341951 0.77937 1.5 0.397805 1.5 0 
C 1.5 -0.397805 1.341951 -0.77937 1.06066 -1.06066 
C 0.77937 -1.341951 0.397805 -1.5 0 -1.5 
C -0.397805 -1.5 -0.77937 -1.341951 -1.06066 -1.06066 
C -1.341951 -0.77937 -1.5 -0.397805 -1.5 0 
C -1.5 0.397805 -1.341951 0.77937 -1.06066 1.06066 
C -0.77937 1.341951 -0.397805 1.5 0 1.5 
z
" id="mbd5f8a5612" style="stroke:#008000;"/>
    </defs>
    <g clip-path="url(#p305e371840)">
     <use style="fill:#008000;stroke:#008000;" x="61.612584" xlink:href="#mbd5f8a5612" y="242.10172"/>
     <use style="fill:#008000;stroke:#008000;" x="65.625169" xlink:href="#mbd5f8a5612" y="275.700421"/>
     <use style="fill:#008000;stroke:#008000;" x="69.637753" xlink:href="#mbd5f8a5612" y="241.703077"/>
     <use style="fill:#008000;stroke:#008000;" x="73.650337" xlink:href="#mbd5f8a5612" y="241.971497"/>
     <use style="fill:#008000;stroke:#008000;" x="77.662921" xlink:href="#mbd5f8a5612" y="268.637529"/>
     <use style="fill:#008000;stroke:#008000;" x="81.675506" xlink:href="#mbd5f8a5612" y="242.572119"/>
     <use style="fill:#008000;stroke:#008000;" x="85.68809" xlink:href="#mbd5f8a5612" y="237.968589"/>
     <use style="fill:#008000;stroke:#008000;" x="89.700674" xlink:href="#mbd5f8a5612" y="252.535007"/>
     <use style="fill:#008000;stroke:#008000;" x="93.713258" xlink:href="#mbd5f8a5612" y="227.224893"/>
     <use style="fill:#008000;stroke:#008000;" x="97.725843" xlink:href="#mbd5f8a5612" y="238.344908"/>
     <use style="fill:#008000;stroke:#008000;" x="101.738427" xlink:href="#mbd5f8a5612" y="234.99046"/>
     <use style="fill:#008000;stroke:#008000;" x="105.751011" xlink:href="#mbd5f8a5612" y="231.96343"/>
     <use style="fill:#008000;stroke:#008000;" x="109.763596" xlink:href="#mbd5f8a5612" y="247.101236"/>
     <use style="fill:#008000;stroke:#008000;" x="113.77618" xlink:href="#mbd5f8a5612" y="237.98294"/>
     <use style="fill:#008000;stroke:#008000;" x="117.788764" xlink:href="#mbd5f8a5612" y="238.353944"/>
     <use style="fill:#008000;stroke:#008000;" x="121.801348" xlink:href="#mbd5f8a5612" y="229.332917"/>
     <use style="fill:#008000;stroke:#008000;" x="125.813933" xlink:href="#mbd5f8a5612" y="206.516714"/>
     <use style="fill:#008000;stroke:#008000;" x="129.826517" xlink:href="#mbd5f8a5612" y="209.271072"/>
     <use style="fill:#008000;stroke:#008000;" x="133.839101" xlink:href="#mbd5f8a5612" y="198.552889"/>
     <use style="fill:#008000;stroke:#008000;" x="137.851685" xlink:href="#mbd5f8a5612" y="182.45515"/>
     <use style="fill:#008000;stroke:#008000;" x="141.86427" xlink:href="#mbd5f8a5612" y="189.895424"/>
     <use style="fill:#008000;stroke:#008000;" x="145.876854" xlink:href="#mbd5f8a5612" y="207.697761"/>
     <use style="fill:#008000;stroke:#008000;" x="149.889438" xlink:href="#mbd5f8a5612" y="167.450225"/>
     <use style="fill:#008000;stroke:#008000;" x="153.902022" xlink:href="#mbd5f8a5612" y="192.224031"/>
     <use style="fill:#008000;stroke:#008000;" x="157.914607" xlink:href="#mbd5f8a5612" y="289.012974"/>
     <use style="fill:#008000;stroke:#008000;" x="161.927191" xlink:href="#mbd5f8a5612" y="278.34688"/>
     <use style="fill:#008000;stroke:#008000;" x="165.939775" xlink:href="#mbd5f8a5612" y="278.589786"/>
     <use style="fill:#008000;stroke:#008000;" x="169.95236" xlink:href="#mbd5f8a5612" y="290.01596"/>
     <use style="fill:#008000;stroke:#008000;" x="173.964944" xlink:href="#mbd5f8a5612" y="289.383446"/>
     <use style="fill:#008000;stroke:#008000;" x="177.977528" xlink:href="#mbd5f8a5612" y="291.446822"/>
     <use style="fill:#008000;stroke:#008000;" x="181.990112" xlink:href="#mbd5f8a5612" y="278.768378"/>
     <use style="fill:#008000;stroke:#008000;" x="186.002697" xlink:href="#mbd5f8a5612" y="282.471507"/>
     <use style="fill:#008000;stroke:#008000;" x="190.015281" xlink:href="#mbd5f8a5612" y="272.010581"/>
     <use style="fill:#008000;stroke:#008000;" x="194.027865" xlink:href="#mbd5f8a5612" y="261.42581"/>
     <use style="fill:#008000;stroke:#008000;" x="198.040449" xlink:href="#mbd5f8a5612" y="236.722697"/>
     <use style="fill:#008000;stroke:#008000;" x="202.053034" xlink:href="#mbd5f8a5612" y="252.549358"/>
     <use style="fill:#008000;stroke:#008000;" x="206.065618" xlink:href="#mbd5f8a5612" y="232.047411"/>
     <use style="fill:#008000;stroke:#008000;" x="210.078202" xlink:href="#mbd5f8a5612" y="217.927473"/>
     <use style="fill:#008000;stroke:#008000;" x="214.090787" xlink:href="#mbd5f8a5612" y="248.172789"/>
     <use style="fill:#008000;stroke:#008000;" x="218.103371" xlink:href="#mbd5f8a5612" y="226.728981"/>
     <use style="fill:#008000;stroke:#008000;" x="222.115955" xlink:href="#mbd5f8a5612" y="237.803817"/>
     <use style="fill:#008000;stroke:#008000;" x="226.128539" xlink:href="#mbd5f8a5612" y="245.204227"/>
     <use style="fill:#008000;stroke:#008000;" x="230.141124" xlink:href="#mbd5f8a5612" y="206.828719"/>
     <use style="fill:#008000;stroke:#008000;" x="234.153708" xlink:href="#mbd5f8a5612" y="217.331635"/>
     <use style="fill:#008000;stroke:#008000;" x="238.166292" xlink:href="#mbd5f8a5612" y="202.147055"/>
     <use style="fill:#008000;stroke:#008000;" x="242.178876" xlink:href="#mbd5f8a5612" y="200.107065"/>
     <use style="fill:#008000;stroke:#008000;" x="246.191461" xlink:href="#mbd5f8a5612" y="195.026758"/>
     <use style="fill:#008000;stroke:#008000;" x="250.204045" xlink:href="#mbd5f8a5612" y="188.915294"/>
     <use style="fill:#008000;stroke:#008000;" x="254.216629" xlink:href="#mbd5f8a5612" y="212.936994"/>
     <use style="fill:#008000;stroke:#008000;" x="258.229213" xlink:href="#mbd5f8a5612" y="217.291771"/>
     <use style="fill:#008000;stroke:#008000;" x="262.241798" xlink:href="#mbd5f8a5612" y="204.936493"/>
     <use style="fill:#008000;stroke:#008000;" x="266.254382" xlink:href="#mbd5f8a5612" y="210.605198"/>
     <use style="fill:#008000;stroke:#008000;" x="270.266966" xlink:href="#mbd5f8a5612" y="206.1978"/>
     <use style="fill:#008000;stroke:#008000;" x="274.279551" xlink:href="#mbd5f8a5612" y="200.733201"/>
     <use style="fill:#008000;stroke:#008000;" x="278.292135" xlink:href="#mbd5f8a5612" y="191.317251"/>
     <use style="fill:#008000;stroke:#008000;" x="282.304719" xlink:href="#mbd5f8a5612" y="198.653347"/>
     <use style="fill:#008000;stroke:#008000;" x="286.317303" xlink:href="#mbd5f8a5612" y="206.53266"/>
     <use style="fill:#008000;stroke:#008000;" x="290.329888" xlink:href="#mbd5f8a5612" y="204.849855"/>
     <use style="fill:#008000;stroke:#008000;" x="294.342472" xlink:href="#mbd5f8a5612" y="195.799063"/>
     <use style="fill:#008000;stroke:#008000;" x="298.355056" xlink:href="#mbd5f8a5612" y="198.881902"/>
     <use style="fill:#008000;stroke:#008000;" x="302.36764" xlink:href="#mbd5f8a5612" y="193.011219"/>
     <use style="fill:#008000;stroke:#008000;" x="306.380225" xlink:href="#mbd5f8a5612" y="194.34056"/>
     <use style="fill:#008000;stroke:#008000;" x="310.392809" xlink:href="#mbd5f8a5612" y="183.390633"/>
     <use style="fill:#008000;stroke:#008000;" x="314.405393" xlink:href="#mbd5f8a5612" y="190.330211"/>
     <use style="fill:#008000;stroke:#008000;" x="318.417978" xlink:href="#mbd5f8a5612" y="184.445176"/>
     <use style="fill:#008000;stroke:#008000;" x="322.430562" xlink:href="#mbd5f8a5612" y="177.134594"/>
     <use style="fill:#008000;stroke:#008000;" x="326.443146" xlink:href="#mbd5f8a5612" y="152.029117"/>
     <use style="fill:#008000;stroke:#008000;" x="330.45573" xlink:href="#mbd5f8a5612" y="169.052239"/>
     <use style="fill:#008000;stroke:#008000;" x="334.468315" xlink:href="#mbd5f8a5612" y="171.996882"/>
     <use style="fill:#008000;stroke:#008000;" x="338.480899" xlink:href="#mbd5f8a5612" y="155.653048"/>
     <use style="fill:#008000;stroke:#008000;" x="342.493483" xlink:href="#mbd5f8a5612" y="133.798904"/>
     <use style="fill:#008000;stroke:#008000;" x="346.506067" xlink:href="#mbd5f8a5612" y="149.204066"/>
     <use style="fill:#008000;stroke:#008000;" x="350.518652" xlink:href="#mbd5f8a5612" y="149.440595"/>
     <use style="fill:#008000;stroke:#008000;" x="354.531236" xlink:href="#mbd5f8a5612" y="129.023691"/>
     <use style="fill:#008000;stroke:#008000;" x="358.54382" xlink:href="#mbd5f8a5612" y="139.045046"/>
     <use style="fill:#008000;stroke:#008000;" x="362.556404" xlink:href="#mbd5f8a5612" y="129.170392"/>
     <use style="fill:#008000;stroke:#008000;" x="366.568989" xlink:href="#mbd5f8a5612" y="131.125869"/>
     <use style="fill:#008000;stroke:#008000;" x="370.581573" xlink:href="#mbd5f8a5612" y="119.029975"/>
     <use style="fill:#008000;stroke:#008000;" x="374.594157" xlink:href="#mbd5f8a5612" y="108.245883"/>
     <use style="fill:#008000;stroke:#008000;" x="378.606742" xlink:href="#mbd5f8a5612" y="117.821821"/>
     <use style="fill:#008000;stroke:#008000;" x="382.619326" xlink:href="#mbd5f8a5612" y="114.373824"/>
     <use style="fill:#008000;stroke:#008000;" x="386.63191" xlink:href="#mbd5f8a5612" y="109.346669"/>
     <use style="fill:#008000;stroke:#008000;" x="390.644494" xlink:href="#mbd5f8a5612" y="96.02455"/>
     <use style="fill:#008000;stroke:#008000;" x="394.657079" xlink:href="#mbd5f8a5612" y="105.022189"/>
     <use style="fill:#008000;stroke:#008000;" x="398.669663" xlink:href="#mbd5f8a5612" y="90.454177"/>
     <use style="fill:#008000;stroke:#008000;" x="402.682247" xlink:href="#mbd5f8a5612" y="82.873581"/>
     <use style="fill:#008000;stroke:#008000;" x="406.694831" xlink:href="#mbd5f8a5612" y="81.280603"/>
     <use style="fill:#008000;stroke:#008000;" x="410.707416" xlink:href="#mbd5f8a5612" y="68.991234"/>
    </g>
   </g>
   <g id="patch_3">
    <path d="M 57.6 307.584 
L 57.6 41.472 
" style="fill:none;stroke:#000000;stroke-linecap:square;stroke-linejoin:miter;stroke-width:0.8;"/>
   </g>
   <g id="patch_4">
    <path d="M 414.72 307.584 
L 414.72 41.472 
" style="fill:none;stroke:#000000;stroke-linecap:square;stroke-linejoin:miter;stroke-width:0.8;"/>
   </g>
   <g id="patch_5">
    <path d="M 57.6 307.584 
L 414.72 307.584 
" style="fill:none;stroke:#000000;stroke-linecap:square;stroke-linejoin:miter;stroke-width:0.8;"/>
   </g>
   <g id="patch_6">
    <path d="M 57.6 41.472 
L 414.72 41.472 
" style="fill:none;stroke:#000000;stroke-linecap:square;stroke-linejoin:miter;stroke-width:0.8;"/>
   </g>
   <g id="text_35">
    <!-- MergeTrans 3PV on transient -->
    <defs>
     <path d="M 9.8125 72.90625 
L 24.515625 72.90625 
L 43.109375 23.296875 
L 61.8125 72.90625 
L 76.515625 72.90625 
L 76.515625 0 
L 66.890625 0 
L 66.890625 64.015625 
L 48.09375 14.015625 
L 38.1875 14.015625 
L 19.390625 64.015625 
L 19.390625 0 
L 9.8125 0 
z
" id="DejaVuSans-77"/>
     <path d="M 45.40625 27.984375 
Q 45.40625 37.75 41.375 43.109375 
Q 37.359375 48.484375 30.078125 48.484375 
Q 22.859375 48.484375 18.828125 43.109375 
Q 14.796875 37.75 14.796875 27.984375 
Q 14.796875 18.265625 18.828125 12.890625 
Q 22.859375 7.515625 30.078125 7.515625 
Q 37.359375 7.515625 41.375 12.890625 
Q 45.40625 18.265625 45.40625 27.984375 
z
M 54.390625 6.78125 
Q 54.390625 -7.171875 48.1875 -13.984375 
Q 42 -20.796875 29.203125 -20.796875 
Q 24.46875 -20.796875 20.265625 -20.09375 
Q 16.0625 -19.390625 12.109375 -17.921875 
L 12.109375 -9.1875 
Q 16.0625 -11.328125 19.921875 -12.34375 
Q 23.78125 -13.375 27.78125 -13.375 
Q 36.625 -13.375 41.015625 -8.765625 
Q 45.40625 -4.15625 45.40625 5.171875 
L 45.40625 9.625 
Q 42.625 4.78125 38.28125 2.390625 
Q 33.9375 0 27.875 0 
Q 17.828125 0 11.671875 7.65625 
Q 5.515625 15.328125 5.515625 27.984375 
Q 5.515625 40.671875 11.671875 48.328125 
Q 17.828125 56 27.875 56 
Q 33.9375 56 38.28125 53.609375 
Q 42.625 51.21875 45.40625 46.390625 
L 45.40625 54.6875 
L 54.390625 54.6875 
z
" id="DejaVuSans-103"/>
     <path d="M -0.296875 72.90625 
L 61.375 72.90625 
L 61.375 64.59375 
L 35.5 64.59375 
L 35.5 0 
L 25.59375 0 
L 25.59375 64.59375 
L -0.296875 64.59375 
z
" id="DejaVuSans-84"/>
     <path d="M 19.671875 64.796875 
L 19.671875 37.40625 
L 32.078125 37.40625 
Q 38.96875 37.40625 42.71875 40.96875 
Q 46.484375 44.53125 46.484375 51.125 
Q 46.484375 57.671875 42.71875 61.234375 
Q 38.96875 64.796875 32.078125 64.796875 
z
M 9.8125 72.90625 
L 32.078125 72.90625 
Q 44.34375 72.90625 50.609375 67.359375 
Q 56.890625 61.8125 56.890625 51.125 
Q 56.890625 40.328125 50.609375 34.8125 
Q 44.34375 29.296875 32.078125 29.296875 
L 19.671875 29.296875 
L 19.671875 0 
L 9.8125 0 
z
" id="DejaVuSans-80"/>
     <path d="M 28.609375 0 
L 0.78125 72.90625 
L 11.078125 72.90625 
L 34.1875 11.53125 
L 57.328125 72.90625 
L 67.578125 72.90625 
L 39.796875 0 
z
" id="DejaVuSans-86"/>
    </defs>
    <g transform="translate(149.90625 35.472)scale(0.12 -0.12)">
     <use xlink:href="#DejaVuSans-77"/>
     <use x="86.279297" xlink:href="#DejaVuSans-101"/>
     <use x="147.802734" xlink:href="#DejaVuSans-114"/>
     <use x="187.166016" xlink:href="#DejaVuSans-103"/>
     <use x="250.642578" xlink:href="#DejaVuSans-101"/>
     <use x="312.166016" xlink:href="#DejaVuSans-84"/>
     <use x="358.5" xlink:href="#DejaVuSans-114"/>
     <use x="399.613281" xlink:href="#DejaVuSans-97"/>
     <use x="460.892578" xlink:href="#DejaVuSans-110"/>
     <use x="524.271484" xlink:href="#DejaVuSans-115"/>
     <use x="576.371094" xlink:href="#DejaVuSans-32"/>
     <use x="608.158203" xlink:href="#DejaVuSans-51"/>
     <use x="671.78125" xlink:href="#DejaVuSans-80"/>
     <use x="732.083984" xlink:href="#DejaVuSans-86"/>
     <use x="800.492188" xlink:href="#DejaVuSans-32"/>
     <use x="832.279297" xlink:href="#DejaVuSans-111"/>
     <use x="893.460938" xlink:href="#DejaVuSans-110"/>
     <use x="956.839844" xlink:href="#DejaVuSans-32"/>
     <use x="988.626953" xlink:href="#DejaVuSans-116"/>
     <use x="1027.835938" xlink:href="#DejaVuSans-114"/>
     <use x="1068.949219" xlink:href="#DejaVuSans-97"/>
     <use x="1130.228516" xlink:href="#DejaVuSans-110"/>
     <use x="1193.607422" xlink:href="#DejaVuSans-115"/>
     <use x="1245.707031" xlink:href="#DejaVuSans-105"/>
     <use x="1273.490234" xlink:href="#DejaVuSans-101"/>
     <use x="1335.013672" xlink:href="#DejaVuSans-110"/>
     <use x="1398.392578" xlink:href="#DejaVuSans-116"/>
    </g>
   </g>
   <g id="legend_1">
    <g id="patch_7">
     <path d="M 313.152813 302.584 
L 407.72 302.584 
Q 409.72 302.584 409.72 300.584 
L 409.72 257.2715 
Q 409.72 255.2715 407.72 255.2715 
L 313.152813 255.2715 
Q 311.152813 255.2715 311.152813 257.2715 
L 311.152813 300.584 
Q 311.152813 302.584 313.152813 302.584 
z
" style="fill:#ffffff;opacity:0.8;stroke:#cccccc;stroke-linejoin:miter;"/>
    </g>
    <g id="line2d_68">
     <path d="M 315.152813 263.369937 
L 335.152813 263.369937 
" style="fill:none;stroke:#0000ff;stroke-dasharray:1.5,2.475;stroke-dashoffset:0;stroke-width:1.5;"/>
    </g>
    <g id="line2d_69">
     <g>
      <use style="fill:#0000ff;stroke:#0000ff;" x="325.152813" xlink:href="#m3dae7ffa6f" y="263.369937"/>
     </g>
    </g>
    <g id="text_36">
     <!-- transpose -->
     <defs>
      <path d="M 18.109375 8.203125 
L 18.109375 -20.796875 
L 9.078125 -20.796875 
L 9.078125 54.6875 
L 18.109375 54.6875 
L 18.109375 46.390625 
Q 20.953125 51.265625 25.265625 53.625 
Q 29.59375 56 35.59375 56 
Q 45.5625 56 51.78125 48.09375 
Q 58.015625 40.1875 58.015625 27.296875 
Q 58.015625 14.40625 51.78125 6.484375 
Q 45.5625 -1.421875 35.59375 -1.421875 
Q 29.59375 -1.421875 25.265625 0.953125 
Q 20.953125 3.328125 18.109375 8.203125 
z
M 48.6875 27.296875 
Q 48.6875 37.203125 44.609375 42.84375 
Q 40.53125 48.484375 33.40625 48.484375 
Q 26.265625 48.484375 22.1875 42.84375 
Q 18.109375 37.203125 18.109375 27.296875 
Q 18.109375 17.390625 22.1875 11.75 
Q 26.265625 6.109375 33.40625 6.109375 
Q 40.53125 6.109375 44.609375 11.75 
Q 48.6875 17.390625 48.6875 27.296875 
z
" id="DejaVuSans-112"/>
     </defs>
     <g transform="translate(343.152813 266.869937)scale(0.1 -0.1)">
      <use xlink:href="#DejaVuSans-116"/>
      <use x="39.208984" xlink:href="#DejaVuSans-114"/>
      <use x="80.322266" xlink:href="#DejaVuSans-97"/>
      <use x="141.601562" xlink:href="#DejaVuSans-110"/>
      <use x="204.980469" xlink:href="#DejaVuSans-115"/>
      <use x="257.080078" xlink:href="#DejaVuSans-112"/>
      <use x="320.556641" xlink:href="#DejaVuSans-111"/>
      <use x="381.738281" xlink:href="#DejaVuSans-115"/>
      <use x="433.837891" xlink:href="#DejaVuSans-101"/>
     </g>
    </g>
    <g id="line2d_70">
     <path d="M 315.152813 278.048063 
L 335.152813 278.048063 
" style="fill:none;stroke:#ff0000;stroke-dasharray:1.5,2.475;stroke-dashoffset:0;stroke-width:1.5;"/>
    </g>
    <g id="line2d_71">
     <g>
      <use style="fill:#ff0000;stroke:#ff0000;" x="325.152813" xlink:href="#m416306644f" y="278.048063"/>
     </g>
    </g>
    <g id="text_37">
     <!-- transpose_tr -->
     <defs>
      <path d="M 50.984375 -16.609375 
L 50.984375 -23.578125 
L -0.984375 -23.578125 
L -0.984375 -16.609375 
z
" id="DejaVuSans-95"/>
     </defs>
     <g transform="translate(343.152813 281.548063)scale(0.1 -0.1)">
      <use xlink:href="#DejaVuSans-116"/>
      <use x="39.208984" xlink:href="#DejaVuSans-114"/>
      <use x="80.322266" xlink:href="#DejaVuSans-97"/>
      <use x="141.601562" xlink:href="#DejaVuSans-110"/>
      <use x="204.980469" xlink:href="#DejaVuSans-115"/>
      <use x="257.080078" xlink:href="#DejaVuSans-112"/>
      <use x="320.556641" xlink:href="#DejaVuSans-111"/>
      <use x="381.738281" xlink:href="#DejaVuSans-115"/>
      <use x="433.837891" xlink:href="#DejaVuSans-101"/>
      <use x="495.361328" xlink:href="#DejaVuSans-95"/>
      <use x="545.361328" xlink:href="#DejaVuSans-116"/>
      <use x="584.570312" xlink:href="#DejaVuSans-114"/>
     </g>
    </g>
    <g id="line2d_72">
     <path d="M 315.152813 293.004312 
L 335.152813 293.004312 
" style="fill:none;stroke:#008000;stroke-dasharray:1.5,2.475;stroke-dashoffset:0;stroke-width:1.5;"/>
    </g>
    <g id="line2d_73">
     <g>
      <use style="fill:#008000;stroke:#008000;" x="325.152813" xlink:href="#mbd5f8a5612" y="293.004312"/>
     </g>
    </g>
    <g id="text_38">
     <!-- mean -->
     <defs>
      <path d="M 52 44.1875 
Q 55.375 50.25 60.0625 53.125 
Q 64.75 56 71.09375 56 
Q 79.640625 56 84.28125 50.015625 
Q 88.921875 44.046875 88.921875 33.015625 
L 88.921875 0 
L 79.890625 0 
L 79.890625 32.71875 
Q 79.890625 40.578125 77.09375 44.375 
Q 74.3125 48.1875 68.609375 48.1875 
Q 61.625 48.1875 57.5625 43.546875 
Q 53.515625 38.921875 53.515625 30.90625 
L 53.515625 0 
L 44.484375 0 
L 44.484375 32.71875 
Q 44.484375 40.625 41.703125 44.40625 
Q 38.921875 48.1875 33.109375 48.1875 
Q 26.21875 48.1875 22.15625 43.53125 
Q 18.109375 38.875 18.109375 30.90625 
L 18.109375 0 
L 9.078125 0 
L 9.078125 54.6875 
L 18.109375 54.6875 
L 18.109375 46.1875 
Q 21.1875 51.21875 25.484375 53.609375 
Q 29.78125 56 35.6875 56 
Q 41.65625 56 45.828125 52.96875 
Q 50 49.953125 52 44.1875 
z
" id="DejaVuSans-109"/>
     </defs>
     <g transform="translate(343.152813 296.504312)scale(0.1 -0.1)">
      <use xlink:href="#DejaVuSans-109"/>
      <use x="97.412109" xlink:href="#DejaVuSans-101"/>
      <use x="158.935547" xlink:href="#DejaVuSans-97"/>
      <use x="220.214844" xlink:href="#DejaVuSans-110"/>
     </g>
    </g>
   </g>
  </g>
 </g>
 <defs>
  <clipPath id="p305e371840">
   <rect height="266.112" width="357.12" x="57.6" y="41.472"/>
  </clipPath>
 </defs>
</svg>
