<?xml version="1.0" encoding="utf-8" standalone="no"?>
<!DOCTYPE svg PUBLIC "-//W3C//DTD SVG 1.1//EN"
  "http://www.w3.org/Graphics/SVG/1.1/DTD/svg11.dtd">
<!-- Created with matplotlib (https://matplotlib.org/) -->
<svg height="345.6pt" version="1.1" viewBox="0 0 460.8 345.6" width="460.8pt" xmlns="http://www.w3.org/2000/svg" xmlns:xlink="http://www.w3.org/1999/xlink">
 <defs>
  <style type="text/css">
*{stroke-linecap:butt;stroke-linejoin:round;}
  </style>
 </defs>
 <g id="figure_1">
  <g id="patch_1">
   <path d="M 0 345.6 
L 460.8 345.6 
L 460.8 0 
L 0 0 
z
" style="fill:#ffffff;"/>
  </g>
  <g id="axes_1">
   <g id="patch_2">
    <path d="M 57.6 307.584 
L 414.72 307.584 
L 414.72 41.472 
L 57.6 41.472 
z
" style="fill:#ffffff;"/>
   </g>
   <g id="matplotlib.axis_1">
    <g id="xtick_1">
     <g id="line2d_1">
      <path clip-path="url(#pdefc618bed)" d="M 61.612584 307.584 
L 61.612584 41.472 
" style="fill:none;stroke:#b0b0b0;stroke-dasharray:5.12,1.28,0.8,1.28;stroke-dashoffset:0;stroke-width:0.8;"/>
     </g>
     <g id="line2d_2">
      <defs>
       <path d="M 0 0 
L 0 3.5 
" id="meb9612fd7f" style="stroke:#000000;stroke-width:0.8;"/>
      </defs>
      <g>
       <use style="stroke:#000000;stroke-width:0.8;" x="61.612584" xlink:href="#meb9612fd7f" y="307.584"/>
      </g>
     </g>
     <g id="text_1">
      <!-- 1 -->
      <defs>
       <path d="M 12.40625 8.296875 
L 28.515625 8.296875 
L 28.515625 63.921875 
L 10.984375 60.40625 
L 10.984375 69.390625 
L 28.421875 72.90625 
L 38.28125 72.90625 
L 38.28125 8.296875 
L 54.390625 8.296875 
L 54.390625 0 
L 12.40625 0 
z
" id="DejaVuSans-49"/>
      </defs>
      <g transform="translate(58.431334 322.182437)scale(0.1 -0.1)">
       <use xlink:href="#DejaVuSans-49"/>
      </g>
     </g>
    </g>
    <g id="xtick_2">
     <g id="line2d_3">
      <path clip-path="url(#pdefc618bed)" d="M 73.650337 307.584 
L 73.650337 41.472 
" style="fill:none;stroke:#b0b0b0;stroke-dasharray:5.12,1.28,0.8,1.28;stroke-dashoffset:0;stroke-width:0.8;"/>
     </g>
     <g id="line2d_4">
      <g>
       <use style="stroke:#000000;stroke-width:0.8;" x="73.650337" xlink:href="#meb9612fd7f" y="307.584"/>
      </g>
     </g>
     <g id="text_2">
      <!-- 4 -->
      <defs>
       <path d="M 37.796875 64.3125 
L 12.890625 25.390625 
L 37.796875 25.390625 
z
M 35.203125 72.90625 
L 47.609375 72.90625 
L 47.609375 25.390625 
L 58.015625 25.390625 
L 58.015625 17.1875 
L 47.609375 17.1875 
L 47.609375 0 
L 37.796875 0 
L 37.796875 17.1875 
L 4.890625 17.1875 
L 4.890625 26.703125 
z
" id="DejaVuSans-52"/>
      </defs>
      <g transform="translate(70.469087 322.182437)scale(0.1 -0.1)">
       <use xlink:href="#DejaVuSans-52"/>
      </g>
     </g>
    </g>
    <g id="xtick_3">
     <g id="line2d_5">
      <path clip-path="url(#pdefc618bed)" d="M 89.700674 307.584 
L 89.700674 41.472 
" style="fill:none;stroke:#b0b0b0;stroke-dasharray:5.12,1.28,0.8,1.28;stroke-dashoffset:0;stroke-width:0.8;"/>
     </g>
     <g id="line2d_6">
      <g>
       <use style="stroke:#000000;stroke-width:0.8;" x="89.700674" xlink:href="#meb9612fd7f" y="307.584"/>
      </g>
     </g>
     <g id="text_3">
      <!-- 8 -->
      <defs>
       <path d="M 31.78125 34.625 
Q 24.75 34.625 20.71875 30.859375 
Q 16.703125 27.09375 16.703125 20.515625 
Q 16.703125 13.921875 20.71875 10.15625 
Q 24.75 6.390625 31.78125 6.390625 
Q 38.8125 6.390625 42.859375 10.171875 
Q 46.921875 13.96875 46.921875 20.515625 
Q 46.921875 27.09375 42.890625 30.859375 
Q 38.875 34.625 31.78125 34.625 
z
M 21.921875 38.8125 
Q 15.578125 40.375 12.03125 44.71875 
Q 8.5 49.078125 8.5 55.328125 
Q 8.5 64.0625 14.71875 69.140625 
Q 20.953125 74.21875 31.78125 74.21875 
Q 42.671875 74.21875 48.875 69.140625 
Q 55.078125 64.0625 55.078125 55.328125 
Q 55.078125 49.078125 51.53125 44.71875 
Q 48 40.375 41.703125 38.8125 
Q 48.828125 37.15625 52.796875 32.3125 
Q 56.78125 27.484375 56.78125 20.515625 
Q 56.78125 9.90625 50.3125 4.234375 
Q 43.84375 -1.421875 31.78125 -1.421875 
Q 19.734375 -1.421875 13.25 4.234375 
Q 6.78125 9.90625 6.78125 20.515625 
Q 6.78125 27.484375 10.78125 32.3125 
Q 14.796875 37.15625 21.921875 38.8125 
z
M 18.3125 54.390625 
Q 18.3125 48.734375 21.84375 45.5625 
Q 25.390625 42.390625 31.78125 42.390625 
Q 38.140625 42.390625 41.71875 45.5625 
Q 45.3125 48.734375 45.3125 54.390625 
Q 45.3125 60.0625 41.71875 63.234375 
Q 38.140625 66.40625 31.78125 66.40625 
Q 25.390625 66.40625 21.84375 63.234375 
Q 18.3125 60.0625 18.3125 54.390625 
z
" id="DejaVuSans-56"/>
      </defs>
      <g transform="translate(86.519424 322.182437)scale(0.1 -0.1)">
       <use xlink:href="#DejaVuSans-56"/>
      </g>
     </g>
    </g>
    <g id="xtick_4">
     <g id="line2d_7">
      <path clip-path="url(#pdefc618bed)" d="M 105.751011 307.584 
L 105.751011 41.472 
" style="fill:none;stroke:#b0b0b0;stroke-dasharray:5.12,1.28,0.8,1.28;stroke-dashoffset:0;stroke-width:0.8;"/>
     </g>
     <g id="line2d_8">
      <g>
       <use style="stroke:#000000;stroke-width:0.8;" x="105.751011" xlink:href="#meb9612fd7f" y="307.584"/>
      </g>
     </g>
     <g id="text_4">
      <!-- 12 -->
      <defs>
       <path d="M 19.1875 8.296875 
L 53.609375 8.296875 
L 53.609375 0 
L 7.328125 0 
L 7.328125 8.296875 
Q 12.9375 14.109375 22.625 23.890625 
Q 32.328125 33.6875 34.8125 36.53125 
Q 39.546875 41.84375 41.421875 45.53125 
Q 43.3125 49.21875 43.3125 52.78125 
Q 43.3125 58.59375 39.234375 62.25 
Q 35.15625 65.921875 28.609375 65.921875 
Q 23.96875 65.921875 18.8125 64.3125 
Q 13.671875 62.703125 7.8125 59.421875 
L 7.8125 69.390625 
Q 13.765625 71.78125 18.9375 73 
Q 24.125 74.21875 28.421875 74.21875 
Q 39.75 74.21875 46.484375 68.546875 
Q 53.21875 62.890625 53.21875 53.421875 
Q 53.21875 48.921875 51.53125 44.890625 
Q 49.859375 40.875 45.40625 35.40625 
Q 44.1875 33.984375 37.640625 27.21875 
Q 31.109375 20.453125 19.1875 8.296875 
z
" id="DejaVuSans-50"/>
      </defs>
      <g transform="translate(99.388511 322.182437)scale(0.1 -0.1)">
       <use xlink:href="#DejaVuSans-49"/>
       <use x="63.623047" xlink:href="#DejaVuSans-50"/>
      </g>
     </g>
    </g>
    <g id="xtick_5">
     <g id="line2d_9">
      <path clip-path="url(#pdefc618bed)" d="M 121.801348 307.584 
L 121.801348 41.472 
" style="fill:none;stroke:#b0b0b0;stroke-dasharray:5.12,1.28,0.8,1.28;stroke-dashoffset:0;stroke-width:0.8;"/>
     </g>
     <g id="line2d_10">
      <g>
       <use style="stroke:#000000;stroke-width:0.8;" x="121.801348" xlink:href="#meb9612fd7f" y="307.584"/>
      </g>
     </g>
     <g id="text_5">
      <!-- 16 -->
      <defs>
       <path d="M 33.015625 40.375 
Q 26.375 40.375 22.484375 35.828125 
Q 18.609375 31.296875 18.609375 23.390625 
Q 18.609375 15.53125 22.484375 10.953125 
Q 26.375 6.390625 33.015625 6.390625 
Q 39.65625 6.390625 43.53125 10.953125 
Q 47.40625 15.53125 47.40625 23.390625 
Q 47.40625 31.296875 43.53125 35.828125 
Q 39.65625 40.375 33.015625 40.375 
z
M 52.59375 71.296875 
L 52.59375 62.3125 
Q 48.875 64.0625 45.09375 64.984375 
Q 41.3125 65.921875 37.59375 65.921875 
Q 27.828125 65.921875 22.671875 59.328125 
Q 17.53125 52.734375 16.796875 39.40625 
Q 19.671875 43.65625 24.015625 45.921875 
Q 28.375 48.1875 33.59375 48.1875 
Q 44.578125 48.1875 50.953125 41.515625 
Q 57.328125 34.859375 57.328125 23.390625 
Q 57.328125 12.15625 50.6875 5.359375 
Q 44.046875 -1.421875 33.015625 -1.421875 
Q 20.359375 -1.421875 13.671875 8.265625 
Q 6.984375 17.96875 6.984375 36.375 
Q 6.984375 53.65625 15.1875 63.9375 
Q 23.390625 74.21875 37.203125 74.21875 
Q 40.921875 74.21875 44.703125 73.484375 
Q 48.484375 72.75 52.59375 71.296875 
z
" id="DejaVuSans-54"/>
      </defs>
      <g transform="translate(115.438848 322.182437)scale(0.1 -0.1)">
       <use xlink:href="#DejaVuSans-49"/>
       <use x="63.623047" xlink:href="#DejaVuSans-54"/>
      </g>
     </g>
    </g>
    <g id="xtick_6">
     <g id="line2d_11">
      <path clip-path="url(#pdefc618bed)" d="M 137.851685 307.584 
L 137.851685 41.472 
" style="fill:none;stroke:#b0b0b0;stroke-dasharray:5.12,1.28,0.8,1.28;stroke-dashoffset:0;stroke-width:0.8;"/>
     </g>
     <g id="line2d_12">
      <g>
       <use style="stroke:#000000;stroke-width:0.8;" x="137.851685" xlink:href="#meb9612fd7f" y="307.584"/>
      </g>
     </g>
     <g id="text_6">
      <!-- 20 -->
      <defs>
       <path d="M 31.78125 66.40625 
Q 24.171875 66.40625 20.328125 58.90625 
Q 16.5 51.421875 16.5 36.375 
Q 16.5 21.390625 20.328125 13.890625 
Q 24.171875 6.390625 31.78125 6.390625 
Q 39.453125 6.390625 43.28125 13.890625 
Q 47.125 21.390625 47.125 36.375 
Q 47.125 51.421875 43.28125 58.90625 
Q 39.453125 66.40625 31.78125 66.40625 
z
M 31.78125 74.21875 
Q 44.046875 74.21875 50.515625 64.515625 
Q 56.984375 54.828125 56.984375 36.375 
Q 56.984375 17.96875 50.515625 8.265625 
Q 44.046875 -1.421875 31.78125 -1.421875 
Q 19.53125 -1.421875 13.0625 8.265625 
Q 6.59375 17.96875 6.59375 36.375 
Q 6.59375 54.828125 13.0625 64.515625 
Q 19.53125 74.21875 31.78125 74.21875 
z
" id="DejaVuSans-48"/>
      </defs>
      <g transform="translate(131.489185 322.182437)scale(0.1 -0.1)">
       <use xlink:href="#DejaVuSans-50"/>
       <use x="63.623047" xlink:href="#DejaVuSans-48"/>
      </g>
     </g>
    </g>
    <g id="xtick_7">
     <g id="line2d_13">
      <path clip-path="url(#pdefc618bed)" d="M 153.902022 307.584 
L 153.902022 41.472 
" style="fill:none;stroke:#b0b0b0;stroke-dasharray:5.12,1.28,0.8,1.28;stroke-dashoffset:0;stroke-width:0.8;"/>
     </g>
     <g id="line2d_14">
      <g>
       <use style="stroke:#000000;stroke-width:0.8;" x="153.902022" xlink:href="#meb9612fd7f" y="307.584"/>
      </g>
     </g>
     <g id="text_7">
      <!-- 24 -->
      <g transform="translate(147.539522 322.182437)scale(0.1 -0.1)">
       <use xlink:href="#DejaVuSans-50"/>
       <use x="63.623047" xlink:href="#DejaVuSans-52"/>
      </g>
     </g>
    </g>
    <g id="xtick_8">
     <g id="line2d_15">
      <path clip-path="url(#pdefc618bed)" d="M 169.95236 307.584 
L 169.95236 41.472 
" style="fill:none;stroke:#b0b0b0;stroke-dasharray:5.12,1.28,0.8,1.28;stroke-dashoffset:0;stroke-width:0.8;"/>
     </g>
     <g id="line2d_16">
      <g>
       <use style="stroke:#000000;stroke-width:0.8;" x="169.95236" xlink:href="#meb9612fd7f" y="307.584"/>
      </g>
     </g>
     <g id="text_8">
      <!-- 28 -->
      <g transform="translate(163.58986 322.182437)scale(0.1 -0.1)">
       <use xlink:href="#DejaVuSans-50"/>
       <use x="63.623047" xlink:href="#DejaVuSans-56"/>
      </g>
     </g>
    </g>
    <g id="xtick_9">
     <g id="line2d_17">
      <path clip-path="url(#pdefc618bed)" d="M 186.002697 307.584 
L 186.002697 41.472 
" style="fill:none;stroke:#b0b0b0;stroke-dasharray:5.12,1.28,0.8,1.28;stroke-dashoffset:0;stroke-width:0.8;"/>
     </g>
     <g id="line2d_18">
      <g>
       <use style="stroke:#000000;stroke-width:0.8;" x="186.002697" xlink:href="#meb9612fd7f" y="307.584"/>
      </g>
     </g>
     <g id="text_9">
      <!-- 32 -->
      <defs>
       <path d="M 40.578125 39.3125 
Q 47.65625 37.796875 51.625 33 
Q 55.609375 28.21875 55.609375 21.1875 
Q 55.609375 10.40625 48.1875 4.484375 
Q 40.765625 -1.421875 27.09375 -1.421875 
Q 22.515625 -1.421875 17.65625 -0.515625 
Q 12.796875 0.390625 7.625 2.203125 
L 7.625 11.71875 
Q 11.71875 9.328125 16.59375 8.109375 
Q 21.484375 6.890625 26.8125 6.890625 
Q 36.078125 6.890625 40.9375 10.546875 
Q 45.796875 14.203125 45.796875 21.1875 
Q 45.796875 27.640625 41.28125 31.265625 
Q 36.765625 34.90625 28.71875 34.90625 
L 20.21875 34.90625 
L 20.21875 43.015625 
L 29.109375 43.015625 
Q 36.375 43.015625 40.234375 45.921875 
Q 44.09375 48.828125 44.09375 54.296875 
Q 44.09375 59.90625 40.109375 62.90625 
Q 36.140625 65.921875 28.71875 65.921875 
Q 24.65625 65.921875 20.015625 65.03125 
Q 15.375 64.15625 9.8125 62.3125 
L 9.8125 71.09375 
Q 15.4375 72.65625 20.34375 73.4375 
Q 25.25 74.21875 29.59375 74.21875 
Q 40.828125 74.21875 47.359375 69.109375 
Q 53.90625 64.015625 53.90625 55.328125 
Q 53.90625 49.265625 50.4375 45.09375 
Q 46.96875 40.921875 40.578125 39.3125 
z
" id="DejaVuSans-51"/>
      </defs>
      <g transform="translate(179.640197 322.182437)scale(0.1 -0.1)">
       <use xlink:href="#DejaVuSans-51"/>
       <use x="63.623047" xlink:href="#DejaVuSans-50"/>
      </g>
     </g>
    </g>
    <g id="xtick_10">
     <g id="line2d_19">
      <path clip-path="url(#pdefc618bed)" d="M 202.053034 307.584 
L 202.053034 41.472 
" style="fill:none;stroke:#b0b0b0;stroke-dasharray:5.12,1.28,0.8,1.28;stroke-dashoffset:0;stroke-width:0.8;"/>
     </g>
     <g id="line2d_20">
      <g>
       <use style="stroke:#000000;stroke-width:0.8;" x="202.053034" xlink:href="#meb9612fd7f" y="307.584"/>
      </g>
     </g>
     <g id="text_10">
      <!-- 36 -->
      <g transform="translate(195.690534 322.182437)scale(0.1 -0.1)">
       <use xlink:href="#DejaVuSans-51"/>
       <use x="63.623047" xlink:href="#DejaVuSans-54"/>
      </g>
     </g>
    </g>
    <g id="xtick_11">
     <g id="line2d_21">
      <path clip-path="url(#pdefc618bed)" d="M 218.103371 307.584 
L 218.103371 41.472 
" style="fill:none;stroke:#b0b0b0;stroke-dasharray:5.12,1.28,0.8,1.28;stroke-dashoffset:0;stroke-width:0.8;"/>
     </g>
     <g id="line2d_22">
      <g>
       <use style="stroke:#000000;stroke-width:0.8;" x="218.103371" xlink:href="#meb9612fd7f" y="307.584"/>
      </g>
     </g>
     <g id="text_11">
      <!-- 40 -->
      <g transform="translate(211.740871 322.182437)scale(0.1 -0.1)">
       <use xlink:href="#DejaVuSans-52"/>
       <use x="63.623047" xlink:href="#DejaVuSans-48"/>
      </g>
     </g>
    </g>
    <g id="xtick_12">
     <g id="line2d_23">
      <path clip-path="url(#pdefc618bed)" d="M 234.153708 307.584 
L 234.153708 41.472 
" style="fill:none;stroke:#b0b0b0;stroke-dasharray:5.12,1.28,0.8,1.28;stroke-dashoffset:0;stroke-width:0.8;"/>
     </g>
     <g id="line2d_24">
      <g>
       <use style="stroke:#000000;stroke-width:0.8;" x="234.153708" xlink:href="#meb9612fd7f" y="307.584"/>
      </g>
     </g>
     <g id="text_12">
      <!-- 44 -->
      <g transform="translate(227.791208 322.182437)scale(0.1 -0.1)">
       <use xlink:href="#DejaVuSans-52"/>
       <use x="63.623047" xlink:href="#DejaVuSans-52"/>
      </g>
     </g>
    </g>
    <g id="xtick_13">
     <g id="line2d_25">
      <path clip-path="url(#pdefc618bed)" d="M 250.204045 307.584 
L 250.204045 41.472 
" style="fill:none;stroke:#b0b0b0;stroke-dasharray:5.12,1.28,0.8,1.28;stroke-dashoffset:0;stroke-width:0.8;"/>
     </g>
     <g id="line2d_26">
      <g>
       <use style="stroke:#000000;stroke-width:0.8;" x="250.204045" xlink:href="#meb9612fd7f" y="307.584"/>
      </g>
     </g>
     <g id="text_13">
      <!-- 48 -->
      <g transform="translate(243.841545 322.182437)scale(0.1 -0.1)">
       <use xlink:href="#DejaVuSans-52"/>
       <use x="63.623047" xlink:href="#DejaVuSans-56"/>
      </g>
     </g>
    </g>
    <g id="xtick_14">
     <g id="line2d_27">
      <path clip-path="url(#pdefc618bed)" d="M 266.254382 307.584 
L 266.254382 41.472 
" style="fill:none;stroke:#b0b0b0;stroke-dasharray:5.12,1.28,0.8,1.28;stroke-dashoffset:0;stroke-width:0.8;"/>
     </g>
     <g id="line2d_28">
      <g>
       <use style="stroke:#000000;stroke-width:0.8;" x="266.254382" xlink:href="#meb9612fd7f" y="307.584"/>
      </g>
     </g>
     <g id="text_14">
      <!-- 52 -->
      <defs>
       <path d="M 10.796875 72.90625 
L 49.515625 72.90625 
L 49.515625 64.59375 
L 19.828125 64.59375 
L 19.828125 46.734375 
Q 21.96875 47.46875 24.109375 47.828125 
Q 26.265625 48.1875 28.421875 48.1875 
Q 40.625 48.1875 47.75 41.5 
Q 54.890625 34.8125 54.890625 23.390625 
Q 54.890625 11.625 47.5625 5.09375 
Q 40.234375 -1.421875 26.90625 -1.421875 
Q 22.3125 -1.421875 17.546875 -0.640625 
Q 12.796875 0.140625 7.71875 1.703125 
L 7.71875 11.625 
Q 12.109375 9.234375 16.796875 8.0625 
Q 21.484375 6.890625 26.703125 6.890625 
Q 35.15625 6.890625 40.078125 11.328125 
Q 45.015625 15.765625 45.015625 23.390625 
Q 45.015625 31 40.078125 35.4375 
Q 35.15625 39.890625 26.703125 39.890625 
Q 22.75 39.890625 18.8125 39.015625 
Q 14.890625 38.140625 10.796875 36.28125 
z
" id="DejaVuSans-53"/>
      </defs>
      <g transform="translate(259.891882 322.182437)scale(0.1 -0.1)">
       <use xlink:href="#DejaVuSans-53"/>
       <use x="63.623047" xlink:href="#DejaVuSans-50"/>
      </g>
     </g>
    </g>
    <g id="xtick_15">
     <g id="line2d_29">
      <path clip-path="url(#pdefc618bed)" d="M 282.304719 307.584 
L 282.304719 41.472 
" style="fill:none;stroke:#b0b0b0;stroke-dasharray:5.12,1.28,0.8,1.28;stroke-dashoffset:0;stroke-width:0.8;"/>
     </g>
     <g id="line2d_30">
      <g>
       <use style="stroke:#000000;stroke-width:0.8;" x="282.304719" xlink:href="#meb9612fd7f" y="307.584"/>
      </g>
     </g>
     <g id="text_15">
      <!-- 56 -->
      <g transform="translate(275.942219 322.182437)scale(0.1 -0.1)">
       <use xlink:href="#DejaVuSans-53"/>
       <use x="63.623047" xlink:href="#DejaVuSans-54"/>
      </g>
     </g>
    </g>
    <g id="xtick_16">
     <g id="line2d_31">
      <path clip-path="url(#pdefc618bed)" d="M 298.355056 307.584 
L 298.355056 41.472 
" style="fill:none;stroke:#b0b0b0;stroke-dasharray:5.12,1.28,0.8,1.28;stroke-dashoffset:0;stroke-width:0.8;"/>
     </g>
     <g id="line2d_32">
      <g>
       <use style="stroke:#000000;stroke-width:0.8;" x="298.355056" xlink:href="#meb9612fd7f" y="307.584"/>
      </g>
     </g>
     <g id="text_16">
      <!-- 60 -->
      <g transform="translate(291.992556 322.182437)scale(0.1 -0.1)">
       <use xlink:href="#DejaVuSans-54"/>
       <use x="63.623047" xlink:href="#DejaVuSans-48"/>
      </g>
     </g>
    </g>
    <g id="xtick_17">
     <g id="line2d_33">
      <path clip-path="url(#pdefc618bed)" d="M 314.405393 307.584 
L 314.405393 41.472 
" style="fill:none;stroke:#b0b0b0;stroke-dasharray:5.12,1.28,0.8,1.28;stroke-dashoffset:0;stroke-width:0.8;"/>
     </g>
     <g id="line2d_34">
      <g>
       <use style="stroke:#000000;stroke-width:0.8;" x="314.405393" xlink:href="#meb9612fd7f" y="307.584"/>
      </g>
     </g>
     <g id="text_17">
      <!-- 64 -->
      <g transform="translate(308.042893 322.182437)scale(0.1 -0.1)">
       <use xlink:href="#DejaVuSans-54"/>
       <use x="63.623047" xlink:href="#DejaVuSans-52"/>
      </g>
     </g>
    </g>
    <g id="xtick_18">
     <g id="line2d_35">
      <path clip-path="url(#pdefc618bed)" d="M 330.45573 307.584 
L 330.45573 41.472 
" style="fill:none;stroke:#b0b0b0;stroke-dasharray:5.12,1.28,0.8,1.28;stroke-dashoffset:0;stroke-width:0.8;"/>
     </g>
     <g id="line2d_36">
      <g>
       <use style="stroke:#000000;stroke-width:0.8;" x="330.45573" xlink:href="#meb9612fd7f" y="307.584"/>
      </g>
     </g>
     <g id="text_18">
      <!-- 68 -->
      <g transform="translate(324.09323 322.182437)scale(0.1 -0.1)">
       <use xlink:href="#DejaVuSans-54"/>
       <use x="63.623047" xlink:href="#DejaVuSans-56"/>
      </g>
     </g>
    </g>
    <g id="xtick_19">
     <g id="line2d_37">
      <path clip-path="url(#pdefc618bed)" d="M 346.506067 307.584 
L 346.506067 41.472 
" style="fill:none;stroke:#b0b0b0;stroke-dasharray:5.12,1.28,0.8,1.28;stroke-dashoffset:0;stroke-width:0.8;"/>
     </g>
     <g id="line2d_38">
      <g>
       <use style="stroke:#000000;stroke-width:0.8;" x="346.506067" xlink:href="#meb9612fd7f" y="307.584"/>
      </g>
     </g>
     <g id="text_19">
      <!-- 72 -->
      <defs>
       <path d="M 8.203125 72.90625 
L 55.078125 72.90625 
L 55.078125 68.703125 
L 28.609375 0 
L 18.3125 0 
L 43.21875 64.59375 
L 8.203125 64.59375 
z
" id="DejaVuSans-55"/>
      </defs>
      <g transform="translate(340.143567 322.182437)scale(0.1 -0.1)">
       <use xlink:href="#DejaVuSans-55"/>
       <use x="63.623047" xlink:href="#DejaVuSans-50"/>
      </g>
     </g>
    </g>
    <g id="xtick_20">
     <g id="line2d_39">
      <path clip-path="url(#pdefc618bed)" d="M 362.556404 307.584 
L 362.556404 41.472 
" style="fill:none;stroke:#b0b0b0;stroke-dasharray:5.12,1.28,0.8,1.28;stroke-dashoffset:0;stroke-width:0.8;"/>
     </g>
     <g id="line2d_40">
      <g>
       <use style="stroke:#000000;stroke-width:0.8;" x="362.556404" xlink:href="#meb9612fd7f" y="307.584"/>
      </g>
     </g>
     <g id="text_20">
      <!-- 76 -->
      <g transform="translate(356.193904 322.182437)scale(0.1 -0.1)">
       <use xlink:href="#DejaVuSans-55"/>
       <use x="63.623047" xlink:href="#DejaVuSans-54"/>
      </g>
     </g>
    </g>
    <g id="xtick_21">
     <g id="line2d_41">
      <path clip-path="url(#pdefc618bed)" d="M 378.606742 307.584 
L 378.606742 41.472 
" style="fill:none;stroke:#b0b0b0;stroke-dasharray:5.12,1.28,0.8,1.28;stroke-dashoffset:0;stroke-width:0.8;"/>
     </g>
     <g id="line2d_42">
      <g>
       <use style="stroke:#000000;stroke-width:0.8;" x="378.606742" xlink:href="#meb9612fd7f" y="307.584"/>
      </g>
     </g>
     <g id="text_21">
      <!-- 80 -->
      <g transform="translate(372.244242 322.182437)scale(0.1 -0.1)">
       <use xlink:href="#DejaVuSans-56"/>
       <use x="63.623047" xlink:href="#DejaVuSans-48"/>
      </g>
     </g>
    </g>
    <g id="xtick_22">
     <g id="line2d_43">
      <path clip-path="url(#pdefc618bed)" d="M 394.657079 307.584 
L 394.657079 41.472 
" style="fill:none;stroke:#b0b0b0;stroke-dasharray:5.12,1.28,0.8,1.28;stroke-dashoffset:0;stroke-width:0.8;"/>
     </g>
     <g id="line2d_44">
      <g>
       <use style="stroke:#000000;stroke-width:0.8;" x="394.657079" xlink:href="#meb9612fd7f" y="307.584"/>
      </g>
     </g>
     <g id="text_22">
      <!-- 84 -->
      <g transform="translate(388.294579 322.182437)scale(0.1 -0.1)">
       <use xlink:href="#DejaVuSans-56"/>
       <use x="63.623047" xlink:href="#DejaVuSans-52"/>
      </g>
     </g>
    </g>
    <g id="xtick_23">
     <g id="line2d_45">
      <path clip-path="url(#pdefc618bed)" d="M 410.707416 307.584 
L 410.707416 41.472 
" style="fill:none;stroke:#b0b0b0;stroke-dasharray:5.12,1.28,0.8,1.28;stroke-dashoffset:0;stroke-width:0.8;"/>
     </g>
     <g id="line2d_46">
      <g>
       <use style="stroke:#000000;stroke-width:0.8;" x="410.707416" xlink:href="#meb9612fd7f" y="307.584"/>
      </g>
     </g>
     <g id="text_23">
      <!-- 88 -->
      <g transform="translate(404.344916 322.182437)scale(0.1 -0.1)">
       <use xlink:href="#DejaVuSans-56"/>
       <use x="63.623047" xlink:href="#DejaVuSans-56"/>
      </g>
     </g>
    </g>
    <g id="text_24">
     <!-- threads -->
     <defs>
      <path d="M 18.3125 70.21875 
L 18.3125 54.6875 
L 36.8125 54.6875 
L 36.8125 47.703125 
L 18.3125 47.703125 
L 18.3125 18.015625 
Q 18.3125 11.328125 20.140625 9.421875 
Q 21.96875 7.515625 27.59375 7.515625 
L 36.8125 7.515625 
L 36.8125 0 
L 27.59375 0 
Q 17.1875 0 13.234375 3.875 
Q 9.28125 7.765625 9.28125 18.015625 
L 9.28125 47.703125 
L 2.6875 47.703125 
L 2.6875 54.6875 
L 9.28125 54.6875 
L 9.28125 70.21875 
z
" id="DejaVuSans-116"/>
      <path d="M 54.890625 33.015625 
L 54.890625 0 
L 45.90625 0 
L 45.90625 32.71875 
Q 45.90625 40.484375 42.875 44.328125 
Q 39.84375 48.1875 33.796875 48.1875 
Q 26.515625 48.1875 22.3125 43.546875 
Q 18.109375 38.921875 18.109375 30.90625 
L 18.109375 0 
L 9.078125 0 
L 9.078125 75.984375 
L 18.109375 75.984375 
L 18.109375 46.1875 
Q 21.34375 51.125 25.703125 53.5625 
Q 30.078125 56 35.796875 56 
Q 45.21875 56 50.046875 50.171875 
Q 54.890625 44.34375 54.890625 33.015625 
z
" id="DejaVuSans-104"/>
      <path d="M 41.109375 46.296875 
Q 39.59375 47.171875 37.8125 47.578125 
Q 36.03125 48 33.890625 48 
Q 26.265625 48 22.1875 43.046875 
Q 18.109375 38.09375 18.109375 28.8125 
L 18.109375 0 
L 9.078125 0 
L 9.078125 54.6875 
L 18.109375 54.6875 
L 18.109375 46.1875 
Q 20.953125 51.171875 25.484375 53.578125 
Q 30.03125 56 36.53125 56 
Q 37.453125 56 38.578125 55.875 
Q 39.703125 55.765625 41.0625 55.515625 
z
" id="DejaVuSans-114"/>
      <path d="M 56.203125 29.59375 
L 56.203125 25.203125 
L 14.890625 25.203125 
Q 15.484375 15.921875 20.484375 11.0625 
Q 25.484375 6.203125 34.421875 6.203125 
Q 39.59375 6.203125 44.453125 7.46875 
Q 49.3125 8.734375 54.109375 11.28125 
L 54.109375 2.78125 
Q 49.265625 0.734375 44.1875 -0.34375 
Q 39.109375 -1.421875 33.890625 -1.421875 
Q 20.796875 -1.421875 13.15625 6.1875 
Q 5.515625 13.8125 5.515625 26.8125 
Q 5.515625 40.234375 12.765625 48.109375 
Q 20.015625 56 32.328125 56 
Q 43.359375 56 49.78125 48.890625 
Q 56.203125 41.796875 56.203125 29.59375 
z
M 47.21875 32.234375 
Q 47.125 39.59375 43.09375 43.984375 
Q 39.0625 48.390625 32.421875 48.390625 
Q 24.90625 48.390625 20.390625 44.140625 
Q 15.875 39.890625 15.1875 32.171875 
z
" id="DejaVuSans-101"/>
      <path d="M 34.28125 27.484375 
Q 23.390625 27.484375 19.1875 25 
Q 14.984375 22.515625 14.984375 16.5 
Q 14.984375 11.71875 18.140625 8.90625 
Q 21.296875 6.109375 26.703125 6.109375 
Q 34.1875 6.109375 38.703125 11.40625 
Q 43.21875 16.703125 43.21875 25.484375 
L 43.21875 27.484375 
z
M 52.203125 31.203125 
L 52.203125 0 
L 43.21875 0 
L 43.21875 8.296875 
Q 40.140625 3.328125 35.546875 0.953125 
Q 30.953125 -1.421875 24.3125 -1.421875 
Q 15.921875 -1.421875 10.953125 3.296875 
Q 6 8.015625 6 15.921875 
Q 6 25.140625 12.171875 29.828125 
Q 18.359375 34.515625 30.609375 34.515625 
L 43.21875 34.515625 
L 43.21875 35.40625 
Q 43.21875 41.609375 39.140625 45 
Q 35.0625 48.390625 27.6875 48.390625 
Q 23 48.390625 18.546875 47.265625 
Q 14.109375 46.140625 10.015625 43.890625 
L 10.015625 52.203125 
Q 14.9375 54.109375 19.578125 55.046875 
Q 24.21875 56 28.609375 56 
Q 40.484375 56 46.34375 49.84375 
Q 52.203125 43.703125 52.203125 31.203125 
z
" id="DejaVuSans-97"/>
      <path d="M 45.40625 46.390625 
L 45.40625 75.984375 
L 54.390625 75.984375 
L 54.390625 0 
L 45.40625 0 
L 45.40625 8.203125 
Q 42.578125 3.328125 38.25 0.953125 
Q 33.9375 -1.421875 27.875 -1.421875 
Q 17.96875 -1.421875 11.734375 6.484375 
Q 5.515625 14.40625 5.515625 27.296875 
Q 5.515625 40.1875 11.734375 48.09375 
Q 17.96875 56 27.875 56 
Q 33.9375 56 38.25 53.625 
Q 42.578125 51.265625 45.40625 46.390625 
z
M 14.796875 27.296875 
Q 14.796875 17.390625 18.875 11.75 
Q 22.953125 6.109375 30.078125 6.109375 
Q 37.203125 6.109375 41.296875 11.75 
Q 45.40625 17.390625 45.40625 27.296875 
Q 45.40625 37.203125 41.296875 42.84375 
Q 37.203125 48.484375 30.078125 48.484375 
Q 22.953125 48.484375 18.875 42.84375 
Q 14.796875 37.203125 14.796875 27.296875 
z
" id="DejaVuSans-100"/>
      <path d="M 44.28125 53.078125 
L 44.28125 44.578125 
Q 40.484375 46.53125 36.375 47.5 
Q 32.28125 48.484375 27.875 48.484375 
Q 21.1875 48.484375 17.84375 46.4375 
Q 14.5 44.390625 14.5 40.28125 
Q 14.5 37.15625 16.890625 35.375 
Q 19.28125 33.59375 26.515625 31.984375 
L 29.59375 31.296875 
Q 39.15625 29.25 43.1875 25.515625 
Q 47.21875 21.78125 47.21875 15.09375 
Q 47.21875 7.46875 41.1875 3.015625 
Q 35.15625 -1.421875 24.609375 -1.421875 
Q 20.21875 -1.421875 15.453125 -0.5625 
Q 10.6875 0.296875 5.421875 2 
L 5.421875 11.28125 
Q 10.40625 8.6875 15.234375 7.390625 
Q 20.0625 6.109375 24.8125 6.109375 
Q 31.15625 6.109375 34.5625 8.28125 
Q 37.984375 10.453125 37.984375 14.40625 
Q 37.984375 18.0625 35.515625 20.015625 
Q 33.0625 21.96875 24.703125 23.78125 
L 21.578125 24.515625 
Q 13.234375 26.265625 9.515625 29.90625 
Q 5.8125 33.546875 5.8125 39.890625 
Q 5.8125 47.609375 11.28125 51.796875 
Q 16.75 56 26.8125 56 
Q 31.78125 56 36.171875 55.265625 
Q 40.578125 54.546875 44.28125 53.078125 
z
" id="DejaVuSans-115"/>
     </defs>
     <g transform="translate(217.168594 335.860562)scale(0.1 -0.1)">
      <use xlink:href="#DejaVuSans-116"/>
      <use x="39.208984" xlink:href="#DejaVuSans-104"/>
      <use x="102.587891" xlink:href="#DejaVuSans-114"/>
      <use x="141.451172" xlink:href="#DejaVuSans-101"/>
      <use x="202.974609" xlink:href="#DejaVuSans-97"/>
      <use x="264.253906" xlink:href="#DejaVuSans-100"/>
      <use x="327.730469" xlink:href="#DejaVuSans-115"/>
     </g>
    </g>
   </g>
   <g id="matplotlib.axis_2">
    <g id="ytick_1">
     <g id="line2d_47">
      <path clip-path="url(#pdefc618bed)" d="M 57.6 296.262461 
L 414.72 296.262461 
" style="fill:none;stroke:#b0b0b0;stroke-dasharray:5.12,1.28,0.8,1.28;stroke-dashoffset:0;stroke-width:0.8;"/>
     </g>
     <g id="line2d_48">
      <defs>
       <path d="M 0 0 
L -3.5 0 
" id="mcd58af6ed0" style="stroke:#000000;stroke-width:0.8;"/>
      </defs>
      <g>
       <use style="stroke:#000000;stroke-width:0.8;" x="57.6" xlink:href="#mcd58af6ed0" y="296.262461"/>
      </g>
     </g>
     <g id="text_25">
      <!-- 0.0 -->
      <defs>
       <path d="M 10.6875 12.40625 
L 21 12.40625 
L 21 0 
L 10.6875 0 
z
" id="DejaVuSans-46"/>
      </defs>
      <g transform="translate(34.696875 300.06168)scale(0.1 -0.1)">
       <use xlink:href="#DejaVuSans-48"/>
       <use x="63.623047" xlink:href="#DejaVuSans-46"/>
       <use x="95.410156" xlink:href="#DejaVuSans-48"/>
      </g>
     </g>
    </g>
    <g id="ytick_2">
     <g id="line2d_49">
      <path clip-path="url(#pdefc618bed)" d="M 57.6 262.560354 
L 414.72 262.560354 
" style="fill:none;stroke:#b0b0b0;stroke-dasharray:5.12,1.28,0.8,1.28;stroke-dashoffset:0;stroke-width:0.8;"/>
     </g>
     <g id="line2d_50">
      <g>
       <use style="stroke:#000000;stroke-width:0.8;" x="57.6" xlink:href="#mcd58af6ed0" y="262.560354"/>
      </g>
     </g>
     <g id="text_26">
      <!-- 2.5 -->
      <g transform="translate(34.696875 266.359573)scale(0.1 -0.1)">
       <use xlink:href="#DejaVuSans-50"/>
       <use x="63.623047" xlink:href="#DejaVuSans-46"/>
       <use x="95.410156" xlink:href="#DejaVuSans-53"/>
      </g>
     </g>
    </g>
    <g id="ytick_3">
     <g id="line2d_51">
      <path clip-path="url(#pdefc618bed)" d="M 57.6 228.858246 
L 414.72 228.858246 
" style="fill:none;stroke:#b0b0b0;stroke-dasharray:5.12,1.28,0.8,1.28;stroke-dashoffset:0;stroke-width:0.8;"/>
     </g>
     <g id="line2d_52">
      <g>
       <use style="stroke:#000000;stroke-width:0.8;" x="57.6" xlink:href="#mcd58af6ed0" y="228.858246"/>
      </g>
     </g>
     <g id="text_27">
      <!-- 5.0 -->
      <g transform="translate(34.696875 232.657465)scale(0.1 -0.1)">
       <use xlink:href="#DejaVuSans-53"/>
       <use x="63.623047" xlink:href="#DejaVuSans-46"/>
       <use x="95.410156" xlink:href="#DejaVuSans-48"/>
      </g>
     </g>
    </g>
    <g id="ytick_4">
     <g id="line2d_53">
      <path clip-path="url(#pdefc618bed)" d="M 57.6 195.156139 
L 414.72 195.156139 
" style="fill:none;stroke:#b0b0b0;stroke-dasharray:5.12,1.28,0.8,1.28;stroke-dashoffset:0;stroke-width:0.8;"/>
     </g>
     <g id="line2d_54">
      <g>
       <use style="stroke:#000000;stroke-width:0.8;" x="57.6" xlink:href="#mcd58af6ed0" y="195.156139"/>
      </g>
     </g>
     <g id="text_28">
      <!-- 7.5 -->
      <g transform="translate(34.696875 198.955357)scale(0.1 -0.1)">
       <use xlink:href="#DejaVuSans-55"/>
       <use x="63.623047" xlink:href="#DejaVuSans-46"/>
       <use x="95.410156" xlink:href="#DejaVuSans-53"/>
      </g>
     </g>
    </g>
    <g id="ytick_5">
     <g id="line2d_55">
      <path clip-path="url(#pdefc618bed)" d="M 57.6 161.454031 
L 414.72 161.454031 
" style="fill:none;stroke:#b0b0b0;stroke-dasharray:5.12,1.28,0.8,1.28;stroke-dashoffset:0;stroke-width:0.8;"/>
     </g>
     <g id="line2d_56">
      <g>
       <use style="stroke:#000000;stroke-width:0.8;" x="57.6" xlink:href="#mcd58af6ed0" y="161.454031"/>
      </g>
     </g>
     <g id="text_29">
      <!-- 10.0 -->
      <g transform="translate(28.334375 165.25325)scale(0.1 -0.1)">
       <use xlink:href="#DejaVuSans-49"/>
       <use x="63.623047" xlink:href="#DejaVuSans-48"/>
       <use x="127.246094" xlink:href="#DejaVuSans-46"/>
       <use x="159.033203" xlink:href="#DejaVuSans-48"/>
      </g>
     </g>
    </g>
    <g id="ytick_6">
     <g id="line2d_57">
      <path clip-path="url(#pdefc618bed)" d="M 57.6 127.751923 
L 414.72 127.751923 
" style="fill:none;stroke:#b0b0b0;stroke-dasharray:5.12,1.28,0.8,1.28;stroke-dashoffset:0;stroke-width:0.8;"/>
     </g>
     <g id="line2d_58">
      <g>
       <use style="stroke:#000000;stroke-width:0.8;" x="57.6" xlink:href="#mcd58af6ed0" y="127.751923"/>
      </g>
     </g>
     <g id="text_30">
      <!-- 12.5 -->
      <g transform="translate(28.334375 131.551142)scale(0.1 -0.1)">
       <use xlink:href="#DejaVuSans-49"/>
       <use x="63.623047" xlink:href="#DejaVuSans-50"/>
       <use x="127.246094" xlink:href="#DejaVuSans-46"/>
       <use x="159.033203" xlink:href="#DejaVuSans-53"/>
      </g>
     </g>
    </g>
    <g id="ytick_7">
     <g id="line2d_59">
      <path clip-path="url(#pdefc618bed)" d="M 57.6 94.049816 
L 414.72 94.049816 
" style="fill:none;stroke:#b0b0b0;stroke-dasharray:5.12,1.28,0.8,1.28;stroke-dashoffset:0;stroke-width:0.8;"/>
     </g>
     <g id="line2d_60">
      <g>
       <use style="stroke:#000000;stroke-width:0.8;" x="57.6" xlink:href="#mcd58af6ed0" y="94.049816"/>
      </g>
     </g>
     <g id="text_31">
      <!-- 15.0 -->
      <g transform="translate(28.334375 97.849034)scale(0.1 -0.1)">
       <use xlink:href="#DejaVuSans-49"/>
       <use x="63.623047" xlink:href="#DejaVuSans-53"/>
       <use x="127.246094" xlink:href="#DejaVuSans-46"/>
       <use x="159.033203" xlink:href="#DejaVuSans-48"/>
      </g>
     </g>
    </g>
    <g id="ytick_8">
     <g id="line2d_61">
      <path clip-path="url(#pdefc618bed)" d="M 57.6 60.347708 
L 414.72 60.347708 
" style="fill:none;stroke:#b0b0b0;stroke-dasharray:5.12,1.28,0.8,1.28;stroke-dashoffset:0;stroke-width:0.8;"/>
     </g>
     <g id="line2d_62">
      <g>
       <use style="stroke:#000000;stroke-width:0.8;" x="57.6" xlink:href="#mcd58af6ed0" y="60.347708"/>
      </g>
     </g>
     <g id="text_32">
      <!-- 17.5 -->
      <g transform="translate(28.334375 64.146927)scale(0.1 -0.1)">
       <use xlink:href="#DejaVuSans-49"/>
       <use x="63.623047" xlink:href="#DejaVuSans-55"/>
       <use x="127.246094" xlink:href="#DejaVuSans-46"/>
       <use x="159.033203" xlink:href="#DejaVuSans-53"/>
      </g>
     </g>
    </g>
    <g id="text_33">
     <!-- speed up -->
     <defs>
      <path d="M 18.109375 8.203125 
L 18.109375 -20.796875 
L 9.078125 -20.796875 
L 9.078125 54.6875 
L 18.109375 54.6875 
L 18.109375 46.390625 
Q 20.953125 51.265625 25.265625 53.625 
Q 29.59375 56 35.59375 56 
Q 45.5625 56 51.78125 48.09375 
Q 58.015625 40.1875 58.015625 27.296875 
Q 58.015625 14.40625 51.78125 6.484375 
Q 45.5625 -1.421875 35.59375 -1.421875 
Q 29.59375 -1.421875 25.265625 0.953125 
Q 20.953125 3.328125 18.109375 8.203125 
z
M 48.6875 27.296875 
Q 48.6875 37.203125 44.609375 42.84375 
Q 40.53125 48.484375 33.40625 48.484375 
Q 26.265625 48.484375 22.1875 42.84375 
Q 18.109375 37.203125 18.109375 27.296875 
Q 18.109375 17.390625 22.1875 11.75 
Q 26.265625 6.109375 33.40625 6.109375 
Q 40.53125 6.109375 44.609375 11.75 
Q 48.6875 17.390625 48.6875 27.296875 
z
" id="DejaVuSans-112"/>
      <path id="DejaVuSans-32"/>
      <path d="M 8.5 21.578125 
L 8.5 54.6875 
L 17.484375 54.6875 
L 17.484375 21.921875 
Q 17.484375 14.15625 20.5 10.265625 
Q 23.53125 6.390625 29.59375 6.390625 
Q 36.859375 6.390625 41.078125 11.03125 
Q 45.3125 15.671875 45.3125 23.6875 
L 45.3125 54.6875 
L 54.296875 54.6875 
L 54.296875 0 
L 45.3125 0 
L 45.3125 8.40625 
Q 42.046875 3.421875 37.71875 1 
Q 33.40625 -1.421875 27.6875 -1.421875 
Q 18.265625 -1.421875 13.375 4.4375 
Q 8.5 10.296875 8.5 21.578125 
z
M 31.109375 56 
z
" id="DejaVuSans-117"/>
     </defs>
     <g transform="translate(22.254687 197.566281)rotate(-90)scale(0.1 -0.1)">
      <use xlink:href="#DejaVuSans-115"/>
      <use x="52.099609" xlink:href="#DejaVuSans-112"/>
      <use x="115.576172" xlink:href="#DejaVuSans-101"/>
      <use x="177.099609" xlink:href="#DejaVuSans-101"/>
      <use x="238.623047" xlink:href="#DejaVuSans-100"/>
      <use x="302.099609" xlink:href="#DejaVuSans-32"/>
      <use x="333.886719" xlink:href="#DejaVuSans-117"/>
      <use x="397.265625" xlink:href="#DejaVuSans-112"/>
     </g>
    </g>
   </g>
   <g id="line2d_63">
    <path clip-path="url(#pdefc618bed)" d="M 61.612584 277.293629 
L 65.625169 250.669977 
L 69.637753 235.258442 
L 73.650337 216.521843 
L 77.662921 201.717959 
L 81.675506 184.496165 
L 85.68809 170.546468 
L 89.700674 156.296303 
L 93.713258 144.435458 
L 97.725843 132.820031 
L 101.738427 125.444596 
L 105.751011 102.429831 
L 109.763596 99.047796 
L 113.77618 95.477163 
L 117.788764 88.829299 
L 121.801348 78.417201 
L 125.813933 86.726853 
L 129.826517 76.59577 
L 133.839101 63.695988 
L 137.851685 70.234408 
L 141.86427 62.878217 
L 145.876854 58.047667 
L 149.889438 61.10634 
L 153.902022 53.568 
L 157.914607 62.983065 
L 161.927191 66.844985 
L 165.939775 74.325927 
L 169.95236 65.772745 
L 173.964944 71.586319 
L 177.977528 70.731033 
L 181.990112 73.99623 
L 186.002697 71.2771 
L 190.015281 75.386576 
L 194.027865 74.882508 
L 198.040449 71.053245 
L 202.053034 72.082721 
L 206.065618 72.792114 
L 210.078202 75.414205 
L 214.090787 73.525137 
L 218.103371 75.943355 
L 222.115955 75.137599 
L 226.128539 81.35009 
L 230.141124 82.220329 
L 234.153708 83.663703 
L 238.166292 82.655395 
L 242.178876 87.573912 
L 246.191461 97.107907 
L 250.204045 90.540587 
L 254.216629 86.32321 
L 258.229213 89.929908 
L 262.241798 88.438616 
L 266.254382 89.111627 
L 270.266966 88.232918 
L 274.279551 90.473445 
L 278.292135 90.382254 
L 282.304719 90.367848 
L 286.317303 94.651735 
L 290.329888 93.050545 
L 294.342472 92.755404 
L 298.355056 102.011831 
L 302.36764 91.414211 
L 306.380225 92.938211 
L 310.392809 96.055493 
L 314.405393 96.46332 
L 318.417978 95.664233 
L 322.430562 98.424594 
L 326.443146 99.105057 
L 330.45573 100.833512 
L 334.468315 98.548664 
L 338.480899 98.814004 
L 342.493483 109.365323 
L 346.506067 102.250909 
L 350.518652 101.226434 
L 354.531236 102.523421 
L 358.54382 105.98946 
L 362.556404 110.962064 
L 366.568989 103.866192 
L 370.581573 107.309046 
L 374.594157 106.557829 
L 378.606742 106.606738 
L 382.619326 105.586687 
L 386.63191 108.266771 
L 390.644494 108.710129 
L 394.657079 109.385106 
L 398.669663 110.771273 
L 402.682247 110.899808 
L 406.694831 111.705884 
L 410.707416 132.056921 
" style="fill:none;stroke:#0000ff;stroke-dasharray:1.5,2.475;stroke-dashoffset:0;stroke-width:1.5;"/>
    <defs>
     <path d="M 0 1.5 
C 0.397805 1.5 0.77937 1.341951 1.06066 1.06066 
C 1.341951 0.77937 1.5 0.397805 1.5 0 
C 1.5 -0.397805 1.341951 -0.77937 1.06066 -1.06066 
C 0.77937 -1.341951 0.397805 -1.5 0 -1.5 
C -0.397805 -1.5 -0.77937 -1.341951 -1.06066 -1.06066 
C -1.341951 -0.77937 -1.5 -0.397805 -1.5 0 
C -1.5 0.397805 -1.341951 0.77937 -1.06066 1.06066 
C -0.77937 1.341951 -0.397805 1.5 0 1.5 
z
" id="m46761b5331" style="stroke:#0000ff;"/>
    </defs>
    <g clip-path="url(#pdefc618bed)">
     <use style="fill:#0000ff;stroke:#0000ff;" x="61.612584" xlink:href="#m46761b5331" y="277.293629"/>
     <use style="fill:#0000ff;stroke:#0000ff;" x="65.625169" xlink:href="#m46761b5331" y="250.669977"/>
     <use style="fill:#0000ff;stroke:#0000ff;" x="69.637753" xlink:href="#m46761b5331" y="235.258442"/>
     <use style="fill:#0000ff;stroke:#0000ff;" x="73.650337" xlink:href="#m46761b5331" y="216.521843"/>
     <use style="fill:#0000ff;stroke:#0000ff;" x="77.662921" xlink:href="#m46761b5331" y="201.717959"/>
     <use style="fill:#0000ff;stroke:#0000ff;" x="81.675506" xlink:href="#m46761b5331" y="184.496165"/>
     <use style="fill:#0000ff;stroke:#0000ff;" x="85.68809" xlink:href="#m46761b5331" y="170.546468"/>
     <use style="fill:#0000ff;stroke:#0000ff;" x="89.700674" xlink:href="#m46761b5331" y="156.296303"/>
     <use style="fill:#0000ff;stroke:#0000ff;" x="93.713258" xlink:href="#m46761b5331" y="144.435458"/>
     <use style="fill:#0000ff;stroke:#0000ff;" x="97.725843" xlink:href="#m46761b5331" y="132.820031"/>
     <use style="fill:#0000ff;stroke:#0000ff;" x="101.738427" xlink:href="#m46761b5331" y="125.444596"/>
     <use style="fill:#0000ff;stroke:#0000ff;" x="105.751011" xlink:href="#m46761b5331" y="102.429831"/>
     <use style="fill:#0000ff;stroke:#0000ff;" x="109.763596" xlink:href="#m46761b5331" y="99.047796"/>
     <use style="fill:#0000ff;stroke:#0000ff;" x="113.77618" xlink:href="#m46761b5331" y="95.477163"/>
     <use style="fill:#0000ff;stroke:#0000ff;" x="117.788764" xlink:href="#m46761b5331" y="88.829299"/>
     <use style="fill:#0000ff;stroke:#0000ff;" x="121.801348" xlink:href="#m46761b5331" y="78.417201"/>
     <use style="fill:#0000ff;stroke:#0000ff;" x="125.813933" xlink:href="#m46761b5331" y="86.726853"/>
     <use style="fill:#0000ff;stroke:#0000ff;" x="129.826517" xlink:href="#m46761b5331" y="76.59577"/>
     <use style="fill:#0000ff;stroke:#0000ff;" x="133.839101" xlink:href="#m46761b5331" y="63.695988"/>
     <use style="fill:#0000ff;stroke:#0000ff;" x="137.851685" xlink:href="#m46761b5331" y="70.234408"/>
     <use style="fill:#0000ff;stroke:#0000ff;" x="141.86427" xlink:href="#m46761b5331" y="62.878217"/>
     <use style="fill:#0000ff;stroke:#0000ff;" x="145.876854" xlink:href="#m46761b5331" y="58.047667"/>
     <use style="fill:#0000ff;stroke:#0000ff;" x="149.889438" xlink:href="#m46761b5331" y="61.10634"/>
     <use style="fill:#0000ff;stroke:#0000ff;" x="153.902022" xlink:href="#m46761b5331" y="53.568"/>
     <use style="fill:#0000ff;stroke:#0000ff;" x="157.914607" xlink:href="#m46761b5331" y="62.983065"/>
     <use style="fill:#0000ff;stroke:#0000ff;" x="161.927191" xlink:href="#m46761b5331" y="66.844985"/>
     <use style="fill:#0000ff;stroke:#0000ff;" x="165.939775" xlink:href="#m46761b5331" y="74.325927"/>
     <use style="fill:#0000ff;stroke:#0000ff;" x="169.95236" xlink:href="#m46761b5331" y="65.772745"/>
     <use style="fill:#0000ff;stroke:#0000ff;" x="173.964944" xlink:href="#m46761b5331" y="71.586319"/>
     <use style="fill:#0000ff;stroke:#0000ff;" x="177.977528" xlink:href="#m46761b5331" y="70.731033"/>
     <use style="fill:#0000ff;stroke:#0000ff;" x="181.990112" xlink:href="#m46761b5331" y="73.99623"/>
     <use style="fill:#0000ff;stroke:#0000ff;" x="186.002697" xlink:href="#m46761b5331" y="71.2771"/>
     <use style="fill:#0000ff;stroke:#0000ff;" x="190.015281" xlink:href="#m46761b5331" y="75.386576"/>
     <use style="fill:#0000ff;stroke:#0000ff;" x="194.027865" xlink:href="#m46761b5331" y="74.882508"/>
     <use style="fill:#0000ff;stroke:#0000ff;" x="198.040449" xlink:href="#m46761b5331" y="71.053245"/>
     <use style="fill:#0000ff;stroke:#0000ff;" x="202.053034" xlink:href="#m46761b5331" y="72.082721"/>
     <use style="fill:#0000ff;stroke:#0000ff;" x="206.065618" xlink:href="#m46761b5331" y="72.792114"/>
     <use style="fill:#0000ff;stroke:#0000ff;" x="210.078202" xlink:href="#m46761b5331" y="75.414205"/>
     <use style="fill:#0000ff;stroke:#0000ff;" x="214.090787" xlink:href="#m46761b5331" y="73.525137"/>
     <use style="fill:#0000ff;stroke:#0000ff;" x="218.103371" xlink:href="#m46761b5331" y="75.943355"/>
     <use style="fill:#0000ff;stroke:#0000ff;" x="222.115955" xlink:href="#m46761b5331" y="75.137599"/>
     <use style="fill:#0000ff;stroke:#0000ff;" x="226.128539" xlink:href="#m46761b5331" y="81.35009"/>
     <use style="fill:#0000ff;stroke:#0000ff;" x="230.141124" xlink:href="#m46761b5331" y="82.220329"/>
     <use style="fill:#0000ff;stroke:#0000ff;" x="234.153708" xlink:href="#m46761b5331" y="83.663703"/>
     <use style="fill:#0000ff;stroke:#0000ff;" x="238.166292" xlink:href="#m46761b5331" y="82.655395"/>
     <use style="fill:#0000ff;stroke:#0000ff;" x="242.178876" xlink:href="#m46761b5331" y="87.573912"/>
     <use style="fill:#0000ff;stroke:#0000ff;" x="246.191461" xlink:href="#m46761b5331" y="97.107907"/>
     <use style="fill:#0000ff;stroke:#0000ff;" x="250.204045" xlink:href="#m46761b5331" y="90.540587"/>
     <use style="fill:#0000ff;stroke:#0000ff;" x="254.216629" xlink:href="#m46761b5331" y="86.32321"/>
     <use style="fill:#0000ff;stroke:#0000ff;" x="258.229213" xlink:href="#m46761b5331" y="89.929908"/>
     <use style="fill:#0000ff;stroke:#0000ff;" x="262.241798" xlink:href="#m46761b5331" y="88.438616"/>
     <use style="fill:#0000ff;stroke:#0000ff;" x="266.254382" xlink:href="#m46761b5331" y="89.111627"/>
     <use style="fill:#0000ff;stroke:#0000ff;" x="270.266966" xlink:href="#m46761b5331" y="88.232918"/>
     <use style="fill:#0000ff;stroke:#0000ff;" x="274.279551" xlink:href="#m46761b5331" y="90.473445"/>
     <use style="fill:#0000ff;stroke:#0000ff;" x="278.292135" xlink:href="#m46761b5331" y="90.382254"/>
     <use style="fill:#0000ff;stroke:#0000ff;" x="282.304719" xlink:href="#m46761b5331" y="90.367848"/>
     <use style="fill:#0000ff;stroke:#0000ff;" x="286.317303" xlink:href="#m46761b5331" y="94.651735"/>
     <use style="fill:#0000ff;stroke:#0000ff;" x="290.329888" xlink:href="#m46761b5331" y="93.050545"/>
     <use style="fill:#0000ff;stroke:#0000ff;" x="294.342472" xlink:href="#m46761b5331" y="92.755404"/>
     <use style="fill:#0000ff;stroke:#0000ff;" x="298.355056" xlink:href="#m46761b5331" y="102.011831"/>
     <use style="fill:#0000ff;stroke:#0000ff;" x="302.36764" xlink:href="#m46761b5331" y="91.414211"/>
     <use style="fill:#0000ff;stroke:#0000ff;" x="306.380225" xlink:href="#m46761b5331" y="92.938211"/>
     <use style="fill:#0000ff;stroke:#0000ff;" x="310.392809" xlink:href="#m46761b5331" y="96.055493"/>
     <use style="fill:#0000ff;stroke:#0000ff;" x="314.405393" xlink:href="#m46761b5331" y="96.46332"/>
     <use style="fill:#0000ff;stroke:#0000ff;" x="318.417978" xlink:href="#m46761b5331" y="95.664233"/>
     <use style="fill:#0000ff;stroke:#0000ff;" x="322.430562" xlink:href="#m46761b5331" y="98.424594"/>
     <use style="fill:#0000ff;stroke:#0000ff;" x="326.443146" xlink:href="#m46761b5331" y="99.105057"/>
     <use style="fill:#0000ff;stroke:#0000ff;" x="330.45573" xlink:href="#m46761b5331" y="100.833512"/>
     <use style="fill:#0000ff;stroke:#0000ff;" x="334.468315" xlink:href="#m46761b5331" y="98.548664"/>
     <use style="fill:#0000ff;stroke:#0000ff;" x="338.480899" xlink:href="#m46761b5331" y="98.814004"/>
     <use style="fill:#0000ff;stroke:#0000ff;" x="342.493483" xlink:href="#m46761b5331" y="109.365323"/>
     <use style="fill:#0000ff;stroke:#0000ff;" x="346.506067" xlink:href="#m46761b5331" y="102.250909"/>
     <use style="fill:#0000ff;stroke:#0000ff;" x="350.518652" xlink:href="#m46761b5331" y="101.226434"/>
     <use style="fill:#0000ff;stroke:#0000ff;" x="354.531236" xlink:href="#m46761b5331" y="102.523421"/>
     <use style="fill:#0000ff;stroke:#0000ff;" x="358.54382" xlink:href="#m46761b5331" y="105.98946"/>
     <use style="fill:#0000ff;stroke:#0000ff;" x="362.556404" xlink:href="#m46761b5331" y="110.962064"/>
     <use style="fill:#0000ff;stroke:#0000ff;" x="366.568989" xlink:href="#m46761b5331" y="103.866192"/>
     <use style="fill:#0000ff;stroke:#0000ff;" x="370.581573" xlink:href="#m46761b5331" y="107.309046"/>
     <use style="fill:#0000ff;stroke:#0000ff;" x="374.594157" xlink:href="#m46761b5331" y="106.557829"/>
     <use style="fill:#0000ff;stroke:#0000ff;" x="378.606742" xlink:href="#m46761b5331" y="106.606738"/>
     <use style="fill:#0000ff;stroke:#0000ff;" x="382.619326" xlink:href="#m46761b5331" y="105.586687"/>
     <use style="fill:#0000ff;stroke:#0000ff;" x="386.63191" xlink:href="#m46761b5331" y="108.266771"/>
     <use style="fill:#0000ff;stroke:#0000ff;" x="390.644494" xlink:href="#m46761b5331" y="108.710129"/>
     <use style="fill:#0000ff;stroke:#0000ff;" x="394.657079" xlink:href="#m46761b5331" y="109.385106"/>
     <use style="fill:#0000ff;stroke:#0000ff;" x="398.669663" xlink:href="#m46761b5331" y="110.771273"/>
     <use style="fill:#0000ff;stroke:#0000ff;" x="402.682247" xlink:href="#m46761b5331" y="110.899808"/>
     <use style="fill:#0000ff;stroke:#0000ff;" x="406.694831" xlink:href="#m46761b5331" y="111.705884"/>
     <use style="fill:#0000ff;stroke:#0000ff;" x="410.707416" xlink:href="#m46761b5331" y="132.056921"/>
    </g>
   </g>
   <g id="line2d_64">
    <path clip-path="url(#pdefc618bed)" d="M 61.612584 286.872136 
L 65.625169 290.693382 
L 69.637753 292.510027 
L 73.650337 291.771755 
L 77.662921 293.279998 
L 81.675506 292.966191 
L 85.68809 293.307525 
L 89.700674 292.413094 
L 93.713258 293.602325 
L 97.725843 293.796479 
L 101.738427 293.666242 
L 105.751011 293.538984 
L 109.763596 293.654268 
L 113.77618 293.655597 
L 117.788764 293.757234 
L 121.801348 293.15939 
L 125.813933 294.091409 
L 129.826517 294.052094 
L 133.839101 294.039833 
L 137.851685 294.17866 
L 141.86427 294.059978 
L 145.876854 294.088645 
L 149.889438 294.156437 
L 153.902022 294.081978 
L 157.914607 294.188854 
L 161.927191 294.180895 
L 165.939775 294.38315 
L 169.95236 294.15033 
L 173.964944 294.335429 
L 177.977528 294.286272 
L 181.990112 294.409733 
L 186.002697 294.305942 
L 190.015281 294.575264 
L 194.027865 294.491558 
L 198.040449 294.609793 
L 202.053034 294.619666 
L 206.065618 294.590335 
L 210.078202 294.629836 
L 214.090787 294.727963 
L 218.103371 294.740399 
L 222.115955 294.679511 
L 226.128539 294.769627 
L 230.141124 294.833719 
L 234.153708 294.845229 
L 238.166292 294.969446 
L 242.178876 295.070792 
L 246.191461 295.216129 
L 250.204045 295.196602 
L 254.216629 295.209574 
L 258.229213 295.234758 
L 262.241798 295.258252 
L 266.254382 295.214933 
L 270.266966 295.223266 
L 274.279551 295.214226 
L 278.292135 295.275689 
L 282.304719 295.219387 
L 286.317303 295.232151 
L 290.329888 295.227121 
L 294.342472 295.266017 
L 298.355056 295.235122 
L 302.36764 295.236412 
L 306.380225 295.237847 
L 310.392809 295.315738 
L 314.405393 295.248767 
L 318.417978 295.306542 
L 322.430562 295.315588 
L 326.443146 295.385027 
L 330.45573 295.337528 
L 334.468315 295.356098 
L 338.480899 295.366031 
L 342.493483 295.435362 
L 346.506067 295.367572 
L 350.518652 295.371261 
L 354.531236 295.39448 
L 358.54382 295.435319 
L 362.556404 295.400469 
L 366.568989 295.405764 
L 370.581573 295.422333 
L 374.594157 295.46229 
L 378.606742 295.432069 
L 382.619326 295.426892 
L 386.63191 295.441591 
L 390.644494 295.457479 
L 394.657079 295.44759 
L 398.669663 295.454889 
L 402.682247 295.471151 
L 406.694831 295.488 
L 410.707416 295.469878 
" style="fill:none;stroke:#ff0000;stroke-dasharray:1.5,2.475;stroke-dashoffset:0;stroke-width:1.5;"/>
    <defs>
     <path d="M 0 1.5 
C 0.397805 1.5 0.77937 1.341951 1.06066 1.06066 
C 1.341951 0.77937 1.5 0.397805 1.5 0 
C 1.5 -0.397805 1.341951 -0.77937 1.06066 -1.06066 
C 0.77937 -1.341951 0.397805 -1.5 0 -1.5 
C -0.397805 -1.5 -0.77937 -1.341951 -1.06066 -1.06066 
C -1.341951 -0.77937 -1.5 -0.397805 -1.5 0 
C -1.5 0.397805 -1.341951 0.77937 -1.06066 1.06066 
C -0.77937 1.341951 -0.397805 1.5 0 1.5 
z
" id="m28ec971047" style="stroke:#ff0000;"/>
    </defs>
    <g clip-path="url(#pdefc618bed)">
     <use style="fill:#ff0000;stroke:#ff0000;" x="61.612584" xlink:href="#m28ec971047" y="286.872136"/>
     <use style="fill:#ff0000;stroke:#ff0000;" x="65.625169" xlink:href="#m28ec971047" y="290.693382"/>
     <use style="fill:#ff0000;stroke:#ff0000;" x="69.637753" xlink:href="#m28ec971047" y="292.510027"/>
     <use style="fill:#ff0000;stroke:#ff0000;" x="73.650337" xlink:href="#m28ec971047" y="291.771755"/>
     <use style="fill:#ff0000;stroke:#ff0000;" x="77.662921" xlink:href="#m28ec971047" y="293.279998"/>
     <use style="fill:#ff0000;stroke:#ff0000;" x="81.675506" xlink:href="#m28ec971047" y="292.966191"/>
     <use style="fill:#ff0000;stroke:#ff0000;" x="85.68809" xlink:href="#m28ec971047" y="293.307525"/>
     <use style="fill:#ff0000;stroke:#ff0000;" x="89.700674" xlink:href="#m28ec971047" y="292.413094"/>
     <use style="fill:#ff0000;stroke:#ff0000;" x="93.713258" xlink:href="#m28ec971047" y="293.602325"/>
     <use style="fill:#ff0000;stroke:#ff0000;" x="97.725843" xlink:href="#m28ec971047" y="293.796479"/>
     <use style="fill:#ff0000;stroke:#ff0000;" x="101.738427" xlink:href="#m28ec971047" y="293.666242"/>
     <use style="fill:#ff0000;stroke:#ff0000;" x="105.751011" xlink:href="#m28ec971047" y="293.538984"/>
     <use style="fill:#ff0000;stroke:#ff0000;" x="109.763596" xlink:href="#m28ec971047" y="293.654268"/>
     <use style="fill:#ff0000;stroke:#ff0000;" x="113.77618" xlink:href="#m28ec971047" y="293.655597"/>
     <use style="fill:#ff0000;stroke:#ff0000;" x="117.788764" xlink:href="#m28ec971047" y="293.757234"/>
     <use style="fill:#ff0000;stroke:#ff0000;" x="121.801348" xlink:href="#m28ec971047" y="293.15939"/>
     <use style="fill:#ff0000;stroke:#ff0000;" x="125.813933" xlink:href="#m28ec971047" y="294.091409"/>
     <use style="fill:#ff0000;stroke:#ff0000;" x="129.826517" xlink:href="#m28ec971047" y="294.052094"/>
     <use style="fill:#ff0000;stroke:#ff0000;" x="133.839101" xlink:href="#m28ec971047" y="294.039833"/>
     <use style="fill:#ff0000;stroke:#ff0000;" x="137.851685" xlink:href="#m28ec971047" y="294.17866"/>
     <use style="fill:#ff0000;stroke:#ff0000;" x="141.86427" xlink:href="#m28ec971047" y="294.059978"/>
     <use style="fill:#ff0000;stroke:#ff0000;" x="145.876854" xlink:href="#m28ec971047" y="294.088645"/>
     <use style="fill:#ff0000;stroke:#ff0000;" x="149.889438" xlink:href="#m28ec971047" y="294.156437"/>
     <use style="fill:#ff0000;stroke:#ff0000;" x="153.902022" xlink:href="#m28ec971047" y="294.081978"/>
     <use style="fill:#ff0000;stroke:#ff0000;" x="157.914607" xlink:href="#m28ec971047" y="294.188854"/>
     <use style="fill:#ff0000;stroke:#ff0000;" x="161.927191" xlink:href="#m28ec971047" y="294.180895"/>
     <use style="fill:#ff0000;stroke:#ff0000;" x="165.939775" xlink:href="#m28ec971047" y="294.38315"/>
     <use style="fill:#ff0000;stroke:#ff0000;" x="169.95236" xlink:href="#m28ec971047" y="294.15033"/>
     <use style="fill:#ff0000;stroke:#ff0000;" x="173.964944" xlink:href="#m28ec971047" y="294.335429"/>
     <use style="fill:#ff0000;stroke:#ff0000;" x="177.977528" xlink:href="#m28ec971047" y="294.286272"/>
     <use style="fill:#ff0000;stroke:#ff0000;" x="181.990112" xlink:href="#m28ec971047" y="294.409733"/>
     <use style="fill:#ff0000;stroke:#ff0000;" x="186.002697" xlink:href="#m28ec971047" y="294.305942"/>
     <use style="fill:#ff0000;stroke:#ff0000;" x="190.015281" xlink:href="#m28ec971047" y="294.575264"/>
     <use style="fill:#ff0000;stroke:#ff0000;" x="194.027865" xlink:href="#m28ec971047" y="294.491558"/>
     <use style="fill:#ff0000;stroke:#ff0000;" x="198.040449" xlink:href="#m28ec971047" y="294.609793"/>
     <use style="fill:#ff0000;stroke:#ff0000;" x="202.053034" xlink:href="#m28ec971047" y="294.619666"/>
     <use style="fill:#ff0000;stroke:#ff0000;" x="206.065618" xlink:href="#m28ec971047" y="294.590335"/>
     <use style="fill:#ff0000;stroke:#ff0000;" x="210.078202" xlink:href="#m28ec971047" y="294.629836"/>
     <use style="fill:#ff0000;stroke:#ff0000;" x="214.090787" xlink:href="#m28ec971047" y="294.727963"/>
     <use style="fill:#ff0000;stroke:#ff0000;" x="218.103371" xlink:href="#m28ec971047" y="294.740399"/>
     <use style="fill:#ff0000;stroke:#ff0000;" x="222.115955" xlink:href="#m28ec971047" y="294.679511"/>
     <use style="fill:#ff0000;stroke:#ff0000;" x="226.128539" xlink:href="#m28ec971047" y="294.769627"/>
     <use style="fill:#ff0000;stroke:#ff0000;" x="230.141124" xlink:href="#m28ec971047" y="294.833719"/>
     <use style="fill:#ff0000;stroke:#ff0000;" x="234.153708" xlink:href="#m28ec971047" y="294.845229"/>
     <use style="fill:#ff0000;stroke:#ff0000;" x="238.166292" xlink:href="#m28ec971047" y="294.969446"/>
     <use style="fill:#ff0000;stroke:#ff0000;" x="242.178876" xlink:href="#m28ec971047" y="295.070792"/>
     <use style="fill:#ff0000;stroke:#ff0000;" x="246.191461" xlink:href="#m28ec971047" y="295.216129"/>
     <use style="fill:#ff0000;stroke:#ff0000;" x="250.204045" xlink:href="#m28ec971047" y="295.196602"/>
     <use style="fill:#ff0000;stroke:#ff0000;" x="254.216629" xlink:href="#m28ec971047" y="295.209574"/>
     <use style="fill:#ff0000;stroke:#ff0000;" x="258.229213" xlink:href="#m28ec971047" y="295.234758"/>
     <use style="fill:#ff0000;stroke:#ff0000;" x="262.241798" xlink:href="#m28ec971047" y="295.258252"/>
     <use style="fill:#ff0000;stroke:#ff0000;" x="266.254382" xlink:href="#m28ec971047" y="295.214933"/>
     <use style="fill:#ff0000;stroke:#ff0000;" x="270.266966" xlink:href="#m28ec971047" y="295.223266"/>
     <use style="fill:#ff0000;stroke:#ff0000;" x="274.279551" xlink:href="#m28ec971047" y="295.214226"/>
     <use style="fill:#ff0000;stroke:#ff0000;" x="278.292135" xlink:href="#m28ec971047" y="295.275689"/>
     <use style="fill:#ff0000;stroke:#ff0000;" x="282.304719" xlink:href="#m28ec971047" y="295.219387"/>
     <use style="fill:#ff0000;stroke:#ff0000;" x="286.317303" xlink:href="#m28ec971047" y="295.232151"/>
     <use style="fill:#ff0000;stroke:#ff0000;" x="290.329888" xlink:href="#m28ec971047" y="295.227121"/>
     <use style="fill:#ff0000;stroke:#ff0000;" x="294.342472" xlink:href="#m28ec971047" y="295.266017"/>
     <use style="fill:#ff0000;stroke:#ff0000;" x="298.355056" xlink:href="#m28ec971047" y="295.235122"/>
     <use style="fill:#ff0000;stroke:#ff0000;" x="302.36764" xlink:href="#m28ec971047" y="295.236412"/>
     <use style="fill:#ff0000;stroke:#ff0000;" x="306.380225" xlink:href="#m28ec971047" y="295.237847"/>
     <use style="fill:#ff0000;stroke:#ff0000;" x="310.392809" xlink:href="#m28ec971047" y="295.315738"/>
     <use style="fill:#ff0000;stroke:#ff0000;" x="314.405393" xlink:href="#m28ec971047" y="295.248767"/>
     <use style="fill:#ff0000;stroke:#ff0000;" x="318.417978" xlink:href="#m28ec971047" y="295.306542"/>
     <use style="fill:#ff0000;stroke:#ff0000;" x="322.430562" xlink:href="#m28ec971047" y="295.315588"/>
     <use style="fill:#ff0000;stroke:#ff0000;" x="326.443146" xlink:href="#m28ec971047" y="295.385027"/>
     <use style="fill:#ff0000;stroke:#ff0000;" x="330.45573" xlink:href="#m28ec971047" y="295.337528"/>
     <use style="fill:#ff0000;stroke:#ff0000;" x="334.468315" xlink:href="#m28ec971047" y="295.356098"/>
     <use style="fill:#ff0000;stroke:#ff0000;" x="338.480899" xlink:href="#m28ec971047" y="295.366031"/>
     <use style="fill:#ff0000;stroke:#ff0000;" x="342.493483" xlink:href="#m28ec971047" y="295.435362"/>
     <use style="fill:#ff0000;stroke:#ff0000;" x="346.506067" xlink:href="#m28ec971047" y="295.367572"/>
     <use style="fill:#ff0000;stroke:#ff0000;" x="350.518652" xlink:href="#m28ec971047" y="295.371261"/>
     <use style="fill:#ff0000;stroke:#ff0000;" x="354.531236" xlink:href="#m28ec971047" y="295.39448"/>
     <use style="fill:#ff0000;stroke:#ff0000;" x="358.54382" xlink:href="#m28ec971047" y="295.435319"/>
     <use style="fill:#ff0000;stroke:#ff0000;" x="362.556404" xlink:href="#m28ec971047" y="295.400469"/>
     <use style="fill:#ff0000;stroke:#ff0000;" x="366.568989" xlink:href="#m28ec971047" y="295.405764"/>
     <use style="fill:#ff0000;stroke:#ff0000;" x="370.581573" xlink:href="#m28ec971047" y="295.422333"/>
     <use style="fill:#ff0000;stroke:#ff0000;" x="374.594157" xlink:href="#m28ec971047" y="295.46229"/>
     <use style="fill:#ff0000;stroke:#ff0000;" x="378.606742" xlink:href="#m28ec971047" y="295.432069"/>
     <use style="fill:#ff0000;stroke:#ff0000;" x="382.619326" xlink:href="#m28ec971047" y="295.426892"/>
     <use style="fill:#ff0000;stroke:#ff0000;" x="386.63191" xlink:href="#m28ec971047" y="295.441591"/>
     <use style="fill:#ff0000;stroke:#ff0000;" x="390.644494" xlink:href="#m28ec971047" y="295.457479"/>
     <use style="fill:#ff0000;stroke:#ff0000;" x="394.657079" xlink:href="#m28ec971047" y="295.44759"/>
     <use style="fill:#ff0000;stroke:#ff0000;" x="398.669663" xlink:href="#m28ec971047" y="295.454889"/>
     <use style="fill:#ff0000;stroke:#ff0000;" x="402.682247" xlink:href="#m28ec971047" y="295.471151"/>
     <use style="fill:#ff0000;stroke:#ff0000;" x="406.694831" xlink:href="#m28ec971047" y="295.488"/>
     <use style="fill:#ff0000;stroke:#ff0000;" x="410.707416" xlink:href="#m28ec971047" y="295.469878"/>
    </g>
   </g>
   <g id="line2d_65">
    <path clip-path="url(#pdefc618bed)" d="M 61.612584 282.082882 
L 65.625169 270.681679 
L 69.637753 263.884234 
L 73.650337 254.146799 
L 77.662921 247.498979 
L 81.675506 238.731178 
L 85.68809 231.926996 
L 89.700674 224.354698 
L 93.713258 219.018892 
L 97.725843 213.308255 
L 101.738427 209.555419 
L 105.751011 197.984408 
L 109.763596 196.351032 
L 113.77618 194.56638 
L 117.788764 191.293267 
L 121.801348 185.788295 
L 125.813933 190.409131 
L 129.826517 185.323932 
L 133.839101 178.86791 
L 137.851685 182.206534 
L 141.86427 178.469098 
L 145.876854 176.068156 
L 149.889438 177.631388 
L 153.902022 173.824989 
L 157.914607 178.585959 
L 161.927191 180.51294 
L 165.939775 184.354539 
L 169.95236 179.961537 
L 173.964944 182.960874 
L 177.977528 182.508652 
L 181.990112 184.202981 
L 186.002697 182.791521 
L 190.015281 184.98092 
L 194.027865 184.687033 
L 198.040449 182.831519 
L 202.053034 183.351193 
L 206.065618 183.691225 
L 210.078202 185.022021 
L 214.090787 184.12655 
L 218.103371 185.341877 
L 222.115955 184.908555 
L 226.128539 188.059859 
L 230.141124 188.527024 
L 234.153708 189.254466 
L 238.166292 188.81242 
L 242.178876 191.322352 
L 246.191461 196.162018 
L 250.204045 192.868594 
L 254.216629 190.766392 
L 258.229213 192.582333 
L 262.241798 191.848434 
L 266.254382 192.16328 
L 270.266966 191.728092 
L 274.279551 192.843835 
L 278.292135 192.828971 
L 282.304719 192.793618 
L 286.317303 194.941943 
L 290.329888 194.138833 
L 294.342472 194.01071 
L 298.355056 198.623477 
L 302.36764 193.325312 
L 306.380225 194.088029 
L 310.392809 195.685616 
L 314.405393 195.856044 
L 318.417978 195.485387 
L 322.430562 196.870091 
L 326.443146 197.245042 
L 330.45573 198.08552 
L 334.468315 196.952381 
L 338.480899 197.090018 
L 342.493483 202.400342 
L 346.506067 198.809241 
L 350.518652 198.298848 
L 354.531236 198.958951 
L 358.54382 200.712389 
L 362.556404 203.181267 
L 366.568989 199.635978 
L 370.581573 201.36569 
L 374.594157 201.01006 
L 378.606742 201.019404 
L 382.619326 200.506789 
L 386.63191 201.854181 
L 390.644494 202.083804 
L 394.657079 202.416348 
L 398.669663 203.113081 
L 402.682247 203.185479 
L 406.694831 203.596942 
L 410.707416 213.763399 
" style="fill:none;stroke:#008000;stroke-dasharray:1.5,2.475;stroke-dashoffset:0;stroke-width:1.5;"/>
    <defs>
     <path d="M 0 1.5 
C 0.397805 1.5 0.77937 1.341951 1.06066 1.06066 
C 1.341951 0.77937 1.5 0.397805 1.5 0 
C 1.5 -0.397805 1.341951 -0.77937 1.06066 -1.06066 
C 0.77937 -1.341951 0.397805 -1.5 0 -1.5 
C -0.397805 -1.5 -0.77937 -1.341951 -1.06066 -1.06066 
C -1.341951 -0.77937 -1.5 -0.397805 -1.5 0 
C -1.5 0.397805 -1.341951 0.77937 -1.06066 1.06066 
C -0.77937 1.341951 -0.397805 1.5 0 1.5 
z
" id="m5f71ba3261" style="stroke:#008000;"/>
    </defs>
    <g clip-path="url(#pdefc618bed)">
     <use style="fill:#008000;stroke:#008000;" x="61.612584" xlink:href="#m5f71ba3261" y="282.082882"/>
     <use style="fill:#008000;stroke:#008000;" x="65.625169" xlink:href="#m5f71ba3261" y="270.681679"/>
     <use style="fill:#008000;stroke:#008000;" x="69.637753" xlink:href="#m5f71ba3261" y="263.884234"/>
     <use style="fill:#008000;stroke:#008000;" x="73.650337" xlink:href="#m5f71ba3261" y="254.146799"/>
     <use style="fill:#008000;stroke:#008000;" x="77.662921" xlink:href="#m5f71ba3261" y="247.498979"/>
     <use style="fill:#008000;stroke:#008000;" x="81.675506" xlink:href="#m5f71ba3261" y="238.731178"/>
     <use style="fill:#008000;stroke:#008000;" x="85.68809" xlink:href="#m5f71ba3261" y="231.926996"/>
     <use style="fill:#008000;stroke:#008000;" x="89.700674" xlink:href="#m5f71ba3261" y="224.354698"/>
     <use style="fill:#008000;stroke:#008000;" x="93.713258" xlink:href="#m5f71ba3261" y="219.018892"/>
     <use style="fill:#008000;stroke:#008000;" x="97.725843" xlink:href="#m5f71ba3261" y="213.308255"/>
     <use style="fill:#008000;stroke:#008000;" x="101.738427" xlink:href="#m5f71ba3261" y="209.555419"/>
     <use style="fill:#008000;stroke:#008000;" x="105.751011" xlink:href="#m5f71ba3261" y="197.984408"/>
     <use style="fill:#008000;stroke:#008000;" x="109.763596" xlink:href="#m5f71ba3261" y="196.351032"/>
     <use style="fill:#008000;stroke:#008000;" x="113.77618" xlink:href="#m5f71ba3261" y="194.56638"/>
     <use style="fill:#008000;stroke:#008000;" x="117.788764" xlink:href="#m5f71ba3261" y="191.293267"/>
     <use style="fill:#008000;stroke:#008000;" x="121.801348" xlink:href="#m5f71ba3261" y="185.788295"/>
     <use style="fill:#008000;stroke:#008000;" x="125.813933" xlink:href="#m5f71ba3261" y="190.409131"/>
     <use style="fill:#008000;stroke:#008000;" x="129.826517" xlink:href="#m5f71ba3261" y="185.323932"/>
     <use style="fill:#008000;stroke:#008000;" x="133.839101" xlink:href="#m5f71ba3261" y="178.86791"/>
     <use style="fill:#008000;stroke:#008000;" x="137.851685" xlink:href="#m5f71ba3261" y="182.206534"/>
     <use style="fill:#008000;stroke:#008000;" x="141.86427" xlink:href="#m5f71ba3261" y="178.469098"/>
     <use style="fill:#008000;stroke:#008000;" x="145.876854" xlink:href="#m5f71ba3261" y="176.068156"/>
     <use style="fill:#008000;stroke:#008000;" x="149.889438" xlink:href="#m5f71ba3261" y="177.631388"/>
     <use style="fill:#008000;stroke:#008000;" x="153.902022" xlink:href="#m5f71ba3261" y="173.824989"/>
     <use style="fill:#008000;stroke:#008000;" x="157.914607" xlink:href="#m5f71ba3261" y="178.585959"/>
     <use style="fill:#008000;stroke:#008000;" x="161.927191" xlink:href="#m5f71ba3261" y="180.51294"/>
     <use style="fill:#008000;stroke:#008000;" x="165.939775" xlink:href="#m5f71ba3261" y="184.354539"/>
     <use style="fill:#008000;stroke:#008000;" x="169.95236" xlink:href="#m5f71ba3261" y="179.961537"/>
     <use style="fill:#008000;stroke:#008000;" x="173.964944" xlink:href="#m5f71ba3261" y="182.960874"/>
     <use style="fill:#008000;stroke:#008000;" x="177.977528" xlink:href="#m5f71ba3261" y="182.508652"/>
     <use style="fill:#008000;stroke:#008000;" x="181.990112" xlink:href="#m5f71ba3261" y="184.202981"/>
     <use style="fill:#008000;stroke:#008000;" x="186.002697" xlink:href="#m5f71ba3261" y="182.791521"/>
     <use style="fill:#008000;stroke:#008000;" x="190.015281" xlink:href="#m5f71ba3261" y="184.98092"/>
     <use style="fill:#008000;stroke:#008000;" x="194.027865" xlink:href="#m5f71ba3261" y="184.687033"/>
     <use style="fill:#008000;stroke:#008000;" x="198.040449" xlink:href="#m5f71ba3261" y="182.831519"/>
     <use style="fill:#008000;stroke:#008000;" x="202.053034" xlink:href="#m5f71ba3261" y="183.351193"/>
     <use style="fill:#008000;stroke:#008000;" x="206.065618" xlink:href="#m5f71ba3261" y="183.691225"/>
     <use style="fill:#008000;stroke:#008000;" x="210.078202" xlink:href="#m5f71ba3261" y="185.022021"/>
     <use style="fill:#008000;stroke:#008000;" x="214.090787" xlink:href="#m5f71ba3261" y="184.12655"/>
     <use style="fill:#008000;stroke:#008000;" x="218.103371" xlink:href="#m5f71ba3261" y="185.341877"/>
     <use style="fill:#008000;stroke:#008000;" x="222.115955" xlink:href="#m5f71ba3261" y="184.908555"/>
     <use style="fill:#008000;stroke:#008000;" x="226.128539" xlink:href="#m5f71ba3261" y="188.059859"/>
     <use style="fill:#008000;stroke:#008000;" x="230.141124" xlink:href="#m5f71ba3261" y="188.527024"/>
     <use style="fill:#008000;stroke:#008000;" x="234.153708" xlink:href="#m5f71ba3261" y="189.254466"/>
     <use style="fill:#008000;stroke:#008000;" x="238.166292" xlink:href="#m5f71ba3261" y="188.81242"/>
     <use style="fill:#008000;stroke:#008000;" x="242.178876" xlink:href="#m5f71ba3261" y="191.322352"/>
     <use style="fill:#008000;stroke:#008000;" x="246.191461" xlink:href="#m5f71ba3261" y="196.162018"/>
     <use style="fill:#008000;stroke:#008000;" x="250.204045" xlink:href="#m5f71ba3261" y="192.868594"/>
     <use style="fill:#008000;stroke:#008000;" x="254.216629" xlink:href="#m5f71ba3261" y="190.766392"/>
     <use style="fill:#008000;stroke:#008000;" x="258.229213" xlink:href="#m5f71ba3261" y="192.582333"/>
     <use style="fill:#008000;stroke:#008000;" x="262.241798" xlink:href="#m5f71ba3261" y="191.848434"/>
     <use style="fill:#008000;stroke:#008000;" x="266.254382" xlink:href="#m5f71ba3261" y="192.16328"/>
     <use style="fill:#008000;stroke:#008000;" x="270.266966" xlink:href="#m5f71ba3261" y="191.728092"/>
     <use style="fill:#008000;stroke:#008000;" x="274.279551" xlink:href="#m5f71ba3261" y="192.843835"/>
     <use style="fill:#008000;stroke:#008000;" x="278.292135" xlink:href="#m5f71ba3261" y="192.828971"/>
     <use style="fill:#008000;stroke:#008000;" x="282.304719" xlink:href="#m5f71ba3261" y="192.793618"/>
     <use style="fill:#008000;stroke:#008000;" x="286.317303" xlink:href="#m5f71ba3261" y="194.941943"/>
     <use style="fill:#008000;stroke:#008000;" x="290.329888" xlink:href="#m5f71ba3261" y="194.138833"/>
     <use style="fill:#008000;stroke:#008000;" x="294.342472" xlink:href="#m5f71ba3261" y="194.01071"/>
     <use style="fill:#008000;stroke:#008000;" x="298.355056" xlink:href="#m5f71ba3261" y="198.623477"/>
     <use style="fill:#008000;stroke:#008000;" x="302.36764" xlink:href="#m5f71ba3261" y="193.325312"/>
     <use style="fill:#008000;stroke:#008000;" x="306.380225" xlink:href="#m5f71ba3261" y="194.088029"/>
     <use style="fill:#008000;stroke:#008000;" x="310.392809" xlink:href="#m5f71ba3261" y="195.685616"/>
     <use style="fill:#008000;stroke:#008000;" x="314.405393" xlink:href="#m5f71ba3261" y="195.856044"/>
     <use style="fill:#008000;stroke:#008000;" x="318.417978" xlink:href="#m5f71ba3261" y="195.485387"/>
     <use style="fill:#008000;stroke:#008000;" x="322.430562" xlink:href="#m5f71ba3261" y="196.870091"/>
     <use style="fill:#008000;stroke:#008000;" x="326.443146" xlink:href="#m5f71ba3261" y="197.245042"/>
     <use style="fill:#008000;stroke:#008000;" x="330.45573" xlink:href="#m5f71ba3261" y="198.08552"/>
     <use style="fill:#008000;stroke:#008000;" x="334.468315" xlink:href="#m5f71ba3261" y="196.952381"/>
     <use style="fill:#008000;stroke:#008000;" x="338.480899" xlink:href="#m5f71ba3261" y="197.090018"/>
     <use style="fill:#008000;stroke:#008000;" x="342.493483" xlink:href="#m5f71ba3261" y="202.400342"/>
     <use style="fill:#008000;stroke:#008000;" x="346.506067" xlink:href="#m5f71ba3261" y="198.809241"/>
     <use style="fill:#008000;stroke:#008000;" x="350.518652" xlink:href="#m5f71ba3261" y="198.298848"/>
     <use style="fill:#008000;stroke:#008000;" x="354.531236" xlink:href="#m5f71ba3261" y="198.958951"/>
     <use style="fill:#008000;stroke:#008000;" x="358.54382" xlink:href="#m5f71ba3261" y="200.712389"/>
     <use style="fill:#008000;stroke:#008000;" x="362.556404" xlink:href="#m5f71ba3261" y="203.181267"/>
     <use style="fill:#008000;stroke:#008000;" x="366.568989" xlink:href="#m5f71ba3261" y="199.635978"/>
     <use style="fill:#008000;stroke:#008000;" x="370.581573" xlink:href="#m5f71ba3261" y="201.36569"/>
     <use style="fill:#008000;stroke:#008000;" x="374.594157" xlink:href="#m5f71ba3261" y="201.01006"/>
     <use style="fill:#008000;stroke:#008000;" x="378.606742" xlink:href="#m5f71ba3261" y="201.019404"/>
     <use style="fill:#008000;stroke:#008000;" x="382.619326" xlink:href="#m5f71ba3261" y="200.506789"/>
     <use style="fill:#008000;stroke:#008000;" x="386.63191" xlink:href="#m5f71ba3261" y="201.854181"/>
     <use style="fill:#008000;stroke:#008000;" x="390.644494" xlink:href="#m5f71ba3261" y="202.083804"/>
     <use style="fill:#008000;stroke:#008000;" x="394.657079" xlink:href="#m5f71ba3261" y="202.416348"/>
     <use style="fill:#008000;stroke:#008000;" x="398.669663" xlink:href="#m5f71ba3261" y="203.113081"/>
     <use style="fill:#008000;stroke:#008000;" x="402.682247" xlink:href="#m5f71ba3261" y="203.185479"/>
     <use style="fill:#008000;stroke:#008000;" x="406.694831" xlink:href="#m5f71ba3261" y="203.596942"/>
     <use style="fill:#008000;stroke:#008000;" x="410.707416" xlink:href="#m5f71ba3261" y="213.763399"/>
    </g>
   </g>
   <g id="patch_3">
    <path d="M 57.6 307.584 
L 57.6 41.472 
" style="fill:none;stroke:#000000;stroke-linecap:square;stroke-linejoin:miter;stroke-width:0.8;"/>
   </g>
   <g id="patch_4">
    <path d="M 414.72 307.584 
L 414.72 41.472 
" style="fill:none;stroke:#000000;stroke-linecap:square;stroke-linejoin:miter;stroke-width:0.8;"/>
   </g>
   <g id="patch_5">
    <path d="M 57.6 307.584 
L 414.72 307.584 
" style="fill:none;stroke:#000000;stroke-linecap:square;stroke-linejoin:miter;stroke-width:0.8;"/>
   </g>
   <g id="patch_6">
    <path d="M 57.6 41.472 
L 414.72 41.472 
" style="fill:none;stroke:#000000;stroke-linecap:square;stroke-linejoin:miter;stroke-width:0.8;"/>
   </g>
   <g id="text_34">
    <!-- MergeTrans 3PV on pre_transpose7 -->
    <defs>
     <path d="M 9.8125 72.90625 
L 24.515625 72.90625 
L 43.109375 23.296875 
L 61.8125 72.90625 
L 76.515625 72.90625 
L 76.515625 0 
L 66.890625 0 
L 66.890625 64.015625 
L 48.09375 14.015625 
L 38.1875 14.015625 
L 19.390625 64.015625 
L 19.390625 0 
L 9.8125 0 
z
" id="DejaVuSans-77"/>
     <path d="M 45.40625 27.984375 
Q 45.40625 37.75 41.375 43.109375 
Q 37.359375 48.484375 30.078125 48.484375 
Q 22.859375 48.484375 18.828125 43.109375 
Q 14.796875 37.75 14.796875 27.984375 
Q 14.796875 18.265625 18.828125 12.890625 
Q 22.859375 7.515625 30.078125 7.515625 
Q 37.359375 7.515625 41.375 12.890625 
Q 45.40625 18.265625 45.40625 27.984375 
z
M 54.390625 6.78125 
Q 54.390625 -7.171875 48.1875 -13.984375 
Q 42 -20.796875 29.203125 -20.796875 
Q 24.46875 -20.796875 20.265625 -20.09375 
Q 16.0625 -19.390625 12.109375 -17.921875 
L 12.109375 -9.1875 
Q 16.0625 -11.328125 19.921875 -12.34375 
Q 23.78125 -13.375 27.78125 -13.375 
Q 36.625 -13.375 41.015625 -8.765625 
Q 45.40625 -4.15625 45.40625 5.171875 
L 45.40625 9.625 
Q 42.625 4.78125 38.28125 2.390625 
Q 33.9375 0 27.875 0 
Q 17.828125 0 11.671875 7.65625 
Q 5.515625 15.328125 5.515625 27.984375 
Q 5.515625 40.671875 11.671875 48.328125 
Q 17.828125 56 27.875 56 
Q 33.9375 56 38.28125 53.609375 
Q 42.625 51.21875 45.40625 46.390625 
L 45.40625 54.6875 
L 54.390625 54.6875 
z
" id="DejaVuSans-103"/>
     <path d="M -0.296875 72.90625 
L 61.375 72.90625 
L 61.375 64.59375 
L 35.5 64.59375 
L 35.5 0 
L 25.59375 0 
L 25.59375 64.59375 
L -0.296875 64.59375 
z
" id="DejaVuSans-84"/>
     <path d="M 54.890625 33.015625 
L 54.890625 0 
L 45.90625 0 
L 45.90625 32.71875 
Q 45.90625 40.484375 42.875 44.328125 
Q 39.84375 48.1875 33.796875 48.1875 
Q 26.515625 48.1875 22.3125 43.546875 
Q 18.109375 38.921875 18.109375 30.90625 
L 18.109375 0 
L 9.078125 0 
L 9.078125 54.6875 
L 18.109375 54.6875 
L 18.109375 46.1875 
Q 21.34375 51.125 25.703125 53.5625 
Q 30.078125 56 35.796875 56 
Q 45.21875 56 50.046875 50.171875 
Q 54.890625 44.34375 54.890625 33.015625 
z
" id="DejaVuSans-110"/>
     <path d="M 19.671875 64.796875 
L 19.671875 37.40625 
L 32.078125 37.40625 
Q 38.96875 37.40625 42.71875 40.96875 
Q 46.484375 44.53125 46.484375 51.125 
Q 46.484375 57.671875 42.71875 61.234375 
Q 38.96875 64.796875 32.078125 64.796875 
z
M 9.8125 72.90625 
L 32.078125 72.90625 
Q 44.34375 72.90625 50.609375 67.359375 
Q 56.890625 61.8125 56.890625 51.125 
Q 56.890625 40.328125 50.609375 34.8125 
Q 44.34375 29.296875 32.078125 29.296875 
L 19.671875 29.296875 
L 19.671875 0 
L 9.8125 0 
z
" id="DejaVuSans-80"/>
     <path d="M 28.609375 0 
L 0.78125 72.90625 
L 11.078125 72.90625 
L 34.1875 11.53125 
L 57.328125 72.90625 
L 67.578125 72.90625 
L 39.796875 0 
z
" id="DejaVuSans-86"/>
     <path d="M 30.609375 48.390625 
Q 23.390625 48.390625 19.1875 42.75 
Q 14.984375 37.109375 14.984375 27.296875 
Q 14.984375 17.484375 19.15625 11.84375 
Q 23.34375 6.203125 30.609375 6.203125 
Q 37.796875 6.203125 41.984375 11.859375 
Q 46.1875 17.53125 46.1875 27.296875 
Q 46.1875 37.015625 41.984375 42.703125 
Q 37.796875 48.390625 30.609375 48.390625 
z
M 30.609375 56 
Q 42.328125 56 49.015625 48.375 
Q 55.71875 40.765625 55.71875 27.296875 
Q 55.71875 13.875 49.015625 6.21875 
Q 42.328125 -1.421875 30.609375 -1.421875 
Q 18.84375 -1.421875 12.171875 6.21875 
Q 5.515625 13.875 5.515625 27.296875 
Q 5.515625 40.765625 12.171875 48.375 
Q 18.84375 56 30.609375 56 
z
" id="DejaVuSans-111"/>
     <path d="M 50.984375 -16.609375 
L 50.984375 -23.578125 
L -0.984375 -23.578125 
L -0.984375 -16.609375 
z
" id="DejaVuSans-95"/>
    </defs>
    <g transform="translate(130.471875 35.472)scale(0.12 -0.12)">
     <use xlink:href="#DejaVuSans-77"/>
     <use x="86.279297" xlink:href="#DejaVuSans-101"/>
     <use x="147.802734" xlink:href="#DejaVuSans-114"/>
     <use x="187.166016" xlink:href="#DejaVuSans-103"/>
     <use x="250.642578" xlink:href="#DejaVuSans-101"/>
     <use x="312.166016" xlink:href="#DejaVuSans-84"/>
     <use x="358.5" xlink:href="#DejaVuSans-114"/>
     <use x="399.613281" xlink:href="#DejaVuSans-97"/>
     <use x="460.892578" xlink:href="#DejaVuSans-110"/>
     <use x="524.271484" xlink:href="#DejaVuSans-115"/>
     <use x="576.371094" xlink:href="#DejaVuSans-32"/>
     <use x="608.158203" xlink:href="#DejaVuSans-51"/>
     <use x="671.78125" xlink:href="#DejaVuSans-80"/>
     <use x="732.083984" xlink:href="#DejaVuSans-86"/>
     <use x="800.492188" xlink:href="#DejaVuSans-32"/>
     <use x="832.279297" xlink:href="#DejaVuSans-111"/>
     <use x="893.460938" xlink:href="#DejaVuSans-110"/>
     <use x="956.839844" xlink:href="#DejaVuSans-32"/>
     <use x="988.626953" xlink:href="#DejaVuSans-112"/>
     <use x="1052.103516" xlink:href="#DejaVuSans-114"/>
     <use x="1090.966797" xlink:href="#DejaVuSans-101"/>
     <use x="1152.490234" xlink:href="#DejaVuSans-95"/>
     <use x="1202.490234" xlink:href="#DejaVuSans-116"/>
     <use x="1241.699219" xlink:href="#DejaVuSans-114"/>
     <use x="1282.8125" xlink:href="#DejaVuSans-97"/>
     <use x="1344.091797" xlink:href="#DejaVuSans-110"/>
     <use x="1407.470703" xlink:href="#DejaVuSans-115"/>
     <use x="1459.570312" xlink:href="#DejaVuSans-112"/>
     <use x="1523.046875" xlink:href="#DejaVuSans-111"/>
     <use x="1584.228516" xlink:href="#DejaVuSans-115"/>
     <use x="1636.328125" xlink:href="#DejaVuSans-101"/>
     <use x="1697.851562" xlink:href="#DejaVuSans-55"/>
    </g>
   </g>
   <g id="legend_1">
    <g id="patch_7">
     <path d="M 313.152813 93.7845 
L 407.72 93.7845 
Q 409.72 93.7845 409.72 91.7845 
L 409.72 48.472 
Q 409.72 46.472 407.72 46.472 
L 313.152813 46.472 
Q 311.152813 46.472 311.152813 48.472 
L 311.152813 91.7845 
Q 311.152813 93.7845 313.152813 93.7845 
z
" style="fill:#ffffff;opacity:0.8;stroke:#cccccc;stroke-linejoin:miter;"/>
    </g>
    <g id="line2d_66">
     <path d="M 315.152813 54.570438 
L 335.152813 54.570438 
" style="fill:none;stroke:#0000ff;stroke-dasharray:1.5,2.475;stroke-dashoffset:0;stroke-width:1.5;"/>
    </g>
    <g id="line2d_67">
     <g>
      <use style="fill:#0000ff;stroke:#0000ff;" x="325.152813" xlink:href="#m46761b5331" y="54.570438"/>
     </g>
    </g>
    <g id="text_35">
     <!-- transpose -->
     <g transform="translate(343.152813 58.070438)scale(0.1 -0.1)">
      <use xlink:href="#DejaVuSans-116"/>
      <use x="39.208984" xlink:href="#DejaVuSans-114"/>
      <use x="80.322266" xlink:href="#DejaVuSans-97"/>
      <use x="141.601562" xlink:href="#DejaVuSans-110"/>
      <use x="204.980469" xlink:href="#DejaVuSans-115"/>
      <use x="257.080078" xlink:href="#DejaVuSans-112"/>
      <use x="320.556641" xlink:href="#DejaVuSans-111"/>
      <use x="381.738281" xlink:href="#DejaVuSans-115"/>
      <use x="433.837891" xlink:href="#DejaVuSans-101"/>
     </g>
    </g>
    <g id="line2d_68">
     <path d="M 315.152813 69.248563 
L 335.152813 69.248563 
" style="fill:none;stroke:#ff0000;stroke-dasharray:1.5,2.475;stroke-dashoffset:0;stroke-width:1.5;"/>
    </g>
    <g id="line2d_69">
     <g>
      <use style="fill:#ff0000;stroke:#ff0000;" x="325.152813" xlink:href="#m28ec971047" y="69.248563"/>
     </g>
    </g>
    <g id="text_36">
     <!-- transpose_tr -->
     <g transform="translate(343.152813 72.748563)scale(0.1 -0.1)">
      <use xlink:href="#DejaVuSans-116"/>
      <use x="39.208984" xlink:href="#DejaVuSans-114"/>
      <use x="80.322266" xlink:href="#DejaVuSans-97"/>
      <use x="141.601562" xlink:href="#DejaVuSans-110"/>
      <use x="204.980469" xlink:href="#DejaVuSans-115"/>
      <use x="257.080078" xlink:href="#DejaVuSans-112"/>
      <use x="320.556641" xlink:href="#DejaVuSans-111"/>
      <use x="381.738281" xlink:href="#DejaVuSans-115"/>
      <use x="433.837891" xlink:href="#DejaVuSans-101"/>
      <use x="495.361328" xlink:href="#DejaVuSans-95"/>
      <use x="545.361328" xlink:href="#DejaVuSans-116"/>
      <use x="584.570312" xlink:href="#DejaVuSans-114"/>
     </g>
    </g>
    <g id="line2d_70">
     <path d="M 315.152813 84.204813 
L 335.152813 84.204813 
" style="fill:none;stroke:#008000;stroke-dasharray:1.5,2.475;stroke-dashoffset:0;stroke-width:1.5;"/>
    </g>
    <g id="line2d_71">
     <g>
      <use style="fill:#008000;stroke:#008000;" x="325.152813" xlink:href="#m5f71ba3261" y="84.204813"/>
     </g>
    </g>
    <g id="text_37">
     <!-- mean -->
     <defs>
      <path d="M 52 44.1875 
Q 55.375 50.25 60.0625 53.125 
Q 64.75 56 71.09375 56 
Q 79.640625 56 84.28125 50.015625 
Q 88.921875 44.046875 88.921875 33.015625 
L 88.921875 0 
L 79.890625 0 
L 79.890625 32.71875 
Q 79.890625 40.578125 77.09375 44.375 
Q 74.3125 48.1875 68.609375 48.1875 
Q 61.625 48.1875 57.5625 43.546875 
Q 53.515625 38.921875 53.515625 30.90625 
L 53.515625 0 
L 44.484375 0 
L 44.484375 32.71875 
Q 44.484375 40.625 41.703125 44.40625 
Q 38.921875 48.1875 33.109375 48.1875 
Q 26.21875 48.1875 22.15625 43.53125 
Q 18.109375 38.875 18.109375 30.90625 
L 18.109375 0 
L 9.078125 0 
L 9.078125 54.6875 
L 18.109375 54.6875 
L 18.109375 46.1875 
Q 21.1875 51.21875 25.484375 53.609375 
Q 29.78125 56 35.6875 56 
Q 41.65625 56 45.828125 52.96875 
Q 50 49.953125 52 44.1875 
z
" id="DejaVuSans-109"/>
     </defs>
     <g transform="translate(343.152813 87.704813)scale(0.1 -0.1)">
      <use xlink:href="#DejaVuSans-109"/>
      <use x="97.412109" xlink:href="#DejaVuSans-101"/>
      <use x="158.935547" xlink:href="#DejaVuSans-97"/>
      <use x="220.214844" xlink:href="#DejaVuSans-110"/>
     </g>
    </g>
   </g>
  </g>
 </g>
 <defs>
  <clipPath id="pdefc618bed">
   <rect height="266.112" width="357.12" x="57.6" y="41.472"/>
  </clipPath>
 </defs>
</svg>
