<?xml version="1.0" encoding="utf-8" standalone="no"?>
<!DOCTYPE svg PUBLIC "-//W3C//DTD SVG 1.1//EN"
  "http://www.w3.org/Graphics/SVG/1.1/DTD/svg11.dtd">
<!-- Created with matplotlib (https://matplotlib.org/) -->
<svg height="345.6pt" version="1.1" viewBox="0 0 460.8 345.6" width="460.8pt" xmlns="http://www.w3.org/2000/svg" xmlns:xlink="http://www.w3.org/1999/xlink">
 <defs>
  <style type="text/css">
*{stroke-linecap:butt;stroke-linejoin:round;}
  </style>
 </defs>
 <g id="figure_1">
  <g id="patch_1">
   <path d="M 0 345.6 
L 460.8 345.6 
L 460.8 0 
L 0 0 
z
" style="fill:#ffffff;"/>
  </g>
  <g id="axes_1">
   <g id="patch_2">
    <path d="M 57.6 307.584 
L 414.72 307.584 
L 414.72 41.472 
L 57.6 41.472 
z
" style="fill:#ffffff;"/>
   </g>
   <g id="matplotlib.axis_1">
    <g id="xtick_1">
     <g id="line2d_1">
      <path clip-path="url(#pccb68b2035)" d="M 61.612584 307.584 
L 61.612584 41.472 
" style="fill:none;stroke:#b0b0b0;stroke-dasharray:5.12,1.28,0.8,1.28;stroke-dashoffset:0;stroke-width:0.8;"/>
     </g>
     <g id="line2d_2">
      <defs>
       <path d="M 0 0 
L 0 3.5 
" id="m1c7e70d6e7" style="stroke:#000000;stroke-width:0.8;"/>
      </defs>
      <g>
       <use style="stroke:#000000;stroke-width:0.8;" x="61.612584" xlink:href="#m1c7e70d6e7" y="307.584"/>
      </g>
     </g>
     <g id="text_1">
      <!-- 1 -->
      <defs>
       <path d="M 12.40625 8.296875 
L 28.515625 8.296875 
L 28.515625 63.921875 
L 10.984375 60.40625 
L 10.984375 69.390625 
L 28.421875 72.90625 
L 38.28125 72.90625 
L 38.28125 8.296875 
L 54.390625 8.296875 
L 54.390625 0 
L 12.40625 0 
z
" id="DejaVuSans-49"/>
      </defs>
      <g transform="translate(58.431334 322.182437)scale(0.1 -0.1)">
       <use xlink:href="#DejaVuSans-49"/>
      </g>
     </g>
    </g>
    <g id="xtick_2">
     <g id="line2d_3">
      <path clip-path="url(#pccb68b2035)" d="M 73.650337 307.584 
L 73.650337 41.472 
" style="fill:none;stroke:#b0b0b0;stroke-dasharray:5.12,1.28,0.8,1.28;stroke-dashoffset:0;stroke-width:0.8;"/>
     </g>
     <g id="line2d_4">
      <g>
       <use style="stroke:#000000;stroke-width:0.8;" x="73.650337" xlink:href="#m1c7e70d6e7" y="307.584"/>
      </g>
     </g>
     <g id="text_2">
      <!-- 4 -->
      <defs>
       <path d="M 37.796875 64.3125 
L 12.890625 25.390625 
L 37.796875 25.390625 
z
M 35.203125 72.90625 
L 47.609375 72.90625 
L 47.609375 25.390625 
L 58.015625 25.390625 
L 58.015625 17.1875 
L 47.609375 17.1875 
L 47.609375 0 
L 37.796875 0 
L 37.796875 17.1875 
L 4.890625 17.1875 
L 4.890625 26.703125 
z
" id="DejaVuSans-52"/>
      </defs>
      <g transform="translate(70.469087 322.182437)scale(0.1 -0.1)">
       <use xlink:href="#DejaVuSans-52"/>
      </g>
     </g>
    </g>
    <g id="xtick_3">
     <g id="line2d_5">
      <path clip-path="url(#pccb68b2035)" d="M 89.700674 307.584 
L 89.700674 41.472 
" style="fill:none;stroke:#b0b0b0;stroke-dasharray:5.12,1.28,0.8,1.28;stroke-dashoffset:0;stroke-width:0.8;"/>
     </g>
     <g id="line2d_6">
      <g>
       <use style="stroke:#000000;stroke-width:0.8;" x="89.700674" xlink:href="#m1c7e70d6e7" y="307.584"/>
      </g>
     </g>
     <g id="text_3">
      <!-- 8 -->
      <defs>
       <path d="M 31.78125 34.625 
Q 24.75 34.625 20.71875 30.859375 
Q 16.703125 27.09375 16.703125 20.515625 
Q 16.703125 13.921875 20.71875 10.15625 
Q 24.75 6.390625 31.78125 6.390625 
Q 38.8125 6.390625 42.859375 10.171875 
Q 46.921875 13.96875 46.921875 20.515625 
Q 46.921875 27.09375 42.890625 30.859375 
Q 38.875 34.625 31.78125 34.625 
z
M 21.921875 38.8125 
Q 15.578125 40.375 12.03125 44.71875 
Q 8.5 49.078125 8.5 55.328125 
Q 8.5 64.0625 14.71875 69.140625 
Q 20.953125 74.21875 31.78125 74.21875 
Q 42.671875 74.21875 48.875 69.140625 
Q 55.078125 64.0625 55.078125 55.328125 
Q 55.078125 49.078125 51.53125 44.71875 
Q 48 40.375 41.703125 38.8125 
Q 48.828125 37.15625 52.796875 32.3125 
Q 56.78125 27.484375 56.78125 20.515625 
Q 56.78125 9.90625 50.3125 4.234375 
Q 43.84375 -1.421875 31.78125 -1.421875 
Q 19.734375 -1.421875 13.25 4.234375 
Q 6.78125 9.90625 6.78125 20.515625 
Q 6.78125 27.484375 10.78125 32.3125 
Q 14.796875 37.15625 21.921875 38.8125 
z
M 18.3125 54.390625 
Q 18.3125 48.734375 21.84375 45.5625 
Q 25.390625 42.390625 31.78125 42.390625 
Q 38.140625 42.390625 41.71875 45.5625 
Q 45.3125 48.734375 45.3125 54.390625 
Q 45.3125 60.0625 41.71875 63.234375 
Q 38.140625 66.40625 31.78125 66.40625 
Q 25.390625 66.40625 21.84375 63.234375 
Q 18.3125 60.0625 18.3125 54.390625 
z
" id="DejaVuSans-56"/>
      </defs>
      <g transform="translate(86.519424 322.182437)scale(0.1 -0.1)">
       <use xlink:href="#DejaVuSans-56"/>
      </g>
     </g>
    </g>
    <g id="xtick_4">
     <g id="line2d_7">
      <path clip-path="url(#pccb68b2035)" d="M 105.751011 307.584 
L 105.751011 41.472 
" style="fill:none;stroke:#b0b0b0;stroke-dasharray:5.12,1.28,0.8,1.28;stroke-dashoffset:0;stroke-width:0.8;"/>
     </g>
     <g id="line2d_8">
      <g>
       <use style="stroke:#000000;stroke-width:0.8;" x="105.751011" xlink:href="#m1c7e70d6e7" y="307.584"/>
      </g>
     </g>
     <g id="text_4">
      <!-- 12 -->
      <defs>
       <path d="M 19.1875 8.296875 
L 53.609375 8.296875 
L 53.609375 0 
L 7.328125 0 
L 7.328125 8.296875 
Q 12.9375 14.109375 22.625 23.890625 
Q 32.328125 33.6875 34.8125 36.53125 
Q 39.546875 41.84375 41.421875 45.53125 
Q 43.3125 49.21875 43.3125 52.78125 
Q 43.3125 58.59375 39.234375 62.25 
Q 35.15625 65.921875 28.609375 65.921875 
Q 23.96875 65.921875 18.8125 64.3125 
Q 13.671875 62.703125 7.8125 59.421875 
L 7.8125 69.390625 
Q 13.765625 71.78125 18.9375 73 
Q 24.125 74.21875 28.421875 74.21875 
Q 39.75 74.21875 46.484375 68.546875 
Q 53.21875 62.890625 53.21875 53.421875 
Q 53.21875 48.921875 51.53125 44.890625 
Q 49.859375 40.875 45.40625 35.40625 
Q 44.1875 33.984375 37.640625 27.21875 
Q 31.109375 20.453125 19.1875 8.296875 
z
" id="DejaVuSans-50"/>
      </defs>
      <g transform="translate(99.388511 322.182437)scale(0.1 -0.1)">
       <use xlink:href="#DejaVuSans-49"/>
       <use x="63.623047" xlink:href="#DejaVuSans-50"/>
      </g>
     </g>
    </g>
    <g id="xtick_5">
     <g id="line2d_9">
      <path clip-path="url(#pccb68b2035)" d="M 121.801348 307.584 
L 121.801348 41.472 
" style="fill:none;stroke:#b0b0b0;stroke-dasharray:5.12,1.28,0.8,1.28;stroke-dashoffset:0;stroke-width:0.8;"/>
     </g>
     <g id="line2d_10">
      <g>
       <use style="stroke:#000000;stroke-width:0.8;" x="121.801348" xlink:href="#m1c7e70d6e7" y="307.584"/>
      </g>
     </g>
     <g id="text_5">
      <!-- 16 -->
      <defs>
       <path d="M 33.015625 40.375 
Q 26.375 40.375 22.484375 35.828125 
Q 18.609375 31.296875 18.609375 23.390625 
Q 18.609375 15.53125 22.484375 10.953125 
Q 26.375 6.390625 33.015625 6.390625 
Q 39.65625 6.390625 43.53125 10.953125 
Q 47.40625 15.53125 47.40625 23.390625 
Q 47.40625 31.296875 43.53125 35.828125 
Q 39.65625 40.375 33.015625 40.375 
z
M 52.59375 71.296875 
L 52.59375 62.3125 
Q 48.875 64.0625 45.09375 64.984375 
Q 41.3125 65.921875 37.59375 65.921875 
Q 27.828125 65.921875 22.671875 59.328125 
Q 17.53125 52.734375 16.796875 39.40625 
Q 19.671875 43.65625 24.015625 45.921875 
Q 28.375 48.1875 33.59375 48.1875 
Q 44.578125 48.1875 50.953125 41.515625 
Q 57.328125 34.859375 57.328125 23.390625 
Q 57.328125 12.15625 50.6875 5.359375 
Q 44.046875 -1.421875 33.015625 -1.421875 
Q 20.359375 -1.421875 13.671875 8.265625 
Q 6.984375 17.96875 6.984375 36.375 
Q 6.984375 53.65625 15.1875 63.9375 
Q 23.390625 74.21875 37.203125 74.21875 
Q 40.921875 74.21875 44.703125 73.484375 
Q 48.484375 72.75 52.59375 71.296875 
z
" id="DejaVuSans-54"/>
      </defs>
      <g transform="translate(115.438848 322.182437)scale(0.1 -0.1)">
       <use xlink:href="#DejaVuSans-49"/>
       <use x="63.623047" xlink:href="#DejaVuSans-54"/>
      </g>
     </g>
    </g>
    <g id="xtick_6">
     <g id="line2d_11">
      <path clip-path="url(#pccb68b2035)" d="M 137.851685 307.584 
L 137.851685 41.472 
" style="fill:none;stroke:#b0b0b0;stroke-dasharray:5.12,1.28,0.8,1.28;stroke-dashoffset:0;stroke-width:0.8;"/>
     </g>
     <g id="line2d_12">
      <g>
       <use style="stroke:#000000;stroke-width:0.8;" x="137.851685" xlink:href="#m1c7e70d6e7" y="307.584"/>
      </g>
     </g>
     <g id="text_6">
      <!-- 20 -->
      <defs>
       <path d="M 31.78125 66.40625 
Q 24.171875 66.40625 20.328125 58.90625 
Q 16.5 51.421875 16.5 36.375 
Q 16.5 21.390625 20.328125 13.890625 
Q 24.171875 6.390625 31.78125 6.390625 
Q 39.453125 6.390625 43.28125 13.890625 
Q 47.125 21.390625 47.125 36.375 
Q 47.125 51.421875 43.28125 58.90625 
Q 39.453125 66.40625 31.78125 66.40625 
z
M 31.78125 74.21875 
Q 44.046875 74.21875 50.515625 64.515625 
Q 56.984375 54.828125 56.984375 36.375 
Q 56.984375 17.96875 50.515625 8.265625 
Q 44.046875 -1.421875 31.78125 -1.421875 
Q 19.53125 -1.421875 13.0625 8.265625 
Q 6.59375 17.96875 6.59375 36.375 
Q 6.59375 54.828125 13.0625 64.515625 
Q 19.53125 74.21875 31.78125 74.21875 
z
" id="DejaVuSans-48"/>
      </defs>
      <g transform="translate(131.489185 322.182437)scale(0.1 -0.1)">
       <use xlink:href="#DejaVuSans-50"/>
       <use x="63.623047" xlink:href="#DejaVuSans-48"/>
      </g>
     </g>
    </g>
    <g id="xtick_7">
     <g id="line2d_13">
      <path clip-path="url(#pccb68b2035)" d="M 153.902022 307.584 
L 153.902022 41.472 
" style="fill:none;stroke:#b0b0b0;stroke-dasharray:5.12,1.28,0.8,1.28;stroke-dashoffset:0;stroke-width:0.8;"/>
     </g>
     <g id="line2d_14">
      <g>
       <use style="stroke:#000000;stroke-width:0.8;" x="153.902022" xlink:href="#m1c7e70d6e7" y="307.584"/>
      </g>
     </g>
     <g id="text_7">
      <!-- 24 -->
      <g transform="translate(147.539522 322.182437)scale(0.1 -0.1)">
       <use xlink:href="#DejaVuSans-50"/>
       <use x="63.623047" xlink:href="#DejaVuSans-52"/>
      </g>
     </g>
    </g>
    <g id="xtick_8">
     <g id="line2d_15">
      <path clip-path="url(#pccb68b2035)" d="M 169.95236 307.584 
L 169.95236 41.472 
" style="fill:none;stroke:#b0b0b0;stroke-dasharray:5.12,1.28,0.8,1.28;stroke-dashoffset:0;stroke-width:0.8;"/>
     </g>
     <g id="line2d_16">
      <g>
       <use style="stroke:#000000;stroke-width:0.8;" x="169.95236" xlink:href="#m1c7e70d6e7" y="307.584"/>
      </g>
     </g>
     <g id="text_8">
      <!-- 28 -->
      <g transform="translate(163.58986 322.182437)scale(0.1 -0.1)">
       <use xlink:href="#DejaVuSans-50"/>
       <use x="63.623047" xlink:href="#DejaVuSans-56"/>
      </g>
     </g>
    </g>
    <g id="xtick_9">
     <g id="line2d_17">
      <path clip-path="url(#pccb68b2035)" d="M 186.002697 307.584 
L 186.002697 41.472 
" style="fill:none;stroke:#b0b0b0;stroke-dasharray:5.12,1.28,0.8,1.28;stroke-dashoffset:0;stroke-width:0.8;"/>
     </g>
     <g id="line2d_18">
      <g>
       <use style="stroke:#000000;stroke-width:0.8;" x="186.002697" xlink:href="#m1c7e70d6e7" y="307.584"/>
      </g>
     </g>
     <g id="text_9">
      <!-- 32 -->
      <defs>
       <path d="M 40.578125 39.3125 
Q 47.65625 37.796875 51.625 33 
Q 55.609375 28.21875 55.609375 21.1875 
Q 55.609375 10.40625 48.1875 4.484375 
Q 40.765625 -1.421875 27.09375 -1.421875 
Q 22.515625 -1.421875 17.65625 -0.515625 
Q 12.796875 0.390625 7.625 2.203125 
L 7.625 11.71875 
Q 11.71875 9.328125 16.59375 8.109375 
Q 21.484375 6.890625 26.8125 6.890625 
Q 36.078125 6.890625 40.9375 10.546875 
Q 45.796875 14.203125 45.796875 21.1875 
Q 45.796875 27.640625 41.28125 31.265625 
Q 36.765625 34.90625 28.71875 34.90625 
L 20.21875 34.90625 
L 20.21875 43.015625 
L 29.109375 43.015625 
Q 36.375 43.015625 40.234375 45.921875 
Q 44.09375 48.828125 44.09375 54.296875 
Q 44.09375 59.90625 40.109375 62.90625 
Q 36.140625 65.921875 28.71875 65.921875 
Q 24.65625 65.921875 20.015625 65.03125 
Q 15.375 64.15625 9.8125 62.3125 
L 9.8125 71.09375 
Q 15.4375 72.65625 20.34375 73.4375 
Q 25.25 74.21875 29.59375 74.21875 
Q 40.828125 74.21875 47.359375 69.109375 
Q 53.90625 64.015625 53.90625 55.328125 
Q 53.90625 49.265625 50.4375 45.09375 
Q 46.96875 40.921875 40.578125 39.3125 
z
" id="DejaVuSans-51"/>
      </defs>
      <g transform="translate(179.640197 322.182437)scale(0.1 -0.1)">
       <use xlink:href="#DejaVuSans-51"/>
       <use x="63.623047" xlink:href="#DejaVuSans-50"/>
      </g>
     </g>
    </g>
    <g id="xtick_10">
     <g id="line2d_19">
      <path clip-path="url(#pccb68b2035)" d="M 202.053034 307.584 
L 202.053034 41.472 
" style="fill:none;stroke:#b0b0b0;stroke-dasharray:5.12,1.28,0.8,1.28;stroke-dashoffset:0;stroke-width:0.8;"/>
     </g>
     <g id="line2d_20">
      <g>
       <use style="stroke:#000000;stroke-width:0.8;" x="202.053034" xlink:href="#m1c7e70d6e7" y="307.584"/>
      </g>
     </g>
     <g id="text_10">
      <!-- 36 -->
      <g transform="translate(195.690534 322.182437)scale(0.1 -0.1)">
       <use xlink:href="#DejaVuSans-51"/>
       <use x="63.623047" xlink:href="#DejaVuSans-54"/>
      </g>
     </g>
    </g>
    <g id="xtick_11">
     <g id="line2d_21">
      <path clip-path="url(#pccb68b2035)" d="M 218.103371 307.584 
L 218.103371 41.472 
" style="fill:none;stroke:#b0b0b0;stroke-dasharray:5.12,1.28,0.8,1.28;stroke-dashoffset:0;stroke-width:0.8;"/>
     </g>
     <g id="line2d_22">
      <g>
       <use style="stroke:#000000;stroke-width:0.8;" x="218.103371" xlink:href="#m1c7e70d6e7" y="307.584"/>
      </g>
     </g>
     <g id="text_11">
      <!-- 40 -->
      <g transform="translate(211.740871 322.182437)scale(0.1 -0.1)">
       <use xlink:href="#DejaVuSans-52"/>
       <use x="63.623047" xlink:href="#DejaVuSans-48"/>
      </g>
     </g>
    </g>
    <g id="xtick_12">
     <g id="line2d_23">
      <path clip-path="url(#pccb68b2035)" d="M 234.153708 307.584 
L 234.153708 41.472 
" style="fill:none;stroke:#b0b0b0;stroke-dasharray:5.12,1.28,0.8,1.28;stroke-dashoffset:0;stroke-width:0.8;"/>
     </g>
     <g id="line2d_24">
      <g>
       <use style="stroke:#000000;stroke-width:0.8;" x="234.153708" xlink:href="#m1c7e70d6e7" y="307.584"/>
      </g>
     </g>
     <g id="text_12">
      <!-- 44 -->
      <g transform="translate(227.791208 322.182437)scale(0.1 -0.1)">
       <use xlink:href="#DejaVuSans-52"/>
       <use x="63.623047" xlink:href="#DejaVuSans-52"/>
      </g>
     </g>
    </g>
    <g id="xtick_13">
     <g id="line2d_25">
      <path clip-path="url(#pccb68b2035)" d="M 250.204045 307.584 
L 250.204045 41.472 
" style="fill:none;stroke:#b0b0b0;stroke-dasharray:5.12,1.28,0.8,1.28;stroke-dashoffset:0;stroke-width:0.8;"/>
     </g>
     <g id="line2d_26">
      <g>
       <use style="stroke:#000000;stroke-width:0.8;" x="250.204045" xlink:href="#m1c7e70d6e7" y="307.584"/>
      </g>
     </g>
     <g id="text_13">
      <!-- 48 -->
      <g transform="translate(243.841545 322.182437)scale(0.1 -0.1)">
       <use xlink:href="#DejaVuSans-52"/>
       <use x="63.623047" xlink:href="#DejaVuSans-56"/>
      </g>
     </g>
    </g>
    <g id="xtick_14">
     <g id="line2d_27">
      <path clip-path="url(#pccb68b2035)" d="M 266.254382 307.584 
L 266.254382 41.472 
" style="fill:none;stroke:#b0b0b0;stroke-dasharray:5.12,1.28,0.8,1.28;stroke-dashoffset:0;stroke-width:0.8;"/>
     </g>
     <g id="line2d_28">
      <g>
       <use style="stroke:#000000;stroke-width:0.8;" x="266.254382" xlink:href="#m1c7e70d6e7" y="307.584"/>
      </g>
     </g>
     <g id="text_14">
      <!-- 52 -->
      <defs>
       <path d="M 10.796875 72.90625 
L 49.515625 72.90625 
L 49.515625 64.59375 
L 19.828125 64.59375 
L 19.828125 46.734375 
Q 21.96875 47.46875 24.109375 47.828125 
Q 26.265625 48.1875 28.421875 48.1875 
Q 40.625 48.1875 47.75 41.5 
Q 54.890625 34.8125 54.890625 23.390625 
Q 54.890625 11.625 47.5625 5.09375 
Q 40.234375 -1.421875 26.90625 -1.421875 
Q 22.3125 -1.421875 17.546875 -0.640625 
Q 12.796875 0.140625 7.71875 1.703125 
L 7.71875 11.625 
Q 12.109375 9.234375 16.796875 8.0625 
Q 21.484375 6.890625 26.703125 6.890625 
Q 35.15625 6.890625 40.078125 11.328125 
Q 45.015625 15.765625 45.015625 23.390625 
Q 45.015625 31 40.078125 35.4375 
Q 35.15625 39.890625 26.703125 39.890625 
Q 22.75 39.890625 18.8125 39.015625 
Q 14.890625 38.140625 10.796875 36.28125 
z
" id="DejaVuSans-53"/>
      </defs>
      <g transform="translate(259.891882 322.182437)scale(0.1 -0.1)">
       <use xlink:href="#DejaVuSans-53"/>
       <use x="63.623047" xlink:href="#DejaVuSans-50"/>
      </g>
     </g>
    </g>
    <g id="xtick_15">
     <g id="line2d_29">
      <path clip-path="url(#pccb68b2035)" d="M 282.304719 307.584 
L 282.304719 41.472 
" style="fill:none;stroke:#b0b0b0;stroke-dasharray:5.12,1.28,0.8,1.28;stroke-dashoffset:0;stroke-width:0.8;"/>
     </g>
     <g id="line2d_30">
      <g>
       <use style="stroke:#000000;stroke-width:0.8;" x="282.304719" xlink:href="#m1c7e70d6e7" y="307.584"/>
      </g>
     </g>
     <g id="text_15">
      <!-- 56 -->
      <g transform="translate(275.942219 322.182437)scale(0.1 -0.1)">
       <use xlink:href="#DejaVuSans-53"/>
       <use x="63.623047" xlink:href="#DejaVuSans-54"/>
      </g>
     </g>
    </g>
    <g id="xtick_16">
     <g id="line2d_31">
      <path clip-path="url(#pccb68b2035)" d="M 298.355056 307.584 
L 298.355056 41.472 
" style="fill:none;stroke:#b0b0b0;stroke-dasharray:5.12,1.28,0.8,1.28;stroke-dashoffset:0;stroke-width:0.8;"/>
     </g>
     <g id="line2d_32">
      <g>
       <use style="stroke:#000000;stroke-width:0.8;" x="298.355056" xlink:href="#m1c7e70d6e7" y="307.584"/>
      </g>
     </g>
     <g id="text_16">
      <!-- 60 -->
      <g transform="translate(291.992556 322.182437)scale(0.1 -0.1)">
       <use xlink:href="#DejaVuSans-54"/>
       <use x="63.623047" xlink:href="#DejaVuSans-48"/>
      </g>
     </g>
    </g>
    <g id="xtick_17">
     <g id="line2d_33">
      <path clip-path="url(#pccb68b2035)" d="M 314.405393 307.584 
L 314.405393 41.472 
" style="fill:none;stroke:#b0b0b0;stroke-dasharray:5.12,1.28,0.8,1.28;stroke-dashoffset:0;stroke-width:0.8;"/>
     </g>
     <g id="line2d_34">
      <g>
       <use style="stroke:#000000;stroke-width:0.8;" x="314.405393" xlink:href="#m1c7e70d6e7" y="307.584"/>
      </g>
     </g>
     <g id="text_17">
      <!-- 64 -->
      <g transform="translate(308.042893 322.182437)scale(0.1 -0.1)">
       <use xlink:href="#DejaVuSans-54"/>
       <use x="63.623047" xlink:href="#DejaVuSans-52"/>
      </g>
     </g>
    </g>
    <g id="xtick_18">
     <g id="line2d_35">
      <path clip-path="url(#pccb68b2035)" d="M 330.45573 307.584 
L 330.45573 41.472 
" style="fill:none;stroke:#b0b0b0;stroke-dasharray:5.12,1.28,0.8,1.28;stroke-dashoffset:0;stroke-width:0.8;"/>
     </g>
     <g id="line2d_36">
      <g>
       <use style="stroke:#000000;stroke-width:0.8;" x="330.45573" xlink:href="#m1c7e70d6e7" y="307.584"/>
      </g>
     </g>
     <g id="text_18">
      <!-- 68 -->
      <g transform="translate(324.09323 322.182437)scale(0.1 -0.1)">
       <use xlink:href="#DejaVuSans-54"/>
       <use x="63.623047" xlink:href="#DejaVuSans-56"/>
      </g>
     </g>
    </g>
    <g id="xtick_19">
     <g id="line2d_37">
      <path clip-path="url(#pccb68b2035)" d="M 346.506067 307.584 
L 346.506067 41.472 
" style="fill:none;stroke:#b0b0b0;stroke-dasharray:5.12,1.28,0.8,1.28;stroke-dashoffset:0;stroke-width:0.8;"/>
     </g>
     <g id="line2d_38">
      <g>
       <use style="stroke:#000000;stroke-width:0.8;" x="346.506067" xlink:href="#m1c7e70d6e7" y="307.584"/>
      </g>
     </g>
     <g id="text_19">
      <!-- 72 -->
      <defs>
       <path d="M 8.203125 72.90625 
L 55.078125 72.90625 
L 55.078125 68.703125 
L 28.609375 0 
L 18.3125 0 
L 43.21875 64.59375 
L 8.203125 64.59375 
z
" id="DejaVuSans-55"/>
      </defs>
      <g transform="translate(340.143567 322.182437)scale(0.1 -0.1)">
       <use xlink:href="#DejaVuSans-55"/>
       <use x="63.623047" xlink:href="#DejaVuSans-50"/>
      </g>
     </g>
    </g>
    <g id="xtick_20">
     <g id="line2d_39">
      <path clip-path="url(#pccb68b2035)" d="M 362.556404 307.584 
L 362.556404 41.472 
" style="fill:none;stroke:#b0b0b0;stroke-dasharray:5.12,1.28,0.8,1.28;stroke-dashoffset:0;stroke-width:0.8;"/>
     </g>
     <g id="line2d_40">
      <g>
       <use style="stroke:#000000;stroke-width:0.8;" x="362.556404" xlink:href="#m1c7e70d6e7" y="307.584"/>
      </g>
     </g>
     <g id="text_20">
      <!-- 76 -->
      <g transform="translate(356.193904 322.182437)scale(0.1 -0.1)">
       <use xlink:href="#DejaVuSans-55"/>
       <use x="63.623047" xlink:href="#DejaVuSans-54"/>
      </g>
     </g>
    </g>
    <g id="xtick_21">
     <g id="line2d_41">
      <path clip-path="url(#pccb68b2035)" d="M 378.606742 307.584 
L 378.606742 41.472 
" style="fill:none;stroke:#b0b0b0;stroke-dasharray:5.12,1.28,0.8,1.28;stroke-dashoffset:0;stroke-width:0.8;"/>
     </g>
     <g id="line2d_42">
      <g>
       <use style="stroke:#000000;stroke-width:0.8;" x="378.606742" xlink:href="#m1c7e70d6e7" y="307.584"/>
      </g>
     </g>
     <g id="text_21">
      <!-- 80 -->
      <g transform="translate(372.244242 322.182437)scale(0.1 -0.1)">
       <use xlink:href="#DejaVuSans-56"/>
       <use x="63.623047" xlink:href="#DejaVuSans-48"/>
      </g>
     </g>
    </g>
    <g id="xtick_22">
     <g id="line2d_43">
      <path clip-path="url(#pccb68b2035)" d="M 394.657079 307.584 
L 394.657079 41.472 
" style="fill:none;stroke:#b0b0b0;stroke-dasharray:5.12,1.28,0.8,1.28;stroke-dashoffset:0;stroke-width:0.8;"/>
     </g>
     <g id="line2d_44">
      <g>
       <use style="stroke:#000000;stroke-width:0.8;" x="394.657079" xlink:href="#m1c7e70d6e7" y="307.584"/>
      </g>
     </g>
     <g id="text_22">
      <!-- 84 -->
      <g transform="translate(388.294579 322.182437)scale(0.1 -0.1)">
       <use xlink:href="#DejaVuSans-56"/>
       <use x="63.623047" xlink:href="#DejaVuSans-52"/>
      </g>
     </g>
    </g>
    <g id="xtick_23">
     <g id="line2d_45">
      <path clip-path="url(#pccb68b2035)" d="M 410.707416 307.584 
L 410.707416 41.472 
" style="fill:none;stroke:#b0b0b0;stroke-dasharray:5.12,1.28,0.8,1.28;stroke-dashoffset:0;stroke-width:0.8;"/>
     </g>
     <g id="line2d_46">
      <g>
       <use style="stroke:#000000;stroke-width:0.8;" x="410.707416" xlink:href="#m1c7e70d6e7" y="307.584"/>
      </g>
     </g>
     <g id="text_23">
      <!-- 88 -->
      <g transform="translate(404.344916 322.182437)scale(0.1 -0.1)">
       <use xlink:href="#DejaVuSans-56"/>
       <use x="63.623047" xlink:href="#DejaVuSans-56"/>
      </g>
     </g>
    </g>
    <g id="text_24">
     <!-- threads -->
     <defs>
      <path d="M 18.3125 70.21875 
L 18.3125 54.6875 
L 36.8125 54.6875 
L 36.8125 47.703125 
L 18.3125 47.703125 
L 18.3125 18.015625 
Q 18.3125 11.328125 20.140625 9.421875 
Q 21.96875 7.515625 27.59375 7.515625 
L 36.8125 7.515625 
L 36.8125 0 
L 27.59375 0 
Q 17.1875 0 13.234375 3.875 
Q 9.28125 7.765625 9.28125 18.015625 
L 9.28125 47.703125 
L 2.6875 47.703125 
L 2.6875 54.6875 
L 9.28125 54.6875 
L 9.28125 70.21875 
z
" id="DejaVuSans-116"/>
      <path d="M 54.890625 33.015625 
L 54.890625 0 
L 45.90625 0 
L 45.90625 32.71875 
Q 45.90625 40.484375 42.875 44.328125 
Q 39.84375 48.1875 33.796875 48.1875 
Q 26.515625 48.1875 22.3125 43.546875 
Q 18.109375 38.921875 18.109375 30.90625 
L 18.109375 0 
L 9.078125 0 
L 9.078125 75.984375 
L 18.109375 75.984375 
L 18.109375 46.1875 
Q 21.34375 51.125 25.703125 53.5625 
Q 30.078125 56 35.796875 56 
Q 45.21875 56 50.046875 50.171875 
Q 54.890625 44.34375 54.890625 33.015625 
z
" id="DejaVuSans-104"/>
      <path d="M 41.109375 46.296875 
Q 39.59375 47.171875 37.8125 47.578125 
Q 36.03125 48 33.890625 48 
Q 26.265625 48 22.1875 43.046875 
Q 18.109375 38.09375 18.109375 28.8125 
L 18.109375 0 
L 9.078125 0 
L 9.078125 54.6875 
L 18.109375 54.6875 
L 18.109375 46.1875 
Q 20.953125 51.171875 25.484375 53.578125 
Q 30.03125 56 36.53125 56 
Q 37.453125 56 38.578125 55.875 
Q 39.703125 55.765625 41.0625 55.515625 
z
" id="DejaVuSans-114"/>
      <path d="M 56.203125 29.59375 
L 56.203125 25.203125 
L 14.890625 25.203125 
Q 15.484375 15.921875 20.484375 11.0625 
Q 25.484375 6.203125 34.421875 6.203125 
Q 39.59375 6.203125 44.453125 7.46875 
Q 49.3125 8.734375 54.109375 11.28125 
L 54.109375 2.78125 
Q 49.265625 0.734375 44.1875 -0.34375 
Q 39.109375 -1.421875 33.890625 -1.421875 
Q 20.796875 -1.421875 13.15625 6.1875 
Q 5.515625 13.8125 5.515625 26.8125 
Q 5.515625 40.234375 12.765625 48.109375 
Q 20.015625 56 32.328125 56 
Q 43.359375 56 49.78125 48.890625 
Q 56.203125 41.796875 56.203125 29.59375 
z
M 47.21875 32.234375 
Q 47.125 39.59375 43.09375 43.984375 
Q 39.0625 48.390625 32.421875 48.390625 
Q 24.90625 48.390625 20.390625 44.140625 
Q 15.875 39.890625 15.1875 32.171875 
z
" id="DejaVuSans-101"/>
      <path d="M 34.28125 27.484375 
Q 23.390625 27.484375 19.1875 25 
Q 14.984375 22.515625 14.984375 16.5 
Q 14.984375 11.71875 18.140625 8.90625 
Q 21.296875 6.109375 26.703125 6.109375 
Q 34.1875 6.109375 38.703125 11.40625 
Q 43.21875 16.703125 43.21875 25.484375 
L 43.21875 27.484375 
z
M 52.203125 31.203125 
L 52.203125 0 
L 43.21875 0 
L 43.21875 8.296875 
Q 40.140625 3.328125 35.546875 0.953125 
Q 30.953125 -1.421875 24.3125 -1.421875 
Q 15.921875 -1.421875 10.953125 3.296875 
Q 6 8.015625 6 15.921875 
Q 6 25.140625 12.171875 29.828125 
Q 18.359375 34.515625 30.609375 34.515625 
L 43.21875 34.515625 
L 43.21875 35.40625 
Q 43.21875 41.609375 39.140625 45 
Q 35.0625 48.390625 27.6875 48.390625 
Q 23 48.390625 18.546875 47.265625 
Q 14.109375 46.140625 10.015625 43.890625 
L 10.015625 52.203125 
Q 14.9375 54.109375 19.578125 55.046875 
Q 24.21875 56 28.609375 56 
Q 40.484375 56 46.34375 49.84375 
Q 52.203125 43.703125 52.203125 31.203125 
z
" id="DejaVuSans-97"/>
      <path d="M 45.40625 46.390625 
L 45.40625 75.984375 
L 54.390625 75.984375 
L 54.390625 0 
L 45.40625 0 
L 45.40625 8.203125 
Q 42.578125 3.328125 38.25 0.953125 
Q 33.9375 -1.421875 27.875 -1.421875 
Q 17.96875 -1.421875 11.734375 6.484375 
Q 5.515625 14.40625 5.515625 27.296875 
Q 5.515625 40.1875 11.734375 48.09375 
Q 17.96875 56 27.875 56 
Q 33.9375 56 38.25 53.625 
Q 42.578125 51.265625 45.40625 46.390625 
z
M 14.796875 27.296875 
Q 14.796875 17.390625 18.875 11.75 
Q 22.953125 6.109375 30.078125 6.109375 
Q 37.203125 6.109375 41.296875 11.75 
Q 45.40625 17.390625 45.40625 27.296875 
Q 45.40625 37.203125 41.296875 42.84375 
Q 37.203125 48.484375 30.078125 48.484375 
Q 22.953125 48.484375 18.875 42.84375 
Q 14.796875 37.203125 14.796875 27.296875 
z
" id="DejaVuSans-100"/>
      <path d="M 44.28125 53.078125 
L 44.28125 44.578125 
Q 40.484375 46.53125 36.375 47.5 
Q 32.28125 48.484375 27.875 48.484375 
Q 21.1875 48.484375 17.84375 46.4375 
Q 14.5 44.390625 14.5 40.28125 
Q 14.5 37.15625 16.890625 35.375 
Q 19.28125 33.59375 26.515625 31.984375 
L 29.59375 31.296875 
Q 39.15625 29.25 43.1875 25.515625 
Q 47.21875 21.78125 47.21875 15.09375 
Q 47.21875 7.46875 41.1875 3.015625 
Q 35.15625 -1.421875 24.609375 -1.421875 
Q 20.21875 -1.421875 15.453125 -0.5625 
Q 10.6875 0.296875 5.421875 2 
L 5.421875 11.28125 
Q 10.40625 8.6875 15.234375 7.390625 
Q 20.0625 6.109375 24.8125 6.109375 
Q 31.15625 6.109375 34.5625 8.28125 
Q 37.984375 10.453125 37.984375 14.40625 
Q 37.984375 18.0625 35.515625 20.015625 
Q 33.0625 21.96875 24.703125 23.78125 
L 21.578125 24.515625 
Q 13.234375 26.265625 9.515625 29.90625 
Q 5.8125 33.546875 5.8125 39.890625 
Q 5.8125 47.609375 11.28125 51.796875 
Q 16.75 56 26.8125 56 
Q 31.78125 56 36.171875 55.265625 
Q 40.578125 54.546875 44.28125 53.078125 
z
" id="DejaVuSans-115"/>
     </defs>
     <g transform="translate(217.168594 335.860562)scale(0.1 -0.1)">
      <use xlink:href="#DejaVuSans-116"/>
      <use x="39.208984" xlink:href="#DejaVuSans-104"/>
      <use x="102.587891" xlink:href="#DejaVuSans-114"/>
      <use x="141.451172" xlink:href="#DejaVuSans-101"/>
      <use x="202.974609" xlink:href="#DejaVuSans-97"/>
      <use x="264.253906" xlink:href="#DejaVuSans-100"/>
      <use x="327.730469" xlink:href="#DejaVuSans-115"/>
     </g>
    </g>
   </g>
   <g id="matplotlib.axis_2">
    <g id="ytick_1">
     <g id="line2d_47">
      <path clip-path="url(#pccb68b2035)" d="M 57.6 283.013038 
L 414.72 283.013038 
" style="fill:none;stroke:#b0b0b0;stroke-dasharray:5.12,1.28,0.8,1.28;stroke-dashoffset:0;stroke-width:0.8;"/>
     </g>
     <g id="line2d_48">
      <defs>
       <path d="M 0 0 
L -3.5 0 
" id="mf8a05b0e3c" style="stroke:#000000;stroke-width:0.8;"/>
      </defs>
      <g>
       <use style="stroke:#000000;stroke-width:0.8;" x="57.6" xlink:href="#mf8a05b0e3c" y="283.013038"/>
      </g>
     </g>
     <g id="text_25">
      <!-- 1.0 -->
      <defs>
       <path d="M 10.6875 12.40625 
L 21 12.40625 
L 21 0 
L 10.6875 0 
z
" id="DejaVuSans-46"/>
      </defs>
      <g transform="translate(34.696875 286.812257)scale(0.1 -0.1)">
       <use xlink:href="#DejaVuSans-49"/>
       <use x="63.623047" xlink:href="#DejaVuSans-46"/>
       <use x="95.410156" xlink:href="#DejaVuSans-48"/>
      </g>
     </g>
    </g>
    <g id="ytick_2">
     <g id="line2d_49">
      <path clip-path="url(#pccb68b2035)" d="M 57.6 253.108583 
L 414.72 253.108583 
" style="fill:none;stroke:#b0b0b0;stroke-dasharray:5.12,1.28,0.8,1.28;stroke-dashoffset:0;stroke-width:0.8;"/>
     </g>
     <g id="line2d_50">
      <g>
       <use style="stroke:#000000;stroke-width:0.8;" x="57.6" xlink:href="#mf8a05b0e3c" y="253.108583"/>
      </g>
     </g>
     <g id="text_26">
      <!-- 1.5 -->
      <g transform="translate(34.696875 256.907801)scale(0.1 -0.1)">
       <use xlink:href="#DejaVuSans-49"/>
       <use x="63.623047" xlink:href="#DejaVuSans-46"/>
       <use x="95.410156" xlink:href="#DejaVuSans-53"/>
      </g>
     </g>
    </g>
    <g id="ytick_3">
     <g id="line2d_51">
      <path clip-path="url(#pccb68b2035)" d="M 57.6 223.204127 
L 414.72 223.204127 
" style="fill:none;stroke:#b0b0b0;stroke-dasharray:5.12,1.28,0.8,1.28;stroke-dashoffset:0;stroke-width:0.8;"/>
     </g>
     <g id="line2d_52">
      <g>
       <use style="stroke:#000000;stroke-width:0.8;" x="57.6" xlink:href="#mf8a05b0e3c" y="223.204127"/>
      </g>
     </g>
     <g id="text_27">
      <!-- 2.0 -->
      <g transform="translate(34.696875 227.003346)scale(0.1 -0.1)">
       <use xlink:href="#DejaVuSans-50"/>
       <use x="63.623047" xlink:href="#DejaVuSans-46"/>
       <use x="95.410156" xlink:href="#DejaVuSans-48"/>
      </g>
     </g>
    </g>
    <g id="ytick_4">
     <g id="line2d_53">
      <path clip-path="url(#pccb68b2035)" d="M 57.6 193.299671 
L 414.72 193.299671 
" style="fill:none;stroke:#b0b0b0;stroke-dasharray:5.12,1.28,0.8,1.28;stroke-dashoffset:0;stroke-width:0.8;"/>
     </g>
     <g id="line2d_54">
      <g>
       <use style="stroke:#000000;stroke-width:0.8;" x="57.6" xlink:href="#mf8a05b0e3c" y="193.299671"/>
      </g>
     </g>
     <g id="text_28">
      <!-- 2.5 -->
      <g transform="translate(34.696875 197.09889)scale(0.1 -0.1)">
       <use xlink:href="#DejaVuSans-50"/>
       <use x="63.623047" xlink:href="#DejaVuSans-46"/>
       <use x="95.410156" xlink:href="#DejaVuSans-53"/>
      </g>
     </g>
    </g>
    <g id="ytick_5">
     <g id="line2d_55">
      <path clip-path="url(#pccb68b2035)" d="M 57.6 163.395216 
L 414.72 163.395216 
" style="fill:none;stroke:#b0b0b0;stroke-dasharray:5.12,1.28,0.8,1.28;stroke-dashoffset:0;stroke-width:0.8;"/>
     </g>
     <g id="line2d_56">
      <g>
       <use style="stroke:#000000;stroke-width:0.8;" x="57.6" xlink:href="#mf8a05b0e3c" y="163.395216"/>
      </g>
     </g>
     <g id="text_29">
      <!-- 3.0 -->
      <g transform="translate(34.696875 167.194435)scale(0.1 -0.1)">
       <use xlink:href="#DejaVuSans-51"/>
       <use x="63.623047" xlink:href="#DejaVuSans-46"/>
       <use x="95.410156" xlink:href="#DejaVuSans-48"/>
      </g>
     </g>
    </g>
    <g id="ytick_6">
     <g id="line2d_57">
      <path clip-path="url(#pccb68b2035)" d="M 57.6 133.49076 
L 414.72 133.49076 
" style="fill:none;stroke:#b0b0b0;stroke-dasharray:5.12,1.28,0.8,1.28;stroke-dashoffset:0;stroke-width:0.8;"/>
     </g>
     <g id="line2d_58">
      <g>
       <use style="stroke:#000000;stroke-width:0.8;" x="57.6" xlink:href="#mf8a05b0e3c" y="133.49076"/>
      </g>
     </g>
     <g id="text_30">
      <!-- 3.5 -->
      <g transform="translate(34.696875 137.289979)scale(0.1 -0.1)">
       <use xlink:href="#DejaVuSans-51"/>
       <use x="63.623047" xlink:href="#DejaVuSans-46"/>
       <use x="95.410156" xlink:href="#DejaVuSans-53"/>
      </g>
     </g>
    </g>
    <g id="ytick_7">
     <g id="line2d_59">
      <path clip-path="url(#pccb68b2035)" d="M 57.6 103.586305 
L 414.72 103.586305 
" style="fill:none;stroke:#b0b0b0;stroke-dasharray:5.12,1.28,0.8,1.28;stroke-dashoffset:0;stroke-width:0.8;"/>
     </g>
     <g id="line2d_60">
      <g>
       <use style="stroke:#000000;stroke-width:0.8;" x="57.6" xlink:href="#mf8a05b0e3c" y="103.586305"/>
      </g>
     </g>
     <g id="text_31">
      <!-- 4.0 -->
      <g transform="translate(34.696875 107.385523)scale(0.1 -0.1)">
       <use xlink:href="#DejaVuSans-52"/>
       <use x="63.623047" xlink:href="#DejaVuSans-46"/>
       <use x="95.410156" xlink:href="#DejaVuSans-48"/>
      </g>
     </g>
    </g>
    <g id="ytick_8">
     <g id="line2d_61">
      <path clip-path="url(#pccb68b2035)" d="M 57.6 73.681849 
L 414.72 73.681849 
" style="fill:none;stroke:#b0b0b0;stroke-dasharray:5.12,1.28,0.8,1.28;stroke-dashoffset:0;stroke-width:0.8;"/>
     </g>
     <g id="line2d_62">
      <g>
       <use style="stroke:#000000;stroke-width:0.8;" x="57.6" xlink:href="#mf8a05b0e3c" y="73.681849"/>
      </g>
     </g>
     <g id="text_32">
      <!-- 4.5 -->
      <g transform="translate(34.696875 77.481068)scale(0.1 -0.1)">
       <use xlink:href="#DejaVuSans-52"/>
       <use x="63.623047" xlink:href="#DejaVuSans-46"/>
       <use x="95.410156" xlink:href="#DejaVuSans-53"/>
      </g>
     </g>
    </g>
    <g id="ytick_9">
     <g id="line2d_63">
      <path clip-path="url(#pccb68b2035)" d="M 57.6 43.777394 
L 414.72 43.777394 
" style="fill:none;stroke:#b0b0b0;stroke-dasharray:5.12,1.28,0.8,1.28;stroke-dashoffset:0;stroke-width:0.8;"/>
     </g>
     <g id="line2d_64">
      <g>
       <use style="stroke:#000000;stroke-width:0.8;" x="57.6" xlink:href="#mf8a05b0e3c" y="43.777394"/>
      </g>
     </g>
     <g id="text_33">
      <!-- 5.0 -->
      <g transform="translate(34.696875 47.576612)scale(0.1 -0.1)">
       <use xlink:href="#DejaVuSans-53"/>
       <use x="63.623047" xlink:href="#DejaVuSans-46"/>
       <use x="95.410156" xlink:href="#DejaVuSans-48"/>
      </g>
     </g>
    </g>
    <g id="text_34">
     <!-- speed up -->
     <defs>
      <path d="M 18.109375 8.203125 
L 18.109375 -20.796875 
L 9.078125 -20.796875 
L 9.078125 54.6875 
L 18.109375 54.6875 
L 18.109375 46.390625 
Q 20.953125 51.265625 25.265625 53.625 
Q 29.59375 56 35.59375 56 
Q 45.5625 56 51.78125 48.09375 
Q 58.015625 40.1875 58.015625 27.296875 
Q 58.015625 14.40625 51.78125 6.484375 
Q 45.5625 -1.421875 35.59375 -1.421875 
Q 29.59375 -1.421875 25.265625 0.953125 
Q 20.953125 3.328125 18.109375 8.203125 
z
M 48.6875 27.296875 
Q 48.6875 37.203125 44.609375 42.84375 
Q 40.53125 48.484375 33.40625 48.484375 
Q 26.265625 48.484375 22.1875 42.84375 
Q 18.109375 37.203125 18.109375 27.296875 
Q 18.109375 17.390625 22.1875 11.75 
Q 26.265625 6.109375 33.40625 6.109375 
Q 40.53125 6.109375 44.609375 11.75 
Q 48.6875 17.390625 48.6875 27.296875 
z
" id="DejaVuSans-112"/>
      <path id="DejaVuSans-32"/>
      <path d="M 8.5 21.578125 
L 8.5 54.6875 
L 17.484375 54.6875 
L 17.484375 21.921875 
Q 17.484375 14.15625 20.5 10.265625 
Q 23.53125 6.390625 29.59375 6.390625 
Q 36.859375 6.390625 41.078125 11.03125 
Q 45.3125 15.671875 45.3125 23.6875 
L 45.3125 54.6875 
L 54.296875 54.6875 
L 54.296875 0 
L 45.3125 0 
L 45.3125 8.40625 
Q 42.046875 3.421875 37.71875 1 
Q 33.40625 -1.421875 27.6875 -1.421875 
Q 18.265625 -1.421875 13.375 4.4375 
Q 8.5 10.296875 8.5 21.578125 
z
M 31.109375 56 
z
" id="DejaVuSans-117"/>
     </defs>
     <g transform="translate(28.617187 197.566281)rotate(-90)scale(0.1 -0.1)">
      <use xlink:href="#DejaVuSans-115"/>
      <use x="52.099609" xlink:href="#DejaVuSans-112"/>
      <use x="115.576172" xlink:href="#DejaVuSans-101"/>
      <use x="177.099609" xlink:href="#DejaVuSans-101"/>
      <use x="238.623047" xlink:href="#DejaVuSans-100"/>
      <use x="302.099609" xlink:href="#DejaVuSans-32"/>
      <use x="333.886719" xlink:href="#DejaVuSans-117"/>
      <use x="397.265625" xlink:href="#DejaVuSans-112"/>
     </g>
    </g>
   </g>
   <g id="line2d_65">
    <path clip-path="url(#pccb68b2035)" d="M 61.612584 291.636864 
L 65.625169 261.245858 
L 69.637753 240.200701 
L 73.650337 212.053934 
L 77.662921 243.597829 
L 81.675506 181.674597 
L 85.68809 214.020146 
L 89.700674 147.307775 
L 93.713258 138.691981 
L 97.725843 191.894447 
L 101.738427 171.712919 
L 105.751011 114.016085 
L 109.763596 141.554645 
L 113.77618 142.984221 
L 117.788764 123.852249 
L 121.801348 122.104015 
L 125.813933 111.063077 
L 129.826517 72.591197 
L 133.839101 107.777211 
L 137.851685 112.753749 
L 141.86427 97.505229 
L 145.876854 100.120068 
L 149.889438 93.547842 
L 153.902022 62.02851 
L 157.914607 74.842626 
L 161.927191 79.055249 
L 165.939775 77.105489 
L 169.95236 68.773107 
L 173.964944 63.429369 
L 177.977528 66.691222 
L 181.990112 64.920653 
L 186.002697 61.769999 
L 190.015281 66.658334 
L 194.027865 69.05342 
L 198.040449 70.360013 
L 202.053034 53.568 
L 206.065618 67.414867 
L 210.078202 67.491922 
L 214.090787 79.308446 
L 218.103371 75.445394 
L 222.115955 66.181841 
L 226.128539 73.08438 
L 230.141124 70.779781 
L 234.153708 68.463017 
L 238.166292 80.635835 
L 242.178876 87.968096 
L 246.191461 91.276208 
L 250.204045 89.292262 
L 254.216629 72.396325 
L 258.229213 73.109329 
L 262.241798 76.402657 
L 266.254382 71.317901 
L 270.266966 71.944867 
L 274.279551 74.080054 
L 278.292135 77.718863 
L 282.304719 70.605296 
L 286.317303 62.086698 
L 290.329888 60.5162 
L 294.342472 62.808749 
L 298.355056 55.563369 
L 302.36764 58.866753 
L 306.380225 59.909775 
L 310.392809 59.977644 
L 314.405393 53.676605 
L 318.417978 62.373191 
L 322.430562 61.379881 
L 326.443146 66.793961 
L 330.45573 65.952044 
L 334.468315 71.226616 
L 338.480899 71.153261 
L 342.493483 75.980357 
L 346.506067 61.949704 
L 350.518652 60.680375 
L 354.531236 74.01644 
L 358.54382 75.753466 
L 362.556404 72.229769 
L 366.568989 75.467073 
L 370.581573 78.257876 
L 374.594157 82.924231 
L 378.606742 82.874142 
L 382.619326 72.252949 
L 386.63191 73.040478 
L 390.644494 76.123376 
L 394.657079 77.938355 
L 398.669663 81.508201 
L 402.682247 80.600878 
L 406.694831 76.540544 
L 410.707416 75.489934 
" style="fill:none;stroke:#0000ff;stroke-dasharray:1.5,2.475;stroke-dashoffset:0;stroke-width:1.5;"/>
    <defs>
     <path d="M 0 1.5 
C 0.397805 1.5 0.77937 1.341951 1.06066 1.06066 
C 1.341951 0.77937 1.5 0.397805 1.5 0 
C 1.5 -0.397805 1.341951 -0.77937 1.06066 -1.06066 
C 0.77937 -1.341951 0.397805 -1.5 0 -1.5 
C -0.397805 -1.5 -0.77937 -1.341951 -1.06066 -1.06066 
C -1.341951 -0.77937 -1.5 -0.397805 -1.5 0 
C -1.5 0.397805 -1.341951 0.77937 -1.06066 1.06066 
C -0.77937 1.341951 -0.397805 1.5 0 1.5 
z
" id="m0f9dabd66c" style="stroke:#0000ff;"/>
    </defs>
    <g clip-path="url(#pccb68b2035)">
     <use style="fill:#0000ff;stroke:#0000ff;" x="61.612584" xlink:href="#m0f9dabd66c" y="291.636864"/>
     <use style="fill:#0000ff;stroke:#0000ff;" x="65.625169" xlink:href="#m0f9dabd66c" y="261.245858"/>
     <use style="fill:#0000ff;stroke:#0000ff;" x="69.637753" xlink:href="#m0f9dabd66c" y="240.200701"/>
     <use style="fill:#0000ff;stroke:#0000ff;" x="73.650337" xlink:href="#m0f9dabd66c" y="212.053934"/>
     <use style="fill:#0000ff;stroke:#0000ff;" x="77.662921" xlink:href="#m0f9dabd66c" y="243.597829"/>
     <use style="fill:#0000ff;stroke:#0000ff;" x="81.675506" xlink:href="#m0f9dabd66c" y="181.674597"/>
     <use style="fill:#0000ff;stroke:#0000ff;" x="85.68809" xlink:href="#m0f9dabd66c" y="214.020146"/>
     <use style="fill:#0000ff;stroke:#0000ff;" x="89.700674" xlink:href="#m0f9dabd66c" y="147.307775"/>
     <use style="fill:#0000ff;stroke:#0000ff;" x="93.713258" xlink:href="#m0f9dabd66c" y="138.691981"/>
     <use style="fill:#0000ff;stroke:#0000ff;" x="97.725843" xlink:href="#m0f9dabd66c" y="191.894447"/>
     <use style="fill:#0000ff;stroke:#0000ff;" x="101.738427" xlink:href="#m0f9dabd66c" y="171.712919"/>
     <use style="fill:#0000ff;stroke:#0000ff;" x="105.751011" xlink:href="#m0f9dabd66c" y="114.016085"/>
     <use style="fill:#0000ff;stroke:#0000ff;" x="109.763596" xlink:href="#m0f9dabd66c" y="141.554645"/>
     <use style="fill:#0000ff;stroke:#0000ff;" x="113.77618" xlink:href="#m0f9dabd66c" y="142.984221"/>
     <use style="fill:#0000ff;stroke:#0000ff;" x="117.788764" xlink:href="#m0f9dabd66c" y="123.852249"/>
     <use style="fill:#0000ff;stroke:#0000ff;" x="121.801348" xlink:href="#m0f9dabd66c" y="122.104015"/>
     <use style="fill:#0000ff;stroke:#0000ff;" x="125.813933" xlink:href="#m0f9dabd66c" y="111.063077"/>
     <use style="fill:#0000ff;stroke:#0000ff;" x="129.826517" xlink:href="#m0f9dabd66c" y="72.591197"/>
     <use style="fill:#0000ff;stroke:#0000ff;" x="133.839101" xlink:href="#m0f9dabd66c" y="107.777211"/>
     <use style="fill:#0000ff;stroke:#0000ff;" x="137.851685" xlink:href="#m0f9dabd66c" y="112.753749"/>
     <use style="fill:#0000ff;stroke:#0000ff;" x="141.86427" xlink:href="#m0f9dabd66c" y="97.505229"/>
     <use style="fill:#0000ff;stroke:#0000ff;" x="145.876854" xlink:href="#m0f9dabd66c" y="100.120068"/>
     <use style="fill:#0000ff;stroke:#0000ff;" x="149.889438" xlink:href="#m0f9dabd66c" y="93.547842"/>
     <use style="fill:#0000ff;stroke:#0000ff;" x="153.902022" xlink:href="#m0f9dabd66c" y="62.02851"/>
     <use style="fill:#0000ff;stroke:#0000ff;" x="157.914607" xlink:href="#m0f9dabd66c" y="74.842626"/>
     <use style="fill:#0000ff;stroke:#0000ff;" x="161.927191" xlink:href="#m0f9dabd66c" y="79.055249"/>
     <use style="fill:#0000ff;stroke:#0000ff;" x="165.939775" xlink:href="#m0f9dabd66c" y="77.105489"/>
     <use style="fill:#0000ff;stroke:#0000ff;" x="169.95236" xlink:href="#m0f9dabd66c" y="68.773107"/>
     <use style="fill:#0000ff;stroke:#0000ff;" x="173.964944" xlink:href="#m0f9dabd66c" y="63.429369"/>
     <use style="fill:#0000ff;stroke:#0000ff;" x="177.977528" xlink:href="#m0f9dabd66c" y="66.691222"/>
     <use style="fill:#0000ff;stroke:#0000ff;" x="181.990112" xlink:href="#m0f9dabd66c" y="64.920653"/>
     <use style="fill:#0000ff;stroke:#0000ff;" x="186.002697" xlink:href="#m0f9dabd66c" y="61.769999"/>
     <use style="fill:#0000ff;stroke:#0000ff;" x="190.015281" xlink:href="#m0f9dabd66c" y="66.658334"/>
     <use style="fill:#0000ff;stroke:#0000ff;" x="194.027865" xlink:href="#m0f9dabd66c" y="69.05342"/>
     <use style="fill:#0000ff;stroke:#0000ff;" x="198.040449" xlink:href="#m0f9dabd66c" y="70.360013"/>
     <use style="fill:#0000ff;stroke:#0000ff;" x="202.053034" xlink:href="#m0f9dabd66c" y="53.568"/>
     <use style="fill:#0000ff;stroke:#0000ff;" x="206.065618" xlink:href="#m0f9dabd66c" y="67.414867"/>
     <use style="fill:#0000ff;stroke:#0000ff;" x="210.078202" xlink:href="#m0f9dabd66c" y="67.491922"/>
     <use style="fill:#0000ff;stroke:#0000ff;" x="214.090787" xlink:href="#m0f9dabd66c" y="79.308446"/>
     <use style="fill:#0000ff;stroke:#0000ff;" x="218.103371" xlink:href="#m0f9dabd66c" y="75.445394"/>
     <use style="fill:#0000ff;stroke:#0000ff;" x="222.115955" xlink:href="#m0f9dabd66c" y="66.181841"/>
     <use style="fill:#0000ff;stroke:#0000ff;" x="226.128539" xlink:href="#m0f9dabd66c" y="73.08438"/>
     <use style="fill:#0000ff;stroke:#0000ff;" x="230.141124" xlink:href="#m0f9dabd66c" y="70.779781"/>
     <use style="fill:#0000ff;stroke:#0000ff;" x="234.153708" xlink:href="#m0f9dabd66c" y="68.463017"/>
     <use style="fill:#0000ff;stroke:#0000ff;" x="238.166292" xlink:href="#m0f9dabd66c" y="80.635835"/>
     <use style="fill:#0000ff;stroke:#0000ff;" x="242.178876" xlink:href="#m0f9dabd66c" y="87.968096"/>
     <use style="fill:#0000ff;stroke:#0000ff;" x="246.191461" xlink:href="#m0f9dabd66c" y="91.276208"/>
     <use style="fill:#0000ff;stroke:#0000ff;" x="250.204045" xlink:href="#m0f9dabd66c" y="89.292262"/>
     <use style="fill:#0000ff;stroke:#0000ff;" x="254.216629" xlink:href="#m0f9dabd66c" y="72.396325"/>
     <use style="fill:#0000ff;stroke:#0000ff;" x="258.229213" xlink:href="#m0f9dabd66c" y="73.109329"/>
     <use style="fill:#0000ff;stroke:#0000ff;" x="262.241798" xlink:href="#m0f9dabd66c" y="76.402657"/>
     <use style="fill:#0000ff;stroke:#0000ff;" x="266.254382" xlink:href="#m0f9dabd66c" y="71.317901"/>
     <use style="fill:#0000ff;stroke:#0000ff;" x="270.266966" xlink:href="#m0f9dabd66c" y="71.944867"/>
     <use style="fill:#0000ff;stroke:#0000ff;" x="274.279551" xlink:href="#m0f9dabd66c" y="74.080054"/>
     <use style="fill:#0000ff;stroke:#0000ff;" x="278.292135" xlink:href="#m0f9dabd66c" y="77.718863"/>
     <use style="fill:#0000ff;stroke:#0000ff;" x="282.304719" xlink:href="#m0f9dabd66c" y="70.605296"/>
     <use style="fill:#0000ff;stroke:#0000ff;" x="286.317303" xlink:href="#m0f9dabd66c" y="62.086698"/>
     <use style="fill:#0000ff;stroke:#0000ff;" x="290.329888" xlink:href="#m0f9dabd66c" y="60.5162"/>
     <use style="fill:#0000ff;stroke:#0000ff;" x="294.342472" xlink:href="#m0f9dabd66c" y="62.808749"/>
     <use style="fill:#0000ff;stroke:#0000ff;" x="298.355056" xlink:href="#m0f9dabd66c" y="55.563369"/>
     <use style="fill:#0000ff;stroke:#0000ff;" x="302.36764" xlink:href="#m0f9dabd66c" y="58.866753"/>
     <use style="fill:#0000ff;stroke:#0000ff;" x="306.380225" xlink:href="#m0f9dabd66c" y="59.909775"/>
     <use style="fill:#0000ff;stroke:#0000ff;" x="310.392809" xlink:href="#m0f9dabd66c" y="59.977644"/>
     <use style="fill:#0000ff;stroke:#0000ff;" x="314.405393" xlink:href="#m0f9dabd66c" y="53.676605"/>
     <use style="fill:#0000ff;stroke:#0000ff;" x="318.417978" xlink:href="#m0f9dabd66c" y="62.373191"/>
     <use style="fill:#0000ff;stroke:#0000ff;" x="322.430562" xlink:href="#m0f9dabd66c" y="61.379881"/>
     <use style="fill:#0000ff;stroke:#0000ff;" x="326.443146" xlink:href="#m0f9dabd66c" y="66.793961"/>
     <use style="fill:#0000ff;stroke:#0000ff;" x="330.45573" xlink:href="#m0f9dabd66c" y="65.952044"/>
     <use style="fill:#0000ff;stroke:#0000ff;" x="334.468315" xlink:href="#m0f9dabd66c" y="71.226616"/>
     <use style="fill:#0000ff;stroke:#0000ff;" x="338.480899" xlink:href="#m0f9dabd66c" y="71.153261"/>
     <use style="fill:#0000ff;stroke:#0000ff;" x="342.493483" xlink:href="#m0f9dabd66c" y="75.980357"/>
     <use style="fill:#0000ff;stroke:#0000ff;" x="346.506067" xlink:href="#m0f9dabd66c" y="61.949704"/>
     <use style="fill:#0000ff;stroke:#0000ff;" x="350.518652" xlink:href="#m0f9dabd66c" y="60.680375"/>
     <use style="fill:#0000ff;stroke:#0000ff;" x="354.531236" xlink:href="#m0f9dabd66c" y="74.01644"/>
     <use style="fill:#0000ff;stroke:#0000ff;" x="358.54382" xlink:href="#m0f9dabd66c" y="75.753466"/>
     <use style="fill:#0000ff;stroke:#0000ff;" x="362.556404" xlink:href="#m0f9dabd66c" y="72.229769"/>
     <use style="fill:#0000ff;stroke:#0000ff;" x="366.568989" xlink:href="#m0f9dabd66c" y="75.467073"/>
     <use style="fill:#0000ff;stroke:#0000ff;" x="370.581573" xlink:href="#m0f9dabd66c" y="78.257876"/>
     <use style="fill:#0000ff;stroke:#0000ff;" x="374.594157" xlink:href="#m0f9dabd66c" y="82.924231"/>
     <use style="fill:#0000ff;stroke:#0000ff;" x="378.606742" xlink:href="#m0f9dabd66c" y="82.874142"/>
     <use style="fill:#0000ff;stroke:#0000ff;" x="382.619326" xlink:href="#m0f9dabd66c" y="72.252949"/>
     <use style="fill:#0000ff;stroke:#0000ff;" x="386.63191" xlink:href="#m0f9dabd66c" y="73.040478"/>
     <use style="fill:#0000ff;stroke:#0000ff;" x="390.644494" xlink:href="#m0f9dabd66c" y="76.123376"/>
     <use style="fill:#0000ff;stroke:#0000ff;" x="394.657079" xlink:href="#m0f9dabd66c" y="77.938355"/>
     <use style="fill:#0000ff;stroke:#0000ff;" x="398.669663" xlink:href="#m0f9dabd66c" y="81.508201"/>
     <use style="fill:#0000ff;stroke:#0000ff;" x="402.682247" xlink:href="#m0f9dabd66c" y="80.600878"/>
     <use style="fill:#0000ff;stroke:#0000ff;" x="406.694831" xlink:href="#m0f9dabd66c" y="76.540544"/>
     <use style="fill:#0000ff;stroke:#0000ff;" x="410.707416" xlink:href="#m0f9dabd66c" y="75.489934"/>
    </g>
   </g>
   <g id="line2d_66">
    <path clip-path="url(#pccb68b2035)" d="M 61.612584 295.488 
L 65.625169 268.025557 
L 69.637753 256.24815 
L 73.650337 238.125298 
L 77.662921 265.757539 
L 81.675506 221.121933 
L 85.68809 248.250237 
L 89.700674 204.92646 
L 93.713258 209.925783 
L 97.725843 237.798619 
L 101.738427 225.090847 
L 105.751011 187.283782 
L 109.763596 216.397938 
L 113.77618 218.993811 
L 117.788764 208.040291 
L 121.801348 209.504196 
L 125.813933 204.595821 
L 129.826517 177.057623 
L 133.839101 199.213481 
L 137.851685 200.468341 
L 141.86427 194.660216 
L 145.876854 200.64823 
L 149.889438 196.087794 
L 153.902022 172.751017 
L 157.914607 195.249794 
L 161.927191 198.454426 
L 165.939775 192.519241 
L 169.95236 188.535134 
L 173.964944 190.767126 
L 177.977528 195.089587 
L 181.990112 193.360718 
L 186.002697 194.143936 
L 190.015281 195.873098 
L 194.027865 193.454157 
L 198.040449 196.520122 
L 202.053034 179.018942 
L 206.065618 196.38347 
L 210.078202 194.802781 
L 214.090787 199.654014 
L 218.103371 197.069626 
L 222.115955 201.03323 
L 226.128539 204.108155 
L 230.141124 203.591094 
L 234.153708 201.787264 
L 238.166292 213.929415 
L 242.178876 216.068594 
L 246.191461 219.844625 
L 250.204045 217.971875 
L 254.216629 218.154954 
L 258.229213 217.287535 
L 262.241798 218.805289 
L 266.254382 216.061005 
L 270.266966 219.901863 
L 274.279551 219.957646 
L 278.292135 220.950525 
L 282.304719 220.789882 
L 286.317303 220.882887 
L 290.329888 220.280111 
L 294.342472 223.492094 
L 298.355056 223.471112 
L 302.36764 225.705014 
L 306.380225 228.132872 
L 310.392809 230.217519 
L 314.405393 226.089931 
L 318.417978 229.015854 
L 322.430562 229.170391 
L 326.443146 231.960147 
L 330.45573 228.35757 
L 334.468315 230.306435 
L 338.480899 229.9391 
L 342.493483 232.451142 
L 346.506067 223.295155 
L 350.518652 224.442198 
L 354.531236 230.876437 
L 358.54382 233.698865 
L 362.556404 232.04265 
L 366.568989 233.759571 
L 370.581573 234.624372 
L 374.594157 238.28747 
L 378.606742 235.806253 
L 382.619326 237.47207 
L 386.63191 237.208499 
L 390.644494 238.368885 
L 394.657079 238.458185 
L 398.669663 238.528654 
L 402.682247 238.667405 
L 406.694831 239.970535 
L 410.707416 240.976869 
" style="fill:none;stroke:#ff0000;stroke-dasharray:1.5,2.475;stroke-dashoffset:0;stroke-width:1.5;"/>
    <defs>
     <path d="M 0 1.5 
C 0.397805 1.5 0.77937 1.341951 1.06066 1.06066 
C 1.341951 0.77937 1.5 0.397805 1.5 0 
C 1.5 -0.397805 1.341951 -0.77937 1.06066 -1.06066 
C 0.77937 -1.341951 0.397805 -1.5 0 -1.5 
C -0.397805 -1.5 -0.77937 -1.341951 -1.06066 -1.06066 
C -1.341951 -0.77937 -1.5 -0.397805 -1.5 0 
C -1.5 0.397805 -1.341951 0.77937 -1.06066 1.06066 
C -0.77937 1.341951 -0.397805 1.5 0 1.5 
z
" id="me19037c2e2" style="stroke:#ff0000;"/>
    </defs>
    <g clip-path="url(#pccb68b2035)">
     <use style="fill:#ff0000;stroke:#ff0000;" x="61.612584" xlink:href="#me19037c2e2" y="295.488"/>
     <use style="fill:#ff0000;stroke:#ff0000;" x="65.625169" xlink:href="#me19037c2e2" y="268.025557"/>
     <use style="fill:#ff0000;stroke:#ff0000;" x="69.637753" xlink:href="#me19037c2e2" y="256.24815"/>
     <use style="fill:#ff0000;stroke:#ff0000;" x="73.650337" xlink:href="#me19037c2e2" y="238.125298"/>
     <use style="fill:#ff0000;stroke:#ff0000;" x="77.662921" xlink:href="#me19037c2e2" y="265.757539"/>
     <use style="fill:#ff0000;stroke:#ff0000;" x="81.675506" xlink:href="#me19037c2e2" y="221.121933"/>
     <use style="fill:#ff0000;stroke:#ff0000;" x="85.68809" xlink:href="#me19037c2e2" y="248.250237"/>
     <use style="fill:#ff0000;stroke:#ff0000;" x="89.700674" xlink:href="#me19037c2e2" y="204.92646"/>
     <use style="fill:#ff0000;stroke:#ff0000;" x="93.713258" xlink:href="#me19037c2e2" y="209.925783"/>
     <use style="fill:#ff0000;stroke:#ff0000;" x="97.725843" xlink:href="#me19037c2e2" y="237.798619"/>
     <use style="fill:#ff0000;stroke:#ff0000;" x="101.738427" xlink:href="#me19037c2e2" y="225.090847"/>
     <use style="fill:#ff0000;stroke:#ff0000;" x="105.751011" xlink:href="#me19037c2e2" y="187.283782"/>
     <use style="fill:#ff0000;stroke:#ff0000;" x="109.763596" xlink:href="#me19037c2e2" y="216.397938"/>
     <use style="fill:#ff0000;stroke:#ff0000;" x="113.77618" xlink:href="#me19037c2e2" y="218.993811"/>
     <use style="fill:#ff0000;stroke:#ff0000;" x="117.788764" xlink:href="#me19037c2e2" y="208.040291"/>
     <use style="fill:#ff0000;stroke:#ff0000;" x="121.801348" xlink:href="#me19037c2e2" y="209.504196"/>
     <use style="fill:#ff0000;stroke:#ff0000;" x="125.813933" xlink:href="#me19037c2e2" y="204.595821"/>
     <use style="fill:#ff0000;stroke:#ff0000;" x="129.826517" xlink:href="#me19037c2e2" y="177.057623"/>
     <use style="fill:#ff0000;stroke:#ff0000;" x="133.839101" xlink:href="#me19037c2e2" y="199.213481"/>
     <use style="fill:#ff0000;stroke:#ff0000;" x="137.851685" xlink:href="#me19037c2e2" y="200.468341"/>
     <use style="fill:#ff0000;stroke:#ff0000;" x="141.86427" xlink:href="#me19037c2e2" y="194.660216"/>
     <use style="fill:#ff0000;stroke:#ff0000;" x="145.876854" xlink:href="#me19037c2e2" y="200.64823"/>
     <use style="fill:#ff0000;stroke:#ff0000;" x="149.889438" xlink:href="#me19037c2e2" y="196.087794"/>
     <use style="fill:#ff0000;stroke:#ff0000;" x="153.902022" xlink:href="#me19037c2e2" y="172.751017"/>
     <use style="fill:#ff0000;stroke:#ff0000;" x="157.914607" xlink:href="#me19037c2e2" y="195.249794"/>
     <use style="fill:#ff0000;stroke:#ff0000;" x="161.927191" xlink:href="#me19037c2e2" y="198.454426"/>
     <use style="fill:#ff0000;stroke:#ff0000;" x="165.939775" xlink:href="#me19037c2e2" y="192.519241"/>
     <use style="fill:#ff0000;stroke:#ff0000;" x="169.95236" xlink:href="#me19037c2e2" y="188.535134"/>
     <use style="fill:#ff0000;stroke:#ff0000;" x="173.964944" xlink:href="#me19037c2e2" y="190.767126"/>
     <use style="fill:#ff0000;stroke:#ff0000;" x="177.977528" xlink:href="#me19037c2e2" y="195.089587"/>
     <use style="fill:#ff0000;stroke:#ff0000;" x="181.990112" xlink:href="#me19037c2e2" y="193.360718"/>
     <use style="fill:#ff0000;stroke:#ff0000;" x="186.002697" xlink:href="#me19037c2e2" y="194.143936"/>
     <use style="fill:#ff0000;stroke:#ff0000;" x="190.015281" xlink:href="#me19037c2e2" y="195.873098"/>
     <use style="fill:#ff0000;stroke:#ff0000;" x="194.027865" xlink:href="#me19037c2e2" y="193.454157"/>
     <use style="fill:#ff0000;stroke:#ff0000;" x="198.040449" xlink:href="#me19037c2e2" y="196.520122"/>
     <use style="fill:#ff0000;stroke:#ff0000;" x="202.053034" xlink:href="#me19037c2e2" y="179.018942"/>
     <use style="fill:#ff0000;stroke:#ff0000;" x="206.065618" xlink:href="#me19037c2e2" y="196.38347"/>
     <use style="fill:#ff0000;stroke:#ff0000;" x="210.078202" xlink:href="#me19037c2e2" y="194.802781"/>
     <use style="fill:#ff0000;stroke:#ff0000;" x="214.090787" xlink:href="#me19037c2e2" y="199.654014"/>
     <use style="fill:#ff0000;stroke:#ff0000;" x="218.103371" xlink:href="#me19037c2e2" y="197.069626"/>
     <use style="fill:#ff0000;stroke:#ff0000;" x="222.115955" xlink:href="#me19037c2e2" y="201.03323"/>
     <use style="fill:#ff0000;stroke:#ff0000;" x="226.128539" xlink:href="#me19037c2e2" y="204.108155"/>
     <use style="fill:#ff0000;stroke:#ff0000;" x="230.141124" xlink:href="#me19037c2e2" y="203.591094"/>
     <use style="fill:#ff0000;stroke:#ff0000;" x="234.153708" xlink:href="#me19037c2e2" y="201.787264"/>
     <use style="fill:#ff0000;stroke:#ff0000;" x="238.166292" xlink:href="#me19037c2e2" y="213.929415"/>
     <use style="fill:#ff0000;stroke:#ff0000;" x="242.178876" xlink:href="#me19037c2e2" y="216.068594"/>
     <use style="fill:#ff0000;stroke:#ff0000;" x="246.191461" xlink:href="#me19037c2e2" y="219.844625"/>
     <use style="fill:#ff0000;stroke:#ff0000;" x="250.204045" xlink:href="#me19037c2e2" y="217.971875"/>
     <use style="fill:#ff0000;stroke:#ff0000;" x="254.216629" xlink:href="#me19037c2e2" y="218.154954"/>
     <use style="fill:#ff0000;stroke:#ff0000;" x="258.229213" xlink:href="#me19037c2e2" y="217.287535"/>
     <use style="fill:#ff0000;stroke:#ff0000;" x="262.241798" xlink:href="#me19037c2e2" y="218.805289"/>
     <use style="fill:#ff0000;stroke:#ff0000;" x="266.254382" xlink:href="#me19037c2e2" y="216.061005"/>
     <use style="fill:#ff0000;stroke:#ff0000;" x="270.266966" xlink:href="#me19037c2e2" y="219.901863"/>
     <use style="fill:#ff0000;stroke:#ff0000;" x="274.279551" xlink:href="#me19037c2e2" y="219.957646"/>
     <use style="fill:#ff0000;stroke:#ff0000;" x="278.292135" xlink:href="#me19037c2e2" y="220.950525"/>
     <use style="fill:#ff0000;stroke:#ff0000;" x="282.304719" xlink:href="#me19037c2e2" y="220.789882"/>
     <use style="fill:#ff0000;stroke:#ff0000;" x="286.317303" xlink:href="#me19037c2e2" y="220.882887"/>
     <use style="fill:#ff0000;stroke:#ff0000;" x="290.329888" xlink:href="#me19037c2e2" y="220.280111"/>
     <use style="fill:#ff0000;stroke:#ff0000;" x="294.342472" xlink:href="#me19037c2e2" y="223.492094"/>
     <use style="fill:#ff0000;stroke:#ff0000;" x="298.355056" xlink:href="#me19037c2e2" y="223.471112"/>
     <use style="fill:#ff0000;stroke:#ff0000;" x="302.36764" xlink:href="#me19037c2e2" y="225.705014"/>
     <use style="fill:#ff0000;stroke:#ff0000;" x="306.380225" xlink:href="#me19037c2e2" y="228.132872"/>
     <use style="fill:#ff0000;stroke:#ff0000;" x="310.392809" xlink:href="#me19037c2e2" y="230.217519"/>
     <use style="fill:#ff0000;stroke:#ff0000;" x="314.405393" xlink:href="#me19037c2e2" y="226.089931"/>
     <use style="fill:#ff0000;stroke:#ff0000;" x="318.417978" xlink:href="#me19037c2e2" y="229.015854"/>
     <use style="fill:#ff0000;stroke:#ff0000;" x="322.430562" xlink:href="#me19037c2e2" y="229.170391"/>
     <use style="fill:#ff0000;stroke:#ff0000;" x="326.443146" xlink:href="#me19037c2e2" y="231.960147"/>
     <use style="fill:#ff0000;stroke:#ff0000;" x="330.45573" xlink:href="#me19037c2e2" y="228.35757"/>
     <use style="fill:#ff0000;stroke:#ff0000;" x="334.468315" xlink:href="#me19037c2e2" y="230.306435"/>
     <use style="fill:#ff0000;stroke:#ff0000;" x="338.480899" xlink:href="#me19037c2e2" y="229.9391"/>
     <use style="fill:#ff0000;stroke:#ff0000;" x="342.493483" xlink:href="#me19037c2e2" y="232.451142"/>
     <use style="fill:#ff0000;stroke:#ff0000;" x="346.506067" xlink:href="#me19037c2e2" y="223.295155"/>
     <use style="fill:#ff0000;stroke:#ff0000;" x="350.518652" xlink:href="#me19037c2e2" y="224.442198"/>
     <use style="fill:#ff0000;stroke:#ff0000;" x="354.531236" xlink:href="#me19037c2e2" y="230.876437"/>
     <use style="fill:#ff0000;stroke:#ff0000;" x="358.54382" xlink:href="#me19037c2e2" y="233.698865"/>
     <use style="fill:#ff0000;stroke:#ff0000;" x="362.556404" xlink:href="#me19037c2e2" y="232.04265"/>
     <use style="fill:#ff0000;stroke:#ff0000;" x="366.568989" xlink:href="#me19037c2e2" y="233.759571"/>
     <use style="fill:#ff0000;stroke:#ff0000;" x="370.581573" xlink:href="#me19037c2e2" y="234.624372"/>
     <use style="fill:#ff0000;stroke:#ff0000;" x="374.594157" xlink:href="#me19037c2e2" y="238.28747"/>
     <use style="fill:#ff0000;stroke:#ff0000;" x="378.606742" xlink:href="#me19037c2e2" y="235.806253"/>
     <use style="fill:#ff0000;stroke:#ff0000;" x="382.619326" xlink:href="#me19037c2e2" y="237.47207"/>
     <use style="fill:#ff0000;stroke:#ff0000;" x="386.63191" xlink:href="#me19037c2e2" y="237.208499"/>
     <use style="fill:#ff0000;stroke:#ff0000;" x="390.644494" xlink:href="#me19037c2e2" y="238.368885"/>
     <use style="fill:#ff0000;stroke:#ff0000;" x="394.657079" xlink:href="#me19037c2e2" y="238.458185"/>
     <use style="fill:#ff0000;stroke:#ff0000;" x="398.669663" xlink:href="#me19037c2e2" y="238.528654"/>
     <use style="fill:#ff0000;stroke:#ff0000;" x="402.682247" xlink:href="#me19037c2e2" y="238.667405"/>
     <use style="fill:#ff0000;stroke:#ff0000;" x="406.694831" xlink:href="#me19037c2e2" y="239.970535"/>
     <use style="fill:#ff0000;stroke:#ff0000;" x="410.707416" xlink:href="#me19037c2e2" y="240.976869"/>
    </g>
   </g>
   <g id="line2d_67">
    <path clip-path="url(#pccb68b2035)" d="M 61.612584 293.562432 
L 65.625169 264.635707 
L 69.637753 248.224426 
L 73.650337 225.089616 
L 77.662921 254.677684 
L 81.675506 201.398265 
L 85.68809 231.135191 
L 89.700674 176.117118 
L 93.713258 174.308882 
L 97.725843 214.846533 
L 101.738427 198.401883 
L 105.751011 150.649934 
L 109.763596 178.976291 
L 113.77618 180.989016 
L 117.788764 165.94627 
L 121.801348 165.804106 
L 125.813933 157.829449 
L 129.826517 124.82441 
L 133.839101 153.495346 
L 137.851685 156.611045 
L 141.86427 146.082723 
L 145.876854 150.384149 
L 149.889438 144.817818 
L 153.902022 117.389763 
L 157.914607 135.04621 
L 161.927191 138.754838 
L 165.939775 134.812365 
L 169.95236 128.654121 
L 173.964944 127.098247 
L 177.977528 130.890404 
L 181.990112 129.140685 
L 186.002697 127.956967 
L 190.015281 131.265716 
L 194.027865 131.253789 
L 198.040449 133.440068 
L 202.053034 116.293471 
L 206.065618 131.899169 
L 210.078202 131.147352 
L 214.090787 139.48123 
L 218.103371 136.25751 
L 222.115955 133.607535 
L 226.128539 138.596267 
L 230.141124 137.185438 
L 234.153708 135.12514 
L 238.166292 147.282625 
L 242.178876 152.018345 
L 246.191461 155.560416 
L 250.204045 153.632068 
L 254.216629 145.27564 
L 258.229213 145.198432 
L 262.241798 147.603973 
L 266.254382 143.689453 
L 270.266966 145.923365 
L 274.279551 147.01885 
L 278.292135 149.334694 
L 282.304719 145.697589 
L 286.317303 141.484792 
L 290.329888 140.398155 
L 294.342472 143.150422 
L 298.355056 139.517241 
L 302.36764 142.285884 
L 306.380225 144.021324 
L 310.392809 145.097581 
L 314.405393 139.883268 
L 318.417978 145.694523 
L 322.430562 145.275136 
L 326.443146 149.377054 
L 330.45573 147.154807 
L 334.468315 150.766526 
L 338.480899 150.54618 
L 342.493483 154.21575 
L 346.506067 142.622429 
L 350.518652 142.561287 
L 354.531236 152.446439 
L 358.54382 154.726166 
L 362.556404 152.13621 
L 366.568989 154.613322 
L 370.581573 156.441124 
L 374.594157 160.60585 
L 378.606742 159.340197 
L 382.619326 154.86251 
L 386.63191 155.124489 
L 390.644494 157.24613 
L 394.657079 158.19827 
L 398.669663 160.018428 
L 402.682247 159.634142 
L 406.694831 158.25554 
L 410.707416 158.233402 
" style="fill:none;stroke:#008000;stroke-dasharray:1.5,2.475;stroke-dashoffset:0;stroke-width:1.5;"/>
    <defs>
     <path d="M 0 1.5 
C 0.397805 1.5 0.77937 1.341951 1.06066 1.06066 
C 1.341951 0.77937 1.5 0.397805 1.5 0 
C 1.5 -0.397805 1.341951 -0.77937 1.06066 -1.06066 
C 0.77937 -1.341951 0.397805 -1.5 0 -1.5 
C -0.397805 -1.5 -0.77937 -1.341951 -1.06066 -1.06066 
C -1.341951 -0.77937 -1.5 -0.397805 -1.5 0 
C -1.5 0.397805 -1.341951 0.77937 -1.06066 1.06066 
C -0.77937 1.341951 -0.397805 1.5 0 1.5 
z
" id="m6ace808e24" style="stroke:#008000;"/>
    </defs>
    <g clip-path="url(#pccb68b2035)">
     <use style="fill:#008000;stroke:#008000;" x="61.612584" xlink:href="#m6ace808e24" y="293.562432"/>
     <use style="fill:#008000;stroke:#008000;" x="65.625169" xlink:href="#m6ace808e24" y="264.635707"/>
     <use style="fill:#008000;stroke:#008000;" x="69.637753" xlink:href="#m6ace808e24" y="248.224426"/>
     <use style="fill:#008000;stroke:#008000;" x="73.650337" xlink:href="#m6ace808e24" y="225.089616"/>
     <use style="fill:#008000;stroke:#008000;" x="77.662921" xlink:href="#m6ace808e24" y="254.677684"/>
     <use style="fill:#008000;stroke:#008000;" x="81.675506" xlink:href="#m6ace808e24" y="201.398265"/>
     <use style="fill:#008000;stroke:#008000;" x="85.68809" xlink:href="#m6ace808e24" y="231.135191"/>
     <use style="fill:#008000;stroke:#008000;" x="89.700674" xlink:href="#m6ace808e24" y="176.117118"/>
     <use style="fill:#008000;stroke:#008000;" x="93.713258" xlink:href="#m6ace808e24" y="174.308882"/>
     <use style="fill:#008000;stroke:#008000;" x="97.725843" xlink:href="#m6ace808e24" y="214.846533"/>
     <use style="fill:#008000;stroke:#008000;" x="101.738427" xlink:href="#m6ace808e24" y="198.401883"/>
     <use style="fill:#008000;stroke:#008000;" x="105.751011" xlink:href="#m6ace808e24" y="150.649934"/>
     <use style="fill:#008000;stroke:#008000;" x="109.763596" xlink:href="#m6ace808e24" y="178.976291"/>
     <use style="fill:#008000;stroke:#008000;" x="113.77618" xlink:href="#m6ace808e24" y="180.989016"/>
     <use style="fill:#008000;stroke:#008000;" x="117.788764" xlink:href="#m6ace808e24" y="165.94627"/>
     <use style="fill:#008000;stroke:#008000;" x="121.801348" xlink:href="#m6ace808e24" y="165.804106"/>
     <use style="fill:#008000;stroke:#008000;" x="125.813933" xlink:href="#m6ace808e24" y="157.829449"/>
     <use style="fill:#008000;stroke:#008000;" x="129.826517" xlink:href="#m6ace808e24" y="124.82441"/>
     <use style="fill:#008000;stroke:#008000;" x="133.839101" xlink:href="#m6ace808e24" y="153.495346"/>
     <use style="fill:#008000;stroke:#008000;" x="137.851685" xlink:href="#m6ace808e24" y="156.611045"/>
     <use style="fill:#008000;stroke:#008000;" x="141.86427" xlink:href="#m6ace808e24" y="146.082723"/>
     <use style="fill:#008000;stroke:#008000;" x="145.876854" xlink:href="#m6ace808e24" y="150.384149"/>
     <use style="fill:#008000;stroke:#008000;" x="149.889438" xlink:href="#m6ace808e24" y="144.817818"/>
     <use style="fill:#008000;stroke:#008000;" x="153.902022" xlink:href="#m6ace808e24" y="117.389763"/>
     <use style="fill:#008000;stroke:#008000;" x="157.914607" xlink:href="#m6ace808e24" y="135.04621"/>
     <use style="fill:#008000;stroke:#008000;" x="161.927191" xlink:href="#m6ace808e24" y="138.754838"/>
     <use style="fill:#008000;stroke:#008000;" x="165.939775" xlink:href="#m6ace808e24" y="134.812365"/>
     <use style="fill:#008000;stroke:#008000;" x="169.95236" xlink:href="#m6ace808e24" y="128.654121"/>
     <use style="fill:#008000;stroke:#008000;" x="173.964944" xlink:href="#m6ace808e24" y="127.098247"/>
     <use style="fill:#008000;stroke:#008000;" x="177.977528" xlink:href="#m6ace808e24" y="130.890404"/>
     <use style="fill:#008000;stroke:#008000;" x="181.990112" xlink:href="#m6ace808e24" y="129.140685"/>
     <use style="fill:#008000;stroke:#008000;" x="186.002697" xlink:href="#m6ace808e24" y="127.956967"/>
     <use style="fill:#008000;stroke:#008000;" x="190.015281" xlink:href="#m6ace808e24" y="131.265716"/>
     <use style="fill:#008000;stroke:#008000;" x="194.027865" xlink:href="#m6ace808e24" y="131.253789"/>
     <use style="fill:#008000;stroke:#008000;" x="198.040449" xlink:href="#m6ace808e24" y="133.440068"/>
     <use style="fill:#008000;stroke:#008000;" x="202.053034" xlink:href="#m6ace808e24" y="116.293471"/>
     <use style="fill:#008000;stroke:#008000;" x="206.065618" xlink:href="#m6ace808e24" y="131.899169"/>
     <use style="fill:#008000;stroke:#008000;" x="210.078202" xlink:href="#m6ace808e24" y="131.147352"/>
     <use style="fill:#008000;stroke:#008000;" x="214.090787" xlink:href="#m6ace808e24" y="139.48123"/>
     <use style="fill:#008000;stroke:#008000;" x="218.103371" xlink:href="#m6ace808e24" y="136.25751"/>
     <use style="fill:#008000;stroke:#008000;" x="222.115955" xlink:href="#m6ace808e24" y="133.607535"/>
     <use style="fill:#008000;stroke:#008000;" x="226.128539" xlink:href="#m6ace808e24" y="138.596267"/>
     <use style="fill:#008000;stroke:#008000;" x="230.141124" xlink:href="#m6ace808e24" y="137.185438"/>
     <use style="fill:#008000;stroke:#008000;" x="234.153708" xlink:href="#m6ace808e24" y="135.12514"/>
     <use style="fill:#008000;stroke:#008000;" x="238.166292" xlink:href="#m6ace808e24" y="147.282625"/>
     <use style="fill:#008000;stroke:#008000;" x="242.178876" xlink:href="#m6ace808e24" y="152.018345"/>
     <use style="fill:#008000;stroke:#008000;" x="246.191461" xlink:href="#m6ace808e24" y="155.560416"/>
     <use style="fill:#008000;stroke:#008000;" x="250.204045" xlink:href="#m6ace808e24" y="153.632068"/>
     <use style="fill:#008000;stroke:#008000;" x="254.216629" xlink:href="#m6ace808e24" y="145.27564"/>
     <use style="fill:#008000;stroke:#008000;" x="258.229213" xlink:href="#m6ace808e24" y="145.198432"/>
     <use style="fill:#008000;stroke:#008000;" x="262.241798" xlink:href="#m6ace808e24" y="147.603973"/>
     <use style="fill:#008000;stroke:#008000;" x="266.254382" xlink:href="#m6ace808e24" y="143.689453"/>
     <use style="fill:#008000;stroke:#008000;" x="270.266966" xlink:href="#m6ace808e24" y="145.923365"/>
     <use style="fill:#008000;stroke:#008000;" x="274.279551" xlink:href="#m6ace808e24" y="147.01885"/>
     <use style="fill:#008000;stroke:#008000;" x="278.292135" xlink:href="#m6ace808e24" y="149.334694"/>
     <use style="fill:#008000;stroke:#008000;" x="282.304719" xlink:href="#m6ace808e24" y="145.697589"/>
     <use style="fill:#008000;stroke:#008000;" x="286.317303" xlink:href="#m6ace808e24" y="141.484792"/>
     <use style="fill:#008000;stroke:#008000;" x="290.329888" xlink:href="#m6ace808e24" y="140.398155"/>
     <use style="fill:#008000;stroke:#008000;" x="294.342472" xlink:href="#m6ace808e24" y="143.150422"/>
     <use style="fill:#008000;stroke:#008000;" x="298.355056" xlink:href="#m6ace808e24" y="139.517241"/>
     <use style="fill:#008000;stroke:#008000;" x="302.36764" xlink:href="#m6ace808e24" y="142.285884"/>
     <use style="fill:#008000;stroke:#008000;" x="306.380225" xlink:href="#m6ace808e24" y="144.021324"/>
     <use style="fill:#008000;stroke:#008000;" x="310.392809" xlink:href="#m6ace808e24" y="145.097581"/>
     <use style="fill:#008000;stroke:#008000;" x="314.405393" xlink:href="#m6ace808e24" y="139.883268"/>
     <use style="fill:#008000;stroke:#008000;" x="318.417978" xlink:href="#m6ace808e24" y="145.694523"/>
     <use style="fill:#008000;stroke:#008000;" x="322.430562" xlink:href="#m6ace808e24" y="145.275136"/>
     <use style="fill:#008000;stroke:#008000;" x="326.443146" xlink:href="#m6ace808e24" y="149.377054"/>
     <use style="fill:#008000;stroke:#008000;" x="330.45573" xlink:href="#m6ace808e24" y="147.154807"/>
     <use style="fill:#008000;stroke:#008000;" x="334.468315" xlink:href="#m6ace808e24" y="150.766526"/>
     <use style="fill:#008000;stroke:#008000;" x="338.480899" xlink:href="#m6ace808e24" y="150.54618"/>
     <use style="fill:#008000;stroke:#008000;" x="342.493483" xlink:href="#m6ace808e24" y="154.21575"/>
     <use style="fill:#008000;stroke:#008000;" x="346.506067" xlink:href="#m6ace808e24" y="142.622429"/>
     <use style="fill:#008000;stroke:#008000;" x="350.518652" xlink:href="#m6ace808e24" y="142.561287"/>
     <use style="fill:#008000;stroke:#008000;" x="354.531236" xlink:href="#m6ace808e24" y="152.446439"/>
     <use style="fill:#008000;stroke:#008000;" x="358.54382" xlink:href="#m6ace808e24" y="154.726166"/>
     <use style="fill:#008000;stroke:#008000;" x="362.556404" xlink:href="#m6ace808e24" y="152.13621"/>
     <use style="fill:#008000;stroke:#008000;" x="366.568989" xlink:href="#m6ace808e24" y="154.613322"/>
     <use style="fill:#008000;stroke:#008000;" x="370.581573" xlink:href="#m6ace808e24" y="156.441124"/>
     <use style="fill:#008000;stroke:#008000;" x="374.594157" xlink:href="#m6ace808e24" y="160.60585"/>
     <use style="fill:#008000;stroke:#008000;" x="378.606742" xlink:href="#m6ace808e24" y="159.340197"/>
     <use style="fill:#008000;stroke:#008000;" x="382.619326" xlink:href="#m6ace808e24" y="154.86251"/>
     <use style="fill:#008000;stroke:#008000;" x="386.63191" xlink:href="#m6ace808e24" y="155.124489"/>
     <use style="fill:#008000;stroke:#008000;" x="390.644494" xlink:href="#m6ace808e24" y="157.24613"/>
     <use style="fill:#008000;stroke:#008000;" x="394.657079" xlink:href="#m6ace808e24" y="158.19827"/>
     <use style="fill:#008000;stroke:#008000;" x="398.669663" xlink:href="#m6ace808e24" y="160.018428"/>
     <use style="fill:#008000;stroke:#008000;" x="402.682247" xlink:href="#m6ace808e24" y="159.634142"/>
     <use style="fill:#008000;stroke:#008000;" x="406.694831" xlink:href="#m6ace808e24" y="158.25554"/>
     <use style="fill:#008000;stroke:#008000;" x="410.707416" xlink:href="#m6ace808e24" y="158.233402"/>
    </g>
   </g>
   <g id="patch_3">
    <path d="M 57.6 307.584 
L 57.6 41.472 
" style="fill:none;stroke:#000000;stroke-linecap:square;stroke-linejoin:miter;stroke-width:0.8;"/>
   </g>
   <g id="patch_4">
    <path d="M 414.72 307.584 
L 414.72 41.472 
" style="fill:none;stroke:#000000;stroke-linecap:square;stroke-linejoin:miter;stroke-width:0.8;"/>
   </g>
   <g id="patch_5">
    <path d="M 57.6 307.584 
L 414.72 307.584 
" style="fill:none;stroke:#000000;stroke-linecap:square;stroke-linejoin:miter;stroke-width:0.8;"/>
   </g>
   <g id="patch_6">
    <path d="M 57.6 41.472 
L 414.72 41.472 
" style="fill:none;stroke:#000000;stroke-linecap:square;stroke-linejoin:miter;stroke-width:0.8;"/>
   </g>
   <g id="text_35">
    <!-- MergeTrans 3PV on pre_transpose42 -->
    <defs>
     <path d="M 9.8125 72.90625 
L 24.515625 72.90625 
L 43.109375 23.296875 
L 61.8125 72.90625 
L 76.515625 72.90625 
L 76.515625 0 
L 66.890625 0 
L 66.890625 64.015625 
L 48.09375 14.015625 
L 38.1875 14.015625 
L 19.390625 64.015625 
L 19.390625 0 
L 9.8125 0 
z
" id="DejaVuSans-77"/>
     <path d="M 45.40625 27.984375 
Q 45.40625 37.75 41.375 43.109375 
Q 37.359375 48.484375 30.078125 48.484375 
Q 22.859375 48.484375 18.828125 43.109375 
Q 14.796875 37.75 14.796875 27.984375 
Q 14.796875 18.265625 18.828125 12.890625 
Q 22.859375 7.515625 30.078125 7.515625 
Q 37.359375 7.515625 41.375 12.890625 
Q 45.40625 18.265625 45.40625 27.984375 
z
M 54.390625 6.78125 
Q 54.390625 -7.171875 48.1875 -13.984375 
Q 42 -20.796875 29.203125 -20.796875 
Q 24.46875 -20.796875 20.265625 -20.09375 
Q 16.0625 -19.390625 12.109375 -17.921875 
L 12.109375 -9.1875 
Q 16.0625 -11.328125 19.921875 -12.34375 
Q 23.78125 -13.375 27.78125 -13.375 
Q 36.625 -13.375 41.015625 -8.765625 
Q 45.40625 -4.15625 45.40625 5.171875 
L 45.40625 9.625 
Q 42.625 4.78125 38.28125 2.390625 
Q 33.9375 0 27.875 0 
Q 17.828125 0 11.671875 7.65625 
Q 5.515625 15.328125 5.515625 27.984375 
Q 5.515625 40.671875 11.671875 48.328125 
Q 17.828125 56 27.875 56 
Q 33.9375 56 38.28125 53.609375 
Q 42.625 51.21875 45.40625 46.390625 
L 45.40625 54.6875 
L 54.390625 54.6875 
z
" id="DejaVuSans-103"/>
     <path d="M -0.296875 72.90625 
L 61.375 72.90625 
L 61.375 64.59375 
L 35.5 64.59375 
L 35.5 0 
L 25.59375 0 
L 25.59375 64.59375 
L -0.296875 64.59375 
z
" id="DejaVuSans-84"/>
     <path d="M 54.890625 33.015625 
L 54.890625 0 
L 45.90625 0 
L 45.90625 32.71875 
Q 45.90625 40.484375 42.875 44.328125 
Q 39.84375 48.1875 33.796875 48.1875 
Q 26.515625 48.1875 22.3125 43.546875 
Q 18.109375 38.921875 18.109375 30.90625 
L 18.109375 0 
L 9.078125 0 
L 9.078125 54.6875 
L 18.109375 54.6875 
L 18.109375 46.1875 
Q 21.34375 51.125 25.703125 53.5625 
Q 30.078125 56 35.796875 56 
Q 45.21875 56 50.046875 50.171875 
Q 54.890625 44.34375 54.890625 33.015625 
z
" id="DejaVuSans-110"/>
     <path d="M 19.671875 64.796875 
L 19.671875 37.40625 
L 32.078125 37.40625 
Q 38.96875 37.40625 42.71875 40.96875 
Q 46.484375 44.53125 46.484375 51.125 
Q 46.484375 57.671875 42.71875 61.234375 
Q 38.96875 64.796875 32.078125 64.796875 
z
M 9.8125 72.90625 
L 32.078125 72.90625 
Q 44.34375 72.90625 50.609375 67.359375 
Q 56.890625 61.8125 56.890625 51.125 
Q 56.890625 40.328125 50.609375 34.8125 
Q 44.34375 29.296875 32.078125 29.296875 
L 19.671875 29.296875 
L 19.671875 0 
L 9.8125 0 
z
" id="DejaVuSans-80"/>
     <path d="M 28.609375 0 
L 0.78125 72.90625 
L 11.078125 72.90625 
L 34.1875 11.53125 
L 57.328125 72.90625 
L 67.578125 72.90625 
L 39.796875 0 
z
" id="DejaVuSans-86"/>
     <path d="M 30.609375 48.390625 
Q 23.390625 48.390625 19.1875 42.75 
Q 14.984375 37.109375 14.984375 27.296875 
Q 14.984375 17.484375 19.15625 11.84375 
Q 23.34375 6.203125 30.609375 6.203125 
Q 37.796875 6.203125 41.984375 11.859375 
Q 46.1875 17.53125 46.1875 27.296875 
Q 46.1875 37.015625 41.984375 42.703125 
Q 37.796875 48.390625 30.609375 48.390625 
z
M 30.609375 56 
Q 42.328125 56 49.015625 48.375 
Q 55.71875 40.765625 55.71875 27.296875 
Q 55.71875 13.875 49.015625 6.21875 
Q 42.328125 -1.421875 30.609375 -1.421875 
Q 18.84375 -1.421875 12.171875 6.21875 
Q 5.515625 13.875 5.515625 27.296875 
Q 5.515625 40.765625 12.171875 48.375 
Q 18.84375 56 30.609375 56 
z
" id="DejaVuSans-111"/>
     <path d="M 50.984375 -16.609375 
L 50.984375 -23.578125 
L -0.984375 -23.578125 
L -0.984375 -16.609375 
z
" id="DejaVuSans-95"/>
    </defs>
    <g transform="translate(126.654375 35.472)scale(0.12 -0.12)">
     <use xlink:href="#DejaVuSans-77"/>
     <use x="86.279297" xlink:href="#DejaVuSans-101"/>
     <use x="147.802734" xlink:href="#DejaVuSans-114"/>
     <use x="187.166016" xlink:href="#DejaVuSans-103"/>
     <use x="250.642578" xlink:href="#DejaVuSans-101"/>
     <use x="312.166016" xlink:href="#DejaVuSans-84"/>
     <use x="358.5" xlink:href="#DejaVuSans-114"/>
     <use x="399.613281" xlink:href="#DejaVuSans-97"/>
     <use x="460.892578" xlink:href="#DejaVuSans-110"/>
     <use x="524.271484" xlink:href="#DejaVuSans-115"/>
     <use x="576.371094" xlink:href="#DejaVuSans-32"/>
     <use x="608.158203" xlink:href="#DejaVuSans-51"/>
     <use x="671.78125" xlink:href="#DejaVuSans-80"/>
     <use x="732.083984" xlink:href="#DejaVuSans-86"/>
     <use x="800.492188" xlink:href="#DejaVuSans-32"/>
     <use x="832.279297" xlink:href="#DejaVuSans-111"/>
     <use x="893.460938" xlink:href="#DejaVuSans-110"/>
     <use x="956.839844" xlink:href="#DejaVuSans-32"/>
     <use x="988.626953" xlink:href="#DejaVuSans-112"/>
     <use x="1052.103516" xlink:href="#DejaVuSans-114"/>
     <use x="1090.966797" xlink:href="#DejaVuSans-101"/>
     <use x="1152.490234" xlink:href="#DejaVuSans-95"/>
     <use x="1202.490234" xlink:href="#DejaVuSans-116"/>
     <use x="1241.699219" xlink:href="#DejaVuSans-114"/>
     <use x="1282.8125" xlink:href="#DejaVuSans-97"/>
     <use x="1344.091797" xlink:href="#DejaVuSans-110"/>
     <use x="1407.470703" xlink:href="#DejaVuSans-115"/>
     <use x="1459.570312" xlink:href="#DejaVuSans-112"/>
     <use x="1523.046875" xlink:href="#DejaVuSans-111"/>
     <use x="1584.228516" xlink:href="#DejaVuSans-115"/>
     <use x="1636.328125" xlink:href="#DejaVuSans-101"/>
     <use x="1697.851562" xlink:href="#DejaVuSans-52"/>
     <use x="1761.474609" xlink:href="#DejaVuSans-50"/>
    </g>
   </g>
   <g id="legend_1">
    <g id="patch_7">
     <path d="M 313.152813 302.584 
L 407.72 302.584 
Q 409.72 302.584 409.72 300.584 
L 409.72 257.2715 
Q 409.72 255.2715 407.72 255.2715 
L 313.152813 255.2715 
Q 311.152813 255.2715 311.152813 257.2715 
L 311.152813 300.584 
Q 311.152813 302.584 313.152813 302.584 
z
" style="fill:#ffffff;opacity:0.8;stroke:#cccccc;stroke-linejoin:miter;"/>
    </g>
    <g id="line2d_68">
     <path d="M 315.152813 263.369937 
L 335.152813 263.369937 
" style="fill:none;stroke:#0000ff;stroke-dasharray:1.5,2.475;stroke-dashoffset:0;stroke-width:1.5;"/>
    </g>
    <g id="line2d_69">
     <g>
      <use style="fill:#0000ff;stroke:#0000ff;" x="325.152813" xlink:href="#m0f9dabd66c" y="263.369937"/>
     </g>
    </g>
    <g id="text_36">
     <!-- transpose -->
     <g transform="translate(343.152813 266.869937)scale(0.1 -0.1)">
      <use xlink:href="#DejaVuSans-116"/>
      <use x="39.208984" xlink:href="#DejaVuSans-114"/>
      <use x="80.322266" xlink:href="#DejaVuSans-97"/>
      <use x="141.601562" xlink:href="#DejaVuSans-110"/>
      <use x="204.980469" xlink:href="#DejaVuSans-115"/>
      <use x="257.080078" xlink:href="#DejaVuSans-112"/>
      <use x="320.556641" xlink:href="#DejaVuSans-111"/>
      <use x="381.738281" xlink:href="#DejaVuSans-115"/>
      <use x="433.837891" xlink:href="#DejaVuSans-101"/>
     </g>
    </g>
    <g id="line2d_70">
     <path d="M 315.152813 278.048063 
L 335.152813 278.048063 
" style="fill:none;stroke:#ff0000;stroke-dasharray:1.5,2.475;stroke-dashoffset:0;stroke-width:1.5;"/>
    </g>
    <g id="line2d_71">
     <g>
      <use style="fill:#ff0000;stroke:#ff0000;" x="325.152813" xlink:href="#me19037c2e2" y="278.048063"/>
     </g>
    </g>
    <g id="text_37">
     <!-- transpose_tr -->
     <g transform="translate(343.152813 281.548063)scale(0.1 -0.1)">
      <use xlink:href="#DejaVuSans-116"/>
      <use x="39.208984" xlink:href="#DejaVuSans-114"/>
      <use x="80.322266" xlink:href="#DejaVuSans-97"/>
      <use x="141.601562" xlink:href="#DejaVuSans-110"/>
      <use x="204.980469" xlink:href="#DejaVuSans-115"/>
      <use x="257.080078" xlink:href="#DejaVuSans-112"/>
      <use x="320.556641" xlink:href="#DejaVuSans-111"/>
      <use x="381.738281" xlink:href="#DejaVuSans-115"/>
      <use x="433.837891" xlink:href="#DejaVuSans-101"/>
      <use x="495.361328" xlink:href="#DejaVuSans-95"/>
      <use x="545.361328" xlink:href="#DejaVuSans-116"/>
      <use x="584.570312" xlink:href="#DejaVuSans-114"/>
     </g>
    </g>
    <g id="line2d_72">
     <path d="M 315.152813 293.004312 
L 335.152813 293.004312 
" style="fill:none;stroke:#008000;stroke-dasharray:1.5,2.475;stroke-dashoffset:0;stroke-width:1.5;"/>
    </g>
    <g id="line2d_73">
     <g>
      <use style="fill:#008000;stroke:#008000;" x="325.152813" xlink:href="#m6ace808e24" y="293.004312"/>
     </g>
    </g>
    <g id="text_38">
     <!-- mean -->
     <defs>
      <path d="M 52 44.1875 
Q 55.375 50.25 60.0625 53.125 
Q 64.75 56 71.09375 56 
Q 79.640625 56 84.28125 50.015625 
Q 88.921875 44.046875 88.921875 33.015625 
L 88.921875 0 
L 79.890625 0 
L 79.890625 32.71875 
Q 79.890625 40.578125 77.09375 44.375 
Q 74.3125 48.1875 68.609375 48.1875 
Q 61.625 48.1875 57.5625 43.546875 
Q 53.515625 38.921875 53.515625 30.90625 
L 53.515625 0 
L 44.484375 0 
L 44.484375 32.71875 
Q 44.484375 40.625 41.703125 44.40625 
Q 38.921875 48.1875 33.109375 48.1875 
Q 26.21875 48.1875 22.15625 43.53125 
Q 18.109375 38.875 18.109375 30.90625 
L 18.109375 0 
L 9.078125 0 
L 9.078125 54.6875 
L 18.109375 54.6875 
L 18.109375 46.1875 
Q 21.1875 51.21875 25.484375 53.609375 
Q 29.78125 56 35.6875 56 
Q 41.65625 56 45.828125 52.96875 
Q 50 49.953125 52 44.1875 
z
" id="DejaVuSans-109"/>
     </defs>
     <g transform="translate(343.152813 296.504312)scale(0.1 -0.1)">
      <use xlink:href="#DejaVuSans-109"/>
      <use x="97.412109" xlink:href="#DejaVuSans-101"/>
      <use x="158.935547" xlink:href="#DejaVuSans-97"/>
      <use x="220.214844" xlink:href="#DejaVuSans-110"/>
     </g>
    </g>
   </g>
  </g>
 </g>
 <defs>
  <clipPath id="pccb68b2035">
   <rect height="266.112" width="357.12" x="57.6" y="41.472"/>
  </clipPath>
 </defs>
</svg>
