<?xml version="1.0" encoding="utf-8" standalone="no"?>
<!DOCTYPE svg PUBLIC "-//W3C//DTD SVG 1.1//EN"
  "http://www.w3.org/Graphics/SVG/1.1/DTD/svg11.dtd">
<!-- Created with matplotlib (https://matplotlib.org/) -->
<svg height="345.6pt" version="1.1" viewBox="0 0 460.8 345.6" width="460.8pt" xmlns="http://www.w3.org/2000/svg" xmlns:xlink="http://www.w3.org/1999/xlink">
 <defs>
  <style type="text/css">
*{stroke-linecap:butt;stroke-linejoin:round;}
  </style>
 </defs>
 <g id="figure_1">
  <g id="patch_1">
   <path d="M 0 345.6 
L 460.8 345.6 
L 460.8 0 
L 0 0 
z
" style="fill:#ffffff;"/>
  </g>
  <g id="axes_1">
   <g id="patch_2">
    <path d="M 57.6 307.584 
L 414.72 307.584 
L 414.72 41.472 
L 57.6 41.472 
z
" style="fill:#ffffff;"/>
   </g>
   <g id="matplotlib.axis_1">
    <g id="xtick_1">
     <g id="line2d_1">
      <path clip-path="url(#pc2d93a5fbb)" d="M 61.612584 307.584 
L 61.612584 41.472 
" style="fill:none;stroke:#b0b0b0;stroke-dasharray:5.12,1.28,0.8,1.28;stroke-dashoffset:0;stroke-width:0.8;"/>
     </g>
     <g id="line2d_2">
      <defs>
       <path d="M 0 0 
L 0 3.5 
" id="m01064a2a84" style="stroke:#000000;stroke-width:0.8;"/>
      </defs>
      <g>
       <use style="stroke:#000000;stroke-width:0.8;" x="61.612584" xlink:href="#m01064a2a84" y="307.584"/>
      </g>
     </g>
     <g id="text_1">
      <!-- 1 -->
      <defs>
       <path d="M 12.40625 8.296875 
L 28.515625 8.296875 
L 28.515625 63.921875 
L 10.984375 60.40625 
L 10.984375 69.390625 
L 28.421875 72.90625 
L 38.28125 72.90625 
L 38.28125 8.296875 
L 54.390625 8.296875 
L 54.390625 0 
L 12.40625 0 
z
" id="DejaVuSans-49"/>
      </defs>
      <g transform="translate(58.431334 322.182437)scale(0.1 -0.1)">
       <use xlink:href="#DejaVuSans-49"/>
      </g>
     </g>
    </g>
    <g id="xtick_2">
     <g id="line2d_3">
      <path clip-path="url(#pc2d93a5fbb)" d="M 73.650337 307.584 
L 73.650337 41.472 
" style="fill:none;stroke:#b0b0b0;stroke-dasharray:5.12,1.28,0.8,1.28;stroke-dashoffset:0;stroke-width:0.8;"/>
     </g>
     <g id="line2d_4">
      <g>
       <use style="stroke:#000000;stroke-width:0.8;" x="73.650337" xlink:href="#m01064a2a84" y="307.584"/>
      </g>
     </g>
     <g id="text_2">
      <!-- 4 -->
      <defs>
       <path d="M 37.796875 64.3125 
L 12.890625 25.390625 
L 37.796875 25.390625 
z
M 35.203125 72.90625 
L 47.609375 72.90625 
L 47.609375 25.390625 
L 58.015625 25.390625 
L 58.015625 17.1875 
L 47.609375 17.1875 
L 47.609375 0 
L 37.796875 0 
L 37.796875 17.1875 
L 4.890625 17.1875 
L 4.890625 26.703125 
z
" id="DejaVuSans-52"/>
      </defs>
      <g transform="translate(70.469087 322.182437)scale(0.1 -0.1)">
       <use xlink:href="#DejaVuSans-52"/>
      </g>
     </g>
    </g>
    <g id="xtick_3">
     <g id="line2d_5">
      <path clip-path="url(#pc2d93a5fbb)" d="M 89.700674 307.584 
L 89.700674 41.472 
" style="fill:none;stroke:#b0b0b0;stroke-dasharray:5.12,1.28,0.8,1.28;stroke-dashoffset:0;stroke-width:0.8;"/>
     </g>
     <g id="line2d_6">
      <g>
       <use style="stroke:#000000;stroke-width:0.8;" x="89.700674" xlink:href="#m01064a2a84" y="307.584"/>
      </g>
     </g>
     <g id="text_3">
      <!-- 8 -->
      <defs>
       <path d="M 31.78125 34.625 
Q 24.75 34.625 20.71875 30.859375 
Q 16.703125 27.09375 16.703125 20.515625 
Q 16.703125 13.921875 20.71875 10.15625 
Q 24.75 6.390625 31.78125 6.390625 
Q 38.8125 6.390625 42.859375 10.171875 
Q 46.921875 13.96875 46.921875 20.515625 
Q 46.921875 27.09375 42.890625 30.859375 
Q 38.875 34.625 31.78125 34.625 
z
M 21.921875 38.8125 
Q 15.578125 40.375 12.03125 44.71875 
Q 8.5 49.078125 8.5 55.328125 
Q 8.5 64.0625 14.71875 69.140625 
Q 20.953125 74.21875 31.78125 74.21875 
Q 42.671875 74.21875 48.875 69.140625 
Q 55.078125 64.0625 55.078125 55.328125 
Q 55.078125 49.078125 51.53125 44.71875 
Q 48 40.375 41.703125 38.8125 
Q 48.828125 37.15625 52.796875 32.3125 
Q 56.78125 27.484375 56.78125 20.515625 
Q 56.78125 9.90625 50.3125 4.234375 
Q 43.84375 -1.421875 31.78125 -1.421875 
Q 19.734375 -1.421875 13.25 4.234375 
Q 6.78125 9.90625 6.78125 20.515625 
Q 6.78125 27.484375 10.78125 32.3125 
Q 14.796875 37.15625 21.921875 38.8125 
z
M 18.3125 54.390625 
Q 18.3125 48.734375 21.84375 45.5625 
Q 25.390625 42.390625 31.78125 42.390625 
Q 38.140625 42.390625 41.71875 45.5625 
Q 45.3125 48.734375 45.3125 54.390625 
Q 45.3125 60.0625 41.71875 63.234375 
Q 38.140625 66.40625 31.78125 66.40625 
Q 25.390625 66.40625 21.84375 63.234375 
Q 18.3125 60.0625 18.3125 54.390625 
z
" id="DejaVuSans-56"/>
      </defs>
      <g transform="translate(86.519424 322.182437)scale(0.1 -0.1)">
       <use xlink:href="#DejaVuSans-56"/>
      </g>
     </g>
    </g>
    <g id="xtick_4">
     <g id="line2d_7">
      <path clip-path="url(#pc2d93a5fbb)" d="M 105.751011 307.584 
L 105.751011 41.472 
" style="fill:none;stroke:#b0b0b0;stroke-dasharray:5.12,1.28,0.8,1.28;stroke-dashoffset:0;stroke-width:0.8;"/>
     </g>
     <g id="line2d_8">
      <g>
       <use style="stroke:#000000;stroke-width:0.8;" x="105.751011" xlink:href="#m01064a2a84" y="307.584"/>
      </g>
     </g>
     <g id="text_4">
      <!-- 12 -->
      <defs>
       <path d="M 19.1875 8.296875 
L 53.609375 8.296875 
L 53.609375 0 
L 7.328125 0 
L 7.328125 8.296875 
Q 12.9375 14.109375 22.625 23.890625 
Q 32.328125 33.6875 34.8125 36.53125 
Q 39.546875 41.84375 41.421875 45.53125 
Q 43.3125 49.21875 43.3125 52.78125 
Q 43.3125 58.59375 39.234375 62.25 
Q 35.15625 65.921875 28.609375 65.921875 
Q 23.96875 65.921875 18.8125 64.3125 
Q 13.671875 62.703125 7.8125 59.421875 
L 7.8125 69.390625 
Q 13.765625 71.78125 18.9375 73 
Q 24.125 74.21875 28.421875 74.21875 
Q 39.75 74.21875 46.484375 68.546875 
Q 53.21875 62.890625 53.21875 53.421875 
Q 53.21875 48.921875 51.53125 44.890625 
Q 49.859375 40.875 45.40625 35.40625 
Q 44.1875 33.984375 37.640625 27.21875 
Q 31.109375 20.453125 19.1875 8.296875 
z
" id="DejaVuSans-50"/>
      </defs>
      <g transform="translate(99.388511 322.182437)scale(0.1 -0.1)">
       <use xlink:href="#DejaVuSans-49"/>
       <use x="63.623047" xlink:href="#DejaVuSans-50"/>
      </g>
     </g>
    </g>
    <g id="xtick_5">
     <g id="line2d_9">
      <path clip-path="url(#pc2d93a5fbb)" d="M 121.801348 307.584 
L 121.801348 41.472 
" style="fill:none;stroke:#b0b0b0;stroke-dasharray:5.12,1.28,0.8,1.28;stroke-dashoffset:0;stroke-width:0.8;"/>
     </g>
     <g id="line2d_10">
      <g>
       <use style="stroke:#000000;stroke-width:0.8;" x="121.801348" xlink:href="#m01064a2a84" y="307.584"/>
      </g>
     </g>
     <g id="text_5">
      <!-- 16 -->
      <defs>
       <path d="M 33.015625 40.375 
Q 26.375 40.375 22.484375 35.828125 
Q 18.609375 31.296875 18.609375 23.390625 
Q 18.609375 15.53125 22.484375 10.953125 
Q 26.375 6.390625 33.015625 6.390625 
Q 39.65625 6.390625 43.53125 10.953125 
Q 47.40625 15.53125 47.40625 23.390625 
Q 47.40625 31.296875 43.53125 35.828125 
Q 39.65625 40.375 33.015625 40.375 
z
M 52.59375 71.296875 
L 52.59375 62.3125 
Q 48.875 64.0625 45.09375 64.984375 
Q 41.3125 65.921875 37.59375 65.921875 
Q 27.828125 65.921875 22.671875 59.328125 
Q 17.53125 52.734375 16.796875 39.40625 
Q 19.671875 43.65625 24.015625 45.921875 
Q 28.375 48.1875 33.59375 48.1875 
Q 44.578125 48.1875 50.953125 41.515625 
Q 57.328125 34.859375 57.328125 23.390625 
Q 57.328125 12.15625 50.6875 5.359375 
Q 44.046875 -1.421875 33.015625 -1.421875 
Q 20.359375 -1.421875 13.671875 8.265625 
Q 6.984375 17.96875 6.984375 36.375 
Q 6.984375 53.65625 15.1875 63.9375 
Q 23.390625 74.21875 37.203125 74.21875 
Q 40.921875 74.21875 44.703125 73.484375 
Q 48.484375 72.75 52.59375 71.296875 
z
" id="DejaVuSans-54"/>
      </defs>
      <g transform="translate(115.438848 322.182437)scale(0.1 -0.1)">
       <use xlink:href="#DejaVuSans-49"/>
       <use x="63.623047" xlink:href="#DejaVuSans-54"/>
      </g>
     </g>
    </g>
    <g id="xtick_6">
     <g id="line2d_11">
      <path clip-path="url(#pc2d93a5fbb)" d="M 137.851685 307.584 
L 137.851685 41.472 
" style="fill:none;stroke:#b0b0b0;stroke-dasharray:5.12,1.28,0.8,1.28;stroke-dashoffset:0;stroke-width:0.8;"/>
     </g>
     <g id="line2d_12">
      <g>
       <use style="stroke:#000000;stroke-width:0.8;" x="137.851685" xlink:href="#m01064a2a84" y="307.584"/>
      </g>
     </g>
     <g id="text_6">
      <!-- 20 -->
      <defs>
       <path d="M 31.78125 66.40625 
Q 24.171875 66.40625 20.328125 58.90625 
Q 16.5 51.421875 16.5 36.375 
Q 16.5 21.390625 20.328125 13.890625 
Q 24.171875 6.390625 31.78125 6.390625 
Q 39.453125 6.390625 43.28125 13.890625 
Q 47.125 21.390625 47.125 36.375 
Q 47.125 51.421875 43.28125 58.90625 
Q 39.453125 66.40625 31.78125 66.40625 
z
M 31.78125 74.21875 
Q 44.046875 74.21875 50.515625 64.515625 
Q 56.984375 54.828125 56.984375 36.375 
Q 56.984375 17.96875 50.515625 8.265625 
Q 44.046875 -1.421875 31.78125 -1.421875 
Q 19.53125 -1.421875 13.0625 8.265625 
Q 6.59375 17.96875 6.59375 36.375 
Q 6.59375 54.828125 13.0625 64.515625 
Q 19.53125 74.21875 31.78125 74.21875 
z
" id="DejaVuSans-48"/>
      </defs>
      <g transform="translate(131.489185 322.182437)scale(0.1 -0.1)">
       <use xlink:href="#DejaVuSans-50"/>
       <use x="63.623047" xlink:href="#DejaVuSans-48"/>
      </g>
     </g>
    </g>
    <g id="xtick_7">
     <g id="line2d_13">
      <path clip-path="url(#pc2d93a5fbb)" d="M 153.902022 307.584 
L 153.902022 41.472 
" style="fill:none;stroke:#b0b0b0;stroke-dasharray:5.12,1.28,0.8,1.28;stroke-dashoffset:0;stroke-width:0.8;"/>
     </g>
     <g id="line2d_14">
      <g>
       <use style="stroke:#000000;stroke-width:0.8;" x="153.902022" xlink:href="#m01064a2a84" y="307.584"/>
      </g>
     </g>
     <g id="text_7">
      <!-- 24 -->
      <g transform="translate(147.539522 322.182437)scale(0.1 -0.1)">
       <use xlink:href="#DejaVuSans-50"/>
       <use x="63.623047" xlink:href="#DejaVuSans-52"/>
      </g>
     </g>
    </g>
    <g id="xtick_8">
     <g id="line2d_15">
      <path clip-path="url(#pc2d93a5fbb)" d="M 169.95236 307.584 
L 169.95236 41.472 
" style="fill:none;stroke:#b0b0b0;stroke-dasharray:5.12,1.28,0.8,1.28;stroke-dashoffset:0;stroke-width:0.8;"/>
     </g>
     <g id="line2d_16">
      <g>
       <use style="stroke:#000000;stroke-width:0.8;" x="169.95236" xlink:href="#m01064a2a84" y="307.584"/>
      </g>
     </g>
     <g id="text_8">
      <!-- 28 -->
      <g transform="translate(163.58986 322.182437)scale(0.1 -0.1)">
       <use xlink:href="#DejaVuSans-50"/>
       <use x="63.623047" xlink:href="#DejaVuSans-56"/>
      </g>
     </g>
    </g>
    <g id="xtick_9">
     <g id="line2d_17">
      <path clip-path="url(#pc2d93a5fbb)" d="M 186.002697 307.584 
L 186.002697 41.472 
" style="fill:none;stroke:#b0b0b0;stroke-dasharray:5.12,1.28,0.8,1.28;stroke-dashoffset:0;stroke-width:0.8;"/>
     </g>
     <g id="line2d_18">
      <g>
       <use style="stroke:#000000;stroke-width:0.8;" x="186.002697" xlink:href="#m01064a2a84" y="307.584"/>
      </g>
     </g>
     <g id="text_9">
      <!-- 32 -->
      <defs>
       <path d="M 40.578125 39.3125 
Q 47.65625 37.796875 51.625 33 
Q 55.609375 28.21875 55.609375 21.1875 
Q 55.609375 10.40625 48.1875 4.484375 
Q 40.765625 -1.421875 27.09375 -1.421875 
Q 22.515625 -1.421875 17.65625 -0.515625 
Q 12.796875 0.390625 7.625 2.203125 
L 7.625 11.71875 
Q 11.71875 9.328125 16.59375 8.109375 
Q 21.484375 6.890625 26.8125 6.890625 
Q 36.078125 6.890625 40.9375 10.546875 
Q 45.796875 14.203125 45.796875 21.1875 
Q 45.796875 27.640625 41.28125 31.265625 
Q 36.765625 34.90625 28.71875 34.90625 
L 20.21875 34.90625 
L 20.21875 43.015625 
L 29.109375 43.015625 
Q 36.375 43.015625 40.234375 45.921875 
Q 44.09375 48.828125 44.09375 54.296875 
Q 44.09375 59.90625 40.109375 62.90625 
Q 36.140625 65.921875 28.71875 65.921875 
Q 24.65625 65.921875 20.015625 65.03125 
Q 15.375 64.15625 9.8125 62.3125 
L 9.8125 71.09375 
Q 15.4375 72.65625 20.34375 73.4375 
Q 25.25 74.21875 29.59375 74.21875 
Q 40.828125 74.21875 47.359375 69.109375 
Q 53.90625 64.015625 53.90625 55.328125 
Q 53.90625 49.265625 50.4375 45.09375 
Q 46.96875 40.921875 40.578125 39.3125 
z
" id="DejaVuSans-51"/>
      </defs>
      <g transform="translate(179.640197 322.182437)scale(0.1 -0.1)">
       <use xlink:href="#DejaVuSans-51"/>
       <use x="63.623047" xlink:href="#DejaVuSans-50"/>
      </g>
     </g>
    </g>
    <g id="xtick_10">
     <g id="line2d_19">
      <path clip-path="url(#pc2d93a5fbb)" d="M 202.053034 307.584 
L 202.053034 41.472 
" style="fill:none;stroke:#b0b0b0;stroke-dasharray:5.12,1.28,0.8,1.28;stroke-dashoffset:0;stroke-width:0.8;"/>
     </g>
     <g id="line2d_20">
      <g>
       <use style="stroke:#000000;stroke-width:0.8;" x="202.053034" xlink:href="#m01064a2a84" y="307.584"/>
      </g>
     </g>
     <g id="text_10">
      <!-- 36 -->
      <g transform="translate(195.690534 322.182437)scale(0.1 -0.1)">
       <use xlink:href="#DejaVuSans-51"/>
       <use x="63.623047" xlink:href="#DejaVuSans-54"/>
      </g>
     </g>
    </g>
    <g id="xtick_11">
     <g id="line2d_21">
      <path clip-path="url(#pc2d93a5fbb)" d="M 218.103371 307.584 
L 218.103371 41.472 
" style="fill:none;stroke:#b0b0b0;stroke-dasharray:5.12,1.28,0.8,1.28;stroke-dashoffset:0;stroke-width:0.8;"/>
     </g>
     <g id="line2d_22">
      <g>
       <use style="stroke:#000000;stroke-width:0.8;" x="218.103371" xlink:href="#m01064a2a84" y="307.584"/>
      </g>
     </g>
     <g id="text_11">
      <!-- 40 -->
      <g transform="translate(211.740871 322.182437)scale(0.1 -0.1)">
       <use xlink:href="#DejaVuSans-52"/>
       <use x="63.623047" xlink:href="#DejaVuSans-48"/>
      </g>
     </g>
    </g>
    <g id="xtick_12">
     <g id="line2d_23">
      <path clip-path="url(#pc2d93a5fbb)" d="M 234.153708 307.584 
L 234.153708 41.472 
" style="fill:none;stroke:#b0b0b0;stroke-dasharray:5.12,1.28,0.8,1.28;stroke-dashoffset:0;stroke-width:0.8;"/>
     </g>
     <g id="line2d_24">
      <g>
       <use style="stroke:#000000;stroke-width:0.8;" x="234.153708" xlink:href="#m01064a2a84" y="307.584"/>
      </g>
     </g>
     <g id="text_12">
      <!-- 44 -->
      <g transform="translate(227.791208 322.182437)scale(0.1 -0.1)">
       <use xlink:href="#DejaVuSans-52"/>
       <use x="63.623047" xlink:href="#DejaVuSans-52"/>
      </g>
     </g>
    </g>
    <g id="xtick_13">
     <g id="line2d_25">
      <path clip-path="url(#pc2d93a5fbb)" d="M 250.204045 307.584 
L 250.204045 41.472 
" style="fill:none;stroke:#b0b0b0;stroke-dasharray:5.12,1.28,0.8,1.28;stroke-dashoffset:0;stroke-width:0.8;"/>
     </g>
     <g id="line2d_26">
      <g>
       <use style="stroke:#000000;stroke-width:0.8;" x="250.204045" xlink:href="#m01064a2a84" y="307.584"/>
      </g>
     </g>
     <g id="text_13">
      <!-- 48 -->
      <g transform="translate(243.841545 322.182437)scale(0.1 -0.1)">
       <use xlink:href="#DejaVuSans-52"/>
       <use x="63.623047" xlink:href="#DejaVuSans-56"/>
      </g>
     </g>
    </g>
    <g id="xtick_14">
     <g id="line2d_27">
      <path clip-path="url(#pc2d93a5fbb)" d="M 266.254382 307.584 
L 266.254382 41.472 
" style="fill:none;stroke:#b0b0b0;stroke-dasharray:5.12,1.28,0.8,1.28;stroke-dashoffset:0;stroke-width:0.8;"/>
     </g>
     <g id="line2d_28">
      <g>
       <use style="stroke:#000000;stroke-width:0.8;" x="266.254382" xlink:href="#m01064a2a84" y="307.584"/>
      </g>
     </g>
     <g id="text_14">
      <!-- 52 -->
      <defs>
       <path d="M 10.796875 72.90625 
L 49.515625 72.90625 
L 49.515625 64.59375 
L 19.828125 64.59375 
L 19.828125 46.734375 
Q 21.96875 47.46875 24.109375 47.828125 
Q 26.265625 48.1875 28.421875 48.1875 
Q 40.625 48.1875 47.75 41.5 
Q 54.890625 34.8125 54.890625 23.390625 
Q 54.890625 11.625 47.5625 5.09375 
Q 40.234375 -1.421875 26.90625 -1.421875 
Q 22.3125 -1.421875 17.546875 -0.640625 
Q 12.796875 0.140625 7.71875 1.703125 
L 7.71875 11.625 
Q 12.109375 9.234375 16.796875 8.0625 
Q 21.484375 6.890625 26.703125 6.890625 
Q 35.15625 6.890625 40.078125 11.328125 
Q 45.015625 15.765625 45.015625 23.390625 
Q 45.015625 31 40.078125 35.4375 
Q 35.15625 39.890625 26.703125 39.890625 
Q 22.75 39.890625 18.8125 39.015625 
Q 14.890625 38.140625 10.796875 36.28125 
z
" id="DejaVuSans-53"/>
      </defs>
      <g transform="translate(259.891882 322.182437)scale(0.1 -0.1)">
       <use xlink:href="#DejaVuSans-53"/>
       <use x="63.623047" xlink:href="#DejaVuSans-50"/>
      </g>
     </g>
    </g>
    <g id="xtick_15">
     <g id="line2d_29">
      <path clip-path="url(#pc2d93a5fbb)" d="M 282.304719 307.584 
L 282.304719 41.472 
" style="fill:none;stroke:#b0b0b0;stroke-dasharray:5.12,1.28,0.8,1.28;stroke-dashoffset:0;stroke-width:0.8;"/>
     </g>
     <g id="line2d_30">
      <g>
       <use style="stroke:#000000;stroke-width:0.8;" x="282.304719" xlink:href="#m01064a2a84" y="307.584"/>
      </g>
     </g>
     <g id="text_15">
      <!-- 56 -->
      <g transform="translate(275.942219 322.182437)scale(0.1 -0.1)">
       <use xlink:href="#DejaVuSans-53"/>
       <use x="63.623047" xlink:href="#DejaVuSans-54"/>
      </g>
     </g>
    </g>
    <g id="xtick_16">
     <g id="line2d_31">
      <path clip-path="url(#pc2d93a5fbb)" d="M 298.355056 307.584 
L 298.355056 41.472 
" style="fill:none;stroke:#b0b0b0;stroke-dasharray:5.12,1.28,0.8,1.28;stroke-dashoffset:0;stroke-width:0.8;"/>
     </g>
     <g id="line2d_32">
      <g>
       <use style="stroke:#000000;stroke-width:0.8;" x="298.355056" xlink:href="#m01064a2a84" y="307.584"/>
      </g>
     </g>
     <g id="text_16">
      <!-- 60 -->
      <g transform="translate(291.992556 322.182437)scale(0.1 -0.1)">
       <use xlink:href="#DejaVuSans-54"/>
       <use x="63.623047" xlink:href="#DejaVuSans-48"/>
      </g>
     </g>
    </g>
    <g id="xtick_17">
     <g id="line2d_33">
      <path clip-path="url(#pc2d93a5fbb)" d="M 314.405393 307.584 
L 314.405393 41.472 
" style="fill:none;stroke:#b0b0b0;stroke-dasharray:5.12,1.28,0.8,1.28;stroke-dashoffset:0;stroke-width:0.8;"/>
     </g>
     <g id="line2d_34">
      <g>
       <use style="stroke:#000000;stroke-width:0.8;" x="314.405393" xlink:href="#m01064a2a84" y="307.584"/>
      </g>
     </g>
     <g id="text_17">
      <!-- 64 -->
      <g transform="translate(308.042893 322.182437)scale(0.1 -0.1)">
       <use xlink:href="#DejaVuSans-54"/>
       <use x="63.623047" xlink:href="#DejaVuSans-52"/>
      </g>
     </g>
    </g>
    <g id="xtick_18">
     <g id="line2d_35">
      <path clip-path="url(#pc2d93a5fbb)" d="M 330.45573 307.584 
L 330.45573 41.472 
" style="fill:none;stroke:#b0b0b0;stroke-dasharray:5.12,1.28,0.8,1.28;stroke-dashoffset:0;stroke-width:0.8;"/>
     </g>
     <g id="line2d_36">
      <g>
       <use style="stroke:#000000;stroke-width:0.8;" x="330.45573" xlink:href="#m01064a2a84" y="307.584"/>
      </g>
     </g>
     <g id="text_18">
      <!-- 68 -->
      <g transform="translate(324.09323 322.182437)scale(0.1 -0.1)">
       <use xlink:href="#DejaVuSans-54"/>
       <use x="63.623047" xlink:href="#DejaVuSans-56"/>
      </g>
     </g>
    </g>
    <g id="xtick_19">
     <g id="line2d_37">
      <path clip-path="url(#pc2d93a5fbb)" d="M 346.506067 307.584 
L 346.506067 41.472 
" style="fill:none;stroke:#b0b0b0;stroke-dasharray:5.12,1.28,0.8,1.28;stroke-dashoffset:0;stroke-width:0.8;"/>
     </g>
     <g id="line2d_38">
      <g>
       <use style="stroke:#000000;stroke-width:0.8;" x="346.506067" xlink:href="#m01064a2a84" y="307.584"/>
      </g>
     </g>
     <g id="text_19">
      <!-- 72 -->
      <defs>
       <path d="M 8.203125 72.90625 
L 55.078125 72.90625 
L 55.078125 68.703125 
L 28.609375 0 
L 18.3125 0 
L 43.21875 64.59375 
L 8.203125 64.59375 
z
" id="DejaVuSans-55"/>
      </defs>
      <g transform="translate(340.143567 322.182437)scale(0.1 -0.1)">
       <use xlink:href="#DejaVuSans-55"/>
       <use x="63.623047" xlink:href="#DejaVuSans-50"/>
      </g>
     </g>
    </g>
    <g id="xtick_20">
     <g id="line2d_39">
      <path clip-path="url(#pc2d93a5fbb)" d="M 362.556404 307.584 
L 362.556404 41.472 
" style="fill:none;stroke:#b0b0b0;stroke-dasharray:5.12,1.28,0.8,1.28;stroke-dashoffset:0;stroke-width:0.8;"/>
     </g>
     <g id="line2d_40">
      <g>
       <use style="stroke:#000000;stroke-width:0.8;" x="362.556404" xlink:href="#m01064a2a84" y="307.584"/>
      </g>
     </g>
     <g id="text_20">
      <!-- 76 -->
      <g transform="translate(356.193904 322.182437)scale(0.1 -0.1)">
       <use xlink:href="#DejaVuSans-55"/>
       <use x="63.623047" xlink:href="#DejaVuSans-54"/>
      </g>
     </g>
    </g>
    <g id="xtick_21">
     <g id="line2d_41">
      <path clip-path="url(#pc2d93a5fbb)" d="M 378.606742 307.584 
L 378.606742 41.472 
" style="fill:none;stroke:#b0b0b0;stroke-dasharray:5.12,1.28,0.8,1.28;stroke-dashoffset:0;stroke-width:0.8;"/>
     </g>
     <g id="line2d_42">
      <g>
       <use style="stroke:#000000;stroke-width:0.8;" x="378.606742" xlink:href="#m01064a2a84" y="307.584"/>
      </g>
     </g>
     <g id="text_21">
      <!-- 80 -->
      <g transform="translate(372.244242 322.182437)scale(0.1 -0.1)">
       <use xlink:href="#DejaVuSans-56"/>
       <use x="63.623047" xlink:href="#DejaVuSans-48"/>
      </g>
     </g>
    </g>
    <g id="xtick_22">
     <g id="line2d_43">
      <path clip-path="url(#pc2d93a5fbb)" d="M 394.657079 307.584 
L 394.657079 41.472 
" style="fill:none;stroke:#b0b0b0;stroke-dasharray:5.12,1.28,0.8,1.28;stroke-dashoffset:0;stroke-width:0.8;"/>
     </g>
     <g id="line2d_44">
      <g>
       <use style="stroke:#000000;stroke-width:0.8;" x="394.657079" xlink:href="#m01064a2a84" y="307.584"/>
      </g>
     </g>
     <g id="text_22">
      <!-- 84 -->
      <g transform="translate(388.294579 322.182437)scale(0.1 -0.1)">
       <use xlink:href="#DejaVuSans-56"/>
       <use x="63.623047" xlink:href="#DejaVuSans-52"/>
      </g>
     </g>
    </g>
    <g id="xtick_23">
     <g id="line2d_45">
      <path clip-path="url(#pc2d93a5fbb)" d="M 410.707416 307.584 
L 410.707416 41.472 
" style="fill:none;stroke:#b0b0b0;stroke-dasharray:5.12,1.28,0.8,1.28;stroke-dashoffset:0;stroke-width:0.8;"/>
     </g>
     <g id="line2d_46">
      <g>
       <use style="stroke:#000000;stroke-width:0.8;" x="410.707416" xlink:href="#m01064a2a84" y="307.584"/>
      </g>
     </g>
     <g id="text_23">
      <!-- 88 -->
      <g transform="translate(404.344916 322.182437)scale(0.1 -0.1)">
       <use xlink:href="#DejaVuSans-56"/>
       <use x="63.623047" xlink:href="#DejaVuSans-56"/>
      </g>
     </g>
    </g>
    <g id="text_24">
     <!-- threads -->
     <defs>
      <path d="M 18.3125 70.21875 
L 18.3125 54.6875 
L 36.8125 54.6875 
L 36.8125 47.703125 
L 18.3125 47.703125 
L 18.3125 18.015625 
Q 18.3125 11.328125 20.140625 9.421875 
Q 21.96875 7.515625 27.59375 7.515625 
L 36.8125 7.515625 
L 36.8125 0 
L 27.59375 0 
Q 17.1875 0 13.234375 3.875 
Q 9.28125 7.765625 9.28125 18.015625 
L 9.28125 47.703125 
L 2.6875 47.703125 
L 2.6875 54.6875 
L 9.28125 54.6875 
L 9.28125 70.21875 
z
" id="DejaVuSans-116"/>
      <path d="M 54.890625 33.015625 
L 54.890625 0 
L 45.90625 0 
L 45.90625 32.71875 
Q 45.90625 40.484375 42.875 44.328125 
Q 39.84375 48.1875 33.796875 48.1875 
Q 26.515625 48.1875 22.3125 43.546875 
Q 18.109375 38.921875 18.109375 30.90625 
L 18.109375 0 
L 9.078125 0 
L 9.078125 75.984375 
L 18.109375 75.984375 
L 18.109375 46.1875 
Q 21.34375 51.125 25.703125 53.5625 
Q 30.078125 56 35.796875 56 
Q 45.21875 56 50.046875 50.171875 
Q 54.890625 44.34375 54.890625 33.015625 
z
" id="DejaVuSans-104"/>
      <path d="M 41.109375 46.296875 
Q 39.59375 47.171875 37.8125 47.578125 
Q 36.03125 48 33.890625 48 
Q 26.265625 48 22.1875 43.046875 
Q 18.109375 38.09375 18.109375 28.8125 
L 18.109375 0 
L 9.078125 0 
L 9.078125 54.6875 
L 18.109375 54.6875 
L 18.109375 46.1875 
Q 20.953125 51.171875 25.484375 53.578125 
Q 30.03125 56 36.53125 56 
Q 37.453125 56 38.578125 55.875 
Q 39.703125 55.765625 41.0625 55.515625 
z
" id="DejaVuSans-114"/>
      <path d="M 56.203125 29.59375 
L 56.203125 25.203125 
L 14.890625 25.203125 
Q 15.484375 15.921875 20.484375 11.0625 
Q 25.484375 6.203125 34.421875 6.203125 
Q 39.59375 6.203125 44.453125 7.46875 
Q 49.3125 8.734375 54.109375 11.28125 
L 54.109375 2.78125 
Q 49.265625 0.734375 44.1875 -0.34375 
Q 39.109375 -1.421875 33.890625 -1.421875 
Q 20.796875 -1.421875 13.15625 6.1875 
Q 5.515625 13.8125 5.515625 26.8125 
Q 5.515625 40.234375 12.765625 48.109375 
Q 20.015625 56 32.328125 56 
Q 43.359375 56 49.78125 48.890625 
Q 56.203125 41.796875 56.203125 29.59375 
z
M 47.21875 32.234375 
Q 47.125 39.59375 43.09375 43.984375 
Q 39.0625 48.390625 32.421875 48.390625 
Q 24.90625 48.390625 20.390625 44.140625 
Q 15.875 39.890625 15.1875 32.171875 
z
" id="DejaVuSans-101"/>
      <path d="M 34.28125 27.484375 
Q 23.390625 27.484375 19.1875 25 
Q 14.984375 22.515625 14.984375 16.5 
Q 14.984375 11.71875 18.140625 8.90625 
Q 21.296875 6.109375 26.703125 6.109375 
Q 34.1875 6.109375 38.703125 11.40625 
Q 43.21875 16.703125 43.21875 25.484375 
L 43.21875 27.484375 
z
M 52.203125 31.203125 
L 52.203125 0 
L 43.21875 0 
L 43.21875 8.296875 
Q 40.140625 3.328125 35.546875 0.953125 
Q 30.953125 -1.421875 24.3125 -1.421875 
Q 15.921875 -1.421875 10.953125 3.296875 
Q 6 8.015625 6 15.921875 
Q 6 25.140625 12.171875 29.828125 
Q 18.359375 34.515625 30.609375 34.515625 
L 43.21875 34.515625 
L 43.21875 35.40625 
Q 43.21875 41.609375 39.140625 45 
Q 35.0625 48.390625 27.6875 48.390625 
Q 23 48.390625 18.546875 47.265625 
Q 14.109375 46.140625 10.015625 43.890625 
L 10.015625 52.203125 
Q 14.9375 54.109375 19.578125 55.046875 
Q 24.21875 56 28.609375 56 
Q 40.484375 56 46.34375 49.84375 
Q 52.203125 43.703125 52.203125 31.203125 
z
" id="DejaVuSans-97"/>
      <path d="M 45.40625 46.390625 
L 45.40625 75.984375 
L 54.390625 75.984375 
L 54.390625 0 
L 45.40625 0 
L 45.40625 8.203125 
Q 42.578125 3.328125 38.25 0.953125 
Q 33.9375 -1.421875 27.875 -1.421875 
Q 17.96875 -1.421875 11.734375 6.484375 
Q 5.515625 14.40625 5.515625 27.296875 
Q 5.515625 40.1875 11.734375 48.09375 
Q 17.96875 56 27.875 56 
Q 33.9375 56 38.25 53.625 
Q 42.578125 51.265625 45.40625 46.390625 
z
M 14.796875 27.296875 
Q 14.796875 17.390625 18.875 11.75 
Q 22.953125 6.109375 30.078125 6.109375 
Q 37.203125 6.109375 41.296875 11.75 
Q 45.40625 17.390625 45.40625 27.296875 
Q 45.40625 37.203125 41.296875 42.84375 
Q 37.203125 48.484375 30.078125 48.484375 
Q 22.953125 48.484375 18.875 42.84375 
Q 14.796875 37.203125 14.796875 27.296875 
z
" id="DejaVuSans-100"/>
      <path d="M 44.28125 53.078125 
L 44.28125 44.578125 
Q 40.484375 46.53125 36.375 47.5 
Q 32.28125 48.484375 27.875 48.484375 
Q 21.1875 48.484375 17.84375 46.4375 
Q 14.5 44.390625 14.5 40.28125 
Q 14.5 37.15625 16.890625 35.375 
Q 19.28125 33.59375 26.515625 31.984375 
L 29.59375 31.296875 
Q 39.15625 29.25 43.1875 25.515625 
Q 47.21875 21.78125 47.21875 15.09375 
Q 47.21875 7.46875 41.1875 3.015625 
Q 35.15625 -1.421875 24.609375 -1.421875 
Q 20.21875 -1.421875 15.453125 -0.5625 
Q 10.6875 0.296875 5.421875 2 
L 5.421875 11.28125 
Q 10.40625 8.6875 15.234375 7.390625 
Q 20.0625 6.109375 24.8125 6.109375 
Q 31.15625 6.109375 34.5625 8.28125 
Q 37.984375 10.453125 37.984375 14.40625 
Q 37.984375 18.0625 35.515625 20.015625 
Q 33.0625 21.96875 24.703125 23.78125 
L 21.578125 24.515625 
Q 13.234375 26.265625 9.515625 29.90625 
Q 5.8125 33.546875 5.8125 39.890625 
Q 5.8125 47.609375 11.28125 51.796875 
Q 16.75 56 26.8125 56 
Q 31.78125 56 36.171875 55.265625 
Q 40.578125 54.546875 44.28125 53.078125 
z
" id="DejaVuSans-115"/>
     </defs>
     <g transform="translate(217.168594 335.860562)scale(0.1 -0.1)">
      <use xlink:href="#DejaVuSans-116"/>
      <use x="39.208984" xlink:href="#DejaVuSans-104"/>
      <use x="102.587891" xlink:href="#DejaVuSans-114"/>
      <use x="141.451172" xlink:href="#DejaVuSans-101"/>
      <use x="202.974609" xlink:href="#DejaVuSans-97"/>
      <use x="264.253906" xlink:href="#DejaVuSans-100"/>
      <use x="327.730469" xlink:href="#DejaVuSans-115"/>
     </g>
    </g>
   </g>
   <g id="matplotlib.axis_2">
    <g id="ytick_1">
     <g id="line2d_47">
      <path clip-path="url(#pc2d93a5fbb)" d="M 57.6 283.424293 
L 414.72 283.424293 
" style="fill:none;stroke:#b0b0b0;stroke-dasharray:5.12,1.28,0.8,1.28;stroke-dashoffset:0;stroke-width:0.8;"/>
     </g>
     <g id="line2d_48">
      <defs>
       <path d="M 0 0 
L -3.5 0 
" id="mb3424d887c" style="stroke:#000000;stroke-width:0.8;"/>
      </defs>
      <g>
       <use style="stroke:#000000;stroke-width:0.8;" x="57.6" xlink:href="#mb3424d887c" y="283.424293"/>
      </g>
     </g>
     <g id="text_25">
      <!-- 1.0 -->
      <defs>
       <path d="M 10.6875 12.40625 
L 21 12.40625 
L 21 0 
L 10.6875 0 
z
" id="DejaVuSans-46"/>
      </defs>
      <g transform="translate(34.696875 287.223511)scale(0.1 -0.1)">
       <use xlink:href="#DejaVuSans-49"/>
       <use x="63.623047" xlink:href="#DejaVuSans-46"/>
       <use x="95.410156" xlink:href="#DejaVuSans-48"/>
      </g>
     </g>
    </g>
    <g id="ytick_2">
     <g id="line2d_49">
      <path clip-path="url(#pc2d93a5fbb)" d="M 57.6 253.365531 
L 414.72 253.365531 
" style="fill:none;stroke:#b0b0b0;stroke-dasharray:5.12,1.28,0.8,1.28;stroke-dashoffset:0;stroke-width:0.8;"/>
     </g>
     <g id="line2d_50">
      <g>
       <use style="stroke:#000000;stroke-width:0.8;" x="57.6" xlink:href="#mb3424d887c" y="253.365531"/>
      </g>
     </g>
     <g id="text_26">
      <!-- 1.5 -->
      <g transform="translate(34.696875 257.16475)scale(0.1 -0.1)">
       <use xlink:href="#DejaVuSans-49"/>
       <use x="63.623047" xlink:href="#DejaVuSans-46"/>
       <use x="95.410156" xlink:href="#DejaVuSans-53"/>
      </g>
     </g>
    </g>
    <g id="ytick_3">
     <g id="line2d_51">
      <path clip-path="url(#pc2d93a5fbb)" d="M 57.6 223.30677 
L 414.72 223.30677 
" style="fill:none;stroke:#b0b0b0;stroke-dasharray:5.12,1.28,0.8,1.28;stroke-dashoffset:0;stroke-width:0.8;"/>
     </g>
     <g id="line2d_52">
      <g>
       <use style="stroke:#000000;stroke-width:0.8;" x="57.6" xlink:href="#mb3424d887c" y="223.30677"/>
      </g>
     </g>
     <g id="text_27">
      <!-- 2.0 -->
      <g transform="translate(34.696875 227.105989)scale(0.1 -0.1)">
       <use xlink:href="#DejaVuSans-50"/>
       <use x="63.623047" xlink:href="#DejaVuSans-46"/>
       <use x="95.410156" xlink:href="#DejaVuSans-48"/>
      </g>
     </g>
    </g>
    <g id="ytick_4">
     <g id="line2d_53">
      <path clip-path="url(#pc2d93a5fbb)" d="M 57.6 193.248009 
L 414.72 193.248009 
" style="fill:none;stroke:#b0b0b0;stroke-dasharray:5.12,1.28,0.8,1.28;stroke-dashoffset:0;stroke-width:0.8;"/>
     </g>
     <g id="line2d_54">
      <g>
       <use style="stroke:#000000;stroke-width:0.8;" x="57.6" xlink:href="#mb3424d887c" y="193.248009"/>
      </g>
     </g>
     <g id="text_28">
      <!-- 2.5 -->
      <g transform="translate(34.696875 197.047228)scale(0.1 -0.1)">
       <use xlink:href="#DejaVuSans-50"/>
       <use x="63.623047" xlink:href="#DejaVuSans-46"/>
       <use x="95.410156" xlink:href="#DejaVuSans-53"/>
      </g>
     </g>
    </g>
    <g id="ytick_5">
     <g id="line2d_55">
      <path clip-path="url(#pc2d93a5fbb)" d="M 57.6 163.189248 
L 414.72 163.189248 
" style="fill:none;stroke:#b0b0b0;stroke-dasharray:5.12,1.28,0.8,1.28;stroke-dashoffset:0;stroke-width:0.8;"/>
     </g>
     <g id="line2d_56">
      <g>
       <use style="stroke:#000000;stroke-width:0.8;" x="57.6" xlink:href="#mb3424d887c" y="163.189248"/>
      </g>
     </g>
     <g id="text_29">
      <!-- 3.0 -->
      <g transform="translate(34.696875 166.988467)scale(0.1 -0.1)">
       <use xlink:href="#DejaVuSans-51"/>
       <use x="63.623047" xlink:href="#DejaVuSans-46"/>
       <use x="95.410156" xlink:href="#DejaVuSans-48"/>
      </g>
     </g>
    </g>
    <g id="ytick_6">
     <g id="line2d_57">
      <path clip-path="url(#pc2d93a5fbb)" d="M 57.6 133.130487 
L 414.72 133.130487 
" style="fill:none;stroke:#b0b0b0;stroke-dasharray:5.12,1.28,0.8,1.28;stroke-dashoffset:0;stroke-width:0.8;"/>
     </g>
     <g id="line2d_58">
      <g>
       <use style="stroke:#000000;stroke-width:0.8;" x="57.6" xlink:href="#mb3424d887c" y="133.130487"/>
      </g>
     </g>
     <g id="text_30">
      <!-- 3.5 -->
      <g transform="translate(34.696875 136.929705)scale(0.1 -0.1)">
       <use xlink:href="#DejaVuSans-51"/>
       <use x="63.623047" xlink:href="#DejaVuSans-46"/>
       <use x="95.410156" xlink:href="#DejaVuSans-53"/>
      </g>
     </g>
    </g>
    <g id="ytick_7">
     <g id="line2d_59">
      <path clip-path="url(#pc2d93a5fbb)" d="M 57.6 103.071725 
L 414.72 103.071725 
" style="fill:none;stroke:#b0b0b0;stroke-dasharray:5.12,1.28,0.8,1.28;stroke-dashoffset:0;stroke-width:0.8;"/>
     </g>
     <g id="line2d_60">
      <g>
       <use style="stroke:#000000;stroke-width:0.8;" x="57.6" xlink:href="#mb3424d887c" y="103.071725"/>
      </g>
     </g>
     <g id="text_31">
      <!-- 4.0 -->
      <g transform="translate(34.696875 106.870944)scale(0.1 -0.1)">
       <use xlink:href="#DejaVuSans-52"/>
       <use x="63.623047" xlink:href="#DejaVuSans-46"/>
       <use x="95.410156" xlink:href="#DejaVuSans-48"/>
      </g>
     </g>
    </g>
    <g id="ytick_8">
     <g id="line2d_61">
      <path clip-path="url(#pc2d93a5fbb)" d="M 57.6 73.012964 
L 414.72 73.012964 
" style="fill:none;stroke:#b0b0b0;stroke-dasharray:5.12,1.28,0.8,1.28;stroke-dashoffset:0;stroke-width:0.8;"/>
     </g>
     <g id="line2d_62">
      <g>
       <use style="stroke:#000000;stroke-width:0.8;" x="57.6" xlink:href="#mb3424d887c" y="73.012964"/>
      </g>
     </g>
     <g id="text_32">
      <!-- 4.5 -->
      <g transform="translate(34.696875 76.812183)scale(0.1 -0.1)">
       <use xlink:href="#DejaVuSans-52"/>
       <use x="63.623047" xlink:href="#DejaVuSans-46"/>
       <use x="95.410156" xlink:href="#DejaVuSans-53"/>
      </g>
     </g>
    </g>
    <g id="ytick_9">
     <g id="line2d_63">
      <path clip-path="url(#pc2d93a5fbb)" d="M 57.6 42.954203 
L 414.72 42.954203 
" style="fill:none;stroke:#b0b0b0;stroke-dasharray:5.12,1.28,0.8,1.28;stroke-dashoffset:0;stroke-width:0.8;"/>
     </g>
     <g id="line2d_64">
      <g>
       <use style="stroke:#000000;stroke-width:0.8;" x="57.6" xlink:href="#mb3424d887c" y="42.954203"/>
      </g>
     </g>
     <g id="text_33">
      <!-- 5.0 -->
      <g transform="translate(34.696875 46.753422)scale(0.1 -0.1)">
       <use xlink:href="#DejaVuSans-53"/>
       <use x="63.623047" xlink:href="#DejaVuSans-46"/>
       <use x="95.410156" xlink:href="#DejaVuSans-48"/>
      </g>
     </g>
    </g>
    <g id="text_34">
     <!-- speed up -->
     <defs>
      <path d="M 18.109375 8.203125 
L 18.109375 -20.796875 
L 9.078125 -20.796875 
L 9.078125 54.6875 
L 18.109375 54.6875 
L 18.109375 46.390625 
Q 20.953125 51.265625 25.265625 53.625 
Q 29.59375 56 35.59375 56 
Q 45.5625 56 51.78125 48.09375 
Q 58.015625 40.1875 58.015625 27.296875 
Q 58.015625 14.40625 51.78125 6.484375 
Q 45.5625 -1.421875 35.59375 -1.421875 
Q 29.59375 -1.421875 25.265625 0.953125 
Q 20.953125 3.328125 18.109375 8.203125 
z
M 48.6875 27.296875 
Q 48.6875 37.203125 44.609375 42.84375 
Q 40.53125 48.484375 33.40625 48.484375 
Q 26.265625 48.484375 22.1875 42.84375 
Q 18.109375 37.203125 18.109375 27.296875 
Q 18.109375 17.390625 22.1875 11.75 
Q 26.265625 6.109375 33.40625 6.109375 
Q 40.53125 6.109375 44.609375 11.75 
Q 48.6875 17.390625 48.6875 27.296875 
z
" id="DejaVuSans-112"/>
      <path id="DejaVuSans-32"/>
      <path d="M 8.5 21.578125 
L 8.5 54.6875 
L 17.484375 54.6875 
L 17.484375 21.921875 
Q 17.484375 14.15625 20.5 10.265625 
Q 23.53125 6.390625 29.59375 6.390625 
Q 36.859375 6.390625 41.078125 11.03125 
Q 45.3125 15.671875 45.3125 23.6875 
L 45.3125 54.6875 
L 54.296875 54.6875 
L 54.296875 0 
L 45.3125 0 
L 45.3125 8.40625 
Q 42.046875 3.421875 37.71875 1 
Q 33.40625 -1.421875 27.6875 -1.421875 
Q 18.265625 -1.421875 13.375 4.4375 
Q 8.5 10.296875 8.5 21.578125 
z
M 31.109375 56 
z
" id="DejaVuSans-117"/>
     </defs>
     <g transform="translate(28.617187 197.566281)rotate(-90)scale(0.1 -0.1)">
      <use xlink:href="#DejaVuSans-115"/>
      <use x="52.099609" xlink:href="#DejaVuSans-112"/>
      <use x="115.576172" xlink:href="#DejaVuSans-101"/>
      <use x="177.099609" xlink:href="#DejaVuSans-101"/>
      <use x="238.623047" xlink:href="#DejaVuSans-100"/>
      <use x="302.099609" xlink:href="#DejaVuSans-32"/>
      <use x="333.886719" xlink:href="#DejaVuSans-117"/>
      <use x="397.265625" xlink:href="#DejaVuSans-112"/>
     </g>
    </g>
   </g>
   <g id="line2d_65">
    <path clip-path="url(#pc2d93a5fbb)" d="M 61.612584 291.1057 
L 65.625169 262.051705 
L 69.637753 237.490156 
L 73.650337 214.262631 
L 77.662921 243.44503 
L 81.675506 187.723989 
L 85.68809 221.936642 
L 89.700674 149.343046 
L 93.713258 187.759446 
L 97.725843 192.032594 
L 101.738427 167.47488 
L 105.751011 113.427243 
L 109.763596 139.799803 
L 113.77618 142.167908 
L 117.788764 123.341152 
L 121.801348 122.074288 
L 125.813933 110.921211 
L 129.826517 102.572994 
L 133.839101 100.02964 
L 137.851685 99.50401 
L 141.86427 94.854648 
L 145.876854 95.683414 
L 149.889438 91.967926 
L 153.902022 55.453687 
L 157.914607 70.830848 
L 161.927191 73.191118 
L 165.939775 71.956859 
L 169.95236 70.063002 
L 173.964944 59.48188 
L 177.977528 62.188157 
L 181.990112 58.341352 
L 186.002697 53.568 
L 190.015281 56.38396 
L 194.027865 68.947459 
L 198.040449 64.660939 
L 202.053034 68.559469 
L 206.065618 61.278846 
L 210.078202 63.407162 
L 214.090787 71.461527 
L 218.103371 68.703591 
L 222.115955 58.553646 
L 226.128539 55.079838 
L 230.141124 63.975722 
L 234.153708 62.061676 
L 238.166292 75.044355 
L 242.178876 80.225888 
L 246.191461 85.519304 
L 250.204045 80.787427 
L 254.216629 67.749867 
L 258.229213 67.680311 
L 262.241798 71.720051 
L 266.254382 72.771626 
L 270.266966 72.250112 
L 274.279551 70.306198 
L 278.292135 72.406105 
L 282.304719 65.801106 
L 286.317303 62.152127 
L 290.329888 61.061802 
L 294.342472 61.829839 
L 298.355056 57.150258 
L 302.36764 58.835715 
L 306.380225 57.984732 
L 310.392809 61.957434 
L 314.405393 56.501203 
L 318.417978 65.065944 
L 322.430562 67.285411 
L 326.443146 70.923557 
L 330.45573 71.215137 
L 334.468315 73.287478 
L 338.480899 71.670734 
L 342.493483 76.966139 
L 346.506067 75.788378 
L 350.518652 71.921548 
L 354.531236 72.302338 
L 358.54382 76.198845 
L 362.556404 76.386499 
L 366.568989 77.221004 
L 370.581573 80.71663 
L 374.594157 80.336882 
L 378.606742 79.320127 
L 382.619326 68.504566 
L 386.63191 70.247642 
L 390.644494 78.430155 
L 394.657079 75.351525 
L 398.669663 76.220045 
L 402.682247 77.291136 
L 406.694831 84.02113 
L 410.707416 84.682746 
" style="fill:none;stroke:#0000ff;stroke-dasharray:1.5,2.475;stroke-dashoffset:0;stroke-width:1.5;"/>
    <defs>
     <path d="M 0 1.5 
C 0.397805 1.5 0.77937 1.341951 1.06066 1.06066 
C 1.341951 0.77937 1.5 0.397805 1.5 0 
C 1.5 -0.397805 1.341951 -0.77937 1.06066 -1.06066 
C 0.77937 -1.341951 0.397805 -1.5 0 -1.5 
C -0.397805 -1.5 -0.77937 -1.341951 -1.06066 -1.06066 
C -1.341951 -0.77937 -1.5 -0.397805 -1.5 0 
C -1.5 0.397805 -1.341951 0.77937 -1.06066 1.06066 
C -0.77937 1.341951 -0.397805 1.5 0 1.5 
z
" id="m25ef652edb" style="stroke:#0000ff;"/>
    </defs>
    <g clip-path="url(#pc2d93a5fbb)">
     <use style="fill:#0000ff;stroke:#0000ff;" x="61.612584" xlink:href="#m25ef652edb" y="291.1057"/>
     <use style="fill:#0000ff;stroke:#0000ff;" x="65.625169" xlink:href="#m25ef652edb" y="262.051705"/>
     <use style="fill:#0000ff;stroke:#0000ff;" x="69.637753" xlink:href="#m25ef652edb" y="237.490156"/>
     <use style="fill:#0000ff;stroke:#0000ff;" x="73.650337" xlink:href="#m25ef652edb" y="214.262631"/>
     <use style="fill:#0000ff;stroke:#0000ff;" x="77.662921" xlink:href="#m25ef652edb" y="243.44503"/>
     <use style="fill:#0000ff;stroke:#0000ff;" x="81.675506" xlink:href="#m25ef652edb" y="187.723989"/>
     <use style="fill:#0000ff;stroke:#0000ff;" x="85.68809" xlink:href="#m25ef652edb" y="221.936642"/>
     <use style="fill:#0000ff;stroke:#0000ff;" x="89.700674" xlink:href="#m25ef652edb" y="149.343046"/>
     <use style="fill:#0000ff;stroke:#0000ff;" x="93.713258" xlink:href="#m25ef652edb" y="187.759446"/>
     <use style="fill:#0000ff;stroke:#0000ff;" x="97.725843" xlink:href="#m25ef652edb" y="192.032594"/>
     <use style="fill:#0000ff;stroke:#0000ff;" x="101.738427" xlink:href="#m25ef652edb" y="167.47488"/>
     <use style="fill:#0000ff;stroke:#0000ff;" x="105.751011" xlink:href="#m25ef652edb" y="113.427243"/>
     <use style="fill:#0000ff;stroke:#0000ff;" x="109.763596" xlink:href="#m25ef652edb" y="139.799803"/>
     <use style="fill:#0000ff;stroke:#0000ff;" x="113.77618" xlink:href="#m25ef652edb" y="142.167908"/>
     <use style="fill:#0000ff;stroke:#0000ff;" x="117.788764" xlink:href="#m25ef652edb" y="123.341152"/>
     <use style="fill:#0000ff;stroke:#0000ff;" x="121.801348" xlink:href="#m25ef652edb" y="122.074288"/>
     <use style="fill:#0000ff;stroke:#0000ff;" x="125.813933" xlink:href="#m25ef652edb" y="110.921211"/>
     <use style="fill:#0000ff;stroke:#0000ff;" x="129.826517" xlink:href="#m25ef652edb" y="102.572994"/>
     <use style="fill:#0000ff;stroke:#0000ff;" x="133.839101" xlink:href="#m25ef652edb" y="100.02964"/>
     <use style="fill:#0000ff;stroke:#0000ff;" x="137.851685" xlink:href="#m25ef652edb" y="99.50401"/>
     <use style="fill:#0000ff;stroke:#0000ff;" x="141.86427" xlink:href="#m25ef652edb" y="94.854648"/>
     <use style="fill:#0000ff;stroke:#0000ff;" x="145.876854" xlink:href="#m25ef652edb" y="95.683414"/>
     <use style="fill:#0000ff;stroke:#0000ff;" x="149.889438" xlink:href="#m25ef652edb" y="91.967926"/>
     <use style="fill:#0000ff;stroke:#0000ff;" x="153.902022" xlink:href="#m25ef652edb" y="55.453687"/>
     <use style="fill:#0000ff;stroke:#0000ff;" x="157.914607" xlink:href="#m25ef652edb" y="70.830848"/>
     <use style="fill:#0000ff;stroke:#0000ff;" x="161.927191" xlink:href="#m25ef652edb" y="73.191118"/>
     <use style="fill:#0000ff;stroke:#0000ff;" x="165.939775" xlink:href="#m25ef652edb" y="71.956859"/>
     <use style="fill:#0000ff;stroke:#0000ff;" x="169.95236" xlink:href="#m25ef652edb" y="70.063002"/>
     <use style="fill:#0000ff;stroke:#0000ff;" x="173.964944" xlink:href="#m25ef652edb" y="59.48188"/>
     <use style="fill:#0000ff;stroke:#0000ff;" x="177.977528" xlink:href="#m25ef652edb" y="62.188157"/>
     <use style="fill:#0000ff;stroke:#0000ff;" x="181.990112" xlink:href="#m25ef652edb" y="58.341352"/>
     <use style="fill:#0000ff;stroke:#0000ff;" x="186.002697" xlink:href="#m25ef652edb" y="53.568"/>
     <use style="fill:#0000ff;stroke:#0000ff;" x="190.015281" xlink:href="#m25ef652edb" y="56.38396"/>
     <use style="fill:#0000ff;stroke:#0000ff;" x="194.027865" xlink:href="#m25ef652edb" y="68.947459"/>
     <use style="fill:#0000ff;stroke:#0000ff;" x="198.040449" xlink:href="#m25ef652edb" y="64.660939"/>
     <use style="fill:#0000ff;stroke:#0000ff;" x="202.053034" xlink:href="#m25ef652edb" y="68.559469"/>
     <use style="fill:#0000ff;stroke:#0000ff;" x="206.065618" xlink:href="#m25ef652edb" y="61.278846"/>
     <use style="fill:#0000ff;stroke:#0000ff;" x="210.078202" xlink:href="#m25ef652edb" y="63.407162"/>
     <use style="fill:#0000ff;stroke:#0000ff;" x="214.090787" xlink:href="#m25ef652edb" y="71.461527"/>
     <use style="fill:#0000ff;stroke:#0000ff;" x="218.103371" xlink:href="#m25ef652edb" y="68.703591"/>
     <use style="fill:#0000ff;stroke:#0000ff;" x="222.115955" xlink:href="#m25ef652edb" y="58.553646"/>
     <use style="fill:#0000ff;stroke:#0000ff;" x="226.128539" xlink:href="#m25ef652edb" y="55.079838"/>
     <use style="fill:#0000ff;stroke:#0000ff;" x="230.141124" xlink:href="#m25ef652edb" y="63.975722"/>
     <use style="fill:#0000ff;stroke:#0000ff;" x="234.153708" xlink:href="#m25ef652edb" y="62.061676"/>
     <use style="fill:#0000ff;stroke:#0000ff;" x="238.166292" xlink:href="#m25ef652edb" y="75.044355"/>
     <use style="fill:#0000ff;stroke:#0000ff;" x="242.178876" xlink:href="#m25ef652edb" y="80.225888"/>
     <use style="fill:#0000ff;stroke:#0000ff;" x="246.191461" xlink:href="#m25ef652edb" y="85.519304"/>
     <use style="fill:#0000ff;stroke:#0000ff;" x="250.204045" xlink:href="#m25ef652edb" y="80.787427"/>
     <use style="fill:#0000ff;stroke:#0000ff;" x="254.216629" xlink:href="#m25ef652edb" y="67.749867"/>
     <use style="fill:#0000ff;stroke:#0000ff;" x="258.229213" xlink:href="#m25ef652edb" y="67.680311"/>
     <use style="fill:#0000ff;stroke:#0000ff;" x="262.241798" xlink:href="#m25ef652edb" y="71.720051"/>
     <use style="fill:#0000ff;stroke:#0000ff;" x="266.254382" xlink:href="#m25ef652edb" y="72.771626"/>
     <use style="fill:#0000ff;stroke:#0000ff;" x="270.266966" xlink:href="#m25ef652edb" y="72.250112"/>
     <use style="fill:#0000ff;stroke:#0000ff;" x="274.279551" xlink:href="#m25ef652edb" y="70.306198"/>
     <use style="fill:#0000ff;stroke:#0000ff;" x="278.292135" xlink:href="#m25ef652edb" y="72.406105"/>
     <use style="fill:#0000ff;stroke:#0000ff;" x="282.304719" xlink:href="#m25ef652edb" y="65.801106"/>
     <use style="fill:#0000ff;stroke:#0000ff;" x="286.317303" xlink:href="#m25ef652edb" y="62.152127"/>
     <use style="fill:#0000ff;stroke:#0000ff;" x="290.329888" xlink:href="#m25ef652edb" y="61.061802"/>
     <use style="fill:#0000ff;stroke:#0000ff;" x="294.342472" xlink:href="#m25ef652edb" y="61.829839"/>
     <use style="fill:#0000ff;stroke:#0000ff;" x="298.355056" xlink:href="#m25ef652edb" y="57.150258"/>
     <use style="fill:#0000ff;stroke:#0000ff;" x="302.36764" xlink:href="#m25ef652edb" y="58.835715"/>
     <use style="fill:#0000ff;stroke:#0000ff;" x="306.380225" xlink:href="#m25ef652edb" y="57.984732"/>
     <use style="fill:#0000ff;stroke:#0000ff;" x="310.392809" xlink:href="#m25ef652edb" y="61.957434"/>
     <use style="fill:#0000ff;stroke:#0000ff;" x="314.405393" xlink:href="#m25ef652edb" y="56.501203"/>
     <use style="fill:#0000ff;stroke:#0000ff;" x="318.417978" xlink:href="#m25ef652edb" y="65.065944"/>
     <use style="fill:#0000ff;stroke:#0000ff;" x="322.430562" xlink:href="#m25ef652edb" y="67.285411"/>
     <use style="fill:#0000ff;stroke:#0000ff;" x="326.443146" xlink:href="#m25ef652edb" y="70.923557"/>
     <use style="fill:#0000ff;stroke:#0000ff;" x="330.45573" xlink:href="#m25ef652edb" y="71.215137"/>
     <use style="fill:#0000ff;stroke:#0000ff;" x="334.468315" xlink:href="#m25ef652edb" y="73.287478"/>
     <use style="fill:#0000ff;stroke:#0000ff;" x="338.480899" xlink:href="#m25ef652edb" y="71.670734"/>
     <use style="fill:#0000ff;stroke:#0000ff;" x="342.493483" xlink:href="#m25ef652edb" y="76.966139"/>
     <use style="fill:#0000ff;stroke:#0000ff;" x="346.506067" xlink:href="#m25ef652edb" y="75.788378"/>
     <use style="fill:#0000ff;stroke:#0000ff;" x="350.518652" xlink:href="#m25ef652edb" y="71.921548"/>
     <use style="fill:#0000ff;stroke:#0000ff;" x="354.531236" xlink:href="#m25ef652edb" y="72.302338"/>
     <use style="fill:#0000ff;stroke:#0000ff;" x="358.54382" xlink:href="#m25ef652edb" y="76.198845"/>
     <use style="fill:#0000ff;stroke:#0000ff;" x="362.556404" xlink:href="#m25ef652edb" y="76.386499"/>
     <use style="fill:#0000ff;stroke:#0000ff;" x="366.568989" xlink:href="#m25ef652edb" y="77.221004"/>
     <use style="fill:#0000ff;stroke:#0000ff;" x="370.581573" xlink:href="#m25ef652edb" y="80.71663"/>
     <use style="fill:#0000ff;stroke:#0000ff;" x="374.594157" xlink:href="#m25ef652edb" y="80.336882"/>
     <use style="fill:#0000ff;stroke:#0000ff;" x="378.606742" xlink:href="#m25ef652edb" y="79.320127"/>
     <use style="fill:#0000ff;stroke:#0000ff;" x="382.619326" xlink:href="#m25ef652edb" y="68.504566"/>
     <use style="fill:#0000ff;stroke:#0000ff;" x="386.63191" xlink:href="#m25ef652edb" y="70.247642"/>
     <use style="fill:#0000ff;stroke:#0000ff;" x="390.644494" xlink:href="#m25ef652edb" y="78.430155"/>
     <use style="fill:#0000ff;stroke:#0000ff;" x="394.657079" xlink:href="#m25ef652edb" y="75.351525"/>
     <use style="fill:#0000ff;stroke:#0000ff;" x="398.669663" xlink:href="#m25ef652edb" y="76.220045"/>
     <use style="fill:#0000ff;stroke:#0000ff;" x="402.682247" xlink:href="#m25ef652edb" y="77.291136"/>
     <use style="fill:#0000ff;stroke:#0000ff;" x="406.694831" xlink:href="#m25ef652edb" y="84.02113"/>
     <use style="fill:#0000ff;stroke:#0000ff;" x="410.707416" xlink:href="#m25ef652edb" y="84.682746"/>
    </g>
   </g>
   <g id="line2d_66">
    <path clip-path="url(#pc2d93a5fbb)" d="M 61.612584 295.488 
L 65.625169 268.577753 
L 69.637753 256.383169 
L 73.650337 239.942158 
L 77.662921 265.968472 
L 81.675506 221.707937 
L 85.68809 255.788918 
L 89.700674 205.369887 
L 93.713258 236.624692 
L 97.725843 237.555731 
L 101.738427 224.770519 
L 105.751011 188.592004 
L 109.763596 217.184989 
L 113.77618 219.118036 
L 117.788764 208.682334 
L 121.801348 209.857487 
L 125.813933 204.766329 
L 129.826517 199.317073 
L 133.839101 199.483672 
L 137.851685 194.655993 
L 141.86427 198.879947 
L 145.876854 201.215743 
L 149.889438 197.504939 
L 153.902022 174.041186 
L 157.914607 195.222953 
L 161.927191 198.952307 
L 165.939775 192.820964 
L 169.95236 194.506732 
L 173.964944 191.26152 
L 177.977528 195.466753 
L 181.990112 193.287349 
L 186.002697 188.114583 
L 190.015281 196.892816 
L 194.027865 198.559685 
L 198.040449 197.087144 
L 202.053034 192.070354 
L 206.065618 197.354888 
L 210.078202 195.712645 
L 214.090787 200.167213 
L 218.103371 200.798455 
L 222.115955 201.440827 
L 226.128539 200.605601 
L 230.141124 202.802173 
L 234.153708 204.204564 
L 238.166292 212.075266 
L 242.178876 213.449196 
L 246.191461 219.630928 
L 250.204045 217.761856 
L 254.216629 217.662921 
L 258.229213 216.196195 
L 262.241798 219.474037 
L 266.254382 220.653815 
L 270.266966 222.910147 
L 274.279551 222.79862 
L 278.292135 223.048371 
L 282.304719 220.751898 
L 286.317303 221.480433 
L 290.329888 221.655959 
L 294.342472 222.542983 
L 298.355056 221.634261 
L 302.36764 222.362831 
L 306.380225 222.743819 
L 310.392809 224.817058 
L 314.405393 223.266 
L 318.417978 227.015873 
L 322.430562 229.113963 
L 326.443146 232.636071 
L 330.45573 228.571793 
L 334.468315 230.136819 
L 338.480899 229.333513 
L 342.493483 232.531488 
L 346.506067 229.177271 
L 350.518652 231.828618 
L 354.531236 232.341089 
L 358.54382 235.957739 
L 362.556404 235.641034 
L 366.568989 236.118839 
L 370.581573 238.012258 
L 374.594157 237.231354 
L 378.606742 235.340345 
L 382.619326 236.048755 
L 386.63191 235.735667 
L 390.644494 239.106528 
L 394.657079 238.383851 
L 398.669663 239.180288 
L 402.682247 237.658398 
L 406.694831 243.137006 
L 410.707416 238.740619 
" style="fill:none;stroke:#ff0000;stroke-dasharray:1.5,2.475;stroke-dashoffset:0;stroke-width:1.5;"/>
    <defs>
     <path d="M 0 1.5 
C 0.397805 1.5 0.77937 1.341951 1.06066 1.06066 
C 1.341951 0.77937 1.5 0.397805 1.5 0 
C 1.5 -0.397805 1.341951 -0.77937 1.06066 -1.06066 
C 0.77937 -1.341951 0.397805 -1.5 0 -1.5 
C -0.397805 -1.5 -0.77937 -1.341951 -1.06066 -1.06066 
C -1.341951 -0.77937 -1.5 -0.397805 -1.5 0 
C -1.5 0.397805 -1.341951 0.77937 -1.06066 1.06066 
C -0.77937 1.341951 -0.397805 1.5 0 1.5 
z
" id="mc1cd42ce6b" style="stroke:#ff0000;"/>
    </defs>
    <g clip-path="url(#pc2d93a5fbb)">
     <use style="fill:#ff0000;stroke:#ff0000;" x="61.612584" xlink:href="#mc1cd42ce6b" y="295.488"/>
     <use style="fill:#ff0000;stroke:#ff0000;" x="65.625169" xlink:href="#mc1cd42ce6b" y="268.577753"/>
     <use style="fill:#ff0000;stroke:#ff0000;" x="69.637753" xlink:href="#mc1cd42ce6b" y="256.383169"/>
     <use style="fill:#ff0000;stroke:#ff0000;" x="73.650337" xlink:href="#mc1cd42ce6b" y="239.942158"/>
     <use style="fill:#ff0000;stroke:#ff0000;" x="77.662921" xlink:href="#mc1cd42ce6b" y="265.968472"/>
     <use style="fill:#ff0000;stroke:#ff0000;" x="81.675506" xlink:href="#mc1cd42ce6b" y="221.707937"/>
     <use style="fill:#ff0000;stroke:#ff0000;" x="85.68809" xlink:href="#mc1cd42ce6b" y="255.788918"/>
     <use style="fill:#ff0000;stroke:#ff0000;" x="89.700674" xlink:href="#mc1cd42ce6b" y="205.369887"/>
     <use style="fill:#ff0000;stroke:#ff0000;" x="93.713258" xlink:href="#mc1cd42ce6b" y="236.624692"/>
     <use style="fill:#ff0000;stroke:#ff0000;" x="97.725843" xlink:href="#mc1cd42ce6b" y="237.555731"/>
     <use style="fill:#ff0000;stroke:#ff0000;" x="101.738427" xlink:href="#mc1cd42ce6b" y="224.770519"/>
     <use style="fill:#ff0000;stroke:#ff0000;" x="105.751011" xlink:href="#mc1cd42ce6b" y="188.592004"/>
     <use style="fill:#ff0000;stroke:#ff0000;" x="109.763596" xlink:href="#mc1cd42ce6b" y="217.184989"/>
     <use style="fill:#ff0000;stroke:#ff0000;" x="113.77618" xlink:href="#mc1cd42ce6b" y="219.118036"/>
     <use style="fill:#ff0000;stroke:#ff0000;" x="117.788764" xlink:href="#mc1cd42ce6b" y="208.682334"/>
     <use style="fill:#ff0000;stroke:#ff0000;" x="121.801348" xlink:href="#mc1cd42ce6b" y="209.857487"/>
     <use style="fill:#ff0000;stroke:#ff0000;" x="125.813933" xlink:href="#mc1cd42ce6b" y="204.766329"/>
     <use style="fill:#ff0000;stroke:#ff0000;" x="129.826517" xlink:href="#mc1cd42ce6b" y="199.317073"/>
     <use style="fill:#ff0000;stroke:#ff0000;" x="133.839101" xlink:href="#mc1cd42ce6b" y="199.483672"/>
     <use style="fill:#ff0000;stroke:#ff0000;" x="137.851685" xlink:href="#mc1cd42ce6b" y="194.655993"/>
     <use style="fill:#ff0000;stroke:#ff0000;" x="141.86427" xlink:href="#mc1cd42ce6b" y="198.879947"/>
     <use style="fill:#ff0000;stroke:#ff0000;" x="145.876854" xlink:href="#mc1cd42ce6b" y="201.215743"/>
     <use style="fill:#ff0000;stroke:#ff0000;" x="149.889438" xlink:href="#mc1cd42ce6b" y="197.504939"/>
     <use style="fill:#ff0000;stroke:#ff0000;" x="153.902022" xlink:href="#mc1cd42ce6b" y="174.041186"/>
     <use style="fill:#ff0000;stroke:#ff0000;" x="157.914607" xlink:href="#mc1cd42ce6b" y="195.222953"/>
     <use style="fill:#ff0000;stroke:#ff0000;" x="161.927191" xlink:href="#mc1cd42ce6b" y="198.952307"/>
     <use style="fill:#ff0000;stroke:#ff0000;" x="165.939775" xlink:href="#mc1cd42ce6b" y="192.820964"/>
     <use style="fill:#ff0000;stroke:#ff0000;" x="169.95236" xlink:href="#mc1cd42ce6b" y="194.506732"/>
     <use style="fill:#ff0000;stroke:#ff0000;" x="173.964944" xlink:href="#mc1cd42ce6b" y="191.26152"/>
     <use style="fill:#ff0000;stroke:#ff0000;" x="177.977528" xlink:href="#mc1cd42ce6b" y="195.466753"/>
     <use style="fill:#ff0000;stroke:#ff0000;" x="181.990112" xlink:href="#mc1cd42ce6b" y="193.287349"/>
     <use style="fill:#ff0000;stroke:#ff0000;" x="186.002697" xlink:href="#mc1cd42ce6b" y="188.114583"/>
     <use style="fill:#ff0000;stroke:#ff0000;" x="190.015281" xlink:href="#mc1cd42ce6b" y="196.892816"/>
     <use style="fill:#ff0000;stroke:#ff0000;" x="194.027865" xlink:href="#mc1cd42ce6b" y="198.559685"/>
     <use style="fill:#ff0000;stroke:#ff0000;" x="198.040449" xlink:href="#mc1cd42ce6b" y="197.087144"/>
     <use style="fill:#ff0000;stroke:#ff0000;" x="202.053034" xlink:href="#mc1cd42ce6b" y="192.070354"/>
     <use style="fill:#ff0000;stroke:#ff0000;" x="206.065618" xlink:href="#mc1cd42ce6b" y="197.354888"/>
     <use style="fill:#ff0000;stroke:#ff0000;" x="210.078202" xlink:href="#mc1cd42ce6b" y="195.712645"/>
     <use style="fill:#ff0000;stroke:#ff0000;" x="214.090787" xlink:href="#mc1cd42ce6b" y="200.167213"/>
     <use style="fill:#ff0000;stroke:#ff0000;" x="218.103371" xlink:href="#mc1cd42ce6b" y="200.798455"/>
     <use style="fill:#ff0000;stroke:#ff0000;" x="222.115955" xlink:href="#mc1cd42ce6b" y="201.440827"/>
     <use style="fill:#ff0000;stroke:#ff0000;" x="226.128539" xlink:href="#mc1cd42ce6b" y="200.605601"/>
     <use style="fill:#ff0000;stroke:#ff0000;" x="230.141124" xlink:href="#mc1cd42ce6b" y="202.802173"/>
     <use style="fill:#ff0000;stroke:#ff0000;" x="234.153708" xlink:href="#mc1cd42ce6b" y="204.204564"/>
     <use style="fill:#ff0000;stroke:#ff0000;" x="238.166292" xlink:href="#mc1cd42ce6b" y="212.075266"/>
     <use style="fill:#ff0000;stroke:#ff0000;" x="242.178876" xlink:href="#mc1cd42ce6b" y="213.449196"/>
     <use style="fill:#ff0000;stroke:#ff0000;" x="246.191461" xlink:href="#mc1cd42ce6b" y="219.630928"/>
     <use style="fill:#ff0000;stroke:#ff0000;" x="250.204045" xlink:href="#mc1cd42ce6b" y="217.761856"/>
     <use style="fill:#ff0000;stroke:#ff0000;" x="254.216629" xlink:href="#mc1cd42ce6b" y="217.662921"/>
     <use style="fill:#ff0000;stroke:#ff0000;" x="258.229213" xlink:href="#mc1cd42ce6b" y="216.196195"/>
     <use style="fill:#ff0000;stroke:#ff0000;" x="262.241798" xlink:href="#mc1cd42ce6b" y="219.474037"/>
     <use style="fill:#ff0000;stroke:#ff0000;" x="266.254382" xlink:href="#mc1cd42ce6b" y="220.653815"/>
     <use style="fill:#ff0000;stroke:#ff0000;" x="270.266966" xlink:href="#mc1cd42ce6b" y="222.910147"/>
     <use style="fill:#ff0000;stroke:#ff0000;" x="274.279551" xlink:href="#mc1cd42ce6b" y="222.79862"/>
     <use style="fill:#ff0000;stroke:#ff0000;" x="278.292135" xlink:href="#mc1cd42ce6b" y="223.048371"/>
     <use style="fill:#ff0000;stroke:#ff0000;" x="282.304719" xlink:href="#mc1cd42ce6b" y="220.751898"/>
     <use style="fill:#ff0000;stroke:#ff0000;" x="286.317303" xlink:href="#mc1cd42ce6b" y="221.480433"/>
     <use style="fill:#ff0000;stroke:#ff0000;" x="290.329888" xlink:href="#mc1cd42ce6b" y="221.655959"/>
     <use style="fill:#ff0000;stroke:#ff0000;" x="294.342472" xlink:href="#mc1cd42ce6b" y="222.542983"/>
     <use style="fill:#ff0000;stroke:#ff0000;" x="298.355056" xlink:href="#mc1cd42ce6b" y="221.634261"/>
     <use style="fill:#ff0000;stroke:#ff0000;" x="302.36764" xlink:href="#mc1cd42ce6b" y="222.362831"/>
     <use style="fill:#ff0000;stroke:#ff0000;" x="306.380225" xlink:href="#mc1cd42ce6b" y="222.743819"/>
     <use style="fill:#ff0000;stroke:#ff0000;" x="310.392809" xlink:href="#mc1cd42ce6b" y="224.817058"/>
     <use style="fill:#ff0000;stroke:#ff0000;" x="314.405393" xlink:href="#mc1cd42ce6b" y="223.266"/>
     <use style="fill:#ff0000;stroke:#ff0000;" x="318.417978" xlink:href="#mc1cd42ce6b" y="227.015873"/>
     <use style="fill:#ff0000;stroke:#ff0000;" x="322.430562" xlink:href="#mc1cd42ce6b" y="229.113963"/>
     <use style="fill:#ff0000;stroke:#ff0000;" x="326.443146" xlink:href="#mc1cd42ce6b" y="232.636071"/>
     <use style="fill:#ff0000;stroke:#ff0000;" x="330.45573" xlink:href="#mc1cd42ce6b" y="228.571793"/>
     <use style="fill:#ff0000;stroke:#ff0000;" x="334.468315" xlink:href="#mc1cd42ce6b" y="230.136819"/>
     <use style="fill:#ff0000;stroke:#ff0000;" x="338.480899" xlink:href="#mc1cd42ce6b" y="229.333513"/>
     <use style="fill:#ff0000;stroke:#ff0000;" x="342.493483" xlink:href="#mc1cd42ce6b" y="232.531488"/>
     <use style="fill:#ff0000;stroke:#ff0000;" x="346.506067" xlink:href="#mc1cd42ce6b" y="229.177271"/>
     <use style="fill:#ff0000;stroke:#ff0000;" x="350.518652" xlink:href="#mc1cd42ce6b" y="231.828618"/>
     <use style="fill:#ff0000;stroke:#ff0000;" x="354.531236" xlink:href="#mc1cd42ce6b" y="232.341089"/>
     <use style="fill:#ff0000;stroke:#ff0000;" x="358.54382" xlink:href="#mc1cd42ce6b" y="235.957739"/>
     <use style="fill:#ff0000;stroke:#ff0000;" x="362.556404" xlink:href="#mc1cd42ce6b" y="235.641034"/>
     <use style="fill:#ff0000;stroke:#ff0000;" x="366.568989" xlink:href="#mc1cd42ce6b" y="236.118839"/>
     <use style="fill:#ff0000;stroke:#ff0000;" x="370.581573" xlink:href="#mc1cd42ce6b" y="238.012258"/>
     <use style="fill:#ff0000;stroke:#ff0000;" x="374.594157" xlink:href="#mc1cd42ce6b" y="237.231354"/>
     <use style="fill:#ff0000;stroke:#ff0000;" x="378.606742" xlink:href="#mc1cd42ce6b" y="235.340345"/>
     <use style="fill:#ff0000;stroke:#ff0000;" x="382.619326" xlink:href="#mc1cd42ce6b" y="236.048755"/>
     <use style="fill:#ff0000;stroke:#ff0000;" x="386.63191" xlink:href="#mc1cd42ce6b" y="235.735667"/>
     <use style="fill:#ff0000;stroke:#ff0000;" x="390.644494" xlink:href="#mc1cd42ce6b" y="239.106528"/>
     <use style="fill:#ff0000;stroke:#ff0000;" x="394.657079" xlink:href="#mc1cd42ce6b" y="238.383851"/>
     <use style="fill:#ff0000;stroke:#ff0000;" x="398.669663" xlink:href="#mc1cd42ce6b" y="239.180288"/>
     <use style="fill:#ff0000;stroke:#ff0000;" x="402.682247" xlink:href="#mc1cd42ce6b" y="237.658398"/>
     <use style="fill:#ff0000;stroke:#ff0000;" x="406.694831" xlink:href="#mc1cd42ce6b" y="243.137006"/>
     <use style="fill:#ff0000;stroke:#ff0000;" x="410.707416" xlink:href="#mc1cd42ce6b" y="238.740619"/>
    </g>
   </g>
   <g id="line2d_67">
    <path clip-path="url(#pc2d93a5fbb)" d="M 61.612584 293.29685 
L 65.625169 265.314729 
L 69.637753 246.936662 
L 73.650337 227.102394 
L 77.662921 254.706751 
L 81.675506 204.715963 
L 85.68809 238.86278 
L 89.700674 177.356467 
L 93.713258 212.192069 
L 97.725843 214.794163 
L 101.738427 196.122699 
L 105.751011 151.009624 
L 109.763596 178.492396 
L 113.77618 180.642972 
L 117.788764 166.011743 
L 121.801348 165.965888 
L 125.813933 157.84377 
L 129.826517 150.945034 
L 133.839101 149.756656 
L 137.851685 147.080002 
L 141.86427 146.867298 
L 145.876854 148.449579 
L 149.889438 144.736432 
L 153.902022 114.747436 
L 157.914607 133.026901 
L 161.927191 136.071712 
L 165.939775 132.388912 
L 169.95236 132.284867 
L 173.964944 125.3717 
L 177.977528 128.827455 
L 181.990112 125.814351 
L 186.002697 120.841291 
L 190.015281 126.638388 
L 194.027865 133.753572 
L 198.040449 130.874041 
L 202.053034 130.314912 
L 206.065618 129.316867 
L 210.078202 129.559903 
L 214.090787 135.81437 
L 218.103371 134.751023 
L 222.115955 129.997236 
L 226.128539 127.84272 
L 230.141124 133.388947 
L 234.153708 133.13312 
L 238.166292 143.55981 
L 242.178876 146.837542 
L 246.191461 152.575116 
L 250.204045 149.274641 
L 254.216629 142.706394 
L 258.229213 141.938253 
L 262.241798 145.597044 
L 266.254382 146.71272 
L 270.266966 147.580129 
L 274.279551 146.552409 
L 278.292135 147.727238 
L 282.304719 143.276502 
L 286.317303 141.81628 
L 290.329888 141.358881 
L 294.342472 142.186411 
L 298.355056 139.392259 
L 302.36764 140.599273 
L 306.380225 140.364276 
L 310.392809 143.387246 
L 314.405393 139.883601 
L 318.417978 146.040909 
L 322.430562 148.199687 
L 326.443146 151.779814 
L 330.45573 149.893465 
L 334.468315 151.712148 
L 338.480899 150.502123 
L 342.493483 154.748813 
L 346.506067 152.482824 
L 350.518652 151.875083 
L 354.531236 152.321713 
L 358.54382 156.078292 
L 362.556404 156.013767 
L 366.568989 156.669922 
L 370.581573 159.364444 
L 374.594157 158.784118 
L 378.606742 157.330236 
L 382.619326 152.27666 
L 386.63191 152.991654 
L 390.644494 158.768342 
L 394.657079 156.867688 
L 398.669663 157.700166 
L 402.682247 157.474767 
L 406.694831 163.579068 
L 410.707416 161.711682 
" style="fill:none;stroke:#008000;stroke-dasharray:1.5,2.475;stroke-dashoffset:0;stroke-width:1.5;"/>
    <defs>
     <path d="M 0 1.5 
C 0.397805 1.5 0.77937 1.341951 1.06066 1.06066 
C 1.341951 0.77937 1.5 0.397805 1.5 0 
C 1.5 -0.397805 1.341951 -0.77937 1.06066 -1.06066 
C 0.77937 -1.341951 0.397805 -1.5 0 -1.5 
C -0.397805 -1.5 -0.77937 -1.341951 -1.06066 -1.06066 
C -1.341951 -0.77937 -1.5 -0.397805 -1.5 0 
C -1.5 0.397805 -1.341951 0.77937 -1.06066 1.06066 
C -0.77937 1.341951 -0.397805 1.5 0 1.5 
z
" id="m89946c415d" style="stroke:#008000;"/>
    </defs>
    <g clip-path="url(#pc2d93a5fbb)">
     <use style="fill:#008000;stroke:#008000;" x="61.612584" xlink:href="#m89946c415d" y="293.29685"/>
     <use style="fill:#008000;stroke:#008000;" x="65.625169" xlink:href="#m89946c415d" y="265.314729"/>
     <use style="fill:#008000;stroke:#008000;" x="69.637753" xlink:href="#m89946c415d" y="246.936662"/>
     <use style="fill:#008000;stroke:#008000;" x="73.650337" xlink:href="#m89946c415d" y="227.102394"/>
     <use style="fill:#008000;stroke:#008000;" x="77.662921" xlink:href="#m89946c415d" y="254.706751"/>
     <use style="fill:#008000;stroke:#008000;" x="81.675506" xlink:href="#m89946c415d" y="204.715963"/>
     <use style="fill:#008000;stroke:#008000;" x="85.68809" xlink:href="#m89946c415d" y="238.86278"/>
     <use style="fill:#008000;stroke:#008000;" x="89.700674" xlink:href="#m89946c415d" y="177.356467"/>
     <use style="fill:#008000;stroke:#008000;" x="93.713258" xlink:href="#m89946c415d" y="212.192069"/>
     <use style="fill:#008000;stroke:#008000;" x="97.725843" xlink:href="#m89946c415d" y="214.794163"/>
     <use style="fill:#008000;stroke:#008000;" x="101.738427" xlink:href="#m89946c415d" y="196.122699"/>
     <use style="fill:#008000;stroke:#008000;" x="105.751011" xlink:href="#m89946c415d" y="151.009624"/>
     <use style="fill:#008000;stroke:#008000;" x="109.763596" xlink:href="#m89946c415d" y="178.492396"/>
     <use style="fill:#008000;stroke:#008000;" x="113.77618" xlink:href="#m89946c415d" y="180.642972"/>
     <use style="fill:#008000;stroke:#008000;" x="117.788764" xlink:href="#m89946c415d" y="166.011743"/>
     <use style="fill:#008000;stroke:#008000;" x="121.801348" xlink:href="#m89946c415d" y="165.965888"/>
     <use style="fill:#008000;stroke:#008000;" x="125.813933" xlink:href="#m89946c415d" y="157.84377"/>
     <use style="fill:#008000;stroke:#008000;" x="129.826517" xlink:href="#m89946c415d" y="150.945034"/>
     <use style="fill:#008000;stroke:#008000;" x="133.839101" xlink:href="#m89946c415d" y="149.756656"/>
     <use style="fill:#008000;stroke:#008000;" x="137.851685" xlink:href="#m89946c415d" y="147.080002"/>
     <use style="fill:#008000;stroke:#008000;" x="141.86427" xlink:href="#m89946c415d" y="146.867298"/>
     <use style="fill:#008000;stroke:#008000;" x="145.876854" xlink:href="#m89946c415d" y="148.449579"/>
     <use style="fill:#008000;stroke:#008000;" x="149.889438" xlink:href="#m89946c415d" y="144.736432"/>
     <use style="fill:#008000;stroke:#008000;" x="153.902022" xlink:href="#m89946c415d" y="114.747436"/>
     <use style="fill:#008000;stroke:#008000;" x="157.914607" xlink:href="#m89946c415d" y="133.026901"/>
     <use style="fill:#008000;stroke:#008000;" x="161.927191" xlink:href="#m89946c415d" y="136.071712"/>
     <use style="fill:#008000;stroke:#008000;" x="165.939775" xlink:href="#m89946c415d" y="132.388912"/>
     <use style="fill:#008000;stroke:#008000;" x="169.95236" xlink:href="#m89946c415d" y="132.284867"/>
     <use style="fill:#008000;stroke:#008000;" x="173.964944" xlink:href="#m89946c415d" y="125.3717"/>
     <use style="fill:#008000;stroke:#008000;" x="177.977528" xlink:href="#m89946c415d" y="128.827455"/>
     <use style="fill:#008000;stroke:#008000;" x="181.990112" xlink:href="#m89946c415d" y="125.814351"/>
     <use style="fill:#008000;stroke:#008000;" x="186.002697" xlink:href="#m89946c415d" y="120.841291"/>
     <use style="fill:#008000;stroke:#008000;" x="190.015281" xlink:href="#m89946c415d" y="126.638388"/>
     <use style="fill:#008000;stroke:#008000;" x="194.027865" xlink:href="#m89946c415d" y="133.753572"/>
     <use style="fill:#008000;stroke:#008000;" x="198.040449" xlink:href="#m89946c415d" y="130.874041"/>
     <use style="fill:#008000;stroke:#008000;" x="202.053034" xlink:href="#m89946c415d" y="130.314912"/>
     <use style="fill:#008000;stroke:#008000;" x="206.065618" xlink:href="#m89946c415d" y="129.316867"/>
     <use style="fill:#008000;stroke:#008000;" x="210.078202" xlink:href="#m89946c415d" y="129.559903"/>
     <use style="fill:#008000;stroke:#008000;" x="214.090787" xlink:href="#m89946c415d" y="135.81437"/>
     <use style="fill:#008000;stroke:#008000;" x="218.103371" xlink:href="#m89946c415d" y="134.751023"/>
     <use style="fill:#008000;stroke:#008000;" x="222.115955" xlink:href="#m89946c415d" y="129.997236"/>
     <use style="fill:#008000;stroke:#008000;" x="226.128539" xlink:href="#m89946c415d" y="127.84272"/>
     <use style="fill:#008000;stroke:#008000;" x="230.141124" xlink:href="#m89946c415d" y="133.388947"/>
     <use style="fill:#008000;stroke:#008000;" x="234.153708" xlink:href="#m89946c415d" y="133.13312"/>
     <use style="fill:#008000;stroke:#008000;" x="238.166292" xlink:href="#m89946c415d" y="143.55981"/>
     <use style="fill:#008000;stroke:#008000;" x="242.178876" xlink:href="#m89946c415d" y="146.837542"/>
     <use style="fill:#008000;stroke:#008000;" x="246.191461" xlink:href="#m89946c415d" y="152.575116"/>
     <use style="fill:#008000;stroke:#008000;" x="250.204045" xlink:href="#m89946c415d" y="149.274641"/>
     <use style="fill:#008000;stroke:#008000;" x="254.216629" xlink:href="#m89946c415d" y="142.706394"/>
     <use style="fill:#008000;stroke:#008000;" x="258.229213" xlink:href="#m89946c415d" y="141.938253"/>
     <use style="fill:#008000;stroke:#008000;" x="262.241798" xlink:href="#m89946c415d" y="145.597044"/>
     <use style="fill:#008000;stroke:#008000;" x="266.254382" xlink:href="#m89946c415d" y="146.71272"/>
     <use style="fill:#008000;stroke:#008000;" x="270.266966" xlink:href="#m89946c415d" y="147.580129"/>
     <use style="fill:#008000;stroke:#008000;" x="274.279551" xlink:href="#m89946c415d" y="146.552409"/>
     <use style="fill:#008000;stroke:#008000;" x="278.292135" xlink:href="#m89946c415d" y="147.727238"/>
     <use style="fill:#008000;stroke:#008000;" x="282.304719" xlink:href="#m89946c415d" y="143.276502"/>
     <use style="fill:#008000;stroke:#008000;" x="286.317303" xlink:href="#m89946c415d" y="141.81628"/>
     <use style="fill:#008000;stroke:#008000;" x="290.329888" xlink:href="#m89946c415d" y="141.358881"/>
     <use style="fill:#008000;stroke:#008000;" x="294.342472" xlink:href="#m89946c415d" y="142.186411"/>
     <use style="fill:#008000;stroke:#008000;" x="298.355056" xlink:href="#m89946c415d" y="139.392259"/>
     <use style="fill:#008000;stroke:#008000;" x="302.36764" xlink:href="#m89946c415d" y="140.599273"/>
     <use style="fill:#008000;stroke:#008000;" x="306.380225" xlink:href="#m89946c415d" y="140.364276"/>
     <use style="fill:#008000;stroke:#008000;" x="310.392809" xlink:href="#m89946c415d" y="143.387246"/>
     <use style="fill:#008000;stroke:#008000;" x="314.405393" xlink:href="#m89946c415d" y="139.883601"/>
     <use style="fill:#008000;stroke:#008000;" x="318.417978" xlink:href="#m89946c415d" y="146.040909"/>
     <use style="fill:#008000;stroke:#008000;" x="322.430562" xlink:href="#m89946c415d" y="148.199687"/>
     <use style="fill:#008000;stroke:#008000;" x="326.443146" xlink:href="#m89946c415d" y="151.779814"/>
     <use style="fill:#008000;stroke:#008000;" x="330.45573" xlink:href="#m89946c415d" y="149.893465"/>
     <use style="fill:#008000;stroke:#008000;" x="334.468315" xlink:href="#m89946c415d" y="151.712148"/>
     <use style="fill:#008000;stroke:#008000;" x="338.480899" xlink:href="#m89946c415d" y="150.502123"/>
     <use style="fill:#008000;stroke:#008000;" x="342.493483" xlink:href="#m89946c415d" y="154.748813"/>
     <use style="fill:#008000;stroke:#008000;" x="346.506067" xlink:href="#m89946c415d" y="152.482824"/>
     <use style="fill:#008000;stroke:#008000;" x="350.518652" xlink:href="#m89946c415d" y="151.875083"/>
     <use style="fill:#008000;stroke:#008000;" x="354.531236" xlink:href="#m89946c415d" y="152.321713"/>
     <use style="fill:#008000;stroke:#008000;" x="358.54382" xlink:href="#m89946c415d" y="156.078292"/>
     <use style="fill:#008000;stroke:#008000;" x="362.556404" xlink:href="#m89946c415d" y="156.013767"/>
     <use style="fill:#008000;stroke:#008000;" x="366.568989" xlink:href="#m89946c415d" y="156.669922"/>
     <use style="fill:#008000;stroke:#008000;" x="370.581573" xlink:href="#m89946c415d" y="159.364444"/>
     <use style="fill:#008000;stroke:#008000;" x="374.594157" xlink:href="#m89946c415d" y="158.784118"/>
     <use style="fill:#008000;stroke:#008000;" x="378.606742" xlink:href="#m89946c415d" y="157.330236"/>
     <use style="fill:#008000;stroke:#008000;" x="382.619326" xlink:href="#m89946c415d" y="152.27666"/>
     <use style="fill:#008000;stroke:#008000;" x="386.63191" xlink:href="#m89946c415d" y="152.991654"/>
     <use style="fill:#008000;stroke:#008000;" x="390.644494" xlink:href="#m89946c415d" y="158.768342"/>
     <use style="fill:#008000;stroke:#008000;" x="394.657079" xlink:href="#m89946c415d" y="156.867688"/>
     <use style="fill:#008000;stroke:#008000;" x="398.669663" xlink:href="#m89946c415d" y="157.700166"/>
     <use style="fill:#008000;stroke:#008000;" x="402.682247" xlink:href="#m89946c415d" y="157.474767"/>
     <use style="fill:#008000;stroke:#008000;" x="406.694831" xlink:href="#m89946c415d" y="163.579068"/>
     <use style="fill:#008000;stroke:#008000;" x="410.707416" xlink:href="#m89946c415d" y="161.711682"/>
    </g>
   </g>
   <g id="patch_3">
    <path d="M 57.6 307.584 
L 57.6 41.472 
" style="fill:none;stroke:#000000;stroke-linecap:square;stroke-linejoin:miter;stroke-width:0.8;"/>
   </g>
   <g id="patch_4">
    <path d="M 414.72 307.584 
L 414.72 41.472 
" style="fill:none;stroke:#000000;stroke-linecap:square;stroke-linejoin:miter;stroke-width:0.8;"/>
   </g>
   <g id="patch_5">
    <path d="M 57.6 307.584 
L 414.72 307.584 
" style="fill:none;stroke:#000000;stroke-linecap:square;stroke-linejoin:miter;stroke-width:0.8;"/>
   </g>
   <g id="patch_6">
    <path d="M 57.6 41.472 
L 414.72 41.472 
" style="fill:none;stroke:#000000;stroke-linecap:square;stroke-linejoin:miter;stroke-width:0.8;"/>
   </g>
   <g id="text_35">
    <!-- MergeTrans 3PV on pre_transpose39 -->
    <defs>
     <path d="M 9.8125 72.90625 
L 24.515625 72.90625 
L 43.109375 23.296875 
L 61.8125 72.90625 
L 76.515625 72.90625 
L 76.515625 0 
L 66.890625 0 
L 66.890625 64.015625 
L 48.09375 14.015625 
L 38.1875 14.015625 
L 19.390625 64.015625 
L 19.390625 0 
L 9.8125 0 
z
" id="DejaVuSans-77"/>
     <path d="M 45.40625 27.984375 
Q 45.40625 37.75 41.375 43.109375 
Q 37.359375 48.484375 30.078125 48.484375 
Q 22.859375 48.484375 18.828125 43.109375 
Q 14.796875 37.75 14.796875 27.984375 
Q 14.796875 18.265625 18.828125 12.890625 
Q 22.859375 7.515625 30.078125 7.515625 
Q 37.359375 7.515625 41.375 12.890625 
Q 45.40625 18.265625 45.40625 27.984375 
z
M 54.390625 6.78125 
Q 54.390625 -7.171875 48.1875 -13.984375 
Q 42 -20.796875 29.203125 -20.796875 
Q 24.46875 -20.796875 20.265625 -20.09375 
Q 16.0625 -19.390625 12.109375 -17.921875 
L 12.109375 -9.1875 
Q 16.0625 -11.328125 19.921875 -12.34375 
Q 23.78125 -13.375 27.78125 -13.375 
Q 36.625 -13.375 41.015625 -8.765625 
Q 45.40625 -4.15625 45.40625 5.171875 
L 45.40625 9.625 
Q 42.625 4.78125 38.28125 2.390625 
Q 33.9375 0 27.875 0 
Q 17.828125 0 11.671875 7.65625 
Q 5.515625 15.328125 5.515625 27.984375 
Q 5.515625 40.671875 11.671875 48.328125 
Q 17.828125 56 27.875 56 
Q 33.9375 56 38.28125 53.609375 
Q 42.625 51.21875 45.40625 46.390625 
L 45.40625 54.6875 
L 54.390625 54.6875 
z
" id="DejaVuSans-103"/>
     <path d="M -0.296875 72.90625 
L 61.375 72.90625 
L 61.375 64.59375 
L 35.5 64.59375 
L 35.5 0 
L 25.59375 0 
L 25.59375 64.59375 
L -0.296875 64.59375 
z
" id="DejaVuSans-84"/>
     <path d="M 54.890625 33.015625 
L 54.890625 0 
L 45.90625 0 
L 45.90625 32.71875 
Q 45.90625 40.484375 42.875 44.328125 
Q 39.84375 48.1875 33.796875 48.1875 
Q 26.515625 48.1875 22.3125 43.546875 
Q 18.109375 38.921875 18.109375 30.90625 
L 18.109375 0 
L 9.078125 0 
L 9.078125 54.6875 
L 18.109375 54.6875 
L 18.109375 46.1875 
Q 21.34375 51.125 25.703125 53.5625 
Q 30.078125 56 35.796875 56 
Q 45.21875 56 50.046875 50.171875 
Q 54.890625 44.34375 54.890625 33.015625 
z
" id="DejaVuSans-110"/>
     <path d="M 19.671875 64.796875 
L 19.671875 37.40625 
L 32.078125 37.40625 
Q 38.96875 37.40625 42.71875 40.96875 
Q 46.484375 44.53125 46.484375 51.125 
Q 46.484375 57.671875 42.71875 61.234375 
Q 38.96875 64.796875 32.078125 64.796875 
z
M 9.8125 72.90625 
L 32.078125 72.90625 
Q 44.34375 72.90625 50.609375 67.359375 
Q 56.890625 61.8125 56.890625 51.125 
Q 56.890625 40.328125 50.609375 34.8125 
Q 44.34375 29.296875 32.078125 29.296875 
L 19.671875 29.296875 
L 19.671875 0 
L 9.8125 0 
z
" id="DejaVuSans-80"/>
     <path d="M 28.609375 0 
L 0.78125 72.90625 
L 11.078125 72.90625 
L 34.1875 11.53125 
L 57.328125 72.90625 
L 67.578125 72.90625 
L 39.796875 0 
z
" id="DejaVuSans-86"/>
     <path d="M 30.609375 48.390625 
Q 23.390625 48.390625 19.1875 42.75 
Q 14.984375 37.109375 14.984375 27.296875 
Q 14.984375 17.484375 19.15625 11.84375 
Q 23.34375 6.203125 30.609375 6.203125 
Q 37.796875 6.203125 41.984375 11.859375 
Q 46.1875 17.53125 46.1875 27.296875 
Q 46.1875 37.015625 41.984375 42.703125 
Q 37.796875 48.390625 30.609375 48.390625 
z
M 30.609375 56 
Q 42.328125 56 49.015625 48.375 
Q 55.71875 40.765625 55.71875 27.296875 
Q 55.71875 13.875 49.015625 6.21875 
Q 42.328125 -1.421875 30.609375 -1.421875 
Q 18.84375 -1.421875 12.171875 6.21875 
Q 5.515625 13.875 5.515625 27.296875 
Q 5.515625 40.765625 12.171875 48.375 
Q 18.84375 56 30.609375 56 
z
" id="DejaVuSans-111"/>
     <path d="M 50.984375 -16.609375 
L 50.984375 -23.578125 
L -0.984375 -23.578125 
L -0.984375 -16.609375 
z
" id="DejaVuSans-95"/>
     <path d="M 10.984375 1.515625 
L 10.984375 10.5 
Q 14.703125 8.734375 18.5 7.8125 
Q 22.3125 6.890625 25.984375 6.890625 
Q 35.75 6.890625 40.890625 13.453125 
Q 46.046875 20.015625 46.78125 33.40625 
Q 43.953125 29.203125 39.59375 26.953125 
Q 35.25 24.703125 29.984375 24.703125 
Q 19.046875 24.703125 12.671875 31.3125 
Q 6.296875 37.9375 6.296875 49.421875 
Q 6.296875 60.640625 12.9375 67.421875 
Q 19.578125 74.21875 30.609375 74.21875 
Q 43.265625 74.21875 49.921875 64.515625 
Q 56.59375 54.828125 56.59375 36.375 
Q 56.59375 19.140625 48.40625 8.859375 
Q 40.234375 -1.421875 26.421875 -1.421875 
Q 22.703125 -1.421875 18.890625 -0.6875 
Q 15.09375 0.046875 10.984375 1.515625 
z
M 30.609375 32.421875 
Q 37.25 32.421875 41.125 36.953125 
Q 45.015625 41.5 45.015625 49.421875 
Q 45.015625 57.28125 41.125 61.84375 
Q 37.25 66.40625 30.609375 66.40625 
Q 23.96875 66.40625 20.09375 61.84375 
Q 16.21875 57.28125 16.21875 49.421875 
Q 16.21875 41.5 20.09375 36.953125 
Q 23.96875 32.421875 30.609375 32.421875 
z
" id="DejaVuSans-57"/>
    </defs>
    <g transform="translate(126.654375 35.472)scale(0.12 -0.12)">
     <use xlink:href="#DejaVuSans-77"/>
     <use x="86.279297" xlink:href="#DejaVuSans-101"/>
     <use x="147.802734" xlink:href="#DejaVuSans-114"/>
     <use x="187.166016" xlink:href="#DejaVuSans-103"/>
     <use x="250.642578" xlink:href="#DejaVuSans-101"/>
     <use x="312.166016" xlink:href="#DejaVuSans-84"/>
     <use x="358.5" xlink:href="#DejaVuSans-114"/>
     <use x="399.613281" xlink:href="#DejaVuSans-97"/>
     <use x="460.892578" xlink:href="#DejaVuSans-110"/>
     <use x="524.271484" xlink:href="#DejaVuSans-115"/>
     <use x="576.371094" xlink:href="#DejaVuSans-32"/>
     <use x="608.158203" xlink:href="#DejaVuSans-51"/>
     <use x="671.78125" xlink:href="#DejaVuSans-80"/>
     <use x="732.083984" xlink:href="#DejaVuSans-86"/>
     <use x="800.492188" xlink:href="#DejaVuSans-32"/>
     <use x="832.279297" xlink:href="#DejaVuSans-111"/>
     <use x="893.460938" xlink:href="#DejaVuSans-110"/>
     <use x="956.839844" xlink:href="#DejaVuSans-32"/>
     <use x="988.626953" xlink:href="#DejaVuSans-112"/>
     <use x="1052.103516" xlink:href="#DejaVuSans-114"/>
     <use x="1090.966797" xlink:href="#DejaVuSans-101"/>
     <use x="1152.490234" xlink:href="#DejaVuSans-95"/>
     <use x="1202.490234" xlink:href="#DejaVuSans-116"/>
     <use x="1241.699219" xlink:href="#DejaVuSans-114"/>
     <use x="1282.8125" xlink:href="#DejaVuSans-97"/>
     <use x="1344.091797" xlink:href="#DejaVuSans-110"/>
     <use x="1407.470703" xlink:href="#DejaVuSans-115"/>
     <use x="1459.570312" xlink:href="#DejaVuSans-112"/>
     <use x="1523.046875" xlink:href="#DejaVuSans-111"/>
     <use x="1584.228516" xlink:href="#DejaVuSans-115"/>
     <use x="1636.328125" xlink:href="#DejaVuSans-101"/>
     <use x="1697.851562" xlink:href="#DejaVuSans-51"/>
     <use x="1761.474609" xlink:href="#DejaVuSans-57"/>
    </g>
   </g>
   <g id="legend_1">
    <g id="patch_7">
     <path d="M 313.152813 302.584 
L 407.72 302.584 
Q 409.72 302.584 409.72 300.584 
L 409.72 257.2715 
Q 409.72 255.2715 407.72 255.2715 
L 313.152813 255.2715 
Q 311.152813 255.2715 311.152813 257.2715 
L 311.152813 300.584 
Q 311.152813 302.584 313.152813 302.584 
z
" style="fill:#ffffff;opacity:0.8;stroke:#cccccc;stroke-linejoin:miter;"/>
    </g>
    <g id="line2d_68">
     <path d="M 315.152813 263.369937 
L 335.152813 263.369937 
" style="fill:none;stroke:#0000ff;stroke-dasharray:1.5,2.475;stroke-dashoffset:0;stroke-width:1.5;"/>
    </g>
    <g id="line2d_69">
     <g>
      <use style="fill:#0000ff;stroke:#0000ff;" x="325.152813" xlink:href="#m25ef652edb" y="263.369937"/>
     </g>
    </g>
    <g id="text_36">
     <!-- transpose -->
     <g transform="translate(343.152813 266.869937)scale(0.1 -0.1)">
      <use xlink:href="#DejaVuSans-116"/>
      <use x="39.208984" xlink:href="#DejaVuSans-114"/>
      <use x="80.322266" xlink:href="#DejaVuSans-97"/>
      <use x="141.601562" xlink:href="#DejaVuSans-110"/>
      <use x="204.980469" xlink:href="#DejaVuSans-115"/>
      <use x="257.080078" xlink:href="#DejaVuSans-112"/>
      <use x="320.556641" xlink:href="#DejaVuSans-111"/>
      <use x="381.738281" xlink:href="#DejaVuSans-115"/>
      <use x="433.837891" xlink:href="#DejaVuSans-101"/>
     </g>
    </g>
    <g id="line2d_70">
     <path d="M 315.152813 278.048063 
L 335.152813 278.048063 
" style="fill:none;stroke:#ff0000;stroke-dasharray:1.5,2.475;stroke-dashoffset:0;stroke-width:1.5;"/>
    </g>
    <g id="line2d_71">
     <g>
      <use style="fill:#ff0000;stroke:#ff0000;" x="325.152813" xlink:href="#mc1cd42ce6b" y="278.048063"/>
     </g>
    </g>
    <g id="text_37">
     <!-- transpose_tr -->
     <g transform="translate(343.152813 281.548063)scale(0.1 -0.1)">
      <use xlink:href="#DejaVuSans-116"/>
      <use x="39.208984" xlink:href="#DejaVuSans-114"/>
      <use x="80.322266" xlink:href="#DejaVuSans-97"/>
      <use x="141.601562" xlink:href="#DejaVuSans-110"/>
      <use x="204.980469" xlink:href="#DejaVuSans-115"/>
      <use x="257.080078" xlink:href="#DejaVuSans-112"/>
      <use x="320.556641" xlink:href="#DejaVuSans-111"/>
      <use x="381.738281" xlink:href="#DejaVuSans-115"/>
      <use x="433.837891" xlink:href="#DejaVuSans-101"/>
      <use x="495.361328" xlink:href="#DejaVuSans-95"/>
      <use x="545.361328" xlink:href="#DejaVuSans-116"/>
      <use x="584.570312" xlink:href="#DejaVuSans-114"/>
     </g>
    </g>
    <g id="line2d_72">
     <path d="M 315.152813 293.004312 
L 335.152813 293.004312 
" style="fill:none;stroke:#008000;stroke-dasharray:1.5,2.475;stroke-dashoffset:0;stroke-width:1.5;"/>
    </g>
    <g id="line2d_73">
     <g>
      <use style="fill:#008000;stroke:#008000;" x="325.152813" xlink:href="#m89946c415d" y="293.004312"/>
     </g>
    </g>
    <g id="text_38">
     <!-- mean -->
     <defs>
      <path d="M 52 44.1875 
Q 55.375 50.25 60.0625 53.125 
Q 64.75 56 71.09375 56 
Q 79.640625 56 84.28125 50.015625 
Q 88.921875 44.046875 88.921875 33.015625 
L 88.921875 0 
L 79.890625 0 
L 79.890625 32.71875 
Q 79.890625 40.578125 77.09375 44.375 
Q 74.3125 48.1875 68.609375 48.1875 
Q 61.625 48.1875 57.5625 43.546875 
Q 53.515625 38.921875 53.515625 30.90625 
L 53.515625 0 
L 44.484375 0 
L 44.484375 32.71875 
Q 44.484375 40.625 41.703125 44.40625 
Q 38.921875 48.1875 33.109375 48.1875 
Q 26.21875 48.1875 22.15625 43.53125 
Q 18.109375 38.875 18.109375 30.90625 
L 18.109375 0 
L 9.078125 0 
L 9.078125 54.6875 
L 18.109375 54.6875 
L 18.109375 46.1875 
Q 21.1875 51.21875 25.484375 53.609375 
Q 29.78125 56 35.6875 56 
Q 41.65625 56 45.828125 52.96875 
Q 50 49.953125 52 44.1875 
z
" id="DejaVuSans-109"/>
     </defs>
     <g transform="translate(343.152813 296.504312)scale(0.1 -0.1)">
      <use xlink:href="#DejaVuSans-109"/>
      <use x="97.412109" xlink:href="#DejaVuSans-101"/>
      <use x="158.935547" xlink:href="#DejaVuSans-97"/>
      <use x="220.214844" xlink:href="#DejaVuSans-110"/>
     </g>
    </g>
   </g>
  </g>
 </g>
 <defs>
  <clipPath id="pc2d93a5fbb">
   <rect height="266.112" width="357.12" x="57.6" y="41.472"/>
  </clipPath>
 </defs>
</svg>
