<?xml version="1.0" encoding="utf-8" standalone="no"?>
<!DOCTYPE svg PUBLIC "-//W3C//DTD SVG 1.1//EN"
  "http://www.w3.org/Graphics/SVG/1.1/DTD/svg11.dtd">
<!-- Created with matplotlib (https://matplotlib.org/) -->
<svg height="345.6pt" version="1.1" viewBox="0 0 460.8 345.6" width="460.8pt" xmlns="http://www.w3.org/2000/svg" xmlns:xlink="http://www.w3.org/1999/xlink">
 <defs>
  <style type="text/css">
*{stroke-linecap:butt;stroke-linejoin:round;}
  </style>
 </defs>
 <g id="figure_1">
  <g id="patch_1">
   <path d="M 0 345.6 
L 460.8 345.6 
L 460.8 0 
L 0 0 
z
" style="fill:#ffffff;"/>
  </g>
  <g id="axes_1">
   <g id="patch_2">
    <path d="M 57.6 307.584 
L 414.72 307.584 
L 414.72 41.472 
L 57.6 41.472 
z
" style="fill:#ffffff;"/>
   </g>
   <g id="matplotlib.axis_1">
    <g id="xtick_1">
     <g id="line2d_1">
      <path clip-path="url(#p6d78ccf1c2)" d="M 61.612584 307.584 
L 61.612584 41.472 
" style="fill:none;stroke:#b0b0b0;stroke-dasharray:5.12,1.28,0.8,1.28;stroke-dashoffset:0;stroke-width:0.8;"/>
     </g>
     <g id="line2d_2">
      <defs>
       <path d="M 0 0 
L 0 3.5 
" id="m00ddd72013" style="stroke:#000000;stroke-width:0.8;"/>
      </defs>
      <g>
       <use style="stroke:#000000;stroke-width:0.8;" x="61.612584" xlink:href="#m00ddd72013" y="307.584"/>
      </g>
     </g>
     <g id="text_1">
      <!-- 1 -->
      <defs>
       <path d="M 12.40625 8.296875 
L 28.515625 8.296875 
L 28.515625 63.921875 
L 10.984375 60.40625 
L 10.984375 69.390625 
L 28.421875 72.90625 
L 38.28125 72.90625 
L 38.28125 8.296875 
L 54.390625 8.296875 
L 54.390625 0 
L 12.40625 0 
z
" id="DejaVuSans-49"/>
      </defs>
      <g transform="translate(58.431334 322.182437)scale(0.1 -0.1)">
       <use xlink:href="#DejaVuSans-49"/>
      </g>
     </g>
    </g>
    <g id="xtick_2">
     <g id="line2d_3">
      <path clip-path="url(#p6d78ccf1c2)" d="M 73.650337 307.584 
L 73.650337 41.472 
" style="fill:none;stroke:#b0b0b0;stroke-dasharray:5.12,1.28,0.8,1.28;stroke-dashoffset:0;stroke-width:0.8;"/>
     </g>
     <g id="line2d_4">
      <g>
       <use style="stroke:#000000;stroke-width:0.8;" x="73.650337" xlink:href="#m00ddd72013" y="307.584"/>
      </g>
     </g>
     <g id="text_2">
      <!-- 4 -->
      <defs>
       <path d="M 37.796875 64.3125 
L 12.890625 25.390625 
L 37.796875 25.390625 
z
M 35.203125 72.90625 
L 47.609375 72.90625 
L 47.609375 25.390625 
L 58.015625 25.390625 
L 58.015625 17.1875 
L 47.609375 17.1875 
L 47.609375 0 
L 37.796875 0 
L 37.796875 17.1875 
L 4.890625 17.1875 
L 4.890625 26.703125 
z
" id="DejaVuSans-52"/>
      </defs>
      <g transform="translate(70.469087 322.182437)scale(0.1 -0.1)">
       <use xlink:href="#DejaVuSans-52"/>
      </g>
     </g>
    </g>
    <g id="xtick_3">
     <g id="line2d_5">
      <path clip-path="url(#p6d78ccf1c2)" d="M 89.700674 307.584 
L 89.700674 41.472 
" style="fill:none;stroke:#b0b0b0;stroke-dasharray:5.12,1.28,0.8,1.28;stroke-dashoffset:0;stroke-width:0.8;"/>
     </g>
     <g id="line2d_6">
      <g>
       <use style="stroke:#000000;stroke-width:0.8;" x="89.700674" xlink:href="#m00ddd72013" y="307.584"/>
      </g>
     </g>
     <g id="text_3">
      <!-- 8 -->
      <defs>
       <path d="M 31.78125 34.625 
Q 24.75 34.625 20.71875 30.859375 
Q 16.703125 27.09375 16.703125 20.515625 
Q 16.703125 13.921875 20.71875 10.15625 
Q 24.75 6.390625 31.78125 6.390625 
Q 38.8125 6.390625 42.859375 10.171875 
Q 46.921875 13.96875 46.921875 20.515625 
Q 46.921875 27.09375 42.890625 30.859375 
Q 38.875 34.625 31.78125 34.625 
z
M 21.921875 38.8125 
Q 15.578125 40.375 12.03125 44.71875 
Q 8.5 49.078125 8.5 55.328125 
Q 8.5 64.0625 14.71875 69.140625 
Q 20.953125 74.21875 31.78125 74.21875 
Q 42.671875 74.21875 48.875 69.140625 
Q 55.078125 64.0625 55.078125 55.328125 
Q 55.078125 49.078125 51.53125 44.71875 
Q 48 40.375 41.703125 38.8125 
Q 48.828125 37.15625 52.796875 32.3125 
Q 56.78125 27.484375 56.78125 20.515625 
Q 56.78125 9.90625 50.3125 4.234375 
Q 43.84375 -1.421875 31.78125 -1.421875 
Q 19.734375 -1.421875 13.25 4.234375 
Q 6.78125 9.90625 6.78125 20.515625 
Q 6.78125 27.484375 10.78125 32.3125 
Q 14.796875 37.15625 21.921875 38.8125 
z
M 18.3125 54.390625 
Q 18.3125 48.734375 21.84375 45.5625 
Q 25.390625 42.390625 31.78125 42.390625 
Q 38.140625 42.390625 41.71875 45.5625 
Q 45.3125 48.734375 45.3125 54.390625 
Q 45.3125 60.0625 41.71875 63.234375 
Q 38.140625 66.40625 31.78125 66.40625 
Q 25.390625 66.40625 21.84375 63.234375 
Q 18.3125 60.0625 18.3125 54.390625 
z
" id="DejaVuSans-56"/>
      </defs>
      <g transform="translate(86.519424 322.182437)scale(0.1 -0.1)">
       <use xlink:href="#DejaVuSans-56"/>
      </g>
     </g>
    </g>
    <g id="xtick_4">
     <g id="line2d_7">
      <path clip-path="url(#p6d78ccf1c2)" d="M 105.751011 307.584 
L 105.751011 41.472 
" style="fill:none;stroke:#b0b0b0;stroke-dasharray:5.12,1.28,0.8,1.28;stroke-dashoffset:0;stroke-width:0.8;"/>
     </g>
     <g id="line2d_8">
      <g>
       <use style="stroke:#000000;stroke-width:0.8;" x="105.751011" xlink:href="#m00ddd72013" y="307.584"/>
      </g>
     </g>
     <g id="text_4">
      <!-- 12 -->
      <defs>
       <path d="M 19.1875 8.296875 
L 53.609375 8.296875 
L 53.609375 0 
L 7.328125 0 
L 7.328125 8.296875 
Q 12.9375 14.109375 22.625 23.890625 
Q 32.328125 33.6875 34.8125 36.53125 
Q 39.546875 41.84375 41.421875 45.53125 
Q 43.3125 49.21875 43.3125 52.78125 
Q 43.3125 58.59375 39.234375 62.25 
Q 35.15625 65.921875 28.609375 65.921875 
Q 23.96875 65.921875 18.8125 64.3125 
Q 13.671875 62.703125 7.8125 59.421875 
L 7.8125 69.390625 
Q 13.765625 71.78125 18.9375 73 
Q 24.125 74.21875 28.421875 74.21875 
Q 39.75 74.21875 46.484375 68.546875 
Q 53.21875 62.890625 53.21875 53.421875 
Q 53.21875 48.921875 51.53125 44.890625 
Q 49.859375 40.875 45.40625 35.40625 
Q 44.1875 33.984375 37.640625 27.21875 
Q 31.109375 20.453125 19.1875 8.296875 
z
" id="DejaVuSans-50"/>
      </defs>
      <g transform="translate(99.388511 322.182437)scale(0.1 -0.1)">
       <use xlink:href="#DejaVuSans-49"/>
       <use x="63.623047" xlink:href="#DejaVuSans-50"/>
      </g>
     </g>
    </g>
    <g id="xtick_5">
     <g id="line2d_9">
      <path clip-path="url(#p6d78ccf1c2)" d="M 121.801348 307.584 
L 121.801348 41.472 
" style="fill:none;stroke:#b0b0b0;stroke-dasharray:5.12,1.28,0.8,1.28;stroke-dashoffset:0;stroke-width:0.8;"/>
     </g>
     <g id="line2d_10">
      <g>
       <use style="stroke:#000000;stroke-width:0.8;" x="121.801348" xlink:href="#m00ddd72013" y="307.584"/>
      </g>
     </g>
     <g id="text_5">
      <!-- 16 -->
      <defs>
       <path d="M 33.015625 40.375 
Q 26.375 40.375 22.484375 35.828125 
Q 18.609375 31.296875 18.609375 23.390625 
Q 18.609375 15.53125 22.484375 10.953125 
Q 26.375 6.390625 33.015625 6.390625 
Q 39.65625 6.390625 43.53125 10.953125 
Q 47.40625 15.53125 47.40625 23.390625 
Q 47.40625 31.296875 43.53125 35.828125 
Q 39.65625 40.375 33.015625 40.375 
z
M 52.59375 71.296875 
L 52.59375 62.3125 
Q 48.875 64.0625 45.09375 64.984375 
Q 41.3125 65.921875 37.59375 65.921875 
Q 27.828125 65.921875 22.671875 59.328125 
Q 17.53125 52.734375 16.796875 39.40625 
Q 19.671875 43.65625 24.015625 45.921875 
Q 28.375 48.1875 33.59375 48.1875 
Q 44.578125 48.1875 50.953125 41.515625 
Q 57.328125 34.859375 57.328125 23.390625 
Q 57.328125 12.15625 50.6875 5.359375 
Q 44.046875 -1.421875 33.015625 -1.421875 
Q 20.359375 -1.421875 13.671875 8.265625 
Q 6.984375 17.96875 6.984375 36.375 
Q 6.984375 53.65625 15.1875 63.9375 
Q 23.390625 74.21875 37.203125 74.21875 
Q 40.921875 74.21875 44.703125 73.484375 
Q 48.484375 72.75 52.59375 71.296875 
z
" id="DejaVuSans-54"/>
      </defs>
      <g transform="translate(115.438848 322.182437)scale(0.1 -0.1)">
       <use xlink:href="#DejaVuSans-49"/>
       <use x="63.623047" xlink:href="#DejaVuSans-54"/>
      </g>
     </g>
    </g>
    <g id="xtick_6">
     <g id="line2d_11">
      <path clip-path="url(#p6d78ccf1c2)" d="M 137.851685 307.584 
L 137.851685 41.472 
" style="fill:none;stroke:#b0b0b0;stroke-dasharray:5.12,1.28,0.8,1.28;stroke-dashoffset:0;stroke-width:0.8;"/>
     </g>
     <g id="line2d_12">
      <g>
       <use style="stroke:#000000;stroke-width:0.8;" x="137.851685" xlink:href="#m00ddd72013" y="307.584"/>
      </g>
     </g>
     <g id="text_6">
      <!-- 20 -->
      <defs>
       <path d="M 31.78125 66.40625 
Q 24.171875 66.40625 20.328125 58.90625 
Q 16.5 51.421875 16.5 36.375 
Q 16.5 21.390625 20.328125 13.890625 
Q 24.171875 6.390625 31.78125 6.390625 
Q 39.453125 6.390625 43.28125 13.890625 
Q 47.125 21.390625 47.125 36.375 
Q 47.125 51.421875 43.28125 58.90625 
Q 39.453125 66.40625 31.78125 66.40625 
z
M 31.78125 74.21875 
Q 44.046875 74.21875 50.515625 64.515625 
Q 56.984375 54.828125 56.984375 36.375 
Q 56.984375 17.96875 50.515625 8.265625 
Q 44.046875 -1.421875 31.78125 -1.421875 
Q 19.53125 -1.421875 13.0625 8.265625 
Q 6.59375 17.96875 6.59375 36.375 
Q 6.59375 54.828125 13.0625 64.515625 
Q 19.53125 74.21875 31.78125 74.21875 
z
" id="DejaVuSans-48"/>
      </defs>
      <g transform="translate(131.489185 322.182437)scale(0.1 -0.1)">
       <use xlink:href="#DejaVuSans-50"/>
       <use x="63.623047" xlink:href="#DejaVuSans-48"/>
      </g>
     </g>
    </g>
    <g id="xtick_7">
     <g id="line2d_13">
      <path clip-path="url(#p6d78ccf1c2)" d="M 153.902022 307.584 
L 153.902022 41.472 
" style="fill:none;stroke:#b0b0b0;stroke-dasharray:5.12,1.28,0.8,1.28;stroke-dashoffset:0;stroke-width:0.8;"/>
     </g>
     <g id="line2d_14">
      <g>
       <use style="stroke:#000000;stroke-width:0.8;" x="153.902022" xlink:href="#m00ddd72013" y="307.584"/>
      </g>
     </g>
     <g id="text_7">
      <!-- 24 -->
      <g transform="translate(147.539522 322.182437)scale(0.1 -0.1)">
       <use xlink:href="#DejaVuSans-50"/>
       <use x="63.623047" xlink:href="#DejaVuSans-52"/>
      </g>
     </g>
    </g>
    <g id="xtick_8">
     <g id="line2d_15">
      <path clip-path="url(#p6d78ccf1c2)" d="M 169.95236 307.584 
L 169.95236 41.472 
" style="fill:none;stroke:#b0b0b0;stroke-dasharray:5.12,1.28,0.8,1.28;stroke-dashoffset:0;stroke-width:0.8;"/>
     </g>
     <g id="line2d_16">
      <g>
       <use style="stroke:#000000;stroke-width:0.8;" x="169.95236" xlink:href="#m00ddd72013" y="307.584"/>
      </g>
     </g>
     <g id="text_8">
      <!-- 28 -->
      <g transform="translate(163.58986 322.182437)scale(0.1 -0.1)">
       <use xlink:href="#DejaVuSans-50"/>
       <use x="63.623047" xlink:href="#DejaVuSans-56"/>
      </g>
     </g>
    </g>
    <g id="xtick_9">
     <g id="line2d_17">
      <path clip-path="url(#p6d78ccf1c2)" d="M 186.002697 307.584 
L 186.002697 41.472 
" style="fill:none;stroke:#b0b0b0;stroke-dasharray:5.12,1.28,0.8,1.28;stroke-dashoffset:0;stroke-width:0.8;"/>
     </g>
     <g id="line2d_18">
      <g>
       <use style="stroke:#000000;stroke-width:0.8;" x="186.002697" xlink:href="#m00ddd72013" y="307.584"/>
      </g>
     </g>
     <g id="text_9">
      <!-- 32 -->
      <defs>
       <path d="M 40.578125 39.3125 
Q 47.65625 37.796875 51.625 33 
Q 55.609375 28.21875 55.609375 21.1875 
Q 55.609375 10.40625 48.1875 4.484375 
Q 40.765625 -1.421875 27.09375 -1.421875 
Q 22.515625 -1.421875 17.65625 -0.515625 
Q 12.796875 0.390625 7.625 2.203125 
L 7.625 11.71875 
Q 11.71875 9.328125 16.59375 8.109375 
Q 21.484375 6.890625 26.8125 6.890625 
Q 36.078125 6.890625 40.9375 10.546875 
Q 45.796875 14.203125 45.796875 21.1875 
Q 45.796875 27.640625 41.28125 31.265625 
Q 36.765625 34.90625 28.71875 34.90625 
L 20.21875 34.90625 
L 20.21875 43.015625 
L 29.109375 43.015625 
Q 36.375 43.015625 40.234375 45.921875 
Q 44.09375 48.828125 44.09375 54.296875 
Q 44.09375 59.90625 40.109375 62.90625 
Q 36.140625 65.921875 28.71875 65.921875 
Q 24.65625 65.921875 20.015625 65.03125 
Q 15.375 64.15625 9.8125 62.3125 
L 9.8125 71.09375 
Q 15.4375 72.65625 20.34375 73.4375 
Q 25.25 74.21875 29.59375 74.21875 
Q 40.828125 74.21875 47.359375 69.109375 
Q 53.90625 64.015625 53.90625 55.328125 
Q 53.90625 49.265625 50.4375 45.09375 
Q 46.96875 40.921875 40.578125 39.3125 
z
" id="DejaVuSans-51"/>
      </defs>
      <g transform="translate(179.640197 322.182437)scale(0.1 -0.1)">
       <use xlink:href="#DejaVuSans-51"/>
       <use x="63.623047" xlink:href="#DejaVuSans-50"/>
      </g>
     </g>
    </g>
    <g id="xtick_10">
     <g id="line2d_19">
      <path clip-path="url(#p6d78ccf1c2)" d="M 202.053034 307.584 
L 202.053034 41.472 
" style="fill:none;stroke:#b0b0b0;stroke-dasharray:5.12,1.28,0.8,1.28;stroke-dashoffset:0;stroke-width:0.8;"/>
     </g>
     <g id="line2d_20">
      <g>
       <use style="stroke:#000000;stroke-width:0.8;" x="202.053034" xlink:href="#m00ddd72013" y="307.584"/>
      </g>
     </g>
     <g id="text_10">
      <!-- 36 -->
      <g transform="translate(195.690534 322.182437)scale(0.1 -0.1)">
       <use xlink:href="#DejaVuSans-51"/>
       <use x="63.623047" xlink:href="#DejaVuSans-54"/>
      </g>
     </g>
    </g>
    <g id="xtick_11">
     <g id="line2d_21">
      <path clip-path="url(#p6d78ccf1c2)" d="M 218.103371 307.584 
L 218.103371 41.472 
" style="fill:none;stroke:#b0b0b0;stroke-dasharray:5.12,1.28,0.8,1.28;stroke-dashoffset:0;stroke-width:0.8;"/>
     </g>
     <g id="line2d_22">
      <g>
       <use style="stroke:#000000;stroke-width:0.8;" x="218.103371" xlink:href="#m00ddd72013" y="307.584"/>
      </g>
     </g>
     <g id="text_11">
      <!-- 40 -->
      <g transform="translate(211.740871 322.182437)scale(0.1 -0.1)">
       <use xlink:href="#DejaVuSans-52"/>
       <use x="63.623047" xlink:href="#DejaVuSans-48"/>
      </g>
     </g>
    </g>
    <g id="xtick_12">
     <g id="line2d_23">
      <path clip-path="url(#p6d78ccf1c2)" d="M 234.153708 307.584 
L 234.153708 41.472 
" style="fill:none;stroke:#b0b0b0;stroke-dasharray:5.12,1.28,0.8,1.28;stroke-dashoffset:0;stroke-width:0.8;"/>
     </g>
     <g id="line2d_24">
      <g>
       <use style="stroke:#000000;stroke-width:0.8;" x="234.153708" xlink:href="#m00ddd72013" y="307.584"/>
      </g>
     </g>
     <g id="text_12">
      <!-- 44 -->
      <g transform="translate(227.791208 322.182437)scale(0.1 -0.1)">
       <use xlink:href="#DejaVuSans-52"/>
       <use x="63.623047" xlink:href="#DejaVuSans-52"/>
      </g>
     </g>
    </g>
    <g id="xtick_13">
     <g id="line2d_25">
      <path clip-path="url(#p6d78ccf1c2)" d="M 250.204045 307.584 
L 250.204045 41.472 
" style="fill:none;stroke:#b0b0b0;stroke-dasharray:5.12,1.28,0.8,1.28;stroke-dashoffset:0;stroke-width:0.8;"/>
     </g>
     <g id="line2d_26">
      <g>
       <use style="stroke:#000000;stroke-width:0.8;" x="250.204045" xlink:href="#m00ddd72013" y="307.584"/>
      </g>
     </g>
     <g id="text_13">
      <!-- 48 -->
      <g transform="translate(243.841545 322.182437)scale(0.1 -0.1)">
       <use xlink:href="#DejaVuSans-52"/>
       <use x="63.623047" xlink:href="#DejaVuSans-56"/>
      </g>
     </g>
    </g>
    <g id="xtick_14">
     <g id="line2d_27">
      <path clip-path="url(#p6d78ccf1c2)" d="M 266.254382 307.584 
L 266.254382 41.472 
" style="fill:none;stroke:#b0b0b0;stroke-dasharray:5.12,1.28,0.8,1.28;stroke-dashoffset:0;stroke-width:0.8;"/>
     </g>
     <g id="line2d_28">
      <g>
       <use style="stroke:#000000;stroke-width:0.8;" x="266.254382" xlink:href="#m00ddd72013" y="307.584"/>
      </g>
     </g>
     <g id="text_14">
      <!-- 52 -->
      <defs>
       <path d="M 10.796875 72.90625 
L 49.515625 72.90625 
L 49.515625 64.59375 
L 19.828125 64.59375 
L 19.828125 46.734375 
Q 21.96875 47.46875 24.109375 47.828125 
Q 26.265625 48.1875 28.421875 48.1875 
Q 40.625 48.1875 47.75 41.5 
Q 54.890625 34.8125 54.890625 23.390625 
Q 54.890625 11.625 47.5625 5.09375 
Q 40.234375 -1.421875 26.90625 -1.421875 
Q 22.3125 -1.421875 17.546875 -0.640625 
Q 12.796875 0.140625 7.71875 1.703125 
L 7.71875 11.625 
Q 12.109375 9.234375 16.796875 8.0625 
Q 21.484375 6.890625 26.703125 6.890625 
Q 35.15625 6.890625 40.078125 11.328125 
Q 45.015625 15.765625 45.015625 23.390625 
Q 45.015625 31 40.078125 35.4375 
Q 35.15625 39.890625 26.703125 39.890625 
Q 22.75 39.890625 18.8125 39.015625 
Q 14.890625 38.140625 10.796875 36.28125 
z
" id="DejaVuSans-53"/>
      </defs>
      <g transform="translate(259.891882 322.182437)scale(0.1 -0.1)">
       <use xlink:href="#DejaVuSans-53"/>
       <use x="63.623047" xlink:href="#DejaVuSans-50"/>
      </g>
     </g>
    </g>
    <g id="xtick_15">
     <g id="line2d_29">
      <path clip-path="url(#p6d78ccf1c2)" d="M 282.304719 307.584 
L 282.304719 41.472 
" style="fill:none;stroke:#b0b0b0;stroke-dasharray:5.12,1.28,0.8,1.28;stroke-dashoffset:0;stroke-width:0.8;"/>
     </g>
     <g id="line2d_30">
      <g>
       <use style="stroke:#000000;stroke-width:0.8;" x="282.304719" xlink:href="#m00ddd72013" y="307.584"/>
      </g>
     </g>
     <g id="text_15">
      <!-- 56 -->
      <g transform="translate(275.942219 322.182437)scale(0.1 -0.1)">
       <use xlink:href="#DejaVuSans-53"/>
       <use x="63.623047" xlink:href="#DejaVuSans-54"/>
      </g>
     </g>
    </g>
    <g id="xtick_16">
     <g id="line2d_31">
      <path clip-path="url(#p6d78ccf1c2)" d="M 298.355056 307.584 
L 298.355056 41.472 
" style="fill:none;stroke:#b0b0b0;stroke-dasharray:5.12,1.28,0.8,1.28;stroke-dashoffset:0;stroke-width:0.8;"/>
     </g>
     <g id="line2d_32">
      <g>
       <use style="stroke:#000000;stroke-width:0.8;" x="298.355056" xlink:href="#m00ddd72013" y="307.584"/>
      </g>
     </g>
     <g id="text_16">
      <!-- 60 -->
      <g transform="translate(291.992556 322.182437)scale(0.1 -0.1)">
       <use xlink:href="#DejaVuSans-54"/>
       <use x="63.623047" xlink:href="#DejaVuSans-48"/>
      </g>
     </g>
    </g>
    <g id="xtick_17">
     <g id="line2d_33">
      <path clip-path="url(#p6d78ccf1c2)" d="M 314.405393 307.584 
L 314.405393 41.472 
" style="fill:none;stroke:#b0b0b0;stroke-dasharray:5.12,1.28,0.8,1.28;stroke-dashoffset:0;stroke-width:0.8;"/>
     </g>
     <g id="line2d_34">
      <g>
       <use style="stroke:#000000;stroke-width:0.8;" x="314.405393" xlink:href="#m00ddd72013" y="307.584"/>
      </g>
     </g>
     <g id="text_17">
      <!-- 64 -->
      <g transform="translate(308.042893 322.182437)scale(0.1 -0.1)">
       <use xlink:href="#DejaVuSans-54"/>
       <use x="63.623047" xlink:href="#DejaVuSans-52"/>
      </g>
     </g>
    </g>
    <g id="xtick_18">
     <g id="line2d_35">
      <path clip-path="url(#p6d78ccf1c2)" d="M 330.45573 307.584 
L 330.45573 41.472 
" style="fill:none;stroke:#b0b0b0;stroke-dasharray:5.12,1.28,0.8,1.28;stroke-dashoffset:0;stroke-width:0.8;"/>
     </g>
     <g id="line2d_36">
      <g>
       <use style="stroke:#000000;stroke-width:0.8;" x="330.45573" xlink:href="#m00ddd72013" y="307.584"/>
      </g>
     </g>
     <g id="text_18">
      <!-- 68 -->
      <g transform="translate(324.09323 322.182437)scale(0.1 -0.1)">
       <use xlink:href="#DejaVuSans-54"/>
       <use x="63.623047" xlink:href="#DejaVuSans-56"/>
      </g>
     </g>
    </g>
    <g id="xtick_19">
     <g id="line2d_37">
      <path clip-path="url(#p6d78ccf1c2)" d="M 346.506067 307.584 
L 346.506067 41.472 
" style="fill:none;stroke:#b0b0b0;stroke-dasharray:5.12,1.28,0.8,1.28;stroke-dashoffset:0;stroke-width:0.8;"/>
     </g>
     <g id="line2d_38">
      <g>
       <use style="stroke:#000000;stroke-width:0.8;" x="346.506067" xlink:href="#m00ddd72013" y="307.584"/>
      </g>
     </g>
     <g id="text_19">
      <!-- 72 -->
      <defs>
       <path d="M 8.203125 72.90625 
L 55.078125 72.90625 
L 55.078125 68.703125 
L 28.609375 0 
L 18.3125 0 
L 43.21875 64.59375 
L 8.203125 64.59375 
z
" id="DejaVuSans-55"/>
      </defs>
      <g transform="translate(340.143567 322.182437)scale(0.1 -0.1)">
       <use xlink:href="#DejaVuSans-55"/>
       <use x="63.623047" xlink:href="#DejaVuSans-50"/>
      </g>
     </g>
    </g>
    <g id="xtick_20">
     <g id="line2d_39">
      <path clip-path="url(#p6d78ccf1c2)" d="M 362.556404 307.584 
L 362.556404 41.472 
" style="fill:none;stroke:#b0b0b0;stroke-dasharray:5.12,1.28,0.8,1.28;stroke-dashoffset:0;stroke-width:0.8;"/>
     </g>
     <g id="line2d_40">
      <g>
       <use style="stroke:#000000;stroke-width:0.8;" x="362.556404" xlink:href="#m00ddd72013" y="307.584"/>
      </g>
     </g>
     <g id="text_20">
      <!-- 76 -->
      <g transform="translate(356.193904 322.182437)scale(0.1 -0.1)">
       <use xlink:href="#DejaVuSans-55"/>
       <use x="63.623047" xlink:href="#DejaVuSans-54"/>
      </g>
     </g>
    </g>
    <g id="xtick_21">
     <g id="line2d_41">
      <path clip-path="url(#p6d78ccf1c2)" d="M 378.606742 307.584 
L 378.606742 41.472 
" style="fill:none;stroke:#b0b0b0;stroke-dasharray:5.12,1.28,0.8,1.28;stroke-dashoffset:0;stroke-width:0.8;"/>
     </g>
     <g id="line2d_42">
      <g>
       <use style="stroke:#000000;stroke-width:0.8;" x="378.606742" xlink:href="#m00ddd72013" y="307.584"/>
      </g>
     </g>
     <g id="text_21">
      <!-- 80 -->
      <g transform="translate(372.244242 322.182437)scale(0.1 -0.1)">
       <use xlink:href="#DejaVuSans-56"/>
       <use x="63.623047" xlink:href="#DejaVuSans-48"/>
      </g>
     </g>
    </g>
    <g id="xtick_22">
     <g id="line2d_43">
      <path clip-path="url(#p6d78ccf1c2)" d="M 394.657079 307.584 
L 394.657079 41.472 
" style="fill:none;stroke:#b0b0b0;stroke-dasharray:5.12,1.28,0.8,1.28;stroke-dashoffset:0;stroke-width:0.8;"/>
     </g>
     <g id="line2d_44">
      <g>
       <use style="stroke:#000000;stroke-width:0.8;" x="394.657079" xlink:href="#m00ddd72013" y="307.584"/>
      </g>
     </g>
     <g id="text_22">
      <!-- 84 -->
      <g transform="translate(388.294579 322.182437)scale(0.1 -0.1)">
       <use xlink:href="#DejaVuSans-56"/>
       <use x="63.623047" xlink:href="#DejaVuSans-52"/>
      </g>
     </g>
    </g>
    <g id="xtick_23">
     <g id="line2d_45">
      <path clip-path="url(#p6d78ccf1c2)" d="M 410.707416 307.584 
L 410.707416 41.472 
" style="fill:none;stroke:#b0b0b0;stroke-dasharray:5.12,1.28,0.8,1.28;stroke-dashoffset:0;stroke-width:0.8;"/>
     </g>
     <g id="line2d_46">
      <g>
       <use style="stroke:#000000;stroke-width:0.8;" x="410.707416" xlink:href="#m00ddd72013" y="307.584"/>
      </g>
     </g>
     <g id="text_23">
      <!-- 88 -->
      <g transform="translate(404.344916 322.182437)scale(0.1 -0.1)">
       <use xlink:href="#DejaVuSans-56"/>
       <use x="63.623047" xlink:href="#DejaVuSans-56"/>
      </g>
     </g>
    </g>
    <g id="text_24">
     <!-- threads -->
     <defs>
      <path d="M 18.3125 70.21875 
L 18.3125 54.6875 
L 36.8125 54.6875 
L 36.8125 47.703125 
L 18.3125 47.703125 
L 18.3125 18.015625 
Q 18.3125 11.328125 20.140625 9.421875 
Q 21.96875 7.515625 27.59375 7.515625 
L 36.8125 7.515625 
L 36.8125 0 
L 27.59375 0 
Q 17.1875 0 13.234375 3.875 
Q 9.28125 7.765625 9.28125 18.015625 
L 9.28125 47.703125 
L 2.6875 47.703125 
L 2.6875 54.6875 
L 9.28125 54.6875 
L 9.28125 70.21875 
z
" id="DejaVuSans-116"/>
      <path d="M 54.890625 33.015625 
L 54.890625 0 
L 45.90625 0 
L 45.90625 32.71875 
Q 45.90625 40.484375 42.875 44.328125 
Q 39.84375 48.1875 33.796875 48.1875 
Q 26.515625 48.1875 22.3125 43.546875 
Q 18.109375 38.921875 18.109375 30.90625 
L 18.109375 0 
L 9.078125 0 
L 9.078125 75.984375 
L 18.109375 75.984375 
L 18.109375 46.1875 
Q 21.34375 51.125 25.703125 53.5625 
Q 30.078125 56 35.796875 56 
Q 45.21875 56 50.046875 50.171875 
Q 54.890625 44.34375 54.890625 33.015625 
z
" id="DejaVuSans-104"/>
      <path d="M 41.109375 46.296875 
Q 39.59375 47.171875 37.8125 47.578125 
Q 36.03125 48 33.890625 48 
Q 26.265625 48 22.1875 43.046875 
Q 18.109375 38.09375 18.109375 28.8125 
L 18.109375 0 
L 9.078125 0 
L 9.078125 54.6875 
L 18.109375 54.6875 
L 18.109375 46.1875 
Q 20.953125 51.171875 25.484375 53.578125 
Q 30.03125 56 36.53125 56 
Q 37.453125 56 38.578125 55.875 
Q 39.703125 55.765625 41.0625 55.515625 
z
" id="DejaVuSans-114"/>
      <path d="M 56.203125 29.59375 
L 56.203125 25.203125 
L 14.890625 25.203125 
Q 15.484375 15.921875 20.484375 11.0625 
Q 25.484375 6.203125 34.421875 6.203125 
Q 39.59375 6.203125 44.453125 7.46875 
Q 49.3125 8.734375 54.109375 11.28125 
L 54.109375 2.78125 
Q 49.265625 0.734375 44.1875 -0.34375 
Q 39.109375 -1.421875 33.890625 -1.421875 
Q 20.796875 -1.421875 13.15625 6.1875 
Q 5.515625 13.8125 5.515625 26.8125 
Q 5.515625 40.234375 12.765625 48.109375 
Q 20.015625 56 32.328125 56 
Q 43.359375 56 49.78125 48.890625 
Q 56.203125 41.796875 56.203125 29.59375 
z
M 47.21875 32.234375 
Q 47.125 39.59375 43.09375 43.984375 
Q 39.0625 48.390625 32.421875 48.390625 
Q 24.90625 48.390625 20.390625 44.140625 
Q 15.875 39.890625 15.1875 32.171875 
z
" id="DejaVuSans-101"/>
      <path d="M 34.28125 27.484375 
Q 23.390625 27.484375 19.1875 25 
Q 14.984375 22.515625 14.984375 16.5 
Q 14.984375 11.71875 18.140625 8.90625 
Q 21.296875 6.109375 26.703125 6.109375 
Q 34.1875 6.109375 38.703125 11.40625 
Q 43.21875 16.703125 43.21875 25.484375 
L 43.21875 27.484375 
z
M 52.203125 31.203125 
L 52.203125 0 
L 43.21875 0 
L 43.21875 8.296875 
Q 40.140625 3.328125 35.546875 0.953125 
Q 30.953125 -1.421875 24.3125 -1.421875 
Q 15.921875 -1.421875 10.953125 3.296875 
Q 6 8.015625 6 15.921875 
Q 6 25.140625 12.171875 29.828125 
Q 18.359375 34.515625 30.609375 34.515625 
L 43.21875 34.515625 
L 43.21875 35.40625 
Q 43.21875 41.609375 39.140625 45 
Q 35.0625 48.390625 27.6875 48.390625 
Q 23 48.390625 18.546875 47.265625 
Q 14.109375 46.140625 10.015625 43.890625 
L 10.015625 52.203125 
Q 14.9375 54.109375 19.578125 55.046875 
Q 24.21875 56 28.609375 56 
Q 40.484375 56 46.34375 49.84375 
Q 52.203125 43.703125 52.203125 31.203125 
z
" id="DejaVuSans-97"/>
      <path d="M 45.40625 46.390625 
L 45.40625 75.984375 
L 54.390625 75.984375 
L 54.390625 0 
L 45.40625 0 
L 45.40625 8.203125 
Q 42.578125 3.328125 38.25 0.953125 
Q 33.9375 -1.421875 27.875 -1.421875 
Q 17.96875 -1.421875 11.734375 6.484375 
Q 5.515625 14.40625 5.515625 27.296875 
Q 5.515625 40.1875 11.734375 48.09375 
Q 17.96875 56 27.875 56 
Q 33.9375 56 38.25 53.625 
Q 42.578125 51.265625 45.40625 46.390625 
z
M 14.796875 27.296875 
Q 14.796875 17.390625 18.875 11.75 
Q 22.953125 6.109375 30.078125 6.109375 
Q 37.203125 6.109375 41.296875 11.75 
Q 45.40625 17.390625 45.40625 27.296875 
Q 45.40625 37.203125 41.296875 42.84375 
Q 37.203125 48.484375 30.078125 48.484375 
Q 22.953125 48.484375 18.875 42.84375 
Q 14.796875 37.203125 14.796875 27.296875 
z
" id="DejaVuSans-100"/>
      <path d="M 44.28125 53.078125 
L 44.28125 44.578125 
Q 40.484375 46.53125 36.375 47.5 
Q 32.28125 48.484375 27.875 48.484375 
Q 21.1875 48.484375 17.84375 46.4375 
Q 14.5 44.390625 14.5 40.28125 
Q 14.5 37.15625 16.890625 35.375 
Q 19.28125 33.59375 26.515625 31.984375 
L 29.59375 31.296875 
Q 39.15625 29.25 43.1875 25.515625 
Q 47.21875 21.78125 47.21875 15.09375 
Q 47.21875 7.46875 41.1875 3.015625 
Q 35.15625 -1.421875 24.609375 -1.421875 
Q 20.21875 -1.421875 15.453125 -0.5625 
Q 10.6875 0.296875 5.421875 2 
L 5.421875 11.28125 
Q 10.40625 8.6875 15.234375 7.390625 
Q 20.0625 6.109375 24.8125 6.109375 
Q 31.15625 6.109375 34.5625 8.28125 
Q 37.984375 10.453125 37.984375 14.40625 
Q 37.984375 18.0625 35.515625 20.015625 
Q 33.0625 21.96875 24.703125 23.78125 
L 21.578125 24.515625 
Q 13.234375 26.265625 9.515625 29.90625 
Q 5.8125 33.546875 5.8125 39.890625 
Q 5.8125 47.609375 11.28125 51.796875 
Q 16.75 56 26.8125 56 
Q 31.78125 56 36.171875 55.265625 
Q 40.578125 54.546875 44.28125 53.078125 
z
" id="DejaVuSans-115"/>
     </defs>
     <g transform="translate(217.168594 335.860562)scale(0.1 -0.1)">
      <use xlink:href="#DejaVuSans-116"/>
      <use x="39.208984" xlink:href="#DejaVuSans-104"/>
      <use x="102.587891" xlink:href="#DejaVuSans-114"/>
      <use x="141.451172" xlink:href="#DejaVuSans-101"/>
      <use x="202.974609" xlink:href="#DejaVuSans-97"/>
      <use x="264.253906" xlink:href="#DejaVuSans-100"/>
      <use x="327.730469" xlink:href="#DejaVuSans-115"/>
     </g>
    </g>
   </g>
   <g id="matplotlib.axis_2">
    <g id="ytick_1">
     <g id="line2d_47">
      <path clip-path="url(#p6d78ccf1c2)" d="M 57.6 279.443297 
L 414.72 279.443297 
" style="fill:none;stroke:#b0b0b0;stroke-dasharray:5.12,1.28,0.8,1.28;stroke-dashoffset:0;stroke-width:0.8;"/>
     </g>
     <g id="line2d_48">
      <defs>
       <path d="M 0 0 
L -3.5 0 
" id="med2f2cbfea" style="stroke:#000000;stroke-width:0.8;"/>
      </defs>
      <g>
       <use style="stroke:#000000;stroke-width:0.8;" x="57.6" xlink:href="#med2f2cbfea" y="279.443297"/>
      </g>
     </g>
     <g id="text_25">
      <!-- 0.3 -->
      <defs>
       <path d="M 10.6875 12.40625 
L 21 12.40625 
L 21 0 
L 10.6875 0 
z
" id="DejaVuSans-46"/>
      </defs>
      <g transform="translate(34.696875 283.242516)scale(0.1 -0.1)">
       <use xlink:href="#DejaVuSans-48"/>
       <use x="63.623047" xlink:href="#DejaVuSans-46"/>
       <use x="95.410156" xlink:href="#DejaVuSans-51"/>
      </g>
     </g>
    </g>
    <g id="ytick_2">
     <g id="line2d_49">
      <path clip-path="url(#p6d78ccf1c2)" d="M 57.6 249.009636 
L 414.72 249.009636 
" style="fill:none;stroke:#b0b0b0;stroke-dasharray:5.12,1.28,0.8,1.28;stroke-dashoffset:0;stroke-width:0.8;"/>
     </g>
     <g id="line2d_50">
      <g>
       <use style="stroke:#000000;stroke-width:0.8;" x="57.6" xlink:href="#med2f2cbfea" y="249.009636"/>
      </g>
     </g>
     <g id="text_26">
      <!-- 0.4 -->
      <g transform="translate(34.696875 252.808855)scale(0.1 -0.1)">
       <use xlink:href="#DejaVuSans-48"/>
       <use x="63.623047" xlink:href="#DejaVuSans-46"/>
       <use x="95.410156" xlink:href="#DejaVuSans-52"/>
      </g>
     </g>
    </g>
    <g id="ytick_3">
     <g id="line2d_51">
      <path clip-path="url(#p6d78ccf1c2)" d="M 57.6 218.575976 
L 414.72 218.575976 
" style="fill:none;stroke:#b0b0b0;stroke-dasharray:5.12,1.28,0.8,1.28;stroke-dashoffset:0;stroke-width:0.8;"/>
     </g>
     <g id="line2d_52">
      <g>
       <use style="stroke:#000000;stroke-width:0.8;" x="57.6" xlink:href="#med2f2cbfea" y="218.575976"/>
      </g>
     </g>
     <g id="text_27">
      <!-- 0.5 -->
      <g transform="translate(34.696875 222.375195)scale(0.1 -0.1)">
       <use xlink:href="#DejaVuSans-48"/>
       <use x="63.623047" xlink:href="#DejaVuSans-46"/>
       <use x="95.410156" xlink:href="#DejaVuSans-53"/>
      </g>
     </g>
    </g>
    <g id="ytick_4">
     <g id="line2d_53">
      <path clip-path="url(#p6d78ccf1c2)" d="M 57.6 188.142315 
L 414.72 188.142315 
" style="fill:none;stroke:#b0b0b0;stroke-dasharray:5.12,1.28,0.8,1.28;stroke-dashoffset:0;stroke-width:0.8;"/>
     </g>
     <g id="line2d_54">
      <g>
       <use style="stroke:#000000;stroke-width:0.8;" x="57.6" xlink:href="#med2f2cbfea" y="188.142315"/>
      </g>
     </g>
     <g id="text_28">
      <!-- 0.6 -->
      <g transform="translate(34.696875 191.941534)scale(0.1 -0.1)">
       <use xlink:href="#DejaVuSans-48"/>
       <use x="63.623047" xlink:href="#DejaVuSans-46"/>
       <use x="95.410156" xlink:href="#DejaVuSans-54"/>
      </g>
     </g>
    </g>
    <g id="ytick_5">
     <g id="line2d_55">
      <path clip-path="url(#p6d78ccf1c2)" d="M 57.6 157.708655 
L 414.72 157.708655 
" style="fill:none;stroke:#b0b0b0;stroke-dasharray:5.12,1.28,0.8,1.28;stroke-dashoffset:0;stroke-width:0.8;"/>
     </g>
     <g id="line2d_56">
      <g>
       <use style="stroke:#000000;stroke-width:0.8;" x="57.6" xlink:href="#med2f2cbfea" y="157.708655"/>
      </g>
     </g>
     <g id="text_29">
      <!-- 0.7 -->
      <g transform="translate(34.696875 161.507874)scale(0.1 -0.1)">
       <use xlink:href="#DejaVuSans-48"/>
       <use x="63.623047" xlink:href="#DejaVuSans-46"/>
       <use x="95.410156" xlink:href="#DejaVuSans-55"/>
      </g>
     </g>
    </g>
    <g id="ytick_6">
     <g id="line2d_57">
      <path clip-path="url(#p6d78ccf1c2)" d="M 57.6 127.274994 
L 414.72 127.274994 
" style="fill:none;stroke:#b0b0b0;stroke-dasharray:5.12,1.28,0.8,1.28;stroke-dashoffset:0;stroke-width:0.8;"/>
     </g>
     <g id="line2d_58">
      <g>
       <use style="stroke:#000000;stroke-width:0.8;" x="57.6" xlink:href="#med2f2cbfea" y="127.274994"/>
      </g>
     </g>
     <g id="text_30">
      <!-- 0.8 -->
      <g transform="translate(34.696875 131.074213)scale(0.1 -0.1)">
       <use xlink:href="#DejaVuSans-48"/>
       <use x="63.623047" xlink:href="#DejaVuSans-46"/>
       <use x="95.410156" xlink:href="#DejaVuSans-56"/>
      </g>
     </g>
    </g>
    <g id="ytick_7">
     <g id="line2d_59">
      <path clip-path="url(#p6d78ccf1c2)" d="M 57.6 96.841334 
L 414.72 96.841334 
" style="fill:none;stroke:#b0b0b0;stroke-dasharray:5.12,1.28,0.8,1.28;stroke-dashoffset:0;stroke-width:0.8;"/>
     </g>
     <g id="line2d_60">
      <g>
       <use style="stroke:#000000;stroke-width:0.8;" x="57.6" xlink:href="#med2f2cbfea" y="96.841334"/>
      </g>
     </g>
     <g id="text_31">
      <!-- 0.9 -->
      <defs>
       <path d="M 10.984375 1.515625 
L 10.984375 10.5 
Q 14.703125 8.734375 18.5 7.8125 
Q 22.3125 6.890625 25.984375 6.890625 
Q 35.75 6.890625 40.890625 13.453125 
Q 46.046875 20.015625 46.78125 33.40625 
Q 43.953125 29.203125 39.59375 26.953125 
Q 35.25 24.703125 29.984375 24.703125 
Q 19.046875 24.703125 12.671875 31.3125 
Q 6.296875 37.9375 6.296875 49.421875 
Q 6.296875 60.640625 12.9375 67.421875 
Q 19.578125 74.21875 30.609375 74.21875 
Q 43.265625 74.21875 49.921875 64.515625 
Q 56.59375 54.828125 56.59375 36.375 
Q 56.59375 19.140625 48.40625 8.859375 
Q 40.234375 -1.421875 26.421875 -1.421875 
Q 22.703125 -1.421875 18.890625 -0.6875 
Q 15.09375 0.046875 10.984375 1.515625 
z
M 30.609375 32.421875 
Q 37.25 32.421875 41.125 36.953125 
Q 45.015625 41.5 45.015625 49.421875 
Q 45.015625 57.28125 41.125 61.84375 
Q 37.25 66.40625 30.609375 66.40625 
Q 23.96875 66.40625 20.09375 61.84375 
Q 16.21875 57.28125 16.21875 49.421875 
Q 16.21875 41.5 20.09375 36.953125 
Q 23.96875 32.421875 30.609375 32.421875 
z
" id="DejaVuSans-57"/>
      </defs>
      <g transform="translate(34.696875 100.640552)scale(0.1 -0.1)">
       <use xlink:href="#DejaVuSans-48"/>
       <use x="63.623047" xlink:href="#DejaVuSans-46"/>
       <use x="95.410156" xlink:href="#DejaVuSans-57"/>
      </g>
     </g>
    </g>
    <g id="ytick_8">
     <g id="line2d_61">
      <path clip-path="url(#p6d78ccf1c2)" d="M 57.6 66.407673 
L 414.72 66.407673 
" style="fill:none;stroke:#b0b0b0;stroke-dasharray:5.12,1.28,0.8,1.28;stroke-dashoffset:0;stroke-width:0.8;"/>
     </g>
     <g id="line2d_62">
      <g>
       <use style="stroke:#000000;stroke-width:0.8;" x="57.6" xlink:href="#med2f2cbfea" y="66.407673"/>
      </g>
     </g>
     <g id="text_32">
      <!-- 1.0 -->
      <g transform="translate(34.696875 70.206892)scale(0.1 -0.1)">
       <use xlink:href="#DejaVuSans-49"/>
       <use x="63.623047" xlink:href="#DejaVuSans-46"/>
       <use x="95.410156" xlink:href="#DejaVuSans-48"/>
      </g>
     </g>
    </g>
    <g id="text_33">
     <!-- duration (s) -->
     <defs>
      <path d="M 8.5 21.578125 
L 8.5 54.6875 
L 17.484375 54.6875 
L 17.484375 21.921875 
Q 17.484375 14.15625 20.5 10.265625 
Q 23.53125 6.390625 29.59375 6.390625 
Q 36.859375 6.390625 41.078125 11.03125 
Q 45.3125 15.671875 45.3125 23.6875 
L 45.3125 54.6875 
L 54.296875 54.6875 
L 54.296875 0 
L 45.3125 0 
L 45.3125 8.40625 
Q 42.046875 3.421875 37.71875 1 
Q 33.40625 -1.421875 27.6875 -1.421875 
Q 18.265625 -1.421875 13.375 4.4375 
Q 8.5 10.296875 8.5 21.578125 
z
M 31.109375 56 
z
" id="DejaVuSans-117"/>
      <path d="M 9.421875 54.6875 
L 18.40625 54.6875 
L 18.40625 0 
L 9.421875 0 
z
M 9.421875 75.984375 
L 18.40625 75.984375 
L 18.40625 64.59375 
L 9.421875 64.59375 
z
" id="DejaVuSans-105"/>
      <path d="M 30.609375 48.390625 
Q 23.390625 48.390625 19.1875 42.75 
Q 14.984375 37.109375 14.984375 27.296875 
Q 14.984375 17.484375 19.15625 11.84375 
Q 23.34375 6.203125 30.609375 6.203125 
Q 37.796875 6.203125 41.984375 11.859375 
Q 46.1875 17.53125 46.1875 27.296875 
Q 46.1875 37.015625 41.984375 42.703125 
Q 37.796875 48.390625 30.609375 48.390625 
z
M 30.609375 56 
Q 42.328125 56 49.015625 48.375 
Q 55.71875 40.765625 55.71875 27.296875 
Q 55.71875 13.875 49.015625 6.21875 
Q 42.328125 -1.421875 30.609375 -1.421875 
Q 18.84375 -1.421875 12.171875 6.21875 
Q 5.515625 13.875 5.515625 27.296875 
Q 5.515625 40.765625 12.171875 48.375 
Q 18.84375 56 30.609375 56 
z
" id="DejaVuSans-111"/>
      <path d="M 54.890625 33.015625 
L 54.890625 0 
L 45.90625 0 
L 45.90625 32.71875 
Q 45.90625 40.484375 42.875 44.328125 
Q 39.84375 48.1875 33.796875 48.1875 
Q 26.515625 48.1875 22.3125 43.546875 
Q 18.109375 38.921875 18.109375 30.90625 
L 18.109375 0 
L 9.078125 0 
L 9.078125 54.6875 
L 18.109375 54.6875 
L 18.109375 46.1875 
Q 21.34375 51.125 25.703125 53.5625 
Q 30.078125 56 35.796875 56 
Q 45.21875 56 50.046875 50.171875 
Q 54.890625 44.34375 54.890625 33.015625 
z
" id="DejaVuSans-110"/>
      <path id="DejaVuSans-32"/>
      <path d="M 31 75.875 
Q 24.46875 64.65625 21.28125 53.65625 
Q 18.109375 42.671875 18.109375 31.390625 
Q 18.109375 20.125 21.3125 9.0625 
Q 24.515625 -2 31 -13.1875 
L 23.1875 -13.1875 
Q 15.875 -1.703125 12.234375 9.375 
Q 8.59375 20.453125 8.59375 31.390625 
Q 8.59375 42.28125 12.203125 53.3125 
Q 15.828125 64.359375 23.1875 75.875 
z
" id="DejaVuSans-40"/>
      <path d="M 8.015625 75.875 
L 15.828125 75.875 
Q 23.140625 64.359375 26.78125 53.3125 
Q 30.421875 42.28125 30.421875 31.390625 
Q 30.421875 20.453125 26.78125 9.375 
Q 23.140625 -1.703125 15.828125 -13.1875 
L 8.015625 -13.1875 
Q 14.5 -2 17.703125 9.0625 
Q 20.90625 20.125 20.90625 31.390625 
Q 20.90625 42.671875 17.703125 53.65625 
Q 14.5 64.65625 8.015625 75.875 
z
" id="DejaVuSans-41"/>
     </defs>
     <g transform="translate(28.617187 203.663156)rotate(-90)scale(0.1 -0.1)">
      <use xlink:href="#DejaVuSans-100"/>
      <use x="63.476562" xlink:href="#DejaVuSans-117"/>
      <use x="126.855469" xlink:href="#DejaVuSans-114"/>
      <use x="167.96875" xlink:href="#DejaVuSans-97"/>
      <use x="229.248047" xlink:href="#DejaVuSans-116"/>
      <use x="268.457031" xlink:href="#DejaVuSans-105"/>
      <use x="296.240234" xlink:href="#DejaVuSans-111"/>
      <use x="357.421875" xlink:href="#DejaVuSans-110"/>
      <use x="420.800781" xlink:href="#DejaVuSans-32"/>
      <use x="452.587891" xlink:href="#DejaVuSans-40"/>
      <use x="491.601562" xlink:href="#DejaVuSans-115"/>
      <use x="543.701172" xlink:href="#DejaVuSans-41"/>
     </g>
    </g>
   </g>
   <g id="line2d_63">
    <path clip-path="url(#p6d78ccf1c2)" d="M 61.612584 183.871782 
L 65.625169 228.627768 
L 69.637753 257.956069 
L 73.650337 272.071992 
L 77.662921 279.525335 
L 81.675506 284.726307 
L 85.68809 288.495576 
L 89.700674 290.384818 
L 93.713258 292.44926 
L 97.725843 292.00901 
L 101.738427 294.331619 
L 105.751011 295.198197 
L 109.763596 295.488 
L 113.77618 295.449626 
L 117.788764 295.387795 
L 121.801348 295.008765 
L 125.813933 294.353657 
L 129.826517 294.278672 
L 133.839101 294.129883 
L 137.851685 293.292702 
L 141.86427 293.114579 
L 145.876854 291.662663 
L 149.889438 290.464177 
L 153.902022 290.252366 
L 157.914607 288.936126 
L 161.927191 288.445707 
L 165.939775 287.934857 
L 169.95236 286.012963 
L 173.964944 286.606686 
L 177.977528 283.472489 
L 181.990112 276.281179 
L 186.002697 273.84262 
L 190.015281 274.836436 
L 194.027865 281.337716 
L 198.040449 279.747864 
L 202.053034 278.991058 
L 206.065618 278.221689 
L 210.078202 278.247956 
L 214.090787 276.224468 
L 218.103371 272.925437 
L 222.115955 272.065876 
L 226.128539 271.508059 
L 230.141124 271.05987 
L 234.153708 270.887199 
L 238.166292 270.72876 
L 242.178876 270.888743 
L 246.191461 270.777427 
L 250.204045 270.621227 
L 254.216629 270.676838 
L 258.229213 271.039522 
L 262.241798 272.232245 
L 266.254382 270.71798 
L 270.266966 270.337032 
L 274.279551 263.241729 
L 278.292135 263.563488 
L 282.304719 263.494318 
L 286.317303 263.596918 
L 290.329888 263.460682 
L 294.342472 261.88612 
L 298.355056 260.776976 
L 302.36764 260.712335 
L 306.380225 260.880466 
L 310.392809 260.357468 
L 314.405393 261.100518 
L 318.417978 261.214997 
L 322.430562 262.296112 
L 326.443146 262.189823 
L 330.45573 262.296361 
L 334.468315 264.966312 
L 338.480899 265.375569 
L 342.493483 268.52631 
L 346.506067 264.553449 
L 350.518652 264.916765 
L 354.531236 264.972604 
L 358.54382 264.852746 
L 362.556404 268.301271 
L 366.568989 270.729485 
L 370.581573 269.763366 
L 374.594157 265.421374 
L 378.606742 269.604886 
L 382.619326 270.84387 
L 386.63191 271.560012 
L 390.644494 271.753663 
L 394.657079 271.637837 
L 398.669663 272.303094 
L 402.682247 272.525945 
L 406.694831 272.093749 
L 410.707416 272.380504 
" style="fill:none;stroke:#0000ff;stroke-dasharray:1.5,2.475;stroke-dashoffset:0;stroke-width:1.5;"/>
    <defs>
     <path d="M 0 1.5 
C 0.397805 1.5 0.77937 1.341951 1.06066 1.06066 
C 1.341951 0.77937 1.5 0.397805 1.5 0 
C 1.5 -0.397805 1.341951 -0.77937 1.06066 -1.06066 
C 0.77937 -1.341951 0.397805 -1.5 0 -1.5 
C -0.397805 -1.5 -0.77937 -1.341951 -1.06066 -1.06066 
C -1.341951 -0.77937 -1.5 -0.397805 -1.5 0 
C -1.5 0.397805 -1.341951 0.77937 -1.06066 1.06066 
C -0.77937 1.341951 -0.397805 1.5 0 1.5 
z
" id="m0b3b07da1d" style="stroke:#0000ff;"/>
    </defs>
    <g clip-path="url(#p6d78ccf1c2)">
     <use style="fill:#0000ff;stroke:#0000ff;" x="61.612584" xlink:href="#m0b3b07da1d" y="183.871782"/>
     <use style="fill:#0000ff;stroke:#0000ff;" x="65.625169" xlink:href="#m0b3b07da1d" y="228.627768"/>
     <use style="fill:#0000ff;stroke:#0000ff;" x="69.637753" xlink:href="#m0b3b07da1d" y="257.956069"/>
     <use style="fill:#0000ff;stroke:#0000ff;" x="73.650337" xlink:href="#m0b3b07da1d" y="272.071992"/>
     <use style="fill:#0000ff;stroke:#0000ff;" x="77.662921" xlink:href="#m0b3b07da1d" y="279.525335"/>
     <use style="fill:#0000ff;stroke:#0000ff;" x="81.675506" xlink:href="#m0b3b07da1d" y="284.726307"/>
     <use style="fill:#0000ff;stroke:#0000ff;" x="85.68809" xlink:href="#m0b3b07da1d" y="288.495576"/>
     <use style="fill:#0000ff;stroke:#0000ff;" x="89.700674" xlink:href="#m0b3b07da1d" y="290.384818"/>
     <use style="fill:#0000ff;stroke:#0000ff;" x="93.713258" xlink:href="#m0b3b07da1d" y="292.44926"/>
     <use style="fill:#0000ff;stroke:#0000ff;" x="97.725843" xlink:href="#m0b3b07da1d" y="292.00901"/>
     <use style="fill:#0000ff;stroke:#0000ff;" x="101.738427" xlink:href="#m0b3b07da1d" y="294.331619"/>
     <use style="fill:#0000ff;stroke:#0000ff;" x="105.751011" xlink:href="#m0b3b07da1d" y="295.198197"/>
     <use style="fill:#0000ff;stroke:#0000ff;" x="109.763596" xlink:href="#m0b3b07da1d" y="295.488"/>
     <use style="fill:#0000ff;stroke:#0000ff;" x="113.77618" xlink:href="#m0b3b07da1d" y="295.449626"/>
     <use style="fill:#0000ff;stroke:#0000ff;" x="117.788764" xlink:href="#m0b3b07da1d" y="295.387795"/>
     <use style="fill:#0000ff;stroke:#0000ff;" x="121.801348" xlink:href="#m0b3b07da1d" y="295.008765"/>
     <use style="fill:#0000ff;stroke:#0000ff;" x="125.813933" xlink:href="#m0b3b07da1d" y="294.353657"/>
     <use style="fill:#0000ff;stroke:#0000ff;" x="129.826517" xlink:href="#m0b3b07da1d" y="294.278672"/>
     <use style="fill:#0000ff;stroke:#0000ff;" x="133.839101" xlink:href="#m0b3b07da1d" y="294.129883"/>
     <use style="fill:#0000ff;stroke:#0000ff;" x="137.851685" xlink:href="#m0b3b07da1d" y="293.292702"/>
     <use style="fill:#0000ff;stroke:#0000ff;" x="141.86427" xlink:href="#m0b3b07da1d" y="293.114579"/>
     <use style="fill:#0000ff;stroke:#0000ff;" x="145.876854" xlink:href="#m0b3b07da1d" y="291.662663"/>
     <use style="fill:#0000ff;stroke:#0000ff;" x="149.889438" xlink:href="#m0b3b07da1d" y="290.464177"/>
     <use style="fill:#0000ff;stroke:#0000ff;" x="153.902022" xlink:href="#m0b3b07da1d" y="290.252366"/>
     <use style="fill:#0000ff;stroke:#0000ff;" x="157.914607" xlink:href="#m0b3b07da1d" y="288.936126"/>
     <use style="fill:#0000ff;stroke:#0000ff;" x="161.927191" xlink:href="#m0b3b07da1d" y="288.445707"/>
     <use style="fill:#0000ff;stroke:#0000ff;" x="165.939775" xlink:href="#m0b3b07da1d" y="287.934857"/>
     <use style="fill:#0000ff;stroke:#0000ff;" x="169.95236" xlink:href="#m0b3b07da1d" y="286.012963"/>
     <use style="fill:#0000ff;stroke:#0000ff;" x="173.964944" xlink:href="#m0b3b07da1d" y="286.606686"/>
     <use style="fill:#0000ff;stroke:#0000ff;" x="177.977528" xlink:href="#m0b3b07da1d" y="283.472489"/>
     <use style="fill:#0000ff;stroke:#0000ff;" x="181.990112" xlink:href="#m0b3b07da1d" y="276.281179"/>
     <use style="fill:#0000ff;stroke:#0000ff;" x="186.002697" xlink:href="#m0b3b07da1d" y="273.84262"/>
     <use style="fill:#0000ff;stroke:#0000ff;" x="190.015281" xlink:href="#m0b3b07da1d" y="274.836436"/>
     <use style="fill:#0000ff;stroke:#0000ff;" x="194.027865" xlink:href="#m0b3b07da1d" y="281.337716"/>
     <use style="fill:#0000ff;stroke:#0000ff;" x="198.040449" xlink:href="#m0b3b07da1d" y="279.747864"/>
     <use style="fill:#0000ff;stroke:#0000ff;" x="202.053034" xlink:href="#m0b3b07da1d" y="278.991058"/>
     <use style="fill:#0000ff;stroke:#0000ff;" x="206.065618" xlink:href="#m0b3b07da1d" y="278.221689"/>
     <use style="fill:#0000ff;stroke:#0000ff;" x="210.078202" xlink:href="#m0b3b07da1d" y="278.247956"/>
     <use style="fill:#0000ff;stroke:#0000ff;" x="214.090787" xlink:href="#m0b3b07da1d" y="276.224468"/>
     <use style="fill:#0000ff;stroke:#0000ff;" x="218.103371" xlink:href="#m0b3b07da1d" y="272.925437"/>
     <use style="fill:#0000ff;stroke:#0000ff;" x="222.115955" xlink:href="#m0b3b07da1d" y="272.065876"/>
     <use style="fill:#0000ff;stroke:#0000ff;" x="226.128539" xlink:href="#m0b3b07da1d" y="271.508059"/>
     <use style="fill:#0000ff;stroke:#0000ff;" x="230.141124" xlink:href="#m0b3b07da1d" y="271.05987"/>
     <use style="fill:#0000ff;stroke:#0000ff;" x="234.153708" xlink:href="#m0b3b07da1d" y="270.887199"/>
     <use style="fill:#0000ff;stroke:#0000ff;" x="238.166292" xlink:href="#m0b3b07da1d" y="270.72876"/>
     <use style="fill:#0000ff;stroke:#0000ff;" x="242.178876" xlink:href="#m0b3b07da1d" y="270.888743"/>
     <use style="fill:#0000ff;stroke:#0000ff;" x="246.191461" xlink:href="#m0b3b07da1d" y="270.777427"/>
     <use style="fill:#0000ff;stroke:#0000ff;" x="250.204045" xlink:href="#m0b3b07da1d" y="270.621227"/>
     <use style="fill:#0000ff;stroke:#0000ff;" x="254.216629" xlink:href="#m0b3b07da1d" y="270.676838"/>
     <use style="fill:#0000ff;stroke:#0000ff;" x="258.229213" xlink:href="#m0b3b07da1d" y="271.039522"/>
     <use style="fill:#0000ff;stroke:#0000ff;" x="262.241798" xlink:href="#m0b3b07da1d" y="272.232245"/>
     <use style="fill:#0000ff;stroke:#0000ff;" x="266.254382" xlink:href="#m0b3b07da1d" y="270.71798"/>
     <use style="fill:#0000ff;stroke:#0000ff;" x="270.266966" xlink:href="#m0b3b07da1d" y="270.337032"/>
     <use style="fill:#0000ff;stroke:#0000ff;" x="274.279551" xlink:href="#m0b3b07da1d" y="263.241729"/>
     <use style="fill:#0000ff;stroke:#0000ff;" x="278.292135" xlink:href="#m0b3b07da1d" y="263.563488"/>
     <use style="fill:#0000ff;stroke:#0000ff;" x="282.304719" xlink:href="#m0b3b07da1d" y="263.494318"/>
     <use style="fill:#0000ff;stroke:#0000ff;" x="286.317303" xlink:href="#m0b3b07da1d" y="263.596918"/>
     <use style="fill:#0000ff;stroke:#0000ff;" x="290.329888" xlink:href="#m0b3b07da1d" y="263.460682"/>
     <use style="fill:#0000ff;stroke:#0000ff;" x="294.342472" xlink:href="#m0b3b07da1d" y="261.88612"/>
     <use style="fill:#0000ff;stroke:#0000ff;" x="298.355056" xlink:href="#m0b3b07da1d" y="260.776976"/>
     <use style="fill:#0000ff;stroke:#0000ff;" x="302.36764" xlink:href="#m0b3b07da1d" y="260.712335"/>
     <use style="fill:#0000ff;stroke:#0000ff;" x="306.380225" xlink:href="#m0b3b07da1d" y="260.880466"/>
     <use style="fill:#0000ff;stroke:#0000ff;" x="310.392809" xlink:href="#m0b3b07da1d" y="260.357468"/>
     <use style="fill:#0000ff;stroke:#0000ff;" x="314.405393" xlink:href="#m0b3b07da1d" y="261.100518"/>
     <use style="fill:#0000ff;stroke:#0000ff;" x="318.417978" xlink:href="#m0b3b07da1d" y="261.214997"/>
     <use style="fill:#0000ff;stroke:#0000ff;" x="322.430562" xlink:href="#m0b3b07da1d" y="262.296112"/>
     <use style="fill:#0000ff;stroke:#0000ff;" x="326.443146" xlink:href="#m0b3b07da1d" y="262.189823"/>
     <use style="fill:#0000ff;stroke:#0000ff;" x="330.45573" xlink:href="#m0b3b07da1d" y="262.296361"/>
     <use style="fill:#0000ff;stroke:#0000ff;" x="334.468315" xlink:href="#m0b3b07da1d" y="264.966312"/>
     <use style="fill:#0000ff;stroke:#0000ff;" x="338.480899" xlink:href="#m0b3b07da1d" y="265.375569"/>
     <use style="fill:#0000ff;stroke:#0000ff;" x="342.493483" xlink:href="#m0b3b07da1d" y="268.52631"/>
     <use style="fill:#0000ff;stroke:#0000ff;" x="346.506067" xlink:href="#m0b3b07da1d" y="264.553449"/>
     <use style="fill:#0000ff;stroke:#0000ff;" x="350.518652" xlink:href="#m0b3b07da1d" y="264.916765"/>
     <use style="fill:#0000ff;stroke:#0000ff;" x="354.531236" xlink:href="#m0b3b07da1d" y="264.972604"/>
     <use style="fill:#0000ff;stroke:#0000ff;" x="358.54382" xlink:href="#m0b3b07da1d" y="264.852746"/>
     <use style="fill:#0000ff;stroke:#0000ff;" x="362.556404" xlink:href="#m0b3b07da1d" y="268.301271"/>
     <use style="fill:#0000ff;stroke:#0000ff;" x="366.568989" xlink:href="#m0b3b07da1d" y="270.729485"/>
     <use style="fill:#0000ff;stroke:#0000ff;" x="370.581573" xlink:href="#m0b3b07da1d" y="269.763366"/>
     <use style="fill:#0000ff;stroke:#0000ff;" x="374.594157" xlink:href="#m0b3b07da1d" y="265.421374"/>
     <use style="fill:#0000ff;stroke:#0000ff;" x="378.606742" xlink:href="#m0b3b07da1d" y="269.604886"/>
     <use style="fill:#0000ff;stroke:#0000ff;" x="382.619326" xlink:href="#m0b3b07da1d" y="270.84387"/>
     <use style="fill:#0000ff;stroke:#0000ff;" x="386.63191" xlink:href="#m0b3b07da1d" y="271.560012"/>
     <use style="fill:#0000ff;stroke:#0000ff;" x="390.644494" xlink:href="#m0b3b07da1d" y="271.753663"/>
     <use style="fill:#0000ff;stroke:#0000ff;" x="394.657079" xlink:href="#m0b3b07da1d" y="271.637837"/>
     <use style="fill:#0000ff;stroke:#0000ff;" x="398.669663" xlink:href="#m0b3b07da1d" y="272.303094"/>
     <use style="fill:#0000ff;stroke:#0000ff;" x="402.682247" xlink:href="#m0b3b07da1d" y="272.525945"/>
     <use style="fill:#0000ff;stroke:#0000ff;" x="406.694831" xlink:href="#m0b3b07da1d" y="272.093749"/>
     <use style="fill:#0000ff;stroke:#0000ff;" x="410.707416" xlink:href="#m0b3b07da1d" y="272.380504"/>
    </g>
   </g>
   <g id="line2d_64">
    <path clip-path="url(#p6d78ccf1c2)" d="M 61.612584 79.107856 
L 65.625169 131.185157 
L 69.637753 143.596253 
L 73.650337 179.385439 
L 77.662921 187.409607 
L 81.675506 189.710459 
L 85.68809 188.655433 
L 89.700674 188.998453 
L 93.713258 187.933798 
L 97.725843 186.416859 
L 101.738427 183.180456 
L 105.751011 181.33504 
L 109.763596 177.888194 
L 113.77618 174.72829 
L 117.788764 171.634394 
L 121.801348 168.35174 
L 125.813933 164.338547 
L 129.826517 161.032104 
L 133.839101 157.846296 
L 137.851685 153.266206 
L 141.86427 149.71164 
L 145.876854 144.954484 
L 149.889438 141.912592 
L 153.902022 137.804035 
L 157.914607 134.44709 
L 161.927191 129.614928 
L 165.939775 126.361682 
L 169.95236 121.729721 
L 173.964944 117.760084 
L 177.977528 113.193231 
L 181.990112 106.643233 
L 186.002697 104.859803 
L 190.015281 101.536547 
L 194.027865 100.270871 
L 198.040449 95.595002 
L 202.053034 91.690513 
L 206.065618 86.025845 
L 210.078202 81.75578 
L 214.090787 78.745826 
L 218.103371 73.508242 
L 222.115955 68.716517 
L 226.128539 65.831603 
L 230.141124 61.110218 
L 234.153708 59.486347 
L 238.166292 59.387148 
L 242.178876 59.145213 
L 246.191461 59.162472 
L 250.204045 59.372636 
L 254.216629 59.28999 
L 258.229213 59.41472 
L 262.241798 59.454275 
L 266.254382 59.444667 
L 270.266966 57.698947 
L 274.279551 57.781934 
L 278.292135 57.969024 
L 282.304719 57.911692 
L 286.317303 57.882181 
L 290.329888 57.756476 
L 294.342472 57.051758 
L 298.355056 57.026372 
L 302.36764 56.78164 
L 306.380225 56.534688 
L 310.392809 56.537352 
L 314.405393 56.751196 
L 318.417978 56.711029 
L 322.430562 57.428155 
L 326.443146 57.200805 
L 330.45573 57.226657 
L 334.468315 54.82614 
L 338.480899 55.80219 
L 342.493483 56.13417 
L 346.506067 53.568 
L 350.518652 53.724096 
L 354.531236 53.750487 
L 358.54382 53.688221 
L 362.556404 56.109034 
L 366.568989 57.063233 
L 370.581573 56.954901 
L 374.594157 63.02922 
L 378.606742 56.260351 
L 382.619326 58.634488 
L 386.63191 57.259382 
L 390.644494 58.979736 
L 394.657079 59.417954 
L 398.669663 59.26531 
L 402.682247 59.049176 
L 406.694831 59.23641 
L 410.707416 58.873799 
" style="fill:none;stroke:#ff0000;stroke-dasharray:1.5,2.475;stroke-dashoffset:0;stroke-width:1.5;"/>
    <defs>
     <path d="M 0 1.5 
C 0.397805 1.5 0.77937 1.341951 1.06066 1.06066 
C 1.341951 0.77937 1.5 0.397805 1.5 0 
C 1.5 -0.397805 1.341951 -0.77937 1.06066 -1.06066 
C 0.77937 -1.341951 0.397805 -1.5 0 -1.5 
C -0.397805 -1.5 -0.77937 -1.341951 -1.06066 -1.06066 
C -1.341951 -0.77937 -1.5 -0.397805 -1.5 0 
C -1.5 0.397805 -1.341951 0.77937 -1.06066 1.06066 
C -0.77937 1.341951 -0.397805 1.5 0 1.5 
z
" id="mbe5e97678b" style="stroke:#ff0000;"/>
    </defs>
    <g clip-path="url(#p6d78ccf1c2)">
     <use style="fill:#ff0000;stroke:#ff0000;" x="61.612584" xlink:href="#mbe5e97678b" y="79.107856"/>
     <use style="fill:#ff0000;stroke:#ff0000;" x="65.625169" xlink:href="#mbe5e97678b" y="131.185157"/>
     <use style="fill:#ff0000;stroke:#ff0000;" x="69.637753" xlink:href="#mbe5e97678b" y="143.596253"/>
     <use style="fill:#ff0000;stroke:#ff0000;" x="73.650337" xlink:href="#mbe5e97678b" y="179.385439"/>
     <use style="fill:#ff0000;stroke:#ff0000;" x="77.662921" xlink:href="#mbe5e97678b" y="187.409607"/>
     <use style="fill:#ff0000;stroke:#ff0000;" x="81.675506" xlink:href="#mbe5e97678b" y="189.710459"/>
     <use style="fill:#ff0000;stroke:#ff0000;" x="85.68809" xlink:href="#mbe5e97678b" y="188.655433"/>
     <use style="fill:#ff0000;stroke:#ff0000;" x="89.700674" xlink:href="#mbe5e97678b" y="188.998453"/>
     <use style="fill:#ff0000;stroke:#ff0000;" x="93.713258" xlink:href="#mbe5e97678b" y="187.933798"/>
     <use style="fill:#ff0000;stroke:#ff0000;" x="97.725843" xlink:href="#mbe5e97678b" y="186.416859"/>
     <use style="fill:#ff0000;stroke:#ff0000;" x="101.738427" xlink:href="#mbe5e97678b" y="183.180456"/>
     <use style="fill:#ff0000;stroke:#ff0000;" x="105.751011" xlink:href="#mbe5e97678b" y="181.33504"/>
     <use style="fill:#ff0000;stroke:#ff0000;" x="109.763596" xlink:href="#mbe5e97678b" y="177.888194"/>
     <use style="fill:#ff0000;stroke:#ff0000;" x="113.77618" xlink:href="#mbe5e97678b" y="174.72829"/>
     <use style="fill:#ff0000;stroke:#ff0000;" x="117.788764" xlink:href="#mbe5e97678b" y="171.634394"/>
     <use style="fill:#ff0000;stroke:#ff0000;" x="121.801348" xlink:href="#mbe5e97678b" y="168.35174"/>
     <use style="fill:#ff0000;stroke:#ff0000;" x="125.813933" xlink:href="#mbe5e97678b" y="164.338547"/>
     <use style="fill:#ff0000;stroke:#ff0000;" x="129.826517" xlink:href="#mbe5e97678b" y="161.032104"/>
     <use style="fill:#ff0000;stroke:#ff0000;" x="133.839101" xlink:href="#mbe5e97678b" y="157.846296"/>
     <use style="fill:#ff0000;stroke:#ff0000;" x="137.851685" xlink:href="#mbe5e97678b" y="153.266206"/>
     <use style="fill:#ff0000;stroke:#ff0000;" x="141.86427" xlink:href="#mbe5e97678b" y="149.71164"/>
     <use style="fill:#ff0000;stroke:#ff0000;" x="145.876854" xlink:href="#mbe5e97678b" y="144.954484"/>
     <use style="fill:#ff0000;stroke:#ff0000;" x="149.889438" xlink:href="#mbe5e97678b" y="141.912592"/>
     <use style="fill:#ff0000;stroke:#ff0000;" x="153.902022" xlink:href="#mbe5e97678b" y="137.804035"/>
     <use style="fill:#ff0000;stroke:#ff0000;" x="157.914607" xlink:href="#mbe5e97678b" y="134.44709"/>
     <use style="fill:#ff0000;stroke:#ff0000;" x="161.927191" xlink:href="#mbe5e97678b" y="129.614928"/>
     <use style="fill:#ff0000;stroke:#ff0000;" x="165.939775" xlink:href="#mbe5e97678b" y="126.361682"/>
     <use style="fill:#ff0000;stroke:#ff0000;" x="169.95236" xlink:href="#mbe5e97678b" y="121.729721"/>
     <use style="fill:#ff0000;stroke:#ff0000;" x="173.964944" xlink:href="#mbe5e97678b" y="117.760084"/>
     <use style="fill:#ff0000;stroke:#ff0000;" x="177.977528" xlink:href="#mbe5e97678b" y="113.193231"/>
     <use style="fill:#ff0000;stroke:#ff0000;" x="181.990112" xlink:href="#mbe5e97678b" y="106.643233"/>
     <use style="fill:#ff0000;stroke:#ff0000;" x="186.002697" xlink:href="#mbe5e97678b" y="104.859803"/>
     <use style="fill:#ff0000;stroke:#ff0000;" x="190.015281" xlink:href="#mbe5e97678b" y="101.536547"/>
     <use style="fill:#ff0000;stroke:#ff0000;" x="194.027865" xlink:href="#mbe5e97678b" y="100.270871"/>
     <use style="fill:#ff0000;stroke:#ff0000;" x="198.040449" xlink:href="#mbe5e97678b" y="95.595002"/>
     <use style="fill:#ff0000;stroke:#ff0000;" x="202.053034" xlink:href="#mbe5e97678b" y="91.690513"/>
     <use style="fill:#ff0000;stroke:#ff0000;" x="206.065618" xlink:href="#mbe5e97678b" y="86.025845"/>
     <use style="fill:#ff0000;stroke:#ff0000;" x="210.078202" xlink:href="#mbe5e97678b" y="81.75578"/>
     <use style="fill:#ff0000;stroke:#ff0000;" x="214.090787" xlink:href="#mbe5e97678b" y="78.745826"/>
     <use style="fill:#ff0000;stroke:#ff0000;" x="218.103371" xlink:href="#mbe5e97678b" y="73.508242"/>
     <use style="fill:#ff0000;stroke:#ff0000;" x="222.115955" xlink:href="#mbe5e97678b" y="68.716517"/>
     <use style="fill:#ff0000;stroke:#ff0000;" x="226.128539" xlink:href="#mbe5e97678b" y="65.831603"/>
     <use style="fill:#ff0000;stroke:#ff0000;" x="230.141124" xlink:href="#mbe5e97678b" y="61.110218"/>
     <use style="fill:#ff0000;stroke:#ff0000;" x="234.153708" xlink:href="#mbe5e97678b" y="59.486347"/>
     <use style="fill:#ff0000;stroke:#ff0000;" x="238.166292" xlink:href="#mbe5e97678b" y="59.387148"/>
     <use style="fill:#ff0000;stroke:#ff0000;" x="242.178876" xlink:href="#mbe5e97678b" y="59.145213"/>
     <use style="fill:#ff0000;stroke:#ff0000;" x="246.191461" xlink:href="#mbe5e97678b" y="59.162472"/>
     <use style="fill:#ff0000;stroke:#ff0000;" x="250.204045" xlink:href="#mbe5e97678b" y="59.372636"/>
     <use style="fill:#ff0000;stroke:#ff0000;" x="254.216629" xlink:href="#mbe5e97678b" y="59.28999"/>
     <use style="fill:#ff0000;stroke:#ff0000;" x="258.229213" xlink:href="#mbe5e97678b" y="59.41472"/>
     <use style="fill:#ff0000;stroke:#ff0000;" x="262.241798" xlink:href="#mbe5e97678b" y="59.454275"/>
     <use style="fill:#ff0000;stroke:#ff0000;" x="266.254382" xlink:href="#mbe5e97678b" y="59.444667"/>
     <use style="fill:#ff0000;stroke:#ff0000;" x="270.266966" xlink:href="#mbe5e97678b" y="57.698947"/>
     <use style="fill:#ff0000;stroke:#ff0000;" x="274.279551" xlink:href="#mbe5e97678b" y="57.781934"/>
     <use style="fill:#ff0000;stroke:#ff0000;" x="278.292135" xlink:href="#mbe5e97678b" y="57.969024"/>
     <use style="fill:#ff0000;stroke:#ff0000;" x="282.304719" xlink:href="#mbe5e97678b" y="57.911692"/>
     <use style="fill:#ff0000;stroke:#ff0000;" x="286.317303" xlink:href="#mbe5e97678b" y="57.882181"/>
     <use style="fill:#ff0000;stroke:#ff0000;" x="290.329888" xlink:href="#mbe5e97678b" y="57.756476"/>
     <use style="fill:#ff0000;stroke:#ff0000;" x="294.342472" xlink:href="#mbe5e97678b" y="57.051758"/>
     <use style="fill:#ff0000;stroke:#ff0000;" x="298.355056" xlink:href="#mbe5e97678b" y="57.026372"/>
     <use style="fill:#ff0000;stroke:#ff0000;" x="302.36764" xlink:href="#mbe5e97678b" y="56.78164"/>
     <use style="fill:#ff0000;stroke:#ff0000;" x="306.380225" xlink:href="#mbe5e97678b" y="56.534688"/>
     <use style="fill:#ff0000;stroke:#ff0000;" x="310.392809" xlink:href="#mbe5e97678b" y="56.537352"/>
     <use style="fill:#ff0000;stroke:#ff0000;" x="314.405393" xlink:href="#mbe5e97678b" y="56.751196"/>
     <use style="fill:#ff0000;stroke:#ff0000;" x="318.417978" xlink:href="#mbe5e97678b" y="56.711029"/>
     <use style="fill:#ff0000;stroke:#ff0000;" x="322.430562" xlink:href="#mbe5e97678b" y="57.428155"/>
     <use style="fill:#ff0000;stroke:#ff0000;" x="326.443146" xlink:href="#mbe5e97678b" y="57.200805"/>
     <use style="fill:#ff0000;stroke:#ff0000;" x="330.45573" xlink:href="#mbe5e97678b" y="57.226657"/>
     <use style="fill:#ff0000;stroke:#ff0000;" x="334.468315" xlink:href="#mbe5e97678b" y="54.82614"/>
     <use style="fill:#ff0000;stroke:#ff0000;" x="338.480899" xlink:href="#mbe5e97678b" y="55.80219"/>
     <use style="fill:#ff0000;stroke:#ff0000;" x="342.493483" xlink:href="#mbe5e97678b" y="56.13417"/>
     <use style="fill:#ff0000;stroke:#ff0000;" x="346.506067" xlink:href="#mbe5e97678b" y="53.568"/>
     <use style="fill:#ff0000;stroke:#ff0000;" x="350.518652" xlink:href="#mbe5e97678b" y="53.724096"/>
     <use style="fill:#ff0000;stroke:#ff0000;" x="354.531236" xlink:href="#mbe5e97678b" y="53.750487"/>
     <use style="fill:#ff0000;stroke:#ff0000;" x="358.54382" xlink:href="#mbe5e97678b" y="53.688221"/>
     <use style="fill:#ff0000;stroke:#ff0000;" x="362.556404" xlink:href="#mbe5e97678b" y="56.109034"/>
     <use style="fill:#ff0000;stroke:#ff0000;" x="366.568989" xlink:href="#mbe5e97678b" y="57.063233"/>
     <use style="fill:#ff0000;stroke:#ff0000;" x="370.581573" xlink:href="#mbe5e97678b" y="56.954901"/>
     <use style="fill:#ff0000;stroke:#ff0000;" x="374.594157" xlink:href="#mbe5e97678b" y="63.02922"/>
     <use style="fill:#ff0000;stroke:#ff0000;" x="378.606742" xlink:href="#mbe5e97678b" y="56.260351"/>
     <use style="fill:#ff0000;stroke:#ff0000;" x="382.619326" xlink:href="#mbe5e97678b" y="58.634488"/>
     <use style="fill:#ff0000;stroke:#ff0000;" x="386.63191" xlink:href="#mbe5e97678b" y="57.259382"/>
     <use style="fill:#ff0000;stroke:#ff0000;" x="390.644494" xlink:href="#mbe5e97678b" y="58.979736"/>
     <use style="fill:#ff0000;stroke:#ff0000;" x="394.657079" xlink:href="#mbe5e97678b" y="59.417954"/>
     <use style="fill:#ff0000;stroke:#ff0000;" x="398.669663" xlink:href="#mbe5e97678b" y="59.26531"/>
     <use style="fill:#ff0000;stroke:#ff0000;" x="402.682247" xlink:href="#mbe5e97678b" y="59.049176"/>
     <use style="fill:#ff0000;stroke:#ff0000;" x="406.694831" xlink:href="#mbe5e97678b" y="59.23641"/>
     <use style="fill:#ff0000;stroke:#ff0000;" x="410.707416" xlink:href="#mbe5e97678b" y="58.873799"/>
    </g>
   </g>
   <g id="line2d_65">
    <path clip-path="url(#p6d78ccf1c2)" d="M 61.612584 131.489819 
L 65.625169 179.906463 
L 69.637753 200.776161 
L 73.650337 225.728715 
L 77.662921 233.467471 
L 81.675506 237.218383 
L 85.68809 238.575504 
L 89.700674 239.691635 
L 93.713258 240.191529 
L 97.725843 239.212935 
L 101.738427 238.756038 
L 105.751011 238.266619 
L 109.763596 236.688097 
L 113.77618 235.088958 
L 117.788764 233.511095 
L 121.801348 231.680253 
L 125.813933 229.346102 
L 129.826517 227.655388 
L 133.839101 225.98809 
L 137.851685 223.279454 
L 141.86427 221.413109 
L 145.876854 218.308573 
L 149.889438 216.188385 
L 153.902022 214.0282 
L 157.914607 211.691608 
L 161.927191 209.030317 
L 165.939775 207.148269 
L 169.95236 203.871342 
L 173.964944 202.183385 
L 177.977528 198.33286 
L 181.990112 191.462206 
L 186.002697 189.351212 
L 190.015281 188.186492 
L 194.027865 190.804293 
L 198.040449 187.671433 
L 202.053034 185.340786 
L 206.065618 182.123767 
L 210.078202 180.001868 
L 214.090787 177.485147 
L 218.103371 173.216839 
L 222.115955 170.391196 
L 226.128539 168.669831 
L 230.141124 166.085044 
L 234.153708 165.186773 
L 238.166292 165.057954 
L 242.178876 165.016978 
L 246.191461 164.969949 
L 250.204045 164.996931 
L 254.216629 164.983414 
L 258.229213 165.227121 
L 262.241798 165.84326 
L 266.254382 165.081323 
L 270.266966 164.01799 
L 274.279551 160.511831 
L 278.292135 160.766256 
L 282.304719 160.703005 
L 286.317303 160.739549 
L 290.329888 160.608579 
L 294.342472 159.468939 
L 298.355056 158.901674 
L 302.36764 158.746987 
L 306.380225 158.707577 
L 310.392809 158.44741 
L 314.405393 158.925857 
L 318.417978 158.963013 
L 322.430562 159.862134 
L 326.443146 159.695314 
L 330.45573 159.761509 
L 334.468315 159.896226 
L 338.480899 160.588879 
L 342.493483 162.33024 
L 346.506067 159.060724 
L 350.518652 159.32043 
L 354.531236 159.361546 
L 358.54382 159.270484 
L 362.556404 162.205153 
L 366.568989 163.896359 
L 370.581573 163.359134 
L 374.594157 164.225297 
L 378.606742 162.932619 
L 382.619326 164.739179 
L 386.63191 164.409697 
L 390.644494 165.3667 
L 394.657079 165.527896 
L 398.669663 165.784202 
L 402.682247 165.78756 
L 406.694831 165.66508 
L 410.707416 165.627152 
" style="fill:none;stroke:#008000;stroke-dasharray:1.5,2.475;stroke-dashoffset:0;stroke-width:1.5;"/>
    <defs>
     <path d="M 0 1.5 
C 0.397805 1.5 0.77937 1.341951 1.06066 1.06066 
C 1.341951 0.77937 1.5 0.397805 1.5 0 
C 1.5 -0.397805 1.341951 -0.77937 1.06066 -1.06066 
C 0.77937 -1.341951 0.397805 -1.5 0 -1.5 
C -0.397805 -1.5 -0.77937 -1.341951 -1.06066 -1.06066 
C -1.341951 -0.77937 -1.5 -0.397805 -1.5 0 
C -1.5 0.397805 -1.341951 0.77937 -1.06066 1.06066 
C -0.77937 1.341951 -0.397805 1.5 0 1.5 
z
" id="ma926747bd0" style="stroke:#008000;"/>
    </defs>
    <g clip-path="url(#p6d78ccf1c2)">
     <use style="fill:#008000;stroke:#008000;" x="61.612584" xlink:href="#ma926747bd0" y="131.489819"/>
     <use style="fill:#008000;stroke:#008000;" x="65.625169" xlink:href="#ma926747bd0" y="179.906463"/>
     <use style="fill:#008000;stroke:#008000;" x="69.637753" xlink:href="#ma926747bd0" y="200.776161"/>
     <use style="fill:#008000;stroke:#008000;" x="73.650337" xlink:href="#ma926747bd0" y="225.728715"/>
     <use style="fill:#008000;stroke:#008000;" x="77.662921" xlink:href="#ma926747bd0" y="233.467471"/>
     <use style="fill:#008000;stroke:#008000;" x="81.675506" xlink:href="#ma926747bd0" y="237.218383"/>
     <use style="fill:#008000;stroke:#008000;" x="85.68809" xlink:href="#ma926747bd0" y="238.575504"/>
     <use style="fill:#008000;stroke:#008000;" x="89.700674" xlink:href="#ma926747bd0" y="239.691635"/>
     <use style="fill:#008000;stroke:#008000;" x="93.713258" xlink:href="#ma926747bd0" y="240.191529"/>
     <use style="fill:#008000;stroke:#008000;" x="97.725843" xlink:href="#ma926747bd0" y="239.212935"/>
     <use style="fill:#008000;stroke:#008000;" x="101.738427" xlink:href="#ma926747bd0" y="238.756038"/>
     <use style="fill:#008000;stroke:#008000;" x="105.751011" xlink:href="#ma926747bd0" y="238.266619"/>
     <use style="fill:#008000;stroke:#008000;" x="109.763596" xlink:href="#ma926747bd0" y="236.688097"/>
     <use style="fill:#008000;stroke:#008000;" x="113.77618" xlink:href="#ma926747bd0" y="235.088958"/>
     <use style="fill:#008000;stroke:#008000;" x="117.788764" xlink:href="#ma926747bd0" y="233.511095"/>
     <use style="fill:#008000;stroke:#008000;" x="121.801348" xlink:href="#ma926747bd0" y="231.680253"/>
     <use style="fill:#008000;stroke:#008000;" x="125.813933" xlink:href="#ma926747bd0" y="229.346102"/>
     <use style="fill:#008000;stroke:#008000;" x="129.826517" xlink:href="#ma926747bd0" y="227.655388"/>
     <use style="fill:#008000;stroke:#008000;" x="133.839101" xlink:href="#ma926747bd0" y="225.98809"/>
     <use style="fill:#008000;stroke:#008000;" x="137.851685" xlink:href="#ma926747bd0" y="223.279454"/>
     <use style="fill:#008000;stroke:#008000;" x="141.86427" xlink:href="#ma926747bd0" y="221.413109"/>
     <use style="fill:#008000;stroke:#008000;" x="145.876854" xlink:href="#ma926747bd0" y="218.308573"/>
     <use style="fill:#008000;stroke:#008000;" x="149.889438" xlink:href="#ma926747bd0" y="216.188385"/>
     <use style="fill:#008000;stroke:#008000;" x="153.902022" xlink:href="#ma926747bd0" y="214.0282"/>
     <use style="fill:#008000;stroke:#008000;" x="157.914607" xlink:href="#ma926747bd0" y="211.691608"/>
     <use style="fill:#008000;stroke:#008000;" x="161.927191" xlink:href="#ma926747bd0" y="209.030317"/>
     <use style="fill:#008000;stroke:#008000;" x="165.939775" xlink:href="#ma926747bd0" y="207.148269"/>
     <use style="fill:#008000;stroke:#008000;" x="169.95236" xlink:href="#ma926747bd0" y="203.871342"/>
     <use style="fill:#008000;stroke:#008000;" x="173.964944" xlink:href="#ma926747bd0" y="202.183385"/>
     <use style="fill:#008000;stroke:#008000;" x="177.977528" xlink:href="#ma926747bd0" y="198.33286"/>
     <use style="fill:#008000;stroke:#008000;" x="181.990112" xlink:href="#ma926747bd0" y="191.462206"/>
     <use style="fill:#008000;stroke:#008000;" x="186.002697" xlink:href="#ma926747bd0" y="189.351212"/>
     <use style="fill:#008000;stroke:#008000;" x="190.015281" xlink:href="#ma926747bd0" y="188.186492"/>
     <use style="fill:#008000;stroke:#008000;" x="194.027865" xlink:href="#ma926747bd0" y="190.804293"/>
     <use style="fill:#008000;stroke:#008000;" x="198.040449" xlink:href="#ma926747bd0" y="187.671433"/>
     <use style="fill:#008000;stroke:#008000;" x="202.053034" xlink:href="#ma926747bd0" y="185.340786"/>
     <use style="fill:#008000;stroke:#008000;" x="206.065618" xlink:href="#ma926747bd0" y="182.123767"/>
     <use style="fill:#008000;stroke:#008000;" x="210.078202" xlink:href="#ma926747bd0" y="180.001868"/>
     <use style="fill:#008000;stroke:#008000;" x="214.090787" xlink:href="#ma926747bd0" y="177.485147"/>
     <use style="fill:#008000;stroke:#008000;" x="218.103371" xlink:href="#ma926747bd0" y="173.216839"/>
     <use style="fill:#008000;stroke:#008000;" x="222.115955" xlink:href="#ma926747bd0" y="170.391196"/>
     <use style="fill:#008000;stroke:#008000;" x="226.128539" xlink:href="#ma926747bd0" y="168.669831"/>
     <use style="fill:#008000;stroke:#008000;" x="230.141124" xlink:href="#ma926747bd0" y="166.085044"/>
     <use style="fill:#008000;stroke:#008000;" x="234.153708" xlink:href="#ma926747bd0" y="165.186773"/>
     <use style="fill:#008000;stroke:#008000;" x="238.166292" xlink:href="#ma926747bd0" y="165.057954"/>
     <use style="fill:#008000;stroke:#008000;" x="242.178876" xlink:href="#ma926747bd0" y="165.016978"/>
     <use style="fill:#008000;stroke:#008000;" x="246.191461" xlink:href="#ma926747bd0" y="164.969949"/>
     <use style="fill:#008000;stroke:#008000;" x="250.204045" xlink:href="#ma926747bd0" y="164.996931"/>
     <use style="fill:#008000;stroke:#008000;" x="254.216629" xlink:href="#ma926747bd0" y="164.983414"/>
     <use style="fill:#008000;stroke:#008000;" x="258.229213" xlink:href="#ma926747bd0" y="165.227121"/>
     <use style="fill:#008000;stroke:#008000;" x="262.241798" xlink:href="#ma926747bd0" y="165.84326"/>
     <use style="fill:#008000;stroke:#008000;" x="266.254382" xlink:href="#ma926747bd0" y="165.081323"/>
     <use style="fill:#008000;stroke:#008000;" x="270.266966" xlink:href="#ma926747bd0" y="164.01799"/>
     <use style="fill:#008000;stroke:#008000;" x="274.279551" xlink:href="#ma926747bd0" y="160.511831"/>
     <use style="fill:#008000;stroke:#008000;" x="278.292135" xlink:href="#ma926747bd0" y="160.766256"/>
     <use style="fill:#008000;stroke:#008000;" x="282.304719" xlink:href="#ma926747bd0" y="160.703005"/>
     <use style="fill:#008000;stroke:#008000;" x="286.317303" xlink:href="#ma926747bd0" y="160.739549"/>
     <use style="fill:#008000;stroke:#008000;" x="290.329888" xlink:href="#ma926747bd0" y="160.608579"/>
     <use style="fill:#008000;stroke:#008000;" x="294.342472" xlink:href="#ma926747bd0" y="159.468939"/>
     <use style="fill:#008000;stroke:#008000;" x="298.355056" xlink:href="#ma926747bd0" y="158.901674"/>
     <use style="fill:#008000;stroke:#008000;" x="302.36764" xlink:href="#ma926747bd0" y="158.746987"/>
     <use style="fill:#008000;stroke:#008000;" x="306.380225" xlink:href="#ma926747bd0" y="158.707577"/>
     <use style="fill:#008000;stroke:#008000;" x="310.392809" xlink:href="#ma926747bd0" y="158.44741"/>
     <use style="fill:#008000;stroke:#008000;" x="314.405393" xlink:href="#ma926747bd0" y="158.925857"/>
     <use style="fill:#008000;stroke:#008000;" x="318.417978" xlink:href="#ma926747bd0" y="158.963013"/>
     <use style="fill:#008000;stroke:#008000;" x="322.430562" xlink:href="#ma926747bd0" y="159.862134"/>
     <use style="fill:#008000;stroke:#008000;" x="326.443146" xlink:href="#ma926747bd0" y="159.695314"/>
     <use style="fill:#008000;stroke:#008000;" x="330.45573" xlink:href="#ma926747bd0" y="159.761509"/>
     <use style="fill:#008000;stroke:#008000;" x="334.468315" xlink:href="#ma926747bd0" y="159.896226"/>
     <use style="fill:#008000;stroke:#008000;" x="338.480899" xlink:href="#ma926747bd0" y="160.588879"/>
     <use style="fill:#008000;stroke:#008000;" x="342.493483" xlink:href="#ma926747bd0" y="162.33024"/>
     <use style="fill:#008000;stroke:#008000;" x="346.506067" xlink:href="#ma926747bd0" y="159.060724"/>
     <use style="fill:#008000;stroke:#008000;" x="350.518652" xlink:href="#ma926747bd0" y="159.32043"/>
     <use style="fill:#008000;stroke:#008000;" x="354.531236" xlink:href="#ma926747bd0" y="159.361546"/>
     <use style="fill:#008000;stroke:#008000;" x="358.54382" xlink:href="#ma926747bd0" y="159.270484"/>
     <use style="fill:#008000;stroke:#008000;" x="362.556404" xlink:href="#ma926747bd0" y="162.205153"/>
     <use style="fill:#008000;stroke:#008000;" x="366.568989" xlink:href="#ma926747bd0" y="163.896359"/>
     <use style="fill:#008000;stroke:#008000;" x="370.581573" xlink:href="#ma926747bd0" y="163.359134"/>
     <use style="fill:#008000;stroke:#008000;" x="374.594157" xlink:href="#ma926747bd0" y="164.225297"/>
     <use style="fill:#008000;stroke:#008000;" x="378.606742" xlink:href="#ma926747bd0" y="162.932619"/>
     <use style="fill:#008000;stroke:#008000;" x="382.619326" xlink:href="#ma926747bd0" y="164.739179"/>
     <use style="fill:#008000;stroke:#008000;" x="386.63191" xlink:href="#ma926747bd0" y="164.409697"/>
     <use style="fill:#008000;stroke:#008000;" x="390.644494" xlink:href="#ma926747bd0" y="165.3667"/>
     <use style="fill:#008000;stroke:#008000;" x="394.657079" xlink:href="#ma926747bd0" y="165.527896"/>
     <use style="fill:#008000;stroke:#008000;" x="398.669663" xlink:href="#ma926747bd0" y="165.784202"/>
     <use style="fill:#008000;stroke:#008000;" x="402.682247" xlink:href="#ma926747bd0" y="165.78756"/>
     <use style="fill:#008000;stroke:#008000;" x="406.694831" xlink:href="#ma926747bd0" y="165.66508"/>
     <use style="fill:#008000;stroke:#008000;" x="410.707416" xlink:href="#ma926747bd0" y="165.627152"/>
    </g>
   </g>
   <g id="patch_3">
    <path d="M 57.6 307.584 
L 57.6 41.472 
" style="fill:none;stroke:#000000;stroke-linecap:square;stroke-linejoin:miter;stroke-width:0.8;"/>
   </g>
   <g id="patch_4">
    <path d="M 414.72 307.584 
L 414.72 41.472 
" style="fill:none;stroke:#000000;stroke-linecap:square;stroke-linejoin:miter;stroke-width:0.8;"/>
   </g>
   <g id="patch_5">
    <path d="M 57.6 307.584 
L 414.72 307.584 
" style="fill:none;stroke:#000000;stroke-linecap:square;stroke-linejoin:miter;stroke-width:0.8;"/>
   </g>
   <g id="patch_6">
    <path d="M 57.6 41.472 
L 414.72 41.472 
" style="fill:none;stroke:#000000;stroke-linecap:square;stroke-linejoin:miter;stroke-width:0.8;"/>
   </g>
   <g id="text_34">
    <!-- MKL iomp 2PV on pre_transpose15 -->
    <defs>
     <path d="M 9.8125 72.90625 
L 24.515625 72.90625 
L 43.109375 23.296875 
L 61.8125 72.90625 
L 76.515625 72.90625 
L 76.515625 0 
L 66.890625 0 
L 66.890625 64.015625 
L 48.09375 14.015625 
L 38.1875 14.015625 
L 19.390625 64.015625 
L 19.390625 0 
L 9.8125 0 
z
" id="DejaVuSans-77"/>
     <path d="M 9.8125 72.90625 
L 19.671875 72.90625 
L 19.671875 42.09375 
L 52.390625 72.90625 
L 65.09375 72.90625 
L 28.90625 38.921875 
L 67.671875 0 
L 54.6875 0 
L 19.671875 35.109375 
L 19.671875 0 
L 9.8125 0 
z
" id="DejaVuSans-75"/>
     <path d="M 9.8125 72.90625 
L 19.671875 72.90625 
L 19.671875 8.296875 
L 55.171875 8.296875 
L 55.171875 0 
L 9.8125 0 
z
" id="DejaVuSans-76"/>
     <path d="M 52 44.1875 
Q 55.375 50.25 60.0625 53.125 
Q 64.75 56 71.09375 56 
Q 79.640625 56 84.28125 50.015625 
Q 88.921875 44.046875 88.921875 33.015625 
L 88.921875 0 
L 79.890625 0 
L 79.890625 32.71875 
Q 79.890625 40.578125 77.09375 44.375 
Q 74.3125 48.1875 68.609375 48.1875 
Q 61.625 48.1875 57.5625 43.546875 
Q 53.515625 38.921875 53.515625 30.90625 
L 53.515625 0 
L 44.484375 0 
L 44.484375 32.71875 
Q 44.484375 40.625 41.703125 44.40625 
Q 38.921875 48.1875 33.109375 48.1875 
Q 26.21875 48.1875 22.15625 43.53125 
Q 18.109375 38.875 18.109375 30.90625 
L 18.109375 0 
L 9.078125 0 
L 9.078125 54.6875 
L 18.109375 54.6875 
L 18.109375 46.1875 
Q 21.1875 51.21875 25.484375 53.609375 
Q 29.78125 56 35.6875 56 
Q 41.65625 56 45.828125 52.96875 
Q 50 49.953125 52 44.1875 
z
" id="DejaVuSans-109"/>
     <path d="M 18.109375 8.203125 
L 18.109375 -20.796875 
L 9.078125 -20.796875 
L 9.078125 54.6875 
L 18.109375 54.6875 
L 18.109375 46.390625 
Q 20.953125 51.265625 25.265625 53.625 
Q 29.59375 56 35.59375 56 
Q 45.5625 56 51.78125 48.09375 
Q 58.015625 40.1875 58.015625 27.296875 
Q 58.015625 14.40625 51.78125 6.484375 
Q 45.5625 -1.421875 35.59375 -1.421875 
Q 29.59375 -1.421875 25.265625 0.953125 
Q 20.953125 3.328125 18.109375 8.203125 
z
M 48.6875 27.296875 
Q 48.6875 37.203125 44.609375 42.84375 
Q 40.53125 48.484375 33.40625 48.484375 
Q 26.265625 48.484375 22.1875 42.84375 
Q 18.109375 37.203125 18.109375 27.296875 
Q 18.109375 17.390625 22.1875 11.75 
Q 26.265625 6.109375 33.40625 6.109375 
Q 40.53125 6.109375 44.609375 11.75 
Q 48.6875 17.390625 48.6875 27.296875 
z
" id="DejaVuSans-112"/>
     <path d="M 19.671875 64.796875 
L 19.671875 37.40625 
L 32.078125 37.40625 
Q 38.96875 37.40625 42.71875 40.96875 
Q 46.484375 44.53125 46.484375 51.125 
Q 46.484375 57.671875 42.71875 61.234375 
Q 38.96875 64.796875 32.078125 64.796875 
z
M 9.8125 72.90625 
L 32.078125 72.90625 
Q 44.34375 72.90625 50.609375 67.359375 
Q 56.890625 61.8125 56.890625 51.125 
Q 56.890625 40.328125 50.609375 34.8125 
Q 44.34375 29.296875 32.078125 29.296875 
L 19.671875 29.296875 
L 19.671875 0 
L 9.8125 0 
z
" id="DejaVuSans-80"/>
     <path d="M 28.609375 0 
L 0.78125 72.90625 
L 11.078125 72.90625 
L 34.1875 11.53125 
L 57.328125 72.90625 
L 67.578125 72.90625 
L 39.796875 0 
z
" id="DejaVuSans-86"/>
     <path d="M 50.984375 -16.609375 
L 50.984375 -23.578125 
L -0.984375 -23.578125 
L -0.984375 -16.609375 
z
" id="DejaVuSans-95"/>
    </defs>
    <g transform="translate(131.88375 35.472)scale(0.12 -0.12)">
     <use xlink:href="#DejaVuSans-77"/>
     <use x="86.279297" xlink:href="#DejaVuSans-75"/>
     <use x="151.855469" xlink:href="#DejaVuSans-76"/>
     <use x="207.568359" xlink:href="#DejaVuSans-32"/>
     <use x="239.355469" xlink:href="#DejaVuSans-105"/>
     <use x="267.138672" xlink:href="#DejaVuSans-111"/>
     <use x="328.320312" xlink:href="#DejaVuSans-109"/>
     <use x="425.732422" xlink:href="#DejaVuSans-112"/>
     <use x="489.208984" xlink:href="#DejaVuSans-32"/>
     <use x="520.996094" xlink:href="#DejaVuSans-50"/>
     <use x="584.619141" xlink:href="#DejaVuSans-80"/>
     <use x="644.921875" xlink:href="#DejaVuSans-86"/>
     <use x="713.330078" xlink:href="#DejaVuSans-32"/>
     <use x="745.117188" xlink:href="#DejaVuSans-111"/>
     <use x="806.298828" xlink:href="#DejaVuSans-110"/>
     <use x="869.677734" xlink:href="#DejaVuSans-32"/>
     <use x="901.464844" xlink:href="#DejaVuSans-112"/>
     <use x="964.941406" xlink:href="#DejaVuSans-114"/>
     <use x="1003.804688" xlink:href="#DejaVuSans-101"/>
     <use x="1065.328125" xlink:href="#DejaVuSans-95"/>
     <use x="1115.328125" xlink:href="#DejaVuSans-116"/>
     <use x="1154.537109" xlink:href="#DejaVuSans-114"/>
     <use x="1195.650391" xlink:href="#DejaVuSans-97"/>
     <use x="1256.929688" xlink:href="#DejaVuSans-110"/>
     <use x="1320.308594" xlink:href="#DejaVuSans-115"/>
     <use x="1372.408203" xlink:href="#DejaVuSans-112"/>
     <use x="1435.884766" xlink:href="#DejaVuSans-111"/>
     <use x="1497.066406" xlink:href="#DejaVuSans-115"/>
     <use x="1549.166016" xlink:href="#DejaVuSans-101"/>
     <use x="1610.689453" xlink:href="#DejaVuSans-49"/>
     <use x="1674.3125" xlink:href="#DejaVuSans-53"/>
    </g>
   </g>
   <g id="legend_1">
    <g id="patch_7">
     <path d="M 64.6 93.7845 
L 159.167188 93.7845 
Q 161.167188 93.7845 161.167188 91.7845 
L 161.167188 48.472 
Q 161.167188 46.472 159.167188 46.472 
L 64.6 46.472 
Q 62.6 46.472 62.6 48.472 
L 62.6 91.7845 
Q 62.6 93.7845 64.6 93.7845 
z
" style="fill:#ffffff;opacity:0.8;stroke:#cccccc;stroke-linejoin:miter;"/>
    </g>
    <g id="line2d_66">
     <path d="M 66.6 54.570438 
L 86.6 54.570438 
" style="fill:none;stroke:#0000ff;stroke-dasharray:1.5,2.475;stroke-dashoffset:0;stroke-width:1.5;"/>
    </g>
    <g id="line2d_67">
     <g>
      <use style="fill:#0000ff;stroke:#0000ff;" x="76.6" xlink:href="#m0b3b07da1d" y="54.570438"/>
     </g>
    </g>
    <g id="text_35">
     <!-- transpose -->
     <g transform="translate(94.6 58.070438)scale(0.1 -0.1)">
      <use xlink:href="#DejaVuSans-116"/>
      <use x="39.208984" xlink:href="#DejaVuSans-114"/>
      <use x="80.322266" xlink:href="#DejaVuSans-97"/>
      <use x="141.601562" xlink:href="#DejaVuSans-110"/>
      <use x="204.980469" xlink:href="#DejaVuSans-115"/>
      <use x="257.080078" xlink:href="#DejaVuSans-112"/>
      <use x="320.556641" xlink:href="#DejaVuSans-111"/>
      <use x="381.738281" xlink:href="#DejaVuSans-115"/>
      <use x="433.837891" xlink:href="#DejaVuSans-101"/>
     </g>
    </g>
    <g id="line2d_68">
     <path d="M 66.6 69.248563 
L 86.6 69.248563 
" style="fill:none;stroke:#ff0000;stroke-dasharray:1.5,2.475;stroke-dashoffset:0;stroke-width:1.5;"/>
    </g>
    <g id="line2d_69">
     <g>
      <use style="fill:#ff0000;stroke:#ff0000;" x="76.6" xlink:href="#mbe5e97678b" y="69.248563"/>
     </g>
    </g>
    <g id="text_36">
     <!-- transpose_tr -->
     <g transform="translate(94.6 72.748563)scale(0.1 -0.1)">
      <use xlink:href="#DejaVuSans-116"/>
      <use x="39.208984" xlink:href="#DejaVuSans-114"/>
      <use x="80.322266" xlink:href="#DejaVuSans-97"/>
      <use x="141.601562" xlink:href="#DejaVuSans-110"/>
      <use x="204.980469" xlink:href="#DejaVuSans-115"/>
      <use x="257.080078" xlink:href="#DejaVuSans-112"/>
      <use x="320.556641" xlink:href="#DejaVuSans-111"/>
      <use x="381.738281" xlink:href="#DejaVuSans-115"/>
      <use x="433.837891" xlink:href="#DejaVuSans-101"/>
      <use x="495.361328" xlink:href="#DejaVuSans-95"/>
      <use x="545.361328" xlink:href="#DejaVuSans-116"/>
      <use x="584.570312" xlink:href="#DejaVuSans-114"/>
     </g>
    </g>
    <g id="line2d_70">
     <path d="M 66.6 84.204813 
L 86.6 84.204813 
" style="fill:none;stroke:#008000;stroke-dasharray:1.5,2.475;stroke-dashoffset:0;stroke-width:1.5;"/>
    </g>
    <g id="line2d_71">
     <g>
      <use style="fill:#008000;stroke:#008000;" x="76.6" xlink:href="#ma926747bd0" y="84.204813"/>
     </g>
    </g>
    <g id="text_37">
     <!-- mean -->
     <g transform="translate(94.6 87.704813)scale(0.1 -0.1)">
      <use xlink:href="#DejaVuSans-109"/>
      <use x="97.412109" xlink:href="#DejaVuSans-101"/>
      <use x="158.935547" xlink:href="#DejaVuSans-97"/>
      <use x="220.214844" xlink:href="#DejaVuSans-110"/>
     </g>
    </g>
   </g>
  </g>
 </g>
 <defs>
  <clipPath id="p6d78ccf1c2">
   <rect height="266.112" width="357.12" x="57.6" y="41.472"/>
  </clipPath>
 </defs>
</svg>
