<?xml version="1.0" encoding="utf-8" standalone="no"?>
<!DOCTYPE svg PUBLIC "-//W3C//DTD SVG 1.1//EN"
  "http://www.w3.org/Graphics/SVG/1.1/DTD/svg11.dtd">
<!-- Created with matplotlib (https://matplotlib.org/) -->
<svg height="345.6pt" version="1.1" viewBox="0 0 460.8 345.6" width="460.8pt" xmlns="http://www.w3.org/2000/svg" xmlns:xlink="http://www.w3.org/1999/xlink">
 <defs>
  <style type="text/css">
*{stroke-linecap:butt;stroke-linejoin:round;}
  </style>
 </defs>
 <g id="figure_1">
  <g id="patch_1">
   <path d="M 0 345.6 
L 460.8 345.6 
L 460.8 0 
L 0 0 
z
" style="fill:#ffffff;"/>
  </g>
  <g id="axes_1">
   <g id="patch_2">
    <path d="M 57.6 307.584 
L 414.72 307.584 
L 414.72 41.472 
L 57.6 41.472 
z
" style="fill:#ffffff;"/>
   </g>
   <g id="matplotlib.axis_1">
    <g id="xtick_1">
     <g id="line2d_1">
      <path clip-path="url(#pe4e8ccc7f7)" d="M 61.612584 307.584 
L 61.612584 41.472 
" style="fill:none;stroke:#b0b0b0;stroke-dasharray:5.12,1.28,0.8,1.28;stroke-dashoffset:0;stroke-width:0.8;"/>
     </g>
     <g id="line2d_2">
      <defs>
       <path d="M 0 0 
L 0 3.5 
" id="me80f13a079" style="stroke:#000000;stroke-width:0.8;"/>
      </defs>
      <g>
       <use style="stroke:#000000;stroke-width:0.8;" x="61.612584" xlink:href="#me80f13a079" y="307.584"/>
      </g>
     </g>
     <g id="text_1">
      <!-- 1 -->
      <defs>
       <path d="M 12.40625 8.296875 
L 28.515625 8.296875 
L 28.515625 63.921875 
L 10.984375 60.40625 
L 10.984375 69.390625 
L 28.421875 72.90625 
L 38.28125 72.90625 
L 38.28125 8.296875 
L 54.390625 8.296875 
L 54.390625 0 
L 12.40625 0 
z
" id="DejaVuSans-49"/>
      </defs>
      <g transform="translate(58.431334 322.182437)scale(0.1 -0.1)">
       <use xlink:href="#DejaVuSans-49"/>
      </g>
     </g>
    </g>
    <g id="xtick_2">
     <g id="line2d_3">
      <path clip-path="url(#pe4e8ccc7f7)" d="M 73.650337 307.584 
L 73.650337 41.472 
" style="fill:none;stroke:#b0b0b0;stroke-dasharray:5.12,1.28,0.8,1.28;stroke-dashoffset:0;stroke-width:0.8;"/>
     </g>
     <g id="line2d_4">
      <g>
       <use style="stroke:#000000;stroke-width:0.8;" x="73.650337" xlink:href="#me80f13a079" y="307.584"/>
      </g>
     </g>
     <g id="text_2">
      <!-- 4 -->
      <defs>
       <path d="M 37.796875 64.3125 
L 12.890625 25.390625 
L 37.796875 25.390625 
z
M 35.203125 72.90625 
L 47.609375 72.90625 
L 47.609375 25.390625 
L 58.015625 25.390625 
L 58.015625 17.1875 
L 47.609375 17.1875 
L 47.609375 0 
L 37.796875 0 
L 37.796875 17.1875 
L 4.890625 17.1875 
L 4.890625 26.703125 
z
" id="DejaVuSans-52"/>
      </defs>
      <g transform="translate(70.469087 322.182437)scale(0.1 -0.1)">
       <use xlink:href="#DejaVuSans-52"/>
      </g>
     </g>
    </g>
    <g id="xtick_3">
     <g id="line2d_5">
      <path clip-path="url(#pe4e8ccc7f7)" d="M 89.700674 307.584 
L 89.700674 41.472 
" style="fill:none;stroke:#b0b0b0;stroke-dasharray:5.12,1.28,0.8,1.28;stroke-dashoffset:0;stroke-width:0.8;"/>
     </g>
     <g id="line2d_6">
      <g>
       <use style="stroke:#000000;stroke-width:0.8;" x="89.700674" xlink:href="#me80f13a079" y="307.584"/>
      </g>
     </g>
     <g id="text_3">
      <!-- 8 -->
      <defs>
       <path d="M 31.78125 34.625 
Q 24.75 34.625 20.71875 30.859375 
Q 16.703125 27.09375 16.703125 20.515625 
Q 16.703125 13.921875 20.71875 10.15625 
Q 24.75 6.390625 31.78125 6.390625 
Q 38.8125 6.390625 42.859375 10.171875 
Q 46.921875 13.96875 46.921875 20.515625 
Q 46.921875 27.09375 42.890625 30.859375 
Q 38.875 34.625 31.78125 34.625 
z
M 21.921875 38.8125 
Q 15.578125 40.375 12.03125 44.71875 
Q 8.5 49.078125 8.5 55.328125 
Q 8.5 64.0625 14.71875 69.140625 
Q 20.953125 74.21875 31.78125 74.21875 
Q 42.671875 74.21875 48.875 69.140625 
Q 55.078125 64.0625 55.078125 55.328125 
Q 55.078125 49.078125 51.53125 44.71875 
Q 48 40.375 41.703125 38.8125 
Q 48.828125 37.15625 52.796875 32.3125 
Q 56.78125 27.484375 56.78125 20.515625 
Q 56.78125 9.90625 50.3125 4.234375 
Q 43.84375 -1.421875 31.78125 -1.421875 
Q 19.734375 -1.421875 13.25 4.234375 
Q 6.78125 9.90625 6.78125 20.515625 
Q 6.78125 27.484375 10.78125 32.3125 
Q 14.796875 37.15625 21.921875 38.8125 
z
M 18.3125 54.390625 
Q 18.3125 48.734375 21.84375 45.5625 
Q 25.390625 42.390625 31.78125 42.390625 
Q 38.140625 42.390625 41.71875 45.5625 
Q 45.3125 48.734375 45.3125 54.390625 
Q 45.3125 60.0625 41.71875 63.234375 
Q 38.140625 66.40625 31.78125 66.40625 
Q 25.390625 66.40625 21.84375 63.234375 
Q 18.3125 60.0625 18.3125 54.390625 
z
" id="DejaVuSans-56"/>
      </defs>
      <g transform="translate(86.519424 322.182437)scale(0.1 -0.1)">
       <use xlink:href="#DejaVuSans-56"/>
      </g>
     </g>
    </g>
    <g id="xtick_4">
     <g id="line2d_7">
      <path clip-path="url(#pe4e8ccc7f7)" d="M 105.751011 307.584 
L 105.751011 41.472 
" style="fill:none;stroke:#b0b0b0;stroke-dasharray:5.12,1.28,0.8,1.28;stroke-dashoffset:0;stroke-width:0.8;"/>
     </g>
     <g id="line2d_8">
      <g>
       <use style="stroke:#000000;stroke-width:0.8;" x="105.751011" xlink:href="#me80f13a079" y="307.584"/>
      </g>
     </g>
     <g id="text_4">
      <!-- 12 -->
      <defs>
       <path d="M 19.1875 8.296875 
L 53.609375 8.296875 
L 53.609375 0 
L 7.328125 0 
L 7.328125 8.296875 
Q 12.9375 14.109375 22.625 23.890625 
Q 32.328125 33.6875 34.8125 36.53125 
Q 39.546875 41.84375 41.421875 45.53125 
Q 43.3125 49.21875 43.3125 52.78125 
Q 43.3125 58.59375 39.234375 62.25 
Q 35.15625 65.921875 28.609375 65.921875 
Q 23.96875 65.921875 18.8125 64.3125 
Q 13.671875 62.703125 7.8125 59.421875 
L 7.8125 69.390625 
Q 13.765625 71.78125 18.9375 73 
Q 24.125 74.21875 28.421875 74.21875 
Q 39.75 74.21875 46.484375 68.546875 
Q 53.21875 62.890625 53.21875 53.421875 
Q 53.21875 48.921875 51.53125 44.890625 
Q 49.859375 40.875 45.40625 35.40625 
Q 44.1875 33.984375 37.640625 27.21875 
Q 31.109375 20.453125 19.1875 8.296875 
z
" id="DejaVuSans-50"/>
      </defs>
      <g transform="translate(99.388511 322.182437)scale(0.1 -0.1)">
       <use xlink:href="#DejaVuSans-49"/>
       <use x="63.623047" xlink:href="#DejaVuSans-50"/>
      </g>
     </g>
    </g>
    <g id="xtick_5">
     <g id="line2d_9">
      <path clip-path="url(#pe4e8ccc7f7)" d="M 121.801348 307.584 
L 121.801348 41.472 
" style="fill:none;stroke:#b0b0b0;stroke-dasharray:5.12,1.28,0.8,1.28;stroke-dashoffset:0;stroke-width:0.8;"/>
     </g>
     <g id="line2d_10">
      <g>
       <use style="stroke:#000000;stroke-width:0.8;" x="121.801348" xlink:href="#me80f13a079" y="307.584"/>
      </g>
     </g>
     <g id="text_5">
      <!-- 16 -->
      <defs>
       <path d="M 33.015625 40.375 
Q 26.375 40.375 22.484375 35.828125 
Q 18.609375 31.296875 18.609375 23.390625 
Q 18.609375 15.53125 22.484375 10.953125 
Q 26.375 6.390625 33.015625 6.390625 
Q 39.65625 6.390625 43.53125 10.953125 
Q 47.40625 15.53125 47.40625 23.390625 
Q 47.40625 31.296875 43.53125 35.828125 
Q 39.65625 40.375 33.015625 40.375 
z
M 52.59375 71.296875 
L 52.59375 62.3125 
Q 48.875 64.0625 45.09375 64.984375 
Q 41.3125 65.921875 37.59375 65.921875 
Q 27.828125 65.921875 22.671875 59.328125 
Q 17.53125 52.734375 16.796875 39.40625 
Q 19.671875 43.65625 24.015625 45.921875 
Q 28.375 48.1875 33.59375 48.1875 
Q 44.578125 48.1875 50.953125 41.515625 
Q 57.328125 34.859375 57.328125 23.390625 
Q 57.328125 12.15625 50.6875 5.359375 
Q 44.046875 -1.421875 33.015625 -1.421875 
Q 20.359375 -1.421875 13.671875 8.265625 
Q 6.984375 17.96875 6.984375 36.375 
Q 6.984375 53.65625 15.1875 63.9375 
Q 23.390625 74.21875 37.203125 74.21875 
Q 40.921875 74.21875 44.703125 73.484375 
Q 48.484375 72.75 52.59375 71.296875 
z
" id="DejaVuSans-54"/>
      </defs>
      <g transform="translate(115.438848 322.182437)scale(0.1 -0.1)">
       <use xlink:href="#DejaVuSans-49"/>
       <use x="63.623047" xlink:href="#DejaVuSans-54"/>
      </g>
     </g>
    </g>
    <g id="xtick_6">
     <g id="line2d_11">
      <path clip-path="url(#pe4e8ccc7f7)" d="M 137.851685 307.584 
L 137.851685 41.472 
" style="fill:none;stroke:#b0b0b0;stroke-dasharray:5.12,1.28,0.8,1.28;stroke-dashoffset:0;stroke-width:0.8;"/>
     </g>
     <g id="line2d_12">
      <g>
       <use style="stroke:#000000;stroke-width:0.8;" x="137.851685" xlink:href="#me80f13a079" y="307.584"/>
      </g>
     </g>
     <g id="text_6">
      <!-- 20 -->
      <defs>
       <path d="M 31.78125 66.40625 
Q 24.171875 66.40625 20.328125 58.90625 
Q 16.5 51.421875 16.5 36.375 
Q 16.5 21.390625 20.328125 13.890625 
Q 24.171875 6.390625 31.78125 6.390625 
Q 39.453125 6.390625 43.28125 13.890625 
Q 47.125 21.390625 47.125 36.375 
Q 47.125 51.421875 43.28125 58.90625 
Q 39.453125 66.40625 31.78125 66.40625 
z
M 31.78125 74.21875 
Q 44.046875 74.21875 50.515625 64.515625 
Q 56.984375 54.828125 56.984375 36.375 
Q 56.984375 17.96875 50.515625 8.265625 
Q 44.046875 -1.421875 31.78125 -1.421875 
Q 19.53125 -1.421875 13.0625 8.265625 
Q 6.59375 17.96875 6.59375 36.375 
Q 6.59375 54.828125 13.0625 64.515625 
Q 19.53125 74.21875 31.78125 74.21875 
z
" id="DejaVuSans-48"/>
      </defs>
      <g transform="translate(131.489185 322.182437)scale(0.1 -0.1)">
       <use xlink:href="#DejaVuSans-50"/>
       <use x="63.623047" xlink:href="#DejaVuSans-48"/>
      </g>
     </g>
    </g>
    <g id="xtick_7">
     <g id="line2d_13">
      <path clip-path="url(#pe4e8ccc7f7)" d="M 153.902022 307.584 
L 153.902022 41.472 
" style="fill:none;stroke:#b0b0b0;stroke-dasharray:5.12,1.28,0.8,1.28;stroke-dashoffset:0;stroke-width:0.8;"/>
     </g>
     <g id="line2d_14">
      <g>
       <use style="stroke:#000000;stroke-width:0.8;" x="153.902022" xlink:href="#me80f13a079" y="307.584"/>
      </g>
     </g>
     <g id="text_7">
      <!-- 24 -->
      <g transform="translate(147.539522 322.182437)scale(0.1 -0.1)">
       <use xlink:href="#DejaVuSans-50"/>
       <use x="63.623047" xlink:href="#DejaVuSans-52"/>
      </g>
     </g>
    </g>
    <g id="xtick_8">
     <g id="line2d_15">
      <path clip-path="url(#pe4e8ccc7f7)" d="M 169.95236 307.584 
L 169.95236 41.472 
" style="fill:none;stroke:#b0b0b0;stroke-dasharray:5.12,1.28,0.8,1.28;stroke-dashoffset:0;stroke-width:0.8;"/>
     </g>
     <g id="line2d_16">
      <g>
       <use style="stroke:#000000;stroke-width:0.8;" x="169.95236" xlink:href="#me80f13a079" y="307.584"/>
      </g>
     </g>
     <g id="text_8">
      <!-- 28 -->
      <g transform="translate(163.58986 322.182437)scale(0.1 -0.1)">
       <use xlink:href="#DejaVuSans-50"/>
       <use x="63.623047" xlink:href="#DejaVuSans-56"/>
      </g>
     </g>
    </g>
    <g id="xtick_9">
     <g id="line2d_17">
      <path clip-path="url(#pe4e8ccc7f7)" d="M 186.002697 307.584 
L 186.002697 41.472 
" style="fill:none;stroke:#b0b0b0;stroke-dasharray:5.12,1.28,0.8,1.28;stroke-dashoffset:0;stroke-width:0.8;"/>
     </g>
     <g id="line2d_18">
      <g>
       <use style="stroke:#000000;stroke-width:0.8;" x="186.002697" xlink:href="#me80f13a079" y="307.584"/>
      </g>
     </g>
     <g id="text_9">
      <!-- 32 -->
      <defs>
       <path d="M 40.578125 39.3125 
Q 47.65625 37.796875 51.625 33 
Q 55.609375 28.21875 55.609375 21.1875 
Q 55.609375 10.40625 48.1875 4.484375 
Q 40.765625 -1.421875 27.09375 -1.421875 
Q 22.515625 -1.421875 17.65625 -0.515625 
Q 12.796875 0.390625 7.625 2.203125 
L 7.625 11.71875 
Q 11.71875 9.328125 16.59375 8.109375 
Q 21.484375 6.890625 26.8125 6.890625 
Q 36.078125 6.890625 40.9375 10.546875 
Q 45.796875 14.203125 45.796875 21.1875 
Q 45.796875 27.640625 41.28125 31.265625 
Q 36.765625 34.90625 28.71875 34.90625 
L 20.21875 34.90625 
L 20.21875 43.015625 
L 29.109375 43.015625 
Q 36.375 43.015625 40.234375 45.921875 
Q 44.09375 48.828125 44.09375 54.296875 
Q 44.09375 59.90625 40.109375 62.90625 
Q 36.140625 65.921875 28.71875 65.921875 
Q 24.65625 65.921875 20.015625 65.03125 
Q 15.375 64.15625 9.8125 62.3125 
L 9.8125 71.09375 
Q 15.4375 72.65625 20.34375 73.4375 
Q 25.25 74.21875 29.59375 74.21875 
Q 40.828125 74.21875 47.359375 69.109375 
Q 53.90625 64.015625 53.90625 55.328125 
Q 53.90625 49.265625 50.4375 45.09375 
Q 46.96875 40.921875 40.578125 39.3125 
z
" id="DejaVuSans-51"/>
      </defs>
      <g transform="translate(179.640197 322.182437)scale(0.1 -0.1)">
       <use xlink:href="#DejaVuSans-51"/>
       <use x="63.623047" xlink:href="#DejaVuSans-50"/>
      </g>
     </g>
    </g>
    <g id="xtick_10">
     <g id="line2d_19">
      <path clip-path="url(#pe4e8ccc7f7)" d="M 202.053034 307.584 
L 202.053034 41.472 
" style="fill:none;stroke:#b0b0b0;stroke-dasharray:5.12,1.28,0.8,1.28;stroke-dashoffset:0;stroke-width:0.8;"/>
     </g>
     <g id="line2d_20">
      <g>
       <use style="stroke:#000000;stroke-width:0.8;" x="202.053034" xlink:href="#me80f13a079" y="307.584"/>
      </g>
     </g>
     <g id="text_10">
      <!-- 36 -->
      <g transform="translate(195.690534 322.182437)scale(0.1 -0.1)">
       <use xlink:href="#DejaVuSans-51"/>
       <use x="63.623047" xlink:href="#DejaVuSans-54"/>
      </g>
     </g>
    </g>
    <g id="xtick_11">
     <g id="line2d_21">
      <path clip-path="url(#pe4e8ccc7f7)" d="M 218.103371 307.584 
L 218.103371 41.472 
" style="fill:none;stroke:#b0b0b0;stroke-dasharray:5.12,1.28,0.8,1.28;stroke-dashoffset:0;stroke-width:0.8;"/>
     </g>
     <g id="line2d_22">
      <g>
       <use style="stroke:#000000;stroke-width:0.8;" x="218.103371" xlink:href="#me80f13a079" y="307.584"/>
      </g>
     </g>
     <g id="text_11">
      <!-- 40 -->
      <g transform="translate(211.740871 322.182437)scale(0.1 -0.1)">
       <use xlink:href="#DejaVuSans-52"/>
       <use x="63.623047" xlink:href="#DejaVuSans-48"/>
      </g>
     </g>
    </g>
    <g id="xtick_12">
     <g id="line2d_23">
      <path clip-path="url(#pe4e8ccc7f7)" d="M 234.153708 307.584 
L 234.153708 41.472 
" style="fill:none;stroke:#b0b0b0;stroke-dasharray:5.12,1.28,0.8,1.28;stroke-dashoffset:0;stroke-width:0.8;"/>
     </g>
     <g id="line2d_24">
      <g>
       <use style="stroke:#000000;stroke-width:0.8;" x="234.153708" xlink:href="#me80f13a079" y="307.584"/>
      </g>
     </g>
     <g id="text_12">
      <!-- 44 -->
      <g transform="translate(227.791208 322.182437)scale(0.1 -0.1)">
       <use xlink:href="#DejaVuSans-52"/>
       <use x="63.623047" xlink:href="#DejaVuSans-52"/>
      </g>
     </g>
    </g>
    <g id="xtick_13">
     <g id="line2d_25">
      <path clip-path="url(#pe4e8ccc7f7)" d="M 250.204045 307.584 
L 250.204045 41.472 
" style="fill:none;stroke:#b0b0b0;stroke-dasharray:5.12,1.28,0.8,1.28;stroke-dashoffset:0;stroke-width:0.8;"/>
     </g>
     <g id="line2d_26">
      <g>
       <use style="stroke:#000000;stroke-width:0.8;" x="250.204045" xlink:href="#me80f13a079" y="307.584"/>
      </g>
     </g>
     <g id="text_13">
      <!-- 48 -->
      <g transform="translate(243.841545 322.182437)scale(0.1 -0.1)">
       <use xlink:href="#DejaVuSans-52"/>
       <use x="63.623047" xlink:href="#DejaVuSans-56"/>
      </g>
     </g>
    </g>
    <g id="xtick_14">
     <g id="line2d_27">
      <path clip-path="url(#pe4e8ccc7f7)" d="M 266.254382 307.584 
L 266.254382 41.472 
" style="fill:none;stroke:#b0b0b0;stroke-dasharray:5.12,1.28,0.8,1.28;stroke-dashoffset:0;stroke-width:0.8;"/>
     </g>
     <g id="line2d_28">
      <g>
       <use style="stroke:#000000;stroke-width:0.8;" x="266.254382" xlink:href="#me80f13a079" y="307.584"/>
      </g>
     </g>
     <g id="text_14">
      <!-- 52 -->
      <defs>
       <path d="M 10.796875 72.90625 
L 49.515625 72.90625 
L 49.515625 64.59375 
L 19.828125 64.59375 
L 19.828125 46.734375 
Q 21.96875 47.46875 24.109375 47.828125 
Q 26.265625 48.1875 28.421875 48.1875 
Q 40.625 48.1875 47.75 41.5 
Q 54.890625 34.8125 54.890625 23.390625 
Q 54.890625 11.625 47.5625 5.09375 
Q 40.234375 -1.421875 26.90625 -1.421875 
Q 22.3125 -1.421875 17.546875 -0.640625 
Q 12.796875 0.140625 7.71875 1.703125 
L 7.71875 11.625 
Q 12.109375 9.234375 16.796875 8.0625 
Q 21.484375 6.890625 26.703125 6.890625 
Q 35.15625 6.890625 40.078125 11.328125 
Q 45.015625 15.765625 45.015625 23.390625 
Q 45.015625 31 40.078125 35.4375 
Q 35.15625 39.890625 26.703125 39.890625 
Q 22.75 39.890625 18.8125 39.015625 
Q 14.890625 38.140625 10.796875 36.28125 
z
" id="DejaVuSans-53"/>
      </defs>
      <g transform="translate(259.891882 322.182437)scale(0.1 -0.1)">
       <use xlink:href="#DejaVuSans-53"/>
       <use x="63.623047" xlink:href="#DejaVuSans-50"/>
      </g>
     </g>
    </g>
    <g id="xtick_15">
     <g id="line2d_29">
      <path clip-path="url(#pe4e8ccc7f7)" d="M 282.304719 307.584 
L 282.304719 41.472 
" style="fill:none;stroke:#b0b0b0;stroke-dasharray:5.12,1.28,0.8,1.28;stroke-dashoffset:0;stroke-width:0.8;"/>
     </g>
     <g id="line2d_30">
      <g>
       <use style="stroke:#000000;stroke-width:0.8;" x="282.304719" xlink:href="#me80f13a079" y="307.584"/>
      </g>
     </g>
     <g id="text_15">
      <!-- 56 -->
      <g transform="translate(275.942219 322.182437)scale(0.1 -0.1)">
       <use xlink:href="#DejaVuSans-53"/>
       <use x="63.623047" xlink:href="#DejaVuSans-54"/>
      </g>
     </g>
    </g>
    <g id="xtick_16">
     <g id="line2d_31">
      <path clip-path="url(#pe4e8ccc7f7)" d="M 298.355056 307.584 
L 298.355056 41.472 
" style="fill:none;stroke:#b0b0b0;stroke-dasharray:5.12,1.28,0.8,1.28;stroke-dashoffset:0;stroke-width:0.8;"/>
     </g>
     <g id="line2d_32">
      <g>
       <use style="stroke:#000000;stroke-width:0.8;" x="298.355056" xlink:href="#me80f13a079" y="307.584"/>
      </g>
     </g>
     <g id="text_16">
      <!-- 60 -->
      <g transform="translate(291.992556 322.182437)scale(0.1 -0.1)">
       <use xlink:href="#DejaVuSans-54"/>
       <use x="63.623047" xlink:href="#DejaVuSans-48"/>
      </g>
     </g>
    </g>
    <g id="xtick_17">
     <g id="line2d_33">
      <path clip-path="url(#pe4e8ccc7f7)" d="M 314.405393 307.584 
L 314.405393 41.472 
" style="fill:none;stroke:#b0b0b0;stroke-dasharray:5.12,1.28,0.8,1.28;stroke-dashoffset:0;stroke-width:0.8;"/>
     </g>
     <g id="line2d_34">
      <g>
       <use style="stroke:#000000;stroke-width:0.8;" x="314.405393" xlink:href="#me80f13a079" y="307.584"/>
      </g>
     </g>
     <g id="text_17">
      <!-- 64 -->
      <g transform="translate(308.042893 322.182437)scale(0.1 -0.1)">
       <use xlink:href="#DejaVuSans-54"/>
       <use x="63.623047" xlink:href="#DejaVuSans-52"/>
      </g>
     </g>
    </g>
    <g id="xtick_18">
     <g id="line2d_35">
      <path clip-path="url(#pe4e8ccc7f7)" d="M 330.45573 307.584 
L 330.45573 41.472 
" style="fill:none;stroke:#b0b0b0;stroke-dasharray:5.12,1.28,0.8,1.28;stroke-dashoffset:0;stroke-width:0.8;"/>
     </g>
     <g id="line2d_36">
      <g>
       <use style="stroke:#000000;stroke-width:0.8;" x="330.45573" xlink:href="#me80f13a079" y="307.584"/>
      </g>
     </g>
     <g id="text_18">
      <!-- 68 -->
      <g transform="translate(324.09323 322.182437)scale(0.1 -0.1)">
       <use xlink:href="#DejaVuSans-54"/>
       <use x="63.623047" xlink:href="#DejaVuSans-56"/>
      </g>
     </g>
    </g>
    <g id="xtick_19">
     <g id="line2d_37">
      <path clip-path="url(#pe4e8ccc7f7)" d="M 346.506067 307.584 
L 346.506067 41.472 
" style="fill:none;stroke:#b0b0b0;stroke-dasharray:5.12,1.28,0.8,1.28;stroke-dashoffset:0;stroke-width:0.8;"/>
     </g>
     <g id="line2d_38">
      <g>
       <use style="stroke:#000000;stroke-width:0.8;" x="346.506067" xlink:href="#me80f13a079" y="307.584"/>
      </g>
     </g>
     <g id="text_19">
      <!-- 72 -->
      <defs>
       <path d="M 8.203125 72.90625 
L 55.078125 72.90625 
L 55.078125 68.703125 
L 28.609375 0 
L 18.3125 0 
L 43.21875 64.59375 
L 8.203125 64.59375 
z
" id="DejaVuSans-55"/>
      </defs>
      <g transform="translate(340.143567 322.182437)scale(0.1 -0.1)">
       <use xlink:href="#DejaVuSans-55"/>
       <use x="63.623047" xlink:href="#DejaVuSans-50"/>
      </g>
     </g>
    </g>
    <g id="xtick_20">
     <g id="line2d_39">
      <path clip-path="url(#pe4e8ccc7f7)" d="M 362.556404 307.584 
L 362.556404 41.472 
" style="fill:none;stroke:#b0b0b0;stroke-dasharray:5.12,1.28,0.8,1.28;stroke-dashoffset:0;stroke-width:0.8;"/>
     </g>
     <g id="line2d_40">
      <g>
       <use style="stroke:#000000;stroke-width:0.8;" x="362.556404" xlink:href="#me80f13a079" y="307.584"/>
      </g>
     </g>
     <g id="text_20">
      <!-- 76 -->
      <g transform="translate(356.193904 322.182437)scale(0.1 -0.1)">
       <use xlink:href="#DejaVuSans-55"/>
       <use x="63.623047" xlink:href="#DejaVuSans-54"/>
      </g>
     </g>
    </g>
    <g id="xtick_21">
     <g id="line2d_41">
      <path clip-path="url(#pe4e8ccc7f7)" d="M 378.606742 307.584 
L 378.606742 41.472 
" style="fill:none;stroke:#b0b0b0;stroke-dasharray:5.12,1.28,0.8,1.28;stroke-dashoffset:0;stroke-width:0.8;"/>
     </g>
     <g id="line2d_42">
      <g>
       <use style="stroke:#000000;stroke-width:0.8;" x="378.606742" xlink:href="#me80f13a079" y="307.584"/>
      </g>
     </g>
     <g id="text_21">
      <!-- 80 -->
      <g transform="translate(372.244242 322.182437)scale(0.1 -0.1)">
       <use xlink:href="#DejaVuSans-56"/>
       <use x="63.623047" xlink:href="#DejaVuSans-48"/>
      </g>
     </g>
    </g>
    <g id="xtick_22">
     <g id="line2d_43">
      <path clip-path="url(#pe4e8ccc7f7)" d="M 394.657079 307.584 
L 394.657079 41.472 
" style="fill:none;stroke:#b0b0b0;stroke-dasharray:5.12,1.28,0.8,1.28;stroke-dashoffset:0;stroke-width:0.8;"/>
     </g>
     <g id="line2d_44">
      <g>
       <use style="stroke:#000000;stroke-width:0.8;" x="394.657079" xlink:href="#me80f13a079" y="307.584"/>
      </g>
     </g>
     <g id="text_22">
      <!-- 84 -->
      <g transform="translate(388.294579 322.182437)scale(0.1 -0.1)">
       <use xlink:href="#DejaVuSans-56"/>
       <use x="63.623047" xlink:href="#DejaVuSans-52"/>
      </g>
     </g>
    </g>
    <g id="xtick_23">
     <g id="line2d_45">
      <path clip-path="url(#pe4e8ccc7f7)" d="M 410.707416 307.584 
L 410.707416 41.472 
" style="fill:none;stroke:#b0b0b0;stroke-dasharray:5.12,1.28,0.8,1.28;stroke-dashoffset:0;stroke-width:0.8;"/>
     </g>
     <g id="line2d_46">
      <g>
       <use style="stroke:#000000;stroke-width:0.8;" x="410.707416" xlink:href="#me80f13a079" y="307.584"/>
      </g>
     </g>
     <g id="text_23">
      <!-- 88 -->
      <g transform="translate(404.344916 322.182437)scale(0.1 -0.1)">
       <use xlink:href="#DejaVuSans-56"/>
       <use x="63.623047" xlink:href="#DejaVuSans-56"/>
      </g>
     </g>
    </g>
    <g id="text_24">
     <!-- threads -->
     <defs>
      <path d="M 18.3125 70.21875 
L 18.3125 54.6875 
L 36.8125 54.6875 
L 36.8125 47.703125 
L 18.3125 47.703125 
L 18.3125 18.015625 
Q 18.3125 11.328125 20.140625 9.421875 
Q 21.96875 7.515625 27.59375 7.515625 
L 36.8125 7.515625 
L 36.8125 0 
L 27.59375 0 
Q 17.1875 0 13.234375 3.875 
Q 9.28125 7.765625 9.28125 18.015625 
L 9.28125 47.703125 
L 2.6875 47.703125 
L 2.6875 54.6875 
L 9.28125 54.6875 
L 9.28125 70.21875 
z
" id="DejaVuSans-116"/>
      <path d="M 54.890625 33.015625 
L 54.890625 0 
L 45.90625 0 
L 45.90625 32.71875 
Q 45.90625 40.484375 42.875 44.328125 
Q 39.84375 48.1875 33.796875 48.1875 
Q 26.515625 48.1875 22.3125 43.546875 
Q 18.109375 38.921875 18.109375 30.90625 
L 18.109375 0 
L 9.078125 0 
L 9.078125 75.984375 
L 18.109375 75.984375 
L 18.109375 46.1875 
Q 21.34375 51.125 25.703125 53.5625 
Q 30.078125 56 35.796875 56 
Q 45.21875 56 50.046875 50.171875 
Q 54.890625 44.34375 54.890625 33.015625 
z
" id="DejaVuSans-104"/>
      <path d="M 41.109375 46.296875 
Q 39.59375 47.171875 37.8125 47.578125 
Q 36.03125 48 33.890625 48 
Q 26.265625 48 22.1875 43.046875 
Q 18.109375 38.09375 18.109375 28.8125 
L 18.109375 0 
L 9.078125 0 
L 9.078125 54.6875 
L 18.109375 54.6875 
L 18.109375 46.1875 
Q 20.953125 51.171875 25.484375 53.578125 
Q 30.03125 56 36.53125 56 
Q 37.453125 56 38.578125 55.875 
Q 39.703125 55.765625 41.0625 55.515625 
z
" id="DejaVuSans-114"/>
      <path d="M 56.203125 29.59375 
L 56.203125 25.203125 
L 14.890625 25.203125 
Q 15.484375 15.921875 20.484375 11.0625 
Q 25.484375 6.203125 34.421875 6.203125 
Q 39.59375 6.203125 44.453125 7.46875 
Q 49.3125 8.734375 54.109375 11.28125 
L 54.109375 2.78125 
Q 49.265625 0.734375 44.1875 -0.34375 
Q 39.109375 -1.421875 33.890625 -1.421875 
Q 20.796875 -1.421875 13.15625 6.1875 
Q 5.515625 13.8125 5.515625 26.8125 
Q 5.515625 40.234375 12.765625 48.109375 
Q 20.015625 56 32.328125 56 
Q 43.359375 56 49.78125 48.890625 
Q 56.203125 41.796875 56.203125 29.59375 
z
M 47.21875 32.234375 
Q 47.125 39.59375 43.09375 43.984375 
Q 39.0625 48.390625 32.421875 48.390625 
Q 24.90625 48.390625 20.390625 44.140625 
Q 15.875 39.890625 15.1875 32.171875 
z
" id="DejaVuSans-101"/>
      <path d="M 34.28125 27.484375 
Q 23.390625 27.484375 19.1875 25 
Q 14.984375 22.515625 14.984375 16.5 
Q 14.984375 11.71875 18.140625 8.90625 
Q 21.296875 6.109375 26.703125 6.109375 
Q 34.1875 6.109375 38.703125 11.40625 
Q 43.21875 16.703125 43.21875 25.484375 
L 43.21875 27.484375 
z
M 52.203125 31.203125 
L 52.203125 0 
L 43.21875 0 
L 43.21875 8.296875 
Q 40.140625 3.328125 35.546875 0.953125 
Q 30.953125 -1.421875 24.3125 -1.421875 
Q 15.921875 -1.421875 10.953125 3.296875 
Q 6 8.015625 6 15.921875 
Q 6 25.140625 12.171875 29.828125 
Q 18.359375 34.515625 30.609375 34.515625 
L 43.21875 34.515625 
L 43.21875 35.40625 
Q 43.21875 41.609375 39.140625 45 
Q 35.0625 48.390625 27.6875 48.390625 
Q 23 48.390625 18.546875 47.265625 
Q 14.109375 46.140625 10.015625 43.890625 
L 10.015625 52.203125 
Q 14.9375 54.109375 19.578125 55.046875 
Q 24.21875 56 28.609375 56 
Q 40.484375 56 46.34375 49.84375 
Q 52.203125 43.703125 52.203125 31.203125 
z
" id="DejaVuSans-97"/>
      <path d="M 45.40625 46.390625 
L 45.40625 75.984375 
L 54.390625 75.984375 
L 54.390625 0 
L 45.40625 0 
L 45.40625 8.203125 
Q 42.578125 3.328125 38.25 0.953125 
Q 33.9375 -1.421875 27.875 -1.421875 
Q 17.96875 -1.421875 11.734375 6.484375 
Q 5.515625 14.40625 5.515625 27.296875 
Q 5.515625 40.1875 11.734375 48.09375 
Q 17.96875 56 27.875 56 
Q 33.9375 56 38.25 53.625 
Q 42.578125 51.265625 45.40625 46.390625 
z
M 14.796875 27.296875 
Q 14.796875 17.390625 18.875 11.75 
Q 22.953125 6.109375 30.078125 6.109375 
Q 37.203125 6.109375 41.296875 11.75 
Q 45.40625 17.390625 45.40625 27.296875 
Q 45.40625 37.203125 41.296875 42.84375 
Q 37.203125 48.484375 30.078125 48.484375 
Q 22.953125 48.484375 18.875 42.84375 
Q 14.796875 37.203125 14.796875 27.296875 
z
" id="DejaVuSans-100"/>
      <path d="M 44.28125 53.078125 
L 44.28125 44.578125 
Q 40.484375 46.53125 36.375 47.5 
Q 32.28125 48.484375 27.875 48.484375 
Q 21.1875 48.484375 17.84375 46.4375 
Q 14.5 44.390625 14.5 40.28125 
Q 14.5 37.15625 16.890625 35.375 
Q 19.28125 33.59375 26.515625 31.984375 
L 29.59375 31.296875 
Q 39.15625 29.25 43.1875 25.515625 
Q 47.21875 21.78125 47.21875 15.09375 
Q 47.21875 7.46875 41.1875 3.015625 
Q 35.15625 -1.421875 24.609375 -1.421875 
Q 20.21875 -1.421875 15.453125 -0.5625 
Q 10.6875 0.296875 5.421875 2 
L 5.421875 11.28125 
Q 10.40625 8.6875 15.234375 7.390625 
Q 20.0625 6.109375 24.8125 6.109375 
Q 31.15625 6.109375 34.5625 8.28125 
Q 37.984375 10.453125 37.984375 14.40625 
Q 37.984375 18.0625 35.515625 20.015625 
Q 33.0625 21.96875 24.703125 23.78125 
L 21.578125 24.515625 
Q 13.234375 26.265625 9.515625 29.90625 
Q 5.8125 33.546875 5.8125 39.890625 
Q 5.8125 47.609375 11.28125 51.796875 
Q 16.75 56 26.8125 56 
Q 31.78125 56 36.171875 55.265625 
Q 40.578125 54.546875 44.28125 53.078125 
z
" id="DejaVuSans-115"/>
     </defs>
     <g transform="translate(217.168594 335.860562)scale(0.1 -0.1)">
      <use xlink:href="#DejaVuSans-116"/>
      <use x="39.208984" xlink:href="#DejaVuSans-104"/>
      <use x="102.587891" xlink:href="#DejaVuSans-114"/>
      <use x="141.451172" xlink:href="#DejaVuSans-101"/>
      <use x="202.974609" xlink:href="#DejaVuSans-97"/>
      <use x="264.253906" xlink:href="#DejaVuSans-100"/>
      <use x="327.730469" xlink:href="#DejaVuSans-115"/>
     </g>
    </g>
   </g>
   <g id="matplotlib.axis_2">
    <g id="ytick_1">
     <g id="line2d_47">
      <path clip-path="url(#pe4e8ccc7f7)" d="M 57.6 273.171327 
L 414.72 273.171327 
" style="fill:none;stroke:#b0b0b0;stroke-dasharray:5.12,1.28,0.8,1.28;stroke-dashoffset:0;stroke-width:0.8;"/>
     </g>
     <g id="line2d_48">
      <defs>
       <path d="M 0 0 
L -3.5 0 
" id="m06427c2e5b" style="stroke:#000000;stroke-width:0.8;"/>
      </defs>
      <g>
       <use style="stroke:#000000;stroke-width:0.8;" x="57.6" xlink:href="#m06427c2e5b" y="273.171327"/>
      </g>
     </g>
     <g id="text_25">
      <!-- 1.0 -->
      <defs>
       <path d="M 10.6875 12.40625 
L 21 12.40625 
L 21 0 
L 10.6875 0 
z
" id="DejaVuSans-46"/>
      </defs>
      <g transform="translate(34.696875 276.970546)scale(0.1 -0.1)">
       <use xlink:href="#DejaVuSans-49"/>
       <use x="63.623047" xlink:href="#DejaVuSans-46"/>
       <use x="95.410156" xlink:href="#DejaVuSans-48"/>
      </g>
     </g>
    </g>
    <g id="ytick_2">
     <g id="line2d_49">
      <path clip-path="url(#pe4e8ccc7f7)" d="M 57.6 220.38725 
L 414.72 220.38725 
" style="fill:none;stroke:#b0b0b0;stroke-dasharray:5.12,1.28,0.8,1.28;stroke-dashoffset:0;stroke-width:0.8;"/>
     </g>
     <g id="line2d_50">
      <g>
       <use style="stroke:#000000;stroke-width:0.8;" x="57.6" xlink:href="#m06427c2e5b" y="220.38725"/>
      </g>
     </g>
     <g id="text_26">
      <!-- 1.5 -->
      <g transform="translate(34.696875 224.186469)scale(0.1 -0.1)">
       <use xlink:href="#DejaVuSans-49"/>
       <use x="63.623047" xlink:href="#DejaVuSans-46"/>
       <use x="95.410156" xlink:href="#DejaVuSans-53"/>
      </g>
     </g>
    </g>
    <g id="ytick_3">
     <g id="line2d_51">
      <path clip-path="url(#pe4e8ccc7f7)" d="M 57.6 167.603172 
L 414.72 167.603172 
" style="fill:none;stroke:#b0b0b0;stroke-dasharray:5.12,1.28,0.8,1.28;stroke-dashoffset:0;stroke-width:0.8;"/>
     </g>
     <g id="line2d_52">
      <g>
       <use style="stroke:#000000;stroke-width:0.8;" x="57.6" xlink:href="#m06427c2e5b" y="167.603172"/>
      </g>
     </g>
     <g id="text_27">
      <!-- 2.0 -->
      <g transform="translate(34.696875 171.402391)scale(0.1 -0.1)">
       <use xlink:href="#DejaVuSans-50"/>
       <use x="63.623047" xlink:href="#DejaVuSans-46"/>
       <use x="95.410156" xlink:href="#DejaVuSans-48"/>
      </g>
     </g>
    </g>
    <g id="ytick_4">
     <g id="line2d_53">
      <path clip-path="url(#pe4e8ccc7f7)" d="M 57.6 114.819095 
L 414.72 114.819095 
" style="fill:none;stroke:#b0b0b0;stroke-dasharray:5.12,1.28,0.8,1.28;stroke-dashoffset:0;stroke-width:0.8;"/>
     </g>
     <g id="line2d_54">
      <g>
       <use style="stroke:#000000;stroke-width:0.8;" x="57.6" xlink:href="#m06427c2e5b" y="114.819095"/>
      </g>
     </g>
     <g id="text_28">
      <!-- 2.5 -->
      <g transform="translate(34.696875 118.618314)scale(0.1 -0.1)">
       <use xlink:href="#DejaVuSans-50"/>
       <use x="63.623047" xlink:href="#DejaVuSans-46"/>
       <use x="95.410156" xlink:href="#DejaVuSans-53"/>
      </g>
     </g>
    </g>
    <g id="ytick_5">
     <g id="line2d_55">
      <path clip-path="url(#pe4e8ccc7f7)" d="M 57.6 62.035018 
L 414.72 62.035018 
" style="fill:none;stroke:#b0b0b0;stroke-dasharray:5.12,1.28,0.8,1.28;stroke-dashoffset:0;stroke-width:0.8;"/>
     </g>
     <g id="line2d_56">
      <g>
       <use style="stroke:#000000;stroke-width:0.8;" x="57.6" xlink:href="#m06427c2e5b" y="62.035018"/>
      </g>
     </g>
     <g id="text_29">
      <!-- 3.0 -->
      <g transform="translate(34.696875 65.834237)scale(0.1 -0.1)">
       <use xlink:href="#DejaVuSans-51"/>
       <use x="63.623047" xlink:href="#DejaVuSans-46"/>
       <use x="95.410156" xlink:href="#DejaVuSans-48"/>
      </g>
     </g>
    </g>
    <g id="text_30">
     <!-- speed up -->
     <defs>
      <path d="M 18.109375 8.203125 
L 18.109375 -20.796875 
L 9.078125 -20.796875 
L 9.078125 54.6875 
L 18.109375 54.6875 
L 18.109375 46.390625 
Q 20.953125 51.265625 25.265625 53.625 
Q 29.59375 56 35.59375 56 
Q 45.5625 56 51.78125 48.09375 
Q 58.015625 40.1875 58.015625 27.296875 
Q 58.015625 14.40625 51.78125 6.484375 
Q 45.5625 -1.421875 35.59375 -1.421875 
Q 29.59375 -1.421875 25.265625 0.953125 
Q 20.953125 3.328125 18.109375 8.203125 
z
M 48.6875 27.296875 
Q 48.6875 37.203125 44.609375 42.84375 
Q 40.53125 48.484375 33.40625 48.484375 
Q 26.265625 48.484375 22.1875 42.84375 
Q 18.109375 37.203125 18.109375 27.296875 
Q 18.109375 17.390625 22.1875 11.75 
Q 26.265625 6.109375 33.40625 6.109375 
Q 40.53125 6.109375 44.609375 11.75 
Q 48.6875 17.390625 48.6875 27.296875 
z
" id="DejaVuSans-112"/>
      <path id="DejaVuSans-32"/>
      <path d="M 8.5 21.578125 
L 8.5 54.6875 
L 17.484375 54.6875 
L 17.484375 21.921875 
Q 17.484375 14.15625 20.5 10.265625 
Q 23.53125 6.390625 29.59375 6.390625 
Q 36.859375 6.390625 41.078125 11.03125 
Q 45.3125 15.671875 45.3125 23.6875 
L 45.3125 54.6875 
L 54.296875 54.6875 
L 54.296875 0 
L 45.3125 0 
L 45.3125 8.40625 
Q 42.046875 3.421875 37.71875 1 
Q 33.40625 -1.421875 27.6875 -1.421875 
Q 18.265625 -1.421875 13.375 4.4375 
Q 8.5 10.296875 8.5 21.578125 
z
M 31.109375 56 
z
" id="DejaVuSans-117"/>
     </defs>
     <g transform="translate(28.617187 197.566281)rotate(-90)scale(0.1 -0.1)">
      <use xlink:href="#DejaVuSans-115"/>
      <use x="52.099609" xlink:href="#DejaVuSans-112"/>
      <use x="115.576172" xlink:href="#DejaVuSans-101"/>
      <use x="177.099609" xlink:href="#DejaVuSans-101"/>
      <use x="238.623047" xlink:href="#DejaVuSans-100"/>
      <use x="302.099609" xlink:href="#DejaVuSans-32"/>
      <use x="333.886719" xlink:href="#DejaVuSans-117"/>
      <use x="397.265625" xlink:href="#DejaVuSans-112"/>
     </g>
    </g>
   </g>
   <g id="line2d_57">
    <path clip-path="url(#pe4e8ccc7f7)" d="M 61.612584 280.074321 
L 65.625169 242.024337 
L 69.637753 211.215244 
L 73.650337 175.674906 
L 77.662921 153.671922 
L 81.675506 140.658271 
L 85.68809 126.264617 
L 89.700674 112.312514 
L 93.713258 100.550055 
L 97.725843 100.807255 
L 101.738427 93.308709 
L 105.751011 73.896444 
L 109.763596 63.267169 
L 113.77618 63.138514 
L 117.788764 57.539202 
L 121.801348 56.31267 
L 125.813933 58.031094 
L 129.826517 64.226938 
L 133.839101 67.432695 
L 137.851685 60.150039 
L 141.86427 69.002922 
L 145.876854 61.148593 
L 149.889438 63.82801 
L 153.902022 62.985643 
L 157.914607 53.568 
L 161.927191 58.310866 
L 165.939775 57.625922 
L 169.95236 57.575535 
L 173.964944 58.02142 
L 177.977528 71.244079 
L 181.990112 70.121552 
L 186.002697 86.094825 
L 190.015281 75.514029 
L 194.027865 70.632527 
L 198.040449 70.62851 
L 202.053034 75.542021 
L 206.065618 74.997055 
L 210.078202 80.159819 
L 214.090787 86.243485 
L 218.103371 89.020607 
L 222.115955 90.891712 
L 226.128539 88.988809 
L 230.141124 86.767447 
L 234.153708 88.981896 
L 238.166292 86.873714 
L 242.178876 88.257347 
L 246.191461 84.623536 
L 250.204045 85.619077 
L 254.216629 82.852799 
L 258.229213 83.040721 
L 262.241798 86.297773 
L 266.254382 85.381508 
L 270.266966 84.866827 
L 274.279551 85.374914 
L 278.292135 84.963058 
L 282.304719 85.880366 
L 286.317303 92.025096 
L 290.329888 83.68633 
L 294.342472 97.986623 
L 298.355056 88.203736 
L 302.36764 85.689531 
L 306.380225 84.539355 
L 310.392809 88.653192 
L 314.405393 87.918654 
L 318.417978 102.151214 
L 322.430562 92.633911 
L 326.443146 100.851768 
L 330.45573 87.602702 
L 334.468315 105.555389 
L 338.480899 103.466859 
L 342.493483 115.562851 
L 346.506067 96.147422 
L 350.518652 99.86971 
L 354.531236 96.896883 
L 358.54382 101.516571 
L 362.556404 95.586997 
L 366.568989 94.990007 
L 370.581573 102.766325 
L 374.594157 99.753251 
L 378.606742 106.028214 
L 382.619326 104.438223 
L 386.63191 97.468131 
L 390.644494 96.410112 
L 394.657079 92.391924 
L 398.669663 109.416042 
L 402.682247 104.628456 
L 406.694831 97.479665 
L 410.707416 100.884261 
" style="fill:none;stroke:#0000ff;stroke-dasharray:1.5,2.475;stroke-dashoffset:0;stroke-width:1.5;"/>
    <defs>
     <path d="M 0 1.5 
C 0.397805 1.5 0.77937 1.341951 1.06066 1.06066 
C 1.341951 0.77937 1.5 0.397805 1.5 0 
C 1.5 -0.397805 1.341951 -0.77937 1.06066 -1.06066 
C 0.77937 -1.341951 0.397805 -1.5 0 -1.5 
C -0.397805 -1.5 -0.77937 -1.341951 -1.06066 -1.06066 
C -1.341951 -0.77937 -1.5 -0.397805 -1.5 0 
C -1.5 0.397805 -1.341951 0.77937 -1.06066 1.06066 
C -0.77937 1.341951 -0.397805 1.5 0 1.5 
z
" id="m24c21281f6" style="stroke:#0000ff;"/>
    </defs>
    <g clip-path="url(#pe4e8ccc7f7)">
     <use style="fill:#0000ff;stroke:#0000ff;" x="61.612584" xlink:href="#m24c21281f6" y="280.074321"/>
     <use style="fill:#0000ff;stroke:#0000ff;" x="65.625169" xlink:href="#m24c21281f6" y="242.024337"/>
     <use style="fill:#0000ff;stroke:#0000ff;" x="69.637753" xlink:href="#m24c21281f6" y="211.215244"/>
     <use style="fill:#0000ff;stroke:#0000ff;" x="73.650337" xlink:href="#m24c21281f6" y="175.674906"/>
     <use style="fill:#0000ff;stroke:#0000ff;" x="77.662921" xlink:href="#m24c21281f6" y="153.671922"/>
     <use style="fill:#0000ff;stroke:#0000ff;" x="81.675506" xlink:href="#m24c21281f6" y="140.658271"/>
     <use style="fill:#0000ff;stroke:#0000ff;" x="85.68809" xlink:href="#m24c21281f6" y="126.264617"/>
     <use style="fill:#0000ff;stroke:#0000ff;" x="89.700674" xlink:href="#m24c21281f6" y="112.312514"/>
     <use style="fill:#0000ff;stroke:#0000ff;" x="93.713258" xlink:href="#m24c21281f6" y="100.550055"/>
     <use style="fill:#0000ff;stroke:#0000ff;" x="97.725843" xlink:href="#m24c21281f6" y="100.807255"/>
     <use style="fill:#0000ff;stroke:#0000ff;" x="101.738427" xlink:href="#m24c21281f6" y="93.308709"/>
     <use style="fill:#0000ff;stroke:#0000ff;" x="105.751011" xlink:href="#m24c21281f6" y="73.896444"/>
     <use style="fill:#0000ff;stroke:#0000ff;" x="109.763596" xlink:href="#m24c21281f6" y="63.267169"/>
     <use style="fill:#0000ff;stroke:#0000ff;" x="113.77618" xlink:href="#m24c21281f6" y="63.138514"/>
     <use style="fill:#0000ff;stroke:#0000ff;" x="117.788764" xlink:href="#m24c21281f6" y="57.539202"/>
     <use style="fill:#0000ff;stroke:#0000ff;" x="121.801348" xlink:href="#m24c21281f6" y="56.31267"/>
     <use style="fill:#0000ff;stroke:#0000ff;" x="125.813933" xlink:href="#m24c21281f6" y="58.031094"/>
     <use style="fill:#0000ff;stroke:#0000ff;" x="129.826517" xlink:href="#m24c21281f6" y="64.226938"/>
     <use style="fill:#0000ff;stroke:#0000ff;" x="133.839101" xlink:href="#m24c21281f6" y="67.432695"/>
     <use style="fill:#0000ff;stroke:#0000ff;" x="137.851685" xlink:href="#m24c21281f6" y="60.150039"/>
     <use style="fill:#0000ff;stroke:#0000ff;" x="141.86427" xlink:href="#m24c21281f6" y="69.002922"/>
     <use style="fill:#0000ff;stroke:#0000ff;" x="145.876854" xlink:href="#m24c21281f6" y="61.148593"/>
     <use style="fill:#0000ff;stroke:#0000ff;" x="149.889438" xlink:href="#m24c21281f6" y="63.82801"/>
     <use style="fill:#0000ff;stroke:#0000ff;" x="153.902022" xlink:href="#m24c21281f6" y="62.985643"/>
     <use style="fill:#0000ff;stroke:#0000ff;" x="157.914607" xlink:href="#m24c21281f6" y="53.568"/>
     <use style="fill:#0000ff;stroke:#0000ff;" x="161.927191" xlink:href="#m24c21281f6" y="58.310866"/>
     <use style="fill:#0000ff;stroke:#0000ff;" x="165.939775" xlink:href="#m24c21281f6" y="57.625922"/>
     <use style="fill:#0000ff;stroke:#0000ff;" x="169.95236" xlink:href="#m24c21281f6" y="57.575535"/>
     <use style="fill:#0000ff;stroke:#0000ff;" x="173.964944" xlink:href="#m24c21281f6" y="58.02142"/>
     <use style="fill:#0000ff;stroke:#0000ff;" x="177.977528" xlink:href="#m24c21281f6" y="71.244079"/>
     <use style="fill:#0000ff;stroke:#0000ff;" x="181.990112" xlink:href="#m24c21281f6" y="70.121552"/>
     <use style="fill:#0000ff;stroke:#0000ff;" x="186.002697" xlink:href="#m24c21281f6" y="86.094825"/>
     <use style="fill:#0000ff;stroke:#0000ff;" x="190.015281" xlink:href="#m24c21281f6" y="75.514029"/>
     <use style="fill:#0000ff;stroke:#0000ff;" x="194.027865" xlink:href="#m24c21281f6" y="70.632527"/>
     <use style="fill:#0000ff;stroke:#0000ff;" x="198.040449" xlink:href="#m24c21281f6" y="70.62851"/>
     <use style="fill:#0000ff;stroke:#0000ff;" x="202.053034" xlink:href="#m24c21281f6" y="75.542021"/>
     <use style="fill:#0000ff;stroke:#0000ff;" x="206.065618" xlink:href="#m24c21281f6" y="74.997055"/>
     <use style="fill:#0000ff;stroke:#0000ff;" x="210.078202" xlink:href="#m24c21281f6" y="80.159819"/>
     <use style="fill:#0000ff;stroke:#0000ff;" x="214.090787" xlink:href="#m24c21281f6" y="86.243485"/>
     <use style="fill:#0000ff;stroke:#0000ff;" x="218.103371" xlink:href="#m24c21281f6" y="89.020607"/>
     <use style="fill:#0000ff;stroke:#0000ff;" x="222.115955" xlink:href="#m24c21281f6" y="90.891712"/>
     <use style="fill:#0000ff;stroke:#0000ff;" x="226.128539" xlink:href="#m24c21281f6" y="88.988809"/>
     <use style="fill:#0000ff;stroke:#0000ff;" x="230.141124" xlink:href="#m24c21281f6" y="86.767447"/>
     <use style="fill:#0000ff;stroke:#0000ff;" x="234.153708" xlink:href="#m24c21281f6" y="88.981896"/>
     <use style="fill:#0000ff;stroke:#0000ff;" x="238.166292" xlink:href="#m24c21281f6" y="86.873714"/>
     <use style="fill:#0000ff;stroke:#0000ff;" x="242.178876" xlink:href="#m24c21281f6" y="88.257347"/>
     <use style="fill:#0000ff;stroke:#0000ff;" x="246.191461" xlink:href="#m24c21281f6" y="84.623536"/>
     <use style="fill:#0000ff;stroke:#0000ff;" x="250.204045" xlink:href="#m24c21281f6" y="85.619077"/>
     <use style="fill:#0000ff;stroke:#0000ff;" x="254.216629" xlink:href="#m24c21281f6" y="82.852799"/>
     <use style="fill:#0000ff;stroke:#0000ff;" x="258.229213" xlink:href="#m24c21281f6" y="83.040721"/>
     <use style="fill:#0000ff;stroke:#0000ff;" x="262.241798" xlink:href="#m24c21281f6" y="86.297773"/>
     <use style="fill:#0000ff;stroke:#0000ff;" x="266.254382" xlink:href="#m24c21281f6" y="85.381508"/>
     <use style="fill:#0000ff;stroke:#0000ff;" x="270.266966" xlink:href="#m24c21281f6" y="84.866827"/>
     <use style="fill:#0000ff;stroke:#0000ff;" x="274.279551" xlink:href="#m24c21281f6" y="85.374914"/>
     <use style="fill:#0000ff;stroke:#0000ff;" x="278.292135" xlink:href="#m24c21281f6" y="84.963058"/>
     <use style="fill:#0000ff;stroke:#0000ff;" x="282.304719" xlink:href="#m24c21281f6" y="85.880366"/>
     <use style="fill:#0000ff;stroke:#0000ff;" x="286.317303" xlink:href="#m24c21281f6" y="92.025096"/>
     <use style="fill:#0000ff;stroke:#0000ff;" x="290.329888" xlink:href="#m24c21281f6" y="83.68633"/>
     <use style="fill:#0000ff;stroke:#0000ff;" x="294.342472" xlink:href="#m24c21281f6" y="97.986623"/>
     <use style="fill:#0000ff;stroke:#0000ff;" x="298.355056" xlink:href="#m24c21281f6" y="88.203736"/>
     <use style="fill:#0000ff;stroke:#0000ff;" x="302.36764" xlink:href="#m24c21281f6" y="85.689531"/>
     <use style="fill:#0000ff;stroke:#0000ff;" x="306.380225" xlink:href="#m24c21281f6" y="84.539355"/>
     <use style="fill:#0000ff;stroke:#0000ff;" x="310.392809" xlink:href="#m24c21281f6" y="88.653192"/>
     <use style="fill:#0000ff;stroke:#0000ff;" x="314.405393" xlink:href="#m24c21281f6" y="87.918654"/>
     <use style="fill:#0000ff;stroke:#0000ff;" x="318.417978" xlink:href="#m24c21281f6" y="102.151214"/>
     <use style="fill:#0000ff;stroke:#0000ff;" x="322.430562" xlink:href="#m24c21281f6" y="92.633911"/>
     <use style="fill:#0000ff;stroke:#0000ff;" x="326.443146" xlink:href="#m24c21281f6" y="100.851768"/>
     <use style="fill:#0000ff;stroke:#0000ff;" x="330.45573" xlink:href="#m24c21281f6" y="87.602702"/>
     <use style="fill:#0000ff;stroke:#0000ff;" x="334.468315" xlink:href="#m24c21281f6" y="105.555389"/>
     <use style="fill:#0000ff;stroke:#0000ff;" x="338.480899" xlink:href="#m24c21281f6" y="103.466859"/>
     <use style="fill:#0000ff;stroke:#0000ff;" x="342.493483" xlink:href="#m24c21281f6" y="115.562851"/>
     <use style="fill:#0000ff;stroke:#0000ff;" x="346.506067" xlink:href="#m24c21281f6" y="96.147422"/>
     <use style="fill:#0000ff;stroke:#0000ff;" x="350.518652" xlink:href="#m24c21281f6" y="99.86971"/>
     <use style="fill:#0000ff;stroke:#0000ff;" x="354.531236" xlink:href="#m24c21281f6" y="96.896883"/>
     <use style="fill:#0000ff;stroke:#0000ff;" x="358.54382" xlink:href="#m24c21281f6" y="101.516571"/>
     <use style="fill:#0000ff;stroke:#0000ff;" x="362.556404" xlink:href="#m24c21281f6" y="95.586997"/>
     <use style="fill:#0000ff;stroke:#0000ff;" x="366.568989" xlink:href="#m24c21281f6" y="94.990007"/>
     <use style="fill:#0000ff;stroke:#0000ff;" x="370.581573" xlink:href="#m24c21281f6" y="102.766325"/>
     <use style="fill:#0000ff;stroke:#0000ff;" x="374.594157" xlink:href="#m24c21281f6" y="99.753251"/>
     <use style="fill:#0000ff;stroke:#0000ff;" x="378.606742" xlink:href="#m24c21281f6" y="106.028214"/>
     <use style="fill:#0000ff;stroke:#0000ff;" x="382.619326" xlink:href="#m24c21281f6" y="104.438223"/>
     <use style="fill:#0000ff;stroke:#0000ff;" x="386.63191" xlink:href="#m24c21281f6" y="97.468131"/>
     <use style="fill:#0000ff;stroke:#0000ff;" x="390.644494" xlink:href="#m24c21281f6" y="96.410112"/>
     <use style="fill:#0000ff;stroke:#0000ff;" x="394.657079" xlink:href="#m24c21281f6" y="92.391924"/>
     <use style="fill:#0000ff;stroke:#0000ff;" x="398.669663" xlink:href="#m24c21281f6" y="109.416042"/>
     <use style="fill:#0000ff;stroke:#0000ff;" x="402.682247" xlink:href="#m24c21281f6" y="104.628456"/>
     <use style="fill:#0000ff;stroke:#0000ff;" x="406.694831" xlink:href="#m24c21281f6" y="97.479665"/>
     <use style="fill:#0000ff;stroke:#0000ff;" x="410.707416" xlink:href="#m24c21281f6" y="100.884261"/>
    </g>
   </g>
   <g id="line2d_58">
    <path clip-path="url(#pe4e8ccc7f7)" d="M 61.612584 295.488 
L 65.625169 269.757811 
L 69.637753 248.541154 
L 73.650337 233.401472 
L 77.662921 224.655745 
L 81.675506 218.748188 
L 85.68809 215.817407 
L 89.700674 214.671695 
L 93.713258 214.91633 
L 97.725843 215.419 
L 101.738427 216.830148 
L 105.751011 218.385558 
L 109.763596 220.481169 
L 113.77618 223.648029 
L 117.788764 226.065841 
L 121.801348 227.062953 
L 125.813933 230.438192 
L 129.826517 234.249507 
L 133.839101 236.04516 
L 137.851685 239.04862 
L 141.86427 241.090144 
L 145.876854 243.761182 
L 149.889438 245.592249 
L 153.902022 248.704387 
L 157.914607 249.341394 
L 161.927191 251.810241 
L 165.939775 253.724051 
L 169.95236 255.651071 
L 173.964944 257.615202 
L 177.977528 260.433119 
L 181.990112 262.988727 
L 186.002697 265.357652 
L 190.015281 265.233912 
L 194.027865 267.795526 
L 198.040449 268.371368 
L 202.053034 270.119414 
L 206.065618 270.477759 
L 210.078202 274.041343 
L 214.090787 276.437813 
L 218.103371 276.587034 
L 222.115955 278.618139 
L 226.128539 279.58437 
L 230.141124 280.332982 
L 234.153708 281.818874 
L 238.166292 281.01847 
L 242.178876 281.896503 
L 246.191461 280.797485 
L 250.204045 280.90688 
L 254.216629 280.696635 
L 258.229213 280.611371 
L 262.241798 281.618632 
L 266.254382 280.652118 
L 270.266966 280.724938 
L 274.279551 280.513979 
L 278.292135 281.574498 
L 282.304719 281.559059 
L 286.317303 281.785031 
L 290.329888 282.202874 
L 294.342472 283.534907 
L 298.355056 283.17605 
L 302.36764 281.213595 
L 306.380225 281.355366 
L 310.392809 281.59577 
L 314.405393 281.705426 
L 318.417978 283.67755 
L 322.430562 282.014952 
L 326.443146 284.136483 
L 330.45573 284.684637 
L 334.468315 284.418177 
L 338.480899 285.544798 
L 342.493483 284.971955 
L 346.506067 282.927128 
L 350.518652 282.922446 
L 354.531236 283.173988 
L 358.54382 283.370701 
L 362.556404 285.138685 
L 366.568989 284.763956 
L 370.581573 284.804036 
L 374.594157 284.399042 
L 378.606742 284.695825 
L 382.619326 284.580372 
L 386.63191 284.478975 
L 390.644494 283.228822 
L 394.657079 283.999927 
L 398.669663 285.935444 
L 402.682247 284.789171 
L 406.694831 284.737323 
L 410.707416 283.625133 
" style="fill:none;stroke:#ff0000;stroke-dasharray:1.5,2.475;stroke-dashoffset:0;stroke-width:1.5;"/>
    <defs>
     <path d="M 0 1.5 
C 0.397805 1.5 0.77937 1.341951 1.06066 1.06066 
C 1.341951 0.77937 1.5 0.397805 1.5 0 
C 1.5 -0.397805 1.341951 -0.77937 1.06066 -1.06066 
C 0.77937 -1.341951 0.397805 -1.5 0 -1.5 
C -0.397805 -1.5 -0.77937 -1.341951 -1.06066 -1.06066 
C -1.341951 -0.77937 -1.5 -0.397805 -1.5 0 
C -1.5 0.397805 -1.341951 0.77937 -1.06066 1.06066 
C -0.77937 1.341951 -0.397805 1.5 0 1.5 
z
" id="m9297524644" style="stroke:#ff0000;"/>
    </defs>
    <g clip-path="url(#pe4e8ccc7f7)">
     <use style="fill:#ff0000;stroke:#ff0000;" x="61.612584" xlink:href="#m9297524644" y="295.488"/>
     <use style="fill:#ff0000;stroke:#ff0000;" x="65.625169" xlink:href="#m9297524644" y="269.757811"/>
     <use style="fill:#ff0000;stroke:#ff0000;" x="69.637753" xlink:href="#m9297524644" y="248.541154"/>
     <use style="fill:#ff0000;stroke:#ff0000;" x="73.650337" xlink:href="#m9297524644" y="233.401472"/>
     <use style="fill:#ff0000;stroke:#ff0000;" x="77.662921" xlink:href="#m9297524644" y="224.655745"/>
     <use style="fill:#ff0000;stroke:#ff0000;" x="81.675506" xlink:href="#m9297524644" y="218.748188"/>
     <use style="fill:#ff0000;stroke:#ff0000;" x="85.68809" xlink:href="#m9297524644" y="215.817407"/>
     <use style="fill:#ff0000;stroke:#ff0000;" x="89.700674" xlink:href="#m9297524644" y="214.671695"/>
     <use style="fill:#ff0000;stroke:#ff0000;" x="93.713258" xlink:href="#m9297524644" y="214.91633"/>
     <use style="fill:#ff0000;stroke:#ff0000;" x="97.725843" xlink:href="#m9297524644" y="215.419"/>
     <use style="fill:#ff0000;stroke:#ff0000;" x="101.738427" xlink:href="#m9297524644" y="216.830148"/>
     <use style="fill:#ff0000;stroke:#ff0000;" x="105.751011" xlink:href="#m9297524644" y="218.385558"/>
     <use style="fill:#ff0000;stroke:#ff0000;" x="109.763596" xlink:href="#m9297524644" y="220.481169"/>
     <use style="fill:#ff0000;stroke:#ff0000;" x="113.77618" xlink:href="#m9297524644" y="223.648029"/>
     <use style="fill:#ff0000;stroke:#ff0000;" x="117.788764" xlink:href="#m9297524644" y="226.065841"/>
     <use style="fill:#ff0000;stroke:#ff0000;" x="121.801348" xlink:href="#m9297524644" y="227.062953"/>
     <use style="fill:#ff0000;stroke:#ff0000;" x="125.813933" xlink:href="#m9297524644" y="230.438192"/>
     <use style="fill:#ff0000;stroke:#ff0000;" x="129.826517" xlink:href="#m9297524644" y="234.249507"/>
     <use style="fill:#ff0000;stroke:#ff0000;" x="133.839101" xlink:href="#m9297524644" y="236.04516"/>
     <use style="fill:#ff0000;stroke:#ff0000;" x="137.851685" xlink:href="#m9297524644" y="239.04862"/>
     <use style="fill:#ff0000;stroke:#ff0000;" x="141.86427" xlink:href="#m9297524644" y="241.090144"/>
     <use style="fill:#ff0000;stroke:#ff0000;" x="145.876854" xlink:href="#m9297524644" y="243.761182"/>
     <use style="fill:#ff0000;stroke:#ff0000;" x="149.889438" xlink:href="#m9297524644" y="245.592249"/>
     <use style="fill:#ff0000;stroke:#ff0000;" x="153.902022" xlink:href="#m9297524644" y="248.704387"/>
     <use style="fill:#ff0000;stroke:#ff0000;" x="157.914607" xlink:href="#m9297524644" y="249.341394"/>
     <use style="fill:#ff0000;stroke:#ff0000;" x="161.927191" xlink:href="#m9297524644" y="251.810241"/>
     <use style="fill:#ff0000;stroke:#ff0000;" x="165.939775" xlink:href="#m9297524644" y="253.724051"/>
     <use style="fill:#ff0000;stroke:#ff0000;" x="169.95236" xlink:href="#m9297524644" y="255.651071"/>
     <use style="fill:#ff0000;stroke:#ff0000;" x="173.964944" xlink:href="#m9297524644" y="257.615202"/>
     <use style="fill:#ff0000;stroke:#ff0000;" x="177.977528" xlink:href="#m9297524644" y="260.433119"/>
     <use style="fill:#ff0000;stroke:#ff0000;" x="181.990112" xlink:href="#m9297524644" y="262.988727"/>
     <use style="fill:#ff0000;stroke:#ff0000;" x="186.002697" xlink:href="#m9297524644" y="265.357652"/>
     <use style="fill:#ff0000;stroke:#ff0000;" x="190.015281" xlink:href="#m9297524644" y="265.233912"/>
     <use style="fill:#ff0000;stroke:#ff0000;" x="194.027865" xlink:href="#m9297524644" y="267.795526"/>
     <use style="fill:#ff0000;stroke:#ff0000;" x="198.040449" xlink:href="#m9297524644" y="268.371368"/>
     <use style="fill:#ff0000;stroke:#ff0000;" x="202.053034" xlink:href="#m9297524644" y="270.119414"/>
     <use style="fill:#ff0000;stroke:#ff0000;" x="206.065618" xlink:href="#m9297524644" y="270.477759"/>
     <use style="fill:#ff0000;stroke:#ff0000;" x="210.078202" xlink:href="#m9297524644" y="274.041343"/>
     <use style="fill:#ff0000;stroke:#ff0000;" x="214.090787" xlink:href="#m9297524644" y="276.437813"/>
     <use style="fill:#ff0000;stroke:#ff0000;" x="218.103371" xlink:href="#m9297524644" y="276.587034"/>
     <use style="fill:#ff0000;stroke:#ff0000;" x="222.115955" xlink:href="#m9297524644" y="278.618139"/>
     <use style="fill:#ff0000;stroke:#ff0000;" x="226.128539" xlink:href="#m9297524644" y="279.58437"/>
     <use style="fill:#ff0000;stroke:#ff0000;" x="230.141124" xlink:href="#m9297524644" y="280.332982"/>
     <use style="fill:#ff0000;stroke:#ff0000;" x="234.153708" xlink:href="#m9297524644" y="281.818874"/>
     <use style="fill:#ff0000;stroke:#ff0000;" x="238.166292" xlink:href="#m9297524644" y="281.01847"/>
     <use style="fill:#ff0000;stroke:#ff0000;" x="242.178876" xlink:href="#m9297524644" y="281.896503"/>
     <use style="fill:#ff0000;stroke:#ff0000;" x="246.191461" xlink:href="#m9297524644" y="280.797485"/>
     <use style="fill:#ff0000;stroke:#ff0000;" x="250.204045" xlink:href="#m9297524644" y="280.90688"/>
     <use style="fill:#ff0000;stroke:#ff0000;" x="254.216629" xlink:href="#m9297524644" y="280.696635"/>
     <use style="fill:#ff0000;stroke:#ff0000;" x="258.229213" xlink:href="#m9297524644" y="280.611371"/>
     <use style="fill:#ff0000;stroke:#ff0000;" x="262.241798" xlink:href="#m9297524644" y="281.618632"/>
     <use style="fill:#ff0000;stroke:#ff0000;" x="266.254382" xlink:href="#m9297524644" y="280.652118"/>
     <use style="fill:#ff0000;stroke:#ff0000;" x="270.266966" xlink:href="#m9297524644" y="280.724938"/>
     <use style="fill:#ff0000;stroke:#ff0000;" x="274.279551" xlink:href="#m9297524644" y="280.513979"/>
     <use style="fill:#ff0000;stroke:#ff0000;" x="278.292135" xlink:href="#m9297524644" y="281.574498"/>
     <use style="fill:#ff0000;stroke:#ff0000;" x="282.304719" xlink:href="#m9297524644" y="281.559059"/>
     <use style="fill:#ff0000;stroke:#ff0000;" x="286.317303" xlink:href="#m9297524644" y="281.785031"/>
     <use style="fill:#ff0000;stroke:#ff0000;" x="290.329888" xlink:href="#m9297524644" y="282.202874"/>
     <use style="fill:#ff0000;stroke:#ff0000;" x="294.342472" xlink:href="#m9297524644" y="283.534907"/>
     <use style="fill:#ff0000;stroke:#ff0000;" x="298.355056" xlink:href="#m9297524644" y="283.17605"/>
     <use style="fill:#ff0000;stroke:#ff0000;" x="302.36764" xlink:href="#m9297524644" y="281.213595"/>
     <use style="fill:#ff0000;stroke:#ff0000;" x="306.380225" xlink:href="#m9297524644" y="281.355366"/>
     <use style="fill:#ff0000;stroke:#ff0000;" x="310.392809" xlink:href="#m9297524644" y="281.59577"/>
     <use style="fill:#ff0000;stroke:#ff0000;" x="314.405393" xlink:href="#m9297524644" y="281.705426"/>
     <use style="fill:#ff0000;stroke:#ff0000;" x="318.417978" xlink:href="#m9297524644" y="283.67755"/>
     <use style="fill:#ff0000;stroke:#ff0000;" x="322.430562" xlink:href="#m9297524644" y="282.014952"/>
     <use style="fill:#ff0000;stroke:#ff0000;" x="326.443146" xlink:href="#m9297524644" y="284.136483"/>
     <use style="fill:#ff0000;stroke:#ff0000;" x="330.45573" xlink:href="#m9297524644" y="284.684637"/>
     <use style="fill:#ff0000;stroke:#ff0000;" x="334.468315" xlink:href="#m9297524644" y="284.418177"/>
     <use style="fill:#ff0000;stroke:#ff0000;" x="338.480899" xlink:href="#m9297524644" y="285.544798"/>
     <use style="fill:#ff0000;stroke:#ff0000;" x="342.493483" xlink:href="#m9297524644" y="284.971955"/>
     <use style="fill:#ff0000;stroke:#ff0000;" x="346.506067" xlink:href="#m9297524644" y="282.927128"/>
     <use style="fill:#ff0000;stroke:#ff0000;" x="350.518652" xlink:href="#m9297524644" y="282.922446"/>
     <use style="fill:#ff0000;stroke:#ff0000;" x="354.531236" xlink:href="#m9297524644" y="283.173988"/>
     <use style="fill:#ff0000;stroke:#ff0000;" x="358.54382" xlink:href="#m9297524644" y="283.370701"/>
     <use style="fill:#ff0000;stroke:#ff0000;" x="362.556404" xlink:href="#m9297524644" y="285.138685"/>
     <use style="fill:#ff0000;stroke:#ff0000;" x="366.568989" xlink:href="#m9297524644" y="284.763956"/>
     <use style="fill:#ff0000;stroke:#ff0000;" x="370.581573" xlink:href="#m9297524644" y="284.804036"/>
     <use style="fill:#ff0000;stroke:#ff0000;" x="374.594157" xlink:href="#m9297524644" y="284.399042"/>
     <use style="fill:#ff0000;stroke:#ff0000;" x="378.606742" xlink:href="#m9297524644" y="284.695825"/>
     <use style="fill:#ff0000;stroke:#ff0000;" x="382.619326" xlink:href="#m9297524644" y="284.580372"/>
     <use style="fill:#ff0000;stroke:#ff0000;" x="386.63191" xlink:href="#m9297524644" y="284.478975"/>
     <use style="fill:#ff0000;stroke:#ff0000;" x="390.644494" xlink:href="#m9297524644" y="283.228822"/>
     <use style="fill:#ff0000;stroke:#ff0000;" x="394.657079" xlink:href="#m9297524644" y="283.999927"/>
     <use style="fill:#ff0000;stroke:#ff0000;" x="398.669663" xlink:href="#m9297524644" y="285.935444"/>
     <use style="fill:#ff0000;stroke:#ff0000;" x="402.682247" xlink:href="#m9297524644" y="284.789171"/>
     <use style="fill:#ff0000;stroke:#ff0000;" x="406.694831" xlink:href="#m9297524644" y="284.737323"/>
     <use style="fill:#ff0000;stroke:#ff0000;" x="410.707416" xlink:href="#m9297524644" y="283.625133"/>
    </g>
   </g>
   <g id="line2d_59">
    <path clip-path="url(#pe4e8ccc7f7)" d="M 61.612584 287.781161 
L 65.625169 255.891074 
L 69.637753 229.878199 
L 73.650337 204.538189 
L 77.662921 189.163834 
L 81.675506 179.70323 
L 85.68809 171.041012 
L 89.700674 163.492105 
L 93.713258 157.733192 
L 97.725843 158.113128 
L 101.738427 155.069428 
L 105.751011 146.141001 
L 109.763596 141.874169 
L 113.77618 143.393272 
L 117.788764 141.802521 
L 121.801348 141.687811 
L 125.813933 144.234643 
L 129.826517 149.238223 
L 133.839101 151.738927 
L 137.851685 149.599329 
L 141.86427 155.046533 
L 145.876854 152.454887 
L 149.889438 154.710129 
L 153.902022 155.845015 
L 157.914607 151.454697 
L 161.927191 155.060553 
L 165.939775 155.674987 
L 169.95236 156.613303 
L 173.964944 157.818311 
L 177.977528 165.838599 
L 181.990112 166.555139 
L 186.002697 175.726239 
L 190.015281 170.373971 
L 194.027865 169.214026 
L 198.040449 169.499939 
L 202.053034 172.830717 
L 206.065618 172.737407 
L 210.078202 177.100581 
L 214.090787 181.340649 
L 218.103371 182.80382 
L 222.115955 184.754926 
L 226.128539 184.286589 
L 230.141124 183.550215 
L 234.153708 185.400385 
L 238.166292 183.946092 
L 242.178876 185.076925 
L 246.191461 182.71051 
L 250.204045 183.262978 
L 254.216629 181.774717 
L 258.229213 181.826046 
L 262.241798 183.958202 
L 266.254382 183.016813 
L 270.266966 182.795882 
L 274.279551 182.944447 
L 278.292135 183.268778 
L 282.304719 183.719712 
L 286.317303 186.905063 
L 290.329888 182.944602 
L 294.342472 190.760765 
L 298.355056 185.689893 
L 302.36764 183.451563 
L 306.380225 182.947361 
L 310.392809 185.124481 
L 314.405393 184.81204 
L 318.417978 192.914382 
L 322.430562 187.324432 
L 326.443146 192.494126 
L 330.45573 186.14367 
L 334.468315 194.986783 
L 338.480899 194.505829 
L 342.493483 200.267403 
L 346.506067 189.537275 
L 350.518652 191.396078 
L 354.531236 190.035436 
L 358.54382 192.443636 
L 362.556404 190.362841 
L 366.568989 189.876981 
L 370.581573 193.78518 
L 374.594157 192.076146 
L 378.606742 195.362019 
L 382.619326 194.509298 
L 386.63191 190.973553 
L 390.644494 189.819467 
L 394.657079 188.195926 
L 398.669663 197.675743 
L 402.682247 194.708814 
L 406.694831 191.108494 
L 410.707416 192.254697 
" style="fill:none;stroke:#008000;stroke-dasharray:1.5,2.475;stroke-dashoffset:0;stroke-width:1.5;"/>
    <defs>
     <path d="M 0 1.5 
C 0.397805 1.5 0.77937 1.341951 1.06066 1.06066 
C 1.341951 0.77937 1.5 0.397805 1.5 0 
C 1.5 -0.397805 1.341951 -0.77937 1.06066 -1.06066 
C 0.77937 -1.341951 0.397805 -1.5 0 -1.5 
C -0.397805 -1.5 -0.77937 -1.341951 -1.06066 -1.06066 
C -1.341951 -0.77937 -1.5 -0.397805 -1.5 0 
C -1.5 0.397805 -1.341951 0.77937 -1.06066 1.06066 
C -0.77937 1.341951 -0.397805 1.5 0 1.5 
z
" id="mb685e2dd20" style="stroke:#008000;"/>
    </defs>
    <g clip-path="url(#pe4e8ccc7f7)">
     <use style="fill:#008000;stroke:#008000;" x="61.612584" xlink:href="#mb685e2dd20" y="287.781161"/>
     <use style="fill:#008000;stroke:#008000;" x="65.625169" xlink:href="#mb685e2dd20" y="255.891074"/>
     <use style="fill:#008000;stroke:#008000;" x="69.637753" xlink:href="#mb685e2dd20" y="229.878199"/>
     <use style="fill:#008000;stroke:#008000;" x="73.650337" xlink:href="#mb685e2dd20" y="204.538189"/>
     <use style="fill:#008000;stroke:#008000;" x="77.662921" xlink:href="#mb685e2dd20" y="189.163834"/>
     <use style="fill:#008000;stroke:#008000;" x="81.675506" xlink:href="#mb685e2dd20" y="179.70323"/>
     <use style="fill:#008000;stroke:#008000;" x="85.68809" xlink:href="#mb685e2dd20" y="171.041012"/>
     <use style="fill:#008000;stroke:#008000;" x="89.700674" xlink:href="#mb685e2dd20" y="163.492105"/>
     <use style="fill:#008000;stroke:#008000;" x="93.713258" xlink:href="#mb685e2dd20" y="157.733192"/>
     <use style="fill:#008000;stroke:#008000;" x="97.725843" xlink:href="#mb685e2dd20" y="158.113128"/>
     <use style="fill:#008000;stroke:#008000;" x="101.738427" xlink:href="#mb685e2dd20" y="155.069428"/>
     <use style="fill:#008000;stroke:#008000;" x="105.751011" xlink:href="#mb685e2dd20" y="146.141001"/>
     <use style="fill:#008000;stroke:#008000;" x="109.763596" xlink:href="#mb685e2dd20" y="141.874169"/>
     <use style="fill:#008000;stroke:#008000;" x="113.77618" xlink:href="#mb685e2dd20" y="143.393272"/>
     <use style="fill:#008000;stroke:#008000;" x="117.788764" xlink:href="#mb685e2dd20" y="141.802521"/>
     <use style="fill:#008000;stroke:#008000;" x="121.801348" xlink:href="#mb685e2dd20" y="141.687811"/>
     <use style="fill:#008000;stroke:#008000;" x="125.813933" xlink:href="#mb685e2dd20" y="144.234643"/>
     <use style="fill:#008000;stroke:#008000;" x="129.826517" xlink:href="#mb685e2dd20" y="149.238223"/>
     <use style="fill:#008000;stroke:#008000;" x="133.839101" xlink:href="#mb685e2dd20" y="151.738927"/>
     <use style="fill:#008000;stroke:#008000;" x="137.851685" xlink:href="#mb685e2dd20" y="149.599329"/>
     <use style="fill:#008000;stroke:#008000;" x="141.86427" xlink:href="#mb685e2dd20" y="155.046533"/>
     <use style="fill:#008000;stroke:#008000;" x="145.876854" xlink:href="#mb685e2dd20" y="152.454887"/>
     <use style="fill:#008000;stroke:#008000;" x="149.889438" xlink:href="#mb685e2dd20" y="154.710129"/>
     <use style="fill:#008000;stroke:#008000;" x="153.902022" xlink:href="#mb685e2dd20" y="155.845015"/>
     <use style="fill:#008000;stroke:#008000;" x="157.914607" xlink:href="#mb685e2dd20" y="151.454697"/>
     <use style="fill:#008000;stroke:#008000;" x="161.927191" xlink:href="#mb685e2dd20" y="155.060553"/>
     <use style="fill:#008000;stroke:#008000;" x="165.939775" xlink:href="#mb685e2dd20" y="155.674987"/>
     <use style="fill:#008000;stroke:#008000;" x="169.95236" xlink:href="#mb685e2dd20" y="156.613303"/>
     <use style="fill:#008000;stroke:#008000;" x="173.964944" xlink:href="#mb685e2dd20" y="157.818311"/>
     <use style="fill:#008000;stroke:#008000;" x="177.977528" xlink:href="#mb685e2dd20" y="165.838599"/>
     <use style="fill:#008000;stroke:#008000;" x="181.990112" xlink:href="#mb685e2dd20" y="166.555139"/>
     <use style="fill:#008000;stroke:#008000;" x="186.002697" xlink:href="#mb685e2dd20" y="175.726239"/>
     <use style="fill:#008000;stroke:#008000;" x="190.015281" xlink:href="#mb685e2dd20" y="170.373971"/>
     <use style="fill:#008000;stroke:#008000;" x="194.027865" xlink:href="#mb685e2dd20" y="169.214026"/>
     <use style="fill:#008000;stroke:#008000;" x="198.040449" xlink:href="#mb685e2dd20" y="169.499939"/>
     <use style="fill:#008000;stroke:#008000;" x="202.053034" xlink:href="#mb685e2dd20" y="172.830717"/>
     <use style="fill:#008000;stroke:#008000;" x="206.065618" xlink:href="#mb685e2dd20" y="172.737407"/>
     <use style="fill:#008000;stroke:#008000;" x="210.078202" xlink:href="#mb685e2dd20" y="177.100581"/>
     <use style="fill:#008000;stroke:#008000;" x="214.090787" xlink:href="#mb685e2dd20" y="181.340649"/>
     <use style="fill:#008000;stroke:#008000;" x="218.103371" xlink:href="#mb685e2dd20" y="182.80382"/>
     <use style="fill:#008000;stroke:#008000;" x="222.115955" xlink:href="#mb685e2dd20" y="184.754926"/>
     <use style="fill:#008000;stroke:#008000;" x="226.128539" xlink:href="#mb685e2dd20" y="184.286589"/>
     <use style="fill:#008000;stroke:#008000;" x="230.141124" xlink:href="#mb685e2dd20" y="183.550215"/>
     <use style="fill:#008000;stroke:#008000;" x="234.153708" xlink:href="#mb685e2dd20" y="185.400385"/>
     <use style="fill:#008000;stroke:#008000;" x="238.166292" xlink:href="#mb685e2dd20" y="183.946092"/>
     <use style="fill:#008000;stroke:#008000;" x="242.178876" xlink:href="#mb685e2dd20" y="185.076925"/>
     <use style="fill:#008000;stroke:#008000;" x="246.191461" xlink:href="#mb685e2dd20" y="182.71051"/>
     <use style="fill:#008000;stroke:#008000;" x="250.204045" xlink:href="#mb685e2dd20" y="183.262978"/>
     <use style="fill:#008000;stroke:#008000;" x="254.216629" xlink:href="#mb685e2dd20" y="181.774717"/>
     <use style="fill:#008000;stroke:#008000;" x="258.229213" xlink:href="#mb685e2dd20" y="181.826046"/>
     <use style="fill:#008000;stroke:#008000;" x="262.241798" xlink:href="#mb685e2dd20" y="183.958202"/>
     <use style="fill:#008000;stroke:#008000;" x="266.254382" xlink:href="#mb685e2dd20" y="183.016813"/>
     <use style="fill:#008000;stroke:#008000;" x="270.266966" xlink:href="#mb685e2dd20" y="182.795882"/>
     <use style="fill:#008000;stroke:#008000;" x="274.279551" xlink:href="#mb685e2dd20" y="182.944447"/>
     <use style="fill:#008000;stroke:#008000;" x="278.292135" xlink:href="#mb685e2dd20" y="183.268778"/>
     <use style="fill:#008000;stroke:#008000;" x="282.304719" xlink:href="#mb685e2dd20" y="183.719712"/>
     <use style="fill:#008000;stroke:#008000;" x="286.317303" xlink:href="#mb685e2dd20" y="186.905063"/>
     <use style="fill:#008000;stroke:#008000;" x="290.329888" xlink:href="#mb685e2dd20" y="182.944602"/>
     <use style="fill:#008000;stroke:#008000;" x="294.342472" xlink:href="#mb685e2dd20" y="190.760765"/>
     <use style="fill:#008000;stroke:#008000;" x="298.355056" xlink:href="#mb685e2dd20" y="185.689893"/>
     <use style="fill:#008000;stroke:#008000;" x="302.36764" xlink:href="#mb685e2dd20" y="183.451563"/>
     <use style="fill:#008000;stroke:#008000;" x="306.380225" xlink:href="#mb685e2dd20" y="182.947361"/>
     <use style="fill:#008000;stroke:#008000;" x="310.392809" xlink:href="#mb685e2dd20" y="185.124481"/>
     <use style="fill:#008000;stroke:#008000;" x="314.405393" xlink:href="#mb685e2dd20" y="184.81204"/>
     <use style="fill:#008000;stroke:#008000;" x="318.417978" xlink:href="#mb685e2dd20" y="192.914382"/>
     <use style="fill:#008000;stroke:#008000;" x="322.430562" xlink:href="#mb685e2dd20" y="187.324432"/>
     <use style="fill:#008000;stroke:#008000;" x="326.443146" xlink:href="#mb685e2dd20" y="192.494126"/>
     <use style="fill:#008000;stroke:#008000;" x="330.45573" xlink:href="#mb685e2dd20" y="186.14367"/>
     <use style="fill:#008000;stroke:#008000;" x="334.468315" xlink:href="#mb685e2dd20" y="194.986783"/>
     <use style="fill:#008000;stroke:#008000;" x="338.480899" xlink:href="#mb685e2dd20" y="194.505829"/>
     <use style="fill:#008000;stroke:#008000;" x="342.493483" xlink:href="#mb685e2dd20" y="200.267403"/>
     <use style="fill:#008000;stroke:#008000;" x="346.506067" xlink:href="#mb685e2dd20" y="189.537275"/>
     <use style="fill:#008000;stroke:#008000;" x="350.518652" xlink:href="#mb685e2dd20" y="191.396078"/>
     <use style="fill:#008000;stroke:#008000;" x="354.531236" xlink:href="#mb685e2dd20" y="190.035436"/>
     <use style="fill:#008000;stroke:#008000;" x="358.54382" xlink:href="#mb685e2dd20" y="192.443636"/>
     <use style="fill:#008000;stroke:#008000;" x="362.556404" xlink:href="#mb685e2dd20" y="190.362841"/>
     <use style="fill:#008000;stroke:#008000;" x="366.568989" xlink:href="#mb685e2dd20" y="189.876981"/>
     <use style="fill:#008000;stroke:#008000;" x="370.581573" xlink:href="#mb685e2dd20" y="193.78518"/>
     <use style="fill:#008000;stroke:#008000;" x="374.594157" xlink:href="#mb685e2dd20" y="192.076146"/>
     <use style="fill:#008000;stroke:#008000;" x="378.606742" xlink:href="#mb685e2dd20" y="195.362019"/>
     <use style="fill:#008000;stroke:#008000;" x="382.619326" xlink:href="#mb685e2dd20" y="194.509298"/>
     <use style="fill:#008000;stroke:#008000;" x="386.63191" xlink:href="#mb685e2dd20" y="190.973553"/>
     <use style="fill:#008000;stroke:#008000;" x="390.644494" xlink:href="#mb685e2dd20" y="189.819467"/>
     <use style="fill:#008000;stroke:#008000;" x="394.657079" xlink:href="#mb685e2dd20" y="188.195926"/>
     <use style="fill:#008000;stroke:#008000;" x="398.669663" xlink:href="#mb685e2dd20" y="197.675743"/>
     <use style="fill:#008000;stroke:#008000;" x="402.682247" xlink:href="#mb685e2dd20" y="194.708814"/>
     <use style="fill:#008000;stroke:#008000;" x="406.694831" xlink:href="#mb685e2dd20" y="191.108494"/>
     <use style="fill:#008000;stroke:#008000;" x="410.707416" xlink:href="#mb685e2dd20" y="192.254697"/>
    </g>
   </g>
   <g id="patch_3">
    <path d="M 57.6 307.584 
L 57.6 41.472 
" style="fill:none;stroke:#000000;stroke-linecap:square;stroke-linejoin:miter;stroke-width:0.8;"/>
   </g>
   <g id="patch_4">
    <path d="M 414.72 307.584 
L 414.72 41.472 
" style="fill:none;stroke:#000000;stroke-linecap:square;stroke-linejoin:miter;stroke-width:0.8;"/>
   </g>
   <g id="patch_5">
    <path d="M 57.6 307.584 
L 414.72 307.584 
" style="fill:none;stroke:#000000;stroke-linecap:square;stroke-linejoin:miter;stroke-width:0.8;"/>
   </g>
   <g id="patch_6">
    <path d="M 57.6 41.472 
L 414.72 41.472 
" style="fill:none;stroke:#000000;stroke-linecap:square;stroke-linejoin:miter;stroke-width:0.8;"/>
   </g>
   <g id="text_31">
    <!-- MKL iomp 2PV on pre_transpose51 -->
    <defs>
     <path d="M 9.8125 72.90625 
L 24.515625 72.90625 
L 43.109375 23.296875 
L 61.8125 72.90625 
L 76.515625 72.90625 
L 76.515625 0 
L 66.890625 0 
L 66.890625 64.015625 
L 48.09375 14.015625 
L 38.1875 14.015625 
L 19.390625 64.015625 
L 19.390625 0 
L 9.8125 0 
z
" id="DejaVuSans-77"/>
     <path d="M 9.8125 72.90625 
L 19.671875 72.90625 
L 19.671875 42.09375 
L 52.390625 72.90625 
L 65.09375 72.90625 
L 28.90625 38.921875 
L 67.671875 0 
L 54.6875 0 
L 19.671875 35.109375 
L 19.671875 0 
L 9.8125 0 
z
" id="DejaVuSans-75"/>
     <path d="M 9.8125 72.90625 
L 19.671875 72.90625 
L 19.671875 8.296875 
L 55.171875 8.296875 
L 55.171875 0 
L 9.8125 0 
z
" id="DejaVuSans-76"/>
     <path d="M 9.421875 54.6875 
L 18.40625 54.6875 
L 18.40625 0 
L 9.421875 0 
z
M 9.421875 75.984375 
L 18.40625 75.984375 
L 18.40625 64.59375 
L 9.421875 64.59375 
z
" id="DejaVuSans-105"/>
     <path d="M 30.609375 48.390625 
Q 23.390625 48.390625 19.1875 42.75 
Q 14.984375 37.109375 14.984375 27.296875 
Q 14.984375 17.484375 19.15625 11.84375 
Q 23.34375 6.203125 30.609375 6.203125 
Q 37.796875 6.203125 41.984375 11.859375 
Q 46.1875 17.53125 46.1875 27.296875 
Q 46.1875 37.015625 41.984375 42.703125 
Q 37.796875 48.390625 30.609375 48.390625 
z
M 30.609375 56 
Q 42.328125 56 49.015625 48.375 
Q 55.71875 40.765625 55.71875 27.296875 
Q 55.71875 13.875 49.015625 6.21875 
Q 42.328125 -1.421875 30.609375 -1.421875 
Q 18.84375 -1.421875 12.171875 6.21875 
Q 5.515625 13.875 5.515625 27.296875 
Q 5.515625 40.765625 12.171875 48.375 
Q 18.84375 56 30.609375 56 
z
" id="DejaVuSans-111"/>
     <path d="M 52 44.1875 
Q 55.375 50.25 60.0625 53.125 
Q 64.75 56 71.09375 56 
Q 79.640625 56 84.28125 50.015625 
Q 88.921875 44.046875 88.921875 33.015625 
L 88.921875 0 
L 79.890625 0 
L 79.890625 32.71875 
Q 79.890625 40.578125 77.09375 44.375 
Q 74.3125 48.1875 68.609375 48.1875 
Q 61.625 48.1875 57.5625 43.546875 
Q 53.515625 38.921875 53.515625 30.90625 
L 53.515625 0 
L 44.484375 0 
L 44.484375 32.71875 
Q 44.484375 40.625 41.703125 44.40625 
Q 38.921875 48.1875 33.109375 48.1875 
Q 26.21875 48.1875 22.15625 43.53125 
Q 18.109375 38.875 18.109375 30.90625 
L 18.109375 0 
L 9.078125 0 
L 9.078125 54.6875 
L 18.109375 54.6875 
L 18.109375 46.1875 
Q 21.1875 51.21875 25.484375 53.609375 
Q 29.78125 56 35.6875 56 
Q 41.65625 56 45.828125 52.96875 
Q 50 49.953125 52 44.1875 
z
" id="DejaVuSans-109"/>
     <path d="M 19.671875 64.796875 
L 19.671875 37.40625 
L 32.078125 37.40625 
Q 38.96875 37.40625 42.71875 40.96875 
Q 46.484375 44.53125 46.484375 51.125 
Q 46.484375 57.671875 42.71875 61.234375 
Q 38.96875 64.796875 32.078125 64.796875 
z
M 9.8125 72.90625 
L 32.078125 72.90625 
Q 44.34375 72.90625 50.609375 67.359375 
Q 56.890625 61.8125 56.890625 51.125 
Q 56.890625 40.328125 50.609375 34.8125 
Q 44.34375 29.296875 32.078125 29.296875 
L 19.671875 29.296875 
L 19.671875 0 
L 9.8125 0 
z
" id="DejaVuSans-80"/>
     <path d="M 28.609375 0 
L 0.78125 72.90625 
L 11.078125 72.90625 
L 34.1875 11.53125 
L 57.328125 72.90625 
L 67.578125 72.90625 
L 39.796875 0 
z
" id="DejaVuSans-86"/>
     <path d="M 54.890625 33.015625 
L 54.890625 0 
L 45.90625 0 
L 45.90625 32.71875 
Q 45.90625 40.484375 42.875 44.328125 
Q 39.84375 48.1875 33.796875 48.1875 
Q 26.515625 48.1875 22.3125 43.546875 
Q 18.109375 38.921875 18.109375 30.90625 
L 18.109375 0 
L 9.078125 0 
L 9.078125 54.6875 
L 18.109375 54.6875 
L 18.109375 46.1875 
Q 21.34375 51.125 25.703125 53.5625 
Q 30.078125 56 35.796875 56 
Q 45.21875 56 50.046875 50.171875 
Q 54.890625 44.34375 54.890625 33.015625 
z
" id="DejaVuSans-110"/>
     <path d="M 50.984375 -16.609375 
L 50.984375 -23.578125 
L -0.984375 -23.578125 
L -0.984375 -16.609375 
z
" id="DejaVuSans-95"/>
    </defs>
    <g transform="translate(131.88375 35.472)scale(0.12 -0.12)">
     <use xlink:href="#DejaVuSans-77"/>
     <use x="86.279297" xlink:href="#DejaVuSans-75"/>
     <use x="151.855469" xlink:href="#DejaVuSans-76"/>
     <use x="207.568359" xlink:href="#DejaVuSans-32"/>
     <use x="239.355469" xlink:href="#DejaVuSans-105"/>
     <use x="267.138672" xlink:href="#DejaVuSans-111"/>
     <use x="328.320312" xlink:href="#DejaVuSans-109"/>
     <use x="425.732422" xlink:href="#DejaVuSans-112"/>
     <use x="489.208984" xlink:href="#DejaVuSans-32"/>
     <use x="520.996094" xlink:href="#DejaVuSans-50"/>
     <use x="584.619141" xlink:href="#DejaVuSans-80"/>
     <use x="644.921875" xlink:href="#DejaVuSans-86"/>
     <use x="713.330078" xlink:href="#DejaVuSans-32"/>
     <use x="745.117188" xlink:href="#DejaVuSans-111"/>
     <use x="806.298828" xlink:href="#DejaVuSans-110"/>
     <use x="869.677734" xlink:href="#DejaVuSans-32"/>
     <use x="901.464844" xlink:href="#DejaVuSans-112"/>
     <use x="964.941406" xlink:href="#DejaVuSans-114"/>
     <use x="1003.804688" xlink:href="#DejaVuSans-101"/>
     <use x="1065.328125" xlink:href="#DejaVuSans-95"/>
     <use x="1115.328125" xlink:href="#DejaVuSans-116"/>
     <use x="1154.537109" xlink:href="#DejaVuSans-114"/>
     <use x="1195.650391" xlink:href="#DejaVuSans-97"/>
     <use x="1256.929688" xlink:href="#DejaVuSans-110"/>
     <use x="1320.308594" xlink:href="#DejaVuSans-115"/>
     <use x="1372.408203" xlink:href="#DejaVuSans-112"/>
     <use x="1435.884766" xlink:href="#DejaVuSans-111"/>
     <use x="1497.066406" xlink:href="#DejaVuSans-115"/>
     <use x="1549.166016" xlink:href="#DejaVuSans-101"/>
     <use x="1610.689453" xlink:href="#DejaVuSans-53"/>
     <use x="1674.3125" xlink:href="#DejaVuSans-49"/>
    </g>
   </g>
   <g id="legend_1">
    <g id="patch_7">
     <path d="M 313.152813 93.7845 
L 407.72 93.7845 
Q 409.72 93.7845 409.72 91.7845 
L 409.72 48.472 
Q 409.72 46.472 407.72 46.472 
L 313.152813 46.472 
Q 311.152813 46.472 311.152813 48.472 
L 311.152813 91.7845 
Q 311.152813 93.7845 313.152813 93.7845 
z
" style="fill:#ffffff;opacity:0.8;stroke:#cccccc;stroke-linejoin:miter;"/>
    </g>
    <g id="line2d_60">
     <path d="M 315.152813 54.570438 
L 335.152813 54.570438 
" style="fill:none;stroke:#0000ff;stroke-dasharray:1.5,2.475;stroke-dashoffset:0;stroke-width:1.5;"/>
    </g>
    <g id="line2d_61">
     <g>
      <use style="fill:#0000ff;stroke:#0000ff;" x="325.152813" xlink:href="#m24c21281f6" y="54.570438"/>
     </g>
    </g>
    <g id="text_32">
     <!-- transpose -->
     <g transform="translate(343.152813 58.070438)scale(0.1 -0.1)">
      <use xlink:href="#DejaVuSans-116"/>
      <use x="39.208984" xlink:href="#DejaVuSans-114"/>
      <use x="80.322266" xlink:href="#DejaVuSans-97"/>
      <use x="141.601562" xlink:href="#DejaVuSans-110"/>
      <use x="204.980469" xlink:href="#DejaVuSans-115"/>
      <use x="257.080078" xlink:href="#DejaVuSans-112"/>
      <use x="320.556641" xlink:href="#DejaVuSans-111"/>
      <use x="381.738281" xlink:href="#DejaVuSans-115"/>
      <use x="433.837891" xlink:href="#DejaVuSans-101"/>
     </g>
    </g>
    <g id="line2d_62">
     <path d="M 315.152813 69.248563 
L 335.152813 69.248563 
" style="fill:none;stroke:#ff0000;stroke-dasharray:1.5,2.475;stroke-dashoffset:0;stroke-width:1.5;"/>
    </g>
    <g id="line2d_63">
     <g>
      <use style="fill:#ff0000;stroke:#ff0000;" x="325.152813" xlink:href="#m9297524644" y="69.248563"/>
     </g>
    </g>
    <g id="text_33">
     <!-- transpose_tr -->
     <g transform="translate(343.152813 72.748563)scale(0.1 -0.1)">
      <use xlink:href="#DejaVuSans-116"/>
      <use x="39.208984" xlink:href="#DejaVuSans-114"/>
      <use x="80.322266" xlink:href="#DejaVuSans-97"/>
      <use x="141.601562" xlink:href="#DejaVuSans-110"/>
      <use x="204.980469" xlink:href="#DejaVuSans-115"/>
      <use x="257.080078" xlink:href="#DejaVuSans-112"/>
      <use x="320.556641" xlink:href="#DejaVuSans-111"/>
      <use x="381.738281" xlink:href="#DejaVuSans-115"/>
      <use x="433.837891" xlink:href="#DejaVuSans-101"/>
      <use x="495.361328" xlink:href="#DejaVuSans-95"/>
      <use x="545.361328" xlink:href="#DejaVuSans-116"/>
      <use x="584.570312" xlink:href="#DejaVuSans-114"/>
     </g>
    </g>
    <g id="line2d_64">
     <path d="M 315.152813 84.204813 
L 335.152813 84.204813 
" style="fill:none;stroke:#008000;stroke-dasharray:1.5,2.475;stroke-dashoffset:0;stroke-width:1.5;"/>
    </g>
    <g id="line2d_65">
     <g>
      <use style="fill:#008000;stroke:#008000;" x="325.152813" xlink:href="#mb685e2dd20" y="84.204813"/>
     </g>
    </g>
    <g id="text_34">
     <!-- mean -->
     <g transform="translate(343.152813 87.704813)scale(0.1 -0.1)">
      <use xlink:href="#DejaVuSans-109"/>
      <use x="97.412109" xlink:href="#DejaVuSans-101"/>
      <use x="158.935547" xlink:href="#DejaVuSans-97"/>
      <use x="220.214844" xlink:href="#DejaVuSans-110"/>
     </g>
    </g>
   </g>
  </g>
 </g>
 <defs>
  <clipPath id="pe4e8ccc7f7">
   <rect height="266.112" width="357.12" x="57.6" y="41.472"/>
  </clipPath>
 </defs>
</svg>
