<?xml version="1.0" encoding="utf-8" standalone="no"?>
<!DOCTYPE svg PUBLIC "-//W3C//DTD SVG 1.1//EN"
  "http://www.w3.org/Graphics/SVG/1.1/DTD/svg11.dtd">
<!-- Created with matplotlib (https://matplotlib.org/) -->
<svg height="345.6pt" version="1.1" viewBox="0 0 460.8 345.6" width="460.8pt" xmlns="http://www.w3.org/2000/svg" xmlns:xlink="http://www.w3.org/1999/xlink">
 <defs>
  <style type="text/css">
*{stroke-linecap:butt;stroke-linejoin:round;}
  </style>
 </defs>
 <g id="figure_1">
  <g id="patch_1">
   <path d="M 0 345.6 
L 460.8 345.6 
L 460.8 0 
L 0 0 
z
" style="fill:#ffffff;"/>
  </g>
  <g id="axes_1">
   <g id="patch_2">
    <path d="M 57.6 307.584 
L 414.72 307.584 
L 414.72 41.472 
L 57.6 41.472 
z
" style="fill:#ffffff;"/>
   </g>
   <g id="matplotlib.axis_1">
    <g id="xtick_1">
     <g id="line2d_1">
      <path clip-path="url(#p1c7a57f82c)" d="M 61.612584 307.584 
L 61.612584 41.472 
" style="fill:none;stroke:#b0b0b0;stroke-dasharray:5.12,1.28,0.8,1.28;stroke-dashoffset:0;stroke-width:0.8;"/>
     </g>
     <g id="line2d_2">
      <defs>
       <path d="M 0 0 
L 0 3.5 
" id="m0ba06d016d" style="stroke:#000000;stroke-width:0.8;"/>
      </defs>
      <g>
       <use style="stroke:#000000;stroke-width:0.8;" x="61.612584" xlink:href="#m0ba06d016d" y="307.584"/>
      </g>
     </g>
     <g id="text_1">
      <!-- 1 -->
      <defs>
       <path d="M 12.40625 8.296875 
L 28.515625 8.296875 
L 28.515625 63.921875 
L 10.984375 60.40625 
L 10.984375 69.390625 
L 28.421875 72.90625 
L 38.28125 72.90625 
L 38.28125 8.296875 
L 54.390625 8.296875 
L 54.390625 0 
L 12.40625 0 
z
" id="DejaVuSans-49"/>
      </defs>
      <g transform="translate(58.431334 322.182437)scale(0.1 -0.1)">
       <use xlink:href="#DejaVuSans-49"/>
      </g>
     </g>
    </g>
    <g id="xtick_2">
     <g id="line2d_3">
      <path clip-path="url(#p1c7a57f82c)" d="M 73.650337 307.584 
L 73.650337 41.472 
" style="fill:none;stroke:#b0b0b0;stroke-dasharray:5.12,1.28,0.8,1.28;stroke-dashoffset:0;stroke-width:0.8;"/>
     </g>
     <g id="line2d_4">
      <g>
       <use style="stroke:#000000;stroke-width:0.8;" x="73.650337" xlink:href="#m0ba06d016d" y="307.584"/>
      </g>
     </g>
     <g id="text_2">
      <!-- 4 -->
      <defs>
       <path d="M 37.796875 64.3125 
L 12.890625 25.390625 
L 37.796875 25.390625 
z
M 35.203125 72.90625 
L 47.609375 72.90625 
L 47.609375 25.390625 
L 58.015625 25.390625 
L 58.015625 17.1875 
L 47.609375 17.1875 
L 47.609375 0 
L 37.796875 0 
L 37.796875 17.1875 
L 4.890625 17.1875 
L 4.890625 26.703125 
z
" id="DejaVuSans-52"/>
      </defs>
      <g transform="translate(70.469087 322.182437)scale(0.1 -0.1)">
       <use xlink:href="#DejaVuSans-52"/>
      </g>
     </g>
    </g>
    <g id="xtick_3">
     <g id="line2d_5">
      <path clip-path="url(#p1c7a57f82c)" d="M 89.700674 307.584 
L 89.700674 41.472 
" style="fill:none;stroke:#b0b0b0;stroke-dasharray:5.12,1.28,0.8,1.28;stroke-dashoffset:0;stroke-width:0.8;"/>
     </g>
     <g id="line2d_6">
      <g>
       <use style="stroke:#000000;stroke-width:0.8;" x="89.700674" xlink:href="#m0ba06d016d" y="307.584"/>
      </g>
     </g>
     <g id="text_3">
      <!-- 8 -->
      <defs>
       <path d="M 31.78125 34.625 
Q 24.75 34.625 20.71875 30.859375 
Q 16.703125 27.09375 16.703125 20.515625 
Q 16.703125 13.921875 20.71875 10.15625 
Q 24.75 6.390625 31.78125 6.390625 
Q 38.8125 6.390625 42.859375 10.171875 
Q 46.921875 13.96875 46.921875 20.515625 
Q 46.921875 27.09375 42.890625 30.859375 
Q 38.875 34.625 31.78125 34.625 
z
M 21.921875 38.8125 
Q 15.578125 40.375 12.03125 44.71875 
Q 8.5 49.078125 8.5 55.328125 
Q 8.5 64.0625 14.71875 69.140625 
Q 20.953125 74.21875 31.78125 74.21875 
Q 42.671875 74.21875 48.875 69.140625 
Q 55.078125 64.0625 55.078125 55.328125 
Q 55.078125 49.078125 51.53125 44.71875 
Q 48 40.375 41.703125 38.8125 
Q 48.828125 37.15625 52.796875 32.3125 
Q 56.78125 27.484375 56.78125 20.515625 
Q 56.78125 9.90625 50.3125 4.234375 
Q 43.84375 -1.421875 31.78125 -1.421875 
Q 19.734375 -1.421875 13.25 4.234375 
Q 6.78125 9.90625 6.78125 20.515625 
Q 6.78125 27.484375 10.78125 32.3125 
Q 14.796875 37.15625 21.921875 38.8125 
z
M 18.3125 54.390625 
Q 18.3125 48.734375 21.84375 45.5625 
Q 25.390625 42.390625 31.78125 42.390625 
Q 38.140625 42.390625 41.71875 45.5625 
Q 45.3125 48.734375 45.3125 54.390625 
Q 45.3125 60.0625 41.71875 63.234375 
Q 38.140625 66.40625 31.78125 66.40625 
Q 25.390625 66.40625 21.84375 63.234375 
Q 18.3125 60.0625 18.3125 54.390625 
z
" id="DejaVuSans-56"/>
      </defs>
      <g transform="translate(86.519424 322.182437)scale(0.1 -0.1)">
       <use xlink:href="#DejaVuSans-56"/>
      </g>
     </g>
    </g>
    <g id="xtick_4">
     <g id="line2d_7">
      <path clip-path="url(#p1c7a57f82c)" d="M 105.751011 307.584 
L 105.751011 41.472 
" style="fill:none;stroke:#b0b0b0;stroke-dasharray:5.12,1.28,0.8,1.28;stroke-dashoffset:0;stroke-width:0.8;"/>
     </g>
     <g id="line2d_8">
      <g>
       <use style="stroke:#000000;stroke-width:0.8;" x="105.751011" xlink:href="#m0ba06d016d" y="307.584"/>
      </g>
     </g>
     <g id="text_4">
      <!-- 12 -->
      <defs>
       <path d="M 19.1875 8.296875 
L 53.609375 8.296875 
L 53.609375 0 
L 7.328125 0 
L 7.328125 8.296875 
Q 12.9375 14.109375 22.625 23.890625 
Q 32.328125 33.6875 34.8125 36.53125 
Q 39.546875 41.84375 41.421875 45.53125 
Q 43.3125 49.21875 43.3125 52.78125 
Q 43.3125 58.59375 39.234375 62.25 
Q 35.15625 65.921875 28.609375 65.921875 
Q 23.96875 65.921875 18.8125 64.3125 
Q 13.671875 62.703125 7.8125 59.421875 
L 7.8125 69.390625 
Q 13.765625 71.78125 18.9375 73 
Q 24.125 74.21875 28.421875 74.21875 
Q 39.75 74.21875 46.484375 68.546875 
Q 53.21875 62.890625 53.21875 53.421875 
Q 53.21875 48.921875 51.53125 44.890625 
Q 49.859375 40.875 45.40625 35.40625 
Q 44.1875 33.984375 37.640625 27.21875 
Q 31.109375 20.453125 19.1875 8.296875 
z
" id="DejaVuSans-50"/>
      </defs>
      <g transform="translate(99.388511 322.182437)scale(0.1 -0.1)">
       <use xlink:href="#DejaVuSans-49"/>
       <use x="63.623047" xlink:href="#DejaVuSans-50"/>
      </g>
     </g>
    </g>
    <g id="xtick_5">
     <g id="line2d_9">
      <path clip-path="url(#p1c7a57f82c)" d="M 121.801348 307.584 
L 121.801348 41.472 
" style="fill:none;stroke:#b0b0b0;stroke-dasharray:5.12,1.28,0.8,1.28;stroke-dashoffset:0;stroke-width:0.8;"/>
     </g>
     <g id="line2d_10">
      <g>
       <use style="stroke:#000000;stroke-width:0.8;" x="121.801348" xlink:href="#m0ba06d016d" y="307.584"/>
      </g>
     </g>
     <g id="text_5">
      <!-- 16 -->
      <defs>
       <path d="M 33.015625 40.375 
Q 26.375 40.375 22.484375 35.828125 
Q 18.609375 31.296875 18.609375 23.390625 
Q 18.609375 15.53125 22.484375 10.953125 
Q 26.375 6.390625 33.015625 6.390625 
Q 39.65625 6.390625 43.53125 10.953125 
Q 47.40625 15.53125 47.40625 23.390625 
Q 47.40625 31.296875 43.53125 35.828125 
Q 39.65625 40.375 33.015625 40.375 
z
M 52.59375 71.296875 
L 52.59375 62.3125 
Q 48.875 64.0625 45.09375 64.984375 
Q 41.3125 65.921875 37.59375 65.921875 
Q 27.828125 65.921875 22.671875 59.328125 
Q 17.53125 52.734375 16.796875 39.40625 
Q 19.671875 43.65625 24.015625 45.921875 
Q 28.375 48.1875 33.59375 48.1875 
Q 44.578125 48.1875 50.953125 41.515625 
Q 57.328125 34.859375 57.328125 23.390625 
Q 57.328125 12.15625 50.6875 5.359375 
Q 44.046875 -1.421875 33.015625 -1.421875 
Q 20.359375 -1.421875 13.671875 8.265625 
Q 6.984375 17.96875 6.984375 36.375 
Q 6.984375 53.65625 15.1875 63.9375 
Q 23.390625 74.21875 37.203125 74.21875 
Q 40.921875 74.21875 44.703125 73.484375 
Q 48.484375 72.75 52.59375 71.296875 
z
" id="DejaVuSans-54"/>
      </defs>
      <g transform="translate(115.438848 322.182437)scale(0.1 -0.1)">
       <use xlink:href="#DejaVuSans-49"/>
       <use x="63.623047" xlink:href="#DejaVuSans-54"/>
      </g>
     </g>
    </g>
    <g id="xtick_6">
     <g id="line2d_11">
      <path clip-path="url(#p1c7a57f82c)" d="M 137.851685 307.584 
L 137.851685 41.472 
" style="fill:none;stroke:#b0b0b0;stroke-dasharray:5.12,1.28,0.8,1.28;stroke-dashoffset:0;stroke-width:0.8;"/>
     </g>
     <g id="line2d_12">
      <g>
       <use style="stroke:#000000;stroke-width:0.8;" x="137.851685" xlink:href="#m0ba06d016d" y="307.584"/>
      </g>
     </g>
     <g id="text_6">
      <!-- 20 -->
      <defs>
       <path d="M 31.78125 66.40625 
Q 24.171875 66.40625 20.328125 58.90625 
Q 16.5 51.421875 16.5 36.375 
Q 16.5 21.390625 20.328125 13.890625 
Q 24.171875 6.390625 31.78125 6.390625 
Q 39.453125 6.390625 43.28125 13.890625 
Q 47.125 21.390625 47.125 36.375 
Q 47.125 51.421875 43.28125 58.90625 
Q 39.453125 66.40625 31.78125 66.40625 
z
M 31.78125 74.21875 
Q 44.046875 74.21875 50.515625 64.515625 
Q 56.984375 54.828125 56.984375 36.375 
Q 56.984375 17.96875 50.515625 8.265625 
Q 44.046875 -1.421875 31.78125 -1.421875 
Q 19.53125 -1.421875 13.0625 8.265625 
Q 6.59375 17.96875 6.59375 36.375 
Q 6.59375 54.828125 13.0625 64.515625 
Q 19.53125 74.21875 31.78125 74.21875 
z
" id="DejaVuSans-48"/>
      </defs>
      <g transform="translate(131.489185 322.182437)scale(0.1 -0.1)">
       <use xlink:href="#DejaVuSans-50"/>
       <use x="63.623047" xlink:href="#DejaVuSans-48"/>
      </g>
     </g>
    </g>
    <g id="xtick_7">
     <g id="line2d_13">
      <path clip-path="url(#p1c7a57f82c)" d="M 153.902022 307.584 
L 153.902022 41.472 
" style="fill:none;stroke:#b0b0b0;stroke-dasharray:5.12,1.28,0.8,1.28;stroke-dashoffset:0;stroke-width:0.8;"/>
     </g>
     <g id="line2d_14">
      <g>
       <use style="stroke:#000000;stroke-width:0.8;" x="153.902022" xlink:href="#m0ba06d016d" y="307.584"/>
      </g>
     </g>
     <g id="text_7">
      <!-- 24 -->
      <g transform="translate(147.539522 322.182437)scale(0.1 -0.1)">
       <use xlink:href="#DejaVuSans-50"/>
       <use x="63.623047" xlink:href="#DejaVuSans-52"/>
      </g>
     </g>
    </g>
    <g id="xtick_8">
     <g id="line2d_15">
      <path clip-path="url(#p1c7a57f82c)" d="M 169.95236 307.584 
L 169.95236 41.472 
" style="fill:none;stroke:#b0b0b0;stroke-dasharray:5.12,1.28,0.8,1.28;stroke-dashoffset:0;stroke-width:0.8;"/>
     </g>
     <g id="line2d_16">
      <g>
       <use style="stroke:#000000;stroke-width:0.8;" x="169.95236" xlink:href="#m0ba06d016d" y="307.584"/>
      </g>
     </g>
     <g id="text_8">
      <!-- 28 -->
      <g transform="translate(163.58986 322.182437)scale(0.1 -0.1)">
       <use xlink:href="#DejaVuSans-50"/>
       <use x="63.623047" xlink:href="#DejaVuSans-56"/>
      </g>
     </g>
    </g>
    <g id="xtick_9">
     <g id="line2d_17">
      <path clip-path="url(#p1c7a57f82c)" d="M 186.002697 307.584 
L 186.002697 41.472 
" style="fill:none;stroke:#b0b0b0;stroke-dasharray:5.12,1.28,0.8,1.28;stroke-dashoffset:0;stroke-width:0.8;"/>
     </g>
     <g id="line2d_18">
      <g>
       <use style="stroke:#000000;stroke-width:0.8;" x="186.002697" xlink:href="#m0ba06d016d" y="307.584"/>
      </g>
     </g>
     <g id="text_9">
      <!-- 32 -->
      <defs>
       <path d="M 40.578125 39.3125 
Q 47.65625 37.796875 51.625 33 
Q 55.609375 28.21875 55.609375 21.1875 
Q 55.609375 10.40625 48.1875 4.484375 
Q 40.765625 -1.421875 27.09375 -1.421875 
Q 22.515625 -1.421875 17.65625 -0.515625 
Q 12.796875 0.390625 7.625 2.203125 
L 7.625 11.71875 
Q 11.71875 9.328125 16.59375 8.109375 
Q 21.484375 6.890625 26.8125 6.890625 
Q 36.078125 6.890625 40.9375 10.546875 
Q 45.796875 14.203125 45.796875 21.1875 
Q 45.796875 27.640625 41.28125 31.265625 
Q 36.765625 34.90625 28.71875 34.90625 
L 20.21875 34.90625 
L 20.21875 43.015625 
L 29.109375 43.015625 
Q 36.375 43.015625 40.234375 45.921875 
Q 44.09375 48.828125 44.09375 54.296875 
Q 44.09375 59.90625 40.109375 62.90625 
Q 36.140625 65.921875 28.71875 65.921875 
Q 24.65625 65.921875 20.015625 65.03125 
Q 15.375 64.15625 9.8125 62.3125 
L 9.8125 71.09375 
Q 15.4375 72.65625 20.34375 73.4375 
Q 25.25 74.21875 29.59375 74.21875 
Q 40.828125 74.21875 47.359375 69.109375 
Q 53.90625 64.015625 53.90625 55.328125 
Q 53.90625 49.265625 50.4375 45.09375 
Q 46.96875 40.921875 40.578125 39.3125 
z
" id="DejaVuSans-51"/>
      </defs>
      <g transform="translate(179.640197 322.182437)scale(0.1 -0.1)">
       <use xlink:href="#DejaVuSans-51"/>
       <use x="63.623047" xlink:href="#DejaVuSans-50"/>
      </g>
     </g>
    </g>
    <g id="xtick_10">
     <g id="line2d_19">
      <path clip-path="url(#p1c7a57f82c)" d="M 202.053034 307.584 
L 202.053034 41.472 
" style="fill:none;stroke:#b0b0b0;stroke-dasharray:5.12,1.28,0.8,1.28;stroke-dashoffset:0;stroke-width:0.8;"/>
     </g>
     <g id="line2d_20">
      <g>
       <use style="stroke:#000000;stroke-width:0.8;" x="202.053034" xlink:href="#m0ba06d016d" y="307.584"/>
      </g>
     </g>
     <g id="text_10">
      <!-- 36 -->
      <g transform="translate(195.690534 322.182437)scale(0.1 -0.1)">
       <use xlink:href="#DejaVuSans-51"/>
       <use x="63.623047" xlink:href="#DejaVuSans-54"/>
      </g>
     </g>
    </g>
    <g id="xtick_11">
     <g id="line2d_21">
      <path clip-path="url(#p1c7a57f82c)" d="M 218.103371 307.584 
L 218.103371 41.472 
" style="fill:none;stroke:#b0b0b0;stroke-dasharray:5.12,1.28,0.8,1.28;stroke-dashoffset:0;stroke-width:0.8;"/>
     </g>
     <g id="line2d_22">
      <g>
       <use style="stroke:#000000;stroke-width:0.8;" x="218.103371" xlink:href="#m0ba06d016d" y="307.584"/>
      </g>
     </g>
     <g id="text_11">
      <!-- 40 -->
      <g transform="translate(211.740871 322.182437)scale(0.1 -0.1)">
       <use xlink:href="#DejaVuSans-52"/>
       <use x="63.623047" xlink:href="#DejaVuSans-48"/>
      </g>
     </g>
    </g>
    <g id="xtick_12">
     <g id="line2d_23">
      <path clip-path="url(#p1c7a57f82c)" d="M 234.153708 307.584 
L 234.153708 41.472 
" style="fill:none;stroke:#b0b0b0;stroke-dasharray:5.12,1.28,0.8,1.28;stroke-dashoffset:0;stroke-width:0.8;"/>
     </g>
     <g id="line2d_24">
      <g>
       <use style="stroke:#000000;stroke-width:0.8;" x="234.153708" xlink:href="#m0ba06d016d" y="307.584"/>
      </g>
     </g>
     <g id="text_12">
      <!-- 44 -->
      <g transform="translate(227.791208 322.182437)scale(0.1 -0.1)">
       <use xlink:href="#DejaVuSans-52"/>
       <use x="63.623047" xlink:href="#DejaVuSans-52"/>
      </g>
     </g>
    </g>
    <g id="xtick_13">
     <g id="line2d_25">
      <path clip-path="url(#p1c7a57f82c)" d="M 250.204045 307.584 
L 250.204045 41.472 
" style="fill:none;stroke:#b0b0b0;stroke-dasharray:5.12,1.28,0.8,1.28;stroke-dashoffset:0;stroke-width:0.8;"/>
     </g>
     <g id="line2d_26">
      <g>
       <use style="stroke:#000000;stroke-width:0.8;" x="250.204045" xlink:href="#m0ba06d016d" y="307.584"/>
      </g>
     </g>
     <g id="text_13">
      <!-- 48 -->
      <g transform="translate(243.841545 322.182437)scale(0.1 -0.1)">
       <use xlink:href="#DejaVuSans-52"/>
       <use x="63.623047" xlink:href="#DejaVuSans-56"/>
      </g>
     </g>
    </g>
    <g id="xtick_14">
     <g id="line2d_27">
      <path clip-path="url(#p1c7a57f82c)" d="M 266.254382 307.584 
L 266.254382 41.472 
" style="fill:none;stroke:#b0b0b0;stroke-dasharray:5.12,1.28,0.8,1.28;stroke-dashoffset:0;stroke-width:0.8;"/>
     </g>
     <g id="line2d_28">
      <g>
       <use style="stroke:#000000;stroke-width:0.8;" x="266.254382" xlink:href="#m0ba06d016d" y="307.584"/>
      </g>
     </g>
     <g id="text_14">
      <!-- 52 -->
      <defs>
       <path d="M 10.796875 72.90625 
L 49.515625 72.90625 
L 49.515625 64.59375 
L 19.828125 64.59375 
L 19.828125 46.734375 
Q 21.96875 47.46875 24.109375 47.828125 
Q 26.265625 48.1875 28.421875 48.1875 
Q 40.625 48.1875 47.75 41.5 
Q 54.890625 34.8125 54.890625 23.390625 
Q 54.890625 11.625 47.5625 5.09375 
Q 40.234375 -1.421875 26.90625 -1.421875 
Q 22.3125 -1.421875 17.546875 -0.640625 
Q 12.796875 0.140625 7.71875 1.703125 
L 7.71875 11.625 
Q 12.109375 9.234375 16.796875 8.0625 
Q 21.484375 6.890625 26.703125 6.890625 
Q 35.15625 6.890625 40.078125 11.328125 
Q 45.015625 15.765625 45.015625 23.390625 
Q 45.015625 31 40.078125 35.4375 
Q 35.15625 39.890625 26.703125 39.890625 
Q 22.75 39.890625 18.8125 39.015625 
Q 14.890625 38.140625 10.796875 36.28125 
z
" id="DejaVuSans-53"/>
      </defs>
      <g transform="translate(259.891882 322.182437)scale(0.1 -0.1)">
       <use xlink:href="#DejaVuSans-53"/>
       <use x="63.623047" xlink:href="#DejaVuSans-50"/>
      </g>
     </g>
    </g>
    <g id="xtick_15">
     <g id="line2d_29">
      <path clip-path="url(#p1c7a57f82c)" d="M 282.304719 307.584 
L 282.304719 41.472 
" style="fill:none;stroke:#b0b0b0;stroke-dasharray:5.12,1.28,0.8,1.28;stroke-dashoffset:0;stroke-width:0.8;"/>
     </g>
     <g id="line2d_30">
      <g>
       <use style="stroke:#000000;stroke-width:0.8;" x="282.304719" xlink:href="#m0ba06d016d" y="307.584"/>
      </g>
     </g>
     <g id="text_15">
      <!-- 56 -->
      <g transform="translate(275.942219 322.182437)scale(0.1 -0.1)">
       <use xlink:href="#DejaVuSans-53"/>
       <use x="63.623047" xlink:href="#DejaVuSans-54"/>
      </g>
     </g>
    </g>
    <g id="xtick_16">
     <g id="line2d_31">
      <path clip-path="url(#p1c7a57f82c)" d="M 298.355056 307.584 
L 298.355056 41.472 
" style="fill:none;stroke:#b0b0b0;stroke-dasharray:5.12,1.28,0.8,1.28;stroke-dashoffset:0;stroke-width:0.8;"/>
     </g>
     <g id="line2d_32">
      <g>
       <use style="stroke:#000000;stroke-width:0.8;" x="298.355056" xlink:href="#m0ba06d016d" y="307.584"/>
      </g>
     </g>
     <g id="text_16">
      <!-- 60 -->
      <g transform="translate(291.992556 322.182437)scale(0.1 -0.1)">
       <use xlink:href="#DejaVuSans-54"/>
       <use x="63.623047" xlink:href="#DejaVuSans-48"/>
      </g>
     </g>
    </g>
    <g id="xtick_17">
     <g id="line2d_33">
      <path clip-path="url(#p1c7a57f82c)" d="M 314.405393 307.584 
L 314.405393 41.472 
" style="fill:none;stroke:#b0b0b0;stroke-dasharray:5.12,1.28,0.8,1.28;stroke-dashoffset:0;stroke-width:0.8;"/>
     </g>
     <g id="line2d_34">
      <g>
       <use style="stroke:#000000;stroke-width:0.8;" x="314.405393" xlink:href="#m0ba06d016d" y="307.584"/>
      </g>
     </g>
     <g id="text_17">
      <!-- 64 -->
      <g transform="translate(308.042893 322.182437)scale(0.1 -0.1)">
       <use xlink:href="#DejaVuSans-54"/>
       <use x="63.623047" xlink:href="#DejaVuSans-52"/>
      </g>
     </g>
    </g>
    <g id="xtick_18">
     <g id="line2d_35">
      <path clip-path="url(#p1c7a57f82c)" d="M 330.45573 307.584 
L 330.45573 41.472 
" style="fill:none;stroke:#b0b0b0;stroke-dasharray:5.12,1.28,0.8,1.28;stroke-dashoffset:0;stroke-width:0.8;"/>
     </g>
     <g id="line2d_36">
      <g>
       <use style="stroke:#000000;stroke-width:0.8;" x="330.45573" xlink:href="#m0ba06d016d" y="307.584"/>
      </g>
     </g>
     <g id="text_18">
      <!-- 68 -->
      <g transform="translate(324.09323 322.182437)scale(0.1 -0.1)">
       <use xlink:href="#DejaVuSans-54"/>
       <use x="63.623047" xlink:href="#DejaVuSans-56"/>
      </g>
     </g>
    </g>
    <g id="xtick_19">
     <g id="line2d_37">
      <path clip-path="url(#p1c7a57f82c)" d="M 346.506067 307.584 
L 346.506067 41.472 
" style="fill:none;stroke:#b0b0b0;stroke-dasharray:5.12,1.28,0.8,1.28;stroke-dashoffset:0;stroke-width:0.8;"/>
     </g>
     <g id="line2d_38">
      <g>
       <use style="stroke:#000000;stroke-width:0.8;" x="346.506067" xlink:href="#m0ba06d016d" y="307.584"/>
      </g>
     </g>
     <g id="text_19">
      <!-- 72 -->
      <defs>
       <path d="M 8.203125 72.90625 
L 55.078125 72.90625 
L 55.078125 68.703125 
L 28.609375 0 
L 18.3125 0 
L 43.21875 64.59375 
L 8.203125 64.59375 
z
" id="DejaVuSans-55"/>
      </defs>
      <g transform="translate(340.143567 322.182437)scale(0.1 -0.1)">
       <use xlink:href="#DejaVuSans-55"/>
       <use x="63.623047" xlink:href="#DejaVuSans-50"/>
      </g>
     </g>
    </g>
    <g id="xtick_20">
     <g id="line2d_39">
      <path clip-path="url(#p1c7a57f82c)" d="M 362.556404 307.584 
L 362.556404 41.472 
" style="fill:none;stroke:#b0b0b0;stroke-dasharray:5.12,1.28,0.8,1.28;stroke-dashoffset:0;stroke-width:0.8;"/>
     </g>
     <g id="line2d_40">
      <g>
       <use style="stroke:#000000;stroke-width:0.8;" x="362.556404" xlink:href="#m0ba06d016d" y="307.584"/>
      </g>
     </g>
     <g id="text_20">
      <!-- 76 -->
      <g transform="translate(356.193904 322.182437)scale(0.1 -0.1)">
       <use xlink:href="#DejaVuSans-55"/>
       <use x="63.623047" xlink:href="#DejaVuSans-54"/>
      </g>
     </g>
    </g>
    <g id="xtick_21">
     <g id="line2d_41">
      <path clip-path="url(#p1c7a57f82c)" d="M 378.606742 307.584 
L 378.606742 41.472 
" style="fill:none;stroke:#b0b0b0;stroke-dasharray:5.12,1.28,0.8,1.28;stroke-dashoffset:0;stroke-width:0.8;"/>
     </g>
     <g id="line2d_42">
      <g>
       <use style="stroke:#000000;stroke-width:0.8;" x="378.606742" xlink:href="#m0ba06d016d" y="307.584"/>
      </g>
     </g>
     <g id="text_21">
      <!-- 80 -->
      <g transform="translate(372.244242 322.182437)scale(0.1 -0.1)">
       <use xlink:href="#DejaVuSans-56"/>
       <use x="63.623047" xlink:href="#DejaVuSans-48"/>
      </g>
     </g>
    </g>
    <g id="xtick_22">
     <g id="line2d_43">
      <path clip-path="url(#p1c7a57f82c)" d="M 394.657079 307.584 
L 394.657079 41.472 
" style="fill:none;stroke:#b0b0b0;stroke-dasharray:5.12,1.28,0.8,1.28;stroke-dashoffset:0;stroke-width:0.8;"/>
     </g>
     <g id="line2d_44">
      <g>
       <use style="stroke:#000000;stroke-width:0.8;" x="394.657079" xlink:href="#m0ba06d016d" y="307.584"/>
      </g>
     </g>
     <g id="text_22">
      <!-- 84 -->
      <g transform="translate(388.294579 322.182437)scale(0.1 -0.1)">
       <use xlink:href="#DejaVuSans-56"/>
       <use x="63.623047" xlink:href="#DejaVuSans-52"/>
      </g>
     </g>
    </g>
    <g id="xtick_23">
     <g id="line2d_45">
      <path clip-path="url(#p1c7a57f82c)" d="M 410.707416 307.584 
L 410.707416 41.472 
" style="fill:none;stroke:#b0b0b0;stroke-dasharray:5.12,1.28,0.8,1.28;stroke-dashoffset:0;stroke-width:0.8;"/>
     </g>
     <g id="line2d_46">
      <g>
       <use style="stroke:#000000;stroke-width:0.8;" x="410.707416" xlink:href="#m0ba06d016d" y="307.584"/>
      </g>
     </g>
     <g id="text_23">
      <!-- 88 -->
      <g transform="translate(404.344916 322.182437)scale(0.1 -0.1)">
       <use xlink:href="#DejaVuSans-56"/>
       <use x="63.623047" xlink:href="#DejaVuSans-56"/>
      </g>
     </g>
    </g>
    <g id="text_24">
     <!-- threads -->
     <defs>
      <path d="M 18.3125 70.21875 
L 18.3125 54.6875 
L 36.8125 54.6875 
L 36.8125 47.703125 
L 18.3125 47.703125 
L 18.3125 18.015625 
Q 18.3125 11.328125 20.140625 9.421875 
Q 21.96875 7.515625 27.59375 7.515625 
L 36.8125 7.515625 
L 36.8125 0 
L 27.59375 0 
Q 17.1875 0 13.234375 3.875 
Q 9.28125 7.765625 9.28125 18.015625 
L 9.28125 47.703125 
L 2.6875 47.703125 
L 2.6875 54.6875 
L 9.28125 54.6875 
L 9.28125 70.21875 
z
" id="DejaVuSans-116"/>
      <path d="M 54.890625 33.015625 
L 54.890625 0 
L 45.90625 0 
L 45.90625 32.71875 
Q 45.90625 40.484375 42.875 44.328125 
Q 39.84375 48.1875 33.796875 48.1875 
Q 26.515625 48.1875 22.3125 43.546875 
Q 18.109375 38.921875 18.109375 30.90625 
L 18.109375 0 
L 9.078125 0 
L 9.078125 75.984375 
L 18.109375 75.984375 
L 18.109375 46.1875 
Q 21.34375 51.125 25.703125 53.5625 
Q 30.078125 56 35.796875 56 
Q 45.21875 56 50.046875 50.171875 
Q 54.890625 44.34375 54.890625 33.015625 
z
" id="DejaVuSans-104"/>
      <path d="M 41.109375 46.296875 
Q 39.59375 47.171875 37.8125 47.578125 
Q 36.03125 48 33.890625 48 
Q 26.265625 48 22.1875 43.046875 
Q 18.109375 38.09375 18.109375 28.8125 
L 18.109375 0 
L 9.078125 0 
L 9.078125 54.6875 
L 18.109375 54.6875 
L 18.109375 46.1875 
Q 20.953125 51.171875 25.484375 53.578125 
Q 30.03125 56 36.53125 56 
Q 37.453125 56 38.578125 55.875 
Q 39.703125 55.765625 41.0625 55.515625 
z
" id="DejaVuSans-114"/>
      <path d="M 56.203125 29.59375 
L 56.203125 25.203125 
L 14.890625 25.203125 
Q 15.484375 15.921875 20.484375 11.0625 
Q 25.484375 6.203125 34.421875 6.203125 
Q 39.59375 6.203125 44.453125 7.46875 
Q 49.3125 8.734375 54.109375 11.28125 
L 54.109375 2.78125 
Q 49.265625 0.734375 44.1875 -0.34375 
Q 39.109375 -1.421875 33.890625 -1.421875 
Q 20.796875 -1.421875 13.15625 6.1875 
Q 5.515625 13.8125 5.515625 26.8125 
Q 5.515625 40.234375 12.765625 48.109375 
Q 20.015625 56 32.328125 56 
Q 43.359375 56 49.78125 48.890625 
Q 56.203125 41.796875 56.203125 29.59375 
z
M 47.21875 32.234375 
Q 47.125 39.59375 43.09375 43.984375 
Q 39.0625 48.390625 32.421875 48.390625 
Q 24.90625 48.390625 20.390625 44.140625 
Q 15.875 39.890625 15.1875 32.171875 
z
" id="DejaVuSans-101"/>
      <path d="M 34.28125 27.484375 
Q 23.390625 27.484375 19.1875 25 
Q 14.984375 22.515625 14.984375 16.5 
Q 14.984375 11.71875 18.140625 8.90625 
Q 21.296875 6.109375 26.703125 6.109375 
Q 34.1875 6.109375 38.703125 11.40625 
Q 43.21875 16.703125 43.21875 25.484375 
L 43.21875 27.484375 
z
M 52.203125 31.203125 
L 52.203125 0 
L 43.21875 0 
L 43.21875 8.296875 
Q 40.140625 3.328125 35.546875 0.953125 
Q 30.953125 -1.421875 24.3125 -1.421875 
Q 15.921875 -1.421875 10.953125 3.296875 
Q 6 8.015625 6 15.921875 
Q 6 25.140625 12.171875 29.828125 
Q 18.359375 34.515625 30.609375 34.515625 
L 43.21875 34.515625 
L 43.21875 35.40625 
Q 43.21875 41.609375 39.140625 45 
Q 35.0625 48.390625 27.6875 48.390625 
Q 23 48.390625 18.546875 47.265625 
Q 14.109375 46.140625 10.015625 43.890625 
L 10.015625 52.203125 
Q 14.9375 54.109375 19.578125 55.046875 
Q 24.21875 56 28.609375 56 
Q 40.484375 56 46.34375 49.84375 
Q 52.203125 43.703125 52.203125 31.203125 
z
" id="DejaVuSans-97"/>
      <path d="M 45.40625 46.390625 
L 45.40625 75.984375 
L 54.390625 75.984375 
L 54.390625 0 
L 45.40625 0 
L 45.40625 8.203125 
Q 42.578125 3.328125 38.25 0.953125 
Q 33.9375 -1.421875 27.875 -1.421875 
Q 17.96875 -1.421875 11.734375 6.484375 
Q 5.515625 14.40625 5.515625 27.296875 
Q 5.515625 40.1875 11.734375 48.09375 
Q 17.96875 56 27.875 56 
Q 33.9375 56 38.25 53.625 
Q 42.578125 51.265625 45.40625 46.390625 
z
M 14.796875 27.296875 
Q 14.796875 17.390625 18.875 11.75 
Q 22.953125 6.109375 30.078125 6.109375 
Q 37.203125 6.109375 41.296875 11.75 
Q 45.40625 17.390625 45.40625 27.296875 
Q 45.40625 37.203125 41.296875 42.84375 
Q 37.203125 48.484375 30.078125 48.484375 
Q 22.953125 48.484375 18.875 42.84375 
Q 14.796875 37.203125 14.796875 27.296875 
z
" id="DejaVuSans-100"/>
      <path d="M 44.28125 53.078125 
L 44.28125 44.578125 
Q 40.484375 46.53125 36.375 47.5 
Q 32.28125 48.484375 27.875 48.484375 
Q 21.1875 48.484375 17.84375 46.4375 
Q 14.5 44.390625 14.5 40.28125 
Q 14.5 37.15625 16.890625 35.375 
Q 19.28125 33.59375 26.515625 31.984375 
L 29.59375 31.296875 
Q 39.15625 29.25 43.1875 25.515625 
Q 47.21875 21.78125 47.21875 15.09375 
Q 47.21875 7.46875 41.1875 3.015625 
Q 35.15625 -1.421875 24.609375 -1.421875 
Q 20.21875 -1.421875 15.453125 -0.5625 
Q 10.6875 0.296875 5.421875 2 
L 5.421875 11.28125 
Q 10.40625 8.6875 15.234375 7.390625 
Q 20.0625 6.109375 24.8125 6.109375 
Q 31.15625 6.109375 34.5625 8.28125 
Q 37.984375 10.453125 37.984375 14.40625 
Q 37.984375 18.0625 35.515625 20.015625 
Q 33.0625 21.96875 24.703125 23.78125 
L 21.578125 24.515625 
Q 13.234375 26.265625 9.515625 29.90625 
Q 5.8125 33.546875 5.8125 39.890625 
Q 5.8125 47.609375 11.28125 51.796875 
Q 16.75 56 26.8125 56 
Q 31.78125 56 36.171875 55.265625 
Q 40.578125 54.546875 44.28125 53.078125 
z
" id="DejaVuSans-115"/>
     </defs>
     <g transform="translate(217.168594 335.860562)scale(0.1 -0.1)">
      <use xlink:href="#DejaVuSans-116"/>
      <use x="39.208984" xlink:href="#DejaVuSans-104"/>
      <use x="102.587891" xlink:href="#DejaVuSans-114"/>
      <use x="141.451172" xlink:href="#DejaVuSans-101"/>
      <use x="202.974609" xlink:href="#DejaVuSans-97"/>
      <use x="264.253906" xlink:href="#DejaVuSans-100"/>
      <use x="327.730469" xlink:href="#DejaVuSans-115"/>
     </g>
    </g>
   </g>
   <g id="matplotlib.axis_2">
    <g id="ytick_1">
     <g id="line2d_47">
      <path clip-path="url(#p1c7a57f82c)" d="M 57.6 288.86772 
L 414.72 288.86772 
" style="fill:none;stroke:#b0b0b0;stroke-dasharray:5.12,1.28,0.8,1.28;stroke-dashoffset:0;stroke-width:0.8;"/>
     </g>
     <g id="line2d_48">
      <defs>
       <path d="M 0 0 
L -3.5 0 
" id="m63e3299a6c" style="stroke:#000000;stroke-width:0.8;"/>
      </defs>
      <g>
       <use style="stroke:#000000;stroke-width:0.8;" x="57.6" xlink:href="#m63e3299a6c" y="288.86772"/>
      </g>
     </g>
     <g id="text_25">
      <!-- 0.4 -->
      <defs>
       <path d="M 10.6875 12.40625 
L 21 12.40625 
L 21 0 
L 10.6875 0 
z
" id="DejaVuSans-46"/>
      </defs>
      <g transform="translate(34.696875 292.666938)scale(0.1 -0.1)">
       <use xlink:href="#DejaVuSans-48"/>
       <use x="63.623047" xlink:href="#DejaVuSans-46"/>
       <use x="95.410156" xlink:href="#DejaVuSans-52"/>
      </g>
     </g>
    </g>
    <g id="ytick_2">
     <g id="line2d_49">
      <path clip-path="url(#p1c7a57f82c)" d="M 57.6 249.475541 
L 414.72 249.475541 
" style="fill:none;stroke:#b0b0b0;stroke-dasharray:5.12,1.28,0.8,1.28;stroke-dashoffset:0;stroke-width:0.8;"/>
     </g>
     <g id="line2d_50">
      <g>
       <use style="stroke:#000000;stroke-width:0.8;" x="57.6" xlink:href="#m63e3299a6c" y="249.475541"/>
      </g>
     </g>
     <g id="text_26">
      <!-- 0.6 -->
      <g transform="translate(34.696875 253.27476)scale(0.1 -0.1)">
       <use xlink:href="#DejaVuSans-48"/>
       <use x="63.623047" xlink:href="#DejaVuSans-46"/>
       <use x="95.410156" xlink:href="#DejaVuSans-54"/>
      </g>
     </g>
    </g>
    <g id="ytick_3">
     <g id="line2d_51">
      <path clip-path="url(#p1c7a57f82c)" d="M 57.6 210.083362 
L 414.72 210.083362 
" style="fill:none;stroke:#b0b0b0;stroke-dasharray:5.12,1.28,0.8,1.28;stroke-dashoffset:0;stroke-width:0.8;"/>
     </g>
     <g id="line2d_52">
      <g>
       <use style="stroke:#000000;stroke-width:0.8;" x="57.6" xlink:href="#m63e3299a6c" y="210.083362"/>
      </g>
     </g>
     <g id="text_27">
      <!-- 0.8 -->
      <g transform="translate(34.696875 213.882581)scale(0.1 -0.1)">
       <use xlink:href="#DejaVuSans-48"/>
       <use x="63.623047" xlink:href="#DejaVuSans-46"/>
       <use x="95.410156" xlink:href="#DejaVuSans-56"/>
      </g>
     </g>
    </g>
    <g id="ytick_4">
     <g id="line2d_53">
      <path clip-path="url(#p1c7a57f82c)" d="M 57.6 170.691184 
L 414.72 170.691184 
" style="fill:none;stroke:#b0b0b0;stroke-dasharray:5.12,1.28,0.8,1.28;stroke-dashoffset:0;stroke-width:0.8;"/>
     </g>
     <g id="line2d_54">
      <g>
       <use style="stroke:#000000;stroke-width:0.8;" x="57.6" xlink:href="#m63e3299a6c" y="170.691184"/>
      </g>
     </g>
     <g id="text_28">
      <!-- 1.0 -->
      <g transform="translate(34.696875 174.490402)scale(0.1 -0.1)">
       <use xlink:href="#DejaVuSans-49"/>
       <use x="63.623047" xlink:href="#DejaVuSans-46"/>
       <use x="95.410156" xlink:href="#DejaVuSans-48"/>
      </g>
     </g>
    </g>
    <g id="ytick_5">
     <g id="line2d_55">
      <path clip-path="url(#p1c7a57f82c)" d="M 57.6 131.299005 
L 414.72 131.299005 
" style="fill:none;stroke:#b0b0b0;stroke-dasharray:5.12,1.28,0.8,1.28;stroke-dashoffset:0;stroke-width:0.8;"/>
     </g>
     <g id="line2d_56">
      <g>
       <use style="stroke:#000000;stroke-width:0.8;" x="57.6" xlink:href="#m63e3299a6c" y="131.299005"/>
      </g>
     </g>
     <g id="text_29">
      <!-- 1.2 -->
      <g transform="translate(34.696875 135.098224)scale(0.1 -0.1)">
       <use xlink:href="#DejaVuSans-49"/>
       <use x="63.623047" xlink:href="#DejaVuSans-46"/>
       <use x="95.410156" xlink:href="#DejaVuSans-50"/>
      </g>
     </g>
    </g>
    <g id="ytick_6">
     <g id="line2d_57">
      <path clip-path="url(#p1c7a57f82c)" d="M 57.6 91.906826 
L 414.72 91.906826 
" style="fill:none;stroke:#b0b0b0;stroke-dasharray:5.12,1.28,0.8,1.28;stroke-dashoffset:0;stroke-width:0.8;"/>
     </g>
     <g id="line2d_58">
      <g>
       <use style="stroke:#000000;stroke-width:0.8;" x="57.6" xlink:href="#m63e3299a6c" y="91.906826"/>
      </g>
     </g>
     <g id="text_30">
      <!-- 1.4 -->
      <g transform="translate(34.696875 95.706045)scale(0.1 -0.1)">
       <use xlink:href="#DejaVuSans-49"/>
       <use x="63.623047" xlink:href="#DejaVuSans-46"/>
       <use x="95.410156" xlink:href="#DejaVuSans-52"/>
      </g>
     </g>
    </g>
    <g id="ytick_7">
     <g id="line2d_59">
      <path clip-path="url(#p1c7a57f82c)" d="M 57.6 52.514648 
L 414.72 52.514648 
" style="fill:none;stroke:#b0b0b0;stroke-dasharray:5.12,1.28,0.8,1.28;stroke-dashoffset:0;stroke-width:0.8;"/>
     </g>
     <g id="line2d_60">
      <g>
       <use style="stroke:#000000;stroke-width:0.8;" x="57.6" xlink:href="#m63e3299a6c" y="52.514648"/>
      </g>
     </g>
     <g id="text_31">
      <!-- 1.6 -->
      <g transform="translate(34.696875 56.313866)scale(0.1 -0.1)">
       <use xlink:href="#DejaVuSans-49"/>
       <use x="63.623047" xlink:href="#DejaVuSans-46"/>
       <use x="95.410156" xlink:href="#DejaVuSans-54"/>
      </g>
     </g>
    </g>
    <g id="text_32">
     <!-- duration (s) -->
     <defs>
      <path d="M 8.5 21.578125 
L 8.5 54.6875 
L 17.484375 54.6875 
L 17.484375 21.921875 
Q 17.484375 14.15625 20.5 10.265625 
Q 23.53125 6.390625 29.59375 6.390625 
Q 36.859375 6.390625 41.078125 11.03125 
Q 45.3125 15.671875 45.3125 23.6875 
L 45.3125 54.6875 
L 54.296875 54.6875 
L 54.296875 0 
L 45.3125 0 
L 45.3125 8.40625 
Q 42.046875 3.421875 37.71875 1 
Q 33.40625 -1.421875 27.6875 -1.421875 
Q 18.265625 -1.421875 13.375 4.4375 
Q 8.5 10.296875 8.5 21.578125 
z
M 31.109375 56 
z
" id="DejaVuSans-117"/>
      <path d="M 9.421875 54.6875 
L 18.40625 54.6875 
L 18.40625 0 
L 9.421875 0 
z
M 9.421875 75.984375 
L 18.40625 75.984375 
L 18.40625 64.59375 
L 9.421875 64.59375 
z
" id="DejaVuSans-105"/>
      <path d="M 30.609375 48.390625 
Q 23.390625 48.390625 19.1875 42.75 
Q 14.984375 37.109375 14.984375 27.296875 
Q 14.984375 17.484375 19.15625 11.84375 
Q 23.34375 6.203125 30.609375 6.203125 
Q 37.796875 6.203125 41.984375 11.859375 
Q 46.1875 17.53125 46.1875 27.296875 
Q 46.1875 37.015625 41.984375 42.703125 
Q 37.796875 48.390625 30.609375 48.390625 
z
M 30.609375 56 
Q 42.328125 56 49.015625 48.375 
Q 55.71875 40.765625 55.71875 27.296875 
Q 55.71875 13.875 49.015625 6.21875 
Q 42.328125 -1.421875 30.609375 -1.421875 
Q 18.84375 -1.421875 12.171875 6.21875 
Q 5.515625 13.875 5.515625 27.296875 
Q 5.515625 40.765625 12.171875 48.375 
Q 18.84375 56 30.609375 56 
z
" id="DejaVuSans-111"/>
      <path d="M 54.890625 33.015625 
L 54.890625 0 
L 45.90625 0 
L 45.90625 32.71875 
Q 45.90625 40.484375 42.875 44.328125 
Q 39.84375 48.1875 33.796875 48.1875 
Q 26.515625 48.1875 22.3125 43.546875 
Q 18.109375 38.921875 18.109375 30.90625 
L 18.109375 0 
L 9.078125 0 
L 9.078125 54.6875 
L 18.109375 54.6875 
L 18.109375 46.1875 
Q 21.34375 51.125 25.703125 53.5625 
Q 30.078125 56 35.796875 56 
Q 45.21875 56 50.046875 50.171875 
Q 54.890625 44.34375 54.890625 33.015625 
z
" id="DejaVuSans-110"/>
      <path id="DejaVuSans-32"/>
      <path d="M 31 75.875 
Q 24.46875 64.65625 21.28125 53.65625 
Q 18.109375 42.671875 18.109375 31.390625 
Q 18.109375 20.125 21.3125 9.0625 
Q 24.515625 -2 31 -13.1875 
L 23.1875 -13.1875 
Q 15.875 -1.703125 12.234375 9.375 
Q 8.59375 20.453125 8.59375 31.390625 
Q 8.59375 42.28125 12.203125 53.3125 
Q 15.828125 64.359375 23.1875 75.875 
z
" id="DejaVuSans-40"/>
      <path d="M 8.015625 75.875 
L 15.828125 75.875 
Q 23.140625 64.359375 26.78125 53.3125 
Q 30.421875 42.28125 30.421875 31.390625 
Q 30.421875 20.453125 26.78125 9.375 
Q 23.140625 -1.703125 15.828125 -13.1875 
L 8.015625 -13.1875 
Q 14.5 -2 17.703125 9.0625 
Q 20.90625 20.125 20.90625 31.390625 
Q 20.90625 42.671875 17.703125 53.65625 
Q 14.5 64.65625 8.015625 75.875 
z
" id="DejaVuSans-41"/>
     </defs>
     <g transform="translate(28.617187 203.663156)rotate(-90)scale(0.1 -0.1)">
      <use xlink:href="#DejaVuSans-100"/>
      <use x="63.476562" xlink:href="#DejaVuSans-117"/>
      <use x="126.855469" xlink:href="#DejaVuSans-114"/>
      <use x="167.96875" xlink:href="#DejaVuSans-97"/>
      <use x="229.248047" xlink:href="#DejaVuSans-116"/>
      <use x="268.457031" xlink:href="#DejaVuSans-105"/>
      <use x="296.240234" xlink:href="#DejaVuSans-111"/>
      <use x="357.421875" xlink:href="#DejaVuSans-110"/>
      <use x="420.800781" xlink:href="#DejaVuSans-32"/>
      <use x="452.587891" xlink:href="#DejaVuSans-40"/>
      <use x="491.601562" xlink:href="#DejaVuSans-115"/>
      <use x="543.701172" xlink:href="#DejaVuSans-41"/>
     </g>
    </g>
   </g>
   <g id="line2d_61">
    <path clip-path="url(#p1c7a57f82c)" d="M 61.612584 129.820407 
L 65.625169 196.012717 
L 69.637753 227.578615 
L 73.650337 252.094256 
L 77.662921 263.391383 
L 81.675506 269.090331 
L 85.68809 274.70936 
L 89.700674 279.576534 
L 93.713258 283.300561 
L 97.725843 283.222502 
L 101.738427 285.440549 
L 105.751011 290.675742 
L 109.763596 293.269322 
L 113.77618 293.299644 
L 117.788764 294.59579 
L 121.801348 294.873701 
L 125.813933 294.483739 
L 129.826517 293.042335 
L 133.839101 292.274023 
L 137.851685 293.997094 
L 141.86427 291.891889 
L 145.876854 293.765512 
L 149.889438 293.13685 
L 153.902022 293.335641 
L 157.914607 295.488 
L 161.927191 294.419854 
L 165.939775 294.57606 
L 169.95236 294.587525 
L 173.964944 294.485946 
L 177.977528 291.339717 
L 181.990112 291.617286 
L 186.002697 287.467118 
L 190.015281 290.265104 
L 194.027865 291.491187 
L 198.040449 291.49218 
L 202.053034 290.25796 
L 206.065618 290.396818 
L 210.078202 289.060991 
L 214.090787 287.426364 
L 218.103371 286.657355 
L 222.115955 286.130862 
L 226.128539 286.666243 
L 230.141124 287.282394 
L 234.153708 286.668175 
L 238.166292 287.253132 
L 242.178876 286.870173 
L 246.191461 287.868236 
L 250.204045 287.597262 
L 254.216629 288.345703 
L 258.229213 288.295303 
L 262.241798 287.411471 
L 266.254382 287.662092 
L 270.266966 287.802185 
L 274.279551 287.66389 
L 278.292135 287.776028 
L 282.304719 287.525837 
L 286.317303 285.808608 
L 290.329888 288.121661 
L 294.342472 284.070738 
L 298.355056 286.88508 
L 302.36764 287.578015 
L 306.380225 287.891065 
L 310.392809 286.75994 
L 314.405393 286.964253 
L 318.417978 282.812253 
L 322.430562 285.63445 
L 326.443146 283.208977 
L 330.45573 287.051818 
L 334.468315 281.755055 
L 338.480899 282.406768 
L 342.493483 278.488766 
L 346.506067 284.614713 
L 350.518652 283.50635 
L 354.531236 284.393904 
L 358.54382 283.006476 
L 362.556404 284.779063 
L 366.568989 284.953422 
L 370.581573 282.623156 
L 374.594157 283.541475 
L 378.606742 281.606128 
L 382.619326 282.104894 
L 386.63191 284.224811 
L 390.644494 284.537451 
L 394.657079 285.703762 
L 398.669663 280.523753 
L 402.682247 282.045525 
L 406.694831 284.22139 
L 410.707416 283.199103 
" style="fill:none;stroke:#0000ff;stroke-dasharray:1.5,2.475;stroke-dashoffset:0;stroke-width:1.5;"/>
    <defs>
     <path d="M 0 1.5 
C 0.397805 1.5 0.77937 1.341951 1.06066 1.06066 
C 1.341951 0.77937 1.5 0.397805 1.5 0 
C 1.5 -0.397805 1.341951 -0.77937 1.06066 -1.06066 
C 0.77937 -1.341951 0.397805 -1.5 0 -1.5 
C -0.397805 -1.5 -0.77937 -1.341951 -1.06066 -1.06066 
C -1.341951 -0.77937 -1.5 -0.397805 -1.5 0 
C -1.5 0.397805 -1.341951 0.77937 -1.06066 1.06066 
C -0.77937 1.341951 -0.397805 1.5 0 1.5 
z
" id="m040d69398b" style="stroke:#0000ff;"/>
    </defs>
    <g clip-path="url(#p1c7a57f82c)">
     <use style="fill:#0000ff;stroke:#0000ff;" x="61.612584" xlink:href="#m040d69398b" y="129.820407"/>
     <use style="fill:#0000ff;stroke:#0000ff;" x="65.625169" xlink:href="#m040d69398b" y="196.012717"/>
     <use style="fill:#0000ff;stroke:#0000ff;" x="69.637753" xlink:href="#m040d69398b" y="227.578615"/>
     <use style="fill:#0000ff;stroke:#0000ff;" x="73.650337" xlink:href="#m040d69398b" y="252.094256"/>
     <use style="fill:#0000ff;stroke:#0000ff;" x="77.662921" xlink:href="#m040d69398b" y="263.391383"/>
     <use style="fill:#0000ff;stroke:#0000ff;" x="81.675506" xlink:href="#m040d69398b" y="269.090331"/>
     <use style="fill:#0000ff;stroke:#0000ff;" x="85.68809" xlink:href="#m040d69398b" y="274.70936"/>
     <use style="fill:#0000ff;stroke:#0000ff;" x="89.700674" xlink:href="#m040d69398b" y="279.576534"/>
     <use style="fill:#0000ff;stroke:#0000ff;" x="93.713258" xlink:href="#m040d69398b" y="283.300561"/>
     <use style="fill:#0000ff;stroke:#0000ff;" x="97.725843" xlink:href="#m040d69398b" y="283.222502"/>
     <use style="fill:#0000ff;stroke:#0000ff;" x="101.738427" xlink:href="#m040d69398b" y="285.440549"/>
     <use style="fill:#0000ff;stroke:#0000ff;" x="105.751011" xlink:href="#m040d69398b" y="290.675742"/>
     <use style="fill:#0000ff;stroke:#0000ff;" x="109.763596" xlink:href="#m040d69398b" y="293.269322"/>
     <use style="fill:#0000ff;stroke:#0000ff;" x="113.77618" xlink:href="#m040d69398b" y="293.299644"/>
     <use style="fill:#0000ff;stroke:#0000ff;" x="117.788764" xlink:href="#m040d69398b" y="294.59579"/>
     <use style="fill:#0000ff;stroke:#0000ff;" x="121.801348" xlink:href="#m040d69398b" y="294.873701"/>
     <use style="fill:#0000ff;stroke:#0000ff;" x="125.813933" xlink:href="#m040d69398b" y="294.483739"/>
     <use style="fill:#0000ff;stroke:#0000ff;" x="129.826517" xlink:href="#m040d69398b" y="293.042335"/>
     <use style="fill:#0000ff;stroke:#0000ff;" x="133.839101" xlink:href="#m040d69398b" y="292.274023"/>
     <use style="fill:#0000ff;stroke:#0000ff;" x="137.851685" xlink:href="#m040d69398b" y="293.997094"/>
     <use style="fill:#0000ff;stroke:#0000ff;" x="141.86427" xlink:href="#m040d69398b" y="291.891889"/>
     <use style="fill:#0000ff;stroke:#0000ff;" x="145.876854" xlink:href="#m040d69398b" y="293.765512"/>
     <use style="fill:#0000ff;stroke:#0000ff;" x="149.889438" xlink:href="#m040d69398b" y="293.13685"/>
     <use style="fill:#0000ff;stroke:#0000ff;" x="153.902022" xlink:href="#m040d69398b" y="293.335641"/>
     <use style="fill:#0000ff;stroke:#0000ff;" x="157.914607" xlink:href="#m040d69398b" y="295.488"/>
     <use style="fill:#0000ff;stroke:#0000ff;" x="161.927191" xlink:href="#m040d69398b" y="294.419854"/>
     <use style="fill:#0000ff;stroke:#0000ff;" x="165.939775" xlink:href="#m040d69398b" y="294.57606"/>
     <use style="fill:#0000ff;stroke:#0000ff;" x="169.95236" xlink:href="#m040d69398b" y="294.587525"/>
     <use style="fill:#0000ff;stroke:#0000ff;" x="173.964944" xlink:href="#m040d69398b" y="294.485946"/>
     <use style="fill:#0000ff;stroke:#0000ff;" x="177.977528" xlink:href="#m040d69398b" y="291.339717"/>
     <use style="fill:#0000ff;stroke:#0000ff;" x="181.990112" xlink:href="#m040d69398b" y="291.617286"/>
     <use style="fill:#0000ff;stroke:#0000ff;" x="186.002697" xlink:href="#m040d69398b" y="287.467118"/>
     <use style="fill:#0000ff;stroke:#0000ff;" x="190.015281" xlink:href="#m040d69398b" y="290.265104"/>
     <use style="fill:#0000ff;stroke:#0000ff;" x="194.027865" xlink:href="#m040d69398b" y="291.491187"/>
     <use style="fill:#0000ff;stroke:#0000ff;" x="198.040449" xlink:href="#m040d69398b" y="291.49218"/>
     <use style="fill:#0000ff;stroke:#0000ff;" x="202.053034" xlink:href="#m040d69398b" y="290.25796"/>
     <use style="fill:#0000ff;stroke:#0000ff;" x="206.065618" xlink:href="#m040d69398b" y="290.396818"/>
     <use style="fill:#0000ff;stroke:#0000ff;" x="210.078202" xlink:href="#m040d69398b" y="289.060991"/>
     <use style="fill:#0000ff;stroke:#0000ff;" x="214.090787" xlink:href="#m040d69398b" y="287.426364"/>
     <use style="fill:#0000ff;stroke:#0000ff;" x="218.103371" xlink:href="#m040d69398b" y="286.657355"/>
     <use style="fill:#0000ff;stroke:#0000ff;" x="222.115955" xlink:href="#m040d69398b" y="286.130862"/>
     <use style="fill:#0000ff;stroke:#0000ff;" x="226.128539" xlink:href="#m040d69398b" y="286.666243"/>
     <use style="fill:#0000ff;stroke:#0000ff;" x="230.141124" xlink:href="#m040d69398b" y="287.282394"/>
     <use style="fill:#0000ff;stroke:#0000ff;" x="234.153708" xlink:href="#m040d69398b" y="286.668175"/>
     <use style="fill:#0000ff;stroke:#0000ff;" x="238.166292" xlink:href="#m040d69398b" y="287.253132"/>
     <use style="fill:#0000ff;stroke:#0000ff;" x="242.178876" xlink:href="#m040d69398b" y="286.870173"/>
     <use style="fill:#0000ff;stroke:#0000ff;" x="246.191461" xlink:href="#m040d69398b" y="287.868236"/>
     <use style="fill:#0000ff;stroke:#0000ff;" x="250.204045" xlink:href="#m040d69398b" y="287.597262"/>
     <use style="fill:#0000ff;stroke:#0000ff;" x="254.216629" xlink:href="#m040d69398b" y="288.345703"/>
     <use style="fill:#0000ff;stroke:#0000ff;" x="258.229213" xlink:href="#m040d69398b" y="288.295303"/>
     <use style="fill:#0000ff;stroke:#0000ff;" x="262.241798" xlink:href="#m040d69398b" y="287.411471"/>
     <use style="fill:#0000ff;stroke:#0000ff;" x="266.254382" xlink:href="#m040d69398b" y="287.662092"/>
     <use style="fill:#0000ff;stroke:#0000ff;" x="270.266966" xlink:href="#m040d69398b" y="287.802185"/>
     <use style="fill:#0000ff;stroke:#0000ff;" x="274.279551" xlink:href="#m040d69398b" y="287.66389"/>
     <use style="fill:#0000ff;stroke:#0000ff;" x="278.292135" xlink:href="#m040d69398b" y="287.776028"/>
     <use style="fill:#0000ff;stroke:#0000ff;" x="282.304719" xlink:href="#m040d69398b" y="287.525837"/>
     <use style="fill:#0000ff;stroke:#0000ff;" x="286.317303" xlink:href="#m040d69398b" y="285.808608"/>
     <use style="fill:#0000ff;stroke:#0000ff;" x="290.329888" xlink:href="#m040d69398b" y="288.121661"/>
     <use style="fill:#0000ff;stroke:#0000ff;" x="294.342472" xlink:href="#m040d69398b" y="284.070738"/>
     <use style="fill:#0000ff;stroke:#0000ff;" x="298.355056" xlink:href="#m040d69398b" y="286.88508"/>
     <use style="fill:#0000ff;stroke:#0000ff;" x="302.36764" xlink:href="#m040d69398b" y="287.578015"/>
     <use style="fill:#0000ff;stroke:#0000ff;" x="306.380225" xlink:href="#m040d69398b" y="287.891065"/>
     <use style="fill:#0000ff;stroke:#0000ff;" x="310.392809" xlink:href="#m040d69398b" y="286.75994"/>
     <use style="fill:#0000ff;stroke:#0000ff;" x="314.405393" xlink:href="#m040d69398b" y="286.964253"/>
     <use style="fill:#0000ff;stroke:#0000ff;" x="318.417978" xlink:href="#m040d69398b" y="282.812253"/>
     <use style="fill:#0000ff;stroke:#0000ff;" x="322.430562" xlink:href="#m040d69398b" y="285.63445"/>
     <use style="fill:#0000ff;stroke:#0000ff;" x="326.443146" xlink:href="#m040d69398b" y="283.208977"/>
     <use style="fill:#0000ff;stroke:#0000ff;" x="330.45573" xlink:href="#m040d69398b" y="287.051818"/>
     <use style="fill:#0000ff;stroke:#0000ff;" x="334.468315" xlink:href="#m040d69398b" y="281.755055"/>
     <use style="fill:#0000ff;stroke:#0000ff;" x="338.480899" xlink:href="#m040d69398b" y="282.406768"/>
     <use style="fill:#0000ff;stroke:#0000ff;" x="342.493483" xlink:href="#m040d69398b" y="278.488766"/>
     <use style="fill:#0000ff;stroke:#0000ff;" x="346.506067" xlink:href="#m040d69398b" y="284.614713"/>
     <use style="fill:#0000ff;stroke:#0000ff;" x="350.518652" xlink:href="#m040d69398b" y="283.50635"/>
     <use style="fill:#0000ff;stroke:#0000ff;" x="354.531236" xlink:href="#m040d69398b" y="284.393904"/>
     <use style="fill:#0000ff;stroke:#0000ff;" x="358.54382" xlink:href="#m040d69398b" y="283.006476"/>
     <use style="fill:#0000ff;stroke:#0000ff;" x="362.556404" xlink:href="#m040d69398b" y="284.779063"/>
     <use style="fill:#0000ff;stroke:#0000ff;" x="366.568989" xlink:href="#m040d69398b" y="284.953422"/>
     <use style="fill:#0000ff;stroke:#0000ff;" x="370.581573" xlink:href="#m040d69398b" y="282.623156"/>
     <use style="fill:#0000ff;stroke:#0000ff;" x="374.594157" xlink:href="#m040d69398b" y="283.541475"/>
     <use style="fill:#0000ff;stroke:#0000ff;" x="378.606742" xlink:href="#m040d69398b" y="281.606128"/>
     <use style="fill:#0000ff;stroke:#0000ff;" x="382.619326" xlink:href="#m040d69398b" y="282.104894"/>
     <use style="fill:#0000ff;stroke:#0000ff;" x="386.63191" xlink:href="#m040d69398b" y="284.224811"/>
     <use style="fill:#0000ff;stroke:#0000ff;" x="390.644494" xlink:href="#m040d69398b" y="284.537451"/>
     <use style="fill:#0000ff;stroke:#0000ff;" x="394.657079" xlink:href="#m040d69398b" y="285.703762"/>
     <use style="fill:#0000ff;stroke:#0000ff;" x="398.669663" xlink:href="#m040d69398b" y="280.523753"/>
     <use style="fill:#0000ff;stroke:#0000ff;" x="402.682247" xlink:href="#m040d69398b" y="282.045525"/>
     <use style="fill:#0000ff;stroke:#0000ff;" x="406.694831" xlink:href="#m040d69398b" y="284.22139"/>
     <use style="fill:#0000ff;stroke:#0000ff;" x="410.707416" xlink:href="#m040d69398b" y="283.199103"/>
    </g>
   </g>
   <g id="line2d_62">
    <path clip-path="url(#p1c7a57f82c)" d="M 61.612584 53.568 
L 65.625169 127.722145 
L 69.637753 166.820275 
L 73.650337 187.740678 
L 77.662921 197.952371 
L 81.675506 204.218404 
L 85.68809 207.158388 
L 89.700674 208.279141 
L 93.713258 208.041152 
L 97.725843 207.549899 
L 101.738427 206.154502 
L 105.751011 204.587999 
L 109.763596 202.428751 
L 113.77618 199.055005 
L 117.788764 196.385023 
L 121.801348 195.259124 
L 125.813933 191.335574 
L 129.826517 186.684748 
L 133.839101 184.407471 
L 137.851685 180.467573 
L 141.86427 177.691375 
L 145.876854 173.93231 
L 149.889438 171.268238 
L 153.902022 166.568171 
L 157.914607 165.578266 
L 161.927191 161.647813 
L 165.939775 158.494179 
L 169.95236 155.219691 
L 173.964944 151.774923 
L 177.977528 146.632985 
L 181.990112 141.753206 
L 186.002697 137.033424 
L 190.015281 137.284836 
L 194.027865 131.965829 
L 198.040449 130.736143 
L 202.053034 126.923404 
L 206.065618 126.126594 
L 210.078202 117.905854 
L 214.090787 112.055417 
L 218.103371 111.682051 
L 222.115955 106.48933 
L 226.128539 103.944393 
L 230.141124 101.938279 
L 234.153708 97.864614 
L 238.166292 100.074363 
L 242.178876 97.648353 
L 246.191461 100.678097 
L 250.204045 100.379571 
L 254.216629 100.952714 
L 258.229213 101.18445 
L 262.241798 98.420858 
L 266.254382 101.073754 
L 270.266966 100.875701 
L 274.279551 101.448656 
L 278.292135 98.543146 
L 282.304719 98.585899 
L 286.317303 97.958787 
L 290.329888 96.791463 
L 294.342472 93.00178 
L 298.355056 94.033137 
L 302.36764 99.539009 
L 306.380225 99.148691 
L 310.392809 98.484219 
L 314.405393 98.180038 
L 318.417978 92.58966 
L 322.430562 97.317707 
L 326.443146 91.25529 
L 330.45573 89.644444 
L 334.468315 90.429822 
L 338.480899 87.078509 
L 342.493483 88.792585 
L 346.506067 94.744005 
L 350.518652 94.757341 
L 354.531236 94.039041 
L 358.54382 93.474672 
L 362.556404 88.295858 
L 366.568989 89.409796 
L 370.581573 89.291076 
L 374.594157 90.486052 
L 378.606742 89.611371 
L 382.619326 89.952288 
L 386.63191 90.251015 
L 390.644494 93.881956 
L 394.657079 91.653684 
L 398.669663 85.897474 
L 402.682247 89.335117 
L 406.694831 89.488627 
L 410.707416 92.741244 
" style="fill:none;stroke:#ff0000;stroke-dasharray:1.5,2.475;stroke-dashoffset:0;stroke-width:1.5;"/>
    <defs>
     <path d="M 0 1.5 
C 0.397805 1.5 0.77937 1.341951 1.06066 1.06066 
C 1.341951 0.77937 1.5 0.397805 1.5 0 
C 1.5 -0.397805 1.341951 -0.77937 1.06066 -1.06066 
C 0.77937 -1.341951 0.397805 -1.5 0 -1.5 
C -0.397805 -1.5 -0.77937 -1.341951 -1.06066 -1.06066 
C -1.341951 -0.77937 -1.5 -0.397805 -1.5 0 
C -1.5 0.397805 -1.341951 0.77937 -1.06066 1.06066 
C -0.77937 1.341951 -0.397805 1.5 0 1.5 
z
" id="m0713dbac20" style="stroke:#ff0000;"/>
    </defs>
    <g clip-path="url(#p1c7a57f82c)">
     <use style="fill:#ff0000;stroke:#ff0000;" x="61.612584" xlink:href="#m0713dbac20" y="53.568"/>
     <use style="fill:#ff0000;stroke:#ff0000;" x="65.625169" xlink:href="#m0713dbac20" y="127.722145"/>
     <use style="fill:#ff0000;stroke:#ff0000;" x="69.637753" xlink:href="#m0713dbac20" y="166.820275"/>
     <use style="fill:#ff0000;stroke:#ff0000;" x="73.650337" xlink:href="#m0713dbac20" y="187.740678"/>
     <use style="fill:#ff0000;stroke:#ff0000;" x="77.662921" xlink:href="#m0713dbac20" y="197.952371"/>
     <use style="fill:#ff0000;stroke:#ff0000;" x="81.675506" xlink:href="#m0713dbac20" y="204.218404"/>
     <use style="fill:#ff0000;stroke:#ff0000;" x="85.68809" xlink:href="#m0713dbac20" y="207.158388"/>
     <use style="fill:#ff0000;stroke:#ff0000;" x="89.700674" xlink:href="#m0713dbac20" y="208.279141"/>
     <use style="fill:#ff0000;stroke:#ff0000;" x="93.713258" xlink:href="#m0713dbac20" y="208.041152"/>
     <use style="fill:#ff0000;stroke:#ff0000;" x="97.725843" xlink:href="#m0713dbac20" y="207.549899"/>
     <use style="fill:#ff0000;stroke:#ff0000;" x="101.738427" xlink:href="#m0713dbac20" y="206.154502"/>
     <use style="fill:#ff0000;stroke:#ff0000;" x="105.751011" xlink:href="#m0713dbac20" y="204.587999"/>
     <use style="fill:#ff0000;stroke:#ff0000;" x="109.763596" xlink:href="#m0713dbac20" y="202.428751"/>
     <use style="fill:#ff0000;stroke:#ff0000;" x="113.77618" xlink:href="#m0713dbac20" y="199.055005"/>
     <use style="fill:#ff0000;stroke:#ff0000;" x="117.788764" xlink:href="#m0713dbac20" y="196.385023"/>
     <use style="fill:#ff0000;stroke:#ff0000;" x="121.801348" xlink:href="#m0713dbac20" y="195.259124"/>
     <use style="fill:#ff0000;stroke:#ff0000;" x="125.813933" xlink:href="#m0713dbac20" y="191.335574"/>
     <use style="fill:#ff0000;stroke:#ff0000;" x="129.826517" xlink:href="#m0713dbac20" y="186.684748"/>
     <use style="fill:#ff0000;stroke:#ff0000;" x="133.839101" xlink:href="#m0713dbac20" y="184.407471"/>
     <use style="fill:#ff0000;stroke:#ff0000;" x="137.851685" xlink:href="#m0713dbac20" y="180.467573"/>
     <use style="fill:#ff0000;stroke:#ff0000;" x="141.86427" xlink:href="#m0713dbac20" y="177.691375"/>
     <use style="fill:#ff0000;stroke:#ff0000;" x="145.876854" xlink:href="#m0713dbac20" y="173.93231"/>
     <use style="fill:#ff0000;stroke:#ff0000;" x="149.889438" xlink:href="#m0713dbac20" y="171.268238"/>
     <use style="fill:#ff0000;stroke:#ff0000;" x="153.902022" xlink:href="#m0713dbac20" y="166.568171"/>
     <use style="fill:#ff0000;stroke:#ff0000;" x="157.914607" xlink:href="#m0713dbac20" y="165.578266"/>
     <use style="fill:#ff0000;stroke:#ff0000;" x="161.927191" xlink:href="#m0713dbac20" y="161.647813"/>
     <use style="fill:#ff0000;stroke:#ff0000;" x="165.939775" xlink:href="#m0713dbac20" y="158.494179"/>
     <use style="fill:#ff0000;stroke:#ff0000;" x="169.95236" xlink:href="#m0713dbac20" y="155.219691"/>
     <use style="fill:#ff0000;stroke:#ff0000;" x="173.964944" xlink:href="#m0713dbac20" y="151.774923"/>
     <use style="fill:#ff0000;stroke:#ff0000;" x="177.977528" xlink:href="#m0713dbac20" y="146.632985"/>
     <use style="fill:#ff0000;stroke:#ff0000;" x="181.990112" xlink:href="#m0713dbac20" y="141.753206"/>
     <use style="fill:#ff0000;stroke:#ff0000;" x="186.002697" xlink:href="#m0713dbac20" y="137.033424"/>
     <use style="fill:#ff0000;stroke:#ff0000;" x="190.015281" xlink:href="#m0713dbac20" y="137.284836"/>
     <use style="fill:#ff0000;stroke:#ff0000;" x="194.027865" xlink:href="#m0713dbac20" y="131.965829"/>
     <use style="fill:#ff0000;stroke:#ff0000;" x="198.040449" xlink:href="#m0713dbac20" y="130.736143"/>
     <use style="fill:#ff0000;stroke:#ff0000;" x="202.053034" xlink:href="#m0713dbac20" y="126.923404"/>
     <use style="fill:#ff0000;stroke:#ff0000;" x="206.065618" xlink:href="#m0713dbac20" y="126.126594"/>
     <use style="fill:#ff0000;stroke:#ff0000;" x="210.078202" xlink:href="#m0713dbac20" y="117.905854"/>
     <use style="fill:#ff0000;stroke:#ff0000;" x="214.090787" xlink:href="#m0713dbac20" y="112.055417"/>
     <use style="fill:#ff0000;stroke:#ff0000;" x="218.103371" xlink:href="#m0713dbac20" y="111.682051"/>
     <use style="fill:#ff0000;stroke:#ff0000;" x="222.115955" xlink:href="#m0713dbac20" y="106.48933"/>
     <use style="fill:#ff0000;stroke:#ff0000;" x="226.128539" xlink:href="#m0713dbac20" y="103.944393"/>
     <use style="fill:#ff0000;stroke:#ff0000;" x="230.141124" xlink:href="#m0713dbac20" y="101.938279"/>
     <use style="fill:#ff0000;stroke:#ff0000;" x="234.153708" xlink:href="#m0713dbac20" y="97.864614"/>
     <use style="fill:#ff0000;stroke:#ff0000;" x="238.166292" xlink:href="#m0713dbac20" y="100.074363"/>
     <use style="fill:#ff0000;stroke:#ff0000;" x="242.178876" xlink:href="#m0713dbac20" y="97.648353"/>
     <use style="fill:#ff0000;stroke:#ff0000;" x="246.191461" xlink:href="#m0713dbac20" y="100.678097"/>
     <use style="fill:#ff0000;stroke:#ff0000;" x="250.204045" xlink:href="#m0713dbac20" y="100.379571"/>
     <use style="fill:#ff0000;stroke:#ff0000;" x="254.216629" xlink:href="#m0713dbac20" y="100.952714"/>
     <use style="fill:#ff0000;stroke:#ff0000;" x="258.229213" xlink:href="#m0713dbac20" y="101.18445"/>
     <use style="fill:#ff0000;stroke:#ff0000;" x="262.241798" xlink:href="#m0713dbac20" y="98.420858"/>
     <use style="fill:#ff0000;stroke:#ff0000;" x="266.254382" xlink:href="#m0713dbac20" y="101.073754"/>
     <use style="fill:#ff0000;stroke:#ff0000;" x="270.266966" xlink:href="#m0713dbac20" y="100.875701"/>
     <use style="fill:#ff0000;stroke:#ff0000;" x="274.279551" xlink:href="#m0713dbac20" y="101.448656"/>
     <use style="fill:#ff0000;stroke:#ff0000;" x="278.292135" xlink:href="#m0713dbac20" y="98.543146"/>
     <use style="fill:#ff0000;stroke:#ff0000;" x="282.304719" xlink:href="#m0713dbac20" y="98.585899"/>
     <use style="fill:#ff0000;stroke:#ff0000;" x="286.317303" xlink:href="#m0713dbac20" y="97.958787"/>
     <use style="fill:#ff0000;stroke:#ff0000;" x="290.329888" xlink:href="#m0713dbac20" y="96.791463"/>
     <use style="fill:#ff0000;stroke:#ff0000;" x="294.342472" xlink:href="#m0713dbac20" y="93.00178"/>
     <use style="fill:#ff0000;stroke:#ff0000;" x="298.355056" xlink:href="#m0713dbac20" y="94.033137"/>
     <use style="fill:#ff0000;stroke:#ff0000;" x="302.36764" xlink:href="#m0713dbac20" y="99.539009"/>
     <use style="fill:#ff0000;stroke:#ff0000;" x="306.380225" xlink:href="#m0713dbac20" y="99.148691"/>
     <use style="fill:#ff0000;stroke:#ff0000;" x="310.392809" xlink:href="#m0713dbac20" y="98.484219"/>
     <use style="fill:#ff0000;stroke:#ff0000;" x="314.405393" xlink:href="#m0713dbac20" y="98.180038"/>
     <use style="fill:#ff0000;stroke:#ff0000;" x="318.417978" xlink:href="#m0713dbac20" y="92.58966"/>
     <use style="fill:#ff0000;stroke:#ff0000;" x="322.430562" xlink:href="#m0713dbac20" y="97.317707"/>
     <use style="fill:#ff0000;stroke:#ff0000;" x="326.443146" xlink:href="#m0713dbac20" y="91.25529"/>
     <use style="fill:#ff0000;stroke:#ff0000;" x="330.45573" xlink:href="#m0713dbac20" y="89.644444"/>
     <use style="fill:#ff0000;stroke:#ff0000;" x="334.468315" xlink:href="#m0713dbac20" y="90.429822"/>
     <use style="fill:#ff0000;stroke:#ff0000;" x="338.480899" xlink:href="#m0713dbac20" y="87.078509"/>
     <use style="fill:#ff0000;stroke:#ff0000;" x="342.493483" xlink:href="#m0713dbac20" y="88.792585"/>
     <use style="fill:#ff0000;stroke:#ff0000;" x="346.506067" xlink:href="#m0713dbac20" y="94.744005"/>
     <use style="fill:#ff0000;stroke:#ff0000;" x="350.518652" xlink:href="#m0713dbac20" y="94.757341"/>
     <use style="fill:#ff0000;stroke:#ff0000;" x="354.531236" xlink:href="#m0713dbac20" y="94.039041"/>
     <use style="fill:#ff0000;stroke:#ff0000;" x="358.54382" xlink:href="#m0713dbac20" y="93.474672"/>
     <use style="fill:#ff0000;stroke:#ff0000;" x="362.556404" xlink:href="#m0713dbac20" y="88.295858"/>
     <use style="fill:#ff0000;stroke:#ff0000;" x="366.568989" xlink:href="#m0713dbac20" y="89.409796"/>
     <use style="fill:#ff0000;stroke:#ff0000;" x="370.581573" xlink:href="#m0713dbac20" y="89.291076"/>
     <use style="fill:#ff0000;stroke:#ff0000;" x="374.594157" xlink:href="#m0713dbac20" y="90.486052"/>
     <use style="fill:#ff0000;stroke:#ff0000;" x="378.606742" xlink:href="#m0713dbac20" y="89.611371"/>
     <use style="fill:#ff0000;stroke:#ff0000;" x="382.619326" xlink:href="#m0713dbac20" y="89.952288"/>
     <use style="fill:#ff0000;stroke:#ff0000;" x="386.63191" xlink:href="#m0713dbac20" y="90.251015"/>
     <use style="fill:#ff0000;stroke:#ff0000;" x="390.644494" xlink:href="#m0713dbac20" y="93.881956"/>
     <use style="fill:#ff0000;stroke:#ff0000;" x="394.657079" xlink:href="#m0713dbac20" y="91.653684"/>
     <use style="fill:#ff0000;stroke:#ff0000;" x="398.669663" xlink:href="#m0713dbac20" y="85.897474"/>
     <use style="fill:#ff0000;stroke:#ff0000;" x="402.682247" xlink:href="#m0713dbac20" y="89.335117"/>
     <use style="fill:#ff0000;stroke:#ff0000;" x="406.694831" xlink:href="#m0713dbac20" y="89.488627"/>
     <use style="fill:#ff0000;stroke:#ff0000;" x="410.707416" xlink:href="#m0713dbac20" y="92.741244"/>
    </g>
   </g>
   <g id="line2d_63">
    <path clip-path="url(#p1c7a57f82c)" d="M 61.612584 91.694203 
L 65.625169 161.867431 
L 69.637753 197.199445 
L 73.650337 219.917467 
L 77.662921 230.671877 
L 81.675506 236.654367 
L 85.68809 240.933874 
L 89.700674 243.927838 
L 93.713258 245.670857 
L 97.725843 245.386201 
L 101.738427 245.797526 
L 105.751011 247.63187 
L 109.763596 247.849036 
L 113.77618 246.177325 
L 117.788764 245.490406 
L 121.801348 245.066412 
L 125.813933 242.909656 
L 129.826517 239.863541 
L 133.839101 238.340747 
L 137.851685 237.232334 
L 141.86427 234.791632 
L 145.876854 233.848911 
L 149.889438 232.202544 
L 153.902022 229.951906 
L 157.914607 230.533133 
L 161.927191 228.033834 
L 165.939775 226.535119 
L 169.95236 224.903608 
L 173.964944 223.130434 
L 177.977528 218.986351 
L 181.990112 216.685246 
L 186.002697 212.250271 
L 190.015281 213.77497 
L 194.027865 211.728508 
L 198.040449 211.114162 
L 202.053034 208.590682 
L 206.065618 208.261706 
L 210.078202 203.483423 
L 214.090787 199.74089 
L 218.103371 199.169703 
L 222.115955 196.310096 
L 226.128539 195.305318 
L 230.141124 194.610336 
L 234.153708 192.266394 
L 238.166292 193.663747 
L 242.178876 192.259263 
L 246.191461 194.273166 
L 250.204045 193.988416 
L 254.216629 194.649208 
L 258.229213 194.739876 
L 262.241798 192.916165 
L 266.254382 194.367923 
L 270.266966 194.338943 
L 274.279551 194.556273 
L 278.292135 193.159587 
L 282.304719 193.055868 
L 286.317303 191.883698 
L 290.329888 192.456562 
L 294.342472 188.536259 
L 298.355056 190.459108 
L 302.36764 193.558512 
L 306.380225 193.519878 
L 310.392809 192.62208 
L 314.405393 192.572145 
L 318.417978 187.700957 
L 322.430562 191.476079 
L 326.443146 187.232134 
L 330.45573 188.348131 
L 334.468315 186.092439 
L 338.480899 184.742639 
L 342.493483 183.640675 
L 346.506067 189.679359 
L 350.518652 189.131845 
L 354.531236 189.216472 
L 358.54382 188.240574 
L 362.556404 186.53746 
L 366.568989 187.181609 
L 370.581573 185.957116 
L 374.594157 187.013764 
L 378.606742 185.60875 
L 382.619326 186.028591 
L 386.63191 187.237913 
L 390.644494 189.209704 
L 394.657079 188.678723 
L 398.669663 183.210613 
L 402.682247 185.690321 
L 406.694831 186.855008 
L 410.707416 187.970174 
" style="fill:none;stroke:#008000;stroke-dasharray:1.5,2.475;stroke-dashoffset:0;stroke-width:1.5;"/>
    <defs>
     <path d="M 0 1.5 
C 0.397805 1.5 0.77937 1.341951 1.06066 1.06066 
C 1.341951 0.77937 1.5 0.397805 1.5 0 
C 1.5 -0.397805 1.341951 -0.77937 1.06066 -1.06066 
C 0.77937 -1.341951 0.397805 -1.5 0 -1.5 
C -0.397805 -1.5 -0.77937 -1.341951 -1.06066 -1.06066 
C -1.341951 -0.77937 -1.5 -0.397805 -1.5 0 
C -1.5 0.397805 -1.341951 0.77937 -1.06066 1.06066 
C -0.77937 1.341951 -0.397805 1.5 0 1.5 
z
" id="m03d2c5fdbf" style="stroke:#008000;"/>
    </defs>
    <g clip-path="url(#p1c7a57f82c)">
     <use style="fill:#008000;stroke:#008000;" x="61.612584" xlink:href="#m03d2c5fdbf" y="91.694203"/>
     <use style="fill:#008000;stroke:#008000;" x="65.625169" xlink:href="#m03d2c5fdbf" y="161.867431"/>
     <use style="fill:#008000;stroke:#008000;" x="69.637753" xlink:href="#m03d2c5fdbf" y="197.199445"/>
     <use style="fill:#008000;stroke:#008000;" x="73.650337" xlink:href="#m03d2c5fdbf" y="219.917467"/>
     <use style="fill:#008000;stroke:#008000;" x="77.662921" xlink:href="#m03d2c5fdbf" y="230.671877"/>
     <use style="fill:#008000;stroke:#008000;" x="81.675506" xlink:href="#m03d2c5fdbf" y="236.654367"/>
     <use style="fill:#008000;stroke:#008000;" x="85.68809" xlink:href="#m03d2c5fdbf" y="240.933874"/>
     <use style="fill:#008000;stroke:#008000;" x="89.700674" xlink:href="#m03d2c5fdbf" y="243.927838"/>
     <use style="fill:#008000;stroke:#008000;" x="93.713258" xlink:href="#m03d2c5fdbf" y="245.670857"/>
     <use style="fill:#008000;stroke:#008000;" x="97.725843" xlink:href="#m03d2c5fdbf" y="245.386201"/>
     <use style="fill:#008000;stroke:#008000;" x="101.738427" xlink:href="#m03d2c5fdbf" y="245.797526"/>
     <use style="fill:#008000;stroke:#008000;" x="105.751011" xlink:href="#m03d2c5fdbf" y="247.63187"/>
     <use style="fill:#008000;stroke:#008000;" x="109.763596" xlink:href="#m03d2c5fdbf" y="247.849036"/>
     <use style="fill:#008000;stroke:#008000;" x="113.77618" xlink:href="#m03d2c5fdbf" y="246.177325"/>
     <use style="fill:#008000;stroke:#008000;" x="117.788764" xlink:href="#m03d2c5fdbf" y="245.490406"/>
     <use style="fill:#008000;stroke:#008000;" x="121.801348" xlink:href="#m03d2c5fdbf" y="245.066412"/>
     <use style="fill:#008000;stroke:#008000;" x="125.813933" xlink:href="#m03d2c5fdbf" y="242.909656"/>
     <use style="fill:#008000;stroke:#008000;" x="129.826517" xlink:href="#m03d2c5fdbf" y="239.863541"/>
     <use style="fill:#008000;stroke:#008000;" x="133.839101" xlink:href="#m03d2c5fdbf" y="238.340747"/>
     <use style="fill:#008000;stroke:#008000;" x="137.851685" xlink:href="#m03d2c5fdbf" y="237.232334"/>
     <use style="fill:#008000;stroke:#008000;" x="141.86427" xlink:href="#m03d2c5fdbf" y="234.791632"/>
     <use style="fill:#008000;stroke:#008000;" x="145.876854" xlink:href="#m03d2c5fdbf" y="233.848911"/>
     <use style="fill:#008000;stroke:#008000;" x="149.889438" xlink:href="#m03d2c5fdbf" y="232.202544"/>
     <use style="fill:#008000;stroke:#008000;" x="153.902022" xlink:href="#m03d2c5fdbf" y="229.951906"/>
     <use style="fill:#008000;stroke:#008000;" x="157.914607" xlink:href="#m03d2c5fdbf" y="230.533133"/>
     <use style="fill:#008000;stroke:#008000;" x="161.927191" xlink:href="#m03d2c5fdbf" y="228.033834"/>
     <use style="fill:#008000;stroke:#008000;" x="165.939775" xlink:href="#m03d2c5fdbf" y="226.535119"/>
     <use style="fill:#008000;stroke:#008000;" x="169.95236" xlink:href="#m03d2c5fdbf" y="224.903608"/>
     <use style="fill:#008000;stroke:#008000;" x="173.964944" xlink:href="#m03d2c5fdbf" y="223.130434"/>
     <use style="fill:#008000;stroke:#008000;" x="177.977528" xlink:href="#m03d2c5fdbf" y="218.986351"/>
     <use style="fill:#008000;stroke:#008000;" x="181.990112" xlink:href="#m03d2c5fdbf" y="216.685246"/>
     <use style="fill:#008000;stroke:#008000;" x="186.002697" xlink:href="#m03d2c5fdbf" y="212.250271"/>
     <use style="fill:#008000;stroke:#008000;" x="190.015281" xlink:href="#m03d2c5fdbf" y="213.77497"/>
     <use style="fill:#008000;stroke:#008000;" x="194.027865" xlink:href="#m03d2c5fdbf" y="211.728508"/>
     <use style="fill:#008000;stroke:#008000;" x="198.040449" xlink:href="#m03d2c5fdbf" y="211.114162"/>
     <use style="fill:#008000;stroke:#008000;" x="202.053034" xlink:href="#m03d2c5fdbf" y="208.590682"/>
     <use style="fill:#008000;stroke:#008000;" x="206.065618" xlink:href="#m03d2c5fdbf" y="208.261706"/>
     <use style="fill:#008000;stroke:#008000;" x="210.078202" xlink:href="#m03d2c5fdbf" y="203.483423"/>
     <use style="fill:#008000;stroke:#008000;" x="214.090787" xlink:href="#m03d2c5fdbf" y="199.74089"/>
     <use style="fill:#008000;stroke:#008000;" x="218.103371" xlink:href="#m03d2c5fdbf" y="199.169703"/>
     <use style="fill:#008000;stroke:#008000;" x="222.115955" xlink:href="#m03d2c5fdbf" y="196.310096"/>
     <use style="fill:#008000;stroke:#008000;" x="226.128539" xlink:href="#m03d2c5fdbf" y="195.305318"/>
     <use style="fill:#008000;stroke:#008000;" x="230.141124" xlink:href="#m03d2c5fdbf" y="194.610336"/>
     <use style="fill:#008000;stroke:#008000;" x="234.153708" xlink:href="#m03d2c5fdbf" y="192.266394"/>
     <use style="fill:#008000;stroke:#008000;" x="238.166292" xlink:href="#m03d2c5fdbf" y="193.663747"/>
     <use style="fill:#008000;stroke:#008000;" x="242.178876" xlink:href="#m03d2c5fdbf" y="192.259263"/>
     <use style="fill:#008000;stroke:#008000;" x="246.191461" xlink:href="#m03d2c5fdbf" y="194.273166"/>
     <use style="fill:#008000;stroke:#008000;" x="250.204045" xlink:href="#m03d2c5fdbf" y="193.988416"/>
     <use style="fill:#008000;stroke:#008000;" x="254.216629" xlink:href="#m03d2c5fdbf" y="194.649208"/>
     <use style="fill:#008000;stroke:#008000;" x="258.229213" xlink:href="#m03d2c5fdbf" y="194.739876"/>
     <use style="fill:#008000;stroke:#008000;" x="262.241798" xlink:href="#m03d2c5fdbf" y="192.916165"/>
     <use style="fill:#008000;stroke:#008000;" x="266.254382" xlink:href="#m03d2c5fdbf" y="194.367923"/>
     <use style="fill:#008000;stroke:#008000;" x="270.266966" xlink:href="#m03d2c5fdbf" y="194.338943"/>
     <use style="fill:#008000;stroke:#008000;" x="274.279551" xlink:href="#m03d2c5fdbf" y="194.556273"/>
     <use style="fill:#008000;stroke:#008000;" x="278.292135" xlink:href="#m03d2c5fdbf" y="193.159587"/>
     <use style="fill:#008000;stroke:#008000;" x="282.304719" xlink:href="#m03d2c5fdbf" y="193.055868"/>
     <use style="fill:#008000;stroke:#008000;" x="286.317303" xlink:href="#m03d2c5fdbf" y="191.883698"/>
     <use style="fill:#008000;stroke:#008000;" x="290.329888" xlink:href="#m03d2c5fdbf" y="192.456562"/>
     <use style="fill:#008000;stroke:#008000;" x="294.342472" xlink:href="#m03d2c5fdbf" y="188.536259"/>
     <use style="fill:#008000;stroke:#008000;" x="298.355056" xlink:href="#m03d2c5fdbf" y="190.459108"/>
     <use style="fill:#008000;stroke:#008000;" x="302.36764" xlink:href="#m03d2c5fdbf" y="193.558512"/>
     <use style="fill:#008000;stroke:#008000;" x="306.380225" xlink:href="#m03d2c5fdbf" y="193.519878"/>
     <use style="fill:#008000;stroke:#008000;" x="310.392809" xlink:href="#m03d2c5fdbf" y="192.62208"/>
     <use style="fill:#008000;stroke:#008000;" x="314.405393" xlink:href="#m03d2c5fdbf" y="192.572145"/>
     <use style="fill:#008000;stroke:#008000;" x="318.417978" xlink:href="#m03d2c5fdbf" y="187.700957"/>
     <use style="fill:#008000;stroke:#008000;" x="322.430562" xlink:href="#m03d2c5fdbf" y="191.476079"/>
     <use style="fill:#008000;stroke:#008000;" x="326.443146" xlink:href="#m03d2c5fdbf" y="187.232134"/>
     <use style="fill:#008000;stroke:#008000;" x="330.45573" xlink:href="#m03d2c5fdbf" y="188.348131"/>
     <use style="fill:#008000;stroke:#008000;" x="334.468315" xlink:href="#m03d2c5fdbf" y="186.092439"/>
     <use style="fill:#008000;stroke:#008000;" x="338.480899" xlink:href="#m03d2c5fdbf" y="184.742639"/>
     <use style="fill:#008000;stroke:#008000;" x="342.493483" xlink:href="#m03d2c5fdbf" y="183.640675"/>
     <use style="fill:#008000;stroke:#008000;" x="346.506067" xlink:href="#m03d2c5fdbf" y="189.679359"/>
     <use style="fill:#008000;stroke:#008000;" x="350.518652" xlink:href="#m03d2c5fdbf" y="189.131845"/>
     <use style="fill:#008000;stroke:#008000;" x="354.531236" xlink:href="#m03d2c5fdbf" y="189.216472"/>
     <use style="fill:#008000;stroke:#008000;" x="358.54382" xlink:href="#m03d2c5fdbf" y="188.240574"/>
     <use style="fill:#008000;stroke:#008000;" x="362.556404" xlink:href="#m03d2c5fdbf" y="186.53746"/>
     <use style="fill:#008000;stroke:#008000;" x="366.568989" xlink:href="#m03d2c5fdbf" y="187.181609"/>
     <use style="fill:#008000;stroke:#008000;" x="370.581573" xlink:href="#m03d2c5fdbf" y="185.957116"/>
     <use style="fill:#008000;stroke:#008000;" x="374.594157" xlink:href="#m03d2c5fdbf" y="187.013764"/>
     <use style="fill:#008000;stroke:#008000;" x="378.606742" xlink:href="#m03d2c5fdbf" y="185.60875"/>
     <use style="fill:#008000;stroke:#008000;" x="382.619326" xlink:href="#m03d2c5fdbf" y="186.028591"/>
     <use style="fill:#008000;stroke:#008000;" x="386.63191" xlink:href="#m03d2c5fdbf" y="187.237913"/>
     <use style="fill:#008000;stroke:#008000;" x="390.644494" xlink:href="#m03d2c5fdbf" y="189.209704"/>
     <use style="fill:#008000;stroke:#008000;" x="394.657079" xlink:href="#m03d2c5fdbf" y="188.678723"/>
     <use style="fill:#008000;stroke:#008000;" x="398.669663" xlink:href="#m03d2c5fdbf" y="183.210613"/>
     <use style="fill:#008000;stroke:#008000;" x="402.682247" xlink:href="#m03d2c5fdbf" y="185.690321"/>
     <use style="fill:#008000;stroke:#008000;" x="406.694831" xlink:href="#m03d2c5fdbf" y="186.855008"/>
     <use style="fill:#008000;stroke:#008000;" x="410.707416" xlink:href="#m03d2c5fdbf" y="187.970174"/>
    </g>
   </g>
   <g id="patch_3">
    <path d="M 57.6 307.584 
L 57.6 41.472 
" style="fill:none;stroke:#000000;stroke-linecap:square;stroke-linejoin:miter;stroke-width:0.8;"/>
   </g>
   <g id="patch_4">
    <path d="M 414.72 307.584 
L 414.72 41.472 
" style="fill:none;stroke:#000000;stroke-linecap:square;stroke-linejoin:miter;stroke-width:0.8;"/>
   </g>
   <g id="patch_5">
    <path d="M 57.6 307.584 
L 414.72 307.584 
" style="fill:none;stroke:#000000;stroke-linecap:square;stroke-linejoin:miter;stroke-width:0.8;"/>
   </g>
   <g id="patch_6">
    <path d="M 57.6 41.472 
L 414.72 41.472 
" style="fill:none;stroke:#000000;stroke-linecap:square;stroke-linejoin:miter;stroke-width:0.8;"/>
   </g>
   <g id="text_33">
    <!-- MKL iomp 2PV on pre_transpose51 -->
    <defs>
     <path d="M 9.8125 72.90625 
L 24.515625 72.90625 
L 43.109375 23.296875 
L 61.8125 72.90625 
L 76.515625 72.90625 
L 76.515625 0 
L 66.890625 0 
L 66.890625 64.015625 
L 48.09375 14.015625 
L 38.1875 14.015625 
L 19.390625 64.015625 
L 19.390625 0 
L 9.8125 0 
z
" id="DejaVuSans-77"/>
     <path d="M 9.8125 72.90625 
L 19.671875 72.90625 
L 19.671875 42.09375 
L 52.390625 72.90625 
L 65.09375 72.90625 
L 28.90625 38.921875 
L 67.671875 0 
L 54.6875 0 
L 19.671875 35.109375 
L 19.671875 0 
L 9.8125 0 
z
" id="DejaVuSans-75"/>
     <path d="M 9.8125 72.90625 
L 19.671875 72.90625 
L 19.671875 8.296875 
L 55.171875 8.296875 
L 55.171875 0 
L 9.8125 0 
z
" id="DejaVuSans-76"/>
     <path d="M 52 44.1875 
Q 55.375 50.25 60.0625 53.125 
Q 64.75 56 71.09375 56 
Q 79.640625 56 84.28125 50.015625 
Q 88.921875 44.046875 88.921875 33.015625 
L 88.921875 0 
L 79.890625 0 
L 79.890625 32.71875 
Q 79.890625 40.578125 77.09375 44.375 
Q 74.3125 48.1875 68.609375 48.1875 
Q 61.625 48.1875 57.5625 43.546875 
Q 53.515625 38.921875 53.515625 30.90625 
L 53.515625 0 
L 44.484375 0 
L 44.484375 32.71875 
Q 44.484375 40.625 41.703125 44.40625 
Q 38.921875 48.1875 33.109375 48.1875 
Q 26.21875 48.1875 22.15625 43.53125 
Q 18.109375 38.875 18.109375 30.90625 
L 18.109375 0 
L 9.078125 0 
L 9.078125 54.6875 
L 18.109375 54.6875 
L 18.109375 46.1875 
Q 21.1875 51.21875 25.484375 53.609375 
Q 29.78125 56 35.6875 56 
Q 41.65625 56 45.828125 52.96875 
Q 50 49.953125 52 44.1875 
z
" id="DejaVuSans-109"/>
     <path d="M 18.109375 8.203125 
L 18.109375 -20.796875 
L 9.078125 -20.796875 
L 9.078125 54.6875 
L 18.109375 54.6875 
L 18.109375 46.390625 
Q 20.953125 51.265625 25.265625 53.625 
Q 29.59375 56 35.59375 56 
Q 45.5625 56 51.78125 48.09375 
Q 58.015625 40.1875 58.015625 27.296875 
Q 58.015625 14.40625 51.78125 6.484375 
Q 45.5625 -1.421875 35.59375 -1.421875 
Q 29.59375 -1.421875 25.265625 0.953125 
Q 20.953125 3.328125 18.109375 8.203125 
z
M 48.6875 27.296875 
Q 48.6875 37.203125 44.609375 42.84375 
Q 40.53125 48.484375 33.40625 48.484375 
Q 26.265625 48.484375 22.1875 42.84375 
Q 18.109375 37.203125 18.109375 27.296875 
Q 18.109375 17.390625 22.1875 11.75 
Q 26.265625 6.109375 33.40625 6.109375 
Q 40.53125 6.109375 44.609375 11.75 
Q 48.6875 17.390625 48.6875 27.296875 
z
" id="DejaVuSans-112"/>
     <path d="M 19.671875 64.796875 
L 19.671875 37.40625 
L 32.078125 37.40625 
Q 38.96875 37.40625 42.71875 40.96875 
Q 46.484375 44.53125 46.484375 51.125 
Q 46.484375 57.671875 42.71875 61.234375 
Q 38.96875 64.796875 32.078125 64.796875 
z
M 9.8125 72.90625 
L 32.078125 72.90625 
Q 44.34375 72.90625 50.609375 67.359375 
Q 56.890625 61.8125 56.890625 51.125 
Q 56.890625 40.328125 50.609375 34.8125 
Q 44.34375 29.296875 32.078125 29.296875 
L 19.671875 29.296875 
L 19.671875 0 
L 9.8125 0 
z
" id="DejaVuSans-80"/>
     <path d="M 28.609375 0 
L 0.78125 72.90625 
L 11.078125 72.90625 
L 34.1875 11.53125 
L 57.328125 72.90625 
L 67.578125 72.90625 
L 39.796875 0 
z
" id="DejaVuSans-86"/>
     <path d="M 50.984375 -16.609375 
L 50.984375 -23.578125 
L -0.984375 -23.578125 
L -0.984375 -16.609375 
z
" id="DejaVuSans-95"/>
    </defs>
    <g transform="translate(131.88375 35.472)scale(0.12 -0.12)">
     <use xlink:href="#DejaVuSans-77"/>
     <use x="86.279297" xlink:href="#DejaVuSans-75"/>
     <use x="151.855469" xlink:href="#DejaVuSans-76"/>
     <use x="207.568359" xlink:href="#DejaVuSans-32"/>
     <use x="239.355469" xlink:href="#DejaVuSans-105"/>
     <use x="267.138672" xlink:href="#DejaVuSans-111"/>
     <use x="328.320312" xlink:href="#DejaVuSans-109"/>
     <use x="425.732422" xlink:href="#DejaVuSans-112"/>
     <use x="489.208984" xlink:href="#DejaVuSans-32"/>
     <use x="520.996094" xlink:href="#DejaVuSans-50"/>
     <use x="584.619141" xlink:href="#DejaVuSans-80"/>
     <use x="644.921875" xlink:href="#DejaVuSans-86"/>
     <use x="713.330078" xlink:href="#DejaVuSans-32"/>
     <use x="745.117188" xlink:href="#DejaVuSans-111"/>
     <use x="806.298828" xlink:href="#DejaVuSans-110"/>
     <use x="869.677734" xlink:href="#DejaVuSans-32"/>
     <use x="901.464844" xlink:href="#DejaVuSans-112"/>
     <use x="964.941406" xlink:href="#DejaVuSans-114"/>
     <use x="1003.804688" xlink:href="#DejaVuSans-101"/>
     <use x="1065.328125" xlink:href="#DejaVuSans-95"/>
     <use x="1115.328125" xlink:href="#DejaVuSans-116"/>
     <use x="1154.537109" xlink:href="#DejaVuSans-114"/>
     <use x="1195.650391" xlink:href="#DejaVuSans-97"/>
     <use x="1256.929688" xlink:href="#DejaVuSans-110"/>
     <use x="1320.308594" xlink:href="#DejaVuSans-115"/>
     <use x="1372.408203" xlink:href="#DejaVuSans-112"/>
     <use x="1435.884766" xlink:href="#DejaVuSans-111"/>
     <use x="1497.066406" xlink:href="#DejaVuSans-115"/>
     <use x="1549.166016" xlink:href="#DejaVuSans-101"/>
     <use x="1610.689453" xlink:href="#DejaVuSans-53"/>
     <use x="1674.3125" xlink:href="#DejaVuSans-49"/>
    </g>
   </g>
   <g id="legend_1">
    <g id="patch_7">
     <path d="M 188.876406 93.7845 
L 283.443594 93.7845 
Q 285.443594 93.7845 285.443594 91.7845 
L 285.443594 48.472 
Q 285.443594 46.472 283.443594 46.472 
L 188.876406 46.472 
Q 186.876406 46.472 186.876406 48.472 
L 186.876406 91.7845 
Q 186.876406 93.7845 188.876406 93.7845 
z
" style="fill:#ffffff;opacity:0.8;stroke:#cccccc;stroke-linejoin:miter;"/>
    </g>
    <g id="line2d_64">
     <path d="M 190.876406 54.570438 
L 210.876406 54.570438 
" style="fill:none;stroke:#0000ff;stroke-dasharray:1.5,2.475;stroke-dashoffset:0;stroke-width:1.5;"/>
    </g>
    <g id="line2d_65">
     <g>
      <use style="fill:#0000ff;stroke:#0000ff;" x="200.876406" xlink:href="#m040d69398b" y="54.570438"/>
     </g>
    </g>
    <g id="text_34">
     <!-- transpose -->
     <g transform="translate(218.876406 58.070438)scale(0.1 -0.1)">
      <use xlink:href="#DejaVuSans-116"/>
      <use x="39.208984" xlink:href="#DejaVuSans-114"/>
      <use x="80.322266" xlink:href="#DejaVuSans-97"/>
      <use x="141.601562" xlink:href="#DejaVuSans-110"/>
      <use x="204.980469" xlink:href="#DejaVuSans-115"/>
      <use x="257.080078" xlink:href="#DejaVuSans-112"/>
      <use x="320.556641" xlink:href="#DejaVuSans-111"/>
      <use x="381.738281" xlink:href="#DejaVuSans-115"/>
      <use x="433.837891" xlink:href="#DejaVuSans-101"/>
     </g>
    </g>
    <g id="line2d_66">
     <path d="M 190.876406 69.248563 
L 210.876406 69.248563 
" style="fill:none;stroke:#ff0000;stroke-dasharray:1.5,2.475;stroke-dashoffset:0;stroke-width:1.5;"/>
    </g>
    <g id="line2d_67">
     <g>
      <use style="fill:#ff0000;stroke:#ff0000;" x="200.876406" xlink:href="#m0713dbac20" y="69.248563"/>
     </g>
    </g>
    <g id="text_35">
     <!-- transpose_tr -->
     <g transform="translate(218.876406 72.748563)scale(0.1 -0.1)">
      <use xlink:href="#DejaVuSans-116"/>
      <use x="39.208984" xlink:href="#DejaVuSans-114"/>
      <use x="80.322266" xlink:href="#DejaVuSans-97"/>
      <use x="141.601562" xlink:href="#DejaVuSans-110"/>
      <use x="204.980469" xlink:href="#DejaVuSans-115"/>
      <use x="257.080078" xlink:href="#DejaVuSans-112"/>
      <use x="320.556641" xlink:href="#DejaVuSans-111"/>
      <use x="381.738281" xlink:href="#DejaVuSans-115"/>
      <use x="433.837891" xlink:href="#DejaVuSans-101"/>
      <use x="495.361328" xlink:href="#DejaVuSans-95"/>
      <use x="545.361328" xlink:href="#DejaVuSans-116"/>
      <use x="584.570312" xlink:href="#DejaVuSans-114"/>
     </g>
    </g>
    <g id="line2d_68">
     <path d="M 190.876406 84.204813 
L 210.876406 84.204813 
" style="fill:none;stroke:#008000;stroke-dasharray:1.5,2.475;stroke-dashoffset:0;stroke-width:1.5;"/>
    </g>
    <g id="line2d_69">
     <g>
      <use style="fill:#008000;stroke:#008000;" x="200.876406" xlink:href="#m03d2c5fdbf" y="84.204813"/>
     </g>
    </g>
    <g id="text_36">
     <!-- mean -->
     <g transform="translate(218.876406 87.704813)scale(0.1 -0.1)">
      <use xlink:href="#DejaVuSans-109"/>
      <use x="97.412109" xlink:href="#DejaVuSans-101"/>
      <use x="158.935547" xlink:href="#DejaVuSans-97"/>
      <use x="220.214844" xlink:href="#DejaVuSans-110"/>
     </g>
    </g>
   </g>
  </g>
 </g>
 <defs>
  <clipPath id="p1c7a57f82c">
   <rect height="266.112" width="357.12" x="57.6" y="41.472"/>
  </clipPath>
 </defs>
</svg>
