<?xml version="1.0" encoding="utf-8" standalone="no"?>
<!DOCTYPE svg PUBLIC "-//W3C//DTD SVG 1.1//EN"
  "http://www.w3.org/Graphics/SVG/1.1/DTD/svg11.dtd">
<!-- Created with matplotlib (https://matplotlib.org/) -->
<svg height="345.6pt" version="1.1" viewBox="0 0 460.8 345.6" width="460.8pt" xmlns="http://www.w3.org/2000/svg" xmlns:xlink="http://www.w3.org/1999/xlink">
 <defs>
  <style type="text/css">
*{stroke-linecap:butt;stroke-linejoin:round;}
  </style>
 </defs>
 <g id="figure_1">
  <g id="patch_1">
   <path d="M 0 345.6 
L 460.8 345.6 
L 460.8 0 
L 0 0 
z
" style="fill:#ffffff;"/>
  </g>
  <g id="axes_1">
   <g id="patch_2">
    <path d="M 57.6 307.584 
L 414.72 307.584 
L 414.72 41.472 
L 57.6 41.472 
z
" style="fill:#ffffff;"/>
   </g>
   <g id="matplotlib.axis_1">
    <g id="xtick_1">
     <g id="line2d_1">
      <path clip-path="url(#p70950aa4a7)" d="M 61.612584 307.584 
L 61.612584 41.472 
" style="fill:none;stroke:#b0b0b0;stroke-dasharray:5.12,1.28,0.8,1.28;stroke-dashoffset:0;stroke-width:0.8;"/>
     </g>
     <g id="line2d_2">
      <defs>
       <path d="M 0 0 
L 0 3.5 
" id="m27e8389cdc" style="stroke:#000000;stroke-width:0.8;"/>
      </defs>
      <g>
       <use style="stroke:#000000;stroke-width:0.8;" x="61.612584" xlink:href="#m27e8389cdc" y="307.584"/>
      </g>
     </g>
     <g id="text_1">
      <!-- 1 -->
      <defs>
       <path d="M 12.40625 8.296875 
L 28.515625 8.296875 
L 28.515625 63.921875 
L 10.984375 60.40625 
L 10.984375 69.390625 
L 28.421875 72.90625 
L 38.28125 72.90625 
L 38.28125 8.296875 
L 54.390625 8.296875 
L 54.390625 0 
L 12.40625 0 
z
" id="DejaVuSans-49"/>
      </defs>
      <g transform="translate(58.431334 322.182437)scale(0.1 -0.1)">
       <use xlink:href="#DejaVuSans-49"/>
      </g>
     </g>
    </g>
    <g id="xtick_2">
     <g id="line2d_3">
      <path clip-path="url(#p70950aa4a7)" d="M 73.650337 307.584 
L 73.650337 41.472 
" style="fill:none;stroke:#b0b0b0;stroke-dasharray:5.12,1.28,0.8,1.28;stroke-dashoffset:0;stroke-width:0.8;"/>
     </g>
     <g id="line2d_4">
      <g>
       <use style="stroke:#000000;stroke-width:0.8;" x="73.650337" xlink:href="#m27e8389cdc" y="307.584"/>
      </g>
     </g>
     <g id="text_2">
      <!-- 4 -->
      <defs>
       <path d="M 37.796875 64.3125 
L 12.890625 25.390625 
L 37.796875 25.390625 
z
M 35.203125 72.90625 
L 47.609375 72.90625 
L 47.609375 25.390625 
L 58.015625 25.390625 
L 58.015625 17.1875 
L 47.609375 17.1875 
L 47.609375 0 
L 37.796875 0 
L 37.796875 17.1875 
L 4.890625 17.1875 
L 4.890625 26.703125 
z
" id="DejaVuSans-52"/>
      </defs>
      <g transform="translate(70.469087 322.182437)scale(0.1 -0.1)">
       <use xlink:href="#DejaVuSans-52"/>
      </g>
     </g>
    </g>
    <g id="xtick_3">
     <g id="line2d_5">
      <path clip-path="url(#p70950aa4a7)" d="M 89.700674 307.584 
L 89.700674 41.472 
" style="fill:none;stroke:#b0b0b0;stroke-dasharray:5.12,1.28,0.8,1.28;stroke-dashoffset:0;stroke-width:0.8;"/>
     </g>
     <g id="line2d_6">
      <g>
       <use style="stroke:#000000;stroke-width:0.8;" x="89.700674" xlink:href="#m27e8389cdc" y="307.584"/>
      </g>
     </g>
     <g id="text_3">
      <!-- 8 -->
      <defs>
       <path d="M 31.78125 34.625 
Q 24.75 34.625 20.71875 30.859375 
Q 16.703125 27.09375 16.703125 20.515625 
Q 16.703125 13.921875 20.71875 10.15625 
Q 24.75 6.390625 31.78125 6.390625 
Q 38.8125 6.390625 42.859375 10.171875 
Q 46.921875 13.96875 46.921875 20.515625 
Q 46.921875 27.09375 42.890625 30.859375 
Q 38.875 34.625 31.78125 34.625 
z
M 21.921875 38.8125 
Q 15.578125 40.375 12.03125 44.71875 
Q 8.5 49.078125 8.5 55.328125 
Q 8.5 64.0625 14.71875 69.140625 
Q 20.953125 74.21875 31.78125 74.21875 
Q 42.671875 74.21875 48.875 69.140625 
Q 55.078125 64.0625 55.078125 55.328125 
Q 55.078125 49.078125 51.53125 44.71875 
Q 48 40.375 41.703125 38.8125 
Q 48.828125 37.15625 52.796875 32.3125 
Q 56.78125 27.484375 56.78125 20.515625 
Q 56.78125 9.90625 50.3125 4.234375 
Q 43.84375 -1.421875 31.78125 -1.421875 
Q 19.734375 -1.421875 13.25 4.234375 
Q 6.78125 9.90625 6.78125 20.515625 
Q 6.78125 27.484375 10.78125 32.3125 
Q 14.796875 37.15625 21.921875 38.8125 
z
M 18.3125 54.390625 
Q 18.3125 48.734375 21.84375 45.5625 
Q 25.390625 42.390625 31.78125 42.390625 
Q 38.140625 42.390625 41.71875 45.5625 
Q 45.3125 48.734375 45.3125 54.390625 
Q 45.3125 60.0625 41.71875 63.234375 
Q 38.140625 66.40625 31.78125 66.40625 
Q 25.390625 66.40625 21.84375 63.234375 
Q 18.3125 60.0625 18.3125 54.390625 
z
" id="DejaVuSans-56"/>
      </defs>
      <g transform="translate(86.519424 322.182437)scale(0.1 -0.1)">
       <use xlink:href="#DejaVuSans-56"/>
      </g>
     </g>
    </g>
    <g id="xtick_4">
     <g id="line2d_7">
      <path clip-path="url(#p70950aa4a7)" d="M 105.751011 307.584 
L 105.751011 41.472 
" style="fill:none;stroke:#b0b0b0;stroke-dasharray:5.12,1.28,0.8,1.28;stroke-dashoffset:0;stroke-width:0.8;"/>
     </g>
     <g id="line2d_8">
      <g>
       <use style="stroke:#000000;stroke-width:0.8;" x="105.751011" xlink:href="#m27e8389cdc" y="307.584"/>
      </g>
     </g>
     <g id="text_4">
      <!-- 12 -->
      <defs>
       <path d="M 19.1875 8.296875 
L 53.609375 8.296875 
L 53.609375 0 
L 7.328125 0 
L 7.328125 8.296875 
Q 12.9375 14.109375 22.625 23.890625 
Q 32.328125 33.6875 34.8125 36.53125 
Q 39.546875 41.84375 41.421875 45.53125 
Q 43.3125 49.21875 43.3125 52.78125 
Q 43.3125 58.59375 39.234375 62.25 
Q 35.15625 65.921875 28.609375 65.921875 
Q 23.96875 65.921875 18.8125 64.3125 
Q 13.671875 62.703125 7.8125 59.421875 
L 7.8125 69.390625 
Q 13.765625 71.78125 18.9375 73 
Q 24.125 74.21875 28.421875 74.21875 
Q 39.75 74.21875 46.484375 68.546875 
Q 53.21875 62.890625 53.21875 53.421875 
Q 53.21875 48.921875 51.53125 44.890625 
Q 49.859375 40.875 45.40625 35.40625 
Q 44.1875 33.984375 37.640625 27.21875 
Q 31.109375 20.453125 19.1875 8.296875 
z
" id="DejaVuSans-50"/>
      </defs>
      <g transform="translate(99.388511 322.182437)scale(0.1 -0.1)">
       <use xlink:href="#DejaVuSans-49"/>
       <use x="63.623047" xlink:href="#DejaVuSans-50"/>
      </g>
     </g>
    </g>
    <g id="xtick_5">
     <g id="line2d_9">
      <path clip-path="url(#p70950aa4a7)" d="M 121.801348 307.584 
L 121.801348 41.472 
" style="fill:none;stroke:#b0b0b0;stroke-dasharray:5.12,1.28,0.8,1.28;stroke-dashoffset:0;stroke-width:0.8;"/>
     </g>
     <g id="line2d_10">
      <g>
       <use style="stroke:#000000;stroke-width:0.8;" x="121.801348" xlink:href="#m27e8389cdc" y="307.584"/>
      </g>
     </g>
     <g id="text_5">
      <!-- 16 -->
      <defs>
       <path d="M 33.015625 40.375 
Q 26.375 40.375 22.484375 35.828125 
Q 18.609375 31.296875 18.609375 23.390625 
Q 18.609375 15.53125 22.484375 10.953125 
Q 26.375 6.390625 33.015625 6.390625 
Q 39.65625 6.390625 43.53125 10.953125 
Q 47.40625 15.53125 47.40625 23.390625 
Q 47.40625 31.296875 43.53125 35.828125 
Q 39.65625 40.375 33.015625 40.375 
z
M 52.59375 71.296875 
L 52.59375 62.3125 
Q 48.875 64.0625 45.09375 64.984375 
Q 41.3125 65.921875 37.59375 65.921875 
Q 27.828125 65.921875 22.671875 59.328125 
Q 17.53125 52.734375 16.796875 39.40625 
Q 19.671875 43.65625 24.015625 45.921875 
Q 28.375 48.1875 33.59375 48.1875 
Q 44.578125 48.1875 50.953125 41.515625 
Q 57.328125 34.859375 57.328125 23.390625 
Q 57.328125 12.15625 50.6875 5.359375 
Q 44.046875 -1.421875 33.015625 -1.421875 
Q 20.359375 -1.421875 13.671875 8.265625 
Q 6.984375 17.96875 6.984375 36.375 
Q 6.984375 53.65625 15.1875 63.9375 
Q 23.390625 74.21875 37.203125 74.21875 
Q 40.921875 74.21875 44.703125 73.484375 
Q 48.484375 72.75 52.59375 71.296875 
z
" id="DejaVuSans-54"/>
      </defs>
      <g transform="translate(115.438848 322.182437)scale(0.1 -0.1)">
       <use xlink:href="#DejaVuSans-49"/>
       <use x="63.623047" xlink:href="#DejaVuSans-54"/>
      </g>
     </g>
    </g>
    <g id="xtick_6">
     <g id="line2d_11">
      <path clip-path="url(#p70950aa4a7)" d="M 137.851685 307.584 
L 137.851685 41.472 
" style="fill:none;stroke:#b0b0b0;stroke-dasharray:5.12,1.28,0.8,1.28;stroke-dashoffset:0;stroke-width:0.8;"/>
     </g>
     <g id="line2d_12">
      <g>
       <use style="stroke:#000000;stroke-width:0.8;" x="137.851685" xlink:href="#m27e8389cdc" y="307.584"/>
      </g>
     </g>
     <g id="text_6">
      <!-- 20 -->
      <defs>
       <path d="M 31.78125 66.40625 
Q 24.171875 66.40625 20.328125 58.90625 
Q 16.5 51.421875 16.5 36.375 
Q 16.5 21.390625 20.328125 13.890625 
Q 24.171875 6.390625 31.78125 6.390625 
Q 39.453125 6.390625 43.28125 13.890625 
Q 47.125 21.390625 47.125 36.375 
Q 47.125 51.421875 43.28125 58.90625 
Q 39.453125 66.40625 31.78125 66.40625 
z
M 31.78125 74.21875 
Q 44.046875 74.21875 50.515625 64.515625 
Q 56.984375 54.828125 56.984375 36.375 
Q 56.984375 17.96875 50.515625 8.265625 
Q 44.046875 -1.421875 31.78125 -1.421875 
Q 19.53125 -1.421875 13.0625 8.265625 
Q 6.59375 17.96875 6.59375 36.375 
Q 6.59375 54.828125 13.0625 64.515625 
Q 19.53125 74.21875 31.78125 74.21875 
z
" id="DejaVuSans-48"/>
      </defs>
      <g transform="translate(131.489185 322.182437)scale(0.1 -0.1)">
       <use xlink:href="#DejaVuSans-50"/>
       <use x="63.623047" xlink:href="#DejaVuSans-48"/>
      </g>
     </g>
    </g>
    <g id="xtick_7">
     <g id="line2d_13">
      <path clip-path="url(#p70950aa4a7)" d="M 153.902022 307.584 
L 153.902022 41.472 
" style="fill:none;stroke:#b0b0b0;stroke-dasharray:5.12,1.28,0.8,1.28;stroke-dashoffset:0;stroke-width:0.8;"/>
     </g>
     <g id="line2d_14">
      <g>
       <use style="stroke:#000000;stroke-width:0.8;" x="153.902022" xlink:href="#m27e8389cdc" y="307.584"/>
      </g>
     </g>
     <g id="text_7">
      <!-- 24 -->
      <g transform="translate(147.539522 322.182437)scale(0.1 -0.1)">
       <use xlink:href="#DejaVuSans-50"/>
       <use x="63.623047" xlink:href="#DejaVuSans-52"/>
      </g>
     </g>
    </g>
    <g id="xtick_8">
     <g id="line2d_15">
      <path clip-path="url(#p70950aa4a7)" d="M 169.95236 307.584 
L 169.95236 41.472 
" style="fill:none;stroke:#b0b0b0;stroke-dasharray:5.12,1.28,0.8,1.28;stroke-dashoffset:0;stroke-width:0.8;"/>
     </g>
     <g id="line2d_16">
      <g>
       <use style="stroke:#000000;stroke-width:0.8;" x="169.95236" xlink:href="#m27e8389cdc" y="307.584"/>
      </g>
     </g>
     <g id="text_8">
      <!-- 28 -->
      <g transform="translate(163.58986 322.182437)scale(0.1 -0.1)">
       <use xlink:href="#DejaVuSans-50"/>
       <use x="63.623047" xlink:href="#DejaVuSans-56"/>
      </g>
     </g>
    </g>
    <g id="xtick_9">
     <g id="line2d_17">
      <path clip-path="url(#p70950aa4a7)" d="M 186.002697 307.584 
L 186.002697 41.472 
" style="fill:none;stroke:#b0b0b0;stroke-dasharray:5.12,1.28,0.8,1.28;stroke-dashoffset:0;stroke-width:0.8;"/>
     </g>
     <g id="line2d_18">
      <g>
       <use style="stroke:#000000;stroke-width:0.8;" x="186.002697" xlink:href="#m27e8389cdc" y="307.584"/>
      </g>
     </g>
     <g id="text_9">
      <!-- 32 -->
      <defs>
       <path d="M 40.578125 39.3125 
Q 47.65625 37.796875 51.625 33 
Q 55.609375 28.21875 55.609375 21.1875 
Q 55.609375 10.40625 48.1875 4.484375 
Q 40.765625 -1.421875 27.09375 -1.421875 
Q 22.515625 -1.421875 17.65625 -0.515625 
Q 12.796875 0.390625 7.625 2.203125 
L 7.625 11.71875 
Q 11.71875 9.328125 16.59375 8.109375 
Q 21.484375 6.890625 26.8125 6.890625 
Q 36.078125 6.890625 40.9375 10.546875 
Q 45.796875 14.203125 45.796875 21.1875 
Q 45.796875 27.640625 41.28125 31.265625 
Q 36.765625 34.90625 28.71875 34.90625 
L 20.21875 34.90625 
L 20.21875 43.015625 
L 29.109375 43.015625 
Q 36.375 43.015625 40.234375 45.921875 
Q 44.09375 48.828125 44.09375 54.296875 
Q 44.09375 59.90625 40.109375 62.90625 
Q 36.140625 65.921875 28.71875 65.921875 
Q 24.65625 65.921875 20.015625 65.03125 
Q 15.375 64.15625 9.8125 62.3125 
L 9.8125 71.09375 
Q 15.4375 72.65625 20.34375 73.4375 
Q 25.25 74.21875 29.59375 74.21875 
Q 40.828125 74.21875 47.359375 69.109375 
Q 53.90625 64.015625 53.90625 55.328125 
Q 53.90625 49.265625 50.4375 45.09375 
Q 46.96875 40.921875 40.578125 39.3125 
z
" id="DejaVuSans-51"/>
      </defs>
      <g transform="translate(179.640197 322.182437)scale(0.1 -0.1)">
       <use xlink:href="#DejaVuSans-51"/>
       <use x="63.623047" xlink:href="#DejaVuSans-50"/>
      </g>
     </g>
    </g>
    <g id="xtick_10">
     <g id="line2d_19">
      <path clip-path="url(#p70950aa4a7)" d="M 202.053034 307.584 
L 202.053034 41.472 
" style="fill:none;stroke:#b0b0b0;stroke-dasharray:5.12,1.28,0.8,1.28;stroke-dashoffset:0;stroke-width:0.8;"/>
     </g>
     <g id="line2d_20">
      <g>
       <use style="stroke:#000000;stroke-width:0.8;" x="202.053034" xlink:href="#m27e8389cdc" y="307.584"/>
      </g>
     </g>
     <g id="text_10">
      <!-- 36 -->
      <g transform="translate(195.690534 322.182437)scale(0.1 -0.1)">
       <use xlink:href="#DejaVuSans-51"/>
       <use x="63.623047" xlink:href="#DejaVuSans-54"/>
      </g>
     </g>
    </g>
    <g id="xtick_11">
     <g id="line2d_21">
      <path clip-path="url(#p70950aa4a7)" d="M 218.103371 307.584 
L 218.103371 41.472 
" style="fill:none;stroke:#b0b0b0;stroke-dasharray:5.12,1.28,0.8,1.28;stroke-dashoffset:0;stroke-width:0.8;"/>
     </g>
     <g id="line2d_22">
      <g>
       <use style="stroke:#000000;stroke-width:0.8;" x="218.103371" xlink:href="#m27e8389cdc" y="307.584"/>
      </g>
     </g>
     <g id="text_11">
      <!-- 40 -->
      <g transform="translate(211.740871 322.182437)scale(0.1 -0.1)">
       <use xlink:href="#DejaVuSans-52"/>
       <use x="63.623047" xlink:href="#DejaVuSans-48"/>
      </g>
     </g>
    </g>
    <g id="xtick_12">
     <g id="line2d_23">
      <path clip-path="url(#p70950aa4a7)" d="M 234.153708 307.584 
L 234.153708 41.472 
" style="fill:none;stroke:#b0b0b0;stroke-dasharray:5.12,1.28,0.8,1.28;stroke-dashoffset:0;stroke-width:0.8;"/>
     </g>
     <g id="line2d_24">
      <g>
       <use style="stroke:#000000;stroke-width:0.8;" x="234.153708" xlink:href="#m27e8389cdc" y="307.584"/>
      </g>
     </g>
     <g id="text_12">
      <!-- 44 -->
      <g transform="translate(227.791208 322.182437)scale(0.1 -0.1)">
       <use xlink:href="#DejaVuSans-52"/>
       <use x="63.623047" xlink:href="#DejaVuSans-52"/>
      </g>
     </g>
    </g>
    <g id="xtick_13">
     <g id="line2d_25">
      <path clip-path="url(#p70950aa4a7)" d="M 250.204045 307.584 
L 250.204045 41.472 
" style="fill:none;stroke:#b0b0b0;stroke-dasharray:5.12,1.28,0.8,1.28;stroke-dashoffset:0;stroke-width:0.8;"/>
     </g>
     <g id="line2d_26">
      <g>
       <use style="stroke:#000000;stroke-width:0.8;" x="250.204045" xlink:href="#m27e8389cdc" y="307.584"/>
      </g>
     </g>
     <g id="text_13">
      <!-- 48 -->
      <g transform="translate(243.841545 322.182437)scale(0.1 -0.1)">
       <use xlink:href="#DejaVuSans-52"/>
       <use x="63.623047" xlink:href="#DejaVuSans-56"/>
      </g>
     </g>
    </g>
    <g id="xtick_14">
     <g id="line2d_27">
      <path clip-path="url(#p70950aa4a7)" d="M 266.254382 307.584 
L 266.254382 41.472 
" style="fill:none;stroke:#b0b0b0;stroke-dasharray:5.12,1.28,0.8,1.28;stroke-dashoffset:0;stroke-width:0.8;"/>
     </g>
     <g id="line2d_28">
      <g>
       <use style="stroke:#000000;stroke-width:0.8;" x="266.254382" xlink:href="#m27e8389cdc" y="307.584"/>
      </g>
     </g>
     <g id="text_14">
      <!-- 52 -->
      <defs>
       <path d="M 10.796875 72.90625 
L 49.515625 72.90625 
L 49.515625 64.59375 
L 19.828125 64.59375 
L 19.828125 46.734375 
Q 21.96875 47.46875 24.109375 47.828125 
Q 26.265625 48.1875 28.421875 48.1875 
Q 40.625 48.1875 47.75 41.5 
Q 54.890625 34.8125 54.890625 23.390625 
Q 54.890625 11.625 47.5625 5.09375 
Q 40.234375 -1.421875 26.90625 -1.421875 
Q 22.3125 -1.421875 17.546875 -0.640625 
Q 12.796875 0.140625 7.71875 1.703125 
L 7.71875 11.625 
Q 12.109375 9.234375 16.796875 8.0625 
Q 21.484375 6.890625 26.703125 6.890625 
Q 35.15625 6.890625 40.078125 11.328125 
Q 45.015625 15.765625 45.015625 23.390625 
Q 45.015625 31 40.078125 35.4375 
Q 35.15625 39.890625 26.703125 39.890625 
Q 22.75 39.890625 18.8125 39.015625 
Q 14.890625 38.140625 10.796875 36.28125 
z
" id="DejaVuSans-53"/>
      </defs>
      <g transform="translate(259.891882 322.182437)scale(0.1 -0.1)">
       <use xlink:href="#DejaVuSans-53"/>
       <use x="63.623047" xlink:href="#DejaVuSans-50"/>
      </g>
     </g>
    </g>
    <g id="xtick_15">
     <g id="line2d_29">
      <path clip-path="url(#p70950aa4a7)" d="M 282.304719 307.584 
L 282.304719 41.472 
" style="fill:none;stroke:#b0b0b0;stroke-dasharray:5.12,1.28,0.8,1.28;stroke-dashoffset:0;stroke-width:0.8;"/>
     </g>
     <g id="line2d_30">
      <g>
       <use style="stroke:#000000;stroke-width:0.8;" x="282.304719" xlink:href="#m27e8389cdc" y="307.584"/>
      </g>
     </g>
     <g id="text_15">
      <!-- 56 -->
      <g transform="translate(275.942219 322.182437)scale(0.1 -0.1)">
       <use xlink:href="#DejaVuSans-53"/>
       <use x="63.623047" xlink:href="#DejaVuSans-54"/>
      </g>
     </g>
    </g>
    <g id="xtick_16">
     <g id="line2d_31">
      <path clip-path="url(#p70950aa4a7)" d="M 298.355056 307.584 
L 298.355056 41.472 
" style="fill:none;stroke:#b0b0b0;stroke-dasharray:5.12,1.28,0.8,1.28;stroke-dashoffset:0;stroke-width:0.8;"/>
     </g>
     <g id="line2d_32">
      <g>
       <use style="stroke:#000000;stroke-width:0.8;" x="298.355056" xlink:href="#m27e8389cdc" y="307.584"/>
      </g>
     </g>
     <g id="text_16">
      <!-- 60 -->
      <g transform="translate(291.992556 322.182437)scale(0.1 -0.1)">
       <use xlink:href="#DejaVuSans-54"/>
       <use x="63.623047" xlink:href="#DejaVuSans-48"/>
      </g>
     </g>
    </g>
    <g id="xtick_17">
     <g id="line2d_33">
      <path clip-path="url(#p70950aa4a7)" d="M 314.405393 307.584 
L 314.405393 41.472 
" style="fill:none;stroke:#b0b0b0;stroke-dasharray:5.12,1.28,0.8,1.28;stroke-dashoffset:0;stroke-width:0.8;"/>
     </g>
     <g id="line2d_34">
      <g>
       <use style="stroke:#000000;stroke-width:0.8;" x="314.405393" xlink:href="#m27e8389cdc" y="307.584"/>
      </g>
     </g>
     <g id="text_17">
      <!-- 64 -->
      <g transform="translate(308.042893 322.182437)scale(0.1 -0.1)">
       <use xlink:href="#DejaVuSans-54"/>
       <use x="63.623047" xlink:href="#DejaVuSans-52"/>
      </g>
     </g>
    </g>
    <g id="xtick_18">
     <g id="line2d_35">
      <path clip-path="url(#p70950aa4a7)" d="M 330.45573 307.584 
L 330.45573 41.472 
" style="fill:none;stroke:#b0b0b0;stroke-dasharray:5.12,1.28,0.8,1.28;stroke-dashoffset:0;stroke-width:0.8;"/>
     </g>
     <g id="line2d_36">
      <g>
       <use style="stroke:#000000;stroke-width:0.8;" x="330.45573" xlink:href="#m27e8389cdc" y="307.584"/>
      </g>
     </g>
     <g id="text_18">
      <!-- 68 -->
      <g transform="translate(324.09323 322.182437)scale(0.1 -0.1)">
       <use xlink:href="#DejaVuSans-54"/>
       <use x="63.623047" xlink:href="#DejaVuSans-56"/>
      </g>
     </g>
    </g>
    <g id="xtick_19">
     <g id="line2d_37">
      <path clip-path="url(#p70950aa4a7)" d="M 346.506067 307.584 
L 346.506067 41.472 
" style="fill:none;stroke:#b0b0b0;stroke-dasharray:5.12,1.28,0.8,1.28;stroke-dashoffset:0;stroke-width:0.8;"/>
     </g>
     <g id="line2d_38">
      <g>
       <use style="stroke:#000000;stroke-width:0.8;" x="346.506067" xlink:href="#m27e8389cdc" y="307.584"/>
      </g>
     </g>
     <g id="text_19">
      <!-- 72 -->
      <defs>
       <path d="M 8.203125 72.90625 
L 55.078125 72.90625 
L 55.078125 68.703125 
L 28.609375 0 
L 18.3125 0 
L 43.21875 64.59375 
L 8.203125 64.59375 
z
" id="DejaVuSans-55"/>
      </defs>
      <g transform="translate(340.143567 322.182437)scale(0.1 -0.1)">
       <use xlink:href="#DejaVuSans-55"/>
       <use x="63.623047" xlink:href="#DejaVuSans-50"/>
      </g>
     </g>
    </g>
    <g id="xtick_20">
     <g id="line2d_39">
      <path clip-path="url(#p70950aa4a7)" d="M 362.556404 307.584 
L 362.556404 41.472 
" style="fill:none;stroke:#b0b0b0;stroke-dasharray:5.12,1.28,0.8,1.28;stroke-dashoffset:0;stroke-width:0.8;"/>
     </g>
     <g id="line2d_40">
      <g>
       <use style="stroke:#000000;stroke-width:0.8;" x="362.556404" xlink:href="#m27e8389cdc" y="307.584"/>
      </g>
     </g>
     <g id="text_20">
      <!-- 76 -->
      <g transform="translate(356.193904 322.182437)scale(0.1 -0.1)">
       <use xlink:href="#DejaVuSans-55"/>
       <use x="63.623047" xlink:href="#DejaVuSans-54"/>
      </g>
     </g>
    </g>
    <g id="xtick_21">
     <g id="line2d_41">
      <path clip-path="url(#p70950aa4a7)" d="M 378.606742 307.584 
L 378.606742 41.472 
" style="fill:none;stroke:#b0b0b0;stroke-dasharray:5.12,1.28,0.8,1.28;stroke-dashoffset:0;stroke-width:0.8;"/>
     </g>
     <g id="line2d_42">
      <g>
       <use style="stroke:#000000;stroke-width:0.8;" x="378.606742" xlink:href="#m27e8389cdc" y="307.584"/>
      </g>
     </g>
     <g id="text_21">
      <!-- 80 -->
      <g transform="translate(372.244242 322.182437)scale(0.1 -0.1)">
       <use xlink:href="#DejaVuSans-56"/>
       <use x="63.623047" xlink:href="#DejaVuSans-48"/>
      </g>
     </g>
    </g>
    <g id="xtick_22">
     <g id="line2d_43">
      <path clip-path="url(#p70950aa4a7)" d="M 394.657079 307.584 
L 394.657079 41.472 
" style="fill:none;stroke:#b0b0b0;stroke-dasharray:5.12,1.28,0.8,1.28;stroke-dashoffset:0;stroke-width:0.8;"/>
     </g>
     <g id="line2d_44">
      <g>
       <use style="stroke:#000000;stroke-width:0.8;" x="394.657079" xlink:href="#m27e8389cdc" y="307.584"/>
      </g>
     </g>
     <g id="text_22">
      <!-- 84 -->
      <g transform="translate(388.294579 322.182437)scale(0.1 -0.1)">
       <use xlink:href="#DejaVuSans-56"/>
       <use x="63.623047" xlink:href="#DejaVuSans-52"/>
      </g>
     </g>
    </g>
    <g id="xtick_23">
     <g id="line2d_45">
      <path clip-path="url(#p70950aa4a7)" d="M 410.707416 307.584 
L 410.707416 41.472 
" style="fill:none;stroke:#b0b0b0;stroke-dasharray:5.12,1.28,0.8,1.28;stroke-dashoffset:0;stroke-width:0.8;"/>
     </g>
     <g id="line2d_46">
      <g>
       <use style="stroke:#000000;stroke-width:0.8;" x="410.707416" xlink:href="#m27e8389cdc" y="307.584"/>
      </g>
     </g>
     <g id="text_23">
      <!-- 88 -->
      <g transform="translate(404.344916 322.182437)scale(0.1 -0.1)">
       <use xlink:href="#DejaVuSans-56"/>
       <use x="63.623047" xlink:href="#DejaVuSans-56"/>
      </g>
     </g>
    </g>
    <g id="text_24">
     <!-- threads -->
     <defs>
      <path d="M 18.3125 70.21875 
L 18.3125 54.6875 
L 36.8125 54.6875 
L 36.8125 47.703125 
L 18.3125 47.703125 
L 18.3125 18.015625 
Q 18.3125 11.328125 20.140625 9.421875 
Q 21.96875 7.515625 27.59375 7.515625 
L 36.8125 7.515625 
L 36.8125 0 
L 27.59375 0 
Q 17.1875 0 13.234375 3.875 
Q 9.28125 7.765625 9.28125 18.015625 
L 9.28125 47.703125 
L 2.6875 47.703125 
L 2.6875 54.6875 
L 9.28125 54.6875 
L 9.28125 70.21875 
z
" id="DejaVuSans-116"/>
      <path d="M 54.890625 33.015625 
L 54.890625 0 
L 45.90625 0 
L 45.90625 32.71875 
Q 45.90625 40.484375 42.875 44.328125 
Q 39.84375 48.1875 33.796875 48.1875 
Q 26.515625 48.1875 22.3125 43.546875 
Q 18.109375 38.921875 18.109375 30.90625 
L 18.109375 0 
L 9.078125 0 
L 9.078125 75.984375 
L 18.109375 75.984375 
L 18.109375 46.1875 
Q 21.34375 51.125 25.703125 53.5625 
Q 30.078125 56 35.796875 56 
Q 45.21875 56 50.046875 50.171875 
Q 54.890625 44.34375 54.890625 33.015625 
z
" id="DejaVuSans-104"/>
      <path d="M 41.109375 46.296875 
Q 39.59375 47.171875 37.8125 47.578125 
Q 36.03125 48 33.890625 48 
Q 26.265625 48 22.1875 43.046875 
Q 18.109375 38.09375 18.109375 28.8125 
L 18.109375 0 
L 9.078125 0 
L 9.078125 54.6875 
L 18.109375 54.6875 
L 18.109375 46.1875 
Q 20.953125 51.171875 25.484375 53.578125 
Q 30.03125 56 36.53125 56 
Q 37.453125 56 38.578125 55.875 
Q 39.703125 55.765625 41.0625 55.515625 
z
" id="DejaVuSans-114"/>
      <path d="M 56.203125 29.59375 
L 56.203125 25.203125 
L 14.890625 25.203125 
Q 15.484375 15.921875 20.484375 11.0625 
Q 25.484375 6.203125 34.421875 6.203125 
Q 39.59375 6.203125 44.453125 7.46875 
Q 49.3125 8.734375 54.109375 11.28125 
L 54.109375 2.78125 
Q 49.265625 0.734375 44.1875 -0.34375 
Q 39.109375 -1.421875 33.890625 -1.421875 
Q 20.796875 -1.421875 13.15625 6.1875 
Q 5.515625 13.8125 5.515625 26.8125 
Q 5.515625 40.234375 12.765625 48.109375 
Q 20.015625 56 32.328125 56 
Q 43.359375 56 49.78125 48.890625 
Q 56.203125 41.796875 56.203125 29.59375 
z
M 47.21875 32.234375 
Q 47.125 39.59375 43.09375 43.984375 
Q 39.0625 48.390625 32.421875 48.390625 
Q 24.90625 48.390625 20.390625 44.140625 
Q 15.875 39.890625 15.1875 32.171875 
z
" id="DejaVuSans-101"/>
      <path d="M 34.28125 27.484375 
Q 23.390625 27.484375 19.1875 25 
Q 14.984375 22.515625 14.984375 16.5 
Q 14.984375 11.71875 18.140625 8.90625 
Q 21.296875 6.109375 26.703125 6.109375 
Q 34.1875 6.109375 38.703125 11.40625 
Q 43.21875 16.703125 43.21875 25.484375 
L 43.21875 27.484375 
z
M 52.203125 31.203125 
L 52.203125 0 
L 43.21875 0 
L 43.21875 8.296875 
Q 40.140625 3.328125 35.546875 0.953125 
Q 30.953125 -1.421875 24.3125 -1.421875 
Q 15.921875 -1.421875 10.953125 3.296875 
Q 6 8.015625 6 15.921875 
Q 6 25.140625 12.171875 29.828125 
Q 18.359375 34.515625 30.609375 34.515625 
L 43.21875 34.515625 
L 43.21875 35.40625 
Q 43.21875 41.609375 39.140625 45 
Q 35.0625 48.390625 27.6875 48.390625 
Q 23 48.390625 18.546875 47.265625 
Q 14.109375 46.140625 10.015625 43.890625 
L 10.015625 52.203125 
Q 14.9375 54.109375 19.578125 55.046875 
Q 24.21875 56 28.609375 56 
Q 40.484375 56 46.34375 49.84375 
Q 52.203125 43.703125 52.203125 31.203125 
z
" id="DejaVuSans-97"/>
      <path d="M 45.40625 46.390625 
L 45.40625 75.984375 
L 54.390625 75.984375 
L 54.390625 0 
L 45.40625 0 
L 45.40625 8.203125 
Q 42.578125 3.328125 38.25 0.953125 
Q 33.9375 -1.421875 27.875 -1.421875 
Q 17.96875 -1.421875 11.734375 6.484375 
Q 5.515625 14.40625 5.515625 27.296875 
Q 5.515625 40.1875 11.734375 48.09375 
Q 17.96875 56 27.875 56 
Q 33.9375 56 38.25 53.625 
Q 42.578125 51.265625 45.40625 46.390625 
z
M 14.796875 27.296875 
Q 14.796875 17.390625 18.875 11.75 
Q 22.953125 6.109375 30.078125 6.109375 
Q 37.203125 6.109375 41.296875 11.75 
Q 45.40625 17.390625 45.40625 27.296875 
Q 45.40625 37.203125 41.296875 42.84375 
Q 37.203125 48.484375 30.078125 48.484375 
Q 22.953125 48.484375 18.875 42.84375 
Q 14.796875 37.203125 14.796875 27.296875 
z
" id="DejaVuSans-100"/>
      <path d="M 44.28125 53.078125 
L 44.28125 44.578125 
Q 40.484375 46.53125 36.375 47.5 
Q 32.28125 48.484375 27.875 48.484375 
Q 21.1875 48.484375 17.84375 46.4375 
Q 14.5 44.390625 14.5 40.28125 
Q 14.5 37.15625 16.890625 35.375 
Q 19.28125 33.59375 26.515625 31.984375 
L 29.59375 31.296875 
Q 39.15625 29.25 43.1875 25.515625 
Q 47.21875 21.78125 47.21875 15.09375 
Q 47.21875 7.46875 41.1875 3.015625 
Q 35.15625 -1.421875 24.609375 -1.421875 
Q 20.21875 -1.421875 15.453125 -0.5625 
Q 10.6875 0.296875 5.421875 2 
L 5.421875 11.28125 
Q 10.40625 8.6875 15.234375 7.390625 
Q 20.0625 6.109375 24.8125 6.109375 
Q 31.15625 6.109375 34.5625 8.28125 
Q 37.984375 10.453125 37.984375 14.40625 
Q 37.984375 18.0625 35.515625 20.015625 
Q 33.0625 21.96875 24.703125 23.78125 
L 21.578125 24.515625 
Q 13.234375 26.265625 9.515625 29.90625 
Q 5.8125 33.546875 5.8125 39.890625 
Q 5.8125 47.609375 11.28125 51.796875 
Q 16.75 56 26.8125 56 
Q 31.78125 56 36.171875 55.265625 
Q 40.578125 54.546875 44.28125 53.078125 
z
" id="DejaVuSans-115"/>
     </defs>
     <g transform="translate(217.168594 335.860562)scale(0.1 -0.1)">
      <use xlink:href="#DejaVuSans-116"/>
      <use x="39.208984" xlink:href="#DejaVuSans-104"/>
      <use x="102.587891" xlink:href="#DejaVuSans-114"/>
      <use x="141.451172" xlink:href="#DejaVuSans-101"/>
      <use x="202.974609" xlink:href="#DejaVuSans-97"/>
      <use x="264.253906" xlink:href="#DejaVuSans-100"/>
      <use x="327.730469" xlink:href="#DejaVuSans-115"/>
     </g>
    </g>
   </g>
   <g id="matplotlib.axis_2">
    <g id="ytick_1">
     <g id="line2d_47">
      <path clip-path="url(#p70950aa4a7)" d="M 57.6 270.798048 
L 414.72 270.798048 
" style="fill:none;stroke:#b0b0b0;stroke-dasharray:5.12,1.28,0.8,1.28;stroke-dashoffset:0;stroke-width:0.8;"/>
     </g>
     <g id="line2d_48">
      <defs>
       <path d="M 0 0 
L -3.5 0 
" id="ma26e1d7047" style="stroke:#000000;stroke-width:0.8;"/>
      </defs>
      <g>
       <use style="stroke:#000000;stroke-width:0.8;" x="57.6" xlink:href="#ma26e1d7047" y="270.798048"/>
      </g>
     </g>
     <g id="text_25">
      <!-- 2 -->
      <g transform="translate(44.2375 274.597267)scale(0.1 -0.1)">
       <use xlink:href="#DejaVuSans-50"/>
      </g>
     </g>
    </g>
    <g id="ytick_2">
     <g id="line2d_49">
      <path clip-path="url(#p70950aa4a7)" d="M 57.6 212.781487 
L 414.72 212.781487 
" style="fill:none;stroke:#b0b0b0;stroke-dasharray:5.12,1.28,0.8,1.28;stroke-dashoffset:0;stroke-width:0.8;"/>
     </g>
     <g id="line2d_50">
      <g>
       <use style="stroke:#000000;stroke-width:0.8;" x="57.6" xlink:href="#ma26e1d7047" y="212.781487"/>
      </g>
     </g>
     <g id="text_26">
      <!-- 4 -->
      <g transform="translate(44.2375 216.580705)scale(0.1 -0.1)">
       <use xlink:href="#DejaVuSans-52"/>
      </g>
     </g>
    </g>
    <g id="ytick_3">
     <g id="line2d_51">
      <path clip-path="url(#p70950aa4a7)" d="M 57.6 154.764925 
L 414.72 154.764925 
" style="fill:none;stroke:#b0b0b0;stroke-dasharray:5.12,1.28,0.8,1.28;stroke-dashoffset:0;stroke-width:0.8;"/>
     </g>
     <g id="line2d_52">
      <g>
       <use style="stroke:#000000;stroke-width:0.8;" x="57.6" xlink:href="#ma26e1d7047" y="154.764925"/>
      </g>
     </g>
     <g id="text_27">
      <!-- 6 -->
      <g transform="translate(44.2375 158.564144)scale(0.1 -0.1)">
       <use xlink:href="#DejaVuSans-54"/>
      </g>
     </g>
    </g>
    <g id="ytick_4">
     <g id="line2d_53">
      <path clip-path="url(#p70950aa4a7)" d="M 57.6 96.748364 
L 414.72 96.748364 
" style="fill:none;stroke:#b0b0b0;stroke-dasharray:5.12,1.28,0.8,1.28;stroke-dashoffset:0;stroke-width:0.8;"/>
     </g>
     <g id="line2d_54">
      <g>
       <use style="stroke:#000000;stroke-width:0.8;" x="57.6" xlink:href="#ma26e1d7047" y="96.748364"/>
      </g>
     </g>
     <g id="text_28">
      <!-- 8 -->
      <g transform="translate(44.2375 100.547583)scale(0.1 -0.1)">
       <use xlink:href="#DejaVuSans-56"/>
      </g>
     </g>
    </g>
    <g id="text_29">
     <!-- speed up -->
     <defs>
      <path d="M 18.109375 8.203125 
L 18.109375 -20.796875 
L 9.078125 -20.796875 
L 9.078125 54.6875 
L 18.109375 54.6875 
L 18.109375 46.390625 
Q 20.953125 51.265625 25.265625 53.625 
Q 29.59375 56 35.59375 56 
Q 45.5625 56 51.78125 48.09375 
Q 58.015625 40.1875 58.015625 27.296875 
Q 58.015625 14.40625 51.78125 6.484375 
Q 45.5625 -1.421875 35.59375 -1.421875 
Q 29.59375 -1.421875 25.265625 0.953125 
Q 20.953125 3.328125 18.109375 8.203125 
z
M 48.6875 27.296875 
Q 48.6875 37.203125 44.609375 42.84375 
Q 40.53125 48.484375 33.40625 48.484375 
Q 26.265625 48.484375 22.1875 42.84375 
Q 18.109375 37.203125 18.109375 27.296875 
Q 18.109375 17.390625 22.1875 11.75 
Q 26.265625 6.109375 33.40625 6.109375 
Q 40.53125 6.109375 44.609375 11.75 
Q 48.6875 17.390625 48.6875 27.296875 
z
" id="DejaVuSans-112"/>
      <path id="DejaVuSans-32"/>
      <path d="M 8.5 21.578125 
L 8.5 54.6875 
L 17.484375 54.6875 
L 17.484375 21.921875 
Q 17.484375 14.15625 20.5 10.265625 
Q 23.53125 6.390625 29.59375 6.390625 
Q 36.859375 6.390625 41.078125 11.03125 
Q 45.3125 15.671875 45.3125 23.6875 
L 45.3125 54.6875 
L 54.296875 54.6875 
L 54.296875 0 
L 45.3125 0 
L 45.3125 8.40625 
Q 42.046875 3.421875 37.71875 1 
Q 33.40625 -1.421875 27.6875 -1.421875 
Q 18.265625 -1.421875 13.375 4.4375 
Q 8.5 10.296875 8.5 21.578125 
z
M 31.109375 56 
z
" id="DejaVuSans-117"/>
     </defs>
     <g transform="translate(38.157812 197.566281)rotate(-90)scale(0.1 -0.1)">
      <use xlink:href="#DejaVuSans-115"/>
      <use x="52.099609" xlink:href="#DejaVuSans-112"/>
      <use x="115.576172" xlink:href="#DejaVuSans-101"/>
      <use x="177.099609" xlink:href="#DejaVuSans-101"/>
      <use x="238.623047" xlink:href="#DejaVuSans-100"/>
      <use x="302.099609" xlink:href="#DejaVuSans-32"/>
      <use x="333.886719" xlink:href="#DejaVuSans-117"/>
      <use x="397.265625" xlink:href="#DejaVuSans-112"/>
     </g>
    </g>
   </g>
   <g id="line2d_55">
    <path clip-path="url(#p70950aa4a7)" d="M 61.612584 295.488 
L 65.625169 282.747765 
L 69.637753 265.217084 
L 73.650337 246.604532 
L 77.662921 228.009937 
L 81.675506 214.327786 
L 85.68809 202.328947 
L 89.700674 188.61759 
L 93.713258 176.587361 
L 97.725843 164.512796 
L 101.738427 154.874935 
L 105.751011 144.273007 
L 109.763596 137.448538 
L 113.77618 127.431571 
L 117.788764 120.675808 
L 121.801348 112.742243 
L 125.813933 103.443521 
L 129.826517 98.208473 
L 133.839101 91.926788 
L 137.851685 87.351716 
L 141.86427 84.653184 
L 145.876854 79.456769 
L 149.889438 76.265058 
L 153.902022 74.253999 
L 157.914607 72.239731 
L 161.927191 68.868888 
L 165.939775 63.393976 
L 169.95236 60.857909 
L 173.964944 58.374905 
L 177.977528 59.617176 
L 181.990112 62.249015 
L 186.002697 66.809747 
L 190.015281 64.202359 
L 194.027865 61.95935 
L 198.040449 57.745609 
L 202.053034 59.381413 
L 206.065618 56.359361 
L 210.078202 53.568 
L 214.090787 53.670027 
L 218.103371 58.490515 
L 222.115955 59.470061 
L 226.128539 57.294597 
L 230.141124 56.827068 
L 234.153708 62.90103 
L 238.166292 85.611611 
L 242.178876 91.152798 
L 246.191461 88.573093 
L 250.204045 87.552859 
L 254.216629 86.306588 
L 258.229213 84.243976 
L 262.241798 81.864186 
L 266.254382 78.092135 
L 270.266966 78.539915 
L 274.279551 76.929422 
L 278.292135 75.163389 
L 282.304719 73.820424 
L 286.317303 73.66055 
L 290.329888 72.31611 
L 294.342472 69.953469 
L 298.355056 69.827911 
L 302.36764 68.050998 
L 306.380225 69.108557 
L 310.392809 68.125849 
L 314.405393 66.35846 
L 318.417978 67.436621 
L 322.430562 68.829193 
L 326.443146 69.562287 
L 330.45573 68.086079 
L 334.468315 67.481058 
L 338.480899 68.842862 
L 342.493483 70.139464 
L 346.506067 69.674673 
L 350.518652 66.356156 
L 354.531236 67.81616 
L 358.54382 68.766109 
L 362.556404 70.944622 
L 366.568989 70.268498 
L 370.581573 71.017229 
L 374.594157 72.872727 
L 378.606742 70.739433 
L 382.619326 70.406836 
L 386.63191 70.840114 
L 390.644494 71.512813 
L 394.657079 71.851211 
L 398.669663 70.7325 
L 402.682247 71.01036 
L 406.694831 71.260944 
L 410.707416 73.591072 
" style="fill:none;stroke:#0000ff;stroke-dasharray:1.5,2.475;stroke-dashoffset:0;stroke-width:1.5;"/>
    <defs>
     <path d="M 0 1.5 
C 0.397805 1.5 0.77937 1.341951 1.06066 1.06066 
C 1.341951 0.77937 1.5 0.397805 1.5 0 
C 1.5 -0.397805 1.341951 -0.77937 1.06066 -1.06066 
C 0.77937 -1.341951 0.397805 -1.5 0 -1.5 
C -0.397805 -1.5 -0.77937 -1.341951 -1.06066 -1.06066 
C -1.341951 -0.77937 -1.5 -0.397805 -1.5 0 
C -1.5 0.397805 -1.341951 0.77937 -1.06066 1.06066 
C -0.77937 1.341951 -0.397805 1.5 0 1.5 
z
" id="m295a6b4200" style="stroke:#0000ff;"/>
    </defs>
    <g clip-path="url(#p70950aa4a7)">
     <use style="fill:#0000ff;stroke:#0000ff;" x="61.612584" xlink:href="#m295a6b4200" y="295.488"/>
     <use style="fill:#0000ff;stroke:#0000ff;" x="65.625169" xlink:href="#m295a6b4200" y="282.747765"/>
     <use style="fill:#0000ff;stroke:#0000ff;" x="69.637753" xlink:href="#m295a6b4200" y="265.217084"/>
     <use style="fill:#0000ff;stroke:#0000ff;" x="73.650337" xlink:href="#m295a6b4200" y="246.604532"/>
     <use style="fill:#0000ff;stroke:#0000ff;" x="77.662921" xlink:href="#m295a6b4200" y="228.009937"/>
     <use style="fill:#0000ff;stroke:#0000ff;" x="81.675506" xlink:href="#m295a6b4200" y="214.327786"/>
     <use style="fill:#0000ff;stroke:#0000ff;" x="85.68809" xlink:href="#m295a6b4200" y="202.328947"/>
     <use style="fill:#0000ff;stroke:#0000ff;" x="89.700674" xlink:href="#m295a6b4200" y="188.61759"/>
     <use style="fill:#0000ff;stroke:#0000ff;" x="93.713258" xlink:href="#m295a6b4200" y="176.587361"/>
     <use style="fill:#0000ff;stroke:#0000ff;" x="97.725843" xlink:href="#m295a6b4200" y="164.512796"/>
     <use style="fill:#0000ff;stroke:#0000ff;" x="101.738427" xlink:href="#m295a6b4200" y="154.874935"/>
     <use style="fill:#0000ff;stroke:#0000ff;" x="105.751011" xlink:href="#m295a6b4200" y="144.273007"/>
     <use style="fill:#0000ff;stroke:#0000ff;" x="109.763596" xlink:href="#m295a6b4200" y="137.448538"/>
     <use style="fill:#0000ff;stroke:#0000ff;" x="113.77618" xlink:href="#m295a6b4200" y="127.431571"/>
     <use style="fill:#0000ff;stroke:#0000ff;" x="117.788764" xlink:href="#m295a6b4200" y="120.675808"/>
     <use style="fill:#0000ff;stroke:#0000ff;" x="121.801348" xlink:href="#m295a6b4200" y="112.742243"/>
     <use style="fill:#0000ff;stroke:#0000ff;" x="125.813933" xlink:href="#m295a6b4200" y="103.443521"/>
     <use style="fill:#0000ff;stroke:#0000ff;" x="129.826517" xlink:href="#m295a6b4200" y="98.208473"/>
     <use style="fill:#0000ff;stroke:#0000ff;" x="133.839101" xlink:href="#m295a6b4200" y="91.926788"/>
     <use style="fill:#0000ff;stroke:#0000ff;" x="137.851685" xlink:href="#m295a6b4200" y="87.351716"/>
     <use style="fill:#0000ff;stroke:#0000ff;" x="141.86427" xlink:href="#m295a6b4200" y="84.653184"/>
     <use style="fill:#0000ff;stroke:#0000ff;" x="145.876854" xlink:href="#m295a6b4200" y="79.456769"/>
     <use style="fill:#0000ff;stroke:#0000ff;" x="149.889438" xlink:href="#m295a6b4200" y="76.265058"/>
     <use style="fill:#0000ff;stroke:#0000ff;" x="153.902022" xlink:href="#m295a6b4200" y="74.253999"/>
     <use style="fill:#0000ff;stroke:#0000ff;" x="157.914607" xlink:href="#m295a6b4200" y="72.239731"/>
     <use style="fill:#0000ff;stroke:#0000ff;" x="161.927191" xlink:href="#m295a6b4200" y="68.868888"/>
     <use style="fill:#0000ff;stroke:#0000ff;" x="165.939775" xlink:href="#m295a6b4200" y="63.393976"/>
     <use style="fill:#0000ff;stroke:#0000ff;" x="169.95236" xlink:href="#m295a6b4200" y="60.857909"/>
     <use style="fill:#0000ff;stroke:#0000ff;" x="173.964944" xlink:href="#m295a6b4200" y="58.374905"/>
     <use style="fill:#0000ff;stroke:#0000ff;" x="177.977528" xlink:href="#m295a6b4200" y="59.617176"/>
     <use style="fill:#0000ff;stroke:#0000ff;" x="181.990112" xlink:href="#m295a6b4200" y="62.249015"/>
     <use style="fill:#0000ff;stroke:#0000ff;" x="186.002697" xlink:href="#m295a6b4200" y="66.809747"/>
     <use style="fill:#0000ff;stroke:#0000ff;" x="190.015281" xlink:href="#m295a6b4200" y="64.202359"/>
     <use style="fill:#0000ff;stroke:#0000ff;" x="194.027865" xlink:href="#m295a6b4200" y="61.95935"/>
     <use style="fill:#0000ff;stroke:#0000ff;" x="198.040449" xlink:href="#m295a6b4200" y="57.745609"/>
     <use style="fill:#0000ff;stroke:#0000ff;" x="202.053034" xlink:href="#m295a6b4200" y="59.381413"/>
     <use style="fill:#0000ff;stroke:#0000ff;" x="206.065618" xlink:href="#m295a6b4200" y="56.359361"/>
     <use style="fill:#0000ff;stroke:#0000ff;" x="210.078202" xlink:href="#m295a6b4200" y="53.568"/>
     <use style="fill:#0000ff;stroke:#0000ff;" x="214.090787" xlink:href="#m295a6b4200" y="53.670027"/>
     <use style="fill:#0000ff;stroke:#0000ff;" x="218.103371" xlink:href="#m295a6b4200" y="58.490515"/>
     <use style="fill:#0000ff;stroke:#0000ff;" x="222.115955" xlink:href="#m295a6b4200" y="59.470061"/>
     <use style="fill:#0000ff;stroke:#0000ff;" x="226.128539" xlink:href="#m295a6b4200" y="57.294597"/>
     <use style="fill:#0000ff;stroke:#0000ff;" x="230.141124" xlink:href="#m295a6b4200" y="56.827068"/>
     <use style="fill:#0000ff;stroke:#0000ff;" x="234.153708" xlink:href="#m295a6b4200" y="62.90103"/>
     <use style="fill:#0000ff;stroke:#0000ff;" x="238.166292" xlink:href="#m295a6b4200" y="85.611611"/>
     <use style="fill:#0000ff;stroke:#0000ff;" x="242.178876" xlink:href="#m295a6b4200" y="91.152798"/>
     <use style="fill:#0000ff;stroke:#0000ff;" x="246.191461" xlink:href="#m295a6b4200" y="88.573093"/>
     <use style="fill:#0000ff;stroke:#0000ff;" x="250.204045" xlink:href="#m295a6b4200" y="87.552859"/>
     <use style="fill:#0000ff;stroke:#0000ff;" x="254.216629" xlink:href="#m295a6b4200" y="86.306588"/>
     <use style="fill:#0000ff;stroke:#0000ff;" x="258.229213" xlink:href="#m295a6b4200" y="84.243976"/>
     <use style="fill:#0000ff;stroke:#0000ff;" x="262.241798" xlink:href="#m295a6b4200" y="81.864186"/>
     <use style="fill:#0000ff;stroke:#0000ff;" x="266.254382" xlink:href="#m295a6b4200" y="78.092135"/>
     <use style="fill:#0000ff;stroke:#0000ff;" x="270.266966" xlink:href="#m295a6b4200" y="78.539915"/>
     <use style="fill:#0000ff;stroke:#0000ff;" x="274.279551" xlink:href="#m295a6b4200" y="76.929422"/>
     <use style="fill:#0000ff;stroke:#0000ff;" x="278.292135" xlink:href="#m295a6b4200" y="75.163389"/>
     <use style="fill:#0000ff;stroke:#0000ff;" x="282.304719" xlink:href="#m295a6b4200" y="73.820424"/>
     <use style="fill:#0000ff;stroke:#0000ff;" x="286.317303" xlink:href="#m295a6b4200" y="73.66055"/>
     <use style="fill:#0000ff;stroke:#0000ff;" x="290.329888" xlink:href="#m295a6b4200" y="72.31611"/>
     <use style="fill:#0000ff;stroke:#0000ff;" x="294.342472" xlink:href="#m295a6b4200" y="69.953469"/>
     <use style="fill:#0000ff;stroke:#0000ff;" x="298.355056" xlink:href="#m295a6b4200" y="69.827911"/>
     <use style="fill:#0000ff;stroke:#0000ff;" x="302.36764" xlink:href="#m295a6b4200" y="68.050998"/>
     <use style="fill:#0000ff;stroke:#0000ff;" x="306.380225" xlink:href="#m295a6b4200" y="69.108557"/>
     <use style="fill:#0000ff;stroke:#0000ff;" x="310.392809" xlink:href="#m295a6b4200" y="68.125849"/>
     <use style="fill:#0000ff;stroke:#0000ff;" x="314.405393" xlink:href="#m295a6b4200" y="66.35846"/>
     <use style="fill:#0000ff;stroke:#0000ff;" x="318.417978" xlink:href="#m295a6b4200" y="67.436621"/>
     <use style="fill:#0000ff;stroke:#0000ff;" x="322.430562" xlink:href="#m295a6b4200" y="68.829193"/>
     <use style="fill:#0000ff;stroke:#0000ff;" x="326.443146" xlink:href="#m295a6b4200" y="69.562287"/>
     <use style="fill:#0000ff;stroke:#0000ff;" x="330.45573" xlink:href="#m295a6b4200" y="68.086079"/>
     <use style="fill:#0000ff;stroke:#0000ff;" x="334.468315" xlink:href="#m295a6b4200" y="67.481058"/>
     <use style="fill:#0000ff;stroke:#0000ff;" x="338.480899" xlink:href="#m295a6b4200" y="68.842862"/>
     <use style="fill:#0000ff;stroke:#0000ff;" x="342.493483" xlink:href="#m295a6b4200" y="70.139464"/>
     <use style="fill:#0000ff;stroke:#0000ff;" x="346.506067" xlink:href="#m295a6b4200" y="69.674673"/>
     <use style="fill:#0000ff;stroke:#0000ff;" x="350.518652" xlink:href="#m295a6b4200" y="66.356156"/>
     <use style="fill:#0000ff;stroke:#0000ff;" x="354.531236" xlink:href="#m295a6b4200" y="67.81616"/>
     <use style="fill:#0000ff;stroke:#0000ff;" x="358.54382" xlink:href="#m295a6b4200" y="68.766109"/>
     <use style="fill:#0000ff;stroke:#0000ff;" x="362.556404" xlink:href="#m295a6b4200" y="70.944622"/>
     <use style="fill:#0000ff;stroke:#0000ff;" x="366.568989" xlink:href="#m295a6b4200" y="70.268498"/>
     <use style="fill:#0000ff;stroke:#0000ff;" x="370.581573" xlink:href="#m295a6b4200" y="71.017229"/>
     <use style="fill:#0000ff;stroke:#0000ff;" x="374.594157" xlink:href="#m295a6b4200" y="72.872727"/>
     <use style="fill:#0000ff;stroke:#0000ff;" x="378.606742" xlink:href="#m295a6b4200" y="70.739433"/>
     <use style="fill:#0000ff;stroke:#0000ff;" x="382.619326" xlink:href="#m295a6b4200" y="70.406836"/>
     <use style="fill:#0000ff;stroke:#0000ff;" x="386.63191" xlink:href="#m295a6b4200" y="70.840114"/>
     <use style="fill:#0000ff;stroke:#0000ff;" x="390.644494" xlink:href="#m295a6b4200" y="71.512813"/>
     <use style="fill:#0000ff;stroke:#0000ff;" x="394.657079" xlink:href="#m295a6b4200" y="71.851211"/>
     <use style="fill:#0000ff;stroke:#0000ff;" x="398.669663" xlink:href="#m295a6b4200" y="70.7325"/>
     <use style="fill:#0000ff;stroke:#0000ff;" x="402.682247" xlink:href="#m295a6b4200" y="71.01036"/>
     <use style="fill:#0000ff;stroke:#0000ff;" x="406.694831" xlink:href="#m295a6b4200" y="71.260944"/>
     <use style="fill:#0000ff;stroke:#0000ff;" x="410.707416" xlink:href="#m295a6b4200" y="73.591072"/>
    </g>
   </g>
   <g id="line2d_56">
    <path clip-path="url(#p70950aa4a7)" d="M 61.612584 293.819945 
L 65.625169 281.731715 
L 69.637753 265.053898 
L 73.650337 245.577374 
L 77.662921 227.716308 
L 81.675506 214.408096 
L 85.68809 201.736217 
L 89.700674 188.523422 
L 93.713258 177.743546 
L 97.725843 166.302643 
L 101.738427 158.145018 
L 105.751011 149.095618 
L 109.763596 142.789696 
L 113.77618 135.805086 
L 117.788764 132.403669 
L 121.801348 126.659278 
L 125.813933 121.812083 
L 129.826517 119.274617 
L 133.839101 116.475725 
L 137.851685 113.875737 
L 141.86427 115.659172 
L 145.876854 110.842155 
L 149.889438 109.823435 
L 153.902022 109.65773 
L 157.914607 114.416092 
L 161.927191 110.719167 
L 165.939775 110.42601 
L 169.95236 110.587667 
L 173.964944 109.960134 
L 177.977528 112.136947 
L 181.990112 112.900936 
L 186.002697 130.255342 
L 190.015281 137.290676 
L 194.027865 137.252394 
L 198.040449 137.388999 
L 202.053034 139.514301 
L 206.065618 139.774848 
L 210.078202 141.614498 
L 214.090787 141.359336 
L 218.103371 141.52929 
L 222.115955 142.911337 
L 226.128539 143.703992 
L 230.141124 144.372189 
L 234.153708 154.748046 
L 238.166292 175.168683 
L 242.178876 178.164451 
L 246.191461 178.774417 
L 250.204045 177.496373 
L 254.216629 177.355014 
L 258.229213 177.837373 
L 262.241798 177.563571 
L 266.254382 176.277587 
L 270.266966 176.378343 
L 274.279551 176.158117 
L 278.292135 176.165375 
L 282.304719 176.39516 
L 286.317303 175.914648 
L 290.329888 175.675787 
L 294.342472 176.02672 
L 298.355056 176.003344 
L 302.36764 176.372024 
L 306.380225 175.94998 
L 310.392809 176.626622 
L 314.405393 176.904815 
L 318.417978 176.941986 
L 322.430562 177.30758 
L 326.443146 177.765381 
L 330.45573 178.411375 
L 334.468315 178.470816 
L 338.480899 178.560496 
L 342.493483 179.073281 
L 346.506067 179.974427 
L 350.518652 179.498718 
L 354.531236 180.124865 
L 358.54382 180.445928 
L 362.556404 181.750949 
L 366.568989 181.870394 
L 370.581573 182.557746 
L 374.594157 182.745266 
L 378.606742 183.354615 
L 382.619326 183.845379 
L 386.63191 184.309236 
L 390.644494 185.021307 
L 394.657079 185.429189 
L 398.669663 185.901817 
L 402.682247 185.964248 
L 406.694831 186.366957 
L 410.707416 186.380868 
" style="fill:none;stroke:#ff0000;stroke-dasharray:1.5,2.475;stroke-dashoffset:0;stroke-width:1.5;"/>
    <defs>
     <path d="M 0 1.5 
C 0.397805 1.5 0.77937 1.341951 1.06066 1.06066 
C 1.341951 0.77937 1.5 0.397805 1.5 0 
C 1.5 -0.397805 1.341951 -0.77937 1.06066 -1.06066 
C 0.77937 -1.341951 0.397805 -1.5 0 -1.5 
C -0.397805 -1.5 -0.77937 -1.341951 -1.06066 -1.06066 
C -1.341951 -0.77937 -1.5 -0.397805 -1.5 0 
C -1.5 0.397805 -1.341951 0.77937 -1.06066 1.06066 
C -0.77937 1.341951 -0.397805 1.5 0 1.5 
z
" id="mb089cbb81b" style="stroke:#ff0000;"/>
    </defs>
    <g clip-path="url(#p70950aa4a7)">
     <use style="fill:#ff0000;stroke:#ff0000;" x="61.612584" xlink:href="#mb089cbb81b" y="293.819945"/>
     <use style="fill:#ff0000;stroke:#ff0000;" x="65.625169" xlink:href="#mb089cbb81b" y="281.731715"/>
     <use style="fill:#ff0000;stroke:#ff0000;" x="69.637753" xlink:href="#mb089cbb81b" y="265.053898"/>
     <use style="fill:#ff0000;stroke:#ff0000;" x="73.650337" xlink:href="#mb089cbb81b" y="245.577374"/>
     <use style="fill:#ff0000;stroke:#ff0000;" x="77.662921" xlink:href="#mb089cbb81b" y="227.716308"/>
     <use style="fill:#ff0000;stroke:#ff0000;" x="81.675506" xlink:href="#mb089cbb81b" y="214.408096"/>
     <use style="fill:#ff0000;stroke:#ff0000;" x="85.68809" xlink:href="#mb089cbb81b" y="201.736217"/>
     <use style="fill:#ff0000;stroke:#ff0000;" x="89.700674" xlink:href="#mb089cbb81b" y="188.523422"/>
     <use style="fill:#ff0000;stroke:#ff0000;" x="93.713258" xlink:href="#mb089cbb81b" y="177.743546"/>
     <use style="fill:#ff0000;stroke:#ff0000;" x="97.725843" xlink:href="#mb089cbb81b" y="166.302643"/>
     <use style="fill:#ff0000;stroke:#ff0000;" x="101.738427" xlink:href="#mb089cbb81b" y="158.145018"/>
     <use style="fill:#ff0000;stroke:#ff0000;" x="105.751011" xlink:href="#mb089cbb81b" y="149.095618"/>
     <use style="fill:#ff0000;stroke:#ff0000;" x="109.763596" xlink:href="#mb089cbb81b" y="142.789696"/>
     <use style="fill:#ff0000;stroke:#ff0000;" x="113.77618" xlink:href="#mb089cbb81b" y="135.805086"/>
     <use style="fill:#ff0000;stroke:#ff0000;" x="117.788764" xlink:href="#mb089cbb81b" y="132.403669"/>
     <use style="fill:#ff0000;stroke:#ff0000;" x="121.801348" xlink:href="#mb089cbb81b" y="126.659278"/>
     <use style="fill:#ff0000;stroke:#ff0000;" x="125.813933" xlink:href="#mb089cbb81b" y="121.812083"/>
     <use style="fill:#ff0000;stroke:#ff0000;" x="129.826517" xlink:href="#mb089cbb81b" y="119.274617"/>
     <use style="fill:#ff0000;stroke:#ff0000;" x="133.839101" xlink:href="#mb089cbb81b" y="116.475725"/>
     <use style="fill:#ff0000;stroke:#ff0000;" x="137.851685" xlink:href="#mb089cbb81b" y="113.875737"/>
     <use style="fill:#ff0000;stroke:#ff0000;" x="141.86427" xlink:href="#mb089cbb81b" y="115.659172"/>
     <use style="fill:#ff0000;stroke:#ff0000;" x="145.876854" xlink:href="#mb089cbb81b" y="110.842155"/>
     <use style="fill:#ff0000;stroke:#ff0000;" x="149.889438" xlink:href="#mb089cbb81b" y="109.823435"/>
     <use style="fill:#ff0000;stroke:#ff0000;" x="153.902022" xlink:href="#mb089cbb81b" y="109.65773"/>
     <use style="fill:#ff0000;stroke:#ff0000;" x="157.914607" xlink:href="#mb089cbb81b" y="114.416092"/>
     <use style="fill:#ff0000;stroke:#ff0000;" x="161.927191" xlink:href="#mb089cbb81b" y="110.719167"/>
     <use style="fill:#ff0000;stroke:#ff0000;" x="165.939775" xlink:href="#mb089cbb81b" y="110.42601"/>
     <use style="fill:#ff0000;stroke:#ff0000;" x="169.95236" xlink:href="#mb089cbb81b" y="110.587667"/>
     <use style="fill:#ff0000;stroke:#ff0000;" x="173.964944" xlink:href="#mb089cbb81b" y="109.960134"/>
     <use style="fill:#ff0000;stroke:#ff0000;" x="177.977528" xlink:href="#mb089cbb81b" y="112.136947"/>
     <use style="fill:#ff0000;stroke:#ff0000;" x="181.990112" xlink:href="#mb089cbb81b" y="112.900936"/>
     <use style="fill:#ff0000;stroke:#ff0000;" x="186.002697" xlink:href="#mb089cbb81b" y="130.255342"/>
     <use style="fill:#ff0000;stroke:#ff0000;" x="190.015281" xlink:href="#mb089cbb81b" y="137.290676"/>
     <use style="fill:#ff0000;stroke:#ff0000;" x="194.027865" xlink:href="#mb089cbb81b" y="137.252394"/>
     <use style="fill:#ff0000;stroke:#ff0000;" x="198.040449" xlink:href="#mb089cbb81b" y="137.388999"/>
     <use style="fill:#ff0000;stroke:#ff0000;" x="202.053034" xlink:href="#mb089cbb81b" y="139.514301"/>
     <use style="fill:#ff0000;stroke:#ff0000;" x="206.065618" xlink:href="#mb089cbb81b" y="139.774848"/>
     <use style="fill:#ff0000;stroke:#ff0000;" x="210.078202" xlink:href="#mb089cbb81b" y="141.614498"/>
     <use style="fill:#ff0000;stroke:#ff0000;" x="214.090787" xlink:href="#mb089cbb81b" y="141.359336"/>
     <use style="fill:#ff0000;stroke:#ff0000;" x="218.103371" xlink:href="#mb089cbb81b" y="141.52929"/>
     <use style="fill:#ff0000;stroke:#ff0000;" x="222.115955" xlink:href="#mb089cbb81b" y="142.911337"/>
     <use style="fill:#ff0000;stroke:#ff0000;" x="226.128539" xlink:href="#mb089cbb81b" y="143.703992"/>
     <use style="fill:#ff0000;stroke:#ff0000;" x="230.141124" xlink:href="#mb089cbb81b" y="144.372189"/>
     <use style="fill:#ff0000;stroke:#ff0000;" x="234.153708" xlink:href="#mb089cbb81b" y="154.748046"/>
     <use style="fill:#ff0000;stroke:#ff0000;" x="238.166292" xlink:href="#mb089cbb81b" y="175.168683"/>
     <use style="fill:#ff0000;stroke:#ff0000;" x="242.178876" xlink:href="#mb089cbb81b" y="178.164451"/>
     <use style="fill:#ff0000;stroke:#ff0000;" x="246.191461" xlink:href="#mb089cbb81b" y="178.774417"/>
     <use style="fill:#ff0000;stroke:#ff0000;" x="250.204045" xlink:href="#mb089cbb81b" y="177.496373"/>
     <use style="fill:#ff0000;stroke:#ff0000;" x="254.216629" xlink:href="#mb089cbb81b" y="177.355014"/>
     <use style="fill:#ff0000;stroke:#ff0000;" x="258.229213" xlink:href="#mb089cbb81b" y="177.837373"/>
     <use style="fill:#ff0000;stroke:#ff0000;" x="262.241798" xlink:href="#mb089cbb81b" y="177.563571"/>
     <use style="fill:#ff0000;stroke:#ff0000;" x="266.254382" xlink:href="#mb089cbb81b" y="176.277587"/>
     <use style="fill:#ff0000;stroke:#ff0000;" x="270.266966" xlink:href="#mb089cbb81b" y="176.378343"/>
     <use style="fill:#ff0000;stroke:#ff0000;" x="274.279551" xlink:href="#mb089cbb81b" y="176.158117"/>
     <use style="fill:#ff0000;stroke:#ff0000;" x="278.292135" xlink:href="#mb089cbb81b" y="176.165375"/>
     <use style="fill:#ff0000;stroke:#ff0000;" x="282.304719" xlink:href="#mb089cbb81b" y="176.39516"/>
     <use style="fill:#ff0000;stroke:#ff0000;" x="286.317303" xlink:href="#mb089cbb81b" y="175.914648"/>
     <use style="fill:#ff0000;stroke:#ff0000;" x="290.329888" xlink:href="#mb089cbb81b" y="175.675787"/>
     <use style="fill:#ff0000;stroke:#ff0000;" x="294.342472" xlink:href="#mb089cbb81b" y="176.02672"/>
     <use style="fill:#ff0000;stroke:#ff0000;" x="298.355056" xlink:href="#mb089cbb81b" y="176.003344"/>
     <use style="fill:#ff0000;stroke:#ff0000;" x="302.36764" xlink:href="#mb089cbb81b" y="176.372024"/>
     <use style="fill:#ff0000;stroke:#ff0000;" x="306.380225" xlink:href="#mb089cbb81b" y="175.94998"/>
     <use style="fill:#ff0000;stroke:#ff0000;" x="310.392809" xlink:href="#mb089cbb81b" y="176.626622"/>
     <use style="fill:#ff0000;stroke:#ff0000;" x="314.405393" xlink:href="#mb089cbb81b" y="176.904815"/>
     <use style="fill:#ff0000;stroke:#ff0000;" x="318.417978" xlink:href="#mb089cbb81b" y="176.941986"/>
     <use style="fill:#ff0000;stroke:#ff0000;" x="322.430562" xlink:href="#mb089cbb81b" y="177.30758"/>
     <use style="fill:#ff0000;stroke:#ff0000;" x="326.443146" xlink:href="#mb089cbb81b" y="177.765381"/>
     <use style="fill:#ff0000;stroke:#ff0000;" x="330.45573" xlink:href="#mb089cbb81b" y="178.411375"/>
     <use style="fill:#ff0000;stroke:#ff0000;" x="334.468315" xlink:href="#mb089cbb81b" y="178.470816"/>
     <use style="fill:#ff0000;stroke:#ff0000;" x="338.480899" xlink:href="#mb089cbb81b" y="178.560496"/>
     <use style="fill:#ff0000;stroke:#ff0000;" x="342.493483" xlink:href="#mb089cbb81b" y="179.073281"/>
     <use style="fill:#ff0000;stroke:#ff0000;" x="346.506067" xlink:href="#mb089cbb81b" y="179.974427"/>
     <use style="fill:#ff0000;stroke:#ff0000;" x="350.518652" xlink:href="#mb089cbb81b" y="179.498718"/>
     <use style="fill:#ff0000;stroke:#ff0000;" x="354.531236" xlink:href="#mb089cbb81b" y="180.124865"/>
     <use style="fill:#ff0000;stroke:#ff0000;" x="358.54382" xlink:href="#mb089cbb81b" y="180.445928"/>
     <use style="fill:#ff0000;stroke:#ff0000;" x="362.556404" xlink:href="#mb089cbb81b" y="181.750949"/>
     <use style="fill:#ff0000;stroke:#ff0000;" x="366.568989" xlink:href="#mb089cbb81b" y="181.870394"/>
     <use style="fill:#ff0000;stroke:#ff0000;" x="370.581573" xlink:href="#mb089cbb81b" y="182.557746"/>
     <use style="fill:#ff0000;stroke:#ff0000;" x="374.594157" xlink:href="#mb089cbb81b" y="182.745266"/>
     <use style="fill:#ff0000;stroke:#ff0000;" x="378.606742" xlink:href="#mb089cbb81b" y="183.354615"/>
     <use style="fill:#ff0000;stroke:#ff0000;" x="382.619326" xlink:href="#mb089cbb81b" y="183.845379"/>
     <use style="fill:#ff0000;stroke:#ff0000;" x="386.63191" xlink:href="#mb089cbb81b" y="184.309236"/>
     <use style="fill:#ff0000;stroke:#ff0000;" x="390.644494" xlink:href="#mb089cbb81b" y="185.021307"/>
     <use style="fill:#ff0000;stroke:#ff0000;" x="394.657079" xlink:href="#mb089cbb81b" y="185.429189"/>
     <use style="fill:#ff0000;stroke:#ff0000;" x="398.669663" xlink:href="#mb089cbb81b" y="185.901817"/>
     <use style="fill:#ff0000;stroke:#ff0000;" x="402.682247" xlink:href="#mb089cbb81b" y="185.964248"/>
     <use style="fill:#ff0000;stroke:#ff0000;" x="406.694831" xlink:href="#mb089cbb81b" y="186.366957"/>
     <use style="fill:#ff0000;stroke:#ff0000;" x="410.707416" xlink:href="#mb089cbb81b" y="186.380868"/>
    </g>
   </g>
   <g id="line2d_57">
    <path clip-path="url(#p70950aa4a7)" d="M 61.612584 294.653973 
L 65.625169 282.23974 
L 69.637753 265.135491 
L 73.650337 246.090953 
L 77.662921 227.863123 
L 81.675506 214.367941 
L 85.68809 202.032582 
L 89.700674 188.570506 
L 93.713258 177.165453 
L 97.725843 165.407719 
L 101.738427 156.509977 
L 105.751011 146.684313 
L 109.763596 140.119117 
L 113.77618 131.618329 
L 117.788764 126.539738 
L 121.801348 119.70076 
L 125.813933 112.627802 
L 129.826517 108.741545 
L 133.839101 104.201257 
L 137.851685 100.613727 
L 141.86427 100.156178 
L 145.876854 95.149462 
L 149.889438 93.044247 
L 153.902022 91.955865 
L 157.914607 93.327911 
L 161.927191 89.794028 
L 165.939775 86.909993 
L 169.95236 85.722788 
L 173.964944 84.16752 
L 177.977528 85.877061 
L 181.990112 87.574976 
L 186.002697 98.532544 
L 190.015281 100.746517 
L 194.027865 99.605872 
L 198.040449 97.567304 
L 202.053034 99.447857 
L 206.065618 98.067104 
L 210.078202 97.591249 
L 214.090787 97.514682 
L 218.103371 100.009903 
L 222.115955 101.190699 
L 226.128539 100.499295 
L 230.141124 100.599628 
L 234.153708 108.824538 
L 238.166292 130.390147 
L 242.178876 134.658625 
L 246.191461 133.673755 
L 250.204045 132.524616 
L 254.216629 131.830801 
L 258.229213 131.040675 
L 262.241798 129.713878 
L 266.254382 127.184861 
L 270.266966 127.459129 
L 274.279551 126.54377 
L 278.292135 125.664382 
L 282.304719 125.107792 
L 286.317303 124.787599 
L 290.329888 123.995949 
L 294.342472 122.990094 
L 298.355056 122.915628 
L 302.36764 122.211511 
L 306.380225 122.529268 
L 310.392809 122.376236 
L 314.405393 121.631638 
L 318.417978 122.189304 
L 322.430562 123.068386 
L 326.443146 123.663834 
L 330.45573 123.248727 
L 334.468315 122.975937 
L 338.480899 123.701679 
L 342.493483 124.606373 
L 346.506067 124.82455 
L 350.518652 122.927437 
L 354.531236 123.970512 
L 358.54382 124.606019 
L 362.556404 126.347786 
L 366.568989 126.069446 
L 370.581573 126.787488 
L 374.594157 127.808996 
L 378.606742 127.047024 
L 382.619326 127.126108 
L 386.63191 127.574675 
L 390.644494 128.26706 
L 394.657079 128.6402 
L 398.669663 128.317159 
L 402.682247 128.487304 
L 406.694831 128.81395 
L 410.707416 129.98597 
" style="fill:none;stroke:#008000;stroke-dasharray:1.5,2.475;stroke-dashoffset:0;stroke-width:1.5;"/>
    <defs>
     <path d="M 0 1.5 
C 0.397805 1.5 0.77937 1.341951 1.06066 1.06066 
C 1.341951 0.77937 1.5 0.397805 1.5 0 
C 1.5 -0.397805 1.341951 -0.77937 1.06066 -1.06066 
C 0.77937 -1.341951 0.397805 -1.5 0 -1.5 
C -0.397805 -1.5 -0.77937 -1.341951 -1.06066 -1.06066 
C -1.341951 -0.77937 -1.5 -0.397805 -1.5 0 
C -1.5 0.397805 -1.341951 0.77937 -1.06066 1.06066 
C -0.77937 1.341951 -0.397805 1.5 0 1.5 
z
" id="m3f6138d961" style="stroke:#008000;"/>
    </defs>
    <g clip-path="url(#p70950aa4a7)">
     <use style="fill:#008000;stroke:#008000;" x="61.612584" xlink:href="#m3f6138d961" y="294.653973"/>
     <use style="fill:#008000;stroke:#008000;" x="65.625169" xlink:href="#m3f6138d961" y="282.23974"/>
     <use style="fill:#008000;stroke:#008000;" x="69.637753" xlink:href="#m3f6138d961" y="265.135491"/>
     <use style="fill:#008000;stroke:#008000;" x="73.650337" xlink:href="#m3f6138d961" y="246.090953"/>
     <use style="fill:#008000;stroke:#008000;" x="77.662921" xlink:href="#m3f6138d961" y="227.863123"/>
     <use style="fill:#008000;stroke:#008000;" x="81.675506" xlink:href="#m3f6138d961" y="214.367941"/>
     <use style="fill:#008000;stroke:#008000;" x="85.68809" xlink:href="#m3f6138d961" y="202.032582"/>
     <use style="fill:#008000;stroke:#008000;" x="89.700674" xlink:href="#m3f6138d961" y="188.570506"/>
     <use style="fill:#008000;stroke:#008000;" x="93.713258" xlink:href="#m3f6138d961" y="177.165453"/>
     <use style="fill:#008000;stroke:#008000;" x="97.725843" xlink:href="#m3f6138d961" y="165.407719"/>
     <use style="fill:#008000;stroke:#008000;" x="101.738427" xlink:href="#m3f6138d961" y="156.509977"/>
     <use style="fill:#008000;stroke:#008000;" x="105.751011" xlink:href="#m3f6138d961" y="146.684313"/>
     <use style="fill:#008000;stroke:#008000;" x="109.763596" xlink:href="#m3f6138d961" y="140.119117"/>
     <use style="fill:#008000;stroke:#008000;" x="113.77618" xlink:href="#m3f6138d961" y="131.618329"/>
     <use style="fill:#008000;stroke:#008000;" x="117.788764" xlink:href="#m3f6138d961" y="126.539738"/>
     <use style="fill:#008000;stroke:#008000;" x="121.801348" xlink:href="#m3f6138d961" y="119.70076"/>
     <use style="fill:#008000;stroke:#008000;" x="125.813933" xlink:href="#m3f6138d961" y="112.627802"/>
     <use style="fill:#008000;stroke:#008000;" x="129.826517" xlink:href="#m3f6138d961" y="108.741545"/>
     <use style="fill:#008000;stroke:#008000;" x="133.839101" xlink:href="#m3f6138d961" y="104.201257"/>
     <use style="fill:#008000;stroke:#008000;" x="137.851685" xlink:href="#m3f6138d961" y="100.613727"/>
     <use style="fill:#008000;stroke:#008000;" x="141.86427" xlink:href="#m3f6138d961" y="100.156178"/>
     <use style="fill:#008000;stroke:#008000;" x="145.876854" xlink:href="#m3f6138d961" y="95.149462"/>
     <use style="fill:#008000;stroke:#008000;" x="149.889438" xlink:href="#m3f6138d961" y="93.044247"/>
     <use style="fill:#008000;stroke:#008000;" x="153.902022" xlink:href="#m3f6138d961" y="91.955865"/>
     <use style="fill:#008000;stroke:#008000;" x="157.914607" xlink:href="#m3f6138d961" y="93.327911"/>
     <use style="fill:#008000;stroke:#008000;" x="161.927191" xlink:href="#m3f6138d961" y="89.794028"/>
     <use style="fill:#008000;stroke:#008000;" x="165.939775" xlink:href="#m3f6138d961" y="86.909993"/>
     <use style="fill:#008000;stroke:#008000;" x="169.95236" xlink:href="#m3f6138d961" y="85.722788"/>
     <use style="fill:#008000;stroke:#008000;" x="173.964944" xlink:href="#m3f6138d961" y="84.16752"/>
     <use style="fill:#008000;stroke:#008000;" x="177.977528" xlink:href="#m3f6138d961" y="85.877061"/>
     <use style="fill:#008000;stroke:#008000;" x="181.990112" xlink:href="#m3f6138d961" y="87.574976"/>
     <use style="fill:#008000;stroke:#008000;" x="186.002697" xlink:href="#m3f6138d961" y="98.532544"/>
     <use style="fill:#008000;stroke:#008000;" x="190.015281" xlink:href="#m3f6138d961" y="100.746517"/>
     <use style="fill:#008000;stroke:#008000;" x="194.027865" xlink:href="#m3f6138d961" y="99.605872"/>
     <use style="fill:#008000;stroke:#008000;" x="198.040449" xlink:href="#m3f6138d961" y="97.567304"/>
     <use style="fill:#008000;stroke:#008000;" x="202.053034" xlink:href="#m3f6138d961" y="99.447857"/>
     <use style="fill:#008000;stroke:#008000;" x="206.065618" xlink:href="#m3f6138d961" y="98.067104"/>
     <use style="fill:#008000;stroke:#008000;" x="210.078202" xlink:href="#m3f6138d961" y="97.591249"/>
     <use style="fill:#008000;stroke:#008000;" x="214.090787" xlink:href="#m3f6138d961" y="97.514682"/>
     <use style="fill:#008000;stroke:#008000;" x="218.103371" xlink:href="#m3f6138d961" y="100.009903"/>
     <use style="fill:#008000;stroke:#008000;" x="222.115955" xlink:href="#m3f6138d961" y="101.190699"/>
     <use style="fill:#008000;stroke:#008000;" x="226.128539" xlink:href="#m3f6138d961" y="100.499295"/>
     <use style="fill:#008000;stroke:#008000;" x="230.141124" xlink:href="#m3f6138d961" y="100.599628"/>
     <use style="fill:#008000;stroke:#008000;" x="234.153708" xlink:href="#m3f6138d961" y="108.824538"/>
     <use style="fill:#008000;stroke:#008000;" x="238.166292" xlink:href="#m3f6138d961" y="130.390147"/>
     <use style="fill:#008000;stroke:#008000;" x="242.178876" xlink:href="#m3f6138d961" y="134.658625"/>
     <use style="fill:#008000;stroke:#008000;" x="246.191461" xlink:href="#m3f6138d961" y="133.673755"/>
     <use style="fill:#008000;stroke:#008000;" x="250.204045" xlink:href="#m3f6138d961" y="132.524616"/>
     <use style="fill:#008000;stroke:#008000;" x="254.216629" xlink:href="#m3f6138d961" y="131.830801"/>
     <use style="fill:#008000;stroke:#008000;" x="258.229213" xlink:href="#m3f6138d961" y="131.040675"/>
     <use style="fill:#008000;stroke:#008000;" x="262.241798" xlink:href="#m3f6138d961" y="129.713878"/>
     <use style="fill:#008000;stroke:#008000;" x="266.254382" xlink:href="#m3f6138d961" y="127.184861"/>
     <use style="fill:#008000;stroke:#008000;" x="270.266966" xlink:href="#m3f6138d961" y="127.459129"/>
     <use style="fill:#008000;stroke:#008000;" x="274.279551" xlink:href="#m3f6138d961" y="126.54377"/>
     <use style="fill:#008000;stroke:#008000;" x="278.292135" xlink:href="#m3f6138d961" y="125.664382"/>
     <use style="fill:#008000;stroke:#008000;" x="282.304719" xlink:href="#m3f6138d961" y="125.107792"/>
     <use style="fill:#008000;stroke:#008000;" x="286.317303" xlink:href="#m3f6138d961" y="124.787599"/>
     <use style="fill:#008000;stroke:#008000;" x="290.329888" xlink:href="#m3f6138d961" y="123.995949"/>
     <use style="fill:#008000;stroke:#008000;" x="294.342472" xlink:href="#m3f6138d961" y="122.990094"/>
     <use style="fill:#008000;stroke:#008000;" x="298.355056" xlink:href="#m3f6138d961" y="122.915628"/>
     <use style="fill:#008000;stroke:#008000;" x="302.36764" xlink:href="#m3f6138d961" y="122.211511"/>
     <use style="fill:#008000;stroke:#008000;" x="306.380225" xlink:href="#m3f6138d961" y="122.529268"/>
     <use style="fill:#008000;stroke:#008000;" x="310.392809" xlink:href="#m3f6138d961" y="122.376236"/>
     <use style="fill:#008000;stroke:#008000;" x="314.405393" xlink:href="#m3f6138d961" y="121.631638"/>
     <use style="fill:#008000;stroke:#008000;" x="318.417978" xlink:href="#m3f6138d961" y="122.189304"/>
     <use style="fill:#008000;stroke:#008000;" x="322.430562" xlink:href="#m3f6138d961" y="123.068386"/>
     <use style="fill:#008000;stroke:#008000;" x="326.443146" xlink:href="#m3f6138d961" y="123.663834"/>
     <use style="fill:#008000;stroke:#008000;" x="330.45573" xlink:href="#m3f6138d961" y="123.248727"/>
     <use style="fill:#008000;stroke:#008000;" x="334.468315" xlink:href="#m3f6138d961" y="122.975937"/>
     <use style="fill:#008000;stroke:#008000;" x="338.480899" xlink:href="#m3f6138d961" y="123.701679"/>
     <use style="fill:#008000;stroke:#008000;" x="342.493483" xlink:href="#m3f6138d961" y="124.606373"/>
     <use style="fill:#008000;stroke:#008000;" x="346.506067" xlink:href="#m3f6138d961" y="124.82455"/>
     <use style="fill:#008000;stroke:#008000;" x="350.518652" xlink:href="#m3f6138d961" y="122.927437"/>
     <use style="fill:#008000;stroke:#008000;" x="354.531236" xlink:href="#m3f6138d961" y="123.970512"/>
     <use style="fill:#008000;stroke:#008000;" x="358.54382" xlink:href="#m3f6138d961" y="124.606019"/>
     <use style="fill:#008000;stroke:#008000;" x="362.556404" xlink:href="#m3f6138d961" y="126.347786"/>
     <use style="fill:#008000;stroke:#008000;" x="366.568989" xlink:href="#m3f6138d961" y="126.069446"/>
     <use style="fill:#008000;stroke:#008000;" x="370.581573" xlink:href="#m3f6138d961" y="126.787488"/>
     <use style="fill:#008000;stroke:#008000;" x="374.594157" xlink:href="#m3f6138d961" y="127.808996"/>
     <use style="fill:#008000;stroke:#008000;" x="378.606742" xlink:href="#m3f6138d961" y="127.047024"/>
     <use style="fill:#008000;stroke:#008000;" x="382.619326" xlink:href="#m3f6138d961" y="127.126108"/>
     <use style="fill:#008000;stroke:#008000;" x="386.63191" xlink:href="#m3f6138d961" y="127.574675"/>
     <use style="fill:#008000;stroke:#008000;" x="390.644494" xlink:href="#m3f6138d961" y="128.26706"/>
     <use style="fill:#008000;stroke:#008000;" x="394.657079" xlink:href="#m3f6138d961" y="128.6402"/>
     <use style="fill:#008000;stroke:#008000;" x="398.669663" xlink:href="#m3f6138d961" y="128.317159"/>
     <use style="fill:#008000;stroke:#008000;" x="402.682247" xlink:href="#m3f6138d961" y="128.487304"/>
     <use style="fill:#008000;stroke:#008000;" x="406.694831" xlink:href="#m3f6138d961" y="128.81395"/>
     <use style="fill:#008000;stroke:#008000;" x="410.707416" xlink:href="#m3f6138d961" y="129.98597"/>
    </g>
   </g>
   <g id="patch_3">
    <path d="M 57.6 307.584 
L 57.6 41.472 
" style="fill:none;stroke:#000000;stroke-linecap:square;stroke-linejoin:miter;stroke-width:0.8;"/>
   </g>
   <g id="patch_4">
    <path d="M 414.72 307.584 
L 414.72 41.472 
" style="fill:none;stroke:#000000;stroke-linecap:square;stroke-linejoin:miter;stroke-width:0.8;"/>
   </g>
   <g id="patch_5">
    <path d="M 57.6 307.584 
L 414.72 307.584 
" style="fill:none;stroke:#000000;stroke-linecap:square;stroke-linejoin:miter;stroke-width:0.8;"/>
   </g>
   <g id="patch_6">
    <path d="M 57.6 41.472 
L 414.72 41.472 
" style="fill:none;stroke:#000000;stroke-linecap:square;stroke-linejoin:miter;stroke-width:0.8;"/>
   </g>
   <g id="text_30">
    <!-- ScanTrans 3PV on pre_transpose42 -->
    <defs>
     <path d="M 53.515625 70.515625 
L 53.515625 60.890625 
Q 47.90625 63.578125 42.921875 64.890625 
Q 37.9375 66.21875 33.296875 66.21875 
Q 25.25 66.21875 20.875 63.09375 
Q 16.5 59.96875 16.5 54.203125 
Q 16.5 49.359375 19.40625 46.890625 
Q 22.3125 44.4375 30.421875 42.921875 
L 36.375 41.703125 
Q 47.40625 39.59375 52.65625 34.296875 
Q 57.90625 29 57.90625 20.125 
Q 57.90625 9.515625 50.796875 4.046875 
Q 43.703125 -1.421875 29.984375 -1.421875 
Q 24.8125 -1.421875 18.96875 -0.25 
Q 13.140625 0.921875 6.890625 3.21875 
L 6.890625 13.375 
Q 12.890625 10.015625 18.65625 8.296875 
Q 24.421875 6.59375 29.984375 6.59375 
Q 38.421875 6.59375 43.015625 9.90625 
Q 47.609375 13.234375 47.609375 19.390625 
Q 47.609375 24.75 44.3125 27.78125 
Q 41.015625 30.8125 33.5 32.328125 
L 27.484375 33.5 
Q 16.453125 35.6875 11.515625 40.375 
Q 6.59375 45.0625 6.59375 53.421875 
Q 6.59375 63.09375 13.40625 68.65625 
Q 20.21875 74.21875 32.171875 74.21875 
Q 37.3125 74.21875 42.625 73.28125 
Q 47.953125 72.359375 53.515625 70.515625 
z
" id="DejaVuSans-83"/>
     <path d="M 48.78125 52.59375 
L 48.78125 44.1875 
Q 44.96875 46.296875 41.140625 47.34375 
Q 37.3125 48.390625 33.40625 48.390625 
Q 24.65625 48.390625 19.8125 42.84375 
Q 14.984375 37.3125 14.984375 27.296875 
Q 14.984375 17.28125 19.8125 11.734375 
Q 24.65625 6.203125 33.40625 6.203125 
Q 37.3125 6.203125 41.140625 7.25 
Q 44.96875 8.296875 48.78125 10.40625 
L 48.78125 2.09375 
Q 45.015625 0.34375 40.984375 -0.53125 
Q 36.96875 -1.421875 32.421875 -1.421875 
Q 20.0625 -1.421875 12.78125 6.34375 
Q 5.515625 14.109375 5.515625 27.296875 
Q 5.515625 40.671875 12.859375 48.328125 
Q 20.21875 56 33.015625 56 
Q 37.15625 56 41.109375 55.140625 
Q 45.0625 54.296875 48.78125 52.59375 
z
" id="DejaVuSans-99"/>
     <path d="M 54.890625 33.015625 
L 54.890625 0 
L 45.90625 0 
L 45.90625 32.71875 
Q 45.90625 40.484375 42.875 44.328125 
Q 39.84375 48.1875 33.796875 48.1875 
Q 26.515625 48.1875 22.3125 43.546875 
Q 18.109375 38.921875 18.109375 30.90625 
L 18.109375 0 
L 9.078125 0 
L 9.078125 54.6875 
L 18.109375 54.6875 
L 18.109375 46.1875 
Q 21.34375 51.125 25.703125 53.5625 
Q 30.078125 56 35.796875 56 
Q 45.21875 56 50.046875 50.171875 
Q 54.890625 44.34375 54.890625 33.015625 
z
" id="DejaVuSans-110"/>
     <path d="M -0.296875 72.90625 
L 61.375 72.90625 
L 61.375 64.59375 
L 35.5 64.59375 
L 35.5 0 
L 25.59375 0 
L 25.59375 64.59375 
L -0.296875 64.59375 
z
" id="DejaVuSans-84"/>
     <path d="M 19.671875 64.796875 
L 19.671875 37.40625 
L 32.078125 37.40625 
Q 38.96875 37.40625 42.71875 40.96875 
Q 46.484375 44.53125 46.484375 51.125 
Q 46.484375 57.671875 42.71875 61.234375 
Q 38.96875 64.796875 32.078125 64.796875 
z
M 9.8125 72.90625 
L 32.078125 72.90625 
Q 44.34375 72.90625 50.609375 67.359375 
Q 56.890625 61.8125 56.890625 51.125 
Q 56.890625 40.328125 50.609375 34.8125 
Q 44.34375 29.296875 32.078125 29.296875 
L 19.671875 29.296875 
L 19.671875 0 
L 9.8125 0 
z
" id="DejaVuSans-80"/>
     <path d="M 28.609375 0 
L 0.78125 72.90625 
L 11.078125 72.90625 
L 34.1875 11.53125 
L 57.328125 72.90625 
L 67.578125 72.90625 
L 39.796875 0 
z
" id="DejaVuSans-86"/>
     <path d="M 30.609375 48.390625 
Q 23.390625 48.390625 19.1875 42.75 
Q 14.984375 37.109375 14.984375 27.296875 
Q 14.984375 17.484375 19.15625 11.84375 
Q 23.34375 6.203125 30.609375 6.203125 
Q 37.796875 6.203125 41.984375 11.859375 
Q 46.1875 17.53125 46.1875 27.296875 
Q 46.1875 37.015625 41.984375 42.703125 
Q 37.796875 48.390625 30.609375 48.390625 
z
M 30.609375 56 
Q 42.328125 56 49.015625 48.375 
Q 55.71875 40.765625 55.71875 27.296875 
Q 55.71875 13.875 49.015625 6.21875 
Q 42.328125 -1.421875 30.609375 -1.421875 
Q 18.84375 -1.421875 12.171875 6.21875 
Q 5.515625 13.875 5.515625 27.296875 
Q 5.515625 40.765625 12.171875 48.375 
Q 18.84375 56 30.609375 56 
z
" id="DejaVuSans-111"/>
     <path d="M 50.984375 -16.609375 
L 50.984375 -23.578125 
L -0.984375 -23.578125 
L -0.984375 -16.609375 
z
" id="DejaVuSans-95"/>
    </defs>
    <g transform="translate(130.798125 35.472)scale(0.12 -0.12)">
     <use xlink:href="#DejaVuSans-83"/>
     <use x="63.476562" xlink:href="#DejaVuSans-99"/>
     <use x="118.457031" xlink:href="#DejaVuSans-97"/>
     <use x="179.736328" xlink:href="#DejaVuSans-110"/>
     <use x="243.115234" xlink:href="#DejaVuSans-84"/>
     <use x="289.449219" xlink:href="#DejaVuSans-114"/>
     <use x="330.5625" xlink:href="#DejaVuSans-97"/>
     <use x="391.841797" xlink:href="#DejaVuSans-110"/>
     <use x="455.220703" xlink:href="#DejaVuSans-115"/>
     <use x="507.320312" xlink:href="#DejaVuSans-32"/>
     <use x="539.107422" xlink:href="#DejaVuSans-51"/>
     <use x="602.730469" xlink:href="#DejaVuSans-80"/>
     <use x="663.033203" xlink:href="#DejaVuSans-86"/>
     <use x="731.441406" xlink:href="#DejaVuSans-32"/>
     <use x="763.228516" xlink:href="#DejaVuSans-111"/>
     <use x="824.410156" xlink:href="#DejaVuSans-110"/>
     <use x="887.789062" xlink:href="#DejaVuSans-32"/>
     <use x="919.576172" xlink:href="#DejaVuSans-112"/>
     <use x="983.052734" xlink:href="#DejaVuSans-114"/>
     <use x="1021.916016" xlink:href="#DejaVuSans-101"/>
     <use x="1083.439453" xlink:href="#DejaVuSans-95"/>
     <use x="1133.439453" xlink:href="#DejaVuSans-116"/>
     <use x="1172.648438" xlink:href="#DejaVuSans-114"/>
     <use x="1213.761719" xlink:href="#DejaVuSans-97"/>
     <use x="1275.041016" xlink:href="#DejaVuSans-110"/>
     <use x="1338.419922" xlink:href="#DejaVuSans-115"/>
     <use x="1390.519531" xlink:href="#DejaVuSans-112"/>
     <use x="1453.996094" xlink:href="#DejaVuSans-111"/>
     <use x="1515.177734" xlink:href="#DejaVuSans-115"/>
     <use x="1567.277344" xlink:href="#DejaVuSans-101"/>
     <use x="1628.800781" xlink:href="#DejaVuSans-52"/>
     <use x="1692.423828" xlink:href="#DejaVuSans-50"/>
    </g>
   </g>
   <g id="legend_1">
    <g id="patch_7">
     <path d="M 313.152813 302.584 
L 407.72 302.584 
Q 409.72 302.584 409.72 300.584 
L 409.72 257.2715 
Q 409.72 255.2715 407.72 255.2715 
L 313.152813 255.2715 
Q 311.152813 255.2715 311.152813 257.2715 
L 311.152813 300.584 
Q 311.152813 302.584 313.152813 302.584 
z
" style="fill:#ffffff;opacity:0.8;stroke:#cccccc;stroke-linejoin:miter;"/>
    </g>
    <g id="line2d_58">
     <path d="M 315.152813 263.369937 
L 335.152813 263.369937 
" style="fill:none;stroke:#0000ff;stroke-dasharray:1.5,2.475;stroke-dashoffset:0;stroke-width:1.5;"/>
    </g>
    <g id="line2d_59">
     <g>
      <use style="fill:#0000ff;stroke:#0000ff;" x="325.152813" xlink:href="#m295a6b4200" y="263.369937"/>
     </g>
    </g>
    <g id="text_31">
     <!-- transpose -->
     <g transform="translate(343.152813 266.869937)scale(0.1 -0.1)">
      <use xlink:href="#DejaVuSans-116"/>
      <use x="39.208984" xlink:href="#DejaVuSans-114"/>
      <use x="80.322266" xlink:href="#DejaVuSans-97"/>
      <use x="141.601562" xlink:href="#DejaVuSans-110"/>
      <use x="204.980469" xlink:href="#DejaVuSans-115"/>
      <use x="257.080078" xlink:href="#DejaVuSans-112"/>
      <use x="320.556641" xlink:href="#DejaVuSans-111"/>
      <use x="381.738281" xlink:href="#DejaVuSans-115"/>
      <use x="433.837891" xlink:href="#DejaVuSans-101"/>
     </g>
    </g>
    <g id="line2d_60">
     <path d="M 315.152813 278.048063 
L 335.152813 278.048063 
" style="fill:none;stroke:#ff0000;stroke-dasharray:1.5,2.475;stroke-dashoffset:0;stroke-width:1.5;"/>
    </g>
    <g id="line2d_61">
     <g>
      <use style="fill:#ff0000;stroke:#ff0000;" x="325.152813" xlink:href="#mb089cbb81b" y="278.048063"/>
     </g>
    </g>
    <g id="text_32">
     <!-- transpose_tr -->
     <g transform="translate(343.152813 281.548063)scale(0.1 -0.1)">
      <use xlink:href="#DejaVuSans-116"/>
      <use x="39.208984" xlink:href="#DejaVuSans-114"/>
      <use x="80.322266" xlink:href="#DejaVuSans-97"/>
      <use x="141.601562" xlink:href="#DejaVuSans-110"/>
      <use x="204.980469" xlink:href="#DejaVuSans-115"/>
      <use x="257.080078" xlink:href="#DejaVuSans-112"/>
      <use x="320.556641" xlink:href="#DejaVuSans-111"/>
      <use x="381.738281" xlink:href="#DejaVuSans-115"/>
      <use x="433.837891" xlink:href="#DejaVuSans-101"/>
      <use x="495.361328" xlink:href="#DejaVuSans-95"/>
      <use x="545.361328" xlink:href="#DejaVuSans-116"/>
      <use x="584.570312" xlink:href="#DejaVuSans-114"/>
     </g>
    </g>
    <g id="line2d_62">
     <path d="M 315.152813 293.004312 
L 335.152813 293.004312 
" style="fill:none;stroke:#008000;stroke-dasharray:1.5,2.475;stroke-dashoffset:0;stroke-width:1.5;"/>
    </g>
    <g id="line2d_63">
     <g>
      <use style="fill:#008000;stroke:#008000;" x="325.152813" xlink:href="#m3f6138d961" y="293.004312"/>
     </g>
    </g>
    <g id="text_33">
     <!-- mean -->
     <defs>
      <path d="M 52 44.1875 
Q 55.375 50.25 60.0625 53.125 
Q 64.75 56 71.09375 56 
Q 79.640625 56 84.28125 50.015625 
Q 88.921875 44.046875 88.921875 33.015625 
L 88.921875 0 
L 79.890625 0 
L 79.890625 32.71875 
Q 79.890625 40.578125 77.09375 44.375 
Q 74.3125 48.1875 68.609375 48.1875 
Q 61.625 48.1875 57.5625 43.546875 
Q 53.515625 38.921875 53.515625 30.90625 
L 53.515625 0 
L 44.484375 0 
L 44.484375 32.71875 
Q 44.484375 40.625 41.703125 44.40625 
Q 38.921875 48.1875 33.109375 48.1875 
Q 26.21875 48.1875 22.15625 43.53125 
Q 18.109375 38.875 18.109375 30.90625 
L 18.109375 0 
L 9.078125 0 
L 9.078125 54.6875 
L 18.109375 54.6875 
L 18.109375 46.1875 
Q 21.1875 51.21875 25.484375 53.609375 
Q 29.78125 56 35.6875 56 
Q 41.65625 56 45.828125 52.96875 
Q 50 49.953125 52 44.1875 
z
" id="DejaVuSans-109"/>
     </defs>
     <g transform="translate(343.152813 296.504312)scale(0.1 -0.1)">
      <use xlink:href="#DejaVuSans-109"/>
      <use x="97.412109" xlink:href="#DejaVuSans-101"/>
      <use x="158.935547" xlink:href="#DejaVuSans-97"/>
      <use x="220.214844" xlink:href="#DejaVuSans-110"/>
     </g>
    </g>
   </g>
  </g>
 </g>
 <defs>
  <clipPath id="p70950aa4a7">
   <rect height="266.112" width="357.12" x="57.6" y="41.472"/>
  </clipPath>
 </defs>
</svg>
