<?xml version="1.0" encoding="utf-8" standalone="no"?>
<!DOCTYPE svg PUBLIC "-//W3C//DTD SVG 1.1//EN"
  "http://www.w3.org/Graphics/SVG/1.1/DTD/svg11.dtd">
<!-- Created with matplotlib (https://matplotlib.org/) -->
<svg height="345.6pt" version="1.1" viewBox="0 0 460.8 345.6" width="460.8pt" xmlns="http://www.w3.org/2000/svg" xmlns:xlink="http://www.w3.org/1999/xlink">
 <defs>
  <style type="text/css">
*{stroke-linecap:butt;stroke-linejoin:round;}
  </style>
 </defs>
 <g id="figure_1">
  <g id="patch_1">
   <path d="M 0 345.6 
L 460.8 345.6 
L 460.8 0 
L 0 0 
z
" style="fill:#ffffff;"/>
  </g>
  <g id="axes_1">
   <g id="patch_2">
    <path d="M 57.6 307.584 
L 414.72 307.584 
L 414.72 41.472 
L 57.6 41.472 
z
" style="fill:#ffffff;"/>
   </g>
   <g id="matplotlib.axis_1">
    <g id="xtick_1">
     <g id="line2d_1">
      <path clip-path="url(#pd120e545ca)" d="M 61.612584 307.584 
L 61.612584 41.472 
" style="fill:none;stroke:#b0b0b0;stroke-dasharray:5.12,1.28,0.8,1.28;stroke-dashoffset:0;stroke-width:0.8;"/>
     </g>
     <g id="line2d_2">
      <defs>
       <path d="M 0 0 
L 0 3.5 
" id="m3bd616bbc5" style="stroke:#000000;stroke-width:0.8;"/>
      </defs>
      <g>
       <use style="stroke:#000000;stroke-width:0.8;" x="61.612584" xlink:href="#m3bd616bbc5" y="307.584"/>
      </g>
     </g>
     <g id="text_1">
      <!-- 1 -->
      <defs>
       <path d="M 12.40625 8.296875 
L 28.515625 8.296875 
L 28.515625 63.921875 
L 10.984375 60.40625 
L 10.984375 69.390625 
L 28.421875 72.90625 
L 38.28125 72.90625 
L 38.28125 8.296875 
L 54.390625 8.296875 
L 54.390625 0 
L 12.40625 0 
z
" id="DejaVuSans-49"/>
      </defs>
      <g transform="translate(58.431334 322.182437)scale(0.1 -0.1)">
       <use xlink:href="#DejaVuSans-49"/>
      </g>
     </g>
    </g>
    <g id="xtick_2">
     <g id="line2d_3">
      <path clip-path="url(#pd120e545ca)" d="M 73.650337 307.584 
L 73.650337 41.472 
" style="fill:none;stroke:#b0b0b0;stroke-dasharray:5.12,1.28,0.8,1.28;stroke-dashoffset:0;stroke-width:0.8;"/>
     </g>
     <g id="line2d_4">
      <g>
       <use style="stroke:#000000;stroke-width:0.8;" x="73.650337" xlink:href="#m3bd616bbc5" y="307.584"/>
      </g>
     </g>
     <g id="text_2">
      <!-- 4 -->
      <defs>
       <path d="M 37.796875 64.3125 
L 12.890625 25.390625 
L 37.796875 25.390625 
z
M 35.203125 72.90625 
L 47.609375 72.90625 
L 47.609375 25.390625 
L 58.015625 25.390625 
L 58.015625 17.1875 
L 47.609375 17.1875 
L 47.609375 0 
L 37.796875 0 
L 37.796875 17.1875 
L 4.890625 17.1875 
L 4.890625 26.703125 
z
" id="DejaVuSans-52"/>
      </defs>
      <g transform="translate(70.469087 322.182437)scale(0.1 -0.1)">
       <use xlink:href="#DejaVuSans-52"/>
      </g>
     </g>
    </g>
    <g id="xtick_3">
     <g id="line2d_5">
      <path clip-path="url(#pd120e545ca)" d="M 89.700674 307.584 
L 89.700674 41.472 
" style="fill:none;stroke:#b0b0b0;stroke-dasharray:5.12,1.28,0.8,1.28;stroke-dashoffset:0;stroke-width:0.8;"/>
     </g>
     <g id="line2d_6">
      <g>
       <use style="stroke:#000000;stroke-width:0.8;" x="89.700674" xlink:href="#m3bd616bbc5" y="307.584"/>
      </g>
     </g>
     <g id="text_3">
      <!-- 8 -->
      <defs>
       <path d="M 31.78125 34.625 
Q 24.75 34.625 20.71875 30.859375 
Q 16.703125 27.09375 16.703125 20.515625 
Q 16.703125 13.921875 20.71875 10.15625 
Q 24.75 6.390625 31.78125 6.390625 
Q 38.8125 6.390625 42.859375 10.171875 
Q 46.921875 13.96875 46.921875 20.515625 
Q 46.921875 27.09375 42.890625 30.859375 
Q 38.875 34.625 31.78125 34.625 
z
M 21.921875 38.8125 
Q 15.578125 40.375 12.03125 44.71875 
Q 8.5 49.078125 8.5 55.328125 
Q 8.5 64.0625 14.71875 69.140625 
Q 20.953125 74.21875 31.78125 74.21875 
Q 42.671875 74.21875 48.875 69.140625 
Q 55.078125 64.0625 55.078125 55.328125 
Q 55.078125 49.078125 51.53125 44.71875 
Q 48 40.375 41.703125 38.8125 
Q 48.828125 37.15625 52.796875 32.3125 
Q 56.78125 27.484375 56.78125 20.515625 
Q 56.78125 9.90625 50.3125 4.234375 
Q 43.84375 -1.421875 31.78125 -1.421875 
Q 19.734375 -1.421875 13.25 4.234375 
Q 6.78125 9.90625 6.78125 20.515625 
Q 6.78125 27.484375 10.78125 32.3125 
Q 14.796875 37.15625 21.921875 38.8125 
z
M 18.3125 54.390625 
Q 18.3125 48.734375 21.84375 45.5625 
Q 25.390625 42.390625 31.78125 42.390625 
Q 38.140625 42.390625 41.71875 45.5625 
Q 45.3125 48.734375 45.3125 54.390625 
Q 45.3125 60.0625 41.71875 63.234375 
Q 38.140625 66.40625 31.78125 66.40625 
Q 25.390625 66.40625 21.84375 63.234375 
Q 18.3125 60.0625 18.3125 54.390625 
z
" id="DejaVuSans-56"/>
      </defs>
      <g transform="translate(86.519424 322.182437)scale(0.1 -0.1)">
       <use xlink:href="#DejaVuSans-56"/>
      </g>
     </g>
    </g>
    <g id="xtick_4">
     <g id="line2d_7">
      <path clip-path="url(#pd120e545ca)" d="M 105.751011 307.584 
L 105.751011 41.472 
" style="fill:none;stroke:#b0b0b0;stroke-dasharray:5.12,1.28,0.8,1.28;stroke-dashoffset:0;stroke-width:0.8;"/>
     </g>
     <g id="line2d_8">
      <g>
       <use style="stroke:#000000;stroke-width:0.8;" x="105.751011" xlink:href="#m3bd616bbc5" y="307.584"/>
      </g>
     </g>
     <g id="text_4">
      <!-- 12 -->
      <defs>
       <path d="M 19.1875 8.296875 
L 53.609375 8.296875 
L 53.609375 0 
L 7.328125 0 
L 7.328125 8.296875 
Q 12.9375 14.109375 22.625 23.890625 
Q 32.328125 33.6875 34.8125 36.53125 
Q 39.546875 41.84375 41.421875 45.53125 
Q 43.3125 49.21875 43.3125 52.78125 
Q 43.3125 58.59375 39.234375 62.25 
Q 35.15625 65.921875 28.609375 65.921875 
Q 23.96875 65.921875 18.8125 64.3125 
Q 13.671875 62.703125 7.8125 59.421875 
L 7.8125 69.390625 
Q 13.765625 71.78125 18.9375 73 
Q 24.125 74.21875 28.421875 74.21875 
Q 39.75 74.21875 46.484375 68.546875 
Q 53.21875 62.890625 53.21875 53.421875 
Q 53.21875 48.921875 51.53125 44.890625 
Q 49.859375 40.875 45.40625 35.40625 
Q 44.1875 33.984375 37.640625 27.21875 
Q 31.109375 20.453125 19.1875 8.296875 
z
" id="DejaVuSans-50"/>
      </defs>
      <g transform="translate(99.388511 322.182437)scale(0.1 -0.1)">
       <use xlink:href="#DejaVuSans-49"/>
       <use x="63.623047" xlink:href="#DejaVuSans-50"/>
      </g>
     </g>
    </g>
    <g id="xtick_5">
     <g id="line2d_9">
      <path clip-path="url(#pd120e545ca)" d="M 121.801348 307.584 
L 121.801348 41.472 
" style="fill:none;stroke:#b0b0b0;stroke-dasharray:5.12,1.28,0.8,1.28;stroke-dashoffset:0;stroke-width:0.8;"/>
     </g>
     <g id="line2d_10">
      <g>
       <use style="stroke:#000000;stroke-width:0.8;" x="121.801348" xlink:href="#m3bd616bbc5" y="307.584"/>
      </g>
     </g>
     <g id="text_5">
      <!-- 16 -->
      <defs>
       <path d="M 33.015625 40.375 
Q 26.375 40.375 22.484375 35.828125 
Q 18.609375 31.296875 18.609375 23.390625 
Q 18.609375 15.53125 22.484375 10.953125 
Q 26.375 6.390625 33.015625 6.390625 
Q 39.65625 6.390625 43.53125 10.953125 
Q 47.40625 15.53125 47.40625 23.390625 
Q 47.40625 31.296875 43.53125 35.828125 
Q 39.65625 40.375 33.015625 40.375 
z
M 52.59375 71.296875 
L 52.59375 62.3125 
Q 48.875 64.0625 45.09375 64.984375 
Q 41.3125 65.921875 37.59375 65.921875 
Q 27.828125 65.921875 22.671875 59.328125 
Q 17.53125 52.734375 16.796875 39.40625 
Q 19.671875 43.65625 24.015625 45.921875 
Q 28.375 48.1875 33.59375 48.1875 
Q 44.578125 48.1875 50.953125 41.515625 
Q 57.328125 34.859375 57.328125 23.390625 
Q 57.328125 12.15625 50.6875 5.359375 
Q 44.046875 -1.421875 33.015625 -1.421875 
Q 20.359375 -1.421875 13.671875 8.265625 
Q 6.984375 17.96875 6.984375 36.375 
Q 6.984375 53.65625 15.1875 63.9375 
Q 23.390625 74.21875 37.203125 74.21875 
Q 40.921875 74.21875 44.703125 73.484375 
Q 48.484375 72.75 52.59375 71.296875 
z
" id="DejaVuSans-54"/>
      </defs>
      <g transform="translate(115.438848 322.182437)scale(0.1 -0.1)">
       <use xlink:href="#DejaVuSans-49"/>
       <use x="63.623047" xlink:href="#DejaVuSans-54"/>
      </g>
     </g>
    </g>
    <g id="xtick_6">
     <g id="line2d_11">
      <path clip-path="url(#pd120e545ca)" d="M 137.851685 307.584 
L 137.851685 41.472 
" style="fill:none;stroke:#b0b0b0;stroke-dasharray:5.12,1.28,0.8,1.28;stroke-dashoffset:0;stroke-width:0.8;"/>
     </g>
     <g id="line2d_12">
      <g>
       <use style="stroke:#000000;stroke-width:0.8;" x="137.851685" xlink:href="#m3bd616bbc5" y="307.584"/>
      </g>
     </g>
     <g id="text_6">
      <!-- 20 -->
      <defs>
       <path d="M 31.78125 66.40625 
Q 24.171875 66.40625 20.328125 58.90625 
Q 16.5 51.421875 16.5 36.375 
Q 16.5 21.390625 20.328125 13.890625 
Q 24.171875 6.390625 31.78125 6.390625 
Q 39.453125 6.390625 43.28125 13.890625 
Q 47.125 21.390625 47.125 36.375 
Q 47.125 51.421875 43.28125 58.90625 
Q 39.453125 66.40625 31.78125 66.40625 
z
M 31.78125 74.21875 
Q 44.046875 74.21875 50.515625 64.515625 
Q 56.984375 54.828125 56.984375 36.375 
Q 56.984375 17.96875 50.515625 8.265625 
Q 44.046875 -1.421875 31.78125 -1.421875 
Q 19.53125 -1.421875 13.0625 8.265625 
Q 6.59375 17.96875 6.59375 36.375 
Q 6.59375 54.828125 13.0625 64.515625 
Q 19.53125 74.21875 31.78125 74.21875 
z
" id="DejaVuSans-48"/>
      </defs>
      <g transform="translate(131.489185 322.182437)scale(0.1 -0.1)">
       <use xlink:href="#DejaVuSans-50"/>
       <use x="63.623047" xlink:href="#DejaVuSans-48"/>
      </g>
     </g>
    </g>
    <g id="xtick_7">
     <g id="line2d_13">
      <path clip-path="url(#pd120e545ca)" d="M 153.902022 307.584 
L 153.902022 41.472 
" style="fill:none;stroke:#b0b0b0;stroke-dasharray:5.12,1.28,0.8,1.28;stroke-dashoffset:0;stroke-width:0.8;"/>
     </g>
     <g id="line2d_14">
      <g>
       <use style="stroke:#000000;stroke-width:0.8;" x="153.902022" xlink:href="#m3bd616bbc5" y="307.584"/>
      </g>
     </g>
     <g id="text_7">
      <!-- 24 -->
      <g transform="translate(147.539522 322.182437)scale(0.1 -0.1)">
       <use xlink:href="#DejaVuSans-50"/>
       <use x="63.623047" xlink:href="#DejaVuSans-52"/>
      </g>
     </g>
    </g>
    <g id="xtick_8">
     <g id="line2d_15">
      <path clip-path="url(#pd120e545ca)" d="M 169.95236 307.584 
L 169.95236 41.472 
" style="fill:none;stroke:#b0b0b0;stroke-dasharray:5.12,1.28,0.8,1.28;stroke-dashoffset:0;stroke-width:0.8;"/>
     </g>
     <g id="line2d_16">
      <g>
       <use style="stroke:#000000;stroke-width:0.8;" x="169.95236" xlink:href="#m3bd616bbc5" y="307.584"/>
      </g>
     </g>
     <g id="text_8">
      <!-- 28 -->
      <g transform="translate(163.58986 322.182437)scale(0.1 -0.1)">
       <use xlink:href="#DejaVuSans-50"/>
       <use x="63.623047" xlink:href="#DejaVuSans-56"/>
      </g>
     </g>
    </g>
    <g id="xtick_9">
     <g id="line2d_17">
      <path clip-path="url(#pd120e545ca)" d="M 186.002697 307.584 
L 186.002697 41.472 
" style="fill:none;stroke:#b0b0b0;stroke-dasharray:5.12,1.28,0.8,1.28;stroke-dashoffset:0;stroke-width:0.8;"/>
     </g>
     <g id="line2d_18">
      <g>
       <use style="stroke:#000000;stroke-width:0.8;" x="186.002697" xlink:href="#m3bd616bbc5" y="307.584"/>
      </g>
     </g>
     <g id="text_9">
      <!-- 32 -->
      <defs>
       <path d="M 40.578125 39.3125 
Q 47.65625 37.796875 51.625 33 
Q 55.609375 28.21875 55.609375 21.1875 
Q 55.609375 10.40625 48.1875 4.484375 
Q 40.765625 -1.421875 27.09375 -1.421875 
Q 22.515625 -1.421875 17.65625 -0.515625 
Q 12.796875 0.390625 7.625 2.203125 
L 7.625 11.71875 
Q 11.71875 9.328125 16.59375 8.109375 
Q 21.484375 6.890625 26.8125 6.890625 
Q 36.078125 6.890625 40.9375 10.546875 
Q 45.796875 14.203125 45.796875 21.1875 
Q 45.796875 27.640625 41.28125 31.265625 
Q 36.765625 34.90625 28.71875 34.90625 
L 20.21875 34.90625 
L 20.21875 43.015625 
L 29.109375 43.015625 
Q 36.375 43.015625 40.234375 45.921875 
Q 44.09375 48.828125 44.09375 54.296875 
Q 44.09375 59.90625 40.109375 62.90625 
Q 36.140625 65.921875 28.71875 65.921875 
Q 24.65625 65.921875 20.015625 65.03125 
Q 15.375 64.15625 9.8125 62.3125 
L 9.8125 71.09375 
Q 15.4375 72.65625 20.34375 73.4375 
Q 25.25 74.21875 29.59375 74.21875 
Q 40.828125 74.21875 47.359375 69.109375 
Q 53.90625 64.015625 53.90625 55.328125 
Q 53.90625 49.265625 50.4375 45.09375 
Q 46.96875 40.921875 40.578125 39.3125 
z
" id="DejaVuSans-51"/>
      </defs>
      <g transform="translate(179.640197 322.182437)scale(0.1 -0.1)">
       <use xlink:href="#DejaVuSans-51"/>
       <use x="63.623047" xlink:href="#DejaVuSans-50"/>
      </g>
     </g>
    </g>
    <g id="xtick_10">
     <g id="line2d_19">
      <path clip-path="url(#pd120e545ca)" d="M 202.053034 307.584 
L 202.053034 41.472 
" style="fill:none;stroke:#b0b0b0;stroke-dasharray:5.12,1.28,0.8,1.28;stroke-dashoffset:0;stroke-width:0.8;"/>
     </g>
     <g id="line2d_20">
      <g>
       <use style="stroke:#000000;stroke-width:0.8;" x="202.053034" xlink:href="#m3bd616bbc5" y="307.584"/>
      </g>
     </g>
     <g id="text_10">
      <!-- 36 -->
      <g transform="translate(195.690534 322.182437)scale(0.1 -0.1)">
       <use xlink:href="#DejaVuSans-51"/>
       <use x="63.623047" xlink:href="#DejaVuSans-54"/>
      </g>
     </g>
    </g>
    <g id="xtick_11">
     <g id="line2d_21">
      <path clip-path="url(#pd120e545ca)" d="M 218.103371 307.584 
L 218.103371 41.472 
" style="fill:none;stroke:#b0b0b0;stroke-dasharray:5.12,1.28,0.8,1.28;stroke-dashoffset:0;stroke-width:0.8;"/>
     </g>
     <g id="line2d_22">
      <g>
       <use style="stroke:#000000;stroke-width:0.8;" x="218.103371" xlink:href="#m3bd616bbc5" y="307.584"/>
      </g>
     </g>
     <g id="text_11">
      <!-- 40 -->
      <g transform="translate(211.740871 322.182437)scale(0.1 -0.1)">
       <use xlink:href="#DejaVuSans-52"/>
       <use x="63.623047" xlink:href="#DejaVuSans-48"/>
      </g>
     </g>
    </g>
    <g id="xtick_12">
     <g id="line2d_23">
      <path clip-path="url(#pd120e545ca)" d="M 234.153708 307.584 
L 234.153708 41.472 
" style="fill:none;stroke:#b0b0b0;stroke-dasharray:5.12,1.28,0.8,1.28;stroke-dashoffset:0;stroke-width:0.8;"/>
     </g>
     <g id="line2d_24">
      <g>
       <use style="stroke:#000000;stroke-width:0.8;" x="234.153708" xlink:href="#m3bd616bbc5" y="307.584"/>
      </g>
     </g>
     <g id="text_12">
      <!-- 44 -->
      <g transform="translate(227.791208 322.182437)scale(0.1 -0.1)">
       <use xlink:href="#DejaVuSans-52"/>
       <use x="63.623047" xlink:href="#DejaVuSans-52"/>
      </g>
     </g>
    </g>
    <g id="xtick_13">
     <g id="line2d_25">
      <path clip-path="url(#pd120e545ca)" d="M 250.204045 307.584 
L 250.204045 41.472 
" style="fill:none;stroke:#b0b0b0;stroke-dasharray:5.12,1.28,0.8,1.28;stroke-dashoffset:0;stroke-width:0.8;"/>
     </g>
     <g id="line2d_26">
      <g>
       <use style="stroke:#000000;stroke-width:0.8;" x="250.204045" xlink:href="#m3bd616bbc5" y="307.584"/>
      </g>
     </g>
     <g id="text_13">
      <!-- 48 -->
      <g transform="translate(243.841545 322.182437)scale(0.1 -0.1)">
       <use xlink:href="#DejaVuSans-52"/>
       <use x="63.623047" xlink:href="#DejaVuSans-56"/>
      </g>
     </g>
    </g>
    <g id="xtick_14">
     <g id="line2d_27">
      <path clip-path="url(#pd120e545ca)" d="M 266.254382 307.584 
L 266.254382 41.472 
" style="fill:none;stroke:#b0b0b0;stroke-dasharray:5.12,1.28,0.8,1.28;stroke-dashoffset:0;stroke-width:0.8;"/>
     </g>
     <g id="line2d_28">
      <g>
       <use style="stroke:#000000;stroke-width:0.8;" x="266.254382" xlink:href="#m3bd616bbc5" y="307.584"/>
      </g>
     </g>
     <g id="text_14">
      <!-- 52 -->
      <defs>
       <path d="M 10.796875 72.90625 
L 49.515625 72.90625 
L 49.515625 64.59375 
L 19.828125 64.59375 
L 19.828125 46.734375 
Q 21.96875 47.46875 24.109375 47.828125 
Q 26.265625 48.1875 28.421875 48.1875 
Q 40.625 48.1875 47.75 41.5 
Q 54.890625 34.8125 54.890625 23.390625 
Q 54.890625 11.625 47.5625 5.09375 
Q 40.234375 -1.421875 26.90625 -1.421875 
Q 22.3125 -1.421875 17.546875 -0.640625 
Q 12.796875 0.140625 7.71875 1.703125 
L 7.71875 11.625 
Q 12.109375 9.234375 16.796875 8.0625 
Q 21.484375 6.890625 26.703125 6.890625 
Q 35.15625 6.890625 40.078125 11.328125 
Q 45.015625 15.765625 45.015625 23.390625 
Q 45.015625 31 40.078125 35.4375 
Q 35.15625 39.890625 26.703125 39.890625 
Q 22.75 39.890625 18.8125 39.015625 
Q 14.890625 38.140625 10.796875 36.28125 
z
" id="DejaVuSans-53"/>
      </defs>
      <g transform="translate(259.891882 322.182437)scale(0.1 -0.1)">
       <use xlink:href="#DejaVuSans-53"/>
       <use x="63.623047" xlink:href="#DejaVuSans-50"/>
      </g>
     </g>
    </g>
    <g id="xtick_15">
     <g id="line2d_29">
      <path clip-path="url(#pd120e545ca)" d="M 282.304719 307.584 
L 282.304719 41.472 
" style="fill:none;stroke:#b0b0b0;stroke-dasharray:5.12,1.28,0.8,1.28;stroke-dashoffset:0;stroke-width:0.8;"/>
     </g>
     <g id="line2d_30">
      <g>
       <use style="stroke:#000000;stroke-width:0.8;" x="282.304719" xlink:href="#m3bd616bbc5" y="307.584"/>
      </g>
     </g>
     <g id="text_15">
      <!-- 56 -->
      <g transform="translate(275.942219 322.182437)scale(0.1 -0.1)">
       <use xlink:href="#DejaVuSans-53"/>
       <use x="63.623047" xlink:href="#DejaVuSans-54"/>
      </g>
     </g>
    </g>
    <g id="xtick_16">
     <g id="line2d_31">
      <path clip-path="url(#pd120e545ca)" d="M 298.355056 307.584 
L 298.355056 41.472 
" style="fill:none;stroke:#b0b0b0;stroke-dasharray:5.12,1.28,0.8,1.28;stroke-dashoffset:0;stroke-width:0.8;"/>
     </g>
     <g id="line2d_32">
      <g>
       <use style="stroke:#000000;stroke-width:0.8;" x="298.355056" xlink:href="#m3bd616bbc5" y="307.584"/>
      </g>
     </g>
     <g id="text_16">
      <!-- 60 -->
      <g transform="translate(291.992556 322.182437)scale(0.1 -0.1)">
       <use xlink:href="#DejaVuSans-54"/>
       <use x="63.623047" xlink:href="#DejaVuSans-48"/>
      </g>
     </g>
    </g>
    <g id="xtick_17">
     <g id="line2d_33">
      <path clip-path="url(#pd120e545ca)" d="M 314.405393 307.584 
L 314.405393 41.472 
" style="fill:none;stroke:#b0b0b0;stroke-dasharray:5.12,1.28,0.8,1.28;stroke-dashoffset:0;stroke-width:0.8;"/>
     </g>
     <g id="line2d_34">
      <g>
       <use style="stroke:#000000;stroke-width:0.8;" x="314.405393" xlink:href="#m3bd616bbc5" y="307.584"/>
      </g>
     </g>
     <g id="text_17">
      <!-- 64 -->
      <g transform="translate(308.042893 322.182437)scale(0.1 -0.1)">
       <use xlink:href="#DejaVuSans-54"/>
       <use x="63.623047" xlink:href="#DejaVuSans-52"/>
      </g>
     </g>
    </g>
    <g id="xtick_18">
     <g id="line2d_35">
      <path clip-path="url(#pd120e545ca)" d="M 330.45573 307.584 
L 330.45573 41.472 
" style="fill:none;stroke:#b0b0b0;stroke-dasharray:5.12,1.28,0.8,1.28;stroke-dashoffset:0;stroke-width:0.8;"/>
     </g>
     <g id="line2d_36">
      <g>
       <use style="stroke:#000000;stroke-width:0.8;" x="330.45573" xlink:href="#m3bd616bbc5" y="307.584"/>
      </g>
     </g>
     <g id="text_18">
      <!-- 68 -->
      <g transform="translate(324.09323 322.182437)scale(0.1 -0.1)">
       <use xlink:href="#DejaVuSans-54"/>
       <use x="63.623047" xlink:href="#DejaVuSans-56"/>
      </g>
     </g>
    </g>
    <g id="xtick_19">
     <g id="line2d_37">
      <path clip-path="url(#pd120e545ca)" d="M 346.506067 307.584 
L 346.506067 41.472 
" style="fill:none;stroke:#b0b0b0;stroke-dasharray:5.12,1.28,0.8,1.28;stroke-dashoffset:0;stroke-width:0.8;"/>
     </g>
     <g id="line2d_38">
      <g>
       <use style="stroke:#000000;stroke-width:0.8;" x="346.506067" xlink:href="#m3bd616bbc5" y="307.584"/>
      </g>
     </g>
     <g id="text_19">
      <!-- 72 -->
      <defs>
       <path d="M 8.203125 72.90625 
L 55.078125 72.90625 
L 55.078125 68.703125 
L 28.609375 0 
L 18.3125 0 
L 43.21875 64.59375 
L 8.203125 64.59375 
z
" id="DejaVuSans-55"/>
      </defs>
      <g transform="translate(340.143567 322.182437)scale(0.1 -0.1)">
       <use xlink:href="#DejaVuSans-55"/>
       <use x="63.623047" xlink:href="#DejaVuSans-50"/>
      </g>
     </g>
    </g>
    <g id="xtick_20">
     <g id="line2d_39">
      <path clip-path="url(#pd120e545ca)" d="M 362.556404 307.584 
L 362.556404 41.472 
" style="fill:none;stroke:#b0b0b0;stroke-dasharray:5.12,1.28,0.8,1.28;stroke-dashoffset:0;stroke-width:0.8;"/>
     </g>
     <g id="line2d_40">
      <g>
       <use style="stroke:#000000;stroke-width:0.8;" x="362.556404" xlink:href="#m3bd616bbc5" y="307.584"/>
      </g>
     </g>
     <g id="text_20">
      <!-- 76 -->
      <g transform="translate(356.193904 322.182437)scale(0.1 -0.1)">
       <use xlink:href="#DejaVuSans-55"/>
       <use x="63.623047" xlink:href="#DejaVuSans-54"/>
      </g>
     </g>
    </g>
    <g id="xtick_21">
     <g id="line2d_41">
      <path clip-path="url(#pd120e545ca)" d="M 378.606742 307.584 
L 378.606742 41.472 
" style="fill:none;stroke:#b0b0b0;stroke-dasharray:5.12,1.28,0.8,1.28;stroke-dashoffset:0;stroke-width:0.8;"/>
     </g>
     <g id="line2d_42">
      <g>
       <use style="stroke:#000000;stroke-width:0.8;" x="378.606742" xlink:href="#m3bd616bbc5" y="307.584"/>
      </g>
     </g>
     <g id="text_21">
      <!-- 80 -->
      <g transform="translate(372.244242 322.182437)scale(0.1 -0.1)">
       <use xlink:href="#DejaVuSans-56"/>
       <use x="63.623047" xlink:href="#DejaVuSans-48"/>
      </g>
     </g>
    </g>
    <g id="xtick_22">
     <g id="line2d_43">
      <path clip-path="url(#pd120e545ca)" d="M 394.657079 307.584 
L 394.657079 41.472 
" style="fill:none;stroke:#b0b0b0;stroke-dasharray:5.12,1.28,0.8,1.28;stroke-dashoffset:0;stroke-width:0.8;"/>
     </g>
     <g id="line2d_44">
      <g>
       <use style="stroke:#000000;stroke-width:0.8;" x="394.657079" xlink:href="#m3bd616bbc5" y="307.584"/>
      </g>
     </g>
     <g id="text_22">
      <!-- 84 -->
      <g transform="translate(388.294579 322.182437)scale(0.1 -0.1)">
       <use xlink:href="#DejaVuSans-56"/>
       <use x="63.623047" xlink:href="#DejaVuSans-52"/>
      </g>
     </g>
    </g>
    <g id="xtick_23">
     <g id="line2d_45">
      <path clip-path="url(#pd120e545ca)" d="M 410.707416 307.584 
L 410.707416 41.472 
" style="fill:none;stroke:#b0b0b0;stroke-dasharray:5.12,1.28,0.8,1.28;stroke-dashoffset:0;stroke-width:0.8;"/>
     </g>
     <g id="line2d_46">
      <g>
       <use style="stroke:#000000;stroke-width:0.8;" x="410.707416" xlink:href="#m3bd616bbc5" y="307.584"/>
      </g>
     </g>
     <g id="text_23">
      <!-- 88 -->
      <g transform="translate(404.344916 322.182437)scale(0.1 -0.1)">
       <use xlink:href="#DejaVuSans-56"/>
       <use x="63.623047" xlink:href="#DejaVuSans-56"/>
      </g>
     </g>
    </g>
    <g id="text_24">
     <!-- threads -->
     <defs>
      <path d="M 18.3125 70.21875 
L 18.3125 54.6875 
L 36.8125 54.6875 
L 36.8125 47.703125 
L 18.3125 47.703125 
L 18.3125 18.015625 
Q 18.3125 11.328125 20.140625 9.421875 
Q 21.96875 7.515625 27.59375 7.515625 
L 36.8125 7.515625 
L 36.8125 0 
L 27.59375 0 
Q 17.1875 0 13.234375 3.875 
Q 9.28125 7.765625 9.28125 18.015625 
L 9.28125 47.703125 
L 2.6875 47.703125 
L 2.6875 54.6875 
L 9.28125 54.6875 
L 9.28125 70.21875 
z
" id="DejaVuSans-116"/>
      <path d="M 54.890625 33.015625 
L 54.890625 0 
L 45.90625 0 
L 45.90625 32.71875 
Q 45.90625 40.484375 42.875 44.328125 
Q 39.84375 48.1875 33.796875 48.1875 
Q 26.515625 48.1875 22.3125 43.546875 
Q 18.109375 38.921875 18.109375 30.90625 
L 18.109375 0 
L 9.078125 0 
L 9.078125 75.984375 
L 18.109375 75.984375 
L 18.109375 46.1875 
Q 21.34375 51.125 25.703125 53.5625 
Q 30.078125 56 35.796875 56 
Q 45.21875 56 50.046875 50.171875 
Q 54.890625 44.34375 54.890625 33.015625 
z
" id="DejaVuSans-104"/>
      <path d="M 41.109375 46.296875 
Q 39.59375 47.171875 37.8125 47.578125 
Q 36.03125 48 33.890625 48 
Q 26.265625 48 22.1875 43.046875 
Q 18.109375 38.09375 18.109375 28.8125 
L 18.109375 0 
L 9.078125 0 
L 9.078125 54.6875 
L 18.109375 54.6875 
L 18.109375 46.1875 
Q 20.953125 51.171875 25.484375 53.578125 
Q 30.03125 56 36.53125 56 
Q 37.453125 56 38.578125 55.875 
Q 39.703125 55.765625 41.0625 55.515625 
z
" id="DejaVuSans-114"/>
      <path d="M 56.203125 29.59375 
L 56.203125 25.203125 
L 14.890625 25.203125 
Q 15.484375 15.921875 20.484375 11.0625 
Q 25.484375 6.203125 34.421875 6.203125 
Q 39.59375 6.203125 44.453125 7.46875 
Q 49.3125 8.734375 54.109375 11.28125 
L 54.109375 2.78125 
Q 49.265625 0.734375 44.1875 -0.34375 
Q 39.109375 -1.421875 33.890625 -1.421875 
Q 20.796875 -1.421875 13.15625 6.1875 
Q 5.515625 13.8125 5.515625 26.8125 
Q 5.515625 40.234375 12.765625 48.109375 
Q 20.015625 56 32.328125 56 
Q 43.359375 56 49.78125 48.890625 
Q 56.203125 41.796875 56.203125 29.59375 
z
M 47.21875 32.234375 
Q 47.125 39.59375 43.09375 43.984375 
Q 39.0625 48.390625 32.421875 48.390625 
Q 24.90625 48.390625 20.390625 44.140625 
Q 15.875 39.890625 15.1875 32.171875 
z
" id="DejaVuSans-101"/>
      <path d="M 34.28125 27.484375 
Q 23.390625 27.484375 19.1875 25 
Q 14.984375 22.515625 14.984375 16.5 
Q 14.984375 11.71875 18.140625 8.90625 
Q 21.296875 6.109375 26.703125 6.109375 
Q 34.1875 6.109375 38.703125 11.40625 
Q 43.21875 16.703125 43.21875 25.484375 
L 43.21875 27.484375 
z
M 52.203125 31.203125 
L 52.203125 0 
L 43.21875 0 
L 43.21875 8.296875 
Q 40.140625 3.328125 35.546875 0.953125 
Q 30.953125 -1.421875 24.3125 -1.421875 
Q 15.921875 -1.421875 10.953125 3.296875 
Q 6 8.015625 6 15.921875 
Q 6 25.140625 12.171875 29.828125 
Q 18.359375 34.515625 30.609375 34.515625 
L 43.21875 34.515625 
L 43.21875 35.40625 
Q 43.21875 41.609375 39.140625 45 
Q 35.0625 48.390625 27.6875 48.390625 
Q 23 48.390625 18.546875 47.265625 
Q 14.109375 46.140625 10.015625 43.890625 
L 10.015625 52.203125 
Q 14.9375 54.109375 19.578125 55.046875 
Q 24.21875 56 28.609375 56 
Q 40.484375 56 46.34375 49.84375 
Q 52.203125 43.703125 52.203125 31.203125 
z
" id="DejaVuSans-97"/>
      <path d="M 45.40625 46.390625 
L 45.40625 75.984375 
L 54.390625 75.984375 
L 54.390625 0 
L 45.40625 0 
L 45.40625 8.203125 
Q 42.578125 3.328125 38.25 0.953125 
Q 33.9375 -1.421875 27.875 -1.421875 
Q 17.96875 -1.421875 11.734375 6.484375 
Q 5.515625 14.40625 5.515625 27.296875 
Q 5.515625 40.1875 11.734375 48.09375 
Q 17.96875 56 27.875 56 
Q 33.9375 56 38.25 53.625 
Q 42.578125 51.265625 45.40625 46.390625 
z
M 14.796875 27.296875 
Q 14.796875 17.390625 18.875 11.75 
Q 22.953125 6.109375 30.078125 6.109375 
Q 37.203125 6.109375 41.296875 11.75 
Q 45.40625 17.390625 45.40625 27.296875 
Q 45.40625 37.203125 41.296875 42.84375 
Q 37.203125 48.484375 30.078125 48.484375 
Q 22.953125 48.484375 18.875 42.84375 
Q 14.796875 37.203125 14.796875 27.296875 
z
" id="DejaVuSans-100"/>
      <path d="M 44.28125 53.078125 
L 44.28125 44.578125 
Q 40.484375 46.53125 36.375 47.5 
Q 32.28125 48.484375 27.875 48.484375 
Q 21.1875 48.484375 17.84375 46.4375 
Q 14.5 44.390625 14.5 40.28125 
Q 14.5 37.15625 16.890625 35.375 
Q 19.28125 33.59375 26.515625 31.984375 
L 29.59375 31.296875 
Q 39.15625 29.25 43.1875 25.515625 
Q 47.21875 21.78125 47.21875 15.09375 
Q 47.21875 7.46875 41.1875 3.015625 
Q 35.15625 -1.421875 24.609375 -1.421875 
Q 20.21875 -1.421875 15.453125 -0.5625 
Q 10.6875 0.296875 5.421875 2 
L 5.421875 11.28125 
Q 10.40625 8.6875 15.234375 7.390625 
Q 20.0625 6.109375 24.8125 6.109375 
Q 31.15625 6.109375 34.5625 8.28125 
Q 37.984375 10.453125 37.984375 14.40625 
Q 37.984375 18.0625 35.515625 20.015625 
Q 33.0625 21.96875 24.703125 23.78125 
L 21.578125 24.515625 
Q 13.234375 26.265625 9.515625 29.90625 
Q 5.8125 33.546875 5.8125 39.890625 
Q 5.8125 47.609375 11.28125 51.796875 
Q 16.75 56 26.8125 56 
Q 31.78125 56 36.171875 55.265625 
Q 40.578125 54.546875 44.28125 53.078125 
z
" id="DejaVuSans-115"/>
     </defs>
     <g transform="translate(217.168594 335.860562)scale(0.1 -0.1)">
      <use xlink:href="#DejaVuSans-116"/>
      <use x="39.208984" xlink:href="#DejaVuSans-104"/>
      <use x="102.587891" xlink:href="#DejaVuSans-114"/>
      <use x="141.451172" xlink:href="#DejaVuSans-101"/>
      <use x="202.974609" xlink:href="#DejaVuSans-97"/>
      <use x="264.253906" xlink:href="#DejaVuSans-100"/>
      <use x="327.730469" xlink:href="#DejaVuSans-115"/>
     </g>
    </g>
   </g>
   <g id="matplotlib.axis_2">
    <g id="ytick_1">
     <g id="line2d_47">
      <path clip-path="url(#pd120e545ca)" d="M 57.6 294.356355 
L 414.72 294.356355 
" style="fill:none;stroke:#b0b0b0;stroke-dasharray:5.12,1.28,0.8,1.28;stroke-dashoffset:0;stroke-width:0.8;"/>
     </g>
     <g id="line2d_48">
      <defs>
       <path d="M 0 0 
L -3.5 0 
" id="m00446109d2" style="stroke:#000000;stroke-width:0.8;"/>
      </defs>
      <g>
       <use style="stroke:#000000;stroke-width:0.8;" x="57.6" xlink:href="#m00446109d2" y="294.356355"/>
      </g>
     </g>
     <g id="text_25">
      <!-- 0.02 -->
      <defs>
       <path d="M 10.6875 12.40625 
L 21 12.40625 
L 21 0 
L 10.6875 0 
z
" id="DejaVuSans-46"/>
      </defs>
      <g transform="translate(28.334375 298.155573)scale(0.1 -0.1)">
       <use xlink:href="#DejaVuSans-48"/>
       <use x="63.623047" xlink:href="#DejaVuSans-46"/>
       <use x="95.410156" xlink:href="#DejaVuSans-48"/>
       <use x="159.033203" xlink:href="#DejaVuSans-50"/>
      </g>
     </g>
    </g>
    <g id="ytick_2">
     <g id="line2d_49">
      <path clip-path="url(#pd120e545ca)" d="M 57.6 260.329007 
L 414.72 260.329007 
" style="fill:none;stroke:#b0b0b0;stroke-dasharray:5.12,1.28,0.8,1.28;stroke-dashoffset:0;stroke-width:0.8;"/>
     </g>
     <g id="line2d_50">
      <g>
       <use style="stroke:#000000;stroke-width:0.8;" x="57.6" xlink:href="#m00446109d2" y="260.329007"/>
      </g>
     </g>
     <g id="text_26">
      <!-- 0.04 -->
      <g transform="translate(28.334375 264.128226)scale(0.1 -0.1)">
       <use xlink:href="#DejaVuSans-48"/>
       <use x="63.623047" xlink:href="#DejaVuSans-46"/>
       <use x="95.410156" xlink:href="#DejaVuSans-48"/>
       <use x="159.033203" xlink:href="#DejaVuSans-52"/>
      </g>
     </g>
    </g>
    <g id="ytick_3">
     <g id="line2d_51">
      <path clip-path="url(#pd120e545ca)" d="M 57.6 226.30166 
L 414.72 226.30166 
" style="fill:none;stroke:#b0b0b0;stroke-dasharray:5.12,1.28,0.8,1.28;stroke-dashoffset:0;stroke-width:0.8;"/>
     </g>
     <g id="line2d_52">
      <g>
       <use style="stroke:#000000;stroke-width:0.8;" x="57.6" xlink:href="#m00446109d2" y="226.30166"/>
      </g>
     </g>
     <g id="text_27">
      <!-- 0.06 -->
      <g transform="translate(28.334375 230.100878)scale(0.1 -0.1)">
       <use xlink:href="#DejaVuSans-48"/>
       <use x="63.623047" xlink:href="#DejaVuSans-46"/>
       <use x="95.410156" xlink:href="#DejaVuSans-48"/>
       <use x="159.033203" xlink:href="#DejaVuSans-54"/>
      </g>
     </g>
    </g>
    <g id="ytick_4">
     <g id="line2d_53">
      <path clip-path="url(#pd120e545ca)" d="M 57.6 192.274312 
L 414.72 192.274312 
" style="fill:none;stroke:#b0b0b0;stroke-dasharray:5.12,1.28,0.8,1.28;stroke-dashoffset:0;stroke-width:0.8;"/>
     </g>
     <g id="line2d_54">
      <g>
       <use style="stroke:#000000;stroke-width:0.8;" x="57.6" xlink:href="#m00446109d2" y="192.274312"/>
      </g>
     </g>
     <g id="text_28">
      <!-- 0.08 -->
      <g transform="translate(28.334375 196.073531)scale(0.1 -0.1)">
       <use xlink:href="#DejaVuSans-48"/>
       <use x="63.623047" xlink:href="#DejaVuSans-46"/>
       <use x="95.410156" xlink:href="#DejaVuSans-48"/>
       <use x="159.033203" xlink:href="#DejaVuSans-56"/>
      </g>
     </g>
    </g>
    <g id="ytick_5">
     <g id="line2d_55">
      <path clip-path="url(#pd120e545ca)" d="M 57.6 158.246965 
L 414.72 158.246965 
" style="fill:none;stroke:#b0b0b0;stroke-dasharray:5.12,1.28,0.8,1.28;stroke-dashoffset:0;stroke-width:0.8;"/>
     </g>
     <g id="line2d_56">
      <g>
       <use style="stroke:#000000;stroke-width:0.8;" x="57.6" xlink:href="#m00446109d2" y="158.246965"/>
      </g>
     </g>
     <g id="text_29">
      <!-- 0.10 -->
      <g transform="translate(28.334375 162.046183)scale(0.1 -0.1)">
       <use xlink:href="#DejaVuSans-48"/>
       <use x="63.623047" xlink:href="#DejaVuSans-46"/>
       <use x="95.410156" xlink:href="#DejaVuSans-49"/>
       <use x="159.033203" xlink:href="#DejaVuSans-48"/>
      </g>
     </g>
    </g>
    <g id="ytick_6">
     <g id="line2d_57">
      <path clip-path="url(#pd120e545ca)" d="M 57.6 124.219617 
L 414.72 124.219617 
" style="fill:none;stroke:#b0b0b0;stroke-dasharray:5.12,1.28,0.8,1.28;stroke-dashoffset:0;stroke-width:0.8;"/>
     </g>
     <g id="line2d_58">
      <g>
       <use style="stroke:#000000;stroke-width:0.8;" x="57.6" xlink:href="#m00446109d2" y="124.219617"/>
      </g>
     </g>
     <g id="text_30">
      <!-- 0.12 -->
      <g transform="translate(28.334375 128.018836)scale(0.1 -0.1)">
       <use xlink:href="#DejaVuSans-48"/>
       <use x="63.623047" xlink:href="#DejaVuSans-46"/>
       <use x="95.410156" xlink:href="#DejaVuSans-49"/>
       <use x="159.033203" xlink:href="#DejaVuSans-50"/>
      </g>
     </g>
    </g>
    <g id="ytick_7">
     <g id="line2d_59">
      <path clip-path="url(#pd120e545ca)" d="M 57.6 90.19227 
L 414.72 90.19227 
" style="fill:none;stroke:#b0b0b0;stroke-dasharray:5.12,1.28,0.8,1.28;stroke-dashoffset:0;stroke-width:0.8;"/>
     </g>
     <g id="line2d_60">
      <g>
       <use style="stroke:#000000;stroke-width:0.8;" x="57.6" xlink:href="#m00446109d2" y="90.19227"/>
      </g>
     </g>
     <g id="text_31">
      <!-- 0.14 -->
      <g transform="translate(28.334375 93.991488)scale(0.1 -0.1)">
       <use xlink:href="#DejaVuSans-48"/>
       <use x="63.623047" xlink:href="#DejaVuSans-46"/>
       <use x="95.410156" xlink:href="#DejaVuSans-49"/>
       <use x="159.033203" xlink:href="#DejaVuSans-52"/>
      </g>
     </g>
    </g>
    <g id="ytick_8">
     <g id="line2d_61">
      <path clip-path="url(#pd120e545ca)" d="M 57.6 56.164922 
L 414.72 56.164922 
" style="fill:none;stroke:#b0b0b0;stroke-dasharray:5.12,1.28,0.8,1.28;stroke-dashoffset:0;stroke-width:0.8;"/>
     </g>
     <g id="line2d_62">
      <g>
       <use style="stroke:#000000;stroke-width:0.8;" x="57.6" xlink:href="#m00446109d2" y="56.164922"/>
      </g>
     </g>
     <g id="text_32">
      <!-- 0.16 -->
      <g transform="translate(28.334375 59.964141)scale(0.1 -0.1)">
       <use xlink:href="#DejaVuSans-48"/>
       <use x="63.623047" xlink:href="#DejaVuSans-46"/>
       <use x="95.410156" xlink:href="#DejaVuSans-49"/>
       <use x="159.033203" xlink:href="#DejaVuSans-54"/>
      </g>
     </g>
    </g>
    <g id="text_33">
     <!-- duration (s) -->
     <defs>
      <path d="M 8.5 21.578125 
L 8.5 54.6875 
L 17.484375 54.6875 
L 17.484375 21.921875 
Q 17.484375 14.15625 20.5 10.265625 
Q 23.53125 6.390625 29.59375 6.390625 
Q 36.859375 6.390625 41.078125 11.03125 
Q 45.3125 15.671875 45.3125 23.6875 
L 45.3125 54.6875 
L 54.296875 54.6875 
L 54.296875 0 
L 45.3125 0 
L 45.3125 8.40625 
Q 42.046875 3.421875 37.71875 1 
Q 33.40625 -1.421875 27.6875 -1.421875 
Q 18.265625 -1.421875 13.375 4.4375 
Q 8.5 10.296875 8.5 21.578125 
z
M 31.109375 56 
z
" id="DejaVuSans-117"/>
      <path d="M 9.421875 54.6875 
L 18.40625 54.6875 
L 18.40625 0 
L 9.421875 0 
z
M 9.421875 75.984375 
L 18.40625 75.984375 
L 18.40625 64.59375 
L 9.421875 64.59375 
z
" id="DejaVuSans-105"/>
      <path d="M 30.609375 48.390625 
Q 23.390625 48.390625 19.1875 42.75 
Q 14.984375 37.109375 14.984375 27.296875 
Q 14.984375 17.484375 19.15625 11.84375 
Q 23.34375 6.203125 30.609375 6.203125 
Q 37.796875 6.203125 41.984375 11.859375 
Q 46.1875 17.53125 46.1875 27.296875 
Q 46.1875 37.015625 41.984375 42.703125 
Q 37.796875 48.390625 30.609375 48.390625 
z
M 30.609375 56 
Q 42.328125 56 49.015625 48.375 
Q 55.71875 40.765625 55.71875 27.296875 
Q 55.71875 13.875 49.015625 6.21875 
Q 42.328125 -1.421875 30.609375 -1.421875 
Q 18.84375 -1.421875 12.171875 6.21875 
Q 5.515625 13.875 5.515625 27.296875 
Q 5.515625 40.765625 12.171875 48.375 
Q 18.84375 56 30.609375 56 
z
" id="DejaVuSans-111"/>
      <path d="M 54.890625 33.015625 
L 54.890625 0 
L 45.90625 0 
L 45.90625 32.71875 
Q 45.90625 40.484375 42.875 44.328125 
Q 39.84375 48.1875 33.796875 48.1875 
Q 26.515625 48.1875 22.3125 43.546875 
Q 18.109375 38.921875 18.109375 30.90625 
L 18.109375 0 
L 9.078125 0 
L 9.078125 54.6875 
L 18.109375 54.6875 
L 18.109375 46.1875 
Q 21.34375 51.125 25.703125 53.5625 
Q 30.078125 56 35.796875 56 
Q 45.21875 56 50.046875 50.171875 
Q 54.890625 44.34375 54.890625 33.015625 
z
" id="DejaVuSans-110"/>
      <path id="DejaVuSans-32"/>
      <path d="M 31 75.875 
Q 24.46875 64.65625 21.28125 53.65625 
Q 18.109375 42.671875 18.109375 31.390625 
Q 18.109375 20.125 21.3125 9.0625 
Q 24.515625 -2 31 -13.1875 
L 23.1875 -13.1875 
Q 15.875 -1.703125 12.234375 9.375 
Q 8.59375 20.453125 8.59375 31.390625 
Q 8.59375 42.28125 12.203125 53.3125 
Q 15.828125 64.359375 23.1875 75.875 
z
" id="DejaVuSans-40"/>
      <path d="M 8.015625 75.875 
L 15.828125 75.875 
Q 23.140625 64.359375 26.78125 53.3125 
Q 30.421875 42.28125 30.421875 31.390625 
Q 30.421875 20.453125 26.78125 9.375 
Q 23.140625 -1.703125 15.828125 -13.1875 
L 8.015625 -13.1875 
Q 14.5 -2 17.703125 9.0625 
Q 20.90625 20.125 20.90625 31.390625 
Q 20.90625 42.671875 17.703125 53.65625 
Q 14.5 64.65625 8.015625 75.875 
z
" id="DejaVuSans-41"/>
     </defs>
     <g transform="translate(22.254687 203.663156)rotate(-90)scale(0.1 -0.1)">
      <use xlink:href="#DejaVuSans-100"/>
      <use x="63.476562" xlink:href="#DejaVuSans-117"/>
      <use x="126.855469" xlink:href="#DejaVuSans-114"/>
      <use x="167.96875" xlink:href="#DejaVuSans-97"/>
      <use x="229.248047" xlink:href="#DejaVuSans-116"/>
      <use x="268.457031" xlink:href="#DejaVuSans-105"/>
      <use x="296.240234" xlink:href="#DejaVuSans-111"/>
      <use x="357.421875" xlink:href="#DejaVuSans-110"/>
      <use x="420.800781" xlink:href="#DejaVuSans-32"/>
      <use x="452.587891" xlink:href="#DejaVuSans-40"/>
      <use x="491.601562" xlink:href="#DejaVuSans-115"/>
      <use x="543.701172" xlink:href="#DejaVuSans-41"/>
     </g>
    </g>
   </g>
   <g id="line2d_63">
    <path clip-path="url(#pd120e545ca)" d="M 61.612584 53.568 
L 65.625169 116.462283 
L 69.637753 172.049004 
L 73.650337 201.23515 
L 77.662921 216.67928 
L 81.675506 230.775592 
L 85.68809 237.507669 
L 89.700674 245.683411 
L 93.713258 249.77247 
L 97.725843 255.160785 
L 101.738427 259.058151 
L 105.751011 262.062188 
L 109.763596 262.71509 
L 113.77618 264.754694 
L 117.788764 266.503282 
L 121.801348 267.264779 
L 125.813933 268.22898 
L 129.826517 269.784774 
L 133.839101 271.374526 
L 137.851685 271.503229 
L 141.86427 272.273419 
L 145.876854 272.780176 
L 149.889438 272.44593 
L 153.902022 272.398934 
L 157.914607 268.280496 
L 161.927191 272.422056 
L 165.939775 272.995975 
L 169.95236 272.855566 
L 173.964944 272.713883 
L 177.977528 272.918904 
L 181.990112 272.407511 
L 186.002697 261.674688 
L 190.015281 258.81361 
L 194.027865 257.970985 
L 198.040449 258.769511 
L 202.053034 260.902701 
L 206.065618 260.360596 
L 210.078202 256.099894 
L 214.090787 255.821511 
L 218.103371 255.626457 
L 222.115955 258.649211 
L 226.128539 253.908177 
L 230.141124 258.013055 
L 234.153708 250.114248 
L 238.166292 242.38633 
L 242.178876 240.921283 
L 246.191461 238.889097 
L 250.204045 238.27189 
L 254.216629 238.270326 
L 258.229213 241.087073 
L 262.241798 236.989786 
L 266.254382 235.66677 
L 270.266966 236.853086 
L 274.279551 236.829675 
L 278.292135 236.547815 
L 282.304719 236.985266 
L 286.317303 237.081112 
L 290.329888 237.012618 
L 294.342472 236.729598 
L 298.355056 236.650615 
L 302.36764 236.176193 
L 306.380225 235.46766 
L 310.392809 236.839236 
L 314.405393 237.129325 
L 318.417978 233.805125 
L 322.430562 233.849108 
L 326.443146 233.684593 
L 330.45573 231.038155 
L 334.468315 232.507201 
L 338.480899 231.805853 
L 342.493483 231.29249 
L 346.506067 231.433768 
L 350.518652 231.112329 
L 354.531236 231.323376 
L 358.54382 229.584988 
L 362.556404 230.30256 
L 366.568989 229.39909 
L 370.581573 227.680751 
L 374.594157 228.86104 
L 378.606742 228.172326 
L 382.619326 225.478892 
L 386.63191 227.079654 
L 390.644494 225.662414 
L 394.657079 223.712456 
L 398.669663 225.454322 
L 402.682247 224.645886 
L 406.694831 221.10977 
L 410.707416 219.892335 
" style="fill:none;stroke:#0000ff;stroke-dasharray:1.5,2.475;stroke-dashoffset:0;stroke-width:1.5;"/>
    <defs>
     <path d="M 0 1.5 
C 0.397805 1.5 0.77937 1.341951 1.06066 1.06066 
C 1.341951 0.77937 1.5 0.397805 1.5 0 
C 1.5 -0.397805 1.341951 -0.77937 1.06066 -1.06066 
C 0.77937 -1.341951 0.397805 -1.5 0 -1.5 
C -0.397805 -1.5 -0.77937 -1.341951 -1.06066 -1.06066 
C -1.341951 -0.77937 -1.5 -0.397805 -1.5 0 
C -1.5 0.397805 -1.341951 0.77937 -1.06066 1.06066 
C -0.77937 1.341951 -0.397805 1.5 0 1.5 
z
" id="m8fcf860b52" style="stroke:#0000ff;"/>
    </defs>
    <g clip-path="url(#pd120e545ca)">
     <use style="fill:#0000ff;stroke:#0000ff;" x="61.612584" xlink:href="#m8fcf860b52" y="53.568"/>
     <use style="fill:#0000ff;stroke:#0000ff;" x="65.625169" xlink:href="#m8fcf860b52" y="116.462283"/>
     <use style="fill:#0000ff;stroke:#0000ff;" x="69.637753" xlink:href="#m8fcf860b52" y="172.049004"/>
     <use style="fill:#0000ff;stroke:#0000ff;" x="73.650337" xlink:href="#m8fcf860b52" y="201.23515"/>
     <use style="fill:#0000ff;stroke:#0000ff;" x="77.662921" xlink:href="#m8fcf860b52" y="216.67928"/>
     <use style="fill:#0000ff;stroke:#0000ff;" x="81.675506" xlink:href="#m8fcf860b52" y="230.775592"/>
     <use style="fill:#0000ff;stroke:#0000ff;" x="85.68809" xlink:href="#m8fcf860b52" y="237.507669"/>
     <use style="fill:#0000ff;stroke:#0000ff;" x="89.700674" xlink:href="#m8fcf860b52" y="245.683411"/>
     <use style="fill:#0000ff;stroke:#0000ff;" x="93.713258" xlink:href="#m8fcf860b52" y="249.77247"/>
     <use style="fill:#0000ff;stroke:#0000ff;" x="97.725843" xlink:href="#m8fcf860b52" y="255.160785"/>
     <use style="fill:#0000ff;stroke:#0000ff;" x="101.738427" xlink:href="#m8fcf860b52" y="259.058151"/>
     <use style="fill:#0000ff;stroke:#0000ff;" x="105.751011" xlink:href="#m8fcf860b52" y="262.062188"/>
     <use style="fill:#0000ff;stroke:#0000ff;" x="109.763596" xlink:href="#m8fcf860b52" y="262.71509"/>
     <use style="fill:#0000ff;stroke:#0000ff;" x="113.77618" xlink:href="#m8fcf860b52" y="264.754694"/>
     <use style="fill:#0000ff;stroke:#0000ff;" x="117.788764" xlink:href="#m8fcf860b52" y="266.503282"/>
     <use style="fill:#0000ff;stroke:#0000ff;" x="121.801348" xlink:href="#m8fcf860b52" y="267.264779"/>
     <use style="fill:#0000ff;stroke:#0000ff;" x="125.813933" xlink:href="#m8fcf860b52" y="268.22898"/>
     <use style="fill:#0000ff;stroke:#0000ff;" x="129.826517" xlink:href="#m8fcf860b52" y="269.784774"/>
     <use style="fill:#0000ff;stroke:#0000ff;" x="133.839101" xlink:href="#m8fcf860b52" y="271.374526"/>
     <use style="fill:#0000ff;stroke:#0000ff;" x="137.851685" xlink:href="#m8fcf860b52" y="271.503229"/>
     <use style="fill:#0000ff;stroke:#0000ff;" x="141.86427" xlink:href="#m8fcf860b52" y="272.273419"/>
     <use style="fill:#0000ff;stroke:#0000ff;" x="145.876854" xlink:href="#m8fcf860b52" y="272.780176"/>
     <use style="fill:#0000ff;stroke:#0000ff;" x="149.889438" xlink:href="#m8fcf860b52" y="272.44593"/>
     <use style="fill:#0000ff;stroke:#0000ff;" x="153.902022" xlink:href="#m8fcf860b52" y="272.398934"/>
     <use style="fill:#0000ff;stroke:#0000ff;" x="157.914607" xlink:href="#m8fcf860b52" y="268.280496"/>
     <use style="fill:#0000ff;stroke:#0000ff;" x="161.927191" xlink:href="#m8fcf860b52" y="272.422056"/>
     <use style="fill:#0000ff;stroke:#0000ff;" x="165.939775" xlink:href="#m8fcf860b52" y="272.995975"/>
     <use style="fill:#0000ff;stroke:#0000ff;" x="169.95236" xlink:href="#m8fcf860b52" y="272.855566"/>
     <use style="fill:#0000ff;stroke:#0000ff;" x="173.964944" xlink:href="#m8fcf860b52" y="272.713883"/>
     <use style="fill:#0000ff;stroke:#0000ff;" x="177.977528" xlink:href="#m8fcf860b52" y="272.918904"/>
     <use style="fill:#0000ff;stroke:#0000ff;" x="181.990112" xlink:href="#m8fcf860b52" y="272.407511"/>
     <use style="fill:#0000ff;stroke:#0000ff;" x="186.002697" xlink:href="#m8fcf860b52" y="261.674688"/>
     <use style="fill:#0000ff;stroke:#0000ff;" x="190.015281" xlink:href="#m8fcf860b52" y="258.81361"/>
     <use style="fill:#0000ff;stroke:#0000ff;" x="194.027865" xlink:href="#m8fcf860b52" y="257.970985"/>
     <use style="fill:#0000ff;stroke:#0000ff;" x="198.040449" xlink:href="#m8fcf860b52" y="258.769511"/>
     <use style="fill:#0000ff;stroke:#0000ff;" x="202.053034" xlink:href="#m8fcf860b52" y="260.902701"/>
     <use style="fill:#0000ff;stroke:#0000ff;" x="206.065618" xlink:href="#m8fcf860b52" y="260.360596"/>
     <use style="fill:#0000ff;stroke:#0000ff;" x="210.078202" xlink:href="#m8fcf860b52" y="256.099894"/>
     <use style="fill:#0000ff;stroke:#0000ff;" x="214.090787" xlink:href="#m8fcf860b52" y="255.821511"/>
     <use style="fill:#0000ff;stroke:#0000ff;" x="218.103371" xlink:href="#m8fcf860b52" y="255.626457"/>
     <use style="fill:#0000ff;stroke:#0000ff;" x="222.115955" xlink:href="#m8fcf860b52" y="258.649211"/>
     <use style="fill:#0000ff;stroke:#0000ff;" x="226.128539" xlink:href="#m8fcf860b52" y="253.908177"/>
     <use style="fill:#0000ff;stroke:#0000ff;" x="230.141124" xlink:href="#m8fcf860b52" y="258.013055"/>
     <use style="fill:#0000ff;stroke:#0000ff;" x="234.153708" xlink:href="#m8fcf860b52" y="250.114248"/>
     <use style="fill:#0000ff;stroke:#0000ff;" x="238.166292" xlink:href="#m8fcf860b52" y="242.38633"/>
     <use style="fill:#0000ff;stroke:#0000ff;" x="242.178876" xlink:href="#m8fcf860b52" y="240.921283"/>
     <use style="fill:#0000ff;stroke:#0000ff;" x="246.191461" xlink:href="#m8fcf860b52" y="238.889097"/>
     <use style="fill:#0000ff;stroke:#0000ff;" x="250.204045" xlink:href="#m8fcf860b52" y="238.27189"/>
     <use style="fill:#0000ff;stroke:#0000ff;" x="254.216629" xlink:href="#m8fcf860b52" y="238.270326"/>
     <use style="fill:#0000ff;stroke:#0000ff;" x="258.229213" xlink:href="#m8fcf860b52" y="241.087073"/>
     <use style="fill:#0000ff;stroke:#0000ff;" x="262.241798" xlink:href="#m8fcf860b52" y="236.989786"/>
     <use style="fill:#0000ff;stroke:#0000ff;" x="266.254382" xlink:href="#m8fcf860b52" y="235.66677"/>
     <use style="fill:#0000ff;stroke:#0000ff;" x="270.266966" xlink:href="#m8fcf860b52" y="236.853086"/>
     <use style="fill:#0000ff;stroke:#0000ff;" x="274.279551" xlink:href="#m8fcf860b52" y="236.829675"/>
     <use style="fill:#0000ff;stroke:#0000ff;" x="278.292135" xlink:href="#m8fcf860b52" y="236.547815"/>
     <use style="fill:#0000ff;stroke:#0000ff;" x="282.304719" xlink:href="#m8fcf860b52" y="236.985266"/>
     <use style="fill:#0000ff;stroke:#0000ff;" x="286.317303" xlink:href="#m8fcf860b52" y="237.081112"/>
     <use style="fill:#0000ff;stroke:#0000ff;" x="290.329888" xlink:href="#m8fcf860b52" y="237.012618"/>
     <use style="fill:#0000ff;stroke:#0000ff;" x="294.342472" xlink:href="#m8fcf860b52" y="236.729598"/>
     <use style="fill:#0000ff;stroke:#0000ff;" x="298.355056" xlink:href="#m8fcf860b52" y="236.650615"/>
     <use style="fill:#0000ff;stroke:#0000ff;" x="302.36764" xlink:href="#m8fcf860b52" y="236.176193"/>
     <use style="fill:#0000ff;stroke:#0000ff;" x="306.380225" xlink:href="#m8fcf860b52" y="235.46766"/>
     <use style="fill:#0000ff;stroke:#0000ff;" x="310.392809" xlink:href="#m8fcf860b52" y="236.839236"/>
     <use style="fill:#0000ff;stroke:#0000ff;" x="314.405393" xlink:href="#m8fcf860b52" y="237.129325"/>
     <use style="fill:#0000ff;stroke:#0000ff;" x="318.417978" xlink:href="#m8fcf860b52" y="233.805125"/>
     <use style="fill:#0000ff;stroke:#0000ff;" x="322.430562" xlink:href="#m8fcf860b52" y="233.849108"/>
     <use style="fill:#0000ff;stroke:#0000ff;" x="326.443146" xlink:href="#m8fcf860b52" y="233.684593"/>
     <use style="fill:#0000ff;stroke:#0000ff;" x="330.45573" xlink:href="#m8fcf860b52" y="231.038155"/>
     <use style="fill:#0000ff;stroke:#0000ff;" x="334.468315" xlink:href="#m8fcf860b52" y="232.507201"/>
     <use style="fill:#0000ff;stroke:#0000ff;" x="338.480899" xlink:href="#m8fcf860b52" y="231.805853"/>
     <use style="fill:#0000ff;stroke:#0000ff;" x="342.493483" xlink:href="#m8fcf860b52" y="231.29249"/>
     <use style="fill:#0000ff;stroke:#0000ff;" x="346.506067" xlink:href="#m8fcf860b52" y="231.433768"/>
     <use style="fill:#0000ff;stroke:#0000ff;" x="350.518652" xlink:href="#m8fcf860b52" y="231.112329"/>
     <use style="fill:#0000ff;stroke:#0000ff;" x="354.531236" xlink:href="#m8fcf860b52" y="231.323376"/>
     <use style="fill:#0000ff;stroke:#0000ff;" x="358.54382" xlink:href="#m8fcf860b52" y="229.584988"/>
     <use style="fill:#0000ff;stroke:#0000ff;" x="362.556404" xlink:href="#m8fcf860b52" y="230.30256"/>
     <use style="fill:#0000ff;stroke:#0000ff;" x="366.568989" xlink:href="#m8fcf860b52" y="229.39909"/>
     <use style="fill:#0000ff;stroke:#0000ff;" x="370.581573" xlink:href="#m8fcf860b52" y="227.680751"/>
     <use style="fill:#0000ff;stroke:#0000ff;" x="374.594157" xlink:href="#m8fcf860b52" y="228.86104"/>
     <use style="fill:#0000ff;stroke:#0000ff;" x="378.606742" xlink:href="#m8fcf860b52" y="228.172326"/>
     <use style="fill:#0000ff;stroke:#0000ff;" x="382.619326" xlink:href="#m8fcf860b52" y="225.478892"/>
     <use style="fill:#0000ff;stroke:#0000ff;" x="386.63191" xlink:href="#m8fcf860b52" y="227.079654"/>
     <use style="fill:#0000ff;stroke:#0000ff;" x="390.644494" xlink:href="#m8fcf860b52" y="225.662414"/>
     <use style="fill:#0000ff;stroke:#0000ff;" x="394.657079" xlink:href="#m8fcf860b52" y="223.712456"/>
     <use style="fill:#0000ff;stroke:#0000ff;" x="398.669663" xlink:href="#m8fcf860b52" y="225.454322"/>
     <use style="fill:#0000ff;stroke:#0000ff;" x="402.682247" xlink:href="#m8fcf860b52" y="224.645886"/>
     <use style="fill:#0000ff;stroke:#0000ff;" x="406.694831" xlink:href="#m8fcf860b52" y="221.10977"/>
     <use style="fill:#0000ff;stroke:#0000ff;" x="410.707416" xlink:href="#m8fcf860b52" y="219.892335"/>
    </g>
   </g>
   <g id="line2d_64">
    <path clip-path="url(#pd120e545ca)" d="M 61.612584 151.364036 
L 65.625169 215.100307 
L 69.637753 247.96547 
L 73.650337 261.596284 
L 77.662921 267.117475 
L 81.675506 273.397209 
L 85.68809 276.499467 
L 89.700674 277.355072 
L 93.713258 280.732005 
L 97.725843 282.930271 
L 101.738427 285.907246 
L 105.751011 287.567057 
L 109.763596 289.895127 
L 113.77618 290.909337 
L 117.788764 292.222096 
L 121.801348 292.785237 
L 125.813933 293.473198 
L 129.826517 293.708642 
L 133.839101 294.656907 
L 137.851685 295.00703 
L 141.86427 295.264436 
L 145.876854 295.434514 
L 149.889438 295.071642 
L 153.902022 294.012406 
L 157.914607 291.274932 
L 161.927191 294.491986 
L 165.939775 295.244907 
L 169.95236 295.488 
L 173.964944 294.839965 
L 177.977528 295.085781 
L 181.990112 293.893497 
L 186.002697 284.252186 
L 190.015281 282.409665 
L 194.027865 281.867501 
L 198.040449 280.813191 
L 202.053034 283.711414 
L 206.065618 283.850605 
L 210.078202 282.170512 
L 214.090787 282.18894 
L 218.103371 280.441511 
L 222.115955 282.356932 
L 226.128539 280.332858 
L 230.141124 281.464993 
L 234.153708 275.861283 
L 238.166292 269.666791 
L 242.178876 268.046849 
L 246.191461 268.046211 
L 250.204045 267.564024 
L 254.216629 267.337446 
L 258.229213 267.614323 
L 262.241798 266.620337 
L 266.254382 264.754346 
L 270.266966 266.212092 
L 274.279551 265.866489 
L 278.292135 266.561867 
L 282.304719 266.295653 
L 286.317303 266.265346 
L 290.329888 266.277747 
L 294.342472 266.33274 
L 298.355056 266.192274 
L 302.36764 266.145278 
L 306.380225 266.003942 
L 310.392809 265.500662 
L 314.405393 265.164736 
L 318.417978 264.128911 
L 322.430562 263.720956 
L 326.443146 262.806301 
L 330.45573 262.698633 
L 334.468315 260.91771 
L 338.480899 261.643396 
L 342.493483 261.074924 
L 346.506067 261.345194 
L 350.518652 261.108649 
L 354.531236 261.24193 
L 358.54382 260.102263 
L 362.556404 259.723745 
L 366.568989 259.29035 
L 370.581573 259.085271 
L 374.594157 258.958249 
L 378.606742 257.936158 
L 382.619326 256.46097 
L 386.63191 256.625195 
L 390.644494 256.043221 
L 394.657079 255.937813 
L 398.669663 255.68794 
L 402.682247 255.402256 
L 406.694831 253.390119 
L 410.707416 253.964155 
" style="fill:none;stroke:#ff0000;stroke-dasharray:1.5,2.475;stroke-dashoffset:0;stroke-width:1.5;"/>
    <defs>
     <path d="M 0 1.5 
C 0.397805 1.5 0.77937 1.341951 1.06066 1.06066 
C 1.341951 0.77937 1.5 0.397805 1.5 0 
C 1.5 -0.397805 1.341951 -0.77937 1.06066 -1.06066 
C 0.77937 -1.341951 0.397805 -1.5 0 -1.5 
C -0.397805 -1.5 -0.77937 -1.341951 -1.06066 -1.06066 
C -1.341951 -0.77937 -1.5 -0.397805 -1.5 0 
C -1.5 0.397805 -1.341951 0.77937 -1.06066 1.06066 
C -0.77937 1.341951 -0.397805 1.5 0 1.5 
z
" id="mf67138750b" style="stroke:#ff0000;"/>
    </defs>
    <g clip-path="url(#pd120e545ca)">
     <use style="fill:#ff0000;stroke:#ff0000;" x="61.612584" xlink:href="#mf67138750b" y="151.364036"/>
     <use style="fill:#ff0000;stroke:#ff0000;" x="65.625169" xlink:href="#mf67138750b" y="215.100307"/>
     <use style="fill:#ff0000;stroke:#ff0000;" x="69.637753" xlink:href="#mf67138750b" y="247.96547"/>
     <use style="fill:#ff0000;stroke:#ff0000;" x="73.650337" xlink:href="#mf67138750b" y="261.596284"/>
     <use style="fill:#ff0000;stroke:#ff0000;" x="77.662921" xlink:href="#mf67138750b" y="267.117475"/>
     <use style="fill:#ff0000;stroke:#ff0000;" x="81.675506" xlink:href="#mf67138750b" y="273.397209"/>
     <use style="fill:#ff0000;stroke:#ff0000;" x="85.68809" xlink:href="#mf67138750b" y="276.499467"/>
     <use style="fill:#ff0000;stroke:#ff0000;" x="89.700674" xlink:href="#mf67138750b" y="277.355072"/>
     <use style="fill:#ff0000;stroke:#ff0000;" x="93.713258" xlink:href="#mf67138750b" y="280.732005"/>
     <use style="fill:#ff0000;stroke:#ff0000;" x="97.725843" xlink:href="#mf67138750b" y="282.930271"/>
     <use style="fill:#ff0000;stroke:#ff0000;" x="101.738427" xlink:href="#mf67138750b" y="285.907246"/>
     <use style="fill:#ff0000;stroke:#ff0000;" x="105.751011" xlink:href="#mf67138750b" y="287.567057"/>
     <use style="fill:#ff0000;stroke:#ff0000;" x="109.763596" xlink:href="#mf67138750b" y="289.895127"/>
     <use style="fill:#ff0000;stroke:#ff0000;" x="113.77618" xlink:href="#mf67138750b" y="290.909337"/>
     <use style="fill:#ff0000;stroke:#ff0000;" x="117.788764" xlink:href="#mf67138750b" y="292.222096"/>
     <use style="fill:#ff0000;stroke:#ff0000;" x="121.801348" xlink:href="#mf67138750b" y="292.785237"/>
     <use style="fill:#ff0000;stroke:#ff0000;" x="125.813933" xlink:href="#mf67138750b" y="293.473198"/>
     <use style="fill:#ff0000;stroke:#ff0000;" x="129.826517" xlink:href="#mf67138750b" y="293.708642"/>
     <use style="fill:#ff0000;stroke:#ff0000;" x="133.839101" xlink:href="#mf67138750b" y="294.656907"/>
     <use style="fill:#ff0000;stroke:#ff0000;" x="137.851685" xlink:href="#mf67138750b" y="295.00703"/>
     <use style="fill:#ff0000;stroke:#ff0000;" x="141.86427" xlink:href="#mf67138750b" y="295.264436"/>
     <use style="fill:#ff0000;stroke:#ff0000;" x="145.876854" xlink:href="#mf67138750b" y="295.434514"/>
     <use style="fill:#ff0000;stroke:#ff0000;" x="149.889438" xlink:href="#mf67138750b" y="295.071642"/>
     <use style="fill:#ff0000;stroke:#ff0000;" x="153.902022" xlink:href="#mf67138750b" y="294.012406"/>
     <use style="fill:#ff0000;stroke:#ff0000;" x="157.914607" xlink:href="#mf67138750b" y="291.274932"/>
     <use style="fill:#ff0000;stroke:#ff0000;" x="161.927191" xlink:href="#mf67138750b" y="294.491986"/>
     <use style="fill:#ff0000;stroke:#ff0000;" x="165.939775" xlink:href="#mf67138750b" y="295.244907"/>
     <use style="fill:#ff0000;stroke:#ff0000;" x="169.95236" xlink:href="#mf67138750b" y="295.488"/>
     <use style="fill:#ff0000;stroke:#ff0000;" x="173.964944" xlink:href="#mf67138750b" y="294.839965"/>
     <use style="fill:#ff0000;stroke:#ff0000;" x="177.977528" xlink:href="#mf67138750b" y="295.085781"/>
     <use style="fill:#ff0000;stroke:#ff0000;" x="181.990112" xlink:href="#mf67138750b" y="293.893497"/>
     <use style="fill:#ff0000;stroke:#ff0000;" x="186.002697" xlink:href="#mf67138750b" y="284.252186"/>
     <use style="fill:#ff0000;stroke:#ff0000;" x="190.015281" xlink:href="#mf67138750b" y="282.409665"/>
     <use style="fill:#ff0000;stroke:#ff0000;" x="194.027865" xlink:href="#mf67138750b" y="281.867501"/>
     <use style="fill:#ff0000;stroke:#ff0000;" x="198.040449" xlink:href="#mf67138750b" y="280.813191"/>
     <use style="fill:#ff0000;stroke:#ff0000;" x="202.053034" xlink:href="#mf67138750b" y="283.711414"/>
     <use style="fill:#ff0000;stroke:#ff0000;" x="206.065618" xlink:href="#mf67138750b" y="283.850605"/>
     <use style="fill:#ff0000;stroke:#ff0000;" x="210.078202" xlink:href="#mf67138750b" y="282.170512"/>
     <use style="fill:#ff0000;stroke:#ff0000;" x="214.090787" xlink:href="#mf67138750b" y="282.18894"/>
     <use style="fill:#ff0000;stroke:#ff0000;" x="218.103371" xlink:href="#mf67138750b" y="280.441511"/>
     <use style="fill:#ff0000;stroke:#ff0000;" x="222.115955" xlink:href="#mf67138750b" y="282.356932"/>
     <use style="fill:#ff0000;stroke:#ff0000;" x="226.128539" xlink:href="#mf67138750b" y="280.332858"/>
     <use style="fill:#ff0000;stroke:#ff0000;" x="230.141124" xlink:href="#mf67138750b" y="281.464993"/>
     <use style="fill:#ff0000;stroke:#ff0000;" x="234.153708" xlink:href="#mf67138750b" y="275.861283"/>
     <use style="fill:#ff0000;stroke:#ff0000;" x="238.166292" xlink:href="#mf67138750b" y="269.666791"/>
     <use style="fill:#ff0000;stroke:#ff0000;" x="242.178876" xlink:href="#mf67138750b" y="268.046849"/>
     <use style="fill:#ff0000;stroke:#ff0000;" x="246.191461" xlink:href="#mf67138750b" y="268.046211"/>
     <use style="fill:#ff0000;stroke:#ff0000;" x="250.204045" xlink:href="#mf67138750b" y="267.564024"/>
     <use style="fill:#ff0000;stroke:#ff0000;" x="254.216629" xlink:href="#mf67138750b" y="267.337446"/>
     <use style="fill:#ff0000;stroke:#ff0000;" x="258.229213" xlink:href="#mf67138750b" y="267.614323"/>
     <use style="fill:#ff0000;stroke:#ff0000;" x="262.241798" xlink:href="#mf67138750b" y="266.620337"/>
     <use style="fill:#ff0000;stroke:#ff0000;" x="266.254382" xlink:href="#mf67138750b" y="264.754346"/>
     <use style="fill:#ff0000;stroke:#ff0000;" x="270.266966" xlink:href="#mf67138750b" y="266.212092"/>
     <use style="fill:#ff0000;stroke:#ff0000;" x="274.279551" xlink:href="#mf67138750b" y="265.866489"/>
     <use style="fill:#ff0000;stroke:#ff0000;" x="278.292135" xlink:href="#mf67138750b" y="266.561867"/>
     <use style="fill:#ff0000;stroke:#ff0000;" x="282.304719" xlink:href="#mf67138750b" y="266.295653"/>
     <use style="fill:#ff0000;stroke:#ff0000;" x="286.317303" xlink:href="#mf67138750b" y="266.265346"/>
     <use style="fill:#ff0000;stroke:#ff0000;" x="290.329888" xlink:href="#mf67138750b" y="266.277747"/>
     <use style="fill:#ff0000;stroke:#ff0000;" x="294.342472" xlink:href="#mf67138750b" y="266.33274"/>
     <use style="fill:#ff0000;stroke:#ff0000;" x="298.355056" xlink:href="#mf67138750b" y="266.192274"/>
     <use style="fill:#ff0000;stroke:#ff0000;" x="302.36764" xlink:href="#mf67138750b" y="266.145278"/>
     <use style="fill:#ff0000;stroke:#ff0000;" x="306.380225" xlink:href="#mf67138750b" y="266.003942"/>
     <use style="fill:#ff0000;stroke:#ff0000;" x="310.392809" xlink:href="#mf67138750b" y="265.500662"/>
     <use style="fill:#ff0000;stroke:#ff0000;" x="314.405393" xlink:href="#mf67138750b" y="265.164736"/>
     <use style="fill:#ff0000;stroke:#ff0000;" x="318.417978" xlink:href="#mf67138750b" y="264.128911"/>
     <use style="fill:#ff0000;stroke:#ff0000;" x="322.430562" xlink:href="#mf67138750b" y="263.720956"/>
     <use style="fill:#ff0000;stroke:#ff0000;" x="326.443146" xlink:href="#mf67138750b" y="262.806301"/>
     <use style="fill:#ff0000;stroke:#ff0000;" x="330.45573" xlink:href="#mf67138750b" y="262.698633"/>
     <use style="fill:#ff0000;stroke:#ff0000;" x="334.468315" xlink:href="#mf67138750b" y="260.91771"/>
     <use style="fill:#ff0000;stroke:#ff0000;" x="338.480899" xlink:href="#mf67138750b" y="261.643396"/>
     <use style="fill:#ff0000;stroke:#ff0000;" x="342.493483" xlink:href="#mf67138750b" y="261.074924"/>
     <use style="fill:#ff0000;stroke:#ff0000;" x="346.506067" xlink:href="#mf67138750b" y="261.345194"/>
     <use style="fill:#ff0000;stroke:#ff0000;" x="350.518652" xlink:href="#mf67138750b" y="261.108649"/>
     <use style="fill:#ff0000;stroke:#ff0000;" x="354.531236" xlink:href="#mf67138750b" y="261.24193"/>
     <use style="fill:#ff0000;stroke:#ff0000;" x="358.54382" xlink:href="#mf67138750b" y="260.102263"/>
     <use style="fill:#ff0000;stroke:#ff0000;" x="362.556404" xlink:href="#mf67138750b" y="259.723745"/>
     <use style="fill:#ff0000;stroke:#ff0000;" x="366.568989" xlink:href="#mf67138750b" y="259.29035"/>
     <use style="fill:#ff0000;stroke:#ff0000;" x="370.581573" xlink:href="#mf67138750b" y="259.085271"/>
     <use style="fill:#ff0000;stroke:#ff0000;" x="374.594157" xlink:href="#mf67138750b" y="258.958249"/>
     <use style="fill:#ff0000;stroke:#ff0000;" x="378.606742" xlink:href="#mf67138750b" y="257.936158"/>
     <use style="fill:#ff0000;stroke:#ff0000;" x="382.619326" xlink:href="#mf67138750b" y="256.46097"/>
     <use style="fill:#ff0000;stroke:#ff0000;" x="386.63191" xlink:href="#mf67138750b" y="256.625195"/>
     <use style="fill:#ff0000;stroke:#ff0000;" x="390.644494" xlink:href="#mf67138750b" y="256.043221"/>
     <use style="fill:#ff0000;stroke:#ff0000;" x="394.657079" xlink:href="#mf67138750b" y="255.937813"/>
     <use style="fill:#ff0000;stroke:#ff0000;" x="398.669663" xlink:href="#mf67138750b" y="255.68794"/>
     <use style="fill:#ff0000;stroke:#ff0000;" x="402.682247" xlink:href="#mf67138750b" y="255.402256"/>
     <use style="fill:#ff0000;stroke:#ff0000;" x="406.694831" xlink:href="#mf67138750b" y="253.390119"/>
     <use style="fill:#ff0000;stroke:#ff0000;" x="410.707416" xlink:href="#mf67138750b" y="253.964155"/>
    </g>
   </g>
   <g id="line2d_65">
    <path clip-path="url(#pd120e545ca)" d="M 61.612584 102.466018 
L 65.625169 165.781295 
L 69.637753 210.007237 
L 73.650337 231.415717 
L 77.662921 241.898377 
L 81.675506 252.0864 
L 85.68809 257.003568 
L 89.700674 261.519242 
L 93.713258 265.252237 
L 97.725843 269.045528 
L 101.738427 272.482699 
L 105.751011 274.814622 
L 109.763596 276.305109 
L 113.77618 277.832015 
L 117.788764 279.362689 
L 121.801348 280.025008 
L 125.813933 280.851089 
L 129.826517 281.746708 
L 133.839101 283.015716 
L 137.851685 283.255129 
L 141.86427 283.768927 
L 145.876854 284.107345 
L 149.889438 283.758786 
L 153.902022 283.20567 
L 157.914607 279.777714 
L 161.927191 283.457021 
L 165.939775 284.120441 
L 169.95236 284.171783 
L 173.964944 283.776924 
L 177.977528 284.002343 
L 181.990112 283.150504 
L 186.002697 272.963437 
L 190.015281 270.611637 
L 194.027865 269.919243 
L 198.040449 269.791351 
L 202.053034 272.307057 
L 206.065618 272.1056 
L 210.078202 269.135203 
L 214.090787 269.005225 
L 218.103371 268.033984 
L 222.115955 270.503071 
L 226.128539 267.120517 
L 230.141124 269.739024 
L 234.153708 262.987766 
L 238.166292 256.026561 
L 242.178876 254.484066 
L 246.191461 253.467654 
L 250.204045 252.917957 
L 254.216629 252.803886 
L 258.229213 254.350698 
L 262.241798 251.805062 
L 266.254382 250.210558 
L 270.266966 251.532589 
L 274.279551 251.348082 
L 278.292135 251.554841 
L 282.304719 251.64046 
L 286.317303 251.673229 
L 290.329888 251.645182 
L 294.342472 251.531169 
L 298.355056 251.421444 
L 302.36764 251.160735 
L 306.380225 250.735801 
L 310.392809 251.169949 
L 314.405393 251.14703 
L 318.417978 248.967018 
L 322.430562 248.785032 
L 326.443146 248.245447 
L 330.45573 246.868394 
L 334.468315 246.712455 
L 338.480899 246.724625 
L 342.493483 246.183707 
L 346.506067 246.389481 
L 350.518652 246.110489 
L 354.531236 246.282653 
L 358.54382 244.843625 
L 362.556404 245.013153 
L 366.568989 244.34472 
L 370.581573 243.383011 
L 374.594157 243.909645 
L 378.606742 243.054242 
L 382.619326 240.969931 
L 386.63191 241.852425 
L 390.644494 240.852818 
L 394.657079 239.825135 
L 398.669663 240.571131 
L 402.682247 240.024071 
L 406.694831 237.249944 
L 410.707416 236.928245 
" style="fill:none;stroke:#008000;stroke-dasharray:1.5,2.475;stroke-dashoffset:0;stroke-width:1.5;"/>
    <defs>
     <path d="M 0 1.5 
C 0.397805 1.5 0.77937 1.341951 1.06066 1.06066 
C 1.341951 0.77937 1.5 0.397805 1.5 0 
C 1.5 -0.397805 1.341951 -0.77937 1.06066 -1.06066 
C 0.77937 -1.341951 0.397805 -1.5 0 -1.5 
C -0.397805 -1.5 -0.77937 -1.341951 -1.06066 -1.06066 
C -1.341951 -0.77937 -1.5 -0.397805 -1.5 0 
C -1.5 0.397805 -1.341951 0.77937 -1.06066 1.06066 
C -0.77937 1.341951 -0.397805 1.5 0 1.5 
z
" id="m0591d6350d" style="stroke:#008000;"/>
    </defs>
    <g clip-path="url(#pd120e545ca)">
     <use style="fill:#008000;stroke:#008000;" x="61.612584" xlink:href="#m0591d6350d" y="102.466018"/>
     <use style="fill:#008000;stroke:#008000;" x="65.625169" xlink:href="#m0591d6350d" y="165.781295"/>
     <use style="fill:#008000;stroke:#008000;" x="69.637753" xlink:href="#m0591d6350d" y="210.007237"/>
     <use style="fill:#008000;stroke:#008000;" x="73.650337" xlink:href="#m0591d6350d" y="231.415717"/>
     <use style="fill:#008000;stroke:#008000;" x="77.662921" xlink:href="#m0591d6350d" y="241.898377"/>
     <use style="fill:#008000;stroke:#008000;" x="81.675506" xlink:href="#m0591d6350d" y="252.0864"/>
     <use style="fill:#008000;stroke:#008000;" x="85.68809" xlink:href="#m0591d6350d" y="257.003568"/>
     <use style="fill:#008000;stroke:#008000;" x="89.700674" xlink:href="#m0591d6350d" y="261.519242"/>
     <use style="fill:#008000;stroke:#008000;" x="93.713258" xlink:href="#m0591d6350d" y="265.252237"/>
     <use style="fill:#008000;stroke:#008000;" x="97.725843" xlink:href="#m0591d6350d" y="269.045528"/>
     <use style="fill:#008000;stroke:#008000;" x="101.738427" xlink:href="#m0591d6350d" y="272.482699"/>
     <use style="fill:#008000;stroke:#008000;" x="105.751011" xlink:href="#m0591d6350d" y="274.814622"/>
     <use style="fill:#008000;stroke:#008000;" x="109.763596" xlink:href="#m0591d6350d" y="276.305109"/>
     <use style="fill:#008000;stroke:#008000;" x="113.77618" xlink:href="#m0591d6350d" y="277.832015"/>
     <use style="fill:#008000;stroke:#008000;" x="117.788764" xlink:href="#m0591d6350d" y="279.362689"/>
     <use style="fill:#008000;stroke:#008000;" x="121.801348" xlink:href="#m0591d6350d" y="280.025008"/>
     <use style="fill:#008000;stroke:#008000;" x="125.813933" xlink:href="#m0591d6350d" y="280.851089"/>
     <use style="fill:#008000;stroke:#008000;" x="129.826517" xlink:href="#m0591d6350d" y="281.746708"/>
     <use style="fill:#008000;stroke:#008000;" x="133.839101" xlink:href="#m0591d6350d" y="283.015716"/>
     <use style="fill:#008000;stroke:#008000;" x="137.851685" xlink:href="#m0591d6350d" y="283.255129"/>
     <use style="fill:#008000;stroke:#008000;" x="141.86427" xlink:href="#m0591d6350d" y="283.768927"/>
     <use style="fill:#008000;stroke:#008000;" x="145.876854" xlink:href="#m0591d6350d" y="284.107345"/>
     <use style="fill:#008000;stroke:#008000;" x="149.889438" xlink:href="#m0591d6350d" y="283.758786"/>
     <use style="fill:#008000;stroke:#008000;" x="153.902022" xlink:href="#m0591d6350d" y="283.20567"/>
     <use style="fill:#008000;stroke:#008000;" x="157.914607" xlink:href="#m0591d6350d" y="279.777714"/>
     <use style="fill:#008000;stroke:#008000;" x="161.927191" xlink:href="#m0591d6350d" y="283.457021"/>
     <use style="fill:#008000;stroke:#008000;" x="165.939775" xlink:href="#m0591d6350d" y="284.120441"/>
     <use style="fill:#008000;stroke:#008000;" x="169.95236" xlink:href="#m0591d6350d" y="284.171783"/>
     <use style="fill:#008000;stroke:#008000;" x="173.964944" xlink:href="#m0591d6350d" y="283.776924"/>
     <use style="fill:#008000;stroke:#008000;" x="177.977528" xlink:href="#m0591d6350d" y="284.002343"/>
     <use style="fill:#008000;stroke:#008000;" x="181.990112" xlink:href="#m0591d6350d" y="283.150504"/>
     <use style="fill:#008000;stroke:#008000;" x="186.002697" xlink:href="#m0591d6350d" y="272.963437"/>
     <use style="fill:#008000;stroke:#008000;" x="190.015281" xlink:href="#m0591d6350d" y="270.611637"/>
     <use style="fill:#008000;stroke:#008000;" x="194.027865" xlink:href="#m0591d6350d" y="269.919243"/>
     <use style="fill:#008000;stroke:#008000;" x="198.040449" xlink:href="#m0591d6350d" y="269.791351"/>
     <use style="fill:#008000;stroke:#008000;" x="202.053034" xlink:href="#m0591d6350d" y="272.307057"/>
     <use style="fill:#008000;stroke:#008000;" x="206.065618" xlink:href="#m0591d6350d" y="272.1056"/>
     <use style="fill:#008000;stroke:#008000;" x="210.078202" xlink:href="#m0591d6350d" y="269.135203"/>
     <use style="fill:#008000;stroke:#008000;" x="214.090787" xlink:href="#m0591d6350d" y="269.005225"/>
     <use style="fill:#008000;stroke:#008000;" x="218.103371" xlink:href="#m0591d6350d" y="268.033984"/>
     <use style="fill:#008000;stroke:#008000;" x="222.115955" xlink:href="#m0591d6350d" y="270.503071"/>
     <use style="fill:#008000;stroke:#008000;" x="226.128539" xlink:href="#m0591d6350d" y="267.120517"/>
     <use style="fill:#008000;stroke:#008000;" x="230.141124" xlink:href="#m0591d6350d" y="269.739024"/>
     <use style="fill:#008000;stroke:#008000;" x="234.153708" xlink:href="#m0591d6350d" y="262.987766"/>
     <use style="fill:#008000;stroke:#008000;" x="238.166292" xlink:href="#m0591d6350d" y="256.026561"/>
     <use style="fill:#008000;stroke:#008000;" x="242.178876" xlink:href="#m0591d6350d" y="254.484066"/>
     <use style="fill:#008000;stroke:#008000;" x="246.191461" xlink:href="#m0591d6350d" y="253.467654"/>
     <use style="fill:#008000;stroke:#008000;" x="250.204045" xlink:href="#m0591d6350d" y="252.917957"/>
     <use style="fill:#008000;stroke:#008000;" x="254.216629" xlink:href="#m0591d6350d" y="252.803886"/>
     <use style="fill:#008000;stroke:#008000;" x="258.229213" xlink:href="#m0591d6350d" y="254.350698"/>
     <use style="fill:#008000;stroke:#008000;" x="262.241798" xlink:href="#m0591d6350d" y="251.805062"/>
     <use style="fill:#008000;stroke:#008000;" x="266.254382" xlink:href="#m0591d6350d" y="250.210558"/>
     <use style="fill:#008000;stroke:#008000;" x="270.266966" xlink:href="#m0591d6350d" y="251.532589"/>
     <use style="fill:#008000;stroke:#008000;" x="274.279551" xlink:href="#m0591d6350d" y="251.348082"/>
     <use style="fill:#008000;stroke:#008000;" x="278.292135" xlink:href="#m0591d6350d" y="251.554841"/>
     <use style="fill:#008000;stroke:#008000;" x="282.304719" xlink:href="#m0591d6350d" y="251.64046"/>
     <use style="fill:#008000;stroke:#008000;" x="286.317303" xlink:href="#m0591d6350d" y="251.673229"/>
     <use style="fill:#008000;stroke:#008000;" x="290.329888" xlink:href="#m0591d6350d" y="251.645182"/>
     <use style="fill:#008000;stroke:#008000;" x="294.342472" xlink:href="#m0591d6350d" y="251.531169"/>
     <use style="fill:#008000;stroke:#008000;" x="298.355056" xlink:href="#m0591d6350d" y="251.421444"/>
     <use style="fill:#008000;stroke:#008000;" x="302.36764" xlink:href="#m0591d6350d" y="251.160735"/>
     <use style="fill:#008000;stroke:#008000;" x="306.380225" xlink:href="#m0591d6350d" y="250.735801"/>
     <use style="fill:#008000;stroke:#008000;" x="310.392809" xlink:href="#m0591d6350d" y="251.169949"/>
     <use style="fill:#008000;stroke:#008000;" x="314.405393" xlink:href="#m0591d6350d" y="251.14703"/>
     <use style="fill:#008000;stroke:#008000;" x="318.417978" xlink:href="#m0591d6350d" y="248.967018"/>
     <use style="fill:#008000;stroke:#008000;" x="322.430562" xlink:href="#m0591d6350d" y="248.785032"/>
     <use style="fill:#008000;stroke:#008000;" x="326.443146" xlink:href="#m0591d6350d" y="248.245447"/>
     <use style="fill:#008000;stroke:#008000;" x="330.45573" xlink:href="#m0591d6350d" y="246.868394"/>
     <use style="fill:#008000;stroke:#008000;" x="334.468315" xlink:href="#m0591d6350d" y="246.712455"/>
     <use style="fill:#008000;stroke:#008000;" x="338.480899" xlink:href="#m0591d6350d" y="246.724625"/>
     <use style="fill:#008000;stroke:#008000;" x="342.493483" xlink:href="#m0591d6350d" y="246.183707"/>
     <use style="fill:#008000;stroke:#008000;" x="346.506067" xlink:href="#m0591d6350d" y="246.389481"/>
     <use style="fill:#008000;stroke:#008000;" x="350.518652" xlink:href="#m0591d6350d" y="246.110489"/>
     <use style="fill:#008000;stroke:#008000;" x="354.531236" xlink:href="#m0591d6350d" y="246.282653"/>
     <use style="fill:#008000;stroke:#008000;" x="358.54382" xlink:href="#m0591d6350d" y="244.843625"/>
     <use style="fill:#008000;stroke:#008000;" x="362.556404" xlink:href="#m0591d6350d" y="245.013153"/>
     <use style="fill:#008000;stroke:#008000;" x="366.568989" xlink:href="#m0591d6350d" y="244.34472"/>
     <use style="fill:#008000;stroke:#008000;" x="370.581573" xlink:href="#m0591d6350d" y="243.383011"/>
     <use style="fill:#008000;stroke:#008000;" x="374.594157" xlink:href="#m0591d6350d" y="243.909645"/>
     <use style="fill:#008000;stroke:#008000;" x="378.606742" xlink:href="#m0591d6350d" y="243.054242"/>
     <use style="fill:#008000;stroke:#008000;" x="382.619326" xlink:href="#m0591d6350d" y="240.969931"/>
     <use style="fill:#008000;stroke:#008000;" x="386.63191" xlink:href="#m0591d6350d" y="241.852425"/>
     <use style="fill:#008000;stroke:#008000;" x="390.644494" xlink:href="#m0591d6350d" y="240.852818"/>
     <use style="fill:#008000;stroke:#008000;" x="394.657079" xlink:href="#m0591d6350d" y="239.825135"/>
     <use style="fill:#008000;stroke:#008000;" x="398.669663" xlink:href="#m0591d6350d" y="240.571131"/>
     <use style="fill:#008000;stroke:#008000;" x="402.682247" xlink:href="#m0591d6350d" y="240.024071"/>
     <use style="fill:#008000;stroke:#008000;" x="406.694831" xlink:href="#m0591d6350d" y="237.249944"/>
     <use style="fill:#008000;stroke:#008000;" x="410.707416" xlink:href="#m0591d6350d" y="236.928245"/>
    </g>
   </g>
   <g id="patch_3">
    <path d="M 57.6 307.584 
L 57.6 41.472 
" style="fill:none;stroke:#000000;stroke-linecap:square;stroke-linejoin:miter;stroke-width:0.8;"/>
   </g>
   <g id="patch_4">
    <path d="M 414.72 307.584 
L 414.72 41.472 
" style="fill:none;stroke:#000000;stroke-linecap:square;stroke-linejoin:miter;stroke-width:0.8;"/>
   </g>
   <g id="patch_5">
    <path d="M 57.6 307.584 
L 414.72 307.584 
" style="fill:none;stroke:#000000;stroke-linecap:square;stroke-linejoin:miter;stroke-width:0.8;"/>
   </g>
   <g id="patch_6">
    <path d="M 57.6 41.472 
L 414.72 41.472 
" style="fill:none;stroke:#000000;stroke-linecap:square;stroke-linejoin:miter;stroke-width:0.8;"/>
   </g>
   <g id="text_34">
    <!-- ScanTrans 3PV on wiki-Talk -->
    <defs>
     <path d="M 53.515625 70.515625 
L 53.515625 60.890625 
Q 47.90625 63.578125 42.921875 64.890625 
Q 37.9375 66.21875 33.296875 66.21875 
Q 25.25 66.21875 20.875 63.09375 
Q 16.5 59.96875 16.5 54.203125 
Q 16.5 49.359375 19.40625 46.890625 
Q 22.3125 44.4375 30.421875 42.921875 
L 36.375 41.703125 
Q 47.40625 39.59375 52.65625 34.296875 
Q 57.90625 29 57.90625 20.125 
Q 57.90625 9.515625 50.796875 4.046875 
Q 43.703125 -1.421875 29.984375 -1.421875 
Q 24.8125 -1.421875 18.96875 -0.25 
Q 13.140625 0.921875 6.890625 3.21875 
L 6.890625 13.375 
Q 12.890625 10.015625 18.65625 8.296875 
Q 24.421875 6.59375 29.984375 6.59375 
Q 38.421875 6.59375 43.015625 9.90625 
Q 47.609375 13.234375 47.609375 19.390625 
Q 47.609375 24.75 44.3125 27.78125 
Q 41.015625 30.8125 33.5 32.328125 
L 27.484375 33.5 
Q 16.453125 35.6875 11.515625 40.375 
Q 6.59375 45.0625 6.59375 53.421875 
Q 6.59375 63.09375 13.40625 68.65625 
Q 20.21875 74.21875 32.171875 74.21875 
Q 37.3125 74.21875 42.625 73.28125 
Q 47.953125 72.359375 53.515625 70.515625 
z
" id="DejaVuSans-83"/>
     <path d="M 48.78125 52.59375 
L 48.78125 44.1875 
Q 44.96875 46.296875 41.140625 47.34375 
Q 37.3125 48.390625 33.40625 48.390625 
Q 24.65625 48.390625 19.8125 42.84375 
Q 14.984375 37.3125 14.984375 27.296875 
Q 14.984375 17.28125 19.8125 11.734375 
Q 24.65625 6.203125 33.40625 6.203125 
Q 37.3125 6.203125 41.140625 7.25 
Q 44.96875 8.296875 48.78125 10.40625 
L 48.78125 2.09375 
Q 45.015625 0.34375 40.984375 -0.53125 
Q 36.96875 -1.421875 32.421875 -1.421875 
Q 20.0625 -1.421875 12.78125 6.34375 
Q 5.515625 14.109375 5.515625 27.296875 
Q 5.515625 40.671875 12.859375 48.328125 
Q 20.21875 56 33.015625 56 
Q 37.15625 56 41.109375 55.140625 
Q 45.0625 54.296875 48.78125 52.59375 
z
" id="DejaVuSans-99"/>
     <path d="M -0.296875 72.90625 
L 61.375 72.90625 
L 61.375 64.59375 
L 35.5 64.59375 
L 35.5 0 
L 25.59375 0 
L 25.59375 64.59375 
L -0.296875 64.59375 
z
" id="DejaVuSans-84"/>
     <path d="M 19.671875 64.796875 
L 19.671875 37.40625 
L 32.078125 37.40625 
Q 38.96875 37.40625 42.71875 40.96875 
Q 46.484375 44.53125 46.484375 51.125 
Q 46.484375 57.671875 42.71875 61.234375 
Q 38.96875 64.796875 32.078125 64.796875 
z
M 9.8125 72.90625 
L 32.078125 72.90625 
Q 44.34375 72.90625 50.609375 67.359375 
Q 56.890625 61.8125 56.890625 51.125 
Q 56.890625 40.328125 50.609375 34.8125 
Q 44.34375 29.296875 32.078125 29.296875 
L 19.671875 29.296875 
L 19.671875 0 
L 9.8125 0 
z
" id="DejaVuSans-80"/>
     <path d="M 28.609375 0 
L 0.78125 72.90625 
L 11.078125 72.90625 
L 34.1875 11.53125 
L 57.328125 72.90625 
L 67.578125 72.90625 
L 39.796875 0 
z
" id="DejaVuSans-86"/>
     <path d="M 4.203125 54.6875 
L 13.1875 54.6875 
L 24.421875 12.015625 
L 35.59375 54.6875 
L 46.1875 54.6875 
L 57.421875 12.015625 
L 68.609375 54.6875 
L 77.59375 54.6875 
L 63.28125 0 
L 52.6875 0 
L 40.921875 44.828125 
L 29.109375 0 
L 18.5 0 
z
" id="DejaVuSans-119"/>
     <path d="M 9.078125 75.984375 
L 18.109375 75.984375 
L 18.109375 31.109375 
L 44.921875 54.6875 
L 56.390625 54.6875 
L 27.390625 29.109375 
L 57.625 0 
L 45.90625 0 
L 18.109375 26.703125 
L 18.109375 0 
L 9.078125 0 
z
" id="DejaVuSans-107"/>
     <path d="M 4.890625 31.390625 
L 31.203125 31.390625 
L 31.203125 23.390625 
L 4.890625 23.390625 
z
" id="DejaVuSans-45"/>
     <path d="M 9.421875 75.984375 
L 18.40625 75.984375 
L 18.40625 0 
L 9.421875 0 
z
" id="DejaVuSans-108"/>
    </defs>
    <g transform="translate(156.162188 35.472)scale(0.12 -0.12)">
     <use xlink:href="#DejaVuSans-83"/>
     <use x="63.476562" xlink:href="#DejaVuSans-99"/>
     <use x="118.457031" xlink:href="#DejaVuSans-97"/>
     <use x="179.736328" xlink:href="#DejaVuSans-110"/>
     <use x="243.115234" xlink:href="#DejaVuSans-84"/>
     <use x="289.449219" xlink:href="#DejaVuSans-114"/>
     <use x="330.5625" xlink:href="#DejaVuSans-97"/>
     <use x="391.841797" xlink:href="#DejaVuSans-110"/>
     <use x="455.220703" xlink:href="#DejaVuSans-115"/>
     <use x="507.320312" xlink:href="#DejaVuSans-32"/>
     <use x="539.107422" xlink:href="#DejaVuSans-51"/>
     <use x="602.730469" xlink:href="#DejaVuSans-80"/>
     <use x="663.033203" xlink:href="#DejaVuSans-86"/>
     <use x="731.441406" xlink:href="#DejaVuSans-32"/>
     <use x="763.228516" xlink:href="#DejaVuSans-111"/>
     <use x="824.410156" xlink:href="#DejaVuSans-110"/>
     <use x="887.789062" xlink:href="#DejaVuSans-32"/>
     <use x="919.576172" xlink:href="#DejaVuSans-119"/>
     <use x="1001.363281" xlink:href="#DejaVuSans-105"/>
     <use x="1029.146484" xlink:href="#DejaVuSans-107"/>
     <use x="1087.056641" xlink:href="#DejaVuSans-105"/>
     <use x="1114.839844" xlink:href="#DejaVuSans-45"/>
     <use x="1141.798828" xlink:href="#DejaVuSans-84"/>
     <use x="1186.382812" xlink:href="#DejaVuSans-97"/>
     <use x="1247.662109" xlink:href="#DejaVuSans-108"/>
     <use x="1275.445312" xlink:href="#DejaVuSans-107"/>
    </g>
   </g>
   <g id="legend_1">
    <g id="patch_7">
     <path d="M 313.152813 93.7845 
L 407.72 93.7845 
Q 409.72 93.7845 409.72 91.7845 
L 409.72 48.472 
Q 409.72 46.472 407.72 46.472 
L 313.152813 46.472 
Q 311.152813 46.472 311.152813 48.472 
L 311.152813 91.7845 
Q 311.152813 93.7845 313.152813 93.7845 
z
" style="fill:#ffffff;opacity:0.8;stroke:#cccccc;stroke-linejoin:miter;"/>
    </g>
    <g id="line2d_66">
     <path d="M 315.152813 54.570438 
L 335.152813 54.570438 
" style="fill:none;stroke:#0000ff;stroke-dasharray:1.5,2.475;stroke-dashoffset:0;stroke-width:1.5;"/>
    </g>
    <g id="line2d_67">
     <g>
      <use style="fill:#0000ff;stroke:#0000ff;" x="325.152813" xlink:href="#m8fcf860b52" y="54.570438"/>
     </g>
    </g>
    <g id="text_35">
     <!-- transpose -->
     <defs>
      <path d="M 18.109375 8.203125 
L 18.109375 -20.796875 
L 9.078125 -20.796875 
L 9.078125 54.6875 
L 18.109375 54.6875 
L 18.109375 46.390625 
Q 20.953125 51.265625 25.265625 53.625 
Q 29.59375 56 35.59375 56 
Q 45.5625 56 51.78125 48.09375 
Q 58.015625 40.1875 58.015625 27.296875 
Q 58.015625 14.40625 51.78125 6.484375 
Q 45.5625 -1.421875 35.59375 -1.421875 
Q 29.59375 -1.421875 25.265625 0.953125 
Q 20.953125 3.328125 18.109375 8.203125 
z
M 48.6875 27.296875 
Q 48.6875 37.203125 44.609375 42.84375 
Q 40.53125 48.484375 33.40625 48.484375 
Q 26.265625 48.484375 22.1875 42.84375 
Q 18.109375 37.203125 18.109375 27.296875 
Q 18.109375 17.390625 22.1875 11.75 
Q 26.265625 6.109375 33.40625 6.109375 
Q 40.53125 6.109375 44.609375 11.75 
Q 48.6875 17.390625 48.6875 27.296875 
z
" id="DejaVuSans-112"/>
     </defs>
     <g transform="translate(343.152813 58.070438)scale(0.1 -0.1)">
      <use xlink:href="#DejaVuSans-116"/>
      <use x="39.208984" xlink:href="#DejaVuSans-114"/>
      <use x="80.322266" xlink:href="#DejaVuSans-97"/>
      <use x="141.601562" xlink:href="#DejaVuSans-110"/>
      <use x="204.980469" xlink:href="#DejaVuSans-115"/>
      <use x="257.080078" xlink:href="#DejaVuSans-112"/>
      <use x="320.556641" xlink:href="#DejaVuSans-111"/>
      <use x="381.738281" xlink:href="#DejaVuSans-115"/>
      <use x="433.837891" xlink:href="#DejaVuSans-101"/>
     </g>
    </g>
    <g id="line2d_68">
     <path d="M 315.152813 69.248563 
L 335.152813 69.248563 
" style="fill:none;stroke:#ff0000;stroke-dasharray:1.5,2.475;stroke-dashoffset:0;stroke-width:1.5;"/>
    </g>
    <g id="line2d_69">
     <g>
      <use style="fill:#ff0000;stroke:#ff0000;" x="325.152813" xlink:href="#mf67138750b" y="69.248563"/>
     </g>
    </g>
    <g id="text_36">
     <!-- transpose_tr -->
     <defs>
      <path d="M 50.984375 -16.609375 
L 50.984375 -23.578125 
L -0.984375 -23.578125 
L -0.984375 -16.609375 
z
" id="DejaVuSans-95"/>
     </defs>
     <g transform="translate(343.152813 72.748563)scale(0.1 -0.1)">
      <use xlink:href="#DejaVuSans-116"/>
      <use x="39.208984" xlink:href="#DejaVuSans-114"/>
      <use x="80.322266" xlink:href="#DejaVuSans-97"/>
      <use x="141.601562" xlink:href="#DejaVuSans-110"/>
      <use x="204.980469" xlink:href="#DejaVuSans-115"/>
      <use x="257.080078" xlink:href="#DejaVuSans-112"/>
      <use x="320.556641" xlink:href="#DejaVuSans-111"/>
      <use x="381.738281" xlink:href="#DejaVuSans-115"/>
      <use x="433.837891" xlink:href="#DejaVuSans-101"/>
      <use x="495.361328" xlink:href="#DejaVuSans-95"/>
      <use x="545.361328" xlink:href="#DejaVuSans-116"/>
      <use x="584.570312" xlink:href="#DejaVuSans-114"/>
     </g>
    </g>
    <g id="line2d_70">
     <path d="M 315.152813 84.204813 
L 335.152813 84.204813 
" style="fill:none;stroke:#008000;stroke-dasharray:1.5,2.475;stroke-dashoffset:0;stroke-width:1.5;"/>
    </g>
    <g id="line2d_71">
     <g>
      <use style="fill:#008000;stroke:#008000;" x="325.152813" xlink:href="#m0591d6350d" y="84.204813"/>
     </g>
    </g>
    <g id="text_37">
     <!-- mean -->
     <defs>
      <path d="M 52 44.1875 
Q 55.375 50.25 60.0625 53.125 
Q 64.75 56 71.09375 56 
Q 79.640625 56 84.28125 50.015625 
Q 88.921875 44.046875 88.921875 33.015625 
L 88.921875 0 
L 79.890625 0 
L 79.890625 32.71875 
Q 79.890625 40.578125 77.09375 44.375 
Q 74.3125 48.1875 68.609375 48.1875 
Q 61.625 48.1875 57.5625 43.546875 
Q 53.515625 38.921875 53.515625 30.90625 
L 53.515625 0 
L 44.484375 0 
L 44.484375 32.71875 
Q 44.484375 40.625 41.703125 44.40625 
Q 38.921875 48.1875 33.109375 48.1875 
Q 26.21875 48.1875 22.15625 43.53125 
Q 18.109375 38.875 18.109375 30.90625 
L 18.109375 0 
L 9.078125 0 
L 9.078125 54.6875 
L 18.109375 54.6875 
L 18.109375 46.1875 
Q 21.1875 51.21875 25.484375 53.609375 
Q 29.78125 56 35.6875 56 
Q 41.65625 56 45.828125 52.96875 
Q 50 49.953125 52 44.1875 
z
" id="DejaVuSans-109"/>
     </defs>
     <g transform="translate(343.152813 87.704813)scale(0.1 -0.1)">
      <use xlink:href="#DejaVuSans-109"/>
      <use x="97.412109" xlink:href="#DejaVuSans-101"/>
      <use x="158.935547" xlink:href="#DejaVuSans-97"/>
      <use x="220.214844" xlink:href="#DejaVuSans-110"/>
     </g>
    </g>
   </g>
  </g>
 </g>
 <defs>
  <clipPath id="pd120e545ca">
   <rect height="266.112" width="357.12" x="57.6" y="41.472"/>
  </clipPath>
 </defs>
</svg>
