<?xml version="1.0" encoding="utf-8" standalone="no"?>
<!DOCTYPE svg PUBLIC "-//W3C//DTD SVG 1.1//EN"
  "http://www.w3.org/Graphics/SVG/1.1/DTD/svg11.dtd">
<!-- Created with matplotlib (https://matplotlib.org/) -->
<svg height="345.6pt" version="1.1" viewBox="0 0 460.8 345.6" width="460.8pt" xmlns="http://www.w3.org/2000/svg" xmlns:xlink="http://www.w3.org/1999/xlink">
 <defs>
  <style type="text/css">
*{stroke-linecap:butt;stroke-linejoin:round;}
  </style>
 </defs>
 <g id="figure_1">
  <g id="patch_1">
   <path d="M 0 345.6 
L 460.8 345.6 
L 460.8 0 
L 0 0 
z
" style="fill:#ffffff;"/>
  </g>
  <g id="axes_1">
   <g id="patch_2">
    <path d="M 57.6 307.584 
L 414.72 307.584 
L 414.72 41.472 
L 57.6 41.472 
z
" style="fill:#ffffff;"/>
   </g>
   <g id="matplotlib.axis_1">
    <g id="xtick_1">
     <g id="line2d_1">
      <path clip-path="url(#p9946d6acb0)" d="M 61.612584 307.584 
L 61.612584 41.472 
" style="fill:none;stroke:#b0b0b0;stroke-dasharray:5.12,1.28,0.8,1.28;stroke-dashoffset:0;stroke-width:0.8;"/>
     </g>
     <g id="line2d_2">
      <defs>
       <path d="M 0 0 
L 0 3.5 
" id="me29cd2edef" style="stroke:#000000;stroke-width:0.8;"/>
      </defs>
      <g>
       <use style="stroke:#000000;stroke-width:0.8;" x="61.612584" xlink:href="#me29cd2edef" y="307.584"/>
      </g>
     </g>
     <g id="text_1">
      <!-- 1 -->
      <defs>
       <path d="M 12.40625 8.296875 
L 28.515625 8.296875 
L 28.515625 63.921875 
L 10.984375 60.40625 
L 10.984375 69.390625 
L 28.421875 72.90625 
L 38.28125 72.90625 
L 38.28125 8.296875 
L 54.390625 8.296875 
L 54.390625 0 
L 12.40625 0 
z
" id="DejaVuSans-49"/>
      </defs>
      <g transform="translate(58.431334 322.182437)scale(0.1 -0.1)">
       <use xlink:href="#DejaVuSans-49"/>
      </g>
     </g>
    </g>
    <g id="xtick_2">
     <g id="line2d_3">
      <path clip-path="url(#p9946d6acb0)" d="M 73.650337 307.584 
L 73.650337 41.472 
" style="fill:none;stroke:#b0b0b0;stroke-dasharray:5.12,1.28,0.8,1.28;stroke-dashoffset:0;stroke-width:0.8;"/>
     </g>
     <g id="line2d_4">
      <g>
       <use style="stroke:#000000;stroke-width:0.8;" x="73.650337" xlink:href="#me29cd2edef" y="307.584"/>
      </g>
     </g>
     <g id="text_2">
      <!-- 4 -->
      <defs>
       <path d="M 37.796875 64.3125 
L 12.890625 25.390625 
L 37.796875 25.390625 
z
M 35.203125 72.90625 
L 47.609375 72.90625 
L 47.609375 25.390625 
L 58.015625 25.390625 
L 58.015625 17.1875 
L 47.609375 17.1875 
L 47.609375 0 
L 37.796875 0 
L 37.796875 17.1875 
L 4.890625 17.1875 
L 4.890625 26.703125 
z
" id="DejaVuSans-52"/>
      </defs>
      <g transform="translate(70.469087 322.182437)scale(0.1 -0.1)">
       <use xlink:href="#DejaVuSans-52"/>
      </g>
     </g>
    </g>
    <g id="xtick_3">
     <g id="line2d_5">
      <path clip-path="url(#p9946d6acb0)" d="M 89.700674 307.584 
L 89.700674 41.472 
" style="fill:none;stroke:#b0b0b0;stroke-dasharray:5.12,1.28,0.8,1.28;stroke-dashoffset:0;stroke-width:0.8;"/>
     </g>
     <g id="line2d_6">
      <g>
       <use style="stroke:#000000;stroke-width:0.8;" x="89.700674" xlink:href="#me29cd2edef" y="307.584"/>
      </g>
     </g>
     <g id="text_3">
      <!-- 8 -->
      <defs>
       <path d="M 31.78125 34.625 
Q 24.75 34.625 20.71875 30.859375 
Q 16.703125 27.09375 16.703125 20.515625 
Q 16.703125 13.921875 20.71875 10.15625 
Q 24.75 6.390625 31.78125 6.390625 
Q 38.8125 6.390625 42.859375 10.171875 
Q 46.921875 13.96875 46.921875 20.515625 
Q 46.921875 27.09375 42.890625 30.859375 
Q 38.875 34.625 31.78125 34.625 
z
M 21.921875 38.8125 
Q 15.578125 40.375 12.03125 44.71875 
Q 8.5 49.078125 8.5 55.328125 
Q 8.5 64.0625 14.71875 69.140625 
Q 20.953125 74.21875 31.78125 74.21875 
Q 42.671875 74.21875 48.875 69.140625 
Q 55.078125 64.0625 55.078125 55.328125 
Q 55.078125 49.078125 51.53125 44.71875 
Q 48 40.375 41.703125 38.8125 
Q 48.828125 37.15625 52.796875 32.3125 
Q 56.78125 27.484375 56.78125 20.515625 
Q 56.78125 9.90625 50.3125 4.234375 
Q 43.84375 -1.421875 31.78125 -1.421875 
Q 19.734375 -1.421875 13.25 4.234375 
Q 6.78125 9.90625 6.78125 20.515625 
Q 6.78125 27.484375 10.78125 32.3125 
Q 14.796875 37.15625 21.921875 38.8125 
z
M 18.3125 54.390625 
Q 18.3125 48.734375 21.84375 45.5625 
Q 25.390625 42.390625 31.78125 42.390625 
Q 38.140625 42.390625 41.71875 45.5625 
Q 45.3125 48.734375 45.3125 54.390625 
Q 45.3125 60.0625 41.71875 63.234375 
Q 38.140625 66.40625 31.78125 66.40625 
Q 25.390625 66.40625 21.84375 63.234375 
Q 18.3125 60.0625 18.3125 54.390625 
z
" id="DejaVuSans-56"/>
      </defs>
      <g transform="translate(86.519424 322.182437)scale(0.1 -0.1)">
       <use xlink:href="#DejaVuSans-56"/>
      </g>
     </g>
    </g>
    <g id="xtick_4">
     <g id="line2d_7">
      <path clip-path="url(#p9946d6acb0)" d="M 105.751011 307.584 
L 105.751011 41.472 
" style="fill:none;stroke:#b0b0b0;stroke-dasharray:5.12,1.28,0.8,1.28;stroke-dashoffset:0;stroke-width:0.8;"/>
     </g>
     <g id="line2d_8">
      <g>
       <use style="stroke:#000000;stroke-width:0.8;" x="105.751011" xlink:href="#me29cd2edef" y="307.584"/>
      </g>
     </g>
     <g id="text_4">
      <!-- 12 -->
      <defs>
       <path d="M 19.1875 8.296875 
L 53.609375 8.296875 
L 53.609375 0 
L 7.328125 0 
L 7.328125 8.296875 
Q 12.9375 14.109375 22.625 23.890625 
Q 32.328125 33.6875 34.8125 36.53125 
Q 39.546875 41.84375 41.421875 45.53125 
Q 43.3125 49.21875 43.3125 52.78125 
Q 43.3125 58.59375 39.234375 62.25 
Q 35.15625 65.921875 28.609375 65.921875 
Q 23.96875 65.921875 18.8125 64.3125 
Q 13.671875 62.703125 7.8125 59.421875 
L 7.8125 69.390625 
Q 13.765625 71.78125 18.9375 73 
Q 24.125 74.21875 28.421875 74.21875 
Q 39.75 74.21875 46.484375 68.546875 
Q 53.21875 62.890625 53.21875 53.421875 
Q 53.21875 48.921875 51.53125 44.890625 
Q 49.859375 40.875 45.40625 35.40625 
Q 44.1875 33.984375 37.640625 27.21875 
Q 31.109375 20.453125 19.1875 8.296875 
z
" id="DejaVuSans-50"/>
      </defs>
      <g transform="translate(99.388511 322.182437)scale(0.1 -0.1)">
       <use xlink:href="#DejaVuSans-49"/>
       <use x="63.623047" xlink:href="#DejaVuSans-50"/>
      </g>
     </g>
    </g>
    <g id="xtick_5">
     <g id="line2d_9">
      <path clip-path="url(#p9946d6acb0)" d="M 121.801348 307.584 
L 121.801348 41.472 
" style="fill:none;stroke:#b0b0b0;stroke-dasharray:5.12,1.28,0.8,1.28;stroke-dashoffset:0;stroke-width:0.8;"/>
     </g>
     <g id="line2d_10">
      <g>
       <use style="stroke:#000000;stroke-width:0.8;" x="121.801348" xlink:href="#me29cd2edef" y="307.584"/>
      </g>
     </g>
     <g id="text_5">
      <!-- 16 -->
      <defs>
       <path d="M 33.015625 40.375 
Q 26.375 40.375 22.484375 35.828125 
Q 18.609375 31.296875 18.609375 23.390625 
Q 18.609375 15.53125 22.484375 10.953125 
Q 26.375 6.390625 33.015625 6.390625 
Q 39.65625 6.390625 43.53125 10.953125 
Q 47.40625 15.53125 47.40625 23.390625 
Q 47.40625 31.296875 43.53125 35.828125 
Q 39.65625 40.375 33.015625 40.375 
z
M 52.59375 71.296875 
L 52.59375 62.3125 
Q 48.875 64.0625 45.09375 64.984375 
Q 41.3125 65.921875 37.59375 65.921875 
Q 27.828125 65.921875 22.671875 59.328125 
Q 17.53125 52.734375 16.796875 39.40625 
Q 19.671875 43.65625 24.015625 45.921875 
Q 28.375 48.1875 33.59375 48.1875 
Q 44.578125 48.1875 50.953125 41.515625 
Q 57.328125 34.859375 57.328125 23.390625 
Q 57.328125 12.15625 50.6875 5.359375 
Q 44.046875 -1.421875 33.015625 -1.421875 
Q 20.359375 -1.421875 13.671875 8.265625 
Q 6.984375 17.96875 6.984375 36.375 
Q 6.984375 53.65625 15.1875 63.9375 
Q 23.390625 74.21875 37.203125 74.21875 
Q 40.921875 74.21875 44.703125 73.484375 
Q 48.484375 72.75 52.59375 71.296875 
z
" id="DejaVuSans-54"/>
      </defs>
      <g transform="translate(115.438848 322.182437)scale(0.1 -0.1)">
       <use xlink:href="#DejaVuSans-49"/>
       <use x="63.623047" xlink:href="#DejaVuSans-54"/>
      </g>
     </g>
    </g>
    <g id="xtick_6">
     <g id="line2d_11">
      <path clip-path="url(#p9946d6acb0)" d="M 137.851685 307.584 
L 137.851685 41.472 
" style="fill:none;stroke:#b0b0b0;stroke-dasharray:5.12,1.28,0.8,1.28;stroke-dashoffset:0;stroke-width:0.8;"/>
     </g>
     <g id="line2d_12">
      <g>
       <use style="stroke:#000000;stroke-width:0.8;" x="137.851685" xlink:href="#me29cd2edef" y="307.584"/>
      </g>
     </g>
     <g id="text_6">
      <!-- 20 -->
      <defs>
       <path d="M 31.78125 66.40625 
Q 24.171875 66.40625 20.328125 58.90625 
Q 16.5 51.421875 16.5 36.375 
Q 16.5 21.390625 20.328125 13.890625 
Q 24.171875 6.390625 31.78125 6.390625 
Q 39.453125 6.390625 43.28125 13.890625 
Q 47.125 21.390625 47.125 36.375 
Q 47.125 51.421875 43.28125 58.90625 
Q 39.453125 66.40625 31.78125 66.40625 
z
M 31.78125 74.21875 
Q 44.046875 74.21875 50.515625 64.515625 
Q 56.984375 54.828125 56.984375 36.375 
Q 56.984375 17.96875 50.515625 8.265625 
Q 44.046875 -1.421875 31.78125 -1.421875 
Q 19.53125 -1.421875 13.0625 8.265625 
Q 6.59375 17.96875 6.59375 36.375 
Q 6.59375 54.828125 13.0625 64.515625 
Q 19.53125 74.21875 31.78125 74.21875 
z
" id="DejaVuSans-48"/>
      </defs>
      <g transform="translate(131.489185 322.182437)scale(0.1 -0.1)">
       <use xlink:href="#DejaVuSans-50"/>
       <use x="63.623047" xlink:href="#DejaVuSans-48"/>
      </g>
     </g>
    </g>
    <g id="xtick_7">
     <g id="line2d_13">
      <path clip-path="url(#p9946d6acb0)" d="M 153.902022 307.584 
L 153.902022 41.472 
" style="fill:none;stroke:#b0b0b0;stroke-dasharray:5.12,1.28,0.8,1.28;stroke-dashoffset:0;stroke-width:0.8;"/>
     </g>
     <g id="line2d_14">
      <g>
       <use style="stroke:#000000;stroke-width:0.8;" x="153.902022" xlink:href="#me29cd2edef" y="307.584"/>
      </g>
     </g>
     <g id="text_7">
      <!-- 24 -->
      <g transform="translate(147.539522 322.182437)scale(0.1 -0.1)">
       <use xlink:href="#DejaVuSans-50"/>
       <use x="63.623047" xlink:href="#DejaVuSans-52"/>
      </g>
     </g>
    </g>
    <g id="xtick_8">
     <g id="line2d_15">
      <path clip-path="url(#p9946d6acb0)" d="M 169.95236 307.584 
L 169.95236 41.472 
" style="fill:none;stroke:#b0b0b0;stroke-dasharray:5.12,1.28,0.8,1.28;stroke-dashoffset:0;stroke-width:0.8;"/>
     </g>
     <g id="line2d_16">
      <g>
       <use style="stroke:#000000;stroke-width:0.8;" x="169.95236" xlink:href="#me29cd2edef" y="307.584"/>
      </g>
     </g>
     <g id="text_8">
      <!-- 28 -->
      <g transform="translate(163.58986 322.182437)scale(0.1 -0.1)">
       <use xlink:href="#DejaVuSans-50"/>
       <use x="63.623047" xlink:href="#DejaVuSans-56"/>
      </g>
     </g>
    </g>
    <g id="xtick_9">
     <g id="line2d_17">
      <path clip-path="url(#p9946d6acb0)" d="M 186.002697 307.584 
L 186.002697 41.472 
" style="fill:none;stroke:#b0b0b0;stroke-dasharray:5.12,1.28,0.8,1.28;stroke-dashoffset:0;stroke-width:0.8;"/>
     </g>
     <g id="line2d_18">
      <g>
       <use style="stroke:#000000;stroke-width:0.8;" x="186.002697" xlink:href="#me29cd2edef" y="307.584"/>
      </g>
     </g>
     <g id="text_9">
      <!-- 32 -->
      <defs>
       <path d="M 40.578125 39.3125 
Q 47.65625 37.796875 51.625 33 
Q 55.609375 28.21875 55.609375 21.1875 
Q 55.609375 10.40625 48.1875 4.484375 
Q 40.765625 -1.421875 27.09375 -1.421875 
Q 22.515625 -1.421875 17.65625 -0.515625 
Q 12.796875 0.390625 7.625 2.203125 
L 7.625 11.71875 
Q 11.71875 9.328125 16.59375 8.109375 
Q 21.484375 6.890625 26.8125 6.890625 
Q 36.078125 6.890625 40.9375 10.546875 
Q 45.796875 14.203125 45.796875 21.1875 
Q 45.796875 27.640625 41.28125 31.265625 
Q 36.765625 34.90625 28.71875 34.90625 
L 20.21875 34.90625 
L 20.21875 43.015625 
L 29.109375 43.015625 
Q 36.375 43.015625 40.234375 45.921875 
Q 44.09375 48.828125 44.09375 54.296875 
Q 44.09375 59.90625 40.109375 62.90625 
Q 36.140625 65.921875 28.71875 65.921875 
Q 24.65625 65.921875 20.015625 65.03125 
Q 15.375 64.15625 9.8125 62.3125 
L 9.8125 71.09375 
Q 15.4375 72.65625 20.34375 73.4375 
Q 25.25 74.21875 29.59375 74.21875 
Q 40.828125 74.21875 47.359375 69.109375 
Q 53.90625 64.015625 53.90625 55.328125 
Q 53.90625 49.265625 50.4375 45.09375 
Q 46.96875 40.921875 40.578125 39.3125 
z
" id="DejaVuSans-51"/>
      </defs>
      <g transform="translate(179.640197 322.182437)scale(0.1 -0.1)">
       <use xlink:href="#DejaVuSans-51"/>
       <use x="63.623047" xlink:href="#DejaVuSans-50"/>
      </g>
     </g>
    </g>
    <g id="xtick_10">
     <g id="line2d_19">
      <path clip-path="url(#p9946d6acb0)" d="M 202.053034 307.584 
L 202.053034 41.472 
" style="fill:none;stroke:#b0b0b0;stroke-dasharray:5.12,1.28,0.8,1.28;stroke-dashoffset:0;stroke-width:0.8;"/>
     </g>
     <g id="line2d_20">
      <g>
       <use style="stroke:#000000;stroke-width:0.8;" x="202.053034" xlink:href="#me29cd2edef" y="307.584"/>
      </g>
     </g>
     <g id="text_10">
      <!-- 36 -->
      <g transform="translate(195.690534 322.182437)scale(0.1 -0.1)">
       <use xlink:href="#DejaVuSans-51"/>
       <use x="63.623047" xlink:href="#DejaVuSans-54"/>
      </g>
     </g>
    </g>
    <g id="xtick_11">
     <g id="line2d_21">
      <path clip-path="url(#p9946d6acb0)" d="M 218.103371 307.584 
L 218.103371 41.472 
" style="fill:none;stroke:#b0b0b0;stroke-dasharray:5.12,1.28,0.8,1.28;stroke-dashoffset:0;stroke-width:0.8;"/>
     </g>
     <g id="line2d_22">
      <g>
       <use style="stroke:#000000;stroke-width:0.8;" x="218.103371" xlink:href="#me29cd2edef" y="307.584"/>
      </g>
     </g>
     <g id="text_11">
      <!-- 40 -->
      <g transform="translate(211.740871 322.182437)scale(0.1 -0.1)">
       <use xlink:href="#DejaVuSans-52"/>
       <use x="63.623047" xlink:href="#DejaVuSans-48"/>
      </g>
     </g>
    </g>
    <g id="xtick_12">
     <g id="line2d_23">
      <path clip-path="url(#p9946d6acb0)" d="M 234.153708 307.584 
L 234.153708 41.472 
" style="fill:none;stroke:#b0b0b0;stroke-dasharray:5.12,1.28,0.8,1.28;stroke-dashoffset:0;stroke-width:0.8;"/>
     </g>
     <g id="line2d_24">
      <g>
       <use style="stroke:#000000;stroke-width:0.8;" x="234.153708" xlink:href="#me29cd2edef" y="307.584"/>
      </g>
     </g>
     <g id="text_12">
      <!-- 44 -->
      <g transform="translate(227.791208 322.182437)scale(0.1 -0.1)">
       <use xlink:href="#DejaVuSans-52"/>
       <use x="63.623047" xlink:href="#DejaVuSans-52"/>
      </g>
     </g>
    </g>
    <g id="xtick_13">
     <g id="line2d_25">
      <path clip-path="url(#p9946d6acb0)" d="M 250.204045 307.584 
L 250.204045 41.472 
" style="fill:none;stroke:#b0b0b0;stroke-dasharray:5.12,1.28,0.8,1.28;stroke-dashoffset:0;stroke-width:0.8;"/>
     </g>
     <g id="line2d_26">
      <g>
       <use style="stroke:#000000;stroke-width:0.8;" x="250.204045" xlink:href="#me29cd2edef" y="307.584"/>
      </g>
     </g>
     <g id="text_13">
      <!-- 48 -->
      <g transform="translate(243.841545 322.182437)scale(0.1 -0.1)">
       <use xlink:href="#DejaVuSans-52"/>
       <use x="63.623047" xlink:href="#DejaVuSans-56"/>
      </g>
     </g>
    </g>
    <g id="xtick_14">
     <g id="line2d_27">
      <path clip-path="url(#p9946d6acb0)" d="M 266.254382 307.584 
L 266.254382 41.472 
" style="fill:none;stroke:#b0b0b0;stroke-dasharray:5.12,1.28,0.8,1.28;stroke-dashoffset:0;stroke-width:0.8;"/>
     </g>
     <g id="line2d_28">
      <g>
       <use style="stroke:#000000;stroke-width:0.8;" x="266.254382" xlink:href="#me29cd2edef" y="307.584"/>
      </g>
     </g>
     <g id="text_14">
      <!-- 52 -->
      <defs>
       <path d="M 10.796875 72.90625 
L 49.515625 72.90625 
L 49.515625 64.59375 
L 19.828125 64.59375 
L 19.828125 46.734375 
Q 21.96875 47.46875 24.109375 47.828125 
Q 26.265625 48.1875 28.421875 48.1875 
Q 40.625 48.1875 47.75 41.5 
Q 54.890625 34.8125 54.890625 23.390625 
Q 54.890625 11.625 47.5625 5.09375 
Q 40.234375 -1.421875 26.90625 -1.421875 
Q 22.3125 -1.421875 17.546875 -0.640625 
Q 12.796875 0.140625 7.71875 1.703125 
L 7.71875 11.625 
Q 12.109375 9.234375 16.796875 8.0625 
Q 21.484375 6.890625 26.703125 6.890625 
Q 35.15625 6.890625 40.078125 11.328125 
Q 45.015625 15.765625 45.015625 23.390625 
Q 45.015625 31 40.078125 35.4375 
Q 35.15625 39.890625 26.703125 39.890625 
Q 22.75 39.890625 18.8125 39.015625 
Q 14.890625 38.140625 10.796875 36.28125 
z
" id="DejaVuSans-53"/>
      </defs>
      <g transform="translate(259.891882 322.182437)scale(0.1 -0.1)">
       <use xlink:href="#DejaVuSans-53"/>
       <use x="63.623047" xlink:href="#DejaVuSans-50"/>
      </g>
     </g>
    </g>
    <g id="xtick_15">
     <g id="line2d_29">
      <path clip-path="url(#p9946d6acb0)" d="M 282.304719 307.584 
L 282.304719 41.472 
" style="fill:none;stroke:#b0b0b0;stroke-dasharray:5.12,1.28,0.8,1.28;stroke-dashoffset:0;stroke-width:0.8;"/>
     </g>
     <g id="line2d_30">
      <g>
       <use style="stroke:#000000;stroke-width:0.8;" x="282.304719" xlink:href="#me29cd2edef" y="307.584"/>
      </g>
     </g>
     <g id="text_15">
      <!-- 56 -->
      <g transform="translate(275.942219 322.182437)scale(0.1 -0.1)">
       <use xlink:href="#DejaVuSans-53"/>
       <use x="63.623047" xlink:href="#DejaVuSans-54"/>
      </g>
     </g>
    </g>
    <g id="xtick_16">
     <g id="line2d_31">
      <path clip-path="url(#p9946d6acb0)" d="M 298.355056 307.584 
L 298.355056 41.472 
" style="fill:none;stroke:#b0b0b0;stroke-dasharray:5.12,1.28,0.8,1.28;stroke-dashoffset:0;stroke-width:0.8;"/>
     </g>
     <g id="line2d_32">
      <g>
       <use style="stroke:#000000;stroke-width:0.8;" x="298.355056" xlink:href="#me29cd2edef" y="307.584"/>
      </g>
     </g>
     <g id="text_16">
      <!-- 60 -->
      <g transform="translate(291.992556 322.182437)scale(0.1 -0.1)">
       <use xlink:href="#DejaVuSans-54"/>
       <use x="63.623047" xlink:href="#DejaVuSans-48"/>
      </g>
     </g>
    </g>
    <g id="xtick_17">
     <g id="line2d_33">
      <path clip-path="url(#p9946d6acb0)" d="M 314.405393 307.584 
L 314.405393 41.472 
" style="fill:none;stroke:#b0b0b0;stroke-dasharray:5.12,1.28,0.8,1.28;stroke-dashoffset:0;stroke-width:0.8;"/>
     </g>
     <g id="line2d_34">
      <g>
       <use style="stroke:#000000;stroke-width:0.8;" x="314.405393" xlink:href="#me29cd2edef" y="307.584"/>
      </g>
     </g>
     <g id="text_17">
      <!-- 64 -->
      <g transform="translate(308.042893 322.182437)scale(0.1 -0.1)">
       <use xlink:href="#DejaVuSans-54"/>
       <use x="63.623047" xlink:href="#DejaVuSans-52"/>
      </g>
     </g>
    </g>
    <g id="xtick_18">
     <g id="line2d_35">
      <path clip-path="url(#p9946d6acb0)" d="M 330.45573 307.584 
L 330.45573 41.472 
" style="fill:none;stroke:#b0b0b0;stroke-dasharray:5.12,1.28,0.8,1.28;stroke-dashoffset:0;stroke-width:0.8;"/>
     </g>
     <g id="line2d_36">
      <g>
       <use style="stroke:#000000;stroke-width:0.8;" x="330.45573" xlink:href="#me29cd2edef" y="307.584"/>
      </g>
     </g>
     <g id="text_18">
      <!-- 68 -->
      <g transform="translate(324.09323 322.182437)scale(0.1 -0.1)">
       <use xlink:href="#DejaVuSans-54"/>
       <use x="63.623047" xlink:href="#DejaVuSans-56"/>
      </g>
     </g>
    </g>
    <g id="xtick_19">
     <g id="line2d_37">
      <path clip-path="url(#p9946d6acb0)" d="M 346.506067 307.584 
L 346.506067 41.472 
" style="fill:none;stroke:#b0b0b0;stroke-dasharray:5.12,1.28,0.8,1.28;stroke-dashoffset:0;stroke-width:0.8;"/>
     </g>
     <g id="line2d_38">
      <g>
       <use style="stroke:#000000;stroke-width:0.8;" x="346.506067" xlink:href="#me29cd2edef" y="307.584"/>
      </g>
     </g>
     <g id="text_19">
      <!-- 72 -->
      <defs>
       <path d="M 8.203125 72.90625 
L 55.078125 72.90625 
L 55.078125 68.703125 
L 28.609375 0 
L 18.3125 0 
L 43.21875 64.59375 
L 8.203125 64.59375 
z
" id="DejaVuSans-55"/>
      </defs>
      <g transform="translate(340.143567 322.182437)scale(0.1 -0.1)">
       <use xlink:href="#DejaVuSans-55"/>
       <use x="63.623047" xlink:href="#DejaVuSans-50"/>
      </g>
     </g>
    </g>
    <g id="xtick_20">
     <g id="line2d_39">
      <path clip-path="url(#p9946d6acb0)" d="M 362.556404 307.584 
L 362.556404 41.472 
" style="fill:none;stroke:#b0b0b0;stroke-dasharray:5.12,1.28,0.8,1.28;stroke-dashoffset:0;stroke-width:0.8;"/>
     </g>
     <g id="line2d_40">
      <g>
       <use style="stroke:#000000;stroke-width:0.8;" x="362.556404" xlink:href="#me29cd2edef" y="307.584"/>
      </g>
     </g>
     <g id="text_20">
      <!-- 76 -->
      <g transform="translate(356.193904 322.182437)scale(0.1 -0.1)">
       <use xlink:href="#DejaVuSans-55"/>
       <use x="63.623047" xlink:href="#DejaVuSans-54"/>
      </g>
     </g>
    </g>
    <g id="xtick_21">
     <g id="line2d_41">
      <path clip-path="url(#p9946d6acb0)" d="M 378.606742 307.584 
L 378.606742 41.472 
" style="fill:none;stroke:#b0b0b0;stroke-dasharray:5.12,1.28,0.8,1.28;stroke-dashoffset:0;stroke-width:0.8;"/>
     </g>
     <g id="line2d_42">
      <g>
       <use style="stroke:#000000;stroke-width:0.8;" x="378.606742" xlink:href="#me29cd2edef" y="307.584"/>
      </g>
     </g>
     <g id="text_21">
      <!-- 80 -->
      <g transform="translate(372.244242 322.182437)scale(0.1 -0.1)">
       <use xlink:href="#DejaVuSans-56"/>
       <use x="63.623047" xlink:href="#DejaVuSans-48"/>
      </g>
     </g>
    </g>
    <g id="xtick_22">
     <g id="line2d_43">
      <path clip-path="url(#p9946d6acb0)" d="M 394.657079 307.584 
L 394.657079 41.472 
" style="fill:none;stroke:#b0b0b0;stroke-dasharray:5.12,1.28,0.8,1.28;stroke-dashoffset:0;stroke-width:0.8;"/>
     </g>
     <g id="line2d_44">
      <g>
       <use style="stroke:#000000;stroke-width:0.8;" x="394.657079" xlink:href="#me29cd2edef" y="307.584"/>
      </g>
     </g>
     <g id="text_22">
      <!-- 84 -->
      <g transform="translate(388.294579 322.182437)scale(0.1 -0.1)">
       <use xlink:href="#DejaVuSans-56"/>
       <use x="63.623047" xlink:href="#DejaVuSans-52"/>
      </g>
     </g>
    </g>
    <g id="xtick_23">
     <g id="line2d_45">
      <path clip-path="url(#p9946d6acb0)" d="M 410.707416 307.584 
L 410.707416 41.472 
" style="fill:none;stroke:#b0b0b0;stroke-dasharray:5.12,1.28,0.8,1.28;stroke-dashoffset:0;stroke-width:0.8;"/>
     </g>
     <g id="line2d_46">
      <g>
       <use style="stroke:#000000;stroke-width:0.8;" x="410.707416" xlink:href="#me29cd2edef" y="307.584"/>
      </g>
     </g>
     <g id="text_23">
      <!-- 88 -->
      <g transform="translate(404.344916 322.182437)scale(0.1 -0.1)">
       <use xlink:href="#DejaVuSans-56"/>
       <use x="63.623047" xlink:href="#DejaVuSans-56"/>
      </g>
     </g>
    </g>
    <g id="text_24">
     <!-- threads -->
     <defs>
      <path d="M 18.3125 70.21875 
L 18.3125 54.6875 
L 36.8125 54.6875 
L 36.8125 47.703125 
L 18.3125 47.703125 
L 18.3125 18.015625 
Q 18.3125 11.328125 20.140625 9.421875 
Q 21.96875 7.515625 27.59375 7.515625 
L 36.8125 7.515625 
L 36.8125 0 
L 27.59375 0 
Q 17.1875 0 13.234375 3.875 
Q 9.28125 7.765625 9.28125 18.015625 
L 9.28125 47.703125 
L 2.6875 47.703125 
L 2.6875 54.6875 
L 9.28125 54.6875 
L 9.28125 70.21875 
z
" id="DejaVuSans-116"/>
      <path d="M 54.890625 33.015625 
L 54.890625 0 
L 45.90625 0 
L 45.90625 32.71875 
Q 45.90625 40.484375 42.875 44.328125 
Q 39.84375 48.1875 33.796875 48.1875 
Q 26.515625 48.1875 22.3125 43.546875 
Q 18.109375 38.921875 18.109375 30.90625 
L 18.109375 0 
L 9.078125 0 
L 9.078125 75.984375 
L 18.109375 75.984375 
L 18.109375 46.1875 
Q 21.34375 51.125 25.703125 53.5625 
Q 30.078125 56 35.796875 56 
Q 45.21875 56 50.046875 50.171875 
Q 54.890625 44.34375 54.890625 33.015625 
z
" id="DejaVuSans-104"/>
      <path d="M 41.109375 46.296875 
Q 39.59375 47.171875 37.8125 47.578125 
Q 36.03125 48 33.890625 48 
Q 26.265625 48 22.1875 43.046875 
Q 18.109375 38.09375 18.109375 28.8125 
L 18.109375 0 
L 9.078125 0 
L 9.078125 54.6875 
L 18.109375 54.6875 
L 18.109375 46.1875 
Q 20.953125 51.171875 25.484375 53.578125 
Q 30.03125 56 36.53125 56 
Q 37.453125 56 38.578125 55.875 
Q 39.703125 55.765625 41.0625 55.515625 
z
" id="DejaVuSans-114"/>
      <path d="M 56.203125 29.59375 
L 56.203125 25.203125 
L 14.890625 25.203125 
Q 15.484375 15.921875 20.484375 11.0625 
Q 25.484375 6.203125 34.421875 6.203125 
Q 39.59375 6.203125 44.453125 7.46875 
Q 49.3125 8.734375 54.109375 11.28125 
L 54.109375 2.78125 
Q 49.265625 0.734375 44.1875 -0.34375 
Q 39.109375 -1.421875 33.890625 -1.421875 
Q 20.796875 -1.421875 13.15625 6.1875 
Q 5.515625 13.8125 5.515625 26.8125 
Q 5.515625 40.234375 12.765625 48.109375 
Q 20.015625 56 32.328125 56 
Q 43.359375 56 49.78125 48.890625 
Q 56.203125 41.796875 56.203125 29.59375 
z
M 47.21875 32.234375 
Q 47.125 39.59375 43.09375 43.984375 
Q 39.0625 48.390625 32.421875 48.390625 
Q 24.90625 48.390625 20.390625 44.140625 
Q 15.875 39.890625 15.1875 32.171875 
z
" id="DejaVuSans-101"/>
      <path d="M 34.28125 27.484375 
Q 23.390625 27.484375 19.1875 25 
Q 14.984375 22.515625 14.984375 16.5 
Q 14.984375 11.71875 18.140625 8.90625 
Q 21.296875 6.109375 26.703125 6.109375 
Q 34.1875 6.109375 38.703125 11.40625 
Q 43.21875 16.703125 43.21875 25.484375 
L 43.21875 27.484375 
z
M 52.203125 31.203125 
L 52.203125 0 
L 43.21875 0 
L 43.21875 8.296875 
Q 40.140625 3.328125 35.546875 0.953125 
Q 30.953125 -1.421875 24.3125 -1.421875 
Q 15.921875 -1.421875 10.953125 3.296875 
Q 6 8.015625 6 15.921875 
Q 6 25.140625 12.171875 29.828125 
Q 18.359375 34.515625 30.609375 34.515625 
L 43.21875 34.515625 
L 43.21875 35.40625 
Q 43.21875 41.609375 39.140625 45 
Q 35.0625 48.390625 27.6875 48.390625 
Q 23 48.390625 18.546875 47.265625 
Q 14.109375 46.140625 10.015625 43.890625 
L 10.015625 52.203125 
Q 14.9375 54.109375 19.578125 55.046875 
Q 24.21875 56 28.609375 56 
Q 40.484375 56 46.34375 49.84375 
Q 52.203125 43.703125 52.203125 31.203125 
z
" id="DejaVuSans-97"/>
      <path d="M 45.40625 46.390625 
L 45.40625 75.984375 
L 54.390625 75.984375 
L 54.390625 0 
L 45.40625 0 
L 45.40625 8.203125 
Q 42.578125 3.328125 38.25 0.953125 
Q 33.9375 -1.421875 27.875 -1.421875 
Q 17.96875 -1.421875 11.734375 6.484375 
Q 5.515625 14.40625 5.515625 27.296875 
Q 5.515625 40.1875 11.734375 48.09375 
Q 17.96875 56 27.875 56 
Q 33.9375 56 38.25 53.625 
Q 42.578125 51.265625 45.40625 46.390625 
z
M 14.796875 27.296875 
Q 14.796875 17.390625 18.875 11.75 
Q 22.953125 6.109375 30.078125 6.109375 
Q 37.203125 6.109375 41.296875 11.75 
Q 45.40625 17.390625 45.40625 27.296875 
Q 45.40625 37.203125 41.296875 42.84375 
Q 37.203125 48.484375 30.078125 48.484375 
Q 22.953125 48.484375 18.875 42.84375 
Q 14.796875 37.203125 14.796875 27.296875 
z
" id="DejaVuSans-100"/>
      <path d="M 44.28125 53.078125 
L 44.28125 44.578125 
Q 40.484375 46.53125 36.375 47.5 
Q 32.28125 48.484375 27.875 48.484375 
Q 21.1875 48.484375 17.84375 46.4375 
Q 14.5 44.390625 14.5 40.28125 
Q 14.5 37.15625 16.890625 35.375 
Q 19.28125 33.59375 26.515625 31.984375 
L 29.59375 31.296875 
Q 39.15625 29.25 43.1875 25.515625 
Q 47.21875 21.78125 47.21875 15.09375 
Q 47.21875 7.46875 41.1875 3.015625 
Q 35.15625 -1.421875 24.609375 -1.421875 
Q 20.21875 -1.421875 15.453125 -0.5625 
Q 10.6875 0.296875 5.421875 2 
L 5.421875 11.28125 
Q 10.40625 8.6875 15.234375 7.390625 
Q 20.0625 6.109375 24.8125 6.109375 
Q 31.15625 6.109375 34.5625 8.28125 
Q 37.984375 10.453125 37.984375 14.40625 
Q 37.984375 18.0625 35.515625 20.015625 
Q 33.0625 21.96875 24.703125 23.78125 
L 21.578125 24.515625 
Q 13.234375 26.265625 9.515625 29.90625 
Q 5.8125 33.546875 5.8125 39.890625 
Q 5.8125 47.609375 11.28125 51.796875 
Q 16.75 56 26.8125 56 
Q 31.78125 56 36.171875 55.265625 
Q 40.578125 54.546875 44.28125 53.078125 
z
" id="DejaVuSans-115"/>
     </defs>
     <g transform="translate(217.168594 335.860562)scale(0.1 -0.1)">
      <use xlink:href="#DejaVuSans-116"/>
      <use x="39.208984" xlink:href="#DejaVuSans-104"/>
      <use x="102.587891" xlink:href="#DejaVuSans-114"/>
      <use x="141.451172" xlink:href="#DejaVuSans-101"/>
      <use x="202.974609" xlink:href="#DejaVuSans-97"/>
      <use x="264.253906" xlink:href="#DejaVuSans-100"/>
      <use x="327.730469" xlink:href="#DejaVuSans-115"/>
     </g>
    </g>
   </g>
   <g id="matplotlib.axis_2">
    <g id="ytick_1">
     <g id="line2d_47">
      <path clip-path="url(#p9946d6acb0)" d="M 57.6 270.596242 
L 414.72 270.596242 
" style="fill:none;stroke:#b0b0b0;stroke-dasharray:5.12,1.28,0.8,1.28;stroke-dashoffset:0;stroke-width:0.8;"/>
     </g>
     <g id="line2d_48">
      <defs>
       <path d="M 0 0 
L -3.5 0 
" id="mf114c89bdf" style="stroke:#000000;stroke-width:0.8;"/>
      </defs>
      <g>
       <use style="stroke:#000000;stroke-width:0.8;" x="57.6" xlink:href="#mf114c89bdf" y="270.596242"/>
      </g>
     </g>
     <g id="text_25">
      <!-- 2 -->
      <g transform="translate(44.2375 274.395461)scale(0.1 -0.1)">
       <use xlink:href="#DejaVuSans-50"/>
      </g>
     </g>
    </g>
    <g id="ytick_2">
     <g id="line2d_49">
      <path clip-path="url(#p9946d6acb0)" d="M 57.6 212.85559 
L 414.72 212.85559 
" style="fill:none;stroke:#b0b0b0;stroke-dasharray:5.12,1.28,0.8,1.28;stroke-dashoffset:0;stroke-width:0.8;"/>
     </g>
     <g id="line2d_50">
      <g>
       <use style="stroke:#000000;stroke-width:0.8;" x="57.6" xlink:href="#mf114c89bdf" y="212.85559"/>
      </g>
     </g>
     <g id="text_26">
      <!-- 4 -->
      <g transform="translate(44.2375 216.654809)scale(0.1 -0.1)">
       <use xlink:href="#DejaVuSans-52"/>
      </g>
     </g>
    </g>
    <g id="ytick_3">
     <g id="line2d_51">
      <path clip-path="url(#p9946d6acb0)" d="M 57.6 155.114938 
L 414.72 155.114938 
" style="fill:none;stroke:#b0b0b0;stroke-dasharray:5.12,1.28,0.8,1.28;stroke-dashoffset:0;stroke-width:0.8;"/>
     </g>
     <g id="line2d_52">
      <g>
       <use style="stroke:#000000;stroke-width:0.8;" x="57.6" xlink:href="#mf114c89bdf" y="155.114938"/>
      </g>
     </g>
     <g id="text_27">
      <!-- 6 -->
      <g transform="translate(44.2375 158.914157)scale(0.1 -0.1)">
       <use xlink:href="#DejaVuSans-54"/>
      </g>
     </g>
    </g>
    <g id="ytick_4">
     <g id="line2d_53">
      <path clip-path="url(#p9946d6acb0)" d="M 57.6 97.374286 
L 414.72 97.374286 
" style="fill:none;stroke:#b0b0b0;stroke-dasharray:5.12,1.28,0.8,1.28;stroke-dashoffset:0;stroke-width:0.8;"/>
     </g>
     <g id="line2d_54">
      <g>
       <use style="stroke:#000000;stroke-width:0.8;" x="57.6" xlink:href="#mf114c89bdf" y="97.374286"/>
      </g>
     </g>
     <g id="text_28">
      <!-- 8 -->
      <g transform="translate(44.2375 101.173505)scale(0.1 -0.1)">
       <use xlink:href="#DejaVuSans-56"/>
      </g>
     </g>
    </g>
    <g id="text_29">
     <!-- speed up -->
     <defs>
      <path d="M 18.109375 8.203125 
L 18.109375 -20.796875 
L 9.078125 -20.796875 
L 9.078125 54.6875 
L 18.109375 54.6875 
L 18.109375 46.390625 
Q 20.953125 51.265625 25.265625 53.625 
Q 29.59375 56 35.59375 56 
Q 45.5625 56 51.78125 48.09375 
Q 58.015625 40.1875 58.015625 27.296875 
Q 58.015625 14.40625 51.78125 6.484375 
Q 45.5625 -1.421875 35.59375 -1.421875 
Q 29.59375 -1.421875 25.265625 0.953125 
Q 20.953125 3.328125 18.109375 8.203125 
z
M 48.6875 27.296875 
Q 48.6875 37.203125 44.609375 42.84375 
Q 40.53125 48.484375 33.40625 48.484375 
Q 26.265625 48.484375 22.1875 42.84375 
Q 18.109375 37.203125 18.109375 27.296875 
Q 18.109375 17.390625 22.1875 11.75 
Q 26.265625 6.109375 33.40625 6.109375 
Q 40.53125 6.109375 44.609375 11.75 
Q 48.6875 17.390625 48.6875 27.296875 
z
" id="DejaVuSans-112"/>
      <path id="DejaVuSans-32"/>
      <path d="M 8.5 21.578125 
L 8.5 54.6875 
L 17.484375 54.6875 
L 17.484375 21.921875 
Q 17.484375 14.15625 20.5 10.265625 
Q 23.53125 6.390625 29.59375 6.390625 
Q 36.859375 6.390625 41.078125 11.03125 
Q 45.3125 15.671875 45.3125 23.6875 
L 45.3125 54.6875 
L 54.296875 54.6875 
L 54.296875 0 
L 45.3125 0 
L 45.3125 8.40625 
Q 42.046875 3.421875 37.71875 1 
Q 33.40625 -1.421875 27.6875 -1.421875 
Q 18.265625 -1.421875 13.375 4.4375 
Q 8.5 10.296875 8.5 21.578125 
z
M 31.109375 56 
z
" id="DejaVuSans-117"/>
     </defs>
     <g transform="translate(38.157812 197.566281)rotate(-90)scale(0.1 -0.1)">
      <use xlink:href="#DejaVuSans-115"/>
      <use x="52.099609" xlink:href="#DejaVuSans-112"/>
      <use x="115.576172" xlink:href="#DejaVuSans-101"/>
      <use x="177.099609" xlink:href="#DejaVuSans-101"/>
      <use x="238.623047" xlink:href="#DejaVuSans-100"/>
      <use x="302.099609" xlink:href="#DejaVuSans-32"/>
      <use x="333.886719" xlink:href="#DejaVuSans-117"/>
      <use x="397.265625" xlink:href="#DejaVuSans-112"/>
     </g>
    </g>
   </g>
   <g id="line2d_55">
    <path clip-path="url(#p9946d6acb0)" d="M 61.612584 295.488 
L 65.625169 283.409985 
L 69.637753 264.979628 
L 73.650337 248.887526 
L 77.662921 233.525003 
L 81.675506 218.06595 
L 85.68809 203.003325 
L 89.700674 189.21741 
L 93.713258 178.417808 
L 97.725843 166.072164 
L 101.738427 156.818931 
L 105.751011 147.243753 
L 109.763596 143.790711 
L 113.77618 129.747322 
L 117.788764 124.363976 
L 121.801348 114.862593 
L 125.813933 116.258238 
L 129.826517 102.583754 
L 133.839101 98.101895 
L 137.851685 89.577298 
L 141.86427 96.178321 
L 145.876854 82.20631 
L 149.889438 75.827262 
L 153.902022 72.462984 
L 157.914607 74.503682 
L 161.927191 71.01579 
L 165.939775 71.377075 
L 169.95236 66.734448 
L 173.964944 67.212096 
L 177.977528 64.265705 
L 181.990112 59.793657 
L 186.002697 66.311125 
L 190.015281 63.55094 
L 194.027865 59.999315 
L 198.040449 64.279201 
L 202.053034 61.408239 
L 206.065618 61.675032 
L 210.078202 64.136361 
L 214.090787 53.568 
L 218.103371 57.808322 
L 222.115955 63.72837 
L 226.128539 54.644987 
L 230.141124 54.294148 
L 234.153708 56.686223 
L 238.166292 82.158115 
L 242.178876 87.682349 
L 246.191461 85.032971 
L 250.204045 83.318931 
L 254.216629 81.837924 
L 258.229213 78.1233 
L 262.241798 79.750166 
L 266.254382 76.427285 
L 270.266966 75.014942 
L 274.279551 71.517448 
L 278.292135 69.0656 
L 282.304719 67.484912 
L 286.317303 68.092282 
L 290.329888 65.149981 
L 294.342472 65.154031 
L 298.355056 64.477206 
L 302.36764 62.603057 
L 306.380225 64.360223 
L 310.392809 62.803867 
L 314.405393 63.243619 
L 318.417978 63.072206 
L 322.430562 63.988928 
L 326.443146 66.038066 
L 330.45573 65.269963 
L 334.468315 65.051765 
L 338.480899 66.087787 
L 342.493483 67.561854 
L 346.506067 66.126746 
L 350.518652 65.014652 
L 354.531236 66.56607 
L 358.54382 66.296174 
L 362.556404 65.360348 
L 366.568989 65.683789 
L 370.581573 67.728063 
L 374.594157 69.004663 
L 378.606742 66.005117 
L 382.619326 64.99403 
L 386.63191 65.022831 
L 390.644494 65.81857 
L 394.657079 66.095413 
L 398.669663 65.543509 
L 402.682247 67.595853 
L 406.694831 68.827859 
L 410.707416 68.7005 
" style="fill:none;stroke:#0000ff;stroke-dasharray:1.5,2.475;stroke-dashoffset:0;stroke-width:1.5;"/>
    <defs>
     <path d="M 0 1.5 
C 0.397805 1.5 0.77937 1.341951 1.06066 1.06066 
C 1.341951 0.77937 1.5 0.397805 1.5 0 
C 1.5 -0.397805 1.341951 -0.77937 1.06066 -1.06066 
C 0.77937 -1.341951 0.397805 -1.5 0 -1.5 
C -0.397805 -1.5 -0.77937 -1.341951 -1.06066 -1.06066 
C -1.341951 -0.77937 -1.5 -0.397805 -1.5 0 
C -1.5 0.397805 -1.341951 0.77937 -1.06066 1.06066 
C -0.77937 1.341951 -0.397805 1.5 0 1.5 
z
" id="m5921b18d9f" style="stroke:#0000ff;"/>
    </defs>
    <g clip-path="url(#p9946d6acb0)">
     <use style="fill:#0000ff;stroke:#0000ff;" x="61.612584" xlink:href="#m5921b18d9f" y="295.488"/>
     <use style="fill:#0000ff;stroke:#0000ff;" x="65.625169" xlink:href="#m5921b18d9f" y="283.409985"/>
     <use style="fill:#0000ff;stroke:#0000ff;" x="69.637753" xlink:href="#m5921b18d9f" y="264.979628"/>
     <use style="fill:#0000ff;stroke:#0000ff;" x="73.650337" xlink:href="#m5921b18d9f" y="248.887526"/>
     <use style="fill:#0000ff;stroke:#0000ff;" x="77.662921" xlink:href="#m5921b18d9f" y="233.525003"/>
     <use style="fill:#0000ff;stroke:#0000ff;" x="81.675506" xlink:href="#m5921b18d9f" y="218.06595"/>
     <use style="fill:#0000ff;stroke:#0000ff;" x="85.68809" xlink:href="#m5921b18d9f" y="203.003325"/>
     <use style="fill:#0000ff;stroke:#0000ff;" x="89.700674" xlink:href="#m5921b18d9f" y="189.21741"/>
     <use style="fill:#0000ff;stroke:#0000ff;" x="93.713258" xlink:href="#m5921b18d9f" y="178.417808"/>
     <use style="fill:#0000ff;stroke:#0000ff;" x="97.725843" xlink:href="#m5921b18d9f" y="166.072164"/>
     <use style="fill:#0000ff;stroke:#0000ff;" x="101.738427" xlink:href="#m5921b18d9f" y="156.818931"/>
     <use style="fill:#0000ff;stroke:#0000ff;" x="105.751011" xlink:href="#m5921b18d9f" y="147.243753"/>
     <use style="fill:#0000ff;stroke:#0000ff;" x="109.763596" xlink:href="#m5921b18d9f" y="143.790711"/>
     <use style="fill:#0000ff;stroke:#0000ff;" x="113.77618" xlink:href="#m5921b18d9f" y="129.747322"/>
     <use style="fill:#0000ff;stroke:#0000ff;" x="117.788764" xlink:href="#m5921b18d9f" y="124.363976"/>
     <use style="fill:#0000ff;stroke:#0000ff;" x="121.801348" xlink:href="#m5921b18d9f" y="114.862593"/>
     <use style="fill:#0000ff;stroke:#0000ff;" x="125.813933" xlink:href="#m5921b18d9f" y="116.258238"/>
     <use style="fill:#0000ff;stroke:#0000ff;" x="129.826517" xlink:href="#m5921b18d9f" y="102.583754"/>
     <use style="fill:#0000ff;stroke:#0000ff;" x="133.839101" xlink:href="#m5921b18d9f" y="98.101895"/>
     <use style="fill:#0000ff;stroke:#0000ff;" x="137.851685" xlink:href="#m5921b18d9f" y="89.577298"/>
     <use style="fill:#0000ff;stroke:#0000ff;" x="141.86427" xlink:href="#m5921b18d9f" y="96.178321"/>
     <use style="fill:#0000ff;stroke:#0000ff;" x="145.876854" xlink:href="#m5921b18d9f" y="82.20631"/>
     <use style="fill:#0000ff;stroke:#0000ff;" x="149.889438" xlink:href="#m5921b18d9f" y="75.827262"/>
     <use style="fill:#0000ff;stroke:#0000ff;" x="153.902022" xlink:href="#m5921b18d9f" y="72.462984"/>
     <use style="fill:#0000ff;stroke:#0000ff;" x="157.914607" xlink:href="#m5921b18d9f" y="74.503682"/>
     <use style="fill:#0000ff;stroke:#0000ff;" x="161.927191" xlink:href="#m5921b18d9f" y="71.01579"/>
     <use style="fill:#0000ff;stroke:#0000ff;" x="165.939775" xlink:href="#m5921b18d9f" y="71.377075"/>
     <use style="fill:#0000ff;stroke:#0000ff;" x="169.95236" xlink:href="#m5921b18d9f" y="66.734448"/>
     <use style="fill:#0000ff;stroke:#0000ff;" x="173.964944" xlink:href="#m5921b18d9f" y="67.212096"/>
     <use style="fill:#0000ff;stroke:#0000ff;" x="177.977528" xlink:href="#m5921b18d9f" y="64.265705"/>
     <use style="fill:#0000ff;stroke:#0000ff;" x="181.990112" xlink:href="#m5921b18d9f" y="59.793657"/>
     <use style="fill:#0000ff;stroke:#0000ff;" x="186.002697" xlink:href="#m5921b18d9f" y="66.311125"/>
     <use style="fill:#0000ff;stroke:#0000ff;" x="190.015281" xlink:href="#m5921b18d9f" y="63.55094"/>
     <use style="fill:#0000ff;stroke:#0000ff;" x="194.027865" xlink:href="#m5921b18d9f" y="59.999315"/>
     <use style="fill:#0000ff;stroke:#0000ff;" x="198.040449" xlink:href="#m5921b18d9f" y="64.279201"/>
     <use style="fill:#0000ff;stroke:#0000ff;" x="202.053034" xlink:href="#m5921b18d9f" y="61.408239"/>
     <use style="fill:#0000ff;stroke:#0000ff;" x="206.065618" xlink:href="#m5921b18d9f" y="61.675032"/>
     <use style="fill:#0000ff;stroke:#0000ff;" x="210.078202" xlink:href="#m5921b18d9f" y="64.136361"/>
     <use style="fill:#0000ff;stroke:#0000ff;" x="214.090787" xlink:href="#m5921b18d9f" y="53.568"/>
     <use style="fill:#0000ff;stroke:#0000ff;" x="218.103371" xlink:href="#m5921b18d9f" y="57.808322"/>
     <use style="fill:#0000ff;stroke:#0000ff;" x="222.115955" xlink:href="#m5921b18d9f" y="63.72837"/>
     <use style="fill:#0000ff;stroke:#0000ff;" x="226.128539" xlink:href="#m5921b18d9f" y="54.644987"/>
     <use style="fill:#0000ff;stroke:#0000ff;" x="230.141124" xlink:href="#m5921b18d9f" y="54.294148"/>
     <use style="fill:#0000ff;stroke:#0000ff;" x="234.153708" xlink:href="#m5921b18d9f" y="56.686223"/>
     <use style="fill:#0000ff;stroke:#0000ff;" x="238.166292" xlink:href="#m5921b18d9f" y="82.158115"/>
     <use style="fill:#0000ff;stroke:#0000ff;" x="242.178876" xlink:href="#m5921b18d9f" y="87.682349"/>
     <use style="fill:#0000ff;stroke:#0000ff;" x="246.191461" xlink:href="#m5921b18d9f" y="85.032971"/>
     <use style="fill:#0000ff;stroke:#0000ff;" x="250.204045" xlink:href="#m5921b18d9f" y="83.318931"/>
     <use style="fill:#0000ff;stroke:#0000ff;" x="254.216629" xlink:href="#m5921b18d9f" y="81.837924"/>
     <use style="fill:#0000ff;stroke:#0000ff;" x="258.229213" xlink:href="#m5921b18d9f" y="78.1233"/>
     <use style="fill:#0000ff;stroke:#0000ff;" x="262.241798" xlink:href="#m5921b18d9f" y="79.750166"/>
     <use style="fill:#0000ff;stroke:#0000ff;" x="266.254382" xlink:href="#m5921b18d9f" y="76.427285"/>
     <use style="fill:#0000ff;stroke:#0000ff;" x="270.266966" xlink:href="#m5921b18d9f" y="75.014942"/>
     <use style="fill:#0000ff;stroke:#0000ff;" x="274.279551" xlink:href="#m5921b18d9f" y="71.517448"/>
     <use style="fill:#0000ff;stroke:#0000ff;" x="278.292135" xlink:href="#m5921b18d9f" y="69.0656"/>
     <use style="fill:#0000ff;stroke:#0000ff;" x="282.304719" xlink:href="#m5921b18d9f" y="67.484912"/>
     <use style="fill:#0000ff;stroke:#0000ff;" x="286.317303" xlink:href="#m5921b18d9f" y="68.092282"/>
     <use style="fill:#0000ff;stroke:#0000ff;" x="290.329888" xlink:href="#m5921b18d9f" y="65.149981"/>
     <use style="fill:#0000ff;stroke:#0000ff;" x="294.342472" xlink:href="#m5921b18d9f" y="65.154031"/>
     <use style="fill:#0000ff;stroke:#0000ff;" x="298.355056" xlink:href="#m5921b18d9f" y="64.477206"/>
     <use style="fill:#0000ff;stroke:#0000ff;" x="302.36764" xlink:href="#m5921b18d9f" y="62.603057"/>
     <use style="fill:#0000ff;stroke:#0000ff;" x="306.380225" xlink:href="#m5921b18d9f" y="64.360223"/>
     <use style="fill:#0000ff;stroke:#0000ff;" x="310.392809" xlink:href="#m5921b18d9f" y="62.803867"/>
     <use style="fill:#0000ff;stroke:#0000ff;" x="314.405393" xlink:href="#m5921b18d9f" y="63.243619"/>
     <use style="fill:#0000ff;stroke:#0000ff;" x="318.417978" xlink:href="#m5921b18d9f" y="63.072206"/>
     <use style="fill:#0000ff;stroke:#0000ff;" x="322.430562" xlink:href="#m5921b18d9f" y="63.988928"/>
     <use style="fill:#0000ff;stroke:#0000ff;" x="326.443146" xlink:href="#m5921b18d9f" y="66.038066"/>
     <use style="fill:#0000ff;stroke:#0000ff;" x="330.45573" xlink:href="#m5921b18d9f" y="65.269963"/>
     <use style="fill:#0000ff;stroke:#0000ff;" x="334.468315" xlink:href="#m5921b18d9f" y="65.051765"/>
     <use style="fill:#0000ff;stroke:#0000ff;" x="338.480899" xlink:href="#m5921b18d9f" y="66.087787"/>
     <use style="fill:#0000ff;stroke:#0000ff;" x="342.493483" xlink:href="#m5921b18d9f" y="67.561854"/>
     <use style="fill:#0000ff;stroke:#0000ff;" x="346.506067" xlink:href="#m5921b18d9f" y="66.126746"/>
     <use style="fill:#0000ff;stroke:#0000ff;" x="350.518652" xlink:href="#m5921b18d9f" y="65.014652"/>
     <use style="fill:#0000ff;stroke:#0000ff;" x="354.531236" xlink:href="#m5921b18d9f" y="66.56607"/>
     <use style="fill:#0000ff;stroke:#0000ff;" x="358.54382" xlink:href="#m5921b18d9f" y="66.296174"/>
     <use style="fill:#0000ff;stroke:#0000ff;" x="362.556404" xlink:href="#m5921b18d9f" y="65.360348"/>
     <use style="fill:#0000ff;stroke:#0000ff;" x="366.568989" xlink:href="#m5921b18d9f" y="65.683789"/>
     <use style="fill:#0000ff;stroke:#0000ff;" x="370.581573" xlink:href="#m5921b18d9f" y="67.728063"/>
     <use style="fill:#0000ff;stroke:#0000ff;" x="374.594157" xlink:href="#m5921b18d9f" y="69.004663"/>
     <use style="fill:#0000ff;stroke:#0000ff;" x="378.606742" xlink:href="#m5921b18d9f" y="66.005117"/>
     <use style="fill:#0000ff;stroke:#0000ff;" x="382.619326" xlink:href="#m5921b18d9f" y="64.99403"/>
     <use style="fill:#0000ff;stroke:#0000ff;" x="386.63191" xlink:href="#m5921b18d9f" y="65.022831"/>
     <use style="fill:#0000ff;stroke:#0000ff;" x="390.644494" xlink:href="#m5921b18d9f" y="65.81857"/>
     <use style="fill:#0000ff;stroke:#0000ff;" x="394.657079" xlink:href="#m5921b18d9f" y="66.095413"/>
     <use style="fill:#0000ff;stroke:#0000ff;" x="398.669663" xlink:href="#m5921b18d9f" y="65.543509"/>
     <use style="fill:#0000ff;stroke:#0000ff;" x="402.682247" xlink:href="#m5921b18d9f" y="67.595853"/>
     <use style="fill:#0000ff;stroke:#0000ff;" x="406.694831" xlink:href="#m5921b18d9f" y="68.827859"/>
     <use style="fill:#0000ff;stroke:#0000ff;" x="410.707416" xlink:href="#m5921b18d9f" y="68.7005"/>
    </g>
   </g>
   <g id="line2d_56">
    <path clip-path="url(#p9946d6acb0)" d="M 61.612584 293.406351 
L 65.625169 281.668718 
L 69.637753 261.154904 
L 73.650337 246.187443 
L 77.662921 232.515941 
L 81.675506 215.387241 
L 85.68809 202.82417 
L 89.700674 190.150478 
L 93.713258 179.689491 
L 97.725843 170.425326 
L 101.738427 162.142741 
L 105.751011 154.59615 
L 109.763596 148.784724 
L 113.77618 142.408074 
L 117.788764 139.331845 
L 121.801348 134.640316 
L 125.813933 134.461769 
L 129.826517 129.567528 
L 133.839101 130.773859 
L 137.851685 124.8655 
L 141.86427 128.070261 
L 145.876854 124.713225 
L 149.889438 123.778085 
L 153.902022 123.3622 
L 157.914607 128.130753 
L 161.927191 126.796028 
L 165.939775 129.02002 
L 169.95236 127.705299 
L 173.964944 125.522884 
L 177.977528 129.23039 
L 181.990112 128.614318 
L 186.002697 131.934148 
L 190.015281 141.871308 
L 194.027865 142.273059 
L 198.040449 142.719144 
L 202.053034 142.855196 
L 206.065618 143.017069 
L 210.078202 144.030651 
L 214.090787 144.825171 
L 218.103371 144.875478 
L 222.115955 145.432436 
L 226.128539 146.095724 
L 230.141124 146.7587 
L 234.153708 147.529419 
L 238.166292 176.134597 
L 242.178876 177.224751 
L 246.191461 178.64846 
L 250.204045 176.7449 
L 254.216629 176.727886 
L 258.229213 176.914691 
L 262.241798 177.400014 
L 266.254382 177.191989 
L 270.266966 175.931129 
L 274.279551 174.901306 
L 278.292135 175.421702 
L 282.304719 175.59155 
L 286.317303 175.679153 
L 290.329888 175.608525 
L 294.342472 175.709555 
L 298.355056 176.197189 
L 302.36764 176.479793 
L 306.380225 176.975647 
L 310.392809 177.59291 
L 314.405393 177.662517 
L 318.417978 178.809924 
L 322.430562 179.065006 
L 326.443146 179.831234 
L 330.45573 179.910608 
L 334.468315 181.863246 
L 338.480899 182.479816 
L 342.493483 183.164032 
L 346.506067 183.828216 
L 350.518652 184.296887 
L 354.531236 184.670137 
L 358.54382 185.883319 
L 362.556404 186.775404 
L 366.568989 187.258051 
L 370.581573 187.760145 
L 374.594157 188.718634 
L 378.606742 189.214174 
L 382.619326 189.664803 
L 386.63191 190.303754 
L 390.644494 190.997444 
L 394.657079 191.653799 
L 398.669663 192.318044 
L 402.682247 192.793102 
L 406.694831 195.439647 
L 410.707416 196.476686 
" style="fill:none;stroke:#ff0000;stroke-dasharray:1.5,2.475;stroke-dashoffset:0;stroke-width:1.5;"/>
    <defs>
     <path d="M 0 1.5 
C 0.397805 1.5 0.77937 1.341951 1.06066 1.06066 
C 1.341951 0.77937 1.5 0.397805 1.5 0 
C 1.5 -0.397805 1.341951 -0.77937 1.06066 -1.06066 
C 0.77937 -1.341951 0.397805 -1.5 0 -1.5 
C -0.397805 -1.5 -0.77937 -1.341951 -1.06066 -1.06066 
C -1.341951 -0.77937 -1.5 -0.397805 -1.5 0 
C -1.5 0.397805 -1.341951 0.77937 -1.06066 1.06066 
C -0.77937 1.341951 -0.397805 1.5 0 1.5 
z
" id="m8a78e97785" style="stroke:#ff0000;"/>
    </defs>
    <g clip-path="url(#p9946d6acb0)">
     <use style="fill:#ff0000;stroke:#ff0000;" x="61.612584" xlink:href="#m8a78e97785" y="293.406351"/>
     <use style="fill:#ff0000;stroke:#ff0000;" x="65.625169" xlink:href="#m8a78e97785" y="281.668718"/>
     <use style="fill:#ff0000;stroke:#ff0000;" x="69.637753" xlink:href="#m8a78e97785" y="261.154904"/>
     <use style="fill:#ff0000;stroke:#ff0000;" x="73.650337" xlink:href="#m8a78e97785" y="246.187443"/>
     <use style="fill:#ff0000;stroke:#ff0000;" x="77.662921" xlink:href="#m8a78e97785" y="232.515941"/>
     <use style="fill:#ff0000;stroke:#ff0000;" x="81.675506" xlink:href="#m8a78e97785" y="215.387241"/>
     <use style="fill:#ff0000;stroke:#ff0000;" x="85.68809" xlink:href="#m8a78e97785" y="202.82417"/>
     <use style="fill:#ff0000;stroke:#ff0000;" x="89.700674" xlink:href="#m8a78e97785" y="190.150478"/>
     <use style="fill:#ff0000;stroke:#ff0000;" x="93.713258" xlink:href="#m8a78e97785" y="179.689491"/>
     <use style="fill:#ff0000;stroke:#ff0000;" x="97.725843" xlink:href="#m8a78e97785" y="170.425326"/>
     <use style="fill:#ff0000;stroke:#ff0000;" x="101.738427" xlink:href="#m8a78e97785" y="162.142741"/>
     <use style="fill:#ff0000;stroke:#ff0000;" x="105.751011" xlink:href="#m8a78e97785" y="154.59615"/>
     <use style="fill:#ff0000;stroke:#ff0000;" x="109.763596" xlink:href="#m8a78e97785" y="148.784724"/>
     <use style="fill:#ff0000;stroke:#ff0000;" x="113.77618" xlink:href="#m8a78e97785" y="142.408074"/>
     <use style="fill:#ff0000;stroke:#ff0000;" x="117.788764" xlink:href="#m8a78e97785" y="139.331845"/>
     <use style="fill:#ff0000;stroke:#ff0000;" x="121.801348" xlink:href="#m8a78e97785" y="134.640316"/>
     <use style="fill:#ff0000;stroke:#ff0000;" x="125.813933" xlink:href="#m8a78e97785" y="134.461769"/>
     <use style="fill:#ff0000;stroke:#ff0000;" x="129.826517" xlink:href="#m8a78e97785" y="129.567528"/>
     <use style="fill:#ff0000;stroke:#ff0000;" x="133.839101" xlink:href="#m8a78e97785" y="130.773859"/>
     <use style="fill:#ff0000;stroke:#ff0000;" x="137.851685" xlink:href="#m8a78e97785" y="124.8655"/>
     <use style="fill:#ff0000;stroke:#ff0000;" x="141.86427" xlink:href="#m8a78e97785" y="128.070261"/>
     <use style="fill:#ff0000;stroke:#ff0000;" x="145.876854" xlink:href="#m8a78e97785" y="124.713225"/>
     <use style="fill:#ff0000;stroke:#ff0000;" x="149.889438" xlink:href="#m8a78e97785" y="123.778085"/>
     <use style="fill:#ff0000;stroke:#ff0000;" x="153.902022" xlink:href="#m8a78e97785" y="123.3622"/>
     <use style="fill:#ff0000;stroke:#ff0000;" x="157.914607" xlink:href="#m8a78e97785" y="128.130753"/>
     <use style="fill:#ff0000;stroke:#ff0000;" x="161.927191" xlink:href="#m8a78e97785" y="126.796028"/>
     <use style="fill:#ff0000;stroke:#ff0000;" x="165.939775" xlink:href="#m8a78e97785" y="129.02002"/>
     <use style="fill:#ff0000;stroke:#ff0000;" x="169.95236" xlink:href="#m8a78e97785" y="127.705299"/>
     <use style="fill:#ff0000;stroke:#ff0000;" x="173.964944" xlink:href="#m8a78e97785" y="125.522884"/>
     <use style="fill:#ff0000;stroke:#ff0000;" x="177.977528" xlink:href="#m8a78e97785" y="129.23039"/>
     <use style="fill:#ff0000;stroke:#ff0000;" x="181.990112" xlink:href="#m8a78e97785" y="128.614318"/>
     <use style="fill:#ff0000;stroke:#ff0000;" x="186.002697" xlink:href="#m8a78e97785" y="131.934148"/>
     <use style="fill:#ff0000;stroke:#ff0000;" x="190.015281" xlink:href="#m8a78e97785" y="141.871308"/>
     <use style="fill:#ff0000;stroke:#ff0000;" x="194.027865" xlink:href="#m8a78e97785" y="142.273059"/>
     <use style="fill:#ff0000;stroke:#ff0000;" x="198.040449" xlink:href="#m8a78e97785" y="142.719144"/>
     <use style="fill:#ff0000;stroke:#ff0000;" x="202.053034" xlink:href="#m8a78e97785" y="142.855196"/>
     <use style="fill:#ff0000;stroke:#ff0000;" x="206.065618" xlink:href="#m8a78e97785" y="143.017069"/>
     <use style="fill:#ff0000;stroke:#ff0000;" x="210.078202" xlink:href="#m8a78e97785" y="144.030651"/>
     <use style="fill:#ff0000;stroke:#ff0000;" x="214.090787" xlink:href="#m8a78e97785" y="144.825171"/>
     <use style="fill:#ff0000;stroke:#ff0000;" x="218.103371" xlink:href="#m8a78e97785" y="144.875478"/>
     <use style="fill:#ff0000;stroke:#ff0000;" x="222.115955" xlink:href="#m8a78e97785" y="145.432436"/>
     <use style="fill:#ff0000;stroke:#ff0000;" x="226.128539" xlink:href="#m8a78e97785" y="146.095724"/>
     <use style="fill:#ff0000;stroke:#ff0000;" x="230.141124" xlink:href="#m8a78e97785" y="146.7587"/>
     <use style="fill:#ff0000;stroke:#ff0000;" x="234.153708" xlink:href="#m8a78e97785" y="147.529419"/>
     <use style="fill:#ff0000;stroke:#ff0000;" x="238.166292" xlink:href="#m8a78e97785" y="176.134597"/>
     <use style="fill:#ff0000;stroke:#ff0000;" x="242.178876" xlink:href="#m8a78e97785" y="177.224751"/>
     <use style="fill:#ff0000;stroke:#ff0000;" x="246.191461" xlink:href="#m8a78e97785" y="178.64846"/>
     <use style="fill:#ff0000;stroke:#ff0000;" x="250.204045" xlink:href="#m8a78e97785" y="176.7449"/>
     <use style="fill:#ff0000;stroke:#ff0000;" x="254.216629" xlink:href="#m8a78e97785" y="176.727886"/>
     <use style="fill:#ff0000;stroke:#ff0000;" x="258.229213" xlink:href="#m8a78e97785" y="176.914691"/>
     <use style="fill:#ff0000;stroke:#ff0000;" x="262.241798" xlink:href="#m8a78e97785" y="177.400014"/>
     <use style="fill:#ff0000;stroke:#ff0000;" x="266.254382" xlink:href="#m8a78e97785" y="177.191989"/>
     <use style="fill:#ff0000;stroke:#ff0000;" x="270.266966" xlink:href="#m8a78e97785" y="175.931129"/>
     <use style="fill:#ff0000;stroke:#ff0000;" x="274.279551" xlink:href="#m8a78e97785" y="174.901306"/>
     <use style="fill:#ff0000;stroke:#ff0000;" x="278.292135" xlink:href="#m8a78e97785" y="175.421702"/>
     <use style="fill:#ff0000;stroke:#ff0000;" x="282.304719" xlink:href="#m8a78e97785" y="175.59155"/>
     <use style="fill:#ff0000;stroke:#ff0000;" x="286.317303" xlink:href="#m8a78e97785" y="175.679153"/>
     <use style="fill:#ff0000;stroke:#ff0000;" x="290.329888" xlink:href="#m8a78e97785" y="175.608525"/>
     <use style="fill:#ff0000;stroke:#ff0000;" x="294.342472" xlink:href="#m8a78e97785" y="175.709555"/>
     <use style="fill:#ff0000;stroke:#ff0000;" x="298.355056" xlink:href="#m8a78e97785" y="176.197189"/>
     <use style="fill:#ff0000;stroke:#ff0000;" x="302.36764" xlink:href="#m8a78e97785" y="176.479793"/>
     <use style="fill:#ff0000;stroke:#ff0000;" x="306.380225" xlink:href="#m8a78e97785" y="176.975647"/>
     <use style="fill:#ff0000;stroke:#ff0000;" x="310.392809" xlink:href="#m8a78e97785" y="177.59291"/>
     <use style="fill:#ff0000;stroke:#ff0000;" x="314.405393" xlink:href="#m8a78e97785" y="177.662517"/>
     <use style="fill:#ff0000;stroke:#ff0000;" x="318.417978" xlink:href="#m8a78e97785" y="178.809924"/>
     <use style="fill:#ff0000;stroke:#ff0000;" x="322.430562" xlink:href="#m8a78e97785" y="179.065006"/>
     <use style="fill:#ff0000;stroke:#ff0000;" x="326.443146" xlink:href="#m8a78e97785" y="179.831234"/>
     <use style="fill:#ff0000;stroke:#ff0000;" x="330.45573" xlink:href="#m8a78e97785" y="179.910608"/>
     <use style="fill:#ff0000;stroke:#ff0000;" x="334.468315" xlink:href="#m8a78e97785" y="181.863246"/>
     <use style="fill:#ff0000;stroke:#ff0000;" x="338.480899" xlink:href="#m8a78e97785" y="182.479816"/>
     <use style="fill:#ff0000;stroke:#ff0000;" x="342.493483" xlink:href="#m8a78e97785" y="183.164032"/>
     <use style="fill:#ff0000;stroke:#ff0000;" x="346.506067" xlink:href="#m8a78e97785" y="183.828216"/>
     <use style="fill:#ff0000;stroke:#ff0000;" x="350.518652" xlink:href="#m8a78e97785" y="184.296887"/>
     <use style="fill:#ff0000;stroke:#ff0000;" x="354.531236" xlink:href="#m8a78e97785" y="184.670137"/>
     <use style="fill:#ff0000;stroke:#ff0000;" x="358.54382" xlink:href="#m8a78e97785" y="185.883319"/>
     <use style="fill:#ff0000;stroke:#ff0000;" x="362.556404" xlink:href="#m8a78e97785" y="186.775404"/>
     <use style="fill:#ff0000;stroke:#ff0000;" x="366.568989" xlink:href="#m8a78e97785" y="187.258051"/>
     <use style="fill:#ff0000;stroke:#ff0000;" x="370.581573" xlink:href="#m8a78e97785" y="187.760145"/>
     <use style="fill:#ff0000;stroke:#ff0000;" x="374.594157" xlink:href="#m8a78e97785" y="188.718634"/>
     <use style="fill:#ff0000;stroke:#ff0000;" x="378.606742" xlink:href="#m8a78e97785" y="189.214174"/>
     <use style="fill:#ff0000;stroke:#ff0000;" x="382.619326" xlink:href="#m8a78e97785" y="189.664803"/>
     <use style="fill:#ff0000;stroke:#ff0000;" x="386.63191" xlink:href="#m8a78e97785" y="190.303754"/>
     <use style="fill:#ff0000;stroke:#ff0000;" x="390.644494" xlink:href="#m8a78e97785" y="190.997444"/>
     <use style="fill:#ff0000;stroke:#ff0000;" x="394.657079" xlink:href="#m8a78e97785" y="191.653799"/>
     <use style="fill:#ff0000;stroke:#ff0000;" x="398.669663" xlink:href="#m8a78e97785" y="192.318044"/>
     <use style="fill:#ff0000;stroke:#ff0000;" x="402.682247" xlink:href="#m8a78e97785" y="192.793102"/>
     <use style="fill:#ff0000;stroke:#ff0000;" x="406.694831" xlink:href="#m8a78e97785" y="195.439647"/>
     <use style="fill:#ff0000;stroke:#ff0000;" x="410.707416" xlink:href="#m8a78e97785" y="196.476686"/>
    </g>
   </g>
   <g id="line2d_57">
    <path clip-path="url(#p9946d6acb0)" d="M 61.612584 294.447176 
L 65.625169 282.539352 
L 69.637753 263.067266 
L 73.650337 247.537484 
L 77.662921 233.020472 
L 81.675506 216.726596 
L 85.68809 202.913748 
L 89.700674 189.683944 
L 93.713258 179.053649 
L 97.725843 168.248745 
L 101.738427 159.480836 
L 105.751011 150.919952 
L 109.763596 146.287717 
L 113.77618 136.077698 
L 117.788764 131.847911 
L 121.801348 124.751455 
L 125.813933 125.360003 
L 129.826517 116.075641 
L 133.839101 114.437877 
L 137.851685 107.221399 
L 141.86427 112.124291 
L 145.876854 103.459767 
L 149.889438 99.802673 
L 153.902022 97.912592 
L 157.914607 101.317217 
L 161.927191 98.905909 
L 165.939775 100.198547 
L 169.95236 97.219873 
L 173.964944 96.36749 
L 177.977528 96.748047 
L 181.990112 94.203988 
L 186.002697 99.122637 
L 190.015281 102.711124 
L 194.027865 101.136187 
L 198.040449 103.499173 
L 202.053034 102.131717 
L 206.065618 102.346051 
L 210.078202 104.083506 
L 214.090787 99.196586 
L 218.103371 101.3419 
L 222.115955 104.580403 
L 226.128539 100.370355 
L 230.141124 100.526424 
L 234.153708 102.107821 
L 238.166292 129.146356 
L 242.178876 132.45355 
L 246.191461 131.840716 
L 250.204045 130.031916 
L 254.216629 129.282905 
L 258.229213 127.518996 
L 262.241798 128.57509 
L 266.254382 126.809637 
L 270.266966 125.473036 
L 274.279551 123.209377 
L 278.292135 122.243651 
L 282.304719 121.538231 
L 286.317303 121.885717 
L 290.329888 120.379253 
L 294.342472 120.431793 
L 298.355056 120.337198 
L 302.36764 119.541425 
L 306.380225 120.667935 
L 310.392809 120.198389 
L 314.405393 120.453068 
L 318.417978 120.941065 
L 322.430562 121.526967 
L 326.443146 122.93465 
L 330.45573 122.590286 
L 334.468315 123.457506 
L 338.480899 124.283801 
L 342.493483 125.362943 
L 346.506067 124.977481 
L 350.518652 124.65577 
L 354.531236 125.618104 
L 358.54382 126.089746 
L 362.556404 126.067876 
L 366.568989 126.47092 
L 370.581573 127.744104 
L 374.594157 128.861648 
L 378.606742 127.609645 
L 382.619326 127.329416 
L 386.63191 127.663292 
L 390.644494 128.408007 
L 394.657079 128.874606 
L 398.669663 128.930776 
L 402.682247 130.194477 
L 406.694831 132.133753 
L 410.707416 132.588593 
" style="fill:none;stroke:#008000;stroke-dasharray:1.5,2.475;stroke-dashoffset:0;stroke-width:1.5;"/>
    <defs>
     <path d="M 0 1.5 
C 0.397805 1.5 0.77937 1.341951 1.06066 1.06066 
C 1.341951 0.77937 1.5 0.397805 1.5 0 
C 1.5 -0.397805 1.341951 -0.77937 1.06066 -1.06066 
C 0.77937 -1.341951 0.397805 -1.5 0 -1.5 
C -0.397805 -1.5 -0.77937 -1.341951 -1.06066 -1.06066 
C -1.341951 -0.77937 -1.5 -0.397805 -1.5 0 
C -1.5 0.397805 -1.341951 0.77937 -1.06066 1.06066 
C -0.77937 1.341951 -0.397805 1.5 0 1.5 
z
" id="m0c245c00ed" style="stroke:#008000;"/>
    </defs>
    <g clip-path="url(#p9946d6acb0)">
     <use style="fill:#008000;stroke:#008000;" x="61.612584" xlink:href="#m0c245c00ed" y="294.447176"/>
     <use style="fill:#008000;stroke:#008000;" x="65.625169" xlink:href="#m0c245c00ed" y="282.539352"/>
     <use style="fill:#008000;stroke:#008000;" x="69.637753" xlink:href="#m0c245c00ed" y="263.067266"/>
     <use style="fill:#008000;stroke:#008000;" x="73.650337" xlink:href="#m0c245c00ed" y="247.537484"/>
     <use style="fill:#008000;stroke:#008000;" x="77.662921" xlink:href="#m0c245c00ed" y="233.020472"/>
     <use style="fill:#008000;stroke:#008000;" x="81.675506" xlink:href="#m0c245c00ed" y="216.726596"/>
     <use style="fill:#008000;stroke:#008000;" x="85.68809" xlink:href="#m0c245c00ed" y="202.913748"/>
     <use style="fill:#008000;stroke:#008000;" x="89.700674" xlink:href="#m0c245c00ed" y="189.683944"/>
     <use style="fill:#008000;stroke:#008000;" x="93.713258" xlink:href="#m0c245c00ed" y="179.053649"/>
     <use style="fill:#008000;stroke:#008000;" x="97.725843" xlink:href="#m0c245c00ed" y="168.248745"/>
     <use style="fill:#008000;stroke:#008000;" x="101.738427" xlink:href="#m0c245c00ed" y="159.480836"/>
     <use style="fill:#008000;stroke:#008000;" x="105.751011" xlink:href="#m0c245c00ed" y="150.919952"/>
     <use style="fill:#008000;stroke:#008000;" x="109.763596" xlink:href="#m0c245c00ed" y="146.287717"/>
     <use style="fill:#008000;stroke:#008000;" x="113.77618" xlink:href="#m0c245c00ed" y="136.077698"/>
     <use style="fill:#008000;stroke:#008000;" x="117.788764" xlink:href="#m0c245c00ed" y="131.847911"/>
     <use style="fill:#008000;stroke:#008000;" x="121.801348" xlink:href="#m0c245c00ed" y="124.751455"/>
     <use style="fill:#008000;stroke:#008000;" x="125.813933" xlink:href="#m0c245c00ed" y="125.360003"/>
     <use style="fill:#008000;stroke:#008000;" x="129.826517" xlink:href="#m0c245c00ed" y="116.075641"/>
     <use style="fill:#008000;stroke:#008000;" x="133.839101" xlink:href="#m0c245c00ed" y="114.437877"/>
     <use style="fill:#008000;stroke:#008000;" x="137.851685" xlink:href="#m0c245c00ed" y="107.221399"/>
     <use style="fill:#008000;stroke:#008000;" x="141.86427" xlink:href="#m0c245c00ed" y="112.124291"/>
     <use style="fill:#008000;stroke:#008000;" x="145.876854" xlink:href="#m0c245c00ed" y="103.459767"/>
     <use style="fill:#008000;stroke:#008000;" x="149.889438" xlink:href="#m0c245c00ed" y="99.802673"/>
     <use style="fill:#008000;stroke:#008000;" x="153.902022" xlink:href="#m0c245c00ed" y="97.912592"/>
     <use style="fill:#008000;stroke:#008000;" x="157.914607" xlink:href="#m0c245c00ed" y="101.317217"/>
     <use style="fill:#008000;stroke:#008000;" x="161.927191" xlink:href="#m0c245c00ed" y="98.905909"/>
     <use style="fill:#008000;stroke:#008000;" x="165.939775" xlink:href="#m0c245c00ed" y="100.198547"/>
     <use style="fill:#008000;stroke:#008000;" x="169.95236" xlink:href="#m0c245c00ed" y="97.219873"/>
     <use style="fill:#008000;stroke:#008000;" x="173.964944" xlink:href="#m0c245c00ed" y="96.36749"/>
     <use style="fill:#008000;stroke:#008000;" x="177.977528" xlink:href="#m0c245c00ed" y="96.748047"/>
     <use style="fill:#008000;stroke:#008000;" x="181.990112" xlink:href="#m0c245c00ed" y="94.203988"/>
     <use style="fill:#008000;stroke:#008000;" x="186.002697" xlink:href="#m0c245c00ed" y="99.122637"/>
     <use style="fill:#008000;stroke:#008000;" x="190.015281" xlink:href="#m0c245c00ed" y="102.711124"/>
     <use style="fill:#008000;stroke:#008000;" x="194.027865" xlink:href="#m0c245c00ed" y="101.136187"/>
     <use style="fill:#008000;stroke:#008000;" x="198.040449" xlink:href="#m0c245c00ed" y="103.499173"/>
     <use style="fill:#008000;stroke:#008000;" x="202.053034" xlink:href="#m0c245c00ed" y="102.131717"/>
     <use style="fill:#008000;stroke:#008000;" x="206.065618" xlink:href="#m0c245c00ed" y="102.346051"/>
     <use style="fill:#008000;stroke:#008000;" x="210.078202" xlink:href="#m0c245c00ed" y="104.083506"/>
     <use style="fill:#008000;stroke:#008000;" x="214.090787" xlink:href="#m0c245c00ed" y="99.196586"/>
     <use style="fill:#008000;stroke:#008000;" x="218.103371" xlink:href="#m0c245c00ed" y="101.3419"/>
     <use style="fill:#008000;stroke:#008000;" x="222.115955" xlink:href="#m0c245c00ed" y="104.580403"/>
     <use style="fill:#008000;stroke:#008000;" x="226.128539" xlink:href="#m0c245c00ed" y="100.370355"/>
     <use style="fill:#008000;stroke:#008000;" x="230.141124" xlink:href="#m0c245c00ed" y="100.526424"/>
     <use style="fill:#008000;stroke:#008000;" x="234.153708" xlink:href="#m0c245c00ed" y="102.107821"/>
     <use style="fill:#008000;stroke:#008000;" x="238.166292" xlink:href="#m0c245c00ed" y="129.146356"/>
     <use style="fill:#008000;stroke:#008000;" x="242.178876" xlink:href="#m0c245c00ed" y="132.45355"/>
     <use style="fill:#008000;stroke:#008000;" x="246.191461" xlink:href="#m0c245c00ed" y="131.840716"/>
     <use style="fill:#008000;stroke:#008000;" x="250.204045" xlink:href="#m0c245c00ed" y="130.031916"/>
     <use style="fill:#008000;stroke:#008000;" x="254.216629" xlink:href="#m0c245c00ed" y="129.282905"/>
     <use style="fill:#008000;stroke:#008000;" x="258.229213" xlink:href="#m0c245c00ed" y="127.518996"/>
     <use style="fill:#008000;stroke:#008000;" x="262.241798" xlink:href="#m0c245c00ed" y="128.57509"/>
     <use style="fill:#008000;stroke:#008000;" x="266.254382" xlink:href="#m0c245c00ed" y="126.809637"/>
     <use style="fill:#008000;stroke:#008000;" x="270.266966" xlink:href="#m0c245c00ed" y="125.473036"/>
     <use style="fill:#008000;stroke:#008000;" x="274.279551" xlink:href="#m0c245c00ed" y="123.209377"/>
     <use style="fill:#008000;stroke:#008000;" x="278.292135" xlink:href="#m0c245c00ed" y="122.243651"/>
     <use style="fill:#008000;stroke:#008000;" x="282.304719" xlink:href="#m0c245c00ed" y="121.538231"/>
     <use style="fill:#008000;stroke:#008000;" x="286.317303" xlink:href="#m0c245c00ed" y="121.885717"/>
     <use style="fill:#008000;stroke:#008000;" x="290.329888" xlink:href="#m0c245c00ed" y="120.379253"/>
     <use style="fill:#008000;stroke:#008000;" x="294.342472" xlink:href="#m0c245c00ed" y="120.431793"/>
     <use style="fill:#008000;stroke:#008000;" x="298.355056" xlink:href="#m0c245c00ed" y="120.337198"/>
     <use style="fill:#008000;stroke:#008000;" x="302.36764" xlink:href="#m0c245c00ed" y="119.541425"/>
     <use style="fill:#008000;stroke:#008000;" x="306.380225" xlink:href="#m0c245c00ed" y="120.667935"/>
     <use style="fill:#008000;stroke:#008000;" x="310.392809" xlink:href="#m0c245c00ed" y="120.198389"/>
     <use style="fill:#008000;stroke:#008000;" x="314.405393" xlink:href="#m0c245c00ed" y="120.453068"/>
     <use style="fill:#008000;stroke:#008000;" x="318.417978" xlink:href="#m0c245c00ed" y="120.941065"/>
     <use style="fill:#008000;stroke:#008000;" x="322.430562" xlink:href="#m0c245c00ed" y="121.526967"/>
     <use style="fill:#008000;stroke:#008000;" x="326.443146" xlink:href="#m0c245c00ed" y="122.93465"/>
     <use style="fill:#008000;stroke:#008000;" x="330.45573" xlink:href="#m0c245c00ed" y="122.590286"/>
     <use style="fill:#008000;stroke:#008000;" x="334.468315" xlink:href="#m0c245c00ed" y="123.457506"/>
     <use style="fill:#008000;stroke:#008000;" x="338.480899" xlink:href="#m0c245c00ed" y="124.283801"/>
     <use style="fill:#008000;stroke:#008000;" x="342.493483" xlink:href="#m0c245c00ed" y="125.362943"/>
     <use style="fill:#008000;stroke:#008000;" x="346.506067" xlink:href="#m0c245c00ed" y="124.977481"/>
     <use style="fill:#008000;stroke:#008000;" x="350.518652" xlink:href="#m0c245c00ed" y="124.65577"/>
     <use style="fill:#008000;stroke:#008000;" x="354.531236" xlink:href="#m0c245c00ed" y="125.618104"/>
     <use style="fill:#008000;stroke:#008000;" x="358.54382" xlink:href="#m0c245c00ed" y="126.089746"/>
     <use style="fill:#008000;stroke:#008000;" x="362.556404" xlink:href="#m0c245c00ed" y="126.067876"/>
     <use style="fill:#008000;stroke:#008000;" x="366.568989" xlink:href="#m0c245c00ed" y="126.47092"/>
     <use style="fill:#008000;stroke:#008000;" x="370.581573" xlink:href="#m0c245c00ed" y="127.744104"/>
     <use style="fill:#008000;stroke:#008000;" x="374.594157" xlink:href="#m0c245c00ed" y="128.861648"/>
     <use style="fill:#008000;stroke:#008000;" x="378.606742" xlink:href="#m0c245c00ed" y="127.609645"/>
     <use style="fill:#008000;stroke:#008000;" x="382.619326" xlink:href="#m0c245c00ed" y="127.329416"/>
     <use style="fill:#008000;stroke:#008000;" x="386.63191" xlink:href="#m0c245c00ed" y="127.663292"/>
     <use style="fill:#008000;stroke:#008000;" x="390.644494" xlink:href="#m0c245c00ed" y="128.408007"/>
     <use style="fill:#008000;stroke:#008000;" x="394.657079" xlink:href="#m0c245c00ed" y="128.874606"/>
     <use style="fill:#008000;stroke:#008000;" x="398.669663" xlink:href="#m0c245c00ed" y="128.930776"/>
     <use style="fill:#008000;stroke:#008000;" x="402.682247" xlink:href="#m0c245c00ed" y="130.194477"/>
     <use style="fill:#008000;stroke:#008000;" x="406.694831" xlink:href="#m0c245c00ed" y="132.133753"/>
     <use style="fill:#008000;stroke:#008000;" x="410.707416" xlink:href="#m0c245c00ed" y="132.588593"/>
    </g>
   </g>
   <g id="patch_3">
    <path d="M 57.6 307.584 
L 57.6 41.472 
" style="fill:none;stroke:#000000;stroke-linecap:square;stroke-linejoin:miter;stroke-width:0.8;"/>
   </g>
   <g id="patch_4">
    <path d="M 414.72 307.584 
L 414.72 41.472 
" style="fill:none;stroke:#000000;stroke-linecap:square;stroke-linejoin:miter;stroke-width:0.8;"/>
   </g>
   <g id="patch_5">
    <path d="M 57.6 307.584 
L 414.72 307.584 
" style="fill:none;stroke:#000000;stroke-linecap:square;stroke-linejoin:miter;stroke-width:0.8;"/>
   </g>
   <g id="patch_6">
    <path d="M 57.6 41.472 
L 414.72 41.472 
" style="fill:none;stroke:#000000;stroke-linecap:square;stroke-linejoin:miter;stroke-width:0.8;"/>
   </g>
   <g id="text_30">
    <!-- ScanTrans 3PV on pre_transpose50 -->
    <defs>
     <path d="M 53.515625 70.515625 
L 53.515625 60.890625 
Q 47.90625 63.578125 42.921875 64.890625 
Q 37.9375 66.21875 33.296875 66.21875 
Q 25.25 66.21875 20.875 63.09375 
Q 16.5 59.96875 16.5 54.203125 
Q 16.5 49.359375 19.40625 46.890625 
Q 22.3125 44.4375 30.421875 42.921875 
L 36.375 41.703125 
Q 47.40625 39.59375 52.65625 34.296875 
Q 57.90625 29 57.90625 20.125 
Q 57.90625 9.515625 50.796875 4.046875 
Q 43.703125 -1.421875 29.984375 -1.421875 
Q 24.8125 -1.421875 18.96875 -0.25 
Q 13.140625 0.921875 6.890625 3.21875 
L 6.890625 13.375 
Q 12.890625 10.015625 18.65625 8.296875 
Q 24.421875 6.59375 29.984375 6.59375 
Q 38.421875 6.59375 43.015625 9.90625 
Q 47.609375 13.234375 47.609375 19.390625 
Q 47.609375 24.75 44.3125 27.78125 
Q 41.015625 30.8125 33.5 32.328125 
L 27.484375 33.5 
Q 16.453125 35.6875 11.515625 40.375 
Q 6.59375 45.0625 6.59375 53.421875 
Q 6.59375 63.09375 13.40625 68.65625 
Q 20.21875 74.21875 32.171875 74.21875 
Q 37.3125 74.21875 42.625 73.28125 
Q 47.953125 72.359375 53.515625 70.515625 
z
" id="DejaVuSans-83"/>
     <path d="M 48.78125 52.59375 
L 48.78125 44.1875 
Q 44.96875 46.296875 41.140625 47.34375 
Q 37.3125 48.390625 33.40625 48.390625 
Q 24.65625 48.390625 19.8125 42.84375 
Q 14.984375 37.3125 14.984375 27.296875 
Q 14.984375 17.28125 19.8125 11.734375 
Q 24.65625 6.203125 33.40625 6.203125 
Q 37.3125 6.203125 41.140625 7.25 
Q 44.96875 8.296875 48.78125 10.40625 
L 48.78125 2.09375 
Q 45.015625 0.34375 40.984375 -0.53125 
Q 36.96875 -1.421875 32.421875 -1.421875 
Q 20.0625 -1.421875 12.78125 6.34375 
Q 5.515625 14.109375 5.515625 27.296875 
Q 5.515625 40.671875 12.859375 48.328125 
Q 20.21875 56 33.015625 56 
Q 37.15625 56 41.109375 55.140625 
Q 45.0625 54.296875 48.78125 52.59375 
z
" id="DejaVuSans-99"/>
     <path d="M 54.890625 33.015625 
L 54.890625 0 
L 45.90625 0 
L 45.90625 32.71875 
Q 45.90625 40.484375 42.875 44.328125 
Q 39.84375 48.1875 33.796875 48.1875 
Q 26.515625 48.1875 22.3125 43.546875 
Q 18.109375 38.921875 18.109375 30.90625 
L 18.109375 0 
L 9.078125 0 
L 9.078125 54.6875 
L 18.109375 54.6875 
L 18.109375 46.1875 
Q 21.34375 51.125 25.703125 53.5625 
Q 30.078125 56 35.796875 56 
Q 45.21875 56 50.046875 50.171875 
Q 54.890625 44.34375 54.890625 33.015625 
z
" id="DejaVuSans-110"/>
     <path d="M -0.296875 72.90625 
L 61.375 72.90625 
L 61.375 64.59375 
L 35.5 64.59375 
L 35.5 0 
L 25.59375 0 
L 25.59375 64.59375 
L -0.296875 64.59375 
z
" id="DejaVuSans-84"/>
     <path d="M 19.671875 64.796875 
L 19.671875 37.40625 
L 32.078125 37.40625 
Q 38.96875 37.40625 42.71875 40.96875 
Q 46.484375 44.53125 46.484375 51.125 
Q 46.484375 57.671875 42.71875 61.234375 
Q 38.96875 64.796875 32.078125 64.796875 
z
M 9.8125 72.90625 
L 32.078125 72.90625 
Q 44.34375 72.90625 50.609375 67.359375 
Q 56.890625 61.8125 56.890625 51.125 
Q 56.890625 40.328125 50.609375 34.8125 
Q 44.34375 29.296875 32.078125 29.296875 
L 19.671875 29.296875 
L 19.671875 0 
L 9.8125 0 
z
" id="DejaVuSans-80"/>
     <path d="M 28.609375 0 
L 0.78125 72.90625 
L 11.078125 72.90625 
L 34.1875 11.53125 
L 57.328125 72.90625 
L 67.578125 72.90625 
L 39.796875 0 
z
" id="DejaVuSans-86"/>
     <path d="M 30.609375 48.390625 
Q 23.390625 48.390625 19.1875 42.75 
Q 14.984375 37.109375 14.984375 27.296875 
Q 14.984375 17.484375 19.15625 11.84375 
Q 23.34375 6.203125 30.609375 6.203125 
Q 37.796875 6.203125 41.984375 11.859375 
Q 46.1875 17.53125 46.1875 27.296875 
Q 46.1875 37.015625 41.984375 42.703125 
Q 37.796875 48.390625 30.609375 48.390625 
z
M 30.609375 56 
Q 42.328125 56 49.015625 48.375 
Q 55.71875 40.765625 55.71875 27.296875 
Q 55.71875 13.875 49.015625 6.21875 
Q 42.328125 -1.421875 30.609375 -1.421875 
Q 18.84375 -1.421875 12.171875 6.21875 
Q 5.515625 13.875 5.515625 27.296875 
Q 5.515625 40.765625 12.171875 48.375 
Q 18.84375 56 30.609375 56 
z
" id="DejaVuSans-111"/>
     <path d="M 50.984375 -16.609375 
L 50.984375 -23.578125 
L -0.984375 -23.578125 
L -0.984375 -16.609375 
z
" id="DejaVuSans-95"/>
    </defs>
    <g transform="translate(130.798125 35.472)scale(0.12 -0.12)">
     <use xlink:href="#DejaVuSans-83"/>
     <use x="63.476562" xlink:href="#DejaVuSans-99"/>
     <use x="118.457031" xlink:href="#DejaVuSans-97"/>
     <use x="179.736328" xlink:href="#DejaVuSans-110"/>
     <use x="243.115234" xlink:href="#DejaVuSans-84"/>
     <use x="289.449219" xlink:href="#DejaVuSans-114"/>
     <use x="330.5625" xlink:href="#DejaVuSans-97"/>
     <use x="391.841797" xlink:href="#DejaVuSans-110"/>
     <use x="455.220703" xlink:href="#DejaVuSans-115"/>
     <use x="507.320312" xlink:href="#DejaVuSans-32"/>
     <use x="539.107422" xlink:href="#DejaVuSans-51"/>
     <use x="602.730469" xlink:href="#DejaVuSans-80"/>
     <use x="663.033203" xlink:href="#DejaVuSans-86"/>
     <use x="731.441406" xlink:href="#DejaVuSans-32"/>
     <use x="763.228516" xlink:href="#DejaVuSans-111"/>
     <use x="824.410156" xlink:href="#DejaVuSans-110"/>
     <use x="887.789062" xlink:href="#DejaVuSans-32"/>
     <use x="919.576172" xlink:href="#DejaVuSans-112"/>
     <use x="983.052734" xlink:href="#DejaVuSans-114"/>
     <use x="1021.916016" xlink:href="#DejaVuSans-101"/>
     <use x="1083.439453" xlink:href="#DejaVuSans-95"/>
     <use x="1133.439453" xlink:href="#DejaVuSans-116"/>
     <use x="1172.648438" xlink:href="#DejaVuSans-114"/>
     <use x="1213.761719" xlink:href="#DejaVuSans-97"/>
     <use x="1275.041016" xlink:href="#DejaVuSans-110"/>
     <use x="1338.419922" xlink:href="#DejaVuSans-115"/>
     <use x="1390.519531" xlink:href="#DejaVuSans-112"/>
     <use x="1453.996094" xlink:href="#DejaVuSans-111"/>
     <use x="1515.177734" xlink:href="#DejaVuSans-115"/>
     <use x="1567.277344" xlink:href="#DejaVuSans-101"/>
     <use x="1628.800781" xlink:href="#DejaVuSans-53"/>
     <use x="1692.423828" xlink:href="#DejaVuSans-48"/>
    </g>
   </g>
   <g id="legend_1">
    <g id="patch_7">
     <path d="M 313.152813 302.584 
L 407.72 302.584 
Q 409.72 302.584 409.72 300.584 
L 409.72 257.2715 
Q 409.72 255.2715 407.72 255.2715 
L 313.152813 255.2715 
Q 311.152813 255.2715 311.152813 257.2715 
L 311.152813 300.584 
Q 311.152813 302.584 313.152813 302.584 
z
" style="fill:#ffffff;opacity:0.8;stroke:#cccccc;stroke-linejoin:miter;"/>
    </g>
    <g id="line2d_58">
     <path d="M 315.152813 263.369937 
L 335.152813 263.369937 
" style="fill:none;stroke:#0000ff;stroke-dasharray:1.5,2.475;stroke-dashoffset:0;stroke-width:1.5;"/>
    </g>
    <g id="line2d_59">
     <g>
      <use style="fill:#0000ff;stroke:#0000ff;" x="325.152813" xlink:href="#m5921b18d9f" y="263.369937"/>
     </g>
    </g>
    <g id="text_31">
     <!-- transpose -->
     <g transform="translate(343.152813 266.869937)scale(0.1 -0.1)">
      <use xlink:href="#DejaVuSans-116"/>
      <use x="39.208984" xlink:href="#DejaVuSans-114"/>
      <use x="80.322266" xlink:href="#DejaVuSans-97"/>
      <use x="141.601562" xlink:href="#DejaVuSans-110"/>
      <use x="204.980469" xlink:href="#DejaVuSans-115"/>
      <use x="257.080078" xlink:href="#DejaVuSans-112"/>
      <use x="320.556641" xlink:href="#DejaVuSans-111"/>
      <use x="381.738281" xlink:href="#DejaVuSans-115"/>
      <use x="433.837891" xlink:href="#DejaVuSans-101"/>
     </g>
    </g>
    <g id="line2d_60">
     <path d="M 315.152813 278.048063 
L 335.152813 278.048063 
" style="fill:none;stroke:#ff0000;stroke-dasharray:1.5,2.475;stroke-dashoffset:0;stroke-width:1.5;"/>
    </g>
    <g id="line2d_61">
     <g>
      <use style="fill:#ff0000;stroke:#ff0000;" x="325.152813" xlink:href="#m8a78e97785" y="278.048063"/>
     </g>
    </g>
    <g id="text_32">
     <!-- transpose_tr -->
     <g transform="translate(343.152813 281.548063)scale(0.1 -0.1)">
      <use xlink:href="#DejaVuSans-116"/>
      <use x="39.208984" xlink:href="#DejaVuSans-114"/>
      <use x="80.322266" xlink:href="#DejaVuSans-97"/>
      <use x="141.601562" xlink:href="#DejaVuSans-110"/>
      <use x="204.980469" xlink:href="#DejaVuSans-115"/>
      <use x="257.080078" xlink:href="#DejaVuSans-112"/>
      <use x="320.556641" xlink:href="#DejaVuSans-111"/>
      <use x="381.738281" xlink:href="#DejaVuSans-115"/>
      <use x="433.837891" xlink:href="#DejaVuSans-101"/>
      <use x="495.361328" xlink:href="#DejaVuSans-95"/>
      <use x="545.361328" xlink:href="#DejaVuSans-116"/>
      <use x="584.570312" xlink:href="#DejaVuSans-114"/>
     </g>
    </g>
    <g id="line2d_62">
     <path d="M 315.152813 293.004312 
L 335.152813 293.004312 
" style="fill:none;stroke:#008000;stroke-dasharray:1.5,2.475;stroke-dashoffset:0;stroke-width:1.5;"/>
    </g>
    <g id="line2d_63">
     <g>
      <use style="fill:#008000;stroke:#008000;" x="325.152813" xlink:href="#m0c245c00ed" y="293.004312"/>
     </g>
    </g>
    <g id="text_33">
     <!-- mean -->
     <defs>
      <path d="M 52 44.1875 
Q 55.375 50.25 60.0625 53.125 
Q 64.75 56 71.09375 56 
Q 79.640625 56 84.28125 50.015625 
Q 88.921875 44.046875 88.921875 33.015625 
L 88.921875 0 
L 79.890625 0 
L 79.890625 32.71875 
Q 79.890625 40.578125 77.09375 44.375 
Q 74.3125 48.1875 68.609375 48.1875 
Q 61.625 48.1875 57.5625 43.546875 
Q 53.515625 38.921875 53.515625 30.90625 
L 53.515625 0 
L 44.484375 0 
L 44.484375 32.71875 
Q 44.484375 40.625 41.703125 44.40625 
Q 38.921875 48.1875 33.109375 48.1875 
Q 26.21875 48.1875 22.15625 43.53125 
Q 18.109375 38.875 18.109375 30.90625 
L 18.109375 0 
L 9.078125 0 
L 9.078125 54.6875 
L 18.109375 54.6875 
L 18.109375 46.1875 
Q 21.1875 51.21875 25.484375 53.609375 
Q 29.78125 56 35.6875 56 
Q 41.65625 56 45.828125 52.96875 
Q 50 49.953125 52 44.1875 
z
" id="DejaVuSans-109"/>
     </defs>
     <g transform="translate(343.152813 296.504312)scale(0.1 -0.1)">
      <use xlink:href="#DejaVuSans-109"/>
      <use x="97.412109" xlink:href="#DejaVuSans-101"/>
      <use x="158.935547" xlink:href="#DejaVuSans-97"/>
      <use x="220.214844" xlink:href="#DejaVuSans-110"/>
     </g>
    </g>
   </g>
  </g>
 </g>
 <defs>
  <clipPath id="p9946d6acb0">
   <rect height="266.112" width="357.12" x="57.6" y="41.472"/>
  </clipPath>
 </defs>
</svg>
