<?xml version="1.0" encoding="utf-8" standalone="no"?>
<!DOCTYPE svg PUBLIC "-//W3C//DTD SVG 1.1//EN"
  "http://www.w3.org/Graphics/SVG/1.1/DTD/svg11.dtd">
<!-- Created with matplotlib (https://matplotlib.org/) -->
<svg height="345.6pt" version="1.1" viewBox="0 0 460.8 345.6" width="460.8pt" xmlns="http://www.w3.org/2000/svg" xmlns:xlink="http://www.w3.org/1999/xlink">
 <defs>
  <style type="text/css">
*{stroke-linecap:butt;stroke-linejoin:round;}
  </style>
 </defs>
 <g id="figure_1">
  <g id="patch_1">
   <path d="M 0 345.6 
L 460.8 345.6 
L 460.8 0 
L 0 0 
z
" style="fill:#ffffff;"/>
  </g>
  <g id="axes_1">
   <g id="patch_2">
    <path d="M 57.6 307.584 
L 414.72 307.584 
L 414.72 41.472 
L 57.6 41.472 
z
" style="fill:#ffffff;"/>
   </g>
   <g id="matplotlib.axis_1">
    <g id="xtick_1">
     <g id="line2d_1">
      <path clip-path="url(#pb9359d7408)" d="M 61.612584 307.584 
L 61.612584 41.472 
" style="fill:none;stroke:#b0b0b0;stroke-dasharray:5.12,1.28,0.8,1.28;stroke-dashoffset:0;stroke-width:0.8;"/>
     </g>
     <g id="line2d_2">
      <defs>
       <path d="M 0 0 
L 0 3.5 
" id="m4519a44049" style="stroke:#000000;stroke-width:0.8;"/>
      </defs>
      <g>
       <use style="stroke:#000000;stroke-width:0.8;" x="61.612584" xlink:href="#m4519a44049" y="307.584"/>
      </g>
     </g>
     <g id="text_1">
      <!-- 1 -->
      <defs>
       <path d="M 12.40625 8.296875 
L 28.515625 8.296875 
L 28.515625 63.921875 
L 10.984375 60.40625 
L 10.984375 69.390625 
L 28.421875 72.90625 
L 38.28125 72.90625 
L 38.28125 8.296875 
L 54.390625 8.296875 
L 54.390625 0 
L 12.40625 0 
z
" id="DejaVuSans-49"/>
      </defs>
      <g transform="translate(58.431334 322.182437)scale(0.1 -0.1)">
       <use xlink:href="#DejaVuSans-49"/>
      </g>
     </g>
    </g>
    <g id="xtick_2">
     <g id="line2d_3">
      <path clip-path="url(#pb9359d7408)" d="M 73.650337 307.584 
L 73.650337 41.472 
" style="fill:none;stroke:#b0b0b0;stroke-dasharray:5.12,1.28,0.8,1.28;stroke-dashoffset:0;stroke-width:0.8;"/>
     </g>
     <g id="line2d_4">
      <g>
       <use style="stroke:#000000;stroke-width:0.8;" x="73.650337" xlink:href="#m4519a44049" y="307.584"/>
      </g>
     </g>
     <g id="text_2">
      <!-- 4 -->
      <defs>
       <path d="M 37.796875 64.3125 
L 12.890625 25.390625 
L 37.796875 25.390625 
z
M 35.203125 72.90625 
L 47.609375 72.90625 
L 47.609375 25.390625 
L 58.015625 25.390625 
L 58.015625 17.1875 
L 47.609375 17.1875 
L 47.609375 0 
L 37.796875 0 
L 37.796875 17.1875 
L 4.890625 17.1875 
L 4.890625 26.703125 
z
" id="DejaVuSans-52"/>
      </defs>
      <g transform="translate(70.469087 322.182437)scale(0.1 -0.1)">
       <use xlink:href="#DejaVuSans-52"/>
      </g>
     </g>
    </g>
    <g id="xtick_3">
     <g id="line2d_5">
      <path clip-path="url(#pb9359d7408)" d="M 89.700674 307.584 
L 89.700674 41.472 
" style="fill:none;stroke:#b0b0b0;stroke-dasharray:5.12,1.28,0.8,1.28;stroke-dashoffset:0;stroke-width:0.8;"/>
     </g>
     <g id="line2d_6">
      <g>
       <use style="stroke:#000000;stroke-width:0.8;" x="89.700674" xlink:href="#m4519a44049" y="307.584"/>
      </g>
     </g>
     <g id="text_3">
      <!-- 8 -->
      <defs>
       <path d="M 31.78125 34.625 
Q 24.75 34.625 20.71875 30.859375 
Q 16.703125 27.09375 16.703125 20.515625 
Q 16.703125 13.921875 20.71875 10.15625 
Q 24.75 6.390625 31.78125 6.390625 
Q 38.8125 6.390625 42.859375 10.171875 
Q 46.921875 13.96875 46.921875 20.515625 
Q 46.921875 27.09375 42.890625 30.859375 
Q 38.875 34.625 31.78125 34.625 
z
M 21.921875 38.8125 
Q 15.578125 40.375 12.03125 44.71875 
Q 8.5 49.078125 8.5 55.328125 
Q 8.5 64.0625 14.71875 69.140625 
Q 20.953125 74.21875 31.78125 74.21875 
Q 42.671875 74.21875 48.875 69.140625 
Q 55.078125 64.0625 55.078125 55.328125 
Q 55.078125 49.078125 51.53125 44.71875 
Q 48 40.375 41.703125 38.8125 
Q 48.828125 37.15625 52.796875 32.3125 
Q 56.78125 27.484375 56.78125 20.515625 
Q 56.78125 9.90625 50.3125 4.234375 
Q 43.84375 -1.421875 31.78125 -1.421875 
Q 19.734375 -1.421875 13.25 4.234375 
Q 6.78125 9.90625 6.78125 20.515625 
Q 6.78125 27.484375 10.78125 32.3125 
Q 14.796875 37.15625 21.921875 38.8125 
z
M 18.3125 54.390625 
Q 18.3125 48.734375 21.84375 45.5625 
Q 25.390625 42.390625 31.78125 42.390625 
Q 38.140625 42.390625 41.71875 45.5625 
Q 45.3125 48.734375 45.3125 54.390625 
Q 45.3125 60.0625 41.71875 63.234375 
Q 38.140625 66.40625 31.78125 66.40625 
Q 25.390625 66.40625 21.84375 63.234375 
Q 18.3125 60.0625 18.3125 54.390625 
z
" id="DejaVuSans-56"/>
      </defs>
      <g transform="translate(86.519424 322.182437)scale(0.1 -0.1)">
       <use xlink:href="#DejaVuSans-56"/>
      </g>
     </g>
    </g>
    <g id="xtick_4">
     <g id="line2d_7">
      <path clip-path="url(#pb9359d7408)" d="M 105.751011 307.584 
L 105.751011 41.472 
" style="fill:none;stroke:#b0b0b0;stroke-dasharray:5.12,1.28,0.8,1.28;stroke-dashoffset:0;stroke-width:0.8;"/>
     </g>
     <g id="line2d_8">
      <g>
       <use style="stroke:#000000;stroke-width:0.8;" x="105.751011" xlink:href="#m4519a44049" y="307.584"/>
      </g>
     </g>
     <g id="text_4">
      <!-- 12 -->
      <defs>
       <path d="M 19.1875 8.296875 
L 53.609375 8.296875 
L 53.609375 0 
L 7.328125 0 
L 7.328125 8.296875 
Q 12.9375 14.109375 22.625 23.890625 
Q 32.328125 33.6875 34.8125 36.53125 
Q 39.546875 41.84375 41.421875 45.53125 
Q 43.3125 49.21875 43.3125 52.78125 
Q 43.3125 58.59375 39.234375 62.25 
Q 35.15625 65.921875 28.609375 65.921875 
Q 23.96875 65.921875 18.8125 64.3125 
Q 13.671875 62.703125 7.8125 59.421875 
L 7.8125 69.390625 
Q 13.765625 71.78125 18.9375 73 
Q 24.125 74.21875 28.421875 74.21875 
Q 39.75 74.21875 46.484375 68.546875 
Q 53.21875 62.890625 53.21875 53.421875 
Q 53.21875 48.921875 51.53125 44.890625 
Q 49.859375 40.875 45.40625 35.40625 
Q 44.1875 33.984375 37.640625 27.21875 
Q 31.109375 20.453125 19.1875 8.296875 
z
" id="DejaVuSans-50"/>
      </defs>
      <g transform="translate(99.388511 322.182437)scale(0.1 -0.1)">
       <use xlink:href="#DejaVuSans-49"/>
       <use x="63.623047" xlink:href="#DejaVuSans-50"/>
      </g>
     </g>
    </g>
    <g id="xtick_5">
     <g id="line2d_9">
      <path clip-path="url(#pb9359d7408)" d="M 121.801348 307.584 
L 121.801348 41.472 
" style="fill:none;stroke:#b0b0b0;stroke-dasharray:5.12,1.28,0.8,1.28;stroke-dashoffset:0;stroke-width:0.8;"/>
     </g>
     <g id="line2d_10">
      <g>
       <use style="stroke:#000000;stroke-width:0.8;" x="121.801348" xlink:href="#m4519a44049" y="307.584"/>
      </g>
     </g>
     <g id="text_5">
      <!-- 16 -->
      <defs>
       <path d="M 33.015625 40.375 
Q 26.375 40.375 22.484375 35.828125 
Q 18.609375 31.296875 18.609375 23.390625 
Q 18.609375 15.53125 22.484375 10.953125 
Q 26.375 6.390625 33.015625 6.390625 
Q 39.65625 6.390625 43.53125 10.953125 
Q 47.40625 15.53125 47.40625 23.390625 
Q 47.40625 31.296875 43.53125 35.828125 
Q 39.65625 40.375 33.015625 40.375 
z
M 52.59375 71.296875 
L 52.59375 62.3125 
Q 48.875 64.0625 45.09375 64.984375 
Q 41.3125 65.921875 37.59375 65.921875 
Q 27.828125 65.921875 22.671875 59.328125 
Q 17.53125 52.734375 16.796875 39.40625 
Q 19.671875 43.65625 24.015625 45.921875 
Q 28.375 48.1875 33.59375 48.1875 
Q 44.578125 48.1875 50.953125 41.515625 
Q 57.328125 34.859375 57.328125 23.390625 
Q 57.328125 12.15625 50.6875 5.359375 
Q 44.046875 -1.421875 33.015625 -1.421875 
Q 20.359375 -1.421875 13.671875 8.265625 
Q 6.984375 17.96875 6.984375 36.375 
Q 6.984375 53.65625 15.1875 63.9375 
Q 23.390625 74.21875 37.203125 74.21875 
Q 40.921875 74.21875 44.703125 73.484375 
Q 48.484375 72.75 52.59375 71.296875 
z
" id="DejaVuSans-54"/>
      </defs>
      <g transform="translate(115.438848 322.182437)scale(0.1 -0.1)">
       <use xlink:href="#DejaVuSans-49"/>
       <use x="63.623047" xlink:href="#DejaVuSans-54"/>
      </g>
     </g>
    </g>
    <g id="xtick_6">
     <g id="line2d_11">
      <path clip-path="url(#pb9359d7408)" d="M 137.851685 307.584 
L 137.851685 41.472 
" style="fill:none;stroke:#b0b0b0;stroke-dasharray:5.12,1.28,0.8,1.28;stroke-dashoffset:0;stroke-width:0.8;"/>
     </g>
     <g id="line2d_12">
      <g>
       <use style="stroke:#000000;stroke-width:0.8;" x="137.851685" xlink:href="#m4519a44049" y="307.584"/>
      </g>
     </g>
     <g id="text_6">
      <!-- 20 -->
      <defs>
       <path d="M 31.78125 66.40625 
Q 24.171875 66.40625 20.328125 58.90625 
Q 16.5 51.421875 16.5 36.375 
Q 16.5 21.390625 20.328125 13.890625 
Q 24.171875 6.390625 31.78125 6.390625 
Q 39.453125 6.390625 43.28125 13.890625 
Q 47.125 21.390625 47.125 36.375 
Q 47.125 51.421875 43.28125 58.90625 
Q 39.453125 66.40625 31.78125 66.40625 
z
M 31.78125 74.21875 
Q 44.046875 74.21875 50.515625 64.515625 
Q 56.984375 54.828125 56.984375 36.375 
Q 56.984375 17.96875 50.515625 8.265625 
Q 44.046875 -1.421875 31.78125 -1.421875 
Q 19.53125 -1.421875 13.0625 8.265625 
Q 6.59375 17.96875 6.59375 36.375 
Q 6.59375 54.828125 13.0625 64.515625 
Q 19.53125 74.21875 31.78125 74.21875 
z
" id="DejaVuSans-48"/>
      </defs>
      <g transform="translate(131.489185 322.182437)scale(0.1 -0.1)">
       <use xlink:href="#DejaVuSans-50"/>
       <use x="63.623047" xlink:href="#DejaVuSans-48"/>
      </g>
     </g>
    </g>
    <g id="xtick_7">
     <g id="line2d_13">
      <path clip-path="url(#pb9359d7408)" d="M 153.902022 307.584 
L 153.902022 41.472 
" style="fill:none;stroke:#b0b0b0;stroke-dasharray:5.12,1.28,0.8,1.28;stroke-dashoffset:0;stroke-width:0.8;"/>
     </g>
     <g id="line2d_14">
      <g>
       <use style="stroke:#000000;stroke-width:0.8;" x="153.902022" xlink:href="#m4519a44049" y="307.584"/>
      </g>
     </g>
     <g id="text_7">
      <!-- 24 -->
      <g transform="translate(147.539522 322.182437)scale(0.1 -0.1)">
       <use xlink:href="#DejaVuSans-50"/>
       <use x="63.623047" xlink:href="#DejaVuSans-52"/>
      </g>
     </g>
    </g>
    <g id="xtick_8">
     <g id="line2d_15">
      <path clip-path="url(#pb9359d7408)" d="M 169.95236 307.584 
L 169.95236 41.472 
" style="fill:none;stroke:#b0b0b0;stroke-dasharray:5.12,1.28,0.8,1.28;stroke-dashoffset:0;stroke-width:0.8;"/>
     </g>
     <g id="line2d_16">
      <g>
       <use style="stroke:#000000;stroke-width:0.8;" x="169.95236" xlink:href="#m4519a44049" y="307.584"/>
      </g>
     </g>
     <g id="text_8">
      <!-- 28 -->
      <g transform="translate(163.58986 322.182437)scale(0.1 -0.1)">
       <use xlink:href="#DejaVuSans-50"/>
       <use x="63.623047" xlink:href="#DejaVuSans-56"/>
      </g>
     </g>
    </g>
    <g id="xtick_9">
     <g id="line2d_17">
      <path clip-path="url(#pb9359d7408)" d="M 186.002697 307.584 
L 186.002697 41.472 
" style="fill:none;stroke:#b0b0b0;stroke-dasharray:5.12,1.28,0.8,1.28;stroke-dashoffset:0;stroke-width:0.8;"/>
     </g>
     <g id="line2d_18">
      <g>
       <use style="stroke:#000000;stroke-width:0.8;" x="186.002697" xlink:href="#m4519a44049" y="307.584"/>
      </g>
     </g>
     <g id="text_9">
      <!-- 32 -->
      <defs>
       <path d="M 40.578125 39.3125 
Q 47.65625 37.796875 51.625 33 
Q 55.609375 28.21875 55.609375 21.1875 
Q 55.609375 10.40625 48.1875 4.484375 
Q 40.765625 -1.421875 27.09375 -1.421875 
Q 22.515625 -1.421875 17.65625 -0.515625 
Q 12.796875 0.390625 7.625 2.203125 
L 7.625 11.71875 
Q 11.71875 9.328125 16.59375 8.109375 
Q 21.484375 6.890625 26.8125 6.890625 
Q 36.078125 6.890625 40.9375 10.546875 
Q 45.796875 14.203125 45.796875 21.1875 
Q 45.796875 27.640625 41.28125 31.265625 
Q 36.765625 34.90625 28.71875 34.90625 
L 20.21875 34.90625 
L 20.21875 43.015625 
L 29.109375 43.015625 
Q 36.375 43.015625 40.234375 45.921875 
Q 44.09375 48.828125 44.09375 54.296875 
Q 44.09375 59.90625 40.109375 62.90625 
Q 36.140625 65.921875 28.71875 65.921875 
Q 24.65625 65.921875 20.015625 65.03125 
Q 15.375 64.15625 9.8125 62.3125 
L 9.8125 71.09375 
Q 15.4375 72.65625 20.34375 73.4375 
Q 25.25 74.21875 29.59375 74.21875 
Q 40.828125 74.21875 47.359375 69.109375 
Q 53.90625 64.015625 53.90625 55.328125 
Q 53.90625 49.265625 50.4375 45.09375 
Q 46.96875 40.921875 40.578125 39.3125 
z
" id="DejaVuSans-51"/>
      </defs>
      <g transform="translate(179.640197 322.182437)scale(0.1 -0.1)">
       <use xlink:href="#DejaVuSans-51"/>
       <use x="63.623047" xlink:href="#DejaVuSans-50"/>
      </g>
     </g>
    </g>
    <g id="xtick_10">
     <g id="line2d_19">
      <path clip-path="url(#pb9359d7408)" d="M 202.053034 307.584 
L 202.053034 41.472 
" style="fill:none;stroke:#b0b0b0;stroke-dasharray:5.12,1.28,0.8,1.28;stroke-dashoffset:0;stroke-width:0.8;"/>
     </g>
     <g id="line2d_20">
      <g>
       <use style="stroke:#000000;stroke-width:0.8;" x="202.053034" xlink:href="#m4519a44049" y="307.584"/>
      </g>
     </g>
     <g id="text_10">
      <!-- 36 -->
      <g transform="translate(195.690534 322.182437)scale(0.1 -0.1)">
       <use xlink:href="#DejaVuSans-51"/>
       <use x="63.623047" xlink:href="#DejaVuSans-54"/>
      </g>
     </g>
    </g>
    <g id="xtick_11">
     <g id="line2d_21">
      <path clip-path="url(#pb9359d7408)" d="M 218.103371 307.584 
L 218.103371 41.472 
" style="fill:none;stroke:#b0b0b0;stroke-dasharray:5.12,1.28,0.8,1.28;stroke-dashoffset:0;stroke-width:0.8;"/>
     </g>
     <g id="line2d_22">
      <g>
       <use style="stroke:#000000;stroke-width:0.8;" x="218.103371" xlink:href="#m4519a44049" y="307.584"/>
      </g>
     </g>
     <g id="text_11">
      <!-- 40 -->
      <g transform="translate(211.740871 322.182437)scale(0.1 -0.1)">
       <use xlink:href="#DejaVuSans-52"/>
       <use x="63.623047" xlink:href="#DejaVuSans-48"/>
      </g>
     </g>
    </g>
    <g id="xtick_12">
     <g id="line2d_23">
      <path clip-path="url(#pb9359d7408)" d="M 234.153708 307.584 
L 234.153708 41.472 
" style="fill:none;stroke:#b0b0b0;stroke-dasharray:5.12,1.28,0.8,1.28;stroke-dashoffset:0;stroke-width:0.8;"/>
     </g>
     <g id="line2d_24">
      <g>
       <use style="stroke:#000000;stroke-width:0.8;" x="234.153708" xlink:href="#m4519a44049" y="307.584"/>
      </g>
     </g>
     <g id="text_12">
      <!-- 44 -->
      <g transform="translate(227.791208 322.182437)scale(0.1 -0.1)">
       <use xlink:href="#DejaVuSans-52"/>
       <use x="63.623047" xlink:href="#DejaVuSans-52"/>
      </g>
     </g>
    </g>
    <g id="xtick_13">
     <g id="line2d_25">
      <path clip-path="url(#pb9359d7408)" d="M 250.204045 307.584 
L 250.204045 41.472 
" style="fill:none;stroke:#b0b0b0;stroke-dasharray:5.12,1.28,0.8,1.28;stroke-dashoffset:0;stroke-width:0.8;"/>
     </g>
     <g id="line2d_26">
      <g>
       <use style="stroke:#000000;stroke-width:0.8;" x="250.204045" xlink:href="#m4519a44049" y="307.584"/>
      </g>
     </g>
     <g id="text_13">
      <!-- 48 -->
      <g transform="translate(243.841545 322.182437)scale(0.1 -0.1)">
       <use xlink:href="#DejaVuSans-52"/>
       <use x="63.623047" xlink:href="#DejaVuSans-56"/>
      </g>
     </g>
    </g>
    <g id="xtick_14">
     <g id="line2d_27">
      <path clip-path="url(#pb9359d7408)" d="M 266.254382 307.584 
L 266.254382 41.472 
" style="fill:none;stroke:#b0b0b0;stroke-dasharray:5.12,1.28,0.8,1.28;stroke-dashoffset:0;stroke-width:0.8;"/>
     </g>
     <g id="line2d_28">
      <g>
       <use style="stroke:#000000;stroke-width:0.8;" x="266.254382" xlink:href="#m4519a44049" y="307.584"/>
      </g>
     </g>
     <g id="text_14">
      <!-- 52 -->
      <defs>
       <path d="M 10.796875 72.90625 
L 49.515625 72.90625 
L 49.515625 64.59375 
L 19.828125 64.59375 
L 19.828125 46.734375 
Q 21.96875 47.46875 24.109375 47.828125 
Q 26.265625 48.1875 28.421875 48.1875 
Q 40.625 48.1875 47.75 41.5 
Q 54.890625 34.8125 54.890625 23.390625 
Q 54.890625 11.625 47.5625 5.09375 
Q 40.234375 -1.421875 26.90625 -1.421875 
Q 22.3125 -1.421875 17.546875 -0.640625 
Q 12.796875 0.140625 7.71875 1.703125 
L 7.71875 11.625 
Q 12.109375 9.234375 16.796875 8.0625 
Q 21.484375 6.890625 26.703125 6.890625 
Q 35.15625 6.890625 40.078125 11.328125 
Q 45.015625 15.765625 45.015625 23.390625 
Q 45.015625 31 40.078125 35.4375 
Q 35.15625 39.890625 26.703125 39.890625 
Q 22.75 39.890625 18.8125 39.015625 
Q 14.890625 38.140625 10.796875 36.28125 
z
" id="DejaVuSans-53"/>
      </defs>
      <g transform="translate(259.891882 322.182437)scale(0.1 -0.1)">
       <use xlink:href="#DejaVuSans-53"/>
       <use x="63.623047" xlink:href="#DejaVuSans-50"/>
      </g>
     </g>
    </g>
    <g id="xtick_15">
     <g id="line2d_29">
      <path clip-path="url(#pb9359d7408)" d="M 282.304719 307.584 
L 282.304719 41.472 
" style="fill:none;stroke:#b0b0b0;stroke-dasharray:5.12,1.28,0.8,1.28;stroke-dashoffset:0;stroke-width:0.8;"/>
     </g>
     <g id="line2d_30">
      <g>
       <use style="stroke:#000000;stroke-width:0.8;" x="282.304719" xlink:href="#m4519a44049" y="307.584"/>
      </g>
     </g>
     <g id="text_15">
      <!-- 56 -->
      <g transform="translate(275.942219 322.182437)scale(0.1 -0.1)">
       <use xlink:href="#DejaVuSans-53"/>
       <use x="63.623047" xlink:href="#DejaVuSans-54"/>
      </g>
     </g>
    </g>
    <g id="xtick_16">
     <g id="line2d_31">
      <path clip-path="url(#pb9359d7408)" d="M 298.355056 307.584 
L 298.355056 41.472 
" style="fill:none;stroke:#b0b0b0;stroke-dasharray:5.12,1.28,0.8,1.28;stroke-dashoffset:0;stroke-width:0.8;"/>
     </g>
     <g id="line2d_32">
      <g>
       <use style="stroke:#000000;stroke-width:0.8;" x="298.355056" xlink:href="#m4519a44049" y="307.584"/>
      </g>
     </g>
     <g id="text_16">
      <!-- 60 -->
      <g transform="translate(291.992556 322.182437)scale(0.1 -0.1)">
       <use xlink:href="#DejaVuSans-54"/>
       <use x="63.623047" xlink:href="#DejaVuSans-48"/>
      </g>
     </g>
    </g>
    <g id="xtick_17">
     <g id="line2d_33">
      <path clip-path="url(#pb9359d7408)" d="M 314.405393 307.584 
L 314.405393 41.472 
" style="fill:none;stroke:#b0b0b0;stroke-dasharray:5.12,1.28,0.8,1.28;stroke-dashoffset:0;stroke-width:0.8;"/>
     </g>
     <g id="line2d_34">
      <g>
       <use style="stroke:#000000;stroke-width:0.8;" x="314.405393" xlink:href="#m4519a44049" y="307.584"/>
      </g>
     </g>
     <g id="text_17">
      <!-- 64 -->
      <g transform="translate(308.042893 322.182437)scale(0.1 -0.1)">
       <use xlink:href="#DejaVuSans-54"/>
       <use x="63.623047" xlink:href="#DejaVuSans-52"/>
      </g>
     </g>
    </g>
    <g id="xtick_18">
     <g id="line2d_35">
      <path clip-path="url(#pb9359d7408)" d="M 330.45573 307.584 
L 330.45573 41.472 
" style="fill:none;stroke:#b0b0b0;stroke-dasharray:5.12,1.28,0.8,1.28;stroke-dashoffset:0;stroke-width:0.8;"/>
     </g>
     <g id="line2d_36">
      <g>
       <use style="stroke:#000000;stroke-width:0.8;" x="330.45573" xlink:href="#m4519a44049" y="307.584"/>
      </g>
     </g>
     <g id="text_18">
      <!-- 68 -->
      <g transform="translate(324.09323 322.182437)scale(0.1 -0.1)">
       <use xlink:href="#DejaVuSans-54"/>
       <use x="63.623047" xlink:href="#DejaVuSans-56"/>
      </g>
     </g>
    </g>
    <g id="xtick_19">
     <g id="line2d_37">
      <path clip-path="url(#pb9359d7408)" d="M 346.506067 307.584 
L 346.506067 41.472 
" style="fill:none;stroke:#b0b0b0;stroke-dasharray:5.12,1.28,0.8,1.28;stroke-dashoffset:0;stroke-width:0.8;"/>
     </g>
     <g id="line2d_38">
      <g>
       <use style="stroke:#000000;stroke-width:0.8;" x="346.506067" xlink:href="#m4519a44049" y="307.584"/>
      </g>
     </g>
     <g id="text_19">
      <!-- 72 -->
      <defs>
       <path d="M 8.203125 72.90625 
L 55.078125 72.90625 
L 55.078125 68.703125 
L 28.609375 0 
L 18.3125 0 
L 43.21875 64.59375 
L 8.203125 64.59375 
z
" id="DejaVuSans-55"/>
      </defs>
      <g transform="translate(340.143567 322.182437)scale(0.1 -0.1)">
       <use xlink:href="#DejaVuSans-55"/>
       <use x="63.623047" xlink:href="#DejaVuSans-50"/>
      </g>
     </g>
    </g>
    <g id="xtick_20">
     <g id="line2d_39">
      <path clip-path="url(#pb9359d7408)" d="M 362.556404 307.584 
L 362.556404 41.472 
" style="fill:none;stroke:#b0b0b0;stroke-dasharray:5.12,1.28,0.8,1.28;stroke-dashoffset:0;stroke-width:0.8;"/>
     </g>
     <g id="line2d_40">
      <g>
       <use style="stroke:#000000;stroke-width:0.8;" x="362.556404" xlink:href="#m4519a44049" y="307.584"/>
      </g>
     </g>
     <g id="text_20">
      <!-- 76 -->
      <g transform="translate(356.193904 322.182437)scale(0.1 -0.1)">
       <use xlink:href="#DejaVuSans-55"/>
       <use x="63.623047" xlink:href="#DejaVuSans-54"/>
      </g>
     </g>
    </g>
    <g id="xtick_21">
     <g id="line2d_41">
      <path clip-path="url(#pb9359d7408)" d="M 378.606742 307.584 
L 378.606742 41.472 
" style="fill:none;stroke:#b0b0b0;stroke-dasharray:5.12,1.28,0.8,1.28;stroke-dashoffset:0;stroke-width:0.8;"/>
     </g>
     <g id="line2d_42">
      <g>
       <use style="stroke:#000000;stroke-width:0.8;" x="378.606742" xlink:href="#m4519a44049" y="307.584"/>
      </g>
     </g>
     <g id="text_21">
      <!-- 80 -->
      <g transform="translate(372.244242 322.182437)scale(0.1 -0.1)">
       <use xlink:href="#DejaVuSans-56"/>
       <use x="63.623047" xlink:href="#DejaVuSans-48"/>
      </g>
     </g>
    </g>
    <g id="xtick_22">
     <g id="line2d_43">
      <path clip-path="url(#pb9359d7408)" d="M 394.657079 307.584 
L 394.657079 41.472 
" style="fill:none;stroke:#b0b0b0;stroke-dasharray:5.12,1.28,0.8,1.28;stroke-dashoffset:0;stroke-width:0.8;"/>
     </g>
     <g id="line2d_44">
      <g>
       <use style="stroke:#000000;stroke-width:0.8;" x="394.657079" xlink:href="#m4519a44049" y="307.584"/>
      </g>
     </g>
     <g id="text_22">
      <!-- 84 -->
      <g transform="translate(388.294579 322.182437)scale(0.1 -0.1)">
       <use xlink:href="#DejaVuSans-56"/>
       <use x="63.623047" xlink:href="#DejaVuSans-52"/>
      </g>
     </g>
    </g>
    <g id="xtick_23">
     <g id="line2d_45">
      <path clip-path="url(#pb9359d7408)" d="M 410.707416 307.584 
L 410.707416 41.472 
" style="fill:none;stroke:#b0b0b0;stroke-dasharray:5.12,1.28,0.8,1.28;stroke-dashoffset:0;stroke-width:0.8;"/>
     </g>
     <g id="line2d_46">
      <g>
       <use style="stroke:#000000;stroke-width:0.8;" x="410.707416" xlink:href="#m4519a44049" y="307.584"/>
      </g>
     </g>
     <g id="text_23">
      <!-- 88 -->
      <g transform="translate(404.344916 322.182437)scale(0.1 -0.1)">
       <use xlink:href="#DejaVuSans-56"/>
       <use x="63.623047" xlink:href="#DejaVuSans-56"/>
      </g>
     </g>
    </g>
    <g id="text_24">
     <!-- threads -->
     <defs>
      <path d="M 18.3125 70.21875 
L 18.3125 54.6875 
L 36.8125 54.6875 
L 36.8125 47.703125 
L 18.3125 47.703125 
L 18.3125 18.015625 
Q 18.3125 11.328125 20.140625 9.421875 
Q 21.96875 7.515625 27.59375 7.515625 
L 36.8125 7.515625 
L 36.8125 0 
L 27.59375 0 
Q 17.1875 0 13.234375 3.875 
Q 9.28125 7.765625 9.28125 18.015625 
L 9.28125 47.703125 
L 2.6875 47.703125 
L 2.6875 54.6875 
L 9.28125 54.6875 
L 9.28125 70.21875 
z
" id="DejaVuSans-116"/>
      <path d="M 54.890625 33.015625 
L 54.890625 0 
L 45.90625 0 
L 45.90625 32.71875 
Q 45.90625 40.484375 42.875 44.328125 
Q 39.84375 48.1875 33.796875 48.1875 
Q 26.515625 48.1875 22.3125 43.546875 
Q 18.109375 38.921875 18.109375 30.90625 
L 18.109375 0 
L 9.078125 0 
L 9.078125 75.984375 
L 18.109375 75.984375 
L 18.109375 46.1875 
Q 21.34375 51.125 25.703125 53.5625 
Q 30.078125 56 35.796875 56 
Q 45.21875 56 50.046875 50.171875 
Q 54.890625 44.34375 54.890625 33.015625 
z
" id="DejaVuSans-104"/>
      <path d="M 41.109375 46.296875 
Q 39.59375 47.171875 37.8125 47.578125 
Q 36.03125 48 33.890625 48 
Q 26.265625 48 22.1875 43.046875 
Q 18.109375 38.09375 18.109375 28.8125 
L 18.109375 0 
L 9.078125 0 
L 9.078125 54.6875 
L 18.109375 54.6875 
L 18.109375 46.1875 
Q 20.953125 51.171875 25.484375 53.578125 
Q 30.03125 56 36.53125 56 
Q 37.453125 56 38.578125 55.875 
Q 39.703125 55.765625 41.0625 55.515625 
z
" id="DejaVuSans-114"/>
      <path d="M 56.203125 29.59375 
L 56.203125 25.203125 
L 14.890625 25.203125 
Q 15.484375 15.921875 20.484375 11.0625 
Q 25.484375 6.203125 34.421875 6.203125 
Q 39.59375 6.203125 44.453125 7.46875 
Q 49.3125 8.734375 54.109375 11.28125 
L 54.109375 2.78125 
Q 49.265625 0.734375 44.1875 -0.34375 
Q 39.109375 -1.421875 33.890625 -1.421875 
Q 20.796875 -1.421875 13.15625 6.1875 
Q 5.515625 13.8125 5.515625 26.8125 
Q 5.515625 40.234375 12.765625 48.109375 
Q 20.015625 56 32.328125 56 
Q 43.359375 56 49.78125 48.890625 
Q 56.203125 41.796875 56.203125 29.59375 
z
M 47.21875 32.234375 
Q 47.125 39.59375 43.09375 43.984375 
Q 39.0625 48.390625 32.421875 48.390625 
Q 24.90625 48.390625 20.390625 44.140625 
Q 15.875 39.890625 15.1875 32.171875 
z
" id="DejaVuSans-101"/>
      <path d="M 34.28125 27.484375 
Q 23.390625 27.484375 19.1875 25 
Q 14.984375 22.515625 14.984375 16.5 
Q 14.984375 11.71875 18.140625 8.90625 
Q 21.296875 6.109375 26.703125 6.109375 
Q 34.1875 6.109375 38.703125 11.40625 
Q 43.21875 16.703125 43.21875 25.484375 
L 43.21875 27.484375 
z
M 52.203125 31.203125 
L 52.203125 0 
L 43.21875 0 
L 43.21875 8.296875 
Q 40.140625 3.328125 35.546875 0.953125 
Q 30.953125 -1.421875 24.3125 -1.421875 
Q 15.921875 -1.421875 10.953125 3.296875 
Q 6 8.015625 6 15.921875 
Q 6 25.140625 12.171875 29.828125 
Q 18.359375 34.515625 30.609375 34.515625 
L 43.21875 34.515625 
L 43.21875 35.40625 
Q 43.21875 41.609375 39.140625 45 
Q 35.0625 48.390625 27.6875 48.390625 
Q 23 48.390625 18.546875 47.265625 
Q 14.109375 46.140625 10.015625 43.890625 
L 10.015625 52.203125 
Q 14.9375 54.109375 19.578125 55.046875 
Q 24.21875 56 28.609375 56 
Q 40.484375 56 46.34375 49.84375 
Q 52.203125 43.703125 52.203125 31.203125 
z
" id="DejaVuSans-97"/>
      <path d="M 45.40625 46.390625 
L 45.40625 75.984375 
L 54.390625 75.984375 
L 54.390625 0 
L 45.40625 0 
L 45.40625 8.203125 
Q 42.578125 3.328125 38.25 0.953125 
Q 33.9375 -1.421875 27.875 -1.421875 
Q 17.96875 -1.421875 11.734375 6.484375 
Q 5.515625 14.40625 5.515625 27.296875 
Q 5.515625 40.1875 11.734375 48.09375 
Q 17.96875 56 27.875 56 
Q 33.9375 56 38.25 53.625 
Q 42.578125 51.265625 45.40625 46.390625 
z
M 14.796875 27.296875 
Q 14.796875 17.390625 18.875 11.75 
Q 22.953125 6.109375 30.078125 6.109375 
Q 37.203125 6.109375 41.296875 11.75 
Q 45.40625 17.390625 45.40625 27.296875 
Q 45.40625 37.203125 41.296875 42.84375 
Q 37.203125 48.484375 30.078125 48.484375 
Q 22.953125 48.484375 18.875 42.84375 
Q 14.796875 37.203125 14.796875 27.296875 
z
" id="DejaVuSans-100"/>
      <path d="M 44.28125 53.078125 
L 44.28125 44.578125 
Q 40.484375 46.53125 36.375 47.5 
Q 32.28125 48.484375 27.875 48.484375 
Q 21.1875 48.484375 17.84375 46.4375 
Q 14.5 44.390625 14.5 40.28125 
Q 14.5 37.15625 16.890625 35.375 
Q 19.28125 33.59375 26.515625 31.984375 
L 29.59375 31.296875 
Q 39.15625 29.25 43.1875 25.515625 
Q 47.21875 21.78125 47.21875 15.09375 
Q 47.21875 7.46875 41.1875 3.015625 
Q 35.15625 -1.421875 24.609375 -1.421875 
Q 20.21875 -1.421875 15.453125 -0.5625 
Q 10.6875 0.296875 5.421875 2 
L 5.421875 11.28125 
Q 10.40625 8.6875 15.234375 7.390625 
Q 20.0625 6.109375 24.8125 6.109375 
Q 31.15625 6.109375 34.5625 8.28125 
Q 37.984375 10.453125 37.984375 14.40625 
Q 37.984375 18.0625 35.515625 20.015625 
Q 33.0625 21.96875 24.703125 23.78125 
L 21.578125 24.515625 
Q 13.234375 26.265625 9.515625 29.90625 
Q 5.8125 33.546875 5.8125 39.890625 
Q 5.8125 47.609375 11.28125 51.796875 
Q 16.75 56 26.8125 56 
Q 31.78125 56 36.171875 55.265625 
Q 40.578125 54.546875 44.28125 53.078125 
z
" id="DejaVuSans-115"/>
     </defs>
     <g transform="translate(217.168594 335.860562)scale(0.1 -0.1)">
      <use xlink:href="#DejaVuSans-116"/>
      <use x="39.208984" xlink:href="#DejaVuSans-104"/>
      <use x="102.587891" xlink:href="#DejaVuSans-114"/>
      <use x="141.451172" xlink:href="#DejaVuSans-101"/>
      <use x="202.974609" xlink:href="#DejaVuSans-97"/>
      <use x="264.253906" xlink:href="#DejaVuSans-100"/>
      <use x="327.730469" xlink:href="#DejaVuSans-115"/>
     </g>
    </g>
   </g>
   <g id="matplotlib.axis_2">
    <g id="ytick_1">
     <g id="line2d_47">
      <path clip-path="url(#pb9359d7408)" d="M 57.6 282.511044 
L 414.72 282.511044 
" style="fill:none;stroke:#b0b0b0;stroke-dasharray:5.12,1.28,0.8,1.28;stroke-dashoffset:0;stroke-width:0.8;"/>
     </g>
     <g id="line2d_48">
      <defs>
       <path d="M 0 0 
L -3.5 0 
" id="m149ec27d03" style="stroke:#000000;stroke-width:0.8;"/>
      </defs>
      <g>
       <use style="stroke:#000000;stroke-width:0.8;" x="57.6" xlink:href="#m149ec27d03" y="282.511044"/>
      </g>
     </g>
     <g id="text_25">
      <!-- 0.025 -->
      <defs>
       <path d="M 10.6875 12.40625 
L 21 12.40625 
L 21 0 
L 10.6875 0 
z
" id="DejaVuSans-46"/>
      </defs>
      <g transform="translate(21.971875 286.310263)scale(0.1 -0.1)">
       <use xlink:href="#DejaVuSans-48"/>
       <use x="63.623047" xlink:href="#DejaVuSans-46"/>
       <use x="95.410156" xlink:href="#DejaVuSans-48"/>
       <use x="159.033203" xlink:href="#DejaVuSans-50"/>
       <use x="222.65625" xlink:href="#DejaVuSans-53"/>
      </g>
     </g>
    </g>
    <g id="ytick_2">
     <g id="line2d_49">
      <path clip-path="url(#pb9359d7408)" d="M 57.6 246.357094 
L 414.72 246.357094 
" style="fill:none;stroke:#b0b0b0;stroke-dasharray:5.12,1.28,0.8,1.28;stroke-dashoffset:0;stroke-width:0.8;"/>
     </g>
     <g id="line2d_50">
      <g>
       <use style="stroke:#000000;stroke-width:0.8;" x="57.6" xlink:href="#m149ec27d03" y="246.357094"/>
      </g>
     </g>
     <g id="text_26">
      <!-- 0.050 -->
      <g transform="translate(21.971875 250.156313)scale(0.1 -0.1)">
       <use xlink:href="#DejaVuSans-48"/>
       <use x="63.623047" xlink:href="#DejaVuSans-46"/>
       <use x="95.410156" xlink:href="#DejaVuSans-48"/>
       <use x="159.033203" xlink:href="#DejaVuSans-53"/>
       <use x="222.65625" xlink:href="#DejaVuSans-48"/>
      </g>
     </g>
    </g>
    <g id="ytick_3">
     <g id="line2d_51">
      <path clip-path="url(#pb9359d7408)" d="M 57.6 210.203144 
L 414.72 210.203144 
" style="fill:none;stroke:#b0b0b0;stroke-dasharray:5.12,1.28,0.8,1.28;stroke-dashoffset:0;stroke-width:0.8;"/>
     </g>
     <g id="line2d_52">
      <g>
       <use style="stroke:#000000;stroke-width:0.8;" x="57.6" xlink:href="#m149ec27d03" y="210.203144"/>
      </g>
     </g>
     <g id="text_27">
      <!-- 0.075 -->
      <g transform="translate(21.971875 214.002363)scale(0.1 -0.1)">
       <use xlink:href="#DejaVuSans-48"/>
       <use x="63.623047" xlink:href="#DejaVuSans-46"/>
       <use x="95.410156" xlink:href="#DejaVuSans-48"/>
       <use x="159.033203" xlink:href="#DejaVuSans-55"/>
       <use x="222.65625" xlink:href="#DejaVuSans-53"/>
      </g>
     </g>
    </g>
    <g id="ytick_4">
     <g id="line2d_53">
      <path clip-path="url(#pb9359d7408)" d="M 57.6 174.049194 
L 414.72 174.049194 
" style="fill:none;stroke:#b0b0b0;stroke-dasharray:5.12,1.28,0.8,1.28;stroke-dashoffset:0;stroke-width:0.8;"/>
     </g>
     <g id="line2d_54">
      <g>
       <use style="stroke:#000000;stroke-width:0.8;" x="57.6" xlink:href="#m149ec27d03" y="174.049194"/>
      </g>
     </g>
     <g id="text_28">
      <!-- 0.100 -->
      <g transform="translate(21.971875 177.848413)scale(0.1 -0.1)">
       <use xlink:href="#DejaVuSans-48"/>
       <use x="63.623047" xlink:href="#DejaVuSans-46"/>
       <use x="95.410156" xlink:href="#DejaVuSans-49"/>
       <use x="159.033203" xlink:href="#DejaVuSans-48"/>
       <use x="222.65625" xlink:href="#DejaVuSans-48"/>
      </g>
     </g>
    </g>
    <g id="ytick_5">
     <g id="line2d_55">
      <path clip-path="url(#pb9359d7408)" d="M 57.6 137.895244 
L 414.72 137.895244 
" style="fill:none;stroke:#b0b0b0;stroke-dasharray:5.12,1.28,0.8,1.28;stroke-dashoffset:0;stroke-width:0.8;"/>
     </g>
     <g id="line2d_56">
      <g>
       <use style="stroke:#000000;stroke-width:0.8;" x="57.6" xlink:href="#m149ec27d03" y="137.895244"/>
      </g>
     </g>
     <g id="text_29">
      <!-- 0.125 -->
      <g transform="translate(21.971875 141.694462)scale(0.1 -0.1)">
       <use xlink:href="#DejaVuSans-48"/>
       <use x="63.623047" xlink:href="#DejaVuSans-46"/>
       <use x="95.410156" xlink:href="#DejaVuSans-49"/>
       <use x="159.033203" xlink:href="#DejaVuSans-50"/>
       <use x="222.65625" xlink:href="#DejaVuSans-53"/>
      </g>
     </g>
    </g>
    <g id="ytick_6">
     <g id="line2d_57">
      <path clip-path="url(#pb9359d7408)" d="M 57.6 101.741293 
L 414.72 101.741293 
" style="fill:none;stroke:#b0b0b0;stroke-dasharray:5.12,1.28,0.8,1.28;stroke-dashoffset:0;stroke-width:0.8;"/>
     </g>
     <g id="line2d_58">
      <g>
       <use style="stroke:#000000;stroke-width:0.8;" x="57.6" xlink:href="#m149ec27d03" y="101.741293"/>
      </g>
     </g>
     <g id="text_30">
      <!-- 0.150 -->
      <g transform="translate(21.971875 105.540512)scale(0.1 -0.1)">
       <use xlink:href="#DejaVuSans-48"/>
       <use x="63.623047" xlink:href="#DejaVuSans-46"/>
       <use x="95.410156" xlink:href="#DejaVuSans-49"/>
       <use x="159.033203" xlink:href="#DejaVuSans-53"/>
       <use x="222.65625" xlink:href="#DejaVuSans-48"/>
      </g>
     </g>
    </g>
    <g id="ytick_7">
     <g id="line2d_59">
      <path clip-path="url(#pb9359d7408)" d="M 57.6 65.587343 
L 414.72 65.587343 
" style="fill:none;stroke:#b0b0b0;stroke-dasharray:5.12,1.28,0.8,1.28;stroke-dashoffset:0;stroke-width:0.8;"/>
     </g>
     <g id="line2d_60">
      <g>
       <use style="stroke:#000000;stroke-width:0.8;" x="57.6" xlink:href="#m149ec27d03" y="65.587343"/>
      </g>
     </g>
     <g id="text_31">
      <!-- 0.175 -->
      <g transform="translate(21.971875 69.386562)scale(0.1 -0.1)">
       <use xlink:href="#DejaVuSans-48"/>
       <use x="63.623047" xlink:href="#DejaVuSans-46"/>
       <use x="95.410156" xlink:href="#DejaVuSans-49"/>
       <use x="159.033203" xlink:href="#DejaVuSans-55"/>
       <use x="222.65625" xlink:href="#DejaVuSans-53"/>
      </g>
     </g>
    </g>
    <g id="text_32">
     <!-- duration (s) -->
     <defs>
      <path d="M 8.5 21.578125 
L 8.5 54.6875 
L 17.484375 54.6875 
L 17.484375 21.921875 
Q 17.484375 14.15625 20.5 10.265625 
Q 23.53125 6.390625 29.59375 6.390625 
Q 36.859375 6.390625 41.078125 11.03125 
Q 45.3125 15.671875 45.3125 23.6875 
L 45.3125 54.6875 
L 54.296875 54.6875 
L 54.296875 0 
L 45.3125 0 
L 45.3125 8.40625 
Q 42.046875 3.421875 37.71875 1 
Q 33.40625 -1.421875 27.6875 -1.421875 
Q 18.265625 -1.421875 13.375 4.4375 
Q 8.5 10.296875 8.5 21.578125 
z
M 31.109375 56 
z
" id="DejaVuSans-117"/>
      <path d="M 9.421875 54.6875 
L 18.40625 54.6875 
L 18.40625 0 
L 9.421875 0 
z
M 9.421875 75.984375 
L 18.40625 75.984375 
L 18.40625 64.59375 
L 9.421875 64.59375 
z
" id="DejaVuSans-105"/>
      <path d="M 30.609375 48.390625 
Q 23.390625 48.390625 19.1875 42.75 
Q 14.984375 37.109375 14.984375 27.296875 
Q 14.984375 17.484375 19.15625 11.84375 
Q 23.34375 6.203125 30.609375 6.203125 
Q 37.796875 6.203125 41.984375 11.859375 
Q 46.1875 17.53125 46.1875 27.296875 
Q 46.1875 37.015625 41.984375 42.703125 
Q 37.796875 48.390625 30.609375 48.390625 
z
M 30.609375 56 
Q 42.328125 56 49.015625 48.375 
Q 55.71875 40.765625 55.71875 27.296875 
Q 55.71875 13.875 49.015625 6.21875 
Q 42.328125 -1.421875 30.609375 -1.421875 
Q 18.84375 -1.421875 12.171875 6.21875 
Q 5.515625 13.875 5.515625 27.296875 
Q 5.515625 40.765625 12.171875 48.375 
Q 18.84375 56 30.609375 56 
z
" id="DejaVuSans-111"/>
      <path d="M 54.890625 33.015625 
L 54.890625 0 
L 45.90625 0 
L 45.90625 32.71875 
Q 45.90625 40.484375 42.875 44.328125 
Q 39.84375 48.1875 33.796875 48.1875 
Q 26.515625 48.1875 22.3125 43.546875 
Q 18.109375 38.921875 18.109375 30.90625 
L 18.109375 0 
L 9.078125 0 
L 9.078125 54.6875 
L 18.109375 54.6875 
L 18.109375 46.1875 
Q 21.34375 51.125 25.703125 53.5625 
Q 30.078125 56 35.796875 56 
Q 45.21875 56 50.046875 50.171875 
Q 54.890625 44.34375 54.890625 33.015625 
z
" id="DejaVuSans-110"/>
      <path id="DejaVuSans-32"/>
      <path d="M 31 75.875 
Q 24.46875 64.65625 21.28125 53.65625 
Q 18.109375 42.671875 18.109375 31.390625 
Q 18.109375 20.125 21.3125 9.0625 
Q 24.515625 -2 31 -13.1875 
L 23.1875 -13.1875 
Q 15.875 -1.703125 12.234375 9.375 
Q 8.59375 20.453125 8.59375 31.390625 
Q 8.59375 42.28125 12.203125 53.3125 
Q 15.828125 64.359375 23.1875 75.875 
z
" id="DejaVuSans-40"/>
      <path d="M 8.015625 75.875 
L 15.828125 75.875 
Q 23.140625 64.359375 26.78125 53.3125 
Q 30.421875 42.28125 30.421875 31.390625 
Q 30.421875 20.453125 26.78125 9.375 
Q 23.140625 -1.703125 15.828125 -13.1875 
L 8.015625 -13.1875 
Q 14.5 -2 17.703125 9.0625 
Q 20.90625 20.125 20.90625 31.390625 
Q 20.90625 42.671875 17.703125 53.65625 
Q 14.5 64.65625 8.015625 75.875 
z
" id="DejaVuSans-41"/>
     </defs>
     <g transform="translate(15.892187 203.663156)rotate(-90)scale(0.1 -0.1)">
      <use xlink:href="#DejaVuSans-100"/>
      <use x="63.476562" xlink:href="#DejaVuSans-117"/>
      <use x="126.855469" xlink:href="#DejaVuSans-114"/>
      <use x="167.96875" xlink:href="#DejaVuSans-97"/>
      <use x="229.248047" xlink:href="#DejaVuSans-116"/>
      <use x="268.457031" xlink:href="#DejaVuSans-105"/>
      <use x="296.240234" xlink:href="#DejaVuSans-111"/>
      <use x="357.421875" xlink:href="#DejaVuSans-110"/>
      <use x="420.800781" xlink:href="#DejaVuSans-32"/>
      <use x="452.587891" xlink:href="#DejaVuSans-40"/>
      <use x="491.601562" xlink:href="#DejaVuSans-115"/>
      <use x="543.701172" xlink:href="#DejaVuSans-41"/>
     </g>
    </g>
   </g>
   <g id="line2d_61">
    <path clip-path="url(#pb9359d7408)" d="M 61.612584 178.529939 
L 65.625169 197.588209 
L 69.637753 232.292993 
L 73.650337 245.182854 
L 77.662921 257.356733 
L 81.675506 263.508985 
L 85.68809 274.796456 
L 89.700674 278.179938 
L 93.713258 281.524361 
L 97.725843 282.756841 
L 101.738427 286.648299 
L 105.751011 288.084452 
L 109.763596 287.80197 
L 113.77618 291.268153 
L 117.788764 287.914864 
L 121.801348 290.789977 
L 125.813933 292.180026 
L 129.826517 290.604283 
L 133.839101 292.831681 
L 137.851685 293.665878 
L 141.86427 291.991032 
L 145.876854 293.85842 
L 149.889438 294.230104 
L 153.902022 293.345715 
L 157.914607 294.83206 
L 161.927191 293.043974 
L 165.939775 293.568943 
L 169.95236 291.610875 
L 173.964944 295.488 
L 177.977528 293.598693 
L 181.990112 294.387132 
L 186.002697 290.551628 
L 190.015281 291.260124 
L 194.027865 289.959622 
L 198.040449 291.513595 
L 202.053034 289.531737 
L 206.065618 290.611277 
L 210.078202 289.264721 
L 214.090787 290.487399 
L 218.103371 288.429834 
L 222.115955 290.406914 
L 226.128539 288.612573 
L 230.141124 290.392827 
L 234.153708 287.773598 
L 238.166292 284.897845 
L 242.178876 283.176107 
L 246.191461 282.995288 
L 250.204045 283.397807 
L 254.216629 283.045677 
L 258.229213 282.748221 
L 262.241798 283.017158 
L 266.254382 283.605027 
L 270.266966 283.608869 
L 274.279551 282.739897 
L 278.292135 282.955194 
L 282.304719 281.936731 
L 286.317303 282.486082 
L 290.329888 282.006576 
L 294.342472 282.003276 
L 298.355056 281.589034 
L 302.36764 282.900668 
L 306.380225 281.795958 
L 310.392809 281.962689 
L 314.405393 282.836241 
L 318.417978 281.293942 
L 322.430562 281.327879 
L 326.443146 281.018947 
L 330.45573 280.162683 
L 334.468315 280.561261 
L 338.480899 279.981619 
L 342.493483 279.909557 
L 346.506067 280.611699 
L 350.518652 279.857986 
L 354.531236 279.303809 
L 358.54382 279.179487 
L 362.556404 279.375821 
L 366.568989 280.40847 
L 370.581573 279.191358 
L 374.594157 280.145936 
L 378.606742 279.749722 
L 382.619326 278.492417 
L 386.63191 278.120683 
L 390.644494 279.408921 
L 394.657079 277.478584 
L 398.669663 279.761987 
L 402.682247 278.823072 
L 406.694831 276.50519 
L 410.707416 276.480611 
" style="fill:none;stroke:#0000ff;stroke-dasharray:1.5,2.475;stroke-dashoffset:0;stroke-width:1.5;"/>
    <defs>
     <path d="M 0 1.5 
C 0.397805 1.5 0.77937 1.341951 1.06066 1.06066 
C 1.341951 0.77937 1.5 0.397805 1.5 0 
C 1.5 -0.397805 1.341951 -0.77937 1.06066 -1.06066 
C 0.77937 -1.341951 0.397805 -1.5 0 -1.5 
C -0.397805 -1.5 -0.77937 -1.341951 -1.06066 -1.06066 
C -1.341951 -0.77937 -1.5 -0.397805 -1.5 0 
C -1.5 0.397805 -1.341951 0.77937 -1.06066 1.06066 
C -0.77937 1.341951 -0.397805 1.5 0 1.5 
z
" id="mb76dafd296" style="stroke:#0000ff;"/>
    </defs>
    <g clip-path="url(#pb9359d7408)">
     <use style="fill:#0000ff;stroke:#0000ff;" x="61.612584" xlink:href="#mb76dafd296" y="178.529939"/>
     <use style="fill:#0000ff;stroke:#0000ff;" x="65.625169" xlink:href="#mb76dafd296" y="197.588209"/>
     <use style="fill:#0000ff;stroke:#0000ff;" x="69.637753" xlink:href="#mb76dafd296" y="232.292993"/>
     <use style="fill:#0000ff;stroke:#0000ff;" x="73.650337" xlink:href="#mb76dafd296" y="245.182854"/>
     <use style="fill:#0000ff;stroke:#0000ff;" x="77.662921" xlink:href="#mb76dafd296" y="257.356733"/>
     <use style="fill:#0000ff;stroke:#0000ff;" x="81.675506" xlink:href="#mb76dafd296" y="263.508985"/>
     <use style="fill:#0000ff;stroke:#0000ff;" x="85.68809" xlink:href="#mb76dafd296" y="274.796456"/>
     <use style="fill:#0000ff;stroke:#0000ff;" x="89.700674" xlink:href="#mb76dafd296" y="278.179938"/>
     <use style="fill:#0000ff;stroke:#0000ff;" x="93.713258" xlink:href="#mb76dafd296" y="281.524361"/>
     <use style="fill:#0000ff;stroke:#0000ff;" x="97.725843" xlink:href="#mb76dafd296" y="282.756841"/>
     <use style="fill:#0000ff;stroke:#0000ff;" x="101.738427" xlink:href="#mb76dafd296" y="286.648299"/>
     <use style="fill:#0000ff;stroke:#0000ff;" x="105.751011" xlink:href="#mb76dafd296" y="288.084452"/>
     <use style="fill:#0000ff;stroke:#0000ff;" x="109.763596" xlink:href="#mb76dafd296" y="287.80197"/>
     <use style="fill:#0000ff;stroke:#0000ff;" x="113.77618" xlink:href="#mb76dafd296" y="291.268153"/>
     <use style="fill:#0000ff;stroke:#0000ff;" x="117.788764" xlink:href="#mb76dafd296" y="287.914864"/>
     <use style="fill:#0000ff;stroke:#0000ff;" x="121.801348" xlink:href="#mb76dafd296" y="290.789977"/>
     <use style="fill:#0000ff;stroke:#0000ff;" x="125.813933" xlink:href="#mb76dafd296" y="292.180026"/>
     <use style="fill:#0000ff;stroke:#0000ff;" x="129.826517" xlink:href="#mb76dafd296" y="290.604283"/>
     <use style="fill:#0000ff;stroke:#0000ff;" x="133.839101" xlink:href="#mb76dafd296" y="292.831681"/>
     <use style="fill:#0000ff;stroke:#0000ff;" x="137.851685" xlink:href="#mb76dafd296" y="293.665878"/>
     <use style="fill:#0000ff;stroke:#0000ff;" x="141.86427" xlink:href="#mb76dafd296" y="291.991032"/>
     <use style="fill:#0000ff;stroke:#0000ff;" x="145.876854" xlink:href="#mb76dafd296" y="293.85842"/>
     <use style="fill:#0000ff;stroke:#0000ff;" x="149.889438" xlink:href="#mb76dafd296" y="294.230104"/>
     <use style="fill:#0000ff;stroke:#0000ff;" x="153.902022" xlink:href="#mb76dafd296" y="293.345715"/>
     <use style="fill:#0000ff;stroke:#0000ff;" x="157.914607" xlink:href="#mb76dafd296" y="294.83206"/>
     <use style="fill:#0000ff;stroke:#0000ff;" x="161.927191" xlink:href="#mb76dafd296" y="293.043974"/>
     <use style="fill:#0000ff;stroke:#0000ff;" x="165.939775" xlink:href="#mb76dafd296" y="293.568943"/>
     <use style="fill:#0000ff;stroke:#0000ff;" x="169.95236" xlink:href="#mb76dafd296" y="291.610875"/>
     <use style="fill:#0000ff;stroke:#0000ff;" x="173.964944" xlink:href="#mb76dafd296" y="295.488"/>
     <use style="fill:#0000ff;stroke:#0000ff;" x="177.977528" xlink:href="#mb76dafd296" y="293.598693"/>
     <use style="fill:#0000ff;stroke:#0000ff;" x="181.990112" xlink:href="#mb76dafd296" y="294.387132"/>
     <use style="fill:#0000ff;stroke:#0000ff;" x="186.002697" xlink:href="#mb76dafd296" y="290.551628"/>
     <use style="fill:#0000ff;stroke:#0000ff;" x="190.015281" xlink:href="#mb76dafd296" y="291.260124"/>
     <use style="fill:#0000ff;stroke:#0000ff;" x="194.027865" xlink:href="#mb76dafd296" y="289.959622"/>
     <use style="fill:#0000ff;stroke:#0000ff;" x="198.040449" xlink:href="#mb76dafd296" y="291.513595"/>
     <use style="fill:#0000ff;stroke:#0000ff;" x="202.053034" xlink:href="#mb76dafd296" y="289.531737"/>
     <use style="fill:#0000ff;stroke:#0000ff;" x="206.065618" xlink:href="#mb76dafd296" y="290.611277"/>
     <use style="fill:#0000ff;stroke:#0000ff;" x="210.078202" xlink:href="#mb76dafd296" y="289.264721"/>
     <use style="fill:#0000ff;stroke:#0000ff;" x="214.090787" xlink:href="#mb76dafd296" y="290.487399"/>
     <use style="fill:#0000ff;stroke:#0000ff;" x="218.103371" xlink:href="#mb76dafd296" y="288.429834"/>
     <use style="fill:#0000ff;stroke:#0000ff;" x="222.115955" xlink:href="#mb76dafd296" y="290.406914"/>
     <use style="fill:#0000ff;stroke:#0000ff;" x="226.128539" xlink:href="#mb76dafd296" y="288.612573"/>
     <use style="fill:#0000ff;stroke:#0000ff;" x="230.141124" xlink:href="#mb76dafd296" y="290.392827"/>
     <use style="fill:#0000ff;stroke:#0000ff;" x="234.153708" xlink:href="#mb76dafd296" y="287.773598"/>
     <use style="fill:#0000ff;stroke:#0000ff;" x="238.166292" xlink:href="#mb76dafd296" y="284.897845"/>
     <use style="fill:#0000ff;stroke:#0000ff;" x="242.178876" xlink:href="#mb76dafd296" y="283.176107"/>
     <use style="fill:#0000ff;stroke:#0000ff;" x="246.191461" xlink:href="#mb76dafd296" y="282.995288"/>
     <use style="fill:#0000ff;stroke:#0000ff;" x="250.204045" xlink:href="#mb76dafd296" y="283.397807"/>
     <use style="fill:#0000ff;stroke:#0000ff;" x="254.216629" xlink:href="#mb76dafd296" y="283.045677"/>
     <use style="fill:#0000ff;stroke:#0000ff;" x="258.229213" xlink:href="#mb76dafd296" y="282.748221"/>
     <use style="fill:#0000ff;stroke:#0000ff;" x="262.241798" xlink:href="#mb76dafd296" y="283.017158"/>
     <use style="fill:#0000ff;stroke:#0000ff;" x="266.254382" xlink:href="#mb76dafd296" y="283.605027"/>
     <use style="fill:#0000ff;stroke:#0000ff;" x="270.266966" xlink:href="#mb76dafd296" y="283.608869"/>
     <use style="fill:#0000ff;stroke:#0000ff;" x="274.279551" xlink:href="#mb76dafd296" y="282.739897"/>
     <use style="fill:#0000ff;stroke:#0000ff;" x="278.292135" xlink:href="#mb76dafd296" y="282.955194"/>
     <use style="fill:#0000ff;stroke:#0000ff;" x="282.304719" xlink:href="#mb76dafd296" y="281.936731"/>
     <use style="fill:#0000ff;stroke:#0000ff;" x="286.317303" xlink:href="#mb76dafd296" y="282.486082"/>
     <use style="fill:#0000ff;stroke:#0000ff;" x="290.329888" xlink:href="#mb76dafd296" y="282.006576"/>
     <use style="fill:#0000ff;stroke:#0000ff;" x="294.342472" xlink:href="#mb76dafd296" y="282.003276"/>
     <use style="fill:#0000ff;stroke:#0000ff;" x="298.355056" xlink:href="#mb76dafd296" y="281.589034"/>
     <use style="fill:#0000ff;stroke:#0000ff;" x="302.36764" xlink:href="#mb76dafd296" y="282.900668"/>
     <use style="fill:#0000ff;stroke:#0000ff;" x="306.380225" xlink:href="#mb76dafd296" y="281.795958"/>
     <use style="fill:#0000ff;stroke:#0000ff;" x="310.392809" xlink:href="#mb76dafd296" y="281.962689"/>
     <use style="fill:#0000ff;stroke:#0000ff;" x="314.405393" xlink:href="#mb76dafd296" y="282.836241"/>
     <use style="fill:#0000ff;stroke:#0000ff;" x="318.417978" xlink:href="#mb76dafd296" y="281.293942"/>
     <use style="fill:#0000ff;stroke:#0000ff;" x="322.430562" xlink:href="#mb76dafd296" y="281.327879"/>
     <use style="fill:#0000ff;stroke:#0000ff;" x="326.443146" xlink:href="#mb76dafd296" y="281.018947"/>
     <use style="fill:#0000ff;stroke:#0000ff;" x="330.45573" xlink:href="#mb76dafd296" y="280.162683"/>
     <use style="fill:#0000ff;stroke:#0000ff;" x="334.468315" xlink:href="#mb76dafd296" y="280.561261"/>
     <use style="fill:#0000ff;stroke:#0000ff;" x="338.480899" xlink:href="#mb76dafd296" y="279.981619"/>
     <use style="fill:#0000ff;stroke:#0000ff;" x="342.493483" xlink:href="#mb76dafd296" y="279.909557"/>
     <use style="fill:#0000ff;stroke:#0000ff;" x="346.506067" xlink:href="#mb76dafd296" y="280.611699"/>
     <use style="fill:#0000ff;stroke:#0000ff;" x="350.518652" xlink:href="#mb76dafd296" y="279.857986"/>
     <use style="fill:#0000ff;stroke:#0000ff;" x="354.531236" xlink:href="#mb76dafd296" y="279.303809"/>
     <use style="fill:#0000ff;stroke:#0000ff;" x="358.54382" xlink:href="#mb76dafd296" y="279.179487"/>
     <use style="fill:#0000ff;stroke:#0000ff;" x="362.556404" xlink:href="#mb76dafd296" y="279.375821"/>
     <use style="fill:#0000ff;stroke:#0000ff;" x="366.568989" xlink:href="#mb76dafd296" y="280.40847"/>
     <use style="fill:#0000ff;stroke:#0000ff;" x="370.581573" xlink:href="#mb76dafd296" y="279.191358"/>
     <use style="fill:#0000ff;stroke:#0000ff;" x="374.594157" xlink:href="#mb76dafd296" y="280.145936"/>
     <use style="fill:#0000ff;stroke:#0000ff;" x="378.606742" xlink:href="#mb76dafd296" y="279.749722"/>
     <use style="fill:#0000ff;stroke:#0000ff;" x="382.619326" xlink:href="#mb76dafd296" y="278.492417"/>
     <use style="fill:#0000ff;stroke:#0000ff;" x="386.63191" xlink:href="#mb76dafd296" y="278.120683"/>
     <use style="fill:#0000ff;stroke:#0000ff;" x="390.644494" xlink:href="#mb76dafd296" y="279.408921"/>
     <use style="fill:#0000ff;stroke:#0000ff;" x="394.657079" xlink:href="#mb76dafd296" y="277.478584"/>
     <use style="fill:#0000ff;stroke:#0000ff;" x="398.669663" xlink:href="#mb76dafd296" y="279.761987"/>
     <use style="fill:#0000ff;stroke:#0000ff;" x="402.682247" xlink:href="#mb76dafd296" y="278.823072"/>
     <use style="fill:#0000ff;stroke:#0000ff;" x="406.694831" xlink:href="#mb76dafd296" y="276.50519"/>
     <use style="fill:#0000ff;stroke:#0000ff;" x="410.707416" xlink:href="#mb76dafd296" y="276.480611"/>
    </g>
   </g>
   <g id="line2d_62">
    <path clip-path="url(#pb9359d7408)" d="M 61.612584 148.622084 
L 65.625169 144.196988 
L 69.637753 188.908146 
L 73.650337 206.944751 
L 77.662921 217.396005 
L 81.675506 226.06533 
L 85.68809 231.938105 
L 89.700674 236.192726 
L 93.713258 237.752216 
L 97.725843 233.724565 
L 101.738427 240.534038 
L 105.751011 241.449015 
L 109.763596 236.207257 
L 113.77618 241.468323 
L 117.788764 236.174699 
L 121.801348 240.660724 
L 125.813933 238.92485 
L 129.826517 225.403528 
L 133.839101 235.726963 
L 137.851685 230.571895 
L 141.86427 218.659122 
L 145.876854 229.265482 
L 149.889438 225.418207 
L 153.902022 219.503219 
L 157.914607 222.612987 
L 161.927191 210.233318 
L 165.939775 206.376339 
L 169.95236 197.866997 
L 173.964944 215.781595 
L 177.977528 199.826592 
L 181.990112 189.455527 
L 186.002697 172.56545 
L 190.015281 174.988148 
L 194.027865 168.629858 
L 198.040449 175.535479 
L 202.053034 161.975196 
L 206.065618 167.116423 
L 210.078202 162.735608 
L 214.090787 164.172549 
L 218.103371 159.704058 
L 222.115955 162.847813 
L 226.128539 155.498693 
L 230.141124 156.10055 
L 234.153708 144.126453 
L 238.166292 118.353528 
L 242.178876 113.948873 
L 246.191461 112.473808 
L 250.204045 113.355093 
L 254.216629 113.133836 
L 258.229213 111.961104 
L 262.241798 111.399538 
L 266.254382 111.799397 
L 270.266966 109.713461 
L 274.279551 109.206717 
L 278.292135 107.668752 
L 282.304719 107.346865 
L 286.317303 105.690243 
L 290.329888 104.026183 
L 294.342472 103.779264 
L 298.355056 103.446738 
L 302.36764 100.360169 
L 306.380225 101.392966 
L 310.392809 100.491042 
L 314.405393 100.132706 
L 318.417978 98.069723 
L 322.430562 96.823747 
L 326.443146 95.264849 
L 330.45573 92.091344 
L 334.468315 91.129771 
L 338.480899 90.438317 
L 342.493483 88.563246 
L 346.506067 86.626457 
L 350.518652 84.318475 
L 354.531236 83.563088 
L 358.54382 81.20191 
L 362.556404 79.523123 
L 366.568989 77.564809 
L 370.581573 75.86233 
L 374.594157 73.854858 
L 378.606742 71.178788 
L 382.619326 69.068421 
L 386.63191 68.278111 
L 390.644494 66.561052 
L 394.657079 64.696522 
L 398.669663 61.256542 
L 402.682247 60.513419 
L 406.694831 57.569496 
L 410.707416 53.568 
" style="fill:none;stroke:#ff0000;stroke-dasharray:1.5,2.475;stroke-dashoffset:0;stroke-width:1.5;"/>
    <defs>
     <path d="M 0 1.5 
C 0.397805 1.5 0.77937 1.341951 1.06066 1.06066 
C 1.341951 0.77937 1.5 0.397805 1.5 0 
C 1.5 -0.397805 1.341951 -0.77937 1.06066 -1.06066 
C 0.77937 -1.341951 0.397805 -1.5 0 -1.5 
C -0.397805 -1.5 -0.77937 -1.341951 -1.06066 -1.06066 
C -1.341951 -0.77937 -1.5 -0.397805 -1.5 0 
C -1.5 0.397805 -1.341951 0.77937 -1.06066 1.06066 
C -0.77937 1.341951 -0.397805 1.5 0 1.5 
z
" id="m342d41b9de" style="stroke:#ff0000;"/>
    </defs>
    <g clip-path="url(#pb9359d7408)">
     <use style="fill:#ff0000;stroke:#ff0000;" x="61.612584" xlink:href="#m342d41b9de" y="148.622084"/>
     <use style="fill:#ff0000;stroke:#ff0000;" x="65.625169" xlink:href="#m342d41b9de" y="144.196988"/>
     <use style="fill:#ff0000;stroke:#ff0000;" x="69.637753" xlink:href="#m342d41b9de" y="188.908146"/>
     <use style="fill:#ff0000;stroke:#ff0000;" x="73.650337" xlink:href="#m342d41b9de" y="206.944751"/>
     <use style="fill:#ff0000;stroke:#ff0000;" x="77.662921" xlink:href="#m342d41b9de" y="217.396005"/>
     <use style="fill:#ff0000;stroke:#ff0000;" x="81.675506" xlink:href="#m342d41b9de" y="226.06533"/>
     <use style="fill:#ff0000;stroke:#ff0000;" x="85.68809" xlink:href="#m342d41b9de" y="231.938105"/>
     <use style="fill:#ff0000;stroke:#ff0000;" x="89.700674" xlink:href="#m342d41b9de" y="236.192726"/>
     <use style="fill:#ff0000;stroke:#ff0000;" x="93.713258" xlink:href="#m342d41b9de" y="237.752216"/>
     <use style="fill:#ff0000;stroke:#ff0000;" x="97.725843" xlink:href="#m342d41b9de" y="233.724565"/>
     <use style="fill:#ff0000;stroke:#ff0000;" x="101.738427" xlink:href="#m342d41b9de" y="240.534038"/>
     <use style="fill:#ff0000;stroke:#ff0000;" x="105.751011" xlink:href="#m342d41b9de" y="241.449015"/>
     <use style="fill:#ff0000;stroke:#ff0000;" x="109.763596" xlink:href="#m342d41b9de" y="236.207257"/>
     <use style="fill:#ff0000;stroke:#ff0000;" x="113.77618" xlink:href="#m342d41b9de" y="241.468323"/>
     <use style="fill:#ff0000;stroke:#ff0000;" x="117.788764" xlink:href="#m342d41b9de" y="236.174699"/>
     <use style="fill:#ff0000;stroke:#ff0000;" x="121.801348" xlink:href="#m342d41b9de" y="240.660724"/>
     <use style="fill:#ff0000;stroke:#ff0000;" x="125.813933" xlink:href="#m342d41b9de" y="238.92485"/>
     <use style="fill:#ff0000;stroke:#ff0000;" x="129.826517" xlink:href="#m342d41b9de" y="225.403528"/>
     <use style="fill:#ff0000;stroke:#ff0000;" x="133.839101" xlink:href="#m342d41b9de" y="235.726963"/>
     <use style="fill:#ff0000;stroke:#ff0000;" x="137.851685" xlink:href="#m342d41b9de" y="230.571895"/>
     <use style="fill:#ff0000;stroke:#ff0000;" x="141.86427" xlink:href="#m342d41b9de" y="218.659122"/>
     <use style="fill:#ff0000;stroke:#ff0000;" x="145.876854" xlink:href="#m342d41b9de" y="229.265482"/>
     <use style="fill:#ff0000;stroke:#ff0000;" x="149.889438" xlink:href="#m342d41b9de" y="225.418207"/>
     <use style="fill:#ff0000;stroke:#ff0000;" x="153.902022" xlink:href="#m342d41b9de" y="219.503219"/>
     <use style="fill:#ff0000;stroke:#ff0000;" x="157.914607" xlink:href="#m342d41b9de" y="222.612987"/>
     <use style="fill:#ff0000;stroke:#ff0000;" x="161.927191" xlink:href="#m342d41b9de" y="210.233318"/>
     <use style="fill:#ff0000;stroke:#ff0000;" x="165.939775" xlink:href="#m342d41b9de" y="206.376339"/>
     <use style="fill:#ff0000;stroke:#ff0000;" x="169.95236" xlink:href="#m342d41b9de" y="197.866997"/>
     <use style="fill:#ff0000;stroke:#ff0000;" x="173.964944" xlink:href="#m342d41b9de" y="215.781595"/>
     <use style="fill:#ff0000;stroke:#ff0000;" x="177.977528" xlink:href="#m342d41b9de" y="199.826592"/>
     <use style="fill:#ff0000;stroke:#ff0000;" x="181.990112" xlink:href="#m342d41b9de" y="189.455527"/>
     <use style="fill:#ff0000;stroke:#ff0000;" x="186.002697" xlink:href="#m342d41b9de" y="172.56545"/>
     <use style="fill:#ff0000;stroke:#ff0000;" x="190.015281" xlink:href="#m342d41b9de" y="174.988148"/>
     <use style="fill:#ff0000;stroke:#ff0000;" x="194.027865" xlink:href="#m342d41b9de" y="168.629858"/>
     <use style="fill:#ff0000;stroke:#ff0000;" x="198.040449" xlink:href="#m342d41b9de" y="175.535479"/>
     <use style="fill:#ff0000;stroke:#ff0000;" x="202.053034" xlink:href="#m342d41b9de" y="161.975196"/>
     <use style="fill:#ff0000;stroke:#ff0000;" x="206.065618" xlink:href="#m342d41b9de" y="167.116423"/>
     <use style="fill:#ff0000;stroke:#ff0000;" x="210.078202" xlink:href="#m342d41b9de" y="162.735608"/>
     <use style="fill:#ff0000;stroke:#ff0000;" x="214.090787" xlink:href="#m342d41b9de" y="164.172549"/>
     <use style="fill:#ff0000;stroke:#ff0000;" x="218.103371" xlink:href="#m342d41b9de" y="159.704058"/>
     <use style="fill:#ff0000;stroke:#ff0000;" x="222.115955" xlink:href="#m342d41b9de" y="162.847813"/>
     <use style="fill:#ff0000;stroke:#ff0000;" x="226.128539" xlink:href="#m342d41b9de" y="155.498693"/>
     <use style="fill:#ff0000;stroke:#ff0000;" x="230.141124" xlink:href="#m342d41b9de" y="156.10055"/>
     <use style="fill:#ff0000;stroke:#ff0000;" x="234.153708" xlink:href="#m342d41b9de" y="144.126453"/>
     <use style="fill:#ff0000;stroke:#ff0000;" x="238.166292" xlink:href="#m342d41b9de" y="118.353528"/>
     <use style="fill:#ff0000;stroke:#ff0000;" x="242.178876" xlink:href="#m342d41b9de" y="113.948873"/>
     <use style="fill:#ff0000;stroke:#ff0000;" x="246.191461" xlink:href="#m342d41b9de" y="112.473808"/>
     <use style="fill:#ff0000;stroke:#ff0000;" x="250.204045" xlink:href="#m342d41b9de" y="113.355093"/>
     <use style="fill:#ff0000;stroke:#ff0000;" x="254.216629" xlink:href="#m342d41b9de" y="113.133836"/>
     <use style="fill:#ff0000;stroke:#ff0000;" x="258.229213" xlink:href="#m342d41b9de" y="111.961104"/>
     <use style="fill:#ff0000;stroke:#ff0000;" x="262.241798" xlink:href="#m342d41b9de" y="111.399538"/>
     <use style="fill:#ff0000;stroke:#ff0000;" x="266.254382" xlink:href="#m342d41b9de" y="111.799397"/>
     <use style="fill:#ff0000;stroke:#ff0000;" x="270.266966" xlink:href="#m342d41b9de" y="109.713461"/>
     <use style="fill:#ff0000;stroke:#ff0000;" x="274.279551" xlink:href="#m342d41b9de" y="109.206717"/>
     <use style="fill:#ff0000;stroke:#ff0000;" x="278.292135" xlink:href="#m342d41b9de" y="107.668752"/>
     <use style="fill:#ff0000;stroke:#ff0000;" x="282.304719" xlink:href="#m342d41b9de" y="107.346865"/>
     <use style="fill:#ff0000;stroke:#ff0000;" x="286.317303" xlink:href="#m342d41b9de" y="105.690243"/>
     <use style="fill:#ff0000;stroke:#ff0000;" x="290.329888" xlink:href="#m342d41b9de" y="104.026183"/>
     <use style="fill:#ff0000;stroke:#ff0000;" x="294.342472" xlink:href="#m342d41b9de" y="103.779264"/>
     <use style="fill:#ff0000;stroke:#ff0000;" x="298.355056" xlink:href="#m342d41b9de" y="103.446738"/>
     <use style="fill:#ff0000;stroke:#ff0000;" x="302.36764" xlink:href="#m342d41b9de" y="100.360169"/>
     <use style="fill:#ff0000;stroke:#ff0000;" x="306.380225" xlink:href="#m342d41b9de" y="101.392966"/>
     <use style="fill:#ff0000;stroke:#ff0000;" x="310.392809" xlink:href="#m342d41b9de" y="100.491042"/>
     <use style="fill:#ff0000;stroke:#ff0000;" x="314.405393" xlink:href="#m342d41b9de" y="100.132706"/>
     <use style="fill:#ff0000;stroke:#ff0000;" x="318.417978" xlink:href="#m342d41b9de" y="98.069723"/>
     <use style="fill:#ff0000;stroke:#ff0000;" x="322.430562" xlink:href="#m342d41b9de" y="96.823747"/>
     <use style="fill:#ff0000;stroke:#ff0000;" x="326.443146" xlink:href="#m342d41b9de" y="95.264849"/>
     <use style="fill:#ff0000;stroke:#ff0000;" x="330.45573" xlink:href="#m342d41b9de" y="92.091344"/>
     <use style="fill:#ff0000;stroke:#ff0000;" x="334.468315" xlink:href="#m342d41b9de" y="91.129771"/>
     <use style="fill:#ff0000;stroke:#ff0000;" x="338.480899" xlink:href="#m342d41b9de" y="90.438317"/>
     <use style="fill:#ff0000;stroke:#ff0000;" x="342.493483" xlink:href="#m342d41b9de" y="88.563246"/>
     <use style="fill:#ff0000;stroke:#ff0000;" x="346.506067" xlink:href="#m342d41b9de" y="86.626457"/>
     <use style="fill:#ff0000;stroke:#ff0000;" x="350.518652" xlink:href="#m342d41b9de" y="84.318475"/>
     <use style="fill:#ff0000;stroke:#ff0000;" x="354.531236" xlink:href="#m342d41b9de" y="83.563088"/>
     <use style="fill:#ff0000;stroke:#ff0000;" x="358.54382" xlink:href="#m342d41b9de" y="81.20191"/>
     <use style="fill:#ff0000;stroke:#ff0000;" x="362.556404" xlink:href="#m342d41b9de" y="79.523123"/>
     <use style="fill:#ff0000;stroke:#ff0000;" x="366.568989" xlink:href="#m342d41b9de" y="77.564809"/>
     <use style="fill:#ff0000;stroke:#ff0000;" x="370.581573" xlink:href="#m342d41b9de" y="75.86233"/>
     <use style="fill:#ff0000;stroke:#ff0000;" x="374.594157" xlink:href="#m342d41b9de" y="73.854858"/>
     <use style="fill:#ff0000;stroke:#ff0000;" x="378.606742" xlink:href="#m342d41b9de" y="71.178788"/>
     <use style="fill:#ff0000;stroke:#ff0000;" x="382.619326" xlink:href="#m342d41b9de" y="69.068421"/>
     <use style="fill:#ff0000;stroke:#ff0000;" x="386.63191" xlink:href="#m342d41b9de" y="68.278111"/>
     <use style="fill:#ff0000;stroke:#ff0000;" x="390.644494" xlink:href="#m342d41b9de" y="66.561052"/>
     <use style="fill:#ff0000;stroke:#ff0000;" x="394.657079" xlink:href="#m342d41b9de" y="64.696522"/>
     <use style="fill:#ff0000;stroke:#ff0000;" x="398.669663" xlink:href="#m342d41b9de" y="61.256542"/>
     <use style="fill:#ff0000;stroke:#ff0000;" x="402.682247" xlink:href="#m342d41b9de" y="60.513419"/>
     <use style="fill:#ff0000;stroke:#ff0000;" x="406.694831" xlink:href="#m342d41b9de" y="57.569496"/>
     <use style="fill:#ff0000;stroke:#ff0000;" x="410.707416" xlink:href="#m342d41b9de" y="53.568"/>
    </g>
   </g>
   <g id="line2d_63">
    <path clip-path="url(#pb9359d7408)" d="M 61.612584 163.576011 
L 65.625169 170.892598 
L 69.637753 210.60057 
L 73.650337 226.063803 
L 77.662921 237.376369 
L 81.675506 244.787158 
L 85.68809 253.36728 
L 89.700674 257.186332 
L 93.713258 259.638288 
L 97.725843 258.240703 
L 101.738427 263.591169 
L 105.751011 264.766733 
L 109.763596 262.004613 
L 113.77618 266.368238 
L 117.788764 262.044781 
L 121.801348 265.725351 
L 125.813933 265.552438 
L 129.826517 258.003905 
L 133.839101 264.279322 
L 137.851685 262.118887 
L 141.86427 255.325077 
L 145.876854 261.561951 
L 149.889438 259.824155 
L 153.902022 256.424467 
L 157.914607 258.722524 
L 161.927191 251.638646 
L 165.939775 249.972641 
L 169.95236 244.738936 
L 173.964944 255.634798 
L 177.977528 246.712643 
L 181.990112 241.921329 
L 186.002697 231.558539 
L 190.015281 233.124136 
L 194.027865 229.29474 
L 198.040449 233.524537 
L 202.053034 225.753466 
L 206.065618 228.86385 
L 210.078202 226.000164 
L 214.090787 227.329974 
L 218.103371 224.066946 
L 222.115955 226.627364 
L 226.128539 222.055633 
L 230.141124 223.246689 
L 234.153708 215.950026 
L 238.166292 201.625686 
L 242.178876 198.56249 
L 246.191461 197.734548 
L 250.204045 198.37645 
L 254.216629 198.089757 
L 258.229213 197.354662 
L 262.241798 197.208348 
L 266.254382 197.702212 
L 270.266966 196.661165 
L 274.279551 195.973307 
L 278.292135 195.311973 
L 282.304719 194.641798 
L 286.317303 194.088162 
L 290.329888 193.01638 
L 294.342472 192.89127 
L 298.355056 192.517886 
L 302.36764 191.630419 
L 306.380225 191.594462 
L 310.392809 191.226865 
L 314.405393 191.484474 
L 318.417978 189.681833 
L 322.430562 189.075813 
L 326.443146 188.141898 
L 330.45573 186.127013 
L 334.468315 185.845516 
L 338.480899 185.209968 
L 342.493483 184.236402 
L 346.506067 183.619078 
L 350.518652 182.088231 
L 354.531236 181.433448 
L 358.54382 180.190699 
L 362.556404 179.449472 
L 366.568989 178.986639 
L 370.581573 177.526844 
L 374.594157 177.000397 
L 378.606742 175.464255 
L 382.619326 173.780419 
L 386.63191 173.199397 
L 390.644494 172.984987 
L 394.657079 171.087553 
L 398.669663 170.509265 
L 402.682247 169.668246 
L 406.694831 167.037343 
L 410.707416 165.024306 
" style="fill:none;stroke:#008000;stroke-dasharray:1.5,2.475;stroke-dashoffset:0;stroke-width:1.5;"/>
    <defs>
     <path d="M 0 1.5 
C 0.397805 1.5 0.77937 1.341951 1.06066 1.06066 
C 1.341951 0.77937 1.5 0.397805 1.5 0 
C 1.5 -0.397805 1.341951 -0.77937 1.06066 -1.06066 
C 0.77937 -1.341951 0.397805 -1.5 0 -1.5 
C -0.397805 -1.5 -0.77937 -1.341951 -1.06066 -1.06066 
C -1.341951 -0.77937 -1.5 -0.397805 -1.5 0 
C -1.5 0.397805 -1.341951 0.77937 -1.06066 1.06066 
C -0.77937 1.341951 -0.397805 1.5 0 1.5 
z
" id="m73adb88cdf" style="stroke:#008000;"/>
    </defs>
    <g clip-path="url(#pb9359d7408)">
     <use style="fill:#008000;stroke:#008000;" x="61.612584" xlink:href="#m73adb88cdf" y="163.576011"/>
     <use style="fill:#008000;stroke:#008000;" x="65.625169" xlink:href="#m73adb88cdf" y="170.892598"/>
     <use style="fill:#008000;stroke:#008000;" x="69.637753" xlink:href="#m73adb88cdf" y="210.60057"/>
     <use style="fill:#008000;stroke:#008000;" x="73.650337" xlink:href="#m73adb88cdf" y="226.063803"/>
     <use style="fill:#008000;stroke:#008000;" x="77.662921" xlink:href="#m73adb88cdf" y="237.376369"/>
     <use style="fill:#008000;stroke:#008000;" x="81.675506" xlink:href="#m73adb88cdf" y="244.787158"/>
     <use style="fill:#008000;stroke:#008000;" x="85.68809" xlink:href="#m73adb88cdf" y="253.36728"/>
     <use style="fill:#008000;stroke:#008000;" x="89.700674" xlink:href="#m73adb88cdf" y="257.186332"/>
     <use style="fill:#008000;stroke:#008000;" x="93.713258" xlink:href="#m73adb88cdf" y="259.638288"/>
     <use style="fill:#008000;stroke:#008000;" x="97.725843" xlink:href="#m73adb88cdf" y="258.240703"/>
     <use style="fill:#008000;stroke:#008000;" x="101.738427" xlink:href="#m73adb88cdf" y="263.591169"/>
     <use style="fill:#008000;stroke:#008000;" x="105.751011" xlink:href="#m73adb88cdf" y="264.766733"/>
     <use style="fill:#008000;stroke:#008000;" x="109.763596" xlink:href="#m73adb88cdf" y="262.004613"/>
     <use style="fill:#008000;stroke:#008000;" x="113.77618" xlink:href="#m73adb88cdf" y="266.368238"/>
     <use style="fill:#008000;stroke:#008000;" x="117.788764" xlink:href="#m73adb88cdf" y="262.044781"/>
     <use style="fill:#008000;stroke:#008000;" x="121.801348" xlink:href="#m73adb88cdf" y="265.725351"/>
     <use style="fill:#008000;stroke:#008000;" x="125.813933" xlink:href="#m73adb88cdf" y="265.552438"/>
     <use style="fill:#008000;stroke:#008000;" x="129.826517" xlink:href="#m73adb88cdf" y="258.003905"/>
     <use style="fill:#008000;stroke:#008000;" x="133.839101" xlink:href="#m73adb88cdf" y="264.279322"/>
     <use style="fill:#008000;stroke:#008000;" x="137.851685" xlink:href="#m73adb88cdf" y="262.118887"/>
     <use style="fill:#008000;stroke:#008000;" x="141.86427" xlink:href="#m73adb88cdf" y="255.325077"/>
     <use style="fill:#008000;stroke:#008000;" x="145.876854" xlink:href="#m73adb88cdf" y="261.561951"/>
     <use style="fill:#008000;stroke:#008000;" x="149.889438" xlink:href="#m73adb88cdf" y="259.824155"/>
     <use style="fill:#008000;stroke:#008000;" x="153.902022" xlink:href="#m73adb88cdf" y="256.424467"/>
     <use style="fill:#008000;stroke:#008000;" x="157.914607" xlink:href="#m73adb88cdf" y="258.722524"/>
     <use style="fill:#008000;stroke:#008000;" x="161.927191" xlink:href="#m73adb88cdf" y="251.638646"/>
     <use style="fill:#008000;stroke:#008000;" x="165.939775" xlink:href="#m73adb88cdf" y="249.972641"/>
     <use style="fill:#008000;stroke:#008000;" x="169.95236" xlink:href="#m73adb88cdf" y="244.738936"/>
     <use style="fill:#008000;stroke:#008000;" x="173.964944" xlink:href="#m73adb88cdf" y="255.634798"/>
     <use style="fill:#008000;stroke:#008000;" x="177.977528" xlink:href="#m73adb88cdf" y="246.712643"/>
     <use style="fill:#008000;stroke:#008000;" x="181.990112" xlink:href="#m73adb88cdf" y="241.921329"/>
     <use style="fill:#008000;stroke:#008000;" x="186.002697" xlink:href="#m73adb88cdf" y="231.558539"/>
     <use style="fill:#008000;stroke:#008000;" x="190.015281" xlink:href="#m73adb88cdf" y="233.124136"/>
     <use style="fill:#008000;stroke:#008000;" x="194.027865" xlink:href="#m73adb88cdf" y="229.29474"/>
     <use style="fill:#008000;stroke:#008000;" x="198.040449" xlink:href="#m73adb88cdf" y="233.524537"/>
     <use style="fill:#008000;stroke:#008000;" x="202.053034" xlink:href="#m73adb88cdf" y="225.753466"/>
     <use style="fill:#008000;stroke:#008000;" x="206.065618" xlink:href="#m73adb88cdf" y="228.86385"/>
     <use style="fill:#008000;stroke:#008000;" x="210.078202" xlink:href="#m73adb88cdf" y="226.000164"/>
     <use style="fill:#008000;stroke:#008000;" x="214.090787" xlink:href="#m73adb88cdf" y="227.329974"/>
     <use style="fill:#008000;stroke:#008000;" x="218.103371" xlink:href="#m73adb88cdf" y="224.066946"/>
     <use style="fill:#008000;stroke:#008000;" x="222.115955" xlink:href="#m73adb88cdf" y="226.627364"/>
     <use style="fill:#008000;stroke:#008000;" x="226.128539" xlink:href="#m73adb88cdf" y="222.055633"/>
     <use style="fill:#008000;stroke:#008000;" x="230.141124" xlink:href="#m73adb88cdf" y="223.246689"/>
     <use style="fill:#008000;stroke:#008000;" x="234.153708" xlink:href="#m73adb88cdf" y="215.950026"/>
     <use style="fill:#008000;stroke:#008000;" x="238.166292" xlink:href="#m73adb88cdf" y="201.625686"/>
     <use style="fill:#008000;stroke:#008000;" x="242.178876" xlink:href="#m73adb88cdf" y="198.56249"/>
     <use style="fill:#008000;stroke:#008000;" x="246.191461" xlink:href="#m73adb88cdf" y="197.734548"/>
     <use style="fill:#008000;stroke:#008000;" x="250.204045" xlink:href="#m73adb88cdf" y="198.37645"/>
     <use style="fill:#008000;stroke:#008000;" x="254.216629" xlink:href="#m73adb88cdf" y="198.089757"/>
     <use style="fill:#008000;stroke:#008000;" x="258.229213" xlink:href="#m73adb88cdf" y="197.354662"/>
     <use style="fill:#008000;stroke:#008000;" x="262.241798" xlink:href="#m73adb88cdf" y="197.208348"/>
     <use style="fill:#008000;stroke:#008000;" x="266.254382" xlink:href="#m73adb88cdf" y="197.702212"/>
     <use style="fill:#008000;stroke:#008000;" x="270.266966" xlink:href="#m73adb88cdf" y="196.661165"/>
     <use style="fill:#008000;stroke:#008000;" x="274.279551" xlink:href="#m73adb88cdf" y="195.973307"/>
     <use style="fill:#008000;stroke:#008000;" x="278.292135" xlink:href="#m73adb88cdf" y="195.311973"/>
     <use style="fill:#008000;stroke:#008000;" x="282.304719" xlink:href="#m73adb88cdf" y="194.641798"/>
     <use style="fill:#008000;stroke:#008000;" x="286.317303" xlink:href="#m73adb88cdf" y="194.088162"/>
     <use style="fill:#008000;stroke:#008000;" x="290.329888" xlink:href="#m73adb88cdf" y="193.01638"/>
     <use style="fill:#008000;stroke:#008000;" x="294.342472" xlink:href="#m73adb88cdf" y="192.89127"/>
     <use style="fill:#008000;stroke:#008000;" x="298.355056" xlink:href="#m73adb88cdf" y="192.517886"/>
     <use style="fill:#008000;stroke:#008000;" x="302.36764" xlink:href="#m73adb88cdf" y="191.630419"/>
     <use style="fill:#008000;stroke:#008000;" x="306.380225" xlink:href="#m73adb88cdf" y="191.594462"/>
     <use style="fill:#008000;stroke:#008000;" x="310.392809" xlink:href="#m73adb88cdf" y="191.226865"/>
     <use style="fill:#008000;stroke:#008000;" x="314.405393" xlink:href="#m73adb88cdf" y="191.484474"/>
     <use style="fill:#008000;stroke:#008000;" x="318.417978" xlink:href="#m73adb88cdf" y="189.681833"/>
     <use style="fill:#008000;stroke:#008000;" x="322.430562" xlink:href="#m73adb88cdf" y="189.075813"/>
     <use style="fill:#008000;stroke:#008000;" x="326.443146" xlink:href="#m73adb88cdf" y="188.141898"/>
     <use style="fill:#008000;stroke:#008000;" x="330.45573" xlink:href="#m73adb88cdf" y="186.127013"/>
     <use style="fill:#008000;stroke:#008000;" x="334.468315" xlink:href="#m73adb88cdf" y="185.845516"/>
     <use style="fill:#008000;stroke:#008000;" x="338.480899" xlink:href="#m73adb88cdf" y="185.209968"/>
     <use style="fill:#008000;stroke:#008000;" x="342.493483" xlink:href="#m73adb88cdf" y="184.236402"/>
     <use style="fill:#008000;stroke:#008000;" x="346.506067" xlink:href="#m73adb88cdf" y="183.619078"/>
     <use style="fill:#008000;stroke:#008000;" x="350.518652" xlink:href="#m73adb88cdf" y="182.088231"/>
     <use style="fill:#008000;stroke:#008000;" x="354.531236" xlink:href="#m73adb88cdf" y="181.433448"/>
     <use style="fill:#008000;stroke:#008000;" x="358.54382" xlink:href="#m73adb88cdf" y="180.190699"/>
     <use style="fill:#008000;stroke:#008000;" x="362.556404" xlink:href="#m73adb88cdf" y="179.449472"/>
     <use style="fill:#008000;stroke:#008000;" x="366.568989" xlink:href="#m73adb88cdf" y="178.986639"/>
     <use style="fill:#008000;stroke:#008000;" x="370.581573" xlink:href="#m73adb88cdf" y="177.526844"/>
     <use style="fill:#008000;stroke:#008000;" x="374.594157" xlink:href="#m73adb88cdf" y="177.000397"/>
     <use style="fill:#008000;stroke:#008000;" x="378.606742" xlink:href="#m73adb88cdf" y="175.464255"/>
     <use style="fill:#008000;stroke:#008000;" x="382.619326" xlink:href="#m73adb88cdf" y="173.780419"/>
     <use style="fill:#008000;stroke:#008000;" x="386.63191" xlink:href="#m73adb88cdf" y="173.199397"/>
     <use style="fill:#008000;stroke:#008000;" x="390.644494" xlink:href="#m73adb88cdf" y="172.984987"/>
     <use style="fill:#008000;stroke:#008000;" x="394.657079" xlink:href="#m73adb88cdf" y="171.087553"/>
     <use style="fill:#008000;stroke:#008000;" x="398.669663" xlink:href="#m73adb88cdf" y="170.509265"/>
     <use style="fill:#008000;stroke:#008000;" x="402.682247" xlink:href="#m73adb88cdf" y="169.668246"/>
     <use style="fill:#008000;stroke:#008000;" x="406.694831" xlink:href="#m73adb88cdf" y="167.037343"/>
     <use style="fill:#008000;stroke:#008000;" x="410.707416" xlink:href="#m73adb88cdf" y="165.024306"/>
    </g>
   </g>
   <g id="patch_3">
    <path d="M 57.6 307.584 
L 57.6 41.472 
" style="fill:none;stroke:#000000;stroke-linecap:square;stroke-linejoin:miter;stroke-width:0.8;"/>
   </g>
   <g id="patch_4">
    <path d="M 414.72 307.584 
L 414.72 41.472 
" style="fill:none;stroke:#000000;stroke-linecap:square;stroke-linejoin:miter;stroke-width:0.8;"/>
   </g>
   <g id="patch_5">
    <path d="M 57.6 307.584 
L 414.72 307.584 
" style="fill:none;stroke:#000000;stroke-linecap:square;stroke-linejoin:miter;stroke-width:0.8;"/>
   </g>
   <g id="patch_6">
    <path d="M 57.6 41.472 
L 414.72 41.472 
" style="fill:none;stroke:#000000;stroke-linecap:square;stroke-linejoin:miter;stroke-width:0.8;"/>
   </g>
   <g id="text_33">
    <!-- ScanTrans 3PV on pre_transpose3 -->
    <defs>
     <path d="M 53.515625 70.515625 
L 53.515625 60.890625 
Q 47.90625 63.578125 42.921875 64.890625 
Q 37.9375 66.21875 33.296875 66.21875 
Q 25.25 66.21875 20.875 63.09375 
Q 16.5 59.96875 16.5 54.203125 
Q 16.5 49.359375 19.40625 46.890625 
Q 22.3125 44.4375 30.421875 42.921875 
L 36.375 41.703125 
Q 47.40625 39.59375 52.65625 34.296875 
Q 57.90625 29 57.90625 20.125 
Q 57.90625 9.515625 50.796875 4.046875 
Q 43.703125 -1.421875 29.984375 -1.421875 
Q 24.8125 -1.421875 18.96875 -0.25 
Q 13.140625 0.921875 6.890625 3.21875 
L 6.890625 13.375 
Q 12.890625 10.015625 18.65625 8.296875 
Q 24.421875 6.59375 29.984375 6.59375 
Q 38.421875 6.59375 43.015625 9.90625 
Q 47.609375 13.234375 47.609375 19.390625 
Q 47.609375 24.75 44.3125 27.78125 
Q 41.015625 30.8125 33.5 32.328125 
L 27.484375 33.5 
Q 16.453125 35.6875 11.515625 40.375 
Q 6.59375 45.0625 6.59375 53.421875 
Q 6.59375 63.09375 13.40625 68.65625 
Q 20.21875 74.21875 32.171875 74.21875 
Q 37.3125 74.21875 42.625 73.28125 
Q 47.953125 72.359375 53.515625 70.515625 
z
" id="DejaVuSans-83"/>
     <path d="M 48.78125 52.59375 
L 48.78125 44.1875 
Q 44.96875 46.296875 41.140625 47.34375 
Q 37.3125 48.390625 33.40625 48.390625 
Q 24.65625 48.390625 19.8125 42.84375 
Q 14.984375 37.3125 14.984375 27.296875 
Q 14.984375 17.28125 19.8125 11.734375 
Q 24.65625 6.203125 33.40625 6.203125 
Q 37.3125 6.203125 41.140625 7.25 
Q 44.96875 8.296875 48.78125 10.40625 
L 48.78125 2.09375 
Q 45.015625 0.34375 40.984375 -0.53125 
Q 36.96875 -1.421875 32.421875 -1.421875 
Q 20.0625 -1.421875 12.78125 6.34375 
Q 5.515625 14.109375 5.515625 27.296875 
Q 5.515625 40.671875 12.859375 48.328125 
Q 20.21875 56 33.015625 56 
Q 37.15625 56 41.109375 55.140625 
Q 45.0625 54.296875 48.78125 52.59375 
z
" id="DejaVuSans-99"/>
     <path d="M -0.296875 72.90625 
L 61.375 72.90625 
L 61.375 64.59375 
L 35.5 64.59375 
L 35.5 0 
L 25.59375 0 
L 25.59375 64.59375 
L -0.296875 64.59375 
z
" id="DejaVuSans-84"/>
     <path d="M 19.671875 64.796875 
L 19.671875 37.40625 
L 32.078125 37.40625 
Q 38.96875 37.40625 42.71875 40.96875 
Q 46.484375 44.53125 46.484375 51.125 
Q 46.484375 57.671875 42.71875 61.234375 
Q 38.96875 64.796875 32.078125 64.796875 
z
M 9.8125 72.90625 
L 32.078125 72.90625 
Q 44.34375 72.90625 50.609375 67.359375 
Q 56.890625 61.8125 56.890625 51.125 
Q 56.890625 40.328125 50.609375 34.8125 
Q 44.34375 29.296875 32.078125 29.296875 
L 19.671875 29.296875 
L 19.671875 0 
L 9.8125 0 
z
" id="DejaVuSans-80"/>
     <path d="M 28.609375 0 
L 0.78125 72.90625 
L 11.078125 72.90625 
L 34.1875 11.53125 
L 57.328125 72.90625 
L 67.578125 72.90625 
L 39.796875 0 
z
" id="DejaVuSans-86"/>
     <path d="M 18.109375 8.203125 
L 18.109375 -20.796875 
L 9.078125 -20.796875 
L 9.078125 54.6875 
L 18.109375 54.6875 
L 18.109375 46.390625 
Q 20.953125 51.265625 25.265625 53.625 
Q 29.59375 56 35.59375 56 
Q 45.5625 56 51.78125 48.09375 
Q 58.015625 40.1875 58.015625 27.296875 
Q 58.015625 14.40625 51.78125 6.484375 
Q 45.5625 -1.421875 35.59375 -1.421875 
Q 29.59375 -1.421875 25.265625 0.953125 
Q 20.953125 3.328125 18.109375 8.203125 
z
M 48.6875 27.296875 
Q 48.6875 37.203125 44.609375 42.84375 
Q 40.53125 48.484375 33.40625 48.484375 
Q 26.265625 48.484375 22.1875 42.84375 
Q 18.109375 37.203125 18.109375 27.296875 
Q 18.109375 17.390625 22.1875 11.75 
Q 26.265625 6.109375 33.40625 6.109375 
Q 40.53125 6.109375 44.609375 11.75 
Q 48.6875 17.390625 48.6875 27.296875 
z
" id="DejaVuSans-112"/>
     <path d="M 50.984375 -16.609375 
L 50.984375 -23.578125 
L -0.984375 -23.578125 
L -0.984375 -16.609375 
z
" id="DejaVuSans-95"/>
    </defs>
    <g transform="translate(134.615625 35.472)scale(0.12 -0.12)">
     <use xlink:href="#DejaVuSans-83"/>
     <use x="63.476562" xlink:href="#DejaVuSans-99"/>
     <use x="118.457031" xlink:href="#DejaVuSans-97"/>
     <use x="179.736328" xlink:href="#DejaVuSans-110"/>
     <use x="243.115234" xlink:href="#DejaVuSans-84"/>
     <use x="289.449219" xlink:href="#DejaVuSans-114"/>
     <use x="330.5625" xlink:href="#DejaVuSans-97"/>
     <use x="391.841797" xlink:href="#DejaVuSans-110"/>
     <use x="455.220703" xlink:href="#DejaVuSans-115"/>
     <use x="507.320312" xlink:href="#DejaVuSans-32"/>
     <use x="539.107422" xlink:href="#DejaVuSans-51"/>
     <use x="602.730469" xlink:href="#DejaVuSans-80"/>
     <use x="663.033203" xlink:href="#DejaVuSans-86"/>
     <use x="731.441406" xlink:href="#DejaVuSans-32"/>
     <use x="763.228516" xlink:href="#DejaVuSans-111"/>
     <use x="824.410156" xlink:href="#DejaVuSans-110"/>
     <use x="887.789062" xlink:href="#DejaVuSans-32"/>
     <use x="919.576172" xlink:href="#DejaVuSans-112"/>
     <use x="983.052734" xlink:href="#DejaVuSans-114"/>
     <use x="1021.916016" xlink:href="#DejaVuSans-101"/>
     <use x="1083.439453" xlink:href="#DejaVuSans-95"/>
     <use x="1133.439453" xlink:href="#DejaVuSans-116"/>
     <use x="1172.648438" xlink:href="#DejaVuSans-114"/>
     <use x="1213.761719" xlink:href="#DejaVuSans-97"/>
     <use x="1275.041016" xlink:href="#DejaVuSans-110"/>
     <use x="1338.419922" xlink:href="#DejaVuSans-115"/>
     <use x="1390.519531" xlink:href="#DejaVuSans-112"/>
     <use x="1453.996094" xlink:href="#DejaVuSans-111"/>
     <use x="1515.177734" xlink:href="#DejaVuSans-115"/>
     <use x="1567.277344" xlink:href="#DejaVuSans-101"/>
     <use x="1628.800781" xlink:href="#DejaVuSans-51"/>
    </g>
   </g>
   <g id="legend_1">
    <g id="patch_7">
     <path d="M 64.6 93.7845 
L 159.167188 93.7845 
Q 161.167188 93.7845 161.167188 91.7845 
L 161.167188 48.472 
Q 161.167188 46.472 159.167188 46.472 
L 64.6 46.472 
Q 62.6 46.472 62.6 48.472 
L 62.6 91.7845 
Q 62.6 93.7845 64.6 93.7845 
z
" style="fill:#ffffff;opacity:0.8;stroke:#cccccc;stroke-linejoin:miter;"/>
    </g>
    <g id="line2d_64">
     <path d="M 66.6 54.570438 
L 86.6 54.570438 
" style="fill:none;stroke:#0000ff;stroke-dasharray:1.5,2.475;stroke-dashoffset:0;stroke-width:1.5;"/>
    </g>
    <g id="line2d_65">
     <g>
      <use style="fill:#0000ff;stroke:#0000ff;" x="76.6" xlink:href="#mb76dafd296" y="54.570438"/>
     </g>
    </g>
    <g id="text_34">
     <!-- transpose -->
     <g transform="translate(94.6 58.070438)scale(0.1 -0.1)">
      <use xlink:href="#DejaVuSans-116"/>
      <use x="39.208984" xlink:href="#DejaVuSans-114"/>
      <use x="80.322266" xlink:href="#DejaVuSans-97"/>
      <use x="141.601562" xlink:href="#DejaVuSans-110"/>
      <use x="204.980469" xlink:href="#DejaVuSans-115"/>
      <use x="257.080078" xlink:href="#DejaVuSans-112"/>
      <use x="320.556641" xlink:href="#DejaVuSans-111"/>
      <use x="381.738281" xlink:href="#DejaVuSans-115"/>
      <use x="433.837891" xlink:href="#DejaVuSans-101"/>
     </g>
    </g>
    <g id="line2d_66">
     <path d="M 66.6 69.248563 
L 86.6 69.248563 
" style="fill:none;stroke:#ff0000;stroke-dasharray:1.5,2.475;stroke-dashoffset:0;stroke-width:1.5;"/>
    </g>
    <g id="line2d_67">
     <g>
      <use style="fill:#ff0000;stroke:#ff0000;" x="76.6" xlink:href="#m342d41b9de" y="69.248563"/>
     </g>
    </g>
    <g id="text_35">
     <!-- transpose_tr -->
     <g transform="translate(94.6 72.748563)scale(0.1 -0.1)">
      <use xlink:href="#DejaVuSans-116"/>
      <use x="39.208984" xlink:href="#DejaVuSans-114"/>
      <use x="80.322266" xlink:href="#DejaVuSans-97"/>
      <use x="141.601562" xlink:href="#DejaVuSans-110"/>
      <use x="204.980469" xlink:href="#DejaVuSans-115"/>
      <use x="257.080078" xlink:href="#DejaVuSans-112"/>
      <use x="320.556641" xlink:href="#DejaVuSans-111"/>
      <use x="381.738281" xlink:href="#DejaVuSans-115"/>
      <use x="433.837891" xlink:href="#DejaVuSans-101"/>
      <use x="495.361328" xlink:href="#DejaVuSans-95"/>
      <use x="545.361328" xlink:href="#DejaVuSans-116"/>
      <use x="584.570312" xlink:href="#DejaVuSans-114"/>
     </g>
    </g>
    <g id="line2d_68">
     <path d="M 66.6 84.204813 
L 86.6 84.204813 
" style="fill:none;stroke:#008000;stroke-dasharray:1.5,2.475;stroke-dashoffset:0;stroke-width:1.5;"/>
    </g>
    <g id="line2d_69">
     <g>
      <use style="fill:#008000;stroke:#008000;" x="76.6" xlink:href="#m73adb88cdf" y="84.204813"/>
     </g>
    </g>
    <g id="text_36">
     <!-- mean -->
     <defs>
      <path d="M 52 44.1875 
Q 55.375 50.25 60.0625 53.125 
Q 64.75 56 71.09375 56 
Q 79.640625 56 84.28125 50.015625 
Q 88.921875 44.046875 88.921875 33.015625 
L 88.921875 0 
L 79.890625 0 
L 79.890625 32.71875 
Q 79.890625 40.578125 77.09375 44.375 
Q 74.3125 48.1875 68.609375 48.1875 
Q 61.625 48.1875 57.5625 43.546875 
Q 53.515625 38.921875 53.515625 30.90625 
L 53.515625 0 
L 44.484375 0 
L 44.484375 32.71875 
Q 44.484375 40.625 41.703125 44.40625 
Q 38.921875 48.1875 33.109375 48.1875 
Q 26.21875 48.1875 22.15625 43.53125 
Q 18.109375 38.875 18.109375 30.90625 
L 18.109375 0 
L 9.078125 0 
L 9.078125 54.6875 
L 18.109375 54.6875 
L 18.109375 46.1875 
Q 21.1875 51.21875 25.484375 53.609375 
Q 29.78125 56 35.6875 56 
Q 41.65625 56 45.828125 52.96875 
Q 50 49.953125 52 44.1875 
z
" id="DejaVuSans-109"/>
     </defs>
     <g transform="translate(94.6 87.704813)scale(0.1 -0.1)">
      <use xlink:href="#DejaVuSans-109"/>
      <use x="97.412109" xlink:href="#DejaVuSans-101"/>
      <use x="158.935547" xlink:href="#DejaVuSans-97"/>
      <use x="220.214844" xlink:href="#DejaVuSans-110"/>
     </g>
    </g>
   </g>
  </g>
 </g>
 <defs>
  <clipPath id="pb9359d7408">
   <rect height="266.112" width="357.12" x="57.6" y="41.472"/>
  </clipPath>
 </defs>
</svg>
