<?xml version="1.0" encoding="utf-8" standalone="no"?>
<!DOCTYPE svg PUBLIC "-//W3C//DTD SVG 1.1//EN"
  "http://www.w3.org/Graphics/SVG/1.1/DTD/svg11.dtd">
<!-- Created with matplotlib (https://matplotlib.org/) -->
<svg height="345.6pt" version="1.1" viewBox="0 0 460.8 345.6" width="460.8pt" xmlns="http://www.w3.org/2000/svg" xmlns:xlink="http://www.w3.org/1999/xlink">
 <defs>
  <style type="text/css">
*{stroke-linecap:butt;stroke-linejoin:round;}
  </style>
 </defs>
 <g id="figure_1">
  <g id="patch_1">
   <path d="M 0 345.6 
L 460.8 345.6 
L 460.8 0 
L 0 0 
z
" style="fill:#ffffff;"/>
  </g>
  <g id="axes_1">
   <g id="patch_2">
    <path d="M 57.6 307.584 
L 414.72 307.584 
L 414.72 41.472 
L 57.6 41.472 
z
" style="fill:#ffffff;"/>
   </g>
   <g id="matplotlib.axis_1">
    <g id="xtick_1">
     <g id="line2d_1">
      <path clip-path="url(#pae20851a87)" d="M 61.612584 307.584 
L 61.612584 41.472 
" style="fill:none;stroke:#b0b0b0;stroke-dasharray:5.12,1.28,0.8,1.28;stroke-dashoffset:0;stroke-width:0.8;"/>
     </g>
     <g id="line2d_2">
      <defs>
       <path d="M 0 0 
L 0 3.5 
" id="me5cb261027" style="stroke:#000000;stroke-width:0.8;"/>
      </defs>
      <g>
       <use style="stroke:#000000;stroke-width:0.8;" x="61.612584" xlink:href="#me5cb261027" y="307.584"/>
      </g>
     </g>
     <g id="text_1">
      <!-- 1 -->
      <defs>
       <path d="M 12.40625 8.296875 
L 28.515625 8.296875 
L 28.515625 63.921875 
L 10.984375 60.40625 
L 10.984375 69.390625 
L 28.421875 72.90625 
L 38.28125 72.90625 
L 38.28125 8.296875 
L 54.390625 8.296875 
L 54.390625 0 
L 12.40625 0 
z
" id="DejaVuSans-49"/>
      </defs>
      <g transform="translate(58.431334 322.182437)scale(0.1 -0.1)">
       <use xlink:href="#DejaVuSans-49"/>
      </g>
     </g>
    </g>
    <g id="xtick_2">
     <g id="line2d_3">
      <path clip-path="url(#pae20851a87)" d="M 73.650337 307.584 
L 73.650337 41.472 
" style="fill:none;stroke:#b0b0b0;stroke-dasharray:5.12,1.28,0.8,1.28;stroke-dashoffset:0;stroke-width:0.8;"/>
     </g>
     <g id="line2d_4">
      <g>
       <use style="stroke:#000000;stroke-width:0.8;" x="73.650337" xlink:href="#me5cb261027" y="307.584"/>
      </g>
     </g>
     <g id="text_2">
      <!-- 4 -->
      <defs>
       <path d="M 37.796875 64.3125 
L 12.890625 25.390625 
L 37.796875 25.390625 
z
M 35.203125 72.90625 
L 47.609375 72.90625 
L 47.609375 25.390625 
L 58.015625 25.390625 
L 58.015625 17.1875 
L 47.609375 17.1875 
L 47.609375 0 
L 37.796875 0 
L 37.796875 17.1875 
L 4.890625 17.1875 
L 4.890625 26.703125 
z
" id="DejaVuSans-52"/>
      </defs>
      <g transform="translate(70.469087 322.182437)scale(0.1 -0.1)">
       <use xlink:href="#DejaVuSans-52"/>
      </g>
     </g>
    </g>
    <g id="xtick_3">
     <g id="line2d_5">
      <path clip-path="url(#pae20851a87)" d="M 89.700674 307.584 
L 89.700674 41.472 
" style="fill:none;stroke:#b0b0b0;stroke-dasharray:5.12,1.28,0.8,1.28;stroke-dashoffset:0;stroke-width:0.8;"/>
     </g>
     <g id="line2d_6">
      <g>
       <use style="stroke:#000000;stroke-width:0.8;" x="89.700674" xlink:href="#me5cb261027" y="307.584"/>
      </g>
     </g>
     <g id="text_3">
      <!-- 8 -->
      <defs>
       <path d="M 31.78125 34.625 
Q 24.75 34.625 20.71875 30.859375 
Q 16.703125 27.09375 16.703125 20.515625 
Q 16.703125 13.921875 20.71875 10.15625 
Q 24.75 6.390625 31.78125 6.390625 
Q 38.8125 6.390625 42.859375 10.171875 
Q 46.921875 13.96875 46.921875 20.515625 
Q 46.921875 27.09375 42.890625 30.859375 
Q 38.875 34.625 31.78125 34.625 
z
M 21.921875 38.8125 
Q 15.578125 40.375 12.03125 44.71875 
Q 8.5 49.078125 8.5 55.328125 
Q 8.5 64.0625 14.71875 69.140625 
Q 20.953125 74.21875 31.78125 74.21875 
Q 42.671875 74.21875 48.875 69.140625 
Q 55.078125 64.0625 55.078125 55.328125 
Q 55.078125 49.078125 51.53125 44.71875 
Q 48 40.375 41.703125 38.8125 
Q 48.828125 37.15625 52.796875 32.3125 
Q 56.78125 27.484375 56.78125 20.515625 
Q 56.78125 9.90625 50.3125 4.234375 
Q 43.84375 -1.421875 31.78125 -1.421875 
Q 19.734375 -1.421875 13.25 4.234375 
Q 6.78125 9.90625 6.78125 20.515625 
Q 6.78125 27.484375 10.78125 32.3125 
Q 14.796875 37.15625 21.921875 38.8125 
z
M 18.3125 54.390625 
Q 18.3125 48.734375 21.84375 45.5625 
Q 25.390625 42.390625 31.78125 42.390625 
Q 38.140625 42.390625 41.71875 45.5625 
Q 45.3125 48.734375 45.3125 54.390625 
Q 45.3125 60.0625 41.71875 63.234375 
Q 38.140625 66.40625 31.78125 66.40625 
Q 25.390625 66.40625 21.84375 63.234375 
Q 18.3125 60.0625 18.3125 54.390625 
z
" id="DejaVuSans-56"/>
      </defs>
      <g transform="translate(86.519424 322.182437)scale(0.1 -0.1)">
       <use xlink:href="#DejaVuSans-56"/>
      </g>
     </g>
    </g>
    <g id="xtick_4">
     <g id="line2d_7">
      <path clip-path="url(#pae20851a87)" d="M 105.751011 307.584 
L 105.751011 41.472 
" style="fill:none;stroke:#b0b0b0;stroke-dasharray:5.12,1.28,0.8,1.28;stroke-dashoffset:0;stroke-width:0.8;"/>
     </g>
     <g id="line2d_8">
      <g>
       <use style="stroke:#000000;stroke-width:0.8;" x="105.751011" xlink:href="#me5cb261027" y="307.584"/>
      </g>
     </g>
     <g id="text_4">
      <!-- 12 -->
      <defs>
       <path d="M 19.1875 8.296875 
L 53.609375 8.296875 
L 53.609375 0 
L 7.328125 0 
L 7.328125 8.296875 
Q 12.9375 14.109375 22.625 23.890625 
Q 32.328125 33.6875 34.8125 36.53125 
Q 39.546875 41.84375 41.421875 45.53125 
Q 43.3125 49.21875 43.3125 52.78125 
Q 43.3125 58.59375 39.234375 62.25 
Q 35.15625 65.921875 28.609375 65.921875 
Q 23.96875 65.921875 18.8125 64.3125 
Q 13.671875 62.703125 7.8125 59.421875 
L 7.8125 69.390625 
Q 13.765625 71.78125 18.9375 73 
Q 24.125 74.21875 28.421875 74.21875 
Q 39.75 74.21875 46.484375 68.546875 
Q 53.21875 62.890625 53.21875 53.421875 
Q 53.21875 48.921875 51.53125 44.890625 
Q 49.859375 40.875 45.40625 35.40625 
Q 44.1875 33.984375 37.640625 27.21875 
Q 31.109375 20.453125 19.1875 8.296875 
z
" id="DejaVuSans-50"/>
      </defs>
      <g transform="translate(99.388511 322.182437)scale(0.1 -0.1)">
       <use xlink:href="#DejaVuSans-49"/>
       <use x="63.623047" xlink:href="#DejaVuSans-50"/>
      </g>
     </g>
    </g>
    <g id="xtick_5">
     <g id="line2d_9">
      <path clip-path="url(#pae20851a87)" d="M 121.801348 307.584 
L 121.801348 41.472 
" style="fill:none;stroke:#b0b0b0;stroke-dasharray:5.12,1.28,0.8,1.28;stroke-dashoffset:0;stroke-width:0.8;"/>
     </g>
     <g id="line2d_10">
      <g>
       <use style="stroke:#000000;stroke-width:0.8;" x="121.801348" xlink:href="#me5cb261027" y="307.584"/>
      </g>
     </g>
     <g id="text_5">
      <!-- 16 -->
      <defs>
       <path d="M 33.015625 40.375 
Q 26.375 40.375 22.484375 35.828125 
Q 18.609375 31.296875 18.609375 23.390625 
Q 18.609375 15.53125 22.484375 10.953125 
Q 26.375 6.390625 33.015625 6.390625 
Q 39.65625 6.390625 43.53125 10.953125 
Q 47.40625 15.53125 47.40625 23.390625 
Q 47.40625 31.296875 43.53125 35.828125 
Q 39.65625 40.375 33.015625 40.375 
z
M 52.59375 71.296875 
L 52.59375 62.3125 
Q 48.875 64.0625 45.09375 64.984375 
Q 41.3125 65.921875 37.59375 65.921875 
Q 27.828125 65.921875 22.671875 59.328125 
Q 17.53125 52.734375 16.796875 39.40625 
Q 19.671875 43.65625 24.015625 45.921875 
Q 28.375 48.1875 33.59375 48.1875 
Q 44.578125 48.1875 50.953125 41.515625 
Q 57.328125 34.859375 57.328125 23.390625 
Q 57.328125 12.15625 50.6875 5.359375 
Q 44.046875 -1.421875 33.015625 -1.421875 
Q 20.359375 -1.421875 13.671875 8.265625 
Q 6.984375 17.96875 6.984375 36.375 
Q 6.984375 53.65625 15.1875 63.9375 
Q 23.390625 74.21875 37.203125 74.21875 
Q 40.921875 74.21875 44.703125 73.484375 
Q 48.484375 72.75 52.59375 71.296875 
z
" id="DejaVuSans-54"/>
      </defs>
      <g transform="translate(115.438848 322.182437)scale(0.1 -0.1)">
       <use xlink:href="#DejaVuSans-49"/>
       <use x="63.623047" xlink:href="#DejaVuSans-54"/>
      </g>
     </g>
    </g>
    <g id="xtick_6">
     <g id="line2d_11">
      <path clip-path="url(#pae20851a87)" d="M 137.851685 307.584 
L 137.851685 41.472 
" style="fill:none;stroke:#b0b0b0;stroke-dasharray:5.12,1.28,0.8,1.28;stroke-dashoffset:0;stroke-width:0.8;"/>
     </g>
     <g id="line2d_12">
      <g>
       <use style="stroke:#000000;stroke-width:0.8;" x="137.851685" xlink:href="#me5cb261027" y="307.584"/>
      </g>
     </g>
     <g id="text_6">
      <!-- 20 -->
      <defs>
       <path d="M 31.78125 66.40625 
Q 24.171875 66.40625 20.328125 58.90625 
Q 16.5 51.421875 16.5 36.375 
Q 16.5 21.390625 20.328125 13.890625 
Q 24.171875 6.390625 31.78125 6.390625 
Q 39.453125 6.390625 43.28125 13.890625 
Q 47.125 21.390625 47.125 36.375 
Q 47.125 51.421875 43.28125 58.90625 
Q 39.453125 66.40625 31.78125 66.40625 
z
M 31.78125 74.21875 
Q 44.046875 74.21875 50.515625 64.515625 
Q 56.984375 54.828125 56.984375 36.375 
Q 56.984375 17.96875 50.515625 8.265625 
Q 44.046875 -1.421875 31.78125 -1.421875 
Q 19.53125 -1.421875 13.0625 8.265625 
Q 6.59375 17.96875 6.59375 36.375 
Q 6.59375 54.828125 13.0625 64.515625 
Q 19.53125 74.21875 31.78125 74.21875 
z
" id="DejaVuSans-48"/>
      </defs>
      <g transform="translate(131.489185 322.182437)scale(0.1 -0.1)">
       <use xlink:href="#DejaVuSans-50"/>
       <use x="63.623047" xlink:href="#DejaVuSans-48"/>
      </g>
     </g>
    </g>
    <g id="xtick_7">
     <g id="line2d_13">
      <path clip-path="url(#pae20851a87)" d="M 153.902022 307.584 
L 153.902022 41.472 
" style="fill:none;stroke:#b0b0b0;stroke-dasharray:5.12,1.28,0.8,1.28;stroke-dashoffset:0;stroke-width:0.8;"/>
     </g>
     <g id="line2d_14">
      <g>
       <use style="stroke:#000000;stroke-width:0.8;" x="153.902022" xlink:href="#me5cb261027" y="307.584"/>
      </g>
     </g>
     <g id="text_7">
      <!-- 24 -->
      <g transform="translate(147.539522 322.182437)scale(0.1 -0.1)">
       <use xlink:href="#DejaVuSans-50"/>
       <use x="63.623047" xlink:href="#DejaVuSans-52"/>
      </g>
     </g>
    </g>
    <g id="xtick_8">
     <g id="line2d_15">
      <path clip-path="url(#pae20851a87)" d="M 169.95236 307.584 
L 169.95236 41.472 
" style="fill:none;stroke:#b0b0b0;stroke-dasharray:5.12,1.28,0.8,1.28;stroke-dashoffset:0;stroke-width:0.8;"/>
     </g>
     <g id="line2d_16">
      <g>
       <use style="stroke:#000000;stroke-width:0.8;" x="169.95236" xlink:href="#me5cb261027" y="307.584"/>
      </g>
     </g>
     <g id="text_8">
      <!-- 28 -->
      <g transform="translate(163.58986 322.182437)scale(0.1 -0.1)">
       <use xlink:href="#DejaVuSans-50"/>
       <use x="63.623047" xlink:href="#DejaVuSans-56"/>
      </g>
     </g>
    </g>
    <g id="xtick_9">
     <g id="line2d_17">
      <path clip-path="url(#pae20851a87)" d="M 186.002697 307.584 
L 186.002697 41.472 
" style="fill:none;stroke:#b0b0b0;stroke-dasharray:5.12,1.28,0.8,1.28;stroke-dashoffset:0;stroke-width:0.8;"/>
     </g>
     <g id="line2d_18">
      <g>
       <use style="stroke:#000000;stroke-width:0.8;" x="186.002697" xlink:href="#me5cb261027" y="307.584"/>
      </g>
     </g>
     <g id="text_9">
      <!-- 32 -->
      <defs>
       <path d="M 40.578125 39.3125 
Q 47.65625 37.796875 51.625 33 
Q 55.609375 28.21875 55.609375 21.1875 
Q 55.609375 10.40625 48.1875 4.484375 
Q 40.765625 -1.421875 27.09375 -1.421875 
Q 22.515625 -1.421875 17.65625 -0.515625 
Q 12.796875 0.390625 7.625 2.203125 
L 7.625 11.71875 
Q 11.71875 9.328125 16.59375 8.109375 
Q 21.484375 6.890625 26.8125 6.890625 
Q 36.078125 6.890625 40.9375 10.546875 
Q 45.796875 14.203125 45.796875 21.1875 
Q 45.796875 27.640625 41.28125 31.265625 
Q 36.765625 34.90625 28.71875 34.90625 
L 20.21875 34.90625 
L 20.21875 43.015625 
L 29.109375 43.015625 
Q 36.375 43.015625 40.234375 45.921875 
Q 44.09375 48.828125 44.09375 54.296875 
Q 44.09375 59.90625 40.109375 62.90625 
Q 36.140625 65.921875 28.71875 65.921875 
Q 24.65625 65.921875 20.015625 65.03125 
Q 15.375 64.15625 9.8125 62.3125 
L 9.8125 71.09375 
Q 15.4375 72.65625 20.34375 73.4375 
Q 25.25 74.21875 29.59375 74.21875 
Q 40.828125 74.21875 47.359375 69.109375 
Q 53.90625 64.015625 53.90625 55.328125 
Q 53.90625 49.265625 50.4375 45.09375 
Q 46.96875 40.921875 40.578125 39.3125 
z
" id="DejaVuSans-51"/>
      </defs>
      <g transform="translate(179.640197 322.182437)scale(0.1 -0.1)">
       <use xlink:href="#DejaVuSans-51"/>
       <use x="63.623047" xlink:href="#DejaVuSans-50"/>
      </g>
     </g>
    </g>
    <g id="xtick_10">
     <g id="line2d_19">
      <path clip-path="url(#pae20851a87)" d="M 202.053034 307.584 
L 202.053034 41.472 
" style="fill:none;stroke:#b0b0b0;stroke-dasharray:5.12,1.28,0.8,1.28;stroke-dashoffset:0;stroke-width:0.8;"/>
     </g>
     <g id="line2d_20">
      <g>
       <use style="stroke:#000000;stroke-width:0.8;" x="202.053034" xlink:href="#me5cb261027" y="307.584"/>
      </g>
     </g>
     <g id="text_10">
      <!-- 36 -->
      <g transform="translate(195.690534 322.182437)scale(0.1 -0.1)">
       <use xlink:href="#DejaVuSans-51"/>
       <use x="63.623047" xlink:href="#DejaVuSans-54"/>
      </g>
     </g>
    </g>
    <g id="xtick_11">
     <g id="line2d_21">
      <path clip-path="url(#pae20851a87)" d="M 218.103371 307.584 
L 218.103371 41.472 
" style="fill:none;stroke:#b0b0b0;stroke-dasharray:5.12,1.28,0.8,1.28;stroke-dashoffset:0;stroke-width:0.8;"/>
     </g>
     <g id="line2d_22">
      <g>
       <use style="stroke:#000000;stroke-width:0.8;" x="218.103371" xlink:href="#me5cb261027" y="307.584"/>
      </g>
     </g>
     <g id="text_11">
      <!-- 40 -->
      <g transform="translate(211.740871 322.182437)scale(0.1 -0.1)">
       <use xlink:href="#DejaVuSans-52"/>
       <use x="63.623047" xlink:href="#DejaVuSans-48"/>
      </g>
     </g>
    </g>
    <g id="xtick_12">
     <g id="line2d_23">
      <path clip-path="url(#pae20851a87)" d="M 234.153708 307.584 
L 234.153708 41.472 
" style="fill:none;stroke:#b0b0b0;stroke-dasharray:5.12,1.28,0.8,1.28;stroke-dashoffset:0;stroke-width:0.8;"/>
     </g>
     <g id="line2d_24">
      <g>
       <use style="stroke:#000000;stroke-width:0.8;" x="234.153708" xlink:href="#me5cb261027" y="307.584"/>
      </g>
     </g>
     <g id="text_12">
      <!-- 44 -->
      <g transform="translate(227.791208 322.182437)scale(0.1 -0.1)">
       <use xlink:href="#DejaVuSans-52"/>
       <use x="63.623047" xlink:href="#DejaVuSans-52"/>
      </g>
     </g>
    </g>
    <g id="xtick_13">
     <g id="line2d_25">
      <path clip-path="url(#pae20851a87)" d="M 250.204045 307.584 
L 250.204045 41.472 
" style="fill:none;stroke:#b0b0b0;stroke-dasharray:5.12,1.28,0.8,1.28;stroke-dashoffset:0;stroke-width:0.8;"/>
     </g>
     <g id="line2d_26">
      <g>
       <use style="stroke:#000000;stroke-width:0.8;" x="250.204045" xlink:href="#me5cb261027" y="307.584"/>
      </g>
     </g>
     <g id="text_13">
      <!-- 48 -->
      <g transform="translate(243.841545 322.182437)scale(0.1 -0.1)">
       <use xlink:href="#DejaVuSans-52"/>
       <use x="63.623047" xlink:href="#DejaVuSans-56"/>
      </g>
     </g>
    </g>
    <g id="xtick_14">
     <g id="line2d_27">
      <path clip-path="url(#pae20851a87)" d="M 266.254382 307.584 
L 266.254382 41.472 
" style="fill:none;stroke:#b0b0b0;stroke-dasharray:5.12,1.28,0.8,1.28;stroke-dashoffset:0;stroke-width:0.8;"/>
     </g>
     <g id="line2d_28">
      <g>
       <use style="stroke:#000000;stroke-width:0.8;" x="266.254382" xlink:href="#me5cb261027" y="307.584"/>
      </g>
     </g>
     <g id="text_14">
      <!-- 52 -->
      <defs>
       <path d="M 10.796875 72.90625 
L 49.515625 72.90625 
L 49.515625 64.59375 
L 19.828125 64.59375 
L 19.828125 46.734375 
Q 21.96875 47.46875 24.109375 47.828125 
Q 26.265625 48.1875 28.421875 48.1875 
Q 40.625 48.1875 47.75 41.5 
Q 54.890625 34.8125 54.890625 23.390625 
Q 54.890625 11.625 47.5625 5.09375 
Q 40.234375 -1.421875 26.90625 -1.421875 
Q 22.3125 -1.421875 17.546875 -0.640625 
Q 12.796875 0.140625 7.71875 1.703125 
L 7.71875 11.625 
Q 12.109375 9.234375 16.796875 8.0625 
Q 21.484375 6.890625 26.703125 6.890625 
Q 35.15625 6.890625 40.078125 11.328125 
Q 45.015625 15.765625 45.015625 23.390625 
Q 45.015625 31 40.078125 35.4375 
Q 35.15625 39.890625 26.703125 39.890625 
Q 22.75 39.890625 18.8125 39.015625 
Q 14.890625 38.140625 10.796875 36.28125 
z
" id="DejaVuSans-53"/>
      </defs>
      <g transform="translate(259.891882 322.182437)scale(0.1 -0.1)">
       <use xlink:href="#DejaVuSans-53"/>
       <use x="63.623047" xlink:href="#DejaVuSans-50"/>
      </g>
     </g>
    </g>
    <g id="xtick_15">
     <g id="line2d_29">
      <path clip-path="url(#pae20851a87)" d="M 282.304719 307.584 
L 282.304719 41.472 
" style="fill:none;stroke:#b0b0b0;stroke-dasharray:5.12,1.28,0.8,1.28;stroke-dashoffset:0;stroke-width:0.8;"/>
     </g>
     <g id="line2d_30">
      <g>
       <use style="stroke:#000000;stroke-width:0.8;" x="282.304719" xlink:href="#me5cb261027" y="307.584"/>
      </g>
     </g>
     <g id="text_15">
      <!-- 56 -->
      <g transform="translate(275.942219 322.182437)scale(0.1 -0.1)">
       <use xlink:href="#DejaVuSans-53"/>
       <use x="63.623047" xlink:href="#DejaVuSans-54"/>
      </g>
     </g>
    </g>
    <g id="xtick_16">
     <g id="line2d_31">
      <path clip-path="url(#pae20851a87)" d="M 298.355056 307.584 
L 298.355056 41.472 
" style="fill:none;stroke:#b0b0b0;stroke-dasharray:5.12,1.28,0.8,1.28;stroke-dashoffset:0;stroke-width:0.8;"/>
     </g>
     <g id="line2d_32">
      <g>
       <use style="stroke:#000000;stroke-width:0.8;" x="298.355056" xlink:href="#me5cb261027" y="307.584"/>
      </g>
     </g>
     <g id="text_16">
      <!-- 60 -->
      <g transform="translate(291.992556 322.182437)scale(0.1 -0.1)">
       <use xlink:href="#DejaVuSans-54"/>
       <use x="63.623047" xlink:href="#DejaVuSans-48"/>
      </g>
     </g>
    </g>
    <g id="xtick_17">
     <g id="line2d_33">
      <path clip-path="url(#pae20851a87)" d="M 314.405393 307.584 
L 314.405393 41.472 
" style="fill:none;stroke:#b0b0b0;stroke-dasharray:5.12,1.28,0.8,1.28;stroke-dashoffset:0;stroke-width:0.8;"/>
     </g>
     <g id="line2d_34">
      <g>
       <use style="stroke:#000000;stroke-width:0.8;" x="314.405393" xlink:href="#me5cb261027" y="307.584"/>
      </g>
     </g>
     <g id="text_17">
      <!-- 64 -->
      <g transform="translate(308.042893 322.182437)scale(0.1 -0.1)">
       <use xlink:href="#DejaVuSans-54"/>
       <use x="63.623047" xlink:href="#DejaVuSans-52"/>
      </g>
     </g>
    </g>
    <g id="xtick_18">
     <g id="line2d_35">
      <path clip-path="url(#pae20851a87)" d="M 330.45573 307.584 
L 330.45573 41.472 
" style="fill:none;stroke:#b0b0b0;stroke-dasharray:5.12,1.28,0.8,1.28;stroke-dashoffset:0;stroke-width:0.8;"/>
     </g>
     <g id="line2d_36">
      <g>
       <use style="stroke:#000000;stroke-width:0.8;" x="330.45573" xlink:href="#me5cb261027" y="307.584"/>
      </g>
     </g>
     <g id="text_18">
      <!-- 68 -->
      <g transform="translate(324.09323 322.182437)scale(0.1 -0.1)">
       <use xlink:href="#DejaVuSans-54"/>
       <use x="63.623047" xlink:href="#DejaVuSans-56"/>
      </g>
     </g>
    </g>
    <g id="xtick_19">
     <g id="line2d_37">
      <path clip-path="url(#pae20851a87)" d="M 346.506067 307.584 
L 346.506067 41.472 
" style="fill:none;stroke:#b0b0b0;stroke-dasharray:5.12,1.28,0.8,1.28;stroke-dashoffset:0;stroke-width:0.8;"/>
     </g>
     <g id="line2d_38">
      <g>
       <use style="stroke:#000000;stroke-width:0.8;" x="346.506067" xlink:href="#me5cb261027" y="307.584"/>
      </g>
     </g>
     <g id="text_19">
      <!-- 72 -->
      <defs>
       <path d="M 8.203125 72.90625 
L 55.078125 72.90625 
L 55.078125 68.703125 
L 28.609375 0 
L 18.3125 0 
L 43.21875 64.59375 
L 8.203125 64.59375 
z
" id="DejaVuSans-55"/>
      </defs>
      <g transform="translate(340.143567 322.182437)scale(0.1 -0.1)">
       <use xlink:href="#DejaVuSans-55"/>
       <use x="63.623047" xlink:href="#DejaVuSans-50"/>
      </g>
     </g>
    </g>
    <g id="xtick_20">
     <g id="line2d_39">
      <path clip-path="url(#pae20851a87)" d="M 362.556404 307.584 
L 362.556404 41.472 
" style="fill:none;stroke:#b0b0b0;stroke-dasharray:5.12,1.28,0.8,1.28;stroke-dashoffset:0;stroke-width:0.8;"/>
     </g>
     <g id="line2d_40">
      <g>
       <use style="stroke:#000000;stroke-width:0.8;" x="362.556404" xlink:href="#me5cb261027" y="307.584"/>
      </g>
     </g>
     <g id="text_20">
      <!-- 76 -->
      <g transform="translate(356.193904 322.182437)scale(0.1 -0.1)">
       <use xlink:href="#DejaVuSans-55"/>
       <use x="63.623047" xlink:href="#DejaVuSans-54"/>
      </g>
     </g>
    </g>
    <g id="xtick_21">
     <g id="line2d_41">
      <path clip-path="url(#pae20851a87)" d="M 378.606742 307.584 
L 378.606742 41.472 
" style="fill:none;stroke:#b0b0b0;stroke-dasharray:5.12,1.28,0.8,1.28;stroke-dashoffset:0;stroke-width:0.8;"/>
     </g>
     <g id="line2d_42">
      <g>
       <use style="stroke:#000000;stroke-width:0.8;" x="378.606742" xlink:href="#me5cb261027" y="307.584"/>
      </g>
     </g>
     <g id="text_21">
      <!-- 80 -->
      <g transform="translate(372.244242 322.182437)scale(0.1 -0.1)">
       <use xlink:href="#DejaVuSans-56"/>
       <use x="63.623047" xlink:href="#DejaVuSans-48"/>
      </g>
     </g>
    </g>
    <g id="xtick_22">
     <g id="line2d_43">
      <path clip-path="url(#pae20851a87)" d="M 394.657079 307.584 
L 394.657079 41.472 
" style="fill:none;stroke:#b0b0b0;stroke-dasharray:5.12,1.28,0.8,1.28;stroke-dashoffset:0;stroke-width:0.8;"/>
     </g>
     <g id="line2d_44">
      <g>
       <use style="stroke:#000000;stroke-width:0.8;" x="394.657079" xlink:href="#me5cb261027" y="307.584"/>
      </g>
     </g>
     <g id="text_22">
      <!-- 84 -->
      <g transform="translate(388.294579 322.182437)scale(0.1 -0.1)">
       <use xlink:href="#DejaVuSans-56"/>
       <use x="63.623047" xlink:href="#DejaVuSans-52"/>
      </g>
     </g>
    </g>
    <g id="xtick_23">
     <g id="line2d_45">
      <path clip-path="url(#pae20851a87)" d="M 410.707416 307.584 
L 410.707416 41.472 
" style="fill:none;stroke:#b0b0b0;stroke-dasharray:5.12,1.28,0.8,1.28;stroke-dashoffset:0;stroke-width:0.8;"/>
     </g>
     <g id="line2d_46">
      <g>
       <use style="stroke:#000000;stroke-width:0.8;" x="410.707416" xlink:href="#me5cb261027" y="307.584"/>
      </g>
     </g>
     <g id="text_23">
      <!-- 88 -->
      <g transform="translate(404.344916 322.182437)scale(0.1 -0.1)">
       <use xlink:href="#DejaVuSans-56"/>
       <use x="63.623047" xlink:href="#DejaVuSans-56"/>
      </g>
     </g>
    </g>
    <g id="text_24">
     <!-- threads -->
     <defs>
      <path d="M 18.3125 70.21875 
L 18.3125 54.6875 
L 36.8125 54.6875 
L 36.8125 47.703125 
L 18.3125 47.703125 
L 18.3125 18.015625 
Q 18.3125 11.328125 20.140625 9.421875 
Q 21.96875 7.515625 27.59375 7.515625 
L 36.8125 7.515625 
L 36.8125 0 
L 27.59375 0 
Q 17.1875 0 13.234375 3.875 
Q 9.28125 7.765625 9.28125 18.015625 
L 9.28125 47.703125 
L 2.6875 47.703125 
L 2.6875 54.6875 
L 9.28125 54.6875 
L 9.28125 70.21875 
z
" id="DejaVuSans-116"/>
      <path d="M 54.890625 33.015625 
L 54.890625 0 
L 45.90625 0 
L 45.90625 32.71875 
Q 45.90625 40.484375 42.875 44.328125 
Q 39.84375 48.1875 33.796875 48.1875 
Q 26.515625 48.1875 22.3125 43.546875 
Q 18.109375 38.921875 18.109375 30.90625 
L 18.109375 0 
L 9.078125 0 
L 9.078125 75.984375 
L 18.109375 75.984375 
L 18.109375 46.1875 
Q 21.34375 51.125 25.703125 53.5625 
Q 30.078125 56 35.796875 56 
Q 45.21875 56 50.046875 50.171875 
Q 54.890625 44.34375 54.890625 33.015625 
z
" id="DejaVuSans-104"/>
      <path d="M 41.109375 46.296875 
Q 39.59375 47.171875 37.8125 47.578125 
Q 36.03125 48 33.890625 48 
Q 26.265625 48 22.1875 43.046875 
Q 18.109375 38.09375 18.109375 28.8125 
L 18.109375 0 
L 9.078125 0 
L 9.078125 54.6875 
L 18.109375 54.6875 
L 18.109375 46.1875 
Q 20.953125 51.171875 25.484375 53.578125 
Q 30.03125 56 36.53125 56 
Q 37.453125 56 38.578125 55.875 
Q 39.703125 55.765625 41.0625 55.515625 
z
" id="DejaVuSans-114"/>
      <path d="M 56.203125 29.59375 
L 56.203125 25.203125 
L 14.890625 25.203125 
Q 15.484375 15.921875 20.484375 11.0625 
Q 25.484375 6.203125 34.421875 6.203125 
Q 39.59375 6.203125 44.453125 7.46875 
Q 49.3125 8.734375 54.109375 11.28125 
L 54.109375 2.78125 
Q 49.265625 0.734375 44.1875 -0.34375 
Q 39.109375 -1.421875 33.890625 -1.421875 
Q 20.796875 -1.421875 13.15625 6.1875 
Q 5.515625 13.8125 5.515625 26.8125 
Q 5.515625 40.234375 12.765625 48.109375 
Q 20.015625 56 32.328125 56 
Q 43.359375 56 49.78125 48.890625 
Q 56.203125 41.796875 56.203125 29.59375 
z
M 47.21875 32.234375 
Q 47.125 39.59375 43.09375 43.984375 
Q 39.0625 48.390625 32.421875 48.390625 
Q 24.90625 48.390625 20.390625 44.140625 
Q 15.875 39.890625 15.1875 32.171875 
z
" id="DejaVuSans-101"/>
      <path d="M 34.28125 27.484375 
Q 23.390625 27.484375 19.1875 25 
Q 14.984375 22.515625 14.984375 16.5 
Q 14.984375 11.71875 18.140625 8.90625 
Q 21.296875 6.109375 26.703125 6.109375 
Q 34.1875 6.109375 38.703125 11.40625 
Q 43.21875 16.703125 43.21875 25.484375 
L 43.21875 27.484375 
z
M 52.203125 31.203125 
L 52.203125 0 
L 43.21875 0 
L 43.21875 8.296875 
Q 40.140625 3.328125 35.546875 0.953125 
Q 30.953125 -1.421875 24.3125 -1.421875 
Q 15.921875 -1.421875 10.953125 3.296875 
Q 6 8.015625 6 15.921875 
Q 6 25.140625 12.171875 29.828125 
Q 18.359375 34.515625 30.609375 34.515625 
L 43.21875 34.515625 
L 43.21875 35.40625 
Q 43.21875 41.609375 39.140625 45 
Q 35.0625 48.390625 27.6875 48.390625 
Q 23 48.390625 18.546875 47.265625 
Q 14.109375 46.140625 10.015625 43.890625 
L 10.015625 52.203125 
Q 14.9375 54.109375 19.578125 55.046875 
Q 24.21875 56 28.609375 56 
Q 40.484375 56 46.34375 49.84375 
Q 52.203125 43.703125 52.203125 31.203125 
z
" id="DejaVuSans-97"/>
      <path d="M 45.40625 46.390625 
L 45.40625 75.984375 
L 54.390625 75.984375 
L 54.390625 0 
L 45.40625 0 
L 45.40625 8.203125 
Q 42.578125 3.328125 38.25 0.953125 
Q 33.9375 -1.421875 27.875 -1.421875 
Q 17.96875 -1.421875 11.734375 6.484375 
Q 5.515625 14.40625 5.515625 27.296875 
Q 5.515625 40.1875 11.734375 48.09375 
Q 17.96875 56 27.875 56 
Q 33.9375 56 38.25 53.625 
Q 42.578125 51.265625 45.40625 46.390625 
z
M 14.796875 27.296875 
Q 14.796875 17.390625 18.875 11.75 
Q 22.953125 6.109375 30.078125 6.109375 
Q 37.203125 6.109375 41.296875 11.75 
Q 45.40625 17.390625 45.40625 27.296875 
Q 45.40625 37.203125 41.296875 42.84375 
Q 37.203125 48.484375 30.078125 48.484375 
Q 22.953125 48.484375 18.875 42.84375 
Q 14.796875 37.203125 14.796875 27.296875 
z
" id="DejaVuSans-100"/>
      <path d="M 44.28125 53.078125 
L 44.28125 44.578125 
Q 40.484375 46.53125 36.375 47.5 
Q 32.28125 48.484375 27.875 48.484375 
Q 21.1875 48.484375 17.84375 46.4375 
Q 14.5 44.390625 14.5 40.28125 
Q 14.5 37.15625 16.890625 35.375 
Q 19.28125 33.59375 26.515625 31.984375 
L 29.59375 31.296875 
Q 39.15625 29.25 43.1875 25.515625 
Q 47.21875 21.78125 47.21875 15.09375 
Q 47.21875 7.46875 41.1875 3.015625 
Q 35.15625 -1.421875 24.609375 -1.421875 
Q 20.21875 -1.421875 15.453125 -0.5625 
Q 10.6875 0.296875 5.421875 2 
L 5.421875 11.28125 
Q 10.40625 8.6875 15.234375 7.390625 
Q 20.0625 6.109375 24.8125 6.109375 
Q 31.15625 6.109375 34.5625 8.28125 
Q 37.984375 10.453125 37.984375 14.40625 
Q 37.984375 18.0625 35.515625 20.015625 
Q 33.0625 21.96875 24.703125 23.78125 
L 21.578125 24.515625 
Q 13.234375 26.265625 9.515625 29.90625 
Q 5.8125 33.546875 5.8125 39.890625 
Q 5.8125 47.609375 11.28125 51.796875 
Q 16.75 56 26.8125 56 
Q 31.78125 56 36.171875 55.265625 
Q 40.578125 54.546875 44.28125 53.078125 
z
" id="DejaVuSans-115"/>
     </defs>
     <g transform="translate(217.168594 335.860562)scale(0.1 -0.1)">
      <use xlink:href="#DejaVuSans-116"/>
      <use x="39.208984" xlink:href="#DejaVuSans-104"/>
      <use x="102.587891" xlink:href="#DejaVuSans-114"/>
      <use x="141.451172" xlink:href="#DejaVuSans-101"/>
      <use x="202.974609" xlink:href="#DejaVuSans-97"/>
      <use x="264.253906" xlink:href="#DejaVuSans-100"/>
      <use x="327.730469" xlink:href="#DejaVuSans-115"/>
     </g>
    </g>
   </g>
   <g id="matplotlib.axis_2">
    <g id="ytick_1">
     <g id="line2d_47">
      <path clip-path="url(#pae20851a87)" d="M 57.6 280.85219 
L 414.72 280.85219 
" style="fill:none;stroke:#b0b0b0;stroke-dasharray:5.12,1.28,0.8,1.28;stroke-dashoffset:0;stroke-width:0.8;"/>
     </g>
     <g id="line2d_48">
      <defs>
       <path d="M 0 0 
L -3.5 0 
" id="m558b87511d" style="stroke:#000000;stroke-width:0.8;"/>
      </defs>
      <g>
       <use style="stroke:#000000;stroke-width:0.8;" x="57.6" xlink:href="#m558b87511d" y="280.85219"/>
      </g>
     </g>
     <g id="text_25">
      <!-- 0.2 -->
      <defs>
       <path d="M 10.6875 12.40625 
L 21 12.40625 
L 21 0 
L 10.6875 0 
z
" id="DejaVuSans-46"/>
      </defs>
      <g transform="translate(34.696875 284.651408)scale(0.1 -0.1)">
       <use xlink:href="#DejaVuSans-48"/>
       <use x="63.623047" xlink:href="#DejaVuSans-46"/>
       <use x="95.410156" xlink:href="#DejaVuSans-50"/>
      </g>
     </g>
    </g>
    <g id="ytick_2">
     <g id="line2d_49">
      <path clip-path="url(#pae20851a87)" d="M 57.6 234.745714 
L 414.72 234.745714 
" style="fill:none;stroke:#b0b0b0;stroke-dasharray:5.12,1.28,0.8,1.28;stroke-dashoffset:0;stroke-width:0.8;"/>
     </g>
     <g id="line2d_50">
      <g>
       <use style="stroke:#000000;stroke-width:0.8;" x="57.6" xlink:href="#m558b87511d" y="234.745714"/>
      </g>
     </g>
     <g id="text_26">
      <!-- 0.4 -->
      <g transform="translate(34.696875 238.544933)scale(0.1 -0.1)">
       <use xlink:href="#DejaVuSans-48"/>
       <use x="63.623047" xlink:href="#DejaVuSans-46"/>
       <use x="95.410156" xlink:href="#DejaVuSans-52"/>
      </g>
     </g>
    </g>
    <g id="ytick_3">
     <g id="line2d_51">
      <path clip-path="url(#pae20851a87)" d="M 57.6 188.639238 
L 414.72 188.639238 
" style="fill:none;stroke:#b0b0b0;stroke-dasharray:5.12,1.28,0.8,1.28;stroke-dashoffset:0;stroke-width:0.8;"/>
     </g>
     <g id="line2d_52">
      <g>
       <use style="stroke:#000000;stroke-width:0.8;" x="57.6" xlink:href="#m558b87511d" y="188.639238"/>
      </g>
     </g>
     <g id="text_27">
      <!-- 0.6 -->
      <g transform="translate(34.696875 192.438457)scale(0.1 -0.1)">
       <use xlink:href="#DejaVuSans-48"/>
       <use x="63.623047" xlink:href="#DejaVuSans-46"/>
       <use x="95.410156" xlink:href="#DejaVuSans-54"/>
      </g>
     </g>
    </g>
    <g id="ytick_4">
     <g id="line2d_53">
      <path clip-path="url(#pae20851a87)" d="M 57.6 142.532763 
L 414.72 142.532763 
" style="fill:none;stroke:#b0b0b0;stroke-dasharray:5.12,1.28,0.8,1.28;stroke-dashoffset:0;stroke-width:0.8;"/>
     </g>
     <g id="line2d_54">
      <g>
       <use style="stroke:#000000;stroke-width:0.8;" x="57.6" xlink:href="#m558b87511d" y="142.532763"/>
      </g>
     </g>
     <g id="text_28">
      <!-- 0.8 -->
      <g transform="translate(34.696875 146.331981)scale(0.1 -0.1)">
       <use xlink:href="#DejaVuSans-48"/>
       <use x="63.623047" xlink:href="#DejaVuSans-46"/>
       <use x="95.410156" xlink:href="#DejaVuSans-56"/>
      </g>
     </g>
    </g>
    <g id="ytick_5">
     <g id="line2d_55">
      <path clip-path="url(#pae20851a87)" d="M 57.6 96.426287 
L 414.72 96.426287 
" style="fill:none;stroke:#b0b0b0;stroke-dasharray:5.12,1.28,0.8,1.28;stroke-dashoffset:0;stroke-width:0.8;"/>
     </g>
     <g id="line2d_56">
      <g>
       <use style="stroke:#000000;stroke-width:0.8;" x="57.6" xlink:href="#m558b87511d" y="96.426287"/>
      </g>
     </g>
     <g id="text_29">
      <!-- 1.0 -->
      <g transform="translate(34.696875 100.225506)scale(0.1 -0.1)">
       <use xlink:href="#DejaVuSans-49"/>
       <use x="63.623047" xlink:href="#DejaVuSans-46"/>
       <use x="95.410156" xlink:href="#DejaVuSans-48"/>
      </g>
     </g>
    </g>
    <g id="ytick_6">
     <g id="line2d_57">
      <path clip-path="url(#pae20851a87)" d="M 57.6 50.319811 
L 414.72 50.319811 
" style="fill:none;stroke:#b0b0b0;stroke-dasharray:5.12,1.28,0.8,1.28;stroke-dashoffset:0;stroke-width:0.8;"/>
     </g>
     <g id="line2d_58">
      <g>
       <use style="stroke:#000000;stroke-width:0.8;" x="57.6" xlink:href="#m558b87511d" y="50.319811"/>
      </g>
     </g>
     <g id="text_30">
      <!-- 1.2 -->
      <g transform="translate(34.696875 54.11903)scale(0.1 -0.1)">
       <use xlink:href="#DejaVuSans-49"/>
       <use x="63.623047" xlink:href="#DejaVuSans-46"/>
       <use x="95.410156" xlink:href="#DejaVuSans-50"/>
      </g>
     </g>
    </g>
    <g id="text_31">
     <!-- duration (s) -->
     <defs>
      <path d="M 8.5 21.578125 
L 8.5 54.6875 
L 17.484375 54.6875 
L 17.484375 21.921875 
Q 17.484375 14.15625 20.5 10.265625 
Q 23.53125 6.390625 29.59375 6.390625 
Q 36.859375 6.390625 41.078125 11.03125 
Q 45.3125 15.671875 45.3125 23.6875 
L 45.3125 54.6875 
L 54.296875 54.6875 
L 54.296875 0 
L 45.3125 0 
L 45.3125 8.40625 
Q 42.046875 3.421875 37.71875 1 
Q 33.40625 -1.421875 27.6875 -1.421875 
Q 18.265625 -1.421875 13.375 4.4375 
Q 8.5 10.296875 8.5 21.578125 
z
M 31.109375 56 
z
" id="DejaVuSans-117"/>
      <path d="M 9.421875 54.6875 
L 18.40625 54.6875 
L 18.40625 0 
L 9.421875 0 
z
M 9.421875 75.984375 
L 18.40625 75.984375 
L 18.40625 64.59375 
L 9.421875 64.59375 
z
" id="DejaVuSans-105"/>
      <path d="M 30.609375 48.390625 
Q 23.390625 48.390625 19.1875 42.75 
Q 14.984375 37.109375 14.984375 27.296875 
Q 14.984375 17.484375 19.15625 11.84375 
Q 23.34375 6.203125 30.609375 6.203125 
Q 37.796875 6.203125 41.984375 11.859375 
Q 46.1875 17.53125 46.1875 27.296875 
Q 46.1875 37.015625 41.984375 42.703125 
Q 37.796875 48.390625 30.609375 48.390625 
z
M 30.609375 56 
Q 42.328125 56 49.015625 48.375 
Q 55.71875 40.765625 55.71875 27.296875 
Q 55.71875 13.875 49.015625 6.21875 
Q 42.328125 -1.421875 30.609375 -1.421875 
Q 18.84375 -1.421875 12.171875 6.21875 
Q 5.515625 13.875 5.515625 27.296875 
Q 5.515625 40.765625 12.171875 48.375 
Q 18.84375 56 30.609375 56 
z
" id="DejaVuSans-111"/>
      <path d="M 54.890625 33.015625 
L 54.890625 0 
L 45.90625 0 
L 45.90625 32.71875 
Q 45.90625 40.484375 42.875 44.328125 
Q 39.84375 48.1875 33.796875 48.1875 
Q 26.515625 48.1875 22.3125 43.546875 
Q 18.109375 38.921875 18.109375 30.90625 
L 18.109375 0 
L 9.078125 0 
L 9.078125 54.6875 
L 18.109375 54.6875 
L 18.109375 46.1875 
Q 21.34375 51.125 25.703125 53.5625 
Q 30.078125 56 35.796875 56 
Q 45.21875 56 50.046875 50.171875 
Q 54.890625 44.34375 54.890625 33.015625 
z
" id="DejaVuSans-110"/>
      <path id="DejaVuSans-32"/>
      <path d="M 31 75.875 
Q 24.46875 64.65625 21.28125 53.65625 
Q 18.109375 42.671875 18.109375 31.390625 
Q 18.109375 20.125 21.3125 9.0625 
Q 24.515625 -2 31 -13.1875 
L 23.1875 -13.1875 
Q 15.875 -1.703125 12.234375 9.375 
Q 8.59375 20.453125 8.59375 31.390625 
Q 8.59375 42.28125 12.203125 53.3125 
Q 15.828125 64.359375 23.1875 75.875 
z
" id="DejaVuSans-40"/>
      <path d="M 8.015625 75.875 
L 15.828125 75.875 
Q 23.140625 64.359375 26.78125 53.3125 
Q 30.421875 42.28125 30.421875 31.390625 
Q 30.421875 20.453125 26.78125 9.375 
Q 23.140625 -1.703125 15.828125 -13.1875 
L 8.015625 -13.1875 
Q 14.5 -2 17.703125 9.0625 
Q 20.90625 20.125 20.90625 31.390625 
Q 20.90625 42.671875 17.703125 53.65625 
Q 14.5 64.65625 8.015625 75.875 
z
" id="DejaVuSans-41"/>
     </defs>
     <g transform="translate(28.617187 203.663156)rotate(-90)scale(0.1 -0.1)">
      <use xlink:href="#DejaVuSans-100"/>
      <use x="63.476562" xlink:href="#DejaVuSans-117"/>
      <use x="126.855469" xlink:href="#DejaVuSans-114"/>
      <use x="167.96875" xlink:href="#DejaVuSans-97"/>
      <use x="229.248047" xlink:href="#DejaVuSans-116"/>
      <use x="268.457031" xlink:href="#DejaVuSans-105"/>
      <use x="296.240234" xlink:href="#DejaVuSans-111"/>
      <use x="357.421875" xlink:href="#DejaVuSans-110"/>
      <use x="420.800781" xlink:href="#DejaVuSans-32"/>
      <use x="452.587891" xlink:href="#DejaVuSans-40"/>
      <use x="491.601562" xlink:href="#DejaVuSans-115"/>
      <use x="543.701172" xlink:href="#DejaVuSans-41"/>
     </g>
    </g>
   </g>
   <g id="line2d_59">
    <path clip-path="url(#pae20851a87)" d="M 61.612584 64.701307 
L 65.625169 137.544321 
L 69.637753 191.095731 
L 73.650337 219.107515 
L 77.662921 237.536205 
L 81.675506 249.258192 
L 85.68809 259.649998 
L 89.700674 263.980282 
L 93.713258 270.229637 
L 97.725843 273.772015 
L 101.738427 277.180056 
L 105.751011 279.707586 
L 109.763596 282.183128 
L 113.77618 283.450556 
L 117.788764 284.815669 
L 121.801348 286.84868 
L 125.813933 288.249935 
L 129.826517 289.073441 
L 133.839101 290.313458 
L 137.851685 291.256179 
L 141.86427 291.914772 
L 145.876854 292.377483 
L 149.889438 293.150454 
L 153.902022 293.319019 
L 157.914607 293.341679 
L 161.927191 293.095122 
L 165.939775 293.51022 
L 169.95236 293.83393 
L 173.964944 293.373267 
L 177.977528 293.97173 
L 181.990112 293.871297 
L 186.002697 294.200063 
L 190.015281 294.92414 
L 194.027865 294.990771 
L 198.040449 294.768343 
L 202.053034 294.873708 
L 206.065618 294.98895 
L 210.078202 295.348236 
L 214.090787 294.816248 
L 218.103371 295.42842 
L 222.115955 294.770063 
L 226.128539 295.11213 
L 230.141124 294.99615 
L 234.153708 295.488 
L 238.166292 291.181578 
L 242.178876 291.595545 
L 246.191461 291.933381 
L 250.204045 292.290013 
L 254.216629 292.613919 
L 258.229213 292.832092 
L 262.241798 293.071849 
L 266.254382 293.333835 
L 270.266966 293.411624 
L 274.279551 293.652818 
L 278.292135 293.700777 
L 282.304719 293.871391 
L 286.317303 293.924383 
L 290.329888 294.104089 
L 294.342472 294.057316 
L 298.355056 294.278919 
L 302.36764 294.336356 
L 306.380225 294.305035 
L 310.392809 294.208048 
L 314.405393 294.376503 
L 318.417978 294.366892 
L 322.430562 294.26989 
L 326.443146 293.988109 
L 330.45573 293.946361 
L 334.468315 294.126985 
L 338.480899 293.85944 
L 342.493483 294.069675 
L 346.506067 294.172416 
L 350.518652 294.094541 
L 354.531236 294.279822 
L 358.54382 294.277671 
L 362.556404 294.094172 
L 366.568989 294.274444 
L 370.581573 294.160372 
L 374.594157 294.417827 
L 378.606742 294.212673 
L 382.619326 294.533109 
L 386.63191 294.600439 
L 390.644494 294.566353 
L 394.657079 294.671718 
L 398.669663 294.53778 
L 402.682247 294.538998 
L 406.694831 294.551294 
L 410.707416 294.429165 
" style="fill:none;stroke:#0000ff;stroke-dasharray:1.5,2.475;stroke-dashoffset:0;stroke-width:1.5;"/>
    <defs>
     <path d="M 0 1.5 
C 0.397805 1.5 0.77937 1.341951 1.06066 1.06066 
C 1.341951 0.77937 1.5 0.397805 1.5 0 
C 1.5 -0.397805 1.341951 -0.77937 1.06066 -1.06066 
C 0.77937 -1.341951 0.397805 -1.5 0 -1.5 
C -0.397805 -1.5 -0.77937 -1.341951 -1.06066 -1.06066 
C -1.341951 -0.77937 -1.5 -0.397805 -1.5 0 
C -1.5 0.397805 -1.341951 0.77937 -1.06066 1.06066 
C -0.77937 1.341951 -0.397805 1.5 0 1.5 
z
" id="m325bef5985" style="stroke:#0000ff;"/>
    </defs>
    <g clip-path="url(#pae20851a87)">
     <use style="fill:#0000ff;stroke:#0000ff;" x="61.612584" xlink:href="#m325bef5985" y="64.701307"/>
     <use style="fill:#0000ff;stroke:#0000ff;" x="65.625169" xlink:href="#m325bef5985" y="137.544321"/>
     <use style="fill:#0000ff;stroke:#0000ff;" x="69.637753" xlink:href="#m325bef5985" y="191.095731"/>
     <use style="fill:#0000ff;stroke:#0000ff;" x="73.650337" xlink:href="#m325bef5985" y="219.107515"/>
     <use style="fill:#0000ff;stroke:#0000ff;" x="77.662921" xlink:href="#m325bef5985" y="237.536205"/>
     <use style="fill:#0000ff;stroke:#0000ff;" x="81.675506" xlink:href="#m325bef5985" y="249.258192"/>
     <use style="fill:#0000ff;stroke:#0000ff;" x="85.68809" xlink:href="#m325bef5985" y="259.649998"/>
     <use style="fill:#0000ff;stroke:#0000ff;" x="89.700674" xlink:href="#m325bef5985" y="263.980282"/>
     <use style="fill:#0000ff;stroke:#0000ff;" x="93.713258" xlink:href="#m325bef5985" y="270.229637"/>
     <use style="fill:#0000ff;stroke:#0000ff;" x="97.725843" xlink:href="#m325bef5985" y="273.772015"/>
     <use style="fill:#0000ff;stroke:#0000ff;" x="101.738427" xlink:href="#m325bef5985" y="277.180056"/>
     <use style="fill:#0000ff;stroke:#0000ff;" x="105.751011" xlink:href="#m325bef5985" y="279.707586"/>
     <use style="fill:#0000ff;stroke:#0000ff;" x="109.763596" xlink:href="#m325bef5985" y="282.183128"/>
     <use style="fill:#0000ff;stroke:#0000ff;" x="113.77618" xlink:href="#m325bef5985" y="283.450556"/>
     <use style="fill:#0000ff;stroke:#0000ff;" x="117.788764" xlink:href="#m325bef5985" y="284.815669"/>
     <use style="fill:#0000ff;stroke:#0000ff;" x="121.801348" xlink:href="#m325bef5985" y="286.84868"/>
     <use style="fill:#0000ff;stroke:#0000ff;" x="125.813933" xlink:href="#m325bef5985" y="288.249935"/>
     <use style="fill:#0000ff;stroke:#0000ff;" x="129.826517" xlink:href="#m325bef5985" y="289.073441"/>
     <use style="fill:#0000ff;stroke:#0000ff;" x="133.839101" xlink:href="#m325bef5985" y="290.313458"/>
     <use style="fill:#0000ff;stroke:#0000ff;" x="137.851685" xlink:href="#m325bef5985" y="291.256179"/>
     <use style="fill:#0000ff;stroke:#0000ff;" x="141.86427" xlink:href="#m325bef5985" y="291.914772"/>
     <use style="fill:#0000ff;stroke:#0000ff;" x="145.876854" xlink:href="#m325bef5985" y="292.377483"/>
     <use style="fill:#0000ff;stroke:#0000ff;" x="149.889438" xlink:href="#m325bef5985" y="293.150454"/>
     <use style="fill:#0000ff;stroke:#0000ff;" x="153.902022" xlink:href="#m325bef5985" y="293.319019"/>
     <use style="fill:#0000ff;stroke:#0000ff;" x="157.914607" xlink:href="#m325bef5985" y="293.341679"/>
     <use style="fill:#0000ff;stroke:#0000ff;" x="161.927191" xlink:href="#m325bef5985" y="293.095122"/>
     <use style="fill:#0000ff;stroke:#0000ff;" x="165.939775" xlink:href="#m325bef5985" y="293.51022"/>
     <use style="fill:#0000ff;stroke:#0000ff;" x="169.95236" xlink:href="#m325bef5985" y="293.83393"/>
     <use style="fill:#0000ff;stroke:#0000ff;" x="173.964944" xlink:href="#m325bef5985" y="293.373267"/>
     <use style="fill:#0000ff;stroke:#0000ff;" x="177.977528" xlink:href="#m325bef5985" y="293.97173"/>
     <use style="fill:#0000ff;stroke:#0000ff;" x="181.990112" xlink:href="#m325bef5985" y="293.871297"/>
     <use style="fill:#0000ff;stroke:#0000ff;" x="186.002697" xlink:href="#m325bef5985" y="294.200063"/>
     <use style="fill:#0000ff;stroke:#0000ff;" x="190.015281" xlink:href="#m325bef5985" y="294.92414"/>
     <use style="fill:#0000ff;stroke:#0000ff;" x="194.027865" xlink:href="#m325bef5985" y="294.990771"/>
     <use style="fill:#0000ff;stroke:#0000ff;" x="198.040449" xlink:href="#m325bef5985" y="294.768343"/>
     <use style="fill:#0000ff;stroke:#0000ff;" x="202.053034" xlink:href="#m325bef5985" y="294.873708"/>
     <use style="fill:#0000ff;stroke:#0000ff;" x="206.065618" xlink:href="#m325bef5985" y="294.98895"/>
     <use style="fill:#0000ff;stroke:#0000ff;" x="210.078202" xlink:href="#m325bef5985" y="295.348236"/>
     <use style="fill:#0000ff;stroke:#0000ff;" x="214.090787" xlink:href="#m325bef5985" y="294.816248"/>
     <use style="fill:#0000ff;stroke:#0000ff;" x="218.103371" xlink:href="#m325bef5985" y="295.42842"/>
     <use style="fill:#0000ff;stroke:#0000ff;" x="222.115955" xlink:href="#m325bef5985" y="294.770063"/>
     <use style="fill:#0000ff;stroke:#0000ff;" x="226.128539" xlink:href="#m325bef5985" y="295.11213"/>
     <use style="fill:#0000ff;stroke:#0000ff;" x="230.141124" xlink:href="#m325bef5985" y="294.99615"/>
     <use style="fill:#0000ff;stroke:#0000ff;" x="234.153708" xlink:href="#m325bef5985" y="295.488"/>
     <use style="fill:#0000ff;stroke:#0000ff;" x="238.166292" xlink:href="#m325bef5985" y="291.181578"/>
     <use style="fill:#0000ff;stroke:#0000ff;" x="242.178876" xlink:href="#m325bef5985" y="291.595545"/>
     <use style="fill:#0000ff;stroke:#0000ff;" x="246.191461" xlink:href="#m325bef5985" y="291.933381"/>
     <use style="fill:#0000ff;stroke:#0000ff;" x="250.204045" xlink:href="#m325bef5985" y="292.290013"/>
     <use style="fill:#0000ff;stroke:#0000ff;" x="254.216629" xlink:href="#m325bef5985" y="292.613919"/>
     <use style="fill:#0000ff;stroke:#0000ff;" x="258.229213" xlink:href="#m325bef5985" y="292.832092"/>
     <use style="fill:#0000ff;stroke:#0000ff;" x="262.241798" xlink:href="#m325bef5985" y="293.071849"/>
     <use style="fill:#0000ff;stroke:#0000ff;" x="266.254382" xlink:href="#m325bef5985" y="293.333835"/>
     <use style="fill:#0000ff;stroke:#0000ff;" x="270.266966" xlink:href="#m325bef5985" y="293.411624"/>
     <use style="fill:#0000ff;stroke:#0000ff;" x="274.279551" xlink:href="#m325bef5985" y="293.652818"/>
     <use style="fill:#0000ff;stroke:#0000ff;" x="278.292135" xlink:href="#m325bef5985" y="293.700777"/>
     <use style="fill:#0000ff;stroke:#0000ff;" x="282.304719" xlink:href="#m325bef5985" y="293.871391"/>
     <use style="fill:#0000ff;stroke:#0000ff;" x="286.317303" xlink:href="#m325bef5985" y="293.924383"/>
     <use style="fill:#0000ff;stroke:#0000ff;" x="290.329888" xlink:href="#m325bef5985" y="294.104089"/>
     <use style="fill:#0000ff;stroke:#0000ff;" x="294.342472" xlink:href="#m325bef5985" y="294.057316"/>
     <use style="fill:#0000ff;stroke:#0000ff;" x="298.355056" xlink:href="#m325bef5985" y="294.278919"/>
     <use style="fill:#0000ff;stroke:#0000ff;" x="302.36764" xlink:href="#m325bef5985" y="294.336356"/>
     <use style="fill:#0000ff;stroke:#0000ff;" x="306.380225" xlink:href="#m325bef5985" y="294.305035"/>
     <use style="fill:#0000ff;stroke:#0000ff;" x="310.392809" xlink:href="#m325bef5985" y="294.208048"/>
     <use style="fill:#0000ff;stroke:#0000ff;" x="314.405393" xlink:href="#m325bef5985" y="294.376503"/>
     <use style="fill:#0000ff;stroke:#0000ff;" x="318.417978" xlink:href="#m325bef5985" y="294.366892"/>
     <use style="fill:#0000ff;stroke:#0000ff;" x="322.430562" xlink:href="#m325bef5985" y="294.26989"/>
     <use style="fill:#0000ff;stroke:#0000ff;" x="326.443146" xlink:href="#m325bef5985" y="293.988109"/>
     <use style="fill:#0000ff;stroke:#0000ff;" x="330.45573" xlink:href="#m325bef5985" y="293.946361"/>
     <use style="fill:#0000ff;stroke:#0000ff;" x="334.468315" xlink:href="#m325bef5985" y="294.126985"/>
     <use style="fill:#0000ff;stroke:#0000ff;" x="338.480899" xlink:href="#m325bef5985" y="293.85944"/>
     <use style="fill:#0000ff;stroke:#0000ff;" x="342.493483" xlink:href="#m325bef5985" y="294.069675"/>
     <use style="fill:#0000ff;stroke:#0000ff;" x="346.506067" xlink:href="#m325bef5985" y="294.172416"/>
     <use style="fill:#0000ff;stroke:#0000ff;" x="350.518652" xlink:href="#m325bef5985" y="294.094541"/>
     <use style="fill:#0000ff;stroke:#0000ff;" x="354.531236" xlink:href="#m325bef5985" y="294.279822"/>
     <use style="fill:#0000ff;stroke:#0000ff;" x="358.54382" xlink:href="#m325bef5985" y="294.277671"/>
     <use style="fill:#0000ff;stroke:#0000ff;" x="362.556404" xlink:href="#m325bef5985" y="294.094172"/>
     <use style="fill:#0000ff;stroke:#0000ff;" x="366.568989" xlink:href="#m325bef5985" y="294.274444"/>
     <use style="fill:#0000ff;stroke:#0000ff;" x="370.581573" xlink:href="#m325bef5985" y="294.160372"/>
     <use style="fill:#0000ff;stroke:#0000ff;" x="374.594157" xlink:href="#m325bef5985" y="294.417827"/>
     <use style="fill:#0000ff;stroke:#0000ff;" x="378.606742" xlink:href="#m325bef5985" y="294.212673"/>
     <use style="fill:#0000ff;stroke:#0000ff;" x="382.619326" xlink:href="#m325bef5985" y="294.533109"/>
     <use style="fill:#0000ff;stroke:#0000ff;" x="386.63191" xlink:href="#m325bef5985" y="294.600439"/>
     <use style="fill:#0000ff;stroke:#0000ff;" x="390.644494" xlink:href="#m325bef5985" y="294.566353"/>
     <use style="fill:#0000ff;stroke:#0000ff;" x="394.657079" xlink:href="#m325bef5985" y="294.671718"/>
     <use style="fill:#0000ff;stroke:#0000ff;" x="398.669663" xlink:href="#m325bef5985" y="294.53778"/>
     <use style="fill:#0000ff;stroke:#0000ff;" x="402.682247" xlink:href="#m325bef5985" y="294.538998"/>
     <use style="fill:#0000ff;stroke:#0000ff;" x="406.694831" xlink:href="#m325bef5985" y="294.551294"/>
     <use style="fill:#0000ff;stroke:#0000ff;" x="410.707416" xlink:href="#m325bef5985" y="294.429165"/>
    </g>
   </g>
   <g id="line2d_60">
    <path clip-path="url(#pae20851a87)" d="M 61.612584 53.568 
L 65.625169 121.755003 
L 69.637753 184.961123 
L 73.650337 210.319236 
L 77.662921 231.180363 
L 81.675506 242.096117 
L 85.68809 251.69548 
L 89.700674 257.605657 
L 93.713258 263.145493 
L 97.725843 266.638271 
L 101.738427 269.920116 
L 105.751011 272.362036 
L 109.763596 274.574046 
L 113.77618 276.202315 
L 117.788764 277.529394 
L 121.801348 278.32117 
L 125.813933 279.399156 
L 129.826517 279.921165 
L 133.839101 278.453765 
L 137.851685 280.21181 
L 141.86427 281.168311 
L 145.876854 281.390041 
L 149.889438 281.540075 
L 153.902022 280.884638 
L 157.914607 280.756503 
L 161.927191 281.160514 
L 165.939775 280.339969 
L 169.95236 280.223423 
L 173.964944 280.277279 
L 177.977528 279.96223 
L 181.990112 270.461739 
L 186.002697 270.61679 
L 190.015281 270.330063 
L 194.027865 270.411636 
L 198.040449 270.459477 
L 202.053034 270.075983 
L 206.065618 270.082673 
L 210.078202 270.291667 
L 214.090787 270.677312 
L 218.103371 269.051532 
L 222.115955 270.406838 
L 226.128539 270.148111 
L 230.141124 268.77023 
L 234.153708 268.267411 
L 238.166292 253.459406 
L 242.178876 252.785934 
L 246.191461 252.089346 
L 250.204045 251.921332 
L 254.216629 251.695221 
L 258.229213 251.545564 
L 262.241798 251.730978 
L 266.254382 252.507718 
L 270.266966 252.32846 
L 274.279551 252.841117 
L 278.292135 252.917877 
L 282.304719 253.121296 
L 286.317303 252.954632 
L 290.329888 252.648754 
L 294.342472 252.754919 
L 298.355056 252.951672 
L 302.36764 252.666279 
L 306.380225 252.265291 
L 310.392809 251.64756 
L 314.405393 251.540287 
L 318.417978 251.169584 
L 322.430562 250.60958 
L 326.443146 250.747561 
L 330.45573 250.624231 
L 334.468315 250.661968 
L 338.480899 250.38215 
L 342.493483 250.659384 
L 346.506067 250.512813 
L 350.518652 250.552465 
L 354.531236 250.148109 
L 358.54382 250.294162 
L 362.556404 249.860314 
L 366.568989 249.636613 
L 370.581573 249.158441 
L 374.594157 249.272356 
L 378.606742 248.604082 
L 382.619326 248.301439 
L 386.63191 247.997155 
L 390.644494 247.819082 
L 394.657079 247.807626 
L 398.669663 247.564665 
L 402.682247 247.300583 
L 406.694831 247.253511 
L 410.707416 246.154522 
" style="fill:none;stroke:#ff0000;stroke-dasharray:1.5,2.475;stroke-dashoffset:0;stroke-width:1.5;"/>
    <defs>
     <path d="M 0 1.5 
C 0.397805 1.5 0.77937 1.341951 1.06066 1.06066 
C 1.341951 0.77937 1.5 0.397805 1.5 0 
C 1.5 -0.397805 1.341951 -0.77937 1.06066 -1.06066 
C 0.77937 -1.341951 0.397805 -1.5 0 -1.5 
C -0.397805 -1.5 -0.77937 -1.341951 -1.06066 -1.06066 
C -1.341951 -0.77937 -1.5 -0.397805 -1.5 0 
C -1.5 0.397805 -1.341951 0.77937 -1.06066 1.06066 
C -0.77937 1.341951 -0.397805 1.5 0 1.5 
z
" id="m8cd7f8569f" style="stroke:#ff0000;"/>
    </defs>
    <g clip-path="url(#pae20851a87)">
     <use style="fill:#ff0000;stroke:#ff0000;" x="61.612584" xlink:href="#m8cd7f8569f" y="53.568"/>
     <use style="fill:#ff0000;stroke:#ff0000;" x="65.625169" xlink:href="#m8cd7f8569f" y="121.755003"/>
     <use style="fill:#ff0000;stroke:#ff0000;" x="69.637753" xlink:href="#m8cd7f8569f" y="184.961123"/>
     <use style="fill:#ff0000;stroke:#ff0000;" x="73.650337" xlink:href="#m8cd7f8569f" y="210.319236"/>
     <use style="fill:#ff0000;stroke:#ff0000;" x="77.662921" xlink:href="#m8cd7f8569f" y="231.180363"/>
     <use style="fill:#ff0000;stroke:#ff0000;" x="81.675506" xlink:href="#m8cd7f8569f" y="242.096117"/>
     <use style="fill:#ff0000;stroke:#ff0000;" x="85.68809" xlink:href="#m8cd7f8569f" y="251.69548"/>
     <use style="fill:#ff0000;stroke:#ff0000;" x="89.700674" xlink:href="#m8cd7f8569f" y="257.605657"/>
     <use style="fill:#ff0000;stroke:#ff0000;" x="93.713258" xlink:href="#m8cd7f8569f" y="263.145493"/>
     <use style="fill:#ff0000;stroke:#ff0000;" x="97.725843" xlink:href="#m8cd7f8569f" y="266.638271"/>
     <use style="fill:#ff0000;stroke:#ff0000;" x="101.738427" xlink:href="#m8cd7f8569f" y="269.920116"/>
     <use style="fill:#ff0000;stroke:#ff0000;" x="105.751011" xlink:href="#m8cd7f8569f" y="272.362036"/>
     <use style="fill:#ff0000;stroke:#ff0000;" x="109.763596" xlink:href="#m8cd7f8569f" y="274.574046"/>
     <use style="fill:#ff0000;stroke:#ff0000;" x="113.77618" xlink:href="#m8cd7f8569f" y="276.202315"/>
     <use style="fill:#ff0000;stroke:#ff0000;" x="117.788764" xlink:href="#m8cd7f8569f" y="277.529394"/>
     <use style="fill:#ff0000;stroke:#ff0000;" x="121.801348" xlink:href="#m8cd7f8569f" y="278.32117"/>
     <use style="fill:#ff0000;stroke:#ff0000;" x="125.813933" xlink:href="#m8cd7f8569f" y="279.399156"/>
     <use style="fill:#ff0000;stroke:#ff0000;" x="129.826517" xlink:href="#m8cd7f8569f" y="279.921165"/>
     <use style="fill:#ff0000;stroke:#ff0000;" x="133.839101" xlink:href="#m8cd7f8569f" y="278.453765"/>
     <use style="fill:#ff0000;stroke:#ff0000;" x="137.851685" xlink:href="#m8cd7f8569f" y="280.21181"/>
     <use style="fill:#ff0000;stroke:#ff0000;" x="141.86427" xlink:href="#m8cd7f8569f" y="281.168311"/>
     <use style="fill:#ff0000;stroke:#ff0000;" x="145.876854" xlink:href="#m8cd7f8569f" y="281.390041"/>
     <use style="fill:#ff0000;stroke:#ff0000;" x="149.889438" xlink:href="#m8cd7f8569f" y="281.540075"/>
     <use style="fill:#ff0000;stroke:#ff0000;" x="153.902022" xlink:href="#m8cd7f8569f" y="280.884638"/>
     <use style="fill:#ff0000;stroke:#ff0000;" x="157.914607" xlink:href="#m8cd7f8569f" y="280.756503"/>
     <use style="fill:#ff0000;stroke:#ff0000;" x="161.927191" xlink:href="#m8cd7f8569f" y="281.160514"/>
     <use style="fill:#ff0000;stroke:#ff0000;" x="165.939775" xlink:href="#m8cd7f8569f" y="280.339969"/>
     <use style="fill:#ff0000;stroke:#ff0000;" x="169.95236" xlink:href="#m8cd7f8569f" y="280.223423"/>
     <use style="fill:#ff0000;stroke:#ff0000;" x="173.964944" xlink:href="#m8cd7f8569f" y="280.277279"/>
     <use style="fill:#ff0000;stroke:#ff0000;" x="177.977528" xlink:href="#m8cd7f8569f" y="279.96223"/>
     <use style="fill:#ff0000;stroke:#ff0000;" x="181.990112" xlink:href="#m8cd7f8569f" y="270.461739"/>
     <use style="fill:#ff0000;stroke:#ff0000;" x="186.002697" xlink:href="#m8cd7f8569f" y="270.61679"/>
     <use style="fill:#ff0000;stroke:#ff0000;" x="190.015281" xlink:href="#m8cd7f8569f" y="270.330063"/>
     <use style="fill:#ff0000;stroke:#ff0000;" x="194.027865" xlink:href="#m8cd7f8569f" y="270.411636"/>
     <use style="fill:#ff0000;stroke:#ff0000;" x="198.040449" xlink:href="#m8cd7f8569f" y="270.459477"/>
     <use style="fill:#ff0000;stroke:#ff0000;" x="202.053034" xlink:href="#m8cd7f8569f" y="270.075983"/>
     <use style="fill:#ff0000;stroke:#ff0000;" x="206.065618" xlink:href="#m8cd7f8569f" y="270.082673"/>
     <use style="fill:#ff0000;stroke:#ff0000;" x="210.078202" xlink:href="#m8cd7f8569f" y="270.291667"/>
     <use style="fill:#ff0000;stroke:#ff0000;" x="214.090787" xlink:href="#m8cd7f8569f" y="270.677312"/>
     <use style="fill:#ff0000;stroke:#ff0000;" x="218.103371" xlink:href="#m8cd7f8569f" y="269.051532"/>
     <use style="fill:#ff0000;stroke:#ff0000;" x="222.115955" xlink:href="#m8cd7f8569f" y="270.406838"/>
     <use style="fill:#ff0000;stroke:#ff0000;" x="226.128539" xlink:href="#m8cd7f8569f" y="270.148111"/>
     <use style="fill:#ff0000;stroke:#ff0000;" x="230.141124" xlink:href="#m8cd7f8569f" y="268.77023"/>
     <use style="fill:#ff0000;stroke:#ff0000;" x="234.153708" xlink:href="#m8cd7f8569f" y="268.267411"/>
     <use style="fill:#ff0000;stroke:#ff0000;" x="238.166292" xlink:href="#m8cd7f8569f" y="253.459406"/>
     <use style="fill:#ff0000;stroke:#ff0000;" x="242.178876" xlink:href="#m8cd7f8569f" y="252.785934"/>
     <use style="fill:#ff0000;stroke:#ff0000;" x="246.191461" xlink:href="#m8cd7f8569f" y="252.089346"/>
     <use style="fill:#ff0000;stroke:#ff0000;" x="250.204045" xlink:href="#m8cd7f8569f" y="251.921332"/>
     <use style="fill:#ff0000;stroke:#ff0000;" x="254.216629" xlink:href="#m8cd7f8569f" y="251.695221"/>
     <use style="fill:#ff0000;stroke:#ff0000;" x="258.229213" xlink:href="#m8cd7f8569f" y="251.545564"/>
     <use style="fill:#ff0000;stroke:#ff0000;" x="262.241798" xlink:href="#m8cd7f8569f" y="251.730978"/>
     <use style="fill:#ff0000;stroke:#ff0000;" x="266.254382" xlink:href="#m8cd7f8569f" y="252.507718"/>
     <use style="fill:#ff0000;stroke:#ff0000;" x="270.266966" xlink:href="#m8cd7f8569f" y="252.32846"/>
     <use style="fill:#ff0000;stroke:#ff0000;" x="274.279551" xlink:href="#m8cd7f8569f" y="252.841117"/>
     <use style="fill:#ff0000;stroke:#ff0000;" x="278.292135" xlink:href="#m8cd7f8569f" y="252.917877"/>
     <use style="fill:#ff0000;stroke:#ff0000;" x="282.304719" xlink:href="#m8cd7f8569f" y="253.121296"/>
     <use style="fill:#ff0000;stroke:#ff0000;" x="286.317303" xlink:href="#m8cd7f8569f" y="252.954632"/>
     <use style="fill:#ff0000;stroke:#ff0000;" x="290.329888" xlink:href="#m8cd7f8569f" y="252.648754"/>
     <use style="fill:#ff0000;stroke:#ff0000;" x="294.342472" xlink:href="#m8cd7f8569f" y="252.754919"/>
     <use style="fill:#ff0000;stroke:#ff0000;" x="298.355056" xlink:href="#m8cd7f8569f" y="252.951672"/>
     <use style="fill:#ff0000;stroke:#ff0000;" x="302.36764" xlink:href="#m8cd7f8569f" y="252.666279"/>
     <use style="fill:#ff0000;stroke:#ff0000;" x="306.380225" xlink:href="#m8cd7f8569f" y="252.265291"/>
     <use style="fill:#ff0000;stroke:#ff0000;" x="310.392809" xlink:href="#m8cd7f8569f" y="251.64756"/>
     <use style="fill:#ff0000;stroke:#ff0000;" x="314.405393" xlink:href="#m8cd7f8569f" y="251.540287"/>
     <use style="fill:#ff0000;stroke:#ff0000;" x="318.417978" xlink:href="#m8cd7f8569f" y="251.169584"/>
     <use style="fill:#ff0000;stroke:#ff0000;" x="322.430562" xlink:href="#m8cd7f8569f" y="250.60958"/>
     <use style="fill:#ff0000;stroke:#ff0000;" x="326.443146" xlink:href="#m8cd7f8569f" y="250.747561"/>
     <use style="fill:#ff0000;stroke:#ff0000;" x="330.45573" xlink:href="#m8cd7f8569f" y="250.624231"/>
     <use style="fill:#ff0000;stroke:#ff0000;" x="334.468315" xlink:href="#m8cd7f8569f" y="250.661968"/>
     <use style="fill:#ff0000;stroke:#ff0000;" x="338.480899" xlink:href="#m8cd7f8569f" y="250.38215"/>
     <use style="fill:#ff0000;stroke:#ff0000;" x="342.493483" xlink:href="#m8cd7f8569f" y="250.659384"/>
     <use style="fill:#ff0000;stroke:#ff0000;" x="346.506067" xlink:href="#m8cd7f8569f" y="250.512813"/>
     <use style="fill:#ff0000;stroke:#ff0000;" x="350.518652" xlink:href="#m8cd7f8569f" y="250.552465"/>
     <use style="fill:#ff0000;stroke:#ff0000;" x="354.531236" xlink:href="#m8cd7f8569f" y="250.148109"/>
     <use style="fill:#ff0000;stroke:#ff0000;" x="358.54382" xlink:href="#m8cd7f8569f" y="250.294162"/>
     <use style="fill:#ff0000;stroke:#ff0000;" x="362.556404" xlink:href="#m8cd7f8569f" y="249.860314"/>
     <use style="fill:#ff0000;stroke:#ff0000;" x="366.568989" xlink:href="#m8cd7f8569f" y="249.636613"/>
     <use style="fill:#ff0000;stroke:#ff0000;" x="370.581573" xlink:href="#m8cd7f8569f" y="249.158441"/>
     <use style="fill:#ff0000;stroke:#ff0000;" x="374.594157" xlink:href="#m8cd7f8569f" y="249.272356"/>
     <use style="fill:#ff0000;stroke:#ff0000;" x="378.606742" xlink:href="#m8cd7f8569f" y="248.604082"/>
     <use style="fill:#ff0000;stroke:#ff0000;" x="382.619326" xlink:href="#m8cd7f8569f" y="248.301439"/>
     <use style="fill:#ff0000;stroke:#ff0000;" x="386.63191" xlink:href="#m8cd7f8569f" y="247.997155"/>
     <use style="fill:#ff0000;stroke:#ff0000;" x="390.644494" xlink:href="#m8cd7f8569f" y="247.819082"/>
     <use style="fill:#ff0000;stroke:#ff0000;" x="394.657079" xlink:href="#m8cd7f8569f" y="247.807626"/>
     <use style="fill:#ff0000;stroke:#ff0000;" x="398.669663" xlink:href="#m8cd7f8569f" y="247.564665"/>
     <use style="fill:#ff0000;stroke:#ff0000;" x="402.682247" xlink:href="#m8cd7f8569f" y="247.300583"/>
     <use style="fill:#ff0000;stroke:#ff0000;" x="406.694831" xlink:href="#m8cd7f8569f" y="247.253511"/>
     <use style="fill:#ff0000;stroke:#ff0000;" x="410.707416" xlink:href="#m8cd7f8569f" y="246.154522"/>
    </g>
   </g>
   <g id="line2d_61">
    <path clip-path="url(#pae20851a87)" d="M 61.612584 59.134653 
L 65.625169 129.649662 
L 69.637753 188.028427 
L 73.650337 214.713375 
L 77.662921 234.358284 
L 81.675506 245.677154 
L 85.68809 255.672739 
L 89.700674 260.792969 
L 93.713258 266.687565 
L 97.725843 270.205143 
L 101.738427 273.550086 
L 105.751011 276.034811 
L 109.763596 278.378587 
L 113.77618 279.826436 
L 117.788764 281.172532 
L 121.801348 282.584925 
L 125.813933 283.824545 
L 129.826517 284.497303 
L 133.839101 284.383612 
L 137.851685 285.733995 
L 141.86427 286.541541 
L 145.876854 286.883762 
L 149.889438 287.345264 
L 153.902022 287.101828 
L 157.914607 287.049091 
L 161.927191 287.127818 
L 165.939775 286.925094 
L 169.95236 287.028676 
L 173.964944 286.825273 
L 177.977528 286.96698 
L 181.990112 282.166518 
L 186.002697 282.408426 
L 190.015281 282.627101 
L 194.027865 282.701204 
L 198.040449 282.61391 
L 202.053034 282.474846 
L 206.065618 282.535812 
L 210.078202 282.819952 
L 214.090787 282.74678 
L 218.103371 282.239976 
L 222.115955 282.588451 
L 226.128539 282.630121 
L 230.141124 281.88319 
L 234.153708 281.877706 
L 238.166292 272.320492 
L 242.178876 272.19074 
L 246.191461 272.011363 
L 250.204045 272.105672 
L 254.216629 272.15457 
L 258.229213 272.188828 
L 262.241798 272.401414 
L 266.254382 272.920777 
L 270.266966 272.870042 
L 274.279551 273.246968 
L 278.292135 273.309327 
L 282.304719 273.496343 
L 286.317303 273.439508 
L 290.329888 273.376422 
L 294.342472 273.406117 
L 298.355056 273.615296 
L 302.36764 273.501318 
L 306.380225 273.285163 
L 310.392809 272.927804 
L 314.405393 272.958395 
L 318.417978 272.768238 
L 322.430562 272.439735 
L 326.443146 272.367835 
L 330.45573 272.285296 
L 334.468315 272.394476 
L 338.480899 272.120795 
L 342.493483 272.364529 
L 346.506067 272.342615 
L 350.518652 272.323503 
L 354.531236 272.213966 
L 358.54382 272.285916 
L 362.556404 271.977243 
L 366.568989 271.955529 
L 370.581573 271.659406 
L 374.594157 271.845092 
L 378.606742 271.408378 
L 382.619326 271.417274 
L 386.63191 271.298797 
L 390.644494 271.192718 
L 394.657079 271.239672 
L 398.669663 271.051223 
L 402.682247 270.91979 
L 406.694831 270.902402 
L 410.707416 270.291843 
" style="fill:none;stroke:#008000;stroke-dasharray:1.5,2.475;stroke-dashoffset:0;stroke-width:1.5;"/>
    <defs>
     <path d="M 0 1.5 
C 0.397805 1.5 0.77937 1.341951 1.06066 1.06066 
C 1.341951 0.77937 1.5 0.397805 1.5 0 
C 1.5 -0.397805 1.341951 -0.77937 1.06066 -1.06066 
C 0.77937 -1.341951 0.397805 -1.5 0 -1.5 
C -0.397805 -1.5 -0.77937 -1.341951 -1.06066 -1.06066 
C -1.341951 -0.77937 -1.5 -0.397805 -1.5 0 
C -1.5 0.397805 -1.341951 0.77937 -1.06066 1.06066 
C -0.77937 1.341951 -0.397805 1.5 0 1.5 
z
" id="mca9b897dee" style="stroke:#008000;"/>
    </defs>
    <g clip-path="url(#pae20851a87)">
     <use style="fill:#008000;stroke:#008000;" x="61.612584" xlink:href="#mca9b897dee" y="59.134653"/>
     <use style="fill:#008000;stroke:#008000;" x="65.625169" xlink:href="#mca9b897dee" y="129.649662"/>
     <use style="fill:#008000;stroke:#008000;" x="69.637753" xlink:href="#mca9b897dee" y="188.028427"/>
     <use style="fill:#008000;stroke:#008000;" x="73.650337" xlink:href="#mca9b897dee" y="214.713375"/>
     <use style="fill:#008000;stroke:#008000;" x="77.662921" xlink:href="#mca9b897dee" y="234.358284"/>
     <use style="fill:#008000;stroke:#008000;" x="81.675506" xlink:href="#mca9b897dee" y="245.677154"/>
     <use style="fill:#008000;stroke:#008000;" x="85.68809" xlink:href="#mca9b897dee" y="255.672739"/>
     <use style="fill:#008000;stroke:#008000;" x="89.700674" xlink:href="#mca9b897dee" y="260.792969"/>
     <use style="fill:#008000;stroke:#008000;" x="93.713258" xlink:href="#mca9b897dee" y="266.687565"/>
     <use style="fill:#008000;stroke:#008000;" x="97.725843" xlink:href="#mca9b897dee" y="270.205143"/>
     <use style="fill:#008000;stroke:#008000;" x="101.738427" xlink:href="#mca9b897dee" y="273.550086"/>
     <use style="fill:#008000;stroke:#008000;" x="105.751011" xlink:href="#mca9b897dee" y="276.034811"/>
     <use style="fill:#008000;stroke:#008000;" x="109.763596" xlink:href="#mca9b897dee" y="278.378587"/>
     <use style="fill:#008000;stroke:#008000;" x="113.77618" xlink:href="#mca9b897dee" y="279.826436"/>
     <use style="fill:#008000;stroke:#008000;" x="117.788764" xlink:href="#mca9b897dee" y="281.172532"/>
     <use style="fill:#008000;stroke:#008000;" x="121.801348" xlink:href="#mca9b897dee" y="282.584925"/>
     <use style="fill:#008000;stroke:#008000;" x="125.813933" xlink:href="#mca9b897dee" y="283.824545"/>
     <use style="fill:#008000;stroke:#008000;" x="129.826517" xlink:href="#mca9b897dee" y="284.497303"/>
     <use style="fill:#008000;stroke:#008000;" x="133.839101" xlink:href="#mca9b897dee" y="284.383612"/>
     <use style="fill:#008000;stroke:#008000;" x="137.851685" xlink:href="#mca9b897dee" y="285.733995"/>
     <use style="fill:#008000;stroke:#008000;" x="141.86427" xlink:href="#mca9b897dee" y="286.541541"/>
     <use style="fill:#008000;stroke:#008000;" x="145.876854" xlink:href="#mca9b897dee" y="286.883762"/>
     <use style="fill:#008000;stroke:#008000;" x="149.889438" xlink:href="#mca9b897dee" y="287.345264"/>
     <use style="fill:#008000;stroke:#008000;" x="153.902022" xlink:href="#mca9b897dee" y="287.101828"/>
     <use style="fill:#008000;stroke:#008000;" x="157.914607" xlink:href="#mca9b897dee" y="287.049091"/>
     <use style="fill:#008000;stroke:#008000;" x="161.927191" xlink:href="#mca9b897dee" y="287.127818"/>
     <use style="fill:#008000;stroke:#008000;" x="165.939775" xlink:href="#mca9b897dee" y="286.925094"/>
     <use style="fill:#008000;stroke:#008000;" x="169.95236" xlink:href="#mca9b897dee" y="287.028676"/>
     <use style="fill:#008000;stroke:#008000;" x="173.964944" xlink:href="#mca9b897dee" y="286.825273"/>
     <use style="fill:#008000;stroke:#008000;" x="177.977528" xlink:href="#mca9b897dee" y="286.96698"/>
     <use style="fill:#008000;stroke:#008000;" x="181.990112" xlink:href="#mca9b897dee" y="282.166518"/>
     <use style="fill:#008000;stroke:#008000;" x="186.002697" xlink:href="#mca9b897dee" y="282.408426"/>
     <use style="fill:#008000;stroke:#008000;" x="190.015281" xlink:href="#mca9b897dee" y="282.627101"/>
     <use style="fill:#008000;stroke:#008000;" x="194.027865" xlink:href="#mca9b897dee" y="282.701204"/>
     <use style="fill:#008000;stroke:#008000;" x="198.040449" xlink:href="#mca9b897dee" y="282.61391"/>
     <use style="fill:#008000;stroke:#008000;" x="202.053034" xlink:href="#mca9b897dee" y="282.474846"/>
     <use style="fill:#008000;stroke:#008000;" x="206.065618" xlink:href="#mca9b897dee" y="282.535812"/>
     <use style="fill:#008000;stroke:#008000;" x="210.078202" xlink:href="#mca9b897dee" y="282.819952"/>
     <use style="fill:#008000;stroke:#008000;" x="214.090787" xlink:href="#mca9b897dee" y="282.74678"/>
     <use style="fill:#008000;stroke:#008000;" x="218.103371" xlink:href="#mca9b897dee" y="282.239976"/>
     <use style="fill:#008000;stroke:#008000;" x="222.115955" xlink:href="#mca9b897dee" y="282.588451"/>
     <use style="fill:#008000;stroke:#008000;" x="226.128539" xlink:href="#mca9b897dee" y="282.630121"/>
     <use style="fill:#008000;stroke:#008000;" x="230.141124" xlink:href="#mca9b897dee" y="281.88319"/>
     <use style="fill:#008000;stroke:#008000;" x="234.153708" xlink:href="#mca9b897dee" y="281.877706"/>
     <use style="fill:#008000;stroke:#008000;" x="238.166292" xlink:href="#mca9b897dee" y="272.320492"/>
     <use style="fill:#008000;stroke:#008000;" x="242.178876" xlink:href="#mca9b897dee" y="272.19074"/>
     <use style="fill:#008000;stroke:#008000;" x="246.191461" xlink:href="#mca9b897dee" y="272.011363"/>
     <use style="fill:#008000;stroke:#008000;" x="250.204045" xlink:href="#mca9b897dee" y="272.105672"/>
     <use style="fill:#008000;stroke:#008000;" x="254.216629" xlink:href="#mca9b897dee" y="272.15457"/>
     <use style="fill:#008000;stroke:#008000;" x="258.229213" xlink:href="#mca9b897dee" y="272.188828"/>
     <use style="fill:#008000;stroke:#008000;" x="262.241798" xlink:href="#mca9b897dee" y="272.401414"/>
     <use style="fill:#008000;stroke:#008000;" x="266.254382" xlink:href="#mca9b897dee" y="272.920777"/>
     <use style="fill:#008000;stroke:#008000;" x="270.266966" xlink:href="#mca9b897dee" y="272.870042"/>
     <use style="fill:#008000;stroke:#008000;" x="274.279551" xlink:href="#mca9b897dee" y="273.246968"/>
     <use style="fill:#008000;stroke:#008000;" x="278.292135" xlink:href="#mca9b897dee" y="273.309327"/>
     <use style="fill:#008000;stroke:#008000;" x="282.304719" xlink:href="#mca9b897dee" y="273.496343"/>
     <use style="fill:#008000;stroke:#008000;" x="286.317303" xlink:href="#mca9b897dee" y="273.439508"/>
     <use style="fill:#008000;stroke:#008000;" x="290.329888" xlink:href="#mca9b897dee" y="273.376422"/>
     <use style="fill:#008000;stroke:#008000;" x="294.342472" xlink:href="#mca9b897dee" y="273.406117"/>
     <use style="fill:#008000;stroke:#008000;" x="298.355056" xlink:href="#mca9b897dee" y="273.615296"/>
     <use style="fill:#008000;stroke:#008000;" x="302.36764" xlink:href="#mca9b897dee" y="273.501318"/>
     <use style="fill:#008000;stroke:#008000;" x="306.380225" xlink:href="#mca9b897dee" y="273.285163"/>
     <use style="fill:#008000;stroke:#008000;" x="310.392809" xlink:href="#mca9b897dee" y="272.927804"/>
     <use style="fill:#008000;stroke:#008000;" x="314.405393" xlink:href="#mca9b897dee" y="272.958395"/>
     <use style="fill:#008000;stroke:#008000;" x="318.417978" xlink:href="#mca9b897dee" y="272.768238"/>
     <use style="fill:#008000;stroke:#008000;" x="322.430562" xlink:href="#mca9b897dee" y="272.439735"/>
     <use style="fill:#008000;stroke:#008000;" x="326.443146" xlink:href="#mca9b897dee" y="272.367835"/>
     <use style="fill:#008000;stroke:#008000;" x="330.45573" xlink:href="#mca9b897dee" y="272.285296"/>
     <use style="fill:#008000;stroke:#008000;" x="334.468315" xlink:href="#mca9b897dee" y="272.394476"/>
     <use style="fill:#008000;stroke:#008000;" x="338.480899" xlink:href="#mca9b897dee" y="272.120795"/>
     <use style="fill:#008000;stroke:#008000;" x="342.493483" xlink:href="#mca9b897dee" y="272.364529"/>
     <use style="fill:#008000;stroke:#008000;" x="346.506067" xlink:href="#mca9b897dee" y="272.342615"/>
     <use style="fill:#008000;stroke:#008000;" x="350.518652" xlink:href="#mca9b897dee" y="272.323503"/>
     <use style="fill:#008000;stroke:#008000;" x="354.531236" xlink:href="#mca9b897dee" y="272.213966"/>
     <use style="fill:#008000;stroke:#008000;" x="358.54382" xlink:href="#mca9b897dee" y="272.285916"/>
     <use style="fill:#008000;stroke:#008000;" x="362.556404" xlink:href="#mca9b897dee" y="271.977243"/>
     <use style="fill:#008000;stroke:#008000;" x="366.568989" xlink:href="#mca9b897dee" y="271.955529"/>
     <use style="fill:#008000;stroke:#008000;" x="370.581573" xlink:href="#mca9b897dee" y="271.659406"/>
     <use style="fill:#008000;stroke:#008000;" x="374.594157" xlink:href="#mca9b897dee" y="271.845092"/>
     <use style="fill:#008000;stroke:#008000;" x="378.606742" xlink:href="#mca9b897dee" y="271.408378"/>
     <use style="fill:#008000;stroke:#008000;" x="382.619326" xlink:href="#mca9b897dee" y="271.417274"/>
     <use style="fill:#008000;stroke:#008000;" x="386.63191" xlink:href="#mca9b897dee" y="271.298797"/>
     <use style="fill:#008000;stroke:#008000;" x="390.644494" xlink:href="#mca9b897dee" y="271.192718"/>
     <use style="fill:#008000;stroke:#008000;" x="394.657079" xlink:href="#mca9b897dee" y="271.239672"/>
     <use style="fill:#008000;stroke:#008000;" x="398.669663" xlink:href="#mca9b897dee" y="271.051223"/>
     <use style="fill:#008000;stroke:#008000;" x="402.682247" xlink:href="#mca9b897dee" y="270.91979"/>
     <use style="fill:#008000;stroke:#008000;" x="406.694831" xlink:href="#mca9b897dee" y="270.902402"/>
     <use style="fill:#008000;stroke:#008000;" x="410.707416" xlink:href="#mca9b897dee" y="270.291843"/>
    </g>
   </g>
   <g id="patch_3">
    <path d="M 57.6 307.584 
L 57.6 41.472 
" style="fill:none;stroke:#000000;stroke-linecap:square;stroke-linejoin:miter;stroke-width:0.8;"/>
   </g>
   <g id="patch_4">
    <path d="M 414.72 307.584 
L 414.72 41.472 
" style="fill:none;stroke:#000000;stroke-linecap:square;stroke-linejoin:miter;stroke-width:0.8;"/>
   </g>
   <g id="patch_5">
    <path d="M 57.6 307.584 
L 414.72 307.584 
" style="fill:none;stroke:#000000;stroke-linecap:square;stroke-linejoin:miter;stroke-width:0.8;"/>
   </g>
   <g id="patch_6">
    <path d="M 57.6 41.472 
L 414.72 41.472 
" style="fill:none;stroke:#000000;stroke-linecap:square;stroke-linejoin:miter;stroke-width:0.8;"/>
   </g>
   <g id="text_32">
    <!-- ScanTrans 3PV on pre_transpose47 -->
    <defs>
     <path d="M 53.515625 70.515625 
L 53.515625 60.890625 
Q 47.90625 63.578125 42.921875 64.890625 
Q 37.9375 66.21875 33.296875 66.21875 
Q 25.25 66.21875 20.875 63.09375 
Q 16.5 59.96875 16.5 54.203125 
Q 16.5 49.359375 19.40625 46.890625 
Q 22.3125 44.4375 30.421875 42.921875 
L 36.375 41.703125 
Q 47.40625 39.59375 52.65625 34.296875 
Q 57.90625 29 57.90625 20.125 
Q 57.90625 9.515625 50.796875 4.046875 
Q 43.703125 -1.421875 29.984375 -1.421875 
Q 24.8125 -1.421875 18.96875 -0.25 
Q 13.140625 0.921875 6.890625 3.21875 
L 6.890625 13.375 
Q 12.890625 10.015625 18.65625 8.296875 
Q 24.421875 6.59375 29.984375 6.59375 
Q 38.421875 6.59375 43.015625 9.90625 
Q 47.609375 13.234375 47.609375 19.390625 
Q 47.609375 24.75 44.3125 27.78125 
Q 41.015625 30.8125 33.5 32.328125 
L 27.484375 33.5 
Q 16.453125 35.6875 11.515625 40.375 
Q 6.59375 45.0625 6.59375 53.421875 
Q 6.59375 63.09375 13.40625 68.65625 
Q 20.21875 74.21875 32.171875 74.21875 
Q 37.3125 74.21875 42.625 73.28125 
Q 47.953125 72.359375 53.515625 70.515625 
z
" id="DejaVuSans-83"/>
     <path d="M 48.78125 52.59375 
L 48.78125 44.1875 
Q 44.96875 46.296875 41.140625 47.34375 
Q 37.3125 48.390625 33.40625 48.390625 
Q 24.65625 48.390625 19.8125 42.84375 
Q 14.984375 37.3125 14.984375 27.296875 
Q 14.984375 17.28125 19.8125 11.734375 
Q 24.65625 6.203125 33.40625 6.203125 
Q 37.3125 6.203125 41.140625 7.25 
Q 44.96875 8.296875 48.78125 10.40625 
L 48.78125 2.09375 
Q 45.015625 0.34375 40.984375 -0.53125 
Q 36.96875 -1.421875 32.421875 -1.421875 
Q 20.0625 -1.421875 12.78125 6.34375 
Q 5.515625 14.109375 5.515625 27.296875 
Q 5.515625 40.671875 12.859375 48.328125 
Q 20.21875 56 33.015625 56 
Q 37.15625 56 41.109375 55.140625 
Q 45.0625 54.296875 48.78125 52.59375 
z
" id="DejaVuSans-99"/>
     <path d="M -0.296875 72.90625 
L 61.375 72.90625 
L 61.375 64.59375 
L 35.5 64.59375 
L 35.5 0 
L 25.59375 0 
L 25.59375 64.59375 
L -0.296875 64.59375 
z
" id="DejaVuSans-84"/>
     <path d="M 19.671875 64.796875 
L 19.671875 37.40625 
L 32.078125 37.40625 
Q 38.96875 37.40625 42.71875 40.96875 
Q 46.484375 44.53125 46.484375 51.125 
Q 46.484375 57.671875 42.71875 61.234375 
Q 38.96875 64.796875 32.078125 64.796875 
z
M 9.8125 72.90625 
L 32.078125 72.90625 
Q 44.34375 72.90625 50.609375 67.359375 
Q 56.890625 61.8125 56.890625 51.125 
Q 56.890625 40.328125 50.609375 34.8125 
Q 44.34375 29.296875 32.078125 29.296875 
L 19.671875 29.296875 
L 19.671875 0 
L 9.8125 0 
z
" id="DejaVuSans-80"/>
     <path d="M 28.609375 0 
L 0.78125 72.90625 
L 11.078125 72.90625 
L 34.1875 11.53125 
L 57.328125 72.90625 
L 67.578125 72.90625 
L 39.796875 0 
z
" id="DejaVuSans-86"/>
     <path d="M 18.109375 8.203125 
L 18.109375 -20.796875 
L 9.078125 -20.796875 
L 9.078125 54.6875 
L 18.109375 54.6875 
L 18.109375 46.390625 
Q 20.953125 51.265625 25.265625 53.625 
Q 29.59375 56 35.59375 56 
Q 45.5625 56 51.78125 48.09375 
Q 58.015625 40.1875 58.015625 27.296875 
Q 58.015625 14.40625 51.78125 6.484375 
Q 45.5625 -1.421875 35.59375 -1.421875 
Q 29.59375 -1.421875 25.265625 0.953125 
Q 20.953125 3.328125 18.109375 8.203125 
z
M 48.6875 27.296875 
Q 48.6875 37.203125 44.609375 42.84375 
Q 40.53125 48.484375 33.40625 48.484375 
Q 26.265625 48.484375 22.1875 42.84375 
Q 18.109375 37.203125 18.109375 27.296875 
Q 18.109375 17.390625 22.1875 11.75 
Q 26.265625 6.109375 33.40625 6.109375 
Q 40.53125 6.109375 44.609375 11.75 
Q 48.6875 17.390625 48.6875 27.296875 
z
" id="DejaVuSans-112"/>
     <path d="M 50.984375 -16.609375 
L 50.984375 -23.578125 
L -0.984375 -23.578125 
L -0.984375 -16.609375 
z
" id="DejaVuSans-95"/>
    </defs>
    <g transform="translate(130.798125 35.472)scale(0.12 -0.12)">
     <use xlink:href="#DejaVuSans-83"/>
     <use x="63.476562" xlink:href="#DejaVuSans-99"/>
     <use x="118.457031" xlink:href="#DejaVuSans-97"/>
     <use x="179.736328" xlink:href="#DejaVuSans-110"/>
     <use x="243.115234" xlink:href="#DejaVuSans-84"/>
     <use x="289.449219" xlink:href="#DejaVuSans-114"/>
     <use x="330.5625" xlink:href="#DejaVuSans-97"/>
     <use x="391.841797" xlink:href="#DejaVuSans-110"/>
     <use x="455.220703" xlink:href="#DejaVuSans-115"/>
     <use x="507.320312" xlink:href="#DejaVuSans-32"/>
     <use x="539.107422" xlink:href="#DejaVuSans-51"/>
     <use x="602.730469" xlink:href="#DejaVuSans-80"/>
     <use x="663.033203" xlink:href="#DejaVuSans-86"/>
     <use x="731.441406" xlink:href="#DejaVuSans-32"/>
     <use x="763.228516" xlink:href="#DejaVuSans-111"/>
     <use x="824.410156" xlink:href="#DejaVuSans-110"/>
     <use x="887.789062" xlink:href="#DejaVuSans-32"/>
     <use x="919.576172" xlink:href="#DejaVuSans-112"/>
     <use x="983.052734" xlink:href="#DejaVuSans-114"/>
     <use x="1021.916016" xlink:href="#DejaVuSans-101"/>
     <use x="1083.439453" xlink:href="#DejaVuSans-95"/>
     <use x="1133.439453" xlink:href="#DejaVuSans-116"/>
     <use x="1172.648438" xlink:href="#DejaVuSans-114"/>
     <use x="1213.761719" xlink:href="#DejaVuSans-97"/>
     <use x="1275.041016" xlink:href="#DejaVuSans-110"/>
     <use x="1338.419922" xlink:href="#DejaVuSans-115"/>
     <use x="1390.519531" xlink:href="#DejaVuSans-112"/>
     <use x="1453.996094" xlink:href="#DejaVuSans-111"/>
     <use x="1515.177734" xlink:href="#DejaVuSans-115"/>
     <use x="1567.277344" xlink:href="#DejaVuSans-101"/>
     <use x="1628.800781" xlink:href="#DejaVuSans-52"/>
     <use x="1692.423828" xlink:href="#DejaVuSans-55"/>
    </g>
   </g>
   <g id="legend_1">
    <g id="patch_7">
     <path d="M 313.152813 93.7845 
L 407.72 93.7845 
Q 409.72 93.7845 409.72 91.7845 
L 409.72 48.472 
Q 409.72 46.472 407.72 46.472 
L 313.152813 46.472 
Q 311.152813 46.472 311.152813 48.472 
L 311.152813 91.7845 
Q 311.152813 93.7845 313.152813 93.7845 
z
" style="fill:#ffffff;opacity:0.8;stroke:#cccccc;stroke-linejoin:miter;"/>
    </g>
    <g id="line2d_62">
     <path d="M 315.152813 54.570438 
L 335.152813 54.570438 
" style="fill:none;stroke:#0000ff;stroke-dasharray:1.5,2.475;stroke-dashoffset:0;stroke-width:1.5;"/>
    </g>
    <g id="line2d_63">
     <g>
      <use style="fill:#0000ff;stroke:#0000ff;" x="325.152813" xlink:href="#m325bef5985" y="54.570438"/>
     </g>
    </g>
    <g id="text_33">
     <!-- transpose -->
     <g transform="translate(343.152813 58.070438)scale(0.1 -0.1)">
      <use xlink:href="#DejaVuSans-116"/>
      <use x="39.208984" xlink:href="#DejaVuSans-114"/>
      <use x="80.322266" xlink:href="#DejaVuSans-97"/>
      <use x="141.601562" xlink:href="#DejaVuSans-110"/>
      <use x="204.980469" xlink:href="#DejaVuSans-115"/>
      <use x="257.080078" xlink:href="#DejaVuSans-112"/>
      <use x="320.556641" xlink:href="#DejaVuSans-111"/>
      <use x="381.738281" xlink:href="#DejaVuSans-115"/>
      <use x="433.837891" xlink:href="#DejaVuSans-101"/>
     </g>
    </g>
    <g id="line2d_64">
     <path d="M 315.152813 69.248563 
L 335.152813 69.248563 
" style="fill:none;stroke:#ff0000;stroke-dasharray:1.5,2.475;stroke-dashoffset:0;stroke-width:1.5;"/>
    </g>
    <g id="line2d_65">
     <g>
      <use style="fill:#ff0000;stroke:#ff0000;" x="325.152813" xlink:href="#m8cd7f8569f" y="69.248563"/>
     </g>
    </g>
    <g id="text_34">
     <!-- transpose_tr -->
     <g transform="translate(343.152813 72.748563)scale(0.1 -0.1)">
      <use xlink:href="#DejaVuSans-116"/>
      <use x="39.208984" xlink:href="#DejaVuSans-114"/>
      <use x="80.322266" xlink:href="#DejaVuSans-97"/>
      <use x="141.601562" xlink:href="#DejaVuSans-110"/>
      <use x="204.980469" xlink:href="#DejaVuSans-115"/>
      <use x="257.080078" xlink:href="#DejaVuSans-112"/>
      <use x="320.556641" xlink:href="#DejaVuSans-111"/>
      <use x="381.738281" xlink:href="#DejaVuSans-115"/>
      <use x="433.837891" xlink:href="#DejaVuSans-101"/>
      <use x="495.361328" xlink:href="#DejaVuSans-95"/>
      <use x="545.361328" xlink:href="#DejaVuSans-116"/>
      <use x="584.570312" xlink:href="#DejaVuSans-114"/>
     </g>
    </g>
    <g id="line2d_66">
     <path d="M 315.152813 84.204813 
L 335.152813 84.204813 
" style="fill:none;stroke:#008000;stroke-dasharray:1.5,2.475;stroke-dashoffset:0;stroke-width:1.5;"/>
    </g>
    <g id="line2d_67">
     <g>
      <use style="fill:#008000;stroke:#008000;" x="325.152813" xlink:href="#mca9b897dee" y="84.204813"/>
     </g>
    </g>
    <g id="text_35">
     <!-- mean -->
     <defs>
      <path d="M 52 44.1875 
Q 55.375 50.25 60.0625 53.125 
Q 64.75 56 71.09375 56 
Q 79.640625 56 84.28125 50.015625 
Q 88.921875 44.046875 88.921875 33.015625 
L 88.921875 0 
L 79.890625 0 
L 79.890625 32.71875 
Q 79.890625 40.578125 77.09375 44.375 
Q 74.3125 48.1875 68.609375 48.1875 
Q 61.625 48.1875 57.5625 43.546875 
Q 53.515625 38.921875 53.515625 30.90625 
L 53.515625 0 
L 44.484375 0 
L 44.484375 32.71875 
Q 44.484375 40.625 41.703125 44.40625 
Q 38.921875 48.1875 33.109375 48.1875 
Q 26.21875 48.1875 22.15625 43.53125 
Q 18.109375 38.875 18.109375 30.90625 
L 18.109375 0 
L 9.078125 0 
L 9.078125 54.6875 
L 18.109375 54.6875 
L 18.109375 46.1875 
Q 21.1875 51.21875 25.484375 53.609375 
Q 29.78125 56 35.6875 56 
Q 41.65625 56 45.828125 52.96875 
Q 50 49.953125 52 44.1875 
z
" id="DejaVuSans-109"/>
     </defs>
     <g transform="translate(343.152813 87.704813)scale(0.1 -0.1)">
      <use xlink:href="#DejaVuSans-109"/>
      <use x="97.412109" xlink:href="#DejaVuSans-101"/>
      <use x="158.935547" xlink:href="#DejaVuSans-97"/>
      <use x="220.214844" xlink:href="#DejaVuSans-110"/>
     </g>
    </g>
   </g>
  </g>
 </g>
 <defs>
  <clipPath id="pae20851a87">
   <rect height="266.112" width="357.12" x="57.6" y="41.472"/>
  </clipPath>
 </defs>
</svg>
