<?xml version="1.0" encoding="utf-8" standalone="no"?>
<!DOCTYPE svg PUBLIC "-//W3C//DTD SVG 1.1//EN"
  "http://www.w3.org/Graphics/SVG/1.1/DTD/svg11.dtd">
<!-- Created with matplotlib (https://matplotlib.org/) -->
<svg height="345.6pt" version="1.1" viewBox="0 0 460.8 345.6" width="460.8pt" xmlns="http://www.w3.org/2000/svg" xmlns:xlink="http://www.w3.org/1999/xlink">
 <defs>
  <style type="text/css">
*{stroke-linecap:butt;stroke-linejoin:round;}
  </style>
 </defs>
 <g id="figure_1">
  <g id="patch_1">
   <path d="M 0 345.6 
L 460.8 345.6 
L 460.8 0 
L 0 0 
z
" style="fill:#ffffff;"/>
  </g>
  <g id="axes_1">
   <g id="patch_2">
    <path d="M 57.6 307.584 
L 414.72 307.584 
L 414.72 41.472 
L 57.6 41.472 
z
" style="fill:#ffffff;"/>
   </g>
   <g id="matplotlib.axis_1">
    <g id="xtick_1">
     <g id="line2d_1">
      <path clip-path="url(#p8a8989337b)" d="M 61.612584 307.584 
L 61.612584 41.472 
" style="fill:none;stroke:#b0b0b0;stroke-dasharray:5.12,1.28,0.8,1.28;stroke-dashoffset:0;stroke-width:0.8;"/>
     </g>
     <g id="line2d_2">
      <defs>
       <path d="M 0 0 
L 0 3.5 
" id="m92977120cd" style="stroke:#000000;stroke-width:0.8;"/>
      </defs>
      <g>
       <use style="stroke:#000000;stroke-width:0.8;" x="61.612584" xlink:href="#m92977120cd" y="307.584"/>
      </g>
     </g>
     <g id="text_1">
      <!-- 1 -->
      <defs>
       <path d="M 12.40625 8.296875 
L 28.515625 8.296875 
L 28.515625 63.921875 
L 10.984375 60.40625 
L 10.984375 69.390625 
L 28.421875 72.90625 
L 38.28125 72.90625 
L 38.28125 8.296875 
L 54.390625 8.296875 
L 54.390625 0 
L 12.40625 0 
z
" id="DejaVuSans-49"/>
      </defs>
      <g transform="translate(58.431334 322.182437)scale(0.1 -0.1)">
       <use xlink:href="#DejaVuSans-49"/>
      </g>
     </g>
    </g>
    <g id="xtick_2">
     <g id="line2d_3">
      <path clip-path="url(#p8a8989337b)" d="M 73.650337 307.584 
L 73.650337 41.472 
" style="fill:none;stroke:#b0b0b0;stroke-dasharray:5.12,1.28,0.8,1.28;stroke-dashoffset:0;stroke-width:0.8;"/>
     </g>
     <g id="line2d_4">
      <g>
       <use style="stroke:#000000;stroke-width:0.8;" x="73.650337" xlink:href="#m92977120cd" y="307.584"/>
      </g>
     </g>
     <g id="text_2">
      <!-- 4 -->
      <defs>
       <path d="M 37.796875 64.3125 
L 12.890625 25.390625 
L 37.796875 25.390625 
z
M 35.203125 72.90625 
L 47.609375 72.90625 
L 47.609375 25.390625 
L 58.015625 25.390625 
L 58.015625 17.1875 
L 47.609375 17.1875 
L 47.609375 0 
L 37.796875 0 
L 37.796875 17.1875 
L 4.890625 17.1875 
L 4.890625 26.703125 
z
" id="DejaVuSans-52"/>
      </defs>
      <g transform="translate(70.469087 322.182437)scale(0.1 -0.1)">
       <use xlink:href="#DejaVuSans-52"/>
      </g>
     </g>
    </g>
    <g id="xtick_3">
     <g id="line2d_5">
      <path clip-path="url(#p8a8989337b)" d="M 89.700674 307.584 
L 89.700674 41.472 
" style="fill:none;stroke:#b0b0b0;stroke-dasharray:5.12,1.28,0.8,1.28;stroke-dashoffset:0;stroke-width:0.8;"/>
     </g>
     <g id="line2d_6">
      <g>
       <use style="stroke:#000000;stroke-width:0.8;" x="89.700674" xlink:href="#m92977120cd" y="307.584"/>
      </g>
     </g>
     <g id="text_3">
      <!-- 8 -->
      <defs>
       <path d="M 31.78125 34.625 
Q 24.75 34.625 20.71875 30.859375 
Q 16.703125 27.09375 16.703125 20.515625 
Q 16.703125 13.921875 20.71875 10.15625 
Q 24.75 6.390625 31.78125 6.390625 
Q 38.8125 6.390625 42.859375 10.171875 
Q 46.921875 13.96875 46.921875 20.515625 
Q 46.921875 27.09375 42.890625 30.859375 
Q 38.875 34.625 31.78125 34.625 
z
M 21.921875 38.8125 
Q 15.578125 40.375 12.03125 44.71875 
Q 8.5 49.078125 8.5 55.328125 
Q 8.5 64.0625 14.71875 69.140625 
Q 20.953125 74.21875 31.78125 74.21875 
Q 42.671875 74.21875 48.875 69.140625 
Q 55.078125 64.0625 55.078125 55.328125 
Q 55.078125 49.078125 51.53125 44.71875 
Q 48 40.375 41.703125 38.8125 
Q 48.828125 37.15625 52.796875 32.3125 
Q 56.78125 27.484375 56.78125 20.515625 
Q 56.78125 9.90625 50.3125 4.234375 
Q 43.84375 -1.421875 31.78125 -1.421875 
Q 19.734375 -1.421875 13.25 4.234375 
Q 6.78125 9.90625 6.78125 20.515625 
Q 6.78125 27.484375 10.78125 32.3125 
Q 14.796875 37.15625 21.921875 38.8125 
z
M 18.3125 54.390625 
Q 18.3125 48.734375 21.84375 45.5625 
Q 25.390625 42.390625 31.78125 42.390625 
Q 38.140625 42.390625 41.71875 45.5625 
Q 45.3125 48.734375 45.3125 54.390625 
Q 45.3125 60.0625 41.71875 63.234375 
Q 38.140625 66.40625 31.78125 66.40625 
Q 25.390625 66.40625 21.84375 63.234375 
Q 18.3125 60.0625 18.3125 54.390625 
z
" id="DejaVuSans-56"/>
      </defs>
      <g transform="translate(86.519424 322.182437)scale(0.1 -0.1)">
       <use xlink:href="#DejaVuSans-56"/>
      </g>
     </g>
    </g>
    <g id="xtick_4">
     <g id="line2d_7">
      <path clip-path="url(#p8a8989337b)" d="M 105.751011 307.584 
L 105.751011 41.472 
" style="fill:none;stroke:#b0b0b0;stroke-dasharray:5.12,1.28,0.8,1.28;stroke-dashoffset:0;stroke-width:0.8;"/>
     </g>
     <g id="line2d_8">
      <g>
       <use style="stroke:#000000;stroke-width:0.8;" x="105.751011" xlink:href="#m92977120cd" y="307.584"/>
      </g>
     </g>
     <g id="text_4">
      <!-- 12 -->
      <defs>
       <path d="M 19.1875 8.296875 
L 53.609375 8.296875 
L 53.609375 0 
L 7.328125 0 
L 7.328125 8.296875 
Q 12.9375 14.109375 22.625 23.890625 
Q 32.328125 33.6875 34.8125 36.53125 
Q 39.546875 41.84375 41.421875 45.53125 
Q 43.3125 49.21875 43.3125 52.78125 
Q 43.3125 58.59375 39.234375 62.25 
Q 35.15625 65.921875 28.609375 65.921875 
Q 23.96875 65.921875 18.8125 64.3125 
Q 13.671875 62.703125 7.8125 59.421875 
L 7.8125 69.390625 
Q 13.765625 71.78125 18.9375 73 
Q 24.125 74.21875 28.421875 74.21875 
Q 39.75 74.21875 46.484375 68.546875 
Q 53.21875 62.890625 53.21875 53.421875 
Q 53.21875 48.921875 51.53125 44.890625 
Q 49.859375 40.875 45.40625 35.40625 
Q 44.1875 33.984375 37.640625 27.21875 
Q 31.109375 20.453125 19.1875 8.296875 
z
" id="DejaVuSans-50"/>
      </defs>
      <g transform="translate(99.388511 322.182437)scale(0.1 -0.1)">
       <use xlink:href="#DejaVuSans-49"/>
       <use x="63.623047" xlink:href="#DejaVuSans-50"/>
      </g>
     </g>
    </g>
    <g id="xtick_5">
     <g id="line2d_9">
      <path clip-path="url(#p8a8989337b)" d="M 121.801348 307.584 
L 121.801348 41.472 
" style="fill:none;stroke:#b0b0b0;stroke-dasharray:5.12,1.28,0.8,1.28;stroke-dashoffset:0;stroke-width:0.8;"/>
     </g>
     <g id="line2d_10">
      <g>
       <use style="stroke:#000000;stroke-width:0.8;" x="121.801348" xlink:href="#m92977120cd" y="307.584"/>
      </g>
     </g>
     <g id="text_5">
      <!-- 16 -->
      <defs>
       <path d="M 33.015625 40.375 
Q 26.375 40.375 22.484375 35.828125 
Q 18.609375 31.296875 18.609375 23.390625 
Q 18.609375 15.53125 22.484375 10.953125 
Q 26.375 6.390625 33.015625 6.390625 
Q 39.65625 6.390625 43.53125 10.953125 
Q 47.40625 15.53125 47.40625 23.390625 
Q 47.40625 31.296875 43.53125 35.828125 
Q 39.65625 40.375 33.015625 40.375 
z
M 52.59375 71.296875 
L 52.59375 62.3125 
Q 48.875 64.0625 45.09375 64.984375 
Q 41.3125 65.921875 37.59375 65.921875 
Q 27.828125 65.921875 22.671875 59.328125 
Q 17.53125 52.734375 16.796875 39.40625 
Q 19.671875 43.65625 24.015625 45.921875 
Q 28.375 48.1875 33.59375 48.1875 
Q 44.578125 48.1875 50.953125 41.515625 
Q 57.328125 34.859375 57.328125 23.390625 
Q 57.328125 12.15625 50.6875 5.359375 
Q 44.046875 -1.421875 33.015625 -1.421875 
Q 20.359375 -1.421875 13.671875 8.265625 
Q 6.984375 17.96875 6.984375 36.375 
Q 6.984375 53.65625 15.1875 63.9375 
Q 23.390625 74.21875 37.203125 74.21875 
Q 40.921875 74.21875 44.703125 73.484375 
Q 48.484375 72.75 52.59375 71.296875 
z
" id="DejaVuSans-54"/>
      </defs>
      <g transform="translate(115.438848 322.182437)scale(0.1 -0.1)">
       <use xlink:href="#DejaVuSans-49"/>
       <use x="63.623047" xlink:href="#DejaVuSans-54"/>
      </g>
     </g>
    </g>
    <g id="xtick_6">
     <g id="line2d_11">
      <path clip-path="url(#p8a8989337b)" d="M 137.851685 307.584 
L 137.851685 41.472 
" style="fill:none;stroke:#b0b0b0;stroke-dasharray:5.12,1.28,0.8,1.28;stroke-dashoffset:0;stroke-width:0.8;"/>
     </g>
     <g id="line2d_12">
      <g>
       <use style="stroke:#000000;stroke-width:0.8;" x="137.851685" xlink:href="#m92977120cd" y="307.584"/>
      </g>
     </g>
     <g id="text_6">
      <!-- 20 -->
      <defs>
       <path d="M 31.78125 66.40625 
Q 24.171875 66.40625 20.328125 58.90625 
Q 16.5 51.421875 16.5 36.375 
Q 16.5 21.390625 20.328125 13.890625 
Q 24.171875 6.390625 31.78125 6.390625 
Q 39.453125 6.390625 43.28125 13.890625 
Q 47.125 21.390625 47.125 36.375 
Q 47.125 51.421875 43.28125 58.90625 
Q 39.453125 66.40625 31.78125 66.40625 
z
M 31.78125 74.21875 
Q 44.046875 74.21875 50.515625 64.515625 
Q 56.984375 54.828125 56.984375 36.375 
Q 56.984375 17.96875 50.515625 8.265625 
Q 44.046875 -1.421875 31.78125 -1.421875 
Q 19.53125 -1.421875 13.0625 8.265625 
Q 6.59375 17.96875 6.59375 36.375 
Q 6.59375 54.828125 13.0625 64.515625 
Q 19.53125 74.21875 31.78125 74.21875 
z
" id="DejaVuSans-48"/>
      </defs>
      <g transform="translate(131.489185 322.182437)scale(0.1 -0.1)">
       <use xlink:href="#DejaVuSans-50"/>
       <use x="63.623047" xlink:href="#DejaVuSans-48"/>
      </g>
     </g>
    </g>
    <g id="xtick_7">
     <g id="line2d_13">
      <path clip-path="url(#p8a8989337b)" d="M 153.902022 307.584 
L 153.902022 41.472 
" style="fill:none;stroke:#b0b0b0;stroke-dasharray:5.12,1.28,0.8,1.28;stroke-dashoffset:0;stroke-width:0.8;"/>
     </g>
     <g id="line2d_14">
      <g>
       <use style="stroke:#000000;stroke-width:0.8;" x="153.902022" xlink:href="#m92977120cd" y="307.584"/>
      </g>
     </g>
     <g id="text_7">
      <!-- 24 -->
      <g transform="translate(147.539522 322.182437)scale(0.1 -0.1)">
       <use xlink:href="#DejaVuSans-50"/>
       <use x="63.623047" xlink:href="#DejaVuSans-52"/>
      </g>
     </g>
    </g>
    <g id="xtick_8">
     <g id="line2d_15">
      <path clip-path="url(#p8a8989337b)" d="M 169.95236 307.584 
L 169.95236 41.472 
" style="fill:none;stroke:#b0b0b0;stroke-dasharray:5.12,1.28,0.8,1.28;stroke-dashoffset:0;stroke-width:0.8;"/>
     </g>
     <g id="line2d_16">
      <g>
       <use style="stroke:#000000;stroke-width:0.8;" x="169.95236" xlink:href="#m92977120cd" y="307.584"/>
      </g>
     </g>
     <g id="text_8">
      <!-- 28 -->
      <g transform="translate(163.58986 322.182437)scale(0.1 -0.1)">
       <use xlink:href="#DejaVuSans-50"/>
       <use x="63.623047" xlink:href="#DejaVuSans-56"/>
      </g>
     </g>
    </g>
    <g id="xtick_9">
     <g id="line2d_17">
      <path clip-path="url(#p8a8989337b)" d="M 186.002697 307.584 
L 186.002697 41.472 
" style="fill:none;stroke:#b0b0b0;stroke-dasharray:5.12,1.28,0.8,1.28;stroke-dashoffset:0;stroke-width:0.8;"/>
     </g>
     <g id="line2d_18">
      <g>
       <use style="stroke:#000000;stroke-width:0.8;" x="186.002697" xlink:href="#m92977120cd" y="307.584"/>
      </g>
     </g>
     <g id="text_9">
      <!-- 32 -->
      <defs>
       <path d="M 40.578125 39.3125 
Q 47.65625 37.796875 51.625 33 
Q 55.609375 28.21875 55.609375 21.1875 
Q 55.609375 10.40625 48.1875 4.484375 
Q 40.765625 -1.421875 27.09375 -1.421875 
Q 22.515625 -1.421875 17.65625 -0.515625 
Q 12.796875 0.390625 7.625 2.203125 
L 7.625 11.71875 
Q 11.71875 9.328125 16.59375 8.109375 
Q 21.484375 6.890625 26.8125 6.890625 
Q 36.078125 6.890625 40.9375 10.546875 
Q 45.796875 14.203125 45.796875 21.1875 
Q 45.796875 27.640625 41.28125 31.265625 
Q 36.765625 34.90625 28.71875 34.90625 
L 20.21875 34.90625 
L 20.21875 43.015625 
L 29.109375 43.015625 
Q 36.375 43.015625 40.234375 45.921875 
Q 44.09375 48.828125 44.09375 54.296875 
Q 44.09375 59.90625 40.109375 62.90625 
Q 36.140625 65.921875 28.71875 65.921875 
Q 24.65625 65.921875 20.015625 65.03125 
Q 15.375 64.15625 9.8125 62.3125 
L 9.8125 71.09375 
Q 15.4375 72.65625 20.34375 73.4375 
Q 25.25 74.21875 29.59375 74.21875 
Q 40.828125 74.21875 47.359375 69.109375 
Q 53.90625 64.015625 53.90625 55.328125 
Q 53.90625 49.265625 50.4375 45.09375 
Q 46.96875 40.921875 40.578125 39.3125 
z
" id="DejaVuSans-51"/>
      </defs>
      <g transform="translate(179.640197 322.182437)scale(0.1 -0.1)">
       <use xlink:href="#DejaVuSans-51"/>
       <use x="63.623047" xlink:href="#DejaVuSans-50"/>
      </g>
     </g>
    </g>
    <g id="xtick_10">
     <g id="line2d_19">
      <path clip-path="url(#p8a8989337b)" d="M 202.053034 307.584 
L 202.053034 41.472 
" style="fill:none;stroke:#b0b0b0;stroke-dasharray:5.12,1.28,0.8,1.28;stroke-dashoffset:0;stroke-width:0.8;"/>
     </g>
     <g id="line2d_20">
      <g>
       <use style="stroke:#000000;stroke-width:0.8;" x="202.053034" xlink:href="#m92977120cd" y="307.584"/>
      </g>
     </g>
     <g id="text_10">
      <!-- 36 -->
      <g transform="translate(195.690534 322.182437)scale(0.1 -0.1)">
       <use xlink:href="#DejaVuSans-51"/>
       <use x="63.623047" xlink:href="#DejaVuSans-54"/>
      </g>
     </g>
    </g>
    <g id="xtick_11">
     <g id="line2d_21">
      <path clip-path="url(#p8a8989337b)" d="M 218.103371 307.584 
L 218.103371 41.472 
" style="fill:none;stroke:#b0b0b0;stroke-dasharray:5.12,1.28,0.8,1.28;stroke-dashoffset:0;stroke-width:0.8;"/>
     </g>
     <g id="line2d_22">
      <g>
       <use style="stroke:#000000;stroke-width:0.8;" x="218.103371" xlink:href="#m92977120cd" y="307.584"/>
      </g>
     </g>
     <g id="text_11">
      <!-- 40 -->
      <g transform="translate(211.740871 322.182437)scale(0.1 -0.1)">
       <use xlink:href="#DejaVuSans-52"/>
       <use x="63.623047" xlink:href="#DejaVuSans-48"/>
      </g>
     </g>
    </g>
    <g id="xtick_12">
     <g id="line2d_23">
      <path clip-path="url(#p8a8989337b)" d="M 234.153708 307.584 
L 234.153708 41.472 
" style="fill:none;stroke:#b0b0b0;stroke-dasharray:5.12,1.28,0.8,1.28;stroke-dashoffset:0;stroke-width:0.8;"/>
     </g>
     <g id="line2d_24">
      <g>
       <use style="stroke:#000000;stroke-width:0.8;" x="234.153708" xlink:href="#m92977120cd" y="307.584"/>
      </g>
     </g>
     <g id="text_12">
      <!-- 44 -->
      <g transform="translate(227.791208 322.182437)scale(0.1 -0.1)">
       <use xlink:href="#DejaVuSans-52"/>
       <use x="63.623047" xlink:href="#DejaVuSans-52"/>
      </g>
     </g>
    </g>
    <g id="xtick_13">
     <g id="line2d_25">
      <path clip-path="url(#p8a8989337b)" d="M 250.204045 307.584 
L 250.204045 41.472 
" style="fill:none;stroke:#b0b0b0;stroke-dasharray:5.12,1.28,0.8,1.28;stroke-dashoffset:0;stroke-width:0.8;"/>
     </g>
     <g id="line2d_26">
      <g>
       <use style="stroke:#000000;stroke-width:0.8;" x="250.204045" xlink:href="#m92977120cd" y="307.584"/>
      </g>
     </g>
     <g id="text_13">
      <!-- 48 -->
      <g transform="translate(243.841545 322.182437)scale(0.1 -0.1)">
       <use xlink:href="#DejaVuSans-52"/>
       <use x="63.623047" xlink:href="#DejaVuSans-56"/>
      </g>
     </g>
    </g>
    <g id="xtick_14">
     <g id="line2d_27">
      <path clip-path="url(#p8a8989337b)" d="M 266.254382 307.584 
L 266.254382 41.472 
" style="fill:none;stroke:#b0b0b0;stroke-dasharray:5.12,1.28,0.8,1.28;stroke-dashoffset:0;stroke-width:0.8;"/>
     </g>
     <g id="line2d_28">
      <g>
       <use style="stroke:#000000;stroke-width:0.8;" x="266.254382" xlink:href="#m92977120cd" y="307.584"/>
      </g>
     </g>
     <g id="text_14">
      <!-- 52 -->
      <defs>
       <path d="M 10.796875 72.90625 
L 49.515625 72.90625 
L 49.515625 64.59375 
L 19.828125 64.59375 
L 19.828125 46.734375 
Q 21.96875 47.46875 24.109375 47.828125 
Q 26.265625 48.1875 28.421875 48.1875 
Q 40.625 48.1875 47.75 41.5 
Q 54.890625 34.8125 54.890625 23.390625 
Q 54.890625 11.625 47.5625 5.09375 
Q 40.234375 -1.421875 26.90625 -1.421875 
Q 22.3125 -1.421875 17.546875 -0.640625 
Q 12.796875 0.140625 7.71875 1.703125 
L 7.71875 11.625 
Q 12.109375 9.234375 16.796875 8.0625 
Q 21.484375 6.890625 26.703125 6.890625 
Q 35.15625 6.890625 40.078125 11.328125 
Q 45.015625 15.765625 45.015625 23.390625 
Q 45.015625 31 40.078125 35.4375 
Q 35.15625 39.890625 26.703125 39.890625 
Q 22.75 39.890625 18.8125 39.015625 
Q 14.890625 38.140625 10.796875 36.28125 
z
" id="DejaVuSans-53"/>
      </defs>
      <g transform="translate(259.891882 322.182437)scale(0.1 -0.1)">
       <use xlink:href="#DejaVuSans-53"/>
       <use x="63.623047" xlink:href="#DejaVuSans-50"/>
      </g>
     </g>
    </g>
    <g id="xtick_15">
     <g id="line2d_29">
      <path clip-path="url(#p8a8989337b)" d="M 282.304719 307.584 
L 282.304719 41.472 
" style="fill:none;stroke:#b0b0b0;stroke-dasharray:5.12,1.28,0.8,1.28;stroke-dashoffset:0;stroke-width:0.8;"/>
     </g>
     <g id="line2d_30">
      <g>
       <use style="stroke:#000000;stroke-width:0.8;" x="282.304719" xlink:href="#m92977120cd" y="307.584"/>
      </g>
     </g>
     <g id="text_15">
      <!-- 56 -->
      <g transform="translate(275.942219 322.182437)scale(0.1 -0.1)">
       <use xlink:href="#DejaVuSans-53"/>
       <use x="63.623047" xlink:href="#DejaVuSans-54"/>
      </g>
     </g>
    </g>
    <g id="xtick_16">
     <g id="line2d_31">
      <path clip-path="url(#p8a8989337b)" d="M 298.355056 307.584 
L 298.355056 41.472 
" style="fill:none;stroke:#b0b0b0;stroke-dasharray:5.12,1.28,0.8,1.28;stroke-dashoffset:0;stroke-width:0.8;"/>
     </g>
     <g id="line2d_32">
      <g>
       <use style="stroke:#000000;stroke-width:0.8;" x="298.355056" xlink:href="#m92977120cd" y="307.584"/>
      </g>
     </g>
     <g id="text_16">
      <!-- 60 -->
      <g transform="translate(291.992556 322.182437)scale(0.1 -0.1)">
       <use xlink:href="#DejaVuSans-54"/>
       <use x="63.623047" xlink:href="#DejaVuSans-48"/>
      </g>
     </g>
    </g>
    <g id="xtick_17">
     <g id="line2d_33">
      <path clip-path="url(#p8a8989337b)" d="M 314.405393 307.584 
L 314.405393 41.472 
" style="fill:none;stroke:#b0b0b0;stroke-dasharray:5.12,1.28,0.8,1.28;stroke-dashoffset:0;stroke-width:0.8;"/>
     </g>
     <g id="line2d_34">
      <g>
       <use style="stroke:#000000;stroke-width:0.8;" x="314.405393" xlink:href="#m92977120cd" y="307.584"/>
      </g>
     </g>
     <g id="text_17">
      <!-- 64 -->
      <g transform="translate(308.042893 322.182437)scale(0.1 -0.1)">
       <use xlink:href="#DejaVuSans-54"/>
       <use x="63.623047" xlink:href="#DejaVuSans-52"/>
      </g>
     </g>
    </g>
    <g id="xtick_18">
     <g id="line2d_35">
      <path clip-path="url(#p8a8989337b)" d="M 330.45573 307.584 
L 330.45573 41.472 
" style="fill:none;stroke:#b0b0b0;stroke-dasharray:5.12,1.28,0.8,1.28;stroke-dashoffset:0;stroke-width:0.8;"/>
     </g>
     <g id="line2d_36">
      <g>
       <use style="stroke:#000000;stroke-width:0.8;" x="330.45573" xlink:href="#m92977120cd" y="307.584"/>
      </g>
     </g>
     <g id="text_18">
      <!-- 68 -->
      <g transform="translate(324.09323 322.182437)scale(0.1 -0.1)">
       <use xlink:href="#DejaVuSans-54"/>
       <use x="63.623047" xlink:href="#DejaVuSans-56"/>
      </g>
     </g>
    </g>
    <g id="xtick_19">
     <g id="line2d_37">
      <path clip-path="url(#p8a8989337b)" d="M 346.506067 307.584 
L 346.506067 41.472 
" style="fill:none;stroke:#b0b0b0;stroke-dasharray:5.12,1.28,0.8,1.28;stroke-dashoffset:0;stroke-width:0.8;"/>
     </g>
     <g id="line2d_38">
      <g>
       <use style="stroke:#000000;stroke-width:0.8;" x="346.506067" xlink:href="#m92977120cd" y="307.584"/>
      </g>
     </g>
     <g id="text_19">
      <!-- 72 -->
      <defs>
       <path d="M 8.203125 72.90625 
L 55.078125 72.90625 
L 55.078125 68.703125 
L 28.609375 0 
L 18.3125 0 
L 43.21875 64.59375 
L 8.203125 64.59375 
z
" id="DejaVuSans-55"/>
      </defs>
      <g transform="translate(340.143567 322.182437)scale(0.1 -0.1)">
       <use xlink:href="#DejaVuSans-55"/>
       <use x="63.623047" xlink:href="#DejaVuSans-50"/>
      </g>
     </g>
    </g>
    <g id="xtick_20">
     <g id="line2d_39">
      <path clip-path="url(#p8a8989337b)" d="M 362.556404 307.584 
L 362.556404 41.472 
" style="fill:none;stroke:#b0b0b0;stroke-dasharray:5.12,1.28,0.8,1.28;stroke-dashoffset:0;stroke-width:0.8;"/>
     </g>
     <g id="line2d_40">
      <g>
       <use style="stroke:#000000;stroke-width:0.8;" x="362.556404" xlink:href="#m92977120cd" y="307.584"/>
      </g>
     </g>
     <g id="text_20">
      <!-- 76 -->
      <g transform="translate(356.193904 322.182437)scale(0.1 -0.1)">
       <use xlink:href="#DejaVuSans-55"/>
       <use x="63.623047" xlink:href="#DejaVuSans-54"/>
      </g>
     </g>
    </g>
    <g id="xtick_21">
     <g id="line2d_41">
      <path clip-path="url(#p8a8989337b)" d="M 378.606742 307.584 
L 378.606742 41.472 
" style="fill:none;stroke:#b0b0b0;stroke-dasharray:5.12,1.28,0.8,1.28;stroke-dashoffset:0;stroke-width:0.8;"/>
     </g>
     <g id="line2d_42">
      <g>
       <use style="stroke:#000000;stroke-width:0.8;" x="378.606742" xlink:href="#m92977120cd" y="307.584"/>
      </g>
     </g>
     <g id="text_21">
      <!-- 80 -->
      <g transform="translate(372.244242 322.182437)scale(0.1 -0.1)">
       <use xlink:href="#DejaVuSans-56"/>
       <use x="63.623047" xlink:href="#DejaVuSans-48"/>
      </g>
     </g>
    </g>
    <g id="xtick_22">
     <g id="line2d_43">
      <path clip-path="url(#p8a8989337b)" d="M 394.657079 307.584 
L 394.657079 41.472 
" style="fill:none;stroke:#b0b0b0;stroke-dasharray:5.12,1.28,0.8,1.28;stroke-dashoffset:0;stroke-width:0.8;"/>
     </g>
     <g id="line2d_44">
      <g>
       <use style="stroke:#000000;stroke-width:0.8;" x="394.657079" xlink:href="#m92977120cd" y="307.584"/>
      </g>
     </g>
     <g id="text_22">
      <!-- 84 -->
      <g transform="translate(388.294579 322.182437)scale(0.1 -0.1)">
       <use xlink:href="#DejaVuSans-56"/>
       <use x="63.623047" xlink:href="#DejaVuSans-52"/>
      </g>
     </g>
    </g>
    <g id="xtick_23">
     <g id="line2d_45">
      <path clip-path="url(#p8a8989337b)" d="M 410.707416 307.584 
L 410.707416 41.472 
" style="fill:none;stroke:#b0b0b0;stroke-dasharray:5.12,1.28,0.8,1.28;stroke-dashoffset:0;stroke-width:0.8;"/>
     </g>
     <g id="line2d_46">
      <g>
       <use style="stroke:#000000;stroke-width:0.8;" x="410.707416" xlink:href="#m92977120cd" y="307.584"/>
      </g>
     </g>
     <g id="text_23">
      <!-- 88 -->
      <g transform="translate(404.344916 322.182437)scale(0.1 -0.1)">
       <use xlink:href="#DejaVuSans-56"/>
       <use x="63.623047" xlink:href="#DejaVuSans-56"/>
      </g>
     </g>
    </g>
    <g id="text_24">
     <!-- threads -->
     <defs>
      <path d="M 18.3125 70.21875 
L 18.3125 54.6875 
L 36.8125 54.6875 
L 36.8125 47.703125 
L 18.3125 47.703125 
L 18.3125 18.015625 
Q 18.3125 11.328125 20.140625 9.421875 
Q 21.96875 7.515625 27.59375 7.515625 
L 36.8125 7.515625 
L 36.8125 0 
L 27.59375 0 
Q 17.1875 0 13.234375 3.875 
Q 9.28125 7.765625 9.28125 18.015625 
L 9.28125 47.703125 
L 2.6875 47.703125 
L 2.6875 54.6875 
L 9.28125 54.6875 
L 9.28125 70.21875 
z
" id="DejaVuSans-116"/>
      <path d="M 54.890625 33.015625 
L 54.890625 0 
L 45.90625 0 
L 45.90625 32.71875 
Q 45.90625 40.484375 42.875 44.328125 
Q 39.84375 48.1875 33.796875 48.1875 
Q 26.515625 48.1875 22.3125 43.546875 
Q 18.109375 38.921875 18.109375 30.90625 
L 18.109375 0 
L 9.078125 0 
L 9.078125 75.984375 
L 18.109375 75.984375 
L 18.109375 46.1875 
Q 21.34375 51.125 25.703125 53.5625 
Q 30.078125 56 35.796875 56 
Q 45.21875 56 50.046875 50.171875 
Q 54.890625 44.34375 54.890625 33.015625 
z
" id="DejaVuSans-104"/>
      <path d="M 41.109375 46.296875 
Q 39.59375 47.171875 37.8125 47.578125 
Q 36.03125 48 33.890625 48 
Q 26.265625 48 22.1875 43.046875 
Q 18.109375 38.09375 18.109375 28.8125 
L 18.109375 0 
L 9.078125 0 
L 9.078125 54.6875 
L 18.109375 54.6875 
L 18.109375 46.1875 
Q 20.953125 51.171875 25.484375 53.578125 
Q 30.03125 56 36.53125 56 
Q 37.453125 56 38.578125 55.875 
Q 39.703125 55.765625 41.0625 55.515625 
z
" id="DejaVuSans-114"/>
      <path d="M 56.203125 29.59375 
L 56.203125 25.203125 
L 14.890625 25.203125 
Q 15.484375 15.921875 20.484375 11.0625 
Q 25.484375 6.203125 34.421875 6.203125 
Q 39.59375 6.203125 44.453125 7.46875 
Q 49.3125 8.734375 54.109375 11.28125 
L 54.109375 2.78125 
Q 49.265625 0.734375 44.1875 -0.34375 
Q 39.109375 -1.421875 33.890625 -1.421875 
Q 20.796875 -1.421875 13.15625 6.1875 
Q 5.515625 13.8125 5.515625 26.8125 
Q 5.515625 40.234375 12.765625 48.109375 
Q 20.015625 56 32.328125 56 
Q 43.359375 56 49.78125 48.890625 
Q 56.203125 41.796875 56.203125 29.59375 
z
M 47.21875 32.234375 
Q 47.125 39.59375 43.09375 43.984375 
Q 39.0625 48.390625 32.421875 48.390625 
Q 24.90625 48.390625 20.390625 44.140625 
Q 15.875 39.890625 15.1875 32.171875 
z
" id="DejaVuSans-101"/>
      <path d="M 34.28125 27.484375 
Q 23.390625 27.484375 19.1875 25 
Q 14.984375 22.515625 14.984375 16.5 
Q 14.984375 11.71875 18.140625 8.90625 
Q 21.296875 6.109375 26.703125 6.109375 
Q 34.1875 6.109375 38.703125 11.40625 
Q 43.21875 16.703125 43.21875 25.484375 
L 43.21875 27.484375 
z
M 52.203125 31.203125 
L 52.203125 0 
L 43.21875 0 
L 43.21875 8.296875 
Q 40.140625 3.328125 35.546875 0.953125 
Q 30.953125 -1.421875 24.3125 -1.421875 
Q 15.921875 -1.421875 10.953125 3.296875 
Q 6 8.015625 6 15.921875 
Q 6 25.140625 12.171875 29.828125 
Q 18.359375 34.515625 30.609375 34.515625 
L 43.21875 34.515625 
L 43.21875 35.40625 
Q 43.21875 41.609375 39.140625 45 
Q 35.0625 48.390625 27.6875 48.390625 
Q 23 48.390625 18.546875 47.265625 
Q 14.109375 46.140625 10.015625 43.890625 
L 10.015625 52.203125 
Q 14.9375 54.109375 19.578125 55.046875 
Q 24.21875 56 28.609375 56 
Q 40.484375 56 46.34375 49.84375 
Q 52.203125 43.703125 52.203125 31.203125 
z
" id="DejaVuSans-97"/>
      <path d="M 45.40625 46.390625 
L 45.40625 75.984375 
L 54.390625 75.984375 
L 54.390625 0 
L 45.40625 0 
L 45.40625 8.203125 
Q 42.578125 3.328125 38.25 0.953125 
Q 33.9375 -1.421875 27.875 -1.421875 
Q 17.96875 -1.421875 11.734375 6.484375 
Q 5.515625 14.40625 5.515625 27.296875 
Q 5.515625 40.1875 11.734375 48.09375 
Q 17.96875 56 27.875 56 
Q 33.9375 56 38.25 53.625 
Q 42.578125 51.265625 45.40625 46.390625 
z
M 14.796875 27.296875 
Q 14.796875 17.390625 18.875 11.75 
Q 22.953125 6.109375 30.078125 6.109375 
Q 37.203125 6.109375 41.296875 11.75 
Q 45.40625 17.390625 45.40625 27.296875 
Q 45.40625 37.203125 41.296875 42.84375 
Q 37.203125 48.484375 30.078125 48.484375 
Q 22.953125 48.484375 18.875 42.84375 
Q 14.796875 37.203125 14.796875 27.296875 
z
" id="DejaVuSans-100"/>
      <path d="M 44.28125 53.078125 
L 44.28125 44.578125 
Q 40.484375 46.53125 36.375 47.5 
Q 32.28125 48.484375 27.875 48.484375 
Q 21.1875 48.484375 17.84375 46.4375 
Q 14.5 44.390625 14.5 40.28125 
Q 14.5 37.15625 16.890625 35.375 
Q 19.28125 33.59375 26.515625 31.984375 
L 29.59375 31.296875 
Q 39.15625 29.25 43.1875 25.515625 
Q 47.21875 21.78125 47.21875 15.09375 
Q 47.21875 7.46875 41.1875 3.015625 
Q 35.15625 -1.421875 24.609375 -1.421875 
Q 20.21875 -1.421875 15.453125 -0.5625 
Q 10.6875 0.296875 5.421875 2 
L 5.421875 11.28125 
Q 10.40625 8.6875 15.234375 7.390625 
Q 20.0625 6.109375 24.8125 6.109375 
Q 31.15625 6.109375 34.5625 8.28125 
Q 37.984375 10.453125 37.984375 14.40625 
Q 37.984375 18.0625 35.515625 20.015625 
Q 33.0625 21.96875 24.703125 23.78125 
L 21.578125 24.515625 
Q 13.234375 26.265625 9.515625 29.90625 
Q 5.8125 33.546875 5.8125 39.890625 
Q 5.8125 47.609375 11.28125 51.796875 
Q 16.75 56 26.8125 56 
Q 31.78125 56 36.171875 55.265625 
Q 40.578125 54.546875 44.28125 53.078125 
z
" id="DejaVuSans-115"/>
     </defs>
     <g transform="translate(217.168594 335.860562)scale(0.1 -0.1)">
      <use xlink:href="#DejaVuSans-116"/>
      <use x="39.208984" xlink:href="#DejaVuSans-104"/>
      <use x="102.587891" xlink:href="#DejaVuSans-114"/>
      <use x="141.451172" xlink:href="#DejaVuSans-101"/>
      <use x="202.974609" xlink:href="#DejaVuSans-97"/>
      <use x="264.253906" xlink:href="#DejaVuSans-100"/>
      <use x="327.730469" xlink:href="#DejaVuSans-115"/>
     </g>
    </g>
   </g>
   <g id="matplotlib.axis_2">
    <g id="ytick_1">
     <g id="line2d_47">
      <path clip-path="url(#p8a8989337b)" d="M 57.6 280.123269 
L 414.72 280.123269 
" style="fill:none;stroke:#b0b0b0;stroke-dasharray:5.12,1.28,0.8,1.28;stroke-dashoffset:0;stroke-width:0.8;"/>
     </g>
     <g id="line2d_48">
      <defs>
       <path d="M 0 0 
L -3.5 0 
" id="m4f291a1e00" style="stroke:#000000;stroke-width:0.8;"/>
      </defs>
      <g>
       <use style="stroke:#000000;stroke-width:0.8;" x="57.6" xlink:href="#m4f291a1e00" y="280.123269"/>
      </g>
     </g>
     <g id="text_25">
      <!-- 1 -->
      <g transform="translate(44.2375 283.922488)scale(0.1 -0.1)">
       <use xlink:href="#DejaVuSans-49"/>
      </g>
     </g>
    </g>
    <g id="ytick_2">
     <g id="line2d_49">
      <path clip-path="url(#p8a8989337b)" d="M 57.6 233.165211 
L 414.72 233.165211 
" style="fill:none;stroke:#b0b0b0;stroke-dasharray:5.12,1.28,0.8,1.28;stroke-dashoffset:0;stroke-width:0.8;"/>
     </g>
     <g id="line2d_50">
      <g>
       <use style="stroke:#000000;stroke-width:0.8;" x="57.6" xlink:href="#m4f291a1e00" y="233.165211"/>
      </g>
     </g>
     <g id="text_26">
      <!-- 2 -->
      <g transform="translate(44.2375 236.96443)scale(0.1 -0.1)">
       <use xlink:href="#DejaVuSans-50"/>
      </g>
     </g>
    </g>
    <g id="ytick_3">
     <g id="line2d_51">
      <path clip-path="url(#p8a8989337b)" d="M 57.6 186.207153 
L 414.72 186.207153 
" style="fill:none;stroke:#b0b0b0;stroke-dasharray:5.12,1.28,0.8,1.28;stroke-dashoffset:0;stroke-width:0.8;"/>
     </g>
     <g id="line2d_52">
      <g>
       <use style="stroke:#000000;stroke-width:0.8;" x="57.6" xlink:href="#m4f291a1e00" y="186.207153"/>
      </g>
     </g>
     <g id="text_27">
      <!-- 3 -->
      <g transform="translate(44.2375 190.006372)scale(0.1 -0.1)">
       <use xlink:href="#DejaVuSans-51"/>
      </g>
     </g>
    </g>
    <g id="ytick_4">
     <g id="line2d_53">
      <path clip-path="url(#p8a8989337b)" d="M 57.6 139.249094 
L 414.72 139.249094 
" style="fill:none;stroke:#b0b0b0;stroke-dasharray:5.12,1.28,0.8,1.28;stroke-dashoffset:0;stroke-width:0.8;"/>
     </g>
     <g id="line2d_54">
      <g>
       <use style="stroke:#000000;stroke-width:0.8;" x="57.6" xlink:href="#m4f291a1e00" y="139.249094"/>
      </g>
     </g>
     <g id="text_28">
      <!-- 4 -->
      <g transform="translate(44.2375 143.048313)scale(0.1 -0.1)">
       <use xlink:href="#DejaVuSans-52"/>
      </g>
     </g>
    </g>
    <g id="ytick_5">
     <g id="line2d_55">
      <path clip-path="url(#p8a8989337b)" d="M 57.6 92.291036 
L 414.72 92.291036 
" style="fill:none;stroke:#b0b0b0;stroke-dasharray:5.12,1.28,0.8,1.28;stroke-dashoffset:0;stroke-width:0.8;"/>
     </g>
     <g id="line2d_56">
      <g>
       <use style="stroke:#000000;stroke-width:0.8;" x="57.6" xlink:href="#m4f291a1e00" y="92.291036"/>
      </g>
     </g>
     <g id="text_29">
      <!-- 5 -->
      <g transform="translate(44.2375 96.090255)scale(0.1 -0.1)">
       <use xlink:href="#DejaVuSans-53"/>
      </g>
     </g>
    </g>
    <g id="ytick_6">
     <g id="line2d_57">
      <path clip-path="url(#p8a8989337b)" d="M 57.6 45.332978 
L 414.72 45.332978 
" style="fill:none;stroke:#b0b0b0;stroke-dasharray:5.12,1.28,0.8,1.28;stroke-dashoffset:0;stroke-width:0.8;"/>
     </g>
     <g id="line2d_58">
      <g>
       <use style="stroke:#000000;stroke-width:0.8;" x="57.6" xlink:href="#m4f291a1e00" y="45.332978"/>
      </g>
     </g>
     <g id="text_30">
      <!-- 6 -->
      <g transform="translate(44.2375 49.132197)scale(0.1 -0.1)">
       <use xlink:href="#DejaVuSans-54"/>
      </g>
     </g>
    </g>
    <g id="text_31">
     <!-- speed up -->
     <defs>
      <path d="M 18.109375 8.203125 
L 18.109375 -20.796875 
L 9.078125 -20.796875 
L 9.078125 54.6875 
L 18.109375 54.6875 
L 18.109375 46.390625 
Q 20.953125 51.265625 25.265625 53.625 
Q 29.59375 56 35.59375 56 
Q 45.5625 56 51.78125 48.09375 
Q 58.015625 40.1875 58.015625 27.296875 
Q 58.015625 14.40625 51.78125 6.484375 
Q 45.5625 -1.421875 35.59375 -1.421875 
Q 29.59375 -1.421875 25.265625 0.953125 
Q 20.953125 3.328125 18.109375 8.203125 
z
M 48.6875 27.296875 
Q 48.6875 37.203125 44.609375 42.84375 
Q 40.53125 48.484375 33.40625 48.484375 
Q 26.265625 48.484375 22.1875 42.84375 
Q 18.109375 37.203125 18.109375 27.296875 
Q 18.109375 17.390625 22.1875 11.75 
Q 26.265625 6.109375 33.40625 6.109375 
Q 40.53125 6.109375 44.609375 11.75 
Q 48.6875 17.390625 48.6875 27.296875 
z
" id="DejaVuSans-112"/>
      <path id="DejaVuSans-32"/>
      <path d="M 8.5 21.578125 
L 8.5 54.6875 
L 17.484375 54.6875 
L 17.484375 21.921875 
Q 17.484375 14.15625 20.5 10.265625 
Q 23.53125 6.390625 29.59375 6.390625 
Q 36.859375 6.390625 41.078125 11.03125 
Q 45.3125 15.671875 45.3125 23.6875 
L 45.3125 54.6875 
L 54.296875 54.6875 
L 54.296875 0 
L 45.3125 0 
L 45.3125 8.40625 
Q 42.046875 3.421875 37.71875 1 
Q 33.40625 -1.421875 27.6875 -1.421875 
Q 18.265625 -1.421875 13.375 4.4375 
Q 8.5 10.296875 8.5 21.578125 
z
M 31.109375 56 
z
" id="DejaVuSans-117"/>
     </defs>
     <g transform="translate(38.157812 197.566281)rotate(-90)scale(0.1 -0.1)">
      <use xlink:href="#DejaVuSans-115"/>
      <use x="52.099609" xlink:href="#DejaVuSans-112"/>
      <use x="115.576172" xlink:href="#DejaVuSans-101"/>
      <use x="177.099609" xlink:href="#DejaVuSans-101"/>
      <use x="238.623047" xlink:href="#DejaVuSans-100"/>
      <use x="302.099609" xlink:href="#DejaVuSans-32"/>
      <use x="333.886719" xlink:href="#DejaVuSans-117"/>
      <use x="397.265625" xlink:href="#DejaVuSans-112"/>
     </g>
    </g>
   </g>
   <g id="line2d_59">
    <path clip-path="url(#p8a8989337b)" d="M 61.612584 281.844846 
L 65.625169 274.724331 
L 69.637753 253.686978 
L 73.650337 240.812516 
L 77.662921 223.682263 
L 81.675506 212.148848 
L 85.68809 182.576472 
L 89.700674 170.499678 
L 93.713258 156.399885 
L 97.725843 150.541565 
L 101.738427 129.0841 
L 105.751011 119.785565 
L 109.763596 121.682896 
L 113.77618 95.696374 
L 117.788764 120.928807 
L 121.801348 99.665616 
L 125.813933 87.729825 
L 129.826517 101.170562 
L 133.839101 81.692095 
L 137.851685 73.503686 
L 141.86427 89.425717 
L 145.876854 71.535494 
L 149.889438 67.648328 
L 153.902022 76.710183 
L 157.914607 61.09575 
L 161.927191 79.658829 
L 165.939775 74.48315 
L 169.95236 92.765185 
L 173.964944 53.568 
L 177.977528 74.183348 
L 181.990112 65.970333 
L 186.002697 101.593678 
L 190.015281 95.764162 
L 194.027865 106.244029 
L 198.040449 93.604712 
L 202.053034 109.487507 
L 206.065618 101.114238 
L 210.078202 111.463714 
L 214.090787 102.107668 
L 218.103371 117.417586 
L 222.115955 102.748433 
L 226.128539 116.142687 
L 230.141124 102.860211 
L 234.153708 121.871539 
L 238.166292 139.348073 
L 242.178876 148.455924 
L 246.191461 149.361419 
L 250.204045 147.333029 
L 254.216629 149.110008 
L 258.229213 150.583934 
L 262.241798 149.25239 
L 266.254382 146.27064 
L 270.266966 146.250824 
L 274.279551 150.62483 
L 278.292135 149.560959 
L 282.304719 154.483543 
L 286.317303 151.862771 
L 290.329888 154.154695 
L 294.342472 154.170261 
L 298.355056 156.102159 
L 302.36764 149.831607 
L 306.380225 155.142555 
L 310.392809 154.361473 
L 314.405393 150.150334 
L 318.417978 157.452256 
L 322.430562 157.298073 
L 326.443146 158.691356 
L 330.45573 162.436228 
L 334.468315 160.713983 
L 338.480899 163.206879 
L 342.493483 163.511585 
L 346.506067 160.49347 
L 350.518652 163.728953 
L 354.531236 166.028839 
L 358.54382 166.535919 
L 362.556404 165.73365 
L 366.568989 161.378432 
L 370.581573 166.487639 
L 374.594157 162.507811 
L 378.606742 164.183408 
L 382.619326 169.28172 
L 386.63191 170.728519 
L 390.644494 165.597605 
L 394.657079 173.166071 
L 398.669663 164.132053 
L 402.682247 167.972116 
L 406.694831 176.719698 
L 410.707416 176.807306 
" style="fill:none;stroke:#0000ff;stroke-dasharray:1.5,2.475;stroke-dashoffset:0;stroke-width:1.5;"/>
    <defs>
     <path d="M 0 1.5 
C 0.397805 1.5 0.77937 1.341951 1.06066 1.06066 
C 1.341951 0.77937 1.5 0.397805 1.5 0 
C 1.5 -0.397805 1.341951 -0.77937 1.06066 -1.06066 
C 0.77937 -1.341951 0.397805 -1.5 0 -1.5 
C -0.397805 -1.5 -0.77937 -1.341951 -1.06066 -1.06066 
C -1.341951 -0.77937 -1.5 -0.397805 -1.5 0 
C -1.5 0.397805 -1.341951 0.77937 -1.06066 1.06066 
C -0.77937 1.341951 -0.397805 1.5 0 1.5 
z
" id="me196293cb0" style="stroke:#0000ff;"/>
    </defs>
    <g clip-path="url(#p8a8989337b)">
     <use style="fill:#0000ff;stroke:#0000ff;" x="61.612584" xlink:href="#me196293cb0" y="281.844846"/>
     <use style="fill:#0000ff;stroke:#0000ff;" x="65.625169" xlink:href="#me196293cb0" y="274.724331"/>
     <use style="fill:#0000ff;stroke:#0000ff;" x="69.637753" xlink:href="#me196293cb0" y="253.686978"/>
     <use style="fill:#0000ff;stroke:#0000ff;" x="73.650337" xlink:href="#me196293cb0" y="240.812516"/>
     <use style="fill:#0000ff;stroke:#0000ff;" x="77.662921" xlink:href="#me196293cb0" y="223.682263"/>
     <use style="fill:#0000ff;stroke:#0000ff;" x="81.675506" xlink:href="#me196293cb0" y="212.148848"/>
     <use style="fill:#0000ff;stroke:#0000ff;" x="85.68809" xlink:href="#me196293cb0" y="182.576472"/>
     <use style="fill:#0000ff;stroke:#0000ff;" x="89.700674" xlink:href="#me196293cb0" y="170.499678"/>
     <use style="fill:#0000ff;stroke:#0000ff;" x="93.713258" xlink:href="#me196293cb0" y="156.399885"/>
     <use style="fill:#0000ff;stroke:#0000ff;" x="97.725843" xlink:href="#me196293cb0" y="150.541565"/>
     <use style="fill:#0000ff;stroke:#0000ff;" x="101.738427" xlink:href="#me196293cb0" y="129.0841"/>
     <use style="fill:#0000ff;stroke:#0000ff;" x="105.751011" xlink:href="#me196293cb0" y="119.785565"/>
     <use style="fill:#0000ff;stroke:#0000ff;" x="109.763596" xlink:href="#me196293cb0" y="121.682896"/>
     <use style="fill:#0000ff;stroke:#0000ff;" x="113.77618" xlink:href="#me196293cb0" y="95.696374"/>
     <use style="fill:#0000ff;stroke:#0000ff;" x="117.788764" xlink:href="#me196293cb0" y="120.928807"/>
     <use style="fill:#0000ff;stroke:#0000ff;" x="121.801348" xlink:href="#me196293cb0" y="99.665616"/>
     <use style="fill:#0000ff;stroke:#0000ff;" x="125.813933" xlink:href="#me196293cb0" y="87.729825"/>
     <use style="fill:#0000ff;stroke:#0000ff;" x="129.826517" xlink:href="#me196293cb0" y="101.170562"/>
     <use style="fill:#0000ff;stroke:#0000ff;" x="133.839101" xlink:href="#me196293cb0" y="81.692095"/>
     <use style="fill:#0000ff;stroke:#0000ff;" x="137.851685" xlink:href="#me196293cb0" y="73.503686"/>
     <use style="fill:#0000ff;stroke:#0000ff;" x="141.86427" xlink:href="#me196293cb0" y="89.425717"/>
     <use style="fill:#0000ff;stroke:#0000ff;" x="145.876854" xlink:href="#me196293cb0" y="71.535494"/>
     <use style="fill:#0000ff;stroke:#0000ff;" x="149.889438" xlink:href="#me196293cb0" y="67.648328"/>
     <use style="fill:#0000ff;stroke:#0000ff;" x="153.902022" xlink:href="#me196293cb0" y="76.710183"/>
     <use style="fill:#0000ff;stroke:#0000ff;" x="157.914607" xlink:href="#me196293cb0" y="61.09575"/>
     <use style="fill:#0000ff;stroke:#0000ff;" x="161.927191" xlink:href="#me196293cb0" y="79.658829"/>
     <use style="fill:#0000ff;stroke:#0000ff;" x="165.939775" xlink:href="#me196293cb0" y="74.48315"/>
     <use style="fill:#0000ff;stroke:#0000ff;" x="169.95236" xlink:href="#me196293cb0" y="92.765185"/>
     <use style="fill:#0000ff;stroke:#0000ff;" x="173.964944" xlink:href="#me196293cb0" y="53.568"/>
     <use style="fill:#0000ff;stroke:#0000ff;" x="177.977528" xlink:href="#me196293cb0" y="74.183348"/>
     <use style="fill:#0000ff;stroke:#0000ff;" x="181.990112" xlink:href="#me196293cb0" y="65.970333"/>
     <use style="fill:#0000ff;stroke:#0000ff;" x="186.002697" xlink:href="#me196293cb0" y="101.593678"/>
     <use style="fill:#0000ff;stroke:#0000ff;" x="190.015281" xlink:href="#me196293cb0" y="95.764162"/>
     <use style="fill:#0000ff;stroke:#0000ff;" x="194.027865" xlink:href="#me196293cb0" y="106.244029"/>
     <use style="fill:#0000ff;stroke:#0000ff;" x="198.040449" xlink:href="#me196293cb0" y="93.604712"/>
     <use style="fill:#0000ff;stroke:#0000ff;" x="202.053034" xlink:href="#me196293cb0" y="109.487507"/>
     <use style="fill:#0000ff;stroke:#0000ff;" x="206.065618" xlink:href="#me196293cb0" y="101.114238"/>
     <use style="fill:#0000ff;stroke:#0000ff;" x="210.078202" xlink:href="#me196293cb0" y="111.463714"/>
     <use style="fill:#0000ff;stroke:#0000ff;" x="214.090787" xlink:href="#me196293cb0" y="102.107668"/>
     <use style="fill:#0000ff;stroke:#0000ff;" x="218.103371" xlink:href="#me196293cb0" y="117.417586"/>
     <use style="fill:#0000ff;stroke:#0000ff;" x="222.115955" xlink:href="#me196293cb0" y="102.748433"/>
     <use style="fill:#0000ff;stroke:#0000ff;" x="226.128539" xlink:href="#me196293cb0" y="116.142687"/>
     <use style="fill:#0000ff;stroke:#0000ff;" x="230.141124" xlink:href="#me196293cb0" y="102.860211"/>
     <use style="fill:#0000ff;stroke:#0000ff;" x="234.153708" xlink:href="#me196293cb0" y="121.871539"/>
     <use style="fill:#0000ff;stroke:#0000ff;" x="238.166292" xlink:href="#me196293cb0" y="139.348073"/>
     <use style="fill:#0000ff;stroke:#0000ff;" x="242.178876" xlink:href="#me196293cb0" y="148.455924"/>
     <use style="fill:#0000ff;stroke:#0000ff;" x="246.191461" xlink:href="#me196293cb0" y="149.361419"/>
     <use style="fill:#0000ff;stroke:#0000ff;" x="250.204045" xlink:href="#me196293cb0" y="147.333029"/>
     <use style="fill:#0000ff;stroke:#0000ff;" x="254.216629" xlink:href="#me196293cb0" y="149.110008"/>
     <use style="fill:#0000ff;stroke:#0000ff;" x="258.229213" xlink:href="#me196293cb0" y="150.583934"/>
     <use style="fill:#0000ff;stroke:#0000ff;" x="262.241798" xlink:href="#me196293cb0" y="149.25239"/>
     <use style="fill:#0000ff;stroke:#0000ff;" x="266.254382" xlink:href="#me196293cb0" y="146.27064"/>
     <use style="fill:#0000ff;stroke:#0000ff;" x="270.266966" xlink:href="#me196293cb0" y="146.250824"/>
     <use style="fill:#0000ff;stroke:#0000ff;" x="274.279551" xlink:href="#me196293cb0" y="150.62483"/>
     <use style="fill:#0000ff;stroke:#0000ff;" x="278.292135" xlink:href="#me196293cb0" y="149.560959"/>
     <use style="fill:#0000ff;stroke:#0000ff;" x="282.304719" xlink:href="#me196293cb0" y="154.483543"/>
     <use style="fill:#0000ff;stroke:#0000ff;" x="286.317303" xlink:href="#me196293cb0" y="151.862771"/>
     <use style="fill:#0000ff;stroke:#0000ff;" x="290.329888" xlink:href="#me196293cb0" y="154.154695"/>
     <use style="fill:#0000ff;stroke:#0000ff;" x="294.342472" xlink:href="#me196293cb0" y="154.170261"/>
     <use style="fill:#0000ff;stroke:#0000ff;" x="298.355056" xlink:href="#me196293cb0" y="156.102159"/>
     <use style="fill:#0000ff;stroke:#0000ff;" x="302.36764" xlink:href="#me196293cb0" y="149.831607"/>
     <use style="fill:#0000ff;stroke:#0000ff;" x="306.380225" xlink:href="#me196293cb0" y="155.142555"/>
     <use style="fill:#0000ff;stroke:#0000ff;" x="310.392809" xlink:href="#me196293cb0" y="154.361473"/>
     <use style="fill:#0000ff;stroke:#0000ff;" x="314.405393" xlink:href="#me196293cb0" y="150.150334"/>
     <use style="fill:#0000ff;stroke:#0000ff;" x="318.417978" xlink:href="#me196293cb0" y="157.452256"/>
     <use style="fill:#0000ff;stroke:#0000ff;" x="322.430562" xlink:href="#me196293cb0" y="157.298073"/>
     <use style="fill:#0000ff;stroke:#0000ff;" x="326.443146" xlink:href="#me196293cb0" y="158.691356"/>
     <use style="fill:#0000ff;stroke:#0000ff;" x="330.45573" xlink:href="#me196293cb0" y="162.436228"/>
     <use style="fill:#0000ff;stroke:#0000ff;" x="334.468315" xlink:href="#me196293cb0" y="160.713983"/>
     <use style="fill:#0000ff;stroke:#0000ff;" x="338.480899" xlink:href="#me196293cb0" y="163.206879"/>
     <use style="fill:#0000ff;stroke:#0000ff;" x="342.493483" xlink:href="#me196293cb0" y="163.511585"/>
     <use style="fill:#0000ff;stroke:#0000ff;" x="346.506067" xlink:href="#me196293cb0" y="160.49347"/>
     <use style="fill:#0000ff;stroke:#0000ff;" x="350.518652" xlink:href="#me196293cb0" y="163.728953"/>
     <use style="fill:#0000ff;stroke:#0000ff;" x="354.531236" xlink:href="#me196293cb0" y="166.028839"/>
     <use style="fill:#0000ff;stroke:#0000ff;" x="358.54382" xlink:href="#me196293cb0" y="166.535919"/>
     <use style="fill:#0000ff;stroke:#0000ff;" x="362.556404" xlink:href="#me196293cb0" y="165.73365"/>
     <use style="fill:#0000ff;stroke:#0000ff;" x="366.568989" xlink:href="#me196293cb0" y="161.378432"/>
     <use style="fill:#0000ff;stroke:#0000ff;" x="370.581573" xlink:href="#me196293cb0" y="166.487639"/>
     <use style="fill:#0000ff;stroke:#0000ff;" x="374.594157" xlink:href="#me196293cb0" y="162.507811"/>
     <use style="fill:#0000ff;stroke:#0000ff;" x="378.606742" xlink:href="#me196293cb0" y="164.183408"/>
     <use style="fill:#0000ff;stroke:#0000ff;" x="382.619326" xlink:href="#me196293cb0" y="169.28172"/>
     <use style="fill:#0000ff;stroke:#0000ff;" x="386.63191" xlink:href="#me196293cb0" y="170.728519"/>
     <use style="fill:#0000ff;stroke:#0000ff;" x="390.644494" xlink:href="#me196293cb0" y="165.597605"/>
     <use style="fill:#0000ff;stroke:#0000ff;" x="394.657079" xlink:href="#me196293cb0" y="173.166071"/>
     <use style="fill:#0000ff;stroke:#0000ff;" x="398.669663" xlink:href="#me196293cb0" y="164.132053"/>
     <use style="fill:#0000ff;stroke:#0000ff;" x="402.682247" xlink:href="#me196293cb0" y="167.972116"/>
     <use style="fill:#0000ff;stroke:#0000ff;" x="406.694831" xlink:href="#me196293cb0" y="176.719698"/>
     <use style="fill:#0000ff;stroke:#0000ff;" x="410.707416" xlink:href="#me196293cb0" y="176.807306"/>
    </g>
   </g>
   <g id="line2d_60">
    <path clip-path="url(#p8a8989337b)" d="M 61.612584 277.827312 
L 65.625169 279.07656 
L 69.637753 262.535245 
L 73.650337 252.114643 
L 77.662921 244.377864 
L 81.675506 236.635037 
L 85.68809 230.5104 
L 89.700674 225.52845 
L 93.713258 223.571149 
L 97.725843 228.479328 
L 101.738427 219.885709 
L 105.751011 218.615486 
L 109.763596 225.510554 
L 113.77618 218.588357 
L 117.788764 225.550643 
L 121.801348 219.711613 
L 125.813933 222.04896 
L 129.826517 237.276861 
L 133.839101 226.09875 
L 137.851685 232.00809 
L 141.86427 243.333284 
L 145.876854 233.397414 
L 149.889438 237.262725 
L 153.902022 242.620393 
L 157.914607 239.885896 
L 161.927191 249.841019 
L 165.939775 252.49413 
L 169.95236 257.748256 
L 173.964944 245.675617 
L 177.977528 256.604983 
L 181.990112 262.261804 
L 186.002697 269.755371 
L 190.015281 268.788733 
L 194.027865 271.259095 
L 198.040449 268.56582 
L 202.053034 273.629882 
L 206.065618 271.816562 
L 210.078202 273.369219 
L 214.090787 272.86964 
L 218.103371 274.393564 
L 222.115955 273.33054 
L 226.128539 275.751512 
L 230.141124 275.561475 
L 234.153708 279.095959 
L 238.166292 285.269961 
L 242.178876 286.169571 
L 246.191461 286.462248 
L 250.204045 286.287892 
L 254.216629 286.331807 
L 258.229213 286.562999 
L 262.241798 286.672779 
L 266.254382 286.594672 
L 270.266966 286.998845 
L 274.279551 287.095817 
L 278.292135 287.387274 
L 282.304719 287.447737 
L 286.317303 287.756027 
L 290.329888 288.060909 
L 294.342472 288.105747 
L 298.355056 288.165966 
L 302.36764 288.716183 
L 306.380225 288.533815 
L 310.392809 288.693169 
L 314.405393 288.756116 
L 318.417978 289.114529 
L 322.430562 289.327771 
L 326.443146 289.591217 
L 330.45573 290.116322 
L 334.468315 290.272538 
L 338.480899 290.384057 
L 342.493483 290.683098 
L 346.506067 290.986909 
L 350.518652 291.342388 
L 354.531236 291.457218 
L 358.54382 291.81144 
L 362.556404 292.059037 
L 366.568989 292.343502 
L 370.581573 292.587076 
L 374.594157 292.869933 
L 378.606742 293.239861 
L 382.619326 293.525994 
L 386.63191 293.631907 
L 390.644494 293.859728 
L 394.657079 294.103627 
L 398.669663 294.544338 
L 402.682247 294.638 
L 406.694831 295.003807 
L 410.707416 295.488 
" style="fill:none;stroke:#ff0000;stroke-dasharray:1.5,2.475;stroke-dashoffset:0;stroke-width:1.5;"/>
    <defs>
     <path d="M 0 1.5 
C 0.397805 1.5 0.77937 1.341951 1.06066 1.06066 
C 1.341951 0.77937 1.5 0.397805 1.5 0 
C 1.5 -0.397805 1.341951 -0.77937 1.06066 -1.06066 
C 0.77937 -1.341951 0.397805 -1.5 0 -1.5 
C -0.397805 -1.5 -0.77937 -1.341951 -1.06066 -1.06066 
C -1.341951 -0.77937 -1.5 -0.397805 -1.5 0 
C -1.5 0.397805 -1.341951 0.77937 -1.06066 1.06066 
C -0.77937 1.341951 -0.397805 1.5 0 1.5 
z
" id="m84433291a3" style="stroke:#ff0000;"/>
    </defs>
    <g clip-path="url(#p8a8989337b)">
     <use style="fill:#ff0000;stroke:#ff0000;" x="61.612584" xlink:href="#m84433291a3" y="277.827312"/>
     <use style="fill:#ff0000;stroke:#ff0000;" x="65.625169" xlink:href="#m84433291a3" y="279.07656"/>
     <use style="fill:#ff0000;stroke:#ff0000;" x="69.637753" xlink:href="#m84433291a3" y="262.535245"/>
     <use style="fill:#ff0000;stroke:#ff0000;" x="73.650337" xlink:href="#m84433291a3" y="252.114643"/>
     <use style="fill:#ff0000;stroke:#ff0000;" x="77.662921" xlink:href="#m84433291a3" y="244.377864"/>
     <use style="fill:#ff0000;stroke:#ff0000;" x="81.675506" xlink:href="#m84433291a3" y="236.635037"/>
     <use style="fill:#ff0000;stroke:#ff0000;" x="85.68809" xlink:href="#m84433291a3" y="230.5104"/>
     <use style="fill:#ff0000;stroke:#ff0000;" x="89.700674" xlink:href="#m84433291a3" y="225.52845"/>
     <use style="fill:#ff0000;stroke:#ff0000;" x="93.713258" xlink:href="#m84433291a3" y="223.571149"/>
     <use style="fill:#ff0000;stroke:#ff0000;" x="97.725843" xlink:href="#m84433291a3" y="228.479328"/>
     <use style="fill:#ff0000;stroke:#ff0000;" x="101.738427" xlink:href="#m84433291a3" y="219.885709"/>
     <use style="fill:#ff0000;stroke:#ff0000;" x="105.751011" xlink:href="#m84433291a3" y="218.615486"/>
     <use style="fill:#ff0000;stroke:#ff0000;" x="109.763596" xlink:href="#m84433291a3" y="225.510554"/>
     <use style="fill:#ff0000;stroke:#ff0000;" x="113.77618" xlink:href="#m84433291a3" y="218.588357"/>
     <use style="fill:#ff0000;stroke:#ff0000;" x="117.788764" xlink:href="#m84433291a3" y="225.550643"/>
     <use style="fill:#ff0000;stroke:#ff0000;" x="121.801348" xlink:href="#m84433291a3" y="219.711613"/>
     <use style="fill:#ff0000;stroke:#ff0000;" x="125.813933" xlink:href="#m84433291a3" y="222.04896"/>
     <use style="fill:#ff0000;stroke:#ff0000;" x="129.826517" xlink:href="#m84433291a3" y="237.276861"/>
     <use style="fill:#ff0000;stroke:#ff0000;" x="133.839101" xlink:href="#m84433291a3" y="226.09875"/>
     <use style="fill:#ff0000;stroke:#ff0000;" x="137.851685" xlink:href="#m84433291a3" y="232.00809"/>
     <use style="fill:#ff0000;stroke:#ff0000;" x="141.86427" xlink:href="#m84433291a3" y="243.333284"/>
     <use style="fill:#ff0000;stroke:#ff0000;" x="145.876854" xlink:href="#m84433291a3" y="233.397414"/>
     <use style="fill:#ff0000;stroke:#ff0000;" x="149.889438" xlink:href="#m84433291a3" y="237.262725"/>
     <use style="fill:#ff0000;stroke:#ff0000;" x="153.902022" xlink:href="#m84433291a3" y="242.620393"/>
     <use style="fill:#ff0000;stroke:#ff0000;" x="157.914607" xlink:href="#m84433291a3" y="239.885896"/>
     <use style="fill:#ff0000;stroke:#ff0000;" x="161.927191" xlink:href="#m84433291a3" y="249.841019"/>
     <use style="fill:#ff0000;stroke:#ff0000;" x="165.939775" xlink:href="#m84433291a3" y="252.49413"/>
     <use style="fill:#ff0000;stroke:#ff0000;" x="169.95236" xlink:href="#m84433291a3" y="257.748256"/>
     <use style="fill:#ff0000;stroke:#ff0000;" x="173.964944" xlink:href="#m84433291a3" y="245.675617"/>
     <use style="fill:#ff0000;stroke:#ff0000;" x="177.977528" xlink:href="#m84433291a3" y="256.604983"/>
     <use style="fill:#ff0000;stroke:#ff0000;" x="181.990112" xlink:href="#m84433291a3" y="262.261804"/>
     <use style="fill:#ff0000;stroke:#ff0000;" x="186.002697" xlink:href="#m84433291a3" y="269.755371"/>
     <use style="fill:#ff0000;stroke:#ff0000;" x="190.015281" xlink:href="#m84433291a3" y="268.788733"/>
     <use style="fill:#ff0000;stroke:#ff0000;" x="194.027865" xlink:href="#m84433291a3" y="271.259095"/>
     <use style="fill:#ff0000;stroke:#ff0000;" x="198.040449" xlink:href="#m84433291a3" y="268.56582"/>
     <use style="fill:#ff0000;stroke:#ff0000;" x="202.053034" xlink:href="#m84433291a3" y="273.629882"/>
     <use style="fill:#ff0000;stroke:#ff0000;" x="206.065618" xlink:href="#m84433291a3" y="271.816562"/>
     <use style="fill:#ff0000;stroke:#ff0000;" x="210.078202" xlink:href="#m84433291a3" y="273.369219"/>
     <use style="fill:#ff0000;stroke:#ff0000;" x="214.090787" xlink:href="#m84433291a3" y="272.86964"/>
     <use style="fill:#ff0000;stroke:#ff0000;" x="218.103371" xlink:href="#m84433291a3" y="274.393564"/>
     <use style="fill:#ff0000;stroke:#ff0000;" x="222.115955" xlink:href="#m84433291a3" y="273.33054"/>
     <use style="fill:#ff0000;stroke:#ff0000;" x="226.128539" xlink:href="#m84433291a3" y="275.751512"/>
     <use style="fill:#ff0000;stroke:#ff0000;" x="230.141124" xlink:href="#m84433291a3" y="275.561475"/>
     <use style="fill:#ff0000;stroke:#ff0000;" x="234.153708" xlink:href="#m84433291a3" y="279.095959"/>
     <use style="fill:#ff0000;stroke:#ff0000;" x="238.166292" xlink:href="#m84433291a3" y="285.269961"/>
     <use style="fill:#ff0000;stroke:#ff0000;" x="242.178876" xlink:href="#m84433291a3" y="286.169571"/>
     <use style="fill:#ff0000;stroke:#ff0000;" x="246.191461" xlink:href="#m84433291a3" y="286.462248"/>
     <use style="fill:#ff0000;stroke:#ff0000;" x="250.204045" xlink:href="#m84433291a3" y="286.287892"/>
     <use style="fill:#ff0000;stroke:#ff0000;" x="254.216629" xlink:href="#m84433291a3" y="286.331807"/>
     <use style="fill:#ff0000;stroke:#ff0000;" x="258.229213" xlink:href="#m84433291a3" y="286.562999"/>
     <use style="fill:#ff0000;stroke:#ff0000;" x="262.241798" xlink:href="#m84433291a3" y="286.672779"/>
     <use style="fill:#ff0000;stroke:#ff0000;" x="266.254382" xlink:href="#m84433291a3" y="286.594672"/>
     <use style="fill:#ff0000;stroke:#ff0000;" x="270.266966" xlink:href="#m84433291a3" y="286.998845"/>
     <use style="fill:#ff0000;stroke:#ff0000;" x="274.279551" xlink:href="#m84433291a3" y="287.095817"/>
     <use style="fill:#ff0000;stroke:#ff0000;" x="278.292135" xlink:href="#m84433291a3" y="287.387274"/>
     <use style="fill:#ff0000;stroke:#ff0000;" x="282.304719" xlink:href="#m84433291a3" y="287.447737"/>
     <use style="fill:#ff0000;stroke:#ff0000;" x="286.317303" xlink:href="#m84433291a3" y="287.756027"/>
     <use style="fill:#ff0000;stroke:#ff0000;" x="290.329888" xlink:href="#m84433291a3" y="288.060909"/>
     <use style="fill:#ff0000;stroke:#ff0000;" x="294.342472" xlink:href="#m84433291a3" y="288.105747"/>
     <use style="fill:#ff0000;stroke:#ff0000;" x="298.355056" xlink:href="#m84433291a3" y="288.165966"/>
     <use style="fill:#ff0000;stroke:#ff0000;" x="302.36764" xlink:href="#m84433291a3" y="288.716183"/>
     <use style="fill:#ff0000;stroke:#ff0000;" x="306.380225" xlink:href="#m84433291a3" y="288.533815"/>
     <use style="fill:#ff0000;stroke:#ff0000;" x="310.392809" xlink:href="#m84433291a3" y="288.693169"/>
     <use style="fill:#ff0000;stroke:#ff0000;" x="314.405393" xlink:href="#m84433291a3" y="288.756116"/>
     <use style="fill:#ff0000;stroke:#ff0000;" x="318.417978" xlink:href="#m84433291a3" y="289.114529"/>
     <use style="fill:#ff0000;stroke:#ff0000;" x="322.430562" xlink:href="#m84433291a3" y="289.327771"/>
     <use style="fill:#ff0000;stroke:#ff0000;" x="326.443146" xlink:href="#m84433291a3" y="289.591217"/>
     <use style="fill:#ff0000;stroke:#ff0000;" x="330.45573" xlink:href="#m84433291a3" y="290.116322"/>
     <use style="fill:#ff0000;stroke:#ff0000;" x="334.468315" xlink:href="#m84433291a3" y="290.272538"/>
     <use style="fill:#ff0000;stroke:#ff0000;" x="338.480899" xlink:href="#m84433291a3" y="290.384057"/>
     <use style="fill:#ff0000;stroke:#ff0000;" x="342.493483" xlink:href="#m84433291a3" y="290.683098"/>
     <use style="fill:#ff0000;stroke:#ff0000;" x="346.506067" xlink:href="#m84433291a3" y="290.986909"/>
     <use style="fill:#ff0000;stroke:#ff0000;" x="350.518652" xlink:href="#m84433291a3" y="291.342388"/>
     <use style="fill:#ff0000;stroke:#ff0000;" x="354.531236" xlink:href="#m84433291a3" y="291.457218"/>
     <use style="fill:#ff0000;stroke:#ff0000;" x="358.54382" xlink:href="#m84433291a3" y="291.81144"/>
     <use style="fill:#ff0000;stroke:#ff0000;" x="362.556404" xlink:href="#m84433291a3" y="292.059037"/>
     <use style="fill:#ff0000;stroke:#ff0000;" x="366.568989" xlink:href="#m84433291a3" y="292.343502"/>
     <use style="fill:#ff0000;stroke:#ff0000;" x="370.581573" xlink:href="#m84433291a3" y="292.587076"/>
     <use style="fill:#ff0000;stroke:#ff0000;" x="374.594157" xlink:href="#m84433291a3" y="292.869933"/>
     <use style="fill:#ff0000;stroke:#ff0000;" x="378.606742" xlink:href="#m84433291a3" y="293.239861"/>
     <use style="fill:#ff0000;stroke:#ff0000;" x="382.619326" xlink:href="#m84433291a3" y="293.525994"/>
     <use style="fill:#ff0000;stroke:#ff0000;" x="386.63191" xlink:href="#m84433291a3" y="293.631907"/>
     <use style="fill:#ff0000;stroke:#ff0000;" x="390.644494" xlink:href="#m84433291a3" y="293.859728"/>
     <use style="fill:#ff0000;stroke:#ff0000;" x="394.657079" xlink:href="#m84433291a3" y="294.103627"/>
     <use style="fill:#ff0000;stroke:#ff0000;" x="398.669663" xlink:href="#m84433291a3" y="294.544338"/>
     <use style="fill:#ff0000;stroke:#ff0000;" x="402.682247" xlink:href="#m84433291a3" y="294.638"/>
     <use style="fill:#ff0000;stroke:#ff0000;" x="406.694831" xlink:href="#m84433291a3" y="295.003807"/>
     <use style="fill:#ff0000;stroke:#ff0000;" x="410.707416" xlink:href="#m84433291a3" y="295.488"/>
    </g>
   </g>
   <g id="line2d_61">
    <path clip-path="url(#p8a8989337b)" d="M 61.612584 279.836079 
L 65.625169 276.900445 
L 69.637753 258.111111 
L 73.650337 246.46358 
L 77.662921 234.030063 
L 81.675506 224.391942 
L 85.68809 206.543436 
L 89.700674 198.014064 
L 93.713258 189.985517 
L 97.725843 189.510447 
L 101.738427 174.484905 
L 105.751011 169.200525 
L 109.763596 173.596725 
L 113.77618 157.142366 
L 117.788764 173.239725 
L 121.801348 159.688615 
L 125.813933 154.889392 
L 129.826517 169.223712 
L 133.839101 153.895422 
L 137.851685 152.755888 
L 141.86427 166.3795 
L 145.876854 152.466454 
L 149.889438 152.455527 
L 153.902022 159.665288 
L 157.914607 150.490823 
L 161.927191 164.749924 
L 165.939775 163.48864 
L 169.95236 175.25672 
L 173.964944 149.621809 
L 177.977528 165.394166 
L 181.990112 164.116068 
L 186.002697 185.674524 
L 190.015281 182.276448 
L 194.027865 188.751562 
L 198.040449 181.085266 
L 202.053034 191.558695 
L 206.065618 186.4654 
L 210.078202 192.416466 
L 214.090787 187.488654 
L 218.103371 195.905575 
L 222.115955 188.039487 
L 226.128539 195.9471 
L 230.141124 189.210843 
L 234.153708 200.483749 
L 238.166292 212.309017 
L 242.178876 217.312748 
L 246.191461 217.911834 
L 250.204045 216.810461 
L 254.216629 217.720908 
L 258.229213 218.573466 
L 262.241798 217.962584 
L 266.254382 216.432656 
L 270.266966 216.624835 
L 274.279551 218.860324 
L 278.292135 218.474117 
L 282.304719 220.96564 
L 286.317303 219.809399 
L 290.329888 221.107802 
L 294.342472 221.138004 
L 298.355056 222.134063 
L 302.36764 219.273895 
L 306.380225 221.838185 
L 310.392809 221.527321 
L 314.405393 219.453225 
L 318.417978 223.283393 
L 322.430562 223.312922 
L 326.443146 224.141286 
L 330.45573 226.276275 
L 334.468315 225.49326 
L 338.480899 226.795468 
L 342.493483 227.097341 
L 346.506067 225.740189 
L 350.518652 227.53567 
L 354.531236 228.743028 
L 358.54382 229.17368 
L 362.556404 228.896343 
L 366.568989 226.860967 
L 370.581573 229.537358 
L 374.594157 227.688872 
L 378.606742 228.711635 
L 382.619326 231.403857 
L 386.63191 232.180213 
L 390.644494 229.728667 
L 394.657079 233.634849 
L 398.669663 229.338195 
L 402.682247 231.305058 
L 406.694831 235.861752 
L 410.707416 236.147653 
" style="fill:none;stroke:#008000;stroke-dasharray:1.5,2.475;stroke-dashoffset:0;stroke-width:1.5;"/>
    <defs>
     <path d="M 0 1.5 
C 0.397805 1.5 0.77937 1.341951 1.06066 1.06066 
C 1.341951 0.77937 1.5 0.397805 1.5 0 
C 1.5 -0.397805 1.341951 -0.77937 1.06066 -1.06066 
C 0.77937 -1.341951 0.397805 -1.5 0 -1.5 
C -0.397805 -1.5 -0.77937 -1.341951 -1.06066 -1.06066 
C -1.341951 -0.77937 -1.5 -0.397805 -1.5 0 
C -1.5 0.397805 -1.341951 0.77937 -1.06066 1.06066 
C -0.77937 1.341951 -0.397805 1.5 0 1.5 
z
" id="m1a5355b64d" style="stroke:#008000;"/>
    </defs>
    <g clip-path="url(#p8a8989337b)">
     <use style="fill:#008000;stroke:#008000;" x="61.612584" xlink:href="#m1a5355b64d" y="279.836079"/>
     <use style="fill:#008000;stroke:#008000;" x="65.625169" xlink:href="#m1a5355b64d" y="276.900445"/>
     <use style="fill:#008000;stroke:#008000;" x="69.637753" xlink:href="#m1a5355b64d" y="258.111111"/>
     <use style="fill:#008000;stroke:#008000;" x="73.650337" xlink:href="#m1a5355b64d" y="246.46358"/>
     <use style="fill:#008000;stroke:#008000;" x="77.662921" xlink:href="#m1a5355b64d" y="234.030063"/>
     <use style="fill:#008000;stroke:#008000;" x="81.675506" xlink:href="#m1a5355b64d" y="224.391942"/>
     <use style="fill:#008000;stroke:#008000;" x="85.68809" xlink:href="#m1a5355b64d" y="206.543436"/>
     <use style="fill:#008000;stroke:#008000;" x="89.700674" xlink:href="#m1a5355b64d" y="198.014064"/>
     <use style="fill:#008000;stroke:#008000;" x="93.713258" xlink:href="#m1a5355b64d" y="189.985517"/>
     <use style="fill:#008000;stroke:#008000;" x="97.725843" xlink:href="#m1a5355b64d" y="189.510447"/>
     <use style="fill:#008000;stroke:#008000;" x="101.738427" xlink:href="#m1a5355b64d" y="174.484905"/>
     <use style="fill:#008000;stroke:#008000;" x="105.751011" xlink:href="#m1a5355b64d" y="169.200525"/>
     <use style="fill:#008000;stroke:#008000;" x="109.763596" xlink:href="#m1a5355b64d" y="173.596725"/>
     <use style="fill:#008000;stroke:#008000;" x="113.77618" xlink:href="#m1a5355b64d" y="157.142366"/>
     <use style="fill:#008000;stroke:#008000;" x="117.788764" xlink:href="#m1a5355b64d" y="173.239725"/>
     <use style="fill:#008000;stroke:#008000;" x="121.801348" xlink:href="#m1a5355b64d" y="159.688615"/>
     <use style="fill:#008000;stroke:#008000;" x="125.813933" xlink:href="#m1a5355b64d" y="154.889392"/>
     <use style="fill:#008000;stroke:#008000;" x="129.826517" xlink:href="#m1a5355b64d" y="169.223712"/>
     <use style="fill:#008000;stroke:#008000;" x="133.839101" xlink:href="#m1a5355b64d" y="153.895422"/>
     <use style="fill:#008000;stroke:#008000;" x="137.851685" xlink:href="#m1a5355b64d" y="152.755888"/>
     <use style="fill:#008000;stroke:#008000;" x="141.86427" xlink:href="#m1a5355b64d" y="166.3795"/>
     <use style="fill:#008000;stroke:#008000;" x="145.876854" xlink:href="#m1a5355b64d" y="152.466454"/>
     <use style="fill:#008000;stroke:#008000;" x="149.889438" xlink:href="#m1a5355b64d" y="152.455527"/>
     <use style="fill:#008000;stroke:#008000;" x="153.902022" xlink:href="#m1a5355b64d" y="159.665288"/>
     <use style="fill:#008000;stroke:#008000;" x="157.914607" xlink:href="#m1a5355b64d" y="150.490823"/>
     <use style="fill:#008000;stroke:#008000;" x="161.927191" xlink:href="#m1a5355b64d" y="164.749924"/>
     <use style="fill:#008000;stroke:#008000;" x="165.939775" xlink:href="#m1a5355b64d" y="163.48864"/>
     <use style="fill:#008000;stroke:#008000;" x="169.95236" xlink:href="#m1a5355b64d" y="175.25672"/>
     <use style="fill:#008000;stroke:#008000;" x="173.964944" xlink:href="#m1a5355b64d" y="149.621809"/>
     <use style="fill:#008000;stroke:#008000;" x="177.977528" xlink:href="#m1a5355b64d" y="165.394166"/>
     <use style="fill:#008000;stroke:#008000;" x="181.990112" xlink:href="#m1a5355b64d" y="164.116068"/>
     <use style="fill:#008000;stroke:#008000;" x="186.002697" xlink:href="#m1a5355b64d" y="185.674524"/>
     <use style="fill:#008000;stroke:#008000;" x="190.015281" xlink:href="#m1a5355b64d" y="182.276448"/>
     <use style="fill:#008000;stroke:#008000;" x="194.027865" xlink:href="#m1a5355b64d" y="188.751562"/>
     <use style="fill:#008000;stroke:#008000;" x="198.040449" xlink:href="#m1a5355b64d" y="181.085266"/>
     <use style="fill:#008000;stroke:#008000;" x="202.053034" xlink:href="#m1a5355b64d" y="191.558695"/>
     <use style="fill:#008000;stroke:#008000;" x="206.065618" xlink:href="#m1a5355b64d" y="186.4654"/>
     <use style="fill:#008000;stroke:#008000;" x="210.078202" xlink:href="#m1a5355b64d" y="192.416466"/>
     <use style="fill:#008000;stroke:#008000;" x="214.090787" xlink:href="#m1a5355b64d" y="187.488654"/>
     <use style="fill:#008000;stroke:#008000;" x="218.103371" xlink:href="#m1a5355b64d" y="195.905575"/>
     <use style="fill:#008000;stroke:#008000;" x="222.115955" xlink:href="#m1a5355b64d" y="188.039487"/>
     <use style="fill:#008000;stroke:#008000;" x="226.128539" xlink:href="#m1a5355b64d" y="195.9471"/>
     <use style="fill:#008000;stroke:#008000;" x="230.141124" xlink:href="#m1a5355b64d" y="189.210843"/>
     <use style="fill:#008000;stroke:#008000;" x="234.153708" xlink:href="#m1a5355b64d" y="200.483749"/>
     <use style="fill:#008000;stroke:#008000;" x="238.166292" xlink:href="#m1a5355b64d" y="212.309017"/>
     <use style="fill:#008000;stroke:#008000;" x="242.178876" xlink:href="#m1a5355b64d" y="217.312748"/>
     <use style="fill:#008000;stroke:#008000;" x="246.191461" xlink:href="#m1a5355b64d" y="217.911834"/>
     <use style="fill:#008000;stroke:#008000;" x="250.204045" xlink:href="#m1a5355b64d" y="216.810461"/>
     <use style="fill:#008000;stroke:#008000;" x="254.216629" xlink:href="#m1a5355b64d" y="217.720908"/>
     <use style="fill:#008000;stroke:#008000;" x="258.229213" xlink:href="#m1a5355b64d" y="218.573466"/>
     <use style="fill:#008000;stroke:#008000;" x="262.241798" xlink:href="#m1a5355b64d" y="217.962584"/>
     <use style="fill:#008000;stroke:#008000;" x="266.254382" xlink:href="#m1a5355b64d" y="216.432656"/>
     <use style="fill:#008000;stroke:#008000;" x="270.266966" xlink:href="#m1a5355b64d" y="216.624835"/>
     <use style="fill:#008000;stroke:#008000;" x="274.279551" xlink:href="#m1a5355b64d" y="218.860324"/>
     <use style="fill:#008000;stroke:#008000;" x="278.292135" xlink:href="#m1a5355b64d" y="218.474117"/>
     <use style="fill:#008000;stroke:#008000;" x="282.304719" xlink:href="#m1a5355b64d" y="220.96564"/>
     <use style="fill:#008000;stroke:#008000;" x="286.317303" xlink:href="#m1a5355b64d" y="219.809399"/>
     <use style="fill:#008000;stroke:#008000;" x="290.329888" xlink:href="#m1a5355b64d" y="221.107802"/>
     <use style="fill:#008000;stroke:#008000;" x="294.342472" xlink:href="#m1a5355b64d" y="221.138004"/>
     <use style="fill:#008000;stroke:#008000;" x="298.355056" xlink:href="#m1a5355b64d" y="222.134063"/>
     <use style="fill:#008000;stroke:#008000;" x="302.36764" xlink:href="#m1a5355b64d" y="219.273895"/>
     <use style="fill:#008000;stroke:#008000;" x="306.380225" xlink:href="#m1a5355b64d" y="221.838185"/>
     <use style="fill:#008000;stroke:#008000;" x="310.392809" xlink:href="#m1a5355b64d" y="221.527321"/>
     <use style="fill:#008000;stroke:#008000;" x="314.405393" xlink:href="#m1a5355b64d" y="219.453225"/>
     <use style="fill:#008000;stroke:#008000;" x="318.417978" xlink:href="#m1a5355b64d" y="223.283393"/>
     <use style="fill:#008000;stroke:#008000;" x="322.430562" xlink:href="#m1a5355b64d" y="223.312922"/>
     <use style="fill:#008000;stroke:#008000;" x="326.443146" xlink:href="#m1a5355b64d" y="224.141286"/>
     <use style="fill:#008000;stroke:#008000;" x="330.45573" xlink:href="#m1a5355b64d" y="226.276275"/>
     <use style="fill:#008000;stroke:#008000;" x="334.468315" xlink:href="#m1a5355b64d" y="225.49326"/>
     <use style="fill:#008000;stroke:#008000;" x="338.480899" xlink:href="#m1a5355b64d" y="226.795468"/>
     <use style="fill:#008000;stroke:#008000;" x="342.493483" xlink:href="#m1a5355b64d" y="227.097341"/>
     <use style="fill:#008000;stroke:#008000;" x="346.506067" xlink:href="#m1a5355b64d" y="225.740189"/>
     <use style="fill:#008000;stroke:#008000;" x="350.518652" xlink:href="#m1a5355b64d" y="227.53567"/>
     <use style="fill:#008000;stroke:#008000;" x="354.531236" xlink:href="#m1a5355b64d" y="228.743028"/>
     <use style="fill:#008000;stroke:#008000;" x="358.54382" xlink:href="#m1a5355b64d" y="229.17368"/>
     <use style="fill:#008000;stroke:#008000;" x="362.556404" xlink:href="#m1a5355b64d" y="228.896343"/>
     <use style="fill:#008000;stroke:#008000;" x="366.568989" xlink:href="#m1a5355b64d" y="226.860967"/>
     <use style="fill:#008000;stroke:#008000;" x="370.581573" xlink:href="#m1a5355b64d" y="229.537358"/>
     <use style="fill:#008000;stroke:#008000;" x="374.594157" xlink:href="#m1a5355b64d" y="227.688872"/>
     <use style="fill:#008000;stroke:#008000;" x="378.606742" xlink:href="#m1a5355b64d" y="228.711635"/>
     <use style="fill:#008000;stroke:#008000;" x="382.619326" xlink:href="#m1a5355b64d" y="231.403857"/>
     <use style="fill:#008000;stroke:#008000;" x="386.63191" xlink:href="#m1a5355b64d" y="232.180213"/>
     <use style="fill:#008000;stroke:#008000;" x="390.644494" xlink:href="#m1a5355b64d" y="229.728667"/>
     <use style="fill:#008000;stroke:#008000;" x="394.657079" xlink:href="#m1a5355b64d" y="233.634849"/>
     <use style="fill:#008000;stroke:#008000;" x="398.669663" xlink:href="#m1a5355b64d" y="229.338195"/>
     <use style="fill:#008000;stroke:#008000;" x="402.682247" xlink:href="#m1a5355b64d" y="231.305058"/>
     <use style="fill:#008000;stroke:#008000;" x="406.694831" xlink:href="#m1a5355b64d" y="235.861752"/>
     <use style="fill:#008000;stroke:#008000;" x="410.707416" xlink:href="#m1a5355b64d" y="236.147653"/>
    </g>
   </g>
   <g id="patch_3">
    <path d="M 57.6 307.584 
L 57.6 41.472 
" style="fill:none;stroke:#000000;stroke-linecap:square;stroke-linejoin:miter;stroke-width:0.8;"/>
   </g>
   <g id="patch_4">
    <path d="M 414.72 307.584 
L 414.72 41.472 
" style="fill:none;stroke:#000000;stroke-linecap:square;stroke-linejoin:miter;stroke-width:0.8;"/>
   </g>
   <g id="patch_5">
    <path d="M 57.6 307.584 
L 414.72 307.584 
" style="fill:none;stroke:#000000;stroke-linecap:square;stroke-linejoin:miter;stroke-width:0.8;"/>
   </g>
   <g id="patch_6">
    <path d="M 57.6 41.472 
L 414.72 41.472 
" style="fill:none;stroke:#000000;stroke-linecap:square;stroke-linejoin:miter;stroke-width:0.8;"/>
   </g>
   <g id="text_32">
    <!-- ScanTrans 3PV on pre_transpose3 -->
    <defs>
     <path d="M 53.515625 70.515625 
L 53.515625 60.890625 
Q 47.90625 63.578125 42.921875 64.890625 
Q 37.9375 66.21875 33.296875 66.21875 
Q 25.25 66.21875 20.875 63.09375 
Q 16.5 59.96875 16.5 54.203125 
Q 16.5 49.359375 19.40625 46.890625 
Q 22.3125 44.4375 30.421875 42.921875 
L 36.375 41.703125 
Q 47.40625 39.59375 52.65625 34.296875 
Q 57.90625 29 57.90625 20.125 
Q 57.90625 9.515625 50.796875 4.046875 
Q 43.703125 -1.421875 29.984375 -1.421875 
Q 24.8125 -1.421875 18.96875 -0.25 
Q 13.140625 0.921875 6.890625 3.21875 
L 6.890625 13.375 
Q 12.890625 10.015625 18.65625 8.296875 
Q 24.421875 6.59375 29.984375 6.59375 
Q 38.421875 6.59375 43.015625 9.90625 
Q 47.609375 13.234375 47.609375 19.390625 
Q 47.609375 24.75 44.3125 27.78125 
Q 41.015625 30.8125 33.5 32.328125 
L 27.484375 33.5 
Q 16.453125 35.6875 11.515625 40.375 
Q 6.59375 45.0625 6.59375 53.421875 
Q 6.59375 63.09375 13.40625 68.65625 
Q 20.21875 74.21875 32.171875 74.21875 
Q 37.3125 74.21875 42.625 73.28125 
Q 47.953125 72.359375 53.515625 70.515625 
z
" id="DejaVuSans-83"/>
     <path d="M 48.78125 52.59375 
L 48.78125 44.1875 
Q 44.96875 46.296875 41.140625 47.34375 
Q 37.3125 48.390625 33.40625 48.390625 
Q 24.65625 48.390625 19.8125 42.84375 
Q 14.984375 37.3125 14.984375 27.296875 
Q 14.984375 17.28125 19.8125 11.734375 
Q 24.65625 6.203125 33.40625 6.203125 
Q 37.3125 6.203125 41.140625 7.25 
Q 44.96875 8.296875 48.78125 10.40625 
L 48.78125 2.09375 
Q 45.015625 0.34375 40.984375 -0.53125 
Q 36.96875 -1.421875 32.421875 -1.421875 
Q 20.0625 -1.421875 12.78125 6.34375 
Q 5.515625 14.109375 5.515625 27.296875 
Q 5.515625 40.671875 12.859375 48.328125 
Q 20.21875 56 33.015625 56 
Q 37.15625 56 41.109375 55.140625 
Q 45.0625 54.296875 48.78125 52.59375 
z
" id="DejaVuSans-99"/>
     <path d="M 54.890625 33.015625 
L 54.890625 0 
L 45.90625 0 
L 45.90625 32.71875 
Q 45.90625 40.484375 42.875 44.328125 
Q 39.84375 48.1875 33.796875 48.1875 
Q 26.515625 48.1875 22.3125 43.546875 
Q 18.109375 38.921875 18.109375 30.90625 
L 18.109375 0 
L 9.078125 0 
L 9.078125 54.6875 
L 18.109375 54.6875 
L 18.109375 46.1875 
Q 21.34375 51.125 25.703125 53.5625 
Q 30.078125 56 35.796875 56 
Q 45.21875 56 50.046875 50.171875 
Q 54.890625 44.34375 54.890625 33.015625 
z
" id="DejaVuSans-110"/>
     <path d="M -0.296875 72.90625 
L 61.375 72.90625 
L 61.375 64.59375 
L 35.5 64.59375 
L 35.5 0 
L 25.59375 0 
L 25.59375 64.59375 
L -0.296875 64.59375 
z
" id="DejaVuSans-84"/>
     <path d="M 19.671875 64.796875 
L 19.671875 37.40625 
L 32.078125 37.40625 
Q 38.96875 37.40625 42.71875 40.96875 
Q 46.484375 44.53125 46.484375 51.125 
Q 46.484375 57.671875 42.71875 61.234375 
Q 38.96875 64.796875 32.078125 64.796875 
z
M 9.8125 72.90625 
L 32.078125 72.90625 
Q 44.34375 72.90625 50.609375 67.359375 
Q 56.890625 61.8125 56.890625 51.125 
Q 56.890625 40.328125 50.609375 34.8125 
Q 44.34375 29.296875 32.078125 29.296875 
L 19.671875 29.296875 
L 19.671875 0 
L 9.8125 0 
z
" id="DejaVuSans-80"/>
     <path d="M 28.609375 0 
L 0.78125 72.90625 
L 11.078125 72.90625 
L 34.1875 11.53125 
L 57.328125 72.90625 
L 67.578125 72.90625 
L 39.796875 0 
z
" id="DejaVuSans-86"/>
     <path d="M 30.609375 48.390625 
Q 23.390625 48.390625 19.1875 42.75 
Q 14.984375 37.109375 14.984375 27.296875 
Q 14.984375 17.484375 19.15625 11.84375 
Q 23.34375 6.203125 30.609375 6.203125 
Q 37.796875 6.203125 41.984375 11.859375 
Q 46.1875 17.53125 46.1875 27.296875 
Q 46.1875 37.015625 41.984375 42.703125 
Q 37.796875 48.390625 30.609375 48.390625 
z
M 30.609375 56 
Q 42.328125 56 49.015625 48.375 
Q 55.71875 40.765625 55.71875 27.296875 
Q 55.71875 13.875 49.015625 6.21875 
Q 42.328125 -1.421875 30.609375 -1.421875 
Q 18.84375 -1.421875 12.171875 6.21875 
Q 5.515625 13.875 5.515625 27.296875 
Q 5.515625 40.765625 12.171875 48.375 
Q 18.84375 56 30.609375 56 
z
" id="DejaVuSans-111"/>
     <path d="M 50.984375 -16.609375 
L 50.984375 -23.578125 
L -0.984375 -23.578125 
L -0.984375 -16.609375 
z
" id="DejaVuSans-95"/>
    </defs>
    <g transform="translate(134.615625 35.472)scale(0.12 -0.12)">
     <use xlink:href="#DejaVuSans-83"/>
     <use x="63.476562" xlink:href="#DejaVuSans-99"/>
     <use x="118.457031" xlink:href="#DejaVuSans-97"/>
     <use x="179.736328" xlink:href="#DejaVuSans-110"/>
     <use x="243.115234" xlink:href="#DejaVuSans-84"/>
     <use x="289.449219" xlink:href="#DejaVuSans-114"/>
     <use x="330.5625" xlink:href="#DejaVuSans-97"/>
     <use x="391.841797" xlink:href="#DejaVuSans-110"/>
     <use x="455.220703" xlink:href="#DejaVuSans-115"/>
     <use x="507.320312" xlink:href="#DejaVuSans-32"/>
     <use x="539.107422" xlink:href="#DejaVuSans-51"/>
     <use x="602.730469" xlink:href="#DejaVuSans-80"/>
     <use x="663.033203" xlink:href="#DejaVuSans-86"/>
     <use x="731.441406" xlink:href="#DejaVuSans-32"/>
     <use x="763.228516" xlink:href="#DejaVuSans-111"/>
     <use x="824.410156" xlink:href="#DejaVuSans-110"/>
     <use x="887.789062" xlink:href="#DejaVuSans-32"/>
     <use x="919.576172" xlink:href="#DejaVuSans-112"/>
     <use x="983.052734" xlink:href="#DejaVuSans-114"/>
     <use x="1021.916016" xlink:href="#DejaVuSans-101"/>
     <use x="1083.439453" xlink:href="#DejaVuSans-95"/>
     <use x="1133.439453" xlink:href="#DejaVuSans-116"/>
     <use x="1172.648438" xlink:href="#DejaVuSans-114"/>
     <use x="1213.761719" xlink:href="#DejaVuSans-97"/>
     <use x="1275.041016" xlink:href="#DejaVuSans-110"/>
     <use x="1338.419922" xlink:href="#DejaVuSans-115"/>
     <use x="1390.519531" xlink:href="#DejaVuSans-112"/>
     <use x="1453.996094" xlink:href="#DejaVuSans-111"/>
     <use x="1515.177734" xlink:href="#DejaVuSans-115"/>
     <use x="1567.277344" xlink:href="#DejaVuSans-101"/>
     <use x="1628.800781" xlink:href="#DejaVuSans-51"/>
    </g>
   </g>
   <g id="legend_1">
    <g id="patch_7">
     <path d="M 313.152813 93.7845 
L 407.72 93.7845 
Q 409.72 93.7845 409.72 91.7845 
L 409.72 48.472 
Q 409.72 46.472 407.72 46.472 
L 313.152813 46.472 
Q 311.152813 46.472 311.152813 48.472 
L 311.152813 91.7845 
Q 311.152813 93.7845 313.152813 93.7845 
z
" style="fill:#ffffff;opacity:0.8;stroke:#cccccc;stroke-linejoin:miter;"/>
    </g>
    <g id="line2d_62">
     <path d="M 315.152813 54.570438 
L 335.152813 54.570438 
" style="fill:none;stroke:#0000ff;stroke-dasharray:1.5,2.475;stroke-dashoffset:0;stroke-width:1.5;"/>
    </g>
    <g id="line2d_63">
     <g>
      <use style="fill:#0000ff;stroke:#0000ff;" x="325.152813" xlink:href="#me196293cb0" y="54.570438"/>
     </g>
    </g>
    <g id="text_33">
     <!-- transpose -->
     <g transform="translate(343.152813 58.070438)scale(0.1 -0.1)">
      <use xlink:href="#DejaVuSans-116"/>
      <use x="39.208984" xlink:href="#DejaVuSans-114"/>
      <use x="80.322266" xlink:href="#DejaVuSans-97"/>
      <use x="141.601562" xlink:href="#DejaVuSans-110"/>
      <use x="204.980469" xlink:href="#DejaVuSans-115"/>
      <use x="257.080078" xlink:href="#DejaVuSans-112"/>
      <use x="320.556641" xlink:href="#DejaVuSans-111"/>
      <use x="381.738281" xlink:href="#DejaVuSans-115"/>
      <use x="433.837891" xlink:href="#DejaVuSans-101"/>
     </g>
    </g>
    <g id="line2d_64">
     <path d="M 315.152813 69.248563 
L 335.152813 69.248563 
" style="fill:none;stroke:#ff0000;stroke-dasharray:1.5,2.475;stroke-dashoffset:0;stroke-width:1.5;"/>
    </g>
    <g id="line2d_65">
     <g>
      <use style="fill:#ff0000;stroke:#ff0000;" x="325.152813" xlink:href="#m84433291a3" y="69.248563"/>
     </g>
    </g>
    <g id="text_34">
     <!-- transpose_tr -->
     <g transform="translate(343.152813 72.748563)scale(0.1 -0.1)">
      <use xlink:href="#DejaVuSans-116"/>
      <use x="39.208984" xlink:href="#DejaVuSans-114"/>
      <use x="80.322266" xlink:href="#DejaVuSans-97"/>
      <use x="141.601562" xlink:href="#DejaVuSans-110"/>
      <use x="204.980469" xlink:href="#DejaVuSans-115"/>
      <use x="257.080078" xlink:href="#DejaVuSans-112"/>
      <use x="320.556641" xlink:href="#DejaVuSans-111"/>
      <use x="381.738281" xlink:href="#DejaVuSans-115"/>
      <use x="433.837891" xlink:href="#DejaVuSans-101"/>
      <use x="495.361328" xlink:href="#DejaVuSans-95"/>
      <use x="545.361328" xlink:href="#DejaVuSans-116"/>
      <use x="584.570312" xlink:href="#DejaVuSans-114"/>
     </g>
    </g>
    <g id="line2d_66">
     <path d="M 315.152813 84.204813 
L 335.152813 84.204813 
" style="fill:none;stroke:#008000;stroke-dasharray:1.5,2.475;stroke-dashoffset:0;stroke-width:1.5;"/>
    </g>
    <g id="line2d_67">
     <g>
      <use style="fill:#008000;stroke:#008000;" x="325.152813" xlink:href="#m1a5355b64d" y="84.204813"/>
     </g>
    </g>
    <g id="text_35">
     <!-- mean -->
     <defs>
      <path d="M 52 44.1875 
Q 55.375 50.25 60.0625 53.125 
Q 64.75 56 71.09375 56 
Q 79.640625 56 84.28125 50.015625 
Q 88.921875 44.046875 88.921875 33.015625 
L 88.921875 0 
L 79.890625 0 
L 79.890625 32.71875 
Q 79.890625 40.578125 77.09375 44.375 
Q 74.3125 48.1875 68.609375 48.1875 
Q 61.625 48.1875 57.5625 43.546875 
Q 53.515625 38.921875 53.515625 30.90625 
L 53.515625 0 
L 44.484375 0 
L 44.484375 32.71875 
Q 44.484375 40.625 41.703125 44.40625 
Q 38.921875 48.1875 33.109375 48.1875 
Q 26.21875 48.1875 22.15625 43.53125 
Q 18.109375 38.875 18.109375 30.90625 
L 18.109375 0 
L 9.078125 0 
L 9.078125 54.6875 
L 18.109375 54.6875 
L 18.109375 46.1875 
Q 21.1875 51.21875 25.484375 53.609375 
Q 29.78125 56 35.6875 56 
Q 41.65625 56 45.828125 52.96875 
Q 50 49.953125 52 44.1875 
z
" id="DejaVuSans-109"/>
     </defs>
     <g transform="translate(343.152813 87.704813)scale(0.1 -0.1)">
      <use xlink:href="#DejaVuSans-109"/>
      <use x="97.412109" xlink:href="#DejaVuSans-101"/>
      <use x="158.935547" xlink:href="#DejaVuSans-97"/>
      <use x="220.214844" xlink:href="#DejaVuSans-110"/>
     </g>
    </g>
   </g>
  </g>
 </g>
 <defs>
  <clipPath id="p8a8989337b">
   <rect height="266.112" width="357.12" x="57.6" y="41.472"/>
  </clipPath>
 </defs>
</svg>
