<?xml version="1.0" encoding="utf-8" standalone="no"?>
<!DOCTYPE svg PUBLIC "-//W3C//DTD SVG 1.1//EN"
  "http://www.w3.org/Graphics/SVG/1.1/DTD/svg11.dtd">
<!-- Created with matplotlib (https://matplotlib.org/) -->
<svg height="345.6pt" version="1.1" viewBox="0 0 460.8 345.6" width="460.8pt" xmlns="http://www.w3.org/2000/svg" xmlns:xlink="http://www.w3.org/1999/xlink">
 <defs>
  <style type="text/css">
*{stroke-linecap:butt;stroke-linejoin:round;}
  </style>
 </defs>
 <g id="figure_1">
  <g id="patch_1">
   <path d="M 0 345.6 
L 460.8 345.6 
L 460.8 0 
L 0 0 
z
" style="fill:#ffffff;"/>
  </g>
  <g id="axes_1">
   <g id="patch_2">
    <path d="M 57.6 307.584 
L 414.72 307.584 
L 414.72 41.472 
L 57.6 41.472 
z
" style="fill:#ffffff;"/>
   </g>
   <g id="matplotlib.axis_1">
    <g id="xtick_1">
     <g id="line2d_1">
      <path clip-path="url(#p7cf16eec7a)" d="M 61.612584 307.584 
L 61.612584 41.472 
" style="fill:none;stroke:#b0b0b0;stroke-dasharray:5.12,1.28,0.8,1.28;stroke-dashoffset:0;stroke-width:0.8;"/>
     </g>
     <g id="line2d_2">
      <defs>
       <path d="M 0 0 
L 0 3.5 
" id="ma85e4ecfde" style="stroke:#000000;stroke-width:0.8;"/>
      </defs>
      <g>
       <use style="stroke:#000000;stroke-width:0.8;" x="61.612584" xlink:href="#ma85e4ecfde" y="307.584"/>
      </g>
     </g>
     <g id="text_1">
      <!-- 1 -->
      <defs>
       <path d="M 12.40625 8.296875 
L 28.515625 8.296875 
L 28.515625 63.921875 
L 10.984375 60.40625 
L 10.984375 69.390625 
L 28.421875 72.90625 
L 38.28125 72.90625 
L 38.28125 8.296875 
L 54.390625 8.296875 
L 54.390625 0 
L 12.40625 0 
z
" id="DejaVuSans-49"/>
      </defs>
      <g transform="translate(58.431334 322.182437)scale(0.1 -0.1)">
       <use xlink:href="#DejaVuSans-49"/>
      </g>
     </g>
    </g>
    <g id="xtick_2">
     <g id="line2d_3">
      <path clip-path="url(#p7cf16eec7a)" d="M 73.650337 307.584 
L 73.650337 41.472 
" style="fill:none;stroke:#b0b0b0;stroke-dasharray:5.12,1.28,0.8,1.28;stroke-dashoffset:0;stroke-width:0.8;"/>
     </g>
     <g id="line2d_4">
      <g>
       <use style="stroke:#000000;stroke-width:0.8;" x="73.650337" xlink:href="#ma85e4ecfde" y="307.584"/>
      </g>
     </g>
     <g id="text_2">
      <!-- 4 -->
      <defs>
       <path d="M 37.796875 64.3125 
L 12.890625 25.390625 
L 37.796875 25.390625 
z
M 35.203125 72.90625 
L 47.609375 72.90625 
L 47.609375 25.390625 
L 58.015625 25.390625 
L 58.015625 17.1875 
L 47.609375 17.1875 
L 47.609375 0 
L 37.796875 0 
L 37.796875 17.1875 
L 4.890625 17.1875 
L 4.890625 26.703125 
z
" id="DejaVuSans-52"/>
      </defs>
      <g transform="translate(70.469087 322.182437)scale(0.1 -0.1)">
       <use xlink:href="#DejaVuSans-52"/>
      </g>
     </g>
    </g>
    <g id="xtick_3">
     <g id="line2d_5">
      <path clip-path="url(#p7cf16eec7a)" d="M 89.700674 307.584 
L 89.700674 41.472 
" style="fill:none;stroke:#b0b0b0;stroke-dasharray:5.12,1.28,0.8,1.28;stroke-dashoffset:0;stroke-width:0.8;"/>
     </g>
     <g id="line2d_6">
      <g>
       <use style="stroke:#000000;stroke-width:0.8;" x="89.700674" xlink:href="#ma85e4ecfde" y="307.584"/>
      </g>
     </g>
     <g id="text_3">
      <!-- 8 -->
      <defs>
       <path d="M 31.78125 34.625 
Q 24.75 34.625 20.71875 30.859375 
Q 16.703125 27.09375 16.703125 20.515625 
Q 16.703125 13.921875 20.71875 10.15625 
Q 24.75 6.390625 31.78125 6.390625 
Q 38.8125 6.390625 42.859375 10.171875 
Q 46.921875 13.96875 46.921875 20.515625 
Q 46.921875 27.09375 42.890625 30.859375 
Q 38.875 34.625 31.78125 34.625 
z
M 21.921875 38.8125 
Q 15.578125 40.375 12.03125 44.71875 
Q 8.5 49.078125 8.5 55.328125 
Q 8.5 64.0625 14.71875 69.140625 
Q 20.953125 74.21875 31.78125 74.21875 
Q 42.671875 74.21875 48.875 69.140625 
Q 55.078125 64.0625 55.078125 55.328125 
Q 55.078125 49.078125 51.53125 44.71875 
Q 48 40.375 41.703125 38.8125 
Q 48.828125 37.15625 52.796875 32.3125 
Q 56.78125 27.484375 56.78125 20.515625 
Q 56.78125 9.90625 50.3125 4.234375 
Q 43.84375 -1.421875 31.78125 -1.421875 
Q 19.734375 -1.421875 13.25 4.234375 
Q 6.78125 9.90625 6.78125 20.515625 
Q 6.78125 27.484375 10.78125 32.3125 
Q 14.796875 37.15625 21.921875 38.8125 
z
M 18.3125 54.390625 
Q 18.3125 48.734375 21.84375 45.5625 
Q 25.390625 42.390625 31.78125 42.390625 
Q 38.140625 42.390625 41.71875 45.5625 
Q 45.3125 48.734375 45.3125 54.390625 
Q 45.3125 60.0625 41.71875 63.234375 
Q 38.140625 66.40625 31.78125 66.40625 
Q 25.390625 66.40625 21.84375 63.234375 
Q 18.3125 60.0625 18.3125 54.390625 
z
" id="DejaVuSans-56"/>
      </defs>
      <g transform="translate(86.519424 322.182437)scale(0.1 -0.1)">
       <use xlink:href="#DejaVuSans-56"/>
      </g>
     </g>
    </g>
    <g id="xtick_4">
     <g id="line2d_7">
      <path clip-path="url(#p7cf16eec7a)" d="M 105.751011 307.584 
L 105.751011 41.472 
" style="fill:none;stroke:#b0b0b0;stroke-dasharray:5.12,1.28,0.8,1.28;stroke-dashoffset:0;stroke-width:0.8;"/>
     </g>
     <g id="line2d_8">
      <g>
       <use style="stroke:#000000;stroke-width:0.8;" x="105.751011" xlink:href="#ma85e4ecfde" y="307.584"/>
      </g>
     </g>
     <g id="text_4">
      <!-- 12 -->
      <defs>
       <path d="M 19.1875 8.296875 
L 53.609375 8.296875 
L 53.609375 0 
L 7.328125 0 
L 7.328125 8.296875 
Q 12.9375 14.109375 22.625 23.890625 
Q 32.328125 33.6875 34.8125 36.53125 
Q 39.546875 41.84375 41.421875 45.53125 
Q 43.3125 49.21875 43.3125 52.78125 
Q 43.3125 58.59375 39.234375 62.25 
Q 35.15625 65.921875 28.609375 65.921875 
Q 23.96875 65.921875 18.8125 64.3125 
Q 13.671875 62.703125 7.8125 59.421875 
L 7.8125 69.390625 
Q 13.765625 71.78125 18.9375 73 
Q 24.125 74.21875 28.421875 74.21875 
Q 39.75 74.21875 46.484375 68.546875 
Q 53.21875 62.890625 53.21875 53.421875 
Q 53.21875 48.921875 51.53125 44.890625 
Q 49.859375 40.875 45.40625 35.40625 
Q 44.1875 33.984375 37.640625 27.21875 
Q 31.109375 20.453125 19.1875 8.296875 
z
" id="DejaVuSans-50"/>
      </defs>
      <g transform="translate(99.388511 322.182437)scale(0.1 -0.1)">
       <use xlink:href="#DejaVuSans-49"/>
       <use x="63.623047" xlink:href="#DejaVuSans-50"/>
      </g>
     </g>
    </g>
    <g id="xtick_5">
     <g id="line2d_9">
      <path clip-path="url(#p7cf16eec7a)" d="M 121.801348 307.584 
L 121.801348 41.472 
" style="fill:none;stroke:#b0b0b0;stroke-dasharray:5.12,1.28,0.8,1.28;stroke-dashoffset:0;stroke-width:0.8;"/>
     </g>
     <g id="line2d_10">
      <g>
       <use style="stroke:#000000;stroke-width:0.8;" x="121.801348" xlink:href="#ma85e4ecfde" y="307.584"/>
      </g>
     </g>
     <g id="text_5">
      <!-- 16 -->
      <defs>
       <path d="M 33.015625 40.375 
Q 26.375 40.375 22.484375 35.828125 
Q 18.609375 31.296875 18.609375 23.390625 
Q 18.609375 15.53125 22.484375 10.953125 
Q 26.375 6.390625 33.015625 6.390625 
Q 39.65625 6.390625 43.53125 10.953125 
Q 47.40625 15.53125 47.40625 23.390625 
Q 47.40625 31.296875 43.53125 35.828125 
Q 39.65625 40.375 33.015625 40.375 
z
M 52.59375 71.296875 
L 52.59375 62.3125 
Q 48.875 64.0625 45.09375 64.984375 
Q 41.3125 65.921875 37.59375 65.921875 
Q 27.828125 65.921875 22.671875 59.328125 
Q 17.53125 52.734375 16.796875 39.40625 
Q 19.671875 43.65625 24.015625 45.921875 
Q 28.375 48.1875 33.59375 48.1875 
Q 44.578125 48.1875 50.953125 41.515625 
Q 57.328125 34.859375 57.328125 23.390625 
Q 57.328125 12.15625 50.6875 5.359375 
Q 44.046875 -1.421875 33.015625 -1.421875 
Q 20.359375 -1.421875 13.671875 8.265625 
Q 6.984375 17.96875 6.984375 36.375 
Q 6.984375 53.65625 15.1875 63.9375 
Q 23.390625 74.21875 37.203125 74.21875 
Q 40.921875 74.21875 44.703125 73.484375 
Q 48.484375 72.75 52.59375 71.296875 
z
" id="DejaVuSans-54"/>
      </defs>
      <g transform="translate(115.438848 322.182437)scale(0.1 -0.1)">
       <use xlink:href="#DejaVuSans-49"/>
       <use x="63.623047" xlink:href="#DejaVuSans-54"/>
      </g>
     </g>
    </g>
    <g id="xtick_6">
     <g id="line2d_11">
      <path clip-path="url(#p7cf16eec7a)" d="M 137.851685 307.584 
L 137.851685 41.472 
" style="fill:none;stroke:#b0b0b0;stroke-dasharray:5.12,1.28,0.8,1.28;stroke-dashoffset:0;stroke-width:0.8;"/>
     </g>
     <g id="line2d_12">
      <g>
       <use style="stroke:#000000;stroke-width:0.8;" x="137.851685" xlink:href="#ma85e4ecfde" y="307.584"/>
      </g>
     </g>
     <g id="text_6">
      <!-- 20 -->
      <defs>
       <path d="M 31.78125 66.40625 
Q 24.171875 66.40625 20.328125 58.90625 
Q 16.5 51.421875 16.5 36.375 
Q 16.5 21.390625 20.328125 13.890625 
Q 24.171875 6.390625 31.78125 6.390625 
Q 39.453125 6.390625 43.28125 13.890625 
Q 47.125 21.390625 47.125 36.375 
Q 47.125 51.421875 43.28125 58.90625 
Q 39.453125 66.40625 31.78125 66.40625 
z
M 31.78125 74.21875 
Q 44.046875 74.21875 50.515625 64.515625 
Q 56.984375 54.828125 56.984375 36.375 
Q 56.984375 17.96875 50.515625 8.265625 
Q 44.046875 -1.421875 31.78125 -1.421875 
Q 19.53125 -1.421875 13.0625 8.265625 
Q 6.59375 17.96875 6.59375 36.375 
Q 6.59375 54.828125 13.0625 64.515625 
Q 19.53125 74.21875 31.78125 74.21875 
z
" id="DejaVuSans-48"/>
      </defs>
      <g transform="translate(131.489185 322.182437)scale(0.1 -0.1)">
       <use xlink:href="#DejaVuSans-50"/>
       <use x="63.623047" xlink:href="#DejaVuSans-48"/>
      </g>
     </g>
    </g>
    <g id="xtick_7">
     <g id="line2d_13">
      <path clip-path="url(#p7cf16eec7a)" d="M 153.902022 307.584 
L 153.902022 41.472 
" style="fill:none;stroke:#b0b0b0;stroke-dasharray:5.12,1.28,0.8,1.28;stroke-dashoffset:0;stroke-width:0.8;"/>
     </g>
     <g id="line2d_14">
      <g>
       <use style="stroke:#000000;stroke-width:0.8;" x="153.902022" xlink:href="#ma85e4ecfde" y="307.584"/>
      </g>
     </g>
     <g id="text_7">
      <!-- 24 -->
      <g transform="translate(147.539522 322.182437)scale(0.1 -0.1)">
       <use xlink:href="#DejaVuSans-50"/>
       <use x="63.623047" xlink:href="#DejaVuSans-52"/>
      </g>
     </g>
    </g>
    <g id="xtick_8">
     <g id="line2d_15">
      <path clip-path="url(#p7cf16eec7a)" d="M 169.95236 307.584 
L 169.95236 41.472 
" style="fill:none;stroke:#b0b0b0;stroke-dasharray:5.12,1.28,0.8,1.28;stroke-dashoffset:0;stroke-width:0.8;"/>
     </g>
     <g id="line2d_16">
      <g>
       <use style="stroke:#000000;stroke-width:0.8;" x="169.95236" xlink:href="#ma85e4ecfde" y="307.584"/>
      </g>
     </g>
     <g id="text_8">
      <!-- 28 -->
      <g transform="translate(163.58986 322.182437)scale(0.1 -0.1)">
       <use xlink:href="#DejaVuSans-50"/>
       <use x="63.623047" xlink:href="#DejaVuSans-56"/>
      </g>
     </g>
    </g>
    <g id="xtick_9">
     <g id="line2d_17">
      <path clip-path="url(#p7cf16eec7a)" d="M 186.002697 307.584 
L 186.002697 41.472 
" style="fill:none;stroke:#b0b0b0;stroke-dasharray:5.12,1.28,0.8,1.28;stroke-dashoffset:0;stroke-width:0.8;"/>
     </g>
     <g id="line2d_18">
      <g>
       <use style="stroke:#000000;stroke-width:0.8;" x="186.002697" xlink:href="#ma85e4ecfde" y="307.584"/>
      </g>
     </g>
     <g id="text_9">
      <!-- 32 -->
      <defs>
       <path d="M 40.578125 39.3125 
Q 47.65625 37.796875 51.625 33 
Q 55.609375 28.21875 55.609375 21.1875 
Q 55.609375 10.40625 48.1875 4.484375 
Q 40.765625 -1.421875 27.09375 -1.421875 
Q 22.515625 -1.421875 17.65625 -0.515625 
Q 12.796875 0.390625 7.625 2.203125 
L 7.625 11.71875 
Q 11.71875 9.328125 16.59375 8.109375 
Q 21.484375 6.890625 26.8125 6.890625 
Q 36.078125 6.890625 40.9375 10.546875 
Q 45.796875 14.203125 45.796875 21.1875 
Q 45.796875 27.640625 41.28125 31.265625 
Q 36.765625 34.90625 28.71875 34.90625 
L 20.21875 34.90625 
L 20.21875 43.015625 
L 29.109375 43.015625 
Q 36.375 43.015625 40.234375 45.921875 
Q 44.09375 48.828125 44.09375 54.296875 
Q 44.09375 59.90625 40.109375 62.90625 
Q 36.140625 65.921875 28.71875 65.921875 
Q 24.65625 65.921875 20.015625 65.03125 
Q 15.375 64.15625 9.8125 62.3125 
L 9.8125 71.09375 
Q 15.4375 72.65625 20.34375 73.4375 
Q 25.25 74.21875 29.59375 74.21875 
Q 40.828125 74.21875 47.359375 69.109375 
Q 53.90625 64.015625 53.90625 55.328125 
Q 53.90625 49.265625 50.4375 45.09375 
Q 46.96875 40.921875 40.578125 39.3125 
z
" id="DejaVuSans-51"/>
      </defs>
      <g transform="translate(179.640197 322.182437)scale(0.1 -0.1)">
       <use xlink:href="#DejaVuSans-51"/>
       <use x="63.623047" xlink:href="#DejaVuSans-50"/>
      </g>
     </g>
    </g>
    <g id="xtick_10">
     <g id="line2d_19">
      <path clip-path="url(#p7cf16eec7a)" d="M 202.053034 307.584 
L 202.053034 41.472 
" style="fill:none;stroke:#b0b0b0;stroke-dasharray:5.12,1.28,0.8,1.28;stroke-dashoffset:0;stroke-width:0.8;"/>
     </g>
     <g id="line2d_20">
      <g>
       <use style="stroke:#000000;stroke-width:0.8;" x="202.053034" xlink:href="#ma85e4ecfde" y="307.584"/>
      </g>
     </g>
     <g id="text_10">
      <!-- 36 -->
      <g transform="translate(195.690534 322.182437)scale(0.1 -0.1)">
       <use xlink:href="#DejaVuSans-51"/>
       <use x="63.623047" xlink:href="#DejaVuSans-54"/>
      </g>
     </g>
    </g>
    <g id="xtick_11">
     <g id="line2d_21">
      <path clip-path="url(#p7cf16eec7a)" d="M 218.103371 307.584 
L 218.103371 41.472 
" style="fill:none;stroke:#b0b0b0;stroke-dasharray:5.12,1.28,0.8,1.28;stroke-dashoffset:0;stroke-width:0.8;"/>
     </g>
     <g id="line2d_22">
      <g>
       <use style="stroke:#000000;stroke-width:0.8;" x="218.103371" xlink:href="#ma85e4ecfde" y="307.584"/>
      </g>
     </g>
     <g id="text_11">
      <!-- 40 -->
      <g transform="translate(211.740871 322.182437)scale(0.1 -0.1)">
       <use xlink:href="#DejaVuSans-52"/>
       <use x="63.623047" xlink:href="#DejaVuSans-48"/>
      </g>
     </g>
    </g>
    <g id="xtick_12">
     <g id="line2d_23">
      <path clip-path="url(#p7cf16eec7a)" d="M 234.153708 307.584 
L 234.153708 41.472 
" style="fill:none;stroke:#b0b0b0;stroke-dasharray:5.12,1.28,0.8,1.28;stroke-dashoffset:0;stroke-width:0.8;"/>
     </g>
     <g id="line2d_24">
      <g>
       <use style="stroke:#000000;stroke-width:0.8;" x="234.153708" xlink:href="#ma85e4ecfde" y="307.584"/>
      </g>
     </g>
     <g id="text_12">
      <!-- 44 -->
      <g transform="translate(227.791208 322.182437)scale(0.1 -0.1)">
       <use xlink:href="#DejaVuSans-52"/>
       <use x="63.623047" xlink:href="#DejaVuSans-52"/>
      </g>
     </g>
    </g>
    <g id="xtick_13">
     <g id="line2d_25">
      <path clip-path="url(#p7cf16eec7a)" d="M 250.204045 307.584 
L 250.204045 41.472 
" style="fill:none;stroke:#b0b0b0;stroke-dasharray:5.12,1.28,0.8,1.28;stroke-dashoffset:0;stroke-width:0.8;"/>
     </g>
     <g id="line2d_26">
      <g>
       <use style="stroke:#000000;stroke-width:0.8;" x="250.204045" xlink:href="#ma85e4ecfde" y="307.584"/>
      </g>
     </g>
     <g id="text_13">
      <!-- 48 -->
      <g transform="translate(243.841545 322.182437)scale(0.1 -0.1)">
       <use xlink:href="#DejaVuSans-52"/>
       <use x="63.623047" xlink:href="#DejaVuSans-56"/>
      </g>
     </g>
    </g>
    <g id="xtick_14">
     <g id="line2d_27">
      <path clip-path="url(#p7cf16eec7a)" d="M 266.254382 307.584 
L 266.254382 41.472 
" style="fill:none;stroke:#b0b0b0;stroke-dasharray:5.12,1.28,0.8,1.28;stroke-dashoffset:0;stroke-width:0.8;"/>
     </g>
     <g id="line2d_28">
      <g>
       <use style="stroke:#000000;stroke-width:0.8;" x="266.254382" xlink:href="#ma85e4ecfde" y="307.584"/>
      </g>
     </g>
     <g id="text_14">
      <!-- 52 -->
      <defs>
       <path d="M 10.796875 72.90625 
L 49.515625 72.90625 
L 49.515625 64.59375 
L 19.828125 64.59375 
L 19.828125 46.734375 
Q 21.96875 47.46875 24.109375 47.828125 
Q 26.265625 48.1875 28.421875 48.1875 
Q 40.625 48.1875 47.75 41.5 
Q 54.890625 34.8125 54.890625 23.390625 
Q 54.890625 11.625 47.5625 5.09375 
Q 40.234375 -1.421875 26.90625 -1.421875 
Q 22.3125 -1.421875 17.546875 -0.640625 
Q 12.796875 0.140625 7.71875 1.703125 
L 7.71875 11.625 
Q 12.109375 9.234375 16.796875 8.0625 
Q 21.484375 6.890625 26.703125 6.890625 
Q 35.15625 6.890625 40.078125 11.328125 
Q 45.015625 15.765625 45.015625 23.390625 
Q 45.015625 31 40.078125 35.4375 
Q 35.15625 39.890625 26.703125 39.890625 
Q 22.75 39.890625 18.8125 39.015625 
Q 14.890625 38.140625 10.796875 36.28125 
z
" id="DejaVuSans-53"/>
      </defs>
      <g transform="translate(259.891882 322.182437)scale(0.1 -0.1)">
       <use xlink:href="#DejaVuSans-53"/>
       <use x="63.623047" xlink:href="#DejaVuSans-50"/>
      </g>
     </g>
    </g>
    <g id="xtick_15">
     <g id="line2d_29">
      <path clip-path="url(#p7cf16eec7a)" d="M 282.304719 307.584 
L 282.304719 41.472 
" style="fill:none;stroke:#b0b0b0;stroke-dasharray:5.12,1.28,0.8,1.28;stroke-dashoffset:0;stroke-width:0.8;"/>
     </g>
     <g id="line2d_30">
      <g>
       <use style="stroke:#000000;stroke-width:0.8;" x="282.304719" xlink:href="#ma85e4ecfde" y="307.584"/>
      </g>
     </g>
     <g id="text_15">
      <!-- 56 -->
      <g transform="translate(275.942219 322.182437)scale(0.1 -0.1)">
       <use xlink:href="#DejaVuSans-53"/>
       <use x="63.623047" xlink:href="#DejaVuSans-54"/>
      </g>
     </g>
    </g>
    <g id="xtick_16">
     <g id="line2d_31">
      <path clip-path="url(#p7cf16eec7a)" d="M 298.355056 307.584 
L 298.355056 41.472 
" style="fill:none;stroke:#b0b0b0;stroke-dasharray:5.12,1.28,0.8,1.28;stroke-dashoffset:0;stroke-width:0.8;"/>
     </g>
     <g id="line2d_32">
      <g>
       <use style="stroke:#000000;stroke-width:0.8;" x="298.355056" xlink:href="#ma85e4ecfde" y="307.584"/>
      </g>
     </g>
     <g id="text_16">
      <!-- 60 -->
      <g transform="translate(291.992556 322.182437)scale(0.1 -0.1)">
       <use xlink:href="#DejaVuSans-54"/>
       <use x="63.623047" xlink:href="#DejaVuSans-48"/>
      </g>
     </g>
    </g>
    <g id="xtick_17">
     <g id="line2d_33">
      <path clip-path="url(#p7cf16eec7a)" d="M 314.405393 307.584 
L 314.405393 41.472 
" style="fill:none;stroke:#b0b0b0;stroke-dasharray:5.12,1.28,0.8,1.28;stroke-dashoffset:0;stroke-width:0.8;"/>
     </g>
     <g id="line2d_34">
      <g>
       <use style="stroke:#000000;stroke-width:0.8;" x="314.405393" xlink:href="#ma85e4ecfde" y="307.584"/>
      </g>
     </g>
     <g id="text_17">
      <!-- 64 -->
      <g transform="translate(308.042893 322.182437)scale(0.1 -0.1)">
       <use xlink:href="#DejaVuSans-54"/>
       <use x="63.623047" xlink:href="#DejaVuSans-52"/>
      </g>
     </g>
    </g>
    <g id="xtick_18">
     <g id="line2d_35">
      <path clip-path="url(#p7cf16eec7a)" d="M 330.45573 307.584 
L 330.45573 41.472 
" style="fill:none;stroke:#b0b0b0;stroke-dasharray:5.12,1.28,0.8,1.28;stroke-dashoffset:0;stroke-width:0.8;"/>
     </g>
     <g id="line2d_36">
      <g>
       <use style="stroke:#000000;stroke-width:0.8;" x="330.45573" xlink:href="#ma85e4ecfde" y="307.584"/>
      </g>
     </g>
     <g id="text_18">
      <!-- 68 -->
      <g transform="translate(324.09323 322.182437)scale(0.1 -0.1)">
       <use xlink:href="#DejaVuSans-54"/>
       <use x="63.623047" xlink:href="#DejaVuSans-56"/>
      </g>
     </g>
    </g>
    <g id="xtick_19">
     <g id="line2d_37">
      <path clip-path="url(#p7cf16eec7a)" d="M 346.506067 307.584 
L 346.506067 41.472 
" style="fill:none;stroke:#b0b0b0;stroke-dasharray:5.12,1.28,0.8,1.28;stroke-dashoffset:0;stroke-width:0.8;"/>
     </g>
     <g id="line2d_38">
      <g>
       <use style="stroke:#000000;stroke-width:0.8;" x="346.506067" xlink:href="#ma85e4ecfde" y="307.584"/>
      </g>
     </g>
     <g id="text_19">
      <!-- 72 -->
      <defs>
       <path d="M 8.203125 72.90625 
L 55.078125 72.90625 
L 55.078125 68.703125 
L 28.609375 0 
L 18.3125 0 
L 43.21875 64.59375 
L 8.203125 64.59375 
z
" id="DejaVuSans-55"/>
      </defs>
      <g transform="translate(340.143567 322.182437)scale(0.1 -0.1)">
       <use xlink:href="#DejaVuSans-55"/>
       <use x="63.623047" xlink:href="#DejaVuSans-50"/>
      </g>
     </g>
    </g>
    <g id="xtick_20">
     <g id="line2d_39">
      <path clip-path="url(#p7cf16eec7a)" d="M 362.556404 307.584 
L 362.556404 41.472 
" style="fill:none;stroke:#b0b0b0;stroke-dasharray:5.12,1.28,0.8,1.28;stroke-dashoffset:0;stroke-width:0.8;"/>
     </g>
     <g id="line2d_40">
      <g>
       <use style="stroke:#000000;stroke-width:0.8;" x="362.556404" xlink:href="#ma85e4ecfde" y="307.584"/>
      </g>
     </g>
     <g id="text_20">
      <!-- 76 -->
      <g transform="translate(356.193904 322.182437)scale(0.1 -0.1)">
       <use xlink:href="#DejaVuSans-55"/>
       <use x="63.623047" xlink:href="#DejaVuSans-54"/>
      </g>
     </g>
    </g>
    <g id="xtick_21">
     <g id="line2d_41">
      <path clip-path="url(#p7cf16eec7a)" d="M 378.606742 307.584 
L 378.606742 41.472 
" style="fill:none;stroke:#b0b0b0;stroke-dasharray:5.12,1.28,0.8,1.28;stroke-dashoffset:0;stroke-width:0.8;"/>
     </g>
     <g id="line2d_42">
      <g>
       <use style="stroke:#000000;stroke-width:0.8;" x="378.606742" xlink:href="#ma85e4ecfde" y="307.584"/>
      </g>
     </g>
     <g id="text_21">
      <!-- 80 -->
      <g transform="translate(372.244242 322.182437)scale(0.1 -0.1)">
       <use xlink:href="#DejaVuSans-56"/>
       <use x="63.623047" xlink:href="#DejaVuSans-48"/>
      </g>
     </g>
    </g>
    <g id="xtick_22">
     <g id="line2d_43">
      <path clip-path="url(#p7cf16eec7a)" d="M 394.657079 307.584 
L 394.657079 41.472 
" style="fill:none;stroke:#b0b0b0;stroke-dasharray:5.12,1.28,0.8,1.28;stroke-dashoffset:0;stroke-width:0.8;"/>
     </g>
     <g id="line2d_44">
      <g>
       <use style="stroke:#000000;stroke-width:0.8;" x="394.657079" xlink:href="#ma85e4ecfde" y="307.584"/>
      </g>
     </g>
     <g id="text_22">
      <!-- 84 -->
      <g transform="translate(388.294579 322.182437)scale(0.1 -0.1)">
       <use xlink:href="#DejaVuSans-56"/>
       <use x="63.623047" xlink:href="#DejaVuSans-52"/>
      </g>
     </g>
    </g>
    <g id="xtick_23">
     <g id="line2d_45">
      <path clip-path="url(#p7cf16eec7a)" d="M 410.707416 307.584 
L 410.707416 41.472 
" style="fill:none;stroke:#b0b0b0;stroke-dasharray:5.12,1.28,0.8,1.28;stroke-dashoffset:0;stroke-width:0.8;"/>
     </g>
     <g id="line2d_46">
      <g>
       <use style="stroke:#000000;stroke-width:0.8;" x="410.707416" xlink:href="#ma85e4ecfde" y="307.584"/>
      </g>
     </g>
     <g id="text_23">
      <!-- 88 -->
      <g transform="translate(404.344916 322.182437)scale(0.1 -0.1)">
       <use xlink:href="#DejaVuSans-56"/>
       <use x="63.623047" xlink:href="#DejaVuSans-56"/>
      </g>
     </g>
    </g>
    <g id="text_24">
     <!-- threads -->
     <defs>
      <path d="M 18.3125 70.21875 
L 18.3125 54.6875 
L 36.8125 54.6875 
L 36.8125 47.703125 
L 18.3125 47.703125 
L 18.3125 18.015625 
Q 18.3125 11.328125 20.140625 9.421875 
Q 21.96875 7.515625 27.59375 7.515625 
L 36.8125 7.515625 
L 36.8125 0 
L 27.59375 0 
Q 17.1875 0 13.234375 3.875 
Q 9.28125 7.765625 9.28125 18.015625 
L 9.28125 47.703125 
L 2.6875 47.703125 
L 2.6875 54.6875 
L 9.28125 54.6875 
L 9.28125 70.21875 
z
" id="DejaVuSans-116"/>
      <path d="M 54.890625 33.015625 
L 54.890625 0 
L 45.90625 0 
L 45.90625 32.71875 
Q 45.90625 40.484375 42.875 44.328125 
Q 39.84375 48.1875 33.796875 48.1875 
Q 26.515625 48.1875 22.3125 43.546875 
Q 18.109375 38.921875 18.109375 30.90625 
L 18.109375 0 
L 9.078125 0 
L 9.078125 75.984375 
L 18.109375 75.984375 
L 18.109375 46.1875 
Q 21.34375 51.125 25.703125 53.5625 
Q 30.078125 56 35.796875 56 
Q 45.21875 56 50.046875 50.171875 
Q 54.890625 44.34375 54.890625 33.015625 
z
" id="DejaVuSans-104"/>
      <path d="M 41.109375 46.296875 
Q 39.59375 47.171875 37.8125 47.578125 
Q 36.03125 48 33.890625 48 
Q 26.265625 48 22.1875 43.046875 
Q 18.109375 38.09375 18.109375 28.8125 
L 18.109375 0 
L 9.078125 0 
L 9.078125 54.6875 
L 18.109375 54.6875 
L 18.109375 46.1875 
Q 20.953125 51.171875 25.484375 53.578125 
Q 30.03125 56 36.53125 56 
Q 37.453125 56 38.578125 55.875 
Q 39.703125 55.765625 41.0625 55.515625 
z
" id="DejaVuSans-114"/>
      <path d="M 56.203125 29.59375 
L 56.203125 25.203125 
L 14.890625 25.203125 
Q 15.484375 15.921875 20.484375 11.0625 
Q 25.484375 6.203125 34.421875 6.203125 
Q 39.59375 6.203125 44.453125 7.46875 
Q 49.3125 8.734375 54.109375 11.28125 
L 54.109375 2.78125 
Q 49.265625 0.734375 44.1875 -0.34375 
Q 39.109375 -1.421875 33.890625 -1.421875 
Q 20.796875 -1.421875 13.15625 6.1875 
Q 5.515625 13.8125 5.515625 26.8125 
Q 5.515625 40.234375 12.765625 48.109375 
Q 20.015625 56 32.328125 56 
Q 43.359375 56 49.78125 48.890625 
Q 56.203125 41.796875 56.203125 29.59375 
z
M 47.21875 32.234375 
Q 47.125 39.59375 43.09375 43.984375 
Q 39.0625 48.390625 32.421875 48.390625 
Q 24.90625 48.390625 20.390625 44.140625 
Q 15.875 39.890625 15.1875 32.171875 
z
" id="DejaVuSans-101"/>
      <path d="M 34.28125 27.484375 
Q 23.390625 27.484375 19.1875 25 
Q 14.984375 22.515625 14.984375 16.5 
Q 14.984375 11.71875 18.140625 8.90625 
Q 21.296875 6.109375 26.703125 6.109375 
Q 34.1875 6.109375 38.703125 11.40625 
Q 43.21875 16.703125 43.21875 25.484375 
L 43.21875 27.484375 
z
M 52.203125 31.203125 
L 52.203125 0 
L 43.21875 0 
L 43.21875 8.296875 
Q 40.140625 3.328125 35.546875 0.953125 
Q 30.953125 -1.421875 24.3125 -1.421875 
Q 15.921875 -1.421875 10.953125 3.296875 
Q 6 8.015625 6 15.921875 
Q 6 25.140625 12.171875 29.828125 
Q 18.359375 34.515625 30.609375 34.515625 
L 43.21875 34.515625 
L 43.21875 35.40625 
Q 43.21875 41.609375 39.140625 45 
Q 35.0625 48.390625 27.6875 48.390625 
Q 23 48.390625 18.546875 47.265625 
Q 14.109375 46.140625 10.015625 43.890625 
L 10.015625 52.203125 
Q 14.9375 54.109375 19.578125 55.046875 
Q 24.21875 56 28.609375 56 
Q 40.484375 56 46.34375 49.84375 
Q 52.203125 43.703125 52.203125 31.203125 
z
" id="DejaVuSans-97"/>
      <path d="M 45.40625 46.390625 
L 45.40625 75.984375 
L 54.390625 75.984375 
L 54.390625 0 
L 45.40625 0 
L 45.40625 8.203125 
Q 42.578125 3.328125 38.25 0.953125 
Q 33.9375 -1.421875 27.875 -1.421875 
Q 17.96875 -1.421875 11.734375 6.484375 
Q 5.515625 14.40625 5.515625 27.296875 
Q 5.515625 40.1875 11.734375 48.09375 
Q 17.96875 56 27.875 56 
Q 33.9375 56 38.25 53.625 
Q 42.578125 51.265625 45.40625 46.390625 
z
M 14.796875 27.296875 
Q 14.796875 17.390625 18.875 11.75 
Q 22.953125 6.109375 30.078125 6.109375 
Q 37.203125 6.109375 41.296875 11.75 
Q 45.40625 17.390625 45.40625 27.296875 
Q 45.40625 37.203125 41.296875 42.84375 
Q 37.203125 48.484375 30.078125 48.484375 
Q 22.953125 48.484375 18.875 42.84375 
Q 14.796875 37.203125 14.796875 27.296875 
z
" id="DejaVuSans-100"/>
      <path d="M 44.28125 53.078125 
L 44.28125 44.578125 
Q 40.484375 46.53125 36.375 47.5 
Q 32.28125 48.484375 27.875 48.484375 
Q 21.1875 48.484375 17.84375 46.4375 
Q 14.5 44.390625 14.5 40.28125 
Q 14.5 37.15625 16.890625 35.375 
Q 19.28125 33.59375 26.515625 31.984375 
L 29.59375 31.296875 
Q 39.15625 29.25 43.1875 25.515625 
Q 47.21875 21.78125 47.21875 15.09375 
Q 47.21875 7.46875 41.1875 3.015625 
Q 35.15625 -1.421875 24.609375 -1.421875 
Q 20.21875 -1.421875 15.453125 -0.5625 
Q 10.6875 0.296875 5.421875 2 
L 5.421875 11.28125 
Q 10.40625 8.6875 15.234375 7.390625 
Q 20.0625 6.109375 24.8125 6.109375 
Q 31.15625 6.109375 34.5625 8.28125 
Q 37.984375 10.453125 37.984375 14.40625 
Q 37.984375 18.0625 35.515625 20.015625 
Q 33.0625 21.96875 24.703125 23.78125 
L 21.578125 24.515625 
Q 13.234375 26.265625 9.515625 29.90625 
Q 5.8125 33.546875 5.8125 39.890625 
Q 5.8125 47.609375 11.28125 51.796875 
Q 16.75 56 26.8125 56 
Q 31.78125 56 36.171875 55.265625 
Q 40.578125 54.546875 44.28125 53.078125 
z
" id="DejaVuSans-115"/>
     </defs>
     <g transform="translate(217.168594 335.860562)scale(0.1 -0.1)">
      <use xlink:href="#DejaVuSans-116"/>
      <use x="39.208984" xlink:href="#DejaVuSans-104"/>
      <use x="102.587891" xlink:href="#DejaVuSans-114"/>
      <use x="141.451172" xlink:href="#DejaVuSans-101"/>
      <use x="202.974609" xlink:href="#DejaVuSans-97"/>
      <use x="264.253906" xlink:href="#DejaVuSans-100"/>
      <use x="327.730469" xlink:href="#DejaVuSans-115"/>
     </g>
    </g>
   </g>
   <g id="matplotlib.axis_2">
    <g id="ytick_1">
     <g id="line2d_47">
      <path clip-path="url(#p7cf16eec7a)" d="M 57.6 272.411573 
L 414.72 272.411573 
" style="fill:none;stroke:#b0b0b0;stroke-dasharray:5.12,1.28,0.8,1.28;stroke-dashoffset:0;stroke-width:0.8;"/>
     </g>
     <g id="line2d_48">
      <defs>
       <path d="M 0 0 
L -3.5 0 
" id="m4fc707e0ab" style="stroke:#000000;stroke-width:0.8;"/>
      </defs>
      <g>
       <use style="stroke:#000000;stroke-width:0.8;" x="57.6" xlink:href="#m4fc707e0ab" y="272.411573"/>
      </g>
     </g>
     <g id="text_25">
      <!-- 0.006 -->
      <defs>
       <path d="M 10.6875 12.40625 
L 21 12.40625 
L 21 0 
L 10.6875 0 
z
" id="DejaVuSans-46"/>
      </defs>
      <g transform="translate(21.971875 276.210792)scale(0.1 -0.1)">
       <use xlink:href="#DejaVuSans-48"/>
       <use x="63.623047" xlink:href="#DejaVuSans-46"/>
       <use x="95.410156" xlink:href="#DejaVuSans-48"/>
       <use x="159.033203" xlink:href="#DejaVuSans-48"/>
       <use x="222.65625" xlink:href="#DejaVuSans-54"/>
      </g>
     </g>
    </g>
    <g id="ytick_2">
     <g id="line2d_49">
      <path clip-path="url(#p7cf16eec7a)" d="M 57.6 235.383966 
L 414.72 235.383966 
" style="fill:none;stroke:#b0b0b0;stroke-dasharray:5.12,1.28,0.8,1.28;stroke-dashoffset:0;stroke-width:0.8;"/>
     </g>
     <g id="line2d_50">
      <g>
       <use style="stroke:#000000;stroke-width:0.8;" x="57.6" xlink:href="#m4fc707e0ab" y="235.383966"/>
      </g>
     </g>
     <g id="text_26">
      <!-- 0.008 -->
      <g transform="translate(21.971875 239.183185)scale(0.1 -0.1)">
       <use xlink:href="#DejaVuSans-48"/>
       <use x="63.623047" xlink:href="#DejaVuSans-46"/>
       <use x="95.410156" xlink:href="#DejaVuSans-48"/>
       <use x="159.033203" xlink:href="#DejaVuSans-48"/>
       <use x="222.65625" xlink:href="#DejaVuSans-56"/>
      </g>
     </g>
    </g>
    <g id="ytick_3">
     <g id="line2d_51">
      <path clip-path="url(#p7cf16eec7a)" d="M 57.6 198.356359 
L 414.72 198.356359 
" style="fill:none;stroke:#b0b0b0;stroke-dasharray:5.12,1.28,0.8,1.28;stroke-dashoffset:0;stroke-width:0.8;"/>
     </g>
     <g id="line2d_52">
      <g>
       <use style="stroke:#000000;stroke-width:0.8;" x="57.6" xlink:href="#m4fc707e0ab" y="198.356359"/>
      </g>
     </g>
     <g id="text_27">
      <!-- 0.010 -->
      <g transform="translate(21.971875 202.155578)scale(0.1 -0.1)">
       <use xlink:href="#DejaVuSans-48"/>
       <use x="63.623047" xlink:href="#DejaVuSans-46"/>
       <use x="95.410156" xlink:href="#DejaVuSans-48"/>
       <use x="159.033203" xlink:href="#DejaVuSans-49"/>
       <use x="222.65625" xlink:href="#DejaVuSans-48"/>
      </g>
     </g>
    </g>
    <g id="ytick_4">
     <g id="line2d_53">
      <path clip-path="url(#p7cf16eec7a)" d="M 57.6 161.328752 
L 414.72 161.328752 
" style="fill:none;stroke:#b0b0b0;stroke-dasharray:5.12,1.28,0.8,1.28;stroke-dashoffset:0;stroke-width:0.8;"/>
     </g>
     <g id="line2d_54">
      <g>
       <use style="stroke:#000000;stroke-width:0.8;" x="57.6" xlink:href="#m4fc707e0ab" y="161.328752"/>
      </g>
     </g>
     <g id="text_28">
      <!-- 0.012 -->
      <g transform="translate(21.971875 165.127971)scale(0.1 -0.1)">
       <use xlink:href="#DejaVuSans-48"/>
       <use x="63.623047" xlink:href="#DejaVuSans-46"/>
       <use x="95.410156" xlink:href="#DejaVuSans-48"/>
       <use x="159.033203" xlink:href="#DejaVuSans-49"/>
       <use x="222.65625" xlink:href="#DejaVuSans-50"/>
      </g>
     </g>
    </g>
    <g id="ytick_5">
     <g id="line2d_55">
      <path clip-path="url(#p7cf16eec7a)" d="M 57.6 124.301146 
L 414.72 124.301146 
" style="fill:none;stroke:#b0b0b0;stroke-dasharray:5.12,1.28,0.8,1.28;stroke-dashoffset:0;stroke-width:0.8;"/>
     </g>
     <g id="line2d_56">
      <g>
       <use style="stroke:#000000;stroke-width:0.8;" x="57.6" xlink:href="#m4fc707e0ab" y="124.301146"/>
      </g>
     </g>
     <g id="text_29">
      <!-- 0.014 -->
      <g transform="translate(21.971875 128.100364)scale(0.1 -0.1)">
       <use xlink:href="#DejaVuSans-48"/>
       <use x="63.623047" xlink:href="#DejaVuSans-46"/>
       <use x="95.410156" xlink:href="#DejaVuSans-48"/>
       <use x="159.033203" xlink:href="#DejaVuSans-49"/>
       <use x="222.65625" xlink:href="#DejaVuSans-52"/>
      </g>
     </g>
    </g>
    <g id="ytick_6">
     <g id="line2d_57">
      <path clip-path="url(#p7cf16eec7a)" d="M 57.6 87.273539 
L 414.72 87.273539 
" style="fill:none;stroke:#b0b0b0;stroke-dasharray:5.12,1.28,0.8,1.28;stroke-dashoffset:0;stroke-width:0.8;"/>
     </g>
     <g id="line2d_58">
      <g>
       <use style="stroke:#000000;stroke-width:0.8;" x="57.6" xlink:href="#m4fc707e0ab" y="87.273539"/>
      </g>
     </g>
     <g id="text_30">
      <!-- 0.016 -->
      <g transform="translate(21.971875 91.072757)scale(0.1 -0.1)">
       <use xlink:href="#DejaVuSans-48"/>
       <use x="63.623047" xlink:href="#DejaVuSans-46"/>
       <use x="95.410156" xlink:href="#DejaVuSans-48"/>
       <use x="159.033203" xlink:href="#DejaVuSans-49"/>
       <use x="222.65625" xlink:href="#DejaVuSans-54"/>
      </g>
     </g>
    </g>
    <g id="ytick_7">
     <g id="line2d_59">
      <path clip-path="url(#p7cf16eec7a)" d="M 57.6 50.245932 
L 414.72 50.245932 
" style="fill:none;stroke:#b0b0b0;stroke-dasharray:5.12,1.28,0.8,1.28;stroke-dashoffset:0;stroke-width:0.8;"/>
     </g>
     <g id="line2d_60">
      <g>
       <use style="stroke:#000000;stroke-width:0.8;" x="57.6" xlink:href="#m4fc707e0ab" y="50.245932"/>
      </g>
     </g>
     <g id="text_31">
      <!-- 0.018 -->
      <g transform="translate(21.971875 54.045151)scale(0.1 -0.1)">
       <use xlink:href="#DejaVuSans-48"/>
       <use x="63.623047" xlink:href="#DejaVuSans-46"/>
       <use x="95.410156" xlink:href="#DejaVuSans-48"/>
       <use x="159.033203" xlink:href="#DejaVuSans-49"/>
       <use x="222.65625" xlink:href="#DejaVuSans-56"/>
      </g>
     </g>
    </g>
    <g id="text_32">
     <!-- duration (s) -->
     <defs>
      <path d="M 8.5 21.578125 
L 8.5 54.6875 
L 17.484375 54.6875 
L 17.484375 21.921875 
Q 17.484375 14.15625 20.5 10.265625 
Q 23.53125 6.390625 29.59375 6.390625 
Q 36.859375 6.390625 41.078125 11.03125 
Q 45.3125 15.671875 45.3125 23.6875 
L 45.3125 54.6875 
L 54.296875 54.6875 
L 54.296875 0 
L 45.3125 0 
L 45.3125 8.40625 
Q 42.046875 3.421875 37.71875 1 
Q 33.40625 -1.421875 27.6875 -1.421875 
Q 18.265625 -1.421875 13.375 4.4375 
Q 8.5 10.296875 8.5 21.578125 
z
M 31.109375 56 
z
" id="DejaVuSans-117"/>
      <path d="M 9.421875 54.6875 
L 18.40625 54.6875 
L 18.40625 0 
L 9.421875 0 
z
M 9.421875 75.984375 
L 18.40625 75.984375 
L 18.40625 64.59375 
L 9.421875 64.59375 
z
" id="DejaVuSans-105"/>
      <path d="M 30.609375 48.390625 
Q 23.390625 48.390625 19.1875 42.75 
Q 14.984375 37.109375 14.984375 27.296875 
Q 14.984375 17.484375 19.15625 11.84375 
Q 23.34375 6.203125 30.609375 6.203125 
Q 37.796875 6.203125 41.984375 11.859375 
Q 46.1875 17.53125 46.1875 27.296875 
Q 46.1875 37.015625 41.984375 42.703125 
Q 37.796875 48.390625 30.609375 48.390625 
z
M 30.609375 56 
Q 42.328125 56 49.015625 48.375 
Q 55.71875 40.765625 55.71875 27.296875 
Q 55.71875 13.875 49.015625 6.21875 
Q 42.328125 -1.421875 30.609375 -1.421875 
Q 18.84375 -1.421875 12.171875 6.21875 
Q 5.515625 13.875 5.515625 27.296875 
Q 5.515625 40.765625 12.171875 48.375 
Q 18.84375 56 30.609375 56 
z
" id="DejaVuSans-111"/>
      <path d="M 54.890625 33.015625 
L 54.890625 0 
L 45.90625 0 
L 45.90625 32.71875 
Q 45.90625 40.484375 42.875 44.328125 
Q 39.84375 48.1875 33.796875 48.1875 
Q 26.515625 48.1875 22.3125 43.546875 
Q 18.109375 38.921875 18.109375 30.90625 
L 18.109375 0 
L 9.078125 0 
L 9.078125 54.6875 
L 18.109375 54.6875 
L 18.109375 46.1875 
Q 21.34375 51.125 25.703125 53.5625 
Q 30.078125 56 35.796875 56 
Q 45.21875 56 50.046875 50.171875 
Q 54.890625 44.34375 54.890625 33.015625 
z
" id="DejaVuSans-110"/>
      <path id="DejaVuSans-32"/>
      <path d="M 31 75.875 
Q 24.46875 64.65625 21.28125 53.65625 
Q 18.109375 42.671875 18.109375 31.390625 
Q 18.109375 20.125 21.3125 9.0625 
Q 24.515625 -2 31 -13.1875 
L 23.1875 -13.1875 
Q 15.875 -1.703125 12.234375 9.375 
Q 8.59375 20.453125 8.59375 31.390625 
Q 8.59375 42.28125 12.203125 53.3125 
Q 15.828125 64.359375 23.1875 75.875 
z
" id="DejaVuSans-40"/>
      <path d="M 8.015625 75.875 
L 15.828125 75.875 
Q 23.140625 64.359375 26.78125 53.3125 
Q 30.421875 42.28125 30.421875 31.390625 
Q 30.421875 20.453125 26.78125 9.375 
Q 23.140625 -1.703125 15.828125 -13.1875 
L 8.015625 -13.1875 
Q 14.5 -2 17.703125 9.0625 
Q 20.90625 20.125 20.90625 31.390625 
Q 20.90625 42.671875 17.703125 53.65625 
Q 14.5 64.65625 8.015625 75.875 
z
" id="DejaVuSans-41"/>
     </defs>
     <g transform="translate(15.892187 203.663156)rotate(-90)scale(0.1 -0.1)">
      <use xlink:href="#DejaVuSans-100"/>
      <use x="63.476562" xlink:href="#DejaVuSans-117"/>
      <use x="126.855469" xlink:href="#DejaVuSans-114"/>
      <use x="167.96875" xlink:href="#DejaVuSans-97"/>
      <use x="229.248047" xlink:href="#DejaVuSans-116"/>
      <use x="268.457031" xlink:href="#DejaVuSans-105"/>
      <use x="296.240234" xlink:href="#DejaVuSans-111"/>
      <use x="357.421875" xlink:href="#DejaVuSans-110"/>
      <use x="420.800781" xlink:href="#DejaVuSans-32"/>
      <use x="452.587891" xlink:href="#DejaVuSans-40"/>
      <use x="491.601562" xlink:href="#DejaVuSans-115"/>
      <use x="543.701172" xlink:href="#DejaVuSans-41"/>
     </g>
    </g>
   </g>
   <g id="line2d_61">
    <path clip-path="url(#p7cf16eec7a)" d="M 61.612584 86.286717 
L 65.625169 212.617021 
L 69.637753 241.76037 
L 73.650337 253.427294 
L 77.662921 261.916113 
L 81.675506 258.655403 
L 85.68809 260.062849 
L 89.700674 260.207882 
L 93.713258 275.342976 
L 97.725843 281.446956 
L 101.738427 285.376077 
L 105.751011 278.376679 
L 109.763596 279.623329 
L 113.77618 287.543368 
L 117.788764 295.26919 
L 121.801348 265.666782 
L 125.813933 281.981054 
L 129.826517 282.826026 
L 133.839101 280.906552 
L 137.851685 285.103668 
L 141.86427 292.394392 
L 145.876854 295.260362 
L 149.889438 294.849857 
L 153.902022 271.227204 
L 157.914607 271.82436 
L 161.927191 284.774507 
L 165.939775 274.815814 
L 169.95236 289.407352 
L 173.964944 282.995651 
L 177.977528 265.196372 
L 181.990112 277.445948 
L 186.002697 288.947031 
L 190.015281 263.624975 
L 194.027865 269.11162 
L 198.040449 281.092572 
L 202.053034 264.988912 
L 206.065618 262.082585 
L 210.078202 264.535528 
L 214.090787 284.5475 
L 218.103371 282.27175 
L 222.115955 282.058615 
L 226.128539 279.321913 
L 230.141124 262.145643 
L 234.153708 262.115375 
L 238.166292 261.379493 
L 242.178876 265.914598 
L 246.191461 260.410297 
L 250.204045 260.554699 
L 254.216629 259.597484 
L 258.229213 259.540732 
L 262.241798 263.358872 
L 266.254382 261.552271 
L 270.266966 257.730347 
L 274.279551 259.085456 
L 278.292135 260.086811 
L 282.304719 260.734413 
L 286.317303 259.103112 
L 290.329888 259.325075 
L 294.342472 259.322553 
L 298.355056 260.219232 
L 302.36764 258.264445 
L 306.380225 254.656918 
L 310.392809 252.326308 
L 314.405393 252.214695 
L 318.417978 251.350175 
L 322.430562 250.710771 
L 326.443146 250.64456 
L 330.45573 256.295786 
L 334.468315 252.453053 
L 338.480899 250.850128 
L 342.493483 251.899407 
L 346.506067 250.253603 
L 350.518652 251.239824 
L 354.531236 250.321075 
L 358.54382 244.645257 
L 362.556404 245.746243 
L 366.568989 244.902532 
L 370.581573 243.217001 
L 374.594157 241.53084 
L 378.606742 241.369412 
L 382.619326 242.317169 
L 386.63191 241.151233 
L 390.644494 238.305442 
L 394.657079 238.800444 
L 398.669663 235.637473 
L 402.682247 236.291381 
L 406.694831 145.483967 
L 410.707416 179.305562 
" style="fill:none;stroke:#0000ff;stroke-dasharray:1.5,2.475;stroke-dashoffset:0;stroke-width:1.5;"/>
    <defs>
     <path d="M 0 1.5 
C 0.397805 1.5 0.77937 1.341951 1.06066 1.06066 
C 1.341951 0.77937 1.5 0.397805 1.5 0 
C 1.5 -0.397805 1.341951 -0.77937 1.06066 -1.06066 
C 0.77937 -1.341951 0.397805 -1.5 0 -1.5 
C -0.397805 -1.5 -0.77937 -1.341951 -1.06066 -1.06066 
C -1.341951 -0.77937 -1.5 -0.397805 -1.5 0 
C -1.5 0.397805 -1.341951 0.77937 -1.06066 1.06066 
C -0.77937 1.341951 -0.397805 1.5 0 1.5 
z
" id="m8695a9d616" style="stroke:#0000ff;"/>
    </defs>
    <g clip-path="url(#p7cf16eec7a)">
     <use style="fill:#0000ff;stroke:#0000ff;" x="61.612584" xlink:href="#m8695a9d616" y="86.286717"/>
     <use style="fill:#0000ff;stroke:#0000ff;" x="65.625169" xlink:href="#m8695a9d616" y="212.617021"/>
     <use style="fill:#0000ff;stroke:#0000ff;" x="69.637753" xlink:href="#m8695a9d616" y="241.76037"/>
     <use style="fill:#0000ff;stroke:#0000ff;" x="73.650337" xlink:href="#m8695a9d616" y="253.427294"/>
     <use style="fill:#0000ff;stroke:#0000ff;" x="77.662921" xlink:href="#m8695a9d616" y="261.916113"/>
     <use style="fill:#0000ff;stroke:#0000ff;" x="81.675506" xlink:href="#m8695a9d616" y="258.655403"/>
     <use style="fill:#0000ff;stroke:#0000ff;" x="85.68809" xlink:href="#m8695a9d616" y="260.062849"/>
     <use style="fill:#0000ff;stroke:#0000ff;" x="89.700674" xlink:href="#m8695a9d616" y="260.207882"/>
     <use style="fill:#0000ff;stroke:#0000ff;" x="93.713258" xlink:href="#m8695a9d616" y="275.342976"/>
     <use style="fill:#0000ff;stroke:#0000ff;" x="97.725843" xlink:href="#m8695a9d616" y="281.446956"/>
     <use style="fill:#0000ff;stroke:#0000ff;" x="101.738427" xlink:href="#m8695a9d616" y="285.376077"/>
     <use style="fill:#0000ff;stroke:#0000ff;" x="105.751011" xlink:href="#m8695a9d616" y="278.376679"/>
     <use style="fill:#0000ff;stroke:#0000ff;" x="109.763596" xlink:href="#m8695a9d616" y="279.623329"/>
     <use style="fill:#0000ff;stroke:#0000ff;" x="113.77618" xlink:href="#m8695a9d616" y="287.543368"/>
     <use style="fill:#0000ff;stroke:#0000ff;" x="117.788764" xlink:href="#m8695a9d616" y="295.26919"/>
     <use style="fill:#0000ff;stroke:#0000ff;" x="121.801348" xlink:href="#m8695a9d616" y="265.666782"/>
     <use style="fill:#0000ff;stroke:#0000ff;" x="125.813933" xlink:href="#m8695a9d616" y="281.981054"/>
     <use style="fill:#0000ff;stroke:#0000ff;" x="129.826517" xlink:href="#m8695a9d616" y="282.826026"/>
     <use style="fill:#0000ff;stroke:#0000ff;" x="133.839101" xlink:href="#m8695a9d616" y="280.906552"/>
     <use style="fill:#0000ff;stroke:#0000ff;" x="137.851685" xlink:href="#m8695a9d616" y="285.103668"/>
     <use style="fill:#0000ff;stroke:#0000ff;" x="141.86427" xlink:href="#m8695a9d616" y="292.394392"/>
     <use style="fill:#0000ff;stroke:#0000ff;" x="145.876854" xlink:href="#m8695a9d616" y="295.260362"/>
     <use style="fill:#0000ff;stroke:#0000ff;" x="149.889438" xlink:href="#m8695a9d616" y="294.849857"/>
     <use style="fill:#0000ff;stroke:#0000ff;" x="153.902022" xlink:href="#m8695a9d616" y="271.227204"/>
     <use style="fill:#0000ff;stroke:#0000ff;" x="157.914607" xlink:href="#m8695a9d616" y="271.82436"/>
     <use style="fill:#0000ff;stroke:#0000ff;" x="161.927191" xlink:href="#m8695a9d616" y="284.774507"/>
     <use style="fill:#0000ff;stroke:#0000ff;" x="165.939775" xlink:href="#m8695a9d616" y="274.815814"/>
     <use style="fill:#0000ff;stroke:#0000ff;" x="169.95236" xlink:href="#m8695a9d616" y="289.407352"/>
     <use style="fill:#0000ff;stroke:#0000ff;" x="173.964944" xlink:href="#m8695a9d616" y="282.995651"/>
     <use style="fill:#0000ff;stroke:#0000ff;" x="177.977528" xlink:href="#m8695a9d616" y="265.196372"/>
     <use style="fill:#0000ff;stroke:#0000ff;" x="181.990112" xlink:href="#m8695a9d616" y="277.445948"/>
     <use style="fill:#0000ff;stroke:#0000ff;" x="186.002697" xlink:href="#m8695a9d616" y="288.947031"/>
     <use style="fill:#0000ff;stroke:#0000ff;" x="190.015281" xlink:href="#m8695a9d616" y="263.624975"/>
     <use style="fill:#0000ff;stroke:#0000ff;" x="194.027865" xlink:href="#m8695a9d616" y="269.11162"/>
     <use style="fill:#0000ff;stroke:#0000ff;" x="198.040449" xlink:href="#m8695a9d616" y="281.092572"/>
     <use style="fill:#0000ff;stroke:#0000ff;" x="202.053034" xlink:href="#m8695a9d616" y="264.988912"/>
     <use style="fill:#0000ff;stroke:#0000ff;" x="206.065618" xlink:href="#m8695a9d616" y="262.082585"/>
     <use style="fill:#0000ff;stroke:#0000ff;" x="210.078202" xlink:href="#m8695a9d616" y="264.535528"/>
     <use style="fill:#0000ff;stroke:#0000ff;" x="214.090787" xlink:href="#m8695a9d616" y="284.5475"/>
     <use style="fill:#0000ff;stroke:#0000ff;" x="218.103371" xlink:href="#m8695a9d616" y="282.27175"/>
     <use style="fill:#0000ff;stroke:#0000ff;" x="222.115955" xlink:href="#m8695a9d616" y="282.058615"/>
     <use style="fill:#0000ff;stroke:#0000ff;" x="226.128539" xlink:href="#m8695a9d616" y="279.321913"/>
     <use style="fill:#0000ff;stroke:#0000ff;" x="230.141124" xlink:href="#m8695a9d616" y="262.145643"/>
     <use style="fill:#0000ff;stroke:#0000ff;" x="234.153708" xlink:href="#m8695a9d616" y="262.115375"/>
     <use style="fill:#0000ff;stroke:#0000ff;" x="238.166292" xlink:href="#m8695a9d616" y="261.379493"/>
     <use style="fill:#0000ff;stroke:#0000ff;" x="242.178876" xlink:href="#m8695a9d616" y="265.914598"/>
     <use style="fill:#0000ff;stroke:#0000ff;" x="246.191461" xlink:href="#m8695a9d616" y="260.410297"/>
     <use style="fill:#0000ff;stroke:#0000ff;" x="250.204045" xlink:href="#m8695a9d616" y="260.554699"/>
     <use style="fill:#0000ff;stroke:#0000ff;" x="254.216629" xlink:href="#m8695a9d616" y="259.597484"/>
     <use style="fill:#0000ff;stroke:#0000ff;" x="258.229213" xlink:href="#m8695a9d616" y="259.540732"/>
     <use style="fill:#0000ff;stroke:#0000ff;" x="262.241798" xlink:href="#m8695a9d616" y="263.358872"/>
     <use style="fill:#0000ff;stroke:#0000ff;" x="266.254382" xlink:href="#m8695a9d616" y="261.552271"/>
     <use style="fill:#0000ff;stroke:#0000ff;" x="270.266966" xlink:href="#m8695a9d616" y="257.730347"/>
     <use style="fill:#0000ff;stroke:#0000ff;" x="274.279551" xlink:href="#m8695a9d616" y="259.085456"/>
     <use style="fill:#0000ff;stroke:#0000ff;" x="278.292135" xlink:href="#m8695a9d616" y="260.086811"/>
     <use style="fill:#0000ff;stroke:#0000ff;" x="282.304719" xlink:href="#m8695a9d616" y="260.734413"/>
     <use style="fill:#0000ff;stroke:#0000ff;" x="286.317303" xlink:href="#m8695a9d616" y="259.103112"/>
     <use style="fill:#0000ff;stroke:#0000ff;" x="290.329888" xlink:href="#m8695a9d616" y="259.325075"/>
     <use style="fill:#0000ff;stroke:#0000ff;" x="294.342472" xlink:href="#m8695a9d616" y="259.322553"/>
     <use style="fill:#0000ff;stroke:#0000ff;" x="298.355056" xlink:href="#m8695a9d616" y="260.219232"/>
     <use style="fill:#0000ff;stroke:#0000ff;" x="302.36764" xlink:href="#m8695a9d616" y="258.264445"/>
     <use style="fill:#0000ff;stroke:#0000ff;" x="306.380225" xlink:href="#m8695a9d616" y="254.656918"/>
     <use style="fill:#0000ff;stroke:#0000ff;" x="310.392809" xlink:href="#m8695a9d616" y="252.326308"/>
     <use style="fill:#0000ff;stroke:#0000ff;" x="314.405393" xlink:href="#m8695a9d616" y="252.214695"/>
     <use style="fill:#0000ff;stroke:#0000ff;" x="318.417978" xlink:href="#m8695a9d616" y="251.350175"/>
     <use style="fill:#0000ff;stroke:#0000ff;" x="322.430562" xlink:href="#m8695a9d616" y="250.710771"/>
     <use style="fill:#0000ff;stroke:#0000ff;" x="326.443146" xlink:href="#m8695a9d616" y="250.64456"/>
     <use style="fill:#0000ff;stroke:#0000ff;" x="330.45573" xlink:href="#m8695a9d616" y="256.295786"/>
     <use style="fill:#0000ff;stroke:#0000ff;" x="334.468315" xlink:href="#m8695a9d616" y="252.453053"/>
     <use style="fill:#0000ff;stroke:#0000ff;" x="338.480899" xlink:href="#m8695a9d616" y="250.850128"/>
     <use style="fill:#0000ff;stroke:#0000ff;" x="342.493483" xlink:href="#m8695a9d616" y="251.899407"/>
     <use style="fill:#0000ff;stroke:#0000ff;" x="346.506067" xlink:href="#m8695a9d616" y="250.253603"/>
     <use style="fill:#0000ff;stroke:#0000ff;" x="350.518652" xlink:href="#m8695a9d616" y="251.239824"/>
     <use style="fill:#0000ff;stroke:#0000ff;" x="354.531236" xlink:href="#m8695a9d616" y="250.321075"/>
     <use style="fill:#0000ff;stroke:#0000ff;" x="358.54382" xlink:href="#m8695a9d616" y="244.645257"/>
     <use style="fill:#0000ff;stroke:#0000ff;" x="362.556404" xlink:href="#m8695a9d616" y="245.746243"/>
     <use style="fill:#0000ff;stroke:#0000ff;" x="366.568989" xlink:href="#m8695a9d616" y="244.902532"/>
     <use style="fill:#0000ff;stroke:#0000ff;" x="370.581573" xlink:href="#m8695a9d616" y="243.217001"/>
     <use style="fill:#0000ff;stroke:#0000ff;" x="374.594157" xlink:href="#m8695a9d616" y="241.53084"/>
     <use style="fill:#0000ff;stroke:#0000ff;" x="378.606742" xlink:href="#m8695a9d616" y="241.369412"/>
     <use style="fill:#0000ff;stroke:#0000ff;" x="382.619326" xlink:href="#m8695a9d616" y="242.317169"/>
     <use style="fill:#0000ff;stroke:#0000ff;" x="386.63191" xlink:href="#m8695a9d616" y="241.151233"/>
     <use style="fill:#0000ff;stroke:#0000ff;" x="390.644494" xlink:href="#m8695a9d616" y="238.305442"/>
     <use style="fill:#0000ff;stroke:#0000ff;" x="394.657079" xlink:href="#m8695a9d616" y="238.800444"/>
     <use style="fill:#0000ff;stroke:#0000ff;" x="398.669663" xlink:href="#m8695a9d616" y="235.637473"/>
     <use style="fill:#0000ff;stroke:#0000ff;" x="402.682247" xlink:href="#m8695a9d616" y="236.291381"/>
     <use style="fill:#0000ff;stroke:#0000ff;" x="406.694831" xlink:href="#m8695a9d616" y="145.483967"/>
     <use style="fill:#0000ff;stroke:#0000ff;" x="410.707416" xlink:href="#m8695a9d616" y="179.305562"/>
    </g>
   </g>
   <g id="line2d_62">
    <path clip-path="url(#p7cf16eec7a)" d="M 61.612584 53.568 
L 65.625169 195.558038 
L 69.637753 209.359463 
L 73.650337 226.690225 
L 77.662921 234.523875 
L 81.675506 241.822166 
L 85.68809 230.578359 
L 89.700674 255.50126 
L 93.713258 254.093813 
L 97.725843 274.329009 
L 101.738427 273.710414 
L 105.751011 287.68777 
L 109.763596 281.443172 
L 113.77618 280.742602 
L 117.788764 272.210903 
L 121.801348 273.453139 
L 125.813933 277.996442 
L 129.826517 275.140561 
L 133.839101 265.680024 
L 137.851685 288.228805 
L 141.86427 294.399625 
L 145.876854 291.169182 
L 149.889438 294.123433 
L 153.902022 283.13627 
L 157.914607 280.14986 
L 161.927191 289.880284 
L 165.939775 280.672608 
L 169.95236 295.488 
L 173.964944 290.643912 
L 177.977528 279.189492 
L 181.990112 284.185549 
L 186.002697 294.091904 
L 190.015281 273.427916 
L 194.027865 272.402599 
L 198.040449 289.911182 
L 202.053034 280.562888 
L 206.065618 274.37315 
L 210.078202 275.865724 
L 214.090787 282.390928 
L 218.103371 283.592176 
L 222.115955 284.171676 
L 226.128539 277.418203 
L 230.141124 260.702254 
L 234.153708 261.954578 
L 238.166292 259.156711 
L 242.178876 265.00846 
L 246.191461 258.939793 
L 250.204045 262.305179 
L 254.216629 258.098604 
L 258.229213 260.12906 
L 262.241798 260.61019 
L 266.254382 259.869893 
L 270.266966 257.159045 
L 274.279551 256.657106 
L 278.292135 260.954484 
L 282.304719 262.994399 
L 286.317303 254.656918 
L 290.329888 255.057334 
L 294.342472 254.964009 
L 298.355056 259.118876 
L 302.36764 254.612147 
L 306.380225 250.188023 
L 310.392809 250.663478 
L 314.405393 247.544647 
L 318.417978 251.671769 
L 322.430562 245.804256 
L 326.443146 247.245123 
L 330.45573 248.923087 
L 334.468315 246.57419 
L 338.480899 246.098105 
L 342.493483 247.792463 
L 346.506067 244.132598 
L 350.518652 247.314486 
L 354.531236 245.831371 
L 358.54382 241.520751 
L 362.556404 243.072599 
L 366.568989 243.35762 
L 370.581573 239.226083 
L 374.594157 238.523621 
L 378.606742 240.18519 
L 382.619326 240.472733 
L 386.63191 239.018623 
L 390.644494 233.96077 
L 394.657079 233.768444 
L 398.669663 233.90591 
L 402.682247 235.875831 
L 406.694831 162.150101 
L 410.707416 187.272264 
" style="fill:none;stroke:#ff0000;stroke-dasharray:1.5,2.475;stroke-dashoffset:0;stroke-width:1.5;"/>
    <defs>
     <path d="M 0 1.5 
C 0.397805 1.5 0.77937 1.341951 1.06066 1.06066 
C 1.341951 0.77937 1.5 0.397805 1.5 0 
C 1.5 -0.397805 1.341951 -0.77937 1.06066 -1.06066 
C 0.77937 -1.341951 0.397805 -1.5 0 -1.5 
C -0.397805 -1.5 -0.77937 -1.341951 -1.06066 -1.06066 
C -1.341951 -0.77937 -1.5 -0.397805 -1.5 0 
C -1.5 0.397805 -1.341951 0.77937 -1.06066 1.06066 
C -0.77937 1.341951 -0.397805 1.5 0 1.5 
z
" id="m0c93ec333d" style="stroke:#ff0000;"/>
    </defs>
    <g clip-path="url(#p7cf16eec7a)">
     <use style="fill:#ff0000;stroke:#ff0000;" x="61.612584" xlink:href="#m0c93ec333d" y="53.568"/>
     <use style="fill:#ff0000;stroke:#ff0000;" x="65.625169" xlink:href="#m0c93ec333d" y="195.558038"/>
     <use style="fill:#ff0000;stroke:#ff0000;" x="69.637753" xlink:href="#m0c93ec333d" y="209.359463"/>
     <use style="fill:#ff0000;stroke:#ff0000;" x="73.650337" xlink:href="#m0c93ec333d" y="226.690225"/>
     <use style="fill:#ff0000;stroke:#ff0000;" x="77.662921" xlink:href="#m0c93ec333d" y="234.523875"/>
     <use style="fill:#ff0000;stroke:#ff0000;" x="81.675506" xlink:href="#m0c93ec333d" y="241.822166"/>
     <use style="fill:#ff0000;stroke:#ff0000;" x="85.68809" xlink:href="#m0c93ec333d" y="230.578359"/>
     <use style="fill:#ff0000;stroke:#ff0000;" x="89.700674" xlink:href="#m0c93ec333d" y="255.50126"/>
     <use style="fill:#ff0000;stroke:#ff0000;" x="93.713258" xlink:href="#m0c93ec333d" y="254.093813"/>
     <use style="fill:#ff0000;stroke:#ff0000;" x="97.725843" xlink:href="#m0c93ec333d" y="274.329009"/>
     <use style="fill:#ff0000;stroke:#ff0000;" x="101.738427" xlink:href="#m0c93ec333d" y="273.710414"/>
     <use style="fill:#ff0000;stroke:#ff0000;" x="105.751011" xlink:href="#m0c93ec333d" y="287.68777"/>
     <use style="fill:#ff0000;stroke:#ff0000;" x="109.763596" xlink:href="#m0c93ec333d" y="281.443172"/>
     <use style="fill:#ff0000;stroke:#ff0000;" x="113.77618" xlink:href="#m0c93ec333d" y="280.742602"/>
     <use style="fill:#ff0000;stroke:#ff0000;" x="117.788764" xlink:href="#m0c93ec333d" y="272.210903"/>
     <use style="fill:#ff0000;stroke:#ff0000;" x="121.801348" xlink:href="#m0c93ec333d" y="273.453139"/>
     <use style="fill:#ff0000;stroke:#ff0000;" x="125.813933" xlink:href="#m0c93ec333d" y="277.996442"/>
     <use style="fill:#ff0000;stroke:#ff0000;" x="129.826517" xlink:href="#m0c93ec333d" y="275.140561"/>
     <use style="fill:#ff0000;stroke:#ff0000;" x="133.839101" xlink:href="#m0c93ec333d" y="265.680024"/>
     <use style="fill:#ff0000;stroke:#ff0000;" x="137.851685" xlink:href="#m0c93ec333d" y="288.228805"/>
     <use style="fill:#ff0000;stroke:#ff0000;" x="141.86427" xlink:href="#m0c93ec333d" y="294.399625"/>
     <use style="fill:#ff0000;stroke:#ff0000;" x="145.876854" xlink:href="#m0c93ec333d" y="291.169182"/>
     <use style="fill:#ff0000;stroke:#ff0000;" x="149.889438" xlink:href="#m0c93ec333d" y="294.123433"/>
     <use style="fill:#ff0000;stroke:#ff0000;" x="153.902022" xlink:href="#m0c93ec333d" y="283.13627"/>
     <use style="fill:#ff0000;stroke:#ff0000;" x="157.914607" xlink:href="#m0c93ec333d" y="280.14986"/>
     <use style="fill:#ff0000;stroke:#ff0000;" x="161.927191" xlink:href="#m0c93ec333d" y="289.880284"/>
     <use style="fill:#ff0000;stroke:#ff0000;" x="165.939775" xlink:href="#m0c93ec333d" y="280.672608"/>
     <use style="fill:#ff0000;stroke:#ff0000;" x="169.95236" xlink:href="#m0c93ec333d" y="295.488"/>
     <use style="fill:#ff0000;stroke:#ff0000;" x="173.964944" xlink:href="#m0c93ec333d" y="290.643912"/>
     <use style="fill:#ff0000;stroke:#ff0000;" x="177.977528" xlink:href="#m0c93ec333d" y="279.189492"/>
     <use style="fill:#ff0000;stroke:#ff0000;" x="181.990112" xlink:href="#m0c93ec333d" y="284.185549"/>
     <use style="fill:#ff0000;stroke:#ff0000;" x="186.002697" xlink:href="#m0c93ec333d" y="294.091904"/>
     <use style="fill:#ff0000;stroke:#ff0000;" x="190.015281" xlink:href="#m0c93ec333d" y="273.427916"/>
     <use style="fill:#ff0000;stroke:#ff0000;" x="194.027865" xlink:href="#m0c93ec333d" y="272.402599"/>
     <use style="fill:#ff0000;stroke:#ff0000;" x="198.040449" xlink:href="#m0c93ec333d" y="289.911182"/>
     <use style="fill:#ff0000;stroke:#ff0000;" x="202.053034" xlink:href="#m0c93ec333d" y="280.562888"/>
     <use style="fill:#ff0000;stroke:#ff0000;" x="206.065618" xlink:href="#m0c93ec333d" y="274.37315"/>
     <use style="fill:#ff0000;stroke:#ff0000;" x="210.078202" xlink:href="#m0c93ec333d" y="275.865724"/>
     <use style="fill:#ff0000;stroke:#ff0000;" x="214.090787" xlink:href="#m0c93ec333d" y="282.390928"/>
     <use style="fill:#ff0000;stroke:#ff0000;" x="218.103371" xlink:href="#m0c93ec333d" y="283.592176"/>
     <use style="fill:#ff0000;stroke:#ff0000;" x="222.115955" xlink:href="#m0c93ec333d" y="284.171676"/>
     <use style="fill:#ff0000;stroke:#ff0000;" x="226.128539" xlink:href="#m0c93ec333d" y="277.418203"/>
     <use style="fill:#ff0000;stroke:#ff0000;" x="230.141124" xlink:href="#m0c93ec333d" y="260.702254"/>
     <use style="fill:#ff0000;stroke:#ff0000;" x="234.153708" xlink:href="#m0c93ec333d" y="261.954578"/>
     <use style="fill:#ff0000;stroke:#ff0000;" x="238.166292" xlink:href="#m0c93ec333d" y="259.156711"/>
     <use style="fill:#ff0000;stroke:#ff0000;" x="242.178876" xlink:href="#m0c93ec333d" y="265.00846"/>
     <use style="fill:#ff0000;stroke:#ff0000;" x="246.191461" xlink:href="#m0c93ec333d" y="258.939793"/>
     <use style="fill:#ff0000;stroke:#ff0000;" x="250.204045" xlink:href="#m0c93ec333d" y="262.305179"/>
     <use style="fill:#ff0000;stroke:#ff0000;" x="254.216629" xlink:href="#m0c93ec333d" y="258.098604"/>
     <use style="fill:#ff0000;stroke:#ff0000;" x="258.229213" xlink:href="#m0c93ec333d" y="260.12906"/>
     <use style="fill:#ff0000;stroke:#ff0000;" x="262.241798" xlink:href="#m0c93ec333d" y="260.61019"/>
     <use style="fill:#ff0000;stroke:#ff0000;" x="266.254382" xlink:href="#m0c93ec333d" y="259.869893"/>
     <use style="fill:#ff0000;stroke:#ff0000;" x="270.266966" xlink:href="#m0c93ec333d" y="257.159045"/>
     <use style="fill:#ff0000;stroke:#ff0000;" x="274.279551" xlink:href="#m0c93ec333d" y="256.657106"/>
     <use style="fill:#ff0000;stroke:#ff0000;" x="278.292135" xlink:href="#m0c93ec333d" y="260.954484"/>
     <use style="fill:#ff0000;stroke:#ff0000;" x="282.304719" xlink:href="#m0c93ec333d" y="262.994399"/>
     <use style="fill:#ff0000;stroke:#ff0000;" x="286.317303" xlink:href="#m0c93ec333d" y="254.656918"/>
     <use style="fill:#ff0000;stroke:#ff0000;" x="290.329888" xlink:href="#m0c93ec333d" y="255.057334"/>
     <use style="fill:#ff0000;stroke:#ff0000;" x="294.342472" xlink:href="#m0c93ec333d" y="254.964009"/>
     <use style="fill:#ff0000;stroke:#ff0000;" x="298.355056" xlink:href="#m0c93ec333d" y="259.118876"/>
     <use style="fill:#ff0000;stroke:#ff0000;" x="302.36764" xlink:href="#m0c93ec333d" y="254.612147"/>
     <use style="fill:#ff0000;stroke:#ff0000;" x="306.380225" xlink:href="#m0c93ec333d" y="250.188023"/>
     <use style="fill:#ff0000;stroke:#ff0000;" x="310.392809" xlink:href="#m0c93ec333d" y="250.663478"/>
     <use style="fill:#ff0000;stroke:#ff0000;" x="314.405393" xlink:href="#m0c93ec333d" y="247.544647"/>
     <use style="fill:#ff0000;stroke:#ff0000;" x="318.417978" xlink:href="#m0c93ec333d" y="251.671769"/>
     <use style="fill:#ff0000;stroke:#ff0000;" x="322.430562" xlink:href="#m0c93ec333d" y="245.804256"/>
     <use style="fill:#ff0000;stroke:#ff0000;" x="326.443146" xlink:href="#m0c93ec333d" y="247.245123"/>
     <use style="fill:#ff0000;stroke:#ff0000;" x="330.45573" xlink:href="#m0c93ec333d" y="248.923087"/>
     <use style="fill:#ff0000;stroke:#ff0000;" x="334.468315" xlink:href="#m0c93ec333d" y="246.57419"/>
     <use style="fill:#ff0000;stroke:#ff0000;" x="338.480899" xlink:href="#m0c93ec333d" y="246.098105"/>
     <use style="fill:#ff0000;stroke:#ff0000;" x="342.493483" xlink:href="#m0c93ec333d" y="247.792463"/>
     <use style="fill:#ff0000;stroke:#ff0000;" x="346.506067" xlink:href="#m0c93ec333d" y="244.132598"/>
     <use style="fill:#ff0000;stroke:#ff0000;" x="350.518652" xlink:href="#m0c93ec333d" y="247.314486"/>
     <use style="fill:#ff0000;stroke:#ff0000;" x="354.531236" xlink:href="#m0c93ec333d" y="245.831371"/>
     <use style="fill:#ff0000;stroke:#ff0000;" x="358.54382" xlink:href="#m0c93ec333d" y="241.520751"/>
     <use style="fill:#ff0000;stroke:#ff0000;" x="362.556404" xlink:href="#m0c93ec333d" y="243.072599"/>
     <use style="fill:#ff0000;stroke:#ff0000;" x="366.568989" xlink:href="#m0c93ec333d" y="243.35762"/>
     <use style="fill:#ff0000;stroke:#ff0000;" x="370.581573" xlink:href="#m0c93ec333d" y="239.226083"/>
     <use style="fill:#ff0000;stroke:#ff0000;" x="374.594157" xlink:href="#m0c93ec333d" y="238.523621"/>
     <use style="fill:#ff0000;stroke:#ff0000;" x="378.606742" xlink:href="#m0c93ec333d" y="240.18519"/>
     <use style="fill:#ff0000;stroke:#ff0000;" x="382.619326" xlink:href="#m0c93ec333d" y="240.472733"/>
     <use style="fill:#ff0000;stroke:#ff0000;" x="386.63191" xlink:href="#m0c93ec333d" y="239.018623"/>
     <use style="fill:#ff0000;stroke:#ff0000;" x="390.644494" xlink:href="#m0c93ec333d" y="233.96077"/>
     <use style="fill:#ff0000;stroke:#ff0000;" x="394.657079" xlink:href="#m0c93ec333d" y="233.768444"/>
     <use style="fill:#ff0000;stroke:#ff0000;" x="398.669663" xlink:href="#m0c93ec333d" y="233.90591"/>
     <use style="fill:#ff0000;stroke:#ff0000;" x="402.682247" xlink:href="#m0c93ec333d" y="235.875831"/>
     <use style="fill:#ff0000;stroke:#ff0000;" x="406.694831" xlink:href="#m0c93ec333d" y="162.150101"/>
     <use style="fill:#ff0000;stroke:#ff0000;" x="410.707416" xlink:href="#m0c93ec333d" y="187.272264"/>
    </g>
   </g>
   <g id="line2d_63">
    <path clip-path="url(#p7cf16eec7a)" d="M 61.612584 69.927358 
L 65.625169 204.087529 
L 69.637753 225.559916 
L 73.650337 240.058759 
L 77.662921 248.219994 
L 81.675506 250.238784 
L 85.68809 245.320604 
L 89.700674 257.854571 
L 93.713258 264.718395 
L 97.725843 277.887982 
L 101.738427 279.543245 
L 105.751011 283.032225 
L 109.763596 280.53325 
L 113.77618 284.142985 
L 117.788764 283.740047 
L 121.801348 269.55996 
L 125.813933 279.988748 
L 129.826517 278.983294 
L 133.839101 273.293288 
L 137.851685 286.666236 
L 141.86427 293.397009 
L 145.876854 293.214772 
L 149.889438 294.486645 
L 153.902022 277.181737 
L 157.914607 275.98711 
L 161.927191 287.327396 
L 165.939775 277.744211 
L 169.95236 292.447676 
L 173.964944 286.819782 
L 177.977528 272.192932 
L 181.990112 280.815749 
L 186.002697 291.519468 
L 190.015281 268.526445 
L 194.027865 270.757109 
L 198.040449 285.501877 
L 202.053034 272.7759 
L 206.065618 268.227868 
L 210.078202 270.200626 
L 214.090787 283.469214 
L 218.103371 282.931963 
L 222.115955 283.115145 
L 226.128539 278.370058 
L 230.141124 261.423948 
L 234.153708 262.034977 
L 238.166292 260.268102 
L 242.178876 265.461529 
L 246.191461 259.675045 
L 250.204045 261.429939 
L 254.216629 258.848044 
L 258.229213 259.834896 
L 262.241798 261.984531 
L 266.254382 260.711082 
L 270.266966 257.444696 
L 274.279551 257.871281 
L 278.292135 260.520648 
L 282.304719 261.864406 
L 286.317303 256.880015 
L 290.329888 257.191204 
L 294.342472 257.143281 
L 298.355056 259.669054 
L 302.36764 256.438296 
L 306.380225 252.42247 
L 310.392809 251.494893 
L 314.405393 249.879671 
L 318.417978 251.510972 
L 322.430562 248.257513 
L 326.443146 248.944842 
L 330.45573 252.609436 
L 334.468315 249.513622 
L 338.480899 248.474116 
L 342.493483 249.845935 
L 346.506067 247.1931 
L 350.518652 249.277155 
L 354.531236 248.076223 
L 358.54382 243.083004 
L 362.556404 244.409421 
L 366.568989 244.130076 
L 370.581573 241.221542 
L 374.594157 240.02723 
L 378.606742 240.777301 
L 382.619326 241.394951 
L 386.63191 240.084928 
L 390.644494 236.133106 
L 394.657079 236.284444 
L 398.669663 234.771691 
L 402.682247 236.083606 
L 406.694831 153.817034 
L 410.707416 183.288913 
" style="fill:none;stroke:#008000;stroke-dasharray:1.5,2.475;stroke-dashoffset:0;stroke-width:1.5;"/>
    <defs>
     <path d="M 0 1.5 
C 0.397805 1.5 0.77937 1.341951 1.06066 1.06066 
C 1.341951 0.77937 1.5 0.397805 1.5 0 
C 1.5 -0.397805 1.341951 -0.77937 1.06066 -1.06066 
C 0.77937 -1.341951 0.397805 -1.5 0 -1.5 
C -0.397805 -1.5 -0.77937 -1.341951 -1.06066 -1.06066 
C -1.341951 -0.77937 -1.5 -0.397805 -1.5 0 
C -1.5 0.397805 -1.341951 0.77937 -1.06066 1.06066 
C -0.77937 1.341951 -0.397805 1.5 0 1.5 
z
" id="m9c004c9aca" style="stroke:#008000;"/>
    </defs>
    <g clip-path="url(#p7cf16eec7a)">
     <use style="fill:#008000;stroke:#008000;" x="61.612584" xlink:href="#m9c004c9aca" y="69.927358"/>
     <use style="fill:#008000;stroke:#008000;" x="65.625169" xlink:href="#m9c004c9aca" y="204.087529"/>
     <use style="fill:#008000;stroke:#008000;" x="69.637753" xlink:href="#m9c004c9aca" y="225.559916"/>
     <use style="fill:#008000;stroke:#008000;" x="73.650337" xlink:href="#m9c004c9aca" y="240.058759"/>
     <use style="fill:#008000;stroke:#008000;" x="77.662921" xlink:href="#m9c004c9aca" y="248.219994"/>
     <use style="fill:#008000;stroke:#008000;" x="81.675506" xlink:href="#m9c004c9aca" y="250.238784"/>
     <use style="fill:#008000;stroke:#008000;" x="85.68809" xlink:href="#m9c004c9aca" y="245.320604"/>
     <use style="fill:#008000;stroke:#008000;" x="89.700674" xlink:href="#m9c004c9aca" y="257.854571"/>
     <use style="fill:#008000;stroke:#008000;" x="93.713258" xlink:href="#m9c004c9aca" y="264.718395"/>
     <use style="fill:#008000;stroke:#008000;" x="97.725843" xlink:href="#m9c004c9aca" y="277.887982"/>
     <use style="fill:#008000;stroke:#008000;" x="101.738427" xlink:href="#m9c004c9aca" y="279.543245"/>
     <use style="fill:#008000;stroke:#008000;" x="105.751011" xlink:href="#m9c004c9aca" y="283.032225"/>
     <use style="fill:#008000;stroke:#008000;" x="109.763596" xlink:href="#m9c004c9aca" y="280.53325"/>
     <use style="fill:#008000;stroke:#008000;" x="113.77618" xlink:href="#m9c004c9aca" y="284.142985"/>
     <use style="fill:#008000;stroke:#008000;" x="117.788764" xlink:href="#m9c004c9aca" y="283.740047"/>
     <use style="fill:#008000;stroke:#008000;" x="121.801348" xlink:href="#m9c004c9aca" y="269.55996"/>
     <use style="fill:#008000;stroke:#008000;" x="125.813933" xlink:href="#m9c004c9aca" y="279.988748"/>
     <use style="fill:#008000;stroke:#008000;" x="129.826517" xlink:href="#m9c004c9aca" y="278.983294"/>
     <use style="fill:#008000;stroke:#008000;" x="133.839101" xlink:href="#m9c004c9aca" y="273.293288"/>
     <use style="fill:#008000;stroke:#008000;" x="137.851685" xlink:href="#m9c004c9aca" y="286.666236"/>
     <use style="fill:#008000;stroke:#008000;" x="141.86427" xlink:href="#m9c004c9aca" y="293.397009"/>
     <use style="fill:#008000;stroke:#008000;" x="145.876854" xlink:href="#m9c004c9aca" y="293.214772"/>
     <use style="fill:#008000;stroke:#008000;" x="149.889438" xlink:href="#m9c004c9aca" y="294.486645"/>
     <use style="fill:#008000;stroke:#008000;" x="153.902022" xlink:href="#m9c004c9aca" y="277.181737"/>
     <use style="fill:#008000;stroke:#008000;" x="157.914607" xlink:href="#m9c004c9aca" y="275.98711"/>
     <use style="fill:#008000;stroke:#008000;" x="161.927191" xlink:href="#m9c004c9aca" y="287.327396"/>
     <use style="fill:#008000;stroke:#008000;" x="165.939775" xlink:href="#m9c004c9aca" y="277.744211"/>
     <use style="fill:#008000;stroke:#008000;" x="169.95236" xlink:href="#m9c004c9aca" y="292.447676"/>
     <use style="fill:#008000;stroke:#008000;" x="173.964944" xlink:href="#m9c004c9aca" y="286.819782"/>
     <use style="fill:#008000;stroke:#008000;" x="177.977528" xlink:href="#m9c004c9aca" y="272.192932"/>
     <use style="fill:#008000;stroke:#008000;" x="181.990112" xlink:href="#m9c004c9aca" y="280.815749"/>
     <use style="fill:#008000;stroke:#008000;" x="186.002697" xlink:href="#m9c004c9aca" y="291.519468"/>
     <use style="fill:#008000;stroke:#008000;" x="190.015281" xlink:href="#m9c004c9aca" y="268.526445"/>
     <use style="fill:#008000;stroke:#008000;" x="194.027865" xlink:href="#m9c004c9aca" y="270.757109"/>
     <use style="fill:#008000;stroke:#008000;" x="198.040449" xlink:href="#m9c004c9aca" y="285.501877"/>
     <use style="fill:#008000;stroke:#008000;" x="202.053034" xlink:href="#m9c004c9aca" y="272.7759"/>
     <use style="fill:#008000;stroke:#008000;" x="206.065618" xlink:href="#m9c004c9aca" y="268.227868"/>
     <use style="fill:#008000;stroke:#008000;" x="210.078202" xlink:href="#m9c004c9aca" y="270.200626"/>
     <use style="fill:#008000;stroke:#008000;" x="214.090787" xlink:href="#m9c004c9aca" y="283.469214"/>
     <use style="fill:#008000;stroke:#008000;" x="218.103371" xlink:href="#m9c004c9aca" y="282.931963"/>
     <use style="fill:#008000;stroke:#008000;" x="222.115955" xlink:href="#m9c004c9aca" y="283.115145"/>
     <use style="fill:#008000;stroke:#008000;" x="226.128539" xlink:href="#m9c004c9aca" y="278.370058"/>
     <use style="fill:#008000;stroke:#008000;" x="230.141124" xlink:href="#m9c004c9aca" y="261.423948"/>
     <use style="fill:#008000;stroke:#008000;" x="234.153708" xlink:href="#m9c004c9aca" y="262.034977"/>
     <use style="fill:#008000;stroke:#008000;" x="238.166292" xlink:href="#m9c004c9aca" y="260.268102"/>
     <use style="fill:#008000;stroke:#008000;" x="242.178876" xlink:href="#m9c004c9aca" y="265.461529"/>
     <use style="fill:#008000;stroke:#008000;" x="246.191461" xlink:href="#m9c004c9aca" y="259.675045"/>
     <use style="fill:#008000;stroke:#008000;" x="250.204045" xlink:href="#m9c004c9aca" y="261.429939"/>
     <use style="fill:#008000;stroke:#008000;" x="254.216629" xlink:href="#m9c004c9aca" y="258.848044"/>
     <use style="fill:#008000;stroke:#008000;" x="258.229213" xlink:href="#m9c004c9aca" y="259.834896"/>
     <use style="fill:#008000;stroke:#008000;" x="262.241798" xlink:href="#m9c004c9aca" y="261.984531"/>
     <use style="fill:#008000;stroke:#008000;" x="266.254382" xlink:href="#m9c004c9aca" y="260.711082"/>
     <use style="fill:#008000;stroke:#008000;" x="270.266966" xlink:href="#m9c004c9aca" y="257.444696"/>
     <use style="fill:#008000;stroke:#008000;" x="274.279551" xlink:href="#m9c004c9aca" y="257.871281"/>
     <use style="fill:#008000;stroke:#008000;" x="278.292135" xlink:href="#m9c004c9aca" y="260.520648"/>
     <use style="fill:#008000;stroke:#008000;" x="282.304719" xlink:href="#m9c004c9aca" y="261.864406"/>
     <use style="fill:#008000;stroke:#008000;" x="286.317303" xlink:href="#m9c004c9aca" y="256.880015"/>
     <use style="fill:#008000;stroke:#008000;" x="290.329888" xlink:href="#m9c004c9aca" y="257.191204"/>
     <use style="fill:#008000;stroke:#008000;" x="294.342472" xlink:href="#m9c004c9aca" y="257.143281"/>
     <use style="fill:#008000;stroke:#008000;" x="298.355056" xlink:href="#m9c004c9aca" y="259.669054"/>
     <use style="fill:#008000;stroke:#008000;" x="302.36764" xlink:href="#m9c004c9aca" y="256.438296"/>
     <use style="fill:#008000;stroke:#008000;" x="306.380225" xlink:href="#m9c004c9aca" y="252.42247"/>
     <use style="fill:#008000;stroke:#008000;" x="310.392809" xlink:href="#m9c004c9aca" y="251.494893"/>
     <use style="fill:#008000;stroke:#008000;" x="314.405393" xlink:href="#m9c004c9aca" y="249.879671"/>
     <use style="fill:#008000;stroke:#008000;" x="318.417978" xlink:href="#m9c004c9aca" y="251.510972"/>
     <use style="fill:#008000;stroke:#008000;" x="322.430562" xlink:href="#m9c004c9aca" y="248.257513"/>
     <use style="fill:#008000;stroke:#008000;" x="326.443146" xlink:href="#m9c004c9aca" y="248.944842"/>
     <use style="fill:#008000;stroke:#008000;" x="330.45573" xlink:href="#m9c004c9aca" y="252.609436"/>
     <use style="fill:#008000;stroke:#008000;" x="334.468315" xlink:href="#m9c004c9aca" y="249.513622"/>
     <use style="fill:#008000;stroke:#008000;" x="338.480899" xlink:href="#m9c004c9aca" y="248.474116"/>
     <use style="fill:#008000;stroke:#008000;" x="342.493483" xlink:href="#m9c004c9aca" y="249.845935"/>
     <use style="fill:#008000;stroke:#008000;" x="346.506067" xlink:href="#m9c004c9aca" y="247.1931"/>
     <use style="fill:#008000;stroke:#008000;" x="350.518652" xlink:href="#m9c004c9aca" y="249.277155"/>
     <use style="fill:#008000;stroke:#008000;" x="354.531236" xlink:href="#m9c004c9aca" y="248.076223"/>
     <use style="fill:#008000;stroke:#008000;" x="358.54382" xlink:href="#m9c004c9aca" y="243.083004"/>
     <use style="fill:#008000;stroke:#008000;" x="362.556404" xlink:href="#m9c004c9aca" y="244.409421"/>
     <use style="fill:#008000;stroke:#008000;" x="366.568989" xlink:href="#m9c004c9aca" y="244.130076"/>
     <use style="fill:#008000;stroke:#008000;" x="370.581573" xlink:href="#m9c004c9aca" y="241.221542"/>
     <use style="fill:#008000;stroke:#008000;" x="374.594157" xlink:href="#m9c004c9aca" y="240.02723"/>
     <use style="fill:#008000;stroke:#008000;" x="378.606742" xlink:href="#m9c004c9aca" y="240.777301"/>
     <use style="fill:#008000;stroke:#008000;" x="382.619326" xlink:href="#m9c004c9aca" y="241.394951"/>
     <use style="fill:#008000;stroke:#008000;" x="386.63191" xlink:href="#m9c004c9aca" y="240.084928"/>
     <use style="fill:#008000;stroke:#008000;" x="390.644494" xlink:href="#m9c004c9aca" y="236.133106"/>
     <use style="fill:#008000;stroke:#008000;" x="394.657079" xlink:href="#m9c004c9aca" y="236.284444"/>
     <use style="fill:#008000;stroke:#008000;" x="398.669663" xlink:href="#m9c004c9aca" y="234.771691"/>
     <use style="fill:#008000;stroke:#008000;" x="402.682247" xlink:href="#m9c004c9aca" y="236.083606"/>
     <use style="fill:#008000;stroke:#008000;" x="406.694831" xlink:href="#m9c004c9aca" y="153.817034"/>
     <use style="fill:#008000;stroke:#008000;" x="410.707416" xlink:href="#m9c004c9aca" y="183.288913"/>
    </g>
   </g>
   <g id="patch_3">
    <path d="M 57.6 307.584 
L 57.6 41.472 
" style="fill:none;stroke:#000000;stroke-linecap:square;stroke-linejoin:miter;stroke-width:0.8;"/>
   </g>
   <g id="patch_4">
    <path d="M 414.72 307.584 
L 414.72 41.472 
" style="fill:none;stroke:#000000;stroke-linecap:square;stroke-linejoin:miter;stroke-width:0.8;"/>
   </g>
   <g id="patch_5">
    <path d="M 57.6 307.584 
L 414.72 307.584 
" style="fill:none;stroke:#000000;stroke-linecap:square;stroke-linejoin:miter;stroke-width:0.8;"/>
   </g>
   <g id="patch_6">
    <path d="M 57.6 41.472 
L 414.72 41.472 
" style="fill:none;stroke:#000000;stroke-linecap:square;stroke-linejoin:miter;stroke-width:0.8;"/>
   </g>
   <g id="text_33">
    <!-- ScanTrans 3PV on rajat21 -->
    <defs>
     <path d="M 53.515625 70.515625 
L 53.515625 60.890625 
Q 47.90625 63.578125 42.921875 64.890625 
Q 37.9375 66.21875 33.296875 66.21875 
Q 25.25 66.21875 20.875 63.09375 
Q 16.5 59.96875 16.5 54.203125 
Q 16.5 49.359375 19.40625 46.890625 
Q 22.3125 44.4375 30.421875 42.921875 
L 36.375 41.703125 
Q 47.40625 39.59375 52.65625 34.296875 
Q 57.90625 29 57.90625 20.125 
Q 57.90625 9.515625 50.796875 4.046875 
Q 43.703125 -1.421875 29.984375 -1.421875 
Q 24.8125 -1.421875 18.96875 -0.25 
Q 13.140625 0.921875 6.890625 3.21875 
L 6.890625 13.375 
Q 12.890625 10.015625 18.65625 8.296875 
Q 24.421875 6.59375 29.984375 6.59375 
Q 38.421875 6.59375 43.015625 9.90625 
Q 47.609375 13.234375 47.609375 19.390625 
Q 47.609375 24.75 44.3125 27.78125 
Q 41.015625 30.8125 33.5 32.328125 
L 27.484375 33.5 
Q 16.453125 35.6875 11.515625 40.375 
Q 6.59375 45.0625 6.59375 53.421875 
Q 6.59375 63.09375 13.40625 68.65625 
Q 20.21875 74.21875 32.171875 74.21875 
Q 37.3125 74.21875 42.625 73.28125 
Q 47.953125 72.359375 53.515625 70.515625 
z
" id="DejaVuSans-83"/>
     <path d="M 48.78125 52.59375 
L 48.78125 44.1875 
Q 44.96875 46.296875 41.140625 47.34375 
Q 37.3125 48.390625 33.40625 48.390625 
Q 24.65625 48.390625 19.8125 42.84375 
Q 14.984375 37.3125 14.984375 27.296875 
Q 14.984375 17.28125 19.8125 11.734375 
Q 24.65625 6.203125 33.40625 6.203125 
Q 37.3125 6.203125 41.140625 7.25 
Q 44.96875 8.296875 48.78125 10.40625 
L 48.78125 2.09375 
Q 45.015625 0.34375 40.984375 -0.53125 
Q 36.96875 -1.421875 32.421875 -1.421875 
Q 20.0625 -1.421875 12.78125 6.34375 
Q 5.515625 14.109375 5.515625 27.296875 
Q 5.515625 40.671875 12.859375 48.328125 
Q 20.21875 56 33.015625 56 
Q 37.15625 56 41.109375 55.140625 
Q 45.0625 54.296875 48.78125 52.59375 
z
" id="DejaVuSans-99"/>
     <path d="M -0.296875 72.90625 
L 61.375 72.90625 
L 61.375 64.59375 
L 35.5 64.59375 
L 35.5 0 
L 25.59375 0 
L 25.59375 64.59375 
L -0.296875 64.59375 
z
" id="DejaVuSans-84"/>
     <path d="M 19.671875 64.796875 
L 19.671875 37.40625 
L 32.078125 37.40625 
Q 38.96875 37.40625 42.71875 40.96875 
Q 46.484375 44.53125 46.484375 51.125 
Q 46.484375 57.671875 42.71875 61.234375 
Q 38.96875 64.796875 32.078125 64.796875 
z
M 9.8125 72.90625 
L 32.078125 72.90625 
Q 44.34375 72.90625 50.609375 67.359375 
Q 56.890625 61.8125 56.890625 51.125 
Q 56.890625 40.328125 50.609375 34.8125 
Q 44.34375 29.296875 32.078125 29.296875 
L 19.671875 29.296875 
L 19.671875 0 
L 9.8125 0 
z
" id="DejaVuSans-80"/>
     <path d="M 28.609375 0 
L 0.78125 72.90625 
L 11.078125 72.90625 
L 34.1875 11.53125 
L 57.328125 72.90625 
L 67.578125 72.90625 
L 39.796875 0 
z
" id="DejaVuSans-86"/>
     <path d="M 9.421875 54.6875 
L 18.40625 54.6875 
L 18.40625 -0.984375 
Q 18.40625 -11.421875 14.421875 -16.109375 
Q 10.453125 -20.796875 1.609375 -20.796875 
L -1.8125 -20.796875 
L -1.8125 -13.1875 
L 0.59375 -13.1875 
Q 5.71875 -13.1875 7.5625 -10.8125 
Q 9.421875 -8.453125 9.421875 -0.984375 
z
M 9.421875 75.984375 
L 18.40625 75.984375 
L 18.40625 64.59375 
L 9.421875 64.59375 
z
" id="DejaVuSans-106"/>
    </defs>
    <g transform="translate(159.512812 35.472)scale(0.12 -0.12)">
     <use xlink:href="#DejaVuSans-83"/>
     <use x="63.476562" xlink:href="#DejaVuSans-99"/>
     <use x="118.457031" xlink:href="#DejaVuSans-97"/>
     <use x="179.736328" xlink:href="#DejaVuSans-110"/>
     <use x="243.115234" xlink:href="#DejaVuSans-84"/>
     <use x="289.449219" xlink:href="#DejaVuSans-114"/>
     <use x="330.5625" xlink:href="#DejaVuSans-97"/>
     <use x="391.841797" xlink:href="#DejaVuSans-110"/>
     <use x="455.220703" xlink:href="#DejaVuSans-115"/>
     <use x="507.320312" xlink:href="#DejaVuSans-32"/>
     <use x="539.107422" xlink:href="#DejaVuSans-51"/>
     <use x="602.730469" xlink:href="#DejaVuSans-80"/>
     <use x="663.033203" xlink:href="#DejaVuSans-86"/>
     <use x="731.441406" xlink:href="#DejaVuSans-32"/>
     <use x="763.228516" xlink:href="#DejaVuSans-111"/>
     <use x="824.410156" xlink:href="#DejaVuSans-110"/>
     <use x="887.789062" xlink:href="#DejaVuSans-32"/>
     <use x="919.576172" xlink:href="#DejaVuSans-114"/>
     <use x="960.689453" xlink:href="#DejaVuSans-97"/>
     <use x="1021.96875" xlink:href="#DejaVuSans-106"/>
     <use x="1049.751953" xlink:href="#DejaVuSans-97"/>
     <use x="1111.03125" xlink:href="#DejaVuSans-116"/>
     <use x="1150.240234" xlink:href="#DejaVuSans-50"/>
     <use x="1213.863281" xlink:href="#DejaVuSans-49"/>
    </g>
   </g>
   <g id="legend_1">
    <g id="patch_7">
     <path d="M 313.152813 93.7845 
L 407.72 93.7845 
Q 409.72 93.7845 409.72 91.7845 
L 409.72 48.472 
Q 409.72 46.472 407.72 46.472 
L 313.152813 46.472 
Q 311.152813 46.472 311.152813 48.472 
L 311.152813 91.7845 
Q 311.152813 93.7845 313.152813 93.7845 
z
" style="fill:#ffffff;opacity:0.8;stroke:#cccccc;stroke-linejoin:miter;"/>
    </g>
    <g id="line2d_64">
     <path d="M 315.152813 54.570438 
L 335.152813 54.570438 
" style="fill:none;stroke:#0000ff;stroke-dasharray:1.5,2.475;stroke-dashoffset:0;stroke-width:1.5;"/>
    </g>
    <g id="line2d_65">
     <g>
      <use style="fill:#0000ff;stroke:#0000ff;" x="325.152813" xlink:href="#m8695a9d616" y="54.570438"/>
     </g>
    </g>
    <g id="text_34">
     <!-- transpose -->
     <defs>
      <path d="M 18.109375 8.203125 
L 18.109375 -20.796875 
L 9.078125 -20.796875 
L 9.078125 54.6875 
L 18.109375 54.6875 
L 18.109375 46.390625 
Q 20.953125 51.265625 25.265625 53.625 
Q 29.59375 56 35.59375 56 
Q 45.5625 56 51.78125 48.09375 
Q 58.015625 40.1875 58.015625 27.296875 
Q 58.015625 14.40625 51.78125 6.484375 
Q 45.5625 -1.421875 35.59375 -1.421875 
Q 29.59375 -1.421875 25.265625 0.953125 
Q 20.953125 3.328125 18.109375 8.203125 
z
M 48.6875 27.296875 
Q 48.6875 37.203125 44.609375 42.84375 
Q 40.53125 48.484375 33.40625 48.484375 
Q 26.265625 48.484375 22.1875 42.84375 
Q 18.109375 37.203125 18.109375 27.296875 
Q 18.109375 17.390625 22.1875 11.75 
Q 26.265625 6.109375 33.40625 6.109375 
Q 40.53125 6.109375 44.609375 11.75 
Q 48.6875 17.390625 48.6875 27.296875 
z
" id="DejaVuSans-112"/>
     </defs>
     <g transform="translate(343.152813 58.070438)scale(0.1 -0.1)">
      <use xlink:href="#DejaVuSans-116"/>
      <use x="39.208984" xlink:href="#DejaVuSans-114"/>
      <use x="80.322266" xlink:href="#DejaVuSans-97"/>
      <use x="141.601562" xlink:href="#DejaVuSans-110"/>
      <use x="204.980469" xlink:href="#DejaVuSans-115"/>
      <use x="257.080078" xlink:href="#DejaVuSans-112"/>
      <use x="320.556641" xlink:href="#DejaVuSans-111"/>
      <use x="381.738281" xlink:href="#DejaVuSans-115"/>
      <use x="433.837891" xlink:href="#DejaVuSans-101"/>
     </g>
    </g>
    <g id="line2d_66">
     <path d="M 315.152813 69.248563 
L 335.152813 69.248563 
" style="fill:none;stroke:#ff0000;stroke-dasharray:1.5,2.475;stroke-dashoffset:0;stroke-width:1.5;"/>
    </g>
    <g id="line2d_67">
     <g>
      <use style="fill:#ff0000;stroke:#ff0000;" x="325.152813" xlink:href="#m0c93ec333d" y="69.248563"/>
     </g>
    </g>
    <g id="text_35">
     <!-- transpose_tr -->
     <defs>
      <path d="M 50.984375 -16.609375 
L 50.984375 -23.578125 
L -0.984375 -23.578125 
L -0.984375 -16.609375 
z
" id="DejaVuSans-95"/>
     </defs>
     <g transform="translate(343.152813 72.748563)scale(0.1 -0.1)">
      <use xlink:href="#DejaVuSans-116"/>
      <use x="39.208984" xlink:href="#DejaVuSans-114"/>
      <use x="80.322266" xlink:href="#DejaVuSans-97"/>
      <use x="141.601562" xlink:href="#DejaVuSans-110"/>
      <use x="204.980469" xlink:href="#DejaVuSans-115"/>
      <use x="257.080078" xlink:href="#DejaVuSans-112"/>
      <use x="320.556641" xlink:href="#DejaVuSans-111"/>
      <use x="381.738281" xlink:href="#DejaVuSans-115"/>
      <use x="433.837891" xlink:href="#DejaVuSans-101"/>
      <use x="495.361328" xlink:href="#DejaVuSans-95"/>
      <use x="545.361328" xlink:href="#DejaVuSans-116"/>
      <use x="584.570312" xlink:href="#DejaVuSans-114"/>
     </g>
    </g>
    <g id="line2d_68">
     <path d="M 315.152813 84.204813 
L 335.152813 84.204813 
" style="fill:none;stroke:#008000;stroke-dasharray:1.5,2.475;stroke-dashoffset:0;stroke-width:1.5;"/>
    </g>
    <g id="line2d_69">
     <g>
      <use style="fill:#008000;stroke:#008000;" x="325.152813" xlink:href="#m9c004c9aca" y="84.204813"/>
     </g>
    </g>
    <g id="text_36">
     <!-- mean -->
     <defs>
      <path d="M 52 44.1875 
Q 55.375 50.25 60.0625 53.125 
Q 64.75 56 71.09375 56 
Q 79.640625 56 84.28125 50.015625 
Q 88.921875 44.046875 88.921875 33.015625 
L 88.921875 0 
L 79.890625 0 
L 79.890625 32.71875 
Q 79.890625 40.578125 77.09375 44.375 
Q 74.3125 48.1875 68.609375 48.1875 
Q 61.625 48.1875 57.5625 43.546875 
Q 53.515625 38.921875 53.515625 30.90625 
L 53.515625 0 
L 44.484375 0 
L 44.484375 32.71875 
Q 44.484375 40.625 41.703125 44.40625 
Q 38.921875 48.1875 33.109375 48.1875 
Q 26.21875 48.1875 22.15625 43.53125 
Q 18.109375 38.875 18.109375 30.90625 
L 18.109375 0 
L 9.078125 0 
L 9.078125 54.6875 
L 18.109375 54.6875 
L 18.109375 46.1875 
Q 21.1875 51.21875 25.484375 53.609375 
Q 29.78125 56 35.6875 56 
Q 41.65625 56 45.828125 52.96875 
Q 50 49.953125 52 44.1875 
z
" id="DejaVuSans-109"/>
     </defs>
     <g transform="translate(343.152813 87.704813)scale(0.1 -0.1)">
      <use xlink:href="#DejaVuSans-109"/>
      <use x="97.412109" xlink:href="#DejaVuSans-101"/>
      <use x="158.935547" xlink:href="#DejaVuSans-97"/>
      <use x="220.214844" xlink:href="#DejaVuSans-110"/>
     </g>
    </g>
   </g>
  </g>
 </g>
 <defs>
  <clipPath id="p7cf16eec7a">
   <rect height="266.112" width="357.12" x="57.6" y="41.472"/>
  </clipPath>
 </defs>
</svg>
