<?xml version="1.0" encoding="utf-8" standalone="no"?>
<!DOCTYPE svg PUBLIC "-//W3C//DTD SVG 1.1//EN"
  "http://www.w3.org/Graphics/SVG/1.1/DTD/svg11.dtd">
<!-- Created with matplotlib (https://matplotlib.org/) -->
<svg height="345.6pt" version="1.1" viewBox="0 0 460.8 345.6" width="460.8pt" xmlns="http://www.w3.org/2000/svg" xmlns:xlink="http://www.w3.org/1999/xlink">
 <defs>
  <style type="text/css">
*{stroke-linecap:butt;stroke-linejoin:round;}
  </style>
 </defs>
 <g id="figure_1">
  <g id="patch_1">
   <path d="M 0 345.6 
L 460.8 345.6 
L 460.8 0 
L 0 0 
z
" style="fill:#ffffff;"/>
  </g>
  <g id="axes_1">
   <g id="patch_2">
    <path d="M 57.6 307.584 
L 414.72 307.584 
L 414.72 41.472 
L 57.6 41.472 
z
" style="fill:#ffffff;"/>
   </g>
   <g id="matplotlib.axis_1">
    <g id="xtick_1">
     <g id="line2d_1">
      <path clip-path="url(#p853ec4ae75)" d="M 61.612584 307.584 
L 61.612584 41.472 
" style="fill:none;stroke:#b0b0b0;stroke-dasharray:5.12,1.28,0.8,1.28;stroke-dashoffset:0;stroke-width:0.8;"/>
     </g>
     <g id="line2d_2">
      <defs>
       <path d="M 0 0 
L 0 3.5 
" id="m5604240cd4" style="stroke:#000000;stroke-width:0.8;"/>
      </defs>
      <g>
       <use style="stroke:#000000;stroke-width:0.8;" x="61.612584" xlink:href="#m5604240cd4" y="307.584"/>
      </g>
     </g>
     <g id="text_1">
      <!-- 1 -->
      <defs>
       <path d="M 12.40625 8.296875 
L 28.515625 8.296875 
L 28.515625 63.921875 
L 10.984375 60.40625 
L 10.984375 69.390625 
L 28.421875 72.90625 
L 38.28125 72.90625 
L 38.28125 8.296875 
L 54.390625 8.296875 
L 54.390625 0 
L 12.40625 0 
z
" id="DejaVuSans-49"/>
      </defs>
      <g transform="translate(58.431334 322.182437)scale(0.1 -0.1)">
       <use xlink:href="#DejaVuSans-49"/>
      </g>
     </g>
    </g>
    <g id="xtick_2">
     <g id="line2d_3">
      <path clip-path="url(#p853ec4ae75)" d="M 73.650337 307.584 
L 73.650337 41.472 
" style="fill:none;stroke:#b0b0b0;stroke-dasharray:5.12,1.28,0.8,1.28;stroke-dashoffset:0;stroke-width:0.8;"/>
     </g>
     <g id="line2d_4">
      <g>
       <use style="stroke:#000000;stroke-width:0.8;" x="73.650337" xlink:href="#m5604240cd4" y="307.584"/>
      </g>
     </g>
     <g id="text_2">
      <!-- 4 -->
      <defs>
       <path d="M 37.796875 64.3125 
L 12.890625 25.390625 
L 37.796875 25.390625 
z
M 35.203125 72.90625 
L 47.609375 72.90625 
L 47.609375 25.390625 
L 58.015625 25.390625 
L 58.015625 17.1875 
L 47.609375 17.1875 
L 47.609375 0 
L 37.796875 0 
L 37.796875 17.1875 
L 4.890625 17.1875 
L 4.890625 26.703125 
z
" id="DejaVuSans-52"/>
      </defs>
      <g transform="translate(70.469087 322.182437)scale(0.1 -0.1)">
       <use xlink:href="#DejaVuSans-52"/>
      </g>
     </g>
    </g>
    <g id="xtick_3">
     <g id="line2d_5">
      <path clip-path="url(#p853ec4ae75)" d="M 89.700674 307.584 
L 89.700674 41.472 
" style="fill:none;stroke:#b0b0b0;stroke-dasharray:5.12,1.28,0.8,1.28;stroke-dashoffset:0;stroke-width:0.8;"/>
     </g>
     <g id="line2d_6">
      <g>
       <use style="stroke:#000000;stroke-width:0.8;" x="89.700674" xlink:href="#m5604240cd4" y="307.584"/>
      </g>
     </g>
     <g id="text_3">
      <!-- 8 -->
      <defs>
       <path d="M 31.78125 34.625 
Q 24.75 34.625 20.71875 30.859375 
Q 16.703125 27.09375 16.703125 20.515625 
Q 16.703125 13.921875 20.71875 10.15625 
Q 24.75 6.390625 31.78125 6.390625 
Q 38.8125 6.390625 42.859375 10.171875 
Q 46.921875 13.96875 46.921875 20.515625 
Q 46.921875 27.09375 42.890625 30.859375 
Q 38.875 34.625 31.78125 34.625 
z
M 21.921875 38.8125 
Q 15.578125 40.375 12.03125 44.71875 
Q 8.5 49.078125 8.5 55.328125 
Q 8.5 64.0625 14.71875 69.140625 
Q 20.953125 74.21875 31.78125 74.21875 
Q 42.671875 74.21875 48.875 69.140625 
Q 55.078125 64.0625 55.078125 55.328125 
Q 55.078125 49.078125 51.53125 44.71875 
Q 48 40.375 41.703125 38.8125 
Q 48.828125 37.15625 52.796875 32.3125 
Q 56.78125 27.484375 56.78125 20.515625 
Q 56.78125 9.90625 50.3125 4.234375 
Q 43.84375 -1.421875 31.78125 -1.421875 
Q 19.734375 -1.421875 13.25 4.234375 
Q 6.78125 9.90625 6.78125 20.515625 
Q 6.78125 27.484375 10.78125 32.3125 
Q 14.796875 37.15625 21.921875 38.8125 
z
M 18.3125 54.390625 
Q 18.3125 48.734375 21.84375 45.5625 
Q 25.390625 42.390625 31.78125 42.390625 
Q 38.140625 42.390625 41.71875 45.5625 
Q 45.3125 48.734375 45.3125 54.390625 
Q 45.3125 60.0625 41.71875 63.234375 
Q 38.140625 66.40625 31.78125 66.40625 
Q 25.390625 66.40625 21.84375 63.234375 
Q 18.3125 60.0625 18.3125 54.390625 
z
" id="DejaVuSans-56"/>
      </defs>
      <g transform="translate(86.519424 322.182437)scale(0.1 -0.1)">
       <use xlink:href="#DejaVuSans-56"/>
      </g>
     </g>
    </g>
    <g id="xtick_4">
     <g id="line2d_7">
      <path clip-path="url(#p853ec4ae75)" d="M 105.751011 307.584 
L 105.751011 41.472 
" style="fill:none;stroke:#b0b0b0;stroke-dasharray:5.12,1.28,0.8,1.28;stroke-dashoffset:0;stroke-width:0.8;"/>
     </g>
     <g id="line2d_8">
      <g>
       <use style="stroke:#000000;stroke-width:0.8;" x="105.751011" xlink:href="#m5604240cd4" y="307.584"/>
      </g>
     </g>
     <g id="text_4">
      <!-- 12 -->
      <defs>
       <path d="M 19.1875 8.296875 
L 53.609375 8.296875 
L 53.609375 0 
L 7.328125 0 
L 7.328125 8.296875 
Q 12.9375 14.109375 22.625 23.890625 
Q 32.328125 33.6875 34.8125 36.53125 
Q 39.546875 41.84375 41.421875 45.53125 
Q 43.3125 49.21875 43.3125 52.78125 
Q 43.3125 58.59375 39.234375 62.25 
Q 35.15625 65.921875 28.609375 65.921875 
Q 23.96875 65.921875 18.8125 64.3125 
Q 13.671875 62.703125 7.8125 59.421875 
L 7.8125 69.390625 
Q 13.765625 71.78125 18.9375 73 
Q 24.125 74.21875 28.421875 74.21875 
Q 39.75 74.21875 46.484375 68.546875 
Q 53.21875 62.890625 53.21875 53.421875 
Q 53.21875 48.921875 51.53125 44.890625 
Q 49.859375 40.875 45.40625 35.40625 
Q 44.1875 33.984375 37.640625 27.21875 
Q 31.109375 20.453125 19.1875 8.296875 
z
" id="DejaVuSans-50"/>
      </defs>
      <g transform="translate(99.388511 322.182437)scale(0.1 -0.1)">
       <use xlink:href="#DejaVuSans-49"/>
       <use x="63.623047" xlink:href="#DejaVuSans-50"/>
      </g>
     </g>
    </g>
    <g id="xtick_5">
     <g id="line2d_9">
      <path clip-path="url(#p853ec4ae75)" d="M 121.801348 307.584 
L 121.801348 41.472 
" style="fill:none;stroke:#b0b0b0;stroke-dasharray:5.12,1.28,0.8,1.28;stroke-dashoffset:0;stroke-width:0.8;"/>
     </g>
     <g id="line2d_10">
      <g>
       <use style="stroke:#000000;stroke-width:0.8;" x="121.801348" xlink:href="#m5604240cd4" y="307.584"/>
      </g>
     </g>
     <g id="text_5">
      <!-- 16 -->
      <defs>
       <path d="M 33.015625 40.375 
Q 26.375 40.375 22.484375 35.828125 
Q 18.609375 31.296875 18.609375 23.390625 
Q 18.609375 15.53125 22.484375 10.953125 
Q 26.375 6.390625 33.015625 6.390625 
Q 39.65625 6.390625 43.53125 10.953125 
Q 47.40625 15.53125 47.40625 23.390625 
Q 47.40625 31.296875 43.53125 35.828125 
Q 39.65625 40.375 33.015625 40.375 
z
M 52.59375 71.296875 
L 52.59375 62.3125 
Q 48.875 64.0625 45.09375 64.984375 
Q 41.3125 65.921875 37.59375 65.921875 
Q 27.828125 65.921875 22.671875 59.328125 
Q 17.53125 52.734375 16.796875 39.40625 
Q 19.671875 43.65625 24.015625 45.921875 
Q 28.375 48.1875 33.59375 48.1875 
Q 44.578125 48.1875 50.953125 41.515625 
Q 57.328125 34.859375 57.328125 23.390625 
Q 57.328125 12.15625 50.6875 5.359375 
Q 44.046875 -1.421875 33.015625 -1.421875 
Q 20.359375 -1.421875 13.671875 8.265625 
Q 6.984375 17.96875 6.984375 36.375 
Q 6.984375 53.65625 15.1875 63.9375 
Q 23.390625 74.21875 37.203125 74.21875 
Q 40.921875 74.21875 44.703125 73.484375 
Q 48.484375 72.75 52.59375 71.296875 
z
" id="DejaVuSans-54"/>
      </defs>
      <g transform="translate(115.438848 322.182437)scale(0.1 -0.1)">
       <use xlink:href="#DejaVuSans-49"/>
       <use x="63.623047" xlink:href="#DejaVuSans-54"/>
      </g>
     </g>
    </g>
    <g id="xtick_6">
     <g id="line2d_11">
      <path clip-path="url(#p853ec4ae75)" d="M 137.851685 307.584 
L 137.851685 41.472 
" style="fill:none;stroke:#b0b0b0;stroke-dasharray:5.12,1.28,0.8,1.28;stroke-dashoffset:0;stroke-width:0.8;"/>
     </g>
     <g id="line2d_12">
      <g>
       <use style="stroke:#000000;stroke-width:0.8;" x="137.851685" xlink:href="#m5604240cd4" y="307.584"/>
      </g>
     </g>
     <g id="text_6">
      <!-- 20 -->
      <defs>
       <path d="M 31.78125 66.40625 
Q 24.171875 66.40625 20.328125 58.90625 
Q 16.5 51.421875 16.5 36.375 
Q 16.5 21.390625 20.328125 13.890625 
Q 24.171875 6.390625 31.78125 6.390625 
Q 39.453125 6.390625 43.28125 13.890625 
Q 47.125 21.390625 47.125 36.375 
Q 47.125 51.421875 43.28125 58.90625 
Q 39.453125 66.40625 31.78125 66.40625 
z
M 31.78125 74.21875 
Q 44.046875 74.21875 50.515625 64.515625 
Q 56.984375 54.828125 56.984375 36.375 
Q 56.984375 17.96875 50.515625 8.265625 
Q 44.046875 -1.421875 31.78125 -1.421875 
Q 19.53125 -1.421875 13.0625 8.265625 
Q 6.59375 17.96875 6.59375 36.375 
Q 6.59375 54.828125 13.0625 64.515625 
Q 19.53125 74.21875 31.78125 74.21875 
z
" id="DejaVuSans-48"/>
      </defs>
      <g transform="translate(131.489185 322.182437)scale(0.1 -0.1)">
       <use xlink:href="#DejaVuSans-50"/>
       <use x="63.623047" xlink:href="#DejaVuSans-48"/>
      </g>
     </g>
    </g>
    <g id="xtick_7">
     <g id="line2d_13">
      <path clip-path="url(#p853ec4ae75)" d="M 153.902022 307.584 
L 153.902022 41.472 
" style="fill:none;stroke:#b0b0b0;stroke-dasharray:5.12,1.28,0.8,1.28;stroke-dashoffset:0;stroke-width:0.8;"/>
     </g>
     <g id="line2d_14">
      <g>
       <use style="stroke:#000000;stroke-width:0.8;" x="153.902022" xlink:href="#m5604240cd4" y="307.584"/>
      </g>
     </g>
     <g id="text_7">
      <!-- 24 -->
      <g transform="translate(147.539522 322.182437)scale(0.1 -0.1)">
       <use xlink:href="#DejaVuSans-50"/>
       <use x="63.623047" xlink:href="#DejaVuSans-52"/>
      </g>
     </g>
    </g>
    <g id="xtick_8">
     <g id="line2d_15">
      <path clip-path="url(#p853ec4ae75)" d="M 169.95236 307.584 
L 169.95236 41.472 
" style="fill:none;stroke:#b0b0b0;stroke-dasharray:5.12,1.28,0.8,1.28;stroke-dashoffset:0;stroke-width:0.8;"/>
     </g>
     <g id="line2d_16">
      <g>
       <use style="stroke:#000000;stroke-width:0.8;" x="169.95236" xlink:href="#m5604240cd4" y="307.584"/>
      </g>
     </g>
     <g id="text_8">
      <!-- 28 -->
      <g transform="translate(163.58986 322.182437)scale(0.1 -0.1)">
       <use xlink:href="#DejaVuSans-50"/>
       <use x="63.623047" xlink:href="#DejaVuSans-56"/>
      </g>
     </g>
    </g>
    <g id="xtick_9">
     <g id="line2d_17">
      <path clip-path="url(#p853ec4ae75)" d="M 186.002697 307.584 
L 186.002697 41.472 
" style="fill:none;stroke:#b0b0b0;stroke-dasharray:5.12,1.28,0.8,1.28;stroke-dashoffset:0;stroke-width:0.8;"/>
     </g>
     <g id="line2d_18">
      <g>
       <use style="stroke:#000000;stroke-width:0.8;" x="186.002697" xlink:href="#m5604240cd4" y="307.584"/>
      </g>
     </g>
     <g id="text_9">
      <!-- 32 -->
      <defs>
       <path d="M 40.578125 39.3125 
Q 47.65625 37.796875 51.625 33 
Q 55.609375 28.21875 55.609375 21.1875 
Q 55.609375 10.40625 48.1875 4.484375 
Q 40.765625 -1.421875 27.09375 -1.421875 
Q 22.515625 -1.421875 17.65625 -0.515625 
Q 12.796875 0.390625 7.625 2.203125 
L 7.625 11.71875 
Q 11.71875 9.328125 16.59375 8.109375 
Q 21.484375 6.890625 26.8125 6.890625 
Q 36.078125 6.890625 40.9375 10.546875 
Q 45.796875 14.203125 45.796875 21.1875 
Q 45.796875 27.640625 41.28125 31.265625 
Q 36.765625 34.90625 28.71875 34.90625 
L 20.21875 34.90625 
L 20.21875 43.015625 
L 29.109375 43.015625 
Q 36.375 43.015625 40.234375 45.921875 
Q 44.09375 48.828125 44.09375 54.296875 
Q 44.09375 59.90625 40.109375 62.90625 
Q 36.140625 65.921875 28.71875 65.921875 
Q 24.65625 65.921875 20.015625 65.03125 
Q 15.375 64.15625 9.8125 62.3125 
L 9.8125 71.09375 
Q 15.4375 72.65625 20.34375 73.4375 
Q 25.25 74.21875 29.59375 74.21875 
Q 40.828125 74.21875 47.359375 69.109375 
Q 53.90625 64.015625 53.90625 55.328125 
Q 53.90625 49.265625 50.4375 45.09375 
Q 46.96875 40.921875 40.578125 39.3125 
z
" id="DejaVuSans-51"/>
      </defs>
      <g transform="translate(179.640197 322.182437)scale(0.1 -0.1)">
       <use xlink:href="#DejaVuSans-51"/>
       <use x="63.623047" xlink:href="#DejaVuSans-50"/>
      </g>
     </g>
    </g>
    <g id="xtick_10">
     <g id="line2d_19">
      <path clip-path="url(#p853ec4ae75)" d="M 202.053034 307.584 
L 202.053034 41.472 
" style="fill:none;stroke:#b0b0b0;stroke-dasharray:5.12,1.28,0.8,1.28;stroke-dashoffset:0;stroke-width:0.8;"/>
     </g>
     <g id="line2d_20">
      <g>
       <use style="stroke:#000000;stroke-width:0.8;" x="202.053034" xlink:href="#m5604240cd4" y="307.584"/>
      </g>
     </g>
     <g id="text_10">
      <!-- 36 -->
      <g transform="translate(195.690534 322.182437)scale(0.1 -0.1)">
       <use xlink:href="#DejaVuSans-51"/>
       <use x="63.623047" xlink:href="#DejaVuSans-54"/>
      </g>
     </g>
    </g>
    <g id="xtick_11">
     <g id="line2d_21">
      <path clip-path="url(#p853ec4ae75)" d="M 218.103371 307.584 
L 218.103371 41.472 
" style="fill:none;stroke:#b0b0b0;stroke-dasharray:5.12,1.28,0.8,1.28;stroke-dashoffset:0;stroke-width:0.8;"/>
     </g>
     <g id="line2d_22">
      <g>
       <use style="stroke:#000000;stroke-width:0.8;" x="218.103371" xlink:href="#m5604240cd4" y="307.584"/>
      </g>
     </g>
     <g id="text_11">
      <!-- 40 -->
      <g transform="translate(211.740871 322.182437)scale(0.1 -0.1)">
       <use xlink:href="#DejaVuSans-52"/>
       <use x="63.623047" xlink:href="#DejaVuSans-48"/>
      </g>
     </g>
    </g>
    <g id="xtick_12">
     <g id="line2d_23">
      <path clip-path="url(#p853ec4ae75)" d="M 234.153708 307.584 
L 234.153708 41.472 
" style="fill:none;stroke:#b0b0b0;stroke-dasharray:5.12,1.28,0.8,1.28;stroke-dashoffset:0;stroke-width:0.8;"/>
     </g>
     <g id="line2d_24">
      <g>
       <use style="stroke:#000000;stroke-width:0.8;" x="234.153708" xlink:href="#m5604240cd4" y="307.584"/>
      </g>
     </g>
     <g id="text_12">
      <!-- 44 -->
      <g transform="translate(227.791208 322.182437)scale(0.1 -0.1)">
       <use xlink:href="#DejaVuSans-52"/>
       <use x="63.623047" xlink:href="#DejaVuSans-52"/>
      </g>
     </g>
    </g>
    <g id="xtick_13">
     <g id="line2d_25">
      <path clip-path="url(#p853ec4ae75)" d="M 250.204045 307.584 
L 250.204045 41.472 
" style="fill:none;stroke:#b0b0b0;stroke-dasharray:5.12,1.28,0.8,1.28;stroke-dashoffset:0;stroke-width:0.8;"/>
     </g>
     <g id="line2d_26">
      <g>
       <use style="stroke:#000000;stroke-width:0.8;" x="250.204045" xlink:href="#m5604240cd4" y="307.584"/>
      </g>
     </g>
     <g id="text_13">
      <!-- 48 -->
      <g transform="translate(243.841545 322.182437)scale(0.1 -0.1)">
       <use xlink:href="#DejaVuSans-52"/>
       <use x="63.623047" xlink:href="#DejaVuSans-56"/>
      </g>
     </g>
    </g>
    <g id="xtick_14">
     <g id="line2d_27">
      <path clip-path="url(#p853ec4ae75)" d="M 266.254382 307.584 
L 266.254382 41.472 
" style="fill:none;stroke:#b0b0b0;stroke-dasharray:5.12,1.28,0.8,1.28;stroke-dashoffset:0;stroke-width:0.8;"/>
     </g>
     <g id="line2d_28">
      <g>
       <use style="stroke:#000000;stroke-width:0.8;" x="266.254382" xlink:href="#m5604240cd4" y="307.584"/>
      </g>
     </g>
     <g id="text_14">
      <!-- 52 -->
      <defs>
       <path d="M 10.796875 72.90625 
L 49.515625 72.90625 
L 49.515625 64.59375 
L 19.828125 64.59375 
L 19.828125 46.734375 
Q 21.96875 47.46875 24.109375 47.828125 
Q 26.265625 48.1875 28.421875 48.1875 
Q 40.625 48.1875 47.75 41.5 
Q 54.890625 34.8125 54.890625 23.390625 
Q 54.890625 11.625 47.5625 5.09375 
Q 40.234375 -1.421875 26.90625 -1.421875 
Q 22.3125 -1.421875 17.546875 -0.640625 
Q 12.796875 0.140625 7.71875 1.703125 
L 7.71875 11.625 
Q 12.109375 9.234375 16.796875 8.0625 
Q 21.484375 6.890625 26.703125 6.890625 
Q 35.15625 6.890625 40.078125 11.328125 
Q 45.015625 15.765625 45.015625 23.390625 
Q 45.015625 31 40.078125 35.4375 
Q 35.15625 39.890625 26.703125 39.890625 
Q 22.75 39.890625 18.8125 39.015625 
Q 14.890625 38.140625 10.796875 36.28125 
z
" id="DejaVuSans-53"/>
      </defs>
      <g transform="translate(259.891882 322.182437)scale(0.1 -0.1)">
       <use xlink:href="#DejaVuSans-53"/>
       <use x="63.623047" xlink:href="#DejaVuSans-50"/>
      </g>
     </g>
    </g>
    <g id="xtick_15">
     <g id="line2d_29">
      <path clip-path="url(#p853ec4ae75)" d="M 282.304719 307.584 
L 282.304719 41.472 
" style="fill:none;stroke:#b0b0b0;stroke-dasharray:5.12,1.28,0.8,1.28;stroke-dashoffset:0;stroke-width:0.8;"/>
     </g>
     <g id="line2d_30">
      <g>
       <use style="stroke:#000000;stroke-width:0.8;" x="282.304719" xlink:href="#m5604240cd4" y="307.584"/>
      </g>
     </g>
     <g id="text_15">
      <!-- 56 -->
      <g transform="translate(275.942219 322.182437)scale(0.1 -0.1)">
       <use xlink:href="#DejaVuSans-53"/>
       <use x="63.623047" xlink:href="#DejaVuSans-54"/>
      </g>
     </g>
    </g>
    <g id="xtick_16">
     <g id="line2d_31">
      <path clip-path="url(#p853ec4ae75)" d="M 298.355056 307.584 
L 298.355056 41.472 
" style="fill:none;stroke:#b0b0b0;stroke-dasharray:5.12,1.28,0.8,1.28;stroke-dashoffset:0;stroke-width:0.8;"/>
     </g>
     <g id="line2d_32">
      <g>
       <use style="stroke:#000000;stroke-width:0.8;" x="298.355056" xlink:href="#m5604240cd4" y="307.584"/>
      </g>
     </g>
     <g id="text_16">
      <!-- 60 -->
      <g transform="translate(291.992556 322.182437)scale(0.1 -0.1)">
       <use xlink:href="#DejaVuSans-54"/>
       <use x="63.623047" xlink:href="#DejaVuSans-48"/>
      </g>
     </g>
    </g>
    <g id="xtick_17">
     <g id="line2d_33">
      <path clip-path="url(#p853ec4ae75)" d="M 314.405393 307.584 
L 314.405393 41.472 
" style="fill:none;stroke:#b0b0b0;stroke-dasharray:5.12,1.28,0.8,1.28;stroke-dashoffset:0;stroke-width:0.8;"/>
     </g>
     <g id="line2d_34">
      <g>
       <use style="stroke:#000000;stroke-width:0.8;" x="314.405393" xlink:href="#m5604240cd4" y="307.584"/>
      </g>
     </g>
     <g id="text_17">
      <!-- 64 -->
      <g transform="translate(308.042893 322.182437)scale(0.1 -0.1)">
       <use xlink:href="#DejaVuSans-54"/>
       <use x="63.623047" xlink:href="#DejaVuSans-52"/>
      </g>
     </g>
    </g>
    <g id="xtick_18">
     <g id="line2d_35">
      <path clip-path="url(#p853ec4ae75)" d="M 330.45573 307.584 
L 330.45573 41.472 
" style="fill:none;stroke:#b0b0b0;stroke-dasharray:5.12,1.28,0.8,1.28;stroke-dashoffset:0;stroke-width:0.8;"/>
     </g>
     <g id="line2d_36">
      <g>
       <use style="stroke:#000000;stroke-width:0.8;" x="330.45573" xlink:href="#m5604240cd4" y="307.584"/>
      </g>
     </g>
     <g id="text_18">
      <!-- 68 -->
      <g transform="translate(324.09323 322.182437)scale(0.1 -0.1)">
       <use xlink:href="#DejaVuSans-54"/>
       <use x="63.623047" xlink:href="#DejaVuSans-56"/>
      </g>
     </g>
    </g>
    <g id="xtick_19">
     <g id="line2d_37">
      <path clip-path="url(#p853ec4ae75)" d="M 346.506067 307.584 
L 346.506067 41.472 
" style="fill:none;stroke:#b0b0b0;stroke-dasharray:5.12,1.28,0.8,1.28;stroke-dashoffset:0;stroke-width:0.8;"/>
     </g>
     <g id="line2d_38">
      <g>
       <use style="stroke:#000000;stroke-width:0.8;" x="346.506067" xlink:href="#m5604240cd4" y="307.584"/>
      </g>
     </g>
     <g id="text_19">
      <!-- 72 -->
      <defs>
       <path d="M 8.203125 72.90625 
L 55.078125 72.90625 
L 55.078125 68.703125 
L 28.609375 0 
L 18.3125 0 
L 43.21875 64.59375 
L 8.203125 64.59375 
z
" id="DejaVuSans-55"/>
      </defs>
      <g transform="translate(340.143567 322.182437)scale(0.1 -0.1)">
       <use xlink:href="#DejaVuSans-55"/>
       <use x="63.623047" xlink:href="#DejaVuSans-50"/>
      </g>
     </g>
    </g>
    <g id="xtick_20">
     <g id="line2d_39">
      <path clip-path="url(#p853ec4ae75)" d="M 362.556404 307.584 
L 362.556404 41.472 
" style="fill:none;stroke:#b0b0b0;stroke-dasharray:5.12,1.28,0.8,1.28;stroke-dashoffset:0;stroke-width:0.8;"/>
     </g>
     <g id="line2d_40">
      <g>
       <use style="stroke:#000000;stroke-width:0.8;" x="362.556404" xlink:href="#m5604240cd4" y="307.584"/>
      </g>
     </g>
     <g id="text_20">
      <!-- 76 -->
      <g transform="translate(356.193904 322.182437)scale(0.1 -0.1)">
       <use xlink:href="#DejaVuSans-55"/>
       <use x="63.623047" xlink:href="#DejaVuSans-54"/>
      </g>
     </g>
    </g>
    <g id="xtick_21">
     <g id="line2d_41">
      <path clip-path="url(#p853ec4ae75)" d="M 378.606742 307.584 
L 378.606742 41.472 
" style="fill:none;stroke:#b0b0b0;stroke-dasharray:5.12,1.28,0.8,1.28;stroke-dashoffset:0;stroke-width:0.8;"/>
     </g>
     <g id="line2d_42">
      <g>
       <use style="stroke:#000000;stroke-width:0.8;" x="378.606742" xlink:href="#m5604240cd4" y="307.584"/>
      </g>
     </g>
     <g id="text_21">
      <!-- 80 -->
      <g transform="translate(372.244242 322.182437)scale(0.1 -0.1)">
       <use xlink:href="#DejaVuSans-56"/>
       <use x="63.623047" xlink:href="#DejaVuSans-48"/>
      </g>
     </g>
    </g>
    <g id="xtick_22">
     <g id="line2d_43">
      <path clip-path="url(#p853ec4ae75)" d="M 394.657079 307.584 
L 394.657079 41.472 
" style="fill:none;stroke:#b0b0b0;stroke-dasharray:5.12,1.28,0.8,1.28;stroke-dashoffset:0;stroke-width:0.8;"/>
     </g>
     <g id="line2d_44">
      <g>
       <use style="stroke:#000000;stroke-width:0.8;" x="394.657079" xlink:href="#m5604240cd4" y="307.584"/>
      </g>
     </g>
     <g id="text_22">
      <!-- 84 -->
      <g transform="translate(388.294579 322.182437)scale(0.1 -0.1)">
       <use xlink:href="#DejaVuSans-56"/>
       <use x="63.623047" xlink:href="#DejaVuSans-52"/>
      </g>
     </g>
    </g>
    <g id="xtick_23">
     <g id="line2d_45">
      <path clip-path="url(#p853ec4ae75)" d="M 410.707416 307.584 
L 410.707416 41.472 
" style="fill:none;stroke:#b0b0b0;stroke-dasharray:5.12,1.28,0.8,1.28;stroke-dashoffset:0;stroke-width:0.8;"/>
     </g>
     <g id="line2d_46">
      <g>
       <use style="stroke:#000000;stroke-width:0.8;" x="410.707416" xlink:href="#m5604240cd4" y="307.584"/>
      </g>
     </g>
     <g id="text_23">
      <!-- 88 -->
      <g transform="translate(404.344916 322.182437)scale(0.1 -0.1)">
       <use xlink:href="#DejaVuSans-56"/>
       <use x="63.623047" xlink:href="#DejaVuSans-56"/>
      </g>
     </g>
    </g>
    <g id="text_24">
     <!-- threads -->
     <defs>
      <path d="M 18.3125 70.21875 
L 18.3125 54.6875 
L 36.8125 54.6875 
L 36.8125 47.703125 
L 18.3125 47.703125 
L 18.3125 18.015625 
Q 18.3125 11.328125 20.140625 9.421875 
Q 21.96875 7.515625 27.59375 7.515625 
L 36.8125 7.515625 
L 36.8125 0 
L 27.59375 0 
Q 17.1875 0 13.234375 3.875 
Q 9.28125 7.765625 9.28125 18.015625 
L 9.28125 47.703125 
L 2.6875 47.703125 
L 2.6875 54.6875 
L 9.28125 54.6875 
L 9.28125 70.21875 
z
" id="DejaVuSans-116"/>
      <path d="M 54.890625 33.015625 
L 54.890625 0 
L 45.90625 0 
L 45.90625 32.71875 
Q 45.90625 40.484375 42.875 44.328125 
Q 39.84375 48.1875 33.796875 48.1875 
Q 26.515625 48.1875 22.3125 43.546875 
Q 18.109375 38.921875 18.109375 30.90625 
L 18.109375 0 
L 9.078125 0 
L 9.078125 75.984375 
L 18.109375 75.984375 
L 18.109375 46.1875 
Q 21.34375 51.125 25.703125 53.5625 
Q 30.078125 56 35.796875 56 
Q 45.21875 56 50.046875 50.171875 
Q 54.890625 44.34375 54.890625 33.015625 
z
" id="DejaVuSans-104"/>
      <path d="M 41.109375 46.296875 
Q 39.59375 47.171875 37.8125 47.578125 
Q 36.03125 48 33.890625 48 
Q 26.265625 48 22.1875 43.046875 
Q 18.109375 38.09375 18.109375 28.8125 
L 18.109375 0 
L 9.078125 0 
L 9.078125 54.6875 
L 18.109375 54.6875 
L 18.109375 46.1875 
Q 20.953125 51.171875 25.484375 53.578125 
Q 30.03125 56 36.53125 56 
Q 37.453125 56 38.578125 55.875 
Q 39.703125 55.765625 41.0625 55.515625 
z
" id="DejaVuSans-114"/>
      <path d="M 56.203125 29.59375 
L 56.203125 25.203125 
L 14.890625 25.203125 
Q 15.484375 15.921875 20.484375 11.0625 
Q 25.484375 6.203125 34.421875 6.203125 
Q 39.59375 6.203125 44.453125 7.46875 
Q 49.3125 8.734375 54.109375 11.28125 
L 54.109375 2.78125 
Q 49.265625 0.734375 44.1875 -0.34375 
Q 39.109375 -1.421875 33.890625 -1.421875 
Q 20.796875 -1.421875 13.15625 6.1875 
Q 5.515625 13.8125 5.515625 26.8125 
Q 5.515625 40.234375 12.765625 48.109375 
Q 20.015625 56 32.328125 56 
Q 43.359375 56 49.78125 48.890625 
Q 56.203125 41.796875 56.203125 29.59375 
z
M 47.21875 32.234375 
Q 47.125 39.59375 43.09375 43.984375 
Q 39.0625 48.390625 32.421875 48.390625 
Q 24.90625 48.390625 20.390625 44.140625 
Q 15.875 39.890625 15.1875 32.171875 
z
" id="DejaVuSans-101"/>
      <path d="M 34.28125 27.484375 
Q 23.390625 27.484375 19.1875 25 
Q 14.984375 22.515625 14.984375 16.5 
Q 14.984375 11.71875 18.140625 8.90625 
Q 21.296875 6.109375 26.703125 6.109375 
Q 34.1875 6.109375 38.703125 11.40625 
Q 43.21875 16.703125 43.21875 25.484375 
L 43.21875 27.484375 
z
M 52.203125 31.203125 
L 52.203125 0 
L 43.21875 0 
L 43.21875 8.296875 
Q 40.140625 3.328125 35.546875 0.953125 
Q 30.953125 -1.421875 24.3125 -1.421875 
Q 15.921875 -1.421875 10.953125 3.296875 
Q 6 8.015625 6 15.921875 
Q 6 25.140625 12.171875 29.828125 
Q 18.359375 34.515625 30.609375 34.515625 
L 43.21875 34.515625 
L 43.21875 35.40625 
Q 43.21875 41.609375 39.140625 45 
Q 35.0625 48.390625 27.6875 48.390625 
Q 23 48.390625 18.546875 47.265625 
Q 14.109375 46.140625 10.015625 43.890625 
L 10.015625 52.203125 
Q 14.9375 54.109375 19.578125 55.046875 
Q 24.21875 56 28.609375 56 
Q 40.484375 56 46.34375 49.84375 
Q 52.203125 43.703125 52.203125 31.203125 
z
" id="DejaVuSans-97"/>
      <path d="M 45.40625 46.390625 
L 45.40625 75.984375 
L 54.390625 75.984375 
L 54.390625 0 
L 45.40625 0 
L 45.40625 8.203125 
Q 42.578125 3.328125 38.25 0.953125 
Q 33.9375 -1.421875 27.875 -1.421875 
Q 17.96875 -1.421875 11.734375 6.484375 
Q 5.515625 14.40625 5.515625 27.296875 
Q 5.515625 40.1875 11.734375 48.09375 
Q 17.96875 56 27.875 56 
Q 33.9375 56 38.25 53.625 
Q 42.578125 51.265625 45.40625 46.390625 
z
M 14.796875 27.296875 
Q 14.796875 17.390625 18.875 11.75 
Q 22.953125 6.109375 30.078125 6.109375 
Q 37.203125 6.109375 41.296875 11.75 
Q 45.40625 17.390625 45.40625 27.296875 
Q 45.40625 37.203125 41.296875 42.84375 
Q 37.203125 48.484375 30.078125 48.484375 
Q 22.953125 48.484375 18.875 42.84375 
Q 14.796875 37.203125 14.796875 27.296875 
z
" id="DejaVuSans-100"/>
      <path d="M 44.28125 53.078125 
L 44.28125 44.578125 
Q 40.484375 46.53125 36.375 47.5 
Q 32.28125 48.484375 27.875 48.484375 
Q 21.1875 48.484375 17.84375 46.4375 
Q 14.5 44.390625 14.5 40.28125 
Q 14.5 37.15625 16.890625 35.375 
Q 19.28125 33.59375 26.515625 31.984375 
L 29.59375 31.296875 
Q 39.15625 29.25 43.1875 25.515625 
Q 47.21875 21.78125 47.21875 15.09375 
Q 47.21875 7.46875 41.1875 3.015625 
Q 35.15625 -1.421875 24.609375 -1.421875 
Q 20.21875 -1.421875 15.453125 -0.5625 
Q 10.6875 0.296875 5.421875 2 
L 5.421875 11.28125 
Q 10.40625 8.6875 15.234375 7.390625 
Q 20.0625 6.109375 24.8125 6.109375 
Q 31.15625 6.109375 34.5625 8.28125 
Q 37.984375 10.453125 37.984375 14.40625 
Q 37.984375 18.0625 35.515625 20.015625 
Q 33.0625 21.96875 24.703125 23.78125 
L 21.578125 24.515625 
Q 13.234375 26.265625 9.515625 29.90625 
Q 5.8125 33.546875 5.8125 39.890625 
Q 5.8125 47.609375 11.28125 51.796875 
Q 16.75 56 26.8125 56 
Q 31.78125 56 36.171875 55.265625 
Q 40.578125 54.546875 44.28125 53.078125 
z
" id="DejaVuSans-115"/>
     </defs>
     <g transform="translate(217.168594 335.860562)scale(0.1 -0.1)">
      <use xlink:href="#DejaVuSans-116"/>
      <use x="39.208984" xlink:href="#DejaVuSans-104"/>
      <use x="102.587891" xlink:href="#DejaVuSans-114"/>
      <use x="141.451172" xlink:href="#DejaVuSans-101"/>
      <use x="202.974609" xlink:href="#DejaVuSans-97"/>
      <use x="264.253906" xlink:href="#DejaVuSans-100"/>
      <use x="327.730469" xlink:href="#DejaVuSans-115"/>
     </g>
    </g>
   </g>
   <g id="matplotlib.axis_2">
    <g id="ytick_1">
     <g id="line2d_47">
      <path clip-path="url(#p853ec4ae75)" d="M 57.6 305.392172 
L 414.72 305.392172 
" style="fill:none;stroke:#b0b0b0;stroke-dasharray:5.12,1.28,0.8,1.28;stroke-dashoffset:0;stroke-width:0.8;"/>
     </g>
     <g id="line2d_48">
      <defs>
       <path d="M 0 0 
L -3.5 0 
" id="m09c8510439" style="stroke:#000000;stroke-width:0.8;"/>
      </defs>
      <g>
       <use style="stroke:#000000;stroke-width:0.8;" x="57.6" xlink:href="#m09c8510439" y="305.392172"/>
      </g>
     </g>
     <g id="text_25">
      <!-- 0.05 -->
      <defs>
       <path d="M 10.6875 12.40625 
L 21 12.40625 
L 21 0 
L 10.6875 0 
z
" id="DejaVuSans-46"/>
      </defs>
      <g transform="translate(28.334375 309.191391)scale(0.1 -0.1)">
       <use xlink:href="#DejaVuSans-48"/>
       <use x="63.623047" xlink:href="#DejaVuSans-46"/>
       <use x="95.410156" xlink:href="#DejaVuSans-48"/>
       <use x="159.033203" xlink:href="#DejaVuSans-53"/>
      </g>
     </g>
    </g>
    <g id="ytick_2">
     <g id="line2d_49">
      <path clip-path="url(#p853ec4ae75)" d="M 57.6 266.10774 
L 414.72 266.10774 
" style="fill:none;stroke:#b0b0b0;stroke-dasharray:5.12,1.28,0.8,1.28;stroke-dashoffset:0;stroke-width:0.8;"/>
     </g>
     <g id="line2d_50">
      <g>
       <use style="stroke:#000000;stroke-width:0.8;" x="57.6" xlink:href="#m09c8510439" y="266.10774"/>
      </g>
     </g>
     <g id="text_26">
      <!-- 0.10 -->
      <g transform="translate(28.334375 269.906959)scale(0.1 -0.1)">
       <use xlink:href="#DejaVuSans-48"/>
       <use x="63.623047" xlink:href="#DejaVuSans-46"/>
       <use x="95.410156" xlink:href="#DejaVuSans-49"/>
       <use x="159.033203" xlink:href="#DejaVuSans-48"/>
      </g>
     </g>
    </g>
    <g id="ytick_3">
     <g id="line2d_51">
      <path clip-path="url(#p853ec4ae75)" d="M 57.6 226.823307 
L 414.72 226.823307 
" style="fill:none;stroke:#b0b0b0;stroke-dasharray:5.12,1.28,0.8,1.28;stroke-dashoffset:0;stroke-width:0.8;"/>
     </g>
     <g id="line2d_52">
      <g>
       <use style="stroke:#000000;stroke-width:0.8;" x="57.6" xlink:href="#m09c8510439" y="226.823307"/>
      </g>
     </g>
     <g id="text_27">
      <!-- 0.15 -->
      <g transform="translate(28.334375 230.622526)scale(0.1 -0.1)">
       <use xlink:href="#DejaVuSans-48"/>
       <use x="63.623047" xlink:href="#DejaVuSans-46"/>
       <use x="95.410156" xlink:href="#DejaVuSans-49"/>
       <use x="159.033203" xlink:href="#DejaVuSans-53"/>
      </g>
     </g>
    </g>
    <g id="ytick_4">
     <g id="line2d_53">
      <path clip-path="url(#p853ec4ae75)" d="M 57.6 187.538875 
L 414.72 187.538875 
" style="fill:none;stroke:#b0b0b0;stroke-dasharray:5.12,1.28,0.8,1.28;stroke-dashoffset:0;stroke-width:0.8;"/>
     </g>
     <g id="line2d_54">
      <g>
       <use style="stroke:#000000;stroke-width:0.8;" x="57.6" xlink:href="#m09c8510439" y="187.538875"/>
      </g>
     </g>
     <g id="text_28">
      <!-- 0.20 -->
      <g transform="translate(28.334375 191.338094)scale(0.1 -0.1)">
       <use xlink:href="#DejaVuSans-48"/>
       <use x="63.623047" xlink:href="#DejaVuSans-46"/>
       <use x="95.410156" xlink:href="#DejaVuSans-50"/>
       <use x="159.033203" xlink:href="#DejaVuSans-48"/>
      </g>
     </g>
    </g>
    <g id="ytick_5">
     <g id="line2d_55">
      <path clip-path="url(#p853ec4ae75)" d="M 57.6 148.254443 
L 414.72 148.254443 
" style="fill:none;stroke:#b0b0b0;stroke-dasharray:5.12,1.28,0.8,1.28;stroke-dashoffset:0;stroke-width:0.8;"/>
     </g>
     <g id="line2d_56">
      <g>
       <use style="stroke:#000000;stroke-width:0.8;" x="57.6" xlink:href="#m09c8510439" y="148.254443"/>
      </g>
     </g>
     <g id="text_29">
      <!-- 0.25 -->
      <g transform="translate(28.334375 152.053661)scale(0.1 -0.1)">
       <use xlink:href="#DejaVuSans-48"/>
       <use x="63.623047" xlink:href="#DejaVuSans-46"/>
       <use x="95.410156" xlink:href="#DejaVuSans-50"/>
       <use x="159.033203" xlink:href="#DejaVuSans-53"/>
      </g>
     </g>
    </g>
    <g id="ytick_6">
     <g id="line2d_57">
      <path clip-path="url(#p853ec4ae75)" d="M 57.6 108.97001 
L 414.72 108.97001 
" style="fill:none;stroke:#b0b0b0;stroke-dasharray:5.12,1.28,0.8,1.28;stroke-dashoffset:0;stroke-width:0.8;"/>
     </g>
     <g id="line2d_58">
      <g>
       <use style="stroke:#000000;stroke-width:0.8;" x="57.6" xlink:href="#m09c8510439" y="108.97001"/>
      </g>
     </g>
     <g id="text_30">
      <!-- 0.30 -->
      <g transform="translate(28.334375 112.769229)scale(0.1 -0.1)">
       <use xlink:href="#DejaVuSans-48"/>
       <use x="63.623047" xlink:href="#DejaVuSans-46"/>
       <use x="95.410156" xlink:href="#DejaVuSans-51"/>
       <use x="159.033203" xlink:href="#DejaVuSans-48"/>
      </g>
     </g>
    </g>
    <g id="ytick_7">
     <g id="line2d_59">
      <path clip-path="url(#p853ec4ae75)" d="M 57.6 69.685578 
L 414.72 69.685578 
" style="fill:none;stroke:#b0b0b0;stroke-dasharray:5.12,1.28,0.8,1.28;stroke-dashoffset:0;stroke-width:0.8;"/>
     </g>
     <g id="line2d_60">
      <g>
       <use style="stroke:#000000;stroke-width:0.8;" x="57.6" xlink:href="#m09c8510439" y="69.685578"/>
      </g>
     </g>
     <g id="text_31">
      <!-- 0.35 -->
      <g transform="translate(28.334375 73.484796)scale(0.1 -0.1)">
       <use xlink:href="#DejaVuSans-48"/>
       <use x="63.623047" xlink:href="#DejaVuSans-46"/>
       <use x="95.410156" xlink:href="#DejaVuSans-51"/>
       <use x="159.033203" xlink:href="#DejaVuSans-53"/>
      </g>
     </g>
    </g>
    <g id="text_32">
     <!-- duration (s) -->
     <defs>
      <path d="M 8.5 21.578125 
L 8.5 54.6875 
L 17.484375 54.6875 
L 17.484375 21.921875 
Q 17.484375 14.15625 20.5 10.265625 
Q 23.53125 6.390625 29.59375 6.390625 
Q 36.859375 6.390625 41.078125 11.03125 
Q 45.3125 15.671875 45.3125 23.6875 
L 45.3125 54.6875 
L 54.296875 54.6875 
L 54.296875 0 
L 45.3125 0 
L 45.3125 8.40625 
Q 42.046875 3.421875 37.71875 1 
Q 33.40625 -1.421875 27.6875 -1.421875 
Q 18.265625 -1.421875 13.375 4.4375 
Q 8.5 10.296875 8.5 21.578125 
z
M 31.109375 56 
z
" id="DejaVuSans-117"/>
      <path d="M 9.421875 54.6875 
L 18.40625 54.6875 
L 18.40625 0 
L 9.421875 0 
z
M 9.421875 75.984375 
L 18.40625 75.984375 
L 18.40625 64.59375 
L 9.421875 64.59375 
z
" id="DejaVuSans-105"/>
      <path d="M 30.609375 48.390625 
Q 23.390625 48.390625 19.1875 42.75 
Q 14.984375 37.109375 14.984375 27.296875 
Q 14.984375 17.484375 19.15625 11.84375 
Q 23.34375 6.203125 30.609375 6.203125 
Q 37.796875 6.203125 41.984375 11.859375 
Q 46.1875 17.53125 46.1875 27.296875 
Q 46.1875 37.015625 41.984375 42.703125 
Q 37.796875 48.390625 30.609375 48.390625 
z
M 30.609375 56 
Q 42.328125 56 49.015625 48.375 
Q 55.71875 40.765625 55.71875 27.296875 
Q 55.71875 13.875 49.015625 6.21875 
Q 42.328125 -1.421875 30.609375 -1.421875 
Q 18.84375 -1.421875 12.171875 6.21875 
Q 5.515625 13.875 5.515625 27.296875 
Q 5.515625 40.765625 12.171875 48.375 
Q 18.84375 56 30.609375 56 
z
" id="DejaVuSans-111"/>
      <path d="M 54.890625 33.015625 
L 54.890625 0 
L 45.90625 0 
L 45.90625 32.71875 
Q 45.90625 40.484375 42.875 44.328125 
Q 39.84375 48.1875 33.796875 48.1875 
Q 26.515625 48.1875 22.3125 43.546875 
Q 18.109375 38.921875 18.109375 30.90625 
L 18.109375 0 
L 9.078125 0 
L 9.078125 54.6875 
L 18.109375 54.6875 
L 18.109375 46.1875 
Q 21.34375 51.125 25.703125 53.5625 
Q 30.078125 56 35.796875 56 
Q 45.21875 56 50.046875 50.171875 
Q 54.890625 44.34375 54.890625 33.015625 
z
" id="DejaVuSans-110"/>
      <path id="DejaVuSans-32"/>
      <path d="M 31 75.875 
Q 24.46875 64.65625 21.28125 53.65625 
Q 18.109375 42.671875 18.109375 31.390625 
Q 18.109375 20.125 21.3125 9.0625 
Q 24.515625 -2 31 -13.1875 
L 23.1875 -13.1875 
Q 15.875 -1.703125 12.234375 9.375 
Q 8.59375 20.453125 8.59375 31.390625 
Q 8.59375 42.28125 12.203125 53.3125 
Q 15.828125 64.359375 23.1875 75.875 
z
" id="DejaVuSans-40"/>
      <path d="M 8.015625 75.875 
L 15.828125 75.875 
Q 23.140625 64.359375 26.78125 53.3125 
Q 30.421875 42.28125 30.421875 31.390625 
Q 30.421875 20.453125 26.78125 9.375 
Q 23.140625 -1.703125 15.828125 -13.1875 
L 8.015625 -13.1875 
Q 14.5 -2 17.703125 9.0625 
Q 20.90625 20.125 20.90625 31.390625 
Q 20.90625 42.671875 17.703125 53.65625 
Q 14.5 64.65625 8.015625 75.875 
z
" id="DejaVuSans-41"/>
     </defs>
     <g transform="translate(22.254687 203.663156)rotate(-90)scale(0.1 -0.1)">
      <use xlink:href="#DejaVuSans-100"/>
      <use x="63.476562" xlink:href="#DejaVuSans-117"/>
      <use x="126.855469" xlink:href="#DejaVuSans-114"/>
      <use x="167.96875" xlink:href="#DejaVuSans-97"/>
      <use x="229.248047" xlink:href="#DejaVuSans-116"/>
      <use x="268.457031" xlink:href="#DejaVuSans-105"/>
      <use x="296.240234" xlink:href="#DejaVuSans-111"/>
      <use x="357.421875" xlink:href="#DejaVuSans-110"/>
      <use x="420.800781" xlink:href="#DejaVuSans-32"/>
      <use x="452.587891" xlink:href="#DejaVuSans-40"/>
      <use x="491.601562" xlink:href="#DejaVuSans-115"/>
      <use x="543.701172" xlink:href="#DejaVuSans-41"/>
     </g>
    </g>
   </g>
   <g id="line2d_61">
    <path clip-path="url(#p853ec4ae75)" d="M 61.612584 53.568 
L 65.625169 175.481754 
L 69.637753 213.954479 
L 73.650337 232.428866 
L 77.662921 244.453303 
L 81.675506 253.699126 
L 85.68809 258.782504 
L 89.700674 262.93074 
L 93.713258 267.579663 
L 97.725843 270.177161 
L 101.738427 272.814157 
L 105.751011 273.328198 
L 109.763596 275.188286 
L 113.77618 274.998047 
L 117.788764 276.476237 
L 121.801348 276.262047 
L 125.813933 276.487236 
L 129.826517 277.781823 
L 133.839101 277.7788 
L 137.851685 277.186458 
L 141.86427 278.425652 
L 145.876854 277.303214 
L 149.889438 277.164622 
L 153.902022 278.828182 
L 157.914607 276.290226 
L 161.927191 276.569283 
L 165.939775 277.280521 
L 169.95236 273.931457 
L 173.964944 277.933956 
L 177.977528 273.611376 
L 181.990112 275.34933 
L 186.002697 274.229836 
L 190.015281 273.105525 
L 194.027865 275.075732 
L 198.040449 271.457004 
L 202.053034 271.712619 
L 206.065618 273.056366 
L 210.078202 271.077167 
L 214.090787 271.107326 
L 218.103371 271.310303 
L 222.115955 269.632105 
L 226.128539 268.142568 
L 230.141124 269.459822 
L 234.153708 270.812774 
L 238.166292 271.861541 
L 242.178876 269.368596 
L 246.191461 271.077756 
L 250.204045 271.917229 
L 254.216629 271.365617 
L 258.229213 269.634113 
L 262.241798 267.630642 
L 266.254382 270.226882 
L 270.266966 269.770055 
L 274.279551 269.938405 
L 278.292135 271.69295 
L 282.304719 269.374938 
L 286.317303 272.147395 
L 290.329888 269.985771 
L 294.342472 269.810116 
L 298.355056 270.902127 
L 302.36764 269.868293 
L 306.380225 268.323816 
L 310.392809 270.217971 
L 314.405393 269.542913 
L 318.417978 271.187634 
L 322.430562 269.26308 
L 326.443146 269.927647 
L 330.45573 270.478804 
L 334.468315 270.25102 
L 338.480899 270.075793 
L 342.493483 269.503709 
L 346.506067 270.116656 
L 350.518652 268.77398 
L 354.531236 270.402992 
L 358.54382 269.723037 
L 362.556404 270.061637 
L 366.568989 268.723162 
L 370.581573 269.448502 
L 374.594157 268.942972 
L 378.606742 268.11356 
L 382.619326 268.191861 
L 386.63191 269.039229 
L 390.644494 268.410681 
L 394.657079 265.835769 
L 398.669663 267.838865 
L 402.682247 267.425604 
L 406.694831 267.487206 
L 410.707416 267.994289 
" style="fill:none;stroke:#0000ff;stroke-dasharray:1.5,2.475;stroke-dashoffset:0;stroke-width:1.5;"/>
    <defs>
     <path d="M 0 1.5 
C 0.397805 1.5 0.77937 1.341951 1.06066 1.06066 
C 1.341951 0.77937 1.5 0.397805 1.5 0 
C 1.5 -0.397805 1.341951 -0.77937 1.06066 -1.06066 
C 0.77937 -1.341951 0.397805 -1.5 0 -1.5 
C -0.397805 -1.5 -0.77937 -1.341951 -1.06066 -1.06066 
C -1.341951 -0.77937 -1.5 -0.397805 -1.5 0 
C -1.5 0.397805 -1.341951 0.77937 -1.06066 1.06066 
C -0.77937 1.341951 -0.397805 1.5 0 1.5 
z
" id="mc21c084610" style="stroke:#0000ff;"/>
    </defs>
    <g clip-path="url(#p853ec4ae75)">
     <use style="fill:#0000ff;stroke:#0000ff;" x="61.612584" xlink:href="#mc21c084610" y="53.568"/>
     <use style="fill:#0000ff;stroke:#0000ff;" x="65.625169" xlink:href="#mc21c084610" y="175.481754"/>
     <use style="fill:#0000ff;stroke:#0000ff;" x="69.637753" xlink:href="#mc21c084610" y="213.954479"/>
     <use style="fill:#0000ff;stroke:#0000ff;" x="73.650337" xlink:href="#mc21c084610" y="232.428866"/>
     <use style="fill:#0000ff;stroke:#0000ff;" x="77.662921" xlink:href="#mc21c084610" y="244.453303"/>
     <use style="fill:#0000ff;stroke:#0000ff;" x="81.675506" xlink:href="#mc21c084610" y="253.699126"/>
     <use style="fill:#0000ff;stroke:#0000ff;" x="85.68809" xlink:href="#mc21c084610" y="258.782504"/>
     <use style="fill:#0000ff;stroke:#0000ff;" x="89.700674" xlink:href="#mc21c084610" y="262.93074"/>
     <use style="fill:#0000ff;stroke:#0000ff;" x="93.713258" xlink:href="#mc21c084610" y="267.579663"/>
     <use style="fill:#0000ff;stroke:#0000ff;" x="97.725843" xlink:href="#mc21c084610" y="270.177161"/>
     <use style="fill:#0000ff;stroke:#0000ff;" x="101.738427" xlink:href="#mc21c084610" y="272.814157"/>
     <use style="fill:#0000ff;stroke:#0000ff;" x="105.751011" xlink:href="#mc21c084610" y="273.328198"/>
     <use style="fill:#0000ff;stroke:#0000ff;" x="109.763596" xlink:href="#mc21c084610" y="275.188286"/>
     <use style="fill:#0000ff;stroke:#0000ff;" x="113.77618" xlink:href="#mc21c084610" y="274.998047"/>
     <use style="fill:#0000ff;stroke:#0000ff;" x="117.788764" xlink:href="#mc21c084610" y="276.476237"/>
     <use style="fill:#0000ff;stroke:#0000ff;" x="121.801348" xlink:href="#mc21c084610" y="276.262047"/>
     <use style="fill:#0000ff;stroke:#0000ff;" x="125.813933" xlink:href="#mc21c084610" y="276.487236"/>
     <use style="fill:#0000ff;stroke:#0000ff;" x="129.826517" xlink:href="#mc21c084610" y="277.781823"/>
     <use style="fill:#0000ff;stroke:#0000ff;" x="133.839101" xlink:href="#mc21c084610" y="277.7788"/>
     <use style="fill:#0000ff;stroke:#0000ff;" x="137.851685" xlink:href="#mc21c084610" y="277.186458"/>
     <use style="fill:#0000ff;stroke:#0000ff;" x="141.86427" xlink:href="#mc21c084610" y="278.425652"/>
     <use style="fill:#0000ff;stroke:#0000ff;" x="145.876854" xlink:href="#mc21c084610" y="277.303214"/>
     <use style="fill:#0000ff;stroke:#0000ff;" x="149.889438" xlink:href="#mc21c084610" y="277.164622"/>
     <use style="fill:#0000ff;stroke:#0000ff;" x="153.902022" xlink:href="#mc21c084610" y="278.828182"/>
     <use style="fill:#0000ff;stroke:#0000ff;" x="157.914607" xlink:href="#mc21c084610" y="276.290226"/>
     <use style="fill:#0000ff;stroke:#0000ff;" x="161.927191" xlink:href="#mc21c084610" y="276.569283"/>
     <use style="fill:#0000ff;stroke:#0000ff;" x="165.939775" xlink:href="#mc21c084610" y="277.280521"/>
     <use style="fill:#0000ff;stroke:#0000ff;" x="169.95236" xlink:href="#mc21c084610" y="273.931457"/>
     <use style="fill:#0000ff;stroke:#0000ff;" x="173.964944" xlink:href="#mc21c084610" y="277.933956"/>
     <use style="fill:#0000ff;stroke:#0000ff;" x="177.977528" xlink:href="#mc21c084610" y="273.611376"/>
     <use style="fill:#0000ff;stroke:#0000ff;" x="181.990112" xlink:href="#mc21c084610" y="275.34933"/>
     <use style="fill:#0000ff;stroke:#0000ff;" x="186.002697" xlink:href="#mc21c084610" y="274.229836"/>
     <use style="fill:#0000ff;stroke:#0000ff;" x="190.015281" xlink:href="#mc21c084610" y="273.105525"/>
     <use style="fill:#0000ff;stroke:#0000ff;" x="194.027865" xlink:href="#mc21c084610" y="275.075732"/>
     <use style="fill:#0000ff;stroke:#0000ff;" x="198.040449" xlink:href="#mc21c084610" y="271.457004"/>
     <use style="fill:#0000ff;stroke:#0000ff;" x="202.053034" xlink:href="#mc21c084610" y="271.712619"/>
     <use style="fill:#0000ff;stroke:#0000ff;" x="206.065618" xlink:href="#mc21c084610" y="273.056366"/>
     <use style="fill:#0000ff;stroke:#0000ff;" x="210.078202" xlink:href="#mc21c084610" y="271.077167"/>
     <use style="fill:#0000ff;stroke:#0000ff;" x="214.090787" xlink:href="#mc21c084610" y="271.107326"/>
     <use style="fill:#0000ff;stroke:#0000ff;" x="218.103371" xlink:href="#mc21c084610" y="271.310303"/>
     <use style="fill:#0000ff;stroke:#0000ff;" x="222.115955" xlink:href="#mc21c084610" y="269.632105"/>
     <use style="fill:#0000ff;stroke:#0000ff;" x="226.128539" xlink:href="#mc21c084610" y="268.142568"/>
     <use style="fill:#0000ff;stroke:#0000ff;" x="230.141124" xlink:href="#mc21c084610" y="269.459822"/>
     <use style="fill:#0000ff;stroke:#0000ff;" x="234.153708" xlink:href="#mc21c084610" y="270.812774"/>
     <use style="fill:#0000ff;stroke:#0000ff;" x="238.166292" xlink:href="#mc21c084610" y="271.861541"/>
     <use style="fill:#0000ff;stroke:#0000ff;" x="242.178876" xlink:href="#mc21c084610" y="269.368596"/>
     <use style="fill:#0000ff;stroke:#0000ff;" x="246.191461" xlink:href="#mc21c084610" y="271.077756"/>
     <use style="fill:#0000ff;stroke:#0000ff;" x="250.204045" xlink:href="#mc21c084610" y="271.917229"/>
     <use style="fill:#0000ff;stroke:#0000ff;" x="254.216629" xlink:href="#mc21c084610" y="271.365617"/>
     <use style="fill:#0000ff;stroke:#0000ff;" x="258.229213" xlink:href="#mc21c084610" y="269.634113"/>
     <use style="fill:#0000ff;stroke:#0000ff;" x="262.241798" xlink:href="#mc21c084610" y="267.630642"/>
     <use style="fill:#0000ff;stroke:#0000ff;" x="266.254382" xlink:href="#mc21c084610" y="270.226882"/>
     <use style="fill:#0000ff;stroke:#0000ff;" x="270.266966" xlink:href="#mc21c084610" y="269.770055"/>
     <use style="fill:#0000ff;stroke:#0000ff;" x="274.279551" xlink:href="#mc21c084610" y="269.938405"/>
     <use style="fill:#0000ff;stroke:#0000ff;" x="278.292135" xlink:href="#mc21c084610" y="271.69295"/>
     <use style="fill:#0000ff;stroke:#0000ff;" x="282.304719" xlink:href="#mc21c084610" y="269.374938"/>
     <use style="fill:#0000ff;stroke:#0000ff;" x="286.317303" xlink:href="#mc21c084610" y="272.147395"/>
     <use style="fill:#0000ff;stroke:#0000ff;" x="290.329888" xlink:href="#mc21c084610" y="269.985771"/>
     <use style="fill:#0000ff;stroke:#0000ff;" x="294.342472" xlink:href="#mc21c084610" y="269.810116"/>
     <use style="fill:#0000ff;stroke:#0000ff;" x="298.355056" xlink:href="#mc21c084610" y="270.902127"/>
     <use style="fill:#0000ff;stroke:#0000ff;" x="302.36764" xlink:href="#mc21c084610" y="269.868293"/>
     <use style="fill:#0000ff;stroke:#0000ff;" x="306.380225" xlink:href="#mc21c084610" y="268.323816"/>
     <use style="fill:#0000ff;stroke:#0000ff;" x="310.392809" xlink:href="#mc21c084610" y="270.217971"/>
     <use style="fill:#0000ff;stroke:#0000ff;" x="314.405393" xlink:href="#mc21c084610" y="269.542913"/>
     <use style="fill:#0000ff;stroke:#0000ff;" x="318.417978" xlink:href="#mc21c084610" y="271.187634"/>
     <use style="fill:#0000ff;stroke:#0000ff;" x="322.430562" xlink:href="#mc21c084610" y="269.26308"/>
     <use style="fill:#0000ff;stroke:#0000ff;" x="326.443146" xlink:href="#mc21c084610" y="269.927647"/>
     <use style="fill:#0000ff;stroke:#0000ff;" x="330.45573" xlink:href="#mc21c084610" y="270.478804"/>
     <use style="fill:#0000ff;stroke:#0000ff;" x="334.468315" xlink:href="#mc21c084610" y="270.25102"/>
     <use style="fill:#0000ff;stroke:#0000ff;" x="338.480899" xlink:href="#mc21c084610" y="270.075793"/>
     <use style="fill:#0000ff;stroke:#0000ff;" x="342.493483" xlink:href="#mc21c084610" y="269.503709"/>
     <use style="fill:#0000ff;stroke:#0000ff;" x="346.506067" xlink:href="#mc21c084610" y="270.116656"/>
     <use style="fill:#0000ff;stroke:#0000ff;" x="350.518652" xlink:href="#mc21c084610" y="268.77398"/>
     <use style="fill:#0000ff;stroke:#0000ff;" x="354.531236" xlink:href="#mc21c084610" y="270.402992"/>
     <use style="fill:#0000ff;stroke:#0000ff;" x="358.54382" xlink:href="#mc21c084610" y="269.723037"/>
     <use style="fill:#0000ff;stroke:#0000ff;" x="362.556404" xlink:href="#mc21c084610" y="270.061637"/>
     <use style="fill:#0000ff;stroke:#0000ff;" x="366.568989" xlink:href="#mc21c084610" y="268.723162"/>
     <use style="fill:#0000ff;stroke:#0000ff;" x="370.581573" xlink:href="#mc21c084610" y="269.448502"/>
     <use style="fill:#0000ff;stroke:#0000ff;" x="374.594157" xlink:href="#mc21c084610" y="268.942972"/>
     <use style="fill:#0000ff;stroke:#0000ff;" x="378.606742" xlink:href="#mc21c084610" y="268.11356"/>
     <use style="fill:#0000ff;stroke:#0000ff;" x="382.619326" xlink:href="#mc21c084610" y="268.191861"/>
     <use style="fill:#0000ff;stroke:#0000ff;" x="386.63191" xlink:href="#mc21c084610" y="269.039229"/>
     <use style="fill:#0000ff;stroke:#0000ff;" x="390.644494" xlink:href="#mc21c084610" y="268.410681"/>
     <use style="fill:#0000ff;stroke:#0000ff;" x="394.657079" xlink:href="#mc21c084610" y="265.835769"/>
     <use style="fill:#0000ff;stroke:#0000ff;" x="398.669663" xlink:href="#mc21c084610" y="267.838865"/>
     <use style="fill:#0000ff;stroke:#0000ff;" x="402.682247" xlink:href="#mc21c084610" y="267.425604"/>
     <use style="fill:#0000ff;stroke:#0000ff;" x="406.694831" xlink:href="#mc21c084610" y="267.487206"/>
     <use style="fill:#0000ff;stroke:#0000ff;" x="410.707416" xlink:href="#mc21c084610" y="267.994289"/>
    </g>
   </g>
   <g id="line2d_62">
    <path clip-path="url(#p853ec4ae75)" d="M 61.612584 100.994138 
L 65.625169 199.981351 
L 69.637753 234.55597 
L 73.650337 252.25254 
L 77.662921 262.605923 
L 81.675506 270.52692 
L 85.68809 275.514148 
L 89.700674 280.391685 
L 93.713258 282.577072 
L 97.725843 285.230954 
L 101.738427 287.433121 
L 105.751011 289.294547 
L 109.763596 290.099446 
L 113.77618 291.456439 
L 117.788764 291.717915 
L 121.801348 293.020183 
L 125.813933 293.43438 
L 129.826517 293.871137 
L 133.839101 293.999025 
L 137.851685 294.259965 
L 141.86427 294.417611 
L 145.876854 294.728674 
L 149.889438 295.093445 
L 153.902022 294.882466 
L 157.914607 294.561421 
L 161.927191 295.137947 
L 165.939775 294.363046 
L 169.95236 295.371164 
L 173.964944 295.121115 
L 177.977528 295.488 
L 181.990112 293.129606 
L 186.002697 292.991978 
L 190.015281 295.257727 
L 194.027865 294.897425 
L 198.040449 294.726399 
L 202.053034 293.803433 
L 206.065618 294.407469 
L 210.078202 294.431821 
L 214.090787 293.413695 
L 218.103371 293.886149 
L 222.115955 293.069422 
L 226.128539 292.497258 
L 230.141124 292.991764 
L 234.153708 293.082695 
L 238.166292 294.196222 
L 242.178876 292.94801 
L 246.191461 292.815091 
L 250.204045 292.936155 
L 254.216629 292.994306 
L 258.229213 292.76323 
L 262.241798 292.875704 
L 266.254382 293.079163 
L 270.266966 292.670104 
L 274.279551 292.533144 
L 278.292135 292.869174 
L 282.304719 291.350923 
L 286.317303 292.113568 
L 290.329888 291.317553 
L 294.342472 291.74018 
L 298.355056 292.25885 
L 302.36764 292.35136 
L 306.380225 291.896862 
L 310.392809 292.256682 
L 314.405393 291.209441 
L 318.417978 291.811951 
L 322.430562 291.232482 
L 326.443146 291.753988 
L 330.45573 291.717942 
L 334.468315 291.759367 
L 338.480899 291.039566 
L 342.493483 289.54283 
L 346.506067 290.932444 
L 350.518652 290.998168 
L 354.531236 290.942881 
L 358.54382 291.144386 
L 362.556404 291.295583 
L 366.568989 291.597279 
L 370.581573 291.263497 
L 374.594157 289.257484 
L 378.606742 291.510014 
L 382.619326 290.974485 
L 386.63191 290.869236 
L 390.644494 290.596708 
L 394.657079 290.8322 
L 398.669663 290.738538 
L 402.682247 291.810506 
L 406.694831 291.561394 
L 410.707416 288.792469 
" style="fill:none;stroke:#ff0000;stroke-dasharray:1.5,2.475;stroke-dashoffset:0;stroke-width:1.5;"/>
    <defs>
     <path d="M 0 1.5 
C 0.397805 1.5 0.77937 1.341951 1.06066 1.06066 
C 1.341951 0.77937 1.5 0.397805 1.5 0 
C 1.5 -0.397805 1.341951 -0.77937 1.06066 -1.06066 
C 0.77937 -1.341951 0.397805 -1.5 0 -1.5 
C -0.397805 -1.5 -0.77937 -1.341951 -1.06066 -1.06066 
C -1.341951 -0.77937 -1.5 -0.397805 -1.5 0 
C -1.5 0.397805 -1.341951 0.77937 -1.06066 1.06066 
C -0.77937 1.341951 -0.397805 1.5 0 1.5 
z
" id="m40e074c0e1" style="stroke:#ff0000;"/>
    </defs>
    <g clip-path="url(#p853ec4ae75)">
     <use style="fill:#ff0000;stroke:#ff0000;" x="61.612584" xlink:href="#m40e074c0e1" y="100.994138"/>
     <use style="fill:#ff0000;stroke:#ff0000;" x="65.625169" xlink:href="#m40e074c0e1" y="199.981351"/>
     <use style="fill:#ff0000;stroke:#ff0000;" x="69.637753" xlink:href="#m40e074c0e1" y="234.55597"/>
     <use style="fill:#ff0000;stroke:#ff0000;" x="73.650337" xlink:href="#m40e074c0e1" y="252.25254"/>
     <use style="fill:#ff0000;stroke:#ff0000;" x="77.662921" xlink:href="#m40e074c0e1" y="262.605923"/>
     <use style="fill:#ff0000;stroke:#ff0000;" x="81.675506" xlink:href="#m40e074c0e1" y="270.52692"/>
     <use style="fill:#ff0000;stroke:#ff0000;" x="85.68809" xlink:href="#m40e074c0e1" y="275.514148"/>
     <use style="fill:#ff0000;stroke:#ff0000;" x="89.700674" xlink:href="#m40e074c0e1" y="280.391685"/>
     <use style="fill:#ff0000;stroke:#ff0000;" x="93.713258" xlink:href="#m40e074c0e1" y="282.577072"/>
     <use style="fill:#ff0000;stroke:#ff0000;" x="97.725843" xlink:href="#m40e074c0e1" y="285.230954"/>
     <use style="fill:#ff0000;stroke:#ff0000;" x="101.738427" xlink:href="#m40e074c0e1" y="287.433121"/>
     <use style="fill:#ff0000;stroke:#ff0000;" x="105.751011" xlink:href="#m40e074c0e1" y="289.294547"/>
     <use style="fill:#ff0000;stroke:#ff0000;" x="109.763596" xlink:href="#m40e074c0e1" y="290.099446"/>
     <use style="fill:#ff0000;stroke:#ff0000;" x="113.77618" xlink:href="#m40e074c0e1" y="291.456439"/>
     <use style="fill:#ff0000;stroke:#ff0000;" x="117.788764" xlink:href="#m40e074c0e1" y="291.717915"/>
     <use style="fill:#ff0000;stroke:#ff0000;" x="121.801348" xlink:href="#m40e074c0e1" y="293.020183"/>
     <use style="fill:#ff0000;stroke:#ff0000;" x="125.813933" xlink:href="#m40e074c0e1" y="293.43438"/>
     <use style="fill:#ff0000;stroke:#ff0000;" x="129.826517" xlink:href="#m40e074c0e1" y="293.871137"/>
     <use style="fill:#ff0000;stroke:#ff0000;" x="133.839101" xlink:href="#m40e074c0e1" y="293.999025"/>
     <use style="fill:#ff0000;stroke:#ff0000;" x="137.851685" xlink:href="#m40e074c0e1" y="294.259965"/>
     <use style="fill:#ff0000;stroke:#ff0000;" x="141.86427" xlink:href="#m40e074c0e1" y="294.417611"/>
     <use style="fill:#ff0000;stroke:#ff0000;" x="145.876854" xlink:href="#m40e074c0e1" y="294.728674"/>
     <use style="fill:#ff0000;stroke:#ff0000;" x="149.889438" xlink:href="#m40e074c0e1" y="295.093445"/>
     <use style="fill:#ff0000;stroke:#ff0000;" x="153.902022" xlink:href="#m40e074c0e1" y="294.882466"/>
     <use style="fill:#ff0000;stroke:#ff0000;" x="157.914607" xlink:href="#m40e074c0e1" y="294.561421"/>
     <use style="fill:#ff0000;stroke:#ff0000;" x="161.927191" xlink:href="#m40e074c0e1" y="295.137947"/>
     <use style="fill:#ff0000;stroke:#ff0000;" x="165.939775" xlink:href="#m40e074c0e1" y="294.363046"/>
     <use style="fill:#ff0000;stroke:#ff0000;" x="169.95236" xlink:href="#m40e074c0e1" y="295.371164"/>
     <use style="fill:#ff0000;stroke:#ff0000;" x="173.964944" xlink:href="#m40e074c0e1" y="295.121115"/>
     <use style="fill:#ff0000;stroke:#ff0000;" x="177.977528" xlink:href="#m40e074c0e1" y="295.488"/>
     <use style="fill:#ff0000;stroke:#ff0000;" x="181.990112" xlink:href="#m40e074c0e1" y="293.129606"/>
     <use style="fill:#ff0000;stroke:#ff0000;" x="186.002697" xlink:href="#m40e074c0e1" y="292.991978"/>
     <use style="fill:#ff0000;stroke:#ff0000;" x="190.015281" xlink:href="#m40e074c0e1" y="295.257727"/>
     <use style="fill:#ff0000;stroke:#ff0000;" x="194.027865" xlink:href="#m40e074c0e1" y="294.897425"/>
     <use style="fill:#ff0000;stroke:#ff0000;" x="198.040449" xlink:href="#m40e074c0e1" y="294.726399"/>
     <use style="fill:#ff0000;stroke:#ff0000;" x="202.053034" xlink:href="#m40e074c0e1" y="293.803433"/>
     <use style="fill:#ff0000;stroke:#ff0000;" x="206.065618" xlink:href="#m40e074c0e1" y="294.407469"/>
     <use style="fill:#ff0000;stroke:#ff0000;" x="210.078202" xlink:href="#m40e074c0e1" y="294.431821"/>
     <use style="fill:#ff0000;stroke:#ff0000;" x="214.090787" xlink:href="#m40e074c0e1" y="293.413695"/>
     <use style="fill:#ff0000;stroke:#ff0000;" x="218.103371" xlink:href="#m40e074c0e1" y="293.886149"/>
     <use style="fill:#ff0000;stroke:#ff0000;" x="222.115955" xlink:href="#m40e074c0e1" y="293.069422"/>
     <use style="fill:#ff0000;stroke:#ff0000;" x="226.128539" xlink:href="#m40e074c0e1" y="292.497258"/>
     <use style="fill:#ff0000;stroke:#ff0000;" x="230.141124" xlink:href="#m40e074c0e1" y="292.991764"/>
     <use style="fill:#ff0000;stroke:#ff0000;" x="234.153708" xlink:href="#m40e074c0e1" y="293.082695"/>
     <use style="fill:#ff0000;stroke:#ff0000;" x="238.166292" xlink:href="#m40e074c0e1" y="294.196222"/>
     <use style="fill:#ff0000;stroke:#ff0000;" x="242.178876" xlink:href="#m40e074c0e1" y="292.94801"/>
     <use style="fill:#ff0000;stroke:#ff0000;" x="246.191461" xlink:href="#m40e074c0e1" y="292.815091"/>
     <use style="fill:#ff0000;stroke:#ff0000;" x="250.204045" xlink:href="#m40e074c0e1" y="292.936155"/>
     <use style="fill:#ff0000;stroke:#ff0000;" x="254.216629" xlink:href="#m40e074c0e1" y="292.994306"/>
     <use style="fill:#ff0000;stroke:#ff0000;" x="258.229213" xlink:href="#m40e074c0e1" y="292.76323"/>
     <use style="fill:#ff0000;stroke:#ff0000;" x="262.241798" xlink:href="#m40e074c0e1" y="292.875704"/>
     <use style="fill:#ff0000;stroke:#ff0000;" x="266.254382" xlink:href="#m40e074c0e1" y="293.079163"/>
     <use style="fill:#ff0000;stroke:#ff0000;" x="270.266966" xlink:href="#m40e074c0e1" y="292.670104"/>
     <use style="fill:#ff0000;stroke:#ff0000;" x="274.279551" xlink:href="#m40e074c0e1" y="292.533144"/>
     <use style="fill:#ff0000;stroke:#ff0000;" x="278.292135" xlink:href="#m40e074c0e1" y="292.869174"/>
     <use style="fill:#ff0000;stroke:#ff0000;" x="282.304719" xlink:href="#m40e074c0e1" y="291.350923"/>
     <use style="fill:#ff0000;stroke:#ff0000;" x="286.317303" xlink:href="#m40e074c0e1" y="292.113568"/>
     <use style="fill:#ff0000;stroke:#ff0000;" x="290.329888" xlink:href="#m40e074c0e1" y="291.317553"/>
     <use style="fill:#ff0000;stroke:#ff0000;" x="294.342472" xlink:href="#m40e074c0e1" y="291.74018"/>
     <use style="fill:#ff0000;stroke:#ff0000;" x="298.355056" xlink:href="#m40e074c0e1" y="292.25885"/>
     <use style="fill:#ff0000;stroke:#ff0000;" x="302.36764" xlink:href="#m40e074c0e1" y="292.35136"/>
     <use style="fill:#ff0000;stroke:#ff0000;" x="306.380225" xlink:href="#m40e074c0e1" y="291.896862"/>
     <use style="fill:#ff0000;stroke:#ff0000;" x="310.392809" xlink:href="#m40e074c0e1" y="292.256682"/>
     <use style="fill:#ff0000;stroke:#ff0000;" x="314.405393" xlink:href="#m40e074c0e1" y="291.209441"/>
     <use style="fill:#ff0000;stroke:#ff0000;" x="318.417978" xlink:href="#m40e074c0e1" y="291.811951"/>
     <use style="fill:#ff0000;stroke:#ff0000;" x="322.430562" xlink:href="#m40e074c0e1" y="291.232482"/>
     <use style="fill:#ff0000;stroke:#ff0000;" x="326.443146" xlink:href="#m40e074c0e1" y="291.753988"/>
     <use style="fill:#ff0000;stroke:#ff0000;" x="330.45573" xlink:href="#m40e074c0e1" y="291.717942"/>
     <use style="fill:#ff0000;stroke:#ff0000;" x="334.468315" xlink:href="#m40e074c0e1" y="291.759367"/>
     <use style="fill:#ff0000;stroke:#ff0000;" x="338.480899" xlink:href="#m40e074c0e1" y="291.039566"/>
     <use style="fill:#ff0000;stroke:#ff0000;" x="342.493483" xlink:href="#m40e074c0e1" y="289.54283"/>
     <use style="fill:#ff0000;stroke:#ff0000;" x="346.506067" xlink:href="#m40e074c0e1" y="290.932444"/>
     <use style="fill:#ff0000;stroke:#ff0000;" x="350.518652" xlink:href="#m40e074c0e1" y="290.998168"/>
     <use style="fill:#ff0000;stroke:#ff0000;" x="354.531236" xlink:href="#m40e074c0e1" y="290.942881"/>
     <use style="fill:#ff0000;stroke:#ff0000;" x="358.54382" xlink:href="#m40e074c0e1" y="291.144386"/>
     <use style="fill:#ff0000;stroke:#ff0000;" x="362.556404" xlink:href="#m40e074c0e1" y="291.295583"/>
     <use style="fill:#ff0000;stroke:#ff0000;" x="366.568989" xlink:href="#m40e074c0e1" y="291.597279"/>
     <use style="fill:#ff0000;stroke:#ff0000;" x="370.581573" xlink:href="#m40e074c0e1" y="291.263497"/>
     <use style="fill:#ff0000;stroke:#ff0000;" x="374.594157" xlink:href="#m40e074c0e1" y="289.257484"/>
     <use style="fill:#ff0000;stroke:#ff0000;" x="378.606742" xlink:href="#m40e074c0e1" y="291.510014"/>
     <use style="fill:#ff0000;stroke:#ff0000;" x="382.619326" xlink:href="#m40e074c0e1" y="290.974485"/>
     <use style="fill:#ff0000;stroke:#ff0000;" x="386.63191" xlink:href="#m40e074c0e1" y="290.869236"/>
     <use style="fill:#ff0000;stroke:#ff0000;" x="390.644494" xlink:href="#m40e074c0e1" y="290.596708"/>
     <use style="fill:#ff0000;stroke:#ff0000;" x="394.657079" xlink:href="#m40e074c0e1" y="290.8322"/>
     <use style="fill:#ff0000;stroke:#ff0000;" x="398.669663" xlink:href="#m40e074c0e1" y="290.738538"/>
     <use style="fill:#ff0000;stroke:#ff0000;" x="402.682247" xlink:href="#m40e074c0e1" y="291.810506"/>
     <use style="fill:#ff0000;stroke:#ff0000;" x="406.694831" xlink:href="#m40e074c0e1" y="291.561394"/>
     <use style="fill:#ff0000;stroke:#ff0000;" x="410.707416" xlink:href="#m40e074c0e1" y="288.792469"/>
    </g>
   </g>
   <g id="line2d_63">
    <path clip-path="url(#p853ec4ae75)" d="M 61.612584 77.281069 
L 65.625169 187.731553 
L 69.637753 224.255225 
L 73.650337 242.340703 
L 77.662921 253.529613 
L 81.675506 262.113023 
L 85.68809 267.148326 
L 89.700674 271.661213 
L 93.713258 275.078368 
L 97.725843 277.704058 
L 101.738427 280.123639 
L 105.751011 281.311373 
L 109.763596 282.643866 
L 113.77618 283.227243 
L 117.788764 284.097076 
L 121.801348 284.641115 
L 125.813933 284.960808 
L 129.826517 285.82648 
L 133.839101 285.888912 
L 137.851685 285.723212 
L 141.86427 286.421631 
L 145.876854 286.015944 
L 149.889438 286.129033 
L 153.902022 286.855324 
L 157.914607 285.425824 
L 161.927191 285.853615 
L 165.939775 285.821784 
L 169.95236 284.651311 
L 173.964944 286.527536 
L 177.977528 284.549688 
L 181.990112 284.239468 
L 186.002697 283.610907 
L 190.015281 284.181626 
L 194.027865 284.986578 
L 198.040449 283.091702 
L 202.053034 282.758026 
L 206.065618 283.731917 
L 210.078202 282.754494 
L 214.090787 282.26051 
L 218.103371 282.598226 
L 222.115955 281.350764 
L 226.128539 280.319913 
L 230.141124 281.225793 
L 234.153708 281.947735 
L 238.166292 283.028881 
L 242.178876 281.158303 
L 246.191461 281.946423 
L 250.204045 282.426692 
L 254.216629 282.179961 
L 258.229213 281.198671 
L 262.241798 280.253173 
L 266.254382 281.653023 
L 270.266966 281.220079 
L 274.279551 281.235774 
L 278.292135 282.281062 
L 282.304719 280.362931 
L 286.317303 282.130481 
L 290.329888 280.651662 
L 294.342472 280.775148 
L 298.355056 281.580488 
L 302.36764 281.109827 
L 306.380225 280.110339 
L 310.392809 281.237327 
L 314.405393 280.376177 
L 318.417978 281.499792 
L 322.430562 280.247781 
L 326.443146 280.840818 
L 330.45573 281.098373 
L 334.468315 281.005193 
L 338.480899 280.557679 
L 342.493483 279.52327 
L 346.506067 280.52455 
L 350.518652 279.886074 
L 354.531236 280.672936 
L 358.54382 280.433712 
L 362.556404 280.67861 
L 366.568989 280.160221 
L 370.581573 280.356 
L 374.594157 279.100228 
L 378.606742 279.811787 
L 382.619326 279.583173 
L 386.63191 279.954232 
L 390.644494 279.503694 
L 394.657079 278.333984 
L 398.669663 279.288701 
L 402.682247 279.618055 
L 406.694831 279.5243 
L 410.707416 278.393379 
" style="fill:none;stroke:#008000;stroke-dasharray:1.5,2.475;stroke-dashoffset:0;stroke-width:1.5;"/>
    <defs>
     <path d="M 0 1.5 
C 0.397805 1.5 0.77937 1.341951 1.06066 1.06066 
C 1.341951 0.77937 1.5 0.397805 1.5 0 
C 1.5 -0.397805 1.341951 -0.77937 1.06066 -1.06066 
C 0.77937 -1.341951 0.397805 -1.5 0 -1.5 
C -0.397805 -1.5 -0.77937 -1.341951 -1.06066 -1.06066 
C -1.341951 -0.77937 -1.5 -0.397805 -1.5 0 
C -1.5 0.397805 -1.341951 0.77937 -1.06066 1.06066 
C -0.77937 1.341951 -0.397805 1.5 0 1.5 
z
" id="m1dd21967df" style="stroke:#008000;"/>
    </defs>
    <g clip-path="url(#p853ec4ae75)">
     <use style="fill:#008000;stroke:#008000;" x="61.612584" xlink:href="#m1dd21967df" y="77.281069"/>
     <use style="fill:#008000;stroke:#008000;" x="65.625169" xlink:href="#m1dd21967df" y="187.731553"/>
     <use style="fill:#008000;stroke:#008000;" x="69.637753" xlink:href="#m1dd21967df" y="224.255225"/>
     <use style="fill:#008000;stroke:#008000;" x="73.650337" xlink:href="#m1dd21967df" y="242.340703"/>
     <use style="fill:#008000;stroke:#008000;" x="77.662921" xlink:href="#m1dd21967df" y="253.529613"/>
     <use style="fill:#008000;stroke:#008000;" x="81.675506" xlink:href="#m1dd21967df" y="262.113023"/>
     <use style="fill:#008000;stroke:#008000;" x="85.68809" xlink:href="#m1dd21967df" y="267.148326"/>
     <use style="fill:#008000;stroke:#008000;" x="89.700674" xlink:href="#m1dd21967df" y="271.661213"/>
     <use style="fill:#008000;stroke:#008000;" x="93.713258" xlink:href="#m1dd21967df" y="275.078368"/>
     <use style="fill:#008000;stroke:#008000;" x="97.725843" xlink:href="#m1dd21967df" y="277.704058"/>
     <use style="fill:#008000;stroke:#008000;" x="101.738427" xlink:href="#m1dd21967df" y="280.123639"/>
     <use style="fill:#008000;stroke:#008000;" x="105.751011" xlink:href="#m1dd21967df" y="281.311373"/>
     <use style="fill:#008000;stroke:#008000;" x="109.763596" xlink:href="#m1dd21967df" y="282.643866"/>
     <use style="fill:#008000;stroke:#008000;" x="113.77618" xlink:href="#m1dd21967df" y="283.227243"/>
     <use style="fill:#008000;stroke:#008000;" x="117.788764" xlink:href="#m1dd21967df" y="284.097076"/>
     <use style="fill:#008000;stroke:#008000;" x="121.801348" xlink:href="#m1dd21967df" y="284.641115"/>
     <use style="fill:#008000;stroke:#008000;" x="125.813933" xlink:href="#m1dd21967df" y="284.960808"/>
     <use style="fill:#008000;stroke:#008000;" x="129.826517" xlink:href="#m1dd21967df" y="285.82648"/>
     <use style="fill:#008000;stroke:#008000;" x="133.839101" xlink:href="#m1dd21967df" y="285.888912"/>
     <use style="fill:#008000;stroke:#008000;" x="137.851685" xlink:href="#m1dd21967df" y="285.723212"/>
     <use style="fill:#008000;stroke:#008000;" x="141.86427" xlink:href="#m1dd21967df" y="286.421631"/>
     <use style="fill:#008000;stroke:#008000;" x="145.876854" xlink:href="#m1dd21967df" y="286.015944"/>
     <use style="fill:#008000;stroke:#008000;" x="149.889438" xlink:href="#m1dd21967df" y="286.129033"/>
     <use style="fill:#008000;stroke:#008000;" x="153.902022" xlink:href="#m1dd21967df" y="286.855324"/>
     <use style="fill:#008000;stroke:#008000;" x="157.914607" xlink:href="#m1dd21967df" y="285.425824"/>
     <use style="fill:#008000;stroke:#008000;" x="161.927191" xlink:href="#m1dd21967df" y="285.853615"/>
     <use style="fill:#008000;stroke:#008000;" x="165.939775" xlink:href="#m1dd21967df" y="285.821784"/>
     <use style="fill:#008000;stroke:#008000;" x="169.95236" xlink:href="#m1dd21967df" y="284.651311"/>
     <use style="fill:#008000;stroke:#008000;" x="173.964944" xlink:href="#m1dd21967df" y="286.527536"/>
     <use style="fill:#008000;stroke:#008000;" x="177.977528" xlink:href="#m1dd21967df" y="284.549688"/>
     <use style="fill:#008000;stroke:#008000;" x="181.990112" xlink:href="#m1dd21967df" y="284.239468"/>
     <use style="fill:#008000;stroke:#008000;" x="186.002697" xlink:href="#m1dd21967df" y="283.610907"/>
     <use style="fill:#008000;stroke:#008000;" x="190.015281" xlink:href="#m1dd21967df" y="284.181626"/>
     <use style="fill:#008000;stroke:#008000;" x="194.027865" xlink:href="#m1dd21967df" y="284.986578"/>
     <use style="fill:#008000;stroke:#008000;" x="198.040449" xlink:href="#m1dd21967df" y="283.091702"/>
     <use style="fill:#008000;stroke:#008000;" x="202.053034" xlink:href="#m1dd21967df" y="282.758026"/>
     <use style="fill:#008000;stroke:#008000;" x="206.065618" xlink:href="#m1dd21967df" y="283.731917"/>
     <use style="fill:#008000;stroke:#008000;" x="210.078202" xlink:href="#m1dd21967df" y="282.754494"/>
     <use style="fill:#008000;stroke:#008000;" x="214.090787" xlink:href="#m1dd21967df" y="282.26051"/>
     <use style="fill:#008000;stroke:#008000;" x="218.103371" xlink:href="#m1dd21967df" y="282.598226"/>
     <use style="fill:#008000;stroke:#008000;" x="222.115955" xlink:href="#m1dd21967df" y="281.350764"/>
     <use style="fill:#008000;stroke:#008000;" x="226.128539" xlink:href="#m1dd21967df" y="280.319913"/>
     <use style="fill:#008000;stroke:#008000;" x="230.141124" xlink:href="#m1dd21967df" y="281.225793"/>
     <use style="fill:#008000;stroke:#008000;" x="234.153708" xlink:href="#m1dd21967df" y="281.947735"/>
     <use style="fill:#008000;stroke:#008000;" x="238.166292" xlink:href="#m1dd21967df" y="283.028881"/>
     <use style="fill:#008000;stroke:#008000;" x="242.178876" xlink:href="#m1dd21967df" y="281.158303"/>
     <use style="fill:#008000;stroke:#008000;" x="246.191461" xlink:href="#m1dd21967df" y="281.946423"/>
     <use style="fill:#008000;stroke:#008000;" x="250.204045" xlink:href="#m1dd21967df" y="282.426692"/>
     <use style="fill:#008000;stroke:#008000;" x="254.216629" xlink:href="#m1dd21967df" y="282.179961"/>
     <use style="fill:#008000;stroke:#008000;" x="258.229213" xlink:href="#m1dd21967df" y="281.198671"/>
     <use style="fill:#008000;stroke:#008000;" x="262.241798" xlink:href="#m1dd21967df" y="280.253173"/>
     <use style="fill:#008000;stroke:#008000;" x="266.254382" xlink:href="#m1dd21967df" y="281.653023"/>
     <use style="fill:#008000;stroke:#008000;" x="270.266966" xlink:href="#m1dd21967df" y="281.220079"/>
     <use style="fill:#008000;stroke:#008000;" x="274.279551" xlink:href="#m1dd21967df" y="281.235774"/>
     <use style="fill:#008000;stroke:#008000;" x="278.292135" xlink:href="#m1dd21967df" y="282.281062"/>
     <use style="fill:#008000;stroke:#008000;" x="282.304719" xlink:href="#m1dd21967df" y="280.362931"/>
     <use style="fill:#008000;stroke:#008000;" x="286.317303" xlink:href="#m1dd21967df" y="282.130481"/>
     <use style="fill:#008000;stroke:#008000;" x="290.329888" xlink:href="#m1dd21967df" y="280.651662"/>
     <use style="fill:#008000;stroke:#008000;" x="294.342472" xlink:href="#m1dd21967df" y="280.775148"/>
     <use style="fill:#008000;stroke:#008000;" x="298.355056" xlink:href="#m1dd21967df" y="281.580488"/>
     <use style="fill:#008000;stroke:#008000;" x="302.36764" xlink:href="#m1dd21967df" y="281.109827"/>
     <use style="fill:#008000;stroke:#008000;" x="306.380225" xlink:href="#m1dd21967df" y="280.110339"/>
     <use style="fill:#008000;stroke:#008000;" x="310.392809" xlink:href="#m1dd21967df" y="281.237327"/>
     <use style="fill:#008000;stroke:#008000;" x="314.405393" xlink:href="#m1dd21967df" y="280.376177"/>
     <use style="fill:#008000;stroke:#008000;" x="318.417978" xlink:href="#m1dd21967df" y="281.499792"/>
     <use style="fill:#008000;stroke:#008000;" x="322.430562" xlink:href="#m1dd21967df" y="280.247781"/>
     <use style="fill:#008000;stroke:#008000;" x="326.443146" xlink:href="#m1dd21967df" y="280.840818"/>
     <use style="fill:#008000;stroke:#008000;" x="330.45573" xlink:href="#m1dd21967df" y="281.098373"/>
     <use style="fill:#008000;stroke:#008000;" x="334.468315" xlink:href="#m1dd21967df" y="281.005193"/>
     <use style="fill:#008000;stroke:#008000;" x="338.480899" xlink:href="#m1dd21967df" y="280.557679"/>
     <use style="fill:#008000;stroke:#008000;" x="342.493483" xlink:href="#m1dd21967df" y="279.52327"/>
     <use style="fill:#008000;stroke:#008000;" x="346.506067" xlink:href="#m1dd21967df" y="280.52455"/>
     <use style="fill:#008000;stroke:#008000;" x="350.518652" xlink:href="#m1dd21967df" y="279.886074"/>
     <use style="fill:#008000;stroke:#008000;" x="354.531236" xlink:href="#m1dd21967df" y="280.672936"/>
     <use style="fill:#008000;stroke:#008000;" x="358.54382" xlink:href="#m1dd21967df" y="280.433712"/>
     <use style="fill:#008000;stroke:#008000;" x="362.556404" xlink:href="#m1dd21967df" y="280.67861"/>
     <use style="fill:#008000;stroke:#008000;" x="366.568989" xlink:href="#m1dd21967df" y="280.160221"/>
     <use style="fill:#008000;stroke:#008000;" x="370.581573" xlink:href="#m1dd21967df" y="280.356"/>
     <use style="fill:#008000;stroke:#008000;" x="374.594157" xlink:href="#m1dd21967df" y="279.100228"/>
     <use style="fill:#008000;stroke:#008000;" x="378.606742" xlink:href="#m1dd21967df" y="279.811787"/>
     <use style="fill:#008000;stroke:#008000;" x="382.619326" xlink:href="#m1dd21967df" y="279.583173"/>
     <use style="fill:#008000;stroke:#008000;" x="386.63191" xlink:href="#m1dd21967df" y="279.954232"/>
     <use style="fill:#008000;stroke:#008000;" x="390.644494" xlink:href="#m1dd21967df" y="279.503694"/>
     <use style="fill:#008000;stroke:#008000;" x="394.657079" xlink:href="#m1dd21967df" y="278.333984"/>
     <use style="fill:#008000;stroke:#008000;" x="398.669663" xlink:href="#m1dd21967df" y="279.288701"/>
     <use style="fill:#008000;stroke:#008000;" x="402.682247" xlink:href="#m1dd21967df" y="279.618055"/>
     <use style="fill:#008000;stroke:#008000;" x="406.694831" xlink:href="#m1dd21967df" y="279.5243"/>
     <use style="fill:#008000;stroke:#008000;" x="410.707416" xlink:href="#m1dd21967df" y="278.393379"/>
    </g>
   </g>
   <g id="patch_3">
    <path d="M 57.6 307.584 
L 57.6 41.472 
" style="fill:none;stroke:#000000;stroke-linecap:square;stroke-linejoin:miter;stroke-width:0.8;"/>
   </g>
   <g id="patch_4">
    <path d="M 414.72 307.584 
L 414.72 41.472 
" style="fill:none;stroke:#000000;stroke-linecap:square;stroke-linejoin:miter;stroke-width:0.8;"/>
   </g>
   <g id="patch_5">
    <path d="M 57.6 307.584 
L 414.72 307.584 
" style="fill:none;stroke:#000000;stroke-linecap:square;stroke-linejoin:miter;stroke-width:0.8;"/>
   </g>
   <g id="patch_6">
    <path d="M 57.6 41.472 
L 414.72 41.472 
" style="fill:none;stroke:#000000;stroke-linecap:square;stroke-linejoin:miter;stroke-width:0.8;"/>
   </g>
   <g id="text_33">
    <!-- tbb::parallel_sort O2 OMP AVX2 on para-4 -->
    <defs>
     <path d="M 48.6875 27.296875 
Q 48.6875 37.203125 44.609375 42.84375 
Q 40.53125 48.484375 33.40625 48.484375 
Q 26.265625 48.484375 22.1875 42.84375 
Q 18.109375 37.203125 18.109375 27.296875 
Q 18.109375 17.390625 22.1875 11.75 
Q 26.265625 6.109375 33.40625 6.109375 
Q 40.53125 6.109375 44.609375 11.75 
Q 48.6875 17.390625 48.6875 27.296875 
z
M 18.109375 46.390625 
Q 20.953125 51.265625 25.265625 53.625 
Q 29.59375 56 35.59375 56 
Q 45.5625 56 51.78125 48.09375 
Q 58.015625 40.1875 58.015625 27.296875 
Q 58.015625 14.40625 51.78125 6.484375 
Q 45.5625 -1.421875 35.59375 -1.421875 
Q 29.59375 -1.421875 25.265625 0.953125 
Q 20.953125 3.328125 18.109375 8.203125 
L 18.109375 0 
L 9.078125 0 
L 9.078125 75.984375 
L 18.109375 75.984375 
z
" id="DejaVuSans-98"/>
     <path d="M 11.71875 12.40625 
L 22.015625 12.40625 
L 22.015625 0 
L 11.71875 0 
z
M 11.71875 51.703125 
L 22.015625 51.703125 
L 22.015625 39.3125 
L 11.71875 39.3125 
z
" id="DejaVuSans-58"/>
     <path d="M 18.109375 8.203125 
L 18.109375 -20.796875 
L 9.078125 -20.796875 
L 9.078125 54.6875 
L 18.109375 54.6875 
L 18.109375 46.390625 
Q 20.953125 51.265625 25.265625 53.625 
Q 29.59375 56 35.59375 56 
Q 45.5625 56 51.78125 48.09375 
Q 58.015625 40.1875 58.015625 27.296875 
Q 58.015625 14.40625 51.78125 6.484375 
Q 45.5625 -1.421875 35.59375 -1.421875 
Q 29.59375 -1.421875 25.265625 0.953125 
Q 20.953125 3.328125 18.109375 8.203125 
z
M 48.6875 27.296875 
Q 48.6875 37.203125 44.609375 42.84375 
Q 40.53125 48.484375 33.40625 48.484375 
Q 26.265625 48.484375 22.1875 42.84375 
Q 18.109375 37.203125 18.109375 27.296875 
Q 18.109375 17.390625 22.1875 11.75 
Q 26.265625 6.109375 33.40625 6.109375 
Q 40.53125 6.109375 44.609375 11.75 
Q 48.6875 17.390625 48.6875 27.296875 
z
" id="DejaVuSans-112"/>
     <path d="M 9.421875 75.984375 
L 18.40625 75.984375 
L 18.40625 0 
L 9.421875 0 
z
" id="DejaVuSans-108"/>
     <path d="M 50.984375 -16.609375 
L 50.984375 -23.578125 
L -0.984375 -23.578125 
L -0.984375 -16.609375 
z
" id="DejaVuSans-95"/>
     <path d="M 39.40625 66.21875 
Q 28.65625 66.21875 22.328125 58.203125 
Q 16.015625 50.203125 16.015625 36.375 
Q 16.015625 22.609375 22.328125 14.59375 
Q 28.65625 6.59375 39.40625 6.59375 
Q 50.140625 6.59375 56.421875 14.59375 
Q 62.703125 22.609375 62.703125 36.375 
Q 62.703125 50.203125 56.421875 58.203125 
Q 50.140625 66.21875 39.40625 66.21875 
z
M 39.40625 74.21875 
Q 54.734375 74.21875 63.90625 63.9375 
Q 73.09375 53.65625 73.09375 36.375 
Q 73.09375 19.140625 63.90625 8.859375 
Q 54.734375 -1.421875 39.40625 -1.421875 
Q 24.03125 -1.421875 14.8125 8.828125 
Q 5.609375 19.09375 5.609375 36.375 
Q 5.609375 53.65625 14.8125 63.9375 
Q 24.03125 74.21875 39.40625 74.21875 
z
" id="DejaVuSans-79"/>
     <path d="M 9.8125 72.90625 
L 24.515625 72.90625 
L 43.109375 23.296875 
L 61.8125 72.90625 
L 76.515625 72.90625 
L 76.515625 0 
L 66.890625 0 
L 66.890625 64.015625 
L 48.09375 14.015625 
L 38.1875 14.015625 
L 19.390625 64.015625 
L 19.390625 0 
L 9.8125 0 
z
" id="DejaVuSans-77"/>
     <path d="M 19.671875 64.796875 
L 19.671875 37.40625 
L 32.078125 37.40625 
Q 38.96875 37.40625 42.71875 40.96875 
Q 46.484375 44.53125 46.484375 51.125 
Q 46.484375 57.671875 42.71875 61.234375 
Q 38.96875 64.796875 32.078125 64.796875 
z
M 9.8125 72.90625 
L 32.078125 72.90625 
Q 44.34375 72.90625 50.609375 67.359375 
Q 56.890625 61.8125 56.890625 51.125 
Q 56.890625 40.328125 50.609375 34.8125 
Q 44.34375 29.296875 32.078125 29.296875 
L 19.671875 29.296875 
L 19.671875 0 
L 9.8125 0 
z
" id="DejaVuSans-80"/>
     <path d="M 34.1875 63.1875 
L 20.796875 26.90625 
L 47.609375 26.90625 
z
M 28.609375 72.90625 
L 39.796875 72.90625 
L 67.578125 0 
L 57.328125 0 
L 50.6875 18.703125 
L 17.828125 18.703125 
L 11.1875 0 
L 0.78125 0 
z
" id="DejaVuSans-65"/>
     <path d="M 28.609375 0 
L 0.78125 72.90625 
L 11.078125 72.90625 
L 34.1875 11.53125 
L 57.328125 72.90625 
L 67.578125 72.90625 
L 39.796875 0 
z
" id="DejaVuSans-86"/>
     <path d="M 6.296875 72.90625 
L 16.890625 72.90625 
L 35.015625 45.796875 
L 53.21875 72.90625 
L 63.8125 72.90625 
L 40.375 37.890625 
L 65.375 0 
L 54.78125 0 
L 34.28125 31 
L 13.625 0 
L 2.984375 0 
L 29 38.921875 
z
" id="DejaVuSans-88"/>
     <path d="M 4.890625 31.390625 
L 31.203125 31.390625 
L 31.203125 23.390625 
L 4.890625 23.390625 
z
" id="DejaVuSans-45"/>
    </defs>
    <g transform="translate(110.777812 35.472)scale(0.12 -0.12)">
     <use xlink:href="#DejaVuSans-116"/>
     <use x="39.208984" xlink:href="#DejaVuSans-98"/>
     <use x="102.685547" xlink:href="#DejaVuSans-98"/>
     <use x="166.162109" xlink:href="#DejaVuSans-58"/>
     <use x="199.853516" xlink:href="#DejaVuSans-58"/>
     <use x="233.544922" xlink:href="#DejaVuSans-112"/>
     <use x="297.021484" xlink:href="#DejaVuSans-97"/>
     <use x="358.300781" xlink:href="#DejaVuSans-114"/>
     <use x="399.414062" xlink:href="#DejaVuSans-97"/>
     <use x="460.693359" xlink:href="#DejaVuSans-108"/>
     <use x="488.476562" xlink:href="#DejaVuSans-108"/>
     <use x="516.259766" xlink:href="#DejaVuSans-101"/>
     <use x="577.783203" xlink:href="#DejaVuSans-108"/>
     <use x="605.566406" xlink:href="#DejaVuSans-95"/>
     <use x="655.566406" xlink:href="#DejaVuSans-115"/>
     <use x="707.666016" xlink:href="#DejaVuSans-111"/>
     <use x="768.847656" xlink:href="#DejaVuSans-114"/>
     <use x="809.960938" xlink:href="#DejaVuSans-116"/>
     <use x="849.169922" xlink:href="#DejaVuSans-32"/>
     <use x="880.957031" xlink:href="#DejaVuSans-79"/>
     <use x="959.667969" xlink:href="#DejaVuSans-50"/>
     <use x="1023.291016" xlink:href="#DejaVuSans-32"/>
     <use x="1055.078125" xlink:href="#DejaVuSans-79"/>
     <use x="1133.789062" xlink:href="#DejaVuSans-77"/>
     <use x="1220.068359" xlink:href="#DejaVuSans-80"/>
     <use x="1280.371094" xlink:href="#DejaVuSans-32"/>
     <use x="1312.158203" xlink:href="#DejaVuSans-65"/>
     <use x="1374.191406" xlink:href="#DejaVuSans-86"/>
     <use x="1442.599609" xlink:href="#DejaVuSans-88"/>
     <use x="1511.105469" xlink:href="#DejaVuSans-50"/>
     <use x="1574.728516" xlink:href="#DejaVuSans-32"/>
     <use x="1606.515625" xlink:href="#DejaVuSans-111"/>
     <use x="1667.697266" xlink:href="#DejaVuSans-110"/>
     <use x="1731.076172" xlink:href="#DejaVuSans-32"/>
     <use x="1762.863281" xlink:href="#DejaVuSans-112"/>
     <use x="1826.339844" xlink:href="#DejaVuSans-97"/>
     <use x="1887.619141" xlink:href="#DejaVuSans-114"/>
     <use x="1928.732422" xlink:href="#DejaVuSans-97"/>
     <use x="1990.011719" xlink:href="#DejaVuSans-45"/>
     <use x="2026.095703" xlink:href="#DejaVuSans-52"/>
    </g>
   </g>
   <g id="legend_1">
    <g id="patch_7">
     <path d="M 313.152813 93.7845 
L 407.72 93.7845 
Q 409.72 93.7845 409.72 91.7845 
L 409.72 48.472 
Q 409.72 46.472 407.72 46.472 
L 313.152813 46.472 
Q 311.152813 46.472 311.152813 48.472 
L 311.152813 91.7845 
Q 311.152813 93.7845 313.152813 93.7845 
z
" style="fill:#ffffff;opacity:0.8;stroke:#cccccc;stroke-linejoin:miter;"/>
    </g>
    <g id="line2d_64">
     <path d="M 315.152813 54.570438 
L 335.152813 54.570438 
" style="fill:none;stroke:#0000ff;stroke-dasharray:1.5,2.475;stroke-dashoffset:0;stroke-width:1.5;"/>
    </g>
    <g id="line2d_65">
     <g>
      <use style="fill:#0000ff;stroke:#0000ff;" x="325.152813" xlink:href="#mc21c084610" y="54.570438"/>
     </g>
    </g>
    <g id="text_34">
     <!-- transpose -->
     <g transform="translate(343.152813 58.070438)scale(0.1 -0.1)">
      <use xlink:href="#DejaVuSans-116"/>
      <use x="39.208984" xlink:href="#DejaVuSans-114"/>
      <use x="80.322266" xlink:href="#DejaVuSans-97"/>
      <use x="141.601562" xlink:href="#DejaVuSans-110"/>
      <use x="204.980469" xlink:href="#DejaVuSans-115"/>
      <use x="257.080078" xlink:href="#DejaVuSans-112"/>
      <use x="320.556641" xlink:href="#DejaVuSans-111"/>
      <use x="381.738281" xlink:href="#DejaVuSans-115"/>
      <use x="433.837891" xlink:href="#DejaVuSans-101"/>
     </g>
    </g>
    <g id="line2d_66">
     <path d="M 315.152813 69.248563 
L 335.152813 69.248563 
" style="fill:none;stroke:#ff0000;stroke-dasharray:1.5,2.475;stroke-dashoffset:0;stroke-width:1.5;"/>
    </g>
    <g id="line2d_67">
     <g>
      <use style="fill:#ff0000;stroke:#ff0000;" x="325.152813" xlink:href="#m40e074c0e1" y="69.248563"/>
     </g>
    </g>
    <g id="text_35">
     <!-- transpose_tr -->
     <g transform="translate(343.152813 72.748563)scale(0.1 -0.1)">
      <use xlink:href="#DejaVuSans-116"/>
      <use x="39.208984" xlink:href="#DejaVuSans-114"/>
      <use x="80.322266" xlink:href="#DejaVuSans-97"/>
      <use x="141.601562" xlink:href="#DejaVuSans-110"/>
      <use x="204.980469" xlink:href="#DejaVuSans-115"/>
      <use x="257.080078" xlink:href="#DejaVuSans-112"/>
      <use x="320.556641" xlink:href="#DejaVuSans-111"/>
      <use x="381.738281" xlink:href="#DejaVuSans-115"/>
      <use x="433.837891" xlink:href="#DejaVuSans-101"/>
      <use x="495.361328" xlink:href="#DejaVuSans-95"/>
      <use x="545.361328" xlink:href="#DejaVuSans-116"/>
      <use x="584.570312" xlink:href="#DejaVuSans-114"/>
     </g>
    </g>
    <g id="line2d_68">
     <path d="M 315.152813 84.204813 
L 335.152813 84.204813 
" style="fill:none;stroke:#008000;stroke-dasharray:1.5,2.475;stroke-dashoffset:0;stroke-width:1.5;"/>
    </g>
    <g id="line2d_69">
     <g>
      <use style="fill:#008000;stroke:#008000;" x="325.152813" xlink:href="#m1dd21967df" y="84.204813"/>
     </g>
    </g>
    <g id="text_36">
     <!-- mean -->
     <defs>
      <path d="M 52 44.1875 
Q 55.375 50.25 60.0625 53.125 
Q 64.75 56 71.09375 56 
Q 79.640625 56 84.28125 50.015625 
Q 88.921875 44.046875 88.921875 33.015625 
L 88.921875 0 
L 79.890625 0 
L 79.890625 32.71875 
Q 79.890625 40.578125 77.09375 44.375 
Q 74.3125 48.1875 68.609375 48.1875 
Q 61.625 48.1875 57.5625 43.546875 
Q 53.515625 38.921875 53.515625 30.90625 
L 53.515625 0 
L 44.484375 0 
L 44.484375 32.71875 
Q 44.484375 40.625 41.703125 44.40625 
Q 38.921875 48.1875 33.109375 48.1875 
Q 26.21875 48.1875 22.15625 43.53125 
Q 18.109375 38.875 18.109375 30.90625 
L 18.109375 0 
L 9.078125 0 
L 9.078125 54.6875 
L 18.109375 54.6875 
L 18.109375 46.1875 
Q 21.1875 51.21875 25.484375 53.609375 
Q 29.78125 56 35.6875 56 
Q 41.65625 56 45.828125 52.96875 
Q 50 49.953125 52 44.1875 
z
" id="DejaVuSans-109"/>
     </defs>
     <g transform="translate(343.152813 87.704813)scale(0.1 -0.1)">
      <use xlink:href="#DejaVuSans-109"/>
      <use x="97.412109" xlink:href="#DejaVuSans-101"/>
      <use x="158.935547" xlink:href="#DejaVuSans-97"/>
      <use x="220.214844" xlink:href="#DejaVuSans-110"/>
     </g>
    </g>
   </g>
  </g>
 </g>
 <defs>
  <clipPath id="p853ec4ae75">
   <rect height="266.112" width="357.12" x="57.6" y="41.472"/>
  </clipPath>
 </defs>
</svg>
