<?xml version="1.0" encoding="utf-8" standalone="no"?>
<!DOCTYPE svg PUBLIC "-//W3C//DTD SVG 1.1//EN"
  "http://www.w3.org/Graphics/SVG/1.1/DTD/svg11.dtd">
<!-- Created with matplotlib (https://matplotlib.org/) -->
<svg height="345.6pt" version="1.1" viewBox="0 0 460.8 345.6" width="460.8pt" xmlns="http://www.w3.org/2000/svg" xmlns:xlink="http://www.w3.org/1999/xlink">
 <defs>
  <style type="text/css">
*{stroke-linecap:butt;stroke-linejoin:round;}
  </style>
 </defs>
 <g id="figure_1">
  <g id="patch_1">
   <path d="M 0 345.6 
L 460.8 345.6 
L 460.8 0 
L 0 0 
z
" style="fill:#ffffff;"/>
  </g>
  <g id="axes_1">
   <g id="patch_2">
    <path d="M 57.6 307.584 
L 414.72 307.584 
L 414.72 41.472 
L 57.6 41.472 
z
" style="fill:#ffffff;"/>
   </g>
   <g id="matplotlib.axis_1">
    <g id="xtick_1">
     <g id="line2d_1">
      <path clip-path="url(#p6d1caae8f4)" d="M 61.612584 307.584 
L 61.612584 41.472 
" style="fill:none;stroke:#b0b0b0;stroke-dasharray:5.12,1.28,0.8,1.28;stroke-dashoffset:0;stroke-width:0.8;"/>
     </g>
     <g id="line2d_2">
      <defs>
       <path d="M 0 0 
L 0 3.5 
" id="m9def814086" style="stroke:#000000;stroke-width:0.8;"/>
      </defs>
      <g>
       <use style="stroke:#000000;stroke-width:0.8;" x="61.612584" xlink:href="#m9def814086" y="307.584"/>
      </g>
     </g>
     <g id="text_1">
      <!-- 1 -->
      <defs>
       <path d="M 12.40625 8.296875 
L 28.515625 8.296875 
L 28.515625 63.921875 
L 10.984375 60.40625 
L 10.984375 69.390625 
L 28.421875 72.90625 
L 38.28125 72.90625 
L 38.28125 8.296875 
L 54.390625 8.296875 
L 54.390625 0 
L 12.40625 0 
z
" id="DejaVuSans-49"/>
      </defs>
      <g transform="translate(58.431334 322.182437)scale(0.1 -0.1)">
       <use xlink:href="#DejaVuSans-49"/>
      </g>
     </g>
    </g>
    <g id="xtick_2">
     <g id="line2d_3">
      <path clip-path="url(#p6d1caae8f4)" d="M 73.650337 307.584 
L 73.650337 41.472 
" style="fill:none;stroke:#b0b0b0;stroke-dasharray:5.12,1.28,0.8,1.28;stroke-dashoffset:0;stroke-width:0.8;"/>
     </g>
     <g id="line2d_4">
      <g>
       <use style="stroke:#000000;stroke-width:0.8;" x="73.650337" xlink:href="#m9def814086" y="307.584"/>
      </g>
     </g>
     <g id="text_2">
      <!-- 4 -->
      <defs>
       <path d="M 37.796875 64.3125 
L 12.890625 25.390625 
L 37.796875 25.390625 
z
M 35.203125 72.90625 
L 47.609375 72.90625 
L 47.609375 25.390625 
L 58.015625 25.390625 
L 58.015625 17.1875 
L 47.609375 17.1875 
L 47.609375 0 
L 37.796875 0 
L 37.796875 17.1875 
L 4.890625 17.1875 
L 4.890625 26.703125 
z
" id="DejaVuSans-52"/>
      </defs>
      <g transform="translate(70.469087 322.182437)scale(0.1 -0.1)">
       <use xlink:href="#DejaVuSans-52"/>
      </g>
     </g>
    </g>
    <g id="xtick_3">
     <g id="line2d_5">
      <path clip-path="url(#p6d1caae8f4)" d="M 89.700674 307.584 
L 89.700674 41.472 
" style="fill:none;stroke:#b0b0b0;stroke-dasharray:5.12,1.28,0.8,1.28;stroke-dashoffset:0;stroke-width:0.8;"/>
     </g>
     <g id="line2d_6">
      <g>
       <use style="stroke:#000000;stroke-width:0.8;" x="89.700674" xlink:href="#m9def814086" y="307.584"/>
      </g>
     </g>
     <g id="text_3">
      <!-- 8 -->
      <defs>
       <path d="M 31.78125 34.625 
Q 24.75 34.625 20.71875 30.859375 
Q 16.703125 27.09375 16.703125 20.515625 
Q 16.703125 13.921875 20.71875 10.15625 
Q 24.75 6.390625 31.78125 6.390625 
Q 38.8125 6.390625 42.859375 10.171875 
Q 46.921875 13.96875 46.921875 20.515625 
Q 46.921875 27.09375 42.890625 30.859375 
Q 38.875 34.625 31.78125 34.625 
z
M 21.921875 38.8125 
Q 15.578125 40.375 12.03125 44.71875 
Q 8.5 49.078125 8.5 55.328125 
Q 8.5 64.0625 14.71875 69.140625 
Q 20.953125 74.21875 31.78125 74.21875 
Q 42.671875 74.21875 48.875 69.140625 
Q 55.078125 64.0625 55.078125 55.328125 
Q 55.078125 49.078125 51.53125 44.71875 
Q 48 40.375 41.703125 38.8125 
Q 48.828125 37.15625 52.796875 32.3125 
Q 56.78125 27.484375 56.78125 20.515625 
Q 56.78125 9.90625 50.3125 4.234375 
Q 43.84375 -1.421875 31.78125 -1.421875 
Q 19.734375 -1.421875 13.25 4.234375 
Q 6.78125 9.90625 6.78125 20.515625 
Q 6.78125 27.484375 10.78125 32.3125 
Q 14.796875 37.15625 21.921875 38.8125 
z
M 18.3125 54.390625 
Q 18.3125 48.734375 21.84375 45.5625 
Q 25.390625 42.390625 31.78125 42.390625 
Q 38.140625 42.390625 41.71875 45.5625 
Q 45.3125 48.734375 45.3125 54.390625 
Q 45.3125 60.0625 41.71875 63.234375 
Q 38.140625 66.40625 31.78125 66.40625 
Q 25.390625 66.40625 21.84375 63.234375 
Q 18.3125 60.0625 18.3125 54.390625 
z
" id="DejaVuSans-56"/>
      </defs>
      <g transform="translate(86.519424 322.182437)scale(0.1 -0.1)">
       <use xlink:href="#DejaVuSans-56"/>
      </g>
     </g>
    </g>
    <g id="xtick_4">
     <g id="line2d_7">
      <path clip-path="url(#p6d1caae8f4)" d="M 105.751011 307.584 
L 105.751011 41.472 
" style="fill:none;stroke:#b0b0b0;stroke-dasharray:5.12,1.28,0.8,1.28;stroke-dashoffset:0;stroke-width:0.8;"/>
     </g>
     <g id="line2d_8">
      <g>
       <use style="stroke:#000000;stroke-width:0.8;" x="105.751011" xlink:href="#m9def814086" y="307.584"/>
      </g>
     </g>
     <g id="text_4">
      <!-- 12 -->
      <defs>
       <path d="M 19.1875 8.296875 
L 53.609375 8.296875 
L 53.609375 0 
L 7.328125 0 
L 7.328125 8.296875 
Q 12.9375 14.109375 22.625 23.890625 
Q 32.328125 33.6875 34.8125 36.53125 
Q 39.546875 41.84375 41.421875 45.53125 
Q 43.3125 49.21875 43.3125 52.78125 
Q 43.3125 58.59375 39.234375 62.25 
Q 35.15625 65.921875 28.609375 65.921875 
Q 23.96875 65.921875 18.8125 64.3125 
Q 13.671875 62.703125 7.8125 59.421875 
L 7.8125 69.390625 
Q 13.765625 71.78125 18.9375 73 
Q 24.125 74.21875 28.421875 74.21875 
Q 39.75 74.21875 46.484375 68.546875 
Q 53.21875 62.890625 53.21875 53.421875 
Q 53.21875 48.921875 51.53125 44.890625 
Q 49.859375 40.875 45.40625 35.40625 
Q 44.1875 33.984375 37.640625 27.21875 
Q 31.109375 20.453125 19.1875 8.296875 
z
" id="DejaVuSans-50"/>
      </defs>
      <g transform="translate(99.388511 322.182437)scale(0.1 -0.1)">
       <use xlink:href="#DejaVuSans-49"/>
       <use x="63.623047" xlink:href="#DejaVuSans-50"/>
      </g>
     </g>
    </g>
    <g id="xtick_5">
     <g id="line2d_9">
      <path clip-path="url(#p6d1caae8f4)" d="M 121.801348 307.584 
L 121.801348 41.472 
" style="fill:none;stroke:#b0b0b0;stroke-dasharray:5.12,1.28,0.8,1.28;stroke-dashoffset:0;stroke-width:0.8;"/>
     </g>
     <g id="line2d_10">
      <g>
       <use style="stroke:#000000;stroke-width:0.8;" x="121.801348" xlink:href="#m9def814086" y="307.584"/>
      </g>
     </g>
     <g id="text_5">
      <!-- 16 -->
      <defs>
       <path d="M 33.015625 40.375 
Q 26.375 40.375 22.484375 35.828125 
Q 18.609375 31.296875 18.609375 23.390625 
Q 18.609375 15.53125 22.484375 10.953125 
Q 26.375 6.390625 33.015625 6.390625 
Q 39.65625 6.390625 43.53125 10.953125 
Q 47.40625 15.53125 47.40625 23.390625 
Q 47.40625 31.296875 43.53125 35.828125 
Q 39.65625 40.375 33.015625 40.375 
z
M 52.59375 71.296875 
L 52.59375 62.3125 
Q 48.875 64.0625 45.09375 64.984375 
Q 41.3125 65.921875 37.59375 65.921875 
Q 27.828125 65.921875 22.671875 59.328125 
Q 17.53125 52.734375 16.796875 39.40625 
Q 19.671875 43.65625 24.015625 45.921875 
Q 28.375 48.1875 33.59375 48.1875 
Q 44.578125 48.1875 50.953125 41.515625 
Q 57.328125 34.859375 57.328125 23.390625 
Q 57.328125 12.15625 50.6875 5.359375 
Q 44.046875 -1.421875 33.015625 -1.421875 
Q 20.359375 -1.421875 13.671875 8.265625 
Q 6.984375 17.96875 6.984375 36.375 
Q 6.984375 53.65625 15.1875 63.9375 
Q 23.390625 74.21875 37.203125 74.21875 
Q 40.921875 74.21875 44.703125 73.484375 
Q 48.484375 72.75 52.59375 71.296875 
z
" id="DejaVuSans-54"/>
      </defs>
      <g transform="translate(115.438848 322.182437)scale(0.1 -0.1)">
       <use xlink:href="#DejaVuSans-49"/>
       <use x="63.623047" xlink:href="#DejaVuSans-54"/>
      </g>
     </g>
    </g>
    <g id="xtick_6">
     <g id="line2d_11">
      <path clip-path="url(#p6d1caae8f4)" d="M 137.851685 307.584 
L 137.851685 41.472 
" style="fill:none;stroke:#b0b0b0;stroke-dasharray:5.12,1.28,0.8,1.28;stroke-dashoffset:0;stroke-width:0.8;"/>
     </g>
     <g id="line2d_12">
      <g>
       <use style="stroke:#000000;stroke-width:0.8;" x="137.851685" xlink:href="#m9def814086" y="307.584"/>
      </g>
     </g>
     <g id="text_6">
      <!-- 20 -->
      <defs>
       <path d="M 31.78125 66.40625 
Q 24.171875 66.40625 20.328125 58.90625 
Q 16.5 51.421875 16.5 36.375 
Q 16.5 21.390625 20.328125 13.890625 
Q 24.171875 6.390625 31.78125 6.390625 
Q 39.453125 6.390625 43.28125 13.890625 
Q 47.125 21.390625 47.125 36.375 
Q 47.125 51.421875 43.28125 58.90625 
Q 39.453125 66.40625 31.78125 66.40625 
z
M 31.78125 74.21875 
Q 44.046875 74.21875 50.515625 64.515625 
Q 56.984375 54.828125 56.984375 36.375 
Q 56.984375 17.96875 50.515625 8.265625 
Q 44.046875 -1.421875 31.78125 -1.421875 
Q 19.53125 -1.421875 13.0625 8.265625 
Q 6.59375 17.96875 6.59375 36.375 
Q 6.59375 54.828125 13.0625 64.515625 
Q 19.53125 74.21875 31.78125 74.21875 
z
" id="DejaVuSans-48"/>
      </defs>
      <g transform="translate(131.489185 322.182437)scale(0.1 -0.1)">
       <use xlink:href="#DejaVuSans-50"/>
       <use x="63.623047" xlink:href="#DejaVuSans-48"/>
      </g>
     </g>
    </g>
    <g id="xtick_7">
     <g id="line2d_13">
      <path clip-path="url(#p6d1caae8f4)" d="M 153.902022 307.584 
L 153.902022 41.472 
" style="fill:none;stroke:#b0b0b0;stroke-dasharray:5.12,1.28,0.8,1.28;stroke-dashoffset:0;stroke-width:0.8;"/>
     </g>
     <g id="line2d_14">
      <g>
       <use style="stroke:#000000;stroke-width:0.8;" x="153.902022" xlink:href="#m9def814086" y="307.584"/>
      </g>
     </g>
     <g id="text_7">
      <!-- 24 -->
      <g transform="translate(147.539522 322.182437)scale(0.1 -0.1)">
       <use xlink:href="#DejaVuSans-50"/>
       <use x="63.623047" xlink:href="#DejaVuSans-52"/>
      </g>
     </g>
    </g>
    <g id="xtick_8">
     <g id="line2d_15">
      <path clip-path="url(#p6d1caae8f4)" d="M 169.95236 307.584 
L 169.95236 41.472 
" style="fill:none;stroke:#b0b0b0;stroke-dasharray:5.12,1.28,0.8,1.28;stroke-dashoffset:0;stroke-width:0.8;"/>
     </g>
     <g id="line2d_16">
      <g>
       <use style="stroke:#000000;stroke-width:0.8;" x="169.95236" xlink:href="#m9def814086" y="307.584"/>
      </g>
     </g>
     <g id="text_8">
      <!-- 28 -->
      <g transform="translate(163.58986 322.182437)scale(0.1 -0.1)">
       <use xlink:href="#DejaVuSans-50"/>
       <use x="63.623047" xlink:href="#DejaVuSans-56"/>
      </g>
     </g>
    </g>
    <g id="xtick_9">
     <g id="line2d_17">
      <path clip-path="url(#p6d1caae8f4)" d="M 186.002697 307.584 
L 186.002697 41.472 
" style="fill:none;stroke:#b0b0b0;stroke-dasharray:5.12,1.28,0.8,1.28;stroke-dashoffset:0;stroke-width:0.8;"/>
     </g>
     <g id="line2d_18">
      <g>
       <use style="stroke:#000000;stroke-width:0.8;" x="186.002697" xlink:href="#m9def814086" y="307.584"/>
      </g>
     </g>
     <g id="text_9">
      <!-- 32 -->
      <defs>
       <path d="M 40.578125 39.3125 
Q 47.65625 37.796875 51.625 33 
Q 55.609375 28.21875 55.609375 21.1875 
Q 55.609375 10.40625 48.1875 4.484375 
Q 40.765625 -1.421875 27.09375 -1.421875 
Q 22.515625 -1.421875 17.65625 -0.515625 
Q 12.796875 0.390625 7.625 2.203125 
L 7.625 11.71875 
Q 11.71875 9.328125 16.59375 8.109375 
Q 21.484375 6.890625 26.8125 6.890625 
Q 36.078125 6.890625 40.9375 10.546875 
Q 45.796875 14.203125 45.796875 21.1875 
Q 45.796875 27.640625 41.28125 31.265625 
Q 36.765625 34.90625 28.71875 34.90625 
L 20.21875 34.90625 
L 20.21875 43.015625 
L 29.109375 43.015625 
Q 36.375 43.015625 40.234375 45.921875 
Q 44.09375 48.828125 44.09375 54.296875 
Q 44.09375 59.90625 40.109375 62.90625 
Q 36.140625 65.921875 28.71875 65.921875 
Q 24.65625 65.921875 20.015625 65.03125 
Q 15.375 64.15625 9.8125 62.3125 
L 9.8125 71.09375 
Q 15.4375 72.65625 20.34375 73.4375 
Q 25.25 74.21875 29.59375 74.21875 
Q 40.828125 74.21875 47.359375 69.109375 
Q 53.90625 64.015625 53.90625 55.328125 
Q 53.90625 49.265625 50.4375 45.09375 
Q 46.96875 40.921875 40.578125 39.3125 
z
" id="DejaVuSans-51"/>
      </defs>
      <g transform="translate(179.640197 322.182437)scale(0.1 -0.1)">
       <use xlink:href="#DejaVuSans-51"/>
       <use x="63.623047" xlink:href="#DejaVuSans-50"/>
      </g>
     </g>
    </g>
    <g id="xtick_10">
     <g id="line2d_19">
      <path clip-path="url(#p6d1caae8f4)" d="M 202.053034 307.584 
L 202.053034 41.472 
" style="fill:none;stroke:#b0b0b0;stroke-dasharray:5.12,1.28,0.8,1.28;stroke-dashoffset:0;stroke-width:0.8;"/>
     </g>
     <g id="line2d_20">
      <g>
       <use style="stroke:#000000;stroke-width:0.8;" x="202.053034" xlink:href="#m9def814086" y="307.584"/>
      </g>
     </g>
     <g id="text_10">
      <!-- 36 -->
      <g transform="translate(195.690534 322.182437)scale(0.1 -0.1)">
       <use xlink:href="#DejaVuSans-51"/>
       <use x="63.623047" xlink:href="#DejaVuSans-54"/>
      </g>
     </g>
    </g>
    <g id="xtick_11">
     <g id="line2d_21">
      <path clip-path="url(#p6d1caae8f4)" d="M 218.103371 307.584 
L 218.103371 41.472 
" style="fill:none;stroke:#b0b0b0;stroke-dasharray:5.12,1.28,0.8,1.28;stroke-dashoffset:0;stroke-width:0.8;"/>
     </g>
     <g id="line2d_22">
      <g>
       <use style="stroke:#000000;stroke-width:0.8;" x="218.103371" xlink:href="#m9def814086" y="307.584"/>
      </g>
     </g>
     <g id="text_11">
      <!-- 40 -->
      <g transform="translate(211.740871 322.182437)scale(0.1 -0.1)">
       <use xlink:href="#DejaVuSans-52"/>
       <use x="63.623047" xlink:href="#DejaVuSans-48"/>
      </g>
     </g>
    </g>
    <g id="xtick_12">
     <g id="line2d_23">
      <path clip-path="url(#p6d1caae8f4)" d="M 234.153708 307.584 
L 234.153708 41.472 
" style="fill:none;stroke:#b0b0b0;stroke-dasharray:5.12,1.28,0.8,1.28;stroke-dashoffset:0;stroke-width:0.8;"/>
     </g>
     <g id="line2d_24">
      <g>
       <use style="stroke:#000000;stroke-width:0.8;" x="234.153708" xlink:href="#m9def814086" y="307.584"/>
      </g>
     </g>
     <g id="text_12">
      <!-- 44 -->
      <g transform="translate(227.791208 322.182437)scale(0.1 -0.1)">
       <use xlink:href="#DejaVuSans-52"/>
       <use x="63.623047" xlink:href="#DejaVuSans-52"/>
      </g>
     </g>
    </g>
    <g id="xtick_13">
     <g id="line2d_25">
      <path clip-path="url(#p6d1caae8f4)" d="M 250.204045 307.584 
L 250.204045 41.472 
" style="fill:none;stroke:#b0b0b0;stroke-dasharray:5.12,1.28,0.8,1.28;stroke-dashoffset:0;stroke-width:0.8;"/>
     </g>
     <g id="line2d_26">
      <g>
       <use style="stroke:#000000;stroke-width:0.8;" x="250.204045" xlink:href="#m9def814086" y="307.584"/>
      </g>
     </g>
     <g id="text_13">
      <!-- 48 -->
      <g transform="translate(243.841545 322.182437)scale(0.1 -0.1)">
       <use xlink:href="#DejaVuSans-52"/>
       <use x="63.623047" xlink:href="#DejaVuSans-56"/>
      </g>
     </g>
    </g>
    <g id="xtick_14">
     <g id="line2d_27">
      <path clip-path="url(#p6d1caae8f4)" d="M 266.254382 307.584 
L 266.254382 41.472 
" style="fill:none;stroke:#b0b0b0;stroke-dasharray:5.12,1.28,0.8,1.28;stroke-dashoffset:0;stroke-width:0.8;"/>
     </g>
     <g id="line2d_28">
      <g>
       <use style="stroke:#000000;stroke-width:0.8;" x="266.254382" xlink:href="#m9def814086" y="307.584"/>
      </g>
     </g>
     <g id="text_14">
      <!-- 52 -->
      <defs>
       <path d="M 10.796875 72.90625 
L 49.515625 72.90625 
L 49.515625 64.59375 
L 19.828125 64.59375 
L 19.828125 46.734375 
Q 21.96875 47.46875 24.109375 47.828125 
Q 26.265625 48.1875 28.421875 48.1875 
Q 40.625 48.1875 47.75 41.5 
Q 54.890625 34.8125 54.890625 23.390625 
Q 54.890625 11.625 47.5625 5.09375 
Q 40.234375 -1.421875 26.90625 -1.421875 
Q 22.3125 -1.421875 17.546875 -0.640625 
Q 12.796875 0.140625 7.71875 1.703125 
L 7.71875 11.625 
Q 12.109375 9.234375 16.796875 8.0625 
Q 21.484375 6.890625 26.703125 6.890625 
Q 35.15625 6.890625 40.078125 11.328125 
Q 45.015625 15.765625 45.015625 23.390625 
Q 45.015625 31 40.078125 35.4375 
Q 35.15625 39.890625 26.703125 39.890625 
Q 22.75 39.890625 18.8125 39.015625 
Q 14.890625 38.140625 10.796875 36.28125 
z
" id="DejaVuSans-53"/>
      </defs>
      <g transform="translate(259.891882 322.182437)scale(0.1 -0.1)">
       <use xlink:href="#DejaVuSans-53"/>
       <use x="63.623047" xlink:href="#DejaVuSans-50"/>
      </g>
     </g>
    </g>
    <g id="xtick_15">
     <g id="line2d_29">
      <path clip-path="url(#p6d1caae8f4)" d="M 282.304719 307.584 
L 282.304719 41.472 
" style="fill:none;stroke:#b0b0b0;stroke-dasharray:5.12,1.28,0.8,1.28;stroke-dashoffset:0;stroke-width:0.8;"/>
     </g>
     <g id="line2d_30">
      <g>
       <use style="stroke:#000000;stroke-width:0.8;" x="282.304719" xlink:href="#m9def814086" y="307.584"/>
      </g>
     </g>
     <g id="text_15">
      <!-- 56 -->
      <g transform="translate(275.942219 322.182437)scale(0.1 -0.1)">
       <use xlink:href="#DejaVuSans-53"/>
       <use x="63.623047" xlink:href="#DejaVuSans-54"/>
      </g>
     </g>
    </g>
    <g id="xtick_16">
     <g id="line2d_31">
      <path clip-path="url(#p6d1caae8f4)" d="M 298.355056 307.584 
L 298.355056 41.472 
" style="fill:none;stroke:#b0b0b0;stroke-dasharray:5.12,1.28,0.8,1.28;stroke-dashoffset:0;stroke-width:0.8;"/>
     </g>
     <g id="line2d_32">
      <g>
       <use style="stroke:#000000;stroke-width:0.8;" x="298.355056" xlink:href="#m9def814086" y="307.584"/>
      </g>
     </g>
     <g id="text_16">
      <!-- 60 -->
      <g transform="translate(291.992556 322.182437)scale(0.1 -0.1)">
       <use xlink:href="#DejaVuSans-54"/>
       <use x="63.623047" xlink:href="#DejaVuSans-48"/>
      </g>
     </g>
    </g>
    <g id="xtick_17">
     <g id="line2d_33">
      <path clip-path="url(#p6d1caae8f4)" d="M 314.405393 307.584 
L 314.405393 41.472 
" style="fill:none;stroke:#b0b0b0;stroke-dasharray:5.12,1.28,0.8,1.28;stroke-dashoffset:0;stroke-width:0.8;"/>
     </g>
     <g id="line2d_34">
      <g>
       <use style="stroke:#000000;stroke-width:0.8;" x="314.405393" xlink:href="#m9def814086" y="307.584"/>
      </g>
     </g>
     <g id="text_17">
      <!-- 64 -->
      <g transform="translate(308.042893 322.182437)scale(0.1 -0.1)">
       <use xlink:href="#DejaVuSans-54"/>
       <use x="63.623047" xlink:href="#DejaVuSans-52"/>
      </g>
     </g>
    </g>
    <g id="xtick_18">
     <g id="line2d_35">
      <path clip-path="url(#p6d1caae8f4)" d="M 330.45573 307.584 
L 330.45573 41.472 
" style="fill:none;stroke:#b0b0b0;stroke-dasharray:5.12,1.28,0.8,1.28;stroke-dashoffset:0;stroke-width:0.8;"/>
     </g>
     <g id="line2d_36">
      <g>
       <use style="stroke:#000000;stroke-width:0.8;" x="330.45573" xlink:href="#m9def814086" y="307.584"/>
      </g>
     </g>
     <g id="text_18">
      <!-- 68 -->
      <g transform="translate(324.09323 322.182437)scale(0.1 -0.1)">
       <use xlink:href="#DejaVuSans-54"/>
       <use x="63.623047" xlink:href="#DejaVuSans-56"/>
      </g>
     </g>
    </g>
    <g id="xtick_19">
     <g id="line2d_37">
      <path clip-path="url(#p6d1caae8f4)" d="M 346.506067 307.584 
L 346.506067 41.472 
" style="fill:none;stroke:#b0b0b0;stroke-dasharray:5.12,1.28,0.8,1.28;stroke-dashoffset:0;stroke-width:0.8;"/>
     </g>
     <g id="line2d_38">
      <g>
       <use style="stroke:#000000;stroke-width:0.8;" x="346.506067" xlink:href="#m9def814086" y="307.584"/>
      </g>
     </g>
     <g id="text_19">
      <!-- 72 -->
      <defs>
       <path d="M 8.203125 72.90625 
L 55.078125 72.90625 
L 55.078125 68.703125 
L 28.609375 0 
L 18.3125 0 
L 43.21875 64.59375 
L 8.203125 64.59375 
z
" id="DejaVuSans-55"/>
      </defs>
      <g transform="translate(340.143567 322.182437)scale(0.1 -0.1)">
       <use xlink:href="#DejaVuSans-55"/>
       <use x="63.623047" xlink:href="#DejaVuSans-50"/>
      </g>
     </g>
    </g>
    <g id="xtick_20">
     <g id="line2d_39">
      <path clip-path="url(#p6d1caae8f4)" d="M 362.556404 307.584 
L 362.556404 41.472 
" style="fill:none;stroke:#b0b0b0;stroke-dasharray:5.12,1.28,0.8,1.28;stroke-dashoffset:0;stroke-width:0.8;"/>
     </g>
     <g id="line2d_40">
      <g>
       <use style="stroke:#000000;stroke-width:0.8;" x="362.556404" xlink:href="#m9def814086" y="307.584"/>
      </g>
     </g>
     <g id="text_20">
      <!-- 76 -->
      <g transform="translate(356.193904 322.182437)scale(0.1 -0.1)">
       <use xlink:href="#DejaVuSans-55"/>
       <use x="63.623047" xlink:href="#DejaVuSans-54"/>
      </g>
     </g>
    </g>
    <g id="xtick_21">
     <g id="line2d_41">
      <path clip-path="url(#p6d1caae8f4)" d="M 378.606742 307.584 
L 378.606742 41.472 
" style="fill:none;stroke:#b0b0b0;stroke-dasharray:5.12,1.28,0.8,1.28;stroke-dashoffset:0;stroke-width:0.8;"/>
     </g>
     <g id="line2d_42">
      <g>
       <use style="stroke:#000000;stroke-width:0.8;" x="378.606742" xlink:href="#m9def814086" y="307.584"/>
      </g>
     </g>
     <g id="text_21">
      <!-- 80 -->
      <g transform="translate(372.244242 322.182437)scale(0.1 -0.1)">
       <use xlink:href="#DejaVuSans-56"/>
       <use x="63.623047" xlink:href="#DejaVuSans-48"/>
      </g>
     </g>
    </g>
    <g id="xtick_22">
     <g id="line2d_43">
      <path clip-path="url(#p6d1caae8f4)" d="M 394.657079 307.584 
L 394.657079 41.472 
" style="fill:none;stroke:#b0b0b0;stroke-dasharray:5.12,1.28,0.8,1.28;stroke-dashoffset:0;stroke-width:0.8;"/>
     </g>
     <g id="line2d_44">
      <g>
       <use style="stroke:#000000;stroke-width:0.8;" x="394.657079" xlink:href="#m9def814086" y="307.584"/>
      </g>
     </g>
     <g id="text_22">
      <!-- 84 -->
      <g transform="translate(388.294579 322.182437)scale(0.1 -0.1)">
       <use xlink:href="#DejaVuSans-56"/>
       <use x="63.623047" xlink:href="#DejaVuSans-52"/>
      </g>
     </g>
    </g>
    <g id="xtick_23">
     <g id="line2d_45">
      <path clip-path="url(#p6d1caae8f4)" d="M 410.707416 307.584 
L 410.707416 41.472 
" style="fill:none;stroke:#b0b0b0;stroke-dasharray:5.12,1.28,0.8,1.28;stroke-dashoffset:0;stroke-width:0.8;"/>
     </g>
     <g id="line2d_46">
      <g>
       <use style="stroke:#000000;stroke-width:0.8;" x="410.707416" xlink:href="#m9def814086" y="307.584"/>
      </g>
     </g>
     <g id="text_23">
      <!-- 88 -->
      <g transform="translate(404.344916 322.182437)scale(0.1 -0.1)">
       <use xlink:href="#DejaVuSans-56"/>
       <use x="63.623047" xlink:href="#DejaVuSans-56"/>
      </g>
     </g>
    </g>
    <g id="text_24">
     <!-- threads -->
     <defs>
      <path d="M 18.3125 70.21875 
L 18.3125 54.6875 
L 36.8125 54.6875 
L 36.8125 47.703125 
L 18.3125 47.703125 
L 18.3125 18.015625 
Q 18.3125 11.328125 20.140625 9.421875 
Q 21.96875 7.515625 27.59375 7.515625 
L 36.8125 7.515625 
L 36.8125 0 
L 27.59375 0 
Q 17.1875 0 13.234375 3.875 
Q 9.28125 7.765625 9.28125 18.015625 
L 9.28125 47.703125 
L 2.6875 47.703125 
L 2.6875 54.6875 
L 9.28125 54.6875 
L 9.28125 70.21875 
z
" id="DejaVuSans-116"/>
      <path d="M 54.890625 33.015625 
L 54.890625 0 
L 45.90625 0 
L 45.90625 32.71875 
Q 45.90625 40.484375 42.875 44.328125 
Q 39.84375 48.1875 33.796875 48.1875 
Q 26.515625 48.1875 22.3125 43.546875 
Q 18.109375 38.921875 18.109375 30.90625 
L 18.109375 0 
L 9.078125 0 
L 9.078125 75.984375 
L 18.109375 75.984375 
L 18.109375 46.1875 
Q 21.34375 51.125 25.703125 53.5625 
Q 30.078125 56 35.796875 56 
Q 45.21875 56 50.046875 50.171875 
Q 54.890625 44.34375 54.890625 33.015625 
z
" id="DejaVuSans-104"/>
      <path d="M 41.109375 46.296875 
Q 39.59375 47.171875 37.8125 47.578125 
Q 36.03125 48 33.890625 48 
Q 26.265625 48 22.1875 43.046875 
Q 18.109375 38.09375 18.109375 28.8125 
L 18.109375 0 
L 9.078125 0 
L 9.078125 54.6875 
L 18.109375 54.6875 
L 18.109375 46.1875 
Q 20.953125 51.171875 25.484375 53.578125 
Q 30.03125 56 36.53125 56 
Q 37.453125 56 38.578125 55.875 
Q 39.703125 55.765625 41.0625 55.515625 
z
" id="DejaVuSans-114"/>
      <path d="M 56.203125 29.59375 
L 56.203125 25.203125 
L 14.890625 25.203125 
Q 15.484375 15.921875 20.484375 11.0625 
Q 25.484375 6.203125 34.421875 6.203125 
Q 39.59375 6.203125 44.453125 7.46875 
Q 49.3125 8.734375 54.109375 11.28125 
L 54.109375 2.78125 
Q 49.265625 0.734375 44.1875 -0.34375 
Q 39.109375 -1.421875 33.890625 -1.421875 
Q 20.796875 -1.421875 13.15625 6.1875 
Q 5.515625 13.8125 5.515625 26.8125 
Q 5.515625 40.234375 12.765625 48.109375 
Q 20.015625 56 32.328125 56 
Q 43.359375 56 49.78125 48.890625 
Q 56.203125 41.796875 56.203125 29.59375 
z
M 47.21875 32.234375 
Q 47.125 39.59375 43.09375 43.984375 
Q 39.0625 48.390625 32.421875 48.390625 
Q 24.90625 48.390625 20.390625 44.140625 
Q 15.875 39.890625 15.1875 32.171875 
z
" id="DejaVuSans-101"/>
      <path d="M 34.28125 27.484375 
Q 23.390625 27.484375 19.1875 25 
Q 14.984375 22.515625 14.984375 16.5 
Q 14.984375 11.71875 18.140625 8.90625 
Q 21.296875 6.109375 26.703125 6.109375 
Q 34.1875 6.109375 38.703125 11.40625 
Q 43.21875 16.703125 43.21875 25.484375 
L 43.21875 27.484375 
z
M 52.203125 31.203125 
L 52.203125 0 
L 43.21875 0 
L 43.21875 8.296875 
Q 40.140625 3.328125 35.546875 0.953125 
Q 30.953125 -1.421875 24.3125 -1.421875 
Q 15.921875 -1.421875 10.953125 3.296875 
Q 6 8.015625 6 15.921875 
Q 6 25.140625 12.171875 29.828125 
Q 18.359375 34.515625 30.609375 34.515625 
L 43.21875 34.515625 
L 43.21875 35.40625 
Q 43.21875 41.609375 39.140625 45 
Q 35.0625 48.390625 27.6875 48.390625 
Q 23 48.390625 18.546875 47.265625 
Q 14.109375 46.140625 10.015625 43.890625 
L 10.015625 52.203125 
Q 14.9375 54.109375 19.578125 55.046875 
Q 24.21875 56 28.609375 56 
Q 40.484375 56 46.34375 49.84375 
Q 52.203125 43.703125 52.203125 31.203125 
z
" id="DejaVuSans-97"/>
      <path d="M 45.40625 46.390625 
L 45.40625 75.984375 
L 54.390625 75.984375 
L 54.390625 0 
L 45.40625 0 
L 45.40625 8.203125 
Q 42.578125 3.328125 38.25 0.953125 
Q 33.9375 -1.421875 27.875 -1.421875 
Q 17.96875 -1.421875 11.734375 6.484375 
Q 5.515625 14.40625 5.515625 27.296875 
Q 5.515625 40.1875 11.734375 48.09375 
Q 17.96875 56 27.875 56 
Q 33.9375 56 38.25 53.625 
Q 42.578125 51.265625 45.40625 46.390625 
z
M 14.796875 27.296875 
Q 14.796875 17.390625 18.875 11.75 
Q 22.953125 6.109375 30.078125 6.109375 
Q 37.203125 6.109375 41.296875 11.75 
Q 45.40625 17.390625 45.40625 27.296875 
Q 45.40625 37.203125 41.296875 42.84375 
Q 37.203125 48.484375 30.078125 48.484375 
Q 22.953125 48.484375 18.875 42.84375 
Q 14.796875 37.203125 14.796875 27.296875 
z
" id="DejaVuSans-100"/>
      <path d="M 44.28125 53.078125 
L 44.28125 44.578125 
Q 40.484375 46.53125 36.375 47.5 
Q 32.28125 48.484375 27.875 48.484375 
Q 21.1875 48.484375 17.84375 46.4375 
Q 14.5 44.390625 14.5 40.28125 
Q 14.5 37.15625 16.890625 35.375 
Q 19.28125 33.59375 26.515625 31.984375 
L 29.59375 31.296875 
Q 39.15625 29.25 43.1875 25.515625 
Q 47.21875 21.78125 47.21875 15.09375 
Q 47.21875 7.46875 41.1875 3.015625 
Q 35.15625 -1.421875 24.609375 -1.421875 
Q 20.21875 -1.421875 15.453125 -0.5625 
Q 10.6875 0.296875 5.421875 2 
L 5.421875 11.28125 
Q 10.40625 8.6875 15.234375 7.390625 
Q 20.0625 6.109375 24.8125 6.109375 
Q 31.15625 6.109375 34.5625 8.28125 
Q 37.984375 10.453125 37.984375 14.40625 
Q 37.984375 18.0625 35.515625 20.015625 
Q 33.0625 21.96875 24.703125 23.78125 
L 21.578125 24.515625 
Q 13.234375 26.265625 9.515625 29.90625 
Q 5.8125 33.546875 5.8125 39.890625 
Q 5.8125 47.609375 11.28125 51.796875 
Q 16.75 56 26.8125 56 
Q 31.78125 56 36.171875 55.265625 
Q 40.578125 54.546875 44.28125 53.078125 
z
" id="DejaVuSans-115"/>
     </defs>
     <g transform="translate(217.168594 335.860562)scale(0.1 -0.1)">
      <use xlink:href="#DejaVuSans-116"/>
      <use x="39.208984" xlink:href="#DejaVuSans-104"/>
      <use x="102.587891" xlink:href="#DejaVuSans-114"/>
      <use x="141.451172" xlink:href="#DejaVuSans-101"/>
      <use x="202.974609" xlink:href="#DejaVuSans-97"/>
      <use x="264.253906" xlink:href="#DejaVuSans-100"/>
      <use x="327.730469" xlink:href="#DejaVuSans-115"/>
     </g>
    </g>
   </g>
   <g id="matplotlib.axis_2">
    <g id="ytick_1">
     <g id="line2d_47">
      <path clip-path="url(#p6d1caae8f4)" d="M 57.6 292.251115 
L 414.72 292.251115 
" style="fill:none;stroke:#b0b0b0;stroke-dasharray:5.12,1.28,0.8,1.28;stroke-dashoffset:0;stroke-width:0.8;"/>
     </g>
     <g id="line2d_48">
      <defs>
       <path d="M 0 0 
L -3.5 0 
" id="m352812492b" style="stroke:#000000;stroke-width:0.8;"/>
      </defs>
      <g>
       <use style="stroke:#000000;stroke-width:0.8;" x="57.6" xlink:href="#m352812492b" y="292.251115"/>
      </g>
     </g>
     <g id="text_25">
      <!-- 0.5 -->
      <defs>
       <path d="M 10.6875 12.40625 
L 21 12.40625 
L 21 0 
L 10.6875 0 
z
" id="DejaVuSans-46"/>
      </defs>
      <g transform="translate(34.696875 296.050334)scale(0.1 -0.1)">
       <use xlink:href="#DejaVuSans-48"/>
       <use x="63.623047" xlink:href="#DejaVuSans-46"/>
       <use x="95.410156" xlink:href="#DejaVuSans-53"/>
      </g>
     </g>
    </g>
    <g id="ytick_2">
     <g id="line2d_49">
      <path clip-path="url(#p6d1caae8f4)" d="M 57.6 240.849312 
L 414.72 240.849312 
" style="fill:none;stroke:#b0b0b0;stroke-dasharray:5.12,1.28,0.8,1.28;stroke-dashoffset:0;stroke-width:0.8;"/>
     </g>
     <g id="line2d_50">
      <g>
       <use style="stroke:#000000;stroke-width:0.8;" x="57.6" xlink:href="#m352812492b" y="240.849312"/>
      </g>
     </g>
     <g id="text_26">
      <!-- 1.0 -->
      <g transform="translate(34.696875 244.64853)scale(0.1 -0.1)">
       <use xlink:href="#DejaVuSans-49"/>
       <use x="63.623047" xlink:href="#DejaVuSans-46"/>
       <use x="95.410156" xlink:href="#DejaVuSans-48"/>
      </g>
     </g>
    </g>
    <g id="ytick_3">
     <g id="line2d_51">
      <path clip-path="url(#p6d1caae8f4)" d="M 57.6 189.447508 
L 414.72 189.447508 
" style="fill:none;stroke:#b0b0b0;stroke-dasharray:5.12,1.28,0.8,1.28;stroke-dashoffset:0;stroke-width:0.8;"/>
     </g>
     <g id="line2d_52">
      <g>
       <use style="stroke:#000000;stroke-width:0.8;" x="57.6" xlink:href="#m352812492b" y="189.447508"/>
      </g>
     </g>
     <g id="text_27">
      <!-- 1.5 -->
      <g transform="translate(34.696875 193.246727)scale(0.1 -0.1)">
       <use xlink:href="#DejaVuSans-49"/>
       <use x="63.623047" xlink:href="#DejaVuSans-46"/>
       <use x="95.410156" xlink:href="#DejaVuSans-53"/>
      </g>
     </g>
    </g>
    <g id="ytick_4">
     <g id="line2d_53">
      <path clip-path="url(#p6d1caae8f4)" d="M 57.6 138.045704 
L 414.72 138.045704 
" style="fill:none;stroke:#b0b0b0;stroke-dasharray:5.12,1.28,0.8,1.28;stroke-dashoffset:0;stroke-width:0.8;"/>
     </g>
     <g id="line2d_54">
      <g>
       <use style="stroke:#000000;stroke-width:0.8;" x="57.6" xlink:href="#m352812492b" y="138.045704"/>
      </g>
     </g>
     <g id="text_28">
      <!-- 2.0 -->
      <g transform="translate(34.696875 141.844923)scale(0.1 -0.1)">
       <use xlink:href="#DejaVuSans-50"/>
       <use x="63.623047" xlink:href="#DejaVuSans-46"/>
       <use x="95.410156" xlink:href="#DejaVuSans-48"/>
      </g>
     </g>
    </g>
    <g id="ytick_5">
     <g id="line2d_55">
      <path clip-path="url(#p6d1caae8f4)" d="M 57.6 86.643901 
L 414.72 86.643901 
" style="fill:none;stroke:#b0b0b0;stroke-dasharray:5.12,1.28,0.8,1.28;stroke-dashoffset:0;stroke-width:0.8;"/>
     </g>
     <g id="line2d_56">
      <g>
       <use style="stroke:#000000;stroke-width:0.8;" x="57.6" xlink:href="#m352812492b" y="86.643901"/>
      </g>
     </g>
     <g id="text_29">
      <!-- 2.5 -->
      <g transform="translate(34.696875 90.44312)scale(0.1 -0.1)">
       <use xlink:href="#DejaVuSans-50"/>
       <use x="63.623047" xlink:href="#DejaVuSans-46"/>
       <use x="95.410156" xlink:href="#DejaVuSans-53"/>
      </g>
     </g>
    </g>
    <g id="text_30">
     <!-- duration (s) -->
     <defs>
      <path d="M 8.5 21.578125 
L 8.5 54.6875 
L 17.484375 54.6875 
L 17.484375 21.921875 
Q 17.484375 14.15625 20.5 10.265625 
Q 23.53125 6.390625 29.59375 6.390625 
Q 36.859375 6.390625 41.078125 11.03125 
Q 45.3125 15.671875 45.3125 23.6875 
L 45.3125 54.6875 
L 54.296875 54.6875 
L 54.296875 0 
L 45.3125 0 
L 45.3125 8.40625 
Q 42.046875 3.421875 37.71875 1 
Q 33.40625 -1.421875 27.6875 -1.421875 
Q 18.265625 -1.421875 13.375 4.4375 
Q 8.5 10.296875 8.5 21.578125 
z
M 31.109375 56 
z
" id="DejaVuSans-117"/>
      <path d="M 9.421875 54.6875 
L 18.40625 54.6875 
L 18.40625 0 
L 9.421875 0 
z
M 9.421875 75.984375 
L 18.40625 75.984375 
L 18.40625 64.59375 
L 9.421875 64.59375 
z
" id="DejaVuSans-105"/>
      <path d="M 30.609375 48.390625 
Q 23.390625 48.390625 19.1875 42.75 
Q 14.984375 37.109375 14.984375 27.296875 
Q 14.984375 17.484375 19.15625 11.84375 
Q 23.34375 6.203125 30.609375 6.203125 
Q 37.796875 6.203125 41.984375 11.859375 
Q 46.1875 17.53125 46.1875 27.296875 
Q 46.1875 37.015625 41.984375 42.703125 
Q 37.796875 48.390625 30.609375 48.390625 
z
M 30.609375 56 
Q 42.328125 56 49.015625 48.375 
Q 55.71875 40.765625 55.71875 27.296875 
Q 55.71875 13.875 49.015625 6.21875 
Q 42.328125 -1.421875 30.609375 -1.421875 
Q 18.84375 -1.421875 12.171875 6.21875 
Q 5.515625 13.875 5.515625 27.296875 
Q 5.515625 40.765625 12.171875 48.375 
Q 18.84375 56 30.609375 56 
z
" id="DejaVuSans-111"/>
      <path d="M 54.890625 33.015625 
L 54.890625 0 
L 45.90625 0 
L 45.90625 32.71875 
Q 45.90625 40.484375 42.875 44.328125 
Q 39.84375 48.1875 33.796875 48.1875 
Q 26.515625 48.1875 22.3125 43.546875 
Q 18.109375 38.921875 18.109375 30.90625 
L 18.109375 0 
L 9.078125 0 
L 9.078125 54.6875 
L 18.109375 54.6875 
L 18.109375 46.1875 
Q 21.34375 51.125 25.703125 53.5625 
Q 30.078125 56 35.796875 56 
Q 45.21875 56 50.046875 50.171875 
Q 54.890625 44.34375 54.890625 33.015625 
z
" id="DejaVuSans-110"/>
      <path id="DejaVuSans-32"/>
      <path d="M 31 75.875 
Q 24.46875 64.65625 21.28125 53.65625 
Q 18.109375 42.671875 18.109375 31.390625 
Q 18.109375 20.125 21.3125 9.0625 
Q 24.515625 -2 31 -13.1875 
L 23.1875 -13.1875 
Q 15.875 -1.703125 12.234375 9.375 
Q 8.59375 20.453125 8.59375 31.390625 
Q 8.59375 42.28125 12.203125 53.3125 
Q 15.828125 64.359375 23.1875 75.875 
z
" id="DejaVuSans-40"/>
      <path d="M 8.015625 75.875 
L 15.828125 75.875 
Q 23.140625 64.359375 26.78125 53.3125 
Q 30.421875 42.28125 30.421875 31.390625 
Q 30.421875 20.453125 26.78125 9.375 
Q 23.140625 -1.703125 15.828125 -13.1875 
L 8.015625 -13.1875 
Q 14.5 -2 17.703125 9.0625 
Q 20.90625 20.125 20.90625 31.390625 
Q 20.90625 42.671875 17.703125 53.65625 
Q 14.5 64.65625 8.015625 75.875 
z
" id="DejaVuSans-41"/>
     </defs>
     <g transform="translate(28.617187 203.663156)rotate(-90)scale(0.1 -0.1)">
      <use xlink:href="#DejaVuSans-100"/>
      <use x="63.476562" xlink:href="#DejaVuSans-117"/>
      <use x="126.855469" xlink:href="#DejaVuSans-114"/>
      <use x="167.96875" xlink:href="#DejaVuSans-97"/>
      <use x="229.248047" xlink:href="#DejaVuSans-116"/>
      <use x="268.457031" xlink:href="#DejaVuSans-105"/>
      <use x="296.240234" xlink:href="#DejaVuSans-111"/>
      <use x="357.421875" xlink:href="#DejaVuSans-110"/>
      <use x="420.800781" xlink:href="#DejaVuSans-32"/>
      <use x="452.587891" xlink:href="#DejaVuSans-40"/>
      <use x="491.601562" xlink:href="#DejaVuSans-115"/>
      <use x="543.701172" xlink:href="#DejaVuSans-41"/>
     </g>
    </g>
   </g>
   <g id="line2d_57">
    <path clip-path="url(#p6d1caae8f4)" d="M 61.612584 72.398191 
L 65.625169 187.958872 
L 69.637753 225.526921 
L 73.650337 244.368779 
L 77.662921 256.861208 
L 81.675506 262.740015 
L 85.68809 271.19777 
L 89.700674 275.169456 
L 93.713258 280.836568 
L 97.725843 284.154172 
L 101.738427 286.386212 
L 105.751011 288.552148 
L 109.763596 289.66356 
L 113.77618 291.228423 
L 117.788764 291.825347 
L 121.801348 292.76025 
L 125.813933 293.573393 
L 129.826517 294.072618 
L 133.839101 294.548825 
L 137.851685 294.627976 
L 141.86427 294.111754 
L 145.876854 294.718359 
L 149.889438 295.042883 
L 153.902022 294.490862 
L 157.914607 294.737915 
L 161.927191 293.83609 
L 165.939775 294.667658 
L 169.95236 294.992574 
L 173.964944 295.488 
L 177.977528 294.653575 
L 181.990112 295.060183 
L 186.002697 294.948973 
L 190.015281 295.017791 
L 194.027865 294.932306 
L 198.040449 294.906388 
L 202.053034 294.790581 
L 206.065618 294.825273 
L 210.078202 294.331149 
L 214.090787 294.580321 
L 218.103371 294.736094 
L 222.115955 294.367246 
L 226.128539 294.938479 
L 230.141124 294.132886 
L 234.153708 294.053262 
L 238.166292 293.87606 
L 242.178876 293.767483 
L 246.191461 294.234701 
L 250.204045 294.044806 
L 254.216629 294.118218 
L 258.229213 291.387723 
L 262.241798 291.109317 
L 266.254382 293.370731 
L 270.266966 293.462347 
L 274.279551 293.726747 
L 278.292135 293.056765 
L 282.304719 293.828783 
L 286.317303 293.224944 
L 290.329888 293.504172 
L 294.342472 293.858889 
L 298.355056 294.193902 
L 302.36764 293.778747 
L 306.380225 293.54813 
L 310.392809 293.391204 
L 314.405393 293.399667 
L 318.417978 293.70793 
L 322.430562 293.265071 
L 326.443146 293.214604 
L 330.45573 293.213942 
L 334.468315 293.307274 
L 338.480899 292.75047 
L 342.493483 292.638231 
L 346.506067 292.572634 
L 350.518652 293.021134 
L 354.531236 292.779981 
L 358.54382 293.168458 
L 362.556404 292.80406 
L 366.568989 292.695903 
L 370.581573 292.226325 
L 374.594157 292.660861 
L 378.606742 292.48286 
L 382.619326 292.434358 
L 386.63191 292.234872 
L 390.644494 291.994899 
L 394.657079 291.926662 
L 398.669663 291.878629 
L 402.682247 291.775955 
L 406.694831 292.092019 
L 410.707416 292.054452 
" style="fill:none;stroke:#0000ff;stroke-dasharray:1.5,2.475;stroke-dashoffset:0;stroke-width:1.5;"/>
    <defs>
     <path d="M 0 1.5 
C 0.397805 1.5 0.77937 1.341951 1.06066 1.06066 
C 1.341951 0.77937 1.5 0.397805 1.5 0 
C 1.5 -0.397805 1.341951 -0.77937 1.06066 -1.06066 
C 0.77937 -1.341951 0.397805 -1.5 0 -1.5 
C -0.397805 -1.5 -0.77937 -1.341951 -1.06066 -1.06066 
C -1.341951 -0.77937 -1.5 -0.397805 -1.5 0 
C -1.5 0.397805 -1.341951 0.77937 -1.06066 1.06066 
C -0.77937 1.341951 -0.397805 1.5 0 1.5 
z
" id="md53b903cb8" style="stroke:#0000ff;"/>
    </defs>
    <g clip-path="url(#p6d1caae8f4)">
     <use style="fill:#0000ff;stroke:#0000ff;" x="61.612584" xlink:href="#md53b903cb8" y="72.398191"/>
     <use style="fill:#0000ff;stroke:#0000ff;" x="65.625169" xlink:href="#md53b903cb8" y="187.958872"/>
     <use style="fill:#0000ff;stroke:#0000ff;" x="69.637753" xlink:href="#md53b903cb8" y="225.526921"/>
     <use style="fill:#0000ff;stroke:#0000ff;" x="73.650337" xlink:href="#md53b903cb8" y="244.368779"/>
     <use style="fill:#0000ff;stroke:#0000ff;" x="77.662921" xlink:href="#md53b903cb8" y="256.861208"/>
     <use style="fill:#0000ff;stroke:#0000ff;" x="81.675506" xlink:href="#md53b903cb8" y="262.740015"/>
     <use style="fill:#0000ff;stroke:#0000ff;" x="85.68809" xlink:href="#md53b903cb8" y="271.19777"/>
     <use style="fill:#0000ff;stroke:#0000ff;" x="89.700674" xlink:href="#md53b903cb8" y="275.169456"/>
     <use style="fill:#0000ff;stroke:#0000ff;" x="93.713258" xlink:href="#md53b903cb8" y="280.836568"/>
     <use style="fill:#0000ff;stroke:#0000ff;" x="97.725843" xlink:href="#md53b903cb8" y="284.154172"/>
     <use style="fill:#0000ff;stroke:#0000ff;" x="101.738427" xlink:href="#md53b903cb8" y="286.386212"/>
     <use style="fill:#0000ff;stroke:#0000ff;" x="105.751011" xlink:href="#md53b903cb8" y="288.552148"/>
     <use style="fill:#0000ff;stroke:#0000ff;" x="109.763596" xlink:href="#md53b903cb8" y="289.66356"/>
     <use style="fill:#0000ff;stroke:#0000ff;" x="113.77618" xlink:href="#md53b903cb8" y="291.228423"/>
     <use style="fill:#0000ff;stroke:#0000ff;" x="117.788764" xlink:href="#md53b903cb8" y="291.825347"/>
     <use style="fill:#0000ff;stroke:#0000ff;" x="121.801348" xlink:href="#md53b903cb8" y="292.76025"/>
     <use style="fill:#0000ff;stroke:#0000ff;" x="125.813933" xlink:href="#md53b903cb8" y="293.573393"/>
     <use style="fill:#0000ff;stroke:#0000ff;" x="129.826517" xlink:href="#md53b903cb8" y="294.072618"/>
     <use style="fill:#0000ff;stroke:#0000ff;" x="133.839101" xlink:href="#md53b903cb8" y="294.548825"/>
     <use style="fill:#0000ff;stroke:#0000ff;" x="137.851685" xlink:href="#md53b903cb8" y="294.627976"/>
     <use style="fill:#0000ff;stroke:#0000ff;" x="141.86427" xlink:href="#md53b903cb8" y="294.111754"/>
     <use style="fill:#0000ff;stroke:#0000ff;" x="145.876854" xlink:href="#md53b903cb8" y="294.718359"/>
     <use style="fill:#0000ff;stroke:#0000ff;" x="149.889438" xlink:href="#md53b903cb8" y="295.042883"/>
     <use style="fill:#0000ff;stroke:#0000ff;" x="153.902022" xlink:href="#md53b903cb8" y="294.490862"/>
     <use style="fill:#0000ff;stroke:#0000ff;" x="157.914607" xlink:href="#md53b903cb8" y="294.737915"/>
     <use style="fill:#0000ff;stroke:#0000ff;" x="161.927191" xlink:href="#md53b903cb8" y="293.83609"/>
     <use style="fill:#0000ff;stroke:#0000ff;" x="165.939775" xlink:href="#md53b903cb8" y="294.667658"/>
     <use style="fill:#0000ff;stroke:#0000ff;" x="169.95236" xlink:href="#md53b903cb8" y="294.992574"/>
     <use style="fill:#0000ff;stroke:#0000ff;" x="173.964944" xlink:href="#md53b903cb8" y="295.488"/>
     <use style="fill:#0000ff;stroke:#0000ff;" x="177.977528" xlink:href="#md53b903cb8" y="294.653575"/>
     <use style="fill:#0000ff;stroke:#0000ff;" x="181.990112" xlink:href="#md53b903cb8" y="295.060183"/>
     <use style="fill:#0000ff;stroke:#0000ff;" x="186.002697" xlink:href="#md53b903cb8" y="294.948973"/>
     <use style="fill:#0000ff;stroke:#0000ff;" x="190.015281" xlink:href="#md53b903cb8" y="295.017791"/>
     <use style="fill:#0000ff;stroke:#0000ff;" x="194.027865" xlink:href="#md53b903cb8" y="294.932306"/>
     <use style="fill:#0000ff;stroke:#0000ff;" x="198.040449" xlink:href="#md53b903cb8" y="294.906388"/>
     <use style="fill:#0000ff;stroke:#0000ff;" x="202.053034" xlink:href="#md53b903cb8" y="294.790581"/>
     <use style="fill:#0000ff;stroke:#0000ff;" x="206.065618" xlink:href="#md53b903cb8" y="294.825273"/>
     <use style="fill:#0000ff;stroke:#0000ff;" x="210.078202" xlink:href="#md53b903cb8" y="294.331149"/>
     <use style="fill:#0000ff;stroke:#0000ff;" x="214.090787" xlink:href="#md53b903cb8" y="294.580321"/>
     <use style="fill:#0000ff;stroke:#0000ff;" x="218.103371" xlink:href="#md53b903cb8" y="294.736094"/>
     <use style="fill:#0000ff;stroke:#0000ff;" x="222.115955" xlink:href="#md53b903cb8" y="294.367246"/>
     <use style="fill:#0000ff;stroke:#0000ff;" x="226.128539" xlink:href="#md53b903cb8" y="294.938479"/>
     <use style="fill:#0000ff;stroke:#0000ff;" x="230.141124" xlink:href="#md53b903cb8" y="294.132886"/>
     <use style="fill:#0000ff;stroke:#0000ff;" x="234.153708" xlink:href="#md53b903cb8" y="294.053262"/>
     <use style="fill:#0000ff;stroke:#0000ff;" x="238.166292" xlink:href="#md53b903cb8" y="293.87606"/>
     <use style="fill:#0000ff;stroke:#0000ff;" x="242.178876" xlink:href="#md53b903cb8" y="293.767483"/>
     <use style="fill:#0000ff;stroke:#0000ff;" x="246.191461" xlink:href="#md53b903cb8" y="294.234701"/>
     <use style="fill:#0000ff;stroke:#0000ff;" x="250.204045" xlink:href="#md53b903cb8" y="294.044806"/>
     <use style="fill:#0000ff;stroke:#0000ff;" x="254.216629" xlink:href="#md53b903cb8" y="294.118218"/>
     <use style="fill:#0000ff;stroke:#0000ff;" x="258.229213" xlink:href="#md53b903cb8" y="291.387723"/>
     <use style="fill:#0000ff;stroke:#0000ff;" x="262.241798" xlink:href="#md53b903cb8" y="291.109317"/>
     <use style="fill:#0000ff;stroke:#0000ff;" x="266.254382" xlink:href="#md53b903cb8" y="293.370731"/>
     <use style="fill:#0000ff;stroke:#0000ff;" x="270.266966" xlink:href="#md53b903cb8" y="293.462347"/>
     <use style="fill:#0000ff;stroke:#0000ff;" x="274.279551" xlink:href="#md53b903cb8" y="293.726747"/>
     <use style="fill:#0000ff;stroke:#0000ff;" x="278.292135" xlink:href="#md53b903cb8" y="293.056765"/>
     <use style="fill:#0000ff;stroke:#0000ff;" x="282.304719" xlink:href="#md53b903cb8" y="293.828783"/>
     <use style="fill:#0000ff;stroke:#0000ff;" x="286.317303" xlink:href="#md53b903cb8" y="293.224944"/>
     <use style="fill:#0000ff;stroke:#0000ff;" x="290.329888" xlink:href="#md53b903cb8" y="293.504172"/>
     <use style="fill:#0000ff;stroke:#0000ff;" x="294.342472" xlink:href="#md53b903cb8" y="293.858889"/>
     <use style="fill:#0000ff;stroke:#0000ff;" x="298.355056" xlink:href="#md53b903cb8" y="294.193902"/>
     <use style="fill:#0000ff;stroke:#0000ff;" x="302.36764" xlink:href="#md53b903cb8" y="293.778747"/>
     <use style="fill:#0000ff;stroke:#0000ff;" x="306.380225" xlink:href="#md53b903cb8" y="293.54813"/>
     <use style="fill:#0000ff;stroke:#0000ff;" x="310.392809" xlink:href="#md53b903cb8" y="293.391204"/>
     <use style="fill:#0000ff;stroke:#0000ff;" x="314.405393" xlink:href="#md53b903cb8" y="293.399667"/>
     <use style="fill:#0000ff;stroke:#0000ff;" x="318.417978" xlink:href="#md53b903cb8" y="293.70793"/>
     <use style="fill:#0000ff;stroke:#0000ff;" x="322.430562" xlink:href="#md53b903cb8" y="293.265071"/>
     <use style="fill:#0000ff;stroke:#0000ff;" x="326.443146" xlink:href="#md53b903cb8" y="293.214604"/>
     <use style="fill:#0000ff;stroke:#0000ff;" x="330.45573" xlink:href="#md53b903cb8" y="293.213942"/>
     <use style="fill:#0000ff;stroke:#0000ff;" x="334.468315" xlink:href="#md53b903cb8" y="293.307274"/>
     <use style="fill:#0000ff;stroke:#0000ff;" x="338.480899" xlink:href="#md53b903cb8" y="292.75047"/>
     <use style="fill:#0000ff;stroke:#0000ff;" x="342.493483" xlink:href="#md53b903cb8" y="292.638231"/>
     <use style="fill:#0000ff;stroke:#0000ff;" x="346.506067" xlink:href="#md53b903cb8" y="292.572634"/>
     <use style="fill:#0000ff;stroke:#0000ff;" x="350.518652" xlink:href="#md53b903cb8" y="293.021134"/>
     <use style="fill:#0000ff;stroke:#0000ff;" x="354.531236" xlink:href="#md53b903cb8" y="292.779981"/>
     <use style="fill:#0000ff;stroke:#0000ff;" x="358.54382" xlink:href="#md53b903cb8" y="293.168458"/>
     <use style="fill:#0000ff;stroke:#0000ff;" x="362.556404" xlink:href="#md53b903cb8" y="292.80406"/>
     <use style="fill:#0000ff;stroke:#0000ff;" x="366.568989" xlink:href="#md53b903cb8" y="292.695903"/>
     <use style="fill:#0000ff;stroke:#0000ff;" x="370.581573" xlink:href="#md53b903cb8" y="292.226325"/>
     <use style="fill:#0000ff;stroke:#0000ff;" x="374.594157" xlink:href="#md53b903cb8" y="292.660861"/>
     <use style="fill:#0000ff;stroke:#0000ff;" x="378.606742" xlink:href="#md53b903cb8" y="292.48286"/>
     <use style="fill:#0000ff;stroke:#0000ff;" x="382.619326" xlink:href="#md53b903cb8" y="292.434358"/>
     <use style="fill:#0000ff;stroke:#0000ff;" x="386.63191" xlink:href="#md53b903cb8" y="292.234872"/>
     <use style="fill:#0000ff;stroke:#0000ff;" x="390.644494" xlink:href="#md53b903cb8" y="291.994899"/>
     <use style="fill:#0000ff;stroke:#0000ff;" x="394.657079" xlink:href="#md53b903cb8" y="291.926662"/>
     <use style="fill:#0000ff;stroke:#0000ff;" x="398.669663" xlink:href="#md53b903cb8" y="291.878629"/>
     <use style="fill:#0000ff;stroke:#0000ff;" x="402.682247" xlink:href="#md53b903cb8" y="291.775955"/>
     <use style="fill:#0000ff;stroke:#0000ff;" x="406.694831" xlink:href="#md53b903cb8" y="292.092019"/>
     <use style="fill:#0000ff;stroke:#0000ff;" x="410.707416" xlink:href="#md53b903cb8" y="292.054452"/>
    </g>
   </g>
   <g id="line2d_58">
    <path clip-path="url(#p6d1caae8f4)" d="M 61.612584 53.568 
L 65.625169 178.61397 
L 69.637753 218.17029 
L 73.650337 240.393399 
L 77.662921 251.237735 
L 81.675506 258.258554 
L 85.68809 264.77543 
L 89.700674 268.546349 
L 93.713258 272.277078 
L 97.725843 276.720587 
L 101.738427 277.679149 
L 105.751011 280.423811 
L 109.763596 280.941458 
L 113.77618 281.317481 
L 117.788764 282.626555 
L 121.801348 281.992606 
L 125.813933 283.552889 
L 129.826517 284.123328 
L 133.839101 285.203237 
L 137.851685 285.261638 
L 141.86427 285.875635 
L 145.876854 285.32395 
L 149.889438 284.734338 
L 153.902022 286.216969 
L 157.914607 285.189662 
L 161.927191 285.043301 
L 165.939775 285.813256 
L 169.95236 285.83908 
L 173.964944 285.571844 
L 177.977528 286.58671 
L 181.990112 286.197396 
L 186.002697 285.489636 
L 190.015281 286.006282 
L 194.027865 285.897201 
L 198.040449 286.57901 
L 202.053034 286.182451 
L 206.065618 287.101157 
L 210.078202 285.578931 
L 214.090787 286.585947 
L 218.103371 286.406934 
L 222.115955 287.498629 
L 226.128539 285.214186 
L 230.141124 284.705409 
L 234.153708 285.788837 
L 238.166292 285.094517 
L 242.178876 284.401586 
L 246.191461 285.513825 
L 250.204045 284.245242 
L 254.216629 284.327597 
L 258.229213 281.541736 
L 262.241798 280.644456 
L 266.254382 283.835497 
L 270.266966 284.545773 
L 274.279551 284.245179 
L 278.292135 283.624043 
L 282.304719 282.642206 
L 286.317303 283.525676 
L 290.329888 282.318814 
L 294.342472 283.146915 
L 298.355056 282.539403 
L 302.36764 281.874558 
L 306.380225 282.753763 
L 310.392809 282.499465 
L 314.405393 281.999238 
L 318.417978 283.001355 
L 322.430562 282.442391 
L 326.443146 282.106152 
L 330.45573 281.539138 
L 334.468315 281.655737 
L 338.480899 282.060048 
L 342.493483 281.284021 
L 346.506067 281.790113 
L 350.518652 282.008044 
L 354.531236 281.596625 
L 358.54382 280.824012 
L 362.556404 281.210875 
L 366.568989 280.693494 
L 370.581573 281.930497 
L 374.594157 281.609356 
L 378.606742 281.147572 
L 382.619326 280.912578 
L 386.63191 280.988028 
L 390.644494 281.387545 
L 394.657079 280.54347 
L 398.669663 281.261615 
L 402.682247 280.517983 
L 406.694831 280.459904 
L 410.707416 280.827433 
" style="fill:none;stroke:#ff0000;stroke-dasharray:1.5,2.475;stroke-dashoffset:0;stroke-width:1.5;"/>
    <defs>
     <path d="M 0 1.5 
C 0.397805 1.5 0.77937 1.341951 1.06066 1.06066 
C 1.341951 0.77937 1.5 0.397805 1.5 0 
C 1.5 -0.397805 1.341951 -0.77937 1.06066 -1.06066 
C 0.77937 -1.341951 0.397805 -1.5 0 -1.5 
C -0.397805 -1.5 -0.77937 -1.341951 -1.06066 -1.06066 
C -1.341951 -0.77937 -1.5 -0.397805 -1.5 0 
C -1.5 0.397805 -1.341951 0.77937 -1.06066 1.06066 
C -0.77937 1.341951 -0.397805 1.5 0 1.5 
z
" id="m7a23abf317" style="stroke:#ff0000;"/>
    </defs>
    <g clip-path="url(#p6d1caae8f4)">
     <use style="fill:#ff0000;stroke:#ff0000;" x="61.612584" xlink:href="#m7a23abf317" y="53.568"/>
     <use style="fill:#ff0000;stroke:#ff0000;" x="65.625169" xlink:href="#m7a23abf317" y="178.61397"/>
     <use style="fill:#ff0000;stroke:#ff0000;" x="69.637753" xlink:href="#m7a23abf317" y="218.17029"/>
     <use style="fill:#ff0000;stroke:#ff0000;" x="73.650337" xlink:href="#m7a23abf317" y="240.393399"/>
     <use style="fill:#ff0000;stroke:#ff0000;" x="77.662921" xlink:href="#m7a23abf317" y="251.237735"/>
     <use style="fill:#ff0000;stroke:#ff0000;" x="81.675506" xlink:href="#m7a23abf317" y="258.258554"/>
     <use style="fill:#ff0000;stroke:#ff0000;" x="85.68809" xlink:href="#m7a23abf317" y="264.77543"/>
     <use style="fill:#ff0000;stroke:#ff0000;" x="89.700674" xlink:href="#m7a23abf317" y="268.546349"/>
     <use style="fill:#ff0000;stroke:#ff0000;" x="93.713258" xlink:href="#m7a23abf317" y="272.277078"/>
     <use style="fill:#ff0000;stroke:#ff0000;" x="97.725843" xlink:href="#m7a23abf317" y="276.720587"/>
     <use style="fill:#ff0000;stroke:#ff0000;" x="101.738427" xlink:href="#m7a23abf317" y="277.679149"/>
     <use style="fill:#ff0000;stroke:#ff0000;" x="105.751011" xlink:href="#m7a23abf317" y="280.423811"/>
     <use style="fill:#ff0000;stroke:#ff0000;" x="109.763596" xlink:href="#m7a23abf317" y="280.941458"/>
     <use style="fill:#ff0000;stroke:#ff0000;" x="113.77618" xlink:href="#m7a23abf317" y="281.317481"/>
     <use style="fill:#ff0000;stroke:#ff0000;" x="117.788764" xlink:href="#m7a23abf317" y="282.626555"/>
     <use style="fill:#ff0000;stroke:#ff0000;" x="121.801348" xlink:href="#m7a23abf317" y="281.992606"/>
     <use style="fill:#ff0000;stroke:#ff0000;" x="125.813933" xlink:href="#m7a23abf317" y="283.552889"/>
     <use style="fill:#ff0000;stroke:#ff0000;" x="129.826517" xlink:href="#m7a23abf317" y="284.123328"/>
     <use style="fill:#ff0000;stroke:#ff0000;" x="133.839101" xlink:href="#m7a23abf317" y="285.203237"/>
     <use style="fill:#ff0000;stroke:#ff0000;" x="137.851685" xlink:href="#m7a23abf317" y="285.261638"/>
     <use style="fill:#ff0000;stroke:#ff0000;" x="141.86427" xlink:href="#m7a23abf317" y="285.875635"/>
     <use style="fill:#ff0000;stroke:#ff0000;" x="145.876854" xlink:href="#m7a23abf317" y="285.32395"/>
     <use style="fill:#ff0000;stroke:#ff0000;" x="149.889438" xlink:href="#m7a23abf317" y="284.734338"/>
     <use style="fill:#ff0000;stroke:#ff0000;" x="153.902022" xlink:href="#m7a23abf317" y="286.216969"/>
     <use style="fill:#ff0000;stroke:#ff0000;" x="157.914607" xlink:href="#m7a23abf317" y="285.189662"/>
     <use style="fill:#ff0000;stroke:#ff0000;" x="161.927191" xlink:href="#m7a23abf317" y="285.043301"/>
     <use style="fill:#ff0000;stroke:#ff0000;" x="165.939775" xlink:href="#m7a23abf317" y="285.813256"/>
     <use style="fill:#ff0000;stroke:#ff0000;" x="169.95236" xlink:href="#m7a23abf317" y="285.83908"/>
     <use style="fill:#ff0000;stroke:#ff0000;" x="173.964944" xlink:href="#m7a23abf317" y="285.571844"/>
     <use style="fill:#ff0000;stroke:#ff0000;" x="177.977528" xlink:href="#m7a23abf317" y="286.58671"/>
     <use style="fill:#ff0000;stroke:#ff0000;" x="181.990112" xlink:href="#m7a23abf317" y="286.197396"/>
     <use style="fill:#ff0000;stroke:#ff0000;" x="186.002697" xlink:href="#m7a23abf317" y="285.489636"/>
     <use style="fill:#ff0000;stroke:#ff0000;" x="190.015281" xlink:href="#m7a23abf317" y="286.006282"/>
     <use style="fill:#ff0000;stroke:#ff0000;" x="194.027865" xlink:href="#m7a23abf317" y="285.897201"/>
     <use style="fill:#ff0000;stroke:#ff0000;" x="198.040449" xlink:href="#m7a23abf317" y="286.57901"/>
     <use style="fill:#ff0000;stroke:#ff0000;" x="202.053034" xlink:href="#m7a23abf317" y="286.182451"/>
     <use style="fill:#ff0000;stroke:#ff0000;" x="206.065618" xlink:href="#m7a23abf317" y="287.101157"/>
     <use style="fill:#ff0000;stroke:#ff0000;" x="210.078202" xlink:href="#m7a23abf317" y="285.578931"/>
     <use style="fill:#ff0000;stroke:#ff0000;" x="214.090787" xlink:href="#m7a23abf317" y="286.585947"/>
     <use style="fill:#ff0000;stroke:#ff0000;" x="218.103371" xlink:href="#m7a23abf317" y="286.406934"/>
     <use style="fill:#ff0000;stroke:#ff0000;" x="222.115955" xlink:href="#m7a23abf317" y="287.498629"/>
     <use style="fill:#ff0000;stroke:#ff0000;" x="226.128539" xlink:href="#m7a23abf317" y="285.214186"/>
     <use style="fill:#ff0000;stroke:#ff0000;" x="230.141124" xlink:href="#m7a23abf317" y="284.705409"/>
     <use style="fill:#ff0000;stroke:#ff0000;" x="234.153708" xlink:href="#m7a23abf317" y="285.788837"/>
     <use style="fill:#ff0000;stroke:#ff0000;" x="238.166292" xlink:href="#m7a23abf317" y="285.094517"/>
     <use style="fill:#ff0000;stroke:#ff0000;" x="242.178876" xlink:href="#m7a23abf317" y="284.401586"/>
     <use style="fill:#ff0000;stroke:#ff0000;" x="246.191461" xlink:href="#m7a23abf317" y="285.513825"/>
     <use style="fill:#ff0000;stroke:#ff0000;" x="250.204045" xlink:href="#m7a23abf317" y="284.245242"/>
     <use style="fill:#ff0000;stroke:#ff0000;" x="254.216629" xlink:href="#m7a23abf317" y="284.327597"/>
     <use style="fill:#ff0000;stroke:#ff0000;" x="258.229213" xlink:href="#m7a23abf317" y="281.541736"/>
     <use style="fill:#ff0000;stroke:#ff0000;" x="262.241798" xlink:href="#m7a23abf317" y="280.644456"/>
     <use style="fill:#ff0000;stroke:#ff0000;" x="266.254382" xlink:href="#m7a23abf317" y="283.835497"/>
     <use style="fill:#ff0000;stroke:#ff0000;" x="270.266966" xlink:href="#m7a23abf317" y="284.545773"/>
     <use style="fill:#ff0000;stroke:#ff0000;" x="274.279551" xlink:href="#m7a23abf317" y="284.245179"/>
     <use style="fill:#ff0000;stroke:#ff0000;" x="278.292135" xlink:href="#m7a23abf317" y="283.624043"/>
     <use style="fill:#ff0000;stroke:#ff0000;" x="282.304719" xlink:href="#m7a23abf317" y="282.642206"/>
     <use style="fill:#ff0000;stroke:#ff0000;" x="286.317303" xlink:href="#m7a23abf317" y="283.525676"/>
     <use style="fill:#ff0000;stroke:#ff0000;" x="290.329888" xlink:href="#m7a23abf317" y="282.318814"/>
     <use style="fill:#ff0000;stroke:#ff0000;" x="294.342472" xlink:href="#m7a23abf317" y="283.146915"/>
     <use style="fill:#ff0000;stroke:#ff0000;" x="298.355056" xlink:href="#m7a23abf317" y="282.539403"/>
     <use style="fill:#ff0000;stroke:#ff0000;" x="302.36764" xlink:href="#m7a23abf317" y="281.874558"/>
     <use style="fill:#ff0000;stroke:#ff0000;" x="306.380225" xlink:href="#m7a23abf317" y="282.753763"/>
     <use style="fill:#ff0000;stroke:#ff0000;" x="310.392809" xlink:href="#m7a23abf317" y="282.499465"/>
     <use style="fill:#ff0000;stroke:#ff0000;" x="314.405393" xlink:href="#m7a23abf317" y="281.999238"/>
     <use style="fill:#ff0000;stroke:#ff0000;" x="318.417978" xlink:href="#m7a23abf317" y="283.001355"/>
     <use style="fill:#ff0000;stroke:#ff0000;" x="322.430562" xlink:href="#m7a23abf317" y="282.442391"/>
     <use style="fill:#ff0000;stroke:#ff0000;" x="326.443146" xlink:href="#m7a23abf317" y="282.106152"/>
     <use style="fill:#ff0000;stroke:#ff0000;" x="330.45573" xlink:href="#m7a23abf317" y="281.539138"/>
     <use style="fill:#ff0000;stroke:#ff0000;" x="334.468315" xlink:href="#m7a23abf317" y="281.655737"/>
     <use style="fill:#ff0000;stroke:#ff0000;" x="338.480899" xlink:href="#m7a23abf317" y="282.060048"/>
     <use style="fill:#ff0000;stroke:#ff0000;" x="342.493483" xlink:href="#m7a23abf317" y="281.284021"/>
     <use style="fill:#ff0000;stroke:#ff0000;" x="346.506067" xlink:href="#m7a23abf317" y="281.790113"/>
     <use style="fill:#ff0000;stroke:#ff0000;" x="350.518652" xlink:href="#m7a23abf317" y="282.008044"/>
     <use style="fill:#ff0000;stroke:#ff0000;" x="354.531236" xlink:href="#m7a23abf317" y="281.596625"/>
     <use style="fill:#ff0000;stroke:#ff0000;" x="358.54382" xlink:href="#m7a23abf317" y="280.824012"/>
     <use style="fill:#ff0000;stroke:#ff0000;" x="362.556404" xlink:href="#m7a23abf317" y="281.210875"/>
     <use style="fill:#ff0000;stroke:#ff0000;" x="366.568989" xlink:href="#m7a23abf317" y="280.693494"/>
     <use style="fill:#ff0000;stroke:#ff0000;" x="370.581573" xlink:href="#m7a23abf317" y="281.930497"/>
     <use style="fill:#ff0000;stroke:#ff0000;" x="374.594157" xlink:href="#m7a23abf317" y="281.609356"/>
     <use style="fill:#ff0000;stroke:#ff0000;" x="378.606742" xlink:href="#m7a23abf317" y="281.147572"/>
     <use style="fill:#ff0000;stroke:#ff0000;" x="382.619326" xlink:href="#m7a23abf317" y="280.912578"/>
     <use style="fill:#ff0000;stroke:#ff0000;" x="386.63191" xlink:href="#m7a23abf317" y="280.988028"/>
     <use style="fill:#ff0000;stroke:#ff0000;" x="390.644494" xlink:href="#m7a23abf317" y="281.387545"/>
     <use style="fill:#ff0000;stroke:#ff0000;" x="394.657079" xlink:href="#m7a23abf317" y="280.54347"/>
     <use style="fill:#ff0000;stroke:#ff0000;" x="398.669663" xlink:href="#m7a23abf317" y="281.261615"/>
     <use style="fill:#ff0000;stroke:#ff0000;" x="402.682247" xlink:href="#m7a23abf317" y="280.517983"/>
     <use style="fill:#ff0000;stroke:#ff0000;" x="406.694831" xlink:href="#m7a23abf317" y="280.459904"/>
     <use style="fill:#ff0000;stroke:#ff0000;" x="410.707416" xlink:href="#m7a23abf317" y="280.827433"/>
    </g>
   </g>
   <g id="line2d_59">
    <path clip-path="url(#p6d1caae8f4)" d="M 61.612584 62.983096 
L 65.625169 183.286421 
L 69.637753 221.848606 
L 73.650337 242.381089 
L 77.662921 254.049472 
L 81.675506 260.499285 
L 85.68809 267.9866 
L 89.700674 271.857903 
L 93.713258 276.556823 
L 97.725843 280.437379 
L 101.738427 282.032681 
L 105.751011 284.48798 
L 109.763596 285.302509 
L 113.77618 286.272952 
L 117.788764 287.225951 
L 121.801348 287.376428 
L 125.813933 288.563141 
L 129.826517 289.097973 
L 133.839101 289.876031 
L 137.851685 289.944807 
L 141.86427 289.993695 
L 145.876854 290.021155 
L 149.889438 289.88861 
L 153.902022 290.353915 
L 157.914607 289.963789 
L 161.927191 289.439696 
L 165.939775 290.240457 
L 169.95236 290.415827 
L 173.964944 290.529922 
L 177.977528 290.620143 
L 181.990112 290.62879 
L 186.002697 290.219305 
L 190.015281 290.512036 
L 194.027865 290.414753 
L 198.040449 290.742699 
L 202.053034 290.486516 
L 206.065618 290.963215 
L 210.078202 289.95504 
L 214.090787 290.583134 
L 218.103371 290.571514 
L 222.115955 290.932938 
L 226.128539 290.076333 
L 230.141124 289.419147 
L 234.153708 289.92105 
L 238.166292 289.485288 
L 242.178876 289.084534 
L 246.191461 289.874263 
L 250.204045 289.145024 
L 254.216629 289.222907 
L 258.229213 286.464729 
L 262.241798 285.876887 
L 266.254382 288.603114 
L 270.266966 289.00406 
L 274.279551 288.985963 
L 278.292135 288.340404 
L 282.304719 288.235494 
L 286.317303 288.37531 
L 290.329888 287.911493 
L 294.342472 288.502902 
L 298.355056 288.366653 
L 302.36764 287.826652 
L 306.380225 288.150946 
L 310.392809 287.945335 
L 314.405393 287.699453 
L 318.417978 288.354643 
L 322.430562 287.853731 
L 326.443146 287.660378 
L 330.45573 287.37654 
L 334.468315 287.481505 
L 338.480899 287.405259 
L 342.493483 286.961126 
L 346.506067 287.181373 
L 350.518652 287.514589 
L 354.531236 287.188303 
L 358.54382 286.996235 
L 362.556404 287.007468 
L 366.568989 286.694699 
L 370.581573 287.078411 
L 374.594157 287.135109 
L 378.606742 286.815216 
L 382.619326 286.673468 
L 386.63191 286.61145 
L 390.644494 286.691222 
L 394.657079 286.235066 
L 398.669663 286.570122 
L 402.682247 286.146969 
L 406.694831 286.275962 
L 410.707416 286.440942 
" style="fill:none;stroke:#008000;stroke-dasharray:1.5,2.475;stroke-dashoffset:0;stroke-width:1.5;"/>
    <defs>
     <path d="M 0 1.5 
C 0.397805 1.5 0.77937 1.341951 1.06066 1.06066 
C 1.341951 0.77937 1.5 0.397805 1.5 0 
C 1.5 -0.397805 1.341951 -0.77937 1.06066 -1.06066 
C 0.77937 -1.341951 0.397805 -1.5 0 -1.5 
C -0.397805 -1.5 -0.77937 -1.341951 -1.06066 -1.06066 
C -1.341951 -0.77937 -1.5 -0.397805 -1.5 0 
C -1.5 0.397805 -1.341951 0.77937 -1.06066 1.06066 
C -0.77937 1.341951 -0.397805 1.5 0 1.5 
z
" id="m36236c7b61" style="stroke:#008000;"/>
    </defs>
    <g clip-path="url(#p6d1caae8f4)">
     <use style="fill:#008000;stroke:#008000;" x="61.612584" xlink:href="#m36236c7b61" y="62.983096"/>
     <use style="fill:#008000;stroke:#008000;" x="65.625169" xlink:href="#m36236c7b61" y="183.286421"/>
     <use style="fill:#008000;stroke:#008000;" x="69.637753" xlink:href="#m36236c7b61" y="221.848606"/>
     <use style="fill:#008000;stroke:#008000;" x="73.650337" xlink:href="#m36236c7b61" y="242.381089"/>
     <use style="fill:#008000;stroke:#008000;" x="77.662921" xlink:href="#m36236c7b61" y="254.049472"/>
     <use style="fill:#008000;stroke:#008000;" x="81.675506" xlink:href="#m36236c7b61" y="260.499285"/>
     <use style="fill:#008000;stroke:#008000;" x="85.68809" xlink:href="#m36236c7b61" y="267.9866"/>
     <use style="fill:#008000;stroke:#008000;" x="89.700674" xlink:href="#m36236c7b61" y="271.857903"/>
     <use style="fill:#008000;stroke:#008000;" x="93.713258" xlink:href="#m36236c7b61" y="276.556823"/>
     <use style="fill:#008000;stroke:#008000;" x="97.725843" xlink:href="#m36236c7b61" y="280.437379"/>
     <use style="fill:#008000;stroke:#008000;" x="101.738427" xlink:href="#m36236c7b61" y="282.032681"/>
     <use style="fill:#008000;stroke:#008000;" x="105.751011" xlink:href="#m36236c7b61" y="284.48798"/>
     <use style="fill:#008000;stroke:#008000;" x="109.763596" xlink:href="#m36236c7b61" y="285.302509"/>
     <use style="fill:#008000;stroke:#008000;" x="113.77618" xlink:href="#m36236c7b61" y="286.272952"/>
     <use style="fill:#008000;stroke:#008000;" x="117.788764" xlink:href="#m36236c7b61" y="287.225951"/>
     <use style="fill:#008000;stroke:#008000;" x="121.801348" xlink:href="#m36236c7b61" y="287.376428"/>
     <use style="fill:#008000;stroke:#008000;" x="125.813933" xlink:href="#m36236c7b61" y="288.563141"/>
     <use style="fill:#008000;stroke:#008000;" x="129.826517" xlink:href="#m36236c7b61" y="289.097973"/>
     <use style="fill:#008000;stroke:#008000;" x="133.839101" xlink:href="#m36236c7b61" y="289.876031"/>
     <use style="fill:#008000;stroke:#008000;" x="137.851685" xlink:href="#m36236c7b61" y="289.944807"/>
     <use style="fill:#008000;stroke:#008000;" x="141.86427" xlink:href="#m36236c7b61" y="289.993695"/>
     <use style="fill:#008000;stroke:#008000;" x="145.876854" xlink:href="#m36236c7b61" y="290.021155"/>
     <use style="fill:#008000;stroke:#008000;" x="149.889438" xlink:href="#m36236c7b61" y="289.88861"/>
     <use style="fill:#008000;stroke:#008000;" x="153.902022" xlink:href="#m36236c7b61" y="290.353915"/>
     <use style="fill:#008000;stroke:#008000;" x="157.914607" xlink:href="#m36236c7b61" y="289.963789"/>
     <use style="fill:#008000;stroke:#008000;" x="161.927191" xlink:href="#m36236c7b61" y="289.439696"/>
     <use style="fill:#008000;stroke:#008000;" x="165.939775" xlink:href="#m36236c7b61" y="290.240457"/>
     <use style="fill:#008000;stroke:#008000;" x="169.95236" xlink:href="#m36236c7b61" y="290.415827"/>
     <use style="fill:#008000;stroke:#008000;" x="173.964944" xlink:href="#m36236c7b61" y="290.529922"/>
     <use style="fill:#008000;stroke:#008000;" x="177.977528" xlink:href="#m36236c7b61" y="290.620143"/>
     <use style="fill:#008000;stroke:#008000;" x="181.990112" xlink:href="#m36236c7b61" y="290.62879"/>
     <use style="fill:#008000;stroke:#008000;" x="186.002697" xlink:href="#m36236c7b61" y="290.219305"/>
     <use style="fill:#008000;stroke:#008000;" x="190.015281" xlink:href="#m36236c7b61" y="290.512036"/>
     <use style="fill:#008000;stroke:#008000;" x="194.027865" xlink:href="#m36236c7b61" y="290.414753"/>
     <use style="fill:#008000;stroke:#008000;" x="198.040449" xlink:href="#m36236c7b61" y="290.742699"/>
     <use style="fill:#008000;stroke:#008000;" x="202.053034" xlink:href="#m36236c7b61" y="290.486516"/>
     <use style="fill:#008000;stroke:#008000;" x="206.065618" xlink:href="#m36236c7b61" y="290.963215"/>
     <use style="fill:#008000;stroke:#008000;" x="210.078202" xlink:href="#m36236c7b61" y="289.95504"/>
     <use style="fill:#008000;stroke:#008000;" x="214.090787" xlink:href="#m36236c7b61" y="290.583134"/>
     <use style="fill:#008000;stroke:#008000;" x="218.103371" xlink:href="#m36236c7b61" y="290.571514"/>
     <use style="fill:#008000;stroke:#008000;" x="222.115955" xlink:href="#m36236c7b61" y="290.932938"/>
     <use style="fill:#008000;stroke:#008000;" x="226.128539" xlink:href="#m36236c7b61" y="290.076333"/>
     <use style="fill:#008000;stroke:#008000;" x="230.141124" xlink:href="#m36236c7b61" y="289.419147"/>
     <use style="fill:#008000;stroke:#008000;" x="234.153708" xlink:href="#m36236c7b61" y="289.92105"/>
     <use style="fill:#008000;stroke:#008000;" x="238.166292" xlink:href="#m36236c7b61" y="289.485288"/>
     <use style="fill:#008000;stroke:#008000;" x="242.178876" xlink:href="#m36236c7b61" y="289.084534"/>
     <use style="fill:#008000;stroke:#008000;" x="246.191461" xlink:href="#m36236c7b61" y="289.874263"/>
     <use style="fill:#008000;stroke:#008000;" x="250.204045" xlink:href="#m36236c7b61" y="289.145024"/>
     <use style="fill:#008000;stroke:#008000;" x="254.216629" xlink:href="#m36236c7b61" y="289.222907"/>
     <use style="fill:#008000;stroke:#008000;" x="258.229213" xlink:href="#m36236c7b61" y="286.464729"/>
     <use style="fill:#008000;stroke:#008000;" x="262.241798" xlink:href="#m36236c7b61" y="285.876887"/>
     <use style="fill:#008000;stroke:#008000;" x="266.254382" xlink:href="#m36236c7b61" y="288.603114"/>
     <use style="fill:#008000;stroke:#008000;" x="270.266966" xlink:href="#m36236c7b61" y="289.00406"/>
     <use style="fill:#008000;stroke:#008000;" x="274.279551" xlink:href="#m36236c7b61" y="288.985963"/>
     <use style="fill:#008000;stroke:#008000;" x="278.292135" xlink:href="#m36236c7b61" y="288.340404"/>
     <use style="fill:#008000;stroke:#008000;" x="282.304719" xlink:href="#m36236c7b61" y="288.235494"/>
     <use style="fill:#008000;stroke:#008000;" x="286.317303" xlink:href="#m36236c7b61" y="288.37531"/>
     <use style="fill:#008000;stroke:#008000;" x="290.329888" xlink:href="#m36236c7b61" y="287.911493"/>
     <use style="fill:#008000;stroke:#008000;" x="294.342472" xlink:href="#m36236c7b61" y="288.502902"/>
     <use style="fill:#008000;stroke:#008000;" x="298.355056" xlink:href="#m36236c7b61" y="288.366653"/>
     <use style="fill:#008000;stroke:#008000;" x="302.36764" xlink:href="#m36236c7b61" y="287.826652"/>
     <use style="fill:#008000;stroke:#008000;" x="306.380225" xlink:href="#m36236c7b61" y="288.150946"/>
     <use style="fill:#008000;stroke:#008000;" x="310.392809" xlink:href="#m36236c7b61" y="287.945335"/>
     <use style="fill:#008000;stroke:#008000;" x="314.405393" xlink:href="#m36236c7b61" y="287.699453"/>
     <use style="fill:#008000;stroke:#008000;" x="318.417978" xlink:href="#m36236c7b61" y="288.354643"/>
     <use style="fill:#008000;stroke:#008000;" x="322.430562" xlink:href="#m36236c7b61" y="287.853731"/>
     <use style="fill:#008000;stroke:#008000;" x="326.443146" xlink:href="#m36236c7b61" y="287.660378"/>
     <use style="fill:#008000;stroke:#008000;" x="330.45573" xlink:href="#m36236c7b61" y="287.37654"/>
     <use style="fill:#008000;stroke:#008000;" x="334.468315" xlink:href="#m36236c7b61" y="287.481505"/>
     <use style="fill:#008000;stroke:#008000;" x="338.480899" xlink:href="#m36236c7b61" y="287.405259"/>
     <use style="fill:#008000;stroke:#008000;" x="342.493483" xlink:href="#m36236c7b61" y="286.961126"/>
     <use style="fill:#008000;stroke:#008000;" x="346.506067" xlink:href="#m36236c7b61" y="287.181373"/>
     <use style="fill:#008000;stroke:#008000;" x="350.518652" xlink:href="#m36236c7b61" y="287.514589"/>
     <use style="fill:#008000;stroke:#008000;" x="354.531236" xlink:href="#m36236c7b61" y="287.188303"/>
     <use style="fill:#008000;stroke:#008000;" x="358.54382" xlink:href="#m36236c7b61" y="286.996235"/>
     <use style="fill:#008000;stroke:#008000;" x="362.556404" xlink:href="#m36236c7b61" y="287.007468"/>
     <use style="fill:#008000;stroke:#008000;" x="366.568989" xlink:href="#m36236c7b61" y="286.694699"/>
     <use style="fill:#008000;stroke:#008000;" x="370.581573" xlink:href="#m36236c7b61" y="287.078411"/>
     <use style="fill:#008000;stroke:#008000;" x="374.594157" xlink:href="#m36236c7b61" y="287.135109"/>
     <use style="fill:#008000;stroke:#008000;" x="378.606742" xlink:href="#m36236c7b61" y="286.815216"/>
     <use style="fill:#008000;stroke:#008000;" x="382.619326" xlink:href="#m36236c7b61" y="286.673468"/>
     <use style="fill:#008000;stroke:#008000;" x="386.63191" xlink:href="#m36236c7b61" y="286.61145"/>
     <use style="fill:#008000;stroke:#008000;" x="390.644494" xlink:href="#m36236c7b61" y="286.691222"/>
     <use style="fill:#008000;stroke:#008000;" x="394.657079" xlink:href="#m36236c7b61" y="286.235066"/>
     <use style="fill:#008000;stroke:#008000;" x="398.669663" xlink:href="#m36236c7b61" y="286.570122"/>
     <use style="fill:#008000;stroke:#008000;" x="402.682247" xlink:href="#m36236c7b61" y="286.146969"/>
     <use style="fill:#008000;stroke:#008000;" x="406.694831" xlink:href="#m36236c7b61" y="286.275962"/>
     <use style="fill:#008000;stroke:#008000;" x="410.707416" xlink:href="#m36236c7b61" y="286.440942"/>
    </g>
   </g>
   <g id="patch_3">
    <path d="M 57.6 307.584 
L 57.6 41.472 
" style="fill:none;stroke:#000000;stroke-linecap:square;stroke-linejoin:miter;stroke-width:0.8;"/>
   </g>
   <g id="patch_4">
    <path d="M 414.72 307.584 
L 414.72 41.472 
" style="fill:none;stroke:#000000;stroke-linecap:square;stroke-linejoin:miter;stroke-width:0.8;"/>
   </g>
   <g id="patch_5">
    <path d="M 57.6 307.584 
L 414.72 307.584 
" style="fill:none;stroke:#000000;stroke-linecap:square;stroke-linejoin:miter;stroke-width:0.8;"/>
   </g>
   <g id="patch_6">
    <path d="M 57.6 41.472 
L 414.72 41.472 
" style="fill:none;stroke:#000000;stroke-linecap:square;stroke-linejoin:miter;stroke-width:0.8;"/>
   </g>
   <g id="text_31">
    <!-- tbb::parallel_sort O3 OMP AVX2 on pre_transpose41 -->
    <defs>
     <path d="M 48.6875 27.296875 
Q 48.6875 37.203125 44.609375 42.84375 
Q 40.53125 48.484375 33.40625 48.484375 
Q 26.265625 48.484375 22.1875 42.84375 
Q 18.109375 37.203125 18.109375 27.296875 
Q 18.109375 17.390625 22.1875 11.75 
Q 26.265625 6.109375 33.40625 6.109375 
Q 40.53125 6.109375 44.609375 11.75 
Q 48.6875 17.390625 48.6875 27.296875 
z
M 18.109375 46.390625 
Q 20.953125 51.265625 25.265625 53.625 
Q 29.59375 56 35.59375 56 
Q 45.5625 56 51.78125 48.09375 
Q 58.015625 40.1875 58.015625 27.296875 
Q 58.015625 14.40625 51.78125 6.484375 
Q 45.5625 -1.421875 35.59375 -1.421875 
Q 29.59375 -1.421875 25.265625 0.953125 
Q 20.953125 3.328125 18.109375 8.203125 
L 18.109375 0 
L 9.078125 0 
L 9.078125 75.984375 
L 18.109375 75.984375 
z
" id="DejaVuSans-98"/>
     <path d="M 11.71875 12.40625 
L 22.015625 12.40625 
L 22.015625 0 
L 11.71875 0 
z
M 11.71875 51.703125 
L 22.015625 51.703125 
L 22.015625 39.3125 
L 11.71875 39.3125 
z
" id="DejaVuSans-58"/>
     <path d="M 18.109375 8.203125 
L 18.109375 -20.796875 
L 9.078125 -20.796875 
L 9.078125 54.6875 
L 18.109375 54.6875 
L 18.109375 46.390625 
Q 20.953125 51.265625 25.265625 53.625 
Q 29.59375 56 35.59375 56 
Q 45.5625 56 51.78125 48.09375 
Q 58.015625 40.1875 58.015625 27.296875 
Q 58.015625 14.40625 51.78125 6.484375 
Q 45.5625 -1.421875 35.59375 -1.421875 
Q 29.59375 -1.421875 25.265625 0.953125 
Q 20.953125 3.328125 18.109375 8.203125 
z
M 48.6875 27.296875 
Q 48.6875 37.203125 44.609375 42.84375 
Q 40.53125 48.484375 33.40625 48.484375 
Q 26.265625 48.484375 22.1875 42.84375 
Q 18.109375 37.203125 18.109375 27.296875 
Q 18.109375 17.390625 22.1875 11.75 
Q 26.265625 6.109375 33.40625 6.109375 
Q 40.53125 6.109375 44.609375 11.75 
Q 48.6875 17.390625 48.6875 27.296875 
z
" id="DejaVuSans-112"/>
     <path d="M 9.421875 75.984375 
L 18.40625 75.984375 
L 18.40625 0 
L 9.421875 0 
z
" id="DejaVuSans-108"/>
     <path d="M 50.984375 -16.609375 
L 50.984375 -23.578125 
L -0.984375 -23.578125 
L -0.984375 -16.609375 
z
" id="DejaVuSans-95"/>
     <path d="M 39.40625 66.21875 
Q 28.65625 66.21875 22.328125 58.203125 
Q 16.015625 50.203125 16.015625 36.375 
Q 16.015625 22.609375 22.328125 14.59375 
Q 28.65625 6.59375 39.40625 6.59375 
Q 50.140625 6.59375 56.421875 14.59375 
Q 62.703125 22.609375 62.703125 36.375 
Q 62.703125 50.203125 56.421875 58.203125 
Q 50.140625 66.21875 39.40625 66.21875 
z
M 39.40625 74.21875 
Q 54.734375 74.21875 63.90625 63.9375 
Q 73.09375 53.65625 73.09375 36.375 
Q 73.09375 19.140625 63.90625 8.859375 
Q 54.734375 -1.421875 39.40625 -1.421875 
Q 24.03125 -1.421875 14.8125 8.828125 
Q 5.609375 19.09375 5.609375 36.375 
Q 5.609375 53.65625 14.8125 63.9375 
Q 24.03125 74.21875 39.40625 74.21875 
z
" id="DejaVuSans-79"/>
     <path d="M 9.8125 72.90625 
L 24.515625 72.90625 
L 43.109375 23.296875 
L 61.8125 72.90625 
L 76.515625 72.90625 
L 76.515625 0 
L 66.890625 0 
L 66.890625 64.015625 
L 48.09375 14.015625 
L 38.1875 14.015625 
L 19.390625 64.015625 
L 19.390625 0 
L 9.8125 0 
z
" id="DejaVuSans-77"/>
     <path d="M 19.671875 64.796875 
L 19.671875 37.40625 
L 32.078125 37.40625 
Q 38.96875 37.40625 42.71875 40.96875 
Q 46.484375 44.53125 46.484375 51.125 
Q 46.484375 57.671875 42.71875 61.234375 
Q 38.96875 64.796875 32.078125 64.796875 
z
M 9.8125 72.90625 
L 32.078125 72.90625 
Q 44.34375 72.90625 50.609375 67.359375 
Q 56.890625 61.8125 56.890625 51.125 
Q 56.890625 40.328125 50.609375 34.8125 
Q 44.34375 29.296875 32.078125 29.296875 
L 19.671875 29.296875 
L 19.671875 0 
L 9.8125 0 
z
" id="DejaVuSans-80"/>
     <path d="M 34.1875 63.1875 
L 20.796875 26.90625 
L 47.609375 26.90625 
z
M 28.609375 72.90625 
L 39.796875 72.90625 
L 67.578125 0 
L 57.328125 0 
L 50.6875 18.703125 
L 17.828125 18.703125 
L 11.1875 0 
L 0.78125 0 
z
" id="DejaVuSans-65"/>
     <path d="M 28.609375 0 
L 0.78125 72.90625 
L 11.078125 72.90625 
L 34.1875 11.53125 
L 57.328125 72.90625 
L 67.578125 72.90625 
L 39.796875 0 
z
" id="DejaVuSans-86"/>
     <path d="M 6.296875 72.90625 
L 16.890625 72.90625 
L 35.015625 45.796875 
L 53.21875 72.90625 
L 63.8125 72.90625 
L 40.375 37.890625 
L 65.375 0 
L 54.78125 0 
L 34.28125 31 
L 13.625 0 
L 2.984375 0 
L 29 38.921875 
z
" id="DejaVuSans-88"/>
    </defs>
    <g transform="translate(80.200312 35.472)scale(0.12 -0.12)">
     <use xlink:href="#DejaVuSans-116"/>
     <use x="39.208984" xlink:href="#DejaVuSans-98"/>
     <use x="102.685547" xlink:href="#DejaVuSans-98"/>
     <use x="166.162109" xlink:href="#DejaVuSans-58"/>
     <use x="199.853516" xlink:href="#DejaVuSans-58"/>
     <use x="233.544922" xlink:href="#DejaVuSans-112"/>
     <use x="297.021484" xlink:href="#DejaVuSans-97"/>
     <use x="358.300781" xlink:href="#DejaVuSans-114"/>
     <use x="399.414062" xlink:href="#DejaVuSans-97"/>
     <use x="460.693359" xlink:href="#DejaVuSans-108"/>
     <use x="488.476562" xlink:href="#DejaVuSans-108"/>
     <use x="516.259766" xlink:href="#DejaVuSans-101"/>
     <use x="577.783203" xlink:href="#DejaVuSans-108"/>
     <use x="605.566406" xlink:href="#DejaVuSans-95"/>
     <use x="655.566406" xlink:href="#DejaVuSans-115"/>
     <use x="707.666016" xlink:href="#DejaVuSans-111"/>
     <use x="768.847656" xlink:href="#DejaVuSans-114"/>
     <use x="809.960938" xlink:href="#DejaVuSans-116"/>
     <use x="849.169922" xlink:href="#DejaVuSans-32"/>
     <use x="880.957031" xlink:href="#DejaVuSans-79"/>
     <use x="959.667969" xlink:href="#DejaVuSans-51"/>
     <use x="1023.291016" xlink:href="#DejaVuSans-32"/>
     <use x="1055.078125" xlink:href="#DejaVuSans-79"/>
     <use x="1133.789062" xlink:href="#DejaVuSans-77"/>
     <use x="1220.068359" xlink:href="#DejaVuSans-80"/>
     <use x="1280.371094" xlink:href="#DejaVuSans-32"/>
     <use x="1312.158203" xlink:href="#DejaVuSans-65"/>
     <use x="1374.191406" xlink:href="#DejaVuSans-86"/>
     <use x="1442.599609" xlink:href="#DejaVuSans-88"/>
     <use x="1511.105469" xlink:href="#DejaVuSans-50"/>
     <use x="1574.728516" xlink:href="#DejaVuSans-32"/>
     <use x="1606.515625" xlink:href="#DejaVuSans-111"/>
     <use x="1667.697266" xlink:href="#DejaVuSans-110"/>
     <use x="1731.076172" xlink:href="#DejaVuSans-32"/>
     <use x="1762.863281" xlink:href="#DejaVuSans-112"/>
     <use x="1826.339844" xlink:href="#DejaVuSans-114"/>
     <use x="1865.203125" xlink:href="#DejaVuSans-101"/>
     <use x="1926.726562" xlink:href="#DejaVuSans-95"/>
     <use x="1976.726562" xlink:href="#DejaVuSans-116"/>
     <use x="2015.935547" xlink:href="#DejaVuSans-114"/>
     <use x="2057.048828" xlink:href="#DejaVuSans-97"/>
     <use x="2118.328125" xlink:href="#DejaVuSans-110"/>
     <use x="2181.707031" xlink:href="#DejaVuSans-115"/>
     <use x="2233.806641" xlink:href="#DejaVuSans-112"/>
     <use x="2297.283203" xlink:href="#DejaVuSans-111"/>
     <use x="2358.464844" xlink:href="#DejaVuSans-115"/>
     <use x="2410.564453" xlink:href="#DejaVuSans-101"/>
     <use x="2472.087891" xlink:href="#DejaVuSans-52"/>
     <use x="2535.710938" xlink:href="#DejaVuSans-49"/>
    </g>
   </g>
   <g id="legend_1">
    <g id="patch_7">
     <path d="M 313.152813 93.7845 
L 407.72 93.7845 
Q 409.72 93.7845 409.72 91.7845 
L 409.72 48.472 
Q 409.72 46.472 407.72 46.472 
L 313.152813 46.472 
Q 311.152813 46.472 311.152813 48.472 
L 311.152813 91.7845 
Q 311.152813 93.7845 313.152813 93.7845 
z
" style="fill:#ffffff;opacity:0.8;stroke:#cccccc;stroke-linejoin:miter;"/>
    </g>
    <g id="line2d_60">
     <path d="M 315.152813 54.570438 
L 335.152813 54.570438 
" style="fill:none;stroke:#0000ff;stroke-dasharray:1.5,2.475;stroke-dashoffset:0;stroke-width:1.5;"/>
    </g>
    <g id="line2d_61">
     <g>
      <use style="fill:#0000ff;stroke:#0000ff;" x="325.152813" xlink:href="#md53b903cb8" y="54.570438"/>
     </g>
    </g>
    <g id="text_32">
     <!-- transpose -->
     <g transform="translate(343.152813 58.070438)scale(0.1 -0.1)">
      <use xlink:href="#DejaVuSans-116"/>
      <use x="39.208984" xlink:href="#DejaVuSans-114"/>
      <use x="80.322266" xlink:href="#DejaVuSans-97"/>
      <use x="141.601562" xlink:href="#DejaVuSans-110"/>
      <use x="204.980469" xlink:href="#DejaVuSans-115"/>
      <use x="257.080078" xlink:href="#DejaVuSans-112"/>
      <use x="320.556641" xlink:href="#DejaVuSans-111"/>
      <use x="381.738281" xlink:href="#DejaVuSans-115"/>
      <use x="433.837891" xlink:href="#DejaVuSans-101"/>
     </g>
    </g>
    <g id="line2d_62">
     <path d="M 315.152813 69.248563 
L 335.152813 69.248563 
" style="fill:none;stroke:#ff0000;stroke-dasharray:1.5,2.475;stroke-dashoffset:0;stroke-width:1.5;"/>
    </g>
    <g id="line2d_63">
     <g>
      <use style="fill:#ff0000;stroke:#ff0000;" x="325.152813" xlink:href="#m7a23abf317" y="69.248563"/>
     </g>
    </g>
    <g id="text_33">
     <!-- transpose_tr -->
     <g transform="translate(343.152813 72.748563)scale(0.1 -0.1)">
      <use xlink:href="#DejaVuSans-116"/>
      <use x="39.208984" xlink:href="#DejaVuSans-114"/>
      <use x="80.322266" xlink:href="#DejaVuSans-97"/>
      <use x="141.601562" xlink:href="#DejaVuSans-110"/>
      <use x="204.980469" xlink:href="#DejaVuSans-115"/>
      <use x="257.080078" xlink:href="#DejaVuSans-112"/>
      <use x="320.556641" xlink:href="#DejaVuSans-111"/>
      <use x="381.738281" xlink:href="#DejaVuSans-115"/>
      <use x="433.837891" xlink:href="#DejaVuSans-101"/>
      <use x="495.361328" xlink:href="#DejaVuSans-95"/>
      <use x="545.361328" xlink:href="#DejaVuSans-116"/>
      <use x="584.570312" xlink:href="#DejaVuSans-114"/>
     </g>
    </g>
    <g id="line2d_64">
     <path d="M 315.152813 84.204813 
L 335.152813 84.204813 
" style="fill:none;stroke:#008000;stroke-dasharray:1.5,2.475;stroke-dashoffset:0;stroke-width:1.5;"/>
    </g>
    <g id="line2d_65">
     <g>
      <use style="fill:#008000;stroke:#008000;" x="325.152813" xlink:href="#m36236c7b61" y="84.204813"/>
     </g>
    </g>
    <g id="text_34">
     <!-- mean -->
     <defs>
      <path d="M 52 44.1875 
Q 55.375 50.25 60.0625 53.125 
Q 64.75 56 71.09375 56 
Q 79.640625 56 84.28125 50.015625 
Q 88.921875 44.046875 88.921875 33.015625 
L 88.921875 0 
L 79.890625 0 
L 79.890625 32.71875 
Q 79.890625 40.578125 77.09375 44.375 
Q 74.3125 48.1875 68.609375 48.1875 
Q 61.625 48.1875 57.5625 43.546875 
Q 53.515625 38.921875 53.515625 30.90625 
L 53.515625 0 
L 44.484375 0 
L 44.484375 32.71875 
Q 44.484375 40.625 41.703125 44.40625 
Q 38.921875 48.1875 33.109375 48.1875 
Q 26.21875 48.1875 22.15625 43.53125 
Q 18.109375 38.875 18.109375 30.90625 
L 18.109375 0 
L 9.078125 0 
L 9.078125 54.6875 
L 18.109375 54.6875 
L 18.109375 46.1875 
Q 21.1875 51.21875 25.484375 53.609375 
Q 29.78125 56 35.6875 56 
Q 41.65625 56 45.828125 52.96875 
Q 50 49.953125 52 44.1875 
z
" id="DejaVuSans-109"/>
     </defs>
     <g transform="translate(343.152813 87.704813)scale(0.1 -0.1)">
      <use xlink:href="#DejaVuSans-109"/>
      <use x="97.412109" xlink:href="#DejaVuSans-101"/>
      <use x="158.935547" xlink:href="#DejaVuSans-97"/>
      <use x="220.214844" xlink:href="#DejaVuSans-110"/>
     </g>
    </g>
   </g>
  </g>
 </g>
 <defs>
  <clipPath id="p6d1caae8f4">
   <rect height="266.112" width="357.12" x="57.6" y="41.472"/>
  </clipPath>
 </defs>
</svg>
