<?xml version="1.0" encoding="utf-8" standalone="no"?>
<!DOCTYPE svg PUBLIC "-//W3C//DTD SVG 1.1//EN"
  "http://www.w3.org/Graphics/SVG/1.1/DTD/svg11.dtd">
<!-- Created with matplotlib (https://matplotlib.org/) -->
<svg height="345.6pt" version="1.1" viewBox="0 0 460.8 345.6" width="460.8pt" xmlns="http://www.w3.org/2000/svg" xmlns:xlink="http://www.w3.org/1999/xlink">
 <defs>
  <style type="text/css">
*{stroke-linecap:butt;stroke-linejoin:round;}
  </style>
 </defs>
 <g id="figure_1">
  <g id="patch_1">
   <path d="M 0 345.6 
L 460.8 345.6 
L 460.8 0 
L 0 0 
z
" style="fill:#ffffff;"/>
  </g>
  <g id="axes_1">
   <g id="patch_2">
    <path d="M 57.6 307.584 
L 414.72 307.584 
L 414.72 41.472 
L 57.6 41.472 
z
" style="fill:#ffffff;"/>
   </g>
   <g id="matplotlib.axis_1">
    <g id="xtick_1">
     <g id="line2d_1">
      <path clip-path="url(#pa3047800b2)" d="M 61.612584 307.584 
L 61.612584 41.472 
" style="fill:none;stroke:#b0b0b0;stroke-dasharray:5.12,1.28,0.8,1.28;stroke-dashoffset:0;stroke-width:0.8;"/>
     </g>
     <g id="line2d_2">
      <defs>
       <path d="M 0 0 
L 0 3.5 
" id="m51b974c147" style="stroke:#000000;stroke-width:0.8;"/>
      </defs>
      <g>
       <use style="stroke:#000000;stroke-width:0.8;" x="61.612584" xlink:href="#m51b974c147" y="307.584"/>
      </g>
     </g>
     <g id="text_1">
      <!-- 1 -->
      <defs>
       <path d="M 12.40625 8.296875 
L 28.515625 8.296875 
L 28.515625 63.921875 
L 10.984375 60.40625 
L 10.984375 69.390625 
L 28.421875 72.90625 
L 38.28125 72.90625 
L 38.28125 8.296875 
L 54.390625 8.296875 
L 54.390625 0 
L 12.40625 0 
z
" id="DejaVuSans-49"/>
      </defs>
      <g transform="translate(58.431334 322.182437)scale(0.1 -0.1)">
       <use xlink:href="#DejaVuSans-49"/>
      </g>
     </g>
    </g>
    <g id="xtick_2">
     <g id="line2d_3">
      <path clip-path="url(#pa3047800b2)" d="M 73.650337 307.584 
L 73.650337 41.472 
" style="fill:none;stroke:#b0b0b0;stroke-dasharray:5.12,1.28,0.8,1.28;stroke-dashoffset:0;stroke-width:0.8;"/>
     </g>
     <g id="line2d_4">
      <g>
       <use style="stroke:#000000;stroke-width:0.8;" x="73.650337" xlink:href="#m51b974c147" y="307.584"/>
      </g>
     </g>
     <g id="text_2">
      <!-- 4 -->
      <defs>
       <path d="M 37.796875 64.3125 
L 12.890625 25.390625 
L 37.796875 25.390625 
z
M 35.203125 72.90625 
L 47.609375 72.90625 
L 47.609375 25.390625 
L 58.015625 25.390625 
L 58.015625 17.1875 
L 47.609375 17.1875 
L 47.609375 0 
L 37.796875 0 
L 37.796875 17.1875 
L 4.890625 17.1875 
L 4.890625 26.703125 
z
" id="DejaVuSans-52"/>
      </defs>
      <g transform="translate(70.469087 322.182437)scale(0.1 -0.1)">
       <use xlink:href="#DejaVuSans-52"/>
      </g>
     </g>
    </g>
    <g id="xtick_3">
     <g id="line2d_5">
      <path clip-path="url(#pa3047800b2)" d="M 89.700674 307.584 
L 89.700674 41.472 
" style="fill:none;stroke:#b0b0b0;stroke-dasharray:5.12,1.28,0.8,1.28;stroke-dashoffset:0;stroke-width:0.8;"/>
     </g>
     <g id="line2d_6">
      <g>
       <use style="stroke:#000000;stroke-width:0.8;" x="89.700674" xlink:href="#m51b974c147" y="307.584"/>
      </g>
     </g>
     <g id="text_3">
      <!-- 8 -->
      <defs>
       <path d="M 31.78125 34.625 
Q 24.75 34.625 20.71875 30.859375 
Q 16.703125 27.09375 16.703125 20.515625 
Q 16.703125 13.921875 20.71875 10.15625 
Q 24.75 6.390625 31.78125 6.390625 
Q 38.8125 6.390625 42.859375 10.171875 
Q 46.921875 13.96875 46.921875 20.515625 
Q 46.921875 27.09375 42.890625 30.859375 
Q 38.875 34.625 31.78125 34.625 
z
M 21.921875 38.8125 
Q 15.578125 40.375 12.03125 44.71875 
Q 8.5 49.078125 8.5 55.328125 
Q 8.5 64.0625 14.71875 69.140625 
Q 20.953125 74.21875 31.78125 74.21875 
Q 42.671875 74.21875 48.875 69.140625 
Q 55.078125 64.0625 55.078125 55.328125 
Q 55.078125 49.078125 51.53125 44.71875 
Q 48 40.375 41.703125 38.8125 
Q 48.828125 37.15625 52.796875 32.3125 
Q 56.78125 27.484375 56.78125 20.515625 
Q 56.78125 9.90625 50.3125 4.234375 
Q 43.84375 -1.421875 31.78125 -1.421875 
Q 19.734375 -1.421875 13.25 4.234375 
Q 6.78125 9.90625 6.78125 20.515625 
Q 6.78125 27.484375 10.78125 32.3125 
Q 14.796875 37.15625 21.921875 38.8125 
z
M 18.3125 54.390625 
Q 18.3125 48.734375 21.84375 45.5625 
Q 25.390625 42.390625 31.78125 42.390625 
Q 38.140625 42.390625 41.71875 45.5625 
Q 45.3125 48.734375 45.3125 54.390625 
Q 45.3125 60.0625 41.71875 63.234375 
Q 38.140625 66.40625 31.78125 66.40625 
Q 25.390625 66.40625 21.84375 63.234375 
Q 18.3125 60.0625 18.3125 54.390625 
z
" id="DejaVuSans-56"/>
      </defs>
      <g transform="translate(86.519424 322.182437)scale(0.1 -0.1)">
       <use xlink:href="#DejaVuSans-56"/>
      </g>
     </g>
    </g>
    <g id="xtick_4">
     <g id="line2d_7">
      <path clip-path="url(#pa3047800b2)" d="M 105.751011 307.584 
L 105.751011 41.472 
" style="fill:none;stroke:#b0b0b0;stroke-dasharray:5.12,1.28,0.8,1.28;stroke-dashoffset:0;stroke-width:0.8;"/>
     </g>
     <g id="line2d_8">
      <g>
       <use style="stroke:#000000;stroke-width:0.8;" x="105.751011" xlink:href="#m51b974c147" y="307.584"/>
      </g>
     </g>
     <g id="text_4">
      <!-- 12 -->
      <defs>
       <path d="M 19.1875 8.296875 
L 53.609375 8.296875 
L 53.609375 0 
L 7.328125 0 
L 7.328125 8.296875 
Q 12.9375 14.109375 22.625 23.890625 
Q 32.328125 33.6875 34.8125 36.53125 
Q 39.546875 41.84375 41.421875 45.53125 
Q 43.3125 49.21875 43.3125 52.78125 
Q 43.3125 58.59375 39.234375 62.25 
Q 35.15625 65.921875 28.609375 65.921875 
Q 23.96875 65.921875 18.8125 64.3125 
Q 13.671875 62.703125 7.8125 59.421875 
L 7.8125 69.390625 
Q 13.765625 71.78125 18.9375 73 
Q 24.125 74.21875 28.421875 74.21875 
Q 39.75 74.21875 46.484375 68.546875 
Q 53.21875 62.890625 53.21875 53.421875 
Q 53.21875 48.921875 51.53125 44.890625 
Q 49.859375 40.875 45.40625 35.40625 
Q 44.1875 33.984375 37.640625 27.21875 
Q 31.109375 20.453125 19.1875 8.296875 
z
" id="DejaVuSans-50"/>
      </defs>
      <g transform="translate(99.388511 322.182437)scale(0.1 -0.1)">
       <use xlink:href="#DejaVuSans-49"/>
       <use x="63.623047" xlink:href="#DejaVuSans-50"/>
      </g>
     </g>
    </g>
    <g id="xtick_5">
     <g id="line2d_9">
      <path clip-path="url(#pa3047800b2)" d="M 121.801348 307.584 
L 121.801348 41.472 
" style="fill:none;stroke:#b0b0b0;stroke-dasharray:5.12,1.28,0.8,1.28;stroke-dashoffset:0;stroke-width:0.8;"/>
     </g>
     <g id="line2d_10">
      <g>
       <use style="stroke:#000000;stroke-width:0.8;" x="121.801348" xlink:href="#m51b974c147" y="307.584"/>
      </g>
     </g>
     <g id="text_5">
      <!-- 16 -->
      <defs>
       <path d="M 33.015625 40.375 
Q 26.375 40.375 22.484375 35.828125 
Q 18.609375 31.296875 18.609375 23.390625 
Q 18.609375 15.53125 22.484375 10.953125 
Q 26.375 6.390625 33.015625 6.390625 
Q 39.65625 6.390625 43.53125 10.953125 
Q 47.40625 15.53125 47.40625 23.390625 
Q 47.40625 31.296875 43.53125 35.828125 
Q 39.65625 40.375 33.015625 40.375 
z
M 52.59375 71.296875 
L 52.59375 62.3125 
Q 48.875 64.0625 45.09375 64.984375 
Q 41.3125 65.921875 37.59375 65.921875 
Q 27.828125 65.921875 22.671875 59.328125 
Q 17.53125 52.734375 16.796875 39.40625 
Q 19.671875 43.65625 24.015625 45.921875 
Q 28.375 48.1875 33.59375 48.1875 
Q 44.578125 48.1875 50.953125 41.515625 
Q 57.328125 34.859375 57.328125 23.390625 
Q 57.328125 12.15625 50.6875 5.359375 
Q 44.046875 -1.421875 33.015625 -1.421875 
Q 20.359375 -1.421875 13.671875 8.265625 
Q 6.984375 17.96875 6.984375 36.375 
Q 6.984375 53.65625 15.1875 63.9375 
Q 23.390625 74.21875 37.203125 74.21875 
Q 40.921875 74.21875 44.703125 73.484375 
Q 48.484375 72.75 52.59375 71.296875 
z
" id="DejaVuSans-54"/>
      </defs>
      <g transform="translate(115.438848 322.182437)scale(0.1 -0.1)">
       <use xlink:href="#DejaVuSans-49"/>
       <use x="63.623047" xlink:href="#DejaVuSans-54"/>
      </g>
     </g>
    </g>
    <g id="xtick_6">
     <g id="line2d_11">
      <path clip-path="url(#pa3047800b2)" d="M 137.851685 307.584 
L 137.851685 41.472 
" style="fill:none;stroke:#b0b0b0;stroke-dasharray:5.12,1.28,0.8,1.28;stroke-dashoffset:0;stroke-width:0.8;"/>
     </g>
     <g id="line2d_12">
      <g>
       <use style="stroke:#000000;stroke-width:0.8;" x="137.851685" xlink:href="#m51b974c147" y="307.584"/>
      </g>
     </g>
     <g id="text_6">
      <!-- 20 -->
      <defs>
       <path d="M 31.78125 66.40625 
Q 24.171875 66.40625 20.328125 58.90625 
Q 16.5 51.421875 16.5 36.375 
Q 16.5 21.390625 20.328125 13.890625 
Q 24.171875 6.390625 31.78125 6.390625 
Q 39.453125 6.390625 43.28125 13.890625 
Q 47.125 21.390625 47.125 36.375 
Q 47.125 51.421875 43.28125 58.90625 
Q 39.453125 66.40625 31.78125 66.40625 
z
M 31.78125 74.21875 
Q 44.046875 74.21875 50.515625 64.515625 
Q 56.984375 54.828125 56.984375 36.375 
Q 56.984375 17.96875 50.515625 8.265625 
Q 44.046875 -1.421875 31.78125 -1.421875 
Q 19.53125 -1.421875 13.0625 8.265625 
Q 6.59375 17.96875 6.59375 36.375 
Q 6.59375 54.828125 13.0625 64.515625 
Q 19.53125 74.21875 31.78125 74.21875 
z
" id="DejaVuSans-48"/>
      </defs>
      <g transform="translate(131.489185 322.182437)scale(0.1 -0.1)">
       <use xlink:href="#DejaVuSans-50"/>
       <use x="63.623047" xlink:href="#DejaVuSans-48"/>
      </g>
     </g>
    </g>
    <g id="xtick_7">
     <g id="line2d_13">
      <path clip-path="url(#pa3047800b2)" d="M 153.902022 307.584 
L 153.902022 41.472 
" style="fill:none;stroke:#b0b0b0;stroke-dasharray:5.12,1.28,0.8,1.28;stroke-dashoffset:0;stroke-width:0.8;"/>
     </g>
     <g id="line2d_14">
      <g>
       <use style="stroke:#000000;stroke-width:0.8;" x="153.902022" xlink:href="#m51b974c147" y="307.584"/>
      </g>
     </g>
     <g id="text_7">
      <!-- 24 -->
      <g transform="translate(147.539522 322.182437)scale(0.1 -0.1)">
       <use xlink:href="#DejaVuSans-50"/>
       <use x="63.623047" xlink:href="#DejaVuSans-52"/>
      </g>
     </g>
    </g>
    <g id="xtick_8">
     <g id="line2d_15">
      <path clip-path="url(#pa3047800b2)" d="M 169.95236 307.584 
L 169.95236 41.472 
" style="fill:none;stroke:#b0b0b0;stroke-dasharray:5.12,1.28,0.8,1.28;stroke-dashoffset:0;stroke-width:0.8;"/>
     </g>
     <g id="line2d_16">
      <g>
       <use style="stroke:#000000;stroke-width:0.8;" x="169.95236" xlink:href="#m51b974c147" y="307.584"/>
      </g>
     </g>
     <g id="text_8">
      <!-- 28 -->
      <g transform="translate(163.58986 322.182437)scale(0.1 -0.1)">
       <use xlink:href="#DejaVuSans-50"/>
       <use x="63.623047" xlink:href="#DejaVuSans-56"/>
      </g>
     </g>
    </g>
    <g id="xtick_9">
     <g id="line2d_17">
      <path clip-path="url(#pa3047800b2)" d="M 186.002697 307.584 
L 186.002697 41.472 
" style="fill:none;stroke:#b0b0b0;stroke-dasharray:5.12,1.28,0.8,1.28;stroke-dashoffset:0;stroke-width:0.8;"/>
     </g>
     <g id="line2d_18">
      <g>
       <use style="stroke:#000000;stroke-width:0.8;" x="186.002697" xlink:href="#m51b974c147" y="307.584"/>
      </g>
     </g>
     <g id="text_9">
      <!-- 32 -->
      <defs>
       <path d="M 40.578125 39.3125 
Q 47.65625 37.796875 51.625 33 
Q 55.609375 28.21875 55.609375 21.1875 
Q 55.609375 10.40625 48.1875 4.484375 
Q 40.765625 -1.421875 27.09375 -1.421875 
Q 22.515625 -1.421875 17.65625 -0.515625 
Q 12.796875 0.390625 7.625 2.203125 
L 7.625 11.71875 
Q 11.71875 9.328125 16.59375 8.109375 
Q 21.484375 6.890625 26.8125 6.890625 
Q 36.078125 6.890625 40.9375 10.546875 
Q 45.796875 14.203125 45.796875 21.1875 
Q 45.796875 27.640625 41.28125 31.265625 
Q 36.765625 34.90625 28.71875 34.90625 
L 20.21875 34.90625 
L 20.21875 43.015625 
L 29.109375 43.015625 
Q 36.375 43.015625 40.234375 45.921875 
Q 44.09375 48.828125 44.09375 54.296875 
Q 44.09375 59.90625 40.109375 62.90625 
Q 36.140625 65.921875 28.71875 65.921875 
Q 24.65625 65.921875 20.015625 65.03125 
Q 15.375 64.15625 9.8125 62.3125 
L 9.8125 71.09375 
Q 15.4375 72.65625 20.34375 73.4375 
Q 25.25 74.21875 29.59375 74.21875 
Q 40.828125 74.21875 47.359375 69.109375 
Q 53.90625 64.015625 53.90625 55.328125 
Q 53.90625 49.265625 50.4375 45.09375 
Q 46.96875 40.921875 40.578125 39.3125 
z
" id="DejaVuSans-51"/>
      </defs>
      <g transform="translate(179.640197 322.182437)scale(0.1 -0.1)">
       <use xlink:href="#DejaVuSans-51"/>
       <use x="63.623047" xlink:href="#DejaVuSans-50"/>
      </g>
     </g>
    </g>
    <g id="xtick_10">
     <g id="line2d_19">
      <path clip-path="url(#pa3047800b2)" d="M 202.053034 307.584 
L 202.053034 41.472 
" style="fill:none;stroke:#b0b0b0;stroke-dasharray:5.12,1.28,0.8,1.28;stroke-dashoffset:0;stroke-width:0.8;"/>
     </g>
     <g id="line2d_20">
      <g>
       <use style="stroke:#000000;stroke-width:0.8;" x="202.053034" xlink:href="#m51b974c147" y="307.584"/>
      </g>
     </g>
     <g id="text_10">
      <!-- 36 -->
      <g transform="translate(195.690534 322.182437)scale(0.1 -0.1)">
       <use xlink:href="#DejaVuSans-51"/>
       <use x="63.623047" xlink:href="#DejaVuSans-54"/>
      </g>
     </g>
    </g>
    <g id="xtick_11">
     <g id="line2d_21">
      <path clip-path="url(#pa3047800b2)" d="M 218.103371 307.584 
L 218.103371 41.472 
" style="fill:none;stroke:#b0b0b0;stroke-dasharray:5.12,1.28,0.8,1.28;stroke-dashoffset:0;stroke-width:0.8;"/>
     </g>
     <g id="line2d_22">
      <g>
       <use style="stroke:#000000;stroke-width:0.8;" x="218.103371" xlink:href="#m51b974c147" y="307.584"/>
      </g>
     </g>
     <g id="text_11">
      <!-- 40 -->
      <g transform="translate(211.740871 322.182437)scale(0.1 -0.1)">
       <use xlink:href="#DejaVuSans-52"/>
       <use x="63.623047" xlink:href="#DejaVuSans-48"/>
      </g>
     </g>
    </g>
    <g id="xtick_12">
     <g id="line2d_23">
      <path clip-path="url(#pa3047800b2)" d="M 234.153708 307.584 
L 234.153708 41.472 
" style="fill:none;stroke:#b0b0b0;stroke-dasharray:5.12,1.28,0.8,1.28;stroke-dashoffset:0;stroke-width:0.8;"/>
     </g>
     <g id="line2d_24">
      <g>
       <use style="stroke:#000000;stroke-width:0.8;" x="234.153708" xlink:href="#m51b974c147" y="307.584"/>
      </g>
     </g>
     <g id="text_12">
      <!-- 44 -->
      <g transform="translate(227.791208 322.182437)scale(0.1 -0.1)">
       <use xlink:href="#DejaVuSans-52"/>
       <use x="63.623047" xlink:href="#DejaVuSans-52"/>
      </g>
     </g>
    </g>
    <g id="xtick_13">
     <g id="line2d_25">
      <path clip-path="url(#pa3047800b2)" d="M 250.204045 307.584 
L 250.204045 41.472 
" style="fill:none;stroke:#b0b0b0;stroke-dasharray:5.12,1.28,0.8,1.28;stroke-dashoffset:0;stroke-width:0.8;"/>
     </g>
     <g id="line2d_26">
      <g>
       <use style="stroke:#000000;stroke-width:0.8;" x="250.204045" xlink:href="#m51b974c147" y="307.584"/>
      </g>
     </g>
     <g id="text_13">
      <!-- 48 -->
      <g transform="translate(243.841545 322.182437)scale(0.1 -0.1)">
       <use xlink:href="#DejaVuSans-52"/>
       <use x="63.623047" xlink:href="#DejaVuSans-56"/>
      </g>
     </g>
    </g>
    <g id="xtick_14">
     <g id="line2d_27">
      <path clip-path="url(#pa3047800b2)" d="M 266.254382 307.584 
L 266.254382 41.472 
" style="fill:none;stroke:#b0b0b0;stroke-dasharray:5.12,1.28,0.8,1.28;stroke-dashoffset:0;stroke-width:0.8;"/>
     </g>
     <g id="line2d_28">
      <g>
       <use style="stroke:#000000;stroke-width:0.8;" x="266.254382" xlink:href="#m51b974c147" y="307.584"/>
      </g>
     </g>
     <g id="text_14">
      <!-- 52 -->
      <defs>
       <path d="M 10.796875 72.90625 
L 49.515625 72.90625 
L 49.515625 64.59375 
L 19.828125 64.59375 
L 19.828125 46.734375 
Q 21.96875 47.46875 24.109375 47.828125 
Q 26.265625 48.1875 28.421875 48.1875 
Q 40.625 48.1875 47.75 41.5 
Q 54.890625 34.8125 54.890625 23.390625 
Q 54.890625 11.625 47.5625 5.09375 
Q 40.234375 -1.421875 26.90625 -1.421875 
Q 22.3125 -1.421875 17.546875 -0.640625 
Q 12.796875 0.140625 7.71875 1.703125 
L 7.71875 11.625 
Q 12.109375 9.234375 16.796875 8.0625 
Q 21.484375 6.890625 26.703125 6.890625 
Q 35.15625 6.890625 40.078125 11.328125 
Q 45.015625 15.765625 45.015625 23.390625 
Q 45.015625 31 40.078125 35.4375 
Q 35.15625 39.890625 26.703125 39.890625 
Q 22.75 39.890625 18.8125 39.015625 
Q 14.890625 38.140625 10.796875 36.28125 
z
" id="DejaVuSans-53"/>
      </defs>
      <g transform="translate(259.891882 322.182437)scale(0.1 -0.1)">
       <use xlink:href="#DejaVuSans-53"/>
       <use x="63.623047" xlink:href="#DejaVuSans-50"/>
      </g>
     </g>
    </g>
    <g id="xtick_15">
     <g id="line2d_29">
      <path clip-path="url(#pa3047800b2)" d="M 282.304719 307.584 
L 282.304719 41.472 
" style="fill:none;stroke:#b0b0b0;stroke-dasharray:5.12,1.28,0.8,1.28;stroke-dashoffset:0;stroke-width:0.8;"/>
     </g>
     <g id="line2d_30">
      <g>
       <use style="stroke:#000000;stroke-width:0.8;" x="282.304719" xlink:href="#m51b974c147" y="307.584"/>
      </g>
     </g>
     <g id="text_15">
      <!-- 56 -->
      <g transform="translate(275.942219 322.182437)scale(0.1 -0.1)">
       <use xlink:href="#DejaVuSans-53"/>
       <use x="63.623047" xlink:href="#DejaVuSans-54"/>
      </g>
     </g>
    </g>
    <g id="xtick_16">
     <g id="line2d_31">
      <path clip-path="url(#pa3047800b2)" d="M 298.355056 307.584 
L 298.355056 41.472 
" style="fill:none;stroke:#b0b0b0;stroke-dasharray:5.12,1.28,0.8,1.28;stroke-dashoffset:0;stroke-width:0.8;"/>
     </g>
     <g id="line2d_32">
      <g>
       <use style="stroke:#000000;stroke-width:0.8;" x="298.355056" xlink:href="#m51b974c147" y="307.584"/>
      </g>
     </g>
     <g id="text_16">
      <!-- 60 -->
      <g transform="translate(291.992556 322.182437)scale(0.1 -0.1)">
       <use xlink:href="#DejaVuSans-54"/>
       <use x="63.623047" xlink:href="#DejaVuSans-48"/>
      </g>
     </g>
    </g>
    <g id="xtick_17">
     <g id="line2d_33">
      <path clip-path="url(#pa3047800b2)" d="M 314.405393 307.584 
L 314.405393 41.472 
" style="fill:none;stroke:#b0b0b0;stroke-dasharray:5.12,1.28,0.8,1.28;stroke-dashoffset:0;stroke-width:0.8;"/>
     </g>
     <g id="line2d_34">
      <g>
       <use style="stroke:#000000;stroke-width:0.8;" x="314.405393" xlink:href="#m51b974c147" y="307.584"/>
      </g>
     </g>
     <g id="text_17">
      <!-- 64 -->
      <g transform="translate(308.042893 322.182437)scale(0.1 -0.1)">
       <use xlink:href="#DejaVuSans-54"/>
       <use x="63.623047" xlink:href="#DejaVuSans-52"/>
      </g>
     </g>
    </g>
    <g id="xtick_18">
     <g id="line2d_35">
      <path clip-path="url(#pa3047800b2)" d="M 330.45573 307.584 
L 330.45573 41.472 
" style="fill:none;stroke:#b0b0b0;stroke-dasharray:5.12,1.28,0.8,1.28;stroke-dashoffset:0;stroke-width:0.8;"/>
     </g>
     <g id="line2d_36">
      <g>
       <use style="stroke:#000000;stroke-width:0.8;" x="330.45573" xlink:href="#m51b974c147" y="307.584"/>
      </g>
     </g>
     <g id="text_18">
      <!-- 68 -->
      <g transform="translate(324.09323 322.182437)scale(0.1 -0.1)">
       <use xlink:href="#DejaVuSans-54"/>
       <use x="63.623047" xlink:href="#DejaVuSans-56"/>
      </g>
     </g>
    </g>
    <g id="xtick_19">
     <g id="line2d_37">
      <path clip-path="url(#pa3047800b2)" d="M 346.506067 307.584 
L 346.506067 41.472 
" style="fill:none;stroke:#b0b0b0;stroke-dasharray:5.12,1.28,0.8,1.28;stroke-dashoffset:0;stroke-width:0.8;"/>
     </g>
     <g id="line2d_38">
      <g>
       <use style="stroke:#000000;stroke-width:0.8;" x="346.506067" xlink:href="#m51b974c147" y="307.584"/>
      </g>
     </g>
     <g id="text_19">
      <!-- 72 -->
      <defs>
       <path d="M 8.203125 72.90625 
L 55.078125 72.90625 
L 55.078125 68.703125 
L 28.609375 0 
L 18.3125 0 
L 43.21875 64.59375 
L 8.203125 64.59375 
z
" id="DejaVuSans-55"/>
      </defs>
      <g transform="translate(340.143567 322.182437)scale(0.1 -0.1)">
       <use xlink:href="#DejaVuSans-55"/>
       <use x="63.623047" xlink:href="#DejaVuSans-50"/>
      </g>
     </g>
    </g>
    <g id="xtick_20">
     <g id="line2d_39">
      <path clip-path="url(#pa3047800b2)" d="M 362.556404 307.584 
L 362.556404 41.472 
" style="fill:none;stroke:#b0b0b0;stroke-dasharray:5.12,1.28,0.8,1.28;stroke-dashoffset:0;stroke-width:0.8;"/>
     </g>
     <g id="line2d_40">
      <g>
       <use style="stroke:#000000;stroke-width:0.8;" x="362.556404" xlink:href="#m51b974c147" y="307.584"/>
      </g>
     </g>
     <g id="text_20">
      <!-- 76 -->
      <g transform="translate(356.193904 322.182437)scale(0.1 -0.1)">
       <use xlink:href="#DejaVuSans-55"/>
       <use x="63.623047" xlink:href="#DejaVuSans-54"/>
      </g>
     </g>
    </g>
    <g id="xtick_21">
     <g id="line2d_41">
      <path clip-path="url(#pa3047800b2)" d="M 378.606742 307.584 
L 378.606742 41.472 
" style="fill:none;stroke:#b0b0b0;stroke-dasharray:5.12,1.28,0.8,1.28;stroke-dashoffset:0;stroke-width:0.8;"/>
     </g>
     <g id="line2d_42">
      <g>
       <use style="stroke:#000000;stroke-width:0.8;" x="378.606742" xlink:href="#m51b974c147" y="307.584"/>
      </g>
     </g>
     <g id="text_21">
      <!-- 80 -->
      <g transform="translate(372.244242 322.182437)scale(0.1 -0.1)">
       <use xlink:href="#DejaVuSans-56"/>
       <use x="63.623047" xlink:href="#DejaVuSans-48"/>
      </g>
     </g>
    </g>
    <g id="xtick_22">
     <g id="line2d_43">
      <path clip-path="url(#pa3047800b2)" d="M 394.657079 307.584 
L 394.657079 41.472 
" style="fill:none;stroke:#b0b0b0;stroke-dasharray:5.12,1.28,0.8,1.28;stroke-dashoffset:0;stroke-width:0.8;"/>
     </g>
     <g id="line2d_44">
      <g>
       <use style="stroke:#000000;stroke-width:0.8;" x="394.657079" xlink:href="#m51b974c147" y="307.584"/>
      </g>
     </g>
     <g id="text_22">
      <!-- 84 -->
      <g transform="translate(388.294579 322.182437)scale(0.1 -0.1)">
       <use xlink:href="#DejaVuSans-56"/>
       <use x="63.623047" xlink:href="#DejaVuSans-52"/>
      </g>
     </g>
    </g>
    <g id="xtick_23">
     <g id="line2d_45">
      <path clip-path="url(#pa3047800b2)" d="M 410.707416 307.584 
L 410.707416 41.472 
" style="fill:none;stroke:#b0b0b0;stroke-dasharray:5.12,1.28,0.8,1.28;stroke-dashoffset:0;stroke-width:0.8;"/>
     </g>
     <g id="line2d_46">
      <g>
       <use style="stroke:#000000;stroke-width:0.8;" x="410.707416" xlink:href="#m51b974c147" y="307.584"/>
      </g>
     </g>
     <g id="text_23">
      <!-- 88 -->
      <g transform="translate(404.344916 322.182437)scale(0.1 -0.1)">
       <use xlink:href="#DejaVuSans-56"/>
       <use x="63.623047" xlink:href="#DejaVuSans-56"/>
      </g>
     </g>
    </g>
    <g id="text_24">
     <!-- threads -->
     <defs>
      <path d="M 18.3125 70.21875 
L 18.3125 54.6875 
L 36.8125 54.6875 
L 36.8125 47.703125 
L 18.3125 47.703125 
L 18.3125 18.015625 
Q 18.3125 11.328125 20.140625 9.421875 
Q 21.96875 7.515625 27.59375 7.515625 
L 36.8125 7.515625 
L 36.8125 0 
L 27.59375 0 
Q 17.1875 0 13.234375 3.875 
Q 9.28125 7.765625 9.28125 18.015625 
L 9.28125 47.703125 
L 2.6875 47.703125 
L 2.6875 54.6875 
L 9.28125 54.6875 
L 9.28125 70.21875 
z
" id="DejaVuSans-116"/>
      <path d="M 54.890625 33.015625 
L 54.890625 0 
L 45.90625 0 
L 45.90625 32.71875 
Q 45.90625 40.484375 42.875 44.328125 
Q 39.84375 48.1875 33.796875 48.1875 
Q 26.515625 48.1875 22.3125 43.546875 
Q 18.109375 38.921875 18.109375 30.90625 
L 18.109375 0 
L 9.078125 0 
L 9.078125 75.984375 
L 18.109375 75.984375 
L 18.109375 46.1875 
Q 21.34375 51.125 25.703125 53.5625 
Q 30.078125 56 35.796875 56 
Q 45.21875 56 50.046875 50.171875 
Q 54.890625 44.34375 54.890625 33.015625 
z
" id="DejaVuSans-104"/>
      <path d="M 41.109375 46.296875 
Q 39.59375 47.171875 37.8125 47.578125 
Q 36.03125 48 33.890625 48 
Q 26.265625 48 22.1875 43.046875 
Q 18.109375 38.09375 18.109375 28.8125 
L 18.109375 0 
L 9.078125 0 
L 9.078125 54.6875 
L 18.109375 54.6875 
L 18.109375 46.1875 
Q 20.953125 51.171875 25.484375 53.578125 
Q 30.03125 56 36.53125 56 
Q 37.453125 56 38.578125 55.875 
Q 39.703125 55.765625 41.0625 55.515625 
z
" id="DejaVuSans-114"/>
      <path d="M 56.203125 29.59375 
L 56.203125 25.203125 
L 14.890625 25.203125 
Q 15.484375 15.921875 20.484375 11.0625 
Q 25.484375 6.203125 34.421875 6.203125 
Q 39.59375 6.203125 44.453125 7.46875 
Q 49.3125 8.734375 54.109375 11.28125 
L 54.109375 2.78125 
Q 49.265625 0.734375 44.1875 -0.34375 
Q 39.109375 -1.421875 33.890625 -1.421875 
Q 20.796875 -1.421875 13.15625 6.1875 
Q 5.515625 13.8125 5.515625 26.8125 
Q 5.515625 40.234375 12.765625 48.109375 
Q 20.015625 56 32.328125 56 
Q 43.359375 56 49.78125 48.890625 
Q 56.203125 41.796875 56.203125 29.59375 
z
M 47.21875 32.234375 
Q 47.125 39.59375 43.09375 43.984375 
Q 39.0625 48.390625 32.421875 48.390625 
Q 24.90625 48.390625 20.390625 44.140625 
Q 15.875 39.890625 15.1875 32.171875 
z
" id="DejaVuSans-101"/>
      <path d="M 34.28125 27.484375 
Q 23.390625 27.484375 19.1875 25 
Q 14.984375 22.515625 14.984375 16.5 
Q 14.984375 11.71875 18.140625 8.90625 
Q 21.296875 6.109375 26.703125 6.109375 
Q 34.1875 6.109375 38.703125 11.40625 
Q 43.21875 16.703125 43.21875 25.484375 
L 43.21875 27.484375 
z
M 52.203125 31.203125 
L 52.203125 0 
L 43.21875 0 
L 43.21875 8.296875 
Q 40.140625 3.328125 35.546875 0.953125 
Q 30.953125 -1.421875 24.3125 -1.421875 
Q 15.921875 -1.421875 10.953125 3.296875 
Q 6 8.015625 6 15.921875 
Q 6 25.140625 12.171875 29.828125 
Q 18.359375 34.515625 30.609375 34.515625 
L 43.21875 34.515625 
L 43.21875 35.40625 
Q 43.21875 41.609375 39.140625 45 
Q 35.0625 48.390625 27.6875 48.390625 
Q 23 48.390625 18.546875 47.265625 
Q 14.109375 46.140625 10.015625 43.890625 
L 10.015625 52.203125 
Q 14.9375 54.109375 19.578125 55.046875 
Q 24.21875 56 28.609375 56 
Q 40.484375 56 46.34375 49.84375 
Q 52.203125 43.703125 52.203125 31.203125 
z
" id="DejaVuSans-97"/>
      <path d="M 45.40625 46.390625 
L 45.40625 75.984375 
L 54.390625 75.984375 
L 54.390625 0 
L 45.40625 0 
L 45.40625 8.203125 
Q 42.578125 3.328125 38.25 0.953125 
Q 33.9375 -1.421875 27.875 -1.421875 
Q 17.96875 -1.421875 11.734375 6.484375 
Q 5.515625 14.40625 5.515625 27.296875 
Q 5.515625 40.1875 11.734375 48.09375 
Q 17.96875 56 27.875 56 
Q 33.9375 56 38.25 53.625 
Q 42.578125 51.265625 45.40625 46.390625 
z
M 14.796875 27.296875 
Q 14.796875 17.390625 18.875 11.75 
Q 22.953125 6.109375 30.078125 6.109375 
Q 37.203125 6.109375 41.296875 11.75 
Q 45.40625 17.390625 45.40625 27.296875 
Q 45.40625 37.203125 41.296875 42.84375 
Q 37.203125 48.484375 30.078125 48.484375 
Q 22.953125 48.484375 18.875 42.84375 
Q 14.796875 37.203125 14.796875 27.296875 
z
" id="DejaVuSans-100"/>
      <path d="M 44.28125 53.078125 
L 44.28125 44.578125 
Q 40.484375 46.53125 36.375 47.5 
Q 32.28125 48.484375 27.875 48.484375 
Q 21.1875 48.484375 17.84375 46.4375 
Q 14.5 44.390625 14.5 40.28125 
Q 14.5 37.15625 16.890625 35.375 
Q 19.28125 33.59375 26.515625 31.984375 
L 29.59375 31.296875 
Q 39.15625 29.25 43.1875 25.515625 
Q 47.21875 21.78125 47.21875 15.09375 
Q 47.21875 7.46875 41.1875 3.015625 
Q 35.15625 -1.421875 24.609375 -1.421875 
Q 20.21875 -1.421875 15.453125 -0.5625 
Q 10.6875 0.296875 5.421875 2 
L 5.421875 11.28125 
Q 10.40625 8.6875 15.234375 7.390625 
Q 20.0625 6.109375 24.8125 6.109375 
Q 31.15625 6.109375 34.5625 8.28125 
Q 37.984375 10.453125 37.984375 14.40625 
Q 37.984375 18.0625 35.515625 20.015625 
Q 33.0625 21.96875 24.703125 23.78125 
L 21.578125 24.515625 
Q 13.234375 26.265625 9.515625 29.90625 
Q 5.8125 33.546875 5.8125 39.890625 
Q 5.8125 47.609375 11.28125 51.796875 
Q 16.75 56 26.8125 56 
Q 31.78125 56 36.171875 55.265625 
Q 40.578125 54.546875 44.28125 53.078125 
z
" id="DejaVuSans-115"/>
     </defs>
     <g transform="translate(217.168594 335.860562)scale(0.1 -0.1)">
      <use xlink:href="#DejaVuSans-116"/>
      <use x="39.208984" xlink:href="#DejaVuSans-104"/>
      <use x="102.587891" xlink:href="#DejaVuSans-114"/>
      <use x="141.451172" xlink:href="#DejaVuSans-101"/>
      <use x="202.974609" xlink:href="#DejaVuSans-97"/>
      <use x="264.253906" xlink:href="#DejaVuSans-100"/>
      <use x="327.730469" xlink:href="#DejaVuSans-115"/>
     </g>
    </g>
   </g>
   <g id="matplotlib.axis_2">
    <g id="ytick_1">
     <g id="line2d_47">
      <path clip-path="url(#pa3047800b2)" d="M 57.6 303.773093 
L 414.72 303.773093 
" style="fill:none;stroke:#b0b0b0;stroke-dasharray:5.12,1.28,0.8,1.28;stroke-dashoffset:0;stroke-width:0.8;"/>
     </g>
     <g id="line2d_48">
      <defs>
       <path d="M 0 0 
L -3.5 0 
" id="m218fd8e324" style="stroke:#000000;stroke-width:0.8;"/>
      </defs>
      <g>
       <use style="stroke:#000000;stroke-width:0.8;" x="57.6" xlink:href="#m218fd8e324" y="303.773093"/>
      </g>
     </g>
     <g id="text_25">
      <!-- 0.5 -->
      <defs>
       <path d="M 10.6875 12.40625 
L 21 12.40625 
L 21 0 
L 10.6875 0 
z
" id="DejaVuSans-46"/>
      </defs>
      <g transform="translate(34.696875 307.572312)scale(0.1 -0.1)">
       <use xlink:href="#DejaVuSans-48"/>
       <use x="63.623047" xlink:href="#DejaVuSans-46"/>
       <use x="95.410156" xlink:href="#DejaVuSans-53"/>
      </g>
     </g>
    </g>
    <g id="ytick_2">
     <g id="line2d_49">
      <path clip-path="url(#pa3047800b2)" d="M 57.6 261.397529 
L 414.72 261.397529 
" style="fill:none;stroke:#b0b0b0;stroke-dasharray:5.12,1.28,0.8,1.28;stroke-dashoffset:0;stroke-width:0.8;"/>
     </g>
     <g id="line2d_50">
      <g>
       <use style="stroke:#000000;stroke-width:0.8;" x="57.6" xlink:href="#m218fd8e324" y="261.397529"/>
      </g>
     </g>
     <g id="text_26">
      <!-- 1.0 -->
      <g transform="translate(34.696875 265.196747)scale(0.1 -0.1)">
       <use xlink:href="#DejaVuSans-49"/>
       <use x="63.623047" xlink:href="#DejaVuSans-46"/>
       <use x="95.410156" xlink:href="#DejaVuSans-48"/>
      </g>
     </g>
    </g>
    <g id="ytick_3">
     <g id="line2d_51">
      <path clip-path="url(#pa3047800b2)" d="M 57.6 219.021965 
L 414.72 219.021965 
" style="fill:none;stroke:#b0b0b0;stroke-dasharray:5.12,1.28,0.8,1.28;stroke-dashoffset:0;stroke-width:0.8;"/>
     </g>
     <g id="line2d_52">
      <g>
       <use style="stroke:#000000;stroke-width:0.8;" x="57.6" xlink:href="#m218fd8e324" y="219.021965"/>
      </g>
     </g>
     <g id="text_27">
      <!-- 1.5 -->
      <g transform="translate(34.696875 222.821183)scale(0.1 -0.1)">
       <use xlink:href="#DejaVuSans-49"/>
       <use x="63.623047" xlink:href="#DejaVuSans-46"/>
       <use x="95.410156" xlink:href="#DejaVuSans-53"/>
      </g>
     </g>
    </g>
    <g id="ytick_4">
     <g id="line2d_53">
      <path clip-path="url(#pa3047800b2)" d="M 57.6 176.6464 
L 414.72 176.6464 
" style="fill:none;stroke:#b0b0b0;stroke-dasharray:5.12,1.28,0.8,1.28;stroke-dashoffset:0;stroke-width:0.8;"/>
     </g>
     <g id="line2d_54">
      <g>
       <use style="stroke:#000000;stroke-width:0.8;" x="57.6" xlink:href="#m218fd8e324" y="176.6464"/>
      </g>
     </g>
     <g id="text_28">
      <!-- 2.0 -->
      <g transform="translate(34.696875 180.445619)scale(0.1 -0.1)">
       <use xlink:href="#DejaVuSans-50"/>
       <use x="63.623047" xlink:href="#DejaVuSans-46"/>
       <use x="95.410156" xlink:href="#DejaVuSans-48"/>
      </g>
     </g>
    </g>
    <g id="ytick_5">
     <g id="line2d_55">
      <path clip-path="url(#pa3047800b2)" d="M 57.6 134.270836 
L 414.72 134.270836 
" style="fill:none;stroke:#b0b0b0;stroke-dasharray:5.12,1.28,0.8,1.28;stroke-dashoffset:0;stroke-width:0.8;"/>
     </g>
     <g id="line2d_56">
      <g>
       <use style="stroke:#000000;stroke-width:0.8;" x="57.6" xlink:href="#m218fd8e324" y="134.270836"/>
      </g>
     </g>
     <g id="text_29">
      <!-- 2.5 -->
      <g transform="translate(34.696875 138.070055)scale(0.1 -0.1)">
       <use xlink:href="#DejaVuSans-50"/>
       <use x="63.623047" xlink:href="#DejaVuSans-46"/>
       <use x="95.410156" xlink:href="#DejaVuSans-53"/>
      </g>
     </g>
    </g>
    <g id="ytick_6">
     <g id="line2d_57">
      <path clip-path="url(#pa3047800b2)" d="M 57.6 91.895272 
L 414.72 91.895272 
" style="fill:none;stroke:#b0b0b0;stroke-dasharray:5.12,1.28,0.8,1.28;stroke-dashoffset:0;stroke-width:0.8;"/>
     </g>
     <g id="line2d_58">
      <g>
       <use style="stroke:#000000;stroke-width:0.8;" x="57.6" xlink:href="#m218fd8e324" y="91.895272"/>
      </g>
     </g>
     <g id="text_30">
      <!-- 3.0 -->
      <g transform="translate(34.696875 95.694491)scale(0.1 -0.1)">
       <use xlink:href="#DejaVuSans-51"/>
       <use x="63.623047" xlink:href="#DejaVuSans-46"/>
       <use x="95.410156" xlink:href="#DejaVuSans-48"/>
      </g>
     </g>
    </g>
    <g id="ytick_7">
     <g id="line2d_59">
      <path clip-path="url(#pa3047800b2)" d="M 57.6 49.519708 
L 414.72 49.519708 
" style="fill:none;stroke:#b0b0b0;stroke-dasharray:5.12,1.28,0.8,1.28;stroke-dashoffset:0;stroke-width:0.8;"/>
     </g>
     <g id="line2d_60">
      <g>
       <use style="stroke:#000000;stroke-width:0.8;" x="57.6" xlink:href="#m218fd8e324" y="49.519708"/>
      </g>
     </g>
     <g id="text_31">
      <!-- 3.5 -->
      <g transform="translate(34.696875 53.318927)scale(0.1 -0.1)">
       <use xlink:href="#DejaVuSans-51"/>
       <use x="63.623047" xlink:href="#DejaVuSans-46"/>
       <use x="95.410156" xlink:href="#DejaVuSans-53"/>
      </g>
     </g>
    </g>
    <g id="text_32">
     <!-- speed up -->
     <defs>
      <path d="M 18.109375 8.203125 
L 18.109375 -20.796875 
L 9.078125 -20.796875 
L 9.078125 54.6875 
L 18.109375 54.6875 
L 18.109375 46.390625 
Q 20.953125 51.265625 25.265625 53.625 
Q 29.59375 56 35.59375 56 
Q 45.5625 56 51.78125 48.09375 
Q 58.015625 40.1875 58.015625 27.296875 
Q 58.015625 14.40625 51.78125 6.484375 
Q 45.5625 -1.421875 35.59375 -1.421875 
Q 29.59375 -1.421875 25.265625 0.953125 
Q 20.953125 3.328125 18.109375 8.203125 
z
M 48.6875 27.296875 
Q 48.6875 37.203125 44.609375 42.84375 
Q 40.53125 48.484375 33.40625 48.484375 
Q 26.265625 48.484375 22.1875 42.84375 
Q 18.109375 37.203125 18.109375 27.296875 
Q 18.109375 17.390625 22.1875 11.75 
Q 26.265625 6.109375 33.40625 6.109375 
Q 40.53125 6.109375 44.609375 11.75 
Q 48.6875 17.390625 48.6875 27.296875 
z
" id="DejaVuSans-112"/>
      <path id="DejaVuSans-32"/>
      <path d="M 8.5 21.578125 
L 8.5 54.6875 
L 17.484375 54.6875 
L 17.484375 21.921875 
Q 17.484375 14.15625 20.5 10.265625 
Q 23.53125 6.390625 29.59375 6.390625 
Q 36.859375 6.390625 41.078125 11.03125 
Q 45.3125 15.671875 45.3125 23.6875 
L 45.3125 54.6875 
L 54.296875 54.6875 
L 54.296875 0 
L 45.3125 0 
L 45.3125 8.40625 
Q 42.046875 3.421875 37.71875 1 
Q 33.40625 -1.421875 27.6875 -1.421875 
Q 18.265625 -1.421875 13.375 4.4375 
Q 8.5 10.296875 8.5 21.578125 
z
M 31.109375 56 
z
" id="DejaVuSans-117"/>
     </defs>
     <g transform="translate(28.617187 197.566281)rotate(-90)scale(0.1 -0.1)">
      <use xlink:href="#DejaVuSans-115"/>
      <use x="52.099609" xlink:href="#DejaVuSans-112"/>
      <use x="115.576172" xlink:href="#DejaVuSans-101"/>
      <use x="177.099609" xlink:href="#DejaVuSans-101"/>
      <use x="238.623047" xlink:href="#DejaVuSans-100"/>
      <use x="302.099609" xlink:href="#DejaVuSans-32"/>
      <use x="333.886719" xlink:href="#DejaVuSans-117"/>
      <use x="397.265625" xlink:href="#DejaVuSans-112"/>
     </g>
    </g>
   </g>
   <g id="line2d_61">
    <path clip-path="url(#pa3047800b2)" d="M 61.612584 295.488 
L 65.625169 257.848946 
L 69.637753 231.965915 
L 73.650337 209.650507 
L 77.662921 192.064531 
L 81.675506 175.842508 
L 85.68809 161.110844 
L 89.700674 148.659212 
L 93.713258 138.248684 
L 97.725843 127.629188 
L 101.738427 120.081552 
L 105.751011 111.585443 
L 109.763596 105.918062 
L 113.77618 98.530088 
L 117.788764 95.86276 
L 121.801348 93.118289 
L 125.813933 88.287666 
L 129.826517 83.601948 
L 133.839101 82.876132 
L 137.851685 76.753709 
L 141.86427 74.367595 
L 145.876854 70.452459 
L 149.889438 72.434788 
L 153.902022 74.154924 
L 157.914607 68.316622 
L 161.927191 64.337857 
L 165.939775 62.309937 
L 169.95236 59.758186 
L 173.964944 58.844633 
L 177.977528 59.975096 
L 181.990112 57.290415 
L 186.002697 57.863808 
L 190.015281 56.241529 
L 194.027865 56.221893 
L 198.040449 55.186711 
L 202.053034 55.965926 
L 206.065618 57.387607 
L 210.078202 54.519786 
L 214.090787 56.619755 
L 218.103371 53.568 
L 222.115955 58.350441 
L 226.128539 55.214244 
L 230.141124 56.484509 
L 234.153708 53.959221 
L 238.166292 54.508306 
L 242.178876 56.001478 
L 246.191461 56.15856 
L 250.204045 56.323689 
L 254.216629 57.506779 
L 258.229213 55.40348 
L 262.241798 55.981531 
L 266.254382 56.127976 
L 270.266966 57.803043 
L 274.279551 60.711389 
L 278.292135 56.523673 
L 282.304719 58.010656 
L 286.317303 57.413762 
L 290.329888 56.782908 
L 294.342472 61.639191 
L 298.355056 57.184817 
L 302.36764 59.944028 
L 306.380225 60.385923 
L 310.392809 63.319212 
L 314.405393 60.722116 
L 318.417978 60.190294 
L 322.430562 60.193669 
L 326.443146 62.560549 
L 330.45573 60.283757 
L 334.468315 62.56191 
L 338.480899 61.946608 
L 342.493483 62.940819 
L 346.506067 63.834273 
L 350.518652 64.267132 
L 354.531236 64.990799 
L 358.54382 62.153259 
L 362.556404 67.534016 
L 366.568989 65.163884 
L 370.581573 64.602963 
L 374.594157 65.611554 
L 378.606742 67.47742 
L 382.619326 68.040175 
L 386.63191 67.123095 
L 390.644494 66.608557 
L 394.657079 65.916966 
L 398.669663 67.741199 
L 402.682247 67.459821 
L 406.694831 69.066771 
L 410.707416 73.937699 
" style="fill:none;stroke:#0000ff;stroke-dasharray:1.5,2.475;stroke-dashoffset:0;stroke-width:1.5;"/>
    <defs>
     <path d="M 0 1.5 
C 0.397805 1.5 0.77937 1.341951 1.06066 1.06066 
C 1.341951 0.77937 1.5 0.397805 1.5 0 
C 1.5 -0.397805 1.341951 -0.77937 1.06066 -1.06066 
C 0.77937 -1.341951 0.397805 -1.5 0 -1.5 
C -0.397805 -1.5 -0.77937 -1.341951 -1.06066 -1.06066 
C -1.341951 -0.77937 -1.5 -0.397805 -1.5 0 
C -1.5 0.397805 -1.341951 0.77937 -1.06066 1.06066 
C -0.77937 1.341951 -0.397805 1.5 0 1.5 
z
" id="m3a2b91b5e8" style="stroke:#0000ff;"/>
    </defs>
    <g clip-path="url(#pa3047800b2)">
     <use style="fill:#0000ff;stroke:#0000ff;" x="61.612584" xlink:href="#m3a2b91b5e8" y="295.488"/>
     <use style="fill:#0000ff;stroke:#0000ff;" x="65.625169" xlink:href="#m3a2b91b5e8" y="257.848946"/>
     <use style="fill:#0000ff;stroke:#0000ff;" x="69.637753" xlink:href="#m3a2b91b5e8" y="231.965915"/>
     <use style="fill:#0000ff;stroke:#0000ff;" x="73.650337" xlink:href="#m3a2b91b5e8" y="209.650507"/>
     <use style="fill:#0000ff;stroke:#0000ff;" x="77.662921" xlink:href="#m3a2b91b5e8" y="192.064531"/>
     <use style="fill:#0000ff;stroke:#0000ff;" x="81.675506" xlink:href="#m3a2b91b5e8" y="175.842508"/>
     <use style="fill:#0000ff;stroke:#0000ff;" x="85.68809" xlink:href="#m3a2b91b5e8" y="161.110844"/>
     <use style="fill:#0000ff;stroke:#0000ff;" x="89.700674" xlink:href="#m3a2b91b5e8" y="148.659212"/>
     <use style="fill:#0000ff;stroke:#0000ff;" x="93.713258" xlink:href="#m3a2b91b5e8" y="138.248684"/>
     <use style="fill:#0000ff;stroke:#0000ff;" x="97.725843" xlink:href="#m3a2b91b5e8" y="127.629188"/>
     <use style="fill:#0000ff;stroke:#0000ff;" x="101.738427" xlink:href="#m3a2b91b5e8" y="120.081552"/>
     <use style="fill:#0000ff;stroke:#0000ff;" x="105.751011" xlink:href="#m3a2b91b5e8" y="111.585443"/>
     <use style="fill:#0000ff;stroke:#0000ff;" x="109.763596" xlink:href="#m3a2b91b5e8" y="105.918062"/>
     <use style="fill:#0000ff;stroke:#0000ff;" x="113.77618" xlink:href="#m3a2b91b5e8" y="98.530088"/>
     <use style="fill:#0000ff;stroke:#0000ff;" x="117.788764" xlink:href="#m3a2b91b5e8" y="95.86276"/>
     <use style="fill:#0000ff;stroke:#0000ff;" x="121.801348" xlink:href="#m3a2b91b5e8" y="93.118289"/>
     <use style="fill:#0000ff;stroke:#0000ff;" x="125.813933" xlink:href="#m3a2b91b5e8" y="88.287666"/>
     <use style="fill:#0000ff;stroke:#0000ff;" x="129.826517" xlink:href="#m3a2b91b5e8" y="83.601948"/>
     <use style="fill:#0000ff;stroke:#0000ff;" x="133.839101" xlink:href="#m3a2b91b5e8" y="82.876132"/>
     <use style="fill:#0000ff;stroke:#0000ff;" x="137.851685" xlink:href="#m3a2b91b5e8" y="76.753709"/>
     <use style="fill:#0000ff;stroke:#0000ff;" x="141.86427" xlink:href="#m3a2b91b5e8" y="74.367595"/>
     <use style="fill:#0000ff;stroke:#0000ff;" x="145.876854" xlink:href="#m3a2b91b5e8" y="70.452459"/>
     <use style="fill:#0000ff;stroke:#0000ff;" x="149.889438" xlink:href="#m3a2b91b5e8" y="72.434788"/>
     <use style="fill:#0000ff;stroke:#0000ff;" x="153.902022" xlink:href="#m3a2b91b5e8" y="74.154924"/>
     <use style="fill:#0000ff;stroke:#0000ff;" x="157.914607" xlink:href="#m3a2b91b5e8" y="68.316622"/>
     <use style="fill:#0000ff;stroke:#0000ff;" x="161.927191" xlink:href="#m3a2b91b5e8" y="64.337857"/>
     <use style="fill:#0000ff;stroke:#0000ff;" x="165.939775" xlink:href="#m3a2b91b5e8" y="62.309937"/>
     <use style="fill:#0000ff;stroke:#0000ff;" x="169.95236" xlink:href="#m3a2b91b5e8" y="59.758186"/>
     <use style="fill:#0000ff;stroke:#0000ff;" x="173.964944" xlink:href="#m3a2b91b5e8" y="58.844633"/>
     <use style="fill:#0000ff;stroke:#0000ff;" x="177.977528" xlink:href="#m3a2b91b5e8" y="59.975096"/>
     <use style="fill:#0000ff;stroke:#0000ff;" x="181.990112" xlink:href="#m3a2b91b5e8" y="57.290415"/>
     <use style="fill:#0000ff;stroke:#0000ff;" x="186.002697" xlink:href="#m3a2b91b5e8" y="57.863808"/>
     <use style="fill:#0000ff;stroke:#0000ff;" x="190.015281" xlink:href="#m3a2b91b5e8" y="56.241529"/>
     <use style="fill:#0000ff;stroke:#0000ff;" x="194.027865" xlink:href="#m3a2b91b5e8" y="56.221893"/>
     <use style="fill:#0000ff;stroke:#0000ff;" x="198.040449" xlink:href="#m3a2b91b5e8" y="55.186711"/>
     <use style="fill:#0000ff;stroke:#0000ff;" x="202.053034" xlink:href="#m3a2b91b5e8" y="55.965926"/>
     <use style="fill:#0000ff;stroke:#0000ff;" x="206.065618" xlink:href="#m3a2b91b5e8" y="57.387607"/>
     <use style="fill:#0000ff;stroke:#0000ff;" x="210.078202" xlink:href="#m3a2b91b5e8" y="54.519786"/>
     <use style="fill:#0000ff;stroke:#0000ff;" x="214.090787" xlink:href="#m3a2b91b5e8" y="56.619755"/>
     <use style="fill:#0000ff;stroke:#0000ff;" x="218.103371" xlink:href="#m3a2b91b5e8" y="53.568"/>
     <use style="fill:#0000ff;stroke:#0000ff;" x="222.115955" xlink:href="#m3a2b91b5e8" y="58.350441"/>
     <use style="fill:#0000ff;stroke:#0000ff;" x="226.128539" xlink:href="#m3a2b91b5e8" y="55.214244"/>
     <use style="fill:#0000ff;stroke:#0000ff;" x="230.141124" xlink:href="#m3a2b91b5e8" y="56.484509"/>
     <use style="fill:#0000ff;stroke:#0000ff;" x="234.153708" xlink:href="#m3a2b91b5e8" y="53.959221"/>
     <use style="fill:#0000ff;stroke:#0000ff;" x="238.166292" xlink:href="#m3a2b91b5e8" y="54.508306"/>
     <use style="fill:#0000ff;stroke:#0000ff;" x="242.178876" xlink:href="#m3a2b91b5e8" y="56.001478"/>
     <use style="fill:#0000ff;stroke:#0000ff;" x="246.191461" xlink:href="#m3a2b91b5e8" y="56.15856"/>
     <use style="fill:#0000ff;stroke:#0000ff;" x="250.204045" xlink:href="#m3a2b91b5e8" y="56.323689"/>
     <use style="fill:#0000ff;stroke:#0000ff;" x="254.216629" xlink:href="#m3a2b91b5e8" y="57.506779"/>
     <use style="fill:#0000ff;stroke:#0000ff;" x="258.229213" xlink:href="#m3a2b91b5e8" y="55.40348"/>
     <use style="fill:#0000ff;stroke:#0000ff;" x="262.241798" xlink:href="#m3a2b91b5e8" y="55.981531"/>
     <use style="fill:#0000ff;stroke:#0000ff;" x="266.254382" xlink:href="#m3a2b91b5e8" y="56.127976"/>
     <use style="fill:#0000ff;stroke:#0000ff;" x="270.266966" xlink:href="#m3a2b91b5e8" y="57.803043"/>
     <use style="fill:#0000ff;stroke:#0000ff;" x="274.279551" xlink:href="#m3a2b91b5e8" y="60.711389"/>
     <use style="fill:#0000ff;stroke:#0000ff;" x="278.292135" xlink:href="#m3a2b91b5e8" y="56.523673"/>
     <use style="fill:#0000ff;stroke:#0000ff;" x="282.304719" xlink:href="#m3a2b91b5e8" y="58.010656"/>
     <use style="fill:#0000ff;stroke:#0000ff;" x="286.317303" xlink:href="#m3a2b91b5e8" y="57.413762"/>
     <use style="fill:#0000ff;stroke:#0000ff;" x="290.329888" xlink:href="#m3a2b91b5e8" y="56.782908"/>
     <use style="fill:#0000ff;stroke:#0000ff;" x="294.342472" xlink:href="#m3a2b91b5e8" y="61.639191"/>
     <use style="fill:#0000ff;stroke:#0000ff;" x="298.355056" xlink:href="#m3a2b91b5e8" y="57.184817"/>
     <use style="fill:#0000ff;stroke:#0000ff;" x="302.36764" xlink:href="#m3a2b91b5e8" y="59.944028"/>
     <use style="fill:#0000ff;stroke:#0000ff;" x="306.380225" xlink:href="#m3a2b91b5e8" y="60.385923"/>
     <use style="fill:#0000ff;stroke:#0000ff;" x="310.392809" xlink:href="#m3a2b91b5e8" y="63.319212"/>
     <use style="fill:#0000ff;stroke:#0000ff;" x="314.405393" xlink:href="#m3a2b91b5e8" y="60.722116"/>
     <use style="fill:#0000ff;stroke:#0000ff;" x="318.417978" xlink:href="#m3a2b91b5e8" y="60.190294"/>
     <use style="fill:#0000ff;stroke:#0000ff;" x="322.430562" xlink:href="#m3a2b91b5e8" y="60.193669"/>
     <use style="fill:#0000ff;stroke:#0000ff;" x="326.443146" xlink:href="#m3a2b91b5e8" y="62.560549"/>
     <use style="fill:#0000ff;stroke:#0000ff;" x="330.45573" xlink:href="#m3a2b91b5e8" y="60.283757"/>
     <use style="fill:#0000ff;stroke:#0000ff;" x="334.468315" xlink:href="#m3a2b91b5e8" y="62.56191"/>
     <use style="fill:#0000ff;stroke:#0000ff;" x="338.480899" xlink:href="#m3a2b91b5e8" y="61.946608"/>
     <use style="fill:#0000ff;stroke:#0000ff;" x="342.493483" xlink:href="#m3a2b91b5e8" y="62.940819"/>
     <use style="fill:#0000ff;stroke:#0000ff;" x="346.506067" xlink:href="#m3a2b91b5e8" y="63.834273"/>
     <use style="fill:#0000ff;stroke:#0000ff;" x="350.518652" xlink:href="#m3a2b91b5e8" y="64.267132"/>
     <use style="fill:#0000ff;stroke:#0000ff;" x="354.531236" xlink:href="#m3a2b91b5e8" y="64.990799"/>
     <use style="fill:#0000ff;stroke:#0000ff;" x="358.54382" xlink:href="#m3a2b91b5e8" y="62.153259"/>
     <use style="fill:#0000ff;stroke:#0000ff;" x="362.556404" xlink:href="#m3a2b91b5e8" y="67.534016"/>
     <use style="fill:#0000ff;stroke:#0000ff;" x="366.568989" xlink:href="#m3a2b91b5e8" y="65.163884"/>
     <use style="fill:#0000ff;stroke:#0000ff;" x="370.581573" xlink:href="#m3a2b91b5e8" y="64.602963"/>
     <use style="fill:#0000ff;stroke:#0000ff;" x="374.594157" xlink:href="#m3a2b91b5e8" y="65.611554"/>
     <use style="fill:#0000ff;stroke:#0000ff;" x="378.606742" xlink:href="#m3a2b91b5e8" y="67.47742"/>
     <use style="fill:#0000ff;stroke:#0000ff;" x="382.619326" xlink:href="#m3a2b91b5e8" y="68.040175"/>
     <use style="fill:#0000ff;stroke:#0000ff;" x="386.63191" xlink:href="#m3a2b91b5e8" y="67.123095"/>
     <use style="fill:#0000ff;stroke:#0000ff;" x="390.644494" xlink:href="#m3a2b91b5e8" y="66.608557"/>
     <use style="fill:#0000ff;stroke:#0000ff;" x="394.657079" xlink:href="#m3a2b91b5e8" y="65.916966"/>
     <use style="fill:#0000ff;stroke:#0000ff;" x="398.669663" xlink:href="#m3a2b91b5e8" y="67.741199"/>
     <use style="fill:#0000ff;stroke:#0000ff;" x="402.682247" xlink:href="#m3a2b91b5e8" y="67.459821"/>
     <use style="fill:#0000ff;stroke:#0000ff;" x="406.694831" xlink:href="#m3a2b91b5e8" y="69.066771"/>
     <use style="fill:#0000ff;stroke:#0000ff;" x="410.707416" xlink:href="#m3a2b91b5e8" y="73.937699"/>
    </g>
   </g>
   <g id="line2d_62">
    <path clip-path="url(#pa3047800b2)" d="M 61.612584 292.881039 
L 65.625169 253.25001 
L 69.637753 224.151872 
L 73.650337 205.58452 
L 77.662921 187.902422 
L 81.675506 175.934047 
L 85.68809 160.688917 
L 89.700674 150.005857 
L 93.713258 140.769607 
L 97.725843 132.693883 
L 101.738427 126.297829 
L 105.751011 122.315079 
L 109.763596 117.736279 
L 113.77618 111.588038 
L 117.788764 108.421018 
L 121.801348 110.975255 
L 125.813933 105.063691 
L 129.826517 103.233432 
L 133.839101 102.370369 
L 137.851685 101.489648 
L 141.86427 103.678942 
L 145.876854 98.89193 
L 149.889438 106.772768 
L 153.902022 106.439838 
L 157.914607 99.970985 
L 161.927191 107.743296 
L 165.939775 104.748298 
L 169.95236 98.808427 
L 173.964944 100.646236 
L 177.977528 96.604015 
L 181.990112 98.929185 
L 186.002697 99.757902 
L 190.015281 99.298721 
L 194.027865 103.419849 
L 198.040449 93.690061 
L 202.053034 94.077793 
L 206.065618 107.297652 
L 210.078202 99.58784 
L 214.090787 101.754576 
L 218.103371 102.542818 
L 222.115955 105.269416 
L 226.128539 98.258739 
L 230.141124 104.62326 
L 234.153708 102.769376 
L 238.166292 98.843576 
L 242.178876 106.342745 
L 246.191461 107.016895 
L 250.204045 106.271355 
L 254.216629 108.477317 
L 258.229213 106.747265 
L 262.241798 105.911346 
L 266.254382 106.012807 
L 270.266966 103.671542 
L 274.279551 113.107813 
L 278.292135 109.952322 
L 282.304719 110.919221 
L 286.317303 114.382093 
L 290.329888 115.40039 
L 294.342472 109.788993 
L 298.355056 109.143513 
L 302.36764 113.595851 
L 306.380225 112.957356 
L 310.392809 113.524924 
L 314.405393 109.869954 
L 318.417978 109.5988 
L 322.430562 112.193986 
L 326.443146 120.861187 
L 330.45573 115.296608 
L 334.468315 116.264348 
L 338.480899 110.739708 
L 342.493483 114.880582 
L 346.506067 115.343651 
L 350.518652 118.002387 
L 354.531236 116.2196 
L 358.54382 122.50069 
L 362.556404 119.891231 
L 366.568989 119.559816 
L 370.581573 118.917143 
L 374.594157 119.48844 
L 378.606742 117.166396 
L 382.619326 119.124223 
L 386.63191 116.926325 
L 390.644494 120.589799 
L 394.657079 121.76639 
L 398.669663 120.582385 
L 402.682247 120.926229 
L 406.694831 125.203315 
L 410.707416 125.064762 
" style="fill:none;stroke:#ff0000;stroke-dasharray:1.5,2.475;stroke-dashoffset:0;stroke-width:1.5;"/>
    <defs>
     <path d="M 0 1.5 
C 0.397805 1.5 0.77937 1.341951 1.06066 1.06066 
C 1.341951 0.77937 1.5 0.397805 1.5 0 
C 1.5 -0.397805 1.341951 -0.77937 1.06066 -1.06066 
C 0.77937 -1.341951 0.397805 -1.5 0 -1.5 
C -0.397805 -1.5 -0.77937 -1.341951 -1.06066 -1.06066 
C -1.341951 -0.77937 -1.5 -0.397805 -1.5 0 
C -1.5 0.397805 -1.341951 0.77937 -1.06066 1.06066 
C -0.77937 1.341951 -0.397805 1.5 0 1.5 
z
" id="m50acd399e2" style="stroke:#ff0000;"/>
    </defs>
    <g clip-path="url(#pa3047800b2)">
     <use style="fill:#ff0000;stroke:#ff0000;" x="61.612584" xlink:href="#m50acd399e2" y="292.881039"/>
     <use style="fill:#ff0000;stroke:#ff0000;" x="65.625169" xlink:href="#m50acd399e2" y="253.25001"/>
     <use style="fill:#ff0000;stroke:#ff0000;" x="69.637753" xlink:href="#m50acd399e2" y="224.151872"/>
     <use style="fill:#ff0000;stroke:#ff0000;" x="73.650337" xlink:href="#m50acd399e2" y="205.58452"/>
     <use style="fill:#ff0000;stroke:#ff0000;" x="77.662921" xlink:href="#m50acd399e2" y="187.902422"/>
     <use style="fill:#ff0000;stroke:#ff0000;" x="81.675506" xlink:href="#m50acd399e2" y="175.934047"/>
     <use style="fill:#ff0000;stroke:#ff0000;" x="85.68809" xlink:href="#m50acd399e2" y="160.688917"/>
     <use style="fill:#ff0000;stroke:#ff0000;" x="89.700674" xlink:href="#m50acd399e2" y="150.005857"/>
     <use style="fill:#ff0000;stroke:#ff0000;" x="93.713258" xlink:href="#m50acd399e2" y="140.769607"/>
     <use style="fill:#ff0000;stroke:#ff0000;" x="97.725843" xlink:href="#m50acd399e2" y="132.693883"/>
     <use style="fill:#ff0000;stroke:#ff0000;" x="101.738427" xlink:href="#m50acd399e2" y="126.297829"/>
     <use style="fill:#ff0000;stroke:#ff0000;" x="105.751011" xlink:href="#m50acd399e2" y="122.315079"/>
     <use style="fill:#ff0000;stroke:#ff0000;" x="109.763596" xlink:href="#m50acd399e2" y="117.736279"/>
     <use style="fill:#ff0000;stroke:#ff0000;" x="113.77618" xlink:href="#m50acd399e2" y="111.588038"/>
     <use style="fill:#ff0000;stroke:#ff0000;" x="117.788764" xlink:href="#m50acd399e2" y="108.421018"/>
     <use style="fill:#ff0000;stroke:#ff0000;" x="121.801348" xlink:href="#m50acd399e2" y="110.975255"/>
     <use style="fill:#ff0000;stroke:#ff0000;" x="125.813933" xlink:href="#m50acd399e2" y="105.063691"/>
     <use style="fill:#ff0000;stroke:#ff0000;" x="129.826517" xlink:href="#m50acd399e2" y="103.233432"/>
     <use style="fill:#ff0000;stroke:#ff0000;" x="133.839101" xlink:href="#m50acd399e2" y="102.370369"/>
     <use style="fill:#ff0000;stroke:#ff0000;" x="137.851685" xlink:href="#m50acd399e2" y="101.489648"/>
     <use style="fill:#ff0000;stroke:#ff0000;" x="141.86427" xlink:href="#m50acd399e2" y="103.678942"/>
     <use style="fill:#ff0000;stroke:#ff0000;" x="145.876854" xlink:href="#m50acd399e2" y="98.89193"/>
     <use style="fill:#ff0000;stroke:#ff0000;" x="149.889438" xlink:href="#m50acd399e2" y="106.772768"/>
     <use style="fill:#ff0000;stroke:#ff0000;" x="153.902022" xlink:href="#m50acd399e2" y="106.439838"/>
     <use style="fill:#ff0000;stroke:#ff0000;" x="157.914607" xlink:href="#m50acd399e2" y="99.970985"/>
     <use style="fill:#ff0000;stroke:#ff0000;" x="161.927191" xlink:href="#m50acd399e2" y="107.743296"/>
     <use style="fill:#ff0000;stroke:#ff0000;" x="165.939775" xlink:href="#m50acd399e2" y="104.748298"/>
     <use style="fill:#ff0000;stroke:#ff0000;" x="169.95236" xlink:href="#m50acd399e2" y="98.808427"/>
     <use style="fill:#ff0000;stroke:#ff0000;" x="173.964944" xlink:href="#m50acd399e2" y="100.646236"/>
     <use style="fill:#ff0000;stroke:#ff0000;" x="177.977528" xlink:href="#m50acd399e2" y="96.604015"/>
     <use style="fill:#ff0000;stroke:#ff0000;" x="181.990112" xlink:href="#m50acd399e2" y="98.929185"/>
     <use style="fill:#ff0000;stroke:#ff0000;" x="186.002697" xlink:href="#m50acd399e2" y="99.757902"/>
     <use style="fill:#ff0000;stroke:#ff0000;" x="190.015281" xlink:href="#m50acd399e2" y="99.298721"/>
     <use style="fill:#ff0000;stroke:#ff0000;" x="194.027865" xlink:href="#m50acd399e2" y="103.419849"/>
     <use style="fill:#ff0000;stroke:#ff0000;" x="198.040449" xlink:href="#m50acd399e2" y="93.690061"/>
     <use style="fill:#ff0000;stroke:#ff0000;" x="202.053034" xlink:href="#m50acd399e2" y="94.077793"/>
     <use style="fill:#ff0000;stroke:#ff0000;" x="206.065618" xlink:href="#m50acd399e2" y="107.297652"/>
     <use style="fill:#ff0000;stroke:#ff0000;" x="210.078202" xlink:href="#m50acd399e2" y="99.58784"/>
     <use style="fill:#ff0000;stroke:#ff0000;" x="214.090787" xlink:href="#m50acd399e2" y="101.754576"/>
     <use style="fill:#ff0000;stroke:#ff0000;" x="218.103371" xlink:href="#m50acd399e2" y="102.542818"/>
     <use style="fill:#ff0000;stroke:#ff0000;" x="222.115955" xlink:href="#m50acd399e2" y="105.269416"/>
     <use style="fill:#ff0000;stroke:#ff0000;" x="226.128539" xlink:href="#m50acd399e2" y="98.258739"/>
     <use style="fill:#ff0000;stroke:#ff0000;" x="230.141124" xlink:href="#m50acd399e2" y="104.62326"/>
     <use style="fill:#ff0000;stroke:#ff0000;" x="234.153708" xlink:href="#m50acd399e2" y="102.769376"/>
     <use style="fill:#ff0000;stroke:#ff0000;" x="238.166292" xlink:href="#m50acd399e2" y="98.843576"/>
     <use style="fill:#ff0000;stroke:#ff0000;" x="242.178876" xlink:href="#m50acd399e2" y="106.342745"/>
     <use style="fill:#ff0000;stroke:#ff0000;" x="246.191461" xlink:href="#m50acd399e2" y="107.016895"/>
     <use style="fill:#ff0000;stroke:#ff0000;" x="250.204045" xlink:href="#m50acd399e2" y="106.271355"/>
     <use style="fill:#ff0000;stroke:#ff0000;" x="254.216629" xlink:href="#m50acd399e2" y="108.477317"/>
     <use style="fill:#ff0000;stroke:#ff0000;" x="258.229213" xlink:href="#m50acd399e2" y="106.747265"/>
     <use style="fill:#ff0000;stroke:#ff0000;" x="262.241798" xlink:href="#m50acd399e2" y="105.911346"/>
     <use style="fill:#ff0000;stroke:#ff0000;" x="266.254382" xlink:href="#m50acd399e2" y="106.012807"/>
     <use style="fill:#ff0000;stroke:#ff0000;" x="270.266966" xlink:href="#m50acd399e2" y="103.671542"/>
     <use style="fill:#ff0000;stroke:#ff0000;" x="274.279551" xlink:href="#m50acd399e2" y="113.107813"/>
     <use style="fill:#ff0000;stroke:#ff0000;" x="278.292135" xlink:href="#m50acd399e2" y="109.952322"/>
     <use style="fill:#ff0000;stroke:#ff0000;" x="282.304719" xlink:href="#m50acd399e2" y="110.919221"/>
     <use style="fill:#ff0000;stroke:#ff0000;" x="286.317303" xlink:href="#m50acd399e2" y="114.382093"/>
     <use style="fill:#ff0000;stroke:#ff0000;" x="290.329888" xlink:href="#m50acd399e2" y="115.40039"/>
     <use style="fill:#ff0000;stroke:#ff0000;" x="294.342472" xlink:href="#m50acd399e2" y="109.788993"/>
     <use style="fill:#ff0000;stroke:#ff0000;" x="298.355056" xlink:href="#m50acd399e2" y="109.143513"/>
     <use style="fill:#ff0000;stroke:#ff0000;" x="302.36764" xlink:href="#m50acd399e2" y="113.595851"/>
     <use style="fill:#ff0000;stroke:#ff0000;" x="306.380225" xlink:href="#m50acd399e2" y="112.957356"/>
     <use style="fill:#ff0000;stroke:#ff0000;" x="310.392809" xlink:href="#m50acd399e2" y="113.524924"/>
     <use style="fill:#ff0000;stroke:#ff0000;" x="314.405393" xlink:href="#m50acd399e2" y="109.869954"/>
     <use style="fill:#ff0000;stroke:#ff0000;" x="318.417978" xlink:href="#m50acd399e2" y="109.5988"/>
     <use style="fill:#ff0000;stroke:#ff0000;" x="322.430562" xlink:href="#m50acd399e2" y="112.193986"/>
     <use style="fill:#ff0000;stroke:#ff0000;" x="326.443146" xlink:href="#m50acd399e2" y="120.861187"/>
     <use style="fill:#ff0000;stroke:#ff0000;" x="330.45573" xlink:href="#m50acd399e2" y="115.296608"/>
     <use style="fill:#ff0000;stroke:#ff0000;" x="334.468315" xlink:href="#m50acd399e2" y="116.264348"/>
     <use style="fill:#ff0000;stroke:#ff0000;" x="338.480899" xlink:href="#m50acd399e2" y="110.739708"/>
     <use style="fill:#ff0000;stroke:#ff0000;" x="342.493483" xlink:href="#m50acd399e2" y="114.880582"/>
     <use style="fill:#ff0000;stroke:#ff0000;" x="346.506067" xlink:href="#m50acd399e2" y="115.343651"/>
     <use style="fill:#ff0000;stroke:#ff0000;" x="350.518652" xlink:href="#m50acd399e2" y="118.002387"/>
     <use style="fill:#ff0000;stroke:#ff0000;" x="354.531236" xlink:href="#m50acd399e2" y="116.2196"/>
     <use style="fill:#ff0000;stroke:#ff0000;" x="358.54382" xlink:href="#m50acd399e2" y="122.50069"/>
     <use style="fill:#ff0000;stroke:#ff0000;" x="362.556404" xlink:href="#m50acd399e2" y="119.891231"/>
     <use style="fill:#ff0000;stroke:#ff0000;" x="366.568989" xlink:href="#m50acd399e2" y="119.559816"/>
     <use style="fill:#ff0000;stroke:#ff0000;" x="370.581573" xlink:href="#m50acd399e2" y="118.917143"/>
     <use style="fill:#ff0000;stroke:#ff0000;" x="374.594157" xlink:href="#m50acd399e2" y="119.48844"/>
     <use style="fill:#ff0000;stroke:#ff0000;" x="378.606742" xlink:href="#m50acd399e2" y="117.166396"/>
     <use style="fill:#ff0000;stroke:#ff0000;" x="382.619326" xlink:href="#m50acd399e2" y="119.124223"/>
     <use style="fill:#ff0000;stroke:#ff0000;" x="386.63191" xlink:href="#m50acd399e2" y="116.926325"/>
     <use style="fill:#ff0000;stroke:#ff0000;" x="390.644494" xlink:href="#m50acd399e2" y="120.589799"/>
     <use style="fill:#ff0000;stroke:#ff0000;" x="394.657079" xlink:href="#m50acd399e2" y="121.76639"/>
     <use style="fill:#ff0000;stroke:#ff0000;" x="398.669663" xlink:href="#m50acd399e2" y="120.582385"/>
     <use style="fill:#ff0000;stroke:#ff0000;" x="402.682247" xlink:href="#m50acd399e2" y="120.926229"/>
     <use style="fill:#ff0000;stroke:#ff0000;" x="406.694831" xlink:href="#m50acd399e2" y="125.203315"/>
     <use style="fill:#ff0000;stroke:#ff0000;" x="410.707416" xlink:href="#m50acd399e2" y="125.064762"/>
    </g>
   </g>
   <g id="line2d_63">
    <path clip-path="url(#pa3047800b2)" d="M 61.612584 294.184519 
L 65.625169 255.549478 
L 69.637753 228.058894 
L 73.650337 207.617513 
L 77.662921 189.983476 
L 81.675506 175.888277 
L 85.68809 160.899881 
L 89.700674 149.332535 
L 93.713258 139.509146 
L 97.725843 130.161536 
L 101.738427 123.18969 
L 105.751011 116.950261 
L 109.763596 111.827171 
L 113.77618 105.059063 
L 117.788764 102.141889 
L 121.801348 102.046772 
L 125.813933 96.675679 
L 129.826517 93.41769 
L 133.839101 92.62325 
L 137.851685 89.121679 
L 141.86427 89.023268 
L 145.876854 84.672195 
L 149.889438 89.603778 
L 153.902022 90.297381 
L 157.914607 84.143804 
L 161.927191 86.040576 
L 165.939775 83.529118 
L 169.95236 79.283306 
L 173.964944 79.745434 
L 177.977528 78.289556 
L 181.990112 78.1098 
L 186.002697 78.810855 
L 190.015281 77.770125 
L 194.027865 79.820871 
L 198.040449 74.438386 
L 202.053034 75.02186 
L 206.065618 82.34263 
L 210.078202 77.053813 
L 214.090787 79.187166 
L 218.103371 78.055409 
L 222.115955 81.809929 
L 226.128539 76.736491 
L 230.141124 80.553884 
L 234.153708 78.364298 
L 238.166292 76.675941 
L 242.178876 81.172111 
L 246.191461 81.587728 
L 250.204045 81.297522 
L 254.216629 82.992048 
L 258.229213 81.075373 
L 262.241798 80.946439 
L 266.254382 81.070392 
L 270.266966 80.737292 
L 274.279551 86.909601 
L 278.292135 83.237997 
L 282.304719 84.464939 
L 286.317303 85.897927 
L 290.329888 86.091649 
L 294.342472 85.714092 
L 298.355056 83.164165 
L 302.36764 86.769939 
L 306.380225 86.671639 
L 310.392809 88.422068 
L 314.405393 85.296035 
L 318.417978 84.894547 
L 322.430562 86.193828 
L 326.443146 91.710868 
L 330.45573 87.790182 
L 334.468315 89.413129 
L 338.480899 86.343158 
L 342.493483 88.9107 
L 346.506067 89.588962 
L 350.518652 91.13476 
L 354.531236 90.605199 
L 358.54382 92.326974 
L 362.556404 93.712624 
L 366.568989 92.36185 
L 370.581573 91.760053 
L 374.594157 92.549997 
L 378.606742 92.321908 
L 382.619326 93.582199 
L 386.63191 92.02471 
L 390.644494 93.599178 
L 394.657079 93.841678 
L 398.669663 94.161792 
L 402.682247 94.193025 
L 406.694831 97.135043 
L 410.707416 99.50123 
" style="fill:none;stroke:#008000;stroke-dasharray:1.5,2.475;stroke-dashoffset:0;stroke-width:1.5;"/>
    <defs>
     <path d="M 0 1.5 
C 0.397805 1.5 0.77937 1.341951 1.06066 1.06066 
C 1.341951 0.77937 1.5 0.397805 1.5 0 
C 1.5 -0.397805 1.341951 -0.77937 1.06066 -1.06066 
C 0.77937 -1.341951 0.397805 -1.5 0 -1.5 
C -0.397805 -1.5 -0.77937 -1.341951 -1.06066 -1.06066 
C -1.341951 -0.77937 -1.5 -0.397805 -1.5 0 
C -1.5 0.397805 -1.341951 0.77937 -1.06066 1.06066 
C -0.77937 1.341951 -0.397805 1.5 0 1.5 
z
" id="m89a2d4a85f" style="stroke:#008000;"/>
    </defs>
    <g clip-path="url(#pa3047800b2)">
     <use style="fill:#008000;stroke:#008000;" x="61.612584" xlink:href="#m89a2d4a85f" y="294.184519"/>
     <use style="fill:#008000;stroke:#008000;" x="65.625169" xlink:href="#m89a2d4a85f" y="255.549478"/>
     <use style="fill:#008000;stroke:#008000;" x="69.637753" xlink:href="#m89a2d4a85f" y="228.058894"/>
     <use style="fill:#008000;stroke:#008000;" x="73.650337" xlink:href="#m89a2d4a85f" y="207.617513"/>
     <use style="fill:#008000;stroke:#008000;" x="77.662921" xlink:href="#m89a2d4a85f" y="189.983476"/>
     <use style="fill:#008000;stroke:#008000;" x="81.675506" xlink:href="#m89a2d4a85f" y="175.888277"/>
     <use style="fill:#008000;stroke:#008000;" x="85.68809" xlink:href="#m89a2d4a85f" y="160.899881"/>
     <use style="fill:#008000;stroke:#008000;" x="89.700674" xlink:href="#m89a2d4a85f" y="149.332535"/>
     <use style="fill:#008000;stroke:#008000;" x="93.713258" xlink:href="#m89a2d4a85f" y="139.509146"/>
     <use style="fill:#008000;stroke:#008000;" x="97.725843" xlink:href="#m89a2d4a85f" y="130.161536"/>
     <use style="fill:#008000;stroke:#008000;" x="101.738427" xlink:href="#m89a2d4a85f" y="123.18969"/>
     <use style="fill:#008000;stroke:#008000;" x="105.751011" xlink:href="#m89a2d4a85f" y="116.950261"/>
     <use style="fill:#008000;stroke:#008000;" x="109.763596" xlink:href="#m89a2d4a85f" y="111.827171"/>
     <use style="fill:#008000;stroke:#008000;" x="113.77618" xlink:href="#m89a2d4a85f" y="105.059063"/>
     <use style="fill:#008000;stroke:#008000;" x="117.788764" xlink:href="#m89a2d4a85f" y="102.141889"/>
     <use style="fill:#008000;stroke:#008000;" x="121.801348" xlink:href="#m89a2d4a85f" y="102.046772"/>
     <use style="fill:#008000;stroke:#008000;" x="125.813933" xlink:href="#m89a2d4a85f" y="96.675679"/>
     <use style="fill:#008000;stroke:#008000;" x="129.826517" xlink:href="#m89a2d4a85f" y="93.41769"/>
     <use style="fill:#008000;stroke:#008000;" x="133.839101" xlink:href="#m89a2d4a85f" y="92.62325"/>
     <use style="fill:#008000;stroke:#008000;" x="137.851685" xlink:href="#m89a2d4a85f" y="89.121679"/>
     <use style="fill:#008000;stroke:#008000;" x="141.86427" xlink:href="#m89a2d4a85f" y="89.023268"/>
     <use style="fill:#008000;stroke:#008000;" x="145.876854" xlink:href="#m89a2d4a85f" y="84.672195"/>
     <use style="fill:#008000;stroke:#008000;" x="149.889438" xlink:href="#m89a2d4a85f" y="89.603778"/>
     <use style="fill:#008000;stroke:#008000;" x="153.902022" xlink:href="#m89a2d4a85f" y="90.297381"/>
     <use style="fill:#008000;stroke:#008000;" x="157.914607" xlink:href="#m89a2d4a85f" y="84.143804"/>
     <use style="fill:#008000;stroke:#008000;" x="161.927191" xlink:href="#m89a2d4a85f" y="86.040576"/>
     <use style="fill:#008000;stroke:#008000;" x="165.939775" xlink:href="#m89a2d4a85f" y="83.529118"/>
     <use style="fill:#008000;stroke:#008000;" x="169.95236" xlink:href="#m89a2d4a85f" y="79.283306"/>
     <use style="fill:#008000;stroke:#008000;" x="173.964944" xlink:href="#m89a2d4a85f" y="79.745434"/>
     <use style="fill:#008000;stroke:#008000;" x="177.977528" xlink:href="#m89a2d4a85f" y="78.289556"/>
     <use style="fill:#008000;stroke:#008000;" x="181.990112" xlink:href="#m89a2d4a85f" y="78.1098"/>
     <use style="fill:#008000;stroke:#008000;" x="186.002697" xlink:href="#m89a2d4a85f" y="78.810855"/>
     <use style="fill:#008000;stroke:#008000;" x="190.015281" xlink:href="#m89a2d4a85f" y="77.770125"/>
     <use style="fill:#008000;stroke:#008000;" x="194.027865" xlink:href="#m89a2d4a85f" y="79.820871"/>
     <use style="fill:#008000;stroke:#008000;" x="198.040449" xlink:href="#m89a2d4a85f" y="74.438386"/>
     <use style="fill:#008000;stroke:#008000;" x="202.053034" xlink:href="#m89a2d4a85f" y="75.02186"/>
     <use style="fill:#008000;stroke:#008000;" x="206.065618" xlink:href="#m89a2d4a85f" y="82.34263"/>
     <use style="fill:#008000;stroke:#008000;" x="210.078202" xlink:href="#m89a2d4a85f" y="77.053813"/>
     <use style="fill:#008000;stroke:#008000;" x="214.090787" xlink:href="#m89a2d4a85f" y="79.187166"/>
     <use style="fill:#008000;stroke:#008000;" x="218.103371" xlink:href="#m89a2d4a85f" y="78.055409"/>
     <use style="fill:#008000;stroke:#008000;" x="222.115955" xlink:href="#m89a2d4a85f" y="81.809929"/>
     <use style="fill:#008000;stroke:#008000;" x="226.128539" xlink:href="#m89a2d4a85f" y="76.736491"/>
     <use style="fill:#008000;stroke:#008000;" x="230.141124" xlink:href="#m89a2d4a85f" y="80.553884"/>
     <use style="fill:#008000;stroke:#008000;" x="234.153708" xlink:href="#m89a2d4a85f" y="78.364298"/>
     <use style="fill:#008000;stroke:#008000;" x="238.166292" xlink:href="#m89a2d4a85f" y="76.675941"/>
     <use style="fill:#008000;stroke:#008000;" x="242.178876" xlink:href="#m89a2d4a85f" y="81.172111"/>
     <use style="fill:#008000;stroke:#008000;" x="246.191461" xlink:href="#m89a2d4a85f" y="81.587728"/>
     <use style="fill:#008000;stroke:#008000;" x="250.204045" xlink:href="#m89a2d4a85f" y="81.297522"/>
     <use style="fill:#008000;stroke:#008000;" x="254.216629" xlink:href="#m89a2d4a85f" y="82.992048"/>
     <use style="fill:#008000;stroke:#008000;" x="258.229213" xlink:href="#m89a2d4a85f" y="81.075373"/>
     <use style="fill:#008000;stroke:#008000;" x="262.241798" xlink:href="#m89a2d4a85f" y="80.946439"/>
     <use style="fill:#008000;stroke:#008000;" x="266.254382" xlink:href="#m89a2d4a85f" y="81.070392"/>
     <use style="fill:#008000;stroke:#008000;" x="270.266966" xlink:href="#m89a2d4a85f" y="80.737292"/>
     <use style="fill:#008000;stroke:#008000;" x="274.279551" xlink:href="#m89a2d4a85f" y="86.909601"/>
     <use style="fill:#008000;stroke:#008000;" x="278.292135" xlink:href="#m89a2d4a85f" y="83.237997"/>
     <use style="fill:#008000;stroke:#008000;" x="282.304719" xlink:href="#m89a2d4a85f" y="84.464939"/>
     <use style="fill:#008000;stroke:#008000;" x="286.317303" xlink:href="#m89a2d4a85f" y="85.897927"/>
     <use style="fill:#008000;stroke:#008000;" x="290.329888" xlink:href="#m89a2d4a85f" y="86.091649"/>
     <use style="fill:#008000;stroke:#008000;" x="294.342472" xlink:href="#m89a2d4a85f" y="85.714092"/>
     <use style="fill:#008000;stroke:#008000;" x="298.355056" xlink:href="#m89a2d4a85f" y="83.164165"/>
     <use style="fill:#008000;stroke:#008000;" x="302.36764" xlink:href="#m89a2d4a85f" y="86.769939"/>
     <use style="fill:#008000;stroke:#008000;" x="306.380225" xlink:href="#m89a2d4a85f" y="86.671639"/>
     <use style="fill:#008000;stroke:#008000;" x="310.392809" xlink:href="#m89a2d4a85f" y="88.422068"/>
     <use style="fill:#008000;stroke:#008000;" x="314.405393" xlink:href="#m89a2d4a85f" y="85.296035"/>
     <use style="fill:#008000;stroke:#008000;" x="318.417978" xlink:href="#m89a2d4a85f" y="84.894547"/>
     <use style="fill:#008000;stroke:#008000;" x="322.430562" xlink:href="#m89a2d4a85f" y="86.193828"/>
     <use style="fill:#008000;stroke:#008000;" x="326.443146" xlink:href="#m89a2d4a85f" y="91.710868"/>
     <use style="fill:#008000;stroke:#008000;" x="330.45573" xlink:href="#m89a2d4a85f" y="87.790182"/>
     <use style="fill:#008000;stroke:#008000;" x="334.468315" xlink:href="#m89a2d4a85f" y="89.413129"/>
     <use style="fill:#008000;stroke:#008000;" x="338.480899" xlink:href="#m89a2d4a85f" y="86.343158"/>
     <use style="fill:#008000;stroke:#008000;" x="342.493483" xlink:href="#m89a2d4a85f" y="88.9107"/>
     <use style="fill:#008000;stroke:#008000;" x="346.506067" xlink:href="#m89a2d4a85f" y="89.588962"/>
     <use style="fill:#008000;stroke:#008000;" x="350.518652" xlink:href="#m89a2d4a85f" y="91.13476"/>
     <use style="fill:#008000;stroke:#008000;" x="354.531236" xlink:href="#m89a2d4a85f" y="90.605199"/>
     <use style="fill:#008000;stroke:#008000;" x="358.54382" xlink:href="#m89a2d4a85f" y="92.326974"/>
     <use style="fill:#008000;stroke:#008000;" x="362.556404" xlink:href="#m89a2d4a85f" y="93.712624"/>
     <use style="fill:#008000;stroke:#008000;" x="366.568989" xlink:href="#m89a2d4a85f" y="92.36185"/>
     <use style="fill:#008000;stroke:#008000;" x="370.581573" xlink:href="#m89a2d4a85f" y="91.760053"/>
     <use style="fill:#008000;stroke:#008000;" x="374.594157" xlink:href="#m89a2d4a85f" y="92.549997"/>
     <use style="fill:#008000;stroke:#008000;" x="378.606742" xlink:href="#m89a2d4a85f" y="92.321908"/>
     <use style="fill:#008000;stroke:#008000;" x="382.619326" xlink:href="#m89a2d4a85f" y="93.582199"/>
     <use style="fill:#008000;stroke:#008000;" x="386.63191" xlink:href="#m89a2d4a85f" y="92.02471"/>
     <use style="fill:#008000;stroke:#008000;" x="390.644494" xlink:href="#m89a2d4a85f" y="93.599178"/>
     <use style="fill:#008000;stroke:#008000;" x="394.657079" xlink:href="#m89a2d4a85f" y="93.841678"/>
     <use style="fill:#008000;stroke:#008000;" x="398.669663" xlink:href="#m89a2d4a85f" y="94.161792"/>
     <use style="fill:#008000;stroke:#008000;" x="402.682247" xlink:href="#m89a2d4a85f" y="94.193025"/>
     <use style="fill:#008000;stroke:#008000;" x="406.694831" xlink:href="#m89a2d4a85f" y="97.135043"/>
     <use style="fill:#008000;stroke:#008000;" x="410.707416" xlink:href="#m89a2d4a85f" y="99.50123"/>
    </g>
   </g>
   <g id="patch_3">
    <path d="M 57.6 307.584 
L 57.6 41.472 
" style="fill:none;stroke:#000000;stroke-linecap:square;stroke-linejoin:miter;stroke-width:0.8;"/>
   </g>
   <g id="patch_4">
    <path d="M 414.72 307.584 
L 414.72 41.472 
" style="fill:none;stroke:#000000;stroke-linecap:square;stroke-linejoin:miter;stroke-width:0.8;"/>
   </g>
   <g id="patch_5">
    <path d="M 57.6 307.584 
L 414.72 307.584 
" style="fill:none;stroke:#000000;stroke-linecap:square;stroke-linejoin:miter;stroke-width:0.8;"/>
   </g>
   <g id="patch_6">
    <path d="M 57.6 41.472 
L 414.72 41.472 
" style="fill:none;stroke:#000000;stroke-linecap:square;stroke-linejoin:miter;stroke-width:0.8;"/>
   </g>
   <g id="text_33">
    <!-- tbb::parallel_sort O3 OMP AVX2 on pre_transpose29 -->
    <defs>
     <path d="M 48.6875 27.296875 
Q 48.6875 37.203125 44.609375 42.84375 
Q 40.53125 48.484375 33.40625 48.484375 
Q 26.265625 48.484375 22.1875 42.84375 
Q 18.109375 37.203125 18.109375 27.296875 
Q 18.109375 17.390625 22.1875 11.75 
Q 26.265625 6.109375 33.40625 6.109375 
Q 40.53125 6.109375 44.609375 11.75 
Q 48.6875 17.390625 48.6875 27.296875 
z
M 18.109375 46.390625 
Q 20.953125 51.265625 25.265625 53.625 
Q 29.59375 56 35.59375 56 
Q 45.5625 56 51.78125 48.09375 
Q 58.015625 40.1875 58.015625 27.296875 
Q 58.015625 14.40625 51.78125 6.484375 
Q 45.5625 -1.421875 35.59375 -1.421875 
Q 29.59375 -1.421875 25.265625 0.953125 
Q 20.953125 3.328125 18.109375 8.203125 
L 18.109375 0 
L 9.078125 0 
L 9.078125 75.984375 
L 18.109375 75.984375 
z
" id="DejaVuSans-98"/>
     <path d="M 11.71875 12.40625 
L 22.015625 12.40625 
L 22.015625 0 
L 11.71875 0 
z
M 11.71875 51.703125 
L 22.015625 51.703125 
L 22.015625 39.3125 
L 11.71875 39.3125 
z
" id="DejaVuSans-58"/>
     <path d="M 9.421875 75.984375 
L 18.40625 75.984375 
L 18.40625 0 
L 9.421875 0 
z
" id="DejaVuSans-108"/>
     <path d="M 50.984375 -16.609375 
L 50.984375 -23.578125 
L -0.984375 -23.578125 
L -0.984375 -16.609375 
z
" id="DejaVuSans-95"/>
     <path d="M 30.609375 48.390625 
Q 23.390625 48.390625 19.1875 42.75 
Q 14.984375 37.109375 14.984375 27.296875 
Q 14.984375 17.484375 19.15625 11.84375 
Q 23.34375 6.203125 30.609375 6.203125 
Q 37.796875 6.203125 41.984375 11.859375 
Q 46.1875 17.53125 46.1875 27.296875 
Q 46.1875 37.015625 41.984375 42.703125 
Q 37.796875 48.390625 30.609375 48.390625 
z
M 30.609375 56 
Q 42.328125 56 49.015625 48.375 
Q 55.71875 40.765625 55.71875 27.296875 
Q 55.71875 13.875 49.015625 6.21875 
Q 42.328125 -1.421875 30.609375 -1.421875 
Q 18.84375 -1.421875 12.171875 6.21875 
Q 5.515625 13.875 5.515625 27.296875 
Q 5.515625 40.765625 12.171875 48.375 
Q 18.84375 56 30.609375 56 
z
" id="DejaVuSans-111"/>
     <path d="M 39.40625 66.21875 
Q 28.65625 66.21875 22.328125 58.203125 
Q 16.015625 50.203125 16.015625 36.375 
Q 16.015625 22.609375 22.328125 14.59375 
Q 28.65625 6.59375 39.40625 6.59375 
Q 50.140625 6.59375 56.421875 14.59375 
Q 62.703125 22.609375 62.703125 36.375 
Q 62.703125 50.203125 56.421875 58.203125 
Q 50.140625 66.21875 39.40625 66.21875 
z
M 39.40625 74.21875 
Q 54.734375 74.21875 63.90625 63.9375 
Q 73.09375 53.65625 73.09375 36.375 
Q 73.09375 19.140625 63.90625 8.859375 
Q 54.734375 -1.421875 39.40625 -1.421875 
Q 24.03125 -1.421875 14.8125 8.828125 
Q 5.609375 19.09375 5.609375 36.375 
Q 5.609375 53.65625 14.8125 63.9375 
Q 24.03125 74.21875 39.40625 74.21875 
z
" id="DejaVuSans-79"/>
     <path d="M 9.8125 72.90625 
L 24.515625 72.90625 
L 43.109375 23.296875 
L 61.8125 72.90625 
L 76.515625 72.90625 
L 76.515625 0 
L 66.890625 0 
L 66.890625 64.015625 
L 48.09375 14.015625 
L 38.1875 14.015625 
L 19.390625 64.015625 
L 19.390625 0 
L 9.8125 0 
z
" id="DejaVuSans-77"/>
     <path d="M 19.671875 64.796875 
L 19.671875 37.40625 
L 32.078125 37.40625 
Q 38.96875 37.40625 42.71875 40.96875 
Q 46.484375 44.53125 46.484375 51.125 
Q 46.484375 57.671875 42.71875 61.234375 
Q 38.96875 64.796875 32.078125 64.796875 
z
M 9.8125 72.90625 
L 32.078125 72.90625 
Q 44.34375 72.90625 50.609375 67.359375 
Q 56.890625 61.8125 56.890625 51.125 
Q 56.890625 40.328125 50.609375 34.8125 
Q 44.34375 29.296875 32.078125 29.296875 
L 19.671875 29.296875 
L 19.671875 0 
L 9.8125 0 
z
" id="DejaVuSans-80"/>
     <path d="M 34.1875 63.1875 
L 20.796875 26.90625 
L 47.609375 26.90625 
z
M 28.609375 72.90625 
L 39.796875 72.90625 
L 67.578125 0 
L 57.328125 0 
L 50.6875 18.703125 
L 17.828125 18.703125 
L 11.1875 0 
L 0.78125 0 
z
" id="DejaVuSans-65"/>
     <path d="M 28.609375 0 
L 0.78125 72.90625 
L 11.078125 72.90625 
L 34.1875 11.53125 
L 57.328125 72.90625 
L 67.578125 72.90625 
L 39.796875 0 
z
" id="DejaVuSans-86"/>
     <path d="M 6.296875 72.90625 
L 16.890625 72.90625 
L 35.015625 45.796875 
L 53.21875 72.90625 
L 63.8125 72.90625 
L 40.375 37.890625 
L 65.375 0 
L 54.78125 0 
L 34.28125 31 
L 13.625 0 
L 2.984375 0 
L 29 38.921875 
z
" id="DejaVuSans-88"/>
     <path d="M 54.890625 33.015625 
L 54.890625 0 
L 45.90625 0 
L 45.90625 32.71875 
Q 45.90625 40.484375 42.875 44.328125 
Q 39.84375 48.1875 33.796875 48.1875 
Q 26.515625 48.1875 22.3125 43.546875 
Q 18.109375 38.921875 18.109375 30.90625 
L 18.109375 0 
L 9.078125 0 
L 9.078125 54.6875 
L 18.109375 54.6875 
L 18.109375 46.1875 
Q 21.34375 51.125 25.703125 53.5625 
Q 30.078125 56 35.796875 56 
Q 45.21875 56 50.046875 50.171875 
Q 54.890625 44.34375 54.890625 33.015625 
z
" id="DejaVuSans-110"/>
     <path d="M 10.984375 1.515625 
L 10.984375 10.5 
Q 14.703125 8.734375 18.5 7.8125 
Q 22.3125 6.890625 25.984375 6.890625 
Q 35.75 6.890625 40.890625 13.453125 
Q 46.046875 20.015625 46.78125 33.40625 
Q 43.953125 29.203125 39.59375 26.953125 
Q 35.25 24.703125 29.984375 24.703125 
Q 19.046875 24.703125 12.671875 31.3125 
Q 6.296875 37.9375 6.296875 49.421875 
Q 6.296875 60.640625 12.9375 67.421875 
Q 19.578125 74.21875 30.609375 74.21875 
Q 43.265625 74.21875 49.921875 64.515625 
Q 56.59375 54.828125 56.59375 36.375 
Q 56.59375 19.140625 48.40625 8.859375 
Q 40.234375 -1.421875 26.421875 -1.421875 
Q 22.703125 -1.421875 18.890625 -0.6875 
Q 15.09375 0.046875 10.984375 1.515625 
z
M 30.609375 32.421875 
Q 37.25 32.421875 41.125 36.953125 
Q 45.015625 41.5 45.015625 49.421875 
Q 45.015625 57.28125 41.125 61.84375 
Q 37.25 66.40625 30.609375 66.40625 
Q 23.96875 66.40625 20.09375 61.84375 
Q 16.21875 57.28125 16.21875 49.421875 
Q 16.21875 41.5 20.09375 36.953125 
Q 23.96875 32.421875 30.609375 32.421875 
z
" id="DejaVuSans-57"/>
    </defs>
    <g transform="translate(80.200312 35.472)scale(0.12 -0.12)">
     <use xlink:href="#DejaVuSans-116"/>
     <use x="39.208984" xlink:href="#DejaVuSans-98"/>
     <use x="102.685547" xlink:href="#DejaVuSans-98"/>
     <use x="166.162109" xlink:href="#DejaVuSans-58"/>
     <use x="199.853516" xlink:href="#DejaVuSans-58"/>
     <use x="233.544922" xlink:href="#DejaVuSans-112"/>
     <use x="297.021484" xlink:href="#DejaVuSans-97"/>
     <use x="358.300781" xlink:href="#DejaVuSans-114"/>
     <use x="399.414062" xlink:href="#DejaVuSans-97"/>
     <use x="460.693359" xlink:href="#DejaVuSans-108"/>
     <use x="488.476562" xlink:href="#DejaVuSans-108"/>
     <use x="516.259766" xlink:href="#DejaVuSans-101"/>
     <use x="577.783203" xlink:href="#DejaVuSans-108"/>
     <use x="605.566406" xlink:href="#DejaVuSans-95"/>
     <use x="655.566406" xlink:href="#DejaVuSans-115"/>
     <use x="707.666016" xlink:href="#DejaVuSans-111"/>
     <use x="768.847656" xlink:href="#DejaVuSans-114"/>
     <use x="809.960938" xlink:href="#DejaVuSans-116"/>
     <use x="849.169922" xlink:href="#DejaVuSans-32"/>
     <use x="880.957031" xlink:href="#DejaVuSans-79"/>
     <use x="959.667969" xlink:href="#DejaVuSans-51"/>
     <use x="1023.291016" xlink:href="#DejaVuSans-32"/>
     <use x="1055.078125" xlink:href="#DejaVuSans-79"/>
     <use x="1133.789062" xlink:href="#DejaVuSans-77"/>
     <use x="1220.068359" xlink:href="#DejaVuSans-80"/>
     <use x="1280.371094" xlink:href="#DejaVuSans-32"/>
     <use x="1312.158203" xlink:href="#DejaVuSans-65"/>
     <use x="1374.191406" xlink:href="#DejaVuSans-86"/>
     <use x="1442.599609" xlink:href="#DejaVuSans-88"/>
     <use x="1511.105469" xlink:href="#DejaVuSans-50"/>
     <use x="1574.728516" xlink:href="#DejaVuSans-32"/>
     <use x="1606.515625" xlink:href="#DejaVuSans-111"/>
     <use x="1667.697266" xlink:href="#DejaVuSans-110"/>
     <use x="1731.076172" xlink:href="#DejaVuSans-32"/>
     <use x="1762.863281" xlink:href="#DejaVuSans-112"/>
     <use x="1826.339844" xlink:href="#DejaVuSans-114"/>
     <use x="1865.203125" xlink:href="#DejaVuSans-101"/>
     <use x="1926.726562" xlink:href="#DejaVuSans-95"/>
     <use x="1976.726562" xlink:href="#DejaVuSans-116"/>
     <use x="2015.935547" xlink:href="#DejaVuSans-114"/>
     <use x="2057.048828" xlink:href="#DejaVuSans-97"/>
     <use x="2118.328125" xlink:href="#DejaVuSans-110"/>
     <use x="2181.707031" xlink:href="#DejaVuSans-115"/>
     <use x="2233.806641" xlink:href="#DejaVuSans-112"/>
     <use x="2297.283203" xlink:href="#DejaVuSans-111"/>
     <use x="2358.464844" xlink:href="#DejaVuSans-115"/>
     <use x="2410.564453" xlink:href="#DejaVuSans-101"/>
     <use x="2472.087891" xlink:href="#DejaVuSans-50"/>
     <use x="2535.710938" xlink:href="#DejaVuSans-57"/>
    </g>
   </g>
   <g id="legend_1">
    <g id="patch_7">
     <path d="M 313.152813 302.584 
L 407.72 302.584 
Q 409.72 302.584 409.72 300.584 
L 409.72 257.2715 
Q 409.72 255.2715 407.72 255.2715 
L 313.152813 255.2715 
Q 311.152813 255.2715 311.152813 257.2715 
L 311.152813 300.584 
Q 311.152813 302.584 313.152813 302.584 
z
" style="fill:#ffffff;opacity:0.8;stroke:#cccccc;stroke-linejoin:miter;"/>
    </g>
    <g id="line2d_64">
     <path d="M 315.152813 263.369937 
L 335.152813 263.369937 
" style="fill:none;stroke:#0000ff;stroke-dasharray:1.5,2.475;stroke-dashoffset:0;stroke-width:1.5;"/>
    </g>
    <g id="line2d_65">
     <g>
      <use style="fill:#0000ff;stroke:#0000ff;" x="325.152813" xlink:href="#m3a2b91b5e8" y="263.369937"/>
     </g>
    </g>
    <g id="text_34">
     <!-- transpose -->
     <g transform="translate(343.152813 266.869937)scale(0.1 -0.1)">
      <use xlink:href="#DejaVuSans-116"/>
      <use x="39.208984" xlink:href="#DejaVuSans-114"/>
      <use x="80.322266" xlink:href="#DejaVuSans-97"/>
      <use x="141.601562" xlink:href="#DejaVuSans-110"/>
      <use x="204.980469" xlink:href="#DejaVuSans-115"/>
      <use x="257.080078" xlink:href="#DejaVuSans-112"/>
      <use x="320.556641" xlink:href="#DejaVuSans-111"/>
      <use x="381.738281" xlink:href="#DejaVuSans-115"/>
      <use x="433.837891" xlink:href="#DejaVuSans-101"/>
     </g>
    </g>
    <g id="line2d_66">
     <path d="M 315.152813 278.048063 
L 335.152813 278.048063 
" style="fill:none;stroke:#ff0000;stroke-dasharray:1.5,2.475;stroke-dashoffset:0;stroke-width:1.5;"/>
    </g>
    <g id="line2d_67">
     <g>
      <use style="fill:#ff0000;stroke:#ff0000;" x="325.152813" xlink:href="#m50acd399e2" y="278.048063"/>
     </g>
    </g>
    <g id="text_35">
     <!-- transpose_tr -->
     <g transform="translate(343.152813 281.548063)scale(0.1 -0.1)">
      <use xlink:href="#DejaVuSans-116"/>
      <use x="39.208984" xlink:href="#DejaVuSans-114"/>
      <use x="80.322266" xlink:href="#DejaVuSans-97"/>
      <use x="141.601562" xlink:href="#DejaVuSans-110"/>
      <use x="204.980469" xlink:href="#DejaVuSans-115"/>
      <use x="257.080078" xlink:href="#DejaVuSans-112"/>
      <use x="320.556641" xlink:href="#DejaVuSans-111"/>
      <use x="381.738281" xlink:href="#DejaVuSans-115"/>
      <use x="433.837891" xlink:href="#DejaVuSans-101"/>
      <use x="495.361328" xlink:href="#DejaVuSans-95"/>
      <use x="545.361328" xlink:href="#DejaVuSans-116"/>
      <use x="584.570312" xlink:href="#DejaVuSans-114"/>
     </g>
    </g>
    <g id="line2d_68">
     <path d="M 315.152813 293.004312 
L 335.152813 293.004312 
" style="fill:none;stroke:#008000;stroke-dasharray:1.5,2.475;stroke-dashoffset:0;stroke-width:1.5;"/>
    </g>
    <g id="line2d_69">
     <g>
      <use style="fill:#008000;stroke:#008000;" x="325.152813" xlink:href="#m89a2d4a85f" y="293.004312"/>
     </g>
    </g>
    <g id="text_36">
     <!-- mean -->
     <defs>
      <path d="M 52 44.1875 
Q 55.375 50.25 60.0625 53.125 
Q 64.75 56 71.09375 56 
Q 79.640625 56 84.28125 50.015625 
Q 88.921875 44.046875 88.921875 33.015625 
L 88.921875 0 
L 79.890625 0 
L 79.890625 32.71875 
Q 79.890625 40.578125 77.09375 44.375 
Q 74.3125 48.1875 68.609375 48.1875 
Q 61.625 48.1875 57.5625 43.546875 
Q 53.515625 38.921875 53.515625 30.90625 
L 53.515625 0 
L 44.484375 0 
L 44.484375 32.71875 
Q 44.484375 40.625 41.703125 44.40625 
Q 38.921875 48.1875 33.109375 48.1875 
Q 26.21875 48.1875 22.15625 43.53125 
Q 18.109375 38.875 18.109375 30.90625 
L 18.109375 0 
L 9.078125 0 
L 9.078125 54.6875 
L 18.109375 54.6875 
L 18.109375 46.1875 
Q 21.1875 51.21875 25.484375 53.609375 
Q 29.78125 56 35.6875 56 
Q 41.65625 56 45.828125 52.96875 
Q 50 49.953125 52 44.1875 
z
" id="DejaVuSans-109"/>
     </defs>
     <g transform="translate(343.152813 296.504312)scale(0.1 -0.1)">
      <use xlink:href="#DejaVuSans-109"/>
      <use x="97.412109" xlink:href="#DejaVuSans-101"/>
      <use x="158.935547" xlink:href="#DejaVuSans-97"/>
      <use x="220.214844" xlink:href="#DejaVuSans-110"/>
     </g>
    </g>
   </g>
  </g>
 </g>
 <defs>
  <clipPath id="pa3047800b2">
   <rect height="266.112" width="357.12" x="57.6" y="41.472"/>
  </clipPath>
 </defs>
</svg>
