<?xml version="1.0" encoding="utf-8" standalone="no"?>
<!DOCTYPE svg PUBLIC "-//W3C//DTD SVG 1.1//EN"
  "http://www.w3.org/Graphics/SVG/1.1/DTD/svg11.dtd">
<!-- Created with matplotlib (https://matplotlib.org/) -->
<svg height="345.6pt" version="1.1" viewBox="0 0 460.8 345.6" width="460.8pt" xmlns="http://www.w3.org/2000/svg" xmlns:xlink="http://www.w3.org/1999/xlink">
 <defs>
  <style type="text/css">
*{stroke-linecap:butt;stroke-linejoin:round;}
  </style>
 </defs>
 <g id="figure_1">
  <g id="patch_1">
   <path d="M 0 345.6 
L 460.8 345.6 
L 460.8 0 
L 0 0 
z
" style="fill:#ffffff;"/>
  </g>
  <g id="axes_1">
   <g id="patch_2">
    <path d="M 57.6 307.584 
L 414.72 307.584 
L 414.72 41.472 
L 57.6 41.472 
z
" style="fill:#ffffff;"/>
   </g>
   <g id="matplotlib.axis_1">
    <g id="xtick_1">
     <g id="line2d_1">
      <path clip-path="url(#p5cc254333e)" d="M 61.612584 307.584 
L 61.612584 41.472 
" style="fill:none;stroke:#b0b0b0;stroke-dasharray:5.12,1.28,0.8,1.28;stroke-dashoffset:0;stroke-width:0.8;"/>
     </g>
     <g id="line2d_2">
      <defs>
       <path d="M 0 0 
L 0 3.5 
" id="m5ccc58d726" style="stroke:#000000;stroke-width:0.8;"/>
      </defs>
      <g>
       <use style="stroke:#000000;stroke-width:0.8;" x="61.612584" xlink:href="#m5ccc58d726" y="307.584"/>
      </g>
     </g>
     <g id="text_1">
      <!-- 1 -->
      <defs>
       <path d="M 12.40625 8.296875 
L 28.515625 8.296875 
L 28.515625 63.921875 
L 10.984375 60.40625 
L 10.984375 69.390625 
L 28.421875 72.90625 
L 38.28125 72.90625 
L 38.28125 8.296875 
L 54.390625 8.296875 
L 54.390625 0 
L 12.40625 0 
z
" id="DejaVuSans-49"/>
      </defs>
      <g transform="translate(58.431334 322.182437)scale(0.1 -0.1)">
       <use xlink:href="#DejaVuSans-49"/>
      </g>
     </g>
    </g>
    <g id="xtick_2">
     <g id="line2d_3">
      <path clip-path="url(#p5cc254333e)" d="M 73.650337 307.584 
L 73.650337 41.472 
" style="fill:none;stroke:#b0b0b0;stroke-dasharray:5.12,1.28,0.8,1.28;stroke-dashoffset:0;stroke-width:0.8;"/>
     </g>
     <g id="line2d_4">
      <g>
       <use style="stroke:#000000;stroke-width:0.8;" x="73.650337" xlink:href="#m5ccc58d726" y="307.584"/>
      </g>
     </g>
     <g id="text_2">
      <!-- 4 -->
      <defs>
       <path d="M 37.796875 64.3125 
L 12.890625 25.390625 
L 37.796875 25.390625 
z
M 35.203125 72.90625 
L 47.609375 72.90625 
L 47.609375 25.390625 
L 58.015625 25.390625 
L 58.015625 17.1875 
L 47.609375 17.1875 
L 47.609375 0 
L 37.796875 0 
L 37.796875 17.1875 
L 4.890625 17.1875 
L 4.890625 26.703125 
z
" id="DejaVuSans-52"/>
      </defs>
      <g transform="translate(70.469087 322.182437)scale(0.1 -0.1)">
       <use xlink:href="#DejaVuSans-52"/>
      </g>
     </g>
    </g>
    <g id="xtick_3">
     <g id="line2d_5">
      <path clip-path="url(#p5cc254333e)" d="M 89.700674 307.584 
L 89.700674 41.472 
" style="fill:none;stroke:#b0b0b0;stroke-dasharray:5.12,1.28,0.8,1.28;stroke-dashoffset:0;stroke-width:0.8;"/>
     </g>
     <g id="line2d_6">
      <g>
       <use style="stroke:#000000;stroke-width:0.8;" x="89.700674" xlink:href="#m5ccc58d726" y="307.584"/>
      </g>
     </g>
     <g id="text_3">
      <!-- 8 -->
      <defs>
       <path d="M 31.78125 34.625 
Q 24.75 34.625 20.71875 30.859375 
Q 16.703125 27.09375 16.703125 20.515625 
Q 16.703125 13.921875 20.71875 10.15625 
Q 24.75 6.390625 31.78125 6.390625 
Q 38.8125 6.390625 42.859375 10.171875 
Q 46.921875 13.96875 46.921875 20.515625 
Q 46.921875 27.09375 42.890625 30.859375 
Q 38.875 34.625 31.78125 34.625 
z
M 21.921875 38.8125 
Q 15.578125 40.375 12.03125 44.71875 
Q 8.5 49.078125 8.5 55.328125 
Q 8.5 64.0625 14.71875 69.140625 
Q 20.953125 74.21875 31.78125 74.21875 
Q 42.671875 74.21875 48.875 69.140625 
Q 55.078125 64.0625 55.078125 55.328125 
Q 55.078125 49.078125 51.53125 44.71875 
Q 48 40.375 41.703125 38.8125 
Q 48.828125 37.15625 52.796875 32.3125 
Q 56.78125 27.484375 56.78125 20.515625 
Q 56.78125 9.90625 50.3125 4.234375 
Q 43.84375 -1.421875 31.78125 -1.421875 
Q 19.734375 -1.421875 13.25 4.234375 
Q 6.78125 9.90625 6.78125 20.515625 
Q 6.78125 27.484375 10.78125 32.3125 
Q 14.796875 37.15625 21.921875 38.8125 
z
M 18.3125 54.390625 
Q 18.3125 48.734375 21.84375 45.5625 
Q 25.390625 42.390625 31.78125 42.390625 
Q 38.140625 42.390625 41.71875 45.5625 
Q 45.3125 48.734375 45.3125 54.390625 
Q 45.3125 60.0625 41.71875 63.234375 
Q 38.140625 66.40625 31.78125 66.40625 
Q 25.390625 66.40625 21.84375 63.234375 
Q 18.3125 60.0625 18.3125 54.390625 
z
" id="DejaVuSans-56"/>
      </defs>
      <g transform="translate(86.519424 322.182437)scale(0.1 -0.1)">
       <use xlink:href="#DejaVuSans-56"/>
      </g>
     </g>
    </g>
    <g id="xtick_4">
     <g id="line2d_7">
      <path clip-path="url(#p5cc254333e)" d="M 105.751011 307.584 
L 105.751011 41.472 
" style="fill:none;stroke:#b0b0b0;stroke-dasharray:5.12,1.28,0.8,1.28;stroke-dashoffset:0;stroke-width:0.8;"/>
     </g>
     <g id="line2d_8">
      <g>
       <use style="stroke:#000000;stroke-width:0.8;" x="105.751011" xlink:href="#m5ccc58d726" y="307.584"/>
      </g>
     </g>
     <g id="text_4">
      <!-- 12 -->
      <defs>
       <path d="M 19.1875 8.296875 
L 53.609375 8.296875 
L 53.609375 0 
L 7.328125 0 
L 7.328125 8.296875 
Q 12.9375 14.109375 22.625 23.890625 
Q 32.328125 33.6875 34.8125 36.53125 
Q 39.546875 41.84375 41.421875 45.53125 
Q 43.3125 49.21875 43.3125 52.78125 
Q 43.3125 58.59375 39.234375 62.25 
Q 35.15625 65.921875 28.609375 65.921875 
Q 23.96875 65.921875 18.8125 64.3125 
Q 13.671875 62.703125 7.8125 59.421875 
L 7.8125 69.390625 
Q 13.765625 71.78125 18.9375 73 
Q 24.125 74.21875 28.421875 74.21875 
Q 39.75 74.21875 46.484375 68.546875 
Q 53.21875 62.890625 53.21875 53.421875 
Q 53.21875 48.921875 51.53125 44.890625 
Q 49.859375 40.875 45.40625 35.40625 
Q 44.1875 33.984375 37.640625 27.21875 
Q 31.109375 20.453125 19.1875 8.296875 
z
" id="DejaVuSans-50"/>
      </defs>
      <g transform="translate(99.388511 322.182437)scale(0.1 -0.1)">
       <use xlink:href="#DejaVuSans-49"/>
       <use x="63.623047" xlink:href="#DejaVuSans-50"/>
      </g>
     </g>
    </g>
    <g id="xtick_5">
     <g id="line2d_9">
      <path clip-path="url(#p5cc254333e)" d="M 121.801348 307.584 
L 121.801348 41.472 
" style="fill:none;stroke:#b0b0b0;stroke-dasharray:5.12,1.28,0.8,1.28;stroke-dashoffset:0;stroke-width:0.8;"/>
     </g>
     <g id="line2d_10">
      <g>
       <use style="stroke:#000000;stroke-width:0.8;" x="121.801348" xlink:href="#m5ccc58d726" y="307.584"/>
      </g>
     </g>
     <g id="text_5">
      <!-- 16 -->
      <defs>
       <path d="M 33.015625 40.375 
Q 26.375 40.375 22.484375 35.828125 
Q 18.609375 31.296875 18.609375 23.390625 
Q 18.609375 15.53125 22.484375 10.953125 
Q 26.375 6.390625 33.015625 6.390625 
Q 39.65625 6.390625 43.53125 10.953125 
Q 47.40625 15.53125 47.40625 23.390625 
Q 47.40625 31.296875 43.53125 35.828125 
Q 39.65625 40.375 33.015625 40.375 
z
M 52.59375 71.296875 
L 52.59375 62.3125 
Q 48.875 64.0625 45.09375 64.984375 
Q 41.3125 65.921875 37.59375 65.921875 
Q 27.828125 65.921875 22.671875 59.328125 
Q 17.53125 52.734375 16.796875 39.40625 
Q 19.671875 43.65625 24.015625 45.921875 
Q 28.375 48.1875 33.59375 48.1875 
Q 44.578125 48.1875 50.953125 41.515625 
Q 57.328125 34.859375 57.328125 23.390625 
Q 57.328125 12.15625 50.6875 5.359375 
Q 44.046875 -1.421875 33.015625 -1.421875 
Q 20.359375 -1.421875 13.671875 8.265625 
Q 6.984375 17.96875 6.984375 36.375 
Q 6.984375 53.65625 15.1875 63.9375 
Q 23.390625 74.21875 37.203125 74.21875 
Q 40.921875 74.21875 44.703125 73.484375 
Q 48.484375 72.75 52.59375 71.296875 
z
" id="DejaVuSans-54"/>
      </defs>
      <g transform="translate(115.438848 322.182437)scale(0.1 -0.1)">
       <use xlink:href="#DejaVuSans-49"/>
       <use x="63.623047" xlink:href="#DejaVuSans-54"/>
      </g>
     </g>
    </g>
    <g id="xtick_6">
     <g id="line2d_11">
      <path clip-path="url(#p5cc254333e)" d="M 137.851685 307.584 
L 137.851685 41.472 
" style="fill:none;stroke:#b0b0b0;stroke-dasharray:5.12,1.28,0.8,1.28;stroke-dashoffset:0;stroke-width:0.8;"/>
     </g>
     <g id="line2d_12">
      <g>
       <use style="stroke:#000000;stroke-width:0.8;" x="137.851685" xlink:href="#m5ccc58d726" y="307.584"/>
      </g>
     </g>
     <g id="text_6">
      <!-- 20 -->
      <defs>
       <path d="M 31.78125 66.40625 
Q 24.171875 66.40625 20.328125 58.90625 
Q 16.5 51.421875 16.5 36.375 
Q 16.5 21.390625 20.328125 13.890625 
Q 24.171875 6.390625 31.78125 6.390625 
Q 39.453125 6.390625 43.28125 13.890625 
Q 47.125 21.390625 47.125 36.375 
Q 47.125 51.421875 43.28125 58.90625 
Q 39.453125 66.40625 31.78125 66.40625 
z
M 31.78125 74.21875 
Q 44.046875 74.21875 50.515625 64.515625 
Q 56.984375 54.828125 56.984375 36.375 
Q 56.984375 17.96875 50.515625 8.265625 
Q 44.046875 -1.421875 31.78125 -1.421875 
Q 19.53125 -1.421875 13.0625 8.265625 
Q 6.59375 17.96875 6.59375 36.375 
Q 6.59375 54.828125 13.0625 64.515625 
Q 19.53125 74.21875 31.78125 74.21875 
z
" id="DejaVuSans-48"/>
      </defs>
      <g transform="translate(131.489185 322.182437)scale(0.1 -0.1)">
       <use xlink:href="#DejaVuSans-50"/>
       <use x="63.623047" xlink:href="#DejaVuSans-48"/>
      </g>
     </g>
    </g>
    <g id="xtick_7">
     <g id="line2d_13">
      <path clip-path="url(#p5cc254333e)" d="M 153.902022 307.584 
L 153.902022 41.472 
" style="fill:none;stroke:#b0b0b0;stroke-dasharray:5.12,1.28,0.8,1.28;stroke-dashoffset:0;stroke-width:0.8;"/>
     </g>
     <g id="line2d_14">
      <g>
       <use style="stroke:#000000;stroke-width:0.8;" x="153.902022" xlink:href="#m5ccc58d726" y="307.584"/>
      </g>
     </g>
     <g id="text_7">
      <!-- 24 -->
      <g transform="translate(147.539522 322.182437)scale(0.1 -0.1)">
       <use xlink:href="#DejaVuSans-50"/>
       <use x="63.623047" xlink:href="#DejaVuSans-52"/>
      </g>
     </g>
    </g>
    <g id="xtick_8">
     <g id="line2d_15">
      <path clip-path="url(#p5cc254333e)" d="M 169.95236 307.584 
L 169.95236 41.472 
" style="fill:none;stroke:#b0b0b0;stroke-dasharray:5.12,1.28,0.8,1.28;stroke-dashoffset:0;stroke-width:0.8;"/>
     </g>
     <g id="line2d_16">
      <g>
       <use style="stroke:#000000;stroke-width:0.8;" x="169.95236" xlink:href="#m5ccc58d726" y="307.584"/>
      </g>
     </g>
     <g id="text_8">
      <!-- 28 -->
      <g transform="translate(163.58986 322.182437)scale(0.1 -0.1)">
       <use xlink:href="#DejaVuSans-50"/>
       <use x="63.623047" xlink:href="#DejaVuSans-56"/>
      </g>
     </g>
    </g>
    <g id="xtick_9">
     <g id="line2d_17">
      <path clip-path="url(#p5cc254333e)" d="M 186.002697 307.584 
L 186.002697 41.472 
" style="fill:none;stroke:#b0b0b0;stroke-dasharray:5.12,1.28,0.8,1.28;stroke-dashoffset:0;stroke-width:0.8;"/>
     </g>
     <g id="line2d_18">
      <g>
       <use style="stroke:#000000;stroke-width:0.8;" x="186.002697" xlink:href="#m5ccc58d726" y="307.584"/>
      </g>
     </g>
     <g id="text_9">
      <!-- 32 -->
      <defs>
       <path d="M 40.578125 39.3125 
Q 47.65625 37.796875 51.625 33 
Q 55.609375 28.21875 55.609375 21.1875 
Q 55.609375 10.40625 48.1875 4.484375 
Q 40.765625 -1.421875 27.09375 -1.421875 
Q 22.515625 -1.421875 17.65625 -0.515625 
Q 12.796875 0.390625 7.625 2.203125 
L 7.625 11.71875 
Q 11.71875 9.328125 16.59375 8.109375 
Q 21.484375 6.890625 26.8125 6.890625 
Q 36.078125 6.890625 40.9375 10.546875 
Q 45.796875 14.203125 45.796875 21.1875 
Q 45.796875 27.640625 41.28125 31.265625 
Q 36.765625 34.90625 28.71875 34.90625 
L 20.21875 34.90625 
L 20.21875 43.015625 
L 29.109375 43.015625 
Q 36.375 43.015625 40.234375 45.921875 
Q 44.09375 48.828125 44.09375 54.296875 
Q 44.09375 59.90625 40.109375 62.90625 
Q 36.140625 65.921875 28.71875 65.921875 
Q 24.65625 65.921875 20.015625 65.03125 
Q 15.375 64.15625 9.8125 62.3125 
L 9.8125 71.09375 
Q 15.4375 72.65625 20.34375 73.4375 
Q 25.25 74.21875 29.59375 74.21875 
Q 40.828125 74.21875 47.359375 69.109375 
Q 53.90625 64.015625 53.90625 55.328125 
Q 53.90625 49.265625 50.4375 45.09375 
Q 46.96875 40.921875 40.578125 39.3125 
z
" id="DejaVuSans-51"/>
      </defs>
      <g transform="translate(179.640197 322.182437)scale(0.1 -0.1)">
       <use xlink:href="#DejaVuSans-51"/>
       <use x="63.623047" xlink:href="#DejaVuSans-50"/>
      </g>
     </g>
    </g>
    <g id="xtick_10">
     <g id="line2d_19">
      <path clip-path="url(#p5cc254333e)" d="M 202.053034 307.584 
L 202.053034 41.472 
" style="fill:none;stroke:#b0b0b0;stroke-dasharray:5.12,1.28,0.8,1.28;stroke-dashoffset:0;stroke-width:0.8;"/>
     </g>
     <g id="line2d_20">
      <g>
       <use style="stroke:#000000;stroke-width:0.8;" x="202.053034" xlink:href="#m5ccc58d726" y="307.584"/>
      </g>
     </g>
     <g id="text_10">
      <!-- 36 -->
      <g transform="translate(195.690534 322.182437)scale(0.1 -0.1)">
       <use xlink:href="#DejaVuSans-51"/>
       <use x="63.623047" xlink:href="#DejaVuSans-54"/>
      </g>
     </g>
    </g>
    <g id="xtick_11">
     <g id="line2d_21">
      <path clip-path="url(#p5cc254333e)" d="M 218.103371 307.584 
L 218.103371 41.472 
" style="fill:none;stroke:#b0b0b0;stroke-dasharray:5.12,1.28,0.8,1.28;stroke-dashoffset:0;stroke-width:0.8;"/>
     </g>
     <g id="line2d_22">
      <g>
       <use style="stroke:#000000;stroke-width:0.8;" x="218.103371" xlink:href="#m5ccc58d726" y="307.584"/>
      </g>
     </g>
     <g id="text_11">
      <!-- 40 -->
      <g transform="translate(211.740871 322.182437)scale(0.1 -0.1)">
       <use xlink:href="#DejaVuSans-52"/>
       <use x="63.623047" xlink:href="#DejaVuSans-48"/>
      </g>
     </g>
    </g>
    <g id="xtick_12">
     <g id="line2d_23">
      <path clip-path="url(#p5cc254333e)" d="M 234.153708 307.584 
L 234.153708 41.472 
" style="fill:none;stroke:#b0b0b0;stroke-dasharray:5.12,1.28,0.8,1.28;stroke-dashoffset:0;stroke-width:0.8;"/>
     </g>
     <g id="line2d_24">
      <g>
       <use style="stroke:#000000;stroke-width:0.8;" x="234.153708" xlink:href="#m5ccc58d726" y="307.584"/>
      </g>
     </g>
     <g id="text_12">
      <!-- 44 -->
      <g transform="translate(227.791208 322.182437)scale(0.1 -0.1)">
       <use xlink:href="#DejaVuSans-52"/>
       <use x="63.623047" xlink:href="#DejaVuSans-52"/>
      </g>
     </g>
    </g>
    <g id="xtick_13">
     <g id="line2d_25">
      <path clip-path="url(#p5cc254333e)" d="M 250.204045 307.584 
L 250.204045 41.472 
" style="fill:none;stroke:#b0b0b0;stroke-dasharray:5.12,1.28,0.8,1.28;stroke-dashoffset:0;stroke-width:0.8;"/>
     </g>
     <g id="line2d_26">
      <g>
       <use style="stroke:#000000;stroke-width:0.8;" x="250.204045" xlink:href="#m5ccc58d726" y="307.584"/>
      </g>
     </g>
     <g id="text_13">
      <!-- 48 -->
      <g transform="translate(243.841545 322.182437)scale(0.1 -0.1)">
       <use xlink:href="#DejaVuSans-52"/>
       <use x="63.623047" xlink:href="#DejaVuSans-56"/>
      </g>
     </g>
    </g>
    <g id="xtick_14">
     <g id="line2d_27">
      <path clip-path="url(#p5cc254333e)" d="M 266.254382 307.584 
L 266.254382 41.472 
" style="fill:none;stroke:#b0b0b0;stroke-dasharray:5.12,1.28,0.8,1.28;stroke-dashoffset:0;stroke-width:0.8;"/>
     </g>
     <g id="line2d_28">
      <g>
       <use style="stroke:#000000;stroke-width:0.8;" x="266.254382" xlink:href="#m5ccc58d726" y="307.584"/>
      </g>
     </g>
     <g id="text_14">
      <!-- 52 -->
      <defs>
       <path d="M 10.796875 72.90625 
L 49.515625 72.90625 
L 49.515625 64.59375 
L 19.828125 64.59375 
L 19.828125 46.734375 
Q 21.96875 47.46875 24.109375 47.828125 
Q 26.265625 48.1875 28.421875 48.1875 
Q 40.625 48.1875 47.75 41.5 
Q 54.890625 34.8125 54.890625 23.390625 
Q 54.890625 11.625 47.5625 5.09375 
Q 40.234375 -1.421875 26.90625 -1.421875 
Q 22.3125 -1.421875 17.546875 -0.640625 
Q 12.796875 0.140625 7.71875 1.703125 
L 7.71875 11.625 
Q 12.109375 9.234375 16.796875 8.0625 
Q 21.484375 6.890625 26.703125 6.890625 
Q 35.15625 6.890625 40.078125 11.328125 
Q 45.015625 15.765625 45.015625 23.390625 
Q 45.015625 31 40.078125 35.4375 
Q 35.15625 39.890625 26.703125 39.890625 
Q 22.75 39.890625 18.8125 39.015625 
Q 14.890625 38.140625 10.796875 36.28125 
z
" id="DejaVuSans-53"/>
      </defs>
      <g transform="translate(259.891882 322.182437)scale(0.1 -0.1)">
       <use xlink:href="#DejaVuSans-53"/>
       <use x="63.623047" xlink:href="#DejaVuSans-50"/>
      </g>
     </g>
    </g>
    <g id="xtick_15">
     <g id="line2d_29">
      <path clip-path="url(#p5cc254333e)" d="M 282.304719 307.584 
L 282.304719 41.472 
" style="fill:none;stroke:#b0b0b0;stroke-dasharray:5.12,1.28,0.8,1.28;stroke-dashoffset:0;stroke-width:0.8;"/>
     </g>
     <g id="line2d_30">
      <g>
       <use style="stroke:#000000;stroke-width:0.8;" x="282.304719" xlink:href="#m5ccc58d726" y="307.584"/>
      </g>
     </g>
     <g id="text_15">
      <!-- 56 -->
      <g transform="translate(275.942219 322.182437)scale(0.1 -0.1)">
       <use xlink:href="#DejaVuSans-53"/>
       <use x="63.623047" xlink:href="#DejaVuSans-54"/>
      </g>
     </g>
    </g>
    <g id="xtick_16">
     <g id="line2d_31">
      <path clip-path="url(#p5cc254333e)" d="M 298.355056 307.584 
L 298.355056 41.472 
" style="fill:none;stroke:#b0b0b0;stroke-dasharray:5.12,1.28,0.8,1.28;stroke-dashoffset:0;stroke-width:0.8;"/>
     </g>
     <g id="line2d_32">
      <g>
       <use style="stroke:#000000;stroke-width:0.8;" x="298.355056" xlink:href="#m5ccc58d726" y="307.584"/>
      </g>
     </g>
     <g id="text_16">
      <!-- 60 -->
      <g transform="translate(291.992556 322.182437)scale(0.1 -0.1)">
       <use xlink:href="#DejaVuSans-54"/>
       <use x="63.623047" xlink:href="#DejaVuSans-48"/>
      </g>
     </g>
    </g>
    <g id="xtick_17">
     <g id="line2d_33">
      <path clip-path="url(#p5cc254333e)" d="M 314.405393 307.584 
L 314.405393 41.472 
" style="fill:none;stroke:#b0b0b0;stroke-dasharray:5.12,1.28,0.8,1.28;stroke-dashoffset:0;stroke-width:0.8;"/>
     </g>
     <g id="line2d_34">
      <g>
       <use style="stroke:#000000;stroke-width:0.8;" x="314.405393" xlink:href="#m5ccc58d726" y="307.584"/>
      </g>
     </g>
     <g id="text_17">
      <!-- 64 -->
      <g transform="translate(308.042893 322.182437)scale(0.1 -0.1)">
       <use xlink:href="#DejaVuSans-54"/>
       <use x="63.623047" xlink:href="#DejaVuSans-52"/>
      </g>
     </g>
    </g>
    <g id="xtick_18">
     <g id="line2d_35">
      <path clip-path="url(#p5cc254333e)" d="M 330.45573 307.584 
L 330.45573 41.472 
" style="fill:none;stroke:#b0b0b0;stroke-dasharray:5.12,1.28,0.8,1.28;stroke-dashoffset:0;stroke-width:0.8;"/>
     </g>
     <g id="line2d_36">
      <g>
       <use style="stroke:#000000;stroke-width:0.8;" x="330.45573" xlink:href="#m5ccc58d726" y="307.584"/>
      </g>
     </g>
     <g id="text_18">
      <!-- 68 -->
      <g transform="translate(324.09323 322.182437)scale(0.1 -0.1)">
       <use xlink:href="#DejaVuSans-54"/>
       <use x="63.623047" xlink:href="#DejaVuSans-56"/>
      </g>
     </g>
    </g>
    <g id="xtick_19">
     <g id="line2d_37">
      <path clip-path="url(#p5cc254333e)" d="M 346.506067 307.584 
L 346.506067 41.472 
" style="fill:none;stroke:#b0b0b0;stroke-dasharray:5.12,1.28,0.8,1.28;stroke-dashoffset:0;stroke-width:0.8;"/>
     </g>
     <g id="line2d_38">
      <g>
       <use style="stroke:#000000;stroke-width:0.8;" x="346.506067" xlink:href="#m5ccc58d726" y="307.584"/>
      </g>
     </g>
     <g id="text_19">
      <!-- 72 -->
      <defs>
       <path d="M 8.203125 72.90625 
L 55.078125 72.90625 
L 55.078125 68.703125 
L 28.609375 0 
L 18.3125 0 
L 43.21875 64.59375 
L 8.203125 64.59375 
z
" id="DejaVuSans-55"/>
      </defs>
      <g transform="translate(340.143567 322.182437)scale(0.1 -0.1)">
       <use xlink:href="#DejaVuSans-55"/>
       <use x="63.623047" xlink:href="#DejaVuSans-50"/>
      </g>
     </g>
    </g>
    <g id="xtick_20">
     <g id="line2d_39">
      <path clip-path="url(#p5cc254333e)" d="M 362.556404 307.584 
L 362.556404 41.472 
" style="fill:none;stroke:#b0b0b0;stroke-dasharray:5.12,1.28,0.8,1.28;stroke-dashoffset:0;stroke-width:0.8;"/>
     </g>
     <g id="line2d_40">
      <g>
       <use style="stroke:#000000;stroke-width:0.8;" x="362.556404" xlink:href="#m5ccc58d726" y="307.584"/>
      </g>
     </g>
     <g id="text_20">
      <!-- 76 -->
      <g transform="translate(356.193904 322.182437)scale(0.1 -0.1)">
       <use xlink:href="#DejaVuSans-55"/>
       <use x="63.623047" xlink:href="#DejaVuSans-54"/>
      </g>
     </g>
    </g>
    <g id="xtick_21">
     <g id="line2d_41">
      <path clip-path="url(#p5cc254333e)" d="M 378.606742 307.584 
L 378.606742 41.472 
" style="fill:none;stroke:#b0b0b0;stroke-dasharray:5.12,1.28,0.8,1.28;stroke-dashoffset:0;stroke-width:0.8;"/>
     </g>
     <g id="line2d_42">
      <g>
       <use style="stroke:#000000;stroke-width:0.8;" x="378.606742" xlink:href="#m5ccc58d726" y="307.584"/>
      </g>
     </g>
     <g id="text_21">
      <!-- 80 -->
      <g transform="translate(372.244242 322.182437)scale(0.1 -0.1)">
       <use xlink:href="#DejaVuSans-56"/>
       <use x="63.623047" xlink:href="#DejaVuSans-48"/>
      </g>
     </g>
    </g>
    <g id="xtick_22">
     <g id="line2d_43">
      <path clip-path="url(#p5cc254333e)" d="M 394.657079 307.584 
L 394.657079 41.472 
" style="fill:none;stroke:#b0b0b0;stroke-dasharray:5.12,1.28,0.8,1.28;stroke-dashoffset:0;stroke-width:0.8;"/>
     </g>
     <g id="line2d_44">
      <g>
       <use style="stroke:#000000;stroke-width:0.8;" x="394.657079" xlink:href="#m5ccc58d726" y="307.584"/>
      </g>
     </g>
     <g id="text_22">
      <!-- 84 -->
      <g transform="translate(388.294579 322.182437)scale(0.1 -0.1)">
       <use xlink:href="#DejaVuSans-56"/>
       <use x="63.623047" xlink:href="#DejaVuSans-52"/>
      </g>
     </g>
    </g>
    <g id="xtick_23">
     <g id="line2d_45">
      <path clip-path="url(#p5cc254333e)" d="M 410.707416 307.584 
L 410.707416 41.472 
" style="fill:none;stroke:#b0b0b0;stroke-dasharray:5.12,1.28,0.8,1.28;stroke-dashoffset:0;stroke-width:0.8;"/>
     </g>
     <g id="line2d_46">
      <g>
       <use style="stroke:#000000;stroke-width:0.8;" x="410.707416" xlink:href="#m5ccc58d726" y="307.584"/>
      </g>
     </g>
     <g id="text_23">
      <!-- 88 -->
      <g transform="translate(404.344916 322.182437)scale(0.1 -0.1)">
       <use xlink:href="#DejaVuSans-56"/>
       <use x="63.623047" xlink:href="#DejaVuSans-56"/>
      </g>
     </g>
    </g>
    <g id="text_24">
     <!-- threads -->
     <defs>
      <path d="M 18.3125 70.21875 
L 18.3125 54.6875 
L 36.8125 54.6875 
L 36.8125 47.703125 
L 18.3125 47.703125 
L 18.3125 18.015625 
Q 18.3125 11.328125 20.140625 9.421875 
Q 21.96875 7.515625 27.59375 7.515625 
L 36.8125 7.515625 
L 36.8125 0 
L 27.59375 0 
Q 17.1875 0 13.234375 3.875 
Q 9.28125 7.765625 9.28125 18.015625 
L 9.28125 47.703125 
L 2.6875 47.703125 
L 2.6875 54.6875 
L 9.28125 54.6875 
L 9.28125 70.21875 
z
" id="DejaVuSans-116"/>
      <path d="M 54.890625 33.015625 
L 54.890625 0 
L 45.90625 0 
L 45.90625 32.71875 
Q 45.90625 40.484375 42.875 44.328125 
Q 39.84375 48.1875 33.796875 48.1875 
Q 26.515625 48.1875 22.3125 43.546875 
Q 18.109375 38.921875 18.109375 30.90625 
L 18.109375 0 
L 9.078125 0 
L 9.078125 75.984375 
L 18.109375 75.984375 
L 18.109375 46.1875 
Q 21.34375 51.125 25.703125 53.5625 
Q 30.078125 56 35.796875 56 
Q 45.21875 56 50.046875 50.171875 
Q 54.890625 44.34375 54.890625 33.015625 
z
" id="DejaVuSans-104"/>
      <path d="M 41.109375 46.296875 
Q 39.59375 47.171875 37.8125 47.578125 
Q 36.03125 48 33.890625 48 
Q 26.265625 48 22.1875 43.046875 
Q 18.109375 38.09375 18.109375 28.8125 
L 18.109375 0 
L 9.078125 0 
L 9.078125 54.6875 
L 18.109375 54.6875 
L 18.109375 46.1875 
Q 20.953125 51.171875 25.484375 53.578125 
Q 30.03125 56 36.53125 56 
Q 37.453125 56 38.578125 55.875 
Q 39.703125 55.765625 41.0625 55.515625 
z
" id="DejaVuSans-114"/>
      <path d="M 56.203125 29.59375 
L 56.203125 25.203125 
L 14.890625 25.203125 
Q 15.484375 15.921875 20.484375 11.0625 
Q 25.484375 6.203125 34.421875 6.203125 
Q 39.59375 6.203125 44.453125 7.46875 
Q 49.3125 8.734375 54.109375 11.28125 
L 54.109375 2.78125 
Q 49.265625 0.734375 44.1875 -0.34375 
Q 39.109375 -1.421875 33.890625 -1.421875 
Q 20.796875 -1.421875 13.15625 6.1875 
Q 5.515625 13.8125 5.515625 26.8125 
Q 5.515625 40.234375 12.765625 48.109375 
Q 20.015625 56 32.328125 56 
Q 43.359375 56 49.78125 48.890625 
Q 56.203125 41.796875 56.203125 29.59375 
z
M 47.21875 32.234375 
Q 47.125 39.59375 43.09375 43.984375 
Q 39.0625 48.390625 32.421875 48.390625 
Q 24.90625 48.390625 20.390625 44.140625 
Q 15.875 39.890625 15.1875 32.171875 
z
" id="DejaVuSans-101"/>
      <path d="M 34.28125 27.484375 
Q 23.390625 27.484375 19.1875 25 
Q 14.984375 22.515625 14.984375 16.5 
Q 14.984375 11.71875 18.140625 8.90625 
Q 21.296875 6.109375 26.703125 6.109375 
Q 34.1875 6.109375 38.703125 11.40625 
Q 43.21875 16.703125 43.21875 25.484375 
L 43.21875 27.484375 
z
M 52.203125 31.203125 
L 52.203125 0 
L 43.21875 0 
L 43.21875 8.296875 
Q 40.140625 3.328125 35.546875 0.953125 
Q 30.953125 -1.421875 24.3125 -1.421875 
Q 15.921875 -1.421875 10.953125 3.296875 
Q 6 8.015625 6 15.921875 
Q 6 25.140625 12.171875 29.828125 
Q 18.359375 34.515625 30.609375 34.515625 
L 43.21875 34.515625 
L 43.21875 35.40625 
Q 43.21875 41.609375 39.140625 45 
Q 35.0625 48.390625 27.6875 48.390625 
Q 23 48.390625 18.546875 47.265625 
Q 14.109375 46.140625 10.015625 43.890625 
L 10.015625 52.203125 
Q 14.9375 54.109375 19.578125 55.046875 
Q 24.21875 56 28.609375 56 
Q 40.484375 56 46.34375 49.84375 
Q 52.203125 43.703125 52.203125 31.203125 
z
" id="DejaVuSans-97"/>
      <path d="M 45.40625 46.390625 
L 45.40625 75.984375 
L 54.390625 75.984375 
L 54.390625 0 
L 45.40625 0 
L 45.40625 8.203125 
Q 42.578125 3.328125 38.25 0.953125 
Q 33.9375 -1.421875 27.875 -1.421875 
Q 17.96875 -1.421875 11.734375 6.484375 
Q 5.515625 14.40625 5.515625 27.296875 
Q 5.515625 40.1875 11.734375 48.09375 
Q 17.96875 56 27.875 56 
Q 33.9375 56 38.25 53.625 
Q 42.578125 51.265625 45.40625 46.390625 
z
M 14.796875 27.296875 
Q 14.796875 17.390625 18.875 11.75 
Q 22.953125 6.109375 30.078125 6.109375 
Q 37.203125 6.109375 41.296875 11.75 
Q 45.40625 17.390625 45.40625 27.296875 
Q 45.40625 37.203125 41.296875 42.84375 
Q 37.203125 48.484375 30.078125 48.484375 
Q 22.953125 48.484375 18.875 42.84375 
Q 14.796875 37.203125 14.796875 27.296875 
z
" id="DejaVuSans-100"/>
      <path d="M 44.28125 53.078125 
L 44.28125 44.578125 
Q 40.484375 46.53125 36.375 47.5 
Q 32.28125 48.484375 27.875 48.484375 
Q 21.1875 48.484375 17.84375 46.4375 
Q 14.5 44.390625 14.5 40.28125 
Q 14.5 37.15625 16.890625 35.375 
Q 19.28125 33.59375 26.515625 31.984375 
L 29.59375 31.296875 
Q 39.15625 29.25 43.1875 25.515625 
Q 47.21875 21.78125 47.21875 15.09375 
Q 47.21875 7.46875 41.1875 3.015625 
Q 35.15625 -1.421875 24.609375 -1.421875 
Q 20.21875 -1.421875 15.453125 -0.5625 
Q 10.6875 0.296875 5.421875 2 
L 5.421875 11.28125 
Q 10.40625 8.6875 15.234375 7.390625 
Q 20.0625 6.109375 24.8125 6.109375 
Q 31.15625 6.109375 34.5625 8.28125 
Q 37.984375 10.453125 37.984375 14.40625 
Q 37.984375 18.0625 35.515625 20.015625 
Q 33.0625 21.96875 24.703125 23.78125 
L 21.578125 24.515625 
Q 13.234375 26.265625 9.515625 29.90625 
Q 5.8125 33.546875 5.8125 39.890625 
Q 5.8125 47.609375 11.28125 51.796875 
Q 16.75 56 26.8125 56 
Q 31.78125 56 36.171875 55.265625 
Q 40.578125 54.546875 44.28125 53.078125 
z
" id="DejaVuSans-115"/>
     </defs>
     <g transform="translate(217.168594 335.860562)scale(0.1 -0.1)">
      <use xlink:href="#DejaVuSans-116"/>
      <use x="39.208984" xlink:href="#DejaVuSans-104"/>
      <use x="102.587891" xlink:href="#DejaVuSans-114"/>
      <use x="141.451172" xlink:href="#DejaVuSans-101"/>
      <use x="202.974609" xlink:href="#DejaVuSans-97"/>
      <use x="264.253906" xlink:href="#DejaVuSans-100"/>
      <use x="327.730469" xlink:href="#DejaVuSans-115"/>
     </g>
    </g>
   </g>
   <g id="matplotlib.axis_2">
    <g id="ytick_1">
     <g id="line2d_47">
      <path clip-path="url(#p5cc254333e)" d="M 57.6 281.920482 
L 414.72 281.920482 
" style="fill:none;stroke:#b0b0b0;stroke-dasharray:5.12,1.28,0.8,1.28;stroke-dashoffset:0;stroke-width:0.8;"/>
     </g>
     <g id="line2d_48">
      <defs>
       <path d="M 0 0 
L -3.5 0 
" id="m8e1193dbbe" style="stroke:#000000;stroke-width:0.8;"/>
      </defs>
      <g>
       <use style="stroke:#000000;stroke-width:0.8;" x="57.6" xlink:href="#m8e1193dbbe" y="281.920482"/>
      </g>
     </g>
     <g id="text_25">
      <!-- 0.2 -->
      <defs>
       <path d="M 10.6875 12.40625 
L 21 12.40625 
L 21 0 
L 10.6875 0 
z
" id="DejaVuSans-46"/>
      </defs>
      <g transform="translate(34.696875 285.719701)scale(0.1 -0.1)">
       <use xlink:href="#DejaVuSans-48"/>
       <use x="63.623047" xlink:href="#DejaVuSans-46"/>
       <use x="95.410156" xlink:href="#DejaVuSans-50"/>
      </g>
     </g>
    </g>
    <g id="ytick_2">
     <g id="line2d_49">
      <path clip-path="url(#p5cc254333e)" d="M 57.6 243.986494 
L 414.72 243.986494 
" style="fill:none;stroke:#b0b0b0;stroke-dasharray:5.12,1.28,0.8,1.28;stroke-dashoffset:0;stroke-width:0.8;"/>
     </g>
     <g id="line2d_50">
      <g>
       <use style="stroke:#000000;stroke-width:0.8;" x="57.6" xlink:href="#m8e1193dbbe" y="243.986494"/>
      </g>
     </g>
     <g id="text_26">
      <!-- 0.3 -->
      <g transform="translate(34.696875 247.785712)scale(0.1 -0.1)">
       <use xlink:href="#DejaVuSans-48"/>
       <use x="63.623047" xlink:href="#DejaVuSans-46"/>
       <use x="95.410156" xlink:href="#DejaVuSans-51"/>
      </g>
     </g>
    </g>
    <g id="ytick_3">
     <g id="line2d_51">
      <path clip-path="url(#p5cc254333e)" d="M 57.6 206.052506 
L 414.72 206.052506 
" style="fill:none;stroke:#b0b0b0;stroke-dasharray:5.12,1.28,0.8,1.28;stroke-dashoffset:0;stroke-width:0.8;"/>
     </g>
     <g id="line2d_52">
      <g>
       <use style="stroke:#000000;stroke-width:0.8;" x="57.6" xlink:href="#m8e1193dbbe" y="206.052506"/>
      </g>
     </g>
     <g id="text_27">
      <!-- 0.4 -->
      <g transform="translate(34.696875 209.851724)scale(0.1 -0.1)">
       <use xlink:href="#DejaVuSans-48"/>
       <use x="63.623047" xlink:href="#DejaVuSans-46"/>
       <use x="95.410156" xlink:href="#DejaVuSans-52"/>
      </g>
     </g>
    </g>
    <g id="ytick_4">
     <g id="line2d_53">
      <path clip-path="url(#p5cc254333e)" d="M 57.6 168.118518 
L 414.72 168.118518 
" style="fill:none;stroke:#b0b0b0;stroke-dasharray:5.12,1.28,0.8,1.28;stroke-dashoffset:0;stroke-width:0.8;"/>
     </g>
     <g id="line2d_54">
      <g>
       <use style="stroke:#000000;stroke-width:0.8;" x="57.6" xlink:href="#m8e1193dbbe" y="168.118518"/>
      </g>
     </g>
     <g id="text_28">
      <!-- 0.5 -->
      <g transform="translate(34.696875 171.917736)scale(0.1 -0.1)">
       <use xlink:href="#DejaVuSans-48"/>
       <use x="63.623047" xlink:href="#DejaVuSans-46"/>
       <use x="95.410156" xlink:href="#DejaVuSans-53"/>
      </g>
     </g>
    </g>
    <g id="ytick_5">
     <g id="line2d_55">
      <path clip-path="url(#p5cc254333e)" d="M 57.6 130.184529 
L 414.72 130.184529 
" style="fill:none;stroke:#b0b0b0;stroke-dasharray:5.12,1.28,0.8,1.28;stroke-dashoffset:0;stroke-width:0.8;"/>
     </g>
     <g id="line2d_56">
      <g>
       <use style="stroke:#000000;stroke-width:0.8;" x="57.6" xlink:href="#m8e1193dbbe" y="130.184529"/>
      </g>
     </g>
     <g id="text_29">
      <!-- 0.6 -->
      <g transform="translate(34.696875 133.983748)scale(0.1 -0.1)">
       <use xlink:href="#DejaVuSans-48"/>
       <use x="63.623047" xlink:href="#DejaVuSans-46"/>
       <use x="95.410156" xlink:href="#DejaVuSans-54"/>
      </g>
     </g>
    </g>
    <g id="ytick_6">
     <g id="line2d_57">
      <path clip-path="url(#p5cc254333e)" d="M 57.6 92.250541 
L 414.72 92.250541 
" style="fill:none;stroke:#b0b0b0;stroke-dasharray:5.12,1.28,0.8,1.28;stroke-dashoffset:0;stroke-width:0.8;"/>
     </g>
     <g id="line2d_58">
      <g>
       <use style="stroke:#000000;stroke-width:0.8;" x="57.6" xlink:href="#m8e1193dbbe" y="92.250541"/>
      </g>
     </g>
     <g id="text_30">
      <!-- 0.7 -->
      <g transform="translate(34.696875 96.04976)scale(0.1 -0.1)">
       <use xlink:href="#DejaVuSans-48"/>
       <use x="63.623047" xlink:href="#DejaVuSans-46"/>
       <use x="95.410156" xlink:href="#DejaVuSans-55"/>
      </g>
     </g>
    </g>
    <g id="ytick_7">
     <g id="line2d_59">
      <path clip-path="url(#p5cc254333e)" d="M 57.6 54.316553 
L 414.72 54.316553 
" style="fill:none;stroke:#b0b0b0;stroke-dasharray:5.12,1.28,0.8,1.28;stroke-dashoffset:0;stroke-width:0.8;"/>
     </g>
     <g id="line2d_60">
      <g>
       <use style="stroke:#000000;stroke-width:0.8;" x="57.6" xlink:href="#m8e1193dbbe" y="54.316553"/>
      </g>
     </g>
     <g id="text_31">
      <!-- 0.8 -->
      <g transform="translate(34.696875 58.115772)scale(0.1 -0.1)">
       <use xlink:href="#DejaVuSans-48"/>
       <use x="63.623047" xlink:href="#DejaVuSans-46"/>
       <use x="95.410156" xlink:href="#DejaVuSans-56"/>
      </g>
     </g>
    </g>
    <g id="text_32">
     <!-- speed up -->
     <defs>
      <path d="M 18.109375 8.203125 
L 18.109375 -20.796875 
L 9.078125 -20.796875 
L 9.078125 54.6875 
L 18.109375 54.6875 
L 18.109375 46.390625 
Q 20.953125 51.265625 25.265625 53.625 
Q 29.59375 56 35.59375 56 
Q 45.5625 56 51.78125 48.09375 
Q 58.015625 40.1875 58.015625 27.296875 
Q 58.015625 14.40625 51.78125 6.484375 
Q 45.5625 -1.421875 35.59375 -1.421875 
Q 29.59375 -1.421875 25.265625 0.953125 
Q 20.953125 3.328125 18.109375 8.203125 
z
M 48.6875 27.296875 
Q 48.6875 37.203125 44.609375 42.84375 
Q 40.53125 48.484375 33.40625 48.484375 
Q 26.265625 48.484375 22.1875 42.84375 
Q 18.109375 37.203125 18.109375 27.296875 
Q 18.109375 17.390625 22.1875 11.75 
Q 26.265625 6.109375 33.40625 6.109375 
Q 40.53125 6.109375 44.609375 11.75 
Q 48.6875 17.390625 48.6875 27.296875 
z
" id="DejaVuSans-112"/>
      <path id="DejaVuSans-32"/>
      <path d="M 8.5 21.578125 
L 8.5 54.6875 
L 17.484375 54.6875 
L 17.484375 21.921875 
Q 17.484375 14.15625 20.5 10.265625 
Q 23.53125 6.390625 29.59375 6.390625 
Q 36.859375 6.390625 41.078125 11.03125 
Q 45.3125 15.671875 45.3125 23.6875 
L 45.3125 54.6875 
L 54.296875 54.6875 
L 54.296875 0 
L 45.3125 0 
L 45.3125 8.40625 
Q 42.046875 3.421875 37.71875 1 
Q 33.40625 -1.421875 27.6875 -1.421875 
Q 18.265625 -1.421875 13.375 4.4375 
Q 8.5 10.296875 8.5 21.578125 
z
M 31.109375 56 
z
" id="DejaVuSans-117"/>
     </defs>
     <g transform="translate(28.617187 197.566281)rotate(-90)scale(0.1 -0.1)">
      <use xlink:href="#DejaVuSans-115"/>
      <use x="52.099609" xlink:href="#DejaVuSans-112"/>
      <use x="115.576172" xlink:href="#DejaVuSans-101"/>
      <use x="177.099609" xlink:href="#DejaVuSans-101"/>
      <use x="238.623047" xlink:href="#DejaVuSans-100"/>
      <use x="302.099609" xlink:href="#DejaVuSans-32"/>
      <use x="333.886719" xlink:href="#DejaVuSans-117"/>
      <use x="397.265625" xlink:href="#DejaVuSans-112"/>
     </g>
    </g>
   </g>
   <g id="line2d_61">
    <path clip-path="url(#p5cc254333e)" d="M 61.612584 295.488 
L 65.625169 254.610927 
L 69.637753 225.063188 
L 73.650337 199.626184 
L 77.662921 179.918045 
L 81.675506 165.374046 
L 85.68809 155.117881 
L 89.700674 142.946154 
L 93.713258 130.638373 
L 97.725843 126.429511 
L 101.738427 124.758914 
L 105.751011 116.058256 
L 109.763596 107.486854 
L 113.77618 102.551024 
L 117.788764 107.109367 
L 121.801348 102.808423 
L 125.813933 98.378219 
L 129.826517 97.789164 
L 133.839101 97.61441 
L 137.851685 101.684683 
L 141.86427 94.882685 
L 145.876854 92.561709 
L 149.889438 90.145805 
L 153.902022 96.976912 
L 157.914607 94.850644 
L 161.927191 98.557167 
L 165.939775 94.642104 
L 169.95236 97.631928 
L 173.964944 92.180822 
L 177.977528 91.795676 
L 181.990112 92.534894 
L 186.002697 89.699446 
L 190.015281 91.374181 
L 194.027865 91.328583 
L 198.040449 90.587992 
L 202.053034 90.374316 
L 206.065618 94.364353 
L 210.078202 89.724301 
L 214.090787 90.827656 
L 218.103371 89.864218 
L 222.115955 94.683317 
L 226.128539 93.256021 
L 230.141124 89.616222 
L 234.153708 90.542798 
L 238.166292 90.937944 
L 242.178876 93.203653 
L 246.191461 91.933606 
L 250.204045 92.293312 
L 254.216629 94.969661 
L 258.229213 103.578579 
L 262.241798 94.290862 
L 266.254382 94.324183 
L 270.266966 89.939861 
L 274.279551 98.059268 
L 278.292135 95.038225 
L 282.304719 97.368274 
L 286.317303 93.603621 
L 290.329888 99.307127 
L 294.342472 99.356164 
L 298.355056 95.990035 
L 302.36764 99.658615 
L 306.380225 99.333691 
L 310.392809 100.935126 
L 314.405393 100.201466 
L 318.417978 96.996596 
L 322.430562 102.298173 
L 326.443146 96.382111 
L 330.45573 106.206005 
L 334.468315 100.040257 
L 338.480899 99.037409 
L 342.493483 99.083713 
L 346.506067 103.903388 
L 350.518652 112.291288 
L 354.531236 104.609507 
L 358.54382 98.480776 
L 362.556404 105.325355 
L 366.568989 117.597826 
L 370.581573 106.696034 
L 374.594157 105.319057 
L 378.606742 98.906753 
L 382.619326 110.773043 
L 386.63191 116.409291 
L 390.644494 113.144652 
L 394.657079 115.877467 
L 398.669663 120.523946 
L 402.682247 119.779762 
L 406.694831 105.837339 
L 410.707416 120.422047 
" style="fill:none;stroke:#0000ff;stroke-dasharray:1.5,2.475;stroke-dashoffset:0;stroke-width:1.5;"/>
    <defs>
     <path d="M 0 1.5 
C 0.397805 1.5 0.77937 1.341951 1.06066 1.06066 
C 1.341951 0.77937 1.5 0.397805 1.5 0 
C 1.5 -0.397805 1.341951 -0.77937 1.06066 -1.06066 
C 0.77937 -1.341951 0.397805 -1.5 0 -1.5 
C -0.397805 -1.5 -0.77937 -1.341951 -1.06066 -1.06066 
C -1.341951 -0.77937 -1.5 -0.397805 -1.5 0 
C -1.5 0.397805 -1.341951 0.77937 -1.06066 1.06066 
C -0.77937 1.341951 -0.397805 1.5 0 1.5 
z
" id="m232eebb3bb" style="stroke:#0000ff;"/>
    </defs>
    <g clip-path="url(#p5cc254333e)">
     <use style="fill:#0000ff;stroke:#0000ff;" x="61.612584" xlink:href="#m232eebb3bb" y="295.488"/>
     <use style="fill:#0000ff;stroke:#0000ff;" x="65.625169" xlink:href="#m232eebb3bb" y="254.610927"/>
     <use style="fill:#0000ff;stroke:#0000ff;" x="69.637753" xlink:href="#m232eebb3bb" y="225.063188"/>
     <use style="fill:#0000ff;stroke:#0000ff;" x="73.650337" xlink:href="#m232eebb3bb" y="199.626184"/>
     <use style="fill:#0000ff;stroke:#0000ff;" x="77.662921" xlink:href="#m232eebb3bb" y="179.918045"/>
     <use style="fill:#0000ff;stroke:#0000ff;" x="81.675506" xlink:href="#m232eebb3bb" y="165.374046"/>
     <use style="fill:#0000ff;stroke:#0000ff;" x="85.68809" xlink:href="#m232eebb3bb" y="155.117881"/>
     <use style="fill:#0000ff;stroke:#0000ff;" x="89.700674" xlink:href="#m232eebb3bb" y="142.946154"/>
     <use style="fill:#0000ff;stroke:#0000ff;" x="93.713258" xlink:href="#m232eebb3bb" y="130.638373"/>
     <use style="fill:#0000ff;stroke:#0000ff;" x="97.725843" xlink:href="#m232eebb3bb" y="126.429511"/>
     <use style="fill:#0000ff;stroke:#0000ff;" x="101.738427" xlink:href="#m232eebb3bb" y="124.758914"/>
     <use style="fill:#0000ff;stroke:#0000ff;" x="105.751011" xlink:href="#m232eebb3bb" y="116.058256"/>
     <use style="fill:#0000ff;stroke:#0000ff;" x="109.763596" xlink:href="#m232eebb3bb" y="107.486854"/>
     <use style="fill:#0000ff;stroke:#0000ff;" x="113.77618" xlink:href="#m232eebb3bb" y="102.551024"/>
     <use style="fill:#0000ff;stroke:#0000ff;" x="117.788764" xlink:href="#m232eebb3bb" y="107.109367"/>
     <use style="fill:#0000ff;stroke:#0000ff;" x="121.801348" xlink:href="#m232eebb3bb" y="102.808423"/>
     <use style="fill:#0000ff;stroke:#0000ff;" x="125.813933" xlink:href="#m232eebb3bb" y="98.378219"/>
     <use style="fill:#0000ff;stroke:#0000ff;" x="129.826517" xlink:href="#m232eebb3bb" y="97.789164"/>
     <use style="fill:#0000ff;stroke:#0000ff;" x="133.839101" xlink:href="#m232eebb3bb" y="97.61441"/>
     <use style="fill:#0000ff;stroke:#0000ff;" x="137.851685" xlink:href="#m232eebb3bb" y="101.684683"/>
     <use style="fill:#0000ff;stroke:#0000ff;" x="141.86427" xlink:href="#m232eebb3bb" y="94.882685"/>
     <use style="fill:#0000ff;stroke:#0000ff;" x="145.876854" xlink:href="#m232eebb3bb" y="92.561709"/>
     <use style="fill:#0000ff;stroke:#0000ff;" x="149.889438" xlink:href="#m232eebb3bb" y="90.145805"/>
     <use style="fill:#0000ff;stroke:#0000ff;" x="153.902022" xlink:href="#m232eebb3bb" y="96.976912"/>
     <use style="fill:#0000ff;stroke:#0000ff;" x="157.914607" xlink:href="#m232eebb3bb" y="94.850644"/>
     <use style="fill:#0000ff;stroke:#0000ff;" x="161.927191" xlink:href="#m232eebb3bb" y="98.557167"/>
     <use style="fill:#0000ff;stroke:#0000ff;" x="165.939775" xlink:href="#m232eebb3bb" y="94.642104"/>
     <use style="fill:#0000ff;stroke:#0000ff;" x="169.95236" xlink:href="#m232eebb3bb" y="97.631928"/>
     <use style="fill:#0000ff;stroke:#0000ff;" x="173.964944" xlink:href="#m232eebb3bb" y="92.180822"/>
     <use style="fill:#0000ff;stroke:#0000ff;" x="177.977528" xlink:href="#m232eebb3bb" y="91.795676"/>
     <use style="fill:#0000ff;stroke:#0000ff;" x="181.990112" xlink:href="#m232eebb3bb" y="92.534894"/>
     <use style="fill:#0000ff;stroke:#0000ff;" x="186.002697" xlink:href="#m232eebb3bb" y="89.699446"/>
     <use style="fill:#0000ff;stroke:#0000ff;" x="190.015281" xlink:href="#m232eebb3bb" y="91.374181"/>
     <use style="fill:#0000ff;stroke:#0000ff;" x="194.027865" xlink:href="#m232eebb3bb" y="91.328583"/>
     <use style="fill:#0000ff;stroke:#0000ff;" x="198.040449" xlink:href="#m232eebb3bb" y="90.587992"/>
     <use style="fill:#0000ff;stroke:#0000ff;" x="202.053034" xlink:href="#m232eebb3bb" y="90.374316"/>
     <use style="fill:#0000ff;stroke:#0000ff;" x="206.065618" xlink:href="#m232eebb3bb" y="94.364353"/>
     <use style="fill:#0000ff;stroke:#0000ff;" x="210.078202" xlink:href="#m232eebb3bb" y="89.724301"/>
     <use style="fill:#0000ff;stroke:#0000ff;" x="214.090787" xlink:href="#m232eebb3bb" y="90.827656"/>
     <use style="fill:#0000ff;stroke:#0000ff;" x="218.103371" xlink:href="#m232eebb3bb" y="89.864218"/>
     <use style="fill:#0000ff;stroke:#0000ff;" x="222.115955" xlink:href="#m232eebb3bb" y="94.683317"/>
     <use style="fill:#0000ff;stroke:#0000ff;" x="226.128539" xlink:href="#m232eebb3bb" y="93.256021"/>
     <use style="fill:#0000ff;stroke:#0000ff;" x="230.141124" xlink:href="#m232eebb3bb" y="89.616222"/>
     <use style="fill:#0000ff;stroke:#0000ff;" x="234.153708" xlink:href="#m232eebb3bb" y="90.542798"/>
     <use style="fill:#0000ff;stroke:#0000ff;" x="238.166292" xlink:href="#m232eebb3bb" y="90.937944"/>
     <use style="fill:#0000ff;stroke:#0000ff;" x="242.178876" xlink:href="#m232eebb3bb" y="93.203653"/>
     <use style="fill:#0000ff;stroke:#0000ff;" x="246.191461" xlink:href="#m232eebb3bb" y="91.933606"/>
     <use style="fill:#0000ff;stroke:#0000ff;" x="250.204045" xlink:href="#m232eebb3bb" y="92.293312"/>
     <use style="fill:#0000ff;stroke:#0000ff;" x="254.216629" xlink:href="#m232eebb3bb" y="94.969661"/>
     <use style="fill:#0000ff;stroke:#0000ff;" x="258.229213" xlink:href="#m232eebb3bb" y="103.578579"/>
     <use style="fill:#0000ff;stroke:#0000ff;" x="262.241798" xlink:href="#m232eebb3bb" y="94.290862"/>
     <use style="fill:#0000ff;stroke:#0000ff;" x="266.254382" xlink:href="#m232eebb3bb" y="94.324183"/>
     <use style="fill:#0000ff;stroke:#0000ff;" x="270.266966" xlink:href="#m232eebb3bb" y="89.939861"/>
     <use style="fill:#0000ff;stroke:#0000ff;" x="274.279551" xlink:href="#m232eebb3bb" y="98.059268"/>
     <use style="fill:#0000ff;stroke:#0000ff;" x="278.292135" xlink:href="#m232eebb3bb" y="95.038225"/>
     <use style="fill:#0000ff;stroke:#0000ff;" x="282.304719" xlink:href="#m232eebb3bb" y="97.368274"/>
     <use style="fill:#0000ff;stroke:#0000ff;" x="286.317303" xlink:href="#m232eebb3bb" y="93.603621"/>
     <use style="fill:#0000ff;stroke:#0000ff;" x="290.329888" xlink:href="#m232eebb3bb" y="99.307127"/>
     <use style="fill:#0000ff;stroke:#0000ff;" x="294.342472" xlink:href="#m232eebb3bb" y="99.356164"/>
     <use style="fill:#0000ff;stroke:#0000ff;" x="298.355056" xlink:href="#m232eebb3bb" y="95.990035"/>
     <use style="fill:#0000ff;stroke:#0000ff;" x="302.36764" xlink:href="#m232eebb3bb" y="99.658615"/>
     <use style="fill:#0000ff;stroke:#0000ff;" x="306.380225" xlink:href="#m232eebb3bb" y="99.333691"/>
     <use style="fill:#0000ff;stroke:#0000ff;" x="310.392809" xlink:href="#m232eebb3bb" y="100.935126"/>
     <use style="fill:#0000ff;stroke:#0000ff;" x="314.405393" xlink:href="#m232eebb3bb" y="100.201466"/>
     <use style="fill:#0000ff;stroke:#0000ff;" x="318.417978" xlink:href="#m232eebb3bb" y="96.996596"/>
     <use style="fill:#0000ff;stroke:#0000ff;" x="322.430562" xlink:href="#m232eebb3bb" y="102.298173"/>
     <use style="fill:#0000ff;stroke:#0000ff;" x="326.443146" xlink:href="#m232eebb3bb" y="96.382111"/>
     <use style="fill:#0000ff;stroke:#0000ff;" x="330.45573" xlink:href="#m232eebb3bb" y="106.206005"/>
     <use style="fill:#0000ff;stroke:#0000ff;" x="334.468315" xlink:href="#m232eebb3bb" y="100.040257"/>
     <use style="fill:#0000ff;stroke:#0000ff;" x="338.480899" xlink:href="#m232eebb3bb" y="99.037409"/>
     <use style="fill:#0000ff;stroke:#0000ff;" x="342.493483" xlink:href="#m232eebb3bb" y="99.083713"/>
     <use style="fill:#0000ff;stroke:#0000ff;" x="346.506067" xlink:href="#m232eebb3bb" y="103.903388"/>
     <use style="fill:#0000ff;stroke:#0000ff;" x="350.518652" xlink:href="#m232eebb3bb" y="112.291288"/>
     <use style="fill:#0000ff;stroke:#0000ff;" x="354.531236" xlink:href="#m232eebb3bb" y="104.609507"/>
     <use style="fill:#0000ff;stroke:#0000ff;" x="358.54382" xlink:href="#m232eebb3bb" y="98.480776"/>
     <use style="fill:#0000ff;stroke:#0000ff;" x="362.556404" xlink:href="#m232eebb3bb" y="105.325355"/>
     <use style="fill:#0000ff;stroke:#0000ff;" x="366.568989" xlink:href="#m232eebb3bb" y="117.597826"/>
     <use style="fill:#0000ff;stroke:#0000ff;" x="370.581573" xlink:href="#m232eebb3bb" y="106.696034"/>
     <use style="fill:#0000ff;stroke:#0000ff;" x="374.594157" xlink:href="#m232eebb3bb" y="105.319057"/>
     <use style="fill:#0000ff;stroke:#0000ff;" x="378.606742" xlink:href="#m232eebb3bb" y="98.906753"/>
     <use style="fill:#0000ff;stroke:#0000ff;" x="382.619326" xlink:href="#m232eebb3bb" y="110.773043"/>
     <use style="fill:#0000ff;stroke:#0000ff;" x="386.63191" xlink:href="#m232eebb3bb" y="116.409291"/>
     <use style="fill:#0000ff;stroke:#0000ff;" x="390.644494" xlink:href="#m232eebb3bb" y="113.144652"/>
     <use style="fill:#0000ff;stroke:#0000ff;" x="394.657079" xlink:href="#m232eebb3bb" y="115.877467"/>
     <use style="fill:#0000ff;stroke:#0000ff;" x="398.669663" xlink:href="#m232eebb3bb" y="120.523946"/>
     <use style="fill:#0000ff;stroke:#0000ff;" x="402.682247" xlink:href="#m232eebb3bb" y="119.779762"/>
     <use style="fill:#0000ff;stroke:#0000ff;" x="406.694831" xlink:href="#m232eebb3bb" y="105.837339"/>
     <use style="fill:#0000ff;stroke:#0000ff;" x="410.707416" xlink:href="#m232eebb3bb" y="120.422047"/>
    </g>
   </g>
   <g id="line2d_62">
    <path clip-path="url(#p5cc254333e)" d="M 61.612584 282.492973 
L 65.625169 233.522419 
L 69.637753 199.373878 
L 73.650337 169.04525 
L 77.662921 147.048909 
L 81.675506 133.451693 
L 85.68809 115.909066 
L 89.700674 103.852037 
L 93.713258 85.701475 
L 97.725843 84.957769 
L 101.738427 83.084277 
L 105.751011 69.238163 
L 109.763596 62.888067 
L 113.77618 57.605913 
L 117.788764 67.703155 
L 121.801348 62.262794 
L 125.813933 57.442314 
L 129.826517 54.929468 
L 133.839101 53.568 
L 137.851685 64.517487 
L 141.86427 55.537736 
L 145.876854 56.487973 
L 149.889438 58.617466 
L 153.902022 59.746108 
L 157.914607 66.974023 
L 161.927191 66.503244 
L 165.939775 66.899532 
L 169.95236 66.66756 
L 173.964944 68.73432 
L 177.977528 69.701114 
L 181.990112 67.13349 
L 186.002697 69.02192 
L 190.015281 70.403029 
L 194.027865 69.081579 
L 198.040449 67.735215 
L 202.053034 68.423582 
L 206.065618 63.92901 
L 210.078202 66.36341 
L 214.090787 67.28494 
L 218.103371 63.645645 
L 222.115955 68.269228 
L 226.128539 68.80671 
L 230.141124 67.003887 
L 234.153708 72.45095 
L 238.166292 73.141992 
L 242.178876 72.737812 
L 246.191461 74.481638 
L 250.204045 73.981172 
L 254.216629 79.320118 
L 258.229213 78.507365 
L 262.241798 79.204583 
L 266.254382 81.113398 
L 270.266966 87.313515 
L 274.279551 79.139294 
L 278.292135 79.465976 
L 282.304719 81.441149 
L 286.317303 84.607452 
L 290.329888 83.212732 
L 294.342472 79.33471 
L 298.355056 80.950033 
L 302.36764 80.841906 
L 306.380225 82.668647 
L 310.392809 78.685933 
L 314.405393 80.068313 
L 318.417978 81.351694 
L 322.430562 82.175535 
L 326.443146 77.886217 
L 330.45573 80.67251 
L 334.468315 85.001171 
L 338.480899 88.190096 
L 342.493483 79.36155 
L 346.506067 93.061066 
L 350.518652 85.117131 
L 354.531236 85.860313 
L 358.54382 85.76321 
L 362.556404 82.509754 
L 366.568989 83.715059 
L 370.581573 86.519977 
L 374.594157 81.935299 
L 378.606742 82.785544 
L 382.619326 87.195163 
L 386.63191 97.271865 
L 390.644494 84.946181 
L 394.657079 85.978977 
L 398.669663 89.429962 
L 402.682247 88.453278 
L 406.694831 85.944985 
L 410.707416 85.134922 
" style="fill:none;stroke:#ff0000;stroke-dasharray:1.5,2.475;stroke-dashoffset:0;stroke-width:1.5;"/>
    <defs>
     <path d="M 0 1.5 
C 0.397805 1.5 0.77937 1.341951 1.06066 1.06066 
C 1.341951 0.77937 1.5 0.397805 1.5 0 
C 1.5 -0.397805 1.341951 -0.77937 1.06066 -1.06066 
C 0.77937 -1.341951 0.397805 -1.5 0 -1.5 
C -0.397805 -1.5 -0.77937 -1.341951 -1.06066 -1.06066 
C -1.341951 -0.77937 -1.5 -0.397805 -1.5 0 
C -1.5 0.397805 -1.341951 0.77937 -1.06066 1.06066 
C -0.77937 1.341951 -0.397805 1.5 0 1.5 
z
" id="m12abfd59d3" style="stroke:#ff0000;"/>
    </defs>
    <g clip-path="url(#p5cc254333e)">
     <use style="fill:#ff0000;stroke:#ff0000;" x="61.612584" xlink:href="#m12abfd59d3" y="282.492973"/>
     <use style="fill:#ff0000;stroke:#ff0000;" x="65.625169" xlink:href="#m12abfd59d3" y="233.522419"/>
     <use style="fill:#ff0000;stroke:#ff0000;" x="69.637753" xlink:href="#m12abfd59d3" y="199.373878"/>
     <use style="fill:#ff0000;stroke:#ff0000;" x="73.650337" xlink:href="#m12abfd59d3" y="169.04525"/>
     <use style="fill:#ff0000;stroke:#ff0000;" x="77.662921" xlink:href="#m12abfd59d3" y="147.048909"/>
     <use style="fill:#ff0000;stroke:#ff0000;" x="81.675506" xlink:href="#m12abfd59d3" y="133.451693"/>
     <use style="fill:#ff0000;stroke:#ff0000;" x="85.68809" xlink:href="#m12abfd59d3" y="115.909066"/>
     <use style="fill:#ff0000;stroke:#ff0000;" x="89.700674" xlink:href="#m12abfd59d3" y="103.852037"/>
     <use style="fill:#ff0000;stroke:#ff0000;" x="93.713258" xlink:href="#m12abfd59d3" y="85.701475"/>
     <use style="fill:#ff0000;stroke:#ff0000;" x="97.725843" xlink:href="#m12abfd59d3" y="84.957769"/>
     <use style="fill:#ff0000;stroke:#ff0000;" x="101.738427" xlink:href="#m12abfd59d3" y="83.084277"/>
     <use style="fill:#ff0000;stroke:#ff0000;" x="105.751011" xlink:href="#m12abfd59d3" y="69.238163"/>
     <use style="fill:#ff0000;stroke:#ff0000;" x="109.763596" xlink:href="#m12abfd59d3" y="62.888067"/>
     <use style="fill:#ff0000;stroke:#ff0000;" x="113.77618" xlink:href="#m12abfd59d3" y="57.605913"/>
     <use style="fill:#ff0000;stroke:#ff0000;" x="117.788764" xlink:href="#m12abfd59d3" y="67.703155"/>
     <use style="fill:#ff0000;stroke:#ff0000;" x="121.801348" xlink:href="#m12abfd59d3" y="62.262794"/>
     <use style="fill:#ff0000;stroke:#ff0000;" x="125.813933" xlink:href="#m12abfd59d3" y="57.442314"/>
     <use style="fill:#ff0000;stroke:#ff0000;" x="129.826517" xlink:href="#m12abfd59d3" y="54.929468"/>
     <use style="fill:#ff0000;stroke:#ff0000;" x="133.839101" xlink:href="#m12abfd59d3" y="53.568"/>
     <use style="fill:#ff0000;stroke:#ff0000;" x="137.851685" xlink:href="#m12abfd59d3" y="64.517487"/>
     <use style="fill:#ff0000;stroke:#ff0000;" x="141.86427" xlink:href="#m12abfd59d3" y="55.537736"/>
     <use style="fill:#ff0000;stroke:#ff0000;" x="145.876854" xlink:href="#m12abfd59d3" y="56.487973"/>
     <use style="fill:#ff0000;stroke:#ff0000;" x="149.889438" xlink:href="#m12abfd59d3" y="58.617466"/>
     <use style="fill:#ff0000;stroke:#ff0000;" x="153.902022" xlink:href="#m12abfd59d3" y="59.746108"/>
     <use style="fill:#ff0000;stroke:#ff0000;" x="157.914607" xlink:href="#m12abfd59d3" y="66.974023"/>
     <use style="fill:#ff0000;stroke:#ff0000;" x="161.927191" xlink:href="#m12abfd59d3" y="66.503244"/>
     <use style="fill:#ff0000;stroke:#ff0000;" x="165.939775" xlink:href="#m12abfd59d3" y="66.899532"/>
     <use style="fill:#ff0000;stroke:#ff0000;" x="169.95236" xlink:href="#m12abfd59d3" y="66.66756"/>
     <use style="fill:#ff0000;stroke:#ff0000;" x="173.964944" xlink:href="#m12abfd59d3" y="68.73432"/>
     <use style="fill:#ff0000;stroke:#ff0000;" x="177.977528" xlink:href="#m12abfd59d3" y="69.701114"/>
     <use style="fill:#ff0000;stroke:#ff0000;" x="181.990112" xlink:href="#m12abfd59d3" y="67.13349"/>
     <use style="fill:#ff0000;stroke:#ff0000;" x="186.002697" xlink:href="#m12abfd59d3" y="69.02192"/>
     <use style="fill:#ff0000;stroke:#ff0000;" x="190.015281" xlink:href="#m12abfd59d3" y="70.403029"/>
     <use style="fill:#ff0000;stroke:#ff0000;" x="194.027865" xlink:href="#m12abfd59d3" y="69.081579"/>
     <use style="fill:#ff0000;stroke:#ff0000;" x="198.040449" xlink:href="#m12abfd59d3" y="67.735215"/>
     <use style="fill:#ff0000;stroke:#ff0000;" x="202.053034" xlink:href="#m12abfd59d3" y="68.423582"/>
     <use style="fill:#ff0000;stroke:#ff0000;" x="206.065618" xlink:href="#m12abfd59d3" y="63.92901"/>
     <use style="fill:#ff0000;stroke:#ff0000;" x="210.078202" xlink:href="#m12abfd59d3" y="66.36341"/>
     <use style="fill:#ff0000;stroke:#ff0000;" x="214.090787" xlink:href="#m12abfd59d3" y="67.28494"/>
     <use style="fill:#ff0000;stroke:#ff0000;" x="218.103371" xlink:href="#m12abfd59d3" y="63.645645"/>
     <use style="fill:#ff0000;stroke:#ff0000;" x="222.115955" xlink:href="#m12abfd59d3" y="68.269228"/>
     <use style="fill:#ff0000;stroke:#ff0000;" x="226.128539" xlink:href="#m12abfd59d3" y="68.80671"/>
     <use style="fill:#ff0000;stroke:#ff0000;" x="230.141124" xlink:href="#m12abfd59d3" y="67.003887"/>
     <use style="fill:#ff0000;stroke:#ff0000;" x="234.153708" xlink:href="#m12abfd59d3" y="72.45095"/>
     <use style="fill:#ff0000;stroke:#ff0000;" x="238.166292" xlink:href="#m12abfd59d3" y="73.141992"/>
     <use style="fill:#ff0000;stroke:#ff0000;" x="242.178876" xlink:href="#m12abfd59d3" y="72.737812"/>
     <use style="fill:#ff0000;stroke:#ff0000;" x="246.191461" xlink:href="#m12abfd59d3" y="74.481638"/>
     <use style="fill:#ff0000;stroke:#ff0000;" x="250.204045" xlink:href="#m12abfd59d3" y="73.981172"/>
     <use style="fill:#ff0000;stroke:#ff0000;" x="254.216629" xlink:href="#m12abfd59d3" y="79.320118"/>
     <use style="fill:#ff0000;stroke:#ff0000;" x="258.229213" xlink:href="#m12abfd59d3" y="78.507365"/>
     <use style="fill:#ff0000;stroke:#ff0000;" x="262.241798" xlink:href="#m12abfd59d3" y="79.204583"/>
     <use style="fill:#ff0000;stroke:#ff0000;" x="266.254382" xlink:href="#m12abfd59d3" y="81.113398"/>
     <use style="fill:#ff0000;stroke:#ff0000;" x="270.266966" xlink:href="#m12abfd59d3" y="87.313515"/>
     <use style="fill:#ff0000;stroke:#ff0000;" x="274.279551" xlink:href="#m12abfd59d3" y="79.139294"/>
     <use style="fill:#ff0000;stroke:#ff0000;" x="278.292135" xlink:href="#m12abfd59d3" y="79.465976"/>
     <use style="fill:#ff0000;stroke:#ff0000;" x="282.304719" xlink:href="#m12abfd59d3" y="81.441149"/>
     <use style="fill:#ff0000;stroke:#ff0000;" x="286.317303" xlink:href="#m12abfd59d3" y="84.607452"/>
     <use style="fill:#ff0000;stroke:#ff0000;" x="290.329888" xlink:href="#m12abfd59d3" y="83.212732"/>
     <use style="fill:#ff0000;stroke:#ff0000;" x="294.342472" xlink:href="#m12abfd59d3" y="79.33471"/>
     <use style="fill:#ff0000;stroke:#ff0000;" x="298.355056" xlink:href="#m12abfd59d3" y="80.950033"/>
     <use style="fill:#ff0000;stroke:#ff0000;" x="302.36764" xlink:href="#m12abfd59d3" y="80.841906"/>
     <use style="fill:#ff0000;stroke:#ff0000;" x="306.380225" xlink:href="#m12abfd59d3" y="82.668647"/>
     <use style="fill:#ff0000;stroke:#ff0000;" x="310.392809" xlink:href="#m12abfd59d3" y="78.685933"/>
     <use style="fill:#ff0000;stroke:#ff0000;" x="314.405393" xlink:href="#m12abfd59d3" y="80.068313"/>
     <use style="fill:#ff0000;stroke:#ff0000;" x="318.417978" xlink:href="#m12abfd59d3" y="81.351694"/>
     <use style="fill:#ff0000;stroke:#ff0000;" x="322.430562" xlink:href="#m12abfd59d3" y="82.175535"/>
     <use style="fill:#ff0000;stroke:#ff0000;" x="326.443146" xlink:href="#m12abfd59d3" y="77.886217"/>
     <use style="fill:#ff0000;stroke:#ff0000;" x="330.45573" xlink:href="#m12abfd59d3" y="80.67251"/>
     <use style="fill:#ff0000;stroke:#ff0000;" x="334.468315" xlink:href="#m12abfd59d3" y="85.001171"/>
     <use style="fill:#ff0000;stroke:#ff0000;" x="338.480899" xlink:href="#m12abfd59d3" y="88.190096"/>
     <use style="fill:#ff0000;stroke:#ff0000;" x="342.493483" xlink:href="#m12abfd59d3" y="79.36155"/>
     <use style="fill:#ff0000;stroke:#ff0000;" x="346.506067" xlink:href="#m12abfd59d3" y="93.061066"/>
     <use style="fill:#ff0000;stroke:#ff0000;" x="350.518652" xlink:href="#m12abfd59d3" y="85.117131"/>
     <use style="fill:#ff0000;stroke:#ff0000;" x="354.531236" xlink:href="#m12abfd59d3" y="85.860313"/>
     <use style="fill:#ff0000;stroke:#ff0000;" x="358.54382" xlink:href="#m12abfd59d3" y="85.76321"/>
     <use style="fill:#ff0000;stroke:#ff0000;" x="362.556404" xlink:href="#m12abfd59d3" y="82.509754"/>
     <use style="fill:#ff0000;stroke:#ff0000;" x="366.568989" xlink:href="#m12abfd59d3" y="83.715059"/>
     <use style="fill:#ff0000;stroke:#ff0000;" x="370.581573" xlink:href="#m12abfd59d3" y="86.519977"/>
     <use style="fill:#ff0000;stroke:#ff0000;" x="374.594157" xlink:href="#m12abfd59d3" y="81.935299"/>
     <use style="fill:#ff0000;stroke:#ff0000;" x="378.606742" xlink:href="#m12abfd59d3" y="82.785544"/>
     <use style="fill:#ff0000;stroke:#ff0000;" x="382.619326" xlink:href="#m12abfd59d3" y="87.195163"/>
     <use style="fill:#ff0000;stroke:#ff0000;" x="386.63191" xlink:href="#m12abfd59d3" y="97.271865"/>
     <use style="fill:#ff0000;stroke:#ff0000;" x="390.644494" xlink:href="#m12abfd59d3" y="84.946181"/>
     <use style="fill:#ff0000;stroke:#ff0000;" x="394.657079" xlink:href="#m12abfd59d3" y="85.978977"/>
     <use style="fill:#ff0000;stroke:#ff0000;" x="398.669663" xlink:href="#m12abfd59d3" y="89.429962"/>
     <use style="fill:#ff0000;stroke:#ff0000;" x="402.682247" xlink:href="#m12abfd59d3" y="88.453278"/>
     <use style="fill:#ff0000;stroke:#ff0000;" x="406.694831" xlink:href="#m12abfd59d3" y="85.944985"/>
     <use style="fill:#ff0000;stroke:#ff0000;" x="410.707416" xlink:href="#m12abfd59d3" y="85.134922"/>
    </g>
   </g>
   <g id="line2d_63">
    <path clip-path="url(#p5cc254333e)" d="M 61.612584 288.990486 
L 65.625169 244.066673 
L 69.637753 212.218533 
L 73.650337 184.335717 
L 77.662921 163.483477 
L 81.675506 149.412869 
L 85.68809 135.513474 
L 89.700674 123.399095 
L 93.713258 108.169924 
L 97.725843 105.69364 
L 101.738427 103.921595 
L 105.751011 92.64821 
L 109.763596 85.18746 
L 113.77618 80.078468 
L 117.788764 87.406261 
L 121.801348 82.535608 
L 125.813933 77.910266 
L 129.826517 76.359316 
L 133.839101 75.591205 
L 137.851685 83.101085 
L 141.86427 75.210211 
L 145.876854 74.524841 
L 149.889438 74.381636 
L 153.902022 78.36151 
L 157.914607 80.912333 
L 161.927191 82.530205 
L 165.939775 80.770818 
L 169.95236 82.149744 
L 173.964944 80.457571 
L 177.977528 80.748395 
L 181.990112 79.834192 
L 186.002697 79.360683 
L 190.015281 80.888605 
L 194.027865 80.205081 
L 198.040449 79.161604 
L 202.053034 79.398949 
L 206.065618 79.146681 
L 210.078202 78.043856 
L 214.090787 79.056298 
L 218.103371 76.754931 
L 222.115955 81.476272 
L 226.128539 81.031365 
L 230.141124 78.310055 
L 234.153708 81.496874 
L 238.166292 82.039968 
L 242.178876 82.970733 
L 246.191461 83.207622 
L 250.204045 83.137242 
L 254.216629 87.144889 
L 258.229213 91.042972 
L 262.241798 86.747722 
L 266.254382 87.718791 
L 270.266966 88.626688 
L 274.279551 88.599281 
L 278.292135 87.2521 
L 282.304719 89.404711 
L 286.317303 89.105537 
L 290.329888 91.25993 
L 294.342472 89.345437 
L 298.355056 88.470034 
L 302.36764 90.250261 
L 306.380225 91.001169 
L 310.392809 89.81053 
L 314.405393 90.13489 
L 318.417978 89.174145 
L 322.430562 92.236854 
L 326.443146 87.134164 
L 330.45573 93.439258 
L 334.468315 92.520714 
L 338.480899 93.613752 
L 342.493483 89.222631 
L 346.506067 98.482227 
L 350.518652 98.704209 
L 354.531236 95.23491 
L 358.54382 92.121993 
L 362.556404 93.917555 
L 366.568989 100.656443 
L 370.581573 96.608006 
L 374.594157 93.627178 
L 378.606742 90.846148 
L 382.619326 98.984103 
L 386.63191 106.840578 
L 390.644494 99.045416 
L 394.657079 100.928222 
L 398.669663 104.976954 
L 402.682247 104.11652 
L 406.694831 95.891162 
L 410.707416 102.778485 
" style="fill:none;stroke:#008000;stroke-dasharray:1.5,2.475;stroke-dashoffset:0;stroke-width:1.5;"/>
    <defs>
     <path d="M 0 1.5 
C 0.397805 1.5 0.77937 1.341951 1.06066 1.06066 
C 1.341951 0.77937 1.5 0.397805 1.5 0 
C 1.5 -0.397805 1.341951 -0.77937 1.06066 -1.06066 
C 0.77937 -1.341951 0.397805 -1.5 0 -1.5 
C -0.397805 -1.5 -0.77937 -1.341951 -1.06066 -1.06066 
C -1.341951 -0.77937 -1.5 -0.397805 -1.5 0 
C -1.5 0.397805 -1.341951 0.77937 -1.06066 1.06066 
C -0.77937 1.341951 -0.397805 1.5 0 1.5 
z
" id="m9d6482c127" style="stroke:#008000;"/>
    </defs>
    <g clip-path="url(#p5cc254333e)">
     <use style="fill:#008000;stroke:#008000;" x="61.612584" xlink:href="#m9d6482c127" y="288.990486"/>
     <use style="fill:#008000;stroke:#008000;" x="65.625169" xlink:href="#m9d6482c127" y="244.066673"/>
     <use style="fill:#008000;stroke:#008000;" x="69.637753" xlink:href="#m9d6482c127" y="212.218533"/>
     <use style="fill:#008000;stroke:#008000;" x="73.650337" xlink:href="#m9d6482c127" y="184.335717"/>
     <use style="fill:#008000;stroke:#008000;" x="77.662921" xlink:href="#m9d6482c127" y="163.483477"/>
     <use style="fill:#008000;stroke:#008000;" x="81.675506" xlink:href="#m9d6482c127" y="149.412869"/>
     <use style="fill:#008000;stroke:#008000;" x="85.68809" xlink:href="#m9d6482c127" y="135.513474"/>
     <use style="fill:#008000;stroke:#008000;" x="89.700674" xlink:href="#m9d6482c127" y="123.399095"/>
     <use style="fill:#008000;stroke:#008000;" x="93.713258" xlink:href="#m9d6482c127" y="108.169924"/>
     <use style="fill:#008000;stroke:#008000;" x="97.725843" xlink:href="#m9d6482c127" y="105.69364"/>
     <use style="fill:#008000;stroke:#008000;" x="101.738427" xlink:href="#m9d6482c127" y="103.921595"/>
     <use style="fill:#008000;stroke:#008000;" x="105.751011" xlink:href="#m9d6482c127" y="92.64821"/>
     <use style="fill:#008000;stroke:#008000;" x="109.763596" xlink:href="#m9d6482c127" y="85.18746"/>
     <use style="fill:#008000;stroke:#008000;" x="113.77618" xlink:href="#m9d6482c127" y="80.078468"/>
     <use style="fill:#008000;stroke:#008000;" x="117.788764" xlink:href="#m9d6482c127" y="87.406261"/>
     <use style="fill:#008000;stroke:#008000;" x="121.801348" xlink:href="#m9d6482c127" y="82.535608"/>
     <use style="fill:#008000;stroke:#008000;" x="125.813933" xlink:href="#m9d6482c127" y="77.910266"/>
     <use style="fill:#008000;stroke:#008000;" x="129.826517" xlink:href="#m9d6482c127" y="76.359316"/>
     <use style="fill:#008000;stroke:#008000;" x="133.839101" xlink:href="#m9d6482c127" y="75.591205"/>
     <use style="fill:#008000;stroke:#008000;" x="137.851685" xlink:href="#m9d6482c127" y="83.101085"/>
     <use style="fill:#008000;stroke:#008000;" x="141.86427" xlink:href="#m9d6482c127" y="75.210211"/>
     <use style="fill:#008000;stroke:#008000;" x="145.876854" xlink:href="#m9d6482c127" y="74.524841"/>
     <use style="fill:#008000;stroke:#008000;" x="149.889438" xlink:href="#m9d6482c127" y="74.381636"/>
     <use style="fill:#008000;stroke:#008000;" x="153.902022" xlink:href="#m9d6482c127" y="78.36151"/>
     <use style="fill:#008000;stroke:#008000;" x="157.914607" xlink:href="#m9d6482c127" y="80.912333"/>
     <use style="fill:#008000;stroke:#008000;" x="161.927191" xlink:href="#m9d6482c127" y="82.530205"/>
     <use style="fill:#008000;stroke:#008000;" x="165.939775" xlink:href="#m9d6482c127" y="80.770818"/>
     <use style="fill:#008000;stroke:#008000;" x="169.95236" xlink:href="#m9d6482c127" y="82.149744"/>
     <use style="fill:#008000;stroke:#008000;" x="173.964944" xlink:href="#m9d6482c127" y="80.457571"/>
     <use style="fill:#008000;stroke:#008000;" x="177.977528" xlink:href="#m9d6482c127" y="80.748395"/>
     <use style="fill:#008000;stroke:#008000;" x="181.990112" xlink:href="#m9d6482c127" y="79.834192"/>
     <use style="fill:#008000;stroke:#008000;" x="186.002697" xlink:href="#m9d6482c127" y="79.360683"/>
     <use style="fill:#008000;stroke:#008000;" x="190.015281" xlink:href="#m9d6482c127" y="80.888605"/>
     <use style="fill:#008000;stroke:#008000;" x="194.027865" xlink:href="#m9d6482c127" y="80.205081"/>
     <use style="fill:#008000;stroke:#008000;" x="198.040449" xlink:href="#m9d6482c127" y="79.161604"/>
     <use style="fill:#008000;stroke:#008000;" x="202.053034" xlink:href="#m9d6482c127" y="79.398949"/>
     <use style="fill:#008000;stroke:#008000;" x="206.065618" xlink:href="#m9d6482c127" y="79.146681"/>
     <use style="fill:#008000;stroke:#008000;" x="210.078202" xlink:href="#m9d6482c127" y="78.043856"/>
     <use style="fill:#008000;stroke:#008000;" x="214.090787" xlink:href="#m9d6482c127" y="79.056298"/>
     <use style="fill:#008000;stroke:#008000;" x="218.103371" xlink:href="#m9d6482c127" y="76.754931"/>
     <use style="fill:#008000;stroke:#008000;" x="222.115955" xlink:href="#m9d6482c127" y="81.476272"/>
     <use style="fill:#008000;stroke:#008000;" x="226.128539" xlink:href="#m9d6482c127" y="81.031365"/>
     <use style="fill:#008000;stroke:#008000;" x="230.141124" xlink:href="#m9d6482c127" y="78.310055"/>
     <use style="fill:#008000;stroke:#008000;" x="234.153708" xlink:href="#m9d6482c127" y="81.496874"/>
     <use style="fill:#008000;stroke:#008000;" x="238.166292" xlink:href="#m9d6482c127" y="82.039968"/>
     <use style="fill:#008000;stroke:#008000;" x="242.178876" xlink:href="#m9d6482c127" y="82.970733"/>
     <use style="fill:#008000;stroke:#008000;" x="246.191461" xlink:href="#m9d6482c127" y="83.207622"/>
     <use style="fill:#008000;stroke:#008000;" x="250.204045" xlink:href="#m9d6482c127" y="83.137242"/>
     <use style="fill:#008000;stroke:#008000;" x="254.216629" xlink:href="#m9d6482c127" y="87.144889"/>
     <use style="fill:#008000;stroke:#008000;" x="258.229213" xlink:href="#m9d6482c127" y="91.042972"/>
     <use style="fill:#008000;stroke:#008000;" x="262.241798" xlink:href="#m9d6482c127" y="86.747722"/>
     <use style="fill:#008000;stroke:#008000;" x="266.254382" xlink:href="#m9d6482c127" y="87.718791"/>
     <use style="fill:#008000;stroke:#008000;" x="270.266966" xlink:href="#m9d6482c127" y="88.626688"/>
     <use style="fill:#008000;stroke:#008000;" x="274.279551" xlink:href="#m9d6482c127" y="88.599281"/>
     <use style="fill:#008000;stroke:#008000;" x="278.292135" xlink:href="#m9d6482c127" y="87.2521"/>
     <use style="fill:#008000;stroke:#008000;" x="282.304719" xlink:href="#m9d6482c127" y="89.404711"/>
     <use style="fill:#008000;stroke:#008000;" x="286.317303" xlink:href="#m9d6482c127" y="89.105537"/>
     <use style="fill:#008000;stroke:#008000;" x="290.329888" xlink:href="#m9d6482c127" y="91.25993"/>
     <use style="fill:#008000;stroke:#008000;" x="294.342472" xlink:href="#m9d6482c127" y="89.345437"/>
     <use style="fill:#008000;stroke:#008000;" x="298.355056" xlink:href="#m9d6482c127" y="88.470034"/>
     <use style="fill:#008000;stroke:#008000;" x="302.36764" xlink:href="#m9d6482c127" y="90.250261"/>
     <use style="fill:#008000;stroke:#008000;" x="306.380225" xlink:href="#m9d6482c127" y="91.001169"/>
     <use style="fill:#008000;stroke:#008000;" x="310.392809" xlink:href="#m9d6482c127" y="89.81053"/>
     <use style="fill:#008000;stroke:#008000;" x="314.405393" xlink:href="#m9d6482c127" y="90.13489"/>
     <use style="fill:#008000;stroke:#008000;" x="318.417978" xlink:href="#m9d6482c127" y="89.174145"/>
     <use style="fill:#008000;stroke:#008000;" x="322.430562" xlink:href="#m9d6482c127" y="92.236854"/>
     <use style="fill:#008000;stroke:#008000;" x="326.443146" xlink:href="#m9d6482c127" y="87.134164"/>
     <use style="fill:#008000;stroke:#008000;" x="330.45573" xlink:href="#m9d6482c127" y="93.439258"/>
     <use style="fill:#008000;stroke:#008000;" x="334.468315" xlink:href="#m9d6482c127" y="92.520714"/>
     <use style="fill:#008000;stroke:#008000;" x="338.480899" xlink:href="#m9d6482c127" y="93.613752"/>
     <use style="fill:#008000;stroke:#008000;" x="342.493483" xlink:href="#m9d6482c127" y="89.222631"/>
     <use style="fill:#008000;stroke:#008000;" x="346.506067" xlink:href="#m9d6482c127" y="98.482227"/>
     <use style="fill:#008000;stroke:#008000;" x="350.518652" xlink:href="#m9d6482c127" y="98.704209"/>
     <use style="fill:#008000;stroke:#008000;" x="354.531236" xlink:href="#m9d6482c127" y="95.23491"/>
     <use style="fill:#008000;stroke:#008000;" x="358.54382" xlink:href="#m9d6482c127" y="92.121993"/>
     <use style="fill:#008000;stroke:#008000;" x="362.556404" xlink:href="#m9d6482c127" y="93.917555"/>
     <use style="fill:#008000;stroke:#008000;" x="366.568989" xlink:href="#m9d6482c127" y="100.656443"/>
     <use style="fill:#008000;stroke:#008000;" x="370.581573" xlink:href="#m9d6482c127" y="96.608006"/>
     <use style="fill:#008000;stroke:#008000;" x="374.594157" xlink:href="#m9d6482c127" y="93.627178"/>
     <use style="fill:#008000;stroke:#008000;" x="378.606742" xlink:href="#m9d6482c127" y="90.846148"/>
     <use style="fill:#008000;stroke:#008000;" x="382.619326" xlink:href="#m9d6482c127" y="98.984103"/>
     <use style="fill:#008000;stroke:#008000;" x="386.63191" xlink:href="#m9d6482c127" y="106.840578"/>
     <use style="fill:#008000;stroke:#008000;" x="390.644494" xlink:href="#m9d6482c127" y="99.045416"/>
     <use style="fill:#008000;stroke:#008000;" x="394.657079" xlink:href="#m9d6482c127" y="100.928222"/>
     <use style="fill:#008000;stroke:#008000;" x="398.669663" xlink:href="#m9d6482c127" y="104.976954"/>
     <use style="fill:#008000;stroke:#008000;" x="402.682247" xlink:href="#m9d6482c127" y="104.11652"/>
     <use style="fill:#008000;stroke:#008000;" x="406.694831" xlink:href="#m9d6482c127" y="95.891162"/>
     <use style="fill:#008000;stroke:#008000;" x="410.707416" xlink:href="#m9d6482c127" y="102.778485"/>
    </g>
   </g>
   <g id="patch_3">
    <path d="M 57.6 307.584 
L 57.6 41.472 
" style="fill:none;stroke:#000000;stroke-linecap:square;stroke-linejoin:miter;stroke-width:0.8;"/>
   </g>
   <g id="patch_4">
    <path d="M 414.72 307.584 
L 414.72 41.472 
" style="fill:none;stroke:#000000;stroke-linecap:square;stroke-linejoin:miter;stroke-width:0.8;"/>
   </g>
   <g id="patch_5">
    <path d="M 57.6 307.584 
L 414.72 307.584 
" style="fill:none;stroke:#000000;stroke-linecap:square;stroke-linejoin:miter;stroke-width:0.8;"/>
   </g>
   <g id="patch_6">
    <path d="M 57.6 41.472 
L 414.72 41.472 
" style="fill:none;stroke:#000000;stroke-linecap:square;stroke-linejoin:miter;stroke-width:0.8;"/>
   </g>
   <g id="text_33">
    <!-- tbb::parallel_sort O3 OMP AVX2 on ASIC_680k -->
    <defs>
     <path d="M 48.6875 27.296875 
Q 48.6875 37.203125 44.609375 42.84375 
Q 40.53125 48.484375 33.40625 48.484375 
Q 26.265625 48.484375 22.1875 42.84375 
Q 18.109375 37.203125 18.109375 27.296875 
Q 18.109375 17.390625 22.1875 11.75 
Q 26.265625 6.109375 33.40625 6.109375 
Q 40.53125 6.109375 44.609375 11.75 
Q 48.6875 17.390625 48.6875 27.296875 
z
M 18.109375 46.390625 
Q 20.953125 51.265625 25.265625 53.625 
Q 29.59375 56 35.59375 56 
Q 45.5625 56 51.78125 48.09375 
Q 58.015625 40.1875 58.015625 27.296875 
Q 58.015625 14.40625 51.78125 6.484375 
Q 45.5625 -1.421875 35.59375 -1.421875 
Q 29.59375 -1.421875 25.265625 0.953125 
Q 20.953125 3.328125 18.109375 8.203125 
L 18.109375 0 
L 9.078125 0 
L 9.078125 75.984375 
L 18.109375 75.984375 
z
" id="DejaVuSans-98"/>
     <path d="M 11.71875 12.40625 
L 22.015625 12.40625 
L 22.015625 0 
L 11.71875 0 
z
M 11.71875 51.703125 
L 22.015625 51.703125 
L 22.015625 39.3125 
L 11.71875 39.3125 
z
" id="DejaVuSans-58"/>
     <path d="M 9.421875 75.984375 
L 18.40625 75.984375 
L 18.40625 0 
L 9.421875 0 
z
" id="DejaVuSans-108"/>
     <path d="M 50.984375 -16.609375 
L 50.984375 -23.578125 
L -0.984375 -23.578125 
L -0.984375 -16.609375 
z
" id="DejaVuSans-95"/>
     <path d="M 30.609375 48.390625 
Q 23.390625 48.390625 19.1875 42.75 
Q 14.984375 37.109375 14.984375 27.296875 
Q 14.984375 17.484375 19.15625 11.84375 
Q 23.34375 6.203125 30.609375 6.203125 
Q 37.796875 6.203125 41.984375 11.859375 
Q 46.1875 17.53125 46.1875 27.296875 
Q 46.1875 37.015625 41.984375 42.703125 
Q 37.796875 48.390625 30.609375 48.390625 
z
M 30.609375 56 
Q 42.328125 56 49.015625 48.375 
Q 55.71875 40.765625 55.71875 27.296875 
Q 55.71875 13.875 49.015625 6.21875 
Q 42.328125 -1.421875 30.609375 -1.421875 
Q 18.84375 -1.421875 12.171875 6.21875 
Q 5.515625 13.875 5.515625 27.296875 
Q 5.515625 40.765625 12.171875 48.375 
Q 18.84375 56 30.609375 56 
z
" id="DejaVuSans-111"/>
     <path d="M 39.40625 66.21875 
Q 28.65625 66.21875 22.328125 58.203125 
Q 16.015625 50.203125 16.015625 36.375 
Q 16.015625 22.609375 22.328125 14.59375 
Q 28.65625 6.59375 39.40625 6.59375 
Q 50.140625 6.59375 56.421875 14.59375 
Q 62.703125 22.609375 62.703125 36.375 
Q 62.703125 50.203125 56.421875 58.203125 
Q 50.140625 66.21875 39.40625 66.21875 
z
M 39.40625 74.21875 
Q 54.734375 74.21875 63.90625 63.9375 
Q 73.09375 53.65625 73.09375 36.375 
Q 73.09375 19.140625 63.90625 8.859375 
Q 54.734375 -1.421875 39.40625 -1.421875 
Q 24.03125 -1.421875 14.8125 8.828125 
Q 5.609375 19.09375 5.609375 36.375 
Q 5.609375 53.65625 14.8125 63.9375 
Q 24.03125 74.21875 39.40625 74.21875 
z
" id="DejaVuSans-79"/>
     <path d="M 9.8125 72.90625 
L 24.515625 72.90625 
L 43.109375 23.296875 
L 61.8125 72.90625 
L 76.515625 72.90625 
L 76.515625 0 
L 66.890625 0 
L 66.890625 64.015625 
L 48.09375 14.015625 
L 38.1875 14.015625 
L 19.390625 64.015625 
L 19.390625 0 
L 9.8125 0 
z
" id="DejaVuSans-77"/>
     <path d="M 19.671875 64.796875 
L 19.671875 37.40625 
L 32.078125 37.40625 
Q 38.96875 37.40625 42.71875 40.96875 
Q 46.484375 44.53125 46.484375 51.125 
Q 46.484375 57.671875 42.71875 61.234375 
Q 38.96875 64.796875 32.078125 64.796875 
z
M 9.8125 72.90625 
L 32.078125 72.90625 
Q 44.34375 72.90625 50.609375 67.359375 
Q 56.890625 61.8125 56.890625 51.125 
Q 56.890625 40.328125 50.609375 34.8125 
Q 44.34375 29.296875 32.078125 29.296875 
L 19.671875 29.296875 
L 19.671875 0 
L 9.8125 0 
z
" id="DejaVuSans-80"/>
     <path d="M 34.1875 63.1875 
L 20.796875 26.90625 
L 47.609375 26.90625 
z
M 28.609375 72.90625 
L 39.796875 72.90625 
L 67.578125 0 
L 57.328125 0 
L 50.6875 18.703125 
L 17.828125 18.703125 
L 11.1875 0 
L 0.78125 0 
z
" id="DejaVuSans-65"/>
     <path d="M 28.609375 0 
L 0.78125 72.90625 
L 11.078125 72.90625 
L 34.1875 11.53125 
L 57.328125 72.90625 
L 67.578125 72.90625 
L 39.796875 0 
z
" id="DejaVuSans-86"/>
     <path d="M 6.296875 72.90625 
L 16.890625 72.90625 
L 35.015625 45.796875 
L 53.21875 72.90625 
L 63.8125 72.90625 
L 40.375 37.890625 
L 65.375 0 
L 54.78125 0 
L 34.28125 31 
L 13.625 0 
L 2.984375 0 
L 29 38.921875 
z
" id="DejaVuSans-88"/>
     <path d="M 54.890625 33.015625 
L 54.890625 0 
L 45.90625 0 
L 45.90625 32.71875 
Q 45.90625 40.484375 42.875 44.328125 
Q 39.84375 48.1875 33.796875 48.1875 
Q 26.515625 48.1875 22.3125 43.546875 
Q 18.109375 38.921875 18.109375 30.90625 
L 18.109375 0 
L 9.078125 0 
L 9.078125 54.6875 
L 18.109375 54.6875 
L 18.109375 46.1875 
Q 21.34375 51.125 25.703125 53.5625 
Q 30.078125 56 35.796875 56 
Q 45.21875 56 50.046875 50.171875 
Q 54.890625 44.34375 54.890625 33.015625 
z
" id="DejaVuSans-110"/>
     <path d="M 53.515625 70.515625 
L 53.515625 60.890625 
Q 47.90625 63.578125 42.921875 64.890625 
Q 37.9375 66.21875 33.296875 66.21875 
Q 25.25 66.21875 20.875 63.09375 
Q 16.5 59.96875 16.5 54.203125 
Q 16.5 49.359375 19.40625 46.890625 
Q 22.3125 44.4375 30.421875 42.921875 
L 36.375 41.703125 
Q 47.40625 39.59375 52.65625 34.296875 
Q 57.90625 29 57.90625 20.125 
Q 57.90625 9.515625 50.796875 4.046875 
Q 43.703125 -1.421875 29.984375 -1.421875 
Q 24.8125 -1.421875 18.96875 -0.25 
Q 13.140625 0.921875 6.890625 3.21875 
L 6.890625 13.375 
Q 12.890625 10.015625 18.65625 8.296875 
Q 24.421875 6.59375 29.984375 6.59375 
Q 38.421875 6.59375 43.015625 9.90625 
Q 47.609375 13.234375 47.609375 19.390625 
Q 47.609375 24.75 44.3125 27.78125 
Q 41.015625 30.8125 33.5 32.328125 
L 27.484375 33.5 
Q 16.453125 35.6875 11.515625 40.375 
Q 6.59375 45.0625 6.59375 53.421875 
Q 6.59375 63.09375 13.40625 68.65625 
Q 20.21875 74.21875 32.171875 74.21875 
Q 37.3125 74.21875 42.625 73.28125 
Q 47.953125 72.359375 53.515625 70.515625 
z
" id="DejaVuSans-83"/>
     <path d="M 9.8125 72.90625 
L 19.671875 72.90625 
L 19.671875 0 
L 9.8125 0 
z
" id="DejaVuSans-73"/>
     <path d="M 64.40625 67.28125 
L 64.40625 56.890625 
Q 59.421875 61.53125 53.78125 63.8125 
Q 48.140625 66.109375 41.796875 66.109375 
Q 29.296875 66.109375 22.65625 58.46875 
Q 16.015625 50.828125 16.015625 36.375 
Q 16.015625 21.96875 22.65625 14.328125 
Q 29.296875 6.6875 41.796875 6.6875 
Q 48.140625 6.6875 53.78125 8.984375 
Q 59.421875 11.28125 64.40625 15.921875 
L 64.40625 5.609375 
Q 59.234375 2.09375 53.4375 0.328125 
Q 47.65625 -1.421875 41.21875 -1.421875 
Q 24.65625 -1.421875 15.125 8.703125 
Q 5.609375 18.84375 5.609375 36.375 
Q 5.609375 53.953125 15.125 64.078125 
Q 24.65625 74.21875 41.21875 74.21875 
Q 47.75 74.21875 53.53125 72.484375 
Q 59.328125 70.75 64.40625 67.28125 
z
" id="DejaVuSans-67"/>
     <path d="M 9.078125 75.984375 
L 18.109375 75.984375 
L 18.109375 31.109375 
L 44.921875 54.6875 
L 56.390625 54.6875 
L 27.390625 29.109375 
L 57.625 0 
L 45.90625 0 
L 18.109375 26.703125 
L 18.109375 0 
L 9.078125 0 
z
" id="DejaVuSans-107"/>
    </defs>
    <g transform="translate(98.589375 35.472)scale(0.12 -0.12)">
     <use xlink:href="#DejaVuSans-116"/>
     <use x="39.208984" xlink:href="#DejaVuSans-98"/>
     <use x="102.685547" xlink:href="#DejaVuSans-98"/>
     <use x="166.162109" xlink:href="#DejaVuSans-58"/>
     <use x="199.853516" xlink:href="#DejaVuSans-58"/>
     <use x="233.544922" xlink:href="#DejaVuSans-112"/>
     <use x="297.021484" xlink:href="#DejaVuSans-97"/>
     <use x="358.300781" xlink:href="#DejaVuSans-114"/>
     <use x="399.414062" xlink:href="#DejaVuSans-97"/>
     <use x="460.693359" xlink:href="#DejaVuSans-108"/>
     <use x="488.476562" xlink:href="#DejaVuSans-108"/>
     <use x="516.259766" xlink:href="#DejaVuSans-101"/>
     <use x="577.783203" xlink:href="#DejaVuSans-108"/>
     <use x="605.566406" xlink:href="#DejaVuSans-95"/>
     <use x="655.566406" xlink:href="#DejaVuSans-115"/>
     <use x="707.666016" xlink:href="#DejaVuSans-111"/>
     <use x="768.847656" xlink:href="#DejaVuSans-114"/>
     <use x="809.960938" xlink:href="#DejaVuSans-116"/>
     <use x="849.169922" xlink:href="#DejaVuSans-32"/>
     <use x="880.957031" xlink:href="#DejaVuSans-79"/>
     <use x="959.667969" xlink:href="#DejaVuSans-51"/>
     <use x="1023.291016" xlink:href="#DejaVuSans-32"/>
     <use x="1055.078125" xlink:href="#DejaVuSans-79"/>
     <use x="1133.789062" xlink:href="#DejaVuSans-77"/>
     <use x="1220.068359" xlink:href="#DejaVuSans-80"/>
     <use x="1280.371094" xlink:href="#DejaVuSans-32"/>
     <use x="1312.158203" xlink:href="#DejaVuSans-65"/>
     <use x="1374.191406" xlink:href="#DejaVuSans-86"/>
     <use x="1442.599609" xlink:href="#DejaVuSans-88"/>
     <use x="1511.105469" xlink:href="#DejaVuSans-50"/>
     <use x="1574.728516" xlink:href="#DejaVuSans-32"/>
     <use x="1606.515625" xlink:href="#DejaVuSans-111"/>
     <use x="1667.697266" xlink:href="#DejaVuSans-110"/>
     <use x="1731.076172" xlink:href="#DejaVuSans-32"/>
     <use x="1762.863281" xlink:href="#DejaVuSans-65"/>
     <use x="1831.271484" xlink:href="#DejaVuSans-83"/>
     <use x="1894.748047" xlink:href="#DejaVuSans-73"/>
     <use x="1924.240234" xlink:href="#DejaVuSans-67"/>
     <use x="1994.064453" xlink:href="#DejaVuSans-95"/>
     <use x="2044.064453" xlink:href="#DejaVuSans-54"/>
     <use x="2107.6875" xlink:href="#DejaVuSans-56"/>
     <use x="2171.310547" xlink:href="#DejaVuSans-48"/>
     <use x="2234.933594" xlink:href="#DejaVuSans-107"/>
    </g>
   </g>
   <g id="legend_1">
    <g id="patch_7">
     <path d="M 313.152813 302.584 
L 407.72 302.584 
Q 409.72 302.584 409.72 300.584 
L 409.72 257.2715 
Q 409.72 255.2715 407.72 255.2715 
L 313.152813 255.2715 
Q 311.152813 255.2715 311.152813 257.2715 
L 311.152813 300.584 
Q 311.152813 302.584 313.152813 302.584 
z
" style="fill:#ffffff;opacity:0.8;stroke:#cccccc;stroke-linejoin:miter;"/>
    </g>
    <g id="line2d_64">
     <path d="M 315.152813 263.369937 
L 335.152813 263.369937 
" style="fill:none;stroke:#0000ff;stroke-dasharray:1.5,2.475;stroke-dashoffset:0;stroke-width:1.5;"/>
    </g>
    <g id="line2d_65">
     <g>
      <use style="fill:#0000ff;stroke:#0000ff;" x="325.152813" xlink:href="#m232eebb3bb" y="263.369937"/>
     </g>
    </g>
    <g id="text_34">
     <!-- transpose -->
     <g transform="translate(343.152813 266.869937)scale(0.1 -0.1)">
      <use xlink:href="#DejaVuSans-116"/>
      <use x="39.208984" xlink:href="#DejaVuSans-114"/>
      <use x="80.322266" xlink:href="#DejaVuSans-97"/>
      <use x="141.601562" xlink:href="#DejaVuSans-110"/>
      <use x="204.980469" xlink:href="#DejaVuSans-115"/>
      <use x="257.080078" xlink:href="#DejaVuSans-112"/>
      <use x="320.556641" xlink:href="#DejaVuSans-111"/>
      <use x="381.738281" xlink:href="#DejaVuSans-115"/>
      <use x="433.837891" xlink:href="#DejaVuSans-101"/>
     </g>
    </g>
    <g id="line2d_66">
     <path d="M 315.152813 278.048063 
L 335.152813 278.048063 
" style="fill:none;stroke:#ff0000;stroke-dasharray:1.5,2.475;stroke-dashoffset:0;stroke-width:1.5;"/>
    </g>
    <g id="line2d_67">
     <g>
      <use style="fill:#ff0000;stroke:#ff0000;" x="325.152813" xlink:href="#m12abfd59d3" y="278.048063"/>
     </g>
    </g>
    <g id="text_35">
     <!-- transpose_tr -->
     <g transform="translate(343.152813 281.548063)scale(0.1 -0.1)">
      <use xlink:href="#DejaVuSans-116"/>
      <use x="39.208984" xlink:href="#DejaVuSans-114"/>
      <use x="80.322266" xlink:href="#DejaVuSans-97"/>
      <use x="141.601562" xlink:href="#DejaVuSans-110"/>
      <use x="204.980469" xlink:href="#DejaVuSans-115"/>
      <use x="257.080078" xlink:href="#DejaVuSans-112"/>
      <use x="320.556641" xlink:href="#DejaVuSans-111"/>
      <use x="381.738281" xlink:href="#DejaVuSans-115"/>
      <use x="433.837891" xlink:href="#DejaVuSans-101"/>
      <use x="495.361328" xlink:href="#DejaVuSans-95"/>
      <use x="545.361328" xlink:href="#DejaVuSans-116"/>
      <use x="584.570312" xlink:href="#DejaVuSans-114"/>
     </g>
    </g>
    <g id="line2d_68">
     <path d="M 315.152813 293.004312 
L 335.152813 293.004312 
" style="fill:none;stroke:#008000;stroke-dasharray:1.5,2.475;stroke-dashoffset:0;stroke-width:1.5;"/>
    </g>
    <g id="line2d_69">
     <g>
      <use style="fill:#008000;stroke:#008000;" x="325.152813" xlink:href="#m9d6482c127" y="293.004312"/>
     </g>
    </g>
    <g id="text_36">
     <!-- mean -->
     <defs>
      <path d="M 52 44.1875 
Q 55.375 50.25 60.0625 53.125 
Q 64.75 56 71.09375 56 
Q 79.640625 56 84.28125 50.015625 
Q 88.921875 44.046875 88.921875 33.015625 
L 88.921875 0 
L 79.890625 0 
L 79.890625 32.71875 
Q 79.890625 40.578125 77.09375 44.375 
Q 74.3125 48.1875 68.609375 48.1875 
Q 61.625 48.1875 57.5625 43.546875 
Q 53.515625 38.921875 53.515625 30.90625 
L 53.515625 0 
L 44.484375 0 
L 44.484375 32.71875 
Q 44.484375 40.625 41.703125 44.40625 
Q 38.921875 48.1875 33.109375 48.1875 
Q 26.21875 48.1875 22.15625 43.53125 
Q 18.109375 38.875 18.109375 30.90625 
L 18.109375 0 
L 9.078125 0 
L 9.078125 54.6875 
L 18.109375 54.6875 
L 18.109375 46.1875 
Q 21.1875 51.21875 25.484375 53.609375 
Q 29.78125 56 35.6875 56 
Q 41.65625 56 45.828125 52.96875 
Q 50 49.953125 52 44.1875 
z
" id="DejaVuSans-109"/>
     </defs>
     <g transform="translate(343.152813 296.504312)scale(0.1 -0.1)">
      <use xlink:href="#DejaVuSans-109"/>
      <use x="97.412109" xlink:href="#DejaVuSans-101"/>
      <use x="158.935547" xlink:href="#DejaVuSans-97"/>
      <use x="220.214844" xlink:href="#DejaVuSans-110"/>
     </g>
    </g>
   </g>
  </g>
 </g>
 <defs>
  <clipPath id="p5cc254333e">
   <rect height="266.112" width="357.12" x="57.6" y="41.472"/>
  </clipPath>
 </defs>
</svg>
