<?xml version="1.0" encoding="utf-8" standalone="no"?>
<!DOCTYPE svg PUBLIC "-//W3C//DTD SVG 1.1//EN"
  "http://www.w3.org/Graphics/SVG/1.1/DTD/svg11.dtd">
<!-- Created with matplotlib (https://matplotlib.org/) -->
<svg height="345.6pt" version="1.1" viewBox="0 0 460.8 345.6" width="460.8pt" xmlns="http://www.w3.org/2000/svg" xmlns:xlink="http://www.w3.org/1999/xlink">
 <defs>
  <style type="text/css">
*{stroke-linecap:butt;stroke-linejoin:round;}
  </style>
 </defs>
 <g id="figure_1">
  <g id="patch_1">
   <path d="M 0 345.6 
L 460.8 345.6 
L 460.8 0 
L 0 0 
z
" style="fill:#ffffff;"/>
  </g>
  <g id="axes_1">
   <g id="patch_2">
    <path d="M 57.6 307.584 
L 414.72 307.584 
L 414.72 41.472 
L 57.6 41.472 
z
" style="fill:#ffffff;"/>
   </g>
   <g id="matplotlib.axis_1">
    <g id="xtick_1">
     <g id="line2d_1">
      <path clip-path="url(#pe9ecf29774)" d="M 61.612584 307.584 
L 61.612584 41.472 
" style="fill:none;stroke:#b0b0b0;stroke-dasharray:5.12,1.28,0.8,1.28;stroke-dashoffset:0;stroke-width:0.8;"/>
     </g>
     <g id="line2d_2">
      <defs>
       <path d="M 0 0 
L 0 3.5 
" id="m099b1da4d3" style="stroke:#000000;stroke-width:0.8;"/>
      </defs>
      <g>
       <use style="stroke:#000000;stroke-width:0.8;" x="61.612584" xlink:href="#m099b1da4d3" y="307.584"/>
      </g>
     </g>
     <g id="text_1">
      <!-- 1 -->
      <defs>
       <path d="M 12.40625 8.296875 
L 28.515625 8.296875 
L 28.515625 63.921875 
L 10.984375 60.40625 
L 10.984375 69.390625 
L 28.421875 72.90625 
L 38.28125 72.90625 
L 38.28125 8.296875 
L 54.390625 8.296875 
L 54.390625 0 
L 12.40625 0 
z
" id="DejaVuSans-49"/>
      </defs>
      <g transform="translate(58.431334 322.182437)scale(0.1 -0.1)">
       <use xlink:href="#DejaVuSans-49"/>
      </g>
     </g>
    </g>
    <g id="xtick_2">
     <g id="line2d_3">
      <path clip-path="url(#pe9ecf29774)" d="M 73.650337 307.584 
L 73.650337 41.472 
" style="fill:none;stroke:#b0b0b0;stroke-dasharray:5.12,1.28,0.8,1.28;stroke-dashoffset:0;stroke-width:0.8;"/>
     </g>
     <g id="line2d_4">
      <g>
       <use style="stroke:#000000;stroke-width:0.8;" x="73.650337" xlink:href="#m099b1da4d3" y="307.584"/>
      </g>
     </g>
     <g id="text_2">
      <!-- 4 -->
      <defs>
       <path d="M 37.796875 64.3125 
L 12.890625 25.390625 
L 37.796875 25.390625 
z
M 35.203125 72.90625 
L 47.609375 72.90625 
L 47.609375 25.390625 
L 58.015625 25.390625 
L 58.015625 17.1875 
L 47.609375 17.1875 
L 47.609375 0 
L 37.796875 0 
L 37.796875 17.1875 
L 4.890625 17.1875 
L 4.890625 26.703125 
z
" id="DejaVuSans-52"/>
      </defs>
      <g transform="translate(70.469087 322.182437)scale(0.1 -0.1)">
       <use xlink:href="#DejaVuSans-52"/>
      </g>
     </g>
    </g>
    <g id="xtick_3">
     <g id="line2d_5">
      <path clip-path="url(#pe9ecf29774)" d="M 89.700674 307.584 
L 89.700674 41.472 
" style="fill:none;stroke:#b0b0b0;stroke-dasharray:5.12,1.28,0.8,1.28;stroke-dashoffset:0;stroke-width:0.8;"/>
     </g>
     <g id="line2d_6">
      <g>
       <use style="stroke:#000000;stroke-width:0.8;" x="89.700674" xlink:href="#m099b1da4d3" y="307.584"/>
      </g>
     </g>
     <g id="text_3">
      <!-- 8 -->
      <defs>
       <path d="M 31.78125 34.625 
Q 24.75 34.625 20.71875 30.859375 
Q 16.703125 27.09375 16.703125 20.515625 
Q 16.703125 13.921875 20.71875 10.15625 
Q 24.75 6.390625 31.78125 6.390625 
Q 38.8125 6.390625 42.859375 10.171875 
Q 46.921875 13.96875 46.921875 20.515625 
Q 46.921875 27.09375 42.890625 30.859375 
Q 38.875 34.625 31.78125 34.625 
z
M 21.921875 38.8125 
Q 15.578125 40.375 12.03125 44.71875 
Q 8.5 49.078125 8.5 55.328125 
Q 8.5 64.0625 14.71875 69.140625 
Q 20.953125 74.21875 31.78125 74.21875 
Q 42.671875 74.21875 48.875 69.140625 
Q 55.078125 64.0625 55.078125 55.328125 
Q 55.078125 49.078125 51.53125 44.71875 
Q 48 40.375 41.703125 38.8125 
Q 48.828125 37.15625 52.796875 32.3125 
Q 56.78125 27.484375 56.78125 20.515625 
Q 56.78125 9.90625 50.3125 4.234375 
Q 43.84375 -1.421875 31.78125 -1.421875 
Q 19.734375 -1.421875 13.25 4.234375 
Q 6.78125 9.90625 6.78125 20.515625 
Q 6.78125 27.484375 10.78125 32.3125 
Q 14.796875 37.15625 21.921875 38.8125 
z
M 18.3125 54.390625 
Q 18.3125 48.734375 21.84375 45.5625 
Q 25.390625 42.390625 31.78125 42.390625 
Q 38.140625 42.390625 41.71875 45.5625 
Q 45.3125 48.734375 45.3125 54.390625 
Q 45.3125 60.0625 41.71875 63.234375 
Q 38.140625 66.40625 31.78125 66.40625 
Q 25.390625 66.40625 21.84375 63.234375 
Q 18.3125 60.0625 18.3125 54.390625 
z
" id="DejaVuSans-56"/>
      </defs>
      <g transform="translate(86.519424 322.182437)scale(0.1 -0.1)">
       <use xlink:href="#DejaVuSans-56"/>
      </g>
     </g>
    </g>
    <g id="xtick_4">
     <g id="line2d_7">
      <path clip-path="url(#pe9ecf29774)" d="M 105.751011 307.584 
L 105.751011 41.472 
" style="fill:none;stroke:#b0b0b0;stroke-dasharray:5.12,1.28,0.8,1.28;stroke-dashoffset:0;stroke-width:0.8;"/>
     </g>
     <g id="line2d_8">
      <g>
       <use style="stroke:#000000;stroke-width:0.8;" x="105.751011" xlink:href="#m099b1da4d3" y="307.584"/>
      </g>
     </g>
     <g id="text_4">
      <!-- 12 -->
      <defs>
       <path d="M 19.1875 8.296875 
L 53.609375 8.296875 
L 53.609375 0 
L 7.328125 0 
L 7.328125 8.296875 
Q 12.9375 14.109375 22.625 23.890625 
Q 32.328125 33.6875 34.8125 36.53125 
Q 39.546875 41.84375 41.421875 45.53125 
Q 43.3125 49.21875 43.3125 52.78125 
Q 43.3125 58.59375 39.234375 62.25 
Q 35.15625 65.921875 28.609375 65.921875 
Q 23.96875 65.921875 18.8125 64.3125 
Q 13.671875 62.703125 7.8125 59.421875 
L 7.8125 69.390625 
Q 13.765625 71.78125 18.9375 73 
Q 24.125 74.21875 28.421875 74.21875 
Q 39.75 74.21875 46.484375 68.546875 
Q 53.21875 62.890625 53.21875 53.421875 
Q 53.21875 48.921875 51.53125 44.890625 
Q 49.859375 40.875 45.40625 35.40625 
Q 44.1875 33.984375 37.640625 27.21875 
Q 31.109375 20.453125 19.1875 8.296875 
z
" id="DejaVuSans-50"/>
      </defs>
      <g transform="translate(99.388511 322.182437)scale(0.1 -0.1)">
       <use xlink:href="#DejaVuSans-49"/>
       <use x="63.623047" xlink:href="#DejaVuSans-50"/>
      </g>
     </g>
    </g>
    <g id="xtick_5">
     <g id="line2d_9">
      <path clip-path="url(#pe9ecf29774)" d="M 121.801348 307.584 
L 121.801348 41.472 
" style="fill:none;stroke:#b0b0b0;stroke-dasharray:5.12,1.28,0.8,1.28;stroke-dashoffset:0;stroke-width:0.8;"/>
     </g>
     <g id="line2d_10">
      <g>
       <use style="stroke:#000000;stroke-width:0.8;" x="121.801348" xlink:href="#m099b1da4d3" y="307.584"/>
      </g>
     </g>
     <g id="text_5">
      <!-- 16 -->
      <defs>
       <path d="M 33.015625 40.375 
Q 26.375 40.375 22.484375 35.828125 
Q 18.609375 31.296875 18.609375 23.390625 
Q 18.609375 15.53125 22.484375 10.953125 
Q 26.375 6.390625 33.015625 6.390625 
Q 39.65625 6.390625 43.53125 10.953125 
Q 47.40625 15.53125 47.40625 23.390625 
Q 47.40625 31.296875 43.53125 35.828125 
Q 39.65625 40.375 33.015625 40.375 
z
M 52.59375 71.296875 
L 52.59375 62.3125 
Q 48.875 64.0625 45.09375 64.984375 
Q 41.3125 65.921875 37.59375 65.921875 
Q 27.828125 65.921875 22.671875 59.328125 
Q 17.53125 52.734375 16.796875 39.40625 
Q 19.671875 43.65625 24.015625 45.921875 
Q 28.375 48.1875 33.59375 48.1875 
Q 44.578125 48.1875 50.953125 41.515625 
Q 57.328125 34.859375 57.328125 23.390625 
Q 57.328125 12.15625 50.6875 5.359375 
Q 44.046875 -1.421875 33.015625 -1.421875 
Q 20.359375 -1.421875 13.671875 8.265625 
Q 6.984375 17.96875 6.984375 36.375 
Q 6.984375 53.65625 15.1875 63.9375 
Q 23.390625 74.21875 37.203125 74.21875 
Q 40.921875 74.21875 44.703125 73.484375 
Q 48.484375 72.75 52.59375 71.296875 
z
" id="DejaVuSans-54"/>
      </defs>
      <g transform="translate(115.438848 322.182437)scale(0.1 -0.1)">
       <use xlink:href="#DejaVuSans-49"/>
       <use x="63.623047" xlink:href="#DejaVuSans-54"/>
      </g>
     </g>
    </g>
    <g id="xtick_6">
     <g id="line2d_11">
      <path clip-path="url(#pe9ecf29774)" d="M 137.851685 307.584 
L 137.851685 41.472 
" style="fill:none;stroke:#b0b0b0;stroke-dasharray:5.12,1.28,0.8,1.28;stroke-dashoffset:0;stroke-width:0.8;"/>
     </g>
     <g id="line2d_12">
      <g>
       <use style="stroke:#000000;stroke-width:0.8;" x="137.851685" xlink:href="#m099b1da4d3" y="307.584"/>
      </g>
     </g>
     <g id="text_6">
      <!-- 20 -->
      <defs>
       <path d="M 31.78125 66.40625 
Q 24.171875 66.40625 20.328125 58.90625 
Q 16.5 51.421875 16.5 36.375 
Q 16.5 21.390625 20.328125 13.890625 
Q 24.171875 6.390625 31.78125 6.390625 
Q 39.453125 6.390625 43.28125 13.890625 
Q 47.125 21.390625 47.125 36.375 
Q 47.125 51.421875 43.28125 58.90625 
Q 39.453125 66.40625 31.78125 66.40625 
z
M 31.78125 74.21875 
Q 44.046875 74.21875 50.515625 64.515625 
Q 56.984375 54.828125 56.984375 36.375 
Q 56.984375 17.96875 50.515625 8.265625 
Q 44.046875 -1.421875 31.78125 -1.421875 
Q 19.53125 -1.421875 13.0625 8.265625 
Q 6.59375 17.96875 6.59375 36.375 
Q 6.59375 54.828125 13.0625 64.515625 
Q 19.53125 74.21875 31.78125 74.21875 
z
" id="DejaVuSans-48"/>
      </defs>
      <g transform="translate(131.489185 322.182437)scale(0.1 -0.1)">
       <use xlink:href="#DejaVuSans-50"/>
       <use x="63.623047" xlink:href="#DejaVuSans-48"/>
      </g>
     </g>
    </g>
    <g id="xtick_7">
     <g id="line2d_13">
      <path clip-path="url(#pe9ecf29774)" d="M 153.902022 307.584 
L 153.902022 41.472 
" style="fill:none;stroke:#b0b0b0;stroke-dasharray:5.12,1.28,0.8,1.28;stroke-dashoffset:0;stroke-width:0.8;"/>
     </g>
     <g id="line2d_14">
      <g>
       <use style="stroke:#000000;stroke-width:0.8;" x="153.902022" xlink:href="#m099b1da4d3" y="307.584"/>
      </g>
     </g>
     <g id="text_7">
      <!-- 24 -->
      <g transform="translate(147.539522 322.182437)scale(0.1 -0.1)">
       <use xlink:href="#DejaVuSans-50"/>
       <use x="63.623047" xlink:href="#DejaVuSans-52"/>
      </g>
     </g>
    </g>
    <g id="xtick_8">
     <g id="line2d_15">
      <path clip-path="url(#pe9ecf29774)" d="M 169.95236 307.584 
L 169.95236 41.472 
" style="fill:none;stroke:#b0b0b0;stroke-dasharray:5.12,1.28,0.8,1.28;stroke-dashoffset:0;stroke-width:0.8;"/>
     </g>
     <g id="line2d_16">
      <g>
       <use style="stroke:#000000;stroke-width:0.8;" x="169.95236" xlink:href="#m099b1da4d3" y="307.584"/>
      </g>
     </g>
     <g id="text_8">
      <!-- 28 -->
      <g transform="translate(163.58986 322.182437)scale(0.1 -0.1)">
       <use xlink:href="#DejaVuSans-50"/>
       <use x="63.623047" xlink:href="#DejaVuSans-56"/>
      </g>
     </g>
    </g>
    <g id="xtick_9">
     <g id="line2d_17">
      <path clip-path="url(#pe9ecf29774)" d="M 186.002697 307.584 
L 186.002697 41.472 
" style="fill:none;stroke:#b0b0b0;stroke-dasharray:5.12,1.28,0.8,1.28;stroke-dashoffset:0;stroke-width:0.8;"/>
     </g>
     <g id="line2d_18">
      <g>
       <use style="stroke:#000000;stroke-width:0.8;" x="186.002697" xlink:href="#m099b1da4d3" y="307.584"/>
      </g>
     </g>
     <g id="text_9">
      <!-- 32 -->
      <defs>
       <path d="M 40.578125 39.3125 
Q 47.65625 37.796875 51.625 33 
Q 55.609375 28.21875 55.609375 21.1875 
Q 55.609375 10.40625 48.1875 4.484375 
Q 40.765625 -1.421875 27.09375 -1.421875 
Q 22.515625 -1.421875 17.65625 -0.515625 
Q 12.796875 0.390625 7.625 2.203125 
L 7.625 11.71875 
Q 11.71875 9.328125 16.59375 8.109375 
Q 21.484375 6.890625 26.8125 6.890625 
Q 36.078125 6.890625 40.9375 10.546875 
Q 45.796875 14.203125 45.796875 21.1875 
Q 45.796875 27.640625 41.28125 31.265625 
Q 36.765625 34.90625 28.71875 34.90625 
L 20.21875 34.90625 
L 20.21875 43.015625 
L 29.109375 43.015625 
Q 36.375 43.015625 40.234375 45.921875 
Q 44.09375 48.828125 44.09375 54.296875 
Q 44.09375 59.90625 40.109375 62.90625 
Q 36.140625 65.921875 28.71875 65.921875 
Q 24.65625 65.921875 20.015625 65.03125 
Q 15.375 64.15625 9.8125 62.3125 
L 9.8125 71.09375 
Q 15.4375 72.65625 20.34375 73.4375 
Q 25.25 74.21875 29.59375 74.21875 
Q 40.828125 74.21875 47.359375 69.109375 
Q 53.90625 64.015625 53.90625 55.328125 
Q 53.90625 49.265625 50.4375 45.09375 
Q 46.96875 40.921875 40.578125 39.3125 
z
" id="DejaVuSans-51"/>
      </defs>
      <g transform="translate(179.640197 322.182437)scale(0.1 -0.1)">
       <use xlink:href="#DejaVuSans-51"/>
       <use x="63.623047" xlink:href="#DejaVuSans-50"/>
      </g>
     </g>
    </g>
    <g id="xtick_10">
     <g id="line2d_19">
      <path clip-path="url(#pe9ecf29774)" d="M 202.053034 307.584 
L 202.053034 41.472 
" style="fill:none;stroke:#b0b0b0;stroke-dasharray:5.12,1.28,0.8,1.28;stroke-dashoffset:0;stroke-width:0.8;"/>
     </g>
     <g id="line2d_20">
      <g>
       <use style="stroke:#000000;stroke-width:0.8;" x="202.053034" xlink:href="#m099b1da4d3" y="307.584"/>
      </g>
     </g>
     <g id="text_10">
      <!-- 36 -->
      <g transform="translate(195.690534 322.182437)scale(0.1 -0.1)">
       <use xlink:href="#DejaVuSans-51"/>
       <use x="63.623047" xlink:href="#DejaVuSans-54"/>
      </g>
     </g>
    </g>
    <g id="xtick_11">
     <g id="line2d_21">
      <path clip-path="url(#pe9ecf29774)" d="M 218.103371 307.584 
L 218.103371 41.472 
" style="fill:none;stroke:#b0b0b0;stroke-dasharray:5.12,1.28,0.8,1.28;stroke-dashoffset:0;stroke-width:0.8;"/>
     </g>
     <g id="line2d_22">
      <g>
       <use style="stroke:#000000;stroke-width:0.8;" x="218.103371" xlink:href="#m099b1da4d3" y="307.584"/>
      </g>
     </g>
     <g id="text_11">
      <!-- 40 -->
      <g transform="translate(211.740871 322.182437)scale(0.1 -0.1)">
       <use xlink:href="#DejaVuSans-52"/>
       <use x="63.623047" xlink:href="#DejaVuSans-48"/>
      </g>
     </g>
    </g>
    <g id="xtick_12">
     <g id="line2d_23">
      <path clip-path="url(#pe9ecf29774)" d="M 234.153708 307.584 
L 234.153708 41.472 
" style="fill:none;stroke:#b0b0b0;stroke-dasharray:5.12,1.28,0.8,1.28;stroke-dashoffset:0;stroke-width:0.8;"/>
     </g>
     <g id="line2d_24">
      <g>
       <use style="stroke:#000000;stroke-width:0.8;" x="234.153708" xlink:href="#m099b1da4d3" y="307.584"/>
      </g>
     </g>
     <g id="text_12">
      <!-- 44 -->
      <g transform="translate(227.791208 322.182437)scale(0.1 -0.1)">
       <use xlink:href="#DejaVuSans-52"/>
       <use x="63.623047" xlink:href="#DejaVuSans-52"/>
      </g>
     </g>
    </g>
    <g id="xtick_13">
     <g id="line2d_25">
      <path clip-path="url(#pe9ecf29774)" d="M 250.204045 307.584 
L 250.204045 41.472 
" style="fill:none;stroke:#b0b0b0;stroke-dasharray:5.12,1.28,0.8,1.28;stroke-dashoffset:0;stroke-width:0.8;"/>
     </g>
     <g id="line2d_26">
      <g>
       <use style="stroke:#000000;stroke-width:0.8;" x="250.204045" xlink:href="#m099b1da4d3" y="307.584"/>
      </g>
     </g>
     <g id="text_13">
      <!-- 48 -->
      <g transform="translate(243.841545 322.182437)scale(0.1 -0.1)">
       <use xlink:href="#DejaVuSans-52"/>
       <use x="63.623047" xlink:href="#DejaVuSans-56"/>
      </g>
     </g>
    </g>
    <g id="xtick_14">
     <g id="line2d_27">
      <path clip-path="url(#pe9ecf29774)" d="M 266.254382 307.584 
L 266.254382 41.472 
" style="fill:none;stroke:#b0b0b0;stroke-dasharray:5.12,1.28,0.8,1.28;stroke-dashoffset:0;stroke-width:0.8;"/>
     </g>
     <g id="line2d_28">
      <g>
       <use style="stroke:#000000;stroke-width:0.8;" x="266.254382" xlink:href="#m099b1da4d3" y="307.584"/>
      </g>
     </g>
     <g id="text_14">
      <!-- 52 -->
      <defs>
       <path d="M 10.796875 72.90625 
L 49.515625 72.90625 
L 49.515625 64.59375 
L 19.828125 64.59375 
L 19.828125 46.734375 
Q 21.96875 47.46875 24.109375 47.828125 
Q 26.265625 48.1875 28.421875 48.1875 
Q 40.625 48.1875 47.75 41.5 
Q 54.890625 34.8125 54.890625 23.390625 
Q 54.890625 11.625 47.5625 5.09375 
Q 40.234375 -1.421875 26.90625 -1.421875 
Q 22.3125 -1.421875 17.546875 -0.640625 
Q 12.796875 0.140625 7.71875 1.703125 
L 7.71875 11.625 
Q 12.109375 9.234375 16.796875 8.0625 
Q 21.484375 6.890625 26.703125 6.890625 
Q 35.15625 6.890625 40.078125 11.328125 
Q 45.015625 15.765625 45.015625 23.390625 
Q 45.015625 31 40.078125 35.4375 
Q 35.15625 39.890625 26.703125 39.890625 
Q 22.75 39.890625 18.8125 39.015625 
Q 14.890625 38.140625 10.796875 36.28125 
z
" id="DejaVuSans-53"/>
      </defs>
      <g transform="translate(259.891882 322.182437)scale(0.1 -0.1)">
       <use xlink:href="#DejaVuSans-53"/>
       <use x="63.623047" xlink:href="#DejaVuSans-50"/>
      </g>
     </g>
    </g>
    <g id="xtick_15">
     <g id="line2d_29">
      <path clip-path="url(#pe9ecf29774)" d="M 282.304719 307.584 
L 282.304719 41.472 
" style="fill:none;stroke:#b0b0b0;stroke-dasharray:5.12,1.28,0.8,1.28;stroke-dashoffset:0;stroke-width:0.8;"/>
     </g>
     <g id="line2d_30">
      <g>
       <use style="stroke:#000000;stroke-width:0.8;" x="282.304719" xlink:href="#m099b1da4d3" y="307.584"/>
      </g>
     </g>
     <g id="text_15">
      <!-- 56 -->
      <g transform="translate(275.942219 322.182437)scale(0.1 -0.1)">
       <use xlink:href="#DejaVuSans-53"/>
       <use x="63.623047" xlink:href="#DejaVuSans-54"/>
      </g>
     </g>
    </g>
    <g id="xtick_16">
     <g id="line2d_31">
      <path clip-path="url(#pe9ecf29774)" d="M 298.355056 307.584 
L 298.355056 41.472 
" style="fill:none;stroke:#b0b0b0;stroke-dasharray:5.12,1.28,0.8,1.28;stroke-dashoffset:0;stroke-width:0.8;"/>
     </g>
     <g id="line2d_32">
      <g>
       <use style="stroke:#000000;stroke-width:0.8;" x="298.355056" xlink:href="#m099b1da4d3" y="307.584"/>
      </g>
     </g>
     <g id="text_16">
      <!-- 60 -->
      <g transform="translate(291.992556 322.182437)scale(0.1 -0.1)">
       <use xlink:href="#DejaVuSans-54"/>
       <use x="63.623047" xlink:href="#DejaVuSans-48"/>
      </g>
     </g>
    </g>
    <g id="xtick_17">
     <g id="line2d_33">
      <path clip-path="url(#pe9ecf29774)" d="M 314.405393 307.584 
L 314.405393 41.472 
" style="fill:none;stroke:#b0b0b0;stroke-dasharray:5.12,1.28,0.8,1.28;stroke-dashoffset:0;stroke-width:0.8;"/>
     </g>
     <g id="line2d_34">
      <g>
       <use style="stroke:#000000;stroke-width:0.8;" x="314.405393" xlink:href="#m099b1da4d3" y="307.584"/>
      </g>
     </g>
     <g id="text_17">
      <!-- 64 -->
      <g transform="translate(308.042893 322.182437)scale(0.1 -0.1)">
       <use xlink:href="#DejaVuSans-54"/>
       <use x="63.623047" xlink:href="#DejaVuSans-52"/>
      </g>
     </g>
    </g>
    <g id="xtick_18">
     <g id="line2d_35">
      <path clip-path="url(#pe9ecf29774)" d="M 330.45573 307.584 
L 330.45573 41.472 
" style="fill:none;stroke:#b0b0b0;stroke-dasharray:5.12,1.28,0.8,1.28;stroke-dashoffset:0;stroke-width:0.8;"/>
     </g>
     <g id="line2d_36">
      <g>
       <use style="stroke:#000000;stroke-width:0.8;" x="330.45573" xlink:href="#m099b1da4d3" y="307.584"/>
      </g>
     </g>
     <g id="text_18">
      <!-- 68 -->
      <g transform="translate(324.09323 322.182437)scale(0.1 -0.1)">
       <use xlink:href="#DejaVuSans-54"/>
       <use x="63.623047" xlink:href="#DejaVuSans-56"/>
      </g>
     </g>
    </g>
    <g id="xtick_19">
     <g id="line2d_37">
      <path clip-path="url(#pe9ecf29774)" d="M 346.506067 307.584 
L 346.506067 41.472 
" style="fill:none;stroke:#b0b0b0;stroke-dasharray:5.12,1.28,0.8,1.28;stroke-dashoffset:0;stroke-width:0.8;"/>
     </g>
     <g id="line2d_38">
      <g>
       <use style="stroke:#000000;stroke-width:0.8;" x="346.506067" xlink:href="#m099b1da4d3" y="307.584"/>
      </g>
     </g>
     <g id="text_19">
      <!-- 72 -->
      <defs>
       <path d="M 8.203125 72.90625 
L 55.078125 72.90625 
L 55.078125 68.703125 
L 28.609375 0 
L 18.3125 0 
L 43.21875 64.59375 
L 8.203125 64.59375 
z
" id="DejaVuSans-55"/>
      </defs>
      <g transform="translate(340.143567 322.182437)scale(0.1 -0.1)">
       <use xlink:href="#DejaVuSans-55"/>
       <use x="63.623047" xlink:href="#DejaVuSans-50"/>
      </g>
     </g>
    </g>
    <g id="xtick_20">
     <g id="line2d_39">
      <path clip-path="url(#pe9ecf29774)" d="M 362.556404 307.584 
L 362.556404 41.472 
" style="fill:none;stroke:#b0b0b0;stroke-dasharray:5.12,1.28,0.8,1.28;stroke-dashoffset:0;stroke-width:0.8;"/>
     </g>
     <g id="line2d_40">
      <g>
       <use style="stroke:#000000;stroke-width:0.8;" x="362.556404" xlink:href="#m099b1da4d3" y="307.584"/>
      </g>
     </g>
     <g id="text_20">
      <!-- 76 -->
      <g transform="translate(356.193904 322.182437)scale(0.1 -0.1)">
       <use xlink:href="#DejaVuSans-55"/>
       <use x="63.623047" xlink:href="#DejaVuSans-54"/>
      </g>
     </g>
    </g>
    <g id="xtick_21">
     <g id="line2d_41">
      <path clip-path="url(#pe9ecf29774)" d="M 378.606742 307.584 
L 378.606742 41.472 
" style="fill:none;stroke:#b0b0b0;stroke-dasharray:5.12,1.28,0.8,1.28;stroke-dashoffset:0;stroke-width:0.8;"/>
     </g>
     <g id="line2d_42">
      <g>
       <use style="stroke:#000000;stroke-width:0.8;" x="378.606742" xlink:href="#m099b1da4d3" y="307.584"/>
      </g>
     </g>
     <g id="text_21">
      <!-- 80 -->
      <g transform="translate(372.244242 322.182437)scale(0.1 -0.1)">
       <use xlink:href="#DejaVuSans-56"/>
       <use x="63.623047" xlink:href="#DejaVuSans-48"/>
      </g>
     </g>
    </g>
    <g id="xtick_22">
     <g id="line2d_43">
      <path clip-path="url(#pe9ecf29774)" d="M 394.657079 307.584 
L 394.657079 41.472 
" style="fill:none;stroke:#b0b0b0;stroke-dasharray:5.12,1.28,0.8,1.28;stroke-dashoffset:0;stroke-width:0.8;"/>
     </g>
     <g id="line2d_44">
      <g>
       <use style="stroke:#000000;stroke-width:0.8;" x="394.657079" xlink:href="#m099b1da4d3" y="307.584"/>
      </g>
     </g>
     <g id="text_22">
      <!-- 84 -->
      <g transform="translate(388.294579 322.182437)scale(0.1 -0.1)">
       <use xlink:href="#DejaVuSans-56"/>
       <use x="63.623047" xlink:href="#DejaVuSans-52"/>
      </g>
     </g>
    </g>
    <g id="xtick_23">
     <g id="line2d_45">
      <path clip-path="url(#pe9ecf29774)" d="M 410.707416 307.584 
L 410.707416 41.472 
" style="fill:none;stroke:#b0b0b0;stroke-dasharray:5.12,1.28,0.8,1.28;stroke-dashoffset:0;stroke-width:0.8;"/>
     </g>
     <g id="line2d_46">
      <g>
       <use style="stroke:#000000;stroke-width:0.8;" x="410.707416" xlink:href="#m099b1da4d3" y="307.584"/>
      </g>
     </g>
     <g id="text_23">
      <!-- 88 -->
      <g transform="translate(404.344916 322.182437)scale(0.1 -0.1)">
       <use xlink:href="#DejaVuSans-56"/>
       <use x="63.623047" xlink:href="#DejaVuSans-56"/>
      </g>
     </g>
    </g>
    <g id="text_24">
     <!-- threads -->
     <defs>
      <path d="M 18.3125 70.21875 
L 18.3125 54.6875 
L 36.8125 54.6875 
L 36.8125 47.703125 
L 18.3125 47.703125 
L 18.3125 18.015625 
Q 18.3125 11.328125 20.140625 9.421875 
Q 21.96875 7.515625 27.59375 7.515625 
L 36.8125 7.515625 
L 36.8125 0 
L 27.59375 0 
Q 17.1875 0 13.234375 3.875 
Q 9.28125 7.765625 9.28125 18.015625 
L 9.28125 47.703125 
L 2.6875 47.703125 
L 2.6875 54.6875 
L 9.28125 54.6875 
L 9.28125 70.21875 
z
" id="DejaVuSans-116"/>
      <path d="M 54.890625 33.015625 
L 54.890625 0 
L 45.90625 0 
L 45.90625 32.71875 
Q 45.90625 40.484375 42.875 44.328125 
Q 39.84375 48.1875 33.796875 48.1875 
Q 26.515625 48.1875 22.3125 43.546875 
Q 18.109375 38.921875 18.109375 30.90625 
L 18.109375 0 
L 9.078125 0 
L 9.078125 75.984375 
L 18.109375 75.984375 
L 18.109375 46.1875 
Q 21.34375 51.125 25.703125 53.5625 
Q 30.078125 56 35.796875 56 
Q 45.21875 56 50.046875 50.171875 
Q 54.890625 44.34375 54.890625 33.015625 
z
" id="DejaVuSans-104"/>
      <path d="M 41.109375 46.296875 
Q 39.59375 47.171875 37.8125 47.578125 
Q 36.03125 48 33.890625 48 
Q 26.265625 48 22.1875 43.046875 
Q 18.109375 38.09375 18.109375 28.8125 
L 18.109375 0 
L 9.078125 0 
L 9.078125 54.6875 
L 18.109375 54.6875 
L 18.109375 46.1875 
Q 20.953125 51.171875 25.484375 53.578125 
Q 30.03125 56 36.53125 56 
Q 37.453125 56 38.578125 55.875 
Q 39.703125 55.765625 41.0625 55.515625 
z
" id="DejaVuSans-114"/>
      <path d="M 56.203125 29.59375 
L 56.203125 25.203125 
L 14.890625 25.203125 
Q 15.484375 15.921875 20.484375 11.0625 
Q 25.484375 6.203125 34.421875 6.203125 
Q 39.59375 6.203125 44.453125 7.46875 
Q 49.3125 8.734375 54.109375 11.28125 
L 54.109375 2.78125 
Q 49.265625 0.734375 44.1875 -0.34375 
Q 39.109375 -1.421875 33.890625 -1.421875 
Q 20.796875 -1.421875 13.15625 6.1875 
Q 5.515625 13.8125 5.515625 26.8125 
Q 5.515625 40.234375 12.765625 48.109375 
Q 20.015625 56 32.328125 56 
Q 43.359375 56 49.78125 48.890625 
Q 56.203125 41.796875 56.203125 29.59375 
z
M 47.21875 32.234375 
Q 47.125 39.59375 43.09375 43.984375 
Q 39.0625 48.390625 32.421875 48.390625 
Q 24.90625 48.390625 20.390625 44.140625 
Q 15.875 39.890625 15.1875 32.171875 
z
" id="DejaVuSans-101"/>
      <path d="M 34.28125 27.484375 
Q 23.390625 27.484375 19.1875 25 
Q 14.984375 22.515625 14.984375 16.5 
Q 14.984375 11.71875 18.140625 8.90625 
Q 21.296875 6.109375 26.703125 6.109375 
Q 34.1875 6.109375 38.703125 11.40625 
Q 43.21875 16.703125 43.21875 25.484375 
L 43.21875 27.484375 
z
M 52.203125 31.203125 
L 52.203125 0 
L 43.21875 0 
L 43.21875 8.296875 
Q 40.140625 3.328125 35.546875 0.953125 
Q 30.953125 -1.421875 24.3125 -1.421875 
Q 15.921875 -1.421875 10.953125 3.296875 
Q 6 8.015625 6 15.921875 
Q 6 25.140625 12.171875 29.828125 
Q 18.359375 34.515625 30.609375 34.515625 
L 43.21875 34.515625 
L 43.21875 35.40625 
Q 43.21875 41.609375 39.140625 45 
Q 35.0625 48.390625 27.6875 48.390625 
Q 23 48.390625 18.546875 47.265625 
Q 14.109375 46.140625 10.015625 43.890625 
L 10.015625 52.203125 
Q 14.9375 54.109375 19.578125 55.046875 
Q 24.21875 56 28.609375 56 
Q 40.484375 56 46.34375 49.84375 
Q 52.203125 43.703125 52.203125 31.203125 
z
" id="DejaVuSans-97"/>
      <path d="M 45.40625 46.390625 
L 45.40625 75.984375 
L 54.390625 75.984375 
L 54.390625 0 
L 45.40625 0 
L 45.40625 8.203125 
Q 42.578125 3.328125 38.25 0.953125 
Q 33.9375 -1.421875 27.875 -1.421875 
Q 17.96875 -1.421875 11.734375 6.484375 
Q 5.515625 14.40625 5.515625 27.296875 
Q 5.515625 40.1875 11.734375 48.09375 
Q 17.96875 56 27.875 56 
Q 33.9375 56 38.25 53.625 
Q 42.578125 51.265625 45.40625 46.390625 
z
M 14.796875 27.296875 
Q 14.796875 17.390625 18.875 11.75 
Q 22.953125 6.109375 30.078125 6.109375 
Q 37.203125 6.109375 41.296875 11.75 
Q 45.40625 17.390625 45.40625 27.296875 
Q 45.40625 37.203125 41.296875 42.84375 
Q 37.203125 48.484375 30.078125 48.484375 
Q 22.953125 48.484375 18.875 42.84375 
Q 14.796875 37.203125 14.796875 27.296875 
z
" id="DejaVuSans-100"/>
      <path d="M 44.28125 53.078125 
L 44.28125 44.578125 
Q 40.484375 46.53125 36.375 47.5 
Q 32.28125 48.484375 27.875 48.484375 
Q 21.1875 48.484375 17.84375 46.4375 
Q 14.5 44.390625 14.5 40.28125 
Q 14.5 37.15625 16.890625 35.375 
Q 19.28125 33.59375 26.515625 31.984375 
L 29.59375 31.296875 
Q 39.15625 29.25 43.1875 25.515625 
Q 47.21875 21.78125 47.21875 15.09375 
Q 47.21875 7.46875 41.1875 3.015625 
Q 35.15625 -1.421875 24.609375 -1.421875 
Q 20.21875 -1.421875 15.453125 -0.5625 
Q 10.6875 0.296875 5.421875 2 
L 5.421875 11.28125 
Q 10.40625 8.6875 15.234375 7.390625 
Q 20.0625 6.109375 24.8125 6.109375 
Q 31.15625 6.109375 34.5625 8.28125 
Q 37.984375 10.453125 37.984375 14.40625 
Q 37.984375 18.0625 35.515625 20.015625 
Q 33.0625 21.96875 24.703125 23.78125 
L 21.578125 24.515625 
Q 13.234375 26.265625 9.515625 29.90625 
Q 5.8125 33.546875 5.8125 39.890625 
Q 5.8125 47.609375 11.28125 51.796875 
Q 16.75 56 26.8125 56 
Q 31.78125 56 36.171875 55.265625 
Q 40.578125 54.546875 44.28125 53.078125 
z
" id="DejaVuSans-115"/>
     </defs>
     <g transform="translate(217.168594 335.860562)scale(0.1 -0.1)">
      <use xlink:href="#DejaVuSans-116"/>
      <use x="39.208984" xlink:href="#DejaVuSans-104"/>
      <use x="102.587891" xlink:href="#DejaVuSans-114"/>
      <use x="141.451172" xlink:href="#DejaVuSans-101"/>
      <use x="202.974609" xlink:href="#DejaVuSans-97"/>
      <use x="264.253906" xlink:href="#DejaVuSans-100"/>
      <use x="327.730469" xlink:href="#DejaVuSans-115"/>
     </g>
    </g>
   </g>
   <g id="matplotlib.axis_2">
    <g id="ytick_1">
     <g id="line2d_47">
      <path clip-path="url(#pe9ecf29774)" d="M 57.6 302.748143 
L 414.72 302.748143 
" style="fill:none;stroke:#b0b0b0;stroke-dasharray:5.12,1.28,0.8,1.28;stroke-dashoffset:0;stroke-width:0.8;"/>
     </g>
     <g id="line2d_48">
      <defs>
       <path d="M 0 0 
L -3.5 0 
" id="m89b1ecce0a" style="stroke:#000000;stroke-width:0.8;"/>
      </defs>
      <g>
       <use style="stroke:#000000;stroke-width:0.8;" x="57.6" xlink:href="#m89b1ecce0a" y="302.748143"/>
      </g>
     </g>
     <g id="text_25">
      <!-- 0.5 -->
      <defs>
       <path d="M 10.6875 12.40625 
L 21 12.40625 
L 21 0 
L 10.6875 0 
z
" id="DejaVuSans-46"/>
      </defs>
      <g transform="translate(34.696875 306.547361)scale(0.1 -0.1)">
       <use xlink:href="#DejaVuSans-48"/>
       <use x="63.623047" xlink:href="#DejaVuSans-46"/>
       <use x="95.410156" xlink:href="#DejaVuSans-53"/>
      </g>
     </g>
    </g>
    <g id="ytick_2">
     <g id="line2d_49">
      <path clip-path="url(#pe9ecf29774)" d="M 57.6 256.162758 
L 414.72 256.162758 
" style="fill:none;stroke:#b0b0b0;stroke-dasharray:5.12,1.28,0.8,1.28;stroke-dashoffset:0;stroke-width:0.8;"/>
     </g>
     <g id="line2d_50">
      <g>
       <use style="stroke:#000000;stroke-width:0.8;" x="57.6" xlink:href="#m89b1ecce0a" y="256.162758"/>
      </g>
     </g>
     <g id="text_26">
      <!-- 1.0 -->
      <g transform="translate(34.696875 259.961977)scale(0.1 -0.1)">
       <use xlink:href="#DejaVuSans-49"/>
       <use x="63.623047" xlink:href="#DejaVuSans-46"/>
       <use x="95.410156" xlink:href="#DejaVuSans-48"/>
      </g>
     </g>
    </g>
    <g id="ytick_3">
     <g id="line2d_51">
      <path clip-path="url(#pe9ecf29774)" d="M 57.6 209.577373 
L 414.72 209.577373 
" style="fill:none;stroke:#b0b0b0;stroke-dasharray:5.12,1.28,0.8,1.28;stroke-dashoffset:0;stroke-width:0.8;"/>
     </g>
     <g id="line2d_52">
      <g>
       <use style="stroke:#000000;stroke-width:0.8;" x="57.6" xlink:href="#m89b1ecce0a" y="209.577373"/>
      </g>
     </g>
     <g id="text_27">
      <!-- 1.5 -->
      <g transform="translate(34.696875 213.376592)scale(0.1 -0.1)">
       <use xlink:href="#DejaVuSans-49"/>
       <use x="63.623047" xlink:href="#DejaVuSans-46"/>
       <use x="95.410156" xlink:href="#DejaVuSans-53"/>
      </g>
     </g>
    </g>
    <g id="ytick_4">
     <g id="line2d_53">
      <path clip-path="url(#pe9ecf29774)" d="M 57.6 162.991989 
L 414.72 162.991989 
" style="fill:none;stroke:#b0b0b0;stroke-dasharray:5.12,1.28,0.8,1.28;stroke-dashoffset:0;stroke-width:0.8;"/>
     </g>
     <g id="line2d_54">
      <g>
       <use style="stroke:#000000;stroke-width:0.8;" x="57.6" xlink:href="#m89b1ecce0a" y="162.991989"/>
      </g>
     </g>
     <g id="text_28">
      <!-- 2.0 -->
      <g transform="translate(34.696875 166.791208)scale(0.1 -0.1)">
       <use xlink:href="#DejaVuSans-50"/>
       <use x="63.623047" xlink:href="#DejaVuSans-46"/>
       <use x="95.410156" xlink:href="#DejaVuSans-48"/>
      </g>
     </g>
    </g>
    <g id="ytick_5">
     <g id="line2d_55">
      <path clip-path="url(#pe9ecf29774)" d="M 57.6 116.406604 
L 414.72 116.406604 
" style="fill:none;stroke:#b0b0b0;stroke-dasharray:5.12,1.28,0.8,1.28;stroke-dashoffset:0;stroke-width:0.8;"/>
     </g>
     <g id="line2d_56">
      <g>
       <use style="stroke:#000000;stroke-width:0.8;" x="57.6" xlink:href="#m89b1ecce0a" y="116.406604"/>
      </g>
     </g>
     <g id="text_29">
      <!-- 2.5 -->
      <g transform="translate(34.696875 120.205823)scale(0.1 -0.1)">
       <use xlink:href="#DejaVuSans-50"/>
       <use x="63.623047" xlink:href="#DejaVuSans-46"/>
       <use x="95.410156" xlink:href="#DejaVuSans-53"/>
      </g>
     </g>
    </g>
    <g id="ytick_6">
     <g id="line2d_57">
      <path clip-path="url(#pe9ecf29774)" d="M 57.6 69.82122 
L 414.72 69.82122 
" style="fill:none;stroke:#b0b0b0;stroke-dasharray:5.12,1.28,0.8,1.28;stroke-dashoffset:0;stroke-width:0.8;"/>
     </g>
     <g id="line2d_58">
      <g>
       <use style="stroke:#000000;stroke-width:0.8;" x="57.6" xlink:href="#m89b1ecce0a" y="69.82122"/>
      </g>
     </g>
     <g id="text_30">
      <!-- 3.0 -->
      <g transform="translate(34.696875 73.620438)scale(0.1 -0.1)">
       <use xlink:href="#DejaVuSans-51"/>
       <use x="63.623047" xlink:href="#DejaVuSans-46"/>
       <use x="95.410156" xlink:href="#DejaVuSans-48"/>
      </g>
     </g>
    </g>
    <g id="text_31">
     <!-- speed up -->
     <defs>
      <path d="M 18.109375 8.203125 
L 18.109375 -20.796875 
L 9.078125 -20.796875 
L 9.078125 54.6875 
L 18.109375 54.6875 
L 18.109375 46.390625 
Q 20.953125 51.265625 25.265625 53.625 
Q 29.59375 56 35.59375 56 
Q 45.5625 56 51.78125 48.09375 
Q 58.015625 40.1875 58.015625 27.296875 
Q 58.015625 14.40625 51.78125 6.484375 
Q 45.5625 -1.421875 35.59375 -1.421875 
Q 29.59375 -1.421875 25.265625 0.953125 
Q 20.953125 3.328125 18.109375 8.203125 
z
M 48.6875 27.296875 
Q 48.6875 37.203125 44.609375 42.84375 
Q 40.53125 48.484375 33.40625 48.484375 
Q 26.265625 48.484375 22.1875 42.84375 
Q 18.109375 37.203125 18.109375 27.296875 
Q 18.109375 17.390625 22.1875 11.75 
Q 26.265625 6.109375 33.40625 6.109375 
Q 40.53125 6.109375 44.609375 11.75 
Q 48.6875 17.390625 48.6875 27.296875 
z
" id="DejaVuSans-112"/>
      <path id="DejaVuSans-32"/>
      <path d="M 8.5 21.578125 
L 8.5 54.6875 
L 17.484375 54.6875 
L 17.484375 21.921875 
Q 17.484375 14.15625 20.5 10.265625 
Q 23.53125 6.390625 29.59375 6.390625 
Q 36.859375 6.390625 41.078125 11.03125 
Q 45.3125 15.671875 45.3125 23.6875 
L 45.3125 54.6875 
L 54.296875 54.6875 
L 54.296875 0 
L 45.3125 0 
L 45.3125 8.40625 
Q 42.046875 3.421875 37.71875 1 
Q 33.40625 -1.421875 27.6875 -1.421875 
Q 18.265625 -1.421875 13.375 4.4375 
Q 8.5 10.296875 8.5 21.578125 
z
M 31.109375 56 
z
" id="DejaVuSans-117"/>
     </defs>
     <g transform="translate(28.617187 197.566281)rotate(-90)scale(0.1 -0.1)">
      <use xlink:href="#DejaVuSans-115"/>
      <use x="52.099609" xlink:href="#DejaVuSans-112"/>
      <use x="115.576172" xlink:href="#DejaVuSans-101"/>
      <use x="177.099609" xlink:href="#DejaVuSans-101"/>
      <use x="238.623047" xlink:href="#DejaVuSans-100"/>
      <use x="302.099609" xlink:href="#DejaVuSans-32"/>
      <use x="333.886719" xlink:href="#DejaVuSans-117"/>
      <use x="397.265625" xlink:href="#DejaVuSans-112"/>
     </g>
    </g>
   </g>
   <g id="line2d_59">
    <path clip-path="url(#pe9ecf29774)" d="M 61.612584 295.488 
L 65.625169 256.681079 
L 69.637753 227.988123 
L 73.650337 204.943212 
L 77.662921 186.285331 
L 81.675506 168.926094 
L 85.68809 151.509735 
L 89.700674 138.877105 
L 93.713258 129.214587 
L 97.725843 118.200892 
L 101.738427 106.908695 
L 105.751011 100.083731 
L 109.763596 97.867544 
L 113.77618 88.682988 
L 117.788764 86.701522 
L 121.801348 84.293591 
L 125.813933 80.447901 
L 129.826517 79.293061 
L 133.839101 76.467271 
L 137.851685 74.78885 
L 141.86427 70.255288 
L 145.876854 67.789523 
L 149.889438 67.664942 
L 153.902022 67.427656 
L 157.914607 65.94181 
L 161.927191 63.983975 
L 165.939775 62.915155 
L 169.95236 62.34145 
L 173.964944 63.277271 
L 177.977528 62.921766 
L 181.990112 62.092697 
L 186.002697 62.674787 
L 190.015281 59.441092 
L 194.027865 58.298436 
L 198.040449 59.866759 
L 202.053034 59.400597 
L 206.065618 59.160733 
L 210.078202 57.710736 
L 214.090787 58.30541 
L 218.103371 55.73671 
L 222.115955 56.706975 
L 226.128539 56.830643 
L 230.141124 55.870705 
L 234.153708 56.8815 
L 238.166292 56.527135 
L 242.178876 55.818188 
L 246.191461 56.395443 
L 250.204045 58.636833 
L 254.216629 55.822465 
L 258.229213 55.728806 
L 262.241798 53.568 
L 266.254382 56.018948 
L 270.266966 58.134959 
L 274.279551 55.21471 
L 278.292135 54.841908 
L 282.304719 57.663745 
L 286.317303 56.80216 
L 290.329888 58.230256 
L 294.342472 57.679841 
L 298.355056 57.778415 
L 302.36764 58.396197 
L 306.380225 59.642565 
L 310.392809 60.282931 
L 314.405393 58.491521 
L 318.417978 59.426516 
L 322.430562 59.424847 
L 326.443146 57.799759 
L 330.45573 63.495685 
L 334.468315 62.572677 
L 338.480899 60.7893 
L 342.493483 62.412141 
L 346.506067 63.118145 
L 350.518652 65.619699 
L 354.531236 61.454138 
L 358.54382 59.865829 
L 362.556404 60.944905 
L 366.568989 60.015687 
L 370.581573 60.220316 
L 374.594157 63.615352 
L 378.606742 59.946206 
L 382.619326 65.827793 
L 386.63191 62.018377 
L 390.644494 61.885788 
L 394.657079 65.172416 
L 398.669663 61.741775 
L 402.682247 63.517728 
L 406.694831 65.613964 
L 410.707416 65.779672 
" style="fill:none;stroke:#0000ff;stroke-dasharray:1.5,2.475;stroke-dashoffset:0;stroke-width:1.5;"/>
    <defs>
     <path d="M 0 1.5 
C 0.397805 1.5 0.77937 1.341951 1.06066 1.06066 
C 1.341951 0.77937 1.5 0.397805 1.5 0 
C 1.5 -0.397805 1.341951 -0.77937 1.06066 -1.06066 
C 0.77937 -1.341951 0.397805 -1.5 0 -1.5 
C -0.397805 -1.5 -0.77937 -1.341951 -1.06066 -1.06066 
C -1.341951 -0.77937 -1.5 -0.397805 -1.5 0 
C -1.5 0.397805 -1.341951 0.77937 -1.06066 1.06066 
C -0.77937 1.341951 -0.397805 1.5 0 1.5 
z
" id="mb57c7ed5d4" style="stroke:#0000ff;"/>
    </defs>
    <g clip-path="url(#pe9ecf29774)">
     <use style="fill:#0000ff;stroke:#0000ff;" x="61.612584" xlink:href="#mb57c7ed5d4" y="295.488"/>
     <use style="fill:#0000ff;stroke:#0000ff;" x="65.625169" xlink:href="#mb57c7ed5d4" y="256.681079"/>
     <use style="fill:#0000ff;stroke:#0000ff;" x="69.637753" xlink:href="#mb57c7ed5d4" y="227.988123"/>
     <use style="fill:#0000ff;stroke:#0000ff;" x="73.650337" xlink:href="#mb57c7ed5d4" y="204.943212"/>
     <use style="fill:#0000ff;stroke:#0000ff;" x="77.662921" xlink:href="#mb57c7ed5d4" y="186.285331"/>
     <use style="fill:#0000ff;stroke:#0000ff;" x="81.675506" xlink:href="#mb57c7ed5d4" y="168.926094"/>
     <use style="fill:#0000ff;stroke:#0000ff;" x="85.68809" xlink:href="#mb57c7ed5d4" y="151.509735"/>
     <use style="fill:#0000ff;stroke:#0000ff;" x="89.700674" xlink:href="#mb57c7ed5d4" y="138.877105"/>
     <use style="fill:#0000ff;stroke:#0000ff;" x="93.713258" xlink:href="#mb57c7ed5d4" y="129.214587"/>
     <use style="fill:#0000ff;stroke:#0000ff;" x="97.725843" xlink:href="#mb57c7ed5d4" y="118.200892"/>
     <use style="fill:#0000ff;stroke:#0000ff;" x="101.738427" xlink:href="#mb57c7ed5d4" y="106.908695"/>
     <use style="fill:#0000ff;stroke:#0000ff;" x="105.751011" xlink:href="#mb57c7ed5d4" y="100.083731"/>
     <use style="fill:#0000ff;stroke:#0000ff;" x="109.763596" xlink:href="#mb57c7ed5d4" y="97.867544"/>
     <use style="fill:#0000ff;stroke:#0000ff;" x="113.77618" xlink:href="#mb57c7ed5d4" y="88.682988"/>
     <use style="fill:#0000ff;stroke:#0000ff;" x="117.788764" xlink:href="#mb57c7ed5d4" y="86.701522"/>
     <use style="fill:#0000ff;stroke:#0000ff;" x="121.801348" xlink:href="#mb57c7ed5d4" y="84.293591"/>
     <use style="fill:#0000ff;stroke:#0000ff;" x="125.813933" xlink:href="#mb57c7ed5d4" y="80.447901"/>
     <use style="fill:#0000ff;stroke:#0000ff;" x="129.826517" xlink:href="#mb57c7ed5d4" y="79.293061"/>
     <use style="fill:#0000ff;stroke:#0000ff;" x="133.839101" xlink:href="#mb57c7ed5d4" y="76.467271"/>
     <use style="fill:#0000ff;stroke:#0000ff;" x="137.851685" xlink:href="#mb57c7ed5d4" y="74.78885"/>
     <use style="fill:#0000ff;stroke:#0000ff;" x="141.86427" xlink:href="#mb57c7ed5d4" y="70.255288"/>
     <use style="fill:#0000ff;stroke:#0000ff;" x="145.876854" xlink:href="#mb57c7ed5d4" y="67.789523"/>
     <use style="fill:#0000ff;stroke:#0000ff;" x="149.889438" xlink:href="#mb57c7ed5d4" y="67.664942"/>
     <use style="fill:#0000ff;stroke:#0000ff;" x="153.902022" xlink:href="#mb57c7ed5d4" y="67.427656"/>
     <use style="fill:#0000ff;stroke:#0000ff;" x="157.914607" xlink:href="#mb57c7ed5d4" y="65.94181"/>
     <use style="fill:#0000ff;stroke:#0000ff;" x="161.927191" xlink:href="#mb57c7ed5d4" y="63.983975"/>
     <use style="fill:#0000ff;stroke:#0000ff;" x="165.939775" xlink:href="#mb57c7ed5d4" y="62.915155"/>
     <use style="fill:#0000ff;stroke:#0000ff;" x="169.95236" xlink:href="#mb57c7ed5d4" y="62.34145"/>
     <use style="fill:#0000ff;stroke:#0000ff;" x="173.964944" xlink:href="#mb57c7ed5d4" y="63.277271"/>
     <use style="fill:#0000ff;stroke:#0000ff;" x="177.977528" xlink:href="#mb57c7ed5d4" y="62.921766"/>
     <use style="fill:#0000ff;stroke:#0000ff;" x="181.990112" xlink:href="#mb57c7ed5d4" y="62.092697"/>
     <use style="fill:#0000ff;stroke:#0000ff;" x="186.002697" xlink:href="#mb57c7ed5d4" y="62.674787"/>
     <use style="fill:#0000ff;stroke:#0000ff;" x="190.015281" xlink:href="#mb57c7ed5d4" y="59.441092"/>
     <use style="fill:#0000ff;stroke:#0000ff;" x="194.027865" xlink:href="#mb57c7ed5d4" y="58.298436"/>
     <use style="fill:#0000ff;stroke:#0000ff;" x="198.040449" xlink:href="#mb57c7ed5d4" y="59.866759"/>
     <use style="fill:#0000ff;stroke:#0000ff;" x="202.053034" xlink:href="#mb57c7ed5d4" y="59.400597"/>
     <use style="fill:#0000ff;stroke:#0000ff;" x="206.065618" xlink:href="#mb57c7ed5d4" y="59.160733"/>
     <use style="fill:#0000ff;stroke:#0000ff;" x="210.078202" xlink:href="#mb57c7ed5d4" y="57.710736"/>
     <use style="fill:#0000ff;stroke:#0000ff;" x="214.090787" xlink:href="#mb57c7ed5d4" y="58.30541"/>
     <use style="fill:#0000ff;stroke:#0000ff;" x="218.103371" xlink:href="#mb57c7ed5d4" y="55.73671"/>
     <use style="fill:#0000ff;stroke:#0000ff;" x="222.115955" xlink:href="#mb57c7ed5d4" y="56.706975"/>
     <use style="fill:#0000ff;stroke:#0000ff;" x="226.128539" xlink:href="#mb57c7ed5d4" y="56.830643"/>
     <use style="fill:#0000ff;stroke:#0000ff;" x="230.141124" xlink:href="#mb57c7ed5d4" y="55.870705"/>
     <use style="fill:#0000ff;stroke:#0000ff;" x="234.153708" xlink:href="#mb57c7ed5d4" y="56.8815"/>
     <use style="fill:#0000ff;stroke:#0000ff;" x="238.166292" xlink:href="#mb57c7ed5d4" y="56.527135"/>
     <use style="fill:#0000ff;stroke:#0000ff;" x="242.178876" xlink:href="#mb57c7ed5d4" y="55.818188"/>
     <use style="fill:#0000ff;stroke:#0000ff;" x="246.191461" xlink:href="#mb57c7ed5d4" y="56.395443"/>
     <use style="fill:#0000ff;stroke:#0000ff;" x="250.204045" xlink:href="#mb57c7ed5d4" y="58.636833"/>
     <use style="fill:#0000ff;stroke:#0000ff;" x="254.216629" xlink:href="#mb57c7ed5d4" y="55.822465"/>
     <use style="fill:#0000ff;stroke:#0000ff;" x="258.229213" xlink:href="#mb57c7ed5d4" y="55.728806"/>
     <use style="fill:#0000ff;stroke:#0000ff;" x="262.241798" xlink:href="#mb57c7ed5d4" y="53.568"/>
     <use style="fill:#0000ff;stroke:#0000ff;" x="266.254382" xlink:href="#mb57c7ed5d4" y="56.018948"/>
     <use style="fill:#0000ff;stroke:#0000ff;" x="270.266966" xlink:href="#mb57c7ed5d4" y="58.134959"/>
     <use style="fill:#0000ff;stroke:#0000ff;" x="274.279551" xlink:href="#mb57c7ed5d4" y="55.21471"/>
     <use style="fill:#0000ff;stroke:#0000ff;" x="278.292135" xlink:href="#mb57c7ed5d4" y="54.841908"/>
     <use style="fill:#0000ff;stroke:#0000ff;" x="282.304719" xlink:href="#mb57c7ed5d4" y="57.663745"/>
     <use style="fill:#0000ff;stroke:#0000ff;" x="286.317303" xlink:href="#mb57c7ed5d4" y="56.80216"/>
     <use style="fill:#0000ff;stroke:#0000ff;" x="290.329888" xlink:href="#mb57c7ed5d4" y="58.230256"/>
     <use style="fill:#0000ff;stroke:#0000ff;" x="294.342472" xlink:href="#mb57c7ed5d4" y="57.679841"/>
     <use style="fill:#0000ff;stroke:#0000ff;" x="298.355056" xlink:href="#mb57c7ed5d4" y="57.778415"/>
     <use style="fill:#0000ff;stroke:#0000ff;" x="302.36764" xlink:href="#mb57c7ed5d4" y="58.396197"/>
     <use style="fill:#0000ff;stroke:#0000ff;" x="306.380225" xlink:href="#mb57c7ed5d4" y="59.642565"/>
     <use style="fill:#0000ff;stroke:#0000ff;" x="310.392809" xlink:href="#mb57c7ed5d4" y="60.282931"/>
     <use style="fill:#0000ff;stroke:#0000ff;" x="314.405393" xlink:href="#mb57c7ed5d4" y="58.491521"/>
     <use style="fill:#0000ff;stroke:#0000ff;" x="318.417978" xlink:href="#mb57c7ed5d4" y="59.426516"/>
     <use style="fill:#0000ff;stroke:#0000ff;" x="322.430562" xlink:href="#mb57c7ed5d4" y="59.424847"/>
     <use style="fill:#0000ff;stroke:#0000ff;" x="326.443146" xlink:href="#mb57c7ed5d4" y="57.799759"/>
     <use style="fill:#0000ff;stroke:#0000ff;" x="330.45573" xlink:href="#mb57c7ed5d4" y="63.495685"/>
     <use style="fill:#0000ff;stroke:#0000ff;" x="334.468315" xlink:href="#mb57c7ed5d4" y="62.572677"/>
     <use style="fill:#0000ff;stroke:#0000ff;" x="338.480899" xlink:href="#mb57c7ed5d4" y="60.7893"/>
     <use style="fill:#0000ff;stroke:#0000ff;" x="342.493483" xlink:href="#mb57c7ed5d4" y="62.412141"/>
     <use style="fill:#0000ff;stroke:#0000ff;" x="346.506067" xlink:href="#mb57c7ed5d4" y="63.118145"/>
     <use style="fill:#0000ff;stroke:#0000ff;" x="350.518652" xlink:href="#mb57c7ed5d4" y="65.619699"/>
     <use style="fill:#0000ff;stroke:#0000ff;" x="354.531236" xlink:href="#mb57c7ed5d4" y="61.454138"/>
     <use style="fill:#0000ff;stroke:#0000ff;" x="358.54382" xlink:href="#mb57c7ed5d4" y="59.865829"/>
     <use style="fill:#0000ff;stroke:#0000ff;" x="362.556404" xlink:href="#mb57c7ed5d4" y="60.944905"/>
     <use style="fill:#0000ff;stroke:#0000ff;" x="366.568989" xlink:href="#mb57c7ed5d4" y="60.015687"/>
     <use style="fill:#0000ff;stroke:#0000ff;" x="370.581573" xlink:href="#mb57c7ed5d4" y="60.220316"/>
     <use style="fill:#0000ff;stroke:#0000ff;" x="374.594157" xlink:href="#mb57c7ed5d4" y="63.615352"/>
     <use style="fill:#0000ff;stroke:#0000ff;" x="378.606742" xlink:href="#mb57c7ed5d4" y="59.946206"/>
     <use style="fill:#0000ff;stroke:#0000ff;" x="382.619326" xlink:href="#mb57c7ed5d4" y="65.827793"/>
     <use style="fill:#0000ff;stroke:#0000ff;" x="386.63191" xlink:href="#mb57c7ed5d4" y="62.018377"/>
     <use style="fill:#0000ff;stroke:#0000ff;" x="390.644494" xlink:href="#mb57c7ed5d4" y="61.885788"/>
     <use style="fill:#0000ff;stroke:#0000ff;" x="394.657079" xlink:href="#mb57c7ed5d4" y="65.172416"/>
     <use style="fill:#0000ff;stroke:#0000ff;" x="398.669663" xlink:href="#mb57c7ed5d4" y="61.741775"/>
     <use style="fill:#0000ff;stroke:#0000ff;" x="402.682247" xlink:href="#mb57c7ed5d4" y="63.517728"/>
     <use style="fill:#0000ff;stroke:#0000ff;" x="406.694831" xlink:href="#mb57c7ed5d4" y="65.613964"/>
     <use style="fill:#0000ff;stroke:#0000ff;" x="410.707416" xlink:href="#mb57c7ed5d4" y="65.779672"/>
    </g>
   </g>
   <g id="line2d_60">
    <path clip-path="url(#pe9ecf29774)" d="M 61.612584 290.454514 
L 65.625169 249.016523 
L 69.637753 219.489698 
L 73.650337 197.124266 
L 77.662921 182.288584 
L 81.675506 166.803828 
L 85.68809 152.565207 
L 89.700674 145.867987 
L 93.713258 136.507613 
L 97.725843 130.706033 
L 101.738427 121.340796 
L 105.751011 116.923129 
L 109.763596 115.18569 
L 113.77618 114.691485 
L 117.788764 113.377664 
L 121.801348 111.908274 
L 125.813933 108.690501 
L 129.826517 111.376637 
L 133.839101 107.211282 
L 137.851685 106.322931 
L 141.86427 103.212517 
L 145.876854 103.6106 
L 149.889438 106.234626 
L 153.902022 102.206351 
L 157.914607 105.842229 
L 161.927191 105.752432 
L 165.939775 99.201331 
L 169.95236 102.834522 
L 173.964944 101.437644 
L 177.977528 97.224796 
L 181.990112 106.175341 
L 186.002697 101.413782 
L 190.015281 101.295235 
L 194.027865 101.776593 
L 198.040449 99.842876 
L 202.053034 104.615704 
L 206.065618 106.715252 
L 210.078202 103.731247 
L 214.090787 101.080318 
L 218.103371 103.050422 
L 222.115955 103.033974 
L 226.128539 107.144413 
L 230.141124 98.195388 
L 234.153708 106.066079 
L 238.166292 103.689485 
L 242.178876 100.802293 
L 246.191461 105.464629 
L 250.204045 107.95942 
L 254.216629 107.820308 
L 258.229213 109.995277 
L 262.241798 109.868741 
L 266.254382 106.466842 
L 270.266966 112.055465 
L 274.279551 105.990624 
L 278.292135 113.424366 
L 282.304719 107.218177 
L 286.317303 108.375159 
L 290.329888 110.380535 
L 294.342472 106.088961 
L 298.355056 113.66994 
L 302.36764 106.278602 
L 306.380225 110.36095 
L 310.392809 110.543278 
L 314.405393 103.571092 
L 318.417978 103.253118 
L 322.430562 111.671537 
L 326.443146 107.295738 
L 330.45573 108.750645 
L 334.468315 109.158562 
L 338.480899 107.630725 
L 342.493483 107.86614 
L 346.506067 106.916152 
L 350.518652 108.443404 
L 354.531236 109.53281 
L 358.54382 106.353263 
L 362.556404 110.832104 
L 366.568989 105.370682 
L 370.581573 106.501251 
L 374.594157 110.323285 
L 378.606742 112.212219 
L 382.619326 104.353604 
L 386.63191 104.549109 
L 390.644494 99.90898 
L 394.657079 112.127733 
L 398.669663 105.809115 
L 402.682247 105.822263 
L 406.694831 103.778204 
L 410.707416 106.256831 
" style="fill:none;stroke:#ff0000;stroke-dasharray:1.5,2.475;stroke-dashoffset:0;stroke-width:1.5;"/>
    <defs>
     <path d="M 0 1.5 
C 0.397805 1.5 0.77937 1.341951 1.06066 1.06066 
C 1.341951 0.77937 1.5 0.397805 1.5 0 
C 1.5 -0.397805 1.341951 -0.77937 1.06066 -1.06066 
C 0.77937 -1.341951 0.397805 -1.5 0 -1.5 
C -0.397805 -1.5 -0.77937 -1.341951 -1.06066 -1.06066 
C -1.341951 -0.77937 -1.5 -0.397805 -1.5 0 
C -1.5 0.397805 -1.341951 0.77937 -1.06066 1.06066 
C -0.77937 1.341951 -0.397805 1.5 0 1.5 
z
" id="me2d9f9a1e2" style="stroke:#ff0000;"/>
    </defs>
    <g clip-path="url(#pe9ecf29774)">
     <use style="fill:#ff0000;stroke:#ff0000;" x="61.612584" xlink:href="#me2d9f9a1e2" y="290.454514"/>
     <use style="fill:#ff0000;stroke:#ff0000;" x="65.625169" xlink:href="#me2d9f9a1e2" y="249.016523"/>
     <use style="fill:#ff0000;stroke:#ff0000;" x="69.637753" xlink:href="#me2d9f9a1e2" y="219.489698"/>
     <use style="fill:#ff0000;stroke:#ff0000;" x="73.650337" xlink:href="#me2d9f9a1e2" y="197.124266"/>
     <use style="fill:#ff0000;stroke:#ff0000;" x="77.662921" xlink:href="#me2d9f9a1e2" y="182.288584"/>
     <use style="fill:#ff0000;stroke:#ff0000;" x="81.675506" xlink:href="#me2d9f9a1e2" y="166.803828"/>
     <use style="fill:#ff0000;stroke:#ff0000;" x="85.68809" xlink:href="#me2d9f9a1e2" y="152.565207"/>
     <use style="fill:#ff0000;stroke:#ff0000;" x="89.700674" xlink:href="#me2d9f9a1e2" y="145.867987"/>
     <use style="fill:#ff0000;stroke:#ff0000;" x="93.713258" xlink:href="#me2d9f9a1e2" y="136.507613"/>
     <use style="fill:#ff0000;stroke:#ff0000;" x="97.725843" xlink:href="#me2d9f9a1e2" y="130.706033"/>
     <use style="fill:#ff0000;stroke:#ff0000;" x="101.738427" xlink:href="#me2d9f9a1e2" y="121.340796"/>
     <use style="fill:#ff0000;stroke:#ff0000;" x="105.751011" xlink:href="#me2d9f9a1e2" y="116.923129"/>
     <use style="fill:#ff0000;stroke:#ff0000;" x="109.763596" xlink:href="#me2d9f9a1e2" y="115.18569"/>
     <use style="fill:#ff0000;stroke:#ff0000;" x="113.77618" xlink:href="#me2d9f9a1e2" y="114.691485"/>
     <use style="fill:#ff0000;stroke:#ff0000;" x="117.788764" xlink:href="#me2d9f9a1e2" y="113.377664"/>
     <use style="fill:#ff0000;stroke:#ff0000;" x="121.801348" xlink:href="#me2d9f9a1e2" y="111.908274"/>
     <use style="fill:#ff0000;stroke:#ff0000;" x="125.813933" xlink:href="#me2d9f9a1e2" y="108.690501"/>
     <use style="fill:#ff0000;stroke:#ff0000;" x="129.826517" xlink:href="#me2d9f9a1e2" y="111.376637"/>
     <use style="fill:#ff0000;stroke:#ff0000;" x="133.839101" xlink:href="#me2d9f9a1e2" y="107.211282"/>
     <use style="fill:#ff0000;stroke:#ff0000;" x="137.851685" xlink:href="#me2d9f9a1e2" y="106.322931"/>
     <use style="fill:#ff0000;stroke:#ff0000;" x="141.86427" xlink:href="#me2d9f9a1e2" y="103.212517"/>
     <use style="fill:#ff0000;stroke:#ff0000;" x="145.876854" xlink:href="#me2d9f9a1e2" y="103.6106"/>
     <use style="fill:#ff0000;stroke:#ff0000;" x="149.889438" xlink:href="#me2d9f9a1e2" y="106.234626"/>
     <use style="fill:#ff0000;stroke:#ff0000;" x="153.902022" xlink:href="#me2d9f9a1e2" y="102.206351"/>
     <use style="fill:#ff0000;stroke:#ff0000;" x="157.914607" xlink:href="#me2d9f9a1e2" y="105.842229"/>
     <use style="fill:#ff0000;stroke:#ff0000;" x="161.927191" xlink:href="#me2d9f9a1e2" y="105.752432"/>
     <use style="fill:#ff0000;stroke:#ff0000;" x="165.939775" xlink:href="#me2d9f9a1e2" y="99.201331"/>
     <use style="fill:#ff0000;stroke:#ff0000;" x="169.95236" xlink:href="#me2d9f9a1e2" y="102.834522"/>
     <use style="fill:#ff0000;stroke:#ff0000;" x="173.964944" xlink:href="#me2d9f9a1e2" y="101.437644"/>
     <use style="fill:#ff0000;stroke:#ff0000;" x="177.977528" xlink:href="#me2d9f9a1e2" y="97.224796"/>
     <use style="fill:#ff0000;stroke:#ff0000;" x="181.990112" xlink:href="#me2d9f9a1e2" y="106.175341"/>
     <use style="fill:#ff0000;stroke:#ff0000;" x="186.002697" xlink:href="#me2d9f9a1e2" y="101.413782"/>
     <use style="fill:#ff0000;stroke:#ff0000;" x="190.015281" xlink:href="#me2d9f9a1e2" y="101.295235"/>
     <use style="fill:#ff0000;stroke:#ff0000;" x="194.027865" xlink:href="#me2d9f9a1e2" y="101.776593"/>
     <use style="fill:#ff0000;stroke:#ff0000;" x="198.040449" xlink:href="#me2d9f9a1e2" y="99.842876"/>
     <use style="fill:#ff0000;stroke:#ff0000;" x="202.053034" xlink:href="#me2d9f9a1e2" y="104.615704"/>
     <use style="fill:#ff0000;stroke:#ff0000;" x="206.065618" xlink:href="#me2d9f9a1e2" y="106.715252"/>
     <use style="fill:#ff0000;stroke:#ff0000;" x="210.078202" xlink:href="#me2d9f9a1e2" y="103.731247"/>
     <use style="fill:#ff0000;stroke:#ff0000;" x="214.090787" xlink:href="#me2d9f9a1e2" y="101.080318"/>
     <use style="fill:#ff0000;stroke:#ff0000;" x="218.103371" xlink:href="#me2d9f9a1e2" y="103.050422"/>
     <use style="fill:#ff0000;stroke:#ff0000;" x="222.115955" xlink:href="#me2d9f9a1e2" y="103.033974"/>
     <use style="fill:#ff0000;stroke:#ff0000;" x="226.128539" xlink:href="#me2d9f9a1e2" y="107.144413"/>
     <use style="fill:#ff0000;stroke:#ff0000;" x="230.141124" xlink:href="#me2d9f9a1e2" y="98.195388"/>
     <use style="fill:#ff0000;stroke:#ff0000;" x="234.153708" xlink:href="#me2d9f9a1e2" y="106.066079"/>
     <use style="fill:#ff0000;stroke:#ff0000;" x="238.166292" xlink:href="#me2d9f9a1e2" y="103.689485"/>
     <use style="fill:#ff0000;stroke:#ff0000;" x="242.178876" xlink:href="#me2d9f9a1e2" y="100.802293"/>
     <use style="fill:#ff0000;stroke:#ff0000;" x="246.191461" xlink:href="#me2d9f9a1e2" y="105.464629"/>
     <use style="fill:#ff0000;stroke:#ff0000;" x="250.204045" xlink:href="#me2d9f9a1e2" y="107.95942"/>
     <use style="fill:#ff0000;stroke:#ff0000;" x="254.216629" xlink:href="#me2d9f9a1e2" y="107.820308"/>
     <use style="fill:#ff0000;stroke:#ff0000;" x="258.229213" xlink:href="#me2d9f9a1e2" y="109.995277"/>
     <use style="fill:#ff0000;stroke:#ff0000;" x="262.241798" xlink:href="#me2d9f9a1e2" y="109.868741"/>
     <use style="fill:#ff0000;stroke:#ff0000;" x="266.254382" xlink:href="#me2d9f9a1e2" y="106.466842"/>
     <use style="fill:#ff0000;stroke:#ff0000;" x="270.266966" xlink:href="#me2d9f9a1e2" y="112.055465"/>
     <use style="fill:#ff0000;stroke:#ff0000;" x="274.279551" xlink:href="#me2d9f9a1e2" y="105.990624"/>
     <use style="fill:#ff0000;stroke:#ff0000;" x="278.292135" xlink:href="#me2d9f9a1e2" y="113.424366"/>
     <use style="fill:#ff0000;stroke:#ff0000;" x="282.304719" xlink:href="#me2d9f9a1e2" y="107.218177"/>
     <use style="fill:#ff0000;stroke:#ff0000;" x="286.317303" xlink:href="#me2d9f9a1e2" y="108.375159"/>
     <use style="fill:#ff0000;stroke:#ff0000;" x="290.329888" xlink:href="#me2d9f9a1e2" y="110.380535"/>
     <use style="fill:#ff0000;stroke:#ff0000;" x="294.342472" xlink:href="#me2d9f9a1e2" y="106.088961"/>
     <use style="fill:#ff0000;stroke:#ff0000;" x="298.355056" xlink:href="#me2d9f9a1e2" y="113.66994"/>
     <use style="fill:#ff0000;stroke:#ff0000;" x="302.36764" xlink:href="#me2d9f9a1e2" y="106.278602"/>
     <use style="fill:#ff0000;stroke:#ff0000;" x="306.380225" xlink:href="#me2d9f9a1e2" y="110.36095"/>
     <use style="fill:#ff0000;stroke:#ff0000;" x="310.392809" xlink:href="#me2d9f9a1e2" y="110.543278"/>
     <use style="fill:#ff0000;stroke:#ff0000;" x="314.405393" xlink:href="#me2d9f9a1e2" y="103.571092"/>
     <use style="fill:#ff0000;stroke:#ff0000;" x="318.417978" xlink:href="#me2d9f9a1e2" y="103.253118"/>
     <use style="fill:#ff0000;stroke:#ff0000;" x="322.430562" xlink:href="#me2d9f9a1e2" y="111.671537"/>
     <use style="fill:#ff0000;stroke:#ff0000;" x="326.443146" xlink:href="#me2d9f9a1e2" y="107.295738"/>
     <use style="fill:#ff0000;stroke:#ff0000;" x="330.45573" xlink:href="#me2d9f9a1e2" y="108.750645"/>
     <use style="fill:#ff0000;stroke:#ff0000;" x="334.468315" xlink:href="#me2d9f9a1e2" y="109.158562"/>
     <use style="fill:#ff0000;stroke:#ff0000;" x="338.480899" xlink:href="#me2d9f9a1e2" y="107.630725"/>
     <use style="fill:#ff0000;stroke:#ff0000;" x="342.493483" xlink:href="#me2d9f9a1e2" y="107.86614"/>
     <use style="fill:#ff0000;stroke:#ff0000;" x="346.506067" xlink:href="#me2d9f9a1e2" y="106.916152"/>
     <use style="fill:#ff0000;stroke:#ff0000;" x="350.518652" xlink:href="#me2d9f9a1e2" y="108.443404"/>
     <use style="fill:#ff0000;stroke:#ff0000;" x="354.531236" xlink:href="#me2d9f9a1e2" y="109.53281"/>
     <use style="fill:#ff0000;stroke:#ff0000;" x="358.54382" xlink:href="#me2d9f9a1e2" y="106.353263"/>
     <use style="fill:#ff0000;stroke:#ff0000;" x="362.556404" xlink:href="#me2d9f9a1e2" y="110.832104"/>
     <use style="fill:#ff0000;stroke:#ff0000;" x="366.568989" xlink:href="#me2d9f9a1e2" y="105.370682"/>
     <use style="fill:#ff0000;stroke:#ff0000;" x="370.581573" xlink:href="#me2d9f9a1e2" y="106.501251"/>
     <use style="fill:#ff0000;stroke:#ff0000;" x="374.594157" xlink:href="#me2d9f9a1e2" y="110.323285"/>
     <use style="fill:#ff0000;stroke:#ff0000;" x="378.606742" xlink:href="#me2d9f9a1e2" y="112.212219"/>
     <use style="fill:#ff0000;stroke:#ff0000;" x="382.619326" xlink:href="#me2d9f9a1e2" y="104.353604"/>
     <use style="fill:#ff0000;stroke:#ff0000;" x="386.63191" xlink:href="#me2d9f9a1e2" y="104.549109"/>
     <use style="fill:#ff0000;stroke:#ff0000;" x="390.644494" xlink:href="#me2d9f9a1e2" y="99.90898"/>
     <use style="fill:#ff0000;stroke:#ff0000;" x="394.657079" xlink:href="#me2d9f9a1e2" y="112.127733"/>
     <use style="fill:#ff0000;stroke:#ff0000;" x="398.669663" xlink:href="#me2d9f9a1e2" y="105.809115"/>
     <use style="fill:#ff0000;stroke:#ff0000;" x="402.682247" xlink:href="#me2d9f9a1e2" y="105.822263"/>
     <use style="fill:#ff0000;stroke:#ff0000;" x="406.694831" xlink:href="#me2d9f9a1e2" y="103.778204"/>
     <use style="fill:#ff0000;stroke:#ff0000;" x="410.707416" xlink:href="#me2d9f9a1e2" y="106.256831"/>
    </g>
   </g>
   <g id="line2d_61">
    <path clip-path="url(#pe9ecf29774)" d="M 61.612584 292.971257 
L 65.625169 252.848801 
L 69.637753 223.73891 
L 73.650337 201.033739 
L 77.662921 184.286958 
L 81.675506 167.864961 
L 85.68809 152.037471 
L 89.700674 142.372546 
L 93.713258 132.8611 
L 97.725843 124.453463 
L 101.738427 114.124745 
L 105.751011 108.50343 
L 109.763596 106.526617 
L 113.77618 101.687236 
L 117.788764 100.039593 
L 121.801348 98.100933 
L 125.813933 94.569201 
L 129.826517 95.334849 
L 133.839101 91.839276 
L 137.851685 90.555891 
L 141.86427 86.733902 
L 145.876854 85.700062 
L 149.889438 86.949784 
L 153.902022 84.817004 
L 157.914607 85.89202 
L 161.927191 84.868203 
L 165.939775 81.058243 
L 169.95236 82.587986 
L 173.964944 82.357458 
L 177.977528 80.073281 
L 181.990112 84.134019 
L 186.002697 82.044284 
L 190.015281 80.368164 
L 194.027865 80.037514 
L 198.040449 79.854817 
L 202.053034 82.008151 
L 206.065618 82.937992 
L 210.078202 80.720991 
L 214.090787 79.692864 
L 218.103371 79.393566 
L 222.115955 79.870474 
L 226.128539 81.987528 
L 230.141124 77.033046 
L 234.153708 81.473789 
L 238.166292 80.10831 
L 242.178876 78.31024 
L 246.191461 80.930036 
L 250.204045 83.298126 
L 254.216629 81.821386 
L 258.229213 82.862042 
L 262.241798 81.71837 
L 266.254382 81.242895 
L 270.266966 85.095212 
L 274.279551 80.602667 
L 278.292135 84.133137 
L 282.304719 82.440961 
L 286.317303 82.58866 
L 290.329888 84.305396 
L 294.342472 81.884401 
L 298.355056 85.724177 
L 302.36764 82.337399 
L 306.380225 85.001757 
L 310.392809 85.413105 
L 314.405393 81.031307 
L 318.417978 81.339817 
L 322.430562 85.548192 
L 326.443146 82.547749 
L 330.45573 86.123165 
L 334.468315 85.86562 
L 338.480899 84.210013 
L 342.493483 85.13914 
L 346.506067 85.017149 
L 350.518652 87.031552 
L 354.531236 85.493474 
L 358.54382 83.109546 
L 362.556404 85.888505 
L 366.568989 82.693184 
L 370.581573 83.360783 
L 374.594157 86.969318 
L 378.606742 86.079212 
L 382.619326 85.090699 
L 386.63191 83.283743 
L 390.644494 80.897384 
L 394.657079 88.650074 
L 398.669663 83.775445 
L 402.682247 84.669995 
L 406.694831 84.696084 
L 410.707416 86.018252 
" style="fill:none;stroke:#008000;stroke-dasharray:1.5,2.475;stroke-dashoffset:0;stroke-width:1.5;"/>
    <defs>
     <path d="M 0 1.5 
C 0.397805 1.5 0.77937 1.341951 1.06066 1.06066 
C 1.341951 0.77937 1.5 0.397805 1.5 0 
C 1.5 -0.397805 1.341951 -0.77937 1.06066 -1.06066 
C 0.77937 -1.341951 0.397805 -1.5 0 -1.5 
C -0.397805 -1.5 -0.77937 -1.341951 -1.06066 -1.06066 
C -1.341951 -0.77937 -1.5 -0.397805 -1.5 0 
C -1.5 0.397805 -1.341951 0.77937 -1.06066 1.06066 
C -0.77937 1.341951 -0.397805 1.5 0 1.5 
z
" id="mb3669bfe23" style="stroke:#008000;"/>
    </defs>
    <g clip-path="url(#pe9ecf29774)">
     <use style="fill:#008000;stroke:#008000;" x="61.612584" xlink:href="#mb3669bfe23" y="292.971257"/>
     <use style="fill:#008000;stroke:#008000;" x="65.625169" xlink:href="#mb3669bfe23" y="252.848801"/>
     <use style="fill:#008000;stroke:#008000;" x="69.637753" xlink:href="#mb3669bfe23" y="223.73891"/>
     <use style="fill:#008000;stroke:#008000;" x="73.650337" xlink:href="#mb3669bfe23" y="201.033739"/>
     <use style="fill:#008000;stroke:#008000;" x="77.662921" xlink:href="#mb3669bfe23" y="184.286958"/>
     <use style="fill:#008000;stroke:#008000;" x="81.675506" xlink:href="#mb3669bfe23" y="167.864961"/>
     <use style="fill:#008000;stroke:#008000;" x="85.68809" xlink:href="#mb3669bfe23" y="152.037471"/>
     <use style="fill:#008000;stroke:#008000;" x="89.700674" xlink:href="#mb3669bfe23" y="142.372546"/>
     <use style="fill:#008000;stroke:#008000;" x="93.713258" xlink:href="#mb3669bfe23" y="132.8611"/>
     <use style="fill:#008000;stroke:#008000;" x="97.725843" xlink:href="#mb3669bfe23" y="124.453463"/>
     <use style="fill:#008000;stroke:#008000;" x="101.738427" xlink:href="#mb3669bfe23" y="114.124745"/>
     <use style="fill:#008000;stroke:#008000;" x="105.751011" xlink:href="#mb3669bfe23" y="108.50343"/>
     <use style="fill:#008000;stroke:#008000;" x="109.763596" xlink:href="#mb3669bfe23" y="106.526617"/>
     <use style="fill:#008000;stroke:#008000;" x="113.77618" xlink:href="#mb3669bfe23" y="101.687236"/>
     <use style="fill:#008000;stroke:#008000;" x="117.788764" xlink:href="#mb3669bfe23" y="100.039593"/>
     <use style="fill:#008000;stroke:#008000;" x="121.801348" xlink:href="#mb3669bfe23" y="98.100933"/>
     <use style="fill:#008000;stroke:#008000;" x="125.813933" xlink:href="#mb3669bfe23" y="94.569201"/>
     <use style="fill:#008000;stroke:#008000;" x="129.826517" xlink:href="#mb3669bfe23" y="95.334849"/>
     <use style="fill:#008000;stroke:#008000;" x="133.839101" xlink:href="#mb3669bfe23" y="91.839276"/>
     <use style="fill:#008000;stroke:#008000;" x="137.851685" xlink:href="#mb3669bfe23" y="90.555891"/>
     <use style="fill:#008000;stroke:#008000;" x="141.86427" xlink:href="#mb3669bfe23" y="86.733902"/>
     <use style="fill:#008000;stroke:#008000;" x="145.876854" xlink:href="#mb3669bfe23" y="85.700062"/>
     <use style="fill:#008000;stroke:#008000;" x="149.889438" xlink:href="#mb3669bfe23" y="86.949784"/>
     <use style="fill:#008000;stroke:#008000;" x="153.902022" xlink:href="#mb3669bfe23" y="84.817004"/>
     <use style="fill:#008000;stroke:#008000;" x="157.914607" xlink:href="#mb3669bfe23" y="85.89202"/>
     <use style="fill:#008000;stroke:#008000;" x="161.927191" xlink:href="#mb3669bfe23" y="84.868203"/>
     <use style="fill:#008000;stroke:#008000;" x="165.939775" xlink:href="#mb3669bfe23" y="81.058243"/>
     <use style="fill:#008000;stroke:#008000;" x="169.95236" xlink:href="#mb3669bfe23" y="82.587986"/>
     <use style="fill:#008000;stroke:#008000;" x="173.964944" xlink:href="#mb3669bfe23" y="82.357458"/>
     <use style="fill:#008000;stroke:#008000;" x="177.977528" xlink:href="#mb3669bfe23" y="80.073281"/>
     <use style="fill:#008000;stroke:#008000;" x="181.990112" xlink:href="#mb3669bfe23" y="84.134019"/>
     <use style="fill:#008000;stroke:#008000;" x="186.002697" xlink:href="#mb3669bfe23" y="82.044284"/>
     <use style="fill:#008000;stroke:#008000;" x="190.015281" xlink:href="#mb3669bfe23" y="80.368164"/>
     <use style="fill:#008000;stroke:#008000;" x="194.027865" xlink:href="#mb3669bfe23" y="80.037514"/>
     <use style="fill:#008000;stroke:#008000;" x="198.040449" xlink:href="#mb3669bfe23" y="79.854817"/>
     <use style="fill:#008000;stroke:#008000;" x="202.053034" xlink:href="#mb3669bfe23" y="82.008151"/>
     <use style="fill:#008000;stroke:#008000;" x="206.065618" xlink:href="#mb3669bfe23" y="82.937992"/>
     <use style="fill:#008000;stroke:#008000;" x="210.078202" xlink:href="#mb3669bfe23" y="80.720991"/>
     <use style="fill:#008000;stroke:#008000;" x="214.090787" xlink:href="#mb3669bfe23" y="79.692864"/>
     <use style="fill:#008000;stroke:#008000;" x="218.103371" xlink:href="#mb3669bfe23" y="79.393566"/>
     <use style="fill:#008000;stroke:#008000;" x="222.115955" xlink:href="#mb3669bfe23" y="79.870474"/>
     <use style="fill:#008000;stroke:#008000;" x="226.128539" xlink:href="#mb3669bfe23" y="81.987528"/>
     <use style="fill:#008000;stroke:#008000;" x="230.141124" xlink:href="#mb3669bfe23" y="77.033046"/>
     <use style="fill:#008000;stroke:#008000;" x="234.153708" xlink:href="#mb3669bfe23" y="81.473789"/>
     <use style="fill:#008000;stroke:#008000;" x="238.166292" xlink:href="#mb3669bfe23" y="80.10831"/>
     <use style="fill:#008000;stroke:#008000;" x="242.178876" xlink:href="#mb3669bfe23" y="78.31024"/>
     <use style="fill:#008000;stroke:#008000;" x="246.191461" xlink:href="#mb3669bfe23" y="80.930036"/>
     <use style="fill:#008000;stroke:#008000;" x="250.204045" xlink:href="#mb3669bfe23" y="83.298126"/>
     <use style="fill:#008000;stroke:#008000;" x="254.216629" xlink:href="#mb3669bfe23" y="81.821386"/>
     <use style="fill:#008000;stroke:#008000;" x="258.229213" xlink:href="#mb3669bfe23" y="82.862042"/>
     <use style="fill:#008000;stroke:#008000;" x="262.241798" xlink:href="#mb3669bfe23" y="81.71837"/>
     <use style="fill:#008000;stroke:#008000;" x="266.254382" xlink:href="#mb3669bfe23" y="81.242895"/>
     <use style="fill:#008000;stroke:#008000;" x="270.266966" xlink:href="#mb3669bfe23" y="85.095212"/>
     <use style="fill:#008000;stroke:#008000;" x="274.279551" xlink:href="#mb3669bfe23" y="80.602667"/>
     <use style="fill:#008000;stroke:#008000;" x="278.292135" xlink:href="#mb3669bfe23" y="84.133137"/>
     <use style="fill:#008000;stroke:#008000;" x="282.304719" xlink:href="#mb3669bfe23" y="82.440961"/>
     <use style="fill:#008000;stroke:#008000;" x="286.317303" xlink:href="#mb3669bfe23" y="82.58866"/>
     <use style="fill:#008000;stroke:#008000;" x="290.329888" xlink:href="#mb3669bfe23" y="84.305396"/>
     <use style="fill:#008000;stroke:#008000;" x="294.342472" xlink:href="#mb3669bfe23" y="81.884401"/>
     <use style="fill:#008000;stroke:#008000;" x="298.355056" xlink:href="#mb3669bfe23" y="85.724177"/>
     <use style="fill:#008000;stroke:#008000;" x="302.36764" xlink:href="#mb3669bfe23" y="82.337399"/>
     <use style="fill:#008000;stroke:#008000;" x="306.380225" xlink:href="#mb3669bfe23" y="85.001757"/>
     <use style="fill:#008000;stroke:#008000;" x="310.392809" xlink:href="#mb3669bfe23" y="85.413105"/>
     <use style="fill:#008000;stroke:#008000;" x="314.405393" xlink:href="#mb3669bfe23" y="81.031307"/>
     <use style="fill:#008000;stroke:#008000;" x="318.417978" xlink:href="#mb3669bfe23" y="81.339817"/>
     <use style="fill:#008000;stroke:#008000;" x="322.430562" xlink:href="#mb3669bfe23" y="85.548192"/>
     <use style="fill:#008000;stroke:#008000;" x="326.443146" xlink:href="#mb3669bfe23" y="82.547749"/>
     <use style="fill:#008000;stroke:#008000;" x="330.45573" xlink:href="#mb3669bfe23" y="86.123165"/>
     <use style="fill:#008000;stroke:#008000;" x="334.468315" xlink:href="#mb3669bfe23" y="85.86562"/>
     <use style="fill:#008000;stroke:#008000;" x="338.480899" xlink:href="#mb3669bfe23" y="84.210013"/>
     <use style="fill:#008000;stroke:#008000;" x="342.493483" xlink:href="#mb3669bfe23" y="85.13914"/>
     <use style="fill:#008000;stroke:#008000;" x="346.506067" xlink:href="#mb3669bfe23" y="85.017149"/>
     <use style="fill:#008000;stroke:#008000;" x="350.518652" xlink:href="#mb3669bfe23" y="87.031552"/>
     <use style="fill:#008000;stroke:#008000;" x="354.531236" xlink:href="#mb3669bfe23" y="85.493474"/>
     <use style="fill:#008000;stroke:#008000;" x="358.54382" xlink:href="#mb3669bfe23" y="83.109546"/>
     <use style="fill:#008000;stroke:#008000;" x="362.556404" xlink:href="#mb3669bfe23" y="85.888505"/>
     <use style="fill:#008000;stroke:#008000;" x="366.568989" xlink:href="#mb3669bfe23" y="82.693184"/>
     <use style="fill:#008000;stroke:#008000;" x="370.581573" xlink:href="#mb3669bfe23" y="83.360783"/>
     <use style="fill:#008000;stroke:#008000;" x="374.594157" xlink:href="#mb3669bfe23" y="86.969318"/>
     <use style="fill:#008000;stroke:#008000;" x="378.606742" xlink:href="#mb3669bfe23" y="86.079212"/>
     <use style="fill:#008000;stroke:#008000;" x="382.619326" xlink:href="#mb3669bfe23" y="85.090699"/>
     <use style="fill:#008000;stroke:#008000;" x="386.63191" xlink:href="#mb3669bfe23" y="83.283743"/>
     <use style="fill:#008000;stroke:#008000;" x="390.644494" xlink:href="#mb3669bfe23" y="80.897384"/>
     <use style="fill:#008000;stroke:#008000;" x="394.657079" xlink:href="#mb3669bfe23" y="88.650074"/>
     <use style="fill:#008000;stroke:#008000;" x="398.669663" xlink:href="#mb3669bfe23" y="83.775445"/>
     <use style="fill:#008000;stroke:#008000;" x="402.682247" xlink:href="#mb3669bfe23" y="84.669995"/>
     <use style="fill:#008000;stroke:#008000;" x="406.694831" xlink:href="#mb3669bfe23" y="84.696084"/>
     <use style="fill:#008000;stroke:#008000;" x="410.707416" xlink:href="#mb3669bfe23" y="86.018252"/>
    </g>
   </g>
   <g id="patch_3">
    <path d="M 57.6 307.584 
L 57.6 41.472 
" style="fill:none;stroke:#000000;stroke-linecap:square;stroke-linejoin:miter;stroke-width:0.8;"/>
   </g>
   <g id="patch_4">
    <path d="M 414.72 307.584 
L 414.72 41.472 
" style="fill:none;stroke:#000000;stroke-linecap:square;stroke-linejoin:miter;stroke-width:0.8;"/>
   </g>
   <g id="patch_5">
    <path d="M 57.6 307.584 
L 414.72 307.584 
" style="fill:none;stroke:#000000;stroke-linecap:square;stroke-linejoin:miter;stroke-width:0.8;"/>
   </g>
   <g id="patch_6">
    <path d="M 57.6 41.472 
L 414.72 41.472 
" style="fill:none;stroke:#000000;stroke-linecap:square;stroke-linejoin:miter;stroke-width:0.8;"/>
   </g>
   <g id="text_32">
    <!-- tbb::parallel_sort O3 OMP AVX2 on pre_transpose18 -->
    <defs>
     <path d="M 48.6875 27.296875 
Q 48.6875 37.203125 44.609375 42.84375 
Q 40.53125 48.484375 33.40625 48.484375 
Q 26.265625 48.484375 22.1875 42.84375 
Q 18.109375 37.203125 18.109375 27.296875 
Q 18.109375 17.390625 22.1875 11.75 
Q 26.265625 6.109375 33.40625 6.109375 
Q 40.53125 6.109375 44.609375 11.75 
Q 48.6875 17.390625 48.6875 27.296875 
z
M 18.109375 46.390625 
Q 20.953125 51.265625 25.265625 53.625 
Q 29.59375 56 35.59375 56 
Q 45.5625 56 51.78125 48.09375 
Q 58.015625 40.1875 58.015625 27.296875 
Q 58.015625 14.40625 51.78125 6.484375 
Q 45.5625 -1.421875 35.59375 -1.421875 
Q 29.59375 -1.421875 25.265625 0.953125 
Q 20.953125 3.328125 18.109375 8.203125 
L 18.109375 0 
L 9.078125 0 
L 9.078125 75.984375 
L 18.109375 75.984375 
z
" id="DejaVuSans-98"/>
     <path d="M 11.71875 12.40625 
L 22.015625 12.40625 
L 22.015625 0 
L 11.71875 0 
z
M 11.71875 51.703125 
L 22.015625 51.703125 
L 22.015625 39.3125 
L 11.71875 39.3125 
z
" id="DejaVuSans-58"/>
     <path d="M 9.421875 75.984375 
L 18.40625 75.984375 
L 18.40625 0 
L 9.421875 0 
z
" id="DejaVuSans-108"/>
     <path d="M 50.984375 -16.609375 
L 50.984375 -23.578125 
L -0.984375 -23.578125 
L -0.984375 -16.609375 
z
" id="DejaVuSans-95"/>
     <path d="M 30.609375 48.390625 
Q 23.390625 48.390625 19.1875 42.75 
Q 14.984375 37.109375 14.984375 27.296875 
Q 14.984375 17.484375 19.15625 11.84375 
Q 23.34375 6.203125 30.609375 6.203125 
Q 37.796875 6.203125 41.984375 11.859375 
Q 46.1875 17.53125 46.1875 27.296875 
Q 46.1875 37.015625 41.984375 42.703125 
Q 37.796875 48.390625 30.609375 48.390625 
z
M 30.609375 56 
Q 42.328125 56 49.015625 48.375 
Q 55.71875 40.765625 55.71875 27.296875 
Q 55.71875 13.875 49.015625 6.21875 
Q 42.328125 -1.421875 30.609375 -1.421875 
Q 18.84375 -1.421875 12.171875 6.21875 
Q 5.515625 13.875 5.515625 27.296875 
Q 5.515625 40.765625 12.171875 48.375 
Q 18.84375 56 30.609375 56 
z
" id="DejaVuSans-111"/>
     <path d="M 39.40625 66.21875 
Q 28.65625 66.21875 22.328125 58.203125 
Q 16.015625 50.203125 16.015625 36.375 
Q 16.015625 22.609375 22.328125 14.59375 
Q 28.65625 6.59375 39.40625 6.59375 
Q 50.140625 6.59375 56.421875 14.59375 
Q 62.703125 22.609375 62.703125 36.375 
Q 62.703125 50.203125 56.421875 58.203125 
Q 50.140625 66.21875 39.40625 66.21875 
z
M 39.40625 74.21875 
Q 54.734375 74.21875 63.90625 63.9375 
Q 73.09375 53.65625 73.09375 36.375 
Q 73.09375 19.140625 63.90625 8.859375 
Q 54.734375 -1.421875 39.40625 -1.421875 
Q 24.03125 -1.421875 14.8125 8.828125 
Q 5.609375 19.09375 5.609375 36.375 
Q 5.609375 53.65625 14.8125 63.9375 
Q 24.03125 74.21875 39.40625 74.21875 
z
" id="DejaVuSans-79"/>
     <path d="M 9.8125 72.90625 
L 24.515625 72.90625 
L 43.109375 23.296875 
L 61.8125 72.90625 
L 76.515625 72.90625 
L 76.515625 0 
L 66.890625 0 
L 66.890625 64.015625 
L 48.09375 14.015625 
L 38.1875 14.015625 
L 19.390625 64.015625 
L 19.390625 0 
L 9.8125 0 
z
" id="DejaVuSans-77"/>
     <path d="M 19.671875 64.796875 
L 19.671875 37.40625 
L 32.078125 37.40625 
Q 38.96875 37.40625 42.71875 40.96875 
Q 46.484375 44.53125 46.484375 51.125 
Q 46.484375 57.671875 42.71875 61.234375 
Q 38.96875 64.796875 32.078125 64.796875 
z
M 9.8125 72.90625 
L 32.078125 72.90625 
Q 44.34375 72.90625 50.609375 67.359375 
Q 56.890625 61.8125 56.890625 51.125 
Q 56.890625 40.328125 50.609375 34.8125 
Q 44.34375 29.296875 32.078125 29.296875 
L 19.671875 29.296875 
L 19.671875 0 
L 9.8125 0 
z
" id="DejaVuSans-80"/>
     <path d="M 34.1875 63.1875 
L 20.796875 26.90625 
L 47.609375 26.90625 
z
M 28.609375 72.90625 
L 39.796875 72.90625 
L 67.578125 0 
L 57.328125 0 
L 50.6875 18.703125 
L 17.828125 18.703125 
L 11.1875 0 
L 0.78125 0 
z
" id="DejaVuSans-65"/>
     <path d="M 28.609375 0 
L 0.78125 72.90625 
L 11.078125 72.90625 
L 34.1875 11.53125 
L 57.328125 72.90625 
L 67.578125 72.90625 
L 39.796875 0 
z
" id="DejaVuSans-86"/>
     <path d="M 6.296875 72.90625 
L 16.890625 72.90625 
L 35.015625 45.796875 
L 53.21875 72.90625 
L 63.8125 72.90625 
L 40.375 37.890625 
L 65.375 0 
L 54.78125 0 
L 34.28125 31 
L 13.625 0 
L 2.984375 0 
L 29 38.921875 
z
" id="DejaVuSans-88"/>
     <path d="M 54.890625 33.015625 
L 54.890625 0 
L 45.90625 0 
L 45.90625 32.71875 
Q 45.90625 40.484375 42.875 44.328125 
Q 39.84375 48.1875 33.796875 48.1875 
Q 26.515625 48.1875 22.3125 43.546875 
Q 18.109375 38.921875 18.109375 30.90625 
L 18.109375 0 
L 9.078125 0 
L 9.078125 54.6875 
L 18.109375 54.6875 
L 18.109375 46.1875 
Q 21.34375 51.125 25.703125 53.5625 
Q 30.078125 56 35.796875 56 
Q 45.21875 56 50.046875 50.171875 
Q 54.890625 44.34375 54.890625 33.015625 
z
" id="DejaVuSans-110"/>
    </defs>
    <g transform="translate(80.200312 35.472)scale(0.12 -0.12)">
     <use xlink:href="#DejaVuSans-116"/>
     <use x="39.208984" xlink:href="#DejaVuSans-98"/>
     <use x="102.685547" xlink:href="#DejaVuSans-98"/>
     <use x="166.162109" xlink:href="#DejaVuSans-58"/>
     <use x="199.853516" xlink:href="#DejaVuSans-58"/>
     <use x="233.544922" xlink:href="#DejaVuSans-112"/>
     <use x="297.021484" xlink:href="#DejaVuSans-97"/>
     <use x="358.300781" xlink:href="#DejaVuSans-114"/>
     <use x="399.414062" xlink:href="#DejaVuSans-97"/>
     <use x="460.693359" xlink:href="#DejaVuSans-108"/>
     <use x="488.476562" xlink:href="#DejaVuSans-108"/>
     <use x="516.259766" xlink:href="#DejaVuSans-101"/>
     <use x="577.783203" xlink:href="#DejaVuSans-108"/>
     <use x="605.566406" xlink:href="#DejaVuSans-95"/>
     <use x="655.566406" xlink:href="#DejaVuSans-115"/>
     <use x="707.666016" xlink:href="#DejaVuSans-111"/>
     <use x="768.847656" xlink:href="#DejaVuSans-114"/>
     <use x="809.960938" xlink:href="#DejaVuSans-116"/>
     <use x="849.169922" xlink:href="#DejaVuSans-32"/>
     <use x="880.957031" xlink:href="#DejaVuSans-79"/>
     <use x="959.667969" xlink:href="#DejaVuSans-51"/>
     <use x="1023.291016" xlink:href="#DejaVuSans-32"/>
     <use x="1055.078125" xlink:href="#DejaVuSans-79"/>
     <use x="1133.789062" xlink:href="#DejaVuSans-77"/>
     <use x="1220.068359" xlink:href="#DejaVuSans-80"/>
     <use x="1280.371094" xlink:href="#DejaVuSans-32"/>
     <use x="1312.158203" xlink:href="#DejaVuSans-65"/>
     <use x="1374.191406" xlink:href="#DejaVuSans-86"/>
     <use x="1442.599609" xlink:href="#DejaVuSans-88"/>
     <use x="1511.105469" xlink:href="#DejaVuSans-50"/>
     <use x="1574.728516" xlink:href="#DejaVuSans-32"/>
     <use x="1606.515625" xlink:href="#DejaVuSans-111"/>
     <use x="1667.697266" xlink:href="#DejaVuSans-110"/>
     <use x="1731.076172" xlink:href="#DejaVuSans-32"/>
     <use x="1762.863281" xlink:href="#DejaVuSans-112"/>
     <use x="1826.339844" xlink:href="#DejaVuSans-114"/>
     <use x="1865.203125" xlink:href="#DejaVuSans-101"/>
     <use x="1926.726562" xlink:href="#DejaVuSans-95"/>
     <use x="1976.726562" xlink:href="#DejaVuSans-116"/>
     <use x="2015.935547" xlink:href="#DejaVuSans-114"/>
     <use x="2057.048828" xlink:href="#DejaVuSans-97"/>
     <use x="2118.328125" xlink:href="#DejaVuSans-110"/>
     <use x="2181.707031" xlink:href="#DejaVuSans-115"/>
     <use x="2233.806641" xlink:href="#DejaVuSans-112"/>
     <use x="2297.283203" xlink:href="#DejaVuSans-111"/>
     <use x="2358.464844" xlink:href="#DejaVuSans-115"/>
     <use x="2410.564453" xlink:href="#DejaVuSans-101"/>
     <use x="2472.087891" xlink:href="#DejaVuSans-49"/>
     <use x="2535.710938" xlink:href="#DejaVuSans-56"/>
    </g>
   </g>
   <g id="legend_1">
    <g id="patch_7">
     <path d="M 313.152813 302.584 
L 407.72 302.584 
Q 409.72 302.584 409.72 300.584 
L 409.72 257.2715 
Q 409.72 255.2715 407.72 255.2715 
L 313.152813 255.2715 
Q 311.152813 255.2715 311.152813 257.2715 
L 311.152813 300.584 
Q 311.152813 302.584 313.152813 302.584 
z
" style="fill:#ffffff;opacity:0.8;stroke:#cccccc;stroke-linejoin:miter;"/>
    </g>
    <g id="line2d_62">
     <path d="M 315.152813 263.369937 
L 335.152813 263.369937 
" style="fill:none;stroke:#0000ff;stroke-dasharray:1.5,2.475;stroke-dashoffset:0;stroke-width:1.5;"/>
    </g>
    <g id="line2d_63">
     <g>
      <use style="fill:#0000ff;stroke:#0000ff;" x="325.152813" xlink:href="#mb57c7ed5d4" y="263.369937"/>
     </g>
    </g>
    <g id="text_33">
     <!-- transpose -->
     <g transform="translate(343.152813 266.869937)scale(0.1 -0.1)">
      <use xlink:href="#DejaVuSans-116"/>
      <use x="39.208984" xlink:href="#DejaVuSans-114"/>
      <use x="80.322266" xlink:href="#DejaVuSans-97"/>
      <use x="141.601562" xlink:href="#DejaVuSans-110"/>
      <use x="204.980469" xlink:href="#DejaVuSans-115"/>
      <use x="257.080078" xlink:href="#DejaVuSans-112"/>
      <use x="320.556641" xlink:href="#DejaVuSans-111"/>
      <use x="381.738281" xlink:href="#DejaVuSans-115"/>
      <use x="433.837891" xlink:href="#DejaVuSans-101"/>
     </g>
    </g>
    <g id="line2d_64">
     <path d="M 315.152813 278.048063 
L 335.152813 278.048063 
" style="fill:none;stroke:#ff0000;stroke-dasharray:1.5,2.475;stroke-dashoffset:0;stroke-width:1.5;"/>
    </g>
    <g id="line2d_65">
     <g>
      <use style="fill:#ff0000;stroke:#ff0000;" x="325.152813" xlink:href="#me2d9f9a1e2" y="278.048063"/>
     </g>
    </g>
    <g id="text_34">
     <!-- transpose_tr -->
     <g transform="translate(343.152813 281.548063)scale(0.1 -0.1)">
      <use xlink:href="#DejaVuSans-116"/>
      <use x="39.208984" xlink:href="#DejaVuSans-114"/>
      <use x="80.322266" xlink:href="#DejaVuSans-97"/>
      <use x="141.601562" xlink:href="#DejaVuSans-110"/>
      <use x="204.980469" xlink:href="#DejaVuSans-115"/>
      <use x="257.080078" xlink:href="#DejaVuSans-112"/>
      <use x="320.556641" xlink:href="#DejaVuSans-111"/>
      <use x="381.738281" xlink:href="#DejaVuSans-115"/>
      <use x="433.837891" xlink:href="#DejaVuSans-101"/>
      <use x="495.361328" xlink:href="#DejaVuSans-95"/>
      <use x="545.361328" xlink:href="#DejaVuSans-116"/>
      <use x="584.570312" xlink:href="#DejaVuSans-114"/>
     </g>
    </g>
    <g id="line2d_66">
     <path d="M 315.152813 293.004312 
L 335.152813 293.004312 
" style="fill:none;stroke:#008000;stroke-dasharray:1.5,2.475;stroke-dashoffset:0;stroke-width:1.5;"/>
    </g>
    <g id="line2d_67">
     <g>
      <use style="fill:#008000;stroke:#008000;" x="325.152813" xlink:href="#mb3669bfe23" y="293.004312"/>
     </g>
    </g>
    <g id="text_35">
     <!-- mean -->
     <defs>
      <path d="M 52 44.1875 
Q 55.375 50.25 60.0625 53.125 
Q 64.75 56 71.09375 56 
Q 79.640625 56 84.28125 50.015625 
Q 88.921875 44.046875 88.921875 33.015625 
L 88.921875 0 
L 79.890625 0 
L 79.890625 32.71875 
Q 79.890625 40.578125 77.09375 44.375 
Q 74.3125 48.1875 68.609375 48.1875 
Q 61.625 48.1875 57.5625 43.546875 
Q 53.515625 38.921875 53.515625 30.90625 
L 53.515625 0 
L 44.484375 0 
L 44.484375 32.71875 
Q 44.484375 40.625 41.703125 44.40625 
Q 38.921875 48.1875 33.109375 48.1875 
Q 26.21875 48.1875 22.15625 43.53125 
Q 18.109375 38.875 18.109375 30.90625 
L 18.109375 0 
L 9.078125 0 
L 9.078125 54.6875 
L 18.109375 54.6875 
L 18.109375 46.1875 
Q 21.1875 51.21875 25.484375 53.609375 
Q 29.78125 56 35.6875 56 
Q 41.65625 56 45.828125 52.96875 
Q 50 49.953125 52 44.1875 
z
" id="DejaVuSans-109"/>
     </defs>
     <g transform="translate(343.152813 296.504312)scale(0.1 -0.1)">
      <use xlink:href="#DejaVuSans-109"/>
      <use x="97.412109" xlink:href="#DejaVuSans-101"/>
      <use x="158.935547" xlink:href="#DejaVuSans-97"/>
      <use x="220.214844" xlink:href="#DejaVuSans-110"/>
     </g>
    </g>
   </g>
  </g>
 </g>
 <defs>
  <clipPath id="pe9ecf29774">
   <rect height="266.112" width="357.12" x="57.6" y="41.472"/>
  </clipPath>
 </defs>
</svg>
