<?xml version="1.0" encoding="utf-8" standalone="no"?>
<!DOCTYPE svg PUBLIC "-//W3C//DTD SVG 1.1//EN"
  "http://www.w3.org/Graphics/SVG/1.1/DTD/svg11.dtd">
<!-- Created with matplotlib (https://matplotlib.org/) -->
<svg height="345.6pt" version="1.1" viewBox="0 0 460.8 345.6" width="460.8pt" xmlns="http://www.w3.org/2000/svg" xmlns:xlink="http://www.w3.org/1999/xlink">
 <defs>
  <style type="text/css">
*{stroke-linecap:butt;stroke-linejoin:round;}
  </style>
 </defs>
 <g id="figure_1">
  <g id="patch_1">
   <path d="M 0 345.6 
L 460.8 345.6 
L 460.8 0 
L 0 0 
z
" style="fill:#ffffff;"/>
  </g>
  <g id="axes_1">
   <g id="patch_2">
    <path d="M 57.6 307.584 
L 414.72 307.584 
L 414.72 41.472 
L 57.6 41.472 
z
" style="fill:#ffffff;"/>
   </g>
   <g id="matplotlib.axis_1">
    <g id="xtick_1">
     <g id="line2d_1">
      <path clip-path="url(#p4c1e12cd3d)" d="M 61.612584 307.584 
L 61.612584 41.472 
" style="fill:none;stroke:#b0b0b0;stroke-dasharray:5.12,1.28,0.8,1.28;stroke-dashoffset:0;stroke-width:0.8;"/>
     </g>
     <g id="line2d_2">
      <defs>
       <path d="M 0 0 
L 0 3.5 
" id="mcdd1cf19dc" style="stroke:#000000;stroke-width:0.8;"/>
      </defs>
      <g>
       <use style="stroke:#000000;stroke-width:0.8;" x="61.612584" xlink:href="#mcdd1cf19dc" y="307.584"/>
      </g>
     </g>
     <g id="text_1">
      <!-- 1 -->
      <defs>
       <path d="M 12.40625 8.296875 
L 28.515625 8.296875 
L 28.515625 63.921875 
L 10.984375 60.40625 
L 10.984375 69.390625 
L 28.421875 72.90625 
L 38.28125 72.90625 
L 38.28125 8.296875 
L 54.390625 8.296875 
L 54.390625 0 
L 12.40625 0 
z
" id="DejaVuSans-49"/>
      </defs>
      <g transform="translate(58.431334 322.182437)scale(0.1 -0.1)">
       <use xlink:href="#DejaVuSans-49"/>
      </g>
     </g>
    </g>
    <g id="xtick_2">
     <g id="line2d_3">
      <path clip-path="url(#p4c1e12cd3d)" d="M 73.650337 307.584 
L 73.650337 41.472 
" style="fill:none;stroke:#b0b0b0;stroke-dasharray:5.12,1.28,0.8,1.28;stroke-dashoffset:0;stroke-width:0.8;"/>
     </g>
     <g id="line2d_4">
      <g>
       <use style="stroke:#000000;stroke-width:0.8;" x="73.650337" xlink:href="#mcdd1cf19dc" y="307.584"/>
      </g>
     </g>
     <g id="text_2">
      <!-- 4 -->
      <defs>
       <path d="M 37.796875 64.3125 
L 12.890625 25.390625 
L 37.796875 25.390625 
z
M 35.203125 72.90625 
L 47.609375 72.90625 
L 47.609375 25.390625 
L 58.015625 25.390625 
L 58.015625 17.1875 
L 47.609375 17.1875 
L 47.609375 0 
L 37.796875 0 
L 37.796875 17.1875 
L 4.890625 17.1875 
L 4.890625 26.703125 
z
" id="DejaVuSans-52"/>
      </defs>
      <g transform="translate(70.469087 322.182437)scale(0.1 -0.1)">
       <use xlink:href="#DejaVuSans-52"/>
      </g>
     </g>
    </g>
    <g id="xtick_3">
     <g id="line2d_5">
      <path clip-path="url(#p4c1e12cd3d)" d="M 89.700674 307.584 
L 89.700674 41.472 
" style="fill:none;stroke:#b0b0b0;stroke-dasharray:5.12,1.28,0.8,1.28;stroke-dashoffset:0;stroke-width:0.8;"/>
     </g>
     <g id="line2d_6">
      <g>
       <use style="stroke:#000000;stroke-width:0.8;" x="89.700674" xlink:href="#mcdd1cf19dc" y="307.584"/>
      </g>
     </g>
     <g id="text_3">
      <!-- 8 -->
      <defs>
       <path d="M 31.78125 34.625 
Q 24.75 34.625 20.71875 30.859375 
Q 16.703125 27.09375 16.703125 20.515625 
Q 16.703125 13.921875 20.71875 10.15625 
Q 24.75 6.390625 31.78125 6.390625 
Q 38.8125 6.390625 42.859375 10.171875 
Q 46.921875 13.96875 46.921875 20.515625 
Q 46.921875 27.09375 42.890625 30.859375 
Q 38.875 34.625 31.78125 34.625 
z
M 21.921875 38.8125 
Q 15.578125 40.375 12.03125 44.71875 
Q 8.5 49.078125 8.5 55.328125 
Q 8.5 64.0625 14.71875 69.140625 
Q 20.953125 74.21875 31.78125 74.21875 
Q 42.671875 74.21875 48.875 69.140625 
Q 55.078125 64.0625 55.078125 55.328125 
Q 55.078125 49.078125 51.53125 44.71875 
Q 48 40.375 41.703125 38.8125 
Q 48.828125 37.15625 52.796875 32.3125 
Q 56.78125 27.484375 56.78125 20.515625 
Q 56.78125 9.90625 50.3125 4.234375 
Q 43.84375 -1.421875 31.78125 -1.421875 
Q 19.734375 -1.421875 13.25 4.234375 
Q 6.78125 9.90625 6.78125 20.515625 
Q 6.78125 27.484375 10.78125 32.3125 
Q 14.796875 37.15625 21.921875 38.8125 
z
M 18.3125 54.390625 
Q 18.3125 48.734375 21.84375 45.5625 
Q 25.390625 42.390625 31.78125 42.390625 
Q 38.140625 42.390625 41.71875 45.5625 
Q 45.3125 48.734375 45.3125 54.390625 
Q 45.3125 60.0625 41.71875 63.234375 
Q 38.140625 66.40625 31.78125 66.40625 
Q 25.390625 66.40625 21.84375 63.234375 
Q 18.3125 60.0625 18.3125 54.390625 
z
" id="DejaVuSans-56"/>
      </defs>
      <g transform="translate(86.519424 322.182437)scale(0.1 -0.1)">
       <use xlink:href="#DejaVuSans-56"/>
      </g>
     </g>
    </g>
    <g id="xtick_4">
     <g id="line2d_7">
      <path clip-path="url(#p4c1e12cd3d)" d="M 105.751011 307.584 
L 105.751011 41.472 
" style="fill:none;stroke:#b0b0b0;stroke-dasharray:5.12,1.28,0.8,1.28;stroke-dashoffset:0;stroke-width:0.8;"/>
     </g>
     <g id="line2d_8">
      <g>
       <use style="stroke:#000000;stroke-width:0.8;" x="105.751011" xlink:href="#mcdd1cf19dc" y="307.584"/>
      </g>
     </g>
     <g id="text_4">
      <!-- 12 -->
      <defs>
       <path d="M 19.1875 8.296875 
L 53.609375 8.296875 
L 53.609375 0 
L 7.328125 0 
L 7.328125 8.296875 
Q 12.9375 14.109375 22.625 23.890625 
Q 32.328125 33.6875 34.8125 36.53125 
Q 39.546875 41.84375 41.421875 45.53125 
Q 43.3125 49.21875 43.3125 52.78125 
Q 43.3125 58.59375 39.234375 62.25 
Q 35.15625 65.921875 28.609375 65.921875 
Q 23.96875 65.921875 18.8125 64.3125 
Q 13.671875 62.703125 7.8125 59.421875 
L 7.8125 69.390625 
Q 13.765625 71.78125 18.9375 73 
Q 24.125 74.21875 28.421875 74.21875 
Q 39.75 74.21875 46.484375 68.546875 
Q 53.21875 62.890625 53.21875 53.421875 
Q 53.21875 48.921875 51.53125 44.890625 
Q 49.859375 40.875 45.40625 35.40625 
Q 44.1875 33.984375 37.640625 27.21875 
Q 31.109375 20.453125 19.1875 8.296875 
z
" id="DejaVuSans-50"/>
      </defs>
      <g transform="translate(99.388511 322.182437)scale(0.1 -0.1)">
       <use xlink:href="#DejaVuSans-49"/>
       <use x="63.623047" xlink:href="#DejaVuSans-50"/>
      </g>
     </g>
    </g>
    <g id="xtick_5">
     <g id="line2d_9">
      <path clip-path="url(#p4c1e12cd3d)" d="M 121.801348 307.584 
L 121.801348 41.472 
" style="fill:none;stroke:#b0b0b0;stroke-dasharray:5.12,1.28,0.8,1.28;stroke-dashoffset:0;stroke-width:0.8;"/>
     </g>
     <g id="line2d_10">
      <g>
       <use style="stroke:#000000;stroke-width:0.8;" x="121.801348" xlink:href="#mcdd1cf19dc" y="307.584"/>
      </g>
     </g>
     <g id="text_5">
      <!-- 16 -->
      <defs>
       <path d="M 33.015625 40.375 
Q 26.375 40.375 22.484375 35.828125 
Q 18.609375 31.296875 18.609375 23.390625 
Q 18.609375 15.53125 22.484375 10.953125 
Q 26.375 6.390625 33.015625 6.390625 
Q 39.65625 6.390625 43.53125 10.953125 
Q 47.40625 15.53125 47.40625 23.390625 
Q 47.40625 31.296875 43.53125 35.828125 
Q 39.65625 40.375 33.015625 40.375 
z
M 52.59375 71.296875 
L 52.59375 62.3125 
Q 48.875 64.0625 45.09375 64.984375 
Q 41.3125 65.921875 37.59375 65.921875 
Q 27.828125 65.921875 22.671875 59.328125 
Q 17.53125 52.734375 16.796875 39.40625 
Q 19.671875 43.65625 24.015625 45.921875 
Q 28.375 48.1875 33.59375 48.1875 
Q 44.578125 48.1875 50.953125 41.515625 
Q 57.328125 34.859375 57.328125 23.390625 
Q 57.328125 12.15625 50.6875 5.359375 
Q 44.046875 -1.421875 33.015625 -1.421875 
Q 20.359375 -1.421875 13.671875 8.265625 
Q 6.984375 17.96875 6.984375 36.375 
Q 6.984375 53.65625 15.1875 63.9375 
Q 23.390625 74.21875 37.203125 74.21875 
Q 40.921875 74.21875 44.703125 73.484375 
Q 48.484375 72.75 52.59375 71.296875 
z
" id="DejaVuSans-54"/>
      </defs>
      <g transform="translate(115.438848 322.182437)scale(0.1 -0.1)">
       <use xlink:href="#DejaVuSans-49"/>
       <use x="63.623047" xlink:href="#DejaVuSans-54"/>
      </g>
     </g>
    </g>
    <g id="xtick_6">
     <g id="line2d_11">
      <path clip-path="url(#p4c1e12cd3d)" d="M 137.851685 307.584 
L 137.851685 41.472 
" style="fill:none;stroke:#b0b0b0;stroke-dasharray:5.12,1.28,0.8,1.28;stroke-dashoffset:0;stroke-width:0.8;"/>
     </g>
     <g id="line2d_12">
      <g>
       <use style="stroke:#000000;stroke-width:0.8;" x="137.851685" xlink:href="#mcdd1cf19dc" y="307.584"/>
      </g>
     </g>
     <g id="text_6">
      <!-- 20 -->
      <defs>
       <path d="M 31.78125 66.40625 
Q 24.171875 66.40625 20.328125 58.90625 
Q 16.5 51.421875 16.5 36.375 
Q 16.5 21.390625 20.328125 13.890625 
Q 24.171875 6.390625 31.78125 6.390625 
Q 39.453125 6.390625 43.28125 13.890625 
Q 47.125 21.390625 47.125 36.375 
Q 47.125 51.421875 43.28125 58.90625 
Q 39.453125 66.40625 31.78125 66.40625 
z
M 31.78125 74.21875 
Q 44.046875 74.21875 50.515625 64.515625 
Q 56.984375 54.828125 56.984375 36.375 
Q 56.984375 17.96875 50.515625 8.265625 
Q 44.046875 -1.421875 31.78125 -1.421875 
Q 19.53125 -1.421875 13.0625 8.265625 
Q 6.59375 17.96875 6.59375 36.375 
Q 6.59375 54.828125 13.0625 64.515625 
Q 19.53125 74.21875 31.78125 74.21875 
z
" id="DejaVuSans-48"/>
      </defs>
      <g transform="translate(131.489185 322.182437)scale(0.1 -0.1)">
       <use xlink:href="#DejaVuSans-50"/>
       <use x="63.623047" xlink:href="#DejaVuSans-48"/>
      </g>
     </g>
    </g>
    <g id="xtick_7">
     <g id="line2d_13">
      <path clip-path="url(#p4c1e12cd3d)" d="M 153.902022 307.584 
L 153.902022 41.472 
" style="fill:none;stroke:#b0b0b0;stroke-dasharray:5.12,1.28,0.8,1.28;stroke-dashoffset:0;stroke-width:0.8;"/>
     </g>
     <g id="line2d_14">
      <g>
       <use style="stroke:#000000;stroke-width:0.8;" x="153.902022" xlink:href="#mcdd1cf19dc" y="307.584"/>
      </g>
     </g>
     <g id="text_7">
      <!-- 24 -->
      <g transform="translate(147.539522 322.182437)scale(0.1 -0.1)">
       <use xlink:href="#DejaVuSans-50"/>
       <use x="63.623047" xlink:href="#DejaVuSans-52"/>
      </g>
     </g>
    </g>
    <g id="xtick_8">
     <g id="line2d_15">
      <path clip-path="url(#p4c1e12cd3d)" d="M 169.95236 307.584 
L 169.95236 41.472 
" style="fill:none;stroke:#b0b0b0;stroke-dasharray:5.12,1.28,0.8,1.28;stroke-dashoffset:0;stroke-width:0.8;"/>
     </g>
     <g id="line2d_16">
      <g>
       <use style="stroke:#000000;stroke-width:0.8;" x="169.95236" xlink:href="#mcdd1cf19dc" y="307.584"/>
      </g>
     </g>
     <g id="text_8">
      <!-- 28 -->
      <g transform="translate(163.58986 322.182437)scale(0.1 -0.1)">
       <use xlink:href="#DejaVuSans-50"/>
       <use x="63.623047" xlink:href="#DejaVuSans-56"/>
      </g>
     </g>
    </g>
    <g id="xtick_9">
     <g id="line2d_17">
      <path clip-path="url(#p4c1e12cd3d)" d="M 186.002697 307.584 
L 186.002697 41.472 
" style="fill:none;stroke:#b0b0b0;stroke-dasharray:5.12,1.28,0.8,1.28;stroke-dashoffset:0;stroke-width:0.8;"/>
     </g>
     <g id="line2d_18">
      <g>
       <use style="stroke:#000000;stroke-width:0.8;" x="186.002697" xlink:href="#mcdd1cf19dc" y="307.584"/>
      </g>
     </g>
     <g id="text_9">
      <!-- 32 -->
      <defs>
       <path d="M 40.578125 39.3125 
Q 47.65625 37.796875 51.625 33 
Q 55.609375 28.21875 55.609375 21.1875 
Q 55.609375 10.40625 48.1875 4.484375 
Q 40.765625 -1.421875 27.09375 -1.421875 
Q 22.515625 -1.421875 17.65625 -0.515625 
Q 12.796875 0.390625 7.625 2.203125 
L 7.625 11.71875 
Q 11.71875 9.328125 16.59375 8.109375 
Q 21.484375 6.890625 26.8125 6.890625 
Q 36.078125 6.890625 40.9375 10.546875 
Q 45.796875 14.203125 45.796875 21.1875 
Q 45.796875 27.640625 41.28125 31.265625 
Q 36.765625 34.90625 28.71875 34.90625 
L 20.21875 34.90625 
L 20.21875 43.015625 
L 29.109375 43.015625 
Q 36.375 43.015625 40.234375 45.921875 
Q 44.09375 48.828125 44.09375 54.296875 
Q 44.09375 59.90625 40.109375 62.90625 
Q 36.140625 65.921875 28.71875 65.921875 
Q 24.65625 65.921875 20.015625 65.03125 
Q 15.375 64.15625 9.8125 62.3125 
L 9.8125 71.09375 
Q 15.4375 72.65625 20.34375 73.4375 
Q 25.25 74.21875 29.59375 74.21875 
Q 40.828125 74.21875 47.359375 69.109375 
Q 53.90625 64.015625 53.90625 55.328125 
Q 53.90625 49.265625 50.4375 45.09375 
Q 46.96875 40.921875 40.578125 39.3125 
z
" id="DejaVuSans-51"/>
      </defs>
      <g transform="translate(179.640197 322.182437)scale(0.1 -0.1)">
       <use xlink:href="#DejaVuSans-51"/>
       <use x="63.623047" xlink:href="#DejaVuSans-50"/>
      </g>
     </g>
    </g>
    <g id="xtick_10">
     <g id="line2d_19">
      <path clip-path="url(#p4c1e12cd3d)" d="M 202.053034 307.584 
L 202.053034 41.472 
" style="fill:none;stroke:#b0b0b0;stroke-dasharray:5.12,1.28,0.8,1.28;stroke-dashoffset:0;stroke-width:0.8;"/>
     </g>
     <g id="line2d_20">
      <g>
       <use style="stroke:#000000;stroke-width:0.8;" x="202.053034" xlink:href="#mcdd1cf19dc" y="307.584"/>
      </g>
     </g>
     <g id="text_10">
      <!-- 36 -->
      <g transform="translate(195.690534 322.182437)scale(0.1 -0.1)">
       <use xlink:href="#DejaVuSans-51"/>
       <use x="63.623047" xlink:href="#DejaVuSans-54"/>
      </g>
     </g>
    </g>
    <g id="xtick_11">
     <g id="line2d_21">
      <path clip-path="url(#p4c1e12cd3d)" d="M 218.103371 307.584 
L 218.103371 41.472 
" style="fill:none;stroke:#b0b0b0;stroke-dasharray:5.12,1.28,0.8,1.28;stroke-dashoffset:0;stroke-width:0.8;"/>
     </g>
     <g id="line2d_22">
      <g>
       <use style="stroke:#000000;stroke-width:0.8;" x="218.103371" xlink:href="#mcdd1cf19dc" y="307.584"/>
      </g>
     </g>
     <g id="text_11">
      <!-- 40 -->
      <g transform="translate(211.740871 322.182437)scale(0.1 -0.1)">
       <use xlink:href="#DejaVuSans-52"/>
       <use x="63.623047" xlink:href="#DejaVuSans-48"/>
      </g>
     </g>
    </g>
    <g id="xtick_12">
     <g id="line2d_23">
      <path clip-path="url(#p4c1e12cd3d)" d="M 234.153708 307.584 
L 234.153708 41.472 
" style="fill:none;stroke:#b0b0b0;stroke-dasharray:5.12,1.28,0.8,1.28;stroke-dashoffset:0;stroke-width:0.8;"/>
     </g>
     <g id="line2d_24">
      <g>
       <use style="stroke:#000000;stroke-width:0.8;" x="234.153708" xlink:href="#mcdd1cf19dc" y="307.584"/>
      </g>
     </g>
     <g id="text_12">
      <!-- 44 -->
      <g transform="translate(227.791208 322.182437)scale(0.1 -0.1)">
       <use xlink:href="#DejaVuSans-52"/>
       <use x="63.623047" xlink:href="#DejaVuSans-52"/>
      </g>
     </g>
    </g>
    <g id="xtick_13">
     <g id="line2d_25">
      <path clip-path="url(#p4c1e12cd3d)" d="M 250.204045 307.584 
L 250.204045 41.472 
" style="fill:none;stroke:#b0b0b0;stroke-dasharray:5.12,1.28,0.8,1.28;stroke-dashoffset:0;stroke-width:0.8;"/>
     </g>
     <g id="line2d_26">
      <g>
       <use style="stroke:#000000;stroke-width:0.8;" x="250.204045" xlink:href="#mcdd1cf19dc" y="307.584"/>
      </g>
     </g>
     <g id="text_13">
      <!-- 48 -->
      <g transform="translate(243.841545 322.182437)scale(0.1 -0.1)">
       <use xlink:href="#DejaVuSans-52"/>
       <use x="63.623047" xlink:href="#DejaVuSans-56"/>
      </g>
     </g>
    </g>
    <g id="xtick_14">
     <g id="line2d_27">
      <path clip-path="url(#p4c1e12cd3d)" d="M 266.254382 307.584 
L 266.254382 41.472 
" style="fill:none;stroke:#b0b0b0;stroke-dasharray:5.12,1.28,0.8,1.28;stroke-dashoffset:0;stroke-width:0.8;"/>
     </g>
     <g id="line2d_28">
      <g>
       <use style="stroke:#000000;stroke-width:0.8;" x="266.254382" xlink:href="#mcdd1cf19dc" y="307.584"/>
      </g>
     </g>
     <g id="text_14">
      <!-- 52 -->
      <defs>
       <path d="M 10.796875 72.90625 
L 49.515625 72.90625 
L 49.515625 64.59375 
L 19.828125 64.59375 
L 19.828125 46.734375 
Q 21.96875 47.46875 24.109375 47.828125 
Q 26.265625 48.1875 28.421875 48.1875 
Q 40.625 48.1875 47.75 41.5 
Q 54.890625 34.8125 54.890625 23.390625 
Q 54.890625 11.625 47.5625 5.09375 
Q 40.234375 -1.421875 26.90625 -1.421875 
Q 22.3125 -1.421875 17.546875 -0.640625 
Q 12.796875 0.140625 7.71875 1.703125 
L 7.71875 11.625 
Q 12.109375 9.234375 16.796875 8.0625 
Q 21.484375 6.890625 26.703125 6.890625 
Q 35.15625 6.890625 40.078125 11.328125 
Q 45.015625 15.765625 45.015625 23.390625 
Q 45.015625 31 40.078125 35.4375 
Q 35.15625 39.890625 26.703125 39.890625 
Q 22.75 39.890625 18.8125 39.015625 
Q 14.890625 38.140625 10.796875 36.28125 
z
" id="DejaVuSans-53"/>
      </defs>
      <g transform="translate(259.891882 322.182437)scale(0.1 -0.1)">
       <use xlink:href="#DejaVuSans-53"/>
       <use x="63.623047" xlink:href="#DejaVuSans-50"/>
      </g>
     </g>
    </g>
    <g id="xtick_15">
     <g id="line2d_29">
      <path clip-path="url(#p4c1e12cd3d)" d="M 282.304719 307.584 
L 282.304719 41.472 
" style="fill:none;stroke:#b0b0b0;stroke-dasharray:5.12,1.28,0.8,1.28;stroke-dashoffset:0;stroke-width:0.8;"/>
     </g>
     <g id="line2d_30">
      <g>
       <use style="stroke:#000000;stroke-width:0.8;" x="282.304719" xlink:href="#mcdd1cf19dc" y="307.584"/>
      </g>
     </g>
     <g id="text_15">
      <!-- 56 -->
      <g transform="translate(275.942219 322.182437)scale(0.1 -0.1)">
       <use xlink:href="#DejaVuSans-53"/>
       <use x="63.623047" xlink:href="#DejaVuSans-54"/>
      </g>
     </g>
    </g>
    <g id="xtick_16">
     <g id="line2d_31">
      <path clip-path="url(#p4c1e12cd3d)" d="M 298.355056 307.584 
L 298.355056 41.472 
" style="fill:none;stroke:#b0b0b0;stroke-dasharray:5.12,1.28,0.8,1.28;stroke-dashoffset:0;stroke-width:0.8;"/>
     </g>
     <g id="line2d_32">
      <g>
       <use style="stroke:#000000;stroke-width:0.8;" x="298.355056" xlink:href="#mcdd1cf19dc" y="307.584"/>
      </g>
     </g>
     <g id="text_16">
      <!-- 60 -->
      <g transform="translate(291.992556 322.182437)scale(0.1 -0.1)">
       <use xlink:href="#DejaVuSans-54"/>
       <use x="63.623047" xlink:href="#DejaVuSans-48"/>
      </g>
     </g>
    </g>
    <g id="xtick_17">
     <g id="line2d_33">
      <path clip-path="url(#p4c1e12cd3d)" d="M 314.405393 307.584 
L 314.405393 41.472 
" style="fill:none;stroke:#b0b0b0;stroke-dasharray:5.12,1.28,0.8,1.28;stroke-dashoffset:0;stroke-width:0.8;"/>
     </g>
     <g id="line2d_34">
      <g>
       <use style="stroke:#000000;stroke-width:0.8;" x="314.405393" xlink:href="#mcdd1cf19dc" y="307.584"/>
      </g>
     </g>
     <g id="text_17">
      <!-- 64 -->
      <g transform="translate(308.042893 322.182437)scale(0.1 -0.1)">
       <use xlink:href="#DejaVuSans-54"/>
       <use x="63.623047" xlink:href="#DejaVuSans-52"/>
      </g>
     </g>
    </g>
    <g id="xtick_18">
     <g id="line2d_35">
      <path clip-path="url(#p4c1e12cd3d)" d="M 330.45573 307.584 
L 330.45573 41.472 
" style="fill:none;stroke:#b0b0b0;stroke-dasharray:5.12,1.28,0.8,1.28;stroke-dashoffset:0;stroke-width:0.8;"/>
     </g>
     <g id="line2d_36">
      <g>
       <use style="stroke:#000000;stroke-width:0.8;" x="330.45573" xlink:href="#mcdd1cf19dc" y="307.584"/>
      </g>
     </g>
     <g id="text_18">
      <!-- 68 -->
      <g transform="translate(324.09323 322.182437)scale(0.1 -0.1)">
       <use xlink:href="#DejaVuSans-54"/>
       <use x="63.623047" xlink:href="#DejaVuSans-56"/>
      </g>
     </g>
    </g>
    <g id="xtick_19">
     <g id="line2d_37">
      <path clip-path="url(#p4c1e12cd3d)" d="M 346.506067 307.584 
L 346.506067 41.472 
" style="fill:none;stroke:#b0b0b0;stroke-dasharray:5.12,1.28,0.8,1.28;stroke-dashoffset:0;stroke-width:0.8;"/>
     </g>
     <g id="line2d_38">
      <g>
       <use style="stroke:#000000;stroke-width:0.8;" x="346.506067" xlink:href="#mcdd1cf19dc" y="307.584"/>
      </g>
     </g>
     <g id="text_19">
      <!-- 72 -->
      <defs>
       <path d="M 8.203125 72.90625 
L 55.078125 72.90625 
L 55.078125 68.703125 
L 28.609375 0 
L 18.3125 0 
L 43.21875 64.59375 
L 8.203125 64.59375 
z
" id="DejaVuSans-55"/>
      </defs>
      <g transform="translate(340.143567 322.182437)scale(0.1 -0.1)">
       <use xlink:href="#DejaVuSans-55"/>
       <use x="63.623047" xlink:href="#DejaVuSans-50"/>
      </g>
     </g>
    </g>
    <g id="xtick_20">
     <g id="line2d_39">
      <path clip-path="url(#p4c1e12cd3d)" d="M 362.556404 307.584 
L 362.556404 41.472 
" style="fill:none;stroke:#b0b0b0;stroke-dasharray:5.12,1.28,0.8,1.28;stroke-dashoffset:0;stroke-width:0.8;"/>
     </g>
     <g id="line2d_40">
      <g>
       <use style="stroke:#000000;stroke-width:0.8;" x="362.556404" xlink:href="#mcdd1cf19dc" y="307.584"/>
      </g>
     </g>
     <g id="text_20">
      <!-- 76 -->
      <g transform="translate(356.193904 322.182437)scale(0.1 -0.1)">
       <use xlink:href="#DejaVuSans-55"/>
       <use x="63.623047" xlink:href="#DejaVuSans-54"/>
      </g>
     </g>
    </g>
    <g id="xtick_21">
     <g id="line2d_41">
      <path clip-path="url(#p4c1e12cd3d)" d="M 378.606742 307.584 
L 378.606742 41.472 
" style="fill:none;stroke:#b0b0b0;stroke-dasharray:5.12,1.28,0.8,1.28;stroke-dashoffset:0;stroke-width:0.8;"/>
     </g>
     <g id="line2d_42">
      <g>
       <use style="stroke:#000000;stroke-width:0.8;" x="378.606742" xlink:href="#mcdd1cf19dc" y="307.584"/>
      </g>
     </g>
     <g id="text_21">
      <!-- 80 -->
      <g transform="translate(372.244242 322.182437)scale(0.1 -0.1)">
       <use xlink:href="#DejaVuSans-56"/>
       <use x="63.623047" xlink:href="#DejaVuSans-48"/>
      </g>
     </g>
    </g>
    <g id="xtick_22">
     <g id="line2d_43">
      <path clip-path="url(#p4c1e12cd3d)" d="M 394.657079 307.584 
L 394.657079 41.472 
" style="fill:none;stroke:#b0b0b0;stroke-dasharray:5.12,1.28,0.8,1.28;stroke-dashoffset:0;stroke-width:0.8;"/>
     </g>
     <g id="line2d_44">
      <g>
       <use style="stroke:#000000;stroke-width:0.8;" x="394.657079" xlink:href="#mcdd1cf19dc" y="307.584"/>
      </g>
     </g>
     <g id="text_22">
      <!-- 84 -->
      <g transform="translate(388.294579 322.182437)scale(0.1 -0.1)">
       <use xlink:href="#DejaVuSans-56"/>
       <use x="63.623047" xlink:href="#DejaVuSans-52"/>
      </g>
     </g>
    </g>
    <g id="xtick_23">
     <g id="line2d_45">
      <path clip-path="url(#p4c1e12cd3d)" d="M 410.707416 307.584 
L 410.707416 41.472 
" style="fill:none;stroke:#b0b0b0;stroke-dasharray:5.12,1.28,0.8,1.28;stroke-dashoffset:0;stroke-width:0.8;"/>
     </g>
     <g id="line2d_46">
      <g>
       <use style="stroke:#000000;stroke-width:0.8;" x="410.707416" xlink:href="#mcdd1cf19dc" y="307.584"/>
      </g>
     </g>
     <g id="text_23">
      <!-- 88 -->
      <g transform="translate(404.344916 322.182437)scale(0.1 -0.1)">
       <use xlink:href="#DejaVuSans-56"/>
       <use x="63.623047" xlink:href="#DejaVuSans-56"/>
      </g>
     </g>
    </g>
    <g id="text_24">
     <!-- threads -->
     <defs>
      <path d="M 18.3125 70.21875 
L 18.3125 54.6875 
L 36.8125 54.6875 
L 36.8125 47.703125 
L 18.3125 47.703125 
L 18.3125 18.015625 
Q 18.3125 11.328125 20.140625 9.421875 
Q 21.96875 7.515625 27.59375 7.515625 
L 36.8125 7.515625 
L 36.8125 0 
L 27.59375 0 
Q 17.1875 0 13.234375 3.875 
Q 9.28125 7.765625 9.28125 18.015625 
L 9.28125 47.703125 
L 2.6875 47.703125 
L 2.6875 54.6875 
L 9.28125 54.6875 
L 9.28125 70.21875 
z
" id="DejaVuSans-116"/>
      <path d="M 54.890625 33.015625 
L 54.890625 0 
L 45.90625 0 
L 45.90625 32.71875 
Q 45.90625 40.484375 42.875 44.328125 
Q 39.84375 48.1875 33.796875 48.1875 
Q 26.515625 48.1875 22.3125 43.546875 
Q 18.109375 38.921875 18.109375 30.90625 
L 18.109375 0 
L 9.078125 0 
L 9.078125 75.984375 
L 18.109375 75.984375 
L 18.109375 46.1875 
Q 21.34375 51.125 25.703125 53.5625 
Q 30.078125 56 35.796875 56 
Q 45.21875 56 50.046875 50.171875 
Q 54.890625 44.34375 54.890625 33.015625 
z
" id="DejaVuSans-104"/>
      <path d="M 41.109375 46.296875 
Q 39.59375 47.171875 37.8125 47.578125 
Q 36.03125 48 33.890625 48 
Q 26.265625 48 22.1875 43.046875 
Q 18.109375 38.09375 18.109375 28.8125 
L 18.109375 0 
L 9.078125 0 
L 9.078125 54.6875 
L 18.109375 54.6875 
L 18.109375 46.1875 
Q 20.953125 51.171875 25.484375 53.578125 
Q 30.03125 56 36.53125 56 
Q 37.453125 56 38.578125 55.875 
Q 39.703125 55.765625 41.0625 55.515625 
z
" id="DejaVuSans-114"/>
      <path d="M 56.203125 29.59375 
L 56.203125 25.203125 
L 14.890625 25.203125 
Q 15.484375 15.921875 20.484375 11.0625 
Q 25.484375 6.203125 34.421875 6.203125 
Q 39.59375 6.203125 44.453125 7.46875 
Q 49.3125 8.734375 54.109375 11.28125 
L 54.109375 2.78125 
Q 49.265625 0.734375 44.1875 -0.34375 
Q 39.109375 -1.421875 33.890625 -1.421875 
Q 20.796875 -1.421875 13.15625 6.1875 
Q 5.515625 13.8125 5.515625 26.8125 
Q 5.515625 40.234375 12.765625 48.109375 
Q 20.015625 56 32.328125 56 
Q 43.359375 56 49.78125 48.890625 
Q 56.203125 41.796875 56.203125 29.59375 
z
M 47.21875 32.234375 
Q 47.125 39.59375 43.09375 43.984375 
Q 39.0625 48.390625 32.421875 48.390625 
Q 24.90625 48.390625 20.390625 44.140625 
Q 15.875 39.890625 15.1875 32.171875 
z
" id="DejaVuSans-101"/>
      <path d="M 34.28125 27.484375 
Q 23.390625 27.484375 19.1875 25 
Q 14.984375 22.515625 14.984375 16.5 
Q 14.984375 11.71875 18.140625 8.90625 
Q 21.296875 6.109375 26.703125 6.109375 
Q 34.1875 6.109375 38.703125 11.40625 
Q 43.21875 16.703125 43.21875 25.484375 
L 43.21875 27.484375 
z
M 52.203125 31.203125 
L 52.203125 0 
L 43.21875 0 
L 43.21875 8.296875 
Q 40.140625 3.328125 35.546875 0.953125 
Q 30.953125 -1.421875 24.3125 -1.421875 
Q 15.921875 -1.421875 10.953125 3.296875 
Q 6 8.015625 6 15.921875 
Q 6 25.140625 12.171875 29.828125 
Q 18.359375 34.515625 30.609375 34.515625 
L 43.21875 34.515625 
L 43.21875 35.40625 
Q 43.21875 41.609375 39.140625 45 
Q 35.0625 48.390625 27.6875 48.390625 
Q 23 48.390625 18.546875 47.265625 
Q 14.109375 46.140625 10.015625 43.890625 
L 10.015625 52.203125 
Q 14.9375 54.109375 19.578125 55.046875 
Q 24.21875 56 28.609375 56 
Q 40.484375 56 46.34375 49.84375 
Q 52.203125 43.703125 52.203125 31.203125 
z
" id="DejaVuSans-97"/>
      <path d="M 45.40625 46.390625 
L 45.40625 75.984375 
L 54.390625 75.984375 
L 54.390625 0 
L 45.40625 0 
L 45.40625 8.203125 
Q 42.578125 3.328125 38.25 0.953125 
Q 33.9375 -1.421875 27.875 -1.421875 
Q 17.96875 -1.421875 11.734375 6.484375 
Q 5.515625 14.40625 5.515625 27.296875 
Q 5.515625 40.1875 11.734375 48.09375 
Q 17.96875 56 27.875 56 
Q 33.9375 56 38.25 53.625 
Q 42.578125 51.265625 45.40625 46.390625 
z
M 14.796875 27.296875 
Q 14.796875 17.390625 18.875 11.75 
Q 22.953125 6.109375 30.078125 6.109375 
Q 37.203125 6.109375 41.296875 11.75 
Q 45.40625 17.390625 45.40625 27.296875 
Q 45.40625 37.203125 41.296875 42.84375 
Q 37.203125 48.484375 30.078125 48.484375 
Q 22.953125 48.484375 18.875 42.84375 
Q 14.796875 37.203125 14.796875 27.296875 
z
" id="DejaVuSans-100"/>
      <path d="M 44.28125 53.078125 
L 44.28125 44.578125 
Q 40.484375 46.53125 36.375 47.5 
Q 32.28125 48.484375 27.875 48.484375 
Q 21.1875 48.484375 17.84375 46.4375 
Q 14.5 44.390625 14.5 40.28125 
Q 14.5 37.15625 16.890625 35.375 
Q 19.28125 33.59375 26.515625 31.984375 
L 29.59375 31.296875 
Q 39.15625 29.25 43.1875 25.515625 
Q 47.21875 21.78125 47.21875 15.09375 
Q 47.21875 7.46875 41.1875 3.015625 
Q 35.15625 -1.421875 24.609375 -1.421875 
Q 20.21875 -1.421875 15.453125 -0.5625 
Q 10.6875 0.296875 5.421875 2 
L 5.421875 11.28125 
Q 10.40625 8.6875 15.234375 7.390625 
Q 20.0625 6.109375 24.8125 6.109375 
Q 31.15625 6.109375 34.5625 8.28125 
Q 37.984375 10.453125 37.984375 14.40625 
Q 37.984375 18.0625 35.515625 20.015625 
Q 33.0625 21.96875 24.703125 23.78125 
L 21.578125 24.515625 
Q 13.234375 26.265625 9.515625 29.90625 
Q 5.8125 33.546875 5.8125 39.890625 
Q 5.8125 47.609375 11.28125 51.796875 
Q 16.75 56 26.8125 56 
Q 31.78125 56 36.171875 55.265625 
Q 40.578125 54.546875 44.28125 53.078125 
z
" id="DejaVuSans-115"/>
     </defs>
     <g transform="translate(217.168594 335.860562)scale(0.1 -0.1)">
      <use xlink:href="#DejaVuSans-116"/>
      <use x="39.208984" xlink:href="#DejaVuSans-104"/>
      <use x="102.587891" xlink:href="#DejaVuSans-114"/>
      <use x="141.451172" xlink:href="#DejaVuSans-101"/>
      <use x="202.974609" xlink:href="#DejaVuSans-97"/>
      <use x="264.253906" xlink:href="#DejaVuSans-100"/>
      <use x="327.730469" xlink:href="#DejaVuSans-115"/>
     </g>
    </g>
   </g>
   <g id="matplotlib.axis_2">
    <g id="ytick_1">
     <g id="line2d_47">
      <path clip-path="url(#p4c1e12cd3d)" d="M 57.6 296.884153 
L 414.72 296.884153 
" style="fill:none;stroke:#b0b0b0;stroke-dasharray:5.12,1.28,0.8,1.28;stroke-dashoffset:0;stroke-width:0.8;"/>
     </g>
     <g id="line2d_48">
      <defs>
       <path d="M 0 0 
L -3.5 0 
" id="m0ba9278077" style="stroke:#000000;stroke-width:0.8;"/>
      </defs>
      <g>
       <use style="stroke:#000000;stroke-width:0.8;" x="57.6" xlink:href="#m0ba9278077" y="296.884153"/>
      </g>
     </g>
     <g id="text_25">
      <!-- 0.0025 -->
      <defs>
       <path d="M 10.6875 12.40625 
L 21 12.40625 
L 21 0 
L 10.6875 0 
z
" id="DejaVuSans-46"/>
      </defs>
      <g transform="translate(15.609375 300.683371)scale(0.1 -0.1)">
       <use xlink:href="#DejaVuSans-48"/>
       <use x="63.623047" xlink:href="#DejaVuSans-46"/>
       <use x="95.410156" xlink:href="#DejaVuSans-48"/>
       <use x="159.033203" xlink:href="#DejaVuSans-48"/>
       <use x="222.65625" xlink:href="#DejaVuSans-50"/>
       <use x="286.279297" xlink:href="#DejaVuSans-53"/>
      </g>
     </g>
    </g>
    <g id="ytick_2">
     <g id="line2d_49">
      <path clip-path="url(#p4c1e12cd3d)" d="M 57.6 266.199162 
L 414.72 266.199162 
" style="fill:none;stroke:#b0b0b0;stroke-dasharray:5.12,1.28,0.8,1.28;stroke-dashoffset:0;stroke-width:0.8;"/>
     </g>
     <g id="line2d_50">
      <g>
       <use style="stroke:#000000;stroke-width:0.8;" x="57.6" xlink:href="#m0ba9278077" y="266.199162"/>
      </g>
     </g>
     <g id="text_26">
      <!-- 0.0050 -->
      <g transform="translate(15.609375 269.99838)scale(0.1 -0.1)">
       <use xlink:href="#DejaVuSans-48"/>
       <use x="63.623047" xlink:href="#DejaVuSans-46"/>
       <use x="95.410156" xlink:href="#DejaVuSans-48"/>
       <use x="159.033203" xlink:href="#DejaVuSans-48"/>
       <use x="222.65625" xlink:href="#DejaVuSans-53"/>
       <use x="286.279297" xlink:href="#DejaVuSans-48"/>
      </g>
     </g>
    </g>
    <g id="ytick_3">
     <g id="line2d_51">
      <path clip-path="url(#p4c1e12cd3d)" d="M 57.6 235.514171 
L 414.72 235.514171 
" style="fill:none;stroke:#b0b0b0;stroke-dasharray:5.12,1.28,0.8,1.28;stroke-dashoffset:0;stroke-width:0.8;"/>
     </g>
     <g id="line2d_52">
      <g>
       <use style="stroke:#000000;stroke-width:0.8;" x="57.6" xlink:href="#m0ba9278077" y="235.514171"/>
      </g>
     </g>
     <g id="text_27">
      <!-- 0.0075 -->
      <g transform="translate(15.609375 239.313389)scale(0.1 -0.1)">
       <use xlink:href="#DejaVuSans-48"/>
       <use x="63.623047" xlink:href="#DejaVuSans-46"/>
       <use x="95.410156" xlink:href="#DejaVuSans-48"/>
       <use x="159.033203" xlink:href="#DejaVuSans-48"/>
       <use x="222.65625" xlink:href="#DejaVuSans-55"/>
       <use x="286.279297" xlink:href="#DejaVuSans-53"/>
      </g>
     </g>
    </g>
    <g id="ytick_4">
     <g id="line2d_53">
      <path clip-path="url(#p4c1e12cd3d)" d="M 57.6 204.82918 
L 414.72 204.82918 
" style="fill:none;stroke:#b0b0b0;stroke-dasharray:5.12,1.28,0.8,1.28;stroke-dashoffset:0;stroke-width:0.8;"/>
     </g>
     <g id="line2d_54">
      <g>
       <use style="stroke:#000000;stroke-width:0.8;" x="57.6" xlink:href="#m0ba9278077" y="204.82918"/>
      </g>
     </g>
     <g id="text_28">
      <!-- 0.0100 -->
      <g transform="translate(15.609375 208.628398)scale(0.1 -0.1)">
       <use xlink:href="#DejaVuSans-48"/>
       <use x="63.623047" xlink:href="#DejaVuSans-46"/>
       <use x="95.410156" xlink:href="#DejaVuSans-48"/>
       <use x="159.033203" xlink:href="#DejaVuSans-49"/>
       <use x="222.65625" xlink:href="#DejaVuSans-48"/>
       <use x="286.279297" xlink:href="#DejaVuSans-48"/>
      </g>
     </g>
    </g>
    <g id="ytick_5">
     <g id="line2d_55">
      <path clip-path="url(#p4c1e12cd3d)" d="M 57.6 174.144188 
L 414.72 174.144188 
" style="fill:none;stroke:#b0b0b0;stroke-dasharray:5.12,1.28,0.8,1.28;stroke-dashoffset:0;stroke-width:0.8;"/>
     </g>
     <g id="line2d_56">
      <g>
       <use style="stroke:#000000;stroke-width:0.8;" x="57.6" xlink:href="#m0ba9278077" y="174.144188"/>
      </g>
     </g>
     <g id="text_29">
      <!-- 0.0125 -->
      <g transform="translate(15.609375 177.943407)scale(0.1 -0.1)">
       <use xlink:href="#DejaVuSans-48"/>
       <use x="63.623047" xlink:href="#DejaVuSans-46"/>
       <use x="95.410156" xlink:href="#DejaVuSans-48"/>
       <use x="159.033203" xlink:href="#DejaVuSans-49"/>
       <use x="222.65625" xlink:href="#DejaVuSans-50"/>
       <use x="286.279297" xlink:href="#DejaVuSans-53"/>
      </g>
     </g>
    </g>
    <g id="ytick_6">
     <g id="line2d_57">
      <path clip-path="url(#p4c1e12cd3d)" d="M 57.6 143.459197 
L 414.72 143.459197 
" style="fill:none;stroke:#b0b0b0;stroke-dasharray:5.12,1.28,0.8,1.28;stroke-dashoffset:0;stroke-width:0.8;"/>
     </g>
     <g id="line2d_58">
      <g>
       <use style="stroke:#000000;stroke-width:0.8;" x="57.6" xlink:href="#m0ba9278077" y="143.459197"/>
      </g>
     </g>
     <g id="text_30">
      <!-- 0.0150 -->
      <g transform="translate(15.609375 147.258416)scale(0.1 -0.1)">
       <use xlink:href="#DejaVuSans-48"/>
       <use x="63.623047" xlink:href="#DejaVuSans-46"/>
       <use x="95.410156" xlink:href="#DejaVuSans-48"/>
       <use x="159.033203" xlink:href="#DejaVuSans-49"/>
       <use x="222.65625" xlink:href="#DejaVuSans-53"/>
       <use x="286.279297" xlink:href="#DejaVuSans-48"/>
      </g>
     </g>
    </g>
    <g id="ytick_7">
     <g id="line2d_59">
      <path clip-path="url(#p4c1e12cd3d)" d="M 57.6 112.774206 
L 414.72 112.774206 
" style="fill:none;stroke:#b0b0b0;stroke-dasharray:5.12,1.28,0.8,1.28;stroke-dashoffset:0;stroke-width:0.8;"/>
     </g>
     <g id="line2d_60">
      <g>
       <use style="stroke:#000000;stroke-width:0.8;" x="57.6" xlink:href="#m0ba9278077" y="112.774206"/>
      </g>
     </g>
     <g id="text_31">
      <!-- 0.0175 -->
      <g transform="translate(15.609375 116.573425)scale(0.1 -0.1)">
       <use xlink:href="#DejaVuSans-48"/>
       <use x="63.623047" xlink:href="#DejaVuSans-46"/>
       <use x="95.410156" xlink:href="#DejaVuSans-48"/>
       <use x="159.033203" xlink:href="#DejaVuSans-49"/>
       <use x="222.65625" xlink:href="#DejaVuSans-55"/>
       <use x="286.279297" xlink:href="#DejaVuSans-53"/>
      </g>
     </g>
    </g>
    <g id="ytick_8">
     <g id="line2d_61">
      <path clip-path="url(#p4c1e12cd3d)" d="M 57.6 82.089215 
L 414.72 82.089215 
" style="fill:none;stroke:#b0b0b0;stroke-dasharray:5.12,1.28,0.8,1.28;stroke-dashoffset:0;stroke-width:0.8;"/>
     </g>
     <g id="line2d_62">
      <g>
       <use style="stroke:#000000;stroke-width:0.8;" x="57.6" xlink:href="#m0ba9278077" y="82.089215"/>
      </g>
     </g>
     <g id="text_32">
      <!-- 0.0200 -->
      <g transform="translate(15.609375 85.888434)scale(0.1 -0.1)">
       <use xlink:href="#DejaVuSans-48"/>
       <use x="63.623047" xlink:href="#DejaVuSans-46"/>
       <use x="95.410156" xlink:href="#DejaVuSans-48"/>
       <use x="159.033203" xlink:href="#DejaVuSans-50"/>
       <use x="222.65625" xlink:href="#DejaVuSans-48"/>
       <use x="286.279297" xlink:href="#DejaVuSans-48"/>
      </g>
     </g>
    </g>
    <g id="ytick_9">
     <g id="line2d_63">
      <path clip-path="url(#p4c1e12cd3d)" d="M 57.6 51.404224 
L 414.72 51.404224 
" style="fill:none;stroke:#b0b0b0;stroke-dasharray:5.12,1.28,0.8,1.28;stroke-dashoffset:0;stroke-width:0.8;"/>
     </g>
     <g id="line2d_64">
      <g>
       <use style="stroke:#000000;stroke-width:0.8;" x="57.6" xlink:href="#m0ba9278077" y="51.404224"/>
      </g>
     </g>
     <g id="text_33">
      <!-- 0.0225 -->
      <g transform="translate(15.609375 55.203443)scale(0.1 -0.1)">
       <use xlink:href="#DejaVuSans-48"/>
       <use x="63.623047" xlink:href="#DejaVuSans-46"/>
       <use x="95.410156" xlink:href="#DejaVuSans-48"/>
       <use x="159.033203" xlink:href="#DejaVuSans-50"/>
       <use x="222.65625" xlink:href="#DejaVuSans-50"/>
       <use x="286.279297" xlink:href="#DejaVuSans-53"/>
      </g>
     </g>
    </g>
    <g id="text_34">
     <!-- duration (s) -->
     <defs>
      <path d="M 8.5 21.578125 
L 8.5 54.6875 
L 17.484375 54.6875 
L 17.484375 21.921875 
Q 17.484375 14.15625 20.5 10.265625 
Q 23.53125 6.390625 29.59375 6.390625 
Q 36.859375 6.390625 41.078125 11.03125 
Q 45.3125 15.671875 45.3125 23.6875 
L 45.3125 54.6875 
L 54.296875 54.6875 
L 54.296875 0 
L 45.3125 0 
L 45.3125 8.40625 
Q 42.046875 3.421875 37.71875 1 
Q 33.40625 -1.421875 27.6875 -1.421875 
Q 18.265625 -1.421875 13.375 4.4375 
Q 8.5 10.296875 8.5 21.578125 
z
M 31.109375 56 
z
" id="DejaVuSans-117"/>
      <path d="M 9.421875 54.6875 
L 18.40625 54.6875 
L 18.40625 0 
L 9.421875 0 
z
M 9.421875 75.984375 
L 18.40625 75.984375 
L 18.40625 64.59375 
L 9.421875 64.59375 
z
" id="DejaVuSans-105"/>
      <path d="M 30.609375 48.390625 
Q 23.390625 48.390625 19.1875 42.75 
Q 14.984375 37.109375 14.984375 27.296875 
Q 14.984375 17.484375 19.15625 11.84375 
Q 23.34375 6.203125 30.609375 6.203125 
Q 37.796875 6.203125 41.984375 11.859375 
Q 46.1875 17.53125 46.1875 27.296875 
Q 46.1875 37.015625 41.984375 42.703125 
Q 37.796875 48.390625 30.609375 48.390625 
z
M 30.609375 56 
Q 42.328125 56 49.015625 48.375 
Q 55.71875 40.765625 55.71875 27.296875 
Q 55.71875 13.875 49.015625 6.21875 
Q 42.328125 -1.421875 30.609375 -1.421875 
Q 18.84375 -1.421875 12.171875 6.21875 
Q 5.515625 13.875 5.515625 27.296875 
Q 5.515625 40.765625 12.171875 48.375 
Q 18.84375 56 30.609375 56 
z
" id="DejaVuSans-111"/>
      <path d="M 54.890625 33.015625 
L 54.890625 0 
L 45.90625 0 
L 45.90625 32.71875 
Q 45.90625 40.484375 42.875 44.328125 
Q 39.84375 48.1875 33.796875 48.1875 
Q 26.515625 48.1875 22.3125 43.546875 
Q 18.109375 38.921875 18.109375 30.90625 
L 18.109375 0 
L 9.078125 0 
L 9.078125 54.6875 
L 18.109375 54.6875 
L 18.109375 46.1875 
Q 21.34375 51.125 25.703125 53.5625 
Q 30.078125 56 35.796875 56 
Q 45.21875 56 50.046875 50.171875 
Q 54.890625 44.34375 54.890625 33.015625 
z
" id="DejaVuSans-110"/>
      <path id="DejaVuSans-32"/>
      <path d="M 31 75.875 
Q 24.46875 64.65625 21.28125 53.65625 
Q 18.109375 42.671875 18.109375 31.390625 
Q 18.109375 20.125 21.3125 9.0625 
Q 24.515625 -2 31 -13.1875 
L 23.1875 -13.1875 
Q 15.875 -1.703125 12.234375 9.375 
Q 8.59375 20.453125 8.59375 31.390625 
Q 8.59375 42.28125 12.203125 53.3125 
Q 15.828125 64.359375 23.1875 75.875 
z
" id="DejaVuSans-40"/>
      <path d="M 8.015625 75.875 
L 15.828125 75.875 
Q 23.140625 64.359375 26.78125 53.3125 
Q 30.421875 42.28125 30.421875 31.390625 
Q 30.421875 20.453125 26.78125 9.375 
Q 23.140625 -1.703125 15.828125 -13.1875 
L 8.015625 -13.1875 
Q 14.5 -2 17.703125 9.0625 
Q 20.90625 20.125 20.90625 31.390625 
Q 20.90625 42.671875 17.703125 53.65625 
Q 14.5 64.65625 8.015625 75.875 
z
" id="DejaVuSans-41"/>
     </defs>
     <g transform="translate(9.529687 203.663156)rotate(-90)scale(0.1 -0.1)">
      <use xlink:href="#DejaVuSans-100"/>
      <use x="63.476562" xlink:href="#DejaVuSans-117"/>
      <use x="126.855469" xlink:href="#DejaVuSans-114"/>
      <use x="167.96875" xlink:href="#DejaVuSans-97"/>
      <use x="229.248047" xlink:href="#DejaVuSans-116"/>
      <use x="268.457031" xlink:href="#DejaVuSans-105"/>
      <use x="296.240234" xlink:href="#DejaVuSans-111"/>
      <use x="357.421875" xlink:href="#DejaVuSans-110"/>
      <use x="420.800781" xlink:href="#DejaVuSans-32"/>
      <use x="452.587891" xlink:href="#DejaVuSans-40"/>
      <use x="491.601562" xlink:href="#DejaVuSans-115"/>
      <use x="543.701172" xlink:href="#DejaVuSans-41"/>
     </g>
    </g>
   </g>
   <g id="line2d_65">
    <path clip-path="url(#p4c1e12cd3d)" d="M 61.612584 108.354684 
L 65.625169 195.509712 
L 69.637753 233.523819 
L 73.650337 252.052623 
L 77.662921 263.977494 
L 81.675506 271.627806 
L 85.68809 277.082938 
L 89.700674 280.210787 
L 93.713258 283.990794 
L 97.725843 286.991137 
L 101.738427 287.170481 
L 105.751011 288.85564 
L 109.763596 289.486059 
L 113.77618 290.504846 
L 117.788764 291.356414 
L 121.801348 291.385677 
L 125.813933 289.921249 
L 129.826517 292.716748 
L 133.839101 292.897763 
L 137.851685 293.051188 
L 141.86427 293.338388 
L 145.876854 292.790743 
L 149.889438 293.50728 
L 153.902022 295.488 
L 157.914607 289.106051 
L 161.927191 294.97129 
L 165.939775 295.141437 
L 169.95236 295.020202 
L 173.964944 293.213809 
L 177.977528 293.092993 
L 181.990112 291.986833 
L 186.002697 287.108191 
L 190.015281 287.009113 
L 194.027865 290.531601 
L 198.040449 292.660311 
L 202.053034 291.458836 
L 206.065618 294.06454 
L 210.078202 295.479221 
L 214.090787 286.570161 
L 218.103371 287.537946 
L 222.115955 288.285001 
L 226.128539 294.368045 
L 230.141124 287.972718 
L 234.153708 291.549971 
L 238.166292 291.61017 
L 242.178876 288.461 
L 246.191461 288.640762 
L 250.204045 288.468943 
L 254.216629 287.154595 
L 258.229213 293.126437 
L 262.241798 291.643196 
L 266.254382 289.712642 
L 270.266966 288.033754 
L 274.279551 292.014842 
L 278.292135 290.13529 
L 282.304719 288.575128 
L 286.317303 292.878951 
L 290.329888 288.915003 
L 294.342472 292.633556 
L 298.355056 291.900714 
L 302.36764 290.631933 
L 306.380225 288.119454 
L 310.392809 287.250746 
L 314.405393 288.325134 
L 318.417978 287.684682 
L 322.430562 288.741512 
L 326.443146 287.820966 
L 330.45573 288.715175 
L 334.468315 288.277059 
L 338.480899 289.037491 
L 342.493483 288.719773 
L 346.506067 289.028712 
L 350.518652 289.153291 
L 354.531236 284.76753 
L 358.54382 285.066854 
L 362.556404 289.675853 
L 366.568989 289.062574 
L 370.581573 289.284141 
L 374.594157 286.016245 
L 378.606742 264.950296 
L 382.619326 266.222004 
L 386.63191 269.099441 
L 390.644494 270.339377 
L 394.657079 260.657343 
L 398.669663 262.539403 
L 402.682247 272.796673 
L 406.694831 264.586175 
L 410.707416 239.169582 
" style="fill:none;stroke:#0000ff;stroke-dasharray:1.5,2.475;stroke-dashoffset:0;stroke-width:1.5;"/>
    <defs>
     <path d="M 0 1.5 
C 0.397805 1.5 0.77937 1.341951 1.06066 1.06066 
C 1.341951 0.77937 1.5 0.397805 1.5 0 
C 1.5 -0.397805 1.341951 -0.77937 1.06066 -1.06066 
C 0.77937 -1.341951 0.397805 -1.5 0 -1.5 
C -0.397805 -1.5 -0.77937 -1.341951 -1.06066 -1.06066 
C -1.341951 -0.77937 -1.5 -0.397805 -1.5 0 
C -1.5 0.397805 -1.341951 0.77937 -1.06066 1.06066 
C -0.77937 1.341951 -0.397805 1.5 0 1.5 
z
" id="m691628667a" style="stroke:#0000ff;"/>
    </defs>
    <g clip-path="url(#p4c1e12cd3d)">
     <use style="fill:#0000ff;stroke:#0000ff;" x="61.612584" xlink:href="#m691628667a" y="108.354684"/>
     <use style="fill:#0000ff;stroke:#0000ff;" x="65.625169" xlink:href="#m691628667a" y="195.509712"/>
     <use style="fill:#0000ff;stroke:#0000ff;" x="69.637753" xlink:href="#m691628667a" y="233.523819"/>
     <use style="fill:#0000ff;stroke:#0000ff;" x="73.650337" xlink:href="#m691628667a" y="252.052623"/>
     <use style="fill:#0000ff;stroke:#0000ff;" x="77.662921" xlink:href="#m691628667a" y="263.977494"/>
     <use style="fill:#0000ff;stroke:#0000ff;" x="81.675506" xlink:href="#m691628667a" y="271.627806"/>
     <use style="fill:#0000ff;stroke:#0000ff;" x="85.68809" xlink:href="#m691628667a" y="277.082938"/>
     <use style="fill:#0000ff;stroke:#0000ff;" x="89.700674" xlink:href="#m691628667a" y="280.210787"/>
     <use style="fill:#0000ff;stroke:#0000ff;" x="93.713258" xlink:href="#m691628667a" y="283.990794"/>
     <use style="fill:#0000ff;stroke:#0000ff;" x="97.725843" xlink:href="#m691628667a" y="286.991137"/>
     <use style="fill:#0000ff;stroke:#0000ff;" x="101.738427" xlink:href="#m691628667a" y="287.170481"/>
     <use style="fill:#0000ff;stroke:#0000ff;" x="105.751011" xlink:href="#m691628667a" y="288.85564"/>
     <use style="fill:#0000ff;stroke:#0000ff;" x="109.763596" xlink:href="#m691628667a" y="289.486059"/>
     <use style="fill:#0000ff;stroke:#0000ff;" x="113.77618" xlink:href="#m691628667a" y="290.504846"/>
     <use style="fill:#0000ff;stroke:#0000ff;" x="117.788764" xlink:href="#m691628667a" y="291.356414"/>
     <use style="fill:#0000ff;stroke:#0000ff;" x="121.801348" xlink:href="#m691628667a" y="291.385677"/>
     <use style="fill:#0000ff;stroke:#0000ff;" x="125.813933" xlink:href="#m691628667a" y="289.921249"/>
     <use style="fill:#0000ff;stroke:#0000ff;" x="129.826517" xlink:href="#m691628667a" y="292.716748"/>
     <use style="fill:#0000ff;stroke:#0000ff;" x="133.839101" xlink:href="#m691628667a" y="292.897763"/>
     <use style="fill:#0000ff;stroke:#0000ff;" x="137.851685" xlink:href="#m691628667a" y="293.051188"/>
     <use style="fill:#0000ff;stroke:#0000ff;" x="141.86427" xlink:href="#m691628667a" y="293.338388"/>
     <use style="fill:#0000ff;stroke:#0000ff;" x="145.876854" xlink:href="#m691628667a" y="292.790743"/>
     <use style="fill:#0000ff;stroke:#0000ff;" x="149.889438" xlink:href="#m691628667a" y="293.50728"/>
     <use style="fill:#0000ff;stroke:#0000ff;" x="153.902022" xlink:href="#m691628667a" y="295.488"/>
     <use style="fill:#0000ff;stroke:#0000ff;" x="157.914607" xlink:href="#m691628667a" y="289.106051"/>
     <use style="fill:#0000ff;stroke:#0000ff;" x="161.927191" xlink:href="#m691628667a" y="294.97129"/>
     <use style="fill:#0000ff;stroke:#0000ff;" x="165.939775" xlink:href="#m691628667a" y="295.141437"/>
     <use style="fill:#0000ff;stroke:#0000ff;" x="169.95236" xlink:href="#m691628667a" y="295.020202"/>
     <use style="fill:#0000ff;stroke:#0000ff;" x="173.964944" xlink:href="#m691628667a" y="293.213809"/>
     <use style="fill:#0000ff;stroke:#0000ff;" x="177.977528" xlink:href="#m691628667a" y="293.092993"/>
     <use style="fill:#0000ff;stroke:#0000ff;" x="181.990112" xlink:href="#m691628667a" y="291.986833"/>
     <use style="fill:#0000ff;stroke:#0000ff;" x="186.002697" xlink:href="#m691628667a" y="287.108191"/>
     <use style="fill:#0000ff;stroke:#0000ff;" x="190.015281" xlink:href="#m691628667a" y="287.009113"/>
     <use style="fill:#0000ff;stroke:#0000ff;" x="194.027865" xlink:href="#m691628667a" y="290.531601"/>
     <use style="fill:#0000ff;stroke:#0000ff;" x="198.040449" xlink:href="#m691628667a" y="292.660311"/>
     <use style="fill:#0000ff;stroke:#0000ff;" x="202.053034" xlink:href="#m691628667a" y="291.458836"/>
     <use style="fill:#0000ff;stroke:#0000ff;" x="206.065618" xlink:href="#m691628667a" y="294.06454"/>
     <use style="fill:#0000ff;stroke:#0000ff;" x="210.078202" xlink:href="#m691628667a" y="295.479221"/>
     <use style="fill:#0000ff;stroke:#0000ff;" x="214.090787" xlink:href="#m691628667a" y="286.570161"/>
     <use style="fill:#0000ff;stroke:#0000ff;" x="218.103371" xlink:href="#m691628667a" y="287.537946"/>
     <use style="fill:#0000ff;stroke:#0000ff;" x="222.115955" xlink:href="#m691628667a" y="288.285001"/>
     <use style="fill:#0000ff;stroke:#0000ff;" x="226.128539" xlink:href="#m691628667a" y="294.368045"/>
     <use style="fill:#0000ff;stroke:#0000ff;" x="230.141124" xlink:href="#m691628667a" y="287.972718"/>
     <use style="fill:#0000ff;stroke:#0000ff;" x="234.153708" xlink:href="#m691628667a" y="291.549971"/>
     <use style="fill:#0000ff;stroke:#0000ff;" x="238.166292" xlink:href="#m691628667a" y="291.61017"/>
     <use style="fill:#0000ff;stroke:#0000ff;" x="242.178876" xlink:href="#m691628667a" y="288.461"/>
     <use style="fill:#0000ff;stroke:#0000ff;" x="246.191461" xlink:href="#m691628667a" y="288.640762"/>
     <use style="fill:#0000ff;stroke:#0000ff;" x="250.204045" xlink:href="#m691628667a" y="288.468943"/>
     <use style="fill:#0000ff;stroke:#0000ff;" x="254.216629" xlink:href="#m691628667a" y="287.154595"/>
     <use style="fill:#0000ff;stroke:#0000ff;" x="258.229213" xlink:href="#m691628667a" y="293.126437"/>
     <use style="fill:#0000ff;stroke:#0000ff;" x="262.241798" xlink:href="#m691628667a" y="291.643196"/>
     <use style="fill:#0000ff;stroke:#0000ff;" x="266.254382" xlink:href="#m691628667a" y="289.712642"/>
     <use style="fill:#0000ff;stroke:#0000ff;" x="270.266966" xlink:href="#m691628667a" y="288.033754"/>
     <use style="fill:#0000ff;stroke:#0000ff;" x="274.279551" xlink:href="#m691628667a" y="292.014842"/>
     <use style="fill:#0000ff;stroke:#0000ff;" x="278.292135" xlink:href="#m691628667a" y="290.13529"/>
     <use style="fill:#0000ff;stroke:#0000ff;" x="282.304719" xlink:href="#m691628667a" y="288.575128"/>
     <use style="fill:#0000ff;stroke:#0000ff;" x="286.317303" xlink:href="#m691628667a" y="292.878951"/>
     <use style="fill:#0000ff;stroke:#0000ff;" x="290.329888" xlink:href="#m691628667a" y="288.915003"/>
     <use style="fill:#0000ff;stroke:#0000ff;" x="294.342472" xlink:href="#m691628667a" y="292.633556"/>
     <use style="fill:#0000ff;stroke:#0000ff;" x="298.355056" xlink:href="#m691628667a" y="291.900714"/>
     <use style="fill:#0000ff;stroke:#0000ff;" x="302.36764" xlink:href="#m691628667a" y="290.631933"/>
     <use style="fill:#0000ff;stroke:#0000ff;" x="306.380225" xlink:href="#m691628667a" y="288.119454"/>
     <use style="fill:#0000ff;stroke:#0000ff;" x="310.392809" xlink:href="#m691628667a" y="287.250746"/>
     <use style="fill:#0000ff;stroke:#0000ff;" x="314.405393" xlink:href="#m691628667a" y="288.325134"/>
     <use style="fill:#0000ff;stroke:#0000ff;" x="318.417978" xlink:href="#m691628667a" y="287.684682"/>
     <use style="fill:#0000ff;stroke:#0000ff;" x="322.430562" xlink:href="#m691628667a" y="288.741512"/>
     <use style="fill:#0000ff;stroke:#0000ff;" x="326.443146" xlink:href="#m691628667a" y="287.820966"/>
     <use style="fill:#0000ff;stroke:#0000ff;" x="330.45573" xlink:href="#m691628667a" y="288.715175"/>
     <use style="fill:#0000ff;stroke:#0000ff;" x="334.468315" xlink:href="#m691628667a" y="288.277059"/>
     <use style="fill:#0000ff;stroke:#0000ff;" x="338.480899" xlink:href="#m691628667a" y="289.037491"/>
     <use style="fill:#0000ff;stroke:#0000ff;" x="342.493483" xlink:href="#m691628667a" y="288.719773"/>
     <use style="fill:#0000ff;stroke:#0000ff;" x="346.506067" xlink:href="#m691628667a" y="289.028712"/>
     <use style="fill:#0000ff;stroke:#0000ff;" x="350.518652" xlink:href="#m691628667a" y="289.153291"/>
     <use style="fill:#0000ff;stroke:#0000ff;" x="354.531236" xlink:href="#m691628667a" y="284.76753"/>
     <use style="fill:#0000ff;stroke:#0000ff;" x="358.54382" xlink:href="#m691628667a" y="285.066854"/>
     <use style="fill:#0000ff;stroke:#0000ff;" x="362.556404" xlink:href="#m691628667a" y="289.675853"/>
     <use style="fill:#0000ff;stroke:#0000ff;" x="366.568989" xlink:href="#m691628667a" y="289.062574"/>
     <use style="fill:#0000ff;stroke:#0000ff;" x="370.581573" xlink:href="#m691628667a" y="289.284141"/>
     <use style="fill:#0000ff;stroke:#0000ff;" x="374.594157" xlink:href="#m691628667a" y="286.016245"/>
     <use style="fill:#0000ff;stroke:#0000ff;" x="378.606742" xlink:href="#m691628667a" y="264.950296"/>
     <use style="fill:#0000ff;stroke:#0000ff;" x="382.619326" xlink:href="#m691628667a" y="266.222004"/>
     <use style="fill:#0000ff;stroke:#0000ff;" x="386.63191" xlink:href="#m691628667a" y="269.099441"/>
     <use style="fill:#0000ff;stroke:#0000ff;" x="390.644494" xlink:href="#m691628667a" y="270.339377"/>
     <use style="fill:#0000ff;stroke:#0000ff;" x="394.657079" xlink:href="#m691628667a" y="260.657343"/>
     <use style="fill:#0000ff;stroke:#0000ff;" x="398.669663" xlink:href="#m691628667a" y="262.539403"/>
     <use style="fill:#0000ff;stroke:#0000ff;" x="402.682247" xlink:href="#m691628667a" y="272.796673"/>
     <use style="fill:#0000ff;stroke:#0000ff;" x="406.694831" xlink:href="#m691628667a" y="264.586175"/>
     <use style="fill:#0000ff;stroke:#0000ff;" x="410.707416" xlink:href="#m691628667a" y="239.169582"/>
    </g>
   </g>
   <g id="line2d_66">
    <path clip-path="url(#p4c1e12cd3d)" d="M 61.612584 101.224844 
L 65.625169 112.11128 
L 69.637753 114.475351 
L 73.650337 115.858678 
L 77.662921 116.272966 
L 81.675506 114.278032 
L 85.68809 113.617931 
L 89.700674 112.599144 
L 93.713258 112.604997 
L 97.725843 112.489197 
L 101.738427 112.472893 
L 105.751011 112.022653 
L 109.763596 110.98589 
L 113.77618 111.262639 
L 117.788764 111.037728 
L 121.801348 109.346298 
L 125.813933 99.781736 
L 129.826517 107.037827 
L 133.839101 106.171628 
L 137.851685 106.936659 
L 141.86427 102.930487 
L 145.876854 102.989014 
L 149.889438 102.163366 
L 153.902022 96.768433 
L 157.914607 91.512711 
L 161.927191 95.678577 
L 165.939775 91.650667 
L 169.95236 89.492276 
L 173.964944 88.329679 
L 177.977528 95.08411 
L 181.990112 88.414125 
L 186.002697 78.281434 
L 190.015281 74.548249 
L 194.027865 84.006626 
L 198.040449 89.533245 
L 202.053034 81.963616 
L 206.065618 87.845996 
L 210.078202 86.364009 
L 214.090787 67.877846 
L 218.103371 69.649959 
L 222.115955 75.599644 
L 226.128539 81.240808 
L 230.141124 67.489895 
L 234.153708 71.069656 
L 238.166292 86.481481 
L 242.178876 66.891248 
L 246.191461 64.79222 
L 250.204045 62.987081 
L 254.216629 72.975127 
L 258.229213 88.832175 
L 262.241798 87.189657 
L 266.254382 68.185948 
L 270.266966 64.089478 
L 274.279551 83.327713 
L 278.292135 69.112765 
L 282.304719 64.063977 
L 286.317303 83.567674 
L 290.329888 70.876099 
L 294.342472 87.443414 
L 298.355056 73.883549 
L 302.36764 76.345027 
L 306.380225 63.927275 
L 310.392809 55.14572 
L 314.405393 53.568 
L 318.417978 56.062921 
L 322.430562 60.218337 
L 326.443146 58.034444 
L 330.45573 61.791458 
L 334.468315 58.121399 
L 338.480899 57.811624 
L 342.493483 59.091692 
L 346.506067 59.750539 
L 350.518652 58.027756 
L 354.531236 80.302286 
L 358.54382 72.429572 
L 362.556404 56.343433 
L 366.568989 69.54043 
L 370.581573 74.87809 
L 374.594157 76.681139 
L 378.606742 88.4668 
L 382.619326 89.935409 
L 386.63191 92.710005 
L 390.644494 97.215328 
L 394.657079 100.545513 
L 398.669663 81.928082 
L 402.682247 79.771363 
L 406.694831 59.715423 
L 410.707416 55.077578 
" style="fill:none;stroke:#ff0000;stroke-dasharray:1.5,2.475;stroke-dashoffset:0;stroke-width:1.5;"/>
    <defs>
     <path d="M 0 1.5 
C 0.397805 1.5 0.77937 1.341951 1.06066 1.06066 
C 1.341951 0.77937 1.5 0.397805 1.5 0 
C 1.5 -0.397805 1.341951 -0.77937 1.06066 -1.06066 
C 0.77937 -1.341951 0.397805 -1.5 0 -1.5 
C -0.397805 -1.5 -0.77937 -1.341951 -1.06066 -1.06066 
C -1.341951 -0.77937 -1.5 -0.397805 -1.5 0 
C -1.5 0.397805 -1.341951 0.77937 -1.06066 1.06066 
C -0.77937 1.341951 -0.397805 1.5 0 1.5 
z
" id="m4aaf7f929b" style="stroke:#ff0000;"/>
    </defs>
    <g clip-path="url(#p4c1e12cd3d)">
     <use style="fill:#ff0000;stroke:#ff0000;" x="61.612584" xlink:href="#m4aaf7f929b" y="101.224844"/>
     <use style="fill:#ff0000;stroke:#ff0000;" x="65.625169" xlink:href="#m4aaf7f929b" y="112.11128"/>
     <use style="fill:#ff0000;stroke:#ff0000;" x="69.637753" xlink:href="#m4aaf7f929b" y="114.475351"/>
     <use style="fill:#ff0000;stroke:#ff0000;" x="73.650337" xlink:href="#m4aaf7f929b" y="115.858678"/>
     <use style="fill:#ff0000;stroke:#ff0000;" x="77.662921" xlink:href="#m4aaf7f929b" y="116.272966"/>
     <use style="fill:#ff0000;stroke:#ff0000;" x="81.675506" xlink:href="#m4aaf7f929b" y="114.278032"/>
     <use style="fill:#ff0000;stroke:#ff0000;" x="85.68809" xlink:href="#m4aaf7f929b" y="113.617931"/>
     <use style="fill:#ff0000;stroke:#ff0000;" x="89.700674" xlink:href="#m4aaf7f929b" y="112.599144"/>
     <use style="fill:#ff0000;stroke:#ff0000;" x="93.713258" xlink:href="#m4aaf7f929b" y="112.604997"/>
     <use style="fill:#ff0000;stroke:#ff0000;" x="97.725843" xlink:href="#m4aaf7f929b" y="112.489197"/>
     <use style="fill:#ff0000;stroke:#ff0000;" x="101.738427" xlink:href="#m4aaf7f929b" y="112.472893"/>
     <use style="fill:#ff0000;stroke:#ff0000;" x="105.751011" xlink:href="#m4aaf7f929b" y="112.022653"/>
     <use style="fill:#ff0000;stroke:#ff0000;" x="109.763596" xlink:href="#m4aaf7f929b" y="110.98589"/>
     <use style="fill:#ff0000;stroke:#ff0000;" x="113.77618" xlink:href="#m4aaf7f929b" y="111.262639"/>
     <use style="fill:#ff0000;stroke:#ff0000;" x="117.788764" xlink:href="#m4aaf7f929b" y="111.037728"/>
     <use style="fill:#ff0000;stroke:#ff0000;" x="121.801348" xlink:href="#m4aaf7f929b" y="109.346298"/>
     <use style="fill:#ff0000;stroke:#ff0000;" x="125.813933" xlink:href="#m4aaf7f929b" y="99.781736"/>
     <use style="fill:#ff0000;stroke:#ff0000;" x="129.826517" xlink:href="#m4aaf7f929b" y="107.037827"/>
     <use style="fill:#ff0000;stroke:#ff0000;" x="133.839101" xlink:href="#m4aaf7f929b" y="106.171628"/>
     <use style="fill:#ff0000;stroke:#ff0000;" x="137.851685" xlink:href="#m4aaf7f929b" y="106.936659"/>
     <use style="fill:#ff0000;stroke:#ff0000;" x="141.86427" xlink:href="#m4aaf7f929b" y="102.930487"/>
     <use style="fill:#ff0000;stroke:#ff0000;" x="145.876854" xlink:href="#m4aaf7f929b" y="102.989014"/>
     <use style="fill:#ff0000;stroke:#ff0000;" x="149.889438" xlink:href="#m4aaf7f929b" y="102.163366"/>
     <use style="fill:#ff0000;stroke:#ff0000;" x="153.902022" xlink:href="#m4aaf7f929b" y="96.768433"/>
     <use style="fill:#ff0000;stroke:#ff0000;" x="157.914607" xlink:href="#m4aaf7f929b" y="91.512711"/>
     <use style="fill:#ff0000;stroke:#ff0000;" x="161.927191" xlink:href="#m4aaf7f929b" y="95.678577"/>
     <use style="fill:#ff0000;stroke:#ff0000;" x="165.939775" xlink:href="#m4aaf7f929b" y="91.650667"/>
     <use style="fill:#ff0000;stroke:#ff0000;" x="169.95236" xlink:href="#m4aaf7f929b" y="89.492276"/>
     <use style="fill:#ff0000;stroke:#ff0000;" x="173.964944" xlink:href="#m4aaf7f929b" y="88.329679"/>
     <use style="fill:#ff0000;stroke:#ff0000;" x="177.977528" xlink:href="#m4aaf7f929b" y="95.08411"/>
     <use style="fill:#ff0000;stroke:#ff0000;" x="181.990112" xlink:href="#m4aaf7f929b" y="88.414125"/>
     <use style="fill:#ff0000;stroke:#ff0000;" x="186.002697" xlink:href="#m4aaf7f929b" y="78.281434"/>
     <use style="fill:#ff0000;stroke:#ff0000;" x="190.015281" xlink:href="#m4aaf7f929b" y="74.548249"/>
     <use style="fill:#ff0000;stroke:#ff0000;" x="194.027865" xlink:href="#m4aaf7f929b" y="84.006626"/>
     <use style="fill:#ff0000;stroke:#ff0000;" x="198.040449" xlink:href="#m4aaf7f929b" y="89.533245"/>
     <use style="fill:#ff0000;stroke:#ff0000;" x="202.053034" xlink:href="#m4aaf7f929b" y="81.963616"/>
     <use style="fill:#ff0000;stroke:#ff0000;" x="206.065618" xlink:href="#m4aaf7f929b" y="87.845996"/>
     <use style="fill:#ff0000;stroke:#ff0000;" x="210.078202" xlink:href="#m4aaf7f929b" y="86.364009"/>
     <use style="fill:#ff0000;stroke:#ff0000;" x="214.090787" xlink:href="#m4aaf7f929b" y="67.877846"/>
     <use style="fill:#ff0000;stroke:#ff0000;" x="218.103371" xlink:href="#m4aaf7f929b" y="69.649959"/>
     <use style="fill:#ff0000;stroke:#ff0000;" x="222.115955" xlink:href="#m4aaf7f929b" y="75.599644"/>
     <use style="fill:#ff0000;stroke:#ff0000;" x="226.128539" xlink:href="#m4aaf7f929b" y="81.240808"/>
     <use style="fill:#ff0000;stroke:#ff0000;" x="230.141124" xlink:href="#m4aaf7f929b" y="67.489895"/>
     <use style="fill:#ff0000;stroke:#ff0000;" x="234.153708" xlink:href="#m4aaf7f929b" y="71.069656"/>
     <use style="fill:#ff0000;stroke:#ff0000;" x="238.166292" xlink:href="#m4aaf7f929b" y="86.481481"/>
     <use style="fill:#ff0000;stroke:#ff0000;" x="242.178876" xlink:href="#m4aaf7f929b" y="66.891248"/>
     <use style="fill:#ff0000;stroke:#ff0000;" x="246.191461" xlink:href="#m4aaf7f929b" y="64.79222"/>
     <use style="fill:#ff0000;stroke:#ff0000;" x="250.204045" xlink:href="#m4aaf7f929b" y="62.987081"/>
     <use style="fill:#ff0000;stroke:#ff0000;" x="254.216629" xlink:href="#m4aaf7f929b" y="72.975127"/>
     <use style="fill:#ff0000;stroke:#ff0000;" x="258.229213" xlink:href="#m4aaf7f929b" y="88.832175"/>
     <use style="fill:#ff0000;stroke:#ff0000;" x="262.241798" xlink:href="#m4aaf7f929b" y="87.189657"/>
     <use style="fill:#ff0000;stroke:#ff0000;" x="266.254382" xlink:href="#m4aaf7f929b" y="68.185948"/>
     <use style="fill:#ff0000;stroke:#ff0000;" x="270.266966" xlink:href="#m4aaf7f929b" y="64.089478"/>
     <use style="fill:#ff0000;stroke:#ff0000;" x="274.279551" xlink:href="#m4aaf7f929b" y="83.327713"/>
     <use style="fill:#ff0000;stroke:#ff0000;" x="278.292135" xlink:href="#m4aaf7f929b" y="69.112765"/>
     <use style="fill:#ff0000;stroke:#ff0000;" x="282.304719" xlink:href="#m4aaf7f929b" y="64.063977"/>
     <use style="fill:#ff0000;stroke:#ff0000;" x="286.317303" xlink:href="#m4aaf7f929b" y="83.567674"/>
     <use style="fill:#ff0000;stroke:#ff0000;" x="290.329888" xlink:href="#m4aaf7f929b" y="70.876099"/>
     <use style="fill:#ff0000;stroke:#ff0000;" x="294.342472" xlink:href="#m4aaf7f929b" y="87.443414"/>
     <use style="fill:#ff0000;stroke:#ff0000;" x="298.355056" xlink:href="#m4aaf7f929b" y="73.883549"/>
     <use style="fill:#ff0000;stroke:#ff0000;" x="302.36764" xlink:href="#m4aaf7f929b" y="76.345027"/>
     <use style="fill:#ff0000;stroke:#ff0000;" x="306.380225" xlink:href="#m4aaf7f929b" y="63.927275"/>
     <use style="fill:#ff0000;stroke:#ff0000;" x="310.392809" xlink:href="#m4aaf7f929b" y="55.14572"/>
     <use style="fill:#ff0000;stroke:#ff0000;" x="314.405393" xlink:href="#m4aaf7f929b" y="53.568"/>
     <use style="fill:#ff0000;stroke:#ff0000;" x="318.417978" xlink:href="#m4aaf7f929b" y="56.062921"/>
     <use style="fill:#ff0000;stroke:#ff0000;" x="322.430562" xlink:href="#m4aaf7f929b" y="60.218337"/>
     <use style="fill:#ff0000;stroke:#ff0000;" x="326.443146" xlink:href="#m4aaf7f929b" y="58.034444"/>
     <use style="fill:#ff0000;stroke:#ff0000;" x="330.45573" xlink:href="#m4aaf7f929b" y="61.791458"/>
     <use style="fill:#ff0000;stroke:#ff0000;" x="334.468315" xlink:href="#m4aaf7f929b" y="58.121399"/>
     <use style="fill:#ff0000;stroke:#ff0000;" x="338.480899" xlink:href="#m4aaf7f929b" y="57.811624"/>
     <use style="fill:#ff0000;stroke:#ff0000;" x="342.493483" xlink:href="#m4aaf7f929b" y="59.091692"/>
     <use style="fill:#ff0000;stroke:#ff0000;" x="346.506067" xlink:href="#m4aaf7f929b" y="59.750539"/>
     <use style="fill:#ff0000;stroke:#ff0000;" x="350.518652" xlink:href="#m4aaf7f929b" y="58.027756"/>
     <use style="fill:#ff0000;stroke:#ff0000;" x="354.531236" xlink:href="#m4aaf7f929b" y="80.302286"/>
     <use style="fill:#ff0000;stroke:#ff0000;" x="358.54382" xlink:href="#m4aaf7f929b" y="72.429572"/>
     <use style="fill:#ff0000;stroke:#ff0000;" x="362.556404" xlink:href="#m4aaf7f929b" y="56.343433"/>
     <use style="fill:#ff0000;stroke:#ff0000;" x="366.568989" xlink:href="#m4aaf7f929b" y="69.54043"/>
     <use style="fill:#ff0000;stroke:#ff0000;" x="370.581573" xlink:href="#m4aaf7f929b" y="74.87809"/>
     <use style="fill:#ff0000;stroke:#ff0000;" x="374.594157" xlink:href="#m4aaf7f929b" y="76.681139"/>
     <use style="fill:#ff0000;stroke:#ff0000;" x="378.606742" xlink:href="#m4aaf7f929b" y="88.4668"/>
     <use style="fill:#ff0000;stroke:#ff0000;" x="382.619326" xlink:href="#m4aaf7f929b" y="89.935409"/>
     <use style="fill:#ff0000;stroke:#ff0000;" x="386.63191" xlink:href="#m4aaf7f929b" y="92.710005"/>
     <use style="fill:#ff0000;stroke:#ff0000;" x="390.644494" xlink:href="#m4aaf7f929b" y="97.215328"/>
     <use style="fill:#ff0000;stroke:#ff0000;" x="394.657079" xlink:href="#m4aaf7f929b" y="100.545513"/>
     <use style="fill:#ff0000;stroke:#ff0000;" x="398.669663" xlink:href="#m4aaf7f929b" y="81.928082"/>
     <use style="fill:#ff0000;stroke:#ff0000;" x="402.682247" xlink:href="#m4aaf7f929b" y="79.771363"/>
     <use style="fill:#ff0000;stroke:#ff0000;" x="406.694831" xlink:href="#m4aaf7f929b" y="59.715423"/>
     <use style="fill:#ff0000;stroke:#ff0000;" x="410.707416" xlink:href="#m4aaf7f929b" y="55.077578"/>
    </g>
   </g>
   <g id="line2d_67">
    <path clip-path="url(#p4c1e12cd3d)" d="M 61.612584 104.789764 
L 65.625169 153.810496 
L 69.637753 173.999585 
L 73.650337 183.955651 
L 77.662921 190.12523 
L 81.675506 192.952919 
L 85.68809 195.350435 
L 89.700674 196.404965 
L 93.713258 198.297895 
L 97.725843 199.740167 
L 101.738427 199.821687 
L 105.751011 200.439146 
L 109.763596 200.235974 
L 113.77618 200.883742 
L 117.788764 201.197071 
L 121.801348 200.365988 
L 125.813933 194.851492 
L 129.826517 199.877287 
L 133.839101 199.534696 
L 137.851685 199.993923 
L 141.86427 198.134438 
L 145.876854 197.889878 
L 149.889438 197.835323 
L 153.902022 196.128216 
L 157.914607 190.309381 
L 161.927191 195.324934 
L 165.939775 193.396052 
L 169.95236 192.256239 
L 173.964944 190.771744 
L 177.977528 194.088551 
L 181.990112 190.200479 
L 186.002697 182.694812 
L 190.015281 180.778681 
L 194.027865 187.269114 
L 198.040449 191.096778 
L 202.053034 186.711226 
L 206.065618 190.955268 
L 210.078202 190.921615 
L 214.090787 177.224003 
L 218.103371 178.593953 
L 222.115955 181.942323 
L 226.128539 187.804426 
L 230.141124 177.731307 
L 234.153708 181.309813 
L 238.166292 189.045825 
L 242.178876 177.676124 
L 246.191461 176.716491 
L 250.204045 175.728012 
L 254.216629 180.064861 
L 258.229213 190.979306 
L 262.241798 189.416427 
L 266.254382 178.949295 
L 270.266966 176.061616 
L 274.279551 187.671278 
L 278.292135 179.624027 
L 282.304719 176.319553 
L 286.317303 188.223312 
L 290.329888 179.895551 
L 294.342472 190.038485 
L 298.355056 182.892132 
L 302.36764 183.48848 
L 306.380225 176.023364 
L 310.392809 171.198233 
L 314.405393 170.946567 
L 318.417978 171.873802 
L 322.430562 174.479924 
L 326.443146 172.927705 
L 330.45573 175.253316 
L 334.468315 173.199229 
L 338.480899 173.424557 
L 342.493483 173.905733 
L 346.506067 174.389626 
L 350.518652 173.590523 
L 354.531236 182.534908 
L 358.54382 178.748213 
L 362.556404 173.009643 
L 366.568989 179.301502 
L 370.581573 182.081115 
L 374.594157 181.348692 
L 378.606742 176.708548 
L 382.619326 178.078706 
L 386.63191 180.904723 
L 390.644494 183.777352 
L 394.657079 180.601428 
L 398.669663 172.233743 
L 402.682247 176.284018 
L 406.694831 162.150799 
L 410.707416 147.12358 
" style="fill:none;stroke:#008000;stroke-dasharray:1.5,2.475;stroke-dashoffset:0;stroke-width:1.5;"/>
    <defs>
     <path d="M 0 1.5 
C 0.397805 1.5 0.77937 1.341951 1.06066 1.06066 
C 1.341951 0.77937 1.5 0.397805 1.5 0 
C 1.5 -0.397805 1.341951 -0.77937 1.06066 -1.06066 
C 0.77937 -1.341951 0.397805 -1.5 0 -1.5 
C -0.397805 -1.5 -0.77937 -1.341951 -1.06066 -1.06066 
C -1.341951 -0.77937 -1.5 -0.397805 -1.5 0 
C -1.5 0.397805 -1.341951 0.77937 -1.06066 1.06066 
C -0.77937 1.341951 -0.397805 1.5 0 1.5 
z
" id="m6246eb876c" style="stroke:#008000;"/>
    </defs>
    <g clip-path="url(#p4c1e12cd3d)">
     <use style="fill:#008000;stroke:#008000;" x="61.612584" xlink:href="#m6246eb876c" y="104.789764"/>
     <use style="fill:#008000;stroke:#008000;" x="65.625169" xlink:href="#m6246eb876c" y="153.810496"/>
     <use style="fill:#008000;stroke:#008000;" x="69.637753" xlink:href="#m6246eb876c" y="173.999585"/>
     <use style="fill:#008000;stroke:#008000;" x="73.650337" xlink:href="#m6246eb876c" y="183.955651"/>
     <use style="fill:#008000;stroke:#008000;" x="77.662921" xlink:href="#m6246eb876c" y="190.12523"/>
     <use style="fill:#008000;stroke:#008000;" x="81.675506" xlink:href="#m6246eb876c" y="192.952919"/>
     <use style="fill:#008000;stroke:#008000;" x="85.68809" xlink:href="#m6246eb876c" y="195.350435"/>
     <use style="fill:#008000;stroke:#008000;" x="89.700674" xlink:href="#m6246eb876c" y="196.404965"/>
     <use style="fill:#008000;stroke:#008000;" x="93.713258" xlink:href="#m6246eb876c" y="198.297895"/>
     <use style="fill:#008000;stroke:#008000;" x="97.725843" xlink:href="#m6246eb876c" y="199.740167"/>
     <use style="fill:#008000;stroke:#008000;" x="101.738427" xlink:href="#m6246eb876c" y="199.821687"/>
     <use style="fill:#008000;stroke:#008000;" x="105.751011" xlink:href="#m6246eb876c" y="200.439146"/>
     <use style="fill:#008000;stroke:#008000;" x="109.763596" xlink:href="#m6246eb876c" y="200.235974"/>
     <use style="fill:#008000;stroke:#008000;" x="113.77618" xlink:href="#m6246eb876c" y="200.883742"/>
     <use style="fill:#008000;stroke:#008000;" x="117.788764" xlink:href="#m6246eb876c" y="201.197071"/>
     <use style="fill:#008000;stroke:#008000;" x="121.801348" xlink:href="#m6246eb876c" y="200.365988"/>
     <use style="fill:#008000;stroke:#008000;" x="125.813933" xlink:href="#m6246eb876c" y="194.851492"/>
     <use style="fill:#008000;stroke:#008000;" x="129.826517" xlink:href="#m6246eb876c" y="199.877287"/>
     <use style="fill:#008000;stroke:#008000;" x="133.839101" xlink:href="#m6246eb876c" y="199.534696"/>
     <use style="fill:#008000;stroke:#008000;" x="137.851685" xlink:href="#m6246eb876c" y="199.993923"/>
     <use style="fill:#008000;stroke:#008000;" x="141.86427" xlink:href="#m6246eb876c" y="198.134438"/>
     <use style="fill:#008000;stroke:#008000;" x="145.876854" xlink:href="#m6246eb876c" y="197.889878"/>
     <use style="fill:#008000;stroke:#008000;" x="149.889438" xlink:href="#m6246eb876c" y="197.835323"/>
     <use style="fill:#008000;stroke:#008000;" x="153.902022" xlink:href="#m6246eb876c" y="196.128216"/>
     <use style="fill:#008000;stroke:#008000;" x="157.914607" xlink:href="#m6246eb876c" y="190.309381"/>
     <use style="fill:#008000;stroke:#008000;" x="161.927191" xlink:href="#m6246eb876c" y="195.324934"/>
     <use style="fill:#008000;stroke:#008000;" x="165.939775" xlink:href="#m6246eb876c" y="193.396052"/>
     <use style="fill:#008000;stroke:#008000;" x="169.95236" xlink:href="#m6246eb876c" y="192.256239"/>
     <use style="fill:#008000;stroke:#008000;" x="173.964944" xlink:href="#m6246eb876c" y="190.771744"/>
     <use style="fill:#008000;stroke:#008000;" x="177.977528" xlink:href="#m6246eb876c" y="194.088551"/>
     <use style="fill:#008000;stroke:#008000;" x="181.990112" xlink:href="#m6246eb876c" y="190.200479"/>
     <use style="fill:#008000;stroke:#008000;" x="186.002697" xlink:href="#m6246eb876c" y="182.694812"/>
     <use style="fill:#008000;stroke:#008000;" x="190.015281" xlink:href="#m6246eb876c" y="180.778681"/>
     <use style="fill:#008000;stroke:#008000;" x="194.027865" xlink:href="#m6246eb876c" y="187.269114"/>
     <use style="fill:#008000;stroke:#008000;" x="198.040449" xlink:href="#m6246eb876c" y="191.096778"/>
     <use style="fill:#008000;stroke:#008000;" x="202.053034" xlink:href="#m6246eb876c" y="186.711226"/>
     <use style="fill:#008000;stroke:#008000;" x="206.065618" xlink:href="#m6246eb876c" y="190.955268"/>
     <use style="fill:#008000;stroke:#008000;" x="210.078202" xlink:href="#m6246eb876c" y="190.921615"/>
     <use style="fill:#008000;stroke:#008000;" x="214.090787" xlink:href="#m6246eb876c" y="177.224003"/>
     <use style="fill:#008000;stroke:#008000;" x="218.103371" xlink:href="#m6246eb876c" y="178.593953"/>
     <use style="fill:#008000;stroke:#008000;" x="222.115955" xlink:href="#m6246eb876c" y="181.942323"/>
     <use style="fill:#008000;stroke:#008000;" x="226.128539" xlink:href="#m6246eb876c" y="187.804426"/>
     <use style="fill:#008000;stroke:#008000;" x="230.141124" xlink:href="#m6246eb876c" y="177.731307"/>
     <use style="fill:#008000;stroke:#008000;" x="234.153708" xlink:href="#m6246eb876c" y="181.309813"/>
     <use style="fill:#008000;stroke:#008000;" x="238.166292" xlink:href="#m6246eb876c" y="189.045825"/>
     <use style="fill:#008000;stroke:#008000;" x="242.178876" xlink:href="#m6246eb876c" y="177.676124"/>
     <use style="fill:#008000;stroke:#008000;" x="246.191461" xlink:href="#m6246eb876c" y="176.716491"/>
     <use style="fill:#008000;stroke:#008000;" x="250.204045" xlink:href="#m6246eb876c" y="175.728012"/>
     <use style="fill:#008000;stroke:#008000;" x="254.216629" xlink:href="#m6246eb876c" y="180.064861"/>
     <use style="fill:#008000;stroke:#008000;" x="258.229213" xlink:href="#m6246eb876c" y="190.979306"/>
     <use style="fill:#008000;stroke:#008000;" x="262.241798" xlink:href="#m6246eb876c" y="189.416427"/>
     <use style="fill:#008000;stroke:#008000;" x="266.254382" xlink:href="#m6246eb876c" y="178.949295"/>
     <use style="fill:#008000;stroke:#008000;" x="270.266966" xlink:href="#m6246eb876c" y="176.061616"/>
     <use style="fill:#008000;stroke:#008000;" x="274.279551" xlink:href="#m6246eb876c" y="187.671278"/>
     <use style="fill:#008000;stroke:#008000;" x="278.292135" xlink:href="#m6246eb876c" y="179.624027"/>
     <use style="fill:#008000;stroke:#008000;" x="282.304719" xlink:href="#m6246eb876c" y="176.319553"/>
     <use style="fill:#008000;stroke:#008000;" x="286.317303" xlink:href="#m6246eb876c" y="188.223312"/>
     <use style="fill:#008000;stroke:#008000;" x="290.329888" xlink:href="#m6246eb876c" y="179.895551"/>
     <use style="fill:#008000;stroke:#008000;" x="294.342472" xlink:href="#m6246eb876c" y="190.038485"/>
     <use style="fill:#008000;stroke:#008000;" x="298.355056" xlink:href="#m6246eb876c" y="182.892132"/>
     <use style="fill:#008000;stroke:#008000;" x="302.36764" xlink:href="#m6246eb876c" y="183.48848"/>
     <use style="fill:#008000;stroke:#008000;" x="306.380225" xlink:href="#m6246eb876c" y="176.023364"/>
     <use style="fill:#008000;stroke:#008000;" x="310.392809" xlink:href="#m6246eb876c" y="171.198233"/>
     <use style="fill:#008000;stroke:#008000;" x="314.405393" xlink:href="#m6246eb876c" y="170.946567"/>
     <use style="fill:#008000;stroke:#008000;" x="318.417978" xlink:href="#m6246eb876c" y="171.873802"/>
     <use style="fill:#008000;stroke:#008000;" x="322.430562" xlink:href="#m6246eb876c" y="174.479924"/>
     <use style="fill:#008000;stroke:#008000;" x="326.443146" xlink:href="#m6246eb876c" y="172.927705"/>
     <use style="fill:#008000;stroke:#008000;" x="330.45573" xlink:href="#m6246eb876c" y="175.253316"/>
     <use style="fill:#008000;stroke:#008000;" x="334.468315" xlink:href="#m6246eb876c" y="173.199229"/>
     <use style="fill:#008000;stroke:#008000;" x="338.480899" xlink:href="#m6246eb876c" y="173.424557"/>
     <use style="fill:#008000;stroke:#008000;" x="342.493483" xlink:href="#m6246eb876c" y="173.905733"/>
     <use style="fill:#008000;stroke:#008000;" x="346.506067" xlink:href="#m6246eb876c" y="174.389626"/>
     <use style="fill:#008000;stroke:#008000;" x="350.518652" xlink:href="#m6246eb876c" y="173.590523"/>
     <use style="fill:#008000;stroke:#008000;" x="354.531236" xlink:href="#m6246eb876c" y="182.534908"/>
     <use style="fill:#008000;stroke:#008000;" x="358.54382" xlink:href="#m6246eb876c" y="178.748213"/>
     <use style="fill:#008000;stroke:#008000;" x="362.556404" xlink:href="#m6246eb876c" y="173.009643"/>
     <use style="fill:#008000;stroke:#008000;" x="366.568989" xlink:href="#m6246eb876c" y="179.301502"/>
     <use style="fill:#008000;stroke:#008000;" x="370.581573" xlink:href="#m6246eb876c" y="182.081115"/>
     <use style="fill:#008000;stroke:#008000;" x="374.594157" xlink:href="#m6246eb876c" y="181.348692"/>
     <use style="fill:#008000;stroke:#008000;" x="378.606742" xlink:href="#m6246eb876c" y="176.708548"/>
     <use style="fill:#008000;stroke:#008000;" x="382.619326" xlink:href="#m6246eb876c" y="178.078706"/>
     <use style="fill:#008000;stroke:#008000;" x="386.63191" xlink:href="#m6246eb876c" y="180.904723"/>
     <use style="fill:#008000;stroke:#008000;" x="390.644494" xlink:href="#m6246eb876c" y="183.777352"/>
     <use style="fill:#008000;stroke:#008000;" x="394.657079" xlink:href="#m6246eb876c" y="180.601428"/>
     <use style="fill:#008000;stroke:#008000;" x="398.669663" xlink:href="#m6246eb876c" y="172.233743"/>
     <use style="fill:#008000;stroke:#008000;" x="402.682247" xlink:href="#m6246eb876c" y="176.284018"/>
     <use style="fill:#008000;stroke:#008000;" x="406.694831" xlink:href="#m6246eb876c" y="162.150799"/>
     <use style="fill:#008000;stroke:#008000;" x="410.707416" xlink:href="#m6246eb876c" y="147.12358"/>
    </g>
   </g>
   <g id="patch_3">
    <path d="M 57.6 307.584 
L 57.6 41.472 
" style="fill:none;stroke:#000000;stroke-linecap:square;stroke-linejoin:miter;stroke-width:0.8;"/>
   </g>
   <g id="patch_4">
    <path d="M 414.72 307.584 
L 414.72 41.472 
" style="fill:none;stroke:#000000;stroke-linecap:square;stroke-linejoin:miter;stroke-width:0.8;"/>
   </g>
   <g id="patch_5">
    <path d="M 57.6 307.584 
L 414.72 307.584 
" style="fill:none;stroke:#000000;stroke-linecap:square;stroke-linejoin:miter;stroke-width:0.8;"/>
   </g>
   <g id="patch_6">
    <path d="M 57.6 41.472 
L 414.72 41.472 
" style="fill:none;stroke:#000000;stroke-linecap:square;stroke-linejoin:miter;stroke-width:0.8;"/>
   </g>
   <g id="text_35">
    <!-- tbb::parallel_sort O2 OMP AVX2 on pre_transpose6 -->
    <defs>
     <path d="M 48.6875 27.296875 
Q 48.6875 37.203125 44.609375 42.84375 
Q 40.53125 48.484375 33.40625 48.484375 
Q 26.265625 48.484375 22.1875 42.84375 
Q 18.109375 37.203125 18.109375 27.296875 
Q 18.109375 17.390625 22.1875 11.75 
Q 26.265625 6.109375 33.40625 6.109375 
Q 40.53125 6.109375 44.609375 11.75 
Q 48.6875 17.390625 48.6875 27.296875 
z
M 18.109375 46.390625 
Q 20.953125 51.265625 25.265625 53.625 
Q 29.59375 56 35.59375 56 
Q 45.5625 56 51.78125 48.09375 
Q 58.015625 40.1875 58.015625 27.296875 
Q 58.015625 14.40625 51.78125 6.484375 
Q 45.5625 -1.421875 35.59375 -1.421875 
Q 29.59375 -1.421875 25.265625 0.953125 
Q 20.953125 3.328125 18.109375 8.203125 
L 18.109375 0 
L 9.078125 0 
L 9.078125 75.984375 
L 18.109375 75.984375 
z
" id="DejaVuSans-98"/>
     <path d="M 11.71875 12.40625 
L 22.015625 12.40625 
L 22.015625 0 
L 11.71875 0 
z
M 11.71875 51.703125 
L 22.015625 51.703125 
L 22.015625 39.3125 
L 11.71875 39.3125 
z
" id="DejaVuSans-58"/>
     <path d="M 18.109375 8.203125 
L 18.109375 -20.796875 
L 9.078125 -20.796875 
L 9.078125 54.6875 
L 18.109375 54.6875 
L 18.109375 46.390625 
Q 20.953125 51.265625 25.265625 53.625 
Q 29.59375 56 35.59375 56 
Q 45.5625 56 51.78125 48.09375 
Q 58.015625 40.1875 58.015625 27.296875 
Q 58.015625 14.40625 51.78125 6.484375 
Q 45.5625 -1.421875 35.59375 -1.421875 
Q 29.59375 -1.421875 25.265625 0.953125 
Q 20.953125 3.328125 18.109375 8.203125 
z
M 48.6875 27.296875 
Q 48.6875 37.203125 44.609375 42.84375 
Q 40.53125 48.484375 33.40625 48.484375 
Q 26.265625 48.484375 22.1875 42.84375 
Q 18.109375 37.203125 18.109375 27.296875 
Q 18.109375 17.390625 22.1875 11.75 
Q 26.265625 6.109375 33.40625 6.109375 
Q 40.53125 6.109375 44.609375 11.75 
Q 48.6875 17.390625 48.6875 27.296875 
z
" id="DejaVuSans-112"/>
     <path d="M 9.421875 75.984375 
L 18.40625 75.984375 
L 18.40625 0 
L 9.421875 0 
z
" id="DejaVuSans-108"/>
     <path d="M 50.984375 -16.609375 
L 50.984375 -23.578125 
L -0.984375 -23.578125 
L -0.984375 -16.609375 
z
" id="DejaVuSans-95"/>
     <path d="M 39.40625 66.21875 
Q 28.65625 66.21875 22.328125 58.203125 
Q 16.015625 50.203125 16.015625 36.375 
Q 16.015625 22.609375 22.328125 14.59375 
Q 28.65625 6.59375 39.40625 6.59375 
Q 50.140625 6.59375 56.421875 14.59375 
Q 62.703125 22.609375 62.703125 36.375 
Q 62.703125 50.203125 56.421875 58.203125 
Q 50.140625 66.21875 39.40625 66.21875 
z
M 39.40625 74.21875 
Q 54.734375 74.21875 63.90625 63.9375 
Q 73.09375 53.65625 73.09375 36.375 
Q 73.09375 19.140625 63.90625 8.859375 
Q 54.734375 -1.421875 39.40625 -1.421875 
Q 24.03125 -1.421875 14.8125 8.828125 
Q 5.609375 19.09375 5.609375 36.375 
Q 5.609375 53.65625 14.8125 63.9375 
Q 24.03125 74.21875 39.40625 74.21875 
z
" id="DejaVuSans-79"/>
     <path d="M 9.8125 72.90625 
L 24.515625 72.90625 
L 43.109375 23.296875 
L 61.8125 72.90625 
L 76.515625 72.90625 
L 76.515625 0 
L 66.890625 0 
L 66.890625 64.015625 
L 48.09375 14.015625 
L 38.1875 14.015625 
L 19.390625 64.015625 
L 19.390625 0 
L 9.8125 0 
z
" id="DejaVuSans-77"/>
     <path d="M 19.671875 64.796875 
L 19.671875 37.40625 
L 32.078125 37.40625 
Q 38.96875 37.40625 42.71875 40.96875 
Q 46.484375 44.53125 46.484375 51.125 
Q 46.484375 57.671875 42.71875 61.234375 
Q 38.96875 64.796875 32.078125 64.796875 
z
M 9.8125 72.90625 
L 32.078125 72.90625 
Q 44.34375 72.90625 50.609375 67.359375 
Q 56.890625 61.8125 56.890625 51.125 
Q 56.890625 40.328125 50.609375 34.8125 
Q 44.34375 29.296875 32.078125 29.296875 
L 19.671875 29.296875 
L 19.671875 0 
L 9.8125 0 
z
" id="DejaVuSans-80"/>
     <path d="M 34.1875 63.1875 
L 20.796875 26.90625 
L 47.609375 26.90625 
z
M 28.609375 72.90625 
L 39.796875 72.90625 
L 67.578125 0 
L 57.328125 0 
L 50.6875 18.703125 
L 17.828125 18.703125 
L 11.1875 0 
L 0.78125 0 
z
" id="DejaVuSans-65"/>
     <path d="M 28.609375 0 
L 0.78125 72.90625 
L 11.078125 72.90625 
L 34.1875 11.53125 
L 57.328125 72.90625 
L 67.578125 72.90625 
L 39.796875 0 
z
" id="DejaVuSans-86"/>
     <path d="M 6.296875 72.90625 
L 16.890625 72.90625 
L 35.015625 45.796875 
L 53.21875 72.90625 
L 63.8125 72.90625 
L 40.375 37.890625 
L 65.375 0 
L 54.78125 0 
L 34.28125 31 
L 13.625 0 
L 2.984375 0 
L 29 38.921875 
z
" id="DejaVuSans-88"/>
    </defs>
    <g transform="translate(84.017812 35.472)scale(0.12 -0.12)">
     <use xlink:href="#DejaVuSans-116"/>
     <use x="39.208984" xlink:href="#DejaVuSans-98"/>
     <use x="102.685547" xlink:href="#DejaVuSans-98"/>
     <use x="166.162109" xlink:href="#DejaVuSans-58"/>
     <use x="199.853516" xlink:href="#DejaVuSans-58"/>
     <use x="233.544922" xlink:href="#DejaVuSans-112"/>
     <use x="297.021484" xlink:href="#DejaVuSans-97"/>
     <use x="358.300781" xlink:href="#DejaVuSans-114"/>
     <use x="399.414062" xlink:href="#DejaVuSans-97"/>
     <use x="460.693359" xlink:href="#DejaVuSans-108"/>
     <use x="488.476562" xlink:href="#DejaVuSans-108"/>
     <use x="516.259766" xlink:href="#DejaVuSans-101"/>
     <use x="577.783203" xlink:href="#DejaVuSans-108"/>
     <use x="605.566406" xlink:href="#DejaVuSans-95"/>
     <use x="655.566406" xlink:href="#DejaVuSans-115"/>
     <use x="707.666016" xlink:href="#DejaVuSans-111"/>
     <use x="768.847656" xlink:href="#DejaVuSans-114"/>
     <use x="809.960938" xlink:href="#DejaVuSans-116"/>
     <use x="849.169922" xlink:href="#DejaVuSans-32"/>
     <use x="880.957031" xlink:href="#DejaVuSans-79"/>
     <use x="959.667969" xlink:href="#DejaVuSans-50"/>
     <use x="1023.291016" xlink:href="#DejaVuSans-32"/>
     <use x="1055.078125" xlink:href="#DejaVuSans-79"/>
     <use x="1133.789062" xlink:href="#DejaVuSans-77"/>
     <use x="1220.068359" xlink:href="#DejaVuSans-80"/>
     <use x="1280.371094" xlink:href="#DejaVuSans-32"/>
     <use x="1312.158203" xlink:href="#DejaVuSans-65"/>
     <use x="1374.191406" xlink:href="#DejaVuSans-86"/>
     <use x="1442.599609" xlink:href="#DejaVuSans-88"/>
     <use x="1511.105469" xlink:href="#DejaVuSans-50"/>
     <use x="1574.728516" xlink:href="#DejaVuSans-32"/>
     <use x="1606.515625" xlink:href="#DejaVuSans-111"/>
     <use x="1667.697266" xlink:href="#DejaVuSans-110"/>
     <use x="1731.076172" xlink:href="#DejaVuSans-32"/>
     <use x="1762.863281" xlink:href="#DejaVuSans-112"/>
     <use x="1826.339844" xlink:href="#DejaVuSans-114"/>
     <use x="1865.203125" xlink:href="#DejaVuSans-101"/>
     <use x="1926.726562" xlink:href="#DejaVuSans-95"/>
     <use x="1976.726562" xlink:href="#DejaVuSans-116"/>
     <use x="2015.935547" xlink:href="#DejaVuSans-114"/>
     <use x="2057.048828" xlink:href="#DejaVuSans-97"/>
     <use x="2118.328125" xlink:href="#DejaVuSans-110"/>
     <use x="2181.707031" xlink:href="#DejaVuSans-115"/>
     <use x="2233.806641" xlink:href="#DejaVuSans-112"/>
     <use x="2297.283203" xlink:href="#DejaVuSans-111"/>
     <use x="2358.464844" xlink:href="#DejaVuSans-115"/>
     <use x="2410.564453" xlink:href="#DejaVuSans-101"/>
     <use x="2472.087891" xlink:href="#DejaVuSans-54"/>
    </g>
   </g>
   <g id="legend_1">
    <g id="patch_7">
     <path d="M 64.6 93.7845 
L 159.167188 93.7845 
Q 161.167188 93.7845 161.167188 91.7845 
L 161.167188 48.472 
Q 161.167188 46.472 159.167188 46.472 
L 64.6 46.472 
Q 62.6 46.472 62.6 48.472 
L 62.6 91.7845 
Q 62.6 93.7845 64.6 93.7845 
z
" style="fill:#ffffff;opacity:0.8;stroke:#cccccc;stroke-linejoin:miter;"/>
    </g>
    <g id="line2d_68">
     <path d="M 66.6 54.570438 
L 86.6 54.570438 
" style="fill:none;stroke:#0000ff;stroke-dasharray:1.5,2.475;stroke-dashoffset:0;stroke-width:1.5;"/>
    </g>
    <g id="line2d_69">
     <g>
      <use style="fill:#0000ff;stroke:#0000ff;" x="76.6" xlink:href="#m691628667a" y="54.570438"/>
     </g>
    </g>
    <g id="text_36">
     <!-- transpose -->
     <g transform="translate(94.6 58.070438)scale(0.1 -0.1)">
      <use xlink:href="#DejaVuSans-116"/>
      <use x="39.208984" xlink:href="#DejaVuSans-114"/>
      <use x="80.322266" xlink:href="#DejaVuSans-97"/>
      <use x="141.601562" xlink:href="#DejaVuSans-110"/>
      <use x="204.980469" xlink:href="#DejaVuSans-115"/>
      <use x="257.080078" xlink:href="#DejaVuSans-112"/>
      <use x="320.556641" xlink:href="#DejaVuSans-111"/>
      <use x="381.738281" xlink:href="#DejaVuSans-115"/>
      <use x="433.837891" xlink:href="#DejaVuSans-101"/>
     </g>
    </g>
    <g id="line2d_70">
     <path d="M 66.6 69.248563 
L 86.6 69.248563 
" style="fill:none;stroke:#ff0000;stroke-dasharray:1.5,2.475;stroke-dashoffset:0;stroke-width:1.5;"/>
    </g>
    <g id="line2d_71">
     <g>
      <use style="fill:#ff0000;stroke:#ff0000;" x="76.6" xlink:href="#m4aaf7f929b" y="69.248563"/>
     </g>
    </g>
    <g id="text_37">
     <!-- transpose_tr -->
     <g transform="translate(94.6 72.748563)scale(0.1 -0.1)">
      <use xlink:href="#DejaVuSans-116"/>
      <use x="39.208984" xlink:href="#DejaVuSans-114"/>
      <use x="80.322266" xlink:href="#DejaVuSans-97"/>
      <use x="141.601562" xlink:href="#DejaVuSans-110"/>
      <use x="204.980469" xlink:href="#DejaVuSans-115"/>
      <use x="257.080078" xlink:href="#DejaVuSans-112"/>
      <use x="320.556641" xlink:href="#DejaVuSans-111"/>
      <use x="381.738281" xlink:href="#DejaVuSans-115"/>
      <use x="433.837891" xlink:href="#DejaVuSans-101"/>
      <use x="495.361328" xlink:href="#DejaVuSans-95"/>
      <use x="545.361328" xlink:href="#DejaVuSans-116"/>
      <use x="584.570312" xlink:href="#DejaVuSans-114"/>
     </g>
    </g>
    <g id="line2d_72">
     <path d="M 66.6 84.204813 
L 86.6 84.204813 
" style="fill:none;stroke:#008000;stroke-dasharray:1.5,2.475;stroke-dashoffset:0;stroke-width:1.5;"/>
    </g>
    <g id="line2d_73">
     <g>
      <use style="fill:#008000;stroke:#008000;" x="76.6" xlink:href="#m6246eb876c" y="84.204813"/>
     </g>
    </g>
    <g id="text_38">
     <!-- mean -->
     <defs>
      <path d="M 52 44.1875 
Q 55.375 50.25 60.0625 53.125 
Q 64.75 56 71.09375 56 
Q 79.640625 56 84.28125 50.015625 
Q 88.921875 44.046875 88.921875 33.015625 
L 88.921875 0 
L 79.890625 0 
L 79.890625 32.71875 
Q 79.890625 40.578125 77.09375 44.375 
Q 74.3125 48.1875 68.609375 48.1875 
Q 61.625 48.1875 57.5625 43.546875 
Q 53.515625 38.921875 53.515625 30.90625 
L 53.515625 0 
L 44.484375 0 
L 44.484375 32.71875 
Q 44.484375 40.625 41.703125 44.40625 
Q 38.921875 48.1875 33.109375 48.1875 
Q 26.21875 48.1875 22.15625 43.53125 
Q 18.109375 38.875 18.109375 30.90625 
L 18.109375 0 
L 9.078125 0 
L 9.078125 54.6875 
L 18.109375 54.6875 
L 18.109375 46.1875 
Q 21.1875 51.21875 25.484375 53.609375 
Q 29.78125 56 35.6875 56 
Q 41.65625 56 45.828125 52.96875 
Q 50 49.953125 52 44.1875 
z
" id="DejaVuSans-109"/>
     </defs>
     <g transform="translate(94.6 87.704813)scale(0.1 -0.1)">
      <use xlink:href="#DejaVuSans-109"/>
      <use x="97.412109" xlink:href="#DejaVuSans-101"/>
      <use x="158.935547" xlink:href="#DejaVuSans-97"/>
      <use x="220.214844" xlink:href="#DejaVuSans-110"/>
     </g>
    </g>
   </g>
  </g>
 </g>
 <defs>
  <clipPath id="p4c1e12cd3d">
   <rect height="266.112" width="357.12" x="57.6" y="41.472"/>
  </clipPath>
 </defs>
</svg>
