<?xml version="1.0" encoding="utf-8" standalone="no"?>
<!DOCTYPE svg PUBLIC "-//W3C//DTD SVG 1.1//EN"
  "http://www.w3.org/Graphics/SVG/1.1/DTD/svg11.dtd">
<!-- Created with matplotlib (https://matplotlib.org/) -->
<svg height="345.6pt" version="1.1" viewBox="0 0 460.8 345.6" width="460.8pt" xmlns="http://www.w3.org/2000/svg" xmlns:xlink="http://www.w3.org/1999/xlink">
 <defs>
  <style type="text/css">
*{stroke-linecap:butt;stroke-linejoin:round;}
  </style>
 </defs>
 <g id="figure_1">
  <g id="patch_1">
   <path d="M 0 345.6 
L 460.8 345.6 
L 460.8 0 
L 0 0 
z
" style="fill:#ffffff;"/>
  </g>
  <g id="axes_1">
   <g id="patch_2">
    <path d="M 57.6 307.584 
L 414.72 307.584 
L 414.72 41.472 
L 57.6 41.472 
z
" style="fill:#ffffff;"/>
   </g>
   <g id="matplotlib.axis_1">
    <g id="xtick_1">
     <g id="line2d_1">
      <path clip-path="url(#p5bc587eae2)" d="M 61.612584 307.584 
L 61.612584 41.472 
" style="fill:none;stroke:#b0b0b0;stroke-dasharray:5.12,1.28,0.8,1.28;stroke-dashoffset:0;stroke-width:0.8;"/>
     </g>
     <g id="line2d_2">
      <defs>
       <path d="M 0 0 
L 0 3.5 
" id="m0722265115" style="stroke:#000000;stroke-width:0.8;"/>
      </defs>
      <g>
       <use style="stroke:#000000;stroke-width:0.8;" x="61.612584" xlink:href="#m0722265115" y="307.584"/>
      </g>
     </g>
     <g id="text_1">
      <!-- 1 -->
      <defs>
       <path d="M 12.40625 8.296875 
L 28.515625 8.296875 
L 28.515625 63.921875 
L 10.984375 60.40625 
L 10.984375 69.390625 
L 28.421875 72.90625 
L 38.28125 72.90625 
L 38.28125 8.296875 
L 54.390625 8.296875 
L 54.390625 0 
L 12.40625 0 
z
" id="DejaVuSans-49"/>
      </defs>
      <g transform="translate(58.431334 322.182437)scale(0.1 -0.1)">
       <use xlink:href="#DejaVuSans-49"/>
      </g>
     </g>
    </g>
    <g id="xtick_2">
     <g id="line2d_3">
      <path clip-path="url(#p5bc587eae2)" d="M 73.650337 307.584 
L 73.650337 41.472 
" style="fill:none;stroke:#b0b0b0;stroke-dasharray:5.12,1.28,0.8,1.28;stroke-dashoffset:0;stroke-width:0.8;"/>
     </g>
     <g id="line2d_4">
      <g>
       <use style="stroke:#000000;stroke-width:0.8;" x="73.650337" xlink:href="#m0722265115" y="307.584"/>
      </g>
     </g>
     <g id="text_2">
      <!-- 4 -->
      <defs>
       <path d="M 37.796875 64.3125 
L 12.890625 25.390625 
L 37.796875 25.390625 
z
M 35.203125 72.90625 
L 47.609375 72.90625 
L 47.609375 25.390625 
L 58.015625 25.390625 
L 58.015625 17.1875 
L 47.609375 17.1875 
L 47.609375 0 
L 37.796875 0 
L 37.796875 17.1875 
L 4.890625 17.1875 
L 4.890625 26.703125 
z
" id="DejaVuSans-52"/>
      </defs>
      <g transform="translate(70.469087 322.182437)scale(0.1 -0.1)">
       <use xlink:href="#DejaVuSans-52"/>
      </g>
     </g>
    </g>
    <g id="xtick_3">
     <g id="line2d_5">
      <path clip-path="url(#p5bc587eae2)" d="M 89.700674 307.584 
L 89.700674 41.472 
" style="fill:none;stroke:#b0b0b0;stroke-dasharray:5.12,1.28,0.8,1.28;stroke-dashoffset:0;stroke-width:0.8;"/>
     </g>
     <g id="line2d_6">
      <g>
       <use style="stroke:#000000;stroke-width:0.8;" x="89.700674" xlink:href="#m0722265115" y="307.584"/>
      </g>
     </g>
     <g id="text_3">
      <!-- 8 -->
      <defs>
       <path d="M 31.78125 34.625 
Q 24.75 34.625 20.71875 30.859375 
Q 16.703125 27.09375 16.703125 20.515625 
Q 16.703125 13.921875 20.71875 10.15625 
Q 24.75 6.390625 31.78125 6.390625 
Q 38.8125 6.390625 42.859375 10.171875 
Q 46.921875 13.96875 46.921875 20.515625 
Q 46.921875 27.09375 42.890625 30.859375 
Q 38.875 34.625 31.78125 34.625 
z
M 21.921875 38.8125 
Q 15.578125 40.375 12.03125 44.71875 
Q 8.5 49.078125 8.5 55.328125 
Q 8.5 64.0625 14.71875 69.140625 
Q 20.953125 74.21875 31.78125 74.21875 
Q 42.671875 74.21875 48.875 69.140625 
Q 55.078125 64.0625 55.078125 55.328125 
Q 55.078125 49.078125 51.53125 44.71875 
Q 48 40.375 41.703125 38.8125 
Q 48.828125 37.15625 52.796875 32.3125 
Q 56.78125 27.484375 56.78125 20.515625 
Q 56.78125 9.90625 50.3125 4.234375 
Q 43.84375 -1.421875 31.78125 -1.421875 
Q 19.734375 -1.421875 13.25 4.234375 
Q 6.78125 9.90625 6.78125 20.515625 
Q 6.78125 27.484375 10.78125 32.3125 
Q 14.796875 37.15625 21.921875 38.8125 
z
M 18.3125 54.390625 
Q 18.3125 48.734375 21.84375 45.5625 
Q 25.390625 42.390625 31.78125 42.390625 
Q 38.140625 42.390625 41.71875 45.5625 
Q 45.3125 48.734375 45.3125 54.390625 
Q 45.3125 60.0625 41.71875 63.234375 
Q 38.140625 66.40625 31.78125 66.40625 
Q 25.390625 66.40625 21.84375 63.234375 
Q 18.3125 60.0625 18.3125 54.390625 
z
" id="DejaVuSans-56"/>
      </defs>
      <g transform="translate(86.519424 322.182437)scale(0.1 -0.1)">
       <use xlink:href="#DejaVuSans-56"/>
      </g>
     </g>
    </g>
    <g id="xtick_4">
     <g id="line2d_7">
      <path clip-path="url(#p5bc587eae2)" d="M 105.751011 307.584 
L 105.751011 41.472 
" style="fill:none;stroke:#b0b0b0;stroke-dasharray:5.12,1.28,0.8,1.28;stroke-dashoffset:0;stroke-width:0.8;"/>
     </g>
     <g id="line2d_8">
      <g>
       <use style="stroke:#000000;stroke-width:0.8;" x="105.751011" xlink:href="#m0722265115" y="307.584"/>
      </g>
     </g>
     <g id="text_4">
      <!-- 12 -->
      <defs>
       <path d="M 19.1875 8.296875 
L 53.609375 8.296875 
L 53.609375 0 
L 7.328125 0 
L 7.328125 8.296875 
Q 12.9375 14.109375 22.625 23.890625 
Q 32.328125 33.6875 34.8125 36.53125 
Q 39.546875 41.84375 41.421875 45.53125 
Q 43.3125 49.21875 43.3125 52.78125 
Q 43.3125 58.59375 39.234375 62.25 
Q 35.15625 65.921875 28.609375 65.921875 
Q 23.96875 65.921875 18.8125 64.3125 
Q 13.671875 62.703125 7.8125 59.421875 
L 7.8125 69.390625 
Q 13.765625 71.78125 18.9375 73 
Q 24.125 74.21875 28.421875 74.21875 
Q 39.75 74.21875 46.484375 68.546875 
Q 53.21875 62.890625 53.21875 53.421875 
Q 53.21875 48.921875 51.53125 44.890625 
Q 49.859375 40.875 45.40625 35.40625 
Q 44.1875 33.984375 37.640625 27.21875 
Q 31.109375 20.453125 19.1875 8.296875 
z
" id="DejaVuSans-50"/>
      </defs>
      <g transform="translate(99.388511 322.182437)scale(0.1 -0.1)">
       <use xlink:href="#DejaVuSans-49"/>
       <use x="63.623047" xlink:href="#DejaVuSans-50"/>
      </g>
     </g>
    </g>
    <g id="xtick_5">
     <g id="line2d_9">
      <path clip-path="url(#p5bc587eae2)" d="M 121.801348 307.584 
L 121.801348 41.472 
" style="fill:none;stroke:#b0b0b0;stroke-dasharray:5.12,1.28,0.8,1.28;stroke-dashoffset:0;stroke-width:0.8;"/>
     </g>
     <g id="line2d_10">
      <g>
       <use style="stroke:#000000;stroke-width:0.8;" x="121.801348" xlink:href="#m0722265115" y="307.584"/>
      </g>
     </g>
     <g id="text_5">
      <!-- 16 -->
      <defs>
       <path d="M 33.015625 40.375 
Q 26.375 40.375 22.484375 35.828125 
Q 18.609375 31.296875 18.609375 23.390625 
Q 18.609375 15.53125 22.484375 10.953125 
Q 26.375 6.390625 33.015625 6.390625 
Q 39.65625 6.390625 43.53125 10.953125 
Q 47.40625 15.53125 47.40625 23.390625 
Q 47.40625 31.296875 43.53125 35.828125 
Q 39.65625 40.375 33.015625 40.375 
z
M 52.59375 71.296875 
L 52.59375 62.3125 
Q 48.875 64.0625 45.09375 64.984375 
Q 41.3125 65.921875 37.59375 65.921875 
Q 27.828125 65.921875 22.671875 59.328125 
Q 17.53125 52.734375 16.796875 39.40625 
Q 19.671875 43.65625 24.015625 45.921875 
Q 28.375 48.1875 33.59375 48.1875 
Q 44.578125 48.1875 50.953125 41.515625 
Q 57.328125 34.859375 57.328125 23.390625 
Q 57.328125 12.15625 50.6875 5.359375 
Q 44.046875 -1.421875 33.015625 -1.421875 
Q 20.359375 -1.421875 13.671875 8.265625 
Q 6.984375 17.96875 6.984375 36.375 
Q 6.984375 53.65625 15.1875 63.9375 
Q 23.390625 74.21875 37.203125 74.21875 
Q 40.921875 74.21875 44.703125 73.484375 
Q 48.484375 72.75 52.59375 71.296875 
z
" id="DejaVuSans-54"/>
      </defs>
      <g transform="translate(115.438848 322.182437)scale(0.1 -0.1)">
       <use xlink:href="#DejaVuSans-49"/>
       <use x="63.623047" xlink:href="#DejaVuSans-54"/>
      </g>
     </g>
    </g>
    <g id="xtick_6">
     <g id="line2d_11">
      <path clip-path="url(#p5bc587eae2)" d="M 137.851685 307.584 
L 137.851685 41.472 
" style="fill:none;stroke:#b0b0b0;stroke-dasharray:5.12,1.28,0.8,1.28;stroke-dashoffset:0;stroke-width:0.8;"/>
     </g>
     <g id="line2d_12">
      <g>
       <use style="stroke:#000000;stroke-width:0.8;" x="137.851685" xlink:href="#m0722265115" y="307.584"/>
      </g>
     </g>
     <g id="text_6">
      <!-- 20 -->
      <defs>
       <path d="M 31.78125 66.40625 
Q 24.171875 66.40625 20.328125 58.90625 
Q 16.5 51.421875 16.5 36.375 
Q 16.5 21.390625 20.328125 13.890625 
Q 24.171875 6.390625 31.78125 6.390625 
Q 39.453125 6.390625 43.28125 13.890625 
Q 47.125 21.390625 47.125 36.375 
Q 47.125 51.421875 43.28125 58.90625 
Q 39.453125 66.40625 31.78125 66.40625 
z
M 31.78125 74.21875 
Q 44.046875 74.21875 50.515625 64.515625 
Q 56.984375 54.828125 56.984375 36.375 
Q 56.984375 17.96875 50.515625 8.265625 
Q 44.046875 -1.421875 31.78125 -1.421875 
Q 19.53125 -1.421875 13.0625 8.265625 
Q 6.59375 17.96875 6.59375 36.375 
Q 6.59375 54.828125 13.0625 64.515625 
Q 19.53125 74.21875 31.78125 74.21875 
z
" id="DejaVuSans-48"/>
      </defs>
      <g transform="translate(131.489185 322.182437)scale(0.1 -0.1)">
       <use xlink:href="#DejaVuSans-50"/>
       <use x="63.623047" xlink:href="#DejaVuSans-48"/>
      </g>
     </g>
    </g>
    <g id="xtick_7">
     <g id="line2d_13">
      <path clip-path="url(#p5bc587eae2)" d="M 153.902022 307.584 
L 153.902022 41.472 
" style="fill:none;stroke:#b0b0b0;stroke-dasharray:5.12,1.28,0.8,1.28;stroke-dashoffset:0;stroke-width:0.8;"/>
     </g>
     <g id="line2d_14">
      <g>
       <use style="stroke:#000000;stroke-width:0.8;" x="153.902022" xlink:href="#m0722265115" y="307.584"/>
      </g>
     </g>
     <g id="text_7">
      <!-- 24 -->
      <g transform="translate(147.539522 322.182437)scale(0.1 -0.1)">
       <use xlink:href="#DejaVuSans-50"/>
       <use x="63.623047" xlink:href="#DejaVuSans-52"/>
      </g>
     </g>
    </g>
    <g id="xtick_8">
     <g id="line2d_15">
      <path clip-path="url(#p5bc587eae2)" d="M 169.95236 307.584 
L 169.95236 41.472 
" style="fill:none;stroke:#b0b0b0;stroke-dasharray:5.12,1.28,0.8,1.28;stroke-dashoffset:0;stroke-width:0.8;"/>
     </g>
     <g id="line2d_16">
      <g>
       <use style="stroke:#000000;stroke-width:0.8;" x="169.95236" xlink:href="#m0722265115" y="307.584"/>
      </g>
     </g>
     <g id="text_8">
      <!-- 28 -->
      <g transform="translate(163.58986 322.182437)scale(0.1 -0.1)">
       <use xlink:href="#DejaVuSans-50"/>
       <use x="63.623047" xlink:href="#DejaVuSans-56"/>
      </g>
     </g>
    </g>
    <g id="xtick_9">
     <g id="line2d_17">
      <path clip-path="url(#p5bc587eae2)" d="M 186.002697 307.584 
L 186.002697 41.472 
" style="fill:none;stroke:#b0b0b0;stroke-dasharray:5.12,1.28,0.8,1.28;stroke-dashoffset:0;stroke-width:0.8;"/>
     </g>
     <g id="line2d_18">
      <g>
       <use style="stroke:#000000;stroke-width:0.8;" x="186.002697" xlink:href="#m0722265115" y="307.584"/>
      </g>
     </g>
     <g id="text_9">
      <!-- 32 -->
      <defs>
       <path d="M 40.578125 39.3125 
Q 47.65625 37.796875 51.625 33 
Q 55.609375 28.21875 55.609375 21.1875 
Q 55.609375 10.40625 48.1875 4.484375 
Q 40.765625 -1.421875 27.09375 -1.421875 
Q 22.515625 -1.421875 17.65625 -0.515625 
Q 12.796875 0.390625 7.625 2.203125 
L 7.625 11.71875 
Q 11.71875 9.328125 16.59375 8.109375 
Q 21.484375 6.890625 26.8125 6.890625 
Q 36.078125 6.890625 40.9375 10.546875 
Q 45.796875 14.203125 45.796875 21.1875 
Q 45.796875 27.640625 41.28125 31.265625 
Q 36.765625 34.90625 28.71875 34.90625 
L 20.21875 34.90625 
L 20.21875 43.015625 
L 29.109375 43.015625 
Q 36.375 43.015625 40.234375 45.921875 
Q 44.09375 48.828125 44.09375 54.296875 
Q 44.09375 59.90625 40.109375 62.90625 
Q 36.140625 65.921875 28.71875 65.921875 
Q 24.65625 65.921875 20.015625 65.03125 
Q 15.375 64.15625 9.8125 62.3125 
L 9.8125 71.09375 
Q 15.4375 72.65625 20.34375 73.4375 
Q 25.25 74.21875 29.59375 74.21875 
Q 40.828125 74.21875 47.359375 69.109375 
Q 53.90625 64.015625 53.90625 55.328125 
Q 53.90625 49.265625 50.4375 45.09375 
Q 46.96875 40.921875 40.578125 39.3125 
z
" id="DejaVuSans-51"/>
      </defs>
      <g transform="translate(179.640197 322.182437)scale(0.1 -0.1)">
       <use xlink:href="#DejaVuSans-51"/>
       <use x="63.623047" xlink:href="#DejaVuSans-50"/>
      </g>
     </g>
    </g>
    <g id="xtick_10">
     <g id="line2d_19">
      <path clip-path="url(#p5bc587eae2)" d="M 202.053034 307.584 
L 202.053034 41.472 
" style="fill:none;stroke:#b0b0b0;stroke-dasharray:5.12,1.28,0.8,1.28;stroke-dashoffset:0;stroke-width:0.8;"/>
     </g>
     <g id="line2d_20">
      <g>
       <use style="stroke:#000000;stroke-width:0.8;" x="202.053034" xlink:href="#m0722265115" y="307.584"/>
      </g>
     </g>
     <g id="text_10">
      <!-- 36 -->
      <g transform="translate(195.690534 322.182437)scale(0.1 -0.1)">
       <use xlink:href="#DejaVuSans-51"/>
       <use x="63.623047" xlink:href="#DejaVuSans-54"/>
      </g>
     </g>
    </g>
    <g id="xtick_11">
     <g id="line2d_21">
      <path clip-path="url(#p5bc587eae2)" d="M 218.103371 307.584 
L 218.103371 41.472 
" style="fill:none;stroke:#b0b0b0;stroke-dasharray:5.12,1.28,0.8,1.28;stroke-dashoffset:0;stroke-width:0.8;"/>
     </g>
     <g id="line2d_22">
      <g>
       <use style="stroke:#000000;stroke-width:0.8;" x="218.103371" xlink:href="#m0722265115" y="307.584"/>
      </g>
     </g>
     <g id="text_11">
      <!-- 40 -->
      <g transform="translate(211.740871 322.182437)scale(0.1 -0.1)">
       <use xlink:href="#DejaVuSans-52"/>
       <use x="63.623047" xlink:href="#DejaVuSans-48"/>
      </g>
     </g>
    </g>
    <g id="xtick_12">
     <g id="line2d_23">
      <path clip-path="url(#p5bc587eae2)" d="M 234.153708 307.584 
L 234.153708 41.472 
" style="fill:none;stroke:#b0b0b0;stroke-dasharray:5.12,1.28,0.8,1.28;stroke-dashoffset:0;stroke-width:0.8;"/>
     </g>
     <g id="line2d_24">
      <g>
       <use style="stroke:#000000;stroke-width:0.8;" x="234.153708" xlink:href="#m0722265115" y="307.584"/>
      </g>
     </g>
     <g id="text_12">
      <!-- 44 -->
      <g transform="translate(227.791208 322.182437)scale(0.1 -0.1)">
       <use xlink:href="#DejaVuSans-52"/>
       <use x="63.623047" xlink:href="#DejaVuSans-52"/>
      </g>
     </g>
    </g>
    <g id="xtick_13">
     <g id="line2d_25">
      <path clip-path="url(#p5bc587eae2)" d="M 250.204045 307.584 
L 250.204045 41.472 
" style="fill:none;stroke:#b0b0b0;stroke-dasharray:5.12,1.28,0.8,1.28;stroke-dashoffset:0;stroke-width:0.8;"/>
     </g>
     <g id="line2d_26">
      <g>
       <use style="stroke:#000000;stroke-width:0.8;" x="250.204045" xlink:href="#m0722265115" y="307.584"/>
      </g>
     </g>
     <g id="text_13">
      <!-- 48 -->
      <g transform="translate(243.841545 322.182437)scale(0.1 -0.1)">
       <use xlink:href="#DejaVuSans-52"/>
       <use x="63.623047" xlink:href="#DejaVuSans-56"/>
      </g>
     </g>
    </g>
    <g id="xtick_14">
     <g id="line2d_27">
      <path clip-path="url(#p5bc587eae2)" d="M 266.254382 307.584 
L 266.254382 41.472 
" style="fill:none;stroke:#b0b0b0;stroke-dasharray:5.12,1.28,0.8,1.28;stroke-dashoffset:0;stroke-width:0.8;"/>
     </g>
     <g id="line2d_28">
      <g>
       <use style="stroke:#000000;stroke-width:0.8;" x="266.254382" xlink:href="#m0722265115" y="307.584"/>
      </g>
     </g>
     <g id="text_14">
      <!-- 52 -->
      <defs>
       <path d="M 10.796875 72.90625 
L 49.515625 72.90625 
L 49.515625 64.59375 
L 19.828125 64.59375 
L 19.828125 46.734375 
Q 21.96875 47.46875 24.109375 47.828125 
Q 26.265625 48.1875 28.421875 48.1875 
Q 40.625 48.1875 47.75 41.5 
Q 54.890625 34.8125 54.890625 23.390625 
Q 54.890625 11.625 47.5625 5.09375 
Q 40.234375 -1.421875 26.90625 -1.421875 
Q 22.3125 -1.421875 17.546875 -0.640625 
Q 12.796875 0.140625 7.71875 1.703125 
L 7.71875 11.625 
Q 12.109375 9.234375 16.796875 8.0625 
Q 21.484375 6.890625 26.703125 6.890625 
Q 35.15625 6.890625 40.078125 11.328125 
Q 45.015625 15.765625 45.015625 23.390625 
Q 45.015625 31 40.078125 35.4375 
Q 35.15625 39.890625 26.703125 39.890625 
Q 22.75 39.890625 18.8125 39.015625 
Q 14.890625 38.140625 10.796875 36.28125 
z
" id="DejaVuSans-53"/>
      </defs>
      <g transform="translate(259.891882 322.182437)scale(0.1 -0.1)">
       <use xlink:href="#DejaVuSans-53"/>
       <use x="63.623047" xlink:href="#DejaVuSans-50"/>
      </g>
     </g>
    </g>
    <g id="xtick_15">
     <g id="line2d_29">
      <path clip-path="url(#p5bc587eae2)" d="M 282.304719 307.584 
L 282.304719 41.472 
" style="fill:none;stroke:#b0b0b0;stroke-dasharray:5.12,1.28,0.8,1.28;stroke-dashoffset:0;stroke-width:0.8;"/>
     </g>
     <g id="line2d_30">
      <g>
       <use style="stroke:#000000;stroke-width:0.8;" x="282.304719" xlink:href="#m0722265115" y="307.584"/>
      </g>
     </g>
     <g id="text_15">
      <!-- 56 -->
      <g transform="translate(275.942219 322.182437)scale(0.1 -0.1)">
       <use xlink:href="#DejaVuSans-53"/>
       <use x="63.623047" xlink:href="#DejaVuSans-54"/>
      </g>
     </g>
    </g>
    <g id="xtick_16">
     <g id="line2d_31">
      <path clip-path="url(#p5bc587eae2)" d="M 298.355056 307.584 
L 298.355056 41.472 
" style="fill:none;stroke:#b0b0b0;stroke-dasharray:5.12,1.28,0.8,1.28;stroke-dashoffset:0;stroke-width:0.8;"/>
     </g>
     <g id="line2d_32">
      <g>
       <use style="stroke:#000000;stroke-width:0.8;" x="298.355056" xlink:href="#m0722265115" y="307.584"/>
      </g>
     </g>
     <g id="text_16">
      <!-- 60 -->
      <g transform="translate(291.992556 322.182437)scale(0.1 -0.1)">
       <use xlink:href="#DejaVuSans-54"/>
       <use x="63.623047" xlink:href="#DejaVuSans-48"/>
      </g>
     </g>
    </g>
    <g id="xtick_17">
     <g id="line2d_33">
      <path clip-path="url(#p5bc587eae2)" d="M 314.405393 307.584 
L 314.405393 41.472 
" style="fill:none;stroke:#b0b0b0;stroke-dasharray:5.12,1.28,0.8,1.28;stroke-dashoffset:0;stroke-width:0.8;"/>
     </g>
     <g id="line2d_34">
      <g>
       <use style="stroke:#000000;stroke-width:0.8;" x="314.405393" xlink:href="#m0722265115" y="307.584"/>
      </g>
     </g>
     <g id="text_17">
      <!-- 64 -->
      <g transform="translate(308.042893 322.182437)scale(0.1 -0.1)">
       <use xlink:href="#DejaVuSans-54"/>
       <use x="63.623047" xlink:href="#DejaVuSans-52"/>
      </g>
     </g>
    </g>
    <g id="xtick_18">
     <g id="line2d_35">
      <path clip-path="url(#p5bc587eae2)" d="M 330.45573 307.584 
L 330.45573 41.472 
" style="fill:none;stroke:#b0b0b0;stroke-dasharray:5.12,1.28,0.8,1.28;stroke-dashoffset:0;stroke-width:0.8;"/>
     </g>
     <g id="line2d_36">
      <g>
       <use style="stroke:#000000;stroke-width:0.8;" x="330.45573" xlink:href="#m0722265115" y="307.584"/>
      </g>
     </g>
     <g id="text_18">
      <!-- 68 -->
      <g transform="translate(324.09323 322.182437)scale(0.1 -0.1)">
       <use xlink:href="#DejaVuSans-54"/>
       <use x="63.623047" xlink:href="#DejaVuSans-56"/>
      </g>
     </g>
    </g>
    <g id="xtick_19">
     <g id="line2d_37">
      <path clip-path="url(#p5bc587eae2)" d="M 346.506067 307.584 
L 346.506067 41.472 
" style="fill:none;stroke:#b0b0b0;stroke-dasharray:5.12,1.28,0.8,1.28;stroke-dashoffset:0;stroke-width:0.8;"/>
     </g>
     <g id="line2d_38">
      <g>
       <use style="stroke:#000000;stroke-width:0.8;" x="346.506067" xlink:href="#m0722265115" y="307.584"/>
      </g>
     </g>
     <g id="text_19">
      <!-- 72 -->
      <defs>
       <path d="M 8.203125 72.90625 
L 55.078125 72.90625 
L 55.078125 68.703125 
L 28.609375 0 
L 18.3125 0 
L 43.21875 64.59375 
L 8.203125 64.59375 
z
" id="DejaVuSans-55"/>
      </defs>
      <g transform="translate(340.143567 322.182437)scale(0.1 -0.1)">
       <use xlink:href="#DejaVuSans-55"/>
       <use x="63.623047" xlink:href="#DejaVuSans-50"/>
      </g>
     </g>
    </g>
    <g id="xtick_20">
     <g id="line2d_39">
      <path clip-path="url(#p5bc587eae2)" d="M 362.556404 307.584 
L 362.556404 41.472 
" style="fill:none;stroke:#b0b0b0;stroke-dasharray:5.12,1.28,0.8,1.28;stroke-dashoffset:0;stroke-width:0.8;"/>
     </g>
     <g id="line2d_40">
      <g>
       <use style="stroke:#000000;stroke-width:0.8;" x="362.556404" xlink:href="#m0722265115" y="307.584"/>
      </g>
     </g>
     <g id="text_20">
      <!-- 76 -->
      <g transform="translate(356.193904 322.182437)scale(0.1 -0.1)">
       <use xlink:href="#DejaVuSans-55"/>
       <use x="63.623047" xlink:href="#DejaVuSans-54"/>
      </g>
     </g>
    </g>
    <g id="xtick_21">
     <g id="line2d_41">
      <path clip-path="url(#p5bc587eae2)" d="M 378.606742 307.584 
L 378.606742 41.472 
" style="fill:none;stroke:#b0b0b0;stroke-dasharray:5.12,1.28,0.8,1.28;stroke-dashoffset:0;stroke-width:0.8;"/>
     </g>
     <g id="line2d_42">
      <g>
       <use style="stroke:#000000;stroke-width:0.8;" x="378.606742" xlink:href="#m0722265115" y="307.584"/>
      </g>
     </g>
     <g id="text_21">
      <!-- 80 -->
      <g transform="translate(372.244242 322.182437)scale(0.1 -0.1)">
       <use xlink:href="#DejaVuSans-56"/>
       <use x="63.623047" xlink:href="#DejaVuSans-48"/>
      </g>
     </g>
    </g>
    <g id="xtick_22">
     <g id="line2d_43">
      <path clip-path="url(#p5bc587eae2)" d="M 394.657079 307.584 
L 394.657079 41.472 
" style="fill:none;stroke:#b0b0b0;stroke-dasharray:5.12,1.28,0.8,1.28;stroke-dashoffset:0;stroke-width:0.8;"/>
     </g>
     <g id="line2d_44">
      <g>
       <use style="stroke:#000000;stroke-width:0.8;" x="394.657079" xlink:href="#m0722265115" y="307.584"/>
      </g>
     </g>
     <g id="text_22">
      <!-- 84 -->
      <g transform="translate(388.294579 322.182437)scale(0.1 -0.1)">
       <use xlink:href="#DejaVuSans-56"/>
       <use x="63.623047" xlink:href="#DejaVuSans-52"/>
      </g>
     </g>
    </g>
    <g id="xtick_23">
     <g id="line2d_45">
      <path clip-path="url(#p5bc587eae2)" d="M 410.707416 307.584 
L 410.707416 41.472 
" style="fill:none;stroke:#b0b0b0;stroke-dasharray:5.12,1.28,0.8,1.28;stroke-dashoffset:0;stroke-width:0.8;"/>
     </g>
     <g id="line2d_46">
      <g>
       <use style="stroke:#000000;stroke-width:0.8;" x="410.707416" xlink:href="#m0722265115" y="307.584"/>
      </g>
     </g>
     <g id="text_23">
      <!-- 88 -->
      <g transform="translate(404.344916 322.182437)scale(0.1 -0.1)">
       <use xlink:href="#DejaVuSans-56"/>
       <use x="63.623047" xlink:href="#DejaVuSans-56"/>
      </g>
     </g>
    </g>
    <g id="text_24">
     <!-- threads -->
     <defs>
      <path d="M 18.3125 70.21875 
L 18.3125 54.6875 
L 36.8125 54.6875 
L 36.8125 47.703125 
L 18.3125 47.703125 
L 18.3125 18.015625 
Q 18.3125 11.328125 20.140625 9.421875 
Q 21.96875 7.515625 27.59375 7.515625 
L 36.8125 7.515625 
L 36.8125 0 
L 27.59375 0 
Q 17.1875 0 13.234375 3.875 
Q 9.28125 7.765625 9.28125 18.015625 
L 9.28125 47.703125 
L 2.6875 47.703125 
L 2.6875 54.6875 
L 9.28125 54.6875 
L 9.28125 70.21875 
z
" id="DejaVuSans-116"/>
      <path d="M 54.890625 33.015625 
L 54.890625 0 
L 45.90625 0 
L 45.90625 32.71875 
Q 45.90625 40.484375 42.875 44.328125 
Q 39.84375 48.1875 33.796875 48.1875 
Q 26.515625 48.1875 22.3125 43.546875 
Q 18.109375 38.921875 18.109375 30.90625 
L 18.109375 0 
L 9.078125 0 
L 9.078125 75.984375 
L 18.109375 75.984375 
L 18.109375 46.1875 
Q 21.34375 51.125 25.703125 53.5625 
Q 30.078125 56 35.796875 56 
Q 45.21875 56 50.046875 50.171875 
Q 54.890625 44.34375 54.890625 33.015625 
z
" id="DejaVuSans-104"/>
      <path d="M 41.109375 46.296875 
Q 39.59375 47.171875 37.8125 47.578125 
Q 36.03125 48 33.890625 48 
Q 26.265625 48 22.1875 43.046875 
Q 18.109375 38.09375 18.109375 28.8125 
L 18.109375 0 
L 9.078125 0 
L 9.078125 54.6875 
L 18.109375 54.6875 
L 18.109375 46.1875 
Q 20.953125 51.171875 25.484375 53.578125 
Q 30.03125 56 36.53125 56 
Q 37.453125 56 38.578125 55.875 
Q 39.703125 55.765625 41.0625 55.515625 
z
" id="DejaVuSans-114"/>
      <path d="M 56.203125 29.59375 
L 56.203125 25.203125 
L 14.890625 25.203125 
Q 15.484375 15.921875 20.484375 11.0625 
Q 25.484375 6.203125 34.421875 6.203125 
Q 39.59375 6.203125 44.453125 7.46875 
Q 49.3125 8.734375 54.109375 11.28125 
L 54.109375 2.78125 
Q 49.265625 0.734375 44.1875 -0.34375 
Q 39.109375 -1.421875 33.890625 -1.421875 
Q 20.796875 -1.421875 13.15625 6.1875 
Q 5.515625 13.8125 5.515625 26.8125 
Q 5.515625 40.234375 12.765625 48.109375 
Q 20.015625 56 32.328125 56 
Q 43.359375 56 49.78125 48.890625 
Q 56.203125 41.796875 56.203125 29.59375 
z
M 47.21875 32.234375 
Q 47.125 39.59375 43.09375 43.984375 
Q 39.0625 48.390625 32.421875 48.390625 
Q 24.90625 48.390625 20.390625 44.140625 
Q 15.875 39.890625 15.1875 32.171875 
z
" id="DejaVuSans-101"/>
      <path d="M 34.28125 27.484375 
Q 23.390625 27.484375 19.1875 25 
Q 14.984375 22.515625 14.984375 16.5 
Q 14.984375 11.71875 18.140625 8.90625 
Q 21.296875 6.109375 26.703125 6.109375 
Q 34.1875 6.109375 38.703125 11.40625 
Q 43.21875 16.703125 43.21875 25.484375 
L 43.21875 27.484375 
z
M 52.203125 31.203125 
L 52.203125 0 
L 43.21875 0 
L 43.21875 8.296875 
Q 40.140625 3.328125 35.546875 0.953125 
Q 30.953125 -1.421875 24.3125 -1.421875 
Q 15.921875 -1.421875 10.953125 3.296875 
Q 6 8.015625 6 15.921875 
Q 6 25.140625 12.171875 29.828125 
Q 18.359375 34.515625 30.609375 34.515625 
L 43.21875 34.515625 
L 43.21875 35.40625 
Q 43.21875 41.609375 39.140625 45 
Q 35.0625 48.390625 27.6875 48.390625 
Q 23 48.390625 18.546875 47.265625 
Q 14.109375 46.140625 10.015625 43.890625 
L 10.015625 52.203125 
Q 14.9375 54.109375 19.578125 55.046875 
Q 24.21875 56 28.609375 56 
Q 40.484375 56 46.34375 49.84375 
Q 52.203125 43.703125 52.203125 31.203125 
z
" id="DejaVuSans-97"/>
      <path d="M 45.40625 46.390625 
L 45.40625 75.984375 
L 54.390625 75.984375 
L 54.390625 0 
L 45.40625 0 
L 45.40625 8.203125 
Q 42.578125 3.328125 38.25 0.953125 
Q 33.9375 -1.421875 27.875 -1.421875 
Q 17.96875 -1.421875 11.734375 6.484375 
Q 5.515625 14.40625 5.515625 27.296875 
Q 5.515625 40.1875 11.734375 48.09375 
Q 17.96875 56 27.875 56 
Q 33.9375 56 38.25 53.625 
Q 42.578125 51.265625 45.40625 46.390625 
z
M 14.796875 27.296875 
Q 14.796875 17.390625 18.875 11.75 
Q 22.953125 6.109375 30.078125 6.109375 
Q 37.203125 6.109375 41.296875 11.75 
Q 45.40625 17.390625 45.40625 27.296875 
Q 45.40625 37.203125 41.296875 42.84375 
Q 37.203125 48.484375 30.078125 48.484375 
Q 22.953125 48.484375 18.875 42.84375 
Q 14.796875 37.203125 14.796875 27.296875 
z
" id="DejaVuSans-100"/>
      <path d="M 44.28125 53.078125 
L 44.28125 44.578125 
Q 40.484375 46.53125 36.375 47.5 
Q 32.28125 48.484375 27.875 48.484375 
Q 21.1875 48.484375 17.84375 46.4375 
Q 14.5 44.390625 14.5 40.28125 
Q 14.5 37.15625 16.890625 35.375 
Q 19.28125 33.59375 26.515625 31.984375 
L 29.59375 31.296875 
Q 39.15625 29.25 43.1875 25.515625 
Q 47.21875 21.78125 47.21875 15.09375 
Q 47.21875 7.46875 41.1875 3.015625 
Q 35.15625 -1.421875 24.609375 -1.421875 
Q 20.21875 -1.421875 15.453125 -0.5625 
Q 10.6875 0.296875 5.421875 2 
L 5.421875 11.28125 
Q 10.40625 8.6875 15.234375 7.390625 
Q 20.0625 6.109375 24.8125 6.109375 
Q 31.15625 6.109375 34.5625 8.28125 
Q 37.984375 10.453125 37.984375 14.40625 
Q 37.984375 18.0625 35.515625 20.015625 
Q 33.0625 21.96875 24.703125 23.78125 
L 21.578125 24.515625 
Q 13.234375 26.265625 9.515625 29.90625 
Q 5.8125 33.546875 5.8125 39.890625 
Q 5.8125 47.609375 11.28125 51.796875 
Q 16.75 56 26.8125 56 
Q 31.78125 56 36.171875 55.265625 
Q 40.578125 54.546875 44.28125 53.078125 
z
" id="DejaVuSans-115"/>
     </defs>
     <g transform="translate(217.168594 335.860562)scale(0.1 -0.1)">
      <use xlink:href="#DejaVuSans-116"/>
      <use x="39.208984" xlink:href="#DejaVuSans-104"/>
      <use x="102.587891" xlink:href="#DejaVuSans-114"/>
      <use x="141.451172" xlink:href="#DejaVuSans-101"/>
      <use x="202.974609" xlink:href="#DejaVuSans-97"/>
      <use x="264.253906" xlink:href="#DejaVuSans-100"/>
      <use x="327.730469" xlink:href="#DejaVuSans-115"/>
     </g>
    </g>
   </g>
   <g id="matplotlib.axis_2">
    <g id="ytick_1">
     <g id="line2d_47">
      <path clip-path="url(#p5bc587eae2)" d="M 57.6 280.259769 
L 414.72 280.259769 
" style="fill:none;stroke:#b0b0b0;stroke-dasharray:5.12,1.28,0.8,1.28;stroke-dashoffset:0;stroke-width:0.8;"/>
     </g>
     <g id="line2d_48">
      <defs>
       <path d="M 0 0 
L -3.5 0 
" id="m3e00679cf9" style="stroke:#000000;stroke-width:0.8;"/>
      </defs>
      <g>
       <use style="stroke:#000000;stroke-width:0.8;" x="57.6" xlink:href="#m3e00679cf9" y="280.259769"/>
      </g>
     </g>
     <g id="text_25">
      <!-- 0.4 -->
      <defs>
       <path d="M 10.6875 12.40625 
L 21 12.40625 
L 21 0 
L 10.6875 0 
z
" id="DejaVuSans-46"/>
      </defs>
      <g transform="translate(34.696875 284.058988)scale(0.1 -0.1)">
       <use xlink:href="#DejaVuSans-48"/>
       <use x="63.623047" xlink:href="#DejaVuSans-46"/>
       <use x="95.410156" xlink:href="#DejaVuSans-52"/>
      </g>
     </g>
    </g>
    <g id="ytick_2">
     <g id="line2d_49">
      <path clip-path="url(#p5bc587eae2)" d="M 57.6 248.701986 
L 414.72 248.701986 
" style="fill:none;stroke:#b0b0b0;stroke-dasharray:5.12,1.28,0.8,1.28;stroke-dashoffset:0;stroke-width:0.8;"/>
     </g>
     <g id="line2d_50">
      <g>
       <use style="stroke:#000000;stroke-width:0.8;" x="57.6" xlink:href="#m3e00679cf9" y="248.701986"/>
      </g>
     </g>
     <g id="text_26">
      <!-- 0.6 -->
      <g transform="translate(34.696875 252.501205)scale(0.1 -0.1)">
       <use xlink:href="#DejaVuSans-48"/>
       <use x="63.623047" xlink:href="#DejaVuSans-46"/>
       <use x="95.410156" xlink:href="#DejaVuSans-54"/>
      </g>
     </g>
    </g>
    <g id="ytick_3">
     <g id="line2d_51">
      <path clip-path="url(#p5bc587eae2)" d="M 57.6 217.144203 
L 414.72 217.144203 
" style="fill:none;stroke:#b0b0b0;stroke-dasharray:5.12,1.28,0.8,1.28;stroke-dashoffset:0;stroke-width:0.8;"/>
     </g>
     <g id="line2d_52">
      <g>
       <use style="stroke:#000000;stroke-width:0.8;" x="57.6" xlink:href="#m3e00679cf9" y="217.144203"/>
      </g>
     </g>
     <g id="text_27">
      <!-- 0.8 -->
      <g transform="translate(34.696875 220.943422)scale(0.1 -0.1)">
       <use xlink:href="#DejaVuSans-48"/>
       <use x="63.623047" xlink:href="#DejaVuSans-46"/>
       <use x="95.410156" xlink:href="#DejaVuSans-56"/>
      </g>
     </g>
    </g>
    <g id="ytick_4">
     <g id="line2d_53">
      <path clip-path="url(#p5bc587eae2)" d="M 57.6 185.586421 
L 414.72 185.586421 
" style="fill:none;stroke:#b0b0b0;stroke-dasharray:5.12,1.28,0.8,1.28;stroke-dashoffset:0;stroke-width:0.8;"/>
     </g>
     <g id="line2d_54">
      <g>
       <use style="stroke:#000000;stroke-width:0.8;" x="57.6" xlink:href="#m3e00679cf9" y="185.586421"/>
      </g>
     </g>
     <g id="text_28">
      <!-- 1.0 -->
      <g transform="translate(34.696875 189.385639)scale(0.1 -0.1)">
       <use xlink:href="#DejaVuSans-49"/>
       <use x="63.623047" xlink:href="#DejaVuSans-46"/>
       <use x="95.410156" xlink:href="#DejaVuSans-48"/>
      </g>
     </g>
    </g>
    <g id="ytick_5">
     <g id="line2d_55">
      <path clip-path="url(#p5bc587eae2)" d="M 57.6 154.028638 
L 414.72 154.028638 
" style="fill:none;stroke:#b0b0b0;stroke-dasharray:5.12,1.28,0.8,1.28;stroke-dashoffset:0;stroke-width:0.8;"/>
     </g>
     <g id="line2d_56">
      <g>
       <use style="stroke:#000000;stroke-width:0.8;" x="57.6" xlink:href="#m3e00679cf9" y="154.028638"/>
      </g>
     </g>
     <g id="text_29">
      <!-- 1.2 -->
      <g transform="translate(34.696875 157.827857)scale(0.1 -0.1)">
       <use xlink:href="#DejaVuSans-49"/>
       <use x="63.623047" xlink:href="#DejaVuSans-46"/>
       <use x="95.410156" xlink:href="#DejaVuSans-50"/>
      </g>
     </g>
    </g>
    <g id="ytick_6">
     <g id="line2d_57">
      <path clip-path="url(#p5bc587eae2)" d="M 57.6 122.470855 
L 414.72 122.470855 
" style="fill:none;stroke:#b0b0b0;stroke-dasharray:5.12,1.28,0.8,1.28;stroke-dashoffset:0;stroke-width:0.8;"/>
     </g>
     <g id="line2d_58">
      <g>
       <use style="stroke:#000000;stroke-width:0.8;" x="57.6" xlink:href="#m3e00679cf9" y="122.470855"/>
      </g>
     </g>
     <g id="text_30">
      <!-- 1.4 -->
      <g transform="translate(34.696875 126.270074)scale(0.1 -0.1)">
       <use xlink:href="#DejaVuSans-49"/>
       <use x="63.623047" xlink:href="#DejaVuSans-46"/>
       <use x="95.410156" xlink:href="#DejaVuSans-52"/>
      </g>
     </g>
    </g>
    <g id="ytick_7">
     <g id="line2d_59">
      <path clip-path="url(#p5bc587eae2)" d="M 57.6 90.913072 
L 414.72 90.913072 
" style="fill:none;stroke:#b0b0b0;stroke-dasharray:5.12,1.28,0.8,1.28;stroke-dashoffset:0;stroke-width:0.8;"/>
     </g>
     <g id="line2d_60">
      <g>
       <use style="stroke:#000000;stroke-width:0.8;" x="57.6" xlink:href="#m3e00679cf9" y="90.913072"/>
      </g>
     </g>
     <g id="text_31">
      <!-- 1.6 -->
      <g transform="translate(34.696875 94.712291)scale(0.1 -0.1)">
       <use xlink:href="#DejaVuSans-49"/>
       <use x="63.623047" xlink:href="#DejaVuSans-46"/>
       <use x="95.410156" xlink:href="#DejaVuSans-54"/>
      </g>
     </g>
    </g>
    <g id="ytick_8">
     <g id="line2d_61">
      <path clip-path="url(#p5bc587eae2)" d="M 57.6 59.355289 
L 414.72 59.355289 
" style="fill:none;stroke:#b0b0b0;stroke-dasharray:5.12,1.28,0.8,1.28;stroke-dashoffset:0;stroke-width:0.8;"/>
     </g>
     <g id="line2d_62">
      <g>
       <use style="stroke:#000000;stroke-width:0.8;" x="57.6" xlink:href="#m3e00679cf9" y="59.355289"/>
      </g>
     </g>
     <g id="text_32">
      <!-- 1.8 -->
      <g transform="translate(34.696875 63.154508)scale(0.1 -0.1)">
       <use xlink:href="#DejaVuSans-49"/>
       <use x="63.623047" xlink:href="#DejaVuSans-46"/>
       <use x="95.410156" xlink:href="#DejaVuSans-56"/>
      </g>
     </g>
    </g>
    <g id="text_33">
     <!-- duration (s) -->
     <defs>
      <path d="M 8.5 21.578125 
L 8.5 54.6875 
L 17.484375 54.6875 
L 17.484375 21.921875 
Q 17.484375 14.15625 20.5 10.265625 
Q 23.53125 6.390625 29.59375 6.390625 
Q 36.859375 6.390625 41.078125 11.03125 
Q 45.3125 15.671875 45.3125 23.6875 
L 45.3125 54.6875 
L 54.296875 54.6875 
L 54.296875 0 
L 45.3125 0 
L 45.3125 8.40625 
Q 42.046875 3.421875 37.71875 1 
Q 33.40625 -1.421875 27.6875 -1.421875 
Q 18.265625 -1.421875 13.375 4.4375 
Q 8.5 10.296875 8.5 21.578125 
z
M 31.109375 56 
z
" id="DejaVuSans-117"/>
      <path d="M 9.421875 54.6875 
L 18.40625 54.6875 
L 18.40625 0 
L 9.421875 0 
z
M 9.421875 75.984375 
L 18.40625 75.984375 
L 18.40625 64.59375 
L 9.421875 64.59375 
z
" id="DejaVuSans-105"/>
      <path d="M 30.609375 48.390625 
Q 23.390625 48.390625 19.1875 42.75 
Q 14.984375 37.109375 14.984375 27.296875 
Q 14.984375 17.484375 19.15625 11.84375 
Q 23.34375 6.203125 30.609375 6.203125 
Q 37.796875 6.203125 41.984375 11.859375 
Q 46.1875 17.53125 46.1875 27.296875 
Q 46.1875 37.015625 41.984375 42.703125 
Q 37.796875 48.390625 30.609375 48.390625 
z
M 30.609375 56 
Q 42.328125 56 49.015625 48.375 
Q 55.71875 40.765625 55.71875 27.296875 
Q 55.71875 13.875 49.015625 6.21875 
Q 42.328125 -1.421875 30.609375 -1.421875 
Q 18.84375 -1.421875 12.171875 6.21875 
Q 5.515625 13.875 5.515625 27.296875 
Q 5.515625 40.765625 12.171875 48.375 
Q 18.84375 56 30.609375 56 
z
" id="DejaVuSans-111"/>
      <path d="M 54.890625 33.015625 
L 54.890625 0 
L 45.90625 0 
L 45.90625 32.71875 
Q 45.90625 40.484375 42.875 44.328125 
Q 39.84375 48.1875 33.796875 48.1875 
Q 26.515625 48.1875 22.3125 43.546875 
Q 18.109375 38.921875 18.109375 30.90625 
L 18.109375 0 
L 9.078125 0 
L 9.078125 54.6875 
L 18.109375 54.6875 
L 18.109375 46.1875 
Q 21.34375 51.125 25.703125 53.5625 
Q 30.078125 56 35.796875 56 
Q 45.21875 56 50.046875 50.171875 
Q 54.890625 44.34375 54.890625 33.015625 
z
" id="DejaVuSans-110"/>
      <path id="DejaVuSans-32"/>
      <path d="M 31 75.875 
Q 24.46875 64.65625 21.28125 53.65625 
Q 18.109375 42.671875 18.109375 31.390625 
Q 18.109375 20.125 21.3125 9.0625 
Q 24.515625 -2 31 -13.1875 
L 23.1875 -13.1875 
Q 15.875 -1.703125 12.234375 9.375 
Q 8.59375 20.453125 8.59375 31.390625 
Q 8.59375 42.28125 12.203125 53.3125 
Q 15.828125 64.359375 23.1875 75.875 
z
" id="DejaVuSans-40"/>
      <path d="M 8.015625 75.875 
L 15.828125 75.875 
Q 23.140625 64.359375 26.78125 53.3125 
Q 30.421875 42.28125 30.421875 31.390625 
Q 30.421875 20.453125 26.78125 9.375 
Q 23.140625 -1.703125 15.828125 -13.1875 
L 8.015625 -13.1875 
Q 14.5 -2 17.703125 9.0625 
Q 20.90625 20.125 20.90625 31.390625 
Q 20.90625 42.671875 17.703125 53.65625 
Q 14.5 64.65625 8.015625 75.875 
z
" id="DejaVuSans-41"/>
     </defs>
     <g transform="translate(28.617187 203.663156)rotate(-90)scale(0.1 -0.1)">
      <use xlink:href="#DejaVuSans-100"/>
      <use x="63.476562" xlink:href="#DejaVuSans-117"/>
      <use x="126.855469" xlink:href="#DejaVuSans-114"/>
      <use x="167.96875" xlink:href="#DejaVuSans-97"/>
      <use x="229.248047" xlink:href="#DejaVuSans-116"/>
      <use x="268.457031" xlink:href="#DejaVuSans-105"/>
      <use x="296.240234" xlink:href="#DejaVuSans-111"/>
      <use x="357.421875" xlink:href="#DejaVuSans-110"/>
      <use x="420.800781" xlink:href="#DejaVuSans-32"/>
      <use x="452.587891" xlink:href="#DejaVuSans-40"/>
      <use x="491.601562" xlink:href="#DejaVuSans-115"/>
      <use x="543.701172" xlink:href="#DejaVuSans-41"/>
     </g>
    </g>
   </g>
   <g id="line2d_63">
    <path clip-path="url(#p5bc587eae2)" d="M 61.612584 75.056951 
L 65.625169 190.861868 
L 69.637753 224.21236 
L 73.650337 244.957616 
L 77.662921 255.319009 
L 81.675506 263.377188 
L 85.68809 269.898759 
L 89.700674 275.649715 
L 93.713258 279.277657 
L 97.725843 282.55008 
L 101.738427 284.31166 
L 105.751011 285.656213 
L 109.763596 287.255082 
L 113.77618 288.408753 
L 117.788764 287.999315 
L 121.801348 290.195307 
L 125.813933 291.117406 
L 129.826517 291.294961 
L 133.839101 292.357065 
L 137.851685 292.768362 
L 141.86427 293.549376 
L 145.876854 293.296539 
L 149.889438 293.899606 
L 153.902022 293.874572 
L 157.914607 293.796952 
L 161.927191 294.568814 
L 165.939775 293.55331 
L 169.95236 294.61615 
L 173.964944 294.497734 
L 177.977528 293.203037 
L 181.990112 293.195325 
L 186.002697 295.41814 
L 190.015281 295.488 
L 194.027865 293.614383 
L 198.040449 295.094266 
L 202.053034 294.28034 
L 206.065618 295.298052 
L 210.078202 295.013797 
L 214.090787 294.944007 
L 218.103371 294.993208 
L 222.115955 295.028453 
L 226.128539 294.781172 
L 230.141124 294.950096 
L 234.153708 294.658886 
L 238.166292 294.691804 
L 242.178876 295.171569 
L 246.191461 294.919081 
L 250.204045 294.272348 
L 254.216629 294.395134 
L 258.229213 294.568443 
L 262.241798 294.707636 
L 266.254382 294.861598 
L 270.266966 294.413637 
L 274.279551 294.853558 
L 278.292135 293.84747 
L 282.304719 294.428664 
L 286.317303 294.346384 
L 290.329888 294.187612 
L 294.342472 294.403179 
L 298.355056 294.133106 
L 302.36764 293.793894 
L 306.380225 294.094213 
L 310.392809 293.632381 
L 314.405393 293.661284 
L 318.417978 293.981294 
L 322.430562 293.850506 
L 326.443146 293.742016 
L 330.45573 293.796318 
L 334.468315 293.557765 
L 338.480899 293.803063 
L 342.493483 293.44927 
L 346.506067 293.063215 
L 350.518652 293.638331 
L 354.531236 293.260741 
L 358.54382 293.046539 
L 362.556404 293.121838 
L 366.568989 293.177155 
L 370.581573 293.351716 
L 374.594157 292.682739 
L 378.606742 292.651499 
L 382.619326 293.049753 
L 386.63191 292.884102 
L 390.644494 293.025386 
L 394.657079 292.935652 
L 398.669663 292.603055 
L 402.682247 292.580279 
L 406.694831 292.103631 
L 410.707416 292.242544 
" style="fill:none;stroke:#0000ff;stroke-dasharray:1.5,2.475;stroke-dashoffset:0;stroke-width:1.5;"/>
    <defs>
     <path d="M 0 1.5 
C 0.397805 1.5 0.77937 1.341951 1.06066 1.06066 
C 1.341951 0.77937 1.5 0.397805 1.5 0 
C 1.5 -0.397805 1.341951 -0.77937 1.06066 -1.06066 
C 0.77937 -1.341951 0.397805 -1.5 0 -1.5 
C -0.397805 -1.5 -0.77937 -1.341951 -1.06066 -1.06066 
C -1.341951 -0.77937 -1.5 -0.397805 -1.5 0 
C -1.5 0.397805 -1.341951 0.77937 -1.06066 1.06066 
C -0.77937 1.341951 -0.397805 1.5 0 1.5 
z
" id="mdccf6db96e" style="stroke:#0000ff;"/>
    </defs>
    <g clip-path="url(#p5bc587eae2)">
     <use style="fill:#0000ff;stroke:#0000ff;" x="61.612584" xlink:href="#mdccf6db96e" y="75.056951"/>
     <use style="fill:#0000ff;stroke:#0000ff;" x="65.625169" xlink:href="#mdccf6db96e" y="190.861868"/>
     <use style="fill:#0000ff;stroke:#0000ff;" x="69.637753" xlink:href="#mdccf6db96e" y="224.21236"/>
     <use style="fill:#0000ff;stroke:#0000ff;" x="73.650337" xlink:href="#mdccf6db96e" y="244.957616"/>
     <use style="fill:#0000ff;stroke:#0000ff;" x="77.662921" xlink:href="#mdccf6db96e" y="255.319009"/>
     <use style="fill:#0000ff;stroke:#0000ff;" x="81.675506" xlink:href="#mdccf6db96e" y="263.377188"/>
     <use style="fill:#0000ff;stroke:#0000ff;" x="85.68809" xlink:href="#mdccf6db96e" y="269.898759"/>
     <use style="fill:#0000ff;stroke:#0000ff;" x="89.700674" xlink:href="#mdccf6db96e" y="275.649715"/>
     <use style="fill:#0000ff;stroke:#0000ff;" x="93.713258" xlink:href="#mdccf6db96e" y="279.277657"/>
     <use style="fill:#0000ff;stroke:#0000ff;" x="97.725843" xlink:href="#mdccf6db96e" y="282.55008"/>
     <use style="fill:#0000ff;stroke:#0000ff;" x="101.738427" xlink:href="#mdccf6db96e" y="284.31166"/>
     <use style="fill:#0000ff;stroke:#0000ff;" x="105.751011" xlink:href="#mdccf6db96e" y="285.656213"/>
     <use style="fill:#0000ff;stroke:#0000ff;" x="109.763596" xlink:href="#mdccf6db96e" y="287.255082"/>
     <use style="fill:#0000ff;stroke:#0000ff;" x="113.77618" xlink:href="#mdccf6db96e" y="288.408753"/>
     <use style="fill:#0000ff;stroke:#0000ff;" x="117.788764" xlink:href="#mdccf6db96e" y="287.999315"/>
     <use style="fill:#0000ff;stroke:#0000ff;" x="121.801348" xlink:href="#mdccf6db96e" y="290.195307"/>
     <use style="fill:#0000ff;stroke:#0000ff;" x="125.813933" xlink:href="#mdccf6db96e" y="291.117406"/>
     <use style="fill:#0000ff;stroke:#0000ff;" x="129.826517" xlink:href="#mdccf6db96e" y="291.294961"/>
     <use style="fill:#0000ff;stroke:#0000ff;" x="133.839101" xlink:href="#mdccf6db96e" y="292.357065"/>
     <use style="fill:#0000ff;stroke:#0000ff;" x="137.851685" xlink:href="#mdccf6db96e" y="292.768362"/>
     <use style="fill:#0000ff;stroke:#0000ff;" x="141.86427" xlink:href="#mdccf6db96e" y="293.549376"/>
     <use style="fill:#0000ff;stroke:#0000ff;" x="145.876854" xlink:href="#mdccf6db96e" y="293.296539"/>
     <use style="fill:#0000ff;stroke:#0000ff;" x="149.889438" xlink:href="#mdccf6db96e" y="293.899606"/>
     <use style="fill:#0000ff;stroke:#0000ff;" x="153.902022" xlink:href="#mdccf6db96e" y="293.874572"/>
     <use style="fill:#0000ff;stroke:#0000ff;" x="157.914607" xlink:href="#mdccf6db96e" y="293.796952"/>
     <use style="fill:#0000ff;stroke:#0000ff;" x="161.927191" xlink:href="#mdccf6db96e" y="294.568814"/>
     <use style="fill:#0000ff;stroke:#0000ff;" x="165.939775" xlink:href="#mdccf6db96e" y="293.55331"/>
     <use style="fill:#0000ff;stroke:#0000ff;" x="169.95236" xlink:href="#mdccf6db96e" y="294.61615"/>
     <use style="fill:#0000ff;stroke:#0000ff;" x="173.964944" xlink:href="#mdccf6db96e" y="294.497734"/>
     <use style="fill:#0000ff;stroke:#0000ff;" x="177.977528" xlink:href="#mdccf6db96e" y="293.203037"/>
     <use style="fill:#0000ff;stroke:#0000ff;" x="181.990112" xlink:href="#mdccf6db96e" y="293.195325"/>
     <use style="fill:#0000ff;stroke:#0000ff;" x="186.002697" xlink:href="#mdccf6db96e" y="295.41814"/>
     <use style="fill:#0000ff;stroke:#0000ff;" x="190.015281" xlink:href="#mdccf6db96e" y="295.488"/>
     <use style="fill:#0000ff;stroke:#0000ff;" x="194.027865" xlink:href="#mdccf6db96e" y="293.614383"/>
     <use style="fill:#0000ff;stroke:#0000ff;" x="198.040449" xlink:href="#mdccf6db96e" y="295.094266"/>
     <use style="fill:#0000ff;stroke:#0000ff;" x="202.053034" xlink:href="#mdccf6db96e" y="294.28034"/>
     <use style="fill:#0000ff;stroke:#0000ff;" x="206.065618" xlink:href="#mdccf6db96e" y="295.298052"/>
     <use style="fill:#0000ff;stroke:#0000ff;" x="210.078202" xlink:href="#mdccf6db96e" y="295.013797"/>
     <use style="fill:#0000ff;stroke:#0000ff;" x="214.090787" xlink:href="#mdccf6db96e" y="294.944007"/>
     <use style="fill:#0000ff;stroke:#0000ff;" x="218.103371" xlink:href="#mdccf6db96e" y="294.993208"/>
     <use style="fill:#0000ff;stroke:#0000ff;" x="222.115955" xlink:href="#mdccf6db96e" y="295.028453"/>
     <use style="fill:#0000ff;stroke:#0000ff;" x="226.128539" xlink:href="#mdccf6db96e" y="294.781172"/>
     <use style="fill:#0000ff;stroke:#0000ff;" x="230.141124" xlink:href="#mdccf6db96e" y="294.950096"/>
     <use style="fill:#0000ff;stroke:#0000ff;" x="234.153708" xlink:href="#mdccf6db96e" y="294.658886"/>
     <use style="fill:#0000ff;stroke:#0000ff;" x="238.166292" xlink:href="#mdccf6db96e" y="294.691804"/>
     <use style="fill:#0000ff;stroke:#0000ff;" x="242.178876" xlink:href="#mdccf6db96e" y="295.171569"/>
     <use style="fill:#0000ff;stroke:#0000ff;" x="246.191461" xlink:href="#mdccf6db96e" y="294.919081"/>
     <use style="fill:#0000ff;stroke:#0000ff;" x="250.204045" xlink:href="#mdccf6db96e" y="294.272348"/>
     <use style="fill:#0000ff;stroke:#0000ff;" x="254.216629" xlink:href="#mdccf6db96e" y="294.395134"/>
     <use style="fill:#0000ff;stroke:#0000ff;" x="258.229213" xlink:href="#mdccf6db96e" y="294.568443"/>
     <use style="fill:#0000ff;stroke:#0000ff;" x="262.241798" xlink:href="#mdccf6db96e" y="294.707636"/>
     <use style="fill:#0000ff;stroke:#0000ff;" x="266.254382" xlink:href="#mdccf6db96e" y="294.861598"/>
     <use style="fill:#0000ff;stroke:#0000ff;" x="270.266966" xlink:href="#mdccf6db96e" y="294.413637"/>
     <use style="fill:#0000ff;stroke:#0000ff;" x="274.279551" xlink:href="#mdccf6db96e" y="294.853558"/>
     <use style="fill:#0000ff;stroke:#0000ff;" x="278.292135" xlink:href="#mdccf6db96e" y="293.84747"/>
     <use style="fill:#0000ff;stroke:#0000ff;" x="282.304719" xlink:href="#mdccf6db96e" y="294.428664"/>
     <use style="fill:#0000ff;stroke:#0000ff;" x="286.317303" xlink:href="#mdccf6db96e" y="294.346384"/>
     <use style="fill:#0000ff;stroke:#0000ff;" x="290.329888" xlink:href="#mdccf6db96e" y="294.187612"/>
     <use style="fill:#0000ff;stroke:#0000ff;" x="294.342472" xlink:href="#mdccf6db96e" y="294.403179"/>
     <use style="fill:#0000ff;stroke:#0000ff;" x="298.355056" xlink:href="#mdccf6db96e" y="294.133106"/>
     <use style="fill:#0000ff;stroke:#0000ff;" x="302.36764" xlink:href="#mdccf6db96e" y="293.793894"/>
     <use style="fill:#0000ff;stroke:#0000ff;" x="306.380225" xlink:href="#mdccf6db96e" y="294.094213"/>
     <use style="fill:#0000ff;stroke:#0000ff;" x="310.392809" xlink:href="#mdccf6db96e" y="293.632381"/>
     <use style="fill:#0000ff;stroke:#0000ff;" x="314.405393" xlink:href="#mdccf6db96e" y="293.661284"/>
     <use style="fill:#0000ff;stroke:#0000ff;" x="318.417978" xlink:href="#mdccf6db96e" y="293.981294"/>
     <use style="fill:#0000ff;stroke:#0000ff;" x="322.430562" xlink:href="#mdccf6db96e" y="293.850506"/>
     <use style="fill:#0000ff;stroke:#0000ff;" x="326.443146" xlink:href="#mdccf6db96e" y="293.742016"/>
     <use style="fill:#0000ff;stroke:#0000ff;" x="330.45573" xlink:href="#mdccf6db96e" y="293.796318"/>
     <use style="fill:#0000ff;stroke:#0000ff;" x="334.468315" xlink:href="#mdccf6db96e" y="293.557765"/>
     <use style="fill:#0000ff;stroke:#0000ff;" x="338.480899" xlink:href="#mdccf6db96e" y="293.803063"/>
     <use style="fill:#0000ff;stroke:#0000ff;" x="342.493483" xlink:href="#mdccf6db96e" y="293.44927"/>
     <use style="fill:#0000ff;stroke:#0000ff;" x="346.506067" xlink:href="#mdccf6db96e" y="293.063215"/>
     <use style="fill:#0000ff;stroke:#0000ff;" x="350.518652" xlink:href="#mdccf6db96e" y="293.638331"/>
     <use style="fill:#0000ff;stroke:#0000ff;" x="354.531236" xlink:href="#mdccf6db96e" y="293.260741"/>
     <use style="fill:#0000ff;stroke:#0000ff;" x="358.54382" xlink:href="#mdccf6db96e" y="293.046539"/>
     <use style="fill:#0000ff;stroke:#0000ff;" x="362.556404" xlink:href="#mdccf6db96e" y="293.121838"/>
     <use style="fill:#0000ff;stroke:#0000ff;" x="366.568989" xlink:href="#mdccf6db96e" y="293.177155"/>
     <use style="fill:#0000ff;stroke:#0000ff;" x="370.581573" xlink:href="#mdccf6db96e" y="293.351716"/>
     <use style="fill:#0000ff;stroke:#0000ff;" x="374.594157" xlink:href="#mdccf6db96e" y="292.682739"/>
     <use style="fill:#0000ff;stroke:#0000ff;" x="378.606742" xlink:href="#mdccf6db96e" y="292.651499"/>
     <use style="fill:#0000ff;stroke:#0000ff;" x="382.619326" xlink:href="#mdccf6db96e" y="293.049753"/>
     <use style="fill:#0000ff;stroke:#0000ff;" x="386.63191" xlink:href="#mdccf6db96e" y="292.884102"/>
     <use style="fill:#0000ff;stroke:#0000ff;" x="390.644494" xlink:href="#mdccf6db96e" y="293.025386"/>
     <use style="fill:#0000ff;stroke:#0000ff;" x="394.657079" xlink:href="#mdccf6db96e" y="292.935652"/>
     <use style="fill:#0000ff;stroke:#0000ff;" x="398.669663" xlink:href="#mdccf6db96e" y="292.603055"/>
     <use style="fill:#0000ff;stroke:#0000ff;" x="402.682247" xlink:href="#mdccf6db96e" y="292.580279"/>
     <use style="fill:#0000ff;stroke:#0000ff;" x="406.694831" xlink:href="#mdccf6db96e" y="292.103631"/>
     <use style="fill:#0000ff;stroke:#0000ff;" x="410.707416" xlink:href="#mdccf6db96e" y="292.242544"/>
    </g>
   </g>
   <g id="line2d_64">
    <path clip-path="url(#p5bc587eae2)" d="M 61.612584 53.568 
L 65.625169 179.833261 
L 69.637753 214.826111 
L 73.650337 236.47637 
L 77.662921 247.085252 
L 81.675506 256.149503 
L 85.68809 261.913014 
L 89.700674 267.864285 
L 93.713258 270.85535 
L 97.725843 272.692266 
L 101.738427 276.050893 
L 105.751011 276.570213 
L 109.763596 278.240785 
L 113.77618 279.293667 
L 117.788764 278.735211 
L 121.801348 280.975557 
L 125.813933 280.364025 
L 129.826517 280.678656 
L 133.839101 280.997118 
L 137.851685 282.451124 
L 141.86427 283.172586 
L 145.876854 283.163374 
L 149.889438 282.271721 
L 153.902022 282.89284 
L 157.914607 281.613535 
L 161.927191 283.968438 
L 165.939775 281.834589 
L 169.95236 282.628942 
L 173.964944 281.616744 
L 177.977528 280.806214 
L 181.990112 282.143496 
L 186.002697 283.923064 
L 190.015281 284.605519 
L 194.027865 282.081853 
L 198.040449 283.956534 
L 202.053034 283.284865 
L 206.065618 283.74488 
L 210.078202 282.194057 
L 214.090787 284.044651 
L 218.103371 284.516822 
L 222.115955 283.812273 
L 226.128539 283.215962 
L 230.141124 283.85136 
L 234.153708 282.597374 
L 238.166292 284.514839 
L 242.178876 282.624234 
L 246.191461 284.519918 
L 250.204045 283.688993 
L 254.216629 283.720438 
L 258.229213 284.089381 
L 262.241798 283.076983 
L 266.254382 282.447179 
L 270.266966 283.788245 
L 274.279551 283.171237 
L 278.292135 282.866468 
L 282.304719 282.974383 
L 286.317303 282.703628 
L 290.329888 283.617859 
L 294.342472 283.177219 
L 298.355056 281.919078 
L 302.36764 280.936567 
L 306.380225 283.248449 
L 310.392809 282.108289 
L 314.405393 282.44977 
L 318.417978 282.781759 
L 322.430562 282.829638 
L 326.443146 283.382144 
L 330.45573 282.698689 
L 334.468315 282.988571 
L 338.480899 283.132886 
L 342.493483 282.962818 
L 346.506067 282.907667 
L 350.518652 282.78321 
L 354.531236 283.844739 
L 358.54382 282.938773 
L 362.556404 282.41768 
L 366.568989 281.737729 
L 370.581573 282.770801 
L 374.594157 282.806862 
L 378.606742 281.69302 
L 382.619326 281.901563 
L 386.63191 281.7073 
L 390.644494 282.455601 
L 394.657079 281.716597 
L 398.669663 282.119027 
L 402.682247 281.827629 
L 406.694831 281.705575 
L 410.707416 282.588302 
" style="fill:none;stroke:#ff0000;stroke-dasharray:1.5,2.475;stroke-dashoffset:0;stroke-width:1.5;"/>
    <defs>
     <path d="M 0 1.5 
C 0.397805 1.5 0.77937 1.341951 1.06066 1.06066 
C 1.341951 0.77937 1.5 0.397805 1.5 0 
C 1.5 -0.397805 1.341951 -0.77937 1.06066 -1.06066 
C 0.77937 -1.341951 0.397805 -1.5 0 -1.5 
C -0.397805 -1.5 -0.77937 -1.341951 -1.06066 -1.06066 
C -1.341951 -0.77937 -1.5 -0.397805 -1.5 0 
C -1.5 0.397805 -1.341951 0.77937 -1.06066 1.06066 
C -0.77937 1.341951 -0.397805 1.5 0 1.5 
z
" id="m8531c14ce2" style="stroke:#ff0000;"/>
    </defs>
    <g clip-path="url(#p5bc587eae2)">
     <use style="fill:#ff0000;stroke:#ff0000;" x="61.612584" xlink:href="#m8531c14ce2" y="53.568"/>
     <use style="fill:#ff0000;stroke:#ff0000;" x="65.625169" xlink:href="#m8531c14ce2" y="179.833261"/>
     <use style="fill:#ff0000;stroke:#ff0000;" x="69.637753" xlink:href="#m8531c14ce2" y="214.826111"/>
     <use style="fill:#ff0000;stroke:#ff0000;" x="73.650337" xlink:href="#m8531c14ce2" y="236.47637"/>
     <use style="fill:#ff0000;stroke:#ff0000;" x="77.662921" xlink:href="#m8531c14ce2" y="247.085252"/>
     <use style="fill:#ff0000;stroke:#ff0000;" x="81.675506" xlink:href="#m8531c14ce2" y="256.149503"/>
     <use style="fill:#ff0000;stroke:#ff0000;" x="85.68809" xlink:href="#m8531c14ce2" y="261.913014"/>
     <use style="fill:#ff0000;stroke:#ff0000;" x="89.700674" xlink:href="#m8531c14ce2" y="267.864285"/>
     <use style="fill:#ff0000;stroke:#ff0000;" x="93.713258" xlink:href="#m8531c14ce2" y="270.85535"/>
     <use style="fill:#ff0000;stroke:#ff0000;" x="97.725843" xlink:href="#m8531c14ce2" y="272.692266"/>
     <use style="fill:#ff0000;stroke:#ff0000;" x="101.738427" xlink:href="#m8531c14ce2" y="276.050893"/>
     <use style="fill:#ff0000;stroke:#ff0000;" x="105.751011" xlink:href="#m8531c14ce2" y="276.570213"/>
     <use style="fill:#ff0000;stroke:#ff0000;" x="109.763596" xlink:href="#m8531c14ce2" y="278.240785"/>
     <use style="fill:#ff0000;stroke:#ff0000;" x="113.77618" xlink:href="#m8531c14ce2" y="279.293667"/>
     <use style="fill:#ff0000;stroke:#ff0000;" x="117.788764" xlink:href="#m8531c14ce2" y="278.735211"/>
     <use style="fill:#ff0000;stroke:#ff0000;" x="121.801348" xlink:href="#m8531c14ce2" y="280.975557"/>
     <use style="fill:#ff0000;stroke:#ff0000;" x="125.813933" xlink:href="#m8531c14ce2" y="280.364025"/>
     <use style="fill:#ff0000;stroke:#ff0000;" x="129.826517" xlink:href="#m8531c14ce2" y="280.678656"/>
     <use style="fill:#ff0000;stroke:#ff0000;" x="133.839101" xlink:href="#m8531c14ce2" y="280.997118"/>
     <use style="fill:#ff0000;stroke:#ff0000;" x="137.851685" xlink:href="#m8531c14ce2" y="282.451124"/>
     <use style="fill:#ff0000;stroke:#ff0000;" x="141.86427" xlink:href="#m8531c14ce2" y="283.172586"/>
     <use style="fill:#ff0000;stroke:#ff0000;" x="145.876854" xlink:href="#m8531c14ce2" y="283.163374"/>
     <use style="fill:#ff0000;stroke:#ff0000;" x="149.889438" xlink:href="#m8531c14ce2" y="282.271721"/>
     <use style="fill:#ff0000;stroke:#ff0000;" x="153.902022" xlink:href="#m8531c14ce2" y="282.89284"/>
     <use style="fill:#ff0000;stroke:#ff0000;" x="157.914607" xlink:href="#m8531c14ce2" y="281.613535"/>
     <use style="fill:#ff0000;stroke:#ff0000;" x="161.927191" xlink:href="#m8531c14ce2" y="283.968438"/>
     <use style="fill:#ff0000;stroke:#ff0000;" x="165.939775" xlink:href="#m8531c14ce2" y="281.834589"/>
     <use style="fill:#ff0000;stroke:#ff0000;" x="169.95236" xlink:href="#m8531c14ce2" y="282.628942"/>
     <use style="fill:#ff0000;stroke:#ff0000;" x="173.964944" xlink:href="#m8531c14ce2" y="281.616744"/>
     <use style="fill:#ff0000;stroke:#ff0000;" x="177.977528" xlink:href="#m8531c14ce2" y="280.806214"/>
     <use style="fill:#ff0000;stroke:#ff0000;" x="181.990112" xlink:href="#m8531c14ce2" y="282.143496"/>
     <use style="fill:#ff0000;stroke:#ff0000;" x="186.002697" xlink:href="#m8531c14ce2" y="283.923064"/>
     <use style="fill:#ff0000;stroke:#ff0000;" x="190.015281" xlink:href="#m8531c14ce2" y="284.605519"/>
     <use style="fill:#ff0000;stroke:#ff0000;" x="194.027865" xlink:href="#m8531c14ce2" y="282.081853"/>
     <use style="fill:#ff0000;stroke:#ff0000;" x="198.040449" xlink:href="#m8531c14ce2" y="283.956534"/>
     <use style="fill:#ff0000;stroke:#ff0000;" x="202.053034" xlink:href="#m8531c14ce2" y="283.284865"/>
     <use style="fill:#ff0000;stroke:#ff0000;" x="206.065618" xlink:href="#m8531c14ce2" y="283.74488"/>
     <use style="fill:#ff0000;stroke:#ff0000;" x="210.078202" xlink:href="#m8531c14ce2" y="282.194057"/>
     <use style="fill:#ff0000;stroke:#ff0000;" x="214.090787" xlink:href="#m8531c14ce2" y="284.044651"/>
     <use style="fill:#ff0000;stroke:#ff0000;" x="218.103371" xlink:href="#m8531c14ce2" y="284.516822"/>
     <use style="fill:#ff0000;stroke:#ff0000;" x="222.115955" xlink:href="#m8531c14ce2" y="283.812273"/>
     <use style="fill:#ff0000;stroke:#ff0000;" x="226.128539" xlink:href="#m8531c14ce2" y="283.215962"/>
     <use style="fill:#ff0000;stroke:#ff0000;" x="230.141124" xlink:href="#m8531c14ce2" y="283.85136"/>
     <use style="fill:#ff0000;stroke:#ff0000;" x="234.153708" xlink:href="#m8531c14ce2" y="282.597374"/>
     <use style="fill:#ff0000;stroke:#ff0000;" x="238.166292" xlink:href="#m8531c14ce2" y="284.514839"/>
     <use style="fill:#ff0000;stroke:#ff0000;" x="242.178876" xlink:href="#m8531c14ce2" y="282.624234"/>
     <use style="fill:#ff0000;stroke:#ff0000;" x="246.191461" xlink:href="#m8531c14ce2" y="284.519918"/>
     <use style="fill:#ff0000;stroke:#ff0000;" x="250.204045" xlink:href="#m8531c14ce2" y="283.688993"/>
     <use style="fill:#ff0000;stroke:#ff0000;" x="254.216629" xlink:href="#m8531c14ce2" y="283.720438"/>
     <use style="fill:#ff0000;stroke:#ff0000;" x="258.229213" xlink:href="#m8531c14ce2" y="284.089381"/>
     <use style="fill:#ff0000;stroke:#ff0000;" x="262.241798" xlink:href="#m8531c14ce2" y="283.076983"/>
     <use style="fill:#ff0000;stroke:#ff0000;" x="266.254382" xlink:href="#m8531c14ce2" y="282.447179"/>
     <use style="fill:#ff0000;stroke:#ff0000;" x="270.266966" xlink:href="#m8531c14ce2" y="283.788245"/>
     <use style="fill:#ff0000;stroke:#ff0000;" x="274.279551" xlink:href="#m8531c14ce2" y="283.171237"/>
     <use style="fill:#ff0000;stroke:#ff0000;" x="278.292135" xlink:href="#m8531c14ce2" y="282.866468"/>
     <use style="fill:#ff0000;stroke:#ff0000;" x="282.304719" xlink:href="#m8531c14ce2" y="282.974383"/>
     <use style="fill:#ff0000;stroke:#ff0000;" x="286.317303" xlink:href="#m8531c14ce2" y="282.703628"/>
     <use style="fill:#ff0000;stroke:#ff0000;" x="290.329888" xlink:href="#m8531c14ce2" y="283.617859"/>
     <use style="fill:#ff0000;stroke:#ff0000;" x="294.342472" xlink:href="#m8531c14ce2" y="283.177219"/>
     <use style="fill:#ff0000;stroke:#ff0000;" x="298.355056" xlink:href="#m8531c14ce2" y="281.919078"/>
     <use style="fill:#ff0000;stroke:#ff0000;" x="302.36764" xlink:href="#m8531c14ce2" y="280.936567"/>
     <use style="fill:#ff0000;stroke:#ff0000;" x="306.380225" xlink:href="#m8531c14ce2" y="283.248449"/>
     <use style="fill:#ff0000;stroke:#ff0000;" x="310.392809" xlink:href="#m8531c14ce2" y="282.108289"/>
     <use style="fill:#ff0000;stroke:#ff0000;" x="314.405393" xlink:href="#m8531c14ce2" y="282.44977"/>
     <use style="fill:#ff0000;stroke:#ff0000;" x="318.417978" xlink:href="#m8531c14ce2" y="282.781759"/>
     <use style="fill:#ff0000;stroke:#ff0000;" x="322.430562" xlink:href="#m8531c14ce2" y="282.829638"/>
     <use style="fill:#ff0000;stroke:#ff0000;" x="326.443146" xlink:href="#m8531c14ce2" y="283.382144"/>
     <use style="fill:#ff0000;stroke:#ff0000;" x="330.45573" xlink:href="#m8531c14ce2" y="282.698689"/>
     <use style="fill:#ff0000;stroke:#ff0000;" x="334.468315" xlink:href="#m8531c14ce2" y="282.988571"/>
     <use style="fill:#ff0000;stroke:#ff0000;" x="338.480899" xlink:href="#m8531c14ce2" y="283.132886"/>
     <use style="fill:#ff0000;stroke:#ff0000;" x="342.493483" xlink:href="#m8531c14ce2" y="282.962818"/>
     <use style="fill:#ff0000;stroke:#ff0000;" x="346.506067" xlink:href="#m8531c14ce2" y="282.907667"/>
     <use style="fill:#ff0000;stroke:#ff0000;" x="350.518652" xlink:href="#m8531c14ce2" y="282.78321"/>
     <use style="fill:#ff0000;stroke:#ff0000;" x="354.531236" xlink:href="#m8531c14ce2" y="283.844739"/>
     <use style="fill:#ff0000;stroke:#ff0000;" x="358.54382" xlink:href="#m8531c14ce2" y="282.938773"/>
     <use style="fill:#ff0000;stroke:#ff0000;" x="362.556404" xlink:href="#m8531c14ce2" y="282.41768"/>
     <use style="fill:#ff0000;stroke:#ff0000;" x="366.568989" xlink:href="#m8531c14ce2" y="281.737729"/>
     <use style="fill:#ff0000;stroke:#ff0000;" x="370.581573" xlink:href="#m8531c14ce2" y="282.770801"/>
     <use style="fill:#ff0000;stroke:#ff0000;" x="374.594157" xlink:href="#m8531c14ce2" y="282.806862"/>
     <use style="fill:#ff0000;stroke:#ff0000;" x="378.606742" xlink:href="#m8531c14ce2" y="281.69302"/>
     <use style="fill:#ff0000;stroke:#ff0000;" x="382.619326" xlink:href="#m8531c14ce2" y="281.901563"/>
     <use style="fill:#ff0000;stroke:#ff0000;" x="386.63191" xlink:href="#m8531c14ce2" y="281.7073"/>
     <use style="fill:#ff0000;stroke:#ff0000;" x="390.644494" xlink:href="#m8531c14ce2" y="282.455601"/>
     <use style="fill:#ff0000;stroke:#ff0000;" x="394.657079" xlink:href="#m8531c14ce2" y="281.716597"/>
     <use style="fill:#ff0000;stroke:#ff0000;" x="398.669663" xlink:href="#m8531c14ce2" y="282.119027"/>
     <use style="fill:#ff0000;stroke:#ff0000;" x="402.682247" xlink:href="#m8531c14ce2" y="281.827629"/>
     <use style="fill:#ff0000;stroke:#ff0000;" x="406.694831" xlink:href="#m8531c14ce2" y="281.705575"/>
     <use style="fill:#ff0000;stroke:#ff0000;" x="410.707416" xlink:href="#m8531c14ce2" y="282.588302"/>
    </g>
   </g>
   <g id="line2d_65">
    <path clip-path="url(#p5bc587eae2)" d="M 61.612584 64.312475 
L 65.625169 185.347564 
L 69.637753 219.519236 
L 73.650337 240.716993 
L 77.662921 251.202131 
L 81.675506 259.763346 
L 85.68809 265.905886 
L 89.700674 271.757 
L 93.713258 275.066503 
L 97.725843 277.621173 
L 101.738427 280.181276 
L 105.751011 281.113213 
L 109.763596 282.747934 
L 113.77618 283.85121 
L 117.788764 283.367263 
L 121.801348 285.585432 
L 125.813933 285.740716 
L 129.826517 285.986808 
L 133.839101 286.677091 
L 137.851685 287.609743 
L 141.86427 288.360981 
L 145.876854 288.229957 
L 149.889438 288.085663 
L 153.902022 288.383706 
L 157.914607 287.705244 
L 161.927191 289.268626 
L 165.939775 287.69395 
L 169.95236 288.622546 
L 173.964944 288.057239 
L 177.977528 287.004626 
L 181.990112 287.669411 
L 186.002697 289.670602 
L 190.015281 290.04676 
L 194.027865 287.848118 
L 198.040449 289.5254 
L 202.053034 288.782602 
L 206.065618 289.521466 
L 210.078202 288.603927 
L 214.090787 289.494329 
L 218.103371 289.755015 
L 222.115955 289.420363 
L 226.128539 288.998567 
L 230.141124 289.400728 
L 234.153708 288.62813 
L 238.166292 289.603321 
L 242.178876 288.897902 
L 246.191461 289.719499 
L 250.204045 288.980671 
L 254.216629 289.057786 
L 258.229213 289.328912 
L 262.241798 288.89231 
L 266.254382 288.654389 
L 270.266966 289.100941 
L 274.279551 289.012398 
L 278.292135 288.356969 
L 282.304719 288.701524 
L 286.317303 288.525006 
L 290.329888 288.902736 
L 294.342472 288.790199 
L 298.355056 288.026092 
L 302.36764 287.36523 
L 306.380225 288.671331 
L 310.392809 287.870335 
L 314.405393 288.055527 
L 318.417978 288.381527 
L 322.430562 288.340072 
L 326.443146 288.56208 
L 330.45573 288.247504 
L 334.468315 288.273168 
L 338.480899 288.467974 
L 342.493483 288.206044 
L 346.506067 287.985441 
L 350.518652 288.21077 
L 354.531236 288.55274 
L 358.54382 287.992656 
L 362.556404 287.769759 
L 366.568989 287.457442 
L 370.581573 288.061259 
L 374.594157 287.744801 
L 378.606742 287.17226 
L 382.619326 287.475658 
L 386.63191 287.295701 
L 390.644494 287.740493 
L 394.657079 287.326125 
L 398.669663 287.361041 
L 402.682247 287.203954 
L 406.694831 286.904603 
L 410.707416 287.415423 
" style="fill:none;stroke:#008000;stroke-dasharray:1.5,2.475;stroke-dashoffset:0;stroke-width:1.5;"/>
    <defs>
     <path d="M 0 1.5 
C 0.397805 1.5 0.77937 1.341951 1.06066 1.06066 
C 1.341951 0.77937 1.5 0.397805 1.5 0 
C 1.5 -0.397805 1.341951 -0.77937 1.06066 -1.06066 
C 0.77937 -1.341951 0.397805 -1.5 0 -1.5 
C -0.397805 -1.5 -0.77937 -1.341951 -1.06066 -1.06066 
C -1.341951 -0.77937 -1.5 -0.397805 -1.5 0 
C -1.5 0.397805 -1.341951 0.77937 -1.06066 1.06066 
C -0.77937 1.341951 -0.397805 1.5 0 1.5 
z
" id="m23698eab39" style="stroke:#008000;"/>
    </defs>
    <g clip-path="url(#p5bc587eae2)">
     <use style="fill:#008000;stroke:#008000;" x="61.612584" xlink:href="#m23698eab39" y="64.312475"/>
     <use style="fill:#008000;stroke:#008000;" x="65.625169" xlink:href="#m23698eab39" y="185.347564"/>
     <use style="fill:#008000;stroke:#008000;" x="69.637753" xlink:href="#m23698eab39" y="219.519236"/>
     <use style="fill:#008000;stroke:#008000;" x="73.650337" xlink:href="#m23698eab39" y="240.716993"/>
     <use style="fill:#008000;stroke:#008000;" x="77.662921" xlink:href="#m23698eab39" y="251.202131"/>
     <use style="fill:#008000;stroke:#008000;" x="81.675506" xlink:href="#m23698eab39" y="259.763346"/>
     <use style="fill:#008000;stroke:#008000;" x="85.68809" xlink:href="#m23698eab39" y="265.905886"/>
     <use style="fill:#008000;stroke:#008000;" x="89.700674" xlink:href="#m23698eab39" y="271.757"/>
     <use style="fill:#008000;stroke:#008000;" x="93.713258" xlink:href="#m23698eab39" y="275.066503"/>
     <use style="fill:#008000;stroke:#008000;" x="97.725843" xlink:href="#m23698eab39" y="277.621173"/>
     <use style="fill:#008000;stroke:#008000;" x="101.738427" xlink:href="#m23698eab39" y="280.181276"/>
     <use style="fill:#008000;stroke:#008000;" x="105.751011" xlink:href="#m23698eab39" y="281.113213"/>
     <use style="fill:#008000;stroke:#008000;" x="109.763596" xlink:href="#m23698eab39" y="282.747934"/>
     <use style="fill:#008000;stroke:#008000;" x="113.77618" xlink:href="#m23698eab39" y="283.85121"/>
     <use style="fill:#008000;stroke:#008000;" x="117.788764" xlink:href="#m23698eab39" y="283.367263"/>
     <use style="fill:#008000;stroke:#008000;" x="121.801348" xlink:href="#m23698eab39" y="285.585432"/>
     <use style="fill:#008000;stroke:#008000;" x="125.813933" xlink:href="#m23698eab39" y="285.740716"/>
     <use style="fill:#008000;stroke:#008000;" x="129.826517" xlink:href="#m23698eab39" y="285.986808"/>
     <use style="fill:#008000;stroke:#008000;" x="133.839101" xlink:href="#m23698eab39" y="286.677091"/>
     <use style="fill:#008000;stroke:#008000;" x="137.851685" xlink:href="#m23698eab39" y="287.609743"/>
     <use style="fill:#008000;stroke:#008000;" x="141.86427" xlink:href="#m23698eab39" y="288.360981"/>
     <use style="fill:#008000;stroke:#008000;" x="145.876854" xlink:href="#m23698eab39" y="288.229957"/>
     <use style="fill:#008000;stroke:#008000;" x="149.889438" xlink:href="#m23698eab39" y="288.085663"/>
     <use style="fill:#008000;stroke:#008000;" x="153.902022" xlink:href="#m23698eab39" y="288.383706"/>
     <use style="fill:#008000;stroke:#008000;" x="157.914607" xlink:href="#m23698eab39" y="287.705244"/>
     <use style="fill:#008000;stroke:#008000;" x="161.927191" xlink:href="#m23698eab39" y="289.268626"/>
     <use style="fill:#008000;stroke:#008000;" x="165.939775" xlink:href="#m23698eab39" y="287.69395"/>
     <use style="fill:#008000;stroke:#008000;" x="169.95236" xlink:href="#m23698eab39" y="288.622546"/>
     <use style="fill:#008000;stroke:#008000;" x="173.964944" xlink:href="#m23698eab39" y="288.057239"/>
     <use style="fill:#008000;stroke:#008000;" x="177.977528" xlink:href="#m23698eab39" y="287.004626"/>
     <use style="fill:#008000;stroke:#008000;" x="181.990112" xlink:href="#m23698eab39" y="287.669411"/>
     <use style="fill:#008000;stroke:#008000;" x="186.002697" xlink:href="#m23698eab39" y="289.670602"/>
     <use style="fill:#008000;stroke:#008000;" x="190.015281" xlink:href="#m23698eab39" y="290.04676"/>
     <use style="fill:#008000;stroke:#008000;" x="194.027865" xlink:href="#m23698eab39" y="287.848118"/>
     <use style="fill:#008000;stroke:#008000;" x="198.040449" xlink:href="#m23698eab39" y="289.5254"/>
     <use style="fill:#008000;stroke:#008000;" x="202.053034" xlink:href="#m23698eab39" y="288.782602"/>
     <use style="fill:#008000;stroke:#008000;" x="206.065618" xlink:href="#m23698eab39" y="289.521466"/>
     <use style="fill:#008000;stroke:#008000;" x="210.078202" xlink:href="#m23698eab39" y="288.603927"/>
     <use style="fill:#008000;stroke:#008000;" x="214.090787" xlink:href="#m23698eab39" y="289.494329"/>
     <use style="fill:#008000;stroke:#008000;" x="218.103371" xlink:href="#m23698eab39" y="289.755015"/>
     <use style="fill:#008000;stroke:#008000;" x="222.115955" xlink:href="#m23698eab39" y="289.420363"/>
     <use style="fill:#008000;stroke:#008000;" x="226.128539" xlink:href="#m23698eab39" y="288.998567"/>
     <use style="fill:#008000;stroke:#008000;" x="230.141124" xlink:href="#m23698eab39" y="289.400728"/>
     <use style="fill:#008000;stroke:#008000;" x="234.153708" xlink:href="#m23698eab39" y="288.62813"/>
     <use style="fill:#008000;stroke:#008000;" x="238.166292" xlink:href="#m23698eab39" y="289.603321"/>
     <use style="fill:#008000;stroke:#008000;" x="242.178876" xlink:href="#m23698eab39" y="288.897902"/>
     <use style="fill:#008000;stroke:#008000;" x="246.191461" xlink:href="#m23698eab39" y="289.719499"/>
     <use style="fill:#008000;stroke:#008000;" x="250.204045" xlink:href="#m23698eab39" y="288.980671"/>
     <use style="fill:#008000;stroke:#008000;" x="254.216629" xlink:href="#m23698eab39" y="289.057786"/>
     <use style="fill:#008000;stroke:#008000;" x="258.229213" xlink:href="#m23698eab39" y="289.328912"/>
     <use style="fill:#008000;stroke:#008000;" x="262.241798" xlink:href="#m23698eab39" y="288.89231"/>
     <use style="fill:#008000;stroke:#008000;" x="266.254382" xlink:href="#m23698eab39" y="288.654389"/>
     <use style="fill:#008000;stroke:#008000;" x="270.266966" xlink:href="#m23698eab39" y="289.100941"/>
     <use style="fill:#008000;stroke:#008000;" x="274.279551" xlink:href="#m23698eab39" y="289.012398"/>
     <use style="fill:#008000;stroke:#008000;" x="278.292135" xlink:href="#m23698eab39" y="288.356969"/>
     <use style="fill:#008000;stroke:#008000;" x="282.304719" xlink:href="#m23698eab39" y="288.701524"/>
     <use style="fill:#008000;stroke:#008000;" x="286.317303" xlink:href="#m23698eab39" y="288.525006"/>
     <use style="fill:#008000;stroke:#008000;" x="290.329888" xlink:href="#m23698eab39" y="288.902736"/>
     <use style="fill:#008000;stroke:#008000;" x="294.342472" xlink:href="#m23698eab39" y="288.790199"/>
     <use style="fill:#008000;stroke:#008000;" x="298.355056" xlink:href="#m23698eab39" y="288.026092"/>
     <use style="fill:#008000;stroke:#008000;" x="302.36764" xlink:href="#m23698eab39" y="287.36523"/>
     <use style="fill:#008000;stroke:#008000;" x="306.380225" xlink:href="#m23698eab39" y="288.671331"/>
     <use style="fill:#008000;stroke:#008000;" x="310.392809" xlink:href="#m23698eab39" y="287.870335"/>
     <use style="fill:#008000;stroke:#008000;" x="314.405393" xlink:href="#m23698eab39" y="288.055527"/>
     <use style="fill:#008000;stroke:#008000;" x="318.417978" xlink:href="#m23698eab39" y="288.381527"/>
     <use style="fill:#008000;stroke:#008000;" x="322.430562" xlink:href="#m23698eab39" y="288.340072"/>
     <use style="fill:#008000;stroke:#008000;" x="326.443146" xlink:href="#m23698eab39" y="288.56208"/>
     <use style="fill:#008000;stroke:#008000;" x="330.45573" xlink:href="#m23698eab39" y="288.247504"/>
     <use style="fill:#008000;stroke:#008000;" x="334.468315" xlink:href="#m23698eab39" y="288.273168"/>
     <use style="fill:#008000;stroke:#008000;" x="338.480899" xlink:href="#m23698eab39" y="288.467974"/>
     <use style="fill:#008000;stroke:#008000;" x="342.493483" xlink:href="#m23698eab39" y="288.206044"/>
     <use style="fill:#008000;stroke:#008000;" x="346.506067" xlink:href="#m23698eab39" y="287.985441"/>
     <use style="fill:#008000;stroke:#008000;" x="350.518652" xlink:href="#m23698eab39" y="288.21077"/>
     <use style="fill:#008000;stroke:#008000;" x="354.531236" xlink:href="#m23698eab39" y="288.55274"/>
     <use style="fill:#008000;stroke:#008000;" x="358.54382" xlink:href="#m23698eab39" y="287.992656"/>
     <use style="fill:#008000;stroke:#008000;" x="362.556404" xlink:href="#m23698eab39" y="287.769759"/>
     <use style="fill:#008000;stroke:#008000;" x="366.568989" xlink:href="#m23698eab39" y="287.457442"/>
     <use style="fill:#008000;stroke:#008000;" x="370.581573" xlink:href="#m23698eab39" y="288.061259"/>
     <use style="fill:#008000;stroke:#008000;" x="374.594157" xlink:href="#m23698eab39" y="287.744801"/>
     <use style="fill:#008000;stroke:#008000;" x="378.606742" xlink:href="#m23698eab39" y="287.17226"/>
     <use style="fill:#008000;stroke:#008000;" x="382.619326" xlink:href="#m23698eab39" y="287.475658"/>
     <use style="fill:#008000;stroke:#008000;" x="386.63191" xlink:href="#m23698eab39" y="287.295701"/>
     <use style="fill:#008000;stroke:#008000;" x="390.644494" xlink:href="#m23698eab39" y="287.740493"/>
     <use style="fill:#008000;stroke:#008000;" x="394.657079" xlink:href="#m23698eab39" y="287.326125"/>
     <use style="fill:#008000;stroke:#008000;" x="398.669663" xlink:href="#m23698eab39" y="287.361041"/>
     <use style="fill:#008000;stroke:#008000;" x="402.682247" xlink:href="#m23698eab39" y="287.203954"/>
     <use style="fill:#008000;stroke:#008000;" x="406.694831" xlink:href="#m23698eab39" y="286.904603"/>
     <use style="fill:#008000;stroke:#008000;" x="410.707416" xlink:href="#m23698eab39" y="287.415423"/>
    </g>
   </g>
   <g id="patch_3">
    <path d="M 57.6 307.584 
L 57.6 41.472 
" style="fill:none;stroke:#000000;stroke-linecap:square;stroke-linejoin:miter;stroke-width:0.8;"/>
   </g>
   <g id="patch_4">
    <path d="M 414.72 307.584 
L 414.72 41.472 
" style="fill:none;stroke:#000000;stroke-linecap:square;stroke-linejoin:miter;stroke-width:0.8;"/>
   </g>
   <g id="patch_5">
    <path d="M 57.6 307.584 
L 414.72 307.584 
" style="fill:none;stroke:#000000;stroke-linecap:square;stroke-linejoin:miter;stroke-width:0.8;"/>
   </g>
   <g id="patch_6">
    <path d="M 57.6 41.472 
L 414.72 41.472 
" style="fill:none;stroke:#000000;stroke-linecap:square;stroke-linejoin:miter;stroke-width:0.8;"/>
   </g>
   <g id="text_34">
    <!-- TBB sort 3PV on pre_transpose54 -->
    <defs>
     <path d="M -0.296875 72.90625 
L 61.375 72.90625 
L 61.375 64.59375 
L 35.5 64.59375 
L 35.5 0 
L 25.59375 0 
L 25.59375 64.59375 
L -0.296875 64.59375 
z
" id="DejaVuSans-84"/>
     <path d="M 19.671875 34.8125 
L 19.671875 8.109375 
L 35.5 8.109375 
Q 43.453125 8.109375 47.28125 11.40625 
Q 51.125 14.703125 51.125 21.484375 
Q 51.125 28.328125 47.28125 31.5625 
Q 43.453125 34.8125 35.5 34.8125 
z
M 19.671875 64.796875 
L 19.671875 42.828125 
L 34.28125 42.828125 
Q 41.5 42.828125 45.03125 45.53125 
Q 48.578125 48.25 48.578125 53.8125 
Q 48.578125 59.328125 45.03125 62.0625 
Q 41.5 64.796875 34.28125 64.796875 
z
M 9.8125 72.90625 
L 35.015625 72.90625 
Q 46.296875 72.90625 52.390625 68.21875 
Q 58.5 63.53125 58.5 54.890625 
Q 58.5 48.1875 55.375 44.234375 
Q 52.25 40.28125 46.1875 39.3125 
Q 53.46875 37.75 57.5 32.78125 
Q 61.53125 27.828125 61.53125 20.40625 
Q 61.53125 10.640625 54.890625 5.3125 
Q 48.25 0 35.984375 0 
L 9.8125 0 
z
" id="DejaVuSans-66"/>
     <path d="M 19.671875 64.796875 
L 19.671875 37.40625 
L 32.078125 37.40625 
Q 38.96875 37.40625 42.71875 40.96875 
Q 46.484375 44.53125 46.484375 51.125 
Q 46.484375 57.671875 42.71875 61.234375 
Q 38.96875 64.796875 32.078125 64.796875 
z
M 9.8125 72.90625 
L 32.078125 72.90625 
Q 44.34375 72.90625 50.609375 67.359375 
Q 56.890625 61.8125 56.890625 51.125 
Q 56.890625 40.328125 50.609375 34.8125 
Q 44.34375 29.296875 32.078125 29.296875 
L 19.671875 29.296875 
L 19.671875 0 
L 9.8125 0 
z
" id="DejaVuSans-80"/>
     <path d="M 28.609375 0 
L 0.78125 72.90625 
L 11.078125 72.90625 
L 34.1875 11.53125 
L 57.328125 72.90625 
L 67.578125 72.90625 
L 39.796875 0 
z
" id="DejaVuSans-86"/>
     <path d="M 18.109375 8.203125 
L 18.109375 -20.796875 
L 9.078125 -20.796875 
L 9.078125 54.6875 
L 18.109375 54.6875 
L 18.109375 46.390625 
Q 20.953125 51.265625 25.265625 53.625 
Q 29.59375 56 35.59375 56 
Q 45.5625 56 51.78125 48.09375 
Q 58.015625 40.1875 58.015625 27.296875 
Q 58.015625 14.40625 51.78125 6.484375 
Q 45.5625 -1.421875 35.59375 -1.421875 
Q 29.59375 -1.421875 25.265625 0.953125 
Q 20.953125 3.328125 18.109375 8.203125 
z
M 48.6875 27.296875 
Q 48.6875 37.203125 44.609375 42.84375 
Q 40.53125 48.484375 33.40625 48.484375 
Q 26.265625 48.484375 22.1875 42.84375 
Q 18.109375 37.203125 18.109375 27.296875 
Q 18.109375 17.390625 22.1875 11.75 
Q 26.265625 6.109375 33.40625 6.109375 
Q 40.53125 6.109375 44.609375 11.75 
Q 48.6875 17.390625 48.6875 27.296875 
z
" id="DejaVuSans-112"/>
     <path d="M 50.984375 -16.609375 
L 50.984375 -23.578125 
L -0.984375 -23.578125 
L -0.984375 -16.609375 
z
" id="DejaVuSans-95"/>
    </defs>
    <g transform="translate(135.816563 35.472)scale(0.12 -0.12)">
     <use xlink:href="#DejaVuSans-84"/>
     <use x="61.083984" xlink:href="#DejaVuSans-66"/>
     <use x="129.6875" xlink:href="#DejaVuSans-66"/>
     <use x="198.291016" xlink:href="#DejaVuSans-32"/>
     <use x="230.078125" xlink:href="#DejaVuSans-115"/>
     <use x="282.177734" xlink:href="#DejaVuSans-111"/>
     <use x="343.359375" xlink:href="#DejaVuSans-114"/>
     <use x="384.472656" xlink:href="#DejaVuSans-116"/>
     <use x="423.681641" xlink:href="#DejaVuSans-32"/>
     <use x="455.46875" xlink:href="#DejaVuSans-51"/>
     <use x="519.091797" xlink:href="#DejaVuSans-80"/>
     <use x="579.394531" xlink:href="#DejaVuSans-86"/>
     <use x="647.802734" xlink:href="#DejaVuSans-32"/>
     <use x="679.589844" xlink:href="#DejaVuSans-111"/>
     <use x="740.771484" xlink:href="#DejaVuSans-110"/>
     <use x="804.150391" xlink:href="#DejaVuSans-32"/>
     <use x="835.9375" xlink:href="#DejaVuSans-112"/>
     <use x="899.414062" xlink:href="#DejaVuSans-114"/>
     <use x="938.277344" xlink:href="#DejaVuSans-101"/>
     <use x="999.800781" xlink:href="#DejaVuSans-95"/>
     <use x="1049.800781" xlink:href="#DejaVuSans-116"/>
     <use x="1089.009766" xlink:href="#DejaVuSans-114"/>
     <use x="1130.123047" xlink:href="#DejaVuSans-97"/>
     <use x="1191.402344" xlink:href="#DejaVuSans-110"/>
     <use x="1254.78125" xlink:href="#DejaVuSans-115"/>
     <use x="1306.880859" xlink:href="#DejaVuSans-112"/>
     <use x="1370.357422" xlink:href="#DejaVuSans-111"/>
     <use x="1431.539062" xlink:href="#DejaVuSans-115"/>
     <use x="1483.638672" xlink:href="#DejaVuSans-101"/>
     <use x="1545.162109" xlink:href="#DejaVuSans-53"/>
     <use x="1608.785156" xlink:href="#DejaVuSans-52"/>
    </g>
   </g>
   <g id="legend_1">
    <g id="patch_7">
     <path d="M 313.152813 93.7845 
L 407.72 93.7845 
Q 409.72 93.7845 409.72 91.7845 
L 409.72 48.472 
Q 409.72 46.472 407.72 46.472 
L 313.152813 46.472 
Q 311.152813 46.472 311.152813 48.472 
L 311.152813 91.7845 
Q 311.152813 93.7845 313.152813 93.7845 
z
" style="fill:#ffffff;opacity:0.8;stroke:#cccccc;stroke-linejoin:miter;"/>
    </g>
    <g id="line2d_66">
     <path d="M 315.152813 54.570438 
L 335.152813 54.570438 
" style="fill:none;stroke:#0000ff;stroke-dasharray:1.5,2.475;stroke-dashoffset:0;stroke-width:1.5;"/>
    </g>
    <g id="line2d_67">
     <g>
      <use style="fill:#0000ff;stroke:#0000ff;" x="325.152813" xlink:href="#mdccf6db96e" y="54.570438"/>
     </g>
    </g>
    <g id="text_35">
     <!-- transpose -->
     <g transform="translate(343.152813 58.070438)scale(0.1 -0.1)">
      <use xlink:href="#DejaVuSans-116"/>
      <use x="39.208984" xlink:href="#DejaVuSans-114"/>
      <use x="80.322266" xlink:href="#DejaVuSans-97"/>
      <use x="141.601562" xlink:href="#DejaVuSans-110"/>
      <use x="204.980469" xlink:href="#DejaVuSans-115"/>
      <use x="257.080078" xlink:href="#DejaVuSans-112"/>
      <use x="320.556641" xlink:href="#DejaVuSans-111"/>
      <use x="381.738281" xlink:href="#DejaVuSans-115"/>
      <use x="433.837891" xlink:href="#DejaVuSans-101"/>
     </g>
    </g>
    <g id="line2d_68">
     <path d="M 315.152813 69.248563 
L 335.152813 69.248563 
" style="fill:none;stroke:#ff0000;stroke-dasharray:1.5,2.475;stroke-dashoffset:0;stroke-width:1.5;"/>
    </g>
    <g id="line2d_69">
     <g>
      <use style="fill:#ff0000;stroke:#ff0000;" x="325.152813" xlink:href="#m8531c14ce2" y="69.248563"/>
     </g>
    </g>
    <g id="text_36">
     <!-- transpose_tr -->
     <g transform="translate(343.152813 72.748563)scale(0.1 -0.1)">
      <use xlink:href="#DejaVuSans-116"/>
      <use x="39.208984" xlink:href="#DejaVuSans-114"/>
      <use x="80.322266" xlink:href="#DejaVuSans-97"/>
      <use x="141.601562" xlink:href="#DejaVuSans-110"/>
      <use x="204.980469" xlink:href="#DejaVuSans-115"/>
      <use x="257.080078" xlink:href="#DejaVuSans-112"/>
      <use x="320.556641" xlink:href="#DejaVuSans-111"/>
      <use x="381.738281" xlink:href="#DejaVuSans-115"/>
      <use x="433.837891" xlink:href="#DejaVuSans-101"/>
      <use x="495.361328" xlink:href="#DejaVuSans-95"/>
      <use x="545.361328" xlink:href="#DejaVuSans-116"/>
      <use x="584.570312" xlink:href="#DejaVuSans-114"/>
     </g>
    </g>
    <g id="line2d_70">
     <path d="M 315.152813 84.204813 
L 335.152813 84.204813 
" style="fill:none;stroke:#008000;stroke-dasharray:1.5,2.475;stroke-dashoffset:0;stroke-width:1.5;"/>
    </g>
    <g id="line2d_71">
     <g>
      <use style="fill:#008000;stroke:#008000;" x="325.152813" xlink:href="#m23698eab39" y="84.204813"/>
     </g>
    </g>
    <g id="text_37">
     <!-- mean -->
     <defs>
      <path d="M 52 44.1875 
Q 55.375 50.25 60.0625 53.125 
Q 64.75 56 71.09375 56 
Q 79.640625 56 84.28125 50.015625 
Q 88.921875 44.046875 88.921875 33.015625 
L 88.921875 0 
L 79.890625 0 
L 79.890625 32.71875 
Q 79.890625 40.578125 77.09375 44.375 
Q 74.3125 48.1875 68.609375 48.1875 
Q 61.625 48.1875 57.5625 43.546875 
Q 53.515625 38.921875 53.515625 30.90625 
L 53.515625 0 
L 44.484375 0 
L 44.484375 32.71875 
Q 44.484375 40.625 41.703125 44.40625 
Q 38.921875 48.1875 33.109375 48.1875 
Q 26.21875 48.1875 22.15625 43.53125 
Q 18.109375 38.875 18.109375 30.90625 
L 18.109375 0 
L 9.078125 0 
L 9.078125 54.6875 
L 18.109375 54.6875 
L 18.109375 46.1875 
Q 21.1875 51.21875 25.484375 53.609375 
Q 29.78125 56 35.6875 56 
Q 41.65625 56 45.828125 52.96875 
Q 50 49.953125 52 44.1875 
z
" id="DejaVuSans-109"/>
     </defs>
     <g transform="translate(343.152813 87.704813)scale(0.1 -0.1)">
      <use xlink:href="#DejaVuSans-109"/>
      <use x="97.412109" xlink:href="#DejaVuSans-101"/>
      <use x="158.935547" xlink:href="#DejaVuSans-97"/>
      <use x="220.214844" xlink:href="#DejaVuSans-110"/>
     </g>
    </g>
   </g>
  </g>
 </g>
 <defs>
  <clipPath id="p5bc587eae2">
   <rect height="266.112" width="357.12" x="57.6" y="41.472"/>
  </clipPath>
 </defs>
</svg>
