<?xml version="1.0" encoding="utf-8" standalone="no"?>
<!DOCTYPE svg PUBLIC "-//W3C//DTD SVG 1.1//EN"
  "http://www.w3.org/Graphics/SVG/1.1/DTD/svg11.dtd">
<!-- Created with matplotlib (https://matplotlib.org/) -->
<svg height="345.6pt" version="1.1" viewBox="0 0 460.8 345.6" width="460.8pt" xmlns="http://www.w3.org/2000/svg" xmlns:xlink="http://www.w3.org/1999/xlink">
 <defs>
  <style type="text/css">
*{stroke-linecap:butt;stroke-linejoin:round;}
  </style>
 </defs>
 <g id="figure_1">
  <g id="patch_1">
   <path d="M 0 345.6 
L 460.8 345.6 
L 460.8 0 
L 0 0 
z
" style="fill:#ffffff;"/>
  </g>
  <g id="axes_1">
   <g id="patch_2">
    <path d="M 57.6 307.584 
L 414.72 307.584 
L 414.72 41.472 
L 57.6 41.472 
z
" style="fill:#ffffff;"/>
   </g>
   <g id="matplotlib.axis_1">
    <g id="xtick_1">
     <g id="line2d_1">
      <path clip-path="url(#p1891fce95f)" d="M 61.612584 307.584 
L 61.612584 41.472 
" style="fill:none;stroke:#b0b0b0;stroke-dasharray:5.12,1.28,0.8,1.28;stroke-dashoffset:0;stroke-width:0.8;"/>
     </g>
     <g id="line2d_2">
      <defs>
       <path d="M 0 0 
L 0 3.5 
" id="md030015696" style="stroke:#000000;stroke-width:0.8;"/>
      </defs>
      <g>
       <use style="stroke:#000000;stroke-width:0.8;" x="61.612584" xlink:href="#md030015696" y="307.584"/>
      </g>
     </g>
     <g id="text_1">
      <!-- 1 -->
      <defs>
       <path d="M 12.40625 8.296875 
L 28.515625 8.296875 
L 28.515625 63.921875 
L 10.984375 60.40625 
L 10.984375 69.390625 
L 28.421875 72.90625 
L 38.28125 72.90625 
L 38.28125 8.296875 
L 54.390625 8.296875 
L 54.390625 0 
L 12.40625 0 
z
" id="DejaVuSans-49"/>
      </defs>
      <g transform="translate(58.431334 322.182437)scale(0.1 -0.1)">
       <use xlink:href="#DejaVuSans-49"/>
      </g>
     </g>
    </g>
    <g id="xtick_2">
     <g id="line2d_3">
      <path clip-path="url(#p1891fce95f)" d="M 73.650337 307.584 
L 73.650337 41.472 
" style="fill:none;stroke:#b0b0b0;stroke-dasharray:5.12,1.28,0.8,1.28;stroke-dashoffset:0;stroke-width:0.8;"/>
     </g>
     <g id="line2d_4">
      <g>
       <use style="stroke:#000000;stroke-width:0.8;" x="73.650337" xlink:href="#md030015696" y="307.584"/>
      </g>
     </g>
     <g id="text_2">
      <!-- 4 -->
      <defs>
       <path d="M 37.796875 64.3125 
L 12.890625 25.390625 
L 37.796875 25.390625 
z
M 35.203125 72.90625 
L 47.609375 72.90625 
L 47.609375 25.390625 
L 58.015625 25.390625 
L 58.015625 17.1875 
L 47.609375 17.1875 
L 47.609375 0 
L 37.796875 0 
L 37.796875 17.1875 
L 4.890625 17.1875 
L 4.890625 26.703125 
z
" id="DejaVuSans-52"/>
      </defs>
      <g transform="translate(70.469087 322.182437)scale(0.1 -0.1)">
       <use xlink:href="#DejaVuSans-52"/>
      </g>
     </g>
    </g>
    <g id="xtick_3">
     <g id="line2d_5">
      <path clip-path="url(#p1891fce95f)" d="M 89.700674 307.584 
L 89.700674 41.472 
" style="fill:none;stroke:#b0b0b0;stroke-dasharray:5.12,1.28,0.8,1.28;stroke-dashoffset:0;stroke-width:0.8;"/>
     </g>
     <g id="line2d_6">
      <g>
       <use style="stroke:#000000;stroke-width:0.8;" x="89.700674" xlink:href="#md030015696" y="307.584"/>
      </g>
     </g>
     <g id="text_3">
      <!-- 8 -->
      <defs>
       <path d="M 31.78125 34.625 
Q 24.75 34.625 20.71875 30.859375 
Q 16.703125 27.09375 16.703125 20.515625 
Q 16.703125 13.921875 20.71875 10.15625 
Q 24.75 6.390625 31.78125 6.390625 
Q 38.8125 6.390625 42.859375 10.171875 
Q 46.921875 13.96875 46.921875 20.515625 
Q 46.921875 27.09375 42.890625 30.859375 
Q 38.875 34.625 31.78125 34.625 
z
M 21.921875 38.8125 
Q 15.578125 40.375 12.03125 44.71875 
Q 8.5 49.078125 8.5 55.328125 
Q 8.5 64.0625 14.71875 69.140625 
Q 20.953125 74.21875 31.78125 74.21875 
Q 42.671875 74.21875 48.875 69.140625 
Q 55.078125 64.0625 55.078125 55.328125 
Q 55.078125 49.078125 51.53125 44.71875 
Q 48 40.375 41.703125 38.8125 
Q 48.828125 37.15625 52.796875 32.3125 
Q 56.78125 27.484375 56.78125 20.515625 
Q 56.78125 9.90625 50.3125 4.234375 
Q 43.84375 -1.421875 31.78125 -1.421875 
Q 19.734375 -1.421875 13.25 4.234375 
Q 6.78125 9.90625 6.78125 20.515625 
Q 6.78125 27.484375 10.78125 32.3125 
Q 14.796875 37.15625 21.921875 38.8125 
z
M 18.3125 54.390625 
Q 18.3125 48.734375 21.84375 45.5625 
Q 25.390625 42.390625 31.78125 42.390625 
Q 38.140625 42.390625 41.71875 45.5625 
Q 45.3125 48.734375 45.3125 54.390625 
Q 45.3125 60.0625 41.71875 63.234375 
Q 38.140625 66.40625 31.78125 66.40625 
Q 25.390625 66.40625 21.84375 63.234375 
Q 18.3125 60.0625 18.3125 54.390625 
z
" id="DejaVuSans-56"/>
      </defs>
      <g transform="translate(86.519424 322.182437)scale(0.1 -0.1)">
       <use xlink:href="#DejaVuSans-56"/>
      </g>
     </g>
    </g>
    <g id="xtick_4">
     <g id="line2d_7">
      <path clip-path="url(#p1891fce95f)" d="M 105.751011 307.584 
L 105.751011 41.472 
" style="fill:none;stroke:#b0b0b0;stroke-dasharray:5.12,1.28,0.8,1.28;stroke-dashoffset:0;stroke-width:0.8;"/>
     </g>
     <g id="line2d_8">
      <g>
       <use style="stroke:#000000;stroke-width:0.8;" x="105.751011" xlink:href="#md030015696" y="307.584"/>
      </g>
     </g>
     <g id="text_4">
      <!-- 12 -->
      <defs>
       <path d="M 19.1875 8.296875 
L 53.609375 8.296875 
L 53.609375 0 
L 7.328125 0 
L 7.328125 8.296875 
Q 12.9375 14.109375 22.625 23.890625 
Q 32.328125 33.6875 34.8125 36.53125 
Q 39.546875 41.84375 41.421875 45.53125 
Q 43.3125 49.21875 43.3125 52.78125 
Q 43.3125 58.59375 39.234375 62.25 
Q 35.15625 65.921875 28.609375 65.921875 
Q 23.96875 65.921875 18.8125 64.3125 
Q 13.671875 62.703125 7.8125 59.421875 
L 7.8125 69.390625 
Q 13.765625 71.78125 18.9375 73 
Q 24.125 74.21875 28.421875 74.21875 
Q 39.75 74.21875 46.484375 68.546875 
Q 53.21875 62.890625 53.21875 53.421875 
Q 53.21875 48.921875 51.53125 44.890625 
Q 49.859375 40.875 45.40625 35.40625 
Q 44.1875 33.984375 37.640625 27.21875 
Q 31.109375 20.453125 19.1875 8.296875 
z
" id="DejaVuSans-50"/>
      </defs>
      <g transform="translate(99.388511 322.182437)scale(0.1 -0.1)">
       <use xlink:href="#DejaVuSans-49"/>
       <use x="63.623047" xlink:href="#DejaVuSans-50"/>
      </g>
     </g>
    </g>
    <g id="xtick_5">
     <g id="line2d_9">
      <path clip-path="url(#p1891fce95f)" d="M 121.801348 307.584 
L 121.801348 41.472 
" style="fill:none;stroke:#b0b0b0;stroke-dasharray:5.12,1.28,0.8,1.28;stroke-dashoffset:0;stroke-width:0.8;"/>
     </g>
     <g id="line2d_10">
      <g>
       <use style="stroke:#000000;stroke-width:0.8;" x="121.801348" xlink:href="#md030015696" y="307.584"/>
      </g>
     </g>
     <g id="text_5">
      <!-- 16 -->
      <defs>
       <path d="M 33.015625 40.375 
Q 26.375 40.375 22.484375 35.828125 
Q 18.609375 31.296875 18.609375 23.390625 
Q 18.609375 15.53125 22.484375 10.953125 
Q 26.375 6.390625 33.015625 6.390625 
Q 39.65625 6.390625 43.53125 10.953125 
Q 47.40625 15.53125 47.40625 23.390625 
Q 47.40625 31.296875 43.53125 35.828125 
Q 39.65625 40.375 33.015625 40.375 
z
M 52.59375 71.296875 
L 52.59375 62.3125 
Q 48.875 64.0625 45.09375 64.984375 
Q 41.3125 65.921875 37.59375 65.921875 
Q 27.828125 65.921875 22.671875 59.328125 
Q 17.53125 52.734375 16.796875 39.40625 
Q 19.671875 43.65625 24.015625 45.921875 
Q 28.375 48.1875 33.59375 48.1875 
Q 44.578125 48.1875 50.953125 41.515625 
Q 57.328125 34.859375 57.328125 23.390625 
Q 57.328125 12.15625 50.6875 5.359375 
Q 44.046875 -1.421875 33.015625 -1.421875 
Q 20.359375 -1.421875 13.671875 8.265625 
Q 6.984375 17.96875 6.984375 36.375 
Q 6.984375 53.65625 15.1875 63.9375 
Q 23.390625 74.21875 37.203125 74.21875 
Q 40.921875 74.21875 44.703125 73.484375 
Q 48.484375 72.75 52.59375 71.296875 
z
" id="DejaVuSans-54"/>
      </defs>
      <g transform="translate(115.438848 322.182437)scale(0.1 -0.1)">
       <use xlink:href="#DejaVuSans-49"/>
       <use x="63.623047" xlink:href="#DejaVuSans-54"/>
      </g>
     </g>
    </g>
    <g id="xtick_6">
     <g id="line2d_11">
      <path clip-path="url(#p1891fce95f)" d="M 137.851685 307.584 
L 137.851685 41.472 
" style="fill:none;stroke:#b0b0b0;stroke-dasharray:5.12,1.28,0.8,1.28;stroke-dashoffset:0;stroke-width:0.8;"/>
     </g>
     <g id="line2d_12">
      <g>
       <use style="stroke:#000000;stroke-width:0.8;" x="137.851685" xlink:href="#md030015696" y="307.584"/>
      </g>
     </g>
     <g id="text_6">
      <!-- 20 -->
      <defs>
       <path d="M 31.78125 66.40625 
Q 24.171875 66.40625 20.328125 58.90625 
Q 16.5 51.421875 16.5 36.375 
Q 16.5 21.390625 20.328125 13.890625 
Q 24.171875 6.390625 31.78125 6.390625 
Q 39.453125 6.390625 43.28125 13.890625 
Q 47.125 21.390625 47.125 36.375 
Q 47.125 51.421875 43.28125 58.90625 
Q 39.453125 66.40625 31.78125 66.40625 
z
M 31.78125 74.21875 
Q 44.046875 74.21875 50.515625 64.515625 
Q 56.984375 54.828125 56.984375 36.375 
Q 56.984375 17.96875 50.515625 8.265625 
Q 44.046875 -1.421875 31.78125 -1.421875 
Q 19.53125 -1.421875 13.0625 8.265625 
Q 6.59375 17.96875 6.59375 36.375 
Q 6.59375 54.828125 13.0625 64.515625 
Q 19.53125 74.21875 31.78125 74.21875 
z
" id="DejaVuSans-48"/>
      </defs>
      <g transform="translate(131.489185 322.182437)scale(0.1 -0.1)">
       <use xlink:href="#DejaVuSans-50"/>
       <use x="63.623047" xlink:href="#DejaVuSans-48"/>
      </g>
     </g>
    </g>
    <g id="xtick_7">
     <g id="line2d_13">
      <path clip-path="url(#p1891fce95f)" d="M 153.902022 307.584 
L 153.902022 41.472 
" style="fill:none;stroke:#b0b0b0;stroke-dasharray:5.12,1.28,0.8,1.28;stroke-dashoffset:0;stroke-width:0.8;"/>
     </g>
     <g id="line2d_14">
      <g>
       <use style="stroke:#000000;stroke-width:0.8;" x="153.902022" xlink:href="#md030015696" y="307.584"/>
      </g>
     </g>
     <g id="text_7">
      <!-- 24 -->
      <g transform="translate(147.539522 322.182437)scale(0.1 -0.1)">
       <use xlink:href="#DejaVuSans-50"/>
       <use x="63.623047" xlink:href="#DejaVuSans-52"/>
      </g>
     </g>
    </g>
    <g id="xtick_8">
     <g id="line2d_15">
      <path clip-path="url(#p1891fce95f)" d="M 169.95236 307.584 
L 169.95236 41.472 
" style="fill:none;stroke:#b0b0b0;stroke-dasharray:5.12,1.28,0.8,1.28;stroke-dashoffset:0;stroke-width:0.8;"/>
     </g>
     <g id="line2d_16">
      <g>
       <use style="stroke:#000000;stroke-width:0.8;" x="169.95236" xlink:href="#md030015696" y="307.584"/>
      </g>
     </g>
     <g id="text_8">
      <!-- 28 -->
      <g transform="translate(163.58986 322.182437)scale(0.1 -0.1)">
       <use xlink:href="#DejaVuSans-50"/>
       <use x="63.623047" xlink:href="#DejaVuSans-56"/>
      </g>
     </g>
    </g>
    <g id="xtick_9">
     <g id="line2d_17">
      <path clip-path="url(#p1891fce95f)" d="M 186.002697 307.584 
L 186.002697 41.472 
" style="fill:none;stroke:#b0b0b0;stroke-dasharray:5.12,1.28,0.8,1.28;stroke-dashoffset:0;stroke-width:0.8;"/>
     </g>
     <g id="line2d_18">
      <g>
       <use style="stroke:#000000;stroke-width:0.8;" x="186.002697" xlink:href="#md030015696" y="307.584"/>
      </g>
     </g>
     <g id="text_9">
      <!-- 32 -->
      <defs>
       <path d="M 40.578125 39.3125 
Q 47.65625 37.796875 51.625 33 
Q 55.609375 28.21875 55.609375 21.1875 
Q 55.609375 10.40625 48.1875 4.484375 
Q 40.765625 -1.421875 27.09375 -1.421875 
Q 22.515625 -1.421875 17.65625 -0.515625 
Q 12.796875 0.390625 7.625 2.203125 
L 7.625 11.71875 
Q 11.71875 9.328125 16.59375 8.109375 
Q 21.484375 6.890625 26.8125 6.890625 
Q 36.078125 6.890625 40.9375 10.546875 
Q 45.796875 14.203125 45.796875 21.1875 
Q 45.796875 27.640625 41.28125 31.265625 
Q 36.765625 34.90625 28.71875 34.90625 
L 20.21875 34.90625 
L 20.21875 43.015625 
L 29.109375 43.015625 
Q 36.375 43.015625 40.234375 45.921875 
Q 44.09375 48.828125 44.09375 54.296875 
Q 44.09375 59.90625 40.109375 62.90625 
Q 36.140625 65.921875 28.71875 65.921875 
Q 24.65625 65.921875 20.015625 65.03125 
Q 15.375 64.15625 9.8125 62.3125 
L 9.8125 71.09375 
Q 15.4375 72.65625 20.34375 73.4375 
Q 25.25 74.21875 29.59375 74.21875 
Q 40.828125 74.21875 47.359375 69.109375 
Q 53.90625 64.015625 53.90625 55.328125 
Q 53.90625 49.265625 50.4375 45.09375 
Q 46.96875 40.921875 40.578125 39.3125 
z
" id="DejaVuSans-51"/>
      </defs>
      <g transform="translate(179.640197 322.182437)scale(0.1 -0.1)">
       <use xlink:href="#DejaVuSans-51"/>
       <use x="63.623047" xlink:href="#DejaVuSans-50"/>
      </g>
     </g>
    </g>
    <g id="xtick_10">
     <g id="line2d_19">
      <path clip-path="url(#p1891fce95f)" d="M 202.053034 307.584 
L 202.053034 41.472 
" style="fill:none;stroke:#b0b0b0;stroke-dasharray:5.12,1.28,0.8,1.28;stroke-dashoffset:0;stroke-width:0.8;"/>
     </g>
     <g id="line2d_20">
      <g>
       <use style="stroke:#000000;stroke-width:0.8;" x="202.053034" xlink:href="#md030015696" y="307.584"/>
      </g>
     </g>
     <g id="text_10">
      <!-- 36 -->
      <g transform="translate(195.690534 322.182437)scale(0.1 -0.1)">
       <use xlink:href="#DejaVuSans-51"/>
       <use x="63.623047" xlink:href="#DejaVuSans-54"/>
      </g>
     </g>
    </g>
    <g id="xtick_11">
     <g id="line2d_21">
      <path clip-path="url(#p1891fce95f)" d="M 218.103371 307.584 
L 218.103371 41.472 
" style="fill:none;stroke:#b0b0b0;stroke-dasharray:5.12,1.28,0.8,1.28;stroke-dashoffset:0;stroke-width:0.8;"/>
     </g>
     <g id="line2d_22">
      <g>
       <use style="stroke:#000000;stroke-width:0.8;" x="218.103371" xlink:href="#md030015696" y="307.584"/>
      </g>
     </g>
     <g id="text_11">
      <!-- 40 -->
      <g transform="translate(211.740871 322.182437)scale(0.1 -0.1)">
       <use xlink:href="#DejaVuSans-52"/>
       <use x="63.623047" xlink:href="#DejaVuSans-48"/>
      </g>
     </g>
    </g>
    <g id="xtick_12">
     <g id="line2d_23">
      <path clip-path="url(#p1891fce95f)" d="M 234.153708 307.584 
L 234.153708 41.472 
" style="fill:none;stroke:#b0b0b0;stroke-dasharray:5.12,1.28,0.8,1.28;stroke-dashoffset:0;stroke-width:0.8;"/>
     </g>
     <g id="line2d_24">
      <g>
       <use style="stroke:#000000;stroke-width:0.8;" x="234.153708" xlink:href="#md030015696" y="307.584"/>
      </g>
     </g>
     <g id="text_12">
      <!-- 44 -->
      <g transform="translate(227.791208 322.182437)scale(0.1 -0.1)">
       <use xlink:href="#DejaVuSans-52"/>
       <use x="63.623047" xlink:href="#DejaVuSans-52"/>
      </g>
     </g>
    </g>
    <g id="xtick_13">
     <g id="line2d_25">
      <path clip-path="url(#p1891fce95f)" d="M 250.204045 307.584 
L 250.204045 41.472 
" style="fill:none;stroke:#b0b0b0;stroke-dasharray:5.12,1.28,0.8,1.28;stroke-dashoffset:0;stroke-width:0.8;"/>
     </g>
     <g id="line2d_26">
      <g>
       <use style="stroke:#000000;stroke-width:0.8;" x="250.204045" xlink:href="#md030015696" y="307.584"/>
      </g>
     </g>
     <g id="text_13">
      <!-- 48 -->
      <g transform="translate(243.841545 322.182437)scale(0.1 -0.1)">
       <use xlink:href="#DejaVuSans-52"/>
       <use x="63.623047" xlink:href="#DejaVuSans-56"/>
      </g>
     </g>
    </g>
    <g id="xtick_14">
     <g id="line2d_27">
      <path clip-path="url(#p1891fce95f)" d="M 266.254382 307.584 
L 266.254382 41.472 
" style="fill:none;stroke:#b0b0b0;stroke-dasharray:5.12,1.28,0.8,1.28;stroke-dashoffset:0;stroke-width:0.8;"/>
     </g>
     <g id="line2d_28">
      <g>
       <use style="stroke:#000000;stroke-width:0.8;" x="266.254382" xlink:href="#md030015696" y="307.584"/>
      </g>
     </g>
     <g id="text_14">
      <!-- 52 -->
      <defs>
       <path d="M 10.796875 72.90625 
L 49.515625 72.90625 
L 49.515625 64.59375 
L 19.828125 64.59375 
L 19.828125 46.734375 
Q 21.96875 47.46875 24.109375 47.828125 
Q 26.265625 48.1875 28.421875 48.1875 
Q 40.625 48.1875 47.75 41.5 
Q 54.890625 34.8125 54.890625 23.390625 
Q 54.890625 11.625 47.5625 5.09375 
Q 40.234375 -1.421875 26.90625 -1.421875 
Q 22.3125 -1.421875 17.546875 -0.640625 
Q 12.796875 0.140625 7.71875 1.703125 
L 7.71875 11.625 
Q 12.109375 9.234375 16.796875 8.0625 
Q 21.484375 6.890625 26.703125 6.890625 
Q 35.15625 6.890625 40.078125 11.328125 
Q 45.015625 15.765625 45.015625 23.390625 
Q 45.015625 31 40.078125 35.4375 
Q 35.15625 39.890625 26.703125 39.890625 
Q 22.75 39.890625 18.8125 39.015625 
Q 14.890625 38.140625 10.796875 36.28125 
z
" id="DejaVuSans-53"/>
      </defs>
      <g transform="translate(259.891882 322.182437)scale(0.1 -0.1)">
       <use xlink:href="#DejaVuSans-53"/>
       <use x="63.623047" xlink:href="#DejaVuSans-50"/>
      </g>
     </g>
    </g>
    <g id="xtick_15">
     <g id="line2d_29">
      <path clip-path="url(#p1891fce95f)" d="M 282.304719 307.584 
L 282.304719 41.472 
" style="fill:none;stroke:#b0b0b0;stroke-dasharray:5.12,1.28,0.8,1.28;stroke-dashoffset:0;stroke-width:0.8;"/>
     </g>
     <g id="line2d_30">
      <g>
       <use style="stroke:#000000;stroke-width:0.8;" x="282.304719" xlink:href="#md030015696" y="307.584"/>
      </g>
     </g>
     <g id="text_15">
      <!-- 56 -->
      <g transform="translate(275.942219 322.182437)scale(0.1 -0.1)">
       <use xlink:href="#DejaVuSans-53"/>
       <use x="63.623047" xlink:href="#DejaVuSans-54"/>
      </g>
     </g>
    </g>
    <g id="xtick_16">
     <g id="line2d_31">
      <path clip-path="url(#p1891fce95f)" d="M 298.355056 307.584 
L 298.355056 41.472 
" style="fill:none;stroke:#b0b0b0;stroke-dasharray:5.12,1.28,0.8,1.28;stroke-dashoffset:0;stroke-width:0.8;"/>
     </g>
     <g id="line2d_32">
      <g>
       <use style="stroke:#000000;stroke-width:0.8;" x="298.355056" xlink:href="#md030015696" y="307.584"/>
      </g>
     </g>
     <g id="text_16">
      <!-- 60 -->
      <g transform="translate(291.992556 322.182437)scale(0.1 -0.1)">
       <use xlink:href="#DejaVuSans-54"/>
       <use x="63.623047" xlink:href="#DejaVuSans-48"/>
      </g>
     </g>
    </g>
    <g id="xtick_17">
     <g id="line2d_33">
      <path clip-path="url(#p1891fce95f)" d="M 314.405393 307.584 
L 314.405393 41.472 
" style="fill:none;stroke:#b0b0b0;stroke-dasharray:5.12,1.28,0.8,1.28;stroke-dashoffset:0;stroke-width:0.8;"/>
     </g>
     <g id="line2d_34">
      <g>
       <use style="stroke:#000000;stroke-width:0.8;" x="314.405393" xlink:href="#md030015696" y="307.584"/>
      </g>
     </g>
     <g id="text_17">
      <!-- 64 -->
      <g transform="translate(308.042893 322.182437)scale(0.1 -0.1)">
       <use xlink:href="#DejaVuSans-54"/>
       <use x="63.623047" xlink:href="#DejaVuSans-52"/>
      </g>
     </g>
    </g>
    <g id="xtick_18">
     <g id="line2d_35">
      <path clip-path="url(#p1891fce95f)" d="M 330.45573 307.584 
L 330.45573 41.472 
" style="fill:none;stroke:#b0b0b0;stroke-dasharray:5.12,1.28,0.8,1.28;stroke-dashoffset:0;stroke-width:0.8;"/>
     </g>
     <g id="line2d_36">
      <g>
       <use style="stroke:#000000;stroke-width:0.8;" x="330.45573" xlink:href="#md030015696" y="307.584"/>
      </g>
     </g>
     <g id="text_18">
      <!-- 68 -->
      <g transform="translate(324.09323 322.182437)scale(0.1 -0.1)">
       <use xlink:href="#DejaVuSans-54"/>
       <use x="63.623047" xlink:href="#DejaVuSans-56"/>
      </g>
     </g>
    </g>
    <g id="xtick_19">
     <g id="line2d_37">
      <path clip-path="url(#p1891fce95f)" d="M 346.506067 307.584 
L 346.506067 41.472 
" style="fill:none;stroke:#b0b0b0;stroke-dasharray:5.12,1.28,0.8,1.28;stroke-dashoffset:0;stroke-width:0.8;"/>
     </g>
     <g id="line2d_38">
      <g>
       <use style="stroke:#000000;stroke-width:0.8;" x="346.506067" xlink:href="#md030015696" y="307.584"/>
      </g>
     </g>
     <g id="text_19">
      <!-- 72 -->
      <defs>
       <path d="M 8.203125 72.90625 
L 55.078125 72.90625 
L 55.078125 68.703125 
L 28.609375 0 
L 18.3125 0 
L 43.21875 64.59375 
L 8.203125 64.59375 
z
" id="DejaVuSans-55"/>
      </defs>
      <g transform="translate(340.143567 322.182437)scale(0.1 -0.1)">
       <use xlink:href="#DejaVuSans-55"/>
       <use x="63.623047" xlink:href="#DejaVuSans-50"/>
      </g>
     </g>
    </g>
    <g id="xtick_20">
     <g id="line2d_39">
      <path clip-path="url(#p1891fce95f)" d="M 362.556404 307.584 
L 362.556404 41.472 
" style="fill:none;stroke:#b0b0b0;stroke-dasharray:5.12,1.28,0.8,1.28;stroke-dashoffset:0;stroke-width:0.8;"/>
     </g>
     <g id="line2d_40">
      <g>
       <use style="stroke:#000000;stroke-width:0.8;" x="362.556404" xlink:href="#md030015696" y="307.584"/>
      </g>
     </g>
     <g id="text_20">
      <!-- 76 -->
      <g transform="translate(356.193904 322.182437)scale(0.1 -0.1)">
       <use xlink:href="#DejaVuSans-55"/>
       <use x="63.623047" xlink:href="#DejaVuSans-54"/>
      </g>
     </g>
    </g>
    <g id="xtick_21">
     <g id="line2d_41">
      <path clip-path="url(#p1891fce95f)" d="M 378.606742 307.584 
L 378.606742 41.472 
" style="fill:none;stroke:#b0b0b0;stroke-dasharray:5.12,1.28,0.8,1.28;stroke-dashoffset:0;stroke-width:0.8;"/>
     </g>
     <g id="line2d_42">
      <g>
       <use style="stroke:#000000;stroke-width:0.8;" x="378.606742" xlink:href="#md030015696" y="307.584"/>
      </g>
     </g>
     <g id="text_21">
      <!-- 80 -->
      <g transform="translate(372.244242 322.182437)scale(0.1 -0.1)">
       <use xlink:href="#DejaVuSans-56"/>
       <use x="63.623047" xlink:href="#DejaVuSans-48"/>
      </g>
     </g>
    </g>
    <g id="xtick_22">
     <g id="line2d_43">
      <path clip-path="url(#p1891fce95f)" d="M 394.657079 307.584 
L 394.657079 41.472 
" style="fill:none;stroke:#b0b0b0;stroke-dasharray:5.12,1.28,0.8,1.28;stroke-dashoffset:0;stroke-width:0.8;"/>
     </g>
     <g id="line2d_44">
      <g>
       <use style="stroke:#000000;stroke-width:0.8;" x="394.657079" xlink:href="#md030015696" y="307.584"/>
      </g>
     </g>
     <g id="text_22">
      <!-- 84 -->
      <g transform="translate(388.294579 322.182437)scale(0.1 -0.1)">
       <use xlink:href="#DejaVuSans-56"/>
       <use x="63.623047" xlink:href="#DejaVuSans-52"/>
      </g>
     </g>
    </g>
    <g id="xtick_23">
     <g id="line2d_45">
      <path clip-path="url(#p1891fce95f)" d="M 410.707416 307.584 
L 410.707416 41.472 
" style="fill:none;stroke:#b0b0b0;stroke-dasharray:5.12,1.28,0.8,1.28;stroke-dashoffset:0;stroke-width:0.8;"/>
     </g>
     <g id="line2d_46">
      <g>
       <use style="stroke:#000000;stroke-width:0.8;" x="410.707416" xlink:href="#md030015696" y="307.584"/>
      </g>
     </g>
     <g id="text_23">
      <!-- 88 -->
      <g transform="translate(404.344916 322.182437)scale(0.1 -0.1)">
       <use xlink:href="#DejaVuSans-56"/>
       <use x="63.623047" xlink:href="#DejaVuSans-56"/>
      </g>
     </g>
    </g>
    <g id="text_24">
     <!-- threads -->
     <defs>
      <path d="M 18.3125 70.21875 
L 18.3125 54.6875 
L 36.8125 54.6875 
L 36.8125 47.703125 
L 18.3125 47.703125 
L 18.3125 18.015625 
Q 18.3125 11.328125 20.140625 9.421875 
Q 21.96875 7.515625 27.59375 7.515625 
L 36.8125 7.515625 
L 36.8125 0 
L 27.59375 0 
Q 17.1875 0 13.234375 3.875 
Q 9.28125 7.765625 9.28125 18.015625 
L 9.28125 47.703125 
L 2.6875 47.703125 
L 2.6875 54.6875 
L 9.28125 54.6875 
L 9.28125 70.21875 
z
" id="DejaVuSans-116"/>
      <path d="M 54.890625 33.015625 
L 54.890625 0 
L 45.90625 0 
L 45.90625 32.71875 
Q 45.90625 40.484375 42.875 44.328125 
Q 39.84375 48.1875 33.796875 48.1875 
Q 26.515625 48.1875 22.3125 43.546875 
Q 18.109375 38.921875 18.109375 30.90625 
L 18.109375 0 
L 9.078125 0 
L 9.078125 75.984375 
L 18.109375 75.984375 
L 18.109375 46.1875 
Q 21.34375 51.125 25.703125 53.5625 
Q 30.078125 56 35.796875 56 
Q 45.21875 56 50.046875 50.171875 
Q 54.890625 44.34375 54.890625 33.015625 
z
" id="DejaVuSans-104"/>
      <path d="M 41.109375 46.296875 
Q 39.59375 47.171875 37.8125 47.578125 
Q 36.03125 48 33.890625 48 
Q 26.265625 48 22.1875 43.046875 
Q 18.109375 38.09375 18.109375 28.8125 
L 18.109375 0 
L 9.078125 0 
L 9.078125 54.6875 
L 18.109375 54.6875 
L 18.109375 46.1875 
Q 20.953125 51.171875 25.484375 53.578125 
Q 30.03125 56 36.53125 56 
Q 37.453125 56 38.578125 55.875 
Q 39.703125 55.765625 41.0625 55.515625 
z
" id="DejaVuSans-114"/>
      <path d="M 56.203125 29.59375 
L 56.203125 25.203125 
L 14.890625 25.203125 
Q 15.484375 15.921875 20.484375 11.0625 
Q 25.484375 6.203125 34.421875 6.203125 
Q 39.59375 6.203125 44.453125 7.46875 
Q 49.3125 8.734375 54.109375 11.28125 
L 54.109375 2.78125 
Q 49.265625 0.734375 44.1875 -0.34375 
Q 39.109375 -1.421875 33.890625 -1.421875 
Q 20.796875 -1.421875 13.15625 6.1875 
Q 5.515625 13.8125 5.515625 26.8125 
Q 5.515625 40.234375 12.765625 48.109375 
Q 20.015625 56 32.328125 56 
Q 43.359375 56 49.78125 48.890625 
Q 56.203125 41.796875 56.203125 29.59375 
z
M 47.21875 32.234375 
Q 47.125 39.59375 43.09375 43.984375 
Q 39.0625 48.390625 32.421875 48.390625 
Q 24.90625 48.390625 20.390625 44.140625 
Q 15.875 39.890625 15.1875 32.171875 
z
" id="DejaVuSans-101"/>
      <path d="M 34.28125 27.484375 
Q 23.390625 27.484375 19.1875 25 
Q 14.984375 22.515625 14.984375 16.5 
Q 14.984375 11.71875 18.140625 8.90625 
Q 21.296875 6.109375 26.703125 6.109375 
Q 34.1875 6.109375 38.703125 11.40625 
Q 43.21875 16.703125 43.21875 25.484375 
L 43.21875 27.484375 
z
M 52.203125 31.203125 
L 52.203125 0 
L 43.21875 0 
L 43.21875 8.296875 
Q 40.140625 3.328125 35.546875 0.953125 
Q 30.953125 -1.421875 24.3125 -1.421875 
Q 15.921875 -1.421875 10.953125 3.296875 
Q 6 8.015625 6 15.921875 
Q 6 25.140625 12.171875 29.828125 
Q 18.359375 34.515625 30.609375 34.515625 
L 43.21875 34.515625 
L 43.21875 35.40625 
Q 43.21875 41.609375 39.140625 45 
Q 35.0625 48.390625 27.6875 48.390625 
Q 23 48.390625 18.546875 47.265625 
Q 14.109375 46.140625 10.015625 43.890625 
L 10.015625 52.203125 
Q 14.9375 54.109375 19.578125 55.046875 
Q 24.21875 56 28.609375 56 
Q 40.484375 56 46.34375 49.84375 
Q 52.203125 43.703125 52.203125 31.203125 
z
" id="DejaVuSans-97"/>
      <path d="M 45.40625 46.390625 
L 45.40625 75.984375 
L 54.390625 75.984375 
L 54.390625 0 
L 45.40625 0 
L 45.40625 8.203125 
Q 42.578125 3.328125 38.25 0.953125 
Q 33.9375 -1.421875 27.875 -1.421875 
Q 17.96875 -1.421875 11.734375 6.484375 
Q 5.515625 14.40625 5.515625 27.296875 
Q 5.515625 40.1875 11.734375 48.09375 
Q 17.96875 56 27.875 56 
Q 33.9375 56 38.25 53.625 
Q 42.578125 51.265625 45.40625 46.390625 
z
M 14.796875 27.296875 
Q 14.796875 17.390625 18.875 11.75 
Q 22.953125 6.109375 30.078125 6.109375 
Q 37.203125 6.109375 41.296875 11.75 
Q 45.40625 17.390625 45.40625 27.296875 
Q 45.40625 37.203125 41.296875 42.84375 
Q 37.203125 48.484375 30.078125 48.484375 
Q 22.953125 48.484375 18.875 42.84375 
Q 14.796875 37.203125 14.796875 27.296875 
z
" id="DejaVuSans-100"/>
      <path d="M 44.28125 53.078125 
L 44.28125 44.578125 
Q 40.484375 46.53125 36.375 47.5 
Q 32.28125 48.484375 27.875 48.484375 
Q 21.1875 48.484375 17.84375 46.4375 
Q 14.5 44.390625 14.5 40.28125 
Q 14.5 37.15625 16.890625 35.375 
Q 19.28125 33.59375 26.515625 31.984375 
L 29.59375 31.296875 
Q 39.15625 29.25 43.1875 25.515625 
Q 47.21875 21.78125 47.21875 15.09375 
Q 47.21875 7.46875 41.1875 3.015625 
Q 35.15625 -1.421875 24.609375 -1.421875 
Q 20.21875 -1.421875 15.453125 -0.5625 
Q 10.6875 0.296875 5.421875 2 
L 5.421875 11.28125 
Q 10.40625 8.6875 15.234375 7.390625 
Q 20.0625 6.109375 24.8125 6.109375 
Q 31.15625 6.109375 34.5625 8.28125 
Q 37.984375 10.453125 37.984375 14.40625 
Q 37.984375 18.0625 35.515625 20.015625 
Q 33.0625 21.96875 24.703125 23.78125 
L 21.578125 24.515625 
Q 13.234375 26.265625 9.515625 29.90625 
Q 5.8125 33.546875 5.8125 39.890625 
Q 5.8125 47.609375 11.28125 51.796875 
Q 16.75 56 26.8125 56 
Q 31.78125 56 36.171875 55.265625 
Q 40.578125 54.546875 44.28125 53.078125 
z
" id="DejaVuSans-115"/>
     </defs>
     <g transform="translate(217.168594 335.860562)scale(0.1 -0.1)">
      <use xlink:href="#DejaVuSans-116"/>
      <use x="39.208984" xlink:href="#DejaVuSans-104"/>
      <use x="102.587891" xlink:href="#DejaVuSans-114"/>
      <use x="141.451172" xlink:href="#DejaVuSans-101"/>
      <use x="202.974609" xlink:href="#DejaVuSans-97"/>
      <use x="264.253906" xlink:href="#DejaVuSans-100"/>
      <use x="327.730469" xlink:href="#DejaVuSans-115"/>
     </g>
    </g>
   </g>
   <g id="matplotlib.axis_2">
    <g id="ytick_1">
     <g id="line2d_47">
      <path clip-path="url(#p1891fce95f)" d="M 57.6 276.536591 
L 414.72 276.536591 
" style="fill:none;stroke:#b0b0b0;stroke-dasharray:5.12,1.28,0.8,1.28;stroke-dashoffset:0;stroke-width:0.8;"/>
     </g>
     <g id="line2d_48">
      <defs>
       <path d="M 0 0 
L -3.5 0 
" id="ma75eb71718" style="stroke:#000000;stroke-width:0.8;"/>
      </defs>
      <g>
       <use style="stroke:#000000;stroke-width:0.8;" x="57.6" xlink:href="#ma75eb71718" y="276.536591"/>
      </g>
     </g>
     <g id="text_25">
      <!-- 1.0 -->
      <defs>
       <path d="M 10.6875 12.40625 
L 21 12.40625 
L 21 0 
L 10.6875 0 
z
" id="DejaVuSans-46"/>
      </defs>
      <g transform="translate(34.696875 280.335809)scale(0.1 -0.1)">
       <use xlink:href="#DejaVuSans-49"/>
       <use x="63.623047" xlink:href="#DejaVuSans-46"/>
       <use x="95.410156" xlink:href="#DejaVuSans-48"/>
      </g>
     </g>
    </g>
    <g id="ytick_2">
     <g id="line2d_49">
      <path clip-path="url(#p1891fce95f)" d="M 57.6 241.059414 
L 414.72 241.059414 
" style="fill:none;stroke:#b0b0b0;stroke-dasharray:5.12,1.28,0.8,1.28;stroke-dashoffset:0;stroke-width:0.8;"/>
     </g>
     <g id="line2d_50">
      <g>
       <use style="stroke:#000000;stroke-width:0.8;" x="57.6" xlink:href="#ma75eb71718" y="241.059414"/>
      </g>
     </g>
     <g id="text_26">
      <!-- 1.5 -->
      <g transform="translate(34.696875 244.858633)scale(0.1 -0.1)">
       <use xlink:href="#DejaVuSans-49"/>
       <use x="63.623047" xlink:href="#DejaVuSans-46"/>
       <use x="95.410156" xlink:href="#DejaVuSans-53"/>
      </g>
     </g>
    </g>
    <g id="ytick_3">
     <g id="line2d_51">
      <path clip-path="url(#p1891fce95f)" d="M 57.6 205.582238 
L 414.72 205.582238 
" style="fill:none;stroke:#b0b0b0;stroke-dasharray:5.12,1.28,0.8,1.28;stroke-dashoffset:0;stroke-width:0.8;"/>
     </g>
     <g id="line2d_52">
      <g>
       <use style="stroke:#000000;stroke-width:0.8;" x="57.6" xlink:href="#ma75eb71718" y="205.582238"/>
      </g>
     </g>
     <g id="text_27">
      <!-- 2.0 -->
      <g transform="translate(34.696875 209.381457)scale(0.1 -0.1)">
       <use xlink:href="#DejaVuSans-50"/>
       <use x="63.623047" xlink:href="#DejaVuSans-46"/>
       <use x="95.410156" xlink:href="#DejaVuSans-48"/>
      </g>
     </g>
    </g>
    <g id="ytick_4">
     <g id="line2d_53">
      <path clip-path="url(#p1891fce95f)" d="M 57.6 170.105062 
L 414.72 170.105062 
" style="fill:none;stroke:#b0b0b0;stroke-dasharray:5.12,1.28,0.8,1.28;stroke-dashoffset:0;stroke-width:0.8;"/>
     </g>
     <g id="line2d_54">
      <g>
       <use style="stroke:#000000;stroke-width:0.8;" x="57.6" xlink:href="#ma75eb71718" y="170.105062"/>
      </g>
     </g>
     <g id="text_28">
      <!-- 2.5 -->
      <g transform="translate(34.696875 173.904281)scale(0.1 -0.1)">
       <use xlink:href="#DejaVuSans-50"/>
       <use x="63.623047" xlink:href="#DejaVuSans-46"/>
       <use x="95.410156" xlink:href="#DejaVuSans-53"/>
      </g>
     </g>
    </g>
    <g id="ytick_5">
     <g id="line2d_55">
      <path clip-path="url(#p1891fce95f)" d="M 57.6 134.627886 
L 414.72 134.627886 
" style="fill:none;stroke:#b0b0b0;stroke-dasharray:5.12,1.28,0.8,1.28;stroke-dashoffset:0;stroke-width:0.8;"/>
     </g>
     <g id="line2d_56">
      <g>
       <use style="stroke:#000000;stroke-width:0.8;" x="57.6" xlink:href="#ma75eb71718" y="134.627886"/>
      </g>
     </g>
     <g id="text_29">
      <!-- 3.0 -->
      <g transform="translate(34.696875 138.427104)scale(0.1 -0.1)">
       <use xlink:href="#DejaVuSans-51"/>
       <use x="63.623047" xlink:href="#DejaVuSans-46"/>
       <use x="95.410156" xlink:href="#DejaVuSans-48"/>
      </g>
     </g>
    </g>
    <g id="ytick_6">
     <g id="line2d_57">
      <path clip-path="url(#p1891fce95f)" d="M 57.6 99.150709 
L 414.72 99.150709 
" style="fill:none;stroke:#b0b0b0;stroke-dasharray:5.12,1.28,0.8,1.28;stroke-dashoffset:0;stroke-width:0.8;"/>
     </g>
     <g id="line2d_58">
      <g>
       <use style="stroke:#000000;stroke-width:0.8;" x="57.6" xlink:href="#ma75eb71718" y="99.150709"/>
      </g>
     </g>
     <g id="text_30">
      <!-- 3.5 -->
      <g transform="translate(34.696875 102.949928)scale(0.1 -0.1)">
       <use xlink:href="#DejaVuSans-51"/>
       <use x="63.623047" xlink:href="#DejaVuSans-46"/>
       <use x="95.410156" xlink:href="#DejaVuSans-53"/>
      </g>
     </g>
    </g>
    <g id="ytick_7">
     <g id="line2d_59">
      <path clip-path="url(#p1891fce95f)" d="M 57.6 63.673533 
L 414.72 63.673533 
" style="fill:none;stroke:#b0b0b0;stroke-dasharray:5.12,1.28,0.8,1.28;stroke-dashoffset:0;stroke-width:0.8;"/>
     </g>
     <g id="line2d_60">
      <g>
       <use style="stroke:#000000;stroke-width:0.8;" x="57.6" xlink:href="#ma75eb71718" y="63.673533"/>
      </g>
     </g>
     <g id="text_31">
      <!-- 4.0 -->
      <g transform="translate(34.696875 67.472752)scale(0.1 -0.1)">
       <use xlink:href="#DejaVuSans-52"/>
       <use x="63.623047" xlink:href="#DejaVuSans-46"/>
       <use x="95.410156" xlink:href="#DejaVuSans-48"/>
      </g>
     </g>
    </g>
    <g id="text_32">
     <!-- duration (s) -->
     <defs>
      <path d="M 8.5 21.578125 
L 8.5 54.6875 
L 17.484375 54.6875 
L 17.484375 21.921875 
Q 17.484375 14.15625 20.5 10.265625 
Q 23.53125 6.390625 29.59375 6.390625 
Q 36.859375 6.390625 41.078125 11.03125 
Q 45.3125 15.671875 45.3125 23.6875 
L 45.3125 54.6875 
L 54.296875 54.6875 
L 54.296875 0 
L 45.3125 0 
L 45.3125 8.40625 
Q 42.046875 3.421875 37.71875 1 
Q 33.40625 -1.421875 27.6875 -1.421875 
Q 18.265625 -1.421875 13.375 4.4375 
Q 8.5 10.296875 8.5 21.578125 
z
M 31.109375 56 
z
" id="DejaVuSans-117"/>
      <path d="M 9.421875 54.6875 
L 18.40625 54.6875 
L 18.40625 0 
L 9.421875 0 
z
M 9.421875 75.984375 
L 18.40625 75.984375 
L 18.40625 64.59375 
L 9.421875 64.59375 
z
" id="DejaVuSans-105"/>
      <path d="M 30.609375 48.390625 
Q 23.390625 48.390625 19.1875 42.75 
Q 14.984375 37.109375 14.984375 27.296875 
Q 14.984375 17.484375 19.15625 11.84375 
Q 23.34375 6.203125 30.609375 6.203125 
Q 37.796875 6.203125 41.984375 11.859375 
Q 46.1875 17.53125 46.1875 27.296875 
Q 46.1875 37.015625 41.984375 42.703125 
Q 37.796875 48.390625 30.609375 48.390625 
z
M 30.609375 56 
Q 42.328125 56 49.015625 48.375 
Q 55.71875 40.765625 55.71875 27.296875 
Q 55.71875 13.875 49.015625 6.21875 
Q 42.328125 -1.421875 30.609375 -1.421875 
Q 18.84375 -1.421875 12.171875 6.21875 
Q 5.515625 13.875 5.515625 27.296875 
Q 5.515625 40.765625 12.171875 48.375 
Q 18.84375 56 30.609375 56 
z
" id="DejaVuSans-111"/>
      <path d="M 54.890625 33.015625 
L 54.890625 0 
L 45.90625 0 
L 45.90625 32.71875 
Q 45.90625 40.484375 42.875 44.328125 
Q 39.84375 48.1875 33.796875 48.1875 
Q 26.515625 48.1875 22.3125 43.546875 
Q 18.109375 38.921875 18.109375 30.90625 
L 18.109375 0 
L 9.078125 0 
L 9.078125 54.6875 
L 18.109375 54.6875 
L 18.109375 46.1875 
Q 21.34375 51.125 25.703125 53.5625 
Q 30.078125 56 35.796875 56 
Q 45.21875 56 50.046875 50.171875 
Q 54.890625 44.34375 54.890625 33.015625 
z
" id="DejaVuSans-110"/>
      <path id="DejaVuSans-32"/>
      <path d="M 31 75.875 
Q 24.46875 64.65625 21.28125 53.65625 
Q 18.109375 42.671875 18.109375 31.390625 
Q 18.109375 20.125 21.3125 9.0625 
Q 24.515625 -2 31 -13.1875 
L 23.1875 -13.1875 
Q 15.875 -1.703125 12.234375 9.375 
Q 8.59375 20.453125 8.59375 31.390625 
Q 8.59375 42.28125 12.203125 53.3125 
Q 15.828125 64.359375 23.1875 75.875 
z
" id="DejaVuSans-40"/>
      <path d="M 8.015625 75.875 
L 15.828125 75.875 
Q 23.140625 64.359375 26.78125 53.3125 
Q 30.421875 42.28125 30.421875 31.390625 
Q 30.421875 20.453125 26.78125 9.375 
Q 23.140625 -1.703125 15.828125 -13.1875 
L 8.015625 -13.1875 
Q 14.5 -2 17.703125 9.0625 
Q 20.90625 20.125 20.90625 31.390625 
Q 20.90625 42.671875 17.703125 53.65625 
Q 14.5 64.65625 8.015625 75.875 
z
" id="DejaVuSans-41"/>
     </defs>
     <g transform="translate(28.617187 203.663156)rotate(-90)scale(0.1 -0.1)">
      <use xlink:href="#DejaVuSans-100"/>
      <use x="63.476562" xlink:href="#DejaVuSans-117"/>
      <use x="126.855469" xlink:href="#DejaVuSans-114"/>
      <use x="167.96875" xlink:href="#DejaVuSans-97"/>
      <use x="229.248047" xlink:href="#DejaVuSans-116"/>
      <use x="268.457031" xlink:href="#DejaVuSans-105"/>
      <use x="296.240234" xlink:href="#DejaVuSans-111"/>
      <use x="357.421875" xlink:href="#DejaVuSans-110"/>
      <use x="420.800781" xlink:href="#DejaVuSans-32"/>
      <use x="452.587891" xlink:href="#DejaVuSans-40"/>
      <use x="491.601562" xlink:href="#DejaVuSans-115"/>
      <use x="543.701172" xlink:href="#DejaVuSans-41"/>
     </g>
    </g>
   </g>
   <g id="line2d_61">
    <path clip-path="url(#p1891fce95f)" d="M 61.612584 53.568 
L 65.625169 178.048807 
L 69.637753 221.144062 
L 73.650337 241.821859 
L 77.662921 252.078268 
L 81.675506 258.457382 
L 85.68809 264.181196 
L 89.700674 268.188164 
L 93.713258 272.827197 
L 97.725843 275.222414 
L 101.738427 277.437903 
L 105.751011 279.565811 
L 109.763596 279.707881 
L 113.77618 281.762165 
L 117.788764 280.453367 
L 121.801348 283.735507 
L 125.813933 283.661377 
L 129.826517 284.0807 
L 133.839101 282.114637 
L 137.851685 283.493516 
L 141.86427 284.928992 
L 145.876854 284.843407 
L 149.889438 286.200623 
L 153.902022 284.912788 
L 157.914607 284.230319 
L 161.927191 283.284248 
L 165.939775 282.846537 
L 169.95236 284.476094 
L 173.964944 285.270908 
L 177.977528 285.016041 
L 181.990112 286.235206 
L 186.002697 285.509266 
L 190.015281 287.742426 
L 194.027865 283.921012 
L 198.040449 282.99655 
L 202.053034 284.001193 
L 206.065618 283.261439 
L 210.078202 285.347802 
L 214.090787 282.730043 
L 218.103371 282.632664 
L 222.115955 280.711289 
L 226.128539 283.291056 
L 230.141124 283.504737 
L 234.153708 283.594677 
L 238.166292 282.778898 
L 242.178876 286.59945 
L 246.191461 284.420136 
L 250.204045 284.60373 
L 254.216629 281.490053 
L 258.229213 285.585095 
L 262.241798 281.153514 
L 266.254382 284.293081 
L 270.266966 283.24212 
L 274.279551 284.3586 
L 278.292135 281.705209 
L 282.304719 282.047685 
L 286.317303 280.53487 
L 290.329888 279.293897 
L 294.342472 280.643824 
L 298.355056 282.045918 
L 302.36764 283.830376 
L 306.380225 281.092297 
L 310.392809 282.695201 
L 314.405393 281.677827 
L 318.417978 281.226083 
L 322.430562 280.785131 
L 326.443146 279.259331 
L 330.45573 280.693705 
L 334.468315 279.904322 
L 338.480899 278.200987 
L 342.493483 279.452722 
L 346.506067 280.014235 
L 350.518652 277.186006 
L 354.531236 276.745332 
L 358.54382 278.315713 
L 362.556404 280.46382 
L 366.568989 280.391691 
L 370.581573 280.264124 
L 374.594157 279.717212 
L 378.606742 279.370011 
L 382.619326 280.075375 
L 386.63191 280.357038 
L 390.644494 278.4026 
L 394.657079 276.198474 
L 398.669663 276.234081 
L 402.682247 275.395371 
L 406.694831 277.441692 
L 410.707416 277.040998 
" style="fill:none;stroke:#0000ff;stroke-dasharray:1.5,2.475;stroke-dashoffset:0;stroke-width:1.5;"/>
    <defs>
     <path d="M 0 1.5 
C 0.397805 1.5 0.77937 1.341951 1.06066 1.06066 
C 1.341951 0.77937 1.5 0.397805 1.5 0 
C 1.5 -0.397805 1.341951 -0.77937 1.06066 -1.06066 
C 0.77937 -1.341951 0.397805 -1.5 0 -1.5 
C -0.397805 -1.5 -0.77937 -1.341951 -1.06066 -1.06066 
C -1.341951 -0.77937 -1.5 -0.397805 -1.5 0 
C -1.5 0.397805 -1.341951 0.77937 -1.06066 1.06066 
C -0.77937 1.341951 -0.397805 1.5 0 1.5 
z
" id="m7a4a141caa" style="stroke:#0000ff;"/>
    </defs>
    <g clip-path="url(#p1891fce95f)">
     <use style="fill:#0000ff;stroke:#0000ff;" x="61.612584" xlink:href="#m7a4a141caa" y="53.568"/>
     <use style="fill:#0000ff;stroke:#0000ff;" x="65.625169" xlink:href="#m7a4a141caa" y="178.048807"/>
     <use style="fill:#0000ff;stroke:#0000ff;" x="69.637753" xlink:href="#m7a4a141caa" y="221.144062"/>
     <use style="fill:#0000ff;stroke:#0000ff;" x="73.650337" xlink:href="#m7a4a141caa" y="241.821859"/>
     <use style="fill:#0000ff;stroke:#0000ff;" x="77.662921" xlink:href="#m7a4a141caa" y="252.078268"/>
     <use style="fill:#0000ff;stroke:#0000ff;" x="81.675506" xlink:href="#m7a4a141caa" y="258.457382"/>
     <use style="fill:#0000ff;stroke:#0000ff;" x="85.68809" xlink:href="#m7a4a141caa" y="264.181196"/>
     <use style="fill:#0000ff;stroke:#0000ff;" x="89.700674" xlink:href="#m7a4a141caa" y="268.188164"/>
     <use style="fill:#0000ff;stroke:#0000ff;" x="93.713258" xlink:href="#m7a4a141caa" y="272.827197"/>
     <use style="fill:#0000ff;stroke:#0000ff;" x="97.725843" xlink:href="#m7a4a141caa" y="275.222414"/>
     <use style="fill:#0000ff;stroke:#0000ff;" x="101.738427" xlink:href="#m7a4a141caa" y="277.437903"/>
     <use style="fill:#0000ff;stroke:#0000ff;" x="105.751011" xlink:href="#m7a4a141caa" y="279.565811"/>
     <use style="fill:#0000ff;stroke:#0000ff;" x="109.763596" xlink:href="#m7a4a141caa" y="279.707881"/>
     <use style="fill:#0000ff;stroke:#0000ff;" x="113.77618" xlink:href="#m7a4a141caa" y="281.762165"/>
     <use style="fill:#0000ff;stroke:#0000ff;" x="117.788764" xlink:href="#m7a4a141caa" y="280.453367"/>
     <use style="fill:#0000ff;stroke:#0000ff;" x="121.801348" xlink:href="#m7a4a141caa" y="283.735507"/>
     <use style="fill:#0000ff;stroke:#0000ff;" x="125.813933" xlink:href="#m7a4a141caa" y="283.661377"/>
     <use style="fill:#0000ff;stroke:#0000ff;" x="129.826517" xlink:href="#m7a4a141caa" y="284.0807"/>
     <use style="fill:#0000ff;stroke:#0000ff;" x="133.839101" xlink:href="#m7a4a141caa" y="282.114637"/>
     <use style="fill:#0000ff;stroke:#0000ff;" x="137.851685" xlink:href="#m7a4a141caa" y="283.493516"/>
     <use style="fill:#0000ff;stroke:#0000ff;" x="141.86427" xlink:href="#m7a4a141caa" y="284.928992"/>
     <use style="fill:#0000ff;stroke:#0000ff;" x="145.876854" xlink:href="#m7a4a141caa" y="284.843407"/>
     <use style="fill:#0000ff;stroke:#0000ff;" x="149.889438" xlink:href="#m7a4a141caa" y="286.200623"/>
     <use style="fill:#0000ff;stroke:#0000ff;" x="153.902022" xlink:href="#m7a4a141caa" y="284.912788"/>
     <use style="fill:#0000ff;stroke:#0000ff;" x="157.914607" xlink:href="#m7a4a141caa" y="284.230319"/>
     <use style="fill:#0000ff;stroke:#0000ff;" x="161.927191" xlink:href="#m7a4a141caa" y="283.284248"/>
     <use style="fill:#0000ff;stroke:#0000ff;" x="165.939775" xlink:href="#m7a4a141caa" y="282.846537"/>
     <use style="fill:#0000ff;stroke:#0000ff;" x="169.95236" xlink:href="#m7a4a141caa" y="284.476094"/>
     <use style="fill:#0000ff;stroke:#0000ff;" x="173.964944" xlink:href="#m7a4a141caa" y="285.270908"/>
     <use style="fill:#0000ff;stroke:#0000ff;" x="177.977528" xlink:href="#m7a4a141caa" y="285.016041"/>
     <use style="fill:#0000ff;stroke:#0000ff;" x="181.990112" xlink:href="#m7a4a141caa" y="286.235206"/>
     <use style="fill:#0000ff;stroke:#0000ff;" x="186.002697" xlink:href="#m7a4a141caa" y="285.509266"/>
     <use style="fill:#0000ff;stroke:#0000ff;" x="190.015281" xlink:href="#m7a4a141caa" y="287.742426"/>
     <use style="fill:#0000ff;stroke:#0000ff;" x="194.027865" xlink:href="#m7a4a141caa" y="283.921012"/>
     <use style="fill:#0000ff;stroke:#0000ff;" x="198.040449" xlink:href="#m7a4a141caa" y="282.99655"/>
     <use style="fill:#0000ff;stroke:#0000ff;" x="202.053034" xlink:href="#m7a4a141caa" y="284.001193"/>
     <use style="fill:#0000ff;stroke:#0000ff;" x="206.065618" xlink:href="#m7a4a141caa" y="283.261439"/>
     <use style="fill:#0000ff;stroke:#0000ff;" x="210.078202" xlink:href="#m7a4a141caa" y="285.347802"/>
     <use style="fill:#0000ff;stroke:#0000ff;" x="214.090787" xlink:href="#m7a4a141caa" y="282.730043"/>
     <use style="fill:#0000ff;stroke:#0000ff;" x="218.103371" xlink:href="#m7a4a141caa" y="282.632664"/>
     <use style="fill:#0000ff;stroke:#0000ff;" x="222.115955" xlink:href="#m7a4a141caa" y="280.711289"/>
     <use style="fill:#0000ff;stroke:#0000ff;" x="226.128539" xlink:href="#m7a4a141caa" y="283.291056"/>
     <use style="fill:#0000ff;stroke:#0000ff;" x="230.141124" xlink:href="#m7a4a141caa" y="283.504737"/>
     <use style="fill:#0000ff;stroke:#0000ff;" x="234.153708" xlink:href="#m7a4a141caa" y="283.594677"/>
     <use style="fill:#0000ff;stroke:#0000ff;" x="238.166292" xlink:href="#m7a4a141caa" y="282.778898"/>
     <use style="fill:#0000ff;stroke:#0000ff;" x="242.178876" xlink:href="#m7a4a141caa" y="286.59945"/>
     <use style="fill:#0000ff;stroke:#0000ff;" x="246.191461" xlink:href="#m7a4a141caa" y="284.420136"/>
     <use style="fill:#0000ff;stroke:#0000ff;" x="250.204045" xlink:href="#m7a4a141caa" y="284.60373"/>
     <use style="fill:#0000ff;stroke:#0000ff;" x="254.216629" xlink:href="#m7a4a141caa" y="281.490053"/>
     <use style="fill:#0000ff;stroke:#0000ff;" x="258.229213" xlink:href="#m7a4a141caa" y="285.585095"/>
     <use style="fill:#0000ff;stroke:#0000ff;" x="262.241798" xlink:href="#m7a4a141caa" y="281.153514"/>
     <use style="fill:#0000ff;stroke:#0000ff;" x="266.254382" xlink:href="#m7a4a141caa" y="284.293081"/>
     <use style="fill:#0000ff;stroke:#0000ff;" x="270.266966" xlink:href="#m7a4a141caa" y="283.24212"/>
     <use style="fill:#0000ff;stroke:#0000ff;" x="274.279551" xlink:href="#m7a4a141caa" y="284.3586"/>
     <use style="fill:#0000ff;stroke:#0000ff;" x="278.292135" xlink:href="#m7a4a141caa" y="281.705209"/>
     <use style="fill:#0000ff;stroke:#0000ff;" x="282.304719" xlink:href="#m7a4a141caa" y="282.047685"/>
     <use style="fill:#0000ff;stroke:#0000ff;" x="286.317303" xlink:href="#m7a4a141caa" y="280.53487"/>
     <use style="fill:#0000ff;stroke:#0000ff;" x="290.329888" xlink:href="#m7a4a141caa" y="279.293897"/>
     <use style="fill:#0000ff;stroke:#0000ff;" x="294.342472" xlink:href="#m7a4a141caa" y="280.643824"/>
     <use style="fill:#0000ff;stroke:#0000ff;" x="298.355056" xlink:href="#m7a4a141caa" y="282.045918"/>
     <use style="fill:#0000ff;stroke:#0000ff;" x="302.36764" xlink:href="#m7a4a141caa" y="283.830376"/>
     <use style="fill:#0000ff;stroke:#0000ff;" x="306.380225" xlink:href="#m7a4a141caa" y="281.092297"/>
     <use style="fill:#0000ff;stroke:#0000ff;" x="310.392809" xlink:href="#m7a4a141caa" y="282.695201"/>
     <use style="fill:#0000ff;stroke:#0000ff;" x="314.405393" xlink:href="#m7a4a141caa" y="281.677827"/>
     <use style="fill:#0000ff;stroke:#0000ff;" x="318.417978" xlink:href="#m7a4a141caa" y="281.226083"/>
     <use style="fill:#0000ff;stroke:#0000ff;" x="322.430562" xlink:href="#m7a4a141caa" y="280.785131"/>
     <use style="fill:#0000ff;stroke:#0000ff;" x="326.443146" xlink:href="#m7a4a141caa" y="279.259331"/>
     <use style="fill:#0000ff;stroke:#0000ff;" x="330.45573" xlink:href="#m7a4a141caa" y="280.693705"/>
     <use style="fill:#0000ff;stroke:#0000ff;" x="334.468315" xlink:href="#m7a4a141caa" y="279.904322"/>
     <use style="fill:#0000ff;stroke:#0000ff;" x="338.480899" xlink:href="#m7a4a141caa" y="278.200987"/>
     <use style="fill:#0000ff;stroke:#0000ff;" x="342.493483" xlink:href="#m7a4a141caa" y="279.452722"/>
     <use style="fill:#0000ff;stroke:#0000ff;" x="346.506067" xlink:href="#m7a4a141caa" y="280.014235"/>
     <use style="fill:#0000ff;stroke:#0000ff;" x="350.518652" xlink:href="#m7a4a141caa" y="277.186006"/>
     <use style="fill:#0000ff;stroke:#0000ff;" x="354.531236" xlink:href="#m7a4a141caa" y="276.745332"/>
     <use style="fill:#0000ff;stroke:#0000ff;" x="358.54382" xlink:href="#m7a4a141caa" y="278.315713"/>
     <use style="fill:#0000ff;stroke:#0000ff;" x="362.556404" xlink:href="#m7a4a141caa" y="280.46382"/>
     <use style="fill:#0000ff;stroke:#0000ff;" x="366.568989" xlink:href="#m7a4a141caa" y="280.391691"/>
     <use style="fill:#0000ff;stroke:#0000ff;" x="370.581573" xlink:href="#m7a4a141caa" y="280.264124"/>
     <use style="fill:#0000ff;stroke:#0000ff;" x="374.594157" xlink:href="#m7a4a141caa" y="279.717212"/>
     <use style="fill:#0000ff;stroke:#0000ff;" x="378.606742" xlink:href="#m7a4a141caa" y="279.370011"/>
     <use style="fill:#0000ff;stroke:#0000ff;" x="382.619326" xlink:href="#m7a4a141caa" y="280.075375"/>
     <use style="fill:#0000ff;stroke:#0000ff;" x="386.63191" xlink:href="#m7a4a141caa" y="280.357038"/>
     <use style="fill:#0000ff;stroke:#0000ff;" x="390.644494" xlink:href="#m7a4a141caa" y="278.4026"/>
     <use style="fill:#0000ff;stroke:#0000ff;" x="394.657079" xlink:href="#m7a4a141caa" y="276.198474"/>
     <use style="fill:#0000ff;stroke:#0000ff;" x="398.669663" xlink:href="#m7a4a141caa" y="276.234081"/>
     <use style="fill:#0000ff;stroke:#0000ff;" x="402.682247" xlink:href="#m7a4a141caa" y="275.395371"/>
     <use style="fill:#0000ff;stroke:#0000ff;" x="406.694831" xlink:href="#m7a4a141caa" y="277.441692"/>
     <use style="fill:#0000ff;stroke:#0000ff;" x="410.707416" xlink:href="#m7a4a141caa" y="277.040998"/>
    </g>
   </g>
   <g id="line2d_62">
    <path clip-path="url(#p1891fce95f)" d="M 61.612584 121.314309 
L 65.625169 214.886452 
L 69.637753 246.75758 
L 73.650337 262.846675 
L 77.662921 270.034337 
L 81.675506 276.303194 
L 85.68809 282.017283 
L 89.700674 285.334356 
L 93.713258 288.028035 
L 97.725843 289.348228 
L 101.738427 291.825459 
L 105.751011 291.090749 
L 109.763596 291.722382 
L 113.77618 292.082506 
L 117.788764 293.786292 
L 121.801348 295.148184 
L 125.813933 294.750465 
L 129.826517 294.572792 
L 133.839101 293.982508 
L 137.851685 294.759066 
L 141.86427 294.096561 
L 145.876854 294.525483 
L 149.889438 291.81477 
L 153.902022 292.6915 
L 157.914607 294.075222 
L 161.927191 292.527718 
L 165.939775 293.692561 
L 169.95236 293.143955 
L 173.964944 293.237785 
L 177.977528 294.545636 
L 181.990112 294.594943 
L 186.002697 295.19408 
L 190.015281 295.45086 
L 194.027865 295.488 
L 198.040449 293.732315 
L 202.053034 294.58481 
L 206.065618 290.595407 
L 210.078202 294.168871 
L 214.090787 294.090232 
L 218.103371 294.381692 
L 222.115955 293.544413 
L 226.128539 293.952775 
L 230.141124 293.354669 
L 234.153708 293.859092 
L 238.166292 293.819338 
L 242.178876 294.831588 
L 246.191461 294.353685 
L 250.204045 293.846257 
L 254.216629 293.062996 
L 258.229213 294.210264 
L 262.241798 292.536481 
L 266.254382 292.820138 
L 270.266966 292.900635 
L 274.279551 291.826373 
L 278.292135 292.014887 
L 282.304719 291.61352 
L 286.317303 291.102243 
L 290.329888 291.961325 
L 294.342472 292.029607 
L 298.355056 291.535224 
L 302.36764 291.859986 
L 306.380225 292.377262 
L 310.392809 292.459579 
L 314.405393 291.978651 
L 318.417978 291.743541 
L 322.430562 292.323343 
L 326.443146 291.295653 
L 330.45573 289.869298 
L 334.468315 290.819966 
L 338.480899 290.355649 
L 342.493483 290.260347 
L 346.506067 287.804687 
L 350.518652 288.571037 
L 354.531236 287.301774 
L 358.54382 289.005539 
L 362.556404 289.392506 
L 366.568989 288.955455 
L 370.581573 290.819043 
L 374.594157 290.334332 
L 378.606742 289.717873 
L 382.619326 289.657656 
L 386.63191 289.069073 
L 390.644494 289.604788 
L 394.657079 287.149858 
L 398.669663 286.992776 
L 402.682247 286.68741 
L 406.694831 286.037975 
L 410.707416 286.991674 
" style="fill:none;stroke:#ff0000;stroke-dasharray:1.5,2.475;stroke-dashoffset:0;stroke-width:1.5;"/>
    <defs>
     <path d="M 0 1.5 
C 0.397805 1.5 0.77937 1.341951 1.06066 1.06066 
C 1.341951 0.77937 1.5 0.397805 1.5 0 
C 1.5 -0.397805 1.341951 -0.77937 1.06066 -1.06066 
C 0.77937 -1.341951 0.397805 -1.5 0 -1.5 
C -0.397805 -1.5 -0.77937 -1.341951 -1.06066 -1.06066 
C -1.341951 -0.77937 -1.5 -0.397805 -1.5 0 
C -1.5 0.397805 -1.341951 0.77937 -1.06066 1.06066 
C -0.77937 1.341951 -0.397805 1.5 0 1.5 
z
" id="ma924bf3227" style="stroke:#ff0000;"/>
    </defs>
    <g clip-path="url(#p1891fce95f)">
     <use style="fill:#ff0000;stroke:#ff0000;" x="61.612584" xlink:href="#ma924bf3227" y="121.314309"/>
     <use style="fill:#ff0000;stroke:#ff0000;" x="65.625169" xlink:href="#ma924bf3227" y="214.886452"/>
     <use style="fill:#ff0000;stroke:#ff0000;" x="69.637753" xlink:href="#ma924bf3227" y="246.75758"/>
     <use style="fill:#ff0000;stroke:#ff0000;" x="73.650337" xlink:href="#ma924bf3227" y="262.846675"/>
     <use style="fill:#ff0000;stroke:#ff0000;" x="77.662921" xlink:href="#ma924bf3227" y="270.034337"/>
     <use style="fill:#ff0000;stroke:#ff0000;" x="81.675506" xlink:href="#ma924bf3227" y="276.303194"/>
     <use style="fill:#ff0000;stroke:#ff0000;" x="85.68809" xlink:href="#ma924bf3227" y="282.017283"/>
     <use style="fill:#ff0000;stroke:#ff0000;" x="89.700674" xlink:href="#ma924bf3227" y="285.334356"/>
     <use style="fill:#ff0000;stroke:#ff0000;" x="93.713258" xlink:href="#ma924bf3227" y="288.028035"/>
     <use style="fill:#ff0000;stroke:#ff0000;" x="97.725843" xlink:href="#ma924bf3227" y="289.348228"/>
     <use style="fill:#ff0000;stroke:#ff0000;" x="101.738427" xlink:href="#ma924bf3227" y="291.825459"/>
     <use style="fill:#ff0000;stroke:#ff0000;" x="105.751011" xlink:href="#ma924bf3227" y="291.090749"/>
     <use style="fill:#ff0000;stroke:#ff0000;" x="109.763596" xlink:href="#ma924bf3227" y="291.722382"/>
     <use style="fill:#ff0000;stroke:#ff0000;" x="113.77618" xlink:href="#ma924bf3227" y="292.082506"/>
     <use style="fill:#ff0000;stroke:#ff0000;" x="117.788764" xlink:href="#ma924bf3227" y="293.786292"/>
     <use style="fill:#ff0000;stroke:#ff0000;" x="121.801348" xlink:href="#ma924bf3227" y="295.148184"/>
     <use style="fill:#ff0000;stroke:#ff0000;" x="125.813933" xlink:href="#ma924bf3227" y="294.750465"/>
     <use style="fill:#ff0000;stroke:#ff0000;" x="129.826517" xlink:href="#ma924bf3227" y="294.572792"/>
     <use style="fill:#ff0000;stroke:#ff0000;" x="133.839101" xlink:href="#ma924bf3227" y="293.982508"/>
     <use style="fill:#ff0000;stroke:#ff0000;" x="137.851685" xlink:href="#ma924bf3227" y="294.759066"/>
     <use style="fill:#ff0000;stroke:#ff0000;" x="141.86427" xlink:href="#ma924bf3227" y="294.096561"/>
     <use style="fill:#ff0000;stroke:#ff0000;" x="145.876854" xlink:href="#ma924bf3227" y="294.525483"/>
     <use style="fill:#ff0000;stroke:#ff0000;" x="149.889438" xlink:href="#ma924bf3227" y="291.81477"/>
     <use style="fill:#ff0000;stroke:#ff0000;" x="153.902022" xlink:href="#ma924bf3227" y="292.6915"/>
     <use style="fill:#ff0000;stroke:#ff0000;" x="157.914607" xlink:href="#ma924bf3227" y="294.075222"/>
     <use style="fill:#ff0000;stroke:#ff0000;" x="161.927191" xlink:href="#ma924bf3227" y="292.527718"/>
     <use style="fill:#ff0000;stroke:#ff0000;" x="165.939775" xlink:href="#ma924bf3227" y="293.692561"/>
     <use style="fill:#ff0000;stroke:#ff0000;" x="169.95236" xlink:href="#ma924bf3227" y="293.143955"/>
     <use style="fill:#ff0000;stroke:#ff0000;" x="173.964944" xlink:href="#ma924bf3227" y="293.237785"/>
     <use style="fill:#ff0000;stroke:#ff0000;" x="177.977528" xlink:href="#ma924bf3227" y="294.545636"/>
     <use style="fill:#ff0000;stroke:#ff0000;" x="181.990112" xlink:href="#ma924bf3227" y="294.594943"/>
     <use style="fill:#ff0000;stroke:#ff0000;" x="186.002697" xlink:href="#ma924bf3227" y="295.19408"/>
     <use style="fill:#ff0000;stroke:#ff0000;" x="190.015281" xlink:href="#ma924bf3227" y="295.45086"/>
     <use style="fill:#ff0000;stroke:#ff0000;" x="194.027865" xlink:href="#ma924bf3227" y="295.488"/>
     <use style="fill:#ff0000;stroke:#ff0000;" x="198.040449" xlink:href="#ma924bf3227" y="293.732315"/>
     <use style="fill:#ff0000;stroke:#ff0000;" x="202.053034" xlink:href="#ma924bf3227" y="294.58481"/>
     <use style="fill:#ff0000;stroke:#ff0000;" x="206.065618" xlink:href="#ma924bf3227" y="290.595407"/>
     <use style="fill:#ff0000;stroke:#ff0000;" x="210.078202" xlink:href="#ma924bf3227" y="294.168871"/>
     <use style="fill:#ff0000;stroke:#ff0000;" x="214.090787" xlink:href="#ma924bf3227" y="294.090232"/>
     <use style="fill:#ff0000;stroke:#ff0000;" x="218.103371" xlink:href="#ma924bf3227" y="294.381692"/>
     <use style="fill:#ff0000;stroke:#ff0000;" x="222.115955" xlink:href="#ma924bf3227" y="293.544413"/>
     <use style="fill:#ff0000;stroke:#ff0000;" x="226.128539" xlink:href="#ma924bf3227" y="293.952775"/>
     <use style="fill:#ff0000;stroke:#ff0000;" x="230.141124" xlink:href="#ma924bf3227" y="293.354669"/>
     <use style="fill:#ff0000;stroke:#ff0000;" x="234.153708" xlink:href="#ma924bf3227" y="293.859092"/>
     <use style="fill:#ff0000;stroke:#ff0000;" x="238.166292" xlink:href="#ma924bf3227" y="293.819338"/>
     <use style="fill:#ff0000;stroke:#ff0000;" x="242.178876" xlink:href="#ma924bf3227" y="294.831588"/>
     <use style="fill:#ff0000;stroke:#ff0000;" x="246.191461" xlink:href="#ma924bf3227" y="294.353685"/>
     <use style="fill:#ff0000;stroke:#ff0000;" x="250.204045" xlink:href="#ma924bf3227" y="293.846257"/>
     <use style="fill:#ff0000;stroke:#ff0000;" x="254.216629" xlink:href="#ma924bf3227" y="293.062996"/>
     <use style="fill:#ff0000;stroke:#ff0000;" x="258.229213" xlink:href="#ma924bf3227" y="294.210264"/>
     <use style="fill:#ff0000;stroke:#ff0000;" x="262.241798" xlink:href="#ma924bf3227" y="292.536481"/>
     <use style="fill:#ff0000;stroke:#ff0000;" x="266.254382" xlink:href="#ma924bf3227" y="292.820138"/>
     <use style="fill:#ff0000;stroke:#ff0000;" x="270.266966" xlink:href="#ma924bf3227" y="292.900635"/>
     <use style="fill:#ff0000;stroke:#ff0000;" x="274.279551" xlink:href="#ma924bf3227" y="291.826373"/>
     <use style="fill:#ff0000;stroke:#ff0000;" x="278.292135" xlink:href="#ma924bf3227" y="292.014887"/>
     <use style="fill:#ff0000;stroke:#ff0000;" x="282.304719" xlink:href="#ma924bf3227" y="291.61352"/>
     <use style="fill:#ff0000;stroke:#ff0000;" x="286.317303" xlink:href="#ma924bf3227" y="291.102243"/>
     <use style="fill:#ff0000;stroke:#ff0000;" x="290.329888" xlink:href="#ma924bf3227" y="291.961325"/>
     <use style="fill:#ff0000;stroke:#ff0000;" x="294.342472" xlink:href="#ma924bf3227" y="292.029607"/>
     <use style="fill:#ff0000;stroke:#ff0000;" x="298.355056" xlink:href="#ma924bf3227" y="291.535224"/>
     <use style="fill:#ff0000;stroke:#ff0000;" x="302.36764" xlink:href="#ma924bf3227" y="291.859986"/>
     <use style="fill:#ff0000;stroke:#ff0000;" x="306.380225" xlink:href="#ma924bf3227" y="292.377262"/>
     <use style="fill:#ff0000;stroke:#ff0000;" x="310.392809" xlink:href="#ma924bf3227" y="292.459579"/>
     <use style="fill:#ff0000;stroke:#ff0000;" x="314.405393" xlink:href="#ma924bf3227" y="291.978651"/>
     <use style="fill:#ff0000;stroke:#ff0000;" x="318.417978" xlink:href="#ma924bf3227" y="291.743541"/>
     <use style="fill:#ff0000;stroke:#ff0000;" x="322.430562" xlink:href="#ma924bf3227" y="292.323343"/>
     <use style="fill:#ff0000;stroke:#ff0000;" x="326.443146" xlink:href="#ma924bf3227" y="291.295653"/>
     <use style="fill:#ff0000;stroke:#ff0000;" x="330.45573" xlink:href="#ma924bf3227" y="289.869298"/>
     <use style="fill:#ff0000;stroke:#ff0000;" x="334.468315" xlink:href="#ma924bf3227" y="290.819966"/>
     <use style="fill:#ff0000;stroke:#ff0000;" x="338.480899" xlink:href="#ma924bf3227" y="290.355649"/>
     <use style="fill:#ff0000;stroke:#ff0000;" x="342.493483" xlink:href="#ma924bf3227" y="290.260347"/>
     <use style="fill:#ff0000;stroke:#ff0000;" x="346.506067" xlink:href="#ma924bf3227" y="287.804687"/>
     <use style="fill:#ff0000;stroke:#ff0000;" x="350.518652" xlink:href="#ma924bf3227" y="288.571037"/>
     <use style="fill:#ff0000;stroke:#ff0000;" x="354.531236" xlink:href="#ma924bf3227" y="287.301774"/>
     <use style="fill:#ff0000;stroke:#ff0000;" x="358.54382" xlink:href="#ma924bf3227" y="289.005539"/>
     <use style="fill:#ff0000;stroke:#ff0000;" x="362.556404" xlink:href="#ma924bf3227" y="289.392506"/>
     <use style="fill:#ff0000;stroke:#ff0000;" x="366.568989" xlink:href="#ma924bf3227" y="288.955455"/>
     <use style="fill:#ff0000;stroke:#ff0000;" x="370.581573" xlink:href="#ma924bf3227" y="290.819043"/>
     <use style="fill:#ff0000;stroke:#ff0000;" x="374.594157" xlink:href="#ma924bf3227" y="290.334332"/>
     <use style="fill:#ff0000;stroke:#ff0000;" x="378.606742" xlink:href="#ma924bf3227" y="289.717873"/>
     <use style="fill:#ff0000;stroke:#ff0000;" x="382.619326" xlink:href="#ma924bf3227" y="289.657656"/>
     <use style="fill:#ff0000;stroke:#ff0000;" x="386.63191" xlink:href="#ma924bf3227" y="289.069073"/>
     <use style="fill:#ff0000;stroke:#ff0000;" x="390.644494" xlink:href="#ma924bf3227" y="289.604788"/>
     <use style="fill:#ff0000;stroke:#ff0000;" x="394.657079" xlink:href="#ma924bf3227" y="287.149858"/>
     <use style="fill:#ff0000;stroke:#ff0000;" x="398.669663" xlink:href="#ma924bf3227" y="286.992776"/>
     <use style="fill:#ff0000;stroke:#ff0000;" x="402.682247" xlink:href="#ma924bf3227" y="286.68741"/>
     <use style="fill:#ff0000;stroke:#ff0000;" x="406.694831" xlink:href="#ma924bf3227" y="286.037975"/>
     <use style="fill:#ff0000;stroke:#ff0000;" x="410.707416" xlink:href="#ma924bf3227" y="286.991674"/>
    </g>
   </g>
   <g id="line2d_63">
    <path clip-path="url(#p1891fce95f)" d="M 61.612584 87.441155 
L 65.625169 196.467629 
L 69.637753 233.950821 
L 73.650337 252.334267 
L 77.662921 261.056302 
L 81.675506 267.380288 
L 85.68809 273.099239 
L 89.700674 276.76126 
L 93.713258 280.427616 
L 97.725843 282.285321 
L 101.738427 284.631681 
L 105.751011 285.32828 
L 109.763596 285.715132 
L 113.77618 286.922335 
L 117.788764 287.11983 
L 121.801348 289.441846 
L 125.813933 289.205921 
L 129.826517 289.326746 
L 133.839101 288.048572 
L 137.851685 289.126291 
L 141.86427 289.512777 
L 145.876854 289.684445 
L 149.889438 289.007697 
L 153.902022 288.802144 
L 157.914607 289.152771 
L 161.927191 287.905983 
L 165.939775 288.269549 
L 169.95236 288.810025 
L 173.964944 289.254347 
L 177.977528 289.780838 
L 181.990112 290.415075 
L 186.002697 290.351673 
L 190.015281 291.596643 
L 194.027865 289.704506 
L 198.040449 288.364433 
L 202.053034 289.293002 
L 206.065618 286.928423 
L 210.078202 289.758337 
L 214.090787 288.410137 
L 218.103371 288.507178 
L 222.115955 287.127851 
L 226.128539 288.621915 
L 230.141124 288.429703 
L 234.153708 288.726884 
L 238.166292 288.299118 
L 242.178876 290.715519 
L 246.191461 289.38691 
L 250.204045 289.224993 
L 254.216629 287.276524 
L 258.229213 289.897679 
L 262.241798 286.844998 
L 266.254382 288.556609 
L 270.266966 288.071378 
L 274.279551 288.092486 
L 278.292135 286.860048 
L 282.304719 286.830603 
L 286.317303 285.818557 
L 290.329888 285.627611 
L 294.342472 286.336716 
L 298.355056 286.790571 
L 302.36764 287.845181 
L 306.380225 286.73478 
L 310.392809 287.57739 
L 314.405393 286.828239 
L 318.417978 286.484812 
L 322.430562 286.554237 
L 326.443146 285.277492 
L 330.45573 285.281501 
L 334.468315 285.362144 
L 338.480899 284.278318 
L 342.493483 284.856535 
L 346.506067 283.909461 
L 350.518652 282.878522 
L 354.531236 282.023553 
L 358.54382 283.660626 
L 362.556404 284.928163 
L 366.568989 284.673573 
L 370.581573 285.541583 
L 374.594157 285.025772 
L 378.606742 284.543942 
L 382.619326 284.866516 
L 386.63191 284.713056 
L 390.644494 284.003694 
L 394.657079 281.674166 
L 398.669663 281.613429 
L 402.682247 281.041391 
L 406.694831 281.739834 
L 410.707416 282.016336 
" style="fill:none;stroke:#008000;stroke-dasharray:1.5,2.475;stroke-dashoffset:0;stroke-width:1.5;"/>
    <defs>
     <path d="M 0 1.5 
C 0.397805 1.5 0.77937 1.341951 1.06066 1.06066 
C 1.341951 0.77937 1.5 0.397805 1.5 0 
C 1.5 -0.397805 1.341951 -0.77937 1.06066 -1.06066 
C 0.77937 -1.341951 0.397805 -1.5 0 -1.5 
C -0.397805 -1.5 -0.77937 -1.341951 -1.06066 -1.06066 
C -1.341951 -0.77937 -1.5 -0.397805 -1.5 0 
C -1.5 0.397805 -1.341951 0.77937 -1.06066 1.06066 
C -0.77937 1.341951 -0.397805 1.5 0 1.5 
z
" id="m01a20c05b2" style="stroke:#008000;"/>
    </defs>
    <g clip-path="url(#p1891fce95f)">
     <use style="fill:#008000;stroke:#008000;" x="61.612584" xlink:href="#m01a20c05b2" y="87.441155"/>
     <use style="fill:#008000;stroke:#008000;" x="65.625169" xlink:href="#m01a20c05b2" y="196.467629"/>
     <use style="fill:#008000;stroke:#008000;" x="69.637753" xlink:href="#m01a20c05b2" y="233.950821"/>
     <use style="fill:#008000;stroke:#008000;" x="73.650337" xlink:href="#m01a20c05b2" y="252.334267"/>
     <use style="fill:#008000;stroke:#008000;" x="77.662921" xlink:href="#m01a20c05b2" y="261.056302"/>
     <use style="fill:#008000;stroke:#008000;" x="81.675506" xlink:href="#m01a20c05b2" y="267.380288"/>
     <use style="fill:#008000;stroke:#008000;" x="85.68809" xlink:href="#m01a20c05b2" y="273.099239"/>
     <use style="fill:#008000;stroke:#008000;" x="89.700674" xlink:href="#m01a20c05b2" y="276.76126"/>
     <use style="fill:#008000;stroke:#008000;" x="93.713258" xlink:href="#m01a20c05b2" y="280.427616"/>
     <use style="fill:#008000;stroke:#008000;" x="97.725843" xlink:href="#m01a20c05b2" y="282.285321"/>
     <use style="fill:#008000;stroke:#008000;" x="101.738427" xlink:href="#m01a20c05b2" y="284.631681"/>
     <use style="fill:#008000;stroke:#008000;" x="105.751011" xlink:href="#m01a20c05b2" y="285.32828"/>
     <use style="fill:#008000;stroke:#008000;" x="109.763596" xlink:href="#m01a20c05b2" y="285.715132"/>
     <use style="fill:#008000;stroke:#008000;" x="113.77618" xlink:href="#m01a20c05b2" y="286.922335"/>
     <use style="fill:#008000;stroke:#008000;" x="117.788764" xlink:href="#m01a20c05b2" y="287.11983"/>
     <use style="fill:#008000;stroke:#008000;" x="121.801348" xlink:href="#m01a20c05b2" y="289.441846"/>
     <use style="fill:#008000;stroke:#008000;" x="125.813933" xlink:href="#m01a20c05b2" y="289.205921"/>
     <use style="fill:#008000;stroke:#008000;" x="129.826517" xlink:href="#m01a20c05b2" y="289.326746"/>
     <use style="fill:#008000;stroke:#008000;" x="133.839101" xlink:href="#m01a20c05b2" y="288.048572"/>
     <use style="fill:#008000;stroke:#008000;" x="137.851685" xlink:href="#m01a20c05b2" y="289.126291"/>
     <use style="fill:#008000;stroke:#008000;" x="141.86427" xlink:href="#m01a20c05b2" y="289.512777"/>
     <use style="fill:#008000;stroke:#008000;" x="145.876854" xlink:href="#m01a20c05b2" y="289.684445"/>
     <use style="fill:#008000;stroke:#008000;" x="149.889438" xlink:href="#m01a20c05b2" y="289.007697"/>
     <use style="fill:#008000;stroke:#008000;" x="153.902022" xlink:href="#m01a20c05b2" y="288.802144"/>
     <use style="fill:#008000;stroke:#008000;" x="157.914607" xlink:href="#m01a20c05b2" y="289.152771"/>
     <use style="fill:#008000;stroke:#008000;" x="161.927191" xlink:href="#m01a20c05b2" y="287.905983"/>
     <use style="fill:#008000;stroke:#008000;" x="165.939775" xlink:href="#m01a20c05b2" y="288.269549"/>
     <use style="fill:#008000;stroke:#008000;" x="169.95236" xlink:href="#m01a20c05b2" y="288.810025"/>
     <use style="fill:#008000;stroke:#008000;" x="173.964944" xlink:href="#m01a20c05b2" y="289.254347"/>
     <use style="fill:#008000;stroke:#008000;" x="177.977528" xlink:href="#m01a20c05b2" y="289.780838"/>
     <use style="fill:#008000;stroke:#008000;" x="181.990112" xlink:href="#m01a20c05b2" y="290.415075"/>
     <use style="fill:#008000;stroke:#008000;" x="186.002697" xlink:href="#m01a20c05b2" y="290.351673"/>
     <use style="fill:#008000;stroke:#008000;" x="190.015281" xlink:href="#m01a20c05b2" y="291.596643"/>
     <use style="fill:#008000;stroke:#008000;" x="194.027865" xlink:href="#m01a20c05b2" y="289.704506"/>
     <use style="fill:#008000;stroke:#008000;" x="198.040449" xlink:href="#m01a20c05b2" y="288.364433"/>
     <use style="fill:#008000;stroke:#008000;" x="202.053034" xlink:href="#m01a20c05b2" y="289.293002"/>
     <use style="fill:#008000;stroke:#008000;" x="206.065618" xlink:href="#m01a20c05b2" y="286.928423"/>
     <use style="fill:#008000;stroke:#008000;" x="210.078202" xlink:href="#m01a20c05b2" y="289.758337"/>
     <use style="fill:#008000;stroke:#008000;" x="214.090787" xlink:href="#m01a20c05b2" y="288.410137"/>
     <use style="fill:#008000;stroke:#008000;" x="218.103371" xlink:href="#m01a20c05b2" y="288.507178"/>
     <use style="fill:#008000;stroke:#008000;" x="222.115955" xlink:href="#m01a20c05b2" y="287.127851"/>
     <use style="fill:#008000;stroke:#008000;" x="226.128539" xlink:href="#m01a20c05b2" y="288.621915"/>
     <use style="fill:#008000;stroke:#008000;" x="230.141124" xlink:href="#m01a20c05b2" y="288.429703"/>
     <use style="fill:#008000;stroke:#008000;" x="234.153708" xlink:href="#m01a20c05b2" y="288.726884"/>
     <use style="fill:#008000;stroke:#008000;" x="238.166292" xlink:href="#m01a20c05b2" y="288.299118"/>
     <use style="fill:#008000;stroke:#008000;" x="242.178876" xlink:href="#m01a20c05b2" y="290.715519"/>
     <use style="fill:#008000;stroke:#008000;" x="246.191461" xlink:href="#m01a20c05b2" y="289.38691"/>
     <use style="fill:#008000;stroke:#008000;" x="250.204045" xlink:href="#m01a20c05b2" y="289.224993"/>
     <use style="fill:#008000;stroke:#008000;" x="254.216629" xlink:href="#m01a20c05b2" y="287.276524"/>
     <use style="fill:#008000;stroke:#008000;" x="258.229213" xlink:href="#m01a20c05b2" y="289.897679"/>
     <use style="fill:#008000;stroke:#008000;" x="262.241798" xlink:href="#m01a20c05b2" y="286.844998"/>
     <use style="fill:#008000;stroke:#008000;" x="266.254382" xlink:href="#m01a20c05b2" y="288.556609"/>
     <use style="fill:#008000;stroke:#008000;" x="270.266966" xlink:href="#m01a20c05b2" y="288.071378"/>
     <use style="fill:#008000;stroke:#008000;" x="274.279551" xlink:href="#m01a20c05b2" y="288.092486"/>
     <use style="fill:#008000;stroke:#008000;" x="278.292135" xlink:href="#m01a20c05b2" y="286.860048"/>
     <use style="fill:#008000;stroke:#008000;" x="282.304719" xlink:href="#m01a20c05b2" y="286.830603"/>
     <use style="fill:#008000;stroke:#008000;" x="286.317303" xlink:href="#m01a20c05b2" y="285.818557"/>
     <use style="fill:#008000;stroke:#008000;" x="290.329888" xlink:href="#m01a20c05b2" y="285.627611"/>
     <use style="fill:#008000;stroke:#008000;" x="294.342472" xlink:href="#m01a20c05b2" y="286.336716"/>
     <use style="fill:#008000;stroke:#008000;" x="298.355056" xlink:href="#m01a20c05b2" y="286.790571"/>
     <use style="fill:#008000;stroke:#008000;" x="302.36764" xlink:href="#m01a20c05b2" y="287.845181"/>
     <use style="fill:#008000;stroke:#008000;" x="306.380225" xlink:href="#m01a20c05b2" y="286.73478"/>
     <use style="fill:#008000;stroke:#008000;" x="310.392809" xlink:href="#m01a20c05b2" y="287.57739"/>
     <use style="fill:#008000;stroke:#008000;" x="314.405393" xlink:href="#m01a20c05b2" y="286.828239"/>
     <use style="fill:#008000;stroke:#008000;" x="318.417978" xlink:href="#m01a20c05b2" y="286.484812"/>
     <use style="fill:#008000;stroke:#008000;" x="322.430562" xlink:href="#m01a20c05b2" y="286.554237"/>
     <use style="fill:#008000;stroke:#008000;" x="326.443146" xlink:href="#m01a20c05b2" y="285.277492"/>
     <use style="fill:#008000;stroke:#008000;" x="330.45573" xlink:href="#m01a20c05b2" y="285.281501"/>
     <use style="fill:#008000;stroke:#008000;" x="334.468315" xlink:href="#m01a20c05b2" y="285.362144"/>
     <use style="fill:#008000;stroke:#008000;" x="338.480899" xlink:href="#m01a20c05b2" y="284.278318"/>
     <use style="fill:#008000;stroke:#008000;" x="342.493483" xlink:href="#m01a20c05b2" y="284.856535"/>
     <use style="fill:#008000;stroke:#008000;" x="346.506067" xlink:href="#m01a20c05b2" y="283.909461"/>
     <use style="fill:#008000;stroke:#008000;" x="350.518652" xlink:href="#m01a20c05b2" y="282.878522"/>
     <use style="fill:#008000;stroke:#008000;" x="354.531236" xlink:href="#m01a20c05b2" y="282.023553"/>
     <use style="fill:#008000;stroke:#008000;" x="358.54382" xlink:href="#m01a20c05b2" y="283.660626"/>
     <use style="fill:#008000;stroke:#008000;" x="362.556404" xlink:href="#m01a20c05b2" y="284.928163"/>
     <use style="fill:#008000;stroke:#008000;" x="366.568989" xlink:href="#m01a20c05b2" y="284.673573"/>
     <use style="fill:#008000;stroke:#008000;" x="370.581573" xlink:href="#m01a20c05b2" y="285.541583"/>
     <use style="fill:#008000;stroke:#008000;" x="374.594157" xlink:href="#m01a20c05b2" y="285.025772"/>
     <use style="fill:#008000;stroke:#008000;" x="378.606742" xlink:href="#m01a20c05b2" y="284.543942"/>
     <use style="fill:#008000;stroke:#008000;" x="382.619326" xlink:href="#m01a20c05b2" y="284.866516"/>
     <use style="fill:#008000;stroke:#008000;" x="386.63191" xlink:href="#m01a20c05b2" y="284.713056"/>
     <use style="fill:#008000;stroke:#008000;" x="390.644494" xlink:href="#m01a20c05b2" y="284.003694"/>
     <use style="fill:#008000;stroke:#008000;" x="394.657079" xlink:href="#m01a20c05b2" y="281.674166"/>
     <use style="fill:#008000;stroke:#008000;" x="398.669663" xlink:href="#m01a20c05b2" y="281.613429"/>
     <use style="fill:#008000;stroke:#008000;" x="402.682247" xlink:href="#m01a20c05b2" y="281.041391"/>
     <use style="fill:#008000;stroke:#008000;" x="406.694831" xlink:href="#m01a20c05b2" y="281.739834"/>
     <use style="fill:#008000;stroke:#008000;" x="410.707416" xlink:href="#m01a20c05b2" y="282.016336"/>
    </g>
   </g>
   <g id="patch_3">
    <path d="M 57.6 307.584 
L 57.6 41.472 
" style="fill:none;stroke:#000000;stroke-linecap:square;stroke-linejoin:miter;stroke-width:0.8;"/>
   </g>
   <g id="patch_4">
    <path d="M 414.72 307.584 
L 414.72 41.472 
" style="fill:none;stroke:#000000;stroke-linecap:square;stroke-linejoin:miter;stroke-width:0.8;"/>
   </g>
   <g id="patch_5">
    <path d="M 57.6 307.584 
L 414.72 307.584 
" style="fill:none;stroke:#000000;stroke-linecap:square;stroke-linejoin:miter;stroke-width:0.8;"/>
   </g>
   <g id="patch_6">
    <path d="M 57.6 41.472 
L 414.72 41.472 
" style="fill:none;stroke:#000000;stroke-linecap:square;stroke-linejoin:miter;stroke-width:0.8;"/>
   </g>
   <g id="text_33">
    <!-- TBB sort 2PV on circuit5M -->
    <defs>
     <path d="M -0.296875 72.90625 
L 61.375 72.90625 
L 61.375 64.59375 
L 35.5 64.59375 
L 35.5 0 
L 25.59375 0 
L 25.59375 64.59375 
L -0.296875 64.59375 
z
" id="DejaVuSans-84"/>
     <path d="M 19.671875 34.8125 
L 19.671875 8.109375 
L 35.5 8.109375 
Q 43.453125 8.109375 47.28125 11.40625 
Q 51.125 14.703125 51.125 21.484375 
Q 51.125 28.328125 47.28125 31.5625 
Q 43.453125 34.8125 35.5 34.8125 
z
M 19.671875 64.796875 
L 19.671875 42.828125 
L 34.28125 42.828125 
Q 41.5 42.828125 45.03125 45.53125 
Q 48.578125 48.25 48.578125 53.8125 
Q 48.578125 59.328125 45.03125 62.0625 
Q 41.5 64.796875 34.28125 64.796875 
z
M 9.8125 72.90625 
L 35.015625 72.90625 
Q 46.296875 72.90625 52.390625 68.21875 
Q 58.5 63.53125 58.5 54.890625 
Q 58.5 48.1875 55.375 44.234375 
Q 52.25 40.28125 46.1875 39.3125 
Q 53.46875 37.75 57.5 32.78125 
Q 61.53125 27.828125 61.53125 20.40625 
Q 61.53125 10.640625 54.890625 5.3125 
Q 48.25 0 35.984375 0 
L 9.8125 0 
z
" id="DejaVuSans-66"/>
     <path d="M 19.671875 64.796875 
L 19.671875 37.40625 
L 32.078125 37.40625 
Q 38.96875 37.40625 42.71875 40.96875 
Q 46.484375 44.53125 46.484375 51.125 
Q 46.484375 57.671875 42.71875 61.234375 
Q 38.96875 64.796875 32.078125 64.796875 
z
M 9.8125 72.90625 
L 32.078125 72.90625 
Q 44.34375 72.90625 50.609375 67.359375 
Q 56.890625 61.8125 56.890625 51.125 
Q 56.890625 40.328125 50.609375 34.8125 
Q 44.34375 29.296875 32.078125 29.296875 
L 19.671875 29.296875 
L 19.671875 0 
L 9.8125 0 
z
" id="DejaVuSans-80"/>
     <path d="M 28.609375 0 
L 0.78125 72.90625 
L 11.078125 72.90625 
L 34.1875 11.53125 
L 57.328125 72.90625 
L 67.578125 72.90625 
L 39.796875 0 
z
" id="DejaVuSans-86"/>
     <path d="M 48.78125 52.59375 
L 48.78125 44.1875 
Q 44.96875 46.296875 41.140625 47.34375 
Q 37.3125 48.390625 33.40625 48.390625 
Q 24.65625 48.390625 19.8125 42.84375 
Q 14.984375 37.3125 14.984375 27.296875 
Q 14.984375 17.28125 19.8125 11.734375 
Q 24.65625 6.203125 33.40625 6.203125 
Q 37.3125 6.203125 41.140625 7.25 
Q 44.96875 8.296875 48.78125 10.40625 
L 48.78125 2.09375 
Q 45.015625 0.34375 40.984375 -0.53125 
Q 36.96875 -1.421875 32.421875 -1.421875 
Q 20.0625 -1.421875 12.78125 6.34375 
Q 5.515625 14.109375 5.515625 27.296875 
Q 5.515625 40.671875 12.859375 48.328125 
Q 20.21875 56 33.015625 56 
Q 37.15625 56 41.109375 55.140625 
Q 45.0625 54.296875 48.78125 52.59375 
z
" id="DejaVuSans-99"/>
     <path d="M 9.8125 72.90625 
L 24.515625 72.90625 
L 43.109375 23.296875 
L 61.8125 72.90625 
L 76.515625 72.90625 
L 76.515625 0 
L 66.890625 0 
L 66.890625 64.015625 
L 48.09375 14.015625 
L 38.1875 14.015625 
L 19.390625 64.015625 
L 19.390625 0 
L 9.8125 0 
z
" id="DejaVuSans-77"/>
    </defs>
    <g transform="translate(158.593125 35.472)scale(0.12 -0.12)">
     <use xlink:href="#DejaVuSans-84"/>
     <use x="61.083984" xlink:href="#DejaVuSans-66"/>
     <use x="129.6875" xlink:href="#DejaVuSans-66"/>
     <use x="198.291016" xlink:href="#DejaVuSans-32"/>
     <use x="230.078125" xlink:href="#DejaVuSans-115"/>
     <use x="282.177734" xlink:href="#DejaVuSans-111"/>
     <use x="343.359375" xlink:href="#DejaVuSans-114"/>
     <use x="384.472656" xlink:href="#DejaVuSans-116"/>
     <use x="423.681641" xlink:href="#DejaVuSans-32"/>
     <use x="455.46875" xlink:href="#DejaVuSans-50"/>
     <use x="519.091797" xlink:href="#DejaVuSans-80"/>
     <use x="579.394531" xlink:href="#DejaVuSans-86"/>
     <use x="647.802734" xlink:href="#DejaVuSans-32"/>
     <use x="679.589844" xlink:href="#DejaVuSans-111"/>
     <use x="740.771484" xlink:href="#DejaVuSans-110"/>
     <use x="804.150391" xlink:href="#DejaVuSans-32"/>
     <use x="835.9375" xlink:href="#DejaVuSans-99"/>
     <use x="890.917969" xlink:href="#DejaVuSans-105"/>
     <use x="918.701172" xlink:href="#DejaVuSans-114"/>
     <use x="957.564453" xlink:href="#DejaVuSans-99"/>
     <use x="1012.544922" xlink:href="#DejaVuSans-117"/>
     <use x="1075.923828" xlink:href="#DejaVuSans-105"/>
     <use x="1103.707031" xlink:href="#DejaVuSans-116"/>
     <use x="1142.916016" xlink:href="#DejaVuSans-53"/>
     <use x="1206.539062" xlink:href="#DejaVuSans-77"/>
    </g>
   </g>
   <g id="legend_1">
    <g id="patch_7">
     <path d="M 313.152813 93.7845 
L 407.72 93.7845 
Q 409.72 93.7845 409.72 91.7845 
L 409.72 48.472 
Q 409.72 46.472 407.72 46.472 
L 313.152813 46.472 
Q 311.152813 46.472 311.152813 48.472 
L 311.152813 91.7845 
Q 311.152813 93.7845 313.152813 93.7845 
z
" style="fill:#ffffff;opacity:0.8;stroke:#cccccc;stroke-linejoin:miter;"/>
    </g>
    <g id="line2d_64">
     <path d="M 315.152813 54.570438 
L 335.152813 54.570438 
" style="fill:none;stroke:#0000ff;stroke-dasharray:1.5,2.475;stroke-dashoffset:0;stroke-width:1.5;"/>
    </g>
    <g id="line2d_65">
     <g>
      <use style="fill:#0000ff;stroke:#0000ff;" x="325.152813" xlink:href="#m7a4a141caa" y="54.570438"/>
     </g>
    </g>
    <g id="text_34">
     <!-- transpose -->
     <defs>
      <path d="M 18.109375 8.203125 
L 18.109375 -20.796875 
L 9.078125 -20.796875 
L 9.078125 54.6875 
L 18.109375 54.6875 
L 18.109375 46.390625 
Q 20.953125 51.265625 25.265625 53.625 
Q 29.59375 56 35.59375 56 
Q 45.5625 56 51.78125 48.09375 
Q 58.015625 40.1875 58.015625 27.296875 
Q 58.015625 14.40625 51.78125 6.484375 
Q 45.5625 -1.421875 35.59375 -1.421875 
Q 29.59375 -1.421875 25.265625 0.953125 
Q 20.953125 3.328125 18.109375 8.203125 
z
M 48.6875 27.296875 
Q 48.6875 37.203125 44.609375 42.84375 
Q 40.53125 48.484375 33.40625 48.484375 
Q 26.265625 48.484375 22.1875 42.84375 
Q 18.109375 37.203125 18.109375 27.296875 
Q 18.109375 17.390625 22.1875 11.75 
Q 26.265625 6.109375 33.40625 6.109375 
Q 40.53125 6.109375 44.609375 11.75 
Q 48.6875 17.390625 48.6875 27.296875 
z
" id="DejaVuSans-112"/>
     </defs>
     <g transform="translate(343.152813 58.070438)scale(0.1 -0.1)">
      <use xlink:href="#DejaVuSans-116"/>
      <use x="39.208984" xlink:href="#DejaVuSans-114"/>
      <use x="80.322266" xlink:href="#DejaVuSans-97"/>
      <use x="141.601562" xlink:href="#DejaVuSans-110"/>
      <use x="204.980469" xlink:href="#DejaVuSans-115"/>
      <use x="257.080078" xlink:href="#DejaVuSans-112"/>
      <use x="320.556641" xlink:href="#DejaVuSans-111"/>
      <use x="381.738281" xlink:href="#DejaVuSans-115"/>
      <use x="433.837891" xlink:href="#DejaVuSans-101"/>
     </g>
    </g>
    <g id="line2d_66">
     <path d="M 315.152813 69.248563 
L 335.152813 69.248563 
" style="fill:none;stroke:#ff0000;stroke-dasharray:1.5,2.475;stroke-dashoffset:0;stroke-width:1.5;"/>
    </g>
    <g id="line2d_67">
     <g>
      <use style="fill:#ff0000;stroke:#ff0000;" x="325.152813" xlink:href="#ma924bf3227" y="69.248563"/>
     </g>
    </g>
    <g id="text_35">
     <!-- transpose_tr -->
     <defs>
      <path d="M 50.984375 -16.609375 
L 50.984375 -23.578125 
L -0.984375 -23.578125 
L -0.984375 -16.609375 
z
" id="DejaVuSans-95"/>
     </defs>
     <g transform="translate(343.152813 72.748563)scale(0.1 -0.1)">
      <use xlink:href="#DejaVuSans-116"/>
      <use x="39.208984" xlink:href="#DejaVuSans-114"/>
      <use x="80.322266" xlink:href="#DejaVuSans-97"/>
      <use x="141.601562" xlink:href="#DejaVuSans-110"/>
      <use x="204.980469" xlink:href="#DejaVuSans-115"/>
      <use x="257.080078" xlink:href="#DejaVuSans-112"/>
      <use x="320.556641" xlink:href="#DejaVuSans-111"/>
      <use x="381.738281" xlink:href="#DejaVuSans-115"/>
      <use x="433.837891" xlink:href="#DejaVuSans-101"/>
      <use x="495.361328" xlink:href="#DejaVuSans-95"/>
      <use x="545.361328" xlink:href="#DejaVuSans-116"/>
      <use x="584.570312" xlink:href="#DejaVuSans-114"/>
     </g>
    </g>
    <g id="line2d_68">
     <path d="M 315.152813 84.204813 
L 335.152813 84.204813 
" style="fill:none;stroke:#008000;stroke-dasharray:1.5,2.475;stroke-dashoffset:0;stroke-width:1.5;"/>
    </g>
    <g id="line2d_69">
     <g>
      <use style="fill:#008000;stroke:#008000;" x="325.152813" xlink:href="#m01a20c05b2" y="84.204813"/>
     </g>
    </g>
    <g id="text_36">
     <!-- mean -->
     <defs>
      <path d="M 52 44.1875 
Q 55.375 50.25 60.0625 53.125 
Q 64.75 56 71.09375 56 
Q 79.640625 56 84.28125 50.015625 
Q 88.921875 44.046875 88.921875 33.015625 
L 88.921875 0 
L 79.890625 0 
L 79.890625 32.71875 
Q 79.890625 40.578125 77.09375 44.375 
Q 74.3125 48.1875 68.609375 48.1875 
Q 61.625 48.1875 57.5625 43.546875 
Q 53.515625 38.921875 53.515625 30.90625 
L 53.515625 0 
L 44.484375 0 
L 44.484375 32.71875 
Q 44.484375 40.625 41.703125 44.40625 
Q 38.921875 48.1875 33.109375 48.1875 
Q 26.21875 48.1875 22.15625 43.53125 
Q 18.109375 38.875 18.109375 30.90625 
L 18.109375 0 
L 9.078125 0 
L 9.078125 54.6875 
L 18.109375 54.6875 
L 18.109375 46.1875 
Q 21.1875 51.21875 25.484375 53.609375 
Q 29.78125 56 35.6875 56 
Q 41.65625 56 45.828125 52.96875 
Q 50 49.953125 52 44.1875 
z
" id="DejaVuSans-109"/>
     </defs>
     <g transform="translate(343.152813 87.704813)scale(0.1 -0.1)">
      <use xlink:href="#DejaVuSans-109"/>
      <use x="97.412109" xlink:href="#DejaVuSans-101"/>
      <use x="158.935547" xlink:href="#DejaVuSans-97"/>
      <use x="220.214844" xlink:href="#DejaVuSans-110"/>
     </g>
    </g>
   </g>
  </g>
 </g>
 <defs>
  <clipPath id="p1891fce95f">
   <rect height="266.112" width="357.12" x="57.6" y="41.472"/>
  </clipPath>
 </defs>
</svg>
