<?xml version="1.0" encoding="utf-8" standalone="no"?>
<!DOCTYPE svg PUBLIC "-//W3C//DTD SVG 1.1//EN"
  "http://www.w3.org/Graphics/SVG/1.1/DTD/svg11.dtd">
<!-- Created with matplotlib (https://matplotlib.org/) -->
<svg height="345.6pt" version="1.1" viewBox="0 0 460.8 345.6" width="460.8pt" xmlns="http://www.w3.org/2000/svg" xmlns:xlink="http://www.w3.org/1999/xlink">
 <defs>
  <style type="text/css">
*{stroke-linecap:butt;stroke-linejoin:round;}
  </style>
 </defs>
 <g id="figure_1">
  <g id="patch_1">
   <path d="M 0 345.6 
L 460.8 345.6 
L 460.8 0 
L 0 0 
z
" style="fill:#ffffff;"/>
  </g>
  <g id="axes_1">
   <g id="patch_2">
    <path d="M 57.6 307.584 
L 414.72 307.584 
L 414.72 41.472 
L 57.6 41.472 
z
" style="fill:#ffffff;"/>
   </g>
   <g id="matplotlib.axis_1">
    <g id="xtick_1">
     <g id="line2d_1">
      <path clip-path="url(#pc670d91da2)" d="M 61.612584 307.584 
L 61.612584 41.472 
" style="fill:none;stroke:#b0b0b0;stroke-dasharray:5.12,1.28,0.8,1.28;stroke-dashoffset:0;stroke-width:0.8;"/>
     </g>
     <g id="line2d_2">
      <defs>
       <path d="M 0 0 
L 0 3.5 
" id="me3b22ea352" style="stroke:#000000;stroke-width:0.8;"/>
      </defs>
      <g>
       <use style="stroke:#000000;stroke-width:0.8;" x="61.612584" xlink:href="#me3b22ea352" y="307.584"/>
      </g>
     </g>
     <g id="text_1">
      <!-- 1 -->
      <defs>
       <path d="M 12.40625 8.296875 
L 28.515625 8.296875 
L 28.515625 63.921875 
L 10.984375 60.40625 
L 10.984375 69.390625 
L 28.421875 72.90625 
L 38.28125 72.90625 
L 38.28125 8.296875 
L 54.390625 8.296875 
L 54.390625 0 
L 12.40625 0 
z
" id="DejaVuSans-49"/>
      </defs>
      <g transform="translate(58.431334 322.182437)scale(0.1 -0.1)">
       <use xlink:href="#DejaVuSans-49"/>
      </g>
     </g>
    </g>
    <g id="xtick_2">
     <g id="line2d_3">
      <path clip-path="url(#pc670d91da2)" d="M 73.650337 307.584 
L 73.650337 41.472 
" style="fill:none;stroke:#b0b0b0;stroke-dasharray:5.12,1.28,0.8,1.28;stroke-dashoffset:0;stroke-width:0.8;"/>
     </g>
     <g id="line2d_4">
      <g>
       <use style="stroke:#000000;stroke-width:0.8;" x="73.650337" xlink:href="#me3b22ea352" y="307.584"/>
      </g>
     </g>
     <g id="text_2">
      <!-- 4 -->
      <defs>
       <path d="M 37.796875 64.3125 
L 12.890625 25.390625 
L 37.796875 25.390625 
z
M 35.203125 72.90625 
L 47.609375 72.90625 
L 47.609375 25.390625 
L 58.015625 25.390625 
L 58.015625 17.1875 
L 47.609375 17.1875 
L 47.609375 0 
L 37.796875 0 
L 37.796875 17.1875 
L 4.890625 17.1875 
L 4.890625 26.703125 
z
" id="DejaVuSans-52"/>
      </defs>
      <g transform="translate(70.469087 322.182437)scale(0.1 -0.1)">
       <use xlink:href="#DejaVuSans-52"/>
      </g>
     </g>
    </g>
    <g id="xtick_3">
     <g id="line2d_5">
      <path clip-path="url(#pc670d91da2)" d="M 89.700674 307.584 
L 89.700674 41.472 
" style="fill:none;stroke:#b0b0b0;stroke-dasharray:5.12,1.28,0.8,1.28;stroke-dashoffset:0;stroke-width:0.8;"/>
     </g>
     <g id="line2d_6">
      <g>
       <use style="stroke:#000000;stroke-width:0.8;" x="89.700674" xlink:href="#me3b22ea352" y="307.584"/>
      </g>
     </g>
     <g id="text_3">
      <!-- 8 -->
      <defs>
       <path d="M 31.78125 34.625 
Q 24.75 34.625 20.71875 30.859375 
Q 16.703125 27.09375 16.703125 20.515625 
Q 16.703125 13.921875 20.71875 10.15625 
Q 24.75 6.390625 31.78125 6.390625 
Q 38.8125 6.390625 42.859375 10.171875 
Q 46.921875 13.96875 46.921875 20.515625 
Q 46.921875 27.09375 42.890625 30.859375 
Q 38.875 34.625 31.78125 34.625 
z
M 21.921875 38.8125 
Q 15.578125 40.375 12.03125 44.71875 
Q 8.5 49.078125 8.5 55.328125 
Q 8.5 64.0625 14.71875 69.140625 
Q 20.953125 74.21875 31.78125 74.21875 
Q 42.671875 74.21875 48.875 69.140625 
Q 55.078125 64.0625 55.078125 55.328125 
Q 55.078125 49.078125 51.53125 44.71875 
Q 48 40.375 41.703125 38.8125 
Q 48.828125 37.15625 52.796875 32.3125 
Q 56.78125 27.484375 56.78125 20.515625 
Q 56.78125 9.90625 50.3125 4.234375 
Q 43.84375 -1.421875 31.78125 -1.421875 
Q 19.734375 -1.421875 13.25 4.234375 
Q 6.78125 9.90625 6.78125 20.515625 
Q 6.78125 27.484375 10.78125 32.3125 
Q 14.796875 37.15625 21.921875 38.8125 
z
M 18.3125 54.390625 
Q 18.3125 48.734375 21.84375 45.5625 
Q 25.390625 42.390625 31.78125 42.390625 
Q 38.140625 42.390625 41.71875 45.5625 
Q 45.3125 48.734375 45.3125 54.390625 
Q 45.3125 60.0625 41.71875 63.234375 
Q 38.140625 66.40625 31.78125 66.40625 
Q 25.390625 66.40625 21.84375 63.234375 
Q 18.3125 60.0625 18.3125 54.390625 
z
" id="DejaVuSans-56"/>
      </defs>
      <g transform="translate(86.519424 322.182437)scale(0.1 -0.1)">
       <use xlink:href="#DejaVuSans-56"/>
      </g>
     </g>
    </g>
    <g id="xtick_4">
     <g id="line2d_7">
      <path clip-path="url(#pc670d91da2)" d="M 105.751011 307.584 
L 105.751011 41.472 
" style="fill:none;stroke:#b0b0b0;stroke-dasharray:5.12,1.28,0.8,1.28;stroke-dashoffset:0;stroke-width:0.8;"/>
     </g>
     <g id="line2d_8">
      <g>
       <use style="stroke:#000000;stroke-width:0.8;" x="105.751011" xlink:href="#me3b22ea352" y="307.584"/>
      </g>
     </g>
     <g id="text_4">
      <!-- 12 -->
      <defs>
       <path d="M 19.1875 8.296875 
L 53.609375 8.296875 
L 53.609375 0 
L 7.328125 0 
L 7.328125 8.296875 
Q 12.9375 14.109375 22.625 23.890625 
Q 32.328125 33.6875 34.8125 36.53125 
Q 39.546875 41.84375 41.421875 45.53125 
Q 43.3125 49.21875 43.3125 52.78125 
Q 43.3125 58.59375 39.234375 62.25 
Q 35.15625 65.921875 28.609375 65.921875 
Q 23.96875 65.921875 18.8125 64.3125 
Q 13.671875 62.703125 7.8125 59.421875 
L 7.8125 69.390625 
Q 13.765625 71.78125 18.9375 73 
Q 24.125 74.21875 28.421875 74.21875 
Q 39.75 74.21875 46.484375 68.546875 
Q 53.21875 62.890625 53.21875 53.421875 
Q 53.21875 48.921875 51.53125 44.890625 
Q 49.859375 40.875 45.40625 35.40625 
Q 44.1875 33.984375 37.640625 27.21875 
Q 31.109375 20.453125 19.1875 8.296875 
z
" id="DejaVuSans-50"/>
      </defs>
      <g transform="translate(99.388511 322.182437)scale(0.1 -0.1)">
       <use xlink:href="#DejaVuSans-49"/>
       <use x="63.623047" xlink:href="#DejaVuSans-50"/>
      </g>
     </g>
    </g>
    <g id="xtick_5">
     <g id="line2d_9">
      <path clip-path="url(#pc670d91da2)" d="M 121.801348 307.584 
L 121.801348 41.472 
" style="fill:none;stroke:#b0b0b0;stroke-dasharray:5.12,1.28,0.8,1.28;stroke-dashoffset:0;stroke-width:0.8;"/>
     </g>
     <g id="line2d_10">
      <g>
       <use style="stroke:#000000;stroke-width:0.8;" x="121.801348" xlink:href="#me3b22ea352" y="307.584"/>
      </g>
     </g>
     <g id="text_5">
      <!-- 16 -->
      <defs>
       <path d="M 33.015625 40.375 
Q 26.375 40.375 22.484375 35.828125 
Q 18.609375 31.296875 18.609375 23.390625 
Q 18.609375 15.53125 22.484375 10.953125 
Q 26.375 6.390625 33.015625 6.390625 
Q 39.65625 6.390625 43.53125 10.953125 
Q 47.40625 15.53125 47.40625 23.390625 
Q 47.40625 31.296875 43.53125 35.828125 
Q 39.65625 40.375 33.015625 40.375 
z
M 52.59375 71.296875 
L 52.59375 62.3125 
Q 48.875 64.0625 45.09375 64.984375 
Q 41.3125 65.921875 37.59375 65.921875 
Q 27.828125 65.921875 22.671875 59.328125 
Q 17.53125 52.734375 16.796875 39.40625 
Q 19.671875 43.65625 24.015625 45.921875 
Q 28.375 48.1875 33.59375 48.1875 
Q 44.578125 48.1875 50.953125 41.515625 
Q 57.328125 34.859375 57.328125 23.390625 
Q 57.328125 12.15625 50.6875 5.359375 
Q 44.046875 -1.421875 33.015625 -1.421875 
Q 20.359375 -1.421875 13.671875 8.265625 
Q 6.984375 17.96875 6.984375 36.375 
Q 6.984375 53.65625 15.1875 63.9375 
Q 23.390625 74.21875 37.203125 74.21875 
Q 40.921875 74.21875 44.703125 73.484375 
Q 48.484375 72.75 52.59375 71.296875 
z
" id="DejaVuSans-54"/>
      </defs>
      <g transform="translate(115.438848 322.182437)scale(0.1 -0.1)">
       <use xlink:href="#DejaVuSans-49"/>
       <use x="63.623047" xlink:href="#DejaVuSans-54"/>
      </g>
     </g>
    </g>
    <g id="xtick_6">
     <g id="line2d_11">
      <path clip-path="url(#pc670d91da2)" d="M 137.851685 307.584 
L 137.851685 41.472 
" style="fill:none;stroke:#b0b0b0;stroke-dasharray:5.12,1.28,0.8,1.28;stroke-dashoffset:0;stroke-width:0.8;"/>
     </g>
     <g id="line2d_12">
      <g>
       <use style="stroke:#000000;stroke-width:0.8;" x="137.851685" xlink:href="#me3b22ea352" y="307.584"/>
      </g>
     </g>
     <g id="text_6">
      <!-- 20 -->
      <defs>
       <path d="M 31.78125 66.40625 
Q 24.171875 66.40625 20.328125 58.90625 
Q 16.5 51.421875 16.5 36.375 
Q 16.5 21.390625 20.328125 13.890625 
Q 24.171875 6.390625 31.78125 6.390625 
Q 39.453125 6.390625 43.28125 13.890625 
Q 47.125 21.390625 47.125 36.375 
Q 47.125 51.421875 43.28125 58.90625 
Q 39.453125 66.40625 31.78125 66.40625 
z
M 31.78125 74.21875 
Q 44.046875 74.21875 50.515625 64.515625 
Q 56.984375 54.828125 56.984375 36.375 
Q 56.984375 17.96875 50.515625 8.265625 
Q 44.046875 -1.421875 31.78125 -1.421875 
Q 19.53125 -1.421875 13.0625 8.265625 
Q 6.59375 17.96875 6.59375 36.375 
Q 6.59375 54.828125 13.0625 64.515625 
Q 19.53125 74.21875 31.78125 74.21875 
z
" id="DejaVuSans-48"/>
      </defs>
      <g transform="translate(131.489185 322.182437)scale(0.1 -0.1)">
       <use xlink:href="#DejaVuSans-50"/>
       <use x="63.623047" xlink:href="#DejaVuSans-48"/>
      </g>
     </g>
    </g>
    <g id="xtick_7">
     <g id="line2d_13">
      <path clip-path="url(#pc670d91da2)" d="M 153.902022 307.584 
L 153.902022 41.472 
" style="fill:none;stroke:#b0b0b0;stroke-dasharray:5.12,1.28,0.8,1.28;stroke-dashoffset:0;stroke-width:0.8;"/>
     </g>
     <g id="line2d_14">
      <g>
       <use style="stroke:#000000;stroke-width:0.8;" x="153.902022" xlink:href="#me3b22ea352" y="307.584"/>
      </g>
     </g>
     <g id="text_7">
      <!-- 24 -->
      <g transform="translate(147.539522 322.182437)scale(0.1 -0.1)">
       <use xlink:href="#DejaVuSans-50"/>
       <use x="63.623047" xlink:href="#DejaVuSans-52"/>
      </g>
     </g>
    </g>
    <g id="xtick_8">
     <g id="line2d_15">
      <path clip-path="url(#pc670d91da2)" d="M 169.95236 307.584 
L 169.95236 41.472 
" style="fill:none;stroke:#b0b0b0;stroke-dasharray:5.12,1.28,0.8,1.28;stroke-dashoffset:0;stroke-width:0.8;"/>
     </g>
     <g id="line2d_16">
      <g>
       <use style="stroke:#000000;stroke-width:0.8;" x="169.95236" xlink:href="#me3b22ea352" y="307.584"/>
      </g>
     </g>
     <g id="text_8">
      <!-- 28 -->
      <g transform="translate(163.58986 322.182437)scale(0.1 -0.1)">
       <use xlink:href="#DejaVuSans-50"/>
       <use x="63.623047" xlink:href="#DejaVuSans-56"/>
      </g>
     </g>
    </g>
    <g id="xtick_9">
     <g id="line2d_17">
      <path clip-path="url(#pc670d91da2)" d="M 186.002697 307.584 
L 186.002697 41.472 
" style="fill:none;stroke:#b0b0b0;stroke-dasharray:5.12,1.28,0.8,1.28;stroke-dashoffset:0;stroke-width:0.8;"/>
     </g>
     <g id="line2d_18">
      <g>
       <use style="stroke:#000000;stroke-width:0.8;" x="186.002697" xlink:href="#me3b22ea352" y="307.584"/>
      </g>
     </g>
     <g id="text_9">
      <!-- 32 -->
      <defs>
       <path d="M 40.578125 39.3125 
Q 47.65625 37.796875 51.625 33 
Q 55.609375 28.21875 55.609375 21.1875 
Q 55.609375 10.40625 48.1875 4.484375 
Q 40.765625 -1.421875 27.09375 -1.421875 
Q 22.515625 -1.421875 17.65625 -0.515625 
Q 12.796875 0.390625 7.625 2.203125 
L 7.625 11.71875 
Q 11.71875 9.328125 16.59375 8.109375 
Q 21.484375 6.890625 26.8125 6.890625 
Q 36.078125 6.890625 40.9375 10.546875 
Q 45.796875 14.203125 45.796875 21.1875 
Q 45.796875 27.640625 41.28125 31.265625 
Q 36.765625 34.90625 28.71875 34.90625 
L 20.21875 34.90625 
L 20.21875 43.015625 
L 29.109375 43.015625 
Q 36.375 43.015625 40.234375 45.921875 
Q 44.09375 48.828125 44.09375 54.296875 
Q 44.09375 59.90625 40.109375 62.90625 
Q 36.140625 65.921875 28.71875 65.921875 
Q 24.65625 65.921875 20.015625 65.03125 
Q 15.375 64.15625 9.8125 62.3125 
L 9.8125 71.09375 
Q 15.4375 72.65625 20.34375 73.4375 
Q 25.25 74.21875 29.59375 74.21875 
Q 40.828125 74.21875 47.359375 69.109375 
Q 53.90625 64.015625 53.90625 55.328125 
Q 53.90625 49.265625 50.4375 45.09375 
Q 46.96875 40.921875 40.578125 39.3125 
z
" id="DejaVuSans-51"/>
      </defs>
      <g transform="translate(179.640197 322.182437)scale(0.1 -0.1)">
       <use xlink:href="#DejaVuSans-51"/>
       <use x="63.623047" xlink:href="#DejaVuSans-50"/>
      </g>
     </g>
    </g>
    <g id="xtick_10">
     <g id="line2d_19">
      <path clip-path="url(#pc670d91da2)" d="M 202.053034 307.584 
L 202.053034 41.472 
" style="fill:none;stroke:#b0b0b0;stroke-dasharray:5.12,1.28,0.8,1.28;stroke-dashoffset:0;stroke-width:0.8;"/>
     </g>
     <g id="line2d_20">
      <g>
       <use style="stroke:#000000;stroke-width:0.8;" x="202.053034" xlink:href="#me3b22ea352" y="307.584"/>
      </g>
     </g>
     <g id="text_10">
      <!-- 36 -->
      <g transform="translate(195.690534 322.182437)scale(0.1 -0.1)">
       <use xlink:href="#DejaVuSans-51"/>
       <use x="63.623047" xlink:href="#DejaVuSans-54"/>
      </g>
     </g>
    </g>
    <g id="xtick_11">
     <g id="line2d_21">
      <path clip-path="url(#pc670d91da2)" d="M 218.103371 307.584 
L 218.103371 41.472 
" style="fill:none;stroke:#b0b0b0;stroke-dasharray:5.12,1.28,0.8,1.28;stroke-dashoffset:0;stroke-width:0.8;"/>
     </g>
     <g id="line2d_22">
      <g>
       <use style="stroke:#000000;stroke-width:0.8;" x="218.103371" xlink:href="#me3b22ea352" y="307.584"/>
      </g>
     </g>
     <g id="text_11">
      <!-- 40 -->
      <g transform="translate(211.740871 322.182437)scale(0.1 -0.1)">
       <use xlink:href="#DejaVuSans-52"/>
       <use x="63.623047" xlink:href="#DejaVuSans-48"/>
      </g>
     </g>
    </g>
    <g id="xtick_12">
     <g id="line2d_23">
      <path clip-path="url(#pc670d91da2)" d="M 234.153708 307.584 
L 234.153708 41.472 
" style="fill:none;stroke:#b0b0b0;stroke-dasharray:5.12,1.28,0.8,1.28;stroke-dashoffset:0;stroke-width:0.8;"/>
     </g>
     <g id="line2d_24">
      <g>
       <use style="stroke:#000000;stroke-width:0.8;" x="234.153708" xlink:href="#me3b22ea352" y="307.584"/>
      </g>
     </g>
     <g id="text_12">
      <!-- 44 -->
      <g transform="translate(227.791208 322.182437)scale(0.1 -0.1)">
       <use xlink:href="#DejaVuSans-52"/>
       <use x="63.623047" xlink:href="#DejaVuSans-52"/>
      </g>
     </g>
    </g>
    <g id="xtick_13">
     <g id="line2d_25">
      <path clip-path="url(#pc670d91da2)" d="M 250.204045 307.584 
L 250.204045 41.472 
" style="fill:none;stroke:#b0b0b0;stroke-dasharray:5.12,1.28,0.8,1.28;stroke-dashoffset:0;stroke-width:0.8;"/>
     </g>
     <g id="line2d_26">
      <g>
       <use style="stroke:#000000;stroke-width:0.8;" x="250.204045" xlink:href="#me3b22ea352" y="307.584"/>
      </g>
     </g>
     <g id="text_13">
      <!-- 48 -->
      <g transform="translate(243.841545 322.182437)scale(0.1 -0.1)">
       <use xlink:href="#DejaVuSans-52"/>
       <use x="63.623047" xlink:href="#DejaVuSans-56"/>
      </g>
     </g>
    </g>
    <g id="xtick_14">
     <g id="line2d_27">
      <path clip-path="url(#pc670d91da2)" d="M 266.254382 307.584 
L 266.254382 41.472 
" style="fill:none;stroke:#b0b0b0;stroke-dasharray:5.12,1.28,0.8,1.28;stroke-dashoffset:0;stroke-width:0.8;"/>
     </g>
     <g id="line2d_28">
      <g>
       <use style="stroke:#000000;stroke-width:0.8;" x="266.254382" xlink:href="#me3b22ea352" y="307.584"/>
      </g>
     </g>
     <g id="text_14">
      <!-- 52 -->
      <defs>
       <path d="M 10.796875 72.90625 
L 49.515625 72.90625 
L 49.515625 64.59375 
L 19.828125 64.59375 
L 19.828125 46.734375 
Q 21.96875 47.46875 24.109375 47.828125 
Q 26.265625 48.1875 28.421875 48.1875 
Q 40.625 48.1875 47.75 41.5 
Q 54.890625 34.8125 54.890625 23.390625 
Q 54.890625 11.625 47.5625 5.09375 
Q 40.234375 -1.421875 26.90625 -1.421875 
Q 22.3125 -1.421875 17.546875 -0.640625 
Q 12.796875 0.140625 7.71875 1.703125 
L 7.71875 11.625 
Q 12.109375 9.234375 16.796875 8.0625 
Q 21.484375 6.890625 26.703125 6.890625 
Q 35.15625 6.890625 40.078125 11.328125 
Q 45.015625 15.765625 45.015625 23.390625 
Q 45.015625 31 40.078125 35.4375 
Q 35.15625 39.890625 26.703125 39.890625 
Q 22.75 39.890625 18.8125 39.015625 
Q 14.890625 38.140625 10.796875 36.28125 
z
" id="DejaVuSans-53"/>
      </defs>
      <g transform="translate(259.891882 322.182437)scale(0.1 -0.1)">
       <use xlink:href="#DejaVuSans-53"/>
       <use x="63.623047" xlink:href="#DejaVuSans-50"/>
      </g>
     </g>
    </g>
    <g id="xtick_15">
     <g id="line2d_29">
      <path clip-path="url(#pc670d91da2)" d="M 282.304719 307.584 
L 282.304719 41.472 
" style="fill:none;stroke:#b0b0b0;stroke-dasharray:5.12,1.28,0.8,1.28;stroke-dashoffset:0;stroke-width:0.8;"/>
     </g>
     <g id="line2d_30">
      <g>
       <use style="stroke:#000000;stroke-width:0.8;" x="282.304719" xlink:href="#me3b22ea352" y="307.584"/>
      </g>
     </g>
     <g id="text_15">
      <!-- 56 -->
      <g transform="translate(275.942219 322.182437)scale(0.1 -0.1)">
       <use xlink:href="#DejaVuSans-53"/>
       <use x="63.623047" xlink:href="#DejaVuSans-54"/>
      </g>
     </g>
    </g>
    <g id="xtick_16">
     <g id="line2d_31">
      <path clip-path="url(#pc670d91da2)" d="M 298.355056 307.584 
L 298.355056 41.472 
" style="fill:none;stroke:#b0b0b0;stroke-dasharray:5.12,1.28,0.8,1.28;stroke-dashoffset:0;stroke-width:0.8;"/>
     </g>
     <g id="line2d_32">
      <g>
       <use style="stroke:#000000;stroke-width:0.8;" x="298.355056" xlink:href="#me3b22ea352" y="307.584"/>
      </g>
     </g>
     <g id="text_16">
      <!-- 60 -->
      <g transform="translate(291.992556 322.182437)scale(0.1 -0.1)">
       <use xlink:href="#DejaVuSans-54"/>
       <use x="63.623047" xlink:href="#DejaVuSans-48"/>
      </g>
     </g>
    </g>
    <g id="xtick_17">
     <g id="line2d_33">
      <path clip-path="url(#pc670d91da2)" d="M 314.405393 307.584 
L 314.405393 41.472 
" style="fill:none;stroke:#b0b0b0;stroke-dasharray:5.12,1.28,0.8,1.28;stroke-dashoffset:0;stroke-width:0.8;"/>
     </g>
     <g id="line2d_34">
      <g>
       <use style="stroke:#000000;stroke-width:0.8;" x="314.405393" xlink:href="#me3b22ea352" y="307.584"/>
      </g>
     </g>
     <g id="text_17">
      <!-- 64 -->
      <g transform="translate(308.042893 322.182437)scale(0.1 -0.1)">
       <use xlink:href="#DejaVuSans-54"/>
       <use x="63.623047" xlink:href="#DejaVuSans-52"/>
      </g>
     </g>
    </g>
    <g id="xtick_18">
     <g id="line2d_35">
      <path clip-path="url(#pc670d91da2)" d="M 330.45573 307.584 
L 330.45573 41.472 
" style="fill:none;stroke:#b0b0b0;stroke-dasharray:5.12,1.28,0.8,1.28;stroke-dashoffset:0;stroke-width:0.8;"/>
     </g>
     <g id="line2d_36">
      <g>
       <use style="stroke:#000000;stroke-width:0.8;" x="330.45573" xlink:href="#me3b22ea352" y="307.584"/>
      </g>
     </g>
     <g id="text_18">
      <!-- 68 -->
      <g transform="translate(324.09323 322.182437)scale(0.1 -0.1)">
       <use xlink:href="#DejaVuSans-54"/>
       <use x="63.623047" xlink:href="#DejaVuSans-56"/>
      </g>
     </g>
    </g>
    <g id="xtick_19">
     <g id="line2d_37">
      <path clip-path="url(#pc670d91da2)" d="M 346.506067 307.584 
L 346.506067 41.472 
" style="fill:none;stroke:#b0b0b0;stroke-dasharray:5.12,1.28,0.8,1.28;stroke-dashoffset:0;stroke-width:0.8;"/>
     </g>
     <g id="line2d_38">
      <g>
       <use style="stroke:#000000;stroke-width:0.8;" x="346.506067" xlink:href="#me3b22ea352" y="307.584"/>
      </g>
     </g>
     <g id="text_19">
      <!-- 72 -->
      <defs>
       <path d="M 8.203125 72.90625 
L 55.078125 72.90625 
L 55.078125 68.703125 
L 28.609375 0 
L 18.3125 0 
L 43.21875 64.59375 
L 8.203125 64.59375 
z
" id="DejaVuSans-55"/>
      </defs>
      <g transform="translate(340.143567 322.182437)scale(0.1 -0.1)">
       <use xlink:href="#DejaVuSans-55"/>
       <use x="63.623047" xlink:href="#DejaVuSans-50"/>
      </g>
     </g>
    </g>
    <g id="xtick_20">
     <g id="line2d_39">
      <path clip-path="url(#pc670d91da2)" d="M 362.556404 307.584 
L 362.556404 41.472 
" style="fill:none;stroke:#b0b0b0;stroke-dasharray:5.12,1.28,0.8,1.28;stroke-dashoffset:0;stroke-width:0.8;"/>
     </g>
     <g id="line2d_40">
      <g>
       <use style="stroke:#000000;stroke-width:0.8;" x="362.556404" xlink:href="#me3b22ea352" y="307.584"/>
      </g>
     </g>
     <g id="text_20">
      <!-- 76 -->
      <g transform="translate(356.193904 322.182437)scale(0.1 -0.1)">
       <use xlink:href="#DejaVuSans-55"/>
       <use x="63.623047" xlink:href="#DejaVuSans-54"/>
      </g>
     </g>
    </g>
    <g id="xtick_21">
     <g id="line2d_41">
      <path clip-path="url(#pc670d91da2)" d="M 378.606742 307.584 
L 378.606742 41.472 
" style="fill:none;stroke:#b0b0b0;stroke-dasharray:5.12,1.28,0.8,1.28;stroke-dashoffset:0;stroke-width:0.8;"/>
     </g>
     <g id="line2d_42">
      <g>
       <use style="stroke:#000000;stroke-width:0.8;" x="378.606742" xlink:href="#me3b22ea352" y="307.584"/>
      </g>
     </g>
     <g id="text_21">
      <!-- 80 -->
      <g transform="translate(372.244242 322.182437)scale(0.1 -0.1)">
       <use xlink:href="#DejaVuSans-56"/>
       <use x="63.623047" xlink:href="#DejaVuSans-48"/>
      </g>
     </g>
    </g>
    <g id="xtick_22">
     <g id="line2d_43">
      <path clip-path="url(#pc670d91da2)" d="M 394.657079 307.584 
L 394.657079 41.472 
" style="fill:none;stroke:#b0b0b0;stroke-dasharray:5.12,1.28,0.8,1.28;stroke-dashoffset:0;stroke-width:0.8;"/>
     </g>
     <g id="line2d_44">
      <g>
       <use style="stroke:#000000;stroke-width:0.8;" x="394.657079" xlink:href="#me3b22ea352" y="307.584"/>
      </g>
     </g>
     <g id="text_22">
      <!-- 84 -->
      <g transform="translate(388.294579 322.182437)scale(0.1 -0.1)">
       <use xlink:href="#DejaVuSans-56"/>
       <use x="63.623047" xlink:href="#DejaVuSans-52"/>
      </g>
     </g>
    </g>
    <g id="xtick_23">
     <g id="line2d_45">
      <path clip-path="url(#pc670d91da2)" d="M 410.707416 307.584 
L 410.707416 41.472 
" style="fill:none;stroke:#b0b0b0;stroke-dasharray:5.12,1.28,0.8,1.28;stroke-dashoffset:0;stroke-width:0.8;"/>
     </g>
     <g id="line2d_46">
      <g>
       <use style="stroke:#000000;stroke-width:0.8;" x="410.707416" xlink:href="#me3b22ea352" y="307.584"/>
      </g>
     </g>
     <g id="text_23">
      <!-- 88 -->
      <g transform="translate(404.344916 322.182437)scale(0.1 -0.1)">
       <use xlink:href="#DejaVuSans-56"/>
       <use x="63.623047" xlink:href="#DejaVuSans-56"/>
      </g>
     </g>
    </g>
    <g id="text_24">
     <!-- threads -->
     <defs>
      <path d="M 18.3125 70.21875 
L 18.3125 54.6875 
L 36.8125 54.6875 
L 36.8125 47.703125 
L 18.3125 47.703125 
L 18.3125 18.015625 
Q 18.3125 11.328125 20.140625 9.421875 
Q 21.96875 7.515625 27.59375 7.515625 
L 36.8125 7.515625 
L 36.8125 0 
L 27.59375 0 
Q 17.1875 0 13.234375 3.875 
Q 9.28125 7.765625 9.28125 18.015625 
L 9.28125 47.703125 
L 2.6875 47.703125 
L 2.6875 54.6875 
L 9.28125 54.6875 
L 9.28125 70.21875 
z
" id="DejaVuSans-116"/>
      <path d="M 54.890625 33.015625 
L 54.890625 0 
L 45.90625 0 
L 45.90625 32.71875 
Q 45.90625 40.484375 42.875 44.328125 
Q 39.84375 48.1875 33.796875 48.1875 
Q 26.515625 48.1875 22.3125 43.546875 
Q 18.109375 38.921875 18.109375 30.90625 
L 18.109375 0 
L 9.078125 0 
L 9.078125 75.984375 
L 18.109375 75.984375 
L 18.109375 46.1875 
Q 21.34375 51.125 25.703125 53.5625 
Q 30.078125 56 35.796875 56 
Q 45.21875 56 50.046875 50.171875 
Q 54.890625 44.34375 54.890625 33.015625 
z
" id="DejaVuSans-104"/>
      <path d="M 41.109375 46.296875 
Q 39.59375 47.171875 37.8125 47.578125 
Q 36.03125 48 33.890625 48 
Q 26.265625 48 22.1875 43.046875 
Q 18.109375 38.09375 18.109375 28.8125 
L 18.109375 0 
L 9.078125 0 
L 9.078125 54.6875 
L 18.109375 54.6875 
L 18.109375 46.1875 
Q 20.953125 51.171875 25.484375 53.578125 
Q 30.03125 56 36.53125 56 
Q 37.453125 56 38.578125 55.875 
Q 39.703125 55.765625 41.0625 55.515625 
z
" id="DejaVuSans-114"/>
      <path d="M 56.203125 29.59375 
L 56.203125 25.203125 
L 14.890625 25.203125 
Q 15.484375 15.921875 20.484375 11.0625 
Q 25.484375 6.203125 34.421875 6.203125 
Q 39.59375 6.203125 44.453125 7.46875 
Q 49.3125 8.734375 54.109375 11.28125 
L 54.109375 2.78125 
Q 49.265625 0.734375 44.1875 -0.34375 
Q 39.109375 -1.421875 33.890625 -1.421875 
Q 20.796875 -1.421875 13.15625 6.1875 
Q 5.515625 13.8125 5.515625 26.8125 
Q 5.515625 40.234375 12.765625 48.109375 
Q 20.015625 56 32.328125 56 
Q 43.359375 56 49.78125 48.890625 
Q 56.203125 41.796875 56.203125 29.59375 
z
M 47.21875 32.234375 
Q 47.125 39.59375 43.09375 43.984375 
Q 39.0625 48.390625 32.421875 48.390625 
Q 24.90625 48.390625 20.390625 44.140625 
Q 15.875 39.890625 15.1875 32.171875 
z
" id="DejaVuSans-101"/>
      <path d="M 34.28125 27.484375 
Q 23.390625 27.484375 19.1875 25 
Q 14.984375 22.515625 14.984375 16.5 
Q 14.984375 11.71875 18.140625 8.90625 
Q 21.296875 6.109375 26.703125 6.109375 
Q 34.1875 6.109375 38.703125 11.40625 
Q 43.21875 16.703125 43.21875 25.484375 
L 43.21875 27.484375 
z
M 52.203125 31.203125 
L 52.203125 0 
L 43.21875 0 
L 43.21875 8.296875 
Q 40.140625 3.328125 35.546875 0.953125 
Q 30.953125 -1.421875 24.3125 -1.421875 
Q 15.921875 -1.421875 10.953125 3.296875 
Q 6 8.015625 6 15.921875 
Q 6 25.140625 12.171875 29.828125 
Q 18.359375 34.515625 30.609375 34.515625 
L 43.21875 34.515625 
L 43.21875 35.40625 
Q 43.21875 41.609375 39.140625 45 
Q 35.0625 48.390625 27.6875 48.390625 
Q 23 48.390625 18.546875 47.265625 
Q 14.109375 46.140625 10.015625 43.890625 
L 10.015625 52.203125 
Q 14.9375 54.109375 19.578125 55.046875 
Q 24.21875 56 28.609375 56 
Q 40.484375 56 46.34375 49.84375 
Q 52.203125 43.703125 52.203125 31.203125 
z
" id="DejaVuSans-97"/>
      <path d="M 45.40625 46.390625 
L 45.40625 75.984375 
L 54.390625 75.984375 
L 54.390625 0 
L 45.40625 0 
L 45.40625 8.203125 
Q 42.578125 3.328125 38.25 0.953125 
Q 33.9375 -1.421875 27.875 -1.421875 
Q 17.96875 -1.421875 11.734375 6.484375 
Q 5.515625 14.40625 5.515625 27.296875 
Q 5.515625 40.1875 11.734375 48.09375 
Q 17.96875 56 27.875 56 
Q 33.9375 56 38.25 53.625 
Q 42.578125 51.265625 45.40625 46.390625 
z
M 14.796875 27.296875 
Q 14.796875 17.390625 18.875 11.75 
Q 22.953125 6.109375 30.078125 6.109375 
Q 37.203125 6.109375 41.296875 11.75 
Q 45.40625 17.390625 45.40625 27.296875 
Q 45.40625 37.203125 41.296875 42.84375 
Q 37.203125 48.484375 30.078125 48.484375 
Q 22.953125 48.484375 18.875 42.84375 
Q 14.796875 37.203125 14.796875 27.296875 
z
" id="DejaVuSans-100"/>
      <path d="M 44.28125 53.078125 
L 44.28125 44.578125 
Q 40.484375 46.53125 36.375 47.5 
Q 32.28125 48.484375 27.875 48.484375 
Q 21.1875 48.484375 17.84375 46.4375 
Q 14.5 44.390625 14.5 40.28125 
Q 14.5 37.15625 16.890625 35.375 
Q 19.28125 33.59375 26.515625 31.984375 
L 29.59375 31.296875 
Q 39.15625 29.25 43.1875 25.515625 
Q 47.21875 21.78125 47.21875 15.09375 
Q 47.21875 7.46875 41.1875 3.015625 
Q 35.15625 -1.421875 24.609375 -1.421875 
Q 20.21875 -1.421875 15.453125 -0.5625 
Q 10.6875 0.296875 5.421875 2 
L 5.421875 11.28125 
Q 10.40625 8.6875 15.234375 7.390625 
Q 20.0625 6.109375 24.8125 6.109375 
Q 31.15625 6.109375 34.5625 8.28125 
Q 37.984375 10.453125 37.984375 14.40625 
Q 37.984375 18.0625 35.515625 20.015625 
Q 33.0625 21.96875 24.703125 23.78125 
L 21.578125 24.515625 
Q 13.234375 26.265625 9.515625 29.90625 
Q 5.8125 33.546875 5.8125 39.890625 
Q 5.8125 47.609375 11.28125 51.796875 
Q 16.75 56 26.8125 56 
Q 31.78125 56 36.171875 55.265625 
Q 40.578125 54.546875 44.28125 53.078125 
z
" id="DejaVuSans-115"/>
     </defs>
     <g transform="translate(217.168594 335.860562)scale(0.1 -0.1)">
      <use xlink:href="#DejaVuSans-116"/>
      <use x="39.208984" xlink:href="#DejaVuSans-104"/>
      <use x="102.587891" xlink:href="#DejaVuSans-114"/>
      <use x="141.451172" xlink:href="#DejaVuSans-101"/>
      <use x="202.974609" xlink:href="#DejaVuSans-97"/>
      <use x="264.253906" xlink:href="#DejaVuSans-100"/>
      <use x="327.730469" xlink:href="#DejaVuSans-115"/>
     </g>
    </g>
   </g>
   <g id="matplotlib.axis_2">
    <g id="ytick_1">
     <g id="line2d_47">
      <path clip-path="url(#pc670d91da2)" d="M 57.6 305.234957 
L 414.72 305.234957 
" style="fill:none;stroke:#b0b0b0;stroke-dasharray:5.12,1.28,0.8,1.28;stroke-dashoffset:0;stroke-width:0.8;"/>
     </g>
     <g id="line2d_48">
      <defs>
       <path d="M 0 0 
L -3.5 0 
" id="mf53c30b47f" style="stroke:#000000;stroke-width:0.8;"/>
      </defs>
      <g>
       <use style="stroke:#000000;stroke-width:0.8;" x="57.6" xlink:href="#mf53c30b47f" y="305.234957"/>
      </g>
     </g>
     <g id="text_25">
      <!-- 0.5 -->
      <defs>
       <path d="M 10.6875 12.40625 
L 21 12.40625 
L 21 0 
L 10.6875 0 
z
" id="DejaVuSans-46"/>
      </defs>
      <g transform="translate(34.696875 309.034176)scale(0.1 -0.1)">
       <use xlink:href="#DejaVuSans-48"/>
       <use x="63.623047" xlink:href="#DejaVuSans-46"/>
       <use x="95.410156" xlink:href="#DejaVuSans-53"/>
      </g>
     </g>
    </g>
    <g id="ytick_2">
     <g id="line2d_49">
      <path clip-path="url(#pc670d91da2)" d="M 57.6 257.893435 
L 414.72 257.893435 
" style="fill:none;stroke:#b0b0b0;stroke-dasharray:5.12,1.28,0.8,1.28;stroke-dashoffset:0;stroke-width:0.8;"/>
     </g>
     <g id="line2d_50">
      <g>
       <use style="stroke:#000000;stroke-width:0.8;" x="57.6" xlink:href="#mf53c30b47f" y="257.893435"/>
      </g>
     </g>
     <g id="text_26">
      <!-- 1.0 -->
      <g transform="translate(34.696875 261.692654)scale(0.1 -0.1)">
       <use xlink:href="#DejaVuSans-49"/>
       <use x="63.623047" xlink:href="#DejaVuSans-46"/>
       <use x="95.410156" xlink:href="#DejaVuSans-48"/>
      </g>
     </g>
    </g>
    <g id="ytick_3">
     <g id="line2d_51">
      <path clip-path="url(#pc670d91da2)" d="M 57.6 210.551913 
L 414.72 210.551913 
" style="fill:none;stroke:#b0b0b0;stroke-dasharray:5.12,1.28,0.8,1.28;stroke-dashoffset:0;stroke-width:0.8;"/>
     </g>
     <g id="line2d_52">
      <g>
       <use style="stroke:#000000;stroke-width:0.8;" x="57.6" xlink:href="#mf53c30b47f" y="210.551913"/>
      </g>
     </g>
     <g id="text_27">
      <!-- 1.5 -->
      <g transform="translate(34.696875 214.351131)scale(0.1 -0.1)">
       <use xlink:href="#DejaVuSans-49"/>
       <use x="63.623047" xlink:href="#DejaVuSans-46"/>
       <use x="95.410156" xlink:href="#DejaVuSans-53"/>
      </g>
     </g>
    </g>
    <g id="ytick_4">
     <g id="line2d_53">
      <path clip-path="url(#pc670d91da2)" d="M 57.6 163.21039 
L 414.72 163.21039 
" style="fill:none;stroke:#b0b0b0;stroke-dasharray:5.12,1.28,0.8,1.28;stroke-dashoffset:0;stroke-width:0.8;"/>
     </g>
     <g id="line2d_54">
      <g>
       <use style="stroke:#000000;stroke-width:0.8;" x="57.6" xlink:href="#mf53c30b47f" y="163.21039"/>
      </g>
     </g>
     <g id="text_28">
      <!-- 2.0 -->
      <g transform="translate(34.696875 167.009609)scale(0.1 -0.1)">
       <use xlink:href="#DejaVuSans-50"/>
       <use x="63.623047" xlink:href="#DejaVuSans-46"/>
       <use x="95.410156" xlink:href="#DejaVuSans-48"/>
      </g>
     </g>
    </g>
    <g id="ytick_5">
     <g id="line2d_55">
      <path clip-path="url(#pc670d91da2)" d="M 57.6 115.868868 
L 414.72 115.868868 
" style="fill:none;stroke:#b0b0b0;stroke-dasharray:5.12,1.28,0.8,1.28;stroke-dashoffset:0;stroke-width:0.8;"/>
     </g>
     <g id="line2d_56">
      <g>
       <use style="stroke:#000000;stroke-width:0.8;" x="57.6" xlink:href="#mf53c30b47f" y="115.868868"/>
      </g>
     </g>
     <g id="text_29">
      <!-- 2.5 -->
      <g transform="translate(34.696875 119.668087)scale(0.1 -0.1)">
       <use xlink:href="#DejaVuSans-50"/>
       <use x="63.623047" xlink:href="#DejaVuSans-46"/>
       <use x="95.410156" xlink:href="#DejaVuSans-53"/>
      </g>
     </g>
    </g>
    <g id="ytick_6">
     <g id="line2d_57">
      <path clip-path="url(#pc670d91da2)" d="M 57.6 68.527346 
L 414.72 68.527346 
" style="fill:none;stroke:#b0b0b0;stroke-dasharray:5.12,1.28,0.8,1.28;stroke-dashoffset:0;stroke-width:0.8;"/>
     </g>
     <g id="line2d_58">
      <g>
       <use style="stroke:#000000;stroke-width:0.8;" x="57.6" xlink:href="#mf53c30b47f" y="68.527346"/>
      </g>
     </g>
     <g id="text_30">
      <!-- 3.0 -->
      <g transform="translate(34.696875 72.326565)scale(0.1 -0.1)">
       <use xlink:href="#DejaVuSans-51"/>
       <use x="63.623047" xlink:href="#DejaVuSans-46"/>
       <use x="95.410156" xlink:href="#DejaVuSans-48"/>
      </g>
     </g>
    </g>
    <g id="text_31">
     <!-- speed up -->
     <defs>
      <path d="M 18.109375 8.203125 
L 18.109375 -20.796875 
L 9.078125 -20.796875 
L 9.078125 54.6875 
L 18.109375 54.6875 
L 18.109375 46.390625 
Q 20.953125 51.265625 25.265625 53.625 
Q 29.59375 56 35.59375 56 
Q 45.5625 56 51.78125 48.09375 
Q 58.015625 40.1875 58.015625 27.296875 
Q 58.015625 14.40625 51.78125 6.484375 
Q 45.5625 -1.421875 35.59375 -1.421875 
Q 29.59375 -1.421875 25.265625 0.953125 
Q 20.953125 3.328125 18.109375 8.203125 
z
M 48.6875 27.296875 
Q 48.6875 37.203125 44.609375 42.84375 
Q 40.53125 48.484375 33.40625 48.484375 
Q 26.265625 48.484375 22.1875 42.84375 
Q 18.109375 37.203125 18.109375 27.296875 
Q 18.109375 17.390625 22.1875 11.75 
Q 26.265625 6.109375 33.40625 6.109375 
Q 40.53125 6.109375 44.609375 11.75 
Q 48.6875 17.390625 48.6875 27.296875 
z
" id="DejaVuSans-112"/>
      <path id="DejaVuSans-32"/>
      <path d="M 8.5 21.578125 
L 8.5 54.6875 
L 17.484375 54.6875 
L 17.484375 21.921875 
Q 17.484375 14.15625 20.5 10.265625 
Q 23.53125 6.390625 29.59375 6.390625 
Q 36.859375 6.390625 41.078125 11.03125 
Q 45.3125 15.671875 45.3125 23.6875 
L 45.3125 54.6875 
L 54.296875 54.6875 
L 54.296875 0 
L 45.3125 0 
L 45.3125 8.40625 
Q 42.046875 3.421875 37.71875 1 
Q 33.40625 -1.421875 27.6875 -1.421875 
Q 18.265625 -1.421875 13.375 4.4375 
Q 8.5 10.296875 8.5 21.578125 
z
M 31.109375 56 
z
" id="DejaVuSans-117"/>
     </defs>
     <g transform="translate(28.617187 197.566281)rotate(-90)scale(0.1 -0.1)">
      <use xlink:href="#DejaVuSans-115"/>
      <use x="52.099609" xlink:href="#DejaVuSans-112"/>
      <use x="115.576172" xlink:href="#DejaVuSans-101"/>
      <use x="177.099609" xlink:href="#DejaVuSans-101"/>
      <use x="238.623047" xlink:href="#DejaVuSans-100"/>
      <use x="302.099609" xlink:href="#DejaVuSans-32"/>
      <use x="333.886719" xlink:href="#DejaVuSans-117"/>
      <use x="397.265625" xlink:href="#DejaVuSans-112"/>
     </g>
    </g>
   </g>
   <g id="line2d_59">
    <path clip-path="url(#pc670d91da2)" d="M 61.612584 295.488 
L 65.625169 251.817528 
L 69.637753 219.88215 
L 73.650337 197.824809 
L 77.662921 173.389404 
L 81.675506 153.400493 
L 85.68809 139.632334 
L 89.700674 128.621076 
L 93.713258 111.225663 
L 97.725843 93.120297 
L 101.738427 84.949942 
L 105.751011 76.706925 
L 109.763596 72.816692 
L 113.77618 65.626895 
L 117.788764 63.221937 
L 121.801348 59.376514 
L 125.813933 59.760481 
L 129.826517 61.18617 
L 133.839101 58.008838 
L 137.851685 63.112806 
L 141.86427 55.105078 
L 145.876854 58.627225 
L 149.889438 56.915106 
L 153.902022 56.132575 
L 157.914607 53.568 
L 161.927191 55.155453 
L 165.939775 55.96575 
L 169.95236 55.597561 
L 173.964944 59.093112 
L 177.977528 56.53472 
L 181.990112 67.358587 
L 186.002697 63.191124 
L 190.015281 79.502651 
L 194.027865 64.41558 
L 198.040449 56.653985 
L 202.053034 56.632113 
L 206.065618 61.694938 
L 210.078202 71.764321 
L 214.090787 81.360302 
L 218.103371 80.226765 
L 222.115955 80.211885 
L 226.128539 71.392578 
L 230.141124 60.522505 
L 234.153708 60.705907 
L 238.166292 64.004488 
L 242.178876 66.083983 
L 246.191461 69.589654 
L 250.204045 79.548905 
L 254.216629 79.264796 
L 258.229213 70.485456 
L 262.241798 62.696803 
L 266.254382 60.626305 
L 270.266966 60.864641 
L 274.279551 69.571525 
L 278.292135 63.362547 
L 282.304719 64.938182 
L 286.317303 64.70712 
L 290.329888 66.314365 
L 294.342472 71.445357 
L 298.355056 67.494321 
L 302.36764 66.601339 
L 306.380225 71.851304 
L 310.392809 67.123281 
L 314.405393 65.302314 
L 318.417978 67.304392 
L 322.430562 69.53111 
L 326.443146 69.385718 
L 330.45573 68.87906 
L 334.468315 68.783827 
L 338.480899 68.185712 
L 342.493483 70.756894 
L 346.506067 71.440527 
L 350.518652 72.269086 
L 354.531236 72.744289 
L 358.54382 73.933114 
L 362.556404 76.422562 
L 366.568989 72.616133 
L 370.581573 78.057407 
L 374.594157 78.112138 
L 378.606742 77.363197 
L 382.619326 78.847358 
L 386.63191 76.069618 
L 390.644494 77.17751 
L 394.657079 79.669665 
L 398.669663 77.59706 
L 402.682247 79.642038 
L 406.694831 82.772886 
L 410.707416 78.089219 
" style="fill:none;stroke:#0000ff;stroke-dasharray:1.5,2.475;stroke-dashoffset:0;stroke-width:1.5;"/>
    <defs>
     <path d="M 0 1.5 
C 0.397805 1.5 0.77937 1.341951 1.06066 1.06066 
C 1.341951 0.77937 1.5 0.397805 1.5 0 
C 1.5 -0.397805 1.341951 -0.77937 1.06066 -1.06066 
C 0.77937 -1.341951 0.397805 -1.5 0 -1.5 
C -0.397805 -1.5 -0.77937 -1.341951 -1.06066 -1.06066 
C -1.341951 -0.77937 -1.5 -0.397805 -1.5 0 
C -1.5 0.397805 -1.341951 0.77937 -1.06066 1.06066 
C -0.77937 1.341951 -0.397805 1.5 0 1.5 
z
" id="m77be2aa625" style="stroke:#0000ff;"/>
    </defs>
    <g clip-path="url(#pc670d91da2)">
     <use style="fill:#0000ff;stroke:#0000ff;" x="61.612584" xlink:href="#m77be2aa625" y="295.488"/>
     <use style="fill:#0000ff;stroke:#0000ff;" x="65.625169" xlink:href="#m77be2aa625" y="251.817528"/>
     <use style="fill:#0000ff;stroke:#0000ff;" x="69.637753" xlink:href="#m77be2aa625" y="219.88215"/>
     <use style="fill:#0000ff;stroke:#0000ff;" x="73.650337" xlink:href="#m77be2aa625" y="197.824809"/>
     <use style="fill:#0000ff;stroke:#0000ff;" x="77.662921" xlink:href="#m77be2aa625" y="173.389404"/>
     <use style="fill:#0000ff;stroke:#0000ff;" x="81.675506" xlink:href="#m77be2aa625" y="153.400493"/>
     <use style="fill:#0000ff;stroke:#0000ff;" x="85.68809" xlink:href="#m77be2aa625" y="139.632334"/>
     <use style="fill:#0000ff;stroke:#0000ff;" x="89.700674" xlink:href="#m77be2aa625" y="128.621076"/>
     <use style="fill:#0000ff;stroke:#0000ff;" x="93.713258" xlink:href="#m77be2aa625" y="111.225663"/>
     <use style="fill:#0000ff;stroke:#0000ff;" x="97.725843" xlink:href="#m77be2aa625" y="93.120297"/>
     <use style="fill:#0000ff;stroke:#0000ff;" x="101.738427" xlink:href="#m77be2aa625" y="84.949942"/>
     <use style="fill:#0000ff;stroke:#0000ff;" x="105.751011" xlink:href="#m77be2aa625" y="76.706925"/>
     <use style="fill:#0000ff;stroke:#0000ff;" x="109.763596" xlink:href="#m77be2aa625" y="72.816692"/>
     <use style="fill:#0000ff;stroke:#0000ff;" x="113.77618" xlink:href="#m77be2aa625" y="65.626895"/>
     <use style="fill:#0000ff;stroke:#0000ff;" x="117.788764" xlink:href="#m77be2aa625" y="63.221937"/>
     <use style="fill:#0000ff;stroke:#0000ff;" x="121.801348" xlink:href="#m77be2aa625" y="59.376514"/>
     <use style="fill:#0000ff;stroke:#0000ff;" x="125.813933" xlink:href="#m77be2aa625" y="59.760481"/>
     <use style="fill:#0000ff;stroke:#0000ff;" x="129.826517" xlink:href="#m77be2aa625" y="61.18617"/>
     <use style="fill:#0000ff;stroke:#0000ff;" x="133.839101" xlink:href="#m77be2aa625" y="58.008838"/>
     <use style="fill:#0000ff;stroke:#0000ff;" x="137.851685" xlink:href="#m77be2aa625" y="63.112806"/>
     <use style="fill:#0000ff;stroke:#0000ff;" x="141.86427" xlink:href="#m77be2aa625" y="55.105078"/>
     <use style="fill:#0000ff;stroke:#0000ff;" x="145.876854" xlink:href="#m77be2aa625" y="58.627225"/>
     <use style="fill:#0000ff;stroke:#0000ff;" x="149.889438" xlink:href="#m77be2aa625" y="56.915106"/>
     <use style="fill:#0000ff;stroke:#0000ff;" x="153.902022" xlink:href="#m77be2aa625" y="56.132575"/>
     <use style="fill:#0000ff;stroke:#0000ff;" x="157.914607" xlink:href="#m77be2aa625" y="53.568"/>
     <use style="fill:#0000ff;stroke:#0000ff;" x="161.927191" xlink:href="#m77be2aa625" y="55.155453"/>
     <use style="fill:#0000ff;stroke:#0000ff;" x="165.939775" xlink:href="#m77be2aa625" y="55.96575"/>
     <use style="fill:#0000ff;stroke:#0000ff;" x="169.95236" xlink:href="#m77be2aa625" y="55.597561"/>
     <use style="fill:#0000ff;stroke:#0000ff;" x="173.964944" xlink:href="#m77be2aa625" y="59.093112"/>
     <use style="fill:#0000ff;stroke:#0000ff;" x="177.977528" xlink:href="#m77be2aa625" y="56.53472"/>
     <use style="fill:#0000ff;stroke:#0000ff;" x="181.990112" xlink:href="#m77be2aa625" y="67.358587"/>
     <use style="fill:#0000ff;stroke:#0000ff;" x="186.002697" xlink:href="#m77be2aa625" y="63.191124"/>
     <use style="fill:#0000ff;stroke:#0000ff;" x="190.015281" xlink:href="#m77be2aa625" y="79.502651"/>
     <use style="fill:#0000ff;stroke:#0000ff;" x="194.027865" xlink:href="#m77be2aa625" y="64.41558"/>
     <use style="fill:#0000ff;stroke:#0000ff;" x="198.040449" xlink:href="#m77be2aa625" y="56.653985"/>
     <use style="fill:#0000ff;stroke:#0000ff;" x="202.053034" xlink:href="#m77be2aa625" y="56.632113"/>
     <use style="fill:#0000ff;stroke:#0000ff;" x="206.065618" xlink:href="#m77be2aa625" y="61.694938"/>
     <use style="fill:#0000ff;stroke:#0000ff;" x="210.078202" xlink:href="#m77be2aa625" y="71.764321"/>
     <use style="fill:#0000ff;stroke:#0000ff;" x="214.090787" xlink:href="#m77be2aa625" y="81.360302"/>
     <use style="fill:#0000ff;stroke:#0000ff;" x="218.103371" xlink:href="#m77be2aa625" y="80.226765"/>
     <use style="fill:#0000ff;stroke:#0000ff;" x="222.115955" xlink:href="#m77be2aa625" y="80.211885"/>
     <use style="fill:#0000ff;stroke:#0000ff;" x="226.128539" xlink:href="#m77be2aa625" y="71.392578"/>
     <use style="fill:#0000ff;stroke:#0000ff;" x="230.141124" xlink:href="#m77be2aa625" y="60.522505"/>
     <use style="fill:#0000ff;stroke:#0000ff;" x="234.153708" xlink:href="#m77be2aa625" y="60.705907"/>
     <use style="fill:#0000ff;stroke:#0000ff;" x="238.166292" xlink:href="#m77be2aa625" y="64.004488"/>
     <use style="fill:#0000ff;stroke:#0000ff;" x="242.178876" xlink:href="#m77be2aa625" y="66.083983"/>
     <use style="fill:#0000ff;stroke:#0000ff;" x="246.191461" xlink:href="#m77be2aa625" y="69.589654"/>
     <use style="fill:#0000ff;stroke:#0000ff;" x="250.204045" xlink:href="#m77be2aa625" y="79.548905"/>
     <use style="fill:#0000ff;stroke:#0000ff;" x="254.216629" xlink:href="#m77be2aa625" y="79.264796"/>
     <use style="fill:#0000ff;stroke:#0000ff;" x="258.229213" xlink:href="#m77be2aa625" y="70.485456"/>
     <use style="fill:#0000ff;stroke:#0000ff;" x="262.241798" xlink:href="#m77be2aa625" y="62.696803"/>
     <use style="fill:#0000ff;stroke:#0000ff;" x="266.254382" xlink:href="#m77be2aa625" y="60.626305"/>
     <use style="fill:#0000ff;stroke:#0000ff;" x="270.266966" xlink:href="#m77be2aa625" y="60.864641"/>
     <use style="fill:#0000ff;stroke:#0000ff;" x="274.279551" xlink:href="#m77be2aa625" y="69.571525"/>
     <use style="fill:#0000ff;stroke:#0000ff;" x="278.292135" xlink:href="#m77be2aa625" y="63.362547"/>
     <use style="fill:#0000ff;stroke:#0000ff;" x="282.304719" xlink:href="#m77be2aa625" y="64.938182"/>
     <use style="fill:#0000ff;stroke:#0000ff;" x="286.317303" xlink:href="#m77be2aa625" y="64.70712"/>
     <use style="fill:#0000ff;stroke:#0000ff;" x="290.329888" xlink:href="#m77be2aa625" y="66.314365"/>
     <use style="fill:#0000ff;stroke:#0000ff;" x="294.342472" xlink:href="#m77be2aa625" y="71.445357"/>
     <use style="fill:#0000ff;stroke:#0000ff;" x="298.355056" xlink:href="#m77be2aa625" y="67.494321"/>
     <use style="fill:#0000ff;stroke:#0000ff;" x="302.36764" xlink:href="#m77be2aa625" y="66.601339"/>
     <use style="fill:#0000ff;stroke:#0000ff;" x="306.380225" xlink:href="#m77be2aa625" y="71.851304"/>
     <use style="fill:#0000ff;stroke:#0000ff;" x="310.392809" xlink:href="#m77be2aa625" y="67.123281"/>
     <use style="fill:#0000ff;stroke:#0000ff;" x="314.405393" xlink:href="#m77be2aa625" y="65.302314"/>
     <use style="fill:#0000ff;stroke:#0000ff;" x="318.417978" xlink:href="#m77be2aa625" y="67.304392"/>
     <use style="fill:#0000ff;stroke:#0000ff;" x="322.430562" xlink:href="#m77be2aa625" y="69.53111"/>
     <use style="fill:#0000ff;stroke:#0000ff;" x="326.443146" xlink:href="#m77be2aa625" y="69.385718"/>
     <use style="fill:#0000ff;stroke:#0000ff;" x="330.45573" xlink:href="#m77be2aa625" y="68.87906"/>
     <use style="fill:#0000ff;stroke:#0000ff;" x="334.468315" xlink:href="#m77be2aa625" y="68.783827"/>
     <use style="fill:#0000ff;stroke:#0000ff;" x="338.480899" xlink:href="#m77be2aa625" y="68.185712"/>
     <use style="fill:#0000ff;stroke:#0000ff;" x="342.493483" xlink:href="#m77be2aa625" y="70.756894"/>
     <use style="fill:#0000ff;stroke:#0000ff;" x="346.506067" xlink:href="#m77be2aa625" y="71.440527"/>
     <use style="fill:#0000ff;stroke:#0000ff;" x="350.518652" xlink:href="#m77be2aa625" y="72.269086"/>
     <use style="fill:#0000ff;stroke:#0000ff;" x="354.531236" xlink:href="#m77be2aa625" y="72.744289"/>
     <use style="fill:#0000ff;stroke:#0000ff;" x="358.54382" xlink:href="#m77be2aa625" y="73.933114"/>
     <use style="fill:#0000ff;stroke:#0000ff;" x="362.556404" xlink:href="#m77be2aa625" y="76.422562"/>
     <use style="fill:#0000ff;stroke:#0000ff;" x="366.568989" xlink:href="#m77be2aa625" y="72.616133"/>
     <use style="fill:#0000ff;stroke:#0000ff;" x="370.581573" xlink:href="#m77be2aa625" y="78.057407"/>
     <use style="fill:#0000ff;stroke:#0000ff;" x="374.594157" xlink:href="#m77be2aa625" y="78.112138"/>
     <use style="fill:#0000ff;stroke:#0000ff;" x="378.606742" xlink:href="#m77be2aa625" y="77.363197"/>
     <use style="fill:#0000ff;stroke:#0000ff;" x="382.619326" xlink:href="#m77be2aa625" y="78.847358"/>
     <use style="fill:#0000ff;stroke:#0000ff;" x="386.63191" xlink:href="#m77be2aa625" y="76.069618"/>
     <use style="fill:#0000ff;stroke:#0000ff;" x="390.644494" xlink:href="#m77be2aa625" y="77.17751"/>
     <use style="fill:#0000ff;stroke:#0000ff;" x="394.657079" xlink:href="#m77be2aa625" y="79.669665"/>
     <use style="fill:#0000ff;stroke:#0000ff;" x="398.669663" xlink:href="#m77be2aa625" y="77.59706"/>
     <use style="fill:#0000ff;stroke:#0000ff;" x="402.682247" xlink:href="#m77be2aa625" y="79.642038"/>
     <use style="fill:#0000ff;stroke:#0000ff;" x="406.694831" xlink:href="#m77be2aa625" y="82.772886"/>
     <use style="fill:#0000ff;stroke:#0000ff;" x="410.707416" xlink:href="#m77be2aa625" y="78.089219"/>
    </g>
   </g>
   <g id="line2d_60">
    <path clip-path="url(#pc670d91da2)" d="M 61.612584 293.468283 
L 65.625169 249.306613 
L 69.637753 216.210973 
L 73.650337 188.589423 
L 77.662921 168.309608 
L 81.675506 152.479298 
L 85.68809 137.851959 
L 89.700674 131.50642 
L 93.713258 113.939587 
L 97.725843 105.231874 
L 101.738427 94.200509 
L 105.751011 84.714487 
L 109.763596 83.498597 
L 113.77618 75.049747 
L 117.788764 77.669539 
L 121.801348 70.903749 
L 125.813933 69.415728 
L 129.826517 74.470547 
L 133.839101 62.598993 
L 137.851685 71.015651 
L 141.86427 63.321925 
L 145.876854 64.312217 
L 149.889438 68.227576 
L 153.902022 61.66919 
L 157.914607 60.02413 
L 161.927191 58.803377 
L 165.939775 59.763255 
L 169.95236 60.255447 
L 173.964944 66.531018 
L 177.977528 61.306171 
L 181.990112 73.158842 
L 186.002697 60.319538 
L 190.015281 76.613717 
L 194.027865 62.263074 
L 198.040449 58.248859 
L 202.053034 57.84895 
L 206.065618 64.2591 
L 210.078202 67.747888 
L 214.090787 73.558763 
L 218.103371 67.907 
L 222.115955 73.666935 
L 226.128539 67.758699 
L 230.141124 63.71083 
L 234.153708 63.643691 
L 238.166292 70.679505 
L 242.178876 55.133357 
L 246.191461 65.631835 
L 250.204045 68.197566 
L 254.216629 65.399314 
L 258.229213 63.964702 
L 262.241798 60.621067 
L 266.254382 60.70017 
L 270.266966 60.066963 
L 274.279551 63.907139 
L 278.292135 61.513908 
L 282.304719 63.840273 
L 286.317303 64.053479 
L 290.329888 64.198248 
L 294.342472 66.739109 
L 298.355056 67.669292 
L 302.36764 60.976696 
L 306.380225 63.162328 
L 310.392809 64.607745 
L 314.405393 63.789735 
L 318.417978 63.044014 
L 322.430562 62.070094 
L 326.443146 66.565146 
L 330.45573 67.246999 
L 334.468315 68.696853 
L 338.480899 65.481888 
L 342.493483 67.174585 
L 346.506067 66.585528 
L 350.518652 68.954661 
L 354.531236 66.194863 
L 358.54382 70.189864 
L 362.556404 70.204871 
L 366.568989 70.586385 
L 370.581573 67.759324 
L 374.594157 69.568409 
L 378.606742 69.332907 
L 382.619326 71.615233 
L 386.63191 68.845751 
L 390.644494 68.05977 
L 394.657079 68.265683 
L 398.669663 69.208827 
L 402.682247 69.926886 
L 406.694831 72.51485 
L 410.707416 72.968682 
" style="fill:none;stroke:#ff0000;stroke-dasharray:1.5,2.475;stroke-dashoffset:0;stroke-width:1.5;"/>
    <defs>
     <path d="M 0 1.5 
C 0.397805 1.5 0.77937 1.341951 1.06066 1.06066 
C 1.341951 0.77937 1.5 0.397805 1.5 0 
C 1.5 -0.397805 1.341951 -0.77937 1.06066 -1.06066 
C 0.77937 -1.341951 0.397805 -1.5 0 -1.5 
C -0.397805 -1.5 -0.77937 -1.341951 -1.06066 -1.06066 
C -1.341951 -0.77937 -1.5 -0.397805 -1.5 0 
C -1.5 0.397805 -1.341951 0.77937 -1.06066 1.06066 
C -0.77937 1.341951 -0.397805 1.5 0 1.5 
z
" id="m865e3877a0" style="stroke:#ff0000;"/>
    </defs>
    <g clip-path="url(#pc670d91da2)">
     <use style="fill:#ff0000;stroke:#ff0000;" x="61.612584" xlink:href="#m865e3877a0" y="293.468283"/>
     <use style="fill:#ff0000;stroke:#ff0000;" x="65.625169" xlink:href="#m865e3877a0" y="249.306613"/>
     <use style="fill:#ff0000;stroke:#ff0000;" x="69.637753" xlink:href="#m865e3877a0" y="216.210973"/>
     <use style="fill:#ff0000;stroke:#ff0000;" x="73.650337" xlink:href="#m865e3877a0" y="188.589423"/>
     <use style="fill:#ff0000;stroke:#ff0000;" x="77.662921" xlink:href="#m865e3877a0" y="168.309608"/>
     <use style="fill:#ff0000;stroke:#ff0000;" x="81.675506" xlink:href="#m865e3877a0" y="152.479298"/>
     <use style="fill:#ff0000;stroke:#ff0000;" x="85.68809" xlink:href="#m865e3877a0" y="137.851959"/>
     <use style="fill:#ff0000;stroke:#ff0000;" x="89.700674" xlink:href="#m865e3877a0" y="131.50642"/>
     <use style="fill:#ff0000;stroke:#ff0000;" x="93.713258" xlink:href="#m865e3877a0" y="113.939587"/>
     <use style="fill:#ff0000;stroke:#ff0000;" x="97.725843" xlink:href="#m865e3877a0" y="105.231874"/>
     <use style="fill:#ff0000;stroke:#ff0000;" x="101.738427" xlink:href="#m865e3877a0" y="94.200509"/>
     <use style="fill:#ff0000;stroke:#ff0000;" x="105.751011" xlink:href="#m865e3877a0" y="84.714487"/>
     <use style="fill:#ff0000;stroke:#ff0000;" x="109.763596" xlink:href="#m865e3877a0" y="83.498597"/>
     <use style="fill:#ff0000;stroke:#ff0000;" x="113.77618" xlink:href="#m865e3877a0" y="75.049747"/>
     <use style="fill:#ff0000;stroke:#ff0000;" x="117.788764" xlink:href="#m865e3877a0" y="77.669539"/>
     <use style="fill:#ff0000;stroke:#ff0000;" x="121.801348" xlink:href="#m865e3877a0" y="70.903749"/>
     <use style="fill:#ff0000;stroke:#ff0000;" x="125.813933" xlink:href="#m865e3877a0" y="69.415728"/>
     <use style="fill:#ff0000;stroke:#ff0000;" x="129.826517" xlink:href="#m865e3877a0" y="74.470547"/>
     <use style="fill:#ff0000;stroke:#ff0000;" x="133.839101" xlink:href="#m865e3877a0" y="62.598993"/>
     <use style="fill:#ff0000;stroke:#ff0000;" x="137.851685" xlink:href="#m865e3877a0" y="71.015651"/>
     <use style="fill:#ff0000;stroke:#ff0000;" x="141.86427" xlink:href="#m865e3877a0" y="63.321925"/>
     <use style="fill:#ff0000;stroke:#ff0000;" x="145.876854" xlink:href="#m865e3877a0" y="64.312217"/>
     <use style="fill:#ff0000;stroke:#ff0000;" x="149.889438" xlink:href="#m865e3877a0" y="68.227576"/>
     <use style="fill:#ff0000;stroke:#ff0000;" x="153.902022" xlink:href="#m865e3877a0" y="61.66919"/>
     <use style="fill:#ff0000;stroke:#ff0000;" x="157.914607" xlink:href="#m865e3877a0" y="60.02413"/>
     <use style="fill:#ff0000;stroke:#ff0000;" x="161.927191" xlink:href="#m865e3877a0" y="58.803377"/>
     <use style="fill:#ff0000;stroke:#ff0000;" x="165.939775" xlink:href="#m865e3877a0" y="59.763255"/>
     <use style="fill:#ff0000;stroke:#ff0000;" x="169.95236" xlink:href="#m865e3877a0" y="60.255447"/>
     <use style="fill:#ff0000;stroke:#ff0000;" x="173.964944" xlink:href="#m865e3877a0" y="66.531018"/>
     <use style="fill:#ff0000;stroke:#ff0000;" x="177.977528" xlink:href="#m865e3877a0" y="61.306171"/>
     <use style="fill:#ff0000;stroke:#ff0000;" x="181.990112" xlink:href="#m865e3877a0" y="73.158842"/>
     <use style="fill:#ff0000;stroke:#ff0000;" x="186.002697" xlink:href="#m865e3877a0" y="60.319538"/>
     <use style="fill:#ff0000;stroke:#ff0000;" x="190.015281" xlink:href="#m865e3877a0" y="76.613717"/>
     <use style="fill:#ff0000;stroke:#ff0000;" x="194.027865" xlink:href="#m865e3877a0" y="62.263074"/>
     <use style="fill:#ff0000;stroke:#ff0000;" x="198.040449" xlink:href="#m865e3877a0" y="58.248859"/>
     <use style="fill:#ff0000;stroke:#ff0000;" x="202.053034" xlink:href="#m865e3877a0" y="57.84895"/>
     <use style="fill:#ff0000;stroke:#ff0000;" x="206.065618" xlink:href="#m865e3877a0" y="64.2591"/>
     <use style="fill:#ff0000;stroke:#ff0000;" x="210.078202" xlink:href="#m865e3877a0" y="67.747888"/>
     <use style="fill:#ff0000;stroke:#ff0000;" x="214.090787" xlink:href="#m865e3877a0" y="73.558763"/>
     <use style="fill:#ff0000;stroke:#ff0000;" x="218.103371" xlink:href="#m865e3877a0" y="67.907"/>
     <use style="fill:#ff0000;stroke:#ff0000;" x="222.115955" xlink:href="#m865e3877a0" y="73.666935"/>
     <use style="fill:#ff0000;stroke:#ff0000;" x="226.128539" xlink:href="#m865e3877a0" y="67.758699"/>
     <use style="fill:#ff0000;stroke:#ff0000;" x="230.141124" xlink:href="#m865e3877a0" y="63.71083"/>
     <use style="fill:#ff0000;stroke:#ff0000;" x="234.153708" xlink:href="#m865e3877a0" y="63.643691"/>
     <use style="fill:#ff0000;stroke:#ff0000;" x="238.166292" xlink:href="#m865e3877a0" y="70.679505"/>
     <use style="fill:#ff0000;stroke:#ff0000;" x="242.178876" xlink:href="#m865e3877a0" y="55.133357"/>
     <use style="fill:#ff0000;stroke:#ff0000;" x="246.191461" xlink:href="#m865e3877a0" y="65.631835"/>
     <use style="fill:#ff0000;stroke:#ff0000;" x="250.204045" xlink:href="#m865e3877a0" y="68.197566"/>
     <use style="fill:#ff0000;stroke:#ff0000;" x="254.216629" xlink:href="#m865e3877a0" y="65.399314"/>
     <use style="fill:#ff0000;stroke:#ff0000;" x="258.229213" xlink:href="#m865e3877a0" y="63.964702"/>
     <use style="fill:#ff0000;stroke:#ff0000;" x="262.241798" xlink:href="#m865e3877a0" y="60.621067"/>
     <use style="fill:#ff0000;stroke:#ff0000;" x="266.254382" xlink:href="#m865e3877a0" y="60.70017"/>
     <use style="fill:#ff0000;stroke:#ff0000;" x="270.266966" xlink:href="#m865e3877a0" y="60.066963"/>
     <use style="fill:#ff0000;stroke:#ff0000;" x="274.279551" xlink:href="#m865e3877a0" y="63.907139"/>
     <use style="fill:#ff0000;stroke:#ff0000;" x="278.292135" xlink:href="#m865e3877a0" y="61.513908"/>
     <use style="fill:#ff0000;stroke:#ff0000;" x="282.304719" xlink:href="#m865e3877a0" y="63.840273"/>
     <use style="fill:#ff0000;stroke:#ff0000;" x="286.317303" xlink:href="#m865e3877a0" y="64.053479"/>
     <use style="fill:#ff0000;stroke:#ff0000;" x="290.329888" xlink:href="#m865e3877a0" y="64.198248"/>
     <use style="fill:#ff0000;stroke:#ff0000;" x="294.342472" xlink:href="#m865e3877a0" y="66.739109"/>
     <use style="fill:#ff0000;stroke:#ff0000;" x="298.355056" xlink:href="#m865e3877a0" y="67.669292"/>
     <use style="fill:#ff0000;stroke:#ff0000;" x="302.36764" xlink:href="#m865e3877a0" y="60.976696"/>
     <use style="fill:#ff0000;stroke:#ff0000;" x="306.380225" xlink:href="#m865e3877a0" y="63.162328"/>
     <use style="fill:#ff0000;stroke:#ff0000;" x="310.392809" xlink:href="#m865e3877a0" y="64.607745"/>
     <use style="fill:#ff0000;stroke:#ff0000;" x="314.405393" xlink:href="#m865e3877a0" y="63.789735"/>
     <use style="fill:#ff0000;stroke:#ff0000;" x="318.417978" xlink:href="#m865e3877a0" y="63.044014"/>
     <use style="fill:#ff0000;stroke:#ff0000;" x="322.430562" xlink:href="#m865e3877a0" y="62.070094"/>
     <use style="fill:#ff0000;stroke:#ff0000;" x="326.443146" xlink:href="#m865e3877a0" y="66.565146"/>
     <use style="fill:#ff0000;stroke:#ff0000;" x="330.45573" xlink:href="#m865e3877a0" y="67.246999"/>
     <use style="fill:#ff0000;stroke:#ff0000;" x="334.468315" xlink:href="#m865e3877a0" y="68.696853"/>
     <use style="fill:#ff0000;stroke:#ff0000;" x="338.480899" xlink:href="#m865e3877a0" y="65.481888"/>
     <use style="fill:#ff0000;stroke:#ff0000;" x="342.493483" xlink:href="#m865e3877a0" y="67.174585"/>
     <use style="fill:#ff0000;stroke:#ff0000;" x="346.506067" xlink:href="#m865e3877a0" y="66.585528"/>
     <use style="fill:#ff0000;stroke:#ff0000;" x="350.518652" xlink:href="#m865e3877a0" y="68.954661"/>
     <use style="fill:#ff0000;stroke:#ff0000;" x="354.531236" xlink:href="#m865e3877a0" y="66.194863"/>
     <use style="fill:#ff0000;stroke:#ff0000;" x="358.54382" xlink:href="#m865e3877a0" y="70.189864"/>
     <use style="fill:#ff0000;stroke:#ff0000;" x="362.556404" xlink:href="#m865e3877a0" y="70.204871"/>
     <use style="fill:#ff0000;stroke:#ff0000;" x="366.568989" xlink:href="#m865e3877a0" y="70.586385"/>
     <use style="fill:#ff0000;stroke:#ff0000;" x="370.581573" xlink:href="#m865e3877a0" y="67.759324"/>
     <use style="fill:#ff0000;stroke:#ff0000;" x="374.594157" xlink:href="#m865e3877a0" y="69.568409"/>
     <use style="fill:#ff0000;stroke:#ff0000;" x="378.606742" xlink:href="#m865e3877a0" y="69.332907"/>
     <use style="fill:#ff0000;stroke:#ff0000;" x="382.619326" xlink:href="#m865e3877a0" y="71.615233"/>
     <use style="fill:#ff0000;stroke:#ff0000;" x="386.63191" xlink:href="#m865e3877a0" y="68.845751"/>
     <use style="fill:#ff0000;stroke:#ff0000;" x="390.644494" xlink:href="#m865e3877a0" y="68.05977"/>
     <use style="fill:#ff0000;stroke:#ff0000;" x="394.657079" xlink:href="#m865e3877a0" y="68.265683"/>
     <use style="fill:#ff0000;stroke:#ff0000;" x="398.669663" xlink:href="#m865e3877a0" y="69.208827"/>
     <use style="fill:#ff0000;stroke:#ff0000;" x="402.682247" xlink:href="#m865e3877a0" y="69.926886"/>
     <use style="fill:#ff0000;stroke:#ff0000;" x="406.694831" xlink:href="#m865e3877a0" y="72.51485"/>
     <use style="fill:#ff0000;stroke:#ff0000;" x="410.707416" xlink:href="#m865e3877a0" y="72.968682"/>
    </g>
   </g>
   <g id="line2d_61">
    <path clip-path="url(#pc670d91da2)" d="M 61.612584 294.478141 
L 65.625169 250.562071 
L 69.637753 218.046561 
L 73.650337 193.207116 
L 77.662921 170.849506 
L 81.675506 152.939895 
L 85.68809 138.742147 
L 89.700674 130.063748 
L 93.713258 112.582625 
L 97.725843 99.176085 
L 101.738427 89.575225 
L 105.751011 80.710706 
L 109.763596 78.157644 
L 113.77618 70.338321 
L 117.788764 70.445738 
L 121.801348 65.140132 
L 125.813933 64.588104 
L 129.826517 67.828359 
L 133.839101 60.303915 
L 137.851685 67.064229 
L 141.86427 59.213502 
L 145.876854 61.469721 
L 149.889438 62.571341 
L 153.902022 58.900882 
L 157.914607 56.796065 
L 161.927191 56.979415 
L 165.939775 57.864502 
L 169.95236 57.926504 
L 173.964944 62.812065 
L 177.977528 58.920446 
L 181.990112 70.258715 
L 186.002697 61.755331 
L 190.015281 78.058184 
L 194.027865 63.339327 
L 198.040449 57.451422 
L 202.053034 57.240531 
L 206.065618 62.977019 
L 210.078202 69.756104 
L 214.090787 77.459533 
L 218.103371 74.066883 
L 222.115955 76.93941 
L 226.128539 69.575638 
L 230.141124 62.116667 
L 234.153708 62.174799 
L 238.166292 67.341997 
L 242.178876 60.60867 
L 246.191461 67.610745 
L 250.204045 73.873235 
L 254.216629 72.332055 
L 258.229213 67.225079 
L 262.241798 61.658935 
L 266.254382 60.663238 
L 270.266966 60.465802 
L 274.279551 66.739332 
L 278.292135 62.438227 
L 282.304719 64.389227 
L 286.317303 64.3803 
L 290.329888 65.256307 
L 294.342472 69.092233 
L 298.355056 67.581806 
L 302.36764 63.789017 
L 306.380225 67.506816 
L 310.392809 65.865513 
L 314.405393 64.546025 
L 318.417978 65.174203 
L 322.430562 65.800602 
L 326.443146 67.975432 
L 330.45573 68.06303 
L 334.468315 68.74034 
L 338.480899 66.8338 
L 342.493483 68.965739 
L 346.506067 69.013028 
L 350.518652 70.611874 
L 354.531236 69.469576 
L 358.54382 72.061489 
L 362.556404 73.313717 
L 366.568989 71.601259 
L 370.581573 72.908366 
L 374.594157 73.840273 
L 378.606742 73.348052 
L 382.619326 75.231295 
L 386.63191 72.457685 
L 390.644494 72.61864 
L 394.657079 73.967674 
L 398.669663 73.402943 
L 402.682247 74.784462 
L 406.694831 77.643868 
L 410.707416 75.52895 
" style="fill:none;stroke:#008000;stroke-dasharray:1.5,2.475;stroke-dashoffset:0;stroke-width:1.5;"/>
    <defs>
     <path d="M 0 1.5 
C 0.397805 1.5 0.77937 1.341951 1.06066 1.06066 
C 1.341951 0.77937 1.5 0.397805 1.5 0 
C 1.5 -0.397805 1.341951 -0.77937 1.06066 -1.06066 
C 0.77937 -1.341951 0.397805 -1.5 0 -1.5 
C -0.397805 -1.5 -0.77937 -1.341951 -1.06066 -1.06066 
C -1.341951 -0.77937 -1.5 -0.397805 -1.5 0 
C -1.5 0.397805 -1.341951 0.77937 -1.06066 1.06066 
C -0.77937 1.341951 -0.397805 1.5 0 1.5 
z
" id="m252c7215de" style="stroke:#008000;"/>
    </defs>
    <g clip-path="url(#pc670d91da2)">
     <use style="fill:#008000;stroke:#008000;" x="61.612584" xlink:href="#m252c7215de" y="294.478141"/>
     <use style="fill:#008000;stroke:#008000;" x="65.625169" xlink:href="#m252c7215de" y="250.562071"/>
     <use style="fill:#008000;stroke:#008000;" x="69.637753" xlink:href="#m252c7215de" y="218.046561"/>
     <use style="fill:#008000;stroke:#008000;" x="73.650337" xlink:href="#m252c7215de" y="193.207116"/>
     <use style="fill:#008000;stroke:#008000;" x="77.662921" xlink:href="#m252c7215de" y="170.849506"/>
     <use style="fill:#008000;stroke:#008000;" x="81.675506" xlink:href="#m252c7215de" y="152.939895"/>
     <use style="fill:#008000;stroke:#008000;" x="85.68809" xlink:href="#m252c7215de" y="138.742147"/>
     <use style="fill:#008000;stroke:#008000;" x="89.700674" xlink:href="#m252c7215de" y="130.063748"/>
     <use style="fill:#008000;stroke:#008000;" x="93.713258" xlink:href="#m252c7215de" y="112.582625"/>
     <use style="fill:#008000;stroke:#008000;" x="97.725843" xlink:href="#m252c7215de" y="99.176085"/>
     <use style="fill:#008000;stroke:#008000;" x="101.738427" xlink:href="#m252c7215de" y="89.575225"/>
     <use style="fill:#008000;stroke:#008000;" x="105.751011" xlink:href="#m252c7215de" y="80.710706"/>
     <use style="fill:#008000;stroke:#008000;" x="109.763596" xlink:href="#m252c7215de" y="78.157644"/>
     <use style="fill:#008000;stroke:#008000;" x="113.77618" xlink:href="#m252c7215de" y="70.338321"/>
     <use style="fill:#008000;stroke:#008000;" x="117.788764" xlink:href="#m252c7215de" y="70.445738"/>
     <use style="fill:#008000;stroke:#008000;" x="121.801348" xlink:href="#m252c7215de" y="65.140132"/>
     <use style="fill:#008000;stroke:#008000;" x="125.813933" xlink:href="#m252c7215de" y="64.588104"/>
     <use style="fill:#008000;stroke:#008000;" x="129.826517" xlink:href="#m252c7215de" y="67.828359"/>
     <use style="fill:#008000;stroke:#008000;" x="133.839101" xlink:href="#m252c7215de" y="60.303915"/>
     <use style="fill:#008000;stroke:#008000;" x="137.851685" xlink:href="#m252c7215de" y="67.064229"/>
     <use style="fill:#008000;stroke:#008000;" x="141.86427" xlink:href="#m252c7215de" y="59.213502"/>
     <use style="fill:#008000;stroke:#008000;" x="145.876854" xlink:href="#m252c7215de" y="61.469721"/>
     <use style="fill:#008000;stroke:#008000;" x="149.889438" xlink:href="#m252c7215de" y="62.571341"/>
     <use style="fill:#008000;stroke:#008000;" x="153.902022" xlink:href="#m252c7215de" y="58.900882"/>
     <use style="fill:#008000;stroke:#008000;" x="157.914607" xlink:href="#m252c7215de" y="56.796065"/>
     <use style="fill:#008000;stroke:#008000;" x="161.927191" xlink:href="#m252c7215de" y="56.979415"/>
     <use style="fill:#008000;stroke:#008000;" x="165.939775" xlink:href="#m252c7215de" y="57.864502"/>
     <use style="fill:#008000;stroke:#008000;" x="169.95236" xlink:href="#m252c7215de" y="57.926504"/>
     <use style="fill:#008000;stroke:#008000;" x="173.964944" xlink:href="#m252c7215de" y="62.812065"/>
     <use style="fill:#008000;stroke:#008000;" x="177.977528" xlink:href="#m252c7215de" y="58.920446"/>
     <use style="fill:#008000;stroke:#008000;" x="181.990112" xlink:href="#m252c7215de" y="70.258715"/>
     <use style="fill:#008000;stroke:#008000;" x="186.002697" xlink:href="#m252c7215de" y="61.755331"/>
     <use style="fill:#008000;stroke:#008000;" x="190.015281" xlink:href="#m252c7215de" y="78.058184"/>
     <use style="fill:#008000;stroke:#008000;" x="194.027865" xlink:href="#m252c7215de" y="63.339327"/>
     <use style="fill:#008000;stroke:#008000;" x="198.040449" xlink:href="#m252c7215de" y="57.451422"/>
     <use style="fill:#008000;stroke:#008000;" x="202.053034" xlink:href="#m252c7215de" y="57.240531"/>
     <use style="fill:#008000;stroke:#008000;" x="206.065618" xlink:href="#m252c7215de" y="62.977019"/>
     <use style="fill:#008000;stroke:#008000;" x="210.078202" xlink:href="#m252c7215de" y="69.756104"/>
     <use style="fill:#008000;stroke:#008000;" x="214.090787" xlink:href="#m252c7215de" y="77.459533"/>
     <use style="fill:#008000;stroke:#008000;" x="218.103371" xlink:href="#m252c7215de" y="74.066883"/>
     <use style="fill:#008000;stroke:#008000;" x="222.115955" xlink:href="#m252c7215de" y="76.93941"/>
     <use style="fill:#008000;stroke:#008000;" x="226.128539" xlink:href="#m252c7215de" y="69.575638"/>
     <use style="fill:#008000;stroke:#008000;" x="230.141124" xlink:href="#m252c7215de" y="62.116667"/>
     <use style="fill:#008000;stroke:#008000;" x="234.153708" xlink:href="#m252c7215de" y="62.174799"/>
     <use style="fill:#008000;stroke:#008000;" x="238.166292" xlink:href="#m252c7215de" y="67.341997"/>
     <use style="fill:#008000;stroke:#008000;" x="242.178876" xlink:href="#m252c7215de" y="60.60867"/>
     <use style="fill:#008000;stroke:#008000;" x="246.191461" xlink:href="#m252c7215de" y="67.610745"/>
     <use style="fill:#008000;stroke:#008000;" x="250.204045" xlink:href="#m252c7215de" y="73.873235"/>
     <use style="fill:#008000;stroke:#008000;" x="254.216629" xlink:href="#m252c7215de" y="72.332055"/>
     <use style="fill:#008000;stroke:#008000;" x="258.229213" xlink:href="#m252c7215de" y="67.225079"/>
     <use style="fill:#008000;stroke:#008000;" x="262.241798" xlink:href="#m252c7215de" y="61.658935"/>
     <use style="fill:#008000;stroke:#008000;" x="266.254382" xlink:href="#m252c7215de" y="60.663238"/>
     <use style="fill:#008000;stroke:#008000;" x="270.266966" xlink:href="#m252c7215de" y="60.465802"/>
     <use style="fill:#008000;stroke:#008000;" x="274.279551" xlink:href="#m252c7215de" y="66.739332"/>
     <use style="fill:#008000;stroke:#008000;" x="278.292135" xlink:href="#m252c7215de" y="62.438227"/>
     <use style="fill:#008000;stroke:#008000;" x="282.304719" xlink:href="#m252c7215de" y="64.389227"/>
     <use style="fill:#008000;stroke:#008000;" x="286.317303" xlink:href="#m252c7215de" y="64.3803"/>
     <use style="fill:#008000;stroke:#008000;" x="290.329888" xlink:href="#m252c7215de" y="65.256307"/>
     <use style="fill:#008000;stroke:#008000;" x="294.342472" xlink:href="#m252c7215de" y="69.092233"/>
     <use style="fill:#008000;stroke:#008000;" x="298.355056" xlink:href="#m252c7215de" y="67.581806"/>
     <use style="fill:#008000;stroke:#008000;" x="302.36764" xlink:href="#m252c7215de" y="63.789017"/>
     <use style="fill:#008000;stroke:#008000;" x="306.380225" xlink:href="#m252c7215de" y="67.506816"/>
     <use style="fill:#008000;stroke:#008000;" x="310.392809" xlink:href="#m252c7215de" y="65.865513"/>
     <use style="fill:#008000;stroke:#008000;" x="314.405393" xlink:href="#m252c7215de" y="64.546025"/>
     <use style="fill:#008000;stroke:#008000;" x="318.417978" xlink:href="#m252c7215de" y="65.174203"/>
     <use style="fill:#008000;stroke:#008000;" x="322.430562" xlink:href="#m252c7215de" y="65.800602"/>
     <use style="fill:#008000;stroke:#008000;" x="326.443146" xlink:href="#m252c7215de" y="67.975432"/>
     <use style="fill:#008000;stroke:#008000;" x="330.45573" xlink:href="#m252c7215de" y="68.06303"/>
     <use style="fill:#008000;stroke:#008000;" x="334.468315" xlink:href="#m252c7215de" y="68.74034"/>
     <use style="fill:#008000;stroke:#008000;" x="338.480899" xlink:href="#m252c7215de" y="66.8338"/>
     <use style="fill:#008000;stroke:#008000;" x="342.493483" xlink:href="#m252c7215de" y="68.965739"/>
     <use style="fill:#008000;stroke:#008000;" x="346.506067" xlink:href="#m252c7215de" y="69.013028"/>
     <use style="fill:#008000;stroke:#008000;" x="350.518652" xlink:href="#m252c7215de" y="70.611874"/>
     <use style="fill:#008000;stroke:#008000;" x="354.531236" xlink:href="#m252c7215de" y="69.469576"/>
     <use style="fill:#008000;stroke:#008000;" x="358.54382" xlink:href="#m252c7215de" y="72.061489"/>
     <use style="fill:#008000;stroke:#008000;" x="362.556404" xlink:href="#m252c7215de" y="73.313717"/>
     <use style="fill:#008000;stroke:#008000;" x="366.568989" xlink:href="#m252c7215de" y="71.601259"/>
     <use style="fill:#008000;stroke:#008000;" x="370.581573" xlink:href="#m252c7215de" y="72.908366"/>
     <use style="fill:#008000;stroke:#008000;" x="374.594157" xlink:href="#m252c7215de" y="73.840273"/>
     <use style="fill:#008000;stroke:#008000;" x="378.606742" xlink:href="#m252c7215de" y="73.348052"/>
     <use style="fill:#008000;stroke:#008000;" x="382.619326" xlink:href="#m252c7215de" y="75.231295"/>
     <use style="fill:#008000;stroke:#008000;" x="386.63191" xlink:href="#m252c7215de" y="72.457685"/>
     <use style="fill:#008000;stroke:#008000;" x="390.644494" xlink:href="#m252c7215de" y="72.61864"/>
     <use style="fill:#008000;stroke:#008000;" x="394.657079" xlink:href="#m252c7215de" y="73.967674"/>
     <use style="fill:#008000;stroke:#008000;" x="398.669663" xlink:href="#m252c7215de" y="73.402943"/>
     <use style="fill:#008000;stroke:#008000;" x="402.682247" xlink:href="#m252c7215de" y="74.784462"/>
     <use style="fill:#008000;stroke:#008000;" x="406.694831" xlink:href="#m252c7215de" y="77.643868"/>
     <use style="fill:#008000;stroke:#008000;" x="410.707416" xlink:href="#m252c7215de" y="75.52895"/>
    </g>
   </g>
   <g id="patch_3">
    <path d="M 57.6 307.584 
L 57.6 41.472 
" style="fill:none;stroke:#000000;stroke-linecap:square;stroke-linejoin:miter;stroke-width:0.8;"/>
   </g>
   <g id="patch_4">
    <path d="M 414.72 307.584 
L 414.72 41.472 
" style="fill:none;stroke:#000000;stroke-linecap:square;stroke-linejoin:miter;stroke-width:0.8;"/>
   </g>
   <g id="patch_5">
    <path d="M 57.6 307.584 
L 414.72 307.584 
" style="fill:none;stroke:#000000;stroke-linecap:square;stroke-linejoin:miter;stroke-width:0.8;"/>
   </g>
   <g id="patch_6">
    <path d="M 57.6 41.472 
L 414.72 41.472 
" style="fill:none;stroke:#000000;stroke-linecap:square;stroke-linejoin:miter;stroke-width:0.8;"/>
   </g>
   <g id="text_32">
    <!-- TBB sort 3PV on pre_transpose46 -->
    <defs>
     <path d="M -0.296875 72.90625 
L 61.375 72.90625 
L 61.375 64.59375 
L 35.5 64.59375 
L 35.5 0 
L 25.59375 0 
L 25.59375 64.59375 
L -0.296875 64.59375 
z
" id="DejaVuSans-84"/>
     <path d="M 19.671875 34.8125 
L 19.671875 8.109375 
L 35.5 8.109375 
Q 43.453125 8.109375 47.28125 11.40625 
Q 51.125 14.703125 51.125 21.484375 
Q 51.125 28.328125 47.28125 31.5625 
Q 43.453125 34.8125 35.5 34.8125 
z
M 19.671875 64.796875 
L 19.671875 42.828125 
L 34.28125 42.828125 
Q 41.5 42.828125 45.03125 45.53125 
Q 48.578125 48.25 48.578125 53.8125 
Q 48.578125 59.328125 45.03125 62.0625 
Q 41.5 64.796875 34.28125 64.796875 
z
M 9.8125 72.90625 
L 35.015625 72.90625 
Q 46.296875 72.90625 52.390625 68.21875 
Q 58.5 63.53125 58.5 54.890625 
Q 58.5 48.1875 55.375 44.234375 
Q 52.25 40.28125 46.1875 39.3125 
Q 53.46875 37.75 57.5 32.78125 
Q 61.53125 27.828125 61.53125 20.40625 
Q 61.53125 10.640625 54.890625 5.3125 
Q 48.25 0 35.984375 0 
L 9.8125 0 
z
" id="DejaVuSans-66"/>
     <path d="M 30.609375 48.390625 
Q 23.390625 48.390625 19.1875 42.75 
Q 14.984375 37.109375 14.984375 27.296875 
Q 14.984375 17.484375 19.15625 11.84375 
Q 23.34375 6.203125 30.609375 6.203125 
Q 37.796875 6.203125 41.984375 11.859375 
Q 46.1875 17.53125 46.1875 27.296875 
Q 46.1875 37.015625 41.984375 42.703125 
Q 37.796875 48.390625 30.609375 48.390625 
z
M 30.609375 56 
Q 42.328125 56 49.015625 48.375 
Q 55.71875 40.765625 55.71875 27.296875 
Q 55.71875 13.875 49.015625 6.21875 
Q 42.328125 -1.421875 30.609375 -1.421875 
Q 18.84375 -1.421875 12.171875 6.21875 
Q 5.515625 13.875 5.515625 27.296875 
Q 5.515625 40.765625 12.171875 48.375 
Q 18.84375 56 30.609375 56 
z
" id="DejaVuSans-111"/>
     <path d="M 19.671875 64.796875 
L 19.671875 37.40625 
L 32.078125 37.40625 
Q 38.96875 37.40625 42.71875 40.96875 
Q 46.484375 44.53125 46.484375 51.125 
Q 46.484375 57.671875 42.71875 61.234375 
Q 38.96875 64.796875 32.078125 64.796875 
z
M 9.8125 72.90625 
L 32.078125 72.90625 
Q 44.34375 72.90625 50.609375 67.359375 
Q 56.890625 61.8125 56.890625 51.125 
Q 56.890625 40.328125 50.609375 34.8125 
Q 44.34375 29.296875 32.078125 29.296875 
L 19.671875 29.296875 
L 19.671875 0 
L 9.8125 0 
z
" id="DejaVuSans-80"/>
     <path d="M 28.609375 0 
L 0.78125 72.90625 
L 11.078125 72.90625 
L 34.1875 11.53125 
L 57.328125 72.90625 
L 67.578125 72.90625 
L 39.796875 0 
z
" id="DejaVuSans-86"/>
     <path d="M 54.890625 33.015625 
L 54.890625 0 
L 45.90625 0 
L 45.90625 32.71875 
Q 45.90625 40.484375 42.875 44.328125 
Q 39.84375 48.1875 33.796875 48.1875 
Q 26.515625 48.1875 22.3125 43.546875 
Q 18.109375 38.921875 18.109375 30.90625 
L 18.109375 0 
L 9.078125 0 
L 9.078125 54.6875 
L 18.109375 54.6875 
L 18.109375 46.1875 
Q 21.34375 51.125 25.703125 53.5625 
Q 30.078125 56 35.796875 56 
Q 45.21875 56 50.046875 50.171875 
Q 54.890625 44.34375 54.890625 33.015625 
z
" id="DejaVuSans-110"/>
     <path d="M 50.984375 -16.609375 
L 50.984375 -23.578125 
L -0.984375 -23.578125 
L -0.984375 -16.609375 
z
" id="DejaVuSans-95"/>
    </defs>
    <g transform="translate(135.816563 35.472)scale(0.12 -0.12)">
     <use xlink:href="#DejaVuSans-84"/>
     <use x="61.083984" xlink:href="#DejaVuSans-66"/>
     <use x="129.6875" xlink:href="#DejaVuSans-66"/>
     <use x="198.291016" xlink:href="#DejaVuSans-32"/>
     <use x="230.078125" xlink:href="#DejaVuSans-115"/>
     <use x="282.177734" xlink:href="#DejaVuSans-111"/>
     <use x="343.359375" xlink:href="#DejaVuSans-114"/>
     <use x="384.472656" xlink:href="#DejaVuSans-116"/>
     <use x="423.681641" xlink:href="#DejaVuSans-32"/>
     <use x="455.46875" xlink:href="#DejaVuSans-51"/>
     <use x="519.091797" xlink:href="#DejaVuSans-80"/>
     <use x="579.394531" xlink:href="#DejaVuSans-86"/>
     <use x="647.802734" xlink:href="#DejaVuSans-32"/>
     <use x="679.589844" xlink:href="#DejaVuSans-111"/>
     <use x="740.771484" xlink:href="#DejaVuSans-110"/>
     <use x="804.150391" xlink:href="#DejaVuSans-32"/>
     <use x="835.9375" xlink:href="#DejaVuSans-112"/>
     <use x="899.414062" xlink:href="#DejaVuSans-114"/>
     <use x="938.277344" xlink:href="#DejaVuSans-101"/>
     <use x="999.800781" xlink:href="#DejaVuSans-95"/>
     <use x="1049.800781" xlink:href="#DejaVuSans-116"/>
     <use x="1089.009766" xlink:href="#DejaVuSans-114"/>
     <use x="1130.123047" xlink:href="#DejaVuSans-97"/>
     <use x="1191.402344" xlink:href="#DejaVuSans-110"/>
     <use x="1254.78125" xlink:href="#DejaVuSans-115"/>
     <use x="1306.880859" xlink:href="#DejaVuSans-112"/>
     <use x="1370.357422" xlink:href="#DejaVuSans-111"/>
     <use x="1431.539062" xlink:href="#DejaVuSans-115"/>
     <use x="1483.638672" xlink:href="#DejaVuSans-101"/>
     <use x="1545.162109" xlink:href="#DejaVuSans-52"/>
     <use x="1608.785156" xlink:href="#DejaVuSans-54"/>
    </g>
   </g>
   <g id="legend_1">
    <g id="patch_7">
     <path d="M 313.152813 302.584 
L 407.72 302.584 
Q 409.72 302.584 409.72 300.584 
L 409.72 257.2715 
Q 409.72 255.2715 407.72 255.2715 
L 313.152813 255.2715 
Q 311.152813 255.2715 311.152813 257.2715 
L 311.152813 300.584 
Q 311.152813 302.584 313.152813 302.584 
z
" style="fill:#ffffff;opacity:0.8;stroke:#cccccc;stroke-linejoin:miter;"/>
    </g>
    <g id="line2d_62">
     <path d="M 315.152813 263.369937 
L 335.152813 263.369937 
" style="fill:none;stroke:#0000ff;stroke-dasharray:1.5,2.475;stroke-dashoffset:0;stroke-width:1.5;"/>
    </g>
    <g id="line2d_63">
     <g>
      <use style="fill:#0000ff;stroke:#0000ff;" x="325.152813" xlink:href="#m77be2aa625" y="263.369937"/>
     </g>
    </g>
    <g id="text_33">
     <!-- transpose -->
     <g transform="translate(343.152813 266.869937)scale(0.1 -0.1)">
      <use xlink:href="#DejaVuSans-116"/>
      <use x="39.208984" xlink:href="#DejaVuSans-114"/>
      <use x="80.322266" xlink:href="#DejaVuSans-97"/>
      <use x="141.601562" xlink:href="#DejaVuSans-110"/>
      <use x="204.980469" xlink:href="#DejaVuSans-115"/>
      <use x="257.080078" xlink:href="#DejaVuSans-112"/>
      <use x="320.556641" xlink:href="#DejaVuSans-111"/>
      <use x="381.738281" xlink:href="#DejaVuSans-115"/>
      <use x="433.837891" xlink:href="#DejaVuSans-101"/>
     </g>
    </g>
    <g id="line2d_64">
     <path d="M 315.152813 278.048063 
L 335.152813 278.048063 
" style="fill:none;stroke:#ff0000;stroke-dasharray:1.5,2.475;stroke-dashoffset:0;stroke-width:1.5;"/>
    </g>
    <g id="line2d_65">
     <g>
      <use style="fill:#ff0000;stroke:#ff0000;" x="325.152813" xlink:href="#m865e3877a0" y="278.048063"/>
     </g>
    </g>
    <g id="text_34">
     <!-- transpose_tr -->
     <g transform="translate(343.152813 281.548063)scale(0.1 -0.1)">
      <use xlink:href="#DejaVuSans-116"/>
      <use x="39.208984" xlink:href="#DejaVuSans-114"/>
      <use x="80.322266" xlink:href="#DejaVuSans-97"/>
      <use x="141.601562" xlink:href="#DejaVuSans-110"/>
      <use x="204.980469" xlink:href="#DejaVuSans-115"/>
      <use x="257.080078" xlink:href="#DejaVuSans-112"/>
      <use x="320.556641" xlink:href="#DejaVuSans-111"/>
      <use x="381.738281" xlink:href="#DejaVuSans-115"/>
      <use x="433.837891" xlink:href="#DejaVuSans-101"/>
      <use x="495.361328" xlink:href="#DejaVuSans-95"/>
      <use x="545.361328" xlink:href="#DejaVuSans-116"/>
      <use x="584.570312" xlink:href="#DejaVuSans-114"/>
     </g>
    </g>
    <g id="line2d_66">
     <path d="M 315.152813 293.004312 
L 335.152813 293.004312 
" style="fill:none;stroke:#008000;stroke-dasharray:1.5,2.475;stroke-dashoffset:0;stroke-width:1.5;"/>
    </g>
    <g id="line2d_67">
     <g>
      <use style="fill:#008000;stroke:#008000;" x="325.152813" xlink:href="#m252c7215de" y="293.004312"/>
     </g>
    </g>
    <g id="text_35">
     <!-- mean -->
     <defs>
      <path d="M 52 44.1875 
Q 55.375 50.25 60.0625 53.125 
Q 64.75 56 71.09375 56 
Q 79.640625 56 84.28125 50.015625 
Q 88.921875 44.046875 88.921875 33.015625 
L 88.921875 0 
L 79.890625 0 
L 79.890625 32.71875 
Q 79.890625 40.578125 77.09375 44.375 
Q 74.3125 48.1875 68.609375 48.1875 
Q 61.625 48.1875 57.5625 43.546875 
Q 53.515625 38.921875 53.515625 30.90625 
L 53.515625 0 
L 44.484375 0 
L 44.484375 32.71875 
Q 44.484375 40.625 41.703125 44.40625 
Q 38.921875 48.1875 33.109375 48.1875 
Q 26.21875 48.1875 22.15625 43.53125 
Q 18.109375 38.875 18.109375 30.90625 
L 18.109375 0 
L 9.078125 0 
L 9.078125 54.6875 
L 18.109375 54.6875 
L 18.109375 46.1875 
Q 21.1875 51.21875 25.484375 53.609375 
Q 29.78125 56 35.6875 56 
Q 41.65625 56 45.828125 52.96875 
Q 50 49.953125 52 44.1875 
z
" id="DejaVuSans-109"/>
     </defs>
     <g transform="translate(343.152813 296.504312)scale(0.1 -0.1)">
      <use xlink:href="#DejaVuSans-109"/>
      <use x="97.412109" xlink:href="#DejaVuSans-101"/>
      <use x="158.935547" xlink:href="#DejaVuSans-97"/>
      <use x="220.214844" xlink:href="#DejaVuSans-110"/>
     </g>
    </g>
   </g>
  </g>
 </g>
 <defs>
  <clipPath id="pc670d91da2">
   <rect height="266.112" width="357.12" x="57.6" y="41.472"/>
  </clipPath>
 </defs>
</svg>
